<?xml version="1.0" ?>
<svg xmlns="http://www.w3.org/2000/svg" version="1.1" width="224" height="224">
  <defs/>
  <g>
    <path d="M 45.816612243652344 58.83649826049805 C 85.48941040039062 58.83649826049805 125.16304779052734 58.83649826049805 164.83584594726562 58.83649826049805 C 164.8375244140625 73.97801208496094 164.83836364746094 89.1195297241211 164.8391876220703 104.26103973388672 C 150.7787322998047 104.26103973388672 136.71827697753906 104.26103973388672 122.65782928466797 104.26103973388672 C 122.404052734375 104.3470230102539 122.15110778808594 104.4330062866211 121.8981704711914 104.51815795898438 C 118.21004486083984 106.83387756347656 114.52108001708984 109.14876556396484 110.83295440673828 111.46365356445312 C 110.17430114746094 112.37942504882812 110.05409240722656 112.83522033691406 110.91476440429688 113.64413452148438 C 114.56950378417969 115.93230438232422 118.22423553466797 118.2204818725586 121.87896728515625 120.50865173339844 C 122.11772155761719 120.601318359375 122.3564682006836 120.69314575195312 122.59605407714844 120.78581237792969 C 136.6757049560547 120.78581237792969 150.75619506835938 120.78581237792969 164.83584594726562 120.78581237792969 C 164.83584594726562 123.12490844726562 164.83584594726562 125.46399688720703 164.83584594726562 127.80309295654297 C 125.16304779052734 127.80309295654297 85.48941040039062 127.80309295654297 45.816612243652344 127.80309295654297 C 45.816612243652344 104.81367492675781 45.816612243652344 81.82508087158203 45.816612243652344 58.83649826049805" stroke-width="0.0" fill="rgb(0, 0, 0)" opacity="1.0"/>
    <path d="M 44.65624237060547 51.11798095703125 C 85.20307922363281 51.11798095703125 125.74990844726562 51.11798095703125 166.2958984375 51.11798095703125 C 170.078369140625 51.6280403137207 172.1144256591797 53.65325164794922 172.62615966796875 57.43821334838867 C 172.62615966796875 73.04637908935547 172.62615966796875 88.65538024902344 172.62615966796875 104.2643814086914 C 170.87225341796875 104.2643814086914 169.11834716796875 104.2643814086914 167.3652801513672 104.2643814086914 C 167.3652801513672 88.69962310791016 167.3652801513672 73.13570404052734 167.3652801513672 57.571781158447266 C 167.13653564453125 57.019981384277344 166.64901733398438 56.53496551513672 166.09805297851562 56.30706787109375 C 125.58295440673828 56.30706787109375 85.06700134277344 56.30706787109375 44.55189514160156 56.30706787109375 C 44.00426483154297 56.53663635253906 43.52342987060547 57.02248764038086 43.29719543457031 57.571781158447266 C 43.29719543457031 81.40351104736328 43.29719543457031 105.23524475097656 43.29719543457031 129.06781005859375 C 43.524261474609375 129.61627197265625 44.00426483154297 130.10296630859375 44.55189514160156 130.33169555664062 C 85.06867218017578 130.33169555664062 125.58462524414062 130.33169555664062 166.10140991210938 130.33169555664062 C 166.6515350341797 130.10379028320312 167.13739013671875 129.61793518066406 167.3652801513672 129.06781005859375 C 167.3652801513672 126.30714416503906 167.3652801513672 123.54647827148438 167.3652801513672 120.78581237792969 C 169.11834716796875 120.78581237792969 170.87225341796875 120.78581237792969 172.62615966796875 120.78581237792969 C 172.62615966796875 128.8682861328125 172.62615966796875 136.9516143798828 172.62615966796875 145.0341033935547 C 172.1136016845703 148.81822204589844 170.07920837402344 150.845947265625 166.2958984375 151.35433959960938 C 125.74990844726562 151.35433959960938 85.20307922363281 151.35433959960938 44.65624237060547 151.35433959960938 C 40.872947692871094 150.8426055908203 38.844398498535156 148.81739807128906 38.32682800292969 145.0341033935547 C 38.32682800292969 115.8354721069336 38.32682800292969 86.6368408203125 38.32682800292969 57.43821334838867 C 38.844398498535156 53.655757904052734 40.87378692626953 51.63054275512695 44.65624237060547 51.11798095703125 C 44.65624237060547 51.11798095703125 44.65624237060547 51.11798095703125 44.65624237060547 51.11798095703125" stroke-width="0.0" fill="rgb(0, 0, 0)" opacity="1.0"/>
    <path d="M 90.87300872802734 153.88043212890625 C 100.6067123413086 153.88043212890625 110.34126281738281 153.88043212890625 120.0758056640625 153.88043212890625 C 122.02088165283203 161.2708740234375 123.96595001220703 168.66213989257812 125.91101837158203 176.05340576171875 C 112.2854995727539 176.05340576171875 98.66080474853516 176.05340576171875 85.0352783203125 176.05340576171875 C 86.98118591308594 168.66213989257812 88.92709350585938 161.2708740234375 90.87300872802734 153.88043212890625" stroke-width="0.0" fill="rgb(0, 0, 0)" opacity="1.0"/>
    <path d="M 144.14962768554688 28.0 C 144.14962768554688 28.0 144.14962768554688 28.0 144.14962768554688 28.0 C 147.9078826904297 28.272979736328125 151.1602325439453 30.549461364746094 151.8639678955078 34.4412841796875 C 152.03677368164062 35.39878845214844 151.52169799804688 37.225318908691406 152.1227569580078 38.05010223388672 C 152.8916015625 39.10694885253906 154.3140869140625 38.17198181152344 155.17726135253906 38.006690979003906 C 156.60728454589844 37.732879638671875 158.0965576171875 37.88898468017578 159.44558715820312 38.425750732421875 C 161.89736938476562 39.40079879760742 163.81239318847656 41.631370544433594 164.30825805664062 44.23676681518555 C 164.6079559326172 45.81035232543945 164.15048217773438 47.059207916259766 164.64051818847656 48.591888427734375 C 147.1623992919922 48.591888427734375 129.6834716796875 48.591888427734375 112.20536041259766 48.591888427734375 C 113.17372131347656 47.82054138183594 113.329833984375 47.565093994140625 114.44261169433594 47.134334564208984 C 115.9878158569336 46.53579330444336 117.34686279296875 47.16856384277344 118.09400939941406 45.4764404296875 C 118.06061553955078 44.979736328125 118.0272216796875 44.4830322265625 117.99299621582031 43.987159729003906 C 118.40705871582031 41.39094924926758 119.45304870605469 39.20044708251953 122.02755737304688 38.14776611328125 C 123.02263641357422 37.74121856689453 124.69639587402344 38.015869140625 125.51532745361328 37.31047058105469 C 125.89099884033203 36.987403869628906 126.13558959960938 35.629188537597656 126.25829315185547 35.306121826171875 C 127.02130126953125 33.306793212890625 128.78855895996094 31.809173583984375 130.8621826171875 31.31330108642578 C 132.1043701171875 31.015281677246094 133.42335510253906 31.08373260498047 134.6204376220703 31.53369140625 C 135.15054321289062 31.733200073242188 136.03375244140625 32.406044006347656 136.72079467773438 32.23992156982422 C 137.73590087890625 31.99365997314453 138.48052978515625 30.332412719726562 139.26858520507812 29.7021484375 C 140.72947692871094 28.535934448242188 142.332275390625 28.15276336669922 144.14962768554688 28.0 C 144.14962768554688 28.0 144.14962768554688 28.0 144.14962768554688 28.0" stroke-width="0.0" fill="rgb(0, 0, 0)" opacity="1.0"/>
    <path d="M 180.84890747070312 106.78712463378906 C 180.84890747070312 108.27640533447266 180.84890747070312 109.76567840576172 180.84890747070312 111.25495147705078 C 169.50152587890625 111.25495147705078 158.1533203125 111.25495147705078 146.80593872070312 111.25495147705078 C 145.2123260498047 111.91527557373047 145.20982360839844 113.12572479248047 146.80593872070312 113.78437805175781 C 158.1533203125 113.78437805175781 169.50152587890625 113.78437805175781 180.84890747070312 113.78437805175781 C 180.84890747070312 115.27532958984375 180.84890747070312 116.76543426513672 180.84890747070312 118.25637817382812 C 165.27828979492188 118.25637817382812 149.70770263671875 118.25637817382812 134.13710021972656 118.25637817382812 C 134.13710021972656 116.67778015136719 134.13710021972656 115.09918212890625 134.13710021972656 113.52058410644531 C 133.4784393310547 111.92696380615234 132.2779998779297 111.92779541015625 131.61685180664062 113.52058410644531 C 131.61685180664062 115.09918212890625 131.61685180664062 116.67778015136719 131.61685180664062 118.25637817382812 C 128.746826171875 118.25637817382812 125.87679290771484 118.25637817382812 123.00593566894531 118.25637817382812 C 119.95809936523438 116.34553527832031 116.909423828125 114.43468475341797 113.86075592041016 112.52384185791016 C 116.909423828125 110.6121597290039 119.95809936523438 108.7013168334961 123.00593566894531 106.78963470458984 C 142.28720092773438 106.78880310058594 161.567626953125 106.7879638671875 180.84890747070312 106.78712463378906" stroke-width="0.0" fill="rgb(0, 0, 0)" opacity="1.0"/>
    <path d="M 65.14378356933594 178.58201599121094 C 92.03086853027344 178.58201599121094 118.9179458618164 178.58201599121094 145.80502319335938 178.58201599121094 C 145.80502319335938 180.72994995117188 145.80502319335938 182.87786865234375 145.80502319335938 185.02578735351562 C 118.9179458618164 185.02578735351562 92.03086853027344 185.02578735351562 65.14378356933594 185.02578735351562 C 65.14378356933594 182.87786865234375 65.14378356933594 180.72994995117188 65.14378356933594 178.58201599121094" stroke-width="0.0" fill="rgb(0, 0, 0)" opacity="1.0"/>
    <path d="M 65.87422943115234 74.37370300292969 C 65.87422943115234 74.37370300292969 65.87422943115234 74.37370300292969 65.87422943115234 74.37370300292969 C 65.3232650756836 74.60160064697266 64.83824920654297 75.08744812011719 64.60951232910156 75.63842010498047 C 64.60951232910156 81.22737121582031 64.60951232910156 86.8171615600586 64.60951232910156 92.40694427490234 C 64.83824920654297 92.95707702636719 65.3240966796875 93.44125366210938 65.87422943115234 93.67166137695312 C 71.46401977539062 93.67166137695312 77.05380249023438 93.67166137695312 82.64359283447266 93.67166137695312 C 83.1937255859375 93.44125366210938 83.67957305908203 92.95707702636719 83.90830993652344 92.40694427490234 C 83.90830993652344 86.8171615600586 83.90830993652344 81.22737121582031 83.90830993652344 75.63842010498047 C 83.67957305908203 75.08744812011719 83.1945571899414 74.60076904296875 82.64359283447266 74.37370300292969 C 77.05380249023438 74.37370300292969 71.46401977539062 74.37370300292969 65.87422943115234 74.37370300292969" stroke-width="0.0" fill="rgb(254, 254, 254)" opacity="1.0"/>
    <path d="M 135.20230102539062 74.56486511230469 C 135.20230102539062 74.56486511230469 135.20230102539062 74.56486511230469 135.20230102539062 74.56486511230469 C 131.71534729003906 74.84786987304688 128.6516571044922 76.34966278076172 126.98040008544922 79.57698059082031 C 123.84574127197266 85.62841796875 128.39955139160156 93.0789566040039 135.20230102539062 93.078125 C 142.0041961669922 93.078125 146.538818359375 85.61672973632812 143.4158477783203 79.57447814941406 C 141.74708557128906 76.34799194335938 138.6884002685547 74.84786987304688 135.20230102539062 74.56486511230469 C 135.20230102539062 74.56486511230469 135.20230102539062 74.56486511230469 135.20230102539062 74.56486511230469" stroke-width="0.0" fill="rgb(254, 254, 254)" opacity="1.0"/>
    <path d="M 105.99281311035156 74.55902862548828 C 105.99281311035156 74.55902862548828 105.99281311035156 74.55902862548828 105.99281311035156 74.55902862548828 C 105.40428161621094 74.46720123291016 104.7372817993164 74.62998962402344 104.25560760498047 74.97976684570312 C 100.87467956542969 80.54283905029297 97.49376678466797 86.1050796508789 94.11283874511719 91.66731262207031 C 93.73050689697266 92.85440063476562 94.0226821899414 93.2033462524414 95.1396484375 93.67166137695312 C 101.93487548828125 93.66831970214844 108.73094177246094 93.66498565673828 115.52617645263672 93.6616439819336 C 116.67151641845703 93.33773803710938 116.7741928100586 92.87359619140625 116.60472869873047 91.748291015625 C 113.22046661376953 86.18270874023438 109.83621215820312 80.61630249023438 106.45195007324219 75.05072021484375 C 106.29917907714844 74.88710021972656 106.14558410644531 74.72348022460938 105.99281311035156 74.55902862548828 C 105.99281311035156 74.55902862548828 105.99281311035156 74.55902862548828 105.99281311035156 74.55902862548828" stroke-width="0.0" fill="rgb(253, 253, 253)" opacity="1.0"/>
    <path d="M 36.34502410888672 187.77728271484375 C 67.4928970336914 187.77728271484375 98.64077758789062 187.77728271484375 129.7886505126953 187.77728271484375 C 131.37893676757812 188.44178771972656 131.38644409179688 189.64471435546875 129.7886505126953 190.30587768554688 C 98.64077758789062 190.30587768554688 67.4928970336914 190.30587768554688 36.34502410888672 190.30587768554688 C 34.747222900390625 189.64553833007812 34.755577087402344 188.44178771972656 36.34502410888672 187.77728271484375 C 36.34502410888672 187.77728271484375 36.34502410888672 187.77728271484375 36.34502410888672 187.77728271484375" stroke-width="0.0" fill="rgb(0, 0, 0)" opacity="1.0"/>
    <path d="M 55.09535598754883 103.28265380859375 C 55.09535598754883 103.28265380859375 55.09535598754883 103.28265380859375 55.09535598754883 103.28265380859375 C 53.502567291259766 103.94297790527344 53.50006103515625 105.15343475341797 55.09535598754883 105.81291961669922 C 68.70751953125 105.81291961669922 82.31969451904297 105.81291961669922 95.9318618774414 105.81291961669922 C 97.52465057373047 105.15259552001953 97.52632141113281 103.94214630126953 95.9318618774414 103.28265380859375 C 82.31969451904297 103.28265380859375 68.70751953125 103.28265380859375 55.09535598754883 103.28265380859375" stroke-width="0.0" fill="rgb(254, 254, 254)" opacity="1.0"/>
    <path d="M 37.7491455078125 41.25237274169922 C 44.93840026855469 41.25237274169922 52.127655029296875 41.25237274169922 59.31691360473633 41.25237274169922 C 60.91554641723633 41.911861419677734 60.9055290222168 43.11647033691406 59.31691360473633 43.78179931640625 C 52.127655029296875 43.78179931640625 44.93840026855469 43.78179931640625 37.7491455078125 43.78179931640625 C 33.539276123046875 44.20671081542969 30.99481964111328 46.75450134277344 30.569908142089844 50.965213775634766 C 30.569908142089844 63.476287841796875 30.569908142089844 75.98819732666016 30.569908142089844 88.499267578125 C 29.910423278808594 90.09373474121094 28.70079803466797 90.0920639038086 28.04047393798828 88.499267578125 C 28.04047393798828 75.98819732666016 28.04047393798828 63.476287841796875 28.04047393798828 50.965213775634766 C 28.497116088867188 45.36791229248047 32.15100860595703 41.707340240478516 37.7491455078125 41.25237274169922 C 37.7491455078125 41.25237274169922 37.7491455078125 41.25237274169922 37.7491455078125 41.25237274169922" stroke-width="0.0" fill="rgb(0, 0, 0)" opacity="1.0"/>
    <path d="M 91.05916595458984 193.4705810546875 C 112.61273956298828 193.4705810546875 134.16632080078125 193.4705810546875 155.7198944091797 193.4705810546875 C 157.31768798828125 194.13174438476562 157.309326171875 195.33551025390625 155.7198944091797 196.0 C 134.16632080078125 196.0 112.61273956298828 196.0 91.05916595458984 196.0 C 89.46720886230469 195.33551025390625 89.46220397949219 194.13174438476562 91.05916595458984 193.4705810546875 C 91.05916595458984 193.4705810546875 91.05916595458984 193.4705810546875 91.05916595458984 193.4705810546875" stroke-width="0.0" fill="rgb(0, 0, 0)" opacity="1.0"/>
    <path d="M 55.09535598754883 109.79823303222656 C 55.09535598754883 109.79823303222656 55.09535598754883 109.79823303222656 55.09535598754883 109.79823303222656 C 53.502567291259766 110.45855712890625 53.50006103515625 111.66817474365234 55.09535598754883 112.3276596069336 C 68.70751953125 112.3276596069336 82.31969451904297 112.3276596069336 95.9318618774414 112.3276596069336 C 97.52465057373047 111.66817474365234 97.52632141113281 110.45772552490234 95.9318618774414 109.79823303222656 C 82.31969451904297 109.79823303222656 68.70751953125 109.79823303222656 55.09535598754883 109.79823303222656" stroke-width="0.0" fill="rgb(254, 254, 254)" opacity="1.0"/>
    <path d="M 105.47440338134766 140.5955047607422 C 105.47440338134766 140.5955047607422 105.47440338134766 140.5955047607422 105.47440338134766 140.5955047607422 C 103.7906265258789 140.9352569580078 102.40486145019531 141.3451385498047 101.67859649658203 143.1065673828125 C 100.5716552734375 145.79293823242188 102.5643081665039 148.81405639648438 105.47440338134766 148.83493041992188 C 108.3836669921875 148.8557891845703 110.33625030517578 145.8046112060547 109.29192352294922 143.16331481933594 C 108.60990142822266 141.43948364257812 107.1573486328125 140.82589721679688 105.47440338134766 140.5955047607422 C 105.47440338134766 140.5955047607422 105.47440338134766 140.5955047607422 105.47440338134766 140.5955047607422" stroke-width="0.0" fill="rgb(254, 254, 254)" opacity="1.0"/>
    <path d="M 67.13894653320312 76.89895629882812 C 71.88642883300781 76.89895629882812 76.6339111328125 76.89895629882812 81.38137817382812 76.89895629882812 C 81.38137817382812 81.64727020263672 81.38137817382812 86.39476013183594 81.38137817382812 91.1422348022461 C 76.6339111328125 91.1422348022461 71.88642883300781 91.1422348022461 67.13894653320312 91.1422348022461 C 67.13894653320312 86.39476013183594 67.13894653320312 81.64727020263672 67.13894653320312 76.89895629882812" stroke-width="0.0" fill="rgb(0, 0, 0)" opacity="1.0"/>
    <path d="M 135.20230102539062 77.09513854980469 C 135.20230102539062 77.09513854980469 135.20230102539062 77.09513854980469 135.20230102539062 77.09513854980469 C 137.4762725830078 77.32386779785156 139.4488983154297 78.0810317993164 140.77955627441406 80.0603256225586 C 143.73223876953125 84.45218658447266 140.49488830566406 90.55536651611328 135.20230102539062 90.55536651611328 C 129.90635681152344 90.55453491210938 126.65983581542969 84.45301818847656 129.62002563476562 80.05615234375 C 130.95486450195312 78.07434844970703 132.92413330078125 77.32302856445312 135.20230102539062 77.09513854980469 C 135.20230102539062 77.09513854980469 135.20230102539062 77.09513854980469 135.20230102539062 77.09513854980469" stroke-width="0.0" fill="rgb(0, 0, 0)" opacity="1.0"/>
    <path d="M 191.8590087890625 106.78712463378906 C 191.8590087890625 106.78712463378906 191.8590087890625 106.78712463378906 191.8590087890625 106.78712463378906 C 194.43099975585938 107.31388854980469 195.4344482421875 108.31563568115234 195.95953369140625 110.88764190673828 C 195.95953369140625 111.97370910644531 195.95953369140625 113.05977630615234 195.95953369140625 114.14668273925781 C 195.43609619140625 116.72369384765625 194.43685913085938 117.72879028320312 191.8590087890625 118.25637817382812 C 190.48910522460938 118.25637817382812 189.11920166015625 118.25637817382812 187.74929809570312 118.25637817382812 C 187.74929809570312 114.43468475341797 187.74929809570312 110.6121597290039 187.74929809570312 106.78963470458984 C 189.11920166015625 106.78880310058594 190.48910522460938 106.7879638671875 191.8590087890625 106.78712463378906" stroke-width="0.0" fill="rgb(0, 0, 0)" opacity="1.0"/>
    <path d="M 32.66607666015625 193.2977752685547 C 42.87562561035156 193.2977752685547 53.08599853515625 193.2977752685547 63.296382904052734 193.2977752685547 C 64.89083862304688 193.957275390625 64.89000701904297 195.16690063476562 63.296382904052734 195.82720947265625 C 53.08599853515625 195.82720947265625 42.87562561035156 195.82720947265625 32.66607666015625 195.82720947265625 C 31.06995391845703 195.167724609375 31.07245635986328 193.95809936523438 32.66607666015625 193.2977752685547 C 32.66607666015625 193.2977752685547 32.66607666015625 193.2977752685547 32.66607666015625 193.2977752685547" stroke-width="0.0" fill="rgb(0, 0, 0)" opacity="1.0"/>
    <path d="M 173.19883728027344 41.25237274169922 C 173.19883728027344 41.25237274169922 173.19883728027344 41.25237274169922 173.19883728027344 41.25237274169922 C 178.7986297607422 41.70649719238281 182.45419311523438 45.361236572265625 182.90916442871094 50.96187210083008 C 182.90916442871094 56.24946594238281 182.90916442871094 61.53705596923828 182.90916442871094 66.82464599609375 C 182.24884033203125 68.4199447631836 181.04005432128906 68.41827392578125 180.37973022460938 66.82464599609375 C 180.3805694580078 61.53789138793945 180.3822479248047 56.251136779785156 180.38307189941406 50.965213775634766 C 180.09005737304688 48.062625885009766 178.81951904296875 45.53904724121094 175.98870849609375 44.34612274169922 C 174.97360229492188 43.91787338256836 173.0928192138672 44.19502639770508 172.30560302734375 43.406978607177734 C 171.2779541015625 42.378509521484375 172.35736083984375 41.601314544677734 173.19883728027344 41.25237274169922 C 173.19883728027344 41.25237274169922 173.19883728027344 41.25237274169922 173.19883728027344 41.25237274169922" stroke-width="0.0" fill="rgb(0, 0, 0)" opacity="1.0"/>
    <path d="M 105.33082580566406 78.04930877685547 C 107.98213195800781 82.41278076171875 110.63260650634766 86.77626037597656 113.28392028808594 91.1388931274414 C 107.98213195800781 91.1388931274414 102.68034362792969 91.1388931274414 97.3785629272461 91.1388931274414 C 100.02903747558594 86.77626037597656 102.68034362792969 82.41278076171875 105.33082580566406 78.04930877685547" stroke-width="0.0" fill="rgb(0, 0, 0)" opacity="1.0"/>
    <path d="M 162.33981323242188 193.4705810546875 C 165.03536987304688 193.4705810546875 167.73008728027344 193.4705810546875 170.42564392089844 193.4705810546875 C 172.0234375 194.13174438476562 172.0150909423828 195.33551025390625 170.42564392089844 196.0 C 167.73008728027344 196.0 165.03536987304688 196.0 162.33981323242188 196.0 C 160.7503662109375 195.33384704589844 160.745361328125 194.13424682617188 162.33981323242188 193.4705810546875 C 162.33981323242188 193.4705810546875 162.33981323242188 193.4705810546875 162.33981323242188 193.4705810546875" stroke-width="0.0" fill="rgb(0, 0, 0)" opacity="1.0"/>
    <path d="M 183.37164306640625 106.78963470458984 C 183.98773193359375 106.78963470458984 184.60379028320312 106.78963470458984 185.21987915039062 106.78963470458984 C 185.21987915039062 110.6121597290039 185.21987915039062 114.43468475341797 185.21987915039062 118.25637817382812 C 184.60379028320312 118.25637817382812 183.98773193359375 118.25637817382812 183.37164306640625 118.25637817382812 C 183.37164306640625 114.43468475341797 183.37164306640625 110.6121597290039 183.37164306640625 106.78963470458984" stroke-width="0.0" fill="rgb(127, 127, 127)" opacity="1.0"/>
    <path d="M 105.47440338134766 143.111572265625 C 105.47440338134766 143.111572265625 105.47440338134766 143.111572265625 105.47440338134766 143.111572265625 C 105.85173797607422 143.2693328857422 106.31755065917969 143.29440307617188 106.60555267333984 143.58407592773438 C 107.58810424804688 144.57244873046875 106.87101745605469 146.308837890625 105.47440338134766 146.308837890625 C 104.07779693603516 146.308837890625 103.36237335205078 144.57162475585938 104.3440933227539 143.58407592773438 C 104.63126373291016 143.29440307617188 105.09708404541016 143.2693328857422 105.47440338134766 143.111572265625 C 105.47440338134766 143.111572265625 105.47440338134766 143.111572265625 105.47440338134766 143.111572265625" stroke-width="0.0" fill="rgb(6, 6, 6)" opacity="1.0"/>
  </g>
</svg>
