<?xml version="1.0" ?>
<svg xmlns="http://www.w3.org/2000/svg" version="1.1" width="224" height="224">
  <defs/>
  <g>
    <path d="M 62.17133712768555 40.44635009765625 C 94.77752685546875 40.44635009765625 127.38371276855469 40.44635009765625 159.98989868164062 40.44635009765625 C 159.98907470703125 85.42570495605469 159.98741149902344 130.4050750732422 159.986572265625 175.38442993164062 C 127.3812255859375 175.38442993164062 94.77669525146484 175.38442993164062 62.17133712768555 175.38442993164062 C 62.17133712768555 130.4050750732422 62.17133712768555 85.42570495605469 62.17133712768555 40.44635009765625" stroke-width="0.0" fill="rgb(0, 0, 0)" opacity="1.0"/>
    <path d="M 107.95406341552734 101.39822387695312 C 107.54405975341797 104.12518310546875 107.13406372070312 106.85130310058594 106.72323608398438 109.57742309570312 C 105.75520324707031 109.80779266357422 104.7929916381836 110.06726837158203 103.83992767333984 110.35334777832031 C 102.12092590332031 108.19856262207031 100.40275573730469 106.04377746582031 98.68374633789062 103.88899993896484 C 96.88241577148438 104.92938232421875 95.0819091796875 105.96893310546875 93.28057098388672 107.00931549072266 C 94.2918472290039 109.57742309570312 95.3031234741211 112.14553833007812 96.31356811523438 114.71365356445312 C 95.58172607421875 115.39144134521484 94.87565612792969 116.09750366210938 94.1970443725586 116.82768249511719 C 91.63143157958984 115.8172378540039 89.06663513183594 114.80596160888672 86.50102233886719 113.79551696777344 C 85.46147155761719 115.59684753417969 84.42108917236328 117.39735412597656 83.38070678710938 119.19869232177734 C 85.53549194335938 120.91354370117188 87.69026947021484 122.62921905517578 89.84506225585938 124.34489440917969 C 89.55232238769531 125.29878997802734 89.2936782836914 126.26515197753906 89.0699691772461 127.2381820678711 C 86.343017578125 127.64817810058594 83.61689758300781 128.0581817626953 80.8907699584961 128.46817016601562 C 80.8907699584961 130.54977416992188 80.8907699584961 132.63137817382812 80.8907699584961 134.71214294433594 C 83.61689758300781 135.1221466064453 86.343017578125 135.53297424316406 89.0699691772461 135.94297790527344 C 89.2928466796875 136.91683959960938 89.55232238769531 137.884033203125 89.84506225585938 138.83958435058594 C 87.69026947021484 140.55442810058594 85.53549194335938 142.27011108398438 83.38070678710938 143.9857940673828 C 84.42108917236328 145.78628540039062 85.46147155761719 147.58763122558594 86.50102233886719 149.3889617919922 C 89.06663513183594 148.377685546875 91.63143157958984 147.36724853515625 94.1970443725586 146.35595703125 C 94.87565612792969 147.08697509765625 95.58172607421875 147.79302978515625 96.31356811523438 148.47000122070312 C 95.3031234741211 151.03811645507812 94.2918472290039 153.60621643066406 93.28057098388672 156.17433166503906 C 95.0819091796875 157.2147216796875 96.88241577148438 158.25509643554688 98.68374633789062 159.2954864501953 C 100.40275573730469 157.1407012939453 102.12092590332031 154.98509216308594 103.83992767333984 152.83029174804688 C 104.7929916381836 153.11721801757812 105.75520324707031 153.3758544921875 106.72323608398438 153.60621643066406 C 107.13406372070312 156.33233642578125 107.54405975341797 159.05929565429688 107.95406341552734 161.78543090820312 C 110.03815460205078 161.78543090820312 112.12142181396484 161.78543090820312 114.2046890258789 161.78543090820312 C 114.61135864257812 159.05596923828125 115.01885986328125 156.32652282714844 115.42552947998047 153.59707641601562 C 116.3985595703125 153.3733673095703 117.36408996582031 153.1138916015625 118.31798553466797 152.8203125 C 120.03699493408203 154.97842407226562 121.75515747070312 157.1373748779297 123.47416687011719 159.2954864501953 C 125.27550506591797 158.25509643554688 127.07600402832031 157.2147216796875 128.87734985351562 156.17433166503906 C 127.8660659790039 153.60621643066406 126.85562133789062 151.03811645507812 125.84518432617188 148.47000122070312 C 126.57535552978516 147.7913818359375 127.28141784667969 147.08448791503906 127.95838165283203 146.35263061523438 C 130.52398681640625 147.36392211914062 133.08877563476562 148.37435913085938 135.65440368652344 149.38563537597656 C 136.69395446777344 147.5843048095703 137.7343292236328 145.782958984375 138.77471923828125 143.98245239257812 C 136.61993408203125 142.26678466796875 134.46432495117188 140.5519256591797 132.3095245361328 138.8362579345703 C 132.5972900390625 137.87904357910156 132.8559112548828 136.9126739501953 133.08544921875 135.9396514892578 C 135.81240844726562 135.52964782714844 138.5385284423828 135.1188201904297 141.2646484375 134.7088165283203 C 141.2646484375 132.62887573242188 141.2646484375 130.54893493652344 141.2646484375 128.46817016601562 C 138.5385284423828 128.0581817626953 135.81240844726562 127.64817810058594 133.08544921875 127.2381820678711 C 132.8559112548828 126.2659912109375 132.59645080566406 125.30127716064453 132.3095245361328 124.34489440917969 C 134.46432495117188 122.62921905517578 136.61993408203125 120.91354370117188 138.77471923828125 119.19869232177734 C 137.7343292236328 117.39735412597656 136.69395446777344 115.59684753417969 135.65440368652344 113.79551696777344 C 133.08877563476562 114.80596160888672 130.52398681640625 115.8172378540039 127.95838165283203 116.82768249511719 C 127.28059387207031 116.09750366210938 126.57453155517578 115.39227294921875 125.84518432617188 114.71365356445312 C 126.85562133789062 112.14553833007812 127.8660659790039 109.57742309570312 128.87734985351562 107.00931549072266 C 127.07600402832031 105.96893310546875 125.27550506591797 104.92938232421875 123.47416687011719 103.88899993896484 C 121.75515747070312 106.04711151123047 120.03699493408203 108.20521545410156 118.31798553466797 110.36332702636719 C 117.36408996582031 110.07059478759766 116.3985595703125 109.81111907958984 115.42552947998047 109.58657836914062 C 115.01885986328125 106.85713195800781 114.61135864257812 104.12767028808594 114.2046890258789 101.39822387695312 C 112.12142181396484 101.39822387695312 110.03815460205078 101.39822387695312 107.95406341552734 101.39822387695312" stroke-width="0.0" fill="rgb(253, 253, 253)" opacity="1.0"/>
    <path d="M 72.56520080566406 67.5978012084961 C 72.56520080566406 67.5978012084961 72.56520080566406 67.5978012084961 72.56520080566406 67.5978012084961 C 71.04994201660156 68.23150634765625 71.05078125 69.38582611083984 72.56520080566406 70.01954650878906 C 97.77892303466797 70.01954650878906 122.99264526367188 70.01954650878906 148.2063751220703 70.01954650878906 C 149.73326110839844 69.38748931884766 149.73326110839844 68.22984313964844 148.2063751220703 67.5978012084961 C 122.99264526367188 67.5978012084961 97.77892303466797 67.5978012084961 72.56520080566406 67.5978012084961" stroke-width="0.0" fill="rgb(255, 255, 255)" opacity="1.0"/>
    <path d="M 52.89187240600586 32.55323791503906 C 85.4980697631836 32.55323791503906 118.104248046875 32.55323791503906 150.71044921875 32.55323791503906 C 150.71044921875 34.37786102294922 150.71044921875 36.202484130859375 150.71044921875 38.026275634765625 C 120.79461669921875 38.026275634765625 90.8787841796875 38.026275634765625 60.96379470825195 38.026275634765625 C 60.4365348815918 38.244163513183594 59.9708137512207 38.708221435546875 59.75209045410156 39.23548126220703 C 59.75209045410156 81.98687744140625 59.75209045410156 124.73826599121094 59.75209045410156 167.49049377441406 C 57.4650764465332 167.49049377441406 55.178062438964844 167.49049377441406 52.89187240600586 167.49049377441406 C 52.89187240600586 122.51112365722656 52.89187240600586 77.53176879882812 52.89187240600586 32.55323791503906" stroke-width="0.0" fill="rgb(0, 0, 0)" opacity="1.0"/>
    <path d="M 72.56520080566406 77.11428833007812 C 72.56520080566406 77.11428833007812 72.56520080566406 77.11428833007812 72.56520080566406 77.11428833007812 C 71.04745483398438 77.74882507324219 71.05493927001953 78.89814758300781 72.56520080566406 79.53684997558594 C 97.77892303466797 79.53684997558594 122.99264526367188 79.53684997558594 148.2063751220703 79.53684997558594 C 149.72909545898438 78.89981079101562 149.73574829101562 77.74716186523438 148.2063751220703 77.11428833007812 C 122.99264526367188 77.11428833007812 97.77892303466797 77.11428833007812 72.56520080566406 77.11428833007812" stroke-width="0.0" fill="rgb(237, 237, 237)" opacity="1.0"/>
    <path d="M 72.56520080566406 86.62078094482422 C 72.56520080566406 86.62078094482422 72.56520080566406 86.62078094482422 72.56520080566406 86.62078094482422 C 71.05493927001953 87.25948333740234 71.04828643798828 88.4088134765625 72.56520080566406 89.044189453125 C 97.77892303466797 89.044189453125 122.99264526367188 89.044189453125 148.2063751220703 89.044189453125 C 149.73574829101562 88.41047668457031 149.72909545898438 87.25865173339844 148.2063751220703 86.62078094482422 C 122.99264526367188 86.62078094482422 97.77892303466797 86.62078094482422 72.56520080566406 86.62078094482422" stroke-width="0.0" fill="rgb(254, 254, 254)" opacity="1.0"/>
    <path d="M 33.936256408691406 182.21554565429688 C 71.22958374023438 182.21554565429688 108.52291107177734 182.21554565429688 145.8170623779297 182.21554565429688 C 147.33897399902344 182.8525848388672 147.34646606445312 184.00439453125 145.8170623779297 184.6372833251953 C 108.52291107177734 184.6372833251953 71.22958374023438 184.6372833251953 33.936256408691406 184.6372833251953 C 32.40686798095703 184.00439453125 32.41352844238281 182.8525848388672 33.936256408691406 182.21554565429688 C 33.936256408691406 182.21554565429688 33.936256408691406 182.21554565429688 33.936256408691406 182.21554565429688" stroke-width="0.0" fill="rgb(0, 0, 0)" opacity="1.0"/>
    <path d="M 99.45384979248047 189.0250244140625 C 125.25804138183594 189.0250244140625 151.0630645751953 189.0250244140625 176.86807250976562 189.0250244140625 C 178.39498901367188 189.65707397460938 178.39413452148438 190.8138885498047 176.86807250976562 191.44677734375 C 151.0630645751953 191.44677734375 125.25804138183594 191.44677734375 99.45384979248047 191.44677734375 C 97.92695617675781 190.81471252441406 97.92611694335938 189.65625 99.45384979248047 189.0250244140625 C 99.45384979248047 189.0250244140625 99.45384979248047 189.0250244140625 99.45384979248047 189.0250244140625" stroke-width="0.0" fill="rgb(0, 0, 0)" opacity="1.0"/>
    <path d="M 72.56520080566406 58.08049011230469 C 72.56520080566406 58.08049011230469 72.56520080566406 58.08049011230469 72.56520080566406 58.08049011230469 C 71.05493927001953 58.71919250488281 71.04828643798828 59.86769104003906 72.56520080566406 60.50305938720703 C 81.46210479736328 60.50305938720703 90.3590087890625 60.50305938720703 99.25592041015625 60.50305938720703 C 100.7828140258789 59.86769104003906 100.77616119384766 58.72002410888672 99.25592041015625 58.08049011230469 C 90.3590087890625 58.08049011230469 81.46210479736328 58.08049011230469 72.56520080566406 58.08049011230469" stroke-width="0.0" fill="rgb(254, 254, 254)" opacity="1.0"/>
    <path d="M 72.56520080566406 49.27507019042969 C 72.56520080566406 49.27507019042969 72.56520080566406 49.27507019042969 72.56520080566406 49.27507019042969 C 71.0516128540039 49.90795135498047 71.0516128540039 51.05644226074219 72.56520080566406 51.68682098388672 C 81.46210479736328 51.68682098388672 90.3590087890625 51.68682098388672 99.25592041015625 51.68682098388672 C 100.77949523925781 51.05560302734375 100.77949523925781 49.908775329589844 99.25592041015625 49.27507019042969 C 90.3590087890625 49.27507019042969 81.46210479736328 49.27507019042969 72.56520080566406 49.27507019042969" stroke-width="0.0" fill="rgb(254, 254, 254)" opacity="1.0"/>
    <path d="M 111.07771301269531 93.02110290527344 C 111.07771301269531 93.02110290527344 111.07771301269531 93.02110290527344 111.07771301269531 93.02110290527344 C 110.99371337890625 93.02442932128906 108.47633361816406 93.09677124023438 108.40231323242188 93.11839294433594 C 106.90453338623047 93.55667114257812 106.9619140625 95.20664978027344 108.51875305175781 95.53099060058594 C 109.06846618652344 95.64492797851562 109.64063262939453 95.486083984375 110.20198822021484 95.48109436035156 C 111.28645324707031 95.47111511230469 113.81214904785156 96.08320617675781 114.56229400634766 94.89312744140625 C 115.8663101196289 92.82400512695312 111.83866119384766 93.046875 111.07771301269531 93.02110290527344 C 111.07771301269531 93.02110290527344 111.07771301269531 93.02110290527344 111.07771301269531 93.02110290527344" stroke-width="0.0" fill="rgb(253, 253, 253)" opacity="1.0"/>
    <path d="M 29.526893615722656 188.81710815429688 C 41.753692626953125 188.81710815429688 53.98049545288086 188.81710815429688 66.2081298828125 188.81710815429688 C 67.73502349853516 189.44915771484375 67.73419189453125 190.6068115234375 66.2081298828125 191.23886108398438 C 53.98049545288086 191.23886108398438 41.753692626953125 191.23886108398438 29.526893615722656 191.23886108398438 C 28.0 190.6068115234375 28.0 189.44915771484375 29.526893615722656 188.81710815429688 C 29.526893615722656 188.81710815429688 29.526893615722656 188.81710815429688 29.526893615722656 188.81710815429688" stroke-width="0.0" fill="rgb(0, 0, 0)" opacity="1.0"/>
    <path d="M 112.40584564208984 167.7083740234375 C 112.40584564208984 167.7083740234375 112.40584564208984 167.7083740234375 112.40584564208984 167.7083740234375 C 111.60164642333984 167.71502685546875 110.77499389648438 167.5287322998047 109.99324798583984 167.71835327148438 C 108.41063690185547 168.10006713867188 108.37653350830078 169.70431518554688 109.9342041015625 170.1400909423828 C 110.83486938476562 170.39208984375 114.58890533447266 170.3188934326172 113.44373321533203 168.33627319335938 C 113.24080657958984 167.98614501953125 112.7518081665039 167.9171142578125 112.40584564208984 167.7083740234375 C 112.40584564208984 167.7083740234375 112.40584564208984 167.7083740234375 112.40584564208984 167.7083740234375" stroke-width="0.0" fill="rgb(253, 253, 253)" opacity="1.0"/>
    <path d="M 146.18048095703125 140.24172973632812 C 146.18048095703125 140.24172973632812 146.18048095703125 140.24172973632812 146.18048095703125 140.24172973632812 C 145.95843505859375 141.07919311523438 145.07772827148438 142.7948760986328 145.77049255371094 143.628173828125 C 146.41917419433594 144.4074249267578 147.31068420410156 144.0697784423828 147.7838897705078 143.3911590576172 C 148.33029174804688 142.60940551757812 149.333251953125 138.61004638671875 146.99549865722656 139.37847900390625 C 146.61959838867188 139.50241088867188 146.45242309570312 139.9539794921875 146.18048095703125 140.24172973632812 C 146.18048095703125 140.24172973632812 146.18048095703125 140.24172973632812 146.18048095703125 140.24172973632812" stroke-width="0.0" fill="rgb(251, 251, 251)" opacity="1.0"/>
    <path d="M 184.79029846191406 189.0250244140625 C 188.01791381835938 189.0250244140625 191.24551391601562 189.0250244140625 194.4722900390625 189.0250244140625 C 196.0 189.65707397460938 196.0 190.81471252441406 194.4722900390625 191.44677734375 C 191.24551391601562 191.44677734375 188.01791381835938 191.44677734375 184.79029846191406 191.44677734375 C 183.26589965820312 190.81222534179688 183.26589965820312 189.6587371826172 184.79029846191406 189.0250244140625 C 184.79029846191406 189.0250244140625 184.79029846191406 189.0250244140625 184.79029846191406 189.0250244140625" stroke-width="0.0" fill="rgb(0, 0, 0)" opacity="1.0"/>
    <path d="M 78.40998077392578 111.56421661376953 C 78.40998077392578 111.56421661376953 78.40998077392578 111.56421661376953 78.40998077392578 111.56421661376953 C 77.89768981933594 112.00332641601562 77.50348663330078 112.58048248291016 77.18164825439453 113.17428588867188 C 76.98287963867188 113.53936767578125 76.68016052246094 113.87285614013672 76.60781860351562 114.2828598022461 C 76.45396423339844 115.16024017333984 76.6477279663086 116.15737915039062 77.83780670166016 116.01433563232422 C 78.94805145263672 115.88044738769531 80.56310272216797 112.85326385498047 79.76555633544922 111.91350555419922 C 79.46366882324219 111.55840301513672 78.86239624023438 111.68064880371094 78.40998077392578 111.56421661376953 C 78.40998077392578 111.56421661376953 78.40998077392578 111.56421661376953 78.40998077392578 111.56421661376953" stroke-width="0.0" fill="rgb(255, 255, 255)" opacity="1.0"/>
    <path d="M 130.0823974609375 162.3476104736328 C 130.0823974609375 162.3476104736328 130.0823974609375 162.3476104736328 130.0823974609375 162.3476104736328 C 129.40211486816406 162.75096130371094 128.58128356933594 162.96551513671875 128.02325439453125 163.52603149414062 C 126.89554595947266 164.65957641601562 127.56169128417969 166.0708770751953 129.16676330566406 165.66253662109375 C 130.05911254882812 165.43548583984375 133.34576416015625 163.46533203125 131.3024139404297 162.34677124023438 C 130.9456329345703 162.15133666992188 130.48907470703125 162.34677124023438 130.0823974609375 162.3476104736328 C 130.0823974609375 162.3476104736328 130.0823974609375 162.3476104736328 130.0823974609375 162.3476104736328" stroke-width="0.0" fill="rgb(252, 252, 252)" opacity="1.0"/>
    <path d="M 84.98826599121094 156.5968017578125 C 84.98826599121094 156.5968017578125 84.98826599121094 156.5968017578125 84.98826599121094 156.5968017578125 C 84.58325958251953 156.48785400390625 84.1799087524414 156.170166015625 83.77240753173828 156.26913452148438 C 81.50369262695312 156.82301330566406 84.23563385009766 159.5932159423828 85.0240249633789 160.0223388671875 C 86.42784118652344 160.78662109375 87.48236083984375 159.622314453125 86.68647766113281 158.25926208496094 C 86.28729248046875 157.5756378173828 85.54296875 157.16232299804688 84.98826599121094 156.5968017578125 C 84.98826599121094 156.5968017578125 84.98826599121094 156.5968017578125 84.98826599121094 156.5968017578125" stroke-width="0.0" fill="rgb(252, 252, 252)" opacity="1.0"/>
    <path d="M 100.77200317382812 166.24302673339844 C 100.77200317382812 166.24302673339844 100.77200317382812 166.24302673339844 100.77200317382812 166.24302673339844 C 100.39610290527344 166.3270263671875 99.93287658691406 166.23802185058594 99.64512634277344 166.49334716796875 C 97.81301879882812 168.1175537109375 101.5337905883789 169.23443603515625 102.51596069335938 169.19534301757812 C 104.18339538574219 169.12799072265625 104.4154281616211 167.5977783203125 103.03490447998047 166.84429931640625 C 102.3504638671875 166.47006225585938 101.52381134033203 166.45176696777344 100.77200317382812 166.24302673339844 C 100.77200317382812 166.24302673339844 100.77200317382812 166.24302673339844 100.77200317382812 166.24302673339844" stroke-width="0.0" fill="rgb(249, 249, 249)" opacity="1.0"/>
    <path d="M 73.91578674316406 121.24702453613281 C 73.91578674316406 121.24702453613281 73.91578674316406 121.24702453613281 73.91578674316406 121.24702453613281 C 73.8184814453125 121.64871215820312 73.72201538085938 122.049560546875 73.6238784790039 122.45124816894531 C 73.44673919677734 123.17976379394531 72.97103881835938 124.1635971069336 73.73033142089844 124.84970092773438 C 74.60521697998047 125.64059448242188 75.3245849609375 124.85635375976562 75.69882202148438 124.16027069091797 C 76.16204833984375 123.29785919189453 76.91302490234375 119.73260498046875 74.72164916992188 120.42037963867188 C 74.35406494140625 120.53597259521484 74.18440246582031 120.97175598144531 73.91578674316406 121.24702453613281 C 73.91578674316406 121.24702453613281 73.91578674316406 121.24702453613281 73.91578674316406 121.24702453613281" stroke-width="0.0" fill="rgb(254, 254, 254)" opacity="1.0"/>
    <path d="M 138.0985870361328 104.07445526123047 C 138.0985870361328 104.07445526123047 138.0985870361328 104.07445526123047 138.0985870361328 104.07445526123047 C 137.7060546875 103.976318359375 137.31103515625 103.67609405517578 136.920166015625 103.78004455566406 C 134.7869873046875 104.3488998413086 137.22952270507812 107.01930236816406 138.03372192382812 107.49998474121094 C 138.77139282226562 107.93992614746094 139.76104736328125 108.19773864746094 140.08953857421875 107.03176879882812 C 140.34153747558594 106.13941955566406 139.4608154296875 105.4691162109375 138.98179626464844 104.96846771240234 C 138.6923828125 104.6657485961914 138.3929901123047 104.37218475341797 138.0985870361328 104.07445526123047 C 138.0985870361328 104.07445526123047 138.0985870361328 104.07445526123047 138.0985870361328 104.07445526123047" stroke-width="0.0" fill="rgb(251, 251, 251)" opacity="1.0"/>
    <path d="M 147.5576934814453 130.09486389160156 C 147.5576934814453 130.09486389160156 147.5576934814453 130.09486389160156 147.5576934814453 130.09486389160156 C 147.30569458007812 130.73690795898438 147.231689453125 131.44711303710938 147.22335815429688 132.1365509033203 C 147.2183837890625 132.5257568359375 147.08697509765625 132.92660522460938 147.1842803955078 133.3033447265625 C 147.3963623046875 134.12750244140625 147.93359375 135.0048828125 148.97813415527344 134.41607666015625 C 150.0260009765625 133.8256072998047 150.09918212890625 130.30111694335938 148.8841552734375 129.8220977783203 C 148.46417236328125 129.65658569335938 147.99928283691406 130.00421142578125 147.5576934814453 130.09486389160156 C 147.5576934814453 130.09486389160156 147.5576934814453 130.09486389160156 147.5576934814453 130.09486389160156" stroke-width="0.0" fill="rgb(254, 254, 254)" opacity="1.0"/>
    <path d="M 101.01899719238281 94.34922790527344 C 101.01899719238281 94.34922790527344 101.01899719238281 94.34922790527344 101.01899719238281 94.34922790527344 C 100.61814880371094 94.46066284179688 100.21397399902344 94.56295776367188 99.81561279296875 94.68354797363281 C 99.08792877197266 94.90476989746094 97.99431610107422 95.06610107421875 97.81468200683594 96.07737731933594 C 97.61592102050781 97.19843292236328 98.67959594726562 97.40884399414062 99.42141723632812 97.35894012451172 C 100.1865234375 97.30738067626953 104.02455139160156 96.18466186523438 102.17581176757812 94.6427993774414 C 101.87060546875 94.38748168945312 101.4048843383789 94.446533203125 101.01899719238281 94.34922790527344 C 101.01899719238281 94.34922790527344 101.01899719238281 94.34922790527344 101.01899719238281 94.34922790527344" stroke-width="0.0" fill="rgb(255, 255, 255)" opacity="1.0"/>
    <path d="M 72.5169677734375 131.11862182617188 C 72.5169677734375 131.11862182617188 72.5169677734375 131.11862182617188 72.5169677734375 131.11862182617188 C 72.52029418945312 131.53277587890625 72.5177993774414 131.94859313964844 72.52610778808594 132.3627471923828 C 72.53942108154297 133.05300903320312 72.37891387939453 134.14662170410156 73.18976593017578 134.59986877441406 C 74.23014831542969 135.1811981201172 74.76239776611328 134.31295776367188 74.9744644165039 133.49130249023438 C 75.20732879638672 132.59146118164062 75.07093811035156 128.92391967773438 73.14485168457031 130.0615997314453 C 72.792236328125 130.2703399658203 72.7257080078125 130.76600646972656 72.5169677734375 131.11862182617188 C 72.5169677734375 131.11862182617188 72.5169677734375 131.11862182617188 72.5169677734375 131.11862182617188" stroke-width="0.0" fill="rgb(255, 255, 255)" opacity="1.0"/>
    <path d="M 79.43623352050781 149.08042907714844 C 79.43623352050781 149.08042907714844 79.43623352050781 149.08042907714844 79.43623352050781 149.08042907714844 C 79.07030487060547 148.87417602539062 78.75843811035156 148.46417236328125 78.33846282958984 148.461669921875 C 76.02982330322266 148.4458770751953 77.95257568359375 151.79656982421875 78.60791015625 152.40866088867188 C 79.82127380371094 153.54135131835938 81.06707763671875 152.61073303222656 80.6337890625 151.09051513671875 C 80.42005920410156 150.34036254882812 79.82293701171875 149.7573699951172 79.43623352050781 149.08042907714844 C 79.43623352050781 149.08042907714844 79.43623352050781 149.08042907714844 79.43623352050781 149.08042907714844" stroke-width="0.0" fill="rgb(251, 251, 251)" opacity="1.0"/>
    <path d="M 83.9171142578125 104.22332000732422 C 83.9171142578125 104.22332000732422 83.9171142578125 104.22332000732422 83.9171142578125 104.22332000732422 C 83.62354278564453 104.52021026611328 83.32498168945312 104.81129455566406 83.03807067871094 105.11483764648438 C 82.75281524658203 105.4150619506836 82.36194610595703 105.65290832519531 82.2022705078125 106.03546905517578 C 81.56190490722656 107.56735229492188 82.6946029663086 108.54036712646484 84.01441955566406 107.62972259521484 C 84.7603988647461 107.11410522460938 87.29524230957031 104.46781921386719 85.10719299316406 103.91145324707031 C 84.70967102050781 103.80998992919922 84.31381225585938 104.1193618774414 83.9171142578125 104.22332000732422 C 83.9171142578125 104.22332000732422 83.9171142578125 104.22332000732422 83.9171142578125 104.22332000732422" stroke-width="0.0" fill="rgb(252, 252, 252)" opacity="1.0"/>
    <path d="M 121.54891967773438 166.1914520263672 C 121.54891967773438 166.1914520263672 121.54891967773438 166.1914520263672 121.54891967773438 166.1914520263672 C 120.79794311523438 166.41018676757812 119.9712905883789 166.43096923828125 119.2826919555664 166.8018798828125 C 117.90965270996094 167.5412139892578 118.15747833251953 169.08224487304688 119.80496215820312 169.16290283203125 C 120.79295349121094 169.21115112304688 124.53617095947266 167.9853057861328 122.66331481933594 166.42098999023438 C 122.37223815917969 166.17816162109375 121.92066192626953 166.26797485351562 121.54891967773438 166.1914520263672 C 121.54891967773438 166.1914520263672 121.54891967773438 166.1914520263672 121.54891967773438 166.1914520263672" stroke-width="0.0" fill="rgb(253, 253, 253)" opacity="1.0"/>
    <path d="M 76.02067565917969 140.4072265625 C 76.02067565917969 140.4072265625 76.02067565917969 140.4072265625 76.02067565917969 140.4072265625 C 75.75039672851562 140.1203155517578 75.58489227294922 139.66873168945312 75.20982360839844 139.5473175048828 C 72.95108032226562 138.81878662109375 73.81599426269531 142.60194396972656 74.35821533203125 143.40113830566406 C 75.2854995727539 144.77001953125 76.74503326416016 144.24607849121094 76.65937042236328 142.6551513671875 C 76.6177978515625 141.87673950195312 76.21859741210938 141.16070556640625 76.02067565917969 140.4072265625 C 76.02067565917969 140.4072265625 76.02067565917969 140.4072265625 76.02067565917969 140.4072265625" stroke-width="0.0" fill="rgb(255, 255, 255)" opacity="1.0"/>
    <path d="M 92.24850463867188 162.45489501953125 C 92.24850463867188 162.45489501953125 92.24850463867188 162.45489501953125 92.24850463867188 162.45489501953125 C 91.83683776855469 162.4507293701172 91.37527465820312 162.24781799316406 91.01268005371094 162.44325256347656 C 88.93856811523438 163.56263732910156 92.3050537109375 165.52032470703125 93.17329406738281 165.7506866455078 C 94.68438720703125 166.15155029296875 95.42787170410156 164.8001251220703 94.36585998535156 163.6524658203125 C 93.81449127197266 163.0570068359375 92.95207214355469 162.85739135742188 92.24850463867188 162.45489501953125 C 92.24850463867188 162.45489501953125 92.24850463867188 162.45489501953125 92.24850463867188 162.45489501953125" stroke-width="0.0" fill="rgb(252, 252, 252)" opacity="1.0"/>
    <path d="M 144.85235595703125 148.8234405517578 C 144.85235595703125 148.8234405517578 144.85235595703125 148.8234405517578 144.85235595703125 148.8234405517578 C 144.4989013671875 148.6504669189453 144.1837158203125 148.28121948242188 143.7903594970703 148.3036651611328 C 142.67428588867188 148.36770629882812 141.06423950195312 151.2285614013672 141.58067321777344 152.20907592773438 C 142.11044311523438 153.2161865234375 143.08761596679688 152.77041625976562 143.65145874023438 152.2398223876953 C 144.6344757080078 151.314208984375 144.91970825195312 150.07090759277344 144.85235595703125 148.8234405517578 C 144.85235595703125 148.8234405517578 144.85235595703125 148.8234405517578 144.85235595703125 148.8234405517578" stroke-width="0.0" fill="rgb(253, 253, 253)" opacity="1.0"/>
    <path d="M 130.16639709472656 98.06999969482422 C 130.16639709472656 98.06999969482422 130.16639709472656 98.06999969482422 130.16639709472656 98.06999969482422 C 129.7638702392578 98.07415771484375 129.3106231689453 97.8853759765625 128.9596710205078 98.080810546875 C 127.01612854003906 99.16526794433594 130.0599365234375 101.13043975830078 130.96560668945312 101.39490509033203 C 131.77145385742188 101.63108825683594 132.80934143066406 101.63441467285156 132.8367919921875 100.43435668945312 C 132.85923767089844 99.49376678466797 131.83465576171875 99.08043670654297 131.23837280273438 98.71369171142578 C 130.88327026367188 98.49496459960938 130.52398681640625 98.28456115722656 130.16639709472656 98.06999969482422 C 130.16639709472656 98.06999969482422 130.16639709472656 98.06999969482422 130.16639709472656 98.06999969482422" stroke-width="0.0" fill="rgb(253, 253, 253)" opacity="1.0"/>
    <path d="M 120.95512390136719 94.3043212890625 C 120.95512390136719 94.3043212890625 120.95512390136719 94.3043212890625 120.95512390136719 94.3043212890625 C 120.54013061523438 94.43405151367188 120.0103759765625 94.37999725341797 119.71015167236328 94.69436645507812 C 118.17244720458984 96.30608367919922 121.76763916015625 97.16267395019531 122.58181762695312 97.31403350830078 C 122.83296966552734 97.36061096191406 123.14067840576172 97.46289825439453 123.3477554321289 97.31403350830078 C 125.20980834960938 95.97176361083984 123.4084701538086 95.02037048339844 122.15518188476562 94.6427993774414 C 121.75682830810547 94.52304077148438 121.35514831542969 94.41742706298828 120.95512390136719 94.3043212890625 C 120.95512390136719 94.3043212890625 120.95512390136719 94.3043212890625 120.95512390136719 94.3043212890625" stroke-width="0.0" fill="rgb(252, 252, 252)" opacity="1.0"/>
    <path d="M 148.19058227539062 121.06905364990234 C 148.19058227539062 121.06905364990234 148.19058227539062 121.06905364990234 148.19058227539062 121.06905364990234 C 147.87454223632812 120.77964782714844 147.6549835205078 120.31642150878906 147.2425079345703 120.20248413085938 C 145.1717071533203 119.63114929199219 146.0274658203125 123.25294494628906 146.427490234375 124.00392150878906 C 146.791748046875 124.68753051757812 147.54022216796875 125.45430755615234 148.39016723632812 124.67256164550781 C 149.12367248535156 123.99893188476562 148.68789672851562 122.98931884765625 148.50909423828125 122.2716064453125 C 148.4093017578125 121.86909484863281 148.29701232910156 121.46990966796875 148.19058227539062 121.06905364990234 C 148.19058227539062 121.06905364990234 148.19058227539062 121.06905364990234 148.19058227539062 121.06905364990234" stroke-width="0.0" fill="rgb(254, 254, 254)" opacity="1.0"/>
    <path d="M 144.2519073486328 111.91850280761719 C 144.2519073486328 111.91850280761719 144.2519073486328 111.91850280761719 144.2519073486328 111.91850280761719 C 143.89015197753906 111.72222900390625 143.5791015625 111.32720184326172 143.1682891845703 111.32886505126953 C 140.9586181640625 111.33634948730469 142.67929077148438 114.53651428222656 143.30715942382812 115.20431518554688 C 143.81114196777344 115.73989868164062 144.75921630859375 116.3237075805664 145.35467529296875 115.37397003173828 C 145.90771484375 114.492431640625 145.259033203125 113.688232421875 144.87564086914062 112.99630737304688 C 144.67437744140625 112.63371276855469 144.45982360839844 112.27777099609375 144.2519073486328 111.91850280761719 C 144.2519073486328 111.91850280761719 144.2519073486328 111.91850280761719 144.2519073486328 111.91850280761719" stroke-width="0.0" fill="rgb(250, 250, 250)" opacity="1.0"/>
    <path d="M 110.0414810180664 103.81747436523438 C 110.73340606689453 103.81747436523438 111.42450714111328 103.81747436523438 112.1164321899414 103.81747436523438 C 112.51062774658203 106.43881225585938 112.90399932861328 109.06014251708984 113.2981948852539 111.68148040771484 C 113.59093475341797 111.72721862792969 113.88284301757812 111.77212524414062 114.17557525634766 111.81787109375 C 115.5943603515625 112.07234954833984 116.931640625 112.42414093017578 118.28887939453125 112.90815734863281 C 118.56497955322266 113.0137710571289 118.8410873413086 113.11856079101562 119.11719512939453 113.22335052490234 C 120.76717376708984 111.15422058105469 122.41798400878906 109.08509826660156 124.06879425048828 107.0159683227539 C 124.66841125488281 107.36276245117188 125.26802062988281 107.71039581298828 125.86763000488281 108.05718994140625 C 124.89960479736328 110.5213394165039 123.93240356445312 112.98466491699219 122.96437072753906 115.44798278808594 C 123.19058227539062 115.6351089477539 123.41677856445312 115.82222747802734 123.64299011230469 116.01017761230469 C 124.73909759521484 116.94328308105469 125.72376251220703 117.92711639404297 126.6568603515625 119.0232162475586 C 126.84398651123047 119.25275421142578 127.03109741210938 119.48145294189453 127.21822357177734 119.71099090576172 C 129.68487548828125 118.7404556274414 132.15151977539062 117.76992797851562 134.6181640625 116.79856872558594 C 134.96246337890625 117.39901733398438 135.30677795410156 118.00029754638672 135.6510772705078 118.60073852539062 C 133.57945251464844 120.24905395507812 131.50782775878906 121.89737701416016 129.4362030029297 123.54569244384766 C 129.54100036621094 123.82096099853516 129.64578247070312 124.09622955322266 129.75057983398438 124.37150573730469 C 130.23458862304688 125.72708892822266 130.59385681152344 127.07184600830078 130.85166931152344 128.48812866210938 C 130.8965606689453 128.78335571289062 130.94232177734375 129.07859802246094 130.98805236816406 129.37466430664062 C 133.60606384277344 129.76470947265625 136.2240753173828 130.15557861328125 138.84291076660156 130.54644775390625 C 138.84291076660156 131.24252319335938 138.84291076660156 131.93861389160156 138.84291076660156 132.63470458984375 C 136.2240753173828 133.02474975585938 133.60606384277344 133.41561889648438 130.98805236816406 133.80648803710938 C 130.94232177734375 134.10171508789062 130.8965606689453 134.39694213867188 130.85166931152344 134.6921844482422 C 130.59469604492188 136.1092987060547 130.23541259765625 137.45074462890625 129.75057983398438 138.80715942382812 C 129.64578247070312 139.083251953125 129.54100036621094 139.35935974121094 129.4362030029297 139.63462829589844 C 131.50534057617188 141.2854461669922 133.574462890625 142.93624877929688 135.6444091796875 144.58624267578125 C 135.3001251220703 145.1875 134.95582580566406 145.78794860839844 134.6115264892578 146.38839721679688 C 132.14486694335938 145.41787719726562 129.67822265625 144.44651794433594 127.21156311035156 143.47598266601562 C 127.02777099609375 143.7055206298828 126.84314727783203 143.93505859375 126.65936279296875 144.1645965576172 C 125.72542572021484 145.259033203125 124.74159240722656 146.23704528808594 123.64964294433594 147.17430114746094 C 123.42011260986328 147.35809326171875 123.19058227539062 147.54188537597656 122.96104431152344 147.72650146484375 C 123.9290771484375 150.1931610107422 124.89627075195312 152.65980529785156 125.86430358886719 155.12646484375 C 125.26469421386719 155.47409057617188 124.66507720947266 155.8208770751953 124.06546783447266 156.1676788330078 C 122.41465759277344 154.09771728515625 120.76384735107422 152.02777099609375 119.1138687133789 149.95697021484375 C 118.83776092529297 150.061767578125 118.56166076660156 150.16738891601562 118.28555297851562 150.2721710205078 C 116.92748260498047 150.75535583496094 115.59103393554688 151.10879516601562 114.17224884033203 151.36245727539062 C 113.8795166015625 151.40818786621094 113.58760070800781 151.4539337158203 113.29486846923828 151.49884033203125 C 112.90067291259766 154.12017822265625 112.5073013305664 156.74151611328125 112.11310577392578 159.36367797851562 C 111.42118072509766 159.36367797851562 110.73008728027344 159.36367797851562 110.03815460205078 159.36367797851562 C 109.64395904541016 156.74151611328125 109.25059509277344 154.12017822265625 108.85639953613281 151.49884033203125 C 108.56116485595703 151.4539337158203 108.26593017578125 151.40818786621094 107.96986389160156 151.36245727539062 C 106.55524444580078 151.10879516601562 105.220458984375 150.75535583496094 103.86654663085938 150.2721710205078 C 103.59127044677734 150.16738891601562 103.31599426269531 150.061767578125 103.04071807861328 149.95697021484375 C 101.39073944091797 152.02777099609375 99.73993682861328 154.09771728515625 98.08912658691406 156.1676788330078 C 97.48868560791016 155.8208770751953 96.88823699951172 155.47409057617188 96.28695678710938 155.12646484375 C 97.25831604003906 152.65980529785156 98.22884368896484 150.1931610107422 99.20020294189453 147.72650146484375 C 98.96734619140625 147.54188537597656 98.7344741821289 147.35809326171875 98.50161743164062 147.17430114746094 C 97.40967559814453 146.24119567871094 96.42584228515625 145.25570678710938 95.49191284179688 144.1645965576172 C 95.30811309814453 143.93505859375 95.12348937988281 143.7055206298828 94.939697265625 143.47598266601562 C 92.4730453491211 144.44651794433594 90.00723266601562 145.41787719726562 87.54057312011719 146.38839721679688 C 87.19294738769531 145.78794860839844 86.84532165527344 145.1875 86.49769592285156 144.58624267578125 C 88.57181549072266 142.93624877929688 90.64509582519531 141.2854461669922 92.7192153930664 139.63462829589844 C 92.61109924316406 139.35935974121094 92.50299072265625 139.083251953125 92.3948745727539 138.80715942382812 C 91.91584777832031 137.4482421875 91.55990600585938 136.1084747314453 91.29377746582031 134.6921844482422 C 91.2513656616211 134.39694213867188 91.20895385742188 134.10171508789062 91.16736602783203 133.80648803710938 C 88.54519653320312 133.41561889648438 85.92386627197266 133.02474975585938 83.30252838134766 132.63470458984375 C 83.30252838134766 132.28707885742188 83.30252838134766 131.939453125 83.30252838134766 131.59182739257812 C 83.30419921875 131.2433624267578 83.30502319335938 130.8948974609375 83.30586242675781 130.54644775390625 C 85.92719268798828 130.15225219726562 88.54853057861328 129.758056640625 91.17070007324219 129.36468505859375 C 91.2122802734375 129.0719451904297 91.25469207763672 128.78004455566406 91.29627227783203 128.48812866210938 C 91.56572723388672 127.07684326171875 91.9283218383789 125.73041534423828 92.40152740478516 124.3740005493164 C 92.5096435546875 124.09872436523438 92.61775207519531 123.82428741455078 92.72586059570312 123.54901123046875 C 90.65174865722656 121.89820861816406 88.5784683227539 120.24822998046875 86.50435638427734 118.597412109375 C 86.85198211669922 117.9969711303711 87.1996078491211 117.39569091796875 87.54723358154297 116.79524993896484 C 90.01387786865234 117.7666015625 92.47969818115234 118.73712921142578 94.94635009765625 119.70765686035156 C 95.13346862792969 119.47895812988281 95.32141876220703 119.24942779541016 95.50853729248047 119.0198974609375 C 96.43748474121094 117.92628479003906 97.41716003417969 116.94245147705078 98.50827026367188 116.01017761230469 C 98.74113464355469 115.82222747802734 98.97399139404297 115.6351089477539 99.20684814453125 115.44798278808594 C 98.2354965209961 112.98466491699219 97.26496887207031 110.5213394165039 96.29360961914062 108.05718994140625 C 96.89488983154297 107.71039581298828 97.49533081054688 107.36276245117188 98.09577941894531 107.0159683227539 C 99.74575805664062 109.08509826660156 101.39490509033203 111.15422058105469 103.04405212402344 113.22335052490234 C 103.31932067871094 113.11856079101562 103.59376525878906 113.0137710571289 103.8690414428711 112.90815734863281 C 105.2237777709961 112.4258041381836 106.5585708618164 112.07401275634766 107.97319030761719 111.81787109375 C 108.26925659179688 111.77212524414062 108.56448364257812 111.72721862792969 108.8597183227539 111.68148040771484 C 109.25392150878906 109.06014251708984 109.64728546142578 106.43881225585938 110.0414810180664 103.81747436523438" stroke-width="0.0" fill="rgb(0, 0, 0)" opacity="1.0"/>
    <path d="M 111.07771301269531 119.74009704589844 C 111.07771301269531 119.74009704589844 111.07771301269531 119.74009704589844 111.07771301269531 119.74009704589844 C 106.83551025390625 120.02617645263672 103.06401062011719 121.83167266845703 100.8485107421875 125.61231994628906 C 96.30608367919922 133.36654663085938 102.1051254272461 143.43690490722656 111.07771301269531 143.43690490722656 C 120.05528259277344 143.43690490722656 125.8534927368164 133.38067626953125 121.31689453125 125.61398315429688 C 119.10388946533203 121.82585144042969 115.32157897949219 120.02617645263672 111.07771301269531 119.74009704589844 C 111.07771301269531 119.74009704589844 111.07771301269531 119.74009704589844 111.07771301269531 119.74009704589844" stroke-width="0.0" fill="rgb(254, 254, 254)" opacity="1.0"/>
    <path d="M 111.07771301269531 122.15933990478516 C 111.07771301269531 122.15933990478516 111.07771301269531 122.15933990478516 111.07771301269531 122.15933990478516 C 114.63298034667969 122.44625091552734 117.75413513183594 123.96733093261719 119.45816802978516 127.25897216796875 C 122.65416717529297 133.4347381591797 118.01776123046875 141.0184783935547 111.07771301269531 141.0184783935547 C 104.1409912109375 141.0176544189453 99.51040649414062 133.4255828857422 102.7063980102539 127.25980377197266 C 104.41043853759766 123.97065734863281 107.52326965332031 122.44625091552734 111.07771301269531 122.15933990478516 C 111.07771301269531 122.15933990478516 111.07771301269531 122.15933990478516 111.07771301269531 122.15933990478516" stroke-width="0.0" fill="rgb(0, 0, 0)" opacity="1.0"/>
  </g>
</svg>
