<?xml version="1.0" ?>
<svg xmlns="http://www.w3.org/2000/svg" version="1.1" width="224" height="224">
  <defs/>
  <g>
    <path d="M 106.564697265625 191.67933654785156 C 101.47758483886719 187.89581298828125 98.16218566894531 181.71078491210938 98.18830108642578 173.34979248046875 C 98.33362579345703 166.79197692871094 100.35839080810547 159.37109375 102.9020004272461 153.5232696533203 C 104.36270141601562 149.68923950195312 112.94638061523438 139.78323364257812 113.25434875488281 142.45188903808594 C 106.30372619628906 158.29013061523438 105.14387512207031 168.29660034179688 106.27593994140625 174.0694580078125 C 106.90409851074219 179.46005249023438 111.38105010986328 182.1399688720703 115.58580780029297 180.984130859375 C 121.30455780029297 178.68844604492188 122.53864288330078 171.22879028320312 118.4583740234375 156.1142578125 C 116.96127319335938 150.37266540527344 116.22347259521484 145.02273559570312 115.83390045166016 143.0970458984375 C 117.64955139160156 143.45773315429688 125.0611572265625 153.90167236328125 126.40758514404297 159.96694946289062 C 131.6029052734375 174.6576690673828 128.29986572265625 186.96180725097656 119.23133850097656 192.43905639648438 C 114.20775604248047 194.80450439453125 111.2782211303711 194.47384643554688 106.564697265625 191.67933654785156" stroke-width="1.0" fill="rgb(0, 0, 0)" opacity="0.99951524"/>
    <path d="M 75.9920654296875 186.71023559570312 C 73.70915222167969 185.1998291015625 73.71993255615234 177.7513427734375 76.44114685058594 172.2935791015625 C 77.47508239746094 169.73533630371094 81.386474609375 164.4730682373047 86.03987121582031 159.8942108154297 C 90.45528411865234 155.6848907470703 94.80834197998047 150.6158447265625 95.67486572265625 148.6942138671875 C 97.30719757080078 146.28707885742188 98.22822570800781 144.76651000976562 97.92955780029297 143.6105194091797 C 99.81612396240234 144.5185089111328 98.99656677246094 158.12757873535156 97.06204986572266 165.7733154296875 C 96.53646087646484 169.44403076171875 95.23664093017578 174.3477325439453 94.14085388183594 176.7157745361328 C 90.3562240600586 185.7050018310547 80.39399719238281 191.18157958984375 75.9920654296875 186.71023559570312" stroke-width="1.0" fill="rgb(0, 0, 0)" opacity="0.9998523"/>
    <path d="M 142.24488830566406 186.75570678710938 C 138.49679565429688 184.96768188476562 136.06703186035156 182.48403930664062 133.53343200683594 178.24725341796875 C 130.9612579345703 172.9132843017578 128.69911193847656 159.36166381835938 128.15492248535156 150.478759765625 L 129.0120086669922 143.20411682128906 L 131.1197052001953 147.69790649414062 C 131.52769470214844 149.42234802246094 135.69227600097656 154.76669311523438 140.26341247558594 159.24606323242188 C 149.76693725585938 168.3882598876953 152.39996337890625 174.1163330078125 152.7191925048828 181.49290466308594 C 152.25924682617188 184.98049926757812 151.7545623779297 186.16867065429688 150.6553192138672 186.92819213867188 C 149.02413940429688 188.46383666992188 145.41134643554688 188.5596160888672 142.24488830566406 186.75570678710938" stroke-width="1.0" fill="rgb(0, 0, 0)" opacity="0.9994337"/>
    <path d="M 109.59029388427734 176.87945556640625 C 108.40418243408203 174.7443084716797 108.3049545288086 173.9185791015625 108.92945098876953 169.75076293945312 C 109.45205688476562 167.3729705810547 110.85372161865234 163.63333129882812 111.67208862304688 160.94610595703125 L 113.65316772460938 157.1867218017578 L 115.68611907958984 162.14878845214844 C 118.10011291503906 168.40419006347656 118.9484634399414 174.92910766601562 116.63092803955078 177.02423095703125 C 114.65577697753906 179.4932403564453 111.28304290771484 179.40403747558594 109.59029388427734 176.87945556640625" stroke-width="1.0" fill="rgb(0, 1, 1)" opacity="0.9960864"/>
    <path d="M 43.26422119140625 164.3944091796875 C 40.77503967285156 162.76547241210938 39.723785400390625 157.31494140625 40.721649169921875 152.08819580078125 C 43.18608093261719 141.2747039794922 53.88993453979492 133.1337432861328 69.06608581542969 130.68580627441406 C 74.93684387207031 129.7841033935547 85.8417739868164 130.40274047851562 87.73091125488281 131.87631225585938 C 86.53280639648438 132.78366088867188 86.0482177734375 132.94381713867188 84.23213195800781 133.9825897216797 C 82.71771240234375 134.39894104003906 80.10562133789062 138.74453735351562 78.31961059570312 144.06353759765625 C 74.0394058227539 153.7364959716797 69.14889526367188 158.0724334716797 61.60001754760742 162.3374786376953 C 54.935665130615234 166.07659912109375 46.86566925048828 167.02053833007812 43.26422119140625 164.3944091796875" stroke-width="1.0" fill="rgb(1, 2, 2)" opacity="0.991526"/>
    <path d="M 170.1444091796875 164.57290649414062 C 160.885009765625 161.29786682128906 152.43299865722656 154.0994873046875 148.78334045410156 144.1339111328125 C 146.8560791015625 139.8848419189453 145.62852478027344 134.85414123535156 142.74168395996094 133.61990356445312 C 140.88690185546875 132.9142608642578 139.3544921875 131.8400115966797 139.2500457763672 131.97621154785156 C 141.04452514648438 130.40037536621094 152.27780151367188 129.47015380859375 158.4727020263672 130.83001708984375 C 175.89736938476562 133.5680694580078 186.96493530273438 143.30426025390625 187.082763671875 156.25503540039062 C 186.67892456054688 163.33364868164062 184.99298095703125 165.23008728027344 178.91204833984375 166.03294372558594 C 176.146484375 165.78688049316406 172.42886352539062 165.347900390625 170.1444091796875 164.57290649414062" stroke-width="1.0" fill="rgb(2, 2, 2)" opacity="0.9905524"/>
    <path d="M 108.62942504882812 136.76193237304688 C 107.76773071289062 135.80064392089844 107.4150161743164 133.77288818359375 107.37860107421875 128.72491455078125 L 108.54531860351562 125.30328369140625 L 105.66487884521484 128.2172393798828 C 101.18424987792969 133.08355712890625 95.78034210205078 134.71885681152344 93.23355865478516 131.42503356933594 C 91.21704864501953 129.38059997558594 92.69223022460938 123.53033447265625 96.23271179199219 120.16212463378906 L 100.48628234863281 117.65740203857422 L 94.18327331542969 119.00077056884766 C 88.04466247558594 119.37562561035156 84.12479400634766 117.61861419677734 84.0533676147461 113.1509017944336 C 84.2720947265625 108.21275329589844 88.79267883300781 105.9446792602539 95.53008270263672 107.63533782958984 C 101.35099792480469 109.43449401855469 101.83126831054688 108.79261016845703 98.2415771484375 106.3713150024414 C 96.6264419555664 105.67837524414062 94.75335693359375 103.65636444091797 94.01773071289062 102.40399169921875 C 91.06318664550781 97.23329162597656 92.4599838256836 92.98304748535156 97.33683776855469 93.2502212524414 C 99.94773864746094 93.66959381103516 101.68760681152344 94.36088562011719 104.34199523925781 96.76167297363281 L 107.85282135009766 101.03648376464844 L 106.74114990234375 94.72573852539062 C 106.41926574707031 89.48875427246094 107.37718963623047 88.85885620117188 108.3559341430664 86.0220947265625 C 111.07251739501953 82.91932678222656 115.55016326904297 82.53690338134766 118.71781921386719 85.5248794555664 C 119.71013641357422 87.57855224609375 120.63882446289062 88.42759704589844 120.80243682861328 94.94479370117188 C 119.79033660888672 98.41288757324219 119.57344818115234 101.35445404052734 119.93510437011719 100.92990112304688 C 120.58293914794922 101.01734161376953 121.36617279052734 99.58069610595703 121.82209014892578 98.56853485107422 C 125.37396240234375 93.48136901855469 131.84036254882812 91.26957702636719 134.3411865234375 95.56368255615234 C 135.9505157470703 98.33840942382812 133.79669189453125 102.86514282226562 129.85728454589844 105.88124084472656 L 125.5859375 108.8673324584961 L 132.04702758789062 107.41609954833984 C 137.0963592529297 106.64569091796875 138.8173370361328 107.56566619873047 140.68075561523438 108.49897003173828 C 142.548828125 110.38715362548828 143.48855590820312 113.77084350585938 141.77627563476562 116.22455596923828 C 139.77870178222656 119.14156341552734 133.70518493652344 120.15367126464844 127.90812683105469 117.78244018554688 C 127.91493225097656 117.39540100097656 126.85527038574219 117.32453155517578 126.80719757080078 117.30538177490234 C 123.67646789550781 117.07784271240234 127.28067016601562 118.28245544433594 130.16323852539062 120.06928253173828 C 136.1976776123047 126.36044311523438 136.06825256347656 132.5592041015625 130.30406188964844 132.94528198242188 C 127.57747650146484 132.719970703125 125.5160140991211 132.20066833496094 123.13262939453125 130.19520568847656 C 121.24259948730469 129.1260986328125 120.03785705566406 127.34317016601562 120.06852722167969 126.91714477539062 C 120.03656005859375 126.29558563232422 120.24626159667969 125.60552978515625 119.75032043457031 126.96893310546875 C 118.98464965820312 126.44922637939453 118.5169677734375 126.55329895019531 119.85346221923828 129.74420166015625 C 119.81539916992188 136.43614196777344 117.67549133300781 139.2354736328125 113.08208465576172 139.54107666015625 C 110.77408599853516 139.43545532226562 109.41490936279297 138.6741180419922 108.62942504882812 136.76193237304688" stroke-width="1.0" fill="rgb(0, 0, 0)" opacity="1.0"/>
    <path d="M 35.88294982910156 128.93406677246094 C 31.42926025390625 126.9513168334961 35.785926818847656 120.6460952758789 43.860618591308594 116.08450317382812 C 48.06050109863281 113.6856689453125 48.64082336425781 113.89768981933594 44.57598876953125 112.77418518066406 C 32.54290771484375 110.29547882080078 28.0 93.56847381591797 38.138023376464844 89.87897491455078 C 45.43312072753906 87.63422393798828 54.71085739135742 90.77392578125 63.4569206237793 98.82463836669922 C 66.20558166503906 102.0472183227539 70.828369140625 105.75244140625 73.57398986816406 107.30521392822266 C 80.75302124023438 110.71996307373047 81.97218322753906 111.16753387451172 76.20889282226562 110.86502075195312 C 71.39204406738281 110.00823211669922 57.37088394165039 106.34270477294922 50.20887756347656 104.28962707519531 C 47.007408142089844 103.4491958618164 43.474159240722656 102.55841827392578 42.759361267089844 102.80244445800781 C 37.59288787841797 102.25804138183594 39.594749450683594 107.0772705078125 46.84881591796875 110.48453521728516 C 49.969993591308594 111.67903900146484 51.84172439575195 112.70475769042969 62.394012451171875 112.3793716430664 L 75.8138427734375 112.64191436767578 L 69.56521606445312 117.0579605102539 C 57.50102615356445 127.9317626953125 51.28491973876953 129.55081176757812 42.626304626464844 130.71463012695312 C 40.136383056640625 130.48109436035156 36.614288330078125 130.016357421875 35.88294982910156 128.93406677246094" stroke-width="1.0" fill="rgb(0, 0, 0)" opacity="1.0"/>
    <path d="M 174.2900390625 128.27195739746094 C 169.05836486816406 125.61006927490234 166.8126983642578 124.98653411865234 159.294921875 118.39047241210938 L 151.61676025390625 112.4925537109375 L 166.15631103515625 112.5533447265625 C 178.32977294921875 112.7440185546875 181.56118774414062 110.39494323730469 185.80384826660156 106.51332092285156 C 189.97769165039062 101.8761215209961 186.72767639160156 101.33214569091797 172.82435607910156 105.47666931152344 C 162.62762451171875 108.6744384765625 151.04025268554688 110.87474060058594 146.7864990234375 111.33023071289062 C 148.01040649414062 110.1664047241211 149.80953979492188 109.41402435302734 152.032958984375 108.03616333007812 C 154.093994140625 107.49939727783203 158.58160400390625 103.97937774658203 162.12730407714844 100.52626037597656 C 172.2238311767578 90.83344268798828 182.67471313476562 87.47086334228516 190.25103759765625 90.1924819946289 C 193.56365966796875 91.58097076416016 195.15646362304688 94.53607177734375 194.79090881347656 99.50431823730469 C 193.8948516845703 105.446533203125 191.40809631347656 109.15367889404297 185.29122924804688 112.00279998779297 C 182.2395782470703 112.9327621459961 180.01272583007812 114.05351257324219 180.10498046875 114.294677734375 C 179.75509643554688 113.79962158203125 182.26344299316406 115.25019836425781 185.00283813476562 116.77499389648438 C 192.6885528564453 121.72030639648438 196.0 127.1125717163086 191.67864990234375 129.15994262695312 C 188.89678955078125 131.60113525390625 179.80206298828125 130.91213989257812 174.2900390625 128.27195739746094" stroke-width="1.0" fill="rgb(0, 0, 0)" opacity="0.9998618"/>
    <path d="M 66.79946899414062 92.11129760742188 C 60.143924713134766 90.73455810546875 53.943145751953125 87.21183776855469 49.485511779785156 82.33125305175781 C 44.194496154785156 77.06826782226562 41.104515075683594 71.78962707519531 40.50001525878906 65.31452941894531 C 40.784629821777344 60.76520919799805 41.540306091308594 60.13233184814453 43.19365692138672 58.21176528930664 C 44.75788116455078 56.18513107299805 45.19331359863281 55.52583312988281 50.94501876831055 54.91161346435547 C 55.946903228759766 55.301307678222656 57.85005187988281 56.13058090209961 62.00466537475586 57.949668884277344 C 67.53515625 60.57047653198242 73.66422271728516 66.45785522460938 76.25349426269531 71.40472412109375 C 78.59042358398438 74.52003479003906 82.09120178222656 87.21070861816406 82.3373794555664 89.02030944824219 C 80.25726318359375 89.20832824707031 68.19708251953125 81.98829650878906 57.1894416809082 77.91815185546875 C 55.075958251953125 77.07461547851562 52.811283111572266 75.03546142578125 52.1198844909668 73.62873840332031 C 51.45178985595703 70.52867126464844 51.35869216918945 70.66671752929688 52.158870697021484 69.24128723144531 C 54.63899612426758 67.18384552001953 57.82799530029297 68.23844909667969 62.94081115722656 73.99608612060547 C 66.60430908203125 78.37925720214844 68.89154052734375 79.13006591796875 68.73231506347656 75.93109130859375 C 69.31613159179688 74.42180633544922 64.27616882324219 68.29621124267578 61.576271057128906 66.993408203125 C 58.2553596496582 64.82801818847656 53.24272155761719 64.76522827148438 50.97966384887695 66.37156677246094 C 43.47404479980469 73.03044891357422 56.66623306274414 84.51715087890625 77.07147216796875 89.92784118652344 C 80.96114349365234 90.82203674316406 83.71073150634766 91.74981689453125 86.66398620605469 92.41813659667969 C 85.50958251953125 93.44522094726562 70.87364959716797 93.25594329833984 66.79946899414062 92.11129760742188" stroke-width="1.0" fill="rgb(0, 0, 1)" opacity="0.9965464"/>
    <path d="M 150.12380981445312 90.14737701416016 C 167.86602783203125 85.51244354248047 177.91751098632812 78.20404052734375 178.41636657714844 70.92410278320312 C 178.14073181152344 62.84823226928711 165.5341033935547 63.420345306396484 159.88516235351562 72.49131774902344 C 157.74842834472656 75.50634765625 157.63021850585938 76.67903900146484 158.8677215576172 77.8779067993164 C 160.10589599609375 78.22088623046875 161.38682556152344 77.58443450927734 165.30746459960938 73.24252319335938 C 170.62893676757812 67.23186492919922 174.5769500732422 66.69198608398438 175.6956329345703 70.78874206542969 C 175.44427490234375 74.62052917480469 173.0724334716797 77.189208984375 165.90208435058594 79.52442169189453 C 162.34861755371094 80.81791687011719 156.67529296875 83.514892578125 153.5246124267578 85.20927429199219 C 149.97930908203125 87.265380859375 146.4527587890625 88.28986358642578 144.8456573486328 88.38600158691406 C 144.90614318847656 88.29737091064453 148.77841186523438 74.37704467773438 151.30027770996094 71.29141235351562 C 153.5027618408203 66.87931823730469 161.0806427001953 59.395687103271484 166.34722900390625 57.948490142822266 C 169.589111328125 55.96668243408203 172.0426025390625 55.550655364990234 176.89015197753906 54.88072967529297 C 183.4182586669922 55.535743713378906 185.69317626953125 57.35036087036133 186.80078125 63.39060974121094 C 187.59727478027344 72.69996643066406 179.1102294921875 83.97938537597656 168.4778289794922 89.2131576538086 C 162.45294189453125 92.28965759277344 156.34280395507812 93.04615020751953 147.7630615234375 93.02099609375 L 139.75389099121094 92.30484008789062 L 150.12380981445312 90.14737701416016" stroke-width="1.0" fill="rgb(0, 0, 0)" opacity="0.99800175"/>
    <path d="M 95.92002868652344 87.58171844482422 C 97.83075714111328 79.08714294433594 94.10073852539062 76.43144226074219 88.48560333251953 70.7586441040039 C 75.675048828125 57.01827621459961 73.84262084960938 48.819725036621094 75.45061492919922 39.10686492919922 C 79.74449157714844 29.19550323486328 93.6157455444336 33.38939666748047 101.76715087890625 45.88665008544922 C 108.54528045654297 55.45988464355469 110.22689056396484 69.12242126464844 105.2200698852539 76.30186462402344 C 103.89384460449219 79.85755920410156 102.11612701416016 81.05023956298828 97.908203125 84.4442138671875 C 96.89412689208984 83.8076171875 96.97781372070312 82.21487426757812 102.02117919921875 82.51187133789062 C 97.89956665039062 86.02632141113281 96.1700439453125 88.30066680908203 95.92002868652344 87.58171844482422" stroke-width="0.0" fill="rgb(1, 1, 1)" opacity="0.99387395"/>
    <path d="M 127.1695327758789 83.9239273071289 C 120.81871032714844 77.06956481933594 118.15922546386719 69.23341369628906 119.51061248779297 60.03691482543945 C 121.56355285644531 46.773338317871094 132.89932250976562 34.3817138671875 143.23773193359375 33.550010681152344 C 150.5978240966797 33.16112518310547 153.69638061523438 38.885498046875 152.26612854003906 48.146392822265625 C 150.9517364501953 55.702667236328125 148.1995849609375 61.269039154052734 140.29635620117188 69.04796600341797 C 131.85240173339844 77.40660095214844 131.2667236328125 78.84955596923828 130.77359008789062 83.74375915527344 L 131.7550811767578 88.53284454345703 L 127.1695327758789 83.9239273071289" stroke-width="1.0" fill="rgb(2, 3, 2)" opacity="0.9887089"/>
    <path d="M 111.52059173583984 76.26950073242188 C 111.37872314453125 74.79502868652344 112.13201904296875 69.94639587402344 112.77335357666016 65.32028198242188 L 114.44635009765625 56.92213821411133 L 114.7560806274414 65.3172836303711 C 115.12831115722656 70.08558654785156 116.232421875 75.01412963867188 116.49884796142578 76.2418212890625 C 117.15803527832031 78.88789367675781 116.68081665039062 79.03829956054688 113.95891571044922 78.75558471679688 C 111.13422393798828 79.22879028320312 110.82328033447266 78.73818969726562 111.52059173583984 76.26950073242188" stroke-width="1.0" fill="rgb(10, 145, 76)" opacity="0.9690777"/>
    <path d="M 136.07972717285156 88.07893371582031 C 134.37435913085938 83.63887023925781 134.62237548828125 79.11803436279297 138.07284545898438 76.45510864257812 C 142.38478088378906 72.48358154296875 143.6037139892578 72.415283203125 143.0965576171875 77.08612060546875 C 143.4666290283203 82.0342025756836 141.85531616210938 86.5108413696289 138.99905395507812 88.81063079833984 C 136.898193359375 90.26712036132812 136.61265563964844 90.5708236694336 136.07972717285156 88.07893371582031" stroke-width="1.0" fill="rgb(4, 139, 76)" opacity="0.981893"/>
    <path d="M 88.72035217285156 89.22406005859375 C 85.92242431640625 87.821044921875 83.93108367919922 83.38827514648438 84.1558837890625 78.34818267822266 C 84.63080596923828 72.58300018310547 84.57622528076172 71.74606323242188 87.23856353759766 74.49446105957031 C 90.760986328125 76.85983276367188 93.0394287109375 80.71749114990234 92.24964904785156 84.81498718261719 C 91.32740783691406 89.58194732666016 90.74613189697266 90.8713607788086 88.72035217285156 89.22406005859375" stroke-width="1.0" fill="rgb(5, 137, 77)" opacity="0.9829225"/>
    <path d="M 98.35240936279297 77.00357055664062 C 98.1999282836914 67.32264709472656 96.3250961303711 58.23009490966797 91.69766998291016 49.24146270751953 C 89.69500732421875 44.76130676269531 87.67619323730469 41.29386901855469 88.19146728515625 41.30735778808594 C 90.20732879638672 39.774497985839844 94.0660171508789 44.431434631347656 97.08277893066406 49.81142807006836 C 101.97496032714844 59.16365051269531 103.81498718261719 72.83323669433594 100.97432708740234 79.75039672851562 C 98.0797119140625 85.59934997558594 97.74415588378906 84.98106384277344 98.35240936279297 77.00357055664062" stroke-width="1.0" fill="rgb(249, 249, 249)" opacity="0.9805167"/>
    <path d="M 72.92176055908203 101.575439453125 C 71.30084228515625 99.100341796875 69.99232482910156 97.07781982421875 69.82534790039062 96.39227294921875 C 69.66633605957031 96.05484008789062 71.7819595336914 95.54003143310547 74.33340454101562 96.24720001220703 C 78.17637634277344 96.12458801269531 79.24758911132812 96.41319274902344 82.25971221923828 99.25874328613281 C 83.95315551757812 101.31631469726562 85.24205780029297 103.43228149414062 85.05501556396484 104.32807922363281 C 85.08705139160156 104.45252227783203 82.97581481933594 104.89364624023438 80.49867248535156 104.4412612915039 C 76.78846740722656 104.45198059082031 75.698486328125 104.117919921875 72.92176055908203 101.575439453125" stroke-width="1.0" fill="rgb(4, 140, 74)" opacity="0.9810067"/>
    <path d="M 70.20206451416016 123.56806945800781 C 72.27256774902344 119.4320297241211 76.25774383544922 116.70037078857422 80.40155029296875 116.7913818359375 C 81.850830078125 116.87100219726562 83.820068359375 117.35636901855469 83.68621826171875 118.08162689208984 C 83.95020294189453 118.15902709960938 82.85379791259766 120.12400817871094 81.412109375 122.16294860839844 C 78.85282897949219 125.16645812988281 77.80784606933594 125.59510040283203 73.63345336914062 125.99923706054688 L 68.86497497558594 126.24665832519531 L 70.20206451416016 123.56806945800781" stroke-width="1.0" fill="rgb(4, 139, 75)" opacity="0.9833936"/>
    <path d="M 148.94239807128906 124.91827392578125 C 146.55172729492188 123.3324203491211 143.64962768554688 119.40461730957031 143.51214599609375 117.65034484863281 C 143.520751953125 116.56230926513672 150.7752685546875 116.63123321533203 152.9270782470703 118.51580047607422 C 154.78504943847656 119.77880859375 158.05517578125 124.23373413085938 158.12513732910156 125.50098419189453 C 158.34603881835938 126.56022644042969 151.24624633789062 126.26090240478516 148.94239807128906 124.91827392578125" stroke-width="1.0" fill="rgb(5, 138, 76)" opacity="0.98069805"/>
    <path d="M 143.02685546875 101.69099426269531 C 144.97462463378906 98.26673126220703 149.0248565673828 95.6504898071289 153.8978271484375 96.00201416015625 C 158.15525817871094 95.2978515625 158.32102966308594 96.62161254882812 154.61566162109375 101.26103973388672 C 152.20559692382812 103.96306610107422 151.15472412109375 104.26546478271484 146.92694091796875 104.73257446289062 L 142.18630981445312 104.46576690673828 L 143.02685546875 101.69099426269531" stroke-width="1.0" fill="rgb(3, 139, 73)" opacity="0.9889035"/>
    <path d="M 138.5807342529297 150.30421447753906 C 133.77105712890625 145.7573699951172 132.15452575683594 139.4718780517578 134.6630096435547 136.28778076171875 C 135.83314514160156 134.9169464111328 136.00759887695312 134.8086395263672 138.546875 135.9387969970703 C 142.03231811523438 138.09445190429688 143.7061309814453 142.7548370361328 142.7307586669922 148.34645080566406 C 142.37417602539062 153.1157684326172 141.38311767578125 153.37796020507812 138.5807342529297 150.30421447753906" stroke-width="1.0" fill="rgb(7, 137, 79)" opacity="0.9883853"/>
    <path d="M 84.99061584472656 152.3281707763672 C 84.7913818359375 151.3523712158203 84.3868408203125 148.7562255859375 84.08822631835938 146.13626098632812 C 84.32240295410156 141.13919067382812 84.5250244140625 140.41209411621094 87.12713623046875 137.54278564453125 C 89.11473846435547 136.17189025878906 91.07003021240234 134.90707397460938 90.97248077392578 135.03158569335938 C 92.21919250488281 135.05963134765625 93.1505126953125 136.1610870361328 93.45536804199219 137.81582641601562 C 94.44564819335938 142.14439392089844 93.14387512207031 145.64083862304688 89.12562561035156 150.138916015625 C 86.39231872558594 152.67666625976562 85.71572875976562 153.1978759765625 84.99061584472656 152.3281707763672" stroke-width="1.0" fill="rgb(6, 137, 79)" opacity="0.9836207"/>
    <path d="M 83.35042572021484 175.82528686523438 C 81.86968994140625 172.19647216796875 84.01174926757812 167.099853515625 86.89674377441406 166.3397216796875 C 89.68984985351562 165.5029296875 92.6382064819336 167.99777221679688 92.388671875 170.79600524902344 C 92.77837371826172 173.13291931152344 91.25308227539062 176.63037109375 89.85681915283203 177.44204711914062 C 87.12935638427734 178.79196166992188 84.23260498046875 177.91151428222656 83.35042572021484 175.82528686523438" stroke-width="1.0" fill="rgb(251, 251, 252)" opacity="0.98956794"/>
    <path d="M 136.15200805664062 176.35504150390625 C 134.28883361816406 173.44642639160156 134.1132354736328 168.6776885986328 136.22540283203125 167.46534729003906 C 139.6180419921875 164.23098754882812 144.17333984375 168.23004150390625 143.94012451171875 173.7169952392578 C 143.96035766601562 178.11514282226562 139.45217895507812 179.77670288085938 136.15200805664062 176.35504150390625" stroke-width="1.0" fill="rgb(251, 252, 252)" opacity="0.99008715"/>
    <path d="M 50.98906707763672 157.42739868164062 C 47.87171936035156 154.49151611328125 47.52787780761719 150.79470825195312 50.38325881958008 147.12757873535156 C 52.63470458984375 143.6266632080078 60.96506881713867 138.41693115234375 67.506103515625 136.17221069335938 C 73.38721466064453 133.4686279296875 80.87171173095703 131.915771484375 82.84954071044922 132.37200927734375 C 81.61985778808594 133.25938415527344 70.49115753173828 142.69850158691406 65.15138244628906 142.99520874023438 C 57.363433837890625 144.78939819335938 53.3107795715332 147.07168579101562 52.421932220458984 149.27903747558594 C 50.66575622558594 152.13861083984375 51.32478713989258 153.79905700683594 53.412960052490234 155.73855590820312 C 54.8402099609375 156.4992218017578 55.01606750488281 156.8249053955078 59.2427864074707 155.4097900390625 C 64.5470962524414 152.10086059570312 66.27079772949219 153.73069763183594 62.011749267578125 156.70799255371094 C 57.754085540771484 159.44302368164062 54.38083267211914 159.75625610351562 50.98906707763672 157.42739868164062" stroke-width="1.0" fill="rgb(247, 248, 248)" opacity="0.9751371"/>
    <path d="M 166.74774169921875 157.74537658691406 C 161.60650634765625 155.3369140625 161.14923095703125 152.10015869140625 166.7676239013672 154.55511474609375 C 168.3165283203125 155.5734100341797 170.76992797851562 155.9575653076172 171.4998321533203 156.23776245117188 C 175.33953857421875 156.38795471191406 177.19650268554688 153.25790405273438 175.6454315185547 149.95315551757812 C 174.09906005859375 147.23483276367188 172.41354370117188 145.65469360351562 163.6616668701172 143.54083251953125 C 158.45736694335938 142.37449645996094 154.7530517578125 140.1629638671875 151.3687744140625 137.53919982910156 C 148.52113342285156 135.571044921875 145.93605041503906 133.67279052734375 144.31512451171875 132.62783813476562 C 146.5835418701172 131.46694946289062 160.1676025390625 135.83694458007812 166.16444396972656 138.95436096191406 C 172.255859375 142.34011840820312 175.71890258789062 145.02651977539062 177.74276733398438 147.82647705078125 C 181.7521209716797 155.573486328125 175.00816345214844 161.6658935546875 166.74774169921875 157.74537658691406" stroke-width="1.0" fill="rgb(247, 248, 248)" opacity="0.9751919"/>
    <path d="M 110.21822357177734 123.71133422851562 C 104.44963836669922 121.91997528076172 101.1996841430664 116.142578125 102.62905883789062 110.34992218017578 C 105.99987030029297 97.8552474975586 123.42047119140625 99.35232543945312 124.61473846435547 112.16441345214844 C 125.55331420898438 120.00735473632812 117.83499145507812 126.15303039550781 110.21822357177734 123.71133422851562" stroke-width="1.0" fill="rgb(249, 249, 249)" opacity="0.9890667"/>
    <path d="M 84.2078857421875 59.003761291503906 C 82.34346008300781 56.919071197509766 83.24647521972656 53.227508544921875 85.62679290771484 52.67274475097656 C 88.42230987548828 52.140724182128906 91.61566925048828 55.51210021972656 90.7352066040039 58.23760223388672 C 90.07984161376953 60.784488677978516 86.29802703857422 61.178802490234375 84.2078857421875 59.003761291503906" stroke-width="1.0" fill="rgb(247, 249, 249)" opacity="0.97848386"/>
    <path d="M 127.28518676757812 80.44181823730469 C 126.43148803710938 79.54637145996094 125.04170989990234 75.23397827148438 124.95417785644531 71.39749145507812 C 125.1501235961914 64.54460906982422 125.51610565185547 62.36024475097656 127.16778564453125 56.87963104248047 C 128.74827575683594 50.28327178955078 134.25396728515625 42.293800354003906 136.56149291992188 41.1309814453125 C 137.86032104492188 40.08875274658203 138.92474365234375 40.39008331298828 138.38185119628906 42.05401611328125 C 138.38429260253906 42.46184539794922 136.7338409423828 44.889625549316406 135.3401641845703 47.77568817138672 C 131.2626190185547 56.07408142089844 129.03561401367188 64.16857147216797 129.12060546875 73.87664794921875 C 129.10801696777344 78.41905212402344 129.63421630859375 81.9053726196289 129.7396240234375 84.037109375 C 127.82506561279297 83.55097961425781 127.60926055908203 81.81319427490234 127.28518676757812 80.44181823730469" stroke-width="1.0" fill="rgb(246, 247, 246)" opacity="0.9699785"/>
    <path d="M 136.5055694580078 57.68346405029297 C 134.99082946777344 55.44528579711914 136.58079528808594 52.16668701171875 139.38084411621094 50.592041015625 C 144.4320526123047 48.40058898925781 146.81997680664062 52.28240203857422 142.98806762695312 57.08675765991211 C 141.0116729736328 59.82841110229492 137.0973358154297 60.05696105957031 136.5055694580078 57.68346405029297" stroke-width="1.0" fill="rgb(250, 251, 251)" opacity="0.98828167"/>
    <path d="M 107.22599792480469 119.15784454345703 C 100.99829864501953 111.46498107910156 107.9218978881836 101.88702392578125 116.85252380371094 105.35794830322266 C 122.7109603881836 107.64160919189453 123.78839874267578 115.34823608398438 119.02448272705078 119.69978332519531 C 115.29393005371094 122.6699447631836 110.26775360107422 122.51329803466797 107.22599792480469 119.15784454345703" stroke-width="1.0" fill="rgb(0, 0, 0)" opacity="1.0"/>
  </g>
</svg>
