<?xml version="1.0" ?>
<svg xmlns="http://www.w3.org/2000/svg" version="1.1" width="224" height="224">
  <defs/>
  <g>
    <path d="M 191.7413787841797 111.99810791015625 C 191.7413787841797 111.99810791015625 191.7413787841797 111.99810791015625 191.7413787841797 111.99810791015625 C 191.5989990234375 123.63383483886719 189.25323486328125 135.04173278808594 184.330078125 145.61709594726562 C 169.56448364257812 177.33651733398438 134.81390380859375 196.0 100.21427154541016 190.87655639648438 C 92.0511245727539 189.66807556152344 84.08734130859375 187.17709350585938 76.6902847290039 183.5184326171875 C 68.3458251953125 179.3908233642578 60.744667053222656 173.79176330566406 54.31686782836914 167.05923461914062 C 47.44384002685547 159.860595703125 41.931175231933594 151.38226318359375 38.163352966308594 142.169189453125 C 34.2559814453125 132.61338806152344 32.25862121582031 122.31904602050781 32.25862121582031 111.99810791015625 C 32.25862121582031 101.67811584472656 34.2559814453125 91.38375854492188 38.163352966308594 81.82987213134766 C 41.931175231933594 72.61678314208984 47.44384002685547 64.13846588134766 54.31686782836914 56.94076919555664 C 60.744667053222656 50.20823669433594 68.3458251953125 44.608245849609375 76.6902847290039 40.48157501220703 C 84.08734130859375 36.82292938232422 92.0511245727539 34.33191680908203 100.21427154541016 33.123451232910156 C 134.81295776367188 28.0 169.56448364257812 46.66350555419922 184.330078125 78.3819580078125 C 189.25323486328125 88.95636749267578 191.5989990234375 100.36331176757812 191.7413787841797 111.99810791015625 C 191.7413787841797 111.99810791015625 191.7413787841797 111.99810791015625 191.7413787841797 111.99810791015625" stroke-width="0.0" fill="rgb(204, 209, 214)" opacity="1.0"/>
    <path d="M 76.55738830566406 106.68195343017578 C 100.18389892578125 106.68195343017578 123.81135559082031 106.68195343017578 147.4378662109375 106.68195343017578 C 147.4378662109375 110.22573852539062 147.4378662109375 113.76952362060547 147.4378662109375 117.31330871582031 C 123.81135559082031 117.31330871582031 100.18389892578125 117.31330871582031 76.55738830566406 117.31330871582031 C 76.55738830566406 113.76952362060547 76.55738830566406 110.22573852539062 76.55738830566406 106.68195343017578" stroke-width="0.0" fill="rgb(33, 33, 33)" opacity="1.0"/>
  </g>
</svg>
