<?xml version="1.0" ?>
<svg xmlns="http://www.w3.org/2000/svg" version="1.1" width="224" height="224">
  <defs/>
  <g>
    <path d="M 106.18096160888672 32.62158966064453 L 106.08383178710938 29.43718719482422 L 117.30667114257812 29.219375610351562 L 117.45066833496094 35.96001434326172 L 105.99029541015625 36.070640563964844 L 106.18096160888672 32.62158966064453" stroke-width="1.0" fill="rgb(42, 43, 46)" opacity="0.9982546"/>
    <path d="M 148.6094970703125 98.86846160888672 L 148.7365264892578 38.413246154785156 L 155.04150390625 38.70655059814453 L 161.24635314941406 38.003700256347656 L 160.41758728027344 150.65017700195312 L 154.20228576660156 154.63726806640625 C 151.6018829345703 157.1985321044922 149.1937713623047 159.18289184570312 149.08229064941406 159.18209838867188 C 148.61447143554688 159.162109375 148.77935791015625 132.1866455078125 148.6094970703125 98.86846160888672" stroke-width="1.0" fill="rgb(41, 42, 45)" opacity="0.98987156"/>
    <path d="M 148.9403533935547 32.924591064453125 L 149.0399627685547 29.54436492919922 L 159.64776611328125 29.50733184814453 L 159.57232666015625 36.32695770263672 L 149.01168823242188 36.221778869628906 L 148.9403533935547 32.924591064453125" stroke-width="1.0" fill="rgb(46, 47, 49)" opacity="0.98233557"/>
    <path d="M 63.40877151489258 33.533416748046875 L 63.23662567138672 29.624488830566406 L 76.25730895996094 29.14958953857422 L 75.99005126953125 32.63372802734375 C 75.88307189941406 36.134422302246094 75.86808776855469 36.269996643066406 69.87085723876953 36.4771728515625 L 63.72657012939453 37.48103332519531 L 63.40877151489258 33.533416748046875" stroke-width="1.0" fill="rgb(45, 46, 49)" opacity="0.9754879"/>
    <path d="M 104.46141052246094 191.2993927001953 C 101.89604949951172 189.90394592285156 93.42619323730469 184.46302795410156 85.84808349609375 178.8505401611328 C 60.48967742919922 161.8757781982422 44.670501708984375 142.38909912109375 38.96391296386719 121.5162353515625 C 36.951171875 116.2259292602539 35.89043426513672 112.6290054321289 36.436187744140625 74.65836334228516 L 36.603485107421875 33.218589782714844 L 38.664756774902344 31.129348754882812 C 39.35387420654297 29.091537475585938 41.81341552734375 29.3134765625 51.84552764892578 29.612930297851562 C 63.520931243896484 29.7730712890625 64.94688415527344 28.0 64.50696563720703 32.951385498046875 L 64.57561492919922 36.773834228515625 L 69.99050903320312 36.53236389160156 C 72.39539337158203 37.082122802734375 75.50082397460938 36.71562957763672 76.02845764160156 37.183311462402344 C 75.36067199707031 38.42057800292969 75.77099609375 37.05559539794922 76.328125 34.659271240234375 L 75.42217254638672 29.383499145507812 L 106.07815551757812 29.75501251220703 L 105.52538299560547 34.27137756347656 L 108.0993881225586 40.13189697265625 L 111.9558334350586 41.32049560546875 L 116.2230224609375 39.239646911621094 L 117.58812713623047 34.85179901123047 L 118.00548553466797 29.441864013671875 L 148.0533905029297 29.493263244628906 L 148.03273010253906 93.4391860961914 C 147.81480407714844 129.39146423339844 147.34677124023438 158.54873657226562 147.77684020996094 160.38914489746094 C 150.03854370117188 160.2538604736328 154.29791259765625 156.6347198486328 156.73019409179688 153.06752014160156 L 159.5298614501953 150.0629425048828 L 159.45614624023438 91.11223602294922 C 159.76437377929688 45.60323715209961 159.23971557617188 32.25099182128906 159.71282958984375 29.46979522705078 C 162.0377197265625 29.397445678710938 165.0174102783203 29.827224731445312 173.0906982421875 29.562423706054688 C 182.37054443359375 29.039474487304688 183.73236083984375 29.047325134277344 185.0848388671875 31.581520080566406 L 187.1901397705078 34.20729064941406 L 187.25830078125 76.62635040283203 C 188.10955810546875 123.43506622314453 185.43846130371094 120.16206359863281 179.47909545898438 136.03570556640625 C 169.30584716796875 153.77670288085938 157.7425537109375 166.71371459960938 129.77197265625 184.57595825195312 C 113.0548324584961 195.00320434570312 112.71769714355469 196.0 104.46141052246094 191.2993927001953" stroke-width="0.0" fill="rgb(253, 253, 253)" opacity="0.99416757"/>
    <path d="M 108.17518615722656 164.22064208984375 L 105.96382904052734 161.2176971435547 L 106.00508117675781 38.481964111328125 L 117.66163635253906 38.35205078125 L 117.76734161376953 160.80136108398438 L 115.36640167236328 164.01885986328125 C 113.85557556152344 165.77597045898438 112.43584442138672 167.2096405029297 111.61848449707031 167.2188262939453 C 111.22966766357422 167.2123565673828 109.69758605957031 165.86087036132812 108.17518615722656 164.22064208984375" stroke-width="1.0" fill="rgb(39, 40, 43)" opacity="1.0"/>
    <path d="M 52.459598541259766 132.7354278564453 C 45.89452362060547 118.38490295410156 45.53392791748047 118.6741943359375 45.18799591064453 76.82844543457031 L 45.25353240966797 38.14353942871094 L 50.24665451049805 38.059349060058594 L 55.955867767333984 37.938316345214844 L 56.0659065246582 88.03728485107422 C 56.18730926513672 115.89042663574219 56.18180847167969 138.89083862304688 55.8404655456543 138.821533203125 C 55.68136215209961 138.69363403320312 54.14784622192383 135.97537231445312 52.459598541259766 132.7354278564453" stroke-width="1.0" fill="rgb(163, 171, 178)" opacity="0.9964277"/>
    <path d="M 83.84141540527344 102.24201202392578 L 83.92060852050781 38.076698303222656 L 98.06560516357422 38.19618225097656 L 98.10066986083984 96.0260009765625 L 98.1389389038086 153.51828002929688 L 95.39453125 155.0952911376953 C 93.8624267578125 156.01182556152344 90.73075866699219 158.80984497070312 88.08142852783203 161.42788696289062 L 83.86503601074219 166.4159393310547 L 83.84141540527344 102.24201202392578" stroke-width="1.0" fill="rgb(160, 168, 175)" opacity="0.99747163"/>
    <path d="M 132.30242919921875 160.1814422607422 L 125.703369140625 153.71817016601562 L 125.83940887451172 95.9342041015625 L 125.72696685791016 38.3232421875 L 133.08480834960938 38.055450439453125 L 139.97178649902344 37.87097930908203 L 139.91627502441406 102.33462524414062 C 139.8311004638672 137.48997497558594 139.8499755859375 166.83624267578125 140.06112670898438 166.78924560546875 C 139.265625 166.79605102539062 136.0070343017578 163.71438598632812 132.30242919921875 160.1814422607422" stroke-width="1.0" fill="rgb(160, 167, 175)" opacity="0.9992777"/>
    <path d="M 167.84275817871094 105.2541732788086 C 167.78334045410156 87.02809143066406 167.92185974121094 64.80257415771484 167.8470458984375 55.05866622924805 L 168.5087890625 37.922340393066406 L 178.45516967773438 37.912879943847656 L 178.47390747070312 74.72703552246094 C 178.52947998046875 108.40518951416016 178.28842163085938 112.04785919189453 176.3878173828125 118.69210815429688 C 174.63580322265625 125.6773452758789 169.59207153320312 137.80992126464844 168.55088806152344 138.1531982421875 C 167.935546875 138.32815551757812 167.735595703125 123.53089141845703 167.84275817871094 105.2541732788086" stroke-width="1.0" fill="rgb(162, 169, 177)" opacity="0.9904804"/>
    <path d="M 69.5973129272461 155.87283325195312 L 64.3525161743164 150.5673065185547 L 64.38623046875 94.06700897216797 L 64.47463989257812 37.759124755859375 L 69.90255737304688 38.056182861328125 C 73.23103332519531 37.818336486816406 74.46136474609375 37.866798400878906 75.98243713378906 38.78883361816406 C 75.89517211914062 39.053260803222656 76.0024185180664 67.22419738769531 76.01131439208984 100.45094299316406 L 75.81069946289062 160.71693420410156 L 69.5973129272461 155.87283325195312" stroke-width="1.0" fill="rgb(41, 42, 46)" opacity="0.9995772"/>
    <path d="M 107.47463989257812 182.43711853027344 C 99.6961669921875 177.97923278808594 83.81625366210938 166.90106201171875 84.04431915283203 165.9893341064453 C 84.01947021484375 164.04283142089844 92.46403503417969 154.89105224609375 95.41790008544922 153.59490966796875 C 98.34390258789062 151.97671508789062 98.91705322265625 152.14523315429688 101.92278289794922 153.50045776367188 C 103.84275817871094 154.4204864501953 105.4061279296875 155.51068115234375 105.5677261352539 156.16468811035156 C 105.29155731201172 156.55859375 106.83892822265625 158.4774932861328 108.66407012939453 160.34597778320312 L 111.57331085205078 163.46304321289062 L 114.86897277832031 160.28103637695312 C 116.86666107177734 158.6007080078125 118.3860092163086 156.5425567626953 117.94136810302734 155.9395751953125 C 118.31275939941406 155.59942626953125 119.95320892333984 154.3727569580078 122.03936004638672 153.04566955566406 L 125.56184387207031 150.66934204101562 L 132.34275817871094 157.4921112060547 L 139.39271545410156 164.24301147460938 L 139.9550018310547 100.6305923461914 L 139.3251953125 37.109397888183594 L 139.79867553710938 101.27120971679688 L 140.6101837158203 165.4865264892578 L 138.81857299804688 167.43496704101562 C 135.70286560058594 170.23345947265625 115.7226333618164 183.3101806640625 113.34431457519531 183.9420166015625 C 112.19338989257812 184.38555908203125 109.87388610839844 183.76490783691406 107.47463989257812 182.43711853027344" stroke-width="1.0" fill="rgb(218, 225, 230)" opacity="0.9695564"/>
  </g>
</svg>
