<?xml version="1.0" ?>
<svg xmlns="http://www.w3.org/2000/svg" version="1.1" width="224" height="224">
  <defs/>
  <g>
    <path d="M 106.71354675292969 36.46263122558594 C 110.44407653808594 36.46263122558594 114.1738052368164 36.46263122558594 117.90432739257812 36.46263122558594 C 117.90432739257812 79.36089324951172 117.90432739257812 122.25995635986328 117.90432739257812 165.15821838378906 C 114.1738052368164 165.15821838378906 110.44407653808594 165.15821838378906 106.71354675292969 165.15821838378906 C 106.71354675292969 122.25995635986328 106.71354675292969 79.36089324951172 106.71354675292969 36.46263122558594" stroke-width="0.0" fill="rgb(223, 223, 223)" opacity="1.0"/>
    <path d="M 193.22628784179688 32.45873260498047 C 190.47174072265625 32.94712829589844 187.71722412109375 33.43632507324219 184.9626922607422 33.92552185058594 C 181.78530883789062 38.10847473144531 177.7702178955078 40.673561096191406 172.63763427734375 41.79344177246094 C 132.8384246826172 48.85322570800781 93.03921508789062 55.91221237182617 53.23999786376953 62.97199249267578 C 48.036285400390625 63.684207916259766 43.384117126464844 62.65625762939453 38.962158203125 59.82258987426758 C 36.20762634277344 60.31098556518555 33.452301025390625 60.8001823425293 30.697769165039062 61.28937911987305 C 32.53785705566406 69.03739929199219 39.00532531738281 73.55686950683594 46.91400909423828 72.62164306640625 C 91.90734100341797 64.63941955566406 136.9006805419922 56.65719985961914 181.89401245117188 48.67497253417969 C 189.642822265625 46.83488845825195 194.16229248046875 40.36741638183594 193.22628784179688 32.45873260498047 C 193.22628784179688 32.45873260498047 193.22628784179688 32.45873260498047 193.22628784179688 32.45873260498047" stroke-width="0.0" fill="rgb(189, 189, 189)" opacity="1.0"/>
    <path d="M 105.3178939819336 92.33820343017578 C 105.3178939819336 116.1441879272461 105.3178939819336 139.95098876953125 105.3178939819336 163.75697326660156 C 104.85188293457031 163.75697326660156 104.3858642578125 163.75697326660156 103.91984558105469 163.75697326660156 C 99.78245544433594 164.2341766357422 97.40361022949219 166.61300659179688 96.92640686035156 170.75039672851562 C 96.92640686035156 172.15005493164062 96.92640686035156 173.5489044189453 96.92640686035156 174.94854736328125 C 96.46038818359375 174.94854736328125 95.99437713623047 174.94854736328125 95.52835845947266 174.94854736328125 C 88.3566665649414 175.3953857421875 83.38556671142578 180.36648559570312 82.93792724609375 187.53817749023438 C 82.93792724609375 189.40304565429688 82.93792724609375 191.2678985595703 82.93792724609375 193.1327667236328 C 83.19052124023438 193.74185180664062 83.72767639160156 194.27902221679688 84.33677673339844 194.53082275390625 C 102.9878158569336 194.53082275390625 121.63884735107422 194.53082275390625 140.2906951904297 194.53082275390625 C 140.89898681640625 194.27902221679688 141.43614196777344 193.74185180664062 141.68873596191406 193.1327667236328 C 141.68873596191406 191.2678985595703 141.68873596191406 189.40304565429688 141.68873596191406 187.53817749023438 C 141.24110412597656 180.36648559570312 136.27000427246094 175.3953857421875 129.09910583496094 174.94854736328125 C 128.63150024414062 174.94854736328125 128.1646728515625 174.94854736328125 127.69705963134766 174.94854736328125 C 127.69705963134766 173.5489044189453 127.69705963134766 172.15005493164062 127.69705963134766 170.75039672851562 C 127.21985626220703 166.61300659179688 124.84101867675781 164.2341766357422 120.70362091064453 163.75697326660156 C 120.23760223388672 163.75697326660156 119.77159118652344 163.75697326660156 119.30557250976562 163.75697326660156 C 119.30477142333984 139.95098876953125 119.3039779663086 116.1441879272461 119.30317687988281 92.33820343017578 C 118.37114715576172 92.33820343017578 117.43830871582031 92.33820343017578 116.50627899169922 92.33820343017578 C 116.50627899169922 116.1441879272461 116.50627899169922 139.95098876953125 116.50627899169922 163.75697326660156 C 113.70938110351562 163.75697326660156 110.91168975830078 163.75697326660156 108.11479187011719 163.75697326660156 C 108.11479187011719 139.95098876953125 108.11479187011719 116.1441879272461 108.11479187011719 92.33820343017578 C 107.1827621459961 92.33820343017578 106.24993133544922 92.33820343017578 105.3178939819336 92.33820343017578" stroke-width="0.0" fill="rgb(54, 86, 80)" opacity="1.0"/>
    <path d="M 112.3089370727539 29.469192504882812 C 112.3089370727539 29.469192504882812 112.3089370727539 29.469192504882812 112.3089370727539 29.469192504882812 C 107.41856384277344 29.605880737304688 102.73602294921875 30.63623046875 98.40438842773438 32.9735107421875 C 84.85955047607422 40.28028869628906 79.14186096191406 57.39978790283203 85.7276382446289 71.34749603271484 C 87.28395080566406 74.644775390625 89.45976257324219 77.6423110961914 92.1039810180664 80.15064239501953 C 94.75300598144531 82.6645736694336 97.86803436279297 84.68290710449219 101.25004577636719 86.06177520751953 C 104.75355529785156 87.49019622802734 108.52565002441406 88.22239685058594 112.3089370727539 88.22239685058594 C 116.09222412109375 88.22239685058594 119.86431121826172 87.49019622802734 123.36702728271484 86.06177520751953 C 126.74983978271484 84.68290710449219 129.86407470703125 82.6645736694336 132.51309204101562 80.15064239501953 C 135.1573028564453 77.6423110961914 137.33311462402344 74.64398193359375 138.88943481445312 71.34749603271484 C 145.47442626953125 57.39978790283203 139.75833129882812 40.28028869628906 126.2134780883789 32.9735107421875 C 121.88185119628906 30.63623046875 117.19931030273438 29.605880737304688 112.3089370727539 29.469192504882812 C 112.3089370727539 29.469192504882812 112.3089370727539 29.469192504882812 112.3089370727539 29.469192504882812" stroke-width="0.0" fill="rgb(55, 87, 81)" opacity="1.0"/>
    <path d="M 78.57192993164062 57.053672790527344 C 70.0445556640625 58.56682586669922 61.51797866821289 60.07917785644531 52.990604400634766 61.59233093261719 C 49.87477111816406 62.005592346191406 46.86125183105469 61.90007781982422 43.87651062011719 60.815372467041016 C 42.06840515136719 60.1583137512207 40.566436767578125 58.84979248046875 38.7127685546875 58.439727783203125 C 35.95823669433594 58.928924560546875 33.202903747558594 59.418121337890625 30.44837188720703 59.907318115234375 C 27.99999237060547 61.47243118286133 30.378829956054688 65.43157196044922 31.61541748046875 67.30522155761719 C 35.07176971435547 72.54411315917969 41.071624755859375 74.7966537475586 47.15141296386719 73.9941177368164 C 50.820396423339844 73.3426513671875 54.4893684387207 72.69198608398438 58.15834426879883 72.04052734375 C 48.71892166137695 102.94306945800781 39.279502868652344 133.84640502929688 29.84008026123047 164.7489471435547 C 28.733787536621094 172.01016235351562 35.972625732421875 177.34896850585938 42.36735534667969 177.7478485107422 C 55.42300033569336 177.7478485107422 68.47784423828125 177.7478485107422 81.53349304199219 177.7478485107422 C 87.84268951416016 177.3545684814453 95.28056335449219 171.99497985839844 94.05438232421875 164.75213623046875 C 84.48466491699219 133.42355346679688 74.91494750976562 102.09576416015625 65.34523010253906 70.76717376708984 C 69.98539733886719 69.94384765625 74.62478637695312 69.12133026123047 79.26496124267578 68.29800415039062 C 79.1010971069336 67.37956237792969 78.93802642822266 66.46112060546875 78.77496337890625 65.54267883300781 C 68.07258605957031 67.44111633300781 57.370201110839844 69.33955383300781 46.667808532714844 71.23799133300781 C 40.05486297607422 71.98696899414062 34.66649627685547 68.66250610351562 32.39237976074219 62.403663635253906 C 34.47625732421875 62.03437042236328 36.560142517089844 61.66507339477539 38.64402770996094 61.2957763671875 C 43.29138946533203 64.1070556640625 48.10102844238281 65.0926513671875 53.4806022644043 64.34765625 C 62.00717544555664 62.834510803222656 70.5345458984375 61.3221549987793 79.06192016601562 59.8098030090332 C 78.89886474609375 58.891357421875 78.73500061035156 57.97211456298828 78.57192993164062 57.053672790527344" stroke-width="0.0" fill="rgb(54, 86, 80)" opacity="1.0"/>
    <path d="M 192.98008728027344 31.08226776123047 C 190.22555541992188 31.570663452148438 187.4710235595703 32.05986022949219 184.71649169921875 32.54905700683594 C 183.11700439453125 33.57301330566406 182.1553955078125 35.317176818847656 180.68380737304688 36.55615234375 C 178.2530059814453 38.60167694091797 175.46011352539062 39.73674011230469 172.39144897460938 40.42017364501953 C 162.52757263183594 42.16992950439453 152.6636962890625 43.91969299316406 142.79981994628906 45.66864776611328 C 142.962890625 46.587894439697266 143.12594604492188 47.50634002685547 143.28982543945312 48.424781799316406 C 153.1536865234375 46.67502212524414 163.01756286621094 44.925262451171875 172.88143920898438 43.175506591796875 C 178.190673828125 42.02845001220703 182.3688201904297 39.448974609375 185.76441955566406 35.208465576171875 C 187.8483123779297 34.83917236328125 189.931396484375 34.469871520996094 192.01528930664062 34.10057830810547 C 192.03125 40.75749969482422 188.11688232421875 45.7333984375 181.6518096923828 47.304100036621094 C 169.69285583496094 49.42555618286133 157.73471069335938 51.54700469970703 145.7765655517578 53.66765594482422 C 145.9404296875 54.58690643310547 146.10348510742188 55.50534439086914 146.26736450195312 56.423789978027344 C 150.58941650390625 55.657222747802734 154.91143798828125 54.889854431152344 159.23428344726562 54.123287200927734 C 149.67575073242188 85.40631103515625 140.11721801757812 116.68854522705078 130.5594940185547 147.97157287597656 C 129.45321655273438 155.23199462890625 136.69204711914062 160.57159423828125 143.0867919921875 160.96966552734375 C 156.14242553710938 160.96966552734375 169.1980743408203 160.96966552734375 182.25372314453125 160.96966552734375 C 188.56292724609375 160.57638549804688 196.0 155.216796875 194.7738037109375 147.97476196289062 C 185.099365234375 116.30245971679688 175.42494201660156 84.63095092773438 165.75051879882812 52.95944595336914 C 171.21240234375 51.99143600463867 176.67510986328125 51.02264404296875 182.1378173828125 50.05463409423828 C 188.20242309570312 48.67097854614258 193.1087646484375 44.460044860839844 194.48602294921875 38.21958923339844 C 194.96405029296875 36.054168701171875 195.76019287109375 31.692161560058594 192.98008728027344 31.08226776123047 C 192.98008728027344 31.08226776123047 192.98008728027344 31.08226776123047 192.98008728027344 31.08226776123047" stroke-width="0.0" fill="rgb(55, 86, 80)" opacity="1.0"/>
    <path d="M 95.52436828613281 176.34979248046875 C 95.52436828613281 176.34979248046875 95.52436828613281 176.34979248046875 95.52436828613281 176.34979248046875 C 89.09126281738281 176.8214111328125 84.8051986694336 181.106689453125 84.33358764648438 187.5405731201172 C 84.33358764648438 189.4054412841797 84.33358764648438 191.2711181640625 84.33358764648438 193.13595581054688 C 102.984619140625 193.13595581054688 121.63565063476562 193.13595581054688 140.28749084472656 193.13595581054688 C 140.28749084472656 191.2711181640625 140.28749084472656 189.4054412841797 140.28749084472656 187.5405731201172 C 139.81507873535156 181.106689453125 135.5290069580078 176.8214111328125 129.09510803222656 176.34979248046875 C 117.9051284790039 176.34979248046875 106.71514892578125 176.34979248046875 95.52436828613281 176.34979248046875" stroke-width="0.0" fill="rgb(54, 86, 80)" opacity="1.0"/>
    <path d="M 112.3089370727539 30.86724090576172 C 112.3089370727539 30.86724090576172 112.3089370727539 30.86724090576172 112.3089370727539 30.86724090576172 C 108.01087951660156 30.99114227294922 103.88787078857422 31.807273864746094 100.00547790527344 33.7113037109375 C 86.33433532714844 40.414581298828125 80.46397399902344 57.45494079589844 87.17684173583984 71.14605712890625 C 88.5333251953125 73.91098022460938 90.35022735595703 76.44648742675781 92.52763366699219 78.62470245361328 C 95.07273864746094 81.16820526123047 98.10543823242188 83.21771240234375 101.42030334472656 84.61976623535156 C 104.85747528076172 86.07296752929688 108.5776138305664 86.81795501708984 112.3089370727539 86.81795501708984 C 116.04106140136719 86.81795501708984 119.76119995117188 86.07296752929688 123.1983642578125 84.61896514892578 C 126.51323699951172 83.21771240234375 129.54673767089844 81.16740417480469 132.09103393554688 78.62310028076172 C 134.26844787597656 76.44569396972656 136.08535766601562 73.90938568115234 137.4410400390625 71.14446258544922 C 144.15310668945312 57.45334243774414 138.28274536132812 40.413780212402344 124.61080169677734 33.71050262451172 C 120.72840118408203 31.807273864746094 116.606201171875 30.99114227294922 112.3089370727539 30.86724090576172 C 112.3089370727539 30.86724090576172 112.3089370727539 30.86724090576172 112.3089370727539 30.86724090576172" stroke-width="0.0" fill="rgb(54, 86, 80)" opacity="1.0"/>
    <path d="M 31.17577362060547 165.15821838378906 C 31.17577362060547 165.15821838378906 31.17577362060547 165.15821838378906 31.17577362060547 165.15821838378906 C 31.647384643554688 171.5921173095703 35.93345642089844 175.87738037109375 42.36735534667969 176.34979248046875 C 55.42300033569336 176.34979248046875 68.47784423828125 176.34979248046875 81.53349304199219 176.34979248046875 C 87.96739196777344 175.87738037109375 92.25345611572266 171.59130859375 92.72506713867188 165.15821838378906 C 72.2083740234375 165.15821838378906 51.692474365234375 165.15821838378906 31.17577362060547 165.15821838378906" stroke-width="0.0" fill="rgb(54, 86, 80)" opacity="1.0"/>
    <path d="M 62.571510314941406 71.25717163085938 C 71.9925537109375 102.09176635742188 81.41358947753906 132.92556762695312 90.83383178710938 163.76016235351562 C 83.60858154296875 163.76016235351562 76.38253784179688 163.76016235351562 69.15648651123047 163.76016235351562 C 69.97821044921875 158.00570678710938 70.79993438720703 152.25204467773438 71.62165832519531 146.49758911132812 C 73.26829528808594 145.67506408691406 74.91494750976562 144.8525390625 76.56158447265625 144.030029296875 C 76.9556655883789 143.63914489746094 77.23223114013672 143.0955810546875 77.31776428222656 142.5472412109375 C 76.569580078125 138.0597381591797 75.82139587402344 133.57223510742188 75.07321166992188 129.0839385986328 C 74.29705047607422 126.32140350341797 72.99252319335938 124.79705810546875 70.38587188720703 123.59725952148438 C 69.15728759765625 123.18719482421875 67.92869567871094 122.77713012695312 66.70091247558594 122.36786651611328 C 68.28680419921875 118.56220245361328 70.17964172363281 112.92124938964844 68.229248046875 108.92694091796875 C 66.01747131347656 104.39786529541016 59.64032745361328 103.70004272460938 56.49171829223633 107.62800598144531 C 54.76274108886719 109.78462982177734 54.82109832763672 112.44723510742188 55.14083480834961 115.0458984375 C 55.455772399902344 117.6045913696289 56.207157135009766 119.99701690673828 57.193538665771484 122.36786651611328 C 55.965755462646484 122.77713012695312 54.73716354370117 123.18719482421875 53.508575439453125 123.59725952148438 C 50.90032196044922 124.79467010498047 49.59739685058594 126.32140350341797 48.82123565673828 129.0839385986328 C 48.07305908203125 133.57223510742188 47.32487487792969 138.0597381591797 46.576690673828125 142.5472412109375 C 46.66221618652344 143.0955810546875 46.93878936767578 143.63914489746094 47.332862854003906 144.030029296875 C 48.9795036315918 144.8525390625 50.62615203857422 145.67506408691406 52.27279281616211 146.49758911132812 C 53.09451675415039 152.25204467773438 53.91624450683594 158.00570678710938 54.73796844482422 163.76016235351562 C 47.514320373535156 163.76016235351562 40.29066467285156 163.76016235351562 33.0670166015625 163.76016235351562 C 42.463279724121094 133.00390625 51.86033630371094 102.24763488769531 61.257389068603516 71.49137878417969 C 61.6954345703125 71.4138412475586 62.13347244262695 71.33551025390625 62.571510314941406 71.25717163085938" stroke-width="0.0" fill="rgb(254, 254, 254)" opacity="1.0"/>
    <path d="M 131.89199829101562 148.3704376220703 C 131.89199829101562 148.3704376220703 131.89199829101562 148.3704376220703 131.89199829101562 148.3704376220703 C 132.36361694335938 154.80435180664062 136.64968872070312 159.09042358398438 143.08358764648438 159.56202697753906 C 156.13922119140625 159.56202697753906 169.1948699951172 159.56202697753906 182.25051879882812 159.56202697753906 C 188.68441772460938 159.09042358398438 192.96969604492188 154.8035430908203 193.44129943847656 148.3704376220703 C 172.92459106445312 148.3704376220703 152.40869140625 148.3704376220703 131.89199829101562 148.3704376220703" stroke-width="0.0" fill="rgb(54, 86, 80)" opacity="1.0"/>
    <path d="M 162.9759979248047 53.45263671875 C 172.50094604492188 84.62535858154297 182.02590942382812 115.79887390136719 191.55006408691406 146.97239685058594 C 184.32481384277344 146.97239685058594 177.0987548828125 146.97239685058594 169.87271118164062 146.97239685058594 C 170.69444274902344 141.21873474121094 171.5161590576172 135.46507263183594 172.337890625 129.71142578125 C 173.98533630371094 128.88809204101562 175.63197326660156 128.06556701660156 177.27862548828125 127.24224853515625 C 177.67190551757812 126.85137176513672 177.9492645263672 126.30781555175781 178.03399658203125 125.75947570800781 C 177.2858123779297 121.27196502685547 176.53842163085938 116.78446960449219 175.7902374267578 112.29696655273438 C 175.01327514648438 109.53524017333984 173.70956420898438 108.00929260253906 171.1029052734375 106.8102798461914 C 169.8743133544922 106.40021514892578 168.64572143554688 105.99095916748047 167.41712951660156 105.58089447021484 C 169.00222778320312 101.77603149414062 170.89747619628906 96.13347625732422 168.9462890625 92.13996887207031 C 166.73370361328125 87.61090087890625 160.3573455810547 86.91307067871094 157.20794677734375 90.84103393554688 C 155.47897338867188 92.9976577758789 155.53732299804688 95.65946960449219 155.85784912109375 98.25812530517578 C 156.17279052734375 100.81681823730469 156.92417907714844 103.21004486083984 157.91058349609375 105.58089447021484 C 156.68276977539062 105.99095916748047 155.45419311523438 106.40021514892578 154.22561645507812 106.8102798461914 C 151.6173553466797 108.0076904296875 150.31442260742188 109.53443908691406 149.5374755859375 112.29696655273438 C 148.78927612304688 116.78446960449219 148.04190063476562 121.27196502685547 147.29371643066406 125.75947570800781 C 147.37844848632812 126.30781555175781 147.65582275390625 126.85137176513672 148.04910278320312 127.24224853515625 C 149.69573974609375 128.06556701660156 151.34237670898438 128.88809204101562 152.9898223876953 129.71142578125 C 153.81155395507812 135.46507263183594 154.63327026367188 141.21873474121094 155.45498657226562 146.97239685058594 C 148.22894287109375 146.97239685058594 141.00289916992188 146.97239685058594 133.77764892578125 146.97239685058594 C 143.2930145263672 115.83804321289062 152.80836486816406 84.70289611816406 162.32373046875 53.56854248046875 C 162.54116821289062 53.52937316894531 162.75857543945312 53.49100875854492 162.9759979248047 53.45263671875" stroke-width="0.0" fill="rgb(254, 254, 254)" opacity="1.0"/>
    <path d="M 103.9166488647461 165.15821838378906 C 103.9166488647461 165.15821838378906 103.9166488647461 165.15821838378906 103.9166488647461 165.15821838378906 C 100.55941772460938 165.60903930664062 98.7720947265625 167.3963623046875 98.32125854492188 170.75360107421875 C 98.32125854492188 172.61927795410156 98.32125854492188 174.484130859375 98.32125854492188 176.34979248046875 C 107.64637756347656 176.34979248046875 116.97069549560547 176.34979248046875 126.29580688476562 176.34979248046875 C 126.29580688476562 174.484130859375 126.29580688476562 172.61927795410156 126.29580688476562 170.75360107421875 C 125.84498596191406 167.3963623046875 124.05845642089844 165.60903930664062 120.70122528076172 165.15821838378906 C 115.10663604736328 165.15821838378906 109.51124572753906 165.15821838378906 103.9166488647461 165.15821838378906" stroke-width="0.0" fill="rgb(54, 86, 80)" opacity="1.0"/>
    <path d="M 95.52436828613281 177.74464416503906 C 106.71514892578125 177.74464416503906 117.9051284790039 177.74464416503906 129.09510803222656 177.74464416503906 C 134.74964904785156 178.20187377929688 138.43142700195312 181.88363647460938 138.88864135742188 187.53817749023438 C 138.88864135742188 188.93701171875 138.88864135742188 190.33587646484375 138.88864135742188 191.73471069335938 C 121.16963958740234 191.73471069335938 103.45063781738281 191.73471069335938 85.73162841796875 191.73471069335938 C 85.73162841796875 190.33587646484375 85.73162841796875 188.93701171875 85.73162841796875 187.53817749023438 C 86.18885803222656 181.88363647460938 89.87062072753906 178.20187377929688 95.52436828613281 177.74464416503906 C 95.52436828613281 177.74464416503906 95.52436828613281 177.74464416503906 95.52436828613281 177.74464416503906" stroke-width="0.0" fill="rgb(189, 189, 189)" opacity="1.0"/>
    <path d="M 112.3089370727539 32.26848602294922 C 112.3089370727539 32.26848602294922 112.3089370727539 32.26848602294922 112.3089370727539 32.26848602294922 C 116.53905487060547 32.39558410644531 120.58611297607422 33.23009490966797 124.37659454345703 35.16929626464844 C 140.46495056152344 43.400123596191406 143.6934814453125 65.73532104492188 130.55072021484375 78.15708923339844 C 128.34213256835938 80.24496459960938 125.77783966064453 81.95315551757812 122.99613952636719 83.17855072021484 C 119.63650512695312 84.65972900390625 115.9795150756836 85.423095703125 112.3089370727539 85.423095703125 C 108.63835906982422 85.423095703125 104.98057556152344 84.65972900390625 101.62174224853516 83.17855072021484 C 98.84003448486328 81.95315551757812 96.27494812011719 80.24496459960938 94.06636810302734 78.15708923339844 C 80.92359161376953 65.73532104492188 84.15213012695312 43.399322509765625 100.240478515625 35.16929626464844 C 104.03175354003906 33.23009490966797 108.07882690429688 32.39558410644531 112.3089370727539 32.26848602294922 C 112.3089370727539 32.26848602294922 112.3089370727539 32.26848602294922 112.3089370727539 32.26848602294922" stroke-width="0.0" fill="rgb(241, 194, 78)" opacity="1.0"/>
    <path d="M 61.95281982421875 106.40821075439453 C 61.95281982421875 106.40821075439453 61.95281982421875 106.40821075439453 61.95281982421875 106.40821075439453 C 60.65309143066406 106.58246612548828 60.28219223022461 106.50013732910156 59.129547119140625 107.17158508300781 C 53.94581604003906 110.1930923461914 56.96013641357422 118.46308135986328 58.860172271728516 122.60127258300781 C 58.959285736083984 122.79791259765625 59.05841064453125 122.99454498291016 59.15673065185547 123.1911849975586 C 57.4245491027832 123.768310546875 55.69237518310547 124.34623718261719 53.960205078125 124.9233627319336 C 51.84274673461914 125.9688949584961 50.913116455078125 127.05760192871094 50.209693908691406 129.31175231933594 C 49.461509704589844 133.79925537109375 48.7141227722168 138.2875518798828 47.9659423828125 142.77505493164062 C 49.830806732177734 143.7070770263672 51.696468353271484 144.6391143798828 53.561336517333984 145.57113647460938 C 54.49336624145508 152.099365234375 55.42539596557617 158.62680053710938 56.35742950439453 165.15501403808594 C 60.087955474853516 165.15501403808594 63.8184814453125 165.15501403808594 67.54901123046875 165.15501403808594 C 68.48104095458984 158.62680053710938 69.41307067871094 152.099365234375 70.34510803222656 145.57113647460938 C 72.21076965332031 144.6391143798828 74.07563781738281 143.7070770263672 75.94129943847656 142.77505493164062 C 75.193115234375 138.2875518798828 74.44572448730469 133.79925537109375 73.69754028320312 129.31175231933594 C 72.9957275390625 127.05599975585938 72.06449127197266 125.9688949584961 69.9454345703125 124.9233627319336 C 68.21406555175781 124.34623718261719 66.48188781738281 123.768310546875 64.74971771240234 123.1911849975586 C 64.84803771972656 122.99454498291016 64.94715881347656 122.79791259765625 65.04627227783203 122.60127258300781 C 66.94551086425781 118.46308135986328 69.96062469482422 110.1930923461914 64.77769470214844 107.17158508300781 C 63.624244689941406 106.50013732910156 63.25334930419922 106.58246612548828 61.95281982421875 106.40821075439453 C 61.95281982421875 106.40821075439453 61.95281982421875 106.40821075439453 61.95281982421875 106.40821075439453" stroke-width="0.0" fill="rgb(54, 86, 80)" opacity="1.0"/>
    <path d="M 32.673744201660156 166.55625915527344 C 52.19126510620117 166.55625915527344 71.70957946777344 166.55625915527344 91.22710418701172 166.55625915527344 C 90.08564758300781 171.57212829589844 86.65646362304688 174.52810668945312 81.53349304199219 174.94854736328125 C 68.47784423828125 174.94854736328125 55.42300033569336 174.94854736328125 42.36735534667969 174.94854736328125 C 37.24357604980469 174.52810668945312 33.817596435546875 171.5713348388672 32.673744201660156 166.55625915527344 C 32.673744201660156 166.55625915527344 32.673744201660156 166.55625915527344 32.673744201660156 166.55625915527344" stroke-width="0.0" fill="rgb(205, 205, 205)" opacity="1.0"/>
    <path d="M 162.670654296875 89.62043762207031 C 162.670654296875 89.62043762207031 162.670654296875 89.62043762207031 162.670654296875 89.62043762207031 C 161.3701171875 89.79550170898438 160.99923706054688 89.71236419677734 159.84657287597656 90.38461303710938 C 154.662841796875 93.40612030029297 157.67796325683594 101.6777114868164 159.5771942138672 105.81749725341797 C 159.6763153076172 106.0141372680664 159.7754364013672 106.21076965332031 159.87374877929688 106.40821075439453 C 158.14158630371094 106.98533630371094 156.40940856933594 107.56246185302734 154.67724609375 108.13958740234375 C 152.55978393554688 109.18511962890625 151.63014221191406 110.27302551269531 150.92672729492188 112.52796936035156 C 150.1785430908203 117.01547241210938 149.43035888671875 121.50297546386719 148.6821746826172 125.99048614501953 C 150.54783630371094 126.92251586914062 152.41268920898438 127.85453796386719 154.2783660888672 128.7865753173828 C 155.21038818359375 135.31480407714844 156.14242553710938 141.843017578125 157.074462890625 148.3704376220703 C 160.80499267578125 148.3704376220703 164.53550720214844 148.3704376220703 168.26605224609375 148.3704376220703 C 169.1980743408203 141.843017578125 170.13011169433594 135.31480407714844 171.0621337890625 128.7865753173828 C 172.92779541015625 127.85453796386719 174.79266357421875 126.92251586914062 176.6583251953125 125.99048614501953 C 175.91014099121094 121.50297546386719 175.16195678710938 117.01547241210938 174.4137725830078 112.52796936035156 C 173.71194458007812 110.27222442626953 172.78150939941406 109.184326171875 170.6624755859375 108.13958740234375 C 168.93109130859375 107.56246185302734 167.19891357421875 106.98533630371094 165.4667510986328 106.40821075439453 C 165.5650634765625 106.21076965332031 165.6641845703125 106.0141372680664 165.7633056640625 105.81749725341797 C 167.66253662109375 101.6777114868164 170.6776580810547 93.40612030029297 165.49392700195312 90.38461303710938 C 164.34127807617188 89.71236419677734 163.97036743164062 89.79550170898438 162.670654296875 89.62043762207031 C 162.670654296875 89.62043762207031 162.670654296875 89.62043762207031 162.670654296875 89.62043762207031" stroke-width="0.0" fill="rgb(54, 86, 80)" opacity="1.0"/>
    <path d="M 133.3899688720703 149.77169799804688 C 152.90750122070312 149.77169799804688 172.42581176757812 149.77169799804688 191.94332885742188 149.77169799804688 C 190.80267333984375 154.78836059570312 187.37350463867188 157.7435302734375 182.25051879882812 158.1639862060547 C 169.1948699951172 158.1639862060547 156.13922119140625 158.1639862060547 143.08358764648438 158.1639862060547 C 137.95980834960938 157.7435302734375 134.53382873535156 154.78675842285156 133.3899688720703 149.77169799804688 C 133.3899688720703 149.77169799804688 133.3899688720703 149.77169799804688 133.3899688720703 149.77169799804688" stroke-width="0.0" fill="rgb(205, 205, 205)" opacity="1.0"/>
    <path d="M 103.9166488647461 166.55307006835938 C 109.51203918457031 166.55307006835938 115.10823059082031 166.55307006835938 120.70362091064453 166.55307006835938 C 123.26790618896484 166.96792602539062 124.4861068725586 168.18612670898438 124.90096282958984 170.75039672851562 C 124.90096282958984 172.15005493164062 124.90096282958984 173.5489044189453 124.90096282958984 174.94854736328125 C 116.50788116455078 174.94854736328125 108.11559295654297 174.94854736328125 99.72250366210938 174.94854736328125 C 99.72250366210938 173.5489044189453 99.72250366210938 172.15005493164062 99.72250366210938 170.75039672851562 C 100.13416290283203 168.18531799316406 101.35236358642578 166.96792602539062 103.9166488647461 166.55307006835938 C 103.9166488647461 166.55307006835938 103.9166488647461 166.55307006835938 103.9166488647461 166.55307006835938" stroke-width="0.0" fill="rgb(205, 206, 206)" opacity="1.0"/>
    <path d="M 112.3121337890625 38.7943115234375 C 112.3121337890625 38.7943115234375 112.3121337890625 38.7943115234375 112.3121337890625 38.7943115234375 C 102.02220916748047 39.211570739746094 93.18229675292969 46.631858825683594 92.32699584960938 57.203147888183594 C 92.07121276855469 60.35894775390625 92.56439971923828 63.56190872192383 93.77140808105469 66.48989868164062 C 94.52998352050781 68.32758331298828 95.18064880371094 70.44983673095703 97.37164306640625 69.54418182373047 C 105.91819763183594 60.997623443603516 114.46395874023438 52.45186233520508 123.00971984863281 43.906105041503906 C 123.61641693115234 42.15235137939453 122.9945297241211 41.779052734375 121.37906646728516 40.95893096923828 C 118.51502227783203 39.50492858886719 115.49591064453125 38.91900634765625 112.3121337890625 38.7943115234375 C 112.3121337890625 38.7943115234375 112.3121337890625 38.7943115234375 112.3121337890625 38.7943115234375" stroke-width="0.0" fill="rgb(55, 87, 80)" opacity="1.0"/>
    <path d="M 128.4028778076172 47.7413444519043 C 128.4028778076172 47.7413444519043 128.4028778076172 47.7413444519043 128.4028778076172 47.7413444519043 C 128.0183868408203 47.87483215332031 127.63311004638672 48.00752258300781 127.24862670898438 48.141014099121094 C 118.70207214355469 56.68677520751953 110.15631103515625 65.23333740234375 101.61054992675781 73.77909088134766 C 101.47705841064453 74.16357421875 101.16291809082031 74.52887725830078 101.21087646484375 74.93334197998047 C 101.37155151367188 76.28982543945312 103.67045593261719 76.97246551513672 104.66483306884766 77.38172912597656 C 107.59202575683594 78.58792877197266 110.79578399658203 79.07952880859375 113.95158386230469 78.82373809814453 C 124.80904388427734 77.94525909423828 133.14776611328125 68.10935974121094 132.29806518554688 57.26309585571289 C 132.05667114257812 54.17684555053711 131.15740966796875 49.50788879394531 128.4028778076172 47.7413444519043 C 128.4028778076172 47.7413444519043 128.4028778076172 47.7413444519043 128.4028778076172 47.7413444519043" stroke-width="0.0" fill="rgb(56, 87, 79)" opacity="1.0"/>
    <path d="M 61.949623107910156 107.80945587158203 C 61.949623107910156 107.80945587158203 61.949623107910156 107.80945587158203 61.949623107910156 107.80945587158203 C 68.8039779663086 108.91734313964844 65.73130798339844 117.75486755371094 63.79450225830078 121.98098754882812 C 63.69618225097656 122.17762756347656 63.59706497192383 122.37425994873047 63.498748779296875 122.57009887695312 C 63.48515701293945 122.95697784423828 63.309303283691406 123.3734359741211 63.45798110961914 123.7315444946289 C 63.605857849121094 124.08885192871094 64.02391052246094 124.25990295410156 64.306884765625 124.52368927001953 C 66.03905487060547 125.10081481933594 67.77122497558594 125.6787338256836 69.50340270996094 126.255859375 C 71.15643310546875 127.1655044555664 71.67521667480469 127.77141571044922 72.31468200683594 129.54595947265625 C 73.00691223144531 133.69374084472656 73.69834899902344 137.84152221679688 74.39057159423828 141.98849487304688 C 72.83265686035156 142.76705932617188 71.27554321289062 143.54483032226562 69.71842193603516 144.32337951660156 C 69.46503448486328 144.6750946044922 69.21244049072266 145.0260009765625 68.95985412597656 145.37771606445312 C 68.08537292480469 151.50546264648438 67.21009063720703 157.63241577148438 66.33560943603516 163.76016235351562 C 63.41402053833008 163.76016235351562 60.49322509765625 163.76016235351562 57.571632385253906 163.76016235351562 C 56.697147369384766 157.63241577148438 55.82187271118164 151.50546264648438 54.947391510009766 145.37771606445312 C 54.69240188598633 145.0260009765625 54.43741226196289 144.6750946044922 54.18242263793945 144.32337951660156 C 52.62530517578125 143.54483032226562 51.06818771362305 142.76705932617188 49.51026916503906 141.98849487304688 C 50.20249557495117 137.84152221679688 50.8939323425293 133.69374084472656 51.586158752441406 129.54595947265625 C 52.22563552856445 127.76982116699219 52.74200439453125 127.16390991210938 54.39744186401367 126.255859375 C 56.12961959838867 125.6787338256836 57.861785888671875 125.10081481933594 59.59396743774414 124.52368927001953 C 59.876930236816406 124.25990295410156 60.294986724853516 124.08885192871094 60.44286346435547 123.7315444946289 C 60.59154510498047 123.3734359741211 60.415687561035156 122.95697784423828 60.402103424072266 122.57009887695312 C 60.30378341674805 122.37425994873047 60.20465850830078 122.17762756347656 60.10634231567383 121.98098754882812 C 58.167137145996094 117.75646209716797 55.09846496582031 108.91814422607422 61.949623107910156 107.80945587158203 C 61.949623107910156 107.80945587158203 61.949623107910156 107.80945587158203 61.949623107910156 107.80945587158203" stroke-width="0.0" fill="rgb(64, 159, 141)" opacity="1.0"/>
    <path d="M 162.66744995117188 91.02168273925781 C 162.66744995117188 91.02168273925781 162.66744995117188 91.02168273925781 162.66744995117188 91.02168273925781 C 169.52099609375 92.13037109375 166.44754028320312 100.9678955078125 164.51153564453125 105.1932144165039 C 164.41241455078125 105.38984680175781 164.31329345703125 105.58648681640625 164.2149658203125 105.78312683105469 C 164.20138549804688 106.17001342773438 164.02633666992188 106.58646392822266 164.1750030517578 106.94457244873047 C 164.32289123535156 107.30267333984375 164.74014282226562 107.47293853759766 165.02310180664062 107.73751831054688 C 166.7552947998047 108.31464385986328 168.48745727539062 108.89176940917969 170.21963500976562 109.46968841552734 C 171.87266540527344 110.37774658203125 172.39144897460938 110.983642578125 173.03170776367188 112.75897979736328 C 173.72314453125 116.90596771240234 174.41458129882812 121.05374145507812 175.1068115234375 125.2015380859375 C 173.54969787597656 125.97929382324219 171.99256896972656 126.75784301757812 170.43545532226562 127.53561401367188 C 170.1820526123047 127.88731384277344 169.92947387695312 128.23902893066406 169.67608642578125 128.59072875976562 C 168.80160522460938 134.7176971435547 167.92633056640625 140.84544372558594 167.0518341064453 146.97239685058594 C 164.1302490234375 146.97239685058594 161.20945739746094 146.97239685058594 158.28787231445312 146.97239685058594 C 157.4133758544922 140.84544372558594 156.53810119628906 134.7176971435547 155.6636199951172 128.59072875976562 C 155.40863037109375 128.23902893066406 155.1536407470703 127.88731384277344 154.89865112304688 127.53561401367188 C 153.34153747558594 126.75784301757812 151.784423828125 125.97929382324219 150.227294921875 125.2015380859375 C 150.91952514648438 121.05374145507812 151.6109619140625 116.90596771240234 152.30238342285156 112.75897979736328 C 152.94186401367188 110.98204040527344 153.45904541015625 110.37694549560547 155.11447143554688 109.46968841552734 C 156.84664916992188 108.89176940917969 158.57882690429688 108.31464385986328 160.3109893798828 107.73751831054688 C 160.59396362304688 107.47293853759766 161.0120086669922 107.30267333984375 161.15908813476562 106.94457244873047 C 161.30776977539062 106.58646392822266 161.13192749023438 106.17001342773438 161.1183319091797 105.78312683105469 C 161.02001953125 105.58648681640625 160.92088317871094 105.38984680175781 160.82257080078125 105.1932144165039 C 158.88336181640625 100.96868896484375 155.814697265625 92.13037109375 162.66744995117188 91.02168273925781 C 162.66744995117188 91.02168273925781 162.66744995117188 91.02168273925781 162.66744995117188 91.02168273925781" stroke-width="0.0" fill="rgb(64, 159, 141)" opacity="1.0"/>
    <path d="M 112.3089370727539 40.192359924316406 C 112.3089370727539 40.192359924316406 112.3089370727539 40.192359924316406 112.3089370727539 40.192359924316406 C 115.85401916503906 40.333839416503906 118.92189025878906 41.18274688720703 122.01773834228516 42.91651916503906 C 113.47198486328125 51.463077545166016 104.92542266845703 60.00883865356445 96.3796615600586 68.55459594726562 C 90.98570251464844 58.92333221435547 94.30937194824219 46.455204010009766 104.69920349121094 41.81022644042969 C 107.14359283447266 40.717529296875 109.65512084960938 40.30506896972656 112.3089370727539 40.192359924316406 C 112.3089370727539 40.192359924316406 112.3089370727539 40.192359924316406 112.3089370727539 40.192359924316406" stroke-width="0.0" fill="rgb(54, 86, 80)" opacity="1.0"/>
    <path d="M 128.23741149902344 49.129798889160156 C 128.23741149902344 49.129798889160156 128.23741149902344 49.129798889160156 128.23741149902344 49.129798889160156 C 129.67703247070312 51.7012825012207 130.6658172607422 54.369483947753906 130.90162658691406 57.3310432434082 C 131.70416259765625 67.41153717041016 124.01929473876953 76.56320190429688 113.92121124267578 77.42089080810547 C 109.87174224853516 77.76461029052734 106.10924530029297 76.73345947265625 102.59933471679688 74.76787567138672 C 111.14509582519531 66.22212219238281 119.69165802001953 57.67635726928711 128.23741149902344 49.129798889160156" stroke-width="0.0" fill="rgb(54, 86, 80)" opacity="1.0"/>
    <path d="M 112.3121337890625 41.58721160888672 C 112.31133270263672 41.58800506591797 112.30973815917969 41.58961486816406 112.3089370727539 41.59040832519531 C 114.95555877685547 41.707916259765625 117.26245880126953 42.22428894042969 119.7044448852539 43.250640869140625 C 112.04275512695312 50.91233444213867 104.38186645507812 58.57401657104492 96.72018432617188 66.23570251464844 C 93.13273620605469 57.72112274169922 96.02954864501953 47.75413131713867 104.5305404663086 43.44408416748047 C 107.0029067993164 42.189918518066406 109.56959533691406 41.718299865722656 112.3121337890625 41.58721160888672 C 112.3121337890625 41.58721160888672 112.3121337890625 41.58721160888672 112.3121337890625 41.58721160888672" stroke-width="0.0" fill="rgb(222, 222, 222)" opacity="1.0"/>
    <path d="M 127.90009307861328 51.44948959350586 C 127.90009307861328 51.44948959350586 127.90009307861328 51.44948959350586 127.90009307861328 51.44948959350586 C 129.12948608398438 54.365482330322266 129.7841339111328 57.32225036621094 129.48118591308594 60.50442886352539 C 128.64907836914062 69.24922180175781 121.06332397460938 76.0676040649414 112.3089370727539 76.09718322753906 C 109.69749450683594 76.10678100585938 107.29786682128906 75.44012451171875 104.91263580322266 74.43775177001953 C 112.57511901855469 66.77445983886719 120.23760223388672 59.111976623535156 127.90009307861328 51.44948959350586" stroke-width="0.0" fill="rgb(254, 254, 254)" opacity="1.0"/>
  </g>
</svg>
