<?xml version="1.0" ?>
<svg xmlns="http://www.w3.org/2000/svg" version="1.1" width="224" height="224">
  <defs/>
  <g>
    <path d="M 102.11970520019531 28.00000762939453 C 102.11970520019531 29.412567138671875 102.11970520019531 30.824325561523438 102.11970520019531 32.23689270019531 C 92.23739624023438 32.23689270019531 82.35428619384766 32.23689270019531 72.47117614746094 32.23689270019531 C 72.04522705078125 32.508750915527344 71.61927795410156 32.780616760253906 71.1925277709961 33.05248260498047 C 64.73152160644531 46.89820098876953 58.2705078125 60.744720458984375 51.80949401855469 74.59043884277344 C 44.57807159423828 74.59043884277344 37.346641540527344 74.59043884277344 30.115211486816406 74.59043884277344 C 29.50049591064453 74.84455871582031 28.95838165283203 75.38666534423828 28.704261779785156 76.00138854980469 C 28.704261779785156 81.64842224121094 28.704261779785156 87.29625701904297 28.704261779785156 92.94329071044922 C 28.95838165283203 93.55801391601562 29.50049591064453 94.1001205444336 30.115211486816406 94.35424041748047 C 41.409278869628906 94.35424041748047 52.70414733886719 94.35424041748047 63.99901580810547 94.35424041748047 C 64.42496490478516 94.08238220214844 64.85171508789062 93.81050872802734 65.27766418457031 93.53865051269531 C 71.73867797851562 79.69293212890625 78.1996841430664 65.84721374511719 84.66069793701172 52.001502990722656 C 86.97517395019531 52.001502990722656 89.28884887695312 52.001502990722656 91.60332489013672 52.001502990722656 C 89.39210510253906 54.959739685058594 89.0048828125 57.89216232299805 90.37065887451172 61.320716857910156 C 91.35888671875 63.2979850769043 92.34711456298828 65.27444458007812 93.33534240722656 67.25171661376953 C 88.86854553222656 71.71771240234375 84.40254974365234 76.18450927734375 79.93655395507812 80.6505126953125 C 79.80021667480469 80.9538345336914 79.66307830810547 81.25715637207031 79.52674102783203 81.56048583984375 C 79.0919189453125 88.52005004882812 78.65789794921875 95.4796142578125 78.22308349609375 102.43917083740234 C 77.0718994140625 117.9394760131836 71.07475280761719 132.34585571289062 60.884273529052734 144.08200073242188 C 58.74646759033203 146.48683166503906 56.60866928100586 148.8924560546875 54.4716682434082 151.29730224609375 C 54.35308074951172 151.6103057861328 54.23448944091797 151.92330932617188 54.11590576171875 152.23550415039062 C 54.11590576171875 156.94189453125 54.11590576171875 161.64749145507812 54.11590576171875 166.35308837890625 C 54.37083053588867 166.9669952392578 54.91213607788086 167.50991821289062 55.52685546875 167.7640380859375 C 71.99763488769531 167.76483154296875 88.46841430664062 167.76644897460938 104.93838500976562 167.76727294921875 C 104.93838500976562 169.69692993164062 104.93838500976562 171.62661743164062 104.93838500976562 173.5562744140625 C 100.12953186035156 175.13180541992188 97.28585052490234 180.57635498046875 100.90801239013672 184.96328735351562 C 102.0220947265625 186.31292724609375 103.3289794921875 186.8623046875 104.93838500976562 187.389892578125 C 104.93838500976562 189.78988647460938 104.93838500976562 192.18905639648438 104.93838500976562 194.58905029296875 C 105.19330596923828 195.20376586914062 105.73542022705078 195.7458953857422 106.35014343261719 196.0 C 110.11509704589844 196.0 113.8792495727539 196.0 117.64420318603516 196.0 C 118.25892639160156 195.7458953857422 118.80104064941406 195.20376586914062 119.05596160888672 194.58905029296875 C 119.05596160888672 192.18905639648438 119.05596160888672 189.78988647460938 119.05596160888672 187.389892578125 C 120.66455841064453 186.8623046875 121.97225189208984 186.31292724609375 123.08633422851562 184.96328735351562 C 126.7068862915039 180.57635498046875 123.86481475830078 175.13180541992188 119.05596160888672 173.5562744140625 C 119.05596160888672 171.62661743164062 119.05596160888672 169.69692993164062 119.05596160888672 167.76727294921875 C 135.5259246826172 167.76727294921875 151.99671936035156 167.76727294921875 168.4674835205078 167.76727294921875 C 169.08221435546875 167.51235961914062 169.62432861328125 166.97103881835938 169.87844848632812 166.3563232421875 C 169.87844848632812 161.65072631835938 169.87844848632812 156.9451446533203 169.87844848632812 152.23873901367188 C 169.75985717773438 151.92654418945312 169.64126586914062 151.613525390625 169.52188110351562 151.30052185058594 C 167.38487243652344 148.89569091796875 165.2470703125 146.49005126953125 163.1092529296875 144.08523559570312 C 152.92120361328125 132.34747314453125 146.92245483398438 117.94269561767578 145.77044677734375 102.4424057006836 C 145.33563232421875 95.48284149169922 144.90162658691406 88.52326965332031 144.466796875 81.56371307373047 C 144.33045959472656 81.26038360595703 144.1933135986328 80.95706176757812 144.05699157714844 80.65373229980469 C 139.5909881591797 76.18773651123047 135.125 71.72093963623047 130.65818786621094 67.25494384765625 C 131.64642333984375 65.27767944335938 132.6346435546875 63.301212310791016 133.6228790283203 61.323944091796875 C 134.9886474609375 57.89458465576172 134.6006317138672 54.96377182006836 132.3910369873047 52.00472640991211 C 134.70550537109375 52.00472640991211 137.01918029785156 52.00472640991211 139.3328399658203 52.00472640991211 C 145.79385375976562 65.85044860839844 152.25485229492188 79.69615936279297 158.7158660888672 93.5418701171875 C 159.14181518554688 93.8137435913086 159.56857299804688 94.08560180664062 159.99452209472656 94.35746765136719 C 171.28858947753906 94.35746765136719 182.5826416015625 94.35746765136719 193.8759002685547 94.35746765136719 C 194.49063110351562 94.10334777832031 195.03274536132812 93.56123352050781 195.286865234375 92.94651794433594 C 195.286865234375 87.29948425292969 195.286865234375 81.65164184570312 195.286865234375 76.0046157836914 C 195.03274536132812 75.389892578125 194.49063110351562 74.8477783203125 193.8759002685547 74.59365844726562 C 186.647705078125 74.59204864501953 179.418701171875 74.59123992919922 172.19049072265625 74.59043884277344 C 165.7294921875 60.744720458984375 159.26846313476562 46.89820098876953 152.80746459960938 33.05248260498047 C 152.38070678710938 32.780616760253906 151.9547576904297 32.508750915527344 151.52801513671875 32.23689270019531 C 141.6457061767578 32.23689270019531 131.76258850097656 32.23689270019531 121.88028717041016 32.23689270019531 C 121.88028717041016 30.824325561523438 121.88028717041016 29.412567138671875 121.88028717041016 28.00000762939453 C 120.93965148925781 28.00000762939453 119.99901580810547 28.00000762939453 119.05838012695312 28.00000762939453 C 119.05838012695312 29.412567138671875 119.05838012695312 30.824325561523438 119.05838012695312 32.23689270019531 C 117.17549896240234 32.23689270019531 115.29342651367188 32.23689270019531 113.4113540649414 32.23689270019531 C 113.4113540649414 30.824325561523438 113.4113540649414 29.412567138671875 113.4113540649414 28.00000762939453 C 112.47071838378906 28.00000762939453 111.53008270263672 28.00000762939453 110.58944702148438 28.00000762939453 C 110.58944702148438 29.412567138671875 110.58944702148438 30.824325561523438 110.58944702148438 32.23689270019531 C 108.7065658569336 32.23689270019531 106.82449340820312 32.23689270019531 104.94161224365234 32.23689270019531 C 104.94161224365234 30.824325561523438 104.94161224365234 29.412567138671875 104.94161224365234 28.00000762939453 C 104.0009765625 28.00000762939453 103.06034088134766 28.00000762939453 102.11970520019531 28.00000762939453" stroke-width="0.0" fill="rgb(55, 87, 81)" opacity="1.0"/>
    <path d="M 59.28455352783203 100.41754150390625 C 59.28455352783203 100.41754150390625 59.28455352783203 100.41754150390625 59.28455352783203 100.41754150390625 C 57.108829498291016 102.72152709960938 55.248538970947266 105.19734954833984 53.890830993652344 108.07572174072266 C 49.254615783691406 117.9072036743164 51.13104248046875 129.14559936523438 57.86069107055664 137.46771240234375 C 58.31003189086914 137.99208068847656 58.75938034057617 138.5172576904297 59.208717346191406 139.0424346923828 C 59.9234733581543 138.4301300048828 60.63822555541992 137.8178253173828 61.35298156738281 137.2063446044922 C 60.90363693237305 136.68116760253906 60.45429229736328 136.15599060058594 60.00495147705078 135.6308135986328 C 51.900657653808594 125.55570983886719 52.422603607177734 111.8398666381836 61.28037643432617 102.41738891601562 C 60.615638732910156 101.75104522705078 59.95009231567383 101.0838851928711 59.28455352783203 100.41754150390625" stroke-width="0.0" fill="rgb(232, 231, 223)" opacity="1.0"/>
    <path d="M 111.99717712402344 50.589744567871094 C 111.99717712402344 50.589744567871094 111.99717712402344 50.589744567871094 111.99717712402344 50.589744567871094 C 108.60895538330078 51.045536041259766 106.80513763427734 52.849361419677734 106.35014343261719 56.23758316040039 C 106.35014343261719 60.002540588378906 106.35014343261719 63.76668930053711 106.35014343261719 67.53164672851562 C 110.11509704589844 67.53164672851562 113.8792495727539 67.53164672851562 117.64420318603516 67.53164672851562 C 117.64420318603516 63.76668930053711 117.64420318603516 60.002540588378906 117.64420318603516 56.23758316040039 C 117.18921661376953 52.849361419677734 115.38539123535156 51.045536041259766 111.99717712402344 50.589744567871094 C 111.99717712402344 50.589744567871094 111.99717712402344 50.589744567871094 111.99717712402344 50.589744567871094" stroke-width="0.0" fill="rgb(54, 86, 80)" opacity="1.0"/>
    <path d="M 95.06172180175781 67.53486633300781 C 90.3553237915039 72.24046325683594 85.64973449707031 76.94605255126953 80.94414520263672 81.65164184570312 C 80.5101318359375 88.61201477050781 80.07530975341797 95.57157897949219 79.64048767089844 102.53114318847656 C 78.47396850585938 118.36703491210938 72.36388397216797 133.03883361816406 61.94833755493164 145.02345275878906 C 59.81053161621094 147.4282684326172 57.67353057861328 149.8339080810547 55.53573226928711 152.23873901367188 C 55.53573226928711 156.9451446533203 55.53573226928711 161.65072631835938 55.53573226928711 166.3563232421875 C 93.17964935302734 166.3563232421875 130.82357788085938 166.3563232421875 168.4674835205078 166.3563232421875 C 168.4674835205078 161.65072631835938 168.4674835205078 156.9451446533203 168.4674835205078 152.23873901367188 C 166.32968139648438 149.8339080810547 164.19268798828125 147.4282684326172 162.0548858642578 145.02345275878906 C 151.63934326171875 133.03883361816406 145.5292510986328 118.36703491210938 144.36273193359375 102.53114318847656 C 143.92791748046875 95.57157897949219 143.4930877685547 88.61201477050781 143.05908203125 81.65164184570312 C 138.35348510742188 76.94605255126953 133.6479034423828 72.24046325683594 128.9423065185547 67.53486633300781 C 117.64823913574219 67.53486633300781 106.35498046875 67.53486633300781 95.06172180175781 67.53486633300781" stroke-width="0.0" fill="rgb(54, 86, 80)" opacity="1.0"/>
    <path d="M 72.46795654296875 33.65106964111328 C 65.88028717041016 47.768646240234375 59.29261779785156 61.88703536987305 52.704952239990234 76.0046157836914 C 45.17504119873047 76.0046157836914 37.64512634277344 76.0046157836914 30.115211486816406 76.0046157836914 C 30.115211486816406 81.65084075927734 30.115211486816406 87.29706573486328 30.115211486816406 92.94329071044922 C 41.409278869628906 92.94329071044922 52.70414733886719 92.94329071044922 63.99901580810547 92.94329071044922 C 70.58668518066406 78.82571411132812 77.17515563964844 64.7081298828125 83.76362609863281 50.589744567871094 C 102.58679962158203 50.589744567871094 121.40996551513672 50.589744567871094 140.23394775390625 50.589744567871094 C 146.82162475585938 64.7081298828125 153.4100799560547 78.82571411132812 159.99774169921875 92.94329071044922 C 171.29180908203125 92.94329071044922 182.58506774902344 92.94329071044922 193.87832641601562 92.94329071044922 C 193.87832641601562 87.29706573486328 193.87832641601562 81.65084075927734 193.87832641601562 76.0046157836914 C 186.35003662109375 76.0046157836914 178.82171630859375 76.0046157836914 171.29263305664062 76.0046157836914 C 164.7049560546875 61.88703536987305 158.11648559570312 47.768646240234375 151.52801513671875 33.65106964111328 C 125.1749267578125 33.65106964111328 98.82183837890625 33.65106964111328 72.46795654296875 33.65106964111328" stroke-width="0.0" fill="rgb(54, 86, 80)" opacity="1.0"/>
    <path d="M 97.88362884521484 50.58651351928711 C 97.88201141357422 50.58812713623047 97.88121032714844 50.58893966674805 97.88040161132812 50.589744567871094 C 94.1251220703125 51.02940368652344 90.89421081542969 53.418907165527344 90.89179229736328 57.54527282714844 C 90.8909912109375 59.00865936279297 91.14268493652344 59.324893951416016 91.63801574707031 60.690670013427734 C 92.77790832519531 62.96965408325195 93.91779327392578 65.24943542480469 95.05769348144531 67.5284194946289 C 98.82264709472656 67.5284194946289 102.58840942382812 67.5284194946289 106.3533706665039 67.5284194946289 C 103.52985382080078 61.881385803222656 100.70633697509766 56.23435592651367 97.88362884521484 50.58651351928711" stroke-width="0.0" fill="rgb(54, 86, 80)" opacity="1.0"/>
    <path d="M 100.16664123535156 52.001502990722656 C 102.2326431274414 52.001502990722656 104.29866027832031 52.001502990722656 106.36466217041016 52.001502990722656 C 105.48049926757812 53.469730377197266 105.13118743896484 54.53217697143555 104.94161224365234 56.23758316040039 C 104.94161224365234 58.008331298828125 104.94161224365234 59.77907943725586 104.94161224365234 61.55063247680664 C 103.3499526977539 58.3673210144043 101.75830078125 55.18400955200195 100.16664123535156 52.001502990722656" stroke-width="0.0" fill="rgb(254, 254, 254)" opacity="1.0"/>
    <path d="M 117.6321029663086 51.99827575683594 C 119.69811248779297 51.99827575683594 121.76412200927734 51.99827575683594 123.83012390136719 51.99827575683594 C 122.23847198486328 55.18077850341797 120.64681243896484 58.36409378051758 119.05596160888672 61.54740524291992 C 119.05596160888672 59.775848388671875 119.05596160888672 58.005104064941406 119.05596160888672 56.23435592651367 C 118.8655776977539 54.52975845336914 118.51546478271484 53.46650314331055 117.6321029663086 51.99827575683594 C 117.6321029663086 51.99827575683594 117.6321029663086 51.99827575683594 117.6321029663086 51.99827575683594" stroke-width="0.0" fill="rgb(254, 254, 254)" opacity="1.0"/>
    <path d="M 59.287776947021484 100.41512298583984 C 59.95332336425781 101.08065795898438 60.618865966796875 101.74539947509766 61.283599853515625 102.41094207763672 C 52.428245544433594 111.83663940429688 51.903072357177734 125.54763793945312 60.0081787109375 135.6251678466797 C 60.45751953125 136.1495361328125 60.906864166259766 136.67471313476562 61.356204986572266 137.1998748779297 C 60.64145278930664 137.81137084960938 59.926700592041016 138.42367553710938 59.21194839477539 139.03598022460938 C 58.76260757446289 138.51161193847656 58.31325912475586 137.98805236816406 57.863922119140625 137.4644775390625 C 51.134273529052734 129.1423797607422 49.25784683227539 117.90397644042969 53.8940544128418 108.07329559326172 C 55.25176239013672 105.19412231445312 57.112056732177734 102.71910858154297 59.287776947021484 100.41512298583984 C 59.287776947021484 100.41512298583984 59.287776947021484 100.41512298583984 59.287776947021484 100.41512298583984" stroke-width="0.0" fill="rgb(54, 86, 80)" opacity="1.0"/>
    <path d="M 43.47528076171875 106.37355041503906 C 43.47528076171875 106.37355041503906 43.47528076171875 106.37355041503906 43.47528076171875 106.37355041503906 C 38.972984313964844 114.98849487304688 38.9971923828125 124.58441162109375 43.547889709472656 133.1743621826172 C 44.36590576171875 132.70968627929688 45.18391418457031 132.2442169189453 46.001930236816406 131.77874755859375 C 41.93525695800781 124.03423309326172 41.917510986328125 115.52334594726562 45.939002990722656 107.75626373291016 C 45.117759704589844 107.29562377929688 44.29651641845703 106.83418273925781 43.47528076171875 106.37355041503906" stroke-width="0.0" fill="rgb(55, 86, 80)" opacity="1.0"/>
    <path d="M 30.74445343017578 106.52520751953125 C 30.74445343017578 106.52520751953125 30.74445343017578 106.52520751953125 30.74445343017578 106.52520751953125 C 28.146011352539062 113.42668914794922 28.16053009033203 120.47740936279297 30.79528045654297 127.36598205566406 C 31.6649169921875 127.00456237792969 32.53376007080078 126.64396667480469 33.40339660644531 126.28336334228516 C 31.057456970214844 120.06356048583984 31.046165466308594 113.82682037353516 33.35902404785156 107.5957260131836 C 32.48777770996094 107.23915100097656 31.615707397460938 106.88177490234375 30.74445343017578 106.52520751953125" stroke-width="0.0" fill="rgb(54, 86, 80)" opacity="1.0"/>
    <path d="M 164.7097930908203 100.41512298583984 C 164.04425048828125 101.08065795898438 163.3787078857422 101.74539947509766 162.71316528320312 102.41094207763672 C 171.56851196289062 111.83663940429688 172.09368896484375 125.54763793945312 163.98858642578125 135.6251678466797 C 163.53924560546875 136.1495361328125 163.08990478515625 136.67471313476562 162.64056396484375 137.1998748779297 C 163.35531616210938 137.81298828125 164.070068359375 138.42608642578125 164.78482055664062 139.03921508789062 C 165.23416137695312 138.5140380859375 165.68350219726562 137.98886108398438 166.13284301757812 137.4644775390625 C 168.12625122070312 134.99996948242188 169.79132080078125 132.38941955566406 170.9239501953125 129.4150390625 C 174.79135131835938 119.25684356689453 172.05740356445312 108.1959228515625 164.7097930908203 100.41512298583984 C 164.7097930908203 100.41512298583984 164.7097930908203 100.41512298583984 164.7097930908203 100.41512298583984" stroke-width="0.0" fill="rgb(56, 87, 80)" opacity="1.0"/>
    <path d="M 180.521484375 106.37031555175781 C 179.70025634765625 106.83014678955078 178.87899780273438 107.28997802734375 178.05776977539062 107.74980163574219 C 182.07846069335938 115.51689910888672 182.06393432617188 124.031005859375 177.99484252929688 131.77549743652344 C 178.81285095214844 132.24098205566406 179.63087463378906 132.7064666748047 180.44888305664062 133.171142578125 C 185.00038146972656 124.58038330078125 185.0221710205078 114.98687744140625 180.521484375 106.37031555175781 C 180.521484375 106.37031555175781 180.521484375 106.37031555175781 180.521484375 106.37031555175781" stroke-width="0.0" fill="rgb(55, 86, 80)" opacity="1.0"/>
    <path d="M 193.2555389404297 109.35033416748047 C 192.38510131835938 109.70771026611328 191.51463317871094 110.06428527832031 190.64419555664062 110.42085266113281 C 192.95382690429688 116.65275573730469 192.94253540039062 122.8895034790039 190.59658813476562 129.10848999023438 C 191.4662322998047 129.46910095214844 192.33587646484375 129.83050537109375 193.20553588867188 130.1911163330078 C 195.84027099609375 123.3033447265625 195.85398864746094 116.25181579589844 193.2555389404297 109.35033416748047 C 193.2555389404297 109.35033416748047 193.2555389404297 109.35033416748047 193.2555389404297 109.35033416748047" stroke-width="0.0" fill="rgb(55, 86, 80)" opacity="1.0"/>
    <path d="M 112.00039672851562 52.001502990722656 C 112.00039672851562 52.001502990722656 112.00039672851562 52.001502990722656 112.00039672851562 52.001502990722656 C 114.5883560180664 52.420188903808594 115.81698608398438 53.649627685546875 116.23567199707031 56.23758316040039 C 116.23486328125 59.532222747802734 116.23406219482422 62.826053619384766 116.2332534790039 66.12069702148438 C 113.4105453491211 66.12069702148438 110.58702850341797 66.12069702148438 107.76432037353516 66.12069702148438 C 107.76432037353516 62.826053619384766 107.76432037353516 59.532222747802734 107.76432037353516 56.23758316040039 C 108.18219757080078 53.64882278442383 109.41163635253906 52.420188903808594 112.00039672851562 52.001502990722656 C 112.00039672851562 52.001502990722656 112.00039672851562 52.001502990722656 112.00039672851562 52.001502990722656" stroke-width="0.0" fill="rgb(47, 131, 115)" opacity="1.0"/>
    <path d="M 55.52685546875 152.23873901367188 C 93.17400360107422 152.23873901367188 130.82034301757812 152.23873901367188 168.4674835205078 152.23873901367188 C 168.4674835205078 156.9451446533203 168.4674835205078 161.65072631835938 168.4674835205078 166.3563232421875 C 130.82034301757812 166.3563232421875 93.17400360107422 166.3563232421875 55.52685546875 166.3563232421875 C 55.52685546875 161.65072631835938 55.52685546875 156.9451446533203 55.52685546875 152.23873901367188" stroke-width="0.0" fill="rgb(54, 86, 80)" opacity="1.0"/>
    <path d="M 95.05769348144531 67.53164672851562 C 90.3512954711914 72.23723602294922 85.6448974609375 76.94282531738281 80.93769073486328 81.64842224121094 C 101.64374542236328 81.64842224121094 122.34980010986328 81.64842224121094 143.05584716796875 81.64842224121094 C 138.35025024414062 76.94282531738281 133.6446533203125 72.23723602294922 128.93826293945312 67.53164672851562 C 117.64501190185547 67.53164672851562 106.35175323486328 67.53164672851562 95.05769348144531 67.53164672851562" stroke-width="0.0" fill="rgb(54, 86, 80)" opacity="1.0"/>
    <path d="M 82.2639389038086 83.05937194824219 C 102.08582305908203 83.05937194824219 121.90852355957031 83.05937194824219 141.73040771484375 83.05937194824219 C 142.13699340820312 89.5784683227539 142.5443878173828 96.0975570678711 142.9517822265625 102.6158447265625 C 144.14248657226562 118.74296569824219 150.3929443359375 133.75196838378906 160.99969482421875 145.95843505859375 C 162.43968200683594 147.57992553710938 163.8804931640625 149.2006378173828 165.3212890625 150.8213348388672 C 129.77081298828125 150.82293701171875 94.2203140258789 150.82374572753906 58.669830322265625 150.82455444335938 C 60.1114387512207 149.20306396484375 61.55304718017578 147.58074951171875 62.99384689331055 145.95843505859375 C 73.60139465332031 133.75196838378906 79.85104370117188 118.7437744140625 81.04175567626953 102.6158447265625 C 81.44915771484375 96.0975570678711 81.8565444946289 89.5784683227539 82.2639389038086 83.05937194824219" stroke-width="0.0" fill="rgb(64, 159, 141)" opacity="1.0"/>
    <path d="M 110.58621978759766 28.00322723388672 C 111.52685546875 28.00322723388672 112.46749114990234 28.00322723388672 113.40812683105469 28.00322723388672 C 113.40812683105469 35.53314208984375 113.40812683105469 43.06305694580078 113.40812683105469 50.59377670288086 C 112.46749114990234 50.59377670288086 111.52685546875 50.59377670288086 110.58621978759766 50.59377670288086 C 110.58621978759766 43.06305694580078 110.58621978759766 35.53314208984375 110.58621978759766 28.00322723388672" stroke-width="0.0" fill="rgb(53, 85, 80)" opacity="1.0"/>
    <path d="M 102.1164779663086 28.00322723388672 C 103.05711364746094 28.00322723388672 103.99774932861328 28.00322723388672 104.93838500976562 28.00322723388672 C 104.93838500976562 35.53314208984375 104.93838500976562 43.06305694580078 104.93838500976562 50.59377670288086 C 103.99774932861328 50.59377670288086 103.05711364746094 50.59377670288086 102.1164779663086 50.59377670288086 C 102.1164779663086 43.06305694580078 102.1164779663086 35.53314208984375 102.1164779663086 28.00322723388672" stroke-width="0.0" fill="rgb(53, 86, 79)" opacity="1.0"/>
    <path d="M 119.05596160888672 28.00322723388672 C 119.99659729003906 28.00322723388672 120.9372329711914 28.00322723388672 121.87786865234375 28.00322723388672 C 121.87786865234375 35.53314208984375 121.87786865234375 43.06305694580078 121.87786865234375 50.59377670288086 C 120.9372329711914 50.59377670288086 119.99659729003906 50.59377670288086 119.05596160888672 50.59377670288086 C 119.05596160888672 43.06305694580078 119.05596160888672 35.53314208984375 119.05596160888672 28.00322723388672" stroke-width="0.0" fill="rgb(53, 86, 80)" opacity="1.0"/>
    <path d="M 97.03899383544922 52.06119918823242 C 99.38170623779297 56.74581527709961 101.7236099243164 61.4304313659668 104.06632232666016 66.11505126953125 C 101.35413360595703 66.11505126953125 98.64274597167969 66.11505126953125 95.9305648803711 66.11505126953125 C 94.92054748535156 64.09502410888672 93.91053771972656 62.07500076293945 92.90052795410156 60.05497360229492 C 91.56137084960938 56.23435592651367 93.17400360107422 53.230133056640625 97.03899383544922 52.06119918823242 C 97.03899383544922 52.06119918823242 97.03899383544922 52.06119918823242 97.03899383544922 52.06119918823242" stroke-width="0.0" fill="rgb(64, 159, 141)" opacity="1.0"/>
    <path d="M 106.35014343261719 166.3563232421875 C 106.35014343261719 169.17901611328125 106.35014343261719 172.00253295898438 106.35014343261719 174.8252410888672 C 105.03761291503906 175.00192260742188 104.66329193115234 174.9188232421875 103.50000762939453 175.59646606445312 C 100.35218811035156 177.4309539794922 99.78345489501953 181.89291381835938 102.35688781738281 184.46633911132812 C 103.52420806884766 185.6336669921875 104.78268432617188 185.90957641601562 106.35014343261719 186.12094116210938 C 106.35014343261719 188.94363403320312 106.35014343261719 191.76634216308594 106.35014343261719 194.58905029296875 C 110.11509704589844 194.58905029296875 113.8792495727539 194.58905029296875 117.64420318603516 194.58905029296875 C 117.64420318603516 191.76634216308594 117.64420318603516 188.94363403320312 117.64420318603516 186.12094116210938 C 119.21166229248047 185.90957641601562 120.47013854980469 185.6336669921875 121.63745880126953 184.46633911132812 C 124.21009063720703 181.89291381835938 123.64134979248047 177.4309539794922 120.49433898925781 175.59646606445312 C 119.3310546875 174.9188232421875 118.95673370361328 175.00192260742188 117.64420318603516 174.8252410888672 C 117.64420318603516 172.00253295898438 117.64420318603516 169.17901611328125 117.64420318603516 166.3563232421875 C 113.8792495727539 166.3563232421875 110.11509704589844 166.3563232421875 106.35014343261719 166.3563232421875" stroke-width="0.0" fill="rgb(54, 85, 80)" opacity="1.0"/>
    <path d="M 56.937808990478516 153.64404296875 C 93.64431762695312 153.64564514160156 130.3500213623047 153.6480712890625 167.05654907226562 153.65049743652344 C 167.05654907226562 157.4154510498047 167.05654907226562 161.180419921875 167.05654907226562 164.9453582763672 C 130.350830078125 164.9453582763672 93.64593505859375 164.9453582763672 56.94022750854492 164.9453582763672 C 56.93941879272461 161.17799377441406 56.93861389160156 157.41061401367188 56.937808990478516 153.64404296875" stroke-width="0.0" fill="rgb(52, 147, 129)" opacity="1.0"/>
    <path d="M 126.11637115478516 50.589744567871094 C 123.29365539550781 56.23758316040039 120.47013854980469 61.884613037109375 117.64662170410156 67.53164672851562 C 121.41238403320312 67.53164672851562 125.17735290527344 67.53164672851562 128.9423065185547 67.53164672851562 C 130.0821990966797 65.25267028808594 131.2220916748047 62.972877502441406 132.3619842529297 60.69389724731445 C 132.8572998046875 59.328125 133.1090087890625 59.01108169555664 133.1082000732422 57.54689025878906 C 133.10577392578125 53.4205207824707 129.8748779296875 51.031822204589844 126.11959838867188 50.59377670288086 C 126.11959838867188 50.59377670288086 126.11959838867188 50.59377670288086 126.11959838867188 50.59377670288086 C 126.11959838867188 50.59377670288086 126.11637115478516 50.589744567871094 126.11637115478516 50.589744567871094" stroke-width="0.0" fill="rgb(54, 86, 80)" opacity="1.0"/>
    <path d="M 95.64337158203125 68.94259643554688 C 106.54779052734375 68.94259643554688 117.45220947265625 68.94259643554688 128.35662841796875 68.94259643554688 C 132.1207733154297 72.70755004882812 135.8841094970703 76.4725112915039 139.6482696533203 80.23747253417969 C 121.2155532836914 80.23747253417969 102.78202056884766 80.23747253417969 84.34930419921875 80.23747253417969 C 88.1142578125 76.4725112915039 91.87841033935547 72.70755004882812 95.64337158203125 68.94259643554688" stroke-width="0.0" fill="rgb(52, 147, 129)" opacity="1.0"/>
    <path d="M 111.99717712402344 94.35424041748047 C 111.99717712402344 94.35424041748047 111.99717712402344 94.35424041748047 111.99717712402344 94.35424041748047 C 108.23060607910156 94.48170471191406 104.64312744140625 95.19242095947266 101.25248718261719 96.89620971679688 C 86.8590087890625 104.1284408569336 83.63374328613281 123.91887664794922 95.03349304199219 135.318603515625 C 97.21727752685547 137.50160217285156 99.81975555419922 139.26266479492188 102.66343688964844 140.46629333496094 C 105.60957336425781 141.7142791748047 108.79772186279297 142.35562133789062 111.99717712402344 142.35562133789062 C 115.19580841064453 142.35562133789062 118.38477325439453 141.7142791748047 121.3309097290039 140.46629333496094 C 124.17459869384766 139.26266479492188 126.7770767211914 137.50160217285156 128.96005249023438 135.318603515625 C 140.3597869873047 123.91887664794922 137.134521484375 104.1284408569336 122.74185943603516 96.89620971679688 C 119.3512191772461 95.19242095947266 115.76374053955078 94.48170471191406 111.99717712402344 94.35424041748047 C 111.99717712402344 94.35424041748047 111.99717712402344 94.35424041748047 111.99717712402344 94.35424041748047" stroke-width="0.0" fill="rgb(54, 86, 80)" opacity="1.0"/>
    <path d="M 104.93838500976562 35.06201934814453 C 106.8212661743164 35.06201934814453 108.70333862304688 35.06201934814453 110.58621978759766 35.06201934814453 C 110.58621978759766 39.76761245727539 110.58621978759766 44.473201751708984 110.58621978759766 49.178794860839844 C 108.70333862304688 49.178794860839844 106.8212661743164 49.178794860839844 104.93838500976562 49.178794860839844 C 104.93838500976562 44.473201751708984 104.93838500976562 39.76761245727539 104.93838500976562 35.06201934814453" stroke-width="0.0" fill="rgb(190, 189, 190)" opacity="1.0"/>
    <path d="M 73.36663818359375 35.06201934814453 C 82.94883728027344 35.06201934814453 92.53105163574219 35.06201934814453 102.1132583618164 35.06201934814453 C 102.1132583618164 39.76761245727539 102.1132583618164 44.473201751708984 102.1132583618164 49.178794860839844 C 95.99591064453125 49.178794860839844 89.87775421142578 49.178794860839844 83.76040649414062 49.178794860839844 C 83.33445739746094 49.45065689086914 82.90931701660156 49.72251892089844 82.48417663574219 49.994388580322266 C 76.02316284179688 63.8400993347168 69.56214904785156 77.6866226196289 63.101139068603516 91.53234100341797 C 52.57748794555664 91.53234100341797 42.05303955078125 91.53234100341797 31.529388427734375 91.53234100341797 C 31.529388427734375 86.82674407958984 31.529388427734375 82.12115478515625 31.529388427734375 77.41556549072266 C 38.58818054199219 77.41556549072266 45.64616394042969 77.41556549072266 52.704952239990234 77.41556549072266 C 53.13090133666992 77.1436996459961 53.556846618652344 76.87184143066406 53.98279571533203 76.59916687011719 C 60.443809509277344 62.75345230102539 66.90562438964844 48.907737731933594 73.36663818359375 35.06201934814453" stroke-width="0.0" fill="rgb(189, 189, 189)" opacity="1.0"/>
    <path d="M 113.4113540649414 35.06201934814453 C 115.29342651367188 35.06201934814453 117.17549896240234 35.06201934814453 119.05838012695312 35.06201934814453 C 119.05757904052734 39.76761245727539 119.05677032470703 44.473201751708984 119.05596160888672 49.178794860839844 C 117.17308044433594 49.178794860839844 115.29100799560547 49.178794860839844 113.40812683105469 49.178794860839844 C 113.408935546875 44.473201751708984 113.4105453491211 39.76761245727539 113.4113540649414 35.06201934814453" stroke-width="0.0" fill="rgb(190, 189, 190)" opacity="1.0"/>
    <path d="M 121.88028717041016 35.06201934814453 C 131.46249389648438 35.06201934814453 141.04550170898438 35.06201934814453 150.62771606445312 35.06201934814453 C 157.08871459960938 48.907737731933594 163.5497283935547 62.75345230102539 170.0107421875 76.59916687011719 C 170.4366912841797 76.87184143066406 170.86343383789062 77.1436996459961 171.28939819335938 77.41556549072266 C 178.34817504882812 77.41556549072266 185.40696716308594 77.41556549072266 192.4649658203125 77.41556549072266 C 192.4649658203125 82.12115478515625 192.4649658203125 86.82674407958984 192.4649658203125 91.53234100341797 C 181.94210815429688 91.53153228759766 171.41847229003906 91.52992248535156 160.8956298828125 91.52911376953125 C 154.4346160888672 77.68339538574219 147.97360229492188 63.83687210083008 141.51258850097656 49.99116134643555 C 141.08584594726562 49.71929168701172 140.65989685058594 49.44742965698242 140.23394775390625 49.175567626953125 C 134.1157989501953 49.175567626953125 127.99762725830078 49.175567626953125 121.88028717041016 49.175567626953125 C 121.88028717041016 44.471588134765625 121.88028717041016 39.76680374145508 121.88028717041016 35.06201934814453" stroke-width="0.0" fill="rgb(189, 189, 189)" opacity="1.0"/>
    <path d="M 107.76432037353516 167.7640380859375 C 110.58702850341797 167.7640380859375 113.4105453491211 167.7640380859375 116.2332534790039 167.7640380859375 C 116.2332534790039 170.11642456054688 116.2332534790039 172.46963500976562 116.2332534790039 174.822021484375 C 116.90847778320312 176.4508056640625 117.4465560913086 175.9473876953125 118.9809341430664 176.44998168945312 C 120.693603515625 177.0098419189453 121.88028717041016 178.6732940673828 121.88028717041016 180.46986389160156 C 121.88028717041016 182.265625 120.693603515625 183.9290771484375 118.98255157470703 184.48974609375 C 117.44817352294922 184.99234008789062 116.9068603515625 184.48892211914062 116.2332534790039 186.11770629882812 C 116.2332534790039 188.4700927734375 116.2332534790039 190.82330322265625 116.2332534790039 193.17568969726562 C 113.4105453491211 193.17568969726562 110.58702850341797 193.17568969726562 107.76432037353516 193.17568969726562 C 107.76432037353516 190.82330322265625 107.76432037353516 188.4700927734375 107.76432037353516 186.11770629882812 C 107.08909606933594 184.48892211914062 106.55101776123047 184.99234008789062 105.01583099365234 184.48974609375 C 103.30397033691406 183.92987060546875 102.1164779663086 182.2664337158203 102.1164779663086 180.46986389160156 C 102.1164779663086 178.67410278320312 103.30316162109375 177.01065063476562 105.01502227783203 176.44998168945312 C 106.54940032958984 175.9473876953125 107.08990478515625 176.4508056640625 107.76432037353516 174.822021484375 C 107.76432037353516 172.46963500976562 107.76432037353516 170.11642456054688 107.76432037353516 167.7640380859375" stroke-width="0.0" fill="rgb(233, 183, 75)" opacity="1.0"/>
    <path d="M 126.95454406738281 52.06442642211914 C 126.95454406738281 52.06442642211914 126.95454406738281 52.06442642211914 126.95454406738281 52.06442642211914 C 130.82196044921875 53.22852325439453 132.4313507080078 56.243228912353516 131.093017578125 60.06142807006836 C 130.0830078125 62.07984161376953 129.072998046875 64.09825134277344 128.06298828125 66.11746215820312 C 125.35159301757812 66.11746215820312 122.63941192626953 66.11746215820312 119.92802429199219 66.11746215820312 C 122.26993560791016 61.4328498840332 124.61264038085938 56.748233795166016 126.95454406738281 52.06442642211914" stroke-width="0.0" fill="rgb(64, 159, 141)" opacity="1.0"/>
    <path d="M 111.99717712402344 95.76841735839844 C 111.99717712402344 95.76841735839844 111.99717712402344 95.76841735839844 111.99717712402344 95.76841735839844 C 108.12895965576172 95.91120910644531 104.46806335449219 96.69856262207031 101.0556411743164 98.59112548828125 C 87.56568908691406 106.07022094726562 85.5359878540039 125.2798080444336 97.17694091796875 135.40655517578125 C 99.17356872558594 137.14341735839844 101.47433471679688 138.52854919433594 103.94773864746094 139.4716033935547 C 106.51309967041016 140.4493408203125 109.25190734863281 140.94708251953125 111.99717712402344 140.94790649414062 C 114.74243927001953 140.94790649414062 117.48043823242188 140.4493408203125 120.04580688476562 139.4716033935547 C 122.51921081542969 138.52854919433594 124.8199691772461 137.14341735839844 126.81739807128906 135.40655517578125 C 138.45755004882812 125.2798080444336 136.42864990234375 106.07022094726562 122.9386978149414 98.59112548828125 C 119.52628326416016 96.69856262207031 115.86538696289062 95.91120910644531 111.99717712402344 95.76841735839844 C 111.99717712402344 95.76841735839844 111.99717712402344 95.76841735839844 111.99717712402344 95.76841735839844" stroke-width="0.0" fill="rgb(54, 86, 80)" opacity="1.0"/>
    <path d="M 111.99717712402344 97.18017578125 C 111.99717712402344 97.18017578125 111.99717712402344 97.18017578125 111.99717712402344 97.18017578125 C 115.79278564453125 97.3261947631836 119.36978149414062 98.1369400024414 122.67571258544922 100.07548522949219 C 134.73294067382812 107.14315032958984 136.64646911621094 124.33433532714844 126.40516662597656 133.8584442138672 C 124.50373840332031 135.62759399414062 122.27799224853516 137.04580688476562 119.86752319335938 138.0130615234375 C 117.3707275390625 139.01580810546875 114.68758392333984 139.52967834472656 111.99717712402344 139.52967834472656 C 109.30596160888672 139.52967834472656 106.62361907958984 139.01580810546875 104.12601470947266 138.0130615234375 C 101.71553802490234 137.04580688476562 99.49061584472656 135.62759399414062 97.58837127685547 133.8584442138672 C 87.34707641601562 124.33433532714844 89.26061248779297 107.14315032958984 101.31783294677734 100.0746841430664 C 104.62376403808594 98.1369400024414 108.20075225830078 97.3261947631836 111.99717712402344 97.18017578125 C 111.99717712402344 97.18017578125 111.99717712402344 97.18017578125 111.99717712402344 97.18017578125" stroke-width="0.0" fill="rgb(243, 243, 243)" opacity="1.0"/>
    <path d="M 108.93890380859375 100.25700378417969 C 108.93890380859375 100.25700378417969 108.93890380859375 100.25700378417969 108.93890380859375 100.25700378417969 C 100.82331085205078 101.99386596679688 94.47443389892578 108.18624114990234 93.71854400634766 116.68502807617188 C 93.45635223388672 119.62793731689453 93.89924621582031 122.61924743652344 95.02542114257812 125.35160064697266 C 95.77405548095703 127.1683349609375 96.40571594238281 129.04798889160156 98.5257797241211 128.17189025878906 C 102.40770721435547 124.290771484375 106.28882598876953 120.4096450805664 110.16996002197266 116.52851867675781 C 110.30790710449219 116.19534301757812 110.4450454711914 115.86298370361328 110.58300018310547 115.52980041503906 C 110.58380126953125 110.90327453613281 110.58541870117188 106.27593231201172 110.58621978759766 101.64939880371094 C 110.41922760009766 101.29041290283203 110.38777160644531 100.82735443115234 110.08525085449219 100.57243347167969 C 109.78273010253906 100.3158950805664 109.3212890625 100.36187744140625 108.93890380859375 100.25700378417969 C 108.93890380859375 100.25700378417969 108.93890380859375 100.25700378417969 108.93890380859375 100.25700378417969" stroke-width="0.0" fill="rgb(54, 86, 80)" opacity="1.0"/>
    <path d="M 115.04898834228516 100.25700378417969 C 115.04979705810547 100.25700378417969 115.0514144897461 100.25700378417969 115.0522232055664 100.25700378417969 C 114.66983032226562 100.36187744140625 114.20838928222656 100.3158950805664 113.90586853027344 100.57243347167969 C 113.60334777832031 100.82735443115234 113.57188415527344 101.29041290283203 113.40489959716797 101.64939880371094 C 113.40570831298828 106.27754211425781 113.40731811523438 110.9048843383789 113.40812683105469 115.53302764892578 C 113.5452651977539 115.86620330810547 113.68321228027344 116.19857025146484 113.82035827636719 116.53174591064453 C 117.70148468017578 120.41287231445312 121.58341979980469 124.29399871826172 125.46534729003906 128.17510986328125 C 127.58379364013672 129.05203247070312 128.21705627441406 127.17155456542969 128.9648895263672 125.35563659667969 C 130.091064453125 122.62247467041016 130.53396606445312 119.63035583496094 130.2717742919922 116.68744659423828 C 129.515869140625 108.18704223632812 123.16539001464844 101.99386596679688 115.04898834228516 100.25700378417969 C 115.04898834228516 100.25700378417969 115.04898834228516 100.25700378417969 115.04898834228516 100.25700378417969" stroke-width="0.0" fill="rgb(54, 86, 80)" opacity="1.0"/>
    <path d="M 109.71334838867188 122.69831085205078 C 109.71334838867188 122.69831085205078 109.71334838867188 122.69831085205078 109.71334838867188 122.69831085205078 C 109.1938247680664 122.6474838256836 108.63719177246094 122.7572021484375 108.17575073242188 123.0040512084961 C 105.62248229980469 125.55731964111328 103.0692138671875 128.11058044433594 100.51595306396484 130.66384887695312 C 100.12711334228516 131.68353271484375 99.764892578125 131.82472229003906 100.63937377929688 132.7718048095703 C 100.98626708984375 133.14694213867188 101.45578002929688 133.3881378173828 101.88253021240234 133.669677734375 C 103.58229064941406 134.79344177246094 105.47081756591797 135.63323974609375 107.44567108154297 136.13743591308594 C 108.07168579101562 136.2971649169922 109.43180847167969 136.79249572753906 110.0884780883789 136.13743591308594 C 110.36921691894531 135.85830688476562 110.42245483398438 135.41944885253906 110.58944702148438 135.0604705810547 C 110.58863830566406 131.37457275390625 110.58702850341797 127.68785858154297 110.58621978759766 124.00196838378906 C 110.43455505371094 123.50180053710938 110.11832427978516 123.02986907958984 109.71334838867188 122.69831085205078 C 109.71334838867188 122.69831085205078 109.71334838867188 122.69831085205078 109.71334838867188 122.69831085205078" stroke-width="0.0" fill="rgb(55, 86, 80)" opacity="1.0"/>
    <path d="M 114.28421783447266 122.69831085205078 C 114.28421783447266 122.69831085205078 114.28421783447266 122.69831085205078 114.28421783447266 122.69831085205078 C 113.8792495727539 123.02906036376953 113.56301879882812 123.50180053710938 113.4113540649414 124.00196838378906 C 113.4113540649414 127.68785858154297 113.4113540649414 131.37457275390625 113.4113540649414 135.0604705810547 C 113.57833862304688 135.41944885253906 113.63158416748047 135.85830688476562 113.91232299804688 136.13743591308594 C 114.5689926147461 136.7932891845703 115.9275131225586 136.29635620117188 116.55352783203125 136.13662719726562 C 118.52837371826172 135.6308135986328 120.4168930053711 134.79263305664062 122.11746215820312 133.669677734375 C 122.5442123413086 133.3873291015625 123.01372528076172 133.14694213867188 123.36061096191406 132.7718048095703 C 124.23509979248047 131.82472229003906 123.87287902832031 131.68353271484375 123.48403930664062 130.66384887695312 C 120.93077850341797 128.11058044433594 118.37751007080078 125.55731964111328 115.8242416381836 123.0040512084961 C 115.36199951171875 122.75800323486328 114.80455017089844 122.64667510986328 114.28421783447266 122.69831085205078 C 114.28421783447266 122.69831085205078 114.28421783447266 122.69831085205078 114.28421783447266 122.69831085205078" stroke-width="0.0" fill="rgb(55, 86, 80)" opacity="1.0"/>
    <path d="M 109.17204284667969 101.65262603759766 C 109.17204284667969 106.27996063232422 109.17204284667969 110.90811157226562 109.17204284667969 115.53544616699219 C 105.29011535644531 119.4173812866211 101.40898895263672 123.29850769042969 97.52705383300781 127.18043518066406 C 96.27018737792969 124.89903259277344 95.36988830566406 122.57568359375 95.12625885009766 119.9578857421875 C 94.28565979003906 110.92424774169922 100.5853271484375 103.51695251464844 109.17204284667969 101.65262603759766 C 109.17204284667969 101.65262603759766 109.17204284667969 101.65262603759766 109.17204284667969 101.65262603759766" stroke-width="0.0" fill="rgb(54, 86, 80)" opacity="1.0"/>
    <path d="M 114.81584930419922 101.64939880371094 C 114.81584930419922 101.64939880371094 114.81584930419922 101.64939880371094 114.81584930419922 101.64939880371094 C 117.4465560913086 102.2205581665039 119.8505859375 103.09906768798828 122.03759765625 104.71170043945312 C 129.2432098388672 110.02233123779297 130.6573944091797 119.564208984375 126.4632568359375 127.17398071289062 C 122.5821304321289 123.29367065429688 118.70100402832031 119.41334533691406 114.81907653808594 115.53302764892578 C 114.81826782226562 110.9048843383789 114.81746673583984 106.27754211425781 114.81584930419922 101.64939880371094" stroke-width="0.0" fill="rgb(54, 86, 80)" opacity="1.0"/>
    <path d="M 109.17204284667969 124.00518798828125 C 109.1728515625 127.69270324707031 109.17366027832031 131.37940979003906 109.1752700805664 135.06690979003906 C 106.2968978881836 134.45785522460938 103.89449310302734 133.39378356933594 101.51224517822266 131.668212890625 C 104.06551361083984 129.1141357421875 106.61878204345703 126.55926513671875 109.17204284667969 124.00518798828125" stroke-width="0.0" fill="rgb(54, 86, 80)" opacity="1.0"/>
    <path d="M 114.81907653808594 124.00518798828125 C 117.37234497070312 126.55845642089844 119.92561340332031 129.11170959472656 122.47967529296875 131.6649932861328 C 120.0982437133789 133.391357421875 117.69664764404297 134.45462036132812 114.81907653808594 135.06369018554688 C 114.81907653808594 131.37779235839844 114.81907653808594 127.69109344482422 114.81907653808594 124.00518798828125" stroke-width="0.0" fill="rgb(54, 86, 80)" opacity="1.0"/>
    <path d="M 107.76432037353516 103.40724182128906 C 107.76432037353516 107.25367736816406 107.76432037353516 111.10010528564453 107.76432037353516 114.94735717773438 C 104.46968078613281 118.24198913574219 101.17504119873047 121.53663635253906 97.88040161132812 124.8304672241211 C 95.21338653564453 118.28797149658203 96.60175323486328 110.75806427001953 102.27782440185547 106.2194595336914 C 103.93966674804688 104.89079284667969 105.76446533203125 104.07843017578125 107.76432037353516 103.40724182128906 C 107.76432037353516 103.40724182128906 107.76432037353516 103.40724182128906 107.76432037353516 103.40724182128906" stroke-width="0.0" fill="rgb(64, 159, 141)" opacity="1.0"/>
    <path d="M 116.23002624511719 103.40724182128906 C 116.23002624511719 103.40724182128906 116.23002624511719 103.40724182128906 116.23002624511719 103.40724182128906 C 118.2298812866211 104.07762145996094 120.05467987060547 104.8891830444336 121.71652221679688 106.21784973144531 C 127.39582824707031 110.7564468383789 128.78175354003906 118.28555297851562 126.11637115478516 124.8304672241211 C 122.8225326538086 121.53663635253906 119.52789306640625 118.24198913574219 116.2332534790039 114.94735717773438 C 116.2324447631836 111.10010528564453 116.23164367675781 107.25367736816406 116.23002624511719 103.40724182128906" stroke-width="0.0" fill="rgb(64, 159, 141)" opacity="1.0"/>
    <path d="M 107.76109313964844 127.41035461425781 C 107.76109313964844 129.3739013671875 107.76109313964844 131.33665466308594 107.76109313964844 133.30020141601562 C 106.30012512207031 132.8089141845703 105.03115844726562 132.24098205566406 103.69120025634766 131.4794464111328 C 105.048095703125 130.12335205078125 106.40419006347656 128.76644897460938 107.76109313964844 127.41035461425781" stroke-width="0.0" fill="rgb(65, 159, 141)" opacity="1.0"/>
    <path d="M 116.2332534790039 127.41035461425781 C 117.59015655517578 128.76644897460938 118.94625091552734 130.12335205078125 120.3023452758789 131.4794464111328 C 118.96319580078125 132.24098205566406 117.69341278076172 132.8089141845703 116.2332534790039 133.30020141601562 C 116.2332534790039 131.33665466308594 116.2332534790039 129.3739013671875 116.2332534790039 127.41035461425781" stroke-width="0.0" fill="rgb(65, 159, 141)" opacity="1.0"/>
  </g>
</svg>
