<?xml version="1.0" ?>
<svg xmlns="http://www.w3.org/2000/svg" version="1.1" width="224" height="224">
  <defs/>
  <g>
    <path d="M 68.27304077148438 99.30122375488281 C 68.27304077148438 99.30122375488281 68.27304077148438 99.30122375488281 68.27304077148438 99.30122375488281 C 62.4036865234375 99.43280792236328 56.73921203613281 100.68640899658203 51.5246467590332 103.44656372070312 C 36.40727996826172 111.44805908203125 28.93212127685547 129.6068572998047 34.07105255126953 145.93212890625 C 35.59571075439453 150.77716064453125 38.162025451660156 155.07534790039062 41.438262939453125 158.929931640625 C 39.351806640625 165.71249389648438 37.264556884765625 172.49505615234375 35.1781005859375 179.27684020996094 C 42.125343322753906 175.80282592773438 49.073368072509766 172.32801818847656 56.02061080932617 168.85400390625 C 61.04450225830078 170.562255859375 66.23070526123047 171.33599853515625 71.53588104248047 170.8585205078125 C 76.24065399169922 170.43460083007812 80.84693908691406 169.06910705566406 85.02220916748047 166.8597412109375 C 101.24031829833984 158.27516174316406 108.4641342163086 138.12130737304688 101.30730438232422 121.197998046875 C 99.71015167236328 117.42062377929688 97.45664978027344 113.92611694335938 94.68231964111328 110.90596008300781 C 91.56681823730469 107.51546478271484 87.80126953125 104.72931671142578 83.6417465209961 102.753173828125 C 78.79120635986328 100.44845581054688 73.61840057373047 99.4217758178711 68.27304077148438 99.30122375488281 C 68.27304077148438 99.30122375488281 68.27304077148438 99.30122375488281 68.27304077148438 99.30122375488281" stroke-width="0.0" fill="rgb(251, 208, 122)" opacity="1.0"/>
    <path d="M 76.54873657226562 35.87307357788086 C 76.54873657226562 35.87307357788086 76.54873657226562 35.87307357788086 76.54873657226562 35.87307357788086 C 67.62614440917969 36.06926727294922 59.572635650634766 39.109130859375 52.77194595336914 44.89022445678711 C 45.98860168457031 42.8045539855957 39.20524597167969 40.71888732910156 32.421897888183594 38.63242721557617 C 35.895912170410156 45.5804557800293 39.36992645263672 52.5276985168457 42.84394073486328 59.474937438964844 C 40.96470642089844 65.01335144042969 40.235870361328125 70.76844024658203 41.02459716796875 76.58892822265625 C 43.15753936767578 92.32876586914062 55.94417953491211 105.11619567871094 71.68401336669922 107.24913787841797 C 75.96014404296875 107.82906341552734 80.34029388427734 107.63917541503906 84.54866027832031 106.68103790283203 C 89.09269714355469 105.64569091796875 93.41926574707031 103.7081527709961 97.22420501708984 101.01734924316406 C 100.97636413574219 98.36436462402344 104.2100601196289 94.99041748046875 106.69993591308594 91.12873840332031 C 108.94792938232422 87.64290618896484 110.58367919921875 83.76861572265625 111.50477600097656 79.72492218017578 C 115.19705200195312 63.515480041503906 106.93080139160156 46.45900344848633 91.9174575805664 39.32501983642578 C 87.06612396240234 37.021095275878906 81.89410400390625 35.99362564086914 76.54873657226562 35.87307357788086 C 76.54873657226562 35.87307357788086 76.54873657226562 35.87307357788086 76.54873657226562 35.87307357788086" stroke-width="0.0" fill="rgb(241, 194, 78)" opacity="1.0"/>
    <path d="M 128.94813537597656 132.39614868164062 C 122.80931091308594 133.27313232421875 116.67127990722656 134.1501007080078 110.53325653076172 135.0262908935547 C 105.4841537475586 135.8788299560547 101.01103210449219 137.7076416015625 96.81842041015625 140.64743041992188 C 93.21991729736328 157.20120239257812 89.62140655517578 173.75418090820312 86.023681640625 190.30795288085938 C 122.39328002929688 190.30795288085938 158.76287841796875 190.30795288085938 195.13169860839844 190.30795288085938 C 195.13169860839844 174.0015869140625 195.13169860839844 157.6952362060547 195.13169860839844 141.38809204101562 C 190.72634887695312 138.02674865722656 185.919921875 135.94581604003906 180.45556640625 135.0262908935547 C 174.31675720214844 134.1501007080078 168.17874145507812 133.27313232421875 162.04071044921875 132.39614868164062 C 151.00958251953125 132.39614868164062 139.9784698486328 132.39614868164062 128.94813537597656 132.39614868164062" stroke-width="0.0" fill="rgb(64, 159, 141)" opacity="1.0"/>
    <path d="M 48.224761962890625 103.77985382080078 C 48.224761962890625 103.77985382080078 48.224761962890625 103.77985382080078 48.224761962890625 103.77985382080078 C 44.30162048339844 106.40919494628906 40.836280822753906 109.52864074707031 38.06116485595703 113.37062072753906 C 27.99999237060547 127.29425811767578 29.19371795654297 146.12123107910156 39.897056579589844 159.25929260253906 C 37.88545227050781 165.7983856201172 35.87306213378906 172.33746337890625 33.86145782470703 178.87734985351562 C 33.85279083251953 180.16168212890625 34.458717346191406 180.82986450195312 35.796630859375 180.51626586914062 C 42.56816101074219 177.1304931640625 49.340484619140625 173.7439422607422 56.1128044128418 170.35818481445312 C 60.105281829833984 171.64486694335938 64.07569885253906 172.3028106689453 68.26988220214844 172.3894805908203 C 68.26988220214844 171.4707489013672 68.26988220214844 170.55120849609375 68.26988220214844 169.63247680664062 C 65.75006103515625 169.57891845703125 63.27278518676758 169.36773681640625 60.80654525756836 168.82327270507812 C 58.99822998046875 168.42379760742188 57.25058364868164 167.52474975585938 55.40208435058594 167.63034057617188 C 49.41691207885742 170.621337890625 43.43095397949219 173.61236572265625 37.44578552246094 176.60336303710938 C 39.216278076171875 170.8474884033203 40.98756408691406 165.0915985107422 42.758056640625 159.33572387695312 C 42.31996154785156 157.3123016357422 40.73857116699219 155.9995880126953 39.59528350830078 154.28741455078125 C 37.866546630859375 151.6998291015625 36.49237823486328 148.87664794921875 35.520851135253906 145.92030334472656 C 30.572608947753906 130.85731506347656 36.750030517578125 114.82279205322266 49.7108154296875 106.10347747802734 C 49.21520233154297 105.32894134521484 48.71958923339844 104.55439758300781 48.224761962890625 103.77985382080078" stroke-width="0.0" fill="rgb(55, 87, 80)" opacity="1.0"/>
    <path d="M 76.54559326171875 34.491817474365234 C 76.54559326171875 34.491817474365234 76.54559326171875 34.491817474365234 76.54559326171875 34.491817474365234 C 67.56468200683594 34.67934799194336 59.407169342041016 37.671142578125 52.442588806152344 43.34586715698242 C 45.90428924560547 41.33426284790039 39.365989685058594 39.323448181152344 32.82768249511719 37.31262969970703 C 31.4669189453125 37.3039665222168 30.954757690429688 37.90595245361328 31.18877410888672 39.247802734375 C 34.574546813964844 46.02012634277344 37.960304260253906 52.79244613647461 41.34607696533203 59.5639762878418 C 39.74183654785156 64.55635070800781 39.006690979003906 69.68817901611328 39.455810546875 74.93269348144531 C 40.689720153808594 89.34405517578125 50.57596969604492 102.05269622802734 64.21200561523438 106.85438537597656 C 69.0948486328125 108.57366180419922 74.17941284179688 109.1362533569336 79.3293685913086 108.85338592529297 C 79.26160430908203 107.93701171875 79.19463348388672 107.01985168457031 79.12686920166016 106.10347747802734 C 61.23991394042969 107.08761596679688 44.92645263671875 94.5342025756836 42.40900421142578 76.52668762207031 C 41.908660888671875 72.94866943359375 41.970115661621094 69.28948211669922 42.59416961669922 65.7303695678711 C 42.988922119140625 63.47687530517578 44.20549774169922 61.11227035522461 44.077850341796875 58.856407165527344 C 41.08448028564453 52.86966323852539 38.091102600097656 46.883705139160156 35.09773254394531 40.89695739746094 C 40.853614807128906 42.668243408203125 46.60948944091797 44.43873596191406 52.36537551879883 46.210018157958984 C 54.38958740234375 45.77113723754883 55.70228576660156 44.19053649902344 57.41368865966797 43.04645538330078 C 60.00205993652344 41.317718505859375 62.8244514465332 39.94355392456055 65.78157806396484 38.97202682495117 C 79.80449676513672 34.364959716796875 94.76899719238281 39.38096618652344 103.89094543457031 50.73198699951172 C 104.62057495117188 50.1717643737793 105.34941864013672 49.61233139038086 106.07825469970703 49.05210494995117 C 98.70710754394531 39.86003112792969 88.32682037353516 34.73529052734375 76.54559326171875 34.491817474365234 C 76.54559326171875 34.491817474365234 76.54559326171875 34.491817474365234 76.54559326171875 34.491817474365234" stroke-width="0.0" fill="rgb(55, 87, 80)" opacity="1.0"/>
    <path d="M 180.90785217285156 29.04717254638672 C 178.75442504882812 29.764198303222656 176.60098266601562 30.48200225830078 174.4475555419922 31.199817657470703 C 167.9005889892578 33.24924087524414 161.29531860351562 33.80946350097656 154.4969940185547 32.892303466796875 C 150.0222930908203 32.204437255859375 145.54681396484375 31.51656723022461 141.07212829589844 30.827911376953125 C 137.931396484375 30.45836639404297 134.86790466308594 30.520614624023438 131.79415893554688 31.340858459472656 C 120.53375244140625 34.346046447753906 113.8922348022461 45.15496826171875 115.13480377197266 56.48786926269531 C 115.56501770019531 59.49463653564453 115.99444580078125 62.50140380859375 116.42387390136719 65.50738525390625 C 114.40833282470703 64.70526123046875 113.02549743652344 64.73284149169922 111.02493286132812 65.57830047607422 C 111.02493286132812 63.491844177246094 111.02493286132812 61.404598236083984 111.02493286132812 59.317352294921875 C 110.85237121582031 58.03616714477539 110.93352508544922 57.67213821411133 110.2708740234375 56.5351448059082 C 108.47831726074219 53.46061706542969 104.12496185302734 52.90433120727539 101.61065673828125 55.41864013671875 C 100.47050476074219 56.55878448486328 100.19945526123047 57.78717803955078 99.99381256103516 59.317352294921875 C 99.99381256103516 60.485862731933594 99.99381256103516 61.65437316894531 99.99381256103516 62.82209777832031 C 95.86737823486328 61.08390426635742 92.31378173828125 63.1884880065918 91.72126007080078 67.58990478515625 C 91.72126007080078 68.75762939453125 91.72126007080078 69.92613220214844 91.72126007080078 71.09385681152344 C 87.59483337402344 69.35724639892578 84.04202270507812 71.4610366821289 83.4487075805664 75.86245727539062 C 81.15107727050781 75.86245727539062 78.85266876220703 75.86245727539062 76.55503845214844 75.86245727539062 C 76.55503845214844 76.78118896484375 76.55503845214844 77.69992065429688 76.55503845214844 78.61865997314453 C 78.85266876220703 78.61865997314453 81.15107727050781 78.61865997314453 83.4487075805664 78.61865997314453 C 83.4487075805664 85.14277648925781 83.4487075805664 91.6668930053711 83.4487075805664 98.1910171508789 C 83.61811065673828 101.15523529052734 84.44859313964844 103.52220153808594 86.16866302490234 105.94274139404297 C 88.87128448486328 109.3214111328125 91.57469940185547 112.70087432861328 94.2773208618164 116.07955169677734 C 86.97157287597656 134.0137939453125 79.66503143310547 151.94802856445312 72.35848999023438 169.8814697265625 C 71.48545837402344 172.36978149414062 70.995361328125 174.82577514648438 71.26876831054688 177.4763946533203 C 72.39945983886719 188.46023559570312 84.67473602294922 195.00799560546875 94.43885040283203 189.87063598632812 C 98.67322540283203 187.64315795898438 101.23796081542969 183.81614685058594 102.4758071899414 179.29180908203125 C 105.66695404052734 164.92929077148438 108.85810089111328 150.5667724609375 112.04924774169922 136.20504760742188 C 117.47813415527344 135.42971801757812 122.90701293945312 134.65438842773438 128.33590698242188 133.87905883789062 C 133.6875762939453 141.01539611816406 139.03924560546875 148.15174865722656 144.39170837402344 155.2873077392578 C 144.75965881347656 155.47088623046875 145.08428955078125 155.83807373046875 145.49560546875 155.83807373046875 C 145.90689086914062 155.83807373046875 146.23153686523438 155.47088623046875 146.59950256347656 155.2873077392578 C 151.95196533203125 148.15174865722656 157.30361938476562 141.01539611816406 162.65530395507812 133.87905883789062 C 168.52462768554688 134.71820068359375 174.394775390625 135.55657958984375 180.26409912109375 136.39492797851562 C 185.48812866210938 137.28530883789062 190.05186462402344 139.26144409179688 194.2744140625 142.4628448486328 C 194.849609375 141.74423217773438 195.4248046875 141.02642822265625 196.0 140.30862426757812 C 191.39451599121094 136.79994201660156 186.36590576171875 134.62286376953125 180.65573120117188 133.6639404296875 C 174.90850830078125 132.84291076660156 169.16207885742188 132.02110290527344 163.4156494140625 131.20005798339844 C 163.4156494140625 126.59063720703125 163.4156494140625 121.981201171875 163.4156494140625 117.37176513671875 C 171.77093505859375 112.33291625976562 176.70263671875 104.10920715332031 177.19744873046875 94.36322021484375 C 177.95388793945312 93.60680389404297 178.71109008789062 92.85037994384766 179.46749877929688 92.09395599365234 C 183.5663604736328 87.42464447021484 183.95008850097656 80.47109985351562 179.1160888671875 76.05550384521484 C 177.91842651367188 74.9610595703125 176.61044311523438 74.32913208007812 175.12991333007812 73.71768951416016 C 174.9014129638672 73.64204406738281 174.67291259765625 73.56640625 174.44439697265625 73.48997497558594 C 174.44439697265625 68.62367248535156 174.44439697265625 63.756591796875 174.44439697265625 58.890289306640625 C 179.6109161376953 55.66920471191406 182.43173217773438 50.744598388671875 182.71617126464844 44.6656608581543 C 182.71853637695312 39.89628219604492 182.72088623046875 35.126895904541016 182.72247314453125 30.357513427734375 C 182.53179931640625 29.984031677246094 182.49002075195312 29.48290252685547 182.15042114257812 29.23706817626953 C 181.81004333496094 28.99201202392578 181.321533203125 29.110206604003906 180.90785217285156 29.04717254638672 C 180.90785217285156 29.04717254638672 180.90785217285156 29.04717254638672 180.90785217285156 29.04717254638672" stroke-width="0.0" fill="rgb(55, 87, 81)" opacity="1.0"/>
    <path d="M 40.696815490722656 142.04681396484375 C 43.45458984375 142.04681396484375 46.212371826171875 142.04681396484375 48.969364166259766 142.04681396484375 C 48.969364166259766 142.96554565429688 48.969364166259766 143.88427734375 48.969364166259766 144.80300903320312 C 46.212371826171875 144.80300903320312 43.45458984375 144.80300903320312 40.696815490722656 144.80300903320312 C 40.696815490722656 143.88427734375 40.696815490722656 142.96554565429688 40.696815490722656 142.04681396484375" stroke-width="0.0" fill="rgb(53, 86, 80)" opacity="1.0"/>
    <path d="M 54.48571014404297 142.04681396484375 C 57.24270248413086 142.04681396484375 59.99969482421875 142.04681396484375 62.75668716430664 142.04681396484375 C 62.75668716430664 142.96554565429688 62.75668716430664 143.88427734375 62.75668716430664 144.80300903320312 C 59.99969482421875 144.80300903320312 57.24270248413086 144.80300903320312 54.48571014404297 144.80300903320312 C 54.48571014404297 143.88427734375 54.48571014404297 142.96554565429688 54.48571014404297 142.04681396484375" stroke-width="0.0" fill="rgb(53, 86, 80)" opacity="1.0"/>
    <path d="M 68.27304077148438 142.04681396484375 C 71.03081512451172 142.04681396484375 73.78781127929688 142.04681396484375 76.54559326171875 142.04681396484375 C 76.54559326171875 142.96554565429688 76.54559326171875 143.88427734375 76.54559326171875 144.80300903320312 C 73.78781127929688 144.80300903320312 71.03081512451172 144.80300903320312 68.27304077148438 144.80300903320312 C 68.27304077148438 143.88427734375 68.27304077148438 142.96554565429688 68.27304077148438 142.04681396484375" stroke-width="0.0" fill="rgb(53, 86, 80)" opacity="1.0"/>
    <path d="M 48.969364166259766 75.86245727539062 C 51.727142333984375 75.86245727539062 54.484134674072266 75.86245727539062 57.24191665649414 75.86245727539062 C 57.24191665649414 76.78118896484375 57.24191665649414 77.69992065429688 57.24191665649414 78.61865997314453 C 54.484134674072266 78.61865997314453 51.727142333984375 78.61865997314453 48.969364166259766 78.61865997314453 C 48.969364166259766 77.69992065429688 48.969364166259766 76.78118896484375 48.969364166259766 75.86245727539062" stroke-width="0.0" fill="rgb(54, 86, 80)" opacity="1.0"/>
    <path d="M 62.75668716430664 75.86245727539062 C 65.51446533203125 75.86245727539062 68.27224731445312 75.86245727539062 71.02923583984375 75.86245727539062 C 71.02923583984375 76.78118896484375 71.02923583984375 77.69992065429688 71.02923583984375 78.61865997314453 C 68.27224731445312 78.61865997314453 65.51446533203125 78.61865997314453 62.75668716430664 78.61865997314453 C 62.75668716430664 77.69992065429688 62.75668716430664 76.78118896484375 62.75668716430664 75.86245727539062" stroke-width="0.0" fill="rgb(54, 86, 80)" opacity="1.0"/>
    <path d="M 159.2805633544922 166.86997985839844 C 168.47262573242188 166.86997985839844 177.66549682617188 166.86997985839844 186.85757446289062 166.86997985839844 C 186.85757446289062 167.78871154785156 186.85757446289062 168.70745849609375 186.85757446289062 169.62619018554688 C 177.66549682617188 169.62619018554688 168.47262573242188 169.62619018554688 159.2805633544922 169.62619018554688 C 159.2805633544922 168.70745849609375 159.2805633544922 167.78871154785156 159.2805633544922 166.86997985839844" stroke-width="0.0" fill="rgb(53, 86, 80)" opacity="1.0"/>
    <path d="M 105.49991607666016 55.17753219604492 C 105.49991607666016 55.17753219604492 105.49991607666016 55.17753219604492 105.49991607666016 55.17753219604492 C 102.96984100341797 55.5856819152832 101.7706069946289 56.78413391113281 101.36245727539062 59.31420135498047 C 101.36245727539062 62.07197952270508 101.36245727539062 64.82975769042969 101.36245727539062 67.58675384521484 C 101.17886352539062 66.45054626464844 101.26238250732422 66.09912872314453 100.56427764892578 65.14335632324219 C 98.94190979003906 62.92058563232422 95.50808715820312 62.92058563232422 93.88493347167969 65.14335632324219 C 93.18760681152344 66.09912872314453 93.27033996582031 66.45054626464844 93.08674621582031 67.58675384521484 C 93.08674621582031 70.34452819824219 93.08674621582031 73.10152435302734 93.08674621582031 75.85930633544922 C 92.9039535522461 74.72309875488281 92.98667907714844 74.3716812133789 92.28856658935547 73.41511535644531 C 90.66620635986328 71.19235229492188 87.23237609863281 71.1931381225586 85.61001586914062 73.41511535644531 C 84.91190338134766 74.3716812133789 84.99463653564453 74.72309875488281 84.81183624267578 75.85930633544922 C 84.81183624267578 83.30215454101562 84.81183624267578 90.74501037597656 84.81183624267578 98.1878662109375 C 84.99227905273438 100.85266876220703 85.70614624023438 102.88475799560547 87.23001098632812 105.07837677001953 C 90.10125732421875 108.66742706298828 92.97250366210938 112.25648498535156 95.84374237060547 115.84632873535156 C 88.43555450439453 134.0287628173828 81.02737426757812 152.2119903564453 73.61997985839844 170.39520263671875 C 72.90058898925781 172.4895477294922 72.42704010009766 174.50746154785156 72.56414031982422 176.74205017089844 C 73.17242431640625 186.65113830566406 83.84346008300781 193.09646606445312 92.90158081054688 189.05039978027344 C 97.2076644897461 187.12704467773438 99.87876892089844 183.43319702148438 101.11898040771484 178.98687744140625 C 105.79618072509766 157.94029235839844 110.47337341308594 136.89291381835938 115.15056610107422 115.84632873535156 C 121.58564758300781 109.41123962402344 128.0199432373047 102.97615814208984 134.45423889160156 96.5418701171875 C 134.25961303710938 95.95800018310547 134.06500244140625 95.3741455078125 133.8695831298828 94.79106903076172 C 132.21255493164062 91.37772369384766 129.28536987304688 90.29824829101562 125.80662536621094 91.810302734375 C 123.17570495605469 93.38854217529297 120.5447769165039 94.96678161621094 117.91307067871094 96.54501342773438 C 117.91307067871094 87.81230926513672 117.91307067871094 79.07881164550781 117.91307067871094 70.34610748291016 C 117.73027038574219 69.210693359375 117.81300354003906 68.85848236083984 117.1148910522461 67.9027099609375 C 115.4925308227539 65.67994689941406 112.05870056152344 65.67994689941406 110.43634033203125 67.9027099609375 C 109.73822784423828 68.85848236083984 109.82095336914062 69.210693359375 109.6381607055664 70.34610748291016 C 109.6381607055664 66.66880798339844 109.6381607055664 62.99150085449219 109.6381607055664 59.31420135498047 C 109.2300033569336 56.78413391113281 108.03076934814453 55.5856819152832 105.49991607666016 55.17753219604492 C 105.49991607666016 55.17753219604492 105.49991607666016 55.17753219604492 105.49991607666016 55.17753219604492" stroke-width="0.0" fill="rgb(54, 86, 80)" opacity="1.0"/>
    <path d="M 76.54873657226562 75.86245727539062 C 79.30572509765625 75.86245727539062 82.06350708007812 75.86245727539062 84.8212890625 75.86245727539062 C 84.8212890625 76.78118896484375 84.8212890625 77.69992065429688 84.8212890625 78.61865997314453 C 82.06350708007812 78.61865997314453 79.30572509765625 78.61865997314453 76.54873657226562 78.61865997314453 C 76.54873657226562 77.69992065429688 76.54873657226562 76.78118896484375 76.54873657226562 75.86245727539062" stroke-width="0.0" fill="rgb(54, 85, 80)" opacity="1.0"/>
    <path d="M 120.89462280273438 112.06501007080078 C 120.89462280273438 112.06501007080078 120.89462280273438 112.06501007080078 120.89462280273438 112.06501007080078 C 122.91095733642578 114.16014099121094 125.07227325439453 115.87863159179688 127.56609344482422 117.37492370605469 C 127.56609344482422 121.98277282714844 127.56609344482422 126.59141540527344 127.56609344482422 131.20005798339844 C 122.6068115234375 131.90841674804688 117.6467514038086 132.6167755126953 112.68668365478516 133.32513427734375 C 113.9300537109375 127.73077392578125 115.17420196533203 122.13642120361328 116.41756439208984 116.5412826538086 C 117.90992736816406 115.04893493652344 119.40227508544922 113.557373046875 120.89462280273438 112.06501007080078" stroke-width="0.0" fill="rgb(254, 254, 254)" opacity="1.0"/>
    <path d="M 117.91307067871094 55.179893493652344 C 117.91307067871094 61.61497497558594 117.91307067871094 68.04927062988281 117.91307067871094 74.4843521118164 C 117.3709716796875 74.664794921875 116.82808685302734 74.84523010253906 116.28598022460938 75.02566528320312 C 111.43465423583984 77.08296966552734 108.39163970947266 81.9429702758789 110.11801147460938 87.253662109375 C 110.61519622802734 88.78305053710938 111.45986938476562 89.9145278930664 112.4865493774414 91.11770629882812 C 113.37691497802734 92.00807189941406 114.2665023803711 92.89844512939453 115.15686798095703 93.78802490234375 C 115.26953887939453 97.45744323730469 115.90856170654297 100.98031616210938 117.42533874511719 104.34559631347656 C 125.37326049804688 121.97647094726562 151.65725708007812 125.37091064453125 166.10015869140625 113.92375946044922 C 172.33668518066406 108.98023986816406 175.59085083007812 101.64691162109375 175.83197021484375 93.78802490234375 C 176.72154235839844 92.89844512939453 177.61190795898438 92.00807189941406 178.50149536132812 91.11770629882812 C 179.52975463867188 89.9145278930664 180.37442016601562 88.7838363647461 180.87081909179688 87.253662109375 C 182.59561157226562 81.94218444824219 179.55340576171875 77.08296966552734 174.7020721435547 75.02566528320312 C 174.1575927734375 74.84523010253906 173.61312866210938 74.664794921875 173.06866455078125 74.4843521118164 C 173.06866455078125 68.04927062988281 173.06866455078125 61.61497497558594 173.06866455078125 55.179893493652344 C 154.68373107910156 55.179893493652344 136.29879760742188 55.179893493652344 117.91307067871094 55.179893493652344" stroke-width="0.0" fill="rgb(54, 86, 80)" opacity="1.0"/>
    <path d="M 99.98750305175781 68.96800231933594 C 100.90624237060547 68.96800231933594 101.8249740600586 68.96800231933594 102.74370574951172 68.96800231933594 C 102.74370574951172 78.16007995605469 102.74370574951172 87.35294342041016 102.74370574951172 96.54501342773438 C 101.8249740600586 96.54501342773438 100.90624237060547 96.54501342773438 99.98750305175781 96.54501342773438 C 99.98750305175781 87.35294342041016 99.98750305175781 78.16007995605469 99.98750305175781 68.96800231933594" stroke-width="0.0" fill="rgb(54, 86, 79)" opacity="1.0"/>
    <path d="M 91.71495056152344 74.4843521118164 C 92.6336898803711 74.4843521118164 93.55242156982422 74.4843521118164 94.47116088867188 74.4843521118164 C 94.47116088867188 81.83895874023438 94.47116088867188 89.19355773925781 94.47116088867188 96.54816436767578 C 93.55242156982422 96.54816436767578 92.6336898803711 96.54816436767578 91.71495056152344 96.54816436767578 C 91.71495056152344 89.19355773925781 91.71495056152344 81.83895874023438 91.71495056152344 74.4843521118164" stroke-width="0.0" fill="rgb(54, 86, 80)" opacity="1.0"/>
    <path d="M 110.90830993652344 134.9742889404297 C 110.78224182128906 134.99319458007812 110.65617370605469 135.01132202148438 110.53009796142578 135.02943420410156 C 98.19022369384766 137.12457275390625 88.74363708496094 145.6429443359375 85.39018249511719 157.70233154296875 C 82.9341812133789 167.5279083251953 80.47817993164062 177.35427856445312 78.02218627929688 187.17984008789062 C 84.52738952636719 191.9011688232422 93.6611557006836 191.1502685546875 98.62122344970703 184.47091674804688 C 99.86458587646484 182.7957763671875 100.57057189941406 180.98036193847656 101.12528228759766 178.99002075195312 C 104.38655853271484 164.31863403320312 107.64704132080078 149.64646911621094 110.90830993652344 134.9742889404297" stroke-width="0.0" fill="rgb(54, 86, 80)" opacity="1.0"/>
    <path d="M 181.34437561035156 30.357513427734375 C 179.19094848632812 31.0753173828125 177.03750610351562 31.793132781982422 174.88328552246094 32.51015853881836 C 168.1298828125 34.634437561035156 161.30239868164062 35.214359283447266 154.2873992919922 34.2546501159668 C 149.8126983642578 33.56678009033203 145.33721923828125 32.878910064697266 140.86253356933594 32.1910400390625 C 137.69659423828125 31.823863983154297 134.61654663085938 31.912113189697266 131.53965759277344 32.826908111572266 C 121.25944519042969 35.88331604003906 115.38694763183594 45.886962890625 116.49794006347656 56.294036865234375 C 116.96991729736328 59.59943389892578 117.44188690185547 62.9040412902832 117.91307067871094 66.20864868164062 C 126.96961975097656 59.2361946105957 137.85025024414062 56.21051788330078 149.20599365234375 57.51218795776367 C 154.25588989257812 58.185874938964844 159.3065643310547 58.859561920166016 164.3564453125 59.53324890136719 C 173.55087280273438 60.30384826660156 180.91494750976562 53.889251708984375 181.34121704101562 44.66250991821289 C 181.34280395507812 39.89391326904297 181.34359741210938 35.12531661987305 181.34437561035156 30.357513427734375" stroke-width="0.0" fill="rgb(54, 86, 80)" opacity="1.0"/>
    <path d="M 128.94418334960938 115.84868621826172 C 128.94418334960938 121.36503601074219 128.94418334960938 126.8805923461914 128.94418334960938 132.39614868164062 C 134.46054077148438 139.75076293945312 139.97689819335938 147.10536193847656 145.49246215820312 154.4599609375 C 151.00721740722656 147.10536193847656 156.52198791503906 139.75076293945312 162.03753662109375 132.39614868164062 C 162.03753662109375 126.8805923461914 162.03753662109375 121.36503601074219 162.03753662109375 115.84868621826172 C 151.0064239501953 115.84868621826172 139.97531127929688 115.84868621826172 128.94418334960938 115.84868621826172" stroke-width="0.0" fill="rgb(54, 86, 80)" opacity="1.0"/>
    <path d="M 108.2632064819336 71.72421264648438 C 109.18193817138672 71.72421264648438 110.10067749023438 71.72421264648438 111.0194091796875 71.72421264648438 C 111.0194091796875 79.99833679199219 111.0194091796875 88.27167510986328 111.0194091796875 96.54501342773438 C 110.10067749023438 96.54501342773438 109.18193817138672 96.54501342773438 108.2632064819336 96.54501342773438 C 108.2632064819336 88.27167510986328 108.2632064819336 79.99833679199219 108.2632064819336 71.72421264648438" stroke-width="0.0" fill="rgb(54, 86, 80)" opacity="1.0"/>
    <path d="M 122.2845458984375 40.49668502807617 C 122.28533172607422 40.499053955078125 122.28612518310547 40.50141525268555 122.28770446777344 40.50299072265625 C 127.09332275390625 35.15761947631836 133.51187133789062 32.735504150390625 140.65057373046875 33.553382873535156 C 145.1260528564453 34.24125289916992 149.6007537841797 34.92991256713867 154.07623291015625 35.617774963378906 C 161.30397033691406 36.603492736816406 168.35838317871094 36.00465774536133 175.31744384765625 33.81813049316406 C 176.86573791503906 33.302032470703125 178.41482543945312 32.78672409057617 179.96310424804688 32.27141189575195 C 179.96310424804688 36.40177536010742 179.96310424804688 40.53214645385742 179.96310424804688 44.66250991821289 C 179.50296020507812 53.071372985839844 172.93313598632812 58.82883071899414 164.53846740722656 58.163814544677734 C 159.48779296875 57.4901237487793 154.43710327148438 56.816436767578125 149.38722229003906 56.14275360107422 C 138.4979248046875 54.89466094970703 127.98999786376953 57.509822845458984 118.94684600830078 63.69906997680664 C 118.58439636230469 61.164276123046875 118.22273254394531 58.62869644165039 117.86106872558594 56.09389877319336 C 117.25829315185547 50.28522872924805 118.72228240966797 45.12424087524414 122.2845458984375 40.49668502807617 C 122.2845458984375 40.49668502807617 122.2845458984375 40.49668502807617 122.2845458984375 40.49668502807617" stroke-width="0.0" fill="rgb(233, 183, 75)" opacity="1.0"/>
    <path d="M 132.21807861328125 116.53498077392578 C 132.21807861328125 116.53498077392578 132.21807861328125 116.53498077392578 132.21807861328125 116.53498077392578 C 140.96969604492188 119.84746551513672 150.0159912109375 119.84589385986328 158.76760864257812 116.53498077392578 C 159.11036682128906 117.38832092285156 159.4539031982422 118.24165344238281 159.79745483398438 119.09420013427734 C 150.39657592773438 122.67537689208984 140.58831787109375 122.67459106445312 131.18743896484375 119.09420013427734 C 131.53099060058594 118.24165344238281 131.87452697753906 117.38832092285156 132.21807861328125 116.53498077392578" stroke-width="0.0" fill="rgb(54, 86, 80)" opacity="1.0"/>
    <path d="M 116.5373306274414 66.21179962158203 C 117.45606994628906 66.21179962158203 118.3755874633789 66.21179962158203 119.29432678222656 66.21179962158203 C 119.29432678222656 68.9695816040039 119.29432678222656 71.72657012939453 119.29432678222656 74.4843521118164 C 119.12964630126953 74.99493408203125 118.78532409667969 75.47322082519531 118.35273742675781 75.79154205322266 C 117.8106460571289 75.97197723388672 117.26853942871094 76.15242004394531 116.72564697265625 76.3336410522461 C 115.29633331298828 76.9584732055664 114.09078979492188 77.58804321289062 113.04913330078125 78.79279327392578 C 110.05340576171875 82.25814056396484 110.65774536132812 86.86048126220703 113.4643783569336 90.14302825927734 C 114.35475158691406 91.03339385986328 115.2451171875 91.92298126220703 116.13548278808594 92.81334686279297 C 116.98961639404297 94.88404083251953 116.70516967773438 97.41805267333984 117.25672149658203 99.63529968261719 C 118.1021728515625 103.03367614746094 119.68829345703125 106.04202270507812 121.7582015991211 108.84392547607422 C 121.03645324707031 109.4128189086914 120.31470489501953 109.98249816894531 119.5921630859375 110.55138397216797 C 115.99917602539062 105.72290802001953 114.07897186279297 100.3743896484375 113.78428649902344 94.36322021484375 C 113.02786254882812 93.60680389404297 112.27143859863281 92.85037994384766 111.51502227783203 92.09395599365234 C 107.41539001464844 87.42543029785156 107.03324127197266 80.47109985351562 111.86643981933594 76.05550384521484 C 113.0641098022461 74.96184539794922 114.37129211425781 74.32913208007812 115.8518295288086 73.71768951416016 C 116.08032989501953 73.64204406738281 116.30883026123047 73.56640625 116.5373306274414 73.48997497558594 C 116.5373306274414 71.06391906738281 116.5373306274414 68.63786315917969 116.5373306274414 66.21179962158203" stroke-width="0.0" fill="rgb(54, 86, 80)" opacity="1.0"/>
    <path d="M 130.3293914794922 118.73490142822266 C 130.3293914794922 118.73490142822266 130.3293914794922 118.73490142822266 130.3293914794922 118.73490142822266 C 140.24951171875 122.774658203125 150.74484252929688 122.77938079833984 160.6649627685547 118.73490142822266 C 160.6649627685547 123.13552856445312 160.6649627685547 127.53694152832031 160.6649627685547 131.9375762939453 C 155.60955810546875 138.67916870117188 150.5541534423828 145.42074584960938 145.49874877929688 152.16156005859375 C 140.4425506591797 145.42074584960938 135.3855743408203 138.67916870117188 130.3293914794922 131.9375762939453 C 130.3293914794922 127.53694152832031 130.3293914794922 123.13552856445312 130.3293914794922 118.73490142822266" stroke-width="0.0" fill="rgb(222, 222, 222)" opacity="1.0"/>
    <path d="M 149.01846313476562 58.87847137451172 C 154.068359375 59.552154541015625 159.11903381347656 60.22505569458008 164.16891479492188 60.898738861083984 C 166.81008911132812 61.1233024597168 169.14158630371094 60.89007568359375 171.68426513671875 60.1423225402832 C 171.68426513671875 64.92273712158203 171.68426513671875 69.7031478881836 171.68426513671875 74.4843521118164 C 171.84893798828125 74.99493408203125 172.19326782226562 75.47322082519531 172.6258544921875 75.79154205322266 C 173.17031860351562 75.97119140625 173.71478271484375 76.15083312988281 174.25924682617188 76.33049011230469 C 175.68934631347656 76.955322265625 176.8948974609375 77.58488464355469 177.93655395507812 78.78964233398438 C 180.93307495117188 82.25498962402344 180.3271484375 86.85733032226562 177.5205078125 90.13987731933594 C 176.63014221191406 91.03024291992188 175.73977661132812 91.9198226928711 174.8494110107422 92.81019592285156 C 174.12686157226562 94.56178283691406 174.36090087890625 96.58126068115234 173.992919921875 98.45418548583984 C 173.20339965820312 102.47187805175781 171.38327026367188 106.26737213134766 168.7554931640625 109.40572357177734 C 158.12387084960938 122.10018157958984 134.5811004638672 122.47760009765625 123.24267578125 110.5466537475586 C 120.42659759521484 107.58401489257812 118.3755874633789 103.91458892822266 117.3331527709961 99.96150970458984 C 116.72171020507812 97.64260864257812 117.02428436279297 94.97623443603516 116.12918090820312 92.81019592285156 C 115.23881530761719 91.9198226928711 114.34844207763672 91.03024291992188 113.45807647705078 90.13987731933594 C 110.65144348144531 86.85733032226562 110.0470962524414 82.25498962402344 113.04283142089844 78.78964233398438 C 114.08448791503906 77.58488464355469 115.29003143310547 76.955322265625 116.71935272216797 76.33049011230469 C 117.26223754882812 76.14926147460938 117.80433654785156 75.96882629394531 118.34644317626953 75.78839111328125 C 118.77980041503906 75.47006225585938 119.12413787841797 74.9925765991211 119.28881072998047 74.481201171875 C 119.28881072998047 71.94798278808594 119.28881072998047 69.41555786132812 119.28881072998047 66.88312530517578 C 127.96085357666016 60.440162658691406 138.2836151123047 57.65874481201172 149.01846313476562 58.87847137451172 C 149.01846313476562 58.87847137451172 149.01846313476562 58.87847137451172 149.01846313476562 58.87847137451172" stroke-width="0.0" fill="rgb(222, 222, 222)" opacity="1.0"/>
    <path d="M 113.77561950683594 67.58990478515625 C 113.77640533447266 67.58990478515625 113.7779769897461 67.58990478515625 113.77876281738281 67.58990478515625 C 115.62175750732422 68.09024047851562 116.03541564941406 68.50390625 116.53497314453125 70.34610748291016 C 116.53497314453125 71.3940658569336 116.53497314453125 72.4420166015625 116.53497314453125 73.48997497558594 C 116.30646514892578 73.56640625 116.07796478271484 73.64204406738281 115.8494644165039 73.71768951416016 C 113.91902160644531 74.51036071777344 112.49364471435547 75.45352172851562 111.0194091796875 76.93011474609375 C 111.0194091796875 74.73570251464844 111.0194091796875 72.54130554199219 111.0194091796875 70.34610748291016 C 111.51896667480469 68.50312042236328 111.93262481689453 68.0894546508789 113.77561950683594 67.58990478515625 C 113.77561950683594 67.58990478515625 113.77561950683594 67.58990478515625 113.77561950683594 67.58990478515625" stroke-width="0.0" fill="rgb(222, 222, 222)" opacity="1.0"/>
    <path d="M 105.50306701660156 56.5579948425293 C 105.50306701660156 56.5579948425293 105.50306701660156 56.5579948425293 105.50306701660156 56.5579948425293 C 107.3460464477539 57.0583381652832 107.75971221923828 57.47200393676758 108.26005554199219 59.31420135498047 C 108.26005554199219 71.72421264648438 108.26005554199219 84.135009765625 108.26005554199219 96.54501342773438 C 109.17879486083984 96.54501342773438 110.09752655029297 96.54501342773438 111.0162582397461 96.54501342773438 C 111.0162582397461 94.88483428955078 111.0162582397461 93.22465515136719 111.0162582397461 91.56446838378906 C 111.1801528930664 91.740966796875 111.34403991699219 91.9174575805664 111.50872039794922 92.09395599365234 C 112.26514434814453 92.85037994384766 113.02234649658203 93.60680389404297 113.77876281738281 94.36322021484375 C 114.06873321533203 100.11437225341797 115.82189178466797 105.20838928222656 119.1257095336914 109.92340087890625 C 117.47498321533203 111.5733413696289 115.82504272460938 113.22328186035156 114.17509460449219 114.87322235107422 C 114.0513916015625 115.09935760498047 113.9269027709961 115.32470703125 113.80319213867188 115.55084991455078 C 109.1259994506836 136.59744262695312 104.44880676269531 157.6448211669922 99.7716064453125 178.6921844482422 C 99.22162628173828 180.64706420898438 98.52115631103516 182.41677856445312 97.2454833984375 184.02651977539062 C 91.43523406982422 191.35433959960938 79.73831176757812 190.08023071289062 75.41883850097656 181.89830017089844 C 73.55458068847656 178.36834716796875 73.62943267822266 174.60752868652344 74.90904235839844 170.91839599609375 C 82.31643676757812 152.73516845703125 89.72462463378906 134.55194091796875 97.13280487060547 116.36872100830078 C 97.06583404541016 115.9085693359375 96.99885559082031 115.44762420654297 96.93267059326172 114.98747253417969 C 94.0614242553711 111.3984146118164 91.18939971923828 107.80936431884766 88.31816101074219 104.22030639648438 C 86.98811340332031 102.30168151855469 86.36170959472656 100.52015686035156 86.20254516601562 98.1910171508789 C 86.20254516601562 90.74816131591797 86.20254516601562 83.30530548095703 86.20254516601562 75.86245727539062 C 86.32782745361328 75.3991470336914 86.33964538574219 74.88856506347656 86.57917785644531 74.4725341796875 C 87.60743713378906 72.68154907226562 90.31005859375 72.68154907226562 91.33831787109375 74.4725341796875 C 91.57705688476562 74.88856506347656 91.58967590332031 75.3991470336914 91.71495056152344 75.86245727539062 C 91.71495056152344 82.75690460205078 91.71495056152344 89.65056610107422 91.71495056152344 96.54501342773438 C 92.6336898803711 96.54501342773438 93.55242156982422 96.54501342773438 94.47116088867188 96.54501342773438 C 94.47116088867188 86.89199829101562 94.47116088867188 77.2397689819336 94.47116088867188 67.58675384521484 C 94.59722137451172 67.12344360351562 94.60903930664062 66.6136474609375 94.84857177734375 66.19683074951172 C 95.8768310546875 64.40585327148438 98.57867431640625 64.40585327148438 99.60771942138672 66.19683074951172 C 99.84646606445312 66.6136474609375 99.85828399658203 67.12344360351562 99.9843521118164 67.58675384521484 C 99.9843521118164 77.2397689819336 99.9843521118164 86.89199829101562 99.9843521118164 96.54501342773438 C 100.90309143066406 96.54501342773438 101.82182312011719 96.54501342773438 102.74055480957031 96.54501342773438 C 102.742919921875 84.135009765625 102.74449920654297 71.72421264648438 102.74685668945312 59.31420135498047 C 103.24641418457031 57.471214294433594 103.6608657836914 57.05754852294922 105.50306701660156 56.5579948425293 C 105.50306701660156 56.5579948425293 105.50306701660156 56.5579948425293 105.50306701660156 56.5579948425293" stroke-width="0.0" fill="rgb(222, 222, 222)" opacity="1.0"/>
    <path d="M 145.49246215820312 97.9231185913086 C 145.49246215820312 97.9231185913086 145.49246215820312 97.9231185913086 145.49246215820312 97.9231185913086 C 142.83236694335938 98.23041534423828 140.54261779785156 99.24370574951172 139.300048828125 101.78794860839844 C 137.10092163085938 106.28864288330078 140.4827423095703 111.71122741699219 145.49246215820312 111.71122741699219 C 150.5021514892578 111.71122741699219 153.88397216796875 106.28864288330078 151.68484497070312 101.78794860839844 C 150.44227600097656 99.24370574951172 148.15252685546875 98.23041534423828 145.49246215820312 97.9231185913086 C 145.49246215820312 97.9231185913086 145.49246215820312 97.9231185913086 145.49246215820312 97.9231185913086" stroke-width="0.0" fill="rgb(55, 87, 81)" opacity="1.0"/>
    <path d="M 147.01553344726562 73.86582946777344 C 145.20562744140625 77.48560333251953 143.395751953125 81.10538482666016 141.58506774902344 84.72517395019531 C 140.0304718017578 88.899658203125 141.521240234375 92.49738311767578 145.57281494140625 94.3482437133789 C 146.31900024414062 94.59723663330078 147.06517028808594 94.84622192382812 147.8121337890625 95.09600067138672 C 148.1020965576172 94.22454071044922 148.39205932617188 93.352294921875 148.68280029296875 92.48084259033203 C 147.93585205078125 92.23184967041016 147.18966674804688 91.98285675048828 146.4427032470703 91.73387145996094 C 143.9890594482422 90.50311279296875 143.1861572265625 88.56400299072266 144.05288696289062 85.95829772949219 C 145.86277770996094 82.33850860595703 147.67266845703125 78.7187271118164 149.48255920410156 75.09893798828125 C 148.66073608398438 74.68843078613281 147.838134765625 74.2771224975586 147.01553344726562 73.86582946777344" stroke-width="0.0" fill="rgb(56, 87, 81)" opacity="1.0"/>
    <path d="M 164.18153381347656 67.7348861694336 C 164.59283447265625 68.55748748779297 165.00413513183594 69.38009643554688 165.41465759277344 70.20191955566406 C 161.73733520507812 72.04096221923828 158.06004333496094 73.87921905517578 154.3827362060547 75.71826171875 C 153.97222900390625 74.89566040039062 153.5609130859375 74.07305145263672 153.1496124267578 73.25122833251953 C 156.82691955566406 71.41218566894531 160.50421142578125 69.57392883300781 164.18153381347656 67.7348861694336" stroke-width="0.0" fill="rgb(54, 86, 80)" opacity="1.0"/>
    <path d="M 153.76499938964844 78.61865997314453 C 156.52198791503906 78.61865997314453 159.27976989746094 78.61865997314453 162.03753662109375 78.61865997314453 C 162.03753662109375 79.53739166259766 162.03753662109375 80.45613098144531 162.03753662109375 81.37486267089844 C 159.27976989746094 81.37486267089844 156.52198791503906 81.37486267089844 153.76499938964844 81.37486267089844 C 153.76499938964844 80.45613098144531 153.76499938964844 79.53739166259766 153.76499938964844 78.61865997314453" stroke-width="0.0" fill="rgb(53, 85, 79)" opacity="1.0"/>
    <path d="M 126.18799591064453 78.61865997314453 C 128.94577026367188 78.61865997314453 131.7027587890625 78.61865997314453 134.46054077148438 78.61865997314453 C 134.46054077148438 79.53739166259766 134.46054077148438 80.45613098144531 134.46054077148438 81.37486267089844 C 131.7027587890625 81.37486267089844 128.94577026367188 81.37486267089844 126.18799591064453 81.37486267089844 C 126.18799591064453 80.45613098144531 126.18799591064453 79.53739166259766 126.18799591064453 78.61865997314453" stroke-width="0.0" fill="rgb(53, 85, 80)" opacity="1.0"/>
    <path d="M 126.80416107177734 67.7348861694336 C 130.48146057128906 69.57392883300781 134.15797424316406 71.41218566894531 137.8352813720703 73.25122833251953 C 137.42398071289062 74.07305145263672 137.01266479492188 74.89566040039062 136.60215759277344 75.71826171875 C 132.9248504638672 73.87921905517578 129.24755859375 72.04096221923828 125.57024383544922 70.20191955566406 C 125.9815444946289 69.38009643554688 126.39285278320312 68.55748748779297 126.80416107177734 67.7348861694336" stroke-width="0.0" fill="rgb(53, 86, 80)" opacity="1.0"/>
    <path d="M 151.0080108642578 104.81756591796875 C 151.0080108642578 104.81756591796875 151.0080108642578 104.81756591796875 151.0080108642578 104.81756591796875 C 150.73931884765625 106.81735229492188 150.12709045410156 108.50196838378906 148.27622985839844 109.58064270019531 C 144.6611785888672 111.68680572509766 139.97689819335938 109.00230407714844 139.97689819335938 104.81756591796875 C 139.97689819335938 100.6328353881836 144.66275024414062 97.95306396484375 148.27622985839844 100.05685424804688 C 150.12631225585938 101.13475036621094 150.73931884765625 102.81777954101562 151.0080108642578 104.81756591796875 C 151.0080108642578 104.81756591796875 151.0080108642578 104.81756591796875 151.0080108642578 104.81756591796875" stroke-width="0.0" fill="rgb(54, 86, 80)" opacity="1.0"/>
    <path d="M 145.49246215820312 100.6793212890625 C 145.49246215820312 100.6793212890625 145.49246215820312 100.6793212890625 145.49246215820312 100.6793212890625 C 146.86660766601562 100.90151977539062 147.95632934570312 101.17808532714844 148.83013916015625 102.37417602539062 C 150.79054260253906 105.05631256103516 148.8159637451172 108.95423889160156 145.49246215820312 108.95502471923828 C 142.16893005371094 108.95502471923828 140.19593811035156 105.05709838867188 142.15396118164062 102.3757553100586 C 143.0277862548828 101.17887115478516 144.11749267578125 100.90151977539062 145.49246215820312 100.6793212890625 C 145.49246215820312 100.6793212890625 145.49246215820312 100.6793212890625 145.49246215820312 100.6793212890625" stroke-width="0.0" fill="rgb(139, 139, 139)" opacity="1.0"/>
  </g>
</svg>
