<?xml version="1.0" encoding="UTF-8"?>
<svg xmlns="http://www.w3.org/2000/svg" version="1.1" viewBox="0 0 224 224">
  <defs>
    <style>
      .cls-1 {
        fill: #9dced3;
        opacity: 1;
      }

      .cls-1, .cls-2, .cls-3, .cls-4, .cls-5, .cls-6 {
        isolation: isolate;
      }

      .cls-7 {
        fill: #375750;
      }

      .cls-2 {
        fill: #a4d0d4;
        opacity: 1;
      }

      .cls-3 {
        fill: #e59b14;
        opacity: 1;
      }

      .cls-8 {
        fill: #dedede;
      }

      .cls-9 {
        fill: #9aa8a4;
      }

      .cls-4 {
        fill: #e49d14;
        opacity: 1;
      }

      .cls-5 {
        fill: #1e3d47;
        opacity: 1;
      }

      .cls-6 {
        fill: #1e4240;
        opacity: 1;
      }

      .cls-10 {
        fill: #409f8d;
      }
    </style>
  </defs>
  <!-- Generator: Adobe Illustrator 28.6.0, SVG Export Plug-In . SVG Version: 1.2.0 Build 709)  -->
  <g>
    <g id="_图层_1" data-name="图层_1">
      <g>
        <path class="cls-7" d="M66.6,147.1c-1.5-.8-3.8-2.2-5-3.2l-1.8-1.6h-31.8c0-.1.1-6.3.1-6.3h28.6s-.5-1.2-.5-1.2c-.1-.9-.4-2.3-.1-3.2-.3-.5-.8-.7-2.4,0-3.2.2-5-2.4-5.5-8.4-.4-5.8.7-7.1,4.8-7.5l3.4.5v-12.6c.1-12.1.8-12.5,2.7-17.1,2.6-5.2,7-8.9,12.7-10.5,3.4-1.7,8.6-1.4,37.8-1.4l33,.3,4.5,2.5c5.9,2.4,8.1,6,15,20.1,5.3,9.9,6.4,12.4,6.3,15.7v3.1c-.1,0,3.3-.5,3.3-.5,4.2.4,5.3,2.3,4.6,7.8-.5,6.2-3.8,9.3-7.7,7.6-2-2-1.9-1.7-2.2,2.4l-.6,2.5h30.2s0,6.1,0,6.1h-33.4c0,0-2.7,2.3-2.7,2.3-3.3,2.7-7.4,4.3-10.5,4.2-3.3.1-7.6-1.5-10.2-4l-2.7-2.6h-50.6s-3.2,3-3.2,3c-5.3,3.9-11,4.6-16.1,2.1"/>
        <path class="cls-8" d="M58.8,100.2c-.4-11.4,3.5-16.8,11-20.5,3.1-1.4,4.6-2,37-1.7,33.9-.2,37.7-.1,41,2.7,1.2,1.4,1.1,2.6-1.3,1.4-3.9-1.5-6.8-1.3-10.4,0-4.7,2.5-5.9,4.5-5.8,16.3v10.3s-71.3,0-71.3,0l-.2-8.4"/>
        <path class="cls-2" d="M138.2,95.7v-7.8c0,0,6-.4,6-.4h5.8c0,0,2.8,5.6,2.8,5.6,1.7,2.7,3.6,6.4,4.4,8l1.9,2.3h-21.1c0-.1.3-7.7.3-7.7"/>
        <path class="cls-9" d="M58.8,116.1v-4.6c0,0,35.8,0,35.8,0,35.2-.1,36-.3,35.9,1,0,1.3-.2,2.1-.5,2.7,0,.2-9.8.3-21,.2-16,.2-20.6.6-21.9,1.8-1.4.8-2.3.8-5-1-6.6-3.7-13.4-3.2-19.6,1.7l-3.7,2.8v-4.5"/>
        <path class="cls-3" d="M51.3,128c-.3-1-.7-3.3-.9-5.6.1-3.8.2-3.9,2.6-3.8,2.7-.1,2.8,0,2.9,5-.2,3.7-.5,5.2-1.5,5.6-2,.4-1.8.7-3.1-1.2"/>
        <path class="cls-10" d="M92.4,122.7l.3-4,18.8-.3,18.7.2v8.1c0,0-37.9-.4-37.9-.4l.2-3.6"/>
        <path class="cls-10" d="M132.4,107.6c.2-12.4.6-19.6,1.1-20.7,1.3-2.3,5.1-3.6,9.1-3.2,1.9.3,3.5.8,3.6,1.2,0,.4-1.5.5-3.5.2-2.7-.5-4-.2-5.2.5-2.2,1.4-1.8,1.6-1.6,10.9v9.1s11.9,0,11.9,0c10.7,0,12.2,0,12.6-1.1.4-.6-.7-3.4-3.2-7.9-2-3.8-3.5-7.1-3.2-7.2.7-.7.6-.9,6.7,10.5l5.3,10.3v7.6c.1,0,0,7.6,0,7.6l-1.7-2.9c-4.3-8.2-14.6-11.4-22.6-7-3.8,2.2-7,5.7-8.5,9-.6,1.4-1-4.9-1-17.1"/>
        <path class="cls-4" d="M169.4,128.9c-.2,0-.7-2.6-.9-5.2-.1-4,0-4.7,1.6-5.1,2.8-.9,4-.3,4.2,3.4,0,4.4-2.5,9.1-5,6.9"/>
        <path class="cls-1" d="M92.1,132.9l3.3-3.4,16.2-.2c13.7,0,16.2-.2,16.5,1.2.2.8,1.7,2.2,3.4,3.1l2.6,2.3h-45.3s3.3-3.1,3.3-3.1"/>
        <path class="cls-6" d="M136,109.9c.2-1.2,1.3-1.5,4.7-1.4,5.9.4,5.5,2.4-.4,2.6-3.3-.3-4.1-.2-4.3-1.2"/>
        <path class="cls-5" d="M153.4,109.8c0-1.1,1-1.3,4.2-1.2,3.3,0,4.3.3,4.3,1.2,0,1-1,1.3-4.2,1.2-3.2.1-4.2-.3-4.3-1.2"/>
      </g>
    </g>
  </g>
</svg>