<?xml version="1.0" encoding="UTF-8"?>
<svg xmlns="http://www.w3.org/2000/svg" version="1.1" viewBox="0 0 224 224">
  <defs>
    <style>
      .cls-1 {
        opacity: 1;
      }

      .cls-1, .cls-2, .cls-3, .cls-4, .cls-5, .cls-6, .cls-7, .cls-8, .cls-9 {
        fill: #f3f6f7;
      }

      .cls-1, .cls-2, .cls-3, .cls-4, .cls-5, .cls-6, .cls-7, .cls-8, .cls-9, .cls-10, .cls-11, .cls-12, .cls-13, .cls-14, .cls-15, .cls-16, .cls-17, .cls-18, .cls-19, .cls-20, .cls-21 {
        isolation: isolate;
      }

      .cls-2 {
        opacity: 1;
      }

      .cls-3 {
        opacity: 1;
      }

      .cls-4 {
        opacity: 1;
      }

      .cls-5 {
        opacity: 1;
      }

      .cls-6 {
        opacity: 1;
      }

      .cls-7 {
        opacity: 1;
      }

      .cls-8 {
        opacity: 1;
      }

      .cls-9 {
        opacity: 1;
      }

      .cls-22 {
        fill: #385751;
      }

      .cls-10 {
        opacity: 1;
      }

      .cls-10, .cls-11 {
        fill: #f3f7f8;
      }

      .cls-11 {
        opacity: 1;
      }

      .cls-12 {
        fill: #eaeef0;
        opacity: 1;
      }

      .cls-23 {
        fill: #f1c24e;
      }

      .cls-13 {
        fill: #38766e;
        opacity: 1;
      }

      .cls-14 {
        fill: #f1f3f4;
        opacity: 1;
      }

      .cls-15 {
        fill: #e3eae9;
        opacity: .9;
      }

      .cls-24 {
        fill: #dedede;
      }

      .cls-16 {
        fill: #e8edef;
        opacity: 1;
      }

      .cls-17 {
        fill: #f4f6f7;
        opacity: 1;
      }

      .cls-18 {
        fill: #f2f3f4;
        opacity: 1;
      }

      .cls-19 {
        fill: #f2f7f6;
        opacity: 1;
      }

      .cls-25 {
        fill: #409f8d;
      }

      .cls-20 {
        fill: #f2f4f5;
        opacity: 1;
      }

      .cls-21 {
        fill: #e0e7e4;
        opacity: .9;
      }
    </style>
  </defs>
  <!-- Generator: Adobe Illustrator 28.6.0, SVG Export Plug-In . SVG Version: 1.2.0 Build 709)  -->
  <g>
    <g id="_图层_1" data-name="图层_1">
      <g>
        <path class="cls-22" d="M43.4,195.9c-2.8-1.7-4.5-3-5.7-5.1-2-1.1-1.2-6.4-1.3-73.1.3-77.4-1.7-75.1,3.4-78.8,2.5-1.2,6.4-1.7,9.6-2,6.9.1,7.4.6,8.3-3.7,3.3-5.2,10.6-4.6,12.8,1.1l1.1,2.6h40.6c0-.1,41,0,41,0l1.2-3.7c2.6-2.4,3.2-2.9,7.2-3.4,3.1.4,3.9.7,6,4,.5,4,1.3,3.2,7.9,3.3,7.6-.3,10.7,2,12.8,7.5.2,2.4.2,25.5.3,73.8-.2,65.8.7,70.6-1.8,72.3-1,1.9-2.9,3-5.7,5.3-2.1.2-136.1.1-137.7.1"/>
        <path class="cls-23" d="M59.3,73.1l-4-.4-.5-5.3-.4-5.7,9.3.2,9.2.3.3,5.9.4,5.8-5.4-.3c-2.1.3-6.3-.1-8.9-.4"/>
        <path class="cls-23" d="M151.9,68.2l.2-6,17.6.2v4.6c.5,5.7.6,5.8-10.5,6.2l-7.7.7.4-5.8"/>
        <path class="cls-24" d="M42.9,191.7c-5.8-2.9-3.4-.6-3.8-75.1,0-47.3-.3-69.5,0-71.1,2.4-4.3,4.1-5.4,10.7-5.3h7.1s-.2,4.2-.2,4.2c.2,4.2-.5,4.2-3.6,4.9-3.8,2.1-5.4,5.8-2.7,10.3,2.6,2,2,4.4,1.8,9-.2,2.8,0,5.5.2,5.9,1.1.1,5.8.7,10.8,1.1,12.4,2,12.9,2,12.5-7.5-.4-5.1-.6-8.1,1.4-8.2,3.1-3.7,1-9.2-3.6-10.7-2.4-.5-2.5-.9-2.7-4.6l.2-4.7h83s-.5,4.4-.5,4.4c.6,4.9.5,5.2-1.7,4.9-2.7,0-6,3.8-5.2,6.9-.5.6,0,2.3.5,3.7,2.1,1,2.5,3.2,1.8,7.8-.3,10.1,0,10,12.3,8.2,5.4-.4,10.2-1.1,10.6-1.2.5-.5.6-3.5.6-6.7-.2-3.7-.7-6.7,1.6-8.6,1.5-3.6,1.6-4,1.2-6.2-.3-1.8-2.1-3.3-4.6-3.7-2.6-.6-2.6-1.7-2.4-5l.2-4.2,6.7-.2c6.5-.2,9.5,1.5,10.7,6-.1,1.8-.2,33.6,0,72.2v69.6c.1,0-2.2,2.8-2.2,2.8l-3.2,2h-67.3c-52.3-.5-67.4.3-70.1-1.1"/>
        <path class="cls-12" d="M52.9,59c-3-3-.5-7.4,3.7-7.5,2.6.3,2.5,0,2.1-7.4-.2-9.1,1.4-11.7,4.9-11.5,3.7-.4,5,1.3,5.1,10.3v8.8c0,0,3.4,0,3.4,0,3.4,1.1,5.1,4.4,3,7.2-1.9,1.3-21.1,1.3-22.3,0"/>
        <path class="cls-16" d="M149.5,58.5c-1.8-2.9-.3-5.9,3.2-7l3.2.2.2-8.7c-.2-9.3,1.1-10.7,5.1-10.1,3.6-.5,4.9,1,4.7,10.6v8.5s3.6-.3,3.6-.3c2.1.5,3.2,1.4,3.3,3.2,1.3,4.4-.7,5.4-11.7,4.9-8.1.3-11,.2-11.6-1.2"/>
        <path class="cls-25" d="M48.4,92.6c-.4-3.2-.4-5.5.8-9.4-.8-.1,10,.4,64.7.4h61.5c0,0,.9,7.6.9,7.6l.3,9.6-129-.3.6-7.9"/>
        <path class="cls-13" d="M51.7,174.5c-2.2-1.6-3.4-2.3-3.6-3.6-.3-2.1,0-17.6,0-37.3-.3-34.2,0-35.2,1.5-37.7,1.9,1.4,3.2,1.6,15.4,1.5,10.3-.9,12.9-.9,12.9,0,2.2.7,2.4.7,4.1,0,.8-1.4,3.2-1.7,14.3,1,12.9-2,13.4-1.5,18.2-.9l-3,2.2v-1.7s2.2-.9,2.2-.9l15.2,1.2c17.2-1.6,13.4-1.7,30,1.3,11-2.4,14.5-3,16.7-4.4,1.3,2.9,1.2,4.9.8,39,0,31.8.6,37.1-.2,38.8-1.7,2.1-2.2,1.4-62.8,1.5-33.5,0-62-.2-61.8.2"/>
        <path class="cls-13" d="M90.5,69.7c-5-6.7-5.1-11.6-1.9-15.6,1.1-1,2.7-1.7,3.5-1.9.8.2,1.7-.8,1.4-2.6,1-3.7,2.6-4.8,5.9-5.1,2.9,0,4.5,1.1,5.6,5.3-.5,1.3.5,3.1,1.4,2.7.6,0,2.3.8,3.5,1.6,3.1,4.2,2.9,8.5-1.9,15.5-3.4,6.5-7.1,8.8-5.4,2.4,1.6-2.1,3.4-5,4.7-6.5,2.3-3.7,2.1-7.9,0-9.9-.7-1.7-15.8-1.8-16.4.3-2.4,2.1-2.1,7.3.7,10.3,5.6,7.6,6.1,8.6,3.9,9.8-1.1.2-3-3-5.1-6.3"/>
        <path class="cls-13" d="M117.1,69.5c-5.6-7.9-4.7-14,.7-16.9,1.8-.3,2.8-1.4,2.6-3.5.1-3.2,3.3-5.3,7.3-4.2,2.2.8,3.2,1.3,3.4,3.3-.4,3,.3,4.4,2.1,4.1,3.7,1,6,4.6,5.8,8.6,0,3.2-7.2,14.6-8.8,15-2.9-.9-2.8-1.5,2.1-7.7,4.4-5.9,4.6-8.8,2.5-11.6-1.3-1.9-1.6-2-8.7-1.9-5-.6-8.3-.1-8.4,1.5-2.1,1.5-1.8,7.1,1,10.2,5.6,8.2,5.7,8.4,3.6,9.4-1,.4-2.9-2.9-5.2-6.1"/>
        <path class="cls-17" d="M50.4,163.1l.2-7.9,28.6-.3v8c0,0,.2,8.6.2,8.6l-14.9-.2-14.2.2v-8.3"/>
        <path class="cls-19" d="M82.1,171.3c-.6-1.5-.8-4.5-.3-8.6v-7.6c0,0,28.7,0,28.7,0v8.1s.2,8.3.2,8.3l-14.3-.3c-7.6.1-14,0-14.3,0"/>
        <path class="cls-9" d="M113.5,170.8c-.5-1.1-.8-4.2-.4-8.3l-.2-7.5h29.3c0-.1,0,16.3,0,16.3h-14.5c-7.3.1-13.5,0-14.3-.5"/>
        <path class="cls-4" d="M144.7,162.6v-7.5s29.1-.2,29.1-.2l.2,8v8.4c-.1,0-14.6-.2-14.6-.2h-15c0,.1.2-8.5.2-8.5"/>
        <path class="cls-6" d="M50.6,143.7l-.3-7.4,28.6-.2.2,16.2h-28.3s-.2-8.5-.2-8.5"/>
        <path class="cls-8" d="M81.5,143.6v-7.5c.1,0,29.1,0,29.1,0l.3,16-29.5-.2v-8.5"/>
        <path class="cls-5" d="M113.2,144.2v-8.1c.1,0,29.2-.2,29.2-.2v16.3c0,0-29.5-.1-29.5-.1l.4-7.9"/>
        <path class="cls-1" d="M144.6,144.5l-.2-9,15.2.4h14.3c0,0,0,16.3,0,16.3h-28.8c0,.1-.4-7.7-.4-7.7"/>
        <path class="cls-3" d="M50.6,125.1l-.2-8.4h28.9c0-.1,0,16.1,0,16.1h-28.8c0,0,0-7.7,0-7.7"/>
        <path class="cls-7" d="M81.6,125l-.2-8.5,29.3.2v16.2c0,0-29,0-29,0v-7.9"/>
        <path class="cls-2" d="M113.2,124.8l-.2-8.2h29.3s-.1,16.3-.1,16.3h-28.9c0,0,0-8.2,0-8.2"/>
        <path class="cls-11" d="M144.7,125.4l-.3-9.1,15.7.2h14.1c0-.1-.5,16.4-.5,16.4h-29.2c0,0,.2-7.5.2-7.5"/>
        <path class="cls-10" d="M50.8,105.2l-.2-8.3h28.7c0,0,.1,17,.1,17h-28.6c0,0,0-8.8,0-8.8"/>
        <path class="cls-20" d="M81.5,105.9v-8.9c0,0,29.2,0,29.2,0v16.7s-29,0-29,0l-.2-7.7"/>
        <path class="cls-14" d="M113.1,105.8l-.2-8.8,29.4.2v16.6c0,0-29.2.2-29.2.2v-8"/>
        <path class="cls-18" d="M144.4,106v-9.1s29.5,0,29.5,0v16.8s-29.3,0-29.3,0l-.2-7.7"/>
        <path class="cls-21" d="M96.6,49.7c.2-1.3,1.6-2.4,2.9-2.4,1,.1,2.4,1.2,2.5,2.6.2,2.1-.3,2.7-2.4,2.6-2.4.3-3.2-.6-2.9-2.8"/>
        <path class="cls-15" d="M122.6,50c0-1.2,1.3-2.1,2.8-2.4,1.5,0,2.8.8,3.1,2.3.5,1.6,0,2.2-2.5,2.2-2.6.6-3.5,0-3.4-2.1"/>
      </g>
    </g>
  </g>
</svg>