<?xml version="1.0" ?>
<svg xmlns="http://www.w3.org/2000/svg" version="1.1" width="224" height="224">
  <defs/>
  <g>
    <path d="M 74.63550567626953 35.53565216064453 C 77.98908233642578 35.53565216064453 81.34265899658203 35.53565216064453 84.69623565673828 35.53565216064453 C 90.4034423828125 35.954559326171875 94.2061767578125 39.75652313232422 94.62509155273438 45.4637336730957 C 94.62509155273438 53.1002311706543 94.62509155273438 60.73674011230469 94.62509155273438 68.37324523925781 C 94.1619644165039 70.0721435546875 93.7802963256836 70.45613861083984 92.0813980102539 70.91770935058594 C 83.80412292480469 70.91770935058594 75.52761840820312 70.91770935058594 67.25111389160156 70.91770935058594 C 65.5460205078125 70.45768737792969 65.16667175292969 70.07757568359375 64.70664978027344 68.37324523925781 C 64.70664978027344 60.73674011230469 64.70664978027344 53.1002311706543 64.70664978027344 45.4637336730957 C 65.12555694580078 39.757293701171875 68.9290771484375 35.954559326171875 74.63550567626953 35.53565216064453 C 74.63550567626953 35.53565216064453 74.63550567626953 35.53565216064453 74.63550567626953 35.53565216064453" stroke-width="0.0" fill="rgb(15, 83, 168)" opacity="1.0"/>
    <path d="M 139.30531311035156 28.0 C 142.65966796875 28.0 146.01324462890625 28.0 149.3675994873047 28.0 C 155.07403564453125 28.418899536132812 158.87599182128906 32.22163391113281 159.29490661621094 37.928070068359375 C 159.29490661621094 48.76610565185547 159.29490661621094 59.60414123535156 159.29490661621094 70.44216918945312 C 158.8341064453125 72.13874816894531 158.44776916503906 72.51343536376953 156.75120544433594 72.97113037109375 C 148.47471618652344 72.97113037109375 140.19821166992188 72.97113037109375 131.92169189453125 72.97113037109375 C 130.2165985107422 72.51188659667969 129.83724975585938 72.13175964355469 129.37802124023438 70.42743682861328 C 129.37802124023438 59.59405517578125 129.37802124023438 48.76068115234375 129.37802124023438 37.928070068359375 C 129.7969207763672 32.22163391113281 133.598876953125 28.418899536132812 139.30531311035156 28.0 C 139.30531311035156 28.0 139.30531311035156 28.0 139.30531311035156 28.0" stroke-width="0.0" fill="rgb(15, 83, 168)" opacity="1.0"/>
    <path d="M 49.705928802490234 135.65501403808594 C 55.31074523925781 135.65501403808594 60.916324615478516 135.65501403808594 66.52113342285156 135.65501403808594 C 68.53189086914062 136.05995178222656 69.30531311035156 136.8333740234375 69.71025085449219 138.84413146972656 C 69.71025085449219 152.44229125976562 69.71025085449219 166.0404510498047 69.71025085449219 179.63783264160156 C 69.30531311035156 181.64859008789062 68.53189086914062 182.42279052734375 66.52113342285156 182.82696533203125 C 60.916324615478516 182.82850646972656 55.31074523925781 182.82928466796875 49.705928802490234 182.83004760742188 C 42.90568542480469 182.4072723388672 38.19841766357422 177.70155334472656 37.775634765625 170.90054321289062 C 37.775634765625 163.12828063964844 37.775634765625 155.35678100585938 37.775634765625 147.58453369140625 C 38.19841766357422 140.78428649902344 42.90568542480469 136.0778045654297 49.705928802490234 135.65501403808594 C 49.705928802490234 135.65501403808594 49.705928802490234 135.65501403808594 49.705928802490234 135.65501403808594" stroke-width="0.0" fill="rgb(15, 83, 168)" opacity="1.0"/>
    <path d="M 157.47886657714844 135.63949584960938 C 163.08367919921875 135.63949584960938 168.6884765625 135.63949584960938 174.2940673828125 135.63949584960938 C 181.0943145751953 136.06228637695312 185.80157470703125 140.76956176757812 186.224365234375 147.56979370117188 C 186.224365234375 155.34127807617188 186.224365234375 163.11354064941406 186.224365234375 170.88502502441406 C 185.8170928955078 177.69146728515625 181.0950927734375 182.406494140625 174.2940673828125 182.83004760742188 C 168.6884765625 182.83004760742188 163.08367919921875 182.83004760742188 157.47886657714844 182.83004760742188 C 155.4673309326172 182.42510986328125 154.69390869140625 181.6524658203125 154.28897094726562 179.64093017578125 C 154.28897094726562 166.037353515625 154.28897094726562 152.4329833984375 154.28897094726562 138.82861328125 C 154.69390869140625 136.81787109375 155.4673309326172 136.04444885253906 157.47886657714844 135.63949584960938 C 157.47886657714844 135.63949584960938 157.47886657714844 135.63949584960938 157.47886657714844 135.63949584960938" stroke-width="0.0" fill="rgb(15, 83, 168)" opacity="1.0"/>
    <path d="M 74.63240051269531 38.080116271972656 C 77.98597717285156 38.080116271972656 81.34033203125 38.080116271972656 84.69390869140625 38.080116271972656 C 89.01795196533203 38.516868591308594 91.63844299316406 41.137359619140625 92.0751953125 45.46062469482422 C 92.0751953125 53.097129821777344 92.0751953125 60.73363494873047 92.0751953125 68.3701400756836 C 83.80023956298828 68.3701400756836 75.5252914428711 68.3701400756836 67.25111389160156 68.3701400756836 C 67.25111389160156 60.73363494873047 67.25111389160156 53.097129821777344 67.25111389160156 45.46062469482422 C 67.6878662109375 41.13658142089844 70.30836486816406 38.516090393066406 74.63240051269531 38.080116271972656 C 74.63240051269531 38.080116271972656 74.63240051269531 38.080116271972656 74.63240051269531 38.080116271972656" stroke-width="0.0" fill="rgb(15, 83, 168)" opacity="1.0"/>
    <path d="M 139.30221557617188 30.547561645507812 C 142.6565704345703 30.547561645507812 146.01014709472656 30.547561645507812 149.36448669433594 30.547561645507812 C 153.68775939941406 30.983535766601562 156.30825805664062 33.604026794433594 156.7449951171875 37.928070068359375 C 156.7449951171875 48.7598991394043 156.7449951171875 59.59172821044922 156.7449951171875 70.42433166503906 C 148.4708251953125 70.42433166503906 140.1958770751953 70.42433166503906 131.92169189453125 70.42433166503906 C 131.92169189453125 59.59172821044922 131.92169189453125 48.7598991394043 131.92169189453125 37.928070068359375 C 132.35845947265625 33.60480499267578 134.97894287109375 30.983535766601562 139.30221557617188 30.547561645507812 C 139.30221557617188 30.547561645507812 139.30221557617188 30.547561645507812 139.30221557617188 30.547561645507812" stroke-width="0.0" fill="rgb(15, 83, 168)" opacity="1.0"/>
    <path d="M 49.70282745361328 138.20179748535156 C 55.30918884277344 138.20179748535156 60.91477584838867 138.20179748535156 66.52113342285156 138.20179748535156 C 66.73602294921875 138.41668701171875 66.95167541503906 138.63235473632812 67.16656494140625 138.84722900390625 C 67.16656494140625 152.44540405273438 67.16656494140625 166.04354858398438 67.16656494140625 179.64093017578125 C 66.95167541503906 179.85659790039062 66.73602294921875 180.0714874267578 66.52113342285156 180.28636169433594 C 60.916324615478516 180.28636169433594 55.31074523925781 180.28636169433594 49.705928802490234 180.28636169433594 C 44.28264617919922 179.84884643554688 40.75995635986328 176.32693481445312 40.32243347167969 170.90286254882812 C 40.3216552734375 163.12982177734375 40.320106506347656 155.35757446289062 40.31932830810547 147.58453369140625 C 40.756858825683594 142.16123962402344 44.27954864501953 138.63934326171875 49.70282745361328 138.20179748535156 C 49.70282745361328 138.20179748535156 49.70282745361328 138.20179748535156 49.70282745361328 138.20179748535156" stroke-width="0.0" fill="rgb(15, 83, 168)" opacity="1.0"/>
    <path d="M 157.47886657714844 138.1831817626953 C 163.08367919921875 138.1831817626953 168.6884765625 138.1831817626953 174.2940673828125 138.1831817626953 C 179.71734619140625 138.62071228027344 183.2400360107422 142.14340209960938 183.67758178710938 147.56668090820312 C 183.67758178710938 155.3381805419922 183.67758178710938 163.11044311523438 183.67758178710938 170.8819122314453 C 183.25555419921875 176.31607055664062 179.72357177734375 179.84495544433594 174.2940673828125 180.28326416015625 C 168.6884765625 180.28404235839844 163.08367919921875 180.28558349609375 157.47886657714844 180.28636169433594 C 157.26321411132812 180.0714874267578 157.04830932617188 179.85659790039062 156.83343505859375 179.64093017578125 C 156.83343505859375 166.037353515625 156.83343505859375 152.4329833984375 156.83343505859375 138.82861328125 C 157.04830932617188 138.61373901367188 157.26321411132812 138.3980712890625 157.47886657714844 138.1831817626953 C 157.47886657714844 138.1831817626953 157.47886657714844 138.1831817626953 157.47886657714844 138.1831817626953" stroke-width="0.0" fill="rgb(15, 83, 168)" opacity="1.0"/>
    <path d="M 74.63550567626953 40.626914978027344 C 74.63550567626953 40.626914978027344 74.63550567626953 40.626914978027344 74.63550567626953 40.626914978027344 C 71.68144226074219 41.105552673339844 70.27732849121094 42.509666442871094 69.79869079589844 45.4637336730957 C 69.79869079589844 52.251564025878906 69.79869079589844 59.03861999511719 69.79869079589844 65.82644653320312 C 76.3770751953125 65.82644653320312 82.9554443359375 65.82644653320312 89.53382873535156 65.82644653320312 C 89.53382873535156 59.03861999511719 89.53382873535156 52.251564025878906 89.53382873535156 45.4637336730957 C 89.05596160888672 42.508888244628906 87.65107727050781 41.105552673339844 84.69623565673828 40.626914978027344 C 81.34265899658203 40.626914978027344 77.98908233642578 40.626914978027344 74.63550567626953 40.626914978027344" stroke-width="0.0" fill="rgb(181, 204, 238)" opacity="1.0"/>
    <path d="M 139.30531311035156 33.09125518798828 C 139.30531311035156 33.09125518798828 139.30531311035156 33.09125518798828 139.30531311035156 33.09125518798828 C 136.35125732421875 33.56990051269531 134.9471435546875 34.97400665283203 134.468505859375 37.928070068359375 C 134.468505859375 47.9119987487793 134.468505859375 57.895938873291016 134.468505859375 67.87908935546875 C 141.046875 67.87908935546875 147.62603759765625 67.87908935546875 154.20440673828125 67.87908935546875 C 154.20440673828125 57.895938873291016 154.20440673828125 47.9119987487793 154.20440673828125 37.928070068359375 C 153.72576904296875 34.97400665283203 152.32167053222656 33.56990051269531 149.3675994873047 33.09125518798828 C 146.01324462890625 33.09125518798828 142.65966796875 33.09125518798828 139.30531311035156 33.09125518798828" stroke-width="0.0" fill="rgb(181, 204, 238)" opacity="1.0"/>
    <path d="M 49.705928802490234 140.7276611328125 C 49.705928802490234 140.7276611328125 49.705928802490234 140.7276611328125 49.705928802490234 140.7276611328125 C 45.66193389892578 141.1954345703125 43.334678649902344 143.52268981933594 42.866119384765625 147.56668090820312 C 42.866119384765625 155.3381805419922 42.866119384765625 163.11044311523438 42.866119384765625 170.8819122314453 C 43.334678649902344 174.92593383789062 45.66271209716797 177.253173828125 49.705928802490234 177.720947265625 C 54.6777229309082 177.720947265625 59.650299072265625 177.720947265625 64.6220932006836 177.720947265625 C 64.6220932006836 165.3896026611328 64.6220932006836 153.0582275390625 64.6220932006836 140.7276611328125 C 59.650299072265625 140.7276611328125 54.6777229309082 140.7276611328125 49.705928802490234 140.7276611328125" stroke-width="0.0" fill="rgb(181, 204, 238)" opacity="1.0"/>
    <path d="M 159.37713623046875 140.74549865722656 C 159.37713623046875 153.0768585205078 159.37713623046875 165.408203125 159.37713623046875 177.7395782470703 C 164.34970092773438 177.7395782470703 169.3214874267578 177.7395782470703 174.2940673828125 177.7395782470703 C 178.3372802734375 177.27178955078125 180.66531372070312 174.9445343017578 181.1331024169922 170.90054321289062 C 181.1331024169922 163.12828063964844 181.1331024169922 155.35678100585938 181.1331024169922 147.58453369140625 C 180.66531372070312 143.54132080078125 178.3372802734375 141.21405029296875 174.2940673828125 140.74549865722656 C 169.3214874267578 140.74549865722656 164.34970092773438 140.74549865722656 159.37713623046875 140.74549865722656" stroke-width="0.0" fill="rgb(181, 204, 238)" opacity="1.0"/>
    <path d="M 63.85642623901367 69.93328094482422 C 95.9570541381836 69.93328094482422 128.05845642089844 69.93328094482422 160.15908813476562 69.93328094482422 C 167.13775634765625 70.36848449707031 171.975341796875 75.20606994628906 172.41055297851562 82.18473815917969 C 172.41055297851562 115.53044891357422 172.41055297851562 148.87615966796875 172.41055297851562 182.22186279296875 C 171.9404296875 190.046875 166.44422912597656 195.54696655273438 158.61456298828125 196.0 C 127.53715515136719 196.0 96.4597396850586 196.0 65.38233184814453 196.0 C 57.554988861083984 195.5477294921875 52.0572395324707 190.04843139648438 51.6049690246582 182.22186279296875 C 51.6049690246582 148.87615966796875 51.6049690246582 115.53044891357422 51.6049690246582 82.18473815917969 C 52.04016876220703 75.20606994628906 56.87775421142578 70.36848449707031 63.85642623901367 69.93328094482422 C 63.85642623901367 69.93328094482422 63.85642623901367 69.93328094482422 63.85642623901367 69.93328094482422" stroke-width="0.0" fill="rgb(15, 83, 168)" opacity="1.0"/>
    <path d="M 63.85642623901367 72.47697448730469 C 95.9570541381836 72.47697448730469 128.05845642089844 72.47697448730469 160.15908813476562 72.47697448730469 C 165.76931762695312 72.93000793457031 169.4130401611328 76.57449340820312 169.86607360839844 82.18473815917969 C 169.86607360839844 115.53044891357422 169.86607360839844 148.87615966796875 169.86607360839844 182.22186279296875 C 169.4161376953125 188.648193359375 165.04554748535156 193.0226593017578 158.61456298828125 193.45553588867188 C 127.53715515136719 193.45553588867188 96.4597396850586 193.45553588867188 65.38233184814453 193.45553588867188 C 58.953678131103516 193.0226593017578 54.58153533935547 188.65054321289062 54.14866638183594 182.22186279296875 C 54.14866638183594 148.87615966796875 54.14866638183594 115.53044891357422 54.14866638183594 82.18473815917969 C 54.60092544555664 76.57449340820312 58.24618911743164 72.93000793457031 63.85642623901367 72.47697448730469 C 63.85642623901367 72.47697448730469 63.85642623901367 72.47697448730469 63.85642623901367 72.47697448730469" stroke-width="0.0" fill="rgb(15, 83, 168)" opacity="1.0"/>
    <path d="M 63.85642623901367 75.02454376220703 C 63.85642623901367 75.02454376220703 63.85642623901367 75.02454376220703 63.85642623901367 75.02454376220703 C 59.665035247802734 75.44888305664062 57.120567321777344 77.99412536621094 56.69623565673828 82.18473815917969 C 56.69623565673828 115.53044891357422 56.69623565673828 148.87615966796875 56.69623565673828 182.22186279296875 C 57.15082550048828 187.26657104492188 60.34071731567383 190.45648193359375 65.38543701171875 190.91107177734375 C 96.45663452148438 190.91107177734375 127.52783966064453 190.91107177734375 158.5990447998047 190.91107177734375 C 163.64376831054688 190.45648193359375 166.8336639404297 187.26657104492188 167.2882537841797 182.22186279296875 C 167.2874755859375 148.87615966796875 167.28671264648438 115.53044891357422 167.28514099121094 82.18473815917969 C 166.86158752441406 77.99412536621094 164.31634521484375 75.44888305664062 160.125732421875 75.02454376220703 C 128.0359649658203 75.02454376220703 95.94619750976562 75.02454376220703 63.85642623901367 75.02454376220703" stroke-width="0.0" fill="rgb(181, 204, 238)" opacity="1.0"/>
    <path d="M 54.915103912353516 48.650516510009766 C 92.9665298461914 48.650516510009766 131.01795959472656 48.650516510009766 169.06936645507812 48.650516510009766 C 175.29013061523438 49.1074333190918 179.43963623046875 53.25693130493164 179.8973388671875 59.477691650390625 C 179.8973388671875 68.23981475830078 179.8973388671875 77.00271606445312 179.8973388671875 85.76483154296875 C 179.44119262695312 91.97628021240234 175.30255126953125 96.13431549072266 169.08721923828125 96.59278106689453 C 131.0295867919922 96.59278106689453 92.97196197509766 96.59278106689453 54.915103912353516 96.59278106689453 C 48.6943473815918 96.13508605957031 44.54485321044922 91.98558807373047 44.08793640136719 85.76483154296875 C 44.08793640136719 77.00271606445312 44.08793640136719 68.23981475830078 44.08793640136719 59.477691650390625 C 44.54485321044922 53.25693130493164 48.6943473815918 49.1074333190918 54.915103912353516 48.650516510009766 C 54.915103912353516 48.650516510009766 54.915103912353516 48.650516510009766 54.915103912353516 48.650516510009766" stroke-width="0.0" fill="rgb(15, 83, 168)" opacity="1.0"/>
    <path d="M 90.12417602539062 119.90802001953125 C 104.7067642211914 119.90802001953125 119.28935241699219 119.90802001953125 133.8719482421875 119.90802001953125 C 141.26332092285156 120.33545684814453 146.4593048095703 125.53067016601562 146.88673400878906 132.92282104492188 C 146.88673400878906 145.21926879882812 146.88673400878906 157.51571655273438 146.88673400878906 169.8129425048828 C 146.4593048095703 177.205078125 141.26332092285156 182.39950561523438 133.8719482421875 182.82696533203125 C 119.28935241699219 182.82850646972656 104.7067642211914 182.82928466796875 90.12417602539062 182.83004760742188 C 82.73280334472656 182.40261840820312 77.53759765625 177.2073974609375 77.109375 169.8160400390625 C 77.109375 157.51803588867188 77.109375 145.2200469970703 77.109375 132.92282104492188 C 77.53759765625 125.53067016601562 82.73280334472656 120.33545684814453 90.12417602539062 119.90802001953125 C 90.12417602539062 119.90802001953125 90.12417602539062 119.90802001953125 90.12417602539062 119.90802001953125" stroke-width="0.0" fill="rgb(15, 83, 168)" opacity="1.0"/>
    <path d="M 54.91200256347656 51.19731140136719 C 92.96342468261719 51.19731140136719 131.0148468017578 51.19731140136719 169.06626892089844 51.19731140136719 C 173.88214111328125 51.62862777709961 176.9153289794922 54.66182327270508 177.34742736816406 59.477691650390625 C 177.34742736816406 68.23981475830078 177.34742736816406 77.00271606445312 177.34742736816406 85.76483154296875 C 176.91766357421875 90.57760620117188 173.8976593017578 93.6138916015625 169.081787109375 94.04521179199219 C 131.0264892578125 94.04521179199219 92.97041320800781 94.04521179199219 54.915103912353516 94.04521179199219 C 50.099239349365234 93.6138916015625 47.06682205200195 90.57992553710938 46.634727478027344 85.76483154296875 C 46.63395309448242 77.00271606445312 46.63240051269531 68.23981475830078 46.63162612915039 59.477691650390625 C 47.06294250488281 54.66182327270508 50.09690856933594 51.62940979003906 54.91200256347656 51.19731140136719 C 54.91200256347656 51.19731140136719 54.91200256347656 51.19731140136719 54.91200256347656 51.19731140136719" stroke-width="0.0" fill="rgb(15, 83, 168)" opacity="1.0"/>
    <path d="M 90.12417602539062 122.45170593261719 C 104.7067642211914 122.45170593261719 119.28935241699219 122.45170593261719 133.8719482421875 122.45170593261719 C 139.89410400390625 122.89311218261719 143.90086364746094 126.89987182617188 144.34226989746094 132.92282104492188 C 144.34226989746094 145.21926879882812 144.34226989746094 157.51571655273438 144.34226989746094 169.8129425048828 C 143.90086364746094 175.83511352539062 139.89410400390625 179.84185791015625 133.8719482421875 180.28326416015625 C 119.28935241699219 180.28404235839844 104.7067642211914 180.28558349609375 90.12417602539062 180.28636169433594 C 84.10201263427734 179.84495544433594 80.09525299072266 175.83819580078125 79.65462493896484 169.8160400390625 C 79.65462493896484 157.51803588867188 79.65462493896484 145.2200469970703 79.65462493896484 132.92282104492188 C 80.09525299072266 126.89987182617188 84.10201263427734 122.89311218261719 90.12417602539062 122.45170593261719 C 90.12417602539062 122.45170593261719 90.12417602539062 122.45170593261719 90.12417602539062 122.45170593261719" stroke-width="0.0" fill="rgb(15, 83, 168)" opacity="1.0"/>
    <path d="M 169.06626892089844 53.74177551269531 C 131.015625 53.742557525634766 92.96498107910156 53.74333190917969 54.915103912353516 53.7448844909668 C 51.48007583618164 54.20956039428711 49.64309310913086 56.04576110839844 49.17841720581055 59.480796813964844 C 49.17841720581055 68.242919921875 49.17841720581055 77.00581359863281 49.17841720581055 85.76793670654297 C 49.64309310913086 89.20297241210938 51.48007583618164 91.03916931152344 54.915103912353516 91.50385284423828 C 92.9665298461914 91.50385284423828 131.01795959472656 91.50385284423828 169.06936645507812 91.50385284423828 C 172.50440979003906 91.03916931152344 174.34060668945312 89.20297241210938 174.80528259277344 85.76793670654297 C 174.80450439453125 77.00426483154297 174.80374145507812 68.24136352539062 174.80218505859375 59.477691650390625 C 174.33750915527344 56.042659759521484 172.50131225585938 54.206459045410156 169.06626892089844 53.74177551269531 C 169.06626892089844 53.74177551269531 169.06626892089844 53.74177551269531 169.06626892089844 53.74177551269531" stroke-width="0.0" fill="rgb(136, 182, 244)" opacity="1.0"/>
    <path d="M 133.8719482421875 124.99617767333984 C 119.28935241699219 124.99695587158203 104.7067642211914 124.99772644042969 90.12417602539062 124.99927520751953 C 85.5193099975586 125.41275787353516 82.61256408691406 128.321044921875 82.19831848144531 132.92591857910156 C 82.19831848144531 145.2223663330078 82.19831848144531 157.51881408691406 82.19831848144531 169.8160400390625 C 82.61178588867188 174.4208984375 85.5193099975586 177.32843017578125 90.12417602539062 177.74267578125 C 104.7067642211914 177.74267578125 119.28935241699219 177.74267578125 133.8719482421875 177.74267578125 C 138.4775848388672 177.32843017578125 141.38433837890625 174.4208984375 141.798583984375 169.8160400390625 C 141.798583984375 157.51803588867188 141.798583984375 145.2200469970703 141.798583984375 132.92282104492188 C 141.38433837890625 128.31716918945312 138.47682189941406 125.4104232788086 133.8719482421875 124.99617767333984 C 133.8719482421875 124.99617767333984 133.8719482421875 124.99617767333984 133.8719482421875 124.99617767333984" stroke-width="0.0" fill="rgb(136, 182, 244)" opacity="1.0"/>
    <path d="M 111.99806213378906 78.16556549072266 C 111.99806213378906 78.16556549072266 111.99806213378906 78.16556549072266 111.99806213378906 78.16556549072266 C 117.16844940185547 78.58447265625 120.53831481933594 81.95433807373047 120.95722198486328 87.12472534179688 C 120.95722198486328 90.8863525390625 120.95722198486328 94.6479721069336 120.95722198486328 98.40959167480469 C 120.76095581054688 100.83692932128906 120.09690856933594 102.97257232666016 118.32897186279297 104.74050903320312 C 114.10810089111328 108.96138000488281 106.78656005859375 107.8210220336914 104.04116821289062 102.52185821533203 C 103.34842681884766 101.18523406982422 103.15913391113281 99.88662719726562 103.0396728515625 98.40959167480469 C 103.0396728515625 94.6479721069336 103.0396728515625 90.8863525390625 103.0396728515625 87.12472534179688 C 103.45858001708984 81.95433807373047 106.82767486572266 78.58447265625 111.99806213378906 78.16556549072266 C 111.99806213378906 78.16556549072266 111.99806213378906 78.16556549072266 111.99806213378906 78.16556549072266" stroke-width="0.0" fill="rgb(15, 83, 168)" opacity="1.0"/>
    <path d="M 79.65462493896484 137.6952362060547 C 101.21121978759766 137.6952362060547 122.76782989501953 137.6952362060547 144.32443237304688 137.6952362060547 C 146.39413452148438 138.2537841796875 148.2574920654297 140.9200439453125 145.6207275390625 142.43740844726562 C 145.23748779296875 142.65850830078125 144.7666015625 142.66859436035156 144.33917236328125 142.7841796875 C 122.77790832519531 142.7841796875 101.21588134765625 142.7841796875 79.65462493896484 142.7841796875 C 77.57638549804688 142.22409057617188 75.72388458251953 139.5570526123047 78.36842346191406 138.04200744628906 C 78.75397491455078 137.82168579101562 79.22563171386719 137.81082153320312 79.65462493896484 137.6952362060547 C 79.65462493896484 137.6952362060547 79.65462493896484 137.6952362060547 79.65462493896484 137.6952362060547" stroke-width="0.0" fill="rgb(15, 83, 168)" opacity="1.0"/>
    <path d="M 111.99806213378906 83.23898315429688 C 111.99806213378906 83.23898315429688 111.99806213378906 83.23898315429688 111.99806213378906 83.23898315429688 C 109.5606460571289 83.73003387451172 108.62198638916016 84.66869354248047 108.13016510009766 87.10610961914062 C 108.13016510009766 90.86772918701172 108.13016510009766 94.63013458251953 108.13016510009766 98.39175415039062 C 108.39081573486328 99.68183135986328 108.28376007080078 100.14883422851562 109.26275634765625 101.12705993652344 C 110.75297546386719 102.61727905273438 113.2439193725586 102.61727905273438 114.73413848876953 101.12705993652344 C 115.71235656738281 100.14883422851562 115.6060791015625 99.68183135986328 115.865966796875 98.39175415039062 C 115.865966796875 94.63013458251953 115.865966796875 90.86772918701172 115.865966796875 87.10610961914062 C 115.37335968017578 84.67335510253906 114.43003845214844 83.73313903808594 111.99806213378906 83.23898315429688 C 111.99806213378906 83.23898315429688 111.99806213378906 83.23898315429688 111.99806213378906 83.23898315429688" stroke-width="0.0" fill="rgb(181, 204, 238)" opacity="1.0"/>
    <path d="M 105.58647155761719 86.69728088378906 C 109.86318969726562 86.69728088378906 114.13990783691406 86.69728088378906 118.41663360595703 86.69728088378906 C 118.41508483886719 90.56130981445312 118.414306640625 94.424560546875 118.41352844238281 98.28857421875 C 114.13681030273438 98.28857421875 109.8600845336914 98.28857421875 105.58336639404297 98.28857421875 C 105.58413696289062 94.424560546875 105.58568572998047 90.56130981445312 105.58647155761719 86.69728088378906" stroke-width="0.0" fill="rgb(15, 83, 168)" opacity="1.0"/>
  </g>
</svg>
