<?xml version="1.0" ?>
<svg xmlns="http://www.w3.org/2000/svg" version="1.1" width="224" height="224">
  <defs/>
  <g>
    <path d="M 111.91644287109375 32.955596923828125 C 111.91644287109375 32.955596923828125 111.91644287109375 32.955596923828125 111.91644287109375 32.955596923828125 C 123.20233154296875 33.055572509765625 134.27755737304688 35.38787841796875 144.52297973632812 40.17317199707031 C 153.514404296875 44.372169494628906 161.64175415039062 50.31575393676758 168.39871215820312 57.58188247680664 C 174.82504272460938 64.49166870117188 179.94952392578125 72.56402587890625 183.46511840820312 81.32051086425781 C 196.0 112.54093933105469 186.2887420654297 149.19293212890625 160.07212829589844 170.22293090820312 C 153.82504272460938 175.23458862304688 146.79815673828125 179.24078369140625 139.31634521484375 182.0936737060547 C 130.581298828125 185.42501831054688 121.2620849609375 187.10533142089844 111.91644287109375 187.10533142089844 C 102.57009887695312 187.10533142089844 93.25160217285156 185.42501831054688 84.51654052734375 182.0936737060547 C 76.5941390991211 179.07296752929688 69.18019104003906 174.75112915039062 62.66317367553711 169.32528686523438 C 37.24707794189453 148.16531372070312 27.99999237060547 112.04605865478516 40.36561584472656 81.32266235351562 C 43.889060974121094 72.56831359863281 49.007850646972656 64.49166870117188 55.43417739868164 57.58116912841797 C 62.191139221191406 50.31575393676758 70.31849670410156 44.36360168457031 79.31277465820312 40.16888427734375 C 89.55534362792969 35.393592834472656 100.63627624511719 33.05628967285156 111.91644287109375 32.955596923828125 C 111.91644287109375 32.955596923828125 111.91644287109375 32.955596923828125 111.91644287109375 32.955596923828125" stroke-width="0.0" fill="rgb(15, 83, 168)" opacity="1.0"/>
    <path d="M 74.54962158203125 45.30980682373047 C 74.54962158203125 45.30980682373047 74.54962158203125 45.30980682373047 74.54962158203125 45.30980682373047 C 65.0911636352539 50.89418411254883 56.880977630615234 58.28742599487305 50.59247589111328 67.31813049316406 C 44.941673278808594 75.43191528320312 40.92762756347656 84.66114807128906 38.85026550292969 94.32814025878906 C 36.93357849121094 103.2474365234375 36.66935729980469 112.509521484375 38.0711669921875 121.5238037109375 C 39.37657165527344 129.9189453125 42.127342224121094 138.07843017578125 46.1663818359375 145.55380249023438 C 49.97047805786133 152.5935516357422 54.907875061035156 159.0127410888672 60.73934555053711 164.49285888671875 C 84.4894027709961 186.81112670898438 121.06140899658203 191.04440307617188 149.2825469970703 174.75112915039062 C 177.50369262695312 158.45787048339844 192.123779296875 124.66876983642578 184.67056274414062 92.94061279296875 C 182.84027099609375 85.15031433105469 179.75030517578125 77.66496276855469 175.55487060546875 70.85086059570312 C 171.10093688964844 63.61544418334961 165.41014099121094 57.15340805053711 158.79171752929688 51.82539367675781 C 151.686279296875 46.1046142578125 143.533203125 41.70208740234375 134.85098266601562 38.90203857421875 C 125.44036865234375 35.86705017089844 115.44061279296875 34.729461669921875 105.58795166015625 35.56568908691406 C 94.62342071533203 36.496185302734375 84.11520385742188 39.910369873046875 74.54962158203125 45.30980682373047 C 74.54962158203125 45.30980682373047 74.54962158203125 45.30980682373047 74.54962158203125 45.30980682373047" stroke-width="0.0" fill="rgb(15, 83, 168)" opacity="1.0"/>
    <path d="M 111.91358947753906 37.63948059082031 C 111.914306640625 37.63948059082031 111.91573333740234 37.63948059082031 111.91644287109375 37.63948059082031 C 101.27397918701172 37.73802947998047 90.83289337158203 39.93965148925781 81.17662048339844 44.46357727050781 C 72.73648071289062 48.417633056640625 65.10687255859375 54.0327262878418 58.773380279541016 60.86681365966797 C 52.76052474975586 67.3531265258789 47.9802360534668 74.919189453125 44.68601989746094 83.12651062011719 C 33.05950164794922 112.09390258789062 41.88311767578125 146.10438537597656 65.91667938232422 165.93966674804688 C 72.00736999511719 170.96632385253906 78.91716003417969 174.9617919921875 86.29969024658203 177.76255798339844 C 94.46987915039062 180.86111450195312 103.18138122558594 182.41860961914062 111.91644287109375 182.41787719726562 C 121.1142578125 182.41787719726562 130.27565002441406 180.68185424804688 138.8157501220703 177.25982666015625 C 168.36801147460938 165.41836547851562 186.9792938232422 134.76565551757812 183.97857666015625 103.10176086425781 C 183.285888671875 95.79707336425781 181.46131896972656 88.62163543701172 178.60272216796875 81.86466979980469 C 175.33706665039062 74.14508056640625 170.73245239257812 67.03392028808594 165.03952026367188 60.88323974609375 C 158.70745849609375 54.042724609375 151.08212280273438 48.435489654541016 142.63912963867188 44.480712890625 C 132.98428344726562 39.95893096923828 122.55534362792969 37.73945617675781 111.91358947753906 37.63948059082031 C 111.91358947753906 37.63948059082031 111.91358947753906 37.63948059082031 111.91358947753906 37.63948059082031" stroke-width="0.0" fill="rgb(136, 182, 244)" opacity="1.0"/>
    <path d="M 111.91644287109375 46.436676025390625 C 111.91644287109375 46.436676025390625 111.91644287109375 46.436676025390625 111.91644287109375 46.436676025390625 C 121.36134338378906 46.539512634277344 130.6169891357422 48.497615814208984 139.17068481445312 52.554508209228516 C 163.9290771484375 64.29670715332031 178.5670166015625 91.38312530517578 174.95071411132812 118.52593994140625 C 174.0859375 125.01940155029297 172.199951171875 131.3671875 169.39276123046875 137.28504943847656 C 166.07998657226562 144.26766967773438 161.48179626464844 150.61187744140625 155.90882873535156 155.9648895263672 C 150.3380126953125 161.3143310546875 143.791015625 165.6240234375 136.67483520507812 168.62545776367188 C 128.8524169921875 171.92466735839844 120.40442657470703 173.62496948242188 111.91644287109375 173.62496948242188 C 103.42774963378906 173.62496948242188 94.97834014892578 171.92752075195312 87.15734100341797 168.62545776367188 C 61.93977355957031 157.9779815673828 46.16852569580078 131.58070373535156 48.570804595947266 104.34361267089844 C 49.14924240112305 97.78588104248047 50.76028823852539 91.33599090576172 53.321109771728516 85.27172088623047 C 56.32610321044922 78.15555572509766 60.64508056640625 71.62139892578125 65.98381042480469 66.04058074951172 C 71.32611083984375 60.456912994384766 77.67816162109375 55.86371612548828 84.6614990234375 52.55379104614258 C 93.21661376953125 48.49904251098633 102.47084045410156 46.539512634277344 111.91644287109375 46.436676025390625 C 111.91644287109375 46.436676025390625 111.91644287109375 46.436676025390625 111.91644287109375 46.436676025390625" stroke-width="0.0" fill="rgb(15, 83, 168)" opacity="1.0"/>
    <path d="M 81.29159545898438 56.98630905151367 C 81.29159545898438 56.98630905151367 81.29159545898438 56.98630905151367 81.29159545898438 56.98630905151367 C 73.46846008300781 61.627349853515625 66.68792724609375 67.73089599609375 61.509159088134766 75.2341079711914 C 56.95381546020508 81.83253479003906 53.71458435058594 89.32075500488281 52.02998352050781 97.16031646728516 C 50.41322708129883 104.68352508544922 50.23112869262695 112.50308990478516 51.49510955810547 120.09342956542969 C 52.658409118652344 127.08604431152344 55.04854965209961 133.86444091796875 58.52201461791992 140.04368591308594 C 61.759098052978516 145.80160522460938 65.93025207519531 151.02749633789062 70.82908630371094 155.45787048339844 C 90.33015441894531 173.09225463867188 119.77386474609375 176.22006225585938 142.54058837890625 163.0746307373047 C 165.30731201171875 149.92990112304688 177.32586669921875 122.86634063720703 171.80218505859375 97.16031646728516 C 170.4146728515625 90.70256805419922 167.97381591796875 84.47762298583984 164.60533142089844 78.7961196899414 C 160.990478515625 72.69828796386719 156.31373596191406 67.24101257324219 150.84002685546875 62.73707962036133 C 144.89859008789062 57.84824752807617 138.03594970703125 54.09556579589844 130.71267700195312 51.733985900878906 C 123.0816421508789 49.272430419921875 114.9771499633789 48.3326530456543 106.9854736328125 48.97749710083008 C 97.89835357666016 49.71089553833008 89.22256469726562 52.530941009521484 81.29159545898438 56.98630905151367 C 81.29159545898438 56.98630905151367 81.29159545898438 56.98630905151367 81.29159545898438 56.98630905151367" stroke-width="0.0" fill="rgb(15, 83, 168)" opacity="1.0"/>
    <path d="M 111.91644287109375 51.12270736694336 C 111.91644287109375 51.12270736694336 111.91644287109375 51.12270736694336 111.91644287109375 51.12270736694336 C 103.06355285644531 51.22553634643555 94.3856201171875 53.07152557373047 86.38751983642578 56.91918182373047 C 79.552001953125 60.206966400146484 73.38133239746094 64.82801818847656 68.2768325805664 70.43667602539062 C 63.5051155090332 75.67971801757812 59.70673370361328 81.7896957397461 57.106632232666016 88.38455200195312 C 47.64388656616211 112.39169311523438 55.286354064941406 140.49072265625 75.58009338378906 156.4190673828125 C 80.40109252929688 160.20245361328125 85.81623077392578 163.21673583984375 91.56629180908203 165.33766174316406 C 98.0704574584961 167.73709106445312 104.98595428466797 168.938232421875 111.91644287109375 168.938232421875 C 119.31182861328125 168.93751525878906 126.6807861328125 167.5528564453125 133.56201171875 164.83993530273438 C 139.71340942382812 162.41407775878906 145.43846130371094 158.9363250732422 150.43870544433594 154.61093139648438 C 155.46035766601562 150.26766967773438 159.74649047851562 145.0874786376953 163.0478515625 139.32598876953125 C 175.60057067871094 117.42121124267578 172.51202392578125 89.13365936279297 155.55177307128906 70.44096374511719 C 150.4544219970703 64.82229614257812 144.28445434570312 60.204833984375 137.44607543945312 56.9184684753418 C 129.4458465576172 53.073665618896484 120.77005004882812 51.22553634643555 111.91644287109375 51.12270736694336 C 111.91644287109375 51.12270736694336 111.91644287109375 51.12270736694336 111.91644287109375 51.12270736694336" stroke-width="0.0" fill="rgb(181, 204, 238)" opacity="1.0"/>
    <path d="M 142.7362518310547 75.91252136230469 C 142.7362518310547 75.91252136230469 142.7362518310547 75.91252136230469 142.7362518310547 75.91252136230469 C 143.07974243164062 75.76112365722656 143.39752197265625 75.52474975585938 143.76744079589844 75.45762634277344 C 146.21542358398438 75.01416015625 146.77029418945312 77.51499938964844 146.0319061279297 79.20816040039062 C 136.67483520507812 91.35669708251953 127.31777954101562 103.50523376464844 117.96143341064453 115.65377044677734 C 117.46940612792969 116.06796264648438 116.8759765625 116.38288116455078 116.25755310058594 116.56069946289062 C 116.20542907714844 116.56069946289062 116.1532974243164 116.56069946289062 116.10116577148438 116.56069946289062 C 115.51558685302734 116.44287109375 114.94358825683594 116.20435333251953 114.44799041748047 115.87158203125 C 111.65721893310547 113.080810546875 108.8657455444336 110.28933715820312 106.0749740600586 107.49857330322266 C 105.18875885009766 106.12104034423828 105.23374938964844 105.23768615722656 106.29278564453125 103.98297882080078 C 118.44060516357422 94.62663269042969 130.5884246826172 85.26957702636719 142.7362518310547 75.91252136230469" stroke-width="0.0" fill="rgb(15, 83, 168)" opacity="1.0"/>
    <path d="M 107.76243591308594 54.56117630004883 C 108.23589324951172 54.56117630004883 108.71006774902344 54.56117630004883 109.18424224853516 54.56117630004883 C 111.00666809082031 57.003448486328125 112.82908630371094 59.44572448730469 114.6515121459961 61.88800048828125 C 114.6515121459961 59.44572448730469 114.6515121459961 57.003448486328125 114.6515121459961 54.56117630004883 C 115.35420227050781 54.56117630004883 116.05689239501953 54.56117630004883 116.75886535644531 54.56117630004883 C 116.75886535644531 58.42882537841797 116.75886535644531 62.296470642089844 116.75886535644531 66.16484069824219 C 116.2904052734375 66.16484069824219 115.82194519042969 66.16484069824219 115.35348510742188 66.16484069824219 C 113.52606201171875 63.7232780456543 111.69792175292969 61.28242874145508 109.86978912353516 58.84086990356445 C 109.86978912353516 61.28314208984375 109.86978912353516 63.72542190551758 109.86978912353516 66.16769409179688 C 109.16709899902344 66.16769409179688 108.46512603759766 66.16769409179688 107.76243591308594 66.16769409179688 C 107.76243591308594 62.298614501953125 107.76243591308594 58.43025588989258 107.76243591308594 54.56117630004883" stroke-width="0.0" fill="rgb(19, 85, 169)" opacity="1.0"/>
    <path d="M 111.37800598144531 153.6954345703125 C 111.43584442138672 153.6954345703125 111.49369049072266 153.6954345703125 111.55081939697266 153.6954345703125 C 113.36824798583984 153.89466857910156 114.45369720458984 154.35455322265625 115.6912612915039 155.71066284179688 C 115.8055191040039 155.87705993652344 115.9197769165039 156.04415893554688 116.03404235839844 156.21055603027344 C 115.53987121582031 156.67401123046875 115.04499053955078 157.13746643066406 114.55081939697266 157.60165405273438 C 114.39442443847656 157.3831329345703 114.2387466430664 157.16461181640625 114.08235931396484 156.9460906982422 C 113.24113464355469 156.138427734375 112.70626068115234 155.93560791015625 111.55081939697266 155.7749481201172 C 111.49369049072266 155.7749481201172 111.43584442138672 155.7749481201172 111.37800598144531 155.7749481201172 C 111.11377716064453 155.83920288085938 108.14591217041016 156.84754943847656 109.6198501586914 157.72518920898438 C 110.0961685180664 158.00869750976562 110.67674255371094 158.06082153320312 111.20519256591797 158.2286376953125 C 111.62722778320312 158.28648376464844 112.04927062988281 158.34432983398438 112.47059631347656 158.40145874023438 C 113.25255584716797 158.53857421875 113.96381378173828 158.59640502929688 114.66222381591797 159.06201171875 C 116.7959976196289 160.48452758789062 116.57676696777344 163.5616455078125 114.45584106445312 164.83277893066406 C 112.9704818725586 165.72256469726562 110.9609603881836 165.70684814453125 109.39775848388672 165.0320281982422 C 108.2673110961914 164.54356384277344 107.71101379394531 163.79588317871094 107.11759185791016 162.77041625976562 C 107.05545806884766 162.61973571777344 106.99333190917969 162.46905517578125 106.93048858642578 162.31838989257812 C 107.45108032226562 161.82920837402344 107.97167205810547 161.33932495117188 108.49226379394531 160.8494415283203 C 108.61723327636719 161.17222595214844 108.74148559570312 161.49429321289062 108.8657455444336 161.81707763671875 C 109.63912963867188 162.9446563720703 110.3196792602539 163.43453979492188 111.771484375 163.44239807128906 C 112.58200073242188 163.44668579101562 115.37847900390625 162.2355499267578 113.81456756591797 161.01370239257812 C 113.37323760986328 160.6687774658203 112.76481628417969 160.623779296875 112.23994445800781 160.4288330078125 C 111.8178939819336 160.37098693847656 111.39585876464844 160.31385803222656 110.97452545166016 160.25601196289062 C 110.22042083740234 160.12176513671875 109.48059844970703 160.04820251464844 108.79790496826172 159.6383056640625 C 106.69625854492188 158.37503051757812 106.95833587646484 155.5507049560547 108.93858337402344 154.3431396484375 C 109.88335418701172 153.76756286621094 110.29540252685547 153.83468627929688 111.37800598144531 153.6954345703125 C 111.37800598144531 153.6954345703125 111.37800598144531 153.6954345703125 111.37800598144531 153.6954345703125" stroke-width="0.0" fill="rgb(23, 88, 171)" opacity="1.0"/>
    <path d="M 159.79647827148438 104.23363494873047 C 162.3637237548828 104.23363494873047 164.9302520751953 104.23363494873047 167.49749755859375 104.23363494873047 C 167.49749755859375 104.92132568359375 167.49749755859375 105.60973358154297 167.49749755859375 106.29743194580078 C 165.63294982910156 106.29743194580078 163.76910400390625 106.29743194580078 161.904541015625 106.29743194580078 C 161.904541015625 107.17721557617188 161.904541015625 108.0570068359375 161.904541015625 108.93751525878906 C 163.67483520507812 108.93751525878906 165.44512939453125 108.93751525878906 167.21542358398438 108.93751525878906 C 167.21542358398438 109.61949920654297 167.21542358398438 110.30147552490234 167.21542358398438 110.98345947265625 C 165.44512939453125 110.98345947265625 163.67483520507812 110.98345947265625 161.904541015625 110.98345947265625 C 161.904541015625 111.91609191894531 161.904541015625 112.84801483154297 161.904541015625 113.7799301147461 C 163.76910400390625 113.7799301147461 165.63294982910156 113.7799301147461 167.49749755859375 113.7799301147461 C 167.49749755859375 114.46691131591797 167.49749755859375 115.15389251708984 167.49749755859375 115.84087371826172 C 164.9302520751953 115.84087371826172 162.3637237548828 115.84087371826172 159.79647827148438 115.84087371826172 C 159.79647827148438 111.97179412841797 159.79647827148438 108.10271453857422 159.79647827148438 104.23363494873047" stroke-width="0.0" fill="rgb(19, 86, 170)" opacity="1.0"/>
    <path d="M 56.003326416015625 104.23363494873047 C 56.75814437866211 104.23363494873047 57.51296615600586 104.23363494873047 58.26707077026367 104.23363494873047 C 59.2568359375 106.78517150878906 60.246604919433594 109.33599090576172 61.23637008666992 111.88752746582031 C 62.27254867553711 109.33599090576172 63.3087272644043 106.78517150878906 64.34490966796875 104.23363494873047 C 64.78266906738281 104.23363494873047 65.22042083740234 104.23363494873047 65.65817260742188 104.23363494873047 C 66.695068359375 106.78517150878906 67.73124694824219 109.33599090576172 68.7674331665039 111.88752746582031 C 69.75148010253906 109.33599090576172 70.73553466796875 106.78517150878906 71.71958923339844 104.23363494873047 C 72.47440338134766 104.23363494873047 73.22923278808594 104.23363494873047 73.98333740234375 104.23363494873047 C 72.46940612792969 108.10271453857422 70.95619201660156 111.97179412841797 69.44227600097656 115.84087371826172 C 69.0045166015625 115.84087371826172 68.56676483154297 115.84087371826172 68.12901306152344 115.84087371826172 C 67.08711242675781 113.300048828125 66.04522705078125 110.75922393798828 65.00332641601562 108.21768188476562 C 63.961429595947266 110.75922393798828 62.91953659057617 113.300048828125 61.87763977050781 115.84087371826172 C 61.43988800048828 115.84087371826172 61.00284957885742 115.84087371826172 60.56509780883789 115.84087371826172 C 59.04474639892578 111.97179412841797 57.523677825927734 108.10271453857422 56.003326416015625 104.23363494873047" stroke-width="0.0" fill="rgb(20, 86, 170)" opacity="1.0"/>
    <path d="M 144.17446899414062 77.77493286132812 C 134.81814575195312 89.92276000976562 125.46107482910156 102.07057189941406 116.1040267944336 114.21839904785156 C 113.30754852294922 111.4276351928711 110.51107025146484 108.63615417480469 107.71459197998047 105.84539031982422 C 119.86812591552734 96.48833465576172 132.0209503173828 87.13127136230469 144.17446899414062 77.77493286132812" stroke-width="0.0" fill="rgb(15, 83, 168)" opacity="1.0"/>
    <path d="M 108.46440887451172 55.260292053222656 C 108.58438110351562 55.260292053222656 108.70435333251953 55.260292053222656 108.82432556152344 55.260292053222656 C 110.99523162841797 58.17673873901367 113.16614532470703 61.09318923950195 115.3370590209961 64.00963592529297 C 115.3370590209961 61.09318923950195 115.3370590209961 58.17673873901367 115.3370590209961 55.260292053222656 C 115.5712890625 55.260292053222656 115.8055191040039 55.260292053222656 116.03974914550781 55.260292053222656 C 116.03974914550781 58.660911560058594 116.03974914550781 62.061527252197266 116.03974914550781 65.46215057373047 C 115.92549133300781 65.46215057373047 115.81123352050781 65.46215057373047 115.69697570800781 65.46215057373047 C 113.52034759521484 62.54570388793945 111.3437271118164 59.62925338745117 109.16709899902344 56.71280288696289 C 109.16709899902344 59.62925338745117 109.16709899902344 62.54570388793945 109.16709899902344 65.46215057373047 C 108.93287658691406 65.46215057373047 108.69863891601562 65.46215057373047 108.46440887451172 65.46215057373047 C 108.46440887451172 62.061527252197266 108.46440887451172 58.660911560058594 108.46440887451172 55.260292053222656" stroke-width="0.0" fill="rgb(15, 83, 168)" opacity="1.0"/>
    <path d="M 111.58152770996094 154.3974151611328 C 111.58367156982422 154.39669799804688 111.58509826660156 154.39598083496094 111.58723449707031 154.395263671875 C 113.22970581054688 154.6287841796875 113.9666748046875 154.93299865722656 115.14781951904297 156.09841918945312 C 114.99713897705078 156.2384033203125 114.84646606445312 156.3790740966797 114.69578552246094 156.51976013183594 C 113.65888977050781 155.51214599609375 113.01832580566406 155.2471923828125 111.58723449707031 155.0508270263672 C 111.5293960571289 155.0508270263672 111.4722671508789 155.0508270263672 111.41442108154297 155.0508270263672 C 110.22541809082031 155.27435302734375 107.71316528320312 156.2091064453125 108.9657211303711 157.98226928710938 C 109.46846008300781 158.6935272216797 110.40966033935547 158.728515625 111.1466293334961 158.90919494628906 C 111.56295776367188 158.96632385253906 111.9800033569336 159.024169921875 112.39633178710938 159.08201599121094 C 113.27754974365234 159.28125 114.0102310180664 159.3126678466797 114.71792602539062 159.92893981933594 C 115.96905517578125 161.0194091796875 115.6419906616211 163.05892944335938 114.41085052490234 164.00726318359375 C 112.1720962524414 165.73257446289062 109.1056900024414 164.66282653808594 107.75672149658203 162.50262451171875 C 107.90740203857422 162.36265563964844 108.05807495117188 162.22198486328125 108.20803833007812 162.08200073242188 C 109.25921630859375 163.85586547851562 111.25160217285156 164.69210815429688 113.29826354980469 163.87371826171875 C 114.49083709716797 163.39669799804688 115.26707458496094 162.0034637451172 114.53082275390625 160.79873657226562 C 114.02737426757812 159.9746551513672 113.1568603515625 159.95751953125 112.33206176757812 159.7397003173828 C 111.91573333740234 159.68258666992188 111.49939727783203 159.62472534179688 111.08235931396484 159.56689453125 C 110.2275619506836 159.37908935546875 109.47631072998047 159.33480834960938 108.7664794921875 158.77850341796875 C 107.55177307128906 157.82516479492188 107.94953155517578 155.99417114257812 109.05284118652344 155.13937377929688 C 109.8905029296875 154.490234375 110.38609313964844 154.5509490966797 111.3944320678711 154.3974151611328 C 111.45726776123047 154.3974151611328 111.51939392089844 154.3974151611328 111.58152770996094 154.3974151611328" stroke-width="0.0" fill="rgb(15, 83, 168)" opacity="1.0"/>
    <path d="M 160.49916076660156 104.9370346069336 C 162.5922393798828 104.9370346069336 164.685302734375 104.9370346069336 166.77767944335938 104.9370346069336 C 166.77767944335938 105.15483856201172 166.77767944335938 105.37335968017578 166.77767944335938 105.59188079833984 C 164.91954040527344 105.59188079833984 163.06069946289062 105.59188079833984 161.2018585205078 105.59188079833984 C 161.2018585205078 106.94084167480469 161.2018585205078 108.28909301757812 161.2018585205078 109.63734436035156 C 162.97213745117188 109.63734436035156 164.7431640625 109.63734436035156 166.51345825195312 109.63734436035156 C 166.51345825195312 109.852294921875 166.51345825195312 110.06653594970703 166.51345825195312 110.28147888183594 C 164.7431640625 110.28147888183594 162.97213745117188 110.28147888183594 161.2018585205078 110.28147888183594 C 161.2018585205078 111.6818618774414 161.2018585205078 113.08296203613281 161.2018585205078 114.48333740234375 C 163.06069946289062 114.48333740234375 164.91954040527344 114.48333740234375 166.77767944335938 114.48333740234375 C 166.77767944335938 114.70185852050781 166.77767944335938 114.92037963867188 166.77767944335938 115.13818359375 C 164.685302734375 115.13818359375 162.5922393798828 115.13818359375 160.49916076660156 115.13818359375 C 160.49916076660156 111.73827362060547 160.49916076660156 108.33765411376953 160.49916076660156 104.9370346069336" stroke-width="0.0" fill="rgb(15, 83, 168)" opacity="1.0"/>
    <path d="M 57.05165100097656 104.9370346069336 C 57.30730438232422 104.9370346069336 57.56295394897461 104.9370346069336 57.818607330322266 104.9370346069336 C 58.95905303955078 107.88919067382812 60.09878158569336 110.8420639038086 61.23922348022461 113.7942123413086 C 62.437503814697266 110.8420639038086 63.63507843017578 107.88919067382812 64.83336639404297 104.9370346069336 C 64.95333862304688 104.9370346069336 65.07331848144531 104.9370346069336 65.19328308105469 104.9370346069336 C 66.39085388183594 107.88919067382812 67.58914184570312 110.8420639038086 68.78671264648438 113.7942123413086 C 69.92715454101562 110.8420639038086 71.06759643554688 107.88919067382812 72.20803833007812 104.9370346069336 C 72.46369171142578 104.9370346069336 72.71863555908203 104.9370346069336 72.97428894042969 104.9370346069336 C 71.63531494140625 108.33765411376953 70.29563903808594 111.73827362060547 68.95667266845703 115.13818359375 C 68.84241485595703 115.13818359375 68.7281494140625 115.13818359375 68.6138916015625 115.13818359375 C 67.41632080078125 112.21744537353516 66.21803283691406 109.2959976196289 65.02046203613281 106.3752670288086 C 63.822181701660156 109.2959976196289 62.624610900878906 112.21744537353516 61.42631530761719 115.13818359375 C 61.30634689331055 115.13818359375 61.18637466430664 115.13818359375 61.06640625 115.13818359375 C 59.72815704345703 111.73827362060547 58.389896392822266 108.33765411376953 57.05165100097656 104.9370346069336" stroke-width="0.0" fill="rgb(15, 83, 168)" opacity="1.0"/>
    <path d="M 131.3046875 90.6475830078125 C 124.62342834472656 95.7913589477539 117.94215393066406 100.93513488769531 111.2608871459961 106.07962799072266 C 112.79766082763672 107.61568450927734 114.33372497558594 109.15174865722656 115.86978912353516 110.68852233886719 C 121.01499938964844 104.00797271728516 126.16019439697266 97.32742309570312 131.3046875 90.6475830078125" stroke-width="0.0" fill="rgb(136, 182, 244)" opacity="1.0"/>
    <path d="M 107.57247924804688 103.5009536743164 C 107.57247924804688 103.5009536743164 107.57247924804688 103.5009536743164 107.57247924804688 103.5009536743164 C 108.21161651611328 103.59521484375 108.84288787841797 103.8373031616211 109.38490295410156 104.18936157226562 C 112.17566680908203 106.98011779785156 114.96643829345703 109.77088928222656 117.75719451904297 112.56165313720703 C 118.64341735839844 113.93917846679688 118.59842681884766 114.82325744628906 117.54010772705078 116.07795715332031 C 105.3865737915039 125.43501281738281 93.23303985595703 134.79136657714844 81.07949829101562 144.14842224121094 C 78.58651733398438 145.48739624023438 76.72982025146484 143.300048828125 77.79814147949219 140.8506317138672 C 87.15519714355469 128.70208740234375 96.51154327392578 116.55427551269531 105.86859893798828 104.40644836425781 C 106.36062622070312 103.99226379394531 106.95405578613281 103.67733764648438 107.57247924804688 103.5009536743164 C 107.57247924804688 103.5009536743164 107.57247924804688 103.5009536743164 107.57247924804688 103.5009536743164" stroke-width="0.0" fill="rgb(15, 83, 168)" opacity="1.0"/>
    <path d="M 107.71459197998047 105.84539031982422 C 98.36253356933594 117.99321746826172 89.01046752929688 130.1410369873047 79.65769958496094 142.28958129882812 C 91.8055191040039 132.93252563476562 103.95333862304688 123.57545471191406 116.10116577148438 114.21839904785156 C 113.3053970336914 111.4276351928711 110.5103530883789 108.63615417480469 107.71459197998047 105.84539031982422" stroke-width="0.0" fill="rgb(15, 83, 168)" opacity="1.0"/>
    <path d="M 107.94596099853516 109.3866958618164 C 102.80146789550781 116.06796264648438 97.65769958496094 122.74922180175781 92.5132064819336 129.42977905273438 C 99.19376373291016 124.28528594970703 105.87431335449219 119.14008331298828 112.55415344238281 113.99488830566406 C 111.0180892944336 112.45882415771484 109.48202514648438 110.92276000976562 107.94596099853516 109.3866958618164" stroke-width="0.0" fill="rgb(136, 182, 244)" opacity="1.0"/>
  </g>
</svg>
