<?xml version="1.0" encoding="UTF-8"?>
<svg xmlns="http://www.w3.org/2000/svg" version="1.1" viewBox="0 0 224 224">
  <defs>
    <style>
      .cls-1 {
        opacity: 1;
      }

      .cls-1, .cls-2, .cls-3 {
        fill: #b5d2f2;
      }

      .cls-1, .cls-2, .cls-3, .cls-4, .cls-5, .cls-6 {
        isolation: isolate;
      }

      .cls-2 {
        opacity: 1;
      }

      .cls-3 {
        opacity: 1;
      }

      .cls-7 {
        fill: #0f53a8;
      }

      .cls-8 {
        fill: #b5ccee;
      }

      .cls-4 {
        fill: #b5d2f1;
        opacity: 1;
      }

      .cls-9 {
        fill: #88b6f4;
      }

      .cls-5 {
        fill: #a5cbf7;
        opacity: 1;
      }

      .cls-6 {
        fill: #b4d1f1;
        opacity: 1;
      }
    </style>
  </defs>
  <!-- Generator: Adobe Illustrator 28.6.0, SVG Export Plug-In . SVG Version: 1.2.0 Build 709)  -->
  <g>
    <g id="_图层_1" data-name="图层_1">
      <g>
        <path class="cls-7" d="M97.3,194.7c-23.9-4.9-42.6-18.7-55.1-39.4-7.6-13.2-11.9-29.9-11.1-44.6.4-4.3,1.2-9.6,1-11,1.9-8.1,2.9-11,4.2-13.5.7-1.2,1.7-4.1,2.4-5.9,2.2-6.4,10.1-17.8,17.5-24.6,20.7-20,50.5-27.7,77.4-20,27.8,7.7,48.6,29.1,56.6,56.5,3,10.3,3.7,26.4,1.3,36.5-3.1,16.4-10.2,30.6-21.1,42.1-16.1,16.3-33.1,24.1-55.5,25.1-7.3,0-12.7-.4-17.4-1.3"/>
        <path class="cls-6" d="M101,190.6c-7.2-.9-17.4-4.3-23.3-7.7-14.8-7.7-26.3-19.3-34.1-34.8-5.9-13.6-7.3-19.6-8-34,.4-14.3,2.4-22.5,8.7-35.1,8-15.3,18.7-25.8,33.8-33.5,12-5.8,21-7.9,34.4-8.3,13,.4,22,2.5,34.5,8.6,7.7,3.8,10.2,5.8,18.6,13.6,7.3,7.8,9.8,11.2,13.4,18.1,5.8,11.5,8.3,20.5,9.1,32.9,1.9,43.9-33.4,81.4-76.3,81-4.5-.2-9.3-.7-10.7-.8"/>
        <path class="cls-7" d="M109.3,184.9c0-.5-1.2-5-2.5-9.6-2.2-11.9-2.1-12.4-2.4-8-1.9.1-2.4-.3-6.1-1-17.4-4.7-32.4-18.6-38.7-36.2-.5-4-1.3-8.1-1.5-9.5-2.1-.6-5.7-1.8-9.6-2.5-3.7-1.3-7.6-2.3-8.8-2.3-3.1-3.8,2.9-5.6,13.1-7.5,5.7-.6,5.8-.7,6.7-6.5,2.1-8.8,6.8-17.9,13.8-25.7,8.2-8.2,12.7-10.3,21.3-13.5,6.7-1.8,8.5-2.1,10.8-2.2-.6,1.7-.2,1.8.7,3,0-1.5.6-5.5,1.7-9.4,1.6-10.4,2.6-14.7,6-11.2.6,1.7,1.7,5.6,2.7,9.7,1.4,7.3,1,7.7,4.7,7.9,12.1,2.5,18.8,6.1,27.3,13.7,7.7,7.5,11.9,14,14.9,23.4,1.4,4.9,1.9,8.9,2,9.9,2.3-.3,4.2.6,7.5,1.5,10.1,1.7,13.7,3,10.6,6.5-2.5,1.1-10,3.2-15.1,4.8-1.6.4-2.6,0-3.1,2-.5,6.1-5,16.5-8.2,21.5-6.7,10-17.2,18.4-29.5,22.2-5.9,1.5-8.7,2.5-9.1.8-.9-3.7-1.1-4-3.1,9.9-1.6,10.2-3.2,13-6.3,8.5"/>
        <path class="cls-8" d="M110.5,173.1c-.2-1.7-1.7-12.7-3.2-25.2-3-21.7-3.4-22.5-1.5-24.4,1.3-1.5,3.1-1.7,5.3-.8h3.6c0,0,0,6.8,0,6.8,0,12-2.2,43.5-3.1,44.9-.9,1-.9,1.2-1-1.4"/>
        <path class="cls-2" d="M98.1,161.5c-16.8-5.6-29.3-18.3-33.9-35-.9-2.5-1.3-4.8-.8-5.4.4-.2,8.1,1.2,20.8,3.7.7,0,3.5.6,6.2,1.2,2.5.2,4.6.9,5,1.3-.3.4-3.5,3.9-7.2,8.1-4,4-7.4,7.9-7.1,8.4.3,3.4,3.5,1.4,10.5-5.9,7.1-6.4,8.1-7,8.3-4.9,1.1,5.1,4.9,28.8,4.7,29.4-.3.9-3.2.2-6.5-.9"/>
        <path class="cls-4" d="M118.2,161.5c.3-4,4.1-29,4.7-30.7.8-.3,4.5,2.7,9,6.9,7.4,7.3,10,9.1,11,5.6,0-.2-3.4-4-7.8-8-4-4.3-7.3-7.9-6.7-8.3,1.1-.4,29.1-5.3,31.4-5.7,2,0,1.2,4.4-2.7,13.5-5.6,12.1-18.6,23.5-30.6,26.4-2.8,1-6,1.8-6.9,1.7-1.4.6-1.9.6-1.5-1.5"/>
        <path class="cls-9" d="M121.1,122.1c-1.2-.8-1.9-4.3-1.2-7.7-.6-4.9-.3-6.5,1.7-8.1,1.5-1.7,2.4-2,3.5-1.4.8.2,3.8.9,6.6,1.5,10.2,1.5,42.5,6.7,44,7.1.6.6-9.6,2.6-23.6,4.6-13.7,2.4-26.1,4.6-27.3,5-1.4.3-2.6,0-3.6-1"/>
        <path class="cls-5" d="M109.3,116.7c-2.4-1.9-1.9-5.7,1.1-6.2,3.5-.5,5.9,2.6,4.5,5.1-1.7,2.5-3,2.7-5.6,1.1"/>
        <path class="cls-3" d="M63.5,104.6c0-2.6,3.9-12.4,6.9-17.1,4.1-6.7,12.3-14.3,19.2-17.8,6-3,16.6-5.8,16.6-4.6,0,2.1-5.5,31-5.9,31.8-.8.1-3.8-2.2-7-5.6-8.2-7.3-10.1-9.1-12-7.4-1,1,.5,3.1,6.2,8.8,4.6,4,7.9,7.3,7.6,8.3-.8.3-28.7,5-30.8,5.2-.8.2-1.2-.3-.9-1.5"/>
        <path class="cls-8" d="M111.6,96.5c-.8-12.4-.7-34.4.1-39.2l1.2-4.3.9,5.8c.2,2.8,1.9,13.8,3.5,24.2,3.4,18.2,3.4,19.3,1.3,21-1.2,1.1-2.9,2.1-4.4,2.1-2.1.2-2.5-.7-2.5-9.7"/>
        <path class="cls-1" d="M148.5,104.4c-3.8-.5-9.9-1.6-13.4-2.3l-6.9-1.1,7.3-7.8c4-3.8,7.5-7.6,7.4-8.4-.3-3.4-3.5-1.9-10.3,5.2-4.8,4.7-7.3,6.6-7.7,5.4-.6-.8-2.1-7.8-3.5-16l-2.7-14.8,3.9.8c5.4.5,16.4,5.8,21.6,10.8,7.4,6.1,13.1,15.5,16.4,27.5.9,2,.4,2.5-1.5,2.3-2-.2-6.5-.8-10.6-1.6"/>
        <path class="cls-9" d="M98.7,122.9c-.7-.2-12.5-2.3-26.2-4.7-13.4-2.2-24.3-4.1-23.5-4.6,1.2-.3,12.1-2.1,24.3-4,12.6-2,23.8-3.8,25.2-4.4,3.3-1.3,7,2.1,5.6,5-.9,1-1.1,3.8-.5,5.8.3,3.5,0,4.8-1.2,5.9q-1.9,1.8-3.6,1.1"/>
      </g>
    </g>
  </g>
</svg>