<?xml version="1.0" ?>
<svg xmlns="http://www.w3.org/2000/svg" version="1.1" width="224" height="224">
  <defs/>
  <g>
    <path d="M 76.67691040039062 60.862770080566406 C 76.67691040039062 60.862770080566406 76.67691040039062 60.862770080566406 76.67691040039062 60.862770080566406 C 77.9180908203125 59.828861236572266 79.0718765258789 58.803279876708984 80.79754638671875 58.803279876708984 C 83.7103042602539 58.803279876708984 86.9776840209961 62.07065963745117 86.9776840209961 64.98341369628906 C 86.9776840209961 66.70909118652344 85.95210266113281 67.86286926269531 84.9173583984375 69.10489654541016 C 74.55830383300781 79.46395111083984 64.19924926757812 89.82300567626953 53.84019470214844 100.18206024169922 C 51.72243118286133 101.94686889648438 49.544734954833984 103.04071044921875 46.972450256347656 101.3266830444336 C 46.4763069152832 100.99620819091797 46.0567512512207 100.56332397460938 45.598899841308594 100.18206024169922 C 40.41937255859375 95.00253295898438 35.23984146118164 89.82217407226562 30.060317993164062 84.64264678955078 C 29.02557373046875 83.40145874023438 27.99999237060547 82.2476806640625 27.99999237060547 80.52283477783203 C 27.99999237060547 77.60924530029297 31.268207550048828 74.34185791015625 34.18096160888672 74.34185791015625 C 35.90580749511719 74.34185791015625 37.05958938598633 75.36744689941406 38.300777435302734 76.40219116210938 C 42.10758972167969 80.20816802978516 45.913570404052734 84.01414489746094 49.719547271728516 87.82012176513672 C 58.70588684082031 78.8346176147461 67.69139862060547 69.84910583496094 76.67691040039062 60.862770080566406" stroke-width="0.0" fill="rgb(0, 0, 0)" opacity="1.0"/>
    <path d="M 111.87554931640625 74.6956558227539 C 137.77401733398438 74.6956558227539 163.6724853515625 74.6956558227539 189.57012939453125 74.6956558227539 C 191.18011474609375 74.84217071533203 192.72015380859375 74.93290710449219 193.94052124023438 76.15245056152344 C 196.0 78.2127685546875 196.0 82.83289337158203 193.94052124023438 84.89321899414062 C 192.72097778320312 86.11359405517578 191.18011474609375 86.20349884033203 189.57012939453125 86.35000610351562 C 163.6724853515625 86.35000610351562 137.77401733398438 86.35000610351562 111.87554931640625 86.35000610351562 C 110.26558685302734 86.20349884033203 108.7247085571289 86.11359405517578 107.50517272949219 84.89321899414062 C 105.4448471069336 82.83372497558594 105.4448471069336 78.2127685546875 107.50517272949219 76.15245056152344 C 108.7247085571289 74.93290710449219 110.26641845703125 74.84217071533203 111.87554931640625 74.6956558227539 C 111.87554931640625 74.6956558227539 111.87554931640625 74.6956558227539 111.87554931640625 74.6956558227539" stroke-width="0.0" fill="rgb(0, 0, 0)" opacity="1.0"/>
    <path d="M 76.67691040039062 123.01876831054688 C 76.67691040039062 123.01876831054688 76.67691040039062 123.01876831054688 76.67691040039062 123.01876831054688 C 77.9180908203125 121.9840316772461 79.0718765258789 120.95845031738281 80.79754638671875 120.95845031738281 C 83.7103042602539 120.95845031738281 86.9776840209961 124.2266616821289 86.9776840209961 127.13941192626953 C 86.9776840209961 128.86509704589844 85.95210266113281 130.0188751220703 84.9173583984375 131.26007080078125 C 74.55830383300781 141.61912536621094 64.19924926757812 151.97817993164062 53.84019470214844 162.33807373046875 C 53.382347106933594 162.71932983398438 52.96278762817383 163.15138244628906 52.466644287109375 163.48187255859375 C 49.89436340332031 165.19671630859375 47.7166633605957 164.10203552246094 45.598899841308594 162.33807373046875 C 40.41937255859375 157.15771484375 35.23984146118164 151.97817993164062 30.060317993164062 146.7986602783203 C 29.02557373046875 145.55746459960938 27.99999237060547 144.4036865234375 27.99999237060547 142.67799377441406 C 27.99999237060547 139.76524353027344 31.267375946044922 136.49786376953125 34.18096160888672 136.49786376953125 C 35.90580749511719 136.49786376953125 37.05958938598633 137.52345275878906 38.300777435302734 138.55819702148438 C 42.10758972167969 142.36416625976562 45.913570404052734 146.1709747314453 49.719547271728516 149.97695922851562 C 58.70588684082031 140.99061584472656 67.69139862060547 132.00511169433594 76.67691040039062 123.01876831054688" stroke-width="0.0" fill="rgb(0, 0, 0)" opacity="1.0"/>
    <path d="M 111.87554931640625 136.85165405273438 C 137.77401733398438 136.85165405273438 163.6724853515625 136.85165405273438 189.57012939453125 136.85165405273438 C 191.18011474609375 136.9981689453125 192.72097778320312 137.08807373046875 193.94052124023438 138.30845642089844 C 196.0 140.36795043945312 196.0 144.9888916015625 193.94052124023438 147.04922485351562 C 192.72097778320312 148.26876831054688 191.18011474609375 148.3594970703125 189.57012939453125 148.50601196289062 C 163.6724853515625 148.50601196289062 137.77401733398438 148.50601196289062 111.87554931640625 148.50601196289062 C 110.26558685302734 148.3594970703125 108.7247085571289 148.26876831054688 107.50517272949219 147.04922485351562 C 105.4448471069336 144.9888916015625 105.4448471069336 140.36795043945312 107.50517272949219 138.30845642089844 C 108.7247085571289 137.08807373046875 110.26641845703125 136.9981689453125 111.87554931640625 136.85165405273438 C 111.87554931640625 136.85165405273438 111.87554931640625 136.85165405273438 111.87554931640625 136.85165405273438" stroke-width="0.0" fill="rgb(0, 0, 0)" opacity="1.0"/>
  </g>
</svg>
