<?xml version="1.0" ?>
<svg xmlns="http://www.w3.org/2000/svg" version="1.1" width="224" height="224">
  <defs/>
  <g>
    <path d="M 85.44633483886719 163.02096557617188 C 86.67859649658203 163.93504333496094 87.91085815429688 164.85044860839844 89.14311981201172 165.76583862304688 C 89.52779388427734 166.49346923828125 90.26715087890625 167.12588500976562 90.29845428466797 167.95001220703125 C 90.32975006103516 168.7728271484375 89.63993835449219 169.46002197265625 89.31002807617188 170.21502685546875 C 86.94591522216797 172.26358032226562 84.581787109375 174.31214904785156 82.21766662597656 176.35939025878906 C 81.52916717529297 177.94113159179688 84.06280517578125 178.8487091064453 85.04861450195312 179.8319091796875 C 88.12471008300781 182.90017700195312 90.3792953491211 186.42874145507812 92.05361938476562 190.41632080078125 C 92.0914306640625 190.690185546875 92.12924194335938 190.96270751953125 92.16575622558594 191.23654174804688 C 91.9075698852539 192.24191284179688 91.33902740478516 193.20816040039062 90.57749938964844 193.91493225097656 C 89.35958862304688 194.49520874023438 88.14166259765625 195.07415771484375 86.92243194580078 195.65444946289062 C 85.94706726074219 195.827880859375 84.88822174072266 195.72354125976562 83.96500396728516 195.36495971679688 C 78.13880157470703 191.0018310546875 72.31260681152344 186.63870239257812 66.48641204833984 182.27557373046875 C 63.599395751953125 179.09515380859375 63.957984924316406 176.22508239746094 67.19969177246094 173.51409912109375 C 68.47368621826172 172.8516845703125 69.74897766113281 172.19056701660156 71.02297973632812 171.5281524658203 C 73.83045196533203 169.41567993164062 76.58837127685547 167.2354278564453 79.36325073242188 165.08255004882812 C 81.80039978027344 163.1917724609375 82.52801513671875 162.09251403808594 85.44633483886719 163.02096557617188 C 85.44633483886719 163.02096557617188 85.44633483886719 163.02096557617188 85.44633483886719 163.02096557617188" stroke-width="0.0" fill="rgb(84, 81, 118)" opacity="1.0"/>
    <path d="M 139.11697387695312 164.19192504882812 C 139.11697387695312 164.19192504882812 139.11697387695312 164.19192504882812 139.11697387695312 164.19192504882812 C 140.3818359375 164.05502319335938 141.7758026123047 164.42141723632812 142.80856323242188 165.16470336914062 C 145.117919921875 168.68284606933594 147.42726135253906 172.20098876953125 149.7366180419922 175.71914672851562 C 150.6520233154297 176.29159545898438 151.9990234375 176.65280151367188 152.9496307373047 176.14163208007812 C 154.61221313476562 175.2458038330078 155.88491821289062 173.82183837890625 157.67527770996094 173.00033569335938 C 161.66546630859375 171.1708526611328 164.71286010742188 170.06378173828125 168.12278747558594 172.83474731445312 C 169.15553283691406 173.67449951171875 170.4425811767578 174.43209838867188 170.53384399414062 176.0086212158203 C 170.57688903808594 176.74668884277344 170.04617309570312 177.40390014648438 169.80230712890625 178.10150146484375 C 164.55247497558594 183.30572509765625 159.303955078125 188.50991821289062 154.055419921875 193.71542358398438 C 150.60507202148438 196.0 147.80279541015625 195.392333984375 145.5625762939453 191.92245483398438 C 141.67279052734375 184.71923828125 137.7830047607422 177.5147247314453 133.89321899414062 170.3115234375 C 133.78759765625 169.60084533691406 133.40423583984375 168.87713623046875 133.57374572753906 168.17950439453125 C 133.74588012695312 167.47276306152344 134.4213409423828 166.9980926513672 134.84512329101562 166.40609741210938 C 136.26907348632812 165.6680450439453 137.6930389404297 164.9299774169922 139.11697387695312 164.19192504882812" stroke-width="0.0" fill="rgb(84, 81, 119)" opacity="1.0"/>
    <path d="M 96.98788452148438 109.35551452636719 C 96.98788452148438 109.35551452636719 96.98788452148438 109.35551452636719 96.98788452148438 109.35551452636719 C 91.73544311523438 108.85609436035156 86.49473571777344 108.31755065917969 81.33486938476562 107.17916870117188 C 78.6851806640625 106.59498596191406 76.04591369628906 105.86475372314453 73.54357147216797 104.80461883544922 C 71.77928161621094 104.05613708496094 70.05541229248047 103.123779296875 68.60147094726562 101.86022186279297 C 67.84516143798828 101.20301818847656 67.1827392578125 100.46105194091797 66.6494140625 99.61215209960938 C 61.95376968383789 92.14163970947266 73.93868255615234 87.02610778808594 79.05680847167969 84.79238891601562 C 80.05826568603516 84.35555267333984 81.06885528564453 83.93697357177734 82.08335876464844 83.53404235839844 C 84.33924865722656 82.6382064819336 86.6746826171875 81.79713439941406 88.9736099243164 81.02256774902344 C 92.31962585449219 79.89462280273438 93.51277160644531 79.56340789794922 96.93702697753906 78.52804565429688 C 96.9539794921875 88.80343627929688 96.97093200683594 99.08013153076172 96.98788452148438 109.35551452636719" stroke-width="0.0" fill="rgb(61, 149, 199)" opacity="1.0"/>
    <path d="M 84.1723403930664 164.73699951171875 C 84.1723403930664 164.73699951171875 84.1723403930664 164.73699951171875 84.1723403930664 164.73699951171875 C 82.50715637207031 164.80088806152344 81.23185729980469 166.339599609375 79.91482543945312 167.36322021484375 C 77.33033752441406 169.37135314941406 74.7745361328125 171.43426513671875 72.12744140625 173.36154174804688 C 70.81303405761719 174.04483032226562 69.49730682373047 174.72811889648438 68.18289184570312 175.41270446777344 C 66.07044219970703 177.180908203125 66.44990539550781 178.3753662109375 67.7603988647461 180.5647430419922 C 73.58790588378906 184.9278564453125 79.4154052734375 189.29100036621094 85.24291229248047 193.65411376953125 C 85.49588012695312 193.67892456054688 85.74885559082031 193.70498657226562 86.0018310546875 193.73106384277344 C 87.2197494506836 193.15078735351562 88.43766784667969 192.57052612304688 89.65558624267578 191.98895263671875 C 90.07415771484375 191.01356506347656 89.54474639892578 189.807373046875 89.06748962402344 188.8580780029297 C 87.48966979980469 185.71807861328125 85.2090072631836 182.7058868408203 82.51497650146484 180.43826293945312 C 80.72981262207031 178.9347686767578 78.58737182617188 177.0961456298828 80.81848907470703 174.74636840820312 C 83.1826171875 172.69651794433594 85.5467300415039 170.64663696289062 87.91085815429688 168.59548950195312 C 88.0608139038086 168.25514221191406 88.04255676269531 167.80917358398438 87.86913299560547 167.4805908203125 C 86.63687133789062 166.5664825439453 85.40460205078125 165.65109252929688 84.1723403930664 164.73699951171875" stroke-width="0.0" fill="rgb(82, 79, 116)" opacity="1.0"/>
    <path d="M 140.094970703125 166.09576416015625 C 138.7362060546875 166.794677734375 137.37615966796875 167.49493408203125 136.0174102783203 168.19384765625 C 135.92483520507812 168.5433349609375 135.83355712890625 168.89279174804688 135.74227905273438 169.24224853515625 C 139.66336059570312 176.50804138183594 143.58572387695312 183.77255249023438 147.50680541992188 191.038330078125 C 148.96336364746094 193.35812377929688 150.20083618164062 193.15469360351562 152.54669189453125 192.1975860595703 C 157.76002502441406 187.03250122070312 162.97335815429688 181.86741638183594 168.18667602539062 176.7010498046875 C 168.08627319335938 173.1281280517578 164.37643432617188 173.05902099609375 162.01101684570312 173.71231079101562 C 160.41233825683594 174.15435791015625 158.81234741210938 174.7476806640625 157.3571014404297 175.55746459960938 C 154.79739379882812 176.9801025390625 152.51019287109375 180.21266174316406 149.2528533935547 178.1693115234375 C 148.73777770996094 177.8472442626953 148.3843994140625 177.31912231445312 147.95016479492188 176.89402770996094 C 145.64080810546875 173.37588500976562 143.3314666748047 169.8577423095703 141.0220947265625 166.339599609375 C 140.71304321289062 166.25875854492188 140.4040069580078 166.17788696289062 140.094970703125 166.09576416015625 C 140.094970703125 166.09576416015625 140.094970703125 166.09576416015625 140.094970703125 166.09576416015625" stroke-width="0.0" fill="rgb(82, 79, 116)" opacity="1.0"/>
    <path d="M 95.23141479492188 75.84054565429688 C 95.23141479492188 75.84054565429688 95.23141479492188 75.84054565429688 95.23141479492188 75.84054565429688 C 86.31087493896484 79.04833984375 76.77093505859375 82.31611633300781 69.1230697631836 88.10320281982422 C 66.26213073730469 90.26780700683594 62.93696975708008 93.44953155517578 63.31382369995117 97.3953857421875 C 64.14576721191406 106.11381530761719 75.91943359375 108.57312774658203 82.73013305664062 109.5902328491211 C 84.98080444335938 109.92666625976562 87.29146575927734 110.17181396484375 89.55779266357422 110.35306549072266 C 91.76022338867188 110.52910614013672 97.23303985595703 111.91915130615234 99.0755615234375 110.20050048828125 C 103.14008331298828 106.40721130371094 93.67185974121094 106.3367919921875 93.3093490600586 106.3172378540039 C 86.57167053222656 105.95082092285156 79.103759765625 105.51007080078125 72.88766479492188 102.59697723388672 C 70.78173065185547 101.60985565185547 67.32096099853516 99.38656616210938 67.5817642211914 96.58821868896484 C 67.80213928222656 94.22931671142578 70.51181030273438 92.3307113647461 72.23959350585938 91.11018371582031 C 78.33309936523438 86.80573272705078 85.55065155029297 83.96566009521484 92.49435424804688 81.37464141845703 C 92.83991241455078 81.24555206298828 97.14827728271484 80.27799987792969 97.86547088623047 78.78363037109375 C 98.93212890625 76.56555938720703 96.7701187133789 75.92399597167969 95.23141479492188 75.84054565429688 C 95.23141479492188 75.84054565429688 95.23141479492188 75.84054565429688 95.23141479492188 75.84054565429688" stroke-width="0.0" fill="rgb(83, 82, 120)" opacity="1.0"/>
    <path d="M 83.74593353271484 167.08416748046875 C 83.74593353271484 167.08416748046875 83.74593353271484 167.08416748046875 83.74593353271484 167.08416748046875 C 80.23951721191406 169.80947875976562 76.80484008789062 172.77474975585938 73.11064910888672 175.24969482421875 C 71.794921875 175.9329833984375 70.48051452636719 176.6175994873047 69.164794921875 177.30087280273438 C 68.77098846435547 177.63729858398438 68.96528625488281 178.3375244140625 69.04222106933594 178.8487091064453 C 74.64412689208984 183.044921875 80.24734497070312 187.23983764648438 85.84925842285156 191.43475341796875 C 86.41387939453125 191.16482543945312 86.978515625 190.8948974609375 87.54313659667969 190.62496948242188 C 86.40475463867188 188.45254516601562 85.19857025146484 186.43399047851562 83.60771179199219 184.5523223876953 C 81.22794342041016 181.73831176757812 76.13849639892578 179.37811279296875 78.1270751953125 174.87806701660156 C 78.42047119140625 174.21694946289062 78.98770141601562 173.713623046875 79.41801452636719 173.13204956054688 C 81.33617401123047 171.46817016601562 83.2530288696289 169.80557250976562 85.17118835449219 168.14300537109375 C 84.69654846191406 167.7896270751953 84.2205810546875 167.4375457763672 83.74593353271484 167.08416748046875" stroke-width="0.0" fill="rgb(254, 197, 46)" opacity="1.0"/>
    <path d="M 139.9319610595703 168.579833984375 C 139.38038635253906 168.8640899658203 138.82879638671875 169.14706420898438 138.2772216796875 169.43002319335938 C 142.00660705566406 176.34115600585938 145.73728942871094 183.25094604492188 149.46669006347656 190.1620635986328 C 149.9022216796875 190.9666290283203 150.21778869628906 191.02139282226562 151.05104064941406 190.68624877929688 C 155.8953399658203 185.885009765625 160.74093627929688 181.08372497558594 165.58523559570312 176.282470703125 C 165.21231079101562 175.9864501953125 164.83935546875 175.68914794921875 164.46641540527344 175.3931427001953 C 164.46641540527344 175.3931427001953 164.46641540527344 175.3931427001953 164.46641540527344 175.3931427001953 C 162.31875610351562 175.89126586914062 160.25454711914062 176.38677978515625 158.31292724609375 177.4769287109375 C 156.6646728515625 178.40274047851562 155.4285125732422 179.97665405273438 153.6055450439453 180.6168975830078 C 150.7133026123047 181.63270568847656 147.9371337890625 180.3678436279297 146.16371154785156 178.0702362060547 C 144.08645629882812 174.90675354003906 142.00921630859375 171.74330139160156 139.9319610595703 168.579833984375" stroke-width="0.0" fill="rgb(254, 197, 46)" opacity="1.0"/>
    <path d="M 114.06354522705078 50.604549407958984 C 116.88536834716797 50.604549407958984 119.70719146728516 50.604549407958984 122.53031921386719 50.604549407958984 C 137.88211059570312 51.10397720336914 151.8203887939453 59.3712272644043 158.41725158691406 73.51814270019531 C 161.60546875 80.35753631591797 162.38656616210938 88.03669738769531 163.7218475341797 95.38725280761719 C 164.7311248779297 100.94091796875 166.08335876464844 106.55455780029297 166.6349334716797 112.17994689941406 C 167.29736328125 118.92936706542969 166.97267150878906 125.80396270751953 166.64016723632812 132.56381225585938 C 166.09246826171875 143.6946258544922 167.45123291015625 159.16116333007812 157.51358032226562 166.7894744873047 C 150.63636779785156 172.06930541992188 141.3363494873047 172.708251953125 133.07823181152344 173.91574096679688 C 118.25846862792969 176.08163452148438 104.05938720703125 176.60455322265625 89.25265502929688 173.70970153808594 C 82.7105712890625 172.42919921875 75.67819213867188 170.76010131835938 69.948486328125 167.20022583007812 C 61.931602478027344 162.218994140625 53.3122673034668 154.2855682373047 50.254432678222656 145.10552978515625 C 48.64661407470703 140.27947998046875 46.618919372558594 133.2497100830078 52.95888900756836 131.08380126953125 C 53.70607376098633 130.82821655273438 54.50541305541992 130.66650390625 55.29562759399414 130.68606567382812 C 56.03628921508789 130.70301818847656 56.73783493041992 131.0225067138672 57.460243225097656 131.1920166015625 C 58.110931396484375 131.59103393554688 58.76292419433594 131.98875427246094 59.414913177490234 132.3877716064453 C 63.26296615600586 133.6161346435547 65.28805541992188 132.7046356201172 66.93498229980469 129.01828002929688 C 69.66943359375 113.6586685180664 72.402587890625 98.30035400390625 75.13703918457031 82.94203186035156 C 79.36715698242188 64.06948852539062 94.70069885253906 51.230464935302734 114.06354522705078 50.604549407958984 C 114.06354522705078 50.604549407958984 114.06354522705078 50.604549407958984 114.06354522705078 50.604549407958984" stroke-width="0.0" fill="rgb(82, 80, 118)" opacity="1.0"/>
    <path d="M 114.06354522705078 52.74177551269531 C 114.06354522705078 52.74177551269531 114.06354522705078 52.74177551269531 114.06354522705078 52.74177551269531 C 95.69172668457031 53.39507293701172 81.30747985839844 65.45170593261719 77.23384094238281 83.34496307373047 C 74.50199890136719 98.69284057617188 71.77015686035156 114.04073333740234 69.03700256347656 129.38861083984375 C 67.3313980102539 134.2798614501953 63.15082550048828 136.6009521484375 58.28956985473633 134.2107391357422 C 57.685829162597656 133.83779907226562 57.08078384399414 133.46617126464844 56.4770393371582 133.0945281982422 C 55.84720993041992 133.02149963378906 55.214778900146484 132.78680419921875 54.584957122802734 132.87416076660156 C 48.65965270996094 133.6982879638672 50.99639129638672 140.30426025390625 52.18171310424805 144.01278686523438 C 55.13002014160156 153.23194885253906 64.2331314086914 161.8760528564453 72.61122131347656 166.25222778320312 C 78.02536010742188 169.07925415039062 84.17625427246094 170.5684051513672 90.13675689697266 171.70286560058594 C 104.55099487304688 174.44515991210938 118.32105255126953 173.9105224609375 132.73788452148438 171.8111114501953 C 140.55136108398438 170.6740264892578 149.41322326660156 170.1263427734375 155.99705505371094 165.24295043945312 C 162.2639923095703 160.59423828125 163.09854125976562 153.01678466796875 163.6475067138672 145.78619384765625 C 163.98263549804688 141.38003540039062 164.27603149414062 136.9686737060547 164.49510192871094 132.5546875 C 164.82369995117188 125.89654541015625 165.1536102294922 119.1236572265625 164.51205444335938 112.47334289550781 C 163.9722137451172 106.88055419921875 162.61868286132812 101.29560089111328 161.61460876464844 95.77322387695312 C 160.435791015625 89.28982543945312 159.7616424560547 82.46216583251953 157.29190063476562 76.30867004394531 C 151.50741577148438 61.893131256103516 137.7764892578125 53.26206970214844 122.52509307861328 52.74177551269531 C 119.70457458496094 52.74177551269531 116.88406372070312 52.74177551269531 114.06354522705078 52.74177551269531" stroke-width="0.0" fill="rgb(81, 79, 117)" opacity="1.0"/>
    <path d="M 114.06354522705078 54.87509536743164 C 114.06354522705078 54.87509536743164 114.06354522705078 54.87509536743164 114.06354522705078 54.87509536743164 C 96.7244873046875 55.52448272705078 83.21391296386719 66.8287124633789 79.34107971191406 83.71659851074219 C 76.60923767089844 99.06578826904297 73.87738800048828 114.4162826538086 71.14424133300781 129.76547241210938 C 69.08916473388672 136.1914825439453 63.398582458496094 139.10198974609375 57.17075729370117 136.02719116210938 C 56.598304748535156 135.67642211914062 56.02585983276367 135.32565307617188 55.45341110229492 134.97357177734375 C 54.51454162597656 135.13136291503906 53.62131118774414 135.58384704589844 52.841529846191406 136.1302032470703 C 52.841529846191406 136.1302032470703 52.841529846191406 136.1302032470703 52.841529846191406 136.1302032470703 C 52.92759323120117 145.46151733398438 59.000247955322266 152.72079467773438 65.63230895996094 158.59262084960938 C 73.16671752929688 165.26380920410156 81.96077728271484 168.0712890625 91.73413848876953 169.82383728027344 C 105.20950317382812 172.2401123046875 118.08633422851562 171.75633239746094 131.55126953125 169.82383728027344 C 139.63075256347656 168.66458129882812 149.91006469726562 168.3359832763672 156.16786193847656 162.31289672851562 C 160.6887664794922 157.9615020751953 161.0760498046875 151.51068115234375 161.52203369140625 145.63885498046875 C 161.85324096679688 141.27442932128906 162.14401245117188 136.9073944091797 162.36178588867188 132.5351104736328 C 162.68646240234375 125.97869873046875 163.0216064453125 119.30622100830078 162.39959716796875 112.75370025634766 C 161.87149047851562 107.19091033935547 160.5127410888672 101.63202667236328 159.5164794921875 96.14094543457031 C 158.32203674316406 89.56365966796875 157.6674346923828 82.60038757324219 155.02557373046875 76.40516662597656 C 149.3740997314453 63.150177001953125 136.65245056152344 55.40842056274414 122.52509307861328 54.87509536743164 C 119.70457458496094 54.87509536743164 116.88406372070312 54.87509536743164 114.06354522705078 54.87509536743164" stroke-width="0.0" fill="rgb(61, 149, 199)" opacity="1.0"/>
    <path d="M 145.58863830566406 63.90779113769531 C 145.58863830566406 63.90779113769531 145.58863830566406 63.90779113769531 145.58863830566406 63.90779113769531 C 150.41339111328125 68.40913391113281 154.15972900390625 73.64723205566406 156.22523498535156 79.97026062011719 C 157.78741455078125 84.75066375732422 158.37942504882812 89.88704681396484 159.2830810546875 94.8226318359375 C 160.36538696289062 100.73748779296875 161.8493194580078 106.72408294677734 162.40744018554688 112.71719360351562 C 163.16635131835938 120.86317443847656 162.5808563232422 129.19039916992188 162.0670928955078 137.3311767578125 C 161.57156372070312 145.19680786132812 162.1544647216797 155.00405883789062 156.5108184814453 161.29055786132812 C 151.605224609375 166.75424194335938 143.75265502929688 167.89784240722656 136.92498779296875 168.96713256835938 C 123.70259094238281 171.03652954101562 111.1230697631836 172.39137268066406 97.80157470703125 170.71444702148438 C 97.80157470703125 170.71444702148438 97.80157470703125 170.71444702148438 97.80157470703125 170.71444702148438 C 101.30668640136719 167.0672149658203 104.81831359863281 164.5322723388672 107.3363037109375 159.91616821289062 C 116.0964584350586 143.84979248046875 113.86925506591797 123.49851989746094 113.84969329833984 105.90779113769531 C 113.84317779541016 101.20040893554688 113.49761962890625 96.38088989257812 114.23306274414062 91.7087173461914 C 116.66500091552734 76.23956298828125 130.01126098632812 64.50502014160156 145.58863830566406 63.90779113769531 C 145.58863830566406 63.90779113769531 145.58863830566406 63.90779113769531 145.58863830566406 63.90779113769531" stroke-width="0.0" fill="rgb(254, 254, 254)" opacity="1.0"/>
    <path d="M 76.85699462890625 130.70693969726562 C 76.85699462890625 130.70693969726562 76.85699462890625 130.70693969726562 76.85699462890625 130.70693969726562 C 74.16947937011719 131.34458923339844 72.73249816894531 133.5848388671875 69.84678649902344 133.9708251953125 C 68.46585083007812 134.1546630859375 66.5268325805664 133.99038696289062 65.19807434082031 133.8104248046875 C 64.38179016113281 133.6995849609375 61.69036102294922 132.82070922851562 60.5311164855957 133.56919860839844 C 56.77434539794922 135.99197387695312 62.53794860839844 137.73802185058594 63.92408752441406 137.9492645263672 C 68.10073852539062 138.5869140625 72.42736053466797 138.6168975830078 75.98724365234375 136.02328491210938 C 78.31092834472656 134.32940673828125 79.7922592163086 132.51426696777344 76.85699462890625 130.70693969726562 C 76.85699462890625 130.70693969726562 76.85699462890625 130.70693969726562 76.85699462890625 130.70693969726562" stroke-width="0.0" fill="rgb(81, 79, 117)" opacity="1.0"/>
    <path d="M 149.12112426757812 34.006141662597656 C 149.12112426757812 34.006141662597656 149.12112426757812 34.006141662597656 149.12112426757812 34.006141662597656 C 151.0979766845703 33.70231628417969 152.56495666503906 33.171592712402344 154.5092010498047 33.93181610107422 C 159.92202758789062 36.04557800292969 157.57095336914062 44.18373489379883 155.68539428710938 47.840110778808594 C 151.43179321289062 56.09431838989258 143.13455200195312 62.19956588745117 134.31570434570312 64.73059844970703 C 123.76519012451172 67.75845336914062 110.3432846069336 68.83424377441406 99.68582916259766 65.94590759277344 C 95.35138702392578 64.77232360839844 89.13790893554688 60.99208450317383 92.1488037109375 55.540130615234375 C 92.52174377441406 54.86465835571289 93.04072570800781 54.264827728271484 93.60796356201172 53.74062728881836 C 96.30721282958984 51.24611282348633 100.21785736083984 50.04644012451172 103.68905639648438 49.05802917480469 C 107.3206558227539 48.02397155761719 111.01874542236328 47.227237701416016 114.69989013671875 46.39268493652344 C 115.14063262939453 46.294883728027344 115.58268737792969 46.19578170776367 116.02342987060547 46.096683502197266 C 121.30587005615234 44.89701461791992 126.48399353027344 43.65301513671875 131.49911499023438 41.5666389465332 C 137.3878936767578 39.116458892822266 142.9741668701172 35.773040771484375 149.12112426757812 34.006141662597656 C 149.12112426757812 34.006141662597656 149.12112426757812 34.006141662597656 149.12112426757812 34.006141662597656" stroke-width="0.0" fill="rgb(82, 80, 119)" opacity="1.0"/>
    <path d="M 87.72699737548828 128.58926391601562 C 87.72699737548828 128.58926391601562 87.72699737548828 128.58926391601562 87.72699737548828 128.58926391601562 C 82.47455596923828 128.08984375 77.23384094238281 127.55130004882812 72.07398986816406 126.41292572021484 C 69.42428588867188 125.83004760742188 66.7850341796875 125.0985107421875 64.28267669677734 124.03837585449219 C 62.51839065551758 123.28988647460938 60.79452896118164 122.35884094238281 59.340579986572266 121.09397888183594 C 58.58427429199219 120.436767578125 57.923152923583984 119.69610595703125 57.38852310180664 118.84590911865234 C 52.69417953491211 111.37669372558594 64.67778015136719 106.26116180419922 69.79592895507812 104.0274429321289 C 70.79737854003906 103.58930969238281 71.80667114257812 103.17203521728516 72.82246398925781 102.76909637451172 C 75.07835388183594 101.87196350097656 77.41378784179688 101.03219604492188 79.71270751953125 100.25762939453125 C 83.06004333496094 99.12967681884766 84.25187683105469 98.79846954345703 87.67613983154297 97.76310729980469 C 87.6930923461914 108.03849029541016 87.71004486083984 118.31388854980469 87.72699737548828 128.58926391601562" stroke-width="0.0" fill="rgb(61, 149, 199)" opacity="1.0"/>
    <path d="M 95.02278900146484 126.12083435058594 C 95.02278900146484 126.12083435058594 95.02278900146484 126.12083435058594 95.02278900146484 126.12083435058594 C 94.35123443603516 126.3985824584961 93.52189636230469 126.4403076171875 93.00682067871094 126.9540786743164 C 91.23992919921875 128.72097778320312 92.52696228027344 131.8179473876953 95.02278900146484 131.8179473876953 C 97.51991271972656 131.8179473876953 98.80432891845703 128.71966552734375 97.03874206542969 126.9540786743164 C 96.52367401123047 126.4403076171875 95.6943359375 126.3985824584961 95.02278900146484 126.12083435058594 C 95.02278900146484 126.12083435058594 95.02278900146484 126.12083435058594 95.02278900146484 126.12083435058594" stroke-width="0.0" fill="rgb(81, 79, 117)" opacity="1.0"/>
    <path d="M 154.54830932617188 36.50066375732422 C 154.54830932617188 36.50066375732422 154.54830932617188 36.50066375732422 154.54830932617188 36.50066375732422 C 151.96511840820312 31.90021514892578 145.8129425048828 35.93473815917969 142.4317169189453 37.678165435791016 C 137.4974365234375 40.22353744506836 132.6922607421875 43.041446685791016 127.52587127685547 45.10825729370117 C 120.5378189086914 47.9026985168457 113.0764389038086 49.364463806152344 105.92799377441406 51.67902755737305 C 105.00999450683594 51.976341247558594 104.09329223632812 52.28147506713867 103.18571472167969 52.6126823425293 C 100.00530242919922 53.77062225341797 92.63780212402344 56.223411560058594 94.1021728515625 60.9842529296875 C 94.73590850830078 63.047157287597656 97.07264709472656 64.0981674194336 98.93733978271484 64.69538879394531 C 103.78424072265625 66.24713134765625 109.21925354003906 66.146728515625 114.23698425292969 65.83767700195312 C 126.79303741455078 65.06572723388672 140.11712646484375 62.39646911621094 148.74559020996094 52.492713928222656 C 152.5558319091797 48.120460510253906 155.745361328125 42.436397552490234 154.54830932617188 36.50066375732422 C 154.54830932617188 36.50066375732422 154.54830932617188 36.50066375732422 154.54830932617188 36.50066375732422" stroke-width="0.0" fill="rgb(82, 79, 116)" opacity="1.0"/>
    <path d="M 86.71380615234375 95.49156951904297 C 86.71380615234375 95.49156951904297 86.71380615234375 95.49156951904297 86.71380615234375 95.49156951904297 C 77.68763732910156 98.38640594482422 68.03815460205078 101.32036590576172 60.19339370727539 106.8375244140625 C 57.259429931640625 108.90042877197266 53.82473373413086 111.96348571777344 54.06336212158203 115.9197769165039 C 54.59147262573242 124.66036987304688 66.27255249023438 127.52783203125 73.04153442382812 128.78225708007812 C 75.2791748046875 129.19692993164062 77.57940673828125 129.52293395996094 79.83920288085938 129.78240966796875 C 82.02598571777344 130.03538513183594 87.4544677734375 131.61843872070312 89.34393310546875 129.95846557617188 C 93.49581909179688 126.30729675292969 84.09800720214844 125.92132568359375 83.72637939453125 125.88742065429688 C 77.00695037841797 125.28498077392578 69.55729675292969 124.5847396850586 63.44682312011719 121.45648193359375 C 61.37479782104492 120.39505004882812 58.000083923339844 118.05308532714844 58.35737991333008 115.26516723632812 C 58.65990447998047 112.91539764404297 61.433475494384766 111.11198425292969 63.20298385620117 109.95274353027344 C 69.44253540039062 105.86214447021484 76.75527954101562 103.27765655517578 83.78375244140625 100.93048095703125 C 84.09539794921875 100.82616424560547 88.49634552001953 99.97596740722656 89.26439666748047 98.5311508178711 C 90.4366683959961 96.33133697509766 88.25511169433594 95.61544036865234 86.71380615234375 95.49156951904297 C 86.71380615234375 95.49156951904297 86.71380615234375 95.49156951904297 86.71380615234375 95.49156951904297" stroke-width="0.0" fill="rgb(82, 80, 118)" opacity="1.0"/>
    <path d="M 160.2910614013672 70.26470947265625 C 160.2910614013672 70.26470947265625 160.2910614013672 70.26470947265625 160.2910614013672 70.26470947265625 C 154.71524047851562 70.91539764404297 150.7276611328125 74.56915283203125 149.74835205078125 80.22975158691406 C 148.59042358398438 86.93091583251953 152.717529296875 95.1720962524414 160.2910614013672 95.1720962524414 C 167.8658905029297 95.1720962524414 171.99301147460938 86.93091583251953 170.83375549316406 80.22975158691406 C 169.85577392578125 74.56915283203125 165.86819458007812 70.91539764404297 160.2910614013672 70.26470947265625 C 160.2910614013672 70.26470947265625 160.2910614013672 70.26470947265625 160.2910614013672 70.26470947265625" stroke-width="0.0" fill="rgb(82, 79, 117)" opacity="1.0"/>
    <path d="M 150.23605346679688 38.13455581665039 C 150.23605346679688 38.13455581665039 150.23605346679688 38.13455581665039 150.23605346679688 38.13455581665039 C 144.2820587158203 39.8675537109375 138.85487365722656 43.14445877075195 133.14212036132812 45.51901626586914 C 127.90011596679688 47.697975158691406 122.48988342285156 49.01368713378906 116.97013092041016 50.26812744140625 C 116.52677154541016 50.367225646972656 116.08472442626953 50.46763610839844 115.64136505126953 50.56803894042969 C 112.75956726074219 51.22133255004883 109.87255096435547 51.86028289794922 107.01030731201172 52.5970344543457 C 103.80772399902344 53.42115783691406 100.29087829589844 54.32612228393555 97.47948455810547 56.13735580444336 C 94.46337890625 58.08028793334961 96.27982330322266 60.19795608520508 98.77173614501953 61.19419860839844 C 99.36504364013672 61.43282699584961 99.97792053222656 61.624515533447266 100.5947036743164 61.792728424072266 C 102.0721206665039 62.19435501098633 103.71383666992188 62.46949005126953 105.22645568847656 62.654666900634766 C 114.95286560058594 63.84649658203125 126.21927642822266 63.241455078125 135.4879913330078 59.88630676269531 C 141.68453979492188 57.64475631713867 147.26165771484375 53.27119064331055 150.80978393554688 47.704490661621094 C 152.16854858398438 45.57378387451172 153.3838653564453 43.041446685791016 153.51425170898438 40.467384338378906 C 153.5364227294922 40.01229476928711 153.66290283203125 37.966346740722656 152.54669189453125 37.80725860595703 C 151.77606201171875 37.69641876220703 151.00668334960938 38.02632522583008 150.23605346679688 38.13455581665039 C 150.23605346679688 38.13455581665039 150.23605346679688 38.13455581665039 150.23605346679688 38.13455581665039" stroke-width="0.0" fill="rgb(254, 207, 79)" opacity="1.0"/>
    <path d="M 160.2910614013672 74.5417709350586 C 160.2910614013672 74.5417709350586 160.2910614013672 74.5417709350586 160.2910614013672 74.5417709350586 C 164.39991760253906 75.37762451171875 166.77186584472656 78.4080810546875 166.77186584472656 82.71774291992188 C 166.77186584472656 86.36238861083984 164.46510314941406 90.89502716064453 160.2910614013672 90.89502716064453 C 156.11700439453125 90.89502716064453 153.81027221679688 86.36369323730469 153.81027221679688 82.71774291992188 C 153.81027221679688 78.4080810546875 156.18222045898438 75.37762451171875 160.2910614013672 74.5417709350586 C 160.2910614013672 74.5417709350586 160.2910614013672 74.5417709350586 160.2910614013672 74.5417709350586" stroke-width="0.0" fill="rgb(254, 254, 254)" opacity="1.0"/>
    <path d="M 97.82243347167969 32.473968505859375 C 97.82243347167969 32.473968505859375 97.82243347167969 32.473968505859375 97.82243347167969 32.473968505859375 C 107.77574157714844 30.148963928222656 119.1921157836914 29.20618438720703 128.13352966308594 35.20189666748047 C 133.63504028320312 38.889564514160156 136.64984130859375 44.76270294189453 133.52288818359375 51.03877639770508 C 131.2969970703125 55.5062255859375 127.35635375976562 59.07913589477539 123.29705810546875 61.86314392089844 C 114.9515609741211 67.5863265991211 104.2015151977539 71.13837432861328 94.44772338867188 73.60551452636719 C 89.55387878417969 74.84298706054688 83.34952545166016 76.37387084960938 78.48957824707031 74.18838500976562 C 75.52301788330078 72.85442352294922 74.32856750488281 70.2542724609375 73.84217834472656 67.19773864746094 C 72.92025756835938 61.40544891357422 73.95954895019531 55.270206451416016 76.27671813964844 49.92125701904297 C 80.2942886352539 40.652549743652344 88.39463806152344 35.21754455566406 97.82243347167969 32.473968505859375 C 97.82243347167969 32.473968505859375 97.82243347167969 32.473968505859375 97.82243347167969 32.473968505859375" stroke-width="0.0" fill="rgb(84, 81, 118)" opacity="1.0"/>
    <path d="M 162.943359375 79.72510528564453 C 162.943359375 79.72510528564453 162.943359375 79.72510528564453 162.943359375 79.72510528564453 C 163.56275939941406 80.01068115234375 164.34384155273438 80.07587432861328 164.80023193359375 80.58181762695312 C 165.2970428466797 81.13080596923828 165.33094787597656 81.96534729003906 165.5956573486328 82.65646362304688 C 164.94107055664062 82.76338958740234 164.28517150878906 82.87031555175781 163.63055419921875 82.97724151611328 C 164.07131958007812 83.54316711425781 164.5133514404297 84.10779571533203 164.9541015625 84.67372131347656 C 164.2838592529297 85.01927185058594 163.6970672607422 85.6803970336914 162.943359375 85.71170043945312 C 160.30801391601562 85.8225326538086 159.64950561523438 82.20137023925781 161.0682373046875 80.60137939453125 C 161.5259246826172 80.08500671386719 162.31875610351562 80.01719665527344 162.943359375 79.72510528564453 C 162.943359375 79.72510528564453 162.943359375 79.72510528564453 162.943359375 79.72510528564453" stroke-width="0.0" fill="rgb(36, 36, 36)" opacity="1.0"/>
    <path d="M 152.83749389648438 83.685302734375 C 152.83749389648438 83.685302734375 152.83749389648438 83.685302734375 152.83749389648438 83.685302734375 C 152.15028381347656 83.85742950439453 151.2870635986328 83.71007537841797 150.77590942382812 84.20167541503906 C 150.2647247314453 84.69197082519531 150.21778869628906 85.53435516357422 150.1799774169922 86.2411117553711 C 150.07955932617188 88.12667083740234 150.89846801757812 90.4242935180664 150.9636688232422 92.3685302734375 C 151.1331787109375 97.4332046508789 150.36122131347656 102.53960418701172 149.479736328125 107.51298522949219 C 148.94117736816406 110.54996490478516 147.32424926757812 113.22444152832031 150.6024627685547 114.83355712890625 C 150.75894165039062 114.83355712890625 150.91542053222656 114.83355712890625 151.0718994140625 114.83355712890625 C 159.50213623046875 114.86614990234375 166.50454711914062 110.57996368408203 172.78451538085938 105.22840881347656 C 177.3210906982422 101.3634033203125 177.38107299804688 95.4381103515625 172.70889282226562 91.54180908203125 C 170.93807983398438 90.06439208984375 168.76956176757812 89.3119888305664 166.6558074951172 88.486572265625 C 166.39761352539062 88.39398956298828 166.13943481445312 88.30010223388672 165.88124084472656 88.20620727539062 C 161.53765869140625 86.63491821289062 157.27626037597656 84.99059295654297 152.83749389648438 83.685302734375 C 152.83749389648438 83.685302734375 152.83749389648438 83.685302734375 152.83749389648438 83.685302734375" stroke-width="0.0" fill="rgb(82, 79, 117)" opacity="1.0"/>
    <path d="M 98.13278198242188 36.85795593261719 C 98.13278198242188 36.85795593261719 98.13278198242188 36.85795593261719 98.13278198242188 36.85795593261719 C 90.4875259399414 39.674560546875 84.06932067871094 44.01422119140625 80.71417236328125 51.70771789550781 C 78.71646881103516 56.288612365722656 77.98493957519531 61.52540969848633 78.67996215820312 66.47663879394531 C 78.95248413085938 68.4208755493164 79.26675415039062 70.62852478027344 81.33096313476562 71.45655059814453 C 84.81520080566406 72.85572814941406 89.52127838134766 71.36004638671875 92.90120697021484 70.38858795166016 C 96.95790100097656 69.22151947021484 100.91027069091797 67.69325256347656 104.79613494873047 66.05284118652344 C 113.80535888671875 62.25172805786133 124.5553970336914 57.63954544067383 129.2549591064453 48.41776657104492 C 134.12142944335938 38.866092681884766 119.96537780761719 34.634666442871094 113.10121154785156 34.48600769042969 C 110.79707336425781 34.43646240234375 108.49815368652344 34.605979919433594 106.22138977050781 34.9554443359375 C 102.67716217041016 35.49920654296875 101.6600570678711 35.89170837402344 98.13278198242188 36.85795593261719 C 98.13278198242188 36.85795593261719 98.13278198242188 36.85795593261719 98.13278198242188 36.85795593261719" stroke-width="0.0" fill="rgb(82, 79, 117)" opacity="1.0"/>
    <path d="M 151.04058837890625 88.12928009033203 C 151.04058837890625 88.12928009033203 151.04058837890625 88.12928009033203 151.04058837890625 88.12928009033203 C 153.6172637939453 96.9103012084961 152.87139892578125 106.15162658691406 151.75389099121094 115.12303924560547 C 151.75389099121094 115.12303924560547 151.75389099121094 115.12303924560547 151.75389099121094 115.12303924560547 C 159.0314178466797 114.52189636230469 164.3060302734375 110.96333312988281 169.65496826171875 106.15685272216797 C 172.65414428710938 103.46021270751953 175.71847534179688 100.21981811523438 172.87060546875 96.11747741699219 C 170.85853576660156 93.2187271118164 167.61032104492188 92.397216796875 164.4194793701172 91.50790405273438 C 159.97157287597656 90.26911163330078 155.5693359375 89.05510711669922 151.04058837890625 88.12928009033203 C 151.04058837890625 88.12928009033203 151.04058837890625 88.12928009033203 151.04058837890625 88.12928009033203" stroke-width="0.0" fill="rgb(82, 79, 117)" opacity="1.0"/>
    <path d="M 94.75286102294922 34.58250427246094 C 94.75286102294922 34.58250427246094 94.75286102294922 34.58250427246094 94.75286102294922 34.58250427246094 C 99.78101348876953 37.85941696166992 105.33989715576172 40.96158981323242 109.57392883300781 45.27907943725586 C 112.2027587890625 47.9600715637207 114.31521606445312 51.192649841308594 116.3350830078125 54.337852478027344 C 116.57632446289062 54.713401794433594 119.61591339111328 59.53553009033203 119.70980072021484 59.82371139526367 C 120.04491424560547 60.85776901245117 118.19456481933594 61.411964416503906 117.28178405761719 62.0026741027832 C 113.37374114990234 64.52848815917969 109.11363220214844 66.69570922851562 104.84568786621094 68.54214477539062 C 103.85987854003906 68.96723937988281 102.43462371826172 70.33382415771484 101.7682876586914 69.49144744873047 C 100.28565979003906 67.61763000488281 99.43154907226562 63.953426361083984 98.60482025146484 61.70275115966797 C 95.37355041503906 52.90998840332031 94.6602783203125 43.90077209472656 94.75286102294922 34.58250427246094 C 94.75286102294922 34.58250427246094 94.75286102294922 34.58250427246094 94.75286102294922 34.58250427246094" stroke-width="0.0" fill="rgb(82, 79, 117)" opacity="1.0"/>
    <path d="M 117.24526977539062 31.898910522460938 C 117.24526977539062 31.898910522460938 117.24526977539062 31.898910522460938 117.24526977539062 31.898910522460938 C 124.02337646484375 33.0020751953125 128.6785888671875 38.0823974609375 133.60243225097656 42.483341217041016 C 133.03651428222656 45.50727844238281 132.4705810546875 48.531219482421875 131.90335083007812 51.55515670776367 C 127.6888656616211 46.56741714477539 123.09363555908203 40.237884521484375 117.3939208984375 36.817535400390625 C 113.89403533935547 34.71812438964844 109.24663543701172 33.60191345214844 105.21993255615234 33.257659912109375 C 102.05907440185547 32.98773956298828 98.82781219482422 34.35691833496094 95.6695556640625 34.58641815185547 C 95.6695556640625 34.58641815185547 95.6695556640625 34.58641815185547 95.6695556640625 34.58641815185547 C 102.79452514648438 32.863853454589844 109.89210510253906 31.6029052734375 117.24526977539062 31.898910522460938 C 117.24526977539062 31.898910522460938 117.24526977539062 31.898910522460938 117.24526977539062 31.898910522460938" stroke-width="0.0" fill="rgb(82, 79, 117)" opacity="1.0"/>
    <path d="M 91.66763305664062 35.85388946533203 C 91.66893005371094 35.85388946533203 91.67024230957031 35.85388946533203 91.6728515625 35.85388946533203 C 89.04402160644531 41.041133880615234 85.46719360351562 46.778663635253906 84.92343139648438 52.71700668334961 C 84.70957946777344 55.05244064331055 85.29767608642578 57.36701202392578 85.79449462890625 59.6307258605957 C 86.86115264892578 64.49458312988281 88.23033905029297 69.281494140625 89.64125061035156 74.05408477783203 C 85.25334167480469 73.42425537109375 80.8641357421875 72.79443359375 76.47492980957031 72.16331481933594 C 74.50851440429688 64.66018676757812 75.59342956542969 55.198486328125 79.79095458984375 48.490787506103516 C 82.82923126220703 43.634761810302734 87.66702270507812 39.87406921386719 91.66763305664062 35.85388946533203 C 91.66763305664062 35.85388946533203 91.66763305664062 35.85388946533203 91.66763305664062 35.85388946533203" stroke-width="0.0" fill="rgb(82, 79, 117)" opacity="1.0"/>
    <path d="M 154.9760284423828 88.78648376464844 C 154.9760284423828 88.78648376464844 154.9760284423828 88.78648376464844 154.9760284423828 88.78648376464844 C 158.16949462890625 89.84532165527344 161.27426147460938 91.09193420410156 164.43511962890625 92.23422241210938 C 164.69070434570312 92.32550048828125 164.9475860595703 92.41677856445312 165.2031707763672 92.50936126708984 C 166.94528198242188 93.2226333618164 168.7239227294922 93.72857666015625 170.15309143066406 95.01821899414062 C 173.80294799804688 98.31077575683594 171.1975860595703 101.14173126220703 168.24795532226562 103.38980102539062 C 163.71009826660156 106.8492660522461 159.0301055908203 109.93058013916016 153.25999450683594 110.54736328125 C 153.25999450683594 110.54736328125 153.25999450683594 110.54736328125 153.25999450683594 110.54736328125 C 154.6239471435547 103.35067749023438 155.66712951660156 96.1148681640625 154.9760284423828 88.78648376464844 C 154.9760284423828 88.78648376464844 154.9760284423828 88.78648376464844 154.9760284423828 88.78648376464844" stroke-width="0.0" fill="rgb(254, 197, 46)" opacity="1.0"/>
    <path d="M 138.18072509765625 70.5711441040039 C 138.18072509765625 70.5711441040039 138.18072509765625 70.5711441040039 138.18072509765625 70.5711441040039 C 132.1915283203125 71.14881134033203 127.31854248046875 74.31356811523438 125.29344940185547 80.21018981933594 C 122.23169708251953 89.1307373046875 128.13352966308594 100.13114166259766 138.18072509765625 100.13114166259766 C 148.2266082763672 100.12983703613281 154.12844848632812 89.12812805175781 151.06668090820312 80.2088851928711 C 149.04159545898438 74.31096649169922 144.16860961914062 71.14881134033203 138.18072509765625 70.5711441040039 C 138.18072509765625 70.5711441040039 138.18072509765625 70.5711441040039 138.18072509765625 70.5711441040039" stroke-width="0.0" fill="rgb(83, 80, 117)" opacity="1.0"/>
    <path d="M 98.8917007446289 36.61280822753906 C 98.8917007446289 36.61280822753906 98.8917007446289 36.61280822753906 98.8917007446289 36.61280822753906 C 91.10953521728516 39.02518081665039 84.47486114501953 43.023189544677734 80.72200012207031 50.531524658203125 C 78.48828125 55.00288772583008 77.48290252685547 60.195350646972656 77.91712951660156 65.17787170410156 C 78.08665466308594 67.13385009765625 78.2835464477539 69.3558349609375 80.30211639404297 70.29078674316406 C 83.70942687988281 71.86860656738281 88.48722076416016 70.62199401855469 91.9140853881836 69.827880859375 C 96.02554321289062 68.87466430664062 100.05354309082031 67.55633544921875 104.020263671875 66.1219482421875 C 113.2172622680664 62.799407958984375 124.18898010253906 58.757049560546875 129.36448669433594 49.790863037109375 C 134.72386169433594 40.5038948059082 120.8116683959961 35.538330078125 113.96183013916016 35.02976989746094 C 111.66291046142578 34.85895538330078 109.35877227783203 34.907196044921875 107.06637573242188 35.13800048828125 C 103.4986801147461 35.49529266357422 102.46331787109375 35.83302307128906 98.8917007446289 36.61280822753906 C 98.8917007446289 36.61280822753906 98.8917007446289 36.61280822753906 98.8917007446289 36.61280822753906" stroke-width="0.0" fill="rgb(254, 138, 114)" opacity="1.0"/>
    <path d="M 137.77256774902344 71.91424560546875 C 137.77256774902344 71.91424560546875 137.77256774902344 71.91424560546875 137.77256774902344 71.91424560546875 C 130.20164489746094 72.87007141113281 126.48399353027344 80.2349624633789 127.64844512939453 87.44598388671875 C 128.46083068847656 92.48066711425781 132.1980438232422 97.76310729980469 137.77256774902344 97.76310729980469 C 143.34710693359375 97.76310729980469 147.08432006835938 92.48197174072266 147.89801025390625 87.44598388671875 C 149.0624542236328 80.23365783691406 145.343505859375 72.87007141113281 137.77256774902344 71.91424560546875 C 137.77256774902344 71.91424560546875 137.77256774902344 71.91424560546875 137.77256774902344 71.91424560546875" stroke-width="0.0" fill="rgb(82, 79, 117)" opacity="1.0"/>
    <path d="M 93.236328125 28.151260375976562 C 93.236328125 28.151260375976562 93.236328125 28.151260375976562 93.236328125 28.151260375976562 C 95.63826751708984 28.0 97.65943908691406 28.059982299804688 99.28289794921875 30.17504119873047 C 101.75394439697266 33.393272399902344 100.15786743164062 38.23105239868164 96.21984100341797 39.285972595214844 C 92.28180694580078 40.34089660644531 88.47808837890625 36.953147888183594 89.01011657714844 32.929054260253906 C 89.35958862304688 30.28588104248047 91.08084106445312 29.221832275390625 93.236328125 28.151260375976562 C 93.236328125 28.151260375976562 93.236328125 28.151260375976562 93.236328125 28.151260375976562" stroke-width="0.0" fill="rgb(85, 81, 118)" opacity="1.0"/>
    <path d="M 138.18072509765625 74.83647155761719 C 138.18072509765625 74.83647155761719 138.18072509765625 74.83647155761719 138.18072509765625 74.83647155761719 C 142.00921630859375 75.3254623413086 145.04489135742188 77.01542663574219 146.67486572265625 80.70570373535156 C 149.4432373046875 86.97003936767578 145.72947692871094 95.85277557373047 138.18072509765625 95.85277557373047 C 130.6319580078125 95.85408020019531 126.91691589355469 86.97394561767578 129.68527221679688 80.70830535888672 C 131.31524658203125 77.01673889160156 134.35092163085938 75.32676696777344 138.18072509765625 74.83647155761719 C 138.18072509765625 74.83647155761719 138.18072509765625 74.83647155761719 138.18072509765625 74.83647155761719" stroke-width="0.0" fill="rgb(254, 254, 254)" opacity="1.0"/>
    <path d="M 93.60274505615234 29.532180786132812 C 93.60274505615234 29.532180786132812 93.60274505615234 29.532180786132812 93.60274505615234 29.532180786132812 C 91.96624755859375 30.340652465820312 90.68182373046875 31.15955352783203 90.41580963134766 33.15856170654297 C 90.01287841796875 36.18640899658203 92.91293334960938 38.6978759765625 95.85211181640625 37.91157913208008 C 98.78999328613281 37.125274658203125 100.03791046142578 33.497589111328125 98.1810302734375 31.08000946044922 C 96.94746398925781 29.474807739257812 95.42962646484375 29.410911560058594 93.60274505615234 29.532180786132812 C 93.60274505615234 29.532180786132812 93.60274505615234 29.532180786132812 93.60274505615234 29.532180786132812" stroke-width="0.0" fill="rgb(82, 79, 117)" opacity="1.0"/>
    <path d="M 141.494140625 82.0266342163086 C 141.494140625 82.0266342163086 141.494140625 82.0266342163086 141.494140625 82.0266342163086 C 143.9990997314453 82.75947570800781 144.4776611328125 83.42449951171875 145.14007568359375 85.93598175048828 C 144.23902893066406 86.08071899414062 143.3379669189453 86.22415924072266 142.43692016601562 86.36890411376953 C 143.04327392578125 87.12260437011719 143.64833068847656 87.875 144.25335693359375 88.62870788574219 C 143.31320190429688 89.4058837890625 142.8607177734375 90.07743072509766 141.494140625 90.0096206665039 C 138.51454162597656 89.85966491699219 137.025390625 86.52538299560547 138.34762573242188 84.00216674804688 C 139.20956420898438 82.35916137695312 139.9045867919922 82.49737548828125 141.494140625 82.0266342163086 C 141.494140625 82.0266342163086 141.494140625 82.0266342163086 141.494140625 82.0266342163086" stroke-width="0.0" fill="rgb(36, 36, 36)" opacity="1.0"/>
    <path d="M 93.97438049316406 30.910484313964844 C 93.97438049316406 30.910484313964844 93.97438049316406 30.910484313964844 93.97438049316406 30.910484313964844 C 93.38367462158203 31.361663818359375 92.5765151977539 31.622467041015625 92.2022705078125 32.26532745361328 C 90.91523742675781 34.48210144042969 93.00943756103516 37.19829559326172 95.48048400878906 36.53717803955078 C 97.95022583007812 35.876060485839844 98.41444396972656 32.47526550292969 96.18854522705078 31.196060180664062 C 95.5430679321289 30.825729370117188 94.71244049072266 31.00568389892578 93.97438049316406 30.910484313964844 C 93.97438049316406 30.910484313964844 93.97438049316406 30.910484313964844 93.97438049316406 30.910484313964844" stroke-width="0.0" fill="rgb(253, 207, 79)" opacity="1.0"/>
  </g>
</svg>
