<?xml version="1.0" ?>
<svg xmlns="http://www.w3.org/2000/svg" version="1.1" width="224" height="224">
  <defs/>
  <g>
    <path d="M 163.64602661132812 78.07298278808594 C 163.64602661132812 78.07298278808594 163.64602661132812 78.07298278808594 163.64602661132812 78.07298278808594 C 165.66616821289062 79.41299438476562 167.6901092529297 81.05443572998047 169.8875732421875 82.10694122314453 C 172.63092041015625 83.42161560058594 175.8644256591797 83.28862762451172 178.8179931640625 83.30003356933594 C 179.71218872070312 83.27976989746094 180.6051025390625 83.26075744628906 181.49801635742188 83.24049377441406 C 182.01097106933594 82.88079833984375 182.8329620361328 82.754150390625 183.03688049316406 82.1613998413086 C 183.6688690185547 80.3236312866211 179.65391540527344 76.65444946289062 178.91046142578125 75.8172607421875 C 175.4844512939453 71.96694946289062 172.04197692871094 69.44525146484375 167.3861541748047 67.2237319946289 C 166.13986206054688 70.84098815917969 164.89230346679688 74.45698547363281 163.64602661132812 78.07298278808594" stroke-width="0.0" fill="rgb(225, 151, 92)" opacity="1.0"/>
    <path d="M 169.0465850830078 146.7933349609375 C 167.97381591796875 157.4564208984375 166.9010467529297 168.11822509765625 165.8270263671875 178.78128051757812 C 164.69598388671875 183.71701049804688 161.90199279785156 186.24630737304688 156.87757873535156 186.87704467773438 C 154.70672607421875 186.87704467773438 152.53585815429688 186.87704467773438 150.36373901367188 186.87704467773438 C 144.9656982421875 186.152587890625 142.0944366455078 183.28134155273438 141.36997985839844 177.88330078125 C 141.36997985839844 168.10174560546875 141.36997985839844 158.3201904296875 141.36997985839844 148.5386505126953 C 150.59552001953125 147.95730590820312 159.821044921875 147.37469482421875 169.0465850830078 146.7933349609375" stroke-width="0.0" fill="rgb(224, 150, 92)" opacity="1.0"/>
    <path d="M 59.56490707397461 101.48258972167969 C 59.83088302612305 101.909423828125 60.09558868408203 102.33624267578125 60.36156463623047 102.76306915283203 C 63.09857940673828 108.11170196533203 62.075199127197266 111.85814666748047 59.48004913330078 116.98513793945312 C 59.13427734375 117.6488037109375 58.788516998291016 118.3124771118164 58.442745208740234 118.9774169921875 C 56.6518440246582 122.41102600097656 55.24217987060547 125.72938537597656 54.24794006347656 129.475830078125 C 54.108612060546875 130.04197692871094 53.96802520751953 130.60939025878906 53.828704833984375 131.1768035888672 C 53.47914123535156 132.84864807128906 52.27592468261719 136.51023864746094 53.60326385498047 138.0921630859375 C 54.429046630859375 139.07754516601562 56.91655349731445 139.05979919433594 57.739810943603516 139.10919189453125 C 61.26841735839844 139.3207244873047 63.98009490966797 138.44932556152344 67.15026092529297 137.0029296875 C 67.90512084960938 136.6140899658203 68.65998840332031 136.2239990234375 69.41485595703125 135.83517456054688 C 71.03855895996094 141.6511688232422 72.66227722167969 147.46588134765625 74.28599548339844 153.2805938720703 C 73.28921508789062 153.19195556640625 72.29118347167969 153.103271484375 71.29440307617188 153.0133514404297 C 66.87921142578125 152.55361938476562 62.55396270751953 151.61636352539062 58.165367126464844 150.98182678222656 C 54.84068298339844 150.5017852783203 51.5767822265625 150.59552001953125 48.551002502441406 148.86541748046875 C 37.60675811767578 142.6099395751953 42.246124267578125 126.81861877441406 47.706214904785156 118.56959533691406 C 50.525550842285156 114.30891418457031 54.32392883300781 110.59413146972656 53.57666778564453 105.16064453125 C 53.386680603027344 104.4754409790039 53.19670104980469 103.79024505615234 53.00798797607422 103.10376739501953 C 55.19404602050781 102.56295776367188 57.37884521484375 102.02340698242188 59.56490707397461 101.48258972167969" stroke-width="0.0" fill="rgb(82, 79, 117)" opacity="1.0"/>
    <path d="M 168.22964477539062 65.33403778076172 C 168.22964477539062 65.33403778076172 168.22964477539062 65.33403778076172 168.22964477539062 65.33403778076172 C 174.2863006591797 68.22303771972656 178.64195251464844 71.95049285888672 182.8532257080078 77.19145965576172 C 185.1444091796875 80.04373168945312 186.5249481201172 84.575439453125 181.54742431640625 85.31256866455078 C 180.65451049804688 85.3315658569336 179.76031494140625 85.3518295288086 178.8673858642578 85.3708267211914 C 172.79176330566406 85.33283233642578 169.1390380859375 84.23854064941406 164.19190979003906 80.92524719238281 C 162.91395568847656 80.06906127929688 159.5120086669922 76.92042541503906 163.1900634765625 76.06297302246094 C 165.3292694091797 75.56394958496094 168.3056640625 78.76578521728516 169.96231079101562 79.78282165527344 C 172.5663299560547 81.38247680664062 175.83148193359375 81.20768737792969 178.76353454589844 81.22289276123047 C 179.3955535888672 81.20768737792969 180.0262908935547 81.19248962402344 180.65704345703125 81.17855834960938 C 178.25057983398438 77.95899200439453 175.42364501953125 74.44939422607422 172.07997131347656 72.1278076171875 C 170.3954620361328 70.95878601074219 166.1892547607422 69.939208984375 165.4381866455078 67.96339416503906 C 164.59088134765625 65.72920227050781 166.73513793945312 65.28718566894531 168.22964477539062 65.33403778076172 C 168.22964477539062 65.33403778076172 168.22964477539062 65.33403778076172 168.22964477539062 65.33403778076172" stroke-width="0.0" fill="rgb(83, 80, 117)" opacity="1.0"/>
    <path d="M 169.25430297851562 144.77572631835938 C 169.25430297851562 144.77572631835938 169.25430297851562 144.77572631835938 169.25430297851562 144.77572631835938 C 168.32591247558594 145.0505828857422 167.4583282470703 145.7421112060547 166.98464965820312 146.58563232421875 C 165.9093475341797 157.2487030029297 164.83531188964844 167.91175842285156 163.760009765625 178.5735626220703 C 162.77589416503906 182.4340057373047 160.81654357910156 184.20718383789062 156.87757873535156 184.79991149902344 C 154.70672607421875 184.79991149902344 152.53585815429688 184.79991149902344 150.36373901367188 184.79991149902344 C 146.13345336914062 184.11724853515625 144.12852478027344 182.11355590820312 143.4458465576172 177.88330078125 C 143.4458465576172 168.10174560546875 143.4458465576172 158.3201904296875 143.4458465576172 148.5386505126953 C 142.36167907714844 145.91941833496094 140.3769989013672 145.9207000732422 139.2928466796875 148.5386505126953 C 139.2928466796875 158.3201904296875 139.2928466796875 168.10174560546875 139.2928466796875 177.88330078125 C 140.04769897460938 184.43896484375 143.80807495117188 188.1993408203125 150.36373901367188 188.95419311523438 C 152.53585815429688 188.95419311523438 154.70672607421875 188.95419311523438 156.87757873535156 188.95419311523438 C 162.977294921875 188.29812622070312 166.62747192382812 184.9962158203125 167.89529418945312 178.99404907226562 C 168.9680633544922 168.33099365234375 170.04083251953125 157.66920471191406 171.11358642578125 147.00611877441406 C 170.8184814453125 146.08407592773438 170.10922241210938 145.23043823242188 169.25430297851562 144.77572631835938 C 169.25430297851562 144.77572631835938 169.25430297851562 144.77572631835938 169.25430297851562 144.77572631835938" stroke-width="0.0" fill="rgb(84, 80, 117)" opacity="1.0"/>
    <path d="M 58.6010627746582 103.85103607177734 C 57.59162139892578 104.09927368164062 56.582183837890625 104.34878540039062 55.574012756347656 104.59829711914062 C 56.30354309082031 107.92552185058594 55.36756134033203 110.6739273071289 53.641258239746094 113.50972747802734 C 52.33671569824219 115.6514663696289 50.81305694580078 117.62474060058594 49.42998504638672 119.71328735351562 C 44.57024383544922 127.05672454833984 39.58130645751953 142.4414825439453 50.363433837890625 147.46714782714844 C 53.192901611328125 148.78561401367188 56.43146514892578 148.6197052001953 59.45597839355469 149.08200073242188 C 63.46841049194336 149.69375610351562 67.43017578125 150.4891357421875 71.4679183959961 150.9463653564453 C 70.33943176269531 146.9098663330078 69.21220397949219 142.87338256835938 68.08497619628906 138.83689880371094 C 65.89384460449219 139.83999633789062 63.82937240600586 140.7848358154297 61.41533279418945 141.09640502929688 C 60.233646392822266 141.24838256835938 58.82524490356445 141.23573303222656 57.641021728515625 141.16607666015625 C 55.72599792480469 141.0546112060547 52.96492004394531 141.03941345214844 51.7958984375 139.1142578125 C 50.67120361328125 137.2638397216797 51.03850555419922 134.78140258789062 51.37413787841797 132.78912353515625 C 52.12647247314453 128.315673828125 53.56273651123047 124.02587890625 55.579078674316406 119.97039031982422 C 55.58287811279297 119.9627914428711 57.62961959838867 116.0428237915039 57.641021728515625 116.02002716064453 C 58.613731384277344 114.12906646728516 59.858741760253906 112.1177978515625 60.119651794433594 109.95706176757812 C 60.39449691772461 107.69120788574219 59.57630157470703 105.80784606933594 58.6010627746582 103.85103607177734 C 58.6010627746582 103.85103607177734 58.6010627746582 103.85103607177734 58.6010627746582 103.85103607177734" stroke-width="0.0" fill="rgb(82, 79, 117)" opacity="1.0"/>
    <path d="M 169.36322021484375 72.16326904296875 C 169.36322021484375 72.16326904296875 169.36322021484375 72.16326904296875 169.36322021484375 72.16326904296875 C 168.76162719726562 72.1050033569336 168.14100646972656 71.8250961303711 167.55966186523438 71.98848724365234 C 163.07986450195312 73.23983764648438 167.20628356933594 78.24522399902344 169.36322021484375 79.28506469726562 C 171.23138427734375 80.184326171875 177.90228271484375 81.42173767089844 175.70230102539062 76.96475219726562 C 174.58140563964844 74.69256591796875 171.47328186035156 73.2474365234375 169.3682861328125 72.16326904296875 C 169.3682861328125 72.16326904296875 169.3682861328125 72.16326904296875 169.3682861328125 72.16326904296875 C 169.3682861328125 72.16326904296875 169.36322021484375 72.16326904296875 169.36322021484375 72.16326904296875" stroke-width="0.0" fill="rgb(254, 231, 169)" opacity="1.0"/>
    <path d="M 176.76112365722656 28.064590454101562 C 176.76112365722656 28.064590454101562 176.76112365722656 28.064590454101562 176.76112365722656 28.064590454101562 C 173.5504150390625 29.16016387939453 173.51495361328125 32.21507263183594 172.34593200683594 35.123069763183594 C 171.26431274414062 37.809417724609375 169.98509216308594 40.461570739746094 168.279052734375 42.81355285644531 C 166.21078491210938 45.66581726074219 163.41677856445312 47.891143798828125 160.23394775390625 49.38693618774414 C 158.7204132080078 50.09746551513672 155.389404296875 50.3963737487793 154.48887634277344 51.992225646972656 C 153.82012939453125 53.177711486816406 154.74598693847656 55.07246780395508 155.0816192626953 56.01605224609375 C 156.67874145507812 60.511024475097656 159.08518981933594 64.0548324584961 163.05453491210938 66.77537536621094 C 164.6402587890625 67.86334228515625 165.62562561035156 68.92977905273438 167.63818359375 68.28129577636719 C 170.13961791992188 67.47450256347656 172.81204223632812 64.16754913330078 174.3800048828125 62.201866149902344 C 179.4234161376953 55.88052749633789 182.382080078125 48.15331268310547 181.67787170410156 40.02587890625 C 181.34349060058594 36.16924285888672 180.98886108398438 29.36407470703125 176.76112365722656 28.064590454101562 C 176.76112365722656 28.064590454101562 176.76112365722656 28.064590454101562 176.76112365722656 28.064590454101562" stroke-width="0.0" fill="rgb(82, 79, 117)" opacity="1.0"/>
    <path d="M 164.45281982421875 180.769775390625 C 164.45281982421875 180.769775390625 164.45281982421875 180.769775390625 164.45281982421875 180.769775390625 C 165.14434814453125 180.87741088867188 165.98406982421875 180.64944458007812 166.5274200439453 181.09146118164062 C 167.06951904296875 181.5322265625 167.0163116455078 182.4010772705078 167.26202392578125 183.05587768554688 C 166.61862182617188 186.77194213867188 165.97518920898438 190.4892578125 165.33306884765625 194.20530700683594 C 164.88470458984375 194.97662353515625 164.1184539794922 195.61749267578125 163.27999877929688 195.92147827148438 C 156.93838500976562 195.92147827148438 150.59552001953125 195.92147827148438 144.25262451171875 195.92147827148438 C 143.4357147216797 195.63523864746094 142.68338012695312 195.03363037109375 142.22616577148438 194.29901123046875 C 141.46116638183594 190.85910034179688 140.6961669921875 187.4191436767578 139.93118286132812 183.97918701171875 C 140.56951904296875 182.0413818359375 140.14903259277344 181.32577514648438 142.6947784423828 181.58541870117188 C 145.45587158203125 181.86785888671875 148.15740966796875 183.48397827148438 151.0210723876953 183.78414916992188 C 155.6515655517578 184.27049255371094 160.21368408203125 182.35675048828125 164.45281982421875 180.769775390625 C 164.45281982421875 180.769775390625 164.45281982421875 180.769775390625 164.45281982421875 180.769775390625" stroke-width="0.0" fill="rgb(84, 80, 117)" opacity="1.0"/>
    <path d="M 57.9779167175293 107.86092376708984 C 57.9779167175293 107.86092376708984 57.9779167175293 107.86092376708984 57.9779167175293 107.86092376708984 C 57.13059997558594 112.93978881835938 53.974365234375 116.62543487548828 51.195556640625 120.81517791748047 C 48.39141845703125 125.04165649414062 46.326942443847656 129.8114776611328 46.13063049316406 134.94479370117188 C 45.945716857910156 139.7703399658203 47.722679138183594 144.8010711669922 52.825599670410156 146.15499877929688 C 54.700096130371094 146.6514892578125 56.72783660888672 146.58184814453125 58.640323638916016 146.85540771484375 C 61.986541748046875 147.33541870117188 65.30490112304688 148.00161743164062 68.64479064941406 148.5234375 C 68.01404571533203 146.2689971923828 67.38456726074219 144.01327514648438 66.75382995605469 141.75880432128906 C 62.1359977722168 143.42559814453125 52.02894592285156 145.40521240234375 49.54017639160156 139.26878356933594 C 48.230567932128906 136.03781127929688 49.3172607421875 132.173583984375 50.09492492675781 128.96669006347656 C 50.134185791015625 128.8032989501953 50.174720764160156 128.63990783691406 50.21398162841797 128.47653198242188 C 51.09803009033203 125.1556396484375 52.18346405029297 122.09819030761719 53.72991943359375 119.02174377441406 C 55.53727722167969 115.4234848022461 58.164100646972656 112.01520538330078 57.9779167175293 107.86092376708984 C 57.9779167175293 107.86092376708984 57.9779167175293 107.86092376708984 57.9779167175293 107.86092376708984" stroke-width="0.0" fill="rgb(223, 150, 92)" opacity="1.0"/>
    <path d="M 57.58148956298828 104.04354858398438 C 56.91402053833008 104.22846221923828 56.246551513671875 104.41338348388672 55.579078674316406 104.59829711914062 C 55.7449951171875 105.26830291748047 55.91217803955078 105.9395751953125 56.07936096191406 106.61083984375 C 57.08753967285156 106.36133575439453 58.095706939697266 106.11309051513672 59.103878021240234 105.86357879638672 C 58.35155487060547 105.55707550048828 57.597957611083984 105.25057220458984 56.8443603515625 104.94279479980469 C 57.318050384521484 105.87117767333984 57.68788146972656 106.85528564453125 57.9779167175293 107.85586547851562 C 57.9779167175293 107.85586547851562 57.9779167175293 107.85586547851562 57.9779167175293 107.85586547851562 C 57.92979431152344 106.57917785644531 57.86646270751953 105.28856658935547 57.58148956298828 104.04354858398438 C 57.58148956298828 104.04354858398438 57.58148956298828 104.04354858398438 57.58148956298828 104.04354858398438" stroke-width="0.0" fill="rgb(125, 100, 109)" opacity="1.0"/>
    <path d="M 176.80039978027344 30.180999755859375 C 176.80039978027344 30.180999755859375 176.80039978027344 30.180999755859375 176.80039978027344 30.180999755859375 C 175.82008361816406 30.883934020996094 175.58956909179688 32.282203674316406 175.16653442382812 33.411964416503906 C 174.2685546875 35.8070068359375 173.2451934814453 38.16405487060547 172.0039825439453 40.40204620361328 C 168.39051818847656 46.91716766357422 162.9519500732422 50.60155487060547 155.89727783203125 52.69009017944336 C 155.89727783203125 52.69009017944336 155.89727783203125 52.69009017944336 155.89727783203125 52.69009017944336 C 157.79330444335938 58.99623489379883 160.35299682617188 62.760414123535156 165.91061401367188 66.37387084960938 C 165.91061401367188 66.37387084960938 165.91061401367188 66.37387084960938 165.91061401367188 66.37387084960938 C 174.98922729492188 60.39830780029297 180.57342529296875 49.59844970703125 179.2815704345703 38.69853210449219 C 179.01304626464844 36.43901824951172 178.70907592773438 31.579269409179688 176.80039978027344 30.180999755859375 C 176.80039978027344 30.180999755859375 176.80039978027344 30.180999755859375 176.80039978027344 30.180999755859375" stroke-width="0.0" fill="rgb(82, 79, 117)" opacity="1.0"/>
    <path d="M 165.21527099609375 182.69871520996094 C 164.5693359375 186.41603088378906 163.92466735839844 190.132080078125 163.27999877929688 193.84939575195312 C 156.93838500976562 193.84939575195312 150.59552001953125 193.84939575195312 144.25262451171875 193.84939575195312 C 143.48765563964844 190.40945434570312 142.72265625 186.9695281982422 141.95892333984375 183.52828979492188 C 145.41659545898438 184.74673461914062 148.9565887451172 185.94107055664062 152.6701202392578 185.94741821289062 C 156.9814453125 185.95628356933594 161.25479125976562 184.1919708251953 165.21527099609375 182.69871520996094 C 165.21527099609375 182.69871520996094 165.21527099609375 182.69871520996094 165.21527099609375 182.69871520996094" stroke-width="0.0" fill="rgb(82, 79, 117)" opacity="1.0"/>
    <path d="M 43.57853698730469 82.64649200439453 C 43.57853698730469 82.64649200439453 43.57853698730469 82.64649200439453 43.57853698730469 82.64649200439453 C 46.38267517089844 83.78764343261719 48.72705078125 84.966796875 51.09929656982422 86.855224609375 C 51.09929656982422 86.855224609375 51.09929656982422 86.855224609375 51.09929656982422 86.855224609375 C 51.412132263183594 85.76599884033203 51.69584655761719 83.32915496826172 53.284088134765625 82.90866088867188 C 55.74119567871094 82.25765228271484 58.633995056152344 87.14273071289062 59.805545806884766 88.74365234375 C 63.86863327026367 94.2911376953125 64.55256652832031 102.85173034667969 56.89375686645508 105.67105865478516 C 54.69629669189453 106.48038482666016 52.184730529785156 106.55638122558594 49.91761016845703 106.01683044433594 C 47.4554443359375 105.42915344238281 45.732933044433594 104.1651382446289 43.849578857421875 102.5604248046875 C 41.91935729980469 100.25276947021484 39.98914337158203 97.94512176513672 38.058921813964844 95.63746643066406 C 37.996849060058594 94.85093688964844 37.47504425048828 93.96056365966797 37.87146759033203 93.27915954589844 C 38.90876770019531 91.49966430664062 41.78003692626953 92.55216217041016 43.23656463623047 92.73454284667969 C 43.23656463623047 92.73454284667969 43.23656463623047 92.73454284667969 43.23656463623047 92.73454284667969 C 42.35631561279297 90.9322509765625 41.67997741699219 89.21227264404297 41.244285583496094 87.24405670166016 C 40.988441467285156 86.08895874023438 40.210784912109375 84.05235290527344 41.50012969970703 82.98465728759766 C 42.04094696044922 82.53629302978516 42.88573455810547 82.75920867919922 43.57853698730469 82.64649200439453 C 43.57853698730469 82.64649200439453 43.57853698730469 82.64649200439453 43.57853698730469 82.64649200439453" stroke-width="0.0" fill="rgb(85, 82, 118)" opacity="1.0"/>
    <path d="M 176.70159912109375 35.382713317871094 C 176.70159912109375 35.382713317871094 176.70159912109375 35.382713317871094 176.70159912109375 35.382713317871094 C 178.96112060546875 46.465003967285156 175.55157470703125 56.967227935791016 166.49449157714844 64.06369018554688 C 166.49449157714844 64.06369018554688 166.49449157714844 64.06369018554688 166.49449157714844 64.06369018554688 C 162.58465576171875 61.369747161865234 160.6012420654297 58.78472137451172 158.90406799316406 54.38600158691406 C 158.90406799316406 54.38600158691406 158.90406799316406 54.38600158691406 158.90406799316406 54.38600158691406 C 168.19674682617188 50.81686782836914 173.08815002441406 44.414466857910156 176.70159912109375 35.382713317871094 C 176.70159912109375 35.382713317871094 176.70159912109375 35.382713317871094 176.70159912109375 35.382713317871094" stroke-width="0.0" fill="rgb(233, 229, 218)" opacity="1.0"/>
    <path d="M 162.55426025390625 185.903076171875 C 162.55426025390625 185.903076171875 162.55426025390625 185.903076171875 162.55426025390625 185.903076171875 C 156.24559020996094 187.9485626220703 151.22119140625 188.42605590820312 144.78712463378906 186.68453979492188 C 145.16455078125 188.38046264648438 145.54197692871094 190.07635498046875 145.91941833496094 191.7722625732422 C 151.12493896484375 191.7722625732422 156.32916259765625 191.7722625732422 161.53468322753906 191.7722625732422 C 161.87413024902344 189.81671142578125 162.2135467529297 187.85989379882812 162.55426025390625 185.903076171875" stroke-width="0.0" fill="rgb(234, 230, 219)" opacity="1.0"/>
    <path d="M 53.493072509765625 84.79708862304688 C 53.493072509765625 84.79708862304688 53.493072509765625 84.79708862304688 53.493072509765625 84.79708862304688 C 56.615116119384766 87.98245239257812 60.78965377807617 91.83149719238281 61.03156661987305 96.65704345703125 C 61.283607482910156 101.70423889160156 56.44286346435547 104.5501708984375 51.895957946777344 104.15120697021484 C 49.327392578125 103.9270248413086 47.56816101074219 102.79347229003906 45.58601379394531 101.27994537353516 C 45.31877136230469 101.0228271484375 45.05152893066406 100.76446533203125 44.78428649902344 100.5073471069336 C 43.08204650878906 98.56953430175781 41.37980651855469 96.6317138671875 39.676300048828125 94.692626953125 C 39.676300048828125 94.692626953125 39.676300048828125 94.692626953125 39.676300048828125 94.692626953125 C 40.47422790527344 94.77621459960938 45.72913360595703 95.92623901367188 46.68791198730469 94.6622314453125 C 47.20973205566406 93.97576141357422 45.73040008544922 93.22470092773438 45.30357360839844 92.47489929199219 C 43.84577941894531 89.91520690917969 43.168174743652344 87.67848205566406 42.49943542480469 84.84648132324219 C 42.49943542480469 84.84648132324219 42.49943542480469 84.84648132324219 42.49943542480469 84.84648132324219 C 44.99200439453125 85.78246307373047 46.969085693359375 86.58418273925781 49.1348876953125 88.13571166992188 C 49.87074279785156 88.66259765625 50.45335388183594 89.75688934326172 51.356407165527344 89.69355773925781 C 52.811676025390625 89.59223175048828 53.339820861816406 85.40249633789062 53.493072509765625 84.79708862304688 C 53.493072509765625 84.79708862304688 53.493072509765625 84.79708862304688 53.493072509765625 84.79708862304688" stroke-width="0.0" fill="rgb(82, 79, 117)" opacity="1.0"/>
    <path d="M 133.82894897460938 42.99846649169922 C 133.82894897460938 42.99846649169922 133.82894897460938 42.99846649169922 133.82894897460938 42.99846649169922 C 149.9115753173828 43.24797821044922 164.60353088378906 52.95606994628906 170.55252075195312 68.0330581665039 C 172.40293884277344 72.72055053710938 173.1451416015625 77.54229736328125 173.303466796875 82.55276489257812 C 173.303466796875 96.46452331542969 173.303466796875 110.37755584716797 173.303466796875 124.28932189941406 C 173.88479614257812 128.5335235595703 174.02284240722656 132.67640686035156 173.5757598876953 136.9434051513672 C 173.4643096923828 137.8907928466797 173.3528594970703 138.83815002441406 173.24012756347656 139.78680419921875 C 172.4979248046875 144.8593292236328 171.24658203125 149.71780395507812 169.02505493164062 154.36097717285156 C 161.23704528808594 170.63104248046875 144.9720458984375 180.2099609375 127.19729614257812 180.7013702392578 C 118.03129577636719 180.7013702392578 108.86402130126953 180.7013702392578 99.69801330566406 180.7013702392578 C 94.54442596435547 180.52151489257812 89.6175537109375 179.68687438964844 84.8616714477539 177.61099243164062 C 64.57029724121094 168.75656127929688 57.92979431152344 144.7174835205078 65.7874526977539 125.04165649414062 C 69.09695434570312 116.75335693359375 74.81287384033203 109.49857330322266 82.10819244384766 104.35639190673828 C 86.65129089355469 101.15455627441406 91.77195739746094 98.69871520996094 96.67222595214844 96.09722900390625 C 96.67222595214844 90.78279113769531 96.67222595214844 85.46835327148438 96.67222595214844 80.15392303466797 C 96.81281280517578 75.96418762207031 97.3409652709961 71.928955078125 98.72277069091797 67.949462890625 C 103.98654174804688 52.79521942138672 118.1047592163086 43.52788543701172 133.82894897460938 42.99846649169922 C 133.82894897460938 42.99846649169922 133.82894897460938 42.99846649169922 133.82894897460938 42.99846649169922" stroke-width="0.0" fill="rgb(83, 80, 117)" opacity="1.0"/>
    <path d="M 45.74433135986328 88.11543273925781 C 45.74433135986328 88.11543273925781 45.74433135986328 88.11543273925781 45.74433135986328 88.11543273925781 C 46.48906707763672 90.28124237060547 51.10436248779297 95.47029113769531 46.815834045410156 96.7761001586914 C 46.08757019042969 96.99774169921875 45.299774169921875 96.92681121826172 44.541107177734375 97.00281524658203 C 44.541107177734375 97.00281524658203 44.541107177734375 97.00281524658203 44.541107177734375 97.00281524658203 C 44.67536163330078 97.16493225097656 44.80835723876953 97.32830810546875 44.94261169433594 97.49169158935547 C 45.35297393798828 97.99451446533203 45.763328552246094 98.4973373413086 46.174957275390625 99.00015258789062 C 45.637939453125 99.4383773803711 45.102195739746094 99.87660217285156 44.566444396972656 100.31483459472656 C 45.06420135498047 99.83354949951172 45.56195068359375 99.353515625 46.06096649169922 98.87223815917969 C 46.318077087402344 99.1369400024414 46.57392120361328 99.40164947509766 46.831031799316406 99.6663589477539 C 50.23297882080078 102.30078125 58.44021224975586 104.06381225585938 58.84803771972656 97.43596649169922 C 59.04561996459961 94.23159790039062 56.594852447509766 91.34640502929688 54.73809051513672 89.05142211914062 C 54.73809051513672 89.05142211914062 54.73809051513672 89.05142211914062 54.73809051513672 89.05142211914062 C 54.292266845703125 89.75054931640625 54.032623291015625 90.61306762695312 53.39934539794922 91.15009307861328 C 50.80292510986328 93.35134887695312 47.76953887939453 89.283203125 45.74433135986328 88.11543273925781 C 45.74433135986328 88.11543273925781 45.74433135986328 88.11543273925781 45.74433135986328 88.11543273925781" stroke-width="0.0" fill="rgb(254, 231, 168)" opacity="1.0"/>
    <path d="M 133.82894897460938 45.0743408203125 C 133.82894897460938 45.0743408203125 133.82894897460938 45.0743408203125 133.82894897460938 45.0743408203125 C 129.5150909423828 45.23265838623047 125.38487243652344 45.820335388183594 121.328125 47.366790771484375 C 107.50248718261719 52.636898040771484 99.28131103515625 65.66714477539062 98.7493667602539 80.15392303466797 C 98.7493667602539 85.88758850097656 98.7493667602539 91.61997985839844 98.7493667602539 97.35237884521484 C 85.93443298339844 104.10688018798828 74.08587646484375 110.85757446289062 68.11537170410156 124.83900451660156 C 60.19565200805664 143.38507080078125 65.85205078125 166.57174682617188 85.04911804199219 175.41481018066406 C 89.72394561767578 177.56793212890625 94.59002685546875 178.4329833984375 99.69801330566406 178.61917114257812 C 108.86402130126953 178.61917114257812 118.03129577636719 178.61917114257812 127.19729614257812 178.61917114257812 C 132.2799530029297 178.4735107421875 137.20050048828125 177.78323364257812 142.0133819580078 176.075927734375 C 158.07701110839844 170.3726806640625 168.72488403320312 156.15313720703125 171.1781768798828 139.53475952148438 C 171.29090881347656 138.58612060546875 171.40235900878906 137.63746643066406 171.51380920410156 136.69007873535156 C 171.88998413085938 132.53961181640625 171.79879760742188 128.5841827392578 171.23263549804688 124.45649719238281 C 171.23263549804688 110.49027252197266 171.23263549804688 96.5240478515625 171.23263549804688 82.55783081054688 C 171.05532836914062 77.39917755126953 170.2295379638672 72.46343994140625 168.17013549804688 67.69489288330078 C 162.2401580810547 53.97183609008789 148.65390014648438 45.33271789550781 133.82894897460938 45.0743408203125 C 133.82894897460938 45.0743408203125 133.82894897460938 45.0743408203125 133.82894897460938 45.0743408203125" stroke-width="0.0" fill="rgb(82, 79, 116)" opacity="1.0"/>
    <path d="M 133.82894897460938 47.15147399902344 C 133.82894897460938 47.15147399902344 133.82894897460938 47.15147399902344 133.82894897460938 47.15147399902344 C 120.38960266113281 47.66949462890625 108.29154205322266 55.128196716308594 103.18101501464844 67.87727355957031 C 101.58770751953125 71.85169982910156 100.98355865478516 75.90845489501953 100.82017517089844 80.15898132324219 C 100.82017517089844 86.3093490600586 100.82017517089844 92.45843505859375 100.82017517089844 98.60879516601562 C 100.44908142089844 98.80384063720703 100.0792465209961 98.99761962890625 99.70814514160156 99.19267272949219 C 87.69620513916016 105.53047180175781 76.39479064941406 111.71123504638672 70.46862030029297 124.65409088134766 C 62.12586212158203 142.87718200683594 67.80886840820312 166.3526611328125 87.49481964111328 174.2027130126953 C 91.44644927978516 175.77828979492188 95.47914123535156 176.37991333007812 99.70307922363281 176.5420379638672 C 108.86907958984375 176.5420379638672 118.03636169433594 176.5420379638672 127.2023696899414 176.5420379638672 C 143.01394653320312 176.06961059570312 157.49691772460938 167.8319854736328 164.80111694335938 153.53265380859375 C 167.10498046875 149.02374267578125 168.38037109375 144.27671813964844 169.12130737304688 139.2915802001953 C 169.23275756835938 138.3441925048828 169.34548950195312 137.3955535888672 169.45693969726562 136.44818115234375 C 169.80905151367188 132.49655151367188 169.72164916992188 128.72857666015625 169.1846466064453 124.79847717285156 C 169.17449951171875 110.71825408935547 169.1656494140625 96.63804626464844 169.15550231933594 82.55783081054688 C 168.4576416015625 63.1302490234375 153.62002563476562 47.427589416503906 133.82894897460938 47.15147399902344 C 133.82894897460938 47.15147399902344 133.82894897460938 47.15147399902344 133.82894897460938 47.15147399902344" stroke-width="0.0" fill="rgb(224, 150, 92)" opacity="1.0"/>
    <path d="M 161.2725067138672 134.35205078125 C 161.2725067138672 134.35205078125 161.2725067138672 134.35205078125 161.2725067138672 134.35205078125 C 165.18994140625 134.986572265625 166.6376190185547 136.58116149902344 166.8858642578125 140.54165649414062 C 166.3083038330078 144.0727996826172 165.73204040527344 147.60394287109375 165.15576171875 151.13507080078125 C 163.2901153564453 158.84707641601562 158.2011260986328 163.54345703125 150.36373901367188 164.78338623046875 C 151.45928955078125 156.9928436279297 152.5535888671875 149.20358276367188 153.6479034423828 141.41305541992188 C 154.84983825683594 137.2144317626953 156.99411010742188 135.22850036621094 161.2725067138672 134.35205078125 C 161.2725067138672 134.35205078125 161.2725067138672 134.35205078125 161.2725067138672 134.35205078125" stroke-width="0.0" fill="rgb(254, 229, 161)" opacity="1.0"/>
    <path d="M 117.14977264404297 51.93269729614258 C 117.14977264404297 51.93269729614258 117.14977264404297 51.93269729614258 117.14977264404297 51.93269729614258 C 118.75448608398438 48.67387008666992 119.29657745361328 48.423095703125 119.5954818725586 45.00721740722656 C 119.6664047241211 44.19789123535156 119.561279296875 43.38096618652344 119.4903564453125 42.57037353515625 C 119.42703247070312 41.866172790527344 118.71143341064453 40.59455871582031 119.40422821044922 40.451438903808594 C 120.97855377197266 40.124671936035156 124.36402893066406 41.935829162597656 125.57231903076172 42.6260986328125 C 127.00859069824219 43.44682312011719 128.1662139892578 44.771636962890625 129.03759765625 46.17750549316406 C 129.03759765625 46.17750549316406 129.03759765625 46.17750549316406 129.03759765625 46.17750549316406 C 132.31036376953125 44.603187561035156 135.52992248535156 42.93260955810547 138.77989196777344 41.31269073486328 C 138.90782165527344 41.24809265136719 142.56304931640625 39.18489074707031 142.9164276123047 39.535728454589844 C 143.16720581054688 39.78523254394531 143.0380096435547 40.25892639160156 142.92909240722656 40.59455871582031 C 142.49974060058594 41.90416717529297 140.87982177734375 44.618377685546875 140.19842529296875 45.6949462890625 C 139.8070526123047 46.313026428222656 139.36122131347656 46.894371032714844 138.94200134277344 47.493446350097656 C 138.94200134277344 47.493446350097656 138.94200134277344 47.493446350097656 138.94200134277344 47.493446350097656 C 143.0646209716797 46.51060485839844 146.27658081054688 44.995811462402344 149.85205078125 42.76795196533203 C 150.63351440429688 42.28160095214844 152.4510040283203 40.690818786621094 153.44143676757812 41.869972229003906 C 154.681396484375 43.34550476074219 154.4736785888672 46.563804626464844 154.50662231445312 48.247039794921875 C 154.53195190429688 49.47559356689453 154.50155639648438 50.70414352416992 154.4990234375 51.93269729614258 C 154.16464233398438 53.10678482055664 153.82901000976562 54.28087615966797 153.49464416503906 55.45497131347656 C 141.38011169433594 54.28087615966797 129.26431274414062 53.10678482055664 117.14977264404297 51.93269729614258" stroke-width="0.0" fill="rgb(224, 150, 92)" opacity="1.0"/>
    <path d="M 99.83100128173828 159.74887084960938 C 100.07290649414062 166.17787170410156 100.31355285644531 172.6055908203125 100.55419921875 179.03457641601562 C 100.034912109375 183.25599670410156 97.72346496582031 186.92645263671875 92.94351196289062 186.92645263671875 C 90.67385864257812 186.92645263671875 88.40420532226562 186.92645263671875 86.13455200195312 186.92645263671875 C 79.35978698730469 186.21084594726562 74.85720825195312 181.984375 72.64454650878906 175.66305541992188 C 70.41162109375 167.88516235351562 68.17742919921875 160.1085662841797 65.94450378417969 152.3319549560547 C 77.23957824707031 154.80426025390625 88.53592681884766 157.27658081054688 99.83100128173828 159.74887084960938" stroke-width="0.0" fill="rgb(224, 150, 92)" opacity="1.0"/>
    <path d="M 99.85126495361328 150.25482177734375 C 99.85126495361328 150.25482177734375 99.85126495361328 150.25482177734375 99.85126495361328 150.25482177734375 C 99.1989974975586 150.52459716796875 98.39347076416016 150.56512451171875 97.89445495605469 151.0641326904297 C 96.17700958251953 152.7803192138672 97.42582702636719 155.78709411621094 99.85126495361328 155.78709411621094 C 102.27670288085938 155.78709411621094 103.52426147460938 152.7803192138672 101.8093490600586 151.0641326904297 C 101.31033325195312 150.56512451171875 100.5035400390625 150.52459716796875 99.85126495361328 150.25482177734375 C 99.85126495361328 150.25482177734375 99.85126495361328 150.25482177734375 99.85126495361328 150.25482177734375" stroke-width="0.0" fill="rgb(82, 79, 117)" opacity="1.0"/>
    <path d="M 126.14860534667969 144.02340698242188 C 126.14860534667969 144.02340698242188 126.14860534667969 144.02340698242188 126.14860534667969 144.02340698242188 C 125.49506378173828 144.29444885253906 124.68953704833984 144.33497619628906 124.18924713134766 144.8352508544922 C 122.47434997558594 146.5501708984375 123.72442626953125 149.56202697753906 126.14860534667969 149.56202697753906 C 128.5740509033203 149.56202697753906 129.81399536132812 146.54763793945312 128.10415649414062 144.8352508544922 C 127.60513305664062 144.33624267578125 126.80087280273438 144.29444885253906 126.14860534667969 144.02340698242188 C 126.14860534667969 144.02340698242188 126.14860534667969 144.02340698242188 126.14860534667969 144.02340698242188" stroke-width="0.0" fill="rgb(82, 79, 116)" opacity="1.0"/>
    <path d="M 86.42585754394531 28.00000762939453 C 86.42585754394531 28.00000762939453 86.42585754394531 28.00000762939453 86.42585754394531 28.00000762939453 C 90.10011291503906 28.547149658203125 90.32936096191406 30.429244995117188 91.73776245117188 33.62347412109375 C 93.43746185302734 37.48011779785156 95.25749969482422 41.69645690917969 98.3681411743164 44.658912658691406 C 100.97090148925781 47.137550354003906 104.17145538330078 48.834720611572266 107.56834411621094 49.95308303833008 C 109.18699645996094 50.48630142211914 112.85997772216797 50.50529861450195 113.83648681640625 52.180938720703125 C 114.58755493164062 53.471553802490234 113.39193725585938 55.67787551879883 113.03729248046875 56.62018966674805 C 111.19066619873047 61.52553176879883 108.97927856445312 64.59690856933594 104.71227264404297 67.66195678710938 C 103.18354797363281 68.76005554199219 102.28303527832031 69.89488220214844 100.30088806152344 69.53265380859375 C 97.23330688476562 68.97283172607422 93.816162109375 65.54301452636719 91.81121826171875 63.367095947265625 C 86.02816009521484 57.08755111694336 82.3121109008789 48.889183044433594 82.27664184570312 40.298187255859375 C 82.2589111328125 36.032447814941406 82.14872741699219 30.027748107910156 86.42585754394531 28.00000762939453 C 86.42585754394531 28.00000762939453 86.42585754394531 28.00000762939453 86.42585754394531 28.00000762939453" stroke-width="0.0" fill="rgb(84, 81, 117)" opacity="1.0"/>
    <path d="M 156.22406005859375 67.91020202636719 C 156.22406005859375 67.91020202636719 156.22406005859375 67.91020202636719 156.22406005859375 67.91020202636719 C 160.08447265625 68.3547592163086 163.41171264648438 69.81761932373047 165.21527099609375 73.51213836669922 C 168.40951538085938 80.05259704589844 163.49783325195312 87.90773010253906 156.22406005859375 87.90773010253906 C 148.9515380859375 87.90773010253906 144.03985595703125 80.05259704589844 147.2328338623047 73.51213836669922 C 149.03639221191406 69.81761932373047 152.36361694335938 68.3547592163086 156.22406005859375 67.91020202636719 C 156.22406005859375 67.91020202636719 156.22406005859375 67.91020202636719 156.22406005859375 67.91020202636719" stroke-width="0.0" fill="rgb(82, 79, 116)" opacity="1.0"/>
    <path d="M 151.91778564453125 151.43650817871094 C 151.45803833007812 160.43154907226562 150.99827575683594 169.42654418945312 150.53724670410156 178.42031860351562 C 149.59873962402344 183.589111328125 146.76040649414062 186.280517578125 141.5523681640625 186.95684814453125 C 139.41949462890625 186.95684814453125 137.28662109375 186.95684814453125 135.1537628173828 186.95684814453125 C 129.7557373046875 186.23239135742188 126.8832015991211 183.35986328125 126.15872955322266 177.96182250976562 C 126.15872955322266 169.83311462402344 126.15872955322266 161.7056884765625 126.15872955322266 153.5769805908203 C 134.74465942382812 152.86390686035156 143.3318634033203 152.1495819091797 151.91778564453125 151.43650817871094" stroke-width="0.0" fill="rgb(225, 151, 92)" opacity="1.0"/>
    <path d="M 142.91136169433594 37.45985412597656 C 142.91136169433594 37.45985412597656 142.91136169433594 37.45985412597656 142.91136169433594 37.45985412597656 C 138.35305786132812 38.50855255126953 134.13418579101562 41.38362121582031 129.94190979003906 43.443023681640625 C 129.94190979003906 43.443023681640625 129.94190979003906 43.443023681640625 129.94190979003906 43.443023681640625 C 127.43668365478516 40.94032287597656 124.30450439453125 39.433135986328125 120.86076354980469 38.6060791015625 C 118.41126251220703 38.018402099609375 116.90406799316406 39.20768737792969 117.24857330322266 41.73191833496094 C 117.24857330322266 41.73191833496094 117.24857330322266 41.73191833496094 117.24857330322266 41.73191833496094 C 117.6488037109375 44.09783172607422 117.64119720458984 46.34088897705078 116.64569854736328 48.57633972167969 C 116.28219604492188 49.39326477050781 114.87126159667969 51.11957550048828 115.12203216552734 52.34052276611328 C 115.51973724365234 54.28467559814453 117.76152038574219 54.38346862792969 118.87481689453125 53.08652114868164 C 121.17866516113281 50.40143966674805 121.70934295654297 46.54100036621094 121.63968658447266 43.17198181152344 C 121.63968658447266 43.17198181152344 121.63968658447266 43.17198181152344 121.63968658447266 43.17198181152344 C 123.3051986694336 43.82805633544922 124.41976928710938 44.164955139160156 125.94088745117188 45.333984375 C 126.859130859375 46.04071807861328 127.07825469970703 47.530181884765625 128.1168212890625 48.04186248779297 C 129.32130432128906 48.634605407714844 130.60179138183594 47.74041748046875 131.56942749023438 47.27306365966797 C 134.11012268066406 46.043243408203125 136.6166229248047 44.7437744140625 139.134521484375 43.468360900878906 C 139.134521484375 43.468360900878906 139.134521484375 43.468360900878906 139.134521484375 43.468360900878906 C 138.56837463378906 44.375205993652344 137.66912841796875 45.12120056152344 137.37022399902344 46.14836883544922 C 136.34938049316406 49.65164566040039 138.885009765625 49.77196502685547 141.51309204101562 49.1006965637207 C 145.42166137695312 48.1026611328125 148.66909790039062 45.916595458984375 152.05584716796875 43.839454650878906 C 152.05584716796875 43.839454650878906 152.05584716796875 43.839454650878906 152.05584716796875 43.839454650878906 C 152.55992126464844 46.39154815673828 152.43707275390625 49.041168212890625 152.4320068359375 51.626190185546875 C 152.1217041015625 52.71162414550781 151.8126678466797 53.797061920166016 151.5023651123047 54.88121795654297 C 151.81773376464844 57.69928741455078 153.72642517089844 58.24643325805664 155.48692321777344 56.02364730834961 C 155.8225555419922 54.849552154541016 156.15692138671875 53.676734924316406 156.49130249023438 52.50264358520508 C 156.64834594726562 51.45520782470703 156.59515380859375 50.3862419128418 156.59133911132812 49.32740783691406 C 156.5786895751953 46.129371643066406 157.03211975097656 39.682640075683594 152.55105590820312 39.34827423095703 C 149.7494659423828 39.13929748535156 146.11573791503906 42.74388885498047 143.6345672607422 43.952178955078125 C 143.6345672607422 43.952178955078125 143.6345672607422 43.952178955078125 143.6345672607422 43.952178955078125 C 144.3805694580078 42.486778259277344 146.14613342285156 39.81182861328125 144.625 38.20458221435547 C 144.19691467285156 37.75242614746094 143.4825897216797 37.708099365234375 142.91136169433594 37.45985412597656 C 142.91136169433594 37.45985412597656 142.91136169433594 37.45985412597656 142.91136169433594 37.45985412597656" stroke-width="0.0" fill="rgb(82, 79, 117)" opacity="1.0"/>
    <path d="M 65.37075805664062 150.3092803955078 C 65.37075805664062 150.3092803955078 65.37075805664062 150.3092803955078 65.37075805664062 150.3092803955078 C 64.60070037841797 150.9222869873047 64.05481719970703 151.9203338623047 63.95222473144531 152.8993682861328 C 66.18388366699219 160.6785125732422 68.41554260253906 168.4576416015625 70.64720153808594 176.2355194091797 C 73.09796905517578 183.44345092773438 78.43266296386719 188.30572509765625 86.13455200195312 189.0035858154297 C 88.40420532226562 189.0035858154297 90.67385864257812 189.0035858154297 92.94351196289062 189.0035858154297 C 98.834228515625 188.9212646484375 102.20197296142578 184.40603637695312 102.62500762939453 178.95480346679688 C 102.38436126708984 172.52706909179688 102.14371490478516 166.09808349609375 101.90434265136719 159.67034912109375 C 100.70745849609375 157.13978576660156 98.76077270507812 157.2081756591797 97.755126953125 159.82357788085938 C 97.99576568603516 166.25132751464844 98.23641967773438 172.68031311035156 98.47706604003906 179.10806274414062 C 97.88178253173828 182.6936492919922 96.50758361816406 184.12611389160156 92.94351196289062 184.84930419921875 C 90.67385864257812 184.84930419921875 88.40420532226562 184.84930419921875 86.13455200195312 184.84930419921875 C 80.30715942382812 184.1324462890625 76.62657928466797 180.55445861816406 74.65202331542969 175.14376831054688 C 72.41529846191406 167.3468780517578 70.17857360839844 159.55001831054688 67.94185638427734 151.75314331054688 C 67.33517456054688 150.9792938232422 66.3472671508789 150.42454528808594 65.37075805664062 150.3092803955078 C 65.37075805664062 150.3092803955078 65.37075805664062 150.3092803955078 65.37075805664062 150.3092803955078" stroke-width="0.0" fill="rgb(83, 80, 117)" opacity="1.0"/>
    <path d="M 86.0699462890625 30.467239379882812 C 86.0699462890625 30.467239379882812 86.0699462890625 30.467239379882812 86.0699462890625 30.467239379882812 C 87.60881042480469 31.097984313964844 88.47132873535156 32.852149963378906 89.21605682373047 34.339080810546875 C 90.71566009521484 37.331932067871094 92.284912109375 40.348846435546875 94.32911682128906 43.014930725097656 C 98.79750061035156 48.84611892700195 105.57099914550781 51.11703872680664 112.55980682373047 52.27466583251953 C 112.55980682373047 52.27466583251953 112.55980682373047 52.27466583251953 112.55980682373047 52.27466583251953 C 111.63776397705078 55.31691360473633 110.8664321899414 58.83285140991211 108.9412841796875 61.45334243774414 C 107.24156951904297 63.76478576660156 104.63628387451172 65.50249481201172 102.39830017089844 67.2237319946289 C 102.39830017089844 67.2237319946289 102.39830017089844 67.2237319946289 102.39830017089844 67.2237319946289 C 92.51415252685547 63.01752853393555 85.31889343261719 52.631832122802734 84.32211303710938 41.962432861328125 C 84.00041961669922 38.514892578125 83.51911926269531 33.03199768066406 86.0699462890625 30.467239379882812 C 86.0699462890625 30.467239379882812 86.0699462890625 30.467239379882812 86.0699462890625 30.467239379882812" stroke-width="0.0" fill="rgb(82, 79, 117)" opacity="1.0"/>
    <path d="M 107.46195983886719 80.09439086914062 C 107.46195983886719 80.09439086914062 107.46195983886719 80.09439086914062 107.46195983886719 80.09439086914062 C 104.2132568359375 80.88597869873047 100.7188491821289 82.28298950195312 97.3270263671875 82.14999389648438 C 94.315185546875 82.03094482421875 91.4185791015625 81.0303726196289 88.58657836914062 80.09439086914062 C 87.60121154785156 79.74736022949219 86.61456298828125 79.39906311035156 85.62919616699219 79.05201721191406 C 85.19731140136719 78.48334503173828 84.33478546142578 78.06031799316406 84.33478546142578 77.34597778320312 C 84.33478546142578 75.22958374023438 89.49090576171875 73.13218688964844 90.70425415039062 72.47483825683594 C 96.21627044677734 69.48704528808594 101.195068359375 67.90133666992188 107.46195983886719 67.21867370605469 C 107.46195983886719 71.51100158691406 107.46195983886719 75.80332946777344 107.46195983886719 80.09439086914062" stroke-width="0.0" fill="rgb(224, 151, 92)" opacity="1.0"/>
    <path d="M 156.22406005859375 69.98733520507812 C 156.22406005859375 69.98733520507812 156.22406005859375 69.98733520507812 156.22406005859375 69.98733520507812 C 153.59088134765625 70.41163635253906 151.49728393554688 70.93852233886719 149.8203887939453 73.23096466064453 C 146.05621337890625 78.376953125 149.85711669921875 85.83186340332031 156.22406005859375 85.83186340332031 C 162.5909881591797 85.83186340332031 166.3868408203125 78.37568664550781 162.62644958496094 73.23096466064453 C 160.9508056640625 70.93852233886719 158.85720825195312 70.41163635253906 156.22406005859375 69.98733520507812 C 156.22406005859375 69.98733520507812 156.22406005859375 69.98733520507812 156.22406005859375 69.98733520507812" stroke-width="0.0" fill="rgb(82, 79, 117)" opacity="1.0"/>
    <path d="M 152.02670288085938 149.359375 C 152.02670288085938 149.359375 152.02670288085938 149.359375 152.02670288085938 149.359375 C 151.10340881347656 149.68740844726562 150.26620483398438 150.44354248046875 149.845703125 151.3275909423828 C 149.3846893310547 160.32261657714844 148.92494201660156 169.317626953125 148.46517944335938 178.31138610839844 C 147.62545776367188 182.35801696777344 145.63949584960938 184.24264526367188 141.55743408203125 184.87969970703125 C 139.424560546875 184.87969970703125 137.29168701171875 184.87969970703125 135.15882873535156 184.87969970703125 C 130.92727661132812 184.19703674316406 128.92361450195312 182.193359375 128.24093627929688 177.96182250976562 C 128.24093627929688 169.83311462402344 128.24093627929688 161.7056884765625 128.24093627929688 153.5769805908203 C 127.15677642822266 150.96029663085938 125.17462158203125 150.96029663085938 124.09172821044922 153.5769805908203 C 124.09172821044922 161.7056884765625 124.09172821044922 169.83311462402344 124.09172821044922 177.96182250976562 C 124.84659576416016 184.51620483398438 128.60824584960938 188.27786254882812 135.16262817382812 189.03273010253906 C 137.29676818847656 189.03273010253906 139.4296112060547 189.03273010253906 141.56248474121094 189.03273010253906 C 147.88763427734375 188.32852172851562 151.5935516357422 184.8049774169922 152.61944580078125 178.524169921875 C 153.0792236328125 169.53041076660156 153.53895568847656 160.535400390625 153.99871826171875 151.54037475585938 C 153.66815185546875 150.61831665039062 152.91201782226562 149.7798614501953 152.02670288085938 149.359375 C 152.02670288085938 149.359375 152.02670288085938 149.359375 152.02670288085938 149.359375" stroke-width="0.0" fill="rgb(82, 79, 116)" opacity="1.0"/>
    <path d="M 87.13764953613281 33.44489288330078 C 87.13764953613281 33.44489288330078 87.13764953613281 33.44489288330078 87.13764953613281 33.44489288330078 C 85.04405212402344 45.85200500488281 89.62388610839844 58.74419403076172 100.92530059814453 65.24537658691406 C 100.92530059814453 65.24537658691406 100.92530059814453 65.24537658691406 100.92530059814453 65.24537658691406 C 105.35948181152344 62.06888198852539 107.28336334228516 59.829620361328125 109.30224609375 54.75709915161133 C 109.30224609375 54.75709915161133 109.30224609375 54.75709915161133 109.30224609375 54.75709915161133 C 106.98953247070312 54.120025634765625 104.74014282226562 53.44749069213867 102.56040954589844 52.427913665771484 C 94.27971649169922 48.557342529296875 90.64979553222656 41.47100830078125 87.13764953613281 33.44489288330078 C 87.13764953613281 33.44489288330078 87.13764953613281 33.44489288330078 87.13764953613281 33.44489288330078" stroke-width="0.0" fill="rgb(233, 229, 218)" opacity="1.0"/>
    <path d="M 107.28336334228516 65.15165710449219 C 107.28336334228516 65.15165710449219 107.28336334228516 65.15165710449219 107.28336334228516 65.15165710449219 C 99.50929260253906 65.96351623535156 93.4222640991211 68.43962097167969 86.66902923583984 72.33677673339844 C 83.26961517333984 74.29866790771484 79.96266174316406 78.5150146484375 84.946533203125 81.01517486572266 C 85.93316650390625 81.36221313476562 86.91854858398438 81.71050262451172 87.90391540527344 82.05754089355469 C 93.04357147216797 83.74964904785156 97.43341827392578 84.74895477294922 102.73646545410156 83.42794799804688 C 104.20565032958984 83.0619125366211 108.23580932617188 82.75920867919922 109.22245788574219 81.20768737792969 C 109.83673095703125 80.23878479003906 109.54669189453125 78.95323181152344 108.57904815673828 78.34022521972656 C 106.54623413085938 77.05215454101562 101.98539733886719 79.40032958984375 99.87532806396484 79.847412109375 C 96.27833557128906 80.61114501953125 92.656005859375 79.23060607910156 89.28445434570312 78.1375732421875 C 88.45359802246094 77.84374237060547 87.62274169921875 77.54989624023438 86.79188537597656 77.25605773925781 C 90.80303955078125 74.53424072265625 95.48927307128906 71.74404907226562 100.22869110107422 70.46609497070312 C 101.69662475585938 70.06967163085938 103.3089370727539 69.79103088378906 104.80979919433594 69.59344482421875 C 105.72298431396484 69.47186279296875 108.15095520019531 69.60231018066406 109.02487182617188 68.53968048095703 C 110.51180267333984 66.73104858398438 108.69557189941406 65.62155151367188 107.28336334228516 65.15165710449219 C 107.28336334228516 65.15165710449219 107.28336334228516 65.15165710449219 107.28336334228516 65.15165710449219" stroke-width="0.0" fill="rgb(83, 80, 117)" opacity="1.0"/>
    <path d="M 103.02649688720703 71.75924682617188 C 103.02649688720703 71.75924682617188 103.02649688720703 71.75924682617188 103.02649688720703 71.75924682617188 C 103.70663452148438 71.92262268066406 104.49063110351562 71.85169982910156 105.06564331054688 72.2493896484375 C 107.14277648925781 73.68692016601562 106.45124816894531 76.52653503417969 104.40704345703125 77.50430297851562 C 103.9029541015625 77.7462158203125 101.19633483886719 78.2211685180664 100.33634948730469 78.32502746582031 C 98.52772521972656 78.5428695678711 95.82997131347656 78.96463012695312 94.18219757080078 78.01851654052734 C 92.48881530761719 77.04580688476562 93.77436065673828 75.08267211914062 94.90666198730469 74.34300231933594 C 97.48408508300781 72.66229248046875 100.06910705566406 72.19999694824219 103.02649688720703 71.76304626464844 C 103.02649688720703 71.76304626464844 103.02649688720703 71.76304626464844 103.02649688720703 71.76304626464844 C 103.02649688720703 71.76304626464844 103.02649688720703 71.75924682617188 103.02649688720703 71.75924682617188" stroke-width="0.0" fill="rgb(254, 231, 168)" opacity="1.0"/>
    <path d="M 156.22406005859375 72.06448364257812 C 156.22406005859375 72.06448364257812 156.22406005859375 72.06448364257812 156.22406005859375 72.06448364257812 C 153.8277587890625 72.54449462890625 151.862060546875 73.13218688964844 150.82476806640625 75.63361358642578 C 149.24664306640625 79.43705749511719 152.08370971679688 83.75472259521484 156.218994140625 83.75472259521484 C 160.35427856445312 83.75344848632812 163.19894409179688 79.44084930419922 161.61953735351562 75.63361358642578 C 160.58224487304688 73.13597869873047 158.61654663085938 72.54702758789062 156.22406005859375 72.06448364257812 C 156.22406005859375 72.06448364257812 156.22406005859375 72.06448364257812 156.22406005859375 72.06448364257812" stroke-width="0.0" fill="rgb(254, 254, 254)" opacity="1.0"/>
    <path d="M 135.83642578125 60.9885139465332 C 135.83642578125 60.9885139465332 135.83642578125 60.9885139465332 135.83642578125 60.9885139465332 C 140.5631866455078 61.411537170410156 144.69467163085938 63.23283767700195 147.18850708007812 67.49856567382812 C 152.22303771972656 76.11109924316406 145.8029022216797 87.28458404541016 135.83642578125 87.28458404541016 C 125.87123107910156 87.28458404541016 119.44856262207031 76.11489868164062 124.48182678222656 67.50111389160156 C 126.97566223144531 63.23410415649414 131.1083984375 61.411537170410156 135.83642578125 60.9885139465332 C 135.83642578125 60.9885139465332 135.83642578125 60.9885139465332 135.83642578125 60.9885139465332" stroke-width="0.0" fill="rgb(82, 79, 116)" opacity="1.0"/>
    <path d="M 148.84642028808594 180.84323120117188 C 148.84642028808594 180.84323120117188 148.84642028808594 180.84323120117188 148.84642028808594 180.84323120117188 C 149.53668212890625 180.95343017578125 150.37640380859375 180.729248046875 150.91722106933594 181.17251586914062 C 151.45803833007812 181.61581420898438 151.4022979736328 182.4833984375 151.64547729492188 183.1394805908203 C 150.99447631835938 186.85426330566406 150.34347534179688 190.5703125 149.69247436523438 194.28509521484375 C 149.24664306640625 195.05514526367188 148.4816436767578 195.696044921875 147.64572143554688 196.0 C 141.22178649902344 196.0 134.7978515625 196.0 128.37391662597656 196.0 C 127.55827331542969 195.71376037597656 126.8084716796875 195.11215209960938 126.35124969482422 194.37881469726562 C 125.57738494873047 190.93887329101562 124.80226135253906 187.49766540527344 124.02839660644531 184.05770874023438 C 124.66040802001953 182.12496948242188 124.24118041992188 181.40557861328125 126.78187561035156 181.66015625 C 129.57968139648438 181.9413299560547 132.32302856445312 183.55870056152344 135.22341918945312 183.85887145996094 C 139.9159698486328 184.34523010253906 144.54014587402344 182.4314727783203 148.84642028808594 180.84323120117188 C 148.84642028808594 180.84323120117188 148.84642028808594 180.84323120117188 148.84642028808594 180.84323120117188" stroke-width="0.0" fill="rgb(82, 79, 117)" opacity="1.0"/>
    <path d="M 153.89993286132812 76.10476684570312 C 153.89993286132812 76.10476684570312 153.89993286132812 76.10476684570312 153.89993286132812 76.10476684570312 C 152.79803466796875 76.5531234741211 151.821533203125 77.50936889648438 151.34912109375 78.60240173339844 C 151.97857666015625 78.69232177734375 152.60804748535156 78.78351593017578 153.23753356933594 78.87471008300781 C 152.81451416015625 79.35598754882812 152.39019775390625 79.83601379394531 151.96717834472656 80.31730651855469 C 152.61184692382812 80.61114501953125 153.1919403076172 81.17222595214844 153.89993286132812 81.19882202148438 C 156.16958618164062 81.28241729736328 157.23855590820312 78.38328552246094 155.70477294921875 76.85076141357422 C 155.24374389648438 76.39100646972656 154.50155639648438 76.35301208496094 153.89993286132812 76.10476684570312 C 153.89993286132812 76.10476684570312 153.89993286132812 76.10476684570312 153.89993286132812 76.10476684570312" stroke-width="0.0" fill="rgb(35, 35, 35)" opacity="1.0"/>
    <path d="M 135.83642578125 63.06438446044922 C 135.83642578125 63.06438446044922 135.83642578125 63.06438446044922 135.83642578125 63.06438446044922 C 132.07098388671875 63.4367561340332 128.81214904785156 64.71343231201172 126.62102508544922 67.99506378173828 C 121.79927825927734 75.21565246582031 127.16564178466797 85.20870971679688 135.83642578125 85.20870971679688 C 144.50595092773438 85.20870971679688 149.872314453125 75.21058654785156 145.04676818847656 67.99506378173828 C 142.8543701171875 64.7159652709961 139.60186767578125 63.4367561340332 135.83642578125 63.06438446044922 C 135.83642578125 63.06438446044922 135.83642578125 63.06438446044922 135.83642578125 63.06438446044922" stroke-width="0.0" fill="rgb(82, 79, 117)" opacity="1.0"/>
    <path d="M 146.4133758544922 84.52098083496094 C 146.4133758544922 84.52098083496094 146.4133758544922 84.52098083496094 146.4133758544922 84.52098083496094 C 157.1017608642578 85.10611724853516 167.54824829101562 87.84439849853516 173.290771484375 97.70320129394531 C 174.53201293945312 99.8348159790039 175.28561401367188 102.03353881835938 175.97459411621094 104.38551330566406 C 176.25704956054688 105.54693603515625 176.53822326660156 106.70962524414062 176.82064819335938 107.87105560302734 C 178.402587890625 117.0927963256836 174.4762725830078 126.36139678955078 165.34320068359375 129.91152954101562 C 161.9108428955078 131.2451934814453 158.09854125976562 131.51625061035156 154.48887634277344 132.0367889404297 C 140.22373962402344 134.0911407470703 119.24337768554688 132.65106201171875 115.5311279296875 115.4361572265625 C 114.99031066894531 112.92332458496094 115.08403778076172 110.57513427734375 115.31961059570312 108.03950500488281 C 115.40953826904297 107.46575927734375 115.49819946289062 106.89202117919922 115.58685302734375 106.31826782226562 C 116.08840942382812 103.8852310180664 116.66596221923828 101.60417175292969 117.74758911132812 99.34972381591797 C 123.13675689697266 88.12557220458984 134.7978515625 84.65143585205078 146.4133758544922 84.52098083496094 C 146.4133758544922 84.52098083496094 146.4133758544922 84.52098083496094 146.4133758544922 84.52098083496094" stroke-width="0.0" fill="rgb(84, 80, 116)" opacity="1.0"/>
    <path d="M 149.59873962402344 182.77850341796875 C 148.94772338867188 186.4932861328125 148.29672241210938 190.20806884765625 147.64572143554688 193.9228515625 C 141.22178649902344 193.9228515625 134.7978515625 193.9228515625 128.37391662597656 193.9228515625 C 127.59880065917969 190.48291015625 126.82493591308594 187.04298400878906 126.04981231689453 183.60302734375 C 129.55435180664062 184.82525634765625 133.138671875 186.01962280273438 136.895263671875 186.02593994140625 C 141.25851440429688 186.03480529785156 145.5837860107422 184.2730255126953 149.59873962402344 182.77850341796875 C 149.59873962402344 182.77850341796875 149.59873962402344 182.77850341796875 149.59873962402344 182.77850341796875" stroke-width="0.0" fill="rgb(82, 79, 117)" opacity="1.0"/>
    <path d="M 126.11946868896484 160.54933166503906 C 126.11946868896484 160.54933166503906 126.11946868896484 160.54933166503906 126.11946868896484 160.54933166503906 C 126.22079467773438 164.9556427001953 125.88389587402344 169.3429718017578 125.44060516357422 173.72523498535156 C 124.9327163696289 178.74961853027344 124.94664001464844 184.51113891601562 119.6854019165039 187.01637268066406 C 117.8248519897461 187.90296936035156 117.2637710571289 187.74337768554688 115.23983001708984 187.87635803222656 C 113.09176635742188 187.7408447265625 110.94496154785156 187.60533142089844 108.79689025878906 187.4710693359375 C 103.71296691894531 186.48948669433594 101.06208801269531 183.68661499023438 100.37054443359375 178.5545654296875 C 100.29202270507812 175.13995361328125 100.21349334716797 171.72409057617188 100.13370513916016 168.30819702148438 C 108.79562377929688 165.72190856933594 117.45755004882812 163.1356201171875 126.11946868896484 160.54933166503906" stroke-width="0.0" fill="rgb(224, 150, 92)" opacity="1.0"/>
    <path d="M 135.83642578125 65.14152526855469 C 135.83642578125 65.14152526855469 135.83642578125 65.14152526855469 135.83642578125 65.14152526855469 C 132.5750732421875 65.57975006103516 129.8279266357422 66.57778930664062 128.06869506835938 69.59597778320312 C 124.6325454711914 75.49176025390625 129.01100158691406 83.13157653808594 135.83642578125 83.13157653808594 C 142.66184997558594 83.13157653808594 147.03904724121094 75.49049377441406 143.6029052734375 69.59597778320312 C 141.84365844726562 66.57905578613281 139.0965118408203 65.57975006103516 135.83642578125 65.14152526855469 C 135.83642578125 65.14152526855469 135.83642578125 65.14152526855469 135.83642578125 65.14152526855469" stroke-width="0.0" fill="rgb(254, 254, 254)" opacity="1.0"/>
    <path d="M 146.36398315429688 86.59811401367188 C 146.36398315429688 86.59811401367188 146.36398315429688 86.59811401367188 146.36398315429688 86.59811401367188 C 156.3152313232422 87.1553955078125 166.13479614257812 89.53777313232422 171.49609375 98.74938201904297 C 172.63345336914062 100.70365905761719 173.32498168945312 102.72000885009766 173.9569854736328 104.87440490722656 C 174.23690795898438 106.03709411621094 174.51808166503906 107.19978332519531 174.7979736328125 108.3612060546875 C 176.14813232421875 116.50891876220703 172.8234405517578 124.66421508789062 164.77325439453125 127.90785217285156 C 161.46629333496094 129.24151611328125 157.7413787841797 129.47076416015625 154.2507781982422 129.974853515625 C 141.2775115966797 131.84934997558594 121.53583526611328 131.1046142578125 117.68172454833984 115.52481079101562 C 117.08011627197266 113.09049987792969 117.15103912353516 110.82718658447266 117.36636352539062 108.35614776611328 C 117.45628356933594 107.78239440917969 117.5449447631836 107.20865631103516 117.63359832763672 106.63490295410156 C 118.13514709472656 104.24873352050781 118.7139663696289 102.02593994140625 119.82345581054688 99.8348159790039 C 125.00491333007812 89.59223175048828 135.70091247558594 86.81976318359375 146.36398315429688 86.59811401367188 C 146.36398315429688 86.59811401367188 146.36398315429688 86.59811401367188 146.36398315429688 86.59811401367188" stroke-width="0.0" fill="rgb(82, 79, 117)" opacity="1.0"/>
    <path d="M 146.9326629638672 185.96640014648438 C 146.9326629638672 185.96640014648438 146.9326629638672 185.96640014648438 146.9326629638672 185.96640014648438 C 140.52772521972656 188.02328491210938 135.41973876953125 188.49822998046875 128.88815307617188 186.7478790283203 C 129.27064514160156 188.44757080078125 129.65313720703125 190.14727783203125 130.03564453125 191.8470001220703 C 135.32347106933594 191.8470001220703 140.61129760742188 191.8470001220703 145.89913940429688 191.8470001220703 C 146.24365234375 189.88763427734375 146.58815002441406 187.92703247070312 146.9326629638672 185.96640014648438" stroke-width="0.0" fill="rgb(233, 229, 218)" opacity="1.0"/>
    <path d="M 126.02574920654297 158.43798828125 C 126.02574920654297 158.43798828125 126.02574920654297 158.43798828125 126.02574920654297 158.43798828125 C 123.10255432128906 159.81979370117188 124.12466430664062 163.1875457763672 123.97647094726562 166.0271453857422 C 123.60157012939453 173.23887634277344 124.81239318847656 184.94810485839844 115.36901092529297 185.8030242919922 C 113.220947265625 185.66876220703125 111.07415008544922 185.53326416015625 108.92608642578125 185.3990020751953 C 104.94786071777344 184.52381896972656 103.08982849121094 182.56320190429688 102.44261932373047 178.53936767578125 C 102.36409759521484 175.1133575439453 102.2843017578125 171.68609619140625 102.20451354980469 168.2587890625 C 101.05068969726562 165.70164489746094 99.09260559082031 165.74217224121094 98.05656433105469 168.35252380371094 C 98.13508605957031 171.76840209960938 98.21488952636719 175.1842803955078 98.29341125488281 178.59890747070312 C 99.02420806884766 184.81890869140625 102.49834442138672 188.46405029296875 108.66390991210938 189.5380859375 C 110.81197357177734 189.67359924316406 112.96003723144531 189.807861328125 115.1068344116211 189.943359375 C 117.25996398925781 189.842041015625 117.83118438720703 189.9940185546875 119.85765838623047 189.19989013671875 C 128.0408172607422 185.99427795410156 127.46707916259766 175.75929260253906 127.9813003540039 168.48297119140625 C 128.20547485351562 165.32167053222656 129.63160705566406 159.7691192626953 126.02574920654297 158.43798828125 C 126.02574920654297 158.43798828125 126.02574920654297 158.43798828125 126.02574920654297 158.43798828125" stroke-width="0.0" fill="rgb(82, 79, 116)" opacity="1.0"/>
    <path d="M 139.3270263671875 72.71675109863281 C 139.3270263671875 72.71675109863281 139.3270263671875 72.71675109863281 139.3270263671875 72.71675109863281 C 137.0054473876953 73.32089233398438 136.48489379882812 73.83511352539062 135.83642578125 76.14402770996094 C 136.69261169433594 76.26689147949219 137.5475311279297 76.39100646972656 138.40245056152344 76.51512908935547 C 137.8274383544922 77.16740417480469 137.25242614746094 77.81967163085938 136.6774139404297 78.47320556640625 C 137.2625732421875 78.83798217773438 137.7666473388672 79.39399719238281 138.43411254882812 79.56623840332031 C 141.39024353027344 80.32743835449219 143.75108337402344 77.05087280273438 142.29962158203125 74.46331787109375 C 141.48776245117188 73.01312255859375 140.76837158203125 73.12330627441406 139.3270263671875 72.71675109863281 C 139.3270263671875 72.71675109863281 139.3270263671875 72.71675109863281 139.3270263671875 72.71675109863281" stroke-width="0.0" fill="rgb(36, 36, 36)" opacity="1.0"/>
    <path d="M 146.31964111328125 88.67525482177734 C 146.31964111328125 88.67525482177734 146.31964111328125 88.67525482177734 146.31964111328125 88.67525482177734 C 136.4722442626953 88.88169860839844 126.4779052734375 91.2792739868164 121.6751480102539 100.77205657958984 C 120.66697692871094 102.76433563232422 120.14136505126953 104.7857437133789 119.6866683959961 106.95661163330078 C 119.59674835205078 107.53035736083984 119.50808715820312 108.1041030883789 119.41942596435547 108.67784881591797 C 119.22311401367188 111.31859588623047 119.19779205322266 113.6693115234375 120.0438461303711 116.22393798828125 C 122.5161361694336 123.69151306152344 128.89700317382812 126.47664642333984 136.09226989746094 127.60894775390625 C 142.43894958496094 128.6069793701172 147.66851806640625 128.8260955810547 154.00759887695312 127.90911865234375 C 157.37786865234375 127.42276000976562 161.01412963867188 127.23150634765625 164.19569396972656 125.89783477783203 C 171.1705780029297 122.97210693359375 173.90380859375 115.92376708984375 172.78543090820312 108.84503173828125 C 172.50424194335938 107.68234252929688 172.22434997558594 106.52091979980469 171.9444580078125 105.35823059082031 C 171.22503662109375 103.00371551513672 170.4410400390625 100.8467788696289 169.0693817138672 98.77597045898438 C 163.89173889160156 90.96517181396484 155.08795166015625 89.16793823242188 146.31964111328125 88.67525482177734 C 146.31964111328125 88.67525482177734 146.31964111328125 88.67525482177734 146.31964111328125 88.67525482177734" stroke-width="0.0" fill="rgb(254, 229, 161)" opacity="1.0"/>
    <path d="M 123.0379638671875 181.23965454101562 C 123.0379638671875 181.23965454101562 123.0379638671875 181.23965454101562 123.0379638671875 181.23965454101562 C 123.7294921875 181.3599853515625 124.57554626464844 181.14720153808594 125.11003112792969 181.60061645507812 C 125.64578247070312 182.05531311035156 125.57231903076172 182.92543029785156 125.8028335571289 183.58782958984375 C 125.09736633300781 187.144287109375 124.39189910888672 190.69949340820312 123.68643188476562 194.25469970703125 C 123.23554229736328 195.00701904296875 122.4756088256836 195.62765502929688 121.64982604980469 195.92147827148438 C 115.33987426757812 195.92147827148438 109.02867889404297 195.92147827148438 102.71873474121094 195.92147827148438 C 101.87141418457031 195.60610961914062 101.10134887695312 194.93862915039062 100.66691589355469 194.14576721191406 C 100.1894302368164 190.86163330078125 99.71194458007812 187.57618713378906 99.23445892333984 184.290771484375 C 99.89559173583984 182.50241088867188 99.53462982177734 181.8716583251953 101.86507415771484 181.99703979492188 C 104.6983413696289 182.1490478515625 107.59620666503906 183.52450561523438 110.50039672851562 183.76260375976562 C 114.85733032226562 184.122314453125 118.99134063720703 182.665771484375 123.0379638671875 181.23965454101562 C 123.0379638671875 181.23965454101562 123.0379638671875 181.23965454101562 123.0379638671875 181.23965454101562" stroke-width="0.0" fill="rgb(83, 79, 117)" opacity="1.0"/>
    <path d="M 140.61764526367188 100.43895721435547 C 140.61764526367188 100.43895721435547 140.61764526367188 100.43895721435547 140.61764526367188 100.43895721435547 C 136.73568725585938 101.01903533935547 132.71058654785156 102.82260131835938 133.0664825439453 107.57342529296875 C 133.19821166992188 109.32125854492188 135.24874877929688 110.40161895751953 136.61282348632812 109.038818359375 C 137.59185791015625 108.05850219726562 136.9446563720703 107.04653930664062 137.56021118164062 105.94717407226562 C 138.4480438232422 104.36018371582031 141.245849609375 104.25633239746094 142.70237731933594 104.87187194824219 C 146.10939025878906 106.31193542480469 142.527587890625 109.2338638305664 142.3756103515625 111.10962677001953 C 142.2831573486328 112.2533187866211 143.13302612304688 113.25642395019531 144.27670288085938 113.35014343261719 C 147.9737548828125 113.65538024902344 148.6412353515625 107.47083282470703 147.95855712890625 105.1644515991211 C 146.8959197998047 101.56871032714844 143.92080688476562 100.77838897705078 140.61764526367188 100.43895721435547 C 140.61764526367188 100.43895721435547 140.61764526367188 100.43895721435547 140.61764526367188 100.43895721435547" stroke-width="0.0" fill="rgb(83, 80, 117)" opacity="1.0"/>
    <path d="M 140.06289672851562 105.31389617919922 C 140.06289672851562 105.31389617919922 140.06289672851562 105.31389617919922 140.06289672851562 105.31389617919922 C 139.62847900390625 105.58366394042969 139.07879638671875 105.72299194335938 138.75962829589844 106.12322235107422 C 135.04737854003906 110.78158569335938 146.46530151367188 109.27819061279297 141.78033447265625 105.77872467041016 C 141.3053741455078 105.42282104492188 140.63539123535156 105.46841430664062 140.06289672851562 105.31389617919922 C 140.06289672851562 105.31389617919922 140.06289672851562 105.31389617919922 140.06289672851562 105.31389617919922" stroke-width="0.0" fill="rgb(249, 214, 121)" opacity="1.0"/>
    <path d="M 162.88482666015625 100.43895721435547 C 162.88482666015625 100.43895721435547 162.88482666015625 100.43895721435547 162.88482666015625 100.43895721435547 C 166.76425170898438 101.01776885986328 170.7969512939453 102.82386779785156 170.437255859375 107.57342529296875 C 170.30426025390625 109.31999206542969 168.25372314453125 110.40035247802734 166.8909149169922 109.038818359375 C 165.9093475341797 108.05723571777344 166.55909729003906 107.04780578613281 165.9422607421875 105.94717407226562 C 165.05442810058594 104.36018371582031 162.25787353515625 104.25633239746094 160.80136108398438 104.87187194824219 C 157.39561462402344 106.3106689453125 160.97486877441406 109.23133087158203 161.12306213378906 111.10962677001953 C 161.21298217773438 112.25077819824219 160.36566162109375 113.25642395019531 159.22195434570312 113.35014343261719 C 155.52870178222656 113.65664672851562 154.86251831054688 107.46575927734375 155.54263305664062 105.1644515991211 C 156.60781860351562 101.56871032714844 159.5829315185547 100.77838897705078 162.88482666015625 100.43895721435547 C 162.88482666015625 100.43895721435547 162.88482666015625 100.43895721435547 162.88482666015625 100.43895721435547" stroke-width="0.0" fill="rgb(82, 79, 117)" opacity="1.0"/>
    <path d="M 123.77002716064453 183.17874145507812 C 123.06328582763672 186.73519897460938 122.35655212402344 190.29293823242188 121.64982604980469 193.84939575195312 C 115.33987426757812 193.84939575195312 109.02867889404297 193.84939575195312 102.71873474121094 193.84939575195312 C 102.23997497558594 190.56524658203125 101.75994873046875 187.27981567382812 101.28119659423828 183.994384765625 C 104.83006286621094 184.9531707763672 108.48025512695312 185.94107055664062 112.18997192382812 185.90689086914062 C 116.1960678100586 185.87142944335938 120.04004669189453 184.4908905029297 123.77002716064453 183.17874145507812 C 123.77002716064453 183.17874145507812 123.77002716064453 183.17874145507812 123.77002716064453 183.17874145507812" stroke-width="0.0" fill="rgb(82, 79, 117)" opacity="1.0"/>
    <path d="M 162.74676513671875 105.31389617919922 C 162.74676513671875 105.31389617919922 162.74676513671875 105.31389617919922 162.74676513671875 105.31389617919922 C 163.1811981201172 105.58366394042969 163.73214721679688 105.72299194335938 164.0513153076172 106.12322235107422 C 167.7648468017578 110.779052734375 156.34437561035156 109.27946472167969 161.03060913085938 105.77872467041016 C 161.50428771972656 105.42407989501953 162.17430114746094 105.46841430664062 162.74676513671875 105.31389617919922 C 162.74676513671875 105.31389617919922 162.74676513671875 105.31389617919922 162.74676513671875 105.31389617919922" stroke-width="0.0" fill="rgb(249, 214, 121)" opacity="1.0"/>
    <path d="M 121.02542114257812 186.32357788085938 C 121.02542114257812 186.32357788085938 121.02542114257812 186.32357788085938 121.02542114257812 186.32357788085938 C 114.95484924316406 188.06887817382812 109.9469223022461 188.15753173828125 103.79276275634766 186.80740356445312 C 104.03340911865234 188.46023559570312 104.2740478515625 190.11434936523438 104.51469421386719 191.7672119140625 C 109.65687561035156 191.76846313476562 114.80033111572266 191.77099609375 119.94252014160156 191.7722625732422 C 120.3034896850586 189.95602416992188 120.6644515991211 188.13980102539062 121.02542114257812 186.32357788085938" stroke-width="0.0" fill="rgb(232, 228, 218)" opacity="1.0"/>
    <path d="M 78.80630493164062 182.81777954101562 C 78.80630493164062 182.81777954101562 78.80630493164062 182.81777954101562 78.80630493164062 182.81777954101562 C 83.02137756347656 183.59922790527344 87.2845687866211 184.36041259765625 91.59083557128906 184.11346435546875 C 94.6153564453125 183.93992614746094 97.8564453125 182.7633056640625 100.83030700683594 182.81777954101562 C 103.10502624511719 182.85830688476562 102.72759246826172 183.47384643554688 103.2684097290039 185.2508087158203 C 102.68326568603516 188.2487335205078 102.09812927246094 191.2466583251953 101.51296997070312 194.24456787109375 C 101.06462097167969 195.00070190429688 100.30722045898438 195.62765502929688 99.48143005371094 195.92529296875 C 93.03850555419922 195.92529296875 86.59683227539062 195.92529296875 80.1551742553711 195.92529296875 C 79.32811737060547 195.62765502929688 78.57199096679688 195.00070190429688 78.1236343383789 194.24456787109375 C 77.53848266601562 191.2466583251953 76.95333862304688 188.2487335205078 76.36819458007812 185.2508087158203 C 76.55818176269531 184.62765502929688 76.47838592529297 183.8424072265625 76.93940734863281 183.38265991210938 C 77.399169921875 182.9228973388672 78.18315887451172 183.00521850585938 78.80630493164062 182.81777954101562 C 78.80630493164062 182.81777954101562 78.80630493164062 182.81777954101562 78.80630493164062 182.81777954101562" stroke-width="0.0" fill="rgb(83, 79, 117)" opacity="1.0"/>
    <path d="M 78.4010009765625 184.84930419921875 C 78.4010009765625 184.84930419921875 78.4010009765625 184.84930419921875 78.4010009765625 184.84930419921875 C 86.35366821289062 186.31979370117188 93.28421783447266 186.31851196289062 101.23686981201172 184.84930419921875 C 100.65171813964844 187.84722900390625 100.06657409667969 190.84640502929688 99.48143005371094 193.84432983398438 C 93.0410385131836 193.84432983398438 86.60064697265625 193.84432983398438 80.16023254394531 193.84432983398438 C 79.5738296508789 190.84640502929688 78.98741912841797 187.84722900390625 78.4010009765625 184.84930419921875" stroke-width="0.0" fill="rgb(82, 79, 117)" opacity="1.0"/>
    <path d="M 81.02149200439453 187.44573974609375 C 81.30266571044922 188.88833618164062 81.5851058959961 190.32968139648438 81.86627960205078 191.7722625732422 C 87.16805267333984 191.7722625732422 92.46855163574219 191.7722625732422 97.76905822753906 191.7722625732422 C 98.05150604248047 190.32968139648438 98.33267974853516 188.88833618164062 98.61511993408203 187.44573974609375 C 92.5711441040039 188.37283325195312 87.06546020507812 188.37283325195312 81.02149200439453 187.44573974609375 C 81.02149200439453 187.44573974609375 81.02149200439453 187.44573974609375 81.02149200439453 187.44573974609375" stroke-width="0.0" fill="rgb(233, 229, 218)" opacity="1.0"/>
  </g>
</svg>
