<?xml version="1.0" encoding="UTF-8"?>
<svg xmlns="http://www.w3.org/2000/svg" version="1.1" viewBox="0 0 224 224">
  <defs>
    <style>
      .cls-1 {
        fill: #c3e4e6;
        opacity: 1;
      }

      .cls-1, .cls-2, .cls-3, .cls-4, .cls-5, .cls-6, .cls-7, .cls-8, .cls-9, .cls-10 {
        isolation: isolate;
      }

      .cls-2 {
        fill: #e3da5f;
        opacity: 1;
      }

      .cls-3 {
        fill: #ded85c;
        opacity: 1;
      }

      .cls-4 {
        fill: #e0f3f3;
        opacity: 1;
      }

      .cls-5 {
        fill: #eae069;
        opacity: 1;
      }

      .cls-6 {
        fill: #e5dd5d;
        opacity: 1;
      }

      .cls-7 {
        fill: #f3de63;
        opacity: 1;
      }

      .cls-8 {
        fill: #526579;
        opacity: 1;
      }

      .cls-9 {
        fill: #c9e6ec;
        opacity: 1;
      }

      .cls-11 {
        fill: #524f74;
      }

      .cls-10 {
        fill: #d0edea;
        opacity: 1;
      }
    </style>
  </defs>
  <!-- Generator: Adobe Illustrator 28.6.0, SVG Export Plug-In . SVG Version: 1.2.0 Build 709)  -->
  <g>
    <g id="_图层_1" data-name="图层_1">
      <g>
        <path class="cls-11" d="M73.2,193.9c-3.7-4.9-1.1-10.6,4.5-11,1.4.5,2.6-.7,3.6-1.1.2.5,0-20.7.3-46.4l.3-46.4-3.9-2.7c-3.6-3.6-3.9-4.2-3.7-8.4.2-5.8,4.3-9.7,10-10,3.7,0,4.5,0,5-2.4,1.9-4,5.5-6.1,12-7.5,3.3-.6,6.6-.9,7.2-.9.8-.5.9-3,.6-8,.5-6,.4-7.4-2.9-8.8-1-1.4-1.7-3.8-1.7-5.8-.2-2.4,4.2-6.4,6.9-5.7,2.9-.5,7.2,3.4,6.9,5.6,0,1.9-1,4.3-1.6,6.2-2.9,1.1-2.9,1.8-2.7,8.6l-.3,7.8,5.4.7c7.1.9,11.8,3.1,14.1,7.2,1.1,3.2,2,3.8,5,2.8,4.1.1,8.5,2.7,10.1,5.2,2.5,3.7,1.7,9-1.5,12-1.8,1.5-3.7,2.7-4.7,2.7-1.4-.3-1,20-.6,69.2l.2,25.6h4.8c5.8,1.7,8,6.8,4.1,11.2-1.1,2.1-3.2,1.7-38.6,1.7-34.6.1-37.3.5-38.8-1.6"/>
        <path class="cls-3" d="M109.5,36.8c-1-2.2,2-4.4,3.7-2.6,1.3,1.5.3,4.2-1.4,3.8-.9.1-1.7-.6-2.2-1.2"/>
        <path class="cls-9" d="M75.6,188.7c-.6-1.6,12.3-1.4,36.5-1,23.9-.5,36.6-.7,36.2.9.6,1.9-12.2,1.8-36.7,1.6-23.8,0-36.8.2-36.1-1.6"/>
        <path class="cls-4" d="M86.6,182c0-1.1.1-21.6.3-47v-46.7s11.2-.1,11.2-.1c12.2-.2,14.6,1.2,7.5,4.3-7.6,2.6-12.3,11.1-10.5,18.4.3,4.8,5.7,11.1,10.4,12.3,3.5.6,3.7,1.1,3.7,5.6.4,2.8-.3,4.8-2.7,6.5-3,3.6-2.9,6.9,0,10.6,3.2,2.5,5.1,2.8,8.2,1.3,5.1-2.5,6.2-8.4,1.9-12.4-2.1-1.4-2.8-3-2.6-6.5,0-3.6.3-4,5.5-5.7,12.8-6.5,12-23.2-1.1-29.7-2.6-.9-4.4-2-4.2-3.9.5-.7,5.2-.5,11.1-.6h10.5c0,0,.9,94.4.9,94.4l-24.6-.3c-13.6.1-24.4,0-25.5-.3"/>
        <path class="cls-10" d="M122.8,83.3c-.5.3-5.8.2-12.8.4-6.8-.4-11.5-.4-12.3-.7.8-5.3,40.7-13.8,45.4-8.9,2.6,1.3,3.2,7.2.4,8.7-.7,1.3-18,.9-20.7.6"/>
        <path class="cls-7" d="M80,82.4c-.9-.6-1.1-2.5-1.3-3.5-.4-4.2,2.8-6.8,10.4-6.1l8.7-.2-3.4-4.3c-.8-1.8.9-3.6,3.8-4.9,4.4-2.1,18.4-2.5,25.4-.3,4.5,1.6,6.7,4.2,2.5,7,1.9,4.8,1.8,6-.4,6.5-4.8,2.6-16.9,1.4-28.8,6.5-2.8.2-9.1.4-11.4.2-3.5,0-5.4-.2-5.6-.9"/>
        <path class="cls-8" d="M107,101.6l-5.4-3,3.8-1.2c4.7-2,12.1-1.6,14.7,1.1,1.4,1.5,1.2,1.9-3.1,3.7-2.5,1.4-4.8,2.2-4.5,2.3-.1-.1-2.7-1.5-5.4-2.9"/>
        <path class="cls-5" d="M99.8,106.9c0-1.7.4-3.4.9-3.6.5-.7,9,4.6,8.7,6,.7.6-1.7,1.1-4.6.9-5-.1-5.2-.1-5-3.2"/>
        <path class="cls-1" d="M113.4,109.6c0-.6,9-5.2,10-5.2.4,0,.4,1.3.7,2.9,0,2.7-.6,3-5.5,2.9-2.6,0-5-.4-5.2-.5"/>
        <path class="cls-11" d="M90.7,80.2c-.9-.3-1.2-1.3-.9-2.4.7-1.9,3.3-2,21.6-1.9,21-.4,23.2-.3,21.3,3.7-1.2,1.2-5,1.4-21,1.4-10.8,0-20.8-.4-21.1-.8"/>
        <path class="cls-6" d="M109.1,141.5c-.4-1-.2-2.5.7-3.3,1.6-2,6.2,1.7,5.1,3.9-1.5,2-4.7,1.8-5.7-.6"/>
        <path class="cls-11" d="M108.5,163.9c-5.7-2.9-4.9-11.5,1.4-13.6,7.2-2.7,12.4,8,6.6,12.8-3.4,2.6-4.2,2.6-8,.7"/>
        <path class="cls-2" d="M109.4,158.6c-1-2.9,2-5,4.1-3.3,1.6,1.4,1.7,2.2.5,3.5-1.8,2.2-3.6,2.2-4.6-.2"/>
      </g>
    </g>
  </g>
</svg>