<?xml version="1.0" encoding="UTF-8"?>
<svg xmlns="http://www.w3.org/2000/svg" version="1.1" viewBox="0 0 224 224">
  <defs>
    <style>
      .cls-1 {
        fill: #fbfcfd;
        opacity: 1;
      }

      .cls-1, .cls-2, .cls-3 {
        isolation: isolate;
      }

      .cls-2 {
        fill: #fbfcfe;
        opacity: 1;
      }

      .cls-4 {
        fill: #524f75;
      }

      .cls-3 {
        fill: #f3c850;
        opacity: 1;
      }
    </style>
  </defs>
  <!-- Generator: Adobe Illustrator 28.6.0, SVG Export Plug-In . SVG Version: 1.2.0 Build 709)  -->
  <g>
    <g id="_图层_1" data-name="图层_1">
      <g>
        <path class="cls-4" d="M57,193.1c-4.9-2.9-10.2-9-11.1-13.1-.2-1.7-2.4-4.4-4.5-6-5-3.3-5-4.2-1.6-7.2,1.7-2,6.2-2.3,29.7-2.7,15.1.2,27.4.1,26.8-.2-.4-.3-12.5-2-26.4-3.8-30.5-4.1-30.8-4.4-28.3-14.6,7.9-33.3,37-82,64.5-107.5,9.2-8.5,13.3-10,17.5-6,1.7,1.5,2.2,5,2,15.6l-.2,13.6,15.8,24.5c16.2,25.5,36.9,59.8,41.9,69.5,4.2,8.3,3.7,11.7-2.7,17.7-3,3.3-5.5,6.7-5.5,7.5.2,2.4-7.4,11-11.9,13.6-3,1.5-13.1,2-53.3,2-45.4,0-49.1-.3-52.9-2.9"/>
        <path class="cls-2" d="M158.7,159.7c-9.7-1.2-20.5-2.3-24-2.5-10.3,0-10,3.1-9.6-43.1-.2-29.3-.3-41.4.6-40.8,2,.9,3.6,3.6,22.8,34.5,14.6,23.5,31.9,52.5,32,54-.4.5,1,1.1-21.7-2.1"/>
        <path class="cls-1" d="M108.5,159.6c-2.8-.5-16.5-2.4-30.4-3.9-31.6-3.6-31.3-3.3-31.1-6.5-.1-4.2,9.3-30.2,14.9-40.8,11.1-22.4,33.2-52.9,48.7-67.3l8.7-7-.4,61.7c.1,34.4.1,62.6.1,63.9-1.9,1.9-2.3,1.7-10.5,0"/>
        <path class="cls-3" d="M107.8,190.3l-47.1.2-5.3-6.1c-8.7-9.8-11.3-8.9,56.8-9.6,33.1-.5,60.5-.7,60.1-.2,0,3.8-6.3,11-10.8,13.4-3.3,1.6-6.2,2.8-6.6,2.8-.8.1-21.6-.2-47.1-.6"/>
      </g>
    </g>
  </g>
</svg>