<?xml version="1.0" encoding="UTF-8"?>
<svg xmlns="http://www.w3.org/2000/svg" version="1.1" viewBox="0 0 224 224">
  <defs>
    <style>
      .cls-1 {
        fill: #a1e2fe;
      }

      .cls-2 {
        fill: #ffee42;
        opacity: 1;
      }

      .cls-2, .cls-3, .cls-4, .cls-5, .cls-6, .cls-7, .cls-8, .cls-9, .cls-10, .cls-11, .cls-12, .cls-13, .cls-14, .cls-15, .cls-16, .cls-17, .cls-18, .cls-19, .cls-20, .cls-21, .cls-22 {
        isolation: isolate;
      }

      .cls-3 {
        fill: #ffed46;
        opacity: 1;
      }

      .cls-4 {
        fill: #7ed6fe;
        opacity: 1;
      }

      .cls-5 {
        fill: #f2fbfe;
        opacity: 1;
      }

      .cls-23 {
        fill: #9ce4fd;
      }

      .cls-6 {
        fill: #edf8fb;
        opacity: 1;
      }

      .cls-7 {
        fill: #58c3f0;
        opacity: 1;
      }

      .cls-8 {
        fill: #f5fcfe;
        opacity: 1;
      }

      .cls-9 {
        fill: #5ac5f0;
        opacity: 1;
      }

      .cls-10 {
        fill: #9de4fa;
        opacity: 1;
      }

      .cls-11 {
        fill: #eef8fb;
        opacity: 1;
      }

      .cls-12 {
        fill: #9ee2fb;
        opacity: 1;
      }

      .cls-13 {
        fill: #a0e2fc;
        opacity: 1;
      }

      .cls-14 {
        fill: #eef9fb;
        opacity: 1;
      }

      .cls-15 {
        fill: #eef9fc;
        opacity: 1;
      }

      .cls-16 {
        fill: #eefaff;
        opacity: 1;
      }

      .cls-17 {
        fill: #f0f9fb;
        opacity: 1;
      }

      .cls-18 {
        fill: #feef47;
        opacity: 1;
      }

      .cls-24 {
        fill: #524f75;
      }

      .cls-19 {
        fill: #f8342f;
        opacity: 1;
      }

      .cls-20 {
        fill: #eff9fc;
        opacity: 1;
      }

      .cls-21 {
        fill: #fd2d2b;
        opacity: 1;
      }

      .cls-22 {
        fill: #9fe3fd;
        opacity: 1;
      }
    </style>
  </defs>
  <!-- Generator: Adobe Illustrator 28.6.0, SVG Export Plug-In . SVG Version: 1.2.0 Build 709)  -->
  <g>
    <g id="_图层_1" data-name="图层_1">
      <g>
        <path class="cls-24" d="M51,144.7c-2.1-2.7-2.7-2.2-10.8-1.5-12.2,0-11.8.2-11.5-19.3-.2-11.3,0-14.7,1.1-16.3,1.2-1.2,1.5-3.9,1.2-9.9,0-4.5.4-9.1,1.1-11.2,1.4-3.9,6.7-8.4,11-9.8,2.9-1.4,26.4-.9,69.7-1,72.4-.3,69.6-.6,75.4,5.5,4.6,4.8,5.2,6.2,5.3,23-.8,11.1-.7,15.9.4,16.4,1,.9,1.9,5,1.4,9.6.4,6.8.7,8.7-.6,10.5l-2.5,2.2-10.6.4-11.9-.7-2.4,2.1c-3.8,3.8-9.5,3.9-13.5,1l-2.5-2.7h-83.4s-2.8,2.1-2.8,2.1c-4,3.4-10.5,3.5-14.2-.6"/>
        <path class="cls-2" d="M32.8,129.6v-10.5c0,0,63.4-.1,63.4-.1,60.8,0,63.6.7,66.4-1,2.6-1.5,3.7-2.1,4.5-1.5,0,1.1,4.3,1.3,9.2,1,5.3-.3,10.2-.2,10.9,1.1,2.7,1.5,5.2,5.9,4.9,9.3,0,2.6,0,3.5-2.3,3.3-1.3.3-2-.7-2.1-1.3.2-3.9-.5-4.9-2.7-6.4-7.3-4.3-14,4.5-7.7,10.5,1.6,1.8,2.4,1.9,5.4,1.5,3.8-1.6,7.9-1.2,9.3-.3-.2.6-.4,1.7,0,2.7.5,1.7-1.9,1.6-9.6,1.6h-10.5c0,0,1-5,1-5-.9-5.4-5.4-9.3-11.6-10.2-7.8-.6-14.2,4.5-13.5,11.9v3.3c-.1,0-38.6-.1-38.6-.1l-38-.3-.4-2.9c.7-6.5-6.2-12.1-14-12-6,1.4-9.8,5-10.5,11.2v3.8c.1,0-7.1.3-7.1.3h-6.2c0,.1,0-10,0-10"/>
        <path class="cls-3" d="M32.3,115.6c-.4-2.2,0-3.7,1-5.4,2.5-7-.7-5.9,67.8-6,40.2-.2,62.1.5,62.3-.9,1.7-2.2,2.5-.7,2.4,2.5,0,5.4-1.1,7.2-5.4,9.8-3.2,0-127.9,0-128.2,0"/>
        <path class="cls-18" d="M165.5,89.6c.5-1.3-22.5-1.1-65.1-1.2H35.7c0,0,2.6-3.7,2.6-3.7,5.7-6.2,2.8-5.2,74-5.2h65.8c0,0,3.9,2.4,3.9,2.4,2.3,1,4.9,3.3,5.8,5l1.7,3.3h-11.5c-6.6.4-10.9.3-12.5-.6"/>
        <path class="cls-19" d="M35.1,97c.3-7.3,3.3-7.9,3.5-.6,0,4.2-.6,5.5-2,5.5-1.3.1-1.7-1-1.4-5"/>
        <path class="cls-21" d="M156.7,96.4c-.2-4.5-.1-4.5,3.4-4.1,2.9-.4,3.8.1,4.5,1.9,1.1,2.9-2.7,6.2-6,6.2-1.5.1-1.9-.6-1.8-4"/>
        <path class="cls-17" d="M41.9,96.3l.4-3.9h15.9s-.1,3.3-.1,3.3v4.3s-7.9.4-7.9.4h-7.8s-.5-4.1-.5-4.1"/>
        <path class="cls-15" d="M61.6,95.7l.3-3.4h14.6c0,0,.2,3.5.2,3.5l.2,4.3-7.5.3h-7.7c0,0-.1-4.7-.1-4.7"/>
        <path class="cls-20" d="M80.5,96.5v-4c.1,0,15.6-.1,15.6-.1l.2,4-.5,3.8-7.5.2-7.7-.3v-3.6"/>
        <path class="cls-11" d="M100,96.4v-4c0,0,15.1-.2,15.1-.2v3.7s0,3.9,0,3.9l-7.8.4h-7.4s0-3.9,0-3.9"/>
        <path class="cls-6" d="M118.4,95.6l.8-3.2h14.9c0-.1-.3,7.7-.3,7.7l-15.1.3-.3-4.8"/>
        <path class="cls-14" d="M137.7,96.1l.2-3.6,15.2-.4.2,8-15.6.2v-4.3"/>
        <path class="cls-4" d="M179.1,113.6h-9.3s0-19.8,0-19.8h20c0,0-.2,10.4-.2,10.4.2,5.5.2,10.1-.2,10.2-.9,0-5.3-.6-10.3-.8"/>
        <path class="cls-16" d="M179.7,130.9c-1.7-2.6,0-6,2.5-5.1,1,0,1.8,1.1,1.8,2.8-.1,3.6-2.3,4.6-4.3,2.3"/>
        <path class="cls-9" d="M53.6,141.8c-4-4-.8-10.9,5.1-10.6,6,0,9,6.7,4.5,10.6-2.8,2.7-7.1,2.6-9.5,0"/>
        <path class="cls-7" d="M155.5,141.6c-1.6-1.3-2.6-3.3-2.4-4-.3-2.5,4.5-6.7,7.2-6.4,5.9-.2,8.9,6.5,4.6,10.9-2.7,2.8-6.5,2.6-9.4-.4"/>
        <path class="cls-22" d="M43.8,96.3c-.2-1.2,1.2-1.5,5.8-1.8,4,0,5.2.2,5.3,1.3,0,1.4-1.2,1.6-5.6,1.5-4.3.2-5.5,0-5.5-1"/>
        <path class="cls-10" d="M63.2,96.1c.2-1.1,1.3-1.4,5.7-1.4,3.7-.2,5.1.1,5,1.3.4,1.2-1,1.5-5.1,1.1-4.2.3-5.3,0-5.6-1"/>
        <path class="cls-13" d="M82.2,96.1c-.2-1,1.2-1.6,5.5-1.3,4.1-.1,5.2,0,5.6,1.1,0,1.2-1.2,1.5-5.2,1.3-4.6.2-5.9,0-5.8-1.1"/>
        <path class="cls-1" d="M101.2,95.8c0-1,1.2-1.4,5.5-1.1,4.2,0,5.4.3,5.4,1.4,0,1.3-1.1,1.1-5.6,1.2-4.1.4-5.3-.3-5.3-1.5"/>
        <path class="cls-12" d="M120.4,96.1c-.1-1,1-1.4,4.9-1.3,4.4,0,5.9.3,5.4,1.4.1.9-.9,1.3-5.4,1.1-3.9.2-5-.2-4.9-1.1"/>
        <path class="cls-23" d="M139.3,96c0-1.1,1-1.3,5.5-1.3,4,0,5.3.2,4.8,1.3.4,1-.8,1.3-5,1.5-4.2-.2-5.4-.3-5.4-1.5"/>
        <path class="cls-5" d="M55,138.3c-.9-3.6.7-5.2,3.8-4.7,5.9,1,5.1,7.7-.9,7.7-1.7,0-2.6-.9-3-2.9"/>
        <path class="cls-8" d="M157.1,139.4c-.5-.8-.6-2.4-.5-3.7.7-2.6,6.8-2.7,7.3.3,1.1,4-5.3,7.3-6.8,3.4"/>
      </g>
    </g>
  </g>
</svg>