<?xml version="1.0" ?>
<svg xmlns="http://www.w3.org/2000/svg" version="1.1" width="224" height="224">
  <defs/>
  <g>
    <path d="M 181.0109405517578 45.738624572753906 C 181.0109405517578 45.738624572753906 181.0109405517578 45.738624572753906 181.0109405517578 45.738624572753906 C 182.9029541015625 45.889442443847656 184.6538543701172 46.22095489501953 186.38235473632812 47.04377365112305 C 187.63523864746094 47.64034652709961 188.79852294921875 48.42433547973633 189.82891845703125 49.353919982910156 C 196.0 54.92021560668945 194.51490783691406 63.725502014160156 194.54177856445312 71.2099609375 C 194.63511657714844 98.05289459228516 194.48654174804688 124.89657592773438 194.47607421875 151.739501953125 C 194.47607421875 151.739501953125 194.47607421875 151.739501953125 194.47607421875 151.739501953125 C 194.07363891601562 158.80807495117188 189.08450317382812 164.69468688964844 181.82330322265625 165.36219787597656 C 179.40115356445312 165.58470153808594 176.952880859375 165.03591918945312 174.5605926513672 164.72381591796875 C 170.63543701171875 164.21160888671875 166.7035675048828 163.7449493408203 162.7672119140625 163.32383728027344 C 150.92901611328125 162.05825805664062 139.05125427246094 161.22349548339844 127.15333557128906 160.7822265625 C 127.15333557128906 162.0717010498047 127.15333557128906 163.36117553710938 127.15333557128906 164.650634765625 C 137.62066650390625 166.1043701171875 147.8363800048828 168.6661376953125 157.81838989257812 172.1216583251953 C 157.81838989257812 172.1216583251953 157.81838989257812 172.1216583251953 157.81838989257812 172.1216583251953 C 159.24002075195312 172.8444061279297 160.5645751953125 173.9009246826172 160.7945556640625 175.6055450439453 C 161.1305389404297 178.09487915039062 158.56430053710938 180.0078125 156.30491638183594 179.82711791992188 C 155.28648376464844 179.7457275390625 154.03062438964844 179.09913635253906 153.08834838867188 178.78402709960938 C 151.22543334960938 178.16058349609375 149.34910583496094 177.574462890625 147.46231079101562 177.02642822265625 C 141.7996826171875 175.38377380371094 136.0355224609375 174.0868377685547 130.21087646484375 173.17144775390625 C 109.0678939819336 169.84735107421875 87.42465209960938 171.78341674804688 67.45391845703125 179.59042358398438 C 67.45391845703125 179.59042358398438 67.45391845703125 179.59042358398438 67.45391845703125 179.59042358398438 C 66.24209594726562 179.7942657470703 65.00564575195312 179.89207458496094 63.87744903564453 179.24322509765625 C 60.78704833984375 177.46844482421875 62.39310073852539 173.4394989013672 64.88841247558594 172.17169189453125 C 67.49349212646484 170.84861755371094 70.55850219726562 170.04222106933594 73.33829498291016 169.1656494140625 C 79.96559143066406 167.0750274658203 86.74446105957031 165.59292602539062 93.6203842163086 164.6095733642578 C 93.6203842163086 163.34249877929688 93.6203842163086 162.075439453125 93.6203842163086 160.80836486816406 C 76.95059967041016 161.35939025878906 60.360713958740234 162.86166381835938 43.85594177246094 165.25692749023438 C 43.85594177246094 165.25692749023438 43.85594177246094 165.25692749023438 43.85594177246094 165.25692749023438 C 37.07557678222656 165.6705780029297 30.546096801757812 161.58563232421875 28.830284118652344 154.78286743164062 C 28.00000762939453 151.48715209960938 28.405441284179688 147.77850341796875 28.38976287841797 144.40513610839844 C 28.27477264404297 119.19587707519531 28.42932891845703 93.98661804199219 28.435302734375 68.776611328125 C 28.435302734375 65.68023681640625 28.435302734375 62.58312225341797 28.435302734375 59.486751556396484 C 28.52490997314453 57.880699157714844 28.744422912597656 56.273902893066406 29.282760620117188 54.749237060546875 C 29.771820068359375 53.36269760131836 30.56475830078125 52.059791564941406 31.49956512451172 50.93159866333008 C 37.25178527832031 43.99220275878906 45.89131546020508 46.12389373779297 53.715492248535156 46.766761779785156 C 56.67298889160156 47.01017379760742 59.632720947265625 47.234169006347656 62.593204498291016 47.44024658203125 C 101.57299041748047 50.14537048339844 140.67747497558594 49.485328674316406 179.56765747070312 45.78790283203125 C 179.56765747070312 45.78790283203125 179.56765747070312 45.78790283203125 179.56765747070312 45.78790283203125 C 180.04925537109375 45.77147674560547 180.53009033203125 45.75505065917969 181.0109405517578 45.738624572753906 C 181.0109405517578 45.738624572753906 181.0109405517578 45.738624572753906 181.0109405517578 45.738624572753906" stroke-width="0.0" fill="rgb(29, 97, 225)" opacity="1.0"/>
    <path d="M 180.71377563476562 53.58072280883789 C 180.71450805664062 53.58072280883789 180.71527099609375 53.58072280883789 180.71676635742188 53.58072280883789 C 176.29656982421875 53.721839904785156 171.9256591796875 54.36918640136719 167.52264404296875 54.74027633666992 C 160.10015869140625 55.365970611572266 152.6590118408203 55.82292175292969 145.2193603515625 56.18952941894531 C 121.35482788085938 57.36625289916992 97.42906188964844 57.34236145019531 73.57050323486328 56.049163818359375 C 65.12660217285156 55.591461181640625 56.66104507446289 55.064327239990234 48.24850082397461 54.192230224609375 C 44.591392517089844 53.81367874145508 40.176429748535156 52.48612976074219 37.52507019042969 55.937156677246094 C 36.05042266845703 57.85680389404297 36.269187927246094 60.124393463134766 36.2550048828125 62.40317916870117 C 36.23335266113281 65.87735748291016 36.21394348144531 69.35153198242188 36.19751739501953 72.82496643066406 C 36.13031768798828 86.71943664550781 36.10418701171875 100.61316680908203 36.11986541748047 114.50763702392578 C 36.131065368652344 123.93563079833984 36.16167449951172 133.36361694335938 36.21319580078125 142.79161071777344 C 36.22663116455078 145.2727508544922 36.24156951904297 147.75460815429688 36.25798797607422 150.23574829101562 C 36.2677001953125 151.70889282226562 36.262474060058594 153.04241943359375 37.002403259277344 154.37220764160156 C 38.95191955566406 157.8769989013672 42.39996337890625 157.53875732421875 45.80246353149414 157.09451293945312 C 52.645538330078125 156.2022705078125 59.49459457397461 155.35256958007812 66.3608169555664 154.65966796875 C 95.46910095214844 151.72084045410156 124.92084503173828 151.89779663085938 154.0447998046875 154.52825927734375 C 161.9727783203125 155.24429321289062 169.8417510986328 156.3336639404297 177.74658203125 157.234130859375 C 180.5741424560547 157.5566864013672 184.33578491210938 157.34912109375 185.93063354492188 154.54319763183594 C 187.10287475585938 152.481689453125 186.64593505859375 149.6167755126953 186.6601104736328 147.34396362304688 C 186.6899871826172 142.3794708251953 186.71536254882812 137.4149627685547 186.73477172851562 132.45120239257812 C 186.80870056152344 113.56462097167969 186.8072052001953 94.67801666259766 186.72805786132812 75.79216766357422 C 186.71163940429688 71.81399536132812 186.69146728515625 67.8350830078125 186.6683349609375 63.856910705566406 C 186.65713500976562 61.95966720581055 186.9460906982422 59.759281158447266 186.41297912597656 57.915042877197266 C 185.6864776611328 55.407039642333984 183.31884765625 53.60536575317383 180.71377563476562 53.58072280883789 C 180.71377563476562 53.58072280883789 180.71377563476562 53.58072280883789 180.71377563476562 53.58072280883789" stroke-width="0.0" fill="rgb(254, 254, 254)" opacity="1.0"/>
    <path d="M 89.24201202392578 71.67138671875 C 110.33721160888672 71.67138671875 131.43240356445312 71.67138671875 152.52760314941406 71.67138671875 C 155.91366577148438 71.79458618164062 157.55557250976562 75.81904602050781 155.2969512939453 78.36438751220703 C 154.57044982910156 79.18272399902344 153.53485107421875 79.35968017578125 152.5246124267578 79.51348876953125 C 131.42941284179688 79.51348876953125 110.33422088623047 79.51348876953125 89.23902130126953 79.51348876953125 C 85.98286437988281 79.10955047607422 84.10279846191406 75.53829956054688 86.46968078613281 72.82048797607422 C 87.18498229980469 71.99842834472656 88.2392578125 71.82369995117188 89.24201202392578 71.67138671875 C 89.24201202392578 71.67138671875 89.24201202392578 71.67138671875 89.24201202392578 71.67138671875" stroke-width="0.0" fill="rgb(29, 97, 225)" opacity="1.0"/>
    <path d="M 89.24201202392578 92.58738708496094 C 98.35342407226562 92.58738708496094 107.46558380126953 92.58738708496094 116.57774353027344 92.58738708496094 C 119.4605712890625 92.67176055908203 121.48548889160156 96.52075958251953 119.68754577636719 98.88914489746094 C 118.903564453125 99.9225082397461 117.81045532226562 100.32868957519531 116.57774353027344 100.42948913574219 C 107.46558380126953 100.42948913574219 98.35342407226562 100.42948913574219 89.24201202392578 100.42948913574219 C 88.00779724121094 100.13082885742188 87.70390319824219 100.23834228515625 86.76983642578125 99.29308319091797 C 84.24690246582031 96.738037109375 85.73722076416016 92.87409973144531 89.24201202392578 92.58738708496094 C 89.24201202392578 92.58738708496094 89.24201202392578 92.58738708496094 89.24201202392578 92.58738708496094" stroke-width="0.0" fill="rgb(29, 97, 225)" opacity="1.0"/>
    <path d="M 132.74502563476562 92.58738708496094 C 139.3379669189453 92.58738708496094 145.93092346191406 92.58738708496094 152.5246124267578 92.58738708496094 C 154.99827575683594 92.62995147705078 156.95526123046875 95.42317962646484 156.2071075439453 97.77812194824219 C 155.64114379882812 99.55963897705078 154.19264221191406 100.1659164428711 152.5246124267578 100.42650604248047 C 145.93092346191406 100.42650604248047 139.3379669189453 100.42650604248047 132.74502563476562 100.42650604248047 C 131.5205078125 100.1465072631836 131.20318603515625 100.24581146240234 130.25120544433594 99.34310913085938 C 128.510009765625 97.69151306152344 128.40621948242188 94.80943298339844 130.44085693359375 93.34673309326172 C 131.32861328125 92.70834350585938 131.70269775390625 92.76658630371094 132.74502563476562 92.58738708496094 C 132.74502563476562 92.58738708496094 132.74502563476562 92.58738708496094 132.74502563476562 92.58738708496094" stroke-width="0.0" fill="rgb(29, 97, 225)" opacity="1.0"/>
    <path d="M 132.74502563476562 132.2018280029297 C 139.3379669189453 132.2018280029297 145.93092346191406 132.2018280029297 152.5246124267578 132.2018280029297 C 155.0079803466797 132.244384765625 156.945556640625 135.0465850830078 156.1988983154297 137.40301513671875 C 155.63592529296875 139.17930603027344 154.18667602539062 139.78036499023438 152.5246124267578 140.04095458984375 C 145.93092346191406 140.04095458984375 139.3379669189453 140.04095458984375 132.74502563476562 140.04095458984375 C 131.4757080078125 139.73855590820312 131.1427001953125 139.84532165527344 130.17953491210938 138.8746795654297 C 127.47290802001953 136.14715576171875 129.46498107910156 132.71478271484375 132.74502563476562 132.2018280029297 C 132.74502563476562 132.2018280029297 132.74502563476562 132.2018280029297 132.74502563476562 132.2018280029297" stroke-width="0.0" fill="rgb(189, 209, 246)" opacity="1.0"/>
    <path d="M 89.23902130126953 132.19586181640625 C 98.37955474853516 132.19586181640625 107.52082824707031 132.19586181640625 116.662109375 132.19586181640625 C 119.68605041503906 132.28396606445312 121.5153579711914 135.94406127929688 119.83314514160156 138.42294311523438 C 119.06334686279297 139.557861328125 117.90901947021484 139.8206787109375 116.662109375 140.0379638671875 C 107.52082824707031 140.0379638671875 98.37955474853516 140.0379638671875 89.23902130126953 140.0379638671875 C 88.0100326538086 139.737060546875 87.71360778808594 139.84532165527344 86.78701782226562 138.89707946777344 C 84.29020690917969 136.34352111816406 85.72826385498047 132.48257446289062 89.23902130126953 132.19586181640625 C 89.23902130126953 132.19586181640625 89.23902130126953 132.19586181640625 89.23902130126953 132.19586181640625" stroke-width="0.0" fill="rgb(29, 97, 225)" opacity="1.0"/>
    <path d="M 108.08828735351562 112.02874755859375 C 122.9011459350586 112.02874755859375 137.7139892578125 112.02874755859375 152.52760314941406 112.02874755859375 C 155.77105712890625 112.13999938964844 157.3173828125 115.99273681640625 155.52093505859375 118.48281860351562 C 154.755615234375 119.54456329345703 153.7267303466797 119.69538879394531 152.52760314941406 119.870849609375 C 137.7139892578125 119.870849609375 122.9011459350586 119.870849609375 108.08828735351562 119.870849609375 C 106.824951171875 119.56397247314453 106.48522186279297 119.6647720336914 105.5235366821289 118.70382690429688 C 103.827880859375 117.00892639160156 103.81817626953125 114.12535095214844 105.85355377197266 112.68580627441406 C 106.6830825805664 112.09893035888672 107.07060241699219 112.17882537841797 108.08828735351562 112.02874755859375 C 108.08828735351562 112.02874755859375 108.08828735351562 112.02874755859375 108.08828735351562 112.02874755859375" stroke-width="0.0" fill="rgb(189, 209, 246)" opacity="1.0"/>
    <path d="M 72.304931640625 70.6133804321289 C 72.304931640625 70.6133804321289 72.304931640625 70.6133804321289 72.304931640625 70.6133804321289 C 73.80420684814453 70.6133804321289 75.302734375 70.6133804321289 76.80126953125 70.6133804321289 C 77.73683166503906 70.6133804321289 78.82022094726562 70.43641662597656 79.55792236328125 71.17636108398438 C 80.24334716796875 71.86328125 80.11790466308594 72.79510498046875 80.11790466308594 73.67539978027344 C 80.11790466308594 75.58908081054688 81.15426635742188 80.37065124511719 78.20199584960938 80.5722427368164 C 76.72137451171875 80.67304229736328 75.18999481201172 80.5722427368164 73.70564270019531 80.5722427368164 C 72.77233123779297 80.5722427368164 71.68669128417969 80.74919891357422 70.94900512695312 80.01225280761719 C 70.03211212158203 79.09536743164062 70.38751983642578 77.39224243164062 70.38751983642578 76.24762725830078 C 70.38751983642578 74.1510238647461 69.6333999633789 71.14425659179688 72.304931640625 70.6133804321289 C 72.304931640625 70.6133804321289 72.304931640625 70.6133804321289 72.304931640625 70.6133804321289" stroke-width="0.0" fill="rgb(29, 97, 225)" opacity="1.0"/>
    <path d="M 72.304931640625 91.52938079833984 C 72.304931640625 91.52938079833984 72.304931640625 91.52938079833984 72.304931640625 91.52938079833984 C 73.80420684814453 91.52938079833984 75.302734375 91.52938079833984 76.80126953125 91.52938079833984 C 77.73309326171875 91.52938079833984 78.82171630859375 91.3516845703125 79.55792236328125 92.08937072753906 C 80.24334716796875 92.77554321289062 80.11790466308594 93.70960998535156 80.11790466308594 94.58917236328125 C 80.11790466308594 96.5013427734375 81.15351867675781 101.28589630126953 78.20199584960938 101.48749542236328 C 76.72137451171875 101.58904266357422 75.18999481201172 101.48749542236328 73.70564270019531 101.48749542236328 C 72.76934814453125 101.48749542236328 71.68818664550781 101.6644515991211 70.94900512695312 100.9252700805664 C 70.03285217285156 100.00762939453125 70.38751983642578 98.3060073852539 70.38751983642578 97.16139221191406 C 70.38751983642578 95.06328582763672 69.6333999633789 92.06025695800781 72.304931640625 91.52938079833984 C 72.304931640625 91.52938079833984 72.304931640625 91.52938079833984 72.304931640625 91.52938079833984" stroke-width="0.0" fill="rgb(29, 97, 225)" opacity="1.0"/>
    <path d="M 72.304931640625 131.13784790039062 C 72.304931640625 131.13784790039062 72.304931640625 131.13784790039062 72.304931640625 131.13784790039062 C 73.80420684814453 131.13784790039062 75.302734375 131.13784790039062 76.80126953125 131.13784790039062 C 77.73683166503906 131.13784790039062 78.82096862792969 130.96014404296875 79.55792236328125 131.7000732421875 C 80.24334716796875 132.38775634765625 80.11790466308594 133.319580078125 80.11790466308594 134.1998748779297 C 80.11790466308594 136.11354064941406 81.15426635742188 140.89511108398438 78.20199584960938 141.09596252441406 C 76.72137451171875 141.19677734375 75.18999481201172 141.09596252441406 73.70564270019531 141.09596252441406 C 72.7715835571289 141.09596252441406 71.68669128417969 141.27366638183594 70.94900512695312 140.53598022460938 C 70.03211212158203 139.61984252929688 70.38751983642578 137.91671752929688 70.38751983642578 136.7720947265625 C 70.38751983642578 134.67474365234375 69.6333999633789 131.66946411132812 72.304931640625 131.13784790039062 C 72.304931640625 131.13784790039062 72.304931640625 131.13784790039062 72.304931640625 131.13784790039062" stroke-width="0.0" fill="rgb(29, 97, 225)" opacity="1.0"/>
    <path d="M 91.15194702148438 110.9737319946289 C 93.11714172363281 110.9737319946289 95.08308410644531 110.9737319946289 97.04901885986328 110.9737319946289 C 98.24888610839844 111.2134017944336 98.72749328613281 111.68827819824219 98.96642303466797 112.8888931274414 C 98.96642303466797 114.93024444580078 98.96642303466797 116.97159576416016 98.96642303466797 119.0136947631836 C 98.72674560546875 120.21505737304688 98.25112915039062 120.69291687011719 97.04901885986328 120.93184661865234 C 95.08308410644531 120.93184661865234 93.11714172363281 120.93184661865234 91.15194702148438 120.93184661865234 C 89.94834899902344 120.69142150878906 89.47496795654297 120.21730041503906 89.23603820800781 119.0136947631836 C 89.23603820800781 116.97159576416016 89.23603820800781 114.93024444580078 89.23603820800781 112.8888931274414 C 89.47496795654297 111.68827819824219 89.9505844116211 111.21266174316406 91.15194702148438 110.9737319946289 C 91.15194702148438 110.9737319946289 91.15194702148438 110.9737319946289 91.15194702148438 110.9737319946289" stroke-width="0.0" fill="rgb(189, 209, 246)" opacity="1.0"/>
  </g>
</svg>
