<?xml version="1.0" ?>
<svg xmlns="http://www.w3.org/2000/svg" version="1.1" width="224" height="224">
  <defs/>
  <g>
    <path d="M 42.46873474121094 47.35257339477539 C 42.46873474121094 47.35257339477539 42.46873474121094 47.35257339477539 42.46873474121094 47.35257339477539 C 78.41226196289062 47.12764358520508 114.35729217529297 47.07423400878906 150.30157470703125 47.198360443115234 C 158.7881317138672 47.22845458984375 167.27467346191406 47.2675666809082 175.76199340820312 47.31646728515625 C 181.20101928710938 47.34806442260742 186.3331298828125 47.0825080871582 190.66552734375 50.950767517089844 C 195.5328369140625 55.29672622680664 195.4049530029297 60.93136215209961 195.4215087890625 66.94664764404297 C 195.43353271484375 71.40771484375 195.42901611328125 75.8687744140625 195.41322326660156 80.3305892944336 C 195.39968872070312 84.3470458984375 195.5388641357422 88.13180541992188 193.3248748779297 91.67432403564453 C 192.02267456054688 93.75666046142578 190.19610595703125 95.49519348144531 188.10098266601562 96.76656341552734 C 186.84542846679688 97.52862548828125 185.5492401123047 98.10186767578125 184.40501403808594 99.04298400878906 C 181.012939453125 101.8354721069336 179.12545776367188 106.1791763305664 178.72525024414062 110.49203491210938 C 178.21444702148438 115.99652099609375 180.18316650390625 121.76355743408203 184.75332641601562 125.09468078613281 C 187.97311401367188 127.4410629272461 191.31626892089844 128.4814910888672 193.45352172851562 132.12782287597656 C 196.0 136.4715118408203 195.4109649658203 141.5840606689453 195.4124755859375 146.41299438476562 C 195.4139862060547 149.8584747314453 195.40721130371094 153.30470275878906 195.4027099609375 156.75018310546875 C 195.39892578125 159.6126251220703 195.7066192626953 162.67066955566406 195.0701904296875 165.48196411132812 C 194.12982177734375 169.63534545898438 191.20944213867188 173.2538604736328 187.38406372070312 175.10824584960938 C 186.07958984375 175.7401580810547 184.67733764648438 176.168212890625 183.23971557617188 176.35552978515625 C 178.86741638183594 176.92576599121094 174.19195556640625 176.51124572753906 169.78506469726562 176.53005981445312 C 161.8070526123047 176.56466674804688 153.8290557861328 176.58346557617188 145.85104370117188 176.59249877929688 C 120.91873931884766 176.61883544921875 95.98719787597656 176.54058837890625 71.05564880371094 176.4962158203125 C 63.575653076171875 176.482666015625 56.09641647338867 176.47213745117188 48.6171760559082 176.4683837890625 C 42.61994171142578 176.46536254882812 37.01991271972656 176.67149353027344 32.59271240234375 171.91552734375 C 28.937347412109375 167.99009704589844 28.819236755371094 163.42071533203125 28.801185607910156 158.36007690429688 C 28.78387451171875 153.4032440185547 28.787643432617188 148.44642639160156 28.80493927001953 143.48960876464844 C 28.81848907470703 139.47088623046875 28.681564331054688 135.68838500976562 30.897056579589844 132.14512634277344 C 32.198509216308594 130.0627899169922 34.024314880371094 128.32350158691406 36.11943054199219 127.0513916015625 C 37.37425231933594 126.29006958007812 38.66968536376953 125.71757507324219 39.81391143798828 124.7764663696289 C 43.20673370361328 121.98472595214844 45.094215393066406 117.64026641845703 45.49443054199219 113.32740783691406 C 46.004486083984375 107.82292175292969 44.034996032714844 102.05589294433594 39.46485137939453 98.72476196289062 C 36.27064514160156 96.39643096923828 32.95155334472656 95.3673095703125 30.807533264160156 91.76535034179688 C 27.99999237060547 87.04927062988281 28.805694580078125 81.1851806640625 28.807952880859375 75.92970275878906 C 28.80870819091797 72.48423767089844 28.81622314453125 69.03875732421875 28.819992065429688 65.592529296875 C 28.822998046875 63.19424057006836 28.61461639404297 60.69739532470703 29.154762268066406 58.34123611450195 C 30.10790252685547 54.18710708618164 33.05236053466797 50.570858001708984 36.87548065185547 48.71270751953125 C 38.672698974609375 47.83855438232422 40.49473571777344 47.50153350830078 42.46873474121094 47.35257339477539 C 42.46873474121094 47.35257339477539 42.46873474121094 47.35257339477539 42.46873474121094 47.35257339477539" stroke-width="0.0" fill="rgb(29, 97, 225)" opacity="1.0"/>
    <path d="M 42.65680694580078 55.2508430480957 C 42.65680694580078 55.2508430480957 42.65680694580078 55.2508430480957 42.65680694580078 55.2508430480957 C 41.4937744140625 55.394527435302734 41.204139709472656 55.33133316040039 40.135894775390625 55.85567855834961 C 36.756614685058594 57.51372146606445 36.72276306152344 60.77939987182617 36.70245361328125 64.05561065673828 C 36.68666076660156 66.5216064453125 36.67236328125 68.98684692382812 36.664833068847656 71.45209503173828 C 36.655059814453125 74.90584564208984 36.657318115234375 78.35884094238281 36.68816375732422 81.81184387207031 C 36.7047119140625 83.68504333496094 36.500091552734375 85.65904235839844 37.41938781738281 87.37425231933594 C 38.945777893066406 90.22542572021484 42.728271484375 91.12816619873047 45.09346008300781 93.16610717773438 C 50.359474182128906 97.70165252685547 53.15948486328125 104.70243835449219 53.34530258178711 111.56705474853516 C 53.53337478637695 118.52947998046875 50.94099426269531 125.76873779296875 45.489166259765625 130.2967529296875 C 42.9501953125 132.40541076660156 38.75770568847656 133.54360961914062 37.29225158691406 136.6641082763672 C 36.502342224121094 138.34622192382812 36.71599578857422 140.25326538085938 36.709228515625 142.05349731445312 C 36.694175720214844 145.99020385742188 36.68590545654297 149.9269256591797 36.689666748046875 153.86289978027344 C 36.691925048828125 155.83163452148438 36.696441650390625 157.79962158203125 36.70545959472656 159.76834106445312 C 36.717498779296875 162.56309509277344 36.57982635498047 165.24951171875 38.954803466796875 167.20321655273438 C 41.776634216308594 169.52401733398438 46.64543533325195 168.5941925048828 50.043514251708984 168.61373901367188 C 58.518028259277344 168.66189575195312 66.99253845214844 168.6995086669922 75.46705627441406 168.72808837890625 C 98.89704132080078 168.80633544921875 122.3270263671875 168.81008911132812 145.7570037841797 168.7378692626953 C 153.73350524902344 168.71304321289062 161.70925903320312 168.67994689941406 169.6850128173828 168.63856506347656 C 173.64804077148438 168.61749267578125 177.69610595703125 168.83267211914062 181.64938354492188 168.568603515625 C 189.09552001953125 168.07135009765625 187.52398681640625 158.99725341796875 187.54354858398438 153.8470916748047 C 187.55935668945312 149.90060424804688 187.56085205078125 145.9541015625 187.5262451171875 142.00759887695312 C 187.51043701171875 140.1336669921875 187.71507263183594 138.15890502929688 186.7957763671875 136.44293212890625 C 185.27239990234375 133.59854125976562 181.50042724609375 132.69729614257812 179.13674926757812 130.66989135742188 C 173.88954162597656 126.16969299316406 171.064697265625 119.23210906982422 170.8442840576172 112.40209197998047 C 170.61859130859375 105.41033935546875 173.21096801757812 98.3268051147461 178.5273895263672 93.65284729003906 C 181.05056762695312 91.43434143066406 185.3461151123047 90.35707092285156 186.87628173828125 87.24787139892578 C 187.7158203125 85.54167938232422 187.49916076660156 83.60379028320312 187.5059356689453 81.76670837402344 C 187.52098083496094 77.82998657226562 187.52926635742188 73.89326477050781 187.52549743652344 69.95655059814453 C 187.52322387695312 67.9878158569336 187.5187225341797 66.01982879638672 187.50970458984375 64.05109405517578 C 187.49765014648438 61.25709915161133 187.63531494140625 58.56993103027344 185.26036071777344 56.616241455078125 C 182.43927001953125 54.29618835449219 177.573486328125 55.22526168823242 174.17691040039062 55.20795822143555 C 165.20965576171875 55.16282272338867 156.2423858642578 55.13799285888672 147.27511596679688 55.126708984375 C 112.402099609375 55.08383560180664 77.52983093261719 55.24858093261719 42.65680694580078 55.2508430480957 C 42.65680694580078 55.2508430480957 42.65680694580078 55.2508430480957 42.65680694580078 55.2508430480957" stroke-width="0.0" fill="rgb(254, 254, 254)" opacity="1.0"/>
    <path d="M 112.45626068115234 67.46647644042969 C 112.45777130126953 67.46723175048828 112.45927429199219 67.46798706054688 112.46153259277344 67.469482421875 C 114.18351745605469 67.93966674804688 115.0185546875 68.61070251464844 115.86337280273438 70.1829833984375 C 118.79203033447266 79.19914245605469 121.721435546875 88.2153091430664 124.65083312988281 97.2314682006836 C 134.13040161132812 97.2314682006836 143.61073303222656 97.2314682006836 153.091064453125 97.2314682006836 C 155.513427734375 97.70165252685547 157.61605834960938 99.48983764648438 156.86077880859375 102.18754577636719 C 156.5372772216797 103.34230041503906 156.1927490234375 103.51683044433594 155.41111755371094 104.37444305419922 C 147.74154663085938 109.94738006591797 140.0719757080078 115.52032470703125 132.40240478515625 121.09326934814453 C 135.3310546875 130.1094207763672 138.26046752929688 139.12484741210938 141.1898651123047 148.14100646972656 C 141.26284790039062 148.9339141845703 141.3681640625 149.61172485351562 141.12066650390625 150.43923950195312 C 140.2337188720703 153.4122772216797 137.54653930664062 153.61764526367188 135.11288452148438 152.5584259033203 C 127.44257354736328 146.98548889160156 119.77301025390625 141.41329956054688 112.10344696044922 135.84036254882812 C 104.4331283569336 141.41329956054688 96.7635498046875 146.98548889160156 89.09323120117188 152.5584259033203 C 85.48602294921875 154.43763732910156 82.613037109375 151.88739013671875 83.01626586914062 148.14100646972656 C 85.94566345214844 139.12484741210938 88.87506866455078 130.1094207763672 91.80448150634766 121.09326934814453 C 84.1349105834961 115.52032470703125 76.46459197998047 109.94738006591797 68.79502868652344 104.37444305419922 C 66.26132202148438 101.62407684326172 67.12118530273438 97.5948257446289 71.11808776855469 97.22846221923828 C 80.59840393066406 97.22846221923828 90.0787353515625 97.22846221923828 99.55830383300781 97.22846221923828 C 102.48770904541016 88.2123031616211 105.4171142578125 79.19613647460938 108.34727478027344 70.18072509765625 C 109.42680358886719 68.4918441772461 110.5206298828125 67.88775634765625 112.45626068115234 67.46647644042969 C 112.45626068115234 67.46647644042969 112.45626068115234 67.46647644042969 112.45626068115234 67.46647644042969" stroke-width="0.0" fill="rgb(29, 97, 225)" opacity="1.0"/>
    <path d="M 112.10645294189453 71.4024429321289 C 115.33151245117188 81.328125 118.55656433105469 91.25304412841797 121.7816162109375 101.17872619628906 C 132.2180938720703 101.17872619628906 142.65457153320312 101.17872619628906 153.091064453125 101.17872619628906 C 144.6473846435547 107.3136215209961 136.2044677734375 113.44852447509766 127.76155090332031 119.58342742919922 C 130.98585510253906 129.5091094970703 134.21090698242188 139.43402099609375 137.4359588623047 149.35971069335938 C 128.9930419921875 143.22555541992188 120.54936981201172 137.09066772460938 112.10645294189453 130.95574951171875 C 103.66278076171875 137.09066772460938 95.21986389160156 143.22555541992188 86.77619171142578 149.35971069335938 C 90.0012435913086 139.43402099609375 93.22630310058594 129.5091094970703 96.45060729980469 119.58342742919922 C 88.00768280029297 113.44852447509766 79.56476593017578 107.3136215209961 71.12109375 101.17872619628906 C 81.5583267211914 101.17872619628906 91.99480438232422 101.17872619628906 102.43128967285156 101.17872619628906 C 105.65634155273438 91.25304412841797 108.88139343261719 81.328125 112.10645294189453 71.4024429321289" stroke-width="0.0" fill="rgb(29, 97, 224)" opacity="1.0"/>
    <path d="M 112.10344696044922 84.18154907226562 C 112.10344696044922 84.18154907226562 112.10344696044922 84.18154907226562 112.10344696044922 84.18154907226562 C 110.5853271484375 88.8532485961914 109.06721496582031 93.52420043945312 107.54985046386719 98.19590759277344 C 106.52222442626953 101.36152648925781 106.13329315185547 104.41656494140625 102.43128967285156 105.12973022460938 C 96.0458755493164 105.12973022460938 89.66046142578125 105.12973022460938 83.2750473022461 105.12973022460938 C 88.44024658203125 108.88214111328125 93.606201171875 112.63529968261719 98.77140808105469 116.38771057128906 C 99.96453857421875 117.79975891113281 100.25040435791016 118.97257232666016 100.20526885986328 120.80213165283203 C 98.23201751708984 126.8753433227539 96.259521484375 132.94781494140625 94.28627014160156 139.02102661132812 C 99.45147705078125 135.26861572265625 104.617431640625 131.51620483398438 109.78339385986328 127.76304626464844 C 111.49559020996094 127.06341552734375 112.70000457763672 127.15520477294922 114.42650604248047 127.76304626464844 C 119.59246063232422 131.51620483398438 124.75765991210938 135.26861572265625 129.92288208007812 139.02102661132812 C 127.95037078857422 132.94781494140625 125.97711944580078 126.8753433227539 124.00462341308594 120.80213165283203 C 123.86771392822266 118.95752716064453 124.3250961303711 117.84113311767578 125.43773651123047 116.38771057128906 C 130.60369873046875 112.63529968261719 135.76889038085938 108.88214111328125 140.93484497070312 105.12973022460938 C 134.5494384765625 105.12973022460938 128.1640167236328 105.12973022460938 121.77861022949219 105.12973022460938 C 119.98214721679688 104.68889617919922 119.06059265136719 103.90802001953125 118.02168273925781 102.40043640136719 C 116.04918670654297 96.3279800415039 114.07593536376953 90.2547607421875 112.10344696044922 84.18154907226562" stroke-width="0.0" fill="rgb(189, 208, 245)" opacity="1.0"/>
  </g>
</svg>
