<?xml version="1.0" ?>
<svg xmlns="http://www.w3.org/2000/svg" version="1.1" width="224" height="224">
  <defs/>
  <g>
    <path d="M 181.01092529296875 45.738616943359375 C 181.01092529296875 45.738616943359375 181.01092529296875 45.738616943359375 181.01092529296875 45.738616943359375 C 182.9029541015625 45.889442443847656 184.65383911132812 46.2209587097168 186.38235473632812 47.04376983642578 C 187.63522338867188 47.64034652709961 188.79852294921875 48.42433166503906 189.8289031982422 49.35391616821289 C 196.0 54.92021942138672 194.514892578125 63.72549819946289 194.54177856445312 71.20995330810547 C 194.63510131835938 98.05288696289062 194.48654174804688 124.89656829833984 194.47607421875 151.739501953125 C 194.47607421875 151.739501953125 194.47607421875 151.739501953125 194.47607421875 151.739501953125 C 194.07362365722656 158.80807495117188 189.08450317382812 164.69468688964844 181.8232879638672 165.36219787597656 C 179.40113830566406 165.58470153808594 176.95286560058594 165.03590393066406 174.56057739257812 164.72381591796875 C 170.63543701171875 164.21160888671875 166.70355224609375 163.74493408203125 162.76719665527344 163.32383728027344 C 150.92901611328125 162.05825805664062 139.05123901367188 161.22349548339844 127.1533203125 160.7822265625 C 127.1533203125 162.07168579101562 127.1533203125 163.36117553710938 127.1533203125 164.650634765625 C 137.6206512451172 166.1043701171875 147.83636474609375 168.6661376953125 157.81838989257812 172.1216583251953 C 157.81838989257812 172.1216583251953 157.81838989257812 172.1216583251953 157.81838989257812 172.1216583251953 C 159.24000549316406 172.8444061279297 160.5645751953125 173.9009246826172 160.79454040527344 175.60552978515625 C 161.13052368164062 178.09487915039062 158.5642852783203 180.0078125 156.30491638183594 179.82711791992188 C 155.28646850585938 179.7457275390625 154.03060913085938 179.09912109375 153.0883331298828 178.78402709960938 C 151.22543334960938 178.16058349609375 149.34909057617188 177.574462890625 147.46229553222656 177.02642822265625 C 141.7996826171875 175.38377380371094 136.03550720214844 174.0868377685547 130.21087646484375 173.17144775390625 C 109.06788635253906 169.84735107421875 87.42464447021484 171.78341674804688 67.45390319824219 179.59042358398438 C 67.45390319824219 179.59042358398438 67.45390319824219 179.59042358398438 67.45390319824219 179.59042358398438 C 66.24209594726562 179.7942657470703 65.00563049316406 179.89207458496094 63.87743377685547 179.24322509765625 C 60.78704071044922 177.46844482421875 62.39309310913086 173.4394989013672 64.8884048461914 172.1716766357422 C 67.49348449707031 170.84860229492188 70.5584945678711 170.04222106933594 73.33828735351562 169.1656494140625 C 79.965576171875 167.07501220703125 86.74444580078125 165.59291076660156 93.62037658691406 164.6095733642578 C 93.62037658691406 163.34249877929688 93.62037658691406 162.075439453125 93.62037658691406 160.808349609375 C 76.95059204101562 161.35939025878906 60.36070251464844 162.8616485595703 43.855926513671875 165.25692749023438 C 43.855926513671875 165.25692749023438 43.855926513671875 165.25692749023438 43.855926513671875 165.25692749023438 C 37.07556915283203 165.67056274414062 30.54608917236328 161.5856170654297 28.830276489257812 154.78286743164062 C 28.0 151.4871368408203 28.405426025390625 147.77850341796875 28.389755249023438 144.40513610839844 C 28.274765014648438 119.19587707519531 28.4293212890625 93.98661804199219 28.43529510498047 68.776611328125 C 28.43529510498047 65.68023681640625 28.43529510498047 62.5831184387207 28.43529510498047 59.48674774169922 C 28.52489471435547 57.88069534301758 28.744415283203125 56.273895263671875 29.282752990722656 54.749229431152344 C 29.771804809570312 53.362693786621094 30.56475067138672 52.05978012084961 31.499557495117188 50.93159484863281 C 37.25177764892578 43.99219512939453 45.89130401611328 46.1238899230957 53.71548080444336 46.76675796508789 C 56.67298126220703 47.010169982910156 59.632713317871094 47.234161376953125 62.593196868896484 47.44023895263672 C 101.57298278808594 50.14536666870117 140.67745971679688 49.485321044921875 179.56765747070312 45.787899017333984 C 179.56765747070312 45.787899017333984 179.56765747070312 45.787899017333984 179.56765747070312 45.787899017333984 C 180.0492401123047 45.77146911621094 180.53009033203125 45.75504684448242 181.01092529296875 45.738616943359375 C 181.01092529296875 45.738616943359375 181.01092529296875 45.738616943359375 181.01092529296875 45.738616943359375" stroke-width="0.0" fill="rgb(29, 97, 225)" opacity="1.0"/>
    <path d="M 180.71376037597656 53.58071517944336 C 180.71450805664062 53.58071517944336 180.7152557373047 53.58071517944336 180.7167510986328 53.58071517944336 C 176.29656982421875 53.72183609008789 171.9256591796875 54.36918258666992 167.5226287841797 54.74026870727539 C 160.10015869140625 55.365970611572266 152.65899658203125 55.82292175292969 145.21934509277344 56.18952560424805 C 121.35481262207031 57.36625289916992 97.4290542602539 57.34235763549805 73.57049560546875 56.04915237426758 C 65.1265869140625 55.591453552246094 56.661033630371094 55.06431579589844 48.24848937988281 54.19222640991211 C 44.59138488769531 53.81367492675781 40.176422119140625 52.48612594604492 37.525054931640625 55.93716049194336 C 36.0504150390625 57.85680389404297 36.26918029785156 60.124393463134766 36.25499725341797 62.403175354003906 C 36.23334503173828 65.87734985351562 36.21392822265625 69.35153198242188 36.197509765625 72.82496643066406 C 36.13030242919922 86.71943664550781 36.10417938232422 100.6131591796875 36.119850158691406 114.50762939453125 C 36.13105010986328 123.93563079833984 36.16166687011719 133.36361694335938 36.21318054199219 142.79161071777344 C 36.22662353515625 145.27273559570312 36.24156188964844 147.75460815429688 36.25798034667969 150.23574829101562 C 36.26768493652344 151.70889282226562 36.26246643066406 153.04241943359375 37.00239562988281 154.37220764160156 C 38.95191192626953 157.8769989013672 42.39994812011719 157.53875732421875 45.802452087402344 157.09449768066406 C 52.64552688598633 156.20225524902344 59.49458312988281 155.35256958007812 66.36080932617188 154.65966796875 C 95.46908569335938 151.7208251953125 124.92083740234375 151.89779663085938 154.0447998046875 154.52825927734375 C 161.97276306152344 155.24429321289062 169.84173583984375 156.3336639404297 177.74656677246094 157.234130859375 C 180.57412719726562 157.5566864013672 184.33578491210938 157.34912109375 185.93063354492188 154.54319763183594 C 187.10287475585938 152.481689453125 186.6459197998047 149.61676025390625 186.66009521484375 147.3439483642578 C 186.68997192382812 142.37945556640625 186.71536254882812 137.4149627685547 186.73477172851562 132.45120239257812 C 186.80868530273438 113.56461334228516 186.80718994140625 94.67800903320312 186.72805786132812 75.79216003417969 C 186.7116241455078 71.81399536132812 186.69146728515625 67.8350830078125 186.66831970214844 63.85690689086914 C 186.65711975097656 61.959659576416016 186.94607543945312 59.759273529052734 186.4129638671875 57.9150390625 C 185.68646240234375 55.40703201293945 183.31883239746094 53.6053581237793 180.71376037597656 53.58071517944336 C 180.71376037597656 53.58071517944336 180.71376037597656 53.58071517944336 180.71376037597656 53.58071517944336" stroke-width="0.0" fill="rgb(254, 254, 254)" opacity="1.0"/>
    <path d="M 50.923004150390625 58.145755767822266 C 50.923004150390625 58.145755767822266 50.923004150390625 58.145755767822266 50.923004150390625 58.145755767822266 C 54.98554229736328 58.243568420410156 59.03538513183594 58.58702850341797 63.09270477294922 58.795345306396484 C 63.09270477294922 58.795345306396484 63.09270477294922 58.795345306396484 63.09270477294922 58.795345306396484 C 64.23135375976562 59.18360137939453 65.54397583007812 59.75106430053711 66.221923828125 60.8232536315918 C 67.54798889160156 62.92284393310547 66.4085922241211 65.62199401855469 64.13876342773438 66.41494750976562 C 62.85750961303711 66.86293029785156 61.28655242919922 66.61579132080078 59.96796417236328 66.55680847167969 C 57.49056625366211 66.44705200195312 55.01913833618164 66.22977447509766 52.54398727416992 66.07447052001953 C 50.53324890136719 65.94828796386719 48.902557373046875 65.87063598632812 47.35101318359375 67.278076171875 C 47.35101318359375 67.278076171875 47.35101318359375 67.278076171875 47.35101318359375 67.278076171875 C 47.35026550292969 69.86821746826172 47.34877014160156 72.45761108398438 47.34803009033203 75.04700469970703 C 47.34803009033203 75.04700469970703 47.34803009033203 75.04700469970703 47.34803009033203 75.04700469970703 C 46.84925842285156 76.49252319335938 45.96746063232422 78.31584930419922 44.35021209716797 78.7944564819336 C 41.588340759277344 79.61054992675781 39.95466613769531 77.371337890625 39.50965881347656 75.04700469970703 C 39.510406494140625 72.44043731689453 39.51115417480469 69.83312225341797 39.51190185546875 67.2258071899414 C 40.154022216796875 61.336952209472656 45.43360900878906 58.4586067199707 50.920013427734375 58.148746490478516 C 50.920013427734375 58.148746490478516 50.920013427734375 58.148746490478516 50.920013427734375 58.148746490478516 C 50.920013427734375 58.148746490478516 50.923004150390625 58.145755767822266 50.923004150390625 58.145755767822266" stroke-width="0.0" fill="rgb(189, 209, 246)" opacity="1.0"/>
    <path d="M 178.6291046142578 132.09132385253906 C 178.6291046142578 132.09132385253906 178.6291046142578 132.09132385253906 178.6291046142578 132.09132385253906 C 181.104248046875 132.09132385253906 182.27426147460938 133.80712890625 182.63490295410156 136.0120086669922 C 182.6341552734375 138.6193084716797 182.63340759277344 141.22662353515625 182.63192749023438 143.83319091796875 C 182.1114959716797 148.72601318359375 178.06837463378906 151.85897827148438 173.380126953125 152.70193481445312 C 171.48512268066406 153.0431671142578 169.59011840820312 152.8303680419922 167.68614196777344 152.7191162109375 C 164.8085479736328 152.5503692626953 161.93019104003906 152.39805603027344 159.05111694335938 152.26141357421875 C 159.05111694335938 152.26141357421875 159.05111694335938 152.26141357421875 159.05111694335938 152.26141357421875 C 158.07373046875 151.9769287109375 157.00677490234375 151.57150268554688 156.29745483398438 150.79722595214844 C 154.52638244628906 148.86488342285156 155.43356323242188 145.71475219726562 157.79598999023438 144.72470092773438 C 159.1197967529297 144.17066955566406 160.79379272460938 144.43797302246094 162.17584228515625 144.49920654296875 C 164.65399169921875 144.6089630126953 167.1254119873047 144.8247528076172 169.59982299804688 144.98004150390625 C 171.61129760742188 145.10699462890625 173.24050903320312 145.1853790283203 174.79354858398438 143.7779541015625 C 174.79354858398438 143.7779541015625 174.79354858398438 143.7779541015625 174.79354858398438 143.7779541015625 C 174.79428100585938 141.1885528564453 174.7950439453125 138.59915161132812 174.79653930664062 136.00900268554688 C 174.79653930664062 136.00900268554688 174.79653930664062 136.00900268554688 174.79653930664062 136.00900268554688 C 175.37966918945312 133.6727294921875 176.39959716796875 132.85813903808594 178.6291046142578 132.09132385253906 C 178.6291046142578 132.09132385253906 178.6291046142578 132.09132385253906 178.6291046142578 132.09132385253906" stroke-width="0.0" fill="rgb(189, 209, 246)" opacity="1.0"/>
    <path d="M 111.67744445800781 71.78189086914062 C 111.67818450927734 71.78189086914062 111.67967987060547 71.78189086914062 111.68042755126953 71.78189086914062 C 116.67852020263672 71.9468994140625 121.4966812133789 73.0153579711914 126.01766967773438 75.1888656616211 C 130.0316619873047 77.11821746826172 133.68878173828125 79.80094909667969 136.70899963378906 83.07575988769531 C 139.39395141601562 85.98845672607422 141.55328369140625 89.36557006835938 143.0316619873047 93.0428466796875 C 144.50704956054688 96.71263885498047 145.31715393066406 100.6437759399414 145.46051025390625 104.59432220458984 C 145.67630004882812 110.50930786132812 144.39877319335938 116.50717163085938 141.60629272460938 121.73897552490234 C 135.61141967773438 132.96864318847656 122.97505187988281 140.00733947753906 110.32674407958984 139.80050659179688 C 106.30452728271484 139.73480224609375 102.30843353271484 138.9306640625 98.58263397216797 137.41122436523438 C 94.95166015625 135.93136596679688 91.6073989868164 133.768310546875 88.7126235961914 131.12814331054688 C 83.64732360839844 126.50859069824219 79.9207763671875 120.3897705078125 78.30502319335938 113.7154312133789 C 74.55757141113281 98.23208618164062 82.75283813476562 81.60186767578125 97.15951538085938 74.95442199707031 C 101.71708679199219 72.85183715820312 106.6651611328125 71.80503845214844 111.67744445800781 71.78189086914062 C 111.67744445800781 71.78189086914062 111.67744445800781 71.78189086914062 111.67744445800781 71.78189086914062" stroke-width="0.0" fill="rgb(29, 97, 225)" opacity="1.0"/>
    <path d="M 141.61300659179688 105.85765075683594 C 141.61300659179688 105.85765075683594 141.61300659179688 105.85765075683594 141.61300659179688 105.85765075683594 C 141.49803161621094 110.4129867553711 140.62667846679688 114.80480194091797 138.6390838623047 118.9308090209961 C 131.51602172851562 133.71827697753906 113.191650390625 140.17160034179688 98.384765625 133.038818359375 C 95.33096313476562 131.5679168701172 92.53250122070312 129.57659912109375 90.1357421875 127.18058776855469 C 87.3932876586914 124.4373779296875 85.1839370727539 121.16853332519531 83.6734619140625 117.59504699707031 C 82.10697937011719 113.89015197753906 81.30358123779297 109.87987518310547 81.30358123779297 105.85765075683594 C 81.30358123779297 101.83543395996094 82.10697937011719 97.82515716552734 83.6734619140625 94.11951446533203 C 85.1839370727539 90.54678344726562 87.3932876586914 87.2779312133789 90.1357421875 84.53472900390625 C 92.53250122070312 82.13871765136719 95.33096313476562 80.14739227294922 98.384765625 78.67648315429688 C 113.191650390625 71.54444885253906 131.51602172851562 77.99702453613281 138.6390838623047 92.78450012207031 C 140.62667846679688 96.91050720214844 141.49803161621094 101.30157470703125 141.61300659179688 105.85765075683594 C 141.61300659179688 105.85765075683594 141.61300659179688 105.85765075683594 141.61300659179688 105.85765075683594" stroke-width="0.0" fill="rgb(29, 97, 225)" opacity="1.0"/>
    <path d="M 111.2891845703125 79.62100219726562 C 111.2891845703125 79.62100219726562 111.2891845703125 79.62100219726562 111.2891845703125 79.62100219726562 C 107.28487396240234 79.78302764892578 103.47396087646484 80.6558609008789 99.8885269165039 82.4874038696289 C 96.37328338623047 84.2831039428711 93.24481201171875 86.83964538574219 90.79055786132812 89.93228912353516 C 88.94931030273438 92.25213623046875 87.48736572265625 94.87737274169922 86.53836822509766 97.68478393554688 C 83.24787139892578 107.4196548461914 86.45250701904297 118.88078308105469 94.19903564453125 125.59991455078125 C 99.30091857910156 130.0245819091797 106.1544418334961 132.2891845703125 112.88253784179688 131.98977661132812 C 128.2120819091797 131.30809020996094 140.04579162597656 116.130859375 137.2548065185547 101.04771423339844 C 135.7136993408203 92.72029113769531 129.7121124267578 85.5703353881836 122.09922790527344 82.02821350097656 C 118.7004623413086 80.4468002319336 115.03439331054688 79.6374282836914 111.2891845703125 79.62100219726562 C 111.2891845703125 79.62100219726562 111.2891845703125 79.62100219726562 111.2891845703125 79.62100219726562" stroke-width="0.0" fill="rgb(188, 208, 245)" opacity="1.0"/>
    <path d="M 101.62599182128906 89.63735961914062 C 101.62599182128906 89.63735961914062 101.62599182128906 89.63735961914062 101.62599182128906 89.63735961914062 C 102.26213836669922 89.65676879882812 102.76762390136719 89.83596801757812 103.35673522949219 90.05175018310547 C 112.11796569824219 94.43236541748047 120.87919616699219 98.81298065185547 129.6404266357422 103.1928482055664 C 131.8818817138672 105.01094818115234 132.74351501464844 108.57472229003906 129.6404266357422 110.20467376708984 C 120.87919616699219 114.58454132080078 112.11796569824219 118.96514892578125 103.35673522949219 123.34577178955078 C 102.84004974365234 123.51004028320312 102.3435287475586 123.76016235351562 101.80668640136719 123.83856201171875 C 99.40992736816406 124.19247436523438 98.02488708496094 121.76361083984375 97.68441009521484 119.84172821044922 C 97.68441009521484 111.08049774169922 97.68441009521484 102.32000732421875 97.68441009521484 93.55877685546875 C 98.06147003173828 91.10079956054688 99.19115447998047 90.03681945800781 101.62599182128906 89.63735961914062 C 101.62599182128906 89.63735961914062 101.62599182128906 89.63735961914062 101.62599182128906 89.63735961914062" stroke-width="0.0" fill="rgb(29, 97, 225)" opacity="1.0"/>
  </g>
</svg>
