<?xml version="1.0" encoding="UTF-8"?>
<svg xmlns="http://www.w3.org/2000/svg" version="1.1" viewBox="0 0 224 224">
  <defs>
    <style>
      .cls-1 {
        fill: #5d8ee9;
      }

      .cls-2 {
        fill: #b5cbf4;
        opacity: 1;
      }

      .cls-2, .cls-3, .cls-4, .cls-5, .cls-6 {
        isolation: isolate;
      }

      .cls-3 {
        fill: #fcfdfc;
        opacity: 1;
      }

      .cls-4 {
        fill: #f6f8f8;
        opacity: 1;
      }

      .cls-5 {
        fill: #fbfcfc;
        opacity: 1;
      }

      .cls-6 {
        fill: #fbfcfb;
        opacity: 1;
      }

      .cls-7 {
        fill: #bcd0f5;
      }

      .cls-8 {
        fill: #1d61e1;
      }
    </style>
  </defs>
  <!-- Generator: Adobe Illustrator 28.6.0, SVG Export Plug-In . SVG Version: 1.2.0 Build 709)  -->
  <g>
    <g id="_图层_1" data-name="图层_1">
      <g>
        <path class="cls-8" d="M40.3,195.1c-4.2-1.4-7.9-4.4-10-8.8l-2.3-5.6v-52.9c.4-37.8,0-55,.9-56.6,1-6.3,8.7-12.4,15.7-15.1,2.4-1.7,21.7-1.9,70.4-1,74.1-.4,68.4-.8,73.9,8.2,7,6.8,6,3.4,6,62.7v54c-.1,0-1.6,5.6-1.6,5.6-1.3,1.8-3.9,4.7-6,6.5l-6.3,3-68,.2c-39.4-.3-72,.2-72.8-.2"/>
        <path class="cls-7" d="M112.4,57.4c-20.1-.1-40.2-.5-60.3-.2s-7.2,0-10.7.6-1.6.3-2.3.5c-2.3.7-3.8,2-4.6-1.1s.7-6,1.2-8.8c1.3-2.9,5.5-7.7,9.3-9.7,3.4-1.5,6.1-1.5,66.4-1.9,69.8,0,64.8-.3,71,6.2,2.5,2.6,5.2,8.4,4.7,12s-6.8,2.5-10.1,2.5c-9,0-18,0-26.9,0s-25,0-37.5,0Z"/>
        <path class="cls-5" d="M42.6,186.3c-2.2-.2-4-2-5.2-4.8-1.8-.3-1.2-2.2-1.3-54.7.1-51.1-.9-53.9,1.7-55.2,1.1-3.1,3.6-3.6,7.6-6,.5,0,134,.1,133-.2,4,2,5.8,3.4,7.1,7.2,2,.8,1.1,4.7,1.4,49-.5,54.4,1.2,59.3-2.9,62.1-2.5,3.2-3.3,3.3-15.2,3.4-8.9.3-14.5,0-15.1-.1,0-1.9,0-54.5-.1-57.4,3.8-2.1,3.5-5.4.6-8.1s-2.3-2.1-4.1-2.4c-3.7-.5-7.8,1.3-11.5,1.7-1.3.1-2.5.3-3.8,0s-2-1.3-2.8-1.4c-4-.5-4.1,0-8,0-3.8,3-21,2.7-27.4-.6-2.9-1.5-3.4-.9-6.4,1.6-2.8,1-12.2,1.3-14-.7-2.9-2.5-6.7-2.6-7.5,2.3,0,0-1.4,1-1.6,1.2-.5.7-.7,1.5-.8,2.3-.2,2.8,2.4,3.7,2.7,6.1s0,4.3,0,6.4c-.1,7.5-.2,15.1,0,22.6l-.2,26.3h-12.4c-7.2,0-13.6,0-13.8-.8"/>
        <path class="cls-6" d="M77.7,159.2v-29.7c-.1,0,12.3.1,12.3.1v57.3s-12.2.2-12.2.2v-28"/>
        <path class="cls-3" d="M132.7,158.8v-29c0,0,12.7,0,12.7,0v57.4s-12.6-.2-12.6-.2v-28.2"/>
        <path class="cls-4" d="M105.6,165c-2.7-.6-5.6-1.6-5.9-1.5-1-.9-.6-8.4-.9-17.1v-16.8c0,0,24.7,0,24.7,0v33.3c0,0-2.1,1.3-2.1,1.3-3.8,2.4-9.9,2.7-15.9.9"/>
        <path class="cls-8" d="M186.8,55.3c.3-2.4-.9-5.9-1.9-7.8-1.5-4-6.6-8.6-10.2-9.7-.5-1.3-26.8-.5-62.7-.8-58.2.3-61.4-.5-64.7,1.4-7,3.3-11.8,10.3-11.3,17.4v4.7c-.1,0-3.8-1.2-3.8-1.2h-3.5c0,0-.6-5.9-.6-5.9.5-9.9,6.5-18.2,16.6-22.6l6.1-2.2h121.8s7,2.5,7,2.5c9,5,14.6,12.2,15.2,22.2,0,6.1-.2,7.4-2.6,6.3-.4-.3-2.2-.3-3.1.6-1.4-.1-2.2-1-2.4-4.7"/>
        <path class="cls-8" d="M45.9,50.4c-1.5-1.8-1.3-3.8,0-6.4,1-.9,16.4-.7,65.4-.7,69.6.2,66.8-1.2,66.5,4.3l-1.3,3.5h-64.6c-49.9-.1-65.3.3-66-.7"/>
        <path class="cls-8" d="M61.6,115.2c-4-3.3-4-13.6,0-17.2.6-1,6.9-4.7,13.9-8.5,27.2-14.5,32.8-18,36.3-18,3.1-.3,7.9,2.5,24.5,11.8,11.7,6.2,22.7,12.1,24,13.4,3.1,2.5,4.1,8,3.5,12.3-.5,4.1-2.1,6.1-4.1,7.7-1.8.7-16.1.6-49.3,2.9l-47.3-2.6-1.4-1.9"/>
        <path class="cls-7" d="M76.7,120.1c-1.1-.8-2.8-.8-4.7-.4-1.6-.2-2.3-.9-2.7-2.5.9-.2,19-.3,41.7,0,7.8,0,15.6-.1,23.4,0,2.7,0,5.4,0,8,.1,1.2,0,3.3-.4,4.3.4,2,1.6-1.1,2-1.6,3.3.7,1.3-11.4.6-13,.4-1.2-3-7.1-3.1-8.2.2-1.2.4-23.8.3-24.9-.3-1.8-2.8-6.8-2.9-9-.4-2.3,1.1-12.5,1.6-13.3-.7"/>
        <path class="cls-7" d="M98.7,186.9c0-.2.5-7.7.2-15.8,0-1.2-.2-16.1-.3-16.1,8.3.4,16.7,1.2,25,1.2.4,6.4.1,12.7.2,19.1v12.1c0,0-12.2-.3-12.2-.3-7.9,0-11.7.5-13-.2"/>
        <path class="cls-7" d="M67.8,106.3v-3.3c0,0,21.4-11.6,21.4-11.6,16.2-8.9,21.3-11.7,23.2-11.4,2.6.9,38.4,21,41,22.9,1,.7,1.3,2.1,1.1,3.7v2.7s-17.3.1-17.3.1h-18.6s2.6-3.6,2.6-3.6c3.1-4.6,3.5-7.5,1.7-11.9-3-4.6-6.9-6.7-12.2-6.6-9.2.8-14.4,10.4-9.7,18.1,1,1.6,1.6,3.2,2,3.6-.4.4-8.1.3-18,.3l-17-.2v-2.9"/>
        <path class="cls-2" d="M108.2,101.9c-1.2-1.7-1.2-2.7-.3-4.5,1.8-2.5,4.3-2.9,6.2-1,1.8,2.3,1.8,3.8.1,6-1.9,1.9-3.8,1.8-6-.5"/>
        <path class="cls-1" d="M102.7,171.3c-2-2.7-2-13.4,0-15.8,2.6-1.4,5.2-1.6,6.7-.4.9.3,1.2,3.7,1,8.4,0,4.3-.2,7.4-1,8.2-1.7,1.4-4.8,1.2-6.7-.3"/>
      </g>
    </g>
  </g>
</svg>