<?xml version="1.0" encoding="UTF-8"?>
<svg xmlns="http://www.w3.org/2000/svg" version="1.1" viewBox="0 0 224 224">
  <defs>
    <style>
      .cls-1 {
        fill: #5d8ee9;
      }

      .cls-2 {
        fill: #bcd0f5;
      }

      .cls-3 {
        fill: #fdfefe;
        opacity: 1;
      }

      .cls-3, .cls-4 {
        isolation: isolate;
      }

      .cls-4 {
        fill: #fcfefe;
        opacity: 1;
      }

      .cls-5 {
        fill: #1d61e1;
      }
    </style>
  </defs>
  <!-- Generator: Adobe Illustrator 28.6.0, SVG Export Plug-In . SVG Version: 1.2.0 Build 709)  -->
  <g>
    <g id="_图层_1" data-name="图层_1">
      <g>
        <path class="cls-5" d="M42.7,194.2c-1.7-.3-4.7-1.9-6.8-4.1-2.3-3.3-2.7-5.1-2.7-9.6.2-5.2.6-6.6,3.9-11l5.7-3.7-.5-19c-.2-16.9-.1-19.3,1.9-22.6,2-4.7,7.8-8.1,12.4-7.8l3-.3-.3-19.8c.1-19.1.1-20.9,2.5-23.9,3-4.4,7.6-6.5,14.4-6h5.7c0-.1-.2-11.8-.2-11.8-.2-20.9,6.3-26.5,29.3-26.1,22.1-.7,28.4,5.3,28.9,26.7l-.5,11.1h6.5c7.7,0,12.7,3.1,15.1,8.7,1.6,3.1,1.8,8,1.5,22.3l-.3,19h2.4c4.4-.2,9.9,2.8,12.4,6.7,2.2,3.1,2.3,5.1,2,23.7-.3,19.4-.2,19.7,2.5,20.6,6.6,3,9.1,12.5,5.2,19.8-3.6,8.7-1.4,7.5-75.4,7.2-36.8,0-68,.1-68.7-.3"/>
        <path class="cls-1" d="M91.9,64.9c-.4-1-.2-5.9-.3-11.9.8-13.8,1.6-14.1,18.9-14,17.7.2,18.1.2,19.1,14.4,0,5.8,0,11.2-.2,12-.3.9-7.7,1.3-18.6,1.1-15,.4-18.4,0-18.9-1.6"/>
        <path class="cls-2" d="M71.9,115.4c-2.4-1.9-2.6-2.7-2.4-11.8l-.3-9.8,83.4-1.3v11.1c0,9.1-.1,10.2-2.1,11.7-2.3,1.8-8,2-39.3,1.7-31.9,0-37.4-.2-39.4-1.7"/>
        <path class="cls-3" d="M52.1,132.5c.5-1.8.9-3.8,1.3-6.3,2,0,112.6,0,114.1-.3,1.1,3.1,1.2,4.8,1.8,6.5l.2,5.5-58.9.8-58.1-1.2-.3-5.1"/>
        <path class="cls-1" d="M43.9,183.8c-.7-1.4-1.2-2.9-.7-4.6.8-3.6,3.7-4.6,6.3-2.4,3.6,2.3,118.8,2.5,122.2-.4,2.5-2,3-2.1,5.2,0,2.4,2.5,2.2,6.8-.3,8.1-1.5.7-24.1,1.5-66,1.1-62.3.2-64.3,0-66.7-1.8"/>
        <path class="cls-2" d="M54.3,166.2c-1.8-2.8-2.2-4.7-1.5-12.8.2-10-.9-10.3,2.3-12.6,4.5,0,109,1.4,113.5,2.1,1,.2.6,2.4.9,12-.4,16.2,5.5,14.3-58.3,14.1-54.2.2-55.3.3-56.9-2.8"/>
        <path class="cls-1" d="M68.8,89.4c0-2.1.7-3.5,1.9-4.6,2.3-.4,16.4-.9,40.6-1.2,23.4-.1,38.1.2,39.6.8,1.2,1.1,2,2.6,1.9,4.7l.3,4.3h-84.2c0,.1-.1-4-.1-4"/>
        <path class="cls-1" d="M52.2,139.7c0-1.7.8-3.7,1.6-4.1.9-1.4,17.1-1.3,58.7-1h56.6c0,0,.3,4.3.3,4.3l.3,4-117.4-.4v-2.8"/>
        <path class="cls-4" d="M69.5,81.6c-.8-5.9-.4-5.8,41.6-5.3,41.1-.5,42.1-.3,41.4,5.5l.4,3.1-42.3.2h-41.7c0,0,.6-3.4.6-3.4"/>
      </g>
    </g>
  </g>
</svg>