<?xml version="1.0" encoding="UTF-8"?>
<svg xmlns="http://www.w3.org/2000/svg" version="1.1" viewBox="0 0 224 224">
  <defs>
    <style>
      .cls-1 {
        fill: #5d8ee9;
      }

      .cls-2 {
        fill: #fdfdfc;
        isolation: isolate;
      }

      .cls-3 {
        fill: #bcd0f5;
      }

      .cls-4 {
        fill: #1d61e1;
      }
    </style>
  </defs>
  <!-- Generator: Adobe Illustrator 28.6.0, SVG Export Plug-In . SVG Version: 1.2.0 Build 709)  -->
  <g>
    <g id="_图层_1" data-name="图层_1">
      <g id="_图层_1-2" data-name="_图层_1">
        <g>
          <path class="cls-4" d="M100.1,180.6c-20-7.8-36.7-26.8-39.7-48.1-3.4-23.8-5.5-36.9-9.3-65.6-1.3-10.3.3-20,3.7-24.8,2.6-3.2,2.9-3.1,8.7-3.1,6.5.5,17.4,7.8,31,17.2l6.1,6.7,12.4-.7c11.8,1,12.8,1,14-3,4.2-4.5,26.9-19.2,32-20.5,8.9-1.5,12.9,2.4,15,16,.8,2.9-.4,15.4-2.3,27-.9,4.1-1.4,11.1-2.7,16.5.2,5.7-.9,11.3-2,12.4,0,1.2-1.2,7.4-1.8,13.2-1,12.9-3.8,21.3-9.1,30.6-7.4,12.8-20.8,22.9-32.9,26.4-7.7,2.2-19,2.1-23-.4"/>
          <path class="cls-1" d="M63.1,79.8c-.6-2.6-1.5-9.6-1.7-15.7-.5-9.5-.4-11.9.9-13.5,1.4-1.9,1.5-1.9,5,0,4,2.1,21.8,14.2,21.8,14.8.3,0-3.1,2.5-7.2,5.3-4.2,2.7-9.1,6.9-11.3,9.5-2,2.6-4.2,4.7-5.1,4.6-.8,0-1.9-2.3-2.5-5"/>
          <path class="cls-1" d="M152.9,78.7c-3.4-3.7-8.9-8-12.1-9.6-3.2-1.8-5.7-3.6-5.7-4.4.2-1.8,23.2-15.2,25.6-14.8,1.8,0,2.6,1.5,2.2,9.3.3,9.5-1.3,23.7-2.9,25.2-.5.5-3.6-2-7.1-5.8"/>
          <path class="cls-3" d="M92.3,139.3c-19.9-.3-21.3-.2-21.7-2.7-1.2-1.9-2.2-8.3-2.5-17.9,1-18.3,2.4-21.6,8.8-31.2,8.2-10.6,24.1-17.1,39-16.5,28.9,2,45.3,24.8,40.1,56.1-.8,5.3-2.1,10.1-2.4,11.3-1.4,1.6-1,1.6-61.3,1"/>
          <path class="cls-4" d="M79.6,112.6c-.7-.9-1.3-4-.8-6.9.9-7.2,10.9-14.6,16.4-11.8,2.9,1.5,3,4.7-.5,8.9-1.9,1.9-4.7,5.5-6.2,8-3.4,4.8-7.1,5.9-8.9,1.8"/>
          <path class="cls-4" d="M138.1,113.5c-3.6-4.3-10.5-14.1-10.6-16,0-4.5,6.6-5.2,12.1-1.7,6.2,4.3,8.6,12.1,5.1,17.5-2.1,3-3.5,3-6.6,0"/>
          <path class="cls-2" d="M102.9,173c-10.2-3.6-23-15-28.1-25.6-3.1-6.7-3.3-7.2-2.1-11.3,3.1-10.2,29.3-21.7,44.2-19.7,15.9,2.4,33.7,13,35.4,21.5,2.5,8.5-16.9,31-30.4,35.3-4.8,1.6-14.5,1.5-19.1-.2"/>
          <path class="cls-4" d="M101.3,153.8c-.7-1.1-.9-3.8-.8-7.1,1-4.6,0-5.6-1.8-4.8-2.9-.6-4.9-3.3-4.9-6.9.4-2.6,1.5-3.3,6-4.8,11.3-4.2,29.7-1.4,31,4.1.6,4.3-1.3,7.3-4.8,7.6-2.6,0-2.4.2-1.8,4.1.9,4.2-.8,8.9-3.3,8.6-.6.5-2.9-.9-4.8-2.5-3.8-3.5-6-2.9-9.1,1.3-1.7,1.8-4,1.9-5.8.4"/>
        </g>
      </g>
    </g>
  </g>
</svg>