<?xml version="1.0" encoding="UTF-8"?>
<svg xmlns="http://www.w3.org/2000/svg" version="1.1" viewBox="0 0 224 224">
  <defs>
    <style>
      .cls-1 {
        fill: #fbfafc;
        opacity: 1;
      }

      .cls-1, .cls-2 {
        isolation: isolate;
      }

      .cls-3 {
        fill: #bcd0f5;
      }

      .cls-4 {
        fill: #1d61e1;
      }

      .cls-2 {
        fill: #fbf9fc;
        opacity: 1;
      }
    </style>
  </defs>
  <!-- Generator: Adobe Illustrator 28.6.0, SVG Export Plug-In . SVG Version: 1.2.0 Build 709)  -->
  <g>
    <g id="_图层_1" data-name="图层_1">
      <g>
        <path class="cls-4" d="M56.2,167.2c-5.5-3.5-5.8-3.7-5.8-33.3,0-23.2,0-28.4.7-32.1,1.2-2.3,2.2-4.5,2.4-4.6.2,0-3.5,0-7.7.4-3.7,0-7.9-.3-10.3-.9-5.8-2.3-7.4-11.7-3.1-17.4,2.3-2.8,6.1-3.9,32.2-11.4,16.3-4.8,32.4-9.3,35.8-10.2,7.6-2.6,16.8-2.6,23.7-.4,49.9,14.5,67,18.7,68.8,21.3,3.1,4.3,3.1,11.4,0,15.4-2.4,2.5-3.3,3.1-11.5,3.6-5.3-.2-9.4,0-9.2,0-.3-.4.6,1.4,1.6,3.3,1.3,5.6,1.5,22.4-.1,26.6-1.4,2.1-1.5,3.3,0,5.9,1.4,5.3,1.5,24.1-.3,28.1-.4,1.9-2.5,4.3-4.6,5.6-3.6,2.3-3.9,2-56.1,1.8-51,0-52.9.4-56.4-1.4"/>
        <path class="cls-2" d="M60.2,159.5c-.7-1.4-1-9.2-.7-27.8v-27c0,0,105.8,0,105.8,0v20.4s-21.1,0-21.1,0l-21,.5-3.1,3-2.6,3.3-.3,28.8h-27.4c-22.4.3-28.6.4-29.6-1.1"/>
        <path class="cls-1" d="M74.7,80.9v-7.7c0,0,15.7-4.1,15.7-4.1,22.5-6.9,22.6-7,42.7-.5l16.9,4.8v7.4s.9,7.7.9,7.7h-76.7s.6-7.7.6-7.7"/>
        <path class="cls-3" d="M126,159.5c-.4-1-.2-6.7-.3-13.8l.3-12.3h18.8c14.8-.2,19.3.1,20.2.9.3.7.6,6.2.6,12.6,0,8.4,0,11.1-1.1,12.2-1.5,1.5-4.9,1.7-19.9,1.5-14.3.3-18.1,0-18.6-1"/>
        <path class="cls-3" d="M38.1,87.1c-.3-.5-.1-1.7.4-2.7.4-.5,8.6-2.9,17.5-5.2,9-2.6,16.9-5,17.8-5.4,1.9-.4,2.1.3,1.6,7.1l.4,7.6h-18.6c-15.8.2-18.4,0-19-1.4"/>
        <path class="cls-3" d="M149,80.9c.2-4,0-7.4.3-7.3.2,0,8.5,2.5,18.7,5.3,16.2,4.6,18.3,5.3,18.6,7.5l.2,2.5h-37.8c0,0,0-7.9,0-7.9"/>
      </g>
    </g>
  </g>
</svg>