<?xml version="1.0" encoding="UTF-8"?>
<svg xmlns="http://www.w3.org/2000/svg" version="1.1" viewBox="0 0 224 224">
  <defs>
    <style>
      .cls-1 {
        fill: #bcd0f5;
      }

      .cls-2 {
        fill: #1d61e1;
      }

      .cls-3 {
        fill: #fbfdfd;
        isolation: isolate;
        opacity: 1;
      }

      .cls-4 {
        fill: #bdd1f6;
      }
    </style>
  </defs>
  <!-- Generator: Adobe Illustrator 28.6.0, SVG Export Plug-In . SVG Version: 1.2.0 Build 709)  -->
  <g>
    <g id="_图层_1" data-name="图层_1">
      <g>
        <path class="cls-3" d="M41.5,164.4c-1.8-1.1-2.2-3-2.6-26.7v-24.6c-.1,0,4-5.7,4-5.7,2.9-3.8,5.9-7,8.2-7.7,1.7-1.3,11.1-1.5,59.4-2.2,56.6.4,57.3.2,61.8,2.5,10.3,4.4,12.2,11.7,11.6,40.8.3,19.9.2,20.4-2.1,22.1-1.8,1.4-4.7,3-70.2,2.9-57,0-68.4,0-70.1-1.5"/>
        <path class="cls-2" d="M36.8,79c-8.8-5.3-8.7-20.5-.3-26l4.3-3.1h143.5s4.5,4,4.5,4c6.9,7.1,7.2,16.8.5,23.4l-3.9,3.6h-72.8c-70.3-.1-73.3.8-75.7-1.9"/>
        <path class="cls-2" d="M39.5,172.5c-8.2-4.4-9.4-8.6-8.7-31.8v-19s1.9-.6,1.9-.6c2.3,0,4.4-.1,5.7-.4l2-.3v40c0,0,2,2.8,2,2.8,2.7,1.9,3.9.9,28.4,1h26.6c0,.1,0-16,0-16-.5-15.9.1-17.3,2.1-21.4,5.4-9.4,19.1-9.6,25.1-.2,2.2,2.7,2.6,4.7,2,20.8l-.4,16.9h26.4c25-.2,26.6.2,28.5-1.5,2.2-2.4,2.2-2.3,2.5-21.2v-21.1c-.1,0,9.4,1.3,9.4,1.3l.4,21.4c.3,22.7-.4,22.8-7.3,28.3-2.3,2.6-3.4,2-73.4,2.1-56.9-.4-71.3.3-73.1-1.2"/>
        <path class="cls-2" d="M59.5,149.3c-7.5-4.3-10.5-10.4-10.1-20.9,0-9,.8-12,4.9-16.5,4.7-4.3,8.7-5.9,14.3-6.1,21.6,0,27.6,33.6,7.7,43.5-4.7,2.4-12.8,2.3-16.8,0"/>
        <path class="cls-2" d="M147.4,149.7c-8-4.4-11.4-10-11.9-20.9.3-12.9,6.1-20.2,17.7-22.8,8.3-2.1,18.8,4.9,21,13.7,1.7,7.3.7,17.7-2.6,22.8-4.9,7.8-16.7,11.4-24.2,7.3"/>
        <path class="cls-1" d="M40.7,68.1c-.8-1.9-.7-3-.2-4.7l2.8-3.9h137.2c0-.1,2.8,3.8,2.8,3.8.9,1.7.8,2.8,0,4.7l-1.4,3.1H41.9c0,0-1.2-3-1.2-3"/>
        <path class="cls-1" d="M31.2,117.1c0-5.1,2.9-12.7,6.4-16.9,1.4-2.1,4.7-5.4,7.8-6.9l6.4-4,58.9-.2h59.9c0,0,5,2.6,5,2.6,9.7,4.7,16.6,15.4,16.7,24.9l-.3,5-3.9-.2c-2.5-.4-3.9-.2-4.5-1.3.5-3.5-2.6-11.6-5.7-15.1-7-8.3-3.9-7.9-65.9-7.4-51.4-.3-55.8-.3-58.8,1.2-6.9,3.4-12.8,11.8-12.8,18.7-.2,3.3-.1,3.1-4.6,3.6l-4.2.2-.3-4.3"/>
        <path class="cls-4" d="M106.9,148c0-17.3.4-18.7,4.3-18.6,5,0,5.5,2.3,5.4,19.2v15.7c0,0-9.6,0-9.6,0v-16.3"/>
        <path class="cls-1" d="M62.3,139c-2-2-2.1-3.5-2.1-10.8,0-8,.4-8.6,2.6-10.3,3.7-2.9,8.8-2.7,11.8.4,2.2,2.1,2.4,3.1,2.2,10.6,0,7.3-.2,8.4-2.3,10.3-3.1,3.1-9.5,3-12.2-.2"/>
        <path class="cls-1" d="M149.3,139c-2.2-2.2-2.4-3.2-2.4-10.5,0-7,.3-8,2.4-10.2,3-3,8.2-3.3,12-.5,2.3,2,2.5,2.6,2.4,11-.1,7.5-.3,9.1-2.1,10.6-2.9,3-9.4,2.8-12.3-.4"/>
      </g>
    </g>
  </g>
</svg>