<?xml version="1.0" ?>
<svg xmlns="http://www.w3.org/2000/svg" version="1.1" width="224" height="224">
  <defs/>
  <g>
    <path d="M 28.0 53.199886322021484 C 28.0 53.199886322021484 28.0 53.199886322021484 28.0 53.199886322021484 C 28.313499450683594 42.73443603515625 34.42597198486328 33.291229248046875 44.406925201416016 29.576492309570312 C 47.25616455078125 28.51599884033203 50.1759033203125 28.09075164794922 53.199886322021484 28.0 C 92.39995574951172 28.0 131.60003662109375 28.0 170.80010986328125 28.0 C 183.9167938232422 28.48224639892578 195.51998901367188 40.016448974609375 196.0 53.199886322021484 C 196.0 92.39995574951172 196.0 131.60003662109375 196.0 170.80010986328125 C 195.90924072265625 173.8240966796875 195.48399353027344 176.74383544921875 194.42349243164062 179.5930633544922 C 190.70877075195312 189.57327270507812 181.26556396484375 195.68649291992188 170.80010986328125 196.0 C 131.60003662109375 196.0 92.39995574951172 196.0 53.199886322021484 196.0 C 40.083194732666016 195.5177459716797 28.479995727539062 183.98355102539062 28.0 170.80010986328125 C 28.0 131.60003662109375 28.0 92.39995574951172 28.0 53.199886322021484" stroke-width="0.0" fill="rgb(255, 136, 0)" opacity="1.0"/>
    <path d="M 87.0622329711914 148.4232177734375 C 87.0622329711914 148.4232177734375 87.0622329711914 148.4232177734375 87.0622329711914 148.4232177734375 C 86.88448333740234 151.28294372558594 86.1037368774414 153.86668395996094 84.16349792480469 156.04991149902344 C 77.29727935791016 163.775634765625 64.09283447265625 158.7574005126953 64.09283447265625 148.4232177734375 C 64.09283447265625 138.0882568359375 77.29727935791016 133.06927490234375 84.16349792480469 140.79574584960938 C 86.1037368774414 142.97897338867188 86.88448333740234 145.56272888183594 87.0622329711914 148.4232177734375 C 87.0622329711914 148.4232177734375 87.0622329711914 148.4232177734375 87.0622329711914 148.4232177734375" stroke-width="0.0" fill="rgb(255, 254, 254)" opacity="1.0"/>
    <path d="M 63.76509094238281 59.827606201171875 C 63.76509094238281 59.827606201171875 63.76509094238281 59.827606201171875 63.76509094238281 59.827606201171875 C 74.18254089355469 59.902610778808594 84.4957504272461 61.4078483581543 94.42044830322266 64.61784362792969 C 124.00631713867188 74.185546875 147.98220825195312 97.47893524169922 158.4236602783203 126.7640609741211 C 162.26364135742188 137.5325164794922 164.087646484375 148.81546020507812 164.16937255859375 160.23265075683594 C 157.60690307617188 160.23265075683594 151.04443359375 160.23265075683594 144.48196411132812 160.23265075683594 C 144.4002227783203 150.93045043945312 142.9122314453125 141.75723266601562 139.74273681640625 132.9957733154297 C 131.2640380859375 109.56063079833984 111.96437072753906 90.928466796875 88.23072814941406 83.30924987792969 C 80.30101013183594 80.76301574707031 72.0810546875 79.58851623535156 63.76509094238281 79.5150146484375 C 63.76509094238281 72.95254516601562 63.76509094238281 66.39007568359375 63.76509094238281 59.827606201171875" stroke-width="0.0" fill="rgb(255, 254, 254)" opacity="1.0"/>
    <path d="M 63.76509094238281 97.23294067382812 C 63.76509094238281 97.23294067382812 63.76509094238281 97.23294067382812 63.76509094238281 97.23294067382812 C 70.19480895996094 97.30718994140625 76.53378295898438 98.19218444824219 82.67100524902344 100.14742279052734 C 101.59716796875 106.17739868164062 116.90985107421875 121.14657592773438 123.38456726074219 139.9219970703125 C 125.64805603027344 146.48521423339844 126.685302734375 153.30343627929688 126.76480102539062 160.23265075683594 C 120.20233154296875 160.23265075683594 113.63986206054688 160.23265075683594 107.077392578125 160.23265075683594 C 106.77889251708984 141.92147827148438 95.25819396972656 125.372802734375 77.842529296875 119.29109191894531 C 73.28779602050781 117.69959259033203 68.57707214355469 116.99835205078125 63.76509094238281 116.92034912109375 C 63.76509094238281 110.35787963867188 63.76509094238281 103.79541015625 63.76509094238281 97.23294067382812" stroke-width="0.0" fill="rgb(255, 254, 254)" opacity="1.0"/>
  </g>
</svg>
