<?xml version="1.0" ?>
<svg xmlns="http://www.w3.org/2000/svg" version="1.1" width="224" height="224">
  <defs/>
  <g>
    <path d="M 49.663917541503906 34.734619140625 C 49.663917541503906 34.734619140625 49.663917541503906 34.734619140625 49.663917541503906 34.734619140625 C 54.17766571044922 32.25047302246094 58.9748420715332 30.538352966308594 64.10885620117188 29.921966552734375 C 80.10870361328125 28.0 95.97924041748047 36.747188568115234 102.90125274658203 51.29975891113281 C 105.34358978271484 56.43532180786133 106.46253967285156 61.93173599243164 106.57869720458984 67.59541320800781 C 106.57869720458984 82.0504150390625 106.57869720458984 96.50464630126953 106.57869720458984 110.95964050292969 C 106.15202331542969 114.20188903808594 104.40274047851562 115.95195007324219 101.16049194335938 116.38017272949219 C 79.47837829589844 116.38017272949219 57.79548645019531 116.38017272949219 36.113372802734375 116.38017272949219 C 32.86028289794922 115.94342803955078 31.12958526611328 114.21273040771484 30.69207000732422 110.95964050292969 C 30.69207000732422 96.50464630126953 30.69207000732422 82.0504150390625 30.69207000732422 67.59541320800781 C 30.973159790039062 53.883026123046875 37.92925262451172 41.834739685058594 49.663917541503906 34.734619140625 C 49.663917541503906 34.734619140625 49.663917541503906 34.734619140625 49.663917541503906 34.734619140625" stroke-width="0.0" fill="rgb(109, 109, 170)" opacity="1.0"/>
    <path d="M 136.39083862304688 34.734619140625 C 136.39083862304688 34.734619140625 136.39083862304688 34.734619140625 136.39083862304688 34.734619140625 C 141.3537139892578 32.003448486328125 146.67356872558594 30.223968505859375 152.34268188476562 29.770965576171875 C 168.40756225585938 28.489395141601562 183.91802978515625 37.861488342285156 190.25384521484375 52.67889404296875 C 192.28732299804688 57.4334716796875 193.20260620117188 62.44436264038086 193.30792236328125 67.59541320800781 C 193.30792236328125 82.0504150390625 193.30792236328125 96.50464630126953 193.30792236328125 110.95964050292969 C 192.8804931640625 114.2042236328125 191.13119506835938 115.95195007324219 187.8874053955078 116.38017272949219 C 166.20529174804688 116.38017272949219 144.52239990234375 116.38017272949219 122.84028625488281 116.38017272949219 C 119.58718872070312 115.94342803955078 117.85726928710938 114.21273040771484 117.41975402832031 110.95964050292969 C 117.41975402832031 96.50464630126953 117.41975402832031 82.0504150390625 117.41975402832031 67.59541320800781 C 117.70084381103516 53.883026123046875 124.65693664550781 41.834739685058594 136.39083862304688 34.734619140625 C 136.39083862304688 34.734619140625 136.39083862304688 34.734619140625 136.39083862304688 34.734619140625" stroke-width="0.0" fill="rgb(109, 109, 170)" opacity="1.0"/>
    <path d="M 45.639564514160156 44.59998321533203 C 45.639564514160156 44.59998321533203 45.639564514160156 44.59998321533203 45.639564514160156 44.59998321533203 C 49.295326232910156 41.109161376953125 53.472999572753906 38.37953567504883 58.287208557128906 36.76344680786133 C 72.96134948730469 31.83850860595703 89.53578186035156 38.26260757446289 97.05947875976562 51.789154052734375 C 99.77670288085938 56.674598693847656 101.0303955078125 62.035499572753906 101.16049194335938 67.59541320800781 C 101.16049194335938 82.0504150390625 101.16049194335938 96.50464630126953 101.16049194335938 110.95964050292969 C 79.47837829589844 110.95964050292969 57.79548645019531 110.95964050292969 36.113372802734375 110.95964050292969 C 36.113372802734375 96.50464630126953 36.113372802734375 82.0504150390625 36.113372802734375 67.59541320800781 C 36.318572998046875 58.80950927734375 39.570899963378906 50.95671463012695 45.639564514160156 44.59998321533203 C 45.639564514160156 44.59998321533203 45.639564514160156 44.59998321533203 45.639564514160156 44.59998321533203" stroke-width="0.0" fill="rgb(109, 109, 169)" opacity="1.0"/>
    <path d="M 155.36578369140625 35.07379150390625 C 155.36578369140625 35.07379150390625 155.36578369140625 35.07379150390625 155.36578369140625 35.07379150390625 C 168.703369140625 35.38508605957031 180.806640625 43.241756439208984 185.68975830078125 55.842933654785156 C 187.15640258789062 59.626461029052734 187.79293823242188 63.554019927978516 187.8874053955078 67.59541320800781 C 187.8874053955078 82.0504150390625 187.8874053955078 96.50464630126953 187.8874053955078 110.95964050292969 C 166.20529174804688 110.95964050292969 144.52239990234375 110.95964050292969 122.84028625488281 110.95964050292969 C 122.84028625488281 96.50464630126953 122.84028625488281 82.0504150390625 122.84028625488281 67.59541320800781 C 123.15158081054688 54.257816314697266 131.00901794433594 42.15454864501953 143.61097717285156 37.27142333984375 C 147.39527893066406 35.804786682128906 151.3236083984375 35.16826629638672 155.36578369140625 35.07379150390625 C 155.36578369140625 35.07379150390625 155.36578369140625 35.07379150390625 155.36578369140625 35.07379150390625" stroke-width="0.0" fill="rgb(109, 109, 170)" opacity="1.0"/>
    <path d="M 55.08522033691406 44.125301361083984 C 55.08522033691406 44.125301361083984 55.08522033691406 44.125301361083984 55.08522033691406 44.125301361083984 C 46.6756591796875 49.29803466796875 41.81034851074219 57.72695541381836 41.533897399902344 67.59541320800781 C 41.533897399902344 80.24305725097656 41.533897399902344 92.89070129394531 41.533897399902344 105.53911590576172 C 59.60284423828125 105.53911590576172 77.6710205078125 105.53911590576172 95.73918914794922 105.53911590576172 C 95.73918914794922 92.89070129394531 95.73918914794922 80.24305725097656 95.73918914794922 67.59541320800781 C 95.62613677978516 63.55944061279297 94.8726806640625 59.676795959472656 93.13655853271484 56.00709915161133 C 88.36339569091797 45.919490814208984 77.54556274414062 39.67116928100586 66.421875 40.583370208740234 C 62.37583541870117 40.914794921875 58.63721466064453 42.20488357543945 55.08522033691406 44.125301361083984 C 55.08522033691406 44.125301361083984 55.08522033691406 44.125301361083984 55.08522033691406 44.125301361083984" stroke-width="0.0" fill="rgb(254, 212, 153)" opacity="1.0"/>
    <path d="M 46.955204010009766 105.53911590576172 C 61.40943145751953 105.53911590576172 75.86442565917969 105.53911590576172 90.31865692138672 105.53911590576172 C 93.5609130859375 105.96733856201172 95.31096649169922 107.71739196777344 95.73918914794922 110.95964050292969 C 95.73918914794922 129.02781677246094 95.73918914794922 147.0967559814453 95.73918914794922 165.1649169921875 C 95.57966613769531 170.8092498779297 94.04255676269531 176.18563842773438 90.75462341308594 180.82794189453125 C 81.54359436035156 193.8325653076172 62.47572326660156 196.0 50.58695983886719 185.38504028320312 C 47.93244552612305 183.01473999023438 45.75572204589844 180.12326049804688 44.21318817138672 176.91664123535156 C 42.426734924316406 173.20278930664062 41.650054931640625 169.26284790039062 41.533897399902344 165.1649169921875 C 41.533897399902344 147.0967559814453 41.533897399902344 129.02781677246094 41.533897399902344 110.95964050292969 C 41.971412658691406 107.70655059814453 43.702110290527344 105.97586059570312 46.955204010009766 105.53911590576172 C 46.955204010009766 105.53911590576172 46.955204010009766 105.53911590576172 46.955204010009766 105.53911590576172" stroke-width="0.0" fill="rgb(109, 109, 170)" opacity="1.0"/>
    <path d="M 141.8121337890625 44.125301361083984 C 141.8121337890625 44.125301361083984 141.8121337890625 44.125301361083984 141.8121337890625 44.125301361083984 C 133.4041290283203 49.29880142211914 128.53802490234375 57.72772979736328 128.26080322265625 67.59541320800781 C 128.26080322265625 80.24305725097656 128.26080322265625 92.89070129394531 128.26080322265625 105.53911590576172 C 146.32974243164062 105.53911590576172 164.39871215820312 105.53911590576172 182.4676513671875 105.53911590576172 C 182.4676513671875 92.89070129394531 182.4676513671875 80.24305725097656 182.4676513671875 67.59541320800781 C 182.35382080078125 63.55944061279297 181.60037231445312 59.676795959472656 179.86502075195312 56.00709915161133 C 175.09109497070312 45.91794204711914 164.27481079101562 39.67116928100586 153.14955139160156 40.583370208740234 C 149.103515625 40.914794921875 145.3641357421875 42.20488357543945 141.8121337890625 44.125301361083984 C 141.8121337890625 44.125301361083984 141.8121337890625 44.125301361083984 141.8121337890625 44.125301361083984" stroke-width="0.0" fill="rgb(254, 212, 153)" opacity="1.0"/>
    <path d="M 133.68211364746094 105.53911590576172 C 148.13711547851562 105.53911590576172 162.59133911132812 105.53911590576172 177.04635620117188 105.53911590576172 C 180.28858947753906 105.96656799316406 182.03866577148438 107.71739196777344 182.4676513671875 110.95964050292969 C 182.4676513671875 129.02781677246094 182.4676513671875 147.0967559814453 182.4676513671875 165.1649169921875 C 182.35150146484375 169.26284790039062 181.57481384277344 173.20278930664062 179.78758239746094 176.91664123535156 C 178.24427795410156 180.12405395507812 176.06600952148438 183.01473999023438 173.4114990234375 185.38504028320312 C 161.52194213867188 196.0 142.45718383789062 193.831787109375 133.24537658691406 180.82794189453125 C 129.9558868408203 176.18563842773438 128.4210968017578 170.8092498779297 128.26080322265625 165.1649169921875 C 128.26080322265625 147.0967559814453 128.26080322265625 129.02781677246094 128.26080322265625 110.95964050292969 C 128.6983184814453 107.70732879638672 130.42979431152344 105.97586059570312 133.68211364746094 105.53911590576172 C 133.68211364746094 105.53911590576172 133.68211364746094 105.53911590576172 133.68211364746094 105.53911590576172" stroke-width="0.0" fill="rgb(109, 109, 170)" opacity="1.0"/>
    <path d="M 46.955204010009766 110.95964050292969 C 61.40943145751953 110.95964050292969 75.86442565917969 110.95964050292969 90.31865692138672 110.95964050292969 C 90.31865692138672 129.02781677246094 90.31865692138672 147.0967559814453 90.31865692138672 165.1649169921875 C 90.11035919189453 170.9501953125 88.11095428466797 176.3521270751953 83.96656799316406 180.4957275390625 C 73.89523315429688 190.56631469726562 56.418670654296875 188.05194091796875 49.599647521972656 175.543701171875 C 47.832557678222656 172.30221557617188 47.08684158325195 168.82611083984375 46.955204010009766 165.1649169921875 C 46.955204010009766 147.0967559814453 46.955204010009766 129.02781677246094 46.955204010009766 110.95964050292969" stroke-width="0.0" fill="rgb(109, 109, 170)" opacity="1.0"/>
    <path d="M 133.68211364746094 110.95964050292969 C 148.13711547851562 110.95964050292969 162.59133911132812 110.95964050292969 177.04635620117188 110.95964050292969 C 177.04635620117188 129.02781677246094 177.04635620117188 147.0967559814453 177.04635620117188 165.1649169921875 C 176.91470336914062 168.82611083984375 176.16900634765625 172.30221557617188 174.40191650390625 175.543701171875 C 167.5828857421875 188.05194091796875 150.10321044921875 190.56785583496094 140.03111267089844 180.4957275390625 C 135.8874969482422 176.3521270751953 133.89041137695312 170.94940185546875 133.68211364746094 165.1649169921875 C 133.68211364746094 147.0967559814453 133.68211364746094 129.02781677246094 133.68211364746094 110.95964050292969" stroke-width="0.0" fill="rgb(109, 109, 170)" opacity="1.0"/>
    <path d="M 52.37263488769531 116.38017272949219 C 52.37263488769531 132.64175415039062 52.37263488769531 148.90333557128906 52.37263488769531 165.1649169921875 C 52.60261917114258 169.90634155273438 54.31085968017578 174.2605743408203 57.95964813232422 177.43157958984375 C 65.78999328613281 184.23899841308594 78.32457733154297 181.85086059570312 83.08612823486328 172.6251220703125 C 84.3065185546875 170.26022338867188 84.77035522460938 167.79698181152344 84.89813232421875 165.1649169921875 C 84.89813232421875 148.90333557128906 84.89813232421875 132.64175415039062 84.89813232421875 116.38017272949219 C 74.0562973022461 116.38017272949219 63.2144660949707 116.38017272949219 52.37263488769531 116.38017272949219" stroke-width="0.0" fill="rgb(237, 244, 252)" opacity="1.0"/>
    <path d="M 36.113372802734375 83.85855102539062 C 57.79548645019531 83.85855102539062 79.47837829589844 83.85855102539062 101.16049194335938 83.85855102539062 C 104.40274047851562 84.28677368164062 106.15202331542969 86.03682708740234 106.57869720458984 89.2790756225586 C 106.57869720458984 96.50696563720703 106.57869720458984 103.73485565185547 106.57869720458984 110.96273803710938 C 106.1512451171875 114.2042236328125 104.40119171142578 115.95195007324219 101.16049194335938 116.38017272949219 C 79.47837829589844 116.38017272949219 57.79548645019531 116.38017272949219 36.113372802734375 116.38017272949219 C 32.86028289794922 115.94342803955078 31.12958526611328 114.21273040771484 30.69207000732422 110.95964050292969 C 30.69207000732422 103.73252868652344 30.69207000732422 96.50619506835938 30.69207000732422 89.2790756225586 C 31.12958526611328 86.02676391601562 32.861053466796875 84.2952880859375 36.113372802734375 83.85855102539062 C 36.113372802734375 83.85855102539062 36.113372802734375 83.85855102539062 36.113372802734375 83.85855102539062" stroke-width="0.0" fill="rgb(108, 108, 170)" opacity="1.0"/>
    <path d="M 139.10342407226562 116.38017272949219 C 139.10342407226562 132.64175415039062 139.10342407226562 148.90333557128906 139.10342407226562 165.1649169921875 C 139.3318634033203 169.90634155273438 141.03932189941406 174.25979614257812 144.68734741210938 177.43157958984375 C 152.51768493652344 184.23977661132812 165.05303955078125 181.85086059570312 169.81381225585938 172.6251220703125 C 171.03419494628906 170.26022338867188 171.498046875 167.79698181152344 171.62503051757812 165.1649169921875 C 171.62503051757812 148.90333557128906 171.62503051757812 132.64175415039062 171.62503051757812 116.38017272949219 C 160.78475952148438 116.38017272949219 149.94369506835938 116.38017272949219 139.10342407226562 116.38017272949219" stroke-width="0.0" fill="rgb(237, 244, 252)" opacity="1.0"/>
    <path d="M 122.84028625488281 83.85855102539062 C 144.52239990234375 83.85855102539062 166.20529174804688 83.85855102539062 187.8874053955078 83.85855102539062 C 191.13198852539062 84.28677368164062 192.8804931640625 86.03450012207031 193.30792236328125 89.2790756225586 C 193.30792236328125 96.50696563720703 193.30792236328125 103.73485565185547 193.30792236328125 110.96273803710938 C 192.8797149658203 114.20576477050781 191.12965393066406 115.95195007324219 187.8874053955078 116.38017272949219 C 166.20529174804688 116.38017272949219 144.52239990234375 116.38017272949219 122.84028625488281 116.38017272949219 C 119.58718872070312 115.94342803955078 117.85726928710938 114.21273040771484 117.41975402832031 110.95964050292969 C 117.41975402832031 103.73252868652344 117.41975402832031 96.50619506835938 117.41975402832031 89.2790756225586 C 117.85726928710938 86.02676391601562 119.58796691894531 84.2952880859375 122.84028625488281 83.85855102539062 C 122.84028625488281 83.85855102539062 122.84028625488281 83.85855102539062 122.84028625488281 83.85855102539062" stroke-width="0.0" fill="rgb(109, 109, 170)" opacity="1.0"/>
    <path d="M 36.113372802734375 89.2790756225586 C 57.79548645019531 89.2790756225586 79.47837829589844 89.2790756225586 101.16049194335938 89.2790756225586 C 101.16049194335938 96.50696563720703 101.16049194335938 103.73485565185547 101.16049194335938 110.96273803710938 C 79.47837829589844 110.96273803710938 57.79548645019531 110.96273803710938 36.113372802734375 110.96273803710938 C 36.113372802734375 103.73485565185547 36.113372802734375 96.50696563720703 36.113372802734375 89.2790756225586" stroke-width="0.0" fill="rgb(109, 109, 170)" opacity="1.0"/>
    <path d="M 122.84028625488281 89.2790756225586 C 144.52239990234375 89.2790756225586 166.20529174804688 89.2790756225586 187.8874053955078 89.2790756225586 C 187.8874053955078 96.50696563720703 187.8874053955078 103.73485565185547 187.8874053955078 110.96273803710938 C 166.20529174804688 110.96273803710938 144.52239990234375 110.96273803710938 122.84028625488281 110.96273803710938 C 122.84028625488281 103.73485565185547 122.84028625488281 96.50696563720703 122.84028625488281 89.2790756225586" stroke-width="0.0" fill="rgb(109, 109, 170)" opacity="1.0"/>
    <path d="M 41.533897399902344 94.6996078491211 C 41.533897399902344 98.31277465820312 41.533897399902344 101.92594909667969 41.533897399902344 105.53911590576172 C 59.60284423828125 105.53911590576172 77.6710205078125 105.53911590576172 95.73918914794922 105.53911590576172 C 95.73918914794922 101.92594909667969 95.73918914794922 98.31277465820312 95.73918914794922 94.6996078491211 C 77.6710205078125 94.6996078491211 59.60284423828125 94.6996078491211 41.533897399902344 94.6996078491211" stroke-width="0.0" fill="rgb(255, 151, 151)" opacity="1.0"/>
    <path d="M 128.26080322265625 94.6996078491211 C 128.26080322265625 98.31277465820312 128.26080322265625 101.92594909667969 128.26080322265625 105.53911590576172 C 146.32974243164062 105.53911590576172 164.39871215820312 105.53911590576172 182.4676513671875 105.53911590576172 C 182.4676513671875 101.92594909667969 182.4676513671875 98.31277465820312 182.4676513671875 94.6996078491211 C 164.39871215820312 94.6996078491211 146.32974243164062 94.6996078491211 128.26080322265625 94.6996078491211" stroke-width="0.0" fill="rgb(255, 151, 151)" opacity="1.0"/>
  </g>
</svg>
