<?xml version="1.0" ?>
<svg xmlns="http://www.w3.org/2000/svg" version="1.1" width="224" height="224">
  <defs/>
  <g>
    <path d="M 55.37730407714844 194.4907684326172 C 54.12201690673828 192.59918212890625 53.68983840942383 186.956787109375 50.76051330566406 157.74493408203125 L 48.60831832885742 128.64918518066406 L 51.22988510131836 81.23269653320312 C 52.236663818359375 54.90229415893555 54.258216857910156 32.04784393310547 55.47138214111328 30.71649932861328 L 55.75833511352539 28.0 L 114.8729476928711 29.180458068847656 C 170.56210327148438 29.130508422851562 174.093994140625 29.046470642089844 174.63357543945312 30.919662475585938 C 174.68800354003906 31.73218536376953 175.39169311523438 191.07388305664062 175.1488800048828 193.88136291503906 L 173.8388671875 196.0 L 114.56958770751953 195.5623779296875 C 67.4946060180664 195.3977508544922 54.923885345458984 194.6474609375 55.37730407714844 194.4907684326172" stroke-width="0.0" fill="rgb(99, 108, 192)" opacity="0.98848"/>
    <path d="M 49.25700759887695 114.94183349609375 C 49.2611083984375 104.93375396728516 49.33211135864258 103.6774673461914 50.73396301269531 102.07919311523438 L 52.313446044921875 100.24520874023438 L 64.46397399902344 100.11898803710938 C 76.98149871826172 100.0648422241211 77.1013412475586 100.1503677368164 78.9669418334961 102.02210998535156 C 80.736328125 103.84464263916016 80.93421936035156 104.19962310791016 80.45538330078125 114.80521392822266 L 80.84933471679688 125.74542236328125 L 78.6640625 124.49445343017578 C 75.40374755859375 122.97557067871094 53.13793182373047 122.78227996826172 50.748836517333984 124.53157806396484 L 49.25265884399414 125.67902374267578 L 49.25700759887695 114.94183349609375" stroke-width="1.0" fill="rgb(40, 233, 127)" opacity="0.97353685"/>
    <path d="M 87.80110168457031 187.33236694335938 C 87.94256591796875 186.6658935546875 88.40802764892578 182.7117919921875 89.34373474121094 178.18087768554688 C 90.0617446899414 173.28627014160156 90.97108459472656 169.1973419189453 90.95962524414062 168.3770751953125 C 90.59412384033203 168.0019989013672 101.95040893554688 167.9789581298828 115.23087310791016 167.99293518066406 L 140.13360595703125 167.97930908203125 L 140.66143798828125 170.43238830566406 C 141.03494262695312 172.54254150390625 143.7545166015625 186.56515502929688 143.9015655517578 187.28750610351562 C 143.9937286376953 187.49362182617188 131.02072143554688 187.4936981201172 115.92472076416016 187.4955291748047 C 100.16261291503906 187.4795684814453 88.08586883544922 187.45413208007812 87.80110168457031 187.33236694335938" stroke-width="1.0" fill="rgb(253, 221, 154)" opacity="0.9945591"/>
    <path d="M 63.55645751953125 187.43075561523438 C 63.64244842529297 186.77182006835938 63.497737884521484 174.33892822265625 63.59599685668945 159.70889282226562 L 63.58344650268555 132.65762329101562 L 71.0260238647461 132.76394653320312 C 80.94252014160156 132.37525939941406 80.85543823242188 132.41183471679688 80.60835266113281 116.8917236328125 L 80.28966522216797 105.31365966796875 L 79.18524932861328 101.99488830566406 C 77.62281036376953 100.34952545166016 76.57886505126953 100.11029052734375 71.14555358886719 99.9573974609375 C 67.67797088623047 100.05362701416016 64.67648315429688 99.98877716064453 63.73246383666992 99.88131713867188 C 63.60943603515625 98.80853271484375 63.72587966918945 85.70790100097656 63.68598175048828 68.42283630371094 L 63.53087615966797 37.982147216796875 L 75.0250244140625 38.07965850830078 L 86.64073181152344 38.23500061035156 L 89.09854888916016 41.15971374511719 C 90.30801391601562 43.248069763183594 92.22002410888672 46.195865631103516 93.17471313476562 47.88860321044922 C 94.85242462158203 50.83469009399414 94.56267547607422 51.11465072631836 93.10057830810547 53.30597686767578 C 92.12202453613281 55.861236572265625 92.1060562133789 55.881622314453125 93.28815460205078 58.91325378417969 C 94.87130737304688 60.76247024536133 95.70854949951172 61.281429290771484 98.09454345703125 60.60948181152344 C 100.3237533569336 60.3951301574707 101.2467269897461 60.65137481689453 101.15292358398438 62.4195671081543 C 100.74256896972656 63.59771728515625 98.6372299194336 76.24588012695312 95.73849487304688 90.28091430664062 C 92.92253112792969 104.5086898803711 89.94627380371094 121.6272964477539 88.67132568359375 128.30072021484375 C 87.31999206542969 135.11953735351562 86.1563720703125 141.90150451660156 85.79286193847656 143.6221923828125 C 85.42420959472656 145.6320037841797 83.599365234375 155.86158752441406 81.88008117675781 166.66419982910156 C 79.96179962158203 178.42825317382812 78.57051086425781 186.36990356445312 78.37086486816406 187.70285034179688 C 76.42900085449219 187.72964477539062 75.18426513671875 187.70431518554688 70.4427490234375 187.65896606445312 C 66.61488342285156 187.61392211914062 64.7384033203125 187.6536865234375 63.55645751953125 187.43075561523438" stroke-width="0.0" fill="rgb(241, 241, 228)" opacity="0.9902878"/>
    <path d="M 153.30615234375 187.55941772460938 C 153.20896911621094 186.70721435546875 151.0442657470703 176.31039428710938 148.75701904296875 164.19586181640625 C 146.48138427734375 152.03298950195312 144.19175720214844 140.45431518554688 143.77328491210938 138.26156616210938 C 143.63198852539062 136.15032958984375 142.75025939941406 131.1527557373047 141.95127868652344 127.0960464477539 C 140.57843017578125 119.93255615234375 136.795654296875 101.59977722167969 131.7813262939453 75.82351684570312 C 130.40057373046875 68.52310180664062 129.0828399658203 62.31156539916992 128.6931610107422 61.60447311401367 C 129.46356201171875 60.88454055786133 130.8765411376953 60.327056884765625 132.5771942138672 60.662052154541016 C 135.27291870117188 60.74700164794922 135.66226196289062 60.4929084777832 136.67010498046875 57.74856948852539 C 136.8994903564453 55.66599655151367 136.7790069580078 54.51078796386719 136.2102508544922 53.12846374511719 C 134.91812133789062 51.32342529296875 135.04104614257812 50.78831481933594 137.23873901367188 47.25967788696289 C 138.49989318847656 45.128822326660156 140.4307403564453 42.11711883544922 141.365478515625 40.632728576660156 L 142.8455810546875 37.73046112060547 L 154.5991668701172 38.018829345703125 L 165.6478729248047 37.94757843017578 L 165.67202758789062 187.48355102539062 L 159.98825073242188 187.47122192382812 C 155.96275329589844 187.46722412109375 154.3897705078125 187.4767303466797 153.30615234375 187.55941772460938" stroke-width="0.0" fill="rgb(240, 241, 228)" opacity="0.9894274"/>
    <path d="M 93.46366119384766 154.00897216796875 C 93.8321762084961 151.846435546875 94.16819763183594 149.67022705078125 94.25604248046875 148.91787719726562 C 94.6290054321289 148.25946044921875 98.61662292480469 148.154296875 115.65058898925781 148.26168823242188 L 136.32858276367188 148.54052734375 L 137.2393798828125 153.46502685546875 C 137.72467041015625 155.97630310058594 138.14373779296875 158.09730529785156 138.0979461669922 159.02120971679688 C 137.79345703125 159.1678924560547 127.4461441040039 159.27932739257812 115.01656341552734 159.19296264648438 L 92.76521301269531 159.15286254882812 L 93.46366119384766 154.00897216796875" stroke-width="1.0" fill="rgb(242, 242, 229)" opacity="0.9980379"/>
    <path d="M 98.52117919921875 126.57298278808594 C 98.64344024658203 126.03419494628906 98.9621353149414 124.35597229003906 99.1596450805664 123.3841552734375 L 98.98970794677734 121.36314392089844 L 115.05801391601562 121.25355529785156 C 132.83688354492188 121.43646240234375 131.06044006347656 120.96121215820312 132.1751708984375 126.24266815185547 L 132.50015258789062 128.66004943847656 L 98.07807922363281 128.71774291992188 L 98.52117919921875 126.57298278808594" stroke-width="1.0" fill="rgb(241, 241, 228)" opacity="0.9962278"/>
    <path d="M 101.6981201171875 109.25772857666016 C 101.99906921386719 107.68914794921875 102.32209777832031 105.3120346069336 102.68576049804688 103.88762664794922 L 103.2044448852539 101.23868560791016 L 126.84430694580078 101.17375946044922 L 127.784912109375 105.00232696533203 C 128.3065643310547 107.12261199951172 128.68055725097656 109.494140625 128.8032989501953 110.40095520019531 L 128.92330932617188 112.29951477050781 L 101.1465835571289 112.2719955444336 L 101.6981201171875 109.25772857666016" stroke-width="1.0" fill="rgb(242, 242, 228)" opacity="0.99917257"/>
    <path d="M 90.66775512695312 60.07448196411133 C 88.35096740722656 59.07698059082031 87.31912231445312 55.36750411987305 87.38356018066406 46.78453063964844 L 87.32779693603516 37.952064514160156 L 142.1755828857422 38.02825164794922 L 142.20901489257812 47.98474884033203 C 142.30349731445312 57.321929931640625 142.21450805664062 57.439598083496094 140.0974884033203 59.08348083496094 C 139.11569213867188 59.86235809326172 137.5889892578125 60.55412292480469 136.6356658935547 60.6117057800293 C 135.560302734375 60.75146484375 135.42971801757812 60.59560775756836 136.32090759277344 58.16579818725586 C 137.4439697265625 55.97438430786133 136.7663116455078 52.95097351074219 135.0605926513672 52.201663970947266 C 134.45396423339844 51.66579055786133 125.10401916503906 51.48204040527344 114.38252258300781 51.470054626464844 C 96.50358581542969 51.43959426879883 94.91146850585938 51.59492111206055 93.90939331054688 52.89326858520508 C 92.45075988769531 54.29579544067383 92.0870132446289 58.041622161865234 93.35002136230469 58.59133529663086 C 95.29141998291016 60.21051025390625 92.97883605957031 61.157100677490234 90.66775512695312 60.07448196411133" stroke-width="1.0" fill="rgb(42, 231, 128)" opacity="0.98699296"/>
  </g>
</svg>
