<?xml version="1.0" ?>
<svg xmlns="http://www.w3.org/2000/svg" version="1.1" width="224" height="224">
  <defs/>
  <g>
    <path d="M 38.51091766357422 193.9561767578125 C 36.460540771484375 191.73272705078125 37.2493896484375 190.93856811523438 37.24989318847656 113.61014556884766 C 37.383583068847656 28.0 35.676414489746094 32.75373077392578 41.012451171875 31.662818908691406 C 42.90300750732422 31.441177368164062 75.36016845703125 31.639083862304688 114.33960723876953 31.62884521484375 C 182.9693603515625 31.68785858154297 184.96060180664062 31.1392822265625 186.62777709960938 33.39098358154297 C 188.1268310546875 35.484130859375 187.4227294921875 47.34092712402344 187.63833618164062 113.42807006835938 C 187.40945434570312 190.7046661376953 188.32359313964844 191.54322814941406 186.20614624023438 193.6156005859375 C 183.45846557617188 196.0 182.98348999023438 195.326904296875 112.22099304199219 195.45947265625 C 41.703575134277344 195.3651123046875 41.102272033691406 195.94091796875 38.51091766357422 193.9561767578125" stroke-width="1.0" fill="rgb(82, 97, 175)" opacity="0.99519837"/>
    <path d="M 49.45804977416992 125.24740600585938 C 49.439456939697266 124.97716522216797 49.19499206542969 114.52851867675781 49.16914367675781 102.25698852539062 L 49.14116287231445 79.97019958496094 L 59.77194595336914 79.71951293945312 L 59.65780258178711 125.77228546142578 L 54.798187255859375 125.62397766113281 C 52.287750244140625 125.8602066040039 50.03351593017578 125.53934478759766 49.45804977416992 125.24740600585938" stroke-width="1.0" fill="rgb(83, 181, 255)" opacity="0.9998617"/>
    <path d="M 48.7925910949707 55.90394592285156 L 48.82288360595703 43.08329772949219 L 175.6710205078125 43.063804626464844 L 175.57981872558594 68.19221496582031 L 48.832820892333984 68.12196350097656 L 48.7925910949707 55.90394592285156" stroke-width="1.0" fill="rgb(83, 180, 254)" opacity="0.9998729"/>
    <path d="M 119.0793228149414 183.9608154296875 C 118.58057403564453 183.0804443359375 118.54234313964844 172.75975036621094 118.62745666503906 160.04583740234375 L 118.73430633544922 136.50743103027344 L 130.23350524902344 136.68699645996094 L 130.25250244140625 184.5382080078125 L 124.86819458007812 184.4170684814453 C 122.05044555664062 184.4686737060547 119.79983520507812 184.19021606445312 119.0793228149414 183.9608154296875" stroke-width="1.0" fill="rgb(229, 229, 249)" opacity="1.0"/>
    <path d="M 119.1214599609375 125.27179718017578 C 118.56340789794922 124.69170379638672 118.53053283691406 114.56741333007812 118.59822845458984 102.41775512695312 L 118.83478546142578 79.98542785644531 L 130.22242736816406 80.15106201171875 L 130.22958374023438 125.84539031982422 L 124.67161560058594 125.7759017944336 C 121.86798858642578 125.92725372314453 119.39440155029297 125.62454986572266 119.1214599609375 125.27179718017578" stroke-width="1.0" fill="rgb(229, 228, 249)" opacity="1.0"/>
    <path d="M 146.3477325439453 102.40580749511719 L 146.6362762451172 79.7713623046875 L 158.29966735839844 79.9464111328125 L 158.48468017578125 125.51779174804688 L 146.4385528564453 125.35646057128906 L 146.3477325439453 102.40580749511719" stroke-width="1.0" fill="rgb(135, 117, 189)" opacity="0.99424946"/>
    <path d="M 164.479736328125 125.59054565429688 L 160.45278930664062 125.21095275878906 L 160.53392028808594 79.7142562866211 L 175.1827392578125 79.599853515625 L 175.11907958984375 126.00083923339844 L 171.65806579589844 125.77255249023438 C 169.52081298828125 125.8627700805664 166.3619842529297 125.60387420654297 164.479736328125 125.59054565429688" stroke-width="1.0" fill="rgb(84, 181, 255)" opacity="1.0"/>
    <path d="M 49.18106460571289 160.7273406982422 L 49.12260055541992 136.8378143310547 L 59.8006477355957 136.57485961914062 L 60.05747985839844 184.55416870117188 L 49.23272705078125 184.575927734375 L 49.18106460571289 160.7273406982422" stroke-width="1.0" fill="rgb(83, 181, 255)" opacity="1.0"/>
    <path d="M 132.46856689453125 160.3551025390625 L 132.4566192626953 136.7753448486328 L 144.6668701171875 136.70443725585938 L 144.75820922851562 184.18138122558594 L 132.22061157226562 184.19789123535156 L 132.46856689453125 160.3551025390625" stroke-width="1.0" fill="rgb(249, 171, 156)" opacity="1.0"/>
    <path d="M 132.32237243652344 103.05393981933594 L 132.35154724121094 80.00672912597656 L 144.7781524658203 80.18250274658203 L 144.90574645996094 102.80821228027344 L 145.06776428222656 125.07746124267578 L 139.08665466308594 125.42897033691406 L 132.2281951904297 125.66466522216797 L 132.32237243652344 103.05393981933594" stroke-width="1.0" fill="rgb(248, 171, 157)" opacity="1.0"/>
    <path d="M 146.53176879882812 160.4811553955078 L 146.27505493164062 136.8648681640625 L 158.51333618164062 136.8506317138672 L 158.18283081054688 184.26751708984375 L 146.59393310546875 184.574462890625 L 146.53176879882812 160.4811553955078" stroke-width="1.0" fill="rgb(133, 116, 188)" opacity="0.98797625"/>
    <path d="M 73.82186126708984 160.4548797607422 L 74.01069641113281 136.79359436035156 L 88.42826080322266 136.73388671875 L 88.42328643798828 184.15631103515625 L 73.56494140625 184.40733337402344 L 73.82186126708984 160.4548797607422" stroke-width="1.0" fill="rgb(249, 170, 162)" opacity="0.99835163"/>
    <path d="M 73.03167724609375 102.99490356445312 L 73.78579711914062 80.15689849853516 L 88.398193359375 80.021484375 L 88.35736083984375 125.87606048583984 L 73.18057250976562 125.72086334228516 L 73.03167724609375 102.99490356445312" stroke-width="1.0" fill="rgb(248, 169, 160)" opacity="0.9960653"/>
    <path d="M 90.3191909790039 160.56764221191406 L 90.36800384521484 136.67047119140625 L 101.7899169921875 136.72955322265625 L 101.83907318115234 160.1834716796875 L 102.07240295410156 183.85946655273438 L 96.24382781982422 184.15855407714844 L 90.31932067871094 184.44778442382812 L 90.3191909790039 160.56764221191406" stroke-width="1.0" fill="rgb(227, 227, 247)" opacity="0.9956158"/>
    <path d="M 90.34796905517578 102.3234634399414 L 90.35684204101562 79.9631576538086 L 101.9518051147461 79.85227966308594 L 101.90706634521484 125.67738342285156 L 90.27950286865234 125.77346801757812 L 90.34796905517578 102.3234634399414" stroke-width="1.0" fill="rgb(228, 228, 248)" opacity="0.9975793"/>
    <path d="M 103.55801391601562 160.55670166015625 L 103.81925964355469 136.9093780517578 L 116.38691711425781 136.75204467773438 L 116.47177124023438 184.15371704101562 L 104.01140594482422 184.27755737304688 L 103.55801391601562 160.55670166015625" stroke-width="1.0" fill="rgb(228, 125, 151)" opacity="1.0"/>
    <path d="M 103.55635833740234 102.44264221191406 L 103.63191986083984 80.05094909667969 L 116.3506851196289 79.75699615478516 L 116.46666717529297 125.73814392089844 L 103.79035186767578 125.65599822998047 L 103.55635833740234 102.44264221191406" stroke-width="1.0" fill="rgb(228, 125, 151)" opacity="1.0"/>
    <path d="M 160.40721130371094 160.5717010498047 L 160.47586059570312 136.69325256347656 L 174.930419921875 136.60462951660156 L 175.08079528808594 184.5421142578125 L 160.50970458984375 184.54251098632812 L 160.40721130371094 160.5717010498047" stroke-width="1.0" fill="rgb(84, 182, 255)" opacity="1.0"/>
    <path d="M 59.70604705810547 159.99261474609375 L 59.67347717285156 136.66041564941406 L 73.87030792236328 136.7316436767578 L 74.1800537109375 184.24807739257812 L 59.544307708740234 184.28561401367188 L 59.70604705810547 159.99261474609375" stroke-width="1.0" fill="rgb(251, 226, 161)" opacity="0.99630356"/>
    <path d="M 59.777259826660156 102.89085388183594 L 59.628658294677734 79.78480529785156 L 73.6050796508789 79.94471740722656 L 73.72525024414062 125.75481414794922 L 59.788734436035156 125.6290283203125 L 59.777259826660156 102.89085388183594" stroke-width="1.0" fill="rgb(250, 227, 163)" opacity="1.0"/>
  </g>
</svg>
