<?xml version="1.0" ?>
<svg xmlns="http://www.w3.org/2000/svg" version="1.1" width="224" height="224">
  <defs/>
  <g>
    <path d="M 39.89091491699219 149.236083984375 C 38.0982666015625 148.42117309570312 37.214378356933594 145.1907501220703 38.889366149902344 141.05886840820312 C 37.44703674316406 136.4419708251953 35.71812438964844 128.39959716796875 34.69029235839844 122.312744140625 C 28.59674835205078 93.43852996826172 28.0 90.3600082397461 28.89752197265625 84.13580322265625 C 29.9033203125 73.31241607666016 35.444122314453125 64.6619873046875 43.866798400878906 60.220733642578125 C 48.34503936767578 57.9103889465332 49.857913970947266 57.524200439453125 56.387813568115234 56.855384826660156 C 62.25003433227539 56.68084716796875 64.40074157714844 56.75743865966797 66.0636978149414 58.08716583251953 C 67.91458892822266 59.61684799194336 68.42384338378906 60.31507873535156 68.10493469238281 63.938560485839844 C 66.62574768066406 67.06700897216797 66.59053802490234 67.59664916992188 68.63853454589844 68.01627349853516 C 69.0576400756836 67.67662048339844 70.6568603515625 68.19258880615234 71.37928771972656 68.92820739746094 C 72.47879791259766 69.20523071289062 73.37858581542969 69.71112823486328 73.95040893554688 70.95380401611328 C 74.15348815917969 70.58036804199219 75.5521240234375 68.28926086425781 75.72129821777344 65.28915405273438 C 83.58284759521484 50.55290222167969 90.96156311035156 46.61362838745117 115.24148559570312 48.424652099609375 C 128.1663818359375 47.955528259277344 128.84556579589844 48.65636444091797 134.3662109375 50.55779266357422 C 140.0706787109375 53.32219696044922 145.5477294921875 59.46171951293945 148.00680541992188 66.25530242919922 C 149.083984375 70.53581237792969 149.40834045410156 70.89873504638672 153.43545532226562 67.90977478027344 C 156.94436645507812 66.9868392944336 156.98695373535156 66.31513977050781 155.07650756835938 62.79339599609375 C 155.54931640625 59.34479522705078 156.26409912109375 58.77549362182617 158.1067352294922 57.72209167480469 C 160.61354064941406 56.66590881347656 167.54449462890625 56.69785690307617 172.91815185546875 57.59536361694336 C 187.43081665039062 61.16569519042969 196.0 74.23622131347656 194.8965606689453 90.68478393554688 C 194.12832641601562 97.19432830810547 191.13998413085938 110.68324279785156 186.4754638671875 133.06265258789062 C 185.8833770751953 136.500244140625 184.5657958984375 140.7730712890625 185.00990295410156 142.88400268554688 C 186.0748748779297 145.0825653076172 184.83908081054688 147.76467895507812 184.26107788085938 148.46060180664062 L 181.912841796875 150.22613525390625 L 111.80813598632812 151.58580017089844 C 45.62747573852539 150.9750213623047 41.177635192871094 150.84219360351562 39.89091491699219 149.236083984375" stroke-width="0.0" fill="rgb(114, 106, 180)" opacity="0.994884"/>
    <path d="M 51.025028228759766 159.46267700195312 L 50.860801696777344 150.46156311035156 L 172.47946166992188 150.57266235351562 L 172.44656372070312 168.28799438476562 L 50.856956481933594 168.18345642089844 L 51.025028228759766 159.46267700195312" stroke-width="1.0" fill="rgb(253, 218, 134)" opacity="0.96239454"/>
    <path d="M 47.24026107788086 175.6007843017578 C 45.42559051513672 172.92214965820312 45.349082946777344 170.83221435546875 46.99004364013672 169.06443786621094 C 48.31837463378906 167.49462890625 54.10286331176758 167.75921630859375 111.89775848388672 167.7594451904297 C 168.33221435546875 167.800048828125 175.5896453857422 167.5194091796875 176.5735626220703 169.08316040039062 C 177.93499755859375 170.72628784179688 177.85494995117188 172.91036987304688 176.14505004882812 175.6394805908203 C 174.5699462890625 177.38638305664062 173.63027954101562 177.15391540527344 111.62776184082031 177.1964111328125 C 49.93560028076172 177.13072204589844 48.7763671875 177.26699829101562 47.24026107788086 175.6007843017578" stroke-width="1.0" fill="rgb(111, 102, 179)" opacity="0.9946102"/>
    <path d="M 66.084716796875 139.03036499023438 C 64.63943481445312 132.31338500976562 61.26710891723633 98.95980072021484 61.001808166503906 90.28336334228516 C 61.36411666870117 80.96432495117188 61.475250244140625 79.234130859375 63.395729064941406 74.13343048095703 C 64.692626953125 70.6432113647461 65.915283203125 67.51042175292969 66.19094848632812 67.23942565917969 C 66.81254577636719 66.48405456542969 68.43559265136719 67.18800354003906 70.4382553100586 68.39420318603516 C 73.22268676757812 69.6374740600586 73.69584655761719 70.15986633300781 73.3536605834961 71.94183349609375 C 70.91643524169922 81.03133392333984 71.18959045410156 98.69707489013672 74.35653686523438 128.29373168945312 C 74.78465270996094 134.6165313720703 74.97903442382812 139.8644256591797 74.7050552368164 140.32522583007812 C 74.62576293945312 140.50820922851562 72.67366027832031 140.80325317382812 70.57847595214844 140.94140625 C 67.14374542236328 140.86187744140625 66.55502319335938 140.60264587402344 66.084716796875 139.03036499023438" stroke-width="1.0" fill="rgb(253, 151, 151)" opacity="0.9943966"/>
    <path d="M 48.52437973022461 139.82534790039062 C 46.73435592651367 133.60829162597656 38.88451385498047 93.16015625 38.77842712402344 88.85043334960938 C 39.390525817871094 78.53785705566406 43.119407653808594 71.2503890991211 49.88872528076172 68.2689437866211 C 51.94479751586914 67.26243591308594 53.51648712158203 66.74502563476562 53.63521957397461 66.94509887695312 C 54.20591735839844 67.4163818359375 53.644588470458984 70.60077667236328 52.67856979370117 73.77803802490234 C 49.703800201416016 83.14334106445312 49.80746078491211 95.39364624023438 53.37614822387695 119.36332702636719 C 54.769371032714844 129.96791076660156 55.89409637451172 139.16958618164062 55.962894439697266 140.0009765625 C 55.50223159790039 141.6023712158203 49.256439208984375 141.42930603027344 48.52437973022461 139.82534790039062" stroke-width="1.0" fill="rgb(230, 254, 255)" opacity="0.96124065"/>
    <path d="M 85.40866088867188 140.4764862060547 C 84.9698486328125 139.25721740722656 83.08549499511719 112.79737854003906 82.23733520507812 98.06787109375 C 81.22557067871094 76.08882141113281 85.16864776611328 63.7663688659668 93.97140502929688 59.326927185058594 C 95.70748138427734 58.25180435180664 96.03443145751953 58.18605041503906 95.98281860351562 60.55865478515625 C 94.09715270996094 69.28710174560547 93.43154907226562 79.7850341796875 93.96778869628906 108.56452941894531 L 94.41448211669922 140.52481079101562 L 89.88813781738281 140.71673583984375 C 87.89997863769531 140.88844299316406 85.81231689453125 140.69281005859375 85.40866088867188 140.4764862060547" stroke-width="1.0" fill="rgb(230, 252, 255)" opacity="0.96018773"/>
    <path d="M 129.61563110351562 107.08325958251953 C 130.17787170410156 82.3258285522461 129.08973693847656 71.82479095458984 128.5042266845703 66.51809692382812 C 127.72549438476562 62.286014556884766 127.29358673095703 58.57573699951172 127.59969329833984 58.63172149658203 C 128.61227416992188 57.782127380371094 134.7614288330078 62.73722457885742 136.38600158691406 65.80738067626953 C 139.92013549804688 71.73487091064453 141.1659393310547 77.68730163574219 141.36758422851562 90.51346588134766 C 141.1368865966797 100.73701477050781 139.75302124023438 123.26844024658203 138.24879455566406 136.63003540039062 L 137.95834350585938 140.5305633544922 L 128.96902465820312 140.44265747070312 L 129.61563110351562 107.08325958251953" stroke-width="1.0" fill="rgb(231, 254, 255)" opacity="0.9610749"/>
    <path d="M 148.76939392089844 136.581787109375 C 151.6448211669922 113.9122314453125 152.80447387695312 80.55878448486328 150.51315307617188 71.62921905517578 C 150.4234619140625 69.44461822509766 150.68975830078125 69.13774871826172 153.2657928466797 67.88600158691406 C 154.8567657470703 67.1533432006836 156.37310791015625 66.61749267578125 156.3587646484375 66.56854248046875 C 157.23765563964844 66.49471282958984 160.08322143554688 73.33635711669922 161.219970703125 77.95962524414062 C 163.30184936523438 86.23978424072266 162.77923583984375 96.31501007080078 158.72976684570312 129.26492309570312 L 157.36781311035156 140.3986358642578 L 153.03973388671875 140.7046356201172 L 148.27114868164062 140.90603637695312 L 148.76939392089844 136.581787109375" stroke-width="1.0" fill="rgb(253, 151, 151)" opacity="0.993632"/>
    <path d="M 167.66319274902344 137.47503662109375 C 172.78741455078125 107.2623519897461 174.33349609375 82.1829833984375 171.11419677734375 73.62144470214844 C 170.50926208496094 71.32561492919922 169.53170776367188 68.91072082519531 169.0825653076172 68.35389709472656 C 168.6153106689453 66.66376495361328 171.8550262451172 67.43147277832031 175.66571044921875 69.55094909667969 C 180.78623962402344 72.60968017578125 183.7603759765625 78.4780502319336 184.49984741210938 86.49688720703125 C 184.8280029296875 91.64295196533203 184.2039794921875 95.52008056640625 179.90548706054688 116.49577331542969 C 177.16693115234375 129.21914672851562 174.969482421875 140.0416717529297 174.87745666503906 140.21536254882812 C 174.8846435546875 140.56143188476562 173.20272827148438 140.87789916992188 171.10528564453125 140.75184631347656 L 167.47047424316406 140.7086944580078 L 167.66319274902344 137.47503662109375" stroke-width="1.0" fill="rgb(230, 245, 253)" opacity="0.9963502"/>
    <path d="M 103.99266815185547 107.09619903564453 C 103.966552734375 77.56178283691406 104.83916473388672 65.11874389648438 106.42564392089844 60.02865982055664 C 106.4438247680664 58.6524772644043 107.33186340332031 58.42066192626953 111.54375457763672 58.71644592285156 L 116.54800415039062 58.720699310302734 L 118.07991027832031 64.91807556152344 C 119.38892364501953 72.00541687011719 119.9684829711914 106.61368560791016 119.24606323242188 125.75016021728516 L 118.80116271972656 140.8318634033203 L 104.53211212158203 140.6866912841797 L 103.99266815185547 107.09619903564453" stroke-width="1.0" fill="rgb(252, 149, 149)" opacity="0.99741393"/>
  </g>
</svg>
