<?xml version="1.0" ?>
<svg xmlns="http://www.w3.org/2000/svg" version="1.1" width="224" height="224">
  <defs/>
  <g>
    <path d="M 101.02198791503906 194.75497436523438 C 96.75900268554688 193.7816619873047 90.96275329589844 188.29153442382812 90.11803436279297 184.53062438964844 C 89.82060241699219 181.90504455566406 88.6712417602539 180.66122436523438 84.52422332763672 179.27017211914062 C 78.28950500488281 176.13621520996094 74.20376586914062 172.02377319335938 69.48771667480469 164.27789306640625 C 62.61088562011719 152.50338745117188 59.12234115600586 140.2069091796875 58.15269088745117 121.58538818359375 C 58.154598236083984 110.21377563476562 58.0832405090332 109.65599822998047 55.729103088378906 110.48986053466797 C 51.33308410644531 110.92726135253906 49.35285949707031 108.8340072631836 43.70198059082031 99.15845489501953 C 32.15001678466797 80.6838607788086 28.533851623535156 68.4068603515625 30.614471435546875 56.75882339477539 C 32.85150909423828 45.566734313964844 37.67094421386719 38.53260803222656 46.99565505981445 33.58582305908203 C 53.93117141723633 31.15587615966797 55.27250671386719 30.833709716796875 64.35429382324219 30.42156219482422 C 73.09274291992188 30.843475341796875 75.25994873046875 31.344223022460938 80.04612731933594 33.093658447265625 C 89.70529174804688 37.32202911376953 95.60672760009766 45.40349578857422 97.43409729003906 55.06640625 L 97.87539672851562 60.35258483886719 L 112.36193084716797 59.93524932861328 L 126.82382202148438 60.073551177978516 L 127.13092041015625 55.432228088378906 C 129.66993713378906 41.443763732910156 139.1642608642578 32.54322052001953 155.24436950683594 30.797889709472656 C 177.49459838867188 28.00000762939453 193.2014617919922 39.54022216796875 194.5979766845703 60.12485122680664 C 195.46615600585938 71.8471450805664 190.84286499023438 84.616455078125 179.58245849609375 102.04823303222656 C 175.44601440429688 108.83576965332031 173.71571350097656 110.42994689941406 169.33822631835938 110.26705932617188 C 166.83145141601562 109.41952514648438 166.31570434570312 109.7380599975586 166.76416015625 116.2479248046875 C 167.17446899414062 133.76394653320312 162.52398681640625 152.42691040039062 155.0636749267578 164.38323974609375 C 150.1671905517578 172.18748474121094 146.03187561035156 176.7139892578125 139.8816680908203 179.277587890625 C 136.18540954589844 180.28472900390625 134.80674743652344 181.85525512695312 134.20278930664062 185.15591430664062 C 130.3937225341797 193.07318115234375 124.8488540649414 195.97552490234375 112.54916381835938 195.94717407226562 C 107.82869720458984 196.0 102.66204833984375 195.38394165039062 101.02198791503906 194.75497436523438" stroke-width="1.0" fill="rgb(72, 82, 156)" opacity="0.9979135"/>
    <path d="M 137.30438232421875 167.18727111816406 C 141.99139404296875 154.98683166503906 141.7560577392578 149.99459838867188 137.40765380859375 143.85581970214844 C 133.74119567871094 137.51913452148438 129.8047637939453 135.55673217773438 113.61198425292969 135.53416442871094 C 96.61257934570312 135.5408935546875 92.13700866699219 136.52621459960938 87.66790008544922 143.81373596191406 C 84.11727142333984 147.8004150390625 83.17781066894531 157.32728576660156 86.2185287475586 162.8673858642578 C 86.80357360839844 164.73870849609375 87.61347198486328 166.72854614257812 86.66539764404297 166.89089965820312 C 85.53218841552734 168.09262084960938 78.19636535644531 158.93228149414062 75.72900390625 153.35617065429688 C 71.19925689697266 142.9328155517578 69.57179260253906 136.3831329345703 68.6260757446289 120.72926330566406 C 68.54371643066406 107.73033142089844 69.12146759033203 104.75443267822266 70.58476257324219 99.35509490966797 C 74.1238021850586 87.81096649169922 82.6063003540039 77.74407958984375 92.6871337890625 73.12051391601562 C 97.044921875 71.37385559082031 98.96296691894531 70.88578796386719 111.97760009765625 70.4247055053711 C 125.81332397460938 70.69660949707031 126.8273696899414 71.20335388183594 132.76416015625 73.4295883178711 C 140.18492126464844 76.49462890625 148.38966369628906 85.53458404541016 152.4606170654297 94.68640899658203 C 155.45556640625 101.47237396240234 156.0120849609375 101.98015594482422 156.46881103515625 114.6868667602539 C 156.7336883544922 136.7427978515625 151.7099609375 153.85476684570312 142.26638793945312 163.86856079101562 C 139.80279541015625 166.78195190429688 137.22036743164062 168.54930114746094 137.30438232421875 167.18727111816406" stroke-width="1.0" fill="rgb(230, 252, 255)" opacity="0.9599212"/>
    <path d="M 164.48028564453125 96.26668548583984 C 160.7716064453125 85.32705688476562 150.37832641601562 71.66163635253906 141.55641174316406 66.09114837646484 C 137.70852661132812 63.689361572265625 137.3363494873047 63.18357849121094 137.18783569335938 59.56875228881836 C 137.3278350830078 51.621551513671875 141.98162841796875 45.36321258544922 149.70516967773438 42.823333740234375 C 155.04774475097656 40.75335693359375 168.77694702148438 41.23362731933594 173.17022705078125 43.53857421875 C 186.69573974609375 50.14527893066406 187.89181518554688 67.52125549316406 176.025634765625 87.9287109375 C 172.9142608642578 93.45039367675781 168.05325317382812 99.98314666748047 166.76596069335938 99.90353393554688 C 166.34719848632812 99.66571044921875 165.4683837890625 98.21328735351562 164.48028564453125 96.26668548583984" stroke-width="1.0" fill="rgb(129, 120, 151)" opacity="0.99274135"/>
    <path d="M 54.146278381347656 95.50199890136719 C 49.4390869140625 88.56134796142578 43.310028076171875 75.98568725585938 41.438011169433594 68.84214782714844 C 38.642112731933594 57.767478942871094 43.002952575683594 47.36177062988281 52.238990783691406 43.469146728515625 C 57.7286262512207 40.67285919189453 71.13589477539062 40.688270568847656 76.72653198242188 43.25647735595703 C 81.59550476074219 45.42353057861328 85.42095947265625 49.97576141357422 86.95722961425781 54.90294647216797 C 88.52333068847656 61.329315185546875 88.16197204589844 62.56486129760742 82.69487762451172 66.65351867675781 C 74.48196411132812 72.55934143066406 67.7517318725586 80.9364013671875 62.912105560302734 90.99005126953125 C 60.33720397949219 96.02482604980469 58.19232940673828 100.18795013427734 57.99806213378906 100.17749786376953 C 57.85260009765625 100.18817138671875 56.1890754699707 98.11640167236328 54.146278381347656 95.50199890136719" stroke-width="1.0" fill="rgb(129, 120, 152)" opacity="0.9932471"/>
    <path d="M 96.29701232910156 159.07647705078125 C 93.95503234863281 156.1720428466797 94.12569427490234 151.0111846923828 97.50276947021484 148.4479217529297 C 100.45201110839844 145.7677001953125 101.74996185302734 145.66854858398438 104.15867614746094 147.67153930664062 C 107.00741577148438 149.65838623046875 106.95246124267578 156.86788940429688 103.90198516845703 159.25054931640625 C 100.8239974975586 161.7023468017578 99.24971008300781 161.72613525390625 96.29701232910156 159.07647705078125" stroke-width="1.0" fill="rgb(124, 119, 151)" opacity="0.9901395"/>
    <path d="M 120.8925552368164 158.52723693847656 C 117.79158020019531 155.785400390625 117.57674407958984 151.23292541503906 120.22506713867188 148.49880981445312 C 122.79830932617188 145.65045166015625 124.84461212158203 145.7628936767578 127.572998046875 148.92495727539062 C 130.67904663085938 151.8755645751953 130.90353393554688 156.5685577392578 128.13665771484375 159.251708984375 C 125.59535217285156 161.46261596679688 123.58500671386719 161.96893310546875 120.8925552368164 158.52723693847656" stroke-width="1.0" fill="rgb(125, 119, 152)" opacity="0.9930183"/>
    <path d="M 102.04781341552734 183.59814453125 C 97.99243927001953 180.38055419921875 97.28809356689453 173.41001892089844 100.2628173828125 170.7965850830078 C 103.39705657958984 168.81552124023438 120.51084899902344 168.59202575683594 123.56906127929688 170.80291748046875 C 127.38804626464844 173.53921508789062 127.06031036376953 178.8433074951172 123.12454986572266 182.85874938964844 C 120.57193756103516 185.6230926513672 119.67929077148438 185.8130645751953 112.49127197265625 186.08120727539062 C 105.85675811767578 185.99154663085938 104.21875 185.69378662109375 102.04781341552734 183.59814453125" stroke-width="0.0" fill="rgb(181, 123, 168)" opacity="0.9958474"/>
    <path d="M 82.21870422363281 126.37432098388672 C 79.05125427246094 125.19873809814453 76.20392608642578 120.67744445800781 76.187744140625 116.02264404296875 C 76.06597900390625 107.80982971191406 86.99494171142578 102.91155242919922 92.98204040527344 108.74850463867188 C 98.37812805175781 113.74188232421875 97.75751495361328 121.05072784423828 91.70928955078125 125.16246795654297 C 87.7697982788086 127.72207641601562 86.04480743408203 127.91654968261719 82.21870422363281 126.37432098388672" stroke-width="1.0" fill="rgb(73, 82, 156)" opacity="0.9887304"/>
    <path d="M 133.70008850097656 126.03671264648438 C 124.59968566894531 120.78359985351562 128.4685516357422 106.49226379394531 138.6999053955078 106.3212890625 C 148.9998779296875 106.41046142578125 152.60113525390625 119.95972442626953 144.06695556640625 125.39783477783203 C 140.0610809326172 127.61824798583984 137.36509704589844 127.74356079101562 133.70008850097656 126.03671264648438" stroke-width="1.0" fill="rgb(73, 82, 155)" opacity="0.9897418"/>
    <path d="M 106.59400177001953 172.90130615234375 C 102.63712310791016 169.7197265625 104.32062530517578 167.9332275390625 112.18632507324219 168.14907836914062 C 119.37775421142578 168.02394104003906 121.63082885742188 169.45693969726562 118.82437896728516 172.0311279296875 C 116.07035064697266 175.192138671875 109.74762725830078 175.50535583496094 106.59400177001953 172.90130615234375" stroke-width="1.0" fill="rgb(252, 60, 169)" opacity="0.98563814"/>
  </g>
</svg>
