<?xml version="1.0" ?>
<svg xmlns="http://www.w3.org/2000/svg" version="1.1" width="224" height="224">
  <defs/>
  <g>
    <path d="M 52.37275314331055 163.93618774414062 C 46.520713806152344 160.74252319335938 42.723236083984375 156.07595825195312 40.915687561035156 150.10443115234375 L 40.28076171875 146.83396911621094 L 35.342079162597656 146.5313720703125 C 31.19469451904297 146.52926635742188 29.85820770263672 146.0526580810547 29.301124572753906 144.7605743408203 C 28.008575439453125 142.83670043945312 28.00000762939453 142.26524353027344 29.412696838378906 140.720458984375 C 30.083038330078125 139.77093505859375 31.78960418701172 139.23193359375 34.20543670654297 139.1986541748047 L 38.852508544921875 139.24588012695312 L 39.4744873046875 132.74215698242188 C 40.75775909423828 123.38917541503906 44.29127502441406 116.26248931884766 50.95013427734375 109.46281433105469 C 59.57622146606445 101.02397918701172 70.75701904296875 96.10599517822266 82.73341369628906 96.0881118774414 L 89.03608703613281 96.35574340820312 L 88.87203979492188 85.97008514404297 C 88.69700622558594 74.76296997070312 89.68479919433594 71.82976531982422 93.82530212402344 69.04583740234375 C 95.0079345703125 68.08854675292969 97.56793212890625 67.09356689453125 99.53036499023438 67.01286315917969 C 102.71280670166016 66.63555908203125 102.58351135253906 66.45594787597656 102.41532135009766 62.87723922729492 C 103.38500213623047 58.377506256103516 105.0947265625 57.4329948425293 112.04246520996094 57.626434326171875 C 118.53820037841797 57.573974609375 120.13373565673828 58.59998321533203 121.2424545288086 63.144500732421875 C 121.203857421875 66.62367248535156 121.146240234375 66.56948852539062 124.49901580810547 66.89998626708984 C 128.61770629882812 67.51235961914062 131.67501831054688 69.54722595214844 133.56683349609375 72.99429321289062 C 134.6953887939453 75.12345123291016 134.82095336914062 77.68417358398438 134.9054412841797 85.88639831542969 L 134.93804931640625 96.26648712158203 L 141.54623413085938 96.22422790527344 C 149.5093231201172 96.18611145019531 154.39596557617188 97.58069610595703 163.07479858398438 101.77177429199219 C 170.3819122314453 105.76048278808594 176.61300659179688 111.84073638916016 180.18508911132812 118.54811096191406 C 182.90042114257812 123.20368194580078 184.87127685546875 131.42837524414062 184.73300170898438 136.82937622070312 L 185.055908203125 139.29090881347656 L 189.59033203125 139.15634155273438 C 191.998779296875 139.33856201171875 193.9622344970703 139.65711975097656 194.57757568359375 140.55191040039062 C 195.9364013671875 142.26499938964844 196.0 142.83462524414062 194.7952880859375 144.66262817382812 C 194.10366821289062 145.7213592529297 192.63595581054688 146.14639282226562 188.80465698242188 146.50547790527344 C 185.01617431640625 146.51467895507812 183.7390594482422 146.91705322265625 183.56796264648438 147.86375427246094 C 182.2742919921875 152.9862060546875 178.50814819335938 159.15695190429688 175.63848876953125 161.03163146972656 C 169.3992919921875 166.56700134277344 171.63841247558594 166.0289306640625 111.47915649414062 165.92898559570312 L 56.6269416809082 165.91790771484375 L 52.37275314331055 163.93618774414062" stroke-width="1.0" fill="rgb(85, 92, 150)" opacity="0.98858464"/>
    <path d="M 135.68894958496094 63.72114181518555 C 135.04867553710938 62.85191345214844 134.64935302734375 61.92850875854492 134.9222869873047 60.92683410644531 C 134.67385864257812 58.31006622314453 136.51986694335938 57.76783752441406 145.05364990234375 57.782386779785156 C 151.49417114257812 57.732994079589844 153.82135009765625 57.95237731933594 154.450439453125 59.07158660888672 C 155.28057861328125 59.8183708190918 155.83792114257812 60.664215087890625 155.6549835205078 61.00013732910156 C 155.77415466308594 61.47457504272461 155.3209686279297 62.401920318603516 154.3621368408203 63.501129150390625 C 152.88583374023438 64.97892761230469 136.9817657470703 65.1474838256836 135.68894958496094 63.72114181518555" stroke-width="1.0" fill="rgb(86, 87, 145)" opacity="0.99633026"/>
    <path d="M 122.14227294921875 85.1085433959961 C 122.14878845214844 74.58455657958984 122.30615234375 73.8726806640625 123.61843872070312 73.94293212890625 C 124.28916931152344 73.91275024414062 125.88877868652344 74.64762878417969 127.06932067871094 75.41213989257812 C 128.87120056152344 76.93248748779297 128.76214599609375 77.65476989746094 129.1039276123047 86.31241607666016 L 129.05088806152344 96.4289779663086 L 122.0624008178711 96.29088592529297 L 122.14227294921875 85.1085433959961" stroke-width="1.0" fill="rgb(212, 231, 249)" opacity="0.9966165"/>
    <path d="M 106.71076965332031 84.82221984863281 L 106.9549560546875 74.24259185791016 L 117.02305603027344 74.2420883178711 L 117.1076889038086 85.19482421875 L 117.3119888305664 96.17268371582031 L 106.6757583618164 96.16249084472656 L 106.71076965332031 84.82221984863281" stroke-width="1.0" fill="rgb(252, 168, 116)" opacity="0.99812406"/>
    <path d="M 96.76622009277344 96.3169174194336 C 94.46922302246094 95.68578338623047 94.77860260009766 95.51535034179688 94.84395599365234 86.50386047363281 C 94.49713897705078 76.64693450927734 96.30406188964844 73.62718963623047 100.222412109375 73.82414245605469 C 102.21781921386719 74.11705780029297 101.80326843261719 75.25402069091797 101.62353515625 84.15716552734375 C 102.1658935546875 93.794189453125 101.69195556640625 97.24689483642578 100.10942840576172 96.31499481201172 C 99.58321380615234 96.53594207763672 98.33255767822266 96.26899719238281 96.76622009277344 96.3169174194336" stroke-width="0.0" fill="rgb(214, 232, 251)" opacity="1.0"/>
    <path d="M 46.01667785644531 136.5758514404297 C 46.048828125 132.3335418701172 48.57206726074219 124.31231689453125 51.4971923828125 120.13500213623047 C 54.51670455932617 115.56795501708984 59.9842414855957 110.61117553710938 65.08200073242188 107.81059265136719 C 72.97006225585938 103.44207000732422 74.81532287597656 103.2768325805664 112.92420959472656 103.40119934082031 C 147.84426879882812 103.2954330444336 148.22438049316406 103.38770294189453 153.14633178710938 105.13827514648438 C 167.18914794921875 110.03976440429688 176.66233825683594 121.23890686035156 177.61453247070312 134.08277893066406 L 178.16993713378906 139.50672912597656 L 46.07551574707031 139.34849548339844 L 46.01667785644531 136.5758514404297" stroke-width="1.0" fill="rgb(144, 162, 183)" opacity="0.9917403"/>
    <path d="M 123.42749786376953 91.64547729492188 C 123.44657135009766 88.30374908447266 123.66717529296875 87.88081359863281 125.69493103027344 88.1173095703125 C 127.48355102539062 88.39972686767578 127.8704833984375 89.23654174804688 127.9406967163086 91.52506256103516 C 127.86698150634766 93.86107635498047 127.3650131225586 94.7126235961914 125.79969787597656 95.11346435546875 C 123.68309783935547 95.17831420898438 123.3885269165039 94.8397445678711 123.42749786376953 91.64547729492188" stroke-width="1.0" fill="rgb(95, 120, 173)" opacity="0.98167485"/>
    <path d="M 95.83794403076172 91.62093353271484 C 95.92105102539062 88.67868041992188 96.1253662109375 88.2249984741211 98.19689178466797 88.35086059570312 C 100.25066375732422 88.28123474121094 100.45433044433594 88.70771026611328 100.48745727539062 91.51043701171875 C 100.4306869506836 94.42745208740234 100.12030029296875 94.88168334960938 98.17374420166016 94.767578125 C 95.9925308227539 94.8078842163086 95.83230590820312 94.41041564941406 95.83794403076172 91.62093353271484" stroke-width="1.0" fill="rgb(101, 122, 172)" opacity="0.9772998"/>
  </g>
</svg>
