<?xml version="1.0" ?>
<svg xmlns="http://www.w3.org/2000/svg" version="1.1" width="224" height="224">
  <defs/>
  <g>
    <path d="M 62.17253112792969 28.0 C 95.39058685302734 28.0 128.608642578125 28.0 161.82669067382812 28.0 C 165.98934936523438 28.411842346191406 168.5343780517578 30.956871032714844 168.9469757080078 35.11951446533203 C 168.9469757080078 86.1329345703125 168.9469757080078 137.14633178710938 168.9469757080078 188.1605224609375 C 168.81808471679688 189.5302734375 168.6228485107422 190.7070770263672 167.883056640625 191.90293884277344 C 165.562255859375 195.6552734375 161.05258178710938 196.0 157.55650329589844 193.85690307617188 C 142.37025451660156 182.46719360351562 127.18473815917969 171.07748413085938 111.99847412109375 159.6877899169922 C 96.8129653930664 171.07748413085938 81.62821960449219 182.46719360351562 66.44271850585938 193.85690307617188 C 62.94664001464844 196.0 58.437744140625 195.6552734375 56.116943359375 191.90293884277344 C 55.37715148925781 190.7070770263672 55.181907653808594 189.5302734375 55.053016662597656 188.1605224609375 C 55.053016662597656 137.14633178710938 55.053016662597656 86.1329345703125 55.053016662597656 35.11951446533203 C 55.4740104675293 30.94695281982422 57.99920654296875 28.42023468017578 62.17253112792969 28.0 C 62.17253112792969 28.0 62.17253112792969 28.0 62.17253112792969 28.0" stroke-width="0.0" fill="rgb(243, 149, 142)" opacity="1.0"/>
    <path d="M 94.02540588378906 88.50635528564453 C 106.00770568847656 88.50635528564453 117.9892349243164 88.50635528564453 129.97152709960938 88.50635528564453 C 131.44729614257812 88.65507507324219 132.69273376464844 88.8724365234375 133.95266723632812 89.72205352783203 C 137.60890197753906 92.18547058105469 138.1237030029297 97.54093933105469 135.00668334960938 100.657958984375 C 133.57972717285156 102.08491516113281 131.91404724121094 102.5470962524414 129.97152709960938 102.74310302734375 C 117.9892349243164 102.74310302734375 106.00770568847656 102.74310302734375 94.02540588378906 102.74310302734375 C 92.08365631103516 102.5470962524414 90.41874694824219 102.08491516113281 88.9925537109375 100.657958984375 C 85.8770523071289 97.54093933105469 86.3910903930664 92.18623352050781 90.0457992553711 89.72205352783203 C 91.30572509765625 88.8724365234375 92.55040740966797 88.65507507324219 94.02540588378906 88.50635528564453 C 94.02540588378906 88.50635528564453 94.02540588378906 88.50635528564453 94.02540588378906 88.50635528564453" stroke-width="0.0" fill="rgb(236, 80, 68)" opacity="1.0"/>
  </g>
</svg>
