<?xml version="1.0" ?>
<svg xmlns="http://www.w3.org/2000/svg" version="1.1" width="224" height="224">
  <defs/>
  <g>
    <path d="M 66.50108337402344 28.00000762939453 C 96.8346939086914 28.00000762939453 127.1683120727539 28.00000762939453 157.50192260742188 28.00000762939453 C 161.5961456298828 28.405006408691406 164.0951385498047 30.907745361328125 164.50013732910156 35.00122833251953 C 164.50013732910156 46.66742706298828 164.50013732910156 58.33287048339844 164.50013732910156 69.99906921386719 C 129.5000457763672 69.99906921386719 94.50070190429688 69.99906921386719 59.500614166259766 69.99906921386719 C 59.500614166259766 58.33287048339844 59.500614166259766 46.66742706298828 59.500614166259766 35.00122833251953 C 59.91461181640625 30.897994995117188 62.397850036621094 28.41400909423828 66.50108337402344 28.00000762939453 C 66.50108337402344 28.00000762939453 66.50108337402344 28.00000762939453 66.50108337402344 28.00000762939453" stroke-width="0.0" fill="rgb(231, 233, 233)" opacity="1.0" stroke="rgb(0, 0, 0)" stroke-opacity="1.0" stroke-linecap="round" stroke-linejoin="round"/>
    <path d="M 59.500614166259766 63.000850677490234 C 94.50070190429688 63.000850677490234 129.5000457763672 63.000850677490234 164.50013732910156 63.000850677490234 C 176.02157592773438 63.30534744262695 186.44728088378906 70.04331970214844 190.63900756835938 80.96251678466797 C 191.8817596435547 84.20100402832031 192.40826416015625 87.54673767089844 192.49900817871094 91.00047302246094 C 192.49900817871094 114.3336181640625 192.49900817871094 137.66676330566406 192.49900817871094 160.9991455078125 C 192.09552001953125 165.0911407470703 189.5927734375 167.5953826904297 185.50079345703125 168.00112915039062 C 136.5012664794922 168.00112915039062 87.50173950195312 168.00112915039062 38.5022087097168 168.00112915039062 C 34.39972686767578 167.58712768554688 31.914993286132812 165.10238647460938 31.500991821289062 160.9991455078125 C 31.500991821289062 137.66676330566406 31.500991821289062 114.3336181640625 31.500991821289062 91.00047302246094 C 31.80548858642578 79.48127746582031 38.54570770263672 69.0533218383789 49.46190643310547 64.86158752441406 C 52.701141357421875 63.618099212646484 56.046878814697266 63.09160232543945 59.500614166259766 63.000850677490234 C 59.500614166259766 63.000850677490234 59.500614166259766 63.000850677490234 59.500614166259766 63.000850677490234" stroke-width="0.0" fill="rgb(121, 122, 123)" opacity="1.0" stroke="rgb(0, 0, 0)" stroke-opacity="1.0" stroke-linecap="round" stroke-linejoin="round"/>
    <path d="M 73.50004577636719 119.0000991821289 C 99.16643524169922 119.0000991821289 124.83357238769531 119.0000991821289 150.4999542236328 119.0000991821289 C 154.37217712402344 119.47334289550781 157.04066467285156 122.10807800292969 157.50192260742188 126.0013198852539 C 157.50192260742188 147.001220703125 157.50192260742188 168.00112915039062 157.50192260742188 189.00177001953125 C 157.10366821289062 193.02102661132812 154.71267700195312 195.48699951171875 150.70469665527344 196.0 C 124.9085693359375 196.0 99.11168670654297 196.0 73.3155517578125 196.0 C 69.53256225585938 195.42776489257812 66.94432830810547 192.8245086669922 66.49807739257812 189.00177001953125 C 66.49807739257812 168.00112915039062 66.49807739257812 147.001220703125 66.49807739257812 126.0013198852539 C 66.91207885742188 121.89733123779297 69.39607238769531 119.41409301757812 73.50004577636719 119.0000991821289 C 73.50004577636719 119.0000991821289 73.50004577636719 119.0000991821289 73.50004577636719 119.0000991821289" stroke-width="0.0" fill="rgb(231, 233, 233)" opacity="1.0" stroke="rgb(0, 0, 0)" stroke-opacity="1.0" stroke-linecap="round" stroke-linejoin="round"/>
    <path d="M 70.00056457519531 94.49995422363281 C 70.00056457519531 94.49995422363281 70.00056457519531 94.49995422363281 70.00056457519531 94.49995422363281 C 69.76206970214844 96.86844635009766 68.97381591796875 98.91593933105469 66.91507720947266 100.304931640625 C 62.349849700927734 103.38516235351562 56.001129150390625 100.00042724609375 56.001129150390625 94.49995422363281 C 56.001129150390625 88.99948120117188 62.349849700927734 85.61399841308594 66.91507720947266 88.6942367553711 C 68.97381591796875 90.0832290649414 69.76206970214844 92.13072204589844 70.00056457519531 94.49995422363281 C 70.00056457519531 94.49995422363281 70.00056457519531 94.49995422363281 70.00056457519531 94.49995422363281" stroke-width="0.0" fill="rgb(236, 80, 68)" opacity="1.0" stroke="rgb(0, 0, 0)" stroke-opacity="1.0" stroke-linecap="round" stroke-linejoin="round"/>
    <path d="M 94.50145721435547 94.49995422363281 C 94.50145721435547 94.49995422363281 94.50145721435547 94.49995422363281 94.50145721435547 94.49995422363281 C 94.26220703125 96.86919403076172 93.47395324707031 98.91668701171875 91.41522216796875 100.304931640625 C 86.84923553466797 103.38441467285156 80.50126647949219 100.00118255615234 80.50126647949219 94.49995422363281 C 80.50126647949219 88.99873352050781 86.84923553466797 85.61549377441406 91.41522216796875 88.6942367553711 C 93.47395324707031 90.0832290649414 94.26220703125 92.13072204589844 94.50145721435547 94.49995422363281 C 94.50145721435547 94.49995422363281 94.50145721435547 94.49995422363281 94.50145721435547 94.49995422363281" stroke-width="0.0" fill="rgb(76, 190, 134)" opacity="1.0" stroke="rgb(0, 0, 0)" stroke-opacity="1.0" stroke-linecap="round" stroke-linejoin="round"/>
    <path d="M 84.0007553100586 132.99952697753906 C 102.66667175292969 132.99952697753906 121.33333587646484 132.99952697753906 139.99923706054688 132.99952697753906 C 142.73448181152344 133.55078125 144.96871948242188 136.4817657470703 142.4764862060547 138.97325134277344 C 141.58999633789062 139.85899353027344 141.16775512695312 139.7622528076172 139.99923706054688 139.99774169921875 C 121.33333587646484 139.99774169921875 102.66667175292969 139.99774169921875 84.0007553100586 139.99774169921875 C 82.8330078125 139.7622528076172 82.41150665283203 139.85826110839844 81.5265121459961 138.97325134277344 C 79.0365219116211 136.4832763671875 81.26551055908203 133.55152893066406 84.0007553100586 132.99952697753906 C 84.0007553100586 132.99952697753906 84.0007553100586 132.99952697753906 84.0007553100586 132.99952697753906" stroke-width="0.0" fill="rgb(173, 175, 175)" opacity="1.0" stroke="rgb(0, 0, 0)" stroke-opacity="1.0" stroke-linecap="round" stroke-linejoin="round"/>
    <path d="M 84.0007553100586 154.00094604492188 C 102.66667175292969 154.00094604492188 121.33333587646484 154.00094604492188 139.99923706054688 154.00094604492188 C 142.73448181152344 154.55218505859375 144.96871948242188 157.48316955566406 142.4764862060547 159.9746551513672 C 141.58999633789062 160.8603973388672 141.16775512695312 160.76365661621094 139.99923706054688 160.9991455078125 C 121.33333587646484 160.9991455078125 102.66667175292969 160.9991455078125 84.0007553100586 160.9991455078125 C 81.26551055908203 160.44715881347656 79.0365219116211 157.5154266357422 81.5265121459961 155.02618408203125 C 82.41150665283203 154.14044189453125 82.8330078125 154.23643493652344 84.0007553100586 154.00094604492188 C 84.0007553100586 154.00094604492188 84.0007553100586 154.00094604492188 84.0007553100586 154.00094604492188" stroke-width="0.0" fill="rgb(173, 175, 175)" opacity="1.0" stroke="rgb(0, 0, 0)" stroke-opacity="1.0" stroke-linecap="round" stroke-linejoin="round"/>
    <path d="M 84.0007553100586 174.9993438720703 C 102.66667175292969 174.9993438720703 121.33333587646484 174.9993438720703 139.99923706054688 174.9993438720703 C 141.16775512695312 175.23483276367188 141.58999633789062 175.1388397216797 142.4764862060547 176.02459716796875 C 144.96871948242188 178.51531982421875 142.73448181152344 181.4485626220703 139.99923706054688 182.0005645751953 C 121.33333587646484 182.0005645751953 102.66667175292969 182.0005645751953 84.0007553100586 182.0005645751953 C 81.26551055908203 181.44781494140625 79.0365219116211 178.51382446289062 81.5265121459961 176.02459716796875 C 82.41150665283203 175.1388397216797 82.8330078125 175.23483276367188 84.0007553100586 174.9993438720703 C 84.0007553100586 174.9993438720703 84.0007553100586 174.9993438720703 84.0007553100586 174.9993438720703" stroke-width="0.0" fill="rgb(173, 175, 175)" opacity="1.0" stroke="rgb(0, 0, 0)" stroke-opacity="1.0" stroke-linecap="round" stroke-linejoin="round"/>
  </g>
</svg>
