<?xml version="1.0" ?>
<svg xmlns="http://www.w3.org/2000/svg" version="1.1" width="224" height="224">
  <defs/>
  <g>
    <path d="M 83.4228286743164 182.2636260986328 C 83.09546661376953 178.33587646484375 82.91181945800781 124.59056854248047 85.857666015625 111.30760192871094 C 86.40013885498047 104.45481872558594 87.26737976074219 97.62965393066406 87.63025665283203 95.20423889160156 C 87.19650268554688 91.971435546875 84.71837615966797 93.86830139160156 81.83883666992188 98.94512939453125 C 78.38007354736328 104.43512725830078 76.1209716796875 111.00787353515625 74.79759979248047 119.7061538696289 C 74.32982635498047 128.56039428710938 72.52264404296875 131.31900024414062 67.4644775390625 132.34765625 C 62.01469039916992 133.5684814453125 60.059791564941406 132.02696228027344 56.814266204833984 124.17864227294922 C 53.2338752746582 115.86933898925781 53.6600456237793 112.99313354492188 55.58540344238281 104.18386840820312 C 58.18484878540039 93.03450012207031 64.15669250488281 82.99708557128906 71.82563781738281 75.15974426269531 C 75.63699340820312 71.37666320800781 81.34285736083984 67.31884765625 84.24397277832031 66.0126724243164 L 89.48827362060547 63.69209671020508 L 89.4107666015625 53.35803985595703 C 91.10423278808594 39.042388916015625 96.4593276977539 33.06330108642578 106.0193862915039 29.779403686523438 C 112.98633575439453 28.0 120.88648223876953 29.42967987060547 126.89041900634766 35.12836456298828 C 130.37623596191406 38.308677673339844 132.6803741455078 42.03026580810547 134.3693084716797 52.158180236816406 C 134.87066650390625 61.74989318847656 136.07980346679688 65.60143280029297 139.09788513183594 64.70560455322266 C 140.26890563964844 65.44802856445312 144.24818420410156 68.1142349243164 148.4400634765625 71.49854278564453 C 161.49246215820312 81.99514770507812 169.42971801757812 98.13623809814453 170.07073974609375 111.31632232666016 C 170.7500762939453 115.32295227050781 170.03346252441406 118.22945404052734 166.8757781982422 124.63082122802734 C 162.9452667236328 132.3515167236328 160.8462677001953 134.1380615234375 156.73777770996094 132.25881958007812 C 152.3277587890625 130.2899932861328 150.64761352539062 126.4100341796875 149.84738159179688 120.85025787353516 C 150.45831298828125 112.07270050048828 143.05514526367188 94.63402557373047 137.8998565673828 92.86972045898438 C 136.9779510498047 94.4680404663086 137.01687622070312 95.97876739501953 137.84127807617188 98.526611328125 C 138.81149291992188 109.25996398925781 141.5377197265625 133.2954864501953 140.90692138671875 155.98704528808594 L 140.82992553710938 182.2681884765625 L 129.74102783203125 182.4945068359375 C 124.43588256835938 182.70132446289062 119.49105072021484 182.07513427734375 116.39396667480469 182.34585571289062 C 115.80135345458984 180.91053771972656 116.23040771484375 179.27340698242188 116.13600158691406 158.46426391601562 L 115.99703216552734 136.45875549316406 L 113.5656967163086 136.01980590820312 C 111.818359375 136.0292510986328 110.04769134521484 136.22109985351562 108.3766098022461 136.550537109375 C 108.27315521240234 138.17672729492188 108.17105102539062 147.91561889648438 108.14444732666016 158.7904815673828 C 108.17149353027344 175.2340545654297 108.38325500488281 180.1691436767578 108.64002990722656 182.50827026367188 C 104.72776794433594 183.16644287109375 84.15643310546875 183.5960693359375 83.4228286743164 182.2636260986328" stroke-width="0.0" fill="rgb(241, 243, 242)" opacity="0.9944538"/>
    <path d="M 123.21367645263672 194.67465209960938 C 121.44740295410156 194.35826110839844 119.09719848632812 193.40609741210938 117.95437622070312 192.68682861328125 C 110.27899932861328 188.32763671875 118.57649230957031 177.40199279785156 128.86790466308594 177.50192260742188 C 140.093017578125 177.80581665039062 147.59698486328125 188.90753173828125 139.16787719726562 193.1240234375 C 135.4498291015625 195.08428955078125 127.16291046142578 196.0 123.21367645263672 194.67465209960938" stroke-width="1.0" fill="rgb(78, 71, 73)" opacity="1.0"/>
    <path d="M 103.42008972167969 66.77397155761719 C 100.30294036865234 65.17356872558594 97.86235046386719 62.99358367919922 94.97996520996094 58.37262725830078 C 93.10946655273438 55.1497917175293 91.61511993408203 51.92903518676758 91.78843688964844 51.40357971191406 C 91.78155517578125 50.58355712890625 93.92303466796875 49.12480163574219 96.97305297851562 47.83625793457031 C 103.99510192871094 43.82489776611328 117.208984375 43.28009796142578 124.8675765991211 46.79277801513672 C 132.66806030273438 50.014854431152344 133.68594360351562 50.8841438293457 131.04196166992188 55.8723258972168 C 129.22311401367188 60.73276138305664 123.32279968261719 66.6829833984375 119.08702850341797 67.81459045410156 C 114.41163635253906 69.72722625732422 108.34429931640625 69.37531280517578 103.42008972167969 66.77397155761719" stroke-width="1.0" fill="rgb(47, 15, 10)" opacity="0.9955358"/>
    <path d="M 106.27587127685547 102.9116439819336 C 99.03669738769531 99.08345794677734 96.38296508789062 90.42247009277344 100.28701782226562 83.745361328125 C 102.6950454711914 79.59483337402344 107.10393524169922 77.54377746582031 112.92691040039062 77.59109497070312 C 116.49636840820312 77.42337036132812 118.08597564697266 78.09774780273438 121.02302551269531 80.79376220703125 C 124.17904663085938 83.82937622070312 125.11357116699219 84.90630340576172 125.2930679321289 89.70042419433594 C 125.68702697753906 96.27190399169922 123.40586853027344 100.26543426513672 118.085693359375 102.86030578613281 C 113.37532806396484 105.10413360595703 110.84550476074219 105.06905364990234 106.27587127685547 102.9116439819336" stroke-width="1.0" fill="rgb(99, 100, 103)" opacity="0.9960171"/>
    <path d="M 155.83460998535156 132.1254425048828 C 152.05117797851562 131.0527801513672 149.3018798828125 126.35234832763672 149.32284545898438 121.7060317993164 C 149.4309539794922 118.1484146118164 149.92874145507812 116.84288024902344 152.65362548828125 114.79702758789062 C 159.2263641357422 109.18492889404297 170.62100219726562 113.14856719970703 170.68612670898438 120.63866424560547 C 170.76612854003906 125.89439392089844 168.06625366210938 130.35321044921875 164.034912109375 131.7991485595703 C 159.97494506835938 133.5911865234375 159.01956176757812 133.84718322753906 155.83460998535156 132.1254425048828" stroke-width="1.0" fill="rgb(243, 202, 92)" opacity="0.9961859"/>
    <path d="M 60.70661926269531 131.94729614257812 C 56.83089828491211 130.37745666503906 54.1922721862793 125.88423919677734 54.33244705200195 121.59879302978516 C 53.79045867919922 116.66539001464844 58.79450988769531 112.23932647705078 64.14366149902344 112.38697814941406 C 72.90692138671875 112.26691436767578 77.59693908691406 117.73321533203125 75.27716064453125 125.3254623413086 C 73.5681381225586 131.7095184326172 66.70472717285156 134.6292724609375 60.70661926269531 131.94729614257812" stroke-width="1.0" fill="rgb(244, 202, 92)" opacity="0.9886434"/>
    <path d="M 85.59992980957031 193.20626831054688 C 82.01079559326172 191.3397216796875 81.28807067871094 187.9788818359375 83.19422149658203 184.06549072265625 C 88.13215637207031 175.0297393798828 104.10057067871094 175.40615844726562 108.64730834960938 184.83291625976562 C 112.09536743164062 191.06544494628906 107.23446655273438 194.60037231445312 95.86153411865234 195.05294799804688 C 91.30426788330078 194.84933471679688 87.36965942382812 194.07911682128906 85.59992980957031 193.20626831054688" stroke-width="1.0" fill="rgb(80, 71, 74)" opacity="0.99856216"/>
    <path d="M 110.46659088134766 91.33583068847656 C 110.21151733398438 90.01936340332031 111.26496887207031 88.85881805419922 112.50768280029297 88.84037780761719 C 114.05142211914062 88.73274230957031 115.16905975341797 89.8736343383789 115.2227783203125 91.10591125488281 C 115.06169891357422 92.42821502685547 114.09112548828125 93.55934143066406 112.92649841308594 93.60587310791016 C 111.53279113769531 93.6563491821289 110.22122955322266 92.59615325927734 110.46659088134766 91.33583068847656" stroke-width="1.0" fill="rgb(87, 87, 91)" opacity="0.93930835"/>
  </g>
</svg>
