<?xml version="1.0" ?>
<svg xmlns="http://www.w3.org/2000/svg" version="1.1" width="224" height="224">
  <defs/>
  <g>
    <path d="M 51.83323287963867 160.93186950683594 C 51.16606521606445 160.11627197265625 50.578880310058594 145.12857055664062 51.05561447143555 127.18402862548828 L 50.95085906982422 94.4515151977539 L 60.2165641784668 86.31574249267578 C 65.7271728515625 81.52455139160156 71.04847717285156 77.33506774902344 71.92369079589844 76.85382843017578 C 73.01553344726562 76.32647705078125 74.7507095336914 74.95767974853516 76.23534393310547 74.196044921875 C 84.40882110595703 66.101318359375 106.02147674560547 49.58379364013672 109.1820068359375 46.40495300292969 C 112.5239486694336 45.723060607910156 112.9444351196289 45.64275360107422 115.6012191772461 46.98881530761719 C 119.78384399414062 48.34556579589844 173.7066192626953 92.76991271972656 174.6313018798828 95.6672592163086 C 175.16192626953125 96.14714050292969 175.35073852539062 105.93282318115234 174.04928588867188 118.55857849121094 C 174.44041442871094 148.08863830566406 174.2111358642578 158.54786682128906 172.82562255859375 160.13531494140625 C 172.01470947265625 161.8227081298828 161.48072814941406 161.84339904785156 111.63604736328125 161.74957275390625 C 78.54182434082031 161.66468811035156 51.40415573120117 161.25714111328125 51.83323287963867 160.93186950683594" stroke-width="0.0" fill="rgb(232, 219, 205)" opacity="0.990542"/>
    <path d="M 41.42798614501953 94.27210998535156 C 39.869163513183594 92.96992492675781 39.41236877441406 91.2348861694336 39.11444854736328 88.96560668945312 C 38.96454620361328 85.0200424194336 36.644744873046875 87.17085266113281 75.15151977539062 54.98588562011719 C 101.97113037109375 32.33140563964844 105.35948181152344 29.47455596923828 109.90059661865234 28.733680725097656 C 114.74150848388672 28.00000762939453 117.3787841796875 28.67908477783203 122.54840850830078 32.284629821777344 C 130.30874633789062 38.698699951171875 184.747802734375 84.1041259765625 185.31707763671875 85.50448608398438 C 186.59100341796875 89.50447845458984 185.75665283203125 92.07290649414062 183.16796875 94.199462890625 C 180.23716735839844 96.75101470947266 175.39776611328125 96.94747924804688 171.4058380126953 94.5001449584961 C 167.85440063476562 91.66016387939453 129.6336669921875 59.818172454833984 119.91190338134766 51.52176284790039 C 116.18553924560547 48.01210021972656 112.8204574584961 45.05449676513672 112.82173919677734 45.27671813964844 C 112.3201904296875 44.88536071777344 100.48222351074219 54.85069274902344 86.7262954711914 66.80551147460938 C 49.05620193481445 98.46951293945312 51.55207443237305 96.53211212158203 46.999290466308594 96.49600219726562 C 44.78740692138672 96.10562133789062 42.765960693359375 95.2933349609375 41.42798614501953 94.27210998535156" stroke-width="1.0" fill="rgb(92, 58, 43)" opacity="0.99930364"/>
    <path d="M 35.246055603027344 194.62835693359375 C 30.506248474121094 191.2478485107422 30.213890075683594 189.41693115234375 34.85595703125 179.18148803710938 C 41.888427734375 162.01141357421875 39.78205108642578 162.18577575683594 66.8694076538086 161.76882934570312 L 87.97154998779297 162.1112518310547 L 87.92044067382812 139.1035919189453 C 88.05976104736328 116.43863677978516 88.42266082763672 116.00686645507812 91.30198669433594 113.9361572265625 C 95.60714721679688 108.84490966796875 100.13775634765625 107.55615997314453 111.62073516845703 108.07889556884766 C 121.12848663330078 107.69245147705078 123.11589050292969 107.71575927734375 126.82498168945312 109.9424819946289 C 134.99647521972656 113.84857177734375 135.78248596191406 115.42513275146484 135.72518920898438 140.51998901367188 L 135.54905700683594 162.09532165527344 L 157.8433837890625 161.85826110839844 L 179.7404327392578 162.44580078125 L 183.05111694335938 165.74729919433594 C 185.39840698242188 168.73983764648438 193.12611389160156 186.28997802734375 193.13412475585938 189.6099853515625 C 193.78610229492188 190.491943359375 192.42886352539062 191.9692840576172 191.04351806640625 193.79412841796875 C 187.9272003173828 196.0 187.41741943359375 195.43685913085938 112.84976959228516 195.51809692382812 C 57.48369598388672 195.46649169921875 36.369972229003906 195.80792236328125 35.246055603027344 194.62835693359375" stroke-width="1.0" fill="rgb(93, 59, 44)" opacity="0.9937537"/>
    <path d="M 122.5886459350586 140.2426300048828 C 121.3551254272461 138.93870544433594 120.30349731445312 137.23870849609375 120.36688995361328 136.41001892089844 C 120.35425567626953 134.8583984375 124.36241149902344 130.45703125 125.7488021850586 130.08444213867188 C 127.7096939086914 130.51422119140625 131.44009399414062 134.46221923828125 131.490478515625 136.52552795410156 C 131.60797119140625 138.62405395507812 127.75485229492188 142.57252502441406 125.759521484375 142.5322265625 C 125.285888671875 142.5194091796875 123.81199645996094 141.49786376953125 122.5886459350586 140.2426300048828" stroke-width="1.0" fill="rgb(51, 48, 50)" opacity="1.0"/>
  </g>
</svg>
