<?xml version="1.0" ?>
<svg xmlns="http://www.w3.org/2000/svg" version="1.1" width="224" height="224">
  <defs/>
  <g>
    <path d="M 52.00141906738281 191.71591186523438 C 48.327430725097656 190.35220336914062 41.660560607910156 184.25656127929688 39.673248291015625 179.7963409423828 C 36.8012809753418 175.4608154296875 36.93510055541992 163.61172485351562 39.774288177490234 157.93963623046875 C 44.501712799072266 148.02793884277344 52.20224380493164 143.44430541992188 62.02459716796875 142.84617614746094 C 67.03153991699219 144.2113494873047 70.4881362915039 143.83445739746094 71.73870849609375 143.98834228515625 C 72.53929138183594 142.6084747314453 73.52958679199219 113.3888931274414 70.82643127441406 106.19729614257812 C 68.91171264648438 103.10640716552734 66.99401092529297 96.85010528564453 66.54276275634766 92.86245727539062 C 65.28294372558594 88.57673645019531 63.279972076416016 81.25362396240234 61.90250778198242 76.08381652832031 C 57.831302642822266 61.18510437011719 52.21451187133789 41.317420959472656 50.38511276245117 40.445343017578125 C 48.77079772949219 39.39179992675781 44.62678527832031 38.84800720214844 40.360164642333984 38.82286071777344 C 34.761558532714844 39.02398681640625 31.18841552734375 38.72114562988281 29.485809326171875 37.453277587890625 C 28.234352111816406 34.60003662109375 28.0 34.07732391357422 30.015663146972656 31.494552612304688 C 32.466346740722656 29.545616149902344 33.71416473388672 29.18219757080078 43.09260559082031 29.488128662109375 C 52.627071380615234 30.398193359375 52.89146041870117 30.82518768310547 57.85359573364258 35.17906188964844 C 61.641353607177734 39.522438049316406 63.7120475769043 45.97270202636719 66.45564270019531 56.290008544921875 C 67.12000274658203 58.145973205566406 70.64202880859375 69.95248413085938 74.07262420654297 82.54021453857422 C 77.30020141601562 95.59685516357422 80.91890716552734 108.28662872314453 81.96662139892578 110.93852233886719 C 82.72911834716797 113.50077056884766 83.46400451660156 115.9894027709961 84.50634002685547 117.61793518066406 C 86.18955993652344 117.39010620117188 94.05589294433594 114.1094970703125 102.68315124511719 109.92961120605469 C 111.11193084716797 107.26007080078125 119.92405700683594 104.53729248046875 120.93998718261719 104.27039337158203 C 123.09598541259766 104.197509765625 169.64059448242188 152.09974670410156 171.53958129882812 157.92092895507812 C 175.01458740234375 163.48751831054688 174.27188110351562 178.265380859375 170.12608337402344 182.2947540283203 C 166.03436279296875 188.21072387695312 158.8465576171875 192.3292694091797 151.99057006835938 193.17027282714844 C 143.80752563476562 193.47247314453125 141.35391235351562 193.07229614257812 134.3194580078125 188.48269653320312 L 129.0845947265625 183.67904663085938 L 105.42528533935547 183.87210083007812 L 81.06665802001953 183.84909057617188 L 78.24544525146484 186.41390991210938 C 70.60653686523438 193.39041137695312 60.0079460144043 194.8177947998047 52.00141906738281 191.71591186523438" stroke-width="0.0" fill="rgb(8, 5, 41)" opacity="0.9943614"/>
    <path d="M 142.32150268554688 174.99322509765625 C 139.58934020996094 172.2297821044922 139.25392150878906 170.81056213378906 139.58135986328125 167.0718994140625 C 140.7935028076172 161.43612670898438 142.64352416992188 159.2505645751953 148.07614135742188 158.41433715820312 C 153.54600524902344 157.2432098388672 158.64976501464844 162.31773376464844 158.5345458984375 168.59194946289062 C 158.30116271972656 177.76625061035156 148.80648803710938 181.471435546875 142.32150268554688 174.99322509765625" stroke-width="1.0" fill="rgb(243, 81, 47)" opacity="0.98914653"/>
    <path d="M 168.9737091064453 152.92063903808594 C 165.511474609375 147.8062286376953 155.415771484375 142.38107299804688 149.90646362304688 142.65296936035156 C 145.135009765625 142.32786560058594 133.8268585205078 146.98020935058594 132.427001953125 149.45755004882812 C 131.73165893554688 150.8706512451172 125.21802520751953 151.09446716308594 112.8569564819336 150.98782348632812 L 94.60832977294922 150.9108123779297 L 89.26531982421875 134.2197723388672 C 86.27294921875 125.46902465820312 84.14974975585938 117.91964721679688 84.3134994506836 117.54022216796875 C 84.59967041015625 117.24526977539062 99.95563507080078 110.9720687866211 118.66651916503906 103.57322692871094 C 157.2860870361328 87.7557144165039 162.6448211669922 86.85159301757812 172.18869018554688 91.57032775878906 C 176.67857360839844 93.90140533447266 178.18832397460938 95.8882827758789 186.435546875 110.88197326660156 C 191.7111053466797 119.84876251220703 196.0 128.73924255371094 195.92352294921875 130.6754150390625 C 195.86080932617188 134.34434509277344 194.6134033203125 135.51446533203125 181.42799377441406 148.15969848632812 L 172.56019592285156 156.6494598388672 L 168.9737091064453 152.92063903808594" stroke-width="1.0" fill="rgb(246, 78, 48)" opacity="0.99375385"/>
    <path d="M 54.18838119506836 174.67703247070312 C 50.919715881347656 170.17593383789062 50.99961853027344 166.23312377929688 54.665035247802734 162.00762939453125 C 58.13666915893555 157.56655883789062 64.0628662109375 157.22860717773438 68.1784896850586 160.61541748046875 C 71.57832336425781 164.01133728027344 71.59815979003906 171.9224853515625 68.23875427246094 175.520751953125 C 64.28817749023438 179.14266967773438 57.66866683959961 178.79217529296875 54.18838119506836 174.67703247070312" stroke-width="1.0" fill="rgb(243, 81, 48)" opacity="0.991852"/>
  </g>
</svg>
