<?xml version="1.0" ?>
<svg xmlns="http://www.w3.org/2000/svg" version="1.1" width="224" height="224">
  <defs/>
  <g>
    <path d="M 116.01136016845703 159.59994506835938 C 114.63186645507812 157.821044921875 113.45586395263672 154.73638916015625 113.8194580078125 150.69903564453125 C 114.19379425048828 142.2403106689453 113.28707885742188 141.4070587158203 108.18854522705078 140.217529296875 C 90.16204833984375 134.4288787841797 77.83575439453125 124.63478088378906 71.13208770751953 111.74688720703125 L 67.5597915649414 103.45231628417969 L 66.26849365234375 91.64701843261719 C 67.41996765136719 80.03416442871094 67.9695816040039 78.49256896972656 70.58975219726562 69.96360778808594 C 72.20732116699219 65.30005645751953 73.52030944824219 60.91706085205078 73.7769546508789 59.34675979614258 C 71.80303955078125 59.97957229614258 69.99623107910156 59.90449905395508 68.21503448486328 60.76155090332031 C 66.64280700683594 61.38212203979492 64.92204284667969 61.65782165527344 64.64146423339844 61.41633605957031 C 64.37217712402344 61.156455993652344 64.11701965332031 55.96159362792969 64.14026641845703 49.86290740966797 C 63.444602966308594 39.091697692871094 63.864768981933594 38.93414306640625 66.4176254272461 34.96936798095703 C 69.58930969238281 30.29401397705078 75.42194366455078 27.99999237060547 81.87236785888672 28.688201904296875 C 91.67451477050781 29.611190795898438 97.84772491455078 36.758338928222656 98.17890167236328 47.44615936279297 C 97.7096176147461 55.91375732421875 96.17233276367188 59.7308235168457 90.57057189941406 65.30288696289062 L 85.49015808105469 68.52037048339844 L 85.63851928710938 74.57899475097656 C 86.7701187133789 85.40135192871094 88.85592651367188 87.1740493774414 97.44403076171875 83.91364288330078 C 104.8936996459961 80.64344787597656 123.39991760253906 80.8330307006836 132.89601135253906 84.12512969970703 C 139.8323974609375 85.81626892089844 151.32949829101562 91.36054229736328 157.26173400878906 94.98815155029297 C 163.908203125 100.02066802978516 179.48178100585938 112.71675872802734 183.17919921875 115.49559783935547 C 187.04745483398438 119.05635833740234 187.93124389648438 122.32424926757812 186.47608947753906 125.73990631103516 C 185.97994995117188 126.4888687133789 182.55270385742188 128.25897216796875 178.54708862304688 129.41111755371094 C 174.89895629882812 130.9944610595703 170.903076171875 132.776123046875 169.61428833007812 133.30528259277344 C 168.38455200195312 133.890380859375 163.6537322998047 135.8382568359375 159.2567901611328 137.62486267089844 C 154.594482421875 139.33050537109375 150.39111328125 141.03884887695312 148.9591522216797 141.1398162841797 C 148.73228454589844 142.70957946777344 148.07154846191406 146.54029846191406 148.552734375 150.58709716796875 C 148.04917907714844 154.97525024414062 147.51007080078125 159.18124389648438 146.60479736328125 159.62158203125 C 144.6080322265625 162.29629516601562 138.22921752929688 162.06634521484375 135.58087158203125 159.27516174316406 C 133.71917724609375 156.85418701171875 133.21446228027344 155.75421142578125 133.27334594726562 150.22348022460938 C 133.64732360839844 143.989990234375 133.40185546875 142.7236785888672 129.792236328125 144.1196746826172 C 128.42526245117188 144.8854217529297 127.90170288085938 146.81346130371094 128.37570190429688 151.4729766845703 C 128.48684692382812 155.2227020263672 127.42385864257812 158.55682373046875 126.46385955810547 159.7752685546875 C 123.79510498046875 162.0460205078125 118.07984924316406 162.16317749023438 116.01136016845703 159.59994506835938" stroke-width="0.0" fill="rgb(240, 244, 235)" opacity="0.996834"/>
    <path d="M 91.6446304321289 193.72076416015625 C 90.84882354736328 192.38917541503906 90.8648681640625 191.64288330078125 91.69996643066406 190.1153564453125 C 92.16626739501953 188.62307739257812 94.6520767211914 188.3124542236328 105.72917175292969 187.70164489746094 L 119.10968780517578 187.70021057128906 L 118.9727783203125 173.84320068359375 C 119.30079650878906 160.83534240722656 119.53948974609375 160.0819854736328 121.6304702758789 160.29660034179688 C 123.75582122802734 160.13055419921875 123.6407470703125 160.76759338378906 123.9818115234375 175.9477996826172 C 123.74459075927734 189.87423706054688 123.73408508300781 191.77088928222656 122.11006164550781 193.81216430664062 C 119.39341735839844 195.96356201171875 93.55614471435547 196.0 91.6446304321289 193.72076416015625" stroke-width="1.0" fill="rgb(238, 195, 66)" opacity="1.0"/>
    <path d="M 130.27308654785156 193.6229705810547 C 127.28861999511719 190.537109375 128.83905029296875 189.11764526367188 135.61898803710938 187.78294372558594 L 140.3856964111328 187.78329467773438 L 140.28456115722656 173.8047332763672 C 140.7747344970703 159.69778442382812 140.67185974121094 159.76025390625 142.86854553222656 160.25369262695312 C 145.340576171875 160.01791381835938 145.45419311523438 160.56564331054688 145.59432983398438 175.38502502441406 C 145.8992156982422 188.9637451171875 145.64328002929688 190.1044921875 143.89608764648438 192.92758178710938 C 141.962158203125 194.71340942382812 140.9323272705078 194.99217224121094 136.57748413085938 195.46142578125 C 133.4161376953125 195.48805236816406 131.04556274414062 194.60650634765625 130.27308654785156 193.6229705810547" stroke-width="1.0" fill="rgb(236, 194, 67)" opacity="0.9971974"/>
    <path d="M 71.78206634521484 45.56451416015625 C 70.43826293945312 42.915916442871094 72.78483581542969 40.33074188232422 74.63475799560547 42.033042907714844 C 75.69772338867188 42.91145324707031 75.76116943359375 43.684410095214844 74.40144348144531 45.27081298828125 C 72.8487548828125 47.12738037109375 72.77979278564453 47.05170440673828 71.78206634521484 45.56451416015625" stroke-width="1.0" fill="rgb(37, 42, 46)" opacity="0.9659407"/>
    <path d="M 37.738250732421875 74.73199462890625 C 37.061187744140625 74.58480834960938 36.068756103515625 72.91812133789062 36.223487854003906 70.99507141113281 C 36.42814636230469 67.97933959960938 38.777374267578125 66.0746078491211 54.38304901123047 55.38645935058594 L 64.62971496582031 48.26719665527344 L 68.55392456054688 50.214134216308594 C 74.65847778320312 53.47249221801758 75.37236022949219 54.512229919433594 74.12712097167969 56.98032760620117 C 73.73045349121094 58.41844940185547 72.45962524414062 59.49789047241211 71.87650299072266 59.496334075927734 C 71.40350341796875 59.59994125366211 64.9617919921875 63.165306091308594 58.45759201049805 67.45655822753906 C 45.84037399291992 75.4172134399414 41.038917541503906 76.76968383789062 37.738250732421875 74.73199462890625" stroke-width="1.0" fill="rgb(243, 136, 80)" opacity="0.98312074"/>
  </g>
</svg>
