<?xml version="1.0" ?>
<svg xmlns="http://www.w3.org/2000/svg" version="1.1" width="224" height="224">
  <defs/>
  <g>
    <path d="M 70.22346496582031 155.7073211669922 C 70.22346496582031 155.7073211669922 70.22346496582031 155.7073211669922 70.22346496582031 155.7073211669922 C 66.94880676269531 154.21420288085938 63.57620620727539 153.21469116210938 59.966060638427734 152.99642944335938 C 49.14411926269531 152.34242248535156 38.72862243652344 158.45135498046875 34.020240783691406 168.2174835205078 C 32.22480773925781 171.9417724609375 31.449722290039062 175.89126586914062 31.340980529785156 180.00115966796875 C 62.8335075378418 180.00115966796875 94.32603454589844 180.00115966796875 125.81779479980469 180.00115966796875 C 121.60454559326172 179.90475463867188 117.76920318603516 179.03634643554688 113.92768859863281 177.30337524414062 C 99.35987091064453 170.1046905517578 84.79205322265625 162.906005859375 70.22346496582031 155.7073211669922" stroke-width="0.0" fill="rgb(239, 249, 254)" opacity="1.0"/>
    <path d="M 149.4136505126953 40.994895935058594 C 149.4136505126953 40.994895935058594 149.4136505126953 40.994895935058594 149.4136505126953 40.994895935058594 C 151.92172241210938 41.14451599121094 154.35418701171875 41.480003356933594 156.71954345703125 42.369232177734375 C 163.24957275390625 44.821754455566406 167.7682342529297 50.66693115234375 169.80120849609375 57.18230438232422 C 172.32545471191406 57.18230438232422 174.84970092773438 57.18230438232422 177.3739471435547 57.18230438232422 C 179.41000366210938 57.27177047729492 181.27560424804688 57.55249786376953 183.09263610839844 58.54584503173828 C 188.70953369140625 61.61843490600586 191.06256103515625 68.96520233154297 187.66140747070312 74.53659057617188 C 186.34954833984375 76.68601989746094 184.4754638671875 78.13362121582031 182.26278686523438 79.25730895996094 C 182.59210205078125 81.0134048461914 182.9221954345703 82.76873016357422 183.25149536132812 84.52482604980469 C 183.55923461914062 88.0994873046875 181.49232482910156 90.61988067626953 177.90145874023438 90.92451477050781 C 176.04510498046875 90.92451477050781 174.18875122070312 90.92451477050781 172.3316192626953 90.92451477050781 C 173.412109375 92.65824890136719 174.32449340820312 94.44828033447266 175.1358184814453 96.32315063476562 C 176.29421997070312 96.32315063476562 177.45184326171875 96.32315063476562 178.6094512939453 96.32315063476562 C 182.03219604492188 96.62470245361328 183.49290466308594 97.99286651611328 184.01040649414062 101.39015197753906 C 184.34742736816406 106.79032135009766 184.6844482421875 112.19049072265625 185.02224731445312 117.5906753540039 C 184.7955322265625 120.97021484375 182.99082946777344 122.89443969726562 179.626708984375 123.31475830078125 C 177.22586059570312 123.31475830078125 174.82424926757812 123.31475830078125 172.42340087890625 123.31475830078125 C 171.10150146484375 125.29220581054688 169.64927673339844 127.04752349853516 167.9517822265625 128.7141571044922 C 174.6013641357422 128.7141571044922 181.251708984375 128.7141571044922 187.90127563476562 128.7141571044922 C 192.5726318359375 129.0550537109375 195.65988159179688 132.1415252685547 196.0 136.81210327148438 C 196.0 138.61138916015625 196.0 140.4114532470703 196.0 142.21151733398438 C 195.5989532470703 144.2159423828125 195.30511474609375 144.50979614257812 193.29989624023438 144.91082763671875 C 189.9674072265625 144.91082763671875 186.63412475585938 144.91082763671875 183.3016357421875 144.91082763671875 C 180.5444793701172 145.62728881835938 179.5904541015625 148.8649444580078 178.71588134765625 151.35369873046875 C 176.21090698242188 158.4806671142578 176.60348510742188 166.6310577392578 179.77633666992188 173.48577880859375 C 180.37557983398438 174.78067016601562 181.07122802734375 176.0300750732422 181.84939575195312 177.22549438476562 C 182.2974853515625 177.91419982910156 183.16513061523438 178.96463012695312 183.3031768798828 179.81915283203125 C 183.54071044921875 181.29452514648438 181.97897338867188 182.61331176757812 180.66171264648438 182.82464599609375 C 179.53724670410156 183.00511169433594 178.95343017578125 182.34494018554688 178.28707885742188 181.57601928710938 C 176.46157836914062 179.468994140625 175.13427734375 176.55914306640625 174.115478515625 173.9901580810547 C 170.34878540039062 164.4901123046875 171.15162658691406 153.98207092285156 175.6548614501953 144.91082763671875 C 133.43215942382812 144.91082763671875 91.21025085449219 144.91082763671875 48.9875602722168 144.91082763671875 C 51.27812194824219 149.52587890625 52.6941032409668 154.38079833984375 52.9046516418457 159.54959106445312 C 52.985633850097656 161.53707885742188 52.88691329956055 163.939453125 50.231563568115234 163.8060302734375 C 46.96770095825195 163.6409912109375 47.62710952758789 160.59230041503906 47.40730667114258 158.22230529785156 C 47.05716323852539 154.4501953125 45.960472106933594 150.77606201171875 44.206687927246094 147.41888427734375 C 43.497154235839844 146.06072998046875 42.87245178222656 144.91082763671875 41.14952087402344 144.91082763671875 C 37.88026428222656 144.91082763671875 34.61100769042969 144.91082763671875 31.340980529785156 144.91082763671875 C 29.3365478515625 144.50979614257812 29.042701721191406 144.2159423828125 28.64166259765625 142.21151733398438 C 28.64166259765625 140.4114532470703 28.64166259765625 138.61138916015625 28.64166259765625 136.81210327148438 C 28.98255157470703 132.14230346679688 32.07056427001953 129.0542755126953 36.740379333496094 128.7141571044922 C 42.643394470214844 128.7141571044922 48.5456428527832 128.7141571044922 54.448665618896484 128.7141571044922 C 54.56048583984375 126.91410827636719 54.67308807373047 125.11482238769531 54.784915924072266 123.31475830078125 C 51.531089782714844 123.31475830078125 48.276485443115234 123.31475830078125 45.02265167236328 123.31475830078125 C 41.65081787109375 122.89598083496094 39.84613800048828 120.97252655029297 39.62016296386719 117.58450317382812 C 39.790611267089844 114.88518524169922 39.961822509765625 112.18586730957031 40.13226318359375 109.48655700683594 C 39.30549621582031 108.2764892578125 38.66615295410156 107.18519592285156 38.447120666503906 105.70442962646484 C 37.68360137939453 100.53253936767578 41.60377502441406 96.58922576904297 46.565887451171875 96.32315063476562 C 49.86831283569336 96.32315063476562 53.17150115966797 96.32315063476562 56.474693298339844 96.32315063476562 C 56.5872917175293 94.5230941772461 56.69912338256836 92.72380828857422 56.81172180175781 90.92375183105469 C 53.47150802612305 90.92375183105469 50.13129806518555 90.92375183105469 46.79031753540039 90.92375183105469 C 43.376068115234375 90.64070892333984 40.83717346191406 88.15502166748047 41.38629150390625 84.52945709228516 C 42.39891815185547 79.13005065917969 43.412315368652344 73.73065185546875 44.42494201660156 68.33047485351562 C 45.32960510253906 65.32498168945312 46.64841079711914 64.21826171875 49.77884292602539 63.92982482910156 C 52.320831298828125 63.92982482910156 54.862815856933594 63.92982482910156 57.4047966003418 63.92982482910156 C 60.16658401489258 59.68264389038086 64.07981872558594 57.4429817199707 69.13062286376953 57.18230438232422 C 88.657470703125 57.18230438232422 108.18431854248047 57.18230438232422 127.7111587524414 57.18230438232422 C 129.68089294433594 50.723228454589844 134.28823852539062 44.89810562133789 140.69564819335938 42.397769927978516 C 143.50833129882812 41.30030059814453 146.41819763183594 40.994895935058594 149.4136505126953 40.994895935058594 C 149.4136505126953 40.994895935058594 149.4136505126953 40.994895935058594 149.4136505126953 40.994895935058594" stroke-width="0.0" fill="rgb(0, 0, 0)" opacity="1.0"/>
    <path d="M 66.8531723022461 177.30184936523438 C 66.96577453613281 177.30184936523438 67.078369140625 177.30184936523438 67.19097900390625 177.30184936523438 C 67.69073486328125 177.40133666992188 68.23522186279297 177.37356567382812 68.69102478027344 177.6018524169922 C 70.35302734375 178.43246459960938 70.35302734375 181.56907653808594 68.69102478027344 182.39968872070312 C 68.23522186279297 182.6279754638672 67.69073486328125 182.60020446777344 67.19097900390625 182.69969177246094 C 67.078369140625 182.69969177246094 66.96577453613281 182.69969177246094 66.8531723022461 182.69969177246094 C 66.35340881347656 182.60020446777344 65.81047058105469 182.6279754638672 65.35389709472656 182.39968872070312 C 63.69266128540039 181.56907653808594 63.69266128540039 178.43246459960938 65.35389709472656 177.6018524169922 C 65.8096923828125 177.37356567382812 66.35340881347656 177.40133666992188 66.8531723022461 177.30184936523438 C 66.8531723022461 177.30184936523438 66.8531723022461 177.30184936523438 66.8531723022461 177.30184936523438" stroke-width="0.0" fill="rgb(0, 0, 0)" opacity="1.0"/>
    <path d="M 46.02679443359375 99.0224609375 C 90.22384643554688 99.0224609375 134.4208984375 99.0224609375 178.61793518066406 99.0224609375 C 180.35244750976562 99.46977996826172 180.76119995117188 99.85540008544922 181.31570434570312 101.55828094482422 C 181.65350341796875 106.9569091796875 181.99053955078125 112.35631561279297 182.32833862304688 117.75494384765625 C 182.06997680664062 119.53880310058594 181.39283752441406 120.25527954101562 179.626708984375 120.61544799804688 C 134.7548370361328 120.61544799804688 89.88372802734375 120.61544799804688 45.01185607910156 120.61544799804688 C 43.24803924560547 120.25527954101562 42.57244873046875 119.53649139404297 42.31330871582031 117.75494384765625 C 42.65111541748047 112.35631561279297 42.988136291503906 106.9569091796875 43.32594299316406 101.55828094482422 C 43.8812255859375 99.8538589477539 44.29075622558594 99.46900939941406 46.02679443359375 99.0224609375 C 46.02679443359375 99.0224609375 46.02679443359375 99.0224609375 46.02679443359375 99.0224609375" stroke-width="0.0" fill="rgb(0, 0, 0)" opacity="1.0"/>
    <path d="M 49.77884292602539 66.62837219238281 C 49.77884292602539 66.62837219238281 49.77884292602539 66.62837219238281 49.77884292602539 66.62837219238281 C 48.175453186035156 66.98544311523438 47.749732971191406 67.33172607421875 47.07721710205078 68.83023834228516 C 46.06459045410156 74.2296371459961 45.05195617675781 79.62826538085938 44.039329528808594 85.02767181396484 C 44.113372802734375 86.99971771240234 44.805938720703125 87.82493591308594 46.74018478393555 88.22520446777344 C 90.46061706542969 88.22520446777344 134.18104553222656 88.22520446777344 177.90145874023438 88.22520446777344 C 179.83494567871094 87.82493591308594 180.529052734375 86.99971771240234 180.60000610351562 85.02767181396484 C 179.58660888671875 79.62826538085938 178.573974609375 74.2296371459961 177.5613555908203 68.83023834228516 C 176.89114379882812 67.33096313476562 176.46620178222656 66.98544311523438 174.86279296875 66.62837219238281 C 133.1684112548828 66.62837219238281 91.4732437133789 66.62837219238281 49.77884292602539 66.62837219238281" stroke-width="0.0" fill="rgb(0, 0, 0)" opacity="1.0"/>
    <path d="M 36.740379333496094 131.41270446777344 C 87.1273422241211 131.41270446777344 137.51431274414062 131.41270446777344 187.90127563476562 131.41270446777344 C 191.1319580078125 131.8399658203125 192.87417602539062 133.5806427001953 193.29989624023438 136.81210327148438 C 193.29989624023438 138.61138916015625 193.29989624023438 140.4114532470703 193.29989624023438 142.21151733398438 C 139.3135986328125 142.21151733398438 85.32728576660156 142.21151733398438 31.340980529785156 142.21151733398438 C 31.340980529785156 140.4114532470703 31.340980529785156 138.61138916015625 31.340980529785156 136.81210327148438 C 31.77672576904297 133.57293701171875 33.50120544433594 131.84844970703125 36.740379333496094 131.41270446777344 C 36.740379333496094 131.41270446777344 36.740379333496094 131.41270446777344 36.740379333496094 131.41270446777344" stroke-width="0.0" fill="rgb(0, 0, 0)" opacity="1.0"/>
    <path d="M 60.1943473815918 123.31475830078125 C 60.08174514770508 125.11482238769531 59.96992111206055 126.91410827636719 59.85731887817383 128.7141571044922 C 82.1929931640625 128.7141571044922 104.52790832519531 128.7141571044922 126.86357879638672 128.7141571044922 C 125.16455841064453 127.04752349853516 123.7115478515625 125.29374694824219 122.38888549804688 123.31475830078125 C 101.65737915039062 123.31475830078125 80.92585754394531 123.31475830078125 60.1943473815918 123.31475830078125" stroke-width="0.0" fill="rgb(254, 254, 254)" opacity="1.0"/>
    <path d="M 62.22037887573242 90.92451477050781 C 62.10854721069336 92.72457885742188 61.995948791503906 94.52386474609375 61.88412094116211 96.32392120361328 C 62.413185119628906 96.32392120361328 62.943023681640625 96.32392120361328 63.47285842895508 96.32392120361328 C 67.22490692138672 96.07173156738281 69.83244323730469 94.34956359863281 71.42195892333984 90.92451477050781 C 68.35476684570312 90.92451477050781 65.28756713867188 90.92451477050781 62.22037887573242 90.92451477050781" stroke-width="0.0" fill="rgb(254, 254, 254)" opacity="1.0"/>
    <path d="M 115.40074920654297 90.92451477050781 C 115.40074920654297 90.92451477050781 115.40074920654297 90.92451477050781 115.40074920654297 90.92451477050781 C 116.34087371826172 93.34850311279297 117.567138671875 94.63337707519531 119.93791198730469 95.69922637939453 C 119.93791198730469 95.69922637939453 119.93791198730469 95.69922637939453 119.93791198730469 95.69922637939453 C 120.69371795654297 94.044921875 121.52973175048828 92.45849609375 122.50920104980469 90.92451477050781 C 120.13996887207031 90.92451477050781 117.76997375488281 90.92451477050781 115.40074920654297 90.92451477050781" stroke-width="0.0" fill="rgb(253, 253, 253)" opacity="1.0"/>
    <path d="M 71.42041015625 153.2871856689453 C 85.98283386230469 160.48355102539062 100.54525756835938 167.67916870117188 115.10767364501953 174.874755859375 C 118.48490142822266 176.38946533203125 121.79966735839844 177.16378784179688 125.49772644042969 177.30184936523438 C 125.60493469238281 177.30184936523438 125.71136474609375 177.30184936523438 125.81779479980469 177.30184936523438 C 126.8921127319336 177.5162353515625 127.65718078613281 177.3812713623047 128.21786499023438 178.5010986328125 C 129.3739471435547 180.81402587890625 127.79137420654297 182.69969177246094 125.4769058227539 182.69969177246094 C 109.64734649658203 182.69969177246094 93.81779479980469 182.69969177246094 77.98823547363281 182.69969177246094 C 77.48847961425781 182.60020446777344 76.94474792480469 182.6279754638672 76.48895263671875 182.39968872070312 C 74.82695007324219 181.56907653808594 74.82695007324219 178.43246459960938 76.48895263671875 177.6018524169922 C 76.94474792480469 177.37356567382812 77.48847961425781 177.40133666992188 77.98823547363281 177.30184936523438 C 87.93637084960938 177.30184936523438 97.88372802734375 177.30184936523438 107.83186340332031 177.30184936523438 C 94.89751434326172 170.9098663330078 81.96240234375 164.51864624023438 69.02804565429688 158.12667846679688 C 65.4526138305664 156.48316955566406 61.74760818481445 155.3587188720703 57.77421951293945 155.43275451660156 C 49.616886138916016 155.58544921875 41.23204040527344 160.61468505859375 37.12677001953125 167.64523315429688 C 35.37992858886719 170.6368408203125 34.554710388183594 173.88836669921875 34.154441833496094 177.30184936523438 C 41.454925537109375 177.30184936523438 48.75542068481445 177.30184936523438 56.05591583251953 177.30184936523438 C 56.55644226074219 177.40133666992188 57.100162506103516 177.37356567382812 57.55595779418945 177.6018524169922 C 59.21796417236328 178.43246459960938 59.21796417236328 181.56907653808594 57.55595779418945 182.39968872070312 C 57.100162506103516 182.6279754638672 56.55644226074219 182.60020446777344 56.05591583251953 182.69969177246094 C 47.81760025024414 182.69969177246094 39.57929229736328 182.69969177246094 31.340980529785156 182.69969177246094 C 30.84198760986328 182.60020446777344 30.299819946289062 182.6279754638672 29.844017028808594 182.40045166015625 C 28.0 181.4796142578125 28.636260986328125 178.37615966796875 28.77508544921875 176.78433227539062 C 29.246307373046875 171.3525390625 31.121177673339844 166.12281799316406 34.522315979003906 161.83090209960938 C 40.38599395751953 154.43246459960938 50.1829719543457 149.462646484375 59.696128845214844 150.0318145751953 C 63.830711364746094 150.2786102294922 67.68919372558594 151.55499267578125 71.42041015625 153.2871856689453 C 71.42041015625 153.2871856689453 71.42041015625 153.2871856689453 71.42041015625 153.2871856689453" stroke-width="0.0" fill="rgb(0, 0, 0)" opacity="1.0"/>
    <path d="M 45.35350799560547 112.44963073730469 C 45.23860168457031 114.27205657958984 45.123687744140625 116.09370422363281 45.00877380371094 117.91613006591797 C 49.11172866821289 117.91613006591797 53.21468734741211 117.91613006591797 57.31764602661133 117.91613006591797 C 57.454158782958984 117.91613006591797 57.59143829345703 117.91613006591797 57.72794723510742 117.91613006591797 C 61.42600631713867 117.91613006591797 65.12329864501953 117.91613006591797 68.82058715820312 117.91613006591797 C 67.23262023925781 114.38774108886719 65.07008361816406 112.79206085205078 61.1961784362793 112.51750183105469 C 56.229434967041016 112.51673126220703 51.26346969604492 112.51673126220703 46.29672622680664 112.51673126220703 C 45.98207092285156 112.4943618774414 45.668174743652344 112.47200012207031 45.35350799560547 112.44963073730469 C 45.35350799560547 112.44963073730469 45.35350799560547 112.44963073730469 45.35350799560547 112.44963073730469" stroke-width="0.0" fill="rgb(63, 195, 254)" opacity="1.0"/>
    <path d="M 176.7384490966797 101.72254943847656 C 176.7384490966797 101.72254943847656 176.7384490966797 101.72254943847656 176.7384490966797 101.72254943847656 C 177.6546630859375 107.28931427001953 177.016845703125 112.62162017822266 175.1042022705078 117.91613006591797 C 176.61196899414062 117.91613006591797 178.11972045898438 117.91613006591797 179.626708984375 117.91613006591797 C 179.2919921875 112.51981353759766 178.957275390625 107.12272644042969 178.62255859375 101.72640991210938 C 177.99478149414062 101.72486114501953 177.36622619628906 101.72332000732422 176.7384490966797 101.72254943847656" stroke-width="0.0" fill="rgb(63, 195, 254)" opacity="1.0"/>
    <path d="M 69.13062286376953 59.881622314453125 C 69.13062286376953 59.881622314453125 69.13062286376953 59.881622314453125 69.13062286376953 59.881622314453125 C 62.92451095581055 60.33741760253906 58.78915786743164 64.47277069091797 58.3333625793457 70.67887878417969 C 58.3333625793457 71.12850952148438 58.3333625793457 71.57814025878906 58.3333625793457 72.02777099609375 C 58.49454879760742 73.251708984375 58.422054290771484 73.63038635253906 59.055233001708984 74.72476959228516 C 60.502838134765625 77.22587585449219 62.747127532958984 77.18423461914062 65.25980377197266 77.52665710449219 C 67.26347351074219 77.79890441894531 69.17921447753906 78.64418029785156 70.72862243652344 79.94293212890625 C 76.00385284423828 84.361328125 75.71694946289062 92.6790771484375 70.25431060791016 96.80516815185547 C 68.20668029785156 98.35148620605469 65.93617248535156 98.8990707397461 63.421958923339844 99.0224609375 C 57.802757263183594 99.0224609375 52.184322357177734 99.0224609375 46.565887451171875 99.0224609375 C 45.06352996826172 99.19367980957031 43.855003356933594 99.43353271484375 42.71666717529297 100.5263671875 C 40.20707702636719 102.93647003173828 40.66364288330078 107.2145004272461 43.639060974121094 109.02767181396484 C 44.73883819580078 109.6978759765625 45.098228454589844 109.62537384033203 46.34917068481445 109.81818389892578 C 51.29817581176758 109.81818389892578 56.24717712402344 109.81818389892578 61.1961784362793 109.81818389892578 C 64.68986511230469 110.06112670898438 67.81721496582031 111.3591079711914 69.92962646484375 114.2782211303711 C 71.32400512695312 116.20476531982422 71.61013793945312 118.66114044189453 73.84593963623047 119.91130828857422 C 74.90792846679688 120.50593566894531 75.24880981445312 120.4434585571289 76.43266296386719 120.61544799804688 C 94.79802703857422 120.61544799804688 113.16262817382812 120.61544799804688 131.5279998779297 120.61544799804688 C 131.5279998779297 115.73431396484375 131.5279998779297 110.85317993164062 131.5279998779297 105.9720458984375 C 129.6245880126953 105.9720458984375 127.72119140625 105.9720458984375 125.81779479980469 105.9720458984375 C 125.81779479980469 103.65526580810547 125.81779479980469 101.33924865722656 125.81779479980469 99.0224609375 C 125.0388412475586 99.0224609375 124.26067352294922 99.0224609375 123.48172760009766 99.0224609375 C 121.4001693725586 98.90754699707031 119.5198974609375 98.56512451171875 117.69747924804688 97.48539733886719 C 111.83224487304688 94.0133056640625 110.52423858642578 85.84672546386719 115.21873474121094 80.83833312988281 C 117.35350799560547 78.56165313720703 120.0782699584961 77.6300048828125 123.11692810058594 77.42639923095703 C 141.33731079101562 77.42639923095703 159.55767822265625 77.42639923095703 177.77883911132812 77.42639923095703 C 179.7115478515625 77.27137756347656 181.42831420898438 76.8780517578125 183.0186004638672 75.69343566894531 C 187.62054443359375 72.26530456542969 187.6105194091797 65.33808898925781 183.12347412109375 61.8097038269043 C 181.40518188476562 60.457733154296875 179.54110717773438 60.035099029541016 177.41403198242188 59.881622314453125 C 141.31956481933594 59.881622314453125 105.22509765625 59.881622314453125 69.13062286376953 59.881622314453125" stroke-width="0.0" fill="rgb(0, 0, 0)" opacity="1.0"/>
    <path d="M 49.77884292602539 69.32845306396484 C 49.77884292602539 69.32845306396484 49.77884292602539 69.32845306396484 49.77884292602539 69.32845306396484 C 49.76265335083008 69.32845306396484 49.74645233154297 69.3292236328125 49.73025894165039 69.32999420166016 C 48.725341796875 74.68621063232422 47.72042465209961 80.0431900024414 46.71628189086914 85.39940643310547 C 50.92335510253906 85.44181823730469 55.131202697753906 85.48423767089844 59.33905029296875 85.52588653564453 C 59.47941589355469 85.52588653564453 59.61977767944336 85.52588653564453 59.7601432800293 85.52588653564453 C 63.66412353515625 85.52588653564453 67.56809997558594 85.52588653564453 71.47209167480469 85.52511596679688 C 70.29904174804688 82.83042907714844 68.16272735595703 80.69026184082031 65.14643859863281 80.22674560546875 C 63.811431884765625 80.02159881591797 62.5157585144043 80.16659545898438 61.20774841308594 79.74703979492188 C 57.71792221069336 78.62952423095703 55.88700866699219 75.50371551513672 55.63404846191406 72.02777099609375 C 55.63404846191406 71.57814025878906 55.63404846191406 71.12850952148438 55.63404846191406 70.67887878417969 C 55.65332794189453 70.22848510742188 55.67338180541992 69.77808380126953 55.69343566894531 69.32845306396484 C 53.72138595581055 69.32845306396484 51.75011444091797 69.32845306396484 49.77884292602539 69.32845306396484" stroke-width="0.0" fill="rgb(127, 215, 254)" opacity="1.0"/>
    <path d="M 161.58140563964844 80.1264877319336 C 161.58140563964844 80.1264877319336 161.58140563964844 80.1264877319336 161.58140563964844 80.1264877319336 C 161.3600616455078 80.2768783569336 161.1387176513672 80.4272689819336 160.9173583984375 80.57765197753906 C 160.9173583984375 80.57765197753906 160.9173583984375 80.57765197753906 160.9173583984375 80.57765197753906 C 163.51565551757812 81.93965148925781 165.79388427734375 83.53842163085938 167.9517822265625 85.52511596679688 C 171.26809692382812 85.52511596679688 174.5851593017578 85.52511596679688 177.90145874023438 85.52511596679688 C 177.5783233642578 83.725830078125 177.2551727294922 81.92577362060547 176.93202209472656 80.1264877319336 C 171.8148956298828 80.1264877319336 166.6985321044922 80.1264877319336 161.58140563964844 80.1264877319336" stroke-width="0.0" fill="rgb(127, 215, 254)" opacity="1.0"/>
    <path d="M 123.11770629882812 80.1264877319336 C 123.11770629882812 80.1264877319336 123.11770629882812 80.1264877319336 123.11770629882812 80.1264877319336 C 119.48211669921875 80.39256286621094 116.89308166503906 82.16947937011719 115.427734375 85.52511596679688 C 119.25074005126953 85.52511596679688 123.07296752929688 85.52511596679688 126.8959732055664 85.52511596679688 C 129.29605102539062 83.29548645019531 131.85963439941406 81.54554748535156 134.81268310546875 80.1264877319336 C 130.9148712158203 80.1264877319336 127.01628112792969 80.1264877319336 123.11770629882812 80.1264877319336" stroke-width="0.0" fill="rgb(127, 215, 254)" opacity="1.0"/>
    <path d="M 36.740379333496094 134.11279296875 C 36.740379333496094 134.11279296875 36.740379333496094 134.11279296875 36.740379333496094 134.11279296875 C 34.73594665527344 134.5138397216797 34.442108154296875 134.80767822265625 34.04106903076172 136.81210327148438 C 34.04106903076172 137.71214294433594 34.04106903076172 138.61216735839844 34.04106903076172 139.5114288330078 C 36.42957305908203 139.5114288330078 38.818084716796875 139.5114288330078 41.20658874511719 139.5114288330078 C 41.27368927001953 139.5114288330078 41.340789794921875 139.5114288330078 41.40788269042969 139.5114288330078 C 88.68292236328125 139.5114288330078 135.95718383789062 139.5114288330078 183.2322235107422 139.5114288330078 C 183.3000946044922 139.5114288330078 183.36795043945312 139.5114288330078 183.4358367919922 139.5114288330078 C 185.8243408203125 139.5114288330078 188.21286010742188 139.5114288330078 190.6013641357422 139.5114288330078 C 190.6013641357422 138.61216735839844 190.6013641357422 137.71214294433594 190.6013641357422 136.81210327148438 C 190.2789764404297 135.12002563476562 189.59335327148438 134.43516540527344 187.90127563476562 134.11279296875 C 178.4929962158203 134.11279296875 169.08473205566406 134.11279296875 159.67568969726562 134.11279296875 C 159.19674682617188 134.11279296875 158.7178192138672 134.11279296875 158.23887634277344 134.11279296875 C 151.0201416015625 134.11279296875 143.8013916015625 134.11279296875 136.58265686035156 134.11279296875 C 136.10372924804688 134.11279296875 135.62478637695312 134.11279296875 135.14584350585938 134.11279296875 C 109.20542907714844 134.11279296875 83.26578521728516 134.11279296875 57.32536315917969 134.11279296875 C 57.188079833984375 134.11279296875 57.051578521728516 134.11279296875 56.91506576538086 134.11279296875 C 50.18991470336914 134.11279296875 43.46553039550781 134.11279296875 36.740379333496094 134.11279296875" stroke-width="0.0" fill="rgb(239, 249, 254)" opacity="1.0"/>
    <path d="M 149.3319091796875 43.693443298339844 C 149.3319091796875 43.693443298339844 149.3319091796875 43.693443298339844 149.3319091796875 43.693443298339844 C 144.76158142089844 43.74125671386719 140.45887756347656 44.98988342285156 136.86492919921875 47.90437316894531 C 128.33895874023438 54.819244384765625 127.58622741699219 67.97108459472656 135.27310180664062 75.8106689453125 C 137.4217529296875 78.00096893310547 139.97377014160156 79.44471740722656 142.82192993164062 80.51596069335938 C 142.82192993164062 80.51596069335938 142.82192993164062 80.51596069335938 142.82192993164062 80.51596069335938 C 137.8227996826172 81.52318572998047 133.2347412109375 83.57389831542969 129.4071044921875 86.99585723876953 C 118.88440704345703 96.402587890625 117.48384857177734 112.87380981445312 126.26973724365234 123.92095184326172 C 128.8209686279297 127.13005065917969 132.0107879638672 129.53244018554688 135.62864685058594 131.41270446777344 C 143.483642578125 131.41270446777344 151.33865356445312 131.41270446777344 159.19366455078125 131.41270446777344 C 163.60975646972656 129.12290954589844 167.37722778320312 125.98399353027344 170.09735107421875 121.78001403808594 C 177.56521606445312 110.2385025024414 174.94918823242188 94.447509765625 164.160400390625 85.92924499511719 C 161.02304077148438 83.45204162597656 157.46533203125 81.85945129394531 153.61996459960938 80.84142303466797 C 153.61996459960938 80.84142303466797 153.61996459960938 80.84142303466797 153.61996459960938 80.84142303466797 C 156.52752685546875 79.9421615600586 159.16204833984375 78.65420532226562 161.43795776367188 76.59577941894531 C 169.58140563964844 69.23281860351562 169.61920166015625 56.056304931640625 161.5235595703125 48.64321517944336 C 158.11085510253906 45.5181770324707 153.8906707763672 44.01427459716797 149.3319091796875 43.693443298339844 C 149.3319091796875 43.693443298339844 149.3319091796875 43.693443298339844 149.3319091796875 43.693443298339844" stroke-width="0.0" fill="rgb(0, 0, 0)" opacity="1.0"/>
    <path d="M 69.13062286376953 62.58016586303711 C 69.13062286376953 62.58016586303711 69.13062286376953 62.58016586303711 69.13062286376953 62.58016586303711 C 64.49859619140625 62.917964935302734 61.331146240234375 66.00984191894531 61.03190612792969 70.67887878417969 C 61.03190612792969 71.12850952148438 61.03190612792969 71.57814025878906 61.03190612792969 72.02777099609375 C 61.637325286865234 75.19908142089844 64.08984375 74.49031829833984 66.63337707519531 74.99392700195312 C 68.9432144165039 75.45204162597656 71.06024932861328 76.55799102783203 72.79397583007812 78.14595794677734 C 79.21912384033203 84.03046417236328 78.54891967773438 94.28478240966797 71.4150161743164 99.30473327636719 C 68.97792053222656 101.01995849609375 66.30328369140625 101.63462829589844 63.371055603027344 101.7217788696289 C 62.03373718261719 101.7217788696289 60.695648193359375 101.7217788696289 59.358333587646484 101.7217788696289 C 59.21642303466797 101.7217788696289 59.075286865234375 101.7217788696289 58.933380126953125 101.7217788696289 C 54.81037139892578 101.7217788696289 50.68812942504883 101.7217788696289 46.565887451171875 101.72254943847656 C 44.42957305908203 102.07038116455078 42.69120788574219 104.17815399169922 44.426483154296875 106.20187377929688 C 44.941673278808594 106.80265808105469 45.682830810546875 106.88287353515625 46.40084457397461 107.11886596679688 C 51.33287811279297 107.11886596679688 56.26414489746094 107.11886596679688 61.1961784362793 107.11809539794922 C 65.2852554321289 107.3008804321289 69.02650451660156 108.41454315185547 71.61862182617188 111.78945922851562 C 73.31533813476562 113.9982681274414 73.4580078125 117.30146026611328 76.46890258789062 117.91613006591797 C 90.88555908203125 117.91613006591797 105.3022232055664 117.91613006591797 119.71810913085938 117.91613006591797 C 117.7267837524414 112.28458404541016 117.10902404785156 106.64995574951172 118.27359008789062 100.77008056640625 C 118.27359008789062 100.77008056640625 118.27359008789062 100.77008056640625 118.27359008789062 100.77008056640625 C 115.57504272460938 99.55538940429688 113.30145263671875 97.85636138916016 111.68417358398438 95.3328857421875 C 107.54496765136719 88.87226867675781 109.89337158203125 80.14653778076172 116.51518249511719 76.38832092285156 C 118.58439636230469 75.21372985839844 120.77392578125 74.83274841308594 123.11770629882812 74.72785949707031 C 125.67279815673828 74.72785949707031 128.2271270751953 74.72785949707031 130.7822265625 74.72785949707031 C 128.51710510253906 70.98892211914062 127.27850341796875 66.94688415527344 127.06101989746094 62.58016586303711 C 107.75088500976562 62.58016586303711 88.44075775146484 62.58016586303711 69.13062286376953 62.58016586303711" stroke-width="0.0" fill="rgb(239, 249, 254)" opacity="1.0"/>
    <path d="M 170.4899139404297 62.58016586303711 C 170.4899139404297 62.58016586303711 170.4899139404297 62.58016586303711 170.4899139404297 62.58016586303711 C 170.2909393310547 66.9646224975586 168.9836883544922 70.98043823242188 166.71473693847656 74.72785949707031 C 170.40277099609375 74.72785949707031 174.09080505371094 74.72785949707031 177.77883911132812 74.72785949707031 C 179.04983520507812 74.60985565185547 180.12107849121094 74.44095611572266 181.19924926757812 73.68977355957031 C 184.39755249023438 71.46090698242188 184.7037353515625 66.92066192626953 181.85403442382812 64.27302551269531 C 180.56607055664062 63.07606506347656 179.15548706054688 62.707420349121094 177.4541473388672 62.58016586303711 C 175.1327362060547 62.58016586303711 172.81134033203125 62.58016586303711 170.4899139404297 62.58016586303711" stroke-width="0.0" fill="rgb(239, 249, 254)" opacity="1.0"/>
    <path d="M 143.62864685058594 83.24150085449219 C 143.62864685058594 83.24150085449219 143.62864685058594 83.24150085449219 143.62864685058594 83.24150085449219 C 138.3564910888672 83.39959716796875 133.64117431640625 86.60484313964844 130.19223022460938 90.21730041503906 C 127.17361450195312 93.37934875488281 125.27638244628906 96.7103042602539 123.84497833251953 100.83023834228516 C 120.08444213867188 111.64986419677734 126.91757202148438 123.61014556884766 136.26260375976562 128.7141571044922 C 143.69497680664062 128.7141571044922 151.12733459472656 128.7141571044922 158.55972290039062 128.7141571044922 C 169.2374267578125 122.8821029663086 174.81268310546875 109.98322296142578 170.11972045898438 98.33452606201172 C 169.07470703125 95.7408676147461 167.5407257080078 92.6520767211914 165.4483642578125 90.73634338378906 C 165.2108154296875 90.51885223388672 164.85528564453125 90.45329284667969 164.6331787109375 90.22115325927734 C 164.407958984375 89.98670196533203 164.35784912109375 89.6226806640625 164.14498901367188 89.3781967163086 C 161.54901123046875 86.39044189453125 156.56222534179688 83.86927795410156 152.65052795410156 83.51296997070312 C 149.64273071289062 83.42196655273438 146.63568115234375 83.33172607421875 143.62864685058594 83.24150085449219" stroke-width="0.0" fill="rgb(254, 254, 254)" opacity="1.0"/>
    <path d="M 149.2509307861328 46.39198684692383 C 149.2509307861328 46.39198684692383 149.2509307861328 46.39198684692383 149.2509307861328 46.39198684692383 C 146.40277099609375 46.41435241699219 143.68417358398438 46.805362701416016 141.13909912109375 48.16890335083008 C 134.77642822265625 51.58007049560547 131.28659057617188 59.112701416015625 132.94784545898438 66.11087036132812 C 133.62420654296875 68.96211242675781 134.9314422607422 71.69691467285156 136.96133422851562 73.83399963378906 C 137.8227996826172 74.740966796875 138.72360229492188 75.01321411132812 139.48326110839844 75.94717407226562 C 139.48326110839844 75.94717407226562 139.48326110839844 75.94717407226562 139.48326110839844 75.94717407226562 C 140.7342071533203 76.70220947265625 141.950439453125 77.29297637939453 143.30935668945312 77.83052062988281 C 146.6379852294922 77.9307861328125 149.96664428710938 78.03105163574219 153.2945098876953 78.13130187988281 C 154.9912109375 77.57987976074219 156.4989776611328 76.91275787353516 158.02215576171875 75.98419189453125 C 158.02215576171875 75.98419189453125 158.02215576171875 75.98419189453125 158.02215576171875 75.98419189453125 C 158.75714111328125 75.05563354492188 159.62246704101562 74.8157730102539 160.45925903320312 73.9404296875 C 162.34646606445312 71.96452331542969 163.6421356201172 69.46958923339844 164.39947509765625 66.857421875 C 166.3807830810547 60.02121353149414 163.31590270996094 52.39217758178711 157.24090576171875 48.65092468261719 C 154.78298950195312 47.13622283935547 152.09292602539062 46.58479690551758 149.2509307861328 46.39198684692383 C 149.2509307861328 46.39198684692383 149.2509307861328 46.39198684692383 149.2509307861328 46.39198684692383" stroke-width="0.0" fill="rgb(254, 254, 254)" opacity="1.0"/>
    <path d="M 140.6632537841797 55.83341979980469 C 140.77584838867188 55.83341979980469 140.88768005371094 55.83341979980469 141.00027465820312 55.83341979980469 C 141.5000457763672 55.93290710449219 142.04376220703125 55.90514373779297 142.4995574951172 56.13265609741211 C 144.16156005859375 56.964046478271484 144.16156005859375 60.100650787353516 142.4995574951172 60.931270599365234 C 142.04376220703125 61.15955352783203 141.5000457763672 61.13101577758789 141.00027465820312 61.23127746582031 C 140.88768005371094 61.23127746582031 140.77584838867188 61.23127746582031 140.6632537841797 61.23127746582031 C 140.1627197265625 61.13101577758789 139.61900329589844 61.15955352783203 139.16319274902344 60.931270599365234 C 137.50119018554688 60.100650787353516 137.50119018554688 56.964046478271484 139.16319274902344 56.13265609741211 C 139.61900329589844 55.90514373779297 140.1627197265625 55.93290710449219 140.6632537841797 55.83341979980469 C 140.6632537841797 55.83341979980469 140.6632537841797 55.83341979980469 140.6632537841797 55.83341979980469" stroke-width="0.0" fill="rgb(0, 0, 0)" opacity="1.0"/>
    <path d="M 151.46128845214844 55.83341979980469 C 151.57388305664062 55.83341979980469 151.6857147216797 55.83341979980469 151.79830932617188 55.83341979980469 C 152.29806518554688 55.93290710449219 152.841796875 55.90514373779297 153.29759216308594 56.13265609741211 C 154.9595947265625 56.964046478271484 154.9595947265625 60.100650787353516 153.29759216308594 60.931270599365234 C 152.841796875 61.15955352783203 152.29806518554688 61.13101577758789 151.79830932617188 61.23127746582031 C 151.6857147216797 61.23127746582031 151.57388305664062 61.23127746582031 151.46128845214844 61.23127746582031 C 150.96075439453125 61.13101577758789 150.4170379638672 61.15955352783203 149.96124267578125 60.931270599365234 C 148.29922485351562 60.100650787353516 148.29922485351562 56.964046478271484 149.96124267578125 56.13265609741211 C 150.4170379638672 55.90514373779297 150.96075439453125 55.93290710449219 151.46128845214844 55.83341979980469 C 151.46128845214844 55.83341979980469 151.46128845214844 55.83341979980469 151.46128845214844 55.83341979980469" stroke-width="0.0" fill="rgb(0, 0, 0)" opacity="1.0"/>
  </g>
</svg>
