<?xml version="1.0" ?>
<svg xmlns="http://www.w3.org/2000/svg" version="1.1" width="224" height="224">
  <defs/>
  <g>
    <path d="M 121.84162139892578 56.00178909301758 C 121.84162139892578 56.00178909301758 121.84162139892578 56.00178909301758 121.84162139892578 56.00178909301758 C 116.73881530761719 52.5037727355957 110.96171569824219 53.14738082885742 106.75335693359375 57.682525634765625 C 86.89442443847656 82.33358764648438 67.0354995727539 106.98463439941406 47.175811767578125 131.6356964111328 C 43.61949157714844 136.7055206298828 44.29301452636719 142.65982055664062 48.895668029785156 146.80526733398438 C 66.9787368774414 161.03054809570312 85.06180572509766 175.25582885742188 103.14486694335938 189.48110961914062 C 108.25304412841797 192.94918823242188 114.01480865478516 192.28640747070312 118.2032241821289 187.74972534179688 C 137.75759887695312 163.13858032226562 157.31198120117188 138.52816772460938 176.86712646484375 113.91700744628906 C 180.38815307617188 108.86405944824219 179.7261505126953 102.96345520019531 175.17796325683594 98.8126220703125 C 173.06150817871094 97.13495635986328 170.94505310058594 95.4565200805664 168.82859802246094 93.77808380126953 C 167.09339904785156 91.55039978027344 168.46038818359375 90.09059143066406 169.31954956054688 87.75857543945312 C 170.15953063964844 85.48026275634766 170.64894104003906 83.0746078491211 170.76861572265625 80.64900970458984 C 171.15830993652344 72.77693176269531 167.5429229736328 65.04293823242188 161.25186157226562 60.294532775878906 C 154.96234130859375 55.54689025878906 146.53334045410156 54.18604278564453 139.07012939453125 56.716739654541016 C 137.22830200195312 57.340396881103516 135.4631805419922 58.1895866394043 133.826171875 59.238990783691406 C 131.72811889648438 60.58373260498047 130.5935821533203 62.231483459472656 128.04446411132812 60.9833984375 C 125.97711181640625 59.32260513305664 123.90975189208984 57.66257858276367 121.84162139892578 56.00178909301758" stroke-width="0.0" fill="rgb(127, 215, 254)" opacity="1.0"/>
    <path d="M 113.65426635742188 51.05009460449219 C 113.65426635742188 51.05009460449219 113.65426635742188 51.05009460449219 113.65426635742188 51.05009460449219 C 117.45069122314453 50.82533264160156 120.43397521972656 51.690635681152344 123.52313232421875 53.90834426879883 C 125.59661865234375 55.5737419128418 127.67012023925781 57.23836898803711 129.7428436279297 58.902992248535156 C 133.7732391357422 55.72793197631836 138.2470245361328 53.425071716308594 143.404296875 52.83592987060547 C 159.321044921875 51.01864242553711 173.94522094726562 63.791786193847656 173.63377380371094 79.97856140136719 C 173.55398559570312 84.13245391845703 172.31204223632812 87.98257446289062 170.5177764892578 91.69154357910156 C 172.62962341308594 93.36614990234375 174.74148559570312 95.04074096679688 176.85333251953125 96.7145767211914 C 182.57443237304688 101.78593444824219 183.4243927001953 109.38031768798828 178.9674835205078 115.59160614013672 C 159.41310119628906 140.20201110839844 139.8587188720703 164.81240844726562 120.3035659790039 189.42279052734375 C 115.25752258300781 195.13162231445312 107.6861572265625 196.0 101.47563934326172 191.58758544921875 C 95.45230102539062 186.848388671875 89.428955078125 182.10919189453125 83.40637969970703 177.3699951171875 C 82.82644653320312 176.76319885253906 82.34393310546875 176.4793701171875 82.23807525634766 175.59719848632812 C 82.05396270751953 174.05760192871094 83.76461791992188 172.13140869140625 85.36941528320312 172.46202087402344 C 85.86573028564453 172.56405639648438 86.27383422851562 172.92074584960938 86.72566223144531 173.15011596679688 C 92.75206756591797 177.89007568359375 98.77848052978516 182.63082885742188 104.80489349365234 187.37078857421875 C 108.67189025878906 189.95516967773438 112.93318176269531 189.51486206054688 116.10287475585938 186.0774383544922 C 135.656494140625 161.467041015625 155.21087646484375 136.8566436767578 174.76449584960938 112.2462387084961 C 177.38186645507812 108.37693786621094 176.94845581054688 104.09800720214844 173.50259399414062 100.91143035888672 C 171.38844299316406 99.23453521728516 169.2742919921875 97.55840301513672 167.16014099121094 95.88226318359375 C 166.27259826660156 94.99395751953125 165.75172424316406 94.67176818847656 165.29222106933594 93.49041748046875 C 164.4852294921875 91.41539001464844 165.62054443359375 89.63799285888672 166.42755126953125 87.7977066040039 C 167.23147583007812 85.96508026123047 167.80526733398438 84.02812957763672 168.0691680908203 82.04207611083984 C 169.04339599609375 74.71157836914062 165.57452392578125 66.6983642578125 159.64938354492188 62.2951545715332 C 154.11007690429688 58.17808151245117 146.1858367919922 56.859413146972656 139.67691040039062 59.2290153503418 C 137.79367065429688 59.91404724121094 136.0262451171875 60.89134216308594 134.4091796875 62.07115936279297 C 132.78213500976562 63.258644104003906 131.27015686035156 64.74990844726562 129.06625366210938 64.39320373535156 C 127.81433868408203 64.19068145751953 127.39472198486328 63.747291564941406 126.34532165527344 63.06072998046875 C 124.28409576416016 61.40607452392578 122.2228775024414 59.75065231323242 120.16165161132812 58.09599685668945 C 116.3253402709961 55.46404266357422 112.01111602783203 55.948856353759766 108.84986114501953 59.36019515991211 C 88.98863220214844 84.0135498046875 69.12741088867188 108.66690826416016 49.266944885253906 133.3202667236328 C 46.599708557128906 137.17881774902344 47.09296417236328 141.53216552734375 50.55645751953125 144.6957244873047 C 56.89738464355469 149.68423461914062 63.239078521728516 154.67276000976562 69.58076477050781 159.6612548828125 C 70.16070556640625 160.26881408691406 70.64244842529297 160.55111694335938 70.74830627441406 161.43405151367188 C 70.93164825439453 162.9744110107422 69.22329711914062 164.90061950683594 67.61697387695312 164.5699920654297 C 67.12065124511719 164.4679718017578 66.71255493164062 164.11203002929688 66.2607192993164 163.88265991210938 C 59.91825485229492 158.8933868408203 53.57656478881836 153.90411376953125 47.23487091064453 148.91482543945312 C 41.4439697265625 143.84884643554688 40.575599670410156 136.18466186523438 45.08543395996094 129.9511260986328 C 64.94282531738281 105.3023681640625 84.79945373535156 80.65361022949219 104.65684509277344 56.00485610961914 C 107.18216705322266 53.16195297241211 109.90156555175781 51.66455078125 113.65426635742188 51.05009460449219 C 113.65426635742188 51.05009460449219 113.65426635742188 51.05009460449219 113.65426635742188 51.05009460449219" stroke-width="0.0" fill="rgb(0, 0, 1)" opacity="1.0"/>
    <path d="M 78.02127075195312 166.3021240234375 C 78.10948944091797 166.3711700439453 78.19693756103516 166.44021606445312 78.28515625 166.50924682617188 C 78.86432647705078 167.11602783203125 79.34760284423828 167.3998565673828 79.45269775390625 168.28204345703125 C 79.63680267333984 169.82162475585938 77.92691802978516 171.7478485107422 76.32212829589844 171.41798400878906 C 75.82504272460938 171.3159637451172 75.41770935058594 170.95924377441406 74.9651107788086 170.72988891601562 C 74.87689208984375 170.6608428955078 74.78944396972656 170.59181213378906 74.70121765136719 170.52200317382812 C 74.12205505371094 169.91522216796875 73.63877868652344 169.6313934326172 73.53368377685547 168.74996948242188 C 73.34957885742188 167.21038818359375 75.06022644042969 165.28341674804688 76.66425323486328 165.61404418945312 C 77.16134643554688 165.716064453125 77.56867980957031 166.07275390625 78.02127075195312 166.3021240234375 C 78.02127075195312 166.3021240234375 78.02127075195312 166.3021240234375 78.02127075195312 166.3021240234375" stroke-width="0.0" fill="rgb(0, 0, 0)" opacity="1.0"/>
    <path d="M 113.3305435180664 86.39695739746094 C 113.3305435180664 86.39695739746094 113.3305435180664 86.39695739746094 113.3305435180664 86.39695739746094 C 117.97769165039062 86.73526000976562 121.0468978881836 89.80522918701172 121.38519287109375 94.45237731933594 C 121.38519287109375 96.25968170166016 121.38519287109375 98.06775665283203 121.38519287109375 99.87506866455078 C 124.42064666748047 100.16810607910156 126.66903686523438 101.46759033203125 128.43798828125 103.95149230957031 C 129.987548828125 103.0562744140625 131.53712463378906 102.16182708740234 133.08668518066406 101.26660919189453 C 135.50076293945312 99.99243927001953 137.940185546875 99.6111831665039 140.5383758544922 100.68743896484375 C 145.20086669921875 102.61748504638672 146.80642700195312 108.60247039794922 143.98883056640625 112.71111297607422 C 143.21481323242188 113.84029388427734 142.23216247558594 114.52455139160156 141.09222412109375 115.234130859375 C 139.55494689941406 116.12474060058594 138.01687622070312 117.01459503173828 136.47959899902344 117.90520477294922 C 137.74302673339844 120.67523193359375 137.74302673339844 123.2657699584961 136.47959899902344 126.03579711914062 C 138.0230255126953 126.93024444580078 139.5672149658203 127.82469177246094 141.1106414794922 128.71914672851562 C 142.24673461914062 129.42872619628906 143.22479248046875 130.11221313476562 143.99420166015625 131.23910522460938 C 147.1431884765625 135.8471221923828 144.68460083007812 142.3361053466797 139.2703399658203 143.6685791015625 C 137.0181121826172 144.2231903076172 135.084228515625 143.72840881347656 133.08668518066406 142.6743927001953 C 131.53712463378906 141.77919006347656 129.987548828125 140.88473510742188 128.43798828125 139.98951721191406 C 126.66903686523438 142.47341918945312 124.42064666748047 143.7729034423828 121.38519287109375 144.06593322753906 C 121.38519287109375 145.87400817871094 121.38519287109375 147.682861328125 121.38519287109375 149.49169921875 C 121.29006958007812 150.7973175048828 121.1458511352539 151.95870971679688 120.53600311279297 153.1431427001953 C 118.06053924560547 157.9567413330078 111.45956420898438 159.01229858398438 107.63475799560547 155.1867218017578 C 106.02459716796875 153.5773162841797 105.43622589111328 151.70556640625 105.27513122558594 149.49169921875 C 105.27513122558594 147.682861328125 105.27513122558594 145.87400817871094 105.27513122558594 144.06593322753906 C 102.23967742919922 143.77212524414062 99.99358367919922 142.47418212890625 98.22539520263672 139.98951721191406 C 96.67583465576172 140.88473510742188 95.12550354003906 141.77919006347656 93.5759506225586 142.6743927001953 C 92.39689636230469 143.29574584960938 91.31834411621094 143.79513549804688 89.96440124511719 143.8964080810547 C 85.01116943359375 144.2692108154297 80.64555358886719 139.89976501464844 81.29452514648438 134.90972900390625 C 81.65814208984375 132.12051391601562 83.209228515625 130.19198608398438 85.51899719238281 128.737548828125 C 87.07315826416016 127.83697509765625 88.62808990478516 126.93561553955078 90.1822509765625 126.0350341796875 C 88.92112731933594 123.2657699584961 88.92112731933594 120.6760025024414 90.18148803710938 117.90674591064453 C 88.62655639648438 117.00615692138672 87.07239532470703 116.10633850097656 85.51746368408203 115.20574951171875 C 83.60659790039062 113.9998550415039 82.21505737304688 112.56996154785156 81.57068634033203 110.34150695800781 C 80.02496337890625 104.9939956665039 84.40592193603516 99.63036346435547 89.96286010742188 100.04383087158203 C 91.31681060791016 100.14508819580078 92.39613342285156 100.64524841308594 93.57518005371094 101.26660919189453 C 95.12550354003906 102.16182708740234 96.6750717163086 103.0562744140625 98.22539520263672 103.95149230957031 C 99.99358367919922 101.46759033203125 102.24044799804688 100.16810607910156 105.27513122558594 99.87506866455078 C 105.27513122558594 98.06775665283203 105.27513122558594 96.25968170166016 105.27513122558594 94.45237731933594 C 105.6134262084961 89.80599212646484 108.68416595458984 86.73526000976562 113.3305435180664 86.39695739746094 C 113.3305435180664 86.39695739746094 113.3305435180664 86.39695739746094 113.3305435180664 86.39695739746094" stroke-width="0.0" fill="rgb(0, 0, 0)" opacity="1.0"/>
    <path d="M 110.4554214477539 28.0 C 110.4554214477539 28.0 110.4554214477539 28.0 110.4554214477539 28.0 C 120.44241333007812 28.368980407714844 128.34288024902344 33.93052673339844 131.9022674560547 43.27851104736328 C 131.9022674560547 43.27851104736328 131.9022674560547 43.27851104736328 131.9022674560547 43.27851104736328 C 141.03085327148438 48.339900970458984 147.59423828125 56.413726806640625 150.73863220214844 66.36543273925781 C 150.73863220214844 66.36543273925781 150.73863220214844 66.36543273925781 150.73863220214844 66.36543273925781 C 154.02874755859375 67.01670837402344 157.29434204101562 68.60232543945312 159.00807189941406 71.6301040649414 C 162.6855926513672 78.12675476074219 158.46035766601562 86.86489868164062 151.02322387695312 87.78619384765625 C 143.67662048339844 88.6967544555664 136.93910217285156 81.85030364990234 139.0164337158203 74.35948181152344 C 139.91854858398438 71.10770416259766 142.47608947753906 68.69207763671875 145.3435516357422 67.11566925048828 C 145.3435516357422 67.11566925048828 145.3435516357422 67.11566925048828 145.3435516357422 67.11566925048828 C 143.04222106933594 60.51162338256836 139.09622192382812 54.95008087158203 133.57456970214844 50.65196990966797 C 133.57456970214844 50.65196990966797 133.57456970214844 50.65196990966797 133.57456970214844 50.65196990966797 C 133.82310485839844 52.946388244628906 133.95887756347656 55.236209869384766 133.93740844726562 57.5444450378418 C 133.9251251220703 58.83932876586914 134.0969696044922 60.48093795776367 133.60984802246094 61.71598434448242 C 132.87265014648438 63.58619689941406 129.50350952148438 63.62532043457031 128.69650268554688 61.768917083740234 C 128.10659790039062 60.41189956665039 128.57070922851562 58.37599182128906 128.57147216796875 56.94916915893555 C 128.57301330566406 53.60610580444336 128.2301025390625 50.326717376708984 127.45762634277344 47.07493591308594 C 127.45762634277344 47.07493591308594 127.45762634277344 47.07493591308594 127.45762634277344 47.07493591308594 C 116.08523559570312 42.074920654296875 102.07628631591797 43.953575134277344 90.31726837158203 46.37916946411133 C 84.67440795898438 47.54287338256836 78.82827758789062 49.20289993286133 73.058837890625 49.47982406616211 C 72.74586486816406 49.47982406616211 72.4328842163086 49.47982406616211 72.11990356445312 49.47982406616211 C 69.93517303466797 49.61330032348633 66.20625305175781 50.271480560302734 64.21407318115234 49.051780700683594 C 62.71514129638672 48.13355255126953 62.727413177490234 45.21699905395508 64.34371185302734 44.40923309326172 C 64.79707336425781 44.182167053222656 65.337890625 44.20978546142578 65.83497619628906 44.11082458496094 C 67.90003204345703 44.11082458496094 69.965087890625 44.11082458496094 72.0301513671875 44.11082458496094 C 73.83822631835938 43.943603515625 75.69847106933594 43.867652893066406 77.42829895019531 43.27928161621094 C 84.03848266601562 41.031654357910156 88.7508316040039 35.953392028808594 94.59696960449219 32.402435302734375 C 99.45430755615234 29.452903747558594 104.81026458740234 28.132705688476562 110.4554214477539 28.0 C 110.4554214477539 28.0 110.4554214477539 28.0 110.4554214477539 28.0" stroke-width="0.0" fill="rgb(0, 0, 0)" opacity="1.0"/>
    <path d="M 113.3305435180664 89.08184051513672 C 113.3305435180664 89.08184051513672 113.3305435180664 89.08184051513672 113.3305435180664 89.08184051513672 C 110.10791778564453 89.5152587890625 108.3934326171875 91.22975158691406 107.96078491210938 94.45237731933594 C 107.96078491210938 97.42338562011719 107.96078491210938 100.39440155029297 107.96078491210938 103.36541748046875 C 103.94496154785156 101.703857421875 100.47225952148438 103.71522521972656 99.90689849853516 108.02253723144531 C 97.33401489257812 106.53741455078125 94.7611312866211 105.05152130126953 92.18824768066406 103.56639862060547 C 90.78673553466797 102.92125701904297 89.59848022460938 102.49858093261719 88.02821350097656 102.88290405273438 C 84.54707336425781 103.73670196533203 82.8586654663086 107.86144256591797 84.73424530029297 110.91377258300781 C 85.41006469726562 112.01380157470703 85.79208374023438 112.12810516357422 86.8184814453125 112.85686492919922 C 89.39136505126953 114.3465805053711 91.9642562866211 115.83554077148438 94.53636932373047 117.32527160644531 C 91.10892486572266 119.97256469726562 91.10892486572266 123.96844482421875 94.53636932373047 126.61572265625 C 91.9642562866211 128.10623168945312 89.39136505126953 129.59671020507812 86.8184814453125 131.08721923828125 C 85.55965423583984 131.9785919189453 84.5999984741211 132.79632568359375 84.14970397949219 134.34896850585938 C 83.15169525146484 137.7902069091797 85.8849105834961 141.31507873535156 89.46424102783203 141.21151733398438 C 90.75528717041016 141.17469787597656 91.04448699951172 140.901611328125 92.18824768066406 140.37460327148438 C 94.7611312866211 138.8894805908203 97.33401489257812 137.40359497070312 99.90689849853516 135.91847229003906 C 100.47225952148438 140.2257843017578 103.94419860839844 142.23484802246094 107.96078491210938 140.5786590576172 C 107.96078491210938 143.54966735839844 107.96078491210938 146.52069091796875 107.96078491210938 149.49169921875 C 108.16099548339844 150.98141479492188 108.42334747314453 152.1788787841797 109.53335571289062 153.2888946533203 C 111.98043060302734 155.73519897460938 116.22408294677734 155.19515991210938 117.96772003173828 152.20188903808594 C 118.61286163330078 151.09571838378906 118.5330810546875 150.739013671875 118.70030975341797 149.49169921875 C 118.70030975341797 146.52069091796875 118.70030975341797 143.54966735839844 118.70030975341797 140.5786590576172 C 122.71612548828125 142.23484802246094 126.1911392211914 140.2257843017578 126.75650024414062 135.91847229003906 C 129.32937622070312 137.40359497070312 131.9022674560547 138.8894805908203 134.4751434326172 140.37460327148438 C 135.61891174316406 140.901611328125 135.90579223632812 141.17469787597656 137.19761657714844 141.21151733398438 C 140.7761688232422 141.31507873535156 143.512451171875 137.7902069091797 142.51368713378906 134.34896850585938 C 142.06338500976562 132.79864501953125 141.10296630859375 131.9778289794922 139.84567260742188 131.08721923828125 C 137.27125549316406 129.59671020507812 134.69760131835938 128.10623168945312 132.12396240234375 126.61572265625 C 135.55523681640625 123.96766662597656 135.55523681640625 119.97333526611328 132.12396240234375 117.32527160644531 C 134.69683837890625 115.83477783203125 137.26971435546875 114.34428405761719 139.8426055908203 112.85379028320312 C 140.8720703125 112.12580871582031 141.24948120117188 112.01534271240234 141.9276123046875 110.91377258300781 C 143.8062744140625 107.86144256591797 142.114013671875 103.73670196533203 138.63211059570312 102.88290405273438 C 137.06336975097656 102.49858093261719 135.87588500976562 102.92125701904297 134.4751434326172 103.56639862060547 C 131.9022674560547 105.05152130126953 129.32937622070312 106.53741455078125 126.75650024414062 108.02253723144531 C 126.1911392211914 103.71598815917969 122.71536254882812 101.70462799072266 118.70030975341797 103.36541748046875 C 118.70030975341797 100.39440155029297 118.70030975341797 97.42338562011719 118.70030975341797 94.45237731933594 C 118.26842498779297 91.22821807861328 116.5539321899414 89.51449584960938 113.3305435180664 89.08184051513672 C 113.3305435180664 89.08184051513672 113.3305435180664 89.08184051513672 113.3305435180664 89.08184051513672" stroke-width="0.0" fill="rgb(0, 0, 0)" opacity="1.0"/>
    <path d="M 152.6610107421875 69.6923828125 C 152.6610107421875 69.6923828125 152.6610107421875 69.6923828125 152.6610107421875 69.6923828125 C 155.14796447753906 70.98190307617188 157.0235595703125 72.89199829101562 157.51527404785156 75.76022338867188 C 158.53704833984375 81.71989440917969 152.60348510742188 86.7406234741211 146.89541625976562 84.72926330566406 C 140.8367919921875 82.59516906738281 139.70452880859375 74.25208282470703 144.93545532226562 70.55078125 C 147.31272888183594 68.86927795410156 149.98992919921875 68.84549713134766 152.6610107421875 69.6923828125 C 152.6610107421875 69.6923828125 152.6610107421875 69.6923828125 152.6610107421875 69.6923828125" stroke-width="0.0" fill="rgb(0, 0, 0)" opacity="1.0"/>
    <path d="M 110.40709686279297 33.37052917480469 C 110.40709686279297 33.37052917480469 110.40709686279297 33.37052917480469 110.40709686279297 33.37052917480469 C 103.37960815429688 33.5692138671875 97.9515380859375 36.30011749267578 92.46900939941406 40.48394012451172 C 92.46900939941406 40.48394012451172 92.46900939941406 40.48394012451172 92.46900939941406 40.48394012451172 C 102.96306610107422 38.61372375488281 114.00406646728516 37.75609588623047 124.44825744628906 40.35198974609375 C 124.44825744628906 40.35198974609375 124.44825744628906 40.35198974609375 124.44825744628906 40.35198974609375 C 121.01390838623047 35.79460144042969 116.01235961914062 33.62444305419922 110.40709686279297 33.37052917480469 C 110.40709686279297 33.37052917480469 110.40709686279297 33.37052917480469 110.40709686279297 33.37052917480469" stroke-width="0.0" fill="rgb(254, 254, 254)" opacity="1.0"/>
    <path d="M 113.3305435180664 91.76748657226562 C 113.3305435180664 91.76748657226562 113.3305435180664 91.76748657226562 113.3305435180664 91.76748657226562 C 111.33683013916016 92.16638946533203 111.0445556640625 92.45865631103516 110.64566040039062 94.45237731933594 C 110.64566040039062 97.42338562011719 110.64566040039062 100.39440155029297 110.64566040039062 103.36541748046875 C 110.54594421386719 103.86250305175781 110.57355499267578 104.40331268310547 110.34725952148438 104.8574447631836 C 108.97796630859375 107.59526062011719 105.89725494384766 104.5513687133789 103.93115997314453 105.68975830078125 C 101.74105834960938 106.95702362060547 103.38113403320312 110.96900177001953 99.91073608398438 110.7074203491211 C 99.44740295410156 110.67290496826172 99.01321411132812 110.46807861328125 98.56446075439453 110.3484115600586 C 95.9915771484375 108.8625259399414 93.41868591308594 107.37663269042969 90.84580993652344 105.89073944091797 C 89.91453552246094 105.51102447509766 89.69207000732422 105.24483489990234 88.67028045654297 105.49031066894531 C 85.95625305175781 106.14158630371094 86.34364318847656 109.10186004638672 88.06426239013672 110.4780502319336 C 90.67013549804688 111.98619079589844 93.27600860595703 113.49356079101562 95.88187408447266 115.00170135498047 C 96.19332122802734 115.24640655517578 96.55233001708984 115.43894958496094 96.81468200683594 115.73582458496094 C 99.001708984375 118.208984375 94.54634094238281 119.73016357421875 94.54634094238281 121.97088623046875 C 94.54634094238281 124.64656829833984 98.70867919921875 124.9173583984375 96.85840606689453 127.96353912353516 C 96.61906433105469 128.35707092285156 96.20713806152344 128.6140594482422 95.88187408447266 128.93853759765625 C 93.30976104736328 130.4290313720703 90.73687744140625 131.9202880859375 88.16399383544922 133.41078186035156 C 87.36849975585938 134.0275421142578 87.02713012695312 134.08584594726562 86.72872924804688 135.09458923339844 C 85.93860626220703 137.77256774902344 88.7001953125 138.9132537841797 90.75068664550781 138.10702514648438 C 93.35501861572266 136.6027374267578 95.9593505859375 135.09765625 98.56446075439453 133.59259033203125 C 99.04467010498047 133.43072509765625 99.4988021850586 133.1361541748047 100.00508880615234 133.10546875 C 103.05972290039062 132.92213439941406 101.9681167602539 137.1151580810547 103.93345642089844 138.25201416015625 C 106.1258544921875 139.52157592773438 108.77928924560547 136.09719848632812 110.285888671875 139.2377471923828 C 110.4861068725586 139.65504455566406 110.52523040771484 140.1314239501953 110.64566040039062 140.5786590576172 C 110.64566040039062 143.54966735839844 110.64566040039062 146.52069091796875 110.64566040039062 149.49169921875 C 110.74462127685547 149.98878479003906 110.71700286865234 150.52960205078125 110.9440689086914 150.9837188720703 C 111.7702407836914 152.6368408203125 114.8908462524414 152.6368408203125 115.71702575683594 150.9837188720703 C 115.94408416748047 150.52960205078125 115.91647338867188 149.98878479003906 116.01542663574219 149.49169921875 C 116.01542663574219 146.52069091796875 116.01542663574219 143.54966735839844 116.01542663574219 140.5786590576172 C 116.11515045166016 140.08155822753906 116.08753967285156 139.54075622558594 116.31383514404297 139.0866241455078 C 117.68158721923828 136.3518829345703 120.76383972167969 139.3881072998047 122.72916412353516 138.25125122070312 C 125.0466079711914 136.91188049316406 123.19020080566406 133.1591796875 126.75265502929688 133.23358154296875 C 127.217529296875 133.24278259277344 127.65017700195312 133.47293090820312 128.09893798828125 133.59259033203125 C 130.67181396484375 135.0784912109375 133.2447052001953 136.5643768310547 135.81759643554688 138.05026245117188 C 136.74655151367188 138.4299774169922 136.9736328125 138.69847106933594 137.99386596679688 138.45298767089844 C 140.5092315673828 137.8485107421875 140.62506103515625 134.54763793945312 138.49632263183594 133.41078186035156 C 135.92344665527344 131.9202880859375 133.35055541992188 130.4290313720703 130.7784423828125 128.93853759765625 C 130.39796447753906 128.60330200195312 129.9154510498047 128.35707092285156 129.63697814941406 127.932861328125 C 127.95932006835938 125.38375854492188 132.11705017089844 124.23692321777344 132.11705017089844 121.97088623046875 C 132.11705017089844 119.29444122314453 127.95011901855469 119.02595520019531 129.80191040039062 115.97745513916016 C 130.041259765625 115.58393859863281 130.4532012939453 115.32695007324219 130.7784423828125 115.0024642944336 C 133.35055541992188 113.51197052001953 135.92344665527344 112.02071380615234 138.49632263183594 110.53022003173828 C 140.2169647216797 109.60968780517578 140.64117431640625 107.19329071044922 138.97117614746094 105.942138671875 C 137.94325256347656 105.17195892333984 136.98973083496094 105.41130065917969 135.915771484375 105.83167266845703 C 133.3106689453125 107.33673858642578 130.70480346679688 108.84257507324219 128.09893798828125 110.3484115600586 C 127.73225402832031 110.49569702148438 127.3855209350586 110.71048736572266 126.99812316894531 110.79026794433594 C 123.75325775146484 111.45381927490234 124.67225646972656 106.81280517578125 122.72916412353516 105.68975830078125 C 120.4124984741211 104.34961700439453 118.09275817871094 107.83382415771484 116.37596893310547 104.70939636230469 C 116.15274047851562 104.30282592773438 116.1358642578125 103.81340789794922 116.01542663574219 103.36541748046875 C 116.01542663574219 100.39440155029297 116.01542663574219 97.42338562011719 116.01542663574219 94.45237731933594 C 115.61653137207031 92.45865631103516 115.32426452636719 92.16638946533203 113.3305435180664 91.76748657226562 C 113.3305435180664 91.76748657226562 113.3305435180664 91.76748657226562 113.3305435180664 91.76748657226562" stroke-width="0.0" fill="rgb(254, 254, 254)" opacity="1.0"/>
    <path d="M 151.98135375976562 72.32664489746094 C 151.98135375976562 72.32664489746094 151.98135375976562 72.32664489746094 151.98135375976562 72.32664489746094 C 152.3211669921875 75.58454895019531 152.38714599609375 78.77188873291016 151.8632049560547 82.01062774658203 C 151.8632049560547 82.01062774658203 151.8632049560547 82.01062774658203 151.8632049560547 82.01062774658203 C 154.53659057617188 80.43728637695312 155.9887237548828 77.12261199951172 154.20596313476562 74.23444366455078 C 153.533203125 73.14437866210938 153.0399627685547 73.00399780273438 151.98135375976562 72.32664489746094 C 151.98135375976562 72.32664489746094 151.98135375976562 72.32664489746094 151.98135375976562 72.32664489746094" stroke-width="0.0" fill="rgb(255, 255, 255)" opacity="1.0"/>
    <path d="M 146.6016082763672 72.63272094726562 C 146.6016082763672 72.63272094726562 146.6016082763672 72.63272094726562 146.6016082763672 72.63272094726562 C 143.58151245117188 75.22171020507812 143.39892578125 78.9437255859375 146.4627685546875 81.62094116210938 C 146.4627685546875 81.62094116210938 146.4627685546875 81.62094116210938 146.4627685546875 81.62094116210938 C 147.03656005859375 78.61693572998047 146.9498748779297 75.66280364990234 146.6016082763672 72.63272094726562 C 146.6016082763672 72.63272094726562 146.6016082763672 72.63272094726562 146.6016082763672 72.63272094726562" stroke-width="0.0" fill="rgb(253, 253, 253)" opacity="1.0"/>
    <path d="M 119.71136474609375 110.9206771850586 C 119.71136474609375 110.9206771850586 119.71136474609375 110.9206771850586 119.71136474609375 110.9206771850586 C 121.19955444335938 112.08975219726562 121.39823150634766 112.83231353759766 120.69248962402344 114.5889892578125 C 120.49610900878906 114.9295883178711 120.29973602294922 115.26941680908203 120.10335540771484 115.61001586914062 C 119.76812744140625 115.99127197265625 119.52188110351562 116.47301483154297 119.09843444824219 116.75224304199219 C 117.5557861328125 117.77019500732422 114.8540267944336 116.20989227294922 114.96525573730469 114.36499786376953 C 114.99594116210938 113.85870361328125 115.29051208496094 113.40457916259766 115.45313262939453 112.92436218261719 C 115.64952087402344 112.58377075195312 115.84666442871094 112.24317169189453 116.04304504394531 111.9033432006836 C 117.3862533569336 110.37602996826172 117.78514862060547 110.26940155029297 119.71136474609375 110.9206771850586 C 119.71136474609375 110.9206771850586 119.71136474609375 110.9206771850586 119.71136474609375 110.9206771850586" stroke-width="0.0" fill="rgb(0, 0, 0)" opacity="1.0"/>
    <path d="M 108.14949035644531 126.92564392089844 C 108.14949035644531 126.92564392089844 108.14949035644531 126.92564392089844 108.14949035644531 126.92564392089844 C 109.65302276611328 126.90032958984375 111.81550598144531 127.64749145507812 111.69890594482422 129.57907104492188 C 111.66822052001953 130.0853729248047 111.37287902832031 130.53948974609375 111.21025848388672 131.01971435546875 C 111.01387023925781 131.3603057861328 110.81672668457031 131.70089721679688 110.62035369873047 132.0407257080078 C 110.1017837524414 132.7012176513672 109.89082336425781 133.21900939941406 109.03243255615234 133.4491424560547 C 107.5350341796875 133.84957885742188 105.38406372070312 132.43118286132812 105.48301696777344 130.79571533203125 C 105.51370239257812 130.29019165039062 105.80827331542969 129.83529663085938 105.97090148925781 129.35508728027344 C 106.16728210449219 129.01449584960938 106.36442565917969 128.67465209960938 106.56080627441406 128.3340606689453 C 106.99806213378906 127.77713775634766 107.53120422363281 127.2693099975586 108.14949035644531 126.92564392089844 C 108.14949035644531 126.92564392089844 108.14949035644531 126.92564392089844 108.14949035644531 126.92564392089844" stroke-width="0.0" fill="rgb(0, 0, 0)" opacity="1.0"/>
    <path d="M 106.96737670898438 110.93295288085938 C 106.96737670898438 110.93295288085938 106.96737670898438 110.93295288085938 106.96737670898438 110.93295288085938 C 108.89358520507812 110.2809066772461 109.29248046875 110.3883056640625 110.63568878173828 111.91561889648438 C 110.83206939697266 112.25544738769531 111.02845001220703 112.59603881835938 111.2248306274414 112.93663787841797 C 111.38745880126953 113.4168472290039 111.68279266357422 113.87097930908203 111.71270751953125 114.37726593017578 C 111.8116683959961 116.01274871826172 109.6622314453125 117.43113708496094 108.1640625 117.0299301147461 C 107.3056640625 116.80056762695312 107.09394836425781 116.2820053100586 106.57537841796875 115.6222915649414 C 106.37899780273438 115.28169250488281 106.1826171875 114.94186401367188 105.98624420166016 114.60126495361328 C 105.33342742919922 112.67505645751953 105.44082641601562 112.27616119384766 106.96737670898438 110.93295288085938 C 106.96737670898438 110.93295288085938 106.96737670898438 110.93295288085938 106.96737670898438 110.93295288085938" stroke-width="0.0" fill="rgb(0, 0, 0)" opacity="1.0"/>
    <path d="M 116.43196868896484 127.35139465332031 C 116.43196868896484 127.35139465332031 116.43196868896484 127.35139465332031 116.43196868896484 127.35139465332031 C 118.3581771850586 126.69934844970703 118.75707244873047 126.80674743652344 120.10028076171875 128.3340606689453 C 120.29666900634766 128.67465209960938 120.4930419921875 129.01449584960938 120.6894302368164 129.35508728027344 C 120.85205078125 129.83529663085938 121.14662170410156 130.28941345214844 121.17730712890625 130.79571533203125 C 121.289306640625 132.64060974121094 118.58677673339844 134.20089721679688 117.04489135742188 133.18295288085938 C 116.62144470214844 132.9037322998047 116.37520599365234 132.42198181152344 116.03997039794922 132.0407257080078 C 115.84359741210938 131.70089721679688 115.64644622802734 131.3603057861328 115.45006561279297 131.01971435546875 C 114.79802703857422 129.093505859375 114.9054183959961 128.69459533691406 116.43196868896484 127.35139465332031 C 116.43196868896484 127.35139465332031 116.43196868896484 127.35139465332031 116.43196868896484 127.35139465332031" stroke-width="0.0" fill="rgb(0, 0, 0)" opacity="1.0"/>
    <path d="M 103.26453399658203 119.28600311279297 C 103.6534652709961 119.28600311279297 104.04238891601562 119.28600311279297 104.43208312988281 119.28600311279297 C 104.92916107177734 119.38495635986328 105.46997833251953 119.35734558105469 105.92333984375 119.58441162109375 C 107.57646179199219 120.41058349609375 107.57646179199219 123.53042602539062 105.92333984375 124.35659790039062 C 105.46997833251953 124.58366394042969 104.92916107177734 124.55603790283203 104.43208312988281 124.65499877929688 C 104.04238891601562 124.65499877929688 103.6534652709961 124.65499877929688 103.26453399658203 124.65499877929688 C 102.76667785644531 124.55603790283203 102.22587585449219 124.58366394042969 101.77250671386719 124.35659790039062 C 100.11939239501953 123.53042602539062 100.11939239501953 120.41058349609375 101.77250671386719 119.58441162109375 C 102.22587585449219 119.35734558105469 102.76667785644531 119.38495635986328 103.26453399658203 119.28600311279297 C 103.26453399658203 119.28600311279297 103.26453399658203 119.28600311279297 103.26453399658203 119.28600311279297" stroke-width="0.0" fill="rgb(0, 0, 0)" opacity="1.0"/>
    <path d="M 122.23131561279297 119.28600311279297 C 122.62100219726562 119.28600311279297 123.00992584228516 119.28600311279297 123.39885711669922 119.28600311279297 C 123.89671325683594 119.38495635986328 124.43751525878906 119.35734558105469 124.89088439941406 119.58441162109375 C 126.54399871826172 120.41058349609375 126.54399871826172 123.53042602539062 124.89088439941406 124.35659790039062 C 124.43751525878906 124.58366394042969 123.89671325683594 124.55603790283203 123.39885711669922 124.65499877929688 C 123.00992584228516 124.65499877929688 122.62100219726562 124.65499877929688 122.23131561279297 124.65499877929688 C 121.7342300415039 124.55603790283203 121.19341278076172 124.58366394042969 120.74005126953125 124.35659790039062 C 119.08692932128906 123.53042602539062 119.08692932128906 120.41058349609375 120.74005126953125 119.58441162109375 C 121.19341278076172 119.35734558105469 121.7342300415039 119.38495635986328 122.23131561279297 119.28600311279297 C 122.23131561279297 119.28600311279297 122.23131561279297 119.28600311279297 122.23131561279297 119.28600311279297" stroke-width="0.0" fill="rgb(0, 0, 0)" opacity="1.0"/>
  </g>
</svg>
