<?xml version="1.0" ?>
<svg xmlns="http://www.w3.org/2000/svg" version="1.1" width="224" height="224">
  <defs/>
  <g>
    <path d="M 97.38580322265625 193.97250366210938 C 70.76001739501953 188.90623474121094 47.97076416015625 168.72854614257812 39.976287841796875 144.74655151367188 C 36.51903533935547 133.75230407714844 35.699623107910156 127.63742065429688 35.281593322753906 114.48939514160156 C 35.709815979003906 89.435546875 41.866119384765625 71.65849304199219 56.44124984741211 55.862548828125 C 73.3929672241211 37.28453826904297 100.87491607666016 28.0 124.51190948486328 33.01637268066406 C 163.55076599121094 40.81663513183594 188.71841430664062 75.93443298339844 186.46514892578125 119.07222747802734 C 185.4766387939453 137.41490173339844 180.50445556640625 152.0330047607422 170.3056640625 165.56320190429688 C 161.42588806152344 177.52670288085938 147.04913330078125 187.57211303710938 131.18289184570312 192.2404327392578 C 124.00909423828125 195.00799560546875 104.86629486083984 196.0 97.38580322265625 193.97250366210938" stroke-width="1.0" fill="rgb(0, 0, 0)" opacity="1.0"/>
    <path d="M 78.9215087890625 181.24856567382812 C 55.56637191772461 168.4844970703125 42.83477783203125 147.5718231201172 41.37523651123047 118.41881561279297 C 40.5286865234375 88.32695007324219 50.594722747802734 65.54013061523438 71.69001770019531 50.370140075683594 C 78.0010757446289 45.61164855957031 89.10335540771484 40.4798583984375 96.3094482421875 39.481781005859375 C 104.82711791992188 37.05560302734375 119.91683197021484 37.380653381347656 127.29900360107422 39.638755798339844 C 150.3231201171875 44.535369873046875 170.80435180664062 65.21299743652344 177.0718994140625 88.4698715209961 C 181.18634033203125 101.78826141357422 181.62164306640625 125.08195495605469 177.41311645507812 137.6132049560547 C 172.63819885253906 154.69671630859375 162.31785583496094 168.52084350585938 148.07762145996094 178.0968017578125 C 136.76065063476562 184.76327514648438 137.43368530273438 186.04998779296875 110.30754852294922 185.49188232421875 L 86.3685302734375 184.90655517578125 L 78.9215087890625 181.24856567382812" stroke-width="0.0" fill="rgb(252, 254, 253)" opacity="0.9957084"/>
    <path d="M 97.873779296875 182.67349243164062 C 92.68154907226562 180.74508666992188 85.60231018066406 174.93182373046875 84.05635833740234 170.68643188476562 C 78.7856216430664 160.6175079345703 77.70075225830078 163.61331176757812 78.43035888671875 119.61961364746094 C 78.20001220703125 78.50340270996094 78.78059387207031 78.72737121582031 81.0947265625 73.5 C 82.31240844726562 67.84309387207031 86.3431396484375 62.215450286865234 91.49879455566406 59.77638626098633 C 94.00738525390625 59.32954788208008 93.50049591064453 58.87428665161133 91.47053527832031 55.843788146972656 C 88.9688491821289 50.266258239746094 90.94474792480469 46.0714111328125 96.30784606933594 44.62846374511719 C 99.07459259033203 43.832244873046875 105.10167694091797 45.80915069580078 109.76380157470703 49.385292053222656 C 111.06511688232422 50.87762451171875 113.9280776977539 52.072227478027344 115.85702514648438 51.58637237548828 C 124.62425231933594 52.74848937988281 134.30419921875 59.98957443237305 138.62081909179688 68.57057189941406 C 143.66905212402344 78.79462432861328 144.05279541015625 79.81880187988281 143.7547149658203 120.87644958496094 C 144.04327392578125 157.89601135253906 143.0069580078125 158.7895965576172 140.65390014648438 163.1820068359375 C 137.8876190185547 170.27316284179688 131.90106201171875 176.78639221191406 124.68484497070312 180.72735595703125 C 119.5861587524414 183.17022705078125 117.84376525878906 183.94898986816406 109.71288299560547 185.18386840820312 C 104.38243103027344 183.9294891357422 100.34651184082031 183.23941040039062 97.873779296875 182.67349243164062" stroke-width="1.0" fill="rgb(0, 0, 0)" opacity="0.99991816"/>
    <path d="M 102.6922607421875 188.6636199951172 C 97.02669525146484 187.917236328125 87.03443908691406 185.41131591796875 87.14382934570312 184.83474731445312 C 87.09678649902344 184.58084106445312 88.3395004272461 183.51327514648438 89.84040069580078 182.77145385742188 C 92.72945404052734 180.97947692871094 92.94781494140625 180.80955505371094 97.68994140625 181.8603515625 C 103.5647964477539 183.968505859375 115.4525375366211 183.8251495361328 121.11184692382812 181.38392639160156 C 126.28189086914062 179.97805786132812 126.17276000976562 180.02447509765625 129.6191864013672 182.00048828125 C 134.58676147460938 184.10865783691406 134.71917724609375 185.40945434570312 130.0510711669922 186.37396240234375 C 121.0938720703125 189.056396484375 109.76453399658203 189.93099975585938 102.6922607421875 188.6636199951172" stroke-width="1.0" fill="rgb(251, 224, 114)" opacity="0.99195486"/>
    <path d="M 85.33519744873047 160.42318725585938 C 83.93648529052734 159.24774169921875 83.94656372070312 149.1869659423828 84.06985473632812 120.01889038085938 C 83.5230712890625 75.92933654785156 84.66822052001953 74.00111389160156 90.14549255371094 67.77188110351562 C 94.11589813232422 63.806495666503906 95.63374328613281 63.197181701660156 96.28101348876953 67.63165283203125 C 96.71946716308594 71.69612121582031 98.71702575683594 73.48685455322266 104.53286743164062 74.8123550415039 C 107.52803802490234 75.33685302734375 109.39678955078125 76.32776641845703 110.35832977294922 78.4309310913086 C 112.5662612915039 81.27101135253906 112.83415222167969 83.271728515625 112.60717010498047 115.63568115234375 C 113.01731872558594 152.74285888671875 112.09953308105469 153.6443328857422 106.24117279052734 155.78399658203125 C 105.32234954833984 156.1522216796875 100.60325622558594 157.26947021484375 96.4669189453125 158.46627807617188 C 92.61520385742188 159.51864624023438 88.71469116210938 160.53591918945312 87.76031494140625 160.6194610595703 C 87.15833282470703 160.9086456298828 86.40592956542969 160.94024658203125 85.33519744873047 160.42318725585938" stroke-width="1.0" fill="rgb(73, 211, 254)" opacity="0.997775"/>
    <path d="M 103.06074523925781 177.77334594726562 C 100.67979431152344 177.38735961914062 98.06700134277344 176.52691650390625 97.16646575927734 175.91700744628906 C 94.5757064819336 174.6713409423828 87.9418716430664 168.84996032714844 87.74016571044922 167.1852569580078 C 87.83772277832031 166.6363983154297 92.93478393554688 165.08065795898438 98.95295715332031 163.33189392089844 C 108.29247283935547 161.0089874267578 110.3358383178711 160.22152709960938 113.40582275390625 157.57354736328125 C 118.64901733398438 152.68386840820312 118.3215103149414 151.00550842285156 118.20249938964844 113.92427062988281 C 118.49166107177734 81.33113861083984 118.26963806152344 80.91803741455078 115.67232513427734 77.37152862548828 C 113.50516510009766 73.31300354003906 109.96822357177734 70.7393798828125 104.47374725341797 69.30374145507812 C 101.23318481445312 68.09368896484375 101.00269317626953 67.43899536132812 100.86933135986328 64.0740966796875 C 100.89131164550781 60.51531982421875 101.47735595703125 60.38100051879883 105.4085922241211 58.39094161987305 C 118.53456115722656 52.86299133300781 134.035888671875 64.091552734375 137.41114807128906 82.13643646240234 C 137.706787109375 85.77546691894531 137.80262756347656 100.2098388671875 137.72726440429688 121.63936614990234 C 138.11248779296875 151.9635009765625 137.7733612060547 155.81822204589844 135.46176147460938 159.96539306640625 C 133.44076538085938 166.66488647460938 125.6339111328125 174.58001708984375 119.52114868164062 176.388916015625 C 113.11593627929688 178.382080078125 107.60661315917969 178.6381378173828 103.06074523925781 177.77334594726562" stroke-width="1.0" fill="rgb(254, 223, 104)" opacity="0.9976869"/>
    <path d="M 96.84776306152344 54.270545959472656 C 95.5442886352539 50.17329406738281 95.47001647949219 50.15265655517578 99.56651306152344 50.70526123046875 C 104.87530517578125 51.10797119140625 105.8131103515625 52.73091125488281 101.63323211669922 54.81239318847656 L 98.24102783203125 57.0546875 L 96.84776306152344 54.270545959472656" stroke-width="1.0" fill="rgb(244, 223, 91)" opacity="0.9727206"/>
  </g>
</svg>
