<?xml version="1.0" ?>
<svg xmlns="http://www.w3.org/2000/svg" version="1.1" width="224" height="224">
  <defs/>
  <g>
    <path d="M 68.73812866210938 186.6862335205078 C 39.99828338623047 168.30043029785156 27.99999237060547 133.56549072265625 38.52362823486328 99.21888732910156 C 46.123817443847656 74.6844482421875 69.49267578125 53.366024017333984 94.16543579101562 48.21377182006836 C 97.22309112548828 47.57262420654297 100.60858917236328 46.644813537597656 101.19583892822266 46.2975959777832 C 102.2793960571289 46.01862716674805 96.37991333007812 42.436790466308594 92.05341339111328 41.65983581542969 C 88.06365203857422 40.784820556640625 86.3296127319336 39.273162841796875 87.08917999267578 36.70555877685547 C 89.01216125488281 33.268218994140625 98.72799682617188 36.21875762939453 105.39138793945312 42.02108383178711 C 108.18916320800781 45.98002243041992 109.44477844238281 46.19023513793945 115.06744384765625 45.932430267333984 C 121.14859771728516 45.906803131103516 121.83570861816406 45.35361099243164 124.19879150390625 42.011985778808594 C 127.96604919433594 38.39893341064453 134.38925170898438 35.637725830078125 139.4231719970703 35.00080490112305 C 145.9808807373047 35.28813934326172 144.55889892578125 39.97492980957031 137.07943725585938 42.088783264160156 C 134.48361206054688 42.55965805053711 131.46942138671875 44.06843948364258 130.13186645507812 45.17654800415039 C 127.47047424316406 47.06398391723633 127.19804382324219 46.547218322753906 137.7616424560547 48.790985107421875 C 163.97225952148438 55.113853454589844 185.96963500976562 76.58316040039062 192.8092498779297 103.83473205566406 C 195.9604949951172 114.0806884765625 196.0 131.77867126464844 193.28329467773438 142.02374267578125 C 189.15013122558594 160.32318115234375 177.78268432617188 176.35328674316406 162.7232666015625 185.90585327148438 L 154.88023376464844 190.73178100585938 L 75.53147888183594 190.719970703125 L 68.73812866210938 186.6862335205078" stroke-width="1.0" fill="rgb(1, 0, 1)" opacity="1.0"/>
    <path d="M 105.12355041503906 163.17202758789062 C 89.51048278808594 158.96307373046875 78.13400268554688 148.2371368408203 73.34053039550781 133.5694122314453 C 66.80171966552734 112.36486053466797 76.48847961425781 89.51954650878906 95.93785095214844 79.86305236816406 C 99.98956298828125 78.06353759765625 105.1844711303711 76.16587829589844 107.61332702636719 75.76874542236328 L 112.41718292236328 75.19949340820312 L 112.38362884521484 79.72257232666016 C 112.39555358886719 83.7441177368164 112.1540756225586 84.13634490966797 108.98690032958984 84.27401733398438 C 106.24041748046875 83.95264434814453 106.14222717285156 84.24185180664062 106.31199645996094 86.12704467773438 C 106.25312042236328 89.81468963623047 109.91837310791016 96.4263687133789 112.75868225097656 97.80085754394531 C 117.2990493774414 100.4595947265625 123.7323989868164 94.05424499511719 124.03490447998047 86.99461364746094 C 124.2234878540039 84.25767517089844 123.62213134765625 84.06537628173828 121.07696533203125 84.39021301269531 C 118.13392639160156 83.96381378173828 117.7347412109375 83.4593276977539 117.73092651367188 79.56105041503906 L 117.73146057128906 75.10549926757812 L 122.4816665649414 75.96566009521484 C 130.3326416015625 77.18357849121094 140.13436889648438 82.2822494506836 146.12362670898438 88.2804946899414 C 155.43792724609375 98.63844299316406 159.3374786376953 109.14159393310547 158.68478393554688 123.26690673828125 C 157.63568115234375 134.86080932617188 153.91860961914062 143.11341857910156 145.85292053222656 151.64231872558594 C 134.8169708251953 162.46725463867188 119.3458023071289 166.82583618164062 105.12355041503906 163.17202758789062" stroke-width="1.0" fill="rgb(248, 75, 144)" opacity="0.993243"/>
    <path d="M 111.8138198852539 184.75198364257812 C 71.85977172851562 185.42120361328125 75.46046447753906 185.2252197265625 65.18619537353516 176.79824829101562 C 54.06575012207031 168.00631713867188 45.85755920410156 155.22117614746094 42.541534423828125 141.83526611328125 C 40.34117126464844 132.24002075195312 40.006675720214844 115.2449722290039 42.739356994628906 106.27914428710938 C 43.35340118408203 102.25486755371094 45.727386474609375 95.42466735839844 48.39622497558594 90.67988586425781 C 53.88926315307617 79.04212188720703 65.98905944824219 66.75142669677734 77.89384460449219 60.507423400878906 C 85.0720443725586 56.32289505004883 99.53327178955078 52.599693298339844 104.43867492675781 52.36628723144531 C 106.58810424804688 52.239925384521484 109.00572967529297 57.955081939697266 110.53792572021484 64.6607437133789 C 111.1230697631836 68.38121032714844 111.03117370605469 70.19168853759766 108.01374053955078 70.33329010009766 C 88.57128143310547 73.76182556152344 74.51341247558594 86.67742156982422 67.86236572265625 104.25672912597656 C 65.12762451171875 112.96427154541016 64.90184020996094 126.85166931152344 68.41642761230469 135.44400024414062 C 75.40739440917969 158.1595916748047 99.89789581298828 173.17636108398438 122.19873809814453 169.32847595214844 C 145.94960021972656 165.89288330078125 164.6439666748047 144.053466796875 164.3614501953125 120.46239471435547 C 164.87506103515625 114.2713623046875 161.53561401367188 101.6233901977539 158.09140014648438 95.69017791748047 C 150.79690551757812 82.50621032714844 138.32794189453125 73.15026092529297 121.90043640136719 70.20687866210938 C 118.88842010498047 70.14015197753906 119.2716064453125 68.96051788330078 119.76311492919922 64.50012969970703 C 120.35997009277344 62.403480529785156 121.28440856933594 58.701255798339844 121.9205322265625 56.20226287841797 C 123.83248138427734 52.25541687011719 124.21024322509766 51.965736389160156 128.16441345214844 52.54045867919922 C 158.06715393066406 57.742862701416016 180.303466796875 77.01795196533203 187.26211547851562 105.55070495605469 C 190.00567626953125 115.20733642578125 190.16885375976562 131.83692932128906 187.26687622070312 141.2064666748047 C 183.78106689453125 155.90158081054688 175.42160034179688 168.357177734375 164.70361328125 177.17755126953125 C 159.17398071289062 181.92123413085938 152.32754516601562 186.018798828125 150.5834197998047 184.91250610351562 C 149.20877075195312 184.6769561767578 132.32168579101562 184.88279724121094 111.8138198852539 184.75198364257812" stroke-width="1.0" fill="rgb(246, 254, 254)" opacity="0.996324"/>
    <path d="M 113.0355453491211 55.56474685668945 C 111.33922576904297 51.84454345703125 111.55411529541016 51.819862365722656 115.06582641601562 51.612789154052734 C 117.49327850341797 51.79534149169922 118.05792236328125 52.75807571411133 117.20227813720703 55.2498779296875 C 116.04344177246094 59.068729400634766 114.2412109375 59.48603057861328 113.0355453491211 55.56474685668945" stroke-width="1.0" fill="rgb(237, 241, 241)" opacity="0.9428238"/>
  </g>
</svg>
