<?xml version="1.0" ?>
<svg xmlns="http://www.w3.org/2000/svg" version="1.1" width="224" height="224">
  <defs/>
  <g>
    <path d="M 99.16908264160156 194.27511596679688 C 70.02119445800781 188.73318481445312 45.124595642089844 168.92323303222656 34.25718688964844 142.34756469726562 C 29.711227416992188 130.62252807617188 28.73077392578125 125.35134887695312 28.0 111.39944458007812 C 28.467514038085938 100.37442016601562 28.976661682128906 97.87258911132812 30.63934326171875 91.38104248046875 C 34.42908477783203 76.69469451904297 41.63829040527344 64.0811996459961 52.32730484008789 53.276763916015625 C 63.49507522583008 42.296607971191406 76.14092254638672 34.78911590576172 91.89591217041016 30.840438842773438 C 98.3094253540039 29.276893615722656 100.87728118896484 28.783164978027344 111.71151733398438 28.188453674316406 C 122.06752014160156 28.634384155273438 125.44645690917969 29.10265350341797 130.6380615234375 30.455825805664062 C 146.70889282226562 34.522705078125 157.73672485351562 40.566184997558594 169.56094360351562 51.516456604003906 C 181.63336181640625 62.980777740478516 189.4576416015625 76.38247680664062 193.3408203125 92.16323852539062 C 195.05319213867188 98.7908935546875 195.513916015625 101.08782196044922 196.0 111.69406127929688 C 195.2668914794922 125.16156768798828 194.45623779296875 129.5056915283203 189.9366455078125 141.93663024902344 C 180.36599731445312 166.99525451660156 155.23153686523438 187.97171020507812 128.57675170898438 193.4658966064453 C 120.17040252685547 195.51409912109375 106.23426055908203 195.81153869628906 99.16908264160156 194.27511596679688" stroke-width="1.0" fill="rgb(0, 0, 0)" opacity="1.0"/>
    <path d="M 34.016517639160156 105.37421417236328 C 33.830482482910156 100.50542449951172 34.34965515136719 97.22062683105469 37.20830535888672 87.67475128173828 C 40.24037170410156 78.41743469238281 42.803245544433594 73.55543518066406 48.25143814086914 65.70449829101562 C 55.73099899291992 55.729095458984375 66.30240631103516 46.96769714355469 77.93928527832031 41.424041748046875 C 97.96284484863281 31.159286499023438 125.13934326171875 30.768142700195312 145.90548706054688 41.10541534423828 C 166.80831909179688 50.894195556640625 184.701416015625 73.1258544921875 189.09848022460938 97.90992736816406 C 191.09292602539062 101.61296081542969 189.2202911376953 101.62174224853516 188.54180908203125 104.70877838134766 C 188.68795776367188 104.71269989013672 35.293601989746094 104.44053649902344 34.016517639160156 105.37421417236328" stroke-width="0.0" fill="rgb(252, 254, 254)" opacity="0.9986025"/>
    <path d="M 93.70915985107422 136.9320526123047 C 93.3499755859375 136.23806762695312 93.51563262939453 135.44078063964844 94.03372192382812 134.99693298339844 C 94.28564453125 134.47122192382812 108.73882293701172 134.43075561523438 130.5056610107422 134.24118041992188 C 165.80824279785156 134.64149475097656 166.41107177734375 134.581298828125 166.59619140625 135.96018981933594 C 166.4115447998047 137.8362579345703 165.80859375 137.92355346679688 130.12026977539062 137.93202209472656 C 98.0028305053711 137.88438415527344 93.93264770507812 137.70175170898438 93.70915985107422 136.9320526123047" stroke-width="1.0" fill="rgb(2, 2, 2)" opacity="0.9633217"/>
    <path d="M 44.61043167114258 105.25042724609375 C 42.43853759765625 104.97125244140625 43.29075622558594 102.44234466552734 45.34996032714844 101.0447998046875 C 47.82974624633789 99.07469940185547 52.38454818725586 96.5850830078125 67.39750671386719 88.84496307373047 C 73.59992218017578 85.45610046386719 81.13713836669922 81.35274505615234 83.99195098876953 79.62240600585938 C 91.13601684570312 75.4213638305664 94.46305847167969 74.40950775146484 99.5278549194336 74.44692993164062 C 103.61943817138672 74.67178344726562 105.7185287475586 74.64498901367188 118.67465209960938 81.61563110351562 L 132.66348266601562 88.82229614257812 L 137.94517517089844 86.948486328125 C 144.2232666015625 85.70879364013672 147.63735961914062 86.26336669921875 154.39430236816406 89.43357849121094 C 156.77685546875 90.56905364990234 159.95809936523438 91.62154388427734 161.50970458984375 91.86770629882812 C 165.6581268310547 92.77053833007812 167.77430725097656 93.82249450683594 172.45220947265625 98.6089096069336 C 175.9449920654297 101.68168640136719 177.22251892089844 103.18328094482422 177.22808837890625 103.76309204101562 L 176.67770385742188 105.47340393066406 L 110.90193939208984 105.4957504272461 C 74.87864685058594 105.21725463867188 44.54554748535156 105.05171203613281 44.61043167114258 105.25042724609375" stroke-width="1.0" fill="rgb(0, 0, 0)" opacity="0.9998276"/>
    <path d="M 37.038848876953125 136.25050354003906 C 36.626068115234375 135.41329956054688 36.359535217285156 134.37588500976562 36.47174072265625 133.2306365966797 C 36.95579528808594 132.44161987304688 41.590736389160156 131.9132537841797 62.43306350708008 132.92333984375 C 84.83750915527344 131.83987426757812 87.70890045166016 132.14004516601562 88.39097595214844 133.49581909179688 C 88.68560028076172 134.53558349609375 88.27227783203125 135.46910095214844 87.66881561279297 136.02894592285156 C 85.60618591308594 137.3946533203125 38.20414733886719 137.55044555664062 37.038848876953125 136.25050354003906" stroke-width="1.0" fill="rgb(24, 80, 89)" opacity="0.996642"/>
    <path d="M 98.11090850830078 188.89291381835938 C 91.59906005859375 187.63876342773438 82.264892578125 184.24681091308594 77.19754028320312 181.5336151123047 L 73.28925323486328 179.2623291015625 L 78.52538299560547 178.6664276123047 C 81.4466323852539 178.74435424804688 86.02293395996094 177.28488159179688 90.2355728149414 175.24119567871094 C 93.96598815917969 173.18124389648438 98.35936737060547 171.46527099609375 100.48515319824219 171.32728576660156 C 108.51292419433594 169.93441772460938 118.87181854248047 175.06275939941406 125.44268798828125 183.67779541015625 C 128.71585083007812 187.4595184326172 129.0624542236328 188.1671142578125 127.69461059570312 188.4290008544922 C 124.95849609375 190.1944122314453 104.06954193115234 190.90179443359375 98.11090850830078 188.89291381835938" stroke-width="1.0" fill="rgb(237, 204, 151)" opacity="0.9980596"/>
    <path d="M 38.75475311279297 137.8599853515625 C 35.64885711669922 135.2349090576172 31.899330139160156 110.97108459472656 34.222068786621094 104.44011688232422 C 33.19322204589844 102.82986450195312 34.289207458496094 102.66429901123047 38.810516357421875 101.93335723876953 C 42.663917541503906 103.05564880371094 43.245994567871094 103.01072692871094 42.71710205078125 104.14775085449219 C 43.51432800292969 105.04612731933594 44.668155670166016 106.28367614746094 44.481483459472656 106.37117767333984 C 45.283939361572266 106.14730834960938 173.8712158203125 106.0858154296875 174.98049926757812 106.24700164794922 C 176.45684814453125 105.71302795410156 177.74609375 105.07023620605469 178.92543029785156 104.06285858154297 C 177.5640869140625 103.12162780761719 177.82696533203125 102.9269027709961 183.49969482421875 102.11820983886719 C 189.7925567626953 101.86396026611328 189.76589965820312 102.08525848388672 190.21881103515625 104.1247329711914 C 191.55189514160156 108.24893951416016 190.46920776367188 122.93950653076172 188.33648681640625 130.464111328125 L 185.97451782226562 138.39337158203125 L 177.1592254638672 139.39019775390625 L 167.13502502441406 138.68283081054688 L 167.77386474609375 135.73733520507812 L 167.2994842529297 132.9698944091797 L 130.22698974609375 133.1784210205078 C 96.00074768066406 133.2607421875 93.7512435913086 132.85824584960938 93.21574401855469 133.8168182373047 C 92.53154754638672 134.32244873046875 92.67831420898438 135.5632781982422 93.44229888916016 136.75100708007812 C 92.82046508789062 136.96575927734375 90.79277038574219 136.978515625 88.07218933105469 137.90179443359375 C 84.00106048583984 137.1776885986328 83.65457916259766 137.54541015625 84.4593734741211 135.71527099609375 C 84.63381958007812 134.8897705078125 84.30250549316406 133.75784301757812 83.41015625 133.16238403320312 C 82.75555419921875 133.27415466308594 43.023353576660156 133.16732788085938 40.81354522705078 133.3453826904297 C 39.3953857421875 134.4769744873047 39.57030487060547 137.5742950439453 40.948211669921875 137.8721160888672 C 42.09941101074219 138.18460083007812 42.22990417480469 138.36817932128906 41.29197692871094 138.3087921142578 C 40.854400634765625 138.25164794921875 39.745933532714844 137.8550567626953 38.75475311279297 137.8599853515625" stroke-width="1.0" fill="rgb(217, 239, 250)" opacity="0.9919667"/>
    <path d="M 54.594608306884766 101.48873138427734 C 55.04864501953125 100.5392074584961 61.02339553833008 97.5384292602539 68.20989990234375 93.90036010742188 C 74.49076080322266 90.46208190917969 82.9506607055664 85.98532104492188 86.57058715820312 83.80595397949219 L 94.70738983154297 79.8388671875 L 92.2323226928711 83.22247314453125 C 90.96855163574219 84.90922546386719 90.07551574707031 85.97285461425781 90.49713134765625 86.3053970336914 C 91.30892181396484 88.2513427734375 94.1363525390625 88.76457977294922 95.1679458618164 86.28282165527344 C 96.84771728515625 84.4049072265625 97.3603744506836 84.50899505615234 99.26199340820312 86.751220703125 C 100.57343292236328 88.33345031738281 101.16026306152344 88.45771789550781 102.0844955444336 87.34526062011719 C 103.95771026611328 86.88858795166016 103.81920623779297 86.8204345703125 101.14689636230469 83.26492309570312 C 97.13080596923828 76.95116424560547 99.60932922363281 77.2851333618164 125.49651336669922 90.79411315917969 L 147.31631469726562 101.42847442626953 L 100.31266784667969 101.50035858154297 C 75.50542449951172 101.68461608886719 55.34907531738281 101.71147155761719 54.594608306884766 101.48873138427734" stroke-width="1.0" fill="rgb(243, 252, 255)" opacity="0.99354875"/>
    <path d="M 146.85826110839844 96.48809051513672 C 137.55824279785156 91.42111206054688 137.38037109375 91.30146789550781 141.29281616210938 91.39399719238281 C 143.01025390625 91.18787384033203 147.03111267089844 91.97897338867188 149.8758544921875 92.8810806274414 C 152.58840942382812 94.58589935302734 157.1519775390625 96.30867004394531 160.43019104003906 96.49064636230469 C 163.4393310546875 96.84432983398438 166.25283813476562 98.54226684570312 167.15187072753906 99.84207153320312 L 168.75234985351562 101.45155334472656 L 162.0048065185547 101.54695129394531 C 155.884765625 101.91706085205078 155.4620361328125 101.46676635742188 146.85826110839844 96.48809051513672" stroke-width="1.0" fill="rgb(199, 225, 242)" opacity="0.94076574"/>
    <path d="M 133.16305541992188 186.15774536132812 C 133.0436248779297 185.318115234375 130.37741088867188 182.17185974121094 127.17633056640625 178.6080780029297 C 122.7390365600586 173.8544921875 120.31015014648438 171.9207763671875 115.87997436523438 169.6700439453125 C 110.41260528564453 167.07806396484375 109.58025360107422 166.57412719726562 102.88562774658203 166.2976531982422 C 95.87979125976562 167.05027770996094 95.23943328857422 167.19044494628906 88.8946762084961 170.29660034179688 C 82.60051727294922 173.43789672851562 79.91757202148438 173.91690063476562 75.11263275146484 174.16036987304688 C 65.34608459472656 174.54248046875 64.15337371826172 174.21429443359375 57.86135482788086 167.8238067626953 C 52.4205436706543 163.18264770507812 44.72562789916992 152.82020568847656 44.14567947387695 149.98622131347656 C 43.63791275024414 149.53343200683594 56.754173278808594 149.36898803710938 71.45729064941406 149.4337921142578 C 89.10753631591797 149.64337158203125 99.55543518066406 149.79421997070312 99.82233428955078 149.40066528320312 C 101.52780151367188 147.9342041015625 101.9981689453125 146.17916870117188 100.34932708740234 144.75857543945312 C 100.24571990966797 144.41000366210938 90.74652862548828 144.6012725830078 70.02762603759766 144.50735473632812 L 41.26948547363281 144.47854614257812 L 39.407440185546875 140.8347930908203 L 37.51751708984375 137.1164093017578 L 58.27772903442383 137.24266052246094 C 69.09603118896484 137.15037536621094 82.15848541259766 137.44540405273438 85.72174072265625 136.75038146972656 C 89.70759582519531 137.0814666748047 93.10568237304688 136.86746215820312 94.10797882080078 136.9425811767578 C 93.50047302246094 137.7875213623047 112.02581787109375 137.81846618652344 140.17100524902344 137.55377197265625 C 166.13455200195312 137.96900939941406 186.57080078125 136.82205200195312 186.36212158203125 136.39453125 C 186.17811584472656 138.72061157226562 180.55191040039062 149.87107849121094 178.3656005859375 152.72691345214844 L 175.51791381835938 156.6230010986328 L 155.9735107421875 157.0187530517578 C 138.6397705078125 156.94601440429688 135.7039031982422 156.45867919921875 135.23153686523438 157.31922912597656 C 133.6076202392578 159.14938354492188 133.67236328125 158.94137573242188 135.35557556152344 161.42584228515625 C 135.49180603027344 161.96885681152344 138.73289489746094 161.634765625 153.78533935546875 161.61712646484375 L 171.78765869140625 161.72250366210938 L 167.7968292236328 166.2945556640625 C 166.09011840820312 168.14108276367188 161.9925994873047 171.87376403808594 158.59060668945312 174.3533477783203 C 149.75152587890625 181.1226043701172 133.52481079101562 188.38290405273438 133.16305541992188 186.15774536132812" stroke-width="1.0" fill="rgb(243, 251, 253)" opacity="0.98742294"/>
    <path d="M 114.42828369140625 147.9645233154297 C 114.17967224121094 147.2552490234375 114.464111328125 145.9460906982422 114.75286865234375 145.12423706054688 C 115.48694610595703 144.23898315429688 124.74309539794922 144.630859375 137.59083557128906 144.52743530273438 L 159.45896911621094 144.6801300048828 L 160.0626983642578 147.2156982421875 L 160.22230529785156 149.3409423828125 L 137.56448364257812 149.41006469726562 C 117.88421630859375 149.4449462890625 114.85160827636719 149.64505004882812 114.42828369140625 147.9645233154297" stroke-width="1.0" fill="rgb(1, 2, 2)" opacity="0.99287343"/>
  </g>
</svg>
