<?xml version="1.0" ?>
<svg xmlns="http://www.w3.org/2000/svg" version="1.1" width="224" height="224">
  <defs/>
  <g>
    <path d="M 73.6374282836914 76.98992919921875 C 106.49491119384766 76.98992919921875 139.35311889648438 76.98992919921875 172.21133422851562 76.98992919921875 C 173.56671142578125 77.26129150390625 173.76547241210938 77.46005249023438 174.03610229492188 78.81542205810547 C 174.03610229492188 103.15415954589844 174.03610229492188 127.49363708496094 174.03610229492188 151.83236694335938 C 173.76547241210938 153.187744140625 173.56671142578125 153.38650512695312 172.21133422851562 153.65786743164062 C 139.35311889648438 153.65786743164062 106.49491119384766 153.65786743164062 73.6374282836914 153.65786743164062 C 72.28205871582031 153.38650512695312 72.08329772949219 153.187744140625 71.81193542480469 151.83236694335938 C 71.81193542480469 127.49363708496094 71.81193542480469 103.15415954589844 71.81193542480469 78.81542205810547 C 72.08329772949219 77.46005249023438 72.28205871582031 77.26129150390625 73.6374282836914 76.98992919921875 C 73.6374282836914 76.98992919921875 73.6374282836914 76.98992919921875 73.6374282836914 76.98992919921875" stroke-width="0.0" fill="rgb(51, 51, 51)" opacity="1.0"/>
    <path d="M 73.6374282836914 78.81542205810547 C 106.49491119384766 78.81542205810547 139.35311889648438 78.81542205810547 172.21133422851562 78.81542205810547 C 172.21133422851562 103.15415954589844 172.21133422851562 127.49363708496094 172.21133422851562 151.83236694335938 C 139.35311889648438 151.83236694335938 106.49491119384766 151.83236694335938 73.6374282836914 151.83236694335938 C 73.6374282836914 127.49363708496094 73.6374282836914 103.15415954589844 73.6374282836914 78.81542205810547" stroke-width="0.0" fill="rgb(51, 51, 51)" opacity="1.0"/>
    <path d="M 75.46292114257812 80.64091491699219 C 75.46292114257812 103.76290130615234 75.46292114257812 126.8848876953125 75.46292114257812 150.00686645507812 C 107.10364532470703 150.00686645507812 138.744384765625 150.00686645507812 170.38583374023438 150.00686645507812 C 170.38583374023438 126.8848876953125 170.38583374023438 103.76290130615234 170.38583374023438 80.64091491699219 C 138.744384765625 80.64091491699219 107.10364532470703 80.64091491699219 75.46292114257812 80.64091491699219" stroke-width="0.0" fill="rgb(202, 254, 147)" opacity="1.0"/>
    <path d="M 73.6374282836914 100.8489990234375 C 73.6374282836914 100.8489990234375 73.6374282836914 100.8489990234375 73.6374282836914 100.8489990234375 C 74.9927978515625 101.120361328125 75.19155883789062 101.31912231445312 75.46292114257812 102.67449951171875 C 75.46292114257812 119.06069946289062 75.46292114257812 135.4461669921875 75.46292114257812 151.83236694335938 C 75.19155883789062 153.187744140625 74.9927978515625 153.38650512695312 73.6374282836914 153.65786743164062 C 59.033447265625 153.65786743164062 44.429473876953125 153.65786743164062 29.82549285888672 153.65786743164062 C 28.470123291015625 153.38650512695312 28.2713623046875 153.187744140625 28.0 151.83236694335938 C 28.0 143.92236328125 28.0 136.0123748779297 28.0 128.1016387939453 C 28.146682739257812 127.7063217163086 28.292640686035156 127.31100463867188 28.43932342529297 126.91496276855469 C 35.697303771972656 118.44022369384766 42.95528793334961 109.96475219726562 50.2132682800293 101.49002075195312 C 50.61592102050781 101.17903900146484 51.1014518737793 100.9553451538086 51.59944152832031 100.8519287109375 C 58.94544219970703 100.8511962890625 66.29143524169922 100.8497314453125 73.6374282836914 100.8489990234375" stroke-width="0.0" fill="rgb(51, 51, 51)" opacity="1.0"/>
    <path d="M 144.82669067382812 140.88084411621094 C 144.82669067382812 140.88084411621094 144.82669067382812 140.88084411621094 144.82669067382812 140.88084411621094 C 147.75010681152344 141.0121307373047 150.44839477539062 141.61720275878906 152.90463256835938 143.28648376464844 C 162.36068725585938 149.7127685546875 161.15786743164062 164.57418823242188 150.43373107910156 169.01654052734375 C 148.65882873535156 169.75143432617188 146.7438507080078 170.08587646484375 144.82669067382812 170.08587646484375 C 142.9102325439453 170.08587646484375 140.99600219726562 169.75143432617188 139.2218475341797 169.01654052734375 C 128.4984130859375 164.57418823242188 127.29632568359375 149.7127685546875 136.7509307861328 143.28648376464844 C 139.20716857910156 141.61720275878906 141.9047088623047 141.0121307373047 144.82669067382812 140.88084411621094 C 144.82669067382812 140.88084411621094 144.82669067382812 140.88084411621094 144.82669067382812 140.88084411621094" stroke-width="0.0" fill="rgb(51, 51, 51)" opacity="1.0"/>
    <path d="M 161.25762939453125 55.083953857421875 C 161.25762939453125 55.083953857421875 161.25762939453125 55.083953857421875 161.25762939453125 55.083953857421875 C 166.07476806640625 55.18517303466797 170.74227905273438 56.05134582519531 175.0768280029297 58.22962188720703 C 189.2466278076172 65.35045623779297 196.0 82.54782104492188 190.27561950683594 97.38209533691406 C 188.72149658203125 101.40933990478516 186.2454376220703 105.01486206054688 183.20025634765625 108.06077575683594 C 180.48658752441406 110.77518463134766 177.3277130126953 113.04513549804688 173.81240844726562 114.60293579101562 C 169.8651123046875 116.35215759277344 165.56503295898438 117.1508560180664 161.25762939453125 117.1508560180664 C 156.95021057128906 117.1508560180664 152.65013122558594 116.35215759277344 148.7028350830078 114.60293579101562 C 145.18753051757812 113.04513549804688 142.02865600585938 110.77518463134766 139.31423950195312 108.06077575683594 C 136.26832580566406 105.01486206054688 133.79229736328125 101.40933990478516 132.2374267578125 97.38209533691406 C 126.51156616210938 82.54708862304688 133.26788330078125 65.35045623779297 147.43841552734375 58.22962188720703 C 151.77294921875 56.05134582519531 156.4404754638672 55.18517303466797 161.25762939453125 55.083953857421875 C 161.25762939453125 55.083953857421875 161.25762939453125 55.083953857421875 161.25762939453125 55.083953857421875" stroke-width="0.0" fill="rgb(51, 51, 51)" opacity="1.0"/>
    <path d="M 73.6374282836914 102.67449951171875 C 73.6374282836914 119.06069946289062 73.6374282836914 135.4461669921875 73.6374282836914 151.83236694335938 C 59.033447265625 151.83236694335938 44.429473876953125 151.83236694335938 29.82549285888672 151.83236694335938 C 29.82549285888672 143.92236328125 29.82549285888672 136.0123748779297 29.82549285888672 128.1016387939453 C 37.08348083496094 119.62689971923828 44.341461181640625 111.15216827392578 51.59944152832031 102.67742919921875 C 58.94544219970703 102.67596435546875 66.29143524169922 102.67523193359375 73.6374282836914 102.67449951171875" stroke-width="0.0" fill="rgb(51, 51, 51)" opacity="1.0"/>
    <path d="M 157.60736083984375 155.48336791992188 C 157.60736083984375 155.48336791992188 157.60736083984375 155.48336791992188 157.60736083984375 155.48336791992188 C 157.43646240234375 158.43760681152344 156.68251037597656 161.1278076171875 154.7998046875 163.4740447998047 C 148.66543579101562 171.11854553222656 136.09817504882812 169.0326690673828 132.79556274414062 159.792236328125 C 132.30197143554688 158.41119384765625 132.05039978027344 156.94949340820312 132.05039978027344 155.48336791992188 C 132.05039978027344 154.01651000976562 132.30197143554688 152.55552673339844 132.79556274414062 151.1744842529297 C 136.09817504882812 141.93478393554688 148.66543579101562 139.8489227294922 154.7998046875 147.49267578125 C 156.68251037597656 149.8389129638672 157.43646240234375 152.5291290283203 157.60736083984375 155.48336791992188 C 157.60736083984375 155.48336791992188 157.60736083984375 155.48336791992188 157.60736083984375 155.48336791992188" stroke-width="0.0" fill="rgb(51, 51, 51)" opacity="1.0"/>
    <path d="M 190.462646484375 86.1174087524414 C 190.462646484375 86.1174087524414 190.462646484375 86.1174087524414 190.462646484375 86.1174087524414 C 190.35116577148438 90.52969360351562 189.50772094726562 94.7835693359375 187.58322143554688 98.7800064086914 C 180.68460083007812 113.10234832763672 162.93716430664062 119.35406494140625 148.59503173828125 112.44519805908203 C 145.63784790039062 111.02014923095703 142.92637634277344 109.09197235107422 140.60508728027344 106.76994323730469 C 137.9486083984375 104.11347961425781 135.8092041015625 100.94728088378906 134.3460235595703 97.48624420166016 C 132.82855224609375 93.8975830078125 132.05039978027344 90.01336669921875 132.05039978027344 86.1174087524414 C 132.05039978027344 82.22145080566406 132.82855224609375 78.33795928955078 134.3460235595703 74.74857330322266 C 135.8092041015625 71.28826904296875 137.9486083984375 68.121337890625 140.60508728027344 65.4648666381836 C 142.92637634277344 63.14283752441406 145.63784790039062 61.21466064453125 148.5957489013672 59.78961944580078 C 162.93716430664062 52.88074493408203 180.68460083007812 59.13246154785156 187.58322143554688 73.45480346679688 C 189.50772094726562 77.45124816894531 190.35116577148438 81.70511627197266 190.462646484375 86.1174087524414 C 190.462646484375 86.1174087524414 190.462646484375 86.1174087524414 190.462646484375 86.1174087524414" stroke-width="0.0" fill="rgb(51, 51, 51)" opacity="1.0"/>
    <path d="M 71.81193542480469 104.49999237060547 C 65.35484313964844 104.50072479248047 58.89703369140625 104.50145721435547 52.43921661376953 104.5029296875 C 45.50981140136719 112.59408569335938 38.580406188964844 120.68523406982422 31.65099334716797 128.77713012695312 C 31.65099334716797 135.85321044921875 31.65099334716797 142.9300537109375 31.65099334716797 150.00613403320312 C 45.0374870300293 150.00613403320312 58.42470169067383 150.00613403320312 71.81193542480469 150.00613403320312 C 71.81193542480469 134.83743286132812 71.81193542480469 119.66870880126953 71.81193542480469 104.49999237060547" stroke-width="0.0" fill="rgb(231, 246, 248)" opacity="1.0"/>
    <path d="M 144.82669067382812 144.5318603515625 C 144.82669067382812 144.5318603515625 144.82669067382812 144.5318603515625 144.82669067382812 144.5318603515625 C 142.36676025390625 144.68072509765625 140.173828125 145.21319580078125 138.18991088867188 146.75999450683594 C 131.6734161376953 151.83970642089844 132.865234375 162.41937255859375 140.6234130859375 165.63323974609375 C 141.95458984375 166.18478393554688 143.38916015625 166.43487548828125 144.82669067382812 166.43487548828125 C 146.26492309570312 166.43487548828125 147.7002410888672 166.18478393554688 149.03213500976562 165.63323974609375 C 156.7917938232422 162.42010498046875 157.98507690429688 151.83970642089844 151.4663848876953 146.75999450683594 C 149.4817352294922 145.21319580078125 147.28805541992188 144.68072509765625 144.82669067382812 144.5318603515625 C 144.82669067382812 144.5318603515625 144.82669067382812 144.5318603515625 144.82669067382812 144.5318603515625" stroke-width="0.0" fill="rgb(231, 246, 248)" opacity="1.0"/>
    <path d="M 161.25762939453125 58.735679626464844 C 161.25762939453125 58.735679626464844 161.25762939453125 58.735679626464844 161.25762939453125 58.735679626464844 C 156.91867065429688 58.83909606933594 152.73226928710938 59.62092590332031 148.84365844726562 61.62245178222656 C 136.08424377441406 68.19100952148438 130.26597595214844 84.09095764160156 136.1568603515625 97.27061462402344 C 137.5305633544922 100.34293365478516 139.5210723876953 103.10428619384766 141.89590454101562 105.47985076904297 C 144.271484375 107.85542297363281 147.03282165527344 109.84519958496094 150.10513305664062 111.21891021728516 C 153.6079864501953 112.78477478027344 157.42987060546875 113.49986267089844 161.25762939453125 113.49986267089844 C 165.0861053466797 113.49986267089844 168.90725708007812 112.78477478027344 172.41009521484375 111.21891021728516 C 175.482421875 109.84593200683594 178.2437744140625 107.85542297363281 180.61859130859375 105.47985076904297 C 182.99343872070312 103.10428619384766 184.98394775390625 100.34293365478516 186.35618591308594 97.27061462402344 C 192.246337890625 84.09095764160156 186.43099975585938 68.19100952148438 173.6715850830078 61.62318420410156 C 169.782958984375 59.62092590332031 165.59657287597656 58.83909606933594 161.25762939453125 58.735679626464844 C 161.25762939453125 58.735679626464844 161.25762939453125 58.735679626464844 161.25762939453125 58.735679626464844" stroke-width="0.0" fill="rgb(254, 240, 181)" opacity="1.0"/>
    <path d="M 29.82549285888672 126.2776107788086 C 44.428001403808594 126.2776107788086 59.03125 126.2776107788086 73.63449096679688 126.2776107788086 C 74.9898681640625 126.54824829101562 75.1886215209961 126.74700164794922 75.45999145507812 128.1023712158203 C 75.45999145507812 136.0123748779297 75.45999145507812 143.92236328125 75.45999145507812 151.83236694335938 C 75.1886215209961 153.187744140625 74.9898681640625 153.38650512695312 73.63449096679688 153.65786743164062 C 59.03125 153.65786743164062 44.428001403808594 153.65786743164062 29.82549285888672 153.65786743164062 C 28.470123291015625 153.38650512695312 28.2713623046875 153.187744140625 28.0 151.83236694335938 C 28.0 143.92236328125 28.0 136.0123748779297 28.0 128.1023712158203 C 28.2713623046875 126.74700164794922 28.470123291015625 126.54824829101562 29.82549285888672 126.2776107788086 C 29.82549285888672 126.2776107788086 29.82549285888672 126.2776107788086 29.82549285888672 126.2776107788086" stroke-width="0.0" fill="rgb(51, 50, 51)" opacity="1.0"/>
    <path d="M 144.82669067382812 150.00686645507812 C 144.82669067382812 150.00686645507812 144.82669067382812 150.00686645507812 144.82669067382812 150.00686645507812 C 146.51356506347656 150.13668823242188 148.1982421875 150.33030700683594 149.29763793945312 151.7949676513672 C 150.91851806640625 153.9563751220703 150.77769470214844 158.25717163085938 148.51507568359375 159.95359802246094 C 147.46627807617188 160.7405548095703 146.10357666015625 160.95985412597656 144.82669067382812 160.95985412597656 C 143.55052185058594 160.95985412597656 142.18780517578125 160.7405548095703 141.13900756835938 159.95359802246094 C 138.924072265625 158.29238891601562 138.7825164794922 154.3560791015625 140.33737182617188 152.22183227539062 C 141.46759033203125 150.67062377929688 143.01512145996094 150.20709228515625 144.82669067382812 150.00686645507812 C 144.82669067382812 150.00686645507812 144.82669067382812 150.00686645507812 144.82669067382812 150.00686645507812" stroke-width="0.0" fill="rgb(51, 51, 51)" opacity="1.0"/>
    <path d="M 159.43212890625 67.86243438720703 C 160.64959716796875 67.86243438720703 161.86636352539062 67.86243438720703 163.08311462402344 67.86243438720703 C 163.08311462402344 73.69610595703125 163.08311462402344 79.52904510498047 163.08311462402344 85.36197662353516 C 166.55589294433594 88.83474731445312 170.02865600585938 92.3067855834961 173.50143432617188 95.77955627441406 C 172.64111328125 96.64060974121094 171.78082275390625 97.50091552734375 170.92050170898438 98.36122131347656 C 167.09129333496094 94.5320053100586 163.26133728027344 90.70278930664062 159.43212890625 86.87356567382812 C 159.43212890625 80.53677368164062 159.43212890625 74.19996643066406 159.43212890625 67.86243438720703" stroke-width="0.0" fill="rgb(51, 51, 51)" opacity="1.0"/>
    <path d="M 29.82549285888672 128.1023712158203 C 44.428001403808594 128.1023712158203 59.03125 128.1023712158203 73.63449096679688 128.1023712158203 C 73.63449096679688 136.0123748779297 73.63449096679688 143.92236328125 73.63449096679688 151.83236694335938 C 59.03125 151.83236694335938 44.428001403808594 151.83236694335938 29.82549285888672 151.83236694335938 C 29.82549285888672 143.92236328125 29.82549285888672 136.0123748779297 29.82549285888672 128.1023712158203" stroke-width="0.0" fill="rgb(51, 51, 51)" opacity="1.0"/>
    <path d="M 148.47840881347656 155.48336791992188 C 148.47840881347656 155.48336791992188 148.47840881347656 155.48336791992188 148.47840881347656 155.48336791992188 C 148.22171020507812 156.7910614013672 148.35519409179688 157.29052734375 147.3372039794922 158.2212371826172 C 144.99610900878906 160.3628387451172 141.17642211914062 158.5952911376953 141.17642211914062 155.48336791992188 C 141.17642211914062 152.37069702148438 144.99610900878906 150.6046142578125 147.3372039794922 152.7454833984375 C 148.35519409179688 153.6761932373047 148.22171020507812 154.1749267578125 148.47840881347656 155.48336791992188 C 148.47840881347656 155.48336791992188 148.47840881347656 155.48336791992188 148.47840881347656 155.48336791992188" stroke-width="0.0" fill="rgb(51, 51, 51)" opacity="1.0"/>
    <path d="M 31.65099334716797 129.92787170410156 C 31.65099334716797 136.62110900878906 31.65099334716797 143.31436157226562 31.65099334716797 150.00686645507812 C 45.036746978759766 150.00686645507812 58.42323684692383 150.00686645507812 71.80899047851562 150.00686645507812 C 71.80899047851562 143.31436157226562 71.80899047851562 136.62110900878906 71.80899047851562 129.92787170410156 C 58.42323684692383 129.92787170410156 45.036746978759766 129.92787170410156 31.65099334716797 129.92787170410156" stroke-width="0.0" fill="rgb(202, 254, 147)" opacity="1.0"/>
    <path d="M 144.82669067382812 153.65786743164062 C 144.82669067382812 153.65786743164062 144.82669067382812 153.65786743164062 144.82669067382812 153.65786743164062 C 144.1005859375 153.80308532714844 143.58352661132812 153.71141052246094 143.204345703125 154.4690399169922 C 142.5295867919922 155.81854248046875 143.30628967285156 157.30960083007812 144.82669067382812 157.30960083007812 C 146.34780883789062 157.30960083007812 147.125244140625 155.81854248046875 146.4497528076172 154.4690399169922 C 146.07057189941406 153.71141052246094 145.55349731445312 153.80308532714844 144.82669067382812 153.65786743164062 C 144.82669067382812 153.65786743164062 144.82669067382812 153.65786743164062 144.82669067382812 153.65786743164062" stroke-width="0.0" fill="rgb(51, 51, 51)" opacity="1.0"/>
    <path d="M 53.55842590332031 140.88084411621094 C 53.55842590332031 140.88084411621094 53.55842590332031 140.88084411621094 53.55842590332031 140.88084411621094 C 56.48039627075195 141.0121307373047 59.17793655395508 141.61720275878906 61.634178161621094 143.28648376464844 C 71.08804321289062 149.7127685546875 69.88595581054688 164.57418823242188 59.163265228271484 169.01654052734375 C 57.38911056518555 169.75143432617188 55.4741325378418 170.08587646484375 53.55842590332031 170.08587646484375 C 51.64125061035156 170.08587646484375 49.72627639770508 169.75143432617188 47.95138168334961 169.01654052734375 C 37.22796630859375 164.5749053955078 36.0244140625 149.7120361328125 45.480472564697266 143.28648376464844 C 47.93745040893555 141.61720275878906 50.63499069213867 141.0121307373047 53.55842590332031 140.88084411621094 C 53.55842590332031 140.88084411621094 53.55842590332031 140.88084411621094 53.55842590332031 140.88084411621094" stroke-width="0.0" fill="rgb(51, 51, 51)" opacity="1.0"/>
    <path d="M 66.33543395996094 155.48336791992188 C 66.33543395996094 155.48336791992188 66.33543395996094 155.48336791992188 66.33543395996094 155.48336791992188 C 66.16455078125 158.43760681152344 65.41058349609375 161.1278076171875 63.52788162231445 163.4740447998047 C 57.39424133300781 171.1192626953125 44.82625961303711 169.03195190429688 41.523643493652344 159.792236328125 C 41.03004455566406 158.41119384765625 40.778480529785156 156.94949340820312 40.778480529785156 155.48336791992188 C 40.778480529785156 154.01651000976562 41.03004455566406 152.55552673339844 41.523643493652344 151.1744842529297 C 44.82625961303711 141.93478393554688 57.39497756958008 139.8481903076172 63.52788162231445 147.49267578125 C 65.41058349609375 149.8389129638672 66.16455078125 152.5291290283203 66.33543395996094 155.48336791992188 C 66.33543395996094 155.48336791992188 66.33543395996094 155.48336791992188 66.33543395996094 155.48336791992188" stroke-width="0.0" fill="rgb(51, 51, 51)" opacity="1.0"/>
    <path d="M 53.55842590332031 144.5318603515625 C 53.55842590332031 144.5318603515625 53.55842590332031 144.5318603515625 53.55842590332031 144.5318603515625 C 51.0970458984375 144.68072509765625 48.90263748168945 145.21319580078125 46.91798782348633 146.75999450683594 C 40.40076446533203 151.83897399902344 41.59404754638672 162.42010498046875 49.352962493896484 165.63323974609375 C 50.68413162231445 166.18478393554688 52.12017822265625 166.43487548828125 53.55842590332031 166.43487548828125 C 54.995941162109375 166.43487548828125 56.43125534057617 166.18478393554688 57.762420654296875 165.63323974609375 C 65.52059936523438 162.41937255859375 66.71241760253906 151.83970642089844 60.19593048095703 146.75999450683594 C 58.212013244628906 145.21319580078125 56.018341064453125 144.68072509765625 53.55842590332031 144.5318603515625 C 53.55842590332031 144.5318603515625 53.55842590332031 144.5318603515625 53.55842590332031 144.5318603515625" stroke-width="0.0" fill="rgb(231, 246, 248)" opacity="1.0"/>
    <path d="M 53.55842590332031 150.00686645507812 C 53.55842590332031 150.00686645507812 53.55842590332031 150.00686645507812 53.55842590332031 150.00686645507812 C 55.36998748779297 150.20709228515625 56.91824722290039 150.67062377929688 58.04845428466797 152.22183227539062 C 60.682926177978516 155.83761596679688 57.9538459777832 160.95985412597656 53.55842590332031 160.95985412597656 C 48.90703582763672 160.95985412597656 46.0188102722168 154.80787658691406 49.45050811767578 151.37619018554688 C 50.57265090942383 150.2540283203125 52.06370162963867 150.10662841796875 53.55842590332031 150.00686645507812 C 53.55842590332031 150.00686645507812 53.55842590332031 150.00686645507812 53.55842590332031 150.00686645507812" stroke-width="0.0" fill="rgb(52, 52, 52)" opacity="1.0"/>
    <path d="M 57.20941925048828 155.48336791992188 C 57.20941925048828 155.48336791992188 57.20941925048828 155.48336791992188 57.20941925048828 155.48336791992188 C 56.952720642089844 156.7910614013672 57.08694076538086 157.29052734375 56.068206787109375 158.2212371826172 C 53.72711181640625 160.3628387451172 49.907432556152344 158.5952911376953 49.907432556152344 155.48336791992188 C 49.907432556152344 152.37069702148438 53.72711181640625 150.6046142578125 56.068206787109375 152.7454833984375 C 57.08694076538086 153.6761932373047 56.952720642089844 154.1749267578125 57.20941925048828 155.48336791992188 C 57.20941925048828 155.48336791992188 57.20941925048828 155.48336791992188 57.20941925048828 155.48336791992188" stroke-width="0.0" fill="rgb(51, 51, 51)" opacity="1.0"/>
    <path d="M 53.55842590332031 153.65786743164062 C 53.55842590332031 153.65786743164062 53.55842590332031 153.65786743164062 53.55842590332031 153.65786743164062 C 51.28847122192383 153.98204040527344 50.988502502441406 157.03163146972656 53.55842590332031 157.30960083007812 C 55.129425048828125 157.47901916503906 55.79391098022461 155.693115234375 55.181495666503906 154.4690399169922 C 54.80231475830078 153.71141052246094 54.284515380859375 153.80308532714844 53.55842590332031 153.65786743164062 C 53.55842590332031 153.65786743164062 53.55842590332031 153.65786743164062 53.55842590332031 153.65786743164062" stroke-width="0.0" fill="rgb(51, 51, 51)" opacity="1.0"/>
  </g>
</svg>
