<?xml version="1.0" ?>
<svg xmlns="http://www.w3.org/2000/svg" version="1.1" width="224" height="224">
  <defs/>
  <g>
    <path d="M 29.422462463378906 161.74330139160156 C 28.0 158.33641052246094 38.57313537597656 159.20970153808594 112.07977294921875 159.0935516357422 C 185.5024871826172 159.21554565429688 196.0 158.13275146484375 194.89190673828125 161.55838012695312 C 195.520263671875 164.98953247070312 185.48370361328125 163.96310424804688 112.32809448242188 164.08258056640625 C 38.817840576171875 163.99969482421875 28.770416259765625 164.89569091796875 29.422462463378906 161.74330139160156" stroke-width="1.0" fill="rgb(66, 67, 69)" opacity="0.9831462"/>
    <path d="M 29.960433959960938 147.44618225097656 C 29.856544494628906 143.62648010253906 30.511611938476562 143.4646453857422 40.009437561035156 143.44754028320312 C 45.718021392822266 143.7760009765625 50.48854446411133 143.66403198242188 50.843360900878906 142.633544921875 C 50.85728454589844 142.6670379638672 46.308807373046875 136.95237731933594 40.861419677734375 130.3086700439453 C 31.574913024902344 119.06459045410156 31.415313720703125 118.1936264038086 31.540817260742188 112.8609390258789 L 31.485183715820312 107.56859588623047 L 52.9509162902832 107.53600311279297 L 73.437255859375 107.53070831298828 L 77.66157531738281 91.22576904296875 C 79.63014221191406 82.55986022949219 81.45700073242188 75.17832946777344 82.37338256835938 74.68741607666016 C 83.5074462890625 74.5916519165039 83.8583984375 70.62916564941406 83.49593353271484 66.03630065917969 L 84.2518310546875 59.02473449707031 L 119.37199401855469 59.010475158691406 L 120.0267105102539 66.43167114257812 C 119.4480972290039 72.64834594726562 119.975341796875 74.02265167236328 124.73649597167969 79.90304565429688 L 130.11050415039062 86.86699676513672 L 161.26345825195312 87.07635498046875 L 192.76165771484375 87.4193115234375 L 192.81430053710938 99.13457489013672 L 193.05523681640625 110.52975463867188 L 182.76290893554688 126.13558197021484 C 176.66990661621094 134.6265106201172 171.5623779296875 142.0313720703125 171.1978759765625 142.8938751220703 C 172.02224731445312 143.837890625 174.92982482910156 143.95973205566406 179.88113403320312 143.60218811035156 C 187.63555908203125 143.69882202148438 188.1722412109375 143.84246826171875 188.17245483398438 147.44338989257812 C 187.505615234375 149.46791076660156 187.41757202148438 148.77679443359375 109.15327453613281 148.7968292236328 C 31.210426330566406 148.6260986328125 30.712974548339844 149.4123992919922 29.960433959960938 147.44618225097656" stroke-width="1.0" fill="rgb(65, 67, 69)" opacity="0.99560434"/>
    <path d="M 88.63543701171875 69.42442321777344 L 88.74933624267578 64.25262451171875 L 114.43952178955078 64.29563903808594 L 114.46236419677734 74.40116882324219 L 88.87841033935547 74.349365234375 L 88.63543701171875 69.42442321777344" stroke-width="1.0" fill="rgb(192, 251, 223)" opacity="0.9888053"/>
    <path d="M 46.85835647583008 129.3385772705078 C 41.00774383544922 121.99149322509766 36.08638000488281 115.43537139892578 35.91156768798828 113.48792266845703 C 36.49760437011719 112.5263671875 43.84613037109375 113.10771179199219 110.27066802978516 113.26303100585938 C 178.16683959960938 113.0808334350586 183.90960693359375 112.40116119384766 184.22311401367188 113.6210708618164 C 183.4107666015625 115.88937377929688 178.63571166992188 122.4404525756836 173.67652893066406 129.48695373535156 L 164.75889587402344 143.3386993408203 L 57.38096237182617 143.31910705566406 L 46.85835647583008 129.3385772705078" stroke-width="1.0" fill="rgb(252, 249, 234)" opacity="0.9905376"/>
    <path d="M 79.5317611694336 105.10905456542969 C 80.1806869506836 103.63343811035156 80.97964477539062 99.91188049316406 81.63043975830078 96.53103637695312 L 83.12905883789062 90.52415466308594 L 98.71058654785156 90.45921325683594 L 98.3046646118164 107.68838500976562 L 88.81507873535156 107.6613998413086 C 78.60060119628906 107.62946319580078 78.58299255371094 107.80486297607422 79.5317611694336 105.10905456542969" stroke-width="1.0" fill="rgb(253, 238, 239)" opacity="0.9870955"/>
    <path d="M 103.40988159179688 99.12128448486328 L 103.53619384765625 90.40889739990234 L 124.9559326171875 90.54963684082031 L 124.96736907958984 107.65058135986328 L 103.3641586303711 107.68663024902344 L 103.40988159179688 99.12128448486328" stroke-width="1.0" fill="rgb(254, 239, 238)" opacity="0.9906116"/>
    <path d="M 129.7025909423828 100.2626953125 L 129.58834838867188 92.78372192382812 L 187.38436889648438 92.80386352539062 L 187.57525634765625 107.70948791503906 L 129.60191345214844 107.68090057373047 L 129.7025909423828 100.2626953125" stroke-width="1.0" fill="rgb(254, 252, 237)" opacity="0.9995062"/>
    <path d="M 84.89659881591797 83.19772338867188 C 85.49907684326172 81.3726806640625 85.61115264892578 80.80690002441406 85.38813781738281 80.4751968383789 C 85.53376770019531 79.85707092285156 93.0960693359375 79.8927993774414 102.2213363647461 79.70085144042969 C 117.7627182006836 79.63963317871094 119.16641998291016 80.14242553710938 121.37353515625 83.22637176513672 C 123.10539245605469 85.04849243164062 123.06350708007812 85.32144927978516 103.65824127197266 85.23202514648438 C 86.15365600585938 85.17870330810547 84.22137451171875 84.77473449707031 84.89659881591797 83.19772338867188" stroke-width="1.0" fill="rgb(251, 249, 239)" opacity="0.9939961"/>
    <path d="M 61.53987121582031 133.6916046142578 L 61.73112106323242 131.2131805419922 L 112.70952606201172 131.1345977783203 C 161.95449829101562 131.08245849609375 162.86428833007812 130.78424072265625 161.96255493164062 133.9107208251953 C 162.63856506347656 137.5071563720703 161.90023803710938 137.37078857421875 112.1305160522461 136.9334716796875 L 61.13774871826172 136.7088623046875 L 61.53987121582031 133.6916046142578" stroke-width="1.0" fill="rgb(70, 67, 66)" opacity="0.98188186"/>
  </g>
</svg>
