<?xml version="1.0" ?>
<svg xmlns="http://www.w3.org/2000/svg" version="1.1" width="224" height="224">
  <defs/>
  <g>
    <path d="M 101.39642333984375 192.93212890625 C 78.408203125 189.82147216796875 57.94581985473633 175.54681396484375 44.795013427734375 155.17669677734375 C 35.87046813964844 140.43809509277344 32.47550964355469 128.0210418701172 32.682273864746094 108.54064178466797 C 34.01934814453125 94.08404541015625 35.360595703125 88.55104064941406 41.08906555175781 75.65179443359375 C 51.038475036621094 54.88127136230469 70.05158996582031 38.590843200683594 92.62007141113281 32.751258850097656 C 99.44371795654297 31.186668395996094 102.4587173461914 30.35382843017578 115.52320098876953 29.75775146484375 C 129.9045867919922 30.739425659179688 130.339111328125 31.24346923828125 139.66748046875 33.58308410644531 C 173.55911254882812 45.263694763183594 196.0 76.69719696044922 195.84518432617188 112.97001647949219 C 195.7841796875 131.361328125 190.03778076171875 147.91786193847656 177.84310913085938 163.0631103515625 C 164.971435546875 178.76266479492188 148.95481872558594 189.2296142578125 130.39892578125 192.6739044189453 C 123.83768463134766 194.17640686035156 107.30905151367188 194.24224853515625 101.39642333984375 192.93212890625" stroke-width="1.0" fill="rgb(28, 27, 24)" opacity="0.9918979"/>
    <path d="M 100.33466339111328 187.8153076171875 C 96.11500549316406 187.28985595703125 89.72035217285156 185.57176208496094 86.01351928710938 184.0275115966797 C 66.3220443725586 176.48854064941406 47.93778991699219 156.86749267578125 41.48584747314453 136.565185546875 C 28.0 93.40794372558594 52.75659942626953 48.31636428833008 95.08521270751953 37.287078857421875 C 105.44133758544922 34.41032409667969 123.77161407470703 34.26392364501953 134.00611877441406 37.0919189453125 C 159.56539916992188 43.745208740234375 179.8494873046875 63.472984313964844 187.73667907714844 89.94874572753906 C 189.32662963867188 96.0813980102539 190.04653930664062 98.68668365478516 190.69839477539062 111.84146118164062 C 190.25592041015625 125.12752532958984 189.39999389648438 127.66358947753906 187.84060668945312 134.14495849609375 C 180.20376586914062 159.85809326171875 158.9519500732422 180.44796752929688 134.63099670410156 186.82603454589844 C 125.07134246826172 189.4087677001953 109.75373840332031 189.95172119140625 100.33466339111328 187.8153076171875" stroke-width="1.0" fill="rgb(254, 255, 253)" opacity="1.0"/>
    <path d="M 98.75601959228516 182.31866455078125 C 77.11021423339844 178.13507080078125 57.49676513671875 160.95870971679688 48.56642150878906 140.0715789794922 C 45.25321960449219 132.6739044189453 42.89227294921875 119.79805755615234 43.12528991699219 112.33783721923828 C 42.95524597167969 105.67023468017578 45.12400817871094 93.11317443847656 47.85032653808594 86.06407165527344 C 55.51353073120117 65.20919799804688 73.32916259765625 48.7303581237793 95.3777084350586 42.748817443847656 C 105.23737335205078 39.727821350097656 122.63809204101562 39.51319885253906 132.31622314453125 42.383750915527344 C 157.3214111328125 48.52164840698242 176.72799682617188 68.38705444335938 183.42483520507812 93.9168472290039 C 186.22093200683594 102.88174438476562 186.2464141845703 121.44261169433594 183.49766540527344 130.2035675048828 C 176.58216857910156 156.4783935546875 154.96580505371094 177.13099670410156 129.55548095703125 182.56422424316406 C 121.3249740600586 184.4626007080078 106.55938720703125 184.5323486328125 98.75601959228516 182.31866455078125" stroke-width="1.0" fill="rgb(24, 25, 24)" opacity="0.9966918"/>
    <path d="M 104.53844451904297 178.12759399414062 C 83.13522338867188 175.900634765625 62.872108459472656 159.8906707763672 53.89018249511719 140.02157592773438 C 48.29620361328125 127.71255493164062 46.68939971923828 110.92179107666016 50.01915740966797 97.06246185302734 C 51.32714080810547 88.8734359741211 57.90993881225586 75.02798461914062 63.543617248535156 68.68714904785156 C 72.30953979492188 57.88618850708008 86.27516174316406 49.358856201171875 99.52508544921875 46.861297607421875 C 109.45729064941406 44.36338806152344 125.96087646484375 45.093284606933594 135.58006286621094 48.336551666259766 C 157.3802032470703 55.670955657958984 173.05264282226562 72.6163558959961 178.9708251953125 95.83917236328125 C 181.19229125976562 104.32183074951172 181.39122009277344 119.8172836303711 178.65054321289062 128.67153930664062 C 175.46038818359375 140.7494354248047 170.3580322265625 150.1020965576172 160.9409637451172 159.9030303955078 C 148.25433349609375 172.03680419921875 135.8888397216797 177.67205810546875 118.6054458618164 178.64419555664062 C 114.60438537597656 179.03346252441406 108.96045684814453 178.84219360351562 104.53844451904297 178.12759399414062" stroke-width="1.0" fill="rgb(254, 255, 253)" opacity="0.9995735"/>
    <path d="M 110.23638916015625 170.5890350341797 C 110.04118347167969 164.6666259765625 110.3135986328125 164.8306121826172 113.2787857055664 165.02825927734375 C 116.89981079101562 164.75157165527344 116.93962097167969 164.60894775390625 116.80926513671875 170.80905151367188 C 116.85969543457031 176.46078491210938 116.97689056396484 176.60308837890625 113.13618469238281 176.16259765625 C 110.2110824584961 176.58702087402344 109.98694610595703 176.173095703125 110.23638916015625 170.5890350341797" stroke-width="1.0" fill="rgb(25, 27, 25)" opacity="0.98401195"/>
    <path d="M 82.28257751464844 167.6996612548828 L 79.82207489013672 166.0343780517578 L 82.10248565673828 161.82760620117188 C 84.27842712402344 156.77154541015625 85.87232971191406 156.28387451171875 88.6800765991211 159.22109985351562 L 91.35137939453125 161.0958709716797 L 89.22252655029297 165.02044677734375 C 87.1474380493164 169.7752685546875 85.5649185180664 170.49549865722656 82.28257751464844 167.6996612548828" stroke-width="1.0" fill="rgb(27, 30, 28)" opacity="0.9734067"/>
    <path d="M 139.4219970703125 165.80076599121094 C 138.37953186035156 163.55699157714844 137.2740478515625 161.7117462158203 137.33926391601562 160.9001922607422 C 137.37820434570312 160.18734741210938 142.71578979492188 157.23724365234375 143.40016174316406 157.70664978027344 C 143.67909240722656 157.81056213378906 144.67953491210938 159.85302734375 145.91796875 162.12481689453125 L 148.208740234375 166.3011474609375 L 145.96165466308594 167.72747802734375 C 142.0516357421875 170.4306640625 141.39657592773438 170.08445739746094 139.4219970703125 165.80076599121094" stroke-width="1.0" fill="rgb(28, 29, 28)" opacity="0.9752261"/>
    <path d="M 59.93107223510742 144.1044158935547 C 57.98369216918945 141.64630126953125 58.082244873046875 140.79071044921875 61.33207702636719 138.74403381347656 C 65.44538879394531 135.70521545410156 66.53782653808594 135.59695434570312 67.75634765625 138.97744750976562 C 69.81460571289062 142.7328338623047 69.85069274902344 142.18878173828125 65.60336303710938 144.99887084960938 C 60.94789123535156 147.95001220703125 61.15297317504883 148.05812072753906 59.93107223510742 144.1044158935547" stroke-width="1.0" fill="rgb(29, 31, 28)" opacity="0.9695955"/>
    <path d="M 163.5631103515625 144.78005981445312 C 159.48973083496094 142.33966064453125 159.3977508544922 142.12184143066406 161.10089111328125 139.10214233398438 C 162.29486083984375 135.4825897216797 163.2801513671875 135.6649169921875 167.35537719726562 138.37811279296875 C 171.00091552734375 140.45309448242188 171.195068359375 140.81007385253906 168.76390075683594 144.60983276367188 C 167.59298706054688 147.7352294921875 167.33740234375 147.585205078125 163.5631103515625 144.78005981445312" stroke-width="1.0" fill="rgb(29, 30, 28)" opacity="0.971883"/>
    <path d="M 108.28522491455078 121.05203247070312 C 106.64473724365234 120.58546447753906 105.25535583496094 118.87425994873047 104.19700622558594 117.64014434814453 C 101.73942565917969 114.67476654052734 102.02896118164062 107.64706420898438 104.48433685302734 105.10106658935547 C 106.57597351074219 104.2529525756836 106.09305572509766 101.94747924804688 106.0591049194336 88.05818939208984 L 106.36369323730469 69.5763931274414 L 121.42424011230469 69.45561218261719 L 121.84403228759766 82.7899169921875 C 122.20951080322266 88.71709442138672 121.82823181152344 93.53778839111328 122.42346954345703 93.1817626953125 C 122.67947387695312 92.0696792602539 126.99757385253906 85.66875457763672 132.05233764648438 78.50171661376953 C 140.80899047851562 65.6806869506836 142.2071990966797 65.24591064453125 139.2867431640625 64.87190246582031 C 136.8115234375 62.82080078125 137.27967834472656 62.94207000732422 139.21388244628906 58.41477584838867 C 141.59634399414062 54.069705963134766 141.77633666992188 54.074092864990234 146.01327514648438 56.41399383544922 C 148.10450744628906 57.87250900268555 148.19964599609375 58.41606140136719 147.041748046875 60.985965728759766 C 145.97206115722656 63.388221740722656 144.78347778320312 63.436241149902344 146.4132843017578 64.9076156616211 C 148.03945922851562 66.54532623291016 147.3046417236328 67.11070251464844 133.88345336914062 87.34273529052734 C 123.6046371459961 102.50072479248047 122.30133819580078 103.13676452636719 124.259521484375 105.85697174072266 L 125.56916809082031 107.29965209960938 L 140.15054321289062 106.72660827636719 C 164.90907287597656 105.54073333740234 164.91357421875 104.088134765625 164.30215454101562 107.82025146484375 C 164.63772583007812 110.70243835449219 164.2279052734375 112.89885711669922 163.41432189941406 111.87664031982422 C 163.3211669921875 112.11669158935547 154.38011169433594 112.8773422241211 143.6218719482422 113.24406433105469 C 124.64464569091797 114.31732940673828 123.92457580566406 113.74441528320312 123.84969329833984 115.25453186035156 L 123.52069091796875 117.40226745605469 L 140.53688049316406 117.43630981445312 C 156.8648223876953 117.56399536132812 157.34893798828125 116.40301513671875 157.20860290527344 119.55970001220703 C 157.72607421875 123.10005950927734 156.616455078125 122.34456634521484 134.33016967773438 122.61064147949219 C 115.70674133300781 122.29634094238281 109.959716796875 122.77423095703125 108.28522491455078 121.05203247070312" stroke-width="1.0" fill="rgb(21, 24, 23)" opacity="0.99589807"/>
    <path d="M 51.54747772216797 110.7752914428711 L 51.34265899658203 107.09769439697266 L 55.82049560546875 107.435791015625 C 60.540611267089844 107.50125122070312 61.124393463134766 107.8811264038086 60.54463577270508 110.96659851074219 C 60.98460388183594 114.03264617919922 60.3316650390625 114.57748413085938 56.15957260131836 114.49420166015625 L 51.69758605957031 114.67671966552734 L 51.54747772216797 110.7752914428711" stroke-width="1.0" fill="rgb(24, 27, 26)" opacity="0.98403025"/>
    <path d="M 168.02130126953125 111.18790435791016 C 167.77223205566406 107.27397155761719 167.73435974121094 107.36309814453125 172.86985778808594 107.38949584960938 C 177.5335693359375 107.24986267089844 177.43589782714844 107.56908416748047 177.27403259277344 110.64796447753906 C 177.65196228027344 114.51993560791016 177.71798706054688 114.6225357055664 172.82156372070312 114.69707489013672 C 167.88949584960938 114.86135864257812 167.9512939453125 114.9988021850586 168.02130126953125 111.18790435791016" stroke-width="1.0" fill="rgb(26, 28, 27)" opacity="0.97970283"/>
    <path d="M 61.73860168457031 84.24435424804688 C 58.56178283691406 81.93580627441406 58.46851348876953 81.99989318847656 60.150875091552734 78.98689270019531 L 62.08189010620117 75.74297332763672 L 65.17231750488281 77.52851867675781 C 69.97470092773438 80.41230773925781 70.43922424316406 81.48724365234375 68.11223602294922 84.00495147705078 C 66.1718521118164 87.45689392089844 65.47119140625 87.34312438964844 61.73860168457031 84.24435424804688" stroke-width="1.0" fill="rgb(29, 30, 29)" opacity="0.96991473"/>
    <path d="M 160.2316436767578 83.76310729980469 C 159.1376495361328 82.32061767578125 158.5279083251953 80.9279556274414 158.88291931152344 80.4483871459961 C 159.03439331054688 80.26506042480469 160.94053649902344 79.14030456542969 162.87628173828125 77.91752624511719 L 166.43667602539062 75.91094970703125 L 168.21609497070312 78.550048828125 C 170.86380004882812 81.62401580810547 170.7646026611328 81.9325180053711 166.8710174560547 84.22303009033203 C 163.14959716796875 87.14131164550781 162.26950073242188 87.10708618164062 160.2316436767578 83.76310729980469" stroke-width="1.0" fill="rgb(28, 30, 28)" opacity="0.97175926"/>
    <path d="M 82.65357208251953 62.84564208984375 C 79.71319580078125 58.4482536315918 79.49642944335938 57.43653106689453 83.44436645507812 56.242679595947266 C 84.78507995605469 54.96795654296875 86.35922241210938 54.73271560668945 86.04352569580078 54.97591781616211 C 86.8073959350586 54.884246826171875 87.76821899414062 56.6481819152832 88.95387268066406 58.7615852355957 L 91.24478149414062 63.290924072265625 L 88.50379943847656 64.50845336914062 C 85.37110137939453 66.9357681274414 84.25776672363281 67.0848388671875 82.65357208251953 62.84564208984375" stroke-width="1.0" fill="rgb(26, 29, 28)" opacity="0.9771433"/>
    <path d="M 110.32669067382812 53.44456481933594 C 110.16610717773438 47.95292663574219 110.51950073242188 47.78845977783203 113.35331726074219 48.18178176879883 C 117.02169036865234 47.68815612792969 117.02163696289062 47.53651428222656 116.88021850585938 53.528743743896484 C 117.0104751586914 58.70708465576172 116.96498107910156 59.13051223754883 113.33306884765625 58.76881790161133 C 110.32327270507812 59.118011474609375 110.11672973632812 58.69326400756836 110.32669067382812 53.44456481933594" stroke-width="1.0" fill="rgb(24, 28, 27)" opacity="0.98164076"/>
    <path d="M 110.60376739501953 99.98631286621094 C 110.55371856689453 99.34182739257812 110.49534606933594 93.36212158203125 110.49016571044922 87.03489685058594 L 110.4759292602539 74.88427734375 L 117.23824310302734 74.87442779541016 L 117.58396911621094 100.10802459716797 L 114.75013732910156 100.81959533691406 C 112.59113311767578 100.96355438232422 111.2105712890625 100.72747802734375 110.60376739501953 99.98631286621094" stroke-width="1.0" fill="rgb(252, 250, 40)" opacity="1.0"/>
  </g>
</svg>
