<?xml version="1.0" encoding="UTF-8"?>
<svg xmlns="http://www.w3.org/2000/svg" version="1.1" viewBox="0 0 224 224">
  <defs>
    <style>
      .cls-1 {
        fill: #ddd8a5;
        opacity: 1;
      }

      .cls-1, .cls-2, .cls-3, .cls-4, .cls-5, .cls-6, .cls-7, .cls-8 {
        isolation: isolate;
      }

      .cls-2 {
        fill: #e0d79e;
        opacity: 1;
      }

      .cls-9 {
        fill: #e7f6f8;
      }

      .cls-3 {
        fill: #dcd79f;
        opacity: 1;
      }

      .cls-4 {
        fill: #010101;
        opacity: 1;
      }

      .cls-5 {
        fill: #dcd7a1;
        opacity: 1;
      }

      .cls-6 {
        opacity: 1;
      }

      .cls-6, .cls-7, .cls-8 {
        fill: #010102;
      }

      .cls-7 {
        opacity: 1;
      }

      .cls-8 {
        opacity: 1;
      }
    </style>
  </defs>
  <!-- Generator: Adobe Illustrator 28.6.0, SVG Export Plug-In . SVG Version: 1.2.0 Build 709)  -->
  <g>
    <g id="_图层_1" data-name="图层_1">
      <g>
        <path class="cls-4" d="M61.8,187.9l.3-7.1,16.5.2v-30.2c.1,0-5.3-.5-5.3-.5l-.2-6v-8.8c0,0,6,.6,6,.6h5.9c0,0-.2-3.6-.2-3.6-.5-5.6-.3-6.2,3.8-5.8,1.5,0,2.9-.6,3-.6,0,.3.7-7.7,1-17.3.8-9.4,1.5-19.6,1.7-22.6v-5.4c.1,0-1.9.3-1.9.3-2.6.3-2.9-1-4.3-4.2-2.3-4.6-2-4.5.4-9.1,2.4-4.1,2.8-3.5.7-6.3-1.3-2.2-1.4-6.1-1.3-8.5,0-4.3.2-5.4-1.1-4.5-2.9-.4-3.5-1.4-2.6-4.7-.2-2-.5-3.8-1.4-3.5-.5-.7-1.2-2.8-1.8-3.6,0-2.8,1.4-2.1,5.5-1.8.1-.7.3-1.5.3-3.1,1.5-3.8,4.4-3.3,5.8.6-.2,1.6-.9,2.2,1,2.3,3.8-.6,4.5,0,3.6,2-.2.8-.6,2.7-1.8,3.4-.4-.1-1,1.8-.2,3.4.5,2.8,0,5.1-1.4,5-.9-1.6-.3,2.6-.1,7.7-.3,2.5.4,3.2,1.6.9,1.6-.4,3.1.8,4,2,3.9,3.7,3.9,3,3.8-4.3-1.5-3.9-.8-7.5,0-7.9,1.3-1,.7-2-.5-2.8-2.5-4.1-1.6-5.1,2.5-2.6,2.7,1.9,3.5,1.9,4.4-2,2.4-4,2.1-3.3,3.9,2.4-.7,1.7.4,1.4,4.4-1,2.9-1.1,2.9-.5,1,2.8-1.1,2-1.2,2-.3,2.9,1.1,1.3,1.6,4.9,0,7.4.4,5.9-.1,6.8,1.6,7,1.9,0,2.8,1.6,3,3.2-.5-.8-.4-.3,1,1.4-.5.3.3-.2,1.2-2.4,2-1.6,3.3-2,6.3-.5,1.6.9,4.3,1.7,5.9,2.2,3.1,2.8,2.3,1.6-5.7,21.4-.4,1.6-1.6,3.7-3.2,3.7-1.2-.4-1.4.7-.9,1.4,0,1.3.4,9.4,1.1,17.8.5,8.4,1.3,16.4,1.4,17.5.3.4,1.5.4,4.1.1l3.9.5.3,8.8h11.9c0,0,0,14.4,0,14.4l-5.4.3.2,30.3h16.8c0,0,.1,15.1.1,15.1H61.9s0-8.1,0-8.1"/>
        <path class="cls-9" d="M97.6,123.5c-.4-3.7-.6-4,7.9-6.8l6.2-2.3,6.6,2.6c6.6,2.4,6.5,2.4,6.4,6.5.3,3.4.4,3.8-1.5,3.3-1.5.3-2.3,0-3.1-1,.9-5.8.7-5.4-7.9-5-10-.3-10.3-.5-9.7,4.2-.5,1.6-1.5,2-2.8,1.6-2.7.3-2.8,0-2.1-3.2"/>
        <path class="cls-9" d="M120.3,112.9c-4.9-1.6-5.2-4.7-.6-6.2,1.9-.8,3.5-1.3,3.6-1.2.3.2.6,2.3.6,5v4.1c0,0-3.6-1.6-3.6-1.6"/>
        <path class="cls-9" d="M103.6,110.7c1.1-4.5,4.9-20.7,7.1-30.3,2.5-11.1,2.7-12.3,0-12-1.9-.9-2.6,1.2-4.4,8.3-4.3,19.3-6.5,30-7.3,30.4-1-.6-.5-7.9.2-16.8.5-15.2.1-15.1,3.8-20.4,2.9-5,3.3-5.8,5.1-5,2.4.6,4,.4,4.2.1,2.5-1,6.9.5,7.7,1.9.8,3.1,2.4,14.3,2.9,23.8l.6,9.9-5.7.3.9-16.1c.7-14.4.7-15.6-1-15.5-3-1.4-3.1.6-4,17.2-2,23.4-1.2,22.4-5.8,23.8-3.9,1.9-4.2,1.8-4.3.4"/>
        <path class="cls-9" d="M92,74.1c-.3-3.1,4.4-11,5.9-10.3,1.3.5,1.8,1.2.8,3.7-1.2,1.7-2.9,4.3-4,6-2.1,2.2-2.5,2.2-2.8.6"/>
        <path class="cls-9" d="M129.6,72.3c-2.7-.7-3-2.2-1.3-4.7,0-1.3.9-1.6,3.2-.3,2.8.9,3.5,1.5,2.1,3.9-.6,2.2-.9,2.3-4,1.1"/>
        <path class="cls-9" d="M107.7,56.3c-.5-1.1-1-3.1-1-4.8-.5-2.6,0-3.2,2.1-3.7,5.5-1.6,7.9,1.4,5.6,7.7-1.1,2.7-5.3,3.2-6.7.9"/>
        <path class="cls-2" d="M66.7,188.2c-.7-2.7.1-1.8,44.9-2,45.7,0,46.4-.8,45.1,1.9.3,3.2.4,2.3-45.3,2.5-45-.2-45,.7-44.8-2.5"/>
        <path class="cls-5" d="M83.7,166l.2-15.5h56s0,15.4,0,15.4l.2,14.7h-56.5s0-14.6,0-14.6"/>
        <path class="cls-1" d="M77.9,143.8c-.6-2.9,2.8-2.2,33.8-2.4,30.9.1,35-.7,34,1.9.5,2.3-4.2,1.5-34,1.6-30.3,0-34.4.6-33.8-1.2"/>
        <path class="cls-3" d="M90.2,134.1c-1-2.3,2.5-1.9,21.5-1.8,19.5-.2,22.1-.4,21.5,1.8,1.1,2.1-2.2,1.7-21.4,1.6-19.8,0-23.1.5-21.6-1.6"/>
        <path class="cls-8" d="M94.4,167.2v-5.9c0,0,8.2.2,8.2.2v10.8s-8,.3-8,.3l-.2-5.4"/>
        <path class="cls-6" d="M107.9,171.4c0-1-.1-3.3,0-5.9l.2-3.9h8c0,0,0,5.6,0,5.6l.2,5-4.1.4c-2.5.1-3.9-.3-4.2-1.2"/>
        <path class="cls-7" d="M120.4,167.8v-6c0,0,4.8-.2,4.8-.2h3.7c0,0,0,11,0,11h-8.5s-.1-4.8-.1-4.8"/>
      </g>
    </g>
  </g>
</svg>