<?xml version="1.0" encoding="UTF-8"?>
<svg xmlns="http://www.w3.org/2000/svg" version="1.1" viewBox="0 0 224 224">
  <defs>
    <style>
      .cls-1 {
        fill: #f7f5ea;
        opacity: 1;
      }

      .cls-1, .cls-2, .cls-3, .cls-4, .cls-5, .cls-6, .cls-7, .cls-8, .cls-9, .cls-10, .cls-11, .cls-12, .cls-13, .cls-14, .cls-15 {
        isolation: isolate;
      }

      .cls-2 {
        fill: #f6f6e7;
        opacity: 1;
      }

      .cls-3 {
        fill: #fde086;
        opacity: 1;
      }

      .cls-4 {
        fill: #f5f6e9;
        opacity: 1;
      }

      .cls-5 {
        fill: #3b3b39;
        opacity: .9;
      }

      .cls-6 {
        fill: #343333;
        opacity: 1;
      }

      .cls-7 {
        fill: #fde285;
        opacity: 1;
      }

      .cls-8 {
        fill: #f5f6ea;
        opacity: 1;
      }

      .cls-9 {
        fill: #fbfbea;
        opacity: 1;
      }

      .cls-10 {
        fill: #3b3935;
        opacity: 1;
      }

      .cls-11 {
        fill: #2e3134;
        opacity: 1;
      }

      .cls-12 {
        fill: #2f3130;
        opacity: 1;
      }

      .cls-13 {
        fill: #fbdc89;
        opacity: 1;
      }

      .cls-14 {
        fill: #e4c569;
        opacity: .9;
      }

      .cls-15 {
        fill: #fcfcea;
        opacity: 1;
      }
    </style>
  </defs>
  <!-- Generator: Adobe Illustrator 28.6.0, SVG Export Plug-In . SVG Version: 1.2.0 Build 709)  -->
  <g>
    <g id="_图层_1" data-name="图层_1">
      <g>
        <path class="cls-14" d="M88.1,35.6c0-1.4,1.1-3,2.2-2.9,1.3,0,2.3,1.5,2.2,2.9,0,1.8-1.2,3.1-2.5,3-1.1,0-2-1.4-1.9-3"/>
        <path class="cls-6" d="M60.4,195.5c-.7-.2-.6-20-1.4-22.8,1.7,0,5.3.4,9.9.2,3.4,0,8.2-.1,9.6.4,1.8.4,1.4-1.9,1.2-5.9.1-6.5.5-9.2,4.6-9.2,2.9,1.4,2.6-1.7,2.8-6.6-.2-1.5-.7-3.7,1.2-5.2l4.7-.4.7-19.9c.6-27.7,2-41.5.3-41.9-3.1-.2-2-2.4-1.2-8.7.2-1.9.9-3.5.7-5.5s-1.1-3.3-1.7-4.9c-2.6-6.3-3.4-12-3.2-18.7s0-4.8-2.7-4.2c-1.7-4.1-.4-5.8,4.3-4.2,5-2.5,7.1.9,4.6,4.7-1.8-1.1-1.5,3.2-1.5,3.9,0,2.7,0,5.5.2,8.1.9-1.5,1.6-4.5,3.9-4.5,1.8,0,3.1,2.2,4.7,2.8,1.2.5,3,1.2,4.3,1s2.6-1.3,4-1.6c2.6-.7,4.8,0,7,1.6,2.4-.1,5.3-2.7,7.7-3.4,0,4.2-2.1,4.7-6.1,5.8-.3,1.5,1.9,1.3.2,9,2,5.8,3.5,9.5,4.2,5.1,2.5-5.4,3.3-3.3,9.2-.4,2.9,1.4,5.9,2.5,6.1,4,.3,1-4.4,10.8-8,20.5-3.1,4.9-2.3,5.2-1.5,26.9l.9,24.7,3,.7c4.8-.3,4.1,2.5,4.3,6.3-.5,4.4-.3,5.8,4.3,5.1,3.7,3.2,2.7,5,2.7,8.8l-.2,6.3h10.6c5-.2,10.6.3,10,1.2.4.6.2,19.1.2,21.2-2.9.5-15.1.4-51.8.6-28.8,0-52-.4-52.5-.5"/>
        <path class="cls-6" d="M103,48.6c-.7-.8-2.2-1.9-2.4-2.9,1.9-.2,6.9,3.3,7,5.4.4,1.7-1.7.8-4.6-2.5"/>
        <path class="cls-11" d="M107.5,45.7c-.4-5.6.7-4.9,2.9,1.7.8,2.3.7,3.2-.9,3.4-1.2,0-1.7-1.2-2-5.1"/>
        <path class="cls-12" d="M112.2,49.8c.3-1,1.1-3.7,2-5.7.5-.9.5-1.4,1.6-1.6,0,0-.2,7.6-2,8.5-.8.1-1.6-.5-1.6-1.3"/>
        <path class="cls-5" d="M85.3,34.9c-1.6-2.8-1.6-5.2.9-5.8,2.8-1,4.3,1.6,2.5,4.9-1,2.9-1.5,3-3.4.8"/>
        <path class="cls-10" d="M92,34.5c-1.7-3.8-.4-6.5,2.7-5.6,2.5.5,3.1,3.3.5,6.4-2,2.3-2.2,2.3-3.2-.7"/>
        <path class="cls-9" d="M97.8,141.5v-4.6s8.1-3.8,8.1-3.8c4.2-2.1,8.2-3.9,9.7-4.4.1.4.5,3.7.5,8.8l.3,8.4h-18.6s0-4.4,0-4.4"/>
        <path class="cls-8" d="M120.5,136.5c-.4-6-.6-10.9.4-11.1,3-2.4,3.9.7,3.8,11.4.6,9,.6,10.1-1.6,9.4-2,.7-2.4-.5-2.6-9.7"/>
        <path class="cls-15" d="M98.2,128.4c-.3-4.6-.2-7.3,3.3-8.7,5.2-.9,4.7-4.4,0-4l-2.8,1.1.5-16.9,3.7-2.3c5.3-2.7,8.4-9.1,8.6-13.1-.4-3.1-2.4-3.1-3.9,1.4-2.1,4.6-4.6,7.6-7.5,8.2-.6-1.1-.7-3.4-.1-5.3-.5-3.5,0-5.3,2.3-6.5,1.4-1.3,2.7-4.3,3.6-7,1.2-6,.5-5.4,6.4-4.2,4.5-1.1,4.6-1.2,5.5,3.7,1.3,2.9,2.5,5.9,1.8,7-.9,2.3-1,3.8,1.1,5.7,3.3,1.4,2.4,2.2,3.2,23.4l.3,9.5h-3.8c-3.2,0-5.3,1.1-5,2.9-.5.8-14.9,7.2-16.8,8.2-.1-.6-.7-1.8-.5-3.1"/>
        <path class="cls-4" d="M125.1,84.3c-1.5-.3-1.3-1.5,0-5.3,1.9-6.7,2.3-7,5.5-5.6,3.4,1.3,3,2.7-.2,8.7-1.4,3.4-2.6,3.8-5.3,2.2"/>
        <path class="cls-1" d="M97.2,73.9c1.6-5.1,1.5-5.6-1.7-12.3-1.5-4.3-2.4-9.2-2-10.4.6-1.9,1.9,0,5.6,7l4.6,9.1-1.8,5.7c-3.3,8.7-6.5,9.8-4.7.9"/>
        <path class="cls-2" d="M107.6,63.8c-.8-3,2.5-6.2,5-5.5,2.2,1.1,3.7,4.3,2.3,6.3-1.2,2.9-6.2,2.4-7.3-.9"/>
        <path class="cls-7" d="M64.7,184.3v-6c0,0,94.8,0,94.8,0v12.4c.1,0-95,0-95,0l.2-6.4"/>
        <path class="cls-3" d="M84.5,167.5v-4.4c0,0,55-.2,55-.2l-.3,5.3v5s-27.5-.3-27.5-.3h-27.2s0-5.5,0-5.5"/>
        <path class="cls-13" d="M91.7,154.3l.3-3.5h40.1s0,7.3,0,7.3h-40.2c0,0-.2-3.7-.2-3.7"/>
      </g>
    </g>
  </g>
</svg>