<?xml version="1.0" ?>
<svg xmlns="http://www.w3.org/2000/svg" version="1.1" width="224" height="224">
  <defs/>
  <g>
    <path d="M 56.250431060791016 29.15045166015625 C 47.20878982543945 38.19209289550781 38.16714859008789 47.23455047607422 29.125503540039062 56.27619171142578 C 28.0 57.99798583984375 28.03436279296875 59.12348937988281 29.125503540039062 60.85590744018555 C 31.2489013671875 62.98012924194336 33.372314453125 65.10353088378906 35.49653244018555 67.22775268554688 C 37.094810485839844 65.628662109375 38.69390869140625 64.0295639038086 40.293006896972656 62.429649353027344 C 40.961273193359375 63.09873580932617 41.62953567504883 63.76781463623047 42.29780578613281 64.43608093261719 C 40.69952392578125 66.0351791381836 39.100425720214844 67.63427734375 37.50133514404297 69.23255157470703 C 39.648460388183594 71.37967681884766 41.79558181762695 73.52680206298828 43.94270706176758 75.67393493652344 C 47.28322219848633 72.33341217041016 50.623741149902344 68.99288940429688 53.96343994140625 65.6531982421875 C 54.63252258300781 66.32147216796875 55.301605224609375 66.98973083496094 55.96987533569336 67.65799713134766 C 52.629356384277344 70.99851989746094 49.288841247558594 74.33903503417969 45.948326110839844 77.67955017089844 C 48.09545135498047 79.82667541503906 50.24257278442383 81.97379302978516 52.38969802856445 84.12091827392578 C 53.988792419433594 82.52264404296875 55.587890625 80.92354583740234 57.1861686706543 79.32444763183594 C 57.855255126953125 79.99272155761719 58.523521423339844 80.66180419921875 59.19178771972656 81.33007049560547 C 57.59269332885742 82.92916107177734 55.99441146850586 84.5274429321289 54.39531707763672 86.12654113769531 C 56.542442321777344 88.27366638183594 58.6895637512207 90.42079162597656 60.83668899536133 92.56791687011719 C 64.15266418457031 89.22740173339844 67.46864318847656 85.88688659667969 70.78462219238281 82.5463638305664 C 71.45288848876953 83.21463012695312 72.1219711303711 83.88371276855469 72.79023742675781 84.5519790649414 C 69.44972229003906 87.86795806884766 66.10920715332031 91.1839370727539 62.76869201660156 94.49991607666016 C 64.91581726074219 96.64704132080078 67.06294250488281 98.7941665649414 69.21006774902344 100.9412841796875 C 70.80915832519531 99.34219360351562 72.40744018554688 97.74391174316406 74.00653076171875 96.14482116699219 C 74.6748046875 96.81307983398438 75.34388732910156 97.4813461303711 76.01215362548828 98.15043640136719 C 74.41305541992188 99.74871826171875 72.81396484375 101.34780883789062 71.21568298339844 102.9468994140625 C 73.36280822753906 105.09402465820312 75.50993347167969 107.24114990234375 77.65705871582031 109.38827514648438 C 80.99757385253906 106.07229614257812 84.33808898925781 102.7563247680664 87.67860412597656 99.44034576416016 C 88.75257873535156 100.51431274414062 89.82654571533203 101.58828735351562 90.9005126953125 102.6622543334961 C 71.50523376464844 122.05754089355469 52.10913848876953 141.45281982421875 32.7138557434082 160.8480987548828 C 31.325790405273438 162.54208374023438 30.71478271484375 163.96368408203125 30.49475860595703 166.14352416992188 C 30.49475860595703 166.14352416992188 30.49475860595703 166.14352416992188 30.49475860595703 166.14352416992188 C 30.19293212890625 172.93006896972656 29.91973114013672 179.7280731201172 29.91564178466797 186.52197265625 C 29.914825439453125 188.06137084960938 29.90583038330078 189.61383056640625 30.032608032226562 191.14996337890625 C 30.033432006835938 191.1507568359375 30.102951049804688 192.23291015625 30.281265258789062 192.41043090820312 C 30.585548400878906 192.71469116210938 31.11803436279297 192.62554931640625 31.546646118164062 192.6631622314453 C 33.09012222290039 192.79730224609375 34.651588439941406 192.79649353027344 36.199153900146484 192.80386352539062 C 43.029869079589844 192.83575439453125 49.86631774902344 192.60263061523438 56.691307067871094 192.340087890625 C 56.691307067871094 192.340087890625 56.691307067871094 192.340087890625 56.691307067871094 192.340087890625 C 58.86378860473633 192.13803100585938 60.28866195678711 191.56874084472656 61.98591232299805 190.19375610351562 C 81.38200378417969 170.79847717285156 100.77729034423828 151.40321350097656 120.17256927490234 132.00791931152344 C 121.22200012207031 133.05735778808594 122.27143859863281 134.10679626464844 123.32087707519531 135.15621948242188 C 120.00489044189453 138.47219848632812 116.68891143798828 141.78817749023438 113.37293243408203 145.10415649414062 C 115.90203857421875 147.6332550048828 118.43196868896484 150.16319274902344 120.96107482910156 152.6923065185547 C 122.56017303466797 151.09320068359375 124.15927124023438 149.49411010742188 125.7575454711914 147.89500427246094 C 126.4266357421875 148.5640869140625 127.09490203857422 149.23236083984375 127.76316833496094 149.9014434814453 C 126.16488647460938 151.50054931640625 124.56578826904297 153.09881591796875 122.96669006347656 154.6979217529297 C 125.11381530761719 156.8450469970703 127.26094055175781 158.99217224121094 129.40806579589844 161.1392822265625 C 132.7240447998047 157.79876708984375 136.04002380371094 154.458251953125 139.3560028076172 151.11773681640625 C 140.02426147460938 151.7868194580078 140.693359375 152.45509338378906 141.36163330078125 153.12335205078125 C 138.045654296875 156.4393310546875 134.72967529296875 159.75531005859375 131.4136962890625 163.0712890625 C 133.56082153320312 165.21841430664062 135.70794677734375 167.36553955078125 137.8550567626953 169.51266479492188 C 139.45416259765625 167.91357421875 141.05242919921875 166.31529235839844 142.6515350341797 164.71620178222656 C 143.31979370117188 165.38446044921875 143.98887634277344 166.052734375 144.6571502685547 166.72181701660156 C 143.05804443359375 168.32008361816406 141.45977783203125 169.919189453125 139.8606719970703 171.51828002929688 C 142.00779724121094 173.6654052734375 144.15492248535156 175.81253051757812 146.3020477294922 177.95965576171875 C 149.61802673339844 174.6436767578125 152.9340057373047 171.32769775390625 156.24998474121094 168.01171875 C 156.9182586669922 168.67999267578125 157.58651733398438 169.34825134277344 158.25559997558594 170.01734924316406 C 154.9396209716797 173.3333282470703 151.62364196777344 176.64930725097656 148.3076629638672 179.96527099609375 C 150.4547882080078 182.11239624023438 152.60191345214844 184.259521484375 154.74903869628906 186.40664672851562 C 156.34732055664062 184.80755615234375 157.9464111328125 183.20846557617188 159.54550170898438 181.61016845703125 C 160.21377563476562 182.2784423828125 160.88204956054688 182.94671630859375 161.55113220214844 183.61497497558594 C 159.95204162597656 185.21408081054688 158.35293579101562 186.81317138671875 156.75466918945312 188.41226196289062 C 158.87806701660156 190.53567504882812 161.00146484375 192.65908813476562 163.1256866455078 194.78329467773438 C 164.8662872314453 195.95297241210938 165.96316528320312 195.95297241210938 167.70458984375 194.78329467773438 C 176.74623107910156 185.74082946777344 185.78868103027344 176.69918823242188 194.830322265625 167.65673828125 C 196.0 165.91531372070312 196.0 164.81924438476562 194.830322265625 163.0778350830078 C 177.24844360351562 145.49513244628906 159.66574096679688 127.91243743896484 142.0830535888672 110.32974243164062 C 157.97177124023438 94.4892807006836 173.86050415039062 78.64799499511719 189.74920654296875 62.806724548339844 C 194.31175231933594 57.59309387207031 194.31092834472656 50.98650360107422 189.74920654296875 45.77287292480469 C 185.6938018798828 41.716644287109375 181.6375732421875 37.66124725341797 177.58218383789062 33.6058349609375 C 172.21641540527344 29.008941650390625 165.50674438476562 28.646591186523438 160.09762573242188 33.37190246582031 C 144.2089080810547 49.165740966796875 128.3201904296875 64.95875549316406 112.43147277832031 80.75177764892578 C 95.23075103759766 63.551055908203125 78.03085327148438 46.351158142089844 60.83014678955078 29.15045166015625 C 59.09281539916992 28.047027587890625 57.987762451171875 28.047027587890625 56.250431060791016 29.15045166015625 C 56.250431060791016 29.15045166015625 56.250431060791016 29.15045166015625 56.250431060791016 29.15045166015625" stroke-width="0.0" fill="rgb(0, 0, 0)" opacity="1.0"/>
    <path d="M 149.21722412109375 53.197425842285156 C 152.5814666748047 56.56166076660156 155.94488525390625 59.925079345703125 159.30911254882812 63.2893180847168 C 122.56998443603516 99.98101043701172 85.83084869384766 136.67269897460938 49.09089660644531 173.36441040039062 C 45.57124710083008 170.16867065429688 42.166934967041016 166.81915283203125 38.99900436401367 163.2725067138672 C 75.73896026611328 126.58081817626953 112.47809600830078 89.88911437988281 149.21722412109375 53.197425842285156" stroke-width="0.0" fill="rgb(255, 255, 255)" opacity="1.0"/>
  </g>
</svg>
