<?xml version="1.0" ?>
<svg xmlns="http://www.w3.org/2000/svg" version="1.1" width="224" height="224">
  <defs/>
  <g>
    <path d="M 32.261810302734375 171.48141479492188 C 30.717086791992188 169.49765014648438 38.84154510498047 116.65328979492188 39.88196563720703 114.19509887695312 C 40.186370849609375 113.64126586914062 40.600135803222656 111.01673889160156 40.75096893310547 108.34307098388672 C 41.905784606933594 95.51200103759766 48.748985290527344 78.54483032226562 58.423797607421875 67.4394760131836 C 64.90281677246094 57.832420349121094 75.31298828125 48.345603942871094 82.06268310546875 45.84626770019531 C 91.43939208984375 42.14088439941406 115.61100006103516 37.61431121826172 116.32569122314453 39.86958312988281 C 116.81407165527344 40.01344299316406 116.65882873535156 68.0448989868164 116.08063507080078 101.84349060058594 L 114.97293853759766 162.8544921875 L 111.08734893798828 167.25830078125 L 106.54835510253906 170.22879028320312 L 69.64393615722656 172.8131103515625 C 48.210182189941406 172.79737854003906 31.808456420898438 172.1629180908203 32.261810302734375 171.48141479492188" stroke-width="0.0" fill="rgb(84, 84, 86)" opacity="0.99455464"/>
    <path d="M 32.03246307373047 183.08740234375 L 31.658737182617188 169.36508178710938 L 68.85419464111328 169.64736938476562 C 112.88346099853516 169.29000854492188 109.81166076660156 168.1322479248047 109.755615234375 180.88467407226562 C 110.31482696533203 185.8610382080078 109.85059356689453 190.78524780273438 109.11406707763672 192.27639770507812 L 108.31622314453125 195.96058654785156 L 31.890220642089844 195.99407958984375 L 32.03246307373047 183.08740234375" stroke-width="1.0" fill="rgb(253, 253, 253)" opacity="0.99655503"/>
    <path d="M 115.21733856201172 194.92596435546875 C 114.73274230957031 193.90562438964844 114.12885284423828 188.78237915039062 113.86304473876953 183.1351318359375 C 112.94110870361328 168.05320739746094 109.74029541015625 168.91653442382812 155.23574829101562 169.4327392578125 L 192.82907104492188 169.74794006347656 L 192.85433959960938 183.00758361816406 L 192.56520080566406 195.8270263671875 L 154.1890869140625 195.70614624023438 C 126.3756332397461 196.0 115.05084991455078 195.9266357421875 115.21733856201172 194.92596435546875" stroke-width="1.0" fill="rgb(251, 250, 250)" opacity="0.9894764"/>
    <path d="M 65.64599609375 135.1878204345703 C 65.13136291503906 134.55160522460938 64.89712524414062 128.37356567382812 65.03850555419922 121.32280731201172 L 65.3267593383789 108.63944244384766 L 78.5705795288086 108.59890747070312 L 78.453125 135.83087158203125 L 72.18861389160156 135.75381469726562 C 68.95602416992188 135.55807495117188 66.030517578125 135.44097900390625 65.64599609375 135.1878204345703" stroke-width="1.0" fill="rgb(228, 229, 231)" opacity="0.9999713"/>
    <path d="M 105.81053161621094 170.274169921875 C 103.5226058959961 165.44837951660156 103.4564208984375 164.39132690429688 109.1539077758789 161.99859619140625 L 112.54466247558594 160.97506713867188 L 112.41520690917969 145.8133544921875 C 112.13784790039062 118.0277099609375 113.01827239990234 41.919647216796875 112.88065338134766 40.36936950683594 C 114.26786804199219 39.902732849121094 115.52629089355469 39.39708709716797 119.74130249023438 40.016876220703125 C 141.74850463867188 42.591163635253906 164.32492065429688 60.52552795410156 175.3166961669922 81.54275512695312 C 180.97247314453125 89.12649536132812 183.9642333984375 101.80830383300781 184.2972412109375 108.21539306640625 C 185.9854278564453 110.97069549560547 187.74871826171875 121.56552124023438 189.99740600585938 134.0819854736328 C 191.62118530273438 145.83847045898438 193.28292846679688 158.0069122314453 192.72061157226562 161.36026000976562 L 192.68052673339844 169.32275390625 L 154.97900390625 169.44216918945312 C 120.26526641845703 169.91819763183594 115.70487976074219 167.56051635742188 116.3944320678711 171.49928283691406 C 112.29704284667969 173.90760803222656 110.80908966064453 174.94964599609375 105.81053161621094 170.274169921875" stroke-width="0.0" fill="rgb(67, 63, 65)" opacity="0.9970915"/>
    <path d="M 64.95112609863281 150.32936096191406 L 65.10539245605469 139.00917053222656 L 78.45822143554688 139.1652374267578 L 78.38768768310547 161.32537841796875 L 65.10417175292969 161.6126251220703 L 64.95112609863281 150.32936096191406" stroke-width="1.0" fill="rgb(195, 196, 197)" opacity="0.98049873"/>
    <path d="M 63.59303283691406 186.83865356445312 C 60.467140197753906 183.04306030273438 60.536678314208984 179.99334716796875 63.32221221923828 175.26414489746094 C 68.30052185058594 169.15357971191406 78.13037872314453 172.77447509765625 77.9547348022461 180.37974548339844 C 78.28107452392578 184.46774291992188 73.05867004394531 189.42764282226562 69.36860656738281 189.0808868408203 C 67.94924926757812 189.59298706054688 65.57461547851562 188.43222045898438 63.59303283691406 186.83865356445312" stroke-width="1.0" fill="rgb(64, 62, 65)" opacity="0.98774487"/>
    <path d="M 41.8985595703125 185.4138641357422 C 38.643714904785156 180.92486572265625 43.738311767578125 174.24945068359375 48.60301971435547 177.27304077148438 C 52.85204315185547 180.6175537109375 51.32176971435547 187.04005432128906 45.970848083496094 187.5023193359375 C 44.986549377441406 187.38925170898438 43.22064208984375 186.42572021484375 41.8985595703125 185.4138641357422" stroke-width="1.0" fill="rgb(62, 65, 67)" opacity="0.9855147"/>
    <path d="M 89.46575927734375 185.38525390625 C 86.1324691772461 181.004638671875 90.61738586425781 175.14120483398438 96.24848937988281 177.51589965820312 C 100.9959487915039 179.1039581298828 98.46510314941406 188.0113525390625 93.59770202636719 187.47023010253906 C 92.05641174316406 187.50045776367188 90.40036010742188 186.74815368652344 89.46575927734375 185.38525390625" stroke-width="1.0" fill="rgb(66, 65, 67)" opacity="0.97564864"/>
    <path d="M 148.42416381835938 186.7869873046875 C 143.16921997070312 180.837158203125 147.03411865234375 172.6955108642578 154.64889526367188 172.34275817871094 C 162.45761108398438 172.6739501953125 165.6751708984375 182.10325622558594 159.88685607910156 186.86123657226562 C 155.90380859375 189.99368286132812 151.9721221923828 190.07510375976562 148.42416381835938 186.7869873046875" stroke-width="1.0" fill="rgb(63, 61, 63)" opacity="0.9960769"/>
    <path d="M 126.22686767578125 185.71932983398438 C 125.29975128173828 184.43994140625 124.59085083007812 182.43585205078125 124.68224334716797 181.51617431640625 C 124.94449615478516 175.8189697265625 134.234130859375 174.844482421875 135.4444580078125 180.60348510742188 C 135.77615356445312 186.14382934570312 130.0528106689453 189.44895935058594 126.22686767578125 185.71932983398438" stroke-width="1.0" fill="rgb(64, 64, 64)" opacity="0.9870407"/>
    <path d="M 174.42161560058594 186.0585479736328 C 171.13641357421875 182.22662353515625 173.6949920654297 176.02401733398438 179.16969299316406 176.58523559570312 C 182.88226318359375 177.22256469726562 185.049072265625 181.06695556640625 183.46493530273438 184.35943603515625 C 182.17005920410156 187.45834350585938 177.00039672851562 188.3852081298828 174.42161560058594 186.0585479736328" stroke-width="1.0" fill="rgb(63, 64, 65)" opacity="0.98956573"/>
    <path d="M 146.92771911621094 150.10650634765625 L 146.99378967285156 138.88645935058594 L 160.22401428222656 138.8700408935547 L 160.17477416992188 161.7688751220703 L 147.04151916503906 161.87509155273438 L 146.92771911621094 150.10650634765625" stroke-width="1.0" fill="rgb(190, 192, 192)" opacity="0.98751116"/>
    <path d="M 147.578369140625 135.15174865722656 C 147.0721893310547 134.56845092773438 146.6089324951172 128.4998016357422 146.84872436523438 121.28742980957031 L 146.7920379638672 108.59124755859375 L 160.18910217285156 108.46609497070312 L 160.23532104492188 135.8006134033203 L 154.39059448242188 135.78250122070312 C 150.95849609375 135.6862030029297 147.70584106445312 135.3797149658203 147.578369140625 135.15174865722656" stroke-width="1.0" fill="rgb(230, 231, 232)" opacity="0.99599713"/>
    <path d="M 31.609352111816406 132.014892578125 C 31.91077423095703 102.8328628540039 32.83197021484375 101.56375122070312 35.44218444824219 91.75248718261719 C 42.64812469482422 67.1399154663086 58.985050201416016 47.54681396484375 80.18620300292969 37.42021179199219 C 90.51932525634766 32.616615295410156 99.73638153076172 30.307357788085938 112.08719635009766 30.020858764648438 C 125.10299682617188 30.562881469726562 132.99574279785156 32.3853759765625 145.19598388671875 38.179786682128906 C 161.22901916503906 45.76183319091797 178.06375122070312 65.55622863769531 186.02667236328125 85.44551086425781 C 191.43927001953125 99.73768615722656 192.78372192382812 105.63026428222656 192.41949462890625 134.7604522705078 L 192.6157684326172 161.94073486328125 L 182.90194702148438 161.84121704101562 L 183.71026611328125 133.9991912841797 C 183.94189453125 107.12372589111328 182.40911865234375 105.44212341308594 180.34620666503906 96.47000122070312 C 176.10829162597656 82.44996643066406 169.85501098632812 71.55471801757812 160.7567138671875 61.248085021972656 C 152.06015014648438 52.54766082763672 144.7071990966797 47.637451171875 134.18499755859375 43.77667999267578 C 95.8487777709961 28.00000762939453 51.52524948120117 55.68018341064453 42.782127380371094 101.32015991210938 C 40.82859802246094 107.50709533691406 40.378387451171875 115.53528594970703 41.03617858886719 135.6302032470703 L 41.58038330078125 162.16043090820312 L 31.798484802246094 161.86976623535156 L 31.609352111816406 132.014892578125" stroke-width="1.0" fill="rgb(252, 252, 252)" opacity="0.9900753"/>
  </g>
</svg>
