<?xml version="1.0" ?>
<svg xmlns="http://www.w3.org/2000/svg" version="1.1" width="224" height="224">
  <defs/>
  <g>
    <path d="M 35.88629150390625 187.44049072265625 C 35.919830322265625 183.61474609375 35.19762420654297 163.55670166015625 34.616546630859375 142.8064422607422 C 32.96593475341797 103.60697937011719 33.73585510253906 99.60881805419922 38.07147216796875 85.71642303466797 C 43.687400817871094 67.0257568359375 57.22275161743164 49.520511627197266 71.8931884765625 42.61632537841797 C 80.43269348144531 38.70375061035156 97.64956665039062 32.943084716796875 106.74031066894531 30.927047729492188 C 121.20708465576172 28.00000762939453 138.638427734375 30.956771850585938 150.04629516601562 38.61571502685547 C 168.90052795410156 50.41188430786133 183.55528259277344 82.22984313964844 188.99029541015625 120.28766632080078 C 191.0340576171875 130.39697265625 190.8048553466797 168.3560333251953 189.59762573242188 178.01788330078125 L 189.08694458007812 182.47463989257812 L 185.34750366210938 182.75405883789062 L 180.7445526123047 182.9646759033203 L 180.64712524414062 189.52915954589844 L 180.2431182861328 195.92396545410156 L 36.135475158691406 196.0 L 35.88629150390625 187.44049072265625" stroke-width="1.0" fill="rgb(39, 38, 70)" opacity="0.9953268"/>
    <path d="M 138.15628051757812 181.3857879638672 C 137.7760009765625 180.81918334960938 135.7003936767578 174.2818603515625 133.9431610107422 166.9276580810547 C 131.9825439453125 160.32623291015625 129.19342041015625 149.97415161132812 127.51823425292969 144.10818481445312 C 126.02735137939453 139.158935546875 123.55342102050781 131.21543884277344 122.17790222167969 126.7396240234375 C 120.80073547363281 122.24635314941406 119.26345825195312 117.50263977050781 118.79090881347656 116.47115325927734 C 118.36439514160156 115.05323028564453 115.6834487915039 105.7382583618164 112.6064224243164 96.25086975097656 C 109.36375427246094 86.17170715332031 104.7979507446289 71.28800964355469 102.11864471435547 63.49734115600586 C 99.14824676513672 54.43345642089844 96.65235900878906 47.0162353515625 97.03044891357422 46.350791931152344 C 98.64392852783203 43.363426208496094 119.42937469482422 48.6259765625 125.85897827148438 53.23686218261719 C 127.3274154663086 54.91926193237305 129.86927795410156 56.320186614990234 131.0465545654297 57.05384826660156 C 134.79025268554688 59.033382415771484 146.72503662109375 71.84857177734375 151.7021026611328 78.5009994506836 C 162.1549072265625 93.90560150146484 169.91717529296875 114.77790832519531 171.92950439453125 131.533203125 C 173.54678344726562 148.47320556640625 170.82196044921875 176.51405334472656 165.78787231445312 181.15042114257812 C 165.43099975585938 181.27081298828125 140.87017822265625 181.32571411132812 138.15628051757812 181.3857879638672" stroke-width="0.0" fill="rgb(253, 254, 253)" opacity="0.9962145"/>
    <path d="M 49.359519958496094 179.181640625 C 49.42951202392578 177.65170288085938 48.652793884277344 163.2688751220703 47.798851013183594 146.6263427734375 C 45.30889892578125 109.83297729492188 44.916786193847656 93.88920593261719 47.72515869140625 86.0241470336914 C 50.6194953918457 72.91384887695312 51.0781364440918 73.76937103271484 57.0152473449707 99.0737075805664 C 67.69731140136719 142.56011962890625 76.3643569946289 178.6141357421875 76.48199462890625 180.33749389648438 C 76.01176452636719 181.37083435058594 74.36382293701172 181.91552734375 62.91423416137695 181.66061401367188 L 49.555397033691406 181.6719970703125 L 49.359519958496094 179.181640625" stroke-width="1.0" fill="rgb(251, 215, 99)" opacity="0.99682224"/>
    <path d="M 88.98507690429688 180.9837646484375 C 88.99922943115234 180.14102172851562 85.00283813476562 163.18707275390625 80.11674499511719 143.18658447265625 C 75.35820770263672 123.18926239013672 68.88694763183594 97.04765319824219 65.70985412597656 84.99064636230469 C 62.68230056762695 72.95694732666016 59.89101028442383 62.539466857910156 60.11537170410156 61.62197494506836 C 60.32923126220703 57.881534576416016 77.75209045410156 45.49067687988281 82.94593811035156 45.4583740234375 C 84.06257629394531 44.97637176513672 85.1402587890625 47.421600341796875 86.62380981445312 52.09347915649414 C 95.9303207397461 79.76115417480469 125.99007415771484 178.615966796875 125.91661071777344 180.77464294433594 C 125.20909881591797 182.3538055419922 89.76406860351562 182.17611694335938 88.98507690429688 180.9837646484375" stroke-width="1.0" fill="rgb(250, 214, 98)" opacity="0.9933627"/>
    <path d="M 166.99957275390625 173.05029296875 C 169.72979736328125 160.74765014648438 169.82614135742188 133.86244201660156 167.20068359375 123.62554931640625 C 163.33639526367188 106.0548324584961 157.99517822265625 92.14613342285156 149.03765869140625 78.86743927001953 C 136.8155059814453 60.84578323364258 120.95941925048828 50.292362213134766 102.80567169189453 48.624778747558594 C 97.07696533203125 47.53327941894531 96.5747299194336 47.654197692871094 95.7269287109375 44.96381378173828 C 95.51502227783203 42.8427734375 95.08824920654297 41.20545959472656 95.12965393066406 41.509010314941406 C 98.17359924316406 39.46568298339844 111.38323974609375 36.64619445800781 118.21984100341797 36.75475311279297 C 140.54885864257812 36.82048034667969 156.0213623046875 47.29188537597656 168.057373046875 71.11442565917969 C 175.0675506591797 85.13782501220703 180.99703979492188 106.8829116821289 183.02249145507812 126.62250518798828 C 184.1752166748047 136.27487182617188 184.46450805664062 154.55856323242188 183.46759033203125 170.9062042236328 L 182.76141357421875 181.65023803710938 L 165.38153076171875 181.68641662597656 L 166.99957275390625 173.05029296875" stroke-width="1.0" fill="rgb(252, 215, 101)" opacity="0.9839542"/>
  </g>
</svg>
