<?xml version="1.0" ?>
<svg xmlns="http://www.w3.org/2000/svg" version="1.1" width="224" height="224">
  <defs/>
  <g>
    <path d="M 112.11549377441406 28.0 C 112.11549377441406 28.0 112.11549377441406 28.0 112.11549377441406 28.0 C 114.88822937011719 28.480751037597656 116.85922241210938 29.79999542236328 118.49571228027344 32.093482971191406 C 118.49571228027344 32.093482971191406 118.49571228027344 32.093482971191406 118.49571228027344 32.093482971191406 C 122.61844635009766 38.208953857421875 123.47044372558594 45.384178161621094 121.64720153808594 52.462646484375 C 121.34719848632812 53.495391845703125 121.04720306396484 54.52813720703125 120.74720764160156 55.560882568359375 C 121.94044494628906 56.89287567138672 122.34020233154297 57.72911834716797 122.61544799804688 59.49911117553711 C 122.61544799804688 68.24932098388672 122.61544799804688 76.99952697753906 122.61544799804688 85.75048828125 C 133.11538696289062 85.75048828125 143.61459350585938 85.75048828125 154.11456298828125 85.75048828125 C 156.19204711914062 85.90274047851562 158.05128479003906 86.28749084472656 159.82952880859375 87.44398498535156 C 164.46075439453125 90.45447540283203 165.99224853515625 96.77694702148438 163.16177368164062 101.53791809082031 C 162.20550537109375 103.14665985107422 160.89752197265625 104.26265716552734 159.3652801513672 105.2894058227539 C 159.3652801513672 114.5263671875 159.3652801513672 123.76256561279297 159.3652801513672 132.99952697753906 C 162.86476135253906 132.99952697753906 166.36573791503906 132.99952697753906 169.865234375 132.99952697753906 C 171.9434814453125 133.15252685546875 173.80197143554688 133.5372772216797 175.5802001953125 134.69302368164062 C 179.78619384765625 137.42825317382812 181.5126953125 142.9572296142578 179.5289306640625 147.5802001953125 C 178.6011962890625 149.74246215820312 177.03744506835938 151.252197265625 175.11895751953125 152.53994750976562 C 175.11895751953125 165.27638244628906 175.11895751953125 178.01283264160156 175.11895751953125 190.749267578125 C 174.69520568847656 193.89999389648438 173.0189666748047 195.5762481689453 169.86898803710938 196.0 C 131.36865234375 196.0 92.86833190917969 196.0 54.36875534057617 196.0 C 51.218021392822266 195.57699584960938 49.54103088378906 193.89999389648438 49.1180305480957 190.749267578125 C 49.117279052734375 178.01283264160156 49.115779876708984 165.27638244628906 49.11503219604492 152.53994750976562 C 47.582786560058594 151.512451171875 46.27478790283203 150.39645385742188 45.31854248046875 148.78770446777344 C 42.48731231689453 144.02597045898438 44.019554138183594 137.70425415039062 48.650779724121094 134.69302368164062 C 50.42902374267578 133.5372772216797 52.28751754760742 133.15252685546875 54.36500549316406 132.99952697753906 C 57.86524200439453 132.99952697753906 61.365474700927734 132.99952697753906 64.86495971679688 132.99952697753906 C 64.86495971679688 123.76256561279297 64.86495971679688 114.5263671875 64.86495971679688 105.2894058227539 C 63.33271789550781 104.26265716552734 62.02547073364258 103.14665985107422 61.06922912597656 101.53791809082031 C 58.238739013671875 96.77694702148438 59.770233154296875 90.45447540283203 64.40145874023438 87.44398498535156 C 66.17970275878906 86.28749084472656 68.03819274902344 85.90274047851562 70.11568450927734 85.75048828125 C 80.61638641357422 85.74899291992188 91.1170883178711 85.74824523925781 101.61779022216797 85.74749755859375 C 101.61779022216797 76.99803161621094 101.61779022216797 68.24857330322266 101.61779022216797 59.49911117553711 C 101.89154052734375 57.73136901855469 102.29054260253906 56.89362335205078 103.48003387451172 55.560882568359375 C 103.18003845214844 54.52813720703125 102.88078308105469 53.495391845703125 102.5807876586914 52.462646484375 C 100.75679016113281 45.384178161621094 101.61404418945312 38.21045684814453 105.73152160644531 32.093482971191406 C 105.73152160644531 32.093482971191406 105.73152160644531 32.093482971191406 105.73152160644531 32.093482971191406 C 107.42801666259766 29.89299774169922 109.36825561523438 28.49950408935547 112.11549377441406 28.0 C 112.11549377441406 28.0 112.11549377441406 28.0 112.11549377441406 28.0" stroke-width="0.0" fill="rgb(38, 90, 165)" opacity="1.0"/>
    <path d="M 54.36500549316406 154.0009307861328 C 54.36500549316406 166.25064086914062 54.36500549316406 178.5003204345703 54.36500549316406 190.749267578125 C 92.8653335571289 190.749267578125 131.36566162109375 190.749267578125 169.865234375 190.749267578125 C 169.865234375 178.5003204345703 169.865234375 166.25064086914062 169.865234375 154.0009307861328 C 131.36566162109375 154.0009307861328 92.8653335571289 154.0009307861328 54.36500549316406 154.0009307861328" stroke-width="0.0" fill="rgb(255, 255, 255)" opacity="1.0"/>
    <path d="M 154.1175537109375 106.7489013671875 C 126.11717987060547 106.74964904785156 98.11605834960938 106.75039672851562 70.11568450927734 106.75189208984375 C 70.11568450927734 115.5006103515625 70.11568450927734 124.25006866455078 70.11568450927734 132.99952697753906 C 98.11605834960938 132.998779296875 126.11717987060547 132.9972686767578 154.1175537109375 132.9965362548828 C 154.1175537109375 124.2470703125 154.1175537109375 115.49760437011719 154.1175537109375 106.7489013671875" stroke-width="0.0" fill="rgb(255, 255, 255)" opacity="1.0"/>
    <path d="M 54.36500549316406 138.25025939941406 C 54.36500549316406 138.25025939941406 54.36500549316406 138.25025939941406 54.36500549316406 138.25025939941406 C 53.145511627197266 138.41375732421875 52.79751205444336 138.3365020751953 51.71527099609375 138.96725463867188 C 48.78953170776367 140.67274475097656 48.26078414916992 144.82022094726562 50.65251922607422 147.2127227783203 C 51.737770080566406 148.29795837402344 52.908512115478516 148.55445861816406 54.36500549316406 148.75021362304688 C 92.8653335571289 148.75021362304688 131.36566162109375 148.75021362304688 169.865234375 148.75021362304688 C 171.32247924804688 148.55445861816406 172.49246215820312 148.29721069335938 173.57772827148438 147.21121215820312 C 175.96945190429688 144.8187255859375 175.44146728515625 140.67274475097656 172.5149688720703 138.96725463867188 C 171.4334716796875 138.3365020751953 171.08547973632812 138.41375732421875 169.865234375 138.25025939941406 C 131.36566162109375 138.25025939941406 92.8653335571289 138.25025939941406 54.36500549316406 138.25025939941406" stroke-width="0.0" fill="rgb(254, 254, 254)" opacity="1.0"/>
    <path d="M 70.11568450927734 91.0004653930664 C 70.11568450927734 91.0004653930664 70.11568450927734 91.0004653930664 70.11568450927734 91.0004653930664 C 68.65919494628906 91.19622039794922 67.48844909667969 91.4534683227539 66.4031982421875 92.53871154785156 C 64.01071166992188 94.93119812011719 64.54020690917969 99.07868194580078 67.4659423828125 100.78417205810547 C 68.54818725585938 101.4149169921875 68.89619445800781 101.33692169189453 70.11568450927734 101.50116729736328 C 98.11531066894531 101.50116729736328 126.11492919921875 101.50116729736328 154.11456298828125 101.50116729736328 C 155.571044921875 101.305419921875 156.74179077148438 101.04817199707031 157.8270263671875 99.96292114257812 C 160.2195281982422 97.57044219970703 159.69003295898438 93.42295837402344 156.76429748535156 91.71746826171875 C 155.68203735351562 91.08671569824219 155.33404541015625 91.16471862792969 154.11456298828125 91.0004653930664 C 126.11492919921875 91.0004653930664 98.11531066894531 91.0004653930664 70.11568450927734 91.0004653930664" stroke-width="0.0" fill="rgb(254, 254, 254)" opacity="1.0"/>
    <path d="M 106.86551666259766 59.49911117553711 C 106.86551666259766 68.24857330322266 106.86551666259766 76.99803161621094 106.86551666259766 85.74749755859375 C 110.36575317382812 85.74749755859375 113.865234375 85.74749755859375 117.36547088623047 85.74749755859375 C 117.36547088623047 76.99803161621094 117.36547088623047 68.24857330322266 117.36547088623047 59.49911117553711 C 113.865234375 59.49911117553711 110.36575317382812 59.49911117553711 106.86551666259766 59.49911117553711" stroke-width="0.0" fill="rgb(255, 255, 255)" opacity="1.0"/>
    <path d="M 112.11549377441406 32.7557373046875 C 112.11549377441406 32.7557373046875 112.11549377441406 32.7557373046875 112.11549377441406 32.7557373046875 C 107.27801513671875 37.79420471191406 105.9512710571289 44.27642822265625 107.63201904296875 51.00465393066406 C 107.94551849365234 52.086151123046875 108.2590103149414 53.167640686035156 108.57176208496094 54.248382568359375 C 110.93575286865234 54.248382568359375 113.30049133300781 54.248382568359375 115.66448211669922 54.248382568359375 C 115.97722625732422 53.167640686035156 116.29072570800781 52.086151123046875 116.6042251586914 51.00465393066406 C 117.83422088623047 46.06817626953125 117.6107177734375 40.722190856933594 114.95498657226562 36.25371551513672 C 114.18173217773438 34.952476501464844 113.1317367553711 33.86572265625 112.11549377441406 32.7557373046875 C 112.11549377441406 32.7557373046875 112.11549377441406 32.7557373046875 112.11549377441406 32.7557373046875" stroke-width="0.0" fill="rgb(254, 254, 254)" opacity="1.0"/>
    <path d="M 137.80438232421875 154.0009307861328 C 125.55467987060547 166.25064086914062 113.30498504638672 178.5003204345703 101.0552978515625 190.749267578125 C 103.52953338623047 190.749267578125 106.00376892089844 190.749267578125 108.47801208496094 190.749267578125 C 120.72845458984375 178.5003204345703 132.9781494140625 166.25064086914062 145.22784423828125 154.0009307861328 C 142.7536163330078 154.0009307861328 140.27862548828125 154.0009307861328 137.80438232421875 154.0009307861328" stroke-width="0.0" fill="rgb(255, 197, 186)" opacity="1.0"/>
    <path d="M 169.865234375 163.93914794921875 C 160.9282684326172 172.8760986328125 151.99131774902344 181.8130645751953 143.05435180664062 190.749267578125 C 145.52859497070312 190.749267578125 148.00283813476562 190.749267578125 150.47706604003906 190.749267578125 C 156.93978881835938 184.28729248046875 163.4025115966797 177.82456970214844 169.865234375 171.36184692382812 C 169.865234375 168.8876190185547 169.865234375 166.4133758544922 169.865234375 163.93914794921875" stroke-width="0.0" fill="rgb(255, 196, 186)" opacity="1.0"/>
    <path d="M 158.8027801513672 154.0009307861328 C 146.55308532714844 166.25064086914062 134.3033905029297 178.5003204345703 122.05294799804688 190.749267578125 C 124.52793884277344 190.749267578125 127.00218200683594 190.749267578125 129.47640991210938 190.749267578125 C 141.72610473632812 178.5003204345703 153.97579956054688 166.25064086914062 166.22549438476562 154.0009307861328 C 163.75125122070312 154.0009307861328 161.2770233154297 154.0009307861328 158.8027801513672 154.0009307861328" stroke-width="0.0" fill="rgb(255, 196, 186)" opacity="1.0"/>
    <path d="M 169.865234375 184.93679809570312 C 167.92799377441406 186.87478637695312 165.99075317382812 188.81202697753906 164.05274963378906 190.749267578125 C 165.99075317382812 190.749267578125 167.92799377441406 190.749267578125 169.865234375 190.749267578125 C 169.865234375 188.81202697753906 169.865234375 186.87478637695312 169.865234375 184.93679809570312" stroke-width="0.0" fill="rgb(255, 197, 187)" opacity="1.0"/>
    <path d="M 54.36500549316406 154.0009307861328 C 54.36500549316406 156.2876739501953 54.36500549316406 158.5744171142578 54.36500549316406 160.86114501953125 C 56.65324783325195 158.5744171142578 58.94073486328125 156.2876739501953 61.22897720336914 154.0009307861328 C 58.94073486328125 154.0009307861328 56.65324783325195 154.0009307861328 54.36500549316406 154.0009307861328" stroke-width="0.0" fill="rgb(255, 197, 187)" opacity="1.0"/>
    <path d="M 74.80390930175781 154.0009307861328 C 67.9909439086914 160.8131561279297 61.177974700927734 167.6253662109375 54.36500549316406 174.4368438720703 C 54.36500549316406 176.91107177734375 54.36500549316406 179.38531494140625 54.36500549316406 181.85955810546875 C 63.6529655456543 172.5738525390625 72.94017028808594 163.28738403320312 82.22738647460938 154.0009307861328 C 79.75314331054688 154.0009307861328 77.27815246582031 154.0009307861328 74.80390930175781 154.0009307861328" stroke-width="0.0" fill="rgb(255, 197, 187)" opacity="1.0"/>
    <path d="M 95.8053207397461 154.0009307861328 C 83.55561828613281 166.25064086914062 71.30592346191406 178.5003204345703 59.055484771728516 190.749267578125 C 61.53046798706055 190.749267578125 64.00471496582031 190.749267578125 66.47895050048828 190.749267578125 C 78.72864532470703 178.5003204345703 90.97834014892578 166.25064086914062 103.22803497314453 154.0009307861328 C 100.75379180908203 154.0009307861328 98.27955627441406 154.0009307861328 95.8053207397461 154.0009307861328" stroke-width="0.0" fill="rgb(255, 196, 186)" opacity="1.0"/>
    <path d="M 116.80596923828125 154.0009307861328 C 104.5562744140625 166.25064086914062 92.30657958984375 178.5003204345703 80.056884765625 190.749267578125 C 82.5311279296875 190.749267578125 85.00536346435547 190.749267578125 87.47960662841797 190.749267578125 C 99.73004913330078 178.5003204345703 111.97974395751953 166.25064086914062 124.22943878173828 154.0009307861328 C 121.75519561767578 154.0009307861328 119.28021240234375 154.0009307861328 116.80596923828125 154.0009307861328" stroke-width="0.0" fill="rgb(255, 196, 187)" opacity="1.0"/>
    <path d="M 101.0552978515625 106.7489013671875 C 92.30583190917969 115.49760437011719 83.5563735961914 124.2470703125 74.80691528320312 132.9965362548828 C 77.28115844726562 132.9965362548828 79.75613403320312 132.9965362548828 82.23037719726562 132.9965362548828 C 90.97984313964844 124.2470703125 99.72930145263672 115.49760437011719 108.47801208496094 106.7489013671875 C 106.00376892089844 106.7489013671875 103.52953338623047 106.7489013671875 101.0552978515625 106.7489013671875" stroke-width="0.0" fill="rgb(255, 196, 187)" opacity="1.0"/>
    <path d="M 80.05389404296875 106.7489013671875 C 76.74114990234375 110.06163024902344 73.42842102050781 113.3743667602539 70.11568450927734 116.68710327148438 C 70.11568450927734 119.16134643554688 70.11568450927734 121.63558197021484 70.11568450927734 124.10981750488281 C 75.90266418457031 118.32284545898438 81.69038391113281 112.5358657836914 87.47735595703125 106.7489013671875 C 85.00311279296875 106.7489013671875 82.52888488769531 106.7489013671875 80.05389404296875 106.7489013671875" stroke-width="0.0" fill="rgb(255, 197, 187)" opacity="1.0"/>
    <path d="M 143.0513458251953 106.75189208984375 C 134.30264282226562 115.5006103515625 125.55318450927734 124.25006866455078 116.80372619628906 132.99952697753906 C 119.27796173095703 132.99952697753906 121.752197265625 132.99952697753906 124.2264404296875 132.99952697753906 C 132.9759063720703 124.25006866455078 141.72535705566406 115.5006103515625 150.47482299804688 106.75189208984375 C 148.00057983398438 106.75189208984375 145.52633666992188 106.75189208984375 143.0513458251953 106.75189208984375" stroke-width="0.0" fill="rgb(255, 196, 187)" opacity="1.0"/>
    <path d="M 154.1175537109375 116.6893539428711 C 148.68008422851562 122.1260757446289 143.24185180664062 127.56280517578125 137.80438232421875 132.99952697753906 C 140.27862548828125 132.99952697753906 142.7536163330078 132.99952697753906 145.22784423828125 132.99952697753906 C 148.1910858154297 130.03704833984375 151.15431213378906 127.07530212402344 154.1175537109375 124.1128158569336 C 154.1175537109375 121.63858032226562 154.1175537109375 119.16358947753906 154.1175537109375 116.6893539428711" stroke-width="0.0" fill="rgb(255, 196, 186)" opacity="1.0"/>
    <path d="M 122.05294799804688 106.75189208984375 C 113.30423736572266 115.5006103515625 104.55477905273438 124.25006866455078 95.8053207397461 132.99952697753906 C 98.27955627441406 132.99952697753906 100.75379180908203 132.99952697753906 103.22803497314453 132.99952697753906 C 111.97749328613281 124.25006866455078 120.72695922851562 115.5006103515625 129.47640991210938 106.75189208984375 C 127.00218200683594 106.75189208984375 124.52793884277344 106.75189208984375 122.05294799804688 106.75189208984375" stroke-width="0.0" fill="rgb(255, 196, 187)" opacity="1.0"/>
  </g>
</svg>
