<?xml version="1.0" ?>
<svg xmlns="http://www.w3.org/2000/svg" version="1.1" width="224" height="224">
  <defs/>
  <g>
    <path d="M 105.21759033203125 27.99999237060547 C 105.21759033203125 27.99999237060547 105.21759033203125 27.99999237060547 105.21759033203125 27.99999237060547 C 111.31633758544922 28.23906707763672 116.65725708007812 30.175323486328125 121.83584594726562 33.399208068847656 C 124.48047637939453 35.04547119140625 126.96129608154297 36.95294189453125 129.23255920410156 39.08399200439453 C 145.01182556152344 53.88996887207031 148.42904663085938 76.56639099121094 147.41885375976562 97.19217681884766 C 147.41885375976562 97.19217681884766 147.41885375976562 97.19217681884766 147.41885375976562 97.19217681884766 C 152.07205200195312 99.68406677246094 155.8331298828125 103.33076477050781 159.38021850585938 107.20252990722656 C 163.8836212158203 112.1184310913086 167.7037353515625 117.71023559570312 170.220703125 123.90269470214844 C 174.6481170654297 134.79705810546875 174.48724365234375 147.0321807861328 169.9063720703125 157.8387451171875 C 169.0201416015625 159.92919921875 167.98635864257812 161.95770263671875 166.8219451904297 163.906494140625 C 165.98074340820312 165.3144073486328 165.06942749023438 166.68026733398438 164.0872802734375 167.99298095703125 C 159.81410217285156 173.70654296875 153.74929809570312 179.35665893554688 146.06849670410156 177.39605712890625 C 144.28573608398438 176.94076538085938 142.6785888671875 175.99624633789062 141.4883575439453 174.58612060546875 C 138.55592346191406 171.11061096191406 138.4607391357422 165.9622802734375 138.3876953125 161.65589904785156 C 138.29103088378906 155.92977905273438 138.10137939453125 150.33282470703125 136.842529296875 144.7203369140625 C 136.842529296875 144.7203369140625 136.842529296875 144.7203369140625 136.842529296875 144.7203369140625 C 128.89312744140625 162.81365966796875 116.15474700927734 179.9041748046875 98.05626678466797 188.80990600585938 C 91.43213653564453 192.0699462890625 81.69554138183594 196.0 75.35697937011719 190.39564514160156 C 74.58143615722656 189.60977172851562 73.806640625 188.82391357421875 73.03111267089844 188.03878784179688 C 72.10873413085938 186.96072387695312 71.33172607421875 185.9365234375 70.8270034790039 184.59132385253906 C 68.71734619140625 178.9677734375 72.65035247802734 174.69680786132812 75.44773864746094 170.2598114013672 C 82.5728988647461 158.96035766601562 88.56908416748047 146.92666625976562 93.23851013183594 134.41188049316406 C 93.23851013183594 134.41188049316406 93.23851013183594 134.41188049316406 93.23851013183594 134.41188049316406 C 87.61940002441406 141.82113647460938 82.63045501708984 149.6569061279297 77.82820129394531 157.61294555664062 C 76.33911895751953 160.07901000976562 74.87290954589844 162.559814453125 73.34176635742188 165.00006103515625 C 72.23860168457031 166.7570037841797 71.11773681640625 168.72499084472656 69.49361419677734 170.0664825439453 C 62.679847717285156 175.69667053222656 52.07990264892578 171.69061279296875 49.93777847290039 163.45785522460938 C 49.351890563964844 161.20799255371094 49.47216796875 158.67034912109375 49.60793685913086 156.376220703125 C 49.87726974487305 151.84034729003906 50.72880554199219 147.33473205566406 51.913875579833984 142.9538116455078 C 55.79596710205078 128.60165405273438 63.59779357910156 114.71141052246094 74.75115966796875 104.76598358154297 C 80.02714538574219 100.0611343383789 86.761962890625 95.675048828125 94.03544616699219 95.20353698730469 C 96.55094909667969 95.03971862792969 98.97200012207031 95.36808776855469 101.42625427246094 95.9015884399414 C 101.42625427246094 95.9015884399414 101.42625427246094 95.9015884399414 101.42625427246094 95.9015884399414 C 102.08003997802734 85.3134536743164 101.60114288330078 74.62570190429688 98.3233871459961 64.46334075927734 C 97.16119384765625 60.85795974731445 95.63890075683594 57.401634216308594 93.96755981445312 54.006553649902344 C 92.19734191894531 50.41150665283203 90.26846313476562 46.66001892089844 90.1518783569336 42.564666748046875 C 90.00282287597656 37.30565643310547 92.96991729736328 31.885772705078125 97.75225830078125 29.569503784179688 C 100.11869812011719 28.423545837402344 102.62313079833984 28.10108184814453 105.21759033203125 27.99999237060547 C 105.21759033203125 27.99999237060547 105.21759033203125 27.99999237060547 105.21759033203125 27.99999237060547" stroke-width="0.0" fill="rgb(38, 90, 165)" opacity="1.0"/>
    <path d="M 133.98463439941406 137.99880981445312 C 117.31768035888672 154.665771484375 100.65145874023438 171.3319854736328 83.98524475097656 187.9989471435547 C 87.72344970703125 187.40493774414062 91.20559692382812 186.169677734375 94.65602111816406 184.63632202148438 C 105.73338317871094 173.55897521972656 116.81074523925781 162.48159790039062 127.88810729980469 151.40350341796875 C 130.22061157226562 147.0646514892578 132.22328186035156 142.599609375 133.98463439941406 137.99880981445312 C 133.98463439941406 137.99880981445312 133.98463439941406 137.99880981445312 133.98463439941406 137.99880981445312" stroke-width="0.0" fill="rgb(61, 106, 174)" opacity="1.0"/>
    <path d="M 105.21759033203125 33.16529083251953 C 105.21759033203125 33.16529083251953 105.21759033203125 33.16529083251953 105.21759033203125 33.16529083251953 C 103.46065521240234 33.233184814453125 101.72805786132812 33.389617919921875 100.11279296875 34.15629577636719 C 96.90440368652344 35.67710876464844 95.12163543701172 39.457374572753906 95.34964752197266 42.917388916015625 C 95.56363677978516 46.17964172363281 97.24383544921875 49.241188049316406 98.62371826171875 52.13080596923828 C 100.41532897949219 55.883766174316406 102.118408203125 59.66477584838867 103.39424133300781 63.6302490234375 C 106.93763732910156 74.63824462890625 107.30953979492188 86.22697448730469 106.4624252319336 97.6769790649414 C 106.4624252319336 97.6769790649414 106.4624252319336 97.6769790649414 106.4624252319336 97.6769790649414 C 109.20594024658203 98.98600769042969 111.6734848022461 100.57766723632812 114.03919219970703 102.48513793945312 C 114.03919219970703 102.48513793945312 114.03919219970703 102.48513793945312 114.03919219970703 102.48513793945312 C 121.50010681152344 95.71342468261719 132.8076934814453 94.4220962524414 142.3568572998047 95.6713638305664 C 142.3568572998047 95.6713638305664 142.3568572998047 95.6713638305664 142.3568572998047 95.6713638305664 C 142.5 90.88534545898438 142.48599243164062 86.11997985839844 142.03733825683594 81.34870910644531 C 140.6080322265625 66.13690185546875 134.9859619140625 50.77971649169922 122.90727996826172 40.84019470214844 C 119.31665802001953 37.885643005371094 115.00657653808594 35.091217041015625 110.46111297607422 33.85670471191406 C 110.46111297607422 33.85670471191406 110.46111297607422 33.85670471191406 110.46111297607422 33.85670471191406 C 108.72261810302734 33.407325744628906 107.00773620605469 33.26122283935547 105.21759033203125 33.16529083251953 C 105.21759033203125 33.16529083251953 105.21759033203125 33.16529083251953 105.21759033203125 33.16529083251953" stroke-width="0.0" fill="rgb(254, 254, 254)" opacity="1.0"/>
    <path d="M 135.60064697265625 100.31571197509766 C 135.60064697265625 100.31571197509766 135.60064697265625 100.31571197509766 135.60064697265625 100.31571197509766 C 130.46707153320312 100.49649810791016 125.13352966308594 101.57825469970703 120.77474212646484 104.44499969482422 C 119.15874481201172 105.50831604003906 116.86165618896484 107.3781509399414 117.35089111328125 109.61473083496094 C 117.65342712402344 110.99534606933594 118.97795867919922 111.97306060791016 119.97633361816406 112.8533706665039 C 122.67041015625 115.22720336914062 125.61685180664062 117.2918472290039 128.22384643554688 119.76971435546875 C 134.0089874267578 125.26781463623047 138.43344116210938 132.48448181152344 140.9091033935547 140.0597686767578 C 143.48805236816406 147.9508819580078 143.25267028808594 155.92092895507812 143.60833740234375 164.0880126953125 C 143.72862243652344 166.84481811523438 143.8562774658203 170.87521362304688 146.8558349609375 172.16064453125 C 152.232177734375 174.46438598632812 157.09051513671875 168.6467742919922 159.9085693359375 164.92478942871094 C 160.64572143554688 163.9500274658203 161.33935546875 162.9427947998047 161.9879608154297 161.9067840576172 C 162.68380737304688 160.79550170898438 163.3294677734375 159.65176391601562 163.92051696777344 158.480712890625 C 164.76025390625 156.81747436523438 165.4944610595703 155.09963989257812 166.10986328125 153.34048461914062 C 169.90267944335938 142.48597717285156 168.62686157226562 130.78213500976562 162.99371337890625 120.796142578125 C 159.87091064453125 115.26040649414062 155.67965698242188 110.57252502441406 151.08621215820312 106.22408294677734 C 151.08621215820312 106.22408294677734 151.08621215820312 106.22408294677734 151.08621215820312 106.22408294677734 C 149.09609985351562 104.16607666015625 146.64627075195312 102.2372055053711 143.91604614257812 101.29194641113281 C 141.31346130371094 100.39097595214844 138.32644653320312 100.3599853515625 135.60064697265625 100.31571197509766 C 135.60064697265625 100.31571197509766 135.60064697265625 100.31571197509766 135.60064697265625 100.31571197509766" stroke-width="0.0" fill="rgb(254, 254, 254)" opacity="1.0"/>
    <path d="M 95.5555191040039 100.31571197509766 C 95.5555191040039 100.31571197509766 95.5555191040039 100.31571197509766 95.5555191040039 100.31571197509766 C 94.66783142089844 100.37031555175781 93.77571105957031 100.4064712524414 92.89907836914062 100.5547866821289 C 92.89907836914062 100.5547866821289 92.89907836914062 100.5547866821289 92.89907836914062 100.5547866821289 C 86.87117004394531 101.26243591308594 81.07496643066406 105.84258270263672 76.87631225585938 109.8434829711914 C 66.97589874267578 119.27827453613281 60.073577880859375 131.9827117919922 56.694000244140625 145.1807861328125 C 56.32209396362305 146.6329803466797 55.99520492553711 148.09698486328125 55.71406555175781 149.56982421875 C 55.464656829833984 150.8788604736328 55.25435256958008 152.19528198242188 55.087589263916016 153.51686096191406 C 54.49947738647461 158.18260192871094 53.607357025146484 165.03916931152344 59.20728302001953 167.02781677246094 C 60.05807876586914 167.32962036132812 60.871986389160156 167.45135498046875 61.77296447753906 167.46243286132812 C 66.07861328125 167.5170440673828 67.67247772216797 164.3817138671875 69.64045715332031 161.18365478515625 C 72.65994262695312 156.27734375 75.5657958984375 151.30316162109375 78.65170288085938 146.43743896484375 C 84.77405548095703 136.78497314453125 91.4018783569336 127.11404418945312 99.77778625488281 119.25613403320312 C 101.77381134033203 117.38334655761719 103.88494110107422 115.62124633789062 106.15545654296875 114.08788299560547 C 108.21346282958984 112.69767761230469 110.9178695678711 111.65206909179688 111.45948791503906 108.90044403076172 C 111.92510223388672 106.53326416015625 109.32769775390625 105.25152587890625 107.6792221069336 104.18230438232422 C 104.02735900878906 101.81364440917969 99.90840148925781 100.42122650146484 95.5555191040039 100.31571197509766 C 95.5555191040039 100.31571197509766 95.5555191040039 100.31571197509766 95.5555191040039 100.31571197509766" stroke-width="0.0" fill="rgb(254, 254, 254)" opacity="1.0"/>
    <path d="M 114.20964050292969 114.42658233642578 C 114.20964050292969 114.42658233642578 114.20964050292969 114.42658233642578 114.20964050292969 114.42658233642578 C 111.58198547363281 117.31841278076172 107.86370086669922 118.99713897705078 104.9106216430664 121.57461547851562 C 104.0229263305664 122.34941864013672 102.33830261230469 123.48062133789062 101.77528381347656 124.51884460449219 C 100.96580505371094 126.0079345703125 100.70458984375 128.3168182373047 100.1939697265625 129.9483184814453 C 99.27306365966797 132.8873748779297 98.25845336914062 135.79690551757812 97.16414642333984 138.6754608154297 C 93.68641662597656 147.81878662109375 89.4117660522461 156.65809631347656 84.56153869628906 165.1505889892578 C 82.78689575195312 168.2578887939453 80.93107604980469 171.31944274902344 78.9881820678711 174.3241729736328 C 77.91453552246094 175.9844512939453 76.25499725341797 177.77459716796875 75.61302185058594 179.65919494628906 C 74.99244689941406 181.48033142089844 75.64032745361328 182.9627685546875 76.71101379394531 184.40536499023438 C 77.4858169555664 185.19122314453125 78.26061248779297 185.9770965576172 79.035400390625 186.76223754882812 C 81.20040893554688 188.43504333496094 83.24955749511719 188.18710327148438 85.78128814697266 187.67575073242188 C 90.19467163085938 186.78363037109375 94.41472625732422 184.97059631347656 98.32855224609375 182.77755737304688 C 115.74668884277344 173.01661682128906 127.30885314941406 155.59921264648438 134.2384796142578 137.304443359375 C 134.2384796142578 137.304443359375 134.2384796142578 137.304443359375 134.2384796142578 137.304443359375 C 132.1007843017578 132.4763641357422 129.10121154785156 127.92129516601562 125.35562896728516 124.1867904663086 C 121.85945892333984 120.7016830444336 117.78256225585938 117.84231567382812 114.20964050292969 114.42658233642578 C 114.20964050292969 114.42658233642578 114.20964050292969 114.42658233642578 114.20964050292969 114.42658233642578" stroke-width="0.0" fill="rgb(254, 254, 254)" opacity="1.0"/>
    <path d="M 147.8734130859375 103.45326232910156 C 141.87796020507812 109.44796752929688 135.8832550048828 115.44340515136719 129.8878173828125 121.43885040283203 C 131.0662384033203 122.71614837646484 132.16644287109375 124.0325698852539 133.22386169433594 125.41169738769531 C 139.40821838378906 119.22735595703125 145.59329223632812 113.04301452636719 151.7776336669922 106.85867309570312 C 151.5474090576172 106.64615631103516 151.3164520263672 106.43437957763672 151.08621215820312 106.22186279296875 C 151.08621215820312 106.22186279296875 151.08621215820312 106.22186279296875 151.08621215820312 106.22186279296875 C 150.07601928710938 105.20134735107422 149.0031280517578 104.34538269042969 147.8734130859375 103.45326232910156 C 147.8734130859375 103.45326232910156 147.8734130859375 103.45326232910156 147.8734130859375 103.45326232910156" stroke-width="0.0" fill="rgb(254, 196, 187)" opacity="1.0"/>
    <path d="M 168.04095458984375 145.27671813964844 C 160.11959838867188 153.1966094970703 152.198974609375 161.11721801757812 144.27835083007812 169.03785705566406 C 145.14096069335938 171.06265258789062 145.96298217773438 171.88836669921875 148.07484436035156 172.5443572998047 C 153.84449768066406 166.77471923828125 159.6141357421875 161.00579833984375 165.384521484375 155.2361602783203 C 166.6455841064453 151.99456787109375 167.52810668945312 148.71754455566406 168.04095458984375 145.27671813964844 C 168.04095458984375 145.27671813964844 168.04095458984375 145.27671813964844 168.04095458984375 145.27671813964844" stroke-width="0.0" fill="rgb(254, 198, 188)" opacity="1.0"/>
    <path d="M 165.82798767089844 126.82626342773438 C 158.21434020996094 134.44065856933594 150.60140991210938 142.0550537109375 142.98776245117188 149.67018127441406 C 143.23052978515625 151.94512939453125 143.37884521484375 154.2163848876953 143.4570770263672 156.50314331054688 C 151.46771240234375 148.4932403564453 159.47763061523438 140.4825897216797 167.48753356933594 132.47267150878906 C 167.03814697265625 130.54823303222656 166.48988342285156 128.688720703125 165.82798767089844 126.82626342773438 C 165.82798767089844 126.82626342773438 165.82798767089844 126.82626342773438 165.82798767089844 126.82626342773438" stroke-width="0.0" fill="rgb(254, 196, 187)" opacity="1.0"/>
    <path d="M 158.22763061523438 113.76985168457031 C 151.58135986328125 120.41390228271484 144.93507385253906 127.05870056152344 138.28880310058594 133.7027587890625 C 139.08868408203125 135.37631225585938 139.78823852539062 137.0904541015625 140.47816467285156 138.81124877929688 C 147.4158935546875 131.87791442871094 154.3529052734375 124.94387817382812 161.28990173339844 118.01056671142578 C 160.31883239746094 116.55615997314453 159.30421447753906 115.14897918701172 158.22763061523438 113.76985168457031 C 158.22763061523438 113.76985168457031 158.22763061523438 113.76985168457031 158.22763061523438 113.76985168457031" stroke-width="0.0" fill="rgb(254, 196, 187)" opacity="1.0"/>
    <path d="M 135.60064697265625 100.31571197509766 C 135.60064697265625 100.31571197509766 135.60064697265625 100.31571197509766 135.60064697265625 100.31571197509766 C 133.60609436035156 100.36219787597656 131.67723083496094 100.58135223388672 129.71810913085938 100.9525146484375 C 126.09353637695312 104.57634735107422 122.4697036743164 108.20091247558594 118.84513854980469 111.82474517822266 C 120.12096405029297 112.99726867675781 121.44475555419922 114.09600067138672 122.79733276367188 115.17849731445312 C 127.7375717163086 110.2382583618164 132.67782592773438 105.29875183105469 137.61732482910156 100.35850524902344 C 136.94509887695312 100.33563232421875 136.2728729248047 100.32161712646484 135.60064697265625 100.31571197509766 C 135.60064697265625 100.31571197509766 135.60064697265625 100.31571197509766 135.60064697265625 100.31571197509766" stroke-width="0.0" fill="rgb(254, 196, 187)" opacity="1.0"/>
    <path d="M 106.51703643798828 103.49015808105469 C 106.51703643798828 103.49015808105469 106.51703643798828 103.49015808105469 106.51703643798828 103.49015808105469 C 108.004638671875 104.39039611816406 109.38672637939453 105.36737823486328 110.74372863769531 106.45503997802734 C 92.15601348876953 125.07964324951172 73.56904602050781 143.70425415039062 54.98206329345703 162.32887268066406 C 54.59762191772461 159.90780639648438 54.741512298583984 157.51258850097656 54.9296760559082 155.0775146484375 C 72.12570190429688 137.88148498535156 89.32173919677734 120.68618774414062 106.51703643798828 103.49015808105469" stroke-width="0.0" fill="rgb(254, 196, 187)" opacity="1.0"/>
    <path d="M 95.5555191040039 100.31571197509766 C 95.5555191040039 100.31571197509766 95.5555191040039 100.31571197509766 95.5555191040039 100.31571197509766 C 94.66783142089844 100.37031555175781 93.77496337890625 100.4064712524414 92.89907836914062 100.5577392578125 C 92.89907836914062 100.5577392578125 92.89907836914062 100.5577392578125 92.89907836914062 100.5577392578125 C 90.64110565185547 100.8897933959961 88.58457946777344 101.85865783691406 86.5346908569336 102.81055450439453 C 79.7223892211914 109.62358093261719 72.90936279296875 116.43588256835938 66.09706115722656 123.24818420410156 C 63.305580139160156 127.80619049072266 60.987098693847656 132.5531005859375 59.099552154541016 137.55238342285156 C 71.50292205810547 125.14901733398438 83.90628814697266 112.74490356445312 96.30966186523438 100.34153747558594 C 96.05802917480469 100.33268737792969 95.80714416503906 100.3245620727539 95.5555191040039 100.31571197509766 C 95.5555191040039 100.31571197509766 95.5555191040039 100.31571197509766 95.5555191040039 100.31571197509766" stroke-width="0.0" fill="rgb(254, 196, 187)" opacity="1.0"/>
    <path d="M 69.87364196777344 160.79623413085938 C 67.70051574707031 162.9693603515625 65.52740478515625 165.14247131347656 63.35428237915039 167.3163299560547 C 66.84307861328125 166.3304901123047 68.0355224609375 163.7581787109375 69.87364196777344 160.79623413085938 C 69.87364196777344 160.79623413085938 69.87364196777344 160.79623413085938 69.87364196777344 160.79623413085938" stroke-width="0.0" fill="rgb(252, 203, 195)" opacity="1.0"/>
    <path d="M 126.24333190917969 125.08628845214844 C 111.5856704711914 139.7439422607422 96.92875671386719 154.40159606933594 82.27110290527344 169.0585174560547 C 80.9222183227539 171.27960205078125 79.55120086669922 173.48516845703125 78.12261962890625 175.6560821533203 C 76.52433013916016 178.08377075195312 74.89209747314453 179.87466430664062 75.71043395996094 182.92514038085938 C 93.6517333984375 164.9845733642578 111.59231567382812 147.0432586669922 129.53363037109375 129.10194396972656 C 128.4968719482422 127.70362091064453 127.41363525390625 126.37539672851562 126.24333190917969 125.08628845214844 C 126.24333190917969 125.08628845214844 126.24333190917969 125.08628845214844 126.24333190917969 125.08628845214844" stroke-width="0.0" fill="rgb(254, 196, 187)" opacity="1.0"/>
    <path d="M 115.26041412353516 115.4065170288086 C 110.15119171142578 120.51647186279297 105.0412368774414 125.62642669677734 99.9312744140625 130.73565673828125 C 98.6790542602539 134.60299682617188 97.29917907714844 138.4164581298828 95.78279113769531 142.1878662109375 C 103.564697265625 134.4052276611328 111.34732818603516 126.62259674072266 119.12995910644531 118.8399658203125 C 117.8231430053711 117.71392822265625 116.53623962402344 116.5679702758789 115.26041412353516 115.4065170288086 C 115.26041412353516 115.4065170288086 115.26041412353516 115.4065170288086 115.26041412353516 115.4065170288086" stroke-width="0.0" fill="rgb(254, 196, 187)" opacity="1.0"/>
  </g>
</svg>
