<?xml version="1.0" ?>
<svg xmlns="http://www.w3.org/2000/svg" version="1.1" width="224" height="224">
  <defs/>
  <g>
    <path d="M 112.69606018066406 63.41020965576172 C 112.69606018066406 63.41020965576172 112.69606018066406 63.41020965576172 112.69606018066406 63.41020965576172 C 104.6688461303711 63.51124572753906 96.72801208496094 64.34188842773438 88.93988037109375 66.34791564941406 C 70.35960388183594 71.13355255126953 53.93574142456055 82.04447937011719 41.485382080078125 96.53711700439453 C 37.55738830566406 101.10911560058594 33.994964599609375 106.02046203613281 30.95159149169922 111.22643280029297 C 29.799339294433594 113.19698333740234 28.0 115.72669982910156 28.121864318847656 118.12220764160156 C 28.215179443359375 119.95549011230469 29.352012634277344 121.41700744628906 30.3831787109375 122.83612060546875 C 32.2257080078125 125.37046813964844 34.26567077636719 127.76212310791016 36.41978454589844 130.03500366210938 C 46.9034423828125 141.09864807128906 60.20294952392578 149.37652587890625 74.56293487548828 154.3973846435547 C 86.79425811767578 158.6739959716797 99.75827026367188 160.58978271484375 112.69606018066406 160.58900451660156 C 125.56597900390625 160.58746337890625 138.46829223632812 158.6708984375 150.6055145263672 154.31948852539062 C 164.7649688720703 149.24386596679688 177.792236328125 140.84645080566406 187.89102172851562 129.65863037109375 C 190.09063720703125 127.22069549560547 192.15914916992188 124.65165710449219 193.99319458007812 121.92681121826172 C 194.87396240234375 120.61798858642578 195.80487060546875 119.28680419921875 195.88816833496094 117.64557647705078 C 196.0 115.45136260986328 194.48370361328125 113.17076110839844 193.4617919921875 111.32592010498047 C 190.6297607421875 106.21559143066406 187.27479553222656 101.38753509521484 183.55657958984375 96.88418579101562 C 171.44403076171875 82.21338653564453 155.172119140625 71.22378540039062 136.6920928955078 66.40267944335938 C 128.8291473388672 64.35113525390625 120.80656433105469 63.512786865234375 112.69606018066406 63.41020965576172 C 112.69606018066406 63.41020965576172 112.69606018066406 63.41020965576172 112.69606018066406 63.41020965576172" stroke-width="0.0" fill="rgb(38, 90, 165)" opacity="1.0"/>
    <path d="M 119.712158203125 120.99745178222656 C 119.712158203125 120.99745178222656 119.712158203125 120.99745178222656 119.712158203125 120.99745178222656 C 116.70580291748047 122.28544616699219 113.69869232177734 122.99268341064453 110.42008972167969 122.65641784667969 C 104.65959167480469 128.4169158935547 98.89909362792969 134.1774139404297 93.13859558105469 139.9379119873047 C 94.8885726928711 140.80172729492188 96.65011596679688 141.55677795410156 98.48261260986328 142.22622680664062 C 105.55886840820312 135.14996337890625 112.63589477539062 128.07369995117188 119.712158203125 120.99745178222656" stroke-width="0.0" fill="rgb(67, 110, 174)" opacity="1.0"/>
    <path d="M 96.53211212158203 114.9477310180664 C 91.4071273803711 120.07272338867188 86.28214263916016 125.19769287109375 81.15715789794922 130.3226776123047 C 82.33871459960938 131.6955108642578 83.52953338623047 133.02362060546875 84.84529113769531 134.27073669433594 C 90.00189971923828 129.11412048339844 95.1577377319336 123.95829772949219 100.31356811523438 118.80245971679688 C 98.8890609741211 117.62706756591797 97.67510986328125 116.3984603881836 96.53211212158203 114.9477310180664 C 96.53211212158203 114.9477310180664 96.53211212158203 114.9477310180664 96.53211212158203 114.9477310180664" stroke-width="0.0" fill="rgb(42, 93, 167)" opacity="1.0"/>
    <path d="M 148.58946228027344 76.5516128540039 C 148.58946228027344 76.5516128540039 148.58946228027344 76.5516128540039 148.58946228027344 76.5516128540039 C 161.8380584716797 83.00083923339844 173.14002990722656 92.47261047363281 181.88450622558594 104.33141326904297 C 184.9857177734375 108.537841796875 187.9542694091797 113.05044555664062 190.07754516601562 117.84764862060547 C 190.07754516601562 117.84764862060547 190.07754516601562 117.84764862060547 190.07754516601562 117.84764862060547 C 187.96739196777344 121.48950958251953 185.09986877441406 124.78584289550781 182.20535278320312 127.812255859375 C 174.89694213867188 135.45462036132812 166.07765197753906 141.61692810058594 156.49713134765625 146.068603515625 C 143.6819610595703 152.02268981933594 129.6065673828125 154.84317016601562 115.51730346679688 155.16091918945312 C 95.7076416015625 155.60748291015625 75.73138427734375 151.24835205078125 58.7761344909668 140.76083374023438 C 49.544219970703125 135.05047607421875 40.111778259277344 127.28933715820312 34.41374969482422 117.8507308959961 C 34.41374969482422 117.8507308959961 34.41374969482422 117.8507308959961 34.41374969482422 117.8507308959961 C 36.672760009765625 112.98026275634766 39.784767150878906 108.41443634033203 43.02789306640625 104.16020202636719 C 51.633548736572266 92.87135314941406 62.517486572265625 83.7628402709961 75.16991424560547 77.33134460449219 C 75.16991424560547 77.33134460449219 75.16991424560547 77.33134460449219 75.16991424560547 77.33134460449219 C 71.35606384277344 82.01054382324219 68.55795288085938 87.25430297851562 67.13113403320312 93.14360809326172 C 65.78375244140625 98.70588684082031 65.55545806884766 104.58670043945312 66.34213256835938 110.25079345703125 C 69.36544799804688 132.0171356201172 88.23187255859375 149.0078582763672 110.18717193603516 149.76522827148438 C 115.4324722290039 149.94647216796875 120.70013427734375 149.2338409423828 125.70172119140625 147.64044189453125 C 130.99484252929688 145.9536895751953 135.965576171875 143.29132080078125 140.31312561035156 139.8337860107422 C 145.8114013671875 135.46078491210938 150.289306640625 129.83216857910156 153.2971954345703 123.48242950439453 C 156.6428985595703 116.4169692993164 158.13912963867188 108.49542236328125 157.5684051513672 100.69649505615234 C 156.9267120361328 91.92733764648438 153.65274047851562 83.68571472167969 148.58946228027344 76.5516128540039 C 148.58946228027344 76.5516128540039 148.58946228027344 76.5516128540039 148.58946228027344 76.5516128540039" stroke-width="0.0" fill="rgb(254, 254, 254)" opacity="1.0"/>
    <path d="M 111.79908752441406 69.19847106933594 C 111.79908752441406 69.19847106933594 111.79908752441406 69.19847106933594 111.79908752441406 69.19847106933594 C 118.03082275390625 69.24860382080078 124.2216796875 69.77537536621094 130.34930419921875 70.93379211425781 C 132.4609832763672 71.33330535888672 135.4434356689453 71.51763153076172 137.35768127441406 72.51409149169922 C 138.9194793701172 73.32622528076172 140.44656372070312 75.25358581542969 141.62425231933594 76.53541564941406 C 145.2915802001953 80.5281982421875 148.14830017089844 85.25212860107422 149.96383666992188 90.36168670654297 C 151.50479125976562 94.70076751708984 152.28762817382812 99.29821014404297 152.286865234375 103.90260314941406 C 152.2837677001953 125.96818542480469 133.86390686035156 144.39422607421875 111.79600524902344 144.39422607421875 C 89.10724639892578 144.39422607421875 70.44828796386719 124.96015167236328 71.33523559570312 102.29684448242188 C 71.51725769042969 97.63924407958984 72.51139831542969 93.02251434326172 74.27140045166016 88.70657348632812 C 76.1640625 84.06285858154297 78.932861328125 79.78779602050781 82.3780517578125 76.14515686035156 C 83.29893493652344 75.17183685302734 84.46044158935547 73.72650909423828 85.63429260253906 73.05860137939453 C 87.21612548828125 72.1585464477539 89.6155014038086 71.82459259033203 91.37319946289062 71.38111877441406 C 97.99441528320312 69.71366882324219 104.99508666992188 69.25091552734375 111.79908752441406 69.19847106933594 C 111.79908752441406 69.19847106933594 111.79908752441406 69.19847106933594 111.79908752441406 69.19847106933594" stroke-width="0.0" fill="rgb(254, 254, 254)" opacity="1.0"/>
    <path d="M 106.586181640625 69.3465576171875 C 94.80450439453125 81.12823486328125 83.02204895019531 92.909912109375 71.24037170410156 104.69159698486328 C 71.465576171875 101.87805938720703 71.48100280761719 99.12930297851562 71.9576416015625 96.33197021484375 C 80.69517517089844 87.59442901611328 89.4327163696289 78.85765838623047 98.17025756835938 70.12012481689453 C 100.96836853027344 69.75146484375 103.76879119873047 69.51237487792969 106.586181640625 69.3465576171875 C 106.586181640625 69.3465576171875 106.586181640625 69.3465576171875 106.586181640625 69.3465576171875" stroke-width="0.0" fill="rgb(254, 196, 187)" opacity="1.0"/>
    <path d="M 120.35923767089844 69.53010559082031 C 114.37199401855469 75.5173568725586 108.38475036621094 81.50460815429688 102.39749908447266 87.49185180664062 C 105.42235565185547 86.00873565673828 109.04031372070312 84.72767639160156 112.448486328125 85.07319641113281 C 117.36214447021484 80.16030883789062 122.27503204345703 75.24665069580078 127.1886978149414 70.33375549316406 C 124.91812133789062 69.99826049804688 122.6452407836914 69.73757934570312 120.35923767089844 69.53010559082031 C 120.35923767089844 69.53010559082031 120.35923767089844 69.53010559082031 120.35923767089844 69.53010559082031" stroke-width="0.0" fill="rgb(254, 196, 186)" opacity="1.0"/>
    <path d="M 147.81512451171875 85.25984191894531 C 142.0623321533203 91.01339721679688 136.30877685546875 96.76695251464844 130.5559844970703 102.52051544189453 C 130.87606811523438 105.80374145507812 130.1819305419922 108.80546569824219 128.89317321777344 111.815673828125 C 135.94552612304688 104.76332092285156 142.99786376953125 97.71173858642578 150.0502166748047 90.65939331054688 C 149.38925170898438 88.8130111694336 148.67044067382812 87.02523803710938 147.81512451171875 85.25984191894531 C 147.81512451171875 85.25984191894531 147.81512451171875 85.25984191894531 147.81512451171875 85.25984191894531" stroke-width="0.0" fill="rgb(254, 196, 187)" opacity="1.0"/>
    <path d="M 138.27932739257812 73.20359802246094 C 133.1520233154297 78.33089447021484 128.0247344970703 83.45819091796875 122.89820861816406 88.584716796875 C 124.34585571289062 89.73157501220703 125.56906127929688 90.94784545898438 126.73982238769531 92.37620544433594 C 131.86172485351562 87.2535400390625 136.98440551757812 82.13163757324219 142.10629272460938 77.00973510742188 C 140.88616943359375 75.67315673828125 139.626708984375 74.41215515136719 138.27932739257812 73.20359802246094 C 138.27932739257812 73.20359802246094 138.27932739257812 73.20359802246094 138.27932739257812 73.20359802246094" stroke-width="0.0" fill="rgb(255, 197, 187)" opacity="1.0"/>
    <path d="M 152.286865234375 102.38477325439453 C 138.2608184814453 116.41080474853516 124.23478698730469 130.43760681152344 110.2087631225586 144.46363830566406 C 112.95906066894531 144.3703155517578 115.67695617675781 144.30398559570312 118.4048843383789 143.90292358398438 C 129.49783325195312 132.8107452392578 140.5900115966797 121.71856689453125 151.68218994140625 110.62639617919922 C 152.10638427734375 107.87378692626953 152.286865234375 105.16899871826172 152.286865234375 102.38477325439453 C 152.286865234375 102.38477325439453 152.286865234375 102.38477325439453 152.286865234375 102.38477325439453" stroke-width="0.0" fill="rgb(254, 196, 187)" opacity="1.0"/>
    <path d="M 95.50788879394531 94.37760925292969 C 88.12081146240234 101.76544952392578 80.73297119140625 109.1532974243164 73.34589385986328 116.54037475585938 C 73.98371887207031 118.40680694580078 74.68710327148438 120.21231842041016 75.52237701416016 122.00007629394531 C 81.33686828613281 116.18482971191406 87.15211486816406 110.3703384399414 92.96659851074219 104.55585479736328 C 92.6048812866211 100.9911117553711 93.85662841796875 97.47034454345703 95.50788879394531 94.37760925292969 C 95.50788879394531 94.37760925292969 95.50788879394531 94.37760925292969 95.50788879394531 94.37760925292969" stroke-width="0.0" fill="rgb(254, 196, 187)" opacity="1.0"/>
    <path d="M 111.79600524902344 85.00764465332031 C 111.79600524902344 85.00764465332031 111.79600524902344 85.00764465332031 111.79600524902344 85.00764465332031 C 108.20196533203125 85.14955139160156 104.81846618652344 85.92312622070312 101.7319107055664 87.84200286865234 C 99.68268585205078 89.11688232421875 97.88797760009766 90.79435729980469 96.47427368164062 92.7502670288086 C 95.04281616210938 94.73161315917969 94.00701904296875 96.99139404296875 93.4355239868164 99.36763000488281 C 90.61273956298828 111.09917449951172 99.68499755859375 122.79756164550781 111.79600524902344 122.79756164550781 C 123.90624237060547 122.79756164550781 132.97772216796875 111.09840393066406 130.1557159423828 99.36763000488281 C 129.58421325683594 96.99139404296875 128.54763793945312 94.73161315917969 127.11620330810547 92.7502670288086 C 125.70248413085938 90.79435729980469 123.90855407714844 89.11688232421875 121.85855865478516 87.84200286865234 C 118.77276611328125 85.92312622070312 115.3892822265625 85.14955139160156 111.79600524902344 85.00764465332031 C 111.79600524902344 85.00764465332031 111.79600524902344 85.00764465332031 111.79600524902344 85.00764465332031" stroke-width="0.0" fill="rgb(38, 90, 165)" opacity="1.0"/>
    <path d="M 111.79600524902344 90.40641784667969 C 111.79600524902344 90.40641784667969 111.79600524902344 90.40641784667969 111.79600524902344 90.40641784667969 C 114.94426727294922 90.58457946777344 117.82181549072266 91.36277770996094 120.31836700439453 93.38114929199219 C 121.46598815917969 94.30896759033203 122.4562759399414 95.42960357666016 123.23832702636719 96.68135070800781 C 128.75743103027344 105.51683807373047 122.22644805908203 117.3972396850586 111.79600524902344 117.3987808227539 C 101.35321807861328 117.40109252929688 94.82532501220703 105.51143646240234 100.3529052734375 96.66668701171875 C 101.13418579101562 95.41571807861328 102.125244140625 94.29662322998047 103.27287292480469 93.37112426757812 C 105.77019500732422 91.3558349609375 108.64928436279297 90.58381652832031 111.79600524902344 90.40641784667969 C 111.79600524902344 90.40641784667969 111.79600524902344 90.40641784667969 111.79600524902344 90.40641784667969" stroke-width="0.0" fill="rgb(254, 254, 254)" opacity="1.0"/>
  </g>
</svg>
