<?xml version="1.0" ?>
<svg xmlns="http://www.w3.org/2000/svg" version="1.1" width="224" height="224">
  <defs/>
  <g>
    <path d="M 101.95330810546875 192.64688110351562 C 102.90620422363281 192.64688110351562 103.85910034179688 192.64688110351562 104.81199645996094 192.64688110351562 C 106.61318969726562 193.39300537109375 106.616455078125 194.76025390625 104.81199645996094 195.5055694580078 C 103.85910034179688 195.5055694580078 102.90620422363281 195.5055694580078 101.95330810546875 195.5055694580078 C 100.14966583251953 194.76025390625 100.1529312133789 193.39300537109375 101.95330810546875 192.64688110351562 C 101.95330810546875 192.64688110351562 101.95330810546875 192.64688110351562 101.95330810546875 192.64688110351562" stroke-width="0.0" fill="rgb(38, 50, 56)" opacity="1.0"/>
    <path d="M 109.8183822631836 43.91157913208008 C 109.8183822631836 43.91157913208008 109.8183822631836 43.91157913208008 109.8183822631836 43.91157913208008 C 120.27982330322266 44.036617279052734 130.53369140625 46.21455001831055 139.99237060546875 50.745304107666016 C 167.36241149902344 63.855403900146484 183.50936889648438 93.98198699951172 179.17881774902344 124.03338623046875 C 178.17445373535156 131.0035858154297 176.10438537597656 137.81280517578125 173.0618133544922 144.16436767578125 C 169.3997802734375 151.8087921142578 164.34109497070312 158.76918029785156 158.215087890625 164.62631225585938 C 152.08010864257812 170.492431640625 144.88677978515625 175.23974609375 137.06912231445312 178.55201721191406 C 128.46852111816406 182.19525146484375 119.15775299072266 184.06753540039062 109.8183822631836 184.06753540039062 C 100.47982788085938 184.06753540039062 91.16824340820312 182.19525146484375 82.5676498413086 178.55201721191406 C 74.75078582763672 175.23974609375 67.55747985839844 170.492431640625 61.42167282104492 164.62631225585938 C 55.29566955566406 158.76918029785156 50.23698425292969 151.8087921142578 46.574951171875 144.16436767578125 C 43.532379150390625 137.81280517578125 41.46232604980469 131.0035858154297 40.45793914794922 124.03338623046875 C 36.12822723388672 93.98198699951172 52.27435302734375 63.855403900146484 79.64440155029297 50.745304107666016 C 89.10308837890625 46.21455001831055 99.35694122314453 44.036617279052734 109.8183822631836 43.91157913208008 C 109.8183822631836 43.91157913208008 109.8183822631836 43.91157913208008 109.8183822631836 43.91157913208008" stroke-width="0.0" fill="rgb(38, 50, 56)" opacity="1.0"/>
    <path d="M 162.73358154296875 33.8988037109375 C 166.54763793945312 33.8988037109375 170.36166381835938 33.8988037109375 174.1757049560547 33.8988037109375 C 175.97772216796875 34.64575958251953 175.97772216796875 36.01299285888672 174.1757049560547 36.760765075683594 C 170.36166381835938 36.760765075683594 166.54763793945312 36.760765075683594 162.73358154296875 36.760765075683594 C 160.93157958984375 36.012176513671875 160.93157958984375 34.64575958251953 162.73358154296875 33.8988037109375 C 162.73358154296875 33.8988037109375 162.73358154296875 33.8988037109375 162.73358154296875 33.8988037109375" stroke-width="0.0" fill="rgb(38, 50, 56)" opacity="1.0"/>
    <path d="M 109.8183822631836 32.469459533691406 C 109.8183822631836 32.469459533691406 109.8183822631836 32.469459533691406 109.8183822631836 32.469459533691406 C 111.27715301513672 33.073394775390625 111.98078918457031 34.98082733154297 109.8183822631836 35.328155517578125 C 107.65025329589844 35.67547607421875 105.24676513671875 35.428672790527344 103.04104614257812 35.61744689941406 C 99.180419921875 35.94843292236328 95.34513854980469 36.56462860107422 91.57604217529297 37.4627685546875 C 79.04373168945312 40.44976806640625 67.3343734741211 46.57822036743164 57.696712493896484 55.12242126464844 C 46.48750305175781 65.05918884277344 38.20481872558594 78.15702819824219 34.121910095214844 92.57553100585938 C 32.46128845214844 98.43756103515625 31.493675231933594 104.4924545288086 31.233802795410156 110.57923126220703 C 31.180679321289062 111.80672454833984 31.871246337890625 115.41971588134766 29.727630615234375 115.41889953613281 C 28.0 115.41808319091797 28.294204711914062 113.32596588134766 28.316261291503906 112.28643798828125 C 28.362030029296875 110.0406723022461 28.500144958496094 107.79654693603516 28.730606079101562 105.56222534179688 C 29.899253845214844 94.23369598388672 33.480377197265625 83.19610595703125 39.176513671875 73.33534240722656 C 53.73883819580078 48.12688446044922 80.83184051513672 32.766929626464844 109.8183822631836 32.469459533691406 C 109.8183822631836 32.469459533691406 109.8183822631836 32.469459533691406 109.8183822631836 32.469459533691406" stroke-width="0.0" fill="rgb(39, 51, 57)" opacity="1.0"/>
    <path d="M 115.53984832763672 32.469459533691406 C 116.49274444580078 32.469459533691406 117.44564819335938 32.469459533691406 118.39854431152344 32.469459533691406 C 120.2030029296875 33.215599060058594 120.20545196533203 34.58283233642578 118.39854431152344 35.328155517578125 C 117.44564819335938 35.328155517578125 116.49274444580078 35.328155517578125 115.53984832763672 35.328155517578125 C 113.73621368408203 34.58283233642578 113.73866271972656 33.215599060058594 115.53984832763672 32.469459533691406 C 115.53984832763672 32.469459533691406 115.53984832763672 32.469459533691406 115.53984832763672 32.469459533691406" stroke-width="0.0" fill="rgb(39, 51, 57)" opacity="1.0"/>
    <path d="M 189.9083251953125 112.55694580078125 C 189.9083251953125 112.55694580078125 189.9083251953125 112.55694580078125 189.9083251953125 112.55694580078125 C 190.24501037597656 112.69668579101562 190.66098022460938 112.71794128417969 190.91925048828125 112.97618865966797 C 191.55995178222656 113.6185302734375 191.3343963623047 115.01436614990234 191.32049560546875 115.69185638427734 C 191.28616333007812 117.3802719116211 191.19873046875 119.0670394897461 191.06060791015625 120.74891662597656 C 190.47549438476562 127.84660339355469 188.9537811279297 134.86257934570312 186.53884887695312 141.56309509277344 C 178.7432403564453 163.18878173828125 161.7006072998047 180.9048309326172 140.4050750732422 189.55526733398438 C 132.80886840820312 192.64035034179688 124.74928283691406 194.5575714111328 116.57855987548828 195.23098754882812 C 114.46028137207031 195.40586853027344 111.92930603027344 195.82266235351562 109.8183822631836 195.5088348388672 C 108.66934967041016 195.33804321289062 107.8136978149414 194.05987548828125 108.80746459960938 193.0661163330078 C 109.4391860961914 192.43357849121094 110.8652572631836 192.6419677734375 111.52640533447266 192.62808227539062 C 113.21890258789062 192.5921173095703 114.9097671508789 192.50140380859375 116.59571838378906 192.35757446289062 C 122.08673095703125 191.88685607910156 127.52543640136719 190.83670043945312 132.7949676513672 189.2242889404297 C 148.647705078125 184.37399291992188 162.74993896484375 174.42251586914062 172.71121215820312 161.18002319335938 C 180.16848754882812 151.26614379882812 185.22882080078125 139.61317443847656 187.33566284179688 127.38487243652344 C 187.90444946289062 124.0824203491211 188.26077270507812 120.74401092529297 188.40377807617188 117.39579772949219 C 188.4879608154297 115.43606567382812 187.8366241455078 113.41504669189453 189.9083251953125 112.55694580078125 C 189.9083251953125 112.55694580078125 189.9083251953125 112.55694580078125 189.9083251953125 112.55694580078125" stroke-width="0.0" fill="rgb(38, 50, 56)" opacity="1.0"/>
    <path d="M 182.755859375 52.49092102050781 C 186.569091796875 52.49092102050781 190.3831329345703 52.49092102050781 194.19717407226562 52.49092102050781 C 195.99835205078125 53.237876892089844 196.0 54.60429382324219 194.19717407226562 55.35042953491211 C 190.3831329345703 55.35042953491211 186.569091796875 55.35042953491211 182.755859375 55.35042953491211 C 180.9530487060547 54.60429382324219 180.95468139648438 53.237876892089844 182.755859375 52.49092102050781 C 182.755859375 52.49092102050781 182.755859375 52.49092102050781 182.755859375 52.49092102050781" stroke-width="0.0" fill="rgb(38, 50, 56)" opacity="1.0"/>
    <path d="M 109.8183822631836 46.77027130126953 C 109.8183822631836 46.77027130126953 109.8183822631836 46.77027130126953 109.8183822631836 46.77027130126953 C 99.86935424804688 46.894493103027344 90.12300109863281 48.939212799072266 81.11051940917969 53.21335983276367 C 55.12160110473633 65.53809356689453 39.54181671142578 93.86022186279297 43.12376403808594 122.40953826904297 C 44.00556182861328 129.4312286376953 46.01023864746094 136.30335998535156 49.042999267578125 142.69741821289062 C 52.459861755371094 149.90380859375 57.16958999633789 156.48336791992188 62.8739013671875 162.05609130859375 C 68.96803283691406 168.00885009765625 76.18504333496094 172.79702758789062 84.04930114746094 176.07333374023438 C 92.19631958007812 179.46731567382812 100.99468994140625 181.20883178710938 109.8183822631836 181.20883178710938 C 118.64207458496094 181.20883178710938 127.44044494628906 179.46731567382812 135.58583068847656 176.0741424560547 C 143.45091247558594 172.7978515625 150.6679229736328 168.00965881347656 156.76205444335938 162.05691528320312 C 162.4663543701172 156.48501586914062 167.17608642578125 149.90463256835938 170.59376525878906 142.69906616210938 C 173.62652587890625 136.30418395996094 175.63201904296875 129.43203735351562 176.51300048828125 122.40953826904297 C 180.09494018554688 93.86185455322266 164.51597595214844 65.53890991210938 138.5286865234375 53.21417236328125 C 129.51541137695312 48.939212799072266 119.76823425292969 46.894493103027344 109.8183822631836 46.77027130126953 C 109.8183822631836 46.77027130126953 109.8183822631836 46.77027130126953 109.8183822631836 46.77027130126953" stroke-width="0.0" fill="rgb(254, 254, 254)" opacity="1.0"/>
    <path d="M 168.45423889160156 28.177337646484375 C 168.45423889160156 28.177337646484375 168.45423889160156 28.177337646484375 168.45423889160156 28.177337646484375 C 169.0769805908203 28.435585021972656 169.62615966796875 28.98394775390625 169.8843994140625 29.60668182373047 C 169.8843994140625 33.42072296142578 169.8843994140625 37.234764099121094 169.8843994140625 41.048805236816406 C 169.1382598876953 42.851627349853516 167.7718505859375 42.84999465942383 167.02490234375 41.048805236816406 C 167.02490234375 37.234764099121094 167.02490234375 33.42072296142578 167.02490234375 29.60668182373047 C 167.28314208984375 28.984764099121094 167.83233642578125 28.435585021972656 168.45423889160156 28.177337646484375 C 168.45423889160156 28.177337646484375 168.45423889160156 28.177337646484375 168.45423889160156 28.177337646484375" stroke-width="0.0" fill="rgb(38, 50, 56)" opacity="1.0"/>
    <path d="M 188.4765167236328 46.77027130126953 C 188.4765167236328 46.77027130126953 188.4765167236328 46.77027130126953 188.4765167236328 46.77027130126953 C 189.10006713867188 47.02770233154297 189.6500701904297 47.576881408691406 189.9083251953125 48.199615478515625 C 189.9083251953125 52.01365661621094 189.9083251953125 55.826881408691406 189.9083251953125 59.64091873168945 C 189.15972900390625 61.44210433959961 187.79412841796875 61.44374465942383 187.04718017578125 59.64091873168945 C 187.04718017578125 55.826881408691406 187.04718017578125 52.01365661621094 187.04718017578125 48.199615478515625 C 187.305419921875 47.576881408691406 187.8546142578125 47.02851867675781 188.4765167236328 46.77027130126953 C 188.4765167236328 46.77027130126953 188.4765167236328 46.77027130126953 188.4765167236328 46.77027130126953" stroke-width="0.0" fill="rgb(38, 50, 56)" opacity="1.0"/>
    <path d="M 109.8183822631836 55.352882385253906 C 109.8183822631836 55.352882385253906 109.8183822631836 55.352882385253906 109.8183822631836 55.352882385253906 C 118.61919403076172 55.4779167175293 127.21897888183594 57.292999267578125 135.17230224609375 61.12174987792969 C 157.99688720703125 72.1119384765625 171.45431518554688 97.25665283203125 167.86093139648438 122.344970703125 C 167.0175323486328 128.233154296875 165.265380859375 133.9832305908203 162.6853790283203 139.34266662597656 C 159.70327758789062 145.5364990234375 155.62362670898438 151.1917724609375 150.69815063476562 155.9864959716797 C 145.3852996826172 161.1595916748047 139.09912109375 165.3193359375 132.25070190429688 168.16494750976562 C 125.1570816040039 171.11270141601562 117.49876403808594 172.62542724609375 109.8183822631836 172.62542724609375 C 102.1388168334961 172.62542724609375 94.47968292236328 171.11270141601562 87.38689422607422 168.16494750976562 C 80.5384521484375 165.3193359375 74.25145721435547 161.1595916748047 68.93861389160156 155.9864959716797 C 64.01394653320312 151.1917724609375 59.934303283691406 145.5364990234375 56.952213287353516 139.34266662597656 C 54.371376037597656 133.9832305908203 52.619224548339844 128.233154296875 51.775840759277344 122.344970703125 C 48.18327331542969 97.25665283203125 61.63987350463867 72.1119384765625 84.46527099609375 61.12174987792969 C 92.41860961914062 57.292999267578125 101.01757049560547 55.4779167175293 109.8183822631836 55.352882385253906 C 109.8183822631836 55.352882385253906 109.8183822631836 55.352882385253906 109.8183822631836 55.352882385253906" stroke-width="0.0" fill="rgb(39, 50, 56)" opacity="1.0"/>
    <path d="M 109.8183822631836 58.21157455444336 C 109.8183822631836 58.21157455444336 109.8183822631836 58.21157455444336 109.8183822631836 58.21157455444336 C 101.52997589111328 58.335792541503906 93.4368896484375 60.01766586303711 85.92975616455078 63.589805603027344 C 63.94529342651367 74.05206298828125 51.027252197265625 98.28555297851562 54.669677734375 122.36949157714844 C 55.48118591308594 127.73628234863281 57.08787536621094 132.97720336914062 59.420265197753906 137.878173828125 C 62.386009216308594 144.11123657226562 66.51876831054688 149.7763214111328 71.53414916992188 154.51710510253906 C 76.56096649169922 159.2677001953125 82.46467590332031 163.07928466796875 88.87181091308594 165.68463134765625 C 95.5093994140625 168.38397216796875 102.65449523925781 169.7667236328125 109.8183822631836 169.7667236328125 C 116.98226928710938 169.7667236328125 124.12736511230469 168.38397216796875 130.76495361328125 165.68463134765625 C 137.1728973388672 163.07928466796875 143.0758056640625 159.2677001953125 148.1026153564453 154.51710510253906 C 153.11880493164062 149.7763214111328 157.25074768066406 144.11123657226562 160.21731567382812 137.878173828125 C 162.54888916015625 132.97720336914062 164.15557861328125 127.73628234863281 164.9670867919922 122.36949157714844 C 168.61033630371094 98.28555297851562 155.69146728515625 74.05206298828125 133.70700073242188 63.589805603027344 C 126.19987487792969 60.01766586303711 118.1067886352539 58.335792541503906 109.8183822631836 58.21157455444336 C 109.8183822631836 58.21157455444336 109.8183822631836 58.21157455444336 109.8183822631836 58.21157455444336" stroke-width="0.0" fill="rgb(254, 254, 254)" opacity="1.0"/>
    <path d="M 111.93093872070312 86.17901611328125 C 111.93093872070312 86.17901611328125 111.93093872070312 86.17901611328125 111.93093872070312 86.17901611328125 C 112.3550796508789 86.4691390991211 113.0031509399414 86.5761947631836 113.203369140625 87.04937744140625 C 113.40441131591797 87.52336883544922 113.03175354003906 88.06438446044922 112.94512176513672 88.57107543945312 C 109.64431762695312 92.20368194580078 106.34268188476562 95.83547973632812 103.04104614257812 99.46809387207031 C 102.94461059570312 99.95271301269531 102.84735870361328 100.43814849853516 102.75092315673828 100.92359161376953 C 104.48101806640625 105.68153381347656 106.21192169189453 110.44029998779297 107.94200897216797 115.19824981689453 C 107.87581634521484 115.64691162109375 107.80879974365234 116.09557342529297 107.74178314208984 116.54423522949219 C 105.62923431396484 119.36042785644531 103.51667785644531 122.17744445800781 101.40412139892578 124.99363708496094 C 100.88681030273438 125.25270080566406 100.30084991455078 125.57141876220703 99.7320556640625 125.46273040771484 C 94.68399047851562 123.4425277709961 89.6351089477539 121.42313385009766 84.58622741699219 119.40292358398438 C 83.18384552001953 118.05939483642578 82.64773559570312 115.98851776123047 81.96208190917969 114.19304656982422 C 80.04158020019531 109.1629638671875 78.64492797851562 103.98413848876953 77.6331787109375 98.6990737915039 C 77.54410552978516 98.2054672241211 77.45420837402344 97.71185302734375 77.36512756347656 97.21824645996094 C 77.35205078125 94.87277221679688 77.97805786132812 93.73109436035156 79.95985412597656 92.47745513916016 C 80.70680236816406 92.17098999023438 81.45457458496094 91.86453247070312 82.20234680175781 91.55806732177734 C 91.73948669433594 87.789794921875 101.67789459228516 85.98941802978516 111.93093872070312 86.17901611328125 C 111.93093872070312 86.17901611328125 111.93093872070312 86.17901611328125 111.93093872070312 86.17901611328125" stroke-width="0.0" fill="rgb(40, 51, 57)" opacity="1.0"/>
    <path d="M 119.27952575683594 86.76498413085938 C 119.27952575683594 86.76498413085938 119.27952575683594 86.76498413085938 119.27952575683594 86.76498413085938 C 125.53546142578125 87.65167999267578 131.5552215576172 89.23548126220703 137.43032836914062 91.56133270263672 C 138.1781005859375 91.8677978515625 138.92587280273438 92.17426300048828 139.67364501953125 92.48072814941406 C 141.6554412841797 93.72946166992188 142.28225708007812 94.87604522705078 142.2708282470703 97.21824645996094 C 142.18092346191406 97.7126693725586 142.0902099609375 98.20791625976562 142.00030517578125 98.70233917236328 C 140.71888732910156 105.3227767944336 138.80084228515625 111.7715835571289 136.0859832763672 117.95069885253906 C 135.56048583984375 119.14631652832031 134.55612182617188 122.90069580078125 132.86524963378906 122.95463562011719 C 132.378173828125 122.97016143798828 132.01205444335938 122.48226928710938 131.58544921875 122.24691009521484 C 129.9844970703125 119.50263214111328 128.3843536376953 116.75835418701172 126.78338623046875 114.014892578125 C 126.3314437866211 113.77953338623047 125.8795166015625 113.54498291015625 125.42759704589844 113.30961608886719 C 120.91153717041016 113.71986389160156 116.39549255371094 114.130126953125 111.87945556640625 114.54037475585938 C 111.31555938720703 114.40062713623047 110.77536010742188 114.05657196044922 110.4084243774414 113.60626983642578 C 108.94966125488281 109.59364318847656 107.49008178710938 105.5802001953125 106.03131103515625 101.56757354736328 C 106.12611389160156 101.08458709716797 106.22090911865234 100.60160064697266 106.31488800048828 100.11861419677734 C 110.22291564941406 95.82077026367188 114.13011932373047 91.5229263305664 118.03732299804688 87.22508239746094 C 118.45166778564453 87.07144165039062 118.86518096923828 86.91861724853516 119.27952575683594 86.76498413085938 C 119.27952575683594 86.76498413085938 119.27952575683594 86.76498413085938 119.27952575683594 86.76498413085938" stroke-width="0.0" fill="rgb(39, 51, 56)" opacity="1.0"/>
    <path d="M 123.86421203613281 116.32113647460938 C 123.86421203613281 116.32113647460938 123.86421203613281 116.32113647460938 123.86421203613281 116.32113647460938 C 124.31941986083984 116.5564956665039 124.77462005615234 116.79104614257812 125.22982025146484 117.02640533447266 C 127.09801483154297 120.23078918457031 128.967041015625 123.43598175048828 130.83523559570312 126.64036560058594 C 130.8188934326172 129.17788696289062 128.8207550048828 131.35255432128906 127.3864974975586 133.39401245117188 C 124.05299377441406 138.14215087890625 120.23650360107422 142.48330688476562 116.068603515625 146.5122833251953 C 114.96615600585938 147.55426025390625 113.86288452148438 148.5970458984375 112.76042938232422 149.63900756835938 C 110.53182983398438 151.06265258789062 109.10411834716797 151.0585479736328 106.8730697631836 149.64230346679688 C 105.76979064941406 148.60031127929688 104.66734313964844 147.55752563476562 103.56407928466797 146.5155487060547 C 98.59037780761719 141.71347045898438 94.1356201171875 136.4471893310547 90.3763427734375 130.63583374023438 C 89.48800659179688 129.26287841796875 85.56771850585938 124.23851013183594 89.66288757324219 124.51473999023438 C 93.3437271118164 125.98822021484375 97.02455139160156 127.46086883544922 100.70538330078125 128.93435668945312 C 101.28398895263672 128.9572296142578 101.8960952758789 128.7847900390625 102.37744903564453 128.4619903564453 C 104.98361206054688 124.98709869384766 107.5889663696289 121.51303100585938 110.19512939453125 118.03814697265625 C 110.53346252441406 117.85017395019531 110.8718032836914 117.6613998413086 111.20932006835938 117.47343444824219 C 115.42788696289062 117.09014892578125 119.64564514160156 116.70768737792969 123.86421203613281 116.32440185546875 C 123.86421203613281 116.32440185546875 123.86421203613281 116.32113647460938 123.86421203613281 116.32113647460938" stroke-width="0.0" fill="rgb(40, 52, 58)" opacity="1.0"/>
    <path d="M 111.88925170898438 87.60836791992188 C 111.88925170898438 87.60918426513672 111.88925170898438 87.61000061035156 111.88925170898438 87.61163330078125 C 101.83644104003906 87.4228515625 92.09416961669922 89.18644714355469 82.7449951171875 92.88607788085938 C 81.99640655517578 93.19171905517578 81.24700164794922 93.49818420410156 80.4984130859375 93.80464935302734 C 79.12872314453125 94.77715301513672 78.8516845703125 95.28221130371094 78.7691421508789 96.95999908447266 C 78.8590316772461 97.45360565185547 78.94811248779297 97.94721984863281 79.03719329833984 98.44001007080078 C 80.34068298339844 105.22388458251953 82.35762023925781 111.74378967285156 85.11579895019531 118.07655334472656 C 90.16549682617188 120.09757995605469 95.21519470214844 122.11778259277344 100.264892578125 124.13799285888672 C 102.37826538085938 121.32261657714844 104.49163818359375 118.50641632080078 106.60501098632812 115.69022369384766 C 104.87492370605469 110.93064880371094 103.14483642578125 106.17024230957031 101.41393280029297 101.41065979003906 C 101.33792877197266 100.42671203613281 101.542236328125 99.38719177246094 101.98517608642578 98.50457000732422 C 105.28681182861328 94.87277221679688 108.58763122558594 91.24016571044922 111.88925170898438 87.60836791992188" stroke-width="0.0" fill="rgb(38, 50, 56)" opacity="1.0"/>
    <path d="M 119.09727478027344 88.18206024169922 C 115.18925476074219 92.48072814941406 111.28205108642578 96.77857208251953 107.37484741210938 101.07640838623047 C 108.83361053466797 105.08904266357422 110.29319763183594 109.10166931152344 111.75196075439453 113.11429595947266 C 116.26473999023438 112.70486450195312 120.77751922607422 112.29542541503906 125.29029846191406 111.88599395751953 C 126.29549407958984 112.08131408691406 127.2794418334961 112.58799743652344 128.02149963378906 113.29327392578125 C 129.62246704101562 116.03755187988281 131.22341918945312 118.781005859375 132.8235626220703 121.5252914428711 C 136.44964599609375 114.16771697998047 139.03456115722656 106.4955062866211 140.5987548828125 98.44327545166016 C 140.68865966796875 97.95048522949219 140.77772521972656 97.45687866210938 140.86680603027344 96.96326446533203 C 140.78590393066406 95.28221130371094 140.5088653564453 94.77633666992188 139.13754272460938 93.80138397216797 C 138.39059448242188 93.49491882324219 137.64280700683594 93.1884536743164 136.89505004882812 92.8828125 C 131.13270568847656 90.60435485839844 125.23308563232422 89.04670715332031 119.09727478027344 88.18206024169922 C 119.09727478027344 88.18206024169922 119.09727478027344 88.18206024169922 119.09727478027344 88.18206024169922" stroke-width="0.0" fill="rgb(38, 50, 56)" opacity="1.0"/>
    <path d="M 123.99823760986328 117.74720764160156 C 119.77967071533203 118.1304931640625 115.56192016601562 118.5129623413086 111.34334564208984 118.896240234375 C 108.73799896240234 122.37113189697266 106.13264465332031 125.84519958496094 103.5264892578125 129.32008361816406 C 102.3079833984375 130.362060546875 101.75880432128906 130.5165252685547 100.17581176757812 130.26153564453125 C 96.49417114257812 128.78807067871094 92.81170654296875 127.3154067993164 89.13005065917969 125.84193420410156 C 93.37150573730469 133.10226440429688 98.49884796142578 139.63523864746094 104.54802703857422 145.47439575195312 C 105.65048217773438 146.51718139648438 106.7529296875 147.55996704101562 107.856201171875 148.60276794433594 C 109.52091217041016 149.5164337158203 110.11830139160156 149.515625 111.7838363647461 148.60276794433594 C 112.88710021972656 147.55996704101562 113.98954772949219 146.51718139648438 115.09282684326172 145.47439575195312 C 120.70722961425781 140.0454864501953 125.53301239013672 134.02491760253906 129.60693359375 127.36199188232422 C 127.73709106445312 124.15679168701172 125.86808776855469 120.95240783691406 123.99823760986328 117.74720764160156" stroke-width="0.0" fill="rgb(38, 50, 56)" opacity="1.0"/>
    <path d="M 108.67261505126953 89.0213623046875 C 108.67261505126953 89.0213623046875 108.67261505126953 89.0213623046875 108.67261505126953 89.0213623046875 C 99.8955078125 89.24691772460938 91.44937133789062 90.97373962402344 83.28764343261719 94.20999908447266 C 82.53987121582031 94.51646423339844 81.79209899902344 94.82210540771484 81.04432678222656 95.12857055664062 C 80.59729766845703 95.52901458740234 80.276123046875 96.11579132080078 80.1796875 96.70747375488281 C 80.26958465576172 97.20026397705078 80.3586654663086 97.69305419921875 80.44773864746094 98.1850357055664 C 81.68749237060547 104.66407775878906 83.59410095214844 110.90040588378906 86.18800354003906 116.96592712402344 C 90.71794128417969 118.77610778808594 95.24787902832031 120.5862808227539 99.7770004272461 122.39727783203125 C 101.5152587890625 120.07960510253906 103.25352478027344 117.76191711425781 104.99097442626953 115.4442367553711 C 103.3491439819336 110.92819213867188 101.70649719238281 106.41214752197266 100.06385803222656 101.89610290527344 C 99.74186706542969 99.98949432373047 99.89958953857422 99.1885986328125 100.92276763916016 97.54759216308594 C 103.50605010986328 94.70523834228516 106.0893325805664 91.86371612548828 108.67261505126953 89.0213623046875" stroke-width="0.0" fill="rgb(254, 214, 63)" opacity="1.0"/>
    <path d="M 119.64891052246094 89.70130920410156 C 116.10374450683594 93.600341796875 112.55938720703125 97.4993667602539 109.01422119140625 101.39840698242188 C 110.24988555908203 104.79483795166016 111.48554229736328 108.1904525756836 112.7220230102539 111.58606719970703 C 116.8686752319336 111.20850372314453 121.01532745361328 110.83094024658203 125.16280364990234 110.45337677001953 C 127.06777954101562 110.39534759521484 128.08851623535156 111.19461059570312 129.25634765625 112.57247161865234 C 130.40536499023438 114.54200744628906 131.5535888671875 116.51154327392578 132.70181274414062 118.48190307617188 C 135.67572021484375 111.96281433105469 137.8299560546875 105.21980285644531 139.19229125976562 98.1850357055664 C 139.2821807861328 97.69142150878906 139.37127685546875 97.19781494140625 139.46034240722656 96.7042007446289 C 139.3630828857422 96.11170196533203 139.040283203125 95.5249252319336 138.59243774414062 95.12529754638672 C 137.8446807861328 94.81884002685547 137.09689331054688 94.51319122314453 136.34913635253906 94.20672607421875 C 130.93576049804688 92.0655746459961 125.40470886230469 90.5749282836914 119.64891052246094 89.70130920410156 C 119.64891052246094 89.70130920410156 119.64891052246094 89.70130920410156 119.64891052246094 89.70130920410156" stroke-width="0.0" fill="rgb(63, 195, 254)" opacity="1.0"/>
    <path d="M 123.21942138671875 119.25010681152344 C 119.51406860351562 119.5876235961914 115.80872344970703 119.92432403564453 112.1033706665039 120.2618408203125 C 109.6238784790039 123.56592559814453 107.1443862915039 126.87083435058594 104.6648941040039 130.1757354736328 C 103.04104614257812 131.70233154296875 101.82826232910156 132.04229736328125 99.64706420898438 131.58872985839844 C 97.28933715820312 130.6456298828125 94.93243408203125 129.7025604248047 92.57552337646484 128.75946044921875 C 96.30865478515625 134.48338317871094 100.60731506347656 139.6875457763672 105.52381134033203 144.4348602294922 C 106.6270751953125 145.47683715820312 107.72953033447266 146.51963806152344 108.83279418945312 147.56161499023438 C 109.44163513183594 147.8035125732422 110.18940734863281 147.8035125732422 110.79824829101562 147.56161499023438 C 111.90233612060547 146.51963806152344 113.00642395019531 145.47683715820312 114.11050415039062 144.4348602294922 C 119.42662811279297 139.29281616210938 124.01949310302734 133.6146697998047 127.9381332397461 127.34237670898438 C 126.36577606201172 124.64468383789062 124.79259490966797 121.94779968261719 123.21942138671875 119.25010681152344" stroke-width="0.0" fill="rgb(76, 181, 171)" opacity="1.0"/>
  </g>
</svg>
