<?xml version="1.0" encoding="UTF-8"?>
<svg xmlns="http://www.w3.org/2000/svg" version="1.1" viewBox="0 0 224 224">
  <defs>
    <style>
      .cls-1 {
        fill: #f5c632;
        opacity: 1;
      }

      .cls-1, .cls-2, .cls-3, .cls-4, .cls-5, .cls-6, .cls-7, .cls-8, .cls-9, .cls-10, .cls-11, .cls-12, .cls-13, .cls-14, .cls-15, .cls-16, .cls-17, .cls-18, .cls-19, .cls-20, .cls-21, .cls-22, .cls-23, .cls-24, .cls-25, .cls-26, .cls-27, .cls-28, .cls-29, .cls-30 {
        isolation: isolate;
      }

      .cls-2 {
        fill: #244552;
        opacity: 1;
      }

      .cls-3 {
        fill: #f6c732;
        opacity: 1;
      }

      .cls-4 {
        fill: #fcfdfd;
        opacity: 1;
      }

      .cls-5 {
        fill: #28454a;
        opacity: 1;
      }

      .cls-6 {
        fill: #27484f;
        opacity: 1;
      }

      .cls-7 {
        fill: #f6c533;
        opacity: 1;
      }

      .cls-8 {
        opacity: 1;
      }

      .cls-8, .cls-9, .cls-10 {
        fill: #fbfefd;
      }

      .cls-9 {
        opacity: 1;
      }

      .cls-10 {
        opacity: 1;
      }

      .cls-11 {
        fill: #f5f8f9;
        opacity: 1;
      }

      .cls-12 {
        fill: #fcfdfb;
        opacity: 1;
      }

      .cls-13 {
        fill: #f5c533;
        opacity: 1;
      }

      .cls-14 {
        opacity: 1;
      }

      .cls-14, .cls-15 {
        fill: #f7c634;
      }

      .cls-15 {
        opacity: 1;
      }

      .cls-16 {
        fill: #254647;
        opacity: 1;
      }

      .cls-17 {
        fill: #f7c733;
        opacity: 1;
      }

      .cls-18 {
        fill: #f5c633;
        opacity: 1;
      }

      .cls-19 {
        fill: #fbfffe;
        opacity: 1;
      }

      .cls-20 {
        opacity: 1;
      }

      .cls-20, .cls-21 {
        fill: #fbfdfc;
      }

      .cls-21 {
        opacity: 1;
      }

      .cls-22 {
        fill: #f4f8f9;
        opacity: 1;
      }

      .cls-23 {
        opacity: 1;
      }

      .cls-23, .cls-24 {
        fill: #fafdfe;
      }

      .cls-24 {
        opacity: 1;
      }

      .cls-25 {
        fill: #f3f9f9;
        opacity: 1;
      }

      .cls-31 {
        fill: #082933;
      }

      .cls-32 {
        fill: #fed63f;
      }

      .cls-26 {
        fill: #fdfefe;
        opacity: 1;
      }

      .cls-33 {
        fill: #0a2b36;
      }

      .cls-27 {
        fill: #17344f;
        opacity: 1;
      }

      .cls-28 {
        fill: #f6fafa;
        opacity: 1;
      }

      .cls-29 {
        fill: #243e52;
        opacity: 1;
      }

      .cls-30 {
        fill: #fcfefd;
        opacity: 1;
      }

      .cls-34 {
        fill: #4db5ab;
      }
    </style>
  </defs>
  <!-- Generator: Adobe Illustrator 28.6.0, SVG Export Plug-In . SVG Version: 1.2.0 Build 709)  -->
  <g>
    <g id="_图层_1" data-name="图层_1">
      <g>
        <path class="cls-16" d="M101.6,194.8c-20.7-2.7-39.9-14.5-52.2-30.5-10.4-13.8-15.2-26.9-16.5-43.7-.8-24.2,7.2-44.5,23.6-61.2,27.5-27.7,70.4-31.3,101.5-8.4,14.6,11.3,26.3,27.3,30.6,44.8,3.2,8,3.4,31.4.1,39.9-7.3,27.7-28.8,49.5-56.5,57.4-6.9,2.3-23.8,3-30.7,1.8"/>
        <path class="cls-13" d="M98.9,191.5c-13.6-2.1-29.8-11-36.9-18.1l-2.4-2,3-3,3.6-3.3,4.8,3.5c9.5,7.6,22.6,13.5,33.8,14.4,6,.3,6.2,1.6,5.6,7.8,0,2.4-2.7,2.1-11.5.7"/>
        <path class="cls-18" d="M113.1,188.6v-5.1s5.4-.5,5.4-.5c11.3-.9,24.1-5.9,33.4-13.4,2.5-2.4,4.9-4.1,5.9-4.3.6.5,1.9,2.1,3.5,3.6l3.1,2.4-3.2,2.9c-10.1,9-24.5,15.8-38.4,17.7-10,1.3-9.9,1.5-9.8-3.3"/>
        <path class="cls-15" d="M53.8,165.6c-10-11.3-16.9-26.7-18-41.5-.5-6.8-.5-7.3,1.3-6.9.9.2,3,.5,4.5.4,2.5.1,3.1.2,3,3.4,1.3,14.9,8.2,29.1,16.1,37.9l3.8,4.7-3.4,2.5c-1.5,1.8-2.8,3.2-2.7,2.8-1.4,0-3-1.4-4.7-3.4"/>
        <path class="cls-1" d="M162.8,166.3l-3.2-3.2,4.4-5.3c4.6-5.4,10.2-15.7,11.9-22.1,1.1-1.6,1.9-6,2.7-10.2l.6-7.1,3-.7c5.9-.9,6.7-.7,6.1,4.8-.9,12.1-5.3,24.5-11.6,34-4.2,6.1-9.5,12.5-10.8,12.7-1,0-2.3-1.1-3.2-2.8"/>
        <path class="cls-3" d="M35.9,109.9c.4-13.7,7.5-32.3,18.8-44.9l2.8-3,3.7,3,3.3,3.3-2.8,2.7c-8,9-14.2,22.3-16.2,34.2-.6,4.7-1,8.2-1.1,8.4-1-.2-2.6,0-4,.4h-4.6c0,.1.1-4,.1-4"/>
        <path class="cls-7" d="M183.1,113.6l-3.9-.4-.7-5c-1.3-12.2-6.1-23.3-13.9-33.6l-5.1-6.3,3.2-3.5c1.8-1.3,3.1-2.8,3.7-2.9,0,0,2.6,2.8,5.5,6.6,9.2,11,15.6,27.3,16.1,40.5.6,5.8.5,5.6-4.9,4.7"/>
        <path class="cls-17" d="M62.8,63.3l-3.2-3.1,2.4-2.7c11.7-10.1,24.6-15.9,39.1-18,8.3-1,10-1,9.1,2.7.4,4.8,0,6-3.4,5.7-9.2-.2-25.4,5.7-34,12.7-2.4,2.2-4.9,4.1-5.7,5-1.8.8-1.8.3-4.4-2.3"/>
        <path class="cls-14" d="M154.1,63.4c-8.9-8.1-22.8-14.3-34.8-15.4l-6.7-.6.6-4.2-.2-4.8,2.7.4c12.7-.2,32,6.9,42.2,15.5,1.9,1.9,4.2,3.8,5.2,4.5,1.5,1.2,1.6,1.7-1.7,4-1.7,1.7-3.3,3.4-3.5,3.7-.6-.2-2.4-1.9-3.9-3.2"/>
        <path class="cls-29" d="M93.8,161.2c-1-1.3-.6-5,.4-4.6,1.4,0,2.1,3.2.9,4.7,0,.1-1,.2-1.3-.1"/>
        <path class="cls-27" d="M67.7,136.2c-1.6-1.8-.6-4.1,1.3-3.3,1.1-.3,2,.8,2,1.7-.3,1.9-2.3,2.7-3.3,1.6"/>
        <path class="cls-33" d="M154.1,135.9c-1.6-1.4-.8-3.3.8-3,1.7,0,2.1.6,1.6,1.5.2,2.2-1.5,2.7-2.4,1.5"/>
        <path class="cls-33" d="M66.1,97.6c0-.8.6-1.6,1.1-1.8,1.2-.6,3.8,1.2,3,1.9-.6,2.1-4.2,1.1-4.1,0"/>
        <path class="cls-31" d="M127.8,72.8c-.6-1.2,1.1-2.7,2.5-2.1,1.3.6,1.1,2.7-.5,3.2-.9.2-1.7-.7-1.9-1.1"/>
        <path class="cls-32" d="M100.4,161.8c-2.5-1.7-4.2-2.1-4-2.6.3-.6-.5-.6-1.3-2.3-3.1,1.7-10.7-3.5-11.6-6.8-2.3-2.6-2.3-2.3.9-5.1l3.3-3.1,4,3.3c1.6,1.3,6.1,3.4,9.2,4.2l5.3,1.5.4,6.1c.4,5.1.7,5.5-6.1,4.6"/>
        <path class="cls-32" d="M76,143.4c-2.4-1.7-4.5-5-5.3-6.4.9-1.3-.3-2.9-.6-4.2-2.9-1.9-4.9-7-5-9.6.4-2.7,1-2.8,3.1-2.3,1.3.4,3,.3,4.3.6,2.4-.3,3.6-.7,5,4.6.5,2.9,2.8,7.4,4.8,9.7l3.5,4.6-3.6,3.7-2.7,2.5-3.5-3.2"/>
        <path class="cls-26" d="M96.6,179.1c-25.8-7.3-45.7-28.3-49-55.3l-.2-5.1,4.2.6c2.1,0,6.6.7,9.5.8,5.4.3,5.5.3,5.6,3.2.3.9.6,3.4,1,5.4,1.1,2.5,1.7,3.6.5,3.6-2.8,1.1-2,4.6.7,4.8,1.7-1.1,3.2.5,3.9,2l2.7,3.5-3.5,7.5c-5.9,11.3-4.3,13.9,6.3,7l6.8-4.3,4.3,2.6c2.7.9,3.7,1.6,2.9,2.8.3,3.3,3,4.6,3.7,1.7.3-1.1,2-.3,6.2.5l5.3.8.2,5.1c0,.8.7,5.3,1,8.2l.7,6.4-3,.2c-1.5-.7-5.8-1.1-9.7-2"/>
        <path class="cls-12" d="M113.8,180.4c.9,1.4,1.5-18.4,3.7-21.1.2.2,4.5-4.2,9-9.1,8.4-7.9,8.8-7.5,8-3,3.6.2,5.8,0,1.2,3,0,.2,1.4.9,2.6,2.6,13.2,7.6,16.5,11.6,17.1,5.8-1.8-5.1-6.1-15.6-8.5-17.4,1.1,0,.1,1.7-2.4,4.1-1.8.3-1.8-.6-.9-4.6-3,1.3-5,.4-3.7-.5,0,.6,2.6-5.9,6.4-12.4l10.3-7.2,9.9-.6c4.4-.7,9.3-1,9.4-1.5.8.7.2,5.9-.9,11.3-3.8,17.2-15.6,33.3-30.9,42.1-9.5,6.6-28.3,10.1-30.4,8.4"/>
        <path class="cls-28" d="M71.4,157.5c0-.7,1.2-3.5,2.5-6.2l1.7-4.5,3.1,2.5c1.6,1.2,2,2.9,1.9,3.3-2.3,1.8-8.8,5.6-9.3,4.9"/>
        <path class="cls-11" d="M145.8,154.4l-3.8-2.7,2.4-2.1c3-3,3.6-2.8,4.6.8.7,1.7,1.6,3.8,2.2,5.1,1.3,2.5-.3,2.7-5.4-1.3"/>
        <path class="cls-24" d="M97.3,145.8c-9.2-5.1-9.3-5.1-1.7-12.1,3.5-3.7,6.7-6.5,6.8-6,0,.2.8,3.9,1.6,7.7.5,3.8,1.1,8.3,1.1,10,1.3,3.5-.2,3.2-7.9.3"/>
        <path class="cls-9" d="M118,147c.7-4.4,2.1-18.4,3.2-19.2,0-.8,3.3,2,6.9,6,7.4,7,7.1,6.4-.7,11.3-8.3,3.3-10,3.7-9.3,1.8"/>
        <path class="cls-30" d="M84.1,134.4c-1.5-2-3.2-5.5-3.8-8.1-1.3-3.5-1.6-3.7-.2-4.3,2,.1,19.3,1.9,20,3.2.4.2-12.4,12.7-13.1,13.1-.3-.3-1.7-1.8-2.9-3.9"/>
        <path class="cls-10" d="M130.1,132c-3.3-3.3-6.5-6.3-6.8-6.9.2-1.3,2.9-1.4,15.7-2.6l5.7-.8-1,3c-1,4.1-4.3,10.2-6.6,12.3-2,1.8-1.5,1.3-7.1-4.9"/>
        <path class="cls-4" d="M47.6,112.5c-.9-1.7,1.3-14.5,4.6-21.5,8.5-21.7,31.5-38.5,52-40l4.8-.9-.4,8.2c-.8,3.4-.9,7.6-1.6,10.9,2.1,2.5-16.9,20-19.6,18.8-.4-.2-4.9-3.5-2.6-3.8-.4-.4-.5-1.1,0-3,3.2-2.7-2-4.6-10.4-9.1-4.3-4.1-7.2-.7-4.6,5.2,2,2.9,3,7,4.4,9.7.8,1,1.2,2.1,3.5,1,2.6-.6,3-.2,2.9,2.5,1.5.3,2.4,1.4,2.1.9,1.7,1-14.4,18.9-15.7,19.3-5.2.6-21.6,2.1-19.3,1.9"/>
        <path class="cls-21" d="M164.5,111.4l-8.6-.7-7.2-7.9c-5-5.3-9.1-9.8-7.5-9.6-.6-3.4,5-6.8,4.2-4.4,2.6.4,4.2-.6,6.1-6.6,6.5-12,4.7-14.8-4.4-8.5-7.1,3.4-9.5,4.9-8.5,8.4,1.5-1.3,1.8.5,3.9,1.1-1.6,1.2-5.4,4.6-5.8,3.5,0-.4-5-4.4-12.8-6.7-9.9-9.6-6.9-10.7-9.3-25.2l-1.1-4.6,6.2.8c10.3.2,26.4,7.5,35.5,16.4,6,5.1,12.6,14,15.3,20.6,3.1,6.5,6,17.6,6.3,24.7,2,.6.5-.3-12.2-1.4"/>
        <path class="cls-19" d="M79.3,108.2c0-3.9,6-14.7,8-14.7,1.1.7,12.7,12.1,12.5,13-.3.7-3.6,1-7.6,1.6-3.2.2-7.8.9-10.1.8-2.4.6-3.1.6-2.7-.8"/>
        <path class="cls-8" d="M132.7,108c-4.8-.4-8.8-1.1-9-1.5-.4-.4,2.3-3.6,6.1-7.1l6.1-6.4,2.7,2.8c2,2.2,5.8,11.4,5.7,13.2.2.6-1.3.3-11.6-1"/>
        <path class="cls-20" d="M120.8,101.7c-1.1-3.5-2.3-14.5-2.7-17.3-1.1-2.2.9-1.6,8.6,1.4,9,5.4,9.2,4.3,1.3,12.1-6.6,6.2-7,6-7.2,3.8"/>
        <path class="cls-23" d="M95.5,97.3c-3-2.7-5.9-5.4-6-5.8.3-1.2,2.8-3.5,8-6,5.9-2.6,8.6-3.1,7.9-.5,0,1-.8,5.2-1.3,9.7-.7,4.9-1.3,8.1-2.4,9-.7-.2-3.4-3.4-6.2-6.5"/>
        <path class="cls-22" d="M74,79.7c-3-6.1-2.3-6.6,2-3.7,5.4,3.1,5.9,3.1,2.9,5.8-2.8,3.1-2.8,3.1-4.9-2"/>
        <path class="cls-25" d="M145.2,81.7c-3.4-2.5-3.3-2.7,2-5.3,3.1-1.6,4.9-2.6,5.2-2.3-.6,1-4.2,9.7-4.9,9.9,0,.5-1-.7-2.3-2.4"/>
        <path class="cls-34" d="M139.4,111.4c-14.6-1.3-17.8-1.1-17.5-4.5-3.9-2.4-4.7-6-5.8-16.7-1-5.4-1.3-12-2.1-14.1,0-1.8-.1-3.1-.5-3.8-.5-14.5-1.8-19.7-2.9-10.9-.4,3.1-.7,7.2-1.2,9.4,0,1.3,0,2.3,0,2.8-.7,1.7-.7,7.8-1.4,13.6-1.8,13.9-3.4,18.7-7.2,21.7-.9,1.6-11.5,2.2-30.4,4.2-14.7,1.4-18.3,1.2-24.4,2.5,6.4,1.5,9.2,1.1,13,1.9,3.8-.4,14.1.6,23.7,1.9,23.8,1.9,23,.7,25.7,29.7.3,3.1.8,5.7,1.4,7.9,0,7.1.5,12.9.9,14.5.8,4,.8,4.4,1.3,2.5.6-1.9,1.2-7.2,1.5-10.9.4-1.8.6-6,1.8-15.6,2.3-15.6,1.5-20.7,5.4-22.1,1.7-4.7,2.3-3.7,27.4-6.7,14-1,23.2-2.4,29.1-2.2-1.2-1.8-6.9-1.2-37.8-4.9Z"/>
        <path class="cls-32" d="M116.7,157.4c.1-4.7.4-6.8,1.9-6.7,2.3.2,11.2-3.7,14.4-6.4l3-2.2,3.2,3.2,2.8,3.4-3,2.7c-1.4,2.1-4.3,4-6.6,4.8-1.7,1-5.1,2.5-6.4,2.8-1.9.7-4.5,1.5-6,1.7l-3.6.5.4-3.9"/>
        <path class="cls-32" d="M140.7,143.9c-1.2-1.2-2.5-2.7-2.7-3.3-.8-.4,1.5-2.3,3.4-5.2,1.7-2.4,3.9-6.3,4.4-9.2,1-6,1.1-5.2,6.9-5.2,2.8-.4,5,0,4.4-1.2.6,2.4-.9,5.9-1.3,8.3-.8,4.5-2.6,7.8-5.2,11.5s-4.7,7-7.7,6.7c.4-.1-.7-1.2-2.2-2.4"/>
        <path class="cls-32" d="M66.3,106.6c-.2-2.5,1.1-4.9,2.3-7,1.8-3.2,4.5-12,8.5-12.9,1.7-2.4,2-1.9,5.4,1.3,1.1,0,1.3,1.5,1.9,2.4,2.1.9-.7,2.9-2.7,5.7-1.5,2.4-3.7,6.6-4.4,9.2l-.9,4.6-5.7.5c-4.6,1-3.3,0-4.2-2.7"/>
        <path class="cls-32" d="M84.4,86.2c-3.3-3.1-3.1-3-1.4-5.3.5-1.5,3.4-3.6,6.1-5,2.8-1.3,5.8-2.9,6.8-3.5,1.8-.6,4.9-1,7.3-1.7,3.3-.5,4-.4,3.4,1.1,0,1-.2,3.1-.5,5,0,2.5-.2,3-2.2,3.6-4.4.8-11.4,4.1-13.7,6.6l-2.8,2.2-3.1-3"/>
        <path class="cls-32" d="M146,106.1c-.5-2.3-2.5-6.9-4.3-9.9l-3.5-5.1,3.5-3.7c3-3,3.2-2.6,4.8-.6,1.9.6,3.9,3.7,5.3,6.7,1.3,3,2.9,5.7,3.1,5.4,0,.9,2.2,8.5,1.6,11,1,.6-1.8,1.3-4.5.3l-4.9-.2-1.1-3.9"/>
        <path class="cls-32" d="M132,86c-1.7-1.5-5.4-3.3-8-3.9-7.7-2-7.2-1.6-7.4-7.3-.9-5.6,1.1-3.5,2.8-4.5,4.3,1.3,8.5,3,12.6,4.8s6.4,2.4,8,5.4l2.9,2.3-3.2,3.4c-1.4,1.3-2.9,2.7-2.9,3.4-.6.4-2.6-1.4-4.8-3.4"/>
        <path class="cls-2" d="M126.7,159.8c-.2-2.6,2.6-4.2,4.2-2.2,1,1.6-.4,4.4-2.1,4.2-.5,0-1.4-.8-2.1-1.9"/>
        <path class="cls-5" d="M91.9,72.4c0-1.7.9-2.8,1.7-2.7,1.4-.2,2.4.3,2.6,1.5.4,1.6,0,2.6-1.3,3.3-2.3,0-3.1-.6-3-2.1"/>
        <path class="cls-6" d="M152.7,97.5c-.3-2.1,3-3.5,4.9-2,.3.7.7,1.6.2,2.3-1,1.9-5,1.7-5.1-.3"/>
      </g>
    </g>
  </g>
</svg>