<?xml version="1.0" ?>
<svg xmlns="http://www.w3.org/2000/svg" version="1.1" width="224" height="224">
  <defs/>
  <g>
    <path d="M 73.7152328491211 175.81271362304688 C 75.84879302978516 181.56402587890625 77.98236083984375 187.31533813476562 80.11592102050781 193.066650390625 C 96.40453338623047 193.066650390625 112.69315338134766 193.066650390625 128.98097229003906 193.066650390625 C 130.5017547607422 187.31533813476562 132.02175903320312 181.56402587890625 133.541748046875 175.81271362304688 C 124.54512786865234 177.38922119140625 115.54771423339844 178.96571350097656 106.55030059814453 180.54220581054688 C 95.60554504394531 178.96571350097656 84.66078186035156 177.38922119140625 73.7152328491211 175.81271362304688" stroke-width="0.0" fill="rgb(66, 187, 144)" opacity="1.0"/>
    <path d="M 83.8976058959961 44.47403335571289 C 95.25141143798828 44.47403335571289 106.60601043701172 44.47403335571289 117.95980834960938 44.47403335571289 C 117.12500762939453 48.36952209472656 116.29100036621094 52.26420974731445 115.4561996459961 56.159690856933594 C 117.31838989257812 59.49890899658203 119.18058776855469 62.83732604980469 121.04197692871094 66.1765365600586 C 122.98295593261719 69.23722076416016 124.92393493652344 72.29789733886719 126.86490631103516 75.3577880859375 C 124.92393493652344 78.5115737915039 122.98295593261719 81.66535949707031 121.04197692871094 84.81915283203125 C 119.08668518066406 87.32356262207031 117.1313705444336 89.82797241210938 115.17607116699219 92.33238220214844 C 114.71211242675781 94.28052520751953 114.24815368652344 96.2286605834961 113.7842025756836 98.17680358886719 C 101.91232299804688 98.3343734741211 90.03965759277344 98.491943359375 78.16778564453125 98.6495132446289 C 79.18800354003906 96.17295837402344 80.20823669433594 93.69640350341797 81.22766876220703 91.21984100341797 C 82.85906982421875 89.83831787109375 84.49048614501953 88.45679473876953 86.12189483642578 87.07527160644531 C 87.45885467529297 84.83427429199219 88.7966079711914 82.59247589111328 90.1335678100586 80.35147857666016 C 91.20631408691406 78.03807067871094 92.27906799316406 75.7238540649414 93.35260772705078 73.41043853759766 C 91.90821838378906 71.64772033691406 90.4646224975586 69.885009765625 89.02022552490234 68.1222915649414 C 87.31321716308594 66.35957336425781 85.60540771484375 64.59606170654297 83.8976058959961 62.833343505859375 C 82.72936248779297 59.95808792114258 81.56111145019531 57.08283233642578 80.39286041259766 54.208370208740234 C 81.56111145019531 50.96306228637695 82.72936248779297 47.71855163574219 83.8976058959961 44.47403335571289" stroke-width="0.0" fill="rgb(254, 180, 120)" opacity="1.0"/>
    <path d="M 42.685062408447266 96.25651550292969 C 50.830162048339844 97.06426239013672 58.97605895996094 97.87200927734375 67.12195587158203 98.68054962158203 C 75.26944732666016 97.87200927734375 83.41773223876953 97.06426239013672 91.56522369384766 96.25651550292969 C 99.71271514892578 97.06426239013672 107.86099243164062 97.87200927734375 116.00928497314453 98.68054962158203 C 124.15676879882812 97.87200927734375 132.30426025390625 97.06426239013672 140.45175170898438 96.25651550292969 C 148.60003662109375 97.06426239013672 156.74752807617188 97.87200927734375 164.89581298828125 98.68054962158203 C 164.89581298828125 102.85297393798828 164.89581298828125 107.02539825439453 164.89581298828125 111.19861602783203 C 164.6021728515625 138.59036254882812 150.3516082763672 168.91146850585938 122.21102142333984 177.0772705078125 C 117.97811889648438 178.3059844970703 113.65289306640625 178.85272216796875 109.25445556640625 178.92274475097656 C 105.61124420166016 178.92274475097656 101.96882629394531 178.92274475097656 98.326416015625 178.92274475097656 C 93.92718505859375 178.85272216796875 89.6027603149414 178.3059844970703 85.36904907226562 177.0772705078125 C 57.22846221923828 168.91067504882812 42.97871780395508 138.59036254882812 42.685062408447266 111.19861602783203 C 42.685062408447266 106.21765899658203 42.685062408447266 101.23748016357422 42.685062408447266 96.25651550292969" stroke-width="0.0" fill="rgb(95, 205, 254)" opacity="1.0"/>
    <path d="M 40.48544692993164 109.86564636230469 C 48.964786529541016 114.03886413574219 57.44333267211914 118.21287536621094 65.92266845703125 122.38690185546875 C 74.64155578613281 118.21287536621094 83.3596420288086 114.03886413574219 92.07852172851562 109.86564636230469 C 100.51886749267578 114.03886413574219 108.96001434326172 118.21287536621094 117.40115356445312 122.38690185546875 C 125.84149932861328 118.21287536621094 134.2826385498047 114.03886413574219 142.72378540039062 109.86564636230469 C 149.4014129638672 114.03886413574219 156.079833984375 118.21287536621094 162.75747680664062 122.38690185546875 C 162.75747680664062 127.4546127319336 162.75747680664062 132.52232360839844 162.75747680664062 137.59002685546875 C 154.60043334960938 134.6550750732422 146.44338989257812 131.71934509277344 138.2871551513672 128.78439331054688 C 130.3043975830078 132.1180419921875 122.32243347167969 135.45248413085938 114.3404769897461 138.7861328125 C 106.734130859375 135.36016845703125 99.12779235839844 131.93421936035156 91.52224731445312 128.5082550048828 C 84.11167907714844 131.53550720214844 76.701904296875 134.56277465820312 69.29133605957031 137.59002685546875 C 60.42204284667969 133.73910522460938 51.553550720214844 129.88819885253906 42.685062408447266 126.03726959228516 C 41.95132064819336 120.64725494384766 41.2183837890625 115.2564468383789 40.48544692993164 109.86564636230469" stroke-width="0.0" fill="rgb(254, 72, 147)" opacity="1.0"/>
    <path d="M 42.685062408447266 94.75562286376953 C 42.685062408447266 94.75562286376953 42.685062408447266 94.75562286376953 42.685062408447266 94.75562286376953 C 45.14012908935547 95.2506103515625 46.08634948730469 96.19603729248047 46.581336975097656 98.65190124511719 C 46.581336975097656 106.86305236816406 46.581336975097656 115.07341003417969 46.581336975097656 123.2845687866211 C 46.92115020751953 145.02447509765625 60.426025390625 164.76528930664062 81.10272216796875 172.08355712890625 C 86.6654281616211 174.05238342285156 92.44061279296875 174.93812561035156 98.326416015625 175.03042602539062 C 101.96803283691406 175.03042602539062 105.60965728759766 175.03042602539062 109.25127410888672 175.03042602539062 C 130.99118041992188 174.6906280517578 150.73121643066406 161.18496704101562 158.04946899414062 140.50827026367188 C 160.01829528808594 134.945556640625 160.9048309326172 129.1703643798828 160.99635314941406 123.2845687866211 C 160.99635314941406 115.07341003417969 160.99635314941406 106.86305236816406 160.99635314941406 98.65190124511719 C 161.61151123046875 95.60713958740234 164.87591552734375 93.12421417236328 167.64772033691406 95.8960189819336 C 168.63372802734375 96.88201904296875 168.52630615234375 97.35155487060547 168.78811645507812 98.65190124511719 C 168.78811645507812 106.86305236816406 168.78811645507812 115.07341003417969 168.78811645507812 123.2845687866211 C 168.44830322265625 148.00079345703125 153.2006072998047 170.5174102783203 129.8396453857422 179.15274047851562 C 123.2169189453125 181.6014404296875 116.2957763671875 182.7259063720703 109.25127410888672 182.822998046875 C 105.60965728759766 182.8214111328125 101.96803283691406 182.82061767578125 98.326416015625 182.81982421875 C 73.61019134521484 182.47921752929688 51.093570709228516 167.23150634765625 42.458251953125 143.87054443359375 C 40.01034927368164 137.24783325195312 38.885868072509766 130.32667541503906 38.788780212402344 123.28138732910156 C 38.788780212402344 115.07102966308594 38.788780212402344 106.85987091064453 38.788780212402344 98.6495132446289 C 39.284568786621094 96.19603729248047 40.23158264160156 95.2506103515625 42.685062408447266 94.75562286376953 C 42.685062408447266 94.75562286376953 42.685062408447266 94.75562286376953 42.685062408447266 94.75562286376953" stroke-width="0.0" fill="rgb(79, 70, 163)" opacity="1.0"/>
    <path d="M 42.53623962402344 94.75562286376953 C 83.27130889892578 94.75562286376953 124.00716400146484 94.75562286376953 164.74301147460938 94.75562286376953 C 167.7869873046875 95.36998748779297 170.27149963378906 98.63359832763672 167.49810791015625 101.40460205078125 C 166.51129150390625 102.38980865478516 166.04257202148438 102.2831802368164 164.74301147460938 102.54499816894531 C 124.00716400146484 102.54499816894531 83.27130889892578 102.54499816894531 42.53623962402344 102.54499816894531 C 41.23589324951172 102.2831802368164 40.76636505126953 102.39060974121094 39.780357360839844 101.40460205078125 C 37.00696563720703 98.63359832763672 39.49148178100586 95.36918640136719 42.53623962402344 94.75562286376953 C 42.53623962402344 94.75562286376953 42.53623962402344 94.75562286376953 42.53623962402344 94.75562286376953" stroke-width="0.0" fill="rgb(79, 70, 163)" opacity="1.0"/>
    <path d="M 72.01219940185547 170.50070190429688 C 72.01219940185547 170.50070190429688 72.01219940185547 170.50070190429688 72.01219940185547 170.50070190429688 C 74.49034881591797 170.22613525390625 75.70475769042969 170.85562133789062 76.90324401855469 173.04171752929688 C 78.50361633300781 178.0966796875 80.10318756103516 183.15167236328125 81.70355987548828 188.20664978027344 C 96.42920684814453 188.20664978027344 111.15484619140625 188.20664978027344 125.87969970703125 188.20664978027344 C 127.48007202148438 183.15167236328125 129.0804443359375 178.0966796875 130.68002319335938 173.04171752929688 C 131.32144165039062 171.88063049316406 131.35964965820312 171.40155029296875 132.59632873535156 170.758544921875 C 136.0628662109375 168.95602416992188 138.44869995117188 172.29922485351562 138.10333251953125 175.39013671875 C 136.21566772460938 181.3531494140625 134.3288116455078 187.31533813476562 132.4419403076172 193.27752685546875 C 131.56256103515625 195.02911376953125 130.66409301757812 195.687255859375 128.7294921875 196.0 C 112.10186004638672 196.0 95.47502899169922 196.0 78.84820556640625 196.0 C 76.91358947753906 195.687255859375 76.01591491699219 195.02752685546875 75.13495635986328 193.27752685546875 C 73.24809265136719 187.31533813476562 71.3612289428711 181.3531494140625 69.474365234375 175.39013671875 C 69.20060729980469 172.91519165039062 69.8316879272461 171.70236206054688 72.01219940185547 170.50070190429688 C 72.01219940185547 170.50070190429688 72.01219940185547 170.50070190429688 72.01219940185547 170.50070190429688" stroke-width="0.0" fill="rgb(79, 70, 163)" opacity="1.0"/>
    <path d="M 44.30134582519531 107.46070861816406 C 51.907684326171875 110.92725372314453 59.51482391357422 114.39379119873047 67.12195587158203 117.86033630371094 C 74.73147583007812 114.39379119873047 82.3402099609375 110.92725372314453 89.9497299194336 107.46070861816406 C 91.21745300292969 107.08826446533203 91.91299438476562 107.08906555175781 93.18151092529297 107.46070861816406 C 100.79023742675781 110.92725372314453 108.3997573852539 114.39379119873047 116.00928497314453 117.86033630371094 C 123.6180191040039 114.39379119873047 131.2275390625 110.92725372314453 138.8362579345703 107.46070861816406 C 140.1031951904297 107.08826446533203 140.79794311523438 107.08826446533203 142.06484985351562 107.46070861816406 C 150.2123565673828 111.17236328125 158.3606414794922 114.88481140136719 166.50811767578125 118.5964584350586 C 167.46229553222656 119.24662780761719 167.84190368652344 119.32463073730469 168.37826538085938 120.39578247070312 C 170.12586975097656 123.88221740722656 166.49935913085938 126.76145935058594 163.27713012695312 125.68711853027344 C 155.66761779785156 122.22057342529297 148.0588836669922 118.7540283203125 140.44937133789062 115.28748321533203 C 132.83984375 118.7540283203125 125.23031616210938 122.22057342529297 117.62159729003906 125.68711853027344 C 116.35625457763672 126.0563735961914 115.65833282470703 126.0563735961914 114.39379119873047 125.68711853027344 C 106.78427124023438 122.22057342529297 99.17475128173828 118.7540283203125 91.56522369384766 115.28748321533203 C 83.95570373535156 118.7540283203125 76.34696960449219 122.22057342529297 68.7374496459961 125.68711853027344 C 67.4713134765625 126.0563735961914 66.77259826660156 126.0563735961914 65.5064697265625 125.68711853027344 C 57.36056900024414 121.97466278076172 49.21467208862305 118.26301574707031 41.0695686340332 114.55136108398438 C 38.55322265625 112.72896575927734 37.64838409423828 108.7292251586914 41.320247650146484 107.35725402832031 C 42.62696838378906 106.8686294555664 43.00895309448242 107.16069030761719 44.30134582519531 107.46070861816406 C 44.30134582519531 107.46070861816406 44.30134582519531 107.46070861816406 44.30134582519531 107.46070861816406" stroke-width="0.0" fill="rgb(79, 70, 163)" opacity="1.0"/>
    <path d="M 46.04973602294922 124.45600128173828 C 53.3393440246582 127.90742492675781 60.62815856933594 131.35804748535156 67.91777038574219 134.80946350097656 C 75.20658111572266 131.35804748535156 82.49618530273438 127.90742492675781 89.78499603271484 124.45600128173828 C 91.09967803955078 124.06048583984375 91.80794525146484 124.06048583984375 93.12261962890625 124.45600128173828 C 100.41143035888672 127.90742492675781 107.70104217529297 131.35804748535156 114.98985290527344 134.80946350097656 C 122.27946472167969 131.35804748535156 129.56826782226562 127.90742492675781 136.85708618164062 124.45600128173828 C 138.17095947265625 124.06048583984375 138.8776397705078 124.06048583984375 140.19073486328125 124.45600128173828 C 148.03819274902344 128.17002868652344 155.88568115234375 131.8840789794922 163.7339324951172 135.59811401367188 C 164.6721954345703 136.25863647460938 165.04623413085938 136.34298706054688 165.56826782226562 137.41336059570312 C 167.28244018554688 140.92764282226562 163.6113739013672 143.75753784179688 160.40028381347656 142.64183044433594 C 153.10910034179688 139.19119262695312 145.8170928955078 135.74057006835938 138.52589416503906 132.28993225097656 C 131.23707580566406 135.74057006835938 123.94747161865234 139.19119262695312 116.65786743164062 142.64183044433594 C 115.34159851074219 143.04132080078125 114.63731384277344 143.04132080078125 113.32103729248047 142.64183044433594 C 106.0322265625 139.19119262695312 98.74262237548828 135.74057006835938 91.45381164550781 132.28993225097656 C 84.16500091552734 135.74057006835938 76.8753890991211 139.19119262695312 69.58657836914062 142.64183044433594 C 68.27110290527344 143.04052734375 67.56681823730469 143.04132080078125 66.25213623046875 142.64183044433594 C 58.4062614440918 138.9277801513672 50.56118392944336 135.2137451171875 42.71609878540039 131.49969482421875 C 40.226009368896484 129.6414794921875 39.38006591796875 125.62902069091797 43.07102966308594 124.3095703125 C 44.38410949707031 123.84083557128906 44.762123107910156 124.13768005371094 46.04973602294922 124.45600128173828 C 46.04973602294922 124.45600128173828 46.04973602294922 124.45600128173828 46.04973602294922 124.45600128173828" stroke-width="0.0" fill="rgb(79, 70, 163)" opacity="1.0"/>
    <path d="M 91.69335174560547 28.0 C 91.69335174560547 28.0 91.69335174560547 28.0 91.69335174560547 28.0 C 92.19868469238281 28.10186004638672 92.73347473144531 28.109031677246094 93.21015930175781 28.30638885498047 C 96.220703125 29.55261993408203 95.74481201171875 33.215728759765625 95.1678466796875 35.76709747314453 C 94.47868347167969 38.81344985961914 92.81543731689453 41.4237060546875 90.71768188476562 43.690162658691406 C 87.93792724609375 46.693546295166016 84.39339447021484 49.16055679321289 84.44671630859375 53.683135986328125 C 84.5008316040039 58.237548828125 87.86709594726562 60.61224365234375 90.69938659667969 63.660987854003906 C 92.812255859375 65.93620300292969 94.49140930175781 68.54327392578125 95.17581176757812 71.60952758789062 C 96.34485626220703 76.84674072265625 95.05086517333984 82.14523315429688 91.62809753417969 86.24046325683594 C 89.76351165771484 88.47111511230469 87.23124694824219 90.22349548339844 85.68896484375 92.71198272705078 C 83.972412109375 95.48059844970703 85.275146484375 101.16506958007812 80.55123138427734 101.14994049072266 C 76.25784301757812 101.13641357421875 76.40426635742188 96.36315155029297 77.06717681884766 93.39319610595703 C 77.75157165527344 90.32774353027344 79.429931640625 87.72067260742188 81.54200744628906 85.44625091552734 C 84.37509155273438 82.39591217041016 87.74215698242188 80.02838134765625 87.79627227783203 75.4699935913086 C 87.85038757324219 70.94820404052734 84.32733917236328 68.48677062988281 81.54200744628906 65.48736572265625 C 79.429931640625 63.213741302490234 77.75157165527344 60.60667037963867 77.06717681884766 57.54121780395508 C 75.89813995361328 52.30479431152344 77.19291687011719 47.00709915161133 80.61569213867188 42.913455963134766 C 82.403076171875 40.775917053222656 84.72843170166016 39.08084487915039 86.32482147216797 36.78573226928711 C 88.1161880493164 34.21128845214844 86.8978042602539 29.664039611816406 90.17733764648438 28.30638885498047 C 90.65322875976562 28.109031677246094 91.1880111694336 28.10186004638672 91.69335174560547 28.0 C 91.69335174560547 28.0 91.69335174560547 28.0 91.69335174560547 28.0" stroke-width="0.0" fill="rgb(79, 70, 162)" opacity="1.0"/>
    <path d="M 108.39021301269531 28.0 C 108.39021301269531 28.0 108.39021301269531 28.0 108.39021301269531 28.0 C 108.89555358886719 28.10186004638672 109.42953491210938 28.109031677246094 109.90542602539062 28.30638885498047 C 112.91438293457031 29.553421020507812 112.43849182128906 33.216529846191406 111.86152648925781 35.76709747314453 C 111.17315673828125 38.81344985961914 109.50991821289062 41.4237060546875 107.41216278076172 43.690162658691406 C 104.63240051269531 46.69434356689453 101.08866882324219 49.16055679321289 101.1419906616211 53.683135986328125 C 101.19530487060547 58.237548828125 104.56157684326172 60.61224365234375 107.39306640625 63.660987854003906 C 109.50672912597656 65.93620300292969 111.18588256835938 68.54327392578125 111.87028503417969 71.60952758789062 C 113.0393295288086 76.84674072265625 111.7453384399414 82.14523315429688 108.32256317138672 86.24046325683594 C 106.4579849243164 88.47111511230469 103.92572021484375 90.22349548339844 102.3834457397461 92.71198272705078 C 100.6684799194336 95.47901153564453 101.97042083740234 101.16506958007812 97.24809265136719 101.14994049072266 C 92.95550537109375 101.13641357421875 93.1019287109375 96.36315155029297 93.76483917236328 93.39319610595703 C 94.44923400878906 90.32774353027344 96.12759399414062 87.72067260742188 98.23966979980469 85.44625091552734 C 101.07274627685547 82.39591217041016 104.4398193359375 80.02838134765625 104.49393463134766 75.4699935913086 C 104.54725646972656 70.94820404052734 101.0250015258789 68.48677062988281 98.23966979980469 65.48736572265625 C 96.12759399414062 63.213741302490234 94.44923400878906 60.60667037963867 93.76483917236328 57.54121780395508 C 92.59658813476562 52.30479431152344 93.89137268066406 47.00709915161133 97.31334686279297 42.913455963134766 C 99.09994506835938 40.775917053222656 101.42529296875 39.08084487915039 103.02169036865234 36.78573226928711 C 104.812255859375 34.21208190917969 103.59466552734375 29.663246154785156 106.87339782714844 28.30638885498047 C 107.35009002685547 28.109031677246094 107.88487243652344 28.10186004638672 108.39021301269531 28.0 C 108.39021301269531 28.0 108.39021301269531 28.0 108.39021301269531 28.0" stroke-width="0.0" fill="rgb(79, 70, 162)" opacity="1.0"/>
    <path d="M 125.08468627929688 28.0 C 125.08468627929688 28.0 125.08468627929688 28.0 125.08468627929688 28.0 C 125.59002685546875 28.10186004638672 126.12480926513672 28.109031677246094 126.60150146484375 28.30638885498047 C 129.61204528808594 29.55261993408203 129.13694763183594 33.214935302734375 128.5599822998047 35.76709747314453 C 127.87081909179688 38.81344985961914 126.20758056640625 41.4237060546875 124.10902404785156 43.690162658691406 C 121.32926940917969 46.69434356689453 117.78553009033203 49.16055679321289 117.8388442993164 53.683135986328125 C 117.89295959472656 58.237548828125 121.25843811035156 60.61224365234375 124.0907211303711 63.660987854003906 C 126.20359802246094 65.93620300292969 127.883544921875 68.54327392578125 128.56793212890625 71.60952758789062 C 129.73777770996094 76.84674072265625 128.4429931640625 82.14523315429688 125.02022552490234 86.24046325683594 C 123.15485382080078 88.47111511230469 120.6233901977539 90.22349548339844 119.08110809326172 92.71198272705078 C 117.36454772949219 95.48139953613281 118.66649627685547 101.16506958007812 113.94257354736328 101.14994049072266 C 109.64997863769531 101.13641357421875 109.7964096069336 96.36235809326172 110.45932006835938 93.39319610595703 C 111.14370727539062 90.32774353027344 112.82127380371094 87.72067260742188 114.933349609375 85.44625091552734 C 117.74414825439453 82.42058563232422 121.18840789794922 80.01008605957031 121.18840789794922 75.4699935913086 C 121.18840789794922 70.92910766601562 117.74494171142578 68.51541900634766 114.933349609375 65.48736572265625 C 112.82127380371094 63.213741302490234 111.14370727539062 60.60667037963867 110.45932006835938 57.54121780395508 C 109.29027557373047 52.30479431152344 110.58505249023438 47.00709915161133 114.00702667236328 42.913455963134766 C 115.79441833496094 40.775917053222656 118.1197738647461 39.08084487915039 119.71617126464844 36.78573226928711 C 121.50752258300781 34.21208190917969 120.2899398803711 29.664039611816406 123.56866455078125 28.30638885498047 C 124.04535675048828 28.109031677246094 124.579345703125 28.10186004638672 125.08468627929688 28.0 C 125.08468627929688 28.0 125.08468627929688 28.0 125.08468627929688 28.0" stroke-width="0.0" fill="rgb(79, 70, 163)" opacity="1.0"/>
    <path d="M 61.635650634765625 50.31527328491211 C 67.75701141357422 50.31527328491211 73.87916564941406 50.31527328491211 80.00053405761719 50.31527328491211 C 81.30007934570312 50.57788848876953 81.76961517333984 50.470455169677734 82.75562286376953 51.455665588378906 C 85.52901458740234 54.22747039794922 83.04529571533203 57.49267578125 80.00053405761719 58.10783386230469 C 73.87916564941406 58.10783386230469 67.75701141357422 58.10783386230469 61.635650634765625 58.10783386230469 C 58.59088897705078 57.49267578125 56.10717010498047 54.22747039794922 58.88056182861328 51.455665588378906 C 59.86656951904297 50.470455169677734 60.33530044555664 50.57788848876953 61.635650634765625 50.31527328491211 C 61.635650634765625 50.31527328491211 61.635650634765625 50.31527328491211 61.635650634765625 50.31527328491211" stroke-width="0.0" fill="rgb(79, 70, 163)" opacity="1.0"/>
    <path d="M 61.635650634765625 38.79116439819336 C 101.2398681640625 38.79116439819336 140.84487915039062 38.79116439819336 180.44989013671875 38.79116439819336 C 183.49386596679688 39.40632629394531 185.97201538085938 42.66993713378906 183.2025909423828 45.44015121459961 C 182.21739196777344 46.42536163330078 181.74945068359375 46.3187255859375 180.44989013671875 46.580543518066406 C 140.84487915039062 46.580543518066406 101.2398681640625 46.580543518066406 61.635650634765625 46.580543518066406 C 60.33530044555664 46.3187255859375 59.86656951904297 46.42536163330078 58.88056182861328 45.44015121459961 C 56.10637283325195 42.66914367675781 58.59088897705078 39.40553283691406 61.635650634765625 38.79116439819336 C 61.635650634765625 38.79116439819336 61.635650634765625 38.79116439819336 61.635650634765625 38.79116439819336" stroke-width="0.0" fill="rgb(79, 70, 163)" opacity="1.0"/>
    <path d="M 114.53863525390625 50.31527328491211 C 136.8475341796875 50.31527328491211 159.1564483642578 50.31527328491211 181.46534729003906 50.31527328491211 C 182.76568603515625 50.57709503173828 183.2352294921875 50.470455169677734 184.2212371826172 51.455665588378906 C 186.9930419921875 54.22826385498047 184.51010131835938 57.49267578125 181.46534729003906 58.10783386230469 C 159.1564483642578 58.10783386230469 136.8475341796875 58.10783386230469 114.53863525390625 58.10783386230469 C 111.49465942382812 57.49267578125 109.0117416381836 54.22826385498047 111.78353881835938 51.455665588378906 C 112.76954650878906 50.470455169677734 113.23907470703125 50.57709503173828 114.53863525390625 50.31527328491211 C 114.53863525390625 50.31527328491211 114.53863525390625 50.31527328491211 114.53863525390625 50.31527328491211" stroke-width="0.0" fill="rgb(79, 70, 163)" opacity="1.0"/>
  </g>
</svg>
