<?xml version="1.0" ?>
<svg xmlns="http://www.w3.org/2000/svg" version="1.1" width="224" height="224">
  <defs/>
  <g>
    <path d="M 97.67013549804688 28.000003814697266 C 97.67013549804688 28.000003814697266 97.67013549804688 28.000003814697266 97.67013549804688 28.000003814697266 C 85.69721984863281 28.35793685913086 75.65850830078125 34.877315521240234 70.46768188476562 45.6741943359375 C 70.46768188476562 45.6741943359375 70.46768188476562 45.6741943359375 70.46768188476562 45.6741943359375 C 63.72614288330078 41.128700256347656 54.725074768066406 41.75374984741211 49.47342300415039 48.3701057434082 C 47.97382736206055 50.259361267089844 47.152183532714844 52.337276458740234 46.52184295654297 54.636474609375 C 46.52184295654297 54.636474609375 46.52184295654297 54.636474609375 46.52184295654297 54.636474609375 C 44.38486099243164 55.416683197021484 42.50794982910156 56.377620697021484 40.884056091308594 58.013858795166016 C 35.8880615234375 63.04511260986328 35.66149139404297 71.29505920410156 40.45207214355469 76.54759979248047 C 42.365135192871094 78.64579772949219 44.70576095581055 79.81037902832031 47.388450622558594 80.59675598144531 C 47.388450622558594 111.05052185058594 47.388450622558594 141.50430297851562 47.388450622558594 171.9580535888672 C 47.49776840209961 174.91226196289062 47.90153884887695 177.7404327392578 48.96209716796875 180.51834106445312 C 52.577510833740234 189.9857635498047 61.505409240722656 195.63412475585938 71.4321517944336 196.0 C 88.55357360839844 196.0 105.67500305175781 196.0 122.79643249511719 196.0 C 134.51722717285156 195.55654907226562 143.7457275390625 187.9140167236328 146.39492797851562 176.49032592773438 C 152.3624267578125 176.49032592773438 158.32907104492188 176.49032592773438 164.29656982421875 176.49032592773438 C 167.25079345703125 176.38189697265625 170.07894897460938 175.97811889648438 172.85684204101562 174.91757202148438 C 182.3251495361328 171.30215454101562 187.97265625 162.37425231933594 188.3385009765625 152.44839477539062 C 188.3385009765625 137.8544921875 188.3385009765625 123.2605972290039 188.3385009765625 108.66670227050781 C 187.97265625 98.74171447753906 182.3207550048828 89.8138198852539 172.85508728027344 86.19752502441406 C 170.07806396484375 85.136962890625 167.25079345703125 84.73231506347656 164.29656982421875 84.62299346923828 C 158.4771728515625 84.62299346923828 152.6586456298828 84.62299346923828 146.83924865722656 84.62299346923828 C 146.83924865722656 82.64557647705078 146.83924865722656 80.66728973388672 146.83924865722656 78.68986511230469 C 149.19223022460938 77.96696472167969 151.3318634033203 76.93991088867188 153.0791778564453 75.1546859741211 C 158.2188720703125 69.90303039550781 158.26382446289062 61.40534973144531 153.068603515625 56.165157318115234 C 151.11761474609375 54.19655990600586 148.76113891601562 53.148345947265625 146.11898803710938 52.47216033935547 C 146.11898803710938 52.47216033935547 146.11898803710938 52.47216033935547 146.11898803710938 52.47216033935547 C 142.12008666992188 44.432029724121094 132.86952209472656 41.94858169555664 125.45355987548828 47.06446838378906 C 125.45355987548828 47.06446838378906 125.45355987548828 47.06446838378906 125.45355987548828 47.06446838378906 C 120.60037994384766 35.52440643310547 110.18347930908203 28.372039794921875 97.67013549804688 28.000003814697266 C 97.67013549804688 28.000003814697266 97.67013549804688 28.000003814697266 97.67013549804688 28.000003814697266" stroke-width="0.0" fill="rgb(79, 70, 163)" opacity="1.0"/>
    <path d="M 97.67366027832031 36.632572174072266 C 97.67366027832031 36.632572174072266 97.67366027832031 36.632572174072266 97.67366027832031 36.632572174072266 C 106.0011978149414 36.98785400390625 113.50444030761719 41.38700485229492 116.98673248291016 49.1609001159668 C 117.94855499267578 51.30845642089844 118.54715728759766 53.6155891418457 118.74727630615234 55.960628509521484 C 118.94563293457031 58.292442321777344 118.88127899169922 60.692138671875 121.45729064941406 61.75975036621094 C 123.84642028808594 62.749778747558594 127.42479705810547 62.01188659667969 128.48007202148438 59.46672821044922 C 128.99844360351562 58.217506408691406 128.6616668701172 57.48843002319336 129.0689697265625 56.24097442626953 C 129.88092041015625 53.75400161743164 132.62973022460938 52.37078094482422 135.11758422851562 53.11219787597656 C 140.03952026367188 54.57828903198242 137.1337890625 61.87523651123047 142.89059448242188 62.09210968017578 C 144.05517578125 62.136192321777344 144.4774627685547 61.753578186035156 145.448974609375 61.24225616455078 C 145.448974609375 61.24225616455078 145.448974609375 61.24225616455078 145.448974609375 61.24225616455078 C 146.48043823242188 61.86553955078125 146.86306762695312 61.94312286376953 147.5586395263672 62.974586486816406 C 149.09613037109375 65.25526428222656 148.35824584960938 68.44486999511719 145.98057556152344 69.81399536132812 C 144.76663208007812 70.51397705078125 143.54385375976562 70.25037384033203 142.26730346679688 70.65855407714844 C 141.0648193359375 71.04293060302734 140.87879943847656 71.48372650146484 139.9892578125 72.39705657958984 C 139.9892578125 72.39705657958984 139.9892578125 72.39705657958984 139.9892578125 72.39705657958984 C 137.17169189453125 74.44499969482422 137.82672119140625 76.63134765625 137.15142822265625 79.7213363647461 C 136.55987548828125 82.4278335571289 135.24630737304688 84.95976257324219 133.38966369628906 87.01475524902344 C 126.70013427734375 94.4201431274414 114.61788940429688 93.80919647216797 108.65655517578125 85.83078002929688 C 106.58216857910156 83.05376434326172 105.71468353271484 79.9390869140625 105.4898681640625 76.52820587158203 C 105.4898681640625 76.44886016845703 105.4898681640625 76.36952209472656 105.4898681640625 76.29016876220703 C 104.85953521728516 72.62010192871094 101.39222717285156 70.68147277832031 98.0721435546875 72.9947738647461 C 96.1097183227539 74.36212921142578 96.54962921142578 76.24961853027344 96.0039291381836 78.25965118408203 C 95.244873046875 81.05695343017578 92.60273742675781 83.04934692382812 89.71199035644531 83.05023956298828 C 86.81683349609375 83.052001953125 84.17382049560547 81.06488037109375 83.41565704345703 78.26053619384766 C 82.943115234375 76.51145935058594 83.33366394042969 74.89108276367188 81.9178237915039 73.474365234375 C 80.82464599609375 72.38118743896484 80.30803680419922 72.50020599365234 78.8657455444336 72.20751953125 C 69.81266784667969 72.20927429199219 60.758697509765625 72.21015930175781 51.70561599731445 72.2110366821289 C 49.56157302856445 72.46229553222656 48.5547981262207 73.38973236083984 47.58857727050781 75.2613525390625 C 47.58857727050781 75.2613525390625 47.58857727050781 75.2613525390625 47.58857727050781 75.2613525390625 C 48.44107437133789 73.59337615966797 49.039676666259766 73.04061889648438 50.76847839355469 72.31859588623047 C 50.76847839355469 72.31859588623047 50.76847839355469 72.31859588623047 50.76847839355469 72.31859588623047 C 49.57040023803711 72.25511932373047 48.53981018066406 72.10083770751953 47.54096984863281 71.37088012695312 C 44.77717208862305 69.35292053222656 45.03723907470703 65.03575134277344 47.98087692260742 63.34044647216797 C 50.1275634765625 62.103572845458984 52.69652557373047 63.10594177246094 54.133522033691406 60.50436019897461 C 54.908443450927734 59.100860595703125 54.65807342529297 57.53074645996094 55.06007766723633 56.04526138305664 C 55.65250778198242 53.85979080200195 57.433326721191406 52.07632827758789 59.618797302246094 51.48389434814453 C 63.04026412963867 50.55557632446289 66.7138671875 52.60881042480469 67.64835357666016 56.047908782958984 C 67.94281005859375 57.13050079345703 67.78323364257812 58.39911651611328 68.2222671508789 59.457908630371094 C 69.37979888916016 62.24726867675781 73.12568664550781 62.94549560546875 75.24857330322266 60.832313537597656 C 76.65118408203125 59.43675231933594 76.4475326538086 57.754669189453125 76.60005187988281 55.960628509521484 C 76.75080108642578 54.19391632080078 77.12724304199219 52.44747543334961 77.71527099609375 50.77509307861328 C 80.7550048828125 42.13724136352539 88.7413558959961 37.01342010498047 97.67366027832031 36.632572174072266 C 97.67366027832031 36.632572174072266 97.67366027832031 36.632572174072266 97.67366027832031 36.632572174072266" stroke-width="0.0" fill="rgb(96, 89, 173)" opacity="1.0"/>
    <path d="M 146.83924865722656 110.55242919921875 C 149.63742065429688 110.55242919921875 152.43560791015625 110.55242919921875 155.23379516601562 110.55242919921875 C 160.4986572265625 111.02584075927734 163.82315063476562 114.35033416748047 164.29656982421875 119.61520385742188 C 164.29656982421875 127.5372085571289 164.29656982421875 135.4600830078125 164.29656982421875 143.382080078125 C 163.82315063476562 148.64695739746094 160.4986572265625 151.97146606445312 155.23379516601562 152.4448699951172 C 152.43649291992188 152.4448699951172 149.64007568359375 152.4448699951172 146.8427734375 152.4448699951172 C 146.84190368652344 138.4804229736328 146.8401336669922 124.51598358154297 146.83924865722656 110.55242919921875" stroke-width="0.0" fill="rgb(254, 254, 254)" opacity="1.0"/>
    <path d="M 146.8427734375 93.2493896484375 C 152.66217041015625 93.2493896484375 158.48069763183594 93.2493896484375 164.3000946044922 93.2493896484375 C 173.05166625976562 93.75630950927734 179.2069549560547 99.91159057617188 179.71298217773438 108.66316986083984 C 179.71298217773438 123.25794982910156 179.71298217773438 137.85360717773438 179.71298217773438 152.44839477539062 C 179.2069549560547 161.20260620117188 173.0543212890625 167.35525512695312 164.3000946044922 167.86129760742188 C 158.48069763183594 167.86129760742188 152.66217041015625 167.86129760742188 146.8427734375 167.86129760742188 C 146.8427734375 165.60000610351562 146.8427734375 163.33871459960938 146.8427734375 161.07742309570312 C 149.64007568359375 161.07742309570312 152.43649291992188 161.07742309570312 155.23379516601562 161.07742309570312 C 165.2292938232422 160.57139587402344 172.42221069335938 153.37759399414062 172.92913818359375 143.382080078125 C 172.92913818359375 135.4600830078125 172.92913818359375 127.5372085571289 172.92913818359375 119.61520385742188 C 172.423095703125 109.61881256103516 165.2292938232422 102.42589569091797 155.23379516601562 101.91986083984375 C 152.43649291992188 101.91986083984375 149.64007568359375 101.91986083984375 146.8427734375 101.91986083984375 C 146.8427734375 99.02912139892578 146.8427734375 96.1392593383789 146.8427734375 93.2493896484375" stroke-width="0.0" fill="rgb(254, 72, 147)" opacity="1.0"/>
    <path d="M 56.02101516723633 80.8515396118164 C 62.4099235534668 80.8515396118164 68.79794311523438 80.8515396118164 75.18685913085938 80.8515396118164 C 77.19071960449219 86.42849731445312 81.13496398925781 89.98749542236328 86.88648986816406 91.414794921875 C 86.88648986816406 91.414794921875 86.88648986816406 91.414794921875 86.88648986816406 91.414794921875 C 86.3778076171875 92.65431213378906 86.06924438476562 93.70693969726562 86.43687438964844 95.05841827392578 C 87.85800170898438 100.2818603515625 96.05593872070312 99.29094696044922 95.931640625 93.77569580078125 C 95.89636993408203 92.23291015625 95.59574890136719 92.05835723876953 94.87460327148438 90.77474975585938 C 94.87460327148438 90.77474975585938 94.87460327148438 90.77474975585938 94.87460327148438 90.77474975585938 C 96.70567321777344 90.00777435302734 98.22994995117188 89.0997314453125 99.77362060546875 87.8522720336914 C 99.77362060546875 87.8522720336914 99.77362060546875 87.8522720336914 99.77362060546875 87.8522720336914 C 105.83810424804688 98.33265686035156 118.16895294189453 103.69539642333984 129.84829711914062 99.47872924804688 C 132.99559020996094 98.3432388305664 135.6976776123047 96.56241607666016 138.2137451171875 94.38841247558594 C 138.21197509765625 120.30020904541016 138.21109008789062 146.21112060546875 138.21022033691406 172.1229248046875 C 137.61602783203125 180.78634643554688 131.46514892578125 186.86581420898438 122.79643249511719 187.367431640625 C 105.67677307128906 187.36920166015625 88.55622100830078 187.37008666992188 71.43567657470703 187.37095642089844 C 62.680572509765625 186.86492919921875 56.527931213378906 180.7122802734375 56.02101516723633 171.9580535888672 C 56.02101516723633 141.58892822265625 56.02101516723633 111.21978759765625 56.02101516723633 80.8515396118164" stroke-width="0.0" fill="rgb(254, 181, 120)" opacity="1.0"/>
    <path d="M 97.67013549804688 36.635215759277344 C 97.67013549804688 36.635215759277344 97.67013549804688 36.635215759277344 97.67013549804688 36.635215759277344 C 105.99855041503906 36.990501403808594 113.50091552734375 41.3896484375 116.98320770263672 49.16442108154297 C 117.94503021240234 51.31198501586914 118.54362487792969 53.619117736816406 118.7437515258789 55.96415328979492 C 118.94210815429688 58.29597091674805 118.87775421142578 60.6956672668457 121.45376586914062 61.763275146484375 C 123.84642028808594 62.755069732666016 127.41863250732422 62.00483703613281 128.47389221191406 59.457027435302734 C 128.9922637939453 58.20428466796875 128.65374755859375 57.48137664794922 129.06192016601562 56.23039627075195 C 129.874755859375 53.74077606201172 132.6253204345703 52.360198974609375 135.1140594482422 53.106910705566406 C 140.03158569335938 54.58269500732422 137.13819885253906 61.876121520996094 142.89059448242188 62.09210968017578 C 144.05517578125 62.136192321777344 144.4774627685547 61.753578186035156 145.448974609375 61.24225616455078 C 145.448974609375 61.24225616455078 145.448974609375 61.24225616455078 145.448974609375 61.24225616455078 C 146.48043823242188 61.86553955078125 146.86306762695312 61.94312286376953 147.5586395263672 62.974586486816406 C 149.09613037109375 65.25526428222656 148.35824584960938 68.44486999511719 145.98057556152344 69.81399536132812 C 144.76663208007812 70.51397705078125 143.54385375976562 70.25037384033203 142.26730346679688 70.65855407714844 C 140.7615509033203 71.13990783691406 139.59254455566406 72.07439422607422 138.69509887695312 73.33771514892578 C 137.26251220703125 75.3565673828125 137.65745544433594 77.40803527832031 137.15142822265625 79.7213363647461 C 136.442626953125 82.96736145019531 134.69354248046875 85.94891357421875 132.2294921875 88.17405700683594 C 125.30192565917969 94.43160247802734 114.23087310791016 93.29082489013672 108.65655517578125 85.83078002929688 C 106.58216857910156 83.05376434326172 105.71468353271484 79.9390869140625 105.4898681640625 76.52820587158203 C 105.4898681640625 76.44886016845703 105.4898681640625 76.36952209472656 105.4898681640625 76.29016876220703 C 104.85953521728516 72.62010192871094 101.39222717285156 70.68147277832031 98.0721435546875 72.9947738647461 C 96.1097183227539 74.36212921142578 96.54962921142578 76.24961853027344 96.0039291381836 78.25965118408203 C 95.244873046875 81.05695343017578 92.60273742675781 83.04934692382812 89.71199035644531 83.05023956298828 C 86.81683349609375 83.052001953125 84.17382049560547 81.06488037109375 83.41565704345703 78.26053619384766 C 82.943115234375 76.51145935058594 83.33366394042969 74.89108276367188 81.9178237915039 73.474365234375 C 80.82464599609375 72.38118743896484 80.30803680419922 72.50020599365234 78.8657455444336 72.20751953125 C 69.81266784667969 72.20927429199219 60.758697509765625 72.21015930175781 51.70561599731445 72.2110366821289 C 50.23070526123047 72.38383483886719 48.803409576416016 72.29920196533203 47.537445068359375 71.37440490722656 C 45.18535232543945 69.65706634521484 44.9376220703125 66.15097045898438 46.98379898071289 64.10566711425781 C 49.09345626831055 61.99601745605469 52.528141021728516 63.40833282470703 54.12999725341797 60.50788879394531 C 54.9049186706543 59.104393005371094 54.654544830322266 57.534271240234375 55.05655288696289 56.048789978027344 C 55.648983001708984 53.863319396972656 57.42980194091797 52.07985305786133 59.615272521972656 51.487422943115234 C 63.03673553466797 50.559104919433594 66.71033477783203 52.612335205078125 67.64482116699219 56.05143356323242 C 67.93927764892578 57.134029388427734 67.77970886230469 58.40176010131836 68.21874237060547 59.46055603027344 C 69.37627410888672 62.25080108642578 73.12128448486328 62.94902038574219 75.24504089355469 60.83584213256836 C 76.64765930175781 59.440277099609375 76.44400787353516 57.75819778442383 76.59652709960938 55.96415328979492 C 76.74727630615234 54.19744110107422 77.12371826171875 52.45100402832031 77.7126235961914 50.777740478515625 C 80.75148010253906 42.140769958496094 88.73783111572266 37.01606369018555 97.67013549804688 36.635215759277344 C 97.67013549804688 36.635215759277344 97.67013549804688 36.635215759277344 97.67013549804688 36.635215759277344" stroke-width="0.0" fill="rgb(95, 205, 254)" opacity="1.0"/>
    <path d="M 141.1150665283203 71.24481201171875 C 141.1150665283203 71.24481201171875 141.1150665283203 71.24481201171875 141.1150665283203 71.24481201171875 C 140.73951721191406 71.63007354736328 140.36483764648438 72.01532745361328 139.9892578125 72.40058898925781 C 139.9892578125 72.40058898925781 139.9892578125 72.40058898925781 139.9892578125 72.40058898925781 C 139.55816650390625 72.71443176269531 139.1270751953125 73.02739715576172 138.69509887695312 73.34124755859375 C 138.69509887695312 73.34124755859375 138.69509887695312 73.34124755859375 138.69509887695312 73.34124755859375 C 139.3509979248047 72.50020599365234 140.18939208984375 71.77729797363281 141.1150665283203 71.24834442138672 C 141.1150665283203 71.24834442138672 141.1150665283203 71.24834442138672 141.1150665283203 71.24834442138672 C 141.1150665283203 71.24834442138672 141.1150665283203 71.24481201171875 141.1150665283203 71.24481201171875" stroke-width="0.0" fill="rgb(106, 103, 180)" opacity="1.0"/>
    <path d="M 108.04737091064453 161.4908905029297 C 108.04737091064453 161.4908905029297 108.04737091064453 161.4908905029297 108.04737091064453 161.4908905029297 C 106.34325408935547 161.83294677734375 104.9900131225586 162.2552490234375 104.25387573242188 164.0281219482422 C 103.14923858642578 166.6905517578125 105.1751480102539 169.71353149414062 108.05442810058594 169.70999145507812 C 110.94869995117188 169.7064666748047 112.9543228149414 166.66937255859375 111.83822631835938 164.0052032470703 C 111.10738372802734 162.26052856445312 109.72416687011719 161.8223876953125 108.04737091064453 161.4908905029297 C 108.04737091064453 161.4908905029297 108.04737091064453 161.4908905029297 108.04737091064453 161.4908905029297" stroke-width="0.0" fill="rgb(79, 70, 163)" opacity="1.0"/>
    <path d="M 126.95402526855469 109.45396423339844 C 126.95402526855469 109.45396423339844 126.95402526855469 109.45396423339844 126.95402526855469 109.45396423339844 C 125.37421417236328 109.76692962646484 124.10118865966797 110.16804504394531 123.42236328125 111.8131103515625 C 122.4023666381836 114.2824478149414 124.2713394165039 117.11412811279297 126.95402526855469 117.10619354248047 C 129.65611267089844 117.09825134277344 131.5030517578125 114.27980041503906 130.4768829345703 111.79194641113281 C 129.80421447753906 110.16099548339844 128.51622009277344 109.76780700683594 126.95402526855469 109.45396423339844 C 126.95402526855469 109.45396423339844 126.95402526855469 109.45396423339844 126.95402526855469 109.45396423339844" stroke-width="0.0" fill="rgb(79, 70, 163)" opacity="1.0"/>
    <path d="M 66.77116394042969 98.60594940185547 C 66.77116394042969 98.60594940185547 66.77116394042969 98.60594940185547 66.77116394042969 98.60594940185547 C 64.7919921875 98.87307739257812 63.136356353759766 99.49459838867188 62.07051086425781 101.32478332519531 C 60.0551872253418 104.78856658935547 62.662940979003906 109.58267211914062 66.77381134033203 109.45396423339844 C 70.84765625 109.32701110839844 73.57354736328125 104.91816711425781 71.45330810546875 101.2992172241211 C 70.38922119140625 99.48402404785156 68.73712158203125 98.8713150024414 66.77116394042969 98.60594940185547 C 66.77116394042969 98.60594940185547 66.77116394042969 98.60594940185547 66.77116394042969 98.60594940185547" stroke-width="0.0" fill="rgb(79, 70, 163)" opacity="1.0"/>
    <path d="M 98.45828247070312 114.83697509765625 C 98.45828247070312 114.83697509765625 98.45828247070312 114.83697509765625 98.45828247070312 114.83697509765625 C 95.47937774658203 115.13758850097656 92.91041564941406 116.13908386230469 91.17279052734375 118.73361206054688 C 87.36166381835938 124.42694091796875 91.61711120605469 132.3392333984375 98.45828247070312 132.32249450683594 C 105.32324981689453 132.306640625 109.57429504394531 124.40666198730469 105.70762634277344 118.69306182861328 C 103.97176361083984 116.12850189208984 101.41691589355469 115.12789154052734 98.45828247070312 114.83697509765625 C 98.45828247070312 114.83697509765625 98.45828247070312 114.83697509765625 98.45828247070312 114.83697509765625" stroke-width="0.0" fill="rgb(79, 70, 162)" opacity="1.0"/>
    <path d="M 73.15301513671875 138.47425842285156 C 73.15301513671875 138.47425842285156 73.15301513671875 138.47425842285156 73.15301513671875 138.47425842285156 C 71.07245635986328 138.72109985351562 69.29869079589844 139.30294799804688 68.0045166015625 141.08200073242188 C 65.0018081665039 145.20785522460938 68.00275421142578 151.2344512939453 73.15301513671875 151.21328735351562 C 77.94712829589844 151.1929931640625 81.09793853759766 145.8452606201172 78.6656265258789 141.66561889648438 C 77.41728973388672 139.51806640625 75.47602081298828 138.7810516357422 73.15301513671875 138.47425842285156 C 73.15301513671875 138.47425842285156 73.15301513671875 138.47425842285156 73.15301513671875 138.47425842285156" stroke-width="0.0" fill="rgb(79, 70, 163)" opacity="1.0"/>
  </g>
</svg>
