<?xml version="1.0" ?>
<svg xmlns="http://www.w3.org/2000/svg" version="1.1" width="224" height="224">
  <defs/>
  <g>
    <path d="M 148.530517578125 28.0 C 148.530517578125 28.0 148.530517578125 28.0 148.530517578125 28.0 C 147.40589904785156 28.102638244628906 146.6134033203125 28.32330322265625 145.5972900390625 28.815963745117188 C 140.16629028320312 32.08570098876953 134.73529052734375 35.355438232421875 129.3043212890625 38.62517547607422 C 126.60861206054688 40.61634826660156 125.91214752197266 43.42347717285156 127.34906768798828 46.44835662841797 C 132.98019409179688 55.808162689208984 138.61207580566406 65.16796875 144.2432098388672 74.52777099609375 C 146.33773803710938 77.13917541503906 149.02610778808594 77.93681335449219 152.06857299804688 76.45956420898438 C 153.75843811035156 75.44271850585938 155.4482879638672 74.42587280273438 157.1381378173828 73.40829467773438 C 164.72378540039062 86.01658630371094 172.31015014648438 98.62413024902344 179.89581298828125 111.23168182373047 C 174.71847534179688 117.06076049804688 169.5404052734375 122.89056396484375 164.3623504638672 128.7203826904297 C 163.61749267578125 127.48286437988281 162.87191772460938 126.24534606933594 162.12704467773438 125.00782775878906 C 161.28616333007812 123.90301513671875 160.59115600585938 123.3113784790039 159.36758422851562 122.65522766113281 C 159.36758422851562 122.65522766113281 159.36758422851562 122.65522766113281 159.36758422851562 122.65522766113281 C 158.3382568359375 113.62606811523438 155.56484985351562 104.92681121826172 150.8721160888672 97.11975860595703 C 136.43540954589844 73.10258483886719 106.56717681884766 61.65629959106445 79.77584838867188 69.92814636230469 C 72.73785400390625 72.10113525390625 66.10673522949219 75.55561828613281 60.268856048583984 80.04527282714844 C 54.27556228637695 84.65443420410156 49.148094177246094 90.36474609375 45.23027038574219 96.8331069946289 C 41.020660400390625 103.78239440917969 38.223052978515625 111.56745147705078 36.98700714111328 119.59590148925781 C 35.763427734375 127.54224395751953 36.106529235839844 135.70999145507812 38.024383544921875 143.5192413330078 C 39.84766387939453 150.9443359375 43.07928466796875 158.00433349609375 47.454566955566406 164.2710723876953 C 51.521217346191406 170.09722900390625 56.58784103393555 175.2136993408203 62.394187927246094 179.30966186523438 C 86.04994201660156 196.0 119.0259017944336 193.64959716796875 140.16921997070312 173.91680908203125 C 146.1918487548828 168.2966766357422 150.8647918701172 161.53945922851562 154.2987518310547 154.07183837890625 C 154.2987518310547 154.07183837890625 154.2987518310547 154.07183837890625 154.2987518310547 154.07183837890625 C 154.52748107910156 153.9560089111328 154.75621032714844 153.83944702148438 154.98495483398438 153.72286987304688 C 159.33531188964844 151.10488891601562 163.6849365234375 148.4868927001953 168.03530883789062 145.868896484375 C 170.71194458007812 143.79196166992188 171.37249755859375 141.13365173339844 169.97808837890625 138.0457305908203 C 169.401123046875 137.0853271484375 168.8241424560547 136.12420654296875 168.24644470214844 135.1630859375 C 174.47579956054688 128.14927673339844 180.70590209960938 121.13619995117188 186.93527221679688 114.12239837646484 C 188.00709533691406 112.85775756835938 188.236572265625 111.30426025390625 187.41253662109375 109.79182434082031 C 179.37234497070312 96.43135070800781 171.33216857910156 83.07087707519531 163.2919921875 69.71041107177734 C 164.98550415039062 68.69210052490234 166.6790313720703 67.67452239990234 168.37254333496094 66.65621185302734 C 171.05064392089844 64.65038299560547 171.75299072265625 61.853515625 170.31019592285156 58.830101013183594 C 164.68125915527344 49.47616195678711 159.05160522460938 40.122215270996094 153.42266845703125 30.768280029296875 C 152.092041015625 29.00878143310547 150.72402954101562 28.234596252441406 148.530517578125 28.0 C 148.530517578125 28.0 148.530517578125 28.0 148.530517578125 28.0" stroke-width="0.0" fill="rgb(79, 70, 163)" opacity="1.0"/>
    <path d="M 69.92485046386719 82.13835144042969 C 69.92485046386719 82.13835144042969 69.92485046386719 82.13835144042969 69.92485046386719 82.13835144042969 C 76.34262084960938 78.40673828125 83.28971862792969 75.84740447998047 90.66642761230469 74.85841369628906 C 113.0509262084961 71.85553741455078 135.60113525390625 83.38172912597656 146.1654510498047 103.36378479003906 C 149.60748291015625 109.87246704101562 151.581787109375 116.93685913085938 152.30905151367188 124.2468490600586 C 148.62142944335938 126.46675109863281 144.93380737304688 128.68739318847656 141.24618530273438 130.90728759765625 C 138.56808471679688 132.98423767089844 137.90899658203125 135.64328002929688 139.30853271484375 138.729736328125 C 141.9228515625 143.072021484375 144.5371856689453 147.41433715820312 147.15150451660156 151.7566375732422 C 147.2123565673828 151.85267639160156 147.27320861816406 151.94944763183594 147.3347930908203 152.0454864501953 C 147.3347930908203 152.0454864501953 147.3347930908203 152.0454864501953 147.3347930908203 152.0454864501953 C 143.91915893554688 159.10548400878906 139.25428771972656 165.39422607421875 133.24559020996094 170.4659881591797 C 113.34564208984375 187.26333618164062 83.42681884765625 187.58372497558594 63.297401428222656 170.96743774414062 C 58.515960693359375 167.02102661132812 54.44124984741211 162.24838256835938 51.251426696777344 156.9339599609375 C 48.06159973144531 151.61953735351562 45.76618194580078 145.7779998779297 44.53086853027344 139.7018585205078 C 43.20830535888672 133.19757080078125 43.108604431152344 126.46382141113281 44.208290100097656 119.9192123413086 C 45.396690368652344 112.84455871582031 47.958961486816406 106.00596618652344 51.762413024902344 99.92029571533203 C 56.33930587768555 92.59710693359375 62.60166549682617 86.66392517089844 69.92485046386719 82.13835144042969 C 69.92485046386719 82.13835144042969 69.92485046386719 82.13835144042969 69.92485046386719 82.13835144042969" stroke-width="0.0" fill="rgb(138, 134, 193)" opacity="1.0"/>
    <path d="M 148.02392578125 35.734466552734375 C 153.14773559570312 44.24678039550781 158.27154541015625 52.75982666015625 163.39535522460938 61.27214813232422 C 158.80526733398438 64.03236389160156 154.2144317626953 66.79257202148438 149.6243438720703 69.55279541015625 C 144.5027313232422 61.04047393798828 139.38111877441406 52.52816390991211 134.25950622558594 44.015113830566406 C 138.84739685058594 41.25489807128906 143.43603515625 38.49468231201172 148.02392578125 35.734466552734375" stroke-width="0.0" fill="rgb(254, 180, 120)" opacity="1.0"/>
    <path d="M 156.73419189453125 129.96229553222656 C 158.8448486328125 133.4673614501953 160.9547882080078 136.97315979003906 163.06546020507812 140.47897338867188 C 159.56039428710938 142.5896453857422 156.05458068847656 144.69956970214844 152.5495147705078 146.81024169921875 C 150.4388427734375 143.30517578125 148.3281707763672 139.7993621826172 146.21749877929688 136.29429626464844 C 149.7233123779297 134.18362426757812 153.2291259765625 132.07296752929688 156.73419189453125 129.96229553222656" stroke-width="0.0" fill="rgb(254, 72, 147)" opacity="1.0"/>
    <path d="M 97.96762084960938 107.55872344970703 C 97.96762084960938 107.55872344970703 97.96762084960938 107.55872344970703 97.96762084960938 107.55872344970703 C 94.56591796875 107.678955078125 91.32110595703125 108.34024047851562 88.27057647705078 109.90325927734375 C 85.63719177246094 111.25221252441406 83.29191589355469 113.1488037109375 81.42977905273438 115.44934844970703 C 72.32949829101562 126.68888854980469 77.20038604736328 144.0316925048828 90.79325103759766 148.93045043945312 C 93.09893798828125 149.76107788085938 95.54244232177734 150.190673828125 97.99327850341797 150.193603515625 C 100.87152099609375 150.196533203125 103.74610900878906 149.6012420654297 106.38975524902344 148.46563720703125 C 119.14099884033203 142.98773193359375 123.31248474121094 126.2849349975586 114.56263732910156 115.48600769042969 C 112.72615051269531 113.21918487548828 110.41901397705078 111.3423843383789 107.83328247070312 109.9934310913086 C 104.73582458496094 108.37689208984375 101.438232421875 107.68408966064453 97.96981811523438 107.56165313720703 C 97.96981811523438 107.56165313720703 97.96981811523438 107.56165313720703 97.96981811523438 107.56165313720703 C 97.96981811523438 107.56165313720703 97.96762084960938 107.55872344970703 97.96762084960938 107.55872344970703" stroke-width="0.0" fill="rgb(79, 70, 163)" opacity="1.0"/>
    <path d="M 97.96981811523438 114.73748779296875 C 97.96981811523438 114.73748779296875 97.96981811523438 114.73748779296875 97.96981811523438 114.73748779296875 C 100.94630432128906 114.88997650146484 103.69845581054688 115.57617950439453 106.16322326660156 117.32688903808594 C 115.22537994384766 123.76519012451172 113.36837768554688 138.18869018554688 102.97193145751953 142.10723876953125 C 101.39057922363281 142.70327758789062 99.68533325195312 143.02804565429688 97.99327850341797 143.01779174804688 C 96.03436279296875 143.0053253173828 94.09598541259766 142.6248321533203 92.29762268066406 141.84039306640625 C 81.91804504394531 137.31187438964844 81.14312744140625 122.58338928222656 90.70307922363281 116.75871276855469 C 92.9391098022461 115.39583587646484 95.38481140136719 114.85698699951172 97.96981811523438 114.73748779296875 C 97.96981811523438 114.73748779296875 97.96981811523438 114.73748779296875 97.96981811523438 114.73748779296875" stroke-width="0.0" fill="rgb(95, 206, 254)" opacity="1.0"/>
    <path d="M 97.9786148071289 119.52626037597656 C 97.9786148071289 119.52626037597656 97.9786148071289 119.52626037597656 97.9786148071289 119.52626037597656 C 95.30416870117188 119.70806884765625 92.90831756591797 120.5541000366211 91.05864715576172 122.5899887084961 C 85.68338012695312 128.5063018798828 90.06086730957031 138.16375732421875 97.98741149902344 138.22901916503906 C 105.12218475341797 138.28765869140625 109.65802764892578 130.1272430419922 105.9990005493164 124.05770874023438 C 104.22850799560547 121.12081146240234 101.28280639648438 119.77991485595703 97.9786148071289 119.52626037597656 C 97.9786148071289 119.52626037597656 97.9786148071289 119.52626037597656 97.9786148071289 119.52626037597656" stroke-width="0.0" fill="rgb(79, 70, 163)" opacity="1.0"/>
    <path d="M 97.9786148071289 126.70208740234375 C 97.9786148071289 126.70281982421875 97.9786148071289 126.70428466796875 97.9786148071289 126.70501708984375 C 98.88035583496094 126.93815612792969 99.31657409667969 126.86116790771484 99.84514617919922 127.75558471679688 C 100.69557189941406 129.1932373046875 99.65380859375 131.02972412109375 97.98741149902344 131.0531768798828 C 96.35987091064453 131.07662963867188 95.29097747802734 129.24749755859375 96.07542419433594 127.83256530761719 C 96.6025390625 126.88243103027344 97.03361511230469 126.96821594238281 97.9786148071289 126.70501708984375 C 97.9786148071289 126.70501708984375 97.9786148071289 126.70501708984375 97.9786148071289 126.70501708984375 C 97.9786148071289 126.70501708984375 97.9786148071289 126.70208740234375 97.9786148071289 126.70208740234375" stroke-width="0.0" fill="rgb(253, 253, 254)" opacity="1.0"/>
  </g>
</svg>
