<?xml version="1.0" ?>
<svg xmlns="http://www.w3.org/2000/svg" version="1.1" width="224" height="224">
  <defs/>
  <g>
    <path d="M 77.69683837890625 192.83261108398438 C 65.47294616699219 187.57168579101562 54.664146423339844 171.5750732421875 49.97911071777344 152.3022003173828 C 47.17549133300781 140.25234985351562 47.641204833984375 123.10455322265625 51.29347229003906 111.33627319335938 C 59.607940673828125 86.07560729980469 80.9499740600586 70.21955871582031 98.48722839355469 76.54761505126953 C 107.03890991210938 80.27706909179688 106.40534973144531 80.4275894165039 105.76979064941406 71.58948516845703 C 106.17439270019531 65.37408447265625 105.93132781982422 63.507720947265625 104.7950668334961 63.24418258666992 C 102.85298919677734 62.400596618652344 102.77806854248047 60.12407302856445 103.94549560546875 57.706119537353516 C 104.41259002685547 56.62351608276367 106.18889617919922 52.77432632446289 107.76941680908203 49.23661422729492 C 111.63953399658203 41.471473693847656 116.98644256591797 36.133636474609375 124.8676986694336 32.54035949707031 C 135.0685577392578 28.0 152.5198211669922 29.60187530517578 158.26168823242188 35.75371551513672 C 160.2087860107422 37.78106689453125 160.26087951660156 39.16691589355469 159.44168090820312 42.613311767578125 C 156.8668670654297 51.08430099487305 146.69515991210938 60.777313232421875 137.035400390625 64.14830780029297 C 132.80154418945312 65.55075073242188 118.30463409423828 65.26111602783203 114.66384887695312 63.34282684326172 C 113.34971618652344 62.16944885253906 113.1611328125 62.8569450378418 113.26057434082031 71.36419677734375 C 113.30536651611328 79.56370544433594 113.39734649658203 80.2822036743164 114.82701110839844 79.7568130493164 C 119.86504364013672 77.57203674316406 128.47515869140625 75.25294494628906 131.5803985595703 75.03909301757812 C 145.39903259277344 75.03076934814453 161.04197692871094 88.02344512939453 168.71218872070312 105.61225128173828 C 174.91981506347656 119.76908111572266 176.8245086669922 137.30661010742188 173.5149688720703 152.86172485351562 C 170.45703125 168.59890747070312 158.77862548828125 187.13568115234375 148.76466369628906 192.33688354492188 C 145.41961669921875 194.36398315429688 142.84034729003906 194.40467834472656 137.46273803710938 194.81884765625 C 131.34739685058594 194.5585479736328 129.44488525390625 194.12210083007812 123.07551574707031 190.58157348632812 C 119.14177703857422 188.4426727294922 114.4673843383789 186.67303466796875 112.52953338623047 186.7482452392578 C 111.08653259277344 186.76329040527344 105.88276672363281 188.7366485595703 101.18084716796875 191.1300506591797 C 91.42411804199219 195.71536254882812 84.82903289794922 196.0 77.69683837890625 192.83261108398438" stroke-width="1.0" fill="rgb(89, 49, 158)" opacity="0.9966203"/>
    <path d="M 116.04296875 56.769012451171875 C 113.99519348144531 56.52985382080078 112.24366760253906 55.95573806762695 112.13318634033203 55.778465270996094 C 111.91167449951172 55.404109954833984 112.71944427490234 53.4132194519043 114.05656433105469 51.11555862426758 C 119.8194580078125 40.03924560546875 133.83181762695312 34.217681884765625 146.85574340820312 37.739967346191406 C 154.84738159179688 39.7069091796875 154.89910888671875 41.188209533691406 147.56417846679688 49.23953628540039 C 140.37277221679688 57.370601654052734 127.81163024902344 60.26689147949219 116.04296875 56.769012451171875" stroke-width="1.0" fill="rgb(80, 192, 107)" opacity="0.988961"/>
    <path d="M 79.16854095458984 186.5126953125 C 74.12329864501953 184.23171997070312 66.41075134277344 174.90826416015625 62.404022216796875 166.87242126464844 C 50.12800598144531 141.84542846679688 53.16991424560547 110.2016830444336 69.69416809082031 92.46588134765625 C 79.66983032226562 81.71574401855469 88.29801177978516 79.55175018310547 101.4089126586914 84.97734832763672 C 109.63570404052734 88.48117065429688 111.21338653564453 88.48055267333984 120.552490234375 84.83541870117188 C 133.60501098632812 79.5386734008789 140.99774169921875 81.14690399169922 150.84974670410156 91.27928924560547 C 173.13294982910156 113.42031860351562 174.14988708496094 156.41787719726562 152.94056701660156 179.665771484375 C 144.40187072753906 189.6040496826172 138.21206665039062 190.4991455078125 126.28208923339844 184.41734313964844 C 120.26667022705078 181.50828552246094 117.837890625 180.9188232421875 112.7369384765625 180.84906005859375 C 107.54581451416016 180.80029296875 105.01692962646484 181.4817657470703 99.00979614257812 184.35427856445312 C 90.70439910888672 188.75155639648438 84.79336547851562 189.5122528076172 79.16854095458984 186.5126953125" stroke-width="1.0" fill="rgb(254, 44, 108)" opacity="0.99564445"/>
  </g>
</svg>
