<?xml version="1.0" encoding="UTF-8"?>
<svg xmlns="http://www.w3.org/2000/svg" version="1.1" viewBox="0 0 224 224">
  <defs>
    <style>
      .cls-1 {
        fill: #e4097b;
        opacity: 1;
      }

      .cls-1, .cls-2 {
        isolation: isolate;
      }

      .cls-2 {
        fill: #e40b7a;
        opacity: 1;
      }

      .cls-3 {
        fill: #feb478;
      }

      .cls-4 {
        fill: #4f46a3;
      }

      .cls-5 {
        fill: #5fceff;
      }
    </style>
  </defs>
  <!-- Generator: Adobe Illustrator 28.6.0, SVG Export Plug-In . SVG Version: 1.2.0 Build 709)  -->
  <g>
    <g id="_图层_1" data-name="图层_1">
      <g>
        <path class="cls-4" d="M58.7,193.7c-1.4-1.3-4.2-19.2-7.3-39.3-7.1-43.8-6.6-41.9-9.3-41.7-2.7-.3-5.9-3.9-5.7-7.1,0-1.6,1-3.4,2.8-5,3.2-.7,4.2-2.3,5.1-7,3.6-17.9,21.2-28.2,39.3-23.3,6.5,2.4,6.2,2.5,8.8-.3,3.6-2.8,3.5-5.6-.8-13-3-6.3-9.4-10.8-15.8-13.6-4.9-2.2-6.3-6.4-2.5-9.7,7.6-5.7,27.2,7.3,32.4,21.7,1.9,6.2,1.9,6.4,6.6,6,4.8.6,4.9.5,6.7-6,5.4-11.1,13.6-18.3,24.4-21.9,5.4-2.1,9.2-1.3,11,1.6,2.1,3.6.2,6.1-6.2,9.6-8.6,2.8-14.5,9.2-17.3,15.6l-1.6,5.9,2.9,3.1,3.1,3.8,5.7-2.6c12.6-3.8,25.2-.7,33.1,8.9,3.8,4.2,7.3,13.1,7,18.4,0,1.2.9,2.4,2.8,2.3,2.3.9,3.7,4.5,3.2,8.6-.2,1.2-1.9,2.5-4.3,3.4-2.5.2-4.1,1.2-4.3,2.6-.1,1.7-3,19.3-6.4,39.5-3,20.4-5.9,38.2-7.1,39.2l-2.8,2.5H60.8c0-.1-2.2-2.3-2.2-2.3"/>
        <path class="cls-3" d="M106.3,141.7v-42c0,0,12,0,12,0l.2,83.2-12.1.2v-41.5"/>
        <path class="cls-3" d="M101.9,83.2c-.9-1.8.5-3.5,3.4-5.8,3.2-2.8,4.8-3.5,8.2-2.7,2.6.7,6,2.3,8,4.1,3.9,5,1.8,6.7-9.7,5.9-7.5.4-9.7-.2-9.9-1.5"/>
        <path class="cls-5" d="M59.9,87.7c0-.1,2.2-1.6,5-3.2,5.5-3.3,11.4-3.8,17.6-.7,9.2,4.2,7.1,5.4-7.9,4.7-8.1,0-14.6-.5-14.7-.8"/>
        <path class="cls-5" d="M146.9,101.6c-4.5,0-9,0-13.5.3-1.5.1-2.8.7-4.3.4s-3.9-1.7-3.8-1.8c3.6-2.3,10.7-2.4,14.8-2.9,6.1-.8,12.3-.7,18.4-.7,3.7,0,7.6.5,10.1,3.5-7.1.9-14.5,1.3-21.7,1.2Z"/>
        <path class="cls-5" d="M139.4,85.2c7-5,17.9-4.9,22.6.2l3,3h-30.3c0,0,4.7-3.2,4.7-3.2"/>
        <path class="cls-5" d="M72.1,101.6c-5.2,0-10.4-.2-15.5-.4s-4.7.3-5.1-1.2,3-1.3,3.8-1.4c5-.3,10.3-1.2,15.3-1s24.8.6,24.3,2.4c0,.3-.3.5-.6.7-.8.5-2.2.5-3.1.6-2.4.2-4.8.2-7.1.2-4,0-7.9,0-11.9,0Z"/>
        <path class="cls-1" d="M68.5,180.4c-.7-5.3-10.6-65.1-10.7-66.9-.1-.1,7.9-.3,18-.6h18.4c0-.1.2,70.3.2,70.3l-25.1.3-.8-3.1"/>
        <path class="cls-2" d="M130.6,148.2v-35.6c0,0,17.4.5,17.4.5,16.1-.5,17.3-.5,17.8,1.6-.3,1.4-1.6,9.9-3.1,19-1.5,8.7-3.9,23.8-5,33.7l-2.7,16h-24.3c0,.1-.1-35.2-.1-35.2"/>
      </g>
    </g>
  </g>
</svg>