<?xml version="1.0" ?>
<svg xmlns="http://www.w3.org/2000/svg" version="1.1" width="224" height="224">
  <defs/>
  <g>
    <path d="M 76.94223022460938 56.235294342041016 C 81.64705657958984 56.235294342041016 86.35294342041016 56.235294342041016 91.05776977539062 56.235294342041016 C 91.05776977539062 60.94117736816406 91.05776977539062 65.64704895019531 91.05776977539062 70.35189056396484 C 86.35294342041016 70.35189056396484 81.64705657958984 70.35189056396484 76.94223022460938 70.35189056396484 C 76.94223022460938 65.64704895019531 76.94223022460938 60.94117736816406 76.94223022460938 56.235294342041016" stroke-width="0.0" fill="rgb(255, 18, 86)" opacity="1.0" stroke="rgb(0, 0, 0)" stroke-opacity="1.0" stroke-linecap="round" stroke-linejoin="round"/>
    <path d="M 105.17752075195312 42.587181091308594 C 109.88340759277344 42.587181091308594 114.5882339477539 42.587181091308594 119.29412078857422 42.587181091308594 C 119.29412078857422 47.292015075683594 119.29412078857422 51.997901916503906 119.29412078857422 56.70378112792969 C 114.5882339477539 56.70378112792969 109.88340759277344 56.70378112792969 105.17752075195312 56.70378112792969 C 105.17752075195312 51.997901916503906 105.17752075195312 47.292015075683594 105.17752075195312 42.587181091308594" stroke-width="0.0" fill="rgb(0, 153, 68)" opacity="1.0" stroke="rgb(0, 0, 0)" stroke-opacity="1.0" stroke-linecap="round" stroke-linejoin="round"/>
    <path d="M 91.06198120117188 56.235294342041016 C 95.76785278320312 56.235294342041016 100.47268676757812 56.235294342041016 105.17752075195312 56.235294342041016 C 105.17752075195312 60.94117736816406 105.17752075195312 65.64704895019531 105.17752075195312 70.35189056396484 C 100.47268676757812 70.35189056396484 95.76785278320312 70.35189056396484 91.06198120117188 70.35189056396484 C 91.06198120117188 65.64704895019531 91.06198120117188 60.94117736816406 91.06198120117188 56.235294342041016" stroke-width="0.0" fill="rgb(255, 18, 86)" opacity="1.0" stroke="rgb(0, 0, 0)" stroke-opacity="1.0" stroke-linecap="round" stroke-linejoin="round"/>
    <path d="M 105.17752075195312 56.235294342041016 C 109.88340759277344 56.235294342041016 114.5882339477539 56.235294342041016 119.29412078857422 56.235294342041016 C 119.29412078857422 60.94117736816406 119.29412078857422 65.64704895019531 119.29412078857422 70.35189056396484 C 114.5882339477539 70.35189056396484 109.88340759277344 70.35189056396484 105.17752075195312 70.35189056396484 C 105.17752075195312 65.64704895019531 105.17752075195312 60.94117736816406 105.17752075195312 56.235294342041016" stroke-width="0.0" fill="rgb(255, 18, 86)" opacity="1.0" stroke="rgb(0, 0, 0)" stroke-opacity="1.0" stroke-linecap="round" stroke-linejoin="round"/>
    <path d="M 118.8266830444336 56.235294342041016 C 123.53150939941406 56.235294342041016 128.23739624023438 56.235294342041016 132.94223022460938 56.235294342041016 C 132.94223022460938 60.94117736816406 132.94223022460938 65.64704895019531 132.94223022460938 70.35189056396484 C 128.23739624023438 70.35189056396484 123.53150939941406 70.35189056396484 118.8266830444336 70.35189056396484 C 118.8266830444336 65.64704895019531 118.8266830444336 60.94117736816406 118.8266830444336 56.235294342041016" stroke-width="0.0" fill="rgb(255, 18, 86)" opacity="1.0" stroke="rgb(0, 0, 0)" stroke-opacity="1.0" stroke-linecap="round" stroke-linejoin="round"/>
    <path d="M 132.94223022460938 56.235294342041016 C 137.64810180664062 56.235294342041016 142.35398864746094 56.235294342041016 147.05880737304688 56.235294342041016 C 147.05880737304688 60.94117736816406 147.05880737304688 65.64704895019531 147.05880737304688 70.35189056396484 C 142.35398864746094 70.35189056396484 137.64810180664062 70.35189056396484 132.94223022460938 70.35189056396484 C 132.94223022460938 65.64704895019531 132.94223022460938 60.94117736816406 132.94223022460938 56.235294342041016" stroke-width="0.0" fill="rgb(255, 18, 86)" opacity="1.0" stroke="rgb(0, 0, 0)" stroke-opacity="1.0" stroke-linecap="round" stroke-linejoin="round"/>
    <path d="M 63.29621505737305 70.35189056396484 C 68.0020980834961 70.35189056396484 72.70797729492188 70.35189056396484 77.41386413574219 70.35189056396484 C 77.41386413574219 75.05776977539062 77.41386413574219 79.76260375976562 77.41386413574219 84.46849060058594 C 72.70797729492188 84.46849060058594 68.0020980834961 84.46849060058594 63.29621505737305 84.46849060058594 C 63.29621505737305 79.76260375976562 63.29621505737305 75.05776977539062 63.29621505737305 70.35189056396484" stroke-width="0.0" fill="rgb(255, 18, 86)" opacity="1.0" stroke="rgb(0, 0, 0)" stroke-opacity="1.0" stroke-linecap="round" stroke-linejoin="round"/>
    <path d="M 76.94223022460938 70.35189056396484 C 81.64705657958984 70.35189056396484 86.35294342041016 70.35189056396484 91.05776977539062 70.35189056396484 C 91.05776977539062 75.05776977539062 91.05776977539062 79.76260375976562 91.05776977539062 84.46849060058594 C 86.35294342041016 84.46849060058594 81.64705657958984 84.46849060058594 76.94223022460938 84.46849060058594 C 76.94223022460938 79.76260375976562 76.94223022460938 75.05776977539062 76.94223022460938 70.35189056396484" stroke-width="0.0" fill="rgb(255, 255, 255)" opacity="1.0" stroke="rgb(0, 0, 0)" stroke-opacity="1.0" stroke-linecap="round" stroke-linejoin="round"/>
    <path d="M 63.29621505737305 84.47268676757812 C 68.0020980834961 84.47268676757812 72.70797729492188 84.47268676757812 77.41386413574219 84.47268676757812 C 77.41386413574219 89.17752075195312 77.41386413574219 93.88235473632812 77.41386413574219 98.58822631835938 C 72.70797729492188 98.58822631835938 68.0020980834961 98.58822631835938 63.29621505737305 98.58822631835938 C 63.29621505737305 93.88235473632812 63.29621505737305 89.17752075195312 63.29621505737305 84.47268676757812" stroke-width="0.0" fill="rgb(255, 18, 86)" opacity="1.0" stroke="rgb(0, 0, 0)" stroke-opacity="1.0" stroke-linecap="round" stroke-linejoin="round"/>
    <path d="M 76.94223022460938 84.47268676757812 C 81.64705657958984 84.47268676757812 86.35294342041016 84.47268676757812 91.05776977539062 84.47268676757812 C 91.05776977539062 89.17752075195312 91.05776977539062 93.88235473632812 91.05776977539062 98.58822631835938 C 86.35294342041016 98.58822631835938 81.64705657958984 98.58822631835938 76.94223022460938 98.58822631835938 C 76.94223022460938 93.88235473632812 76.94223022460938 89.17752075195312 76.94223022460938 84.47268676757812" stroke-width="0.0" fill="rgb(255, 255, 255)" opacity="1.0" stroke="rgb(0, 0, 0)" stroke-opacity="1.0" stroke-linecap="round" stroke-linejoin="round"/>
    <path d="M 105.17752075195312 70.35189056396484 C 109.88340759277344 70.35189056396484 114.5882339477539 70.35189056396484 119.29412078857422 70.35189056396484 C 119.29412078857422 75.05776977539062 119.29412078857422 79.76260375976562 119.29412078857422 84.46849060058594 C 114.5882339477539 84.46849060058594 109.88340759277344 84.46849060058594 105.17752075195312 84.46849060058594 C 105.17752075195312 79.76260375976562 105.17752075195312 75.05776977539062 105.17752075195312 70.35189056396484" stroke-width="0.0" fill="rgb(255, 255, 255)" opacity="1.0" stroke="rgb(0, 0, 0)" stroke-opacity="1.0" stroke-linecap="round" stroke-linejoin="round"/>
    <path d="M 91.06198120117188 84.47268676757812 C 95.76785278320312 84.47268676757812 100.47268676757812 84.47268676757812 105.17752075195312 84.47268676757812 C 105.17752075195312 89.17752075195312 105.17752075195312 93.88235473632812 105.17752075195312 98.58822631835938 C 100.47268676757812 98.58822631835938 95.76785278320312 98.58822631835938 91.06198120117188 98.58822631835938 C 91.06198120117188 93.88235473632812 91.06198120117188 89.17752075195312 91.06198120117188 84.47268676757812" stroke-width="0.0" fill="rgb(255, 255, 255)" opacity="1.0" stroke="rgb(0, 0, 0)" stroke-opacity="1.0" stroke-linecap="round" stroke-linejoin="round"/>
    <path d="M 105.17752075195312 84.47268676757812 C 109.88340759277344 84.47268676757812 114.5882339477539 84.47268676757812 119.29412078857422 84.47268676757812 C 119.29412078857422 89.17752075195312 119.29412078857422 93.88235473632812 119.29412078857422 98.58822631835938 C 114.5882339477539 98.58822631835938 109.88340759277344 98.58822631835938 105.17752075195312 98.58822631835938 C 105.17752075195312 93.88235473632812 105.17752075195312 89.17752075195312 105.17752075195312 84.47268676757812" stroke-width="0.0" fill="rgb(255, 255, 255)" opacity="1.0" stroke="rgb(0, 0, 0)" stroke-opacity="1.0" stroke-linecap="round" stroke-linejoin="round"/>
    <path d="M 132.94223022460938 70.35189056396484 C 137.64810180664062 70.35189056396484 142.35398864746094 70.35189056396484 147.05880737304688 70.35189056396484 C 147.05880737304688 75.05776977539062 147.05880737304688 79.76260375976562 147.05880737304688 84.46849060058594 C 142.35398864746094 84.46849060058594 137.64810180664062 84.46849060058594 132.94223022460938 84.46849060058594 C 132.94223022460938 79.76260375976562 132.94223022460938 75.05776977539062 132.94223022460938 70.35189056396484" stroke-width="0.0" fill="rgb(255, 255, 255)" opacity="1.0" stroke="rgb(0, 0, 0)" stroke-opacity="1.0" stroke-linecap="round" stroke-linejoin="round"/>
    <path d="M 118.8266830444336 84.47268676757812 C 123.53150939941406 84.47268676757812 128.23739624023438 84.47268676757812 132.94223022460938 84.47268676757812 C 132.94223022460938 89.17752075195312 132.94223022460938 93.88235473632812 132.94223022460938 98.58822631835938 C 128.23739624023438 98.58822631835938 123.53150939941406 98.58822631835938 118.8266830444336 98.58822631835938 C 118.8266830444336 93.88235473632812 118.8266830444336 89.17752075195312 118.8266830444336 84.47268676757812" stroke-width="0.0" fill="rgb(255, 255, 255)" opacity="1.0" stroke="rgb(0, 0, 0)" stroke-opacity="1.0" stroke-linecap="round" stroke-linejoin="round"/>
    <path d="M 132.94223022460938 84.47268676757812 C 137.64810180664062 84.47268676757812 142.35398864746094 84.47268676757812 147.05880737304688 84.47268676757812 C 147.05880737304688 89.17752075195312 147.05880737304688 93.88235473632812 147.05880737304688 98.58822631835938 C 142.35398864746094 98.58822631835938 137.64810180664062 98.58822631835938 132.94223022460938 98.58822631835938 C 132.94223022460938 93.88235473632812 132.94223022460938 89.17752075195312 132.94223022460938 84.47268676757812" stroke-width="0.0" fill="rgb(255, 255, 255)" opacity="1.0" stroke="rgb(0, 0, 0)" stroke-opacity="1.0" stroke-linecap="round" stroke-linejoin="round"/>
    <path d="M 49.17646789550781 98.11659240722656 C 53.88235092163086 98.11659240722656 58.588233947753906 98.11659240722656 63.29306411743164 98.11659240722656 C 63.29306411743164 102.82247924804688 63.29306411743164 107.52730560302734 63.29306411743164 112.23214721679688 C 58.588233947753906 112.23214721679688 53.88235092163086 112.23214721679688 49.17646789550781 112.23214721679688 C 49.17646789550781 107.52730560302734 49.17646789550781 102.82247924804688 49.17646789550781 98.11659240722656" stroke-width="0.0" fill="rgb(255, 18, 86)" opacity="1.0" stroke="rgb(0, 0, 0)" stroke-opacity="1.0" stroke-linecap="round" stroke-linejoin="round"/>
    <path d="M 49.17646789550781 112.23634338378906 C 53.88235092163086 112.23634338378906 58.588233947753906 112.23634338378906 63.29306411743164 112.23634338378906 C 63.29306411743164 116.94222259521484 63.29306411743164 121.64810943603516 63.29306411743164 126.35398864746094 C 58.588233947753906 126.35398864746094 53.88235092163086 126.35398864746094 49.17646789550781 126.35398864746094 C 49.17646789550781 121.64810943603516 49.17646789550781 116.94222259521484 49.17646789550781 112.23634338378906" stroke-width="0.0" fill="rgb(255, 18, 86)" opacity="1.0" stroke="rgb(0, 0, 0)" stroke-opacity="1.0" stroke-linecap="round" stroke-linejoin="round"/>
    <path d="M 63.29621505737305 98.11659240722656 C 68.0020980834961 98.11659240722656 72.70797729492188 98.11659240722656 77.41386413574219 98.11659240722656 C 77.41386413574219 102.82247924804688 77.41386413574219 107.52730560302734 77.41386413574219 112.23214721679688 C 72.70797729492188 112.23214721679688 68.0020980834961 112.23214721679688 63.29621505737305 112.23214721679688 C 63.29621505737305 107.52730560302734 63.29621505737305 102.82247924804688 63.29621505737305 98.11659240722656" stroke-width="0.0" fill="rgb(255, 255, 255)" opacity="1.0" stroke="rgb(0, 0, 0)" stroke-opacity="1.0" stroke-linecap="round" stroke-linejoin="round"/>
    <path d="M 63.29621505737305 112.23634338378906 C 68.0020980834961 112.23634338378906 72.70797729492188 112.23634338378906 77.41386413574219 112.23634338378906 C 77.41386413574219 116.94222259521484 77.41386413574219 121.64810943603516 77.41386413574219 126.35398864746094 C 72.70797729492188 126.35398864746094 68.0020980834961 126.35398864746094 63.29621505737305 126.35398864746094 C 63.29621505737305 121.64810943603516 63.29621505737305 116.94222259521484 63.29621505737305 112.23634338378906" stroke-width="0.0" fill="rgb(255, 255, 255)" opacity="1.0" stroke="rgb(0, 0, 0)" stroke-opacity="1.0" stroke-linecap="round" stroke-linejoin="round"/>
    <path d="M 76.94223022460938 112.23634338378906 C 81.64705657958984 112.23634338378906 86.35294342041016 112.23634338378906 91.05776977539062 112.23634338378906 C 91.05776977539062 116.94222259521484 91.05776977539062 121.64810943603516 91.05776977539062 126.35398864746094 C 86.35294342041016 126.35398864746094 81.64705657958984 126.35398864746094 76.94223022460938 126.35398864746094 C 76.94223022460938 121.64810943603516 76.94223022460938 116.94222259521484 76.94223022460938 112.23634338378906" stroke-width="0.0" fill="rgb(255, 255, 255)" opacity="1.0" stroke="rgb(0, 0, 0)" stroke-opacity="1.0" stroke-linecap="round" stroke-linejoin="round"/>
    <path d="M 91.06198120117188 98.11659240722656 C 95.76785278320312 98.11659240722656 100.47268676757812 98.11659240722656 105.17752075195312 98.11659240722656 C 105.17752075195312 102.82247924804688 105.17752075195312 107.52730560302734 105.17752075195312 112.23214721679688 C 100.47268676757812 112.23214721679688 95.76785278320312 112.23214721679688 91.06198120117188 112.23214721679688 C 91.06198120117188 107.52730560302734 91.06198120117188 102.82247924804688 91.06198120117188 98.11659240722656" stroke-width="0.0" fill="rgb(255, 255, 255)" opacity="1.0" stroke="rgb(0, 0, 0)" stroke-opacity="1.0" stroke-linecap="round" stroke-linejoin="round"/>
    <path d="M 91.06198120117188 112.23634338378906 C 95.76785278320312 112.23634338378906 100.47268676757812 112.23634338378906 105.17752075195312 112.23634338378906 C 105.17752075195312 116.94222259521484 105.17752075195312 121.64810943603516 105.17752075195312 126.35398864746094 C 100.47268676757812 126.35398864746094 95.76785278320312 126.35398864746094 91.06198120117188 126.35398864746094 C 91.06198120117188 121.64810943603516 91.06198120117188 116.94222259521484 91.06198120117188 112.23634338378906" stroke-width="0.0" fill="rgb(255, 255, 255)" opacity="1.0" stroke="rgb(0, 0, 0)" stroke-opacity="1.0" stroke-linecap="round" stroke-linejoin="round"/>
    <path d="M 105.17752075195312 112.23634338378906 C 109.88340759277344 112.23634338378906 114.5882339477539 112.23634338378906 119.29412078857422 112.23634338378906 C 119.29412078857422 116.94222259521484 119.29412078857422 121.64810943603516 119.29412078857422 126.35398864746094 C 114.5882339477539 126.35398864746094 109.88340759277344 126.35398864746094 105.17752075195312 126.35398864746094 C 105.17752075195312 121.64810943603516 105.17752075195312 116.94222259521484 105.17752075195312 112.23634338378906" stroke-width="0.0" fill="rgb(255, 255, 255)" opacity="1.0" stroke="rgb(0, 0, 0)" stroke-opacity="1.0" stroke-linecap="round" stroke-linejoin="round"/>
    <path d="M 118.8266830444336 98.11659240722656 C 123.53150939941406 98.11659240722656 128.23739624023438 98.11659240722656 132.94223022460938 98.11659240722656 C 132.94223022460938 102.82247924804688 132.94223022460938 107.52730560302734 132.94223022460938 112.23214721679688 C 128.23739624023438 112.23214721679688 123.53150939941406 112.23214721679688 118.8266830444336 112.23214721679688 C 118.8266830444336 107.52730560302734 118.8266830444336 102.82247924804688 118.8266830444336 98.11659240722656" stroke-width="0.0" fill="rgb(255, 255, 255)" opacity="1.0" stroke="rgb(0, 0, 0)" stroke-opacity="1.0" stroke-linecap="round" stroke-linejoin="round"/>
    <path d="M 118.8266830444336 112.23634338378906 C 123.53150939941406 112.23634338378906 128.23739624023438 112.23634338378906 132.94223022460938 112.23634338378906 C 132.94223022460938 116.94222259521484 132.94223022460938 121.64810943603516 132.94223022460938 126.35398864746094 C 128.23739624023438 126.35398864746094 123.53150939941406 126.35398864746094 118.8266830444336 126.35398864746094 C 118.8266830444336 121.64810943603516 118.8266830444336 116.94222259521484 118.8266830444336 112.23634338378906" stroke-width="0.0" fill="rgb(255, 255, 255)" opacity="1.0" stroke="rgb(0, 0, 0)" stroke-opacity="1.0" stroke-linecap="round" stroke-linejoin="round"/>
    <path d="M 132.94223022460938 112.23634338378906 C 137.64810180664062 112.23634338378906 142.35398864746094 112.23634338378906 147.05880737304688 112.23634338378906 C 147.05880737304688 116.94222259521484 147.05880737304688 121.64810943603516 147.05880737304688 126.35398864746094 C 142.35398864746094 126.35398864746094 137.64810180664062 126.35398864746094 132.94223022460938 126.35398864746094 C 132.94223022460938 121.64810943603516 132.94223022460938 116.94222259521484 132.94223022460938 112.23634338378906" stroke-width="0.0" fill="rgb(255, 255, 255)" opacity="1.0" stroke="rgb(0, 0, 0)" stroke-opacity="1.0" stroke-linecap="round" stroke-linejoin="round"/>
    <path d="M 49.17646789550781 126.35398864746094 C 53.88235092163086 126.35398864746094 58.588233947753906 126.35398864746094 63.29306411743164 126.35398864746094 C 63.29306411743164 131.05882263183594 63.29306411743164 135.7646942138672 63.29306411743164 140.46954345703125 C 58.588233947753906 140.46954345703125 53.88235092163086 140.46954345703125 49.17646789550781 140.46954345703125 C 49.17646789550781 135.7646942138672 49.17646789550781 131.05882263183594 49.17646789550781 126.35398864746094" stroke-width="0.0" fill="rgb(255, 18, 86)" opacity="1.0" stroke="rgb(0, 0, 0)" stroke-opacity="1.0" stroke-linecap="round" stroke-linejoin="round"/>
    <path d="M 49.17646789550781 140.00210571289062 C 53.88235092163086 140.00210571289062 58.588233947753906 140.00210571289062 63.29306411743164 140.00210571289062 C 63.29306411743164 144.70797729492188 63.29306411743164 149.41282653808594 63.29306411743164 154.11764526367188 C 58.588233947753906 154.11764526367188 53.88235092163086 154.11764526367188 49.17646789550781 154.11764526367188 C 49.17646789550781 149.41282653808594 49.17646789550781 144.70797729492188 49.17646789550781 140.00210571289062" stroke-width="0.0" fill="rgb(255, 18, 86)" opacity="1.0" stroke="rgb(0, 0, 0)" stroke-opacity="1.0" stroke-linecap="round" stroke-linejoin="round"/>
    <path d="M 76.94223022460938 126.35398864746094 C 81.64705657958984 126.35398864746094 86.35294342041016 126.35398864746094 91.05776977539062 126.35398864746094 C 91.05776977539062 131.05882263183594 91.05776977539062 135.7646942138672 91.05776977539062 140.46954345703125 C 86.35294342041016 140.46954345703125 81.64705657958984 140.46954345703125 76.94223022460938 140.46954345703125 C 76.94223022460938 135.7646942138672 76.94223022460938 131.05882263183594 76.94223022460938 126.35398864746094" stroke-width="0.0" fill="rgb(255, 255, 255)" opacity="1.0" stroke="rgb(0, 0, 0)" stroke-opacity="1.0" stroke-linecap="round" stroke-linejoin="round"/>
    <path d="M 63.29621505737305 140.00210571289062 C 68.0020980834961 140.00210571289062 72.70797729492188 140.00210571289062 77.41386413574219 140.00210571289062 C 77.41386413574219 144.70797729492188 77.41386413574219 149.41282653808594 77.41386413574219 154.11764526367188 C 72.70797729492188 154.11764526367188 68.0020980834961 154.11764526367188 63.29621505737305 154.11764526367188 C 63.29621505737305 149.41282653808594 63.29621505737305 144.70797729492188 63.29621505737305 140.00210571289062" stroke-width="0.0" fill="rgb(255, 255, 255)" opacity="1.0" stroke="rgb(0, 0, 0)" stroke-opacity="1.0" stroke-linecap="round" stroke-linejoin="round"/>
    <path d="M 76.94223022460938 140.00210571289062 C 81.64705657958984 140.00210571289062 86.35294342041016 140.00210571289062 91.05776977539062 140.00210571289062 C 91.05776977539062 144.70797729492188 91.05776977539062 149.41282653808594 91.05776977539062 154.11764526367188 C 86.35294342041016 154.11764526367188 81.64705657958984 154.11764526367188 76.94223022460938 154.11764526367188 C 76.94223022460938 149.41282653808594 76.94223022460938 144.70797729492188 76.94223022460938 140.00210571289062" stroke-width="0.0" fill="rgb(255, 255, 255)" opacity="1.0" stroke="rgb(0, 0, 0)" stroke-opacity="1.0" stroke-linecap="round" stroke-linejoin="round"/>
    <path d="M 105.17752075195312 126.35398864746094 C 109.88340759277344 126.35398864746094 114.5882339477539 126.35398864746094 119.29412078857422 126.35398864746094 C 119.29412078857422 131.05882263183594 119.29412078857422 135.7646942138672 119.29412078857422 140.46954345703125 C 114.5882339477539 140.46954345703125 109.88340759277344 140.46954345703125 105.17752075195312 140.46954345703125 C 105.17752075195312 135.7646942138672 105.17752075195312 131.05882263183594 105.17752075195312 126.35398864746094" stroke-width="0.0" fill="rgb(255, 255, 255)" opacity="1.0" stroke="rgb(0, 0, 0)" stroke-opacity="1.0" stroke-linecap="round" stroke-linejoin="round"/>
    <path d="M 91.06198120117188 140.00210571289062 C 95.76785278320312 140.00210571289062 100.47268676757812 140.00210571289062 105.17752075195312 140.00210571289062 C 105.17752075195312 144.70797729492188 105.17752075195312 149.41282653808594 105.17752075195312 154.11764526367188 C 100.47268676757812 154.11764526367188 95.76785278320312 154.11764526367188 91.06198120117188 154.11764526367188 C 91.06198120117188 149.41282653808594 91.06198120117188 144.70797729492188 91.06198120117188 140.00210571289062" stroke-width="0.0" fill="rgb(255, 255, 255)" opacity="1.0" stroke="rgb(0, 0, 0)" stroke-opacity="1.0" stroke-linecap="round" stroke-linejoin="round"/>
    <path d="M 105.17752075195312 140.00210571289062 C 109.88340759277344 140.00210571289062 114.5882339477539 140.00210571289062 119.29412078857422 140.00210571289062 C 119.29412078857422 144.70797729492188 119.29412078857422 149.41282653808594 119.29412078857422 154.11764526367188 C 114.5882339477539 154.11764526367188 109.88340759277344 154.11764526367188 105.17752075195312 154.11764526367188 C 105.17752075195312 149.41282653808594 105.17752075195312 144.70797729492188 105.17752075195312 140.00210571289062" stroke-width="0.0" fill="rgb(255, 255, 255)" opacity="1.0" stroke="rgb(0, 0, 0)" stroke-opacity="1.0" stroke-linecap="round" stroke-linejoin="round"/>
    <path d="M 132.94223022460938 126.35398864746094 C 137.64810180664062 126.35398864746094 142.35398864746094 126.35398864746094 147.05880737304688 126.35398864746094 C 147.05880737304688 131.05882263183594 147.05880737304688 135.7646942138672 147.05880737304688 140.46954345703125 C 142.35398864746094 140.46954345703125 137.64810180664062 140.46954345703125 132.94223022460938 140.46954345703125 C 132.94223022460938 135.7646942138672 132.94223022460938 131.05882263183594 132.94223022460938 126.35398864746094" stroke-width="0.0" fill="rgb(255, 255, 255)" opacity="1.0" stroke="rgb(0, 0, 0)" stroke-opacity="1.0" stroke-linecap="round" stroke-linejoin="round"/>
    <path d="M 118.8266830444336 140.00210571289062 C 123.53150939941406 140.00210571289062 128.23739624023438 140.00210571289062 132.94223022460938 140.00210571289062 C 132.94223022460938 144.70797729492188 132.94223022460938 149.41282653808594 132.94223022460938 154.11764526367188 C 128.23739624023438 154.11764526367188 123.53150939941406 154.11764526367188 118.8266830444336 154.11764526367188 C 118.8266830444336 149.41282653808594 118.8266830444336 144.70797729492188 118.8266830444336 140.00210571289062" stroke-width="0.0" fill="rgb(255, 255, 255)" opacity="1.0" stroke="rgb(0, 0, 0)" stroke-opacity="1.0" stroke-linecap="round" stroke-linejoin="round"/>
    <path d="M 132.94223022460938 140.00210571289062 C 137.64810180664062 140.00210571289062 142.35398864746094 140.00210571289062 147.05880737304688 140.00210571289062 C 147.05880737304688 144.70797729492188 147.05880737304688 149.41282653808594 147.05880737304688 154.11764526367188 C 142.35398864746094 154.11764526367188 137.64810180664062 154.11764526367188 132.94223022460938 154.11764526367188 C 132.94223022460938 149.41282653808594 132.94223022460938 144.70797729492188 132.94223022460938 140.00210571289062" stroke-width="0.0" fill="rgb(255, 255, 255)" opacity="1.0" stroke="rgb(0, 0, 0)" stroke-opacity="1.0" stroke-linecap="round" stroke-linejoin="round"/>
    <path d="M 147.05880737304688 70.35189056396484 C 151.76470947265625 70.35189056396484 156.4695281982422 70.35189056396484 161.1754150390625 70.35189056396484 C 161.1754150390625 75.05776977539062 161.1754150390625 79.76260375976562 161.1754150390625 84.46849060058594 C 156.4695281982422 84.46849060058594 151.76470947265625 84.46849060058594 147.05880737304688 84.46849060058594 C 147.05880737304688 79.76260375976562 147.05880737304688 75.05776977539062 147.05880737304688 70.35189056396484" stroke-width="0.0" fill="rgb(255, 18, 86)" opacity="1.0" stroke="rgb(0, 0, 0)" stroke-opacity="1.0" stroke-linecap="round" stroke-linejoin="round"/>
    <path d="M 147.05880737304688 84.47268676757812 C 151.76470947265625 84.47268676757812 156.4695281982422 84.47268676757812 161.1754150390625 84.47268676757812 C 161.1754150390625 89.17752075195312 161.1754150390625 93.88235473632812 161.1754150390625 98.58822631835938 C 156.4695281982422 98.58822631835938 151.76470947265625 98.58822631835938 147.05880737304688 98.58822631835938 C 147.05880737304688 93.88235473632812 147.05880737304688 89.17752075195312 147.05880737304688 84.47268676757812" stroke-width="0.0" fill="rgb(255, 18, 86)" opacity="1.0" stroke="rgb(0, 0, 0)" stroke-opacity="1.0" stroke-linecap="round" stroke-linejoin="round"/>
    <path d="M 147.05880737304688 98.11659240722656 C 151.76470947265625 98.11659240722656 156.4695281982422 98.11659240722656 161.1754150390625 98.11659240722656 C 161.1754150390625 102.82247924804688 161.1754150390625 107.52730560302734 161.1754150390625 112.23214721679688 C 156.4695281982422 112.23214721679688 151.76470947265625 112.23214721679688 147.05880737304688 112.23214721679688 C 147.05880737304688 107.52730560302734 147.05880737304688 102.82247924804688 147.05880737304688 98.11659240722656" stroke-width="0.0" fill="rgb(255, 255, 255)" opacity="1.0" stroke="rgb(0, 0, 0)" stroke-opacity="1.0" stroke-linecap="round" stroke-linejoin="round"/>
    <path d="M 160.70797729492188 98.11659240722656 C 165.41281127929688 98.11659240722656 170.11868286132812 98.11659240722656 174.8235321044922 98.11659240722656 C 174.8235321044922 102.82247924804688 174.8235321044922 107.52730560302734 174.8235321044922 112.23214721679688 C 170.11868286132812 112.23214721679688 165.41281127929688 112.23214721679688 160.70797729492188 112.23214721679688 C 160.70797729492188 107.52730560302734 160.70797729492188 102.82247924804688 160.70797729492188 98.11659240722656" stroke-width="0.0" fill="rgb(255, 18, 86)" opacity="1.0" stroke="rgb(0, 0, 0)" stroke-opacity="1.0" stroke-linecap="round" stroke-linejoin="round"/>
    <path d="M 147.05880737304688 112.23634338378906 C 151.76470947265625 112.23634338378906 156.4695281982422 112.23634338378906 161.1754150390625 112.23634338378906 C 161.1754150390625 116.94222259521484 161.1754150390625 121.64810943603516 161.1754150390625 126.35398864746094 C 156.4695281982422 126.35398864746094 151.76470947265625 126.35398864746094 147.05880737304688 126.35398864746094 C 147.05880737304688 121.64810943603516 147.05880737304688 116.94222259521484 147.05880737304688 112.23634338378906" stroke-width="0.0" fill="rgb(255, 255, 255)" opacity="1.0" stroke="rgb(0, 0, 0)" stroke-opacity="1.0" stroke-linecap="round" stroke-linejoin="round"/>
    <path d="M 160.70797729492188 112.23634338378906 C 165.41281127929688 112.23634338378906 170.11868286132812 112.23634338378906 174.8235321044922 112.23634338378906 C 174.8235321044922 116.94222259521484 174.8235321044922 121.64810943603516 174.8235321044922 126.35398864746094 C 170.11868286132812 126.35398864746094 165.41281127929688 126.35398864746094 160.70797729492188 126.35398864746094 C 160.70797729492188 121.64810943603516 160.70797729492188 116.94222259521484 160.70797729492188 112.23634338378906" stroke-width="0.0" fill="rgb(255, 18, 86)" opacity="1.0" stroke="rgb(0, 0, 0)" stroke-opacity="1.0" stroke-linecap="round" stroke-linejoin="round"/>
    <path d="M 160.70797729492188 126.35398864746094 C 165.41281127929688 126.35398864746094 170.11868286132812 126.35398864746094 174.8235321044922 126.35398864746094 C 174.8235321044922 131.05882263183594 174.8235321044922 135.7646942138672 174.8235321044922 140.46954345703125 C 170.11868286132812 140.46954345703125 165.41281127929688 140.46954345703125 160.70797729492188 140.46954345703125 C 160.70797729492188 135.7646942138672 160.70797729492188 131.05882263183594 160.70797729492188 126.35398864746094" stroke-width="0.0" fill="rgb(255, 18, 86)" opacity="1.0" stroke="rgb(0, 0, 0)" stroke-opacity="1.0" stroke-linecap="round" stroke-linejoin="round"/>
    <path d="M 147.05880737304688 140.00210571289062 C 151.76470947265625 140.00210571289062 156.4695281982422 140.00210571289062 161.1754150390625 140.00210571289062 C 161.1754150390625 144.70797729492188 161.1754150390625 149.41282653808594 161.1754150390625 154.11764526367188 C 156.4695281982422 154.11764526367188 151.76470947265625 154.11764526367188 147.05880737304688 154.11764526367188 C 147.05880737304688 149.41282653808594 147.05880737304688 144.70797729492188 147.05880737304688 140.00210571289062" stroke-width="0.0" fill="rgb(255, 255, 255)" opacity="1.0" stroke="rgb(0, 0, 0)" stroke-opacity="1.0" stroke-linecap="round" stroke-linejoin="round"/>
    <path d="M 160.70797729492188 140.00210571289062 C 165.41281127929688 140.00210571289062 170.11868286132812 140.00210571289062 174.8235321044922 140.00210571289062 C 174.8235321044922 144.70797729492188 174.8235321044922 149.41282653808594 174.8235321044922 154.11764526367188 C 170.11868286132812 154.11764526367188 165.41281127929688 154.11764526367188 160.70797729492188 154.11764526367188 C 160.70797729492188 149.41282653808594 160.70797729492188 144.70797729492188 160.70797729492188 140.00210571289062" stroke-width="0.0" fill="rgb(255, 18, 86)" opacity="1.0" stroke="rgb(0, 0, 0)" stroke-opacity="1.0" stroke-linecap="round" stroke-linejoin="round"/>
    <path d="M 63.29621505737305 154.11764526367188 C 68.0020980834961 154.11764526367188 72.70797729492188 154.11764526367188 77.41386413574219 154.11764526367188 C 77.41386413574219 158.8235321044922 77.41386413574219 163.52835083007812 77.41386413574219 168.2342529296875 C 72.70797729492188 168.2342529296875 68.0020980834961 168.2342529296875 63.29621505737305 168.2342529296875 C 63.29621505737305 163.52835083007812 63.29621505737305 158.8235321044922 63.29621505737305 154.11764526367188" stroke-width="0.0" fill="rgb(255, 18, 86)" opacity="1.0" stroke="rgb(0, 0, 0)" stroke-opacity="1.0" stroke-linecap="round" stroke-linejoin="round"/>
    <path d="M 76.94223022460938 168.2342529296875 C 81.64705657958984 168.2342529296875 86.35294342041016 168.2342529296875 91.05776977539062 168.2342529296875 C 91.05776977539062 172.94012451171875 91.05776977539062 177.64495849609375 91.05776977539062 182.35084533691406 C 86.35294342041016 182.35084533691406 81.64705657958984 182.35084533691406 76.94223022460938 182.35084533691406 C 76.94223022460938 177.64495849609375 76.94223022460938 172.94012451171875 76.94223022460938 168.2342529296875" stroke-width="0.0" fill="rgb(255, 18, 86)" opacity="1.0" stroke="rgb(0, 0, 0)" stroke-opacity="1.0" stroke-linecap="round" stroke-linejoin="round"/>
    <path d="M 91.06198120117188 154.11764526367188 C 95.76785278320312 154.11764526367188 100.47268676757812 154.11764526367188 105.17752075195312 154.11764526367188 C 105.17752075195312 158.8235321044922 105.17752075195312 163.52835083007812 105.17752075195312 168.2342529296875 C 100.47268676757812 168.2342529296875 95.76785278320312 168.2342529296875 91.06198120117188 168.2342529296875 C 91.06198120117188 163.52835083007812 91.06198120117188 158.8235321044922 91.06198120117188 154.11764526367188" stroke-width="0.0" fill="rgb(255, 255, 255)" opacity="1.0" stroke="rgb(0, 0, 0)" stroke-opacity="1.0" stroke-linecap="round" stroke-linejoin="round"/>
    <path d="M 91.06198120117188 168.2342529296875 C 95.76785278320312 168.2342529296875 100.47268676757812 168.2342529296875 105.17752075195312 168.2342529296875 C 105.17752075195312 172.94012451171875 105.17752075195312 177.64495849609375 105.17752075195312 182.35084533691406 C 100.47268676757812 182.35084533691406 95.76785278320312 182.35084533691406 91.06198120117188 182.35084533691406 C 91.06198120117188 177.64495849609375 91.06198120117188 172.94012451171875 91.06198120117188 168.2342529296875" stroke-width="0.0" fill="rgb(255, 255, 255)" opacity="1.0" stroke="rgb(0, 0, 0)" stroke-opacity="1.0" stroke-linecap="round" stroke-linejoin="round"/>
    <path d="M 105.17752075195312 168.2342529296875 C 109.88340759277344 168.2342529296875 114.5882339477539 168.2342529296875 119.29412078857422 168.2342529296875 C 119.29412078857422 172.94012451171875 119.29412078857422 177.64495849609375 119.29412078857422 182.35084533691406 C 114.5882339477539 182.35084533691406 109.88340759277344 182.35084533691406 105.17752075195312 182.35084533691406 C 105.17752075195312 177.64495849609375 105.17752075195312 172.94012451171875 105.17752075195312 168.2342529296875" stroke-width="0.0" fill="rgb(255, 255, 255)" opacity="1.0" stroke="rgb(0, 0, 0)" stroke-opacity="1.0" stroke-linecap="round" stroke-linejoin="round"/>
    <path d="M 118.8266830444336 154.11764526367188 C 123.53150939941406 154.11764526367188 128.23739624023438 154.11764526367188 132.94223022460938 154.11764526367188 C 132.94223022460938 158.8235321044922 132.94223022460938 163.52835083007812 132.94223022460938 168.2342529296875 C 128.23739624023438 168.2342529296875 123.53150939941406 168.2342529296875 118.8266830444336 168.2342529296875 C 118.8266830444336 163.52835083007812 118.8266830444336 158.8235321044922 118.8266830444336 154.11764526367188" stroke-width="0.0" fill="rgb(255, 255, 255)" opacity="1.0" stroke="rgb(0, 0, 0)" stroke-opacity="1.0" stroke-linecap="round" stroke-linejoin="round"/>
    <path d="M 118.8266830444336 168.2342529296875 C 123.53150939941406 168.2342529296875 128.23739624023438 168.2342529296875 132.94223022460938 168.2342529296875 C 132.94223022460938 172.94012451171875 132.94223022460938 177.64495849609375 132.94223022460938 182.35084533691406 C 128.23739624023438 182.35084533691406 123.53150939941406 182.35084533691406 118.8266830444336 182.35084533691406 C 118.8266830444336 177.64495849609375 118.8266830444336 172.94012451171875 118.8266830444336 168.2342529296875" stroke-width="0.0" fill="rgb(255, 255, 255)" opacity="1.0" stroke="rgb(0, 0, 0)" stroke-opacity="1.0" stroke-linecap="round" stroke-linejoin="round"/>
    <path d="M 132.94223022460938 168.2342529296875 C 137.64810180664062 168.2342529296875 142.35398864746094 168.2342529296875 147.05880737304688 168.2342529296875 C 147.05880737304688 172.94012451171875 147.05880737304688 177.64495849609375 147.05880737304688 182.35084533691406 C 142.35398864746094 182.35084533691406 137.64810180664062 182.35084533691406 132.94223022460938 182.35084533691406 C 132.94223022460938 177.64495849609375 132.94223022460938 172.94012451171875 132.94223022460938 168.2342529296875" stroke-width="0.0" fill="rgb(255, 18, 86)" opacity="1.0" stroke="rgb(0, 0, 0)" stroke-opacity="1.0" stroke-linecap="round" stroke-linejoin="round"/>
    <path d="M 147.05880737304688 154.11764526367188 C 151.76470947265625 154.11764526367188 156.4695281982422 154.11764526367188 161.1754150390625 154.11764526367188 C 161.1754150390625 158.8235321044922 161.1754150390625 163.52835083007812 161.1754150390625 168.2342529296875 C 156.4695281982422 168.2342529296875 151.76470947265625 168.2342529296875 147.05880737304688 168.2342529296875 C 147.05880737304688 163.52835083007812 147.05880737304688 158.8235321044922 147.05880737304688 154.11764526367188" stroke-width="0.0" fill="rgb(255, 18, 86)" opacity="1.0" stroke="rgb(0, 0, 0)" stroke-opacity="1.0" stroke-linecap="round" stroke-linejoin="round"/>
    <path d="M 91.06198120117188 181.88235473632812 C 95.76785278320312 181.88235473632812 100.47268676757812 181.88235473632812 105.17752075195312 181.88235473632812 C 105.17752075195312 186.58822631835938 105.17752075195312 191.29409790039062 105.17752075195312 196.0 C 100.47268676757812 196.0 95.76785278320312 196.0 91.06198120117188 196.0 C 91.06198120117188 191.29409790039062 91.06198120117188 186.58822631835938 91.06198120117188 181.88235473632812" stroke-width="0.0" fill="rgb(255, 18, 86)" opacity="1.0" stroke="rgb(0, 0, 0)" stroke-opacity="1.0" stroke-linecap="round" stroke-linejoin="round"/>
    <path d="M 105.17752075195312 181.88235473632812 C 109.88340759277344 181.88235473632812 114.5882339477539 181.88235473632812 119.29412078857422 181.88235473632812 C 119.29412078857422 186.58822631835938 119.29412078857422 191.29409790039062 119.29412078857422 196.0 C 114.5882339477539 196.0 109.88340759277344 196.0 105.17752075195312 196.0 C 105.17752075195312 191.29409790039062 105.17752075195312 186.58822631835938 105.17752075195312 181.88235473632812" stroke-width="0.0" fill="rgb(255, 18, 86)" opacity="1.0" stroke="rgb(0, 0, 0)" stroke-opacity="1.0" stroke-linecap="round" stroke-linejoin="round"/>
    <path d="M 118.8266830444336 181.88235473632812 C 123.53150939941406 181.88235473632812 128.23739624023438 181.88235473632812 132.94223022460938 181.88235473632812 C 132.94223022460938 186.58822631835938 132.94223022460938 191.29409790039062 132.94223022460938 196.0 C 128.23739624023438 196.0 123.53150939941406 196.0 118.8266830444336 196.0 C 118.8266830444336 191.29409790039062 118.8266830444336 186.58822631835938 118.8266830444336 181.88235473632812" stroke-width="0.0" fill="rgb(255, 18, 86)" opacity="1.0" stroke="rgb(0, 0, 0)" stroke-opacity="1.0" stroke-linecap="round" stroke-linejoin="round"/>
    <path d="M 118.8266830444336 28.0 C 123.53150939941406 28.0 128.23739624023438 28.0 132.94223022460938 28.0 C 132.94223022460938 32.704833984375 132.94223022460938 37.40966033935547 132.94223022460938 42.11554718017578 C 128.23739624023438 42.11554718017578 123.53150939941406 42.11554718017578 118.8266830444336 42.11554718017578 C 118.8266830444336 37.40966033935547 118.8266830444336 32.704833984375 118.8266830444336 28.0" stroke-width="0.0" fill="rgb(0, 153, 68)" opacity="1.0" stroke="rgb(0, 0, 0)" stroke-opacity="1.0" stroke-linecap="round" stroke-linejoin="round"/>
  </g>
</svg>
