<?xml version="1.0" ?>
<svg xmlns="http://www.w3.org/2000/svg" version="1.1" width="224" height="224">
  <defs/>
  <g>
    <path d="M 61.3751335144043 44.97197723388672 C 67.03035736083984 44.97197723388672 72.68682861328125 44.97197723388672 78.34205627441406 44.97197723388672 C 78.34205627441406 50.628456115722656 78.34205627441406 56.28493118286133 78.34205627441406 61.94015121459961 C 72.68682861328125 61.94015121459961 67.03035736083984 61.94015121459961 61.3751335144043 61.94015121459961 C 61.3751335144043 56.28493118286133 61.3751335144043 50.628456115722656 61.3751335144043 44.97197723388672" stroke-width="0.0" fill="rgb(255, 143, 20)" opacity="1.0"/>
    <path d="M 95.31654357910156 28.0 C 100.97175598144531 28.0 106.62698364257812 28.0 112.28345489501953 28.0 C 112.28345489501953 33.65648651123047 112.28345489501953 39.31170654296875 112.28345489501953 44.96818542480469 C 106.62698364257812 44.96818542480469 100.97175598144531 44.96818542480469 95.31654357910156 44.96818542480469 C 95.31654357910156 39.31170654296875 95.31654357910156 33.65648651123047 95.31654357910156 28.0" stroke-width="0.0" fill="rgb(255, 142, 21)" opacity="1.0"/>
    <path d="M 44.97007751464844 61.94015121459961 C 50.62529754638672 61.94015121459961 56.280517578125 61.94015121459961 61.93699264526367 61.94015121459961 C 61.93699264526367 67.59662628173828 61.93699264526367 73.25184631347656 61.93699264526367 78.90833282470703 C 56.280517578125 78.90833282470703 50.62529754638672 78.90833282470703 44.97007751464844 78.90833282470703 C 44.97007751464844 73.25184631347656 44.97007751464844 67.59662628173828 44.97007751464844 61.94015121459961" stroke-width="0.0" fill="rgb(255, 143, 20)" opacity="1.0"/>
    <path d="M 28.00189971923828 95.31338500976562 C 33.65837860107422 95.31338500976562 39.3135986328125 95.31338500976562 44.97007751464844 95.31338500976562 C 44.97007751464844 100.9698715209961 44.97007751464844 106.62508392333984 44.97007751464844 112.28030395507812 C 39.3135986328125 112.28030395507812 33.65837860107422 112.28030395507812 28.00189971923828 112.28030395507812 C 28.00189971923828 106.62508392333984 28.00189971923828 100.9698715209961 28.00189971923828 95.31338500976562" stroke-width="0.0" fill="rgb(255, 143, 21)" opacity="1.0"/>
    <path d="M 78.34205627441406 44.97197723388672 C 83.99852752685547 44.97197723388672 89.65501403808594 44.97197723388672 95.31149291992188 44.97197723388672 C 95.31149291992188 50.628456115722656 95.31149291992188 56.28493118286133 95.31149291992188 61.94015121459961 C 89.65501403808594 61.94015121459961 83.99852752685547 61.94015121459961 78.34205627441406 61.94015121459961 C 78.34205627441406 56.28493118286133 78.34205627441406 50.628456115722656 78.34205627441406 44.97197723388672" stroke-width="0.0" fill="rgb(255, 143, 20)" opacity="1.0"/>
    <path d="M 44.97007751464844 78.34647369384766 C 50.62529754638672 78.34647369384766 56.280517578125 78.34647369384766 61.93699264526367 78.34647369384766 C 61.93699264526367 84.0016860961914 61.93699264526367 89.65817260742188 61.93699264526367 95.31338500976562 C 56.280517578125 95.31338500976562 50.62529754638672 95.31338500976562 44.97007751464844 95.31338500976562 C 44.97007751464844 89.65817260742188 44.97007751464844 84.0016860961914 44.97007751464844 78.34647369384766" stroke-width="0.0" fill="rgb(255, 143, 20)" opacity="1.0"/>
    <path d="M 28.00189971923828 112.28535461425781 C 33.65837860107422 112.28535461425781 39.3135986328125 112.28535461425781 44.97007751464844 112.28535461425781 C 44.97007751464844 117.94182586669922 44.97007751464844 123.59831237792969 44.97007751464844 129.25479125976562 C 39.3135986328125 129.25479125976562 33.65837860107422 129.25479125976562 28.00189971923828 129.25479125976562 C 28.00189971923828 123.59831237792969 28.00189971923828 117.94182586669922 28.00189971923828 112.28535461425781" stroke-width="0.0" fill="rgb(255, 143, 20)" opacity="1.0"/>
    <path d="M 95.31654357910156 44.97197723388672 C 100.97175598144531 44.97197723388672 106.62698364257812 44.97197723388672 112.28345489501953 44.97197723388672 C 112.28345489501953 50.628456115722656 112.28345489501953 56.28493118286133 112.28345489501953 61.94015121459961 C 106.62698364257812 61.94015121459961 100.97175598144531 61.94015121459961 95.31654357910156 61.94015121459961 C 95.31654357910156 56.28493118286133 95.31654357910156 50.628456115722656 95.31654357910156 44.97197723388672" stroke-width="0.0" fill="rgb(255, 160, 34)" opacity="1.0"/>
    <path d="M 61.3751335144043 61.94015121459961 C 67.03035736083984 61.94015121459961 72.68682861328125 61.94015121459961 78.34205627441406 61.94015121459961 C 78.34205627441406 67.59662628173828 78.34205627441406 73.25184631347656 78.34205627441406 78.90833282470703 C 72.68682861328125 78.90833282470703 67.03035736083984 78.90833282470703 61.3751335144043 78.90833282470703 C 61.3751335144043 73.25184631347656 61.3751335144043 67.59662628173828 61.3751335144043 61.94015121459961" stroke-width="0.0" fill="rgb(255, 160, 34)" opacity="1.0"/>
    <path d="M 44.97007751464844 95.31338500976562 C 50.62529754638672 95.31338500976562 56.280517578125 95.31338500976562 61.93699264526367 95.31338500976562 C 61.93699264526367 100.9698715209961 61.93699264526367 106.62508392333984 61.93699264526367 112.28030395507812 C 56.280517578125 112.28030395507812 50.62529754638672 112.28030395507812 44.97007751464844 112.28030395507812 C 44.97007751464844 106.62508392333984 44.97007751464844 100.9698715209961 44.97007751464844 95.31338500976562" stroke-width="0.0" fill="rgb(255, 160, 33)" opacity="1.0"/>
    <path d="M 111.716552734375 28.0 C 117.37303161621094 28.0 123.02824401855469 28.0 128.68345642089844 28.0 C 128.68345642089844 33.65648651123047 128.68345642089844 39.31170654296875 128.68345642089844 44.96818542480469 C 123.02824401855469 44.96818542480469 117.37303161621094 44.96818542480469 111.716552734375 44.96818542480469 C 111.716552734375 39.31170654296875 111.716552734375 33.65648651123047 111.716552734375 28.0" stroke-width="0.0" fill="rgb(255, 143, 20)" opacity="1.0"/>
    <path d="M 78.34205627441406 61.94015121459961 C 83.99852752685547 61.94015121459961 89.65501403808594 61.94015121459961 95.31149291992188 61.94015121459961 C 95.31149291992188 67.59662628173828 95.31149291992188 73.25184631347656 95.31149291992188 78.90833282470703 C 89.65501403808594 78.90833282470703 83.99852752685547 78.90833282470703 78.34205627441406 78.90833282470703 C 78.34205627441406 73.25184631347656 78.34205627441406 67.59662628173828 78.34205627441406 61.94015121459961" stroke-width="0.0" fill="rgb(255, 160, 34)" opacity="1.0"/>
    <path d="M 44.97007751464844 112.28535461425781 C 50.62529754638672 112.28535461425781 56.280517578125 112.28535461425781 61.93699264526367 112.28535461425781 C 61.93699264526367 117.94182586669922 61.93699264526367 123.59831237792969 61.93699264526367 129.25479125976562 C 56.280517578125 129.25479125976562 50.62529754638672 129.25479125976562 44.97007751464844 129.25479125976562 C 44.97007751464844 123.59831237792969 44.97007751464844 117.94182586669922 44.97007751464844 112.28535461425781" stroke-width="0.0" fill="rgb(255, 160, 33)" opacity="1.0"/>
    <path d="M 111.716552734375 44.97197723388672 C 117.37303161621094 44.97197723388672 123.02824401855469 44.97197723388672 128.68345642089844 44.97197723388672 C 128.68345642089844 50.628456115722656 128.68345642089844 56.28493118286133 128.68345642089844 61.94015121459961 C 123.02824401855469 61.94015121459961 117.37303161621094 61.94015121459961 111.716552734375 61.94015121459961 C 111.716552734375 56.28493118286133 111.716552734375 50.628456115722656 111.716552734375 44.97197723388672" stroke-width="0.0" fill="rgb(255, 160, 34)" opacity="1.0"/>
    <path d="M 61.3751335144043 78.34647369384766 C 67.03035736083984 78.34647369384766 72.68682861328125 78.34647369384766 78.34205627441406 78.34647369384766 C 78.34205627441406 84.0016860961914 78.34205627441406 89.65817260742188 78.34205627441406 95.31338500976562 C 72.68682861328125 95.31338500976562 67.03035736083984 95.31338500976562 61.3751335144043 95.31338500976562 C 61.3751335144043 89.65817260742188 61.3751335144043 84.0016860961914 61.3751335144043 78.34647369384766" stroke-width="0.0" fill="rgb(255, 160, 33)" opacity="1.0"/>
    <path d="M 44.97007751464844 128.68661499023438 C 50.62529754638672 128.68661499023438 56.280517578125 128.68661499023438 61.93699264526367 128.68661499023438 C 61.93699264526367 134.3430938720703 61.93699264526367 139.99832153320312 61.93699264526367 145.65478515625 C 56.280517578125 145.65478515625 50.62529754638672 145.65478515625 44.97007751464844 145.65478515625 C 44.97007751464844 139.99832153320312 44.97007751464844 134.3430938720703 44.97007751464844 128.68661499023438" stroke-width="0.0" fill="rgb(255, 143, 21)" opacity="1.0"/>
    <path d="M 128.6885223388672 44.97197723388672 C 134.34498596191406 44.97197723388672 140.00021362304688 44.97197723388672 145.6566925048828 44.97197723388672 C 145.6566925048828 50.628456115722656 145.6566925048828 56.28493118286133 145.6566925048828 61.94015121459961 C 140.00021362304688 61.94015121459961 134.34498596191406 61.94015121459961 128.6885223388672 61.94015121459961 C 128.6885223388672 56.28493118286133 128.6885223388672 50.628456115722656 128.6885223388672 44.97197723388672" stroke-width="0.0" fill="rgb(255, 143, 21)" opacity="1.0"/>
    <path d="M 78.34205627441406 78.34647369384766 C 83.99852752685547 78.34647369384766 89.65501403808594 78.34647369384766 95.31149291992188 78.34647369384766 C 95.31149291992188 84.0016860961914 95.31149291992188 89.65817260742188 95.31149291992188 95.31338500976562 C 89.65501403808594 95.31338500976562 83.99852752685547 95.31338500976562 78.34205627441406 95.31338500976562 C 78.34205627441406 89.65817260742188 78.34205627441406 84.0016860961914 78.34205627441406 78.34647369384766" stroke-width="0.0" fill="rgb(255, 160, 33)" opacity="1.0"/>
    <path d="M 61.3751335144043 95.31338500976562 C 67.03035736083984 95.31338500976562 72.68682861328125 95.31338500976562 78.34205627441406 95.31338500976562 C 78.34205627441406 100.9698715209961 78.34205627441406 106.62508392333984 78.34205627441406 112.28030395507812 C 72.68682861328125 112.28030395507812 67.03035736083984 112.28030395507812 61.3751335144043 112.28030395507812 C 61.3751335144043 106.62508392333984 61.3751335144043 100.9698715209961 61.3751335144043 95.31338500976562" stroke-width="0.0" fill="rgb(255, 160, 33)" opacity="1.0"/>
    <path d="M 44.97007751464844 145.65985107421875 C 50.62529754638672 145.65985107421875 56.280517578125 145.65985107421875 61.93699264526367 145.65985107421875 C 61.93699264526367 151.3163299560547 61.93699264526367 156.9715576171875 61.93699264526367 162.6267547607422 C 56.280517578125 162.6267547607422 50.62529754638672 162.6267547607422 44.97007751464844 162.6267547607422 C 44.97007751464844 156.9715576171875 44.97007751464844 151.3163299560547 44.97007751464844 145.65985107421875" stroke-width="0.0" fill="rgb(255, 143, 20)" opacity="1.0"/>
    <path d="M 145.6566925048828 44.97197723388672 C 151.31192016601562 44.97197723388672 156.9683837890625 44.97197723388672 162.62486267089844 44.97197723388672 C 162.62486267089844 50.628456115722656 162.62486267089844 56.28493118286133 162.62486267089844 61.94015121459961 C 156.9683837890625 61.94015121459961 151.31192016601562 61.94015121459961 145.6566925048828 61.94015121459961 C 145.6566925048828 56.28493118286133 145.6566925048828 50.628456115722656 145.6566925048828 44.97197723388672" stroke-width="0.0" fill="rgb(255, 143, 21)" opacity="1.0"/>
    <path d="M 95.31654357910156 61.94015121459961 C 100.97175598144531 61.94015121459961 106.62698364257812 61.94015121459961 112.28345489501953 61.94015121459961 C 112.28345489501953 67.59662628173828 112.28345489501953 73.25184631347656 112.28345489501953 78.90833282470703 C 106.62698364257812 78.90833282470703 100.97175598144531 78.90833282470703 95.31654357910156 78.90833282470703 C 95.31654357910156 73.25184631347656 95.31654357910156 67.59662628173828 95.31654357910156 61.94015121459961" stroke-width="0.0" fill="rgb(255, 160, 34)" opacity="1.0"/>
    <path d="M 78.34205627441406 95.31338500976562 C 83.99852752685547 95.31338500976562 89.65501403808594 95.31338500976562 95.31149291992188 95.31338500976562 C 95.31149291992188 100.9698715209961 95.31149291992188 106.62508392333984 95.31149291992188 112.28030395507812 C 89.65501403808594 112.28030395507812 83.99852752685547 112.28030395507812 78.34205627441406 112.28030395507812 C 78.34205627441406 106.62508392333984 78.34205627441406 100.9698715209961 78.34205627441406 95.31338500976562" stroke-width="0.0" fill="rgb(255, 160, 33)" opacity="1.0"/>
    <path d="M 61.3751335144043 112.28535461425781 C 67.03035736083984 112.28535461425781 72.68682861328125 112.28535461425781 78.34205627441406 112.28535461425781 C 78.34205627441406 117.94182586669922 78.34205627441406 123.59831237792969 78.34205627441406 129.25479125976562 C 72.68682861328125 129.25479125976562 67.03035736083984 129.25479125976562 61.3751335144043 129.25479125976562 C 61.3751335144043 123.59831237792969 61.3751335144043 117.94182586669922 61.3751335144043 112.28535461425781" stroke-width="0.0" fill="rgb(255, 160, 34)" opacity="1.0"/>
    <path d="M 95.31654357910156 78.34647369384766 C 100.97175598144531 78.34647369384766 106.62698364257812 78.34647369384766 112.28345489501953 78.34647369384766 C 112.28345489501953 84.0016860961914 112.28345489501953 89.65817260742188 112.28345489501953 95.31338500976562 C 106.62698364257812 95.31338500976562 100.97175598144531 95.31338500976562 95.31654357910156 95.31338500976562 C 95.31654357910156 89.65817260742188 95.31654357910156 84.0016860961914 95.31654357910156 78.34647369384766" stroke-width="0.0" fill="rgb(255, 160, 33)" opacity="1.0"/>
    <path d="M 78.34205627441406 112.28535461425781 C 83.99852752685547 112.28535461425781 89.65501403808594 112.28535461425781 95.31149291992188 112.28535461425781 C 95.31149291992188 117.94182586669922 95.31149291992188 123.59831237792969 95.31149291992188 129.25479125976562 C 89.65501403808594 129.25479125976562 83.99852752685547 129.25479125976562 78.34205627441406 129.25479125976562 C 78.34205627441406 123.59831237792969 78.34205627441406 117.94182586669922 78.34205627441406 112.28535461425781" stroke-width="0.0" fill="rgb(255, 160, 34)" opacity="1.0"/>
    <path d="M 111.716552734375 61.94015121459961 C 117.37303161621094 61.94015121459961 123.02824401855469 61.94015121459961 128.68345642089844 61.94015121459961 C 128.68345642089844 67.59662628173828 128.68345642089844 73.25184631347656 128.68345642089844 78.90833282470703 C 123.02824401855469 78.90833282470703 117.37303161621094 78.90833282470703 111.716552734375 78.90833282470703 C 111.716552734375 73.25184631347656 111.716552734375 67.59662628173828 111.716552734375 61.94015121459961" stroke-width="0.0" fill="rgb(255, 160, 33)" opacity="1.0"/>
    <path d="M 95.31654357910156 95.31338500976562 C 100.97175598144531 95.31338500976562 106.62698364257812 95.31338500976562 112.28345489501953 95.31338500976562 C 112.28345489501953 100.9698715209961 112.28345489501953 106.62508392333984 112.28345489501953 112.28030395507812 C 106.62698364257812 112.28030395507812 100.97175598144531 112.28030395507812 95.31654357910156 112.28030395507812 C 95.31654357910156 106.62508392333984 95.31654357910156 100.9698715209961 95.31654357910156 95.31338500976562" stroke-width="0.0" fill="rgb(255, 160, 34)" opacity="1.0"/>
    <path d="M 61.3751335144043 128.68661499023438 C 67.03035736083984 128.68661499023438 72.68682861328125 128.68661499023438 78.34205627441406 128.68661499023438 C 78.34205627441406 134.3430938720703 78.34205627441406 139.99832153320312 78.34205627441406 145.65478515625 C 72.68682861328125 145.65478515625 67.03035736083984 145.65478515625 61.3751335144043 145.65478515625 C 61.3751335144043 139.99832153320312 61.3751335144043 134.3430938720703 61.3751335144043 128.68661499023438" stroke-width="0.0" fill="rgb(255, 160, 34)" opacity="1.0"/>
    <path d="M 128.6885223388672 61.94015121459961 C 134.34498596191406 61.94015121459961 140.00021362304688 61.94015121459961 145.6566925048828 61.94015121459961 C 145.6566925048828 67.59662628173828 145.6566925048828 73.25184631347656 145.6566925048828 78.90833282470703 C 140.00021362304688 78.90833282470703 134.34498596191406 78.90833282470703 128.6885223388672 78.90833282470703 C 128.6885223388672 73.25184631347656 128.6885223388672 67.59662628173828 128.6885223388672 61.94015121459961" stroke-width="0.0" fill="rgb(255, 160, 34)" opacity="1.0"/>
    <path d="M 111.716552734375 78.34647369384766 C 117.37303161621094 78.34647369384766 123.02824401855469 78.34647369384766 128.68345642089844 78.34647369384766 C 128.68345642089844 84.0016860961914 128.68345642089844 89.65817260742188 128.68345642089844 95.31338500976562 C 123.02824401855469 95.31338500976562 117.37303161621094 95.31338500976562 111.716552734375 95.31338500976562 C 111.716552734375 89.65817260742188 111.716552734375 84.0016860961914 111.716552734375 78.34647369384766" stroke-width="0.0" fill="rgb(255, 160, 34)" opacity="1.0"/>
    <path d="M 95.31654357910156 112.28535461425781 C 100.97175598144531 112.28535461425781 106.62698364257812 112.28535461425781 112.28345489501953 112.28535461425781 C 112.28345489501953 117.94182586669922 112.28345489501953 123.59831237792969 112.28345489501953 129.25479125976562 C 106.62698364257812 129.25479125976562 100.97175598144531 129.25479125976562 95.31654357910156 129.25479125976562 C 95.31654357910156 123.59831237792969 95.31654357910156 117.94182586669922 95.31654357910156 112.28535461425781" stroke-width="0.0" fill="rgb(255, 160, 34)" opacity="1.0"/>
    <path d="M 78.34205627441406 128.68661499023438 C 83.99852752685547 128.68661499023438 89.65501403808594 128.68661499023438 95.31149291992188 128.68661499023438 C 95.31149291992188 134.3430938720703 95.31149291992188 139.99832153320312 95.31149291992188 145.65478515625 C 89.65501403808594 145.65478515625 83.99852752685547 145.65478515625 78.34205627441406 145.65478515625 C 78.34205627441406 139.99832153320312 78.34205627441406 134.3430938720703 78.34205627441406 128.68661499023438" stroke-width="0.0" fill="rgb(255, 160, 33)" opacity="1.0"/>
    <path d="M 128.6885223388672 78.34647369384766 C 134.34498596191406 78.34647369384766 140.00021362304688 78.34647369384766 145.6566925048828 78.34647369384766 C 145.6566925048828 84.0016860961914 145.6566925048828 89.65817260742188 145.6566925048828 95.31338500976562 C 140.00021362304688 95.31338500976562 134.34498596191406 95.31338500976562 128.6885223388672 95.31338500976562 C 128.6885223388672 89.65817260742188 128.6885223388672 84.0016860961914 128.6885223388672 78.34647369384766" stroke-width="0.0" fill="rgb(255, 160, 33)" opacity="1.0"/>
    <path d="M 111.716552734375 95.31338500976562 C 117.37303161621094 95.31338500976562 123.02824401855469 95.31338500976562 128.68345642089844 95.31338500976562 C 128.68345642089844 100.9698715209961 128.68345642089844 106.62508392333984 128.68345642089844 112.28030395507812 C 123.02824401855469 112.28030395507812 117.37303161621094 112.28030395507812 111.716552734375 112.28030395507812 C 111.716552734375 106.62508392333984 111.716552734375 100.9698715209961 111.716552734375 95.31338500976562" stroke-width="0.0" fill="rgb(255, 160, 34)" opacity="1.0"/>
    <path d="M 95.31654357910156 128.68661499023438 C 100.97175598144531 128.68661499023438 106.62698364257812 128.68661499023438 112.28345489501953 128.68661499023438 C 112.28345489501953 134.3430938720703 112.28345489501953 139.99832153320312 112.28345489501953 145.65478515625 C 106.62698364257812 145.65478515625 100.97175598144531 145.65478515625 95.31654357910156 145.65478515625 C 95.31654357910156 139.99832153320312 95.31654357910156 134.3430938720703 95.31654357910156 128.68661499023438" stroke-width="0.0" fill="rgb(255, 160, 34)" opacity="1.0"/>
    <path d="M 61.3751335144043 145.65985107421875 C 67.03035736083984 145.65985107421875 72.68682861328125 145.65985107421875 78.34205627441406 145.65985107421875 C 78.34205627441406 151.3163299560547 78.34205627441406 156.9715576171875 78.34205627441406 162.6267547607422 C 72.68682861328125 162.6267547607422 67.03035736083984 162.6267547607422 61.3751335144043 162.6267547607422 C 61.3751335144043 156.9715576171875 61.3751335144043 151.3163299560547 61.3751335144043 145.65985107421875" stroke-width="0.0" fill="rgb(255, 160, 34)" opacity="1.0"/>
    <path d="M 145.6566925048828 61.94015121459961 C 151.31192016601562 61.94015121459961 156.9683837890625 61.94015121459961 162.62486267089844 61.94015121459961 C 162.62486267089844 67.59662628173828 162.62486267089844 73.25184631347656 162.62486267089844 78.90833282470703 C 156.9683837890625 78.90833282470703 151.31192016601562 78.90833282470703 145.6566925048828 78.90833282470703 C 145.6566925048828 73.25184631347656 145.6566925048828 67.59662628173828 145.6566925048828 61.94015121459961" stroke-width="0.0" fill="rgb(255, 159, 33)" opacity="1.0"/>
    <path d="M 128.6885223388672 95.31338500976562 C 134.34498596191406 95.31338500976562 140.00021362304688 95.31338500976562 145.6566925048828 95.31338500976562 C 145.6566925048828 100.9698715209961 145.6566925048828 106.62508392333984 145.6566925048828 112.28030395507812 C 140.00021362304688 112.28030395507812 134.34498596191406 112.28030395507812 128.6885223388672 112.28030395507812 C 128.6885223388672 106.62508392333984 128.6885223388672 100.9698715209961 128.6885223388672 95.31338500976562" stroke-width="0.0" fill="rgb(255, 160, 34)" opacity="1.0"/>
    <path d="M 111.716552734375 112.28535461425781 C 117.37303161621094 112.28535461425781 123.02824401855469 112.28535461425781 128.68345642089844 112.28535461425781 C 128.68345642089844 117.94182586669922 128.68345642089844 123.59831237792969 128.68345642089844 129.25479125976562 C 123.02824401855469 129.25479125976562 117.37303161621094 129.25479125976562 111.716552734375 129.25479125976562 C 111.716552734375 123.59831237792969 111.716552734375 117.94182586669922 111.716552734375 112.28535461425781" stroke-width="0.0" fill="rgb(255, 160, 34)" opacity="1.0"/>
    <path d="M 78.34205627441406 145.65985107421875 C 83.99852752685547 145.65985107421875 89.65501403808594 145.65985107421875 95.31149291992188 145.65985107421875 C 95.31149291992188 151.3163299560547 95.31149291992188 156.9715576171875 95.31149291992188 162.6267547607422 C 89.65501403808594 162.6267547607422 83.99852752685547 162.6267547607422 78.34205627441406 162.6267547607422 C 78.34205627441406 156.9715576171875 78.34205627441406 151.3163299560547 78.34205627441406 145.65985107421875" stroke-width="0.0" fill="rgb(255, 160, 34)" opacity="1.0"/>
    <path d="M 61.3751335144043 162.6267547607422 C 67.03035736083984 162.6267547607422 72.68682861328125 162.6267547607422 78.34205627441406 162.6267547607422 C 78.34205627441406 168.2832489013672 78.34205627441406 173.93846130371094 78.34205627441406 179.59494018554688 C 72.68682861328125 179.59494018554688 67.03035736083984 179.59494018554688 61.3751335144043 179.59494018554688 C 61.3751335144043 173.93846130371094 61.3751335144043 168.2832489013672 61.3751335144043 162.6267547607422" stroke-width="0.0" fill="rgb(255, 142, 20)" opacity="1.0"/>
    <path d="M 162.06173706054688 61.94015121459961 C 167.71823120117188 61.94015121459961 173.3747100830078 61.94015121459961 179.02993774414062 61.94015121459961 C 179.02993774414062 67.59662628173828 179.02993774414062 73.25184631347656 179.02993774414062 78.90833282470703 C 173.3747100830078 78.90833282470703 167.71823120117188 78.90833282470703 162.06173706054688 78.90833282470703 C 162.06173706054688 73.25184631347656 162.06173706054688 67.59662628173828 162.06173706054688 61.94015121459961" stroke-width="0.0" fill="rgb(255, 142, 20)" opacity="1.0"/>
    <path d="M 128.6885223388672 112.28535461425781 C 134.34498596191406 112.28535461425781 140.00021362304688 112.28535461425781 145.6566925048828 112.28535461425781 C 145.6566925048828 117.94182586669922 145.6566925048828 123.59831237792969 145.6566925048828 129.25479125976562 C 140.00021362304688 129.25479125976562 134.34498596191406 129.25479125976562 128.6885223388672 129.25479125976562 C 128.6885223388672 123.59831237792969 128.6885223388672 117.94182586669922 128.6885223388672 112.28535461425781" stroke-width="0.0" fill="rgb(255, 160, 34)" opacity="1.0"/>
    <path d="M 78.34205627441406 162.6267547607422 C 83.99852752685547 162.6267547607422 89.65501403808594 162.6267547607422 95.31149291992188 162.6267547607422 C 95.31149291992188 168.2832489013672 95.31149291992188 173.93846130371094 95.31149291992188 179.59494018554688 C 89.65501403808594 179.59494018554688 83.99852752685547 179.59494018554688 78.34205627441406 179.59494018554688 C 78.34205627441406 173.93846130371094 78.34205627441406 168.2832489013672 78.34205627441406 162.6267547607422" stroke-width="0.0" fill="rgb(255, 142, 20)" opacity="1.0"/>
    <path d="M 145.6566925048828 78.34647369384766 C 151.31192016601562 78.34647369384766 156.9683837890625 78.34647369384766 162.62486267089844 78.34647369384766 C 162.62486267089844 84.0016860961914 162.62486267089844 89.65817260742188 162.62486267089844 95.31338500976562 C 156.9683837890625 95.31338500976562 151.31192016601562 95.31338500976562 145.6566925048828 95.31338500976562 C 145.6566925048828 89.65817260742188 145.6566925048828 84.0016860961914 145.6566925048828 78.34647369384766" stroke-width="0.0" fill="rgb(255, 160, 34)" opacity="1.0"/>
    <path d="M 111.716552734375 128.68661499023438 C 117.37303161621094 128.68661499023438 123.02824401855469 128.68661499023438 128.68345642089844 128.68661499023438 C 128.68345642089844 134.3430938720703 128.68345642089844 139.99832153320312 128.68345642089844 145.65478515625 C 123.02824401855469 145.65478515625 117.37303161621094 145.65478515625 111.716552734375 145.65478515625 C 111.716552734375 139.99832153320312 111.716552734375 134.3430938720703 111.716552734375 128.68661499023438" stroke-width="0.0" fill="rgb(255, 160, 34)" opacity="1.0"/>
    <path d="M 95.31654357910156 162.6267547607422 C 100.97175598144531 162.6267547607422 106.62698364257812 162.6267547607422 112.28345489501953 162.6267547607422 C 112.28345489501953 168.2832489013672 112.28345489501953 173.93846130371094 112.28345489501953 179.59494018554688 C 106.62698364257812 179.59494018554688 100.97175598144531 179.59494018554688 95.31654357910156 179.59494018554688 C 95.31654357910156 173.93846130371094 95.31654357910156 168.2832489013672 95.31654357910156 162.6267547607422" stroke-width="0.0" fill="rgb(255, 160, 34)" opacity="1.0"/>
    <path d="M 162.06173706054688 78.34647369384766 C 167.71823120117188 78.34647369384766 173.3747100830078 78.34647369384766 179.02993774414062 78.34647369384766 C 179.02993774414062 84.0016860961914 179.02993774414062 89.65817260742188 179.02993774414062 95.31338500976562 C 173.3747100830078 95.31338500976562 167.71823120117188 95.31338500976562 162.06173706054688 95.31338500976562 C 162.06173706054688 89.65817260742188 162.06173706054688 84.0016860961914 162.06173706054688 78.34647369384766" stroke-width="0.0" fill="rgb(255, 142, 20)" opacity="1.0"/>
    <path d="M 145.6566925048828 95.31338500976562 C 151.31192016601562 95.31338500976562 156.9683837890625 95.31338500976562 162.62486267089844 95.31338500976562 C 162.62486267089844 100.9698715209961 162.62486267089844 106.62508392333984 162.62486267089844 112.28030395507812 C 156.9683837890625 112.28030395507812 151.31192016601562 112.28030395507812 145.6566925048828 112.28030395507812 C 145.6566925048828 106.62508392333984 145.6566925048828 100.9698715209961 145.6566925048828 95.31338500976562" stroke-width="0.0" fill="rgb(255, 160, 34)" opacity="1.0"/>
    <path d="M 128.6885223388672 128.68661499023438 C 134.34498596191406 128.68661499023438 140.00021362304688 128.68661499023438 145.6566925048828 128.68661499023438 C 145.6566925048828 134.3430938720703 145.6566925048828 139.99832153320312 145.6566925048828 145.65478515625 C 140.00021362304688 145.65478515625 134.34498596191406 145.65478515625 128.6885223388672 145.65478515625 C 128.6885223388672 139.99832153320312 128.6885223388672 134.3430938720703 128.6885223388672 128.68661499023438" stroke-width="0.0" fill="rgb(255, 160, 34)" opacity="1.0"/>
    <path d="M 95.31654357910156 145.65985107421875 C 100.97175598144531 145.65985107421875 106.62698364257812 145.65985107421875 112.28345489501953 145.65985107421875 C 112.28345489501953 151.3163299560547 112.28345489501953 156.9715576171875 112.28345489501953 162.6267547607422 C 106.62698364257812 162.6267547607422 100.97175598144531 162.6267547607422 95.31654357910156 162.6267547607422 C 95.31654357910156 156.9715576171875 95.31654357910156 151.3163299560547 95.31654357910156 145.65985107421875" stroke-width="0.0" fill="rgb(255, 160, 34)" opacity="1.0"/>
    <path d="M 111.716552734375 162.6267547607422 C 117.37303161621094 162.6267547607422 123.02824401855469 162.6267547607422 128.68345642089844 162.6267547607422 C 128.68345642089844 168.2832489013672 128.68345642089844 173.93846130371094 128.68345642089844 179.59494018554688 C 123.02824401855469 179.59494018554688 117.37303161621094 179.59494018554688 111.716552734375 179.59494018554688 C 111.716552734375 173.93846130371094 111.716552734375 168.2832489013672 111.716552734375 162.6267547607422" stroke-width="0.0" fill="rgb(255, 160, 34)" opacity="1.0"/>
    <path d="M 162.06173706054688 95.31338500976562 C 167.71823120117188 95.31338500976562 173.3747100830078 95.31338500976562 179.02993774414062 95.31338500976562 C 179.02993774414062 100.9698715209961 179.02993774414062 106.62508392333984 179.02993774414062 112.28030395507812 C 173.3747100830078 112.28030395507812 167.71823120117188 112.28030395507812 162.06173706054688 112.28030395507812 C 162.06173706054688 106.62508392333984 162.06173706054688 100.9698715209961 162.06173706054688 95.31338500976562" stroke-width="0.0" fill="rgb(255, 160, 34)" opacity="1.0"/>
    <path d="M 145.6566925048828 112.28535461425781 C 151.31192016601562 112.28535461425781 156.9683837890625 112.28535461425781 162.62486267089844 112.28535461425781 C 162.62486267089844 117.94182586669922 162.62486267089844 123.59831237792969 162.62486267089844 129.25479125976562 C 156.9683837890625 129.25479125976562 151.31192016601562 129.25479125976562 145.6566925048828 129.25479125976562 C 145.6566925048828 123.59831237792969 145.6566925048828 117.94182586669922 145.6566925048828 112.28535461425781" stroke-width="0.0" fill="rgb(255, 160, 34)" opacity="1.0"/>
    <path d="M 111.716552734375 145.65985107421875 C 117.37303161621094 145.65985107421875 123.02824401855469 145.65985107421875 128.68345642089844 145.65985107421875 C 128.68345642089844 151.3163299560547 128.68345642089844 156.9715576171875 128.68345642089844 162.6267547607422 C 123.02824401855469 162.6267547607422 117.37303161621094 162.6267547607422 111.716552734375 162.6267547607422 C 111.716552734375 156.9715576171875 111.716552734375 151.3163299560547 111.716552734375 145.65985107421875" stroke-width="0.0" fill="rgb(255, 160, 33)" opacity="1.0"/>
    <path d="M 128.6885223388672 162.6267547607422 C 134.34498596191406 162.6267547607422 140.00021362304688 162.6267547607422 145.6566925048828 162.6267547607422 C 145.6566925048828 168.2832489013672 145.6566925048828 173.93846130371094 145.6566925048828 179.59494018554688 C 140.00021362304688 179.59494018554688 134.34498596191406 179.59494018554688 128.6885223388672 179.59494018554688 C 128.6885223388672 173.93846130371094 128.6885223388672 168.2832489013672 128.6885223388672 162.6267547607422" stroke-width="0.0" fill="rgb(255, 143, 21)" opacity="1.0"/>
    <path d="M 95.31654357910156 179.0330810546875 C 100.97175598144531 179.0330810546875 106.62698364257812 179.0330810546875 112.28345489501953 179.0330810546875 C 112.28345489501953 184.68829345703125 112.28345489501953 190.34478759765625 112.28345489501953 196.0 C 106.62698364257812 196.0 100.97175598144531 196.0 95.31654357910156 196.0 C 95.31654357910156 190.34478759765625 95.31654357910156 184.68829345703125 95.31654357910156 179.0330810546875" stroke-width="0.0" fill="rgb(255, 143, 20)" opacity="1.0"/>
    <path d="M 179.02993774414062 95.31338500976562 C 184.6864013671875 95.31338500976562 190.3416290283203 95.31338500976562 195.99810791015625 95.31338500976562 C 195.99810791015625 100.9698715209961 195.99810791015625 106.62508392333984 195.99810791015625 112.28030395507812 C 190.3416290283203 112.28030395507812 184.6864013671875 112.28030395507812 179.02993774414062 112.28030395507812 C 179.02993774414062 106.62508392333984 179.02993774414062 100.9698715209961 179.02993774414062 95.31338500976562" stroke-width="0.0" fill="rgb(255, 142, 20)" opacity="1.0"/>
    <path d="M 162.06173706054688 112.28535461425781 C 167.71823120117188 112.28535461425781 173.3747100830078 112.28535461425781 179.02993774414062 112.28535461425781 C 179.02993774414062 117.94182586669922 179.02993774414062 123.59831237792969 179.02993774414062 129.25479125976562 C 173.3747100830078 129.25479125976562 167.71823120117188 129.25479125976562 162.06173706054688 129.25479125976562 C 162.06173706054688 123.59831237792969 162.06173706054688 117.94182586669922 162.06173706054688 112.28535461425781" stroke-width="0.0" fill="rgb(255, 160, 33)" opacity="1.0"/>
    <path d="M 145.6566925048828 128.68661499023438 C 151.31192016601562 128.68661499023438 156.9683837890625 128.68661499023438 162.62486267089844 128.68661499023438 C 162.62486267089844 134.3430938720703 162.62486267089844 139.99832153320312 162.62486267089844 145.65478515625 C 156.9683837890625 145.65478515625 151.31192016601562 145.65478515625 145.6566925048828 145.65478515625 C 145.6566925048828 139.99832153320312 145.6566925048828 134.3430938720703 145.6566925048828 128.68661499023438" stroke-width="0.0" fill="rgb(255, 160, 34)" opacity="1.0"/>
    <path d="M 145.6566925048828 162.6267547607422 C 151.31192016601562 162.6267547607422 156.9683837890625 162.6267547607422 162.62486267089844 162.6267547607422 C 162.62486267089844 168.2832489013672 162.62486267089844 173.93846130371094 162.62486267089844 179.59494018554688 C 156.9683837890625 179.59494018554688 151.31192016601562 179.59494018554688 145.6566925048828 179.59494018554688 C 145.6566925048828 173.93846130371094 145.6566925048828 168.2832489013672 145.6566925048828 162.6267547607422" stroke-width="0.0" fill="rgb(255, 142, 20)" opacity="1.0"/>
    <path d="M 111.716552734375 179.0330810546875 C 117.37303161621094 179.0330810546875 123.02824401855469 179.0330810546875 128.68345642089844 179.0330810546875 C 128.68345642089844 184.68829345703125 128.68345642089844 190.34478759765625 128.68345642089844 196.0 C 123.02824401855469 196.0 117.37303161621094 196.0 111.716552734375 196.0 C 111.716552734375 190.34478759765625 111.716552734375 184.68829345703125 111.716552734375 179.0330810546875" stroke-width="0.0" fill="rgb(255, 143, 20)" opacity="1.0"/>
    <path d="M 179.02993774414062 112.28535461425781 C 184.6864013671875 112.28535461425781 190.3416290283203 112.28535461425781 195.99810791015625 112.28535461425781 C 195.99810791015625 117.94182586669922 195.99810791015625 123.59831237792969 195.99810791015625 129.25479125976562 C 190.3416290283203 129.25479125976562 184.6864013671875 129.25479125976562 179.02993774414062 129.25479125976562 C 179.02993774414062 123.59831237792969 179.02993774414062 117.94182586669922 179.02993774414062 112.28535461425781" stroke-width="0.0" fill="rgb(255, 143, 21)" opacity="1.0"/>
    <path d="M 162.06173706054688 128.68661499023438 C 167.71823120117188 128.68661499023438 173.3747100830078 128.68661499023438 179.02993774414062 128.68661499023438 C 179.02993774414062 134.3430938720703 179.02993774414062 139.99832153320312 179.02993774414062 145.65478515625 C 173.3747100830078 145.65478515625 167.71823120117188 145.65478515625 162.06173706054688 145.65478515625 C 162.06173706054688 139.99832153320312 162.06173706054688 134.3430938720703 162.06173706054688 128.68661499023438" stroke-width="0.0" fill="rgb(255, 143, 20)" opacity="1.0"/>
    <path d="M 128.6885223388672 145.65985107421875 C 134.34498596191406 145.65985107421875 140.00021362304688 145.65985107421875 145.6566925048828 145.65985107421875 C 145.6566925048828 151.3163299560547 145.6566925048828 156.9715576171875 145.6566925048828 162.6267547607422 C 140.00021362304688 162.6267547607422 134.34498596191406 162.6267547607422 128.6885223388672 162.6267547607422 C 128.6885223388672 156.9715576171875 128.6885223388672 151.3163299560547 128.6885223388672 145.65985107421875" stroke-width="0.0" fill="rgb(255, 160, 34)" opacity="1.0"/>
    <path d="M 145.6566925048828 145.65985107421875 C 151.31192016601562 145.65985107421875 156.9683837890625 145.65985107421875 162.62486267089844 145.65985107421875 C 162.62486267089844 151.3163299560547 162.62486267089844 156.9715576171875 162.62486267089844 162.6267547607422 C 156.9683837890625 162.6267547607422 151.31192016601562 162.6267547607422 145.6566925048828 162.6267547607422 C 145.6566925048828 156.9715576171875 145.6566925048828 151.3163299560547 145.6566925048828 145.65985107421875" stroke-width="0.0" fill="rgb(255, 160, 34)" opacity="1.0"/>
    <path d="M 162.06173706054688 145.65985107421875 C 167.71823120117188 145.65985107421875 173.3747100830078 145.65985107421875 179.02993774414062 145.65985107421875 C 179.02993774414062 151.3163299560547 179.02993774414062 156.9715576171875 179.02993774414062 162.6267547607422 C 173.3747100830078 162.6267547607422 167.71823120117188 162.6267547607422 162.06173706054688 162.6267547607422 C 162.06173706054688 156.9715576171875 162.06173706054688 151.3163299560547 162.06173706054688 145.65985107421875" stroke-width="0.0" fill="rgb(255, 143, 21)" opacity="1.0"/>
  </g>
</svg>
