<?xml version="1.0" ?>
<svg xmlns="http://www.w3.org/2000/svg" version="1.1" width="224" height="224">
  <defs/>
  <g>
    <path d="M 90.4487533569336 185.35470581054688 C 91.20646667480469 184.22088623046875 90.05670166015625 180.17709350585938 90.08840942382812 176.02975463867188 C 90.65670776367188 169.4147186279297 90.49769592285156 169.50015258789062 86.60696411132812 168.03225708007812 C 85.47346496582031 169.8943328857422 84.20532989501953 169.72921752929688 82.82313537597656 167.41648864746094 C 81.02959442138672 167.80752563476562 65.86917114257812 127.93632507324219 67.11514282226562 127.53749084472656 C 66.47282409667969 126.64094543457031 67.07723999023438 125.94208526611328 67.9090576171875 125.76854705810547 C 68.14628601074219 125.86095428466797 67.45257568359375 124.75369262695312 64.55271911621094 128.0633087158203 L 62.10236740112305 125.23564910888672 L 62.3223762512207 95.69318389892578 L 62.6189079284668 65.0321273803711 L 72.25198364257812 64.82403564453125 C 76.86001586914062 66.84730529785156 81.30428314208984 66.70231628417969 82.90510559082031 66.31715393066406 C 88.00505065917969 64.71726989746094 175.61251831054688 52.27964401245117 184.2196807861328 53.58313751220703 L 195.68124389648438 53.92131805419922 L 196.0 67.73817443847656 L 189.3841552734375 68.09375 C 186.63671875 67.642822265625 183.62254333496094 67.54231262207031 182.88568115234375 68.09310913085938 C 183.2574005126953 68.39860534667969 183.40420532226562 79.49646759033203 183.52801513671875 97.32617950439453 L 183.4901123046875 125.05343627929688 L 175.98294067382812 125.41663360595703 L 171.08453369140625 124.84940338134766 L 171.30682373046875 155.37303161621094 L 161.01596069335938 155.34832763671875 L 158.48764038085938 154.6053924560547 L 158.77244567871094 161.22120666503906 L 158.7459716796875 169.89581298828125 L 144.62704467773438 170.35057067871094 C 138.21783447265625 168.04339599609375 133.2949676513672 167.89990234375 132.5858917236328 168.0001220703125 C 132.1195831298828 171.58941650390625 132.55482482910156 172.57228088378906 131.60467529296875 174.25509643554688 C 131.22390747070312 176.8574981689453 130.81626892089844 177.21409606933594 125.81084442138672 178.82626342773438 C 120.92034149169922 180.3427734375 118.83485412597656 180.05096435546875 117.1201400756836 178.11224365234375 C 118.09676361083984 177.08309936523438 117.95962524414062 177.44662475585938 116.8604736328125 179.32174682617188 C 116.23185729980469 180.716552734375 114.86040496826172 181.7555389404297 110.640625 184.8946075439453 C 103.61805725097656 185.16610717773438 89.05162048339844 185.23605346679688 90.4487533569336 185.35470581054688" stroke-width="0.0" fill="rgb(0, 9, 13)" opacity="0.9989696"/>
    <path d="M 118.04375457763672 177.0314483642578 L 118.08860778808594 168.74082946777344 L 133.29769897460938 169.0123291015625 L 133.20904541015625 185.25051879882812 L 117.83480072021484 185.13546752929688 L 118.04375457763672 177.0314483642578" stroke-width="1.0" fill="rgb(0, 9, 15)" opacity="1.0"/>
    <path d="M 34.849632263183594 67.86478424072266 L 28.136550903320312 68.07023620605469 L 28.16815185546875 60.69194030761719 L 28.0 53.59341049194336 L 35.586517333984375 54.00983810424805 L 42.14368438720703 53.33063507080078 L 43.026397705078125 60.973873138427734 C 42.76698303222656 65.6263427734375 42.93125915527344 69.49907684326172 42.721641540527344 69.51779174804688 C 42.093910217285156 69.00509643554688 39.03460693359375 68.23403930664062 34.849632263183594 67.86478424072266" stroke-width="1.0" fill="rgb(0, 9, 13)" opacity="0.9968998"/>
    <path d="M 111.49972534179688 47.825096130371094 L 111.52186584472656 38.961204528808594 L 183.51028442382812 38.8912353515625 L 183.72015380859375 56.99746322631836 L 111.3662109375 57.0153923034668 L 111.49972534179688 47.825096130371094" stroke-width="1.0" fill="rgb(0, 7, 14)" opacity="1.0"/>
    <path d="M 105.15754699707031 177.89730834960938 L 105.15956115722656 170.14584350585938 L 118.66546630859375 170.0592498779297 L 118.51507568359375 185.3215789794922 L 105.27391052246094 185.31224060058594 L 105.15754699707031 177.89730834960938" stroke-width="1.0" fill="rgb(99, 254, 243)" opacity="0.9998032"/>
    <path d="M 79.18193054199219 162.80308532714844 L 79.59204864501953 155.35482788085938 L 103.8226089477539 155.37600708007812 L 103.69982147216797 162.5522003173828 L 104.0158920288086 170.21395874023438 L 90.97267150878906 169.91610717773438 L 79.18992614746094 170.4164581298828 L 79.18193054199219 162.80308532714844" stroke-width="1.0" fill="rgb(100, 255, 243)" opacity="0.99646026"/>
    <path d="M 119.79747009277344 170.03518676757812 C 119.35723876953125 168.0111846923828 119.1385726928711 165.38525390625 119.54744720458984 161.53927612304688 L 119.22540283203125 155.6785125732422 L 144.640380859375 155.38858032226562 L 144.7958221435547 170.29934692382812 L 133.3860626220703 170.19369506835938 C 125.21295928955078 170.16221618652344 121.31322479248047 170.1959228515625 119.79747009277344 170.03518676757812" stroke-width="1.0" fill="rgb(99, 255, 243)" opacity="0.9951099"/>
    <path d="M 65.73908996582031 142.979248046875 L 65.27684020996094 125.47298431396484 L 78.5450439453125 125.3391342163086 L 78.52871704101562 160.7825469970703 L 65.29496002197266 160.8925323486328 L 65.73908996582031 142.979248046875" stroke-width="1.0" fill="rgb(101, 254, 246)" opacity="0.99771166"/>
    <path d="M 146.36761474609375 155.09317016601562 C 146.06396484375 154.1007080078125 146.02642822265625 147.2899932861328 145.8350830078125 139.6141815185547 L 145.8505096435547 125.52064514160156 L 158.37295532226562 125.53387451171875 L 158.25689697265625 155.22128295898438 L 151.77487182617188 154.80409240722656 C 149.3733367919922 155.278076171875 146.78622436523438 155.05352783203125 146.36761474609375 155.09317016601562" stroke-width="1.0" fill="rgb(102, 254, 243)" opacity="0.9943334"/>
    <path d="M 134.01400756835938 117.78229522705078 L 134.11708068847656 110.44613647460938 L 121.54241943359375 110.27845764160156 L 121.7376480102539 100.47147369384766 L 145.28585815429688 100.68014526367188 L 145.01011657714844 124.53099060058594 L 134.06405639648438 124.52772521972656 L 134.01400756835938 117.78229522705078" stroke-width="1.0" fill="rgb(252, 255, 254)" opacity="1.0"/>
    <path d="M 133.9246826171875 84.52649688720703 L 133.91476440429688 72.80439758300781 L 145.19740295410156 72.54315185546875 L 144.8126220703125 95.75929260253906 L 134.08567810058594 95.81751251220703 L 133.9246826171875 84.52649688720703" stroke-width="1.0" fill="rgb(251, 255, 254)" opacity="0.99921256"/>
    <path d="M 79.27398681640625 84.22855377197266 L 79.35200500488281 72.91769409179688 L 90.52151489257812 72.95988464355469 L 90.32742309570312 96.26757049560547 L 79.3592300415039 96.31805419921875 L 79.27398681640625 84.22855377197266" stroke-width="1.0" fill="rgb(251, 255, 253)" opacity="0.99866843"/>
    <path d="M 79.36347198486328 113.53111267089844 L 79.30078887939453 100.79570770263672 L 103.42379760742188 100.63137817382812 L 103.55642700195312 110.40612030029297 L 96.55887603759766 110.34986877441406 L 90.35181427001953 110.4017333984375 L 90.41029357910156 117.83226776123047 L 90.5377426147461 124.64643096923828 L 79.3056869506836 124.51249694824219 L 79.36347198486328 113.53111267089844" stroke-width="1.0" fill="rgb(252, 255, 254)" opacity="0.999994"/>
    <path d="M 105.40693664550781 132.59657287597656 L 105.10076904296875 125.7582015991211 L 118.45514678955078 125.6982421875 L 118.38121795654297 139.09307861328125 L 105.22578430175781 139.56097412109375 L 105.40693664550781 132.59657287597656" stroke-width="1.0" fill="rgb(249, 255, 253)" opacity="0.99328375"/>
    <path d="M 53.8270378112793 124.53208923339844 C 52.395355224609375 122.40050506591797 49.83136749267578 109.93628692626953 45.94183349609375 95.65098571777344 C 42.63421630859375 77.2032241821289 40.93952941894531 68.80953979492188 41.12492370605469 62.57626724243164 L 41.07886505126953 53.469459533691406 L 44.749420166015625 51.778053283691406 C 47.11433029174805 53.655723571777344 50.34884262084961 54.07923126220703 52.674293518066406 52.62871551513672 C 54.343528747558594 52.1050910949707 66.70820617675781 48.758201599121094 80.34486389160156 44.93218994140625 C 101.99120330810547 39.68855285644531 106.50360107421875 38.948265075683594 112.6207275390625 38.79505157470703 L 119.08871459960938 38.645294189453125 L 118.92113494873047 49.1359977722168 C 118.8774185180664 54.38570022583008 119.31666564941406 52.72651290893555 119.04057312011719 53.768768310546875 C 122.55548858642578 54.07974624633789 136.19393920898438 53.58905792236328 153.50088500976562 53.746726989746094 C 170.24319458007812 53.927879333496094 183.44796752929688 54.13734817504883 183.53073120117188 54.45442581176758 C 182.62164306640625 54.22018051147461 183.36463928222656 57.39170455932617 183.04864501953125 62.407066345214844 C 183.340576171875 68.12071228027344 182.98129272460938 68.02305603027344 177.67999267578125 67.74657440185547 C 174.9605712890625 67.70929718017578 172.05401611328125 67.54287719726562 170.33505249023438 67.94186401367188 C 170.3285675048828 67.1053466796875 170.14830017089844 76.34596252441406 170.5340576171875 97.61003112792969 L 170.07452392578125 125.0582275390625 L 166.30279541015625 124.8156509399414 C 163.826416015625 124.71443176269531 160.2793426513672 124.88166809082031 158.49545288085938 124.78810119628906 C 158.35302734375 125.04632568359375 158.3765411376953 111.48847198486328 158.67514038085938 94.88848114013672 C 158.40692138671875 80.9283447265625 158.36703491210938 67.81985473632812 158.79019165039062 68.02082824707031 C 160.01077270507812 67.51478576660156 150.59725952148438 67.54359436035156 138.2138214111328 67.95364379882812 C 124.42195892333984 67.58158874511719 119.24911499023438 67.3281021118164 119.33299255371094 67.64136505126953 C 118.865966796875 69.35771179199219 118.63743591308594 75.56855773925781 118.51446533203125 82.22525787353516 C 118.7856674194336 88.83052062988281 118.28485870361328 95.36703491210938 118.71406555175781 96.09519958496094 C 116.45970916748047 96.32762145996094 113.74131774902344 96.28289794921875 111.8755111694336 96.27053833007812 L 105.93373107910156 96.37184143066406 L 105.29327392578125 84.89189910888672 C 105.47330474853516 76.4145736694336 105.38977813720703 69.2765121459961 105.40554809570312 68.34562683105469 C 104.39242553710938 68.09677124023438 64.17185974121094 67.69583892822266 66.18707275390625 67.85067749023438 C 66.15068054199219 69.572998046875 65.60124206542969 81.46112823486328 65.95106506347656 95.19657897949219 C 65.69731140136719 110.81913757324219 65.94658660888672 123.5565185546875 65.17880249023438 124.7795639038086 C 62.83906173706055 125.9744873046875 61.3643798828125 126.31787872314453 59.15815734863281 127.0380630493164 C 55.98422622680664 126.30098724365234 54.85269546508789 126.035400390625 53.8270378112793 124.53208923339844" stroke-width="0.0" fill="rgb(97, 254, 245)" opacity="0.99361706"/>
    <path d="M 65.72903442382812 170.08291625976562 C 65.61415100097656 168.9390411376953 65.38738250732422 165.73069763183594 65.24124145507812 162.08114624023438 L 65.04762268066406 155.28753662109375 L 52.95940399169922 155.6922149658203 L 52.906593322753906 139.63894653320312 L 52.5809440612793 125.01770782470703 L 47.1068000793457 125.27301788330078 L 40.54277801513672 125.39766693115234 L 40.67180633544922 67.97062683105469 L 47.473270416259766 68.00519561767578 L 53.840274810791016 68.20965576171875 L 53.91841506958008 125.15594482421875 L 66.65306091308594 125.05414581298828 L 66.3491439819336 139.426513671875 C 66.2137451171875 149.55044555664062 66.23650360107422 154.401611328125 66.70942687988281 155.0843048095703 C 67.07376098632812 155.68910217285156 69.81167602539062 155.7237091064453 73.43731689453125 154.9097442626953 L 79.0816650390625 155.5863037109375 L 79.30859375 169.76083374023438 L 73.13592529296875 170.170166015625 C 69.7865982055664 170.3465118408203 66.93650817871094 170.1667938232422 65.72903442382812 170.08291625976562" stroke-width="1.0" fill="rgb(0, 9, 12)" opacity="0.99581134"/>
    <path d="M 40.599098205566406 46.745933532714844 L 40.330177307128906 38.820526123046875 L 105.36711120605469 38.71350860595703 L 105.50472259521484 53.723533630371094 L 40.45301818847656 53.80585861206055 L 40.599098205566406 46.745933532714844" stroke-width="1.0" fill="rgb(0, 8, 13)" opacity="0.9989476"/>
  </g>
</svg>
