<?xml version="1.0" ?>
<svg xmlns="http://www.w3.org/2000/svg" version="1.1" width="224" height="224">
  <defs/>
  <g>
    <path d="M 33.463768005371094 45.40423583984375 C 85.82154846191406 45.40423583984375 138.1793212890625 45.40423583984375 190.53709411621094 45.40423583984375 C 193.87631225585938 45.944175720214844 195.46005249023438 47.52965545654297 196.0 50.868003845214844 C 196.0 81.09428405761719 196.0 111.31970977783203 196.0 141.54513549804688 C 195.47637939453125 144.88262939453125 193.8857421875 146.46725463867188 190.55340576171875 147.00804138183594 C 138.1913299560547 147.00804138183594 85.82926940917969 147.00804138183594 33.467201232910156 147.00804138183594 C 30.12799072265625 146.46896362304688 28.543380737304688 144.88348388671875 28.003433227539062 141.54513549804688 C 28.00171661376953 111.31970977783203 28.00086212158203 81.09428405761719 28.0 50.868003845214844 C 28.539077758789062 47.52879333496094 30.12541961669922 45.945030212402344 33.463768005371094 45.40423583984375 C 33.463768005371094 45.40423583984375 33.463768005371094 45.40423583984375 33.463768005371094 45.40423583984375" stroke-width="0.0" fill="rgb(16, 69, 126)" opacity="1.0"/>
    <path d="M 33.56077575683594 47.767433166503906 C 85.86875915527344 47.767433166503906 138.1776123046875 47.767433166503906 190.4864501953125 47.767433166503906 C 192.61273193359375 48.339988708496094 193.08570861816406 48.8155517578125 193.66082763671875 50.94097137451172 C 193.66082763671875 81.110595703125 193.66082763671875 111.27936553955078 193.66082763671875 141.44813537597656 C 193.08828735351562 143.5752716064453 192.61273193359375 144.04739379882812 190.4864501953125 144.62252807617188 C 138.1776123046875 144.62252807617188 85.86875915527344 144.62252807617188 33.56077575683594 144.62252807617188 C 31.434494018554688 144.0499725341797 30.961517333984375 143.57440185546875 30.386375427246094 141.44813537597656 C 30.386375427246094 111.27936553955078 30.386375427246094 81.110595703125 30.386375427246094 50.94097137451172 C 30.958938598632812 48.81468963623047 31.434494018554688 48.342567443847656 33.56077575683594 47.767433166503906 C 33.56077575683594 47.767433166503906 33.56077575683594 47.767433166503906 33.56077575683594 47.767433166503906" stroke-width="0.0" fill="rgb(15, 69, 125)" opacity="1.0"/>
    <path d="M 33.467201232910156 50.1546630859375 C 33.467201232910156 50.1546630859375 33.467201232910156 50.1546630859375 33.467201232910156 50.1546630859375 C 33.22856140136719 50.39244842529297 32.99079132080078 50.630226135253906 32.753013610839844 50.868003845214844 C 32.753013610839844 81.09428405761719 32.753013610839844 111.31970977783203 32.753013610839844 141.54513549804688 C 32.99079132080078 141.7837677001953 33.22856140136719 142.0215606689453 33.467201232910156 142.2593231201172 C 85.82498168945312 142.2593231201172 138.18275451660156 142.2593231201172 190.54052734375 142.2593231201172 C 190.77828979492188 142.0215606689453 191.01693725585938 141.7837677001953 191.25473022460938 141.54513549804688 C 191.25473022460938 111.31970977783203 191.25473022460938 81.09428405761719 191.25473022460938 50.868003845214844 C 191.01693725585938 50.630226135253906 190.77828979492188 50.39244842529297 190.54052734375 50.1546630859375 C 138.18275451660156 50.1546630859375 85.82498168945312 50.1546630859375 33.467201232910156 50.1546630859375" stroke-width="0.0" fill="rgb(254, 254, 254)" opacity="1.0"/>
    <path d="M 129.90853881835938 142.2361602783203 C 129.90853881835938 142.2361602783203 129.90853881835938 142.2361602783203 129.90853881835938 142.2361602783203 C 131.50433349609375 142.66879272460938 131.86228942871094 143.02674865722656 132.294921875 144.62252807617188 C 132.294921875 154.71827697753906 132.294921875 164.81402587890625 132.294921875 174.90975952148438 C 131.76614379882812 176.8600616455078 129.2724609375 178.58975219726562 127.84923553466797 176.11410522460938 C 127.64234924316406 175.75357055664062 127.63204956054688 175.31149291992188 127.52303314208984 174.90975952148438 C 127.52303314208984 164.81402587890625 127.52303314208984 154.71827697753906 127.52303314208984 144.62252807617188 C 127.95567321777344 143.02674865722656 128.31362915039062 142.66879272460938 129.90853881835938 142.2361602783203 C 129.90853881835938 142.2361602783203 129.90853881835938 142.2361602783203 129.90853881835938 142.2361602783203" stroke-width="0.0" fill="rgb(15, 68, 125)" opacity="1.0"/>
    <path d="M 48.5245475769043 58.640037536621094 C 90.8440933227539 58.640037536621094 133.16278076171875 58.640037536621094 175.48231506347656 58.640037536621094 C 175.48231506347656 83.67637634277344 175.48231506347656 108.71358489990234 175.48231506347656 133.7499237060547 C 133.16278076171875 133.7499237060547 90.8440933227539 133.7499237060547 48.5245475769043 133.7499237060547 C 48.5245475769043 108.71358489990234 48.5245475769043 83.67637634277344 48.5245475769043 58.640037536621094" stroke-width="0.0" fill="rgb(158, 213, 228)" opacity="1.0"/>
    <path d="M 94.1180648803711 142.2361602783203 C 94.1180648803711 142.2361602783203 94.1180648803711 142.2361602783203 94.1180648803711 142.2361602783203 C 95.71385192871094 142.66879272460938 96.07180786132812 143.02674865722656 96.50444030761719 144.62252807617188 C 96.50444030761719 154.71827697753906 96.50444030761719 164.81402587890625 96.50444030761719 174.90975952148438 C 95.9645004272461 176.84976196289062 93.48542022705078 178.59576416015625 92.0587387084961 176.11410522460938 C 91.85186767578125 175.75357055664062 91.84156799316406 175.31149291992188 91.73255157470703 174.90975952148438 C 91.73255157470703 164.81402587890625 91.73255157470703 154.71827697753906 91.73255157470703 144.62252807617188 C 92.1643295288086 143.02674865722656 92.52313995361328 142.66879272460938 94.1180648803711 142.2361602783203 C 94.1180648803711 142.2361602783203 94.1180648803711 142.2361602783203 94.1180648803711 142.2361602783203" stroke-width="0.0" fill="rgb(15, 68, 126)" opacity="1.0"/>
    <path d="M 76.11122131347656 172.52252197265625 C 100.04623413085938 172.52252197265625 123.98124694824219 172.52252197265625 147.916259765625 172.52252197265625 C 149.86569213867188 173.0521697998047 151.5962371826172 175.54583740234375 149.12060546875 176.96908569335938 C 148.7592010498047 177.17596435546875 148.31712341308594 177.18711853027344 147.916259765625 177.296142578125 C 123.98124694824219 177.296142578125 100.04623413085938 177.296142578125 76.11122131347656 177.296142578125 C 74.16006469726562 176.76734924316406 72.42951965332031 174.2728271484375 74.90687561035156 172.84957885742188 C 75.26741027832031 172.6427001953125 75.7094955444336 172.6315460205078 76.11122131347656 172.52252197265625 C 76.11122131347656 172.52252197265625 76.11122131347656 172.52252197265625 76.11122131347656 172.52252197265625" stroke-width="0.0" fill="rgb(16, 69, 126)" opacity="1.0"/>
  </g>
</svg>
