<?xml version="1.0" ?>
<svg xmlns="http://www.w3.org/2000/svg" version="1.1" width="224" height="224">
  <defs/>
  <g>
    <path d="M 112.0 27.99999237060547 C 112.0 27.99999237060547 112.0 27.99999237060547 112.0 27.99999237060547 C 118.45319366455078 28.09723663330078 124.78337860107422 29.14202117919922 130.83096313476562 31.443527221679688 C 151.4630584716797 39.29557800292969 164.85153198242188 59.294334411621094 165.1815185546875 81.18067169189453 C 165.1815185546875 89.94950103759766 165.1815185546875 98.71916961669922 165.1815185546875 107.48883056640625 C 165.06431579589844 115.14888000488281 163.5515899658203 122.61277770996094 160.3407745361328 129.5929412841797 C 157.46908569335938 135.83584594726562 153.3863983154297 141.4853057861328 148.38607788085938 146.1963653564453 C 143.70660400390625 150.60488891601562 138.24664306640625 154.17225646972656 132.30877685546875 156.64166259765625 C 126.89205169677734 158.893310546875 121.10379028320312 160.22149658203125 115.24903869628906 160.57559204101562 C 92.96955871582031 161.92208862304688 71.72820281982422 148.6857147216797 63.017555236816406 128.1400604248047 C 60.22981262207031 121.5638427734375 58.92820739746094 114.60862731933594 58.81932067871094 107.48551177978516 C 58.81932067871094 98.7166748046875 58.81932067871094 89.94866943359375 58.81932067871094 81.18067169189453 C 59.149295806884766 59.294334411621094 72.53610229492188 39.29557800292969 93.16903686523438 31.443527221679688 C 99.21662139892578 29.14202117919922 105.54680633544922 28.09723663330078 112.0 27.99999237060547 C 112.0 27.99999237060547 112.0 27.99999237060547 112.0 27.99999237060547" stroke-width="0.0" fill="rgb(21, 75, 139)" opacity="1.0"/>
    <path d="M 112.0 30.34222412109375 C 112.0 30.34222412109375 112.0 30.34222412109375 112.0 30.34222412109375 C 90.566650390625 30.707115173339844 71.13142395019531 44.10139846801758 63.99833297729492 64.51573944091797 C 62.11739730834961 69.9000473022461 61.27791976928711 75.47303771972656 61.18067169189453 81.16155242919922 C 61.18067169189453 89.93038940429688 61.18067169189453 98.7000503540039 61.18067169189453 107.46971130371094 C 61.30617904663086 114.83220672607422 62.752410888671875 122.00519561767578 65.86015319824219 128.70608520507812 C 68.61132049560547 134.63645935058594 72.51449584960938 140.01828002929688 77.27958679199219 144.49163818359375 C 82.05630493164062 148.97579956054688 87.68914031982422 152.5356903076172 93.79989624023438 154.89871215820312 C 99.05038452148438 156.9292449951172 104.6341781616211 158.06712341308594 110.26036834716797 158.25912475585938 C 131.07533264160156 158.96644592285156 150.6717987060547 146.3484649658203 158.80810546875 127.20000457763672 C 161.47698974609375 120.91719055175781 162.70297241210938 114.27449798583984 162.81849670410156 107.46971130371094 C 162.81849670410156 98.70669555664062 162.81849670410156 89.94368743896484 162.81849670410156 81.18067169189453 C 162.4694061279297 60.196983337402344 149.65444946289062 41.09007263183594 129.8593292236328 33.60206604003906 C 124.11595153808594 31.43022918701172 118.12322235107422 30.447784423828125 112.0 30.345550537109375 C 112.0 30.345550537109375 112.0 30.345550537109375 112.0 30.345550537109375 C 112.0 30.345550537109375 112.0 30.34222412109375 112.0 30.34222412109375" stroke-width="0.0" fill="rgb(21, 75, 139)" opacity="1.0"/>
    <path d="M 112.0 32.70524597167969 C 112.0 32.70524597167969 112.0 32.70524597167969 112.0 32.70524597167969 C 91.70451354980469 33.05101013183594 73.22846984863281 45.64405059814453 66.33807373046875 64.9496078491211 C 64.46878051757812 70.18431091308594 63.641761779785156 75.61516571044922 63.5470085144043 81.15823364257812 C 63.5470085144043 89.92706298828125 63.5470085144043 98.69672393798828 63.5470085144043 107.46639251708984 C 63.67916488647461 115.22368621826172 65.3606185913086 122.76737213134766 68.95709228515625 129.67605590820312 C 80.27096557617188 151.4102783203125 106.89163970947266 161.6029052734375 129.74046325683594 152.55148315429688 C 135.3824462890625 150.31646728515625 140.572265625 146.99928283691406 145.00323486328125 142.85671997070312 C 149.45745849609375 138.69091796875 153.14535522460938 133.7138671875 155.7760009765625 128.2082061767578 C 158.89205932617188 121.68602752685547 160.32997131347656 114.66847229003906 160.4530029296875 107.46639251708984 C 160.4530029296875 98.70420837402344 160.4530029296875 89.94202423095703 160.4530029296875 81.18067169189453 C 160.35824584960938 75.63761138916016 159.5303955078125 70.20674896240234 157.66192626953125 64.9720458984375 C 150.77403259277344 45.67313766479492 132.2921600341797 33.05516052246094 112.0 32.70856475830078 C 112.0 32.70856475830078 112.0 32.70856475830078 112.0 32.70856475830078 C 112.0 32.70856475830078 112.0 32.70524597167969 112.0 32.70524597167969" stroke-width="0.0" fill="rgb(154, 206, 220)" opacity="1.0"/>
    <path d="M 112.0033187866211 45.649864196777344 C 112.0033187866211 45.649864196777344 112.0033187866211 45.649864196777344 112.0033187866211 45.649864196777344 C 116.22566223144531 45.747108459472656 120.3299789428711 46.40290069580078 124.28218078613281 47.93973159790039 C 137.4337615966797 53.0530891418457 145.71885681152344 65.75999450683594 146.04135131835938 79.68789672851562 C 146.04135131835938 89.08758544921875 146.04135131835938 98.48809814453125 146.04135131835938 107.88861846923828 C 145.90753173828125 113.69683074951172 144.6117401123047 119.2939224243164 141.75918579101562 124.3923110961914 C 133.57632446289062 139.0183868408203 115.384521484375 145.72425842285156 99.72280883789062 139.63345336914062 C 95.817138671875 138.11489868164062 92.21153259277344 135.85829162597656 89.12124633789062 133.02981567382812 C 86.0068588256836 130.1797332763672 83.40363311767578 126.77859497070312 81.51355743408203 123.00177001953125 C 79.14140319824219 118.25828552246094 78.08415222167969 113.16072845458984 77.96197509765625 107.88529968261719 C 77.96363830566406 98.48561096191406 77.96446228027344 89.08675384521484 77.96530151367188 79.68789672851562 C 78.06254577636719 75.46556091308594 78.71916198730469 71.36123657226562 80.25516510009766 67.40986633300781 C 85.37184143066406 54.249969482421875 98.06877899169922 45.970699310302734 112.0033187866211 45.649864196777344 C 112.0033187866211 45.649864196777344 112.0033187866211 45.649864196777344 112.0033187866211 45.649864196777344" stroke-width="0.0" fill="rgb(21, 75, 139)" opacity="1.0"/>
    <path d="M 112.0 48.01537322998047 C 112.0 48.01537322998047 112.0 48.01537322998047 112.0 48.01537322998047 C 115.9754867553711 48.12342834472656 119.8179702758789 48.7376594543457 123.53412628173828 50.20217514038086 C 135.74899291992188 55.01713943481445 143.32009887695312 66.742431640625 143.67251586914062 79.68789672851562 C 143.67251586914062 89.08758544921875 143.67251586914062 98.48809814453125 143.67251586914062 107.88861846923828 C 143.53372192382812 112.9803695678711 142.4864501953125 117.86514282226562 140.1226043701172 122.40997314453125 C 132.7476348876953 136.5897216796875 115.384521484375 143.25485229492188 100.46504211425781 137.37350463867188 C 96.91927337646484 135.97547912597656 93.63615417480469 133.92913818359375 90.80935668945312 131.37413024902344 C 87.58524322509766 128.4608917236328 84.96124267578125 124.8910140991211 83.15843963623047 120.93630981445312 C 81.26753234863281 116.78877258300781 80.45049285888672 112.42264556884766 80.32748413085938 107.88861846923828 C 80.32748413085938 98.48809814453125 80.32748413085938 89.08758544921875 80.32748413085938 79.68789672851562 C 80.43553161621094 75.71157836914062 81.04976654052734 71.86908721923828 82.5151138305664 68.1529312133789 C 87.330078125 55.938072204589844 99.05455017089844 48.36778259277344 112.0 48.01537322998047 C 112.0 48.01537322998047 112.0 48.01537322998047 112.0 48.01537322998047" stroke-width="0.0" fill="rgb(21, 75, 139)" opacity="1.0"/>
    <path d="M 111.99667358398438 50.3775520324707 C 111.99750518798828 50.3775520324707 111.99833679199219 50.3775520324707 112.0 50.3775520324707 C 108.68363952636719 50.47064208984375 105.4695053100586 50.913658142089844 102.3260269165039 52.017452239990234 C 90.47771453857422 56.1807746887207 83.01797485351562 67.35417175292969 82.67054748535156 79.70783996582031 C 82.67054748535156 89.10752868652344 82.67054748535156 98.50721740722656 82.67054748535156 107.9077377319336 C 82.79438781738281 112.33039093017578 83.62306213378906 116.58098602294922 85.56051635742188 120.58638763427734 C 87.24446868896484 124.06732177734375 89.62992095947266 127.19085693359375 92.50576782226562 129.77163696289062 C 94.95188903808594 131.96676635742188 97.76374053955078 133.7504425048828 100.7991714477539 135.0129852294922 C 114.44281005859375 140.68820190429688 130.52841186523438 134.91824340820312 137.678955078125 122.0434341430664 C 140.11428833007812 117.6581802368164 141.1898193359375 112.8897705078125 141.32945251464844 107.9077377319336 C 141.32862854003906 98.50057220458984 141.32778930664062 89.09423065185547 141.3261260986328 79.68789672851562 C 140.981201171875 67.33589172363281 133.5264434814453 56.16082763671875 121.67230987548828 52.010799407958984 C 118.52799987792969 50.910335540771484 115.31221008300781 50.469818115234375 111.99667358398438 50.3775520324707 C 111.99667358398438 50.3775520324707 111.99667358398438 50.3775520324707 111.99667358398438 50.3775520324707" stroke-width="0.0" fill="rgb(254, 254, 254)" opacity="1.0"/>
    <path d="M 51.67292785644531 99.36332702636719 C 91.89070129394531 99.36332702636719 132.1084747314453 99.36332702636719 172.3270721435547 99.36332702636719 C 177.28915405273438 99.80966186523438 180.42514038085938 102.94483184814453 180.87149047851562 107.9077377319336 C 180.87149047851562 134.42868041992188 180.87149047851562 160.94961547851562 180.87149047851562 187.47137451171875 C 180.42514038085938 192.43345642089844 177.28582763671875 195.55532836914062 172.3270721435547 196.0 C 132.1084747314453 195.99835205078125 91.89070129394531 195.99749755859375 51.67292785644531 195.99667358398438 C 46.71084976196289 195.5495147705078 43.57568359375 192.41433715820312 43.128517150878906 187.4522705078125 C 43.128517150878906 160.93714904785156 43.128517150878906 134.42202758789062 43.128517150878906 107.9077377319336 C 43.57568359375 102.94483184814453 46.71084976196289 99.80966186523438 51.67292785644531 99.36332702636719 C 51.67292785644531 99.36332702636719 51.67292785644531 99.36332702636719 51.67292785644531 99.36332702636719" stroke-width="0.0" fill="rgb(16, 69, 126)" opacity="1.0"/>
    <path d="M 51.67292785644531 101.72550964355469 C 91.89070129394531 101.72550964355469 132.1084747314453 101.72550964355469 172.3270721435547 101.72550964355469 C 176.03823852539062 102.22338104248047 178.01144409179688 104.19573974609375 178.50930786132812 107.9077377319336 C 178.50930786132812 134.42868041992188 178.50930786132812 160.94961547851562 178.50930786132812 187.47137451171875 C 178.009765625 191.17672729492188 176.02908325195312 193.137451171875 172.3270721435547 193.6336669921875 C 132.1084747314453 193.6336669921875 91.89070129394531 193.6336669921875 51.67292785644531 193.6336669921875 C 47.961761474609375 193.13580322265625 45.98939895629883 191.16342163085938 45.49153137207031 187.4522705078125 C 45.49153137207031 160.93714904785156 45.49153137207031 134.42202758789062 45.49153137207031 107.9077377319336 C 45.98939895629883 104.19657135009766 47.961761474609375 102.22338104248047 51.67292785644531 101.72550964355469 C 51.67292785644531 101.72550964355469 51.67292785644531 101.72550964355469 51.67292785644531 101.72550964355469" stroke-width="0.0" fill="rgb(16, 69, 126)" opacity="1.0"/>
    <path d="M 51.67292785644531 104.08768463134766 C 51.67292785644531 104.08768463134766 51.67292785644531 104.08768463134766 51.67292785644531 104.08768463134766 C 49.26669692993164 104.57308959960938 48.339107513427734 105.50151062011719 47.852882385253906 107.9077377319336 C 47.852882385253906 134.42868041992188 47.852882385253906 160.94961547851562 47.852882385253906 187.47137451171875 C 48.339107513427734 189.87762451171875 49.26669692993164 190.80520629882812 51.67292785644531 191.2906036376953 C 91.89070129394531 191.2906036376953 132.1084747314453 191.2906036376953 172.3270721435547 191.2906036376953 C 174.73330688476562 190.80520629882812 175.660888671875 189.87762451171875 176.14630126953125 187.47137451171875 C 176.14630126953125 160.94961547851562 176.14630126953125 134.42868041992188 176.14630126953125 107.9077377319336 C 175.660888671875 105.50151062011719 174.7324676513672 104.57308959960938 172.3270721435547 104.08768463134766 C 132.1084747314453 104.08768463134766 91.89070129394531 104.08768463134766 51.67292785644531 104.08768463134766" stroke-width="0.0" fill="rgb(251, 251, 251)" opacity="1.0"/>
    <path d="M 112.0 121.6893539428711 C 112.0 121.6893539428711 112.0 121.6893539428711 112.0 121.6893539428711 C 108.67948150634766 121.98690795898438 105.77703857421875 123.26608276367188 104.02493286132812 126.26327514648438 C 100.48914337158203 132.3133544921875 104.9999008178711 140.16041564941406 112.0 140.16041564941406 C 119.00010681152344 140.16041564941406 123.51002502441406 132.3133544921875 119.97506713867188 126.26327514648438 C 118.22296142578125 123.26608276367188 115.32051849365234 121.98690795898438 112.0 121.6893539428711 C 112.0 121.6893539428711 112.0 121.6893539428711 112.0 121.6893539428711" stroke-width="0.0" fill="rgb(21, 75, 139)" opacity="1.0"/>
    <path d="M 112.0 136.28550720214844 C 112.0 136.28550720214844 112.0 136.28550720214844 112.0 136.28550720214844 C 114.05880737304688 136.7044219970703 114.85589599609375 137.50233459472656 115.2748031616211 139.56114196777344 C 115.2748031616211 150.01559448242188 115.2748031616211 160.47003173828125 115.2748031616211 170.92446899414062 C 115.05703735351562 172.0149688720703 115.14680480957031 172.4164276123047 114.31979370117188 173.24343872070312 C 111.99168395996094 175.5731964111328 109.24468231201172 173.47781372070312 108.72602844238281 170.92446899414062 C 108.72602844238281 160.47003173828125 108.72602844238281 150.01559448242188 108.72602844238281 139.56114196777344 C 109.14410400390625 137.50233459472656 109.94119262695312 136.7044219970703 112.0 136.28550720214844 C 112.0 136.28550720214844 112.0 136.28550720214844 112.0 136.28550720214844" stroke-width="0.0" fill="rgb(20, 72, 132)" opacity="1.0"/>
  </g>
</svg>
