<?xml version="1.0" ?>
<svg xmlns="http://www.w3.org/2000/svg" version="1.1" width="224" height="224">
  <defs/>
  <g>
    <path d="M 73.83499145507812 155.12876892089844 C 73.83499145507812 155.12876892089844 73.83499145507812 155.12876892089844 73.83499145507812 155.12876892089844 C 75.01034545898438 156.401123046875 75.12871551513672 156.91433715820312 74.61932373046875 158.57005310058594 C 69.01748657226562 167.50167846679688 63.41565704345703 176.43406677246094 57.81382369995117 185.366455078125 C 56.264251708984375 186.81369018554688 53.08262252807617 186.92977905273438 53.20481491088867 183.95816040039062 C 53.22314453125 183.52285766601562 53.460662841796875 183.12571716308594 53.588966369628906 182.71026611328125 C 59.190792083740234 173.77786254882812 64.79263305664062 164.8447265625 70.39446258544922 155.91233825683594 C 71.66604614257812 154.7377471923828 72.17926025390625 154.61936950683594 73.83499145507812 155.12876892089844 C 73.83499145507812 155.12876892089844 73.83499145507812 155.12876892089844 73.83499145507812 155.12876892089844" stroke-width="0.0" fill="rgb(21, 75, 139)" opacity="1.0"/>
    <path d="M 150.1505126953125 155.12876892089844 C 150.1505126953125 155.12876892089844 150.1505126953125 155.12876892089844 150.1505126953125 155.12876892089844 C 151.80548095703125 154.61936950683594 152.3194580078125 154.7369842529297 153.59103393554688 155.91233825683594 C 159.19287109375 164.8447265625 164.79470825195312 173.77786254882812 170.39576721191406 182.71026611328125 C 170.52407836914062 183.12649536132812 170.7615966796875 183.5236053466797 170.77992248535156 183.95892333984375 C 170.9028778076172 186.93283081054688 167.71896362304688 186.8106231689453 166.16786193847656 185.366455078125 C 160.56756591796875 176.43406677246094 154.96649169921875 167.50167846679688 149.36618041992188 158.57005310058594 C 148.8575439453125 156.91433715820312 148.97439575195312 156.4003448486328 150.1505126953125 155.12876892089844 C 150.1505126953125 155.12876892089844 150.1505126953125 155.12876892089844 150.1505126953125 155.12876892089844" stroke-width="0.0" fill="rgb(21, 75, 139)" opacity="1.0"/>
    <path d="M 57.58089065551758 37.61476135253906 C 57.58089065551758 37.61476135253906 57.58089065551758 37.61476135253906 57.58089065551758 37.61476135253906 C 65.02709197998047 37.8232536315918 71.37430572509766 40.78874969482422 76.5423583984375 46.11793518066406 C 93.83815002441406 64.95185852050781 111.13471984863281 83.78578186035156 128.43128967285156 102.61969757080078 C 136.67938232421875 112.104248046875 138.58409118652344 125.89384460449219 132.71876525878906 137.14181518554688 C 126.54873657226562 148.97325134277344 112.42005157470703 155.08982849121094 99.82643127441406 149.8507537841797 C 96.22857666015625 148.35464477539062 93.20503234863281 146.04440307617188 90.50912475585938 143.26449584960938 C 73.21256256103516 124.43133544921875 55.9167594909668 105.59817504882812 38.62096405029297 86.76578521728516 C 28.0 74.55401611328125 28.286392211914062 55.024356842041016 40.719635009765625 44.05820846557617 C 42.85803985595703 42.171836853027344 45.297332763671875 40.6268424987793 47.9321403503418 39.53244400024414 C 51.02823257446289 38.245582580566406 54.245758056640625 37.70793533325195 57.58089065551758 37.61476135253906 C 57.58089065551758 37.61476135253906 57.58089065551758 37.61476135253906 57.58089065551758 37.61476135253906" stroke-width="0.0" fill="rgb(21, 75, 139)" opacity="1.0"/>
    <path d="M 40.45691680908203 47.791236877441406 C 40.45691680908203 47.791236877441406 40.45691680908203 47.791236877441406 40.45691680908203 47.791236877441406 C 47.53272247314453 40.557350158691406 57.99253463745117 37.83852767944336 67.3655776977539 42.328392028808594 C 70.17680358886719 43.67558288574219 72.52293395996094 45.57417297363281 74.68805694580078 47.791236877441406 C 91.9899673461914 66.62973022460938 109.29264831542969 85.46900177001953 126.59455871582031 104.30751037597656 C 134.29660034179688 113.21926879882812 135.94393920898438 126.22911071777344 130.1549835205078 136.63470458984375 C 124.46456146240234 146.86233520507812 112.1160888671875 152.09683227539062 101.03003692626953 147.63369750976562 C 97.66817474365234 146.2803955078125 94.87832641601562 144.1549835205078 92.3634262084961 141.57974243164062 C 75.06150817871094 122.74581909179688 57.75960159301758 103.91190338134766 40.45691680908203 85.07875061035156 C 31.17017364501953 74.33865356445312 31.169410705566406 58.53132629394531 40.45691680908203 47.791236877441406 C 40.45691680908203 47.791236877441406 40.45691680908203 47.791236877441406 40.45691680908203 47.791236877441406" stroke-width="0.0" fill="rgb(21, 75, 139)" opacity="1.0"/>
    <path d="M 57.58089065551758 42.59416580200195 C 57.58089065551758 42.59416580200195 57.58089065551758 42.59416580200195 57.58089065551758 42.59416580200195 C 54.697872161865234 42.694976806640625 51.94774627685547 43.176876068115234 49.29918670654297 44.36903762817383 C 34.25786590576172 51.137821197509766 32.137794494628906 71.65573120117188 42.279136657714844 83.39094543457031 C 59.58029556274414 102.2240982055664 76.88143920898438 121.05801391601562 94.18258666992188 139.89193725585938 C 96.58141326904297 142.3404083251953 99.25593566894531 144.34056091308594 102.4986572265625 145.53501892089844 C 112.89508056640625 149.36351013183594 124.01779174804688 143.80520629882812 128.67262268066406 134.08924865722656 C 133.1204833984375 124.8017349243164 131.42733764648438 113.69583129882812 124.75707244873047 105.97698211669922 C 107.45515441894531 87.14305877685547 90.15324401855469 68.30990600585938 72.8505630493164 49.475982666015625 C 68.63105010986328 45.17780685424805 63.62338638305664 42.807247161865234 57.58089065551758 42.59416580200195 C 57.58089065551758 42.59416580200195 57.58089065551758 42.59416580200195 57.58089065551758 42.59416580200195" stroke-width="0.0" fill="rgb(151, 200, 213)" opacity="1.0"/>
    <path d="M 166.42141723632812 37.61476135253906 C 166.42141723632812 37.61476135253906 166.42141723632812 37.61476135253906 166.42141723632812 37.61476135253906 C 169.7557830810547 37.70793533325195 172.97024536132812 38.245582580566406 176.0648193359375 39.53244400024414 C 178.69961547851562 40.62760543823242 181.13815307617188 42.17412567138672 183.27809143066406 44.05820846557617 C 195.72354125976562 55.01595687866211 196.0 74.5555419921875 185.38287353515625 86.76578521728516 C 168.07562255859375 105.59970092773438 150.7683563232422 124.43362426757812 133.4618682861328 143.26754760742188 C 130.77053833007812 146.05128479003906 127.74929809570312 148.35845947265625 124.15220642089844 149.8538055419922 C 111.5654525756836 155.08676147460938 97.4337158203125 148.96408081054688 91.26673889160156 137.14028930664062 C 85.39989471435547 125.89231872558594 87.30687713623047 112.1019515991211 95.55421447753906 102.61664581298828 C 112.85689544677734 83.78425598144531 130.1588134765625 64.95109558105469 147.46072387695312 46.11793518066406 C 152.62112426757812 40.7811164855957 158.978271484375 37.8232536315918 166.42141723632812 37.61476135253906 C 166.42141723632812 37.61476135253906 166.42141723632812 37.61476135253906 166.42141723632812 37.61476135253906" stroke-width="0.0" fill="rgb(21, 75, 139)" opacity="1.0"/>
    <path d="M 149.29745483398438 47.80574417114258 C 131.99554443359375 66.63966369628906 114.69361877441406 85.47358703613281 97.39094543457031 104.30751037597656 C 89.67744445800781 113.21544647216797 88.0224838256836 126.22758483886719 93.82364654541016 136.63470458984375 C 99.52246856689453 146.8585205078125 111.8663558959961 152.09759521484375 122.95470428466797 147.63369750976562 C 126.31733703613281 146.2803955078125 129.107177734375 144.1549835205078 131.62208557128906 141.57974243164062 C 148.9239959716797 122.74581909179688 166.2259063720703 103.91190338134766 183.52857971191406 85.07875061035156 C 190.89993286132812 76.55265808105469 192.7672119140625 64.32102966308594 187.79315185546875 54.08498764038086 C 182.44488525390625 43.079124450683594 169.6015167236328 37.067176818847656 157.96405029296875 41.751792907714844 C 154.60220336914062 43.10509490966797 151.81158447265625 45.23050308227539 149.29745483398438 47.80574417114258 C 149.29745483398438 47.80574417114258 149.29745483398438 47.80574417114258 149.29745483398438 47.80574417114258" stroke-width="0.0" fill="rgb(21, 75, 139)" opacity="1.0"/>
    <path d="M 166.42141723632812 42.59111022949219 C 166.42141723632812 42.59111022949219 166.42141723632812 42.59111022949219 166.42141723632812 42.59111022949219 C 160.372802734375 42.80342483520508 155.35598754882812 45.16558837890625 151.13418579101562 49.47292709350586 C 133.83226013183594 68.313720703125 116.52958679199219 87.15451049804688 99.22767639160156 105.99531555175781 C 92.56733703613281 113.70346069335938 90.84898376464844 124.82083129882812 95.30830383300781 134.09458923339844 C 99.97534942626953 143.80213928222656 111.088134765625 149.3612060546875 121.48532104492188 145.53195190429688 C 124.72956848144531 144.33750915527344 127.40409088134766 142.33734130859375 129.80291748046875 139.88888549804688 C 147.10482788085938 121.05496215820312 164.40750122070312 102.22103881835938 181.70941162109375 83.38787841796875 C 191.8438720703125 71.65878295898438 189.7459716796875 51.133235931396484 174.70541381835938 44.36598205566406 C 172.05609130859375 43.173824310302734 169.30519104003906 42.691925048828125 166.42141723632812 42.59111022949219 C 166.42141723632812 42.59111022949219 166.42141723632812 42.59111022949219 166.42141723632812 42.59111022949219" stroke-width="0.0" fill="rgb(151, 200, 213)" opacity="1.0"/>
    <path d="M 111.99313354492188 44.201019287109375 C 111.99313354492188 44.201019287109375 111.99313354492188 44.201019287109375 111.99313354492188 44.201019287109375 C 122.20932006835938 44.30717468261719 132.21701049804688 46.437171936035156 141.46939086914062 50.8216438293457 C 149.47235107421875 54.61347961425781 156.70928955078125 59.964813232421875 162.690673828125 66.49531555175781 C 182.83360290527344 88.49024963378906 186.46658325195312 121.900390625 171.42221069335938 147.6764678955078 C 167.7006378173828 154.05270385742188 162.93736267089844 159.8057403564453 157.3981475830078 164.6851043701172 C 151.50076293945312 169.8798828125 144.72662353515625 174.0184326171875 137.42782592773438 176.928955078125 C 129.34927368164062 180.15182495117188 120.68800354003906 181.78768920898438 111.99313354492188 181.7884521484375 C 103.29750061035156 181.78997802734375 94.63699340820312 180.15182495117188 86.55767822265625 176.9320068359375 C 79.72245025634766 174.20709228515625 73.33628845214844 170.39462280273438 67.70848083496094 165.65196228027344 C 44.893333435058594 146.42474365234375 36.97362518310547 113.72179412841797 48.609554290771484 86.21743774414062 C 51.67280960083008 78.97591400146484 55.971744537353516 72.28350067138672 61.290245056152344 66.49226379394531 C 67.28080749511719 59.970157623291016 74.50399780273438 54.61042404174805 82.51152801513672 50.8216438293457 C 91.76925659179688 46.44098663330078 101.77159881591797 44.30717468261719 111.99313354492188 44.201019287109375 C 111.99313354492188 44.201019287109375 111.99313354492188 44.201019287109375 111.99313354492188 44.201019287109375" stroke-width="0.0" fill="rgb(21, 75, 139)" opacity="1.0"/>
    <path d="M 78.84723663330078 55.5856819152832 C 78.84723663330078 55.5856819152832 78.84723663330078 55.5856819152832 78.84723663330078 55.5856819152832 C 70.56324768066406 60.497886657714844 63.35761260986328 66.92681884765625 57.79931640625 74.8175048828125 C 52.91307830810547 81.75506591796875 49.37861633300781 89.62588500976562 47.44489288330078 97.88849639892578 C 45.58831024169922 105.81889343261719 45.212562561035156 114.08378601074219 46.33674621582031 122.15089416503906 C 47.373870849609375 129.5940399169922 49.688682556152344 136.85006713867188 53.14982604980469 143.5203399658203 C 56.36658477783203 149.72015380859375 60.566246032714844 155.4044647216797 65.55023193359375 160.29833984375 C 86.55386352539062 180.921630859375 119.65011596679688 185.11978149414062 145.13827514648438 170.40455627441406 C 170.6264190673828 155.68856811523438 183.53927612304688 124.92698669433594 176.180908203125 96.42522430419922 C 174.43505859375 89.66255187988281 171.61312866210938 83.18397521972656 167.8518524169922 77.29803466796875 C 163.80569458007812 70.96533203125 158.67965698242188 65.33294677734375 152.751708984375 60.713253021240234 C 146.32736206054688 55.70635223388672 138.98121643066406 51.900001525878906 131.18447875976562 49.54242706298828 C 123.06238555908203 47.08556365966797 114.47901916503906 46.21111297607422 106.02777099609375 46.974056243896484 C 96.4149169921875 47.841636657714844 87.2442626953125 50.867469787597656 78.84723663330078 55.5856819152832 C 78.84723663330078 55.5856819152832 78.84723663330078 55.5856819152832 78.84723663330078 55.5856819152832" stroke-width="0.0" fill="rgb(21, 75, 139)" opacity="1.0"/>
    <path d="M 111.99313354492188 49.195701599121094 C 111.99313354492188 49.195701599121094 111.99313354492188 49.195701599121094 111.99313354492188 49.195701599121094 C 102.8377456665039 49.30414581298828 93.8465576171875 51.10422134399414 85.49765014648438 54.91972732543945 C 59.95756530761719 66.59231567382812 44.868125915527344 94.4212417602539 48.83943557739258 122.17532348632812 C 49.694793701171875 128.1521453857422 51.403221130371094 134.00294494628906 53.91353988647461 139.4947967529297 C 57.29220962524414 146.88754272460938 62.111995697021484 153.57919311523438 67.99029541015625 159.1871337890625 C 73.48291778564453 164.42697143554688 79.894287109375 168.6892547607422 86.87309265136719 171.68072509765625 C 94.7905044555664 175.0746612548828 103.38150787353516 176.80294799804688 111.99313354492188 176.8037109375 C 120.60322570800781 176.8037109375 129.1949920654297 175.0800018310547 137.11241149902344 171.68759155273438 C 144.093505859375 168.69688415527344 150.5048828125 164.43307495117188 155.99520874023438 159.18865966796875 C 161.86892700195312 153.57843017578125 166.68565368652344 146.88449096679688 170.06509399414062 139.4947967529297 C 172.576171875 134.00294494628906 174.28765869140625 128.1529083251953 175.14453125 122.17532348632812 C 179.12806701660156 94.39756774902344 164.03099060058594 66.61216735839844 138.48175048828125 54.927364349365234 C 130.1351318359375 51.11032485961914 121.1469955444336 49.30414581298828 111.99313354492188 49.195701599121094 C 111.99313354492188 49.195701599121094 111.99313354492188 49.195701599121094 111.99313354492188 49.195701599121094" stroke-width="0.0" fill="rgb(246, 248, 248)" opacity="1.0"/>
    <path d="M 111.99313354492188 68.6062240600586 C 111.99313354492188 83.40316009521484 111.99313354492188 98.2000961303711 111.99313354492188 112.99626922607422 C 121.14164733886719 120.25230407714844 130.29092407226562 127.507568359375 139.44021606445312 134.76283264160156 C 130.29092407226562 112.71063995361328 121.14164733886719 90.65843200683594 111.99313354492188 68.6062240600586" stroke-width="0.0" fill="rgb(246, 248, 248)" opacity="1.0"/>
    <path d="M 111.97785949707031 66.11727905273438 C 111.97785949707031 66.11727905273438 111.97785949707031 66.11727905273438 111.97785949707031 66.11727905273438 C 113.64046478271484 66.56939697265625 114.01544189453125 66.94361877441406 114.46755981445312 68.6062240600586 C 114.46755981445312 83.00144958496094 114.46755981445312 97.39666748046875 114.46755981445312 111.79188537597656 C 123.29837799072266 118.79742431640625 132.1291961669922 125.80219268798828 140.96075439453125 132.80697631835938 C 141.21888732910156 133.15599060058594 141.57554626464844 133.45079040527344 141.73593139648438 133.85403442382812 C 142.79290771484375 136.51480102539062 139.8342742919922 137.7642364501953 137.88681030273438 136.73397827148438 C 128.73753356933594 129.47259521484375 119.5882568359375 122.21045684814453 110.43974304199219 114.94908142089844 C 109.9822769165039 114.38622283935547 109.64929962158203 113.70040893554688 109.48739624023438 112.99320983886719 C 109.48739624023438 98.19780731201172 109.48739624023438 83.40239715576172 109.48739624023438 68.6062240600586 C 109.93950653076172 66.94361877441406 110.31449127197266 66.56939697265625 111.97785949707031 66.11727905273438 C 111.97785949707031 66.11727905273438 111.97785949707031 66.11727905273438 111.97785949707031 66.11727905273438" stroke-width="0.0" fill="rgb(21, 75, 139)" opacity="1.0"/>
  </g>
</svg>
