<?xml version="1.0" ?>
<svg xmlns="http://www.w3.org/2000/svg" version="1.1" width="224" height="224">
  <defs/>
  <g>
    <path d="M 96.71341705322266 193.55520629882812 C 83.91200256347656 191.78341674804688 74.10479736328125 187.26666259765625 65.54299926757812 179.58456420898438 C 57.295310974121094 171.35333251953125 52.214359283447266 161.39389038085938 50.6995849609375 149.76060485839844 L 49.737274169921875 144.99913024902344 L 45.89708709716797 146.09182739257812 C 40.73162078857422 146.22767639160156 38.177490234375 144.4988555908203 36.04882049560547 139.34323120117188 C 34.25226593017578 135.96083068847656 33.36308288574219 134.48748779296875 32.743019104003906 123.84291076660156 C 33.508384704589844 114.32083892822266 34.25239562988281 110.65276336669922 35.495750427246094 107.25366973876953 C 37.331565856933594 100.09962463378906 41.55201721191406 93.42768859863281 45.612403869628906 91.16911315917969 L 49.55450439453125 89.84698486328125 L 49.42123794555664 72.4206314086914 L 46.10633087158203 72.02168273925781 C 37.959266662597656 68.5458755493164 39.18730163574219 55.043636322021484 48.303138732910156 47.789066314697266 C 67.66441345214844 32.08595275878906 120.28981018066406 28.0 154.44598388671875 39.51664733886719 C 162.99668884277344 42.43048095703125 166.32920837402344 44.33664321899414 171.08197021484375 48.108943939208984 C 175.6314239501953 52.9913330078125 177.15394592285156 56.280879974365234 177.73239135742188 62.11337661743164 C 177.3234100341797 67.12721252441406 177.5371551513672 67.79191589355469 172.06396484375 72.46450805664062 C 169.66201782226562 71.93707275390625 169.46029663085938 75.51146697998047 169.63894653320312 81.43572235107422 L 169.11685180664062 89.274169921875 L 171.80490112304688 90.64764404296875 C 186.27566528320312 97.8602294921875 191.25698852539062 131.4007568359375 180.15206909179688 143.37709045410156 C 177.38648986816406 145.16029357910156 176.82470703125 145.73765563964844 173.44561767578125 145.77938842773438 C 168.64639282226562 144.61106872558594 168.34228515625 144.48123168945312 168.68569946289062 148.53480529785156 C 166.2373046875 166.30633544921875 156.59774780273438 179.32559204101562 142.5872802734375 187.0177459716797 C 131.2531280517578 193.52691650390625 111.76934051513672 196.0 96.71341705322266 193.55520629882812" stroke-width="1.0" fill="rgb(15, 36, 66)" opacity="0.9906042"/>
    <path d="M 54.221458435058594 80.01349639892578 C 54.435455322265625 71.7210693359375 53.19110870361328 68.97198486328125 49.56406021118164 68.05944061279297 C 40.34923553466797 64.68894958496094 46.27386474609375 52.318138122558594 59.41682815551758 46.47541427612305 C 70.00772094726562 41.31446075439453 93.4968490600586 37.24530029296875 110.38457489013672 37.55140686035156 C 128.82794189453125 37.46000671386719 151.35801696777344 41.949951171875 162.60577392578125 48.18254470825195 C 168.99261474609375 51.60425567626953 173.50650024414062 56.99920654296875 173.5879669189453 61.87456130981445 C 173.43545532226562 64.8336181640625 171.54556274414062 67.74696350097656 169.4625244140625 67.92414855957031 C 166.0945281982422 67.83042907714844 165.13751220703125 69.73246765136719 164.90310668945312 77.91519165039062 L 164.5141143798828 86.7946548461914 L 109.30046081542969 86.69593811035156 L 54.260860443115234 86.86198425292969 L 54.221458435058594 80.01349639892578" stroke-width="1.0" fill="rgb(74, 108, 144)" opacity="0.99504113"/>
    <path d="M 100.44319152832031 189.1804656982422 C 77.17234802246094 186.8168182373047 61.26741409301758 173.74786376953125 56.362464904785156 155.13490295410156 C 54.36212158203125 146.11717224121094 53.845314025878906 141.92782592773438 57.38365936279297 138.5030059814453 C 63.38465118408203 130.68734741210938 67.7147445678711 115.92159271240234 68.9293212890625 100.62700653076172 L 70.0738296508789 91.65113830566406 L 148.08807373046875 91.57182312011719 L 149.15740966796875 95.27333068847656 C 150.14584350585938 112.18707275390625 154.6644287109375 128.4391326904297 160.6974334716797 137.06312561035156 C 164.8379364013672 141.9591064453125 164.8118133544922 142.43368530273438 164.0421142578125 147.83802795410156 C 161.79425048828125 167.58340454101562 148.2367401123047 182.5252685546875 127.86563110351562 187.6275634765625 C 121.52597045898438 189.33322143554688 106.40715026855469 190.29391479492188 100.44319152832031 189.1804656982422" stroke-width="1.0" fill="rgb(252, 252, 252)" opacity="0.99310404"/>
    <path d="M 100.53043365478516 61.60892868041992 C 99.17507934570312 58.49777603149414 100.71766662597656 55.6397819519043 103.61648559570312 56.04759979248047 C 105.88318634033203 56.16819381713867 106.65802001953125 57.20981216430664 106.73295593261719 59.13322067260742 C 106.77375793457031 61.61202621459961 106.25828552246094 62.63263702392578 104.01097869873047 63.0523567199707 C 102.29723358154297 63.35105514526367 100.9227066040039 62.617149353027344 100.53043365478516 61.60892868041992" stroke-width="1.0" fill="rgb(9, 34, 67)" opacity="0.9809797"/>
    <path d="M 113.15702056884766 61.179771423339844 C 112.12539672851562 58.45301818847656 113.48661041259766 56.23431396484375 116.27696228027344 56.1311149597168 C 117.6908950805664 56.20254898071289 118.99714660644531 56.923030853271484 119.38744354248047 57.75272750854492 C 120.2596206665039 60.36991500854492 119.06218719482422 62.744571685791016 116.18646240234375 62.90521240234375 C 114.86610412597656 62.802913665771484 113.52595520019531 61.989097595214844 113.15702056884766 61.179771423339844" stroke-width="1.0" fill="rgb(12, 36, 67)" opacity="0.9768136"/>
    <path d="M 63.62093734741211 70.48085021972656 C 57.15799331665039 64.38845825195312 61.6239128112793 53.25225067138672 69.88978576660156 53.336002349853516 C 74.8629150390625 53.42863845825195 77.12975311279297 54.50252151489258 79.0046157836914 58.54431915283203 C 81.75236511230469 63.84027099609375 80.45573425292969 69.061767578125 75.51287841796875 71.70590209960938 C 71.072509765625 74.24604797363281 66.8185806274414 73.86911010742188 63.62093734741211 70.48085021972656" stroke-width="1.0" fill="rgb(8, 31, 64)" opacity="0.9927641"/>
    <path d="M 142.34173583984375 70.49234008789062 C 139.6342315673828 67.93939971923828 139.047119140625 66.73905944824219 138.99710083007812 63.299278259277344 C 139.0435028076172 59.61640548706055 139.72781372070312 58.498313903808594 142.38845825195312 55.93877410888672 C 146.86981201171875 51.80235290527344 151.83453369140625 52.044158935546875 155.90115356445312 55.970237731933594 C 162.06182861328125 62.45833206176758 157.85250854492188 73.2783203125 149.53109741210938 73.37873840332031 C 146.55331420898438 73.32804107666016 144.654052734375 72.44088745117188 142.34173583984375 70.49234008789062" stroke-width="1.0" fill="rgb(8, 30, 63)" opacity="0.9936147"/>
    <path d="M 106.10966491699219 186.55995178222656 C 104.439697265625 185.26254272460938 103.5866470336914 181.99459838867188 102.534912109375 172.10626220703125 C 101.78972625732422 164.608154296875 101.03666687011719 157.07015991210938 100.72539520263672 155.07810974121094 C 100.2962417602539 151.41802978515625 99.78205108642578 150.75033569335938 96.3431396484375 149.88497924804688 C 86.48628997802734 145.59262084960938 82.90122985839844 134.01644897460938 89.252197265625 127.83206176757812 C 94.87466430664062 122.42045593261719 116.23575592041016 121.29841613769531 125.90106964111328 125.65084075927734 C 129.37351989746094 127.3333740234375 130.8462677001953 128.73390197753906 132.01986694335938 131.30007934570312 C 134.7205352783203 137.89598083496094 130.42620849609375 146.37286376953125 122.66334533691406 149.72134399414062 C 120.5413589477539 150.2620086669922 118.3209457397461 151.56150817871094 118.79883575439453 152.52157592773438 C 118.87322235107422 156.29544067382812 115.87445831298828 180.56802368164062 114.92388153076172 183.69378662109375 C 113.32389831542969 188.11856079101562 109.31884002685547 189.51565551757812 106.10966491699219 186.55995178222656" stroke-width="1.0" fill="rgb(11, 34, 63)" opacity="0.99408346"/>
    <path d="M 85.07503509521484 116.79932403564453 C 82.20494079589844 115.07443237304688 79.47456359863281 110.53701782226562 79.50819396972656 107.35491943359375 C 79.46119689941406 102.12406921386719 85.18165588378906 96.71713256835938 90.80613708496094 96.68987274169922 C 94.43334197998047 96.46202087402344 99.07518768310547 99.89903259277344 100.35403442382812 103.7327651977539 C 103.35169219970703 113.3520736694336 93.79949188232422 121.47406005859375 85.07503509521484 116.79932403564453" stroke-width="1.0" fill="rgb(6, 29, 61)" opacity="0.9998737"/>
    <path d="M 122.71737670898438 116.94435119628906 C 119.79512023925781 115.67998504638672 117.20106506347656 111.32721710205078 117.2254867553711 107.87885284423828 C 117.00232696533203 106.2831802368164 117.71684265136719 104.13267517089844 118.55049133300781 102.45045471191406 C 120.24984741210938 99.34342956542969 124.72997283935547 96.56271362304688 128.09959411621094 96.5809555053711 C 131.48292541503906 96.53782653808594 135.9508819580078 99.37987518310547 137.53857421875 102.65843963623047 C 139.7364959716797 107.08744812011719 138.53207397460938 111.55402374267578 134.6151123046875 115.51510620117188 C 130.95230102539062 118.60529327392578 127.30198669433594 119.03440856933594 122.71737670898438 116.94435119628906" stroke-width="1.0" fill="rgb(6, 29, 61)" opacity="0.99961835"/>
    <path d="M 108.7059326171875 183.01336669921875 C 108.04751586914062 181.61431884765625 105.13519287109375 154.34231567382812 105.02747344970703 152.09405517578125 C 105.3342056274414 151.66744995117188 107.41907501220703 151.2314910888672 110.02117919921875 151.6190643310547 C 115.31085968017578 151.182861328125 115.17422485351562 150.17227172851562 112.63092041015625 168.73220825195312 C 111.39328002929688 181.690185546875 110.05965423583984 186.42822265625 108.7059326171875 183.01336669921875" stroke-width="1.0" fill="rgb(214, 173, 164)" opacity="0.99265397"/>
    <path d="M 86.76408386230469 109.78746795654297 C 85.37374877929688 105.98530578613281 87.12272644042969 103.39629364013672 90.83512115478516 103.79192352294922 C 92.72240447998047 104.48919677734375 93.55509948730469 105.48951721191406 93.98941040039062 107.08377075195312 C 94.3569107055664 111.63822174072266 88.64250183105469 113.45722198486328 86.76408386230469 109.78746795654297" stroke-width="1.0" fill="rgb(247, 251, 252)" opacity="0.9800325"/>
    <path d="M 124.96573638916016 109.86639404296875 C 123.19111633300781 107.59004211425781 123.47943878173828 106.10301208496094 126.37091827392578 104.22279357910156 C 128.4468994140625 102.91905975341797 131.6551971435547 104.3101806640625 132.04579162597656 106.8814926147461 C 132.78890991210938 108.45899963378906 129.6031951904297 112.12265014648438 127.82814025878906 111.70376586914062 C 127.08306884765625 111.92496490478516 126.02257537841797 110.85027313232422 124.96573638916016 109.86639404296875" stroke-width="1.0" fill="rgb(248, 251, 253)" opacity="0.9827248"/>
  </g>
</svg>
