<?xml version="1.0" ?>
<svg xmlns="http://www.w3.org/2000/svg" version="1.1" width="224" height="224">
  <defs/>
  <g>
    <path d="M 175.94351196289062 120.00782012939453 C 175.94351196289062 120.00782012939453 175.94351196289062 120.00782012939453 175.94351196289062 120.00782012939453 C 179.890625 122.2025375366211 183.44833374023438 126.07032012939453 186.1959228515625 129.58473205566406 C 190.45794677734375 135.03907775878906 196.0 147.15805053710938 188.03005981445312 152.024658203125 C 182.9302978515625 155.13763427734375 174.99639892578125 153.3167266845703 169.65383911132812 152.09677124023438 C 165.94711303710938 151.25181579589844 162.29568481445312 150.16888427734375 158.6875 148.9729766845703 C 157.30169677734375 148.51502990722656 155.46275329589844 148.12921142578125 155.08053588867188 146.43569946289062 C 154.48318481445312 143.7974853515625 157.93389892578125 142.86599731445312 159.57333374023438 141.81190490722656 C 164.11297607421875 138.89724731445312 167.11297607421875 135.07752990722656 169.2764434814453 130.17849731445312 C 170.36898803710938 127.2974853515625 171.46034240722656 124.41647338867188 172.55288696289062 121.53546905517578 C 173.01202392578125 121.04627990722656 173.32090759277344 120.3455581665039 173.93148803710938 120.06912231445312 C 174.54327392578125 119.79387664794922 175.27284240722656 120.02825164794922 175.94351196289062 120.00782012939453 C 175.94351196289062 120.00782012939453 175.94351196289062 120.00782012939453 175.94351196289062 120.00782012939453" stroke-width="0.0" fill="rgb(73, 53, 39)" opacity="1.0"/>
    <path d="M 45.283653259277344 119.8611831665039 C 45.283653259277344 119.8611831665039 45.283653259277344 119.8611831665039 45.283653259277344 119.8611831665039 C 46.06009292602539 120.31190490722656 46.95792770385742 120.7506103515625 47.39302444458008 121.53546905517578 C 48.47715759277344 124.39244079589844 49.56129455566406 127.24940490722656 50.64542770385742 130.10638427734375 C 52.46634292602539 134.23858642578125 54.83293151855469 137.79627990722656 58.49278259277344 140.53546142578125 C 60.052886962890625 141.70252990722656 64.05168151855469 143.0186309814453 64.74879455566406 144.9873809814453 C 66.12499237060547 148.8804168701172 58.972354888916016 149.74459838867188 56.79206085205078 150.3936309814453 C 54.91105651855469 150.95252990722656 52.9915885925293 151.4765625 51.08172607421875 151.93209838867188 C 49.40864944458008 152.3311309814453 47.6959114074707 152.6881103515625 45.99759292602539 152.96575927734375 C 40.30528259277344 153.89724731445312 30.294464111328125 154.8575897216797 28.37139129638672 147.4537353515625 C 28.03485870361328 146.15805053710938 27.99999237060547 144.6208038330078 28.07451629638672 143.28907775878906 C 28.18628692626953 141.29627990722656 28.604568481445312 139.3287353515625 29.27643585205078 137.45013427734375 C 30.545669555664062 133.89724731445312 32.676673889160156 130.7061309814453 35.15143585205078 127.88402557373047 C 37.856964111328125 124.7986831665039 41.25841522216797 120.93089294433594 45.283653259277344 119.8611831665039 C 45.283653259277344 119.8611831665039 45.283653259277344 119.8611831665039 45.283653259277344 119.8611831665039" stroke-width="0.0" fill="rgb(73, 53, 39)" opacity="1.0"/>
    <path d="M 175.0108184814453 122.46694946289062 C 175.0108184814453 122.46694946289062 175.0108184814453 122.46694946289062 175.0108184814453 122.46694946289062 C 180.98556518554688 127.11719512939453 187.14541625976562 133.00901794433594 188.85336303710938 140.6929168701172 C 189.5264434814453 143.72055053710938 189.88461303710938 147.93569946289062 186.75241088867188 149.72657775878906 C 184.2704315185547 151.14605712890625 180.9290771484375 151.0210418701172 178.19232177734375 150.80349731445312 C 171.1766815185547 150.24819946289062 164.3040771484375 148.1232147216797 157.68148803710938 145.85157775878906 C 157.68148803710938 145.85157775878906 157.68148803710938 145.85157775878906 157.68148803710938 145.85157775878906 C 164.18389892578125 142.5318603515625 168.7896728515625 137.8419647216797 171.7259521484375 131.13522338867188 C 172.82090759277344 128.2458038330078 173.91586303710938 125.35637664794922 175.0108184814453 122.46694946289062" stroke-width="0.0" fill="rgb(73, 53, 39)" opacity="1.0"/>
    <path d="M 44.935089111328125 122.46694946289062 C 46.031246185302734 125.35758209228516 47.127403259277344 128.24940490722656 48.224754333496094 131.14002990722656 C 51.16706466674805 137.85397338867188 55.77403259277344 142.5210418701172 62.270423889160156 145.86480712890625 C 62.270423889160156 145.86480712890625 62.270423889160156 145.86480712890625 62.270423889160156 145.86480712890625 C 55.980770111083984 147.95974731445312 49.57451629638672 149.9669647216797 42.954322814941406 150.69052124023438 C 39.90985107421875 151.02345275878906 35.974754333496094 151.3599853515625 33.189903259277344 149.74099731445312 C 30.064895629882812 147.92369079589844 30.419464111328125 143.73138427734375 31.09735107421875 140.6844940185547 C 32.814903259277344 132.96815490722656 38.990379333496094 127.17608642578125 44.935089111328125 122.46694946289062 C 44.935089111328125 122.46694946289062 44.935089111328125 122.46694946289062 44.935089111328125 122.46694946289062" stroke-width="0.0" fill="rgb(73, 53, 39)" opacity="1.0"/>
    <path d="M 176.18270874023438 126.79388427734375 C 175.51443481445312 128.5583038330078 174.84495544433594 130.3239288330078 174.1754913330078 132.08953857421875 C 171.83053588867188 137.47056579589844 168.68991088867188 141.5655059814453 164.0444793701172 145.15805053710938 C 164.0444793701172 145.15805053710938 164.0444793701172 145.15805053710938 164.0444793701172 145.15805053710938 C 169.12380981445312 146.63522338867188 174.33892822265625 148.17970275878906 179.66465759277344 148.3804168701172 C 181.40264892578125 148.4453125 183.95913696289062 148.5006103515625 185.47596740722656 147.42849731445312 C 187.2572021484375 146.16888427734375 186.70672607421875 143.227783203125 186.33413696289062 141.4333038330078 C 185.078125 135.3804168701172 180.6021728515625 130.7842559814453 176.18270874023438 126.79388427734375 C 176.18270874023438 126.79388427734375 176.18270874023438 126.79388427734375 176.18270874023438 126.79388427734375" stroke-width="0.0" fill="rgb(202, 134, 99)" opacity="1.0"/>
    <path d="M 43.76441955566406 126.79147338867188 C 43.76441955566406 126.79147338867188 43.76441955566406 126.79147338867188 43.76441955566406 126.79147338867188 C 39.33653259277344 130.7818603515625 34.85816955566406 135.38162231445312 33.61177062988281 141.44412231445312 C 33.26922607421875 143.1063690185547 32.641822814941406 146.32032775878906 34.45191955566406 147.43450927734375 C 36.14903259277344 148.47897338867188 38.76802062988281 148.35757446289062 40.63340759277344 148.25302124023438 C 45.84134292602539 147.9585418701172 50.92668151855469 146.6075897216797 55.91106033325195 145.1616668701172 C 55.91106033325195 145.1616668701172 55.91106033325195 145.1616668701172 55.91106033325195 145.1616668701172 C 51.298072814941406 141.59556579589844 48.165863037109375 137.53306579589844 45.81850814819336 132.1989288330078 C 45.13340759277344 130.3960418701172 44.44831848144531 128.59315490722656 43.76441955566406 126.79147338867188" stroke-width="0.0" fill="rgb(202, 134, 99)" opacity="1.0"/>
    <path d="M 147.84375 80.07752990722656 C 147.84375 80.07752990722656 147.84375 80.07752990722656 147.84375 80.07752990722656 C 147.97357177734375 80.0955581665039 148.10337829589844 80.11358642578125 148.23316955566406 80.1316146850586 C 149.96755981445312 80.50901794433594 151.7007293701172 80.88642883300781 153.43508911132812 81.26262664794922 C 167.00241088867188 84.83354187011719 179.29808044433594 95.35157012939453 179.9483184814453 110.24819946289062 C 180.12379455566406 114.24219512939453 179.35577392578125 117.9861831665039 178.09014892578125 121.74940490722656 C 176.78965759277344 125.18209838867188 175.4891815185547 128.6147918701172 174.18869018554688 132.0474853515625 C 167.57933044433594 147.05709838867188 152.03245544433594 153.69773864746094 136.25961303710938 150.9501190185547 C 134.6851043701172 150.60516357421875 133.11058044433594 150.26023864746094 131.5360565185547 149.915283203125 C 130.46153259277344 149.3756103515625 128.57571411132812 148.40567016601562 129.3413543701172 146.7397918701172 C 130.7427978515625 143.68930053710938 134.1370086669922 141.46334838867188 136.1646728515625 138.8551788330078 C 139.15142822265625 135.01022338867188 140.60816955566406 130.72897338867188 141.24639892578125 125.95613098144531 C 142.49879455566406 111.70974731445312 143.7523956298828 97.46334838867188 145.00482177734375 83.21815490722656 C 145.17788696289062 80.90445709228516 145.93389892578125 80.73017120361328 147.84375 80.07752990722656 C 147.84375 80.07752990722656 147.84375 80.07752990722656 147.84375 80.07752990722656" stroke-width="0.0" fill="rgb(73, 53, 39)" opacity="1.0"/>
    <path d="M 71.72715759277344 80.17369079589844 C 71.72715759277344 80.17369079589844 71.72715759277344 80.17369079589844 71.72715759277344 80.17369079589844 C 73.91946411132812 80.57151794433594 74.66465759277344 81.1099853515625 74.95071411132812 83.26022338867188 C 76.20191955566406 97.49820709228516 77.453125 111.73738861083984 78.7043228149414 125.97657775878906 C 79.3449478149414 130.74819946289062 80.80288696289062 135.02825927734375 83.7872543334961 138.8732147216797 C 85.56610107421875 141.165283203125 88.27643585205078 143.0030059814453 89.87139129638672 145.4176788330078 C 91.24999237060547 147.50302124023438 90.55889129638672 148.78907775878906 88.61177062988281 149.8780059814453 C 87.16947174072266 150.19532775878906 85.72716522216797 150.5126190185547 84.28605651855469 150.8311309814453 C 68.4278793334961 153.81912231445312 52.40023422241211 147.33355712890625 45.77643966674805 132.08953857421875 C 44.490379333496094 128.70252990722656 43.205528259277344 125.3143081665039 41.919471740722656 121.92729187011719 C 40.83893585205078 118.84435272216797 40.103363037109375 115.78426361083984 39.98797607421875 112.50302124023438 C 39.43268585205078 96.54508209228516 52.37138748168945 84.8287353515625 66.86778259277344 81.22657012939453 C 68.48797607421875 80.8756103515625 70.10696411132812 80.52464294433594 71.72715759277344 80.17369079589844" stroke-width="0.0" fill="rgb(73, 53, 39)" opacity="1.0"/>
    <path d="M 147.6754913330078 82.70132446289062 C 149.40264892578125 83.07633209228516 151.1298065185547 83.45252990722656 152.85696411132812 83.82752990722656 C 165.92066955566406 87.35997772216797 177.6009521484375 97.6893081665039 177.32571411132812 112.1784896850586 C 177.26803588867188 115.18810272216797 176.58773803710938 117.97176361083984 175.63583374023438 120.80590057373047 C 174.33413696289062 124.24219512939453 173.03245544433594 127.67849731445312 171.73077392578125 131.11599731445312 C 165.68150329589844 144.93569946289062 151.23797607421875 150.80711364746094 136.78965759277344 148.3756103515625 C 135.16224670410156 148.01864624023438 133.5360565185547 147.66285705566406 131.90866088867188 147.30589294433594 C 138.0360565185547 141.0426788330078 142.6826934814453 135.11959838867188 143.8665771484375 126.18450164794922 C 145.11898803710938 111.9381103515625 146.3726043701172 97.69291687011719 147.625 83.44772338867188 C 147.64183044433594 83.19892883300781 147.6586456298828 82.95012664794922 147.6754913330078 82.70132446289062 C 147.6754913330078 82.70132446289062 147.6754913330078 82.70132446289062 147.6754913330078 82.70132446289062" stroke-width="0.0" fill="rgb(73, 53, 39)" opacity="1.0"/>
    <path d="M 72.28485107421875 82.74339294433594 C 72.28485107421875 82.74339294433594 72.28485107421875 82.74339294433594 72.28485107421875 82.74339294433594 C 72.30047607421875 82.99219512939453 72.31610107421875 83.24099731445312 72.33172607421875 83.48979187011719 C 73.58293151855469 97.72897338867188 74.83413696289062 111.96815490722656 76.08533477783203 126.20733642578125 C 77.2716293334961 135.13282775878906 81.90264892578125 141.06912231445312 88.046875 147.30950927734375 C 86.60456848144531 147.62680053710938 85.16226196289062 147.94412231445312 83.7199478149414 148.26263427734375 C 69.1634521484375 150.99459838867188 54.35095977783203 145.1256103515625 48.224754333496094 131.13522338867188 C 46.921871185302734 127.70012664794922 45.6177864074707 124.26502990722656 44.314903259277344 120.8299331665039 C 43.35816955566406 117.98979187011719 42.67547607421875 115.19892883300781 42.62019348144531 112.18089294433594 C 42.35576629638672 97.56671142578125 54.23076629638672 87.2097396850586 67.43269348144531 83.79388427734375 C 69.04928588867188 83.44412231445312 70.66706085205078 83.09315490722656 72.28485107421875 82.74339294433594" stroke-width="0.0" fill="rgb(73, 53, 39)" opacity="1.0"/>
    <path d="M 150.04808044433594 85.9068603515625 C 148.86056518554688 99.4080581665039 147.67308044433594 112.90926361083984 146.48558044433594 126.41166687011719 C 145.54446411132812 134.09796142578125 142.40625 140.20492553710938 137.0228271484375 145.73739624023438 C 137.12139892578125 145.75782775878906 137.21995544433594 145.77825927734375 137.31971740722656 145.79989624023438 C 150.49880981445312 148.04989624023438 163.71034240722656 142.79147338867188 169.2764434814453 130.16046142578125 C 170.578125 126.72777557373047 171.87982177734375 123.29508209228516 173.18148803710938 119.86238098144531 C 174.06491088867188 117.23738861083984 174.66827392578125 114.66887664794922 174.7103271484375 111.87921142578125 C 174.90625 98.75901794433594 164.03607177734375 89.52584838867188 152.2788543701172 86.39242553710938 C 151.5360565185547 86.23017883300781 150.79208374023438 86.06791687011719 150.04808044433594 85.9068603515625" stroke-width="0.0" fill="rgb(202, 134, 99)" opacity="1.0"/>
    <path d="M 69.90864562988281 85.94892883300781 C 69.27043151855469 86.08594512939453 68.63341522216797 86.22416687011719 67.99518585205078 86.36238861083984 C 56.112979888916016 89.38883209228516 45.048072814941406 98.63762664794922 45.235572814941406 111.87921142578125 C 45.2740364074707 114.61719512939453 45.85576248168945 117.14484405517578 46.70552444458008 119.72776794433594 C 48.02884292602539 123.21215057373047 49.35095977783203 126.69532775878906 50.674278259277344 130.17849731445312 C 56.29085922241211 142.89605712890625 69.66827392578125 148.1256103515625 82.91465759277344 145.74700927734375 C 82.91465759277344 145.74700927734375 82.91465759277344 145.74700927734375 82.91465759277344 145.74700927734375 C 77.54446411132812 140.2157440185547 74.40985107421875 134.11358642578125 73.46633911132812 126.4381103515625 C 72.28004455566406 112.94171905517578 71.0949478149414 99.4453125 69.90864562988281 85.94892883300781" stroke-width="0.0" fill="rgb(202, 134, 99)" opacity="1.0"/>
    <path d="M 127.09495544433594 61.367191314697266 C 127.09495544433594 61.367191314697266 127.09495544433594 61.367191314697266 127.09495544433594 61.367191314697266 C 139.3677978515625 61.721763610839844 151.0961456298828 70.28787231445312 150.24879455566406 83.57633209228516 C 148.99159240722656 97.86359405517578 147.73318481445312 112.15084838867188 146.47596740722656 126.4381103515625 C 145.91224670410156 130.9897918701172 144.74038696289062 135.23619079589844 142.33413696289062 139.1844940185547 C 128.04327392578125 162.6328125 89.15504455566406 162.0811309814453 76.51683044433594 137.2229766845703 C 74.77644348144531 133.7998809814453 73.93991088867188 130.21815490722656 73.46633911132812 126.43450164794922 C 72.21514129638672 112.1881103515625 70.96273803710938 97.94171142578125 69.71153259277344 83.69532012939453 C 68.953125 70.29627990722656 80.42668151855469 61.71935272216797 92.90143585205078 61.36839294433594 C 104.29927825927734 61.367191314697266 115.69711303710938 61.367191314697266 127.09495544433594 61.367191314697266" stroke-width="0.0" fill="rgb(73, 53, 39)" opacity="1.0"/>
    <path d="M 92.86177825927734 63.99700164794922 C 104.27284240722656 63.99700164794922 115.68389129638672 63.99700164794922 127.09495544433594 63.99700164794922 C 137.80889892578125 64.42247772216797 148.4351043701172 71.68931579589844 147.6201934814453 83.44772338867188 C 146.3665771484375 97.70012664794922 145.1117706298828 111.9537353515625 143.8569793701172 126.20733642578125 C 143.3389434814453 130.12078857421875 142.35336303710938 133.7506103515625 140.38101196289062 137.2037353515625 C 127.84254455566406 159.16287231445312 92.09014892578125 159.17007446289062 79.55889129638672 137.196533203125 C 77.59014129638672 133.74459838867188 76.60696411132812 130.11358642578125 76.08533477783203 126.20252990722656 C 74.83413696289062 111.95734405517578 73.58293151855469 97.71214294433594 72.33172607421875 83.46694946289062 C 71.59134674072266 71.68690490722656 82.06730651855469 64.42488098144531 92.86177825927734 63.99700164794922 C 92.86177825927734 63.99700164794922 92.86177825927734 63.99700164794922 92.86177825927734 63.99700164794922" stroke-width="0.0" fill="rgb(73, 53, 39)" opacity="1.0"/>
    <path d="M 92.82211303710938 66.62560272216797 C 92.82211303710938 66.62560272216797 92.82211303710938 66.62560272216797 92.82211303710938 66.62560272216797 C 83.53125 66.95132446289062 74.28965759277344 73.09315490722656 74.95793151855469 83.32633209228516 C 76.20672607421875 97.54147338867188 77.45552825927734 111.75662231445312 78.7043228149414 125.97175598144531 C 79.12860107421875 129.11239624023438 79.79086303710938 132.04867553710938 81.24639129638672 134.89364624023438 C 92.31971740722656 156.52345275878906 127.62980651855469 156.51382446289062 138.70191955566406 134.8888397216797 C 140.15745544433594 132.0474853515625 140.8173065185547 129.1147918701172 141.23797607421875 125.97657775878906 C 142.4927978515625 111.7193603515625 143.74758911132812 97.46215057373047 145.00119018554688 83.20614624023438 C 145.82691955566406 73.00540924072266 136.1766815185547 66.94291687011719 127.09495544433594 66.62560272216797 C 115.67066955566406 66.62560272216797 104.24639129638672 66.62560272216797 92.82211303710938 66.62560272216797" stroke-width="0.0" fill="rgb(202, 134, 99)" opacity="1.0"/>
  </g>
</svg>
