<?xml version="1.0" ?>
<svg xmlns="http://www.w3.org/2000/svg" version="1.1" width="224" height="224">
  <defs/>
  <g>
    <path d="M 87.51277160644531 194.57870483398438 C 83.50323486328125 192.510498046875 83.17472076416016 189.7815704345703 83.21149444580078 160.5640869140625 L 83.43006896972656 133.52369689941406 L 77.21049499511719 130.84613037109375 C 70.72936248779297 127.80602264404297 63.12963104248047 121.056884765625 59.094154357910156 114.607177734375 C 52.524261474609375 104.16336822509766 49.64824676513672 85.87545776367188 53.48586654663086 79.27267456054688 C 57.57107925415039 72.76956176757812 64.11970520019531 70.30318450927734 69.63114929199219 73.63380432128906 C 72.94219207763672 75.94233703613281 74.45372009277344 78.55821990966797 76.6991195678711 86.06355285644531 C 77.3186264038086 88.90802764892578 78.79085540771484 92.4432373046875 79.64035034179688 94.22850036621094 C 81.30207061767578 96.96513366699219 86.22998809814453 100.60676574707031 88.17777252197266 100.45671844482422 C 89.07676696777344 100.6295394897461 89.19384765625 92.08856964111328 89.0191650390625 74.29350280761719 C 89.4024429321289 48.03455352783203 89.69117736816406 48.152164459228516 92.12397766113281 43.24873733520508 C 96.95420837402344 33.07586669921875 103.59017944335938 28.05278778076172 112.68736267089844 28.0 C 118.61664581298828 28.105331420898438 123.15540313720703 29.70068359375 127.09689331054688 33.790611267089844 C 134.71888732910156 41.00867462158203 136.25198364257812 48.03831481933594 136.50205993652344 78.74346923828125 C 136.0743865966797 105.33396911621094 136.00743103027344 104.87297821044922 142.7058868408203 98.76191711425781 C 145.82908630371094 95.38578796386719 146.77145385742188 93.67191314697266 148.65182495117188 86.90108489990234 C 151.84161376953125 76.84799194335938 155.74383544921875 72.35369873046875 161.41941833496094 72.37005615234375 C 164.2021026611328 72.41824340820312 165.69174194335938 72.99723052978516 168.20452880859375 75.14926147460938 C 173.298828125 79.48995971679688 174.35174560546875 85.71039581298828 171.90020751953125 97.78274536132812 C 168.7050018310547 113.662109375 160.1050262451172 125.02025604248047 146.49771118164062 131.68409729003906 L 138.48289489746094 135.200439453125 L 138.3895721435547 162.97036743164062 L 138.51998901367188 190.65818786621094 L 135.32077026367188 193.57672119140625 L 132.66659545898438 196.0 L 111.19601440429688 195.92337036132812 C 94.10912322998047 195.92730712890625 89.07972717285156 195.79177856445312 87.51277160644531 194.57870483398438" stroke-width="1.0" fill="rgb(80, 72, 55)" opacity="0.9944136"/>
    <path d="M 88.98513793945312 190.69998168945312 C 88.22601318359375 189.47000122070312 88.05518341064453 182.0533447265625 87.95111083984375 161.28106689453125 C 88.11844635009766 140.83180236816406 88.06596374511719 133.12234497070312 87.685791015625 131.45651245117188 C 86.44180297851562 130.4662628173828 84.27826690673828 128.5038299560547 81.8586196899414 128.21458435058594 C 66.26415252685547 122.12086486816406 56.50745391845703 106.60963439941406 56.365379333496094 87.61942291259766 C 56.74929428100586 81.68841552734375 56.838191986083984 80.81013488769531 58.69334411621094 78.57647705078125 C 61.144508361816406 75.859375 65.51502990722656 75.52787780761719 68.36532592773438 77.61857604980469 C 69.34284973144531 78.83080291748047 71.23938751220703 82.69966125488281 72.43711853027344 86.50126647949219 C 73.29287719726562 90.70394134521484 75.32706451416016 95.31864929199219 76.46681213378906 96.93225860595703 C 79.62041473388672 100.97710418701172 85.59992218017578 104.86095428466797 88.2686767578125 104.94312286376953 C 93.54109954833984 104.86611938476562 93.6421127319336 104.30560302734375 93.38117218017578 75.74041748046875 C 93.9459228515625 46.48469543457031 94.59845733642578 44.46772384643555 100.3204345703125 37.8863410949707 C 104.36422729492188 33.04109191894531 109.77152252197266 31.185577392578125 115.65924835205078 32.438087463378906 C 119.07011413574219 32.55796813964844 120.63062286376953 33.413177490234375 123.90312194824219 36.810638427734375 C 130.64785766601562 43.59144973754883 131.41238403320312 45.9334602355957 132.04115295410156 77.06771850585938 C 131.84088134765625 99.60258483886719 131.95045471191406 103.97386932373047 133.20401000976562 105.01557922363281 C 134.90667724609375 107.32038879394531 137.518798828125 107.25911712646484 141.76097106933594 104.69778442382812 C 146.83790588378906 101.76715087890625 150.50704956054688 96.29472351074219 152.82728576660156 87.5121078491211 C 154.04391479492188 83.52996063232422 156.04168701171875 79.21192169189453 157.1227264404297 78.16971588134766 C 161.44813537597656 74.19979858398438 167.66677856445312 77.42826843261719 168.61068725585938 83.92060089111328 C 169.3058624267578 88.61318969726562 167.32777404785156 100.00354766845703 164.83465576171875 106.30524444580078 C 160.58938598632812 116.77290344238281 151.5071563720703 125.55072021484375 140.8841094970703 129.56057739257812 C 133.1293182373047 131.99632263183594 133.76036071777344 129.93670654296875 133.7772674560547 162.10122680664062 L 133.32884216308594 191.171630859375 L 111.73497772216797 191.46951293945312 C 95.71648406982422 191.6510009765625 90.01983642578125 191.61053466796875 88.98513793945312 190.69998168945312" stroke-width="1.0" fill="rgb(199, 244, 171)" opacity="0.9929182"/>
  </g>
</svg>
