<?xml version="1.0" ?>
<svg xmlns="http://www.w3.org/2000/svg" version="1.1" width="224" height="224">
  <defs/>
  <g>
    <path d="M 32.42908477783203 195.67495727539062 C 32.11272430419922 195.2414093017578 32.3497314453125 158.0118408203125 32.33366394042969 112.511962890625 C 32.29705047607422 49.90420150756836 31.94951629638672 30.17022705078125 33.16362762451172 29.023513793945312 C 35.273712158203125 28.041961669921875 189.26458740234375 28.0 191.18658447265625 29.104995727539062 C 192.05047607421875 30.424346923828125 191.7935028076172 53.272239685058594 192.01695251464844 113.05278015136719 L 191.98764038085938 195.88507080078125 L 112.65574645996094 195.88577270507812 C 68.69548034667969 195.94784545898438 33.462242126464844 196.0 32.42908477783203 195.67495727539062" stroke-width="1.0" fill="rgb(78, 61, 54)" opacity="0.99656475"/>
    <path d="M 38.98936080932617 130.38079833984375 L 38.98367691040039 70.98629760742188 L 112.9947738647461 70.85994720458984 L 185.47097778320312 70.89336395263672 L 185.61878967285156 188.75564575195312 L 39.1458854675293 188.8306121826172 L 38.98936080932617 130.38079833984375" stroke-width="1.0" fill="rgb(252, 250, 243)" opacity="1.0"/>
    <path d="M 39.2790641784668 63.9474983215332 C 38.89607620239258 63.15719985961914 38.67977523803711 56.76766586303711 38.8204231262207 49.24283981323242 L 38.57534408569336 35.15458679199219 L 185.64443969726562 35.06737518310547 L 185.33331298828125 64.01637268066406 L 127.22482299804688 64.0228271484375 C 95.58811950683594 64.34585571289062 69.31342315673828 64.48783874511719 68.46395874023438 64.16453552246094 C 68.93197631835938 62.705101013183594 70.1903076171875 61.5749397277832 71.32765197753906 60.18569564819336 C 72.9389419555664 58.926795959472656 73.98216247558594 56.18999099731445 74.13327026367188 52.940528869628906 C 75.3049087524414 41.32935333251953 63.38026809692383 33.85987854003906 53.91008758544922 40.639984130859375 C 47.37129211425781 44.749568939208984 46.42396926879883 53.99889373779297 52.03106689453125 60.30772399902344 L 54.678951263427734 64.07801818847656 L 47.14186477661133 64.18998718261719 C 43.548561096191406 64.16084289550781 40.24332809448242 63.973350524902344 39.2790641784668 63.9474983215332" stroke-width="1.0" fill="rgb(250, 249, 243)" opacity="0.9933099"/>
    <path d="M 59.35939025878906 58.26666259765625 C 55.446563720703125 56.927978515625 53.86714172363281 52.62119674682617 55.45601272583008 48.63909912109375 C 58.14005661010742 42.38335037231445 67.86400604248047 44.62553787231445 67.95382690429688 52.1807746887207 C 68.02555084228516 57.258079528808594 64.11603546142578 60.01210403442383 59.35939025878906 58.26666259765625" stroke-width="1.0" fill="rgb(240, 162, 92)" opacity="0.9996638"/>
    <path d="M 157.07508850097656 131.3204345703125 C 153.5070343017578 129.68951416015625 150.842529296875 125.90265655517578 151.11489868164062 121.45628356933594 C 151.19520568847656 116.25004577636719 153.46690368652344 112.92671966552734 158.6392822265625 111.24948120117188 C 164.33511352539062 109.65045928955078 169.193603515625 112.22161865234375 172.018798828125 117.59724426269531 C 173.24684143066406 120.99765014648438 173.27149963378906 122.01747131347656 171.8154296875 125.19280242919922 C 171.06544494628906 127.06112670898438 169.6978759765625 129.32382202148438 168.45416259765625 130.21591186523438 C 166.42788696289062 132.18931579589844 160.00782775878906 132.8857879638672 157.07508850097656 131.3204345703125" stroke-width="1.0" fill="rgb(234, 95, 61)" opacity="0.9945067"/>
    <path d="M 57.96894454956055 160.8035888671875 C 51.70029830932617 158.168212890625 49.95820617675781 147.97781372070312 54.7634162902832 143.2471923828125 C 58.584232330322266 139.65548706054688 62.76158905029297 138.67039489746094 67.17011260986328 141.01783752441406 C 74.53824615478516 144.41888427734375 76.2198486328125 153.1875 70.34807586669922 158.18629455566406 C 67.58404541015625 160.9869842529297 61.59358596801758 162.41885375976562 57.96894454956055 160.8035888671875" stroke-width="1.0" fill="rgb(236, 95, 61)" opacity="0.9941175"/>
    <path d="M 152.4496307373047 172.8331298828125 C 149.87570190429688 170.0284423828125 149.6636199951172 167.32371520996094 152.11566162109375 164.488037109375 C 155.0263214111328 162.09945678710938 168.5015869140625 162.08074951171875 171.1992645263672 164.6180419921875 C 173.53338623046875 167.58358764648438 173.48971557617188 169.95263671875 170.91619873046875 172.62860107421875 C 169.1855926513672 174.27017211914062 167.3690948486328 174.8153076171875 161.67723083496094 174.83450317382812 C 156.09666442871094 174.83966064453125 154.27023315429688 174.5362091064453 152.4496307373047 172.8331298828125" stroke-width="1.0" fill="rgb(231, 172, 120)" opacity="0.9913157"/>
    <path d="M 58.050533294677734 131.55465698242188 C 52.52756118774414 129.4744873046875 50.1636962890625 120.94258880615234 53.367733001708984 115.7148666381836 C 54.619529724121094 112.50054168701172 61.520660400390625 109.86032104492188 65.63317108154297 111.11337280273438 C 73.63802337646484 112.82225799560547 76.79651641845703 123.42668151855469 71.07646942138672 129.0194549560547 C 68.00068664550781 132.31085205078125 61.520164489746094 133.13731384277344 58.050533294677734 131.55465698242188" stroke-width="1.0" fill="rgb(77, 60, 53)" opacity="0.99123865"/>
    <path d="M 58.03718185424805 102.43954467773438 C 52.1451416015625 100.13926696777344 49.739410400390625 91.03173828125 53.877891540527344 86.00100708007812 C 57.7310676574707 80.36711883544922 67.99469757080078 80.36878204345703 72.11107635498047 86.28578186035156 C 74.99444580078125 89.4287109375 74.57804870605469 96.58970642089844 71.07366943359375 99.58026123046875 C 68.1123275756836 102.84406280517578 61.83211898803711 104.04844665527344 58.03718185424805 102.43954467773438" stroke-width="1.0" fill="rgb(77, 60, 53)" opacity="0.9920215"/>
    <path d="M 156.85354614257812 102.31334686279297 C 150.17214965820312 99.64265441894531 148.4665985107422 89.1493911743164 153.79196166992188 84.58819580078125 C 160.81739807128906 78.2457275390625 172.68283081054688 82.83934020996094 172.55210876464844 91.87508392333984 C 172.25320434570312 97.3785171508789 170.52780151367188 100.01019287109375 166.11691284179688 101.874267578125 C 161.845458984375 103.54322814941406 160.68031311035156 103.57318115234375 156.85354614257812 102.31334686279297" stroke-width="1.0" fill="rgb(77, 60, 53)" opacity="0.99194825"/>
  </g>
</svg>
