<?xml version="1.0" ?>
<svg xmlns="http://www.w3.org/2000/svg" version="1.1" width="224" height="224">
  <defs/>
  <g>
    <path d="M 96.75395965576172 192.54702758789062 C 62.47658920288086 186.31735229492188 36.73529815673828 159.83616638183594 30.97997283935547 125.37769317626953 C 29.398147583007812 116.32290649414062 30.2745361328125 98.60838317871094 32.80323028564453 90.50691986083984 C 41.99884796142578 56.17921447753906 70.88262939453125 32.376373291015625 106.93021392822266 30.245254516601562 C 146.90625 28.0 180.01943969726562 50.828269958496094 191.36907958984375 88.65636444091797 C 193.17181396484375 96.10579681396484 193.68896484375 97.60198211669922 194.6018524169922 111.5416259765625 C 193.7371826171875 125.7770004272461 193.135009765625 127.10401153564453 191.43350219726562 134.55027770996094 C 184.1572265625 159.03768920898438 170.3063201904297 175.24554443359375 148.15940856933594 185.94775390625 C 134.26394653320312 192.9935302734375 112.5984878540039 196.0 96.75395965576172 192.54702758789062" stroke-width="1.0" fill="rgb(52, 38, 31)" opacity="1.0"/>
    <path d="M 111.2833023071289 177.98037719726562 C 110.68380737304688 174.11508178710938 109.90762329101562 158.1569366455078 109.65338134765625 142.8238067626953 L 109.55581665039062 114.89827728271484 L 89.45722961425781 115.06796264648438 C 78.36265563964844 114.99636840820312 63.7332878112793 114.23152923583984 56.91566848754883 113.39561462402344 C 49.873050689697266 112.79266357421875 43.269630432128906 112.30765533447266 42.434722900390625 112.32978057861328 C 35.72071838378906 111.52125549316406 55.103485107421875 110.08658599853516 80.06398010253906 109.30744934082031 L 109.5438232421875 109.14806365966797 L 109.74617004394531 84.25086975097656 C 110.56011199951172 51.697513580322266 111.54633331298828 40.334571838378906 112.84577941894531 41.875099182128906 C 113.19013214111328 43.05681610107422 113.99823760986328 57.830665588378906 114.5622329711914 76.24012756347656 L 114.63550567626953 109.04349517822266 L 142.07972717285156 109.25929260253906 C 167.2969512939453 109.87105560302734 184.01097106933594 111.04988098144531 183.30364990234375 111.91870880126953 C 182.039794921875 112.55722045898438 163.88514709472656 113.92977142333984 140.69161987304688 114.96171569824219 L 114.62396240234375 114.98593139648438 L 114.51862335205078 148.7425079345703 C 113.8970718383789 169.30796813964844 113.23890686035156 182.6734619140625 112.65298461914062 183.98565673828125 C 111.70828247070312 184.75234985351562 111.48331451416016 184.08148193359375 111.2833023071289 177.98037719726562" stroke-width="1.0" fill="rgb(202, 90, 77)" opacity="0.9983909"/>
    <path d="M 97.57420349121094 186.5478057861328 C 84.60431671142578 183.99761962890625 71.70999145507812 177.9066619873047 63.68579864501953 171.07566833496094 L 60.67350387573242 168.25489807128906 L 79.79150390625 149.86395263671875 C 93.55570983886719 136.1556396484375 98.562744140625 130.97048950195312 99.18840789794922 131.4376983642578 C 99.76901245117188 132.85935974121094 101.40556335449219 143.50469970703125 105.31858825683594 171.83551025390625 C 107.29019927978516 186.66049194335938 107.57232666015625 187.6956787109375 105.92532348632812 187.90963745117188 C 105.65463256835938 187.76283264160156 101.87430572509766 187.14126586914062 97.57420349121094 186.5478057861328" stroke-width="1.0" fill="rgb(247, 245, 241)" opacity="0.98579645"/>
    <path d="M 117.98275756835938 182.35824584960938 C 119.27845001220703 172.10057067871094 124.65957641601562 132.94052124023438 125.24533081054688 131.39697265625 C 125.70405578613281 131.0192413330078 133.2405548095703 138.372314453125 144.8882293701172 149.97384643554688 L 163.93580627441406 168.42494201660156 L 160.79742431640625 170.73907470703125 C 152.49322509765625 178.26058959960938 135.7035369873047 185.4937744140625 124.60423278808594 186.80059814453125 C 122.06217193603516 187.1406707763672 119.28494262695312 187.577392578125 118.76869201660156 187.79014587402344 C 117.12550354003906 188.18270874023438 116.96912384033203 188.10598754882812 117.98275756835938 182.35824584960938" stroke-width="1.0" fill="rgb(247, 245, 241)" opacity="0.98549014"/>
    <path d="M 51.04323959350586 157.82504272460938 C 43.41770935058594 147.77313232421875 38.60289001464844 135.80764770507812 36.989830017089844 123.43255615234375 C 36.389129638671875 119.8154067993164 36.29151916503906 116.30254364013672 36.35521697998047 116.0227279663086 C 36.70716857910156 115.95874786376953 86.02233123779297 123.218505859375 90.38932037353516 124.27395629882812 L 93.3670883178711 124.8552474975586 L 74.98223876953125 143.78643798828125 C 64.64459991455078 154.14501953125 55.989227294921875 162.80191040039062 55.68759536743164 162.77003479003906 C 55.44524383544922 162.92930603027344 53.28086471557617 160.87423706054688 51.04323959350586 157.82504272460938" stroke-width="1.0" fill="rgb(247, 246, 242)" opacity="0.98647237"/>
    <path d="M 155.14718627929688 149.24635314941406 C 147.858154296875 142.01466369628906 139.51287841796875 133.3636474609375 136.60589599609375 130.38131713867188 L 131.858154296875 124.58203125 L 137.0118408203125 123.51951599121094 C 139.97653198242188 122.98319244384766 151.57029724121094 121.19562530517578 162.91690063476562 119.54911804199219 C 174.27430725097656 118.00328826904297 184.76048278808594 116.41848754882812 186.17108154296875 116.18169403076172 L 188.32315063476562 115.6402587890625 L 187.81219482421875 120.83845520019531 C 187.04690551757812 128.80014038085938 184.36524963378906 137.95925903320312 180.33416748046875 146.3771209716797 C 176.50753784179688 153.88848876953125 170.56744384765625 162.3719024658203 168.87045288085938 163.00794982910156 C 168.5674591064453 162.79708862304688 162.59902954101562 156.7058563232422 155.14718627929688 149.24635314941406" stroke-width="1.0" fill="rgb(247, 246, 242)" opacity="0.9861153"/>
    <path d="M 36.84246826171875 102.9659423828125 C 37.47808074951172 96.05966186523438 39.281150817871094 88.46839904785156 41.97352600097656 82.24853515625 C 44.376495361328125 75.87887573242188 50.840232849121094 65.4682846069336 53.85631561279297 62.525413513183594 C 55.83009719848633 60.52793502807617 56.33295822143555 60.46586227416992 56.964622497558594 61.65917205810547 C 57.57765197753906 62.322052001953125 66.14640045166016 70.94486999511719 75.7083511352539 80.98133087158203 C 91.69117736816406 96.98145294189453 93.48332977294922 98.85565185546875 91.84481048583984 99.27543640136719 C 89.79635620117188 99.29029083251953 50.53998947143555 105.6584701538086 39.66465759277344 107.16841125488281 L 36.13178253173828 107.86426544189453 L 36.84246826171875 102.9659423828125" stroke-width="1.0" fill="rgb(247, 246, 241)" opacity="0.9857409"/>
    <path d="M 179.60629272460938 106.55908203125 C 177.5984344482422 106.25383758544922 166.88734436035156 104.68324279785156 155.88389587402344 102.84239959716797 C 145.10232543945312 101.13892364501953 134.87216186523438 99.46907043457031 133.49514770507812 99.30242919921875 C 131.33474731445312 98.54420471191406 131.75653076171875 98.13861846923828 150.09408569335938 79.23475646972656 L 168.87152099609375 60.06829071044922 L 170.5481414794922 62.41608428955078 C 179.55325317382812 72.21797943115234 186.63018798828125 88.62879943847656 187.87911987304688 102.5790023803711 L 188.4909210205078 107.4051742553711 L 185.9232177734375 107.58826446533203 C 184.51541137695312 107.40010070800781 181.69268798828125 107.01041412353516 179.60629272460938 106.55908203125" stroke-width="1.0" fill="rgb(247, 246, 242)" opacity="0.98650223"/>
    <path d="M 80.05658721923828 73.83628845214844 L 60.808536529541016 55.4643669128418 L 64.64042663574219 52.05695724487305 C 72.58758544921875 44.316131591796875 93.94384765625 36.26115417480469 103.89888000488281 36.72077941894531 L 107.12312316894531 36.621002197265625 L 106.63924407958984 41.646461486816406 C 105.27731323242188 53.7120361328125 100.05683898925781 90.02107238769531 99.50619506835938 91.94647216796875 C 98.88786315917969 93.1037368774414 95.8160400390625 89.67147827148438 80.05658721923828 73.83628845214844" stroke-width="1.0" fill="rgb(246, 245, 241)" opacity="0.98444605"/>
    <path d="M 124.5937728881836 87.83423614501953 C 124.05601501464844 85.22038269042969 122.19537353515625 73.53402709960938 120.52960968017578 61.91826629638672 C 118.8521957397461 50.151268005371094 117.42732238769531 39.56884765625 117.24626922607422 38.44965362548828 C 116.58814239501953 36.40910339355469 116.87980651855469 36.37702178955078 122.77124786376953 37.00654602050781 C 134.6619873046875 37.805320739746094 152.45314025878906 44.87165832519531 160.4995574951172 52.44734573364258 L 163.82525634765625 55.452842712402344 L 145.22735595703125 73.31965637207031 C 135.10382080078125 83.65743255615234 126.48616027832031 92.10723876953125 126.28193664550781 92.30905151367188 C 125.5489273071289 92.06204223632812 124.85308074951172 90.44617462158203 124.5937728881836 87.83423614501953" stroke-width="1.0" fill="rgb(247, 245, 241)" opacity="0.9853183"/>
  </g>
</svg>
