<?xml version="1.0" encoding="UTF-8"?>
<svg xmlns="http://www.w3.org/2000/svg" version="1.1" viewBox="0 0 224 224">
  <defs>
    <style>
      .cls-1 {
        opacity: 1;
      }

      .cls-1, .cls-2 {
        fill: #f9fcfd;
      }

      .cls-1, .cls-2, .cls-3, .cls-4, .cls-5, .cls-6, .cls-7, .cls-8, .cls-9, .cls-10, .cls-11, .cls-12, .cls-13, .cls-14, .cls-15, .cls-16 {
        isolation: isolate;
      }

      .cls-2 {
        opacity: 1;
      }

      .cls-3 {
        fill: #2e241f;
        opacity: 1;
      }

      .cls-4 {
        fill: #d14a50;
        opacity: 1;
      }

      .cls-5 {
        fill: #fbfdfe;
        opacity: 1;
      }

      .cls-6 {
        opacity: 1;
      }

      .cls-6, .cls-7, .cls-8, .cls-9, .cls-10 {
        fill: #f9fcfc;
      }

      .cls-7 {
        opacity: 1;
      }

      .cls-8 {
        opacity: 1;
      }

      .cls-9 {
        opacity: 1;
      }

      .cls-10 {
        opacity: 1;
      }

      .cls-17 {
        fill: #c64e4a;
      }

      .cls-11 {
        opacity: 1;
      }

      .cls-11, .cls-12, .cls-13 {
        fill: #fbfefe;
      }

      .cls-12 {
        opacity: 1;
      }

      .cls-13 {
        opacity: 1;
      }

      .cls-14 {
        fill: #fafdfe;
        opacity: 1;
      }

      .cls-18 {
        fill: #c44c48;
      }

      .cls-15 {
        fill: #d24950;
        opacity: 1;
      }

      .cls-16 {
        fill: #f9fbfc;
        opacity: 1;
      }
    </style>
  </defs>
  <!-- Generator: Adobe Illustrator 28.6.0, SVG Export Plug-In . SVG Version: 1.2.0 Build 709)  -->
  <g>
    <g id="_图层_1" data-name="图层_1">
      <g>
        <path class="cls-3" d="M102.6,195.2c1.4-.4-15.3-19.1-37.3-38.8l-36.5-37.1,1.1-5.9-.3-5.6,20.6-18.9c9.4-11.8,26.3-28.7,38.3-37.8l17.7-22.1,4.6-1,6.4,1.2,12,16.6c9.6,6.5,26.5,23.5,39.6,37.3l25.1,24.1,1.1,11.5-9.5,8.7c-5,4.8-15.8,16.4-23.6,23.7-8.6,8.5-22.5,21-28.8,30.4l-12.9,14.3-8.6.2c-4.2-.2-7.5-.7-9.1-.8"/>
        <path class="cls-17" d="M110.1,75.6l.3-13c0-3.2.2-6.4.3-9.6,0-1.8-.5-3.9.6-5.5,3,1.7,1.7,13,1.7,16.2s.2,8.1.3,12.2c-.4,26.8.6,27.3-3.1,26.7-.3.6.6,0,0-27"/>
        <path class="cls-4" d="M34.1,112.1c0-1.3,12.4-1.4,35.8-1.1,23.5-.2,35.8,0,35.8,1.5.2.6-12.3.7-35.8.6-23.4.2-35.8.2-35.8-.9"/>
        <path class="cls-15" d="M116.9,112.3c0-1.4,12.6-1.5,36-1.3,23.6-.2,36.1-.2,36,1.4,0,.8-12.5.8-36.1.6-23.5.1-36,0-35.9-.7"/>
        <path class="cls-5" d="M93.6,165.1c-19-6.1-32.6-21-37-39.5-.5-3.2-.9-5.9-1.2-6.6.5-.4,3.4-.5,9.3-.6h9.9c0,.1,1,5.1,1,5.1,1.6,3.9,3.1,7,7.5,12,.9,1-.7,1.9-4.1,5-3.5,3.3-4.6,4.4-4.5,5.6,1.3,3.4,3.1,3,8.1-1.9l5-4.3,4.1,3.1c2.8,1,6.4,2.7,8.9,3.6l3.4,1.2v19.5c0,0-2.2-.2-2.2-.2-1.1-.2-4.5-.8-8.2-2"/>
        <path class="cls-12" d="M119.1,157.7v-10.2c0,0,1.4-.4,1.4-.4,3.3-.7,8.8-3.3,12.2-4.9l3-2.7,4.4,4.3c3.4,3.7,4.8,4.4,6,4.5,1.4-.4,2.2-.7,2.5-1.8.4-1.5-.8-2.8-4.4-6.1l-4.8-4.4,2.5-3.1c2.4-3,4.6-7.5,5.6-11.2l.6-3h19.4c0,0-.6,3.6-.6,3.6-.5,5.6-3.2,13.5-6.8,19.4-7,11.6-19.3,20.9-33.4,24.3-8.5,2-7.6,2.9-7.5-8.2"/>
        <path class="cls-16" d="M97.2,140.2c-2.7-1.3-5.1-2.7-5.6-3.6-.6-.6,1.7-3.1,6.2-6.9l6.3-6.6-.2,9.6c.2,7.5,0,9.9-.7,9.8-.7-.1-3.4-1.2-6.1-2.3"/>
        <path class="cls-9" d="M119.2,132.4l-.3-9.5,6.7,6.7c4.6,3.8,6.9,6.2,6.5,6.8-.8,1.5-10.1,6.3-12,6-.8.2-.9-2.3-.8-10"/>
        <path class="cls-10" d="M84.6,130c-2.3-2.7-5.1-9-5.2-10.5,0-.8,3.1-.7,10.8-.6h10.3c0-.1-6.5,6.6-6.5,6.6-3.6,4.1-6.8,7.4-7.1,7.2-.7,0-1.7-1.2-2.3-2.7"/>
        <path class="cls-2" d="M129.3,125.3l-7-6.2,10.3-.3c6,0,11.4,0,10.8.3.4,2.2-5.3,13.5-7.2,13.6-.4.1-3.5-3.2-6.9-7.4"/>
        <path class="cls-14" d="M108,119.7c-3.2-1.4-5.2-5.4-4.6-9.1,1.6-8,12.8-9.3,15.8-1.8,1.4,3.4.8,6.6-1.8,9.2-2.8,2.4-6.4,3-9.4,1.7"/>
        <path class="cls-8" d="M79.8,104.8c0-2.2,4.4-11.4,6.3-13,.9-.9,1.9,0,7.5,6,4,3.7,7.3,6.9,7.3,7.4-.1.6-4.6.3-10.6,0-9.9.3-11,.6-10.5-.6"/>
        <path class="cls-6" d="M129,98.5c3.7-3.9,7.2-7.1,7.2-7.1,1.6-.4,7.3,11,7.3,14.1.2,0-4.6.3-10.5.3l-10.5-.3,6.5-6.9"/>
        <path class="cls-11" d="M147.4,101.6c-1-3.4-3.6-8.7-6.9-12.2-1.3-1.6-.3-2.4,3.8-6.1,4.6-4.3,5-5.4,3.3-7.2-1.6-1.4-4.1.3-8.1,4.6l-3.7,3.5-4.3-2.9c-2.5-1.5-6.3-3.3-8.4-3.9l-4-1.2v-9.8c0-7.8-.2-9.8.4-9.8,3.3-.2,13.5,2.8,18.2,5.2,11.4,5.9,19.6,14,24.8,24.8,2.7,5.6,5.3,15.8,5.1,18.7.2.4-4.3.1-9.1,0h-10.1c0,0-1.1-3.9-1.1-3.9"/>
        <path class="cls-13" d="M55.9,103c.4-6.2,5.1-18.9,10.7-25.7,6.8-8.8,18.3-16.5,29.5-19.2,3.6-.7,6.6-1.1,7.4-1.2.6-.8.6,1.7.7,9.3v10.2s-4.4,1.3-4.4,1.3c-2.3.8-6.1,2.7-8.1,3.9l-4.1,2.8-3.7-3.3c-4-4.2-6.8-6-8.2-5.4-1.8,1.7-1.4,3.5,3.4,7.9,3.5,3,5.2,4.2,4.1,5.3-3.4,3.8-5.6,7.8-6.9,11l-1.1,4.2-9.5-.2c-9.3,0-9.5.2-9.7-.8"/>
        <path class="cls-1" d="M97.4,94.1c-4.1-3.5-6.3-6.1-6.2-6.8.7-1.5,10.2-6.1,12.1-6,.8-.3,1,1.7.7,9.4.2,5.7.2,10.1,0,9.7-.2,0-3.1-2.8-6.6-6.4"/>
        <path class="cls-7" d="M119.3,91.1c-.1-5.5,0-10.2-.2-10,1.4-.1,8,2.3,10.5,4l2.9,2.6-6,5.9c-3.5,3.6-6.5,6.5-7.2,6.8.2-.4,0-4.4,0-9.3"/>
        <path class="cls-18" d="M110.4,144.6c-.2-20.5,0-23.7,1.3-23.3,1.3-.4,1.6,2.8,1.5,23.4.1,23.6.5,23.8-1.5,23.5-1.9.5-1.5,0-1.3-23.5"/>
      </g>
    </g>
  </g>
</svg>