<?xml version="1.0" ?>
<svg xmlns="http://www.w3.org/2000/svg" version="1.1" width="224" height="224">
  <defs/>
  <g>
    <path d="M 96.30779266357422 193.9315948486328 C 77.07950592041016 190.46519470214844 59.22172164916992 180.2838134765625 47.897674560546875 166.30780029296875 C 34.59234619140625 150.31158447265625 28.1259765625 132.5616912841797 28.0 111.20082092285156 C 28.18553924560547 72.59980010986328 52.725868225097656 40.54616165161133 90.93478393554688 30.29888153076172 C 95.88053131103516 29.445144653320312 100.37738800048828 28.635101318359375 112.80379486083984 28.122337341308594 C 127.05487060546875 28.743362426757812 129.0636749267578 29.374557495117188 136.40444946289062 31.57544708251953 C 159.943359375 38.65835189819336 177.10137939453125 53.07124710083008 187.36651611328125 74.07111358642578 C 193.50726318359375 86.68049621582031 195.61398315429688 96.24505615234375 196.0 112.24437713623047 C 195.67349243164062 127.36581420898438 193.84605407714844 135.34609985351562 188.16046142578125 148.06301879882812 C 181.58380126953125 161.2598876953125 172.13156127929688 172.45028686523438 160.81149291992188 180.07760620117188 C 154.34793090820312 185.06729125976562 142.09486389160156 190.67498779296875 133.86441040039062 192.61669921875 C 124.53330993652344 195.3143310546875 105.90253448486328 195.87767028808594 96.30779266357422 193.9315948486328" stroke-width="1.0" fill="rgb(63, 48, 38)" opacity="0.99576753"/>
    <path d="M 108.59931945800781 187.80172729492188 C 107.0921630859375 183.59979248046875 102.15657043457031 158.6815185546875 101.36318969726562 147.54974365234375 C 99.07947540283203 133.92807006835938 98.82262420654297 99.37333679199219 101.28370666503906 89.84843444824219 C 104.1352310180664 70.27961730957031 110.03424072265625 52.529930114746094 117.42893981933594 40.73946762084961 L 122.3210220336914 34.69771957397461 L 126.76368713378906 35.029884338378906 C 133.79827880859375 36.09695816040039 134.22640991210938 35.743621826171875 133.99359130859375 43.238258361816406 L 133.8463897705078 51.03887939453125 L 129.8272705078125 52.62940216064453 C 120.5029525756836 56.968284606933594 117.9334487915039 69.11148071289062 124.35581970214844 76.06388854980469 C 127.8679428100586 80.32345581054688 131.69606018066406 82.03034973144531 136.49752807617188 82.0719985961914 C 147.31785583496094 82.29080963134766 155.03616333007812 73.0373306274414 152.43438720703125 62.57176971435547 C 151.74246215820312 58.556968688964844 147.40615844726562 53.216495513916016 143.10508728027344 52.17506790161133 C 139.7628936767578 51.032527923583984 139.7987823486328 50.67505645751953 139.65882873535156 44.625701904296875 C 140.1497802734375 38.84831237792969 140.23594665527344 39.152549743652344 142.4923858642578 39.84049987792969 C 147.20042419433594 41.32606506347656 157.16233825683594 46.93752670288086 162.68910217285156 51.6740837097168 C 174.1516876220703 60.863609313964844 182.88587951660156 74.437255859375 187.08071899414062 89.64680480957031 C 189.99124145507812 98.5263442993164 190.83731079101562 114.50973510742188 189.02188110351562 124.19389343261719 C 183.50440979003906 160.74850463867188 155.3526611328125 186.29071044921875 117.5572509765625 189.45156860351562 L 109.7093276977539 189.54888916015625 L 108.59931945800781 187.80172729492188" stroke-width="1.0" fill="rgb(240, 246, 254)" opacity="0.99484056"/>
    <path d="M 129.75503540039062 73.76127624511719 C 127.04670715332031 71.12214660644531 126.2747573852539 70.08071899414062 126.54754638671875 66.16744995117188 C 126.63957214355469 59.81602478027344 129.1894989013672 57.877052307128906 137.25244140625 58.07389450073242 C 143.68899536132812 58.0534553527832 144.6511993408203 58.48386001586914 146.33261108398438 61.75544738769531 C 148.63014221191406 66.03984832763672 146.5549774169922 73.2617416381836 142.7109375 75.15681457519531 C 138.88937377929688 77.47850799560547 133.09835815429688 76.66719818115234 129.75503540039062 73.76127624511719" stroke-width="1.0" fill="rgb(222, 197, 159)" opacity="0.9984383"/>
    <path d="M 96.03067016601562 188.1406707763672 C 84.33634948730469 185.81570434570312 70.44822692871094 179.1964111328125 61.81425094604492 171.7396240234375 C 53.38390350341797 164.94415283203125 47.81385040283203 158.04696655273438 42.00749969482422 147.07009887695312 C 35.97796630859375 134.0358123779297 33.6324462890625 122.5046615600586 33.95973205566406 108.16342163085938 C 34.81910705566406 96.55229187011719 36.72563934326172 88.89898681640625 41.07630920410156 78.14854431152344 C 52.289886474609375 54.87109375 71.25212097167969 40.1324348449707 96.77287292480469 35.04939651489258 C 103.18159484863281 33.889129638671875 114.05419921875 33.31666946411133 114.45149230957031 34.44393539428711 C 114.81634521484375 34.316707611083984 113.4300765991211 37.01762008666992 111.35746002197266 39.96475601196289 C 100.67930603027344 58.056427001953125 93.25926971435547 89.16834259033203 93.53826141357422 112.94718170166016 C 93.03926849365234 131.4094696044922 96.54678344726562 163.0936737060547 100.88587188720703 179.96102905273438 L 103.02852630615234 188.82070922851562 L 100.67068481445312 189.31744384765625 C 99.28758239746094 189.09988403320312 97.40080261230469 188.65133666992188 96.03067016601562 188.1406707763672" stroke-width="1.0" fill="rgb(76, 205, 252)" opacity="0.99399877"/>
  </g>
</svg>
