<?xml version="1.0" ?>
<svg xmlns="http://www.w3.org/2000/svg" version="1.1" width="224" height="224">
  <defs/>
  <g>
    <path d="M 99.88866424560547 192.62969970703125 C 87.85456848144531 191.1561279296875 73.34658813476562 185.84597778320312 63.569908142089844 179.09884643554688 C 57.423221588134766 175.08152770996094 47.5998420715332 165.291259765625 43.56899642944336 159.460693359375 C 38.42047882080078 152.16024780273438 33.225502014160156 140.83575439453125 31.25109100341797 132.28448486328125 C 28.0 121.32208251953125 28.095489501953125 102.16290283203125 31.473060607910156 90.42636108398438 C 35.240203857421875 75.61407470703125 43.11738586425781 62.499107360839844 53.61591720581055 52.032230377197266 C 60.74583053588867 45.19202423095703 65.86058044433594 41.76824188232422 75.44100952148438 37.40717315673828 C 87.00352478027344 31.94176483154297 98.28086853027344 29.36585235595703 111.9434814453125 29.0235595703125 C 134.97515869140625 29.359115600585938 153.71902465820312 36.86186981201172 169.62283325195312 51.10953903198242 C 181.42315673828125 62.495819091796875 189.41232299804688 76.1253890991211 192.96337890625 92.01709747314453 C 195.9127197265625 102.96663665771484 196.0 119.94927978515625 193.18203735351562 131.28515625 C 187.12136840820312 155.9698028564453 170.89718627929688 175.7947235107422 148.1339874267578 185.84310913085938 C 134.99607849121094 192.11831665039062 114.92076873779297 194.9764404296875 99.88866424560547 192.62969970703125" stroke-width="1.0" fill="rgb(69, 54, 44)" opacity="0.9906575"/>
    <path d="M 78.40400695800781 125.16178131103516 C 78.47026824951172 122.93488311767578 85.57996368408203 117.31605529785156 87.61190795898438 117.81057739257812 C 90.96967315673828 118.43191528320312 90.84642791748047 120.25570678710938 87.67188262939453 123.42247772216797 C 84.36480712890625 126.58834075927734 78.30709838867188 127.50411987304688 78.40400695800781 125.16178131103516" stroke-width="1.0" fill="rgb(255, 255, 0)" opacity="1.0"/>
    <path d="M 99.02503967285156 187.6872100830078 C 69.39830017089844 182.68548583984375 46.79107666015625 164.22250366210938 37.29589080810547 136.1165008544922 C 35.13053894042969 129.6503448486328 33.71368408203125 121.15841674804688 33.51664733886719 109.99901580810547 C 33.85576629638672 98.29075622558594 35.609710693359375 90.6473388671875 38.30778503417969 86.69943237304688 C 40.4233512878418 85.24299621582031 76.09136962890625 55.126991271972656 89.28108215332031 44.323509216308594 C 91.42825317382812 42.02101135253906 95.06338500976562 39.899085998535156 96.38538360595703 39.250999450683594 C 98.45663452148438 38.97413635253906 106.71826171875 37.83991241455078 114.92913055419922 36.230133056640625 C 130.0540008544922 35.25848388671875 130.58447265625 35.51457977294922 136.05686950683594 37.637413024902344 C 161.0603790283203 46.00593948364258 178.39779663085938 62.63772201538086 187.0517578125 88.74762725830078 C 188.73544311523438 93.66700744628906 189.60610961914062 95.41268157958984 190.69793701171875 111.26336669921875 C 189.69212341308594 129.6704864501953 188.60870361328125 132.82772827148438 183.3809356689453 144.5252227783203 C 180.84912109375 151.16680908203125 172.726806640625 162.4961395263672 168.70179748535156 165.57217407226562 C 162.94532775878906 170.23390197753906 143.14947509765625 182.0697021484375 141.9542236328125 182.18946838378906 C 141.57440185546875 182.28314208984375 140.05987548828125 183.1056365966797 139.23922729492188 183.69174194335938 C 133.56051635742188 187.47869873046875 112.13737487792969 190.1188201904297 99.02503967285156 187.6872100830078" stroke-width="0.0" fill="rgb(33, 144, 184)" opacity="0.9679441"/>
    <path d="M 83.03591918945312 101.6144027709961 C 80.81974792480469 96.31922149658203 77.05419921875 96.47702026367188 71.0950927734375 100.79894256591797 C 69.77737426757812 103.43189239501953 68.28701782226562 104.63031005859375 67.78785705566406 105.07901000976562 C 66.23907470703125 104.68413543701172 47.73933792114258 96.87266540527344 47.527740478515625 94.88690948486328 C 46.185821533203125 93.32583618164062 43.583396911621094 93.23808288574219 42.88983154296875 93.033203125 C 41.146549224853516 93.58918762207031 39.91822052001953 90.37858581542969 38.455726623535156 86.58865356445312 C 37.97704315185547 81.50008392333984 48.165924072265625 64.07998657226562 58.11507797241211 55.1350212097168 C 63.98486328125 49.74813461303711 71.6467514038086 44.70111083984375 76.40260314941406 42.254066467285156 C 78.009521484375 40.62024688720703 82.8154067993164 41.47688293457031 84.90145111083984 39.57762908935547 C 93.64675903320312 34.460174560546875 98.3056411743164 34.68030548095703 109.27375030517578 33.572349548339844 C 123.5491943359375 33.8724365234375 128.97610473632812 34.015777587890625 128.24227905273438 39.15441131591797 C 133.67271423339844 42.10304260253906 132.55271911621094 44.342987060546875 130.2412567138672 47.648136138916016 C 128.82003784179688 48.268314361572266 118.91141510009766 46.005149841308594 117.79225158691406 43.193519592285156 C 115.96951293945312 39.43549346923828 111.6191635131836 38.00978088378906 105.62750244140625 38.27092742919922 C 97.80577850341797 38.18168640136719 93.69666290283203 39.55479431152344 91.79209899902344 42.240882873535156 C 89.69713592529297 44.19197082519531 91.13628387451172 45.214111328125 94.70767211914062 45.09197235107422 C 96.83702850341797 44.82914733886719 98.47481536865234 45.3018798828125 99.4949722290039 45.224761962890625 C 102.72660827636719 47.10783004760742 101.4104232788086 49.09397888183594 98.74993896484375 48.99552536010742 C 94.96760559082031 49.82645797729492 87.4799575805664 51.8209342956543 86.80094909667969 54.513511657714844 C 87.26239013671875 57.857452392578125 89.03363800048828 62.473758697509766 92.35244750976562 63.67941665649414 C 93.67134094238281 62.09657287597656 102.6559829711914 58.34090805053711 104.10750579833984 52.63272476196289 L 106.16985321044922 50.269691467285156 L 109.53938293457031 52.857810974121094 C 110.17992401123047 55.80622100830078 112.06085205078125 57.00996398925781 114.49065399169922 56.8274040222168 C 116.71080017089844 56.8856315612793 118.02564239501953 59.20623016357422 116.3304214477539 62.8233528137207 C 119.61430358886719 65.28651428222656 119.69517517089844 65.72854614257812 116.87350463867188 67.11131286621094 C 114.27433776855469 66.80282592773438 112.56114196777344 68.8317642211914 112.64857482910156 72.16384887695312 C 111.72393035888672 74.01705932617188 109.90505981445312 75.5826187133789 108.62538146972656 76.38902282714844 C 105.87185668945312 76.78352355957031 105.36041259765625 75.28384399414062 108.68771362304688 71.7047119140625 C 110.48419952392578 67.31675720214844 105.99272918701172 68.06623840332031 98.89691162109375 75.43740844726562 C 92.92040252685547 80.77271270751953 91.4833984375 80.33372497558594 91.87097930908203 85.69608306884766 C 92.06893157958984 88.71748352050781 90.1324234008789 91.03927612304688 87.91712188720703 92.57414245605469 C 84.6039810180664 95.38346099853516 84.7539291381836 97.75892639160156 88.14752197265625 103.44950866699219 C 88.705322265625 107.42729949951172 85.31358337402344 106.70603942871094 83.03591918945312 101.6144027709961" stroke-width="0.0" fill="rgb(253, 252, 225)" opacity="1.0"/>
    <path d="M 118.4616928100586 135.29611206054688 C 118.21305847167969 134.93292236328125 118.77606964111328 134.33071899414062 119.35929870605469 134.40711975097656 C 119.64334106445312 134.33485412597656 120.8134994506836 133.1688690185547 121.20967102050781 131.7500457763672 C 122.85037231445312 128.77732849121094 123.21163940429688 128.3377227783203 127.45008087158203 128.2229766845703 C 130.36563110351562 128.8722381591797 132.86849975585938 130.10769653320312 134.1702423095703 131.44061279296875 C 136.696533203125 133.9605712890625 135.75552368164062 135.5997314453125 132.23443603515625 133.46226501464844 C 131.5084686279297 132.34454345703125 129.05494689941406 131.25877380371094 127.31158447265625 131.00550842285156 C 124.60028839111328 130.68287658691406 123.47772216796875 131.25308227539062 122.41568756103516 134.0072021484375 C 120.41162872314453 136.73544311523438 118.12916564941406 137.46792602539062 118.4616928100586 135.29611206054688" stroke-width="1.0" fill="rgb(248, 204, 7)" opacity="0.9789419"/>
    <path d="M 140.4120635986328 181.143798828125 C 140.59947204589844 179.90737915039062 139.50563049316406 178.25811767578125 137.64926147460938 177.29000854492188 C 134.4601287841797 175.22488403320312 134.5590362548828 175.11572265625 124.4631576538086 177.23500061035156 C 121.91462707519531 177.3675994873047 121.25714874267578 176.8427734375 117.0744400024414 172.93226623535156 C 114.64429473876953 170.1468505859375 112.00247192382812 167.25579833984375 111.92649841308594 166.36380004882812 C 111.11553955078125 163.75192260742188 118.7096939086914 152.45510864257812 123.69252014160156 148.57754516601562 C 127.3879623413086 145.38198852539062 127.38449096679688 145.4379425048828 139.31594848632812 146.21435546875 L 150.66748046875 145.20529174804688 L 151.3478546142578 148.2997283935547 C 152.2390899658203 150.84756469726562 152.0754852294922 150.955322265625 158.85165405273438 149.1951446533203 C 161.31442260742188 149.20675659179688 162.69332885742188 149.26092529296875 163.0570831298828 150.3539581298828 C 163.37322998046875 151.2147674560547 164.98422241210938 151.74057006835938 167.9142608642578 151.47064208984375 C 172.81593322753906 151.70062255859375 173.7273406982422 153.4427032470703 170.43505859375 158.06680297851562 C 169.00779724121094 159.74295043945312 167.71934509277344 162.73516845703125 167.35797119140625 164.41395568847656 C 167.26376342773438 166.7754669189453 165.66973876953125 168.75146484375 162.79132080078125 171.04583740234375 C 157.99732971191406 175.25006103515625 146.81695556640625 181.6774139404297 143.10768127441406 182.56076049804688 C 140.80511474609375 183.44754028320312 140.4801788330078 183.158203125 140.4120635986328 181.143798828125" stroke-width="1.0" fill="rgb(254, 252, 223)" opacity="0.99452573"/>
    <path d="M 107.20352172851562 148.0601348876953 C 107.03761291503906 143.98806762695312 106.7029800415039 143.91639709472656 97.03463745117188 142.97915649414062 C 87.21110534667969 141.9839324951172 87.29113006591797 141.55892944335938 84.27488708496094 136.96653747558594 C 80.6788558959961 135.22384643554688 78.08541870117188 133.0515594482422 77.22309875488281 133.92779541015625 C 75.52826690673828 133.5720672607422 72.6256103515625 133.00857543945312 70.59593963623047 132.87948608398438 C 68.91344451904297 131.52761840820312 66.91980743408203 129.99624633789062 65.52169799804688 128.19549560546875 L 62.943519592285156 126.8304443359375 L 66.4316177368164 124.73290252685547 C 68.9927978515625 121.75721740722656 69.51475524902344 121.59723663330078 74.5302963256836 125.62492370605469 C 78.8314437866211 125.40253448486328 79.45588684082031 123.9631576538086 82.84805297851562 119.55712890625 C 85.27770233154297 120.16304779052734 87.38660430908203 118.8338623046875 89.96834564208984 120.21748352050781 C 87.85652160644531 123.74388885498047 87.760498046875 126.10636901855469 89.00770568847656 129.21267700195312 L 88.9654541015625 136.21055603027344 L 92.57508087158203 137.39422607421875 C 95.66035461425781 138.54324340820312 97.00762176513672 137.7296600341797 102.5498275756836 135.20965576171875 C 106.37968444824219 134.18785095214844 109.83971405029297 133.57473754882812 109.85948181152344 134.537353515625 C 109.2097396850586 135.91221618652344 110.85334014892578 150.3946990966797 110.79296875 149.78152465820312 C 110.26799011230469 149.87135314941406 108.88278198242188 149.2684326171875 107.20352172851562 148.0601348876953" stroke-width="1.0" fill="rgb(255, 249, 189)" opacity="0.9937101"/>
    <path d="M 63.15074920654297 127.62330627441406 C 61.13307571411133 126.58026885986328 60.07329559326172 125.1427001953125 60.188785552978516 123.5763168334961 C 60.255123138427734 122.32186889648438 59.10679626464844 119.65188598632812 57.487789154052734 117.76759338378906 C 51.759281158447266 108.50926208496094 48.31595230102539 97.69644927978516 50.1976432800293 96.20730590820312 C 50.50430679321289 95.67253112792969 52.96086883544922 94.89571380615234 55.526588439941406 94.52556610107422 C 59.6746826171875 94.39596557617188 60.088741302490234 94.67535400390625 62.50942611694336 97.2935562133789 C 64.6472396850586 100.59243774414062 66.3750991821289 102.42802429199219 69.92430114746094 105.13124084472656 C 71.52271270751953 107.1627197265625 71.79224395751953 110.19243621826172 70.20475769042969 114.46507263183594 C 69.27247619628906 116.72500610351562 69.42926025390625 117.81128692626953 71.02493286132812 119.47532653808594 C 73.26947021484375 122.9423599243164 72.74484252929688 125.08289337158203 70.02513122558594 127.25746154785156 C 67.59044647216797 130.06048583984375 66.8966064453125 130.06619262695312 63.15074920654297 127.62330627441406" stroke-width="1.0" fill="rgb(255, 242, 27)" opacity="0.9996321"/>
  </g>
</svg>
