<?xml version="1.0" ?>
<svg xmlns="http://www.w3.org/2000/svg" version="1.1" width="224" height="224">
  <defs/>
  <g>
    <path d="M 48.609764099121094 175.11407470703125 C 43.06361389160156 171.71304321289062 39.801292419433594 168.40245056152344 37.71588897705078 162.18971252441406 C 36.70934295654297 158.47183227539062 35.935302734375 158.28114318847656 31.72795867919922 158.78887939453125 C 28.68505096435547 158.06704711914062 28.067115783691406 157.0527801513672 28.055580139160156 154.8057098388672 C 28.0 152.47373962402344 28.369598388671875 151.47137451171875 31.07440185546875 150.69956970214844 L 34.615089416503906 150.44422912597656 L 34.22156524658203 97.681640625 L 34.29889678955078 43.08125305175781 L 87.802978515625 43.237281799316406 C 116.93565368652344 43.40684509277344 141.65386962890625 43.234100341796875 142.7850341796875 42.98394775390625 C 145.18028259277344 43.801673889160156 145.6650848388672 44.599822998046875 145.45840454101562 49.951690673828125 L 145.4973907470703 56.09918975830078 L 152.3533172607422 56.26671600341797 C 156.6118621826172 56.1522216796875 159.45220947265625 56.489013671875 160.9613800048828 57.28025817871094 C 161.82711791992188 59.03523254394531 161.84640502929688 66.02218627929688 161.64920043945312 82.96282958984375 L 161.63388061523438 106.71192932128906 L 170.4095458984375 106.96138000488281 C 180.92861938476562 107.17869567871094 183.89370727539062 108.71418762207031 188.38198852539062 114.8169937133789 C 190.4124755859375 117.49971008300781 190.57061767578125 119.50791931152344 190.27330017089844 134.8068084716797 C 190.2122344970703 150.46221923828125 190.45437622070312 151.74342346191406 192.58941650390625 150.6364288330078 C 194.91000366210938 151.49278259277344 196.0 154.0081024169922 195.37808227539062 156.5194549560547 C 195.2230682373047 157.55007934570312 193.067138671875 158.53994750976562 190.66448974609375 158.79598999023438 C 187.72573852539062 158.42996215820312 186.77651977539062 158.80657958984375 186.09889221191406 163.10623168945312 C 184.39691162109375 168.72247314453125 177.08132934570312 175.45106506347656 171.1997528076172 176.75350952148438 C 158.15748596191406 181.01605224609375 144.4261474609375 173.70953369140625 141.58599853515625 162.17552185058594 L 141.26170349121094 158.42929077148438 L 111.35652923583984 158.57713317871094 C 83.26518249511719 158.6947021484375 81.63003540039062 158.5876007080078 82.34144592285156 160.54315185546875 C 82.5141372680664 162.2379913330078 81.23112487792969 165.28009033203125 79.37269592285156 168.11349487304688 C 72.64045715332031 177.4705352783203 59.472572326660156 180.5389404296875 48.609764099121094 175.11407470703125" stroke-width="1.0" fill="rgb(29, 17, 15)" opacity="0.996665"/>
    <path d="M 86.72288513183594 131.44154357910156 L 86.8437271118164 112.16195678710938 L 137.728271484375 112.1852798461914 L 137.7778778076172 131.5178985595703 L 137.91680908203125 150.76722717285156 L 111.6734619140625 150.73110961914062 L 86.68058776855469 150.8699188232422 L 86.72288513183594 131.44154357910156" stroke-width="1.0" fill="rgb(253, 254, 254)" opacity="0.99809235"/>
    <path d="M 73.7839584350586 134.33624267578125 C 68.92640686035156 131.51608276367188 67.41749572753906 131.060302734375 60.26017761230469 130.60528564453125 C 54.160545349121094 131.10365295410156 52.12908172607422 131.6456756591797 47.32958221435547 133.97584533691406 C 44.58757019042969 135.97265625 42.64622497558594 137.81150817871094 41.382843017578125 138.1541748046875 C 41.50255584716797 136.2831268310547 41.420509338378906 131.81455993652344 41.57270812988281 125.58201599121094 L 41.50554656982422 112.54926300048828 L 79.51487731933594 112.37340545654297 L 79.26558685302734 126.13557434082031 C 79.58207702636719 132.47021484375 79.44952392578125 137.71534729003906 79.06947326660156 138.08616638183594 C 78.76097106933594 137.7653045654297 76.5728759765625 136.23072814941406 73.7839584350586 134.33624267578125" stroke-width="1.0" fill="rgb(253, 254, 254)" opacity="0.9994792"/>
    <path d="M 145.40814208984375 106.1448974609375 L 145.46038818359375 74.44386291503906 L 153.79222106933594 74.18879699707031 L 153.86029052734375 95.05726623535156 C 153.64747619628906 106.89189147949219 154.06922912597656 117.790283203125 154.51123046875 118.70028686523438 C 156.19580078125 122.60792541503906 160.55661010742188 122.4957046508789 161.36892700195312 117.77818298339844 C 162.06082153320312 114.32994842529297 162.75048828125 114.87042236328125 169.60476684570312 115.15054321289062 C 175.662353515625 114.80760955810547 178.14523315429688 115.04983520507812 180.20188903808594 117.3266372680664 C 182.60302734375 119.47486877441406 182.63265991210938 120.24407958984375 182.5380859375 128.7134246826172 L 182.44857788085938 138.76858520507812 L 178.37628173828125 135.21591186523438 C 169.27127075195312 128.88119506835938 159.4449462890625 128.7406463623047 148.99420166015625 135.8115692138672 L 145.2538299560547 138.90960693359375 L 145.40814208984375 106.1448974609375" stroke-width="1.0" fill="rgb(248, 251, 254)" opacity="0.9859434"/>
    <path d="M 41.433929443359375 78.07192993164062 L 41.460906982421875 51.225250244140625 L 79.39178466796875 51.191551208496094 L 79.36874389648438 103.59333038330078 L 41.383201599121094 103.62010192871094 L 41.433929443359375 78.07192993164062" stroke-width="1.0" fill="rgb(253, 254, 254)" opacity="0.9976128"/>
    <path d="M 86.76945495605469 76.95802307128906 L 86.83684539794922 51.638092041015625 L 111.82955932617188 51.32105255126953 L 138.14657592773438 51.07481384277344 L 137.59742736816406 77.71812438964844 L 137.6013946533203 103.71644592285156 L 86.57489013671875 103.733154296875 L 86.76945495605469 76.95802307128906" stroke-width="1.0" fill="rgb(252, 253, 253)" opacity="0.9934862"/>
    <path d="M 145.34555053710938 64.80374145507812 C 145.13897705078125 63.928409576416016 147.65521240234375 63.218292236328125 150.1370849609375 63.58177947998047 C 152.5815887451172 63.4886474609375 154.37567138671875 64.12090301513672 154.45834350585938 65.16091918945312 C 154.46714782714844 65.9197769165039 152.0287322998047 66.86979675292969 149.1424560546875 66.48347473144531 C 145.76361083984375 66.63754272460938 144.07891845703125 65.7603530883789 145.34555053710938 64.80374145507812" stroke-width="1.0" fill="rgb(242, 243, 245)" opacity="0.9574408"/>
    <path d="M 50.81170654296875 168.16552734375 C 40.50684356689453 161.61990356445312 40.96061706542969 146.9099884033203 51.40723419189453 140.88568115234375 C 56.44804000854492 137.80557250976562 65.35595703125 138.04345703125 69.85562133789062 141.49014282226562 C 79.45710754394531 148.38021850585938 78.13935852050781 163.8530731201172 67.4671401977539 168.82064819335938 C 62.265541076660156 171.59449768066406 54.96983337402344 171.2779541015625 50.81170654296875 168.16552734375" stroke-width="1.0" fill="rgb(136, 119, 104)" opacity="0.99442923"/>
    <path d="M 154.81939697265625 168.1467742919922 C 144.7171630859375 161.26914978027344 145.1490936279297 146.787353515625 155.4735870361328 141.16738891601562 C 163.8258056640625 135.9326629638672 173.780029296875 138.86196899414062 177.9552459716797 147.17149353027344 C 181.07974243164062 152.96054077148438 180.96482849121094 157.2201690673828 178.14805603027344 162.07794189453125 C 175.3984375 167.624267578125 170.56088256835938 170.74900817871094 163.68814086914062 170.60386657714844 C 159.93646240234375 170.67799377441406 157.32415771484375 170.0137939453125 154.81939697265625 168.1467742919922" stroke-width="1.0" fill="rgb(135, 118, 103)" opacity="0.98797816"/>
    <path d="M 53.03538513183594 161.74085998535156 C 48.30597686767578 157.9603729248047 48.73561096191406 151.94776916503906 53.40062713623047 147.7568359375 C 56.855655670166016 145.0237274169922 58.1441535949707 144.54234313964844 61.44723892211914 145.0876007080078 C 67.18553161621094 145.93470764160156 70.76457214355469 150.65252685546875 69.72032165527344 155.7804412841797 C 68.6759033203125 163.57310485839844 59.482879638671875 167.3483428955078 53.03538513183594 161.74085998535156" stroke-width="1.0" fill="rgb(27, 16, 13)" opacity="0.99060416"/>
    <path d="M 156.94317626953125 161.64450073242188 C 153.05857849121094 157.84930419921875 153.30203247070312 151.19752502441406 157.15866088867188 147.94505310058594 C 163.38189697265625 141.6085662841797 173.47792053222656 146.04656982421875 173.37689208984375 154.71470642089844 C 173.6053924560547 160.587646484375 169.37875366210938 164.66134643554688 163.5410919189453 164.6055450439453 C 160.90988159179688 164.73553466796875 158.7913360595703 163.6673583984375 156.94317626953125 161.64450073242188" stroke-width="1.0" fill="rgb(27, 16, 14)" opacity="0.9935917"/>
  </g>
</svg>
