<?xml version="1.0" ?>
<svg xmlns="http://www.w3.org/2000/svg" version="1.1" width="224" height="224">
  <defs/>
  <g>
    <path d="M 112.19239044189453 50.22125244140625 C 112.19239044189453 50.22125244140625 112.19239044189453 50.22125244140625 112.19239044189453 50.22125244140625 C 104.43424987792969 49.8404655456543 95.9217300415039 52.12278747558594 89.27155303955078 56.01625442504883 C 85.41168212890625 58.275386810302734 82.11978912353516 61.20248794555664 78.05592346191406 63.15602111816406 C 69.47941589355469 67.27908325195312 59.838932037353516 68.88703155517578 50.40004348754883 69.32382202148438 C 50.40004348754883 68.55904388427734 50.40004348754883 67.79507446289062 50.40004348754883 67.03028869628906 C 50.22565460205078 65.72953796386719 50.30884552001953 65.35675048828125 49.63607406616211 64.202392578125 C 47.81853103637695 61.08169174194336 43.38988494873047 60.51851272583008 40.839561462402344 63.06962585449219 C 39.6820068359375 64.22718811035156 39.408409118652344 65.47674560546875 39.199623107910156 67.03028869628906 C 39.199623107910156 80.44104766845703 39.199623107910156 93.85179901123047 39.199623107910156 107.26255798339844 C 32.40784454345703 110.04806518554688 28.362380981445312 115.68547058105469 27.99999237060547 123.02842712402344 C 27.99999237060547 134.22805786132812 27.99999237060547 145.4268798828125 27.99999237060547 156.6265106201172 C 28.45037841796875 159.9879913330078 30.238319396972656 161.77593994140625 33.59980773925781 162.22711181640625 C 35.466949462890625 162.22711181640625 37.333274841308594 162.22711181640625 39.199623107910156 162.22711181640625 C 39.199623107910156 164.0934600830078 39.199623107910156 165.9597930908203 39.199623107910156 167.82693481445312 C 39.408409118652344 169.38047790527344 39.6820068359375 170.6300506591797 40.839561462402344 171.78759765625 C 43.38988494873047 174.33872985839844 47.81853103637695 173.77554321289062 49.63607406616211 170.65484619140625 C 50.30884552001953 169.50048828125 50.22565460205078 169.127685546875 50.40004348754883 167.82693481445312 C 50.40004348754883 165.9597930908203 50.40004348754883 164.0934600830078 50.40004348754883 162.22711181640625 C 91.46668243408203 162.22711181640625 132.53330993652344 162.22711181640625 173.59994506835938 162.22711181640625 C 173.59994506835938 164.0934600830078 173.59994506835938 165.9597930908203 173.59994506835938 167.82693481445312 C 173.775146484375 169.127685546875 173.6919403076172 169.50048828125 174.36471557617188 170.65484619140625 C 176.18226623535156 173.77554321289062 180.61090087890625 174.33872985839844 183.16122436523438 171.78759765625 C 184.31878662109375 170.6300506591797 184.59237670898438 169.38047790527344 184.80117797851562 167.82693481445312 C 184.80117797851562 165.9597930908203 184.80117797851562 164.0934600830078 184.80117797851562 162.22711181640625 C 186.66751098632812 162.22711181640625 188.53384399414062 162.22711181640625 190.40017700195312 162.22711181640625 C 193.76248168945312 161.77593994140625 195.54962158203125 159.98880004882812 196.0 156.6265106201172 C 196.0 145.4268798828125 196.0 134.22805786132812 196.0 123.02842712402344 C 195.63760375976562 115.68547058105469 191.59375 110.0472640991211 184.80117797851562 107.26255798339844 C 184.80117797851562 93.85179901123047 184.80117797851562 80.44104766845703 184.80117797851562 67.03028869628906 C 184.6259765625 65.72953796386719 184.70916748046875 65.35675048828125 184.03639221191406 64.202392578125 C 182.21885681152344 61.08169174194336 177.7902069091797 60.51851272583008 175.23988342285156 63.06962585449219 C 174.08233642578125 64.22718811035156 173.80873107910156 65.47674560546875 173.59994506835938 67.03028869628906 C 173.59994506835938 67.79347229003906 173.59994506835938 68.556640625 173.59994506835938 69.32061767578125 C 164.161865234375 68.88383483886719 154.52218627929688 67.27748107910156 145.9448699951172 63.15522003173828 C 141.88099670410156 61.20248794555664 138.589111328125 58.27778244018555 134.7316436767578 56.01546096801758 C 128.3334503173828 52.26358413696289 119.71853637695312 49.6612663269043 112.19239044189453 50.22125244140625 C 112.19239044189453 50.22125244140625 112.19239044189453 50.22125244140625 112.19239044189453 50.22125244140625" stroke-width="0.0" fill="rgb(153, 102, 204)" opacity="1.0"/>
    <path d="M 44.80663299560547 111.82880401611328 C 89.60433959960938 111.82880401611328 134.40286254882812 111.82880401611328 179.2005615234375 111.82880401611328 C 185.63555908203125 112.30158233642578 189.92739868164062 116.59344482421875 190.40017700195312 123.02842712402344 C 190.40017700195312 134.22805786132812 190.40017700195312 145.4268798828125 190.40017700195312 156.6265106201172 C 138.13552856445312 156.62730407714844 85.87086486816406 156.62892150878906 33.606201171875 156.6297149658203 C 33.606201171875 145.43008422851562 33.606201171875 134.23126220703125 33.606201171875 123.03163146972656 C 34.07899475097656 116.59584045410156 38.370849609375 112.3047866821289 44.80663299560547 111.83200073242188 C 44.80663299560547 111.83200073242188 44.80663299560547 111.83200073242188 44.80663299560547 111.83200073242188 C 44.80663299560547 111.83200073242188 44.80663299560547 111.82880401611328 44.80663299560547 111.82880401611328" stroke-width="0.0" fill="rgb(153, 102, 204)" opacity="1.0"/>
    <path d="M 112.1795883178711 61.415279388427734 C 112.1795883178711 61.415279388427734 112.1795883178711 61.415279388427734 112.1795883178711 61.415279388427734 C 117.37541961669922 61.112091064453125 123.22242736816406 62.63124084472656 127.79747009277344 64.98155975341797 C 132.4269256591797 67.36067962646484 136.2795867919922 70.9213638305664 141.01463317871094 73.20608520507812 C 151.1239013671875 78.0843276977539 162.4547119140625 80.11385345458984 173.60394287109375 80.55224609375 C 173.60394287109375 89.11116027832031 173.60394287109375 97.67007446289062 173.60394287109375 106.22898864746094 C 166.13699340820312 106.22898864746094 158.66925048828125 106.22898864746094 151.20230102539062 106.22898864746094 C 151.20230102539062 104.36185455322266 151.20230102539062 102.49551391601562 151.20230102539062 100.62837219238281 C 150.72950744628906 94.19658660888672 146.4344482421875 89.90152740478516 140.00267028808594 89.42794799804688 C 121.3360824584961 89.42874908447266 102.67030334472656 89.43034362792969 84.00453186035156 89.43114471435547 C 77.57194519042969 89.90473175048828 73.27688598632812 94.19978332519531 72.80329895019531 100.63157653808594 C 72.80329895019531 102.49871063232422 72.80329895019531 104.36505126953125 72.80329895019531 106.23218536376953 C 65.33715057373047 106.2305908203125 57.87019729614258 106.22978973388672 50.40324783325195 106.22898864746094 C 50.40324783325195 97.66527557373047 50.40324783325195 89.10235595703125 50.40324783325195 80.53944396972656 C 61.55327606201172 80.095458984375 72.8864974975586 78.07792663574219 82.99896240234375 73.2012939453125 C 87.63800811767578 70.96376037597656 91.40827941894531 67.51988220214844 95.9121322631836 65.13516235351562 C 100.69197082519531 62.60483932495117 106.73497009277344 61.120887756347656 112.1795883178711 61.415279388427734 C 112.1795883178711 61.415279388427734 112.1795883178711 61.415279388427734 112.1795883178711 61.415279388427734" stroke-width="0.0" fill="rgb(254, 254, 254)" opacity="1.0"/>
    <path d="M 84.00453186035156 100.62837219238281 C 102.67030334472656 100.62837219238281 121.3360824584961 100.62837219238281 140.00267028808594 100.62837219238281 C 140.00267028808594 102.49551391601562 140.00267028808594 104.36185455322266 140.00267028808594 106.22898864746094 C 121.3360824584961 106.22898864746094 102.67030334472656 106.22898864746094 84.00453186035156 106.22898864746094 C 84.00453186035156 104.36185455322266 84.00453186035156 102.49551391601562 84.00453186035156 100.62837219238281" stroke-width="0.0" fill="rgb(255, 255, 255)" opacity="1.0"/>
    <path d="M 179.2005615234375 117.42861938476562 C 179.2005615234375 117.42861938476562 179.2005615234375 117.42861938476562 179.2005615234375 117.42861938476562 C 182.55804443359375 117.88140106201172 184.348388671875 119.6701431274414 184.80117797851562 123.02842712402344 C 184.80117797851562 132.3609161376953 184.80117797851562 141.6934051513672 184.80117797851562 151.02589416503906 C 136.26919555664062 151.02749633789062 87.73800659179688 151.02828979492188 39.206016540527344 151.0290985107422 C 39.206016540527344 141.6966094970703 39.206016540527344 132.36412048339844 39.206016540527344 123.03163146972656 C 39.65880584716797 119.67333984375 41.448341369628906 117.88380432128906 44.80663299560547 117.43101501464844 C 89.60433959960938 117.43021392822266 134.40286254882812 117.42941284179688 179.2005615234375 117.42861938476562" stroke-width="0.0" fill="rgb(207, 176, 252)" opacity="1.0"/>
  </g>
</svg>
