<?xml version="1.0" ?>
<svg xmlns="http://www.w3.org/2000/svg" version="1.1" width="224" height="224">
  <defs/>
  <g>
    <path d="M 46.000205993652344 46.019065856933594 C 46.000205993652344 46.019065856933594 46.000205993652344 46.019065856933594 46.000205993652344 46.019065856933594 C 35.85371398925781 46.503334045410156 28.4842529296875 53.871925354003906 27.99999237060547 64.019287109375 C 27.99999237060547 74.01835632324219 27.99999237060547 84.01742553710938 27.99999237060547 94.0165023803711 C 28.4842529296875 104.16385650634766 35.85371398925781 111.5333023071289 46.000205993652344 112.017578125 C 46.19648742675781 112.017578125 46.39276885986328 112.017578125 46.58904266357422 112.017578125 C 46.403907775878906 113.81237030029297 46.218772888183594 115.6071548461914 46.03363800048828 117.4019546508789 C 46.17420196533203 121.282958984375 48.159271240234375 123.4771728515625 52.00341796875 124.01715087890625 C 92.00142669677734 124.01715087890625 131.99856567382812 124.01715087890625 171.99658203125 124.01715087890625 C 175.84158325195312 123.47630310058594 177.82237243652344 121.282958984375 177.96722412109375 117.4019546508789 C 177.78123474121094 115.6071548461914 177.59609985351562 113.81237030029297 177.41094970703125 112.017578125 C 177.60723876953125 112.017578125 177.8035125732422 112.017578125 178.00064086914062 112.017578125 C 188.1471405029297 111.5333023071289 195.5157470703125 104.16385650634766 196.0 94.0165023803711 C 196.0 84.01742553710938 196.0 74.01835632324219 196.0 64.019287109375 C 195.5157470703125 53.8727912902832 188.1471405029297 46.503334045410156 178.00064086914062 46.019065856933594 C 134.00079345703125 46.019065856933594 90.00006866455078 46.019065856933594 46.000205993652344 46.019065856933594" stroke-width="0.0" fill="rgb(153, 102, 204)" opacity="1.0"/>
    <path d="M 177.99636840820312 52.019710540771484 C 177.99636840820312 52.019710540771484 177.99636840820312 52.019710540771484 177.99636840820312 52.019710540771484 C 184.87725830078125 52.528831481933594 189.4876708984375 57.139244079589844 189.99765014648438 64.019287109375 C 189.99765014648438 74.01835632324219 189.99765014648438 84.01742553710938 189.99765014648438 94.0165023803711 C 189.4876708984375 100.89739990234375 184.87725830078125 105.50780487060547 177.99636840820312 106.01779174804688 C 175.57760620117188 106.01779174804688 173.15797424316406 106.01779174804688 170.73834228515625 106.01779174804688 C 170.53863525390625 104.01728820800781 170.33892822265625 102.01764678955078 170.13922119140625 100.01714324951172 C 131.37973022460938 100.01800537109375 92.6202621459961 100.01971435546875 53.86078643798828 100.02056884765625 C 53.66107940673828 102.02107238769531 53.46137237548828 104.02071380615234 53.26166534423828 106.0212173461914 C 50.84288787841797 106.0212173461914 48.42326354980469 106.0212173461914 46.004493713378906 106.0212173461914 C 39.12359619140625 105.51123046875 34.5123291015625 100.90082550048828 34.003204345703125 94.01992797851562 C 34.003204345703125 84.02085876464844 34.003204345703125 74.02178192138672 34.003204345703125 64.022705078125 C 34.5123291015625 57.14181137084961 39.12359619140625 52.53140640258789 46.004493713378906 52.022281646728516 C 90.00178527832031 52.02142333984375 133.99908447265625 52.02056884765625 177.99636840820312 52.019710540771484" stroke-width="0.0" fill="rgb(153, 102, 204)" opacity="1.0"/>
    <path d="M 59.27602005004883 106.01779174804688 C 94.42533874511719 106.01779174804688 129.5755157470703 106.01779174804688 164.72483825683594 106.01779174804688 C 164.93226623535156 108.0174331665039 165.13967895507812 110.01792907714844 165.34710693359375 112.017578125 C 129.78207397460938 112.017578125 94.2179183959961 112.017578125 58.652896881103516 112.017578125 C 58.860321044921875 110.01792907714844 59.06859588623047 108.0174331665039 59.27602005004883 106.01779174804688" stroke-width="0.0" fill="rgb(254, 254, 254)" opacity="1.0"/>
    <path d="M 177.99636840820312 58.01864242553711 C 177.99636840820312 58.01864242553711 177.99636840820312 58.01864242553711 177.99636840820312 58.01864242553711 C 181.59365844726562 58.50376510620117 183.5118865966797 60.4228401184082 183.99700927734375 64.019287109375 C 183.99700927734375 74.01835632324219 183.99700927734375 84.01742553710938 183.99700927734375 94.0165023803711 C 183.5118865966797 97.61380004882812 181.59365844726562 99.53202056884766 177.99636840820312 100.01714324951172 C 177.3878173828125 100.01714324951172 176.77841186523438 100.01714324951172 176.16986083984375 100.01714324951172 C 176.1484375 99.81143951416016 176.1269989013672 99.60658264160156 176.1064453125 99.40087890625 C 175.34703063964844 96.11642456054688 173.48367309570312 94.43563079833984 170.13922119140625 94.0165023803711 C 131.37887573242188 94.01821899414062 92.61854553222656 94.01907348632812 53.85821533203125 94.01992797851562 C 50.513763427734375 94.43905639648438 48.65039825439453 96.1198501586914 47.8909912109375 99.40430450439453 C 47.86956787109375 99.61001586914062 47.84814453125 99.81486511230469 47.82671356201172 100.02056884765625 C 47.218162536621094 100.02056884765625 46.60961151123047 100.02056884765625 46.000205993652344 100.02056884765625 C 42.40376281738281 99.53544616699219 40.48554229736328 97.61722564697266 40.00041961669922 94.01992797851562 C 40.00041961669922 84.02085876464844 40.00041961669922 74.02178192138672 40.00041961669922 64.022705078125 C 40.48554229736328 60.425411224365234 42.40376281738281 58.50719451904297 46.000205993652344 58.02206802368164 C 89.99921417236328 58.021209716796875 133.9982147216797 58.020355224609375 177.99636840820312 58.01864242553711" stroke-width="0.0" fill="rgb(206, 176, 251)" opacity="1.0"/>
    <path d="M 165.99679565429688 70.01649475097656 C 167.99642944335938 70.01649475097656 169.99607849121094 70.01649475097656 171.99658203125 70.01649475097656 C 173.39024353027344 70.20335388183594 173.78794860839844 70.11506652832031 175.02474975585938 70.83589172363281 C 178.36834716796875 72.78497314453125 178.97348022460938 77.52479553222656 176.23928833007812 80.25898742675781 C 174.99903869628906 81.49922943115234 173.6610870361328 81.79236602783203 171.99658203125 82.01692962646484 C 169.99607849121094 82.01692962646484 167.99642944335938 82.01692962646484 165.99679565429688 82.01692962646484 C 164.60226440429688 81.8292236328125 164.20457458496094 81.91749572753906 162.9686279296875 81.19667053222656 C 159.62416076660156 79.24759674072266 159.0198974609375 74.50776672363281 161.75408935546875 71.77357482910156 C 162.99432373046875 70.53334045410156 164.3314208984375 70.24020385742188 165.99679565429688 70.01649475097656 C 165.99679565429688 70.01649475097656 165.99679565429688 70.01649475097656 165.99679565429688 70.01649475097656" stroke-width="0.0" fill="rgb(153, 102, 204)" opacity="1.0"/>
    <path d="M 141.9959259033203 70.01649475097656 C 143.99557495117188 70.01649475097656 145.99607849121094 70.01649475097656 147.99571228027344 70.01649475097656 C 149.38938903808594 70.20335388183594 149.78709411621094 70.11506652832031 151.02389526367188 70.83589172363281 C 154.36749267578125 72.78497314453125 154.9726104736328 77.52479553222656 152.23843383789062 80.25898742675781 C 150.99818420410156 81.49922943115234 149.6602325439453 81.79236602783203 147.99571228027344 82.01692962646484 C 145.99607849121094 82.01692962646484 143.99557495117188 82.01692962646484 141.9959259033203 82.01692962646484 C 140.33056640625 81.79236602783203 138.99346923828125 81.49922943115234 137.7532196044922 80.25898742675781 C 135.01902770996094 77.52479553222656 135.62330627441406 72.78497314453125 138.96775817871094 70.83589172363281 C 140.20372009277344 70.11506652832031 140.60140991210938 70.20335388183594 141.9959259033203 70.01649475097656 C 141.9959259033203 70.01649475097656 141.9959259033203 70.01649475097656 141.9959259033203 70.01649475097656" stroke-width="0.0" fill="rgb(153, 102, 204)" opacity="1.0"/>
    <path d="M 130.0023651123047 130.07435607910156 C 130.0023651123047 130.07435607910156 130.0023651123047 130.07435607910156 130.0023651123047 130.07435607910156 C 131.3848876953125 130.3212127685547 131.7860107421875 130.24920654296875 132.98939514160156 131.02061462402344 C 136.7606964111328 133.4385223388672 135.6421661376953 139.00119018554688 136.0038604736328 142.81105041503906 C 136.5772705078125 148.85540771484375 137.8946533203125 155.0094757080078 140.72398376464844 160.42727661132812 C 141.74737548828125 162.3874969482422 142.97303771972656 164.25257873535156 144.45669555664062 165.89822387695312 C 146.07835388183594 167.6964569091797 147.85858154296875 168.99069213867188 147.98973083496094 171.61688232421875 C 148.1602783203125 175.03932189941406 145.3789520263672 177.86265563964844 141.9916534423828 177.91836547851562 C 138.16720581054688 177.98094177246094 135.32073974609375 173.9139404296875 133.32110595703125 171.1814727783203 C 127.34445190429688 163.01490783691406 124.74398040771484 152.68927001953125 123.94943237304688 142.73133850097656 C 123.63487243652344 138.77919006347656 122.69204711914062 132.9602508544922 126.96475982666016 130.71804809570312 C 128.2332763671875 130.05206298828125 128.60269165039062 130.1729278564453 130.0023651123047 130.07435607910156 C 130.0023651123047 130.07435607910156 130.0023651123047 130.07435607910156 130.0023651123047 130.07435607910156" stroke-width="0.0" fill="rgb(153, 102, 204)" opacity="1.0"/>
    <path d="M 157.5559539794922 130.27835083007812 C 157.5559539794922 130.27835083007812 157.5559539794922 130.27835083007812 157.5559539794922 130.27835083007812 C 160.2404327392578 129.87722778320312 162.8160400390625 130.38462829589844 164.34255981445312 132.89598083496094 C 165.53482055664062 134.8587646484375 165.91708374023438 137.33839416503906 166.8727569580078 139.42974853515625 C 168.4164276123047 142.805908203125 170.50863647460938 145.9189453125 173.03282165527344 148.6376953125 C 174.7119140625 150.44534301757812 176.59498596191406 152.0704345703125 178.6417694091797 153.44781494140625 C 180.5831298828125 154.75405883789062 182.74305725097656 155.53231811523438 183.62930297851562 157.95108032226562 C 184.80783081054688 161.16867065429688 182.95562744140625 164.82769775390625 179.65402221679688 165.77651977539062 C 176.4938507080078 166.68505859375 173.55223083496094 164.5525665283203 171.1171875 162.82977294921875 C 164.08029174804688 157.85252380371094 158.5690460205078 150.82589721679688 155.27603149414062 142.8693389892578 C 153.8532257080078 139.43316650390625 151.84243774414062 135.099609375 154.87661743164062 131.90943908691406 C 155.8631591796875 130.87318420410156 156.26942443847656 130.84747314453125 157.5559539794922 130.27835083007812 C 157.5559539794922 130.27835083007812 157.5559539794922 130.27835083007812 157.5559539794922 130.27835083007812" stroke-width="0.0" fill="rgb(153, 102, 204)" opacity="1.0"/>
    <path d="M 93.9787826538086 130.06407165527344 C 93.9787826538086 130.06407165527344 93.9787826538086 130.06407165527344 93.9787826538086 130.06407165527344 C 95.3690185546875 130.19007873535156 95.74186706542969 130.0837860107422 97.00267791748047 130.7454833984375 C 101.29766845703125 132.99969482421875 100.36083984375 138.7466278076172 100.04286193847656 142.72705078125 C 99.2483139038086 152.6849822998047 96.6478271484375 163.0106201171875 90.67204284667969 171.17803955078125 C 88.67240142822266 173.9105224609375 85.8250732421875 177.97836303710938 82.00149536132812 177.91580200195312 C 78.61590576171875 177.86007690429688 75.83285522460938 175.03504943847656 76.00428009033203 171.61431884765625 C 76.12857055664062 169.12525939941406 77.73049926757812 167.8438720703125 79.29302978515625 166.15365600585938 C 81.00381469726562 164.30487060546875 82.37519836425781 162.16207885742188 83.49372863769531 159.9113006591797 C 86.1756362915039 154.51748657226562 87.49644470214844 148.4542694091797 88.04756927490234 142.4853515625 C 88.27812957763672 139.99114990234375 87.85128784179688 137.1592559814453 88.39555358886719 134.7233428955078 C 89.03495788574219 131.85714721679688 91.30888366699219 130.544921875 93.9787826538086 130.06407165527344 C 93.9787826538086 130.06407165527344 93.9787826538086 130.06407165527344 93.9787826538086 130.06407165527344" stroke-width="0.0" fill="rgb(153, 102, 204)" opacity="1.0"/>
    <path d="M 66.43719482421875 130.27493286132812 C 66.43719482421875 130.27493286132812 66.43719482421875 130.27493286132812 66.43719482421875 130.27493286132812 C 67.72372436523438 130.84405517578125 68.12998962402344 130.86976623535156 69.11653137207031 131.906005859375 C 72.15242004394531 135.09619140625 70.13992309570312 139.42974853515625 68.71797180175781 142.86590576171875 C 65.42408752441406 150.82247924804688 59.91371536254883 157.84994506835938 52.87681579589844 162.8280487060547 C 50.44004821777344 164.55084228515625 47.499298095703125 166.68077087402344 44.33826446533203 165.77310180664062 C 41.04095458984375 164.82684326171875 39.192161560058594 161.1763916015625 40.35869598388672 157.96136474609375 C 41.26294708251953 155.47059631347656 43.51972961425781 154.6940460205078 45.51508331298828 153.35096740722656 C 47.559295654296875 151.9761505126953 49.434661865234375 150.34849548339844 51.10089111328125 148.53485107421875 C 53.58393859863281 145.83322143554688 55.63072204589844 142.73904418945312 57.143524169921875 139.39544677734375 C 58.08634948730469 137.31268310546875 58.46519088745117 134.8441925048828 59.65057373046875 132.89254760742188 C 61.177955627441406 130.37948608398438 63.751861572265625 129.8712158203125 66.43719482421875 130.27493286132812 C 66.43719482421875 130.27493286132812 66.43719482421875 130.27493286132812 66.43719482421875 130.27493286132812" stroke-width="0.0" fill="rgb(153, 102, 204)" opacity="1.0"/>
  </g>
</svg>
