<?xml version="1.0" ?>
<svg xmlns="http://www.w3.org/2000/svg" version="1.1" width="224" height="224">
  <defs/>
  <g>
    <path d="M 90.9787826538086 191.10513305664062 C 86.8881607055664 189.935791015625 81.93107604980469 188.432861328125 79.93372344970703 187.31463623046875 C 78.03311157226562 186.66229248046875 76.1277847290039 185.96975708007812 75.57424926757812 185.97425842285156 C 75.16085815429688 185.91238403320312 71.33151245117188 183.44358825683594 67.02976989746094 180.72808837890625 C 44.420135498046875 166.32032775878906 31.242050170898438 143.83094787597656 29.69733428955078 117.41929626464844 C 28.0 89.8370361328125 38.658851623535156 63.90217971801758 58.44062805175781 47.87193298339844 C 65.3741226196289 42.15797424316406 79.6771240234375 35.047157287597656 89.19280242919922 32.121238708496094 C 94.46329498291016 30.66895294189453 99.36454772949219 30.306800842285156 111.15510559082031 29.877098083496094 C 128.60462951660156 30.19396209716797 135.5453643798828 31.83464813232422 149.3442840576172 39.153846740722656 C 179.3406524658203 54.661468505859375 196.0 88.02767181396484 191.30587768554688 122.95454406738281 C 188.91583251953125 142.41822814941406 181.6053009033203 156.84422302246094 168.5041046142578 169.8897247314453 C 159.09365844726562 179.2626953125 149.1669464111328 185.26791381835938 136.8917694091797 189.46954345703125 C 125.57398223876953 193.2321014404297 103.29693603515625 194.12290954589844 90.9787826538086 191.10513305664062" stroke-width="1.0" fill="rgb(253, 254, 252)" opacity="0.9953561"/>
    <path d="M 68.59745788574219 138.60073852539062 C 67.59064483642578 137.75511169433594 67.52656555175781 134.15646362304688 67.89122772216797 126.46549987792969 C 68.09007263183594 118.01227569580078 68.65458679199219 115.16773986816406 71.00003051757812 110.18148040771484 C 73.90951538085938 103.68390655517578 80.31639099121094 96.1015396118164 85.66320037841797 92.82804107666016 C 88.97469329833984 90.99981689453125 89.08842468261719 90.34624481201172 88.99381256103516 85.93807983398438 C 89.2981185913086 77.10747528076172 94.89337158203125 68.83026123046875 103.25601959228516 65.91931915283203 C 105.30889892578125 65.50509643554688 109.66976928710938 65.28675079345703 112.96783447265625 65.13446044921875 C 124.02371215820312 66.20825958251953 132.38894653320312 75.1181640625 132.55267333984375 85.83183288574219 C 132.3028564453125 90.2724609375 132.63333129882812 90.8507080078125 135.93109130859375 92.79640197753906 C 141.257080078125 96.0941390991211 147.71783447265625 103.61803436279297 150.7129364013672 110.09858703613281 C 152.9310760498047 115.15660095214844 153.39434814453125 118.04736328125 153.6828155517578 126.57154083251953 C 154.2742156982422 136.29600524902344 154.00958251953125 137.68588256835938 152.3029022216797 138.81790161132812 C 150.87045288085938 140.12130737304688 142.02227783203125 140.2731170654297 110.17400360107422 140.1741180419922 C 75.87890625 140.33348083496094 69.67674255371094 140.28103637695312 68.59745788574219 138.60073852539062" stroke-width="1.0" fill="rgb(136, 104, 209)" opacity="0.99160284"/>
    <path d="M 78.27802276611328 124.8370132446289 C 78.26655578613281 114.43350219726562 84.23779296875 104.83118438720703 93.61375427246094 99.99032592773438 C 98.50471496582031 97.47529602050781 100.01718139648438 97.18887329101562 109.84973907470703 97.24007415771484 C 123.56831359863281 97.197021484375 127.41173553466797 98.24845123291016 133.3466339111328 103.94535827636719 C 138.93661499023438 109.04651641845703 142.40245056152344 116.14564514160156 143.19920349121094 124.06319427490234 L 143.7593994140625 129.60137939453125 L 78.309814453125 129.94314575195312 L 78.27802276611328 124.8370132446289" stroke-width="1.0" fill="rgb(164, 153, 235)" opacity="0.98967093"/>
    <path d="M 99.54957580566406 85.9880599975586 C 98.79447174072266 83.98604583740234 101.78700256347656 78.29525756835938 104.19151306152344 76.93545532226562 C 105.43321990966797 76.36146545410156 108.51597595214844 75.81951141357422 110.63143920898438 75.6444091796875 C 116.13782501220703 75.77215576171875 118.71160888671875 77.13613891601562 120.84896087646484 81.28945922851562 C 123.70236206054688 87.07682800292969 123.2698745727539 87.32842254638672 111.209228515625 87.06194305419922 C 102.51472473144531 87.237548828125 100.06512451171875 87.01339721679688 99.54957580566406 85.9880599975586" stroke-width="1.0" fill="rgb(253, 254, 252)" opacity="0.99766123"/>
  </g>
</svg>
