<?xml version="1.0" ?>
<svg xmlns="http://www.w3.org/2000/svg" version="1.1" width="224" height="224">
  <defs/>
  <g>
    <path d="M 125.44708251953125 183.44729614257812 C 124.05762481689453 182.62158203125 123.17929077148438 180.76609802246094 123.17304992675781 179.08102416992188 C 122.81786346435547 176.42840576171875 127.05197143554688 173.28976440429688 130.984375 173.71441650390625 C 138.47378540039062 173.8101348876953 156.74365234375 168.11373901367188 156.6737518310547 166.06277465820312 C 156.2787628173828 164.9811248779297 152.61009216308594 155.41351318359375 152.033203125 153.80865478515625 C 151.83535766601562 153.451416015625 148.85150146484375 154.5971221923828 145.41812133789062 156.36624145507812 C 123.82817077636719 166.1822967529297 98.43180084228516 167.10629272460938 74.72856140136719 157.21701049804688 C 69.83731079101562 155.10202026367188 65.95570373535156 153.3635711669922 66.67976379394531 153.46426391601562 C 66.47136688232422 154.10443115234375 65.13016510009766 157.03167724609375 63.755741119384766 160.1151123046875 C 61.424842834472656 165.9170684814453 61.10961151123047 166.56939697265625 63.045921325683594 166.89047241210938 C 65.43663024902344 168.50738525390625 77.97754669189453 172.4652099609375 84.4056625366211 173.21348571777344 C 92.53660583496094 173.49435424804688 95.13582611083984 175.09619140625 95.39466857910156 179.58468627929688 C 94.81096649169922 184.193359375 92.2913589477539 185.40338134765625 83.24639892578125 184.55218505859375 C 69.60211944580078 183.5006561279297 51.72503662109375 175.68557739257812 41.60393524169922 166.11282348632812 C 39.010498046875 163.96263122558594 35.78984069824219 159.65647888183594 34.320640563964844 156.1720428466797 C 28.00000762939453 142.18869018554688 30.378341674804688 127.9329833984375 42.754638671875 111.59172821044922 L 47.584651947021484 105.71077728271484 L 44.00853729248047 103.07556915283203 C 38.694610595703125 98.26215362548828 34.394248962402344 91.47547912597656 32.249351501464844 84.97315216064453 C 29.158653259277344 73.67147064208984 30.57129669189453 68.53836822509766 37.78239440917969 67.1208724975586 C 41.61510467529297 67.47206115722656 41.496681213378906 67.18484497070312 44.83513641357422 58.14207458496094 C 50.120121002197266 44.07594299316406 56.08180236816406 40.047691345214844 69.12672424316406 40.533233642578125 C 72.81989288330078 41.21762466430664 78.84522247314453 40.19508361816406 81.84281158447266 38.91271209716797 C 91.7751235961914 38.59661102294922 94.32445526123047 39.77107238769531 95.24942016601562 44.42854690551758 C 95.2651138305664 48.83710861206055 92.37562561035156 50.66657257080078 85.1993637084961 50.648414611816406 L 80.05670928955078 50.73542785644531 L 76.10953521728516 57.670536041259766 C 73.40472412109375 61.600555419921875 71.12535095214844 65.72700500488281 71.29483032226562 65.5670166015625 C 70.79620361328125 66.44882202148438 72.87322998046875 69.01042175292969 75.34367370605469 71.24026489257812 L 79.25460815429688 75.49877166748047 L 83.50720977783203 73.17906188964844 C 86.17935180664062 72.02198028564453 91.59280395507812 70.05038452148438 95.66414642333984 68.94717407226562 C 108.75170135498047 65.15190887451172 119.50922393798828 66.4200668334961 137.0507049560547 74.13392639160156 C 139.39938354492188 75.60662841796875 139.68833923339844 75.21321105957031 142.7349395751953 71.6622314453125 C 144.96682739257812 70.09553527832031 146.27783203125 67.93084716796875 147.25148010253906 66.69204711914062 C 147.45657348632812 65.87237548828125 145.35507202148438 63.06753158569336 142.67298889160156 58.14353942871094 L 138.07273864746094 50.79544448852539 L 132.50146484375 50.69350814819336 C 127.16021728515625 50.51253890991211 124.91384887695312 49.69803237915039 123.80360412597656 48.08381652832031 C 122.41519927978516 44.87593460083008 122.3780288696289 42.914024353027344 124.8376693725586 40.96404266357422 C 127.12104797363281 39.15764617919922 128.59475708007812 38.99498748779297 135.6255645751953 39.07701110839844 C 138.54322814941406 39.95408248901367 145.59080505371094 41.18134307861328 150.90396118164062 40.4957389831543 C 158.92098999023438 40.46931076049805 163.86338806152344 42.712425231933594 167.44090270996094 46.83148193359375 C 168.5934295654297 47.7152214050293 171.20956420898438 52.5461311340332 173.28207397460938 57.8895263671875 C 176.89102172851562 67.22777557373047 176.656494140625 67.42327880859375 180.2955780029297 66.97125244140625 C 182.96212768554688 67.13065338134766 184.55099487304688 68.16445922851562 186.25668334960938 69.97515869140625 C 190.44058227539062 75.86551666259766 186.2874755859375 90.25395202636719 176.94300842285156 100.48827362060547 L 170.64102172851562 105.68230438232422 L 176.0751953125 111.83311462402344 C 196.0 137.47793579101562 190.17337036132812 162.48947143554688 160.45989990234375 176.86672973632812 C 152.62698364257812 181.11622619628906 142.59385681152344 183.95538330078125 133.4523468017578 184.5614013671875 C 129.05084228515625 185.1549072265625 128.40325927734375 184.77825927734375 125.44708251953125 183.44729614257812" stroke-width="1.0" fill="rgb(109, 12, 191)" opacity="0.9953575"/>
    <path d="M 95.59083557128906 152.0643310546875 C 82.53019714355469 149.44705200195312 65.120361328125 141.24691772460938 52.8736572265625 132.24456787109375 C 49.36843490600586 130.2271728515625 47.033592224121094 127.50614929199219 46.26662826538086 126.12017822265625 C 46.05904006958008 123.9613037109375 58.565582275390625 108.431884765625 69.75267028808594 97.25144958496094 C 80.60819244384766 86.60246276855469 88.3204345703125 81.83501434326172 99.35951232910156 79.16521453857422 C 106.76537322998047 77.30634307861328 111.15444946289062 77.4144287109375 120.0119857788086 79.68383026123047 C 131.88534545898438 82.70441436767578 137.6241912841797 86.17957305908203 149.3274383544922 97.98063659667969 C 160.64683532714844 109.61158752441406 173.5224609375 125.67638397216797 172.6204833984375 127.19296264648438 C 171.4605255126953 129.32864379882812 153.56472778320312 140.66091918945312 145.7456817626953 144.29090881347656 C 129.81019592285156 151.9091796875 109.7869644165039 155.10830688476562 95.59083557128906 152.0643310546875" stroke-width="1.0" fill="rgb(156, 90, 254)" opacity="0.9953856"/>
    <path d="M 47.67659378051758 155.7008056640625 C 44.04661560058594 151.43426513671875 42.02782440185547 145.8221435546875 41.906471252441406 140.59373474121094 L 41.84429168701172 137.73097229003906 L 48.715248107910156 142.6201171875 C 52.846107482910156 145.23007202148438 56.11259460449219 147.94932556152344 56.20518112182617 148.35255432128906 C 55.9123649597168 150.32391357421875 52.39287185668945 159.3499298095703 51.90442657470703 159.58851623535156 C 51.49961853027344 159.44744873046875 49.60438919067383 157.9794921875 47.67659378051758 155.7008056640625" stroke-width="1.0" fill="rgb(233, 239, 241)" opacity="0.9861388"/>
    <path d="M 164.11793518066406 154.2840118408203 L 162.03392028808594 148.21243286132812 L 164.0875244140625 146.72494506835938 C 165.3269805908203 145.98143005371094 168.19285583496094 143.56155395507812 170.76846313476562 141.53121948242188 C 173.32723999023438 139.239013671875 175.8092498779297 137.46263122558594 176.2713623046875 137.46481323242188 C 177.52105712890625 137.97613525390625 176.09669494628906 147.50482177734375 174.36038208007812 150.88430786132812 C 172.73756408691406 154.32167053222656 168.23480224609375 159.7144317626953 166.86459350585938 160.0258331298828 C 166.19183349609375 159.99256896972656 164.91282653808594 157.13565063476562 164.11793518066406 154.2840118408203" stroke-width="1.0" fill="rgb(231, 238, 242)" opacity="0.9823016"/>
    <path d="M 49.934104919433594 92.42160034179688 C 45.866336822509766 87.50716400146484 41.391761779785156 80.18560791015625 43.128814697265625 80.14299011230469 C 42.93731689453125 80.232421875 46.59941864013672 82.94283294677734 50.885101318359375 86.31971740722656 C 54.856971740722656 89.73565673828125 58.36860656738281 92.64974975585938 58.55940246582031 92.75984191894531 C 58.934967041015625 93.03681945800781 58.083457946777344 93.9203109741211 56.86599349975586 95.30801391601562 C 54.90764617919922 97.41307830810547 54.78441619873047 97.25507354736328 49.934104919433594 92.42160034179688" stroke-width="1.0" fill="rgb(230, 239, 246)" opacity="0.9835327"/>
    <path d="M 161.77162170410156 95.38858032226562 C 160.21945190429688 93.98141479492188 159.68438720703125 92.7444839477539 160.24594116210938 92.22154235839844 C 165.62661743164062 87.72900390625 176.44552612304688 79.38298797607422 175.72210693359375 80.17127990722656 C 176.0411376953125 81.45901489257812 170.07579040527344 90.93841552734375 166.7938690185547 94.44235229492188 L 163.5771942138672 97.33466339111328 L 161.77162170410156 95.38858032226562" stroke-width="1.0" fill="rgb(229, 237, 243)" opacity="0.9772305"/>
    <path d="M 59.35239028930664 79.13629150390625 C 55.551509857177734 76.08941650390625 52.16577911376953 73.30459594726562 51.4017333984375 72.53289794921875 C 51.09158706665039 71.58602905273438 54.36878967285156 63.25619888305664 58.07476806640625 55.06928634643555 C 59.504398345947266 52.904422760009766 64.85953521728516 49.94544219970703 66.05561828613281 51.22654342651367 C 66.60203552246094 51.65229034423828 65.30078125 54.574012756347656 63.434776306152344 57.942726135253906 C 60.929683685302734 60.46380615234375 59.55322265625 64.17724609375 58.853885650634766 65.24517822265625 C 57.96992492675781 68.03228759765625 59.98680114746094 71.12338256835938 65.48301696777344 76.96942901611328 C 72.42742919921875 85.88790893554688 69.38768005371094 87.21168518066406 59.35239028930664 79.13629150390625" stroke-width="1.0" fill="rgb(231, 241, 244)" opacity="0.98942786"/>
    <path d="M 149.10537719726562 83.3249282836914 C 148.3666534423828 82.8490219116211 150.4218292236328 79.39790344238281 153.52877807617188 75.97355651855469 C 160.9580078125 68.28547668457031 161.1609649658203 66.25713348388672 154.7886962890625 57.71616744995117 C 151.30210876464844 51.31581115722656 150.83779907226562 49.80448913574219 156.05157470703125 52.216697692871094 C 158.42918395996094 52.61333084106445 159.8536376953125 54.989288330078125 162.7087860107422 61.89559555053711 C 164.7283172607422 67.12848663330078 166.32420349121094 71.52632904052734 166.84814453125 72.39497375488281 C 166.70826721191406 73.33096313476562 153.9292755126953 83.43429565429688 151.39382934570312 84.34129333496094 C 150.60430908203125 84.17262268066406 149.76943969726562 84.00765228271484 149.10537719726562 83.3249282836914" stroke-width="1.0" fill="rgb(232, 240, 244)" opacity="0.98820674"/>
  </g>
</svg>
