<?xml version="1.0" ?>
<svg xmlns="http://www.w3.org/2000/svg" version="1.1" width="224" height="224">
  <defs/>
  <g>
    <path d="M 120.22582244873047 37.444091796875 C 120.22582244873047 37.444091796875 120.22582244873047 37.444091796875 120.22582244873047 37.444091796875 C 115.7346420288086 38.96661376953125 112.92218017578125 42.89049530029297 109.71064758300781 46.156105041503906 C 104.21016693115234 51.74755096435547 98.70025634765625 57.374183654785156 93.01697540283203 62.780242919921875 C 89.8346176147461 65.8072738647461 85.26533508300781 69.12437438964844 83.43470764160156 73.21990203857422 C 82.79617309570312 74.64801788330078 82.59105682373047 76.16625213623047 82.3747787475586 77.69735717773438 C 82.3747787475586 77.69735717773438 82.3747787475586 77.69735717773438 82.3747787475586 77.69735717773438 C 80.94322967529297 77.22360229492188 80.58963775634766 76.99702453613281 79.09114074707031 76.91807556152344 C 72.27842712402344 76.559326171875 67.18217468261719 83.34544372558594 62.99224090576172 87.7362060546875 C 61.49289321899414 89.30764770507812 59.934326171875 90.82501983642578 58.398929595947266 92.36127471923828 C 54.45616912841797 96.30318450927734 50.513404846191406 100.2459487915039 46.570640563964844 104.18870544433594 C 44.00450134277344 106.75485229492188 40.87792205810547 109.2772216796875 39.25669860839844 112.59690856933594 C 38.11351776123047 114.93818664550781 38.216514587402344 117.37044525146484 38.216514587402344 119.90226745605469 C 38.216514587402344 123.62273406982422 38.216514587402344 127.34235382080078 38.216514587402344 131.06198120117188 C 38.216514587402344 145.515625 38.216514587402344 159.9692840576172 38.216514587402344 174.42294311523438 C 38.216514587402344 174.42294311523438 38.216514587402344 174.42294311523438 38.216514587402344 174.42294311523438 C 38.216514587402344 174.5233612060547 38.216514587402344 174.62376403808594 38.216514587402344 174.72418212890625 C 38.216514587402344 174.72418212890625 38.216514587402344 174.72418212890625 38.216514587402344 174.72418212890625 C 36.026275634765625 174.72418212890625 33.63178253173828 174.42723083496094 31.72906494140625 175.771240234375 C 28.0 178.40347290039062 28.79730987548828 185.1140594482422 33.27819061279297 186.4606475830078 C 34.94403076171875 186.96099853515625 36.87078857421875 186.74041748046875 38.582984924316406 186.74041748046875 C 40.82212829589844 186.74041748046875 43.06129455566406 186.74041748046875 45.30130386352539 186.74041748046875 C 53.10786819458008 186.74041748046875 60.91443634033203 186.74041748046875 68.72186279296875 186.74041748046875 C 94.57811737060547 186.74041748046875 120.43523406982422 186.74041748046875 146.29148864746094 186.74041748046875 C 156.2522430419922 186.74041748046875 166.2130126953125 186.74041748046875 176.17376708984375 186.74041748046875 C 179.39474487304688 186.74041748046875 182.6148681640625 186.74041748046875 185.83584594726562 186.74041748046875 C 187.48968505859375 186.74041748046875 189.33920288085938 186.94384765625 190.94839477539062 186.4606475830078 C 194.8636932373047 185.28485107421875 196.0 180.01351928710938 193.66217041015625 176.9178466796875 C 191.9070587158203 174.59458923339844 189.21731567382812 174.72418212890625 186.6116943359375 174.72418212890625 C 186.6116943359375 174.72418212890625 186.6116943359375 174.72418212890625 186.6116943359375 174.72418212890625 C 186.6116943359375 160.03280639648438 186.45721435546875 145.33111572265625 186.7112579345703 130.64144897460938 C 186.82882690429688 123.8390121459961 187.21160888671875 116.05990600585938 181.0605926513672 111.57044982910156 C 175.95834350585938 107.84567260742188 168.5242462158203 109.23516845703125 162.58006286621094 109.23516845703125 C 162.58006286621094 109.23516845703125 162.58006286621094 109.23516845703125 162.58006286621094 109.23516845703125 C 162.58006286621094 101.91351318359375 162.58006286621094 94.59184265136719 162.58006286621094 87.27018737792969 C 162.58006286621094 82.69747924804688 163.11216735839844 77.621826171875 161.28927612304688 73.30143737792969 C 159.82167053222656 69.82384490966797 156.7534637451172 67.19761657714844 154.11866760253906 64.6014404296875 C 149.37686157226562 59.930023193359375 144.64453125 55.25260925292969 139.93792724609375 50.54601287841797 C 137.58119201660156 48.18841552734375 135.2047119140625 45.848854064941406 132.87889099121094 43.460365295410156 C 130.32476806640625 40.83757781982422 127.55863952636719 37.74962615966797 123.71028137207031 37.240684509277344 C 122.18090057373047 37.03900146484375 121.76636505126953 37.214935302734375 120.22582244873047 37.444091796875 C 120.22582244873047 37.444091796875 120.22582244873047 37.444091796875 120.22582244873047 37.444091796875" stroke-width="0.0" fill="rgb(0, 0, 0)" opacity="1.0"/>
    <path d="M 122.63062286376953 50.36406707763672 C 122.63062286376953 50.36406707763672 122.63062286376953 50.36406707763672 122.63062286376953 50.36406707763672 C 132.40599060058594 59.020294189453125 141.3231201171875 68.78450775146484 150.5706787109375 78.00546264648438 C 150.5706787109375 78.00546264648438 150.5706787109375 78.00546264648438 150.5706787109375 78.00546264648438 C 150.7938232421875 81.26592254638672 150.5706787109375 84.606201171875 150.5706787109375 87.88297271728516 C 150.5706787109375 95.00379943847656 150.5706787109375 102.1246337890625 150.5706787109375 109.24546813964844 C 150.5706787109375 109.24546813964844 150.5706787109375 109.24546813964844 150.5706787109375 109.24546813964844 C 144.08238220214844 109.24546813964844 137.59405517578125 109.24546813964844 131.1057586669922 109.24546813964844 C 126.06873321533203 109.24546813964844 120.95361328125 108.93907928466797 116.02645111083984 110.14662170410156 C 116.02645111083984 110.14662170410156 116.02645111083984 110.14662170410156 116.02645111083984 110.14662170410156 C 114.1082763671875 107.26293182373047 111.1748046875 104.84440612792969 108.71937561035156 102.41043090820312 C 104.04624938964844 97.78022003173828 99.35337829589844 93.17231750488281 94.70170593261719 88.52064514160156 C 94.70170593261719 88.52064514160156 94.70170593261719 88.52064514160156 94.70170593261719 88.52064514160156 C 94.70170593261719 85.4163818359375 94.70170593261719 82.31211853027344 94.70170593261719 79.2078628540039 C 94.70170593261719 79.2078628540039 94.70170593261719 79.2078628540039 94.70170593261719 79.2078628540039 C 94.70170593261719 79.1082992553711 94.70170593261719 79.00788879394531 94.70170593261719 78.90747833251953 C 94.70170593261719 78.90747833251953 94.70170593261719 78.90747833251953 94.70170593261719 78.90747833251953 C 97.08419036865234 75.33890533447266 100.53089141845703 72.46465301513672 103.55619049072266 69.43934631347656 C 109.88658905029297 63.10895538330078 116.63322448730469 56.99998474121094 122.63062286376953 50.36406707763672 C 122.63062286376953 50.36406707763672 122.63062286376953 50.36406707763672 122.63062286376953 50.36406707763672" stroke-width="0.0" fill="rgb(254, 254, 254)" opacity="1.0"/>
    <path d="M 78.47406768798828 89.11026000976562 C 78.47406768798828 89.11026000976562 78.47406768798828 89.11026000976562 78.47406768798828 89.11026000976562 C 78.77445220947266 89.31022644042969 79.07484436035156 89.51019287109375 79.3752212524414 89.71016693115234 C 79.3752212524414 89.71016693115234 79.3752212524414 89.71016693115234 79.3752212524414 89.71016693115234 C 88.38676452636719 98.72171020507812 97.39830780029297 107.73324584960938 106.40984344482422 116.74478912353516 C 106.40984344482422 116.74478912353516 106.40984344482422 116.74478912353516 106.40984344482422 116.74478912353516 C 106.40984344482422 135.9196319580078 106.40984344482422 155.19918823242188 106.40984344482422 174.4195098876953 C 106.40984344482422 174.4195098876953 106.40984344482422 174.4195098876953 106.40984344482422 174.4195098876953 C 106.40984344482422 174.51991271972656 106.40984344482422 174.62033081054688 106.40984344482422 174.7207489013672 C 106.40984344482422 174.7207489013672 106.40984344482422 174.7207489013672 106.40984344482422 174.7207489013672 C 87.68557739257812 174.72418212890625 68.96045684814453 174.72418212890625 50.2361946105957 174.72418212890625 C 50.2361946105957 174.72418212890625 50.2361946105957 174.72418212890625 50.2361946105957 174.72418212890625 C 50.2361946105957 174.62376403808594 50.2361946105957 174.5233612060547 50.2361946105957 174.42294311523438 C 50.2361946105957 174.42294311523438 50.2361946105957 174.42294311523438 50.2361946105957 174.42294311523438 C 50.2361946105957 155.4987030029297 50.2361946105957 136.5736083984375 50.2361946105957 117.64937591552734 C 50.2361946105957 117.64937591552734 50.2361946105957 117.64937591552734 50.2361946105957 117.64937591552734 C 50.2361946105957 117.54895782470703 50.2361946105957 117.44769287109375 50.2361946105957 117.34727478027344 C 50.2361946105957 117.34727478027344 50.2361946105957 117.34727478027344 50.2361946105957 117.34727478027344 C 53.39966583251953 114.53910827636719 56.25590133666992 111.32842254638672 59.248592376708984 108.33573150634766 C 65.6570816040039 101.92724609375 72.06643676757812 95.51960754394531 78.47406768798828 89.11026000976562 C 78.47406768798828 89.11026000976562 78.47406768798828 89.11026000976562 78.47406768798828 89.11026000976562" stroke-width="0.0" fill="rgb(254, 254, 254)" opacity="1.0"/>
    <path d="M 123.23052978515625 120.95275115966797 C 123.23052978515625 120.95275115966797 123.23052978515625 120.95275115966797 123.23052978515625 120.95275115966797 C 135.65443420410156 120.95275115966797 148.07920837402344 120.95275115966797 160.50311279296875 120.95275115966797 C 163.19113159179688 120.95275115966797 165.83108520507812 120.89696502685547 168.51136779785156 120.73046112060547 C 170.00985717773438 120.63691711425781 172.20782470703125 120.34768676757812 173.56813049316406 121.23167419433594 C 174.73963928222656 121.9929428100586 174.4298095703125 123.54978942871094 174.36459350585938 124.6938247680664 C 174.1783447265625 127.94142150878906 174.29763793945312 131.22076416015625 174.29763793945312 134.47349548339844 C 174.29763793945312 147.890380859375 174.29763793945312 161.3072967529297 174.29763793945312 174.72418212890625 C 174.29763793945312 174.72418212890625 174.29763793945312 174.72418212890625 174.29763793945312 174.72418212890625 C 155.67379760742188 174.72418212890625 137.04994201660156 174.72418212890625 118.42609405517578 174.72418212890625 C 118.42609405517578 174.72418212890625 118.42609405517578 174.72418212890625 118.42609405517578 174.72418212890625 C 118.42609405517578 174.62376403808594 118.42609405517578 174.5233612060547 118.42609405517578 174.42294311523438 C 118.42609405517578 174.42294311523438 118.42609405517578 174.42294311523438 118.42609405517578 174.42294311523438 C 118.42609405517578 160.91763305664062 118.42609405517578 147.412353515625 118.42609405517578 133.90704345703125 C 118.42609405517578 130.97787475585938 118.42609405517578 128.04954528808594 118.42609405517578 125.12123107910156 C 118.42609405517578 123.89566040039062 117.92059326171875 122.0504379272461 119.13414001464844 121.20764923095703 C 120.15973663330078 120.49530029296875 122.10452270507812 120.90554809570312 123.23052978515625 120.95275115966797 C 123.23052978515625 120.95275115966797 123.23052978515625 120.95275115966797 123.23052978515625 120.95275115966797" stroke-width="0.0" fill="rgb(254, 254, 254)" opacity="1.0"/>
    <path d="M 132.5458984375 75.89762115478516 C 132.5458984375 75.89762115478516 132.5458984375 75.89762115478516 132.5458984375 75.89762115478516 C 129.92910766601562 76.0615463256836 127.55262756347656 77.66645812988281 126.763916015625 80.29353332519531 C 126.33135986328125 81.73367309570312 126.53819274902344 83.43040466308594 126.53819274902344 84.90916442871094 C 126.53819274902344 86.58445739746094 126.45751190185547 87.85722351074219 127.13809967041016 89.41493225097656 C 127.13809967041016 89.41493225097656 127.13809967041016 89.41493225097656 127.13809967041016 89.41493225097656 C 128.27957153320312 94.02455139160156 135.2433319091797 93.44438171386719 138.8496856689453 92.71916198730469 C 138.8496856689453 92.71916198730469 138.8496856689453 92.71916198730469 138.8496856689453 92.71916198730469 C 140.7635498046875 92.71916198730469 142.27749633789062 90.96492004394531 143.05764770507812 89.41493225097656 C 143.05764770507812 89.41493225097656 143.05764770507812 89.41493225097656 143.05764770507812 89.41493225097656 C 144.48146057128906 85.15290832519531 144.6059112548828 77.7273941040039 139.26593017578125 76.12419128417969 C 137.22073364257812 75.50969696044922 134.65802001953125 75.89762115478516 132.5458984375 75.89762115478516 C 132.5458984375 75.89762115478516 132.5458984375 75.89762115478516 132.5458984375 75.89762115478516" stroke-width="0.0" fill="rgb(0, 0, 0)" opacity="1.0"/>
    <path d="M 107.61567687988281 75.89762115478516 C 107.61567687988281 75.89762115478516 107.61567687988281 75.89762115478516 107.61567687988281 75.89762115478516 C 104.9989013671875 76.0615463256836 102.62242126464844 77.66645812988281 101.83370208740234 80.29353332519531 C 101.4011459350586 81.73367309570312 101.60712432861328 83.43040466308594 101.60712432861328 84.90916442871094 C 101.60712432861328 86.58445739746094 101.52644348144531 87.85722351074219 102.20789337158203 89.41493225097656 C 102.20789337158203 89.41493225097656 102.20789337158203 89.41493225097656 102.20789337158203 89.41493225097656 C 102.35722351074219 90.81730651855469 103.0781478881836 91.37001037597656 104.30886840820312 92.11924743652344 C 106.85956573486328 93.67095184326172 111.07266998291016 93.29161071777344 113.9186019897461 92.71916198730469 C 113.9186019897461 92.71916198730469 113.9186019897461 92.71916198730469 113.9186019897461 92.71916198730469 C 115.83248138427734 92.71916198730469 117.3489990234375 90.96577453613281 118.12742614746094 89.41493225097656 C 118.12742614746094 89.41493225097656 118.12742614746094 89.41493225097656 118.12742614746094 89.41493225097656 C 119.55382537841797 85.15461730957031 119.6731185913086 77.72653198242188 114.33570861816406 76.12419128417969 C 112.29051971435547 75.50969696044922 109.7278060913086 75.89762115478516 107.61567687988281 75.89762115478516 C 107.61567687988281 75.89762115478516 107.61567687988281 75.89762115478516 107.61567687988281 75.89762115478516" stroke-width="0.0" fill="rgb(0, 0, 0)" opacity="1.0"/>
    <path d="M 64.05474853515625 112.54283142089844 C 64.05474853515625 112.54283142089844 64.05474853515625 112.54283142089844 64.05474853515625 112.54283142089844 C 61.437965393066406 112.70590209960938 59.061492919921875 114.3099594116211 58.272769927978516 116.93789672851562 C 57.840213775634766 118.37802124023438 58.04705047607422 120.07476806640625 58.04705047607422 121.55438232421875 C 58.04705047607422 123.55150604248047 57.96723556518555 125.32377624511719 59.13530349731445 127.07373809814453 C 61.43968200683594 130.52471923828125 67.11781311035156 130.07672119140625 70.662353515625 129.363525390625 C 70.662353515625 129.363525390625 70.662353515625 129.363525390625 70.662353515625 129.363525390625 C 72.57708740234375 129.363525390625 74.09188842773438 127.61013793945312 74.87202453613281 126.06015014648438 C 74.87202453613281 126.06015014648438 74.87202453613281 126.06015014648438 74.87202453613281 126.06015014648438 C 76.36795043945312 121.58097839355469 76.29327392578125 114.42581939697266 70.7747802734375 112.7685546875 C 68.73045349121094 112.15491485595703 66.16688537597656 112.54283142089844 64.05474853515625 112.54283142089844 C 64.05474853515625 112.54283142089844 64.05474853515625 112.54283142089844 64.05474853515625 112.54283142089844" stroke-width="0.0" fill="rgb(0, 0, 0)" opacity="1.0"/>
    <path d="M 88.38504791259766 112.54283142089844 C 88.38504791259766 112.54283142089844 88.38504791259766 112.54283142089844 88.38504791259766 112.54283142089844 C 85.76911926269531 112.70590209960938 83.39179992675781 114.31082153320312 82.60307312011719 116.93789672851562 C 82.17137145996094 118.37802124023438 82.37821197509766 120.07476806640625 82.37821197509766 121.55438232421875 C 82.37821197509766 123.55064392089844 82.29839324951172 125.32377624511719 83.46560668945312 127.07373809814453 C 85.76911926269531 130.52471923828125 91.448974609375 130.07672119140625 94.9935073852539 129.363525390625 C 94.9935073852539 129.363525390625 94.9935073852539 129.363525390625 94.9935073852539 129.363525390625 C 96.90739440917969 129.363525390625 98.42218780517578 127.6092758178711 99.20233154296875 126.06015014648438 C 99.20233154296875 126.06015014648438 99.20233154296875 126.06015014648438 99.20233154296875 126.06015014648438 C 100.69824981689453 121.58097839355469 100.62443542480469 114.42581939697266 95.1050796508789 112.7685546875 C 93.06074523925781 112.154052734375 90.49717712402344 112.54283142089844 88.38504791259766 112.54283142089844 C 88.38504791259766 112.54283142089844 88.38504791259766 112.54283142089844 88.38504791259766 112.54283142089844" stroke-width="0.0" fill="rgb(0, 0, 0)" opacity="1.0"/>
    <path d="M 88.38504791259766 133.56976318359375 C 88.38504791259766 133.56976318359375 88.38504791259766 133.56976318359375 88.38504791259766 133.56976318359375 C 85.76911926269531 133.7328338623047 83.39179992675781 135.33688354492188 82.60307312011719 137.96395874023438 C 82.17137145996094 139.40408325195312 82.37821197509766 141.100830078125 82.37821197509766 142.5804443359375 C 82.37821197509766 144.57672119140625 82.29839324951172 146.3489990234375 83.46560668945312 148.09979248046875 C 85.76826477050781 151.55165100097656 91.4498291015625 151.10107421875 94.9935073852539 150.3904571533203 C 94.9935073852539 150.3904571533203 94.9935073852539 150.3904571533203 94.9935073852539 150.3904571533203 C 96.90739440917969 150.3904571533203 98.42304992675781 148.63619995117188 99.20233154296875 147.08621215820312 C 99.20233154296875 147.08621215820312 99.20233154296875 147.08621215820312 99.20233154296875 147.08621215820312 C 100.69480895996094 142.62078857421875 100.61328125 135.4475860595703 95.1050796508789 133.7954864501953 C 93.05989074707031 133.1818389892578 90.49717712402344 133.56976318359375 88.38504791259766 133.56976318359375 C 88.38504791259766 133.56976318359375 88.38504791259766 133.56976318359375 88.38504791259766 133.56976318359375" stroke-width="0.0" fill="rgb(0, 0, 0)" opacity="1.0"/>
    <path d="M 88.08380126953125 154.89707946777344 C 88.08380126953125 154.89707946777344 88.08380126953125 154.89707946777344 88.08380126953125 154.89707946777344 C 85.46702575683594 155.06100463867188 83.0905532836914 156.66505432128906 82.30182647705078 159.29212951660156 C 81.86927032470703 160.73226928710938 82.07611083984375 162.42901611328125 82.07611083984375 163.9086151123047 C 82.07611083984375 165.90576171875 81.99543762207031 167.67800903320312 83.16436004638672 169.427978515625 C 85.46874237060547 172.87896728515625 91.14686584472656 172.43096923828125 94.69140625 171.7186279296875 C 94.69140625 171.7186279296875 94.69140625 171.7186279296875 94.69140625 171.7186279296875 C 96.60528564453125 171.7186279296875 98.1218032836914 169.96524047851562 98.90023040771484 168.4143829345703 C 98.90023040771484 168.4143829345703 98.90023040771484 168.4143829345703 98.90023040771484 168.4143829345703 C 100.3961410522461 163.94894409179688 100.30946350097656 156.77662658691406 94.8038330078125 155.12278747558594 C 92.75865173339844 154.5091552734375 90.19508361816406 154.89707946777344 88.08380126953125 154.89707946777344 C 88.08380126953125 154.89707946777344 88.08380126953125 154.89707946777344 88.08380126953125 154.89707946777344" stroke-width="0.0" fill="rgb(0, 0, 0)" opacity="1.0"/>
    <path d="M 64.05474853515625 155.1983184814453 C 64.05474853515625 155.1983184814453 64.05474853515625 155.1983184814453 64.05474853515625 155.1983184814453 C 61.43882369995117 155.36224365234375 59.061492919921875 156.9671630859375 58.272769927978516 159.59336853027344 C 57.840213775634766 161.03350830078125 58.04705047607422 162.73025512695312 58.04705047607422 164.20985412597656 C 58.04705047607422 166.20700073242188 57.96723556518555 167.97926330566406 59.13530349731445 169.72921752929688 C 61.43968200683594 173.18106079101562 67.11695098876953 172.73133850097656 70.662353515625 172.01986694335938 C 70.662353515625 172.01986694335938 70.662353515625 172.01986694335938 70.662353515625 172.01986694335938 C 72.57794952392578 172.01986694335938 74.09103393554688 170.26560974121094 74.87202453613281 168.7156219482422 C 74.87202453613281 168.7156219482422 74.87202453613281 168.7156219482422 74.87202453613281 168.7156219482422 C 76.36795043945312 164.23646545410156 76.29327392578125 157.081298828125 70.7747802734375 155.42404174804688 C 68.7295913696289 154.81039428710938 66.16688537597656 155.1983184814453 64.05474853515625 155.1983184814453 C 64.05474853515625 155.1983184814453 64.05474853515625 155.1983184814453 64.05474853515625 155.1983184814453" stroke-width="0.0" fill="rgb(0, 0, 0)" opacity="1.0"/>
    <path d="M 64.05474853515625 133.56976318359375 C 64.05474853515625 133.56976318359375 64.05474853515625 133.56976318359375 64.05474853515625 133.56976318359375 C 61.437965393066406 133.7328338623047 59.061492919921875 135.33688354492188 58.272769927978516 137.96395874023438 C 57.840213775634766 139.40408325195312 58.04705047607422 141.100830078125 58.04705047607422 142.5804443359375 C 58.04705047607422 144.57757568359375 57.96723556518555 146.3489990234375 59.13530349731445 148.09979248046875 C 61.43882369995117 151.55165100097656 67.11781311035156 151.10107421875 70.662353515625 150.3904571533203 C 70.662353515625 150.3904571533203 70.662353515625 150.3904571533203 70.662353515625 150.3904571533203 C 72.57708740234375 150.3904571533203 74.09274291992188 148.63619995117188 74.87202453613281 147.08621215820312 C 74.87202453613281 147.08621215820312 74.87202453613281 147.08621215820312 74.87202453613281 147.08621215820312 C 76.36450958251953 142.62078857421875 76.28297424316406 135.4475860595703 70.7747802734375 133.7954864501953 C 68.7295913696289 133.1818389892578 66.16688537597656 133.56976318359375 64.05474853515625 133.56976318359375 C 64.05474853515625 133.56976318359375 64.05474853515625 133.56976318359375 64.05474853515625 133.56976318359375" stroke-width="0.0" fill="rgb(0, 0, 0)" opacity="1.0"/>
    <path d="M 131.34005737304688 133.56976318359375 C 131.34005737304688 133.56976318359375 131.34005737304688 133.56976318359375 131.34005737304688 133.56976318359375 C 128.7232666015625 133.7328338623047 126.345947265625 135.33602905273438 125.55722045898438 137.96395874023438 C 125.12552642822266 139.40408325195312 125.33235931396484 141.100830078125 125.33235931396484 142.5804443359375 C 125.33235931396484 144.57672119140625 125.25254821777344 146.3489990234375 126.41976165771484 148.09979248046875 C 128.72242736816406 151.55165100097656 134.4039764404297 151.10107421875 137.94766235351562 150.3904571533203 C 137.94766235351562 150.3904571533203 137.94766235351562 150.3904571533203 137.94766235351562 150.3904571533203 C 139.86239624023438 150.3904571533203 141.377197265625 148.63619995117188 142.15647888183594 147.08621215820312 C 142.15647888183594 147.08621215820312 142.15647888183594 147.08621215820312 142.15647888183594 147.08621215820312 C 143.65325927734375 142.62249755859375 143.56484985351562 135.44674682617188 138.05923461914062 133.7954864501953 C 136.014892578125 133.1818389892578 133.4521942138672 133.56976318359375 131.34005737304688 133.56976318359375 C 131.34005737304688 133.56976318359375 131.34005737304688 133.56976318359375 131.34005737304688 133.56976318359375" stroke-width="0.0" fill="rgb(0, 0, 0)" opacity="1.0"/>
    <path d="M 156.8727569580078 133.56976318359375 C 156.8727569580078 133.56976318359375 156.8727569580078 133.56976318359375 156.8727569580078 133.56976318359375 C 154.25596618652344 133.7328338623047 151.87950134277344 135.33688354492188 151.09078979492188 137.96395874023438 C 150.65821838378906 139.40408325195312 150.8650665283203 141.100830078125 150.8650665283203 142.5804443359375 C 150.8650665283203 144.57757568359375 150.78610229492188 146.3489990234375 151.95330810546875 148.09979248046875 C 154.25596618652344 151.55165100097656 159.93667602539062 151.10107421875 163.48036193847656 150.3904571533203 C 163.48036193847656 150.3904571533203 163.48036193847656 150.3904571533203 163.48036193847656 150.3904571533203 C 165.3950958251953 150.3904571533203 166.9107666015625 148.63619995117188 167.69003295898438 147.08621215820312 C 167.69003295898438 147.08621215820312 167.69003295898438 147.08621215820312 167.69003295898438 147.08621215820312 C 169.18252563476562 142.62078857421875 169.1009979248047 135.4475860595703 163.59280395507812 133.7954864501953 C 161.54759216308594 133.1818389892578 158.98489379882812 133.56976318359375 156.8727569580078 133.56976318359375 C 156.8727569580078 133.56976318359375 156.8727569580078 133.56976318359375 156.8727569580078 133.56976318359375" stroke-width="0.0" fill="rgb(0, 0, 0)" opacity="1.0"/>
    <path d="M 156.8727569580078 154.89707946777344 C 156.8727569580078 154.89707946777344 156.8727569580078 154.89707946777344 156.8727569580078 154.89707946777344 C 154.25596618652344 155.06100463867188 151.87950134277344 156.66505432128906 151.09078979492188 159.29212951660156 C 150.65821838378906 160.73226928710938 150.8650665283203 162.42901611328125 150.8650665283203 163.9086151123047 C 150.8650665283203 165.90576171875 150.78524780273438 167.67800903320312 151.95330810546875 169.427978515625 C 154.2568359375 172.87896728515625 159.93667602539062 172.43096923828125 163.48036193847656 171.7186279296875 C 163.48036193847656 171.7186279296875 163.48036193847656 171.7186279296875 163.48036193847656 171.7186279296875 C 165.3950958251953 171.7186279296875 166.90989685058594 169.96437072753906 167.69003295898438 168.4143829345703 C 167.69003295898438 168.4143829345703 167.69003295898438 168.4143829345703 167.69003295898438 168.4143829345703 C 169.18167114257812 163.94723510742188 169.10183715820312 156.77749633789062 163.59280395507812 155.12278747558594 C 161.5484619140625 154.5091552734375 158.98489379882812 154.89707946777344 156.8727569580078 154.89707946777344 C 156.8727569580078 154.89707946777344 156.8727569580078 154.89707946777344 156.8727569580078 154.89707946777344" stroke-width="0.0" fill="rgb(0, 0, 0)" opacity="1.0"/>
    <path d="M 131.0413818359375 154.2980194091797 C 131.0413818359375 154.2980194091797 131.0413818359375 154.2980194091797 131.0413818359375 154.2980194091797 C 128.4246063232422 154.46109008789062 126.04813385009766 156.06515502929688 125.25941467285156 158.6922149658203 C 124.82685852050781 160.13235473632812 125.03369140625 161.8291015625 125.03369140625 163.3087158203125 C 125.03369140625 165.30584716796875 124.9538803100586 167.07810974121094 126.1219482421875 168.82806396484375 C 128.4254608154297 172.279052734375 134.10446166992188 171.8319091796875 137.6490020751953 171.11871337890625 C 137.6490020751953 171.11871337890625 137.6490020751953 171.11871337890625 137.6490020751953 171.11871337890625 C 139.5628662109375 171.11871337890625 141.0802459716797 169.36532592773438 141.85780334472656 167.81448364257812 C 141.85780334472656 167.81448364257812 141.85780334472656 167.81448364257812 141.85780334472656 167.81448364257812 C 143.35458374023438 163.35076904296875 143.2661895751953 156.17498779296875 137.7614288330078 154.52288818359375 C 135.7162322998047 153.91009521484375 133.1535186767578 154.2980194091797 131.0413818359375 154.2980194091797 C 131.0413818359375 154.2980194091797 131.0413818359375 154.2980194091797 131.0413818359375 154.2980194091797" stroke-width="0.0" fill="rgb(0, 0, 0)" opacity="1.0"/>
  </g>
</svg>
