<?xml version="1.0" ?>
<svg xmlns="http://www.w3.org/2000/svg" version="1.1" width="224" height="224">
  <defs/>
  <g>
    <path d="M 109.39329528808594 30.03972625732422 C 109.39329528808594 30.03972625732422 109.39329528808594 30.03972625732422 109.39329528808594 30.03972625732422 C 84.86743927001953 47.209754943847656 60.188873291015625 64.16299438476562 35.67003631591797 81.341796875 C 35.67003631591797 81.341796875 35.67003631591797 81.341796875 35.67003631591797 81.341796875 C 35.567352294921875 81.44448852539062 35.46466064453125 81.54718017578125 35.361968994140625 81.64986419677734 C 35.361968994140625 81.64986419677734 35.361968994140625 81.64986419677734 35.361968994140625 81.64986419677734 C 32.55164337158203 83.8607406616211 32.90534973144531 86.73513793945312 32.90534973144531 90.03608703613281 C 32.90534973144531 92.34877014160156 32.90534973144531 94.66145324707031 32.90534973144531 96.97325897216797 C 32.90534973144531 111.38475036621094 32.90534973144531 125.79623413085938 32.90534973144531 140.2077178955078 C 32.90534973144531 153.3878173828125 32.90534973144531 166.56703186035156 32.90534973144531 179.74713134765625 C 32.90534973144531 182.35296630859375 32.90534973144531 184.95880126953125 32.90534973144531 187.56463623046875 C 32.90534973144531 189.79481506347656 33.03173828125 191.82400512695312 34.709861755371094 193.50213623046875 C 37.207733154296875 196.0 41.095848083496094 195.30751037597656 44.2923583984375 195.30751037597656 C 52.49689483642578 195.30751037597656 60.70143508911133 195.30751037597656 68.90597534179688 195.30751037597656 C 98.64524841308594 195.30751037597656 128.38450622558594 195.30751037597656 158.12466430664062 195.30751037597656 C 165.4137725830078 195.30751037597656 172.70289611816406 195.30751037597656 179.9920196533203 195.30751037597656 C 183.12710571289062 195.30751037597656 186.85546875 195.9490966796875 189.30154418945312 193.50213623046875 C 191.4483642578125 191.35533142089844 191.10694885253906 188.46600341796875 191.10694885253906 185.69166564941406 C 191.10694885253906 179.9156494140625 191.10694885253906 174.1396484375 191.10694885253906 168.3636474609375 C 191.10694885253906 147.03079223632812 191.10694885253906 125.69705200195312 191.10694885253906 104.36419677734375 C 191.10694885253906 100.02845764160156 190.912109375 95.71817779541016 190.74270629882812 91.38595581054688 C 190.60491943359375 87.86383056640625 190.77606201171875 84.53128814697266 188.03594970703125 81.95529174804688 C 188.03594970703125 81.95529174804688 188.03594970703125 81.95529174804688 188.03594970703125 81.95529174804688 C 187.8323211669922 81.85261535644531 187.62782287597656 81.7490463256836 187.42332458496094 81.64635467529297 C 187.42332458496094 81.64635467529297 187.42332458496094 81.64635467529297 187.42332458496094 81.64635467529297 C 168.455810546875 67.7105712890625 149.3750762939453 53.92839050292969 130.09246826171875 40.43231964111328 C 126.49662017822266 37.916015625 122.90428161621094 35.40497589111328 119.36724090576172 32.80615997314453 C 116.11719512939453 30.41712188720703 113.49819946289062 27.99999237060547 109.39329528808594 30.03972625732422 C 109.39329528808594 30.03972625732422 109.39329528808594 30.03972625732422 109.39329528808594 30.03972625732422" stroke-width="0.0" fill="rgb(0, 0, 0)" opacity="1.0"/>
    <path d="M 112.46956634521484 42.637046813964844 C 112.46956634521484 42.637046813964844 112.46956634521484 42.637046813964844 112.46956634521484 42.637046813964844 C 126.82838439941406 53.01383972167969 141.25743103027344 63.292335510253906 155.65574645996094 73.61383819580078 C 163.1853485107422 79.01156616210938 170.9097900390625 84.23902130126953 178.20858764648438 89.94217681884766 C 178.20858764648438 89.94217681884766 178.20858764648438 89.94217681884766 178.20858764648438 89.94217681884766 C 178.20858764648438 121.07080841064453 178.20858764648438 152.19943237304688 178.20858764648438 183.32806396484375 C 178.20858764648438 183.32806396484375 178.20858764648438 183.32806396484375 178.20858764648438 183.32806396484375 C 133.68832397460938 182.40475463867188 89.10838317871094 183.02264404296875 44.580238342285156 183.02264404296875 C 44.580238342285156 183.02264404296875 44.580238342285156 183.02264404296875 44.580238342285156 183.02264404296875 C 44.580238342285156 151.89488220214844 44.580238342285156 120.76625061035156 44.580238342285156 89.63761901855469 C 44.580238342285156 89.63761901855469 44.580238342285156 89.63761901855469 44.580238342285156 89.63761901855469 C 67.2612075805664 74.05618286132812 89.99659729003906 58.51689147949219 112.46956634521484 42.637046813964844 C 112.46956634521484 42.637046813964844 112.46956634521484 42.637046813964844 112.46956634521484 42.637046813964844" stroke-width="0.0" fill="rgb(254, 254, 254)" opacity="1.0"/>
    <path d="M 71.3090591430664 84.71998596191406 C 71.3090591430664 84.71998596191406 71.3090591430664 84.71998596191406 71.3090591430664 84.71998596191406 C 69.67131042480469 84.95696258544922 69.10784149169922 84.82881927490234 67.74392700195312 85.79075622558594 C 64.50529479980469 88.07798767089844 64.50529479980469 93.6512451171875 67.74392700195312 95.93759155273438 C 69.29478454589844 97.03294372558594 71.04136657714844 97.00836181640625 72.84587097167969 97.00836181640625 C 75.50787353515625 97.00836181640625 78.16987609863281 97.00836181640625 80.83187103271484 97.00836181640625 C 80.83187103271484 97.00836181640625 80.83187103271484 97.00836181640625 80.83187103271484 97.00836181640625 C 85.46601867675781 111.84728240966797 90.01941680908203 126.71076965332031 94.65531158447266 141.5496826171875 C 95.5768814086914 144.72337341308594 96.49844360351562 147.89793395996094 97.42000579833984 151.07162475585938 C 94.6869125366211 152.1371307373047 92.2241439819336 153.47120666503906 90.287109375 155.73648071289062 C 88.49664306640625 157.8314971923828 87.38199615478516 160.43557739257812 87.06953430175781 163.17129516601562 C 86.81501007080078 165.40675354003906 87.06515502929688 167.68783569335938 87.81556701660156 169.81005859375 C 91.80461883544922 181.089111328125 107.7774887084961 183.09022521972656 114.203857421875 172.86964416503906 C 115.07978057861328 171.4750213623047 115.71609497070312 169.9329376220703 116.08032989501953 168.3267822265625 C 116.52970123291016 166.35287475585938 116.58586883544922 164.407958984375 116.15406036376953 162.44195556640625 C 117.28011322021484 162.44195556640625 118.40618133544922 162.44195556640625 119.53224182128906 162.44195556640625 C 119.17853546142578 164.99951171875 119.19258117675781 167.333251953125 120.0685043334961 169.81005859375 C 124.29978942871094 181.7728271484375 141.6769561767578 183.00070190429688 147.24232482910156 171.44869995117188 C 148.22268676757812 169.4142303466797 148.72032165527344 167.15682983398438 148.71505737304688 164.89944458007812 C 148.7089080810547 162.6218719482422 148.17001342773438 160.3741455078125 147.1282196044922 158.3475799560547 C 146.12591552734375 156.39649963378906 144.67686462402344 154.68414306640625 142.94168090820312 153.3448028564453 C 140.1954345703125 151.2252197265625 137.07704162597656 150.3492889404297 133.6646270751953 150.15357971191406 C 125.47236633300781 150.15357971191406 117.28011322021484 150.15357971191406 109.08786010742188 150.15357971191406 C 108.67799377441406 148.82301330566406 108.26811218261719 147.49244689941406 107.85823059082031 146.1610107421875 C 114.40220642089844 146.1610107421875 120.94530487060547 146.1610107421875 127.4884033203125 146.1610107421875 C 130.06790161132812 146.1610107421875 133.18629455566406 146.66830444335938 135.52618408203125 145.33335876464844 C 138.63404846191406 143.5595703125 139.1123809814453 139.72323608398438 140.05325317382812 136.60484313964844 C 142.37997436523438 128.8997039794922 144.81289672851562 121.22703552246094 147.1220703125 113.51750946044922 C 148.09629821777344 110.26658630371094 149.25921630859375 107.1631088256836 146.4962921142578 104.40105438232422 C 144.33192443847656 102.23757934570312 141.58743286132812 102.53949737548828 138.7788543701172 102.53949737548828 C 136.44686889648438 102.53949737548828 134.11488342285156 102.53949737548828 131.7828826904297 102.53949737548828 C 119.508544921875 102.53949737548828 107.23332977294922 102.53949737548828 94.95899200439453 102.53949737548828 C 94.95899200439453 102.53949737548828 94.95899200439453 102.53949737548828 94.95899200439453 102.53949737548828 C 93.99003601074219 99.21572875976562 92.94120788574219 95.91653442382812 91.93626403808594 92.60330200195312 C 91.1419677734375 89.9869384765625 90.59078979492188 87.23629760742188 88.11573028564453 85.634521484375 C 86.19010925292969 84.38909912109375 83.84757995605469 84.71998596191406 81.67532348632812 84.71998596191406 C 78.21990203857422 84.71998596191406 74.76448059082031 84.71998596191406 71.3090591430664 84.71998596191406 C 71.3090591430664 84.71998596191406 71.3090591430664 84.71998596191406 71.3090591430664 84.71998596191406" stroke-width="0.0" fill="rgb(0, 0, 0)" opacity="1.0"/>
    <path d="M 98.64349365234375 114.827880859375 C 98.64349365234375 114.827880859375 98.64349365234375 114.827880859375 98.64349365234375 114.827880859375 C 110.41930389404297 114.827880859375 122.19424438476562 114.827880859375 133.96917724609375 114.827880859375 C 133.96917724609375 114.827880859375 133.96917724609375 114.827880859375 133.96917724609375 114.827880859375 C 132.11727905273438 121.20509338378906 129.98626708984375 127.49629974365234 128.13436889648438 133.87350463867188 C 128.13436889648438 133.87350463867188 128.13436889648438 133.87350463867188 128.13436889648438 133.87350463867188 C 120.24930572509766 133.87350463867188 112.36424255371094 133.87350463867188 104.47917175292969 133.87350463867188 C 104.47917175292969 133.87350463867188 104.47917175292969 133.87350463867188 104.47917175292969 133.87350463867188 C 102.62638854980469 127.49629974365234 100.49626922607422 121.20509338378906 98.64349365234375 114.827880859375 C 98.64349365234375 114.827880859375 98.64349365234375 114.827880859375 98.64349365234375 114.827880859375" stroke-width="0.0" fill="rgb(254, 254, 254)" opacity="1.0"/>
    <path d="M 101.71800231933594 162.44195556640625 C 101.71800231933594 162.44195556640625 101.71800231933594 162.44195556640625 101.71800231933594 162.44195556640625 C 102.6974868774414 162.6754150390625 103.21092987060547 162.5341033935547 103.64976501464844 163.5785369873047 C 104.35454559326172 165.2540283203125 103.37417602539062 167.35696411132812 101.40904998779297 167.3560791015625 C 99.55890655517578 167.3560791015625 98.75582885742188 165.18820190429688 99.5562744140625 163.71546936035156 C 100.1487045288086 162.62451171875 100.61738586425781 162.7447509765625 101.71800231933594 162.44195556640625 C 101.71800231933594 162.44195556640625 101.71800231933594 162.44195556640625 101.71800231933594 162.44195556640625" stroke-width="0.0" fill="rgb(254, 254, 254)" opacity="1.0"/>
    <path d="M 133.6646270751953 162.44195556640625 C 133.6646270751953 162.44195556640625 133.6646270751953 162.44195556640625 133.6646270751953 162.44195556640625 C 134.66253662109375 162.66488647460938 135.28921508789062 162.55780029296875 135.82546997070312 163.5785369873047 C 136.71368408203125 165.26719665527344 135.5823516845703 167.30691528320312 133.6646270751953 167.3560791015625 C 131.7442626953125 167.4052276611328 130.59451293945312 165.3883056640625 131.5037841796875 163.71546936035156 C 132.09622192382812 162.62451171875 132.5648956298828 162.7447509765625 133.6646270751953 162.44195556640625 C 133.6646270751953 162.44195556640625 133.6646270751953 162.44195556640625 133.6646270751953 162.44195556640625" stroke-width="0.0" fill="rgb(252, 252, 252)" opacity="1.0"/>
  </g>
</svg>
