<?xml version="1.0" ?>
<svg xmlns="http://www.w3.org/2000/svg" version="1.1" width="224" height="224">
  <defs/>
  <g>
    <path d="M 101.36992645263672 193.3687744140625 C 98.74790954589844 192.92135620117188 95.15933990478516 191.4998321533203 93.37873840332031 190.5927276611328 C 90.8671875 188.70703125 88.94023132324219 188.19744873046875 84.05209350585938 189.26885986328125 C 78.32185363769531 189.02853393554688 68.16372680664062 187.3256072998047 63.87263488769531 185.67156982421875 C 62.31806945800781 185.21267700195312 60.05584716796875 183.69850158691406 58.81455612182617 182.0535888671875 C 57.290645599365234 179.53411865234375 56.7843017578125 179.51348876953125 55.55080032348633 180.65830993652344 C 53.12131118774414 181.4669189453125 52.91553497314453 181.68719482421875 51.267032623291016 180.18051147460938 C 50.54696273803711 179.1844482421875 49.66671371459961 177.33407592773438 49.45712661743164 175.37884521484375 C 50.222965240478516 172.95193481445312 49.430702209472656 171.24542236328125 45.91304016113281 167.4613494873047 C 34.69727325439453 151.908203125 28.655723571777344 134.31973266601562 28.45935821533203 112.71452331542969 C 28.979476928710938 98.37126159667969 30.560646057128906 90.31080627441406 35.32212829589844 78.75557708740234 C 40.28450012207031 65.9950942993164 51.8487434387207 51.63529968261719 63.34683609008789 44.146018981933594 C 77.90003967285156 33.79560852050781 99.43457794189453 27.99999237060547 118.49791717529297 29.342514038085938 C 154.99420166015625 31.737228393554688 183.7978515625 55.054351806640625 193.19749450683594 90.56730651855469 C 194.23782348632812 96.36820983886719 195.1190185546875 99.61965942382812 195.49624633789062 111.72847747802734 C 195.54063415527344 120.60931396484375 194.6864013671875 127.53712463378906 193.81027221679688 131.23260498046875 C 191.79180908203125 144.7233123779297 185.04754638671875 159.0557861328125 177.78648376464844 168.19496154785156 C 174.49465942382812 171.26095581054688 173.95912170410156 172.76370239257812 174.65682983398438 175.15341186523438 C 174.17254638671875 179.88221740722656 173.32098388671875 181.0460968017578 169.4006805419922 180.85874938964844 C 167.4139404296875 179.07708740234375 166.66567993164062 179.7972869873047 165.57449340820312 181.98020935058594 C 164.8703155517578 182.97071838378906 162.99179077148438 184.5610809326172 161.08682250976562 185.2509002685547 C 157.03118896484375 187.0084228515625 144.60919189453125 189.07772827148438 138.731689453125 189.18743896484375 C 135.36781311035156 187.57968139648438 133.74777221679688 187.88296508789062 130.41807556152344 190.58587646484375 C 120.76529693603516 194.91184997558594 111.06165313720703 196.0 101.36992645263672 193.3687744140625" stroke-width="1.0" fill="rgb(0, 0, 0)" opacity="0.99653196"/>
    <path d="M 102.68553924560547 183.25331115722656 C 100.14306640625 182.3782501220703 96.3180160522461 180.71058654785156 94.46090698242188 179.259521484375 C 91.6211166381836 177.04026794433594 91.59928894042969 176.46923828125 92.40814971923828 175.20126342773438 C 95.53382110595703 168.60302734375 101.76324462890625 163.80670166015625 108.57596588134766 162.81668090820312 C 113.02710723876953 161.9578857421875 119.95100402832031 163.6290740966797 124.09419250488281 166.43710327148438 C 127.74093627929688 168.7854461669922 132.55859375 174.9689178466797 132.3793487548828 176.85498046875 C 132.64256286621094 177.39920043945312 129.7101287841797 179.09307861328125 126.41831970214844 181.10989379882812 C 118.43921661376953 185.1321563720703 109.93901824951172 185.83705139160156 102.68553924560547 183.25331115722656" stroke-width="1.0" fill="rgb(253, 254, 254)" opacity="0.9999092"/>
    <path d="M 70.69505310058594 176.9099884033203 C 66.14913940429688 175.81829833984375 65.74385833740234 174.0965118408203 63.56800842285156 165.14862060546875 C 60.579017639160156 156.93203735351562 60.443424224853516 134.87930297851562 63.48180389404297 127.39069366455078 C 65.49676513671875 118.818115234375 70.01095581054688 110.45936584472656 74.78877258300781 104.64606475830078 L 80.3289566040039 99.93424224853516 L 84.8477554321289 100.69732666015625 C 90.60101318359375 101.19561767578125 96.39728546142578 99.45626831054688 101.65803527832031 96.39108276367188 C 103.1995849609375 95.12877655029297 104.27554321289062 94.12364196777344 105.56222534179688 93.69054412841797 C 105.81787109375 94.19242858886719 106.16139221191406 96.022705078125 107.25550079345703 98.00796508789062 C 110.95487213134766 104.71121215820312 113.90074157714844 104.44688415527344 117.16452026367188 97.5087890625 L 118.85153198242188 93.60926055908203 L 122.07392120361328 96.42621612548828 C 127.46533203125 99.73526000976562 132.93228149414062 101.41188049316406 139.04132080078125 100.63814544677734 L 144.23048400878906 99.72232055664062 L 149.08139038085938 103.99114990234375 C 162.0142059326172 118.29559326171875 166.51419067382812 146.83078002929688 159.20790100097656 169.66915893554688 C 157.5740203857422 176.03839111328125 156.0159912109375 176.5028839111328 148.2605743408203 177.92584228515625 C 144.52320861816406 178.86465454101562 143.20480346679688 178.9558868408203 144.41383361816406 176.18112182617188 C 148.74879455566406 167.78631591796875 149.3734130859375 163.38238525390625 149.55078125 154.3525390625 C 148.83502197265625 146.4732666015625 148.5660400390625 144.8977813720703 146.27088928222656 139.8520965576172 C 140.40721130371094 125.9139404296875 124.66241455078125 116.75 114.67670440673828 120.89987182617188 C 112.2481460571289 122.02916717529297 111.60066986083984 122.01465606689453 108.98452758789062 120.89836883544922 C 100.57404327392578 117.16496276855469 85.89081573486328 124.68144226074219 79.87443542480469 136.0000762939453 C 73.86685180664062 145.3527069091797 72.86558532714844 158.03378295898438 76.70645904541016 169.223388671875 C 77.77073669433594 172.59814453125 79.33478546142578 175.89610290527344 80.4635009765625 177.321044921875 C 81.25205993652344 178.97689819335938 76.10619354248047 178.1263885498047 70.69505310058594 176.9099884033203" stroke-width="1.0" fill="rgb(253, 254, 254)" opacity="0.99900556"/>
    <path d="M 84.63172149658203 162.81756591796875 C 83.09249114990234 156.80380249023438 84.3379135131836 146.84214782714844 86.73292541503906 143.0419464111328 C 90.34849548339844 135.55406188964844 97.26080322265625 130.4051971435547 102.60491943359375 129.85867309570312 C 104.8967056274414 130.46192932128906 105.85059356689453 130.6111297607422 105.85721588134766 132.6710968017578 C 105.97055053710938 135.5324249267578 110.13088989257812 140.24435424804688 111.55848693847656 140.09747314453125 C 113.34276580810547 140.08340454101562 116.94318389892578 136.81100463867188 117.59248352050781 133.6059112548828 C 118.18327331542969 130.0543212890625 118.4808120727539 130.0452880859375 121.63473510742188 130.08935546875 C 125.35648345947266 130.3809814453125 131.6656494140625 134.25143432617188 134.5166015625 138.876953125 C 138.52163696289062 144.1607666015625 140.06411743164062 150.48614501953125 139.69009399414062 158.40028381347656 C 139.16851806640625 161.91424560546875 138.45211791992188 164.92091369628906 138.04270935058594 166.4142303466797 C 137.33387756347656 166.73095703125 136.15130615234375 164.76719665527344 134.1709747314453 162.39694213867188 C 132.5917205810547 160.4130859375 128.65650939941406 157.49154663085938 125.76994323730469 156.00743103027344 C 120.70742797851562 153.5480194091797 119.99407958984375 153.00738525390625 112.43241882324219 151.8707733154297 C 104.72904205322266 152.69024658203125 103.92655181884766 153.42649841308594 98.55794525146484 155.8351593017578 C 95.40535736083984 157.21517944335938 91.54696655273438 159.96514892578125 89.9299087524414 161.97573852539062 C 87.99390411376953 164.47219848632812 86.62203216552734 166.36407470703125 86.08494567871094 166.4741973876953 C 85.46026611328125 166.2104034423828 85.0088882446289 164.3596649169922 84.63172149658203 162.81756591796875" stroke-width="1.0" fill="rgb(253, 254, 254)" opacity="0.9993338"/>
    <path d="M 46.65924835205078 151.2549591064453 C 42.358795166015625 142.20355224609375 39.43675994873047 132.16848754882812 38.33634948730469 121.12301635742188 C 35.301490783691406 96.15904998779297 44.97119140625 71.03976440429688 63.744178771972656 55.95469665527344 C 78.11945343017578 43.62578582763672 101.78790283203125 36.85850524902344 121.52962493896484 39.66070556640625 C 141.92953491210938 42.52008056640625 159.69204711914062 51.662208557128906 170.2499542236328 65.24079895019531 C 176.10165405273438 71.99911499023438 181.90402221679688 83.901123046875 183.53857421875 91.50076293945312 C 188.6209259033203 111.61778259277344 186.07798767089844 133.70591735839844 177.39968872070312 151.4681396484375 L 172.42361450195312 159.69976806640625 L 171.9580078125 146.70213317871094 C 172.0909423828125 139.86087036132812 171.53546142578125 132.2758026123047 170.71441650390625 129.8915557861328 C 168.6797637939453 117.73704528808594 163.8060302734375 107.32220458984375 157.27926635742188 99.66804504394531 L 152.6232452392578 95.10681915283203 L 155.38890075683594 90.33363342285156 C 162.29721069335938 78.62800598144531 157.06130981445312 62.67180633544922 144.22897338867188 56.63890838623047 C 141.05108642578125 54.80907440185547 139.3206024169922 53.792510986328125 134.0237579345703 53.56751251220703 C 127.20947265625 54.069190979003906 126.36844635009766 54.52167510986328 120.98831176757812 57.247039794921875 C 118.63737487792969 58.46369934082031 115.7177963256836 61.06884002685547 114.86650085449219 62.081886291503906 L 111.34817504882812 65.40570068359375 L 108.38123321533203 61.05095672607422 C 102.49467468261719 56.02648162841797 97.72673034667969 54.2628173828125 90.11909484863281 53.8602294921875 C 85.04080200195312 54.0914306640625 83.16655731201172 54.946495056152344 79.59922790527344 56.13561248779297 C 74.7032470703125 58.63750457763672 70.35398864746094 63.5875244140625 67.52754211425781 68.58189392089844 C 66.30182647705078 71.16082000732422 65.50566101074219 73.28883361816406 65.52571105957031 77.75814819335938 C 65.62300109863281 83.84709167480469 66.02479553222656 84.969970703125 68.33235168457031 89.75033569335938 L 72.02072143554688 95.43011474609375 L 67.3476333618164 99.7748794555664 C 61.670475006103516 105.10584259033203 56.539058685302734 114.85252380371094 54.6883544921875 122.55709838867188 C 52.722965240478516 127.76809692382812 51.674339294433594 140.30360412597656 52.10819625854492 153.6946258544922 L 51.34861373901367 159.3172607421875 L 46.65924835205078 151.2549591064453" stroke-width="1.0" fill="rgb(253, 254, 254)" opacity="0.99890363"/>
    <path d="M 79.98603820800781 87.62551879882812 C 74.29408264160156 82.4362564086914 74.07395935058594 74.63020324707031 79.28678131103516 68.47199249267578 C 84.85163879394531 62.54645538330078 93.9599380493164 62.43132781982422 100.85243225097656 67.85310363769531 C 105.0760498046875 72.00061798095703 106.20161437988281 73.79302978515625 101.9531478881836 74.69143676757812 C 98.4806900024414 76.86094665527344 98.63199615478516 77.62223815917969 98.39347076416016 80.32400512695312 C 98.09381103515625 83.83905029296875 97.82003021240234 85.22196960449219 95.67233276367188 87.28897094726562 C 92.88856506347656 89.62396240234375 92.13451385498047 89.8803482055664 88.12943267822266 90.14776611328125 C 83.90913391113281 89.91999053955078 82.88380432128906 89.64379119873047 79.98603820800781 87.62551879882812" stroke-width="0.0" fill="rgb(254, 254, 254)" opacity="0.9985269"/>
    <path d="M 131.20526123046875 89.345947265625 C 128.070556640625 88.48997497558594 125.65135192871094 84.8766860961914 125.16851806640625 80.44580078125 C 125.27119445800781 77.10025024414062 124.39015197753906 75.77378845214844 121.97727966308594 75.03321838378906 C 118.73190307617188 73.15936279296875 118.98432159423828 72.32008361816406 122.16035461425781 68.62844848632812 C 133.43858337402344 56.57997131347656 154.50115966796875 69.16911315917969 147.1674041748047 83.76264953613281 C 145.0437469482422 89.21646118164062 137.37258911132812 91.91471862792969 131.20526123046875 89.345947265625" stroke-width="1.0" fill="rgb(252, 253, 253)" opacity="0.99326915"/>
    <path d="M 88.25953674316406 82.8043212890625 C 87.1133041381836 82.29185485839844 85.46635437011719 81.22378540039062 84.7291488647461 80.02848052978516 C 79.78330993652344 72.60810089111328 89.09490966796875 64.52240753173828 95.67855072021484 70.63426971435547 C 99.23068237304688 74.47929382324219 97.86949920654297 80.04076385498047 92.7025146484375 82.76132202148438 C 90.6712875366211 83.78015899658203 90.80310821533203 83.61247253417969 88.25953674316406 82.8043212890625" stroke-width="1.0" fill="rgb(0, 0, 0)" opacity="0.99752796"/>
    <path d="M 128.92483520507812 80.77342224121094 C 126.07933044433594 77.11482238769531 126.18340301513672 72.64683532714844 129.159423828125 70.36398315429688 C 132.9934539794922 67.34046173095703 138.6043243408203 68.46090698242188 140.46609497070312 72.65260314941406 C 143.73439025878906 80.07907104492188 133.87632751464844 86.802490234375 128.92483520507812 80.77342224121094" stroke-width="1.0" fill="rgb(0, 0, 0)" opacity="0.9989567"/>
  </g>
</svg>
