<?xml version="1.0" ?>
<svg xmlns="http://www.w3.org/2000/svg" version="1.1" width="224" height="224">
  <defs/>
  <g>
    <path d="M 40.631141662597656 144.93064880371094 C 40.631141662597656 144.93064880371094 40.631141662597656 144.93064880371094 40.631141662597656 144.93064880371094 C 41.970458984375 145.85269165039062 42.102821350097656 146.8210906982422 42.94110107421875 148.17385864257812 C 43.67619323730469 149.35987854003906 44.57356262207031 150.44419860839844 45.60029602050781 151.38868713378906 C 46.63002395629883 152.33688354492188 47.788368225097656 153.14376831054688 49.035701751708984 153.77940368652344 C 49.62871170043945 154.08151245117188 51.039817810058594 154.38661193847656 51.039817810058594 155.423828125 C 51.039817810058594 156.4602813720703 49.62796401977539 156.76687622070312 49.035701751708984 157.06898498535156 C 47.37483215332031 157.9169921875 45.871002197265625 159.06787109375 44.619178771972656 160.44979858398438 C 43.67919158935547 161.4870147705078 42.88128662109375 162.65283203125 42.25611877441406 163.9046630859375 C 41.963722229003906 164.48944091796875 41.66161346435547 165.91998291015625 40.631141662597656 165.91998291015625 C 39.600669860839844 165.91998291015625 39.29780578613281 164.48944091796875 39.00541687011719 163.9046630859375 C 38.3802490234375 162.65283203125 37.58159637451172 161.4870147705078 36.642356872558594 160.44979858398438 C 35.390533447265625 159.06787109375 33.887451171875 157.9169921875 32.22657775878906 157.06898498535156 C 31.633575439453125 156.76687622070312 30.22246551513672 156.4602813720703 30.22246551513672 155.423828125 C 30.22246551513672 154.38661193847656 31.63282012939453 154.08151245117188 32.22657775878906 153.77940368652344 C 33.47241973876953 153.14376831054688 34.63151550292969 152.33688354492188 35.660491943359375 151.38868713378906 C 36.68647766113281 150.44419860839844 37.58384704589844 149.359130859375 38.318931579589844 148.17385864257812 C 39.15796661376953 146.8210906982422 39.29182434082031 145.85269165039062 40.631141662597656 144.93064880371094 C 40.631141662597656 144.93064880371094 40.631141662597656 144.93064880371094 40.631141662597656 144.93064880371094" stroke-width="0.0" fill="rgb(248, 179, 23)" opacity="1.0"/>
    <path d="M 114.63227081298828 172.68685913085938 C 114.63227081298828 172.68685913085938 114.63227081298828 172.68685913085938 114.63227081298828 172.68685913085938 C 114.99046325683594 172.83642578125 115.34866333007812 172.9852294921875 115.70611572265625 173.13404846191406 C 117.85231018066406 175.29745483398438 119.99850463867188 177.4615936279297 122.14395141601562 179.62498474121094 C 122.29126739501953 179.9854278564453 122.58665466308594 180.3166961669922 122.58665466308594 180.70631408691406 C 122.58665466308594 181.09591674804688 122.29126739501953 181.42718505859375 122.14395141601562 181.78762817382812 C 119.99850463867188 183.95028686523438 117.85231018066406 186.11293029785156 115.70611572265625 188.27557373046875 C 115.34866333007812 188.4243927001953 115.02037811279297 188.72201538085938 114.63227081298828 188.72201538085938 C 114.24565887451172 188.72201538085938 113.9181137084961 188.4243927001953 113.5606689453125 188.27557373046875 C 111.41447448730469 186.11293029785156 109.2690200805664 183.95028686523438 107.1228256225586 181.78762817382812 C 106.97476196289062 181.42794799804688 106.67863464355469 181.09664916992188 106.67863464355469 180.70706176757812 C 106.67863464355469 180.31744384765625 106.97476196289062 179.9854278564453 107.1228256225586 179.62498474121094 C 109.2690200805664 177.46009826660156 111.41447448730469 175.29595947265625 113.5606689453125 173.1310577392578 C 113.9181137084961 172.98300170898438 114.27481842041016 172.83493041992188 114.63227081298828 172.68685913085938 C 114.63227081298828 172.68685913085938 114.63227081298828 172.68685913085938 114.63227081298828 172.68685913085938" stroke-width="0.0" fill="rgb(239, 57, 60)" opacity="1.0"/>
    <path d="M 62.70928955078125 58.494293212890625 C 62.70928955078125 58.494293212890625 62.70928955078125 58.494293212890625 62.70928955078125 58.494293212890625 C 63.004669189453125 58.731346130371094 63.30080032348633 58.969154357910156 63.59618377685547 59.206207275390625 C 64.39633178710938 60.66516876220703 65.19648742675781 62.1241340637207 65.99662780761719 63.58309555053711 C 67.7091064453125 67.63394927978516 66.68087768554688 71.23088073730469 63.086181640625 73.76443481445312 C 57.62198257446289 76.80874633789062 52.158531188964844 79.85231018066406 46.6950798034668 82.89662170410156 C 46.28752136230469 83.34529876708984 46.02056121826172 83.95999145507812 45.970458984375 84.56346893310547 C 48.11067199707031 93.4585952758789 50.250885009765625 102.35371398925781 52.39109802246094 111.24884033203125 C 55.347164154052734 119.84931945800781 47.04355239868164 128.14993286132812 38.915679931640625 129.51467895507812 C 33.65637969970703 130.3970947265625 27.99999237060547 127.73939514160156 28.13983154296875 121.77192687988281 C 28.259483337402344 116.67788696289062 32.07103729248047 112.15592193603516 36.225830078125 109.60516357421875 C 37.49485778808594 108.8259506225586 38.859596252441406 108.20452117919922 40.281166076660156 107.76033020019531 C 40.933250427246094 107.55693054199219 42.218727111816406 107.4410171508789 42.67413330078125 106.71266174316406 C 42.88128662109375 106.38137817382812 42.79902648925781 105.9416732788086 42.861083984375 105.55580139160156 C 40.36791229248047 95.19798278808594 37.873992919921875 84.84015655517578 35.38081359863281 74.48233032226562 C 35.43016815185547 73.87811279296875 35.69713592529297 73.26266479492188 36.105430603027344 72.81472778320312 C 44.595245361328125 68.0833740234375 53.08580780029297 63.351280212402344 61.57637023925781 58.61992645263672 C 61.95400619506836 58.57804870605469 62.33164978027344 58.536170959472656 62.70928955078125 58.494293212890625 C 62.70928955078125 58.494293212890625 62.70928955078125 58.494293212890625 62.70928955078125 58.494293212890625" stroke-width="0.0" fill="rgb(67, 187, 78)" opacity="1.0"/>
    <path d="M 157.07833862304688 165.6829376220703 C 157.08656311035156 165.77566528320312 157.0955352783203 165.86764526367188 157.10450744628906 165.9603729248047 C 158.23443603515625 176.8895263671875 143.33670043945312 182.97589111328125 134.70181274414062 178.806884765625 C 134.70181274414062 178.806884765625 134.70181274414062 178.806884765625 134.70181274414062 178.806884765625 C 142.7362060546875 175.6354522705078 150.9276580810547 171.91812133789062 157.07833862304688 165.6829376220703 C 157.07833862304688 165.6829376220703 157.07833862304688 165.6829376220703 157.07833862304688 165.6829376220703" stroke-width="0.0" fill="rgb(253, 243, 226)" opacity="1.0"/>
    <path d="M 185.6556396484375 99.22938537597656 C 185.6556396484375 99.22938537597656 185.6556396484375 99.22938537597656 185.6556396484375 99.22938537597656 C 186.24566650390625 99.47541809082031 186.76463317871094 99.99813079833984 187.00767517089844 100.58964538574219 C 187.00767517089844 102.58552551269531 187.00767517089844 104.5814208984375 187.00767517089844 106.57805633544922 C 186.302490234375 108.28752899169922 185.00804138183594 108.28903198242188 184.30435180664062 106.57805633544922 C 184.30435180664062 104.5814208984375 184.30435180664062 102.58552551269531 184.30435180664062 100.58964538574219 C 184.54666137695312 99.99813079833984 185.0656280517578 99.47541809082031 185.6556396484375 99.22938537597656 C 185.6556396484375 99.22938537597656 185.6556396484375 99.22938537597656 185.6556396484375 99.22938537597656" stroke-width="0.0" fill="rgb(67, 187, 78)" opacity="1.0"/>
    <path d="M 177.01626586914062 96.50215148925781 C 178.99496459960938 96.50215148925781 180.97364807128906 96.50215148925781 182.9515838623047 96.50215148925781 C 184.65731811523438 97.22004699707031 184.6565704345703 98.51074981689453 182.9515838623047 99.22938537597656 C 180.97364807128906 99.22938537597656 178.99496459960938 99.22938537597656 177.01626586914062 99.22938537597656 C 175.31204223632812 98.51074981689453 175.311279296875 97.21929931640625 177.01626586914062 96.50215148925781 C 177.01626586914062 96.50215148925781 177.01626586914062 96.50215148925781 177.01626586914062 96.50215148925781" stroke-width="0.0" fill="rgb(67, 187, 77)" opacity="1.0"/>
    <path d="M 188.35595703125 96.50215148925781 C 190.33538818359375 96.50215148925781 192.31558227539062 96.50215148925781 194.29501342773438 96.50215148925781 C 195.9977569580078 97.21855163574219 196.0 98.5114974975586 194.29501342773438 99.22938537597656 C 192.31558227539062 99.22938537597656 190.33538818359375 99.22938537597656 188.35595703125 99.22938537597656 C 186.65545654296875 98.51000213623047 186.65396118164062 97.21855163574219 188.35595703125 96.50215148925781 C 188.35595703125 96.50215148925781 188.35595703125 96.50215148925781 188.35595703125 96.50215148925781" stroke-width="0.0" fill="rgb(66, 187, 78)" opacity="1.0"/>
    <path d="M 185.6556396484375 87.78948974609375 C 185.6556396484375 87.78948974609375 185.6556396484375 87.78948974609375 185.6556396484375 87.78948974609375 C 186.24566650390625 88.03851318359375 186.76463317871094 88.56346893310547 187.00767517089844 89.15647888183594 C 187.00767517089844 91.15087127685547 187.00767517089844 93.14451599121094 187.00767517089844 95.13815307617188 C 186.30474853515625 96.85810852050781 185.0065460205078 96.85885620117188 184.30435180664062 95.13815307617188 C 184.30435180664062 93.14451599121094 184.30435180664062 91.15087127685547 184.30435180664062 89.15647888183594 C 184.54666137695312 88.56346893310547 185.06488037109375 88.03851318359375 185.6556396484375 87.78948974609375 C 185.6556396484375 87.78948974609375 185.6556396484375 87.78948974609375 185.6556396484375 87.78948974609375" stroke-width="0.0" fill="rgb(67, 187, 78)" opacity="1.0"/>
    <path d="M 74.10730743408203 76.68386840820312 C 74.10730743408203 76.68386840820312 74.10730743408203 76.68386840820312 74.10730743408203 76.68386840820312 C 74.69732666015625 76.93138122558594 75.21630096435547 77.45484924316406 75.45858764648438 78.04711151123047 C 75.45858764648438 80.04225158691406 75.45858764648438 82.03739166259766 75.45858764648438 84.03253173828125 C 74.75714874267578 85.74948120117188 73.45970916748047 85.74873352050781 72.75827026367188 84.03253173828125 C 72.75827026367188 82.03739166259766 72.75827026367188 80.04225158691406 72.75827026367188 78.04711151123047 C 73.00055694580078 77.45559692382812 73.51878356933594 76.93214416503906 74.10730743408203 76.68386840820312 C 74.10730743408203 76.68386840820312 74.10730743408203 76.68386840820312 74.10730743408203 76.68386840820312" stroke-width="0.0" fill="rgb(240, 57, 60)" opacity="1.0"/>
    <path d="M 74.10730743408203 88.12301635742188 C 74.10730743408203 88.12301635742188 74.10730743408203 88.12301635742188 74.10730743408203 88.12301635742188 C 74.69657897949219 88.36904907226562 75.21630096435547 88.88951110839844 75.45858764648438 89.48027801513672 C 75.45858764648438 91.47541809082031 75.45858764648438 93.4705581665039 75.45858764648438 95.4656982421875 C 74.75714874267578 97.18264770507812 73.45970916748047 97.18264770507812 72.75827026367188 95.4656982421875 C 72.75827026367188 93.4705581665039 72.75827026367188 91.47541809082031 72.75827026367188 89.48027801513672 C 73.00130462646484 88.8902587890625 73.51878356933594 88.36978912353516 74.10730743408203 88.12301635742188 C 74.10730743408203 88.12301635742188 74.10730743408203 88.12301635742188 74.10730743408203 88.12301635742188" stroke-width="0.0" fill="rgb(240, 57, 60)" opacity="1.0"/>
    <path d="M 65.46793365478516 85.3957748413086 C 67.44737243652344 85.3957748413086 69.42755126953125 85.3957748413086 71.40699005126953 85.3957748413086 C 73.11572265625 86.10917663574219 73.10824584960938 87.40512084960938 71.40699005126953 88.12301635742188 C 69.42755126953125 88.12301635742188 67.44737243652344 88.12301635742188 65.46793365478516 88.12301635742188 C 63.76967239379883 87.40437316894531 63.7621955871582 86.10842895507812 65.46793365478516 85.3957748413086 C 65.46793365478516 85.3957748413086 65.46793365478516 85.3957748413086 65.46793365478516 85.3957748413086" stroke-width="0.0" fill="rgb(240, 57, 60)" opacity="1.0"/>
    <path d="M 76.81061553955078 85.3957748413086 C 78.79005432128906 85.3957748413086 80.76949310302734 85.3957748413086 82.7489242553711 85.3957748413086 C 84.4561538696289 86.10768127441406 84.44793701171875 87.40437316894531 82.7489242553711 88.12301635742188 C 80.76949310302734 88.12301635742188 78.79005432128906 88.12301635742188 76.81061553955078 88.12301635742188 C 75.10861206054688 87.40512084960938 75.10188293457031 86.10917663574219 76.81061553955078 85.3957748413086 C 76.81061553955078 85.3957748413086 76.81061553955078 85.3957748413086 76.81061553955078 85.3957748413086" stroke-width="0.0" fill="rgb(240, 57, 60)" opacity="1.0"/>
    <path d="M 99.57225799560547 84.84090423583984 C 99.57225799560547 84.84090423583984 99.57225799560547 84.84090423583984 99.57225799560547 84.84090423583984 C 100.82931518554688 84.63450622558594 101.50308227539062 84.71377563476562 102.6763916015625 85.20881652832031 C 113.14937591552734 91.30416870117188 123.62161254882812 97.3995132446289 134.09458923339844 103.49485778808594 C 136.06431579589844 105.00916290283203 136.50851440429688 106.88465118408203 135.43991088867188 109.1265640258789 C 118.84015655517578 135.04469299316406 102.24041748046875 160.96206665039062 85.64068603515625 186.8801727294922 C 84.07254028320312 188.6644287109375 82.54327392578125 189.03533935546875 80.32903289794922 188.17611694335938 C 72.49055480957031 183.61376953125 64.65283203125 179.05142211914062 56.814353942871094 174.48907470703125 C 54.96727752685547 172.98300170898438 54.523834228515625 171.46719360351562 55.270145416259766 169.204345703125 C 69.23536682128906 141.75173950195312 83.20134735107422 114.29912567138672 97.16657257080078 86.84725952148438 C 97.88221740722656 85.79435729980469 98.40867614746094 85.35614013671875 99.57225799560547 84.84090423583984 C 99.57225799560547 84.84090423583984 99.57225799560547 84.84090423583984 99.57225799560547 84.84090423583984" stroke-width="0.0" fill="rgb(91, 127, 200)" opacity="1.0"/>
    <path d="M 45.10674285888672 150.91307067871094 C 45.10674285888672 150.91307067871094 45.10674285888672 150.91307067871094 45.10674285888672 150.91307067871094 C 46.35333251953125 152.07217407226562 47.638057708740234 153.08767700195312 49.17180252075195 153.84970092773438 C 49.774532318115234 154.14881896972656 51.039817810058594 154.4090576171875 51.039817810058594 155.423828125 C 51.039817810058594 156.4602813720703 49.62796401977539 156.76687622070312 49.035701751708984 157.06898498535156 C 47.37483215332031 157.9169921875 45.87174606323242 159.06787109375 44.619178771972656 160.44979858398438 C 43.679931640625 161.48626708984375 42.88202667236328 162.65133666992188 42.25611877441406 163.9024200439453 C 41.963722229003906 164.48719787597656 41.660865783691406 165.9169921875 40.631141662597656 165.9169921875 C 39.62310028076172 165.9169921875 39.36212158203125 164.63153076171875 39.07197570800781 164.0370330810547 C 38.31743621826172 162.49281311035156 37.30790710449219 161.19537353515625 36.155540466308594 159.9345703125 C 36.155540466308594 159.9345703125 36.155540466308594 159.9345703125 36.155540466308594 159.9345703125 C 39.90502166748047 159.21743774414062 43.16918182373047 157.62460327148438 44.497283935546875 153.79061889648438 C 44.906333923339844 152.61058044433594 44.916053771972656 152.15892028808594 45.10674285888672 150.91307067871094 C 45.10674285888672 150.91307067871094 45.10674285888672 150.91307067871094 45.10674285888672 150.91307067871094" stroke-width="0.0" fill="rgb(219, 142, 25)" opacity="1.0"/>
    <path d="M 118.92391204833984 176.37802124023438 C 119.99700927734375 177.46009826660156 121.06936645507812 178.5421600341797 122.14170837402344 179.62498474121094 C 122.2897720336914 179.9854278564453 122.58590698242188 180.3166961669922 122.58590698242188 180.70631408691406 C 122.58590698242188 181.09591674804688 122.2897720336914 181.42718505859375 122.14170837402344 181.78762817382812 C 119.99551391601562 183.95028686523438 117.84931945800781 186.11293029785156 115.703125 188.27557373046875 C 115.34642028808594 188.4243927001953 115.01888275146484 188.72201538085938 114.63227081298828 188.72201538085938 C 114.24565887451172 188.72201538085938 113.9181137084961 188.4243927001953 113.5606689453125 188.27557373046875 C 112.48831176757812 187.19349670410156 111.41521453857422 186.11068725585938 110.3428726196289 185.02862548828125 C 114.93961334228516 183.6100311279297 117.84931945800781 181.169189453125 118.92391204833984 176.37802124023438 C 118.92391204833984 176.37802124023438 118.92391204833984 176.37802124023438 118.92391204833984 176.37802124023438" stroke-width="0.0" fill="rgb(203, 51, 37)" opacity="1.0"/>
    <path d="M 52.48457336425781 111.5120620727539 C 52.51448440551758 111.60104370117188 52.54439926147461 111.68929290771484 52.57505798339844 111.77752685546875 C 56.231815338134766 122.12787628173828 43.1871337890625 131.5816192626953 33.8104248046875 129.584228515625 C 33.8104248046875 129.584228515625 33.8104248046875 129.584228515625 33.8104248046875 129.584228515625 C 40.87792205810547 124.5918960571289 47.96709060668945 119.03272247314453 52.48457336425781 111.5120620727539 C 52.48457336425781 111.5120620727539 52.48457336425781 111.5120620727539 52.48457336425781 111.5120620727539" stroke-width="0.0" fill="rgb(51, 169, 64)" opacity="1.0"/>
    <path d="M 185.78128051757812 114.70293426513672 C 185.78128051757812 114.70293426513672 185.78128051757812 114.70293426513672 185.78128051757812 114.70293426513672 C 186.21200561523438 114.78893280029297 186.72650146484375 114.69097137451172 187.07498168945312 114.9601821899414 C 187.4241943359375 115.23014068603516 187.46157836914062 115.75434875488281 187.6552734375 116.15143585205078 C 187.6612548828125 129.4974822998047 187.667236328125 142.8427734375 187.67247009277344 156.18807983398438 C 187.8212890625 157.4974822998047 187.80783081054688 158.59974670410156 187.6754608154297 159.9084014892578 C 187.6754608154297 160.0377655029297 187.6754608154297 160.16714477539062 187.6754608154297 160.2965087890625 C 185.26528930664062 166.68948364257812 178.6053466796875 170.78968811035156 171.857177734375 170.95420837402344 C 166.66741943359375 171.08058166503906 160.7470703125 168.0706787109375 161.4417724609375 162.0747833251953 C 162.08189392089844 156.55001831054688 167.44662475585938 152.51861572265625 172.3798828125 150.9310302734375 C 173.78948974609375 150.4778594970703 175.25518798828125 150.1996612548828 176.7321014404297 150.10545349121094 C 177.43130493164062 150.06057739257812 178.67041015625 150.25650024414062 179.2933349609375 149.64553833007812 C 179.57077026367188 149.37335205078125 179.59544372558594 148.9291534423828 179.74649047851562 148.5717010498047 C 179.74649047851562 143.31764221191406 179.74649047851562 138.06431579589844 179.74649047851562 132.81100463867188 C 179.55133056640625 132.41390991210938 179.51243591308594 131.8896942138672 179.16246032714844 131.6197509765625 C 178.81399536132812 131.35128784179688 178.3002471923828 131.44850158691406 177.8687744140625 131.3625030517578 C 171.30380249023438 133.16920471191406 164.73809814453125 134.9751434326172 158.17312622070312 136.7810821533203 C 157.67208862304688 137.1175994873047 157.2675323486328 137.65078735351562 157.07833862304688 138.2235870361328 C 157.07833862304688 147.37596130371094 157.07833862304688 156.52833557128906 157.07833862304688 165.67994689941406 C 157.9323272705078 174.73361206054688 147.93270874023438 180.83642578125 139.70761108398438 180.22845458984375 C 134.38772583007812 179.83511352539062 129.51429748535156 175.91064453125 131.04580688476562 170.14134216308594 C 132.3522186279297 165.2222900390625 137.11422729492188 161.7292938232422 141.74986267089844 160.24041748046875 C 143.1669464111328 159.78575134277344 144.63937377929688 159.507568359375 146.12451171875 159.41485595703125 C 146.80874633789062 159.37147521972656 148.0792694091797 159.56591796875 148.69546508789062 158.96243286132812 C 148.9736328125 158.6902313232422 148.99533081054688 158.24378967285156 149.1448974609375 157.8848419189453 C 149.1448974609375 147.2256622314453 149.1448974609375 136.5657196044922 149.1448974609375 125.90653228759766 C 149.33558654785156 125.33146667480469 149.7408905029297 124.79679107666016 150.24267578125 124.45803833007812 C 162.09011840820312 121.2058334350586 173.93682861328125 117.95438385009766 185.78427124023438 114.70293426513672 C 185.78427124023438 114.70293426513672 185.78128051757812 114.70293426513672 185.78128051757812 114.70293426513672" stroke-width="0.0" fill="rgb(248, 179, 23)" opacity="1.0"/>
    <path d="M 149.36399841308594 40.26359558105469 C 149.36399841308594 40.26359558105469 149.36399841308594 40.26359558105469 149.36399841308594 40.26359558105469 C 154.48570251464844 43.384925842285156 158.85736083984375 47.411102294921875 162.08413696289062 52.496917724609375 C 172.9646759033203 69.64553833007812 167.96261596679688 93.23350524902344 150.83717346191406 104.27631378173828 C 147.22378540039062 106.60647583007812 143.20584106445312 108.29875183105469 139.01513671875 109.26042175292969 C 134.81773376464844 110.22284698486328 130.45654296875 110.44943237304688 126.18358612060547 109.91474914550781 C 121.2578125 109.29930877685547 116.48084259033203 107.66984558105469 112.19143676757812 105.1736831665039 C 108.31183624267578 102.91606140136719 104.84950256347656 99.96298217773438 102.01831817626953 96.47897338867188 C 89.19723510742188 80.70480346679688 91.51467895507812 56.68909454345703 107.21031951904297 43.72517395019531 C 110.91045379638672 40.66815948486328 115.20508575439453 38.34697723388672 119.78688049316406 36.918670654296875 C 124.34698486328125 35.497100830078125 129.17630004882812 34.96391296386719 133.93606567382812 35.369972229003906 C 139.42868041992188 35.838844299316406 144.5668487548828 37.600669860839844 149.3669891357422 40.26658630371094 C 149.3669891357422 40.26658630371094 149.3669891357422 40.26658630371094 149.3669891357422 40.26658630371094 C 149.3669891357422 40.26658630371094 149.36399841308594 40.26359558105469 149.36399841308594 40.26359558105469" stroke-width="0.0" fill="rgb(70, 93, 169)" opacity="1.0"/>
    <path d="M 126.99346923828125 122.31183624267578 C 113.20919799804688 143.83436584472656 99.42494201660156 165.35763549804688 85.64068603515625 186.8801727294922 C 84.07103729248047 188.66368103027344 82.54327392578125 189.0360870361328 80.32903289794922 188.17611694335938 C 74.88577270507812 185.0061798095703 69.44251251220703 181.83624267578125 63.99924850463867 178.66629028320312 C 74.04374694824219 176.35708618164062 82.80500793457031 170.28343200683594 90.52682495117188 163.67584228515625 C 104.51224517822266 151.708740234375 116.13684844970703 137.08694458007812 126.99346923828125 122.31183624267578 C 126.99346923828125 122.31183624267578 126.99346923828125 122.31183624267578 126.99346923828125 122.31183624267578" stroke-width="0.0" fill="rgb(66, 103, 186)" opacity="1.0"/>
    <path d="M 91.6201171875 134.26771545410156 C 91.6201171875 134.26771545410156 91.6201171875 134.26771545410156 91.6201171875 134.26771545410156 C 92.12488555908203 134.23406982421875 92.6468505859375 134.3028564453125 93.12619018554688 134.46664428710938 C 94.27032470703125 135.13291931152344 95.41522216796875 135.79922485351562 96.55935668945312 136.4662628173828 C 97.52851104736328 137.44886779785156 97.6376953125 137.85867309570312 97.28697204589844 139.19349670410156 C 95.71658325195312 141.9342041015625 94.14694213867188 144.6741485595703 92.57730102539062 147.4148406982422 C 91.74200439453125 148.37203979492188 91.07048034667969 148.55599975585938 89.86801147460938 148.1446990966797 C 88.7231216430664 147.47840881347656 87.57898712158203 146.81137084960938 86.43409729003906 146.14508056640625 C 85.46719360351562 145.16171264648438 85.35950469970703 144.75192260742188 85.71022033691406 143.41783142089844 C 87.27986145019531 140.67713928222656 88.84950256347656 137.9364471435547 90.41914367675781 135.19573974609375 C 90.75117492675781 134.81436157226562 91.16694641113281 134.4927978515625 91.6201171875 134.26771545410156 C 91.6201171875 134.26771545410156 91.6201171875 134.26771545410156 91.6201171875 134.26771545410156" stroke-width="0.0" fill="rgb(239, 57, 60)" opacity="1.0"/>
    <path d="M 84.45989990234375 146.76425170898438 C 84.45989990234375 146.76425170898438 84.45989990234375 146.76425170898438 84.45989990234375 146.76425170898438 C 84.96540832519531 146.73060607910156 85.48738098144531 146.79940795898438 85.96672058105469 146.96243286132812 C 87.11161041259766 147.62872314453125 88.25574493408203 148.29576110839844 89.400634765625 148.96205139160156 C 90.36754608154297 149.94691467285156 90.47522735595703 150.3574676513672 90.12525939941406 151.69227600097656 C 89.67059326171875 152.4864501953125 89.21517944335938 153.28062438964844 88.76051330566406 154.0747833251953 C 87.92820739746094 155.0342254638672 87.25593566894531 155.21368408203125 86.05421447753906 154.80165100097656 C 84.91007232666016 154.13536071777344 83.76593780517578 153.46832275390625 82.62179565429688 152.80203247070312 C 81.6511459350586 151.8194122314453 81.54271697998047 151.4096221923828 81.8941879272461 150.0747833251953 C 82.3488540649414 149.28062438964844 82.80276489257812 148.4864501953125 83.25743103027344 147.69227600097656 C 83.59095001220703 147.3109130859375 84.00672912597656 146.98934936523438 84.45989990234375 146.76425170898438 C 84.45989990234375 146.76425170898438 84.45989990234375 146.76425170898438 84.45989990234375 146.76425170898438" stroke-width="0.0" fill="rgb(248, 178, 23)" opacity="1.0"/>
    <path d="M 187.70761108398438 156.4976806640625 C 187.70761108398438 156.4976806640625 187.70761108398438 156.4976806640625 187.70761108398438 156.4976806640625 C 187.85568237304688 157.59918212890625 187.85418701171875 158.5182342529297 187.70462036132812 159.61900329589844 C 187.6949005126953 159.8448486328125 187.6851806640625 160.0706787109375 187.6754608154297 160.2965087890625 C 184.49954223632812 168.72052001953125 173.70948791503906 173.38980102539062 165.47467041015625 169.56851196289062 C 165.47467041015625 169.56851196289062 165.47467041015625 169.56851196289062 165.47467041015625 169.56851196289062 C 173.46197509765625 166.40756225585938 181.59506225585938 162.70069885253906 187.70761108398438 156.4976806640625 C 187.70761108398438 156.4976806640625 187.70761108398438 156.4976806640625 187.70761108398438 156.4976806640625" stroke-width="0.0" fill="rgb(248, 178, 23)" opacity="1.0"/>
    <path d="M 97.32435607910156 48.44755554199219 C 97.32435607910156 48.44755554199219 97.32435607910156 48.44755554199219 97.32435607910156 48.44755554199219 C 99.1146011352539 48.14918518066406 100.37689208984375 48.31519317626953 102.03103637695312 49.063743591308594 C 123.17667388916016 61.371849060058594 144.32305908203125 73.67994689941406 165.46868896484375 85.988037109375 C 166.65618896484375 86.88465881347656 167.58721923828125 87.70648956298828 168.14059448242188 89.13853454589844 C 169.45298767089844 92.53356170654297 167.50645446777344 96.47299194335938 163.98280334472656 97.42195129394531 C 162.2882843017578 97.87811279296875 160.81884765625 97.50271606445312 159.27313232421875 96.80277252197266 C 138.12750244140625 84.49617004394531 116.98111724853516 72.19031524658203 95.83547973632812 59.88371276855469 C 94.8296890258789 59.12394714355469 94.50140380859375 59.00953674316406 93.79473114013672 57.94989776611328 C 91.29631805419922 54.200408935546875 93.47616577148438 49.90876770019531 97.32435607910156 48.44755554199219 C 97.32435607910156 48.44755554199219 97.32435607910156 48.44755554199219 97.32435607910156 48.44755554199219" stroke-width="0.0" fill="rgb(90, 126, 200)" opacity="1.0"/>
    <path d="M 166.931396484375 64.00934600830078 C 166.931396484375 64.00934600830078 166.931396484375 64.00934600830078 166.931396484375 64.00934600830078 C 168.55487060546875 71.47691345214844 168.0912322998047 78.82408142089844 165.53598022460938 86.02616882324219 C 162.955322265625 84.52308654785156 160.37464904785156 83.01925659179688 157.79324340820312 81.51542663574219 C 161.82015991210938 76.17385864257812 164.85174560546875 70.367919921875 166.931396484375 64.00934600830078 C 166.931396484375 64.00934600830078 166.931396484375 64.00934600830078 166.931396484375 64.00934600830078" stroke-width="0.0" fill="rgb(47, 70, 134)" opacity="1.0"/>
    <path d="M 148.8166046142578 90.72238159179688 C 152.3021240234375 92.75042724609375 155.78762817382812 94.77771759033203 159.27313232421875 96.80575561523438 C 149.65640258789062 107.91513061523438 134.5612335205078 112.9067153930664 120.30809783935547 108.68611145019531 C 116.08525085449219 107.43578338623047 112.24527740478516 105.40475463867188 108.6715316772461 102.85548400878906 C 108.6715316772461 102.85548400878906 108.6715316772461 102.85548400878906 108.6715316772461 102.85548400878906 C 123.26416015625 104.06543731689453 137.3385772705078 99.81865692138672 148.8166046142578 90.72238159179688 C 148.8166046142578 90.72238159179688 148.8166046142578 90.72238159179688 148.8166046142578 90.72238159179688" stroke-width="0.0" fill="rgb(47, 70, 134)" opacity="1.0"/>
  </g>
</svg>
