<?xml version="1.0" ?>
<svg xmlns="http://www.w3.org/2000/svg" version="1.1" width="224" height="224">
  <defs/>
  <g>
    <path d="M 108.87071990966797 91.36846160888672 C 111.87303161621094 92.59395599365234 114.8753433227539 93.8187026977539 117.87841033935547 95.04419708251953 C 115.44689178466797 101.10125732421875 113.015380859375 107.1583251953125 110.58386993408203 113.21464538574219 C 107.58080291748047 111.99064636230469 104.57698822021484 110.7658920288086 101.57318115234375 109.54190063476562 C 104.00543975830078 103.48408508300781 106.4384536743164 97.42626953125 108.87071990966797 91.36846160888672" stroke-width="0.0" fill="rgb(91, 127, 200)" opacity="1.0"/>
    <path d="M 169.43386840820312 60.024688720703125 C 169.43386840820312 60.024688720703125 169.43386840820312 60.024688720703125 169.43386840820312 60.024688720703125 C 169.78518676757812 60.17974853515625 170.13575744628906 60.334808349609375 170.486328125 60.4898681640625 C 171.5874786376953 61.76030731201172 172.68788146972656 63.029998779296875 173.78826904296875 64.3004379272461 C 174.34109497070312 65.47874450683594 174.04820251464844 66.18212890625 172.80023193359375 66.57015228271484 C 170.6571044921875 66.62034606933594 168.51473999023438 66.66978454589844 166.3716278076172 66.71922302246094 C 165.10867309570312 66.38737487792969 164.77833557128906 65.70046997070312 165.27496337890625 64.49669647216797 C 166.31695556640625 63.17756652832031 167.3596649169922 61.858436584472656 168.40164184570312 60.539306640625 C 168.74546813964844 60.367767333984375 169.0900421142578 60.196224212646484 169.43386840820312 60.024688720703125 C 169.43386840820312 60.024688720703125 169.43386840820312 60.024688720703125 169.43386840820312 60.024688720703125" stroke-width="0.0" fill="rgb(203, 52, 38)" opacity="1.0"/>
    <path d="M 96.20377349853516 30.18506622314453 C 96.20377349853516 30.18506622314453 96.20377349853516 30.18506622314453 96.20377349853516 30.18506622314453 C 96.56257629394531 30.31915283203125 97.01202392578125 30.314659118652344 97.28019714355469 30.58807373046875 C 97.55136108398438 30.864486694335938 97.53938293457031 31.31768035888672 97.6689682006836 31.682479858398438 C 97.50717163085938 33.361167907714844 97.34536743164062 35.03986358642578 97.18356323242188 36.71855163574219 C 96.71539306640625 37.93280792236328 95.99702453613281 38.194236755371094 94.8674087524414 37.546287536621094 C 93.36100769042969 36.009918212890625 91.85536193847656 34.47355651855469 90.34895324707031 32.93719482421875 C 89.72572326660156 31.791847229003906 89.9841537475586 31.075729370117188 91.20216369628906 30.608299255371094 C 92.86961364746094 30.46746826171875 94.53631591796875 30.325897216796875 96.20377349853516 30.18506622314453" stroke-width="0.0" fill="rgb(203, 51, 37)" opacity="1.0"/>
    <path d="M 79.3726806640625 157.34820556640625 C 84.0536880493164 159.156494140625 88.73544311523438 160.9647674560547 93.41644287109375 162.77305603027344 C 90.67704772949219 169.9814453125 87.93766784667969 177.18984985351562 85.19828033447266 184.39825439453125 C 84.9495849609375 184.8514404296875 84.62822723388672 185.27243041992188 84.25668334960938 185.63198852539062 C 83.26116180419922 186.360107421875 82.2663803100586 187.0882110595703 81.2708511352539 187.81631469726562 C 80.89556121826172 187.9766082763672 80.52027130126953 188.13616943359375 80.14498138427734 188.29647827148438 C 78.81986236572266 188.53018188476562 77.49473571777344 188.76390075683594 76.16961669921875 188.99835205078125 C 75.29917907714844 188.93618774414062 74.41825866699219 188.6328125 73.69315338134766 188.1466522216797 C 72.94706726074219 187.3211669921875 72.20098876953125 186.4956817626953 71.45565032958984 185.67019653320312 C 71.1552734375 185.2237548828125 70.92230224609375 184.724853515625 70.77398681640625 184.20799255371094 C 70.56948852539062 182.75701904296875 70.364990234375 181.30604553222656 70.15974426269531 179.8558349609375 C 70.15524291992188 179.3621826171875 70.22190856933594 178.862548828125 70.35600280761719 178.38763427734375 C 73.362060546875 171.37399291992188 76.36737060546875 164.36109924316406 79.3726806640625 157.34820556640625" stroke-width="0.0" fill="rgb(248, 179, 23)" opacity="1.0"/>
    <path d="M 139.71336364746094 28.0 C 139.71336364746094 28.0 139.71336364746094 28.0 139.71336364746094 28.0 C 141.09915161132812 29.020248413085938 141.2107696533203 30.050979614257812 142.05422973632812 31.508689880371094 C 142.7935791015625 32.788124084472656 143.70819091796875 33.965675354003906 144.76365661621094 35.000160217285156 C 145.82284545898438 36.037635803222656 147.0221405029297 36.93053436279297 148.321044921875 37.645164489746094 C 148.93603515625 37.983001708984375 150.42221069335938 38.35603332519531 150.38848876953125 39.44969177246094 C 150.3540496826172 40.54560089111328 148.84913635253906 40.823509216308594 148.21316528320312 41.123138427734375 C 146.42811584472656 41.96435546875 144.7996063232422 43.13292694091797 143.43028259277344 44.55392837524414 C 142.4018096923828 45.619869232177734 141.51939392089844 46.82664108276367 140.81674194335938 48.13079071044922 C 140.48789978027344 48.74129104614258 140.12310791015625 50.24244689941406 139.0316925048828 50.20948791503906 C 137.9410400390625 50.17728042602539 137.66836547851562 48.654396057128906 137.37847900390625 48.026668548583984 C 136.7574920654297 46.680564880371094 135.95071411132812 45.421363830566406 134.98965454101562 44.293251037597656 C 133.71022033691406 42.78984069824219 132.15737915039062 41.52239990234375 130.427001953125 40.571067810058594 C 129.81350708007812 40.233238220214844 128.3228302001953 39.8564453125 128.35430908203125 38.765785217285156 C 128.38575744628906 37.667633056640625 129.8944091796875 37.38897705078125 130.53038024902344 37.08934783935547 C 131.8704833984375 36.45787048339844 133.1237030029297 35.642120361328125 134.2443084716797 34.67280578613281 C 135.3612060546875 33.70649719238281 136.34548950195312 32.58811950683594 137.1619873046875 31.35663604736328 C 138.09384155273438 29.95135498046875 138.26388549804688 28.931861877441406 139.71336364746094 28.0 C 139.71336364746094 28.0 139.71336364746094 28.0 139.71336364746094 28.0" stroke-width="0.0" fill="rgb(91, 127, 201)" opacity="1.0"/>
    <path d="M 129.56256103515625 141.5635986328125 C 129.56256103515625 141.5635986328125 129.56256103515625 141.5635986328125 129.56256103515625 141.5635986328125 C 129.85470581054688 141.7066650390625 130.14759826660156 141.85049438476562 130.4397430419922 141.99356079101562 C 132.13340759277344 143.91793823242188 133.82632446289062 145.8423309326172 135.52000427246094 147.7667236328125 C 135.7162628173828 148.34051513671875 135.67431640625 149.0364227294922 135.41139221191406 149.583251953125 C 133.50123596191406 151.28964233398438 131.59182739257812 152.99681091308594 129.6824188232422 154.70321655273438 C 129.1153564453125 154.90171813964844 128.4232177734375 154.85977172851562 127.88387298583984 154.59535217285156 C 126.19020080566406 152.67095947265625 124.49653625488281 150.74656677246094 122.80286407470703 148.8221893310547 C 122.60735321044922 148.2491455078125 122.64855194091797 147.5547332763672 122.91148376464844 147.0093994140625 C 124.8216323852539 145.30075073242188 126.73104095458984 143.5928497314453 128.6404571533203 141.88494873046875 C 128.94757080078125 141.77783203125 129.2554473876953 141.6707000732422 129.56256103515625 141.5635986328125 C 129.56256103515625 141.5635986328125 129.56256103515625 141.5635986328125 129.56256103515625 141.5635986328125" stroke-width="0.0" fill="rgb(67, 187, 78)" opacity="1.0"/>
    <path d="M 102.26982116699219 180.23861694335938 C 102.26982116699219 180.23861694335938 102.26982116699219 180.23861694335938 102.26982116699219 180.23861694335938 C 104.24514770507812 180.81838989257812 105.60322570800781 182.9869842529297 107.61076354980469 183.8798828125 C 108.94487762451172 184.47390747070312 110.35389709472656 184.4087371826172 111.6640396118164 184.88290405273438 C 111.97415924072266 184.99526977539062 112.3412094116211 185.1802978515625 112.44158172607422 185.49417114257812 C 112.69926452636719 186.30166625976562 111.45279693603516 187.07472229003906 111.12919616699219 187.4140625 C 110.16587829589844 188.4268035888672 109.38084411621094 189.60885620117188 108.82127380371094 190.88978576660156 C 108.23400115966797 192.23138427734375 108.30366516113281 193.64715576171875 107.8347396850586 194.96478271484375 C 107.723876953125 195.27565002441406 107.5418472290039 195.6464385986328 107.22723388671875 195.74832153320312 C 106.91412353515625 195.84945678710938 106.55156707763672 195.6554412841797 106.28189849853516 195.4674072265625 C 105.13729858398438 194.671142578125 104.37623596191406 193.4853515625 103.1185302734375 192.74002075195312 C 101.92150115966797 192.0306396484375 100.59862518310547 191.53323364257812 99.23004913330078 191.27931213378906 C 98.7723617553711 191.19390869140625 97.31166076660156 191.30178833007812 97.05471801757812 190.49276733398438 C 96.954345703125 190.1759033203125 97.14836120605469 189.81036376953125 97.33562469482422 189.53619384765625 C 98.12516021728516 188.38111877441406 99.30645751953125 187.60206604003906 100.04505157470703 186.33688354492188 C 101.15594482421875 184.43121337890625 101.00088500976562 181.87310791015625 102.26982116699219 180.23861694335938 C 102.26982116699219 180.23861694335938 102.26982116699219 180.23861694335938 102.26982116699219 180.23861694335938" stroke-width="0.0" fill="rgb(91, 127, 201)" opacity="1.0"/>
    <path d="M 94.87040710449219 35.18292999267578 C 94.87040710449219 35.18292999267578 94.87040710449219 35.18292999267578 94.87040710449219 35.18292999267578 C 96.10938262939453 34.838356018066406 96.57156372070312 34.6361083984375 97.843505859375 34.55744934082031 C 105.18374633789062 34.102012634277344 106.26841735839844 42.64152526855469 108.67670440673828 47.62965393066406 C 111.30597686767578 53.07696533203125 115.0244140625 58.1400032043457 120.1908187866211 61.41797637939453 C 128.43370056152344 66.64581298828125 138.59872436523438 66.06826782226562 147.63787841796875 63.482444763183594 C 149.978759765625 62.81276321411133 152.28067016601562 62.009002685546875 154.54290771484375 61.11085510253906 C 156.58265686035156 60.300350189208984 158.56546020507812 59.522056579589844 160.81195068359375 59.74678039550781 C 164.85324096679688 60.152034759521484 168.40687561035156 64.59407806396484 167.84732055664062 68.65259552001953 C 167.49449157714844 71.21145629882812 165.41656494140625 73.77030944824219 163.27418518066406 75.09843444824219 C 160.09732055664062 76.58610534667969 156.92047119140625 78.07377624511719 153.74362182617188 79.56145477294922 C 150.45742797851562 80.80268096923828 146.71351623535156 81.40194702148438 143.25350952148438 81.94277954101562 C 130.97457885742188 83.86117553710938 118.10613250732422 82.28286743164062 108.16433715820312 74.31564331054688 C 101.92524719238281 69.31478118896484 97.58357238769531 62.57155990600586 94.2381820678711 55.39537048339844 C 92.8913345336914 52.028255462646484 91.54373931884766 48.661136627197266 90.19689178466797 45.293270111083984 C 89.03731536865234 40.953102111816406 90.89054107666016 36.967247009277344 94.87040710449219 35.18292999267578 C 94.87040710449219 35.18292999267578 94.87040710449219 35.18292999267578 94.87040710449219 35.18292999267578" stroke-width="0.0" fill="rgb(239, 57, 60)" opacity="1.0"/>
    <path d="M 138.31558227539062 103.2391357421875 C 138.31558227539062 103.2391357421875 138.31558227539062 103.2391357421875 138.31558227539062 103.2391357421875 C 140.10662841796875 103.64738464355469 141.61376953125 104.41893768310547 142.11566162109375 106.36429595947266 C 142.80181884765625 109.02054595947266 140.66094970703125 111.92172241210938 137.8181915283203 111.664794921875 C 134.67727661132812 111.38088989257812 132.80233764648438 107.82949829101562 134.5634307861328 105.13505554199219 C 135.46083068847656 103.76199340820312 136.7739715576172 103.3552474975586 138.31558227539062 103.2391357421875 C 138.31558227539062 103.2391357421875 138.31558227539062 103.2391357421875 138.31558227539062 103.2391357421875" stroke-width="0.0" fill="rgb(249, 179, 23)" opacity="1.0"/>
    <path d="M 57.37968063354492 143.37112426757812 C 57.37968063354492 143.37112426757812 57.37968063354492 143.37112426757812 57.37968063354492 143.37112426757812 C 59.602203369140625 143.77188110351562 61.47564697265625 144.7441864013672 62.38503646850586 146.95248413085938 C 63.964847564697266 150.79151916503906 60.92657470703125 155.34742736816406 56.686031341552734 155.01632690429688 C 52.16907501220703 154.66351318359375 49.65890884399414 149.34054565429688 52.41102600097656 145.68203735351562 C 53.655250549316406 144.02880859375 55.39686584472656 143.4542694091797 57.37968063354492 143.37112426757812 C 57.37968063354492 143.37112426757812 57.37968063354492 143.37112426757812 57.37968063354492 143.37112426757812" stroke-width="0.0" fill="rgb(249, 179, 23)" opacity="1.0"/>
    <path d="M 73.54633331298828 93.45015716552734 C 73.54633331298828 93.45015716552734 73.54633331298828 93.45015716552734 73.54633331298828 93.45015716552734 C 74.02499389648438 93.60521697998047 74.46620178222656 93.98200225830078 74.69317626953125 94.43070220947266 C 74.822021484375 95.9977798461914 74.95085906982422 97.56559753417969 75.07894897460938 99.1334228515625 C 74.64073944091797 100.52522277832031 73.62199401855469 100.60612487792969 72.95906066894531 99.3079605102539 C 72.83021545410156 97.74163055419922 72.70137023925781 96.17530822753906 72.57328033447266 94.60897827148438 C 72.72459411621094 94.1273193359375 73.09838104248047 93.68236541748047 73.54633331298828 93.45015716552734 C 73.54633331298828 93.45015716552734 73.54633331298828 93.45015716552734 73.54633331298828 93.45015716552734" stroke-width="0.0" fill="rgb(240, 57, 60)" opacity="1.0"/>
    <path d="M 74.2841796875 102.42863464355469 C 74.2841796875 102.42863464355469 74.2841796875 102.42863464355469 74.2841796875 102.42863464355469 C 74.76359558105469 102.58369445800781 75.20479583740234 102.96272277832031 75.43326568603516 103.41217041015625 C 75.56285858154297 104.97850036621094 75.69244384765625 106.54483032226562 75.82203674316406 108.11190795898438 C 75.38008117675781 109.502197265625 74.36358642578125 109.59133911132812 73.69839477539062 108.28943634033203 C 73.56954956054688 106.72236633300781 73.44145965576172 105.15453338623047 73.3126220703125 103.58745574951172 C 73.46468353271484 103.10655212402344 73.83697509765625 102.66234588623047 74.2841796875 102.42863464355469 C 74.2841796875 102.42863464355469 74.2841796875 102.42863464355469 74.2841796875 102.42863464355469" stroke-width="0.0" fill="rgb(240, 57, 60)" opacity="1.0"/>
    <path d="M 71.98749542236328 100.46978759765625 C 71.98749542236328 100.46978759765625 71.98749542236328 100.46978759765625 71.98749542236328 100.46978759765625 C 73.37179565429688 100.9169921875 73.45344543457031 101.93724060058594 72.16352844238281 102.6069107055664 C 70.60919189453125 102.73650360107422 69.05559539794922 102.8668441772461 67.50125122070312 102.99642944335938 C 66.10871887207031 102.54998779296875 66.03530883789062 101.531982421875 67.32597351074219 100.8578109741211 C 68.88031005859375 100.72821807861328 70.43389892578125 100.59938049316406 71.98749542236328 100.46978759765625" stroke-width="0.0" fill="rgb(240, 57, 60)" opacity="1.0"/>
    <path d="M 80.893310546875 99.72370147705078 C 80.893310546875 99.72370147705078 80.893310546875 99.72370147705078 80.893310546875 99.72370147705078 C 82.2821044921875 100.16716003417969 82.35476684570312 101.19039916992188 81.068603515625 101.861572265625 C 79.51499938964844 101.99117279052734 77.96141052246094 102.12075805664062 76.40707397460938 102.25035095214844 C 75.01902770996094 101.80689239501953 74.93887329101562 100.78365325927734 76.22804260253906 100.11247253417969 C 77.78312683105469 99.9828872680664 79.33821868896484 99.8532943725586 80.893310546875 99.72370147705078" stroke-width="0.0" fill="rgb(240, 58, 61)" opacity="1.0"/>
    <path d="M 78.58614349365234 176.18533325195312 C 78.58614349365234 176.18533325195312 78.58614349365234 176.18533325195312 78.58614349365234 176.18533325195312 C 77.47676086425781 176.49020385742188 76.92693328857422 176.40257263183594 76.29545593261719 177.511962890625 C 75.30517578125 179.25282287597656 76.55164337158203 181.52552795410156 78.58614349365234 181.52627563476562 C 80.62065124511719 181.52627563476562 81.87161254882812 179.2543182373047 80.87833404541016 177.511962890625 C 80.24610900878906 176.40257263183594 79.6955337524414 176.49020385742188 78.58614349365234 176.18533325195312 C 78.58614349365234 176.18533325195312 78.58614349365234 176.18533325195312 78.58614349365234 176.18533325195312" stroke-width="0.0" fill="rgb(255, 254, 254)" opacity="1.0"/>
    <path d="M 102.29903411865234 107.74336242675781 C 102.29903411865234 107.74336242675781 102.29903411865234 107.74336242675781 102.29903411865234 107.74336242675781 C 102.67881774902344 107.80852508544922 103.05935668945312 107.87369537353516 103.43913269042969 107.93962097167969 C 105.74031066894531 108.87896728515625 108.04073333740234 109.81830596923828 110.34191131591797 110.75840759277344 C 111.76741790771484 111.74644470214844 112.1644287109375 112.553955078125 111.85655212402344 114.27308654785156 C 105.71034240722656 130.4397430419922 99.56489562988281 146.6063995361328 93.41943359375 162.77305603027344 C 88.73768615722656 160.9647674560547 84.05667877197266 159.156494140625 79.37492370605469 157.34820556640625 C 86.22602081298828 141.3628387451172 93.07635498046875 125.3774642944336 99.92744445800781 109.39282989501953 C 100.63382720947266 108.33663177490234 101.06305694580078 108.03924560546875 102.29903411865234 107.74336242675781 C 102.29903411865234 107.74336242675781 102.29903411865234 107.74336242675781 102.29903411865234 107.74336242675781" stroke-width="0.0" fill="rgb(67, 187, 78)" opacity="1.0"/>
    <path d="M 144.2557830810547 34.478050231933594 C 144.2557830810547 34.478050231933594 144.2557830810547 34.478050231933594 144.2557830810547 34.478050231933594 C 145.53671264648438 35.74774169921875 146.86257934570312 36.86686706542969 148.4618682861328 37.72381591796875 C 149.08810424804688 38.060150146484375 150.4214630126953 38.37776184082031 150.38848876953125 39.44969177246094 C 150.3540496826172 40.54560089111328 148.84913635253906 40.823509216308594 148.21316528320312 41.123138427734375 C 146.42811584472656 41.96435546875 144.7996063232422 43.13292694091797 143.43028259277344 44.55392837524414 C 142.4018096923828 45.619869232177734 141.51939392089844 46.82664108276367 140.81674194335938 48.13079071044922 C 140.48789978027344 48.74129104614258 140.12310791015625 50.24244689941406 139.0316925048828 50.20948791503906 C 137.9657440185547 50.17802810668945 137.7305450439453 48.80795669555664 137.44288635253906 48.169742584228516 C 136.69456481933594 46.51127624511719 135.6690673828125 45.1045036315918 134.49002075195312 43.73143768310547 C 134.49002075195312 43.73143768310547 134.49002075195312 43.73143768310547 134.49002075195312 43.73143768310547 C 138.48110961914062 43.09547424316406 141.98831176757812 41.517906188964844 143.51792907714844 37.50358581542969 C 143.98910522460938 36.26835632324219 144.01382446289062 35.78968811035156 144.2557830810547 34.478050231933594 C 144.2557830810547 34.478050231933594 144.2557830810547 34.478050231933594 144.2557830810547 34.478050231933594" stroke-width="0.0" fill="rgb(66, 103, 186)" opacity="1.0"/>
    <path d="M 132.98062133789062 144.8827667236328 C 133.82708740234375 145.8438262939453 134.67355346679688 146.8056640625 135.52000427246094 147.7667236328125 C 135.7162628173828 148.34051513671875 135.67431640625 149.0364227294922 135.41139221191406 149.583251953125 C 133.50123596191406 151.28964233398438 131.59182739257812 152.99681091308594 129.6824188232422 154.70321655273438 C 129.11611938476562 154.90097045898438 128.42396545410156 154.86050415039062 127.88612365722656 154.59535217285156 C 127.0389175415039 153.63351440429688 126.19169616699219 152.67095947265625 125.34524536132812 151.70838928222656 C 129.29739379882812 150.72035217285156 131.8023223876953 148.86563110351562 132.98062133789062 144.8827667236328 C 132.98062133789062 144.8827667236328 132.98062133789062 144.8827667236328 132.98062133789062 144.8827667236328" stroke-width="0.0" fill="rgb(50, 169, 64)" opacity="1.0"/>
    <path d="M 106.9927749633789 183.58474731445312 C 106.9927749633789 183.58474731445312 106.9927749633789 183.58474731445312 106.9927749633789 183.58474731445312 C 108.12538146972656 184.09861755371094 109.21529388427734 184.5323486328125 110.45053100585938 184.7413330078125 C 110.94416809082031 184.82522583007812 112.19139099121094 184.70986938476562 112.44158172607422 185.49417114257812 C 112.69926452636719 186.30166625976562 111.45279693603516 187.07472229003906 111.12919616699219 187.4140625 C 110.16587829589844 188.4268035888672 109.38084411621094 189.60885620117188 108.82127380371094 190.88978576660156 C 108.23400115966797 192.23138427734375 108.30366516113281 193.64715576171875 107.8347396850586 194.96478271484375 C 107.723876953125 195.27565002441406 107.5418472290039 195.6464385986328 107.22723388671875 195.74832153320312 C 106.44969177246094 196.0 105.80623626708984 194.9033660888672 105.45940399169922 194.55804443359375 C 104.57025146484375 193.6703643798828 103.58146667480469 193.03067016601562 102.50353240966797 192.4021759033203 C 102.50353240966797 192.4021759033203 102.50353240966797 192.4021759033203 102.50353240966797 192.4021759033203 C 106.13957214355469 190.3399658203125 107.59278869628906 187.7623748779297 106.9927749633789 183.58474731445312 C 106.9927749633789 183.58474731445312 106.9927749633789 183.58474731445312 106.9927749633789 183.58474731445312" stroke-width="0.0" fill="rgb(66, 103, 186)" opacity="1.0"/>
    <path d="M 105.32007598876953 71.80548095703125 C 105.32007598876953 71.80548095703125 105.32007598876953 71.80548095703125 105.32007598876953 71.80548095703125 C 106.84519958496094 73.24446105957031 108.43025970458984 74.56059265136719 110.12842559814453 75.79133605957031 C 110.04153442382812 77.49774169921875 109.95463562011719 79.20339965820312 109.86774444580078 80.90980529785156 C 109.73365783691406 81.59596252441406 109.73965454101562 82.32256317138672 109.88497924804688 83.00647735595703 C 110.8250732421875 85.24172973632812 111.76441192626953 87.47773742675781 112.70451354980469 89.71299743652344 C 113.6805648803711 91.15571594238281 114.56372833251953 91.51453399658203 116.27013397216797 91.1632080078125 C 118.48741149902344 90.21562194824219 120.7054443359375 89.26803588867188 122.92346954345703 88.32044982910156 C 123.49951171875 87.93168640136719 124.00514221191406 87.4140625 124.37968444824219 86.82903289794922 C 125.6501235961914 85.36157989501953 126.92056274414062 83.89413452148438 128.1909942626953 82.42742919921875 C 130.20602416992188 82.62294006347656 132.2083282470703 82.7218246459961 134.2330780029297 82.72257232666016 C 133.12893676757812 85.470947265625 132.02554321289062 88.21932220458984 130.92214965820312 90.96769714355469 C 130.58056640625 91.51752471923828 130.12661743164062 92.01042175292969 129.60601806640625 92.39469909667969 C 123.89128112792969 95.2404556274414 118.17654418945312 98.08621215820312 112.46180725097656 100.93122100830078 C 110.64079284667969 101.411376953125 109.67223358154297 101.00912475585938 108.70367431640625 99.39559936523438 C 106.55980682373047 93.34378814697266 104.41668701171875 87.29196166992188 102.27281951904297 81.23939514160156 C 102.16419982910156 80.59968566894531 102.17918395996094 79.92774963378906 102.31327056884766 79.29253387451172 C 103.31553649902344 76.79660034179688 104.31780242919922 74.3006591796875 105.32007598876953 71.80548095703125" stroke-width="0.0" fill="rgb(91, 127, 201)" opacity="1.0"/>
  </g>
</svg>
