<?xml version="1.0" ?>
<svg xmlns="http://www.w3.org/2000/svg" version="1.1" width="224" height="224">
  <defs/>
  <g>
    <path d="M 60.35708236694336 157.71414184570312 C 60.62605285644531 148.851806640625 60.818355560302734 147.61459350585938 62.1295051574707 147.3323974609375 C 63.33525848388672 147.0904541015625 63.4951286315918 147.99880981445312 63.58531951904297 157.46710205078125 C 63.59819030761719 167.42141723632812 63.47053527832031 167.91262817382812 61.80387496948242 167.95326232910156 C 60.15739822387695 167.9603271484375 60.21418762207031 167.54638671875 60.35708236694336 157.71414184570312" stroke-width="1.0" fill="rgb(255, 255, 255)" opacity="1.0"/>
    <path d="M 161.36361694335938 157.81442260742188 L 161.76719665527344 145.49237060546875 L 166.8567657470703 145.6510467529297 L 165.54214477539062 169.91378784179688 L 160.77816772460938 169.76373291015625 L 161.36361694335938 157.81442260742188" stroke-width="1.0" fill="rgb(255, 255, 255)" opacity="1.0"/>
    <path d="M 82.81443786621094 54.87464904785156 C 83.26458740234375 53.74995422363281 84.78237915039062 52.27145767211914 85.97810363769531 51.32077407836914 C 88.03832244873047 49.826576232910156 89.41355895996094 49.86626434326172 98.0485610961914 50.04571533203125 L 107.87963104248047 50.61278533935547 L 108.20918273925781 54.09373474121094 L 108.24737548828125 57.4651985168457 L 95.02165222167969 57.28101348876953 C 82.16104125976562 56.32923889160156 81.81777954101562 56.15045166015625 82.81443786621094 54.87464904785156" stroke-width="1.0" fill="rgb(250, 250, 252)" opacity="0.89184433"/>
    <path d="M 118.15966796875 52.36732482910156 L 118.48747253417969 48.83967590332031 L 127.86056518554688 49.25511169433594 C 133.54244995117188 48.971256256103516 138.14837646484375 49.26015090942383 139.01707458496094 49.672203063964844 C 139.68800354003906 49.81431198120117 141.2596435546875 51.469825744628906 142.445556640625 53.09001922607422 L 144.93411254882812 55.744842529296875 L 117.79283142089844 55.6383056640625 L 118.15966796875 52.36732482910156" stroke-width="1.0" fill="rgb(251, 250, 252)" opacity="0.9087688"/>
    <path d="M 109.20574951171875 56.7459831237793 C 108.89936065673828 56.41728210449219 108.37673950195312 54.881771087646484 108.0115966796875 53.01225662231445 L 108.2703857421875 49.621368408203125 L 117.7490234375 49.270606994628906 L 118.05613708496094 52.475894927978516 C 118.299072265625 54.65228271484375 117.61612701416016 55.62931442260742 116.29208374023438 56.52509689331055 C 114.90399932861328 57.29087829589844 109.98177337646484 57.51321029663086 109.20574951171875 56.7459831237793" stroke-width="1.0" fill="rgb(20, 120, 32)" opacity="0.9912369"/>
    <path d="M 83.89848327636719 165.93385314941406 C 83.57018280029297 165.75396728515625 83.14286804199219 145.49305725097656 82.8662338256836 121.54592895507812 C 82.41839599609375 85.86711120605469 82.50279998779297 77.95184326171875 83.0077896118164 77.04866790771484 C 83.72979736328125 76.60013580322266 92.33792114257812 76.46855926513672 113.08753967285156 76.2858657836914 L 142.3349609375 75.60095977783203 L 142.0381317138672 88.0704345703125 C 141.7742919921875 94.52775573730469 141.67770385742188 114.2234115600586 141.6466827392578 131.9205322265625 C 142.21136474609375 149.51397705078125 141.8709716796875 164.55160522460938 141.71754455566406 164.8955078125 C 141.38262939453125 166.44302368164062 84.9097671508789 167.35671997070312 83.89848327636719 165.93385314941406" stroke-width="0.0" fill="rgb(252, 254, 252)" opacity="0.8851031"/>
    <path d="M 35.555259704589844 194.4080810546875 C 31.12310028076172 193.24008178710938 30.13152313232422 191.19869995117188 31.305496215820312 181.17977905273438 C 30.620521545410156 173.13243103027344 30.71044158935547 170.2268829345703 33.80912780761719 169.01004028320312 C 34.460289001464844 167.9119415283203 38.54899597167969 168.67282104492188 43.09883117675781 168.52508544921875 C 45.84015655517578 168.5823974609375 49.12425994873047 168.3302001953125 50.0557975769043 168.86434936523438 C 50.517578125 169.119873046875 50.521976470947266 164.0079803466797 50.45896530151367 157.3936767578125 L 50.510677337646484 147.30255126953125 L 46.194129943847656 147.4552001953125 C 44.87022399902344 146.81045532226562 44.48646545410156 139.58154296875 45.86524963378906 139.4258270263672 C 49.71705627441406 140.1484375 51.239742279052734 138.83311462402344 50.19832229614258 136.43406677246094 C 53.10939407348633 131.02886962890625 58.664894104003906 131.49209594726562 60.001953125 137.91123962402344 C 59.780025482177734 140.0897216796875 63.37709426879883 139.91836547851562 64.07215881347656 139.37020874023438 C 64.65943908691406 132.28744506835938 65.39874267578125 131.88882446289062 73.68183135986328 132.19691467285156 C 78.46337127685547 131.93515014648438 82.53177642822266 132.94772338867188 82.90250396728516 132.96444702148438 C 83.48856353759766 133.3698272705078 83.76580047607422 140.81735229492188 83.24967193603516 149.6011199951172 L 83.81858825683594 168.57992553710938 L 112.19914245605469 168.33786010742188 C 128.321044921875 168.48020935058594 143.15304565429688 168.591064453125 144.4033203125 168.1507568359375 C 143.6370849609375 167.77699279785156 143.43511962890625 160.2158203125 143.91363525390625 150.72900390625 C 143.533447265625 141.7608184814453 143.53480529785156 133.67843627929688 143.78639221191406 133.13876342773438 C 144.17364501953125 132.3874053955078 146.82447814941406 132.00746154785156 152.776123046875 131.72833251953125 C 160.85435485839844 132.0389862060547 161.29647827148438 132.2978515625 161.0924072265625 134.99061584472656 C 161.57318115234375 135.39157104492188 162.321533203125 137.12673950195312 162.423095703125 137.8843994140625 C 161.90615844726562 138.981201171875 162.07107543945312 140.31161499023438 162.65208435058594 141.11859130859375 C 163.6291046142578 139.3984375 170.26162719726562 139.78627014160156 168.10638427734375 137.25799560546875 C 169.03065490722656 133.01751708984375 171.0572509765625 132.93017578125 172.6258087158203 132.0244598388672 C 174.43304443359375 132.99014282226562 175.75372314453125 133.34474182128906 177.46572875976562 135.63259887695312 C 177.21591186523438 138.48497009277344 177.8653564453125 140.07058715820312 180.97567749023438 139.7827606201172 C 182.49667358398438 140.4803466796875 182.82333374023438 146.51368713378906 180.87557983398438 147.39193725585938 C 176.02301025390625 146.73300170898438 177.83819580078125 148.4317626953125 177.38064575195312 159.61924743652344 C 177.55380249023438 170.21530151367188 176.41310119628906 168.57839965820312 181.40467834472656 168.26321411132812 C 187.80194091796875 168.14093017578125 191.79571533203125 168.07354736328125 192.94058227539062 172.1171875 C 192.57655334472656 176.46951293945312 194.18890380859375 192.309326171875 191.56948852539062 193.0914306640625 C 191.07412719726562 195.21499633789062 185.07513427734375 194.2047882080078 115.08680725097656 194.45980834960938 C 73.05081176757812 194.41656494140625 37.929969787597656 194.29505920410156 35.555259704589844 194.4080810546875" stroke-width="0.0" fill="rgb(55, 155, 35)" opacity="0.9778256"/>
    <path d="M 64.31307983398438 168.91944885253906 C 62.01255798339844 166.8109130859375 65.06639099121094 107.23593139648438 67.53860473632812 80.1856689453125 L 67.46570587158203 75.73516845703125 L 63.01285934448242 75.19120025634766 C 58.25247573852539 76.31123352050781 54.794002532958984 75.53643035888672 54.74197006225586 72.11273193359375 C 55.153682708740234 69.78380584716797 52.559444427490234 70.44735717773438 50.0584831237793 69.54386138916016 C 46.655418395996094 68.19058227539062 40.39643859863281 64.34867858886719 41.467079162597656 59.67064666748047 C 42.691192626953125 55.65892791748047 39.75639343261719 57.08884811401367 112.64057159423828 56.74818801879883 C 151.00875854492188 56.6142463684082 183.12002563476562 56.84005355834961 183.1830291748047 56.80320739746094 C 189.79344177246094 59.220584869384766 184.4111328125 67.90092468261719 175.27066040039062 69.93606567382812 C 174.150146484375 69.70499420166016 172.5825958251953 69.98222351074219 171.56454467773438 71.16373443603516 C 171.51614379882812 74.40263366699219 166.9344482421875 75.87680053710938 162.44825744628906 74.92314147949219 L 158.21755981445312 75.76245880126953 L 159.0404510498047 90.22660827636719 L 152.8459014892578 96.98505401611328 C 149.04319763183594 100.93186950683594 145.45101928710938 104.13897705078125 144.9005889892578 104.14364624023438 C 144.26187133789062 104.44889831542969 144.81382751464844 100.78508758544922 145.82374572753906 90.13993072509766 C 145.34317016601562 81.62869262695312 143.94479370117188 75.32777404785156 143.06361389160156 75.72695922851562 C 142.5596160888672 75.86517333984375 128.86756896972656 75.81840515136719 112.45216369628906 75.9217529296875 L 83.07038116455078 75.51390838623047 L 83.3141860961914 119.91545104980469 C 82.9854507446289 145.21780395507812 83.79332733154297 165.72286987304688 82.90919494628906 167.94583129882812 C 82.48721313476562 168.6576385498047 83.39088439941406 168.4183807373047 73.49462890625 168.55126953125 C 68.65132141113281 168.65380859375 64.07722473144531 168.68344116210938 64.31307983398438 168.91944885253906" stroke-width="0.0" fill="rgb(205, 26, 3)" opacity="0.96304214"/>
    <path d="M 142.73902893066406 119.99874877929688 L 143.43560791015625 71.77189636230469 L 145.26356506347656 70.19036102294922 C 148.37472534179688 67.92926788330078 154.23985290527344 68.02896118164062 156.6991424560547 70.14986419677734 C 158.27804565429688 71.64064025878906 158.66485595703125 73.02535247802734 159.5228729248047 84.14360046386719 C 161.01361083984375 109.06782531738281 162.6579132080078 147.07728576660156 162.58929443359375 157.52606201171875 L 162.80966186523438 168.68301391601562 L 142.4862823486328 168.53277587890625 L 142.73902893066406 119.99874877929688" stroke-width="1.0" fill="rgb(196, 24, 6)" opacity="0.98129517"/>
    <path d="M 67.58402252197266 53.20866775512695 L 64.08141326904297 49.32578659057617 L 55.7421989440918 47.92274475097656 C 49.23473358154297 46.99124526977539 46.6151123046875 46.4481086730957 45.18678283691406 44.81804275512695 C 44.104530334472656 43.159690856933594 43.454307556152344 41.94965744018555 43.100440979003906 41.08225631713867 C 43.68363952636719 39.42385482788086 42.238929748535156 39.09537887573242 36.841331481933594 38.64553451538086 C 30.29187774658203 37.94113540649414 28.0 35.524906158447266 29.163970947265625 31.7957763671875 C 29.630523681640625 29.08367156982422 31.198928833007812 28.92694091796875 38.5963134765625 30.218307495117188 C 55.085269927978516 32.83671569824219 71.09568786621094 34.940093994140625 105.5705337524414 35.367156982421875 C 142.51123046875 35.6871452331543 155.618896484375 34.61314392089844 176.033203125 31.712501525878906 C 182.9267578125 30.94683074951172 189.6355438232422 29.912391662597656 191.37002563476562 28.785003662109375 C 195.4931640625 29.881866455078125 195.58154296875 30.45867156982422 195.78271484375 32.517799377441406 C 196.0 36.172115325927734 194.50497436523438 37.646339416503906 187.74075317382812 38.54020690917969 C 182.66390991210938 39.474761962890625 182.39852905273438 38.87050247192383 181.6533203125 41.88531494140625 C 179.88815307617188 45.584693908691406 178.49380493164062 46.34511947631836 169.99191284179688 47.57190704345703 C 164.32537841796875 48.301063537597656 159.8496856689453 49.72510528564453 160.89930725097656 51.27595901489258 C 160.28924560546875 51.024330139160156 159.06817626953125 53.190608978271484 157.80606079101562 54.88268280029297 C 155.47047424316406 57.60841369628906 155.18502807617188 58.08155822753906 151.2298126220703 56.810482025146484 C 146.23660278320312 57.53696823120117 145.62091064453125 57.994422912597656 142.23294067382812 53.56694793701172 L 138.87109375 49.52166748046875 L 113.98772430419922 49.62541198730469 C 97.98443603515625 49.65458679199219 88.3916015625 48.97994613647461 87.29193115234375 50.32762908935547 C 86.74195098876953 50.55108642578125 84.76482391357422 52.70073699951172 82.85993957519531 54.72455596923828 C 80.3306884765625 57.19862365722656 79.99722290039062 57.5829963684082 76.30442810058594 57.203941345214844 C 71.37448120117188 57.738346099853516 70.84927368164062 57.750667572021484 67.58402252197266 53.20866775512695" stroke-width="1.0" fill="rgb(51, 21, 2)" opacity="0.99568844"/>
    <path d="M 56.088748931884766 74.22425842285156 C 53.1581916809082 70.7817611694336 54.250186920166016 69.88645935058594 64.50694274902344 70.38479614257812 C 71.48274230957031 70.43697357177734 73.5992660522461 70.72320556640625 72.5078125 71.22164916992188 C 71.31918334960938 71.65042877197266 69.98008728027344 72.89723205566406 69.34660339355469 73.66499328613281 C 67.73776245117188 76.26177978515625 58.24563980102539 76.24644470214844 56.088748931884766 74.22425842285156" stroke-width="1.0" fill="rgb(131, 51, 10)" opacity="0.9599026"/>
    <path d="M 81.77679443359375 74.39300537109375 C 81.46263122558594 73.4891128540039 80.19438171386719 72.23452758789062 78.86865234375 71.41939544677734 C 76.93052673339844 70.40937042236328 82.61536407470703 70.2513427734375 124.89076232910156 70.25904846191406 C 170.40635681152344 70.21611022949219 173.03439331054688 70.5492935180664 172.20919799804688 72.02743530273438 C 171.54629516601562 74.60011291503906 169.45169067382812 75.66424560546875 164.7750244140625 75.61276245117188 C 160.30926513671875 75.55917358398438 159.32115173339844 74.98927307128906 157.69863891601562 73.39109802246094 C 156.0876007080078 71.74887084960938 154.6865234375 71.27197265625 151.55477905273438 70.94145202636719 C 148.61196899414062 71.27687072753906 147.2464141845703 71.73177337646484 145.51438903808594 73.26568603515625 L 143.5221405029297 74.98686218261719 L 112.82377624511719 75.55594635009766 C 86.07688903808594 75.73033142089844 82.19488525390625 75.23494720458984 81.77679443359375 74.39300537109375" stroke-width="1.0" fill="rgb(136, 51, 7)" opacity="0.9780829"/>
  </g>
</svg>
