<?xml version="1.0" ?>
<svg xmlns="http://www.w3.org/2000/svg" version="1.1" width="224" height="224">
  <defs/>
  <g>
    <path d="M 65.17073059082031 29.615402221679688 C 65.17073059082031 29.615402221679688 65.17073059082031 29.615402221679688 65.17073059082031 29.615402221679688 C 70.23674011230469 29.833702087402344 74.87593078613281 31.752464294433594 74.89248657226562 37.533573150634766 C 74.91808319091797 46.334716796875 70.83216094970703 54.63978958129883 70.85173034667969 63.49287033081055 C 70.86904907226562 70.99928283691406 72.80059814453125 78.40933990478516 75.46307373046875 85.38204956054688 C 79.23057556152344 95.24908447265625 84.5028305053711 104.54704284667969 90.94485473632812 112.91159057617188 C 105.46613311767578 131.76870727539062 126.42040252685547 147.5064239501953 150.67547607421875 150.0672607421875 C 160.3648681640625 151.0902557373047 170.15435791015625 149.78573608398438 179.3123016357422 146.4939727783203 C 182.6959228515625 145.27752685546875 186.71182250976562 142.62257385253906 190.17221069335938 145.0690155029297 C 190.982177734375 145.64111328125 191.61221313476562 146.3712615966797 192.16775512695312 147.18649291992188 C 196.0 152.8155517578125 190.1104736328125 157.77391052246094 186.39793395996094 161.46914672851562 C 185.28311157226562 162.57870483398438 184.14796447753906 163.66644287109375 182.99099731445312 164.7315673828125 C 169.1456756591797 177.474853515625 152.06430053710938 186.64181518554688 133.38482666015625 189.6422882080078 C 103.86428833007812 194.38461303710938 71.20326232910156 183.52545166015625 51.19821548461914 161.0701904296875 C 45.73701858520508 154.9405517578125 41.487754821777344 147.91741943359375 38.41202163696289 140.31239318847656 C 36.51283645629883 135.61825561523438 35.030670166015625 130.75323486328125 33.909828186035156 125.81670379638672 C 28.0 99.78890991210938 31.400917053222656 68.38197326660156 52.55165481567383 49.9968376159668 C 52.55165481567383 49.9968376159668 52.55165481567383 49.9968376159668 52.55165481567383 49.9968376159668 C 52.21668243408203 43.37866973876953 53.15536117553711 33.91962432861328 59.97074890136719 30.688072204589844 C 61.63432312011719 29.899948120117188 63.357364654541016 29.700462341308594 65.17073059082031 29.615402221679688 C 65.17073059082031 29.615402221679688 65.17073059082031 29.615402221679688 65.17073059082031 29.615402221679688" stroke-width="0.0" fill="rgb(1, 1, 1)" opacity="1.0"/>
    <path d="M 65.17073059082031 31.863868713378906 C 65.17073059082031 31.863868713378906 65.17073059082031 31.863868713378906 65.17073059082031 31.863868713378906 C 63.47629928588867 32.021942138671875 62.93281555175781 31.933876037597656 61.380645751953125 32.59478759765625 C 54.873130798339844 35.36641311645508 54.316097259521484 44.93986892700195 54.89571762084961 50.973148345947266 C 54.89571762084961 50.973148345947266 54.89571762084961 50.973148345947266 54.89571762084961 50.973148345947266 C 34.76495361328125 67.83020782470703 30.806243896484375 97.26268768310547 35.38371276855469 121.79100799560547 C 36.316368103027344 126.78926086425781 37.6329231262207 131.7197723388672 39.3687629699707 136.49972534179688 C 42.199100494384766 144.29368591308594 46.164581298828125 151.66461181640625 51.53092956542969 158.01026916503906 C 70.87732696533203 180.88706970214844 103.40510559082031 192.05560302734375 132.7796173095703 187.4427490234375 C 150.76129150390625 184.6191864013672 167.22164916992188 175.92645263671875 180.67025756835938 163.79664611816406 C 183.61123657226562 161.14471435546875 186.64181518554688 158.36782836914062 189.17105102539062 155.31167602539062 C 190.77590942382812 153.37258911132812 191.85610961914062 150.76657104492188 190.3016815185547 148.44058227539062 C 187.6279296875 144.43971252441406 182.68386840820312 147.70362854003906 179.39810180664062 148.8448028564453 C 169.98199462890625 152.11474609375 159.92752075195312 153.33419799804688 150.01156616210938 152.24044799804688 C 125.68798065185547 149.55690002441406 104.50336456298828 133.8929443359375 89.80293273925781 115.02831268310547 C 78.72850036621094 100.81716918945312 69.18966674804688 82.77227783203125 68.65972900390625 64.37809753417969 C 68.45799255371094 57.36323547363281 70.46180725097656 50.71269989013672 71.90257263183594 43.91387176513672 C 72.68994140625 40.199058532714844 74.05091857910156 34.241050720214844 69.40721130371094 32.487144470214844 C 68.03419494628906 31.96849822998047 66.61752319335938 31.92559051513672 65.17073059082031 31.863868713378906 C 65.17073059082031 31.863868713378906 65.17073059082031 31.863868713378906 65.17073059082031 31.863868713378906" stroke-width="0.0" fill="rgb(0, 0, 0)" opacity="1.0"/>
    <path d="M 65.17073059082031 34.111572265625 C 65.17073059082031 34.111572265625 65.17073059082031 34.111572265625 65.17073059082031 34.111572265625 C 63.9972038269043 34.21244812011719 63.576412200927734 34.15899658203125 62.48116683959961 34.59785461425781 C 56.786617279052734 36.88093948364258 56.714359283447266 45.66627502441406 57.131378173828125 50.72850799560547 C 57.1757926940918 51.13499069213867 57.2202033996582 51.54072189331055 57.264617919921875 51.94645690917969 C 56.946956634521484 52.203895568847656 56.63004684448242 52.461334228515625 56.3123893737793 52.718772888183594 C 36.183128356933594 69.50281524658203 32.86351013183594 98.79528045654297 37.93101501464844 123.14897155761719 C 38.95399856567383 128.06668090820312 40.35411071777344 132.91738891601562 42.17351150512695 137.60025024414062 C 44.951148986816406 144.75059509277344 48.79016876220703 151.40565490722656 53.80498123168945 157.22213745117188 C 72.61918640136719 179.04734802246094 103.90493774414062 189.499267578125 132.16464233398438 185.42764282226562 C 149.4432373046875 182.93756103515625 165.13653564453125 174.66635131835938 178.098876953125 163.13723754882812 C 181.371826171875 160.2263641357422 184.68240356445312 157.15591430664062 187.50747680664062 153.79940795898438 C 188.45294189453125 152.675537109375 189.4480743408203 151.13014221191406 188.4356231689453 149.6946563720703 C 187.20111083984375 147.9452667236328 185.485595703125 148.90126037597656 183.92214965820312 149.5395965576172 C 182.05380249023438 150.3021240234375 180.15689086914062 150.99465942382812 178.234375 151.60813903808594 C 168.9635009765625 154.5679473876953 159.1521759033203 155.59169006347656 149.4793701171875 154.4625701904297 C 124.46025085449219 151.54115295410156 102.84130096435547 135.53770446777344 87.71556854248047 116.08667755126953 C 81.2660140991211 107.7921371459961 75.94859313964844 98.61688232421875 72.00569915771484 88.87556457519531 C 68.98567199707031 81.41281127929688 66.73796081542969 73.49539947509766 66.39922332763672 65.41387939453125 C 66.08306884765625 57.85403060913086 68.20055389404297 50.81657791137695 69.6601333618164 43.48104476928711 C 70.18856048583984 40.82609939575195 71.81449890136719 35.7337532043457 68.23667907714844 34.5188102722168 C 67.11283111572266 34.137168884277344 66.36836242675781 34.18309020996094 65.17073059082031 34.111572265625 C 65.17073059082031 34.111572265625 65.17073059082031 34.111572265625 65.17073059082031 34.111572265625" stroke-width="0.0" fill="rgb(231, 177, 6)" opacity="1.0"/>
    <path d="M 64.63026428222656 34.076194763183594 C 64.63026428222656 34.076194763183594 64.63026428222656 34.076194763183594 64.63026428222656 34.076194763183594 C 66.33297729492188 34.13114929199219 68.5264892578125 34.01371765136719 69.79035949707031 35.41383361816406 C 70.66505432128906 36.38337326049805 70.41287994384766 38.316429138183594 70.30072021484375 39.46512222290039 C 69.94090270996094 43.142303466796875 68.90211486816406 46.74947738647461 68.12678527832031 50.352134704589844 C 68.12678527832031 50.352134704589844 68.12678527832031 50.352134704589844 68.12678527832031 50.352134704589844 C 64.31410217285156 51.19219970703125 60.63617706298828 51.07326889038086 57.032772064208984 49.50002670288086 C 57.032772064208984 49.50002670288086 57.032772064208984 49.50002670288086 57.032772064208984 49.50002670288086 C 56.84157180786133 43.57664108276367 57.426456451416016 35.163917541503906 64.63026428222656 34.076194763183594 C 64.63026428222656 34.076194763183594 64.63026428222656 34.076194763183594 64.63026428222656 34.076194763183594" stroke-width="0.0" fill="rgb(132, 144, 11)" opacity="1.0"/>
    <path d="M 56.19119644165039 48.92642593383789 C 56.19119644165039 48.92642593383789 56.19119644165039 48.92642593383789 56.19119644165039 48.92642593383789 C 58.12726593017578 50.304710388183594 60.551116943359375 50.43644332885742 62.86280822753906 50.545589447021484 C 65.0736312866211 50.65022277832031 67.30854034423828 50.65473937988281 69.45538330078125 50.07361602783203 C 69.70830535888672 50.7789421081543 69.96198272705078 51.48426818847656 70.21490478515625 52.18959426879883 C 65.62239074707031 53.467010498046875 58.53375244140625 53.601749420166016 54.6119270324707 50.526771545410156 C 55.138851165771484 49.99382019042969 55.66502380371094 49.460121154785156 56.19119644165039 48.92642593383789" stroke-width="0.0" fill="rgb(1, 1, 0)" opacity="1.0"/>
    <path d="M 69.53517150878906 51.167362213134766 C 69.83100891113281 51.231346130371094 70.12608337402344 51.295326232910156 70.42115783691406 51.359310150146484 C 70.42115783691406 51.661163330078125 70.42115783691406 51.963768005371094 70.42115783691406 52.265621185302734 C 70.34663391113281 62.47214126586914 70.78247833251953 72.57779693603516 73.69034576416016 82.43278503417969 C 78.10221099853516 97.38388061523438 86.79193878173828 110.67591857910156 97.380859375 121.98898315429688 C 109.143310546875 134.556884765625 123.76094055175781 144.88909912109375 140.80543518066406 148.58660888671875 C 151.6570587158203 150.94122314453125 162.91064453125 150.45718383789062 173.67120361328125 147.85568237304688 C 176.2064666748047 147.24295043945312 178.7138671875 146.51805114746094 181.18890380859375 145.69680786132812 C 182.81710815429688 145.15708923339844 184.70950317382812 144.05355834960938 186.48524475097656 144.47134399414062 C 188.14129638671875 144.86050415039062 189.21095275878906 146.2244873046875 190.232421875 147.46878051757812 C 190.5109405517578 147.78793334960938 190.79022216796875 148.10711669921875 191.06874084472656 148.42626953125 C 190.71795654296875 148.6641387939453 190.36717224121094 148.90126037597656 190.01564025878906 149.13912963867188 C 175.64566040039062 158.73065185546875 159.49769592285156 165.486572265625 142.14984130859375 166.861083984375 C 116.50896453857422 168.89352416992188 90.92076873779297 159.736328125 73.006103515625 141.19461059570312 C 68.94200897216797 136.989013671875 65.09847259521484 132.4371337890625 62.16802215576172 127.35758972167969 C 59.63652801513672 122.96981048583984 57.70723342895508 118.2515869140625 56.20098114013672 113.42119598388672 C 51.54673385620117 98.50020599365234 49.70551300048828 80.94685363769531 53.87273025512695 65.69993591308594 C 55.45952606201172 59.89472961425781 58.659461975097656 52.201637268066406 65.3386001586914 51.03186798095703 C 66.7778549194336 50.78044891357422 68.11022186279297 50.94304275512695 69.53517150878906 51.167362213134766 C 69.53517150878906 51.167362213134766 69.53517150878906 51.167362213134766 69.53517150878906 51.167362213134766" stroke-width="0.0" fill="rgb(1, 1, 0)" opacity="1.0"/>
    <path d="M 69.29730224609375 52.265621185302734 C 69.29730224609375 52.265621185302734 69.29730224609375 52.265621185302734 69.29730224609375 52.265621185302734 C 68.02892303466797 52.051841735839844 66.81022644042969 51.940433502197266 65.53431701660156 52.18507766723633 C 59.25638961791992 53.38872528076172 56.369598388671875 60.78974914550781 54.928836822509766 66.21255493164062 C 50.86248779296875 81.52195739746094 52.70295715332031 99.11144256591797 57.57550048828125 114.0060806274414 C 68.29087829589844 146.7657012939453 103.69265747070312 166.9010009765625 137.13577270507812 165.9066162109375 C 155.9635467529297 165.34732055664062 173.81573486328125 158.57559204101562 189.38558959960938 148.20797729492188 C 189.38558959960938 148.20797729492188 189.38558959960938 148.20797729492188 189.38558959960938 148.20797729492188 C 188.59445190429688 147.23919677734375 187.64222717285156 145.65541076660156 186.2406005859375 145.4830322265625 C 184.97824096679688 145.32720947265625 183.56307983398438 146.07920837402344 182.39781188964844 146.48268127441406 C 179.71878051757812 147.41156005859375 177.00436401367188 148.24034118652344 174.25381469726562 148.93136596679688 C 162.8090362548828 151.80535888671875 150.80419921875 152.18324279785156 139.2969207763672 149.41087341308594 C 121.99348449707031 145.2421417236328 107.20799255371094 134.45526123046875 95.36575317382812 121.46356201171875 C 85.12986755371094 110.23405456542969 76.78791046142578 97.10084533691406 72.51907348632812 82.43428802490234 C 69.62098693847656 72.47467041015625 69.24913024902344 62.53989028930664 69.29730224609375 52.265621185302734 C 69.29730224609375 52.265621185302734 69.29730224609375 52.265621185302734 69.29730224609375 52.265621185302734" stroke-width="0.0" fill="rgb(0, 0, 0)" opacity="1.0"/>
    <path d="M 68.16592407226562 53.21408462524414 C 68.16592407226562 53.21408462524414 68.16592407226562 53.21408462524414 68.16592407226562 53.21408462524414 C 60.212379455566406 52.85728073120117 57.01169204711914 61.78413009643555 55.5521125793457 68.24798583984375 C 51.98784637451172 84.04366302490234 54.165550231933594 102.0689926147461 59.84579086303711 117.11493682861328 C 62.94937515258789 125.33570861816406 67.73008728027344 132.30691528320312 73.7257308959961 138.68946838378906 C 93.402587890625 159.63394165039062 122.99012756347656 168.73092651367188 151.16250610351562 163.38113403320312 C 164.33184814453125 160.88050842285156 176.55422973632812 155.26348876953125 187.7295379638672 147.96484375 C 187.7295379638672 147.96484375 187.7295379638672 147.96484375 187.7295379638672 147.96484375 C 185.66700744628906 146.02801513671875 184.45733642578125 146.9794921875 181.96649169921875 147.8082733154297 C 179.49522399902344 148.6310272216797 176.99232482910156 149.36044311523438 174.46234130859375 149.98220825195312 C 163.26898193359375 152.73350524902344 151.54867553710938 153.2679443359375 140.24990844726562 150.8064727783203 C 122.76806640625 146.99755859375 107.77706909179688 136.39659118652344 95.7135238647461 123.49748992919922 C 84.88673400878906 111.92172241210938 76.02387237548828 98.31729125976562 71.52092742919922 83.02294158935547 C 68.6657485961914 73.32828521728516 68.01537322998047 63.270809173583984 68.16592407226562 53.21408462524414 C 68.16592407226562 53.21408462524414 68.16592407226562 53.21408462524414 68.16592407226562 53.21408462524414" stroke-width="0.0" fill="rgb(240, 241, 5)" opacity="1.0"/>
  </g>
</svg>
