<?xml version="1.0" ?>
<svg xmlns="http://www.w3.org/2000/svg" version="1.1" width="224" height="224">
  <defs/>
  <g>
    <path d="M 111.58264923095703 32.17634963989258 C 111.58264923095703 32.17634963989258 111.58264923095703 32.17634963989258 111.58264923095703 32.17634963989258 C 130.4293975830078 32.154823303222656 149.10475158691406 34.514652252197266 167.35516357421875 39.21597671508789 C 167.56085205078125 39.27018737792969 167.76654052734375 39.32440185546875 167.97222900390625 39.3778190612793 C 168.12290954589844 39.52769470214844 168.27438354492188 39.67678451538086 168.42506408691406 39.825862884521484 C 182.29864501953125 53.74488067626953 191.600830078125 71.08564758300781 194.12966918945312 90.68739318847656 C 196.0 105.18360137939453 195.01620483398438 120.67398071289062 191.92291259765625 134.93820190429688 C 190.30532836914062 142.39796447753906 187.88888549804688 149.73577880859375 184.25746154785156 156.46844482421875 C 182.04751586914062 160.56626892089844 179.39747619628906 164.4281005859375 176.3097686767578 167.91522216796875 C 158.86216735839844 187.61741638183594 130.6725616455078 191.84756469726562 105.69104766845703 190.92279052734375 C 87.98992156982422 190.26824951171875 69.51069641113281 186.50924682617188 55.147621154785156 175.55517578125 C 35.30192565917969 160.42037963867188 29.333786010742188 134.99957275390625 28.381088256835938 111.24900817871094 C 28.0 101.74669647216797 28.299766540527344 92.25714874267578 30.35186767578125 82.94140625 C 34.00800323486328 66.34844970703125 42.761695861816406 51.802005767822266 54.68203353881836 39.82666015625 C 54.83351135253906 39.67678451538086 54.98419189453125 39.52769470214844 55.13566207885742 39.3778190612793 C 55.3421516418457 39.32440185546875 55.5478401184082 39.27018737792969 55.75352478027344 39.21597671508789 C 74.02307891845703 34.51226043701172 92.71675872802734 32.152427673339844 111.58264923095703 32.17634963989258 C 111.58264923095703 32.17634963989258 111.58264923095703 32.17634963989258 111.58264923095703 32.17634963989258" stroke-width="0.0" fill="rgb(0, 0, 0)" opacity="1.0"/>
    <path d="M 111.57148742675781 34.556907653808594 C 111.57148742675781 34.556907653808594 111.57148742675781 34.556907653808594 111.57148742675781 34.556907653808594 C 125.39244842529297 34.54414749145508 139.17831420898438 35.7639274597168 152.7584991455078 38.35814666748047 C 155.8900604248047 38.956077575683594 159.00807189941406 39.62416458129883 162.1093292236328 40.36161422729492 C 163.43911743164062 40.67731857299805 165.5685577392578 40.84234619140625 166.75245666503906 41.52000045776367 C 166.8680419921875 41.5861701965332 168.8834686279297 43.698856353759766 168.9719696044922 43.792930603027344 C 170.41656494140625 45.32761764526367 171.8045654296875 46.91571807861328 173.13357543945312 48.551658630371094 C 179.05545043945312 55.84162139892578 183.77511596679688 64.09465026855469 187.0589599609375 72.89378356933594 C 192.015380859375 86.17660522460938 193.0247039794922 99.96088409423828 192.25856018066406 114.01542663574219 C 191.09140014648438 135.4261016845703 185.52188110351562 158.1530303955078 168.2943115234375 172.39651489257812 C 164.71153259277344 175.35906982421875 160.76119995117188 177.86160278320312 156.5916290283203 179.912109375 C 146.465087890625 184.89324951171875 135.2120361328125 187.22756958007812 124.02597045898438 188.1563720703125 C 99.50765228271484 190.1925048828125 70.62603759765625 187.57916259765625 51.94112777709961 169.72975158691406 C 39.43163299560547 157.7799072265625 33.83979034423828 140.78594970703125 31.763771057128906 123.9944839477539 C 30.425209045410156 113.17274475097656 29.934906005859375 101.88621520996094 31.462417602539062 91.06129455566406 C 34.115638732910156 72.2528076171875 43.00645446777344 54.96306228637695 56.35623550415039 41.52000045776367 C 56.35623550415039 41.52000045776367 56.35623550415039 41.52000045776367 56.35623550415039 41.52000045776367 C 74.4193115234375 36.8704948425293 92.91925811767578 34.534584045410156 111.57148742675781 34.556907653808594 C 111.57148742675781 34.556907653808594 111.57148742675781 34.556907653808594 111.57148742675781 34.556907653808594" stroke-width="0.0" fill="rgb(0, 0, 0)" opacity="1.0"/>
    <path d="M 111.55953216552734 36.938262939453125 C 111.55953216552734 36.938262939453125 111.55953216552734 36.938262939453125 111.55953216552734 36.938262939453125 C 93.32266235351562 36.91593933105469 75.25242614746094 39.169734954833984 57.57841110229492 43.66298294067383 C 57.57841110229492 43.66298294067383 57.57841110229492 43.66298294067383 57.57841110229492 43.66298294067383 C 46.42900848388672 55.02125930786133 38.28759002685547 68.76408386230469 34.91925048828125 84.40912628173828 C 33.022621154785156 93.21862030029297 32.778663635253906 102.18677520751953 33.14300537109375 111.16290283203125 C 34.02873229980469 132.9889373779297 39.13665008544922 156.67733764648438 57.073753356933594 170.98699951171875 C 70.70416259765625 181.86056518554688 88.61894989013672 185.4991455078125 105.66313934326172 186.1560821533203 C 128.99517822265625 187.05535888671875 155.647705078125 183.45263671875 172.2438507080078 165.29550170898438 C 175.046142578125 162.228515625 177.46737670898438 158.832275390625 179.5098876953125 155.216796875 C 183.16046142578125 148.75595092773438 185.56173706054688 141.64697265625 187.16578674316406 134.4207763671875 C 190.1825408935547 120.83422088623047 191.1599578857422 106.05657958984375 189.51605224609375 92.22286987304688 C 187.29733276367188 73.5562973022461 178.63531494140625 56.9952278137207 165.53028869628906 43.66298294067383 C 165.53028869628906 43.66298294067383 165.53028869628906 43.66298294067383 165.53028869628906 43.66298294067383 C 147.86026000976562 39.1673469543457 129.79241943359375 36.91912841796875 111.55953216552734 36.938262939453125 C 111.55953216552734 36.938262939453125 111.55953216552734 36.938262939453125 111.55953216552734 36.938262939453125" stroke-width="0.0" fill="rgb(139, 167, 49)" opacity="1.0"/>
    <path d="M 78.4413833618164 37.582435607910156 C 78.4413833618164 37.582435607910156 78.4413833618164 37.582435607910156 78.4413833618164 37.582435607910156 C 100.45238494873047 34.44449234008789 122.68022918701172 34.44449234008789 144.6912384033203 37.582435607910156 C 146.27536010742188 38.083099365234375 147.85946655273438 38.583763122558594 149.44358825683594 39.08443069458008 C 148.66387939453125 39.99009704589844 147.88417053222656 40.8957633972168 147.10447692871094 41.801429748535156 C 129.24151611328125 61.8057746887207 93.90464782714844 61.80657196044922 76.04168701171875 41.801429748535156 C 75.26518249511719 40.89974594116211 74.48786926269531 39.998069763183594 73.71135711669922 39.09638977050781 C 75.2874984741211 38.591739654541016 76.86444091796875 38.08708190917969 78.4413833618164 37.582435607910156" stroke-width="0.0" fill="rgb(0, 0, 0)" opacity="1.0"/>
    <path d="M 111.57148742675781 37.544960021972656 C 111.57148742675781 37.544960021972656 111.57148742675781 37.544960021972656 111.57148742675781 37.544960021972656 C 129.7286376953125 37.515464782714844 147.73907470703125 39.7517204284668 165.33575439453125 44.22503662109375 C 165.33575439453125 44.22503662109375 165.33575439453125 44.22503662109375 165.33575439453125 44.22503662109375 C 172.2693634033203 51.29735565185547 177.83010864257812 59.345489501953125 181.99249267578125 68.33277893066406 C 181.99249267578125 68.33277893066406 181.99249267578125 68.33277893066406 181.99249267578125 68.33277893066406 C 176.56488037109375 74.68438720703125 170.15109252929688 80.41893005371094 163.325927734375 85.21512603759766 C 159.73434448242188 87.73839569091797 155.88607788085938 90.22657775878906 151.75717163085938 91.77960205078125 C 146.3399200439453 93.81814575195312 140.42201232910156 94.607421875 134.697021484375 95.2077407836914 C 125.42991638183594 96.17877960205078 116.06712341308594 96.35895538330078 106.75775146484375 96.05599975585938 C 99.80342864990234 95.83038330078125 92.83076477050781 95.34008026123047 85.9505844116211 94.27815246582031 C 81.95402526855469 93.6618881225586 77.79242706298828 92.94357299804688 74.06214141845703 91.31640625 C 69.19499206542969 89.193359375 64.76951599121094 85.75724792480469 60.62067413330078 82.50052642822266 C 54.16382598876953 77.43167877197266 48.007537841796875 71.90680694580078 42.20841979980469 66.09492492675781 C 42.20841979980469 66.09492492675781 42.20841979980469 66.09492492675781 42.20841979980469 66.09492492675781 C 46.268760681152344 57.98699188232422 51.46198654174805 50.703407287597656 57.80641555786133 44.22503662109375 C 57.80641555786133 44.22503662109375 57.80641555786133 44.22503662109375 57.80641555786133 44.22503662109375 C 75.40390014648438 39.75252151489258 93.41434478759766 37.515464782714844 111.57148742675781 37.544960021972656 C 111.57148742675781 37.544960021972656 111.57148742675781 37.544960021972656 111.57148742675781 37.544960021972656" stroke-width="0.0" fill="rgb(248, 213, 142)" opacity="1.0"/>
    <path d="M 78.7857894897461 39.93907165527344 C 78.7857894897461 39.93907165527344 78.7857894897461 39.93907165527344 78.7857894897461 39.93907165527344 C 100.5576171875 36.836212158203125 122.57579040527344 36.836212158203125 144.3476104736328 39.93907165527344 C 144.66571044921875 40.04191970825195 144.9830322265625 40.14476013183594 145.30032348632812 40.24760437011719 C 128.43870544433594 58.990718841552734 94.70667266845703 58.9891242980957 77.84504699707031 40.24760437011719 C 78.15835571289062 40.14476013183594 78.4716796875 40.04191970825195 78.7857894897461 39.93907165527344" stroke-width="0.0" fill="rgb(254, 254, 254)" opacity="1.0"/>
    <path d="M 82.66117095947266 41.80780029296875 C 82.66117095947266 41.80780029296875 82.66117095947266 41.80780029296875 82.66117095947266 41.80780029296875 C 98.17068481445312 55.48206329345703 124.97229766845703 55.48286437988281 140.48260498046875 41.80860137939453 C 140.48260498046875 41.80860137939453 140.48260498046875 41.80860137939453 140.48260498046875 41.80860137939453 C 121.25316619873047 39.3730354309082 101.8906021118164 39.3730354309082 82.66117095947266 41.80780029296875 C 82.66117095947266 41.80780029296875 82.66117095947266 41.80780029296875 82.66117095947266 41.80780029296875" stroke-width="0.0" fill="rgb(255, 255, 255)" opacity="1.0"/>
  </g>
</svg>
