<?xml version="1.0" ?>
<svg xmlns="http://www.w3.org/2000/svg" version="1.1" width="224" height="224">
  <defs/>
  <g>
    <path d="M 103.29450988769531 30.482772827148438 C 103.29450988769531 30.482772827148438 103.29450988769531 30.482772827148438 103.29450988769531 30.482772827148438 C 104.81745910644531 30.738311767578125 105.76545715332031 31.77306365966797 106.7828598022461 32.887474060058594 C 108.59683227539062 34.872589111328125 110.0101547241211 37.19605255126953 111.11983489990234 39.63782501220703 C 115.85193634033203 50.04845428466797 116.31568908691406 62.76362228393555 115.50807189941406 74.01657104492188 C 115.23519134521484 77.82276153564453 114.71307373046875 81.61317443847656 113.88890075683594 85.34049987792969 C 113.61365509033203 86.58740997314453 113.392822265625 88.37930297851562 111.77128601074219 88.51653289794922 C 107.42721557617188 88.8840560913086 109.43599700927734 83.83647918701172 109.84768676757812 81.51617431640625 C 111.294921875 73.35328674316406 111.34461212158203 64.93014526367188 110.4841537475586 56.69864273071289 C 109.86819458007812 50.80243682861328 108.73958587646484 44.61126708984375 105.7339096069336 39.41383743286133 C 104.9207763671875 38.00682067871094 103.95305633544922 36.68262481689453 102.79843139648438 35.53508758544922 C 102.39698791503906 35.136802673339844 101.582275390625 34.49481201171875 101.27548217773438 33.985321044921875 C 100.32274627685547 32.40558624267578 101.93875885009766 30.938629150390625 103.29450988769531 30.482772827148438 C 103.29450988769531 30.482772827148438 103.29450988769531 30.482772827148438 103.29450988769531 30.482772827148438" stroke-width="0.0" fill="rgb(0, 0, 0)" opacity="1.0"/>
    <path d="M 150.92315673828125 29.104156494140625 C 150.92315673828125 29.104156494140625 150.92315673828125 29.104156494140625 150.92315673828125 29.104156494140625 C 158.05838012695312 29.127029418945312 164.63522338867188 30.687042236328125 170.67340087890625 34.56578826904297 C 171.5464630126953 35.156517028808594 172.42031860351562 35.74645233154297 173.29339599609375 36.336387634277344 C 172.4779052734375 37.0044059753418 171.6623992919922 37.672420501708984 170.84690856933594 38.34043502807617 C 159.1514892578125 48.36777114868164 151.76388549804688 67.21890258789062 134.2732391357422 68.05332946777344 C 131.34722900390625 68.19293212890625 128.4141082763672 67.8348617553711 125.57168579101562 67.14791870117188 C 121.64246368408203 66.19755554199219 117.9561538696289 64.60598754882812 114.35265350341797 62.802268981933594 C 114.06399536132812 62.65320587158203 113.77533721923828 62.50335693359375 113.48667907714844 62.35350799560547 C 113.38809204101562 62.043556213378906 113.28950500488281 61.73360061645508 113.19171142578125 61.423648834228516 C 111.06777954101562 53.56993103027344 114.50802612304688 46.48517608642578 120.22361755371094 41.07559585571289 C 128.36756896972656 33.368568420410156 139.8555450439453 29.44329071044922 150.92315673828125 29.104156494140625 C 150.92315673828125 29.104156494140625 150.92315673828125 29.104156494140625 150.92315673828125 29.104156494140625" stroke-width="0.0" fill="rgb(0, 0, 0)" opacity="1.0"/>
    <path d="M 141.09930419921875 70.37757873535156 C 141.09930419921875 70.37757873535156 141.09930419921875 70.37757873535156 141.09930419921875 70.37757873535156 C 146.2320556640625 70.47380065917969 151.244140625 71.28693389892578 155.9778289794922 73.34539794921875 C 159.7012176513672 74.96536254882812 163.10675048828125 77.25096130371094 166.09902954101562 79.99006652832031 C 168.25054931640625 81.96098327636719 170.19308471679688 84.15589904785156 171.86114501953125 86.55113220214844 C 184.97695922851562 105.38018035888672 179.34103393554688 131.10153198242188 171.71917724609375 150.8943634033203 C 170.02272033691406 155.29916381835938 168.1409149169922 159.63140869140625 166.12425231933594 163.89898681640625 C 161.94659423828125 172.73619079589844 157.33831787109375 181.95037841796875 150.70233154296875 189.240966796875 C 147.90879821777344 192.3089599609375 144.19488525390625 195.609619140625 139.79086303710938 195.64431762695312 C 134.22671508789062 195.6884765625 128.6388702392578 194.096923828125 123.43277740478516 192.28057861328125 C 119.59188079833984 190.9398193359375 115.44576263427734 188.99017333984375 111.2894058227539 188.99017333984375 C 107.76240539550781 188.99017333984375 104.18099212646484 190.47055053710938 100.9221420288086 191.64096069335938 C 96.72714233398438 193.14654541015625 92.4737548828125 194.5054473876953 88.05949401855469 195.19949340820312 C 84.35189056396484 195.78233337402344 80.85092163085938 196.0 77.51873016357422 194.04486083984375 C 74.05009460449219 192.00927734375 71.30232238769531 188.81666564941406 68.91497039794922 185.63906860351562 C 64.77201843261719 180.1253662109375 61.43509292602539 174.00991821289062 58.370262145996094 167.84791564941406 C 56.12250900268555 163.3311309814453 54.02382278442383 158.73704528808594 52.11756896972656 154.06565856933594 C 50.65772247314453 150.48582458496094 49.312225341796875 146.85867309570312 48.119728088378906 143.1810302734375 C 42.020050048828125 124.36933135986328 39.023048400878906 100.78372955322266 52.43304443359375 84.2789306640625 C 54.32825469970703 81.94679260253906 56.49555969238281 79.8268051147461 58.86397933959961 77.97655487060547 C 69.30458068847656 69.82313537597656 83.89445495605469 67.93502807617188 95.76336669921875 74.0354995727539 C 99.37711334228516 75.89285278320312 102.38357543945312 78.51522827148438 105.78675079345703 80.68411254882812 C 107.38542175292969 81.70309448242188 109.32321166992188 82.85140991210938 111.2894058227539 82.85140991210938 C 115.52147674560547 82.85140991210938 119.30716705322266 78.73211669921875 122.55575561523438 76.55613708496094 C 128.1522674560547 72.80673217773438 134.34500122070312 70.54951477050781 141.09930419921875 70.37757873535156 C 141.09930419921875 70.37757873535156 141.09930419921875 70.37757873535156 141.09930419921875 70.37757873535156" stroke-width="0.0" fill="rgb(0, 0, 0)" opacity="1.0"/>
    <path d="M 169.35470581054688 36.51778793334961 C 169.35470581054688 36.51778793334961 169.35470581054688 36.51778793334961 169.35470581054688 36.51778793334961 C 158.06784057617188 46.14841079711914 150.9310302734375 64.96168518066406 134.0610809326172 65.74406433105469 C 131.83619689941406 65.84738159179688 129.60580444335938 65.6304931640625 127.42667388916016 65.18488311767578 C 123.20089721679688 64.32206726074219 119.28272247314453 62.61613845825195 115.43630981445312 60.71146774291992 C 115.43630981445312 60.71146774291992 115.43630981445312 60.71146774291992 115.43630981445312 60.71146774291992 C 113.18224334716797 52.2662353515625 118.52400207519531 44.964595794677734 125.07245635986328 40.141788482666016 C 137.53286743164062 30.9654541015625 155.8579559326172 28.0 169.35470581054688 36.51778793334961 C 169.35470581054688 36.51778793334961 169.35470581054688 36.51778793334961 169.35470581054688 36.51778793334961" stroke-width="0.0" fill="rgb(0, 0, 0)" opacity="1.0"/>
    <path d="M 141.09930419921875 72.73258972167969 C 141.09930419921875 72.73258972167969 141.09930419921875 72.73258972167969 141.09930419921875 72.73258972167969 C 145.52383422851562 72.81698608398438 149.8481903076172 73.5638656616211 153.9761505126953 75.1956558227539 C 157.41323852539062 76.55455780029297 160.63107299804688 78.45843505859375 163.4679718017578 80.82843780517578 C 165.72596740722656 82.71575927734375 167.73948669433594 84.89095306396484 169.45645141601562 87.28145599365234 C 180.84347534179688 103.13400268554688 177.75103759765625 124.03729248046875 172.32962036132812 141.4743194580078 C 171.37925720214844 144.53204345703125 170.33187866210938 147.55902099609375 169.20169067382812 150.5552215576172 C 167.62828063964844 154.7257843017578 165.89317321777344 158.8372039794922 164.0003204345703 162.87368774414062 C 159.9480743408203 171.512939453125 155.25697326660156 180.34619140625 148.81106567382812 187.46722412109375 C 146.6051025390625 189.90426635742188 143.38253784179688 193.30113220214844 139.79086303710938 193.289306640625 C 134.5445556640625 193.27114868164062 129.54034423828125 191.98403930664062 124.63314819335938 190.22447204589844 C 119.94441986083984 188.54299926757812 115.11215209960938 186.27947998046875 110.00542449951172 186.6887969970703 C 102.52790832519531 187.28741455078125 95.79412078857422 191.67486572265625 88.37496948242188 192.84368896484375 C 85.29830932617188 193.3287353515625 82.11202239990234 193.8043212890625 79.30430603027344 192.21432495117188 C 76.06360626220703 190.37905883789062 73.49407958984375 187.3441925048828 71.24474334716797 184.44183349609375 C 67.26109313964844 179.30276489257812 63.97149658203125 173.62266540527344 61.01471710205078 167.84475708007812 C 58.72832107543945 163.37686157226562 56.65487289428711 158.79855346679688 54.778594970703125 154.14373779296875 C 53.33924865722656 150.57177734375 52.015830993652344 146.9525146484375 50.82649230957031 143.28985595703125 C 44.884552001953125 124.9829330444336 41.18562316894531 102.45416259765625 54.033287048339844 86.07555389404297 C 55.82991027832031 83.78521728515625 57.91124725341797 81.71886444091797 60.220516204833984 79.9458999633789 C 69.33297729492188 72.94711303710938 82.65306091308594 70.29476928710938 93.32159423828125 75.2082748413086 C 96.62145233154297 76.7288589477539 99.44257354736328 78.96871948242188 102.31101989746094 81.15653228759766 C 104.9546890258789 83.17240905761719 107.81997680664062 85.20721435546875 111.2894058227539 85.20721435546875 C 116.71949768066406 85.20721435546875 120.80409240722656 80.44908142089844 124.98727416992188 77.6429443359375 C 129.92758178710938 74.32888793945312 135.18890380859375 72.93843841552734 141.09930419921875 72.73258972167969 C 141.09930419921875 72.73258972167969 141.09930419921875 72.73258972167969 141.09930419921875 72.73258972167969" stroke-width="0.0" fill="rgb(0, 0, 0)" opacity="1.0"/>
    <path d="M 150.994140625 33.814964294433594 C 150.994140625 33.814964294433594 150.994140625 33.814964294433594 150.994140625 33.814964294433594 C 141.26649475097656 34.139122009277344 131.185546875 37.47288513183594 123.88941955566406 44.101776123046875 C 119.58715057373047 48.010494232177734 116.42373657226562 53.11643600463867 117.43089294433594 59.08283233642578 C 117.43089294433594 59.08283233642578 117.43089294433594 59.08283233642578 117.43089294433594 59.08283233642578 C 120.655029296875 60.61919021606445 123.93753051757812 61.98440170288086 127.44244384765625 62.73838806152344 C 129.86370849609375 63.25970458984375 132.35830688476562 63.49473571777344 134.83084106445312 63.284942626953125 C 140.81063842773438 62.7778205871582 145.33848571777344 59.42985534667969 149.44515991210938 55.3018798828125 C 155.18283081054688 49.533443450927734 159.70831298828125 42.7129020690918 165.42469787597656 36.92080307006836 C 165.42469787597656 36.92080307006836 165.42469787597656 36.92080307006836 165.42469787597656 36.92080307006836 C 160.81719970703125 34.701446533203125 156.08824157714844 33.843360900878906 150.994140625 33.814964294433594 C 150.994140625 33.814964294433594 150.994140625 33.814964294433594 150.994140625 33.814964294433594" stroke-width="0.0" fill="rgb(72, 174, 31)" opacity="1.0"/>
    <path d="M 141.09930419921875 75.08917999267578 C 141.09930419921875 75.08917999267578 141.09930419921875 75.08917999267578 141.09930419921875 75.08917999267578 C 135.4081573486328 75.26190185546875 130.22097778320312 77.15316772460938 125.47625732421875 80.27241516113281 C 121.18029022216797 83.09590148925781 116.81413269042969 87.56301879882812 111.2894058227539 87.56301879882812 C 104.70231628417969 87.56301879882812 99.64132690429688 81.47358703613281 94.24198913574219 78.5601806640625 C 83.49064636230469 72.75940704345703 70.23128509521484 74.63568115234375 60.920082092285156 82.3726806640625 C 43.27642059326172 97.03511047363281 46.37043762207031 122.79117584228516 52.762718200683594 142.23382568359375 C 53.819549560546875 145.44691467285156 54.9954833984375 148.6197967529297 56.262901306152344 151.755615234375 C 58.10053253173828 156.29843139648438 60.12114334106445 160.770263671875 62.297908782958984 165.16009521484375 C 65.28938293457031 171.19273376464844 68.62551879882812 177.11575317382812 72.71012115478516 182.48353576660156 C 74.75439453125 185.1697998046875 77.01791381835938 188.04217529296875 79.89424133300781 189.89166259765625 C 82.69407653808594 191.69143676757812 86.35672760009766 190.8041534423828 89.41130065917969 190.16690063476562 C 96.43611145019531 188.70230102539062 103.02083587646484 184.90716552734375 110.21442413330078 184.3251190185547 C 113.98433685302734 184.0198974609375 117.85835266113281 185.32122802734375 121.36799621582031 186.53341674804688 C 127.18927764892578 188.54379272460938 133.4916534423828 191.1898193359375 139.79086303710938 190.93350219726562 C 142.99371337890625 190.80335998535156 145.737548828125 187.46408081054688 147.6327667236328 185.25656127929688 C 153.6031036376953 178.30349731445312 158.00790405273438 170.05307006835938 161.90164184570312 161.80738830566406 C 163.95774841308594 157.4522705078125 165.8718719482422 153.02853393554688 167.5833282470703 148.5267333984375 C 168.7529296875 145.44850158691406 169.82791137695312 142.333984375 170.77906799316406 139.18081665039062 C 176.29750061035156 120.88492584228516 178.38119506835938 97.49569702148438 162.81494140625 83.3719482421875 C 160.25091552734375 81.04532623291016 157.34146118164062 79.1012191772461 154.16622924804688 77.71076965332031 C 150.0074920654297 75.88969421386719 145.61215209960938 75.18302917480469 141.09930419921875 75.08917999267578 C 141.09930419921875 75.08917999267578 141.09930419921875 75.08917999267578 141.09930419921875 75.08917999267578" stroke-width="0.0" fill="rgb(215, 51, 25)" opacity="1.0"/>
    <path d="M 90.58722686767578 88.65850067138672 C 90.58722686767578 88.65850067138672 90.58722686767578 88.65850067138672 90.58722686767578 88.65850067138672 C 92.05260467529297 92.4449691772461 90.13373565673828 95.98221588134766 87.91122436523438 99.06755065917969 C 85.24152374267578 102.77278900146484 81.88409423828125 105.82499694824219 78.65837860107422 109.02232360839844 C 75.57225036621094 112.08163452148438 72.74955749511719 115.42013549804688 69.44181060791016 118.25071716308594 C 66.4566421508789 120.80447387695312 60.84120559692383 124.56965637207031 58.12419509887695 119.70663452148438 C 56.385929107666016 116.59526824951172 56.44744873046875 112.5540542602539 56.97428894042969 109.14220428466797 C 58.32925033569336 100.36414337158203 63.81376266479492 91.77458953857422 71.20215606689453 86.84609985351562 C 77.14331817626953 82.8829574584961 86.32518005371094 81.7511978149414 90.58722686767578 88.65850067138672 C 90.58722686767578 88.65850067138672 90.58722686767578 88.65850067138672 90.58722686767578 88.65850067138672" stroke-width="0.0" fill="rgb(254, 254, 254)" opacity="1.0"/>
  </g>
</svg>
