<?xml version="1.0" encoding="utf-8"?>
<!-- Generator: Adobe Illustrator 27.0.0, SVG Export Plug-In . SVG Version: 6.00 Build 0)  -->
<svg version="1.1" id="图层_1" xmlns="http://www.w3.org/2000/svg" xmlns:xlink="http://www.w3.org/1999/xlink" x="0px" y="0px"
	 viewBox="0 0 224 224" style="enable-background:new 0 0 224 224;" xml:space="preserve">
<style type="text/css">
	.st0{opacity:0.995;fill:#BEC1CE;enable-background:new    ;}
	.st1{opacity:0.9988;fill:#654126;enable-background:new    ;}
	.st2{fill:#E6C085;}
	.st3{fill:#9F8A7A;}
	.st4{opacity:0.9187;fill:#EBECE8;enable-background:new    ;}
	.st5{opacity:0.9785;fill:#564944;enable-background:new    ;}
	.st6{opacity:0.9649;fill:#373A3E;enable-background:new    ;}
	.st7{opacity:0.9592;fill:#0A0B0E;enable-background:new    ;}
	.st8{fill:#E8AF53;}
	.st9{opacity:0.9859;fill:#985727;enable-background:new    ;}
	.st10{opacity:0.9872;fill:#020303;enable-background:new    ;}
	.st11{opacity:0.963;fill:#0E1218;enable-background:new    ;}
	.st12{opacity:0.9884;fill:#D08038;enable-background:new    ;}
	.st13{opacity:0.9698;fill:#CF7B38;enable-background:new    ;}
	.st14{opacity:0.9823;fill:#864E29;enable-background:new    ;}
	.st15{opacity:0.9933;fill:#8B4F28;enable-background:new    ;}
	.st16{opacity:0.8746;fill:#31383D;enable-background:new    ;}
	.st17{opacity:0.9921;fill:#8F5126;enable-background:new    ;}
	.st18{opacity:0.9813;fill:#8E5026;enable-background:new    ;}
</style>
<g>
	<path class="st0" d="M171,141.9c-2.2-0.8-4-1.9-4.1-2.2c-0.1-2.7,21.4-0.5,23.4,2.2C191.1,143.5,176.3,143.4,171,141.9"/>
	<path class="st1" d="M48.7,163.6c0.5-3.6,1-6.6,1.9-9.8c1.4-8,4.6-11.2-4.3-3.3c0.1,0.4,1.2-3.5,5.6-11.5c3.7-6.6,5.2-8.9,3.1-7.3
		c-5.8,1.1-7,1.1-4-1c1.3-1.1,4.2-3.4,7.5-6.7c5.4-4.2,9.9-4.8,4.6-5.8c-3-0.7-5.4-1.8-5.7-1c2.7-1.9,7.5-2.8,12.6-4.5
		c8.2-2.6,12.2-2.2,5.9-4.8c-5.2-3.2-3.8-1.8-0.7-2.2c4-1.3,8.5-1.5,12.2-1.8c8.2-0.8,9.6,1,3.4-4.5c-5-2.6-0.5-1.2,11.5,1.2
		c10,1.9,11.6,4.8,6.8-1.3c-4-4.8-3.3-4,1.9-1.6c1.5,0.4,3.9,2.2,6.1,3.1c4.9,3.1,9.1,5.1,7.6,3.9c-2.1-7.7-3.1-7.8,3.3-2
		c-0.5-1.3,0.6-2.9,2.1-8c3.5-9.5,4.5-12.1,5.4-12.2c1.5-0.1,12.1,2.7,14.7,3.7c-0.1-1.2,0.5,1.2,1.6,3.8c3.2,6.6,1.1,6.9,4.9,0.8
		c3.6-6.4,2.2-7.3,5-1.4c4.9,5.9,2.3,6.7,6.8,2.6c3.9-3.9,3.6-5.9,4.9-0.4c2,3.9,0.3,6.4,3.4,4c4.2-4.1,2.5-1.8,4.2,7.3l1.7,12.7
		l-17.2,14.1l-14.7,23.6l-8.7,0.5c-4.2-3.5-8.7-1.4-11-1.9c-1.8,0.7-18.9,2.7-38,4.6c-31.2,3.9-35.1,5.3-35.6,1.9
		c-0.9-3.8-1.6-1.7-3.8,0.2C49.7,160.9,48.3,163.1,48.7,163.6"/>
	<path class="st2" d="M139.1,161.9c-0.6-2.5-2.8-9.8-2.1-10.6c0.4-0.4,3.4-0.9,6.8-1c3.4-0.2,6-0.3,7.4-1.6c-0.9-0.7-2.9-1.5-4.5-2
		c-5.9-2.4-16.7-13.1-18.2-18c-0.7-2.3-2.2-4.7-2.9-11c0.7-6.1,2.1-10.3,2.5-12.2l1.7-5.2l1.8,4.4c0.3,3.8,0.9,3.6,1.5,2.4
		c1.7-1,2-2.8,1.4-3.9c0-0.8,0.7-2.4,1.2-3c1.2-1,10.5-4.4,12.2-4.4c0.5,0,1.4,1.4,1.9,4.1c2.1,6.9,2.6,6.3,6.7-2.4
		c1.6-2.1,2.9-4.2,3.2-5.1c0.7,0.4,1.1,2.3,2.6,4.1c2,3.8,2.4,4.8,4.8,1.4c2.6-4.4,3.3-4.1,4.8-0.1c1.5,3.8,1.3,5.6,4.3,2.1
		c1.6-0.4,1.3,2.6,3.3,9c1.5,4,3,7.6,4.8,7.1c1.3,5,5.4,15.6,6.1,16.7c-1.3,0.3-3.9,1.5-6.2,3c-3.8,3.3-4.1,2.7-9.9,1.9
		c-2.4-0.1-6.1,0.2-5,1.2c-0.7,1.6,0.8,3.6,3.3,4.4c2.2-0.1-0.4,1.6-8.1,5.3c-3.6,2.1-8.1,4.8-9.9,6.1
		C141.9,160.9,140.5,161.7,139.1,161.9"/>
	<path class="st3" d="M134.3,101.6c-0.7-2.6,0.7-9,2.5-11.1c3.8-5.2,9.7-2.4,12.9,6c0.9,2.5,1.6,5.2,1.5,5.8
		c-0.1,0.4-4.1,0.2-8.5-0.6C137,103.1,134.7,103.1,134.3,101.6"/>
	<path class="st4" d="M186.2,126.3c-0.9-1.9-0.9-3.1,0.4-5.3c1.6-2.5,1.6-2.5,2.1,2.6C189.2,129.1,188.7,129.9,186.2,126.3"/>
	<path class="st5" d="M166.4,142.7c-4.5-1.8-6.2-3.9-4.4-6.1c0.1-1,4.5-1.8,10.5-1.5c5.9,0.2,11-0.8,14.1-2.8
		c4.7-1.5,6.1-1.2,3.3,1.7c-2.2,2.1-2.2,3.5,0.2,5.1c1.4,0.9,1.8,1.6,1.2,2.3c-1.5,1.2-6.2,2.2-7.6,1.8c-0.8-1.1-0.3-1.4,1.7-1.6
		c2.9,0.4,1.6-0.7-4.1-1.9c-5.9-2.1-13.2-2.3-13.1-0.4c-0.4,1.3,2.6,2.9,9.5,2.5l5.9,1.5l-6.4,0.6
		C173.1,143.8,169.3,143.4,166.4,142.7"/>
	<path class="st6" d="M164.7,124c-4.3-1.2-5.4-2.5-5.3-6.3c0.3-1.6,1.2-2.5,2.5-3.1c1.7,0.3,1.7,0.4,1.7,3.4c0,2.3,0.5,3.6,1.6,3.9
		c2,1.6,3.6-0.4,2.5-3c-0.1-1.7,0.4-1.3,3.1,0.7C175.1,123.7,172.2,125.9,164.7,124"/>
	<path class="st7" d="M183.8,121.2c-1.9-4.3-1.8-5.4,1.1-4.9c1.8,0.7,2,0.4,1.1,1.9c-1.8,0.5-1.7,0.6,0.2,0.6c2,0.3,2.2,1.2,0.9,3.6
		C185.7,125.1,185,124.5,183.8,121.2"/>
	<path class="st8" d="M62.6,172.8c-1.7-2.7-5-11.7-5.7-13.6c0.4-2,11.9-7.4,20.5-8.4c3.4-1.3,21.9-1.4,40.8-1
		c29,0.3,33.3-0.4,34.2,0.7c0.2,1-0.3,2.1-0.4,3.5c-0.6,1.3-8,6-8.9,5.6c0,0.2-2.1,1.7-3.3,3.7c-2.4,1.8-5.1,3.7-7,4.3
		c-1.4-0.2-2.8,0.2-3.4,1.8c0.6,2.8-2.8,3.9-5.6,5.5c-2.6-0.3-4.4-3.9-4.6-7.8l-0.5-2.6l-7.8-0.6c-4.8,0-10.9-0.2-14.4,0.1
		c-7.8,0.4-8.3-0.1-8.1,1.7c1.3,2.9,1.6,3.4,2.9,4.6c1.9-0.1,3.8,0.8,3.4,2.2c0,0.7-1.3,1-5.6,1c-5.2,0.6-5.6-0.5-7.1-4
		c-4.9-1.6-7.4-2.1-9.7-0.3c0.9,0.1,1.3,0.6,1.8,1c1.6,2.5,0.3,3.5-4.9,3.1C65,174.1,63.2,173.8,62.6,172.8"/>
	<path class="st9" d="M137.2,99.6c0.1-1,0.6-3.1,1.3-4.8c0.8-2.5,1.7-3.2,3.3-3c2.1,0.2,4.8,3.5,5.8,7.1l0.3,2.6l-5.2,0.3
		C137.6,102.1,137.2,101.8,137.2,99.6"/>
	<path class="st10" d="M189.5,138c-0.9-0.8-1.2-2.2-0.7-3.3c0.5-1.8,5.3-1.9,6.5,0.3c0.5,1.8-1.3,4.5-3.3,4.5
		C191.3,139.5,190.3,138.8,189.5,138"/>
	<path class="st11" d="M164.7,122.5c-2.3-1.4-3.1-6.8-1-7.1c2.3,0.2,4.7,2.5,4.7,4.8C168.6,123.2,167.2,124.1,164.7,122.5"/>
	<path class="st12" d="M138,171.2c-1.5-1.4-3.2-3-4.1-3.4c-2.5-0.5-2.1-1.4,2.2-3.5c3.4-1.9,4.2-2,5.8-1c2.4,1.2,3.8,4.5,3.2,8.4
		C144.2,175,141.1,175,138,171.2"/>
	<path class="st13" d="M81.4,171c-4.2-3.8-4.3-3.6,2.5-5.4c4.8-1.1,5.5-0.2,5.6,3.9C89.2,175.9,87.4,176.1,81.4,171"/>
	<path class="st14" d="M66.5,176.3l-2.8-2.5l2.6,0.2c2.1-0.6,3.2-1.4,3.6-2.5c0.6-1.9,3.8-2.7,5.8-0.7c1.8,1.4,1.5,5.3-0.4,6.5
		C72.5,178.7,69.9,178.4,66.5,176.3"/>
	<path class="st15" d="M124.2,175.8c-2.1-1.7-2-2-0.5-2c0.9,0.3,2.7-1,3.6-2.1c2.2-3.4,3.4-3.6,6.1-0.9c1.7,2.6,1.7,4.2-0.5,6
		C130.3,178.6,126.3,178.1,124.2,175.8"/>
	<path class="st16" d="M188.9,138.5c-1.6-1.6-1.3-2.7,1.1-5c1.9-2,2-2,3.7-0.7c1,1.1,1.7,2.3,2.3,3.1c-0.7,1.1-0.8,1.1-1.4-0.1
		c-1.1-1.7-4.8-1.9-5.2-0.1c-0.6,0.5-0.3,1.7,0.4,2.4C191,139.6,190.4,139.9,188.9,138.5"/>
	<path class="st17" d="M143,176c-2.7-2-2.9-2.2-1.1-2.4c1.2-0.3,2-1.3,2.3-2.4c0.3-2.8,3-3.1,5.7-1.3c2.7,2,3,5.6,0.5,7
		C147.9,178.4,146.9,178.3,143,176"/>
	<path class="st18" d="M87.9,176.6c-1.9-1.5-2.7-2-1.5-2.2c1.2-0.2,2.1-1.4,2.4-3c0.5-2.8,2.6-3.5,5.7-1.2c2.7,1.5,3,5.2,0.4,6.5
		C92.6,178.3,91.5,178.2,87.9,176.6"/>
</g>
</svg>
