<?xml version="1.0" ?>
<svg xmlns="http://www.w3.org/2000/svg" version="1.1" width="224" height="224">
  <defs/>
  <g>
    <path d="M 93.4585189819336 126.61021423339844 C 93.4585189819336 126.61021423339844 93.4585189819336 126.61021423339844 93.4585189819336 126.61021423339844 C 93.90446472167969 126.31343841552734 94.28799438476562 125.88858032226562 94.79637908935547 125.7191162109375 C 96.64910125732422 125.1020736694336 98.98102569580078 127.43399810791016 98.3631820678711 129.28672790527344 C 98.19371795654297 129.7951202392578 97.76885223388672 130.17864990234375 97.47127532958984 130.6245880126953 C 93.11310577392578 134.98114013671875 88.75493621826172 139.3385009765625 84.39676666259766 143.69586181640625 C 83.95081329345703 143.99261474609375 83.56729888916016 144.41830444335938 83.05890655517578 144.5877685546875 C 81.20536804199219 145.20480346679688 78.87425231933594 142.8720703125 79.49210357666016 141.0193328857422 C 79.66156005859375 140.51095581054688 80.08642578125 140.12742614746094 80.38400268554688 139.6814727783203 C 84.74217224121094 135.32493591308594 89.10034942626953 130.96755981445312 93.4585189819336 126.61021423339844" stroke-width="0.0" fill="rgb(151, 151, 151)" opacity="1.0" stroke="rgb(0, 0, 0)" stroke-opacity="1.0" stroke-linecap="round" stroke-linejoin="round"/>
    <path d="M 145.83035278320312 54.16727066040039 C 153.8574981689453 62.193599700927734 161.8846435546875 70.2191162109375 169.91259765625 78.24545288085938 C 153.12289428710938 95.03596496582031 136.33319091796875 111.82728576660156 119.54348754882812 128.61781311035156 C 111.51634216308594 120.59066009521484 103.48839569091797 112.56351470947266 95.46125030517578 104.536376953125 C 112.2509536743164 87.74667358398438 129.0406494140625 70.95697021484375 145.83035278320312 54.16727066040039" stroke-width="0.0" fill="rgb(180, 223, 251)" opacity="1.0" stroke="rgb(0, 0, 0)" stroke-opacity="1.0" stroke-linecap="round" stroke-linejoin="round"/>
    <path d="M 117.53427124023438 82.46253967285156 C 120.2107925415039 85.13662719726562 122.88732147216797 87.81072998046875 125.5638427734375 90.48562622070312 C 124.22599029541016 91.823486328125 122.88894653320312 93.16215515136719 121.55108642578125 94.50001525878906 C 118.87537384033203 91.82591247558594 116.19884490966797 89.15182495117188 113.52232360839844 86.47772979736328 C 114.85936737060547 85.13906860351562 116.19722747802734 83.80120849609375 117.53427124023438 82.46253967285156" stroke-width="0.0" fill="rgb(94, 167, 255)" opacity="1.0" stroke="rgb(0, 0, 0)" stroke-opacity="1.0" stroke-linecap="round" stroke-linejoin="round"/>
    <path d="M 127.57307434082031 72.43104553222656 C 130.24716186523438 75.10675811767578 132.92124938964844 77.78327941894531 135.59535217285156 80.45980834960938 C 134.25668334960938 81.79685974121094 132.91880798339844 83.13390350341797 131.5801544189453 84.470947265625 C 128.90606689453125 81.79523468017578 126.23196411132812 79.11870574951172 123.55787658691406 76.44218444824219 C 124.89653778076172 75.10514068603516 126.23440551757812 73.7680892944336 127.57307434082031 72.43104553222656" stroke-width="0.0" fill="rgb(94, 167, 255)" opacity="1.0" stroke="rgb(0, 0, 0)" stroke-opacity="1.0" stroke-linecap="round" stroke-linejoin="round"/>
    <path d="M 137.60293579101562 62.39549255371094 C 140.27865600585938 65.07121276855469 142.95437622070312 67.74691772460938 145.6300811767578 70.42263793945312 C 144.29302978515625 71.760498046875 142.95518493652344 73.09835052490234 141.61732482910156 74.43620300292969 C 138.9416046142578 71.760498046875 136.26589965820312 69.08477783203125 133.59017944335938 66.40825653076172 C 134.92803955078125 65.07121276855469 136.26589965820312 63.73335266113281 137.60293579101562 62.39549255371094" stroke-width="0.0" fill="rgb(94, 167, 255)" opacity="1.0" stroke="rgb(0, 0, 0)" stroke-opacity="1.0" stroke-linecap="round" stroke-linejoin="round"/>
    <path d="M 165.89822387695312 38.113792419433594 C 172.58750915527344 44.803077697753906 179.27679443359375 51.49236297607422 185.96607971191406 58.18083572387695 C 179.94570922851562 64.2011947631836 173.92535400390625 70.2215576171875 167.90582275390625 76.24109649658203 C 161.21652221679688 69.55181884765625 154.52723693847656 62.863338470458984 147.83795166015625 56.174049377441406 C 153.85830688476562 50.15369415283203 159.8778533935547 44.133331298828125 165.89822387695312 38.113792419433594" stroke-width="0.0" fill="rgb(216, 216, 216)" opacity="1.0" stroke="rgb(0, 0, 0)" stroke-opacity="1.0" stroke-linecap="round" stroke-linejoin="round"/>
    <path d="M 173.92697143554688 46.13931655883789 C 175.26483154296875 47.477169036865234 176.60186767578125 48.815025329589844 177.9397430419922 50.15288543701172 C 171.9185791015625 56.17324447631836 165.89739990234375 62.192787170410156 159.87704467773438 68.21233367919922 C 158.5391845703125 66.87448120117188 157.2013397216797 65.53662109375 155.86346435546875 64.19876098632812 C 161.8846435546875 58.17840576171875 167.90582275390625 52.15885925292969 173.92697143554688 46.13931655883789" stroke-width="0.0" fill="rgb(151, 151, 151)" opacity="1.0" stroke="rgb(0, 0, 0)" stroke-opacity="1.0" stroke-linecap="round" stroke-linejoin="round"/>
    <path d="M 165.90145874023438 38.111358642578125 C 167.23931884765625 39.44921112060547 168.57717895507812 40.78626251220703 169.91502380371094 42.124122619628906 C 163.89385986328125 48.14529037475586 157.8726806640625 54.16645431518555 151.8523406982422 60.1876220703125 C 150.5144805908203 58.84976577758789 149.17662048339844 57.51190948486328 147.83876037597656 56.174049377441406 C 153.8599395751953 50.15288543701172 159.8802947998047 44.1317138671875 165.90145874023438 38.111358642578125" stroke-width="0.0" fill="rgb(151, 151, 151)" opacity="1.0" stroke="rgb(0, 0, 0)" stroke-opacity="1.0" stroke-linecap="round" stroke-linejoin="round"/>
    <path d="M 181.95169067382812 54.16807556152344 C 183.28955078125 55.50593185424805 184.62741088867188 56.84379196166992 185.96527099609375 58.18083572387695 C 179.9449005126953 64.2011947631836 173.92535400390625 70.22074127197266 167.90582275390625 76.24028015136719 C 166.5679473876953 74.90243530273438 165.2292938232422 73.56538391113281 163.89141845703125 72.22752380371094 C 169.9117889404297 66.20716857910156 175.93133544921875 60.1876220703125 181.95169067382812 54.16807556152344" stroke-width="0.0" fill="rgb(151, 151, 151)" opacity="1.0" stroke="rgb(0, 0, 0)" stroke-opacity="1.0" stroke-linecap="round" stroke-linejoin="round"/>
    <path d="M 159.87704467773438 28.079055786132812 C 171.91775512695312 40.11895751953125 183.95928955078125 52.15885925292969 196.0 64.19876098632812 C 194.6629638671875 65.53662109375 193.32510375976562 66.87448120117188 191.98724365234375 68.21233367919922 C 179.94570922851562 56.172428131103516 167.90499877929688 44.13252258300781 155.86346435546875 32.09342956542969 C 157.2013397216797 30.7547607421875 158.5391845703125 29.416908264160156 159.87704467773438 28.079055786132812" stroke-width="0.0" fill="rgb(151, 151, 151)" opacity="1.0" stroke="rgb(0, 0, 0)" stroke-opacity="1.0" stroke-linecap="round" stroke-linejoin="round"/>
    <path d="M 105.4968032836914 94.50163269042969 C 113.5239486694336 102.52877807617188 121.55108642578125 110.55510711669922 129.57742309570312 118.5822525024414 C 128.23956298828125 119.92010498046875 126.90170288085938 121.25796508789062 125.5638427734375 122.5958251953125 C 117.53670501708984 114.56867980957031 109.51036834716797 106.54153442382812 101.48403930664062 98.51520538330078 C 102.82189178466797 97.17735290527344 104.15894317626953 95.83949279785156 105.4968032836914 94.50163269042969" stroke-width="0.0" fill="rgb(94, 167, 255)" opacity="1.0" stroke="rgb(0, 0, 0)" stroke-opacity="1.0" stroke-linecap="round" stroke-linejoin="round"/>
    <path d="M 101.48322296142578 110.55754089355469 C 105.49598693847656 114.57030487060547 109.50875091552734 118.58386993408203 113.5215072631836 122.59663391113281 C 108.8398208618164 127.2783203125 104.15731811523438 131.96083068847656 99.47563171386719 136.64251708984375 C 95.46287536621094 132.6297607421875 91.45011138916016 128.6169891357422 87.43653869628906 124.60342407226562 C 92.1190414428711 119.9217300415039 96.80072784423828 115.24004364013672 101.48322296142578 110.55754089355469" stroke-width="0.0" fill="rgb(127, 210, 91)" opacity="1.0" stroke="rgb(0, 0, 0)" stroke-opacity="1.0" stroke-linecap="round" stroke-linejoin="round"/>
    <path d="M 40.73316192626953 132.24867248535156 C 40.73316192626953 132.24867248535156 40.73316192626953 132.24867248535156 40.73316192626953 132.24867248535156 C 44.43781280517578 132.70191955566406 47.59109878540039 135.5949249267578 51.325740814208984 135.5949249267578 C 54.061466217041016 135.5949249267578 56.422576904296875 133.83462524414062 58.88990783691406 132.9119110107422 C 62.09833526611328 131.7127227783203 65.41053771972656 132.34515380859375 68.03680419921875 134.53599548339844 C 71.28089904785156 137.24496459960938 72.93903350830078 141.51473999023438 73.68336486816406 145.56643676757812 C 75.12501525878906 153.42086791992188 73.5390396118164 162.05288696289062 72.2060546875 169.81326293945312 C 71.63198852539062 173.15951538085938 70.95980834960938 176.49282836914062 70.12628936767578 179.78558349609375 C 69.27411651611328 183.15292358398438 68.29383087158203 186.54864501953125 66.79542541503906 189.69302368164062 C 66.01622772216797 191.33006286621094 65.01972961425781 193.25253295898438 63.4094352722168 194.2295684814453 C 60.62263870239258 195.92092895507812 59.784244537353516 191.91384887695312 59.312347412109375 189.9857177734375 C 57.85530471801758 184.02780151367188 57.5301628112793 177.75283813476562 55.440670013427734 171.95382690429688 C 54.81390380859375 170.21380615234375 53.072261810302734 166.1207733154297 50.45410919189453 167.4659423828125 C 48.43678665161133 168.50216674804688 47.6916389465332 171.79005432128906 47.137847900390625 173.73440551757812 C 45.784584045410156 178.4890594482422 45.10835266113281 183.40345764160156 43.96186065673828 188.20677185058594 C 43.58888244628906 189.76841735839844 43.202110290527344 191.3819580078125 42.52588653564453 192.84791564941406 C 42.187774658203125 193.58010864257812 41.67695617675781 194.61227416992188 40.73316192626953 194.6820068359375 C 39.183677673339844 194.79714965820312 37.89122009277344 193.14144897460938 37.147705078125 192.0233154296875 C 34.75334167480469 188.41839599609375 33.57359313964844 183.9296875 32.524391174316406 179.78558349609375 C 30.890586853027344 173.33059692382812 29.802459716796875 166.71835327148438 29.07434844970703 160.10284423828125 C 28.480010986328125 154.69952392578125 28.0 149.1591796875 29.346778869628906 143.82476806640625 C 30.80950164794922 138.02821350097656 34.36009216308594 132.70840454101562 40.73316192626953 132.24867248535156 C 40.73316192626953 132.24867248535156 40.73316192626953 132.24867248535156 40.73316192626953 132.24867248535156" stroke-width="0.0" fill="rgb(94, 167, 255)" opacity="1.0" stroke="rgb(0, 0, 0)" stroke-opacity="1.0" stroke-linecap="round" stroke-linejoin="round"/>
  </g>
</svg>
