<?xml version="1.0" encoding="UTF-8"?>
<svg xmlns="http://www.w3.org/2000/svg" version="1.1" viewBox="0 0 224 224">
  <defs>
    <style>
      .cls-1 {
        fill: #e8e8f0;
        opacity: 1;
      }

      .cls-1, .cls-2, .cls-3, .cls-4, .cls-5, .cls-6, .cls-7, .cls-8, .cls-9, .cls-10, .cls-11, .cls-12, .cls-13, .cls-14, .cls-15, .cls-16, .cls-17, .cls-18, .cls-19, .cls-20 {
        isolation: isolate;
      }

      .cls-2 {
        fill: #fe9bb0;
        opacity: 1;
      }

      .cls-3 {
        fill: #4e96d1;
        opacity: 1;
      }

      .cls-4 {
        fill: #fc3d1a;
        opacity: 1;
      }

      .cls-5 {
        fill: #fe9ab4;
        opacity: 1;
      }

      .cls-6 {
        fill: #cf250a;
        opacity: 1;
      }

      .cls-7 {
        fill: #f7659a;
        opacity: 1;
      }

      .cls-8 {
        opacity: 1;
      }

      .cls-8, .cls-9 {
        fill: #fe3c18;
      }

      .cls-9 {
        opacity: 1;
      }

      .cls-10 {
        fill: #cf260b;
        opacity: 1;
      }

      .cls-21 {
        fill: #4e93d0;
      }

      .cls-11 {
        fill: #f3f4f5;
        opacity: 1;
      }

      .cls-12 {
        fill: #e4e8ee;
        opacity: 1;
      }

      .cls-13 {
        fill: #d0250b;
        opacity: 1;
      }

      .cls-14 {
        fill: #4c94d3;
        opacity: 1;
      }

      .cls-15 {
        fill: #4e95d0;
        opacity: 1;
      }

      .cls-16 {
        fill: #564d4a;
        opacity: 1;
      }

      .cls-17 {
        fill: #4b93d4;
        opacity: 1;
      }

      .cls-18 {
        fill: #f7629a;
        opacity: 1;
      }

      .cls-19 {
        fill: #564e4b;
        opacity: 1;
      }

      .cls-20 {
        fill: #fcd515;
        opacity: 1;
      }
    </style>
  </defs>
  <!-- Generator: Adobe Illustrator 28.6.0, SVG Export Plug-In . SVG Version: 1.2.0 Build 709)  -->
  <g>
    <g id="_图层_1" data-name="图层_1">
      <g>
        <path class="cls-20" d="M51.8,161.2c0-2-.3-92.6,0-101.9,2.2-14.8,7.2-25.3,16-28.8,3.4-2.6,4.7-2.4,42.8-2.1,39.6,0,41.3-.3,44.2,1.6,6.1,2,10.7,7.7,13,14.7,4.5,8.6,3.7,19.4,3.9,69.6v47.8c-.1,0-59.6.2-59.6.2-33.2-.5-60.8-.7-60.3-1.2"/>
        <path class="cls-2" d="M139.2,159c-3.2-7.4,3.1-16.7,11.3-16.9,2.2-.2,5.1.4,6.6.9,3,1.9,5.6,7.3,5.7,13v4.4s-11.4.2-11.4.2c-9.4.3-11.7,0-12.1-1.6"/>
        <path class="cls-11" d="M53,173.9c-4.5-2.6-6-8.5-3-13l2.3-2.8,119.9.2,2.1,2.8c2.7,3.1,2.8,7.7.2,10.4-2.3,2.4-3.1,2.4-28.8,2.9-29.3.7-90.2.3-92.7-.4"/>
        <path class="cls-1" d="M96.2,48.6c-.4-10.6-.4-11.3,2.4-11.3,2.4-.3,2.5.5,2.6,11.3.8,10.2.5,11.2-1.7,11.3-2.6,0-2.8-.9-3.2-11.3"/>
        <path class="cls-9" d="M60.3,72.7c-5.6-4-6.4-12-1.1-16.4,9.8-8.2,22.4,4.5,14.1,14.1-3.4,3.5-9.4,4.9-12.9,2.3"/>
        <path class="cls-4" d="M88.4,72.8c-3.2-2.1-5.8-7.4-4.9-11.1.4-1.5,2.2-4.1,3.3-5.8l3.9-2.6,41.9-.3,3.4,3.6c3.1,3.3,3.6,7,1.3,11.8-2.6,5.2-4.5,5.7-26.2,5.7-15.7,0-20.7-.2-22.6-1.4"/>
        <path class="cls-8" d="M150.1,70.9c-2.7-2.6-3.3-4.1-3.2-6.9,0-7.9,7.9-12.4,15.1-8.6,4.7,2.3,6.2,7.9,3.7,12.8-3.3,6.6-10.8,7.9-15.6,2.7"/>
        <path class="cls-17" d="M59.5,107.2c-2.3-1.6-2.7-2.8-2.6-10.6.4-13.4.4-13.9,27.3-13.5,14.4-.2,20.6.1,21.8,1.7,2.8,2.1,4,5.1,3.6,11.7,0,7-1.6,11.7-4.3,12.7-.7,1.2-11,.9-22.7.9l-20.7-.3-2.4-2.6"/>
        <path class="cls-14" d="M118.3,109c-3.1-.9-4.8-5.2-4.5-13.1.1-6.7.6-7.8,2.4-10l2.8-2.5,20.7-.3c13.5.3,21.6,0,23.2,1.3,4.1,2,5.1,10.7,3.5,18.7-2,6.6-2.8,7.3-26.3,6.8-11.9,0-22.1.2-21.8-.9"/>
        <path class="cls-3" d="M70.5,47.3c-.1-2.9.2-5.6.9-6.5,1.1-2.5,6.1-3.6,16-3.3h9c0,.1.2,15.7.2,15.7h-26.2s.2-6,.2-6"/>
        <path class="cls-21" d="M100.9,45.2v-7.5c0,0,22.3,0,22.3,0v15.7c0,0-22.4,0-22.4,0v-8.2"/>
        <path class="cls-15" d="M126.7,45.8v-8.1c0,0,10.7,0,10.7,0,10.7-.3,11-.1,13.8,1.7,2,2.5,2.6,3.4,1.9,7.7l.2,5.8-26.3.4-.2-7.6"/>
        <path class="cls-18" d="M137.3,153.2c.3-8.7,5.6-14.1,14-14.5,5.8.1,9.3,2.2,12,6.4,3,4.8,2.6,13.1-.3,13-1,0-1.4-1.4-1.5-3.9,0-4.5-1.9-9.1-4.6-10.5-1-.5-3.3-.9-5.4-.9-2.9,0-4.1.8-6.8,3.3-3.1,3.2-3.2,3.8-2.7,7.7.6,4.1.3,4.4-1.8,4.2-2.1.4-2.3-.2-2.8-4.9"/>
        <path class="cls-5" d="M60.3,158.4c1.2-.3,1.7-1.5,1.7-5.8.1-4.4.7-5.7,3.2-8.4,2.4-2.3,4.1-3,7.6-2.7,3.8-.4,5.4.2,7.5,2.7,2.6,2.6,3.1,4,2.8,8.7v5.6c.1,0-8.9-.2-8.9-.2-4.9,0-10.4,0-12.4,0-1.9.4-2.9-.2-1.6,0"/>
        <path class="cls-19" d="M61.4,191.4c-5.2-2.9-7.3-8.6-5.5-15.1,0-2.4.4-2.4,11.1-2.4,12.4-.5,13.2,0,13.1,6.5.1,9.5-10.7,15.5-18.7,10.9"/>
        <path class="cls-16" d="M150.4,191.6c-5.2-3-7.6-8.7-5.9-15.1.3-2.4.8-2.8,11.9-2.4h11.3c0,.1.7,3.7.7,3.7,1.8,6.8-4.9,15.4-12,15.5-1.8.2-4.5-.6-6-1.7"/>
        <path class="cls-13" d="M91.5,67.7c-1.1-1.3-1.9-2.9-1.9-4.3-.1-2.2,4.1-6.6,6.3-6.5,2.1,0,6,4.5,6.2,7.3-.2,3.1-3.4,5.9-6.4,6.3-1.3,0-3.1-1-4.2-2.8"/>
        <path class="cls-10" d="M109.2,68.2c-2.5-3.4-2.5-5.5-.3-8.5,2-3,4.2-2.9,6.3.3,1.4,2.2,1.5,3.7.7,6.6-1.1,4.9-3.3,5.4-6.6,1.6"/>
        <path class="cls-6" d="M123.9,68.7c-5.2-5,.3-14.1,6.2-10.9,5.8,3.1,3.9,12.6-2.4,12.5-1.3,0-2.9-.7-3.8-1.6"/>
        <path class="cls-12" d="M122.4,45.2c-.2-7.6,0-7.6,2.6-7.8,2.5.3,2.7.3,2.3,7.9.2,7.7.2,7.8-2.3,8-2.4-.4-2.4-.3-2.5-8.1"/>
        <path class="cls-7" d="M58.6,156.1c-2.6-9.2,3.7-16.9,13.8-17.2,4.5.3,5.6.6,8.8,3.2,3.9,3.2,5.9,7.9,4.8,12.6-.5,2.4-1.1,3.5-2.7,3.3-1.2.1-1.5-.6-1.7-4.9-.1-3.5-.3-4.7-2.7-7.5-2-2-3.6-2.6-6.8-2.7-3.3,0-4.7.6-6.8,3.2-2.2,1.8-2.5,3.2-2.7,7.1.3,4.1-.2,4.8-1.4,5.1-1.2.2-2.2-.6-2.6-2.3"/>
      </g>
    </g>
  </g>
</svg>