<?xml version="1.0" encoding="UTF-8"?>
<svg xmlns="http://www.w3.org/2000/svg" version="1.1" viewBox="0 0 224 224">
  <defs>
    <style>
      .cls-1 {
        fill: #a6c865;
        opacity: 1;
      }

      .cls-1, .cls-2, .cls-3, .cls-4, .cls-5, .cls-6, .cls-7, .cls-8, .cls-9, .cls-10 {
        isolation: isolate;
      }

      .cls-2 {
        fill: #9ed265;
        opacity: 1;
      }

      .cls-3 {
        fill: #a2c35d;
        opacity: 1;
      }

      .cls-4 {
        fill: #9d91cd;
        opacity: 1;
      }

      .cls-5 {
        fill: #a4c55d;
        opacity: 1;
      }

      .cls-6 {
        fill: #a8ca6a;
        opacity: 1;
      }

      .cls-7 {
        fill: #4d4490;
        opacity: 1;
      }

      .cls-8 {
        fill: #a5ca6c;
        opacity: 1;
      }

      .cls-9 {
        fill: #a8cc6f;
        opacity: .9;
      }

      .cls-10 {
        fill: #fcfefd;
        opacity: 1;
      }
    </style>
  </defs>
  <!-- Generator: Adobe Illustrator 28.6.0, SVG Export Plug-In . SVG Version: 1.2.0 Build 709)  -->
  <g>
    <g id="_图层_1" data-name="图层_1">
      <g>
        <path class="cls-7" d="M97.7,190.1c-11.8-2-23-6.2-32.8-13.1-14.2-10-24.4-22.1-31.4-38-4.6-11.6-5.5-34.1-2.1-46.2,6.1-23.1,21.3-41.8,41.5-51.5,13.4-7,23.7-9.2,39.7-9.6,23.9.2,42.5,7.9,59.6,24.4,11.5,12.4,17.9,24,21,39.5,2.8,12.2,2.6,18.8.2,30.7-6.2,29.4-26.3,51.4-55.6,60.9-11.2,3.7-29.8,5.1-40.1,2.9"/>
        <path class="cls-4" d="M53.7,68.7c-1.2-2.4,1.9-7.7,7.9-13.4,7-6.2,20.4-12.1,22.5-9.8,2.4,2,0,5-5.3,7.1-9.1,2.5-16.4,7.8-18.6,12.8-2.4,4.4-5.1,5.8-6.5,3.3"/>
        <path class="cls-3" d="M111.1,109.8l1-47.2,7.8.6c14.9,1.4,29.4,12.5,36.6,28.2,4.9,10.2,5.4,26,1.1,36.7-5.8,15.9-24.1,29-40,28.9h-6.2s-.3-47.2-.3-47.2"/>
        <path class="cls-10" d="M98.9,153.9c-14.4-5.5-23.4-14.7-28.5-29.2-4.7-17.8-2.7-30.6,10.7-46.8,7.4-8.2,17.8-13.6,25.6-14l5.7-.8-.7,7.4c-.1,3.5,0,12.6.4,20-.5,6.6-.7,15.3-.1,18.6,0,4.3-.1,16.4,0,27.3v19.1s-3.6.5-3.6.5c-2.2.6-6.6-.7-9.5-2.1"/>
        <path class="cls-9" d="M96,145c-4.5-2.9-3.4-8.5,1.6-8.7,3.3-.2,4.4.6,4.9,3.3.8,4.9-2.8,7.8-6.5,5.4"/>
        <path class="cls-1" d="M83.5,131.7c-2.7-2.9-2.7-5.4-.4-7.7,4.9-3.9,13.1,1.3,10,6.4-2.1,3.3-6.6,3.9-9.5,1.4"/>
        <path class="cls-2" d="M70.1,124.9c-2-7.4-1.6-8.7,1.7-8.1,3.7.2,4.6,2.8,3.4,9.2-2.1,6.2-3.2,5.7-5-1.2"/>
        <path class="cls-8" d="M100.7,105.4c-1.9-2.1-1.1-7,.8-9.1,1.8-1.5,3-1.6,5.9-.3,3.7,1.7,4.7,4,2.8,8.5-.7,2.1-7.7,3.3-9.5.9"/>
        <path class="cls-5" d="M76.4,89.9l-3.2-1,2.5-4.1c7-10.4,13.1-12.7,16.7-5.6,4.1,7.3-6.1,14.2-16,10.7"/>
        <path class="cls-6" d="M101.4,84.2c-3.7-4.7,2-9.7,7-6,1.9,1.6,2.1,2.6.9,4.5-2.3,3.5-5.8,4.2-7.9,1.5"/>
      </g>
    </g>
  </g>
</svg>