<?xml version="1.0" encoding="UTF-8"?>
<svg xmlns="http://www.w3.org/2000/svg" version="1.1" viewBox="0 0 224 224">
  <defs>
    <style>
      .cls-1 {
        fill: #030203;
        opacity: 1;
      }

      .cls-1, .cls-2, .cls-3 {
        isolation: isolate;
      }

      .cls-2 {
        fill: #020102;
        opacity: 1;
      }

      .cls-4 {
        fill: #dfe0e1;
      }

      .cls-3 {
        fill: #e2e3e4;
        opacity: 1;
      }
    </style>
  </defs>
  <!-- Generator: Adobe Illustrator 28.6.0, SVG Export Plug-In . SVG Version: 1.2.0 Build 709)  -->
  <g>
    <g id="_图层_1" data-name="图层_1">
      <g>
        <path class="cls-2" d="M71.7,194.9c.6-.9,2.8-4.9,5.5-9.5,2.9-4.6,5.4-8.7,5.7-9.5-.2-.7-.9-2.2-1.3-3.1-2.7-3.3-2.3-4.6,1.4-4.7l4,.3,4.9-18.7c5.1-18.5,5.6-18.6,3.1-21.3-.7-2.3-1.3-4.3-1.3-5-.2-.4,6.8-.8,17.1,0,11.6-.4,17.2,0,17.7.6-.4,1.3-2.3,5.1-3.4,6.4-1.4,0,.7,7,4.3,19.2l5.6,18.8,4.5-.5c4.4.5,3.8.8,1.7,5.2-1.1,3-.3,3.5,5.4,11.9,3.1,5.3,5.7,9.2,5.8,9.8-.6,0-3.4.2-6.8,0-6.4.7-6.9,1.1-7.8-2-2.5-7.9-12.2-12.2-26-12.5-13.8.6-23.1,4.8-25.1,12l-1.2,3.2h-7.2c-3.2-.4-5.9-.7-6.6-.6"/>
        <path class="cls-1" d="M122.2,118.2c0,1.4.3,3,.1,4.4-.3,2.1-2.6,2.1-4.4,2.4-5,1-10.2,1-15.2,0-1.2-.2-3-.7-3.4-2s.2-1.7.2-2.3l.5-4.8c1.2-5.6,4-27.8,6.8-55.8.5-5.1,1.6-13.2,1.1-16.3-3-7.2-.3-6.3,2.3-8,0-7.9,2-7.8,2.2.2,3.5-.4,4.7,1.4,1.6,9.9,1.4,12.9,3.4,40,6.3,58.6.4,4.4,1.2,10.1,1.8,13.6Z"/>
        <path class="cls-4" d="M109.3,105.5c1-9.6,1.6-18.9,1.9-21,0-.6.2,1.1.2,1.3.2,1.9.4,3.9.5,5.8.5,5.8.9,11.6,1.3,17.3s.3,4.4.4,6.6.6,4.3,1,6.7c0,.2,0,.4,0,.6-.2.3-.5.4-.9.4-2.1.3-3.9.1-6.1,0l1.6-17.8"/>
        <path class="cls-3" d="M99.7,166.3c.2-1.4,1.5-8.7,2.8-16.6,1.3-7.7,2.7-15.5,3-17,.6-2.5.8-2.6,5.3-2.2l4.4.3,3.6,17.4c1.8,9.8,3.5,18.2,3.6,19.1.1.8-2.9.9-11.6.6-11.6.4-11.9.6-11-1.7"/>
      </g>
    </g>
  </g>
</svg>