<?xml version="1.0" ?>
<svg xmlns="http://www.w3.org/2000/svg" version="1.1" width="224" height="224">
  <defs/>
  <g>
    <path d="M 188.32806396484375 127.46041107177734 C 187.6572265625 127.30372619628906 185.61984252929688 126.92965698242188 184.0097198486328 126.54862213134766 L 179.41812133789062 125.96723175048828 L 180.07400512695312 33.42650604248047 L 184.21112060546875 33.98878479003906 C 186.04202270507812 33.784088134765625 188.30958557128906 34.53215789794922 189.79710388183594 35.47834777832031 C 195.57086181640625 38.98643493652344 194.61236572265625 39.23551940917969 194.58523559570312 85.59468078613281 L 194.32382202148438 127.89144134521484 L 191.51715087890625 127.8414535522461 C 190.45045471191406 127.77354431152344 189.01834106445312 127.58670806884766 188.32806396484375 127.46041107177734" stroke-width="1.0" fill="rgb(197, 241, 254)" opacity="0.99855345"/>
    <path d="M 151.25051879882812 108.88533020019531 C 136.2686309814453 105.0766372680664 120.72024536132812 101.6114501953125 117.51436614990234 100.90142822265625 C 110.80608367919922 99.20667266845703 82.49048614501953 93.10818481445312 77.46749877929688 92.12362670898438 C 62.731014251708984 89.00564575195312 43.52513122558594 84.56268310546875 41.68286895751953 84.02128601074219 L 40.08000946044922 83.24317932128906 L 40.27503204345703 55.90850830078125 L 40.82490539550781 28.0 L 182.00286865234375 28.2728271484375 L 181.9691162109375 71.85707092285156 C 182.0037841796875 109.26769256591797 182.15213012695312 114.38218688964844 181.38650512695312 114.21892547607422 C 180.141845703125 114.68128967285156 166.92271423339844 111.90937042236328 151.25051879882812 108.88533020019531" stroke-width="0.0" fill="rgb(140, 70, 52)" opacity="0.97976714"/>
    <path d="M 167.16281127929688 193.3336944580078 C 158.98226928710938 190.82705688476562 150.721923828125 185.50485229492188 142.39866638183594 177.73583984375 C 108.5597152709961 147.171630859375 104.06131744384766 142.33961486816406 103.73458862304688 139.76878356933594 C 103.78907012939453 131.09698486328125 139.7386016845703 120.19078063964844 166.9136199951172 120.26839447021484 C 177.20826721191406 120.32950592041016 190.9443817138672 122.29309844970703 193.32699584960938 122.93522644042969 C 194.63894653320312 123.4263916015625 194.66526794433594 125.68331146240234 194.4600830078125 153.52886962890625 C 194.5440673828125 172.61317443847656 194.44845581054688 184.07269287109375 193.65133666992188 186.23211669921875 C 191.86019897460938 188.51731872558594 188.6374053955078 191.2397918701172 185.52552795410156 192.21792602539062 C 181.8446044921875 194.29095458984375 171.6031494140625 194.49917602539062 167.16281127929688 193.3336944580078" stroke-width="0.0" fill="rgb(135, 215, 79)" opacity="0.9944212"/>
    <path d="M 113.88749694824219 102.11074829101562 L 113.87039184570312 71.52899169921875 L 117.80252838134766 67.51231384277344 C 123.89083862304688 60.935821533203125 128.94459533691406 60.38600158691406 134.12660217285156 65.54032897949219 L 136.33706665039062 67.70319366455078 L 139.48936462402344 65.79505920410156 C 147.42726135253906 61.32964324951172 152.4604034423828 65.57884216308594 164.50347900390625 86.88916015625 C 168.64158630371094 94.02484893798828 174.16932678222656 103.06703186035156 177.03518676757812 107.22252655029297 C 181.39016723632812 113.26952362060547 182.30007934570312 115.29332733154297 181.9893798828125 117.60488891601562 L 182.00344848632812 120.96670532226562 L 170.10997009277344 120.81881713867188 C 163.34461975097656 120.82716369628906 154.88243103027344 121.46053314208984 150.3021697998047 122.24967956542969 C 141.08973693847656 123.592529296875 126.7551040649414 127.33374786376953 119.70000457763672 130.26231384277344 C 116.89563751220703 131.5078887939453 114.53459167480469 132.2035369873047 114.0831069946289 132.27536010742188 C 113.68997192382812 132.2650909423828 113.59479522705078 118.67924499511719 113.88749694824219 102.11074829101562" stroke-width="1.0" fill="rgb(89, 188, 233)" opacity="0.9942421"/>
    <path d="M 43.377708435058594 195.82168579101562 C 39.31580352783203 194.64100646972656 39.314483642578125 194.5421142578125 54.800987243652344 170.65478515625 L 65.71697998046875 153.44296264648438 L 77.06820678710938 147.4253387451172 L 88.10589599609375 141.37258911132812 L 95.57933044433594 141.9869384765625 C 101.91536712646484 141.64291381835938 103.96245574951172 142.4708251953125 106.58714294433594 143.96485900878906 C 108.3631591796875 145.14358520507812 112.6783676147461 146.420654296875 116.06941986083984 147.21986389160156 C 127.2281723022461 148.8997039794922 140.37042236328125 153.3467559814453 143.7262725830078 156.0885009765625 L 146.92965698242188 158.95916748046875 L 145.37200927734375 164.71954345703125 C 143.91355895996094 169.78652954101562 144.0494842529297 171.13987731933594 144.60040283203125 174.78549194335938 C 145.48793029785156 178.4188232421875 146.40176391601562 179.6147003173828 149.5004119873047 182.35488891601562 C 155.68455505371094 187.9276580810547 169.47865295410156 193.61883544921875 176.47447204589844 193.669677734375 C 179.4612579345703 193.28854370117188 180.71798706054688 194.53292846679688 178.7816162109375 195.51116943359375 C 177.35235595703125 195.93728637695312 45.88721466064453 196.0 43.377708435058594 195.82168579101562" stroke-width="0.0" fill="rgb(132, 99, 80)" opacity="1.0"/>
    <path d="M 38.444190979003906 192.15673828125 C 33.432518005371094 190.14132690429688 31.62255859375 188.86587524414062 29.963882446289062 186.3789825439453 C 28.454986572265625 183.854736328125 28.429122924804688 182.24842834472656 28.75275421142578 152.85549926757812 L 28.93085479736328 121.88980865478516 L 36.831809997558594 122.48973083496094 C 50.682125091552734 123.7940673828125 66.14581298828125 128.25039672851562 79.12826538085938 134.87109375 C 85.68252563476562 138.2805938720703 88.85195922851562 141.230712890625 88.7091293334961 144.8958740234375 C 88.67085266113281 148.09890747070312 86.06428527832031 149.53085327148438 77.78192138671875 150.98211669921875 C 61.884033203125 153.02316284179688 61.96015167236328 155.38766479492188 78.38700103759766 160.80322265625 C 86.3458480834961 163.6676025390625 89.46827697753906 165.7626953125 91.63206481933594 169.17971801757812 C 94.06884765625 173.3810577392578 93.61705017089844 175.77764892578125 89.40708923339844 179.05160522460938 C 78.87268829345703 187.97360229492188 48.544921875 195.6729278564453 38.444190979003906 192.15673828125" stroke-width="1.0" fill="rgb(135, 214, 77)" opacity="0.9975247"/>
    <path d="M 78.61758422851562 134.8346710205078 C 73.59300231933594 131.7996826171875 57.06764221191406 126.70018768310547 48.76081848144531 124.94332885742188 L 40.574424743652344 123.77799987792969 L 40.22123718261719 85.73834228515625 L 45.51771545410156 76.54803466796875 C 54.572750091552734 61.62554168701172 59.898319244384766 56.896141052246094 65.7733154296875 58.22105407714844 C 69.72933959960938 58.70158386230469 72.9295654296875 61.41680908203125 77.27125549316406 67.77547454833984 L 81.55453491210938 73.68473815917969 L 83.49567413330078 104.8595199584961 C 82.52159881591797 121.92797088623047 82.53099822998047 136.3436279296875 82.44902038574219 136.26524353027344 C 82.07843780517578 136.11929321289062 80.43052673339844 135.53512573242188 78.61758422851562 134.8346710205078" stroke-width="1.0" fill="rgb(87, 188, 232)" opacity="0.9921541"/>
    <path d="M 86.34083557128906 139.89956665039062 C 85.33521270751953 138.93496704101562 83.7716064453125 137.91632080078125 82.68341827392578 137.5390167236328 C 81.14777374267578 136.90406799316406 80.97010803222656 135.3386688232422 80.9375228881836 85.76361083984375 L 81.28660583496094 34.8170166015625 L 114.31644439697266 34.81188201904297 L 113.6163101196289 133.0288848876953 L 110.52552032470703 134.23504638671875 C 108.83033752441406 135.37515258789062 106.64047241210938 137.07046508789062 105.69239044189453 138.78903198242188 L 104.2664794921875 141.3877716064453 L 95.59475708007812 141.49288940429688 C 88.26830291748047 141.55032348632812 87.039306640625 141.4322052001953 86.34083557128906 139.89956665039062" stroke-width="1.0" fill="rgb(193, 237, 253)" opacity="0.994112"/>
    <path d="M 32.690887451171875 123.25153350830078 L 28.737411499023438 122.96734619140625 L 28.73975372314453 82.23707580566406 C 28.670494079589844 43.042808532714844 28.53449249267578 41.19708251953125 30.747886657714844 38.583702087402344 C 32.489463806152344 35.85375213623047 36.356117248535156 33.6558837890625 39.60735321044922 33.905418395996094 C 41.19486999511719 33.89399719238281 41.016517639160156 34.24249267578125 40.803932189941406 78.71665954589844 L 40.36112976074219 123.54093170166016 L 38.286781311035156 123.50820922851562 C 37.327796936035156 123.66423797607422 34.79973602294922 123.34078979492188 32.690887451171875 123.25153350830078" stroke-width="1.0" fill="rgb(197, 241, 254)" opacity="0.99987096"/>
  </g>
</svg>
