<?xml version="1.0" ?>
<svg xmlns="http://www.w3.org/2000/svg" version="1.1" width="224" height="224">
  <defs/>
  <g>
    <path d="M 28.0 44.00183868408203 C 84.0 44.00183868408203 140.0 44.00183868408203 196.0 44.00183868408203 C 196.0 89.33394622802734 196.0 134.66604614257812 196.0 179.9981689453125 C 140.0 179.9981689453125 84.0 179.9981689453125 28.0 179.9981689453125 C 28.0 134.66604614257812 28.0 89.33394622802734 28.0 44.00183868408203" stroke-width="0.0" fill="rgb(0, 0, 0)" opacity="1.0"/>
    <path d="M 35.9996337890625 52.00147247314453 C 35.9996337890625 92.00048828125 35.9996337890625 131.99951171875 35.9996337890625 171.99853515625 C 86.66654205322266 171.99853515625 137.33346557617188 171.99853515625 188.0003662109375 171.99853515625 C 188.0003662109375 131.99951171875 188.0003662109375 92.00048828125 188.0003662109375 52.00147247314453 C 137.33346557617188 52.00147247314453 86.66654205322266 52.00147247314453 35.9996337890625 52.00147247314453" stroke-width="0.0" fill="rgb(255, 255, 255)" opacity="1.0"/>
    <path d="M 28.0 76.0003662109375 C 84.0 76.0003662109375 140.0 76.0003662109375 196.0 76.0003662109375 C 196.0 92.00048828125 196.0 108.00147247314453 196.0 124.00159454345703 C 140.0 124.00159454345703 84.0 124.00159454345703 28.0 124.00159454345703 C 28.0 108.00147247314453 28.0 92.00048828125 28.0 76.0003662109375" stroke-width="0.0" fill="rgb(0, 0, 0)" opacity="1.0"/>
    <path d="M 32.000244140625 80.0006103515625 C 85.33370208740234 80.0006103515625 138.66629028320312 80.0006103515625 191.999755859375 80.0006103515625 C 191.999755859375 93.33419036865234 191.999755859375 106.66777038574219 191.999755859375 120.00135040283203 C 138.66629028320312 120.00135040283203 85.33370208740234 120.00135040283203 32.000244140625 120.00135040283203 C 32.000244140625 106.66777038574219 32.000244140625 93.33419036865234 32.000244140625 80.0006103515625" stroke-width="0.0" fill="rgb(0, 0, 0)" opacity="1.0"/>
    <path d="M 35.9996337890625 84.0 C 35.9996337890625 94.66703796386719 35.9996337890625 105.33492279052734 35.9996337890625 116.00196075439453 C 86.66654205322266 116.00196075439453 137.33346557617188 116.00196075439453 188.0003662109375 116.00196075439453 C 188.0003662109375 105.33492279052734 188.0003662109375 94.66703796386719 188.0003662109375 84.0 C 137.33346557617188 84.0 86.66654205322266 84.0 35.9996337890625 84.0" stroke-width="0.0" fill="rgb(229, 245, 254)" opacity="1.0"/>
  </g>
</svg>
