<?xml version="1.0" ?>
<svg xmlns="http://www.w3.org/2000/svg" version="1.1" width="224" height="224">
  <defs/>
  <g>
    <path d="M 33.418853759765625 126.73107147216797 C 85.806640625 126.73107147216797 138.19337463378906 126.73107147216797 190.5811767578125 126.73107147216797 C 192.10084533691406 126.94786834716797 193.11431884765625 126.80894470214844 194.26458740234375 127.959228515625 C 196.0 129.69464111328125 196.0 133.59066772460938 194.26458740234375 135.32606506347656 C 193.11431884765625 136.47531127929688 192.10084533691406 136.33639526367188 190.5811767578125 136.5531768798828 C 138.19337463378906 136.5531768798828 85.806640625 136.5531768798828 33.418853759765625 136.5531768798828 C 31.89917755126953 136.33639526367188 30.88570785522461 136.47531127929688 29.735427856445312 135.32606506347656 C 28.00000762939453 133.59066772460938 28.00000762939453 129.69464111328125 29.735427856445312 127.959228515625 C 30.88570785522461 126.80894470214844 31.89917755126953 126.94786834716797 33.418853759765625 126.73107147216797 C 33.418853759765625 126.73107147216797 33.418853759765625 126.73107147216797 33.418853759765625 126.73107147216797" stroke-width="0.0" fill="rgb(0, 0, 0)" opacity="1.0"/>
    <path d="M 33.418853759765625 48.15201950073242 C 85.806640625 48.15201950073242 138.19337463378906 48.15201950073242 190.5811767578125 48.15201950073242 C 192.10084533691406 48.369869232177734 193.11431884765625 48.23094940185547 194.26458740234375 49.38017654418945 C 196.0 51.115596771240234 196.0 55.0116081237793 194.26458740234375 56.74702835083008 C 193.1153564453125 57.89625549316406 192.10084533691406 57.75733947753906 190.5811767578125 57.975189208984375 C 138.19337463378906 57.975189208984375 85.806640625 57.975189208984375 33.418853759765625 57.975189208984375 C 31.89917755126953 57.75733947753906 30.884658813476562 57.89625549316406 29.735427856445312 56.74702835083008 C 28.00000762939453 55.0116081237793 28.00000762939453 51.115596771240234 29.735427856445312 49.38017654418945 C 30.88570785522461 48.23094940185547 31.89917755126953 48.369869232177734 33.418853759765625 48.15201950073242 C 33.418853759765625 48.15201950073242 33.418853759765625 48.15201950073242 33.418853759765625 48.15201950073242" stroke-width="0.0" fill="rgb(0, 0, 0)" opacity="1.0"/>
    <path d="M 33.418853759765625 87.44259643554688 C 66.1603012084961 87.44259643554688 98.90069580078125 87.44259643554688 131.6421356201172 87.44259643554688 C 133.16180419921875 87.65939331054688 134.17529296875 87.52046966552734 135.3255615234375 88.6697006225586 C 137.06097412109375 90.40512084960938 137.06097412109375 94.30113220214844 135.3255615234375 96.03655242919922 C 134.17529296875 97.18578338623047 133.16180419921875 97.04791259765625 131.6421356201172 97.26470947265625 C 98.90069580078125 97.26470947265625 66.1603012084961 97.26470947265625 33.418853759765625 97.26470947265625 C 31.89917755126953 97.04791259765625 30.88570785522461 97.18683624267578 29.735427856445312 96.03655242919922 C 28.00000762939453 94.30113220214844 28.00000762939453 90.40512084960938 29.735427856445312 88.6697006225586 C 30.88570785522461 87.52046966552734 31.89917755126953 87.65939331054688 33.418853759765625 87.44259643554688 C 33.418853759765625 87.44259643554688 33.418853759765625 87.44259643554688 33.418853759765625 87.44259643554688" stroke-width="0.0" fill="rgb(0, 0, 0)" opacity="1.0"/>
    <path d="M 33.418853759765625 166.02481079101562 C 66.1603012084961 166.02481079101562 98.90069580078125 166.02481079101562 131.6421356201172 166.02481079101562 C 133.16180419921875 166.24266052246094 134.17529296875 166.10372924804688 135.3255615234375 167.25296020507812 C 137.06097412109375 168.98837280273438 137.06097412109375 172.88438415527344 135.3255615234375 174.61981201171875 C 134.17529296875 175.76904296875 133.16180419921875 175.630126953125 131.6421356201172 175.8479766845703 C 98.90069580078125 175.8479766845703 66.1603012084961 175.8479766845703 33.418853759765625 175.8479766845703 C 31.89917755126953 175.630126953125 30.88570785522461 175.76904296875 29.735427856445312 174.61981201171875 C 28.00000762939453 172.88438415527344 28.00000762939453 168.98837280273438 29.735427856445312 167.25296020507812 C 30.884658813476562 166.10372924804688 31.89917755126953 166.24266052246094 33.418853759765625 166.02481079101562 C 33.418853759765625 166.02481079101562 33.418853759765625 166.02481079101562 33.418853759765625 166.02481079101562" stroke-width="0.0" fill="rgb(0, 0, 0)" opacity="1.0"/>
  </g>
</svg>
