<?xml version="1.0" ?>
<svg xmlns="http://www.w3.org/2000/svg" version="1.1" width="224" height="224">
  <defs/>
  <g>
    <path d="M 191.74066162109375 111.99858093261719 C 191.74066162109375 111.99858093261719 191.74066162109375 111.99858093261719 191.74066162109375 111.99858093261719 C 191.63388061523438 123.62002563476562 189.24380493164062 135.05848693847656 184.3291015625 145.6148223876953 C 169.56289672851562 177.33224487304688 134.8139190673828 196.0 100.21516418457031 190.87599182128906 C 92.20695495605469 189.68984985351562 84.38956451416016 187.26986694335938 77.11183166503906 183.72357177734375 C 68.74195098876953 179.6446990966797 61.106815338134766 174.08779907226562 54.639305114746094 167.39175415039062 C 47.835750579833984 160.34754943847656 42.340782165527344 152.0574188232422 38.525360107421875 143.03750610351562 C 34.3817138671875 133.23939514160156 32.25933837890625 122.63394165039062 32.25933837890625 111.99858093261719 C 32.25933837890625 101.36322021484375 34.3817138671875 90.75775909423828 38.525360107421875 80.96037292480469 C 42.340782165527344 71.93975830078125 47.835750579833984 63.64961242675781 54.639305114746094 56.606117248535156 C 61.106815338134766 49.910072326660156 68.74195098876953 44.3538818359375 77.11183166503906 40.275733947753906 C 84.38956451416016 36.72871398925781 92.20695495605469 34.30945587158203 100.21516418457031 33.123313903808594 C 134.81320190429688 28.0 169.56289672851562 46.66564178466797 184.3291015625 78.38233947753906 C 189.24380493164062 88.93868255615234 191.63388061523438 100.37714385986328 191.74066162109375 111.99858093261719 C 191.74066162109375 111.99858093261719 191.74066162109375 111.99858093261719 191.74066162109375 111.99858093261719" stroke-width="0.0" fill="rgb(88, 176, 223)" opacity="1.0"/>
    <path d="M 92.27104187011719 132.07676696777344 C 105.95362091064453 132.1807098388672 119.63691711425781 132.28395080566406 133.3195037841797 132.3878936767578 C 133.3195037841797 143.50027465820312 133.3195037841797 154.61265563964844 133.3195037841797 165.72503662109375 C 119.63691711425781 165.62109375 105.95362091064453 165.51715087890625 92.27104187011719 165.41319274902344 C 92.27104187011719 154.30152893066406 92.27104187011719 143.18914794921875 92.27104187011719 132.07676696777344" stroke-width="0.0" fill="rgb(248, 219, 164)" opacity="1.0"/>
    <path d="M 79.03913116455078 157.20492553710938 C 101.26887512207031 157.20492553710938 123.49862670898438 157.20492553710938 145.7276611328125 157.20492553710938 C 145.7290802001953 166.22625732421875 145.72979736328125 175.24758911132812 145.73049926757812 184.26821899414062 C 124.48541259765625 193.935302734375 100.38888549804688 194.06417846679688 79.03913116455078 184.62991333007812 C 79.03913116455078 175.4882354736328 79.03913116455078 166.34658813476562 79.03913116455078 157.20492553710938" stroke-width="0.0" fill="rgb(229, 229, 229)" opacity="1.0"/>
    <path d="M 92.55440521240234 131.81192016601562 C 106.1451416015625 131.96783447265625 119.73658752441406 132.12376403808594 133.32733154296875 132.27967834472656 C 133.32733154296875 135.0592041015625 133.32733154296875 137.83871459960938 133.32733154296875 140.6182403564453 C 125.88300323486328 148.846435546875 113.70195770263672 152.77435302734375 103.50374603271484 147.07150268554688 C 101.51522064208984 145.9586944580078 99.71749877929688 144.5169677734375 98.1903305053711 142.82533264160156 C 95.34103393554688 139.6670379638672 93.68286895751953 135.86798095703125 92.55440521240234 131.81192016601562 C 92.55440521240234 131.81192016601562 92.55440521240234 131.81192016601562 92.55440521240234 131.81192016601562" stroke-width="0.0" fill="rgb(221, 196, 146)" opacity="1.0"/>
    <path d="M 109.76691436767578 168.3984832763672 C 111.8394546508789 168.3984832763672 113.9119873046875 168.3984832763672 115.98452758789062 168.3984832763672 C 116.8096923828125 176.09341430664062 117.6341552734375 183.7876434326172 118.45861053466797 191.48187255859375 C 114.6716537475586 191.7531280517578 110.90107727050781 191.79299926757812 107.10913848876953 191.5929412841797 C 107.99482727050781 183.8616943359375 108.88123321533203 176.13043212890625 109.76691436767578 168.3984832763672" stroke-width="0.0" fill="rgb(232, 87, 62)" opacity="1.0"/>
    <path d="M 92.26249694824219 141.63278198242188 C 92.26249694824219 141.63278198242188 92.26249694824219 141.63278198242188 92.26249694824219 141.63278198242188 C 92.41200256347656 158.06854248046875 96.35274505615234 174.29214477539062 98.46871185302734 190.53138732910156 C 98.46871185302734 190.53138732910156 98.46871185302734 190.53138732910156 98.46871185302734 190.53138732910156 C 80.89522552490234 187.11253356933594 65.21272277832031 178.83377075195312 53.01530838012695 165.663818359375 C 54.12028503417969 162.99749755859375 55.22454833984375 160.33047485351562 56.32880401611328 157.66415405273438 C 68.30693817138672 152.32012939453125 80.28436279296875 146.97682189941406 92.26249694824219 141.63278198242188" stroke-width="0.0" fill="rgb(102, 112, 121)" opacity="1.0"/>
    <path d="M 133.316650390625 141.62709045410156 C 145.29478454589844 146.9711151123047 157.27220153808594 152.31442260742188 169.25033569335938 157.658447265625 C 170.18800354003906 159.9217987060547 171.12567138671875 162.18585205078125 172.06332397460938 164.44920349121094 C 160.22543334960938 177.7871856689453 144.618408203125 186.76651000976562 127.1396255493164 190.30355834960938 C 127.1396255493164 190.30355834960938 127.1396255493164 190.30355834960938 127.1396255493164 190.30355834960938 C 129.24490356445312 174.13621520996094 133.16856384277344 157.98951721191406 133.316650390625 141.62709045410156 C 133.316650390625 141.62709045410156 133.316650390625 141.62709045410156 133.316650390625 141.62709045410156" stroke-width="0.0" fill="rgb(102, 112, 121)" opacity="1.0"/>
    <path d="M 112.59129333496094 54.018836975097656 C 112.59129333496094 54.018836975097656 112.59129333496094 54.018836975097656 112.59129333496094 54.018836975097656 C 117.02399444580078 54.102134704589844 121.3976058959961 54.59410095214844 125.59679412841797 56.092079162597656 C 127.84019470214844 56.892333984375 129.99034118652344 57.95387268066406 131.9710235595703 59.276710510253906 C 146.0530242919922 68.67752075195312 147.82154846191406 88.06865692138672 145.19937133789062 103.3538818359375 C 144.76223754882812 105.90200805664062 144.19265747070312 108.42735290527344 143.4970703125 110.91781616210938 C 142.53875732421875 114.35092163085938 141.3412322998047 117.71852111816406 139.89450073242188 120.97648620605469 C 135.08233642578125 131.81903076171875 125.86805725097656 145.03170776367188 112.59129333496094 145.02745056152344 C 101.5273208618164 145.02317810058594 93.32830810546875 134.71104431152344 88.53036499023438 125.88834381103516 C 87.57632446289062 124.13477325439453 86.70417022705078 122.3377685546875 85.9067611694336 120.50801086425781 C 84.462890625 117.19451904296875 83.26251983642578 113.77422332763672 82.29994201660156 110.29057312011719 C 81.60150146484375 107.76522827148438 81.02836608886719 105.20570373535156 80.58836364746094 102.62339782714844 C 78.04522705078125 87.71409606933594 79.5225601196289 68.74943542480469 93.14533233642578 59.38990783691406 C 95.11249542236328 58.038597106933594 97.25694274902344 56.954986572265625 99.49893188476562 56.13835906982422 C 103.71946716308594 54.601219177246094 108.1258316040039 54.103553771972656 112.59129333496094 54.018836975097656 C 112.59129333496094 54.018836975097656 112.59129333496094 54.018836975097656 112.59129333496094 54.018836975097656" stroke-width="0.0" fill="rgb(254, 231, 189)" opacity="1.0"/>
    <path d="M 92.26534271240234 140.59332275390625 C 99.13795471191406 146.1544952392578 106.01057434082031 151.7163848876953 112.88248443603516 157.2775421142578 C 107.16680908203125 162.3638458251953 101.45042419433594 167.4494171142578 95.73404693603516 172.53500366210938 C 94.66253662109375 166.53099060058594 93.72772216796875 160.4942169189453 92.99226379394531 154.4396514892578 C 92.43977355957031 149.89088439941406 91.78547668457031 145.175537109375 92.26534271240234 140.59332275390625 C 92.26534271240234 140.59332275390625 92.26534271240234 140.59332275390625 92.26534271240234 140.59332275390625" stroke-width="0.0" fill="rgb(254, 254, 254)" opacity="1.0"/>
    <path d="M 133.32235717773438 140.59332275390625 C 133.32235717773438 140.59332275390625 133.32235717773438 140.59332275390625 133.32235717773438 140.59332275390625 C 133.79722595214844 145.17623901367188 133.13937377929688 149.89088439941406 132.58404541015625 154.4396514892578 C 131.84429931640625 160.4942169189453 130.90664672851562 166.53099060058594 129.8301544189453 172.53500366210938 C 124.1764144897461 167.4494171142578 118.52268981933594 162.3638458251953 112.86824798583984 157.2775421142578 C 119.68675231933594 151.7163848876953 126.50454711914062 146.1544952392578 133.32235717773438 140.59332275390625" stroke-width="0.0" fill="rgb(254, 254, 254)" opacity="1.0"/>
    <path d="M 79.65142059326172 94.30762481689453 C 79.65142059326172 94.30762481689453 79.65142059326172 94.30762481689453 79.65142059326172 94.30762481689453 C 80.16332244873047 101.04853057861328 81.42706298828125 107.62140655517578 83.44976806640625 114.07254028320312 C 83.44976806640625 114.07254028320312 83.44976806640625 114.07254028320312 83.44976806640625 114.07254028320312 C 80.92298889160156 113.64179992675781 79.37731170654297 111.44111633300781 78.23816680908203 109.29168701171875 C 75.7484130859375 104.59127807617188 74.29173278808594 97.47659301757812 79.65142059326172 94.31047058105469 C 79.65142059326172 94.31047058105469 79.65142059326172 94.31047058105469 79.65142059326172 94.31047058105469 C 79.65142059326172 94.31047058105469 79.65142059326172 94.30762481689453 79.65142059326172 94.30762481689453" stroke-width="0.0" fill="rgb(248, 219, 164)" opacity="1.0"/>
    <path d="M 146.1669464111328 94.30762481689453 C 146.1669464111328 94.30762481689453 146.1669464111328 94.30762481689453 146.1669464111328 94.30762481689453 C 151.52664184570312 97.47373962402344 150.07066345214844 104.58985900878906 147.58090209960938 109.2902603149414 C 146.44247436523438 111.43897247314453 144.8975067138672 113.640380859375 142.37144470214844 114.06969451904297 C 142.37144470214844 114.06969451904297 142.37144470214844 114.06969451904297 142.37144470214844 114.06969451904297 C 144.39414978027344 107.61997985839844 145.655029296875 101.04781341552734 146.1669464111328 94.30762481689453 C 146.1669464111328 94.30762481689453 146.1669464111328 94.30762481689453 146.1669464111328 94.30762481689453" stroke-width="0.0" fill="rgb(248, 220, 164)" opacity="1.0"/>
    <path d="M 92.27104187011719 138.83901977539062 C 92.27104187011719 138.83901977539062 92.27104187011719 138.83901977539062 92.27104187011719 138.83901977539062 C 92.77867126464844 156.29005432128906 95.8109359741211 173.46981811523438 98.7527847290039 190.6367645263672 C 98.7527847290039 190.6367645263672 98.7527847290039 190.6367645263672 98.7527847290039 190.6367645263672 C 96.28368377685547 190.20388793945312 93.83451843261719 189.69483947753906 91.41169738769531 189.049072265625 C 90.5608901977539 188.8226776123047 89.40252685546875 188.6909637451172 88.70692443847656 188.1270751953125 C 85.66612243652344 182.62998962402344 82.62530517578125 177.13360595703125 79.5844955444336 171.63720703125 C 83.49105834960938 168.83348083496094 87.39762115478516 166.02976989746094 91.30418395996094 163.22604370117188 C 87.21536254882812 163.22604370117188 83.12724304199219 163.22604370117188 79.03913116455078 163.22604370117188 C 79.91413879394531 157.3330841064453 80.78914642333984 151.4401397705078 81.66343688964844 145.54647827148438 C 85.19906616210938 143.31089782714844 88.73540496826172 141.0753173828125 92.27104187011719 138.83901977539062" stroke-width="0.0" fill="rgb(67, 73, 85)" opacity="1.0"/>
    <path d="M 112.89102935791016 157.182861328125 C 115.58938598632812 159.6071014404297 118.28773498535156 162.03135681152344 120.98609161376953 164.45489501953125 C 118.28773498535156 166.87771606445312 115.58938598632812 169.300537109375 112.89102935791016 171.72335815429688 C 110.1933822631836 169.300537109375 107.49502563476562 166.87771606445312 104.79667663574219 164.45489501953125 C 107.49502563476562 162.03135681152344 110.1933822631836 159.6071014404297 112.89102935791016 157.182861328125" stroke-width="0.0" fill="rgb(232, 87, 62)" opacity="1.0"/>
    <path d="M 133.299560546875 138.83404541015625 C 136.83590698242188 141.05892944335938 140.3715362548828 143.28382873535156 143.90786743164062 145.50802612304688 C 144.78216552734375 151.37249755859375 145.65646362304688 157.23696899414062 146.53146362304688 163.10072326660156 C 142.443359375 163.10072326660156 138.35523986816406 163.10072326660156 134.26712036132812 163.10072326660156 C 138.17369079589844 165.88949584960938 142.0802459716797 168.67898559570312 145.98609924316406 171.46775817871094 C 142.96664428710938 176.9000701904297 139.94720458984375 182.33309936523438 136.92703247070312 187.76541137695312 C 136.81240844726562 187.80242919921875 136.69778442382812 187.83944702148438 136.58316040039062 187.87718200683594 C 133.36007690429688 188.83905029296875 130.1370086669922 189.7574920654297 126.82635498046875 190.36195373535156 C 126.82635498046875 190.36195373535156 126.82635498046875 190.36195373535156 126.82635498046875 190.36195373535156 C 129.75823974609375 173.28399658203125 132.79193115234375 156.19679260253906 133.299560546875 138.83404541015625 C 133.299560546875 138.83404541015625 133.299560546875 138.83404541015625 133.299560546875 138.83404541015625" stroke-width="0.0" fill="rgb(67, 73, 85)" opacity="1.0"/>
    <path d="M 88.85430908203125 69.23499298095703 C 88.85430908203125 69.23499298095703 88.85430908203125 69.23499298095703 88.85430908203125 69.23499298095703 C 85.49453735351562 73.16647338867188 84.11901092529297 78.07334899902344 83.40064239501953 83.11834716796875 C 82.47864532470703 89.60152435302734 82.51637268066406 96.35737609863281 83.27818298339844 102.86119842529297 C 82.37469482421875 102.43544006347656 81.471923828125 102.00897216796875 80.56843566894531 101.58250427246094 C 78.769287109375 94.17092895507812 77.8814697265625 86.51301574707031 79.39369201660156 78.96260070800781 C 80.55917358398438 73.14724731445312 83.16355895996094 67.65513610839844 87.17406463623047 63.26158905029297 C 99.72676086425781 49.512794494628906 123.2978515625 48.82716369628906 136.86224365234375 61.45960235595703 C 148.03514099121094 71.86571502685547 148.60044860839844 87.63221740722656 145.19439697265625 101.58250427246094 C 144.29090881347656 102.00897216796875 143.38742065429688 102.43544006347656 142.48464965820312 102.86119842529297 C 143.24717712402344 96.35809326171875 143.28561401367188 89.60223388671875 142.36289978027344 83.1197738647461 C 141.64524841308594 78.07406616210938 140.26971435546875 73.16719055175781 136.9099578857422 69.23499298095703 C 136.9099578857422 69.23499298095703 136.9099578857422 69.23499298095703 136.9099578857422 69.23499298095703 C 127.85728454589844 77.44468688964844 113.14662170410156 78.41224670410156 101.7466049194336 75.67189025878906 C 96.97714233398438 74.52561950683594 92.50812530517578 72.54849243164062 88.85430908203125 69.23499298095703 C 88.85430908203125 69.23499298095703 88.85430908203125 69.23499298095703 88.85430908203125 69.23499298095703" stroke-width="0.0" fill="rgb(70, 68, 73)" opacity="1.0"/>
  </g>
</svg>
