<?xml version="1.0" ?>
<svg xmlns="http://www.w3.org/2000/svg" version="1.1" width="224" height="224">
  <defs/>
  <g>
    <path d="M 191.74105834960938 112.00178527832031 C 191.74105834960938 112.00178527832031 191.74105834960938 112.00178527832031 191.74105834960938 112.00178527832031 C 191.63426208496094 123.62334442138672 189.24472045898438 135.06192016601562 184.3296661376953 145.61830139160156 C 169.56454467773438 177.3358612060547 134.81520080566406 196.0 100.21752166748047 190.87704467773438 C 92.208740234375 189.69081115722656 84.39149475097656 187.2713623046875 77.11323547363281 183.7248077392578 C 68.74346923828125 179.6463623046875 61.10778045654297 174.09048461914062 54.63980484008789 167.39395141601562 C 47.83647155761719 160.35067749023438 42.34111785888672 152.06063842773438 38.52540588378906 143.0400848388672 C 34.38146209716797 133.24270629882812 32.258934020996094 122.63719940185547 32.258934020996094 112.00178527832031 C 32.258934020996094 101.36636352539062 34.38146209716797 90.76013946533203 38.52540588378906 80.9627685546875 C 42.34111785888672 71.94220733642578 47.83647155761719 63.651466369628906 54.63980484008789 56.608177185058594 C 61.10778045654297 49.911643981933594 68.74346923828125 44.35505676269531 77.11323547363281 40.27661895751953 C 84.39149475097656 36.729339599609375 92.208740234375 34.309898376464844 100.21752166748047 33.123680114746094 C 134.81661987304688 28.0 169.56454467773438 46.66697692871094 184.3296661376953 78.3845443725586 C 189.24472045898438 88.94164276123047 191.63426208496094 100.38021850585938 191.74105834960938 112.00178527832031 C 191.74105834960938 112.00178527832031 191.74105834960938 112.00178527832031 191.74105834960938 112.00178527832031" stroke-width="0.0" fill="rgb(159, 130, 187)" opacity="1.0"/>
    <path d="M 92.27210998535156 132.0785675048828 C 105.95567321777344 132.1818084716797 119.63995361328125 132.28575134277344 133.32351684570312 132.38970947265625 C 133.32351684570312 143.50218200683594 133.32351684570312 154.6139373779297 133.32351684570312 165.72640991210938 C 119.63995361328125 165.62245178222656 105.95567321777344 165.51849365234375 92.27210998535156 165.41455078125 C 92.27210998535156 154.30279541015625 92.27210998535156 143.19032287597656 92.27210998535156 132.0785675048828" stroke-width="0.0" fill="rgb(248, 219, 164)" opacity="1.0"/>
    <path d="M 133.3206787109375 141.53274536132812 C 144.32278442382812 146.93695068359375 155.32489013671875 152.34117126464844 166.32699584960938 157.74539184570312 C 167.63995361328125 160.64117431640625 168.9529266357422 163.53695678710938 170.26588439941406 166.43272399902344 C 163.71673583984375 173.3350372314453 156.13160705566406 179.11378479003906 147.6066131591797 183.3695068359375 C 125.42082977294922 194.44354248046875 98.62046813964844 194.4606170654297 76.43682861328125 183.37094116210938 C 67.58856964111328 178.94715881347656 59.737857818603516 172.9014129638672 53.01640319824219 165.66232299804688 C 54.120033264160156 162.99581909179688 55.22365951538086 160.32859802246094 56.32728958129883 157.66209411621094 C 68.30628967285156 152.31838989257812 80.2845687866211 146.97398376464844 92.26356506347656 141.63027954101562 C 92.30486297607422 144.3509063720703 92.44085693359375 147.0814971923828 93.20556640625 149.7109832763672 C 95.91337585449219 159.02845764160156 105.99198913574219 160.2239227294922 114.35179901123047 160.08865356445312 C 119.57373809814453 160.00392150878906 126.19693756103516 159.5937957763672 129.98629760742188 155.4448699951172 C 133.34487915039062 151.76800537109375 133.28793334960938 146.19503784179688 133.3206787109375 141.53274536132812 C 133.3206787109375 141.53274536132812 133.3206787109375 141.53274536132812 133.3206787109375 141.53274536132812" stroke-width="0.0" fill="rgb(254, 254, 254)" opacity="1.0"/>
    <path d="M 92.55834197998047 131.8144073486328 C 106.14934539794922 131.98670959472656 119.74034881591797 132.1590118408203 133.33135986328125 132.33132934570312 C 133.33135986328125 135.41079711914062 133.33135986328125 138.4895782470703 133.33135986328125 141.5690460205078 C 133.324951171875 142.66627502441406 133.29931640625 143.75921630859375 133.256591796875 144.85501098632812 C 133.256591796875 144.85501098632812 133.256591796875 144.85501098632812 133.256591796875 144.85501098632812 C 131.8211669921875 146.63221740722656 130.26327514648438 148.187255859375 128.306640625 149.39271545410156 C 118.32130432128906 155.5438232421875 104.59429931640625 151.1677703857422 97.56809997558594 142.53099060058594 C 94.99913787841797 139.3724822998047 93.4483642578125 135.7618408203125 92.55834197998047 131.8144073486328 C 92.55834197998047 131.8144073486328 92.55834197998047 131.8144073486328 92.55834197998047 131.8144073486328" stroke-width="0.0" fill="rgb(222, 196, 146)" opacity="1.0"/>
    <path d="M 108.18215942382812 156.83401489257812 C 111.21678161621094 156.83401489257812 114.25140380859375 156.83401489257812 117.28602600097656 156.83401489257812 C 117.28602600097656 168.41213989257812 117.28602600097656 179.99026489257812 117.28602600097656 191.56838989257812 C 114.24713134765625 191.7535400390625 111.2238998413086 191.77915954589844 108.18215942382812 191.646728515625 C 108.18215942382812 180.042236328125 108.18215942382812 168.43777465820312 108.18215942382812 156.83401489257812" stroke-width="0.0" fill="rgb(213, 225, 237)" opacity="1.0"/>
    <path d="M 79.7904281616211 147.19541931152344 C 79.7904281616211 159.7867431640625 79.7904281616211 172.37808227539062 79.7904281616211 184.96942138671875 C 76.8775634765625 183.62939453125 74.04301452636719 182.16761779785156 71.26472473144531 180.5684356689453 C 71.26472473144531 170.7119598388672 71.26472473144531 160.85549926757812 71.26472473144531 150.9990234375 C 74.10638427734375 149.7309112548828 76.94805145263672 148.46351623535156 79.7904281616211 147.19541931152344" stroke-width="0.0" fill="rgb(138, 92, 66)" opacity="1.0"/>
    <path d="M 144.84896850585938 147.19541931152344 C 147.69134521484375 148.59310913085938 150.5330047607422 149.9907989501953 153.37538146972656 151.38778686523438 C 153.37538146972656 160.9857940673828 153.37538146972656 170.58380126953125 153.37538146972656 180.1818084716797 C 150.60491943359375 181.83084106445312 147.77322387695312 183.32608032226562 144.84896850585938 184.6831817626953 C 144.84896850585938 172.187255859375 144.84896850585938 159.69134521484375 144.84896850585938 147.19541931152344" stroke-width="0.0" fill="rgb(138, 92, 66)" opacity="1.0"/>
    <path d="M 112.59097290039062 54.017852783203125 C 112.59097290039062 54.017852783203125 112.59097290039062 54.017852783203125 112.59097290039062 54.017852783203125 C 117.02400207519531 54.101165771484375 121.397216796875 54.593170166015625 125.59671020507812 56.09125518798828 C 127.83956146240234 56.891563415527344 129.98985290527344 57.953182220458984 131.97068786621094 59.27539825439453 C 146.05299377441406 68.67689514160156 147.82235717773438 88.0679931640625 145.1999969482422 103.35289001464844 C 144.7628173828125 105.90120697021484 144.1931915283203 108.42744445800781 143.49755859375 110.91737365722656 C 142.5391845703125 114.35001373291016 141.341552734375 117.71857452392578 139.8954620361328 120.97605895996094 C 135.08291625976562 131.8193817138672 125.86869049072266 145.03160095214844 112.59097290039062 145.02732849121094 C 101.52764129638672 145.02304077148438 93.32874298095703 134.7108917236328 88.53045654296875 125.88827514648438 C 87.57706451416016 124.13457489013672 86.70413208007812 122.33744049072266 85.90737915039062 120.50755310058594 C 84.46269226074219 117.19381713867188 83.26294708251953 113.77399444580078 82.30029296875 110.29009246826172 C 81.6025161743164 107.76526641845703 81.02934265136719 105.20556640625 80.5886001586914 102.62307739257812 C 78.04527282714844 87.71340942382812 79.522705078125 68.7488021850586 93.145751953125 59.389320373535156 C 95.11306762695312 58.03791427612305 97.25765991210938 56.95350646972656 99.49909210205078 56.137535095214844 C 103.71923065185547 54.60028839111328 108.12590789794922 54.10258483886719 112.59097290039062 54.017852783203125 C 112.59097290039062 54.017852783203125 112.59097290039062 54.017852783203125 112.59097290039062 54.017852783203125" stroke-width="0.0" fill="rgb(254, 231, 189)" opacity="1.0"/>
    <path d="M 133.39756774902344 141.10055541992188 C 135.71661376953125 142.1116180419922 138.03494262695312 143.12338256835938 140.35400390625 144.1344451904297 C 140.33547973632812 151.8961639404297 140.31625366210938 159.65786743164062 140.29774475097656 167.41958618164062 C 132.69552612304688 164.90972900390625 125.0940170288086 162.39913940429688 117.4917984008789 159.88858032226562 C 122.79348754882812 153.6256561279297 128.09588623046875 147.3627471923828 133.39756774902344 141.10055541992188" stroke-width="0.0" fill="rgb(212, 224, 236)" opacity="1.0"/>
    <path d="M 92.2728271484375 141.10055541992188 C 97.57450866699219 147.3627471923828 102.87690734863281 153.6256561279297 108.17930603027344 159.88858032226562 C 100.57780456542969 162.39913940429688 92.9762954711914 164.90972900390625 85.37550354003906 167.41958618164062 C 85.35556030273438 159.65786743164062 85.33633422851562 151.8961639404297 85.3171157836914 144.1344451904297 C 87.63545227050781 143.12338256835938 89.95378112792969 142.1116180419922 92.2728271484375 141.10055541992188" stroke-width="0.0" fill="rgb(213, 224, 236)" opacity="1.0"/>
    <path d="M 79.65158081054688 94.30955505371094 C 79.65158081054688 94.30955505371094 79.65158081054688 94.30955505371094 79.65158081054688 94.30955505371094 C 80.16352844238281 101.05022430419922 81.42736053466797 107.62286376953125 83.45162963867188 114.07304382324219 C 83.45162963867188 114.07304382324219 83.45162963867188 114.07304382324219 83.45162963867188 114.07304382324219 C 80.92467498779297 113.6444091796875 79.378173828125 111.44426727294922 78.23894500732422 109.29468536376953 C 75.74687194824219 104.59322357177734 74.29222106933594 97.47802734375 79.65158081054688 94.30955505371094 C 79.65158081054688 94.30955505371094 79.65158081054688 94.30955505371094 79.65158081054688 94.30955505371094" stroke-width="0.0" fill="rgb(248, 219, 164)" opacity="1.0"/>
    <path d="M 146.1669158935547 94.30955505371094 C 146.1669158935547 94.30955505371094 146.1669158935547 94.30955505371094 146.1669158935547 94.30955505371094 C 151.52557373046875 97.47589111328125 150.0701904296875 104.59037780761719 147.58169555664062 109.29113006591797 C 146.44317626953125 111.44071197509766 144.89810180664062 113.64155578613281 142.37255859375 114.07304382324219 C 142.37255859375 114.07304382324219 142.37255859375 114.07304382324219 142.37255859375 114.07304382324219 C 144.39328002929688 107.62215423583984 145.6571044921875 101.05022430419922 146.1669158935547 94.30955505371094 C 146.1669158935547 94.30955505371094 146.1669158935547 94.30955505371094 146.1669158935547 94.30955505371094" stroke-width="0.0" fill="rgb(248, 219, 164)" opacity="1.0"/>
    <path d="M 108.00914001464844 115.92927551269531 C 108.00914001464844 115.92927551269531 108.00914001464844 115.92927551269531 108.00914001464844 115.92927551269531 C 110.21995544433594 116.18630981445312 111.5535659790039 117.0955581665039 112.92420196533203 118.8207778930664 C 112.92420196533203 118.8207778930664 112.92420196533203 118.8207778930664 112.92420196533203 118.8207778930664 C 113.56216430664062 118.01691436767578 113.68179321289062 117.76556396484375 114.50274658203125 117.13330078125 C 116.29631805419922 115.75411224365234 118.42098236083984 115.66439819335938 120.4822769165039 116.51383972167969 C 121.70267486572266 117.0172348022461 122.62474060058594 117.87379455566406 123.65787506103516 118.66057586669922 C 125.59456634521484 120.13587951660156 127.75411987304688 121.59123992919922 130.12513732910156 122.24700927734375 C 132.26617431640625 122.83869934082031 135.31361389160156 121.79985809326172 134.31536865234375 118.95748901367188 C 134.19432067871094 118.61144256591797 133.93942260742188 118.32877349853516 133.75144958496094 118.01477813720703 C 133.75144958496094 118.01477813720703 133.75144958496094 118.01477813720703 133.75144958496094 118.01477813720703 C 134.81092834472656 118.36295318603516 135.18972778320312 118.33233642578125 135.9644012451172 119.19529724121094 C 138.54403686523438 122.0704345703125 135.54930114746094 126.39451599121094 132.82937622070312 127.81997680664062 C 126.83134460449219 130.9649658203125 117.52027893066406 129.001220703125 112.92420196533203 124.2249984741211 C 112.92420196533203 124.2249984741211 112.92420196533203 124.2249984741211 112.92420196533203 124.2249984741211 C 108.33025360107422 129.00477600097656 99.01634979248047 130.96566772460938 93.01830291748047 127.82069396972656 C 90.29839324951172 126.39451599121094 87.30720520019531 122.0754165649414 89.88043975830078 119.19886016845703 C 90.65440368652344 118.33304595947266 91.03390502929688 118.36366271972656 92.09410858154297 118.01477813720703 C 92.09410858154297 118.01477813720703 92.09410858154297 118.01477813720703 92.09410858154297 118.01477813720703 C 91.90613555908203 118.32877349853516 91.65052032470703 118.61144256591797 91.52947235107422 118.95748901367188 C 90.52980041503906 121.8012924194336 93.58151245117188 122.83869934082031 95.72254943847656 122.2484359741211 C 100.3570785522461 120.97107696533203 103.20942687988281 116.5672378540039 108.00914001464844 115.92927551269531 C 108.00914001464844 115.92927551269531 108.00914001464844 115.92927551269531 108.00914001464844 115.92927551269531" stroke-width="0.0" fill="rgb(138, 92, 66)" opacity="1.0"/>
    <path d="M 100.46743774414062 47.07069396972656 C 108.64354705810547 47.07069396972656 116.81893920898438 47.07069396972656 124.99504852294922 47.07069396972656 C 127.6729507446289 47.16111755371094 130.2561492919922 47.55699920654297 132.77099609375 48.516090393066406 C 141.38143920898438 51.798492431640625 146.63827514648438 59.96178436279297 146.939453125 69.0179443359375 C 146.939453125 74.68775177001953 146.939453125 80.35684204101562 146.939453125 86.02592468261719 C 124.13421630859375 86.02521514892578 101.3282699584961 86.02450561523438 78.52303314208984 86.02308654785156 C 78.52303314208984 80.35469818115234 78.52303314208984 74.68632507324219 78.52303314208984 69.0179443359375 C 78.82421875 59.9610710144043 84.08033752441406 51.79920959472656 92.69078063964844 48.516090393066406 C 95.20633697509766 47.55699920654297 97.78954315185547 47.16111755371094 100.46743774414062 47.07069396972656 C 100.46743774414062 47.07069396972656 100.46743774414062 47.07069396972656 100.46743774414062 47.07069396972656" stroke-width="0.0" fill="rgb(70, 68, 73)" opacity="1.0"/>
    <path d="M 94.24012756347656 150.79537963867188 C 98.6190414428711 152.49853515625 102.99723815917969 154.20169067382812 107.37544250488281 155.9048309326172 C 110.49906921386719 152.67938232421875 114.76832580566406 152.72494506835938 117.82787322998047 156.00807189941406 C 122.29222106933594 154.270751953125 126.75728607177734 152.53271484375 131.2223663330078 150.79537963867188 C 131.2223663330078 156.99208068847656 131.2223663330078 163.1887664794922 131.2223663330078 169.38546752929688 C 126.75444030761719 167.65170288085938 122.28724670410156 165.91722106933594 117.82003784179688 164.1834716796875 C 114.7597885131836 167.450927734375 110.50262451171875 167.49363708496094 107.3832778930664 164.28102111816406 C 103.00222778320312 165.9813232421875 98.62117767333984 167.6823272705078 94.24012756347656 169.38262939453125 C 94.24012756347656 163.1866455078125 94.24012756347656 156.9906463623047 94.24012756347656 150.79537963867188" stroke-width="0.0" fill="rgb(70, 68, 73)" opacity="1.0"/>
    <path d="M 64.9925537109375 83.42634582519531 C 96.81834411621094 83.42634582519531 128.6434326171875 83.42634582519531 160.46922302246094 83.42634582519531 C 161.64691162109375 83.667724609375 162.0719757080078 83.57160186767578 162.96556091308594 84.46517944335938 C 164.32835388183594 85.8272705078125 164.32907104492188 88.0929183959961 162.96627807617188 89.45571899414062 C 162.07269287109375 90.35072326660156 161.64833068847656 90.25389099121094 160.46922302246094 90.49313354492188 C 128.6434326171875 90.49313354492188 96.81834411621094 90.49313354492188 64.9925537109375 90.49313354492188 C 63.81487274169922 90.253173828125 63.38908767700195 90.34858703613281 62.49692916870117 89.45500946044922 C 61.13554763793945 88.09220886230469 61.13697052001953 85.8272705078125 62.49906539916992 84.46517944335938 C 63.3912239074707 83.57302856445312 63.81558609008789 83.667724609375 64.9925537109375 83.42634582519531 C 64.9925537109375 83.42634582519531 64.9925537109375 83.42634582519531 64.9925537109375 83.42634582519531" stroke-width="0.0" fill="rgb(51, 51, 51)" opacity="1.0"/>
    <path d="M 78.52303314208984 73.18254089355469 C 101.3289794921875 73.18254089355469 124.1356430053711 73.18254089355469 146.94158935546875 73.18254089355469 C 146.94158935546875 76.59738159179688 146.94158935546875 80.01150512695312 146.94158935546875 83.42634582519531 C 124.1356430053711 83.42634582519531 101.3289794921875 83.42634582519531 78.52303314208984 83.42634582519531 C 78.52303314208984 80.01150512695312 78.52303314208984 76.59738159179688 78.52303314208984 73.18254089355469" stroke-width="0.0" fill="rgb(103, 112, 121)" opacity="1.0"/>
  </g>
</svg>
