<?xml version="1.0" encoding="UTF-8"?>
<svg xmlns="http://www.w3.org/2000/svg" version="1.1" viewBox="0 0 224 224">
  <defs>
    <style>
      .cls-1 {
        fill: #a3d700;
        opacity: 1;
      }

      .cls-1, .cls-2, .cls-3, .cls-4, .cls-5 {
        isolation: isolate;
      }

      .cls-2 {
        fill: #995d10;
        opacity: 1;
      }

      .cls-3 {
        fill: #e4ac0b;
        opacity: 1;
      }

      .cls-4 {
        fill: #22890c;
        opacity: 1;
      }

      .cls-5 {
        fill: #a4d600;
        opacity: 1;
      }

      .cls-6 {
        fill: #daeab0;
      }
    </style>
  </defs>
  <!-- Generator: Adobe Illustrator 28.6.0, SVG Export Plug-In . SVG Version: 1.2.0 Build 709)  -->
  <g>
    <g id="_图层_1" data-name="图层_1">
      <g>
        <path class="cls-6" d="M96.8,193.1c-26.4-5.8-45.6-20.9-57.8-45.1-9.8-19.4-11-44.3-3-65.7,6.9-19,21.8-35.9,40-44.5,13.8-6.2,18.9-7.5,36.8-8.3,14,.9,17,1.3,22.7,2.8,30.5,8.4,52.5,32.6,58.5,64.2,1.8,9.1,1.4,26.6-1,34.9-6.9,28.4-27.9,51-56.2,59.8-6.3,2-8.6,2.6-20.7,3.2-10.2-.1-15.6-.6-19.4-1.4"/>
        <path class="cls-4" d="M95.8,132.4c-5.6-5.3-6.8-9.7-3.9-41.1,1.6-27.1,1.6-33.2,4.1-38.9,5.2-11.2,19-14.3,28.9-6.6,1.9,2,4,4.3,4.5,5.7,2.1,3.2,3.5,15.2,3.5,27.1.1,4,.9,13.2,1.5,19.3,2.6,22.5,1.1,30.7-3.9,34.7-.9,1.8-2,2-17.2,3.4-16.2-1.6-16.8-1.6-17.5-3.6"/>
        <path class="cls-5" d="M136.9,120.5c-2-.3-3.2-5.2-3.2-12.9-.2-6.8.5-8.1,6.2-9.6,3.4-.6,5.5-3.8,6.1-8.6,1-5.1,2.4-7.6,6.2-9.5,5.6-2.7,12.1-.7,15,4.8,4.8,9.3-4.1,27.7-16.1,33.4-4.7,2.1-11,3.2-14.2,2.4"/>
        <path class="cls-3" d="M95.1,179.9c-.3-1.6-2.8-9.7-5.1-18.6-3.2-11.7-4.4-16.2-4.1-17.1,1.1-1,6-1.1,21.9-1.2,23.8-.5,32.7-.2,32.8,1.6.1,1.7-7.9,34.1-8.5,36.1-.4.7-5.1.5-18.3.8-17.8.2-17.8.4-18.8-1.7"/>
        <path class="cls-1" d="M77,119c-6-2.3-13.1-9-16.2-15.8-2.2-4.3-2.6-6.2-3-11.9.4-6.3.9-7.4,2.5-9.1,3.1-3.1,7.7-4.2,11.4-3.2,4.6,1.1,6.9,4.2,8.2,9.7.2,2.3,1,5.1,1.6,6.1.9,1.8,4.3,3.7,6.4,3.5.4.2,1.6,1,2.7,1.9,1.1,1.6,1.4,3.1.9,10.5-.2,4.9-.7,9-1.1,9.3-1.7,1.3-9.1,1-13.3-1"/>
        <path class="cls-2" d="M80.7,138.9v-5.4s65.7,0,65.7,0v10.5s-65.6-.1-65.6-.1v-5.1"/>
      </g>
    </g>
  </g>
</svg>