<?xml version="1.0" ?>
<svg xmlns="http://www.w3.org/2000/svg" version="1.1" width="224" height="224">
  <defs/>
  <g>
    <path d="M 91.87049102783203 191.49551391601562 C 75.30131530761719 187.90887451171875 62.59222412109375 180.89596557617188 50.773193359375 168.99765014648438 C 40.95805358886719 158.25917053222656 35.163673400878906 148.3136444091797 30.859420776367188 133.88223266601562 C 28.96575927734375 127.44874572753906 28.751388549804688 125.73308563232422 27.99999237060547 112.82769012451172 C 28.468894958496094 100.19739532470703 28.73735809326172 98.09387969970703 30.430625915527344 90.94880676269531 C 39.90122985839844 55.7980842590332 68.59058380126953 32.892852783203125 104.63127899169922 30.95745849609375 C 132.2128448486328 30.003890991210938 155.9901580810547 40.580135345458984 172.34808349609375 60.750457763671875 C 193.6280517578125 87.01117706298828 196.0 124.7084732055664 178.4027557373047 154.34860229492188 C 173.96591186523438 162.24453735351562 162.12155151367188 174.7727508544922 154.43914794921875 179.68557739257812 C 147.4467315673828 184.53823852539062 137.60165405273438 188.8817901611328 129.63327026367188 190.69778442382812 C 119.75308227539062 193.5379180908203 101.40760040283203 193.99612426757812 91.87049102783203 191.49551391601562" stroke-width="1.0" fill="rgb(46, 171, 234)" opacity="0.99318373"/>
    <path d="M 97.98956298828125 93.19474029541016 C 92.16122436523438 91.22920227050781 87.51325988769531 86.33709716796875 87.27729034423828 81.98798370361328 C 85.81448364257812 74.78176879882812 89.91993713378906 66.10920715332031 96.5052490234375 62.11225509643555 C 100.52291870117188 60.11812210083008 101.7398681640625 59.86210632324219 109.77082824707031 59.509307861328125 C 118.30612182617188 60.01719665527344 119.05060577392578 60.28527069091797 123.10302734375 62.5954475402832 C 127.18650817871094 65.4979248046875 130.0146026611328 69.60496520996094 131.29623413085938 75.1075439453125 C 134.04476928710938 83.15216064453125 129.85154724121094 90.25233459472656 120.49925994873047 93.200439453125 C 115.71297454833984 94.73239135742188 114.38592529296875 94.9522705078125 112.22046661376953 94.07624053955078 C 109.95816040039062 93.33938598632812 108.60079193115234 93.35836029052734 107.1170425415039 93.89852142333984 C 105.21353149414062 95.24469757080078 103.57492065429688 95.18846130371094 97.98956298828125 93.19474029541016" stroke-width="1.0" fill="rgb(233, 108, 70)" opacity="0.99752635"/>
    <path d="M 92.81059265136719 155.87396240234375 C 78.8403091430664 148.464111328125 71.05821228027344 136.04127502441406 71.39822387695312 122.2222671508789 C 71.0440673828125 115.59208679199219 71.28231811523438 115.27129364013672 75.18232727050781 112.66480255126953 C 81.31065368652344 108.24427795410156 107.65857696533203 93.12004089355469 109.33647155761719 93.4399642944336 C 110.96092224121094 92.91357421875 144.0481414794922 112.310546875 145.4819793701172 113.61878204345703 C 146.19711303710938 114.6736831665039 146.85150146484375 117.30462646484375 146.99200439453125 119.63530731201172 C 147.08657836914062 135.5750274658203 139.20498657226562 149.07418823242188 124.6238021850586 156.32769775390625 C 118.78125762939453 159.42250061035156 118.43777465820312 159.30592346191406 109.12515258789062 159.7747802734375 C 99.4332046508789 159.46414184570312 99.26455688476562 159.29953002929688 92.81059265136719 155.87396240234375" stroke-width="0.0" fill="rgb(255, 226, 125)" opacity="1.0"/>
    <path d="M 99.92680358886719 80.91751861572266 C 95.72718811035156 75.8173828125 99.2239761352539 67.34964752197266 105.15728759765625 68.50672912597656 C 106.50897216796875 68.83560180664062 108.43449401855469 69.18496704101562 109.41816711425781 69.30950927734375 C 110.32597351074219 69.12753295898438 112.23435974121094 68.90071105957031 113.6255111694336 68.43130493164062 C 119.60399627685547 67.50736999511719 123.00448608398438 75.94164276123047 118.82731628417969 80.9793701171875 C 117.20710754394531 83.20702362060547 116.52278137207031 83.43477630615234 113.51497650146484 83.06588745117188 C 111.675048828125 82.76140594482422 109.91203308105469 82.36798858642578 109.39066314697266 82.17532348632812 C 108.74359130859375 82.29849243164062 106.91170501708984 82.68348693847656 105.07125091552734 83.0743179321289 C 101.98756408691406 83.2314682006836 101.5697250366211 83.06991577148438 99.92680358886719 80.91751861572266" stroke-width="1.0" fill="rgb(252, 253, 251)" opacity="0.99565756"/>
    <path d="M 72.70547485351562 100.0891342163086 C 70.52330017089844 98.9961929321289 68.85833740234375 97.92022705078125 68.764892578125 97.87552642822266 C 69.14773559570312 97.40299224853516 70.29557037353516 94.71538543701172 71.49058532714844 92.22555541992188 C 73.73394775390625 87.07188415527344 85.19512939453125 75.43716430664062 87.25970458984375 75.76882934570312 C 87.59825134277344 75.50921630859375 87.92797088623047 76.48619842529297 88.02408599853516 77.51710510253906 C 87.80848693847656 78.68998718261719 88.2955093383789 80.86750793457031 88.78101348876953 82.08611297607422 C 89.9482421875 84.99950408935547 89.85893249511719 85.17491149902344 85.46812438964844 89.56478118896484 C 83.53260803222656 92.14362335205078 80.74871826171875 95.9616928100586 79.9073486328125 97.97982025146484 C 78.90447235107422 100.33283233642578 77.72206115722656 101.57246398925781 77.41151428222656 101.73431396484375 C 76.6679916381836 101.6512222290039 74.61781311035156 100.78929901123047 72.70547485351562 100.0891342163086" stroke-width="1.0" fill="rgb(251, 207, 39)" opacity="0.99409974"/>
    <path d="M 72.99363708496094 112.50479125976562 C 70.82080078125 111.73713684082031 67.10389709472656 109.27169799804688 65.7895278930664 107.44297790527344 C 63.89439392089844 105.95950317382812 64.29313659667969 100.77981567382812 66.49874877929688 98.79222106933594 C 68.47203063964844 97.46507263183594 68.31411743164062 96.89347076416016 73.1871337890625 98.78114318847656 C 77.57952880859375 101.10118865966797 80.04486083984375 100.65435791015625 79.25130462646484 98.26746368408203 C 80.09532165527344 96.4021987915039 81.6209945678711 95.09700775146484 90.46428680419922 92.6427993774414 C 99.33641052246094 91.8239517211914 107.42378234863281 92.77523040771484 108.42939758300781 93.38451385498047 C 108.90814971923828 97.43504333496094 103.16567993164062 106.73600006103516 95.65803527832031 110.32678985595703 C 92.27349090576172 112.17761993408203 90.71744537353516 112.50650024414062 83.49830627441406 113.36165618896484 C 79.30319213867188 113.65958404541016 74.90563201904297 112.8315658569336 72.99363708496094 112.50479125976562" stroke-width="0.0" fill="rgb(84, 72, 85)" opacity="0.9936716"/>
    <path d="M 126.28274536132812 111.6705322265625 C 118.07826232910156 108.9537353515625 110.10038757324219 98.87394714355469 110.27507019042969 93.38799285888672 C 110.555908203125 92.04335021972656 110.64325714111328 92.70187377929688 117.25910949707031 92.63278198242188 C 120.27217864990234 91.70940399169922 129.6470489501953 93.4608383178711 137.2909393310547 94.9281997680664 C 149.538330078125 96.8753433227539 151.1931915283203 97.21172332763672 152.7486114501953 99.53817749023438 C 155.2028350830078 102.54349517822266 154.8815155029297 105.89354705810547 151.73634338378906 109.46342468261719 C 150.44284057617188 110.65071868896484 147.47088623046875 112.18389892578125 145.32069396972656 112.36772155761719 C 139.4432373046875 113.83393859863281 130.21372985839844 113.73462677001953 126.28274536132812 111.6705322265625" stroke-width="0.0" fill="rgb(82, 71, 86)" opacity="0.99038917"/>
    <path d="M 97.05461120605469 161.81057739257812 C 90.39299011230469 160.13095092773438 84.98918914794922 156.89956665039062 79.30918884277344 151.09962463378906 C 70.22450256347656 142.02777099609375 65.77059936523438 130.37020874023438 65.86405944824219 115.72239685058594 L 66.21220397949219 108.470458984375 L 69.75662231445312 110.21609497070312 C 72.23231506347656 111.47383880615234 74.25518798828125 112.22710418701172 74.09732055664062 112.48455047607422 C 75.07243347167969 112.46391296386719 75.19380950927734 114.4587173461914 74.67236328125 117.41551208496094 C 74.49179077148438 127.17951965332031 77.58070373535156 136.840087890625 84.47911834716797 144.40103149414062 C 105.66234588623047 164.9163055419922 138.77896118164062 153.62564086914062 143.51980590820312 124.59070587158203 C 143.86013793945312 121.3154525756836 143.7159881591797 117.40668487548828 143.868896484375 115.87047576904297 C 143.57037353515625 112.755126953125 143.3914031982422 112.76071166992188 147.63003540039062 111.24467468261719 C 149.7494354248047 110.2823257446289 151.80157470703125 109.30307006835938 152.1361083984375 109.21929931640625 C 153.1914520263672 109.03267669677734 152.93301391601562 120.11038208007812 151.70523071289062 126.91374969482422 C 148.39048767089844 144.50582885742188 134.80210876464844 158.832275390625 118.76652526855469 162.0751495361328 C 113.11164855957031 163.80824279785156 102.5423583984375 163.56178283691406 97.05461120605469 161.81057739257812" stroke-width="1.0" fill="rgb(250, 202, 35)" opacity="1.0"/>
    <path d="M 79.79859924316406 100.9680404663086 C 78.26959228515625 100.4664306640625 78.29615783691406 100.08696746826172 80.04927062988281 97.1895751953125 C 81.01461791992188 95.3670883178711 83.33580780029297 91.8794937133789 85.51795959472656 89.7161636352539 L 89.18651580810547 85.48094177246094 L 91.94636535644531 88.0361557006836 C 93.38517761230469 89.22021484375 95.68116760253906 90.65059661865234 96.94931030273438 91.25218963623047 L 99.00672912597656 91.97803497314453 L 96.30813598632812 95.10256958007812 C 92.19121551513672 99.38378143310547 84.12684631347656 102.11153411865234 79.79859924316406 100.9680404663086" stroke-width="1.0" fill="rgb(255, 227, 121)" opacity="0.99861723"/>
    <path d="M 139.1236114501953 97.72357940673828 C 138.62713623046875 96.27788543701172 136.28439331054688 92.70714569091797 133.80874633789062 90.08866119384766 C 129.65187072753906 85.70557403564453 129.30604553222656 85.2239990234375 130.0433807373047 82.80970001220703 C 130.35804748535156 81.65202331542969 130.8336944580078 79.51457977294922 130.72412109375 77.9447021484375 C 130.60565185546875 75.07740783691406 131.02383422851562 75.066162109375 135.45362854003906 78.00398254394531 C 140.8922119140625 81.83366394042969 146.1555633544922 88.68138885498047 148.7919464111328 94.91323852539062 C 149.83518981933594 97.44465637207031 149.81301879882812 97.4454574584961 146.9859619140625 98.41999816894531 C 140.9080810546875 101.12147521972656 140.39462280273438 100.9314193725586 139.1236114501953 97.72357940673828" stroke-width="1.0" fill="rgb(251, 204, 38)" opacity="0.9941605"/>
    <path d="M 132.52679443359375 100.50518035888672 C 128.99560546875 99.84455871582031 124.14346313476562 96.83155822753906 122.16439819335938 94.22820281982422 L 120.33525848388672 91.93037414550781 L 122.80654907226562 90.9192123413086 C 123.79423522949219 90.1223373413086 125.84672546386719 88.64064025878906 127.5650634765625 87.43091583251953 L 129.52932739257812 85.4949722290039 L 133.28125 89.412353515625 C 135.32118225097656 91.1389389038086 137.7032470703125 93.99900817871094 138.8148651123047 96.11834716796875 C 140.4632110595703 99.5522232055664 140.52938842773438 99.8478012084961 139.53176879882812 100.47733306884766 C 138.09487915039062 101.35264587402344 136.1441192626953 101.44441223144531 132.52679443359375 100.50518035888672" stroke-width="1.0" fill="rgb(254, 225, 119)" opacity="0.99959695"/>
  </g>
</svg>
