<?xml version="1.0" ?>
<svg xmlns="http://www.w3.org/2000/svg" version="1.1" width="224" height="224">
  <defs/>
  <g>
    <path d="M 87.47744750976562 168.95639038085938 C 65.5675277709961 154.49891662597656 44.40966796875 140.40121459960938 40.20027160644531 137.75531005859375 C 35.84635925292969 134.94154357910156 31.91765594482422 131.73159790039062 31.085098266601562 130.57733154296875 C 29.55431365966797 126.9264907836914 28.077255249023438 113.0586929321289 28.76018524169922 105.24510192871094 C 29.528465270996094 95.37725067138672 33.24333953857422 81.96562194824219 37.175376892089844 74.14056396484375 C 50.02251434326172 48.66033172607422 73.03355407714844 32.566749572753906 101.26107025146484 29.14685821533203 C 111.58555603027344 28.0 125.68821716308594 28.598831176757812 133.62527465820312 30.866409301757812 C 161.00701904296875 37.520729064941406 183.4922637939453 58.406795501708984 191.54701232910156 84.57093811035156 C 195.11178588867188 96.17669677734375 195.92274475097656 99.33901977539062 195.40939331054688 114.46208190917969 C 194.60638427734375 130.66851806640625 193.4198760986328 136.38819885253906 188.10946655273438 147.25643920898438 C 177.5994873046875 169.23922729492188 160.48252868652344 185.03358459472656 139.5038604736328 192.17868041992188 C 136.69679260253906 193.2980194091797 132.79934692382812 194.36395263671875 130.68698120117188 194.58273315429688 C 127.13899993896484 195.50445556640625 126.97539520263672 195.09600830078125 87.47744750976562 168.95639038085938" stroke-width="0.0" fill="rgb(179, 129, 216)" opacity="0.9836098"/>
    <path d="M 98.47494506835938 194.78652954101562 C 75.79393005371094 190.71493530273438 56.004371643066406 178.46697998046875 43.45226287841797 159.8422393798828 C 35.308441162109375 150.0730743408203 36.30457305908203 146.34678649902344 57.18985366821289 117.85031127929688 C 75.591796875 93.07888793945312 82.84292602539062 85.36407470703125 94.18569946289062 79.30799865722656 C 101.64576721191406 75.40276336669922 108.963623046875 73.5793228149414 110.29592895507812 75.69906616210938 C 110.8987808227539 76.7330093383789 118.37257385253906 117.39433288574219 122.10608673095703 139.90347290039062 C 123.13423919677734 146.28836059570312 123.34701538085938 154.89385986328125 123.30657958984375 166.5816192626953 C 123.24327087402344 181.81288146972656 123.54585266113281 183.91445922851562 124.85363006591797 188.59439086914062 C 128.30517578125 195.49981689453125 127.79956817626953 195.13992309570312 115.45594024658203 195.7921142578125 C 110.23067474365234 196.0 102.63475036621094 195.2916259765625 98.47494506835938 194.78652954101562" stroke-width="0.0" fill="rgb(240, 215, 150)" opacity="0.99707925"/>
    <path d="M 143.30984497070312 84.60356140136719 C 138.2338104248047 82.92835998535156 130.1610870361328 79.43833923339844 125.85868835449219 77.06195068359375 L 117.74665069580078 73.14277648925781 L 117.31123352050781 68.66780090332031 C 116.88507080078125 64.85211181640625 116.98835754394531 64.21131134033203 119.06495666503906 63.57752990722656 C 122.0460205078125 61.753753662109375 130.00396728515625 61.6573600769043 133.73294067382812 63.557613372802734 C 138.04261779785156 65.23286437988281 147.42868041992188 75.42291259765625 151.003662109375 82.35319519042969 C 153.06951904296875 85.53855895996094 154.20458984375 88.13923645019531 153.64788818359375 88.09945678710938 C 153.3802947998047 88.0413818359375 148.80186462402344 86.48735046386719 143.30984497070312 84.60356140136719" stroke-width="1.0" fill="rgb(205, 62, 35)" opacity="0.9941296"/>
    <path d="M 134.81930541992188 144.29510498046875 C 122.08244323730469 134.1052703857422 114.1559066772461 126.12297058105469 111.04313659667969 120.12033081054688 C 108.2169418334961 113.44625091552734 104.67073822021484 100.11445617675781 104.31173706054688 95.24671936035156 C 105.05294036865234 91.59005737304688 105.75476837158203 88.95860290527344 108.08478546142578 85.42361450195312 C 111.39216613769531 79.485107421875 116.03418731689453 74.2716064453125 117.75251770019531 73.55821228027344 C 118.10137939453125 73.16265869140625 121.82006072998047 75.03314208984375 125.47303009033203 77.45585632324219 C 129.70555114746094 79.36672973632812 137.29092407226562 82.35350036621094 142.97357177734375 84.8599853515625 C 155.74301147460938 89.27619934082031 156.34097290039062 90.01808166503906 154.19895935058594 97.67794036865234 C 152.52731323242188 104.85333251953125 152.8818817138672 106.54052734375 155.12364196777344 114.53131103515625 C 156.38565063476562 118.90350341796875 159.1632537841797 126.4216079711914 161.53778076171875 131.1852569580078 C 168.39735412597656 145.46392822265625 168.75942993164062 146.76947021484375 167.321533203125 147.36549377441406 C 167.10816955566406 147.76463317871094 147.62890625 152.91055297851562 146.11920166015625 152.9015655517578 C 145.95462036132812 152.80215454101562 140.85438537597656 149.11770629882812 134.81930541992188 144.29510498046875" stroke-width="0.0" fill="rgb(252, 253, 253)" opacity="0.99217707"/>
    <path d="M 48.212623596191406 147.56239318847656 C 46.2850341796875 142.1739501953125 44.28749084472656 137.80746459960938 43.70970916748047 137.6367645263672 C 43.392906188964844 137.92970275878906 42.312286376953125 141.34474182128906 41.39935302734375 146.07460021972656 C 40.336883544921875 150.67263793945312 39.267242431640625 153.3652801513672 38.42638397216797 152.58749389648438 C 37.866722106933594 152.0291748046875 36.4176025390625 147.71142578125 34.96617126464844 143.04718017578125 L 31.87506866455078 134.1634063720703 L 36.311485290527344 119.29931640625 C 39.07719421386719 111.0119857788086 42.00086212158203 101.06430053710938 42.58856201171875 97.04722595214844 C 47.980224609375 78.6233901977539 60.67363357543945 64.54811096191406 76.73757934570312 58.7900390625 C 82.22129821777344 57.0192756652832 84.2803955078125 56.65678787231445 91.55506896972656 56.758975982666016 C 96.9195556640625 57.21318435668945 101.47395324707031 58.07912826538086 104.717041015625 59.58721923828125 L 109.5333480834961 61.71116638183594 L 109.20257568359375 68.64279174804688 C 109.82305908203125 75.97522735595703 110.32887268066406 75.98177337646484 106.7010498046875 76.51081085205078 C 102.78089904785156 77.42990112304688 89.56375122070312 83.77864074707031 84.39492797851562 88.10325622558594 C 78.09490203857422 92.95635223388672 72.41522216796875 99.63912200927734 68.97596740722656 106.86392974853516 C 67.59367370605469 108.8777084350586 63.35662841796875 121.31228637695312 59.75785827636719 134.43968200683594 C 55.664024353027344 146.9306640625 52.305564880371094 157.2989501953125 52.03003692626953 157.490966796875 C 51.482383728027344 157.49176025390625 49.933616638183594 152.90557861328125 48.212623596191406 147.56239318847656" stroke-width="1.0" fill="rgb(202, 61, 35)" opacity="0.9866782"/>
    <path d="M 117.4990463256836 171.59207153320312 C 114.19999694824219 164.9373779296875 110.7672348022461 157.6161651611328 109.80709838867188 154.99069213867188 C 108.09852600097656 150.4414520263672 106.48441314697266 133.47471618652344 107.78691101074219 133.23162841796875 C 107.95816802978516 133.2069854736328 109.82854461669922 134.3340301513672 111.71968078613281 135.822509765625 C 113.84375 137.25558471679688 117.16361236572266 139.523193359375 119.25537872314453 141.23548889160156 L 123.64556884765625 143.40509033203125 L 123.34481811523438 163.30064392089844 L 123.36307525634766 183.54458618164062 L 117.4990463256836 171.59207153320312" stroke-width="1.0" fill="rgb(197, 156, 106)" opacity="0.9840631"/>
    <path d="M 140.39657592773438 68.81661987304688 C 136.2176513671875 64.4112319946289 136.6004638671875 62.27241516113281 139.81695556640625 57.720977783203125 L 142.38751220703125 54.984947204589844 L 144.14581298828125 58.528804779052734 C 145.55259704589844 62.25297164916992 145.86978149414062 69.13683319091797 144.6919403076172 71.123779296875 C 144.1770782470703 71.91885375976562 142.99880981445312 71.29381561279297 140.39657592773438 68.81661987304688" stroke-width="1.0" fill="rgb(230, 231, 228)" opacity="0.9982804"/>
    <path d="M 117.70195007324219 105.55817413330078 C 113.97599029541016 102.10150909423828 116.89201354980469 96.16510009765625 122.15923309326172 96.33295440673828 C 125.53158569335938 96.35774230957031 127.20874786376953 98.17292785644531 127.18700408935547 102.1470947265625 C 127.14006042480469 103.72869873046875 126.62896728515625 105.5188980102539 125.65583038330078 106.24121856689453 C 124.02433013916016 107.91526794433594 119.33416748046875 107.6155014038086 117.70195007324219 105.55817413330078" stroke-width="1.0" fill="rgb(62, 83, 116)" opacity="0.98862463"/>
    <path d="M 151.0614471435547 166.2330322265625 C 149.37649536132812 164.5361785888672 148.16812133789062 162.0167236328125 147.6331329345703 160.1686553955078 C 147.26004028320312 156.99488830566406 146.74180603027344 156.5132598876953 140.89013671875 153.79676818847656 C 129.8267364501953 148.44908142089844 121.9117660522461 142.55511474609375 114.90579986572266 134.5188751220703 C 102.25950622558594 119.9797592163086 98.42842864990234 107.35214233398438 102.83445739746094 95.27243041992188 L 105.03154754638672 89.90526580810547 L 105.15076446533203 93.52535247802734 C 105.40655517578125 98.60809326171875 110.62643432617188 115.27704620361328 113.35775756835938 120.7090072631836 C 116.60198211669922 126.93965911865234 121.54508972167969 132.1121826171875 131.3892059326172 138.866455078125 C 136.42431640625 142.15545654296875 141.804931640625 146.24368286132812 143.63009643554688 147.89151000976562 C 146.68006896972656 150.525390625 147.12022399902344 150.6493682861328 148.1945343017578 149.3986053466797 C 151.29409790039062 145.48724365234375 160.61329650878906 143.4132537841797 166.72023010253906 145.082763671875 C 169.13992309570312 145.73011779785156 171.57579040527344 149.97645568847656 171.59445190429688 153.61520385742188 C 171.61221313476562 158.53536987304688 167.4159698486328 164.17933654785156 161.09939575195312 167.3727569580078 C 157.0244598388672 169.72268676757812 153.9024658203125 169.40769958496094 151.0614471435547 166.2330322265625" stroke-width="1.0" fill="rgb(234, 233, 228)" opacity="0.9590697"/>
    <path d="M 110.09239196777344 76.63250732421875 C 108.51519775390625 68.86102294921875 110.36039733886719 56.23369598388672 113.1015853881836 56.12437438964844 C 114.45845031738281 56.198699951171875 116.80362701416016 61.80788803100586 118.1484603881836 67.96207427978516 L 118.63524627685547 74.62289428710938 L 111.26373291015625 82.07369232177734 L 110.09239196777344 76.63250732421875" stroke-width="1.0" fill="rgb(235, 235, 228)" opacity="0.9833051"/>
    <path d="M 149.26260375976562 168.72171020507812 C 148.08291625976562 168.19281005859375 146.61672973632812 166.83908081054688 145.93539428710938 165.6958770751953 C 144.67874145507812 163.61892700195312 144.7567596435547 154.88677978515625 146.02728271484375 154.6159210205078 C 146.6996612548828 154.7784423828125 147.0838623046875 155.51675415039062 146.9377899169922 156.67108154296875 C 146.95518493652344 160.45941162109375 149.78831481933594 165.88916015625 152.96240234375 167.85565185546875 C 156.2412109375 169.6967010498047 156.302734375 169.61123657226562 154.0998077392578 169.6474151611328 C 152.56129455566406 169.64491271972656 150.43780517578125 169.19863891601562 149.26260375976562 168.72171020507812" stroke-width="1.0" fill="rgb(203, 205, 197)" opacity="0.98513275"/>
    <path d="M 153.30128479003906 158.37518310546875 C 152.16835021972656 157.1140594482422 151.3858184814453 155.008056640625 151.38099670410156 154.1956787109375 C 151.46560668945312 152.22006225585938 154.8234100341797 148.15951538085938 157.05767822265625 147.43724060058594 C 161.04647827148438 146.27206420898438 164.66184997558594 152.8074951171875 162.58726501464844 158.25338745117188 C 161.16358947753906 161.80589294433594 156.16940307617188 161.86219787597656 153.30128479003906 158.37518310546875" stroke-width="1.0" fill="rgb(189, 180, 174)" opacity="0.9998982"/>
  </g>
</svg>
