<?xml version="1.0" encoding="UTF-8"?>
<svg xmlns="http://www.w3.org/2000/svg" version="1.1" viewBox="0 0 224 224">
  <defs>
    <style>
      .cls-1 {
        fill: #a2d3f4;
        opacity: 1;
      }

      .cls-1, .cls-2, .cls-3, .cls-4, .cls-5, .cls-6, .cls-7, .cls-8, .cls-9, .cls-10 {
        isolation: isolate;
      }

      .cls-2 {
        fill: #5f829e;
        opacity: 1;
      }

      .cls-3 {
        fill: #dae5ef;
        opacity: 1;
      }

      .cls-4 {
        fill: #4c6076;
        opacity: 1;
      }

      .cls-5 {
        fill: #4c5e75;
        opacity: 1;
      }

      .cls-6 {
        fill: #857e4d;
        opacity: 1;
      }

      .cls-7 {
        fill: #66c2ee;
        opacity: 1;
      }

      .cls-8 {
        fill: #fbfdfd;
        opacity: 1;
      }

      .cls-9 {
        fill: #a68949;
        opacity: 1;
      }

      .cls-10 {
        fill: #a59e92;
        opacity: 1;
      }
    </style>
  </defs>
  <!-- Generator: Adobe Illustrator 28.6.0, SVG Export Plug-In . SVG Version: 1.2.0 Build 709)  -->
  <g>
    <g id="_图层_1" data-name="图层_1">
      <g>
        <path class="cls-3" d="M96.5,193.5c-17.2-3.6-28.9-9.8-41.8-21.8-10.6-11.1-16.6-20.3-21-33.5-2.5-8.5-3.2-10.3-3.9-25.3.5-14.3,1.3-17.4,3.2-24.8,11.3-36.6,42.1-59.8,78.4-60.1,37.2,0,69.7,25.8,79.5,63,3.3,11.8,3.2,31,0,42.2-7.4,28.1-28.6,50.3-57.4,58.9-9.8,3.1-27,3.9-37,1.4"/>
        <path class="cls-9" d="M106.5,53c.6-4.4,1.2-8.2,1.8-8.6.6-.3,1.3-2,1.5-3.3.6-3.4,3.8-4.5,3.8-.8.1,1.3.8,2.9,1.5,3.3.5.3,1.3,3.2,1.9,5.7.4,2.7.9,6.5,1.5,8.2.9,2.8.7,3-6,2.9h-6.6c0,0,.6-7.4.6-7.4"/>
        <path class="cls-8" d="M57.4,143.1c-1.5-2.6,1-8.8,20.5-45.5,15.6-29.3,17.8-32.9,21.8-34.8,4-2.5,19.7-2.5,23.8,0,3,1.2,4.8,3.7,11.5,14.8,4.2,8.1,11.1,21.3,15.4,29.8,4.4,8.4,8.5,16.2,9,17.2,4.2,7.6,8.6,17.4,7.9,18-.7.8-109,1-109.9.6"/>
        <path class="cls-7" d="M95.3,182.4c-17.6-4.6-34.4-16.9-43.4-32-2.4-3.6-4-7.1-3.9-7.2,1.3-1,6.2-1.4,7.3-.3.2,1.3,112.8,1.3,112.9,0-.5-.7,1.3-1.1,3.7-1.3,4.5.2,4.6.4-.8,9.7-4.9,8.2-18,20.4-27.3,25.1-15.1,8.1-32.3,10-48.5,6"/>
        <path class="cls-5" d="M44.8,135.3c-3.9-10.8-4.7-28.8-1.7-39.9,3.2-13.8,9.3-24.7,19.7-35.7,13.4-12.4,25-17.9,42.9-20.2l5.5-.7-.5,2.6c0,1.9-.6,3.6-1.3,4.1-1.1.4-1.8,2-1.2,4.8-.6,5.9-1.4,9.2-2.7,9-3.7.2-9.5,3.6-11.5,6.6-1.8,4.1-3.3,18.7-4.3,38.4l-.7,12.9-10.5,2.2c-5.7,1-11.2,2.5-12.8,2.4-1.7.4-7.2,11.5-8.8,18.1-.7,1.8-1.7,2.2-5.1,2.4l-4.5.3-2.4-7.3"/>
        <path class="cls-2" d="M106.7,77c-3.6-3.1-3.3-8.5.6-11.5,1.8-1.4,4.3-2.3,5.2-2.3,3.1,0,8.1,5.3,8,8.3.1,3.2-5.1,8.3-8.7,8-1.3.2-3.6-1-5.1-2.5"/>
        <path class="cls-10" d="M110.4,134.2c-1.5-8-1.4-12.2.1-20.7,1.2-10.5,2.9-15.9,2.7-10.3,0,1.4.7,6.4,1.4,11.9,1.4,8.5,0,25.9-2.2,28.5-.3.7-1.4-3.5-2-9.3"/>
        <path class="cls-4" d="M166.8,139.7c-.9-4-6.3-14.7-7.9-16.3-.5-1-6-2.3-12-3.6-5.4-1.3-10.7-2.5-11-2.5-.3.1-1-7.1-1.5-15.3-1.7-23.5-2.8-32.9-5.3-36.8-2.2-2.8-6.4-5.2-9.5-5.2-1.4-.7-3.6-5.9-3.7-10.5-.1-1.9.1-3.6-.6-4-.5-.3-1.3-2.1-1.1-3.7-.3-3.3-.2-3.3,4.5-2.5,28,3.7,50.5,22.7,59.4,48.8,5.3,15.5,5.2,34.4-.1,48.6-1.9,5.7-2.3,5.8-6.3,5.4-3.3.4-3.9.1-4.8-2.5"/>
        <path class="cls-1" d="M108.2,75.6c-2.1-2.5-1.4-7.7.9-9.1,3.3-1.8,8.1,0,9,3.4,1.3,5.5-6.4,9.9-9.9,5.7"/>
        <path class="cls-6" d="M110.5,36.2c.2-2.6,1-4.8,1.7-4.7.7-.1,1.8,2.2,1.9,4.7.5,3.6-.1,4.5-2,4.8-1.5,0-2.3-1.2-1.6-4.8"/>
      </g>
    </g>
  </g>
</svg>