<?xml version="1.0" ?>
<svg xmlns="http://www.w3.org/2000/svg" version="1.1" width="224" height="224">
  <defs/>
  <g>
    <path d="M 172.0965576171875 51.851463317871094 C 172.0965576171875 51.851463317871094 172.0965576171875 51.851463317871094 172.0965576171875 51.851463317871094 C 163.88217163085938 43.784088134765625 154.19200134277344 37.429866790771484 143.387451171875 33.397613525390625 C 133.51585388183594 29.713157653808594 122.93433380126953 28.00000762939453 112.40515899658203 28.38006591796875 C 102.38512420654297 28.741485595703125 92.45114135742188 30.997482299804688 83.25791931152344 34.99818420410156 C 74.49281311035156 38.81172180175781 66.42829895019531 44.19857406616211 59.54773712158203 50.83461380004883 C 53.34052276611328 56.82168197631836 48.11071014404297 63.809814453125 44.117897033691406 71.4541015625 C 28.05199432373047 102.20835876464844 33.97666931152344 140.90090942382812 58.51295852661133 165.43505859375 C 64.60472106933594 171.52752685546875 71.67890930175781 176.62539672851562 79.3848648071289 180.47836303710938 C 110.42668151855469 196.0 149.02027893066406 189.38259887695312 173.1134033203125 164.4002685546875 C 179.7494354248047 157.5196990966797 185.13485717773438 149.45448303222656 188.9490966796875 140.68936157226562 C 192.94979858398438 131.49472045898438 195.20651245117188 121.56144714355469 195.56793212890625 111.54069519042969 C 195.947998046875 101.01152038574219 194.234130859375 90.42999267578125 190.54966735839844 80.55911254882812 C 186.51670837402344 69.75529479980469 180.1632080078125 60.06583786010742 172.0965576171875 51.851463317871094 C 172.0965576171875 51.851463317871094 172.0965576171875 51.851463317871094 172.0965576171875 51.851463317871094" stroke-width="0.0" fill="rgb(92, 45, 81)" opacity="1.0"/>
    <path d="M 115.30368041992188 31.673709869384766 C 115.30368041992188 31.673709869384766 115.30368041992188 31.673709869384766 115.30368041992188 31.673709869384766 C 126.59368896484375 31.77768325805664 137.7123260498047 34.144832611083984 147.95394897460938 38.94223403930664 C 156.88685607910156 43.12651062011719 164.98793029785156 49.036842346191406 171.701416015625 56.26449203491211 C 178.0742950439453 63.12570571899414 183.17288208007812 71.15077209472656 186.67733764648438 79.83484649658203 C 190.00827026367188 88.08580017089844 191.891357421875 96.90756225585938 192.21908569335938 105.79959869384766 C 192.531005859375 114.25707244873047 191.43887329101562 122.7568588256836 188.9957275390625 130.86007690429688 C 179.30697631835938 162.9954833984375 148.86610412597656 185.60992431640625 115.30368041992188 185.60992431640625 C 105.92257690429688 185.60992431640625 96.55796813964844 183.8802947998047 87.79644775390625 180.52713012695312 C 79.4981689453125 177.351806640625 71.76568603515625 172.7322540283203 65.0371322631836 166.9294891357422 C 58.619808197021484 161.39419555664062 53.12969207763672 154.7990264892578 48.85362243652344 147.4817352294922 C 31.925048828125 118.51808166503906 36.07777404785156 80.84667205810547 58.90593338012695 56.26449203491211 C 65.61798858642578 49.03612518310547 73.721923828125 43.12651062011719 82.65412902832031 38.94223403930664 C 92.89574432373047 34.144832611083984 104.01365661621094 31.77768325805664 115.30368041992188 31.673709869384766 C 115.30368041992188 31.673709869384766 115.30368041992188 31.673709869384766 115.30368041992188 31.673709869384766" stroke-width="0.0" fill="rgb(92, 45, 81)" opacity="1.0"/>
    <path d="M 115.30368041992188 35.021846771240234 C 115.30368041992188 35.021846771240234 115.30368041992188 35.021846771240234 115.30368041992188 35.021846771240234 C 126.15913391113281 35.127262115478516 136.84320068359375 37.40763854980469 146.68252563476562 42.04296875 C 155.20884704589844 46.059444427490234 162.93846130371094 51.720951080322266 169.3400115966797 58.63881301879883 C 175.71932983398438 65.53228759765625 180.75408935546875 73.64555358886719 184.09864807128906 82.4221420288086 C 187.11334228515625 90.3310317993164 188.74832153320312 98.75265502929688 188.91180419921875 107.21514892578125 C 189.06744384765625 115.22587585449219 187.90573120117188 123.2538070678711 185.48406982421875 130.89163208007812 C 175.89573669433594 161.1360321044922 147.0303192138672 182.26466369628906 115.30368041992188 182.26466369628906 C 106.36287689208984 182.26466369628906 97.43785095214844 180.62179565429688 89.0836410522461 177.43714904785156 C 81.19410705566406 174.4303436279297 73.83595275878906 170.05963134765625 67.42292785644531 164.56808471679688 C 61.32255554199219 159.34471130371094 56.089881896972656 153.1224365234375 51.99165344238281 146.21604919433594 C 35.552146911621094 118.50947570800781 39.38719177246094 82.2851791381836 61.26734161376953 58.63881301879883 C 67.66888427734375 51.720951080322266 75.39994812011719 46.0587272644043 83.925537109375 42.04296875 C 93.76486206054688 37.40763854980469 104.4482192993164 35.127262115478516 115.30368041992188 35.021846771240234 C 115.30368041992188 35.021846771240234 115.30368041992188 35.021846771240234 115.30368041992188 35.021846771240234" stroke-width="0.0" fill="rgb(239, 79, 112)" opacity="1.0"/>
    <path d="M 101.91757202148438 29.430618286132812 C 101.91757202148438 29.430618286132812 101.91757202148438 29.430618286132812 101.91757202148438 29.430618286132812 C 92.57089233398438 31.07636260986328 83.72834014892578 34.23088836669922 75.4487075805664 38.869083404541016 C 85.18692016601562 63.40967559814453 94.92584991455078 87.95098114013672 104.66407012939453 112.49156951904297 C 112.67263793945312 137.61228942871094 120.68048858642578 162.7322998046875 128.68905639648438 187.85302734375 C 138.0364532470703 186.20799255371094 146.8804473876953 183.05633544921875 155.16079711914062 178.41741943359375 C 145.42257690429688 153.8768310546875 135.68365478515625 129.33624267578125 125.9454345703125 104.795654296875 C 117.93614959716797 79.67420959472656 109.92686462402344 54.552059173583984 101.91757202148438 29.430618286132812" stroke-width="0.0" fill="rgb(92, 45, 81)" opacity="1.0"/>
    <path d="M 99.81001281738281 33.28072738647461 C 107.47294616699219 57.48643112182617 115.13587188720703 81.692138671875 122.79879760742188 105.89855194091797 C 132.19065856933594 129.56930541992188 141.58322143554688 153.2407684326172 150.97508239746094 176.91151428222656 C 144.58644104003906 180.17288208007812 137.9123992919922 182.54217529296875 130.89772033691406 184.03948974609375 C 123.23480224609375 159.83306884765625 115.57186889648438 135.62664794921875 107.90894317626953 111.41950988769531 C 98.51708984375 87.74947357177734 89.12451171875 64.07872772216797 79.73265838623047 40.40869903564453 C 86.12129974365234 37.1473274230957 92.79534912109375 34.77803421020508 99.81001281738281 33.28072738647461 C 99.81001281738281 33.28072738647461 99.81001281738281 33.28072738647461 99.81001281738281 33.28072738647461" stroke-width="0.0" fill="rgb(92, 45, 81)" opacity="1.0"/>
    <path d="M 97.43498229980469 37.228363037109375 C 104.78668975830078 60.607967376708984 112.13839721679688 83.98828887939453 119.48938751220703 107.36788940429688 C 128.48037719726562 130.01246643066406 137.4713897705078 152.65704345703125 146.461669921875 175.30233764648438 C 142.13037109375 177.3102264404297 137.69081115722656 178.90792846679688 133.07412719726562 180.1226806640625 C 125.74464416503906 156.7201385498047 118.41588592529297 133.31829833984375 111.0871353149414 109.9157485961914 C 102.05167388916016 87.28264617919922 93.01549530029297 64.64954376220703 83.98004150390625 42.01572036743164 C 88.31204223632812 40.00927734375 92.7516098022461 38.412296295166016 97.36829376220703 37.19465637207031 C 97.36829376220703 37.19465637207031 97.36829376220703 37.19465637207031 97.36829376220703 37.19465637207031 C 97.36829376220703 37.19465637207031 97.43498229980469 37.228363037109375 97.43498229980469 37.228363037109375" stroke-width="0.0" fill="rgb(252, 201, 136)" opacity="1.0"/>
    <path d="M 115.30368041992188 75.17584991455078 C 115.30368041992188 75.17728424072266 115.30368041992188 75.1780014038086 115.30368041992188 75.17871856689453 C 110.19075775146484 75.28556823730469 105.23200988769531 76.31962585449219 100.6181869506836 78.57347106933594 C 96.8785171508789 80.39991760253906 93.49237060546875 82.92769622802734 90.67416381835938 85.99043273925781 C 87.86743927001953 89.0402603149414 85.63868713378906 92.61285400390625 84.13134765625 96.47370910644531 C 82.79037475585938 99.90790557861328 82.0230712890625 103.5608139038086 81.86961364746094 107.24383544921875 C 81.08798217773438 125.98881530761719 96.54075622558594 142.1077880859375 115.30368041992188 142.1077880859375 C 134.0673065185547 142.1077880859375 149.5215301513672 125.99024963378906 148.73989868164062 107.24383544921875 C 148.58642578125 103.5608139038086 147.81912231445312 99.90790557861328 146.4781494140625 96.47370910644531 C 144.97080993652344 92.61285400390625 142.7420654296875 89.0402603149414 139.9353485107422 85.99043273925781 C 137.11642456054688 82.92769622802734 133.73028564453125 80.39991760253906 129.9906005859375 78.57347106933594 C 125.37606048583984 76.31962585449219 120.41731262207031 75.28556823730469 115.30368041992188 75.17871856689453 C 115.30368041992188 75.17871856689453 115.30368041992188 75.17871856689453 115.30368041992188 75.17871856689453 C 115.30368041992188 75.17871856689453 115.30368041992188 75.17584991455078 115.30368041992188 75.17584991455078" stroke-width="0.0" fill="rgb(92, 45, 81)" opacity="1.0"/>
    <path d="M 115.30368041992188 78.52470397949219 C 115.30368041992188 78.52470397949219 115.30368041992188 78.52470397949219 115.30368041992188 78.52470397949219 C 119.98347473144531 78.63370513916016 124.50765228271484 79.58171081542969 128.7184600830078 81.67635345458984 C 132.0508270263672 83.33429718017578 135.06552124023438 85.61251831054688 137.57249450683594 88.36402893066406 C 140.06727600097656 91.10335540771484 142.04791259765625 94.30376434326172 143.387451171875 97.75875091552734 C 144.7298583984375 101.22091674804688 145.42330932617188 104.9283218383789 145.42330932617188 108.64218139648438 C 145.42330932617188 125.04727172851562 131.70877075195312 138.76181030273438 115.30368041992188 138.76181030273438 C 98.89930725097656 138.76181030273438 85.18620300292969 125.04582977294922 85.18620300292969 108.64218139648438 C 85.18620300292969 104.9283218383789 85.87892150878906 101.22163391113281 87.22132873535156 97.75875091552734 C 88.56087493896484 94.30304718017578 90.54150390625 91.10335540771484 93.0370101928711 88.36402893066406 C 95.54470825195312 85.61323547363281 98.55796813964844 83.33429718017578 101.89031982421875 81.67635345458984 C 106.10113525390625 79.58171081542969 110.62388610839844 78.63370513916016 115.30368041992188 78.52470397949219 C 115.30368041992188 78.52470397949219 115.30368041992188 78.52470397949219 115.30368041992188 78.52470397949219" stroke-width="0.0" fill="rgb(92, 45, 81)" opacity="1.0"/>
    <path d="M 115.30368041992188 81.87069702148438 C 115.30368041992188 81.87069702148438 115.30368041992188 81.87069702148438 115.30368041992188 81.87069702148438 C 119.55177307128906 81.98255920410156 123.63996124267578 82.845947265625 127.44776916503906 84.78355407714844 C 130.37281799316406 86.27225494384766 133.01531982421875 88.3009262084961 135.2103729248047 90.7405014038086 C 137.39393615722656 93.16788482666016 139.125732421875 95.99540710449219 140.29603576660156 99.0438003540039 C 141.46920776367188 102.1000747680664 142.07444763183594 105.36861419677734 142.07444763183594 108.64218139648438 C 142.07444763183594 123.2272720336914 129.88876342773438 135.41294860839844 115.30368041992188 135.41294860839844 C 100.72216796875 135.41294860839844 88.53218841552734 123.22440338134766 88.53218841552734 108.64218139648438 C 88.53218841552734 105.36790466308594 89.13813781738281 102.1000747680664 90.31275177001953 99.0438003540039 C 91.48377227783203 95.99540710449219 93.21556854248047 93.16788482666016 95.39985656738281 90.7405014038086 C 97.59489440917969 88.3009262084961 100.2366943359375 86.27225494384766 103.16102600097656 84.78355407714844 C 106.96810913085938 82.84523010253906 111.05557250976562 81.98255920410156 115.30368041992188 81.87069702148438 C 115.30368041992188 81.87069702148438 115.30368041992188 81.87069702148438 115.30368041992188 81.87069702148438" stroke-width="0.0" fill="rgb(158, 218, 172)" opacity="1.0"/>
    <path d="M 127.72886657714844 96.21986389160156 C 127.72886657714844 96.21986389160156 127.72886657714844 96.21986389160156 127.72886657714844 96.21986389160156 C 125.32514190673828 93.9990005493164 122.63172149658203 92.33533477783203 119.42054748535156 91.56229400634766 C 108.54214477539062 88.94273376464844 97.73473358154297 97.45111846923828 97.73473358154297 108.64218139648438 C 97.73473358154297 110.9440689086914 98.1915283203125 113.24022674560547 99.0721206665039 115.36714172363281 C 99.95272827148438 117.49334716796875 101.2535400390625 119.44097900390625 102.88136291503906 121.06736755371094 C 110.79096984863281 128.97482299804688 124.45674133300781 127.3563232421875 130.29177856445312 117.81173706054688 C 131.48646545410156 115.85691833496094 132.29319763183594 113.67048645019531 132.65318298339844 111.40803527832031 C 133.01605224609375 109.12478637695312 132.92425537109375 106.77484893798828 132.38284301757812 104.52674865722656 C 131.6098175048828 101.31700134277344 129.94757080078125 98.62358093261719 127.72886657714844 96.21986389160156 C 127.72886657714844 96.21986389160156 127.72886657714844 96.21986389160156 127.72886657714844 96.21986389160156" stroke-width="0.0" fill="rgb(92, 45, 81)" opacity="1.0"/>
    <path d="M 108.19219970703125 96.32598876953125 C 108.19219970703125 96.32598876953125 108.19219970703125 96.32598876953125 108.19219970703125 96.32598876953125 C 105.86808013916016 97.82186126708984 103.9491195678711 99.63325500488281 102.66551208496094 102.11800384521484 C 101.83940887451172 103.71857452392578 101.32022857666016 105.47474670410156 101.14741516113281 107.26750183105469 C 100.05741882324219 118.5575180053711 112.58515167236328 126.6370849609375 122.41515350341797 120.96051788330078 C 132.24371337890625 115.28467559814453 131.515869140625 100.3976821899414 121.19178009033203 95.69637298583984 C 119.55249786376953 94.94987487792969 117.77265167236328 94.52176666259766 115.97416687011719 94.43714904785156 C 113.17962646484375 94.3051986694336 110.65042114257812 95.06102752685547 108.19219970703125 96.32598876953125 C 108.19219970703125 96.32598876953125 108.19219970703125 96.32598876953125 108.19219970703125 96.32598876953125" stroke-width="0.0" fill="rgb(92, 45, 81)" opacity="1.0"/>
    <path d="M 115.30368041992188 97.76807403564453 C 115.30368041992188 97.76807403564453 115.30368041992188 97.76807403564453 115.30368041992188 97.76807403564453 C 118.72998046875 97.99324798583984 121.7934341430664 99.23454284667969 123.93899536132812 102.030517578125 C 129.321533203125 109.04375457763672 124.1333236694336 119.5184326171875 115.30368041992188 119.5184326171875 C 106.47473907470703 119.5184326171875 101.28939819335938 109.04232025146484 106.6705093383789 102.030517578125 C 108.81607818603516 99.23526000976562 111.87808990478516 97.99396514892578 115.30368041992188 97.76807403564453 C 115.30368041992188 97.76807403564453 115.30368041992188 97.76807403564453 115.30368041992188 97.76807403564453" stroke-width="0.0" fill="rgb(254, 254, 254)" opacity="1.0"/>
  </g>
</svg>
