<?xml version="1.0" ?>
<svg xmlns="http://www.w3.org/2000/svg" version="1.1" width="224" height="224">
  <defs/>
  <g>
    <path d="M 60.726356506347656 195.44366455078125 C 57.94214630126953 193.12234497070312 57.148834228515625 188.58160400390625 53.95664978027344 155.3716583251953 L 50.44882583618164 120.35407257080078 L 47.30370330810547 119.06292724609375 C 45.76023864746094 118.04269409179688 43.12535858154297 116.16127014160156 41.68296813964844 115.09881591796875 C 39.705894470214844 111.84481048583984 39.49089050292969 111.39633178710938 39.48963928222656 95.62755584716797 C 40.275238037109375 77.28984069824219 42.92292022705078 68.34357452392578 49.609825134277344 56.04805374145508 C 54.343299865722656 47.521514892578125 65.31121063232422 36.533653259277344 72.24603271484375 33.645660400390625 C 83.21681213378906 28.0 95.64678955078125 29.72856903076172 107.65571594238281 37.84405517578125 C 114.58516693115234 42.986412048339844 114.80794525146484 43.125343322753906 116.92711639404297 41.57879638671875 C 118.3956069946289 40.33050537109375 122.52095031738281 37.83531951904297 125.89306640625 35.986839294433594 C 132.11056518554688 33.712059020996094 134.30288696289062 33.00446319580078 140.55050659179688 32.63157653808594 C 150.4115447998047 33.186668395996094 155.89547729492188 35.98157501220703 165.20187377929688 45.350589752197266 C 178.81724548339844 59.06790542602539 184.43582153320312 74.33914184570312 184.19760131835938 98.62124633789062 C 184.51034545898438 111.70880889892578 183.1162109375 115.97654724121094 177.36599731445312 118.73780822753906 L 174.48828125 120.26851654052734 L 171.17086791992188 155.35543823242188 C 167.9189453125 188.69815063476562 167.1214599609375 193.41622924804688 164.2476043701172 195.3690643310547 C 162.79296875 195.9515380859375 62.12394714355469 196.0 60.726356506347656 195.44366455078125" stroke-width="1.0" fill="rgb(72, 4, 71)" opacity="0.98120886"/>
    <path d="M 111.8803939819336 66.3731460571289 C 110.32782745361328 61.68968963623047 101.9346923828125 50.34680938720703 97.62825775146484 47.27607345581055 C 92.86712646484375 43.57320022583008 88.14974975585938 41.146766662597656 83.41297149658203 40.48949432373047 L 79.95036315917969 39.204872131347656 L 84.92501831054688 38.69085693359375 C 91.50711059570312 38.637672424316406 96.57792663574219 40.75550079345703 106.07886505126953 47.724143981933594 C 109.7446060180664 51.14201736450195 113.53775787353516 53.60917282104492 114.11447143554688 53.55668640136719 C 114.77509307861328 53.57186508178711 118.84117126464844 51.109989166259766 122.60298156738281 47.69983673095703 C 134.5748748779297 40.30841064453125 142.67910766601562 38.81737518310547 149.82742309570312 43.13273620605469 C 151.93466186523438 44.27699661254883 153.29661560058594 45.27688217163086 152.8126983642578 45.4888801574707 C 153.181396484375 46.189510345458984 150.75067138671875 46.00185775756836 147.92724609375 45.92407989501953 C 139.98020935058594 45.99998474121094 133.49029541015625 49.47108840942383 122.62922668457031 59.82383728027344 C 117.97968292236328 65.34576416015625 113.59467315673828 69.47730255126953 113.34466552734375 69.66637420654297 C 113.18865966796875 69.6820068359375 112.43272399902344 68.09565734863281 111.8803939819336 66.3731460571289" stroke-width="1.0" fill="rgb(243, 63, 99)" opacity="0.997043"/>
    <path d="M 58.7901725769043 103.48285675048828 L 48.35471725463867 103.99468994140625 L 48.64243698120117 93.43061828613281 C 49.44090270996094 75.61207580566406 55.37186050415039 60.706947326660156 65.6005859375 53.30396270751953 C 69.24765014648438 50.65848922729492 71.495361328125 49.73481750488281 76.85643005371094 49.042877197265625 C 82.92060089111328 48.849178314208984 84.32588195800781 48.79150390625 89.080078125 50.97330856323242 C 95.568115234375 54.75361251831055 101.91627502441406 62.344783782958984 105.23816680908203 71.04348754882812 C 106.49801635742188 76.04911804199219 108.4325180053711 80.85578155517578 109.75215148925781 81.6499252319336 C 114.17615509033203 84.69026184082031 116.0579833984375 84.17643737792969 120.93050384521484 74.84626770019531 C 125.31827545166016 68.03998565673828 133.8762664794922 60.035579681396484 139.6140899658203 56.84164047241211 C 143.99871826171875 54.10866165161133 149.040283203125 54.09077835083008 152.91302490234375 56.10902786254883 C 156.38839721679688 58.10854721069336 171.5273895263672 71.4789047241211 172.504150390625 74.48249816894531 C 174.25965881347656 80.34309387207031 176.29043579101562 92.79173278808594 175.37136840820312 97.60995483398438 L 175.94918823242188 102.13784790039062 L 165.1497039794922 103.88563537597656 C 151.80491638183594 104.43438720703125 72.49227905273438 104.35586547851562 58.7901725769043 103.48285675048828" stroke-width="0.0" fill="rgb(249, 233, 227)" opacity="0.99073875"/>
    <path d="M 88.22013854980469 187.25802612304688 C 87.68032836914062 186.00880432128906 85.10826873779297 131.23825073242188 85.12293243408203 124.5158462524414 C 85.66654968261719 122.92898559570312 86.41059875488281 122.30607604980469 87.66893768310547 122.01427459716797 C 89.58113861083984 122.2361831665039 89.5272216796875 124.0263671875 90.51254272460938 154.4214324951172 C 91.22698974609375 176.54287719726562 91.37220001220703 187.097412109375 90.52448272705078 188.283935546875 C 89.62107849121094 188.47189331054688 89.39027404785156 188.43197631835938 88.22013854980469 187.25802612304688" stroke-width="1.0" fill="rgb(239, 51, 102)" opacity="0.9952743"/>
    <path d="M 100.70558166503906 187.66677856445312 C 100.19993591308594 186.95773315429688 99.80244445800781 171.48690795898438 99.21444702148438 153.2939453125 C 98.36341094970703 120.76322174072266 98.60477447509766 118.01423645019531 102.41407012939453 118.05452728271484 C 103.79360961914062 117.85649871826172 104.15872192382812 187.52297973632812 103.2506332397461 188.2907257080078 C 101.95172119140625 188.696044921875 101.36369323730469 188.3028564453125 100.70558166503906 187.66677856445312" stroke-width="1.0" fill="rgb(239, 57, 104)" opacity="0.99924076"/>
    <path d="M 67.31451416015625 187.43325805664062 C 66.87718200683594 186.7373809814453 65.59953308105469 172.89788818359375 64.13737487792969 157.41390991210938 C 62.77461624145508 141.26083374023438 61.26689147949219 125.46846771240234 60.97068786621094 122.15357971191406 C 60.74911117553711 117.42224884033203 61.096824645996094 116.49690246582031 62.70390319824219 115.4442367553711 C 63.37748718261719 115.55694580078125 64.31568908691406 115.20878601074219 65.16822814941406 115.5527114868164 C 65.45184326171875 115.85731506347656 66.69709777832031 132.00875854492188 68.12661743164062 151.07933044433594 C 69.79583740234375 175.85552978515625 70.43948364257812 187.4605712890625 69.3375244140625 187.85858154296875 C 68.47712707519531 188.60935974121094 67.94027709960938 188.50933837890625 67.31451416015625 187.43325805664062" stroke-width="1.0" fill="rgb(238, 54, 103)" opacity="0.9967604"/>
    <path d="M 122.00646209716797 188.23287963867188 C 121.06388092041016 187.236328125 121.13330841064453 127.4810791015625 121.70953369140625 121.24922943115234 C 122.99858093261719 117.33102416992188 123.34972381591797 117.01780700683594 124.680419921875 118.4927978515625 C 126.08424377441406 119.64366149902344 126.25907897949219 127.86166381835938 125.68919372558594 153.86358642578125 C 125.46426391601562 186.37232971191406 125.03128814697266 190.46926879882812 122.00646209716797 188.23287963867188" stroke-width="1.0" fill="rgb(236, 54, 103)" opacity="1.0"/>
    <path d="M 134.02195739746094 166.2936553955078 C 134.5376434326172 153.14947509765625 134.80307006835938 138.2587127685547 134.85043334960938 132.626953125 C 135.8898468017578 123.33668518066406 136.26683044433594 122.03575897216797 137.8387908935547 122.12638854980469 C 139.97572326660156 121.98358154296875 140.25059509277344 123.01716613769531 139.38818359375 140.2188720703125 C 137.8453369140625 181.65676879882812 137.244384765625 188.78305053710938 135.5777130126953 189.10955810546875 C 134.1516876220703 189.6788330078125 134.091064453125 184.61044311523438 134.02195739746094 166.2936553955078" stroke-width="1.0" fill="rgb(236, 53, 101)" opacity="1.0"/>
    <path d="M 156.0005340576172 189.014404296875 C 155.12875366210938 188.40518188476562 155.12625122070312 182.39010620117188 156.08746337890625 168.49452209472656 C 156.86351013183594 158.3813018798828 157.89797973632812 141.46157836914062 158.2981719970703 131.56227111816406 C 158.84181213378906 121.60221862792969 159.50628662109375 113.48950958251953 160.1186981201172 113.55419158935547 C 160.39263916015625 113.62075805664062 161.26651000976562 114.4848403930664 162.46971130371094 115.16168212890625 C 163.90304565429688 116.59259033203125 164.0015411376953 120.26490783691406 162.96771240234375 133.9520263671875 C 158.84597778320312 186.36119079589844 158.35284423828125 190.21755981445312 156.0005340576172 189.014404296875" stroke-width="1.0" fill="rgb(240, 54, 101)" opacity="0.9958861"/>
    <path d="M 85.5345458984375 114.096923828125 C 83.82792663574219 113.32096862792969 80.8927001953125 111.62641906738281 79.09650421142578 109.79564666748047 C 72.794921875 104.5427017211914 67.67063903808594 103.78984832763672 61.04856491088867 107.9923324584961 C 53.32020950317383 113.46814727783203 52.82126235961914 113.17356872558594 49.98741912841797 110.79549407958984 C 48.60618591308594 109.57363891601562 47.92485046386719 108.05486297607422 48.29947280883789 107.06730651855469 C 48.00194549560547 102.02214813232422 57.96944808959961 94.746826171875 66.48724365234375 93.3453598022461 C 72.98834228515625 92.53474426269531 79.49134063720703 94.98545837402344 85.07286834716797 100.60123443603516 L 88.5257568359375 104.85456085205078 L 92.42316436767578 101.08141326904297 C 99.09207916259766 95.30298614501953 104.9216537475586 93.11180877685547 113.20394897460938 93.01200103759766 C 120.8501205444336 93.32627868652344 126.29789733886719 95.4625473022461 132.14450073242188 100.60111999511719 L 135.3517303466797 103.97883605957031 L 139.10684204101562 100.04192352294922 C 146.51708984375 93.49163818359375 153.39520263671875 91.28402709960938 161.96615600585938 93.08660125732422 C 168.09786987304688 94.7056884765625 176.36294555664062 101.50391387939453 175.70126342773438 105.21190643310547 C 176.13128662109375 112.07231903076172 172.90623474121094 113.38777923583984 166.87252807617188 108.85894775390625 C 160.04718017578125 102.29267883300781 152.30125427246094 102.6307373046875 143.994873046875 110.36759948730469 C 137.22935485839844 116.10740661621094 132.3267364501953 116.46641540527344 126.80424499511719 111.2645492553711 C 117.04495239257812 102.93955993652344 107.90660858154297 103.11209106445312 98.01908874511719 111.49734497070312 C 93.46549224853516 115.52359008789062 89.59962463378906 115.99037170410156 85.5345458984375 114.096923828125" stroke-width="1.0" fill="rgb(242, 185, 103)" opacity="0.9920027"/>
  </g>
</svg>
