<?xml version="1.0" ?>
<svg xmlns="http://www.w3.org/2000/svg" version="1.1" width="224" height="224">
  <defs/>
  <g>
    <path d="M 100.99497985839844 195.40505981445312 C 86.84345245361328 193.32728576660156 68.58781433105469 190.3428955078125 66.6363525390625 189.75189208984375 C 64.12721252441406 188.36892700195312 63.33750534057617 187.26983642578125 62.784786224365234 182.14013671875 C 63.21694564819336 179.79129028320312 62.94099807739258 179.37469482421875 59.98024368286133 179.82302856445312 C 57.89241027832031 180.09677124023438 54.34813690185547 180.37840270996094 51.52880859375 180.86279296875 C 45.44410705566406 181.71246337890625 44.572662353515625 180.80792236328125 43.578887939453125 172.22398376464844 C 42.91767883300781 167.14727783203125 42.962799072265625 164.2713623046875 40.324440002441406 163.14779663085938 C 38.66542053222656 161.03736877441406 37.959739685058594 155.48268127441406 36.27051544189453 146.3131561279297 C 33.189208984375 133.35067749023438 32.073326110839844 133.67454528808594 32.21118927001953 117.6956558227539 C 32.43751525878906 101.21327209472656 33.210906982421875 100.82826232910156 35.48309326171875 91.27962493896484 C 38.57720184326172 78.42491149902344 41.822357177734375 68.61669921875 45.77509307861328 63.21063232421875 C 51.74982833862305 53.79856872558594 61.74420166015625 46.91178894042969 77.83171081542969 40.562652587890625 C 84.48906707763672 38.326759338378906 88.42752838134766 36.868896484375 89.81444549560547 34.274574279785156 C 96.24320983886719 28.654266357421875 96.53616333007812 28.0 111.62163543701172 28.912498474121094 L 124.7885971069336 28.56768798828125 L 129.9392547607422 31.279579162597656 C 131.92877197265625 32.789031982421875 134.29779052734375 34.72730255126953 134.96304321289062 35.80516815185547 C 134.73785400390625 37.206703186035156 139.15631103515625 38.60044860839844 144.0716094970703 40.26313781738281 C 169.30172729492188 50.10395812988281 178.31942749023438 58.9244499206543 184.56581115722656 78.95468139648438 C 190.3612518310547 95.61028289794922 191.92666625976562 114.34849548339844 190.62167358398438 128.96771240234375 C 189.59161376953125 138.18603515625 183.8287353515625 160.41012573242188 182.11032104492188 162.85372924804688 C 180.03860473632812 163.49179077148438 179.663330078125 167.27481079101562 179.4097900390625 171.9064178466797 C 179.24014282226562 176.17361450195312 178.124755859375 179.6887664794922 176.73611450195312 180.0938262939453 C 175.462646484375 181.3830108642578 174.63426208496094 181.326171875 169.3732147216797 180.6117706298828 C 159.54576110839844 179.54698181152344 159.6504669189453 178.8134002685547 160.0194549560547 183.27682495117188 C 159.9741973876953 186.17669677734375 158.7064208984375 188.11642456054688 157.7374267578125 189.13299560546875 C 155.45596313476562 190.54934692382812 128.26141357421875 195.26287841796875 114.89712524414062 196.0 C 108.08805084228516 195.6163787841797 102.59495544433594 195.69776916503906 100.99497985839844 195.40505981445312" stroke-width="1.0" fill="rgb(10, 0, 26)" opacity="0.99558645"/>
    <path d="M 111.28900909423828 70.66154479980469 C 110.9857406616211 69.98567199707031 110.18042755126953 64.96269226074219 109.41555786132812 59.247196197509766 C 108.8282699584961 53.53697204589844 107.55010986328125 46.168739318847656 106.63607025146484 42.971466064453125 C 105.86626434326172 39.734619140625 105.07982635498047 36.620849609375 105.03392028808594 36.12151336669922 C 105.08479309082031 35.429405212402344 106.98836517333984 35.184181213378906 111.7715072631836 35.19378662109375 C 118.00164031982422 35.152862548828125 118.55238342285156 35.399375915527344 118.11256408691406 36.50853729248047 C 117.0189208984375 39.63574981689453 114.6936264038086 51.0975341796875 113.56836700439453 59.148902893066406 C 112.58465576171875 64.17083740234375 111.96685028076172 68.88050842285156 112.22590637207031 69.8524398803711 C 111.8389892578125 71.12098693847656 111.57807922363281 71.41375732421875 111.28900909423828 70.66154479980469" stroke-width="1.0" fill="rgb(90, 21, 71)" opacity="0.9960051"/>
    <path d="M 123.58206939697266 186.1739501953125 C 123.36389923095703 184.90489196777344 123.04161071777344 181.7232208251953 122.9122314453125 178.88177490234375 C 122.30445098876953 174.52484130859375 122.2177963256836 174.33251953125 123.78021240234375 174.28817749023438 C 124.68750762939453 174.1473388671875 130.8466796875 173.55508422851562 137.86798095703125 172.92437744140625 C 145.1309356689453 172.23374938964844 151.50904846191406 171.61727905273438 152.21351623535156 171.5621795654297 C 153.18048095703125 172.21385192871094 152.90301513671875 173.56643676757812 152.96115112304688 177.7672576904297 C 153.58375549316406 184.6894989013672 154.82554626464844 183.51675415039062 139.4451904296875 185.98529052734375 C 133.68203735351562 187.00091552734375 127.82450866699219 187.85269165039062 126.39383697509766 188.16595458984375 C 124.45220184326172 188.26702880859375 123.62310791015625 188.11911010742188 123.58206939697266 186.1739501953125" stroke-width="1.0" fill="rgb(246, 232, 204)" opacity="0.9977727"/>
    <path d="M 164.965087890625 172.48065185546875 C 164.89395141601562 172.1952667236328 165.14773559570312 169.45663452148438 165.10617065429688 167.37142944335938 C 165.18238830566406 163.10279846191406 165.40650939941406 162.8226318359375 169.2521209716797 163.32420349121094 C 173.32275390625 163.03948974609375 173.25283813476562 163.47280883789062 172.18405151367188 170.5398406982422 C 172.19680786132812 173.7334747314453 171.8203125 174.05172729492188 168.82876586914062 173.5780029296875 C 166.63609313964844 173.80584716796875 165.30966186523438 173.28802490234375 164.965087890625 172.48065185546875" stroke-width="1.0" fill="rgb(243, 228, 199)" opacity="0.98339385"/>
    <path d="M 120.69776153564453 157.90591430664062 C 118.9884262084961 126.56586456298828 118.81394958496094 116.82014465332031 118.2273941040039 95.71460723876953 C 118.17506408691406 71.36933898925781 119.50062561035156 64.3031997680664 120.5660400390625 63.505245208740234 C 121.39508056640625 63.9498405456543 122.69760131835938 65.34664154052734 124.6118392944336 66.73967742919922 C 127.64481353759766 70.27686309814453 129.5242462158203 70.484130859375 130.95098876953125 67.08644104003906 C 132.23049926757812 64.3013687133789 134.73226928710938 53.90318298339844 135.45755004882812 48.333648681640625 C 135.96739196777344 43.429771423339844 135.79258728027344 43.960121154785156 146.28042602539062 48.10340881347656 C 164.35951232910156 55.483558654785156 172.61285400390625 63.02204132080078 177.87393188476562 79.58148193359375 C 184.81387329101562 101.3514404296875 186.3106231689453 124.54346466064453 179.39273071289062 148.4630126953125 C 177.00326538085938 159.10183715820312 177.71707153320312 158.4212646484375 171.97503662109375 157.46731567382812 C 168.66769409179688 157.32481384277344 166.07717895507812 156.6539306640625 164.48312377929688 156.88699340820312 C 164.36598205566406 156.53048706054688 165.2830352783203 152.99510192871094 165.9083251953125 149.0973358154297 C 167.41319274902344 139.48614501953125 167.61273193359375 132.4878692626953 166.12310791015625 125.60508728027344 C 163.61175537109375 114.08922576904297 156.6673583984375 99.50800323486328 154.7323455810547 99.1170883178711 C 153.78103637695312 99.13433837890625 153.97647094726562 117.24282836914062 155.88197326660156 139.28350830078125 C 156.64852905273438 150.65982055664062 157.16783142089844 161.18951416015625 157.52455139160156 163.34439086914062 L 157.25711059570312 165.0103759765625 L 141.68948364257812 166.25601196289062 C 133.5775909423828 167.0927276611328 125.49064636230469 167.70750427246094 123.83232116699219 167.9313201904297 L 121.14353942871094 168.15773010253906 L 120.69776153564453 157.90591430664062" stroke-width="1.0" fill="rgb(245, 230, 202)" opacity="0.9925237"/>
    <path d="M 123.61026000976562 57.363243103027344 L 120.76203155517578 55.790260314941406 L 122.00923156738281 48.75147247314453 C 122.73335266113281 45.26264953613281 123.6292724609375 40.861839294433594 124.37467193603516 39.09113311767578 L 125.15361785888672 35.8338623046875 L 129.69854736328125 39.824256896972656 L 128.71607971191406 49.278953552246094 C 127.96672058105469 54.07191467285156 127.14360046386719 58.36479187011719 126.57373809814453 58.89539337158203 C 126.18281555175781 59.037841796875 124.66934204101562 58.83941650390625 123.61026000976562 57.363243103027344" stroke-width="1.0" fill="rgb(244, 229, 202)" opacity="0.9899358"/>
    <path d="M 95.66626739501953 187.77992248535156 C 94.82450866699219 187.73793029785156 89.31123352050781 186.82693481445312 83.61580657958984 185.9046630859375 C 68.36592102050781 183.5137176513672 69.55944061279297 184.57688903808594 70.3706283569336 177.411865234375 C 70.1707763671875 170.37242126464844 68.13429260253906 171.12106323242188 87.10022735595703 173.23861694335938 C 94.46856689453125 173.8243865966797 100.38395690917969 174.17710876464844 101.1207504272461 174.02902221679688 C 101.5193862915039 174.56011962890625 100.92762756347656 179.31698608398438 99.93083953857422 185.85897827148438 C 99.80213928222656 188.57122802734375 98.87030029296875 188.63766479492188 95.66626739501953 187.77992248535156" stroke-width="1.0" fill="rgb(246, 231, 205)" opacity="0.99730045"/>
    <path d="M 50.361572265625 168.96926879882812 L 49.75897216796875 163.69964599609375 L 57.20204162597656 162.9778594970703 L 57.465660095214844 167.58834838867188 C 57.75101852416992 169.7353057861328 57.95815658569336 172.3334197998047 57.877105712890625 172.67063903808594 C 57.316619873046875 173.19696044921875 55.992637634277344 173.514892578125 54.02111053466797 173.63299560546875 L 50.960899353027344 173.91671752929688 L 50.361572265625 168.96926879882812" stroke-width="1.0" fill="rgb(243, 228, 200)" opacity="0.98498094"/>
    <path d="M 83.56722259521484 166.40875244140625 C 74.001220703125 165.35447692871094 66.19349670410156 164.79998779296875 65.72148132324219 165.00408935546875 C 65.67066955566406 164.61309814453125 66.49551391601562 155.0583953857422 67.02134704589844 143.63548278808594 C 67.95137023925781 132.08059692382812 69.12068176269531 117.41637420654297 69.05989074707031 110.77796173095703 L 69.14593505859375 98.90885162353516 L 67.6118392944336 101.53944396972656 C 65.58036041259766 103.67603302001953 61.34308624267578 112.60650634765625 58.63740158081055 121.21774291992188 C 56.79636001586914 127.90413665771484 56.382469177246094 129.53060913085938 56.19502258300781 138.4560546875 C 56.051490783691406 143.59275817871094 57.074302673339844 149.37289428710938 57.7254638671875 152.1260986328125 C 58.951107025146484 157.55287170410156 58.93305587768555 157.0466766357422 51.51007843017578 157.64761352539062 L 45.69792175292969 158.22817993164062 L 44.684661865234375 153.7638702392578 C 38.84459686279297 133.0504150390625 37.41315460205078 114.06388092041016 41.356300354003906 96.32620239257812 C 46.0865478515625 72.18821716308594 52.73882293701172 60.34605026245117 66.58345031738281 52.91255187988281 C 71.21040344238281 49.95109558105469 84.2957992553711 45.10084533691406 86.31288146972656 44.5870361328125 C 86.55722045898438 44.73602294921875 87.31260681152344 46.303558349609375 87.62773895263672 47.61143493652344 C 88.46343231201172 53.96466064453125 91.60008239746094 65.88092041015625 92.62418365478516 67.89683532714844 C 94.38615417480469 70.49615478515625 95.73760223388672 70.08921813964844 99.5539321899414 66.46470642089844 L 102.92344665527344 63.10365295410156 L 103.7686538696289 68.20915222167969 C 105.649658203125 75.98138427734375 104.5762710571289 126.44944763183594 103.49313354492188 147.20208740234375 C 102.74388122558594 164.7357635498047 102.244873046875 168.9922637939453 101.49153900146484 168.12049865722656 C 100.65034484863281 167.77914428710938 92.76800537109375 167.23391723632812 83.56722259521484 166.40875244140625" stroke-width="1.0" fill="rgb(245, 230, 202)" opacity="0.99263835"/>
    <path d="M 95.84001159667969 56.184059143066406 C 95.2228775024414 54.44390869140625 94.69993591308594 50.088539123535156 94.28643798828125 46.32557678222656 C 93.59101867675781 40.182373046875 93.65179443359375 39.640907287597656 95.66168212890625 37.86731719970703 C 96.29685974121094 36.814453125 97.51067352294922 36.162635803222656 97.8900146484375 36.560455322265625 C 98.9045181274414 37.406700134277344 101.81830596923828 51.49041748046875 101.95111846923828 54.647735595703125 C 101.74166870117188 55.877769470214844 100.75177001953125 57.202919006347656 99.2683334350586 57.987457275390625 C 96.43022918701172 60.20343780517578 96.75969696044922 60.00179672241211 95.84001159667969 56.184059143066406" stroke-width="1.0" fill="rgb(245, 228, 202)" opacity="0.98914135"/>
    <path d="M 106.45568084716797 189.0240020751953 C 106.44586181640625 188.4658660888672 107.10453033447266 183.93594360351562 107.74403381347656 178.96331787109375 C 108.36156463623047 174.07034301757812 109.25300598144531 163.45530700683594 109.75102233886719 155.2744903564453 C 111.61674499511719 121.99301147460938 111.53189086914062 122.8038101196289 112.81719970703125 144.22525024414062 C 113.65038299560547 160.8426513671875 115.11700439453125 176.9435577392578 116.79764556884766 187.10545349121094 L 117.22472381591797 189.95730590820312 L 111.9297103881836 189.91746520996094 C 107.98056030273438 190.08856201171875 106.50077819824219 189.77908325195312 106.45568084716797 189.0240020751953" stroke-width="1.0" fill="rgb(89, 20, 70)" opacity="0.9954474"/>
  </g>
</svg>
