<?xml version="1.0" ?>
<svg xmlns="http://www.w3.org/2000/svg" version="1.1" width="224" height="224">
  <defs/>
  <g>
    <path d="M 111.93476867675781 47.86262893676758 C 111.93476867675781 47.86262893676758 111.93476867675781 47.86262893676758 111.93476867675781 47.86262893676758 C 104.00518035888672 48.163028717041016 97.50833129882812 52.12057876586914 93.6184310913086 59.03782653808594 C 93.6184310913086 59.03782653808594 93.6184310913086 59.03782653808594 93.6184310913086 59.03782653808594 C 91.55187225341797 58.655277252197266 89.59162902832031 58.55219268798828 87.53472900390625 59.11594772338867 C 80.15278625488281 61.13740158081055 77.09724426269531 69.09517669677734 79.8499755859375 75.85135650634766 C 79.8499755859375 75.85135650634766 79.8499755859375 75.85135650634766 79.8499755859375 75.85135650634766 C 76.62046813964844 76.10263061523438 73.58345794677734 76.80731964111328 70.72442626953125 78.38260650634766 C 60.775794982910156 83.8638916015625 57.12025833129883 96.84552001953125 62.79966735839844 106.69670104980469 C 64.8348159790039 110.22579193115234 67.79371643066406 112.82549285888672 71.32200622558594 114.78816223144531 C 71.32200622558594 114.78816223144531 71.32200622558594 114.78816223144531 71.32200622558594 114.78816223144531 C 66.89815521240234 118.86328887939453 66.58808898925781 125.99557495117188 71.99689483642578 129.5294952392578 C 73.3426513671875 130.40814208984375 74.69485473632812 130.7246551513672 76.25242614746094 130.9815673828125 C 98.46428680419922 129.68653869628906 120.67615509033203 128.392333984375 142.88722229003906 127.09811401367188 C 143.56614685058594 135.42312622070312 144.2442626953125 143.74815368652344 144.92236328125 152.07318115234375 C 152.1166534423828 159.16278076171875 159.3109588623047 166.25234985351562 166.5052490234375 173.3419647216797 C 167.98388671875 172.33204650878906 169.4633331298828 171.32131958007812 170.94198608398438 170.31138610839844 C 172.7910919189453 168.38253784179688 174.65147399902344 166.4545135498047 176.19937133789062 164.27117919921875 C 171.1956787109375 158.01593017578125 166.19195556640625 151.7606964111328 161.18826293945312 145.50546264648438 C 160.86448669433594 140.17074584960938 160.54074096679688 134.83682250976562 160.2169952392578 129.50291442871094 C 160.09860229492188 128.31259155273438 159.91256713867188 127.15447998046875 159.69110107421875 125.9786605834961 C 159.69110107421875 125.9786605834961 159.69110107421875 125.9786605834961 159.69110107421875 125.9786605834961 C 162.8175048828125 125.25865936279297 165.69183349609375 124.11827850341797 168.2681884765625 122.16607666015625 C 177.42031860351562 115.23191833496094 179.07855224609375 101.6865463256836 171.8311004638672 92.7687759399414 C 169.18710327148438 89.51592254638672 165.74900817871094 87.3921890258789 161.8236846923828 86.03837585449219 C 161.8236846923828 86.03837585449219 161.8236846923828 86.03837585449219 161.8236846923828 86.03837585449219 C 160.94825744628906 80.62715148925781 156.72010803222656 77.02316284179688 151.12928771972656 77.78180694580078 C 151.12928771972656 77.78180694580078 151.12928771972656 77.78180694580078 151.12928771972656 77.78180694580078 C 151.48606872558594 70.28388977050781 145.396728515625 63.85871887207031 137.68539428710938 64.78890991210938 C 135.75413513183594 65.02246856689453 134.10958862304688 65.76017761230469 132.45457458496094 66.7354736328125 C 132.45457458496094 66.7354736328125 132.45457458496094 66.7354736328125 132.45457458496094 66.7354736328125 C 131.13861083984375 55.9178581237793 122.81842041015625 48.28061294555664 111.93476867675781 47.86262893676758 C 111.93476867675781 47.86262893676758 111.93476867675781 47.86262893676758 111.93476867675781 47.86262893676758" stroke-width="0.0" fill="rgb(215, 215, 215)" opacity="1.0"/>
    <path d="M 64.36609649658203 59.66117477416992 C 64.36609649658203 59.66117477416992 64.36609649658203 59.66117477416992 64.36609649658203 59.66117477416992 C 65.66192626953125 62.06276321411133 66.22970581054688 64.51348114013672 65.1682357788086 67.15425872802734 C 62.813358306884766 73.01004028320312 54.61478042602539 73.87741088867188 51.08085250854492 68.65625762939453 C 47.54692840576172 63.43590545654297 51.398162841796875 56.14899444580078 57.70817565917969 56.1361083984375 C 60.5543212890625 56.12966537475586 62.61765670776367 57.56562423706055 64.36609649658203 59.66117477416992 C 64.36609649658203 59.66117477416992 64.36609649658203 59.66117477416992 64.36609649658203 59.66117477416992" stroke-width="0.0" fill="rgb(215, 215, 215)" opacity="1.0"/>
    <path d="M 153.61061096191406 121.46943664550781 C 153.61061096191406 121.46943664550781 153.61061096191406 121.46943664550781 153.61061096191406 121.46943664550781 C 156.77487182617188 120.9628677368164 159.71604919433594 120.02381896972656 162.41561889648438 118.25202178955078 C 171.9752655029297 111.98067474365234 174.58543395996094 98.64710998535156 168.03945922851562 89.2549819946289 C 165.33908081054688 85.3803939819336 161.53375244140625 82.83222961425781 157.11634826660156 81.30928802490234 C 157.11634826660156 81.30928802490234 157.11634826660156 81.30928802490234 157.11634826660156 81.30928802490234 C 156.24090576171875 75.89726257324219 152.0127716064453 72.29407501220703 146.4219512939453 73.05192565917969 C 146.4219512939453 73.05192565917969 146.4219512939453 73.05192565917969 146.4219512939453 73.05192565917969 C 146.7787322998047 65.5548095703125 140.68939208984375 59.129638671875 132.97805786132812 60.05982971191406 C 131.0467987060547 60.29338455200195 129.40306091308594 61.03109359741211 127.74803161621094 62.006385803222656 C 127.74803161621094 62.006385803222656 127.74803161621094 62.006385803222656 127.74803161621094 62.006385803222656 C 127.36951446533203 58.89849853515625 126.57221221923828 55.98550796508789 124.9687271118164 53.26982498168945 C 119.32234191894531 43.70294189453125 106.64756774902344 40.3163948059082 96.99772644042969 45.85164260864258 C 93.480712890625 47.869075775146484 90.8818130493164 50.80622863769531 88.91189575195312 54.30874252319336 C 88.91189575195312 54.30874252319336 88.91189575195312 54.30874252319336 88.91189575195312 54.30874252319336 C 86.84534454345703 53.927001953125 84.88509368896484 53.8231086730957 82.82820129394531 54.386863708496094 C 75.44544982910156 56.408321380615234 72.38990783691406 64.36609649658203 75.14183044433594 71.12226867675781 C 75.14183044433594 71.12226867675781 75.14183044433594 71.12226867675781 75.14183044433594 71.12226867675781 C 71.91313171386719 71.37354278564453 68.87531280517578 72.07823944091797 66.01708984375 73.65351867675781 C 56.06926345825195 79.13481140136719 52.41211700439453 92.11563110351562 58.09233093261719 101.96681213378906 C 60.127479553222656 105.49590301513672 63.087181091308594 108.09561157226562 66.61466979980469 110.05908203125 C 66.61466979980469 110.05908203125 66.61466979980469 110.05908203125 66.61466979980469 110.05908203125 C 62.19081497192383 114.13420867919922 61.8807487487793 121.26648712158203 67.28955841064453 124.80042266845703 C 68.63450622558594 125.67906188964844 69.98670959472656 125.99557495117188 71.54508972167969 126.25167083740234 C 98.89999389648438 124.65786743164062 126.25489044189453 123.06405639648438 153.61061096191406 121.46943664550781" stroke-width="0.0" fill="rgb(73, 167, 254)" opacity="1.0"/>
    <path d="M 180.15451049804688 71.5241470336914 C 180.15451049804688 71.5241470336914 180.15451049804688 71.5241470336914 180.15451049804688 71.5241470336914 C 182.11074829101562 72.27635192871094 183.6658935546875 73.30078125 184.31097412109375 75.4293441772461 C 185.570556640625 79.5858154296875 181.73220825195312 83.67866516113281 177.5040740966797 82.67437744140625 C 173.27432250976562 81.6684799194336 171.69015502929688 76.28544616699219 174.68609619140625 73.14051055908203 C 176.22032165527344 71.52978515625 178.06942749023438 71.31555938720703 180.15451049804688 71.5241470336914 C 180.15451049804688 71.5241470336914 180.15451049804688 71.5241470336914 180.15451049804688 71.5241470336914" stroke-width="0.0" fill="rgb(216, 216, 216)" opacity="1.0"/>
    <path d="M 53.55653762817383 50.475223541259766 C 53.55653762817383 50.475223541259766 53.55653762817383 50.475223541259766 53.55653762817383 50.475223541259766 C 57.41502380371094 50.755489349365234 60.78465270996094 52.43949890136719 62.625709533691406 56.016109466552734 C 66.04608154296875 62.66114807128906 60.940086364746094 70.74858093261719 53.55653762817383 70.74858093261719 C 46.17217254638672 70.74858093261719 41.071014404296875 62.66033935546875 44.489776611328125 56.016109466552734 C 46.33002471923828 52.43949890136719 49.69805145263672 50.75629425048828 53.55653762817383 50.475223541259766 C 53.55653762817383 50.475223541259766 53.55653762817383 50.475223541259766 53.55653762817383 50.475223541259766" stroke-width="0.0" fill="rgb(53, 56, 79)" opacity="1.0"/>
    <path d="M 136.80030822753906 36.080997467041016 C 136.80030822753906 36.080997467041016 136.80030822753906 36.080997467041016 136.80030822753906 36.080997467041016 C 138.7613525390625 36.820316314697266 140.3229522705078 37.83427047729492 140.9817352294922 39.95881271362305 C 142.26870727539062 44.10964584350586 138.45773315429688 48.22343444824219 134.2223358154297 47.24652862548828 C 129.98614501953125 46.269622802734375 128.36656188964844 40.9002799987793 131.34156799316406 37.734405517578125 C 132.864501953125 36.11240768432617 134.71360778808594 35.886905670166016 136.80030822753906 36.080997467041016 C 136.80030822753906 36.080997467041016 136.80030822753906 36.080997467041016 136.80030822753906 36.080997467041016" stroke-width="0.0" fill="rgb(216, 216, 216)" opacity="1.0"/>
    <path d="M 86.79541015625 72.3641357421875 C 85.55435180664062 73.0325927734375 84.31328582763672 73.70104217529297 83.07302856445312 74.37030029296875 C 82.21290588378906 75.2296142578125 81.35358428955078 76.08893585205078 80.4942626953125 76.94825744628906 C 80.3025894165039 77.80757904052734 80.11091613769531 78.66690063476562 79.91842651367188 79.52621459960938 C 79.91842651367188 80.38634490966797 79.91842651367188 81.24566650390625 79.91842651367188 82.10498809814453 C 77.34046936035156 84.30200958251953 74.76170349121094 86.49903869628906 72.18293762207031 88.69606018066406 C 71.89703369140625 89.65042114257812 71.61112976074219 90.60557556152344 71.32522583007812 91.55992889404297 C 72.08950805664062 92.7067642211914 72.85380554199219 93.85359954833984 73.61727905273438 95.00043487548828 C 74.76411437988281 96.24149322509766 75.91094970703125 97.48255920410156 77.05697631835938 98.72361755371094 C 75.52920532226562 99.77462005615234 74.00143432617188 100.82561492919922 72.47286224365234 101.8774185180664 C 71.04013061523438 103.02344512939453 69.60739135742188 104.17028045654297 68.17465209960938 105.3163070678711 C 67.887939453125 106.0805892944336 67.60203552246094 106.84488677978516 67.3153305053711 107.60916900634766 C 68.17546081542969 109.23278045654297 69.03477478027344 110.85638427734375 69.8948974609375 112.47999572753906 C 77.438720703125 124.99128723144531 84.98334503173828 137.5025634765625 92.5279769897461 150.01467895507812 C 94.723388671875 153.16685485839844 96.9188003540039 156.31983947753906 99.11502075195312 159.47283935546875 C 100.54776000976562 161.2864990234375 101.98049926757812 163.10098266601562 103.41323852539062 164.91465759277344 C 105.60945892333984 166.34820556640625 107.80487060546875 167.78094482421875 110.0010986328125 169.21368408203125 C 113.34334564208984 171.12319946289062 116.68559265136719 173.03271484375 120.02864837646484 174.9422149658203 C 122.93680572509766 181.13140869140625 125.84577178955078 187.32142639160156 128.75393676757812 193.5106201171875 C 145.46115112304688 190.0330810546875 160.38128662109375 181.69598388671875 172.14599609375 169.342529296875 C 166.42633056640625 162.7079620361328 160.70663452148438 156.0734100341797 154.98696899414062 149.43882751464844 C 154.7952880859375 140.55569458007812 154.60362243652344 131.6725616455078 154.4119415283203 122.79022979736328 C 152.9792022705078 119.16046905517578 151.5464630126953 115.53070068359375 150.1137237548828 111.90093994140625 C 146.48397827148438 103.87793731689453 142.8542022705078 95.85491943359375 139.2244415283203 87.83110809326172 C 138.17263793945312 87.06681823730469 137.12164306640625 86.30332946777344 136.07064819335938 85.53904724121094 C 135.0196533203125 85.824951171875 133.96864318847656 86.11085510253906 132.91766357421875 86.39675903320312 C 131.77081298828125 86.87513732910156 130.6239776611328 87.35352325439453 129.47714233398438 87.83110809326172 C 129.19125366210938 88.6904296875 128.904541015625 89.55055236816406 128.61863708496094 90.40987396240234 C 128.71446228027344 92.60529327392578 128.80950927734375 94.80070495605469 128.904541015625 96.9969253540039 C 129.57298278808594 99.09811401367188 130.2422332763672 101.19930267333984 130.9106903076172 103.3012924194336 C 131.77001953125 105.59335327148438 132.62933349609375 107.88541412353516 133.48866271972656 110.1774673461914 C 131.77001953125 108.84056854248047 130.05136108398438 107.50286865234375 128.33192443847656 106.16596221923828 C 121.9325180053711 96.32847595214844 115.53311920166016 86.49018096923828 109.1329116821289 76.65269470214844 C 107.7960205078125 75.88839721679688 106.45830535888672 75.12492370605469 105.12059783935547 74.36063385009766 C 103.01860809326172 75.79337310791016 100.91742706298828 77.22610473632812 98.81623840332031 78.65884399414062 C 97.76443481445312 79.23226165771484 96.71343994140625 79.80567932128906 95.66243743896484 80.37909698486328 C 94.04366302490234 77.70771789550781 92.42568969726562 75.0355224609375 90.80772399902344 72.3641357421875 C 89.47001647949219 72.3641357421875 88.13311767578125 72.3641357421875 86.79541015625 72.3641357421875" stroke-width="0.0" fill="rgb(252, 205, 182)" opacity="1.0"/>
    <path d="M 86.0287094116211 53.953582763671875 C 86.22360229492188 54.591426849365234 86.41769409179688 55.22846603393555 86.61259460449219 55.86550521850586 C 79.05830383300781 57.43354797363281 78.14179992675781 65.97520446777344 78.68864440917969 72.26669311523438 C 77.06744384765625 70.7373046875 75.44625854492188 69.20873260498047 73.82425689697266 67.67935180664062 C 74.10291290283203 65.8713150024414 74.38236999511719 64.0624771118164 74.66102600097656 62.25444030761719 C 75.54129028320312 60.539825439453125 76.42235565185547 58.82521057128906 77.3026123046875 57.110595703125 C 79.06314086914062 56.18442916870117 80.824462890625 55.25746154785156 82.5849838256836 54.33049011230469 C 83.73262023925781 54.20484924316406 84.88026428222656 54.07921600341797 86.0287094116211 53.953582763671875" stroke-width="0.0" fill="rgb(254, 254, 254)" opacity="1.0"/>
    <path d="M 111.2840347290039 43.63690185546875 C 106.76676177978516 44.401187896728516 102.2494888305664 45.164669036865234 97.73141479492188 45.928958892822266 C 96.61920928955078 46.69324493408203 95.50700378417969 47.45753479003906 94.3947982788086 48.221824645996094 C 92.72769927978516 50.02985763549805 91.05979919433594 51.837894439697266 89.3927001953125 53.645931243896484 C 90.64342498779297 54.75652313232422 91.89495849609375 55.867923736572266 93.14649200439453 56.978515625 C 94.62110900878906 54.853973388671875 96.07075500488281 52.90016555786133 98.07127380371094 51.23065185546875 C 102.79713439941406 47.28760528564453 109.66203308105469 45.618892669677734 115.66358947753906 47.181297302246094 C 114.20426940917969 45.99982833862305 112.74415588378906 44.818363189697266 111.2840347290039 43.63690185546875" stroke-width="0.0" fill="rgb(254, 254, 254)" opacity="1.0"/>
    <path d="M 175.90542602539062 65.08930969238281 C 175.90542602539062 65.08930969238281 175.90542602539062 65.08930969238281 175.90542602539062 65.08930969238281 C 178.61465454101562 65.33816528320312 180.8656463623047 66.25627899169922 182.45623779296875 68.59504699707031 C 185.93377685546875 73.70748138427734 181.98831176757812 80.77613830566406 175.90542602539062 80.77613830566406 C 169.82333374023438 80.77613830566406 165.87948608398438 73.70828247070312 169.3546142578125 68.59585571289062 C 170.94439697265625 66.25627899169922 173.19619750976562 65.33816528320312 175.90542602539062 65.08930969238281 C 175.90542602539062 65.08930969238281 175.90542602539062 65.08930969238281 175.90542602539062 65.08930969238281" stroke-width="0.0" fill="rgb(52, 55, 79)" opacity="1.0"/>
    <path d="M 61.580352783203125 60.61311340332031 C 61.580352783203125 60.61311340332031 61.580352783203125 60.61311340332031 61.580352783203125 60.61311340332031 C 61.3065299987793 63.328792572021484 60.40210723876953 65.67400360107422 58.042396545410156 67.26459503173828 C 52.809967041015625 70.79126739501953 45.535133361816406 66.91748046875 45.535133361816406 60.61311340332031 C 45.535133361816406 54.30793762207031 52.80835723876953 50.43012619018555 58.042396545410156 53.958412170410156 C 60.40291213989258 55.5498046875 61.3065299987793 57.89743423461914 61.580352783203125 60.61311340332031 C 61.580352783203125 60.61311340332031 61.580352783203125 60.61311340332031 61.580352783203125 60.61311340332031" stroke-width="0.0" fill="rgb(52, 55, 79)" opacity="1.0"/>
    <path d="M 132.5882568359375 29.652603149414062 C 132.5882568359375 29.652603149414062 132.5882568359375 29.652603149414062 132.5882568359375 29.652603149414062 C 135.29669189453125 29.901458740234375 137.5500946044922 30.818767547607422 139.13906860351562 33.15834045410156 C 142.6134033203125 38.27157974243164 138.67115783691406 45.33943176269531 132.5882568359375 45.33943176269531 C 126.50536346435547 45.33943176269531 122.56392669677734 38.270774841308594 126.0374526977539 33.15834045410156 C 127.62723541259766 30.818767547607422 129.87982177734375 29.901458740234375 132.5882568359375 29.652603149414062 C 132.5882568359375 29.652603149414062 132.5882568359375 29.652603149414062 132.5882568359375 29.652603149414062" stroke-width="0.0" fill="rgb(53, 55, 79)" opacity="1.0"/>
    <path d="M 80.3557357788086 76.43524169921875 C 81.1449966430664 76.48275756835938 81.93424987792969 76.5302734375 82.72350311279297 76.57698822021484 C 89.92906951904297 87.29714965820312 97.13545227050781 98.01731872558594 104.34101867675781 108.73748016357422 C 105.24462890625 110.43276977539062 105.78824615478516 112.07731628417969 105.24946594238281 114.010986328125 C 105.14154052734375 114.3975601196289 104.49564361572266 116.24667358398438 103.70478057861328 115.88506317138672 C 102.71015930175781 115.43003845214844 101.88143920898438 114.06655883789062 101.25647735595703 113.24589538574219 C 99.42750549316406 110.84591674804688 97.76040649414062 108.31869506835938 96.10861206054688 105.79469299316406 C 90.47671508789062 97.18940734863281 85.14683532714844 88.37714385986328 79.91520690917969 79.52299499511719 C 80.06259155273438 78.49374389648438 80.20916748046875 77.46449279785156 80.3557357788086 76.43524169921875" stroke-width="0.0" fill="rgb(254, 253, 253)" opacity="1.0"/>
    <path d="M 100.09917449951172 79.00836944580078 C 105.59174346923828 87.13446807861328 111.08349609375 95.26056671142578 116.57606506347656 103.38666534423828 C 117.47887420654297 105.08113861083984 118.02410125732422 106.72649383544922 117.48451232910156 108.65936279296875 C 117.35807037353516 109.11278533935547 116.71619415283203 110.92967224121094 115.86412811279297 110.52216339111328 C 115.0458755493164 110.1307601928711 114.3427963256836 109.09828186035156 113.8104476928711 108.42741394042969 C 112.2585220336914 106.47119140625 110.86846923828125 104.38208770751953 109.49452209472656 102.29861450195312 C 105.00463104248047 95.49089813232422 100.80064392089844 88.48344421386719 96.69410705566406 81.43814086914062 C 97.04202270507812 80.99842071533203 97.38993835449219 80.55789184570312 97.73704528808594 80.11815643310547 C 98.52469635009766 79.74849700927734 99.31153106689453 79.3780288696289 100.09917449951172 79.00836944580078" stroke-width="0.0" fill="rgb(254, 253, 253)" opacity="1.0"/>
    <path d="M 68.58941650390625 104.37081909179688 C 69.26832580566406 104.41913604736328 69.94805908203125 104.4666519165039 70.6269760131836 104.51496887207031 C 81.0765380859375 121.22138977050781 91.52690887451172 137.927001953125 101.97647094726562 154.6334228515625 C 104.55523681640625 158.42828369140625 107.68890380859375 161.35496520996094 111.65208435058594 163.6671600341797 C 114.71245574951172 165.3398895263672 117.77283477783203 167.0126190185547 120.83320617675781 168.68536376953125 C 122.67184448242188 169.8877716064453 123.8283462524414 171.12078857421875 124.91477966308594 173.0302734375 C 127.94696807861328 179.51988220214844 130.97915649414062 186.00868225097656 134.01133728027344 192.49749755859375 C 131.71766662597656 192.91465759277344 129.4248046875 193.33184814453125 127.13113403320312 193.74981689453125 C 124.28659057617188 187.07418823242188 121.44206237792969 180.39852905273438 118.59671783447266 173.722900390625 C 114.283203125 171.71029663085938 109.96887969970703 169.69769287109375 105.65536499023438 167.6859130859375 C 102.73592376708984 164.07144165039062 99.81649017333984 160.45779418945312 96.89786529541016 156.84332275390625 C 87.03541564941406 140.43006896972656 77.17295837402344 124.01679992675781 67.3096923828125 107.60272979736328 C 67.73652648925781 106.52515411376953 68.16256713867188 105.4483871459961 68.58941650390625 104.37081909179688" stroke-width="0.0" fill="rgb(254, 254, 254)" opacity="1.0"/>
    <path d="M 136.33157348632812 70.00523376464844 C 137.6056671142578 70.4288558959961 138.87893676757812 70.85247802734375 140.1522216796875 71.2761001586914 C 142.18978881835938 72.89004516601562 144.2273406982422 74.50398254394531 146.26490783691406 76.11873626708984 C 145.96853637695312 77.26476287841797 145.67135620117188 78.4115982055664 145.37498474121094 79.55762481689453 C 145.41685485839844 80.2365493774414 145.458740234375 80.91466522216797 145.5006103515625 81.5927734375 C 147.7926788330078 83.12135314941406 150.08473205566406 84.64912414550781 152.37759399414062 86.17689514160156 C 153.0565185546875 87.23916625976562 153.73623657226562 88.30062866210938 154.4151611328125 89.36209869384766 C 152.59182739257812 91.96340942382812 150.76768493652344 94.56473541259766 148.9443359375 97.16685485839844 C 151.53277587890625 98.98052978515625 154.1212158203125 100.79500579833984 156.71044921875 102.60948944091797 C 157.3466796875 103.45833587646484 157.98291015625 104.30718994140625 158.619140625 105.15684509277344 C 156.28359985351562 109.69828033447266 153.9488525390625 114.23971557617188 151.61331176757812 118.78114318847656 C 142.48614501953125 116.44640350341797 133.35897827148438 114.11085510253906 124.23182678222656 111.77530670166016 C 120.20099639892578 104.13484191894531 116.17015838623047 96.49356842041016 112.1385269165039 88.85311126708984 C 112.30764770507812 86.30575561523438 112.47677612304688 83.75920104980469 112.64509582519531 81.21183776855469 C 114.47003936767578 78.83522033691406 116.29499053955078 76.45779418945312 118.11994171142578 74.0811767578125 C 119.38999938964844 73.98533630371094 120.6600570678711 73.89030456542969 121.93010711669922 73.79446411132812 C 123.67532348632812 75.07820892333984 125.42053985595703 76.36195373535156 127.16576385498047 77.64649963378906 C 128.05889892578125 78.14341735839844 128.95204162597656 78.64031982421875 129.84439086914062 79.1372299194336 C 132.0067901611328 76.09296417236328 134.169189453125 73.04949951171875 136.33157348632812 70.00523376464844" stroke-width="0.0" fill="rgb(252, 205, 181)" opacity="1.0"/>
    <path d="M 74.79955291748047 87.97526550292969 C 77.11576843261719 91.0791244506836 79.43199157714844 94.18299102783203 81.74821472167969 97.28604888916016 C 81.09989929199219 98.4916763305664 80.45077514648438 99.69730377197266 79.80245971679688 100.90211486816406 C 77.06986999511719 97.10323333740234 74.33727264404297 93.30353546142578 71.60548400878906 89.50383758544922 C 72.67017364501953 88.9948501586914 73.73486328125 88.48505401611328 74.79955291748047 87.97526550292969" stroke-width="0.0" fill="rgb(255, 254, 254)" opacity="1.0"/>
    <path d="M 179.95639038085938 68.88336944580078 C 179.95639038085938 68.88336944580078 179.95639038085938 68.88336944580078 179.95639038085938 68.88336944580078 C 181.22886657714844 70.54885864257812 182.01651000976562 72.23528289794922 181.44873046875 74.38640594482422 C 180.34056091308594 78.58878326416016 174.92771911621094 80.05615234375 171.85365295410156 76.9828872680664 C 168.7803955078125 73.90962982177734 170.2517852783203 68.49840545654297 174.45254516601562 67.39022827148438 C 176.6036834716797 66.82325744628906 178.2908935546875 67.61170196533203 179.95639038085938 68.88336944580078 C 179.95639038085938 68.88336944580078 179.95639038085938 68.88336944580078 179.95639038085938 68.88336944580078" stroke-width="0.0" fill="rgb(52, 55, 79)" opacity="1.0"/>
    <path d="M 53.55653762817383 54.703372955322266 C 53.55653762817383 54.703372955322266 53.55653762817383 54.703372955322266 53.55653762817383 54.703372955322266 C 51.38044738769531 54.973167419433594 49.591739654541016 55.66175079345703 48.41832733154297 57.66709899902344 C 46.149627685546875 61.54008483886719 49.13188171386719 66.521240234375 53.55653762817383 66.521240234375 C 57.97957992553711 66.52043914794922 60.96666717529297 61.54169464111328 58.6971549987793 57.66709899902344 C 57.522132873535156 55.66255569458008 55.73342514038086 54.973167419433594 53.55653762817383 54.703372955322266 C 53.55653762817383 54.703372955322266 53.55653762817383 54.703372955322266 53.55653762817383 54.703372955322266" stroke-width="0.0" fill="rgb(72, 167, 254)" opacity="1.0"/>
    <path d="M 136.64002990722656 33.445858001708984 C 136.64002990722656 33.445858001708984 136.64002990722656 33.445858001708984 136.64002990722656 33.445858001708984 C 137.910888671875 35.11134719848633 138.69692993164062 36.798580169677734 138.13075256347656 38.948890686035156 C 137.02337646484375 43.15207290649414 131.6097412109375 44.62024688720703 128.53648376464844 41.546180725097656 C 125.46403503417969 38.47291946411133 126.93462371826172 33.060890197753906 131.13458251953125 31.95351791381836 C 133.2864990234375 31.385746002197266 134.97373962402344 32.174190521240234 136.64002990722656 33.445858001708984 C 136.64002990722656 33.445858001708984 136.64002990722656 33.445858001708984 136.64002990722656 33.445858001708984" stroke-width="0.0" fill="rgb(52, 55, 79)" opacity="1.0"/>
    <path d="M 89.94598388671875 83.82846069335938 C 88.99163055419922 84.49691009521484 88.03646850585938 85.16535949707031 87.08131408691406 85.83460998535156 C 81.82794189453125 98.43932342529297 76.57537078857422 111.04403686523438 71.32200622558594 123.64875030517578 C 71.22697448730469 131.86264038085938 71.13113403320312 140.0773162841797 71.03610229492188 148.29119873046875 C 65.45333862304688 155.48146057128906 59.87137222290039 162.67172241210938 54.28860855102539 169.86119079589844 C 66.09843444824219 182.04550170898438 80.99842071533203 190.22555541992188 97.6331558227539 193.59197998046875 C 100.99312591552734 186.41941833496094 104.35228729248047 179.2476806640625 107.7114486694336 172.07513427734375 C 109.1441879272461 171.2158203125 110.5769271850586 170.3564910888672 112.01046752929688 169.49716186523438 C 109.81424713134766 168.63705444335938 107.61803436279297 167.77772521972656 105.42261505126953 166.91839599609375 C 103.31981658935547 164.72299194335938 101.21701049804688 162.52676391601562 99.11502075195312 160.33053588867188 C 96.1537094116211 155.4605255126953 93.19319915771484 150.58969116210938 90.23188781738281 145.7188720703125 C 91.47294616699219 143.23594665527344 92.7140121459961 140.75302124023438 93.95507049560547 138.27008056640625 C 93.95507049560547 137.21908569335938 93.95507049560547 136.16729736328125 93.95507049560547 135.1162872314453 C 94.14674377441406 133.39764404296875 94.33842468261719 131.67820739746094 94.53010559082031 129.95956420898438 C 94.24420166015625 128.62185668945312 93.95829010009766 127.2841567993164 93.67239379882812 125.94725036621094 C 92.43132781982422 124.22779846191406 91.19026947021484 122.50916290283203 89.94920349121094 120.79052734375 C 92.33710479736328 111.6214828491211 94.72419738769531 102.45243835449219 97.11209106445312 93.28340148925781 C 97.11209106445312 91.56476593017578 97.11209106445312 89.8453140258789 97.11209106445312 88.12667083740234 C 95.77438354492188 87.07567596435547 94.43748474121094 86.02387237548828 93.09977722167969 84.9728775024414 C 92.04878234863281 84.59113311767578 90.99778747558594 84.21019744873047 89.94598388671875 83.82846069335938" stroke-width="0.0" fill="rgb(252, 205, 182)" opacity="1.0"/>
    <path d="M 63.81603240966797 75.187744140625 C 64.18730163574219 75.5582046508789 64.55857849121094 75.92786407470703 64.92985534667969 76.29753112792969 C 60.75244140625 82.9651107788086 58.38386917114258 92.65602111816406 63.28852081298828 99.55072784423828 C 64.73978424072266 101.59070587158203 66.56312561035156 102.95337677001953 68.58699798583984 104.37322998046875 C 67.45948791503906 105.9026107788086 66.3327865600586 107.43199157714844 65.20608520507812 108.96137237548828 C 63.77012634277344 107.57131958007812 62.33416748046875 106.18207550048828 60.89820861816406 104.7920150756836 C 59.600772857666016 102.75283813476562 58.30333709716797 100.7144775390625 57.005897521972656 98.67610168457031 C 56.4542236328125 96.34860229492188 55.902549743652344 94.02191925048828 55.3516845703125 91.69522857666016 C 55.5779914855957 89.43457794189453 55.80430221557617 87.1739273071289 56.030601501464844 84.91328430175781 C 57.560794830322266 82.64457702636719 59.090980529785156 80.37506866455078 60.62116622924805 78.10556030273438 C 61.68666076660156 77.13349151611328 62.751346588134766 76.16061401367188 63.81603240966797 75.187744140625" stroke-width="0.0" fill="rgb(254, 254, 254)" opacity="1.0"/>
    <path d="M 118.78919219970703 73.03339385986328 C 120.15670013427734 73.65916442871094 121.52339935302734 74.28492736816406 122.89009857177734 74.91069030761719 C 120.43374633789062 78.84890747070312 117.97819519042969 82.78632354736328 115.52184295654297 86.72454071044922 C 114.6673583984375 84.6620101928711 113.81205749511719 82.59867095947266 112.95677185058594 80.53614807128906 C 114.90091705322266 78.03549194335938 116.84505462646484 75.53485107421875 118.78919219970703 73.03339385986328" stroke-width="0.0" fill="rgb(255, 254, 254)" opacity="1.0"/>
    <path d="M 144.4375457763672 81.16432189941406 C 145.6407470703125 81.8593521118164 146.84396362304688 82.55437469482422 148.0471649169922 83.24940490722656 C 145.9178009033203 86.63111877441406 143.78842163085938 90.01202392578125 141.65823364257812 93.39373779296875 C 140.9213409423828 91.58892059326172 140.18443298339844 89.7833023071289 139.44833374023438 87.97848510742188 C 141.1114044189453 85.70736694335938 142.77447509765625 83.43624877929688 144.4375457763672 81.16432189941406" stroke-width="0.0" fill="rgb(255, 254, 254)" opacity="1.0"/>
    <path d="M 148.39669799804688 97.84577178955078 C 147.423828125 99.7915267944336 146.45175170898438 101.7364730834961 145.4788818359375 103.68142700195312 C 146.2898712158203 105.07147216796875 147.10086059570312 106.46153259277344 147.911865234375 107.8515853881836 C 149.44125366210938 105.1181869506836 150.97064208984375 102.38398742675781 152.50001525878906 99.65058898925781 C 151.13250732421875 99.04898834228516 149.7642059326172 98.44738006591797 148.39669799804688 97.84577178955078" stroke-width="0.0" fill="rgb(255, 254, 254)" opacity="1.0"/>
    <path d="M 136.5135955810547 71.15690612792969 C 131.12330627441406 78.4816665649414 125.73302459716797 85.80723571777344 120.34193420410156 93.13279724121094 C 121.14649200439453 94.70405578613281 121.95024108886719 96.2745132446289 122.75479888916016 97.84577178955078 C 128.68467712402344 89.1341781616211 134.6153564453125 80.42178344726562 140.54522705078125 71.70938110351562 C 139.20108032226562 71.52495574951172 137.8577423095703 71.3413314819336 136.5135955810547 71.15690612792969" stroke-width="0.0" fill="rgb(254, 254, 254)" opacity="1.0"/>
    <path d="M 131.57994079589844 88.11378479003906 C 130.68841552734375 89.27189636230469 129.796875 90.4308090209961 128.904541015625 91.58892059326172 C 129.70346069335938 96.2801513671875 130.5023651123047 100.97138214111328 131.30130004882812 105.66261291503906 C 131.39230346679688 106.85132598876953 131.48330688476562 108.0400390625 131.57431030273438 109.22875213623047 C 131.48974609375 110.60833740234375 131.24169921875 111.31544494628906 130.4451904296875 112.44536590576172 C 129.89593505859375 113.03327941894531 129.3466796875 113.62120056152344 128.79742431640625 114.2091064453125 C 128.51876831054688 115.1819839477539 128.2401123046875 116.154052734375 127.96145629882812 117.1269302368164 C 128.1700439453125 118.16987609863281 128.37863159179688 119.21281433105469 128.5872344970703 120.2557601928711 C 130.6739044189453 122.86271667480469 132.76060485839844 125.46967315673828 134.8472900390625 128.0758056640625 C 136.87681579589844 125.96173858642578 136.50875854492188 123.59801483154297 135.1968231201172 121.19642639160156 C 134.66287231445312 120.26945495605469 134.1297149658203 119.3432846069336 133.59576416015625 118.41631317138672 C 133.376708984375 117.61095428466797 133.37831115722656 116.69686889648438 133.66502380371094 115.91325378417969 C 134.24166870117188 115.57902526855469 134.8183135986328 115.24480438232422 135.3949432373047 114.90977478027344 C 136.60781860351562 113.64212799072266 136.85023498535156 113.00992584228516 136.79063415527344 111.25665283203125 C 135.0542755126953 103.54209899902344 133.31710815429688 95.8283462524414 131.57994079589844 88.11378479003906" stroke-width="0.0" fill="rgb(254, 254, 254)" opacity="1.0"/>
    <path d="M 175.90542602539062 69.31826782226562 C 175.90542602539062 69.31826782226562 175.90542602539062 69.31826782226562 175.90542602539062 69.31826782226562 C 174.4171142578125 69.60255432128906 173.19699096679688 69.99557495117188 172.55511474609375 71.54508972167969 C 171.58224487304688 73.89593505859375 173.3757781982422 76.54879760742188 175.90542602539062 76.54798889160156 C 178.43264770507812 76.54798889160156 180.23182678222656 73.89674377441406 179.25735473632812 71.54669952392578 C 178.61465454101562 69.99718475341797 177.39373779296875 69.60255432128906 175.90542602539062 69.31826782226562 C 175.90542602539062 69.31826782226562 175.90542602539062 69.31826782226562 175.90542602539062 69.31826782226562" stroke-width="0.0" fill="rgb(72, 167, 254)" opacity="1.0"/>
    <path d="M 132.5882568359375 33.88155746459961 C 132.5882568359375 33.88155746459961 132.5882568359375 33.88155746459961 132.5882568359375 33.88155746459961 C 131.09994506835938 34.16584777832031 129.87982177734375 34.55805969238281 129.2379608154297 36.10838317871094 C 128.26507568359375 38.459232330322266 130.05862426757812 41.11048126220703 132.5882568359375 41.11048126220703 C 135.11790466308594 41.11048126220703 136.91143798828125 38.46003723144531 135.93775939941406 36.10838317871094 C 135.29588317871094 34.55805969238281 134.07656860351562 34.165042877197266 132.5882568359375 33.88155746459961 C 132.5882568359375 33.88155746459961 132.5882568359375 33.88155746459961 132.5882568359375 33.88155746459961" stroke-width="0.0" fill="rgb(72, 167, 254)" opacity="1.0"/>
    <path d="M 89.94920349121094 83.82524108886719 C 90.73603820800781 84.37449645996094 91.52368927001953 84.92375183105469 92.3105239868164 85.47300720214844 C 88.4858627319336 93.63615417480469 84.77153778076172 101.86211395263672 81.31411743164062 110.18794250488281 C 79.54071807861328 114.45796203613281 77.1801986694336 119.11053466796875 76.51496887207031 123.73653411865234 C 76.20169067382812 125.91664123535156 76.42477416992188 128.29408264160156 76.36437225341797 130.49270629882812 C 76.24276733398438 134.94717407226562 76.09054565429688 139.40081787109375 75.97296142578125 143.85525512695312 C 75.885986328125 147.13148498535156 76.07363891601562 149.99212646484375 74.42264556884766 152.92926025390625 C 69.47450256347656 159.97055053710938 64.52555847167969 167.01182556152344 59.57741928100586 174.0531005859375 C 57.820926666259766 172.56881713867188 56.06443405151367 171.08453369140625 54.30712890625 169.60105895996094 C 59.0877571105957 163.26687622070312 63.86838150024414 156.93272399902344 68.64900970458984 150.5985565185547 C 69.43262481689453 149.69252014160156 70.21543884277344 148.7856903076172 70.99824523925781 147.87884521484375 C 70.84120178222656 144.51162719726562 70.68415832519531 141.1444091796875 70.52630615234375 137.77639770507812 C 71.04817962646484 132.35470581054688 71.57005310058594 126.93301391601562 72.09192657470703 121.51051330566406 C 77.1149673461914 109.73371124267578 82.13720703125 97.95691680908203 87.16024017333984 86.18011474609375 C 88.08963012695312 85.39488983154297 89.01982116699219 84.61046600341797 89.94920349121094 83.82524108886719" stroke-width="0.0" fill="rgb(254, 254, 254)" opacity="1.0"/>
    <path d="M 118.99778747558594 71.2011947631836 C 118.99778747558594 71.2011947631836 118.99778747558594 71.2011947631836 118.99778747558594 71.2011947631836 C 120.69548797607422 71.08442687988281 121.59024810791016 71.26724243164062 123.10673522949219 72.03877258300781 C 125.74591064453125 73.81942749023438 128.38507080078125 75.60089111328125 131.0242462158203 77.38154602050781 C 131.98182678222656 78.33589172363281 132.12759399414062 79.0792465209961 131.5904083251953 80.32111358642578 C 128.42453002929688 84.98738098144531 125.25865936279297 89.65364074707031 122.09198760986328 94.31909942626953 C 120.14059448242188 96.2745132446289 117.49739837646484 94.48178100585938 118.59268951416016 91.9457015991211 C 121.36312866210938 87.86412811279297 124.13276672363281 83.78175354003906 126.90240478515625 79.70018005371094 C 124.84873962402344 78.31495666503906 122.7950668334961 76.92892456054688 120.74139404296875 75.543701171875 C 120.17280578613281 75.38504791259766 119.47213745117188 75.52115631103516 119.00342559814453 75.88035583496094 C 117.49176025390625 78.19576263427734 115.98089599609375 80.51117706298828 114.46923828125 82.82659149169922 C 112.55167388916016 84.81663513183594 109.87867736816406 83.07221984863281 110.92807006835938 80.51600646972656 C 112.45181274414062 78.18206787109375 113.97555541992188 75.84733581542969 115.49929809570312 73.51338958740234 C 116.6179428100586 72.23125457763672 117.37981414794922 71.72709655761719 118.99778747558594 71.2011947631836 C 118.99778747558594 71.2011947631836 118.99778747558594 71.2011947631836 118.99778747558594 71.2011947631836" stroke-width="0.0" fill="rgb(53, 56, 81)" opacity="1.0"/>
    <path d="M 89.49739837646484 82.1347885131836 C 89.49739837646484 82.1347885131836 89.49739837646484 82.1347885131836 89.49739837646484 82.1347885131836 C 91.47053527832031 81.90766906738281 92.75588989257812 82.16860961914062 94.48419189453125 83.14631652832031 C 95.14137268066406 83.6061782836914 95.79774475097656 84.06523132324219 96.45410919189453 84.5242919921875 C 98.9450912475586 86.64964294433594 99.82374572753906 88.98116302490234 99.40575408935547 92.22515869140625 C 97.04283142089844 101.73003387451172 94.67909240722656 111.23571014404297 92.316162109375 120.74139404296875 C 96.90269470214844 125.97705078125 98.03584289550781 132.51174926757812 95.54646301269531 138.99732971191406 C 94.46163940429688 141.50120544433594 93.37682342529297 144.00506591796875 92.29200744628906 146.50892639160156 C 90.73765563964844 148.79293823242188 87.80694580078125 147.52529907226562 88.41177368164062 144.82814025878906 C 89.49659729003906 142.3242645263672 90.5814208984375 139.82040405273438 91.6662368774414 137.3165283203125 C 92.9588394165039 133.7697296142578 93.10621643066406 130.14479064941406 91.38677978515625 126.68174743652344 C 90.35430145263672 124.60230255126953 87.93258666992188 123.26861572265625 87.91969299316406 120.9000473022461 C 90.38008117675781 111.00135040283203 92.84126281738281 101.10265350341797 95.30244445800781 91.2039566040039 C 95.37895202636719 89.5964584350586 95.1751937866211 89.11646270751953 94.02836608886719 87.98654174804688 C 93.37199401855469 87.52828979492188 92.71642303466797 87.0692367553711 92.06086730957031 86.6109848022461 C 90.78678131103516 86.05287170410156 90.00718688964844 86.18091583251953 89.03189849853516 87.17634582519531 C 84.67166900634766 96.89705657958984 80.312255859375 106.61776733398438 75.9520263671875 116.33848571777344 C 74.57888793945312 119.64207458496094 73.83795166015625 122.90056610107422 73.65191650390625 126.47315216064453 C 73.47151184082031 133.62313842773438 73.29191589355469 140.7731475830078 73.11151123046875 147.92315673828125 C 72.96574401855469 148.33468627929688 72.81997680664062 148.7462158203125 72.67420959472656 149.1577606201172 C 67.46109771728516 155.94454956054688 62.247188568115234 162.73052978515625 57.03408432006836 169.51730346679688 C 67.41036224365234 180.62725830078125 81.0048599243164 188.27496337890625 95.89599609375 191.29588317871094 C 99.07797241210938 184.62667846679688 102.25996398925781 177.95668029785156 105.4427490234375 171.28668212890625 C 105.73751068115234 170.9741973876953 106.03227233886719 170.66091918945312 106.32703399658203 170.34762573242188 C 107.58097839355469 169.65501403808594 108.83412170410156 168.96240234375 110.08806610107422 168.2689971923828 C 112.71354675292969 167.40966796875 114.25823211669922 170.20346069335938 112.13288116455078 171.96961975097656 C 111.07705688476562 172.5535125732422 110.02123260498047 173.1365966796875 108.96540069580078 173.72048950195312 C 105.64972686767578 180.67074584960938 102.33324432373047 187.6210174560547 99.017578125 194.5712890625 C 98.71475982666016 194.90872192382812 98.51181030273438 195.3750457763672 98.109130859375 195.58444213867188 C 97.32308959960938 195.99356079101562 95.97975158691406 195.6158447265625 95.23479461669922 195.47410583496094 C 92.71481323242188 194.997314453125 90.21980285644531 194.38766479492188 87.7642593383789 193.64593505859375 C 77.53858947753906 190.55897521972656 68.15853881835938 185.152587890625 60.00989532470703 178.28204345703125 C 57.691261291503906 176.3274383544922 55.470069885253906 174.23751831054688 53.4985466003418 171.92855834960938 C 53.00083541870117 171.34547424316406 52.143123626708984 170.47406005859375 52.13668441772461 169.60910034179688 C 52.13265609741211 169.14280700683594 52.46849060058594 168.738525390625 52.634395599365234 168.30282592773438 C 58.0568962097168 161.24462890625 63.479393005371094 154.18643188476562 68.90188598632812 147.12744140625 C 69.07665252685547 140.20858764648438 69.2506103515625 133.2897186279297 69.42536926269531 126.3708724975586 C 69.62591552734375 122.23453521728516 70.49166870117188 118.42678833007812 72.09353637695312 114.60856628417969 C 76.47389221191406 104.84275817871094 80.85426330566406 95.07694244384766 85.23381042480469 85.31193542480469 C 86.16883850097656 83.53128051757812 87.65715026855469 82.71222686767578 89.49739837646484 82.1347885131836 C 89.49739837646484 82.1347885131836 89.49739837646484 82.1347885131836 89.49739837646484 82.1347885131836" stroke-width="0.0" fill="rgb(52, 55, 79)" opacity="1.0"/>
    <path d="M 136.65371704101562 68.28901672363281 C 136.65371704101562 68.28901672363281 136.65371704101562 68.28901672363281 136.65371704101562 68.28901672363281 C 138.35142517089844 68.17304229736328 139.24618530273438 68.3558578491211 140.76268005371094 69.12739562988281 C 142.59487915039062 70.3636245727539 144.42787170410156 71.60066223144531 146.26007080078125 72.83769226074219 C 148.55856323242188 74.83096313476562 148.9886474609375 77.12704467773438 147.6106719970703 79.83386993408203 C 145.47080993652344 82.94819641113281 143.33016967773438 86.06253051757812 141.18951416015625 89.17605590820312 C 139.22604370117188 91.11940002441406 136.59413146972656 89.31135559082031 137.70632934570312 86.78172302246094 C 139.84617614746094 83.66738891601562 141.98602294921875 80.55305480957031 144.12667846679688 77.43952941894531 C 144.19593811035156 77.07550048828125 144.10977172851562 76.6583251953125 143.9051971435547 76.34906768798828 C 142.0689697265625 75.11042785644531 140.23355102539062 73.8709716796875 138.3973388671875 72.63232421875 C 137.819091796875 72.5139389038086 137.15142822265625 72.64279174804688 136.65936279296875 72.96896362304688 C 132.7598114013672 78.7474365234375 128.85943603515625 84.5267105102539 124.95988464355469 90.30598449707031 C 123.01251220703125 92.26703643798828 120.36689758300781 90.47994232177734 121.45494842529297 87.94063568115234 C 125.35531616210938 82.16136169433594 129.25567626953125 76.38127899169922 133.15524291992188 70.60200500488281 C 134.2738800048828 69.31986999511719 135.03575134277344 68.81571960449219 136.65371704101562 68.28901672363281 C 136.65371704101562 68.28901672363281 136.65371704101562 68.28901672363281 136.65371704101562 68.28901672363281" stroke-width="0.0" fill="rgb(52, 56, 80)" opacity="1.0"/>
    <path d="M 95.68177032470703 100.14669036865234 C 95.68177032470703 100.14669036865234 95.68177032470703 100.14669036865234 95.68177032470703 100.14669036865234 C 96.17706298828125 100.35930633544922 96.63692474365234 100.68064880371094 97.00739288330078 101.07286071777344 C 99.58696746826172 105.11576843261719 102.16653442382812 109.15869140625 104.74610900878906 113.20159912109375 C 105.7689208984375 115.7674789428711 103.07740020751953 117.48451232910156 101.18157958984375 115.47513580322266 C 98.60201263427734 111.43302917480469 96.0224380493164 107.3901138305664 93.44286346435547 103.34800720214844 C 92.704345703125 101.49325561523438 93.68608093261719 100.08790588378906 95.68177032470703 100.14669036865234 C 95.68177032470703 100.14669036865234 95.68177032470703 100.14669036865234 95.68177032470703 100.14669036865234" stroke-width="0.0" fill="rgb(52, 55, 79)" opacity="1.0"/>
    <path d="M 70.92979431152344 145.75672912597656 C 70.92979431152344 145.75672912597656 70.92979431152344 145.75672912597656 70.92979431152344 145.75672912597656 C 72.3802490234375 145.98463439941406 73.1566162109375 147.00503540039062 74.27204895019531 147.90139770507812 C 75.45753479003906 148.8533477783203 76.68409729003906 149.760986328125 77.97348022460938 150.56875610351562 C 79.1879653930664 151.32901000976562 81.02660369873047 151.7526397705078 82.07035827636719 152.7069854736328 C 83.43222045898438 153.95289611816406 82.5769271850586 156.30856323242188 80.73265075683594 156.38992309570312 C 79.72514343261719 156.4350128173828 78.57186889648438 155.72628784179688 77.72059631347656 155.2889862060547 C 75.12168884277344 153.95208740234375 72.72091674804688 152.17868041992188 70.51261901855469 150.27398681640625 C 68.78108215332031 148.78005981445312 68.06672668457031 146.39939880371094 70.92979431152344 145.75672912597656 C 70.92979431152344 145.75672912597656 70.92979431152344 145.75672912597656 70.92979431152344 145.75672912597656" stroke-width="0.0" fill="rgb(52, 55, 79)" opacity="1.0"/>
    <path d="M 144.2200927734375 78.4236831665039 C 144.2200927734375 78.4236831665039 144.2200927734375 78.4236831665039 144.2200927734375 78.4236831665039 C 144.75564575195312 78.42448425292969 145.30169677734375 78.5372314453125 145.79458618164062 78.74984741210938 C 148.55535888671875 80.61426544189453 151.31613159179688 82.47866821289062 154.076904296875 84.34227752685547 C 156.36654663085938 86.32749938964844 156.80950927734375 88.6219711303711 155.4395751953125 91.32234954833984 C 152.66673278808594 95.44096374511719 149.89468383789062 99.55877685546875 147.12261962890625 103.67659759521484 C 145.17767333984375 105.6392593383789 142.5280303955078 103.85618591308594 143.61526489257812 101.31607818603516 C 146.38731384277344 97.19745635986328 149.16018676757812 93.07964324951172 151.93223571777344 88.96183013916016 C 152.00714111328125 88.59378051757812 151.92901611328125 88.1677474975586 151.7220458984375 87.85446166992188 C 149.53549194335938 86.37823486328125 147.34811401367188 84.90119934082031 145.16156005859375 83.4241714477539 C 143.8367462158203 85.34173583984375 142.5119171142578 87.2593002319336 141.18710327148438 89.17686462402344 C 139.2187957763672 91.11537170410156 136.59170532226562 89.30249786376953 137.708740234375 86.77446746826172 C 139.4298095703125 84.28349304199219 141.15005493164062 81.79170227050781 142.87110900878906 79.30072021484375 C 143.2528533935547 78.92381286621094 143.7207794189453 78.619384765625 144.2200927734375 78.4236831665039 C 144.2200927734375 78.4236831665039 144.2200927734375 78.4236831665039 144.2200927734375 78.4236831665039" stroke-width="0.0" fill="rgb(52, 56, 80)" opacity="1.0"/>
    <path d="M 148.54408264160156 95.09143829345703 C 148.54408264160156 95.09143829345703 148.54408264160156 95.09143829345703 148.54408264160156 95.09143829345703 C 149.08285522460938 95.08982849121094 149.63372802734375 95.20177459716797 150.1290283203125 95.41439056396484 C 152.93490600585938 97.30699157714844 155.74078369140625 99.20039367675781 158.54747009277344 101.0929946899414 C 160.74851989746094 103.00009155273438 161.236572265625 105.1810073852539 160.05027770996094 107.84272766113281 C 158.1319122314453 111.04484558105469 156.21273803710938 114.24777221679688 154.2943572998047 117.44988250732422 C 152.45571899414062 119.51160430908203 149.71749877929688 117.87027740478516 150.66781616210938 115.27621459960938 C 152.5853729248047 112.07489776611328 154.50375366210938 108.87358856201172 156.4213104248047 105.67147064208984 C 156.34158325195312 105.31388854980469 156.26185607910156 104.95550537109375 156.18212890625 104.5979232788086 C 153.9601287841797 103.09915161132812 151.73814392089844 101.60037231445312 149.5161590576172 100.10159301757812 C 148.8323974609375 101.11473846435547 148.14784240722656 102.12788391113281 147.46408081054688 103.14183044433594 C 145.5167236328125 105.10127258300781 142.8686981201172 103.31498718261719 143.9599609375 100.77568054199219 C 145.03834533691406 99.17864227294922 146.11671447753906 97.58161926269531 147.19509887695312 95.98377990722656 C 147.57522583007812 95.60123443603516 148.0431365966797 95.29116821289062 148.54408264160156 95.09143829345703 C 148.54408264160156 95.09143829345703 148.54408264160156 95.09143829345703 148.54408264160156 95.09143829345703" stroke-width="0.0" fill="rgb(52, 56, 80)" opacity="1.0"/>
    <path d="M 136.45318603515625 83.66255187988281 C 136.45318603515625 83.66255187988281 136.45318603515625 83.66255187988281 136.45318603515625 83.66255187988281 C 138.29263305664062 84.23919677734375 139.78416442871094 85.05824279785156 140.71676635742188 86.84050750732422 C 145.09632873535156 96.60551452636719 149.4766845703125 106.37052154541016 153.8570556640625 116.13633728027344 C 155.45892333984375 119.95455932617188 156.32467651367188 123.76231384277344 156.52520751953125 127.89865112304688 C 156.6975555419922 134.8094482421875 156.86990356445312 141.71945190429688 157.04225158691406 148.6302490234375 C 162.44139099121094 155.30186462402344 167.8405303955078 161.97348022460938 173.23968505859375 168.6450958251953 C 173.42169189453125 169.1025390625 173.79537963867188 169.52536010742188 173.78570556640625 170.01742553710938 C 173.768798828125 170.89849853515625 172.868408203125 171.73606872558594 172.3368682861328 172.3094940185547 C 170.40481567382812 174.39376831054688 168.29396057128906 176.30810546875 166.09933471679688 178.11131286621094 C 157.55364990234375 185.1332550048828 147.77174377441406 190.83763122558594 137.1007080078125 193.90122985839844 C 134.72569274902344 194.5833740234375 132.31362915039062 195.1342315673828 129.8782196044922 195.5457763671875 C 129.136474609375 195.67141723632812 127.8599853515625 196.0 127.09650421142578 195.5924835205078 C 126.70348358154297 195.38229370117188 126.50375366210938 194.92645263671875 126.20738220214844 194.59384155273438 C 123.13492584228516 188.15255737304688 120.06246948242188 181.71127319335938 116.99002075195312 175.26998901367188 C 113.2982406616211 173.34115600585938 109.60646057128906 171.41232299804688 105.91468811035156 169.48428344726562 C 102.03929138183594 167.29449462890625 99.11502075195312 164.53533935546875 96.70135498046875 160.79605102539062 C 93.97520446777344 156.1080322265625 91.24986267089844 151.41921997070312 88.52371978759766 146.731201171875 C 87.60721588134766 144.12506103515625 90.36798858642578 142.52078247070312 92.17924499511719 144.60586547851562 C 94.89573669433594 149.27777099609375 97.61141204833984 153.9496612548828 100.32789611816406 158.62075805664062 C 102.3276138305664 161.6875762939453 104.69376373291016 163.9200439453125 107.87332916259766 165.7361297607422 C 111.77368927001953 167.77369689941406 115.67325592041016 169.81124877929688 119.57362365722656 171.84881591796875 C 119.88287353515625 172.170166015625 120.19293975830078 172.4915008544922 120.50220489501953 172.81283569335938 C 123.44902038574219 178.99075317382812 126.39664459228516 185.16949462890625 129.3434600830078 191.34742736816406 C 144.24908447265625 188.59066772460938 158.21969604492188 180.69894409179688 168.80776977539062 169.89019775390625 C 163.6397705078125 163.503662109375 158.47096252441406 157.11715698242188 153.30296325683594 150.7306365966797 C 153.14590454101562 150.30540466308594 152.9896697998047 149.87937927246094 152.83262634277344 149.45333862304688 C 152.65463256835938 142.3025360107422 152.47665405273438 135.1517333984375 152.29867553710938 128.0009307861328 C 152.11264038085938 124.4283447265625 151.37249755859375 121.16984558105469 149.99935913085938 117.86705780029297 C 145.63912963867188 108.14634704589844 141.27890014648438 98.4256362915039 136.91868591308594 88.70492553710938 C 135.94419860839844 87.70869445800781 135.16380310058594 87.58064270019531 133.8897247314453 88.13874816894531 C 133.23416137695312 88.59780883789062 132.57859802246094 89.05686950683594 131.92303466796875 89.5151138305664 C 130.767333984375 90.66194915771484 130.57647705078125 91.151611328125 130.659423828125 92.77763366699219 C 131.98826599121094 98.68013000488281 133.31710815429688 104.58181762695312 134.6467742919922 110.48350524902344 C 134.6693115234375 111.3436279296875 134.86180114746094 111.78738403320312 134.2271728515625 112.47677612304688 C 132.42799377441406 114.43379974365234 129.54962158203125 112.67891693115234 130.2623748779297 110.26283264160156 C 129.0196990966797 104.74449920654297 127.77702331542969 99.2253646850586 126.53435516357422 93.70702362060547 C 126.12522888183594 90.4855728149414 127.02643585205078 88.1604995727539 129.49647521972656 86.05206298828125 C 130.15284729003906 85.59300994873047 130.8092041015625 85.13394927978516 131.465576171875 84.67408752441406 C 133.1947021484375 83.69718170166016 134.48086547851562 83.43624877929688 136.45318603515625 83.66255187988281 C 136.45318603515625 83.66255187988281 136.45318603515625 83.66255187988281 136.45318603515625 83.66255187988281" stroke-width="0.0" fill="rgb(52, 55, 79)" opacity="1.0"/>
    <path d="M 107.10501861572266 73.0164794921875 C 107.10501861572266 73.0164794921875 107.10501861572266 73.0164794921875 107.10501861572266 73.0164794921875 C 108.77532958984375 73.57701873779297 109.57344055175781 74.11096954345703 110.72994995117188 75.44062042236328 C 118.47671508789062 86.92990112304688 126.22268676757812 98.41919708251953 133.96864318847656 109.90847778320312 C 135.05589294433594 112.44859313964844 132.4094696044922 114.23326873779297 130.46290588378906 112.27140808105469 C 122.7177505493164 100.78373718261719 114.97258758544922 89.29605865478516 107.22823333740234 77.80918884277344 C 106.91011047363281 77.56355285644531 106.6677017211914 77.15362548828125 106.27388000488281 77.07228088378906 C 105.88166809082031 76.99174499511719 105.49751281738281 77.27281951904297 105.10932922363281 77.3726806640625 C 103.09431457519531 78.67253875732422 101.08010864257812 79.9723892211914 99.0658950805664 81.27143859863281 C 105.02073669433594 90.09739685058594 110.97638702392578 98.92254638671875 116.9320297241211 107.74768829345703 C 118.02249145507812 110.28700256347656 115.3736572265625 112.0716781616211 113.4271011352539 110.11223602294922 C 107.06877899169922 100.69111633300781 100.71125030517578 91.26919555664062 94.35372924804688 81.84727478027344 C 93.82218933105469 80.60781860351562 93.96714782714844 79.86286163330078 94.9231185913086 78.91253662109375 C 97.55503845214844 77.21483612060547 100.18614959716797 75.51793670654297 102.81726837158203 73.82023620605469 C 104.40463256835938 73.05192565917969 105.34690856933594 72.87474060058594 107.10501861572266 73.0164794921875 C 107.10501861572266 73.0164794921875 107.10501861572266 73.0164794921875 107.10501861572266 73.0164794921875" stroke-width="0.0" fill="rgb(52, 55, 79)" opacity="1.0"/>
    <path d="M 89.29686737060547 69.81678771972656 C 89.29686737060547 69.81678771972656 89.29686737060547 69.81678771972656 89.29686737060547 69.81678771972656 C 90.91402435302734 70.34429168701172 91.67670440673828 70.84764099121094 92.79535675048828 72.12977600097656 C 96.69491577148438 77.90985870361328 100.59527587890625 83.68994140625 104.49564361572266 89.46920776367188 C 105.58610534667969 92.00931549072266 102.93888092041016 93.79238891601562 100.99070739746094 91.83455657958984 C 97.09115600585938 86.05528259277344 93.19158935546875 80.27601623535156 89.29203033447266 74.49754333496094 C 88.82331085205078 74.1375503540039 88.12184143066406 74.00225067138672 87.55325317382812 74.16090393066406 C 85.71703338623047 75.39955139160156 83.8816146850586 76.63819122314453 82.0453872680664 77.87683868408203 C 81.83760833740234 78.19093322753906 81.76190185546875 78.61857604980469 81.83760833740234 78.9874267578125 C 83.66980743408203 81.71841430664062 85.50199890136719 84.45020294189453 87.33419799804688 87.1819839477539 C 88.4166030883789 89.72370147705078 85.7645492553711 91.50274658203125 83.82281494140625 89.53685760498047 C 81.99063110351562 86.80587768554688 80.15843200683594 84.0740966796875 78.32623291015625 81.3423080444336 C 76.95792388916016 78.64273071289062 77.40328216552734 76.3498764038086 79.69131469726562 74.36627197265625 C 81.52351379394531 73.12923431396484 83.355712890625 71.89300537109375 85.18790435791016 70.65596771240234 C 86.70440673828125 69.88362884521484 87.59915924072266 69.7008056640625 89.29686737060547 69.81678771972656 C 89.29686737060547 69.81678771972656 89.29686737060547 69.81678771972656 89.29686737060547 69.81678771972656" stroke-width="0.0" fill="rgb(52, 55, 79)" opacity="1.0"/>
    <path d="M 133.0191192626953 108.99520111083984 C 133.0191192626953 108.99520111083984 133.0191192626953 108.99520111083984 133.0191192626953 108.99520111083984 C 134.87306213378906 109.73371124267578 135.2177734375 111.41450500488281 133.80274963378906 112.82227325439453 C 133.25831604003906 113.19032287597656 132.71470642089844 113.55757141113281 132.17027282714844 113.92562103271484 C 130.50881958007812 115.5758056640625 130.2591552734375 116.868408203125 131.1829071044922 119.02033233642578 C 132.61724853515625 121.146484375 134.05239868164062 123.27345275878906 135.48675537109375 125.39959716796875 C 136.576416015625 127.93890380859375 133.92918395996094 129.72518920898438 131.98182678222656 127.76495361328125 C 130.5466766357422 125.63799285888672 129.11231994628906 123.51103210449219 127.67716979980469 121.38407897949219 C 125.44792175292969 117.32424926757812 126.21463012695312 113.35542297363281 129.80250549316406 110.42310333251953 C 130.34613037109375 110.05586242675781 130.88975524902344 109.68780517578125 131.43417358398438 109.31975555419922 C 131.92947387695312 109.10714721679688 132.4795379638672 108.99439239501953 133.0191192626953 108.99520111083984 C 133.0191192626953 108.99520111083984 133.0191192626953 108.99520111083984 133.0191192626953 108.99520111083984" stroke-width="0.0" fill="rgb(52, 55, 79)" opacity="1.0"/>
    <path d="M 158.02801513671875 51.00112533569336 C 158.02801513671875 51.00112533569336 158.02801513671875 51.00112533569336 158.02801513671875 51.00112533569336 C 157.70587158203125 53.864990234375 157.08816528320312 56.62979507446289 154.40872192382812 58.054481506347656 C 154.40872192382812 58.054481506347656 154.40872192382812 58.054481506347656 154.40872192382812 58.054481506347656 C 157.0873565673828 59.4799690246582 157.70587158203125 62.2431640625 158.02801513671875 65.1062240600586 C 158.02801513671875 65.1062240600586 158.02801513671875 65.1062240600586 158.02801513671875 65.1062240600586 C 158.35015869140625 62.2431640625 158.96786499023438 59.47835922241211 161.64730834960938 58.054481506347656 C 161.64730834960938 58.054481506347656 161.64730834960938 58.054481506347656 161.64730834960938 58.054481506347656 C 158.96786499023438 56.6281852722168 158.349365234375 53.86579513549805 158.02801513671875 51.00112533569336 C 158.02801513671875 51.00112533569336 158.02801513671875 51.00112533569336 158.02801513671875 51.00112533569336" stroke-width="0.0" fill="rgb(75, 169, 255)" opacity="1.0"/>
    <path d="M 41.686309814453125 79.7718505859375 C 41.686309814453125 79.7718505859375 41.686309814453125 79.7718505859375 41.686309814453125 79.7718505859375 C 41.364166259765625 82.6357192993164 40.74645233154297 85.40052795410156 38.06621551513672 86.82521057128906 C 38.06621551513672 86.82521057128906 38.06621551513672 86.82521057128906 38.06621551513672 86.82521057128906 C 40.74565124511719 88.25069427490234 41.364166259765625 91.0138931274414 41.686309814453125 93.87776184082031 C 41.686309814453125 93.87776184082031 41.686309814453125 93.87776184082031 41.686309814453125 93.87776184082031 C 42.008460998535156 91.0138931274414 42.62616729736328 88.24989318847656 45.30561065673828 86.82521057128906 C 45.30561065673828 86.82521057128906 45.30561065673828 86.82521057128906 45.30561065673828 86.82521057128906 C 42.62616729736328 85.40052795410156 42.008460998535156 82.6357192993164 41.686309814453125 79.7718505859375 C 41.686309814453125 79.7718505859375 41.686309814453125 79.7718505859375 41.686309814453125 79.7718505859375" stroke-width="0.0" fill="rgb(73, 168, 255)" opacity="1.0"/>
    <path d="M 102.7713623046875 28.0 C 102.7713623046875 28.0 102.7713623046875 28.0 102.7713623046875 28.0 C 102.50076293945312 30.285614013671875 102.02882385253906 32.188690185546875 99.9920654296875 33.42411422729492 C 99.9920654296875 33.42411422729492 99.9920654296875 33.42411422729492 99.9920654296875 33.42411422729492 C 102.03204345703125 34.656314849853516 102.5015640258789 36.56340789794922 102.7713623046875 38.84822082519531 C 102.7713623046875 38.84822082519531 102.7713623046875 38.84822082519531 102.7713623046875 38.84822082519531 C 103.04277038574219 36.56340789794922 103.51390838623047 34.6595344543457 105.55147552490234 33.42411422729492 C 105.55147552490234 33.42411422729492 105.55147552490234 33.42411422729492 105.55147552490234 33.42411422729492 C 103.51471710205078 32.188690185546875 103.04277038574219 30.284812927246094 102.7713623046875 28.0 C 102.7713623046875 28.0 102.7713623046875 28.0 102.7713623046875 28.0" stroke-width="0.0" fill="rgb(75, 168, 255)" opacity="1.0"/>
    <path d="M 81.74256896972656 79.96031188964844 C 81.74256896972656 79.96031188964844 81.74256896972656 79.96031188964844 81.74256896972656 79.96031188964844 C 82.2435073852539 80.16084289550781 82.71222686767578 80.47090911865234 83.0931625366211 80.85426330566406 C 84.5065689086914 82.9659194946289 85.92079162597656 85.07757568359375 87.33499908447266 87.18923950195312 C 88.4141845703125 89.73175811767578 85.76213073730469 91.50999450683594 83.82201385498047 89.54169464111328 C 82.80242919921875 88.01956176757812 81.7828369140625 86.49742889404297 80.76325225830078 84.97529602050781 C 78.58394622802734 86.44588470458984 76.40463256835938 87.91566467285156 74.22532653808594 89.38545227050781 C 74.01835632324219 89.69873809814453 73.94023132324219 90.12397003173828 74.01513671875 90.49201965332031 C 76.44812774658203 94.09923553466797 78.88031768798828 97.7072525024414 81.31331634521484 101.31446838378906 C 82.40055084228516 103.85376739501953 79.75413513183594 105.6392593383789 77.80757904052734 103.67820739746094 C 75.37458038330078 100.07098388671875 72.94158935546875 96.46377563476562 70.50859069824219 92.85575866699219 C 69.138671875 90.15296936035156 69.580810546875 87.86090850830078 71.87045288085938 85.87407684326172 C 74.63284301757812 84.01046752929688 77.39523315429688 82.14686584472656 80.15762329101562 80.28325653076172 C 80.65372467041016 80.07064056396484 81.20378112792969 79.95869445800781 81.74256896972656 79.96031188964844 C 81.74256896972656 79.96031188964844 81.74256896972656 79.96031188964844 81.74256896972656 79.96031188964844" stroke-width="0.0" fill="rgb(52, 55, 79)" opacity="1.0"/>
    <path d="M 77.40570068359375 96.6200180053711 C 77.40570068359375 96.6200180053711 77.40570068359375 96.6200180053711 77.40570068359375 96.6200180053711 C 77.90663146972656 96.82054901123047 78.37454986572266 97.13141632080078 78.75387573242188 97.51396942138672 C 79.60755920410156 98.78160858154297 80.46044158935547 100.0484390258789 81.31411743164062 101.31607818603516 C 82.40055084228516 103.85618591308594 79.75091552734375 105.64006042480469 77.80677795410156 103.67659759521484 C 77.34690856933594 102.99525451660156 76.88784790039062 102.31311798095703 76.42879486083984 101.63097381591797 C 74.20761108398438 103.12895202636719 71.98641967773438 104.62772369384766 69.76524353027344 106.12650299072266 C 69.68550872802734 106.48408508300781 69.60658264160156 106.84246826171875 69.52685546875 107.2000503540039 C 71.29864501953125 110.15975189208984 73.07044219970703 113.11945343017578 74.84304809570312 116.07915496826172 C 75.79337310791016 118.67322540283203 73.05352783203125 120.31375122070312 71.2156982421875 118.25041198730469 C 69.44309997558594 115.29071044921875 67.67049407958984 112.3302001953125 65.89789581298828 109.37049865722656 C 64.71078491210938 106.70877838134766 65.19883728027344 104.5286636352539 67.40069580078125 102.62075805664062 C 70.20657348632812 100.72816467285156 73.012451171875 98.83556365966797 75.8183364868164 96.9429702758789 C 76.31443786621094 96.73035430908203 76.86610412597656 96.61759948730469 77.40570068359375 96.6200180053711 C 77.40570068359375 96.6200180053711 77.40570068359375 96.6200180053711 77.40570068359375 96.6200180053711" stroke-width="0.0" fill="rgb(52, 55, 79)" opacity="1.0"/>
    <path d="M 107.22823333740234 41.019474029541016 C 107.22823333740234 41.019474029541016 107.22823333740234 41.019474029541016 107.22823333740234 41.019474029541016 C 117.9830322265625 41.35531234741211 126.80012512207031 48.26531219482422 129.4078826904297 58.7712516784668 C 129.4078826904297 58.7712516784668 129.4078826904297 58.7712516784668 129.4078826904297 58.7712516784668 C 136.17291259765625 56.53073501586914 143.57339477539062 58.9597053527832 147.0146942138672 65.43561553955078 C 147.919921875 67.13976287841797 148.30490112304688 68.90431213378906 148.54165649414062 70.80012512207031 C 148.54165649414062 70.80012512207031 148.54165649414062 70.80012512207031 148.54165649414062 70.80012512207031 C 153.8489990234375 71.36790466308594 157.6736602783203 74.54183959960938 159.031494140625 79.7203140258789 C 159.031494140625 79.7203140258789 159.031494140625 79.7203140258789 159.031494140625 79.7203140258789 C 170.79298400878906 84.43892669677734 177.17950439453125 97.83208465576172 172.1258544921875 109.81666564941406 C 169.6187744140625 115.7618408203125 164.4394989013672 120.63186645507812 158.28733825683594 122.61144256591797 C 156.85057067871094 123.07372283935547 154.55691528320312 123.93707275390625 153.03799438476562 123.5118408203125 C 151.26055908203125 123.01412200927734 150.9625701904297 120.5263671875 152.57008361816406 119.62113952636719 C 153.61947631835938 119.03080749511719 155.16334533691406 119.10972595214844 156.31581115722656 118.78517150878906 C 158.66505432128906 118.12397003173828 160.85403442382812 116.97794342041016 162.7393798828125 115.42761993408203 C 168.66281127929688 110.55760192871094 171.13043212890625 102.46855163574219 168.6861572265625 95.14942169189453 C 167.29530334472656 90.98168182373047 164.31869506835938 87.29312896728516 160.52462768554688 85.07516479492188 C 159.14987182617188 84.27140808105469 156.42776489257812 83.89289093017578 155.43637084960938 82.65746307373047 C 154.96441650390625 82.0687484741211 154.96522521972656 80.82284545898438 154.79287719726562 80.16487121582031 C 154.35073852539062 78.47119140625 153.22161865234375 77.01107788085938 151.75506591796875 76.07122039794922 C 150.645263671875 75.3616943359375 149.36312866210938 75.01942443847656 148.05038452148438 75.01860809326172 C 147.04771423339844 75.01780700683594 146.11752319335938 75.41726684570312 145.21310424804688 74.78666687011719 C 143.62010192871094 73.6768798828125 144.41177368164062 70.52791595458984 143.8939208984375 68.90914154052734 C 143.10467529296875 66.44715118408203 141.2313995361328 64.31214141845703 138.93853759765625 63.132286071777344 C 136.69802856445312 61.97900390625 133.96139526367188 61.774444580078125 131.5565948486328 62.505714416503906 C 130.03042602539062 62.969600677490234 128.2248077392578 64.87428283691406 126.57060241699219 63.7701301574707 C 125.5131607055664 63.06463623046875 125.62752532958984 61.71323776245117 125.45114135742188 60.62277603149414 C 125.13060760498047 58.639976501464844 124.49517822265625 56.711944580078125 123.53599548339844 54.94498062133789 C 119.79508972167969 48.052696228027344 111.99275207519531 44.26185989379883 104.27336883544922 45.4747314453125 C 99.99125671386719 46.14801788330078 95.97653198242188 48.422359466552734 93.1666259765625 51.72031021118164 C 92.17200469970703 52.88727951049805 91.2176513671875 55.65369415283203 89.81068420410156 56.29154586791992 C 88.76531982421875 56.76509475708008 87.1231918334961 56.05396270751953 86.02548217773438 56.07087326049805 C 82.29344177246094 56.12886047363281 78.88192749023438 58.13581848144531 77.15442657470703 61.490150451660156 C 76.21940612792969 63.307044982910156 75.91900634765625 65.43319702148438 76.2137680053711 67.4474105834961 C 76.44410705566406 69.01947021484375 78.04273986816406 71.08280944824219 76.71228790283203 72.54776763916016 C 75.92141723632812 73.41915893554688 74.6392822265625 73.23715209960938 73.60359191894531 73.35956573486328 C 72.0540771484375 73.5431900024414 70.52791595458984 73.91445922851562 69.07665252685547 74.48787689208984 C 61.569881439208984 77.45724487304688 56.906837463378906 85.21770477294922 57.522132873535156 93.19883728027344 C 57.86038589477539 97.57759094238281 59.830299377441406 101.75822448730469 62.947853088378906 104.848388671875 C 63.95858383178711 105.85026550292969 65.08930969238281 106.72810363769531 66.30459594726562 107.46742248535156 C 67.1856689453125 108.00299072265625 68.27371215820312 108.32272338867188 68.62565612792969 109.40593719482422 C 69.15718841552734 111.04322814941406 67.6439208984375 111.78174591064453 66.77171325683594 112.8448257446289 C 65.22138977050781 114.7333984375 64.86058807373047 117.48210144042969 65.7489013671875 119.7435531616211 C 66.37869262695312 121.34783172607422 67.66566467285156 122.73466491699219 69.21598052978516 123.48606872558594 C 70.70912170410156 124.20928192138672 74.94371032714844 124.25437927246094 73.43527221679688 127.21488189697266 C 72.73460388183594 128.58883666992188 71.23341369628906 128.41729736328125 69.9673843383789 128.166015625 C 67.67774200439453 127.7117919921875 65.63372802734375 126.51905059814453 64.04959106445312 124.8125 C 60.29660415649414 120.76878356933594 60.24666976928711 114.97420501708984 63.212013244628906 110.5076675415039 C 63.212013244628906 110.5076675415039 63.212013244628906 110.5076675415039 63.212013244628906 110.5076675415039 C 60.16694259643555 108.3025894165039 57.6646842956543 105.67227935791016 55.877586364746094 102.3372802734375 C 50.22153091430664 91.77738189697266 54.059078216552734 78.44381713867188 64.1937484741211 72.20951080322266 C 66.69600677490234 70.67047119140625 69.39154815673828 69.80711364746094 72.26185607910156 69.27397155761719 C 72.26185607910156 69.27397155761719 72.26185607910156 69.27397155761719 72.26185607910156 69.27397155761719 C 71.83502197265625 67.10432434082031 71.73756408691406 64.95964813232422 72.21917724609375 62.77872848510742 C 73.80252075195312 55.597320556640625 80.71896362304688 51.27977752685547 87.80613708496094 51.95547866821289 C 87.80613708496094 51.95547866821289 87.80613708496094 51.95547866821289 87.80613708496094 51.95547866821289 C 92.24126434326172 45.119571685791016 99.09246826171875 41.290077209472656 107.22823333740234 41.019474029541016 C 107.22823333740234 41.019474029541016 107.22823333740234 41.019474029541016 107.22823333740234 41.019474029541016" stroke-width="0.0" fill="rgb(52, 55, 79)" opacity="1.0"/>
    <path d="M 88.12184143066406 52.35091018676758 C 88.12184143066406 52.35091018676758 88.12184143066406 52.35091018676758 88.12184143066406 52.35091018676758 C 90.76905822753906 51.83064651489258 93.49842834472656 54.613975524902344 94.707275390625 56.73771286010742 C 95.4337158203125 58.01259994506836 94.75399780273438 59.69660949707031 93.24555206298828 59.9398307800293 C 91.64691162109375 60.197547912597656 91.12986755371094 58.77286148071289 90.2488021850586 57.806427001953125 C 89.11807250976562 56.5661735534668 85.05341339111328 55.12377166748047 87.42681884765625 52.79788589477539 C 87.62413024902344 52.60459899902344 87.89070129394531 52.49990463256836 88.12184143066406 52.35091018676758 C 88.12184143066406 52.35091018676758 88.12184143066406 52.35091018676758 88.12184143066406 52.35091018676758" stroke-width="0.0" fill="rgb(52, 55, 79)" opacity="1.0"/>
    <path d="M 127.10616302490234 59.99217987060547 C 127.10616302490234 59.99217987060547 127.10616302490234 59.99217987060547 127.10616302490234 59.99217987060547 C 127.3799819946289 59.95915985107422 127.65219116210938 59.8697624206543 127.92682647705078 59.89311981201172 C 131.31015014648438 60.180633544921875 129.06399536132812 63.91992950439453 128.53085327148438 65.48554992675781 C 128.06857299804688 66.84419250488281 128.29244995117188 68.87289428710938 126.60039520263672 69.41249084472656 C 125.12981414794922 69.88201904296875 123.79773712158203 68.6780014038086 123.84848022460938 67.21627044677734 C 123.92820739746094 64.92501831054688 125.0049819946289 61.13096237182617 127.10616302490234 59.99217987060547 C 127.10616302490234 59.99217987060547 127.10616302490234 59.99217987060547 127.10616302490234 59.99217987060547" stroke-width="0.0" fill="rgb(52, 55, 80)" opacity="1.0"/>
    <path d="M 74.81887817382812 69.03074645996094 C 74.81887817382812 69.03074645996094 74.81887817382812 69.03074645996094 74.81887817382812 69.03074645996094 C 75.357666015625 69.04766082763672 75.90370178222656 69.17893981933594 76.39175415039062 69.40927124023438 C 77.10932922363281 69.93114471435547 77.82771301269531 70.45301818847656 78.5452880859375 70.97489166259766 C 80.43708801269531 72.98990631103516 78.5589828491211 75.57028198242188 76.05913543701172 74.395263671875 C 75.34156036376953 73.8725814819336 74.62318420410156 73.3507080078125 73.90560150146484 72.8288345336914 C 72.53890228271484 71.37354278564453 72.94078063964844 69.70645141601562 74.81887817382812 69.03074645996094 C 74.81887817382812 69.03074645996094 74.81887817382812 69.03074645996094 74.81887817382812 69.03074645996094" stroke-width="0.0" fill="rgb(52, 55, 79)" opacity="1.0"/>
  </g>
</svg>
