<?xml version="1.0" ?>
<svg xmlns="http://www.w3.org/2000/svg" version="1.1" width="224" height="224">
  <defs/>
  <g>
    <path d="M 35.62689208984375 105.86373138427734 C 63.11372756958008 105.86373138427734 90.60055541992188 105.86373138427734 118.08739471435547 105.86373138427734 C 119.99559783935547 106.0374755859375 121.8228530883789 106.14508056640625 123.26905822753906 107.5912857055664 C 125.71231079101562 110.03453063964844 125.71231079101562 115.51432800292969 123.26905822753906 117.95659637451172 C 121.8228530883789 119.40379333496094 119.99559783935547 119.51040649414062 118.08739471435547 119.68414306640625 C 90.60055541992188 119.68414306640625 63.11372756958008 119.68414306640625 35.62689208984375 119.68414306640625 C 33.71770477294922 119.51040649414062 31.89044952392578 119.40379333496094 30.443252563476562 117.95659637451172 C 28.0 115.51432800292969 28.00098419189453 110.03453063964844 30.443252563476562 107.5912857055664 C 31.89044952392578 106.14408874511719 33.71770477294922 106.0374755859375 35.62689208984375 105.86373138427734 C 35.62689208984375 105.86373138427734 35.62689208984375 105.86373138427734 35.62689208984375 105.86373138427734" stroke-width="0.0" fill="rgb(19, 15, 38)" opacity="1.0"/>
    <path d="M 118.4309310913086 65.91878509521484 C 118.4309310913086 65.91878509521484 118.4309310913086 65.91878509521484 118.4309310913086 65.91878509521484 C 125.00056457519531 60.13888931274414 135.87623596191406 65.04315948486328 142.55545043945312 68.11326599121094 C 144.0362091064453 68.79441833496094 145.5130157470703 69.51800537109375 146.96316528320312 70.26234436035156 C 151.21986389160156 72.44892883300781 155.36007690429688 74.8586196899414 159.42721557617188 77.37788391113281 C 169.88433837890625 83.85372924804688 180.76100158691406 90.89918518066406 189.06114196777344 100.10653686523438 C 192.32473754882812 103.72848510742188 196.0 108.54193115234375 195.46493530273438 113.73346710205078 C 194.9447021484375 118.7828598022461 191.24774169921875 123.21822357177734 187.8982696533203 126.75033569335938 C 181.89328002929688 133.08204650878906 174.72247314453125 138.31307983398438 167.52597045898438 143.1936492919922 C 159.6621551513672 148.5263671875 151.51995849609375 153.6300506591797 142.870361328125 157.60243225097656 C 136.8634033203125 160.360595703125 128.81301879882812 163.86109924316406 122.08148956298828 161.7051239013672 C 114.90079498291016 159.40599060058594 113.6707763671875 149.37039184570312 112.76751708984375 143.08901977539062 C 112.57402801513672 141.73757934570312 112.40621185302734 140.371337890625 112.26011657714844 139.01397705078125 C 110.4693832397461 122.30608367919922 110.59672546386719 104.96441650390625 112.1939697265625 88.24566650390625 C 112.87117004394531 81.15579223632812 113.3884506225586 71.53184509277344 118.4309310913086 65.91878509521484 C 118.4309310913086 65.91878509521484 118.4309310913086 65.91878509521484 118.4309310913086 65.91878509521484" stroke-width="0.0" fill="rgb(19, 15, 38)" opacity="1.0"/>
    <path d="M 128.2039337158203 75.69178771972656 C 128.2039337158203 75.69178771972656 128.2039337158203 75.69178771972656 128.2039337158203 75.69178771972656 C 126.26118469238281 78.20907592773438 126.24242401123047 82.4795913696289 125.9571304321289 85.48059844970703 C 125.21083068847656 93.30196380615234 125.09434509277344 101.1904525756836 125.02227783203125 109.04144287109375 C 124.93244934082031 118.93587493896484 124.88111114501953 128.89645385742188 125.7300796508789 138.7642059326172 C 125.97193908691406 141.57568359375 126.2414321899414 144.45724487304688 127.00550842285156 147.185791015625 C 127.23255920410156 147.99822998046875 127.52970123291016 149.1581573486328 128.2039337158203 149.7455291748047 C 128.88706970214844 150.34078979492188 130.87916564941406 149.20358276367188 131.45765686035156 148.9390106201172 C 134.92953491210938 147.35557556152344 138.2247314453125 145.3526153564453 141.4883270263672 143.38714599609375 C 151.81118774414062 137.16993713378906 162.12318420410156 130.69309997558594 171.70962524414062 123.37617492675781 C 174.14793395996094 121.51535034179688 176.57044982910156 119.58444213867188 178.72544860839844 117.39390563964844 C 179.8350372314453 116.26655578613281 181.19732666015625 114.8963623046875 181.61489868164062 113.3089828491211 C 182.33456420898438 110.57550811767578 178.0492401123047 107.45011901855469 176.37301635742188 106.00983428955078 C 168.77574157714844 99.48067474365234 160.10836791992188 94.13809967041016 151.66212463378906 88.80144500732422 C 145.7973175048828 85.0946044921875 139.91969299316406 81.36408233642578 133.83575439453125 78.02349853515625 C 132.6156005859375 77.35418701171875 129.74095153808594 75.21794891357422 128.2039337158203 75.69178771972656 C 128.2039337158203 75.69178771972656 128.2039337158203 75.69178771972656 128.2039337158203 75.69178771972656" stroke-width="0.0" fill="rgb(254, 254, 254)" opacity="1.0"/>
  </g>
</svg>
