<?xml version="1.0" ?>
<svg xmlns="http://www.w3.org/2000/svg" version="1.1" width="224" height="224">
  <defs/>
  <g>
    <path d="M 112.00044250488281 28.06475067138672 C 112.00044250488281 28.06475067138672 112.00044250488281 28.06475067138672 112.00044250488281 28.06475067138672 C 133.66650390625 28.178062438964844 159.46124267578125 30.29052734375 176.12176513671875 45.9393310546875 C 185.25869750976562 54.521392822265625 190.11224365234375 66.62513732910156 192.76519775390625 78.64794158935547 C 194.35516357421875 85.85676574707031 195.2086181640625 93.21846771240234 195.62408447265625 100.58377838134766 C 195.92625427246094 105.94003295898438 196.0 111.30978393554688 195.88400268554688 116.67323303222656 C 195.431640625 137.7070770263672 192.34613037109375 162.81924438476562 176.12176513671875 178.05886840820312 C 159.51791381835938 193.6546173095703 133.61883544921875 195.93524169921875 112.00044250488281 195.93524169921875 C 90.38116455078125 195.93524169921875 64.48208618164062 193.6546173095703 47.87823486328125 178.05886840820312 C 31.65387725830078 162.81924438476562 28.56836700439453 137.7070770263672 28.116004943847656 116.67323303222656 C 28.0 111.30978393554688 28.073745727539062 105.94003295898438 28.37590789794922 100.58377838134766 C 28.7913818359375 93.21846771240234 29.64482879638672 85.85676574707031 31.23479461669922 78.64794158935547 C 33.88774108886719 66.62513732910156 38.741294860839844 54.521392822265625 47.87823486328125 45.9393310546875 C 64.53964233398438 30.29052734375 90.33440399169922 28.178062438964844 112.00044250488281 28.06475067138672 C 112.00044250488281 28.06475067138672 112.00044250488281 28.06475067138672 112.00044250488281 28.06475067138672" stroke-width="0.0" fill="rgb(19, 15, 38)" opacity="1.0"/>
    <path d="M 112.00044250488281 40.6550178527832 C 112.00044250488281 40.6550178527832 112.00044250488281 40.6550178527832 112.00044250488281 40.6550178527832 C 99.85623931884766 40.721561431884766 87.50428771972656 41.46349334716797 75.78814697265625 44.89883804321289 C 68.87699890136719 46.92496871948242 62.05126953125 49.98350524902344 56.71119689941406 54.91798782348633 C 48.99516677856445 62.04767608642578 45.284637451171875 72.53446197509766 43.223426818847656 82.57789611816406 C 41.24225616455078 92.23643493652344 40.65681457519531 102.15756225585938 40.65681457519531 111.99864959716797 C 40.65681457519531 121.8397445678711 41.24225616455078 131.76177978515625 43.223426818847656 141.41940307617188 C 45.284637451171875 151.46372985839844 48.99516677856445 161.951416015625 56.71119689941406 169.08111572265625 C 62.05126953125 174.01559448242188 68.87699890136719 177.07504272460938 75.78814697265625 179.10116577148438 C 87.47821044921875 182.52841186523438 99.87782287597656 183.34498596191406 112.00044250488281 183.34498596191406 C 124.12307739257812 183.34498596191406 136.52267456054688 182.52932739257812 148.21185302734375 179.10116577148438 C 155.1230010986328 177.07504272460938 161.94873046875 174.01559448242188 167.28878784179688 169.08111572265625 C 175.00482177734375 161.951416015625 178.71536254882812 151.46372985839844 180.7765655517578 141.41940307617188 C 182.7577362060547 131.76177978515625 183.3431854248047 121.8397445678711 183.3431854248047 111.99864959716797 C 183.3431854248047 102.15756225585938 182.7577362060547 92.23643493652344 180.7765655517578 82.57789611816406 C 178.71536254882812 72.5335693359375 175.00393676757812 62.04767608642578 167.28878784179688 54.91798782348633 C 161.94873046875 49.98350524902344 155.1230010986328 46.92496871948242 148.21185302734375 44.89883804321289 C 136.49661254882812 41.46349334716797 124.14466094970703 40.721561431884766 112.00044250488281 40.6550178527832 C 112.00044250488281 40.6550178527832 112.00044250488281 40.6550178527832 112.00044250488281 40.6550178527832" stroke-width="0.0" fill="rgb(254, 254, 254)" opacity="1.0"/>
    <path d="M 112.00044250488281 105.70352172851562 C 112.00044250488281 105.70352172851562 112.00044250488281 105.70352172851562 112.00044250488281 105.70352172851562 C 112.64165496826172 105.76107788085938 113.2927474975586 105.75208282470703 113.92405700683594 105.87798309326172 C 117.19842529296875 106.53267669677734 118.02578735351562 109.03364562988281 118.294677734375 111.99864959716797 C 118.294677734375 122.89642333984375 118.294677734375 133.7932891845703 118.294677734375 144.69107055664062 C 118.1373062133789 146.42942810058594 118.03927612304688 148.0940399169922 116.72179412841797 149.41152954101562 C 114.49601745605469 151.63729858398438 109.50397491455078 151.63729858398438 107.27909851074219 149.41152954101562 C 105.96072387695312 148.0940399169922 105.8626937866211 146.42942810058594 105.70531463623047 144.69107055664062 C 105.70531463623047 133.7932891845703 105.70531463623047 122.89642333984375 105.70531463623047 111.99864959716797 C 105.97421264648438 109.03274536132812 106.80156707763672 106.53267669677734 110.07683563232422 105.87798309326172 C 110.70814514160156 105.75208282470703 111.35924530029297 105.76107788085938 112.00044250488281 105.70352172851562 C 112.00044250488281 105.70352172851562 112.00044250488281 105.70352172851562 112.00044250488281 105.70352172851562" stroke-width="0.0" fill="rgb(19, 15, 38)" opacity="1.0"/>
    <path d="M 111.96177673339844 76.32593536376953 C 111.9860610961914 76.32593536376953 112.01123809814453 76.32593536376953 112.0355224609375 76.32593536376953 C 113.77387237548828 76.48421478271484 115.43848419189453 76.58133697509766 116.75686645507812 77.89971923828125 C 118.98175048828125 80.12459564208984 118.98175048828125 85.11663818359375 116.75686645507812 87.34241485595703 C 115.52212524414062 88.57626342773438 113.7091293334961 88.91619873046875 112.0355224609375 88.91619873046875 C 110.34483337402344 88.91619873046875 108.5030517578125 88.5843505859375 107.24942016601562 87.34241485595703 C 105.01105499267578 85.12382507324219 105.0146484375 80.12459564208984 107.24042510986328 77.89971923828125 C 108.55791473388672 76.58133697509766 110.22341918945312 76.48421478271484 111.96177673339844 76.32593536376953 C 111.96177673339844 76.32593536376953 111.96177673339844 76.32593536376953 111.96177673339844 76.32593536376953" stroke-width="0.0" fill="rgb(20, 16, 39)" opacity="1.0"/>
  </g>
</svg>
