<?xml version="1.0" ?>
<svg xmlns="http://www.w3.org/2000/svg" version="1.1" width="224" height="224">
  <defs/>
  <g>
    <path d="M 111.25331115722656 28.0 C 111.25331115722656 28.0 111.25331115722656 28.0 111.25331115722656 28.0 C 114.95296478271484 28.298675537109375 118.21102142333984 29.881912231445312 119.98339080810547 33.309425354003906 C 120.56876373291016 34.44165802001953 122.40447235107422 39.229896545410156 119.67615509033203 39.229896545410156 C 118.00990295410156 39.229896545410156 118.3197021484375 37.2178955078125 118.08778381347656 36.21745300292969 C 117.8541488647461 35.20417785644531 117.3800277709961 34.24653625488281 116.73046875 33.43608093261719 C 113.96450805664062 29.98461151123047 108.54125213623047 29.98290252685547 105.7752914428711 33.43608093261719 C 104.69184112548828 34.78825378417969 104.4256820678711 36.160118103027344 104.23312377929688 37.82637023925781 C 104.23312377929688 46.69253158569336 104.23312377929688 55.557830810546875 104.23312377929688 64.42313385009766 C 103.49627685546875 66.19294738769531 102.15693664550781 66.19978332519531 101.42351531982422 64.42313385009766 C 101.42351531982422 55.557830810546875 101.42351531982422 46.69253158569336 101.42351531982422 37.82637023925781 C 101.8813705444336 32.145530700683594 105.57331848144531 28.457855224609375 111.25331115722656 28.0 C 111.25331115722656 28.0 111.25331115722656 28.0 111.25331115722656 28.0" stroke-width="0.0" fill="rgb(102, 169, 247)" opacity="1.0"/>
    <path d="M 180.79702758789062 177.643798828125 C 180.79702758789062 177.643798828125 180.79702758789062 177.643798828125 180.79702758789062 177.643798828125 C 181.73155212402344 178.03062438964844 182.93568420410156 178.89755249023438 181.7906036376953 180.0400390625 C 181.25230407714844 180.57662963867188 179.6981658935547 180.52871704101562 179.18040466308594 180.6690673828125 C 176.5701904296875 181.3759765625 174.7147979736328 183.83984375 174.7147979736328 186.53561401367188 C 174.7147979736328 189.23226928710938 176.5684814453125 191.69613647460938 179.18040466308594 192.4030303955078 C 179.69729614257812 192.54254150390625 181.253173828125 192.49461364746094 181.7906036376953 193.03204345703125 C 182.73712158203125 193.97857666015625 181.96006774902344 195.31021118164062 180.79702758789062 195.43002319335938 C 175.27963256835938 195.9991455078125 171.158935546875 189.89723205566406 172.04811096191406 184.93783569335938 C 172.84742736816406 180.4842071533203 176.54623413085938 178.02548217773438 180.79702758789062 177.643798828125 C 180.79702758789062 177.643798828125 180.79702758789062 177.643798828125 180.79702758789062 177.643798828125" stroke-width="0.0" fill="rgb(103, 170, 247)" opacity="1.0"/>
    <path d="M 42.802467346191406 177.643798828125 C 42.802467346191406 177.643798828125 42.802467346191406 177.643798828125 42.802467346191406 177.643798828125 C 47.054115295410156 178.02548217773438 50.75205612182617 180.48336791992188 51.5513801574707 184.93783569335938 C 52.440555572509766 189.89808654785156 48.321563720703125 196.0 42.802467346191406 195.43002319335938 C 41.639427185058594 195.31021118164062 40.86748504638672 193.97686767578125 41.810585021972656 193.03204345703125 C 42.34632110595703 192.49374389648438 43.90473937988281 192.54254150390625 44.420799255371094 192.4030303955078 C 47.03271484375 191.69699096679688 48.88810348510742 189.23312377929688 48.88810348510742 186.53561401367188 C 48.88810348510742 183.8389892578125 47.03186798095703 181.37510681152344 44.420799255371094 180.6690673828125 C 43.903892517089844 180.52957153320312 42.34718322753906 180.57749938964844 41.810585021972656 180.0400390625 C 40.66893768310547 178.89840698242188 41.86878204345703 178.03146362304688 42.802467346191406 177.643798828125 C 42.802467346191406 177.643798828125 42.802467346191406 177.643798828125 42.802467346191406 177.643798828125" stroke-width="0.0" fill="rgb(104, 170, 247)" opacity="1.0"/>
    <path d="M 119.78998565673828 42.17985916137695 C 119.78998565673828 42.17985916137695 119.78998565673828 42.17985916137695 119.78998565673828 42.17985916137695 C 121.57006072998047 43.036521911621094 124.23931884765625 46.361331939697266 124.00397491455078 48.642913818359375 C 123.76776885986328 50.926204681396484 122.26240539550781 52.85262680053711 119.78655242919922 52.85262680053711 C 117.31070709228516 52.85262680053711 115.81219482421875 50.91936111450195 115.57684326171875 48.639488220214844 C 115.34063720703125 46.35619354248047 118.00733947753906 43.034812927246094 119.78998565673828 42.17985916137695 C 119.78998565673828 42.17985916137695 119.78998565673828 42.17985916137695 119.78998565673828 42.17985916137695" stroke-width="0.0" fill="rgb(103, 169, 247)" opacity="1.0"/>
    <path d="M 69.90757751464844 71.53746032714844 C 69.90757751464844 71.53746032714844 69.90757751464844 71.53746032714844 69.90757751464844 71.53746032714844 C 68.65553283691406 71.33547973632812 68.26785278320312 71.42706298828125 67.21435546875 70.65768432617188 C 64.76417541503906 68.86904907226562 64.76417541503906 65.08381652832031 67.21435546875 63.29603576660156 C 68.26785278320312 62.52666473388672 68.65553283691406 62.61823654174805 69.90757751464844 62.41626739501953 C 98.25531768798828 62.41626739501953 126.60391998291016 62.41626739501953 154.95166015625 62.41626739501953 C 156.20285034179688 62.61823654174805 156.5896759033203 62.52666473388672 157.64230346679688 63.29603576660156 C 160.0916290283203 65.08467102050781 160.0907745361328 68.86904907226562 157.64230346679688 70.65768432617188 C 156.5896759033203 71.42706298828125 156.20285034179688 71.33547973632812 154.95166015625 71.53746032714844 C 126.60391998291016 71.53746032714844 98.25531768798828 71.53746032714844 69.90757751464844 71.53746032714844" stroke-width="0.0" fill="rgb(254, 254, 255)" opacity="1.0"/>
    <path d="M 29.682090759277344 116.44762420654297 C 84.59664154052734 116.44762420654297 139.5111846923828 116.44762420654297 194.42575073242188 116.44762420654297 C 195.0367889404297 116.70094299316406 195.57594299316406 117.24009704589844 195.82925415039062 117.85114288330078 C 195.82925415039062 136.39134216308594 195.82925415039062 154.93154907226562 195.82925415039062 173.47174072265625 C 195.34744262695312 177.62582397460938 192.96316528320312 180.01010131835938 188.80908203125 180.49191284179688 C 137.63868713378906 180.49191284179688 86.46829223632812 180.49191284179688 35.29875183105469 180.49191284179688 C 31.143814086914062 180.01010131835938 28.75952911376953 177.62582397460938 28.27857208251953 173.47174072265625 C 28.27857208251953 154.93154907226562 28.27857208251953 136.39134216308594 28.27857208251953 117.85114288330078 C 28.531036376953125 117.24009704589844 29.0701904296875 116.70094299316406 29.682090759277344 116.44762420654297 C 29.682090759277344 116.44762420654297 29.682090759277344 116.44762420654297 29.682090759277344 116.44762420654297" stroke-width="0.0" fill="rgb(102, 169, 247)" opacity="1.0"/>
    <path d="M 119.78655242919922 45.95225524902344 C 119.78655242919922 45.95225524902344 119.78655242919922 45.95225524902344 119.78655242919922 45.95225524902344 C 119.67615509033203 46.134544372558594 118.3830337524414 48.04042434692383 118.3838882446289 48.642913818359375 C 118.38731384277344 50.45807647705078 121.1917953491211 50.45722579956055 121.1935043334961 48.642913818359375 C 121.1943588256836 48.04042434692383 119.90294647216797 46.13711166381836 119.78998565673828 45.95225524902344 C 119.78998565673828 45.95225524902344 119.78998565673828 45.95225524902344 119.78998565673828 45.95225524902344 C 119.78998565673828 45.95225524902344 119.78655242919922 45.95225524902344 119.78655242919922 45.95225524902344" stroke-width="0.0" fill="rgb(255, 255, 255)" opacity="1.0"/>
    <path d="M 69.90757751464844 61.01188659667969 C 98.25531768798828 61.01188659667969 126.60391998291016 61.01188659667969 154.95166015625 61.01188659667969 C 157.6226348876953 61.3713264465332 159.93930053710938 62.573734283447266 160.70181274414062 65.39105224609375 C 161.65518188476562 68.91268920898438 158.8789520263672 73.24221801757812 154.95166015625 72.94097900390625 C 153.77149963378906 72.85025787353516 153.02780151367188 71.472412109375 153.95721435546875 70.54471588134766 C 154.2926788330078 70.21095275878906 156.39369201660156 69.78904724121094 156.5426025390625 69.70346069335938 C 158.59140014648438 68.52672576904297 158.59140014648438 65.42613983154297 156.5426025390625 64.24940490722656 C 156.06591796875 63.976402282714844 155.4813995361328 63.96270751953125 154.95166015625 63.818931579589844 C 126.60391998291016 63.818931579589844 98.25531768798828 63.818931579589844 69.90757751464844 63.818931579589844 C 69.3761215209961 63.96270751953125 68.7916030883789 63.976402282714844 68.3140640258789 64.24940490722656 C 66.2626953125 65.42613983154297 66.2626953125 68.52672576904297 68.3140640258789 69.70346069335938 C 68.46212005615234 69.7881851196289 70.56483459472656 70.20924377441406 70.89945983886719 70.54471588134766 C 71.8245849609375 71.4698486328125 71.08773040771484 72.85025787353516 69.90757751464844 72.94097900390625 C 65.97856140136719 73.24221801757812 63.20318603515625 68.91441345214844 64.15655517578125 65.39105224609375 C 64.91822814941406 62.572021484375 67.23489379882812 61.3713264465332 69.90757751464844 61.01188659667969 C 69.90757751464844 61.01188659667969 69.90757751464844 61.01188659667969 69.90757751464844 61.01188659667969" stroke-width="0.0" fill="rgb(102, 169, 247)" opacity="1.0"/>
    <path d="M 29.682090759277344 117.85114288330078 C 84.59664154052734 117.85114288330078 139.5111846923828 117.85114288330078 194.42575073242188 117.85114288330078 C 194.42575073242188 136.39134216308594 194.42575073242188 154.93154907226562 194.42575073242188 173.47174072265625 C 193.982421875 176.83163452148438 192.16812133789062 178.6450958251953 188.80908203125 179.08839416503906 C 137.63868713378906 179.08839416503906 86.46829223632812 179.08839416503906 35.29875183105469 179.08839416503906 C 31.927734375 178.63482666015625 30.134811401367188 176.84190368652344 29.682090759277344 173.47174072265625 C 29.682090759277344 154.93154907226562 29.682090759277344 136.39134216308594 29.682090759277344 117.85114288330078" stroke-width="0.0" fill="rgb(102, 169, 247)" opacity="1.0"/>
    <path d="M 154.55029296875 71.57083129882812 C 154.55029296875 71.57083129882812 154.55029296875 71.57083129882812 154.55029296875 71.57083129882812 C 154.44244384765625 75.98336791992188 153.7150115966797 80.25213623046875 152.0513153076172 84.3591537475586 C 150.6315460205078 87.86454010009766 148.63836669921875 91.12772369384766 146.2147216796875 94.0289077758789 C 127.30396270751953 116.66414642333984 86.1482162475586 113.46342468261719 73.44804382324219 85.8414077758789 C 71.36672973632812 81.3133316040039 70.43047332763672 76.53279876708984 70.30894470214844 71.57083129882812 C 98.38967895507812 71.57083129882812 126.46955108642578 71.57083129882812 154.55029296875 71.57083129882812" stroke-width="0.0" fill="rgb(222, 236, 255)" opacity="1.0"/>
    <path d="M 69.90415954589844 61.94813919067383 C 69.90415954589844 61.94813919067383 69.90415954589844 61.94813919067383 69.90415954589844 61.94813919067383 C 70.95764923095703 63.00164031982422 69.439453125 62.82619857788086 68.66409301757812 63.07181167602539 C 68.17628479003906 63.226715087890625 67.7577896118164 63.88226318359375 67.27169036865234 63.72222900390625 C 65.73551940917969 63.21559143066406 68.33717346191406 62.19632339477539 68.38081359863281 62.18263244628906 C 68.8711929321289 62.02687454223633 69.39665985107422 62.02602005004883 69.90415954589844 61.94813919067383 C 69.90415954589844 61.94813919067383 69.90415954589844 61.94813919067383 69.90415954589844 61.94813919067383" stroke-width="0.0" fill="rgb(102, 169, 247)" opacity="1.0"/>
    <path d="M 154.95166015625 61.95156478881836 C 154.95166015625 61.95156478881836 154.95166015625 61.95156478881836 154.95166015625 61.95156478881836 C 155.4591522216797 62.029441833496094 155.984619140625 62.030296325683594 156.47415161132812 62.18605422973633 C 156.5152130126953 62.19889450073242 159.1168670654297 63.21986770629883 157.58412170410156 63.725650787353516 C 157.09716796875 63.885684967041016 156.67953491210938 63.23013687133789 156.19085693359375 63.07523727416992 C 155.41722106933594 62.829620361328125 153.89645385742188 63.00420379638672 154.95166015625 61.95156478881836 C 154.95166015625 61.95156478881836 154.95166015625 61.95156478881836 154.95166015625 61.95156478881836" stroke-width="0.0" fill="rgb(102, 169, 247)" opacity="1.0"/>
    <path d="M 31.084762573242188 119.26151275634766 C 31.084762573242188 137.33187866210938 31.084762573242188 155.40138244628906 31.084762573242188 173.47174072265625 C 31.623062133789062 176.12301635742188 32.6466064453125 177.1457061767578 35.29875183105469 177.68402099609375 C 86.46829223632812 177.68402099609375 137.63868713378906 177.68402099609375 188.80908203125 177.68402099609375 C 191.4603729248047 177.1457061767578 192.48391723632812 176.12387084960938 193.018798828125 173.47174072265625 C 193.018798828125 155.40138244628906 193.018798828125 137.33187866210938 193.018798828125 119.26151275634766 C 139.04135131835938 119.26151275634766 85.06305694580078 119.26151275634766 31.084762573242188 119.26151275634766" stroke-width="0.0" fill="rgb(222, 236, 255)" opacity="1.0"/>
    <path d="M 70.30552673339844 70.16730499267578 C 70.30552673339844 70.16730499267578 70.30552673339844 70.16730499267578 70.30552673339844 70.16730499267578 C 72.55201721191406 71.10185241699219 71.75782775878906 74.36589813232422 72.08047485351562 76.4788818359375 C 72.72831726074219 80.71255493164062 74.23110961914062 84.79389953613281 76.42283630371094 88.46958923339844 C 85.15975952148438 103.12185668945312 103.2823257446289 109.8425064086914 119.7352066040039 107.18351745605469 C 131.3553466796875 105.30502319335938 142.33450317382812 98.69049072265625 148.4287109375 88.46958923339844 C 150.62042236328125 84.79389953613281 152.12319946289062 80.71255493164062 152.77105712890625 76.4788818359375 C 152.93536376953125 75.40142059326172 153.0457763671875 74.3171157836914 153.1013946533203 73.22853088378906 C 153.13392639160156 72.58154296875 152.94308471679688 71.19427490234375 153.55755615234375 70.57980346679688 C 155.54815673828125 68.58920288085938 155.9606475830078 72.25462341308594 155.91615295410156 73.21826171875 C 155.7176055908203 77.54864501953125 154.7154541015625 81.82852935791016 152.98158264160156 85.80118560791016 C 141.17486572265625 112.84724426269531 102.82960510253906 118.10189819335938 81.70572662353516 99.203125 C 75.50797271728516 93.6583480834961 71.02354431152344 86.28557586669922 69.49593353271484 78.068115234375 C 69.07830047607422 75.82333374023438 67.7098617553711 71.24476623535156 70.30552673339844 70.16730499267578 C 70.30552673339844 70.16730499267578 70.30552673339844 70.16730499267578 70.30552673339844 70.16730499267578" stroke-width="0.0" fill="rgb(103, 169, 247)" opacity="1.0"/>
    <path d="M 143.70721435546875 71.0701904296875 C 145.6045379638672 71.0701904296875 147.50100708007812 71.0701904296875 149.39833068847656 71.0701904296875 C 149.5540771484375 71.22593688964844 149.8656005859375 71.3175048828125 149.8656005859375 71.53746032714844 C 149.8656005859375 71.75825500488281 149.5540771484375 71.84896850585938 149.39833068847656 72.00472259521484 C 147.50100708007812 72.00472259521484 145.6045379638672 72.00472259521484 143.70721435546875 72.00472259521484 C 143.55145263671875 71.84896850585938 143.23907470703125 71.75825500488281 143.23907470703125 71.53746032714844 C 143.23907470703125 71.3175048828125 143.55145263671875 71.22593688964844 143.70721435546875 71.0701904296875 C 143.70721435546875 71.0701904296875 143.70721435546875 71.0701904296875 143.70721435546875 71.0701904296875" stroke-width="0.0" fill="rgb(120, 179, 248)" opacity="1.0"/>
    <path d="M 132.3335418701172 71.0701904296875 C 134.23001098632812 71.0701904296875 136.12733459472656 71.0701904296875 138.02464294433594 71.0701904296875 C 138.180419921875 71.22593688964844 138.49192810058594 71.3175048828125 138.49192810058594 71.53746032714844 C 138.49192810058594 71.75825500488281 138.180419921875 71.84896850585938 138.02464294433594 72.00472259521484 C 136.12733459472656 72.00472259521484 134.23001098632812 72.00472259521484 132.3335418701172 72.00472259521484 C 132.1777801513672 71.84896850585938 131.86541748046875 71.75825500488281 131.86541748046875 71.53746032714844 C 131.86541748046875 71.3175048828125 132.1777801513672 71.22593688964844 132.3335418701172 71.0701904296875 C 132.3335418701172 71.0701904296875 132.3335418701172 71.0701904296875 132.3335418701172 71.0701904296875" stroke-width="0.0" fill="rgb(120, 179, 248)" opacity="1.0"/>
    <path d="M 120.95901489257812 71.0701904296875 C 122.85548400878906 71.0701904296875 124.75109100341797 71.0701904296875 126.64669799804688 71.0701904296875 C 126.80245971679688 71.22593688964844 127.11482238769531 71.3175048828125 127.11482238769531 71.53746032714844 C 127.11482238769531 71.75825500488281 126.80245971679688 71.84896850585938 126.64669799804688 72.00472259521484 C 124.75023651123047 72.00472259521484 122.85377502441406 72.00472259521484 120.9564437866211 72.00472259521484 C 120.80239868164062 71.84896850585938 120.49174499511719 71.75739288330078 120.49259948730469 71.53746032714844 C 120.49259948730469 71.3175048828125 120.80410766601562 71.22593688964844 120.95901489257812 71.0701904296875 C 120.95901489257812 71.0701904296875 120.95901489257812 71.0701904296875 120.95901489257812 71.0701904296875" stroke-width="0.0" fill="rgb(224, 238, 253)" opacity="1.0"/>
    <path d="M 109.58277130126953 71.0701904296875 C 111.479248046875 71.0701904296875 113.3765640258789 71.0701904296875 115.27303314208984 71.0701904296875 C 115.42879486083984 71.22593688964844 115.74115753173828 71.3175048828125 115.74115753173828 71.53746032714844 C 115.74030303955078 71.75910949707031 115.42622375488281 71.84896850585938 115.26960754394531 72.00472259521484 C 113.3731460571289 72.00472259521484 111.47581481933594 72.00472259521484 109.57935333251953 72.00472259521484 C 109.42445373535156 71.84896850585938 109.1137924194336 71.75739288330078 109.11465454101562 71.53746032714844 C 109.11550903320312 71.3175048828125 109.42701721191406 71.22593688964844 109.58277130126953 71.0701904296875 C 109.58277130126953 71.0701904296875 109.58277130126953 71.0701904296875 109.58277130126953 71.0701904296875" stroke-width="0.0" fill="rgb(120, 179, 248)" opacity="1.0"/>
    <path d="M 98.20568084716797 71.0701904296875 C 100.10128784179688 71.0701904296875 101.99690246582031 71.0701904296875 103.89166259765625 71.0701904296875 C 104.04827117919922 71.22593688964844 104.35978698730469 71.3175048828125 104.35978698730469 71.53746032714844 C 104.35978698730469 71.75825500488281 104.04827117919922 71.84896850585938 103.89166259765625 72.00472259521484 C 101.99519348144531 72.00472259521484 100.09872436523438 72.00472259521484 98.20226287841797 72.00472259521484 C 98.04736328125 71.84896850585938 97.7366943359375 71.75739288330078 97.737548828125 71.53746032714844 C 97.73841094970703 71.3175048828125 98.0499267578125 71.22593688964844 98.20568084716797 71.0701904296875 C 98.20568084716797 71.0701904296875 98.20568084716797 71.0701904296875 98.20568084716797 71.0701904296875" stroke-width="0.0" fill="rgb(120, 179, 248)" opacity="1.0"/>
    <path d="M 86.82772827148438 71.0701904296875 C 88.72419738769531 71.0701904296875 90.61981201171875 71.0701904296875 92.51541900634766 71.0701904296875 C 92.67117309570312 71.22593688964844 92.9826889038086 71.3175048828125 92.9826889038086 71.53746032714844 C 92.9826889038086 71.75825500488281 92.67117309570312 71.84896850585938 92.51541900634766 72.00472259521484 C 90.61895751953125 72.00472259521484 88.72163391113281 72.00472259521484 86.82430267333984 72.00472259521484 C 86.67025756835938 71.84896850585938 86.35960388183594 71.75739288330078 86.36045837402344 71.53746032714844 C 86.36131286621094 71.3175048828125 86.67196655273438 71.22593688964844 86.82772827148438 71.0701904296875 C 86.82772827148438 71.0701904296875 86.82772827148438 71.0701904296875 86.82772827148438 71.0701904296875" stroke-width="0.0" fill="rgb(120, 179, 248)" opacity="1.0"/>
    <path d="M 75.45063781738281 71.0701904296875 C 77.34625244140625 71.0701904296875 79.24271392822266 71.0701904296875 81.1383285522461 71.0701904296875 C 81.29493713378906 71.22593688964844 81.60902404785156 71.316650390625 81.60902404785156 71.53746032714844 C 81.60902404785156 71.75910949707031 81.29493713378906 71.84896850585938 81.1383285522461 72.00472259521484 C 79.24271392822266 72.00472259521484 77.34625244140625 72.00472259521484 75.45063781738281 72.00472259521484 C 75.29487609863281 71.84896850585938 74.98251342773438 71.75825500488281 74.98251342773438 71.53746032714844 C 74.98251342773438 71.3175048828125 75.29487609863281 71.22593688964844 75.45063781738281 71.0701904296875 C 75.45063781738281 71.0701904296875 75.45063781738281 71.0701904296875 75.45063781738281 71.0701904296875" stroke-width="0.0" fill="rgb(224, 238, 253)" opacity="1.0"/>
    <path d="M 112.17586517333984 164.78358459472656 C 112.17586517333984 164.78358459472656 112.17586517333984 164.78358459472656 112.17586517333984 164.78358459472656 C 112.33162689208984 164.9393310546875 112.48738098144531 165.0950927734375 112.64313507080078 165.251708984375 C 112.64313507080078 167.08998107910156 112.64313507080078 168.92910766601562 112.64313507080078 170.76739501953125 C 112.48738098144531 170.92230224609375 112.39495849609375 171.23294067382812 112.17586517333984 171.23208618164062 C 111.95507049560547 171.23123168945312 111.8635025024414 170.9205780029297 111.7077407836914 170.76397705078125 C 111.7077407836914 168.92654418945312 111.7077407836914 167.08912658691406 111.7077407836914 165.251708984375 C 111.8635025024414 165.0950927734375 112.01925659179688 164.9393310546875 112.17586517333984 164.78358459472656 C 112.17586517333984 164.78358459472656 112.17586517333984 164.78358459472656 112.17586517333984 164.78358459472656" stroke-width="0.0" fill="rgb(130, 185, 249)" opacity="1.0"/>
    <path d="M 112.17586517333984 153.7539520263672 C 112.17586517333984 153.7539520263672 112.17586517333984 153.7539520263672 112.17586517333984 153.7539520263672 C 112.33162689208984 153.91055297851562 112.48738098144531 154.06631469726562 112.64313507080078 154.22207641601562 C 112.64313507080078 156.0612030029297 112.64313507080078 157.89947509765625 112.64313507080078 159.7386016845703 C 112.36328887939453 160.4095458984375 112.1818618774414 160.2127227783203 111.7077407836914 159.7351837158203 C 111.7077407836914 157.89605712890625 111.7077407836914 156.0577850341797 111.7077407836914 154.21865844726562 C 111.8635025024414 154.06375122070312 112.01925659179688 153.90884399414062 112.17586517333984 153.7539520263672 C 112.17586517333984 153.7539520263672 112.17586517333984 153.7539520263672 112.17586517333984 153.7539520263672" stroke-width="0.0" fill="rgb(130, 185, 249)" opacity="1.0"/>
    <path d="M 112.17586517333984 142.72430419921875 C 112.17586517333984 142.72430419921875 112.17586517333984 142.72430419921875 112.17586517333984 142.72430419921875 C 112.33162689208984 142.88006591796875 112.48738098144531 143.03582763671875 112.64313507080078 143.19158935546875 C 112.64313507080078 145.0307159423828 112.64313507080078 146.86984252929688 112.64313507080078 148.70811462402344 C 112.36585998535156 149.37991333007812 112.1827163696289 149.18307495117188 111.7077407836914 148.70811462402344 C 111.7077407836914 146.86984252929688 111.7077407836914 145.0307159423828 111.7077407836914 143.19158935546875 C 111.8635025024414 143.03582763671875 112.01925659179688 142.88006591796875 112.17586517333984 142.72430419921875 C 112.17586517333984 142.72430419921875 112.17586517333984 142.72430419921875 112.17586517333984 142.72430419921875" stroke-width="0.0" fill="rgb(130, 185, 249)" opacity="1.0"/>
    <path d="M 112.17586517333984 131.69808959960938 C 112.17586517333984 131.69808959960938 112.17586517333984 131.69808959960938 112.17586517333984 131.69808959960938 C 112.33162689208984 131.85385131835938 112.48738098144531 132.00961303710938 112.64313507080078 132.16537475585938 C 112.64313507080078 134.00363159179688 112.64313507080078 135.841064453125 112.64313507080078 137.6793212890625 C 112.36500549316406 138.3502960205078 112.1827163696289 138.1534423828125 111.7077407836914 137.6793212890625 C 111.7077407836914 135.84019470214844 111.7077407836914 134.00192260742188 111.7077407836914 132.1627960205078 C 111.8635025024414 132.00790405273438 112.01925659179688 131.85299682617188 112.17586517333984 131.69808959960938 C 112.17586517333984 131.69808959960938 112.17586517333984 131.69808959960938 112.17586517333984 131.69808959960938" stroke-width="0.0" fill="rgb(130, 185, 249)" opacity="1.0"/>
    <path d="M 112.17586517333984 120.6650390625 C 112.17586517333984 120.6650390625 112.17586517333984 120.6650390625 112.17586517333984 120.6650390625 C 112.33162689208984 120.82079315185547 112.48738098144531 120.97654724121094 112.64313507080078 121.13230895996094 C 112.64313507080078 122.9722900390625 112.64313507080078 124.8122787475586 112.64313507080078 126.65226745605469 C 112.48738098144531 126.80715942382812 112.39495849609375 127.1169662475586 112.17586517333984 127.1169662475586 C 111.9559326171875 127.1169662475586 111.8635025024414 126.80715942382812 111.7077407836914 126.65226745605469 C 111.7077407836914 124.8122787475586 111.7077407836914 122.9722900390625 111.7077407836914 121.13230895996094 C 111.8635025024414 120.97654724121094 112.01925659179688 120.82079315185547 112.17586517333984 120.6650390625 C 112.17586517333984 120.6650390625 112.17586517333984 120.6650390625 112.17586517333984 120.6650390625" stroke-width="0.0" fill="rgb(130, 185, 249)" opacity="1.0"/>
    <path d="M 112.17586517333984 175.813232421875 C 112.17586517333984 175.813232421875 112.17586517333984 175.813232421875 112.17586517333984 175.813232421875 C 112.33162689208984 175.96983337402344 112.48738098144531 176.12559509277344 112.64313507080078 176.28134155273438 C 112.64313507080078 177.21673583984375 112.64313507080078 178.1521453857422 112.64313507080078 179.08839416503906 C 112.36585998535156 179.75933837890625 112.1827163696289 179.5625 111.7077407836914 179.08839416503906 C 111.7077407836914 178.1521453857422 111.7077407836914 177.21673583984375 111.7077407836914 176.28134155273438 C 111.8635025024414 176.12559509277344 112.01925659179688 175.96983337402344 112.17586517333984 175.813232421875 C 112.17586517333984 175.813232421875 112.17586517333984 175.813232421875 112.17586517333984 175.813232421875" stroke-width="0.0" fill="rgb(102, 169, 247)" opacity="1.0"/>
    <path d="M 99.69905853271484 138.7884521484375 C 99.69905853271484 138.7884521484375 99.69905853271484 138.7884521484375 99.69905853271484 138.7884521484375 C 101.08460998535156 139.62030029296875 102.15437316894531 140.39736938476562 102.65074157714844 142.03366088867188 C 103.82747650146484 145.91390991210938 100.10214233398438 149.64352416992188 96.22020721435547 148.46591186523438 C 92.57105255126953 147.35850524902344 91.39944458007812 142.59336853027344 94.08839416503906 139.903564453125 C 95.71442413330078 138.2775421142578 97.63143920898438 138.27154541015625 99.69905853271484 138.7884521484375 C 99.69905853271484 138.7884521484375 99.69905853271484 138.7884521484375 99.69905853271484 138.7884521484375" stroke-width="0.0" fill="rgb(103, 169, 247)" opacity="1.0"/>
    <path d="M 127.48882293701172 138.7884521484375 C 127.48882293701172 138.7884521484375 127.48882293701172 138.7884521484375 127.48882293701172 138.7884521484375 C 128.87265014648438 139.62030029296875 129.94326782226562 140.3990936279297 130.43963623046875 142.03366088867188 C 131.6180877685547 145.91305541992188 127.88763427734375 149.64352416992188 124.00825500488281 148.46591186523438 C 120.35823822021484 147.35765075683594 119.18492889404297 142.59423828125 121.87557983398438 139.903564453125 C 123.50247192382812 138.27667236328125 125.41947937011719 138.27239990234375 127.48882293701172 138.7884521484375 C 127.48882293701172 138.7884521484375 127.48882293701172 138.7884521484375 127.48882293701172 138.7884521484375" stroke-width="0.0" fill="rgb(102, 169, 247)" opacity="1.0"/>
    <path d="M 35.174659729003906 88.85897827148438 C 86.39126586914062 88.85897827148438 137.60787963867188 88.85897827148438 188.82533264160156 88.85897827148438 C 192.98028564453125 89.33995056152344 195.36370849609375 91.7242202758789 195.84552001953125 95.87916564941406 C 195.84552001953125 103.36661529541016 195.84552001953125 110.85492706298828 195.84552001953125 118.34237670898438 C 195.5922088623047 118.95342254638672 195.05389404296875 119.49258422851562 194.44287109375 119.74590301513672 C 139.48208618164062 119.74590301513672 84.52133178710938 119.74590301513672 29.561424255371094 119.74590301513672 C 28.94866943359375 119.49258422851562 28.408653259277344 118.95427703857422 28.15447235107422 118.34237670898438 C 28.15447235107422 110.85492706298828 28.15447235107422 103.36661529541016 28.15447235107422 95.87916564941406 C 28.63886260986328 91.72679138183594 31.01971435546875 89.34080505371094 35.174659729003906 88.85897827148438 C 35.174659729003906 88.85897827148438 35.174659729003906 88.85897827148438 35.174659729003906 88.85897827148438" stroke-width="0.0" fill="rgb(102, 169, 247)" opacity="1.0"/>
    <path d="M 159.4549102783203 67.84806823730469 C 159.4549102783203 67.84806823730469 159.4549102783203 67.84806823730469 159.4549102783203 67.84806823730469 C 160.53921508789062 69.86349487304688 156.88406372070312 72.14678955078125 155.10484313964844 72.00215148925781 C 154.1069793701172 71.92085266113281 154.7967529296875 71.18486022949219 155.07489013671875 71.0701904296875 C 156.08987426757812 70.64912414550781 157.3385009765625 70.49079895019531 158.0531005859375 69.65467834472656 C 158.54776000976562 69.07530212402344 158.78311157226562 68.20922088623047 159.4549102783203 67.84806823730469 C 159.4549102783203 67.84806823730469 159.4549102783203 67.84806823730469 159.4549102783203 67.84806823730469" stroke-width="0.0" fill="rgb(102, 169, 247)" opacity="1.0"/>
    <path d="M 65.4034652709961 67.84465026855469 C 65.4034652709961 67.84465026855469 65.4034652709961 67.84465026855469 65.4034652709961 67.84465026855469 C 66.07527160644531 68.20579528808594 66.30976867675781 69.0718765258789 66.8044204711914 69.65211486816406 C 67.51730346679688 70.48738098144531 68.76593017578125 70.64826965332031 69.78005981445312 71.0701904296875 C 70.02053833007812 71.1694564819336 70.77450561523438 71.92256164550781 69.76722717285156 72.00472259521484 C 67.98458099365234 72.15106964111328 64.31829833984375 69.8669204711914 65.4034652709961 67.84465026855469 C 65.4034652709961 67.84465026855469 65.4034652709961 67.84465026855469 65.4034652709961 67.84465026855469" stroke-width="0.0" fill="rgb(102, 169, 247)" opacity="1.0"/>
    <path d="M 97.73070526123047 139.79660034179688 C 97.73070526123047 139.79660034179688 97.73070526123047 139.79660034179688 97.73070526123047 139.79660034179688 C 96.19881439208984 140.1063995361328 94.94248962402344 140.4855194091797 94.27923583984375 142.08502197265625 C 93.27110290527344 144.51808166503906 95.08113098144531 147.288330078125 97.73070526123047 147.288330078125 C 100.38028717041016 147.288330078125 102.1851806640625 144.51722717285156 101.17875671386719 142.08502197265625 C 100.5172119140625 140.4846649169922 99.26260375976562 140.1063995361328 97.73070526123047 139.79660034179688 C 97.73070526123047 139.79660034179688 97.73070526123047 139.79660034179688 97.73070526123047 139.79660034179688" stroke-width="0.0" fill="rgb(102, 169, 247)" opacity="1.0"/>
    <path d="M 125.51789093017578 139.79660034179688 C 125.51789093017578 139.79660034179688 125.51789093017578 139.79660034179688 125.51789093017578 139.79660034179688 C 123.98514556884766 140.1063995361328 122.72882080078125 140.4855194091797 122.06642150878906 142.08502197265625 C 121.05828094482422 144.51808166503906 122.86831665039062 147.288330078125 125.51789093017578 147.288330078125 C 128.16748046875 147.288330078125 129.9723663330078 144.51722717285156 128.9659423828125 142.08502197265625 C 128.30441284179688 140.4855194091797 127.04978942871094 140.1063995361328 125.51789093017578 139.79660034179688 C 125.51789093017578 139.79660034179688 125.51789093017578 139.79660034179688 125.51789093017578 139.79660034179688" stroke-width="0.0" fill="rgb(102, 169, 247)" opacity="1.0"/>
    <path d="M 35.174659729003906 90.26165008544922 C 86.39126586914062 90.26165008544922 137.60787963867188 90.26165008544922 188.82533264160156 90.26165008544922 C 192.18524169921875 90.70581817626953 193.99868774414062 92.5184097290039 194.44287109375 95.87916564941406 C 194.44287109375 103.36661529541016 194.44287109375 110.85492706298828 194.44287109375 118.34237670898438 C 139.48208618164062 118.34237670898438 84.52133178710938 118.34237670898438 29.561424255371094 118.34237670898438 C 29.561424255371094 110.85492706298828 29.561424255371094 103.36661529541016 29.561424255371094 95.87916564941406 C 30.013290405273438 92.50899505615234 31.803634643554688 90.71522521972656 35.174659729003906 90.26165008544922 C 35.174659729003906 90.26165008544922 35.174659729003906 90.26165008544922 35.174659729003906 90.26165008544922" stroke-width="0.0" fill="rgb(102, 169, 247)" opacity="1.0"/>
    <path d="M 97.73070526123047 141.20440673828125 C 97.73070526123047 141.20440673828125 97.73070526123047 141.20440673828125 97.73070526123047 141.20440673828125 C 96.64640045166016 141.53216552734375 96.06787109375 141.44317626953125 95.56893920898438 142.6472930908203 C 95.01010131835938 143.99517822265625 95.8419418334961 145.55274963378906 97.2737045288086 145.83773803710938 C 99.23350524902344 146.2279815673828 100.72774505615234 144.06365966796875 99.75041198730469 142.3623046875 C 99.19157409667969 141.38925170898438 98.70632934570312 141.46798706054688 97.73070526123047 141.20440673828125 C 97.73070526123047 141.20440673828125 97.73070526123047 141.20440673828125 97.73070526123047 141.20440673828125" stroke-width="0.0" fill="rgb(255, 255, 255)" opacity="1.0"/>
    <path d="M 125.51789093017578 141.20440673828125 C 125.51789093017578 141.20440673828125 125.51789093017578 141.20440673828125 125.51789093017578 141.20440673828125 C 124.43444061279297 141.53131103515625 123.85420989990234 141.44403076171875 123.35527038574219 142.6472930908203 C 122.79728698730469 143.99346923828125 123.63084411621094 145.55274963378906 125.0600357055664 145.83773803710938 C 127.02154541015625 146.2288360595703 128.51321411132812 144.06365966796875 127.53759765625 142.3623046875 C 126.9796142578125 141.38839721679688 126.4935073852539 141.46798706054688 125.51789093017578 141.20440673828125 C 125.51789093017578 141.20440673828125 125.51789093017578 141.20440673828125 125.51789093017578 141.20440673828125" stroke-width="0.0" fill="rgb(254, 254, 255)" opacity="1.0"/>
    <path d="M 35.174659729003906 91.66602325439453 C 35.174659729003906 91.66602325439453 35.174659729003906 91.66602325439453 35.174659729003906 91.66602325439453 C 32.52336883544922 92.20433044433594 31.502395629882812 93.22872924804688 30.964950561523438 95.87916564941406 C 30.965805053710938 102.89934539794922 30.966659545898438 109.91952514648438 30.967514038085938 116.93971252441406 C 84.98860168457031 116.93971252441406 139.0105438232422 116.93971252441406 193.03163146972656 116.93971252441406 C 193.03163146972656 109.91952514648438 193.03163146972656 102.89934539794922 193.03163146972656 95.87916564941406 C 192.4933319091797 93.22702026367188 191.47149658203125 92.20433044433594 188.81936645507812 91.66602325439453 C 137.6044464111328 91.66602325439453 86.38955688476562 91.66602325439453 35.174659729003906 91.66602325439453" stroke-width="0.0" fill="rgb(254, 254, 254)" opacity="1.0"/>
    <path d="M 112.17586517333984 90.28561401367188 C 112.17586517333984 90.28561401367188 112.17586517333984 90.28561401367188 112.17586517333984 90.28561401367188 C 112.33162689208984 90.44136810302734 112.48738098144531 90.59712219238281 112.64313507080078 90.75288391113281 C 112.64313507080078 91.68998718261719 112.64313507080078 92.6270980834961 112.64313507080078 93.5633544921875 C 112.36585998535156 94.23429870605469 112.1818618774414 94.03746795654297 111.7077407836914 93.5633544921875 C 111.7077407836914 92.6270980834961 111.7077407836914 91.68998718261719 111.7077407836914 90.75288391113281 C 111.8635025024414 90.59712219238281 112.01925659179688 90.44136810302734 112.17586517333984 90.28561401367188 C 112.17586517333984 90.28561401367188 112.17586517333984 90.28561401367188 112.17586517333984 90.28561401367188" stroke-width="0.0" fill="rgb(201, 225, 252)" opacity="1.0"/>
    <path d="M 112.17586517333984 109.63882446289062 C 112.17586517333984 109.63882446289062 112.17586517333984 109.63882446289062 112.17586517333984 109.63882446289062 C 112.33162689208984 109.79458618164062 112.48738098144531 109.9503402709961 112.64313507080078 110.10609436035156 C 112.64313507080078 111.94522857666016 112.64313507080078 113.78434753417969 112.64313507080078 115.62348175048828 C 112.36328887939453 116.29186248779297 112.1827163696289 116.09759521484375 111.7077407836914 115.62348175048828 C 111.7077407836914 113.78434753417969 111.7077407836914 111.94522857666016 111.7077407836914 110.10609436035156 C 111.8635025024414 109.9503402709961 112.01925659179688 109.79458618164062 112.17586517333984 109.63882446289062 C 112.17586517333984 109.63882446289062 112.17586517333984 109.63882446289062 112.17586517333984 109.63882446289062" stroke-width="0.0" fill="rgb(138, 189, 249)" opacity="1.0"/>
    <path d="M 112.17586517333984 98.60919189453125 C 112.17586517333984 98.60919189453125 112.17586517333984 98.60919189453125 112.17586517333984 98.60919189453125 C 112.33162689208984 98.76494598388672 112.48738098144531 98.92070007324219 112.64313507080078 99.07646179199219 C 112.64313507080078 100.91558837890625 112.64313507080078 102.75386047363281 112.64313507080078 104.59298706054688 C 112.48738098144531 104.74788665771484 112.39495849609375 105.05769348144531 112.17586517333984 105.05769348144531 C 111.9559326171875 105.05769348144531 111.8635025024414 104.74788665771484 111.7077407836914 104.59298706054688 C 111.7077407836914 102.75386047363281 111.7077407836914 100.91558837890625 111.7077407836914 99.07646179199219 C 111.8635025024414 98.92070007324219 112.01925659179688 98.76494598388672 112.17586517333984 98.60919189453125 C 112.17586517333984 98.60919189453125 112.17586517333984 98.60919189453125 112.17586517333984 98.60919189453125" stroke-width="0.0" fill="rgb(138, 189, 249)" opacity="1.0"/>
    <path d="M 72.85497283935547 99.54458618164062 C 72.85497283935547 99.54458618164062 72.85497283935547 99.54458618164062 72.85497283935547 99.54458618164062 C 74.23966979980469 100.37813568115234 75.31028747558594 101.15692138671875 75.80664825439453 102.79322814941406 C 76.98252868652344 106.67259979248047 73.254638671875 110.40391540527344 69.37440490722656 109.22547149658203 C 65.7218246459961 108.11634063720703 64.55535888671875 103.34950256347656 67.24516296386719 100.65969848632812 C 68.8703384399414 99.0345230102539 70.78820037841797 99.03109741210938 72.85497283935547 99.54458618164062 C 72.85497283935547 99.54458618164062 72.85497283935547 99.54458618164062 72.85497283935547 99.54458618164062" stroke-width="0.0" fill="rgb(103, 169, 247)" opacity="1.0"/>
    <path d="M 155.08172607421875 99.54458618164062 C 155.08172607421875 99.54458618164062 155.08172607421875 99.54458618164062 155.08172607421875 99.54458618164062 C 156.4664306640625 100.37813568115234 157.53704833984375 101.15692138671875 158.03341674804688 102.79322814941406 C 159.2093048095703 106.67345428466797 155.4813995361328 110.40391540527344 151.60031127929688 109.22547149658203 C 147.94943237304688 108.11634063720703 146.78128051757812 103.34864044189453 149.471923828125 100.65969848632812 C 151.09710693359375 99.0353775024414 153.0149688720703 99.03109741210938 155.08172607421875 99.54458618164062 C 155.08172607421875 99.54458618164062 155.08172607421875 99.54458618164062 155.08172607421875 99.54458618164062" stroke-width="0.0" fill="rgb(102, 169, 247)" opacity="1.0"/>
    <path d="M 70.88319396972656 100.55614471435547 C 70.88319396972656 100.55614471435547 70.88319396972656 100.55614471435547 70.88319396972656 100.55614471435547 C 69.35130310058594 100.86595153808594 68.09668731689453 101.24507141113281 67.43515014648438 102.84457397460938 C 66.42958068847656 105.27591705322266 68.23361206054688 108.04788208007812 70.88319396972656 108.04788208007812 C 73.53192138671875 108.04788208007812 75.34280395507812 105.27763366699219 74.33467102050781 102.84457397460938 C 73.67141723632812 101.24421691894531 72.41508483886719 100.86595153808594 70.88319396972656 100.55614471435547 C 70.88319396972656 100.55614471435547 70.88319396972656 100.55614471435547 70.88319396972656 100.55614471435547" stroke-width="0.0" fill="rgb(102, 169, 247)" opacity="1.0"/>
    <path d="M 153.10995483398438 100.55614471435547 C 153.10995483398438 100.55614471435547 153.10995483398438 100.55614471435547 153.10995483398438 100.55614471435547 C 151.57806396484375 100.86595153808594 150.32345581054688 101.24592590332031 149.6619110107422 102.84457397460938 C 148.65463256835938 105.27591705322266 150.46124267578125 108.04788208007812 153.10995483398438 108.04788208007812 C 155.7586669921875 108.04788208007812 157.569580078125 105.27763366699219 156.56057739257812 102.84457397460938 C 155.89817810058594 101.24421691894531 154.641845703125 100.86595153808594 153.10995483398438 100.55614471435547 C 153.10995483398438 100.55614471435547 153.10995483398438 100.55614471435547 153.10995483398438 100.55614471435547" stroke-width="0.0" fill="rgb(102, 169, 247)" opacity="1.0"/>
    <path d="M 70.88319396972656 101.96395111083984 C 70.88319396972656 101.96395111083984 70.88319396972656 101.96395111083984 70.88319396972656 101.96395111083984 C 69.80230712890625 102.29086303710938 69.2186508178711 102.20528411865234 68.72142791748047 103.4068374633789 C 68.16429901123047 104.75302124023438 68.99956512451172 106.31316375732422 70.42790222167969 106.5972900390625 C 72.38856506347656 106.98838806152344 73.88279724121094 104.82319641113281 72.90460968017578 103.12185668945312 C 72.34490966796875 102.14794921875 71.85966491699219 102.2275390625 70.88319396972656 101.96395111083984 C 70.88319396972656 101.96395111083984 70.88319396972656 101.96395111083984 70.88319396972656 101.96395111083984" stroke-width="0.0" fill="rgb(254, 254, 255)" opacity="1.0"/>
    <path d="M 153.10995483398438 101.96395111083984 C 153.10995483398438 101.96395111083984 153.10995483398438 101.96395111083984 153.10995483398438 101.96395111083984 C 152.02908325195312 102.29086303710938 151.44541931152344 102.20528411865234 150.9481964111328 103.4068374633789 C 150.39019775390625 104.7538833618164 151.2271728515625 106.31230926513672 152.65553283691406 106.5972900390625 C 154.61618041992188 106.98838806152344 156.10870361328125 104.82234191894531 155.13137817382812 103.12185668945312 C 154.57081604003906 102.14794921875 154.08642578125 102.2275390625 153.10995483398438 101.96395111083984 C 153.10995483398438 101.96395111083984 153.10995483398438 101.96395111083984 153.10995483398438 101.96395111083984" stroke-width="0.0" fill="rgb(254, 254, 255)" opacity="1.0"/>
  </g>
</svg>
