<?xml version="1.0" ?>
<svg xmlns="http://www.w3.org/2000/svg" version="1.1" width="224" height="224">
  <defs/>
  <g>
    <path d="M 54.388214111328125 65.5186538696289 C 83.99122619628906 65.5186538696289 113.59342193603516 65.5186538696289 143.19644165039062 65.5186538696289 C 150.9960479736328 65.66181945800781 158.3077392578125 66.68048095703125 165.41946411132812 70.10346984863281 C 170.18695068359375 72.39834594726562 174.55288696289062 75.5119400024414 178.27374267578125 79.27392578125 C 195.02001953125 96.20697784423828 196.0 123.96849822998047 180.4962158203125 142.04364013671875 C 171.0106201171875 153.1033172607422 157.50135803222656 158.10366821289062 143.19644165039062 158.48135375976562 C 113.59506225585938 158.48135375976562 83.99287414550781 158.48135375976562 54.39150619506836 158.48135375976562 C 50.48716735839844 158.34310913085938 46.77949523925781 157.57705688476562 43.298091888427734 155.74049377441406 C 40.47248077392578 154.25035095214844 37.954620361328125 152.18832397460938 35.9312744140625 149.71653747558594 C 28.462440490722656 140.59298706054688 28.927330017089844 126.99240112304688 36.95076370239258 118.37488555908203 C 39.71054458618164 115.41022491455078 43.08662033081055 113.39263916015625 46.86095428466797 111.99794006347656 C 46.86095428466797 111.99794006347656 46.86095428466797 111.99794006347656 46.86095428466797 111.99794006347656 C 43.08662033081055 110.60406494140625 39.71136474609375 108.58647918701172 36.949119567871094 105.62346649169922 C 28.91992950439453 97.01171112060547 28.46160888671875 83.40536499023438 35.927162170410156 74.2842788696289 C 37.95050811767578 71.81249237060547 40.46836853027344 69.75047302246094 43.29397201538086 68.25950622558594 C 46.77537536621094 66.42376708984375 50.483055114746094 65.65689086914062 54.388214111328125 65.5186538696289 C 54.388214111328125 65.5186538696289 54.388214111328125 65.5186538696289 54.388214111328125 65.5186538696289" stroke-width="0.0" fill="rgb(102, 169, 247)" opacity="1.0"/>
    <path d="M 54.39150619506836 66.86727905273438 C 54.39150619506836 66.86727905273438 54.39150619506836 66.86727905273438 54.39150619506836 66.86727905273438 C 48.946006774902344 67.06393432617188 43.834571838378906 68.74661254882812 39.66939926147461 72.35556030273438 C 28.0 82.46405029296875 30.057907104492188 101.72653198242188 43.62063980102539 109.12049865722656 C 46.98520278930664 110.95458984375 50.592491149902344 111.72969818115234 54.39150619506836 111.86628723144531 C 69.68547058105469 111.86628723144531 84.97944641113281 111.86628723144531 100.2734146118164 111.86628723144531 C 100.2734146118164 111.95433044433594 100.2734146118164 112.04154968261719 100.2734146118164 112.12959289550781 C 84.97944641113281 112.12959289550781 69.68547058105469 112.12959289550781 54.39150619506836 112.12959289550781 C 48.3897705078125 112.34600067138672 42.78217697143555 114.41871643066406 38.48287582397461 118.71882629394531 C 28.03209686279297 129.16879272460938 30.643760681152344 147.30894470214844 43.62063980102539 154.38282775878906 C 46.98520278930664 156.2169189453125 50.592491149902344 156.99119567871094 54.39150619506836 157.12860107421875 C 83.99287414550781 157.12860107421875 113.59506225585938 157.12860107421875 143.19644165039062 157.12860107421875 C 156.9895477294922 156.7542266845703 169.96067810058594 152.01800537109375 179.19366455078125 141.4347381591797 C 182.666015625 137.45388793945312 185.43319702148438 132.8657684326172 187.31912231445312 127.9312515258789 C 195.3721923828125 106.85935974121094 186.0651397705078 82.40727233886719 166.0950164794922 71.96553802490234 C 158.8162384033203 68.15911865234375 151.29226684570312 67.0565185546875 143.19313049316406 66.86727905273438 C 113.59259796142578 66.86727905273438 83.99205017089844 66.86727905273438 54.39150619506836 66.86727905273438" stroke-width="0.0" fill="rgb(102, 169, 247)" opacity="1.0"/>
    <path d="M 54.39150619506836 68.2208251953125 C 54.39150619506836 68.2208251953125 54.39150619506836 68.2208251953125 54.39150619506836 68.2208251953125 C 51.17505645751953 68.34260559082031 48.11988067626953 68.91283416748047 45.20047378540039 70.32234191894531 C 32.574119567871094 76.41705322265625 29.36589813232422 93.53359985351562 38.92061996459961 103.79019927978516 C 43.00104904174805 108.17095184326172 48.4909782409668 110.29632568359375 54.39150619506836 110.5201416015625 C 69.68547058105469 110.5201416015625 84.97944641113281 110.5201416015625 100.2734146118164 110.5201416015625 C 100.86092376708984 110.7636947631836 101.37930297851562 111.28207397460938 101.62203979492188 111.86958312988281 C 101.62203979492188 111.95433044433594 101.62203979492188 112.03907775878906 101.62203979492188 112.12383270263672 C 101.38095092773438 112.71379852294922 100.86174774169922 113.23465728759766 100.2734146118164 113.47903442382812 C 84.97944641113281 113.4806900024414 69.68547058105469 113.48150634765625 54.39150619506836 113.48233032226562 C 48.4909782409668 113.70696258544922 43.00104904174805 115.83151245117188 38.92061996459961 120.21062469482422 C 29.3642578125 130.46475219726562 32.574119567871094 147.58705139160156 45.20047378540039 153.67848205566406 C 48.11988067626953 155.08717346191406 51.17505645751953 155.65737915039062 54.39150619506836 155.77915954589844 C 83.99287414550781 155.77915954589844 113.59506225585938 155.77915954589844 143.19644165039062 155.77915954589844 C 156.45718383789062 155.4286346435547 169.0160675048828 150.9236297607422 177.97422790527344 140.81103515625 C 193.19662475585938 123.62701416015625 192.2396697998047 96.72125244140625 175.8274688720703 80.66697692871094 C 172.39295959472656 77.30735778808594 168.40223693847656 74.52290344238281 164.06427001953125 72.45841217041016 C 157.3779296875 69.27487182617188 150.51715087890625 68.35002136230469 143.19972229003906 68.2208251953125 C 113.59671020507812 68.2208251953125 83.99452209472656 68.2208251953125 54.39150619506836 68.2208251953125" stroke-width="0.0" fill="rgb(222, 236, 254)" opacity="1.0"/>
    <path d="M 99.184814453125 110.51437377929688 C 112.56405639648438 110.51437377929688 125.94247436523438 110.51437377929688 139.32171630859375 110.51437377929688 C 141.19366455078125 111.2903060913086 141.19284057617188 112.70968627929688 139.32171630859375 113.4856185913086 C 125.94247436523438 113.4856185913086 112.56405639648438 113.4856185913086 99.184814453125 113.4856185913086 C 97.30957794189453 112.71051025390625 97.30876159667969 111.28948211669922 99.184814453125 110.51437377929688 C 99.184814453125 110.51437377929688 99.184814453125 110.51437377929688 99.184814453125 110.51437377929688" stroke-width="0.0" fill="rgb(102, 169, 247)" opacity="1.0"/>
    <path d="M 125.27021789550781 88.85498046875 C 127.11089324951172 88.85498046875 128.95156860351562 88.85498046875 130.79306030273438 88.85498046875 C 130.94281005859375 89.00473022460938 131.24234008789062 89.09195709228516 131.24234008789062 89.30424499511719 C 131.24234008789062 89.51654052734375 130.94281005859375 89.60375213623047 130.79306030273438 89.75433349609375 C 128.95156860351562 89.75433349609375 127.11089324951172 89.75433349609375 125.27021789550781 89.75433349609375 C 125.12046813964844 89.60375213623047 124.82012939453125 89.51654052734375 124.82012939453125 89.30424499511719 C 124.82012939453125 89.09195709228516 125.12046813964844 89.00473022460938 125.27021789550781 88.85498046875 C 125.27021789550781 88.85498046875 125.27021789550781 88.85498046875 125.27021789550781 88.85498046875" stroke-width="0.0" fill="rgb(127, 182, 249)" opacity="1.0"/>
    <path d="M 114.2352294921875 88.85498046875 C 116.07425689697266 88.85498046875 117.91410827636719 88.85498046875 119.75395965576172 88.85498046875 C 119.90371704101562 89.00473022460938 120.20404815673828 89.09195709228516 120.20404815673828 89.30424499511719 C 120.20404815673828 89.51654052734375 119.90371704101562 89.60375213623047 119.75395965576172 89.75433349609375 C 117.91410827636719 89.75433349609375 116.07425689697266 89.75433349609375 114.2352294921875 89.75433349609375 C 114.08464813232422 89.60375213623047 113.7851333618164 89.51654052734375 113.7851333618164 89.30424499511719 C 113.7851333618164 89.09195709228516 114.08464813232422 89.00473022460938 114.2352294921875 88.85498046875 C 114.2352294921875 88.85498046875 114.2352294921875 88.85498046875 114.2352294921875 88.85498046875" stroke-width="0.0" fill="rgb(127, 182, 249)" opacity="1.0"/>
    <path d="M 103.19035339355469 88.85498046875 C 105.03020477294922 88.85498046875 106.87005615234375 88.85498046875 108.70990753173828 88.85498046875 C 108.85966491699219 89.00473022460938 109.1591796875 89.09278106689453 109.1591796875 89.30424499511719 C 109.1591796875 89.51571655273438 108.85966491699219 89.60375213623047 108.70990753173828 89.75433349609375 C 106.87005615234375 89.75433349609375 105.03020477294922 89.75433349609375 103.19035339355469 89.75433349609375 C 103.04060363769531 89.60375213623047 102.7410888671875 89.51654052734375 102.7410888671875 89.30424499511719 C 102.7410888671875 89.09195709228516 103.04060363769531 89.00473022460938 103.19035339355469 88.85498046875 C 103.19035339355469 88.85498046875 103.19035339355469 88.85498046875 103.19035339355469 88.85498046875" stroke-width="0.0" fill="rgb(127, 182, 249)" opacity="1.0"/>
    <path d="M 92.1520767211914 88.85498046875 C 93.99274444580078 88.85498046875 95.83341979980469 88.85498046875 97.67491912841797 88.85498046875 C 97.82467651367188 89.00473022460938 98.12335968017578 89.09278106689453 98.12335968017578 89.30424499511719 C 98.12335968017578 89.51571655273438 97.82467651367188 89.60375213623047 97.67491912841797 89.75433349609375 C 95.83341979980469 89.75433349609375 93.99274444580078 89.75433349609375 92.1520767211914 89.75433349609375 C 92.00231170654297 89.60375213623047 91.70198059082031 89.51654052734375 91.70198059082031 89.30424499511719 C 91.70198059082031 89.09195709228516 92.00231170654297 89.00473022460938 92.1520767211914 88.85498046875 C 92.1520767211914 88.85498046875 92.1520767211914 88.85498046875 92.1520767211914 88.85498046875" stroke-width="0.0" fill="rgb(126, 182, 249)" opacity="1.0"/>
    <path d="M 81.11708068847656 88.85498046875 C 82.95692443847656 88.85498046875 84.79595947265625 88.85498046875 86.63581085205078 88.85498046875 C 86.78638458251953 89.00473022460938 87.08589172363281 89.09195709228516 87.08589172363281 89.30424499511719 C 87.08589172363281 89.51654052734375 86.78638458251953 89.60375213623047 86.63581085205078 89.75433349609375 C 84.79595947265625 89.75433349609375 82.95692443847656 89.75433349609375 81.11708068847656 89.75433349609375 C 80.9656753540039 89.60375213623047 80.6636962890625 89.51736450195312 80.6636962890625 89.30424499511719 C 80.6636962890625 89.09112548828125 80.9656753540039 89.00473022460938 81.11708068847656 88.85498046875 C 81.11708068847656 88.85498046875 81.11708068847656 88.85498046875 81.11708068847656 88.85498046875" stroke-width="0.0" fill="rgb(127, 182, 249)" opacity="1.0"/>
    <path d="M 70.07138061523438 88.85498046875 C 71.91123962402344 88.85498046875 73.75108337402344 88.85498046875 75.59093475341797 88.85498046875 C 75.74069213867188 89.00473022460938 76.04103088378906 89.09195709228516 76.04103088378906 89.30424499511719 C 76.04103088378906 89.51654052734375 75.74069213867188 89.60375213623047 75.59093475341797 89.75433349609375 C 73.75108337402344 89.75433349609375 71.91123962402344 89.75433349609375 70.07138061523438 89.75433349609375 C 69.921630859375 89.60375213623047 69.62211608886719 89.51654052734375 69.62211608886719 89.30424499511719 C 69.62211608886719 89.09195709228516 69.921630859375 89.00473022460938 70.07138061523438 88.85498046875 C 70.07138061523438 88.85498046875 70.07138061523438 88.85498046875 70.07138061523438 88.85498046875" stroke-width="0.0" fill="rgb(127, 182, 249)" opacity="1.0"/>
    <path d="M 59.02980422973633 88.85498046875 C 60.872127532958984 88.85498046875 62.713623046875 88.85498046875 64.55594635009766 88.85498046875 C 64.70570373535156 89.00473022460938 65.00521087646484 89.09195709228516 65.00521087646484 89.30424499511719 C 65.00521087646484 89.51654052734375 64.70570373535156 89.60375213623047 64.55594635009766 89.75433349609375 C 62.713623046875 89.75433349609375 60.872127532958984 89.75433349609375 59.02980422973633 89.75433349609375 C 58.88005065917969 89.60375213623047 58.57971954345703 89.51654052734375 58.57971954345703 89.30424499511719 C 58.57971954345703 89.09195709228516 58.88005065917969 89.00473022460938 59.02980422973633 88.85498046875 C 59.02980422973633 88.85498046875 59.02980422973633 88.85498046875 59.02980422973633 88.85498046875" stroke-width="0.0" fill="rgb(191, 219, 253)" opacity="1.0"/>
    <path d="M 50.81218719482422 88.85498046875 C 51.711544036865234 88.85498046875 52.610897064208984 88.85498046875 53.510250091552734 88.85498046875 C 53.660831451416016 89.00473022460938 53.9603385925293 89.09195709228516 53.9603385925293 89.30424499511719 C 53.9603385925293 89.51654052734375 53.660831451416016 89.60375213623047 53.510250091552734 89.75433349609375 C 52.610897064208984 89.75433349609375 51.711544036865234 89.75433349609375 50.81218719482422 89.75433349609375 C 50.66242980957031 89.60375213623047 50.362098693847656 89.51654052734375 50.362098693847656 89.30424499511719 C 50.362098693847656 89.09195709228516 50.66242980957031 89.00473022460938 50.81218719482422 88.85498046875 C 50.81218719482422 88.85498046875 50.81218719482422 88.85498046875 50.81218719482422 88.85498046875" stroke-width="0.0" fill="rgb(127, 182, 249)" opacity="1.0"/>
    <path d="M 125.27021789550781 134.07862854003906 C 127.11089324951172 134.07862854003906 128.95156860351562 134.07862854003906 130.79306030273438 134.07862854003906 C 130.94281005859375 134.22837829589844 131.24234008789062 134.31642150878906 131.24234008789062 134.52789306640625 C 131.24234008789062 134.74017333984375 130.94281005859375 134.82823181152344 130.79306030273438 134.9779815673828 C 128.95156860351562 134.9779815673828 127.11089324951172 134.9779815673828 125.27021789550781 134.9779815673828 C 125.12046813964844 134.82823181152344 124.82012939453125 134.74017333984375 124.82012939453125 134.52789306640625 C 124.82012939453125 134.31642150878906 125.12046813964844 134.22837829589844 125.27021789550781 134.07862854003906 C 125.27021789550781 134.07862854003906 125.27021789550781 134.07862854003906 125.27021789550781 134.07862854003906" stroke-width="0.0" fill="rgb(127, 182, 249)" opacity="1.0"/>
    <path d="M 114.2352294921875 134.07862854003906 C 116.07425689697266 134.07862854003906 117.91410827636719 134.07862854003906 119.75395965576172 134.07862854003906 C 119.90371704101562 134.22837829589844 120.20404815673828 134.31642150878906 120.20404815673828 134.52789306640625 C 120.20404815673828 134.74017333984375 119.90371704101562 134.82823181152344 119.75395965576172 134.9779815673828 C 117.91410827636719 134.9779815673828 116.07425689697266 134.9779815673828 114.2352294921875 134.9779815673828 C 114.08464813232422 134.82823181152344 113.7851333618164 134.74017333984375 113.7851333618164 134.52789306640625 C 113.7851333618164 134.31642150878906 114.08464813232422 134.22837829589844 114.2352294921875 134.07862854003906 C 114.2352294921875 134.07862854003906 114.2352294921875 134.07862854003906 114.2352294921875 134.07862854003906" stroke-width="0.0" fill="rgb(183, 214, 252)" opacity="1.0"/>
    <path d="M 103.19035339355469 134.07862854003906 C 105.03020477294922 134.07862854003906 106.87005615234375 134.07862854003906 108.70990753173828 134.07862854003906 C 108.85966491699219 134.22837829589844 109.1591796875 134.31642150878906 109.1591796875 134.52789306640625 C 109.1591796875 134.74017333984375 108.85966491699219 134.82823181152344 108.70990753173828 134.9779815673828 C 106.87005615234375 134.9779815673828 105.03020477294922 134.9779815673828 103.19035339355469 134.9779815673828 C 103.04060363769531 134.82823181152344 102.7410888671875 134.74017333984375 102.7410888671875 134.52789306640625 C 102.7410888671875 134.31642150878906 103.04060363769531 134.22837829589844 103.19035339355469 134.07862854003906 C 103.19035339355469 134.07862854003906 103.19035339355469 134.07862854003906 103.19035339355469 134.07862854003906" stroke-width="0.0" fill="rgb(183, 214, 252)" opacity="1.0"/>
    <path d="M 92.1520767211914 134.07862854003906 C 93.99274444580078 134.07862854003906 95.83341979980469 134.07862854003906 97.67491912841797 134.07862854003906 C 97.82467651367188 134.22837829589844 98.12335968017578 134.31642150878906 98.12335968017578 134.52789306640625 C 98.12335968017578 134.74017333984375 97.82467651367188 134.82823181152344 97.67491912841797 134.9779815673828 C 95.83341979980469 134.9779815673828 93.99274444580078 134.9779815673828 92.1520767211914 134.9779815673828 C 92.00231170654297 134.82823181152344 91.70198059082031 134.74017333984375 91.70198059082031 134.52789306640625 C 91.70198059082031 134.31642150878906 92.00231170654297 134.22837829589844 92.1520767211914 134.07862854003906 C 92.1520767211914 134.07862854003906 92.1520767211914 134.07862854003906 92.1520767211914 134.07862854003906" stroke-width="0.0" fill="rgb(127, 182, 249)" opacity="1.0"/>
    <path d="M 81.11708068847656 134.07862854003906 C 82.95692443847656 134.07862854003906 84.79595947265625 134.07862854003906 86.63581085205078 134.07862854003906 C 86.78638458251953 134.22837829589844 87.08589172363281 134.31642150878906 87.08589172363281 134.52789306640625 C 87.08589172363281 134.74017333984375 86.78638458251953 134.82823181152344 86.63581085205078 134.9779815673828 C 84.79595947265625 134.9779815673828 82.95692443847656 134.9779815673828 81.11708068847656 134.9779815673828 C 80.9656753540039 134.82823181152344 80.6636962890625 134.7410125732422 80.6636962890625 134.52789306640625 C 80.6636962890625 134.31561279296875 80.9656753540039 134.22837829589844 81.11708068847656 134.07862854003906 C 81.11708068847656 134.07862854003906 81.11708068847656 134.07862854003906 81.11708068847656 134.07862854003906" stroke-width="0.0" fill="rgb(183, 214, 252)" opacity="1.0"/>
    <path d="M 70.07138061523438 134.07862854003906 C 71.91123962402344 134.07862854003906 73.75108337402344 134.07862854003906 75.59093475341797 134.07862854003906 C 75.74069213867188 134.22837829589844 76.04103088378906 134.31642150878906 76.04103088378906 134.52789306640625 C 76.04103088378906 134.74017333984375 75.74069213867188 134.82823181152344 75.59093475341797 134.9779815673828 C 73.75108337402344 134.9779815673828 71.91123962402344 134.9779815673828 70.07138061523438 134.9779815673828 C 69.921630859375 134.82823181152344 69.62211608886719 134.74017333984375 69.62211608886719 134.52789306640625 C 69.62211608886719 134.31642150878906 69.921630859375 134.22837829589844 70.07138061523438 134.07862854003906 C 70.07138061523438 134.07862854003906 70.07138061523438 134.07862854003906 70.07138061523438 134.07862854003906" stroke-width="0.0" fill="rgb(183, 214, 252)" opacity="1.0"/>
    <path d="M 59.02980422973633 134.07862854003906 C 60.872127532958984 134.07862854003906 62.713623046875 134.07862854003906 64.55594635009766 134.07862854003906 C 64.70570373535156 134.22837829589844 65.00521087646484 134.31642150878906 65.00521087646484 134.52789306640625 C 65.00521087646484 134.74017333984375 64.70570373535156 134.82823181152344 64.55594635009766 134.9779815673828 C 62.713623046875 134.9779815673828 60.872127532958984 134.9779815673828 59.02980422973633 134.9779815673828 C 58.88005065917969 134.82823181152344 58.57971954345703 134.74017333984375 58.57971954345703 134.52789306640625 C 58.57971954345703 134.31642150878906 58.88005065917969 134.22837829589844 59.02980422973633 134.07862854003906 C 59.02980422973633 134.07862854003906 59.02980422973633 134.07862854003906 59.02980422973633 134.07862854003906" stroke-width="0.0" fill="rgb(127, 182, 249)" opacity="1.0"/>
    <path d="M 50.81218719482422 134.07862854003906 C 51.711544036865234 134.07862854003906 52.610897064208984 134.07862854003906 53.510250091552734 134.07862854003906 C 53.660831451416016 134.22837829589844 53.9603385925293 134.31642150878906 53.9603385925293 134.52789306640625 C 53.9603385925293 134.74017333984375 53.660831451416016 134.82823181152344 53.510250091552734 134.9779815673828 C 52.610897064208984 134.9779815673828 51.711544036865234 134.9779815673828 50.81218719482422 134.9779815673828 C 50.66242980957031 134.82823181152344 50.362098693847656 134.74017333984375 50.362098693847656 134.52789306640625 C 50.362098693847656 134.31642150878906 50.66242980957031 134.22837829589844 50.81218719482422 134.07862854003906 C 50.81218719482422 134.07862854003906 50.81218719482422 134.07862854003906 50.81218719482422 134.07862854003906" stroke-width="0.0" fill="rgb(181, 213, 252)" opacity="1.0"/>
    <path d="M 139.50192260742188 89.35279083251953 C 139.50192260742188 89.35279083251953 139.50192260742188 89.35279083251953 139.50192260742188 89.35279083251953 C 142.27239990234375 89.5560302734375 144.7400665283203 90.24885559082031 146.88352966308594 92.1125717163086 C 152.43765258789062 96.94342041015625 151.80078125 106.03076934814453 145.62789916992188 110.0404281616211 C 143.72222900390625 111.2787857055664 141.72850036621094 111.69020080566406 139.50192260742188 111.85311889648438 C 139.50192260742188 104.35301208496094 139.50192260742188 96.8529052734375 139.50192260742188 89.35279083251953" stroke-width="0.0" fill="rgb(223, 237, 255)" opacity="1.0"/>
    <path d="M 139.50192260742188 88.00334930419922 C 139.50192260742188 88.00334930419922 139.50192260742188 88.00334930419922 139.50192260742188 88.00334930419922 C 145.5719451904297 88.36128234863281 150.82901000976562 92.214599609375 151.91680908203125 98.43767547607422 C 152.9535675048828 104.36946868896484 149.48696899414062 110.3670883178711 143.8332977294922 112.43568420410156 C 142.5751953125 112.89564514160156 140.85794067382812 113.37371826171875 139.50192260742188 113.20256805419922 C 138.40097045898438 113.0643310546875 137.62338256835938 111.82267761230469 138.5482635498047 110.89945983886719 C 139.39413452148438 110.0535888671875 141.53594970703125 110.36297607421875 142.63113403320312 109.99928283691406 C 146.632568359375 108.67369842529297 149.40306091308594 104.81379699707031 149.40306091308594 100.6033706665039 C 149.40306091308594 96.39293670654297 146.632568359375 92.53303527832031 142.63113403320312 91.20663452148438 C 141.53594970703125 90.84376525878906 139.39413452148438 91.15315246582031 138.5482635498047 90.30728149414062 C 137.44976806640625 89.20880126953125 138.6033935546875 88.3752670288086 139.50192260742188 88.00334930419922 C 139.50192260742188 88.00334930419922 139.50192260742188 88.00334930419922 139.50192260742188 88.00334930419922" stroke-width="0.0" fill="rgb(102, 169, 247)" opacity="1.0"/>
    <path d="M 139.50192260742188 112.11067199707031 C 139.50192260742188 112.11067199707031 139.50192260742188 112.11067199707031 139.50192260742188 112.11067199707031 C 142.27239990234375 112.31390380859375 144.7400665283203 113.00672912597656 146.88352966308594 114.87044525146484 C 152.43765258789062 119.7012939453125 151.80078125 128.7886505126953 145.62789916992188 132.7982940673828 C 143.72222900390625 134.0366668701172 141.72850036621094 134.4480743408203 139.50192260742188 134.61099243164062 C 139.50192260742188 127.11089324951172 139.50192260742188 119.61077880859375 139.50192260742188 112.11067199707031" stroke-width="0.0" fill="rgb(222, 237, 255)" opacity="1.0"/>
    <path d="M 136.30850219726562 88.85498046875 C 137.20787048339844 88.85498046875 138.10720825195312 88.85498046875 139.0074005126953 88.85498046875 C 139.1571502685547 89.00473022460938 139.4566650390625 89.09195709228516 139.4566650390625 89.30424499511719 C 139.4566650390625 89.51654052734375 139.1571502685547 89.60375213623047 139.0074005126953 89.75433349609375 C 138.10720825195312 89.75433349609375 137.20787048339844 89.75433349609375 136.30850219726562 89.75433349609375 C 136.15875244140625 89.60375213623047 135.85841369628906 89.51654052734375 135.85841369628906 89.30424499511719 C 135.85841369628906 89.09195709228516 136.15875244140625 89.00473022460938 136.30850219726562 88.85498046875 C 136.30850219726562 88.85498046875 136.30850219726562 88.85498046875 136.30850219726562 88.85498046875" stroke-width="0.0" fill="rgb(190, 218, 253)" opacity="1.0"/>
    <path d="M 139.50192260742188 110.76123046875 C 139.50192260742188 110.76123046875 139.50192260742188 110.76123046875 139.50192260742188 110.76123046875 C 145.5719451904297 111.11915588378906 150.82901000976562 114.9716567993164 151.91680908203125 121.19554901123047 C 152.9535675048828 127.12652587890625 149.48780822753906 133.12744140625 143.8332977294922 135.1943817138672 C 142.5751953125 135.6535186767578 140.85711669921875 136.131591796875 139.50192260742188 135.96127319335938 C 138.40097045898438 135.82220458984375 137.62338256835938 134.5813751220703 138.5482635498047 133.65733337402344 C 139.39413452148438 132.81146240234375 141.53594970703125 133.120849609375 142.63113403320312 132.7579803466797 C 146.632568359375 131.43157958984375 149.40306091308594 127.5716781616211 149.40306091308594 123.36124420166016 C 149.40306091308594 119.15164184570312 146.632568359375 115.29338073730469 142.63113403320312 113.9677963256836 C 141.53677368164062 113.60575866699219 139.39248657226562 113.91432189941406 138.5482635498047 113.06761932373047 C 137.4506072998047 111.96749877929688 138.6017303466797 111.13396453857422 139.50192260742188 110.76123046875 C 139.50192260742188 110.76123046875 139.50192260742188 110.76123046875 139.50192260742188 110.76123046875" stroke-width="0.0" fill="rgb(103, 169, 247)" opacity="1.0"/>
    <path d="M 136.30850219726562 134.07862854003906 C 137.20787048339844 134.07862854003906 138.10720825195312 134.07862854003906 139.0074005126953 134.07862854003906 C 139.1571502685547 134.22837829589844 139.4566650390625 134.31642150878906 139.4566650390625 134.52789306640625 C 139.4566650390625 134.74017333984375 139.1571502685547 134.82823181152344 139.0074005126953 134.9779815673828 C 138.10720825195312 134.9779815673828 137.20787048339844 134.9779815673828 136.30850219726562 134.9779815673828 C 136.15875244140625 134.82823181152344 135.85841369628906 134.74017333984375 135.85841369628906 134.52789306640625 C 135.85841369628906 134.31642150878906 136.15875244140625 134.22837829589844 136.30850219726562 134.07862854003906 C 136.30850219726562 134.07862854003906 136.30850219726562 134.07862854003906 136.30850219726562 134.07862854003906" stroke-width="0.0" fill="rgb(123, 180, 248)" opacity="1.0"/>
  </g>
</svg>
