<?xml version="1.0" encoding="utf-8"?>
<!-- Generator: Adobe Illustrator 27.0.0, SVG Export Plug-In . SVG Version: 6.00 Build 0)  -->
<svg version="1.1" id="图层_1" xmlns="http://www.w3.org/2000/svg" xmlns:xlink="http://www.w3.org/1999/xlink" x="0px" y="0px"
	 viewBox="0 0 224 224" style="enable-background:new 0 0 224 224;" xml:space="preserve">
<style type="text/css">
	.st0{opacity:0.9481;fill:#5082CE;enable-background:new    ;}
	.st1{fill:#DEECFE;}
</style>
<g>
	<path class="st0" d="M40,160.6c-1.9-2-2-3.4-2-15.2l0-12.8l-3-0.6c-2.3-0.5-3.7-1.5-4.9-3.5c-2.1-3.6-2.1-6,0-8.5
		c0.9-1.3,2.2-3.7,2.9-5.2c1.3-3.1,1.3-3.5-0.2-5.8c-3.3-4.7-1.4-12.6,3.3-15.1C37.9,93,38,92.1,38,79l0-14l2.3-2.3l2.7-2l69.4-0.3
		l69.6,0.3l2.5,2.1c2,2.4,1.7,3.2,1.8,15.8l-0.3,13.5l3.7,3.4c3.6,3.4,3.7,3.9,3.4,8c-0.3,2.5-1.2,5.1-2,6.1
		c-1.3,1.4-1.5,2.1-0.7,3.1c3.5,5,5.6,10.7,5,12.9c-0.8,3.2-3.4,5.7-6.5,6.3l-2.6,0.6l-0.1,13.3c0,12.3,0,13.6-1.5,15.1
		c-2.2,2-5.4,2.3-7.7,0.5c-1.5-1-1.9-2.5-2.2-15.4l-0.3-13.9l-59.9-0.2c-32.9-0.3-61-0.4-62.5-0.2l-2.6,0.7l-0.1,13.8
		c0,12.3,0,14-1.7,15.1C45.4,163.5,42,163.1,40,160.6"/>
	<path class="st1" d="M41.8,159.1c-0.6-1-0.9-7.2-1-14.5l0.2-12.6l6.7-0.1l0,14.2c-0.5,14.1-0.6,14.5-2.4,14.3
		C43.8,160.9,42.6,160.3,41.8,159.1"/>
	<path class="st1" d="M177.9,159.6c-0.6-0.7-1-5.1-0.9-14.6l0.2-13.3l6.2,0l-0.2,13.2c0,13.4-0.3,15.6-2.8,15.4
		C179.6,160.6,178.7,160.2,177.9,159.6"/>
	<path class="st1" d="M33,128.1c-1.3-1.4-1.7-3-1.7-5l0.4-2.3l160.9,0l0.2,2.5c0.3,2-0.2,3.6-1.7,4.9c-1.6,1.7-2,1.5-79,1.6
		C35.2,129.5,34.7,129.8,33,128.1"/>
	<path class="st1" d="M34.5,117.3c-0.1-2.3,3.8-4.4,7.8-4.6c3,0.2,4.8-0.2,6-1.7c1.5-1.9,2.8-1.8,63.6-1.8c60.8,0,62.2-0.2,63.8,1.8
		c1.9,1.6,4.1,1.9,6.9,1.7c3.2,0,4.4,0.6,6.3,2.4l1.8,2.7l-78.7,0.1C64.1,118.1,34.4,117.9,34.5,117.3"/>
	<path class="st1" d="M35.5,108.4c-2.7-3.4-2.5-8.3,0.3-11.1c3.1-3,5.5-1.9,4.9,2.2c0.3,2.8,1,4.1,3.6,6.7c1.8,1.4,3.3,2.9,3,3.2
		c-0.1,0.1-2.6,0.5-5.2,0.9C37.8,110.5,37,110.4,35.5,108.4"/>
	<path class="st1" d="M182.3,110.2c-5.9-0.6-6.2-0.9-2.4-4c2.4-2.5,3.4-4,3.3-6.8c0.7-4.4,1-4.6,4.5-2.1c2.8,2,3.8,5.1,2.6,8.5
		c-0.9,2.1-3.3,5.2-4.5,4.8C185.7,110.3,183.8,110.2,182.3,110.2"/>
	<path class="st1" d="M45.9,104.1c-1.6-2-2.4-3.7-2.5-5.9c0.2-1.7-0.5-3.6-1.2-3.9c-1-1-1.2-3.8-1.3-14.5l0-13.2l2.6-2.6
		c2.2-1.8,2.6-1.2,69.4-1.1c59.3-0.2,67.2-0.4,68.5,0.9c2.1,1.9,2.5,2.3,2.4,15c0.1,10.3-0.2,14.2-1.5,16c-0.7,1.2-1.1,3.3-1.1,4.4
		c-0.3,3.1-1.3,4.6-3.7,6.2c-2,1.2-11.5,1.1-65.4,1l-63.6,0L45.9,104.1"/>
</g>
</svg>
