<?xml version="1.0" ?>
<svg xmlns="http://www.w3.org/2000/svg" version="1.1" width="224" height="224">
  <defs/>
  <g>
    <path d="M 100.20272827148438 187.6024169921875 C 79.77932739257812 183.0985107421875 59.37289047241211 166.47311401367188 49.655296325683594 145.9492645263672 C 27.99999237060547 100.59013366699219 54.892921447753906 46.36573791503906 103.86824035644531 36.16948699951172 C 114.58136749267578 33.977867126464844 131.0662384033203 34.72770690917969 140.63890075683594 38.07505798339844 C 161.12330627441406 44.455345153808594 176.9063720703125 58.005130767822266 186.494140625 77.28154754638672 C 192.38385009765625 89.20498657226562 194.27798461914062 96.23704528808594 194.96311950683594 109.65276336669922 C 196.0 132.49330139160156 186.73410034179688 154.32101440429688 168.85916137695312 170.67486572265625 C 160.7500762939453 177.992919921875 147.47669982910156 185.25619506835938 137.1278839111328 187.6995849609375 C 128.72866821289062 190.02212524414062 109.48854064941406 189.97579956054688 100.20272827148438 187.6024169921875" stroke-width="1.0" fill="rgb(76, 170, 253)" opacity="1.0"/>
    <path d="M 101.01504516601562 183.34579467773438 C 71.84663391113281 175.84716796875 50.33869934082031 150.94447326660156 46.488365173339844 119.43470001220703 C 45.84893035888672 114.6587142944336 45.87519836425781 114.52970123291016 48.397377014160156 114.82271575927734 C 53.45109558105469 115.05360412597656 97.5644302368164 122.57908630371094 97.74322509765625 123.17784118652344 C 97.8861083984375 123.89376068115234 95.52809143066406 128.7713165283203 92.6611099243164 134.12625122070312 C 89.58827209472656 139.59336853027344 87.3709945678711 144.36212158203125 87.85860443115234 144.77931213378906 C 88.15750122070312 145.031494140625 92.75373840332031 142.3771514892578 97.9444351196289 138.5980224609375 C 103.23612213134766 135.23208618164062 107.88252258300781 132.28384399414062 108.48201751708984 132.330810546875 C 108.40917205810547 132.5257110595703 109.34649658203125 136.19187927246094 110.01419830322266 141.2870635986328 C 111.83642578125 153.33163452148438 116.24002075195312 180.29747009277344 116.91921997070312 182.95433044433594 C 117.39401245117188 185.26034545898438 117.27799987792969 185.6943359375 113.29280090332031 185.575927734375 C 110.79851531982422 185.25680541992188 105.40997314453125 184.28775024414062 101.01504516601562 183.34579467773438" stroke-width="1.0" fill="rgb(247, 252, 253)" opacity="0.98494303"/>
    <path d="M 120.1043701171875 185.04730224609375 C 120.1984634399414 184.74520874023438 121.31815338134766 177.39141845703125 122.64610290527344 168.8150634765625 C 124.09929656982422 160.03268432617188 125.73876190185547 148.9212188720703 126.56769561767578 144.01133728027344 C 127.3062973022461 138.69068908691406 127.94932556152344 134.16920471191406 128.34518432617188 133.28952026367188 C 128.71322631835938 132.67904663085938 131.95849609375 134.17503356933594 138.7021026611328 138.42218017578125 C 143.64881896972656 142.1486358642578 148.3749237060547 144.96287536621094 148.94630432128906 145.03646850585938 C 149.76730346679688 145.02703857421875 147.63311767578125 139.9993133544922 144.42735290527344 134.07164001464844 C 140.21368408203125 125.9061508178711 138.9682159423828 122.98453521728516 140.16244506835938 122.66720581054688 C 143.05783081054688 121.7240219116211 190.0023651123047 114.29816436767578 190.4959259033203 114.57977294921875 C 191.67739868164062 115.21835327148438 190.57180786132812 123.20952606201172 188.19869995117188 132.1384735107422 C 181.04324340820312 157.38973999023438 160.97186279296875 176.99716186523438 136.0800018310547 183.36993408203125 C 128.8109893798828 185.03298950195312 120.31143188476562 185.91162109375 120.1043701171875 185.04730224609375" stroke-width="1.0" fill="rgb(247, 252, 253)" opacity="0.9854756"/>
    <path d="M 109.87551879882812 129.957763671875 C 105.02364349365234 127.3271255493164 102.89244842529297 124.99600219726562 100.67980194091797 120.43794250488281 C 93.08403015136719 103.86365509033203 111.5198974609375 87.94435119628906 128.38291931152344 96.55555725097656 C 132.7176513671875 98.53119659423828 137.41839599609375 105.77571868896484 138.1245880126953 110.76911163330078 C 139.86239624023438 121.47949981689453 130.30203247070312 131.44761657714844 118.94097900390625 131.55552673339844 C 115.66262817382812 131.5993194580078 111.6092300415039 130.8302001953125 109.87551879882812 129.957763671875" stroke-width="1.0" fill="rgb(251, 254, 252)" opacity="0.9973487"/>
    <path d="M 46.78724670410156 106.14795684814453 C 48.34564971923828 95.47987365722656 50.539794921875 87.50473022460938 54.65589904785156 79.13214111328125 C 58.175621032714844 72.04153442382812 60.71282958984375 68.67437744140625 67.93913269042969 60.757041931152344 C 81.19493865966797 48.046058654785156 93.86662292480469 41.79206085205078 111.85528564453125 39.34513854980469 C 118.39537048339844 38.65907287597656 117.9297103881836 37.68302917480469 115.1378173828125 54.74260711669922 C 114.33978271484375 61.38686752319336 112.64189147949219 72.01617431640625 111.42668914794922 78.72013854980469 C 110.46989440917969 85.37144470214844 109.43750762939453 91.43595886230469 108.88538360595703 92.52191162109375 C 108.59169006347656 93.3151626586914 105.03092956542969 91.53971099853516 98.22370910644531 86.98759460449219 C 92.74267578125 82.99345397949219 88.14415740966797 80.08594512939453 87.69349670410156 80.36767578125 C 87.35038757324219 80.8135757446289 89.76704406738281 85.80258178710938 93.1166763305664 91.73535919189453 C 96.18449401855469 97.6344985961914 98.47185516357422 102.77098846435547 98.01385498046875 103.40287017822266 C 97.2078628540039 103.70719146728516 48.934242248535156 111.01185607910156 46.71112823486328 111.04844665527344 C 45.918792724609375 111.18379211425781 46.15528869628906 109.10187530517578 46.78724670410156 106.14795684814453" stroke-width="1.0" fill="rgb(248, 252, 253)" opacity="0.9863723"/>
    <path d="M 186.63246154785156 110.62203979492188 C 185.98211669921875 110.52227783203125 174.98912048339844 108.85984802246094 162.21456909179688 106.9107437133789 C 149.29937744140625 105.04579162597656 138.71646118164062 103.31564331054688 138.37672424316406 102.64720916748047 C 138.468017578125 102.04791259765625 141.13185119628906 97.06060791015625 144.25819396972656 91.39370727539062 C 147.60299682617188 85.72067260742188 149.98658752441406 80.87577819824219 149.80543518066406 80.58334350585938 C 149.24993896484375 80.32412719726562 144.74905395507812 82.89860534667969 139.30630493164062 86.66211700439453 C 133.92477416992188 90.22566223144531 129.12940979003906 92.96214294433594 128.54794311523438 92.7218246459961 C 128.0774688720703 92.14263916015625 126.2563705444336 81.05425262451172 124.22023010253906 67.65951538085938 C 122.04000854492188 54.633087158203125 120.0600814819336 42.778846740722656 119.68006134033203 41.25541687011719 L 119.08600616455078 38.70600128173828 L 125.3170166015625 39.45072937011719 C 151.00978088378906 42.288185119628906 171.02012634277344 56.20947265625 182.98736572265625 79.50027465820312 C 187.2869415283203 88.84673309326172 189.48043823242188 96.75968933105469 190.4446258544922 106.13359069824219 C 191.1556854248047 111.38594818115234 190.557373046875 111.69446563720703 186.63246154785156 110.62203979492188" stroke-width="1.0" fill="rgb(248, 252, 253)" opacity="0.986182"/>
    <path d="M 114.03763580322266 126.29843139648438 C 110.37109375 125.177001953125 107.427001953125 122.50707244873047 105.35893249511719 118.77599334716797 C 98.96947479248047 106.49593353271484 113.9303207397461 93.89691925048828 125.85587310791016 101.07281494140625 C 132.79971313476562 105.30792236328125 135.20103454589844 113.2288589477539 131.3169708251953 119.66712188720703 C 127.73421478271484 125.6078109741211 120.60359954833984 128.3446502685547 114.03763580322266 126.29843139648438" stroke-width="1.0" fill="rgb(78, 170, 251)" opacity="0.9967894"/>
    <path d="M 113.90789794921875 123.42337036132812 C 110.33333587646484 121.94664764404297 106.9412612915039 116.84911346435547 106.83004760742188 113.00872039794922 C 106.80348205566406 107.93543243408203 112.52818298339844 101.90733337402344 117.4874496459961 101.9337158203125 C 125.02640533447266 101.69752502441406 131.80775451660156 108.71920013427734 129.75558471679688 115.10613250732422 C 128.5857696533203 121.13513946533203 119.58419799804688 125.90486907958984 113.90789794921875 123.42337036132812" stroke-width="1.0" fill="rgb(250, 254, 253)" opacity="0.987514"/>
  </g>
</svg>
