<?xml version="1.0" ?>
<svg xmlns="http://www.w3.org/2000/svg" version="1.1" width="224" height="224">
  <defs/>
  <g>
    <path d="M 46.078773498535156 178.85093688964844 C 45.27057647705078 177.87167358398438 45.57350158691406 173.7135009765625 46.5010986328125 169.63690185546875 C 47.03044891357422 167.3067626953125 48.77549743652344 164.47950744628906 50.50181198120117 162.2308349609375 L 53.82557678222656 158.7365264892578 L 49.230674743652344 150.15505981445312 C 40.924705505371094 134.27105712890625 37.37513732910156 119.45909881591797 37.968055725097656 106.00086975097656 C 38.33097839355469 102.64640808105469 38.987876892089844 98.57340240478516 39.32953643798828 97.04695129394531 C 39.526710510253906 95.32691192626953 39.19257354736328 94.81504821777344 38.00837707519531 95.13677215576172 C 30.711181640625 92.94064331054688 28.0 87.30361938476562 30.756568908691406 81.35035705566406 C 32.05811309814453 78.56886291503906 36.26817321777344 75.93221282958984 39.46759796142578 75.93133544921875 C 44.84049987792969 75.77747344970703 49.303653717041016 79.79515075683594 49.48609161376953 84.91952514648438 C 49.12578201293945 87.88972473144531 46.556854248046875 93.13574981689453 45.06507873535156 92.97201538085938 C 44.47406005859375 92.72601318359375 44.27716064453125 93.84326171875 44.37263488769531 93.64454650878906 C 44.297035217285156 94.99539184570312 52.086544036865234 100.58819580078125 56.70370864868164 102.49292755126953 C 63.182579040527344 104.97058868408203 70.66302490234375 104.26278686523438 77.44268035888672 100.89617156982422 C 87.44257354736328 96.44261932373047 98.90338134765625 82.62477111816406 105.84790802001953 67.83597564697266 L 108.45887756347656 61.97150802612305 L 106.06356048583984 60.0432014465332 C 102.10277557373047 55.779937744140625 102.08262634277344 49.924766540527344 106.10723114013672 46.196449279785156 C 108.45758819580078 44.572059631347656 109.59320068359375 44.09251403808594 113.01310729980469 43.722129821777344 C 116.6485366821289 44.30413055419922 117.35523223876953 44.701934814453125 119.78926849365234 46.652671813964844 C 123.61436462402344 50.61627197265625 123.0199203491211 56.736812591552734 118.70064544677734 60.696815490722656 L 116.43985748291016 62.30472946166992 L 119.64183807373047 68.1727294921875 C 126.62699890136719 83.29698181152344 137.575439453125 96.37826538085938 147.69955444335938 101.24761962890625 C 154.36956787109375 104.54911804199219 161.71728515625 104.85877990722656 167.28689575195312 102.23887634277344 C 172.07269287109375 100.6266860961914 179.8520050048828 95.01188659667969 179.919189453125 93.67562866210938 C 180.24899291992188 94.2064208984375 178.93243408203125 92.935791015625 177.7907257080078 91.67305755615234 C 172.1940155029297 85.73843383789062 176.81704711914062 76.02378845214844 185.3831329345703 76.12661743164062 C 191.17791748046875 76.15689086914062 196.0 81.71762084960938 194.7633514404297 86.76786804199219 C 194.3470458984375 90.42636108398438 191.3406982421875 93.73626708984375 187.91831970214844 94.6159896850586 C 185.250244140625 94.87809753417969 185.04541015625 95.19117736816406 184.97390747070312 96.54000854492188 C 185.2335968017578 97.20207214355469 185.80929565429688 100.6551513671875 186.2256317138672 104.16085815429688 C 188.16204833984375 116.17776489257812 184.01199340820312 133.4656982421875 175.42837524414062 149.93914794921875 C 172.89002990722656 154.13697814941406 170.75302124023438 158.05323791503906 170.88865661621094 158.3307342529297 C 171.36962890625 158.79583740234375 172.47665405273438 159.93280029296875 173.59840393066406 160.8789825439453 C 176.7834014892578 164.12738037109375 179.16143798828125 170.05992126464844 179.60736083984375 174.73507690429688 C 179.6975555419922 177.7406463623047 179.23110961914062 178.8875732421875 177.62876892089844 179.52902221679688 C 176.458251953125 179.25559997558594 175.9263153076172 178.08114624023438 175.67315673828125 174.71038818359375 C 174.5140380859375 163.59864807128906 167.06063842773438 157.735107421875 149.3941650390625 154.14955139160156 C 137.64695739746094 151.2387237548828 119.7672119140625 150.60153198242188 103.58334350585938 151.0067901611328 C 76.95106506347656 151.89443969726562 59.92772674560547 156.56170654296875 53.853736877441406 163.7355499267578 C 50.7437858581543 166.55514526367188 48.865028381347656 172.3707275390625 49.47956848144531 177.79275512695312 C 49.299102783203125 179.4786376953125 47.604835510253906 180.27786254882812 46.078773498535156 178.85093688964844" stroke-width="1.0" fill="rgb(62, 153, 249)" opacity="0.99203235"/>
    <path d="M 34.377967834472656 88.73495483398438 C 32.73675537109375 87.0549545288086 33.054176330566406 83.29672241210938 34.71013641357422 81.47563171386719 C 39.36109161376953 76.32582092285156 48.436676025390625 81.63548278808594 45.476715087890625 87.60008239746094 L 44.42884063720703 89.85022735595703 L 43.27726745605469 87.23931884765625 C 41.79296875 83.14395141601562 36.86450958251953 83.98062133789062 36.80693817138672 88.402587890625 C 36.711822509765625 90.57379150390625 35.68365478515625 90.73956298828125 34.377967834472656 88.73495483398438" stroke-width="1.0" fill="rgb(250, 255, 252)" opacity="0.9897366"/>
    <path d="M 179.30296325683594 88.19390869140625 C 177.47836303710938 84.02716064453125 180.62400817871094 79.59603118896484 185.28018188476562 79.40300750732422 C 190.21824645996094 79.42218017578125 193.87808227539062 85.92878723144531 190.40567016601562 88.87459564208984 C 189.46786499023438 89.16850280761719 189.0837860107422 89.5564956665039 188.14190673828125 87.38350677490234 C 187.59536743164062 85.36787414550781 186.9445037841797 84.91539764404297 185.5438232421875 84.47786712646484 C 182.9438934326172 84.86505126953125 181.3605499267578 86.07354736328125 181.52792358398438 88.25534057617188 C 181.39918518066406 89.88748168945312 180.07064819335938 89.97589111328125 179.30296325683594 88.19390869140625" stroke-width="1.0" fill="rgb(251, 255, 251)" opacity="0.9921192"/>
    <path d="M 107.5910415649414 56.688079833984375 C 104.29676818847656 52.47822189331055 108.57080841064453 46.031959533691406 113.6781005859375 47.22022247314453 C 115.0781021118164 47.4798583984375 116.85321807861328 48.562042236328125 117.64773559570312 49.59086608886719 C 119.19049072265625 51.438316345214844 119.29549407958984 55.15459442138672 117.76931762695312 56.45555114746094 C 117.20332336425781 57.36245346069336 116.72549438476562 57.211463928222656 115.6797103881836 54.94514846801758 C 115.09915924072266 53.06294250488281 114.46566772460938 52.59395980834961 112.68370056152344 52.507781982421875 C 110.92020416259766 52.75701141357422 110.16271209716797 53.58120346069336 109.81256866455078 55.323333740234375 C 108.96239471435547 57.99229049682617 108.80718231201172 58.11753463745117 107.5910415649414 56.688079833984375" stroke-width="1.0" fill="rgb(249, 255, 252)" opacity="0.98524606"/>
    <path d="M 105.78274536132812 141.8921356201172 C 59.88210678100586 140.80055236816406 50.49037551879883 139.95144653320312 48.46448516845703 139.69671630859375 C 47.75837707519531 138.61575317382812 46.82978057861328 136.0259246826172 45.456626892089844 132.1400604248047 C 42.66539764404297 123.40348052978516 41.38758850097656 118.02482604980469 41.32197570800781 107.84839630126953 C 41.905609130859375 97.51243591308594 42.19287872314453 96.92778778076172 47.6353759765625 101.10670471191406 C 54.38842010498047 105.52356719970703 58.804351806640625 106.9732437133789 67.62591552734375 107.28817749023438 C 74.734375 105.8653335571289 75.38227844238281 105.47603607177734 80.81950378417969 103.08541107177734 C 87.0299072265625 100.135498046875 96.75666046142578 90.34050750732422 100.71988677978516 83.65328979492188 C 102.18597412109375 81.66614532470703 105.211181640625 76.2896728515625 107.50578308105469 72.04642486572266 C 109.51408386230469 67.76777648925781 111.25827026367188 63.70088195800781 112.46202850341797 62.79844284057617 C 113.76264190673828 63.60396194458008 115.38587951660156 67.8188705444336 117.34170532226562 71.73846435546875 C 127.94278717041016 91.46771240234375 138.94203186035156 102.52413940429688 151.85299682617188 106.40049743652344 C 159.56036376953125 108.67549896240234 169.69497680664062 106.49669647216797 176.49374389648438 101.29143524169922 C 177.93222045898438 100.509521484375 179.47181701660156 99.27552032470703 180.76455688476562 97.96424865722656 C 185.56961059570312 100.09854888916016 183.36892700195312 126.47112274169922 175.81427001953125 140.31314086914062 L 175.0348663330078 143.50369262695312 L 167.5250244140625 142.95327758789062 C 163.74252319335938 142.80723571777344 135.69776916503906 142.25015258789062 105.78274536132812 141.8921356201172" stroke-width="0.0" fill="rgb(186, 221, 251)" opacity="0.99612796"/>
    <path d="M 52.61581039428711 149.23178100585938 C 50.537879943847656 145.49899291992188 49.05228805541992 142.18397521972656 49.199859619140625 141.74514770507812 C 50.04262161254883 140.68710327148438 57.62198257446289 137.4758758544922 61.76945114135742 136.88818359375 C 63.842838287353516 136.11099243164062 65.85746765136719 135.4543914794922 66.27745056152344 135.1903839111328 C 66.62897491455078 134.80325317382812 68.67068481445312 134.3675079345703 70.48451232910156 134.04046630859375 C 72.771240234375 133.78970336914062 74.69841003417969 133.2550811767578 75.03805541992188 132.9979248046875 C 76.24000549316406 132.2351837158203 78.33212280273438 131.70889282226562 94.20143127441406 129.99501037597656 C 105.6060791015625 128.89105224609375 129.1975860595703 128.9374237060547 132.1504669189453 130.25486755371094 C 132.5283966064453 130.30801391601562 135.10707092285156 130.40301513671875 137.7565155029297 131.06446838378906 C 146.99566650390625 131.98727416992188 148.98358154296875 132.52102661132812 150.58837890625 133.4681396484375 C 151.18368530273438 133.92572021484375 153.20022583007812 134.40536499023438 154.8499755859375 134.43093872070312 C 156.64398193359375 134.45059204101562 158.5215301513672 134.55838012695312 159.49830627441406 135.6383056640625 C 160.1326904296875 136.14337158203125 162.37718200683594 136.95639038085938 164.65200805664062 137.21273803710938 C 166.55990600585938 137.50453186035156 168.20608520507812 138.0083770751953 168.2574005126953 138.21487426757812 C 168.2574005126953 138.52667236328125 169.61734008789062 139.3456268310547 171.29444885253906 139.9551544189453 C 172.91453552246094 140.62632751464844 174.48353576660156 141.7325897216797 174.99288940429688 142.10194396972656 C 175.16941833496094 143.13418579101562 169.93368530273438 153.7843475341797 168.23233032226562 155.81825256347656 C 167.8108673095703 156.32638549804688 164.50111389160156 155.24229431152344 160.50096130371094 154.00234985351562 C 147.79751586914062 150.02975463867188 138.0659942626953 148.48252868652344 116.61947631835938 147.8069610595703 C 104.33990478515625 147.65968322753906 94.47953033447266 147.98941040039062 89.15803527832031 148.677734375 C 79.35315704345703 149.59243774414062 67.11741638183594 152.20034790039062 61.662109375 154.7402801513672 C 59.59809875488281 155.49310302734375 57.64493179321289 156.21762084960938 56.948299407958984 156.59913635253906 C 56.494895935058594 156.16586303710938 54.46884536743164 153.04925537109375 52.61581039428711 149.23178100585938" stroke-width="1.0" fill="rgb(245, 248, 251)" opacity="0.9875636"/>
    <path d="M 67.57454681396484 142.22683715820312 C 66.70380401611328 140.3560791015625 69.3388671875 138.3676300048828 71.54515075683594 139.07664489746094 C 72.06591796875 139.46029663085938 72.65280151367188 140.65859985351562 72.39834594726562 141.62548828125 C 72.10458374023438 143.72181701660156 68.29928588867188 144.1955108642578 67.57454681396484 142.22683715820312" stroke-width="1.0" fill="rgb(67, 161, 250)" opacity="0.97008485"/>
    <path d="M 152.5553436279297 141.7051544189453 C 152.46946716308594 138.92811584472656 154.3130645751953 137.93536376953125 156.25799560546875 139.51893615722656 C 158.07965087890625 140.98526000976562 157.0814208984375 143.70968627929688 154.49549865722656 143.6610870361328 C 153.30026245117188 143.66253662109375 152.59078979492188 142.90194702148438 152.5553436279297 141.7051544189453" stroke-width="1.0" fill="rgb(68, 161, 249)" opacity="0.9672475"/>
    <path d="M 90.46505737304688 136.90928649902344 C 90.6053466796875 135.37109375 91.59762573242188 134.53077697753906 92.93663787841797 134.56842041015625 C 96.0679702758789 134.59063720703125 95.70919036865234 138.63636779785156 92.3620376586914 139.0615692138672 C 90.38388061523438 139.32101440429688 90.22095489501953 138.97705078125 90.46505737304688 136.90928649902344" stroke-width="1.0" fill="rgb(72, 162, 251)" opacity="0.95561475"/>
    <path d="M 102.84232330322266 137.6034393310547 C 102.27259826660156 135.59120178222656 103.88199615478516 133.83258056640625 105.91004943847656 134.2329864501953 C 108.76152038574219 134.90118408203125 108.42633819580078 138.5793914794922 105.55074310302734 139.035888671875 C 104.31597137451172 139.080322265625 103.18578338623047 138.50942993164062 102.84232330322266 137.6034393310547" stroke-width="1.0" fill="rgb(67, 160, 250)" opacity="0.96951294"/>
    <path d="M 116.8349380493164 137.336181640625 C 116.2143783569336 135.2496337890625 117.23275756835938 133.9805145263672 119.4482192993164 134.2185516357422 C 120.36492156982422 134.24977111816406 121.35883331298828 134.77813720703125 121.63062286376953 135.20840454101562 C 122.63139343261719 136.8555450439453 120.98124694824219 139.1714324951172 119.3071517944336 138.96678161621094 C 118.10499572753906 139.09841918945312 117.1414794921875 138.2810821533203 116.8349380493164 137.336181640625" stroke-width="1.0" fill="rgb(67, 161, 251)" opacity="0.97149646"/>
    <path d="M 129.60789489746094 137.66622924804688 C 129.3179931640625 137.1220703125 129.7909393310547 136.0101318359375 130.65725708007812 135.17864990234375 C 132.76673889160156 133.68661499023438 134.44610595703125 134.76223754882812 134.1602783203125 137.58270263671875 C 133.91355895996094 139.50161743164062 130.51051330566406 139.6941680908203 129.60789489746094 137.66622924804688" stroke-width="1.0" fill="rgb(72, 162, 250)" opacity="0.95351666"/>
    <path d="M 140.515869140625 140.9606170654297 C 138.84030151367188 140.13470458984375 139.79859924316406 136.72369384765625 141.9971466064453 136.6884002685547 C 143.2399444580078 136.62847900390625 144.10955810546875 137.55252075195312 144.39779663085938 138.5270538330078 C 144.5634765625 141.04884338378906 142.80056762695312 142.29888916015625 140.515869140625 140.9606170654297" stroke-width="1.0" fill="rgb(197, 223, 253)" opacity="0.9433912"/>
    <path d="M 80.3824234008789 140.2728271484375 C 79.652587890625 138.08102416992188 81.35090637207031 136.49530029296875 83.35692596435547 136.7984161376953 C 85.719970703125 137.34840393066406 85.54010009765625 140.88746643066406 82.9996337890625 141.21446228027344 C 81.7933349609375 141.26412963867188 80.81245422363281 140.7955780029297 80.3824234008789 140.2728271484375" stroke-width="1.0" fill="rgb(193, 226, 254)" opacity="0.95183784"/>
  </g>
</svg>
