<?xml version="1.0" encoding="utf-8"?>
<!-- Generator: Adobe Illustrator 27.0.0, SVG Export Plug-In . SVG Version: 6.00 Build 0)  -->
<svg version="1.1" id="图层_1" xmlns="http://www.w3.org/2000/svg" xmlns:xlink="http://www.w3.org/1999/xlink" x="0px" y="0px"
	 viewBox="0 0 224 224" style="enable-background:new 0 0 224 224;" xml:space="preserve">
<style type="text/css">
	.st0{fill:#67A9F7;}
	.st1{opacity:0.9904;fill:#DAEBF9;enable-background:new    ;}
	.st2{opacity:0.9847;fill:#D8E9F8;enable-background:new    ;}
	.st3{opacity:0.9903;fill:#01050E;enable-background:new    ;}
	.st4{opacity:0.9778;fill:#317BD0;enable-background:new    ;}
</style>
<g>
	<path class="st0" d="M57.5,192c-2.1-1.9-0.9-7.4,1.3-15c1.4-4.1,2.2-12.2,3-18.5c0.4-6,0.1-16.7,0.5-23.3
		c1.5-14.8,3.4-23.7,7.1-35.7C72,90,79.9,74.4,83.5,70c0.9-1.4,3.2-4.4,5-6.8c3-3.4,9.2-9.7,14.6-13.6c2-0.8,2.4-2,1.4-7.2
		c0.2-7.6,1.5-11.3,3.9-13.5c2.9-0.9,4.5,0.6,7.4,6.5c1.5,3.7,3,6.3,3.8,8.4c0.2-0.4,6-0.9,13.3-1.5c10,1,12.5,2.2,12.8,0.8
		c0.6-1.8,3-4.5,4.5-8.2c2.2-3.7,4.4-5.8,5.9-5.9c2.8-0.4,4.5,2.9,4.8,8.7c-0.1,4.4-0.1,6.5-3.2,14.3c-2.1,2.4-1,3.5,1.8,8.3
		c4.6,10.6,5.7,14.5,6.6,30.6c-0.5,11.6-1.8,17.4-2.4,21.3c-2.4,9-2.7,13.8-0.4,17.6c2.5,6.8,5.2,17,5.1,22.8
		c0,13.5-9.9,22.7-22.5,20.8c-3.4-1.2-5.2-1.3-5.3-0.7c0.2,2.8,2.9,12.9,5.5,17.1c2.8,5,4.1,4.4-44.4,6.1
		C62.7,195.2,58.8,193.6,57.5,192"/>
	<path class="st1" d="M143.3,165.5c-4.4-2.8-10.4-8.6-14.9-13.9c-8-10.3-17.6-34.6-19.9-49.7c-1.4-7.1-0.8-23.5,0.7-27.2
		c0.7-1.5,1-1.4,2,3.8l0.5,5.7l3.7,0.3c4.8,0.6,7.4,1.9,8.5,3.9c1.7,3.2,8.2,6.3,13.9,6.7l5.4,0.1l1.3,7.4
		c2.7,18.2,9.3,46,13.2,55.9c1,3.7-4.2,8.6-9.5,8.6C147,167,144.7,166.4,143.3,165.5"/>
	<path class="st2" d="M159.3,117.6c-2-5.9-2.5-8.9-3.1-16.3l-0.7-8.4l3.3-3.6c1.7-2.1,3.5-4.5,4.4-5.5c1.4-2.9,1.3,8.8-0.5,20.2
		C161.1,115.1,160.1,119.5,159.3,117.6"/>
	<path class="st3" d="M115.4,100.3c-1.1-0.8-1.8-2.7-2-4.2c0-2.8,3-6,5.5-5.9c1.7-0.1,1.9,0.3,1.1,1.5c-0.8,0.8-0.9,1.6-0.6,2.1
		c0.8,1.2,3.2,1.1,3.1-0.2c0.3-0.5,0.7-0.9,1-0.2c3,1.5-0.2,8.6-4.2,8.5C118.3,102.2,116.5,101.3,115.4,100.3"/>
	<path class="st4" d="M141.9,159.7c-2.3-3.2-1.9-8.3,0.9-10.5c1.3-1.1,3-1.9,4-1.8c0.8-0.1,2.6,0.7,3.9,1.7c3.1,2.3,3.4,8,0.5,10.8
		C148.8,162.5,143.7,162.4,141.9,159.7"/>
</g>
</svg>
