<?xml version="1.0" ?>
<svg xmlns="http://www.w3.org/2000/svg" version="1.1" width="224" height="224">
  <defs/>
  <g>
    <path d="M 37.338722229003906 182.1597900390625 C 34.74189758300781 179.8058319091797 32.62767791748047 177.75143432617188 30.681533813476562 175.46881103515625 L 29.095199584960938 169.7316436767578 L 29.069618225097656 121.17628479003906 C 28.880233764648438 68.012939453125 28.0 68.63955688476562 34.17089080810547 63.996700286865234 C 36.74320983886719 62.620304107666016 36.716941833496094 62.63245391845703 35.735992431640625 57.611751556396484 C 36.22350311279297 49.90573501586914 39.495697021484375 45.1273193359375 45.30802917480469 42.39910125732422 C 48.726722717285156 39.502471923828125 49.39824676513672 40.26557922363281 113.98168182373047 39.91223907470703 L 176.05227661132812 40.01005554199219 L 183.23516845703125 43.91407775878906 C 187.30435180664062 47.32963180541992 188.99517822265625 51.560794830322266 188.1269073486328 58.311256408691406 C 187.62994384765625 62.30077362060547 187.9790802001953 63.10713195800781 191.3573760986328 64.36947631835938 C 193.2552490234375 65.9017333984375 194.50494384765625 68.82185363769531 195.6302947998047 72.62445068359375 C 195.83319091796875 75.82862854003906 196.0 165.3314208984375 195.46759033203125 169.59341430664062 C 193.94540405273438 176.8065185546875 188.60861206054688 182.80081176757812 182.25146484375 183.3613739013672 C 182.25021362304688 184.49752807617188 149.23165893554688 183.9002227783203 110.88024139404297 184.1905517578125 L 43.362281799316406 184.11636352539062 L 37.338722229003906 182.1597900390625" stroke-width="1.0" fill="rgb(2, 3, 3)" opacity="0.9874735"/>
    <path d="M 41.98384094238281 179.41580200195312 C 38.249229431152344 178.07467651367188 35.34185791015625 174.43157958984375 33.699501037597656 170.7648468017578 C 32.80632781982422 169.9645538330078 33.082252502441406 152.78639221191406 33.094764709472656 119.9861831665039 C 33.397071838378906 68.50248718261719 31.734764099121094 68.7496337890625 37.50835418701172 66.83224487304688 C 41.330657958984375 66.35265350341797 40.768646240234375 66.55888366699219 40.235435485839844 59.32048416137695 C 40.347198486328125 55.55387878417969 40.706993103027344 51.900421142578125 42.45097351074219 49.573448181152344 C 46.622596740722656 42.73902130126953 43.246788024902344 44.102901458740234 113.19488525390625 43.90290069580078 L 175.8118896484375 44.00395202636719 L 181.25877380371094 46.883113861083984 C 183.88087463378906 51.28129577636719 184.32623291015625 51.62493896484375 184.06736755371094 58.25102996826172 L 184.24502563476562 66.3848876953125 L 188.02481079101562 67.37712097167969 L 191.12689208984375 71.65430450439453 L 191.31504821777344 120.67476654052734 C 190.80535888671875 169.80206298828125 191.39096069335938 171.18716430664062 188.90536499023438 174.18003845214844 C 184.58187866210938 181.34890747070312 188.1025848388672 180.21572875976562 112.99324035644531 180.05374145507812 C 73.32977294921875 179.95831298828125 41.62147521972656 180.4697265625 41.98384094238281 179.41580200195312" stroke-width="1.0" fill="rgb(251, 253, 252)" opacity="0.99171835"/>
    <path d="M 50.10594177246094 166.72808837890625 L 47.217872619628906 161.77029418945312 L 47.202064514160156 84.9769287109375 L 49.222808837890625 80.69985961914062 C 50.45170593261719 79.17627716064453 52.567832946777344 77.15824127197266 54.82405090332031 76.26505279541016 C 57.868045806884766 75.98341369628906 58.7730827331543 75.67279052734375 58.38612747192383 72.510009765625 C 59.557098388671875 66.40924072265625 61.03762435913086 65.07028198242188 72.27608489990234 65.59671783447266 C 82.64144897460938 65.15020751953125 84.81114196777344 66.12338256835938 85.55524444580078 72.40718078613281 C 84.66534423828125 75.54283142089844 84.8342056274414 76.15745544433594 88.2398910522461 76.08175659179688 C 91.62645721435547 76.32369995117188 91.6849365234375 76.0215835571289 90.7708969116211 71.88160705566406 C 91.90208435058594 61.53224563598633 93.96202087402344 60.468326568603516 113.76268005371094 61.15766906738281 C 127.27906036376953 60.87152099609375 128.1058349609375 61.20320510864258 131.15216064453125 63.20051956176758 C 132.926025390625 64.89109802246094 134.41075134277344 66.62557983398438 134.51910400390625 70.0809326171875 L 134.30682373046875 76.20751190185547 L 152.85964965820312 76.36711120605469 C 173.63575744628906 75.7398681640625 173.38494873046875 76.78678894042969 177.7530975341797 83.879638671875 C 177.7814483642578 86.95303344726562 178.02902221679688 158.3936767578125 177.48878479003906 161.9583740234375 C 171.54293823242188 171.64028930664062 177.32594299316406 169.9226531982422 112.12950134277344 170.0115509033203 L 55.42810821533203 170.26824951171875 L 50.10594177246094 166.72808837890625" stroke-width="1.0" fill="rgb(2, 3, 3)" opacity="0.9878361"/>
    <path d="M 145.80270385742188 72.36125183105469 C 145.60447692871094 72.48302459716797 145.60769653320312 69.49122619628906 145.2520294189453 66.45903015136719 L 145.81561279296875 62.18947982788086 L 155.6243896484375 61.89299774169922 C 164.78176879882812 61.73762130737305 165.2813720703125 61.9969482421875 165.26007080078125 65.06719970703125 C 166.88644409179688 72.03067779541016 165.44541931152344 73.55496978759766 155.84130859375 72.73695373535156 C 151.33871459960938 72.80674743652344 147.4433135986328 72.41581726074219 145.80270385742188 72.36125183105469" stroke-width="1.0" fill="rgb(9, 12, 12)" opacity="0.95369697"/>
    <path d="M 54.33659362792969 164.89389038085938 L 51.43352508544922 161.36685180664062 L 51.48008728027344 84.92594146728516 L 53.88148498535156 81.89166259765625 C 55.754974365234375 79.78985595703125 59.52183532714844 80.43331909179688 72.71115112304688 80.4593505859375 L 91.056884765625 80.36932373046875 L 92.54765319824219 83.51100158691406 C 93.09400939941406 84.98130798339844 94.70831298828125 86.87744140625 95.47062683105469 87.00132751464844 C 97.85081481933594 87.87883758544922 97.85182189941406 87.87670135498047 101.17570495605469 88.55487060546875 C 99.17597198486328 90.27598571777344 96.64347839355469 91.0728759765625 95.0301742553711 92.73112487792969 C 80.22969055175781 102.73888397216797 77.60800170898438 125.34234619140625 90.2636489868164 137.97352600097656 C 96.32765197753906 144.42373657226562 103.51869201660156 147.2554473876953 112.85247802734375 147.6049346923828 C 118.95361328125 147.0167236328125 121.01287078857422 146.47854614257812 125.27201080322266 144.5845947265625 C 131.1934814453125 141.8434600830078 137.30825805664062 136.1412811279297 140.112548828125 129.5507354736328 C 143.5626983642578 123.64747619628906 143.7667999267578 111.81616973876953 140.25650024414062 105.72830963134766 C 138.62509155273438 100.43045806884766 130.59625244140625 92.39315795898438 127.25755310058594 91.23614501953125 C 123.12248992919922 89.14534759521484 123.61466217041016 88.219970703125 128.10867309570312 87.54502868652344 C 129.9849395751953 86.81890869140625 131.93875122070312 85.39849090576172 132.64804077148438 84.00218200683594 L 134.29910278320312 80.19699096679688 L 151.79307556152344 80.43187713623047 C 167.9491424560547 80.35411834716797 171.05398559570312 79.84968566894531 172.98907470703125 84.48094940185547 C 173.82325744628906 84.3996353149414 173.56126403808594 101.82545471191406 173.81094360351562 125.02217864990234 L 173.8412628173828 161.1324462890625 L 171.23756408691406 164.2359161376953 C 168.1488494873047 166.34353637695312 162.21826171875 165.58734130859375 112.74798583984375 165.87472534179688 C 62.76893997192383 165.54078674316406 56.54275894165039 166.5487823486328 54.33659362792969 164.89389038085938" stroke-width="1.0" fill="rgb(250, 253, 253)" opacity="0.9937006"/>
    <path d="M 103.14912414550781 141.67068481445312 C 97.69872283935547 139.71762084960938 92.7791748046875 135.58615112304688 89.17095947265625 129.75390625 C 87.00518035888672 124.9661865234375 86.45236206054688 123.09221649169922 86.18585205078125 117.50999450683594 C 86.51591491699219 102.15721893310547 97.562744140625 91.2552719116211 113.73033905029297 91.08967590332031 C 127.77237701416016 91.532470703125 138.70431518554688 102.85954284667969 138.94186401367188 117.33462524414062 C 138.96937561035156 124.59202575683594 137.04835510253906 128.8257293701172 132.15296936035156 134.6447296142578 C 125.1940689086914 142.68946838378906 113.59043884277344 145.68055725097656 103.14912414550781 141.67068481445312" stroke-width="1.0" fill="rgb(234, 237, 237)" opacity="0.9362961"/>
    <path d="M 96.88015747070312 83.62139892578125 C 95.458740234375 82.7158203125 94.69608306884766 79.61270904541016 94.8724365234375 74.9986343383789 C 94.72288513183594 68.57597351074219 95.18852996826172 67.2742919921875 97.08766174316406 65.50463104248047 C 99.83380889892578 64.7281494140625 125.31474304199219 64.799072265625 127.96237182617188 65.56169128417969 C 129.75160217285156 66.97820281982422 130.3744354248047 68.22161865234375 130.0127410888672 74.25658416748047 C 130.4461669921875 79.31581115722656 129.83363342285156 82.79206085205078 128.4088592529297 83.55911254882812 C 127.08002471923828 85.04657745361328 97.48136901855469 85.05914306640625 96.88015747070312 83.62139892578125" stroke-width="1.0" fill="rgb(252, 255, 254)" opacity="0.9968264"/>
    <path d="M 63.02742385864258 73.35708618164062 C 62.329566955566406 70.05110168457031 62.71603775024414 69.4804916381836 71.41981506347656 69.54220581054688 L 80.9710693359375 69.76213836669922 L 81.86210632324219 75.81356811523438 L 71.48368835449219 75.83979034423828 C 61.59549331665039 76.02543640136719 62.09779357910156 75.88359069824219 63.02742385864258 73.35708618164062" stroke-width="1.0" fill="rgb(247, 249, 249)" opacity="0.9763598"/>
    <path d="M 149.37457275390625 67.96221923828125 C 148.19259643554688 66.4805679321289 149.71249389648438 65.18700408935547 153.05349731445312 65.83657836914062 C 155.33465576171875 65.28878021240234 156.0981903076172 65.93465423583984 156.2036895751953 67.49539947509766 C 155.97268676757812 68.82229614257812 150.63873291015625 69.17021179199219 149.37457275390625 67.96221923828125" stroke-width="1.0" fill="rgb(228, 233, 234)" opacity="1.0"/>
    <path d="M 151.79449462890625 149.07815551757812 C 149.1446075439453 146.09188842773438 149.0352020263672 145.8037109375 149.12347412109375 135.7010498046875 L 149.08067321777344 125.85120391845703 L 158.53158569335938 125.30278015136719 C 171.25015258789062 124.75662231445312 170.72218322753906 123.99124908447266 170.42221069335938 135.9721221923828 C 170.5995330810547 145.66139221191406 170.23190307617188 146.10647583007812 166.94381713867188 149.23175048828125 C 162.29513549804688 153.30320739746094 155.9561004638672 153.22195434570312 151.79449462890625 149.07815551757812" stroke-width="1.0" fill="rgb(27, 28, 28)" opacity="0.8887905"/>
    <path d="M 60.13915252685547 130.81961059570312 C 53.712928771972656 126.8056411743164 52.793212890625 117.51153564453125 58.26911926269531 112.4163589477539 C 68.93002319335938 103.00375366210938 83.77803039550781 114.41361236572266 77.2144546508789 126.5867919921875 C 74.17025756835938 132.53680419921875 66.00764465332031 134.67588806152344 60.13915252685547 130.81961059570312" stroke-width="1.0" fill="rgb(0, 1, 1)" opacity="0.996754"/>
    <path d="M 152.38851928710938 120.33059692382812 C 148.08583068847656 115.5337142944336 148.14801025390625 110.61569213867188 152.35614013671875 105.7753677368164 C 154.7100830078125 103.7529296875 156.85296630859375 102.798828125 159.169677734375 103.06094360351562 C 164.7837677001953 102.75846099853516 169.85012817382812 107.27787780761719 169.96047973632812 112.4089126586914 C 169.480224609375 117.03238677978516 168.20655822753906 119.4782943725586 164.6975860595703 121.71123504638672 C 160.3504180908203 123.93614959716797 156.1661834716797 123.77306365966797 152.38851928710938 120.33059692382812" stroke-width="1.0" fill="rgb(0, 1, 1)" opacity="0.9967697"/>
    <path d="M 104.38208770751953 139.9602508544922 C 101.39730834960938 139.26243591308594 95.5486831665039 135.27137756347656 93.68901062011719 132.4866485595703 C 88.21540069580078 126.64717102050781 86.89639282226562 115.15287017822266 90.80208587646484 107.5692138671875 C 92.72542572021484 102.25337982177734 100.20008850097656 95.94854736328125 105.7198486328125 94.6354751586914 C 111.05207061767578 92.56453704833984 119.54752349853516 93.4443588256836 123.52369689941406 95.77760314941406 C 127.420654296875 97.49640655517578 132.3063201904297 102.4092788696289 134.08920288085938 106.36771392822266 C 136.60037231445312 110.23880767822266 137.58033752441406 120.2373275756836 135.47813415527344 125.1982650756836 C 131.88961791992188 137.0883331298828 116.44828033447266 144.58609008789062 104.38208770751953 139.9602508544922" stroke-width="1.0" fill="rgb(0, 1, 1)" opacity="0.99005586"/>
    <path d="M 154.8188934326172 145.898681640625 C 153.26190185546875 143.20462036132812 153.308349609375 141.45062255859375 154.76434326171875 138.24302673339844 C 158.42282104492188 133.64566040039062 165.55751037597656 136.5258331298828 165.68505859375 141.5782470703125 C 165.83912658691406 147.15982055664062 158.99598693847656 149.8057098388672 154.8188934326172 145.898681640625" stroke-width="1.0" fill="rgb(246, 248, 249)" opacity="0.9765386"/>
    <path d="M 61.84621810913086 127.46903991699219 C 54.46101379394531 122.11280822753906 60.938541412353516 110.45071411132812 69.44464111328125 113.3509292602539 C 75.10397338867188 115.45992279052734 76.66915130615234 121.88375091552734 72.34102630615234 126.38392639160156 C 69.8453140258789 129.39117431640625 64.95639038085938 129.87281799316406 61.84621810913086 127.46903991699219" stroke-width="1.0" fill="rgb(252, 254, 254)" opacity="0.9956099"/>
    <path d="M 155.3603515625 117.35151672363281 C 151.59365844726562 113.17903137207031 154.77590942382812 106.43099212646484 159.75160217285156 107.01671600341797 C 162.84759521484375 106.52418518066406 166.2618865966797 110.38457489013672 166.02462768554688 113.4774398803711 C 166.2074432373047 116.37679290771484 162.23399353027344 119.71080780029297 159.285888671875 119.2323989868164 C 157.98330688476562 119.52691650390625 156.3165283203125 118.5873031616211 155.3603515625 117.35151672363281" stroke-width="1.0" fill="rgb(249, 251, 251)" opacity="0.990107"/>
    <path d="M 106.37164306640625 136.09217834472656 C 91.49250793457031 131.53753662109375 87.77559661865234 113.01411437988281 99.2846450805664 102.25587463378906 C 107.22725677490234 95.7021484375 118.47862243652344 95.82047271728516 126.12057495117188 102.70345306396484 C 130.75917053222656 106.96270751953125 133.3778076171875 114.48263549804688 132.04624938964844 120.82990264892578 C 130.53517150878906 132.2320556640625 117.55521392822266 139.95883178710938 106.37164306640625 136.09217834472656" stroke-width="1.0" fill="rgb(253, 254, 254)" opacity="0.9996528"/>
    <path d="M 156.75816345214844 141.05670166015625 C 156.80911254882812 140.02719116210938 158.47796630859375 139.15127563476562 159.76821899414062 139.09556579589844 C 160.94369506835938 139.08920288085938 162.29232788085938 140.50363159179688 162.3575439453125 141.90611267089844 C 162.24655151367188 143.0999755859375 161.46255493164062 144.25656127929688 159.46908569335938 144.7779083251953 C 157.3091583251953 144.298583984375 156.55526733398438 142.94390869140625 156.75816345214844 141.05670166015625" stroke-width="1.0" fill="rgb(7, 8, 8)" opacity="0.9684326"/>
    <path d="M 157.42739868164062 114.23308563232422 C 156.13253784179688 112.15780639648438 157.62803649902344 109.99579620361328 160.89129638671875 109.96517944335938 C 161.83255004882812 110.47389221191406 162.4482421875 111.71589660644531 162.301513671875 113.42059326171875 C 161.5265350341797 115.64497375488281 158.69996643066406 116.2420425415039 157.42739868164062 114.23308563232422" stroke-width="1.0" fill="rgb(4, 6, 6)" opacity="0.9773091"/>
    <path d="M 106.9824447631836 130.07655334472656 C 104.46417236328125 129.4224090576172 100.68368530273438 125.7791519165039 99.58068084716797 122.80789184570312 C 95.44268798828125 114.75022888183594 100.97118377685547 104.68515014648438 110.76371765136719 103.2831039428711 C 116.10350036621094 102.13392639160156 122.67257690429688 105.80277252197266 125.27766418457031 111.41338348388672 C 127.47760009765625 117.18330383300781 126.92800903320312 121.98365020751953 122.83341217041016 126.79618835449219 C 119.75724792480469 129.58827209472656 118.70775604248047 129.96328735351562 113.75183868408203 131.03932189941406 C 111.26878356933594 131.22007751464844 108.3582763671875 130.8048858642578 106.9824447631836 130.07655334472656" stroke-width="1.0" fill="rgb(0, 2, 2)" opacity="0.9907781"/>
    <path d="M 106.02442932128906 125.0904541015625 C 98.72840881347656 118.42487335205078 102.90141296386719 107.77325439453125 112.61685943603516 107.3738021850586 C 121.6275634765625 107.738525390625 126.0798568725586 118.38854217529297 119.33695220947266 124.80332946777344 C 115.48959350585938 128.32244873046875 110.16023254394531 128.17352294921875 106.02442932128906 125.0904541015625" stroke-width="1.0" fill="rgb(252, 254, 254)" opacity="0.9962872"/>
  </g>
</svg>
