<?xml version="1.0" ?>
<svg xmlns="http://www.w3.org/2000/svg" version="1.1" width="224" height="224">
  <defs/>
  <g>
    <path d="M 103.75251007080078 179.55413818359375 C 100.31131744384766 176.13375854492188 99.59228515625 172.66029357910156 98.13201141357422 158.91546630859375 C 97.09680938720703 144.57359313964844 96.417236328125 141.8994598388672 96.70275115966797 151.12649536132812 C 96.25952911376953 157.65960693359375 94.53931427001953 159.7115020751953 97.36746215820312 171.374267578125 L 96.88735961914062 181.249267578125 L 78.52855682373047 181.1492156982422 C 64.24162292480469 181.0358428955078 59.02806854248047 181.6430206298828 57.94181442260742 180.5684051513672 C 56.169376373291016 179.44029235839844 57.33515548706055 177.58432006835938 56.67949676513672 171.00289916992188 C 58.06517028808594 165.41339111328125 58.968692779541016 153.64395141601562 60.08667755126953 146.9969482421875 C 61.45697021484375 141.98001098632812 61.65666961669922 141.4771728515625 60.087398529052734 136.12008666992188 C 59.1948356628418 132.0264129638672 57.729248046875 124.62934875488281 57.84195327758789 117.911865234375 L 57.92353057861328 108.6458969116211 L 51.086647033691406 104.09197235107422 C 46.65150451660156 101.37039947509766 43.44407653808594 99.11186218261719 43.05458068847656 96.50332641601562 C 42.07627868652344 94.31986999511719 40.394554138183594 92.39988708496094 37.57624053955078 91.38227081298828 C 35.116790771484375 89.88915252685547 31.562545776367188 87.66207885742188 30.831771850585938 85.97012329101562 L 28.0 81.30111694335938 L 33.17467498779297 70.72314453125 C 36.2939453125 65.41795349121094 38.36128234863281 58.509403228759766 40.705848693847656 57.70802688598633 C 42.33271026611328 56.017459869384766 44.954994201660156 53.078399658203125 45.773284912109375 50.184844970703125 C 49.154232025146484 45.29229736328125 50.61175537109375 44.97148132324219 63.13389205932617 42.765159606933594 C 74.85740661621094 40.66783905029297 82.9131851196289 40.56884002685547 90.27003479003906 42.22230529785156 C 93.04737091064453 43.494964599609375 94.46296691894531 44.338722229003906 97.01052856445312 42.75122833251953 C 99.04090881347656 41.47516632080078 125.1053237915039 41.545204162597656 126.94264221191406 42.72154998779297 C 129.44912719726562 44.22850799560547 130.3146514892578 43.918540954589844 133.828857421875 42.48009490966797 C 140.95654296875 40.2861328125 153.30068969726562 41.04399108886719 164.9621124267578 43.59495544433594 C 171.27813720703125 44.83680725097656 173.1898956298828 45.45940399169922 176.0713348388672 47.250709533691406 C 180.3197479248047 54.57310485839844 187.3158416748047 60.1623649597168 190.66207885742188 70.90476989746094 L 196.0 81.08043670654297 L 193.1890411376953 85.54985809326172 C 192.94873046875 87.34500122070312 189.6231689453125 89.6513900756836 186.97152709960938 91.27822875976562 C 184.73403930664062 92.10218811035156 182.0062713623047 94.13945770263672 181.08596801757812 96.81826782226562 C 180.71624755859375 99.4188232421875 176.20550537109375 102.00987243652344 172.59719848632812 104.60206604003906 L 166.03271484375 108.6875991821289 L 166.13955688476562 118.02568817138672 C 166.38253784179688 124.22671508789062 164.95083618164062 131.73110961914062 164.13877868652344 135.88331604003906 C 162.54995727539062 141.24810791015625 162.54139709472656 142.5972442626953 164.07969665527344 146.48989868164062 C 164.76956176757812 154.33338928222656 167.14459228515625 171.50941467285156 166.8571014404297 177.44424438476562 L 165.74964904785156 181.17849731445312 L 147.6381072998047 180.9803466796875 C 134.8896026611328 180.9827423095703 129.0014190673828 181.6339569091797 126.92179107666016 180.93072509765625 C 126.19483184814453 179.84373474121094 125.910888671875 167.17172241210938 127.23973083496094 165.54449462890625 C 128.6669158935547 165.2869873046875 126.38383483886719 148.45152282714844 126.70580291748047 145.4689483642578 C 125.57661437988281 144.78150939941406 126.51191711425781 146.33558654785156 124.22980499267578 161.76995849609375 C 122.81475830078125 174.33053588867188 121.07072448730469 179.009765625 116.98512268066406 181.07647705078125 C 112.06558990478516 183.7138671875 107.85594940185547 182.79446411132812 103.75251007080078 179.55413818359375" stroke-width="1.0" fill="rgb(7, 8, 8)" opacity="0.96727234"/>
    <path d="M 105.30597686767578 168.7625274658203 C 105.51203155517578 167.8625946044922 108.59613037109375 168.1673583984375 111.77692413330078 167.32122802734375 C 115.62866973876953 167.13516235351562 118.91328430175781 167.96424865722656 118.80929565429688 167.98080444335938 C 119.1876220703125 168.53713989257812 116.55906677246094 168.89749145507812 112.27820587158203 169.30284118652344 C 107.72511291503906 169.674072265625 105.23189544677734 169.5718536376953 105.30597686767578 168.7625274658203" stroke-width="1.0" fill="rgb(3, 5, 5)" opacity="0.96619433"/>
    <path d="M 103.44784545898438 153.12294006347656 C 105.0130386352539 150.1275634765625 120.21316528320312 150.02536010742188 120.45726776123047 153.01522827148438 C 120.43172454833984 152.974853515625 116.40544128417969 152.95013427734375 111.71707916259766 153.8367919921875 C 106.91386413574219 153.26695251464844 103.45352172851562 153.60386657714844 103.44784545898438 153.12294006347656" stroke-width="1.0" fill="rgb(1, 3, 3)" opacity="0.977039"/>
    <path d="M 101.34088134765625 135.45001220703125 C 101.62139129638672 134.31857299804688 105.5694808959961 132.8603057861328 111.6572265625 133.4476776123047 C 118.63720703125 132.83285522460938 121.08004760742188 133.05059814453125 121.07528686523438 135.0656280517578 C 121.01893615722656 135.6986083984375 117.91112518310547 135.0423126220703 111.4234619140625 134.89405822753906 C 106.12112426757812 134.94532775878906 101.85188293457031 135.54090881347656 101.34088134765625 135.45001220703125" stroke-width="1.0" fill="rgb(0, 0, 0)" opacity="0.99620456"/>
    <path d="M 100.67769622802734 125.22782135009766 C 100.8640365600586 124.04402923583984 103.83939361572266 122.68035125732422 109.33101654052734 121.69081115722656 C 115.66439819335938 121.63065338134766 122.67212677001953 123.18865966796875 122.82573699951172 124.89258575439453 C 122.75267028808594 125.61994171142578 119.73592376708984 125.79300689697266 111.67579650878906 126.0229721069336 C 105.69901275634766 126.26434326171875 100.8954086303711 125.58706665039062 100.67769622802734 125.22782135009766" stroke-width="1.0" fill="rgb(7, 8, 8)" opacity="0.9717475"/>
    <path d="M 100.90281677246094 113.58770751953125 C 100.45476531982422 112.69901275634766 100.65670776367188 112.37132263183594 100.79866027832031 111.6629867553711 C 102.23794555664062 110.02175903320312 120.83336639404297 109.83274841308594 122.252685546875 111.37582397460938 C 122.89427185058594 111.67950439453125 123.05888366699219 111.53160858154297 122.96268463134766 112.90863037109375 C 121.892333984375 113.49765014648438 101.45281982421875 114.2828140258789 100.90281677246094 113.58770751953125" stroke-width="1.0" fill="rgb(0, 0, 0)" opacity="1.0"/>
    <path d="M 83.52588653564453 173.3726348876953 C 85.67965698242188 171.19607543945312 85.78314208984375 171.18280029296875 88.55085754394531 173.09716796875 C 90.50448608398438 175.2036895751953 90.7679443359375 175.658203125 86.15478515625 175.1734161376953 C 81.57347106933594 175.83334350585938 81.92290496826172 175.1770477294922 83.52588653564453 173.3726348876953" stroke-width="1.0" fill="rgb(241, 243, 244)" opacity="0.96221536"/>
    <path d="M 153.00860595703125 172.96507263183594 C 155.5136260986328 171.5679931640625 156.0220947265625 171.5203857421875 157.9491729736328 173.38885498046875 C 159.84466552734375 175.32122802734375 159.82028198242188 175.4149627685547 155.66848754882812 175.173583984375 C 150.9511260986328 175.48228454589844 150.90835571289062 174.2183380126953 153.00860595703125 172.96507263183594" stroke-width="1.0" fill="rgb(238, 241, 241)" opacity="0.95153445"/>
    <path d="M 104.47853088378906 172.5946502685547 C 102.81484985351562 170.354248046875 110.06640625 169.88116455078125 115.73858642578125 170.27635192871094 C 120.81633758544922 171.84368896484375 118.68848419189453 176.24356079101562 111.90885925292969 173.20904541015625 C 105.53006744384766 174.44786071777344 104.37217712402344 175.40872192382812 104.47853088378906 172.5946502685547" stroke-width="1.0" fill="rgb(244, 247, 247)" opacity="0.97369206"/>
    <path d="M 74.70115661621094 170.55303955078125 C 72.02713012695312 167.9656982421875 67.75032043457031 166.6527099609375 64.2294921875 168.757568359375 C 60.7216682434082 170.74356079101562 60.09259796142578 168.27835083007812 63.785247802734375 165.83912658691406 C 66.73139953613281 164.0847930908203 71.9742431640625 164.0924072265625 75.00315856933594 165.69061279296875 C 76.73599243164062 167.09536743164062 76.96380615234375 167.11776733398438 79.16632080078125 165.6898651123047 C 83.833984375 163.6482696533203 88.71743774414062 164.4281005859375 91.36293029785156 166.33978271484375 C 93.28512573242188 169.6160888671875 92.86669158935547 170.27517700195312 88.98697662353516 168.3624267578125 C 85.36990356445312 166.87661743164062 82.32981872558594 167.7675018310547 79.20237731933594 170.81396484375 L 76.77760314941406 174.42486572265625 L 74.70115661621094 170.55303955078125" stroke-width="1.0" fill="rgb(244, 245, 246)" opacity="0.97006613"/>
    <path d="M 144.6328887939453 171.98611450195312 C 143.0714111328125 168.51516723632812 138.35939025878906 166.73516845703125 134.68612670898438 168.51315307617188 C 131.86187744140625 169.81875610351562 131.2311248779297 169.78195190429688 130.54946899414062 168.05908203125 C 132.1277618408203 165.4990234375 137.67520141601562 163.6549072265625 142.71705627441406 165.12632751464844 C 146.38865661621094 167.3032684326172 146.68324279785156 166.80384826660156 148.3462677001953 165.542236328125 C 151.18727111816406 164.03903198242188 156.7923583984375 163.9349365234375 160.03126525878906 165.73452758789062 C 162.79591369628906 167.59439086914062 162.97201538085938 171.0873565673828 160.12277221679688 169.09779357910156 C 158.97833251953125 168.00152587890625 156.4921875 167.79281616210938 155.06471252441406 167.58607482910156 C 151.95730590820312 167.71224975585938 150.80087280273438 168.630859375 148.41497802734375 170.86505126953125 C 145.4173126220703 175.05787658691406 146.48733520507812 175.74905395507812 144.6328887939453 171.98611450195312" stroke-width="1.0" fill="rgb(244, 246, 246)" opacity="0.97072667"/>
    <path d="M 103.32476806640625 166.71685791015625 C 102.74137878417969 163.36685180664062 102.02616882324219 163.67283630371094 108.01863098144531 163.11972045898438 C 115.49198913574219 162.2796173095703 121.05561828613281 163.6825408935547 119.95765686035156 164.69497680664062 C 119.22408294677734 168.01123046875 119.31305694580078 168.8168182373047 116.37812805175781 167.49937438964844 C 113.21892547607422 166.8314208984375 110.74354553222656 166.38253784179688 105.23890686035156 168.2904815673828 C 103.79167938232422 168.68185424804688 102.54127502441406 168.0292205810547 103.32476806640625 166.71685791015625" stroke-width="1.0" fill="rgb(245, 248, 248)" opacity="0.9784666"/>
    <path d="M 62.8380241394043 155.54037475585938 C 63.23587417602539 152.0561065673828 64.09730529785156 147.49514770507812 64.78219604492188 145.15383911132812 C 66.6150131225586 141.64535522460938 66.26697540283203 141.67849731445312 64.24818420410156 137.05039978027344 C 62.037593841552734 130.8367462158203 60.89607238769531 110.69690704345703 62.478355407714844 110.52176666259766 C 63.01478958129883 111.42317962646484 66.81244659423828 113.36954498291016 70.88790893554688 115.07958221435547 L 79.19408416748047 117.0884017944336 L 79.42387390136719 122.77147674560547 C 80.67774963378906 130.43695068359375 83.57553100585938 136.0494842529297 88.60914611816406 140.1577606201172 L 92.76255798339844 143.26785278320312 L 91.9706802368164 153.00299072265625 L 91.69010925292969 162.53427124023438 L 88.46147155761719 161.4939422607422 C 85.46219635009766 159.83152770996094 68.16180419921875 159.89743041992188 65.38887786865234 161.54244995117188 L 62.424068450927734 162.72854614257812 L 62.8380241394043 155.54037475585938" stroke-width="1.0" fill="rgb(249, 252, 252)" opacity="0.9928871"/>
    <path d="M 131.63670349121094 158.59605407714844 C 131.63739013671875 156.17616271972656 131.27609252929688 152.38099670410156 130.86373901367188 148.72230529785156 L 130.46261596679688 143.46734619140625 L 134.49948120117188 140.73568725585938 C 139.3639373779297 137.61224365234375 143.6118621826172 129.39859008789062 144.3980712890625 122.21451568603516 C 144.97567749023438 118.52207946777344 144.83277893066406 116.69664764404297 146.07403564453125 116.96724700927734 C 147.82537841796875 117.21451568603516 151.00030517578125 115.94414520263672 153.79537963867188 114.81166076660156 C 164.25045776367188 109.9343032836914 162.17684936523438 108.50723266601562 162.17767333984375 120.53413391113281 C 161.9684600830078 128.04144287109375 161.17420959472656 132.97752380371094 159.88336181640625 136.87225341796875 C 157.97418212890625 141.5387420654297 157.4534912109375 142.18072509765625 159.2664794921875 145.60809326171875 C 159.9865264892578 147.84390258789062 160.61151123046875 152.50169372558594 160.8277130126953 156.24444580078125 L 161.5162353515625 162.66055297851562 L 158.09146118164062 161.3901824951172 C 154.8768310546875 159.71446228027344 136.39100646972656 159.94583129882812 133.6844024658203 162.0193634033203 C 131.60614013671875 162.1869354248047 131.76040649414062 162.14566040039062 131.63670349121094 158.59605407714844" stroke-width="1.0" fill="rgb(249, 252, 252)" opacity="0.99295205"/>
    <path d="M 102.8705062866211 160.0895233154297 C 102.70257568359375 158.9103546142578 102.810302734375 157.52325439453125 102.0142822265625 156.04327392578125 C 101.1666488647461 155.05397033691406 109.37364196777344 153.6779022216797 116.75458526611328 154.9266815185547 C 121.2519302368164 154.80746459960938 121.39580535888672 155.20335388183594 120.15680694580078 158.43801879882812 C 120.57955932617188 160.88510131835938 120.74461364746094 160.95379638671875 113.8179702758789 159.42596435546875 C 108.96205139160156 159.3252410888672 106.0386962890625 159.6436309814453 104.54793548583984 160.82064819335938 C 103.1251449584961 161.90603637695312 102.35980224609375 161.3823699951172 102.8705062866211 160.0895233154297" stroke-width="1.0" fill="rgb(246, 249, 249)" opacity="0.9808986"/>
    <path d="M 101.95730590820312 150.0590362548828 C 101.00012969970703 147.3982696533203 100.4533920288086 145.38922119140625 103.10337829589844 146.2636260986328 C 107.77687072753906 144.96609497070312 116.2529525756836 145.29354858398438 120.91513061523438 146.1678466796875 C 121.9376220703125 146.08876037597656 121.36880493164062 147.80250549316406 120.94385528564453 150.70094299316406 C 121.42731475830078 153.073974609375 121.62774658203125 153.51333618164062 118.52606964111328 151.7022247314453 C 115.54903411865234 150.83944702148438 106.31436157226562 150.86740112304688 103.47561645507812 152.56280517578125 C 101.80210876464844 154.50650024414062 101.76475524902344 153.5010223388672 101.95730590820312 150.0590362548828" stroke-width="1.0" fill="rgb(246, 248, 248)" opacity="0.97954494"/>
    <path d="M 101.3758544921875 140.94412231445312 C 100.94351959228516 136.90127563476562 99.94668579101562 136.06976318359375 104.00838470458984 137.03286743164062 C 106.58108520507812 136.0844268798828 110.00987243652344 136.13551330566406 111.55276489257812 136.0128936767578 C 113.6653060913086 136.0484619140625 117.19355010986328 135.93194580078125 119.84390258789062 137.08477783203125 C 123.26179504394531 136.05575561523438 123.18162536621094 136.7172393798828 121.99887084960938 139.52749633789062 L 121.88123321533203 143.64651489257812 L 113.75829315185547 142.0168914794922 C 107.79393005371094 142.02789306640625 103.87022399902344 142.3296661376953 102.82715606689453 143.22189331054688 C 101.14193725585938 144.76516723632812 101.29833221435547 143.97958374023438 101.3758544921875 140.94412231445312" stroke-width="1.0" fill="rgb(246, 248, 248)" opacity="0.97925484"/>
    <path d="M 126.40784454345703 140.2728729248047 C 125.71244812011719 138.37002563476562 127.42925262451172 136.26019287109375 129.3622589111328 134.07395935058594 C 130.99729919433594 132.0923614501953 132.95042419433594 128.9696807861328 133.0479278564453 127.0728988647461 C 135.5283203125 121.81324768066406 134.29547119140625 111.74513244628906 131.31338500976562 106.5638427734375 C 129.17398071289062 101.71271514892578 129.14273071289062 101.35157775878906 131.08026123046875 99.0926742553711 C 133.41273498535156 95.06050109863281 134.2989501953125 96.59745025634766 137.74041748046875 103.43168640136719 C 141.9207763671875 114.44884490966797 140.95651245117188 125.95398712158203 135.18325805664062 133.93182373046875 C 132.5457000732422 137.4425048828125 126.61416625976562 141.2486114501953 126.40784454345703 140.2728729248047" stroke-width="1.0" fill="rgb(247, 249, 249)" opacity="0.9831469"/>
    <path d="M 90.08294677734375 135.968994140625 C 83.24409484863281 128.78758239746094 81.83136749267578 115.67057800292969 86.29335021972656 103.2795639038086 C 89.67840576171875 96.5279541015625 91.04071044921875 94.73204803466797 92.46935272216797 99.09213256835938 C 95.1432113647461 101.77963256835938 94.9517822265625 101.6008529663086 92.02936553955078 107.68537902832031 C 87.43948364257812 117.88011169433594 89.052734375 130.13107299804688 95.60971069335938 135.87379455566406 C 96.8288345336914 136.68968200683594 97.63221740722656 137.7987823486328 97.26066589355469 139.8068389892578 C 97.05657958984375 141.51080322265625 94.22207641601562 139.61126708984375 90.08294677734375 135.968994140625" stroke-width="1.0" fill="rgb(248, 248, 249)" opacity="0.9836406"/>
    <path d="M 100.96031188964844 135.14886474609375 C 100.47042846679688 133.68580627441406 100.65985107421875 131.2396697998047 100.25897979736328 129.12252807617188 L 99.87989807128906 126.16610717773438 L 106.70045471191406 125.12030792236328 C 115.16048431396484 124.238037109375 124.28438568115234 125.79437255859375 123.78343963623047 125.62753295898438 C 123.19430541992188 128.63772583007812 123.14598846435547 130.41372680664062 122.7365493774414 131.9313507080078 C 122.86428833007812 134.77639770507812 123.02535247802734 133.56671142578125 114.33125305175781 132.48052978515625 C 108.50977325439453 132.23214721679688 104.21928405761719 132.78028869628906 103.13722229003906 133.4563446044922 C 102.09229278564453 133.90731811523438 101.40577697753906 134.14564514160156 100.96031188964844 135.14886474609375" stroke-width="1.0" fill="rgb(248, 249, 249)" opacity="0.9841703"/>
    <path d="M 99.50133514404297 118.28182983398438 L 99.07402801513672 113.98200225830078 L 111.60652160644531 113.22864532470703 L 124.32892608642578 113.59708404541016 L 124.380615234375 117.71333312988281 C 123.82218170166016 120.0660400390625 124.03825378417969 122.09262084960938 123.50244903564453 123.04934692382812 C 122.73751068115234 122.5466079711914 121.23343658447266 121.72797393798828 119.29122924804688 121.23934173583984 C 114.79932403564453 120.13423156738281 105.6846694946289 120.26553344726562 101.88431549072266 122.49439239501953 C 99.300048828125 123.84707641601562 99.30706787109375 123.2371826171875 99.50133514404297 118.28182983398438" stroke-width="1.0" fill="rgb(248, 250, 250)" opacity="0.98611605"/>
    <path d="M 67.74607849121094 108.69082641601562 C 63.381065368652344 106.52558135986328 61.339500427246094 105.40726470947266 59.20643997192383 101.13019561767578 C 58.02519226074219 98.35395812988281 55.37327575683594 95.164794921875 53.81153106689453 93.84075927734375 C 52.08314895629883 92.28939819335938 50.59077072143555 89.51251220703125 51.27452087402344 87.37820434570312 C 50.523197174072266 84.37066650390625 50.099830627441406 83.63426208496094 46.615577697753906 82.97042846679688 C 41.98126983642578 81.97593688964844 37.86736297607422 78.22903442382812 37.1737060546875 77.66641235351562 C 37.83972930908203 76.54533386230469 39.02055358886719 73.60072326660156 40.83674621582031 70.54247283935547 C 43.731224060058594 66.45481872558594 44.72057342529297 64.95887756347656 43.42670440673828 63.275028228759766 C 41.82953643798828 61.35100555419922 43.2144775390625 59.650108337402344 44.11492919921875 59.405860900878906 C 44.381690979003906 58.881988525390625 46.621795654296875 56.595794677734375 48.323516845703125 53.769554138183594 C 52.1353874206543 48.49152374267578 53.878089904785156 48.216064453125 54.03266143798828 50.48573303222656 C 55.72209548950195 53.533409118652344 60.27333450317383 55.14799118041992 65.76724243164062 55.65572738647461 C 77.62755584716797 54.29021072387695 82.61722564697266 61.61902618408203 78.23735809326172 72.06954956054688 C 77.12793731689453 75.12086486816406 76.64152526855469 75.2712631225586 78.47360229492188 79.97584533691406 C 79.93618774414062 85.08041381835938 81.66180419921875 95.49015045166016 83.37469482421875 98.14344787597656 C 82.62010192871094 100.19393157958984 77.24391174316406 110.52145385742188 75.6123275756836 111.2502212524414 C 74.24468231201172 111.11573028564453 70.86366271972656 110.22915649414062 67.74607849121094 108.69082641601562" stroke-width="1.0" fill="rgb(249, 252, 252)" opacity="0.9928981"/>
    <path d="M 100.35919952392578 115.77686309814453 C 98.04841613769531 108.70174407958984 97.77547454833984 105.78617095947266 98.3132553100586 106.75700378417969 C 97.45349884033203 100.51597595214844 95.73001098632812 97.27871704101562 95.31411743164062 95.31536102294922 C 92.42353820800781 91.3558349609375 91.19973754882812 92.90019989013672 93.91299438476562 88.98551940917969 C 95.60110473632812 86.16045379638672 95.49811553955078 80.66468811035156 95.51278686523438 77.5048828125 C 94.95481872558594 76.2713623046875 88.88629150390625 68.95828247070312 87.6708984375 67.90534210205078 C 81.11032104492188 81.72969055175781 80.84837341308594 71.2989730834961 85.77099609375 66.24029541015625 C 87.33788299560547 64.78614044189453 88.65907287597656 60.036861419677734 88.45327758789062 57.22895431518555 C 91.72467041015625 47.911956787109375 94.68782043457031 43.8590087890625 110.2999267578125 45.687461853027344 C 128.6846923828125 44.76484680175781 131.52113342285156 46.15003967285156 135.38995361328125 58.27558517456055 C 135.16754150390625 63.511688232421875 137.8134002685547 66.30671691894531 139.78097534179688 68.29257202148438 C 142.76429748535156 74.28713989257812 143.16395568847656 75.46768188476562 140.37814331054688 82.78872680664062 C 139.1564483642578 94.83537292480469 133.05612182617188 101.5650634765625 137.12107849121094 91.41537475585938 C 137.062255859375 81.00837707519531 133.87957763671875 73.33685302734375 135.57650756835938 73.89772033691406 C 142.61212158203125 69.70123291015625 135.10720825195312 64.30792236328125 133.65750122070312 71.06825256347656 C 128.12301635742188 75.23004150390625 126.65672302246094 79.80885314941406 130.42828369140625 89.60978698730469 C 133.73800659179688 93.25462341308594 131.82101440429688 91.19367218017578 129.55743408203125 94.00326538085938 C 128.5252685546875 95.81867980957031 126.59419250488281 99.91220092773438 125.66751098632812 104.37130737304688 L 124.90757751464844 110.3265380859375 L 114.35948944091797 108.70997619628906 C 97.68757629394531 108.69988250732422 96.7209243774414 113.34349060058594 100.35919952392578 115.77686309814453" stroke-width="0.0" fill="rgb(246, 248, 248)" opacity="0.9908403"/>
    <path d="M 144.68594360351562 106.27189636230469 C 140.88259887695312 99.4015121459961 139.6171417236328 99.47019958496094 142.27395629882812 93.60506439208984 C 142.76792907714844 91.30685424804688 143.93032836914062 87.8919906616211 144.12106323242188 85.976806640625 C 144.30435180664062 83.84089660644531 144.99050903320312 80.795166015625 145.6392822265625 78.66889953613281 C 146.926025390625 75.46048736572266 146.73704528808594 75.27943420410156 145.81741333007812 72.14138793945312 C 143.31320190429688 66.06674194335938 143.70187377929688 61.78718185424805 146.80137634277344 58.581703186035156 C 149.02914428710938 56.581703186035156 150.76678466796875 55.43637466430664 155.97314453125 55.48228454589844 C 163.71026611328125 55.48625564575195 166.47581481933594 53.670013427734375 169.31491088867188 51.46215057373047 L 171.26492309570312 48.39257049560547 L 175.81719970703125 53.606971740722656 C 177.23631286621094 56.598289489746094 179.85147094726562 58.589542388916016 180.13009643554688 59.329036712646484 C 180.89239501953125 60.00859069824219 182.43121337890625 61.422515869140625 180.57644653320312 63.140132904052734 C 179.33067321777344 64.87067413330078 180.37384033203125 66.51203155517578 183.07752990722656 70.7724609375 C 185.0081329345703 73.59459686279297 186.32423400878906 76.44480895996094 186.94876098632812 77.71772766113281 C 186.24566650390625 78.37980651855469 181.9288330078125 81.89286041259766 177.2298583984375 82.83295440673828 C 173.9703369140625 83.7035903930664 173.08920288085938 84.37934875488281 172.8061065673828 87.9449691772461 C 173.2722625732422 90.36575317382812 171.25729370117188 92.94474029541016 169.45928955078125 94.36505126953125 C 168.10704040527344 95.62986755371094 165.69699096679688 98.59808349609375 164.60023498535156 101.25269317626953 C 162.61514282226562 105.20304870605469 160.681396484375 106.33466339111328 156.52493286132812 108.51641845703125 C 153.20901489257812 110.13294982910156 149.933837890625 110.9869613647461 148.45639038085938 111.30726623535156 C 147.78286743164062 111.46665954589844 146.2230987548828 109.40306091308594 144.68594360351562 106.27189636230469" stroke-width="1.0" fill="rgb(249, 252, 252)" opacity="0.9932461"/>
    <path d="M 139.03929138183594 59.42128372192383 C 139.05552673339844 56.770362854003906 138.04981994628906 53.182518005371094 137.17657470703125 51.27942657470703 C 135.39730834960938 49.04340362548828 133.87684631347656 46.84050750732422 134.0789337158203 47.047119140625 C 134.1880645751953 45.941017150878906 137.0247039794922 45.28801727294922 141.343994140625 44.7198486328125 C 146.3697052001953 43.709327697753906 168.0802001953125 47.80009460449219 169.63565063476562 48.60133361816406 C 168.19427490234375 49.42017364501953 160.78042602539062 52.281097412109375 154.72476196289062 51.579307556152344 C 148.687744140625 51.293670654296875 144.4742431640625 53.43927001953125 142.7678680419922 58.11392593383789 C 140.52587890625 64.3948974609375 139.96214294433594 63.608734130859375 139.03929138183594 59.42128372192383" stroke-width="1.0" fill="rgb(246, 248, 249)" opacity="0.9802348"/>
    <path d="M 81.18875122070312 58.07953643798828 C 78.85011291503906 53.54829406738281 74.89480590820312 51.07136535644531 67.56428527832031 51.51866912841797 C 60.78839874267578 52.23170471191406 53.49938201904297 48.741790771484375 55.33300018310547 48.029052734375 C 56.869232177734375 48.21617126464844 61.595252990722656 47.03137969970703 67.25514221191406 46.134925842285156 C 75.25602722167969 43.898162841796875 87.83302307128906 44.464141845703125 89.65390014648438 46.747413635253906 C 90.18624877929688 46.12499237060547 88.7057113647461 48.12567901611328 87.42601013183594 50.272377014160156 C 86.19229888916016 51.93598937988281 84.79657745361328 54.94171905517578 84.80839538574219 56.59437561035156 C 84.36137390136719 59.60856246948242 84.63557434082031 61.6455078125 83.6383285522461 62.81597137451172 C 82.19867706298828 61.435157775878906 81.92730712890625 59.96405029296875 81.18875122070312 58.07953643798828" stroke-width="1.0" fill="rgb(246, 248, 249)" opacity="0.9796519"/>
    <path d="M 107.3378677368164 162.36557006835938 C 107.28362274169922 161.94110107421875 109.40325164794922 161.3426513671875 113.00145721435547 161.5374755859375 C 115.73282623291016 160.80218505859375 117.10367584228516 160.6777801513672 117.56550598144531 162.17218017578125 C 118.02194213867188 162.32542419433594 116.09064483642578 162.63040161132812 112.3142318725586 162.0968017578125 C 108.50080108642578 163.4910125732422 107.33253479003906 163.12115478515625 107.3378677368164 162.36557006835938" stroke-width="1.0" fill="rgb(10, 11, 11)" opacity="0.9468386"/>
    <path d="M 103.80641174316406 144.3268585205078 C 103.39067077636719 142.98117065429688 106.99430847167969 141.73452758789062 112.2745590209961 141.66639709472656 C 117.6637191772461 142.02700805664062 121.35334777832031 142.57208251953125 120.30876159667969 143.4807891845703 C 118.94000244140625 144.41921997070312 103.51182556152344 144.84361267089844 103.80641174316406 144.3268585205078" stroke-width="1.0" fill="rgb(7, 9, 9)" opacity="0.92302585"/>
    <path d="M 100.77535247802734 101.97069549560547 C 99.04389190673828 99.62850952148438 101.07389831542969 98.70484161376953 107.95864868164062 98.0379867553711 C 116.96019744873047 97.8009033203125 123.9266357421875 98.54378509521484 123.56487274169922 100.89370727539062 C 123.89598846435547 103.32968139648438 122.211181640625 102.85958099365234 112.2641372680664 102.06428527832031 C 106.13973999023438 102.39144134521484 100.95345306396484 103.5145034790039 100.77535247802734 101.97069549560547" stroke-width="1.0" fill="rgb(4, 6, 6)" opacity="0.97831213"/>
    <path d="M 101.47164154052734 92.54733276367188 C 98.341552734375 87.19169616699219 117.63804626464844 86.86055755615234 122.03337860107422 89.59056091308594 C 122.6143798828125 90.31684875488281 123.37178802490234 91.24337768554688 121.80107879638672 92.83198547363281 C 119.71061706542969 91.27743530273438 100.70756530761719 92.25617980957031 101.47164154052734 92.54733276367188" stroke-width="1.0" fill="rgb(6, 7, 6)" opacity="0.9741723"/>
  </g>
</svg>
