<?xml version="1.0" encoding="UTF-8"?>
<svg xmlns="http://www.w3.org/2000/svg" version="1.1" viewBox="0 0 224 224">
  <defs>
    <style>
      .cls-1 {
        fill: #c1e7d8;
      }

      .cls-2 {
        fill: #3ad17d;
        isolation: isolate;
        opacity: 1;
      }

      .cls-3 {
        fill: #9a5b76;
      }

      .cls-4 {
        fill: #3ed27f;
      }

      .cls-5 {
        fill: #2c2a47;
      }
    </style>
  </defs>
  <!-- Generator: Adobe Illustrator 28.6.0, SVG Export Plug-In . SVG Version: 1.2.0 Build 709)  -->
  <g>
    <g id="_图层_1" data-name="图层_1">
      <g>
        <path class="cls-5" d="M81,194c-12.3-4.8-31.3-32.3-37.4-55.1-11.2-38.9,6.5-75.3,37.1-77.5,6.4-.5,9,0,19.6,3.5,13.9,4.9,13.2,4.7,13.3,2.5-.7-.4-3.1-1.9-6.1-2.7-11.2-4.6-22.1-19.5-22.4-30.2.2-5.6.4-5.2,4.4-6.2,7.1-.3,19.2,7.4,23.3,15.1,2.4,5.4,3.2,5.6,5.4,1.3,3.8-7.8,16.2-16.3,23.8-16.6,6.8.1,8,5,4.6,15.2-4.4,10.6-12.7,18.3-24.4,22.5-3.7.5-5.3,1.5-4.8,2.4.9.9,5.2-.1,11.9-2.5,14-5.4,25.6-5.7,34.8-1.1,16.4,7.9,27,28.4,27.1,52.7-.1,10.4-4.1,26.4-9.2,37.7-7.6,17.1-21.9,34.8-31.3,38.4-5.2,2.7-13.7,2.7-22.9-.8-4.4-2.1-9.8-3.4-12-3.4-2.5.2-8,1.7-12.6,3.4-8.4,3-17.6,3.5-22.6,1.5"/>
        <path class="cls-4" d="M105.9,59.8c-6.2-4.2-10.8-9.5-14.4-16.9-3-6.3-3.5-10.1-1.8-11.4,1.3-1,10.1,2.9,14.6,6.5,5.9,4.4,9.9,12.2,9.7,19.1.5,7.1-.7,7.3-8.2,2.7"/>
        <path class="cls-2" d="M117.3,58.2c0-7.1,4.2-14.6,11.4-20.3,5.9-5,13.7-8.2,15.9-6.6,1.5.8,0,9.1-2.7,14-3.8,7.8-16.8,18-22.6,18-1.4-.2-2.1-1.1-2-5.1"/>
        <path class="cls-3" d="M43.3,113.5c0-13.3,6.9-30.5,16.1-39.2,5.9-6,15.2-9.9,23.2-9.9,2.8-.4,10.6,1.9,17.1,3.9,6.6,2,14,3.8,16.3,3.8,2.4,0,9.8-1.6,16.6-3.8,13.9-4.6,20.9-4.7,30.1-.9,14.3,6.4,25.8,26.7,25.7,46.2v5.5c.1,0-144.9-.1-144.9-.1v-5.4"/>
        <path class="cls-1" d="M81.3,190.1c-8.4-4.4-21.2-20.7-28.1-36.1-4.2-8.6-7.9-21.2-9-30.4l-.9-5.6h145.1s-.7,5.9-.7,5.9c-.9,8.5-4.8,21.2-8.5,29-6.7,14.9-20.9,33.5-28.7,37.2-4.5,2.9-12.1,2.6-21.2-1-10.4-3.8-16.4-3.7-26.4,0-8.9,3.7-16.9,3.7-21.6,1"/>
      </g>
    </g>
  </g>
</svg>