<?xml version="1.0" encoding="UTF-8"?>
<svg xmlns="http://www.w3.org/2000/svg" version="1.1" viewBox="0 0 224 224">
  <defs>
    <style>
      .cls-1 {
        fill: #8498a3;
      }

      .cls-2 {
        fill: #494668;
        opacity: 1;
      }

      .cls-2, .cls-3, .cls-4, .cls-5 {
        isolation: isolate;
      }

      .cls-6 {
        fill: #9a5b77;
      }

      .cls-7 {
        fill: #abd7ca;
      }

      .cls-3 {
        fill: #4a4469;
        opacity: 1;
      }

      .cls-4 {
        fill: #4a4765;
        opacity: 1;
      }

      .cls-5 {
        fill: #474563;
        opacity: 1;
      }

      .cls-8 {
        fill: #43415d;
      }

      .cls-9 {
        fill: #3e4152;
      }
    </style>
  </defs>
  <!-- Generator: Adobe Illustrator 28.6.0, SVG Export Plug-In . SVG Version: 1.2.0 Build 709)  -->
  <g>
    <g id="_图层_1" data-name="图层_1">
      <g>
        <path class="cls-8" d="M56.8,183.7c-4-5.2-17.9-36.3-23.9-54-4.6-14.1-4.9-18.5-1.1-22.9l2.9-3.1,21.2-.2h21.7c0,.1.1-14.9.1-14.9l.4-14.5,5.1-4.1,4.5-3.9h23.2s-.2-12-.2-12c.5-14.8,2.5-15.1,3.4-.2l-.3,12,11.5.3,11.7-.3,5.2,4.2,4.6,4.8.2,28.3,20.2.2c22.7-.6,24.5,0,27.4,6.6,1.4,3.1,1,4.2-.5,11.2-3.5,14.3-21.9,56.8-26.3,61.9-1.8,1.6-5,1.3-55.5,1-42.3.4-54.7.5-55.4-.6"/>
        <path class="cls-6" d="M80.8,90.2v-13.8c.1,0,4.4-4,4.4-4l3.8-3.3h47s3.5,3.4,3.5,3.4l4.5,3.1-.2,13.7.4,13.7h-63c0,.1-.3-13-.3-13"/>
        <path class="cls-7" d="M59.6,181.5c-5.1-4.1-27.8-58.7-27.4-67.2-.5-1.1.7-3.1,1.7-5.5l2.5-2.3s35.9,0,35.9,0c8.8,0,17.5,0,26.3,0,18,0,35.9,0,53.9.2,41.4-.2,38.7-1,39.7,8.2-.7,5.6-1.6,8.9-5.2,19-1.7,3.2-3.4,8.5-4.6,10.9-1.9,5-2.7,6.7-9.7,22-2.8,6-6,11.4-6.2,14.4-1.3.6-5.2,0-54.4.3-28.7,0-53.1.2-52.6,0"/>
        <path class="cls-2" d="M76.1,145.4c-5-4.8-5.6-11.4-1.4-15.8,6.6-6.1,14.9-2.3,15.1,6.9,0,3.9-.6,5.6-3.2,8-3.6,3.8-7.5,4.2-10.5.9"/>
        <path class="cls-4" d="M140.8,146.2c-2.7-1-5.1-6.4-5.1-10-.2-1.6,1-4.5,2.6-6.4,7.4-8.9,19,1.9,13.6,12.3-2.7,5-7.3,6.8-11.1,4.1"/>
        <path class="cls-3" d="M60.2,118.2c-4.5-4.6-1.4-9.7,6-9.6,7.8.4,10.3,4.7,5.2,9.4-3.2,3.3-8.3,3.4-11.2.2"/>
        <path class="cls-5" d="M152.6,117.5c-3.1-3.2-3.1-4.2-.3-7,2.5-2.2,8.5-2.5,11.9-.4,2.7,1.5,2.4,5.7-.6,8.4-3,3-8.1,2.6-11.1-.9"/>
        <path class="cls-9" d="M111.3,174.3c-1.4-1.8-.8-6.1-.8-7.7,0-8.4.3-16.8.3-25.3,0-4.6,0-9.3,0-13.9v-10.4c0-1.6-.8-4.4.4-5.7s2.2-.6,2.7.8c.9,2.9,0,7.7,0,10.7,0,6.5,0,12.9,0,19.4,0,8.3.1,16.6.1,25,0,1.5,1.1,8.9-1.6,7.9s-.6-.4-.8-.6Z"/>
        <path class="cls-1" d="M76.9,141.2c-2-3.9-2.1-5.9-.2-8.8,2.9-4.6,10.3-1.8,10.1,4.1.2,3.1-3.2,7.6-5.9,7.4-1.8-.1-3.1-.9-4.1-2.8"/>
        <path class="cls-1" d="M140.7,141.7c-3.6-4.5-1.2-11.7,3.9-11.7,3-.1,6.5,4.7,5.8,8-1.4,5.7-6.9,7.8-9.7,3.6"/>
        <path class="cls-1" d="M62.6,115.9c-2.4-2.5-1.4-3.2,3.6-3.4,2.5-.1,4.8.1,4.8.5,0,1.6-2.5,3.7-4.9,3.8-1.1,0-2.8-.4-3.6-.9"/>
        <path class="cls-1" d="M154.9,116.1c-2.1-2.2-.5-3.8,3.9-3.7,4.6,0,5.4.9,3.1,3.1-1.6,1.7-5.9,1.9-7,.6"/>
      </g>
    </g>
  </g>
</svg>