<?xml version="1.0" ?>
<svg xmlns="http://www.w3.org/2000/svg" version="1.1" width="224" height="224">
  <defs/>
  <g>
    <path d="M 72.10833740234375 46.300594329833984 C 72.13368225097656 46.34436798095703 72.15902709960938 46.38814163208008 72.18360900878906 46.43268585205078 C 72.29266357421875 51.35784912109375 73.23729705810547 56.118656158447266 75.31318664550781 60.60759735107422 C 76.72630310058594 63.66499328613281 78.58792877197266 66.50965118408203 80.79438018798828 69.052490234375 C 96.64276123046875 87.31544494628906 127.36030578613281 87.31544494628906 143.20791625976562 69.05094909667969 C 145.729248046875 66.14562225341797 147.79823303222656 62.845542907714844 149.26588439941406 59.286643981933594 C 150.96392822265625 55.17018127441406 151.71961975097656 50.86786651611328 151.81793212890625 46.43268585205078 C 162.50997924804688 52.5474739074707 173.20278930664062 58.662261962890625 183.89559936523438 64.77705383300781 C 189.986572265625 68.77677917480469 191.84974670410156 75.75248718261719 188.57962036132812 82.26126098632812 C 184.55224609375 89.23390197753906 180.525634765625 96.20653533935547 176.49826049804688 103.1791763305664 C 172.49777221679688 109.2724609375 165.52206420898438 111.13716125488281 159.010986328125 107.86549377441406 C 158.3697052001953 107.49532318115234 157.7276611328125 107.12591552734375 157.08639526367188 106.75650024414062 C 156.00198364257812 131.967529296875 154.9167938232422 157.1785430908203 153.8323974609375 182.3895721435547 C 126.30815887451172 182.3895721435547 98.78469848632812 182.3895721435547 71.26046752929688 182.3895721435547 C 70.16531372070312 156.97427368164062 69.06938171386719 131.55972290039062 67.97421264648438 106.1444091796875 C 66.97888946533203 106.7188720703125 65.98280334472656 107.2933349609375 64.98747253417969 107.86856842041016 C 58.4748649597168 111.14253234863281 51.502994537353516 109.27323150634766 47.50019836425781 103.1822509765625 C 43.475128173828125 96.20960998535156 39.45005798339844 89.23696899414062 35.42498779296875 82.26432800292969 C 32.15332794189453 75.75248718261719 34.01725769042969 68.77677917480469 40.11206817626953 64.77705383300781 C 50.77800750732422 58.61848449707031 61.44317626953125 52.45915603637695 72.10833740234375 46.300594329833984" stroke-width="0.0" fill="rgb(95, 205, 254)" opacity="1.0"/>
    <path d="M 141.7156982421875 42.396095275878906 C 141.7156982421875 42.396095275878906 141.7156982421875 42.396095275878906 141.7156982421875 42.396095275878906 C 144.0872802734375 42.52435302734375 146.0548858642578 43.04966354370117 148.16226196289062 44.14482498168945 C 149.40335083007812 44.861366271972656 150.64520263671875 45.57790756225586 151.8862762451172 46.2944450378418 C 151.8616943359375 46.33975601196289 151.83636474609375 46.38430404663086 151.81178283691406 46.42961502075195 C 151.70272827148438 51.354774475097656 150.75808715820312 56.11558532714844 148.68296813964844 60.604522705078125 C 147.26986694335938 63.66191864013672 145.40823364257812 66.50657653808594 143.20176696777344 69.0494155883789 C 127.35417175292969 87.31391143798828 96.63738250732422 87.31006622314453 80.78977966308594 69.04788208007812 C 78.26766967773438 66.14254760742188 76.19792175292969 62.84246826171875 74.72950744628906 59.283573150634766 C 73.0314712524414 55.167110443115234 72.27576446533203 50.865562438964844 72.17745971679688 46.42961502075195 C 73.4139404296875 45.657779693603516 74.65040588378906 44.8867073059082 75.88688659667969 44.11487579345703 C 78.96117401123047 42.525123596191406 81.89645385742188 42.148033142089844 85.29944610595703 42.759361267089844 C 85.29944610595703 42.759361267089844 85.29944610595703 42.759361267089844 85.29944610595703 42.759361267089844 C 85.47762298583984 47.827369689941406 86.74635314941406 52.64501190185547 89.51190948486328 56.938880920410156 C 98.26553344726562 70.5308837890625 117.69892120361328 73.1689453125 129.78179931640625 62.43696594238281 C 132.33692932128906 60.16753387451172 134.4535369873047 57.411964416503906 135.9795379638672 54.35456848144531 C 137.81504821777344 50.67816925048828 138.62681579589844 46.766761779785156 138.78656005859375 42.6840934753418 C 138.85568237304688 42.6864013671875 138.92404174804688 42.68870162963867 138.99314880371094 42.69023895263672 C 139.89324951171875 42.5412483215332 140.80409240722656 42.446014404296875 141.7156982421875 42.396095275878906 C 141.7156982421875 42.396095275878906 141.7156982421875 42.396095275878906 141.7156982421875 42.396095275878906" stroke-width="0.0" fill="rgb(138, 134, 192)" opacity="1.0"/>
    <path d="M 112.0003890991211 99.54732513427734 C 112.0003890991211 99.54732513427734 112.0003890991211 99.54732513427734 112.0003890991211 99.54732513427734 C 113.66616821289062 99.86143493652344 114.26136016845703 100.23161315917969 115.27819061279297 101.58712768554688 C 117.5030746459961 106.09449005126953 119.72796630859375 110.60263061523438 121.95285034179688 115.1100082397461 C 126.9263916015625 115.83268737792969 131.899169921875 116.55537414550781 136.87271118164062 117.27806091308594 C 139.95391845703125 118.31792449951172 140.74188232421875 120.836181640625 138.9002227783203 123.51188659667969 C 135.3013916015625 127.01778411865234 131.70179748535156 130.523681640625 128.10296630859375 134.03036499023438 C 128.95314025878906 138.98394775390625 129.8040771484375 143.93751525878906 130.6542510986328 148.89109802246094 C 130.92996215820312 152.07290649414062 128.1505889892578 153.82931518554688 125.32896423339844 152.73492431640625 C 120.88533020019531 150.39944458007812 116.44170379638672 148.0647430419922 111.99730682373047 145.7300262451172 C 107.54984283447266 148.06781005859375 103.10237121582031 150.40557861328125 98.65413665771484 152.744140625 C 95.82330322265625 153.83544921875 93.07464599609375 152.03221130371094 93.35650634765625 148.86959838867188 C 94.20359802246094 143.9229278564453 95.05146789550781 138.97703552246094 95.89933776855469 134.03036499023438 C 92.30127716064453 130.523681640625 88.70243835449219 127.01778411865234 85.10437774658203 123.51188659667969 C 83.27346801757812 120.84770202636719 84.03916931152344 118.32483673095703 87.11038208007812 117.27806091308594 C 92.09161376953125 116.55384063720703 97.07283782958984 115.83038330078125 102.05482482910156 115.10693359375 C 104.27740478515625 110.60032653808594 106.50076293945312 106.09371948242188 108.72410583496094 101.58712768554688 C 109.7394027709961 100.23237609863281 110.33612823486328 99.86604309082031 112.0003890991211 99.54732513427734 C 112.0003890991211 99.54732513427734 112.0003890991211 99.54732513427734 112.0003890991211 99.54732513427734" stroke-width="0.0" fill="rgb(79, 70, 163)" opacity="1.0"/>
    <path d="M 82.2743148803711 38.74427032470703 C 82.2743148803711 38.74427032470703 82.2743148803711 38.74427032470703 82.2743148803711 38.74427032470703 C 83.58682250976562 38.79573059082031 84.80485534667969 38.93703842163086 86.09355926513672 39.19047927856445 C 86.09355926513672 39.19047927856445 86.09355926513672 39.19047927856445 86.09355926513672 39.19047927856445 C 89.21392822265625 39.94541931152344 90.26301574707031 44.15019989013672 87.33924865722656 45.929649353027344 C 85.69496154785156 46.92958068847656 84.01152038574219 46.042545318603516 82.2796859741211 46.05790328979492 C 80.58856201171875 46.07326126098633 79.15624237060547 46.55863952636719 77.66556549072266 47.30820083618164 C 65.75470733642578 54.186378479003906 53.84307861328125 61.06532287597656 41.932228088378906 67.94349670410156 C 37.57231140136719 70.95327758789062 36.31663513183594 75.65264892578125 38.585296630859375 80.43880462646484 C 42.61036682128906 87.409912109375 46.63542938232422 94.38177490234375 50.66050338745117 101.3528823852539 C 53.671817779541016 105.71049499511719 58.36888122558594 106.96847534179688 63.15503692626953 104.70211791992188 C 64.15113067626953 104.12765502929688 65.14645385742188 103.55242919921875 66.14176940917969 102.97796630859375 C 68.89350891113281 101.82673645019531 70.94559478759766 103.19915008544922 71.62066650390625 105.97929382324219 C 72.66590881347656 130.2310791015625 73.71115112304688 154.48287963867188 74.75715637207031 178.73468017578125 C 99.94744873046875 178.73468017578125 125.13772583007812 178.73468017578125 150.32723999023438 178.73468017578125 C 151.3617401123047 154.68946838378906 152.39622497558594 130.64503479003906 153.43072509765625 106.60060119628906 C 154.06509399414062 103.75747680664062 156.1955108642578 102.44727325439453 158.92726135253906 103.59927368164062 C 159.56240844726562 103.96560668945312 160.19830322265625 104.33193969726562 160.83419799804688 104.69905090332031 C 165.620361328125 106.96923828125 170.3189697265625 105.71356964111328 173.3295135498047 101.3528823852539 C 177.35610961914062 94.38024139404297 181.38272094726562 87.40760040283203 185.41009521484375 80.43572998046875 C 187.6795196533203 75.64804077148438 186.4207763671875 70.95097351074219 182.0608673095703 67.94119262695312 C 170.13233947753906 61.05457305908203 158.20458984375 54.167179107666016 146.27606201171875 47.280555725097656 C 144.79844665527344 46.54020690917969 143.3822479248047 46.07556915283203 141.70956420898438 46.054832458496094 C 139.7803497314453 46.03102493286133 138.03854370117188 46.90730667114258 136.40884399414062 45.27762222290039 C 134.28457641601562 43.154109954833984 135.55560302734375 39.91469955444336 138.19520568847656 39.12596893310547 C 142.124267578125 37.95170211791992 146.53257751464844 39.14516830444336 150.01620483398438 40.99296569824219 C 161.9178466796875 47.86576843261719 173.81948852539062 54.73780059814453 185.72113037109375 61.61060333251953 C 193.5324249267578 66.63253021240234 196.0 75.83466339111328 191.74913024902344 84.09062194824219 C 187.72177124023438 91.06326293945312 183.69439697265625 98.03590393066406 179.66702270507812 105.008544921875 C 175.39617919921875 111.6732177734375 168.16012573242188 114.5009765625 160.5016632080078 112.4896011352539 C 159.49713134765625 135.84283447265625 158.49258422851562 159.1953125 157.48805236816406 182.5485382080078 C 156.95274353027344 184.76190185546875 156.06954956054688 185.6090087890625 153.83544921875 186.04830932617188 C 126.3096923828125 186.0475311279297 98.78315734863281 186.04598999023438 71.25740051269531 186.04522705078125 C 69.0263671875 185.6074676513672 68.140869140625 184.76498413085938 67.60481262207031 182.5546875 C 66.59259033203125 159.07395935058594 65.58036804199219 135.59246826171875 64.5673828125 112.11174011230469 C 56.67698669433594 114.79051971435547 48.822689056396484 112.01959228515625 44.33068084716797 105.008544921875 C 40.304840087890625 98.03590393066406 36.27900695800781 91.06326293945312 32.25239562988281 84.09062194824219 C 28.0 75.83389282226562 30.46295928955078 66.62869262695312 38.279632568359375 61.608299255371094 C 50.20662307739258 54.72167205810547 62.133602142333984 47.83504867553711 74.06059265136719 40.947654724121094 C 76.71017456054688 39.545291900634766 79.2806625366211 38.8786735534668 82.2743148803711 38.74427032470703 C 82.2743148803711 38.74427032470703 82.2743148803711 38.74427032470703 82.2743148803711 38.74427032470703" stroke-width="0.0" fill="rgb(79, 70, 163)" opacity="1.0"/>
    <path d="M 111.99730682373047 103.20298767089844 C 114.50558471679688 108.28559112548828 117.01309204101562 113.36741638183594 119.52137756347656 118.45002746582031 C 125.1285171508789 119.26486206054688 130.73565673828125 120.07970428466797 136.34280395507812 120.89378356933594 C 132.28469848632812 124.84820556640625 128.2266082763672 128.80184936523438 124.16852569580078 132.75625610351562 C 125.12774658203125 138.34112548828125 126.0862045288086 143.92599487304688 127.04466247558594 149.51162719726562 C 122.02811431884766 146.87588500976562 117.01078796386719 144.2401123046875 111.9942398071289 141.60435485839844 C 106.97998809814453 144.2401123046875 101.96574401855469 146.87588500976562 96.95149230957031 149.51162719726562 C 97.9091796875 143.92599487304688 98.86687469482422 138.34112548828125 99.82379913330078 132.75625610351562 C 95.76570892333984 128.80184936523438 91.70761108398438 124.84820556640625 87.64952087402344 120.89378356933594 C 93.25895690917969 120.07970428466797 98.868408203125 119.26486206054688 104.47708892822266 118.45002746582031 C 106.98382568359375 113.36741638183594 109.49057006835938 108.28559112548828 111.99730682373047 103.20298767089844" stroke-width="0.0" fill="rgb(79, 70, 163)" opacity="1.0"/>
    <path d="M 85.20652770996094 38.74197006225586 C 85.20652770996094 38.74197006225586 85.20652770996094 38.74197006225586 85.20652770996094 38.74197006225586 C 87.50897216796875 39.20661163330078 88.39678192138672 40.09441375732422 88.86141967773438 42.396095275878906 C 88.86141967773438 42.44908905029297 88.86141967773438 42.502079010009766 88.86141967773438 42.55507278442383 C 89.02883911132812 46.17617416381836 89.74922180175781 49.62217712402344 91.41116333007812 52.87080001831055 C 92.76053619384766 55.505794525146484 94.61524963378906 57.87737274169922 96.8439712524414 59.825775146484375 C 99.0765380859375 61.77725601196289 101.68081665039062 63.2994270324707 104.48323059082031 64.27247619628906 C 114.73522186279297 67.829833984375 126.33734130859375 63.47760009765625 131.87997436523438 54.19175338745117 C 134.001953125 50.63669967651367 134.94964599609375 46.75370788574219 135.1309051513672 42.64799880981445 C 135.13320922851562 42.59500503540039 135.13551330566406 42.542015075683594 135.13705444335938 42.48902130126953 C 135.37973022460938 41.244102478027344 135.277587890625 40.77485656738281 136.20840454101562 39.82638168334961 C 137.9909210205078 38.009300231933594 141.18348693847656 38.621395111083984 142.15960693359375 40.976837158203125 C 142.57969665527344 41.98905944824219 142.44683837890625 43.3399658203125 142.37924194335938 44.383670806884766 C 142.21182250976562 46.97105026245117 141.70956420898438 49.53462600708008 140.8870391845703 51.99298095703125 C 137.1484375 63.175777435302734 126.90412139892578 71.45478057861328 115.16683197021484 72.68357849121094 C 103.30435943603516 73.92542266845703 91.58088684082031 67.85517883300781 85.61970520019531 57.5471305847168 C 83.30880737304688 53.55278015136719 81.92794036865234 49.04310607910156 81.62151336669922 44.43743133544922 C 81.4832763671875 42.36076736450195 81.48711395263672 39.9876594543457 83.78419494628906 39.02996826171875 C 84.23040008544922 38.8441162109375 84.73190307617188 38.83797073364258 85.20652770996094 38.74197006225586 C 85.20652770996094 38.74197006225586 85.20652770996094 38.74197006225586 85.20652770996094 38.74197006225586" stroke-width="0.0" fill="rgb(79, 70, 163)" opacity="1.0"/>
    <path d="M 72.18053436279297 42.77164840698242 C 72.18053436279297 42.77164840698242 72.18053436279297 42.77164840698242 72.18053436279297 42.77164840698242 C 72.6551513671875 42.86764907836914 73.15666198730469 42.8737907409668 73.60363006591797 43.05887985229492 C 76.60649108886719 44.30303192138672 75.78166961669922 48.29738235473633 76.16720581054688 50.865562438964844 C 76.74089813232422 54.689414978027344 78.07183837890625 58.38194274902344 80.0233154296875 61.71735382080078 C 87.13419342041016 73.87319946289062 101.49111938476562 80.17999267578125 115.28126525878906 79.05103302001953 C 128.3018798828125 77.98505401611328 140.8232879638672 70.15379333496094 145.89053344726562 57.845115661621094 C 146.99951171875 55.15251922607422 147.71990966796875 52.30171585083008 148.0086669921875 49.4040641784668 C 148.19375610351562 47.545509338378906 147.7659912109375 45.30373001098633 149.22747802734375 43.84223175048828 C 151.02151489257812 42.048194885253906 154.2017822265625 42.644927978515625 155.179443359375 45.00421142578125 C 155.73623657226562 46.34820556640625 155.4559326171875 48.08541488647461 155.34149169921875 49.481632232666016 C 154.97669982910156 53.93293762207031 153.793212890625 58.30360794067383 151.89012145996094 62.342498779296875 C 150.21205139160156 65.90216827392578 147.98486328125 69.1953353881836 145.34063720703125 72.10757446289062 C 128.7826385498047 90.34672546386719 98.49055480957031 91.20073699951172 80.72833251953125 74.23722839355469 C 74.65194702148438 68.43424987792969 70.39033508300781 60.79191589355469 69.01945495605469 52.47451400756836 C 68.61625671386719 50.02614212036133 67.60481262207031 45.832881927490234 69.59622192382812 43.84223175048828 C 70.52165985107422 42.91756820678711 70.96095275878906 43.01817321777344 72.18053436279297 42.77164840698242 C 72.18053436279297 42.77164840698242 72.18053436279297 42.77164840698242 72.18053436279297 42.77164840698242" stroke-width="0.0" fill="rgb(79, 70, 163)" opacity="1.0"/>
    <path d="M 111.99730682373047 103.19991302490234 C 109.49057006835938 108.28251647949219 106.98382568359375 113.36434936523438 104.47708892822266 118.44694519042969 C 98.868408203125 119.26179504394531 93.25895690917969 120.0766372680664 87.64952087402344 120.89071655273438 C 91.70761108398438 124.84512329101562 95.76570892333984 128.79876708984375 99.82379913330078 132.75318908691406 C 98.86764526367188 138.3380584716797 97.91149139404297 143.9229278564453 96.9545669555664 149.50856018066406 C 101.96881103515625 146.872802734375 106.98306274414062 144.23703002929688 111.99730682373047 141.60205078125 C 117.01387023925781 144.23703002929688 122.03118896484375 146.872802734375 127.04773712158203 149.50856018066406 C 126.08927917480469 143.9229278564453 125.13081359863281 138.3380584716797 124.17235565185547 132.75318908691406 C 128.22891235351562 128.79876708984375 132.2854766845703 124.84512329101562 136.34280395507812 120.89071655273438 C 130.73565673828125 120.0766372680664 125.1285171508789 119.26179504394531 119.52137756347656 118.44694519042969 C 117.01309204101562 113.36434936523438 114.50558471679688 108.28251647949219 111.99730682373047 103.19991302490234" stroke-width="0.0" fill="rgb(79, 70, 163)" opacity="1.0"/>
    <path d="M 111.9942398071289 111.46662902832031 C 110.58035278320312 114.33355712890625 109.16647338867188 117.19972229003906 107.75182342529297 120.066650390625 C 106.87017059326172 121.28162384033203 106.30953216552734 121.67483520507812 104.8641586303711 122.08494567871094 C 101.74456024169922 122.53807067871094 98.62572479248047 122.99195861816406 95.50611877441406 123.44583892822266 C 97.79475402832031 125.67533111572266 100.08414459228516 127.90559387207031 102.3727798461914 130.1350860595703 C 103.14077758789062 131.2525177001953 103.54397583007812 132.00439453125 103.41879272460938 133.39138793945312 C 102.88042449951172 136.5355682373047 102.34129333496094 139.68051147460938 101.80292510986328 142.82469177246094 C 104.63299560546875 141.33786010742188 107.46228790283203 139.85023498535156 110.2923583984375 138.3634033203125 C 111.55648040771484 137.87725830078125 112.43506622314453 137.88571166992188 113.6976547241211 138.36647033691406 C 116.52848815917969 139.8533172607422 119.35932159423828 141.34092712402344 122.1901626586914 142.82777404785156 C 121.64795684814453 139.67666625976562 121.10575103759766 136.5248260498047 120.5643081665039 133.37371826171875 C 120.44450378417969 131.99441528320312 120.85076904296875 131.2471466064453 121.61416625976562 130.13815307617188 C 123.90278625488281 127.90866088867188 126.19219207763672 125.67840576171875 128.48081970214844 123.44891357421875 C 125.31820678710938 122.98887634277344 122.15560150146484 122.52885437011719 118.99298858642578 122.06958770751953 C 117.56912994384766 121.60340881347656 117.01693725585938 121.19560241699219 116.18366241455078 119.95222473144531 C 114.78744506835938 117.12368774414062 113.39122772216797 114.29515838623047 111.9942398071289 111.46662902832031" stroke-width="0.0" fill="rgb(254, 71, 147)" opacity="1.0"/>
  </g>
</svg>
