<?xml version="1.0" ?>
<svg xmlns="http://www.w3.org/2000/svg" version="1.1" width="224" height="224">
  <defs/>
  <g>
    <path d="M 81.30601501464844 83.56103515625 C 81.30601501464844 83.56103515625 81.30601501464844 83.56103515625 81.30601501464844 83.56103515625 C 89.8795166015625 83.8045654296875 96.51082611083984 88.12877655029297 100.69641876220703 95.5648422241211 C 100.69641876220703 95.5648422241211 100.69641876220703 95.5648422241211 100.69641876220703 95.5648422241211 C 108.37899780273438 94.99012756347656 116.05184173583984 94.99087524414062 123.73442077636719 95.5648422241211 C 123.73442077636719 95.5648422241211 123.73442077636719 95.5648422241211 123.73442077636719 95.5648422241211 C 125.23226928710938 92.9033203125 126.96690368652344 90.47258758544922 129.31295776367188 88.48394775390625 C 140.32994079589844 79.14541625976562 155.53323364257812 84.71646118164062 165.63682556152344 92.47322845458984 C 178.29550170898438 102.1924057006836 187.46170043945312 116.68388366699219 192.3104248046875 131.779296875 C 194.60330200195312 138.91937255859375 196.0 146.50904846191406 195.70175170898438 154.03053283691406 C 195.52642822265625 158.43191528320312 194.84231567382812 162.8378143310547 193.24404907226562 166.96046447753906 C 192.2145233154297 169.61599731445312 190.80508422851562 172.13587951660156 188.96629333496094 174.31785583496094 C 187.5231475830078 176.02999877929688 185.8214874267578 177.52035522460938 183.91751098632812 178.7005157470703 C 173.067626953125 185.42698669433594 159.76754760742188 180.2882843017578 150.4754638671875 173.3032989501953 C 143.34063720703125 167.9405517578125 137.57400512695312 161.06570434570312 132.73951721191406 153.61016845703125 C 132.73951721191406 153.61016845703125 132.73951721191406 153.61016845703125 132.73951721191406 153.61016845703125 C 119.12471771240234 155.5830841064453 105.30311584472656 155.57785034179688 91.68832397460938 153.61016845703125 C 91.68832397460938 153.61016845703125 91.68832397460938 153.61016845703125 91.68832397460938 153.61016845703125 C 87.69005584716797 159.7761688232422 83.08560180664062 165.51881408691406 77.54826354980469 170.37802124023438 C 68.19625091552734 178.5851287841797 53.901084899902344 185.9065399169922 41.67999267578125 179.37188720703125 C 40.104209899902344 178.52891540527344 38.63932800292969 177.4851531982422 37.32805633544922 176.27203369140625 C 35.64512634277344 174.71498107910156 34.224449157714844 172.88967895507812 33.073524475097656 170.9100341796875 C 31.28044891357422 167.8289031982422 30.139259338378906 164.40011596679688 29.47388458251953 160.9083709716797 C 28.00000762939453 153.18081665039062 28.702850341796875 145.10411071777344 30.514663696289062 137.4964599609375 C 34.078330993652344 122.53742218017578 42.05314636230469 108.18306732177734 53.07535934448242 97.44033813476562 C 60.67926025390625 90.02900695800781 70.39994049072266 83.81505584716797 81.30601501464844 83.56103515625 C 81.30601501464844 83.56103515625 81.30601501464844 83.56103515625 81.30601501464844 83.56103515625" stroke-width="0.0" fill="rgb(79, 70, 163)" opacity="1.0"/>
    <path d="M 89.80458068847656 89.27821350097656 C 89.80458068847656 89.27821350097656 89.80458068847656 89.27821350097656 89.80458068847656 89.27821350097656 C 93.92049407958984 91.69320678710938 96.55503845214844 95.11300659179688 98.45451354980469 99.44996643066406 C 98.45451354980469 99.44996643066406 98.45451354980469 99.44996643066406 98.45451354980469 99.44996643066406 C 107.62370300292969 98.58602142333984 116.80863189697266 98.58602142333984 125.97782135009766 99.44996643066406 C 125.97782135009766 99.44996643066406 125.97782135009766 99.44996643066406 125.97782135009766 99.44996643066406 C 126.92044830322266 97.2979736328125 127.9964370727539 95.2606201171875 129.51828002929688 93.45330810546875 C 130.657958984375 92.09932708740234 131.99021911621094 90.90718841552734 133.4813232421875 89.95182800292969 C 143.94906616210938 83.24259185791016 157.09254455566406 89.9832992553711 165.43226623535156 97.00949096679688 C 175.5470733642578 105.53128814697266 183.08352661132812 117.22712707519531 187.66326904296875 129.568115234375 C 190.36599731445312 136.851318359375 192.09388732910156 144.62380981445312 192.06317138671875 152.41879272460938 C 192.0481719970703 156.1240692138672 191.62557983398438 159.8571014404297 190.56455993652344 163.41627502441406 C 189.86770629882812 165.75335693359375 188.88836669921875 168.01922607421875 187.547119140625 170.06182861328125 C 186.51234436035156 171.6383514404297 185.26101684570312 173.07550048828125 183.8021240234375 174.27513122558594 C 173.58090209960938 182.6800537109375 159.45883178710938 176.0240020751953 150.69876098632812 168.80299377441406 C 144.18508911132812 163.43350219726562 138.96170043945312 156.7774658203125 134.57904052734375 149.60142517089844 C 134.57904052734375 149.60142517089844 134.57904052734375 149.60142517089844 134.57904052734375 149.60142517089844 C 119.7818603515625 152.04412841796875 104.64224243164062 152.04412841796875 89.84504699707031 149.60142517089844 C 89.84504699707031 149.60142517089844 89.84504699707031 149.60142517089844 89.84504699707031 149.60142517089844 C 85.74786376953125 156.31365966796875 80.9283676147461 162.5575714111328 74.98117065429688 167.74124145507812 C 66.61447143554688 175.03492736816406 53.215476989746094 182.2904052734375 42.432289123535156 175.57516479492188 C 40.84751892089844 174.58834838867188 39.438079833984375 173.33627319335938 38.24219512939453 171.90435791015625 C 36.725616455078125 170.08804321289062 35.558204650878906 167.99974060058594 34.68601989746094 165.8050537109375 C 33.541839599609375 162.92547607421875 32.89369201660156 159.86233520507812 32.584228515625 156.78570556640625 C 31.837173461914062 149.3676300048828 32.970123291015625 141.80419921875 35.062164306640625 134.6858367919922 C 39.399871826171875 119.92311096191406 48.113487243652344 105.6496810913086 60.222938537597656 96.00243377685547 C 68.36933898925781 89.5119857788086 79.65904998779297 84.28486633300781 89.80458068847656 89.27821350097656 C 89.80458068847656 89.27821350097656 89.80458068847656 89.27821350097656 89.80458068847656 89.27821350097656" stroke-width="0.0" fill="rgb(79, 70, 162)" opacity="1.0"/>
    <path d="M 81.30901336669922 90.89595031738281 C 81.30901336669922 90.89595031738281 81.30901336669922 90.89595031738281 81.30901336669922 90.89595031738281 C 73.26751708984375 91.1409683227539 66.08771514892578 95.57533264160156 60.230430603027344 100.79795837402344 C 48.11273956298828 111.60063171386719 39.581947326660156 127.28199768066406 36.86723327636719 143.2623291015625 C 36.59449005126953 144.86883544921875 36.384681701660156 146.486572265625 36.24755859375 148.1103057861328 C 35.499755859375 156.9962615966797 36.80653381347656 169.58151245117188 46.36986541748047 173.47637939453125 C 47.666900634765625 174.004638671875 49.043373107910156 174.32159423828125 50.43632125854492 174.44747924804688 C 54.50202560424805 174.81463623046875 58.590213775634766 173.647216796875 62.23556137084961 171.9253387451172 C 69.55772399902344 168.4658203125 75.71098327636719 162.67372131347656 80.71481323242188 156.39682006835938 C 82.16171264648438 154.58126831054688 83.5239486694336 152.69752502441406 84.79925537109375 150.75759887695312 C 85.65645599365234 149.45379638671875 86.39151763916016 147.58804321289062 87.68556213378906 146.63568115234375 C 88.99383544921875 145.67282104492188 90.39278411865234 145.9830322265625 91.85617065429688 146.21531677246094 C 94.69078063964844 146.66490173339844 97.54186248779297 147.01109313964844 100.40044403076172 147.26210021972656 C 107.7690658569336 147.91024780273438 115.20063018798828 147.94696044921875 122.57600402832031 147.3827362060547 C 125.4503173828125 147.16319274902344 128.31788635253906 146.8477325439453 131.1697235107422 146.42962646484375 C 132.22474670410156 146.2752685546875 133.5105438232422 145.8384246826172 134.58204650878906 145.93359375 C 136.82095336914062 146.1321563720703 137.5672607421875 147.4966278076172 138.6694793701172 149.25747680664062 C 140.21604919433594 151.72943115234375 141.8989715576172 154.11669921875 143.71678161621094 156.39682006835938 C 145.10147094726562 158.13294982910156 146.5648651123047 159.806884765625 148.10842895507812 161.40365600585938 C 149.56954956054688 162.9149932861328 151.1033935546875 164.3566436767578 152.71363830566406 165.7083740234375 C 159.93763732910156 171.771728515625 172.1624755859375 178.5476531982422 181.076904296875 171.75149536132812 C 188.45077514648438 166.12950134277344 188.9752960205078 154.90721130371094 188.02444458007812 146.51504516601562 C 186.48687744140625 132.95120239257812 180.4752197265625 119.78373718261719 172.02760314941406 109.14067077636719 C 167.8307647705078 103.85285949707031 162.87864685058594 99.01237487792969 157.10528564453125 95.46592712402344 C 150.4282684326172 91.36351013183594 140.98033142089844 88.39927673339844 134.19615173339844 93.95533752441406 C 132.3993377685547 95.42696380615234 131.01913452148438 97.34217834472656 130.00306701660156 99.41924285888672 C 129.2357940673828 100.98753356933594 128.72251892089844 102.58879089355469 126.79830932617188 103.02262878417969 C 125.49677276611328 103.31636047363281 123.9749526977539 102.93870544433594 122.6711654663086 102.83905029296875 C 120.68851470947266 102.68694305419922 118.70211791992188 102.57904815673828 116.71497344970703 102.51460266113281 C 110.70183563232422 102.31978607177734 104.8048324584961 102.95594787597656 98.81792449951172 103.0975570678711 C 94.8653564453125 103.19122314453125 94.21796417236328 98.322265625 92.12442016601562 95.82859802246094 C 89.3332748413086 92.50469970703125 85.5552978515625 91.08477020263672 81.30901336669922 90.89595031738281 C 81.30901336669922 90.89595031738281 81.30901336669922 90.89595031738281 81.30901336669922 90.89595031738281" stroke-width="0.0" fill="rgb(254, 180, 120)" opacity="1.0"/>
    <path d="M 164.00408935546875 66.8486328125 C 164.00408935546875 66.8486328125 164.00408935546875 66.8486328125 164.00408935546875 66.8486328125 C 166.8709259033203 67.42784118652344 169.20274353027344 70.50222778320312 166.59591674804688 73.11129760742188 C 165.6682891845703 74.0396728515625 165.22695922851562 73.93852233886719 164.00408935546875 74.185791015625 C 154.9435577392578 74.185791015625 145.88299560546875 74.185791015625 136.82321166992188 74.185791015625 C 128.69479370117188 74.48551177978516 121.33291625976562 78.79548645019531 117.83442687988281 86.30497741699219 C 116.98846435546875 88.11903381347656 116.40625762939453 90.0537338256836 116.11253356933594 92.03338623046875 C 115.90198516845703 93.45780944824219 116.16498565673828 95.17820739746094 115.60450744628906 96.5284423828125 C 115.04253387451172 97.8824234008789 113.68479919433594 98.79656982421875 112.21617126464844 98.79132843017578 C 109.1875 98.78158569335938 108.45767211914062 96.03240966796875 108.59030151367188 93.57769775390625 C 108.80535125732422 89.59815979003906 109.87385559082031 85.68006896972656 111.70889282226562 82.14336395263672 C 116.62730407714844 72.66545867919922 126.28429412841797 67.13636779785156 136.82321166992188 66.85163116455078 C 145.88299560546875 66.85163116455078 154.9435577392578 66.85163116455078 164.00408935546875 66.85163116455078 C 164.00408935546875 66.85163116455078 164.00408935546875 66.8486328125 164.00408935546875 66.8486328125" stroke-width="0.0" fill="rgb(79, 70, 163)" opacity="1.0"/>
    <path d="M 65.46954345703125 102.5655517578125 C 69.1853256225586 102.5655517578125 72.90110778808594 102.5655517578125 76.61614227294922 102.5655517578125 C 78.92623901367188 103.0323715209961 79.81790161132812 103.92404174804688 80.28546142578125 106.234130859375 C 80.28546142578125 108.93836212158203 80.28546142578125 111.64259338378906 80.28546142578125 114.34680938720703 C 82.98744201660156 114.34680938720703 85.68942260742188 114.34680938720703 88.39140319824219 114.34680938720703 C 90.70074462890625 114.81288146972656 91.5909194946289 115.70304870605469 92.0569839477539 118.01164245605469 C 92.0569839477539 121.72667694091797 92.0569839477539 125.44096374511719 92.0569839477539 129.15524291992188 C 91.5909194946289 131.464599609375 90.70074462890625 132.35475158691406 88.39140319824219 132.82156372070312 C 85.68942260742188 132.82156372070312 82.98744201660156 132.82156372070312 80.28546142578125 132.82156372070312 C 80.28546142578125 135.52505493164062 80.28546142578125 138.22927856445312 80.28546142578125 140.93350219726562 C 79.81790161132812 143.2436065673828 78.92623901367188 144.13525390625 76.61614227294922 144.60208129882812 C 72.90110778808594 144.60208129882812 69.1853256225586 144.60208129882812 65.46954345703125 144.60208129882812 C 63.16019821166992 144.13525390625 62.26852798461914 143.2436065673828 61.80171203613281 140.93350219726562 C 61.80171203613281 138.22927856445312 61.80171203613281 135.52505493164062 61.80171203613281 132.82156372070312 C 59.0997314453125 132.82156372070312 56.39775848388672 132.82156372070312 53.69502639770508 132.82156372070312 C 51.38568115234375 132.35475158691406 50.49327087402344 131.46533203125 50.02645492553711 129.15524291992188 C 50.02645492553711 125.44096374511719 50.02645492553711 121.72667694091797 50.02645492553711 118.01164245605469 C 50.49327087402344 115.70230102539062 51.38568115234375 114.81288146972656 53.69502639770508 114.34680938720703 C 56.39775848388672 114.34680938720703 59.0997314453125 114.34680938720703 61.80171203613281 114.34680938720703 C 61.80171203613281 111.64259338378906 61.80171203613281 108.93836212158203 61.80171203613281 106.234130859375 C 62.26852798461914 103.92404174804688 63.15945053100586 103.0323715209961 65.46954345703125 102.5655517578125 C 65.46954345703125 102.5655517578125 65.46954345703125 102.5655517578125 65.46954345703125 102.5655517578125" stroke-width="0.0" fill="rgb(79, 70, 162)" opacity="1.0"/>
    <path d="M 140.74879455566406 113.57653045654297 C 140.74879455566406 113.57653045654297 140.74879455566406 113.57653045654297 140.74879455566406 113.57653045654297 C 144.23304748535156 113.83354187011719 147.3179168701172 115.19352722167969 149.28257751464844 118.2154541015625 C 153.60079956054688 124.85650634765625 148.659912109375 133.92678833007812 140.74879455566406 133.92678833007812 C 132.83767700195312 133.92678833007812 127.89753723144531 124.85650634765625 132.21575927734375 118.2154541015625 C 134.1796875 115.19352722167969 137.26528930664062 113.83354187011719 140.74879455566406 113.57653045654297 C 140.74879455566406 113.57653045654297 140.74879455566406 113.57653045654297 140.74879455566406 113.57653045654297" stroke-width="0.0" fill="rgb(79, 70, 162)" opacity="1.0"/>
    <path d="M 166.9473419189453 113.57653045654297 C 166.9473419189453 113.57653045654297 166.9473419189453 113.57653045654297 166.9473419189453 113.57653045654297 C 170.43084716796875 113.83354187011719 173.51646423339844 115.19352722167969 175.48037719726562 118.2154541015625 C 179.79859924316406 124.85650634765625 174.85845947265625 133.92678833007812 166.9473419189453 133.92678833007812 C 159.03622436523438 133.92678833007812 154.0953369140625 124.85650634765625 158.41355895996094 118.2154541015625 C 160.3782196044922 115.19352722167969 163.46310424804688 113.83354187011719 166.9473419189453 113.57653045654297 C 166.9473419189453 113.57653045654297 166.9473419189453 113.57653045654297 166.9473419189453 113.57653045654297" stroke-width="0.0" fill="rgb(79, 70, 162)" opacity="1.0"/>
    <path d="M 99.09591674804688 38.093467712402344 C 120.38279724121094 38.093467712402344 141.669677734375 38.093467712402344 162.95582580566406 38.093467712402344 C 169.2626953125 38.248573303222656 175.81907653808594 39.280364990234375 180.7592010498047 43.54164123535156 C 187.58682250976562 49.430397033691406 188.4770050048828 60.23980712890625 182.4698486328125 67.06294250488281 C 179.44642639160156 70.49773406982422 175.14395141601562 72.47738647460938 170.7283172607422 73.40277099609375 C 168.71868896484375 73.82388305664062 166.6693572998047 74.04267883300781 164.61851501464844 74.11760711669922 C 163.6144561767578 74.1543197631836 162.4965057373047 74.25921630859375 161.52764892578125 73.85684967041016 C 159.16136169433594 72.87451171875 158.56117248535156 69.68248748779297 160.3617401123047 67.88117980957031 C 161.92852783203125 66.31438446044922 164.4888916015625 66.83889770507812 166.4760284423828 66.63358306884766 C 169.68304443359375 66.30314636230469 173.15756225585938 65.47891235351562 175.71490478515625 63.396610260009766 C 180.40179443359375 59.580421447753906 180.2744140625 52.25450897216797 175.41969299316406 48.64063262939453 C 171.85751342773438 45.988853454589844 167.24781799316406 45.542266845703125 162.9588165283203 45.42762756347656 C 141.67117309570312 45.42762756347656 120.383544921875 45.42762756347656 99.09591674804688 45.42762756347656 C 96.22984313964844 44.84992218017578 93.8897705078125 41.77703094482422 96.50108337402344 39.16722106933594 C 97.4294662475586 38.239585876464844 97.87155151367188 38.339988708496094 99.09591674804688 38.093467712402344 C 99.09591674804688 38.093467712402344 99.09591674804688 38.093467712402344 99.09591674804688 38.093467712402344" stroke-width="0.0" fill="rgb(79, 70, 163)" opacity="1.0"/>
    <path d="M 65.46729278564453 106.23114013671875 C 69.18307495117188 106.23114013671875 72.89810943603516 106.23114013671875 76.61314392089844 106.23114013671875 C 76.61314392089844 110.15821838378906 76.61314392089844 114.0853042602539 76.61314392089844 118.01164245605469 C 80.53797912597656 118.01164245605469 84.46356964111328 118.01164245605469 88.3884048461914 118.01164245605469 C 88.3884048461914 121.72517395019531 88.3884048461914 125.43871307373047 88.3884048461914 129.15225219726562 C 84.46356964111328 129.15225219726562 80.53797912597656 129.15225219726562 76.61314392089844 129.15225219726562 C 76.61314392089844 133.07933044433594 76.61314392089844 137.0064239501953 76.61314392089844 140.93350219726562 C 72.89810943603516 140.93350219726562 69.18307495117188 140.93350219726562 65.46729278564453 140.93350219726562 C 65.46729278564453 137.0064239501953 65.46729278564453 133.07933044433594 65.46729278564453 129.15225219726562 C 61.54246139526367 129.15225219726562 57.617618560791016 129.15225219726562 53.69203186035156 129.15225219726562 C 53.69203186035156 125.43871307373047 53.69203186035156 121.72517395019531 53.69203186035156 118.01164245605469 C 57.617618560791016 118.01164245605469 61.54246139526367 118.01164245605469 65.46729278564453 118.01164245605469 C 65.46729278564453 114.0853042602539 65.46729278564453 110.15821838378906 65.46729278564453 106.23114013671875" stroke-width="0.0" fill="rgb(79, 70, 163)" opacity="1.0"/>
    <path d="M 140.74879455566406 117.24286651611328 C 140.74879455566406 117.24286651611328 140.74879455566406 117.24286651611328 140.74879455566406 117.24286651611328 C 143.25970458984375 117.53208923339844 145.42218017578125 118.4874496459961 146.5955810546875 120.88896179199219 C 148.67190551757812 125.1412353515625 145.48138427734375 130.26121520996094 140.74879455566406 130.26121520996094 C 136.01470947265625 130.26121520996094 132.82644653320312 125.14348602294922 134.90126037597656 120.88896179199219 C 136.07391357421875 118.48594665527344 138.2371368408203 117.53208923339844 140.74879455566406 117.24286651611328 C 140.74879455566406 117.24286651611328 140.74879455566406 117.24286651611328 140.74879455566406 117.24286651611328" stroke-width="0.0" fill="rgb(79, 70, 163)" opacity="1.0"/>
    <path d="M 166.9473419189453 117.24286651611328 C 166.9473419189453 117.24286651611328 166.9473419189453 117.24286651611328 166.9473419189453 117.24286651611328 C 169.458251953125 117.53208923339844 171.6207275390625 118.4874496459961 172.79339599609375 120.88896179199219 C 174.87045288085938 125.1412353515625 171.679931640625 130.26121520996094 166.9473419189453 130.26121520996094 C 162.2132568359375 130.26121520996094 159.0234832763672 125.14348602294922 161.09906005859375 120.88896179199219 C 162.27171325683594 118.48594665527344 164.4349365234375 117.53208923339844 166.9473419189453 117.24286651611328 C 166.9473419189453 117.24286651611328 166.9473419189453 117.24286651611328 166.9473419189453 117.24286651611328" stroke-width="0.0" fill="rgb(79, 70, 163)" opacity="1.0"/>
    <path d="M 69.13887023925781 109.9027099609375 C 69.13887023925781 112.60693359375 69.13887023925781 115.31116485595703 69.13887023925781 118.01464080810547 C 68.67205810546875 120.32473754882812 67.77963256835938 121.21490478515625 65.46954345703125 121.68096923828125 C 62.76756286621094 121.68096923828125 60.065582275390625 121.68096923828125 57.36360549926758 121.68096923828125 C 57.36360549926758 122.94953918457031 57.36360549926758 124.21810150146484 57.36360549926758 125.48666381835938 C 60.065582275390625 125.48666381835938 62.76756286621094 125.48666381835938 65.46954345703125 125.48666381835938 C 67.78113555908203 125.95347595214844 68.67205810546875 126.84440612792969 69.13887023925781 129.15524291992188 C 69.13887023925781 131.85946655273438 69.13887023925781 134.56370544433594 69.13887023925781 137.26792907714844 C 70.40818786621094 137.2664337158203 71.67825317382812 137.2656707763672 72.94756317138672 137.26492309570312 C 72.94756317138672 134.5614471435547 72.94756317138672 131.85873413085938 72.94756317138672 129.15524291992188 C 73.41438293457031 126.8436508178711 74.30455017089844 125.95347595214844 76.61614227294922 125.48666381835938 C 79.318115234375 125.48666381835938 82.02009582519531 125.48666381835938 84.72282409667969 125.48666381835938 C 84.72282409667969 124.21810150146484 84.72282409667969 122.94953918457031 84.72282409667969 121.68096923828125 C 82.02009582519531 121.68096923828125 79.318115234375 121.68096923828125 76.61614227294922 121.68096923828125 C 74.30455017089844 121.21490478515625 73.41438293457031 120.32398986816406 72.94756317138672 118.01164245605469 C 72.94756317138672 115.30891418457031 72.94756317138672 112.60543823242188 72.94756317138672 109.9027099609375 C 71.67825317382812 109.9027099609375 70.40818786621094 109.9027099609375 69.13887023925781 109.9027099609375" stroke-width="0.0" fill="rgb(138, 135, 193)" opacity="1.0"/>
    <path d="M 140.74879455566406 120.91143798828125 C 140.74879455566406 120.91143798828125 140.74879455566406 120.91143798828125 140.74879455566406 120.91143798828125 C 139.56265258789062 121.2328872680664 138.97593688964844 121.13772583007812 138.29708862304688 122.32012176513672 C 137.2255859375 124.18438720703125 138.58181762695312 126.59264373779297 140.74879455566406 126.59264373779297 C 142.915771484375 126.59264373779297 144.27200317382812 124.18438720703125 143.20126342773438 122.32012176513672 C 142.52163696289062 121.13772583007812 141.9349365234375 121.2328872680664 140.74879455566406 120.91143798828125 C 140.74879455566406 120.91143798828125 140.74879455566406 120.91143798828125 140.74879455566406 120.91143798828125" stroke-width="0.0" fill="rgb(254, 71, 147)" opacity="1.0"/>
    <path d="M 166.9473419189453 120.91143798828125 C 166.9473419189453 120.91143798828125 166.9473419189453 120.91143798828125 166.9473419189453 120.91143798828125 C 165.76119995117188 121.2328872680664 165.17449951171875 121.13772583007812 164.49488830566406 122.32012176513672 C 163.42413330078125 124.18438720703125 164.78036499023438 126.59264373779297 166.9473419189453 126.59264373779297 C 169.11431884765625 126.59264373779297 170.4698028564453 124.18438720703125 169.3990478515625 122.32012176513672 C 168.71945190429688 121.13772583007812 168.1327362060547 121.2328872680664 166.9473419189453 120.91143798828125 C 166.9473419189453 120.91143798828125 166.9473419189453 120.91143798828125 166.9473419189453 120.91143798828125" stroke-width="0.0" fill="rgb(94, 205, 254)" opacity="1.0"/>
  </g>
</svg>
