<?xml version="1.0" ?>
<svg xmlns="http://www.w3.org/2000/svg" version="1.1" width="224" height="224">
  <defs/>
  <g>
    <path d="M 71.41561889648438 147.3961181640625 C 69.4862289428711 146.17019653320312 66.92213439941406 144.38682556152344 65.70408630371094 142.99090576171875 C 63.719207763671875 141.21762084960938 61.742454528808594 141.1634063720703 50.09222412109375 141.0390625 C 42.11266326904297 141.09701538085938 35.81398010253906 140.81814575195312 34.409454345703125 139.58172607421875 C 30.358314514160156 137.9755859375 28.0 133.20106506347656 28.326385498046875 125.91997528076172 C 28.302085876464844 115.14366912841797 34.61315155029297 106.12114715576172 43.565269470214844 103.68014526367188 C 45.85832214355469 103.24810028076172 54.77188491821289 101.92633056640625 63.28554153442383 100.9522705078125 C 72.07394409179688 99.9684066772461 80.70590209960938 98.7699966430664 82.80353546142578 97.89266204833984 C 84.76131439208984 97.40548706054688 90.4676284790039 93.09190368652344 95.43124389648438 88.12971496582031 C 100.83502960205078 83.69625854492188 107.9805679321289 78.64109802246094 111.50853729248047 76.80919647216797 C 117.73460388183594 73.76052856445312 118.47211456298828 73.77371215820312 137.96412658691406 73.49122619628906 L 158.17843627929688 73.92837524414062 L 165.9907989501953 77.62483978271484 C 176.83584594726562 83.13436126708984 188.94302368164062 95.47380065917969 192.421875 104.56443786621094 C 196.0 113.82962036132812 195.49803161621094 125.05492401123047 191.10171508789062 129.40245056152344 C 189.3668975830078 131.281494140625 187.92750549316406 134.4929656982422 187.64199829101562 136.54014587402344 C 186.72703552246094 141.40634155273438 184.02969360351562 144.64817810058594 179.61569213867188 147.3247528076172 C 173.28237915039062 150.50877380371094 167.63352966308594 148.85427856445312 162.57855224609375 143.8076171875 C 160.4706268310547 140.95260620117188 159.5686798095703 140.89456176757812 126.57059478759766 141.2080078125 L 92.12258911132812 141.17672729492188 L 87.17271423339844 145.58773803710938 C 81.13847351074219 149.3670654296875 76.54853820800781 150.02932739257812 71.41561889648438 147.3961181640625" stroke-width="1.0" fill="rgb(82, 68, 142)" opacity="0.99582493"/>
    <path d="M 73.77249145507812 140.22850036621094 C 71.24215698242188 137.70970153808594 70.7856674194336 131.42694091796875 72.88580322265625 129.04624938964844 C 75.60145568847656 126.13923645019531 80.3543930053711 126.9278564453125 82.83192443847656 130.53460693359375 C 85.10772705078125 133.5877227783203 85.20344543457031 134.2808837890625 83.50304412841797 137.7600860595703 C 81.35659790039062 141.79458618164062 76.9033203125 142.8326873779297 73.77249145507812 140.22850036621094" stroke-width="1.0" fill="rgb(96, 89, 161)" opacity="0.9789603"/>
    <path d="M 168.057373046875 137.13980102539062 C 165.14898681640625 132.17276000976562 167.52520751953125 127.87899017333984 172.92393493652344 127.61203002929688 C 176.00775146484375 128.04847717285156 177.15940856933594 128.7482452392578 178.45977783203125 131.24212646484375 C 179.83389282226562 134.16017150878906 179.87503051757812 134.73777770996094 178.0331573486328 137.4379425048828 C 174.995849609375 141.496826171875 170.60064697265625 141.36117553710938 168.057373046875 137.13980102539062" stroke-width="1.0" fill="rgb(97, 90, 161)" opacity="0.9801773"/>
    <path d="M 120.72529602050781 90.6727066040039 L 126.86018371582031 83.68859100341797 L 141.16403198242188 83.7291259765625 C 154.20361328125 83.88726806640625 156.3443603515625 84.13365173339844 161.833251953125 87.00838470458984 C 165.05416870117188 88.61289978027344 169.823974609375 91.89808654785156 172.052734375 93.83483123779297 L 177.09213256835938 98.17678833007812 L 145.81390380859375 97.99598693847656 L 114.5125503540039 97.78736114501953 L 120.72529602050781 90.6727066040039" stroke-width="1.0" fill="rgb(139, 180, 208)" opacity="0.9877028"/>
    <path d="M 36.977203369140625 126.7454833984375 C 37.15007781982422 119.95541381835938 39.244667053222656 115.46583557128906 43.35435485839844 113.58287811279297 C 45.063987731933594 112.80663299560547 54.52712631225586 111.27324676513672 63.911170959472656 109.92430114746094 C 73.72159576416016 109.03362274169922 83.52529907226562 107.38813781738281 86.01827239990234 106.35234832763672 C 89.78430938720703 104.92827606201172 90.45704650878906 104.84693908691406 92.95616149902344 105.9681396484375 C 94.80787658691406 107.54438018798828 101.9648208618164 107.44918823242188 139.50393676757812 107.25502014160156 L 184.03224182128906 107.58457946777344 L 184.56112670898438 110.6143798828125 C 185.1033172607422 112.01677703857422 185.53512573242188 114.82328796386719 185.38145446777344 117.06443786621094 C 185.40924072265625 120.24006652832031 185.09585571289062 120.7603988647461 183.11630249023438 120.66992950439453 C 182.17257690429688 119.80540466308594 179.17135620117188 118.70220947265625 176.53736877441406 118.02075958251953 C 169.80490112304688 116.34607696533203 162.1588134765625 120.32426452636719 158.94302368164062 127.10344696044922 L 157.25308227539062 132.17190551757812 L 93.1385498046875 132.22299194335938 L 92.1783676147461 127.86488342285156 C 89.55329895019531 120.08612823486328 79.78724670410156 115.8269271850586 72.75447082519531 119.10344696044922 C 67.28459167480469 121.43095397949219 64.64620971679688 123.98153686523438 62.83695602416992 128.4774932861328 L 61.052913665771484 132.22711181640625 L 36.780487060546875 132.31642150878906 L 36.977203369140625 126.7454833984375" stroke-width="1.0" fill="rgb(246, 184, 99)" opacity="0.99738973"/>
  </g>
</svg>
