<?xml version="1.0" ?>
<svg xmlns="http://www.w3.org/2000/svg" version="1.1" width="224" height="224">
  <defs/>
  <g>
    <path d="M 111.49492645263672 28.01416015625 C 111.49492645263672 28.01416015625 111.49492645263672 28.01416015625 111.49492645263672 28.01416015625 C 116.40476989746094 28.4383544921875 119.42105102539062 31.454627990722656 119.8452377319336 36.36447525024414 C 119.8452377319336 52.890655517578125 119.8452377319336 69.41609191894531 119.8452377319336 85.94152069091797 C 135.4134521484375 85.94152069091797 150.98167419433594 85.94152069091797 166.54913330078125 85.94152069091797 C 168.7215118408203 86.17337036132812 170.3340301513672 86.64079284667969 172.0270538330078 88.02891540527344 C 178.55014038085938 93.76924133300781 185.0732421875 99.51031494140625 191.59561157226562 105.25064086914062 C 195.7987060546875 109.08621978759766 196.0 114.79598236083984 191.59561157226562 118.55850982666016 C 184.98529052734375 123.51681518554688 178.3749542236328 128.474365234375 171.765380859375 133.43191528320312 C 170.02464294433594 134.544189453125 168.605224609375 135.03846740722656 166.54690551757812 135.25689697265625 C 150.9801788330078 135.2561492919922 135.41270446777344 135.25465393066406 119.8452377319336 135.25392150878906 C 119.8452377319336 152.30044555664062 119.8452377319336 169.34771728515625 119.8452377319336 186.39427185058594 C 119.6282958984375 188.90957641601562 118.91486358642578 191.12667846679688 116.91021728515625 192.80850219726562 C 113.12383270263672 195.98583984375 106.81097412109375 195.27163696289062 104.26807403564453 190.8985595703125 C 103.4756088256836 189.53652954101562 103.2802963256836 188.19390869140625 103.14759826660156 186.65594482421875 C 103.14759826660156 158.73707580566406 103.14759826660156 130.81820678710938 103.14759826660156 102.89933776855469 C 87.57788848876953 102.89933776855469 72.00892639160156 102.89933776855469 56.439964294433594 102.89933776855469 C 54.43756866455078 102.6958236694336 52.944332122802734 102.09793090820312 51.22074508666992 101.07138061523438 C 44.611167907714844 96.11383056640625 38.00084686279297 91.15552520751953 31.391273498535156 86.19796752929688 C 29.5938720703125 84.64137268066406 28.683624267578125 82.97816467285156 28.0 80.71707916259766 C 28.0 80.00140380859375 28.0 79.28572082519531 28.0 78.5700454711914 C 28.409278869628906 76.53856658935547 29.108558654785156 75.06770324707031 30.34832000732422 73.41194915771484 C 37.13233947753906 67.40995788574219 43.916358947753906 61.407958984375 50.70038986206055 55.406707763671875 C 52.44038009643555 54.11997985839844 54.01709747314453 53.481834411621094 56.180538177490234 53.31931686401367 C 71.74874877929688 53.31931686401367 87.31697082519531 53.31931686401367 102.88517761230469 53.31931686401367 C 102.88517761230469 47.667701721191406 102.88517761230469 42.01608657836914 102.88517761230469 36.36447525024414 C 103.5561294555664 31.491165161132812 106.55451965332031 28.441329956054688 111.49492645263672 28.01416015625 C 111.49492645263672 28.01416015625 111.49492645263672 28.01416015625 111.49492645263672 28.01416015625" stroke-width="0.0" fill="rgb(0, 0, 0)" opacity="1.0"/>
    <path d="M 111.49492645263672 30.621910095214844 C 111.49492645263672 30.621910095214844 111.49492645263672 30.621910095214844 111.49492645263672 30.621910095214844 C 114.88544464111328 31.01776885986328 117.05484008789062 32.93817138671875 117.49617767333984 36.36447525024414 C 117.49617767333984 53.75990295410156 117.49617767333984 71.15458679199219 117.49617767333984 88.54927062988281 C 133.6734619140625 88.54852294921875 149.8507537841797 88.54777526855469 166.02804565429688 88.5462875366211 C 167.67633056640625 88.75651550292969 168.6007537841797 89.13001251220703 169.94338989257812 90.1125717163086 C 176.55296325683594 95.85365295410156 183.1632843017578 101.59397888183594 189.77285766601562 107.33505249023438 C 192.88978576660156 110.0456771850586 192.798095703125 113.97444152832031 189.77285766601562 116.72756958007812 C 183.1632843017578 121.68586730957031 176.55296325683594 126.64342498779297 169.94338989257812 131.6017303466797 C 168.68275451660156 132.37257385253906 167.75758361816406 132.71922302246094 166.2904510498047 132.9055938720703 C 149.939453125 132.9055938720703 133.58847045898438 132.9055938720703 117.23749542236328 132.9055938720703 C 117.23674011230469 150.82212829589844 117.2352523803711 168.73866271972656 117.23450469970703 186.65594482421875 C 117.07422637939453 188.01646423339844 116.84759521484375 189.12799072265625 115.96194458007812 190.22984313964844 C 113.6829605102539 193.06272888183594 109.30689239501953 193.06272888183594 107.02790832519531 190.22984313964844 C 106.14225769042969 189.12799072265625 105.9156265258789 188.01646423339844 105.7553482055664 186.65594482421875 C 105.66886138916016 186.65594482421875 105.58238983154297 186.65594482421875 105.49591064453125 186.65594482421875 C 105.49516296386719 157.8663330078125 105.4936752319336 129.0774688720703 105.49292755126953 100.28861236572266 C 89.14193725585938 100.28861236572266 72.79095458984375 100.28861236572266 56.439964294433594 100.28861236572266 C 54.97283172607422 100.10223388671875 54.04841613769531 99.75558471679688 52.78703308105469 98.98399353027344 C 46.17670440673828 94.02643585205078 39.56713104248047 89.06888580322266 32.956809997558594 84.11058044433594 C 29.949478149414062 81.41561126708984 29.807830810546875 77.39812469482422 32.956809997558594 74.71881103515625 C 39.56713104248047 68.97773742675781 46.17670440673828 63.236663818359375 52.78703308105469 57.49559020996094 C 54.129669189453125 56.513771057128906 55.05483627319336 56.14027786254883 56.70238494873047 55.93004608154297 C 73.0533676147461 55.93004608154297 89.40435791015625 55.93004608154297 105.7553482055664 55.93004608154297 C 105.7553482055664 49.407691955566406 105.7553482055664 42.88459396362305 105.7553482055664 36.36149215698242 C 106.15269470214844 32.98662567138672 108.12006378173828 31.019264221191406 111.49492645263672 30.621910095214844 C 111.49492645263672 30.621910095214844 111.49492645263672 30.621910095214844 111.49492645263672 30.621910095214844" stroke-width="0.0" fill="rgb(0, 0, 0)" opacity="1.0"/>
    <path d="M 111.49790954589844 32.97395324707031 C 111.49790954589844 32.97395324707031 111.49790954589844 32.97395324707031 111.49790954589844 32.97395324707031 C 109.38890075683594 33.41678237915039 108.5494613647461 34.25546646118164 108.10664367675781 36.36447525024414 C 108.10664367675781 43.75682067871094 108.10664367675781 51.149173736572266 108.10664367675781 58.54152297973633 C 90.88640594482422 58.54152297973633 73.66616821289062 58.54152297973633 56.44593811035156 58.54152297973633 C 55.71385192871094 58.66676712036133 54.9899787902832 58.93216323852539 54.358543395996094 59.32429504394531 C 47.74896240234375 65.06462097167969 41.138641357421875 70.80569458007812 34.52906799316406 76.5460205078125 C 32.830078125 78.46418762207031 32.59076690673828 80.0118408203125 34.26664733886719 82.02691650390625 C 40.876220703125 86.98446655273438 47.486549377441406 91.94202423095703 54.09612274169922 96.90032958984375 C 54.727561950683594 97.29171752929688 55.45144271850586 97.5571060180664 56.18351745605469 97.68310546875 C 73.40375518798828 97.68310546875 90.62399291992188 97.68310546875 107.84422302246094 97.68310546875 C 107.8434829711914 127.34046173095703 107.84273529052734 156.99783325195312 107.84124755859375 186.65594482421875 C 107.92921447753906 186.65594482421875 108.01643371582031 186.65594482421875 108.1036605834961 186.65594482421875 C 108.34296417236328 187.79356384277344 108.24903106689453 188.1707763671875 109.11455535888672 189.03631591796875 C 111.51803588867188 191.43905639648438 114.3300552368164 189.30245971679688 114.88544464111328 186.65594482421875 C 114.88619232177734 167.86941528320312 114.8869400024414 149.08363342285156 114.888427734375 130.29710388183594 C 115.75768280029297 130.29710388183594 116.6269302368164 130.29710388183594 117.49617767333984 130.29710388183594 C 129.13636779785156 130.32766723632812 140.77581787109375 130.4954071044922 152.416748046875 130.46185302734375 C 155.88778686523438 130.45216369628906 159.3603057861328 130.43576049804688 162.83059692382812 130.35003662109375 C 164.31338500976562 130.3142547607422 166.4313507080078 130.58486938476562 167.85301208496094 130.03543090820312 C 171.00050354003906 128.81878662109375 173.89376831054688 126.0604476928711 176.5373077392578 124.04387664794922 C 179.35975646972656 121.89088439941406 182.14865112304688 119.69389343261719 184.9517364501953 117.51481628417969 C 186.38084411621094 116.40402221679688 188.7224578857422 115.18960571289062 189.67819213867188 113.59498596191406 C 190.7062225341797 111.87886047363281 189.66253662109375 110.34536743164062 188.46600341796875 109.16002655029297 C 181.85641479492188 103.41895294189453 175.24610900878906 97.67862701416016 168.6365203857422 91.93755340576172 C 168.28839111328125 91.76385498046875 167.93948364257812 91.59014892578125 167.59133911132812 91.41645050048828 C 167.59133911132812 91.41645050048828 167.59133911132812 91.41645050048828 167.59133911132812 91.41645050048828 C 167.15670776367188 91.32923126220703 166.7220916748047 91.24200439453125 166.28746032714844 91.15478515625 C 149.15444946289062 91.15552520751953 132.0214385986328 91.1562728881836 114.888427734375 91.15776062011719 C 114.888427734375 72.8930892944336 114.888427734375 54.629154205322266 114.888427734375 36.36447525024414 C 114.44560241699219 34.25621032714844 113.60691833496094 33.416038513183594 111.49790954589844 32.97395324707031 C 111.49790954589844 32.97395324707031 111.49790954589844 32.97395324707031 111.49790954589844 32.97395324707031" stroke-width="0.0" fill="rgb(62, 182, 83)" opacity="1.0"/>
    <path d="M 58.79126739501953 65.32852935791016 C 75.31595611572266 65.32852935791016 91.84064483642578 65.32852935791016 108.3653335571289 65.32852935791016 C 108.3653335571289 74.02549743652344 108.3653335571289 82.72246551513672 108.3653335571289 91.41943359375 C 107.4953384399414 91.41943359375 106.6253433227539 91.41943359375 105.7553482055664 91.41943359375 C 105.7553482055664 91.33220672607422 105.7553482055664 91.24498748779297 105.7553482055664 91.15776062011719 C 90.01268005371094 91.15776062011719 74.27001953125 91.15776062011719 58.52735900878906 91.15776062011719 C 58.00625991821289 90.98406219482422 57.48515701293945 90.81036376953125 56.96405029296875 90.63665771484375 C 51.919273376464844 86.81002044677734 46.875244140625 82.98339080810547 41.831207275390625 79.1574935913086 C 46.96246337890625 74.7210464477539 52.09446716308594 70.28533935546875 57.2257194519043 65.84962463378906 C 57.7475700378418 65.67593383789062 58.2694206237793 65.50222778320312 58.79126739501953 65.32852935791016" stroke-width="0.0" fill="rgb(58, 169, 78)" opacity="1.0"/>
    <path d="M 114.888427734375 97.68011474609375 C 131.41311645507812 97.68011474609375 147.93780517578125 97.68011474609375 164.46249389648438 97.68011474609375 C 164.9843292236328 97.85382080078125 165.50619506835938 98.02751922607422 166.02804565429688 98.20122528076172 C 171.1600341796875 102.63692474365234 176.29129028320312 107.07337951660156 181.42254638671875 111.50908660888672 C 176.37850952148438 115.33572387695312 171.33447265625 119.16236114501953 166.2904510498047 122.98825073242188 C 165.7686004638672 123.16194915771484 165.2467498779297 123.33564758300781 164.72415161132812 123.50934600830078 C 148.11224365234375 123.51010131835938 131.50033569335938 123.51158905029297 114.888427734375 123.51234436035156 C 114.888427734375 114.90184783935547 114.888427734375 106.29135131835938 114.888427734375 97.68011474609375" stroke-width="0.0" fill="rgb(29, 83, 38)" opacity="1.0"/>
    <path d="M 58.530338287353516 65.58795928955078 C 75.05428314208984 65.58795928955078 91.57897186279297 65.58795928955078 108.1036605834961 65.58795928955078 C 108.1036605834961 74.28492736816406 108.1036605834961 82.98115539550781 108.1036605834961 91.6781234741211 C 107.32089233398438 91.6781234741211 106.53811645507812 91.6781234741211 105.7553482055664 91.6781234741211 C 105.7553482055664 91.5044174194336 105.7553482055664 91.33146667480469 105.7553482055664 91.15776062011719 C 90.01268005371094 91.15776062011719 74.27001953125 91.15776062011719 58.52735900878906 91.15776062011719 C 58.00625991821289 90.98406219482422 57.48515701293945 90.81036376953125 56.96405029296875 90.63665771484375 C 51.832054138183594 86.89649963378906 46.70079803466797 83.1563491821289 41.569541931152344 79.41618347167969 C 46.70079803466797 74.98047637939453 51.832054138183594 70.54402160644531 56.96405029296875 66.10831451416016 C 57.485897064208984 65.93536376953125 58.007747650146484 65.76165771484375 58.530338287353516 65.58795928955078" stroke-width="0.0" fill="rgb(0, 0, 0)" opacity="1.0"/>
    <path d="M 114.888427734375 97.68011474609375 C 131.4138641357422 97.68011474609375 147.94003295898438 97.68011474609375 164.46546936035156 97.68011474609375 C 164.98731994628906 97.85382080078125 165.50917053222656 98.02751922607422 166.03102111816406 98.20122528076172 C 171.16302490234375 102.63692474365234 176.29428100585938 107.07337951660156 181.425537109375 111.50908660888672 C 176.38150024414062 115.33572387695312 171.33746337890625 119.16236114501953 166.29342651367188 122.98825073242188 C 165.77157592773438 123.16194915771484 165.24972534179688 123.33564758300781 164.72714233398438 123.50934600830078 C 148.2017059326172 123.50934600830078 131.67628479003906 123.50934600830078 115.15084075927734 123.50934600830078 C 114.89588165283203 114.90184783935547 114.888427734375 106.29061126708984 114.888427734375 97.68011474609375 C 114.888427734375 97.68011474609375 114.888427734375 97.68011474609375 114.888427734375 97.68011474609375" stroke-width="0.0" fill="rgb(0, 0, 0)" opacity="1.0"/>
    <path d="M 58.78828811645508 67.67460632324219 C 74.44446563720703 67.67460632324219 90.09990692138672 67.67460632324219 105.7553482055664 67.67460632324219 C 105.7553482055664 74.63307189941406 105.7553482055664 81.59154510498047 105.7553482055664 88.54927062988281 C 90.01268005371094 88.54927062988281 74.27001953125 88.54927062988281 58.52735900878906 88.54927062988281 C 54.26535415649414 85.41743469238281 50.004093170166016 82.2863540649414 45.742828369140625 79.15451049804688 C 50.0913200378418 75.327880859375 54.439796447753906 71.5012435913086 58.78828811645508 67.67460632324219" stroke-width="0.0" fill="rgb(0, 0, 0)" opacity="1.0"/>
    <path d="M 117.49617767333984 100.28861236572266 C 117.49617767333984 107.16060638427734 117.49617767333984 114.0325927734375 117.49617767333984 120.90458679199219 C 133.2380828857422 120.90309143066406 148.98001098632812 120.90235137939453 164.72117614746094 120.90160369873047 C 168.98318481445312 117.77052307128906 173.24594116210938 114.64017486572266 177.50794982910156 111.50908660888672 C 173.15945434570312 107.76892852783203 168.81097412109375 104.02877044677734 164.46249389648438 100.28861236572266 C 148.8070526123047 100.28861236572266 133.151611328125 100.28861236572266 117.49617767333984 100.28861236572266" stroke-width="0.0" fill="rgb(0, 0, 0)" opacity="1.0"/>
    <path d="M 58.785301208496094 67.936279296875 C 54.43756866455078 71.67643737792969 50.08907699584961 75.4173355102539 45.7406005859375 79.1574935913086 C 50.002601623535156 82.287841796875 54.26460647583008 85.41893005371094 58.52735900878906 88.54927062988281 C 74.27001953125 88.54927062988281 90.01268005371094 88.54927062988281 105.7553482055664 88.54927062988281 C 105.75460052490234 81.67877197265625 105.75310516357422 74.80752563476562 105.75235748291016 67.936279296875 C 90.096923828125 67.936279296875 74.44148254394531 67.936279296875 58.785301208496094 67.936279296875" stroke-width="0.0" fill="rgb(0, 0, 0)" opacity="1.0"/>
    <path d="M 117.49617767333984 100.29159545898438 C 133.0651397705078 100.29159545898438 148.63409423828125 100.29159545898438 164.20379638671875 100.29159545898438 C 168.5522918701172 104.11748504638672 172.90077209472656 107.94412231445312 177.249267578125 111.770751953125 C 172.98724365234375 114.90184783935547 168.72525024414062 118.03292846679688 164.46249389648438 121.16401672363281 C 148.8070526123047 121.16401672363281 133.151611328125 121.16401672363281 117.49617767333984 121.16401672363281 C 117.49617767333984 114.20629119873047 117.49617767333984 107.24856567382812 117.49617767333984 100.29159545898438" stroke-width="0.0" fill="rgb(0, 0, 0)" opacity="1.0"/>
    <path d="M 59.571800231933594 70.2831039428711 C 56.26626968383789 73.15251922607422 52.96073532104492 76.02194213867188 49.654457092285156 78.89210510253906 C 52.87350845336914 81.24116516113281 56.091819763183594 83.5894775390625 59.31013107299805 85.93853759765625 C 73.921875 85.93853759765625 88.53286743164062 85.93853759765625 103.14460754394531 85.93853759765625 C 103.14460754394531 80.72006225585938 103.14460754394531 75.50157928466797 103.14460754394531 70.2831039428711 C 88.6200942993164 70.2831039428711 74.0955810546875 70.2831039428711 59.571800231933594 70.2831039428711" stroke-width="0.0" fill="rgb(203, 203, 203)" opacity="1.0"/>
    <path d="M 119.8452377319336 102.89933776855469 C 119.8452377319336 108.1178207397461 119.8452377319336 113.33704376220703 119.8452377319336 118.55552673339844 C 134.4569854736328 118.55552673339844 149.06797790527344 118.55552673339844 163.67971801757812 118.55552673339844 C 166.8980255126953 116.20795440673828 170.1163330078125 113.8596420288086 173.33465576171875 111.51206970214844 C 170.0283660888672 108.64190673828125 166.72283935546875 105.77249145507812 163.41729736328125 102.90232849121094 C 148.89352416992188 102.90083312988281 134.3697509765625 102.90008544921875 119.8452377319336 102.89933776855469" stroke-width="0.0" fill="rgb(203, 203, 203)" opacity="1.0"/>
  </g>
</svg>
