<?xml version="1.0" ?>
<svg xmlns="http://www.w3.org/2000/svg" version="1.1" width="224" height="224">
  <defs/>
  <g>
    <path d="M 68.50993347167969 194.39712524414062 C 63.62439727783203 191.8143310546875 60.11808776855469 185.57437133789062 60.30361557006836 179.7578125 C 60.38374710083008 177.91732788085938 60.87248992919922 173.97647094726562 61.82685852050781 170.22915649414062 C 64.14779663085938 164.201171875 64.36810302734375 162.73648071289062 64.50682067871094 148.33340454101562 C 64.49746704101562 135.24365234375 64.1004638671875 130.76165771484375 62.096763610839844 119.4254150390625 C 59.69727325439453 104.99414825439453 58.580692291259766 91.41551208496094 58.65987777709961 84.69747161865234 C 59.095794677734375 81.24559783935547 58.522891998291016 79.99281311035156 56.39249801635742 78.46363830566406 C 55.51824951171875 77.0302963256836 54.762149810791016 75.62140655517578 54.837547302246094 74.6647720336914 C 55.073429107666016 73.75128936767578 53.6202392578125 72.29454040527344 51.89325714111328 71.40153503417969 C 48.439788818359375 67.39214324951172 47.899330139160156 62.975677490234375 49.929771423339844 57.78118133544922 C 50.817989349365234 55.64134979248047 52.23401641845703 53.63894271850586 53.19029998779297 53.300296783447266 C 54.52592849731445 52.495723724365234 55.01350402832031 51.64867401123047 54.63594055175781 49.081443786621094 C 54.80522155761719 47.61977767944336 55.27253341674805 45.36872482299805 55.905757904052734 44.0604133605957 C 57.255794525146484 40.98234939575195 61.344993591308594 37.6236686706543 64.12898254394531 37.28545379638672 C 65.34719848632812 37.28860092163086 66.9320297241211 35.90327453613281 67.41989135742188 34.41844177246094 C 68.30482482910156 32.80615997314453 70.55726623535156 31.35669708251953 73.12855529785156 30.49512481689453 C 76.43797302246094 29.47156524658203 77.24882507324219 29.56500244140625 80.66294860839844 29.961715698242188 C 83.07904052734375 30.12371826171875 86.10698699951172 31.450889587402344 87.23094177246094 32.000389099121094 L 89.84899139404297 34.205055236816406 L 93.19728088378906 31.70330810546875 C 98.51622772216797 28.68628692626953 104.87335205078125 29.01337432861328 110.73636627197266 33.10718536376953 C 111.60936737060547 34.092018127441406 112.37191772460938 33.77855682373047 114.5836181640625 31.983917236328125 C 120.77461242675781 28.00000762939453 128.59754943847656 28.706634521484375 133.7784423828125 33.76213073730469 C 134.4366455078125 36.0625114440918 136.32350158691406 37.6402587890625 137.85464477539062 37.298770904541016 C 143.77696228027344 38.636104583740234 148.1763916015625 44.19346237182617 147.96893310546875 50.083927154541016 C 147.74505615234375 52.12564468383789 148.2266845703125 53.25450897216797 150.27284240722656 54.14339065551758 C 154.9547119140625 58.40761184692383 155.6213836669922 65.5516128540039 151.4783935546875 70.53496551513672 C 149.0704345703125 71.86458587646484 148.34486389160156 73.32057189941406 149.27978515625 75.95161437988281 C 148.7509002685547 79.02072143554688 148.5472412109375 79.04253387451172 151.94406127929688 79.45263671875 C 161.91224670410156 82.23432922363281 170.7987060546875 90.06741333007812 173.55462646484375 98.7314682006836 C 175.05734252929688 102.81033325195312 175.7062530517578 104.42628479003906 176.1006622314453 113.25005340576172 C 175.5009002685547 122.49053955078125 174.93292236328125 124.24108123779297 173.21499633789062 129.6134796142578 C 172.58493041992188 133.2526397705078 170.33123779296875 138.32415771484375 168.35032653808594 140.91741943359375 C 164.35601806640625 148.1460723876953 154.7902374267578 157.8247833251953 148.4748077392578 161.46218872070312 C 145.49661254882812 163.1964111328125 142.92147827148438 164.47308349609375 143.15216064453125 164.69590759277344 C 143.6702423095703 165.56497192382812 144.087890625 168.30087280273438 144.99745178222656 170.907470703125 C 147.94900512695312 182.83547973632812 145.00531005859375 190.59609985351562 137.00180053710938 194.43545532226562 C 134.2037353515625 196.0 132.16104125976562 195.77261352539062 102.82554626464844 195.9403533935547 C 72.58621215820312 195.92941284179688 70.84965515136719 195.94346618652344 68.50993347167969 194.39712524414062" stroke-width="1.0" fill="rgb(1, 1, 2)" opacity="0.9948533"/>
    <path d="M 77.49087524414062 172.60015869140625 C 80.35818481445312 157.17715454101562 80.29869079589844 139.2918701171875 77.28343963623047 118.77825927734375 C 75.43829345703125 105.28334045410156 73.70045471191406 84.88960266113281 74.48631286621094 84.64959716796875 C 74.62918853759766 84.15660095214844 76.14921569824219 84.19224548339844 77.61531829833984 84.72604370117188 C 79.41663360595703 85.55982971191406 81.14354705810547 85.44943237304688 82.25267028808594 84.96319580078125 C 83.81083679199219 84.25752258300781 84.97990417480469 84.23268127441406 86.34552001953125 85.06121063232422 C 88.9156723022461 86.41682434082031 92.972900390625 85.37605285644531 96.79597473144531 82.62887573242188 L 99.91110229492188 80.13887023925781 L 102.39132690429688 82.41946411132812 C 107.09385681152344 86.3764877319336 112.85462951660156 87.66239166259766 117.37933349609375 85.54519653320312 C 118.82184600830078 84.75753784179688 119.36500549316406 84.79669189453125 121.08677673339844 86.2608642578125 C 122.53369140625 87.10137176513672 124.68955993652344 87.48584747314453 127.4329605102539 87.54940795898438 L 131.73703002929688 87.23416900634766 L 131.34466552734375 93.1025161743164 C 131.30142211914062 96.36494445800781 130.46617126464844 105.3985366821289 129.44720458984375 113.29818725585938 C 127.37460327148438 129.56532287597656 127.509521484375 148.90673828125 129.17568969726562 161.843017578125 C 129.71038818359375 166.97206115722656 130.17051696777344 172.09494018554688 130.31619262695312 173.3533935546875 L 130.4283905029297 175.4384307861328 L 77.37076568603516 175.44061279296875 L 77.49087524414062 172.60015869140625" stroke-width="1.0" fill="rgb(193, 118, 20)" opacity="0.99386173"/>
    <path d="M 72.83174896240234 190.1185302734375 C 66.24072265625 188.093505859375 63.971336364746094 183.81039428710938 67.338134765625 170.833251953125 C 68.48402404785156 165.5940399169922 69.51150512695312 159.98822021484375 69.27837371826172 157.51669311523438 C 70.02212524414062 151.82192993164062 69.19654846191406 129.21975708007812 66.0572509765625 111.67680358886719 C 64.00120544433594 90.79833221435547 63.62336349487305 83.9177474975586 64.0980224609375 83.54339599609375 C 68.1815185546875 83.15215301513672 70.038330078125 84.51504516601562 69.46221923828125 89.31195831298828 C 69.31788635253906 92.04222106933594 70.31993103027344 102.0739974975586 71.61514282226562 111.82137298583984 C 75.41751098632812 135.38819885253906 75.89936828613281 158.20004272460938 72.62537384033203 171.88954162597656 C 70.4645767211914 179.3709716796875 70.739013671875 180.68157958984375 71.83829498291016 181.72470092773438 L 74.13870239257812 185.16891479492188 L 102.62596130371094 184.9720001220703 L 132.21444702148438 184.8675537109375 L 134.3033905029297 182.6324462890625 C 136.25375366210938 180.11671447753906 135.90838623046875 178.58056640625 134.54014587402344 168.89694213867188 C 131.01602172851562 159.0917510986328 130.8930206298828 124.3057861328125 134.1759490966797 111.69019317626953 C 134.31890869140625 108.51101684570312 135.39169311523438 100.42337799072266 135.4962615966797 94.810791015625 C 135.95111083984375 89.65858459472656 136.05123901367188 84.30899810791016 136.24375915527344 84.1053237915039 C 137.10018920898438 84.10987091064453 138.8070526123047 83.64497375488281 140.02084350585938 82.76710510253906 L 143.27093505859375 83.09967803955078 L 140.27223205566406 121.57719421386719 C 139.91778564453125 156.61817932128906 139.8708953857422 159.9709930419922 139.73089599609375 160.30044555664062 C 138.34239196777344 162.40939331054688 138.0370635986328 162.3649444580078 139.58689880371094 169.2908477783203 C 140.340576171875 173.63011169433594 141.08682250976562 177.97023010253906 141.07945251464844 179.48941040039062 C 141.15711975097656 182.61114501953125 139.20217895507812 186.46878051757812 136.1100616455078 188.52035522460938 C 133.40638732910156 190.61325073242188 133.29136657714844 190.32278442382812 104.61346435546875 190.134765625 C 89.23094177246094 190.4378662109375 74.51445007324219 190.4472198486328 72.83174896240234 190.1185302734375" stroke-width="0.0" fill="rgb(221, 151, 23)" opacity="0.98712844"/>
    <path d="M 137.08518981933594 152.28729248046875 C 136.06527709960938 144.63824462890625 136.76641845703125 128.3903350830078 138.82675170898438 114.19251251220703 C 139.86483764648438 107.62040710449219 140.7303009033203 98.66500091552734 141.00743103027344 94.29169464111328 C 141.355224609375 89.94900512695312 141.85025024414062 86.50042724609375 142.20108032226562 86.47080993652344 C 143.35797119140625 86.34358978271484 151.29165649414062 89.17316436767578 154.46652221679688 90.8756103515625 C 158.77447509765625 92.87381744384766 163.94564819335938 98.66893005371094 165.05465698242188 103.30024719238281 C 169.67291259765625 114.99303436279297 163.93487548828125 134.26995849609375 152.68661499023438 145.74888610839844 C 148.72872924804688 150.62551879882812 139.81295776367188 157.31094360351562 138.1368408203125 157.2618408203125 C 137.94293212890625 157.31187438964844 137.50302124023438 154.98716735839844 137.08518981933594 152.28729248046875" stroke-width="1.0" fill="rgb(7, 7, 7)" opacity="1.0"/>
    <path d="M 75.92338562011719 78.46925354003906 C 74.76737976074219 76.89144897460938 73.61876678466797 76.88430786132812 72.61671447753906 77.48841094970703 C 71.41510009765625 77.81765747070312 69.26774597167969 78.2939453125 67.5267333984375 78.27626037597656 C 63.90557098388672 77.99262237548828 59.95321273803711 75.16615295410156 58.65363693237305 71.98332977294922 C 59.13782501220703 70.95201873779297 58.150943756103516 69.04609680175781 56.171451568603516 68.3176498413086 C 52.75762176513672 65.78073120117188 53.10097122192383 60.735206604003906 55.841224670410156 58.13728332519531 C 57.03395080566406 56.9599609375 58.33839797973633 56.433170318603516 59.27872848510742 56.589351654052734 C 60.35136032104492 56.63768768310547 60.310367584228516 55.93920135498047 59.88395309448242 51.96834182739258 C 60.312217712402344 46.76926803588867 60.42384338378906 46.216190338134766 62.515010833740234 43.50576400756836 C 64.66400146484375 41.5833740234375 66.00398254394531 41.06770706176758 68.21965026855469 41.260677337646484 C 70.49833679199219 41.251556396484375 71.0833740234375 40.85088348388672 71.6768569946289 38.90916442871094 C 73.18058776855469 35.93376541137695 74.6135025024414 34.65119171142578 78.84405517578125 34.6497802734375 C 83.06883239746094 34.777923583984375 86.24174499511719 36.2129020690918 87.93016052246094 38.893489837646484 C 89.33364868164062 41.94485092163086 91.02448272705078 41.90943908691406 93.93650817871094 37.63718032836914 C 96.8654556274414 35.204280853271484 97.85562896728516 34.83180618286133 100.83940887451172 34.63142395019531 C 104.7065200805664 34.69691467285156 108.04906463623047 36.244197845458984 109.67047882080078 39.05051803588867 C 110.91978454589844 41.608802795410156 112.38145446777344 41.501434326171875 114.40353393554688 38.9831657409668 C 116.33924102783203 36.287654876708984 119.47048950195312 34.566184997558594 122.94879913330078 34.58281707763672 C 127.42478942871094 34.90639877319336 129.4328155517578 36.067691802978516 131.10447692871094 39.05557632446289 C 131.35633850097656 40.80002975463867 132.6244354248047 41.480186462402344 134.9793701171875 41.12154006958008 C 139.08473205566406 42.02091598510742 141.84783935546875 44.647003173828125 142.830810546875 47.7995491027832 C 143.9627685546875 50.767234802246094 143.71609497070312 53.50044631958008 142.87860107421875 55.24082565307617 C 142.10372924804688 55.64742660522461 143.12179565429688 56.529781341552734 145.5419921875 57.118770599365234 C 147.1163787841797 58.15826416015625 148.1289825439453 59.39274215698242 148.19273376464844 60.06596374511719 C 149.4566192626953 64.19314575195312 148.93670654296875 65.9299087524414 147.14031982421875 67.50836944580078 C 146.12747192382812 68.04205322265625 144.63943481445312 70.10350036621094 144.25555419921875 71.6924057006836 C 143.55673217773438 73.55979919433594 141.60980224609375 75.45215606689453 140.01617431640625 76.29039001464844 C 137.2655487060547 78.56373596191406 132.26239013671875 78.55943298339844 129.3242645263672 77.27105712890625 C 128.1272735595703 76.18199920654297 127.29013061523438 76.33334350585938 126.18511199951172 77.9287109375 C 124.25006866455078 79.70126342773438 123.65448760986328 81.31361389160156 117.11587524414062 79.68754577636719 L 110.0066909790039 80.70771789550781 L 105.57865905761719 77.52526092529297 C 101.93156433105469 73.22833251953125 98.85796356201172 72.97665405273438 95.975830078125 76.79289245605469 C 92.7725830078125 80.1695556640625 89.5374526977539 80.87037658691406 86.60468292236328 79.52239990234375 C 85.45476531982422 79.30213928222656 84.0351791381836 79.02900695800781 84.17684173583984 79.75859069824219 C 82.60603332519531 81.29497528076172 78.02224731445312 80.82398986816406 75.92338562011719 78.46925354003906" stroke-width="1.0" fill="rgb(225, 229, 229)" opacity="0.9904068"/>
    <path d="M 141.0393524169922 141.46604919433594 C 141.28997802734375 138.07249450683594 141.32711791992188 134.048828125 141.27906799316406 132.79364013671875 C 141.42994689941406 130.5489959716797 142.33819580078125 124.24313354492188 142.39828491210938 122.53443908691406 C 142.5279083251953 121.89079284667969 142.9095001220703 119.43968963623047 143.41351318359375 116.97599029541016 C 143.7881622314453 114.7459716796875 144.37692260742188 111.19544219970703 144.7327117919922 109.44746398925781 C 145.7712860107422 104.61534118652344 146.4443359375 98.95732879638672 146.68385314941406 95.13912200927734 L 146.55740356445312 92.60052490234375 L 149.74998474121094 94.04972839355469 C 160.02638244628906 98.06556701660156 163.83486938476562 106.5428695678711 161.46165466308594 120.19273376464844 C 159.19998168945312 132.01768493652344 153.06178283691406 141.26341247558594 145.33694458007812 147.4630584716797 L 141.2969970703125 150.51304626464844 L 141.0393524169922 141.46604919433594" stroke-width="1.0" fill="rgb(254, 255, 254)" opacity="0.9988134"/>
    <path d="M 138.11228942871094 159.50625610351562 C 137.55648803710938 157.79788208007812 138.33755493164062 156.40460205078125 142.06689453125 154.06954956054688 C 156.2806396484375 146.38890075683594 166.49664306640625 128.13046264648438 166.59524536132812 111.79737854003906 C 166.42425537109375 99.90526580810547 159.99363708496094 91.74262237548828 145.88824462890625 87.73107147216797 C 142.1795196533203 86.38878631591797 141.76052856445312 85.66190338134766 141.57542419433594 83.16898345947266 L 141.8859405517578 81.47776794433594 L 146.67698669433594 82.40977478027344 C 157.44723510742188 85.43955993652344 165.11468505859375 90.99201965332031 168.6403350830078 98.49390411376953 C 170.1267547607422 102.5130386352539 170.76666259765625 104.67015075683594 171.57269287109375 110.83326721191406 C 171.7784881591797 125.05113983154297 167.1756591796875 137.60728454589844 157.44798278808594 148.16883850097656 C 152.79615783691406 153.7843780517578 141.8195343017578 161.216064453125 139.22030639648438 161.2138671875 C 138.8963165283203 161.28306579589844 138.200927734375 160.67031860351562 138.11228942871094 159.50625610351562" stroke-width="1.0" fill="rgb(225, 227, 228)" opacity="0.98713005"/>
  </g>
</svg>
