<?xml version="1.0" encoding="UTF-8"?>
<svg xmlns="http://www.w3.org/2000/svg" version="1.1" viewBox="0 0 224 224">
  <defs>
    <style>
      .cls-1 {
        fill: #d10000;
        opacity: 1;
      }

      .cls-1, .cls-2, .cls-3, .cls-4, .cls-5, .cls-6, .cls-7, .cls-8, .cls-9, .cls-10, .cls-11, .cls-12, .cls-13, .cls-14 {
        isolation: isolate;
      }

      .cls-2 {
        fill: #e8d500;
        opacity: .9;
      }

      .cls-3 {
        fill: #f1cc00;
        opacity: 1;
      }

      .cls-4 {
        fill: #090902;
        opacity: 1;
      }

      .cls-5 {
        fill: #f3e201;
        opacity: 1;
      }

      .cls-6 {
        fill: #040300;
        opacity: 1;
      }

      .cls-7 {
        fill: #b50000;
        opacity: 1;
      }

      .cls-8 {
        fill: #0a0a02;
        opacity: 1;
      }

      .cls-9 {
        fill: #00010b;
        opacity: 1;
      }

      .cls-10 {
        fill: #000209;
        opacity: 1;
      }

      .cls-11 {
        fill: #eed900;
        opacity: 1;
      }

      .cls-12 {
        fill: #de8311;
        opacity: 1;
      }

      .cls-13 {
        fill: #d20000;
        opacity: 1;
      }

      .cls-14 {
        fill: #090402;
        opacity: 1;
      }
    </style>
  </defs>
  <!-- Generator: Adobe Illustrator 28.6.0, SVG Export Plug-In . SVG Version: 1.2.0 Build 709)  -->
  <g>
    <g id="_图层_1" data-name="图层_1">
      <g>
        <path class="cls-6" d="M77.9,194.3c-1.3-.3-2.6-2.4-2.5-4.7.7-1.2-.8-2.8-2.3-3.3-1.2-1.5-2.4-3.8-3.5-5.9-.5-1.4-2.5-3.7-4.5-5.1-1.8-2.1-4.7-5.3-6.1-8-2.6-4-2.8-4.4-2-6,1.7.4,2.6-.7,2-2,.1-2,1.5-2.1,5.3-.4,2.3.9,2.9,1.2,3.3,1,0-1.3,6.8-32.1,8.2-45.9,1.3-6.5,2.2-12.1,6.8-18.8.2-.6-2.5-1.8-5.7-3.4-20.9-11.2-37.7-27.9-43.3-41.5-2-5.4-.5-7.8,5.2-7.3,18,.5,44.3,16,56.8,33.9,3.2,3.5,4.2,6.5,4.5,5.8,1.1-.4,4.4-.9,7.3-1.6,5.7-.7,14.6-.2,19.2,1.6,1.2.7.9-1.1,3.6-6.4,10.8-23.1,36.9-46.2,54-48,4.1-.4,4.4.4,5.6,2,2.5,11.9-23.1,47.4-45.2,62.8-1.9.3-1.6.8,1,4.5,3.5,6.9,4.7,11.6,8.4,34,4.3,26.1,5.1,27.1,5.4,27.9,0-.1,1.9-1.3,3.6-2.6,2.5-1.3,3.9-1.9,4.7-1.3,1,1,.7,2.2-.1,2.5.6.7,1,1,2.6.6,2.4.3,2.1,1.2,2.5,2.1-.4,1.6-8.3,13.6-11.5,15.5-1.7,1.2-2.9,2.3-2.4,2.7-.3.8-1.5,2.9-3.4,4.8-2.1,1.7-2.9,3.8-2.4,4.8,0,1.2-.6,2.6-1.4,3.5-3.8,2.6-9.1,2.9-13.4-1.6-.2-1.8-.8-.5-22.5-2.5l-24.2,2-.7.7c-4,4.3-8.6,5.2-12.7,3.5"/>
        <path class="cls-5" d="M81.5,185.2c-7.7,0-11.5-7.1-11.2-20.3.3-6.7,4.6-23.5,6.1-27.3.7.2,1.5,1.2,2.8,2.1,2.9,1.6,3.5,1.7,6,.6,4.3-1.7,6-8.6,3-13.5-1.1-2.9-5.8-5.3-8.3-4.2-1.9.4-2.2-.5-1.2-3.3,1.1-9.9,2.6-16,5.4-21,1.9-2.5,3.5-4.9,3.7-5.2-.4-.1-3.6-1.7-7.5-3.8-9.1-4.7-18.6-11.8-24.1-16.8l-4.2-4.2,3.8-4.3c1.4-2.1,2.8-5.2,2.9-6.9.3-1.1.7-2.6,1.1-3.2,2.3.3,12.6,6.2,18.1,10.7,10,7.5,18.9,18.2,18.2,20.6-2,2.3.4,3.4,3,1.5,6.5-3.4,21.8-3.3,28.8.1,2.6,2.1,4.3,1.4,2.4-1.7,0-1.8,4.8-11.8,10.6-19.2,4.8-6.8,17.7-20,21.1-21.4,2.1-2,2.5-1.5,3.2,2.2,1.5,2.4,6.1,6.9,8.5,7.9,2.4,1.3-18.6,27.9-31.5,36.7l-3.4,2.6,1.7,2.1c3.1,4.3,5.7,10.4,6.7,17,.7,3.8,1.4,6.6,1.5,7.6-.6,0-2.2,0-3.5.2-7.5,1.1-10.6,11.3-5.1,16.8,1.3,2,6.5,2.1,7.7,0,.8-.4,1.4-1.3,2.5-1.9.8,1.1,3.2,11.3,5.4,22.8,1,4,1.7,9.6,1.6,13.7-.6,4.9-1.4,6.2-3.1,8.5-1.8,2.2-3.1,3.5-4.2,3.6-1.8-.6-4.8-.2-7.3.5-2.3,1.3-5.5.4-11.2,1.2-11.4-1.4-19.9-1.6-34.4,0-6.3.5-12.7,0-15.6-.6"/>
        <path class="cls-2" d="M63.3,169c-2.1-2.4-2.6-3.1-1.1-4.2.7-1.4,1-2.4,1-2.5.5,0,1.2.2,2.1.8,1.5.4,2.1,1.5,2.1,4.2.2,4.9-1,5.4-4.1,1.8"/>
        <path class="cls-11" d="M160.6,167.8c-1.1-3.5-.8-4.5,1.1-6.2,2.6-2.2,4.1-2.5,3.3,0,0,.8.8,1.6,2.4,1,1,.7.8.9-1.4,3.9-.8,1.8-2.5,3.5-3.7,4.3-1.7,2.1-2,1.5-1.7-3"/>
        <path class="cls-13" d="M141.1,135.4c-1.5-1.7-1.9-2.8-1.5-5.4.7-3.6,4-7.7,6.5-7.1,4.2-.3,4.5,9.8.7,13-2.7,1.9-3.3,1.9-5.7-.5"/>
        <path class="cls-1" d="M79.5,137.1c-2.5-2.6-2.6-9.5-.2-11.3,2.8-1.7,3.2-1.8,5.8,1.1,2.7,2.3,3.1,7.1.8,10.1-1.7,2.8-3.9,2.7-6.4,0"/>
        <path class="cls-3" d="M145.5,189.5c-1-3.1-.2-4.9,1.6-2.5.4.5.6,1.9.6,2.8-.8,1.9-1,1.8-2.2-.4"/>
        <path class="cls-8" d="M86.4,171c-4.7-4.4-7.6-10.5-8.4-16.5,0-3.7,0-4.1,1.6-5.8.7,2.7.6,4.9.9,5.2-.2,3.3,4.4,12,7.7,15l3.7,2.8,2.3-2.2,2.7-2.9,3.6,1.7c2.2.5,4.1,1.2,3.9.8,4.8.9,7.5-4,8.4-7.7.4-1.6,1.1-2.5-.5-2.8-.7-.7.4-1.8.9-3.2-1.4-1.9-1.1-3.8-.9-3.3.4,0-2.3.8-5.1,1.1-2.4.5-4.3,2.4-7.2,2.5.7-3.1,3.8-3.6,6.6-4.8,4.8-1.3,5.4-1.6,7.3-.5.8,1.9,1.2,1.7,1.7.3.9-1.4,1.3-1.1,6,.4,2.9.7,5.6,1.7,6.9,3.2-1.5,1.5-3.3.2-6.1-.7-5.1-1.5-4.7-1.8-5.6-.7-.8,1.6-1.1,10.5,0,11.1.3,0,.5.5,1.8,0-.8,3.8,6.4,6.1,10.7,3.3,2.7-1.6,3-1.2,5,1.4,1.2,1.3,2.5,2.5,2.4,2.6,3.2-.8,10.1-11.8,10.5-20l.9-7,1.7,5.6c-.4,7.3-2,13.1-5.9,19-4.9,6-5.7,7.3-11,3.7-2.3-2.5-2.8-2.8-5.6-1.3-4,1.2-8.2-.1-11.3-3.5-2.2-3-2-3.3-2.4-1.4-.4,1.1-1.8,2.7-2.8,4.1-2.2,1.6-2.6,2-8.5,1.6-4.6-1.5-5.1-1.5-6.7.6-3.3,2.9-4.5,2.1-9.3-1.8"/>
        <path class="cls-14" d="M110.9,144.9c-3-3.3-4.9-7.2-4.9-10.7,0-2.5-.5-3.6-2.7-4.2-1.3-1.5-1.3-2.1.4-2.4.9,1.8,3.8,1.2,5.8-.3,4.4-2.3,4.4-2,7.9-.5,2.3,1,4.7,1.8,6.3.5l2.1-.9-1.5,2.7c-2.2.8-3.1,3.1-2.9,4.8.1,4.7-4.5,12.9-7.5,12.3-.6.6-2-.3-2.9-1.3"/>
        <path class="cls-4" d="M111.2,122.7c-2.1-1.5-1.1-2.8,2.7-3.1,3.6-.6,4.7,1.4,1.9,3.1-2.9,2-3,1.7-4.6,0"/>
        <path class="cls-10" d="M88.2,120.5c-4-3.9-1.2-11.4,4.3-11.7,3.7,0,5.4,1.5,3.4,2.7-2.6.1-3,3.4-1,3.4,1.4.7,2.6-.3,2.3-1.9.5-1.4.9-1.4,1.9-.2,1.2,2.7.8,4.9-1.2,7.4-3.1,2.7-6.8,2.9-9.7.3"/>
        <path class="cls-9" d="M130.7,120.9c-2.1-1.2-3.5-4.6-2.7-7.3.5-2.3,1-2.4,1.9-.7.7,2.2,2.2,2.4,3.7.6,1.3-1.1-.2-3.1-2.9-2.4-1.3-.9-.8-1.3.5-2,4.6-3.4,10.5.8,9.7,6.4-1,4.9-6.3,7.9-10.3,5.4"/>
        <path class="cls-12" d="M111.3,142c-3.4-3.8-3.7-9-.3-10,7.9-2,10.7,3.9,5.2,10.7l-2.4,2.5-2.5-3.2"/>
        <path class="cls-7" d="M108.6,132.7c0-.6,1.1-1.7,2.7-2.6,2.8-1.6,6.8-.5,7.4,1.9.4,1,0,1.1-3,.5-1.6-.4-4.1-.4-5.3,0-1.3.6-1.9.7-1.9.1"/>
      </g>
      <path class="cls-3" d="M83.9,190c-1.8,3.3-3.9,4.1-3.3.7,0-.7,1.1-2.1,1.8-2.8,2.2-.9,2.3-.7,1.5,2.1"/>
    </g>
  </g>
</svg>