<?xml version="1.0" ?>
<svg xmlns="http://www.w3.org/2000/svg" version="1.1" width="224" height="224">
  <defs/>
  <g>
    <path d="M 28.53339385986328 112.00039672851562 C 28.53339385986328 112.00039672851562 28.53339385986328 112.00039672851562 28.53339385986328 112.00039672851562 C 28.65899658203125 133.4174346923828 32.586753845214844 156.24945068359375 47.50046157836914 172.61868286132812 C 64.66064453125 191.45298767089844 91.5022964477539 196.0 115.83833312988281 195.42129516601562 C 125.59849548339844 195.1891632080078 135.4008026123047 194.0611572265625 144.81198120117188 191.39337158203125 C 156.36074829101562 188.11984252929688 167.22268676757812 182.36056518554688 175.5639190673828 173.62188720703125 C 191.14932250976562 157.29400634765625 195.4658203125 133.81729125976562 195.4658203125 112.00039672851562 C 195.46661376953125 90.18270874023438 191.15090942382812 66.706787109375 175.564697265625 50.378108978271484 C 167.22349548339844 41.63941955566406 156.36154174804688 35.880943298339844 144.81198120117188 32.60662078857422 C 135.40158081054688 29.938827514648438 125.59849548339844 28.810821533203125 115.83833312988281 28.578697204589844 C 91.50150299072266 27.99999237060547 64.66064453125 32.54779815673828 47.50046157836914 51.382896423339844 C 32.587547302246094 67.75132751464844 28.65899658203125 90.58414459228516 28.53339385986328 112.00039672851562 C 28.53339385986328 112.00039672851562 28.53339385986328 112.00039672851562 28.53339385986328 112.00039672851562" stroke-width="0.0" fill="rgb(251, 222, 222)" opacity="1.0"/>
    <path d="M 39.663230895996094 112.00039672851562 C 39.663230895996094 112.00039672851562 39.663230895996094 112.00039672851562 39.663230895996094 112.00039672851562 C 39.77928924560547 93.31950378417969 42.71894836425781 73.01219177246094 55.86711120605469 58.721710205078125 C 70.91596221923828 42.365196228027344 94.81477355957031 39.177520751953125 115.90431213378906 39.71250915527344 C 124.03407287597656 39.91839599609375 132.19642639160156 40.77613067626953 140.0821533203125 42.81751251220703 C 150.21356201171875 45.43998718261719 159.8536834716797 50.18096160888672 167.20997619628906 57.743934631347656 C 181.05133056640625 71.97480010986328 184.33995056152344 92.93316650390625 184.34075927734375 112.00357055664062 C 184.34075927734375 131.073974609375 181.05133056640625 152.03076171875 167.2107696533203 166.2608184814453 C 159.85447692871094 173.82460021972656 150.21434020996094 178.5663604736328 140.083740234375 181.1888427734375 C 132.19723510742188 183.230224609375 124.03486633300781 184.08795166015625 115.90510559082031 184.29383850097656 C 94.81477355957031 184.82882690429688 70.9151611328125 181.63796997070312 55.86711120605469 165.28146362304688 C 42.71894836425781 150.9901885986328 39.77928924560547 130.68206787109375 39.663230895996094 112.00039672851562 C 39.663230895996094 112.00039672851562 39.663230895996094 112.00039672851562 39.663230895996094 112.00039672851562" stroke-width="0.0" fill="rgb(254, 254, 254)" opacity="1.0"/>
    <path d="M 67.52796173095703 125.14775848388672 C 67.52796173095703 125.14775848388672 67.52796173095703 125.14775848388672 67.52796173095703 125.14775848388672 C 74.70698547363281 119.74063873291016 82.96076202392578 115.47742462158203 92.17878723144531 115.76598358154297 C 101.5398941040039 116.05931854248047 109.97968292236328 120.91634368896484 116.99574279785156 126.79088592529297 C 125.57941436767578 133.9778594970703 133.9659423828125 143.19827270507812 137.47239685058594 154.0514678955078 C 138.4294891357422 157.01417541503906 138.63458251953125 160.06036376953125 138.9525604248047 163.14230346679688 C 138.9525604248047 163.14230346679688 138.9525604248047 163.14230346679688 138.9525604248047 163.14230346679688 C 130.347412109375 166.44525146484375 121.18663024902344 167.65513610839844 112.00039672851562 167.6455841064453 C 97.22501373291016 167.6304931640625 81.3979263305664 164.57318115234375 70.51611328125 153.81935119628906 C 64.4635009765625 147.83749389648438 60.8171501159668 140.1950225830078 58.63029479980469 132.05889892578125 C 58.63029479980469 132.05889892578125 58.63029479980469 132.05889892578125 58.63029479980469 132.05889892578125 C 61.587440490722656 129.74485778808594 64.55809783935547 127.44590759277344 67.52796173095703 125.14775848388672 C 67.52796173095703 125.14775848388672 67.52796173095703 125.14775848388672 67.52796173095703 125.14775848388672" stroke-width="0.0" fill="rgb(250, 100, 0)" opacity="1.0"/>
    <path d="M 56.355201721191406 112.00039672851562 C 56.355201721191406 112.00039672851562 56.355201721191406 112.00039672851562 56.355201721191406 112.00039672851562 C 56.445823669433594 101.93815612792969 57.667633056640625 91.72089385986328 61.949928283691406 82.503662109375 C 63.54933166503906 79.06161499023438 65.56607055664062 75.81193542480469 68.00810241699219 72.9040756225586 C 80.01235961914062 58.61359786987305 100.00965881347656 55.514156341552734 117.6722412109375 56.51100158691406 C 130.01991271972656 57.208152770996094 142.75550842285156 60.46022033691406 152.14523315429688 68.91828918457031 C 164.6717529296875 80.20234680175781 167.92620849609375 97.81881713867188 167.6273193359375 113.95513153076172 C 167.5382843017578 118.77877044677734 167.11538696289062 123.60718536376953 166.19802856445312 128.3473663330078 C 163.9881134033203 139.76974487304688 158.69546508789062 150.06967163085938 149.44882202148438 157.31307983398438 C 149.44882202148438 157.31307983398438 149.44882202148438 157.31307983398438 149.44882202148438 157.31307983398438 C 146.16575622558594 140.91522216796875 135.23226928710938 126.95543670654297 122.30191802978516 116.79383087158203 C 113.53779602050781 109.90653991699219 103.05345153808594 104.77128601074219 91.72169494628906 104.62422180175781 C 78.66812896728516 104.45410919189453 65.89119720458984 110.95823669433594 56.67158126831055 119.90837097167969 C 56.67158126831055 119.90837097167969 56.67158126831055 119.90837097167969 56.67158126831055 119.90837097167969 C 56.478416442871094 117.27237701416016 56.37348556518555 114.64353942871094 56.355201721191406 112.00039672851562 C 56.355201721191406 112.00039672851562 56.355201721191406 112.00039672851562 56.355201721191406 112.00039672851562" stroke-width="0.0" fill="rgb(250, 100, 0)" opacity="1.0"/>
    <path d="M 134.50172424316406 81.39474487304688 C 134.5025177001953 81.39474487304688 134.50411987304688 81.39474487304688 134.50491333007812 81.39474487304688 C 131.5032501220703 81.66421508789062 128.87997436523438 82.82084655761719 127.29646301269531 85.5291748046875 C 124.09925842285156 90.99830627441406 128.1780548095703 98.08988952636719 134.50491333007812 98.08988952636719 C 140.83177185058594 98.08988952636719 144.90579223632812 90.99671936035156 141.71095275878906 85.5291748046875 C 140.1282501220703 82.82084655761719 137.50576782226562 81.66421508789062 134.50491333007812 81.39474487304688 C 134.50491333007812 81.39474487304688 134.50491333007812 81.39474487304688 134.50491333007812 81.39474487304688 C 134.50491333007812 81.39474487304688 134.50172424316406 81.39474487304688 134.50172424316406 81.39474487304688" stroke-width="0.0" fill="rgb(255, 254, 254)" opacity="1.0"/>
  </g>
</svg>
