<?xml version="1.0" encoding="UTF-8"?>
<svg xmlns="http://www.w3.org/2000/svg" version="1.1" viewBox="0 0 224 224">
  <defs>
    <style>
      .cls-1 {
        fill: #f85c00;
        opacity: 1;
      }

      .cls-1, .cls-2, .cls-3, .cls-4 {
        isolation: isolate;
      }

      .cls-2 {
        fill: #fcfdfc;
        opacity: 1;
      }

      .cls-3 {
        fill: #fbfefe;
        opacity: 1;
      }

      .cls-4 {
        fill: #f85b00;
        opacity: 1;
      }

      .cls-5 {
        fill: #fbdede;
      }
    </style>
  </defs>
  <!-- Generator: Adobe Illustrator 28.6.0, SVG Export Plug-In . SVG Version: 1.2.0 Build 709)  -->
  <g>
    <g id="_图层_1" data-name="图层_1">
      <g>
        <path class="cls-5" d="M90.7,194c-33.6-5-53.6-24.7-60.1-59.3-2.6-13.7-1.7-40.5,1.8-53.8,5.3-19.9,16.4-34.4,32.7-42.5,13.4-6.5,22.3-8.3,44.1-8.9,16.2-.4,19.8,0,28.8,1.6,28.6,5.8,46.8,22.7,54.1,50.4,3.1,11.7,3.9,40.1,1.5,52.7-4.9,25.8-15.9,42.2-34.9,51.8-13.6,6.8-21,8.2-42.9,8.5-10.5.3-21.7,0-25.1-.6"/>
        <path class="cls-4" d="M88.3,181.7c-24.7-5.2-39.3-19.3-45.7-44.4-3.1-11.9-3.1-39.3.2-50.7,6.3-24.3,19.1-37.7,42.5-43.7,11.2-3.1,39.5-3.5,51.6-.6,24.1,5.3,38.3,19.2,44.7,43.6,1.9,6.2,2.2,10.2,2.7,25.7-.6,16.1-1.1,19.9-2.6,26.6-5.9,22.9-19,36-41.6,42.4-10.6,3.8-39,4.3-51.8,1.1"/>
        <path class="cls-3" d="M98.1,157.4c-10.4-1.8-20.6-8.4-26.7-17.5-9.2-13.3-10.4-38-2.8-53.9,5.3-11.6,16.6-19.9,30.7-22.4,9.1-1.9,26.5-1,33.4,1.9,17,6.2,26.7,20.6,27.8,41.6,1.1,27.8-11.6,46.1-35.1,50.6-6.6,1.2-21.1,1-27.3-.3"/>
        <path class="cls-1" d="M102,145.4c-11.4-2.8-18.2-8.3-23.1-18.6-2.4-5.2-2.9-7.3-2.7-15.6,0-11.5,2.2-18.6,7.9-25.6,10.9-12.4,36.8-14.5,51.6-4.1,11.3,7.8,16,28.2,10.2,44.4-2.3,7.3-11.1,15.9-18.6,18.1-7.4,2.6-18.4,3.1-25.3,1.4"/>
        <path class="cls-2" d="M108.4,117.6c-3.1-1.9-3.9-6.1-1.5-9.1,1.5-2.1,1.8-5.4,1.4-16.8.3-12.8.8-14,3.2-14.5,2.9-.6,3.8,2,3.6,15.8,0,16.6-.6,16.2,15.3,16l11.8.3.3,5.6-12.6.7c-8.7-.3-12.9-.1-14.1,1.1-2.2,1.9-4.6,2.1-7.4.8"/>
      </g>
    </g>
  </g>
</svg>