<?xml version="1.0" ?>
<svg xmlns="http://www.w3.org/2000/svg" version="1.1" width="224" height="224">
  <defs/>
  <g>
    <path d="M 36.40071487426758 53.199886322021484 C 86.80048370361328 53.199886322021484 137.1995086669922 53.199886322021484 187.59927368164062 53.199886322021484 C 192.4847412109375 53.637882232666016 195.56199645996094 56.71586608886719 196.0 61.601348876953125 C 196.0 95.20044708251953 196.0 128.79954528808594 196.0 162.39865112304688 C 195.56199645996094 167.28411865234375 192.4840087890625 170.3621063232422 187.59927368164062 170.80010986328125 C 137.1995086669922 170.80010986328125 86.80048370361328 170.80010986328125 36.40071487426758 170.80010986328125 C 31.515228271484375 170.3621063232422 28.43799591064453 167.28488159179688 28.0 162.39865112304688 C 28.0 128.79954528808594 28.0 95.20044708251953 28.0 61.601348876953125 C 28.43799591064453 56.71512222290039 31.514480590820312 53.637882232666016 36.40071487426758 53.199886322021484 C 36.40071487426758 53.199886322021484 36.40071487426758 53.199886322021484 36.40071487426758 53.199886322021484" stroke-width="0.0" fill="rgb(0, 0, 0)" opacity="1.0"/>
    <path d="M 36.40071487426758 58.798614501953125 C 36.40071487426758 58.798614501953125 36.40071487426758 58.798614501953125 36.40071487426758 58.798614501953125 C 34.525726318359375 59.30636215209961 34.106468200683594 59.72636032104492 33.598724365234375 61.601348876953125 C 33.598724365234375 95.20044708251953 33.598724365234375 128.79954528808594 33.598724365234375 162.39865112304688 C 34.106468200683594 164.27288818359375 34.5272216796875 164.69137573242188 36.40071487426758 165.19837951660156 C 45.994667053222656 165.19837951660156 55.588623046875 165.19837951660156 65.18258666992188 165.19837951660156 C 66.41557312011719 161.51214599609375 67.64781951904297 157.82666015625 68.88081359863281 154.14117431640625 C 70.4393081665039 150.58094787597656 72.96379852294922 148.7569580078125 76.83377838134766 148.39920043945312 C 100.27717590332031 148.39920043945312 123.72056579589844 148.39920043945312 147.16395568847656 148.39920043945312 C 151.03395080566406 148.7569580078125 153.5606689453125 150.5802001953125 155.11917114257812 154.14117431640625 C 156.35142517089844 157.82666015625 157.58291625976562 161.51214599609375 158.81515502929688 165.19837951660156 C 168.4098663330078 165.19837951660156 178.00457763671875 165.19837951660156 187.59927368164062 165.19837951660156 C 189.4727783203125 164.69137573242188 189.8920135498047 164.27288818359375 190.39901733398438 162.39865112304688 C 190.39901733398438 128.79954528808594 190.39901733398438 95.20044708251953 190.39901733398438 61.601348876953125 C 189.8920135498047 59.72636032104492 189.4735107421875 59.30636215209961 187.59927368164062 58.798614501953125 C 137.1995086669922 58.798614501953125 86.80048370361328 58.798614501953125 36.40071487426758 58.798614501953125" stroke-width="0.0" fill="rgb(254, 254, 254)" opacity="1.0"/>
    <path d="M 76.83377838134766 154.0009307861328 C 76.83377838134766 154.0009307861328 76.83377838134766 154.0009307861328 76.83377838134766 154.0009307861328 C 75.37728118896484 154.3084259033203 74.93103790283203 154.63168334960938 74.17803955078125 155.91641235351562 C 73.14679718017578 159.01016235351562 72.11479949951172 162.10389709472656 71.08280944824219 165.19837951660156 C 98.36018371582031 165.19837951660156 125.63755798339844 165.19837951660156 152.91493225097656 165.19837951660156 C 151.88369750976562 162.10389709472656 150.85317993164062 159.01016235351562 149.82269287109375 155.91641235351562 C 149.06820678710938 154.63168334960938 148.62120056152344 154.3084259033203 147.16395568847656 154.0009307861328 C 123.72056579589844 154.0009307861328 100.27717590332031 154.0009307861328 76.83377838134766 154.0009307861328" stroke-width="0.0" fill="rgb(254, 254, 254)" opacity="1.0"/>
    <path d="M 55.9996223449707 81.20025634765625 C 55.9996223449707 81.20025634765625 55.9996223449707 81.20025634765625 55.9996223449707 81.20025634765625 C 52.6396369934082 81.65100860595703 50.85239791870117 83.43899536132812 50.40089416503906 86.79898834228516 C 50.40089416503906 103.59890747070312 50.40089416503906 120.39883422851562 50.40089416503906 137.19876098632812 C 50.85239791870117 140.55873107910156 52.6396369934082 142.34898376464844 55.9996223449707 142.80047607421875 C 93.33370208740234 142.80047607421875 130.6670379638672 142.80047607421875 168.00112915039062 142.80047607421875 C 171.36109924316406 142.34898376464844 173.14759826660156 140.55873107910156 173.59909057617188 137.19876098632812 C 173.59909057617188 120.39883422851562 173.59909057617188 103.59890747070312 173.59909057617188 86.79898834228516 C 173.14759826660156 83.43899536132812 171.36109924316406 81.65100860595703 168.00112915039062 81.20025634765625 C 130.6670379638672 81.20025634765625 93.33370208740234 81.20025634765625 55.9996223449707 81.20025634765625" stroke-width="0.0" fill="rgb(0, 0, 0)" opacity="1.0"/>
    <path d="M 42.000186920166016 78.39976501464844 C 42.000186920166016 78.39976501464844 42.000186920166016 78.39976501464844 42.000186920166016 78.39976501464844 C 43.873680114746094 78.90676879882812 44.29217529296875 79.32676696777344 44.79917526245117 81.20025634765625 C 44.79917526245117 83.06625366210938 44.79917526245117 84.93224334716797 44.79917526245117 86.79898834228516 C 44.67167663574219 87.27073669433594 44.659671783447266 87.78973388671875 44.41667556762695 88.2134780883789 C 43.37417984008789 90.03296661376953 40.624691009521484 90.03296661376953 39.58219909667969 88.2134780883789 C 39.339202880859375 87.78973388671875 39.32719802856445 87.27073669433594 39.20044708251953 86.79898834228516 C 39.20044708251953 84.93224334716797 39.20044708251953 83.06625366210938 39.20044708251953 81.20025634765625 C 39.70669937133789 79.32601928710938 40.125946044921875 78.90676879882812 42.000186920166016 78.39976501464844 C 42.000186920166016 78.39976501464844 42.000186920166016 78.39976501464844 42.000186920166016 78.39976501464844" stroke-width="0.0" fill="rgb(0, 0, 0)" opacity="1.0"/>
    <path d="M 42.000186920166016 97.99868774414062 C 42.000186920166016 97.99868774414062 42.000186920166016 97.99868774414062 42.000186920166016 97.99868774414062 C 43.872928619384766 98.50568389892578 44.29217529296875 98.9249267578125 44.79917526245117 100.79767608642578 C 44.79917526245117 118.53208923339844 44.79917526245117 136.26651000976562 44.79917526245117 154.0009307861328 C 44.67167663574219 154.471923828125 44.659671783447266 154.99017333984375 44.41667556762695 155.41392517089844 C 43.37417984008789 157.23191833496094 40.62544250488281 157.23117065429688 39.58219909667969 155.41392517089844 C 39.339202880859375 154.99017333984375 39.32719802856445 154.471923828125 39.20044708251953 154.0009307861328 C 39.20044708251953 136.26651000976562 39.20044708251953 118.53208923339844 39.20044708251953 100.79767608642578 C 39.70669937133789 98.92417907714844 40.12669372558594 98.50568389892578 42.000186920166016 97.99868774414062 C 42.000186920166016 97.99868774414062 42.000186920166016 97.99868774414062 42.000186920166016 97.99868774414062" stroke-width="0.0" fill="rgb(0, 0, 0)" opacity="1.0"/>
    <path d="M 55.9996223449707 86.79898834228516 C 93.33370208740234 86.79898834228516 130.6670379638672 86.79898834228516 168.00112915039062 86.79898834228516 C 168.00112915039062 103.59890747070312 168.00112915039062 120.39883422851562 168.00112915039062 137.19876098632812 C 130.6670379638672 137.19876098632812 93.33370208740234 137.19876098632812 55.9996223449707 137.19876098632812 C 55.9996223449707 120.39883422851562 55.9996223449707 103.59890747070312 55.9996223449707 86.79898834228516" stroke-width="0.0" fill="rgb(254, 254, 254)" opacity="1.0"/>
    <path d="M 67.2000732421875 95.19969177246094 C 67.2000732421875 95.19969177246094 67.2000732421875 95.19969177246094 67.2000732421875 95.19969177246094 C 63.840087890625 95.65119934082031 62.0528450012207 97.43843841552734 61.60134506225586 100.79767608642578 C 61.60134506225586 108.26463317871094 61.60134506225586 115.73235321044922 61.60134506225586 123.1993179321289 C 62.05209732055664 126.5593032836914 63.83933639526367 128.34878540039062 67.2000732421875 128.80104064941406 C 97.06643676757812 128.80104064941406 126.93355560302734 128.80104064941406 156.79991149902344 128.80104064941406 C 160.16064453125 128.34878540039062 161.94790649414062 126.5593032836914 162.39865112304688 123.1993179321289 C 162.39865112304688 115.73235321044922 162.39865112304688 108.26463317871094 162.39865112304688 100.79767608642578 C 161.9471435546875 97.43843841552734 160.159912109375 95.65119934082031 156.79991149902344 95.19969177246094 C 126.93355560302734 95.19969177246094 97.06643676757812 95.19969177246094 67.2000732421875 95.19969177246094" stroke-width="0.0" fill="rgb(0, 0, 0)" opacity="1.0"/>
    <path d="M 89.6009750366211 100.79767608642578 C 89.6009750366211 100.79767608642578 89.6009750366211 100.79767608642578 89.6009750366211 100.79767608642578 C 93.61045837402344 101.06767272949219 97.17743682861328 102.7701644897461 99.26918029785156 106.34614562988281 C 103.55841064453125 113.68110656738281 98.0871810913086 123.1993179321289 89.6009750366211 123.1993179321289 C 81.114013671875 123.1993179321289 75.63753509521484 113.68336486816406 79.92901611328125 106.34614562988281 C 82.0215072631836 102.7694091796875 85.59074401855469 101.06767272949219 89.6009750366211 100.79767608642578 C 89.6009750366211 100.79767608642578 89.6009750366211 100.79767608642578 89.6009750366211 100.79767608642578" stroke-width="0.0" fill="rgb(254, 254, 254)" opacity="1.0"/>
    <path d="M 102.08091735839844 100.79767608642578 C 108.69063568115234 100.79767608642578 115.30035400390625 100.79767608642578 121.91007232666016 100.79767608642578 C 116.32109832763672 107.56339263916016 116.32035064697266 116.43360137939453 121.91007232666016 123.1993179321289 C 115.30035400390625 123.1993179321289 108.69063568115234 123.1993179321289 102.08091735839844 123.1993179321289 C 107.6773910522461 116.43510437011719 107.67514038085938 107.56263732910156 102.08091735839844 100.79767608642578 C 102.08091735839844 100.79767608642578 102.08091735839844 100.79767608642578 102.08091735839844 100.79767608642578" stroke-width="0.0" fill="rgb(254, 254, 254)" opacity="1.0"/>
    <path d="M 134.3997802734375 100.79767608642578 C 134.3997802734375 100.79767608642578 134.3997802734375 100.79767608642578 134.3997802734375 100.79767608642578 C 138.41000366210938 101.06767272949219 141.97772216796875 102.7701644897461 144.07022094726562 106.34614562988281 C 148.36245727539062 113.6818618774414 142.885986328125 123.1993179321289 134.3997802734375 123.1993179321289 C 125.91355895996094 123.1993179321289 120.43633270263672 113.6818618774414 124.72856140136719 106.34614562988281 C 126.821044921875 102.7701644897461 130.38954162597656 101.06767272949219 134.3997802734375 100.79767608642578 C 134.3997802734375 100.79767608642578 134.3997802734375 100.79767608642578 134.3997802734375 100.79767608642578" stroke-width="0.0" fill="rgb(254, 254, 254)" opacity="1.0"/>
    <path d="M 146.88571166992188 100.79767608642578 C 150.19020080566406 100.79767608642578 153.4954376220703 100.79767608642578 156.79991149902344 100.79767608642578 C 156.79991149902344 108.26463317871094 156.79991149902344 115.73235321044922 156.79991149902344 123.1993179321289 C 153.4954376220703 123.1993179321289 150.19020080566406 123.1993179321289 146.88571166992188 123.1993179321289 C 152.47918701171875 116.43510437011719 152.4769287109375 107.56263732910156 146.88571166992188 100.79767608642578 C 146.88571166992188 100.79767608642578 146.88571166992188 100.79767608642578 146.88571166992188 100.79767608642578" stroke-width="0.0" fill="rgb(254, 254, 254)" opacity="1.0"/>
    <path d="M 67.2000732421875 100.79767608642578 C 70.5038070678711 100.79767608642578 73.80828857421875 100.79767608642578 77.11203002929688 100.79767608642578 C 71.52305603027344 107.56339263916016 71.52230072021484 116.43360137939453 77.11203002929688 123.1993179321289 C 73.80828857421875 123.1993179321289 70.5038070678711 123.1993179321289 67.2000732421875 123.1993179321289 C 67.2000732421875 115.73235321044922 67.2000732421875 108.26463317871094 67.2000732421875 100.79767608642578" stroke-width="0.0" fill="rgb(254, 254, 254)" opacity="1.0"/>
    <path d="M 89.6009750366211 106.400146484375 C 89.6009750366211 106.400146484375 89.6009750366211 106.400146484375 89.6009750366211 106.400146484375 C 90.07196807861328 106.52764892578125 90.59021759033203 106.53964233398438 91.01396179199219 106.78189086914062 C 92.83195495605469 107.82513427734375 92.83120727539062 110.5738754272461 91.01396179199219 111.61637115478516 C 90.59021759033203 111.859375 90.07196807861328 111.87137603759766 89.6009750366211 111.99887084960938 C 89.6009750366211 111.99887084960938 89.6009750366211 111.99887084960938 89.6009750366211 111.99887084960938 C 89.47346496582031 112.46986389160156 89.46147155761719 112.9888687133789 89.21847534179688 113.41261291503906 C 88.17447662353516 115.23285675048828 85.42498779296875 115.23285675048828 84.38099670410156 113.41261291503906 C 82.3185043334961 109.81413269042969 86.65573120117188 106.79539489746094 89.6009750366211 106.400146484375 C 89.6009750366211 106.400146484375 89.6009750366211 106.400146484375 89.6009750366211 106.400146484375" stroke-width="0.0" fill="rgb(1, 1, 1)" opacity="1.0"/>
    <path d="M 134.3997802734375 106.400146484375 C 134.3997802734375 106.400146484375 134.3997802734375 106.400146484375 134.3997802734375 106.400146484375 C 134.87075805664062 106.52764892578125 135.38900756835938 106.53964233398438 135.81277465820312 106.78189086914062 C 137.63075256347656 107.82513427734375 137.63075256347656 110.5738754272461 135.81277465820312 111.61637115478516 C 135.38900756835938 111.859375 134.87075805664062 111.87137603759766 134.3997802734375 111.99887084960938 C 134.3997802734375 111.99887084960938 134.3997802734375 111.99887084960938 134.3997802734375 111.99887084960938 C 134.27227783203125 112.46986389160156 134.26026916503906 112.9888687133789 134.01727294921875 113.41261291503906 C 132.97402954101562 115.23285675048828 130.22677612304688 115.23285675048828 129.1827850341797 113.41261291503906 C 127.12179565429688 109.81562805175781 131.45452880859375 106.79539489746094 134.3997802734375 106.400146484375 C 134.3997802734375 106.400146484375 134.3997802734375 106.400146484375 134.3997802734375 106.400146484375" stroke-width="0.0" fill="rgb(1, 1, 1)" opacity="1.0"/>
  </g>
</svg>
