<?xml version="1.0" ?>
<svg xmlns="http://www.w3.org/2000/svg" version="1.1" width="224" height="224">
  <defs/>
  <g>
    <path d="M 94.1590347290039 186.4053955078125 C 87.96874237060547 187.29095458984375 63.399208068847656 165.9559326171875 58.26634216308594 156.1783447265625 C 45.20314025878906 143.49163818359375 45.27207946777344 139.88221740722656 40.79801940917969 129.95635986328125 C 38.3265380859375 121.84207916259766 38.184715270996094 115.78348541259766 37.40325927734375 107.31159210205078 C 40.02997589111328 93.11824798583984 39.1728515625 73.15480041503906 41.72582244873047 68.94509887695312 C 43.48442077636719 62.20835876464844 63.22904586791992 42.438331604003906 71.43144226074219 38.710968017578125 C 81.45643615722656 33.01994323730469 91.26875305175781 29.722930908203125 106.241455078125 28.38367462158203 C 130.27098083496094 28.0 148.6164093017578 34.82837677001953 167.17662048339844 53.29559326171875 C 180.09523010253906 66.94598388671875 182.445068359375 68.9854736328125 181.29443359375 88.67398071289062 C 186.59674072265625 112.91002655029297 182.01480102539062 123.98027801513672 175.0972900390625 141.10366821289062 C 170.68992614746094 149.33206176757812 158.56427001953125 164.7442626953125 153.63116455078125 170.39418029785156 C 149.10089111328125 169.58103942871094 145.64315795898438 173.60716247558594 143.61166381835938 175.16738891601562 C 134.7052764892578 182.61611938476562 130.90850830078125 185.93023681640625 127.99710845947266 186.0411376953125 C 124.22586059570312 188.82754516601562 101.62592315673828 189.5267333984375 94.1590347290039 186.4053955078125" stroke-width="0.0" fill="rgb(3, 3, 3)" opacity="0.99014866"/>
    <path d="M 67.49011993408203 182.72933959960938 C 57.569610595703125 177.334228515625 43.057106018066406 164.1493682861328 41.79991149902344 159.72744750976562 C 41.57781982421875 158.44546508789062 42.04767608642578 155.9405517578125 43.17460632324219 155.70860290527344 C 44.13505554199219 154.45045471191406 47.33959197998047 156.91302490234375 53.17644119262695 162.7671356201172 C 57.88124084472656 167.9277801513672 65.51353454589844 174.37908935546875 70.5706787109375 176.47604370117188 C 76.49017333984375 179.771728515625 79.43753051757812 182.05288696289062 79.45848846435547 184.05712890625 C 78.72889709472656 187.92242431640625 76.9937744140625 187.564697265625 67.49011993408203 182.72933959960938" stroke-width="1.0" fill="rgb(1, 0, 2)" opacity="0.9927253"/>
    <path d="M 141.6695098876953 183.02151489257812 C 141.04161071777344 181.31069946289062 143.58779907226562 179.86338806152344 149.91436767578125 176.78514099121094 C 158.1897735595703 172.92178344726562 170.32652282714844 162.8209228515625 172.2630157470703 157.01199340820312 C 174.8392791748047 154.11163330078125 179.46177673339844 155.26388549804688 178.80821228027344 159.10122680664062 C 179.32525634765625 162.7249755859375 163.1552276611328 177.68319702148438 153.30728149414062 182.823486328125 C 143.60263061523438 187.06985473632812 141.9207305908203 186.89776611328125 141.6695098876953 183.02151489257812" stroke-width="1.0" fill="rgb(2, 1, 1)" opacity="0.9935858"/>
    <path d="M 90.00231170654297 193.2694091796875 C 80.93377685546875 190.8890838623047 78.84274291992188 189.12876892089844 78.98297119140625 184.28842163085938 C 79.2022933959961 181.1019744873047 78.93154907226562 179.2291259765625 78.90642547607422 178.3047332763672 C 67.65121459960938 176.9340362548828 46.90365982055664 159.7193603515625 47.7681999206543 153.0400390625 C 47.96640396118164 146.8312225341797 53.119903564453125 148.42384338378906 61.91220474243164 161.81724548339844 C 63.59782791137695 164.220703125 69.53684997558594 168.21975708007812 75.28654479980469 170.69369506835938 C 83.32498168945312 174.25965881347656 86.4185791015625 176.5196533203125 87.60343933105469 180.8731689453125 C 89.54737091064453 186.68580627441406 95.30360412597656 187.6011962890625 110.53369140625 188.20701599121094 C 126.66671752929688 187.48236083984375 132.73216247558594 186.8793487548828 133.38037109375 179.93838500976562 C 134.8347625732422 175.70166015625 137.97445678710938 173.658935546875 145.51385498046875 171.30120849609375 C 151.08383178710938 169.05325317382812 156.6841583251953 165.40597534179688 158.29957580566406 162.9429168701172 C 165.70281982421875 151.11163330078125 170.27001953125 148.31381225585938 172.43313598632812 151.24972534179688 C 174.70106506347656 154.29788208007812 173.41815185546875 155.41827392578125 166.24009704589844 163.6505126953125 C 161.8203125 169.01358032226562 156.15182495117188 173.3512420654297 150.42965698242188 176.03892517089844 C 142.38592529296875 178.99217224121094 141.70303344726562 180.53614807128906 142.49417114257812 183.65451049804688 C 142.5877685546875 189.6418914794922 139.137939453125 191.5726318359375 129.24560546875 193.58514404296875 C 120.11964416503906 196.0 98.27992248535156 195.9249267578125 90.00231170654297 193.2694091796875" stroke-width="1.0" fill="rgb(254, 255, 255)" opacity="0.97656816"/>
    <path d="M 100.06195068359375 180.11505126953125 C 96.39813232421875 180.7667694091797 94.483642578125 178.93736267089844 93.35224914550781 174.50596618652344 C 91.57496643066406 171.20675659179688 87.25682067871094 168.1267852783203 79.86970520019531 165.02932739257812 C 73.8110580444336 162.2281951904297 68.28573608398438 158.876708984375 67.74969482421875 156.80230712890625 C 67.63162231445312 154.91799926757812 63.98348617553711 151.06263732910156 60.15789031982422 147.88685607910156 C 48.61126708984375 135.02117919921875 42.990325927734375 117.93379974365234 44.8050537109375 101.56565856933594 C 45.339508056640625 96.79913330078125 48.09365463256836 88.71372985839844 46.41502380371094 82.51016235351562 C 46.265113830566406 73.65370178222656 47.355323791503906 71.43673706054688 50.07337951660156 66.70736694335938 C 51.98634338378906 63.61381149291992 55.15495300292969 60.24363708496094 57.2692985534668 59.18335723876953 C 59.487213134765625 58.557159423828125 62.2656364440918 55.80487060546875 63.887550354003906 53.304405212402344 C 67.67970275878906 48.32048797607422 78.09779357910156 42.13703918457031 89.08728790283203 38.93170166015625 C 99.72515106201172 35.040809631347656 120.74031829833984 34.92253112792969 130.48529052734375 38.653282165527344 C 140.33416748046875 41.23033142089844 153.5751953125 48.66474151611328 156.96331787109375 53.19898986816406 C 157.89663696289062 55.91231918334961 160.82785034179688 59.10614013671875 163.24008178710938 60.00667953491211 C 170.2736358642578 64.17157745361328 174.59780883789062 71.1302719116211 174.48257446289062 81.13736724853516 C 172.970458984375 86.63854217529297 173.89114379882812 93.66374206542969 175.58392333984375 98.76939392089844 C 178.44073486328125 115.13275909423828 172.29043579101562 135.3961944580078 160.3565673828125 148.4116668701172 C 156.6047821044922 151.2214813232422 153.55999755859375 155.06454467773438 153.78353881835938 157.09146118164062 C 153.46621704101562 159.36624145507812 147.30380249023438 162.68881225585938 140.96099853515625 165.47967529296875 C 132.99839782714844 168.98797607421875 129.03814697265625 172.10899353027344 127.829833984375 175.69180297851562 C 126.93634796142578 180.55325317382812 125.1742172241211 179.9850311279297 119.39722442626953 180.26841735839844 C 111.80866241455078 181.50193786621094 106.75537872314453 181.20611572265625 100.06195068359375 180.11505126953125" stroke-width="1.0" fill="rgb(252, 253, 254)" opacity="0.9999858"/>
    <path d="M 94.70726013183594 165.20208740234375 C 85.60429382324219 162.36077880859375 79.2564697265625 158.21359252929688 76.82440948486328 152.45858764648438 C 76.08016967773438 148.41168212890625 73.58663177490234 145.89002990722656 69.99169921875 144.74864196777344 C 58.445953369140625 138.168212890625 50.706336975097656 120.76457214355469 52.19776153564453 104.65291595458984 C 53.39625549316406 98.22853088378906 56.281211853027344 90.2504653930664 53.17340087890625 82.28665161132812 C 53.847801208496094 72.93632507324219 54.901702880859375 71.34759521484375 57.633731842041016 68.7183837890625 C 59.104190826416016 65.94450378417969 62.29981994628906 63.603397369384766 64.92533111572266 63.117977142333984 C 67.16523742675781 62.709259033203125 69.6934814453125 60.73459243774414 68.72610473632812 58.09157180786133 C 71.54437255859375 54.26079559326172 78.17467498779297 49.955322265625 87.78923034667969 46.75163269042969 C 98.46864318847656 41.77882385253906 122.16368865966797 41.39368438720703 133.3035430908203 46.64830017089844 C 142.4546356201172 49.489166259765625 151.6219482421875 56.39936828613281 152.33767700195312 59.16920852661133 C 151.28878784179688 60.7951545715332 152.9000244140625 62.49475860595703 155.8676300048828 62.79328155517578 C 158.6459503173828 63.63154983520508 162.11216735839844 66.59817504882812 163.98609924316406 69.09408569335938 C 166.60459899902344 73.144287109375 167.55697631835938 73.81832885742188 167.47503662109375 84.62785339355469 C 164.4422607421875 90.29930877685547 168.23419189453125 98.01505279541016 168.71817016601562 102.76322937011719 C 169.04953002929688 110.82955932617188 168.4668426513672 114.24584197998047 166.52337646484375 122.17268371582031 C 163.32864379882812 133.28958129882812 157.4706573486328 141.71090698242188 150.8251953125 144.72438049316406 C 146.84539794921875 145.73294067382812 144.46124267578125 147.99542236328125 143.63079833984375 153.41580200195312 C 140.7921142578125 158.24984741210938 138.1152801513672 159.61256408691406 132.33871459960938 163.00778198242188 C 125.4325180053711 165.72157287597656 122.96160125732422 167.97584533691406 112.34916687011719 166.20407104492188 C 104.15302276611328 166.9987335205078 97.33706665039062 166.77511596679688 94.70726013183594 165.20208740234375" stroke-width="1.0" fill="rgb(0, 0, 0)" opacity="0.9995475"/>
    <path d="M 92.6175537109375 156.64065551757812 C 88.9234619140625 154.61962890625 85.69136810302734 151.9043731689453 82.97828674316406 147.18991088867188 C 81.24127197265625 142.94207763671875 78.14607238769531 139.3567352294922 74.77569580078125 138.95599365234375 C 63.04372787475586 133.96197509765625 56.14927291870117 110.96692657470703 61.62508010864258 95.19808197021484 C 63.325626373291016 92.04412841796875 63.41477966308594 89.60272216796875 60.86363220214844 84.98092651367188 C 58.05732727050781 76.12220764160156 63.865509033203125 68.83482360839844 72.41278839111328 68.61631774902344 C 73.6317138671875 68.16848754882812 79.1075210571289 69.19064331054688 84.41358947753906 69.92210388183594 C 90.68096160888672 69.76505279541016 94.98788452148438 68.6986083984375 98.16968536376953 66.7751693725586 C 105.59257507324219 63.81513595581055 116.39125061035156 63.53876876831055 123.31771087646484 67.26741027832031 C 126.89399719238281 69.72032928466797 131.959228515625 70.28353881835938 139.39305114746094 69.0882568359375 C 151.58132934570312 66.445068359375 156.587158203125 70.06011962890625 159.62884521484375 76.03944396972656 C 160.78097534179688 79.65328979492188 160.66268920898438 81.39757537841797 160.05859375 85.44672393798828 C 158.06410217285156 89.37821197509766 157.96673583984375 91.44989013671875 159.3317413330078 94.01378631591797 C 162.15391540527344 101.75455474853516 161.7850341796875 115.1375961303711 158.09283447265625 122.7309799194336 C 154.96270751953125 132.146484375 151.39306640625 137.21145629882812 145.60044860839844 139.0720977783203 C 142.4707794189453 140.01368713378906 139.5808563232422 142.61985778808594 137.9567108154297 147.50511169433594 C 132.77023315429688 156.5572509765625 126.22200775146484 160.37738037109375 110.77357482910156 158.93185424804688 C 100.37373352050781 160.00363159179688 96.54042053222656 158.65293884277344 92.6175537109375 156.64065551757812" stroke-width="1.0" fill="rgb(252, 252, 253)" opacity="0.99776644"/>
    <path d="M 80.91768646240234 62.33278274536133 L 76.69316101074219 60.330440521240234 L 81.08035278320312 57.51480484008789 C 88.85871887207031 53.11222839355469 101.47618103027344 49.65099334716797 111.34656524658203 50.09502410888672 C 121.0683822631836 50.16771697998047 135.58743286132812 54.51294708251953 141.17306518554688 58.63071823120117 C 144.33848571777344 60.56470489501953 144.25318908691406 61.27492904663086 139.63916015625 62.33426284790039 C 135.76370239257812 63.7974967956543 133.5816650390625 64.0718765258789 128.55360412597656 61.8748779296875 C 120.48165130615234 57.072818756103516 105.93745422363281 55.947486877441406 96.82362365722656 60.031005859375 C 93.1684799194336 61.4452018737793 89.19580078125 63.19993591308594 87.94793701171875 63.621192932128906 C 85.64891815185547 63.60173797607422 83.64642333984375 62.75788879394531 80.91768646240234 62.33278274536133" stroke-width="1.0" fill="rgb(248, 250, 250)" opacity="0.98096293"/>
    <path d="M 96.42257690429688 151.64942932128906 C 91.56581115722656 148.7886199951172 88.51131439208984 144.09120178222656 88.7806396484375 139.63385009765625 C 88.61546325683594 133.77548217773438 86.54481506347656 129.43624877929688 79.33343505859375 127.86571502685547 C 74.89328002929688 126.04556274414062 71.14639282226562 122.8941879272461 70.17758178710938 120.23614501953125 C 65.11198425292969 110.03689575195312 65.59972381591797 95.02738189697266 72.15015411376953 94.74298095703125 C 76.08494567871094 95.81991577148438 76.23664855957031 96.9870376586914 74.12751770019531 103.44859313964844 C 74.38505554199219 113.87358093261719 76.38749694824219 118.67124938964844 84.6747817993164 121.02581024169922 C 91.41561889648438 123.0655288696289 95.81440734863281 130.48570251464844 96.05823516845703 136.264892578125 C 95.06049346923828 144.12806701660156 98.99486541748047 147.37852478027344 110.66993713378906 145.24285888671875 C 121.83572387695312 147.06167602539062 126.20167541503906 143.82211303710938 124.80402374267578 135.91476440429688 C 125.77955627441406 130.63616943359375 129.75338745117188 123.22697448730469 136.3607177734375 121.12530517578125 C 144.788818359375 118.77922821044922 146.49649047851562 113.96363830566406 146.78433227539062 103.31061553955078 C 145.60250854492188 97.21443176269531 145.50247192382812 94.89553833007812 148.56460571289062 94.47651672363281 C 154.84657287597656 95.3411865234375 156.1693878173828 107.21755981445312 151.6690673828125 117.89620971679688 C 149.90985107421875 122.24260711669922 147.72450256347656 124.77201080322266 143.31288146972656 127.0931167602539 C 135.27301025390625 129.36187744140625 133.97073364257812 132.19761657714844 132.69857788085938 137.19705200195312 C 132.18875122070312 144.87872314453125 129.26202392578125 148.24566650390625 124.2819595336914 151.6236572265625 C 120.30928039550781 153.062255859375 99.84672546386719 152.8341827392578 96.42257690429688 151.64942932128906" stroke-width="1.0" fill="rgb(4, 3, 4)" opacity="0.98302454"/>
    <path d="M 102.39712524414062 137.34136962890625 C 101.78059387207031 134.93270874023438 103.37252044677734 134.03660583496094 110.59371948242188 134.44906616210938 C 117.98675537109375 134.0941925048828 119.8333511352539 134.33729553222656 118.8836669921875 137.5229949951172 C 119.30681610107422 139.69143676757812 117.22525787353516 140.19891357421875 110.14549255371094 139.57839965820312 C 103.27052307128906 139.67880249023438 101.39664459228516 139.65646362304688 102.39712524414062 137.34136962890625" stroke-width="1.0" fill="rgb(3, 3, 3)" opacity="0.98572046"/>
    <path d="M 107.23222351074219 130.8896942138672 C 107.94419860839844 129.09378051757812 106.69343566894531 128.23001098632812 103.98067474365234 128.79591369628906 C 101.60798645019531 128.66061401367188 98.90726470947266 125.30132293701172 98.45223999023438 121.49722290039062 C 97.36221313476562 120.5768051147461 102.16769409179688 121.07528686523438 110.8863754272461 123.0915756225586 C 120.82206726074219 121.03282165527344 123.86481475830078 120.7138900756836 122.32673645019531 121.48078155517578 C 122.3300552368164 124.63162231445312 121.24190521240234 126.67577362060547 119.0039291381836 128.28268432617188 C 115.58140563964844 128.13421630859375 113.10516357421875 129.18544006347656 113.32890319824219 130.7524871826172 C 113.2179183959961 131.4988555908203 111.87481689453125 132.13758850097656 110.62060546875 132.2171173095703 C 108.75430297851562 131.45518493652344 107.0060043334961 131.2444305419922 107.23222351074219 130.8896942138672" stroke-width="1.0" fill="rgb(6, 5, 5)" opacity="0.97667474"/>
    <path d="M 93.49939727783203 113.76411437988281 C 93.60382080078125 111.96770477294922 91.7492446899414 110.5970687866211 88.79740905761719 111.35139465332031 C 81.32614135742188 111.3019790649414 78.24130249023438 101.23567199707031 83.70199584960938 96.75548553466797 C 87.1546630859375 94.95240020751953 88.82439422607422 96.13835906982422 88.65105438232422 100.68867492675781 C 86.66046142578125 104.57929992675781 89.85582733154297 107.3310546875 95.49835968017578 104.44772338867188 C 98.6083755493164 103.99360656738281 101.79907989501953 108.70601654052734 100.86102294921875 112.9045639038086 C 100.62747955322266 115.8726806640625 95.0202407836914 116.13076782226562 93.49939727783203 113.76411437988281" stroke-width="1.0" fill="rgb(5, 5, 5)" opacity="0.97818977"/>
    <path d="M 119.98066711425781 112.42135620117188 C 119.58313751220703 108.26663208007812 122.56202697753906 103.749755859375 126.46127319335938 104.07501220703125 C 130.87728881835938 107.12323760986328 134.72695922851562 103.7718734741211 132.04443359375 99.9404296875 C 131.19667053222656 96.87980651855469 134.55201721191406 95.1458969116211 137.66143798828125 96.78459167480469 C 142.87474060058594 101.65770721435547 139.50408935546875 111.1582260131836 132.22877502441406 111.37298583984375 C 129.14700317382812 110.41244506835938 127.55870056152344 112.00712585449219 127.15373229980469 113.88099670410156 C 125.7544937133789 116.7702407836914 119.62654113769531 116.50813293457031 119.98066711425781 112.42135620117188" stroke-width="1.0" fill="rgb(6, 6, 6)" opacity="0.9747004"/>
    <path d="M 68.23231506347656 83.79432678222656 C 65.74533081054688 78.39356994628906 68.38798522949219 75.65254211425781 74.92034149169922 75.08148193359375 C 84.82072448730469 75.68553924560547 85.59528350830078 78.78854370117188 77.87440490722656 82.69985961914062 C 70.77054595947266 87.91290283203125 69.1846923828125 87.14900207519531 68.23231506347656 83.79432678222656" stroke-width="1.0" fill="rgb(6, 6, 6)" opacity="0.97568506"/>
    <path d="M 143.0272216796875 82.57571411132812 C 137.87876892089844 79.20309448242188 137.1139373779297 78.17782592773438 139.2655487060547 76.8209457397461 C 141.36021423339844 75.60102844238281 144.64073181152344 74.76338195800781 147.36581420898438 74.86289978027344 C 151.77781677246094 75.80284118652344 152.94235229492188 76.76995849609375 153.3885498046875 81.02189636230469 C 152.35238647460938 87.45182800292969 149.92172241210938 88.12632751464844 143.0272216796875 82.57571411132812" stroke-width="1.0" fill="rgb(7, 7, 7)" opacity="0.97041345"/>
  </g>
</svg>
