<?xml version="1.0" ?>
<svg xmlns="http://www.w3.org/2000/svg" version="1.1" width="224" height="224">
  <defs/>
  <g>
    <path d="M 63.97343444824219 195.44117736816406 C 56.00356674194336 193.29637145996094 52.114471435546875 188.34442138671875 47.957908630371094 173.48007202148438 C 43.87168884277344 158.417724609375 42.29286575317383 147.07305908203125 41.77510452270508 127.46676635742188 C 42.26950454711914 85.02705383300781 54.7323112487793 42.68888854980469 70.64468383789062 32.02006530761719 L 76.18946838378906 28.66326904296875 L 110.25700378417969 28.158523559570312 C 131.2548828125 28.36009979248047 145.4405059814453 28.00000762939453 148.09243774414062 29.632469177246094 C 165.85678100585938 34.072296142578125 181.75103759765625 81.28303527832031 182.2248992919922 128.42489624023438 C 181.93528747558594 146.09645080566406 180.197998046875 156.61721801757812 176.0013427734375 171.9561767578125 C 172.6192169189453 184.9749755859375 169.48394775390625 191.17117309570312 164.52305603027344 193.41543579101562 L 160.79315185546875 195.71957397460938 L 114.00418090820312 195.79595947265625 C 88.23648071289062 195.68296813964844 65.54820251464844 196.0 63.97343444824219 195.44117736816406" stroke-width="1.0" fill="rgb(1, 2, 2)" opacity="0.99597335"/>
    <path d="M 100.8293228149414 188.9868927001953 C 78.96862030029297 185.00421142578125 60.9028205871582 167.25743103027344 60.87480926513672 150.591064453125 C 61.045005798339844 143.004150390625 63.360694885253906 137.72122192382812 69.36468505859375 131.81028747558594 C 78.87846374511719 122.72588348388672 91.7665023803711 118.80300903320312 112.14407348632812 118.63255310058594 C 132.39218139648438 119.2317123413086 144.53961181640625 122.98153686523438 154.5782928466797 131.93017578125 C 163.64794921875 140.1495361328125 165.5555877685547 151.0684814453125 159.96823120117188 162.47706604003906 C 150.57974243164062 182.37020874023438 125.42716979980469 193.87591552734375 100.8293228149414 188.9868927001953" stroke-width="1.0" fill="rgb(251, 254, 254)" opacity="0.99592024"/>
    <path d="M 60.63510513305664 187.414306640625 C 56.900508880615234 184.60043334960938 54.0206184387207 175.36314392089844 50.62495422363281 157.61688232421875 C 48.99496078491211 148.68077087402344 48.066287994384766 143.5411376953125 47.73025894165039 128.5997772216797 C 48.123931884765625 108.85435485839844 50.05632400512695 96.34657287597656 53.731468200683594 79.17703247070312 C 61.69490432739258 48.33787536621094 69.40925598144531 35.33213806152344 81.71954345703125 34.079505920410156 L 88.58019256591797 33.865028381347656 L 85.26398468017578 36.631736755371094 C 77.73310852050781 40.265899658203125 72.28636932373047 46.65467834472656 68.33529663085938 53.680503845214844 C 60.663368225097656 68.21322631835938 54.91217041015625 96.92469787597656 53.24811553955078 123.56632232666016 C 52.933448791503906 132.33248901367188 52.78307342529297 133.55047607421875 54.53300476074219 134.14749145507812 C 54.72456741333008 135.47364807128906 55.73013687133789 135.47666931152344 56.92731475830078 134.1683807373047 C 59.78342056274414 134.2858123779297 59.817840576171875 134.9230499267578 57.550655364990234 139.3843994140625 C 54.517879486083984 145.50405883789062 54.62771987915039 154.1773223876953 57.43206787109375 161.35482788085938 C 60.7877082824707 170.88034057617188 69.81084442138672 181.04086303710938 80.75686645507812 187.44363403320312 C 82.07400512695312 189.62014770507812 79.822509765625 189.70333862304688 72.92620849609375 189.52005004882812 C 65.320556640625 189.59832763671875 64.06660461425781 189.22293090820312 60.63510513305664 187.414306640625" stroke-width="1.0" fill="rgb(251, 253, 253)" opacity="0.99158657"/>
    <path d="M 146.69937133789062 185.22702026367188 C 152.6534881591797 182.0407257080078 160.59744262695312 173.12994384765625 163.4024200439453 167.5164031982422 C 167.37960815429688 160.92701721191406 169.70880126953125 150.4405059814453 168.396484375 144.97657775878906 C 165.57884216308594 131.235595703125 153.1251983642578 120.320556640625 133.67576599121094 115.48235321044922 C 127.53192138671875 113.8338623046875 123.16715240478516 113.07891845703125 111.36357879638672 112.78752899169922 C 88.97396850585938 113.68708801269531 76.68121337890625 117.69535064697266 65.21857452392578 128.23597717285156 L 58.407875061035156 134.8579559326172 L 58.95991516113281 123.18962860107422 C 60.154842376708984 101.46183013916016 66.75800323486328 71.24478912353516 72.40943145751953 59.126670837402344 C 75.65093994140625 51.7147216796875 82.47398376464844 43.705650329589844 89.06381225585938 40.504852294921875 C 100.33882904052734 33.311798095703125 117.97506713867188 32.409576416015625 130.419921875 38.12616729736328 C 150.95022583007812 48.447998046875 160.69976806640625 70.29600524902344 165.16891479492188 126.18003845214844 C 165.0956268310547 134.478271484375 165.6409912109375 134.41966247558594 168.02886962890625 134.77394104003906 L 171.0000457763672 134.40029907226562 L 170.88009643554688 120.59349822998047 C 169.79837036132812 106.2009048461914 168.10479736328125 94.68474578857422 163.82452392578125 78.33119201660156 C 159.14599609375 59.217472076416016 151.0391845703125 44.79609680175781 141.6162567138672 38.554595947265625 C 136.99624633789062 35.89515686035156 136.45260620117188 34.86724090576172 138.17544555664062 34.16852569580078 C 142.95925903320312 33.05425262451172 150.45933532714844 35.790809631347656 153.90724182128906 40.73335266113281 C 168.07095336914062 57.217002868652344 178.69970703125 106.68741607666016 175.57675170898438 141.00746154785156 C 175.30569458007812 153.3663787841797 169.5850067138672 173.78529357910156 166.386474609375 182.15396118164062 C 163.68792724609375 188.50775146484375 161.14947509765625 189.987548828125 152.14877319335938 190.0202178955078 L 141.62155151367188 189.3948516845703 L 146.69937133789062 185.22702026367188" stroke-width="1.0" fill="rgb(252, 254, 254)" opacity="0.9977593"/>
    <path d="M 66.68820190429688 154.3690643310547 C 64.24927520751953 149.71385192871094 69.8016357421875 137.74496459960938 76.65032196044922 132.8045654296875 C 82.72279357910156 128.52964782714844 92.3732681274414 125.05035400390625 93.77336883544922 127.04236602783203 C 95.61862182617188 129.2689971923828 93.94012451171875 131.39898681640625 87.74542999267578 133.71575927734375 C 80.52671813964844 135.68942260742188 73.60289764404297 142.7761993408203 72.4188461303711 148.99078369140625 C 72.15619659423828 151.22254943847656 71.51283264160156 154.2528839111328 70.95802307128906 154.83331298828125 C 69.91901397705078 156.43121337890625 67.12105560302734 156.20059204101562 66.68820190429688 154.3690643310547" stroke-width="1.0" fill="rgb(1, 3, 2)" opacity="0.9898792"/>
    <path d="M 75.65382385253906 92.48329162597656 C 74.60480499267578 90.55374145507812 74.5314712524414 71.57431030273438 75.23251342773438 67.427978515625 C 76.06098937988281 65.50233459472656 79.81346893310547 65.03106689453125 81.55633544921875 66.86599731445312 C 82.27133178710938 68.52067565917969 81.59455108642578 91.32231140136719 80.65655517578125 92.4699478149414 C 78.46527099609375 93.98338317871094 77.46759796142578 93.88311767578125 75.65382385253906 92.48329162597656" stroke-width="1.0" fill="rgb(0, 1, 1)" opacity="0.9945365"/>
  </g>
</svg>
