<?xml version="1.0" ?>
<svg xmlns="http://www.w3.org/2000/svg" version="1.1" width="224" height="224">
  <defs/>
  <g>
    <path d="M 47.9072380065918 193.76455688476562 C 47.00126647949219 192.65933227539062 47.56161117553711 188.8917999267578 48.67002487182617 185.32032775878906 L 50.017173767089844 178.57217407226562 L 44.23799133300781 172.78457641601562 C 34.250587463378906 161.771484375 28.83563232421875 149.67579650878906 28.997947692871094 136.29119873046875 C 29.788619995117188 127.07112121582031 30.18700408935547 123.36103820800781 35.20702362060547 110.85648345947266 L 38.506805419921875 101.50932312011719 L 36.44010925292969 90.82632446289062 C 35.0938720703125 84.68852233886719 33.76762390136719 74.77105712890625 33.24323272705078 67.68863677978516 C 33.135231018066406 38.305694580078125 39.98192596435547 28.00000762939453 59.091636657714844 31.879257202148438 C 68.61480712890625 33.18841552734375 78.297607421875 38.00770568847656 87.488525390625 44.908538818359375 L 94.15196228027344 50.696807861328125 L 111.54389953613281 49.601905822753906 L 130.56710815429688 50.779388427734375 L 136.52334594726562 45.412391662597656 C 149.83633422851562 34.72290802001953 168.55838012695312 28.74144744873047 178.0709228515625 31.54900360107422 C 189.73553466796875 34.66850280761719 194.26254272460938 58.71709442138672 188.038330078125 88.8489990234375 L 185.05276489257812 101.74354553222656 L 188.96324157714844 110.91191101074219 C 193.79977416992188 123.66617584228516 194.79608154296875 128.4415283203125 195.16436767578125 137.25746154785156 C 194.8787384033203 142.6038055419922 194.1025390625 147.21524047851562 192.4591064453125 151.8046112060547 C 190.55575561523438 158.95132446289062 182.77391052246094 170.5072479248047 177.43804931640625 175.31422424316406 C 173.7815704345703 177.4134521484375 174.5774383544922 180.021484375 176.63052368164062 188.13980102539062 C 177.75689697265625 194.70948791503906 176.19454956054688 196.0 169.0328369140625 194.71493530273438 C 164.58958435058594 193.7569122314453 156.4332275390625 193.37887573242188 141.36544799804688 193.3971710205078 C 130.1182403564453 192.27191162109375 116.81031799316406 195.85787963867188 109.86874389648438 195.48878479003906 C 79.11123657226562 190.965087890625 55.95838928222656 194.19927978515625 52.743587493896484 195.26553344726562 C 49.55232238769531 195.58584594726562 48.72922134399414 195.38223266601562 47.9072380065918 193.76455688476562" stroke-width="1.0" fill="rgb(0, 1, 1)" opacity="0.9960333"/>
    <path d="M 100.7415771484375 187.40721130371094 C 99.84078216552734 185.94970703125 89.26866912841797 186.22755432128906 78.1763916015625 186.28854370117188 L 56.60866928100586 186.4044952392578 L 57.321632385253906 181.25860595703125 L 58.24835205078125 175.71490478515625 L 50.73764419555664 168.85791015625 C 43.19061279296875 160.2846221923828 40.62071990966797 156.16250610351562 37.962127685546875 147.2357177734375 C 35.284393310546875 136.8909454345703 35.80497741699219 128.10853576660156 42.04554748535156 113.4891586303711 L 46.65275573730469 102.15554809570312 L 44.79913330078125 93.01791381835938 C 42.03459167480469 81.33710479736328 40.592002868652344 71.93702697753906 40.69183349609375 69.50471496582031 C 39.582244873046875 67.27564239501953 41.79777526855469 66.14566040039062 45.34138488769531 65.3945083618164 C 48.56195831298828 63.21923065185547 49.43719482421875 62.116661071777344 51.022891998291016 57.1568603515625 C 51.96726608276367 53.8859748840332 53.98100662231445 51.70753479003906 55.53704071044922 51.244834899902344 C 58.74894332885742 50.638526916503906 69.97648620605469 57.11170196533203 76.33531188964844 62.682464599609375 L 82.10145568847656 68.80371856689453 L 79.05215454101562 71.07232666015625 C 76.17386627197266 73.08535766601562 75.78004455566406 73.05718994140625 72.05731201171875 68.95103454589844 C 66.50679016113281 64.21746826171875 61.65964889526367 61.74614334106445 58.19023513793945 62.91730880737305 C 53.84745788574219 62.85361862182617 48.730796813964844 68.66095733642578 47.7584342956543 72.41471099853516 C 46.57691192626953 75.1815185546875 48.23395919799805 85.28447723388672 49.633018493652344 88.24383544921875 C 50.0997200012207 90.8331527709961 53.12537384033203 91.34624481201172 55.518524169921875 89.30537414550781 C 56.844810485839844 87.66309356689453 56.982139587402344 86.3335952758789 55.18253707885742 81.68913269042969 C 54.20127868652344 75.64805603027344 54.571712493896484 74.21102142333984 56.01481246948242 71.9291763305664 C 58.76858901977539 68.52423858642578 60.514671325683594 68.29130554199219 65.3016357421875 71.8978271484375 C 71.57044982910156 76.43379211425781 71.92633819580078 77.69535064697266 66.51568603515625 82.95135498046875 C 61.00799560546875 89.0052490234375 54.452171325683594 100.3105239868164 49.197532653808594 113.92962646484375 C 44.796295166015625 124.8994140625 43.988929748535156 126.29476165771484 43.81501770019531 134.7893829345703 C 44.049400329589844 142.2883758544922 44.69441223144531 144.03172302246094 47.20470428466797 149.50570678710938 C 50.580238342285156 156.6163787841797 60.169979095458984 165.18934631347656 66.8808364868164 167.47836303710938 C 71.5465316772461 168.06227111816406 73.254638671875 169.21896362304688 74.88868713378906 173.50584411621094 C 79.94136810302734 180.972412109375 88.82433319091797 183.72720336914062 94.12197875976562 179.12818908691406 C 96.73368835449219 176.97787475585938 97.03377532958984 176.72694396972656 99.2356948852539 178.9799041748047 C 103.12738037109375 183.26190185546875 113.62466430664062 184.51687622070312 121.04705810546875 181.34425354003906 C 123.06019592285156 180.66419982910156 125.26541137695312 179.04446411132812 125.56723022460938 178.18099975585938 C 126.87218475341797 176.43942260742188 127.86347198486328 177.0730438232422 129.6669921875 179.18948364257812 C 135.15528869628906 184.47036743164062 145.10958862304688 180.51254272460938 150.0498046875 172.19651794433594 C 150.92166137695312 169.72030639648438 153.15670776367188 168.42034912109375 156.59205627441406 167.85972595214844 C 171.25177001953125 162.5388946533203 181.5749969482422 146.63160705566406 179.52349853515625 131.39022827148438 C 178.33895874023438 120.6637954711914 168.5778045654297 98.12252044677734 159.70399475097656 85.54270935058594 L 153.51614379882812 77.0771713256836 L 157.29864501953125 72.71144104003906 C 163.06581115722656 68.36306762695312 165.22412109375 68.2695541381836 167.9257049560547 72.71821594238281 C 168.88491821289062 75.2030029296875 169.07672119140625 77.13824462890625 168.13783264160156 81.36245727539062 C 166.3511505126953 87.35388946533203 166.83102416992188 89.43048858642578 170.07830810546875 90.10047149658203 C 173.7530517578125 92.05758666992188 175.32174682617188 85.75784301757812 175.8968505859375 76.78395080566406 C 175.91366577148438 69.75028228759766 169.92098999023438 62.019691467285156 163.8057403564453 62.4504280090332 C 161.5270233154297 62.14083480834961 155.27728271484375 65.48670196533203 151.1422119140625 69.39193725585938 C 148.25210571289062 72.6400146484375 147.8153839111328 72.8525161743164 145.059326171875 71.20953369140625 C 143.31520080566406 70.21288299560547 141.99757385253906 67.96501922607422 143.67034912109375 67.28251647949219 C 145.35238647460938 62.66587448120117 165.01776123046875 49.864959716796875 168.97166442871094 51.18550109863281 C 169.82272338867188 51.98844909667969 171.10940551757812 53.05438995361328 171.90847778320312 54.065181732177734 C 173.8180389404297 61.03095626831055 175.80958557128906 64.82914733886719 179.20782470703125 65.90704345703125 L 183.77569580078125 66.60734558105469 L 182.77584838867188 72.96214294433594 C 182.58883666992188 75.91787719726562 181.20187377929688 84.0322265625 179.5015869140625 90.62870025634766 L 177.16790771484375 102.72309112548828 L 180.4166259765625 110.42231750488281 C 186.74887084960938 125.03971099853516 187.75765991210938 129.1065216064453 187.70297241210938 138.38693237304688 C 186.5601806640625 145.72845458984375 185.93994140625 148.19512939453125 183.05455017089844 155.10458374023438 C 181.12002563476562 159.68731689453125 176.68829345703125 165.65614318847656 172.63568115234375 169.54234313964844 C 165.86300659179688 176.0308074951172 165.5380096435547 175.43582153320312 167.01278686523438 180.20370483398438 L 168.36337280273438 186.50531005859375 L 145.2734375 186.328125 C 132.1538848876953 184.85354614257812 118.04685974121094 188.0589599609375 113.46284484863281 189.18150329589844 C 107.08673858642578 188.32798767089844 102.44819641113281 188.05984497070312 100.7415771484375 187.40721130371094" stroke-width="1.0" fill="rgb(251, 252, 252)" opacity="0.99116474"/>
    <path d="M 104.16912841796875 175.0386505126953 C 100.87841796875 172.68057250976562 104.32500457763672 171.03868103027344 111.73390197753906 170.94171142578125 C 120.4964599609375 171.32460021972656 123.91192626953125 172.85557556152344 119.50868225097656 175.0146484375 C 117.01486206054688 176.77166748046875 106.72705078125 176.7438201904297 104.16912841796875 175.0386505126953" stroke-width="1.0" fill="rgb(248, 250, 250)" opacity="0.9817845"/>
    <path d="M 81.29412078857422 170.88909912109375 C 75.255859375 163.12496948242188 76.2061767578125 153.67645263671875 84.59963989257812 144.5722198486328 C 89.09378814697266 140.7579345703125 91.50799560546875 139.36813354492188 97.17048645019531 137.32679748535156 C 115.74846649169922 131.83465576171875 136.1479034423828 136.9813995361328 143.0380401611328 149.29063415527344 C 147.22958374023438 156.34210205078125 147.5901641845703 161.9266357421875 144.56292724609375 168.0398712158203 C 139.98458862304688 175.12680053710938 137.19198608398438 176.74075317382812 130.13885498046875 170.54293823242188 C 127.16680908203125 167.79331970214844 122.6186294555664 165.5037841796875 120.46813201904297 165.02256774902344 L 115.91968536376953 163.7019500732422 L 115.36493682861328 156.8904571533203 C 115.45723724365234 150.23147583007812 115.29583740234375 148.46421813964844 117.54167938232422 149.53448486328125 C 120.14130401611328 150.10546875 123.5066146850586 146.620361328125 122.7275390625 144.45562744140625 C 122.91678619384766 144.66146850585938 122.70513153076172 144.22203063964844 121.42599487304688 142.76268005371094 C 119.99687194824219 140.8274383544922 104.38209533691406 140.85723876953125 103.1558609008789 142.67733764648438 C 100.02473449707031 145.66427612304688 101.95804595947266 150.1844482421875 106.58880615234375 149.3152618408203 C 109.24694061279297 148.8070831298828 109.27507019042969 149.92860412597656 109.13706970214844 157.00601196289062 C 109.23766326904297 163.86566162109375 109.10093688964844 164.69651794433594 105.89277648925781 164.7093505859375 C 101.43089294433594 165.45635986328125 94.76761627197266 168.7509002685547 91.52269744873047 171.95022583007812 C 87.4609375 176.0185546875 85.00997924804688 175.1863250732422 81.29412078857422 170.88909912109375" stroke-width="1.0" fill="rgb(252, 254, 254)" opacity="0.99875253"/>
    <path d="M 153.53408813476562 158.35287475585938 C 154.10060119628906 153.87173461914062 148.73184204101562 143.06353759765625 143.67189025878906 138.99966430664062 C 141.7305145263672 136.88414001464844 136.5699462890625 133.94090270996094 132.84445190429688 132.2578125 C 126.31018829345703 129.42318725585938 125.9793701171875 128.8214569091797 112.15802001953125 128.1322479248047 C 100.007080078125 128.3778076171875 98.22759246826172 129.3998260498047 92.8530044555664 131.56399536132812 C 81.32194519042969 135.89561462402344 71.80213928222656 146.24119567871094 70.46693420410156 156.73431396484375 C 70.10880279541016 161.7996063232422 68.77223205566406 161.19760131835938 63.19602966308594 157.4117889404297 C 52.30025863647461 149.20217895507812 47.91184616088867 136.6903839111328 54.301998138427734 120.54822540283203 C 67.33995819091797 83.87808227539062 83.6424331665039 69.01860046386719 112.0281982421875 68.95807647705078 C 138.27151489257812 68.97673034667969 153.6220245361328 81.61580657958984 166.455078125 112.63131713867188 C 172.51817321777344 126.50328063964844 173.62860107421875 132.99380493164062 172.15966796875 139.90164184570312 C 170.42501831054688 148.43475341796875 164.75965881347656 155.82156372070312 158.45999145507812 159.26406860351562 C 154.2672119140625 161.18309020996094 154.35655212402344 161.49008178710938 153.53408813476562 158.35287475585938" stroke-width="1.0" fill="rgb(252, 254, 254)" opacity="0.99867535"/>
    <path d="M 84.8958969116211 61.36958312988281 C 78.79806518554688 53.584983825683594 61.339256286621094 43.72826385498047 54.194000244140625 43.878509521484375 C 50.06810760498047 43.42662811279297 46.6533203125 46.55164337158203 45.683746337890625 53.02364730834961 C 43.52825164794922 60.6519775390625 39.27540588378906 60.57017517089844 41.029762268066406 53.53384780883789 C 41.94618225097656 45.833648681640625 43.66046905517578 41.556182861328125 46.81182861328125 38.96624755859375 C 50.11321258544922 37.82640075683594 50.67662811279297 37.76502227783203 56.13056945800781 38.4544677734375 C 64.79072570800781 39.723175048828125 77.597412109375 46.342498779296875 86.01728820800781 53.64027404785156 C 92.73481750488281 59.51079177856445 92.58894348144531 59.58021926879883 97.46455383300781 58.53525924682617 C 104.67655944824219 56.92366409301758 120.03437042236328 56.95001220703125 127.25726318359375 58.594459533691406 C 131.32040405273438 59.55776596069336 131.69415283203125 59.608551025390625 139.6543731689453 52.473350524902344 C 152.994140625 42.17658233642578 168.4377899169922 36.53953552246094 175.57015991210938 37.96223449707031 C 179.13394165039062 39.23151397705078 181.90713500976562 44.85400390625 182.8499298095703 53.676109313964844 C 184.45803833007812 60.644874572753906 181.156494140625 59.98456954956055 178.57022094726562 53.12179183959961 C 177.07032775878906 46.51195526123047 173.06008911132812 43.41645050048828 168.46852111816406 44.25000762939453 C 161.31039428710938 45.24854278564453 147.8833770751953 52.22351837158203 141.44952392578125 58.95582962036133 L 136.02757263183594 65.7175064086914 L 128.76991271972656 63.60576629638672 C 119.26457214355469 61.06429672241211 101.64567565917969 61.31302261352539 90.8086929321289 64.99481201171875 C 88.3926773071289 65.68644714355469 87.44538879394531 64.89143371582031 84.8958969116211 61.36958312988281" stroke-width="1.0" fill="rgb(249, 251, 251)" opacity="0.9844889"/>
    <path d="M 66.75225830078125 124.5692367553711 C 66.07840728759766 123.8813247680664 65.61263275146484 122.49282836914062 65.72994232177734 121.59931945800781 C 65.87872314453125 120.09078216552734 66.58273315429688 119.52923583984375 69.47567749023438 119.2041244506836 C 72.71427917480469 119.59173583984375 76.02731323242188 118.78429412841797 78.89302062988281 116.30892944335938 C 87.93878936767578 110.1383285522461 94.56366729736328 110.69327545166016 98.25415802001953 117.01983642578125 C 101.09539031982422 122.18929290771484 100.52543640136719 125.27971649169922 97.16365051269531 125.84654235839844 C 95.21375274658203 125.5396499633789 94.02617645263672 124.7002944946289 92.92964172363281 122.59040832519531 C 91.81768798828125 117.4637680053711 88.88433074951172 117.56475067138672 81.2889633178711 123.29827880859375 C 75.09112548828125 126.88915252685547 68.95866394042969 127.19890594482422 66.75225830078125 124.5692367553711" stroke-width="1.0" fill="rgb(1, 2, 1)" opacity="0.9935386"/>
    <path d="M 148.13568115234375 125.64049530029297 C 146.59896850585938 125.4103012084961 143.70022583007812 123.42477416992188 141.2273406982422 121.94921112060547 C 135.8497772216797 117.55599212646484 132.5593719482422 117.96773529052734 130.59986877441406 123.0244140625 C 129.7766876220703 125.78038787841797 128.44317626953125 126.4731216430664 126.6371078491211 125.72093963623047 C 122.76431274414062 125.18902587890625 123.31785583496094 119.44287109375 127.26753234863281 115.33677673339844 C 132.02377319335938 110.78349304199219 137.1249237060547 110.44666290283203 144.0440216064453 114.98223114013672 C 146.97894287109375 117.57034301757812 151.2059783935547 119.52015686035156 154.150146484375 118.75658416748047 C 158.85006713867188 119.29720306396484 160.1879119873047 121.69340515136719 157.2811279296875 124.53939819335938 C 155.83131408691406 126.49833679199219 152.04946899414062 126.64862823486328 148.13568115234375 125.64049530029297" stroke-width="1.0" fill="rgb(1, 2, 2)" opacity="0.9930815"/>
  </g>
</svg>
