<?xml version="1.0" ?>
<svg xmlns="http://www.w3.org/2000/svg" version="1.1" width="224" height="224">
  <defs/>
  <g>
    <path d="M 38.251617431640625 28.0 C 70.63223266601562 28.0 103.01284790039062 28.0 135.39346313476562 28.0 C 141.00927734375 28.610977172851562 145.0409698486328 32.60150146484375 145.63914489746094 38.24475860595703 C 145.63914489746094 87.41522216796875 145.63914489746094 136.58477783203125 145.63914489746094 185.75523376464844 C 145.10499572753906 191.713134765625 141.3513641357422 195.46585083007812 135.39346313476562 196.0 C 103.01284790039062 196.0 70.63223266601562 196.0 38.251617431640625 196.0 C 32.63671112060547 195.3890380859375 28.604110717773438 191.39849853515625 28.006858825683594 185.75523376464844 C 28.006858825683594 136.58477783203125 28.006858825683594 87.41522216796875 28.006858825683594 38.24475860595703 C 28.541000366210938 32.286865234375 32.293724060058594 28.534149169921875 38.251617431640625 28.0 C 38.251617431640625 28.0 38.251617431640625 28.0 38.251617431640625 28.0" stroke-width="0.0" fill="rgb(35, 31, 32)" opacity="1.0"/>
    <path d="M 180.81211853027344 43.24138641357422 C 180.81211853027344 43.24138641357422 180.81211853027344 43.24138641357422 180.81211853027344 43.24138641357422 C 172.19631958007812 43.73619842529297 166.12042236328125 49.81573486328125 165.6256103515625 58.431541442871094 C 165.6256103515625 85.72864532470703 165.6256103515625 113.02484130859375 165.6256103515625 140.32196044921875 C 165.67135620117188 140.56890869140625 165.71800231933594 140.8167724609375 165.7646484375 141.0646209716797 C 169.6710205078125 151.09536743164062 173.5783233642578 161.1260986328125 177.4846954345703 171.1577606201172 C 177.81396484375 171.85287475585938 178.250244140625 172.50775146484375 178.7670135498047 173.07847595214844 C 178.7670135498047 174.95437622070312 178.7670135498047 176.83029174804688 178.7670135498047 178.70619201660156 C 179.33042907714844 180.06900024414062 180.59352111816406 181.8250732421875 182.26181030273438 180.1558837890625 C 182.63223266601562 179.78546142578125 182.66241455078125 179.18911743164062 182.86180114746094 178.70619201660156 C 182.86180114746094 176.83486938476562 182.86180114746094 174.96353149414062 182.86180114746094 173.09310913085938 C 183.355712890625 172.5516357421875 183.77369689941406 171.93153381347656 184.091064453125 171.2720947265625 C 188.01025390625 161.20294189453125 191.93035888671875 151.1337890625 195.8504638671875 141.0646209716797 C 195.89801025390625 140.81494140625 195.94558715820312 140.5643310546875 195.99313354492188 140.31463623046875 C 195.99313354492188 113.020263671875 195.99313354492188 85.72590637207031 195.99313354492188 58.431541442871094 C 195.49191284179688 49.817562103271484 189.42884826660156 43.74259948730469 180.81211853027344 43.24138641357422 C 180.81211853027344 43.24138641357422 180.81211853027344 43.24138641357422 180.81211853027344 43.24138641357422" stroke-width="0.0" fill="rgb(36, 31, 32)" opacity="1.0"/>
    <path d="M 32.106224060058594 38.24110412597656 C 32.106224060058594 38.24110412597656 32.106224060058594 38.24110412597656 32.106224060058594 38.24110412597656 C 32.601951599121094 34.553314208984375 34.56382751464844 32.59052276611328 38.251617431640625 32.09571075439453 C 70.63223266601562 32.09571075439453 103.01284790039062 32.09571075439453 135.39346313476562 32.09571075439453 C 138.8845977783203 32.66004180908203 140.99282836914062 34.730751037597656 141.5388641357422 38.24110412597656 C 141.5388641357422 87.41156768798828 141.5388641357422 136.58111572265625 141.5388641357422 185.7515869140625 C 141.04312133789062 189.43936157226562 139.0812530517578 191.40216064453125 135.39346313476562 191.89697265625 C 103.01284790039062 191.89697265625 70.63223266601562 191.89697265625 38.251617431640625 191.89697265625 C 34.761390686035156 191.3326416015625 32.652259826660156 189.26284790039062 32.106224060058594 185.7515869140625 C 32.106224060058594 136.58111572265625 32.106224060058594 87.41156768798828 32.106224060058594 38.24110412597656" stroke-width="0.0" fill="rgb(254, 254, 254)" opacity="1.0"/>
    <path d="M 170.24632263183594 141.27865600585938 C 177.29354858398438 141.27865600585938 184.33984375 141.27865600585938 191.38705444335938 141.27865600585938 C 189.77456665039062 145.42193603515625 188.16299438476562 149.56610107421875 186.55142211914062 153.70938110351562 C 182.72918701171875 153.70938110351562 178.90695190429688 153.70938110351562 175.08563232421875 153.70938110351562 C 173.47222900390625 149.56610107421875 171.8597412109375 145.42193603515625 170.24632263183594 141.27865600585938" stroke-width="0.0" fill="rgb(208, 34, 0)" opacity="1.0"/>
    <path d="M 169.72132873535156 69.18392944335938 C 177.1170196533203 69.18392944335938 184.51271057128906 69.18392944335938 191.907470703125 69.18392944335938 C 191.907470703125 91.8511734008789 191.907470703125 114.51842498779297 191.907470703125 137.18568420410156 C 184.51271057128906 137.18568420410156 177.1170196533203 137.18568420410156 169.72132873535156 137.18568420410156 C 169.72132873535156 114.51842498779297 169.72132873535156 91.8511734008789 169.72132873535156 69.18392944335938" stroke-width="0.0" fill="rgb(208, 34, 0)" opacity="1.0"/>
    <path d="M 180.81211853027344 47.3398323059082 C 180.81211853027344 47.3398323059082 180.81211853027344 47.3398323059082 180.81211853027344 47.3398323059082 C 187.22093200683594 47.86025619506836 191.3843231201172 52.024566650390625 191.9111328125 58.431541442871094 C 191.9111328125 60.64951705932617 191.9111328125 62.866580963134766 191.9111328125 65.08454895019531 C 184.51454162597656 65.08454895019531 177.11793518066406 65.08454895019531 169.72132873535156 65.08454895019531 C 169.72132873535156 62.866580963134766 169.72132873535156 60.64951705932617 169.72132873535156 58.431541442871094 C 170.24815368652344 52.027305603027344 174.406982421875 47.863922119140625 180.81211853027344 47.3398323059082 C 180.81211853027344 47.3398323059082 180.81211853027344 47.3398323059082 180.81211853027344 47.3398323059082" stroke-width="0.0" fill="rgb(208, 34, 0)" opacity="1.0"/>
    <path d="M 176.68165588378906 157.80874633789062 C 179.4383544921875 157.80874633789062 182.19503784179688 157.80874633789062 184.95172119140625 157.80874633789062 C 183.57431030273438 161.35018920898438 182.19686889648438 164.89071655273438 180.81942749023438 168.43215942382812 C 179.44017028808594 164.89071655273438 178.0609130859375 161.35018920898438 176.68165588378906 157.80874633789062" stroke-width="0.0" fill="rgb(206, 34, 0)" opacity="1.0"/>
    <path d="M 86.8248291015625 49.99042892456055 C 86.8248291015625 49.99042892456055 86.8248291015625 49.99042892456055 86.8248291015625 49.99042892456055 C 82.56631469726562 50.27122116088867 78.75779724121094 51.81511306762695 76.0898208618164 55.289791107177734 C 69.40205383300781 63.99980163574219 75.8602523803711 77.02320861816406 86.8248291015625 77.03327178955078 C 97.81044006347656 77.04332733154297 104.24394226074219 64.00437927246094 97.56166076660156 55.289791107177734 C 94.89643096923828 51.81420135498047 91.08151245117188 50.27122116088867 86.8248291015625 49.99042892456055 C 86.8248291015625 49.99042892456055 86.8248291015625 49.99042892456055 86.8248291015625 49.99042892456055" stroke-width="0.0" fill="rgb(35, 31, 32)" opacity="1.0"/>
    <path d="M 86.8248291015625 80.17868041992188 C 86.8248291015625 80.17868041992188 86.8248291015625 80.17868041992188 86.8248291015625 80.17868041992188 C 76.04501342773438 80.65794372558594 68.171875 88.64448547363281 67.85176086425781 99.43070983886719 C 67.85176086425781 102.54228210449219 67.85176086425781 105.65384674072266 67.85176086425781 108.76541900634766 C 68.35115051269531 115.48062133789062 72.82368469238281 119.95315551757812 79.53981018066406 120.45254516601562 C 84.3946533203125 120.45254516601562 89.25041961669922 120.45254516601562 94.10619354248047 120.45254516601562 C 100.82139587402344 119.95315551757812 105.29393005371094 115.48062133789062 105.79331970214844 108.76541900634766 C 105.79331970214844 105.65384674072266 105.79331970214844 102.54228210449219 105.79331970214844 99.43070983886719 C 105.47320556640625 88.64631652832031 97.60281372070312 80.65885925292969 86.8248291015625 80.17868041992188 C 86.8248291015625 80.17868041992188 86.8248291015625 80.17868041992188 86.8248291015625 80.17868041992188" stroke-width="0.0" fill="rgb(35, 31, 32)" opacity="1.0"/>
    <path d="M 54.05366516113281 162.14773559570312 C 54.05366516113281 162.14773559570312 54.05366516113281 162.14773559570312 54.05366516113281 162.14773559570312 C 52.69086456298828 162.71206665039062 50.935699462890625 163.97882080078125 52.603973388671875 165.64529418945312 C 52.974403381347656 166.01480102539062 53.57073974609375 166.0440673828125 54.05366516113281 166.2434539794922 C 75.90689849853516 166.2434539794922 97.7601318359375 166.2434539794922 119.61337280273438 166.2434539794922 C 120.09629821777344 166.0440673828125 120.69263458251953 166.01480102539062 121.06214141845703 165.64529418945312 C 122.73133850097656 163.97882080078125 120.97616577148438 162.71206665039062 119.61337280273438 162.14773559570312 C 97.7601318359375 162.14773559570312 75.90689849853516 162.14773559570312 54.05366516113281 162.14773559570312" stroke-width="0.0" fill="rgb(35, 31, 31)" opacity="1.0"/>
    <path d="M 54.05366516113281 139.4182891845703 C 54.05366516113281 139.4182891845703 54.05366516113281 139.4182891845703 54.05366516113281 139.4182891845703 C 52.68903350830078 139.98355102539062 50.936607360839844 141.24937438964844 52.603973388671875 142.916748046875 C 52.973487854003906 143.2871856689453 53.57073974609375 143.31735229492188 54.05366516113281 143.51766967773438 C 75.90689849853516 143.51766967773438 97.7601318359375 143.51766967773438 119.61337280273438 143.51766967773438 C 120.97708129882812 142.95242309570312 122.73042297363281 141.68658447265625 121.06214141845703 140.01829528808594 C 120.69263458251953 139.64877319335938 120.09629821777344 139.6186065673828 119.61337280273438 139.4182891845703 C 97.7601318359375 139.4182891845703 75.90689849853516 139.4182891845703 54.05366516113281 139.4182891845703" stroke-width="0.0" fill="rgb(35, 31, 32)" opacity="1.0"/>
    <path d="M 86.8248291015625 54.05778503417969 C 86.8248291015625 54.05778503417969 86.8248291015625 54.05778503417969 86.8248291015625 54.05778503417969 C 90.09280395507812 54.33674621582031 92.97479248046875 55.56143569946289 94.78942108154297 58.44617462158203 C 98.7826919555664 64.79278564453125 93.83088684082031 73.29700469970703 86.32177734375 72.89366149902344 C 79.4026107788086 72.5223159790039 75.18891906738281 64.71778869628906 78.69468688964844 58.72970962524414 C 80.4827880859375 55.67667770385742 83.43978881835938 54.36875915527344 86.8248291015625 54.05778503417969 C 86.8248291015625 54.05778503417969 86.8248291015625 54.05778503417969 86.8248291015625 54.05778503417969" stroke-width="0.0" fill="rgb(0, 160, 210)" opacity="1.0"/>
    <path d="M 86.8248291015625 84.31097412109375 C 86.8248291015625 84.31097412109375 86.8248291015625 84.31097412109375 86.8248291015625 84.31097412109375 C 95.36106872558594 84.79938507080078 101.35096740722656 90.88533020019531 101.69395446777344 99.43070983886719 C 101.69395446777344 102.54228210449219 101.69395446777344 105.65384674072266 101.69395446777344 108.76541900634766 C 101.17353057861328 113.25624084472656 98.59609985351562 115.83184051513672 94.10619354248047 116.35317993164062 C 89.25041961669922 116.35317993164062 84.3946533203125 116.35317993164062 79.53981018066406 116.35317993164062 C 75.04898071289062 115.83184051513672 72.4715576171875 113.25532531738281 71.95112609863281 108.76541900634766 C 71.95112609863281 105.65384674072266 71.95112609863281 102.54228210449219 71.95112609863281 99.43070983886719 C 72.29502868652344 90.88258361816406 78.28584289550781 84.79846954345703 86.8248291015625 84.31097412109375 C 86.8248291015625 84.31097412109375 86.8248291015625 84.31097412109375 86.8248291015625 84.31097412109375" stroke-width="0.0" fill="rgb(0, 160, 210)" opacity="1.0"/>
  </g>
</svg>
