<?xml version="1.0" ?>
<svg xmlns="http://www.w3.org/2000/svg" version="1.1" width="224" height="224">
  <defs/>
  <g>
    <path d="M 100.52592468261719 194.2820587158203 C 67.02265167236328 188.13047790527344 42.54803466796875 165.13674926757812 33.27849578857422 131.2462158203125 C 30.401634216308594 121.44134521484375 30.623550415039062 100.35702514648438 33.64073181152344 90.0716552734375 C 43.10101318359375 57.65019607543945 69.54965209960938 35.127037048339844 103.32186126708984 30.685935974121094 C 120.138427734375 28.573440551757812 138.7685089111328 32.575286865234375 153.7607421875 41.54667663574219 C 162.27828979492188 46.444793701171875 176.8342742919922 60.90713119506836 181.7096405029297 69.36204528808594 C 190.54916381835938 84.10012817382812 193.59837341308594 96.84591674804688 193.19671630859375 114.59700775146484 C 192.3838348388672 129.354736328125 190.727294921875 136.26565551757812 184.9617919921875 148.2904052734375 C 174.39300537109375 170.20005798339844 155.9244842529297 186.0064239501953 133.50283813476562 192.35826110839844 C 125.36206817626953 195.07388305664062 108.34292602539062 196.0 100.52592468261719 194.2820587158203" stroke-width="1.0" fill="rgb(33, 35, 37)" opacity="0.99101645"/>
    <path d="M 66.21005249023438 123.32302856445312 L 35.59321594238281 123.4877700805664 L 34.62733459472656 110.85814666748047 C 36.05302429199219 85.65179443359375 44.51544952392578 66.43778991699219 65.69563293457031 49.86653137207031 C 94.43264770507812 28.0 134.25570678710938 28.974761962890625 161.97108459472656 52.2044792175293 C 181.07839965820312 68.38978576660156 189.70669555664062 88.97756958007812 189.62107849121094 113.56009674072266 L 188.90740966796875 123.17140197753906 L 155.36489868164062 123.30722045898438 C 139.06459045410156 123.068359375 124.80290985107422 123.22313690185547 124.16436767578125 122.4592514038086 C 122.88237762451172 122.16775512695312 123.6473617553711 117.34963989257812 126.02143096923828 111.29762268066406 C 123.73714447021484 99.17939758300781 118.46600341796875 88.73684692382812 111.98690032958984 87.37190246582031 C 111.8155746459961 89.4075927734375 109.861572265625 91.81050109863281 106.3334732055664 93.5008544921875 C 104.40496063232422 100.36099243164062 102.31690216064453 110.79598236083984 103.42304229736328 118.82798767089844 L 103.22130584716797 122.15536499023438 L 99.15542602539062 123.01446533203125 C 96.01322937011719 123.33386993408203 81.22726440429688 123.04994201660156 66.21005249023438 123.32302856445312" stroke-width="0.0" fill="rgb(252, 253, 253)" opacity="0.99511296"/>
    <path d="M 111.6822280883789 128.4265899658203 C 108.54702758789062 127.81221008300781 108.49374389648438 127.48988342285156 108.32481384277344 121.81533813476562 C 107.77490234375 114.33846282958984 109.25444030761719 104.24805450439453 111.74724578857422 98.67607116699219 C 113.20189666748047 95.41728210449219 113.5238265991211 94.96050262451172 114.62223052978516 96.47798156738281 C 117.1690444946289 99.28340148925781 118.39669036865234 105.2147216796875 118.99185180664062 117.2767105102539 L 119.67274475097656 129.40704345703125 L 117.11908721923828 129.30918884277344 C 115.92597198486328 129.14549255371094 113.1939468383789 128.82723999023438 111.6822280883789 128.4265899658203" stroke-width="1.0" fill="rgb(102, 17, 11)" opacity="0.9943128"/>
    <path d="M 49.187286376953125 157.2731170654297 C 44.51091003417969 151.24375915527344 37.041961669921875 133.7578887939453 36.976036071777344 128.79385375976562 C 37.21892547607422 126.5825424194336 37.3353271484375 126.86839294433594 66.34667205810547 126.93780517578125 L 95.93482971191406 127.07686614990234 L 88.0317153930664 129.78005981445312 C 73.41351318359375 134.13856506347656 63.28733825683594 141.14126586914062 53.72751998901367 153.3727569580078 C 51.010101318359375 157.2982940673828 49.75920867919922 158.35025024414062 49.187286376953125 157.2731170654297" stroke-width="1.0" fill="rgb(1, 141, 187)" opacity="0.9931301"/>
    <path d="M 96.1532974243164 189.51309204101562 C 88.22564697265625 187.78359985351562 81.1392593383789 185.06170654296875 73.3173599243164 180.1507568359375 C 66.0790023803711 175.96641540527344 53.78131866455078 164.519287109375 53.3775520324707 161.97642517089844 C 53.2081298828125 161.04393005371094 61.56101608276367 160.41578674316406 99.12213134765625 159.89041137695312 C 152.1031494140625 161.14749145507812 170.93746948242188 161.9060516357422 170.96435546875 162.08689880371094 C 170.42364501953125 165.59222412109375 156.24722290039062 178.02224731445312 149.55908203125 181.49636840820312 C 138.4953155517578 187.71340942382812 128.62533569335938 190.5191650390625 115.36632537841797 191.44692993164062 C 107.26641845703125 191.20950317382812 100.4618148803711 190.71060180664062 96.1532974243164 189.51309204101562" stroke-width="0.0" fill="rgb(249, 170, 21)" opacity="0.99459594"/>
    <path d="M 69.12451171875 113.83856964111328 C 67.38339233398438 112.85575103759766 66.45719909667969 110.11373901367188 66.60899353027344 105.52214813232422 C 67.11348724365234 97.0833969116211 69.09761047363281 91.20307922363281 77.08280944824219 84.59050750732422 C 82.95043182373047 80.09199523925781 88.3658447265625 77.25421142578125 99.81336212158203 77.8299331665039 L 106.185546875 79.47575378417969 L 110.98270416259766 71.57896423339844 C 119.82669830322266 62.707679748535156 127.84656524658203 59.099143981933594 140.57394409179688 60.04690170288086 C 142.7576904296875 60.852806091308594 145.1341552734375 62.4888916015625 146.40065002441406 63.12451171875 L 149.4989013671875 66.35098266601562 L 143.56117248535156 70.38128662109375 L 139.6734619140625 74.41000366210938 L 143.3757781982422 75.6276626586914 C 153.68638610839844 79.44590759277344 161.92205810546875 89.97772216796875 162.2513427734375 100.28343200683594 C 163.09555053710938 107.60501861572266 161.585205078125 111.36065673828125 156.84274291992188 112.38890838623047 C 153.53353881835938 112.20925903320312 152.55844116210938 111.30689239501953 148.7002716064453 104.93375396728516 C 144.462158203125 99.06363677978516 142.3973388671875 99.25011444091797 137.0701904296875 97.83848571777344 C 133.83819580078125 99.30291748046875 131.6444091796875 101.29676818847656 130.06765747070312 107.69963836669922 L 131.21951293945312 112.6032485961914 L 127.22987365722656 113.00948333740234 L 124.06095886230469 112.28274536132812 L 121.79633331298828 106.3135986328125 C 122.5546875 98.33399200439453 118.1002426147461 88.52018737792969 112.5318832397461 88.83987426757812 C 110.98152160644531 88.51325988769531 106.8811264038086 97.7933578491211 105.0429458618164 103.9276123046875 C 104.16081237792969 114.53797912597656 102.94995880126953 115.68570709228516 99.2707748413086 115.15030670166016 C 96.3201904296875 114.8485107421875 96.25013732910156 114.45074462890625 97.61456298828125 110.05963897705078 L 96.42628479003906 104.33002471923828 L 91.08294677734375 101.95133209228516 C 86.40897369384766 102.89068603515625 83.76658630371094 102.98563385009766 79.65310668945312 108.79215240478516 C 76.28929138183594 117.04695892333984 71.66864013671875 117.49609375 69.12451171875 113.83856964111328" stroke-width="0.0" fill="rgb(2, 75, 94)" opacity="0.9680189"/>
    <path d="M 57.54707336425781 155.27130126953125 C 69.88168334960938 139.60350036621094 84.96360778808594 131.90061950683594 103.10755920410156 131.82696533203125 C 112.36983489990234 131.84146118164062 120.94654083251953 133.79632568359375 128.63172912597656 138.12948608398438 C 135.86265563964844 142.06016540527344 140.65968322753906 146.03857421875 148.33001708984375 154.95233154296875 L 154.42518615722656 161.7683563232422 L 52.58221435546875 161.666748046875 L 57.54707336425781 155.27130126953125" stroke-width="1.0" fill="rgb(250, 129, 80)" opacity="0.9945158"/>
    <path d="M 128.02145385742188 133.40057373046875 L 123.35725402832031 131.25674438476562 L 123.05146026611328 118.24899291992188 C 122.51593017578125 105.35993957519531 121.27214813232422 99.56626892089844 116.94993591308594 92.89595031738281 L 114.8811264038086 88.99627685546875 L 117.92945098876953 85.79267120361328 C 123.89271545410156 79.4248046875 133.9637451171875 77.29408264160156 141.7718963623047 80.84025573730469 C 149.17506408691406 84.09649658203125 155.48211669921875 92.28651428222656 156.78738403320312 100.6901626586914 C 157.64297485351562 104.8555679321289 155.89178466796875 107.79547119140625 154.4889678955078 103.94664001464844 C 154.3032684326172 102.89363861083984 152.19847106933594 100.1930923461914 149.76759338378906 98.08868408203125 C 144.85787963867188 93.5526351928711 139.46983337402344 91.97151947021484 135.00221252441406 93.9894027709961 L 132.67755126953125 95.20367431640625 L 132.84613037109375 115.56603240966797 C 132.68922424316406 126.8536376953125 132.71060180664062 136.25694274902344 132.07028198242188 135.77171325683594 C 132.4707794189453 135.96214294433594 130.4353485107422 134.94175720214844 128.02145385742188 133.40057373046875" stroke-width="1.0" fill="rgb(61, 171, 136)" opacity="0.99095154"/>
    <path d="M 94.91934204101562 116.21028900146484 C 95.3961181640625 96.81642150878906 95.18867492675781 96.43893432617188 88.28022003173828 97.35346984863281 C 83.52737426757812 98.47370910644531 78.74021911621094 101.47154235839844 75.02975463867188 106.1145248413086 L 72.07487487792969 109.97542572021484 L 72.15670776367188 105.59972381591797 C 71.80378723144531 90.46471405029297 90.22388458251953 78.89537048339844 104.71442413330078 84.96812438964844 C 112.27916717529297 88.00350189208984 112.26738739013672 88.90225219726562 108.92991638183594 95.79497528076172 C 106.44306945800781 100.88440704345703 105.89036560058594 104.09168243408203 104.79046630859375 115.00823974609375 L 104.10911560058594 128.15133666992188 L 95.31934356689453 128.17681884765625 L 94.91934204101562 116.21028900146484" stroke-width="1.0" fill="rgb(59, 170, 135)" opacity="1.0"/>
    <path d="M 116.70246124267578 74.41162109375 C 116.79714965820312 72.31442260742188 125.31944274902344 67.09767150878906 130.78875732421875 65.96168518066406 C 134.52978515625 65.17999267578125 137.4608612060547 65.14031982421875 141.28005981445312 66.2532958984375 C 144.13763427734375 66.95903015136719 146.07562255859375 67.18782043457031 146.46542358398438 67.47023010253906 C 146.34661865234375 67.75885009765625 145.0853271484375 69.45941162109375 143.2924346923828 71.01287841796875 C 140.71539306640625 73.69606018066406 139.75868225097656 73.60763549804688 132.28964233398438 73.52093505859375 C 128.13624572753906 73.57084655761719 122.73265075683594 74.42475891113281 120.71504211425781 74.6039810180664 C 118.10575866699219 75.10758972167969 116.76380920410156 75.20933532714844 116.70246124267578 74.41162109375" stroke-width="1.0" fill="rgb(65, 170, 132)" opacity="0.94705296"/>
    <path d="M 148.78985595703125 150.1920928955078 C 144.7108917236328 145.23182678222656 139.4635009765625 140.0223388671875 136.55914306640625 138.7392120361328 C 132.2810821533203 135.8122100830078 131.83860778808594 134.97872924804688 131.76307678222656 131.4263916015625 L 131.92405700683594 126.92507934570312 L 159.90960693359375 126.93379211425781 C 175.5816650390625 126.83472442626953 187.94873046875 127.12236022949219 187.83651733398438 127.40097045898438 C 187.95205688476562 131.96200561523438 180.9995880126953 148.77003479003906 176.60153198242188 155.50083923339844 C 174.7587127685547 158.03965759277344 174.36627197265625 158.12701416015625 165.55581665039062 158.23489379882812 L 156.11782836914062 158.50079345703125 L 148.78985595703125 150.1920928955078" stroke-width="1.0" fill="rgb(0, 141, 189)" opacity="0.99615896"/>
  </g>
</svg>
