<?xml version="1.0" ?>
<svg xmlns="http://www.w3.org/2000/svg" version="1.1" width="224" height="224">
  <defs/>
  <g>
    <path d="M 44.79927062988281 49.00045394897461 C 44.79927062988281 49.00045394897461 44.79927062988281 49.00045394897461 44.79927062988281 49.00045394897461 C 35.30073547363281 49.51614761352539 28.51568603515625 56.30030059814453 27.999984741210938 65.79972839355469 C 27.999984741210938 75.59976196289062 27.999984741210938 85.39979553222656 27.999984741210938 95.19982147216797 C 32.215553283691406 95.4293212890625 36.055824279785156 96.66410827636719 39.24090576171875 99.54138946533203 C 47.556854248046875 107.05363464355469 46.11956024169922 120.82894134521484 36.46263122558594 126.4970932006836 C 33.817543029785156 128.04959106445312 31.024864196777344 128.63458251953125 27.999984741210938 128.79928588867188 C 27.999984741210938 138.5993194580078 27.999984741210938 148.3993377685547 27.999984741210938 158.19937133789062 C 28.51568603515625 167.6988067626953 35.299835205078125 174.48385620117188 44.79927062988281 174.99954223632812 C 77.69943237304688 174.99954223632812 110.59960174560547 174.99954223632812 143.49977111816406 174.99954223632812 C 143.74815368652344 173.25537109375 144.09286499023438 171.886474609375 145.38975524902344 170.58958435058594 C 148.3075408935547 167.67271423339844 153.10989379882812 168.34950256347656 155.21319580078125 171.8729705810547 C 155.9871826171875 173.1698760986328 155.890869140625 173.53704833984375 156.0996856689453 174.99954223632812 C 163.80003356933594 174.99954223632812 171.5003662109375 174.99954223632812 179.20071411132812 174.99954223632812 C 188.69924926757812 174.48385620117188 195.48428344726562 167.6988067626953 196.0 158.19937133789062 C 196.0 148.3993377685547 196.0 138.5993194580078 196.0 128.79928588867188 C 192.97421264648438 128.63458251953125 190.18243408203125 128.04959106445312 187.537353515625 126.4970932006836 C 177.8804168701172 120.82984161376953 176.44313049316406 107.05363464355469 184.7590789794922 99.54138946533203 C 187.9432373046875 96.66321563720703 191.78350830078125 95.4293212890625 196.0 95.19982147216797 C 196.0 85.39979553222656 196.0 75.59976196289062 196.0 65.79972839355469 C 195.48428344726562 56.30030059814453 188.69924926757812 49.51614761352539 179.20071411132812 49.00045394897461 C 171.5003662109375 49.00045394897461 163.80003356933594 49.00045394897461 156.0996856689453 49.00045394897461 C 155.85128784179688 50.74464416503906 155.50567626953125 52.113529205322266 154.20968627929688 53.40951919555664 C 151.29190063476562 56.32640075683594 146.4895477294922 55.64960479736328 144.38626098632812 52.126129150390625 C 143.61227416992188 50.830142974853516 143.7085723876953 50.46294021606445 143.49977111816406 49.00045394897461 C 110.59960174560547 49.00045394897461 77.69943237304688 49.00045394897461 44.79927062988281 49.00045394897461" stroke-width="0.0" fill="rgb(255, 167, 38)" opacity="1.0"/>
    <path d="M 149.7997283935547 147.70004272460938 C 149.7997283935547 147.70004272460938 149.7997283935547 147.70004272460938 149.7997283935547 147.70004272460938 C 152.08030700683594 148.02584838867188 153.96849060058594 148.78814697265625 155.21319580078125 150.87432861328125 C 157.6251678466797 154.91619873046875 154.50848388671875 160.30087280273438 149.7997283935547 160.30087280273438 C 145.09095764160156 160.30087280273438 141.97427368164062 154.91619873046875 144.38626098632812 150.87432861328125 C 145.63095092773438 148.78814697265625 147.51913452148438 148.02584838867188 149.7997283935547 147.70004272460938 C 149.7997283935547 147.70004272460938 149.7997283935547 147.70004272460938 149.7997283935547 147.70004272460938" stroke-width="0.0" fill="rgb(255, 254, 254)" opacity="1.0"/>
    <path d="M 149.7997283935547 126.70140075683594 C 149.7997283935547 126.70140075683594 149.7997283935547 126.70140075683594 149.7997283935547 126.70140075683594 C 152.08030700683594 127.0271987915039 153.96849060058594 127.78948974609375 155.21319580078125 129.87567138671875 C 157.6251678466797 133.9175567626953 154.50848388671875 139.30221557617188 149.7997283935547 139.30221557617188 C 145.09095764160156 139.30221557617188 141.97427368164062 133.9175567626953 144.38626098632812 129.87567138671875 C 145.63095092773438 127.78948974609375 147.51913452148438 127.0271987915039 149.7997283935547 126.70140075683594 C 149.7997283935547 126.70140075683594 149.7997283935547 126.70140075683594 149.7997283935547 126.70140075683594" stroke-width="0.0" fill="rgb(255, 254, 254)" opacity="1.0"/>
    <path d="M 149.7997283935547 105.70364379882812 C 149.7997283935547 105.70364379882812 149.7997283935547 105.70364379882812 149.7997283935547 105.70364379882812 C 152.08030700683594 106.0294418334961 153.96849060058594 106.79084014892578 155.21319580078125 108.87702178955078 C 157.6251678466797 112.91889190673828 154.50848388671875 118.30355834960938 149.7997283935547 118.30265808105469 C 145.09095764160156 118.30265808105469 141.97427368164062 112.91889190673828 144.38626098632812 108.87702178955078 C 145.63095092773438 106.79084014892578 147.51913452148438 106.0294418334961 149.7997283935547 105.70364379882812 C 149.7997283935547 105.70364379882812 149.7997283935547 105.70364379882812 149.7997283935547 105.70364379882812" stroke-width="0.0" fill="rgb(255, 254, 254)" opacity="1.0"/>
    <path d="M 149.7997283935547 84.70409393310547 C 149.7997283935547 84.70409393310547 149.7997283935547 84.70409393310547 149.7997283935547 84.70409393310547 C 152.08030700683594 85.02989196777344 153.96849060058594 85.79219055175781 155.21319580078125 87.87837219238281 C 157.6251678466797 91.92024993896484 154.50848388671875 97.3049087524414 149.7997283935547 97.3049087524414 C 145.09095764160156 97.3049087524414 141.97427368164062 91.92024993896484 144.38626098632812 87.87837219238281 C 145.63095092773438 85.79219055175781 147.51913452148438 85.02989196777344 149.7997283935547 84.70409393310547 C 149.7997283935547 84.70409393310547 149.7997283935547 84.70409393310547 149.7997283935547 84.70409393310547" stroke-width="0.0" fill="rgb(255, 254, 254)" opacity="1.0"/>
    <path d="M 149.7997283935547 63.705448150634766 C 149.7997283935547 63.705448150634766 149.7997283935547 63.705448150634766 149.7997283935547 63.705448150634766 C 152.08030700683594 64.03125 153.96849060058594 64.79354095458984 155.21319580078125 66.87973022460938 C 157.6251678466797 70.92160034179688 154.50848388671875 76.30625915527344 149.7997283935547 76.30625915527344 C 145.09095764160156 76.30625915527344 141.97427368164062 70.92160034179688 144.38626098632812 66.87973022460938 C 145.63095092773438 64.79354095458984 147.51913452148438 64.03125 149.7997283935547 63.705448150634766 C 149.7997283935547 63.705448150634766 149.7997283935547 63.705448150634766 149.7997283935547 63.705448150634766" stroke-width="0.0" fill="rgb(255, 254, 254)" opacity="1.0"/>
  </g>
</svg>
