<?xml version="1.0" ?>
<svg xmlns="http://www.w3.org/2000/svg" version="1.1" width="224" height="224">
  <defs/>
  <g>
    <path d="M 83.99966430664062 28.0 C 65.33344268798828 34.222076416015625 46.666221618652344 40.44415283203125 27.99999237060547 46.666221618652344 C 27.99999237060547 96.44381713867188 27.99999237060547 146.222412109375 27.99999237060547 196.0 C 46.666221618652344 189.77792358398438 65.33344268798828 183.55584716796875 83.99966430664062 177.33277893066406 C 102.66588592529297 183.55584716796875 121.3331069946289 189.77792358398438 139.99932861328125 196.0 C 158.66656494140625 189.77792358398438 177.332763671875 183.55584716796875 196.0 177.33277893066406 C 196.0 127.55519104003906 196.0 77.77759552001953 196.0 28.0 C 177.332763671875 34.222076416015625 158.66656494140625 40.44415283203125 139.99932861328125 46.666221618652344 C 121.3331069946289 40.44415283203125 102.66588592529297 34.222076416015625 83.99966430664062 28.0" stroke-width="0.0" fill="rgb(255, 236, 179)" opacity="1.0" stroke="rgb(0, 0, 0)" stroke-opacity="1.0" stroke-linecap="round" stroke-linejoin="round"/>
    <path d="M 83.99966430664062 28.0 C 83.99966430664062 77.77759552001953 83.99966430664062 127.55519104003906 83.99966430664062 177.33277893066406 C 102.66588592529297 183.55584716796875 121.3331069946289 189.77792358398438 139.99932861328125 196.0 C 139.99932861328125 146.222412109375 139.99932861328125 96.44381713867188 139.99932861328125 46.666221618652344 C 121.3331069946289 40.44415283203125 102.66588592529297 34.222076416015625 83.99966430664062 28.0" stroke-width="0.0" fill="rgb(255, 224, 129)" opacity="1.0" stroke="rgb(0, 0, 0)" stroke-opacity="1.0" stroke-linecap="round" stroke-linejoin="round"/>
    <path d="M 137.91831970214844 74.66455841064453 C 137.91831970214844 74.66455841064453 137.91831970214844 74.66455841064453 137.91831970214844 74.66455841064453 C 148.15841674804688 74.89256286621094 158.93556213378906 78.3196029663086 162.2646026611328 89.12373352050781 C 163.0286102294922 91.60376739501953 163.3446044921875 94.22379302978516 163.33160400390625 96.81382751464844 C 163.31961059570312 99.3278579711914 162.8756103515625 101.8128890991211 161.94659423828125 104.15290832519531 C 160.19757080078125 108.55696105957031 156.89852905273438 112.06501007080078 153.5865020751953 115.3470458984375 C 152.0494842529297 116.79705810546875 150.512451171875 118.24707794189453 148.9764404296875 119.69709777832031 C 146.24440002441406 122.57813262939453 144.69338989257812 125.43817138671875 144.0133819580078 129.36019897460938 C 143.93637084960938 130.5082244873047 143.859375 131.65623474121094 143.78237915039062 132.8042449951172 C 138.92330932617188 132.8042449951172 134.06427001953125 132.8042449951172 129.20420837402344 132.8042449951172 C 129.33421325683594 125.78016662597656 130.3432159423828 119.43408966064453 135.1552734375 114.02003479003906 C 139.538330078125 109.08796691894531 146.87442016601562 105.03192138671875 146.80941772460938 97.54383087158203 C 146.78741455078125 95.02880096435547 146.37339782714844 92.29777526855469 144.58639526367188 90.37774658203125 C 141.3103485107422 86.85570526123047 134.43026733398438 87.24571228027344 131.1752166748047 90.56275177001953 C 129.2222137451172 92.55377197265625 128.78318786621094 95.00180053710938 128.5251922607422 97.66083526611328 C 123.01612854003906 97.66083526611328 117.50706481933594 97.66083526611328 111.99800109863281 97.66083526611328 C 112.11299896240234 94.9728012084961 112.35700225830078 92.35877227783203 113.17701721191406 89.77873992919922 C 116.6550521850586 78.84761047363281 127.3891830444336 74.91355895996094 137.91831970214844 74.66455841064453 C 137.91831970214844 74.66455841064453 137.91831970214844 74.66455841064453 137.91831970214844 74.66455841064453" stroke-width="0.0" fill="rgb(156, 39, 176)" opacity="1.0" stroke="rgb(0, 0, 0)" stroke-opacity="1.0" stroke-linecap="round" stroke-linejoin="round"/>
    <path d="M 136.78329467773438 141.4483642578125 C 136.78329467773438 141.4483642578125 136.78329467773438 141.4483642578125 136.78329467773438 141.4483642578125 C 139.2953338623047 141.6483612060547 141.51535034179688 142.0963592529297 143.41937255859375 143.89239501953125 C 146.84042358398438 147.11741638183594 146.91741943359375 152.99349975585938 143.4823760986328 156.2415313720703 C 141.6673583984375 157.95855712890625 139.24432373046875 158.6625518798828 136.7863006591797 158.6625518798828 C 134.32327270507812 158.6625518798828 131.90423583984375 157.95455932617188 130.08621215820312 156.2335205078125 C 126.65817260742188 152.9875030517578 126.7281723022461 147.1144256591797 130.14520263671875 143.89239501953125 C 132.05223083496094 142.0943603515625 134.26727294921875 141.64735412597656 136.78329467773438 141.4483642578125 C 136.78329467773438 141.4483642578125 136.78329467773438 141.4483642578125 136.78329467773438 141.4483642578125" stroke-width="0.0" fill="rgb(156, 39, 176)" opacity="1.0" stroke="rgb(0, 0, 0)" stroke-opacity="1.0" stroke-linecap="round" stroke-linejoin="round"/>
  </g>
</svg>
