<?xml version="1.0" ?>
<svg xmlns="http://www.w3.org/2000/svg" version="1.1" width="224" height="224">
  <defs/>
  <g>
    <path d="M 62.000484466552734 174.84359741210938 C 52.51487350463867 172.65725708007812 44.835975646972656 165.73095703125 40.26863098144531 155.4990997314453 C 36.71710205078125 148.3732452392578 30.729331970214844 127.53279876708984 29.37511444091797 118.73158264160156 C 28.00000762939453 110.47765350341797 28.75318145751953 105.11195373535156 34.224769592285156 85.81257629394531 C 38.519065856933594 69.70283508300781 41.95231628417969 62.82201385498047 47.33698272705078 57.89815139770508 C 52.762821197509766 52.60736846923828 58.3672981262207 50.303428649902344 68.6636734008789 49.046607971191406 C 79.46159362792969 47.802085876464844 147.13136291503906 47.79364776611328 156.88551330566406 49.11431884765625 C 165.5171356201172 50.392173767089844 171.83688354492188 53.450355529785156 177.04867553710938 58.62565612792969 C 182.57681274414062 64.10658264160156 185.56124877929688 70.22945404052734 189.8076171875 85.724609375 C 195.20388793945312 103.88861083984375 196.0 110.29728698730469 194.43246459960938 118.75310516357422 C 193.02194213867188 127.48204040527344 186.6808624267578 149.20230102539062 183.52206420898438 156.03036499023438 C 180.42323303222656 163.37588500976562 173.9417724609375 170.19412231445312 167.56185913085938 173.12925720214844 L 161.92584228515625 175.63607788085938 L 114.13481140136719 176.07736206054688 C 87.56401824951172 176.2063446044922 64.289794921875 175.77316284179688 62.000484466552734 174.84359741210938" stroke-width="1.0" fill="rgb(255, 36, 28)" opacity="0.9965879"/>
    <path d="M 112.03851318359375 154.59646606445312 C 112.34400939941406 154.49807739257812 112.22018432617188 134.1678466796875 111.6390151977539 111.30416870117188 L 112.42511749267578 68.5523452758789 L 155.99502563476562 68.49866485595703 L 156.10142517089844 156.11012268066406 L 134.5013885498047 155.81680297851562 C 117.72532653808594 156.0706329345703 112.4024887084961 155.799560546875 112.03851318359375 154.59646606445312" stroke-width="0.0" fill="rgb(236, 232, 241)" opacity="0.9860563"/>
    <path d="M 67.6658935546875 155.28353881835938 C 67.645263671875 154.0531005859375 67.44635009765625 134.5301055908203 67.47903442382812 111.3228530883789 L 67.66771697998047 68.95123291015625 L 89.44430541992188 68.6797866821289 C 101.50931549072266 68.521728515625 111.5184326171875 68.70272827148438 111.98564147949219 69.38421630859375 C 112.57220458984375 70.41705322265625 112.6378173828125 152.81756591796875 112.05754852294922 155.27139282226562 C 111.30659484863281 156.7702178955078 68.36222839355469 156.7421875 67.6658935546875 155.28353881835938" stroke-width="0.0" fill="rgb(254, 204, 0)" opacity="0.99304634"/>
    <path d="M 111.38574981689453 147.0103302001953 C 110.93095397949219 146.14190673828125 110.11512756347656 145.45635986328125 109.42841339111328 145.2225341796875 C 106.46316528320312 145.23255920410156 102.05440521240234 141.00192260742188 102.37287139892578 138.36570739746094 C 102.2921142578125 136.66197204589844 103.12313842773438 135.1514892578125 106.48612976074219 133.1449432373047 C 108.7192611694336 132.06143188476562 111.07105255126953 130.00535583496094 111.52519989013672 128.78062438964844 C 112.37425231933594 127.65067291259766 112.80567932128906 118.46849060058594 112.50691223144531 107.23307800292969 L 112.57601165771484 87.05873107910156 L 115.22269439697266 85.91109466552734 C 123.6231689453125 82.00068664550781 134.32371520996094 82.14007568359375 140.10690307617188 86.27830505371094 C 148.37899780273438 91.6144027709961 150.82444763183594 104.39942932128906 145.122314453125 112.8353042602539 C 140.9791259765625 118.50411224365234 113.96481323242188 148.8575439453125 113.17350769042969 148.74383544921875 C 112.38217163085938 148.66464233398438 111.74018859863281 147.93284606933594 111.38574981689453 147.0103302001953" stroke-width="1.0" fill="rgb(47, 63, 64)" opacity="0.9934989"/>
  </g>
</svg>
