<?xml version="1.0" ?>
<svg xmlns="http://www.w3.org/2000/svg" version="1.1" width="224" height="224">
  <defs/>
  <g>
    <path d="M 130.9459228515625 55.27699279785156 C 126.87432861328125 54.23771286010742 125.59687042236328 50.00414276123047 125.98554992675781 42.330963134765625 C 125.79638671875 38.44166564941406 126.09500122070312 33.96185302734375 126.86693572998047 32.360107421875 L 127.26670837402344 29.391510009765625 L 143.17019653320312 29.00489044189453 L 143.02943420410156 38.36712646484375 C 143.23455810546875 44.704715728759766 142.94956970214844 50.04910659790039 143.05252075195312 51.621089935302734 C 141.00375366210938 55.9898681640625 134.5315399169922 57.586177825927734 130.9459228515625 55.27699279785156" stroke-width="1.0" fill="rgb(249, 163, 16)" opacity="0.995756"/>
    <path d="M 81.48948669433594 54.28133773803711 C 78.84676361083984 51.473690032958984 78.46663665771484 51.25474166870117 78.24365234375 43.923152923583984 C 78.930908203125 39.50978469848633 79.54269409179688 34.46685791015625 79.85865020751953 32.55223846435547 L 80.7089614868164 29.326255798339844 L 88.26839447021484 29.26782989501953 L 95.8216781616211 29.575157165527344 L 95.98017883300781 38.64898681640625 C 96.32654571533203 49.5147590637207 95.13702392578125 53.5002326965332 91.09712219238281 54.91144943237305 C 87.95309448242188 56.945030212402344 83.86044311523438 56.504432678222656 81.48948669433594 54.28133773803711" stroke-width="1.0" fill="rgb(249, 163, 16)" opacity="0.99614084"/>
    <path d="M 29.09210968017578 195.26254272460938 C 29.48504638671875 193.33172607421875 32.44512939453125 180.1104736328125 36.37561798095703 164.99705505371094 C 48.79306411743164 113.89973449707031 56.652687072753906 81.66848754882812 59.18218231201172 70.64015197753906 C 60.20246887207031 65.76986694335938 61.32090759277344 61.3021354675293 61.82035827636719 59.43928909301758 C 62.07332229614258 57.855281829833984 63.99949645996094 50.853641510009766 65.50930786132812 43.663204193115234 C 66.88064575195312 36.609886169433594 68.74551391601562 30.32953643798828 68.92882537841797 28.357345581054688 C 70.48051452636719 28.075225830078125 79.1053237915039 28.40947723388672 80.85903930664062 28.18897247314453 C 79.92150115966797 31.39453125 79.94972229003906 32.957862854003906 77.01747131347656 47.160675048828125 C 75.35971069335938 52.871498107910156 74.25867462158203 57.284027099609375 74.2473373413086 59.569583892822266 C 75.7806396484375 60.342586517333984 83.05571746826172 60.60230255126953 93.14586639404297 60.91236877441406 L 109.9547119140625 59.44593048095703 L 110.97298431396484 53.58125686645508 C 111.26406860351562 51.282371520996094 112.75221252441406 45.00746154785156 113.64222717285156 39.85122299194336 C 114.44459533691406 34.92022705078125 115.4984359741211 30.350196838378906 115.90528869628906 28.692893981933594 C 117.81840515136719 28.375778198242188 125.99413299560547 28.406959533691406 127.84414672851562 28.619773864746094 C 126.92415618896484 31.339706420898438 126.57138061523438 35.188621520996094 125.80042266845703 39.46757125854492 L 124.12649536132812 49.05941390991211 L 124.92066955566406 52.76534652709961 C 130.90750122070312 58.98841857910156 136.1852264404297 59.47515869140625 142.15713500976562 54.76181411743164 C 141.9866485595703 51.01289749145508 142.99807739257812 48.97861862182617 145.95956420898438 43.3416748046875 C 145.06422424316406 37.77381134033203 143.6955108642578 34.342140197753906 143.30601501464844 30.07636260986328 C 143.167236328125 28.30327606201172 144.387939453125 28.02886962890625 150.605224609375 28.414024353027344 C 156.67141723632812 27.99999237060547 155.48431396484375 28.462623596191406 157.195068359375 37.63624572753906 C 158.04295349121094 42.23448944091797 167.63490295410156 82.8731689453125 168.97935485839844 87.8993911743164 C 169.2822723388672 89.79508972167969 170.72525024414062 95.95247650146484 172.10916137695312 101.63279724121094 C 173.50665283203125 107.29999542236328 175.2996063232422 114.10765075683594 175.77590942382812 116.5790786743164 C 176.5023651123047 119.18059539794922 178.89083862304688 129.26943969726562 181.01998901367188 138.7908172607422 C 185.89923095703125 159.28564453125 189.00701904296875 171.09934997558594 191.51858520507812 180.89108276367188 C 192.73837280273438 185.10438537597656 193.7953643798828 190.73866271972656 194.9078826904297 193.21676635742188 L 194.85594177246094 195.4880828857422 L 189.48379516601562 195.2967529296875 C 183.02969360351562 195.5672607421875 182.86715698242188 196.0 182.1734619140625 190.44500732421875 C 181.31954956054688 187.85299682617188 180.35633850097656 184.71731567382812 180.02854919433594 183.55838012695312 C 178.0325927734375 183.31019592285156 170.92868041992188 183.45822143554688 140.1389923095703 183.07199096679688 C 114.10602569580078 183.21041870117188 102.84037780761719 183.53565979003906 101.13642883300781 183.54551696777344 C 101.38733673095703 183.2388458251953 100.14064025878906 186.32574462890625 99.36997985839844 189.812255859375 C 99.5648193359375 191.70542907714844 99.10432434082031 194.28598022460938 98.09315490722656 195.22763061523438 C 96.45496368408203 195.26959228515625 30.334922790527344 194.99468994140625 29.09210968017578 195.26254272460938" stroke-width="0.0" fill="rgb(0, 4, 41)" opacity="0.9955377"/>
    <path d="M 70.56330871582031 91.16572570800781 C 65.816650390625 90.46749114990234 66.83491516113281 90.40442657470703 69.08355712890625 81.48652648925781 C 71.94934844970703 69.03900146484375 71.05104064941406 68.16072082519531 74.77142333984375 66.5599365234375 C 79.66537475585938 66.34284973144531 105.68130493164062 65.91395568847656 107.66376495361328 66.51741027832031 C 108.15348052978516 69.22723388671875 107.65155792236328 73.36260223388672 105.37520599365234 83.73200225830078 C 104.51287078857422 91.67415618896484 105.65873718261719 91.05418395996094 88.72745513916016 91.04951477050781 C 81.26976776123047 90.78697204589844 73.0624771118164 90.64532470703125 70.56330871582031 91.16572570800781" stroke-width="0.0" fill="rgb(252, 254, 254)" opacity="0.99707794"/>
    <path d="M 115.9982681274414 90.20021057128906 C 116.38554382324219 88.7791976928711 117.23918151855469 83.82059478759766 118.38456726074219 78.56929779052734 L 120.1635513305664 67.83905029296875 L 136.27328491210938 66.35234832763672 L 152.36647033691406 67.41590881347656 L 152.71212768554688 69.5303726196289 C 154.12411499023438 75.29505157470703 156.61737060546875 85.41537475585938 157.1826629638672 88.05825805664062 L 157.78155517578125 91.00898742675781 L 137.04776000976562 91.07920837402344 C 120.08282470703125 90.9342041015625 115.466064453125 91.35232543945312 115.9982681274414 90.20021057128906" stroke-width="1.0" fill="rgb(251, 253, 253)" opacity="0.99428904"/>
    <path d="M 43.710819244384766 183.16348266601562 C 44.15991973876953 183.20782470703125 88.5838394165039 183.05960083007812 88.72028350830078 183.0430908203125 C 89.56658935546875 186.95037841796875 80.24321746826172 187.58343505859375 65.42257690429688 188.1747283935547 C 50.80805587768555 187.64346313476562 42.8268928527832 187.33023071289062 43.710819244384766 183.16348266601562" stroke-width="1.0" fill="rgb(245, 247, 247)" opacity="0.9691375"/>
    <path d="M 46.86207580566406 171.1746368408203 C 48.07621383666992 169.45089721679688 48.36280822753906 168.17808532714844 48.23760223388672 166.439697265625 L 49.59126281738281 159.48329162597656 L 70.49099731445312 158.580322265625 C 93.24977111816406 158.86788940429688 92.13211822509766 159.25999450683594 91.2830810546875 166.41311645507812 L 90.34471130371094 171.35650634765625 L 69.45951843261719 171.26571655273438 C 57.48685073852539 171.363525390625 46.87771224975586 171.67584228515625 46.86207580566406 171.1746368408203" stroke-width="1.0" fill="rgb(253, 255, 254)" opacity="0.9985561"/>
    <path d="M 103.21530151367188 167.93026733398438 C 103.55570220947266 165.59701538085938 106.05046081542969 149.96548461914062 108.74295043945312 132.67738342285156 L 114.14161682128906 102.71530151367188 L 160.5589599609375 102.62605285644531 L 163.28390502929688 113.0441665649414 C 164.61843872070312 118.74809265136719 168.26235961914062 133.96127319335938 171.07492065429688 146.3640594482422 C 174.15618896484375 159.25241088867188 176.81895446777344 169.90536499023438 177.0274200439453 170.95443725585938 C 176.8837890625 171.65768432617188 168.50216674804688 171.44430541992188 139.51095581054688 171.3030242919922 L 102.76448822021484 171.28976440429688 L 103.21530151367188 167.93026733398438" stroke-width="1.0" fill="rgb(252, 254, 254)" opacity="0.99594724"/>
    <path d="M 51.57638168334961 152.41824340820312 C 51.67790222167969 151.82080078125 52.525779724121094 148.23214721679688 53.871620178222656 143.70370483398438 L 55.83445739746094 134.84104919433594 L 96.61701965332031 134.93289184570312 L 95.99958801269531 138.84341430664062 C 95.87445068359375 140.09121704101562 95.04501342773438 143.8416748046875 94.86026000976562 147.02232360839844 L 93.23165130615234 154.45156860351562 L 72.27493286132812 154.489013671875 C 61.43519973754883 153.41403198242188 51.93827819824219 153.0064697265625 51.57638168334961 152.41824340820312" stroke-width="1.0" fill="rgb(254, 254, 254)" opacity="0.9989622"/>
    <path d="M 57.84151840209961 126.79521179199219 C 57.57736587524414 126.89302062988281 58.56566619873047 121.78755187988281 60.7241325378418 114.93553161621094 L 63.539222717285156 102.60438537597656 L 81.74215698242188 102.47171020507812 C 92.5671157836914 102.5023193359375 101.24047088623047 102.50716400146484 102.43276977539062 102.77532196044922 C 102.19105529785156 104.32144165039062 101.10514068603516 108.98287963867188 100.36359405517578 114.88939666748047 L 98.1558609008789 126.85183715820312 L 78.26995086669922 128.25259399414062 C 66.746337890625 127.65599060058594 57.670066833496094 127.47551727294922 57.84151840209961 126.79521179199219" stroke-width="1.0" fill="rgb(251, 254, 254)" opacity="0.9939692"/>
    <path d="M 41.74700927734375 191.04910278320312 C 42.50072479248047 188.4931640625 42.93867492675781 186.478515625 42.92172622680664 185.8020782470703 C 43.29326629638672 185.47848510742188 53.35240173339844 185.57177734375 65.896240234375 185.5935516357422 L 88.93649291992188 185.72506713867188 L 87.58232879638672 190.51895141601562 C 87.593994140625 192.3371124267578 86.86811065673828 194.28253173828125 86.97139739990234 194.53677368164062 C 87.00163269042969 195.5223388671875 76.63751220703125 195.6531219482422 64.18354797363281 194.89907836914062 L 41.397056579589844 194.50411987304688 L 41.74700927734375 191.04910278320312" stroke-width="1.0" fill="rgb(84, 102, 111)" opacity="0.94961065"/>
    <path d="M 71.91059112548828 67.14688110351562 C 72.22137451171875 66.50450134277344 72.7658462524414 64.04700469970703 73.24676513671875 61.71061706542969 L 73.97174835205078 58.0566291809082 L 92.43807983398438 57.930015563964844 C 109.11981964111328 57.857688903808594 110.1640853881836 58.10833740234375 110.0505599975586 60.19267654418945 C 110.12303161621094 60.42605209350586 109.419189453125 62.86199188232422 108.92266845703125 65.36613464355469 L 108.70365905761719 68.06170654296875 L 89.80569458007812 68.57064056396484 C 73.63341522216797 68.33257293701172 71.56108093261719 68.16506958007812 71.91059112548828 67.14688110351562" stroke-width="1.0" fill="rgb(166, 179, 189)" opacity="0.9366512"/>
    <path d="M 66.24165344238281 90.67423248291016 C 66.02239990234375 89.9538345336914 75.11173248291016 90.56889343261719 85.85005950927734 90.42791748046875 C 96.40018463134766 89.75091552734375 105.3597640991211 90.65093994140625 104.96923828125 90.90322875976562 C 104.47991180419922 91.49508666992188 96.02207946777344 91.23006439208984 85.25453186035156 91.36141204833984 C 75.20993041992188 91.50213623046875 66.52587890625 91.162841796875 66.24165344238281 90.67423248291016" stroke-width="1.0" fill="rgb(209, 217, 216)" opacity="0.9424743"/>
    <path d="M 136.36341857910156 68.11257934570312 L 120.12113189697266 67.84705352783203 L 121.22821044921875 62.79985427856445 L 121.99972534179688 57.82868576049805 L 135.05322265625 58.0865592956543 C 145.20059204101562 57.858245849609375 148.75970458984375 57.43207931518555 149.48660278320312 56.303287506103516 C 149.52171325683594 56.05570602416992 149.72109985351562 56.107601165771484 150.23568725585938 57.381893157958984 C 150.19044494628906 57.923248291015625 150.92620849609375 60.93060302734375 151.5513916015625 63.2740478515625 C 152.1771240234375 66.48622131347656 152.73580932617188 68.3780517578125 152.51763916015625 67.9544448852539 C 152.1494598388672 68.8973617553711 144.90121459960938 68.22431945800781 136.36341857910156 68.11257934570312" stroke-width="1.0" fill="rgb(173, 187, 197)" opacity="0.9185167"/>
    <path d="M 49.74415588378906 162.00299072265625 C 49.568382263183594 161.4144744873047 50.10125732421875 159.14146423339844 50.89638137817383 156.5215606689453 L 51.69105911254883 151.74192810058594 L 72.83686065673828 152.19309997558594 L 93.53173828125 152.3919677734375 L 92.86841583251953 157.2141571044922 L 92.41313934326172 162.2562255859375 L 70.92720031738281 162.35360717773438 C 59.131587982177734 162.45046997070312 49.78754425048828 162.3425750732422 49.74415588378906 162.00299072265625" stroke-width="1.0" fill="rgb(130, 148, 162)" opacity="0.97556335"/>
    <path d="M 55.57926940917969 133.90420532226562 C 56.25051498413086 133.00914001464844 56.63145446777344 130.4525909423828 57.14311981201172 128.55885314941406 L 58.05093765258789 124.44825744628906 L 78.11477661132812 125.06492614746094 C 96.30780029296875 124.8581314086914 98.24417877197266 124.88191223144531 98.42501068115234 126.37113952636719 C 98.14085388183594 127.04366302490234 97.5357666015625 129.54225158691406 97.00965118408203 132.05892944335938 L 96.64308166503906 135.55520629882812 L 76.02296447753906 134.75648498535156 C 57.43193435668945 134.89300537109375 55.11777877807617 134.60946655273438 55.57926940917969 133.90420532226562" stroke-width="1.0" fill="rgb(151, 166, 178)" opacity="0.92222834"/>
    <path d="M 122.60433959960938 54.61557388305664 C 123.47315979003906 49.53104019165039 124.9196548461914 45.94585037231445 125.10791015625 48.86171340942383 C 124.64715576171875 51.68430709838867 128.7599334716797 55.16048812866211 132.40928649902344 55.48073959350586 C 136.3630828857422 57.21023941040039 140.6813201904297 54.353797912597656 142.35719299316406 49.77231979370117 C 142.92625427246094 48.29204177856445 143.79763793945312 43.26307678222656 143.24017333984375 40.12024688720703 L 144.09024047851562 32.050209045410156 L 146.82969665527344 44.66343307495117 C 148.52407836914062 50.58946228027344 150.05064392089844 55.9339599609375 149.68141174316406 56.654991149902344 C 149.05007934570312 57.92045974731445 145.81036376953125 58.33898162841797 135.6578369140625 58.08440399169922 L 121.89767456054688 58.678993225097656 L 122.60433959960938 54.61557388305664" stroke-width="1.0" fill="rgb(251, 252, 249)" opacity="0.9833607"/>
  </g>
</svg>
