<?xml version="1.0" ?>
<svg xmlns="http://www.w3.org/2000/svg" version="1.1" width="224" height="224">
  <defs/>
  <g>
    <path d="M 121.48966217041016 184.9097900390625 C 120.33007049560547 184.75765991210938 117.4932632446289 182.76171875 115.81673431396484 181.1947021484375 C 113.2332763671875 179.03521728515625 109.61775207519531 177.03065490722656 107.42008209228516 176.5741729736328 C 104.50694274902344 174.70703125 103.7089614868164 173.696533203125 106.22061157226562 150.4383087158203 C 109.08988952636719 130.969970703125 112.3193588256836 112.4390869140625 116.11408233642578 97.84857177734375 C 118.22786712646484 92.33535766601562 120.62230682373047 84.5711669921875 121.30337524414062 80.97411346435547 C 122.656494140625 77.09378051757812 124.61174011230469 69.43093872070312 126.455810546875 63.248023986816406 C 127.22791290283203 57.5494499206543 129.17608642578125 51.321861267089844 129.64195251464844 49.62606430053711 C 130.22799682617188 48.070457458496094 131.5907440185547 43.50294494628906 132.9344940185547 39.59074401855469 C 133.99264526367188 36.015663146972656 135.3356170654297 32.68440246582031 135.11012268066406 32.10762023925781 C 136.7169189453125 31.61992645263672 138.06642150878906 33.98187255859375 139.02659606933594 37.33283996582031 C 140.46766662597656 40.801116943359375 142.85308837890625 43.256431579589844 147.41403198242188 47.04743576049805 C 158.54368591308594 51.880653381347656 160.8644561767578 56.8519287109375 161.52590942382812 62.937744140625 C 160.73780822753906 65.91709899902344 160.78143310546875 67.84355163574219 166.19239807128906 69.76959228515625 C 175.23898315429688 76.77220153808594 178.77166748046875 87.72299194335938 175.97584533691406 97.72039794921875 C 172.9517822265625 102.1219253540039 172.91726684570312 103.0165023803711 175.89520263671875 106.554443359375 C 178.61248779296875 111.72650146484375 178.75909423828125 113.58203125 175.79586791992188 119.53790283203125 L 172.1175537109375 123.73147583007812 L 175.3709259033203 127.97039794921875 C 178.61436462402344 135.1718292236328 175.38601684570312 147.1312713623047 167.2665252685547 155.09793090820312 C 162.20262145996094 157.34698486328125 161.969970703125 159.28970336914062 163.44505310058594 162.09861755371094 C 163.2385711669922 164.1560516357422 162.03536987304688 165.88168334960938 161.3637237548828 167.32275390625 C 160.0460662841797 169.6071319580078 154.9167022705078 172.46043395996094 150.5858917236328 171.13668823242188 C 148.171875 170.84426879882812 147.29763793945312 172.07452392578125 146.73849487304688 174.644775390625 C 143.85595703125 178.821533203125 140.60714721679688 180.47183227539062 135.27024841308594 179.1376495361328 C 131.52621459960938 176.74002075195312 131.72506713867188 176.72506713867188 129.61334228515625 182.153076171875 C 126.429443359375 184.8920440673828 123.87641906738281 185.57196044921875 121.48966217041016 184.9097900390625" stroke-width="0.0" fill="rgb(0, 182, 63)" opacity="0.9985625"/>
    <path d="M 92.23181915283203 160.02777099609375 C 89.95465087890625 156.34207153320312 84.80066680908203 154.49880981445312 80.75444030761719 155.04237365722656 C 76.701416015625 155.51617431640625 72.80029296875 152.49302673339844 71.82329559326172 148.73959350585938 C 72.52011108398438 146.04295349121094 71.41424560546875 143.72149658203125 68.27020263671875 145.2501678466797 C 66.39639282226562 145.10415649414062 63.633052825927734 144.32125854492188 60.83906555175781 142.6405792236328 C 58.532230377197266 139.739990234375 57.94734191894531 138.14930725097656 57.85441589355469 134.65313720703125 C 59.0327033996582 131.16635131835938 58.61703872680664 129.31626892089844 55.52031326293945 127.76180267333984 C 52.75614929199219 124.54005432128906 51.96915054321289 122.54962921142578 51.469505310058594 118.3039779663086 C 53.01616668701172 115.62355041503906 52.4349250793457 113.17720794677734 49.29292297363281 111.49703979492188 C 45.22834014892578 105.23633575439453 47.00581359863281 97.02694702148438 52.879722595214844 91.81529998779297 C 55.41956329345703 90.05282592773438 55.651771545410156 89.2276611328125 54.3858642578125 87.62190246582031 C 52.34624099731445 81.82308197021484 53.368736267089844 75.14432525634766 56.64242935180664 69.21250915527344 C 60.74236297607422 62.52454376220703 66.00741577148438 57.83951187133789 74.22747802734375 55.30725860595703 C 79.48748779296875 54.99946212768555 80.08453369140625 54.188720703125 80.46171569824219 49.81078338623047 C 83.32908630371094 44.002525329589844 85.57003021240234 41.997413635253906 93.11703491210938 42.67774200439453 C 98.11505889892578 44.26232147216797 98.67305755615234 42.15428161621094 100.947509765625 38.306663513183594 C 104.78055572509766 35.570472717285156 105.00485229492188 35.04991912841797 113.20442962646484 35.13091278076172 C 117.64421844482422 36.115447998046875 122.7974624633789 35.631072998046875 124.63628387451172 33.876983642578125 C 131.17105102539062 30.740982055664062 131.20945739746094 28.130859375 112.79816436767578 97.80751037597656 C 106.54126739501953 121.80577087402344 100.34158325195312 145.07080078125 99.08049011230469 150.0334930419922 C 97.84134674072266 155.07980346679688 95.75115966796875 159.57821655273438 96.04739379882812 162.94476318359375 C 94.12813568115234 163.61944580078125 93.36669921875 162.54855346679688 92.23181915283203 160.02777099609375" stroke-width="0.0" fill="rgb(0, 182, 64)" opacity="0.9947585"/>
    <path d="M 92.81095886230469 188.08071899414062 C 94.99190521240234 162.29336547851562 99.03892517089844 131.3211212158203 102.70053100585938 114.47120666503906 C 106.90254974365234 96.48898315429688 120.41503143310547 51.358009338378906 124.66976928710938 42.056243896484375 C 126.72237396240234 37.77522277832031 128.74691772460938 32.758331298828125 128.82492065429688 30.910484313964844 C 129.66043090820312 28.417861938476562 131.49160766601562 27.99999237060547 133.69271850585938 29.851402282714844 C 135.8607635498047 31.737083435058594 135.21218872070312 39.248626708984375 131.61370849609375 49.0447998046875 C 125.36893463134766 66.99031829833984 113.79593658447266 109.4913558959961 111.22569274902344 124.57691192626953 C 108.90327453613281 137.95590209960938 104.6828842163086 176.67425537109375 104.89038848876953 184.8880157470703 C 104.71934509277344 196.0 104.49736022949219 195.92633056640625 98.10475158691406 195.685546875 L 92.64997863769531 195.8155059814453 L 92.81095886230469 188.08071899414062" stroke-width="1.0" fill="rgb(96, 67, 9)" opacity="0.99881864"/>
  </g>
</svg>
