<?xml version="1.0" ?>
<svg xmlns="http://www.w3.org/2000/svg" version="1.1" width="224" height="224">
  <defs/>
  <g>
    <path d="M 89.45732116699219 190.47457885742188 C 88.39540100097656 189.66209411621094 85.47453308105469 185.43089294433594 82.82098388671875 180.926025390625 L 78.03912353515625 172.705078125 L 78.30000305175781 163.58026123046875 C 79.0352554321289 156.19540405273438 79.71078491210938 154.2467803955078 77.86578369140625 153.19918823242188 C 75.9119873046875 151.21315002441406 74.8218994140625 148.5560302734375 75.5589370727539 135.4991455078125 L 75.60948181152344 119.8345718383789 L 64.88829040527344 120.01229858398438 L 65.15637969970703 136.52615356445312 C 65.39421081542969 155.94625854492188 62.7579345703125 158.90106201171875 54.5964241027832 172.935302734375 C 47.03565979003906 183.82435607910156 42.88273620605469 181.92202758789062 34.853851318359375 166.04444885253906 C 29.820594787597656 155.1500701904297 28.867340087890625 154.02066040039062 29.547203063964844 124.09432983398438 C 29.08587646484375 94.15113830566406 29.593833923339844 93.4820556640625 34.40419006347656 87.36222076416016 C 38.97100830078125 82.76943969726562 42.45899963378906 80.8089599609375 53.691471099853516 81.17271423339844 C 58.806884765625 81.23728942871094 63.55133056640625 81.21512603759766 64.25055694580078 81.11698913574219 C 64.01898193359375 80.56507873535156 62.346256256103516 78.81184387207031 60.85383987426758 77.47998809814453 C 55.48957061767578 72.37034606933594 55.25373077392578 71.02423095703125 55.62574005126953 59.12734603881836 C 55.070560455322266 47.270957946777344 56.48102569580078 43.32075500488281 60.49656677246094 38.986305236816406 C 64.66032409667969 35.037193298339844 68.61927795410156 33.610328674316406 77.78067016601562 34.318450927734375 C 84.48584747314453 34.029457092285156 86.16191101074219 34.29816436767578 86.5958480834961 32.92449951171875 C 87.1488265991211 31.618606567382812 89.25431823730469 30.324417114257812 91.42853546142578 29.688316345214844 C 94.33221435546875 28.18047332763672 96.90545654296875 28.193649291992188 111.71054077148438 28.365859985351562 C 129.3507843017578 28.0 132.4550323486328 28.054908752441406 136.74095153808594 32.29811096191406 C 137.52317810058594 34.47441864013672 139.5330352783203 34.388946533203125 147.42991638183594 34.21324157714844 C 155.52423095703125 34.060577392578125 156.25350952148438 34.60564422607422 159.61163330078125 37.02247619628906 C 161.5993194580078 38.144744873046875 163.99038696289062 40.9407844543457 165.15162658691406 42.90523147583008 C 166.89540100097656 46.503868103027344 167.2921142578125 48.159881591796875 166.9265594482422 59.33736801147461 C 167.38772583007812 71.66734313964844 166.77635192871094 72.93634033203125 162.0537567138672 77.69342041015625 C 160.69520568847656 78.93894958496094 159.63174438476562 80.58067321777344 159.62326049804688 80.81626892089844 C 159.5589599609375 80.85472106933594 163.677001953125 81.01116180419922 168.7158966064453 81.36233520507812 C 180.68405151367188 80.7431411743164 185.10809326171875 82.28687286376953 189.84100341796875 87.30498504638672 C 195.13265991210938 93.78470611572266 194.40988159179688 96.08786010742188 194.37205505371094 126.25843811035156 C 194.739501953125 152.51339721679688 193.9741973876953 152.36561584472656 192.04653930664062 158.2198486328125 C 187.6694793701172 168.612548828125 180.60580444335938 180.75128173828125 176.4711456298828 179.69024658203125 C 171.85003662109375 180.23553466796875 162.5238037109375 163.4922332763672 159.74290466308594 153.57470703125 C 158.55442810058594 150.1986083984375 158.8687744140625 144.03099060058594 158.68231201171875 133.50350952148438 L 158.63658142089844 119.67827606201172 L 149.02565002441406 119.69129180908203 L 149.2327117919922 134.49774169921875 C 149.4105987548828 148.34442138671875 149.37997436523438 148.42999267578125 146.58433532714844 152.20347595214844 C 143.6621856689453 155.6231689453125 144.70248413085938 156.05055236816406 145.13833618164062 163.72613525390625 L 145.18748474121094 172.35574340820312 L 141.25216674804688 178.89755249023438 C 132.15585327148438 195.60031127929688 128.48133850097656 196.0 119.10453033447266 180.9678955078125 C 113.26860046386719 172.33282470703125 112.88459014892578 172.3555450439453 113.26517486572266 166.63446044921875 C 113.41361999511719 160.334716796875 113.86048126220703 160.35113525390625 111.71682739257812 160.5285186767578 C 109.71794128417969 160.55101013183594 109.84752655029297 160.6427001953125 109.96422576904297 166.51698303222656 C 110.33283996582031 172.12973022460938 110.05116271972656 171.82354736328125 104.10284423828125 180.48641967773438 C 100.7591781616211 185.65457153320312 97.47862243652344 190.13912963867188 96.53190612792969 190.488037109375 C 94.82958221435547 191.92391967773438 91.864013671875 191.9602813720703 89.45732116699219 190.47457885742188" stroke-width="1.0" fill="rgb(0, 1, 106)" opacity="0.9944952"/>
    <path d="M 90.4179458618164 176.09046936035156 C 87.66011810302734 172.2408905029297 87.11878967285156 170.7156982421875 87.66741943359375 166.01451110839844 L 87.76485443115234 160.63650512695312 L 94.22916412353516 160.53053283691406 L 100.09294891357422 160.6734619140625 L 100.18022155761719 166.51609802246094 C 100.41996765136719 171.6160430908203 99.89410400390625 172.54562377929688 96.63331604003906 176.58773803710938 C 95.04222869873047 179.19839477539062 93.59921264648438 181.0567626953125 93.12681579589844 181.22894287109375 C 93.14202117919922 181.23556518554688 91.78614807128906 178.82305908203125 90.4179458618164 176.09046936035156" stroke-width="1.0" fill="rgb(252, 253, 252)" opacity="0.9948232"/>
    <path d="M 125.98704528808594 175.72097778320312 C 122.63330841064453 171.1219940185547 122.31071472167969 169.51919555664062 122.84552764892578 165.41111755371094 L 123.09662628173828 160.73406982421875 L 129.16224670410156 160.636474609375 L 135.30836486816406 160.39556884765625 L 135.30160522460938 166.7149658203125 C 135.59266662597656 171.23849487304688 134.7611083984375 173.19000244140625 132.37481689453125 176.8190460205078 C 131.29949951171875 179.4833984375 130.18527221679688 181.589111328125 129.76779174804688 181.46800231933594 C 129.35626220703125 181.56495666503906 127.709228515625 178.82550048828125 125.98704528808594 175.72097778320312" stroke-width="1.0" fill="rgb(251, 253, 252)" opacity="0.99252594"/>
    <path d="M 43.228363037109375 162.55999755859375 C 41.69685363769531 159.13534545898438 40.36749267578125 155.8256072998047 40.06804656982422 155.40374755859375 C 40.25201416015625 154.81683349609375 43.121849060058594 154.54161071777344 47.31208801269531 154.7130126953125 C 50.8983154296875 154.38731384277344 53.62689971923828 154.875732421875 53.63763427734375 155.32693481445312 C 53.586769104003906 156.80535888671875 47.11548614501953 168.7327880859375 46.740753173828125 168.60333251953125 C 46.490638732910156 168.66708374023438 44.96104431152344 165.89642333984375 43.228363037109375 162.55999755859375" stroke-width="1.0" fill="rgb(250, 252, 251)" opacity="0.98768353"/>
    <path d="M 172.8971710205078 162.5679473876953 C 171.18020629882812 159.2157440185547 169.8186492919922 155.90931701660156 169.68421936035156 155.062255859375 C 170.17578125 154.7319793701172 172.92857360839844 154.48294067382812 177.17202758789062 154.7772979736328 C 183.81866455078125 154.62969970703125 183.68087768554688 154.75086975097656 182.85214233398438 156.94760131835938 C 181.92184448242188 160.0425262451172 177.4951171875 168.14010620117188 176.71998596191406 168.71694946289062 C 176.0489044189453 168.85391235351562 174.39385986328125 166.16111755371094 172.8971710205078 162.5679473876953" stroke-width="1.0" fill="rgb(248, 250, 251)" opacity="0.9820973"/>
    <path d="M 86.4622573852539 149.7827911376953 C 84.55293273925781 148.44264221191406 84.8172378540039 145.44580078125 84.94123840332031 122.19511413574219 L 84.92960357666016 96.15064239501953 L 139.646728515625 96.13099670410156 L 139.59902954101562 122.24885559082031 C 139.90403747558594 146.9692840576172 140.0044403076172 147.82264709472656 137.58322143554688 149.51998901367188 C 135.69261169433594 151.84048461914062 135.6254119873047 151.782470703125 111.72185516357422 151.40606689453125 C 89.27189636230469 151.64051818847656 87.79161071777344 151.74362182617188 86.4622573852539 149.7827911376953" stroke-width="1.0" fill="rgb(253, 254, 252)" opacity="0.9946151"/>
    <path d="M 38.777565002441406 120.8450927734375 L 38.81580352783203 95.40011596679688 L 40.57157897949219 92.82780456542969 L 43.188331604003906 90.6719741821289 L 75.74468994140625 90.60983276367188 L 75.5826644897461 100.8480453491211 L 75.51834869384766 110.54912567138672 L 69.15594482421875 110.36087799072266 C 56.551177978515625 110.91151428222656 55.05806350708008 113.39041137695312 55.63280487060547 132.30770874023438 L 55.424129486083984 145.91717529296875 L 38.85345458984375 145.56057739257812 L 38.777565002441406 120.8450927734375" stroke-width="1.0" fill="rgb(253, 254, 251)" opacity="0.99616385"/>
    <path d="M 168.43011474609375 132.81494140625 C 168.4244842529297 121.95779418945312 168.68927001953125 118.74801635742188 167.21241760253906 116.36803436279297 C 165.54000854492188 112.04739379882812 161.37205505371094 110.18965148925781 154.6509552001953 110.39993286132812 L 149.3343048095703 110.41378784179688 L 149.41580200195312 90.53963470458984 L 164.03387451171875 90.29621124267578 C 179.72491455078125 89.88893127441406 182.9822235107422 90.07781219482422 184.0159912109375 94.06375885009766 C 185.16494750976562 95.29705810546875 184.75552368164062 107.04195404052734 184.8705596923828 121.31522369384766 L 184.71054077148438 145.8534393310547 L 168.38661193847656 145.54261779785156 L 168.43011474609375 132.81494140625" stroke-width="1.0" fill="rgb(253, 254, 252)" opacity="0.99555403"/>
    <path d="M 83.020263671875 86.36019897460938 C 83.10400390625 85.01798248291016 81.32799530029297 83.40795135498047 79.42805480957031 82.0986328125 C 77.17950439453125 81.98829650878906 73.44124603271484 78.36067199707031 70.1702880859375 74.97315216064453 L 64.90190124511719 69.12002563476562 L 64.81517028808594 57.85953140258789 C 64.84333038330078 46.96119689941406 65.41765594482422 46.28105163574219 67.41064453125 44.6099853515625 C 69.03231811523438 43.395118713378906 70.77184295654297 43.061920166015625 74.46725463867188 43.31287384033203 C 77.42530822753906 43.398338317871094 79.62535095214844 43.57481384277344 80.20420837402344 43.63932418823242 C 80.37644958496094 43.89857482910156 78.4466552734375 48.039772033691406 76.31367492675781 52.72064971923828 C 73.64781188964844 57.205074310302734 71.8192367553711 62.134307861328125 71.9931640625 63.84782791137695 C 72.12361907958984 65.97746276855469 74.01300048828125 68.1133041381836 81.8401870727539 76.24598693847656 L 91.97854614257812 87.15734100341797 L 87.99988555908203 86.92965698242188 C 85.51229858398438 87.19778442382812 83.74649047851562 86.91188049316406 83.020263671875 86.36019897460938" stroke-width="1.0" fill="rgb(252, 254, 254)" opacity="0.99622375"/>
    <path d="M 131.6842498779297 86.64079284667969 C 131.99099731445312 86.37022399902344 136.18307495117188 81.5522232055664 141.3208465576172 75.77497863769531 C 152.53091430664062 64.70506286621094 152.25323486328125 65.33033752441406 146.87339782714844 53.168601989746094 C 144.92025756835938 48.326419830322266 143.14215087890625 44.24008560180664 143.3250274658203 43.49861526489258 C 143.86053466796875 43.4373893737793 146.20401000976562 43.12073516845703 149.10826110839844 43.398983001708984 C 153.54336547851562 42.972984313964844 154.41085815429688 43.08641052246094 155.87542724609375 45.01791000366211 C 157.43629455566406 47.327659606933594 157.61795043945312 48.98576736450195 157.638427734375 58.90287399291992 L 157.52932739257812 69.68142700195312 L 152.48265075683594 75.76321411132812 C 149.4920654296875 79.06175994873047 146.22337341308594 82.42106628417969 144.5912628173828 82.49850463867188 C 143.1007080078125 83.41346740722656 141.58395385742188 84.85971069335938 141.1962127685547 86.09095764160156 C 140.0574951171875 87.26983642578125 138.83595275878906 87.5376205444336 135.71372985839844 87.04000854492188 C 133.68948364257812 87.22087860107422 132.19273376464844 86.5745849609375 131.6842498779297 86.64079284667969" stroke-width="1.0" fill="rgb(252, 253, 254)" opacity="0.9940119"/>
    <path d="M 89.34930419921875 71.77012634277344 L 81.10443115234375 63.12919998168945 L 86.5362777709961 51.58726501464844 C 89.4264144897461 45.344444274902344 92.21163177490234 39.30364227294922 93.14014434814453 38.418357849121094 C 95.17377471923828 37.355079650878906 97.40789794921875 37.31428527832031 112.53272247314453 37.42271423339844 C 127.29890441894531 37.110496520996094 129.24522399902344 37.28399658203125 130.64297485351562 38.86822509765625 C 131.85604858398438 40.48822784423828 139.7985382080078 59.2850227355957 141.20254516601562 62.3553352355957 C 141.34490966796875 63.68988037109375 139.36288452148438 65.69342041015625 133.31451416015625 71.90827941894531 L 125.49308013916016 80.3841323852539 L 97.96481323242188 80.27471923828125 L 89.34930419921875 71.77012634277344" stroke-width="1.0" fill="rgb(252, 253, 251)" opacity="0.99643373"/>
    <path d="M 92.5934829711914 103.62730407714844 L 92.64900207519531 99.27024841308594 L 131.06556701660156 99.10926818847656 L 130.84454345703125 106.86539459228516 L 92.68177032470703 106.89494323730469 L 92.5934829711914 103.62730407714844" stroke-width="1.0" fill="rgb(45, 119, 253)" opacity="0.9902787"/>
    <path d="M 99.19832611083984 71.95088195800781 C 98.51670837402344 71.242431640625 98.99610900878906 69.76116943359375 100.1957015991211 68.54074096679688 C 102.54271697998047 66.93511199951172 102.88141632080078 66.50243377685547 101.7771224975586 64.6722183227539 C 99.78907775878906 61.257930755615234 100.03460693359375 55.86006546020508 102.19669342041016 53.63446807861328 C 103.58521270751953 51.85319900512695 103.61273956298828 51.34169387817383 100.64180755615234 49.424991607666016 C 98.1456527709961 46.34016418457031 100.46231079101562 44.24021530151367 103.19453430175781 46.93182373046875 C 104.75444030761719 49.761051177978516 106.11182403564453 50.30068588256836 111.80821990966797 49.55219268798828 C 117.30266571044922 49.900020599365234 118.40425109863281 49.46905517578125 120.04620361328125 47.22920608520508 C 121.10020446777344 46.15021514892578 122.34405517578125 45.784523010253906 122.69715881347656 46.096866607666016 C 123.57109832763672 46.421051025390625 123.09310913085938 47.91454315185547 122.01698303222656 49.627994537353516 C 119.23939514160156 51.758113861083984 119.23943328857422 51.897743225097656 120.34497833251953 53.33556365966797 C 122.48773193359375 56.03700256347656 123.01964569091797 59.97039031982422 121.39024353027344 63.583457946777344 C 119.67952728271484 66.07357788085938 119.99430084228516 66.47035217285156 122.54508209228516 68.9881591796875 C 124.4456787109375 72.80632019042969 122.54107666015625 74.0101089477539 120.13349914550781 71.16868591308594 C 118.7763671875 68.66365051269531 117.79615020751953 68.59950256347656 111.01050567626953 69.47543334960938 C 104.64464569091797 68.53590393066406 103.95647430419922 68.929931640625 102.32569122314453 71.14009094238281 C 100.77821350097656 72.68570709228516 99.79598999023438 73.05870056152344 99.19832611083984 71.95088195800781" stroke-width="1.0" fill="rgb(44, 117, 249)" opacity="0.99218184"/>
  </g>
</svg>
