<?xml version="1.0" ?>
<svg xmlns="http://www.w3.org/2000/svg" version="1.1" width="224" height="224">
  <defs/>
  <g>
    <path d="M 144.94923400878906 41.720645904541016 C 144.94923400878906 41.720645904541016 144.94923400878906 41.720645904541016 144.94923400878906 41.720645904541016 C 149.22000122070312 40.87789535522461 153.72506713867188 41.549598693847656 157.98568725585938 42.17209243774414 C 165.2431640625 43.2335319519043 172.45535278320312 44.78937911987305 179.5628662109375 46.596717834472656 C 179.5628662109375 46.596717834472656 179.5628662109375 46.596717834472656 179.5628662109375 46.596717834472656 C 173.8346710205078 52.17964172363281 167.86044311523438 57.60557174682617 161.49493408203125 62.453529357910156 C 157.32960510253906 65.62535095214844 152.9658966064453 68.87373352050781 147.4790496826172 68.62223815917969 C 138.2658233642578 68.20046997070312 131.63864135742188 58.8450927734375 135.2509765625 50.11220932006836 C 137.02708435058594 45.818016052246094 140.63473510742188 43.11793899536133 144.94923400878906 41.720645904541016 C 144.94923400878906 41.720645904541016 144.94923400878906 41.720645904541016 144.94923400878906 41.720645904541016" stroke-width="0.0" fill="rgb(127, 210, 91)" opacity="1.0" stroke="rgb(0, 0, 0)" stroke-opacity="1.0" stroke-linecap="round" stroke-linejoin="round"/>
    <path d="M 87.27909851074219 41.720645904541016 C 87.27909851074219 41.720645904541016 87.27909851074219 41.720645904541016 87.27909851074219 41.720645904541016 C 91.59359741210938 43.11793899536133 95.20203399658203 45.817237854003906 96.97735595703125 50.11220932006836 C 100.58891296386719 58.84587097167969 93.96251678466797 68.20046997070312 84.74928283691406 68.62223815917969 C 79.26243591308594 68.87373352050781 74.89794921875 65.62457275390625 70.73262786865234 62.4527473449707 C 64.36709594726562 57.604007720947266 58.39287567138672 52.17729568481445 52.66468048095703 46.593597412109375 C 52.66468048095703 46.593597412109375 52.66468048095703 46.593597412109375 52.66468048095703 46.593597412109375 C 59.77298355102539 44.78703689575195 66.98516845703125 43.231971740722656 74.2434310913086 42.17130661010742 C 78.50326538085938 41.5488166809082 83.00833892822266 40.87789535522461 87.27909851074219 41.720645904541016 C 87.27909851074219 41.720645904541016 87.27909851074219 41.720645904541016 87.27909851074219 41.720645904541016" stroke-width="0.0" fill="rgb(127, 210, 91)" opacity="1.0" stroke="rgb(0, 0, 0)" stroke-opacity="1.0" stroke-linecap="round" stroke-linejoin="round"/>
    <path d="M 147.5384063720703 52.52954864501953 C 147.5384063720703 52.52954864501953 147.5384063720703 52.52954864501953 147.5384063720703 52.52954864501953 C 148.04452514648438 52.63108444213867 148.59515380859375 52.602970123291016 149.0575408935547 52.8333740234375 C 150.74069213867188 53.674564361572266 150.7399139404297 56.85186004638672 149.0575408935547 57.69304656982422 C 148.26478576660156 58.08903884887695 146.82843017578125 57.993751525878906 145.995849609375 58.03124237060547 C 144.5001220703125 58.098411560058594 143.0091094970703 58.26711654663086 141.5384063720703 58.547515869140625 C 136.22964477539062 59.55974578857422 131.37152099609375 62.09971618652344 127.39053344726562 65.73783111572266 C 122.25358581542969 70.43191528320312 118.7466812133789 76.60140228271484 117.77584075927734 83.52381896972656 C 117.42906188964844 85.99661254882812 118.43973541259766 90.800048828125 114.73210144042969 90.800048828125 C 112.01093292236328 90.800048828125 111.9468994140625 88.55220031738281 112.03124237060547 86.44415283203125 C 112.23587799072266 81.30876922607422 113.48789978027344 76.24134063720703 115.88648986816406 71.68550109863281 C 122.15673828125 59.77375793457031 134.2496795654297 52.792762756347656 147.5384063720703 52.52954864501953 C 147.5384063720703 52.52954864501953 147.5384063720703 52.52954864501953 147.5384063720703 52.52954864501953" stroke-width="0.0" fill="rgb(33, 186, 142)" opacity="1.0" stroke="rgb(0, 0, 0)" stroke-opacity="1.0" stroke-linecap="round" stroke-linejoin="round"/>
    <path d="M 81.9297103881836 52.52954864501953 C 81.9297103881836 52.52954864501953 81.9297103881836 52.52954864501953 81.9297103881836 52.52954864501953 C 81.42359924316406 52.63108444213867 80.87295532226562 52.602970123291016 80.41056823730469 52.8333740234375 C 78.7274169921875 53.674564361572266 78.72819519042969 56.85186004638672 80.41056823730469 57.69304656982422 C 81.20333862304688 58.08903884887695 82.63967895507812 57.993751525878906 83.47228240966797 58.03124237060547 C 84.96798706054688 58.098411560058594 86.45899963378906 58.26711654663086 87.92971801757812 58.547515869140625 C 93.23770141601562 59.55974578857422 98.09581756591797 62.09971618652344 102.07681274414062 65.73783111572266 C 107.21296691894531 70.43191528320312 110.71830749511719 76.60140228271484 111.68914794921875 83.52381896972656 C 112.03593444824219 85.99583435058594 111.02526092529297 90.800048828125 114.73210144042969 90.800048828125 C 117.4532699584961 90.800048828125 117.51809692382812 88.55220031738281 117.43374633789062 86.44415283203125 C 117.22911071777344 81.30876922607422 115.97709655761719 76.24212646484375 113.57849884033203 71.68550109863281 C 107.30903625488281 59.77375793457031 95.21843719482422 52.792762756347656 81.9297103881836 52.52954864501953 C 81.9297103881836 52.52954864501953 81.9297103881836 52.52954864501953 81.9297103881836 52.52954864501953" stroke-width="0.0" fill="rgb(33, 186, 142)" opacity="1.0" stroke="rgb(0, 0, 0)" stroke-opacity="1.0" stroke-linecap="round" stroke-linejoin="round"/>
    <path d="M 112.0 87.3220443725586 C 112.0 87.3220443725586 112.0 87.3220443725586 112.0 87.3220443725586 C 144.90628051757812 87.56964111328125 178.7810516357422 101.87606811523438 196.0 131.05987548828125 C 196.0 131.05987548828125 196.0 131.05987548828125 196.0 131.05987548828125 C 185.03489685058594 149.6464385986328 166.7638702392578 162.69461059570312 146.4340057373047 169.37567138671875 C 104.6097412109375 183.12210083007812 51.34627151489258 170.63238525390625 28.00000762939453 131.05987548828125 C 28.00000762939453 131.05987548828125 28.00000762939453 131.05987548828125 28.00000762939453 131.05987548828125 C 45.21974182128906 101.87606811523438 79.09217071533203 87.56964111328125 112.0 87.3220443725586 C 112.0 87.3220443725586 112.0 87.3220443725586 112.0 87.3220443725586" stroke-width="0.0" fill="rgb(236, 236, 236)" opacity="1.0" stroke="rgb(0, 0, 0)" stroke-opacity="1.0" stroke-linecap="round" stroke-linejoin="round"/>
    <path d="M 148.28196716308594 131.05987548828125 C 148.28196716308594 131.05987548828125 148.28196716308594 131.05987548828125 148.28196716308594 131.05987548828125 C 148.16323852539062 136.35926818847656 147.14476013183594 141.48684692382812 144.86019897460938 146.29574584960938 C 136.5600128173828 163.76698303222656 115.00547790527344 171.4884033203125 97.5100326538086 163.17730712890625 C 93.84457397460938 161.435546875 90.48529052734375 159.06039428710938 87.61495208740234 156.19082641601562 C 84.38298034667969 152.95806884765625 81.77975463867188 149.10516357421875 79.99896240234375 144.89456176757812 C 78.15178680419922 140.52694702148438 77.20594024658203 135.8008270263672 77.20594024658203 131.05987548828125 C 77.20594024658203 126.32048034667969 78.15257263183594 121.59437561035156 79.99896240234375 117.2275390625 C 81.77975463867188 113.01692199707031 84.38298034667969 109.164794921875 87.61495208740234 105.93283081054688 C 90.48529052734375 103.06326293945312 93.84457397460938 100.68810272216797 97.5100326538086 98.94636535644531 C 115.00468444824219 90.63603210449219 136.55923461914062 98.35589599609375 144.86019897460938 115.82634735107422 C 147.14476013183594 120.63446807861328 148.16323852539062 125.76203918457031 148.28196716308594 131.05987548828125 C 148.28196716308594 131.05987548828125 148.28196716308594 131.05987548828125 148.28196716308594 131.05987548828125" stroke-width="0.0" fill="rgb(127, 210, 91)" opacity="1.0" stroke="rgb(0, 0, 0)" stroke-opacity="1.0" stroke-linecap="round" stroke-linejoin="round"/>
    <path d="M 131.8791961669922 131.05987548828125 C 131.8791961669922 131.05987548828125 131.8791961669922 131.05987548828125 131.8791961669922 131.05987548828125 C 131.73391723632812 134.66363525390625 130.9325714111328 138.047119140625 129.01197814941406 141.14083862304688 C 127.71856689453125 143.22544860839844 126.02291107177734 145.05545043945312 124.04451751708984 146.505859375 C 114.23848724365234 153.69381713867188 99.83988952636719 149.69798278808594 95.11299896240234 138.50949096679688 C 94.11872100830078 136.156982421875 93.60870361328125 133.61312866210938 93.60870361328125 131.05987548828125 C 93.60870361328125 128.50741577148438 94.11872100830078 125.9643325805664 95.11299896240234 123.61259460449219 C 99.8406753540039 112.42410278320312 114.23848724365234 108.43061065673828 124.04451751708984 115.61702728271484 C 126.02291107177734 117.066650390625 127.71856689453125 118.89741516113281 129.01197814941406 120.98124694824219 C 130.93179321289062 124.0749740600586 131.733154296875 127.4569091796875 131.8791961669922 131.05987548828125 C 131.8791961669922 131.05987548828125 131.8791961669922 131.05987548828125 131.8791961669922 131.05987548828125" stroke-width="0.0" fill="rgb(10, 53, 134)" opacity="1.0" stroke="rgb(0, 0, 0)" stroke-opacity="1.0" stroke-linecap="round" stroke-linejoin="round"/>
    <path d="M 107.27701568603516 117.39234161376953 C 107.27701568603516 117.39234161376953 107.27701568603516 117.39234161376953 107.27701568603516 117.39234161376953 C 107.01224517822266 120.3407974243164 105.87581634521484 122.91902923583984 103.215576171875 124.4748764038086 C 97.8427505493164 127.61701965332031 90.87347412109375 123.60791015625 90.87347412109375 117.39234161376953 C 90.87347412109375 111.17599487304688 97.84431457519531 107.17234802246094 103.215576171875 110.3121566772461 C 105.87660217285156 111.86721801757812 107.01224517822266 114.44389343261719 107.27701568603516 117.39234161376953 C 107.27701568603516 117.39234161376953 107.27701568603516 117.39234161376953 107.27701568603516 117.39234161376953" stroke-width="0.0" fill="rgb(255, 255, 255)" opacity="1.0" stroke="rgb(0, 0, 0)" stroke-opacity="1.0" stroke-linecap="round" stroke-linejoin="round"/>
  </g>
</svg>
