<?xml version="1.0" ?>
<svg xmlns="http://www.w3.org/2000/svg" version="1.1" width="224" height="224">
  <defs/>
  <g>
    <path d="M 112.00041961669922 28.0 C 112.00041961669922 28.0 112.00041961669922 28.0 112.00041961669922 28.0 C 118.49932098388672 39.06792449951172 124.62831115722656 50.475975036621094 129.7451629638672 62.250640869140625 C 132.3544921875 68.25465393066406 135.6027069091797 75.14749145507812 135.10948181152344 81.86652374267578 C 134.90589904785156 84.64468383789062 134.19500732421875 87.38062286376953 133.01904296875 89.9063720703125 C 126.05917358398438 104.86552429199219 105.34262084960938 107.7893295288086 94.51387023925781 95.34019470214844 C 92.73210906982422 93.29196166992188 91.31117248535156 90.93173217773438 90.34456634521484 88.39439392089844 C 87.15345764160156 80.0218734741211 90.14429473876953 72.03996276855469 93.42395782470703 64.20370483398438 C 98.64923095703125 51.71650695800781 105.14979553222656 39.66790771484375 112.00041961669922 28.0 C 112.00041961669922 28.0 112.00041961669922 28.0 112.00041961669922 28.0" stroke-width="0.0" fill="rgb(128, 210, 91)" opacity="1.0"/>
    <path d="M 144.01412963867188 97.65242767333984 C 144.01412963867188 97.65242767333984 144.01412963867188 97.65242767333984 144.01412963867188 97.65242767333984 C 148.53927612304688 96.75947570800781 153.31271362304688 97.4703598022461 157.82626342773438 98.12992858886719 C 165.51687622070312 99.25376892089844 173.15866088867188 100.9014663696289 180.69036865234375 102.81562805175781 C 180.69036865234375 102.81562805175781 180.69036865234375 102.81562805175781 180.69036865234375 102.81562805175781 C 174.62098693847656 108.7311019897461 168.2908935546875 114.48188781738281 161.54620361328125 119.61943817138672 C 157.1327667236328 122.98103332519531 152.5099639892578 126.42288970947266 146.69546508789062 126.15641784667969 C 136.9342803955078 125.70952606201172 129.9106903076172 115.79772186279297 133.7382049560547 106.54383087158203 C 135.62008666992188 101.99385833740234 139.44180297851562 99.13294982910156 144.01412963867188 97.65242767333984 C 144.01412963867188 97.65242767333984 144.01412963867188 97.65242767333984 144.01412963867188 97.65242767333984" stroke-width="0.0" fill="rgb(128, 210, 91)" opacity="1.0"/>
    <path d="M 39.58887481689453 161.24041748046875 C 87.86351013183594 161.24041748046875 136.13731384277344 161.24041748046875 184.41195678710938 161.24041748046875 C 190.677490234375 161.7998504638672 195.44842529296875 166.53106689453125 195.9979248046875 172.8272247314453 C 195.9979248046875 176.68948364257812 195.9979248046875 180.5517578125 195.9979248046875 184.41403198242188 C 195.50967407226562 191.07431030273438 191.07223510742188 195.51089477539062 184.41195678710938 196.0 C 136.13731384277344 196.0 87.86351013183594 196.0 39.58887481689453 196.0 C 33.32417297363281 195.44056701660156 28.55158233642578 190.71017456054688 28.00206756591797 184.41403198242188 C 28.00206756591797 180.5517578125 28.00206756591797 176.68948364257812 28.00206756591797 172.8272247314453 C 28.490333557128906 166.16610717773438 32.927772521972656 161.72950744628906 39.58887481689453 161.24041748046875 C 39.58887481689453 161.24041748046875 39.58887481689453 161.24041748046875 39.58887481689453 161.24041748046875" stroke-width="0.0" fill="rgb(71, 150, 231)" opacity="1.0"/>
    <path d="M 82.91133117675781 97.64911651611328 C 82.91133117675781 97.64911651611328 82.91133117675781 97.64911651611328 82.91133117675781 97.64911651611328 C 87.48365783691406 99.129638671875 91.30619812011719 101.99053955078125 93.18727111816406 106.54135131835938 C 97.01395416259766 115.79523468017578 89.99284362792969 125.70622253417969 80.2308349609375 126.1530990600586 C 74.41716003417969 126.41958618164062 69.79269409179688 122.9793701171875 65.37926483154297 119.61778259277344 C 58.63457107543945 114.4810562133789 52.30366134643555 108.73193359375 46.23509216308594 102.81562805175781 C 46.23509216308594 102.81562805175781 46.23509216308594 102.81562805175781 46.23509216308594 102.81562805175781 C 53.766807556152344 100.900634765625 61.40858459472656 99.25212097167969 69.09919738769531 98.12744903564453 C 73.61276245117188 97.46788024902344 78.38617706298828 96.75616455078125 82.91133117675781 97.64911651611328 C 82.91133117675781 97.64911651611328 82.91133117675781 97.64911651611328 82.91133117675781 97.64911651611328" stroke-width="0.0" fill="rgb(127, 210, 91)" opacity="1.0"/>
    <path d="M 109.10391998291016 68.41934204101562 C 111.0346450805664 68.41934204101562 112.96536254882812 68.41934204101562 114.89608764648438 68.41934204101562 C 114.89608764648438 105.1526870727539 114.89608764648438 141.88604736328125 114.89608764648438 178.61856079101562 C 112.96536254882812 178.61856079101562 111.0346450805664 178.61856079101562 109.10391998291016 178.61856079101562 C 109.10391998291016 141.88604736328125 109.10391998291016 105.1526870727539 109.10391998291016 68.41934204101562" stroke-width="0.0" fill="rgb(34, 185, 142)" opacity="1.0"/>
    <path d="M 146.760009765625 109.1026840209961 C 146.760009765625 109.1026840209961 146.760009765625 109.1026840209961 146.760009765625 109.1026840209961 C 147.2962646484375 109.20943450927734 147.8797149658203 109.17964935302734 148.36962890625 109.42378234863281 C 150.1522216796875 110.31590270996094 150.15304565429688 113.68162536621094 148.36962890625 114.57292175292969 C 147.52964782714844 114.99249267578125 146.0077362060547 114.89153289794922 145.12554931640625 114.9312515258789 C 143.54075622558594 115.00242614746094 141.96092224121094 115.18118286132812 140.40261840820312 115.47827911376953 C 134.77761840820312 116.55081176757812 129.63014221191406 119.2420654296875 125.41201782226562 123.09689331054688 C 119.96908569335938 128.07058715820312 116.2532958984375 134.60755920410156 115.22462463378906 141.9423065185547 C 114.83650207519531 144.7072296142578 115.93882751464844 149.45913696289062 112.00041961669922 149.65194702148438 C 109.12626647949219 149.7926483154297 109.0526123046875 147.17587280273438 109.13785552978516 145.03659057617188 C 109.35467529296875 139.59532165527344 110.68126678466797 134.2268829345703 113.22273254394531 129.39883422851562 C 119.86729431152344 116.77839660644531 132.6797332763672 109.38074493408203 146.760009765625 109.1026840209961 C 146.760009765625 109.1026840209961 146.760009765625 109.1026840209961 146.760009765625 109.1026840209961" stroke-width="0.0" fill="rgb(35, 186, 141)" opacity="1.0"/>
    <path d="M 77.2433090209961 109.1026840209961 C 77.2433090209961 109.1026840209961 77.2433090209961 109.1026840209961 77.2433090209961 109.1026840209961 C 76.70703887939453 109.20943450927734 76.12361145019531 109.17964935302734 75.63368225097656 109.42378234863281 C 73.85110473632812 110.31590270996094 73.85027313232422 113.68162536621094 75.63368225097656 114.57292175292969 C 76.47366333007812 114.99249267578125 77.99556732177734 114.89153289794922 78.87776184082031 114.9312515258789 C 80.46255493164062 115.00242614746094 82.04238891601562 115.18118286132812 83.60070037841797 115.47827911376953 C 89.22486114501953 116.55081176757812 94.37234497070312 119.2420654296875 98.59046936035156 123.09689331054688 C 104.03257751464844 128.07058715820312 107.7467041015625 134.60755920410156 108.77537536621094 141.9423065185547 C 109.14281463623047 144.56239318847656 108.07193756103516 149.65194702148438 112.00041961669922 149.65194702148438 C 114.88284301757812 149.65194702148438 114.95153045654297 147.27020263671875 114.86215209960938 145.03659057617188 C 114.64533233642578 139.59532165527344 113.31874084472656 134.2268829345703 110.7780990600586 129.39883422851562 C 104.13519287109375 116.7775650024414 91.32275390625 109.38074493408203 77.2433090209961 109.1026840209961 C 77.2433090209961 109.1026840209961 77.2433090209961 109.1026840209961 77.2433090209961 109.1026840209961" stroke-width="0.0" fill="rgb(34, 186, 141)" opacity="1.0"/>
  </g>
</svg>
