<?xml version="1.0" encoding="UTF-8"?>
<svg xmlns="http://www.w3.org/2000/svg" version="1.1" viewBox="0 0 224 224">
  <defs>
    <style>
      .cls-1 {
        fill: #a15810;
        opacity: 1;
      }

      .cls-1, .cls-2, .cls-3, .cls-4, .cls-5, .cls-6, .cls-7, .cls-8, .cls-9, .cls-10, .cls-11, .cls-12, .cls-13, .cls-14, .cls-15 {
        isolation: isolate;
      }

      .cls-2 {
        fill: #4b341b;
        opacity: 1;
      }

      .cls-3 {
        fill: #0b0c0e;
        opacity: 1;
      }

      .cls-4 {
        fill: #3fb64a;
        opacity: 1;
      }

      .cls-5 {
        fill: #0c0e12;
        opacity: 1;
      }

      .cls-6 {
        fill: #41b74b;
        opacity: 1;
      }

      .cls-7 {
        fill: #955b27;
        opacity: 1;
      }

      .cls-8 {
        fill: #242325;
        opacity: 1;
      }

      .cls-9 {
        fill: #ded09c;
        opacity: 1;
      }

      .cls-10 {
        fill: #fcfefe;
        opacity: 1;
      }

      .cls-11 {
        fill: #282626;
        opacity: 1;
      }

      .cls-12 {
        fill: #955c26;
        opacity: 1;
      }

      .cls-13 {
        fill: #fbc71f;
        opacity: 1;
      }

      .cls-14 {
        fill: #282722;
        opacity: 1;
      }

      .cls-15 {
        fill: #fac61f;
        opacity: 1;
      }
    </style>
  </defs>
  <!-- Generator: Adobe Illustrator 28.6.0, SVG Export Plug-In . SVG Version: 1.2.0 Build 709)  -->
  <g>
    <g id="_图层_1" data-name="图层_1">
      <g>
        <path class="cls-2" d="M103.9,188.6c-7.9-2.1-11.9-9.8-12.4-14.4-1.2-.3-3.1-2-6-2.3-4.3-9.1-12.4-32.6-11.5-33.1,0-.9,2-1.9,4.1-3.5.8-.8,2.6-1.4,5.3-2.6-.4-.6-5.4-2.9-9.8-8-4.9-4.6-9.2-9.5-11.2-10.9-.7-2.4.3-12.6,3.1-23.3,3-8.2,2.8-11.3,11.9-23.8,3.6-6.9,6.2-9,9.9-7.4,2.9-4.4,45.1-4.6,48.6-1.4,3.3,1.7,5.9,1.6,11.9,7.5,1.9,5.7,5.2,11.3,7.2,14,3.3,5.9,6.9,21.6,7.3,30.2l.3,3-10.1,10.6c-5.3,5.7-11.1,8.9-11.7,9.5,2.6.9,4,1.8,5.7,2.6,2,1.4,3.7,3.2,3.4,3.8.2,0-1.3,4-3,8.3-2.2,4-4.3,8.6-4.9,9.9-.4,1.3-1.9,3.9-2.6,5.9-2,2.1-3.8,4.5-1.7,7.2-8,8.1-23.4,24.8-25.4,25.6-1.4,0-4.5-2.3-8.6-7.4"/>
        <path class="cls-11" d="M60.5,83.3c-6.5-4.3-12.6-12-14.9-17.3-3.5-7.6-2.7-11.5,3-12.9,5.2-.4,18.7.5,29.9,3.2,9.6,3.2,6.4,3.6,11.5-6.1,4.7-9.5,5.4-12.3,5.7-12.5-.6-.5.5-2.1,1.4-4.8,2.8-4.1,6.6-4.8,11.3-1.7,3.6,3.5,4.9,2.8,8,0,1.6-1.2,3.9-2.3,5.2-1.7,3.5-.5,6.7,3.1,8.1,9,5.5,13.7,8.8,17.6,9.4,19.5,1.2,1.1,2.6-.2,8.3-1.9,9.9-2.3,23.1-3.3,27.9-3,4,.4,6.8,3.4,6.1,6.4.4,6.3-8.7,19.3-17.7,24.6-4.8,3.2-5.7,3.7-7.5,0-1.8-3.4-6-12.4-13.3-19-6.2-5.6-7.3-6-13.4-3.8-1-.2-5.7,1.2-9.4,1.1-7.7,1.9-8.6,2-14.1.9-3.2-.1-7.4-1.5-9.4-2.3-2.6-1.7-4.3-1.2-7.3-.3-2.5-.7-2.9.5-7.8,5.2-3,3.9-7.7,9.5-10,13.2-2.8,3.8-4.6,7.5-4.8,7.6-1.3-.1-3.3-1.6-5.9-3.5"/>
        <path class="cls-1" d="M100.2,61.9c-4.4-1.3-7.9-2.5-8.4-2.6-.2-.5,9.1-.9,20.8-.7,11.9-.1,21.4.2,21.2.4-1.3,1.1-18.3,5.1-22.2,5.1-2.3,0-7.7-1.1-11.4-2.1"/>
        <path class="cls-9" d="M101.2,132.2c-8.9-2.1-17-6.6-24.3-13.6l-6.2-7-.2-6.7c.3-12.7,5.9-25.2,15.7-35l5-4.6,7.8,2.4c12.2,3.5,13,3.4,21.9,1,4.8-1.4,9.6-2.7,10.7-3.2,2.4,0,8.4,5.7,13.9,13.6,4.8,7.1,8,16.2,8.7,25.4l.5,6.5-6.6,7c-14,13.3-30.6,18.4-46.9,14"/>
        <path class="cls-13" d="M140.6,177.7c-2.2-3.5-4.6-6.5-6-7.6.4-.8,1.9-3.2,3.4-6.3,1.4-3.1,3.7-7.1,4.8-9.2.5-2.3,2.1-7.1,3.2-10.7.5-3,1.4-6.9,1.8-7.4,4.4,0,18.4,11.5,22.8,21.2,3.6,6,5.9,20.7,4.8,23.7,0,1.2-2.2,1.1-16,.8h-15.1s-3.7-4.6-3.7-4.6"/>
        <path class="cls-10" d="M107.6,167.7c-8.1-11.8-16.1-30.3-13.9-30.4.7.1,3.6,1.1,6.2,1.6,6.8,2.1,17.1,2.1,25,0,3.4-.7,6.4-1.1,6.4-1.7,1.9,2.9-16.4,36.2-19.7,36.5.1-.5-2-2.6-4-6"/>
        <path class="cls-15" d="M49.3,178.9c-.3-15.6,7.5-30.2,20.9-39.1l5.9-3.9,1.9,7.2c2.3,8.6,4.6,14.9,8.5,21.8l2.8,5.5h-2.1c-3.5,1.1-6.2,4.6-6,8.5l-.7,3.4-31.5.2.2-3.6"/>
        <path class="cls-12" d="M86.4,96.3c-3.5-1.4-6.5-6-6.2-9.8,0-6.1,8.1-11.8,15.3-10.2,4.6,1,9.2,5.6,9.2,9.6,0,4.1-3,8.3-7.4,10.3-4.4,2-7.1,2.1-10.9.2"/>
        <path class="cls-7" d="M128.8,96.8c-3.4-1-8.3-5.6-8.8-8.7-.9-3.8,1.8-8.5,5.7-10.4,4-2.1,6.7-2.2,10.6-.6,9.3,3.9,10,14.8,1.4,18.9-4.1,1.8-5,2-8.9.8"/>
        <path class="cls-14" d="M94.3,115.8c-2.4-1.7-6.4-7.3-5.4-8.6.2,0,2.1,2.1,4.2,4.5,2.6,2.5,4.2,3.9,5.6,3.7.9-.3,3.4-1.2,5.3-2.2,4.1-.5,8-1.1,12.1-.7,1.3.2,4.1.7,5.7,1.7,4.6,1.8,7.5.5,10.8-4.1,1.3-2.1,2.6-3.2,3-2,.3,2-3.8,6.8-6.8,8.2-2.5,1.1-3.5,1.5-7.6.5-5.4-2-13.1-2.2-18.3-.3-5.3,1.3-5,1-8.6-.8"/>
        <path class="cls-8" d="M120,96.2c2.6,2.1,3.3,5.8.8,8.2s-5.8,1.7-8.8,1.9c-5.2.2-11.8-1.1-9.5-7.8,1.4-4.3,13-5.8,17.4-2.3Z"/>
        <path class="cls-4" d="M124,184.3c2.7-2.7,6-7,7.3-9.6,3-4.3,5.4-5.3,9.4-3.2,1.9,1.5,4.2,5.7,4,8.3.2,3-2.3,6.8-5.5,8.6-2.1,1.2-4.4,1.5-11,1.4h-9.1s5-5.4,5-5.4"/>
        <path class="cls-6" d="M85.8,188.2c-3.3-2.3-4.7-4.9-4.9-9.4-.1-3.2.6-4.3,2.3-6.2,3.9-3.6,6-3.2,10.4,2.7,1.8,3.1,5.1,7.4,7.1,9.7l4.2,4.5h-8.1c-6.5.3-8.8,0-10.9-1.4"/>
        <path class="cls-3" d="M90.5,92.2c-2.8-.8-4.9-3.3-4.7-6.1-.2-4.8,8.6-6.7,12.4-2.7,2.7,2.6,1.5,6.4-2.5,8.1-1.8.9-3.5,1.5-3.6,1.3,0,0-.9-.2-1.6-.6"/>
        <path class="cls-5" d="M129.1,92.1c-2.5-.7-4.5-3.2-4.5-5.8,0-2.8,1.1-4.1,4.9-5,7.5-2.2,12.7,7.8,5.3,10.4-3.2,1.1-3.4,1.1-5.6.3"/>
      </g>
    </g>
  </g>
</svg>