<?xml version="1.0" encoding="UTF-8"?>
<svg xmlns="http://www.w3.org/2000/svg" version="1.1" viewBox="0 0 224 224">
  <defs>
    <style>
      .cls-1 {
        fill: #e18e16;
        opacity: 1;
      }

      .cls-1, .cls-2, .cls-3, .cls-4, .cls-5, .cls-6, .cls-7 {
        isolation: isolate;
      }

      .cls-8 {
        fill: #e18d16;
      }

      .cls-2 {
        fill: #616161;
        opacity: 1;
      }

      .cls-3 {
        fill: #353536;
        opacity: 1;
      }

      .cls-4 {
        fill: #dee2e4;
        opacity: 1;
      }

      .cls-5 {
        fill: #97b1c1;
        opacity: 1;
      }

      .cls-6 {
        fill: #383737;
        opacity: 1;
      }

      .cls-7 {
        fill: #4d4b4c;
        opacity: 1;
      }
    </style>
  </defs>
  <!-- Generator: Adobe Illustrator 28.6.0, SVG Export Plug-In . SVG Version: 1.2.0 Build 709)  -->
  <g>
    <g id="_图层_1" data-name="图层_1">
      <g>
        <path class="cls-4" d="M28.8,146.2c-.8-2-.2-32.8.7-34.5,1.1-1.5,18.3-18.6,27.4-26.7l4.1-4.5,51.3.2,50.9-.9,10.9,11.5c6.3,6.1,11.5,11.6,11.3,12.4,0,.4,1.5,1.8,3.3,2.7,5.5,3.7,5.6,4.6,6.3,21.6,0,8.3,0,16.1-.4,17.1l-.6,1.8h-23.8c-13.4,0-50.4,0-82.8,0-52,.5-58.1,0-58.6-.9"/>
        <path class="cls-5" d="M57.3,79.5c-.2-.9.9-4.3,2.6-8,1.7-3.5,3.9-7.9,4.6-9.5l1.4-2.7,45.5-1.2c50.1.4,48.1.4,50,6,.6,1.7,2.3,6,4,9.3,2,4.3,2.4,6,1.9,6.6-.7.5-25.5.7-55.5.5-46.8.1-54.2.3-54.4-1"/>
        <path class="cls-3" d="M37.5,102.7c2.4-7.3,10.1-27.1,14.4-36.4,4.2-9.2,6.3-11.1,9.3-13.1,7.4-5.4,17-7.2,52-7.7,47.3.9,50.6,2.2,60.8,26.9,6.8,14.4,13.1,31,13,31.9-1.1,1.2-3.1.5-5.9,0h-5.1c0-.1-3.7-7.5-3.7-7.5-2-3.7-7.1-12.9-11.1-20.3-3.4-7.5-6.6-14.4-6.7-15.3-.4-.4-9.9-.3-42.6-.6l-42.5.3-.5,1.9c-.4,1.4-2.6,6.2-4.5,10.9-4.1,8.4-15.6,28.6-16.5,30.2-.8.3-3.5.4-5.7.6l-5.7.9,1.1-2.6"/>
        <path class="cls-6" d="M52.6,176.8c-1.3-1-4-2.1-4.5-5-.1-3-1.8-2.6-4.6-2.3-4.7-.7-8.7-2.9-11-5.6-2.7-2.3-4.5-8.9-3.9-13.7v-4.2s6.7.3,6.7.3l5.7-.2-.5-5.2c2.3-8.2,7.9-12.5,21.2-13.5,10-2.9,92.3-2.9,100.2,0,12.7.7,17.5,5.4,20.2,12.6.6,7-1.6,6.3,4.4,6.3,4-.2,6.6.2,7.6-.1,1.7,3.1.8,14.4-2.9,17.5-1.5,2.5-5.4,4.6-10.7,5.7-3.9.1-5.1,0-4.8,2.1-2.1,5.1-4.5,6-7.3,6-3.5.3-7.7-2.5-7.3-6.1l-.6-5.1h-96.6s-1.3,6.9-1.3,6.9c-2.2,4.4-6.3,5.4-10.1,3.7"/>
        <path class="cls-7" d="M70.1,79.3c.1-2.9,2.6-5.9,4.8-7,7.3-2.6,14.8-3.5,37.9-3.8,29.9.6,36.6,2,40.7,8.3.4,1.2,1.2,2.7,1.1,3.5.1.1-18.9.3-42.6.4-37.5-.4-42,0-41.9-1.3"/>
        <path class="cls-2" d="M62.4,170.7c-3.9-.2-7.6-1-9.6-3.5-3-3.7-3-9.9-.2-12.7l2.2-2.2,55.9-.2c40.9-.1,56.6.1,58.2.7,4.8,2.2,6,11,1.8,14.6l-2.1,2.3c-1,1.1-9.3,0-10.6,0-8.6,0-17.3,0-25.9,0-19.5,0-38.9.6-58.4.6s-7.2.5-11.3.3Z"/>
        <path class="cls-1" d="M49.2,144.4c-2.6-2.5-2.7-4.8-.5-7.1,1.5-1.3,2.6-1.5,14-1.5,11.4-.2,12.7,0,14,1.3,2,2.2,2,4.3,0,6.9-1.4,1.7-1.7,1.8-13.5,2.1-12,.2-12.1.2-14-1.6"/>
        <path class="cls-8" d="M147.5,144.3c-2.6-2.3-2.7-5.3-.8-7.3,1.2-1,3.4-1.2,14-1.2,11.5-.1,12.6.1,13.9,1.5,2.4,2.3,2.1,5.4-.4,7.5-1.9,1.3-3.2,1.5-13.8,1.4-10.9,0-11.4-.2-13-1.9"/>
      </g>
    </g>
  </g>
</svg>