<?xml version="1.0" ?>
<svg xmlns="http://www.w3.org/2000/svg" version="1.1" width="224" height="224">
  <defs/>
  <g>
    <path d="M 93.22283172607422 151.22866821289062 C 89.5328140258789 147.67628479003906 84.51351165771484 143.95651245117188 82.08480834960938 143.03314208984375 C 68.31385803222656 134.31588745117188 60.93463134765625 124.59257507324219 60.69356155395508 114.77356719970703 C 61.205467224121094 110.44851684570312 61.673030853271484 107.95671844482422 65.65413665771484 100.51899719238281 C 71.57298278808594 87.99018859863281 76.67280578613281 83.78620910644531 86.83544158935547 80.22404479980469 C 93.64130401611328 77.97576904296875 96.92340087890625 77.21512603759766 108.35340118408203 76.4168930053711 C 123.47820281982422 76.61566162109375 132.31141662597656 77.94029998779297 141.54574584960938 81.95329284667969 C 148.1064453125 85.36335754394531 153.3930206298828 90.73396301269531 158.25115966796875 100.80058288574219 C 162.41995239257812 109.66787719726562 162.78240966796875 110.52206420898438 162.0827178955078 116.76581573486328 C 161.6648712158203 121.63715362548828 161.16500854492188 124.18740844726562 160.10731506347656 125.26028442382812 C 159.21580505371094 126.3082275390625 156.62596130371094 129.1686553955078 154.71560668945312 131.7866668701172 C 152.68673706054688 133.97531127929688 147.50567626953125 138.69076538085938 142.32431030273438 141.32315063476562 C 137.71726989746094 144.4785614013672 131.28456115722656 149.24586486816406 128.48472595214844 152.35650634765625 L 122.72360229492188 157.33631896972656 L 100.30230712890625 157.24363708496094 L 93.22283172607422 151.22866821289062" stroke-width="1.0" fill="rgb(245, 169, 2)" opacity="0.993431"/>
    <path d="M 51.843727111816406 182.56301879882812 C 43.900428771972656 178.91690063476562 35.72148895263672 170.9508819580078 31.46245574951172 162.60704040527344 C 28.884178161621094 156.89846801757812 28.210792541503906 154.74591064453125 28.0 149.54739379882812 C 28.793724060058594 142.95899963378906 28.7471923828125 142.48670959472656 31.858070373535156 138.93609619140625 C 36.97826385498047 133.92002868652344 42.33049774169922 132.38487243652344 57.32615661621094 131.95205688476562 L 70.13169860839844 131.82798767089844 L 74.76710510253906 135.91688537597656 C 77.43479919433594 138.1661834716797 80.93475341796875 140.8743896484375 82.17825317382812 141.98890686035156 L 84.36204528808594 143.71939086914062 L 81.91914367675781 144.67044067382812 C 80.72950744628906 144.7132568359375 70.58216857910156 145.53863525390625 59.91840362548828 146.72171020507812 C 49.3990592956543 147.5577392578125 40.2265625 148.26348876953125 40.423545837402344 148.25393676757812 C 40.24488067626953 147.91184997558594 44.024559020996094 154.2246551513672 48.83952713012695 161.8812255859375 C 53.31538391113281 169.7268829345703 58.01460266113281 177.39083862304688 59.13573455810547 179.219970703125 C 60.78777313232422 182.7828369140625 60.08052062988281 185.7506103515625 58.11274719238281 185.1667022705078 C 58.09480667114258 185.3080291748047 55.200408935546875 184.05499267578125 51.843727111816406 182.56301879882812" stroke-width="1.0" fill="rgb(255, 201, 9)" opacity="0.99984944"/>
    <path d="M 56.036556243896484 123.59100341796875 C 47.70722961425781 121.45675659179688 45.19464874267578 119.75325775146484 42.418052673339844 114.48087310791016 C 41.31980895996094 112.09569549560547 38.79662322998047 108.03099060058594 36.497398376464844 105.51079559326172 L 32.858848571777344 100.40625762939453 L 33.62425231933594 93.06063842773438 C 34.594329833984375 84.75672149658203 35.778778076171875 83.35546875 39.657386779785156 83.46258544921875 C 43.682350158691406 83.28723907470703 44.95703125 85.31976318359375 45.75800323486328 94.60008239746094 C 45.16380310058594 99.42147064208984 46.352516174316406 103.98810577392578 46.67277145385742 104.68230438232422 C 47.638328552246094 105.10939025878906 50.66019058227539 105.58799743652344 55.86620330810547 105.30718994140625 L 64.63359832763672 105.3213882446289 L 63.20517349243164 108.3648910522461 C 62.796470642089844 109.83561706542969 62.402854919433594 113.05680847167969 62.40083694458008 115.5381088256836 C 62.43581008911133 118.24662017822266 62.683406829833984 121.33826446533203 63.430728912353516 122.770263671875 C 64.25440216064453 124.10520935058594 63.97905349731445 125.53262329101562 63.75464630126953 125.58382415771484 C 63.23377227783203 125.4698257446289 59.98387145996094 124.56214141845703 56.036556243896484 123.59100341796875" stroke-width="1.0" fill="rgb(255, 202, 11)" opacity="0.9989978"/>
    <path d="M 64.46881103515625 86.60968780517578 C 53.723419189453125 79.43046569824219 44.546546936035156 71.00099182128906 43.14939880371094 66.4248275756836 C 42.20380401611328 62.86262893676758 42.250038146972656 61.40541076660156 43.38689422607422 57.830039978027344 C 45.98622512817383 51.64726638793945 52.732139587402344 43.811832427978516 58.423606872558594 40.639991760253906 C 64.89326477050781 37.31390380859375 74.07069396972656 37.009307861328125 77.05680084228516 40.23145294189453 C 79.43997955322266 42.06067657470703 79.3924331665039 42.59559631347656 78.51317596435547 44.86376190185547 C 77.56291198730469 47.144840240478516 73.89570617675781 48.42809295654297 68.64336395263672 48.31183624267578 L 63.817169189453125 47.80992126464844 L 58.93913650512695 55.6482048034668 C 55.38158416748047 59.09889221191406 52.85704040527344 63.09515380859375 52.909358978271484 63.47779083251953 C 53.30213165283203 64.6812973022461 55.3856201171875 65.82865905761719 59.99205780029297 66.6905517578125 C 67.87944030761719 69.37339782714844 73.89617919921875 72.95742797851562 79.05030822753906 78.42181396484375 C 82.69279479980469 82.4209213256836 82.58135223388672 82.73916625976562 81.03709411621094 83.67706298828125 C 80.22523498535156 84.62085723876953 77.4986572265625 86.30815124511719 75.1954345703125 87.856689453125 L 71.84228515625 91.28853607177734 L 64.46881103515625 86.60968780517578" stroke-width="1.0" fill="rgb(255, 202, 10)" opacity="0.99932545"/>
    <path d="M 163.2760009765625 183.79791259765625 C 162.71673583984375 182.83502197265625 176.7132568359375 158.85511779785156 182.87290954589844 150.14871215820312 C 183.6356964111328 149.37326049804688 184.43116760253906 148.53134155273438 184.1822967529297 148.15602111816406 C 183.6143798828125 148.11337280273438 173.0351104736328 147.30831909179688 160.1677703857422 146.40499877929688 L 137.70364379882812 144.20614624023438 L 140.5281219482422 141.55047607421875 C 141.91383361816406 140.8758087158203 145.72012329101562 138.080322265625 149.08096313476562 136.0769805908203 L 154.27548217773438 131.93545532226562 L 166.69764709472656 132.08287048339844 C 181.88201904296875 132.63885498046875 185.78143310546875 133.70156860351562 191.2510528564453 138.65625 C 195.07528686523438 142.44046020507812 194.93353271484375 142.54531860351562 196.0 150.00460815429688 C 195.1595458984375 159.0078125 191.52603149414062 166.31466674804688 183.64450073242188 174.9051055908203 C 175.93612670898438 182.00216674804688 164.8008575439453 186.99069213867188 163.2760009765625 183.79791259765625" stroke-width="1.0" fill="rgb(254, 200, 8)" opacity="0.9992091"/>
    <path d="M 161.34011840820312 118.11292266845703 C 161.4591064453125 115.18098449707031 161.29588317871094 110.49580383300781 160.68423461914062 108.8403091430664 L 159.66065979003906 105.64022827148438 L 168.7351837158203 105.1286849975586 L 177.47491455078125 105.24598693847656 L 178.1885223388672 95.30248260498047 C 179.52407836914062 85.14460754394531 181.07044982910156 83.29698181152344 185.0420684814453 83.21796417236328 C 189.02932739257812 83.11668395996094 190.3875732421875 84.79962158203125 191.37452697753906 92.8097152709961 C 192.17433166503906 100.17418670654297 192.4905242919922 100.32019805908203 188.82315063476562 104.36112976074219 C 186.99166870117188 106.2114486694336 184.3253173828125 110.58453369140625 182.80426025390625 113.72598266601562 C 180.10592651367188 118.62934875488281 179.18701171875 119.40418243408203 174.3509521484375 121.31843566894531 C 171.25448608398438 122.36824798583984 166.9246826171875 123.61421966552734 164.82786560058594 123.90058898925781 L 160.5528564453125 124.83992004394531 L 161.34011840820312 118.11292266845703" stroke-width="1.0" fill="rgb(255, 201, 9)" opacity="0.99969935"/>
    <path d="M 146.24183654785156 87.03666687011719 C 143.8184356689453 85.43026733398438 141.67965698242188 83.6878662109375 140.695556640625 83.64433288574219 C 139.4305877685547 82.73298645019531 146.99954223632812 75.2838363647461 152.72915649414062 71.41171264648438 C 155.26754760742188 70.08062744140625 160.2766876220703 67.67274475097656 163.75360107421875 66.5124740600586 C 168.53045654296875 65.41935729980469 170.6702117919922 64.28587341308594 170.73440551757812 63.32293701171875 C 170.2186737060547 62.78253936767578 168.04580688476562 58.717124938964844 165.1221923828125 54.66409683227539 C 160.64047241210938 47.70886993408203 159.69778442382812 46.960933685302734 157.14434814453125 48.20809555053711 C 150.44187927246094 48.505775451660156 146.59249877929688 47.408756256103516 145.75875854492188 44.65995788574219 C 144.75363159179688 42.00987243652344 145.069091796875 41.57386779785156 147.2435302734375 39.965003967285156 C 149.6951141357422 37.52989959716797 158.78143310546875 37.36082458496094 163.6697998046875 39.612274169921875 C 168.59413146972656 41.526092529296875 176.630615234375 49.92618942260742 179.37127685546875 55.78584671020508 C 183.36553955078125 63.45211410522461 182.02206420898438 67.85929107666016 173.17979431152344 75.86051177978516 C 167.20870971679688 81.38399505615234 153.7391815185547 90.6986083984375 151.8382110595703 90.51446533203125 C 150.88876342773438 90.32099151611328 148.4870147705078 88.86827087402344 146.24183654785156 87.03666687011719" stroke-width="1.0" fill="rgb(255, 201, 10)" opacity="0.9983407"/>
  </g>
</svg>
