<?xml version="1.0" encoding="UTF-8"?>
<svg xmlns="http://www.w3.org/2000/svg" version="1.1" viewBox="0 0 224 224">
  <defs>
    <style>
      .cls-1 {
        fill: #050202;
        opacity: 1;
      }

      .cls-1, .cls-2, .cls-3 {
        isolation: isolate;
      }

      .cls-2 {
        fill: #d77b0f;
        opacity: 1;
      }

      .cls-3 {
        fill: #d89912;
        opacity: 1;
      }

      .cls-4 {
        fill: #d97000;
      }
    </style>
  </defs>
  <!-- Generator: Adobe Illustrator 28.6.0, SVG Export Plug-In . SVG Version: 1.2.0 Build 709)  -->
  <g>
    <g id="_图层_1" data-name="图层_1">
      <g>
        <path class="cls-4" d="M170.6,136.3c-.6-3.3-3.6-3.7-3.5-1-.2,1.7-.2,1.7-1.2-.1-.6-1.5-.6-2.4.6-3.9,1-1,1.6-2.6,1.3-3.5-.7-1.9,1.7-4.9,3.5-4,.9.4.8,1.2-.4,2.1-2.2,1.8-2.2,3.2.2,5.5.6.9,1.1,2.9,1,4.3l-.7,2.4-.9-1.9"/>
        <path class="cls-1" d="M99.8,166.3c-3.3-1.6-5.8-7.3-4.3-11.7.3-1.6,1.2-4.2,3.2-6.3,4.7-4.8,4.9-4.3,1.2-4.6-9.6.1-18.9-2.5-24.2-6.2-3.7-1.6-5.6-3.5-9-5.6,3.1,4.8-3.3,11.3-3.3,10.9.6,3.7,2.8,4.7,10.1,3.7,6.8,1.9,8.9,5.4,8.4,11.5-1.5,4.4-2.2,6.8-5.6,9.6-4.3,0-3.4-1.7-3-3.2,4.7-11.1,2.7-11.8-6.1-10.9-6.3-.4-10.9-3.4-13.3-7.3-2.2-4.6-2-9.8,1.2-15.8,5.6-6.9,5.7-4.2,1.3-10.4-1.7-4.2-3.9-9.2-4.9-12.9-3.7-18.2.8-34.6,12.7-48.2,3.5-2.4,5.1-4.9,6.7-4.8,1.2-1.2-2.8-2.5-9.3-1.4-7.6,2-6.1-.3,2.9-6.1,5.2-4,14.3-4.2,25.4-3,15.9,4.1,25.3,7.2,10.3,6.2-9.2,1.6-18.8,7.4-22.7,13.3-2.6,3.9-3.8,5.3-2.9,9,5.1,3.3,4.6,2.8-1.2,3.6-4.4,3.6-4.8,7.7.5,10.7,6.3,1.7,6.8.8,1.1,3.9-4.8,3.9-1.5,11.2,5.8,8.5,5.9-4.9,4.5-4,3.3,1.8-.6,5.8,3.5,7.7,7.8,4.5,5.8-4.9,4.1-4.7,3.7,2.6,1.7,4.6,5.9,4.9,9.7.7,2.5-4,2.4-5.1,3.2,2.1,2.1,3,3.7,3.9,5.7,2.6,1.5-.3,3.4-.6,3.8-4.7-2.7-5.8-4.6-5.6,1.1-5,4.2,1.5,1.5-1.8.8-4.6-4.4,1.9-5.8,1.8-4.3-1.1,4-4.1,5.9-3.3,1.5-4.9-4.5-3.7-6.1-3.2,1.1-5.2,2.1.9-1.9-6.4-2.2-6.9-1-1.7-2.5-2.5-3.5-3.9s.3-3,1.2-4.5c1.4-2.3,3.8-6.6,6.8-4.6,2.3,1.6,3.4,4.7,5.9,6,4.3,2.2,10.3-.4,14.9,1.5s5.6,3.5,8.6,4.8c1.7,3,3,3.8,5.3,4.7,4,1.1,7.7,2.9,4.5,7.7-1.1,1.6-5,.8-7,.6s-4-1-5.1-.5c-.9.4-1.1,1.4-1,2.3.3,1.6,1.1,1.6,2.4,1.8,3,.6,5.9.9,8.2,3.2-4.7,2.4-11,2.6-14.2-1.7-6.2-5.3-11.3-5.2-9.3-2.8-1.1,3.2-1.9,3.7,1,5.3,5.3,4.6,7.3,10.6,7.1,15,.1-.2.4,3.3.1,4.8.4-.3,3.8-1.6,8.6-2.9,6.2-.2,7.9.4,10.1,1.3,9.2,1.2,10.2,2.6,8.6,12,2,2.3-6.2,4.3-8-.5-4.3-7-10.1-7.5-16.8-2.5-7.5,6.3-8.3,6.5-12.9,2.8-1.7-3.3-4.7-2.4-10.1.4.1-.2,3.4.8,6,3.8,4,5.5,4.2,8.3-1.4,13.6-6.9,7.1-8.9,6.5-.1,6.2,4.1.6,6.4-1.5,8.6-1.9,2.1-2.2,9.2,1.2,9.6,2.7-.9.6-1.5,3.4-1.6,4.1l-7.9,5.3-7-2.3c-9.7.5-11.3-.3-13.2,2.5-4,4.1-11.3,4.5-14.2,1.6"/>
        <path class="cls-2" d="M111.6,78.9l-7.3-2.7,3.6-1.2c2.4-.7,4.7-1.5,5.1-2.2.5-.3-1.4-3.8-3.8-7.1-2.8-3.9-5-7.2-5.3-6.9.1-1,19.7,8.6,23.9,11.7l4.2,4.2-2.6,1.1c-2.9,2.1-3.4,2.1-6.2-.7-2.5-3.1-7.4-4.2-7.2-2,0,.6.6,1.1,1.5.8,2.3,0,7.2,5.5,6.1,7.1-1.3,1.8-3.9,1.5-12.3-2.1"/>
        <path class="cls-3" d="M138.4,164.8l-3.1-.6,3.1-2.4c2.1-2.1,2.5-3.1,1.5-4-1.5-1.2-.6-5.8.8-5.9.6.4,2.1.7,2.9,1.1,1.8.4,1.9.7-.1,2.1-1.9,1.4-2,1.8.8,3.9,1.7,1.7,2.2,2.3,1.2,2.3-3.8-.3-4.8-.1-4.2,2.4.6,1.3.8,2.1.8,2.4-.5-.3-1.9-.8-3.7-1.2"/>
        <path class="cls-4" d="M142.4,84.5c0,0,0,.2,0,.3,0,1.5-2.2,1.2-3.2.9s-1.6-1.5-.9-2.6c.5-.8,1.4-1.3,2.3-.8s1.6,1.3,1.7,2.3Z"/>
      </g>
    </g>
  </g>
</svg>