<?xml version="1.0" ?>
<svg xmlns="http://www.w3.org/2000/svg" version="1.1" width="224" height="224">
  <defs/>
  <g>
    <path d="M 62.259578704833984 100.52156066894531 C 57.88208770751953 99.59680938720703 55.737247467041016 96.65521240234375 55.631465911865234 91.00559997558594 C 54.95929718017578 83.08138275146484 56.516395568847656 72.93670654296875 61.152313232421875 62.31563186645508 C 65.492431640625 52.250038146972656 77.97134399414062 39.020042419433594 87.76519775390625 34.325531005859375 C 94.56153869628906 30.45636749267578 105.27928924560547 28.0 112.21691131591797 28.298263549804688 C 118.6243896484375 28.074119567871094 129.159423828125 30.355911254882812 135.684814453125 33.70384216308594 C 146.56719970703125 38.597023010253906 158.443115234375 51.09086990356445 163.4827117919922 63.24068069458008 C 165.85687255859375 69.21966552734375 166.900634765625 72.49085998535156 168.22036743164062 80.0321044921875 C 169.04071044921875 91.8136978149414 168.30047607421875 95.72624206542969 165.56619262695312 98.57640838623047 L 162.54196166992188 100.42375946044922 L 114.3987045288086 100.49188232421875 C 87.74381256103516 100.63043975830078 64.257080078125 100.6377182006836 62.259578704833984 100.52156066894531" stroke-width="0.0" fill="rgb(250, 243, 221)" opacity="0.99166644"/>
    <path d="M 102.27618408203125 194.34112548828125 C 102.04235076904297 193.4634246826172 99.32928466796875 186.440185546875 96.36880493164062 179.4158935546875 C 93.00828552246094 172.04811096191406 90.59073638916016 165.9508514404297 90.39822387695312 165.8350372314453 C 90.31037139892578 165.74549865722656 100.25599670410156 165.6162109375 112.24242401123047 165.1861572265625 C 124.3817138671875 165.47589111328125 134.4248046875 165.3414306640625 134.25059509277344 165.6458282470703 C 134.030517578125 165.45599365234375 131.29214477539062 172.19834899902344 127.56426239013672 180.63482666015625 L 121.0340576171875 195.423095703125 L 112.07122802734375 195.82308959960938 C 103.98887634277344 195.90403747558594 102.91899108886719 196.0 102.27618408203125 194.34112548828125" stroke-width="1.0" fill="rgb(245, 205, 128)" opacity="0.9922346"/>
    <path d="M 147.08773803710938 72.57158660888672 C 144.0732421875 71.59542083740234 141.12802124023438 67.19032287597656 141.15310668945312 64.34144592285156 C 141.06607055664062 60.417598724365234 145.51809692382812 56.112186431884766 149.66494750976562 56.32439041137695 C 153.9309539794922 56.03501510620117 157.71966552734375 59.90825653076172 157.51002502441406 64.33854675292969 C 157.75411987304688 70.27113342285156 151.8891143798828 74.71857452392578 147.08773803710938 72.57158660888672" stroke-width="1.0" fill="rgb(135, 80, 45)" opacity="0.99584204"/>
    <path d="M 71.19510650634766 72.48480224609375 C 68.26441955566406 71.42506408691406 65.89384460449219 68.25894927978516 65.95057678222656 64.12490844726562 C 65.93634033203125 55.59222412109375 77.0294189453125 53.167457580566406 81.19554901123047 60.812374114990234 C 84.65274047851562 67.39460754394531 77.71308898925781 75.2113037109375 71.19510650634766 72.48480224609375" stroke-width="1.0" fill="rgb(136, 81, 45)" opacity="0.9968194"/>
    <path d="M 108.44940948486328 139.6595458984375 C 97.91702270507812 115.65703582763672 92.30699157714844 101.71260070800781 92.50785064697266 100.90769958496094 C 92.38014221191406 97.63066864013672 109.54387664794922 54.471641540527344 111.9342041015625 52.40110778808594 C 113.12079620361328 51.496028900146484 129.29129028320312 90.77051544189453 130.8167266845703 98.19295501708984 C 131.15061950683594 100.17467498779297 129.4585418701172 104.88809967041016 123.92508697509766 118.02816009521484 C 116.85407257080078 134.33108520507812 111.88021087646484 145.069091796875 111.03338623046875 145.0777587890625 C 111.01343536376953 145.14285278320312 109.84771728515625 142.55926513671875 108.44940948486328 139.6595458984375" stroke-width="1.0" fill="rgb(110, 190, 87)" opacity="1.0"/>
    <path d="M 76.15863037109375 133.41497802734375 C 68.1904525756836 115.48204040527344 61.62559509277344 100.49290466308594 61.62831497192383 100.29379272460938 C 61.33924865722656 99.83796691894531 67.99413299560547 99.63594818115234 76.5072021484375 99.98905181884766 L 91.8922119140625 99.68252563476562 L 98.34493255615234 114.31486511230469 C 107.26667785644531 135.19969177246094 111.05294036865234 143.42950439453125 111.69831848144531 143.45127868652344 C 112.40008544921875 143.47508239746094 118.79280090332031 129.63807678222656 126.2392349243164 111.41109466552734 L 131.2386016845703 100.032958984375 L 147.01856994628906 100.0405502319336 C 155.48414611816406 99.78999328613281 162.59584045410156 99.73661804199219 162.7237091064453 100.28726196289062 C 162.67584228515625 100.9461441040039 137.09732055664062 158.4607391357422 134.89442443847656 163.14443969726562 L 133.33912658691406 165.92689514160156 L 90.61544036865234 166.0648651123047 L 76.15863037109375 133.41497802734375" stroke-width="1.0" fill="rgb(189, 166, 254)" opacity="0.9988454"/>
  </g>
</svg>
