<?xml version="1.0" ?>
<svg xmlns="http://www.w3.org/2000/svg" version="1.1" width="224" height="224">
  <defs/>
  <g>
    <path d="M 107.43714904785156 77.98417663574219 C 104.15303802490234 77.00527954101562 100.48611450195312 74.6253662109375 99.03453063964844 73.55394744873047 L 96.01239776611328 70.44827270507812 L 95.83674621582031 52.51568603515625 C 96.81381225585938 28.0 95.7918701171875 29.35041046142578 108.74470520019531 33.80701446533203 C 122.96278381347656 37.340797424316406 133.74855041503906 44.52076721191406 137.3430633544922 52.563838958740234 C 139.928466796875 58.814022064208984 139.98590087890625 67.30205535888672 136.90640258789062 71.79136657714844 C 132.19476318359375 80.85028076171875 118.56686401367188 83.99934387207031 107.43714904785156 77.98417663574219" stroke-width="0.0" fill="rgb(142, 226, 92)" opacity="0.986342"/>
    <path d="M 46.39765930175781 106.11942291259766 C 42.65315246582031 104.33942413330078 39.519439697265625 102.4052734375 39.03327178955078 101.80992889404297 C 37.060325622558594 99.88362884521484 33.22712707519531 83.08534240722656 32.54491424560547 74.5499267578125 C 31.254562377929688 68.90545654296875 31.57691192626953 67.79186248779297 32.837257385253906 66.90689086914062 C 35.189598083496094 66.022705078125 59.818729400634766 71.21883392333984 61.56277084350586 72.96804809570312 C 61.978248596191406 74.1904296875 63.44247055053711 80.87635803222656 64.550537109375 90.02474212646484 C 66.316162109375 105.82394409179688 66.37921142578125 106.28231048583984 64.6019287109375 107.00030517578125 C 61.291709899902344 109.37718200683594 53.0922737121582 109.00028228759766 46.39765930175781 106.11942291259766" stroke-width="0.0" fill="rgb(142, 225, 91)" opacity="0.99308646"/>
    <path d="M 67.76123046875 154.53558349609375 C 61.65397644042969 151.60879516601562 56.100921630859375 148.697998046875 55.660091400146484 147.83074951171875 C 55.44707489013672 147.3489990234375 55.84262466430664 144.97042846679688 57.34239196777344 140.67431640625 C 58.84857177734375 133.59829711914062 65.46319580078125 126.70074462890625 70.97671508789062 125.61811065673828 C 71.25213623046875 125.05864715576172 78.75794982910156 123.3801040649414 86.63385772705078 122.0562744140625 C 94.39695739746094 120.52659606933594 102.15095520019531 118.48237609863281 103.59862518310547 118.34431457519531 C 108.87225341796875 116.19449615478516 169.73086547851562 101.26097106933594 170.3555145263672 99.9948501586914 C 173.93817138671875 102.40446472167969 179.00949096679688 113.71434783935547 180.4825439453125 120.69206237792969 C 182.08438110351562 130.2607421875 181.7444610595703 140.44325256347656 180.2205810546875 141.40365600585938 C 178.3052520751953 143.07113647460938 168.22824096679688 146.8433380126953 163.00108337402344 148.16241455078125 C 160.5567169189453 147.11146545410156 154.64634704589844 149.03199768066406 149.77236938476562 150.4104766845703 C 131.1005096435547 155.9379119873047 116.44253540039062 157.3682403564453 89.24666595458984 160.5402069091797 L 78.99716186523438 161.17620849609375 L 67.76123046875 154.53558349609375" stroke-width="0.0" fill="rgb(249, 85, 85)" opacity="0.9934941"/>
    <path d="M 162.3173065185547 191.18106079101562 C 157.28659057617188 189.45419311523438 149.3001708984375 181.12200927734375 148.43275451660156 176.2686767578125 C 144.15966796875 161.21975708007812 154.5013427734375 147.58050537109375 170.16946411132812 146.9754638671875 C 182.4894561767578 147.0634307861328 192.04763793945312 156.3178253173828 192.7454376220703 169.1046142578125 C 192.65614318847656 179.41346740722656 186.00473022460938 188.50677490234375 176.75369262695312 191.49794006347656 C 170.7969207763672 193.21206665039062 167.88278198242188 193.14080810546875 162.3173065185547 191.18106079101562" stroke-width="1.0" fill="rgb(87, 85, 84)" opacity="0.99604553"/>
    <path d="M 130.06784057617188 86.55146789550781 C 127.26145935058594 81.98521423339844 123.1102066040039 72.11759185791016 123.58558654785156 70.03739166259766 C 123.22040557861328 69.76324462890625 119.7579116821289 68.54034423828125 115.60408020019531 67.23680114746094 C 108.76983642578125 66.15902709960938 107.57572937011719 65.02571105957031 107.41130065917969 63.201194763183594 C 106.93152618408203 59.603302001953125 108.36051177978516 59.037567138671875 113.90788269042969 60.18264389038086 C 116.94454956054688 60.9162712097168 119.58234405517578 61.22030258178711 119.78150177001953 60.79008483886719 C 121.02530670166016 59.59812545776367 115.84906768798828 54.27187728881836 110.57972717285156 51.41322326660156 C 106.58348083496094 49.536231994628906 105.31647491455078 48.27845001220703 105.39238739013672 46.48994445800781 C 105.30327606201172 45.31629943847656 105.99018096923828 44.055274963378906 106.46858215332031 43.89257049560547 C 108.39551544189453 42.832908630371094 117.65182495117188 47.008514404296875 121.72025299072266 50.806007385253906 C 126.00312805175781 54.32921600341797 127.78518676757812 57.61604309082031 130.65750122070312 68.3227310180664 C 131.94674682617188 73.3939208984375 134.16165161132812 79.38330078125 135.70855712890625 81.8187255859375 C 138.78741455078125 86.91921997070312 138.70755004882812 90.51172637939453 135.7063751220703 90.6488265991211 C 133.73814392089844 90.90473937988281 132.48947143554688 89.87602996826172 130.06784057617188 86.55146789550781" stroke-width="1.0" fill="rgb(42, 173, 112)" opacity="1.0"/>
    <path d="M 70.17311096191406 111.63525390625 C 68.86743927001953 111.03997802734375 66.26115417480469 107.59896850585938 64.70086669921875 103.30864715576172 C 60.93646240234375 95.8262939453125 59.396507263183594 95.60395050048828 51.17362976074219 95.69527435302734 C 49.2808723449707 95.29866790771484 47.20476531982422 94.91576385498047 45.89381408691406 94.18413543701172 C 44.063880920410156 91.85368347167969 44.913063049316406 88.9508056640625 48.062381744384766 88.73151397705078 C 52.33164978027344 88.6208724975586 52.00688552856445 86.77731323242188 46.85211181640625 84.68035888671875 C 41.43268585205078 82.85272979736328 39.388916015625 80.1585693359375 40.777671813964844 77.74298095703125 C 41.65415954589844 76.21174621582031 45.68109130859375 76.45011138916016 51.35677719116211 79.16268920898438 L 56.98573684692383 81.65525817871094 L 59.35847854614258 77.15409088134766 C 63.01140594482422 73.4990005493164 63.57057189941406 73.6748046875 66.65828704833984 76.08686828613281 C 67.33683776855469 78.37667846679688 73.25457763671875 98.70752716064453 72.01835632324219 101.73957824707031 C 72.47940826416016 102.64327239990234 73.48382568359375 104.58158874511719 75.04533386230469 105.94359588623047 C 75.76606750488281 108.48554992675781 75.04414367675781 109.47808837890625 73.94630432128906 110.80413818359375 C 72.29788208007812 112.56011962890625 72.72986602783203 112.9690170288086 70.17311096191406 111.63525390625" stroke-width="0.0" fill="rgb(46, 175, 111)" opacity="1.0"/>
    <path d="M 142.9799346923828 135.98062133789062 C 139.23336791992188 134.330810546875 135.2237091064453 127.75614929199219 135.5433807373047 123.25504302978516 C 135.2339630126953 121.61323547363281 136.24603271484375 118.11241149902344 137.0874786376953 115.82642364501953 C 138.87884521484375 113.51094818115234 140.23818969726562 111.76335906982422 139.93658447265625 111.81802368164062 C 139.57701110839844 111.95083618164062 130.87489318847656 113.56025695800781 120.36753845214844 115.30442810058594 C 110.34068298339844 117.17391967773438 101.15837097167969 118.78410339355469 99.46327209472656 119.11151885986328 C 97.16370391845703 117.36227416992188 104.74332427978516 109.50967407226562 110.48533630371094 107.11564636230469 C 113.15868377685547 105.52851104736328 124.07703399658203 103.70011901855469 134.90875244140625 101.26231384277344 C 145.856689453125 99.41798400878906 155.9091339111328 97.09913635253906 158.06398010253906 95.84156799316406 C 161.1854248046875 94.52123260498047 180.17791748046875 64.82318115234375 180.47430419921875 62.5396614074707 C 180.89508056640625 58.52482604980469 178.92031860351562 55.68020248413086 167.2998046875 45.58903503417969 C 162.8749237060547 41.48020935058594 159.61688232421875 37.35618591308594 160.6622772216797 36.84837341308594 C 160.31298828125 33.93211364746094 162.5145263671875 30.84461212158203 165.71417236328125 31.119178771972656 C 167.6431884765625 31.30321502685547 183.5037384033203 47.340476989746094 188.32476806640625 52.649417877197266 C 190.354248046875 55.55598449707031 191.12799072265625 57.22473907470703 191.45489501953125 61.06495666503906 C 191.52174377441406 67.32682037353516 189.8709259033203 69.97335815429688 178.05215454101562 88.04771423339844 C 169.50552368164062 102.25382995605469 165.2428436279297 105.56246948242188 157.95223999023438 108.01908874511719 L 155.6169891357422 109.06153869628906 L 159.35830688476562 111.47199249267578 C 163.9406280517578 115.7144546508789 165.37762451171875 119.86669158935547 164.85777282714844 125.54949188232422 C 163.0640869140625 135.39389038085938 152.19619750976562 140.72125244140625 142.9799346923828 135.98062133789062" stroke-width="1.0" fill="rgb(38, 38, 39)" opacity="0.991732"/>
    <path d="M 53.63273620605469 191.5760498046875 C 45.09812927246094 188.20147705078125 39.564537048339844 181.2310791015625 38.6048583984375 172.05845642089844 C 37.991233825683594 162.10525512695312 42.253990173339844 154.38665771484375 50.734718322753906 149.97747802734375 C 56.68579864501953 147.0252227783203 65.65193176269531 147.21188354492188 71.05990600585938 149.8218994140625 C 79.99532318115234 154.42457580566406 85.0123291015625 164.08999633789062 83.93194580078125 172.56451416015625 C 81.80573272705078 186.54550170898438 66.7913589477539 196.0 53.63273620605469 191.5760498046875" stroke-width="1.0" fill="rgb(85, 85, 84)" opacity="0.9985419"/>
    <path d="M 164.59779357910156 179.84762573242188 C 162.81739807128906 178.89169311523438 160.69967651367188 176.35594177246094 159.86839294433594 174.2720947265625 C 155.67453002929688 164.38755798339844 166.18746948242188 154.6794891357422 176.03936767578125 159.77911376953125 C 178.79486083984375 161.100341796875 182.03761291503906 166.46371459960938 182.06072998046875 169.42169189453125 C 182.08706665039062 175.1609344482422 175.71083068847656 181.94769287109375 170.51800537109375 181.89443969726562 C 168.93246459960938 181.97457885742188 166.39437866210938 180.93380737304688 164.59779357910156 179.84762573242188" stroke-width="1.0" fill="rgb(38, 38, 39)" opacity="0.99207205"/>
    <path d="M 67.88050079345703 94.35891723632812 C 63.72332000732422 87.2138442993164 62.96257781982422 81.624755859375 65.49580383300781 78.33033752441406 C 69.8003158569336 72.31040954589844 78.07942199707031 90.20095825195312 74.26156616210938 98.72105407714844 C 73.51513671875 99.8627700805664 72.56411743164062 101.01921844482422 72.48283386230469 101.0194091796875 C 72.00819396972656 101.09962463378906 70.05618286132812 98.02239227294922 67.88050079345703 94.35891723632812" stroke-width="1.0" fill="rgb(141, 225, 88)" opacity="1.0"/>
    <path d="M 55.46198272705078 180.27938842773438 C 52.02195358276367 178.31190490722656 49.802574157714844 174.24855041503906 49.766536712646484 168.90553283691406 C 49.779666900634766 165.84698486328125 50.37822341918945 164.58609008789062 53.005584716796875 161.77268981933594 C 55.91465759277344 159.0181427001953 57.0802116394043 158.31858825683594 61.02571105957031 158.42803955078125 C 72.41925048828125 158.3798828125 76.93959045410156 173.02166748046875 67.29867553710938 179.51052856445312 C 63.822914123535156 182.05870056152344 59.53062438964844 182.11709594726562 55.46198272705078 180.27938842773438" stroke-width="1.0" fill="rgb(38, 38, 39)" opacity="0.99199504"/>
    <path d="M 83.60336303710938 170.0050506591797 C 83.2759017944336 168.42855834960938 82.66253662109375 165.4698486328125 82.40576171875 163.70558166503906 C 81.57907104492188 161.09214782714844 80.89093017578125 159.17413330078125 80.8626937866211 158.3939971923828 C 81.08486938476562 158.06202697753906 93.56526947021484 156.5340576171875 109.5251693725586 155.14187622070312 C 135.21726989746094 152.5379638671875 136.887451171875 152.4169464111328 138.4810333251953 149.88543701171875 C 141.42771911621094 146.16213989257812 143.63311767578125 145.38848876953125 153.78175354003906 145.1366729736328 C 162.5862579345703 145.9438018798828 164.43572998046875 145.6806640625 172.30606079101562 142.25726318359375 L 180.63629150390625 139.08155822753906 L 180.92462158203125 144.11846923828125 C 180.97879028320312 149.10240173339844 180.93197631835938 149.83160400390625 179.302978515625 149.01881408691406 C 174.82980346679688 147.28073120117188 166.20828247070312 147.54037475585938 161.96446228027344 148.68170166015625 C 154.09300231933594 151.78457641601562 148.73568725585938 161.68324279785156 147.66574096679688 169.3604736328125 L 147.88845825195312 174.61444091796875 L 83.27470397949219 174.30718994140625 L 83.60336303710938 170.0050506591797" stroke-width="1.0" fill="rgb(110, 28, 39)" opacity="0.99706244"/>
    <path d="M 82.17645263671875 176.15379333496094 L 83.4321517944336 173.2489471435547 L 148.6939697265625 173.38099670410156 L 149.18650817871094 175.84104919433594 C 149.45452880859375 177.08010864257812 149.73753356933594 178.35391235351562 149.7633056640625 178.89718627929688 C 149.6855010986328 179.15809631347656 134.39210510253906 179.29669189453125 115.31952667236328 179.0482177734375 L 81.39884948730469 179.04019165039062 L 82.17645263671875 176.15379333496094" stroke-width="1.0" fill="rgb(186, 85, 46)" opacity="0.9687023"/>
  </g>
</svg>
