<?xml version="1.0" encoding="UTF-8"?>
<svg xmlns="http://www.w3.org/2000/svg" version="1.1" viewBox="0 0 224 224">
  <defs>
    <style>
      .cls-1 {
        fill: #20191e;
      }

      .cls-2 {
        fill: #fbe436;
        opacity: 1;
      }

      .cls-2, .cls-3, .cls-4, .cls-5, .cls-6 {
        isolation: isolate;
      }

      .cls-7 {
        fill: #70758b;
      }

      .cls-3 {
        fill: #fbe234;
        opacity: 1;
      }

      .cls-8 {
        fill: #fcfdfe;
      }

      .cls-9 {
        fill: #dfe5e5;
      }

      .cls-4 {
        fill: #fbe42d;
        opacity: 1;
      }

      .cls-5 {
        fill: #aeb1b7;
        opacity: .9;
      }

      .cls-6 {
        fill: #ffe440;
        opacity: 1;
      }
    </style>
  </defs>
  <!-- Generator: Adobe Illustrator 28.6.0, SVG Export Plug-In . SVG Version: 1.2.0 Build 709)  -->
  <g>
    <g id="_图层_1" data-name="图层_1">
      <g>
        <path class="cls-9" d="M56,56.3v-27.2s9.7,0,9.7,0c9.9-.5,11.8-.3,14.8,3.1,8.5,10.1,21.7,14.5,55.7,16.3,10.2,1.4,21.8,2.5,26.1,3.6,12.7,3.5,18.5,17.1,9.5,26.8l-1.1,6.5H56.1c0,0,0-29.1,0-29.1"/>
        <path class="cls-6" d="M32.3,120.4c-3.6-.5-3.6-1.4-3.5-17.9-.7-15-.3-17.3,3.5-20.6,1.7,1,153.6.6,157.7-.4,5,4,5.1,3.8,4.9,20.9l-.5,16.6-4,1.1c-27,1-154.5,1.5-158.1.3"/>
        <path class="cls-1" d="M44.2,102.7c-1.3-.2-2.2-1.4-1.7-2.6,0-1.4,10.1-1.8,68.8-2,58.1-.6,68.8-.4,68.8,1.2,0,1.1-.9,2.3-2.2,2.9-2.6,1.1-131.2,1.5-133.7.5"/>
        <path class="cls-3" d="M47.6,193.4c-3.4-4.5,1.7-6.5,14.7-5.9,10.3.4,11.6.8,11.6,3.7,0,3.3-1.2,3.5-12.1,4.1-9.3-.4-13.1-.7-14.2-1.9"/>
        <path class="cls-4" d="M89,188.3c-.1-4.5,0-5.8,2.7-6.4,2.9-.7,2.9-2.3,2.7-31.3.2-23.5.5-30.2,2.6-29.8,1.2.8,2.4,8.6,2.8,31.4l.2,29.4h18.9c0,.1.3,12.7.3,12.7l-30.2.3v-6.3"/>
        <path class="cls-9" d="M49.8,157.2l-.2-29-7.4-.4c-6.4-.3-8.3-.9-10.8-2.5l-3.3-5h42.3c23.1.4,60.3.2,83.6.4l42-.8-3.4,5.3c-2.6,2.3-4.7,2.4-12.9,2.2l-10.5.3v59.9c0,0-17.9-.3-17.9-.3l-.6-59.6h-82.3c0,0,.1,60.1.1,60.1l-18.7-.2v-30.3"/>
        <path class="cls-2" d="M145.5,192.7c-2.1-4.1,1.5-5.3,14.8-5.4,12,.7,13.2,1.3,13,4.4.1,3-1,2.9-13.7,3.5-11.4,0-13.8-.5-14.1-2.5"/>
        <path class="cls-5" d="M39.7,113.4c0-1,0-5.8.3-10.6l-.4-10.4,71.2-.4c40.4-4.9,74-3.7,75.6-2.8.3,1.2.7,17.5-.9,19.6-.7,1.4-33.7,2.7-73.2,4-62,2.4-71.9,2.2-72.6.6"/>
        <path class="cls-8" d="M39.5,116l.2-7.1,145.4.2-.2,12-145.3-.7-.2-4.4"/>
        <path class="cls-7" d="M114.1,99.4h-52.7c-4.2,0-18.7,2-20.9-2.5-1.1-2.2-2.1-7.9.8-8.7,4.5-1.3,11.7,0,16.5,0,7,0,14,0,20.9,0s17.7,0,26.5,0c23.1,1.4,46.3-.8,69.5.7,2.1.1,4.4.3,6.1,1.5,5.8,4-.4,6.3-3.8,6.8-5.7.8-11,2.3-16.8,2.3s-14.3,0-21.5,0h-24.6Z"/>
      </g>
    </g>
  </g>
</svg>