<?xml version="1.0" ?>
<svg xmlns="http://www.w3.org/2000/svg" version="1.1" width="224" height="224">
  <defs/>
  <g>
    <path d="M 74.08245849609375 85.97557830810547 C 78.44625091552734 85.97557830810547 82.80926513671875 85.97557830810547 87.17227172851562 85.97557830810547 C 87.17227172851562 118.28685760498047 87.17227172851562 150.59890747070312 87.17227172851562 182.91018676757812 C 82.80926513671875 182.91018676757812 78.44625091552734 182.91018676757812 74.08245849609375 182.91018676757812 C 74.08245849609375 150.59890747070312 74.08245849609375 118.28685760498047 74.08245849609375 85.97557830810547" stroke-width="0.0" fill="rgb(239, 206, 15)" opacity="1.0" stroke="rgb(0, 0, 0)" stroke-opacity="1.0" stroke-linecap="round" stroke-linejoin="round"/>
    <path d="M 74.08245849609375 182.91018676757812 C 99.35487365722656 182.91018676757812 124.62650299072266 182.91018676757812 149.89889526367188 182.91018676757812 C 149.89889526367188 187.2739715576172 149.89889526367188 191.63697814941406 149.89889526367188 196.0 C 124.62650299072266 196.0 99.35487365722656 196.0 74.08245849609375 196.0 C 74.08245849609375 191.63697814941406 74.08245849609375 187.2739715576172 74.08245849609375 182.91018676757812" stroke-width="0.0" fill="rgb(239, 206, 15)" opacity="1.0" stroke="rgb(0, 0, 0)" stroke-opacity="1.0" stroke-linecap="round" stroke-linejoin="round"/>
    <path d="M 136.82772827148438 85.97557830810547 C 141.19073486328125 85.97557830810547 145.55374145507812 85.97557830810547 149.9175262451172 85.97557830810547 C 149.9175262451172 118.28685760498047 149.9175262451172 150.59890747070312 149.9175262451172 182.91018676757812 C 145.55374145507812 182.91018676757812 141.19073486328125 182.91018676757812 136.82772827148438 182.91018676757812 C 136.82772827148438 150.59890747070312 136.82772827148438 118.28685760498047 136.82772827148438 85.97557830810547" stroke-width="0.0" fill="rgb(239, 206, 15)" opacity="1.0" stroke="rgb(0, 0, 0)" stroke-opacity="1.0" stroke-linecap="round" stroke-linejoin="round"/>
    <path d="M 100.2620849609375 27.99999237060547 C 108.01493072509766 27.99999237060547 115.76776885986328 27.99999237060547 123.52061462402344 27.99999237060547 C 123.52061462402344 42.77540588378906 123.52061462402344 57.5500373840332 123.52061462402344 72.32545471191406 C 115.76776885986328 72.32545471191406 108.01493072509766 72.32545471191406 100.2620849609375 72.32545471191406 C 100.2620849609375 57.5500373840332 100.2620849609375 42.77540588378906 100.2620849609375 27.99999237060547" stroke-width="0.0" fill="rgb(224, 45, 45)" opacity="1.0" stroke="rgb(0, 0, 0)" stroke-opacity="1.0" stroke-linecap="round" stroke-linejoin="round"/>
    <path d="M 87.17227172851562 72.88577270507812 C 91.53528594970703 72.88577270507812 95.89830017089844 72.88577270507812 100.2620849609375 72.88577270507812 C 100.2620849609375 77.248779296875 100.2620849609375 81.6125717163086 100.2620849609375 85.97557830810547 C 95.89830017089844 85.97557830810547 91.53528594970703 85.97557830810547 87.17227172851562 85.97557830810547 C 87.17227172851562 81.6125717163086 87.17227172851562 77.248779296875 87.17227172851562 72.88577270507812" stroke-width="0.0" fill="rgb(239, 206, 15)" opacity="1.0" stroke="rgb(0, 0, 0)" stroke-opacity="1.0" stroke-linecap="round" stroke-linejoin="round"/>
    <path d="M 123.50199127197266 72.32545471191406 C 127.86499786376953 72.32545471191406 132.22801208496094 72.32545471191406 136.5910186767578 72.32545471191406 C 136.5910186767578 76.68846893310547 136.5910186767578 81.05148315429688 136.5910186767578 85.41448974609375 C 132.22801208496094 85.41448974609375 127.86499786376953 85.41448974609375 123.50199127197266 85.41448974609375 C 123.50199127197266 81.05148315429688 123.50199127197266 76.68846893310547 123.50199127197266 72.32545471191406" stroke-width="0.0" fill="rgb(239, 206, 15)" opacity="1.0" stroke="rgb(0, 0, 0)" stroke-opacity="1.0" stroke-linecap="round" stroke-linejoin="round"/>
  </g>
</svg>
