<?xml version="1.0" ?>
<svg xmlns="http://www.w3.org/2000/svg" version="1.1" width="224" height="224">
  <defs/>
  <g>
    <path d="M 104.41156768798828 28.0 C 109.47515869140625 28.0 114.53952026367188 28.0 119.60311126708984 28.0 C 119.60311126708984 78.84062194824219 119.60311126708984 129.68124389648438 119.60311126708984 180.52186584472656 C 114.53952026367188 180.52186584472656 109.47515869140625 180.52186584472656 104.41156768798828 180.52186584472656 C 104.41156768798828 129.68124389648438 104.41156768798828 78.84062194824219 104.41156768798828 28.0" stroke-width="0.0" fill="rgb(239, 206, 15)" opacity="1.0"/>
    <path d="M 119.60311126708984 180.80845642089844 C 128.10345458984375 180.80845642089844 136.60302734375 180.80845642089844 145.10336303710938 180.80845642089844 C 145.10336303710938 185.87203979492188 145.10336303710938 190.93563842773438 145.10336303710938 196.0 C 136.60302734375 196.0 128.10345458984375 196.0 119.60311126708984 196.0 C 119.60311126708984 190.93563842773438 119.60311126708984 185.87203979492188 119.60311126708984 180.80845642089844" stroke-width="0.0" fill="rgb(239, 206, 14)" opacity="1.0"/>
    <path d="M 145.10336303710938 165.330322265625 C 149.35586547851562 165.330322265625 153.6083526611328 165.330322265625 157.86083984375 165.330322265625 C 157.86083984375 170.39390563964844 157.86083984375 175.45750427246094 157.86083984375 180.52186584472656 C 153.6083526611328 180.52186584472656 149.35586547851562 180.52186584472656 145.10336303710938 180.52186584472656 C 145.10336303710938 175.45750427246094 145.10336303710938 170.39390563964844 145.10336303710938 165.330322265625" stroke-width="0.0" fill="rgb(239, 205, 15)" opacity="1.0"/>
    <path d="M 43.072975158691406 101.21929931640625 C 89.02458190917969 101.21929931640625 134.97618103027344 101.21929931640625 180.92703247070312 101.21929931640625 C 180.92703247070312 106.28289031982422 180.92703247070312 111.34725952148438 180.92703247070312 116.41085052490234 C 134.97618103027344 116.41085052490234 89.02458190917969 116.41085052490234 43.072975158691406 116.41085052490234 C 43.072975158691406 111.34725952148438 43.072975158691406 106.28289031982422 43.072975158691406 101.21929931640625" stroke-width="0.0" fill="rgb(26, 192, 214)" opacity="1.0"/>
    <path d="M 55.37467956542969 86.02852630615234 C 93.13107299804688 86.02852630615234 130.88746643066406 86.02852630615234 168.64309692382812 86.02852630615234 C 168.64309692382812 91.09211730957031 168.64309692382812 96.15570831298828 168.64309692382812 101.21929931640625 C 130.88746643066406 101.21929931640625 93.13107299804688 101.21929931640625 55.37467956542969 101.21929931640625 C 55.37467956542969 96.15570831298828 55.37467956542969 91.09211730957031 55.37467956542969 86.02852630615234" stroke-width="0.0" fill="rgb(25, 192, 214)" opacity="1.0"/>
    <path d="M 70.68441772460938 70.83698272705078 C 98.2278823852539 70.83698272705078 125.77212524414062 70.83698272705078 153.31558227539062 70.83698272705078 C 153.31558227539062 75.90057373046875 153.31558227539062 80.96416473388672 153.31558227539062 86.02852630615234 C 125.77212524414062 86.02852630615234 98.2278823852539 86.02852630615234 70.68441772460938 86.02852630615234 C 70.68441772460938 80.96416473388672 70.68441772460938 75.90057373046875 70.68441772460938 70.83698272705078" stroke-width="0.0" fill="rgb(26, 192, 214)" opacity="1.0"/>
    <path d="M 83.4604263305664 55.64466094970703 C 102.49273681640625 55.64466094970703 121.52581024169922 55.64466094970703 140.5588836669922 55.64466094970703 C 140.5588836669922 60.70902633666992 140.5588836669922 65.77261352539062 140.5588836669922 70.83698272705078 C 121.52581024169922 70.83698272705078 102.49273681640625 70.83698272705078 83.4604263305664 70.83698272705078 C 83.4604263305664 65.77261352539062 83.4604263305664 60.70902633666992 83.4604263305664 55.64466094970703" stroke-width="0.0" fill="rgb(25, 192, 214)" opacity="1.0"/>
  </g>
</svg>
