<?xml version="1.0" ?>
<svg xmlns="http://www.w3.org/2000/svg" version="1.1" width="224" height="224">
  <defs/>
  <g>
    <path d="M 153.41412353515625 78.54016876220703 C 152.15182495117188 77.48063659667969 148.8138427734375 73.12753295898438 146.26168823242188 68.51661682128906 C 140.2539825439453 59.879661560058594 138.9885711669922 54.920101165771484 140.22723388671875 48.56803512573242 L 139.56869506835938 47.18623352050781 L 165.82513427734375 47.08140182495117 L 165.92666625976562 61.77021026611328 C 165.82293701171875 70.30747985839844 165.72467041015625 78.10023498535156 165.9943084716797 80.3564453125 C 165.61178588867188 79.9590835571289 162.7913818359375 79.52799987792969 159.2984619140625 79.7118148803711 C 154.3415069580078 79.69874572753906 154.33639526367188 79.60465240478516 153.41412353515625 78.54016876220703" stroke-width="0.0" fill="rgb(1, 0, 3)" opacity="0.99733615"/>
    <path d="M 81.69357299804688 38.98918914794922 L 81.64788055419922 28.0 L 142.2450714111328 28.06212615966797 L 142.16046142578125 50.46571350097656 L 81.6021499633789 50.42009353637695 L 81.69357299804688 38.98918914794922" stroke-width="1.0" fill="rgb(0, 0, 1)" opacity="0.9984204"/>
    <path d="M 77.34619903564453 60.88474655151367 C 76.98320007324219 60.80638885498047 76.751953125 57.70237731933594 76.74690246582031 54.39845275878906 L 76.8119888305664 47.170257568359375 L 142.25393676757812 47.336143493652344 L 142.3955078125 61.797393798828125 L 110.59381866455078 62.35544204711914 C 92.43338775634766 61.57533645629883 77.51616668701172 61.15746307373047 77.34619903564453 60.88474655151367" stroke-width="1.0" fill="rgb(21, 160, 128)" opacity="0.9875772"/>
    <path d="M 90.89189147949219 179.40524291992188 L 91.03207397460938 163.27484130859375 L 132.53579711914062 163.5586395263672 L 132.38958740234375 195.95208740234375 L 90.88893127441406 195.7054901123047 L 90.89189147949219 179.40524291992188" stroke-width="1.0" fill="rgb(2, 0, 2)" opacity="1.0"/>
    <path d="M 61.92192840576172 79.78807830810547 L 58.053611755371094 80.00533294677734 L 58.00548553466797 46.90179443359375 L 67.86827087402344 46.965797424316406 C 76.92520141601562 46.80894088745117 80.7710189819336 47.336673736572266 81.29711151123047 47.562225341796875 C 81.4477310180664 48.70695877075195 81.96546173095703 58.461387634277344 81.00907897949219 60.50979232788086 C 80.58625030517578 61.90138244628906 78.04519653320312 66.52815246582031 75.42377471923828 70.7884521484375 C 70.8944320678711 80.93860626220703 69.91763305664062 79.48571014404297 61.92192840576172 79.78807830810547" stroke-width="0.0" fill="rgb(2, 1, 4)" opacity="0.9949187"/>
    <path d="M 87.71871185302734 133.13363647460938 C 81.39198303222656 127.415771484375 81.7406997680664 126.41009521484375 82.1073989868164 118.83747100830078 L 82.25631713867188 114.10724639892578 L 75.69489288330078 113.450439453125 C 72.39421081542969 113.66349029541016 68.98550415039062 113.85557556152344 69.50367736816406 112.97918701171875 C 69.62464141845703 113.1686782836914 68.96302795410156 103.84812927246094 69.21852111816406 92.46202087402344 L 69.37063598632812 71.42422485351562 L 75.02766418457031 66.22116088867188 L 80.91912078857422 60.16734313964844 L 143.19024658203125 60.073883056640625 L 148.90496826171875 66.27166748046875 L 154.51295471191406 71.80256652832031 L 154.19300842285156 93.75981140136719 L 154.47015380859375 113.80670166015625 L 149.56280517578125 113.7579116821289 C 145.9819793701172 113.44695281982422 142.94638061523438 113.5632553100586 141.5556182861328 114.11467742919922 C 142.17047119140625 115.40241241455078 142.07351684570312 117.43534088134766 141.580322265625 121.26447296142578 L 141.84031677246094 126.4556655883789 L 135.49874877929688 132.73257446289062 L 127.74420166015625 141.21585083007812 L 94.0445327758789 140.6419677734375 L 87.71871185302734 133.13363647460938" stroke-width="0.0" fill="rgb(237, 173, 13)" opacity="0.9972104"/>
    <path d="M 147.1060028076172 190.37606811523438 C 146.86257934570312 189.1940155029297 142.7579345703125 176.8466796875 137.8863983154297 162.8689727783203 C 129.77618408203125 139.01075744628906 129.5418701171875 137.34852600097656 130.19332885742188 132.3318328857422 L 130.34432983398438 126.53229522705078 L 139.06585693359375 126.41450500488281 L 147.83505249023438 126.1709213256836 L 152.22427368164062 132.99330139160156 C 154.5663604736328 136.59230041503906 158.9596710205078 143.11965942382812 160.76034545898438 146.5254364013672 L 165.8695526123047 152.8521728515625 L 166.0428924560547 192.39028930664062 L 147.6413116455078 192.40916442871094 L 147.1060028076172 190.37606811523438" stroke-width="0.0" fill="rgb(1, 1, 3)" opacity="0.99465775"/>
    <path d="M 89.52971649169922 155.67222595214844 L 89.58294677734375 147.5751953125 L 134.8697052001953 147.51559448242188 L 134.86643981933594 164.40737915039062 L 89.56169128417969 164.4352569580078 L 89.52971649169922 155.67222595214844" stroke-width="1.0" fill="rgb(226, 25, 36)" opacity="0.9958182"/>
    <path d="M 82.05437469482422 100.23743438720703 C 81.82999420166016 98.82868957519531 81.49932098388672 94.2730712890625 81.74200439453125 85.45378112792969 L 81.6431655883789 71.07286071777344 L 141.92991638183594 71.1154556274414 L 142.0456085205078 84.95709991455078 C 142.24131774902344 94.25472259521484 142.11813354492188 99.00715637207031 141.96621704101562 100.34422302246094 C 139.88514709472656 101.3971176147461 83.63172912597656 101.4075698852539 82.05437469482422 100.23743438720703" stroke-width="0.0" fill="rgb(252, 253, 252)" opacity="0.9918503"/>
    <path d="M 57.95710372924805 173.5358428955078 L 57.98839569091797 152.70851135253906 L 61.31035232543945 148.635986328125 C 63.242374420166016 146.22653198242188 65.8165054321289 142.4232177734375 67.04444885253906 140.2544708251953 C 68.34020233154297 138.22250366210938 71.04759216308594 134.193359375 73.17445373535156 131.44979858398438 L 76.6662826538086 126.26983642578125 L 94.70256805419922 126.12799072265625 L 94.11857604980469 131.36314392089844 C 94.80232238769531 136.29367065429688 94.19094848632812 139.95472717285156 85.8980484008789 165.16741943359375 L 77.12734985351562 192.50067138671875 L 58.073299407958984 194.20254516601562 L 57.95710372924805 173.5358428955078" stroke-width="0.0" fill="rgb(2, 1, 3)" opacity="0.99315375"/>
    <path d="M 91.37625885009766 145.10382080078125 L 91.44430541992188 137.95635986328125 L 131.5440216064453 138.3115692138672 L 131.8109588623047 150.4955596923828 L 91.50833129882812 150.48834228515625 L 91.37625885009766 145.10382080078125" stroke-width="1.0" fill="rgb(2, 4, 4)" opacity="1.0"/>
    <path d="M 129.66871643066406 167.05599975585938 L 129.71360778808594 138.38864135742188 L 148.22576904296875 138.1572265625 L 148.26080322265625 195.58331298828125 L 130.09518432617188 195.70751953125 L 129.66871643066406 167.05599975585938" stroke-width="1.0" fill="rgb(25, 162, 129)" opacity="0.9976371"/>
    <path d="M 104.29988098144531 114.96515655517578 C 104.18424987792969 114.19187927246094 102.3115234375 113.00050354003906 100.28414154052734 112.30310821533203 C 98.25293731689453 111.70101928710938 94.25862121582031 108.55439758300781 91.3453598022461 105.11759948730469 L 85.6944351196289 99.99748992919922 L 89.31495666503906 96.62898254394531 L 92.6944808959961 92.68830871582031 L 104.87391662597656 92.68156433105469 L 104.78773498535156 87.66343688964844 L 104.54534149169922 82.24506378173828 L 118.87678527832031 82.12509155273438 L 118.98851013183594 87.26990509033203 L 118.92427062988281 92.5178451538086 L 131.0731658935547 92.74983215332031 L 134.49610900878906 96.6054458618164 L 137.88685607910156 99.91027069091797 L 132.56857299804688 104.91455078125 C 129.84634399414062 107.91796112060547 125.68472290039062 111.43839263916016 123.13774108886719 112.73059844970703 C 119.23851013183594 115.7372055053711 118.75225830078125 115.89321899414062 112.15540313720703 115.67640686035156 C 107.46906280517578 115.69708251953125 104.7564468383789 115.62777709960938 104.29988098144531 114.96515655517578" stroke-width="1.0" fill="rgb(1, 1, 3)" opacity="0.9973152"/>
    <path d="M 75.91958618164062 167.1125946044922 L 76.07269287109375 138.1267852783203 L 94.30801391601562 138.20718383789062 L 94.09437561035156 196.0 L 76.02442932128906 195.87094116210938 L 75.91958618164062 167.1125946044922" stroke-width="1.0" fill="rgb(26, 160, 131)" opacity="0.9963398"/>
  </g>
</svg>
