<?xml version="1.0" ?>
<svg xmlns="http://www.w3.org/2000/svg" version="1.1" width="224" height="224">
  <defs/>
  <g>
    <path d="M 127.21795654296875 138.39608764648438 C 125.33273315429688 138.05764770507812 125.87812805175781 127.41265106201172 126.45783233642578 115.24378204345703 L 125.72946166992188 92.92414855957031 L 135.5048065185547 87.54715728759766 C 140.42828369140625 85.87033081054688 145.60873413085938 83.50816345214844 147.39198303222656 84.10912322998047 C 151.07904052734375 84.38825225830078 150.81991577148438 84.55183410644531 153.32406616210938 92.31315612792969 C 153.2354278564453 104.67689514160156 152.12796020507812 103.859619140625 160.05953979492188 102.91687774658203 L 167.64739990234375 103.45330810546875 L 167.92916870117188 92.08636474609375 C 167.7889404296875 84.34532928466797 167.7734375 77.70760345458984 168.0911102294922 76.59165954589844 C 169.28878784179688 76.53250122070312 171.6056365966797 76.69721984863281 178.64974975585938 76.2173843383789 L 187.28839111328125 76.18116760253906 L 187.3487548828125 139.21035766601562 L 157.914306640625 140.42637634277344 C 141.3268585205078 140.21678161621094 127.32015991210938 139.51248168945312 127.21795654296875 138.39608764648438" stroke-width="0.0" fill="rgb(255, 35, 15)" opacity="0.9970518"/>
    <path d="M 70.48056030273438 62.721500396728516 L 70.26580810546875 41.53417205810547 L 89.6086196899414 41.33917999267578 L 89.75603485107422 53.64033508300781 L 103.20175170898438 53.80009078979492 L 103.12973022460938 28.0 L 112.74003601074219 28.410125732421875 L 121.97998046875 28.344223022460938 L 121.90938568115234 41.06050109863281 L 122.17084503173828 53.5390625 L 135.08889770507812 53.574398040771484 L 135.0342559814453 41.24604797363281 L 153.70440673828125 41.45692443847656 L 153.88278198242188 84.02030181884766 L 70.50233459472656 84.81298828125 L 70.48056030273438 62.721500396728516" stroke-width="1.0" fill="rgb(255, 34, 15)" opacity="1.0"/>
    <path d="M 36.9671630859375 194.87521362304688 C 36.683509826660156 195.51148986816406 36.607666015625 181.6329803466797 36.4954833984375 165.6770477294922 L 36.51255798339844 137.1250762939453 L 47.517333984375 120.68480682373047 L 58.342872619628906 104.19635009765625 L 64.4147720336914 103.24732971191406 L 70.47470092773438 102.77750396728516 L 70.06681823730469 95.34940338134766 C 70.30493927001953 91.39225006103516 70.56456756591797 87.39290618896484 70.9488525390625 85.54212951660156 C 72.99851989746094 84.80406951904297 81.81806945800781 84.74201965332031 112.19181060791016 84.5044937133789 C 145.81103515625 84.76580047607422 151.21096801757812 84.73326873779297 152.24815368652344 86.0316162109375 C 154.24984741210938 90.40068817138672 151.89352416992188 90.91226196289062 140.47911071777344 90.60513305664062 L 128.6826629638672 89.78203582763672 L 129.00631713867188 112.11933898925781 C 129.24073791503906 124.58110809326172 129.26068115234375 134.95103454589844 128.58656311035156 136.22686767578125 C 131.43240356445312 135.79144287109375 143.8338165283203 135.95135498046875 158.58193969726562 135.79173278808594 C 173.68963623046875 135.40492248535156 186.03280639648438 136.04872131347656 187.16824340820312 137.21121215820312 C 187.34356689453125 138.46319580078125 187.44015502929688 151.79220581054688 187.5045166015625 166.95468139648438 L 187.40283203125 195.6522216796875 L 112.46916198730469 194.75616455078125 C 71.72119903564453 196.0 37.758949279785156 195.69815063476562 36.9671630859375 194.87521362304688" stroke-width="0.0" fill="rgb(237, 239, 236)" opacity="0.9791273"/>
    <path d="M 37.05397033691406 106.24524688720703 L 37.044654846191406 76.31587982177734 L 56.624961853027344 76.39112854003906 L 56.62181091308594 103.45703887939453 L 70.13174438476562 103.29061126708984 L 70.18363952636719 90.30579376220703 L 94.90486145019531 90.30682373046875 L 94.83719635009766 135.83694458007812 L 37.126441955566406 135.90997314453125 L 37.05397033691406 106.24524688720703" stroke-width="1.0" fill="rgb(255, 33, 14)" opacity="0.999011"/>
    <path d="M 94.8866195678711 175.9406280517578 L 94.84967041015625 156.20571899414062 L 129.12315368652344 156.07627868652344 L 129.27883911132812 195.26356506347656 L 94.75672149658203 195.55435180664062 L 94.8866195678711 175.9406280517578" stroke-width="1.0" fill="rgb(14, 17, 23)" opacity="0.9978257"/>
  </g>
</svg>
