<?xml version="1.0" encoding="UTF-8"?>
<svg xmlns="http://www.w3.org/2000/svg" version="1.1" viewBox="0 0 224 224">
  <defs>
    <style>
      .cls-1 {
        fill: #12869b;
        opacity: 1;
      }

      .cls-1, .cls-2, .cls-3, .cls-4, .cls-5, .cls-6, .cls-7, .cls-8, .cls-9 {
        isolation: isolate;
      }

      .cls-2 {
        fill: #fafbf7;
        opacity: 1;
      }

      .cls-3 {
        fill: #252e2e;
        opacity: 1;
      }

      .cls-10 {
        fill: #165668;
      }

      .cls-4 {
        fill: #0e879d;
        opacity: 1;
      }

      .cls-5 {
        fill: #fdfdfa;
        opacity: 1;
      }

      .cls-11 {
        fill: #195869;
      }

      .cls-6 {
        fill: #145567;
        opacity: 1;
      }

      .cls-7 {
        fill: #12879b;
        opacity: 1;
      }

      .cls-8 {
        fill: #263430;
        opacity: 1;
      }

      .cls-9 {
        fill: #165869;
        opacity: 1;
      }
    </style>
  </defs>
  <!-- Generator: Adobe Illustrator 28.6.0, SVG Export Plug-In . SVG Version: 1.2.0 Build 709)  -->
  <g>
    <g id="_图层_1" data-name="图层_1">
      <g>
        <path class="cls-2" d="M128.8,121.1c-2.2-6.6-2.1-7.2,1.8-9.8,1.8-1.2,3.6-2.5,4-2.6.4,0,1.3,2,2,4.8.4,2.5,1.2,5.7,1.6,6.9.7,2,.4,2.1-4.1,2.2-3.7.1-4.8-.3-5.2-1.5"/>
        <path class="cls-1" d="M97.5,158.4c0-.8-3.3-13.7-6.8-28.5l-7.5-27.4-1.1-54.8,53.2.3v28.1c-.5,21.1.3,30.4.5,32.7-3,.9-4.3,3.3-5.8,3.6-2.5,2.3-2.6,2.4-1.7,4-.6,2,.8,3.4.8,4.7,1.4,3.2,1.7,3.8-1.4,19.8-1.6,9.1-3.6,17.2-3.7,19.1-1-.3-1.9-.3-12.6,0-13.2,0-13.4.6-13.8-1.4"/>
        <path class="cls-11" d="M81.6,181.9c0-.1-.1-14.2-2.3-31.2l.2-17.1c0-3.6,0-7.2.1-10.8,0-3.3,1.1-5.2,4.3-6s8.7-2.2,10.7-1.3c1.9-.5,2.1-.2,3.4,2.3,0,2.2,0,3.5.6,5.6,3.7-1.2,5.9.9,5.4,3.8.4.9-.1,2.7,0,4.6-2.1.7-3.3,1.1-3.3,2.8,2.5-.9,3.1,2,3.1,5.3.2,5.2.3,6-1.9,6.6-1.3-.2-2.6,0-3.4.8.8,1-.6,9.7-.2,19l.2,17-8.2-.2c-5.9.4-8.7.2-8.7-1.2"/>
        <path class="cls-10" d="M76.9,116c-1.5.6-3.7-.4-4.5-2.6-.8-1.9-4.3-1.9-10-1.8h-5.7c0,0-.6-7.3-.6-7.3,1.2-2.8.7-5.6-.3-5.5-1.4-.3-4.3-.3-6.7-.3-4.5,0-7.4.2-8.4,0-.5-.7-.5-3.5-.3-6.5v-7.1c0,0-8.1,0-8.1,0h-4.2c0,0-.2-30.8-.2-30.8l7,.3,5.6-.6-.3-13.1h22.2c13.5,0,24.9.1,24.1.4.5.4-1.3,16.9.7,37.9.9,28,.3,35.9-1.1,37.3-1.8,2.8-4.9,2.3-9.2-.2"/>
        <path class="cls-9" d="M123,164.8c.2-17.7.3-18.3-1.5-18.5-1.5,0-1.5-.7-1.7-6,.2-5.4.2-5.9,1.9-5.6.9-.3,1.7-.8,1.7-1.2-.1-.3-.9-.7-1.8-.7-1.5-.2-1.7-.8-1.7-4.9.1-4.1.3-4.7,1.8-4.4,1.5-.2,1.7-.9,1.8-4.4,0-4,.2-4.1,2.1-3.6,1.7.1,1.9.6,2.4,2.1-.4,4.2,0,5,5.6,4.6,3,.4,5.1,0,5.4-.7.5-1,.7,13.1.7,30.5l-.3,31.4h-16.5c0,0,0-18.5,0-18.5"/>
        <path class="cls-6" d="M137.7,118.9c-2.2-6.6-3.5-13.5-2.5-44.3l-.3-34.1h46.5c0,0,0,6.5,0,6.5.2,1.9-.3,5.7-.2,6.9.6.5,3.2.5,6.9.1h5.7c0,0,0,15.4,0,15.4-.3,18.5,2.3,15.2-6.7,15.3l-5.4-.2-.3,8.2c.4,2.6.4,4.9.7,5.2,0,.4-4.2.3-8.4.4-2.9,0-7,.4-8,.4-.8,2.3-.8,4-.5,6.7.3,3.6-.2,5.4,0,6.2-2.2.2-5.1,0-7.6,0-6.3-.2-7,0-7.6,2.7.2,2.6-1,3.3-5,5.6-6.2,2.9-6.2,2.6-7-1"/>
        <path class="cls-3" d="M94.7,116c-2.1-1.7-1.6-3.8,1.1-3.9,1.4,0,2.6,1.2,2.7,2.4,0,2.7-2.1,3.5-3.8,1.5"/>
        <path class="cls-5" d="M83.1,121.2c.2-.7,1.1-4.1,2.1-7.4.9-4.5,1.7-6.3,1.9-5.5.4,1,2.3,2,3.9,2.7,2.2.9,2.8,1.7,2.7,4.2-.3,6.6-.7,7.6-6.1,7.2-3.1,0-4.7-.2-4.5-1.3"/>
        <path class="cls-4" d="M70.6,147.3v-36.2c.1,0,5.8.2,5.8.2l6.2.5.3,35.9v35.4c-.1,0-12.2.2-12.2.2v-36.1"/>
        <path class="cls-8" d="M123.6,115.4c-1.2-1.8-.3-2.7,2-2.6,1.2.2,2.3,1.3,2,2-.2,1.7-2.8,2.1-4,.6"/>
        <path class="cls-7" d="M139.5,152.2c-.3-17.1-.1-33.3,0-36.2-.1-3.6.2-5.1,1-4.9.5,0,3.1.2,5.9,0l4.8.3v71.7c.1,0-12,0-12,0l.4-30.9"/>
      </g>
    </g>
  </g>
</svg>