<?xml version="1.0" ?>
<svg xmlns="http://www.w3.org/2000/svg" version="1.1" width="224" height="224">
  <defs/>
  <g>
    <path d="M 112.88836669921875 33.47160339355469 C 113.9263687133789 35.49658966064453 114.96436309814453 37.52157974243164 116.00160217285156 39.54732131958008 C 117.13710021972656 39.89231872558594 118.27184295654297 40.238067626953125 119.40734100341797 40.58381271362305 C 121.18558502197266 38.411075592041016 122.96382904052734 36.23833465576172 124.74207305908203 34.06559753417969 C 126.39056396484375 35.596336364746094 128.03904724121094 37.127079010009766 129.6875457763672 38.657073974609375 C 129.95004272460938 40.18856430053711 130.21328735351562 41.72006607055664 130.4757843017578 43.25155258178711 C 131.5977783203125 44.63454818725586 132.7205352783203 46.017539978027344 133.84251403808594 47.40053176879883 C 135.8967742919922 45.91929626464844 137.95025634765625 44.43729782104492 140.00375366210938 42.95530700683594 C 140.39224243164062 45.662044525146484 140.78074645996094 48.368778228759766 141.16998291015625 51.07551956176758 C 142.64373779296875 50.73801803588867 144.1174774169922 50.39977264404297 145.59121704101562 50.06227493286133 C 146.0982208251953 49.07527542114258 146.60597229003906 48.08828353881836 147.11370849609375 47.10203552246094 C 149.0382080078125 47.59553909301758 150.96343994140625 48.08978271484375 152.88868713378906 48.58402633666992 C 153.34544372558594 50.16502380371094 153.80218505859375 51.74601745605469 154.25892639160156 53.32700729370117 C 152.93820190429688 54.265254974365234 151.61744689941406 55.2035026550293 150.2967071533203 56.141746520996094 C 152.002197265625 56.83249282836914 153.70767211914062 57.52323913574219 155.4124298095703 58.213985443115234 C 157.5364227294922 57.819488525390625 159.66041564941406 57.42573928833008 161.78439331054688 57.03124237060547 C 160.7156524658203 59.10573196411133 159.6461639404297 61.179473876953125 158.57742309570312 63.253963470458984 C 159.94166564941406 64.93245697021484 161.306640625 66.6116943359375 162.6708984375 68.29019165039062 C 160.69540405273438 70.90843200683594 158.71990966796875 73.52591705322266 156.74441528320312 76.14340209960938 C 155.65843200683594 74.26691436767578 154.57168579101562 72.3896713256836 153.48492431640625 70.51318359375 C 152.4221954345703 72.98292541503906 151.35943603515625 75.45191192626953 150.2967071533203 77.92164611816406 C 149.2362060546875 77.32914733886719 148.17495727539062 76.73664855957031 147.11370849609375 76.14340209960938 C 146.60597229003906 77.67414855957031 146.0982208251953 79.20489501953125 145.59121704101562 80.7348861694336 C 146.79046630859375 81.40988159179688 147.99046325683594 82.0841293334961 149.18971252441406 82.75912475585938 C 147.99046325683594 83.12212371826172 146.79046630859375 83.48512268066406 145.59121704101562 83.8481216430664 C 144.1174774169922 84.13311767578125 142.64373779296875 84.4181137084961 141.16998291015625 84.70311737060547 C 140.20999145507812 85.87911224365234 139.25076293945312 87.05510711669922 138.29075622558594 88.23109436035156 C 139.218505859375 90.73908996582031 140.14549255371094 93.24707794189453 141.0732421875 95.75431823730469 C 138.80674743652344 96.97306060791016 136.54025268554688 98.19255828857422 134.27377319335938 99.41130065917969 C 134.5565185546875 97.81755828857422 134.8392791748047 96.22381591796875 135.12277221679688 94.63007354736328 C 133.343017578125 94.5430679321289 131.5640411376953 94.45606994628906 129.78428649902344 94.36907196044922 C 129.4302978515625 95.5120620727539 129.07554626464844 96.65505981445312 128.7215576171875 97.79805755615234 C 126.87505340576172 98.13705444335938 125.028564453125 98.47530364990234 123.18207550048828 98.81430053710938 C 121.72633361816406 97.28280639648438 120.27058410644531 95.75131225585938 118.8148422241211 94.21981811523438 C 117.72885131835938 92.57807922363281 116.64285278320312 90.93634033203125 115.55685424804688 89.2938461303711 C 113.77787017822266 90.50133514404297 111.99962615966797 91.70883178710938 110.22138214111328 92.91632843017578 C 108.68988800048828 91.34584045410156 107.15839385986328 89.77534484863281 105.62689971923828 88.20484924316406 C 105.87515258789062 87.56885528564453 106.12265014648438 86.9321060180664 106.37090301513672 86.29536437988281 C 105.7289047241211 85.48011016845703 105.08615112304688 84.66411590576172 104.44416046142578 83.8481216430664 C 103.70316314697266 83.8481216430664 102.96216583251953 83.8481216430664 102.22191619873047 83.8481216430664 C 100.84192657470703 84.66411590576172 99.46267700195312 85.48011016845703 98.08343505859375 86.29536437988281 C 96.8451919555664 84.7391128540039 95.606201171875 83.18212127685547 94.36795043945312 81.6258773803711 C 91.55321502685547 81.07088470458984 88.73847961425781 80.51663208007812 85.9229965209961 79.96238708496094 C 87.06298828125 78.1458969116211 88.20298767089844 76.32940673828125 89.34297943115234 74.5129165649414 C 87.26398468017578 72.95816802978516 85.18499755859375 71.40342712402344 83.10600280761719 69.84793090820312 C 84.24224853515625 68.16268920898438 85.37849426269531 66.47669982910156 86.51473999023438 64.79145812988281 C 86.26724243164062 62.99446487426758 86.02049255371094 61.197471618652344 85.77299499511719 59.40047836303711 C 87.10649108886719 59.40047836303711 88.43997955322266 59.40047836303711 89.77347564697266 59.40047836303711 C 89.06472778320312 57.32674026489258 88.3559799194336 55.25225067138672 87.64723205566406 53.17850875854492 C 90.03597259521484 51.202266693115234 92.42471313476562 49.226776123046875 94.81269836425781 47.25128936767578 C 95.9031982421875 49.27627944946289 96.99369049072266 51.30201721191406 98.08343505859375 53.32700729370117 C 99.9674301147461 53.47475814819336 101.85142517089844 53.62250518798828 103.73541259765625 53.76950454711914 C 105.70040130615234 53.5722541809082 107.66539764404297 53.37500762939453 109.63038635253906 53.17850875854492 C 109.38288879394531 52.684261322021484 109.13613891601562 52.19001388549805 108.88863372802734 51.69651412963867 C 107.171142578125 51.202266693115234 105.4529037475586 50.708770751953125 103.73541259765625 50.21527099609375 C 104.36540985107422 47.61053466796875 104.99615478515625 45.00654602050781 105.62689971923828 42.402557373046875 C 106.3678970336914 42.043312072753906 107.10889434814453 41.68406295776367 107.84989929199219 41.324066162109375 C 108.1461410522461 39.69432067871094 108.44314575195312 38.0645751953125 108.73938751220703 36.43483352661133 C 110.12238311767578 35.44709014892578 111.50537872314453 34.45934295654297 112.88836669921875 33.47160339355469" stroke-width="0.0" fill="rgb(53, 128, 63)" opacity="1.0" stroke="rgb(0, 0, 0)" stroke-opacity="1.0" stroke-linecap="round" stroke-linejoin="round"/>
    <path d="M 140.2729949951172 58.846981048583984 C 139.6114959716797 65.36595153808594 138.95001220703125 71.88491821289062 138.28775024414062 78.40464782714844 C 134.1470184326172 82.62712860107422 130.0055389404297 86.849609375 125.86405944824219 91.07208251953125 C 124.96857452392578 97.0390625 124.07382202148438 103.00528717041016 123.17906951904297 108.97151184082031 C 124.07382202148438 109.42300415039062 124.96857452392578 109.87374877929688 125.86405944824219 110.32449340820312 C 126.9718017578125 104.7010269165039 128.07955932617188 99.0768051147461 129.1873016357422 93.45257568359375 C 133.49827575683594 88.88059997558594 137.8092498779297 84.3086166381836 142.12098693847656 79.73664093017578 C 142.60023498535156 73.46217346191406 143.07948303222656 67.18844604492188 143.55873107910156 60.91397476196289 C 142.4637451171875 60.22547912597656 141.3679962158203 59.536231994628906 140.2729949951172 58.846981048583984" stroke-width="0.0" fill="rgb(100, 88, 73)" opacity="1.0" stroke="rgb(0, 0, 0)" stroke-opacity="1.0" stroke-linecap="round" stroke-linejoin="round"/>
    <path d="M 105.2496566772461 60.91397476196289 C 108.77238464355469 65.262451171875 112.29586791992188 69.61093139648438 115.8193588256836 73.95941162109375 C 116.54685974121094 79.58963775634766 117.27359771728516 85.21986389160156 118.0010986328125 90.8493423461914 C 121.24407958984375 94.18082427978516 124.48632049560547 97.5123062133789 127.72930908203125 100.84378814697266 C 127.10755157470703 102.09703826904297 126.48580932617188 103.34953308105469 125.86405944824219 104.60277557373047 C 121.923583984375 100.59554290771484 117.98309326171875 96.58756256103516 114.04261779785156 92.57958221435547 C 113.60836791992188 86.81285095214844 113.17411804199219 81.04688262939453 112.7398681640625 75.28015899658203 C 109.18338775634766 70.80192565917969 105.62765502929688 66.32369995117188 102.0719223022461 61.8454704284668 C 103.13092041015625 61.534969329833984 104.18991088867188 61.22447204589844 105.2496566772461 60.91397476196289" stroke-width="0.0" fill="rgb(100, 88, 73)" opacity="1.0" stroke="rgb(0, 0, 0)" stroke-opacity="1.0" stroke-linecap="round" stroke-linejoin="round"/>
    <path d="M 90.64871978759766 64.29345703125 C 94.94845581054688 71.00967407226562 99.24818420410156 77.72664642333984 103.54791259765625 84.44287109375 C 107.10589599609375 85.06011199951172 110.66387939453125 85.67810821533203 114.22186279296875 86.29536437988281 C 114.22186279296875 85.25736236572266 114.22186279296875 84.21861267089844 114.22186279296875 83.18062591552734 C 111.26087951660156 82.52437591552734 108.30064392089844 81.86813354492188 105.33966064453125 81.21263122558594 C 102.07566833496094 75.82240295410156 98.81168365478516 70.43292999267578 95.54769897460938 65.04345703125 C 93.91495513916016 64.79295349121094 92.28146362304688 64.543212890625 90.64871978759766 64.29345703125" stroke-width="0.0" fill="rgb(100, 88, 73)" opacity="1.0" stroke="rgb(0, 0, 0)" stroke-opacity="1.0" stroke-linecap="round" stroke-linejoin="round"/>
    <path d="M 123.6230697631836 62.290218353271484 C 122.51457214355469 62.69896697998047 121.40608215332031 63.106964111328125 120.29683685302734 63.51496124267578 C 120.79108428955078 69.62218475341797 121.28533172607422 75.72940063476562 121.7788314819336 81.83588409423828 C 124.862060546875 84.10161590576172 127.94530487060547 86.36736297607422 131.02853393554688 88.63309478759766 C 131.8992919921875 87.48335266113281 132.77003479003906 86.33285522460938 133.6415252685547 85.18311309814453 C 130.90029907226562 83.39212036132812 128.15980529785156 81.60112762451172 125.41856384277344 79.81013488769531 C 124.82006072998047 73.96990966796875 124.22157287597656 68.13043975830078 123.6230697631836 62.290218353271484" stroke-width="0.0" fill="rgb(100, 88, 73)" opacity="1.0" stroke="rgb(0, 0, 0)" stroke-opacity="1.0" stroke-linecap="round" stroke-linejoin="round"/>
    <path d="M 130.88528442382812 59.29173278808594 C 130.13003540039062 62.17471694946289 129.3748016357422 65.05696105957031 128.6195526123047 67.93919372558594 C 126.80606079101562 69.19243621826172 124.99256896972656 70.4456787109375 123.17906951904297 71.69892120361328 C 123.40707397460938 72.8741683959961 123.63581848144531 74.0494155883789 123.86382293701172 75.22466278076172 C 126.35305786132812 73.15991973876953 128.84153747558594 71.09593200683594 131.33078002929688 69.03118896484375 C 132.30653381347656 66.15495300292969 133.2830352783203 63.27796173095703 134.25877380371094 60.40172576904297 C 133.134521484375 60.031978607177734 132.01028442382812 59.6622314453125 130.88528442382812 59.29173278808594" stroke-width="0.0" fill="rgb(100, 88, 73)" opacity="1.0" stroke="rgb(0, 0, 0)" stroke-opacity="1.0" stroke-linecap="round" stroke-linejoin="round"/>
    <path d="M 132.92677307128906 57.622989654541016 C 130.90853881835938 60.945472717285156 128.88955688476562 64.26795959472656 126.87129974365234 67.59044647216797 C 129.55178833007812 68.6839370727539 132.23153686523438 69.77668762207031 134.91201782226562 70.87017822265625 C 136.39627075195312 68.42668914794922 137.88050842285156 65.98395538330078 139.36550903320312 63.54121017456055 C 137.21900939941406 61.567970275878906 135.07327270507812 59.595481872558594 132.92677307128906 57.622989654541016" stroke-width="0.0" fill="rgb(105, 155, 72)" opacity="1.0" stroke="rgb(0, 0, 0)" stroke-opacity="1.0" stroke-linecap="round" stroke-linejoin="round"/>
    <path d="M 123.15282440185547 70.76518249511719 C 121.43383026123047 74.00816345214844 119.71484375 77.25189971923828 117.995849609375 80.49488830566406 C 120.89458465576172 82.86337280273438 123.79331970214844 85.23110961914062 126.69205474853516 87.59960174560547 C 129.02980041503906 83.18811798095703 131.36753845214844 78.77738952636719 133.70602416992188 74.36591339111328 C 130.18780517578125 73.1659164428711 126.6703109741211 71.96517181396484 123.15282440185547 70.76518249511719" stroke-width="0.0" fill="rgb(105, 155, 72)" opacity="1.0" stroke="rgb(0, 0, 0)" stroke-opacity="1.0" stroke-linecap="round" stroke-linejoin="round"/>
    <path d="M 117.55634307861328 41.98630905151367 C 116.27310180664062 43.91904830932617 114.9891128540039 45.851043701171875 113.70587158203125 47.78377914428711 C 116.568603515625 48.958282470703125 119.43133544921875 50.132774353027344 122.29407501220703 51.30727005004883 C 122.8205795288086 49.06328201293945 123.34632110595703 46.818538665771484 123.87281799316406 44.57455062866211 C 121.767578125 43.71205520629883 119.66233825683594 42.84880828857422 117.55634307861328 41.98630905151367" stroke-width="0.0" fill="rgb(105, 155, 72)" opacity="1.0" stroke="rgb(0, 0, 0)" stroke-opacity="1.0" stroke-linecap="round" stroke-linejoin="round"/>
    <path d="M 114.83311462402344 52.69776153564453 C 112.38812255859375 53.200260162353516 109.9431381225586 53.70350646972656 107.4981460571289 54.20600509643555 C 107.51164245605469 56.75224304199219 107.52513885498047 59.29848098754883 107.53864288330078 61.8454704284668 C 110.86488342285156 61.16147232055664 114.19186401367188 60.47672653198242 117.51809692382812 59.792728424072266 C 116.62335205078125 57.4279899597168 115.72860717773438 55.0625 114.83311462402344 52.69776153564453" stroke-width="0.0" fill="rgb(105, 155, 72)" opacity="1.0" stroke="rgb(0, 0, 0)" stroke-opacity="1.0" stroke-linecap="round" stroke-linejoin="round"/>
    <path d="M 97.32293701171875 54.452003479003906 C 95.65570068359375 58.638484954833984 93.98845672607422 62.824214935302734 92.32121276855469 67.01069641113281 C 95.59569549560547 67.74419403076172 98.87018585205078 68.47694396972656 102.14541625976562 69.20968627929688 C 103.37091827392578 66.1324462890625 104.59715270996094 63.05446243286133 105.8226547241211 59.97722625732422 C 102.98916625976562 58.13523864746094 100.15642547607422 56.29324722290039 97.32293701171875 54.452003479003906" stroke-width="0.0" fill="rgb(105, 155, 72)" opacity="1.0" stroke="rgb(0, 0, 0)" stroke-opacity="1.0" stroke-linecap="round" stroke-linejoin="round"/>
    <path d="M 107.01739501953125 45.52104187011719 C 104.9579086303711 48.2225341796875 102.8984146118164 50.92401885986328 100.83892822265625 53.62550735473633 C 103.06791687011719 54.8232536315918 105.29615020751953 56.02099609375 107.5243911743164 57.21874237060547 C 109.0401382446289 55.23125076293945 110.55587768554688 53.244510650634766 112.07162475585938 51.25701904296875 C 110.38713073730469 49.34453201293945 108.70263671875 47.43278503417969 107.01739501953125 45.52104187011719" stroke-width="0.0" fill="rgb(105, 155, 72)" opacity="1.0" stroke="rgb(0, 0, 0)" stroke-opacity="1.0" stroke-linecap="round" stroke-linejoin="round"/>
    <path d="M 96.79269409179688 67.34144592285156 C 94.21720886230469 69.02893829345703 91.6409683227539 70.71717834472656 89.06472778320312 72.40467071533203 C 90.30897521972656 75.17890930175781 91.55397033691406 77.95240020751953 92.7982177734375 80.72663116455078 C 95.8207015991211 80.03738403320312 98.84393310546875 79.34814453125 101.86717224121094 78.6596450805664 C 100.1759262084961 74.88640594482422 98.48393249511719 71.11392211914062 96.79269409179688 67.34144592285156" stroke-width="0.0" fill="rgb(105, 155, 72)" opacity="1.0" stroke="rgb(0, 0, 0)" stroke-opacity="1.0" stroke-linecap="round" stroke-linejoin="round"/>
    <path d="M 107.5303955078125 63.47071075439453 C 104.24090576171875 66.46544647216797 100.95142364501953 69.46018981933594 97.66268920898438 72.45492553710938 C 100.25167846679688 74.52116394042969 102.84141540527344 76.58740234375 105.43040466308594 78.65364074707031 C 107.8491439819336 76.45166015625 110.26788330078125 74.24966430664062 112.68737030029297 72.04767608642578 C 110.96837615966797 69.18869018554688 109.2493896484375 66.32969665527344 107.5303955078125 63.47071075439453" stroke-width="0.0" fill="rgb(105, 155, 72)" opacity="1.0" stroke="rgb(0, 0, 0)" stroke-opacity="1.0" stroke-linecap="round" stroke-linejoin="round"/>
    <path d="M 119.10209655761719 73.68416595458984 C 115.31085968017578 73.96241760253906 111.52037811279297 74.24066162109375 107.72914123535156 74.51815795898438 C 108.37938690185547 77.27289581298828 109.0296401977539 80.02763366699219 109.67988586425781 82.7823715209961 C 112.46687316894531 82.57837677001953 115.25460815429688 82.37362670898438 118.04234313964844 82.16963195800781 C 118.39559173583984 79.34139251708984 118.74884796142578 76.51240539550781 119.10209655761719 73.68416595458984" stroke-width="0.0" fill="rgb(105, 155, 72)" opacity="1.0" stroke="rgb(0, 0, 0)" stroke-opacity="1.0" stroke-linecap="round" stroke-linejoin="round"/>
    <path d="M 114.03662109375 57.25099182128906 C 114.59386444091797 62.005218505859375 115.15111541748047 66.76020050048828 115.7091064453125 71.5144271850586 C 119.13883972167969 70.5454330444336 122.5685806274414 69.57643127441406 125.99830627441406 68.606689453125 C 125.58805847167969 65.11170959472656 125.1785659790039 61.615970611572266 124.768310546875 58.1202392578125 C 121.19158172607422 57.83073806762695 117.61409759521484 57.540489196777344 114.03662109375 57.25099182128906" stroke-width="0.0" fill="rgb(105, 155, 72)" opacity="1.0" stroke="rgb(0, 0, 0)" stroke-opacity="1.0" stroke-linecap="round" stroke-linejoin="round"/>
    <path d="M 101.64442443847656 79.15389251708984 C 101.1644287109375 82.18463134765625 100.68367767333984 85.21536254882812 100.20368194580078 88.24610137939453 C 102.48892211914062 88.24310302734375 104.77340698242188 88.24009704589844 107.05864715576172 88.23709869384766 C 107.41189575195312 86.00885772705078 107.76513671875 83.7806167602539 108.119140625 81.55238342285156 C 105.96064758300781 80.75288391113281 103.80216217041016 79.95338439941406 101.64442443847656 79.15389251708984" stroke-width="0.0" fill="rgb(105, 155, 72)" opacity="1.0" stroke="rgb(0, 0, 0)" stroke-opacity="1.0" stroke-linecap="round" stroke-linejoin="round"/>
    <path d="M 120.76858520507812 83.56986999511719 C 118.76309204101562 84.80061340332031 116.75685119628906 86.03135681152344 114.75135803222656 87.26210021972656 C 115.58235931396484 89.51284790039062 116.41260528564453 91.76358795166016 117.24359893798828 94.01432800292969 C 119.96908569335938 92.34033203125 122.69532775878906 90.66708374023438 125.42156219482422 88.99310302734375 C 123.87057495117188 87.18560791015625 122.319580078125 85.37736511230469 120.76858520507812 83.56986999511719" stroke-width="0.0" fill="rgb(105, 155, 72)" opacity="1.0" stroke="rgb(0, 0, 0)" stroke-opacity="1.0" stroke-linecap="round" stroke-linejoin="round"/>
    <path d="M 135.46177673339844 77.9156494140625 C 132.8615264892578 79.87613677978516 130.2620391845703 81.8373794555664 127.66180419921875 83.79786682128906 C 130.90628051757812 86.68535614013672 134.15077209472656 89.57284545898438 137.39524841308594 92.45957946777344 C 139.13674926757812 89.73484802246094 140.8774871826172 87.00935363769531 142.61898803710938 84.28462219238281 C 140.23324584960938 82.161376953125 137.84750366210938 80.03888702392578 135.46177673339844 77.9156494140625" stroke-width="0.0" fill="rgb(105, 155, 72)" opacity="1.0" stroke="rgb(0, 0, 0)" stroke-opacity="1.0" stroke-linecap="round" stroke-linejoin="round"/>
    <path d="M 121.4923324584961 48.03053283691406 C 120.33808135986328 50.899269104003906 119.1845932006836 53.76800537109375 118.03109741210938 56.63599395751953 C 122.08483123779297 57.39423751831055 126.13780975341797 58.153236389160156 130.19154357910156 58.91148376464844 C 130.27178955078125 55.84174728393555 130.35203552246094 52.772010803222656 130.43228149414062 49.7022705078125 C 127.4518051147461 49.14502716064453 124.4720687866211 48.5877799987793 121.4923324584961 48.03053283691406" stroke-width="0.0" fill="rgb(105, 155, 72)" opacity="1.0" stroke="rgb(0, 0, 0)" stroke-opacity="1.0" stroke-linecap="round" stroke-linejoin="round"/>
    <path d="M 143.85797119140625 58.0999870300293 C 143.25123596191406 62.493465423583984 142.64523315429688 66.88694763183594 142.0392303466797 71.28042602539062 C 145.34146118164062 71.20917510986328 148.64370727539062 71.13793182373047 151.9451904296875 71.06668090820312 C 152.39068603515625 67.835693359375 152.83543395996094 64.60470581054688 153.28018188476562 61.373722076416016 C 150.13995361328125 60.28247833251953 146.99896240234375 59.19123077392578 143.85797119140625 58.0999870300293" stroke-width="0.0" fill="rgb(105, 155, 72)" opacity="1.0" stroke="rgb(0, 0, 0)" stroke-opacity="1.0" stroke-linecap="round" stroke-linejoin="round"/>
    <path d="M 142.75624084472656 70.32868194580078 C 140.0802459716797 70.36692810058594 137.40350341796875 70.40443420410156 134.72752380371094 70.44268035888672 C 135.4767608642578 73.93241882324219 136.2267608642578 77.42140197753906 136.97601318359375 80.9111328125 C 139.4532470703125 79.94963073730469 141.9304962158203 78.98814392089844 144.40773010253906 78.02664947509766 C 143.85723876953125 75.46090698242188 143.30673217773438 72.89441680908203 142.75624084472656 70.32868194580078" stroke-width="0.0" fill="rgb(105, 155, 72)" opacity="1.0" stroke="rgb(0, 0, 0)" stroke-opacity="1.0" stroke-linecap="round" stroke-linejoin="round"/>
    <path d="M 132.95602416992188 47.67877960205078 C 132.15052795410156 51.27426528930664 131.3450469970703 54.87050247192383 130.540283203125 58.46598434448242 C 133.9190216064453 59.81222915649414 137.29776000976562 61.15847396850586 140.67724609375 62.50396728515625 C 142.69998168945312 59.39373016357422 144.72198486328125 56.282745361328125 146.74472045898438 53.172508239746094 C 142.14874267578125 51.34101867675781 137.55201721191406 49.51027297973633 132.95602416992188 47.67877960205078" stroke-width="0.0" fill="rgb(105, 155, 72)" opacity="1.0" stroke="rgb(0, 0, 0)" stroke-opacity="1.0" stroke-linecap="round" stroke-linejoin="round"/>
    <path d="M 91.97846984863281 100.78754425048828 C 91.85396575927734 105.12027740478516 91.72871398925781 109.4530029296875 91.60421752929688 113.78573608398438 C 92.92271423339844 113.99122619628906 94.24120330810547 114.19598388671875 95.55970001220703 114.40148162841797 C 95.04820251464844 109.86325073242188 94.53670501708984 105.32502746582031 94.02520751953125 100.78754425048828 C 93.34271240234375 100.78754425048828 92.66095733642578 100.78754425048828 91.97846984863281 100.78754425048828" stroke-width="0.0" fill="rgb(103, 154, 69)" opacity="1.0" stroke="rgb(0, 0, 0)" stroke-opacity="1.0" stroke-linecap="round" stroke-linejoin="round"/>
    <path d="M 71.35505676269531 89.58709716796875 C 71.3265609741211 98.57955169677734 71.29881286621094 107.57201385498047 71.27030944824219 116.5644760131836 C 72.59104919433594 116.87571716308594 73.91179656982422 117.18771362304688 75.2325439453125 117.49896240234375 C 74.64454650878906 108.2642593383789 74.05654907226562 99.02954864501953 73.46929931640625 89.79484558105469 C 72.76429748535156 89.72584533691406 72.06005859375 89.65684509277344 71.35505676269531 89.58709716796875" stroke-width="0.0" fill="rgb(103, 154, 69)" opacity="1.0" stroke="rgb(0, 0, 0)" stroke-opacity="1.0" stroke-linecap="round" stroke-linejoin="round"/>
    <path d="M 64.26908874511719 81.32738494873047 C 65.17059326171875 84.13611602783203 66.07283020019531 86.94560241699219 66.97433471679688 89.75434875488281 C 70.68455505371094 89.74159240722656 74.39479064941406 89.72884368896484 78.10502624511719 89.71609497070312 C 79.0312728881836 86.93061065673828 79.95751953125 84.14437103271484 80.8837661743164 81.35888671875 C 75.34503936767578 81.34838104248047 69.80706787109375 81.33788299560547 64.26908874511719 81.32738494873047" stroke-width="0.0" fill="rgb(174, 32, 37)" opacity="1.0" stroke="rgb(0, 0, 0)" stroke-opacity="1.0" stroke-linecap="round" stroke-linejoin="round"/>
    <path d="M 84.80699157714844 92.50907897949219 C 85.70924377441406 95.31856536865234 86.61149597167969 98.12805938720703 87.51298522949219 100.93753814697266 C 91.22321319580078 100.92478942871094 94.93270874023438 100.91204071044922 98.64293670654297 100.8992919921875 C 99.56993103027344 98.11305236816406 100.4976806640625 95.32756805419922 101.42467498779297 92.54132843017578 C 95.88519287109375 92.53083038330078 90.34647369384766 92.52033233642578 84.80699157714844 92.50907897949219" stroke-width="0.0" fill="rgb(174, 32, 37)" opacity="1.0" stroke="rgb(0, 0, 0)" stroke-opacity="1.0" stroke-linecap="round" stroke-linejoin="round"/>
    <path d="M 151.82818603515625 99.91454315185547 C 151.7036895751953 105.5920181274414 151.5784454345703 111.26874542236328 151.45394897460938 116.94546508789062 C 152.77243041992188 117.21397399902344 154.09092712402344 117.48246765136719 155.409423828125 117.75096130371094 C 154.89793395996094 111.80499267578125 154.38644409179688 105.85977172851562 153.87493896484375 99.91454315185547 C 153.1931915283203 99.91454315185547 152.51068115234375 99.91454315185547 151.82818603515625 99.91454315185547" stroke-width="0.0" fill="rgb(103, 154, 69)" opacity="1.0" stroke="rgb(0, 0, 0)" stroke-opacity="1.0" stroke-linecap="round" stroke-linejoin="round"/>
    <path d="M 144.65672302246094 91.63683319091797 C 145.55897521972656 94.44631958007812 146.46046447753906 97.25581359863281 147.36195373535156 100.0645523071289 C 151.07220458984375 100.05179595947266 154.78244018554688 100.03904724121094 158.49266052246094 100.02629852294922 C 159.41966247558594 97.24080657958984 160.347412109375 94.45457458496094 161.27439880371094 91.6690902709961 C 155.73568725585938 91.65858459472656 150.19619750976562 91.64733123779297 144.65672302246094 91.63683319091797" stroke-width="0.0" fill="rgb(174, 32, 37)" opacity="1.0" stroke="rgb(0, 0, 0)" stroke-opacity="1.0" stroke-linecap="round" stroke-linejoin="round"/>
    <path d="M 171.95359802246094 93.57257080078125 C 171.92660522460938 100.67504119873047 171.8988494873047 107.77825927734375 171.87185668945312 114.88072967529297 C 173.19259643554688 115.19273376464844 174.51333618164062 115.50398254394531 175.83334350585938 115.81523132324219 C 175.24607849121094 108.47050476074219 174.6580810546875 101.12579345703125 174.07083129882812 93.78107452392578 C 173.36509704589844 93.7113265991211 172.65936279296875 93.6415786743164 171.95359802246094 93.57257080078125" stroke-width="0.0" fill="rgb(103, 154, 69)" opacity="1.0" stroke="rgb(0, 0, 0)" stroke-opacity="1.0" stroke-linecap="round" stroke-linejoin="round"/>
    <path d="M 164.8676300048828 85.3121109008789 C 165.76913452148438 88.12159729003906 166.67137145996094 90.93034362792969 167.5728759765625 93.73982238769531 C 171.2838592529297 93.7270736694336 174.99484252929688 93.71432495117188 178.70657348632812 93.70157623291016 C 179.6328125 90.91533660888672 180.55905151367188 88.12985229492188 181.4853057861328 85.3443603515625 C 175.94583129882812 85.3338623046875 170.4063720703125 85.3226089477539 164.8676300048828 85.3121109008789" stroke-width="0.0" fill="rgb(174, 32, 37)" opacity="1.0" stroke="rgb(0, 0, 0)" stroke-opacity="1.0" stroke-linecap="round" stroke-linejoin="round"/>
    <path d="M 175.11334228515625 103.45528411865234 C 177.17282104492188 105.35202026367188 179.23231506347656 107.24876403808594 181.29180908203125 109.1447525024414 C 184.05105590820312 109.71100616455078 186.81028747558594 110.27650451660156 189.56951904296875 110.84274291992188 C 190.1222686767578 112.740234375 190.67501831054688 114.63773345947266 191.22702026367188 116.53522491455078 C 152.97193908691406 116.53071594238281 114.71686553955078 116.5262222290039 76.46178436279297 116.52096557617188 C 77.88752746582031 115.11397552490234 79.31327056884766 113.70623779296875 80.73976135253906 112.29849243164062 C 86.02874755859375 111.9324951171875 91.31846618652344 111.56649780273438 96.6074447631836 111.20050048828125 C 97.66194152832031 110.15875244140625 98.71643829345703 109.11775970458984 99.77017974853516 108.07601165771484 C 101.43742370605469 109.09150695800781 103.10466003417969 110.10625457763672 104.77190399169922 111.12174987792969 C 106.07765197753906 110.62449645996094 107.38414764404297 110.12800598144531 108.68988800048828 109.63075256347656 C 111.71311950683594 109.26475524902344 114.73561096191406 108.89875793457031 117.75810241699219 108.53275299072266 C 118.37984466552734 108.97600555419922 119.0023422241211 109.41925811767578 119.62409210205078 109.86250305175781 C 120.36433410644531 109.1342544555664 121.10533142089844 108.406005859375 121.8455810546875 107.6777572631836 C 122.82882690429688 107.88175964355469 123.81207275390625 108.08576202392578 124.79456329345703 108.28975677490234 C 125.13957214355469 107.31926727294922 125.48381805419922 106.34877014160156 125.82881164550781 105.3790283203125 C 128.23480224609375 106.24977111816406 130.6407928466797 107.12051391601562 133.04678344726562 107.99125671386719 C 137.0675048828125 107.08451080322266 141.08749389648438 106.17776489257812 145.1082305908203 105.2710189819336 C 147.20745849609375 107.35751342773438 149.30670166015625 109.44400787353516 151.4066925048828 111.53124237060547 C 157.64366149902344 110.49325561523438 163.88064575195312 109.45600128173828 170.11761474609375 108.41876220703125 C 171.78260803222656 106.76426696777344 173.44834899902344 105.10977172851562 175.11334228515625 103.45528411865234" stroke-width="0.0" fill="rgb(103, 154, 69)" opacity="1.0" stroke="rgb(0, 0, 0)" stroke-opacity="1.0" stroke-linecap="round" stroke-linejoin="round"/>
    <path d="M 175.33609008789062 107.2712631225586 C 175.861083984375 109.5302505493164 176.38607788085938 111.78999328613281 176.91107177734375 114.04972839355469 C 178.43582153320312 114.87698364257812 179.9605712890625 115.70497131347656 181.4853057861328 116.53221893310547 C 171.95285034179688 116.53822326660156 162.42039489746094 116.54421997070312 152.88868713378906 116.55021667480469 C 153.5179443359375 115.7042236328125 154.14718627929688 114.85748291015625 154.77642822265625 114.01148223876953 C 158.8144073486328 113.80148315429688 162.85238647460938 113.59148406982422 166.890380859375 113.38148498535156 C 169.70587158203125 111.34449768066406 172.52059936523438 109.30750274658203 175.33609008789062 107.2712631225586" stroke-width="0.0" fill="rgb(53, 128, 63)" opacity="1.0" stroke="rgb(0, 0, 0)" stroke-opacity="1.0" stroke-linecap="round" stroke-linejoin="round"/>
    <path d="M 76.91553497314453 104.65602111816406 C 75.42153930664062 106.1440200805664 73.92679595947266 107.63126373291016 72.43205261230469 109.1185073852539 C 69.98031616210938 110.15425109863281 67.52857971191406 111.19000244140625 65.07684326171875 112.22499084472656 C 64.34558868408203 113.51873779296875 63.61509323120117 114.81172943115234 62.883846282958984 116.10546875 C 90.80021667480469 116.0904769897461 118.71734619140625 116.07547760009766 146.6337127685547 116.06122589111328 C 144.04098510742188 114.813232421875 141.44898986816406 113.56598663330078 138.85626220703125 112.31874084472656 C 134.7612762451172 111.80274200439453 130.6670379638672 111.28599548339844 126.57205200195312 110.7699966430664 C 124.80431365966797 109.78299713134766 123.03732299804688 108.79676055908203 121.26958465576172 107.80976104736328 C 120.31558227539062 108.7705078125 119.3615951538086 109.73049926757812 118.40834045410156 110.69049835205078 C 117.81584930419922 110.09725189208984 117.22335052490234 109.5040054321289 116.630859375 108.9100112915039 C 112.80587005615234 108.45101165771484 108.98088836669922 107.99125671386719 105.1559066772461 107.53150939941406 C 104.31291198730469 108.36775970458984 103.47066497802734 109.20475769042969 102.62841796875 110.04100036621094 C 102.28416442871094 109.07050323486328 101.93917083740234 108.10001373291016 101.59492492675781 107.13026428222656 C 100.52542114257812 107.37326049804688 99.45518493652344 107.61625671386719 98.38568115234375 107.85926055908203 C 97.44744110107422 106.8887710571289 96.50994873046875 105.91902160644531 95.57170104980469 104.94852447509766 C 94.17221069335938 105.73751831054688 92.77195739746094 106.52577209472656 91.37246704101562 107.31401062011719 C 90.95846557617188 107.39575958251953 90.54447174072266 107.47676086425781 90.1312255859375 107.5577621459961 C 85.72574615478516 106.59101867675781 81.32101440429688 105.62351989746094 76.91553497314453 104.65602111816406" stroke-width="0.0" fill="rgb(103, 154, 69)" opacity="1.0" stroke="rgb(0, 0, 0)" stroke-opacity="1.0" stroke-linecap="round" stroke-linejoin="round"/>
    <path d="M 78.08702087402344 111.47874450683594 C 77.54402923583984 112.19499206542969 77.00178527832031 112.91123962402344 76.45953369140625 113.62748718261719 C 74.50804138183594 114.44198608398438 72.55654907226562 115.25572967529297 70.6058120727539 116.07022094726562 C 76.23828887939453 116.10546875 81.87151336669922 116.1407241821289 87.50398254394531 116.17597198486328 C 87.29698944091797 115.6104736328125 87.09074401855469 115.04498291015625 86.88374328613281 114.480224609375 C 83.95124816894531 113.479736328125 81.01876831054688 112.47924041748047 78.08702087402344 111.47874450683594" stroke-width="0.0" fill="rgb(53, 128, 63)" opacity="1.0" stroke="rgb(0, 0, 0)" stroke-opacity="1.0" stroke-linecap="round" stroke-linejoin="round"/>
    <path d="M 114.30586242675781 112.59699249267578 C 112.99562072753906 112.90074157714844 111.68462371826172 113.2044906616211 110.3736343383789 113.50748443603516 C 107.0451431274414 113.4234848022461 103.71665954589844 113.33948516845703 100.38817596435547 113.25624084472656 C 99.19343566894531 114.19073486328125 97.99868774414062 115.1259765625 96.80393981933594 116.06122589111328 C 103.67466735839844 116.06797790527344 110.54537963867188 116.07472229003906 117.41535186767578 116.08222198486328 C 116.37885284423828 114.92047882080078 115.34236145019531 113.75873565673828 114.30586242675781 112.59699249267578" stroke-width="0.0" fill="rgb(53, 128, 63)" opacity="1.0" stroke="rgb(0, 0, 0)" stroke-opacity="1.0" stroke-linecap="round" stroke-linejoin="round"/>
    <path d="M 129.9950408935547 111.75099182128906 C 134.55126953125 112.13349151611328 139.10826110839844 112.5159912109375 143.66448974609375 112.89923858642578 C 144.30648803710938 114.1089859008789 144.948486328125 115.31947326660156 145.59121704101562 116.52922058105469 C 139.3557586669922 116.5419692993164 133.12103271484375 116.55472564697266 126.88555908203125 116.56747436523438 C 127.69480895996094 116.02522277832031 128.50404357910156 115.48223114013672 129.3125457763672 114.93922424316406 C 129.54054260253906 113.87648010253906 129.76779174804688 112.81373596191406 129.9950408935547 111.75099182128906" stroke-width="0.0" fill="rgb(53, 128, 63)" opacity="1.0" stroke="rgb(0, 0, 0)" stroke-opacity="1.0" stroke-linecap="round" stroke-linejoin="round"/>
    <path d="M 55.10338592529297 115.85346984863281 C 101.77191925048828 115.85346984863281 148.4412078857422 115.85346984863281 195.11050415039062 115.85346984863281 C 195.40675354003906 119.40921020507812 195.70375061035156 122.9649429321289 196.0 126.52143096923828 C 148.73895263671875 126.52143096923828 101.47792053222656 126.52143096923828 54.216888427734375 126.52143096923828 C 54.51238250732422 122.9649429321289 54.807884216308594 119.40921020507812 55.10338592529297 115.85346984863281" stroke-width="0.0" fill="rgb(174, 32, 37)" opacity="1.0" stroke="rgb(0, 0, 0)" stroke-opacity="1.0" stroke-linecap="round" stroke-linejoin="round"/>
    <path d="M 28.00000762939453 170.97073364257812 C 84.0 170.97073364257812 140.0 170.97073364257812 196.0 170.97073364257812 C 195.70375061035156 174.52645874023438 195.40675354003906 178.08294677734375 195.11050415039062 181.638671875 C 139.70375061035156 181.638671875 84.2969970703125 181.638671875 28.89025115966797 181.638671875 C 28.59400177001953 178.08294677734375 28.29700469970703 174.52645874023438 28.00000762939453 170.97073364257812" stroke-width="0.0" fill="rgb(174, 32, 37)" opacity="1.0" stroke="rgb(0, 0, 0)" stroke-opacity="1.0" stroke-linecap="round" stroke-linejoin="round"/>
    <path d="M 54.65788269042969 121.18519592285156 C 53.917640686035156 129.77867126464844 53.17664337158203 138.37213134765625 52.43639373779297 146.96559143066406 C 45.46892547607422 147.21083068847656 38.50145721435547 147.45533752441406 31.53473663330078 147.70059204101562 C 31.389984130859375 156.04954528808594 31.245994567871094 164.39926147460938 31.101242065429688 172.74896240234375 C 84.73724365234375 172.74896240234375 138.3732452392578 172.74896240234375 192.00924682617188 172.74896240234375 C 191.71224975585938 155.56129455566406 191.416015625 138.3728790283203 191.1190185546875 121.18519592285156 C 145.63246154785156 121.18519592285156 100.14517974853516 121.18519592285156 54.65788269042969 121.18519592285156" stroke-width="0.0" fill="rgb(174, 32, 37)" opacity="1.0" stroke="rgb(0, 0, 0)" stroke-opacity="1.0" stroke-linecap="round" stroke-linejoin="round"/>
    <path d="M 140.00375366210938 136.74313354492188 C 142.37448120117188 136.74313354492188 144.74522399902344 136.74313354492188 147.11671447753906 136.74313354492188 C 147.11671447753906 154.6717987060547 147.11671447753906 172.59971618652344 147.11671447753906 190.52838134765625 C 144.74522399902344 190.52838134765625 142.37448120117188 190.52838134765625 140.00375366210938 190.52838134765625 C 140.00375366210938 172.59971618652344 140.00375366210938 154.6717987060547 140.00375366210938 136.74313354492188" stroke-width="0.0" fill="rgb(174, 32, 37)" opacity="1.0" stroke="rgb(0, 0, 0)" stroke-opacity="1.0" stroke-linecap="round" stroke-linejoin="round"/>
    <path d="M 140.00375366210938 126.52143096923828 C 142.37448120117188 126.52143096923828 144.74522399902344 126.52143096923828 147.11671447753906 126.52143096923828 C 147.11671447753906 130.07716369628906 147.11671447753906 133.6328887939453 147.11671447753906 137.18862915039062 C 144.74522399902344 137.18862915039062 142.37448120117188 137.18862915039062 140.00375366210938 137.18862915039062 C 140.00375366210938 133.6328887939453 140.00375366210938 130.07716369628906 140.00375366210938 126.52143096923828" stroke-width="0.0" fill="rgb(174, 32, 37)" opacity="1.0" stroke="rgb(0, 0, 0)" stroke-opacity="1.0" stroke-linecap="round" stroke-linejoin="round"/>
    <path d="M 77.32878112792969 126.52143096923828 C 79.69952392578125 126.52143096923828 82.07026672363281 126.52143096923828 84.44099426269531 126.52143096923828 C 84.44099426269531 130.07716369628906 84.44099426269531 133.6328887939453 84.44099426269531 137.18862915039062 C 82.07026672363281 137.18862915039062 79.69952392578125 137.18862915039062 77.32878112792969 137.18862915039062 C 77.32878112792969 133.6328887939453 77.32878112792969 130.07716369628906 77.32878112792969 126.52143096923828" stroke-width="0.0" fill="rgb(174, 32, 37)" opacity="1.0" stroke="rgb(0, 0, 0)" stroke-opacity="1.0" stroke-linecap="round" stroke-linejoin="round"/>
    <path d="M 77.32878112792969 136.74313354492188 C 79.69952392578125 136.74313354492188 82.07026672363281 136.74313354492188 84.44099426269531 136.74313354492188 C 84.44099426269531 154.6717987060547 84.44099426269531 172.59971618652344 84.44099426269531 190.52838134765625 C 82.07026672363281 190.52838134765625 79.69952392578125 190.52838134765625 77.32878112792969 190.52838134765625 C 77.32878112792969 172.59971618652344 77.32878112792969 154.6717987060547 77.32878112792969 136.74313354492188" stroke-width="0.0" fill="rgb(174, 32, 37)" opacity="1.0" stroke="rgb(0, 0, 0)" stroke-opacity="1.0" stroke-linecap="round" stroke-linejoin="round"/>
    <path d="M 137.3360137939453 126.37142181396484 C 120.4453353881836 126.42092895507812 103.55465698242188 126.47117614746094 86.66398620605469 126.52143096923828 C 86.66398620605469 138.8926239013672 86.66398620605469 151.26455688476562 86.66398620605469 163.63575744628906 C 103.55465698242188 154.81954956054688 120.4453353881836 146.00408935546875 137.3360137939453 137.18862915039062 C 137.3360137939453 133.5826416015625 137.3360137939453 129.97665405273438 137.3360137939453 126.37142181396484" stroke-width="0.0" fill="rgb(107, 21, 26)" opacity="1.0" stroke="rgb(0, 0, 0)" stroke-opacity="1.0" stroke-linecap="round" stroke-linejoin="round"/>
    <path d="M 184.4515380859375 126.37142181396484 C 172.8948516845703 126.42092895507812 161.33815002441406 126.47117614746094 149.78146362304688 126.52143096923828 C 149.78146362304688 137.411376953125 149.78146362304688 148.30133056640625 149.78146362304688 159.1912841796875 C 161.33815002441406 153.37205505371094 172.8948516845703 147.55282592773438 184.4515380859375 141.73361206054688 C 184.4515380859375 136.61264038085938 184.4515380859375 131.4916534423828 184.4515380859375 126.37142181396484" stroke-width="0.0" fill="rgb(107, 21, 26)" opacity="1.0" stroke="rgb(0, 0, 0)" stroke-opacity="1.0" stroke-linecap="round" stroke-linejoin="round"/>
    <path d="M 63.407344818115234 126.37142181396484 C 67.30732727050781 126.42092895507812 71.20655822753906 126.47117614746094 75.10653686523438 126.52143096923828 C 75.10653686523438 131.11366271972656 75.10653686523438 135.7058868408203 75.10653686523438 140.29736328125 C 70.46856689453125 143.65135192871094 65.83132934570312 147.00534057617188 61.19410705566406 150.35931396484375 C 61.932098388671875 142.36285400390625 62.670101165771484 134.3671417236328 63.407344818115234 126.37142181396484" stroke-width="0.0" fill="rgb(107, 21, 26)" opacity="1.0" stroke="rgb(0, 0, 0)" stroke-opacity="1.0" stroke-linecap="round" stroke-linejoin="round"/>
    <path d="M 84.44099426269531 181.638671875 C 85.33049774169922 181.638671875 86.21998596191406 181.638671875 87.10948944091797 181.638671875 C 86.21998596191406 184.60191345214844 85.33049774169922 187.56515502929688 84.44099426269531 190.52838134765625 C 84.44099426269531 187.56515502929688 84.44099426269531 184.60191345214844 84.44099426269531 181.638671875" stroke-width="0.0" fill="rgb(107, 21, 26)" opacity="1.0" stroke="rgb(0, 0, 0)" stroke-opacity="1.0" stroke-linecap="round" stroke-linejoin="round"/>
    <path d="M 147.11370849609375 181.638671875 C 148.00245666503906 181.638671875 148.89195251464844 181.638671875 149.78146362304688 181.638671875 C 148.89195251464844 184.60191345214844 148.00245666503906 187.56515502929688 147.11370849609375 190.52838134765625 C 147.11370849609375 187.56515502929688 147.11370849609375 184.60191345214844 147.11370849609375 181.638671875" stroke-width="0.0" fill="rgb(107, 21, 26)" opacity="1.0" stroke="rgb(0, 0, 0)" stroke-opacity="1.0" stroke-linecap="round" stroke-linejoin="round"/>
    <path d="M 149.83094787597656 167.85824584960938 C 161.5196533203125 167.85824584960938 173.20834350585938 167.85824584960938 184.89630126953125 167.85824584960938 C 184.89630126953125 169.04324340820312 184.89630126953125 170.22824096679688 184.89630126953125 171.41323852539062 C 173.1918487548828 171.41323852539062 161.4866485595703 171.41323852539062 149.78146362304688 171.41323852539062 C 149.79794311523438 170.22824096679688 149.814453125 169.04324340820312 149.83094787597656 167.85824584960938" stroke-width="0.0" fill="rgb(107, 21, 26)" opacity="1.0" stroke="rgb(0, 0, 0)" stroke-opacity="1.0" stroke-linecap="round" stroke-linejoin="round"/>
    <path d="M 38.708457946777344 167.85824584960938 C 50.841156005859375 167.85824584960938 62.97385025024414 167.85824584960938 75.10653686523438 167.85824584960938 C 75.10653686523438 169.04324340820312 75.10653686523438 170.22824096679688 75.10653686523438 171.41323852539062 C 62.95734786987305 171.41323852539062 50.80815124511719 171.41323852539062 38.658958435058594 171.41323852539062 C 38.67546081542969 170.22824096679688 38.69195556640625 169.04324340820312 38.708457946777344 167.85824584960938" stroke-width="0.0" fill="rgb(107, 21, 26)" opacity="1.0" stroke="rgb(0, 0, 0)" stroke-opacity="1.0" stroke-linecap="round" stroke-linejoin="round"/>
    <path d="M 86.70748901367188 167.85824584960938 C 103.58390808105469 167.85824584960938 120.45958709716797 167.85824584960938 137.3360137939453 167.85824584960938 C 137.3360137939453 169.04324340820312 137.3360137939453 170.22824096679688 137.3360137939453 171.41323852539062 C 120.43558502197266 171.41323852539062 103.53515625 171.41323852539062 86.63473510742188 171.41323852539062 C 86.65873718261719 170.22824096679688 86.68348693847656 169.04324340820312 86.70748901367188 167.85824584960938" stroke-width="0.0" fill="rgb(107, 21, 26)" opacity="1.0" stroke="rgb(0, 0, 0)" stroke-opacity="1.0" stroke-linecap="round" stroke-linejoin="round"/>
    <path d="M 182.0238037109375 118.8287124633789 C 182.528564453125 120.40069580078125 183.03330993652344 121.97344207763672 183.53729248046875 123.54618835449219 C 185.61553955078125 123.53868865966797 187.69378662109375 123.53193664550781 189.77203369140625 123.52518463134766 C 190.29026794433594 121.96444702148438 190.80850219726562 120.4037094116211 191.32676696777344 118.84295654296875 C 188.22628784179688 118.83770751953125 185.1250457763672 118.83320617675781 182.0238037109375 118.8287124633789" stroke-width="0.0" fill="rgb(193, 190, 187)" opacity="1.0" stroke="rgb(0, 0, 0)" stroke-opacity="1.0" stroke-linecap="round" stroke-linejoin="round"/>
    <path d="M 53.62213134765625 114.51847839355469 C 55.25713348388672 114.51847839355469 56.892120361328125 114.51847839355469 58.52711868286133 114.51847839355469 C 57.3856201171875 126.37142181396484 56.24412536621094 138.22512817382812 55.10338592529297 150.07806396484375 C 46.06891632080078 149.9325714111328 37.034461975097656 149.78707885742188 28.00000762939453 149.64157104492188 C 28.00000762939453 148.30807495117188 28.00000762939453 146.97532653808594 28.00000762939453 145.64183044433594 C 35.220970153808594 145.08384704589844 42.44194030761719 144.52508544921875 49.66291046142578 143.96710205078125 C 50.982147216796875 134.15113830566406 52.302146911621094 124.33444213867188 53.62213134765625 114.51847839355469" stroke-width="0.0" fill="rgb(84, 62, 54)" opacity="1.0" stroke="rgb(0, 0, 0)" stroke-opacity="1.0" stroke-linecap="round" stroke-linejoin="round"/>
  </g>
</svg>
