<?xml version="1.0" ?>
<svg xmlns="http://www.w3.org/2000/svg" version="1.1" width="224" height="224">
  <defs/>
  <g>
    <path d="M 150.8748321533203 30.87835693359375 C 155.01235961914062 30.87835693359375 159.14988708496094 30.87835693359375 163.2874298095703 30.87835693359375 C 163.7479248046875 84.57816314697266 164.20765686035156 138.27798461914062 164.66815185546875 191.97857666015625 C 160.52984619140625 191.97857666015625 156.39154052734375 191.97857666015625 152.25323486328125 191.97857666015625 C 151.7935028076172 138.27798461914062 151.33456420898438 84.57816314697266 150.8748321533203 30.87835693359375" stroke-width="0.0" fill="rgb(174, 32, 37)" opacity="1.0" stroke="rgb(0, 0, 0)" stroke-opacity="1.0" stroke-linecap="round" stroke-linejoin="round"/>
    <path d="M 139.6279296875 30.87835693359375 C 143.7654571533203 30.87835693359375 147.90220642089844 30.87835693359375 152.03973388671875 30.87835693359375 C 152.500244140625 84.57816314697266 152.9607391357422 138.27798461914062 153.42124938964844 191.97857666015625 C 149.28294372558594 191.97857666015625 145.14462280273438 191.97857666015625 141.00555419921875 191.97857666015625 C 140.54660034179688 138.27798461914062 140.0868682861328 84.57816314697266 139.6279296875 30.87835693359375" stroke-width="0.0" fill="rgb(241, 158, 117)" opacity="1.0" stroke="rgb(0, 0, 0)" stroke-opacity="1.0" stroke-linecap="round" stroke-linejoin="round"/>
    <path d="M 126.81094360351562 30.87835693359375 C 131.4720916748047 30.87835693359375 136.13246154785156 30.87835693359375 140.79283142089844 30.87835693359375 C 141.25254821777344 84.57816314697266 141.7115020751953 138.27798461914062 142.17044067382812 191.97857666015625 C 138.03369140625 191.97857666015625 133.89617919921875 191.97857666015625 129.75863647460938 191.97857666015625 C 128.7760772705078 138.27798461914062 127.79351043701172 84.57816314697266 126.81094360351562 30.87835693359375" stroke-width="0.0" fill="rgb(255, 232, 118)" opacity="1.0" stroke="rgb(0, 0, 0)" stroke-opacity="1.0" stroke-linecap="round" stroke-linejoin="round"/>
    <path d="M 115.16586303710938 30.87835693359375 C 119.82545471191406 30.87835693359375 124.48504638671875 30.87835693359375 129.14463806152344 30.87835693359375 C 129.73760986328125 84.57816314697266 130.33056640625 138.27798461914062 130.92431640625 191.97857666015625 C 126.78678894042969 191.97857666015625 122.64926147460938 191.97857666015625 118.51173400878906 191.97857666015625 C 117.39592742919922 138.27798461914062 116.28089904785156 84.57816314697266 115.16586303710938 30.87835693359375" stroke-width="0.0" fill="rgb(103, 154, 69)" opacity="1.0" stroke="rgb(0, 0, 0)" stroke-opacity="1.0" stroke-linecap="round" stroke-linejoin="round"/>
    <path d="M 103.91818237304688 30.87835693359375 C 108.05648803710938 30.87835693359375 112.19557189941406 30.87835693359375 116.33387756347656 30.87835693359375 C 117.44812774658203 84.57816314697266 118.5623779296875 138.27798461914062 119.67662811279297 191.97857666015625 C 115.53910064697266 191.97857666015625 111.40235900878906 191.97857666015625 107.26482391357422 191.97857666015625 C 106.14901733398438 138.27798461914062 105.03398895263672 84.57816314697266 103.91818237304688 30.87835693359375" stroke-width="0.0" fill="rgb(54, 99, 134)" opacity="1.0" stroke="rgb(0, 0, 0)" stroke-opacity="1.0" stroke-linecap="round" stroke-linejoin="round"/>
    <path d="M 94.44783782958984 30.87835693359375 C 98.38278198242188 30.87835693359375 102.31693267822266 30.87835693359375 106.2510986328125 30.87835693359375 C 106.97730255126953 84.57816314697266 107.7035140991211 138.27798461914062 108.42972564697266 191.97857666015625 C 104.68101501464844 191.97857666015625 100.93230438232422 191.97857666015625 97.18281555175781 191.97857666015625 C 96.27116394042969 138.27798461914062 95.3594970703125 84.57816314697266 94.44783782958984 30.87835693359375" stroke-width="0.0" fill="rgb(50, 49, 86)" opacity="1.0" stroke="rgb(0, 0, 0)" stroke-opacity="1.0" stroke-linecap="round" stroke-linejoin="round"/>
    <path d="M 60.27155303955078 28.00000762939453 C 95.51534271240234 28.00000762939453 130.75990295410156 28.00000762939453 166.00369262695312 28.00000762939453 C 165.74810791015625 29.492942810058594 165.49253845214844 30.985107421875 165.23696899414062 32.47804260253906 C 130.60952758789062 32.733619689941406 95.9820785522461 32.98919677734375 61.35462951660156 33.244773864746094 C 60.993865966796875 31.497032165527344 60.63231658935547 29.748519897460938 60.27155303955078 28.00000762939453" stroke-width="0.0" fill="rgb(92, 94, 95)" opacity="1.0" stroke="rgb(0, 0, 0)" stroke-opacity="1.0" stroke-linecap="round" stroke-linejoin="round"/>
    <path d="M 57.45475769042969 190.11083984375 C 93.81825256347656 190.3664093017578 130.18173217773438 190.6212158203125 166.5452423095703 190.8767852783203 C 166.80081176757812 192.58477783203125 167.05638122558594 194.29200744628906 167.3119659423828 196.0 C 130.43731689453125 196.0 93.56267547607422 196.0 56.68803405761719 196.0 C 56.94361114501953 194.03720092773438 57.199180603027344 192.07363891601562 57.45475769042969 190.11083984375" stroke-width="0.0" fill="rgb(92, 94, 95)" opacity="1.0" stroke="rgb(0, 0, 0)" stroke-opacity="1.0" stroke-linecap="round" stroke-linejoin="round"/>
  </g>
</svg>
