<?xml version="1.0" ?>
<svg xmlns="http://www.w3.org/2000/svg" version="1.1" width="224" height="224">
  <defs/>
  <g>
    <path d="M 92.99215698242188 153.60153198242188 L 93.12272644042969 138.83425903320312 L 96.00686645507812 133.0418701171875 C 99.15750122070312 126.97041320800781 109.68089294433594 114.80194091796875 111.95407104492188 114.41978454589844 C 114.43856048583984 114.55708312988281 124.2399673461914 124.53561401367188 127.4544906616211 131.0625457763672 L 130.6514434814453 136.71929931640625 L 132.29139709472656 167.12762451171875 L 93.86753845214844 167.65982055664062 L 92.99215698242188 153.60153198242188" stroke-width="1.0" fill="rgb(28, 28, 27)" opacity="0.9884649"/>
    <path d="M 33.021751403808594 167.81211853027344 C 32.00975036621094 166.6964111328125 34.37712097167969 101.59703063964844 35.586456298828125 100.3814926147461 C 36.35633850097656 99.85669708251953 36.67107391357422 95.74879455566406 36.03779602050781 91.16448974609375 C 35.66114044189453 81.42634582519531 36.68098449707031 67.81239318847656 38.416954040527344 67.9827880859375 C 38.905052185058594 68.64169311523438 42.978851318359375 79.71546936035156 45.54698944091797 88.02290344238281 C 46.89105224609375 90.38878631591797 48.14618682861328 103.66722106933594 50.13083267211914 117.17206573486328 C 52.3221435546875 130.74400329589844 54.88624572753906 147.5662078857422 55.979557037353516 154.6494903564453 C 57.20627212524414 162.28860473632812 58.054466247558594 168.2179412841797 57.87529754638672 168.24200439453125 C 57.09571838378906 169.42469787597656 33.39329528808594 169.0682373046875 33.021751403808594 167.81211853027344" stroke-width="0.0" fill="rgb(106, 149, 59)" opacity="0.9945174"/>
    <path d="M 58.25727081298828 167.82131958007812 C 59.110931396484375 165.7254180908203 59.22626495361328 157.0504913330078 59.19264602661133 147.6975555419922 C 58.9787712097168 139.52923583984375 57.89820098876953 119.16011810302734 56.71553039550781 103.22805786132812 L 54.5216064453125 74.4342269897461 L 59.449947357177734 68.35023498535156 C 64.12397766113281 62.09156036376953 64.26945495605469 62.47848129272461 67.90934753417969 62.96750259399414 C 70.16071319580078 62.49850845336914 72.46698760986328 62.83190155029297 71.67727661132812 63.73716735839844 C 73.22731018066406 55.59001159667969 72.93519592285156 55.33335876464844 75.78914642333984 55.89128494262695 C 81.6598892211914 55.95800018310547 83.27938842773438 54.91728973388672 83.32320404052734 58.29979705810547 C 84.38775634765625 62.89436340332031 84.03105163574219 63.0731315612793 87.78662109375 62.926578521728516 C 91.240234375 62.64543914794922 92.83236694335938 62.97826385498047 92.16704559326172 60.272727966308594 L 91.63047790527344 56.31532287597656 L 132.0804443359375 57.107276916503906 L 129.68838500976562 60.52973556518555 C 130.9239959716797 63.04338073730469 132.4271697998047 62.958560943603516 137.74560546875 62.67752456665039 C 139.29397583007812 62.62718200683594 140.6777801513672 61.96794128417969 138.76698303222656 63.41744613647461 C 141.122314453125 61.0948371887207 140.26722717285156 58.36695098876953 140.39772033691406 57.23615646362305 C 140.60360717773438 55.536155700683594 142.64987182617188 55.78581237792969 146.70281982421875 56.00880432128906 C 151.31329345703125 55.87063980102539 150.32891845703125 55.09381866455078 151.31541442871094 61.76899337768555 C 152.85726928710938 63.89288330078125 152.6634979248047 62.80705642700195 157.472900390625 62.878482818603516 C 159.83599853515625 62.359596252441406 160.2752685546875 62.753456115722656 164.66595458984375 69.00135040283203 L 169.13156127929688 74.29942321777344 L 168.027099609375 89.20531463623047 C 166.79173278808594 107.23518371582031 164.92198181152344 141.78135681152344 164.84671020507812 154.9707794189453 C 165.35336303710938 163.53677368164062 164.83531188964844 167.73760986328125 163.712158203125 167.6990509033203 C 163.50599670410156 168.63571166992188 157.04698181152344 168.2642822265625 146.79409790039062 167.84164428710938 L 130.20237731933594 167.7041778564453 L 129.77041625976562 138.61026000976562 L 126.86708068847656 132.3721160888672 C 124.14378356933594 125.48729705810547 114.6904296875 117.50570678710938 111.75270080566406 115.8843002319336 C 109.67694854736328 116.95162963867188 101.89756774902344 123.84880828857422 98.02574920654297 130.9517822265625 L 94.0063247680664 138.795166015625 L 93.98377990722656 152.84197998046875 L 93.5012435913086 169.53460693359375 L 76.51341247558594 167.20925903320312 C 63.60662841796875 167.37469482421875 59.975181579589844 166.75613403320312 58.25727081298828 167.82131958007812" stroke-width="0.0" fill="rgb(241, 237, 228)" opacity="0.9970842"/>
    <path d="M 29.5379638671875 158.10696411132812 C 29.904159545898438 152.77706909179688 31.016342163085938 133.42575073242188 31.882972717285156 114.57514953613281 C 34.46739196777344 66.58784484863281 33.667266845703125 64.85505676269531 36.05967712402344 66.22334289550781 C 38.60957336425781 65.27245330810547 38.18730163574219 68.63801574707031 37.63243103027344 93.77995300292969 C 36.42939758300781 121.06837463378906 35.62440490722656 150.9420928955078 34.98272705078125 162.8653106689453 C 34.48810577392578 167.19920349121094 34.041465759277344 167.87530517578125 31.903228759765625 167.71128845214844 L 28.959686279296875 168.0748748779297 L 29.5379638671875 158.10696411132812" stroke-width="1.0" fill="rgb(237, 231, 218)" opacity="0.9906488"/>
    <path d="M 97.28748321533203 73.95752716064453 C 94.89895629882812 73.58890533447266 92.74305725097656 73.21391296386719 91.7181396484375 73.02002716064453 C 91.66165161132812 72.07455444335938 91.76986694335938 66.57504272460938 91.65702819824219 59.57081604003906 C 90.224365234375 43.8453369140625 88.03533935546875 45.521034240722656 96.9473648071289 45.640960693359375 C 102.00025939941406 45.62525939941406 105.9366455078125 45.033817291259766 106.85408782958984 45.809165954589844 C 106.74662017822266 49.549381256103516 115.88822174072266 49.53605270385742 116.79042053222656 45.60541534423828 C 118.91339874267578 44.89885330200195 130.10433959960938 45.728248596191406 133.15785217285156 44.93619918823242 C 133.9889373779297 46.83367156982422 133.6945037841797 48.32177734375 132.36444091796875 59.74430465698242 C 131.4773712158203 67.2868423461914 132.2903289794922 72.67730712890625 131.63250732421875 73.16246795654297 C 130.48858642578125 74.19842529296875 127.40960693359375 74.05876159667969 116.15885162353516 73.65585327148438 C 108.4494857788086 73.94247436523438 99.94721221923828 73.82360076904297 97.28748321533203 73.95752716064453" stroke-width="0.0" fill="rgb(203, 187, 171)" opacity="0.99743384"/>
    <path d="M 52.74533462524414 71.07876586914062 C 51.732879638671875 67.67182922363281 48.19072723388672 53.28889083862305 48.240074157714844 52.11079025268555 C 48.03394317626953 51.35747146606445 63.0199089050293 51.2706184387207 63.895626068115234 51.93504333496094 C 64.1382064819336 52.543479919433594 64.47572326660156 57.22811508178711 64.73056030273438 63.05377960205078 L 64.83998107910156 73.97903442382812 L 59.50832748413086 73.99826049804688 C 53.85762023925781 74.0886459350586 53.48302459716797 73.9867172241211 52.74533462524414 71.07876586914062" stroke-width="1.0" fill="rgb(206, 190, 173)" opacity="0.986641"/>
    <path d="M 158.510986328125 66.94402313232422 C 159.01678466796875 63.62300109863281 159.167236328125 58.34441375732422 159.41839599609375 55.804054260253906 L 159.8000946044922 51.117435455322266 L 167.6116180419922 51.437110900878906 C 172.69017028808594 51.45948028564453 175.22421264648438 51.69396209716797 175.5797119140625 52.1281623840332 C 175.5146026611328 53.15727996826172 173.65574645996094 61.16012954711914 171.1298828125 70.57324981689453 L 170.43386840820312 73.86931610107422 L 159.41748046875 73.6852798461914 L 158.510986328125 66.94402313232422" stroke-width="1.0" fill="rgb(205, 190, 173)" opacity="0.99166876"/>
    <path d="M 76.56777954101562 96.52771759033203 C 76.34053039550781 95.84458923339844 75.92739868164062 92.73735809326172 75.55174255371094 89.28328704833984 L 74.88113403320312 82.3919677734375 L 83.32829284667969 82.43319702148438 L 82.94966125488281 85.61763000488281 C 82.83260345458984 87.23768615722656 82.68989562988281 89.82074737548828 82.56941223144531 92.73503875732422 C 82.1921615600586 97.08712768554688 82.11433410644531 96.81697845458984 79.85308837890625 96.66436004638672 C 77.89430236816406 96.72923278808594 76.68245697021484 96.8804931640625 76.56777954101562 96.52771759033203" stroke-width="1.0" fill="rgb(31, 30, 31)" opacity="0.98721385"/>
    <path d="M 141.99923706054688 93.26937866210938 C 141.9013214111328 90.68285369873047 141.49769592285156 87.29754638671875 141.39443969726562 85.80040740966797 C 141.3843231201172 82.32514190673828 141.52578735351562 82.33885192871094 145.01400756835938 82.42085266113281 L 149.36056518554688 82.3083724975586 L 149.07505798339844 86.81564331054688 C 148.66567993164062 96.65504455566406 148.4322967529297 97.08409881591797 145.67564392089844 96.48059844970703 C 142.702392578125 96.68082427978516 142.15216064453125 96.80047607421875 141.99923706054688 93.26937866210938" stroke-width="1.0" fill="rgb(31, 30, 32)" opacity="0.98397857"/>
    <path d="M 109.45506286621094 97.10859680175781 C 109.18215942382812 95.32198333740234 109.0341567993164 92.1357421875 108.57913208007812 89.18920135498047 L 108.21746063232422 82.59221649169922 L 116.07440185546875 82.468017578125 L 115.60562133789062 87.49823760986328 C 115.23064422607422 89.5218505859375 115.10916137695312 93.02716064453125 115.11441802978516 94.77440643310547 C 114.85942840576172 97.27420806884766 114.40667724609375 97.59126281738281 112.70121002197266 97.33036041259766 C 111.19618225097656 97.6034164428711 110.16413879394531 97.34192657470703 109.45506286621094 97.10859680175781" stroke-width="1.0" fill="rgb(30, 30, 31)" opacity="0.98636496"/>
    <path d="M 71.03227996826172 158.89761352539062 L 70.73796081542969 151.18203735351562 L 88.26107025146484 151.14834594726562 L 88.35969543457031 165.24551391601562 L 70.94989013671875 165.58132934570312 L 71.03227996826172 158.89761352539062" stroke-width="1.0" fill="rgb(27, 26, 27)" opacity="0.9887505"/>
    <path d="M 136.55068969726562 158.62457275390625 L 136.41909790039062 151.10354614257812 L 153.34080505371094 151.09580993652344 L 153.29769897460938 165.78184509277344 L 136.2796173095703 165.88401794433594 L 136.55068969726562 158.62457275390625" stroke-width="1.0" fill="rgb(26, 25, 26)" opacity="0.99310017"/>
    <path d="M 79.61982727050781 127.25626373291016 C 78.11065673828125 122.75953674316406 77.78117370605469 122.84405517578125 80.93577575683594 122.47683715820312 C 85.0873031616211 121.7624282836914 85.08418273925781 122.3110580444336 83.31625366210938 127.33821105957031 L 81.38111877441406 131.55599975585938 L 79.61982727050781 127.25626373291016" stroke-width="1.0" fill="rgb(34, 34, 31)" opacity="0.96214926"/>
    <path d="M 140.47421264648438 127.20625305175781 C 138.73834228515625 122.80651092529297 139.020263671875 122.07102966308594 143.07357788085938 122.69857788085938 C 145.74591064453125 122.38584899902344 145.82095336914062 122.7378921508789 144.11709594726562 127.16215515136719 L 142.2874755859375 131.68531799316406 L 140.47421264648438 127.20625305175781" stroke-width="1.0" fill="rgb(35, 35, 30)" opacity="0.96388394"/>
    <path d="M 28.311660766601562 180.10488891601562 C 27.99999237060547 178.4541778564453 28.764320373535156 167.39651489257812 29.334083557128906 165.42193603515625 C 31.139419555664062 165.29689025878906 51.826141357421875 165.95162963867188 90.1189193725586 165.36441040039062 C 123.10137176513672 165.59664916992188 158.80477905273438 165.59109497070312 171.0408477783203 164.6241455078125 C 195.60130310058594 164.8988037109375 195.50759887695312 164.52723693847656 195.48080444335938 172.4210205078125 C 195.3214569091797 175.5513153076172 195.9872283935547 178.68722534179688 196.0 179.84976196289062 C 194.943603515625 180.00978088378906 180.52011108398438 179.7986602783203 112.64208221435547 180.1546630859375 C 67.05984497070312 180.09197998046875 29.819107055664062 179.91236877441406 28.311660766601562 180.10488891601562" stroke-width="0.0" fill="rgb(203, 184, 170)" opacity="0.9925252"/>
    <path d="M 107.27044677734375 49.554473876953125 C 107.17552947998047 47.67966842651367 107.55175018310547 47.48503875732422 111.92013549804688 47.80044937133789 C 116.23014831542969 47.7495002746582 116.43885040283203 47.97392654418945 116.33232116699219 50.128047943115234 C 116.25439453125 52.046268463134766 116.0310287475586 52.308143615722656 111.75540924072266 52.267669677734375 C 107.28968811035156 52.0921745300293 107.16358947753906 51.83413314819336 107.27044677734375 49.554473876953125" stroke-width="1.0" fill="rgb(110, 149, 66)" opacity="0.9503088"/>
    <path d="M 166.10470581054688 164.48895263671875 C 165.83885192871094 164.58560180664062 166.9044647216797 159.58197021484375 168.63299560546875 148.4159698486328 C 170.0283203125 139.85125732421875 172.3587646484375 124.58663940429688 173.95225524902344 114.58878326416016 C 175.23814392089844 104.57910919189453 177.05206298828125 93.92436218261719 177.19847106933594 91.44804382324219 C 179.94570922851562 83.53527069091797 185.5924530029297 67.1341323852539 186.63182067871094 65.97660827636719 C 187.94967651367188 66.6937255859375 188.4983673095703 72.26104736328125 190.13162231445312 80.74845123291016 C 189.62725830078125 88.81546020507812 189.30953979492188 110.79863739013672 190.10940551757812 129.715087890625 C 190.99676513671875 148.3218994140625 190.8699951171875 164.23289489746094 191.27737426757812 164.90330505371094 C 189.83401489257812 165.63333129882812 187.96905517578125 165.5178985595703 178.2271728515625 165.24081420898438 C 170.03176879882812 165.28221130371094 166.9100799560547 165.41387939453125 166.10470581054688 164.48895263671875" stroke-width="0.0" fill="rgb(106, 151, 58)" opacity="0.9871782"/>
    <path d="M 189.9119873046875 164.5396728515625 C 189.650634765625 161.4497528076172 187.83692932128906 122.66058349609375 187.3153076171875 92.29029846191406 C 187.01597595214844 68.211181640625 186.36227416992188 65.46939086914062 187.99903869628906 66.07428741455078 C 191.42950439453125 64.73461151123047 190.95428466796875 68.17660522460938 191.51846313476562 86.84663391113281 C 192.22763061523438 105.98535919189453 194.52792358398438 153.48919677734375 195.06275939941406 160.42002868652344 C 195.38525390625 166.1084747314453 195.0994873046875 166.57101440429688 193.25259399414062 166.265625 C 191.7791748046875 166.20570373535156 190.93258666992188 165.39967346191406 189.9119873046875 164.5396728515625" stroke-width="1.0" fill="rgb(237, 230, 222)" opacity="0.9943868"/>
  </g>
</svg>
