<?xml version="1.0" ?>
<svg xmlns="http://www.w3.org/2000/svg" version="1.1" width="224" height="224">
  <defs/>
  <g>
    <path d="M 131.123291015625 131.62696838378906 C 131.49147033691406 129.0507049560547 131.87557983398438 128.69789123535156 134.20645141601562 129.00299072265625 C 135.84571838378906 129.12757873535156 137.19456481933594 128.90127563476562 137.6602325439453 127.92906951904297 C 138.2173614501953 127.06660461425781 138.49502563476562 126.73387908935547 138.45556640625 128.0153350830078 C 138.4105682373047 129.0707550048828 141.9545135498047 129.44395446777344 153.11187744140625 129.47169494628906 C 164.1956024169922 129.1228485107422 167.946044921875 128.92889404296875 168.22021484375 128.111572265625 C 168.46847534179688 127.4327163696289 168.72518920898438 127.82981872558594 168.4600830078125 129.06130981445312 C 168.43167114257812 130.176513671875 169.126220703125 131.83529663085938 169.7450408935547 132.82583618164062 C 170.75833129882812 134.50909423828125 170.31674194335938 134.51914978027344 150.24484252929688 134.62933349609375 L 129.89071655273438 134.44541931152344 L 131.123291015625 131.62696838378906" stroke-width="1.0" fill="rgb(63, 62, 57)" opacity="1.0"/>
    <path d="M 139.48899841308594 128.54855346679688 C 139.349609375 127.24710845947266 144.4397430419922 113.13826751708984 144.90895080566406 112.52658081054688 C 145.1178436279297 112.08800506591797 146.08651733398438 114.90324401855469 146.6527099609375 118.49785614013672 C 147.28451538085938 122.1841049194336 147.9401092529297 126.06942749023438 148.0028839111328 127.4068374633789 C 148.62161254882812 129.21279907226562 148.35345458984375 129.3149871826172 143.79269409179688 129.36190795898438 C 141.29344177246094 129.1768798828125 139.21612548828125 128.9224853515625 139.48899841308594 128.54855346679688" stroke-width="1.0" fill="rgb(255, 255, 255)" opacity="0.88519335"/>
    <path d="M 165.69142150878906 58.18335723876953 L 154.69712829589844 46.666831970214844 L 159.2542724609375 42.66960906982422 C 162.013916015625 40.51258850097656 166.02804565429688 36.838226318359375 168.02847290039062 35.13264465332031 L 172.2782440185547 31.60181427001953 L 176.76681518554688 36.44429016113281 C 179.59169006347656 38.786224365234375 181.89926147460938 41.1510009765625 181.4601287841797 41.954566955566406 C 181.0399932861328 42.97123718261719 183.525146484375 45.48358154296875 186.21218872070312 47.67969512939453 C 193.31192016601562 57.573089599609375 194.0469970703125 55.821739196777344 185.47633361816406 63.211246490478516 C 181.06686401367188 66.70306396484375 177.4560546875 69.67769622802734 177.11776733398438 70.431396484375 C 177.0394287109375 70.33973693847656 172.01730346679688 64.88862609863281 165.69142150878906 58.18335723876953" stroke-width="1.0" fill="rgb(49, 49, 47)" opacity="0.9929898"/>
    <path d="M 152.63587951660156 84.52973937988281 L 149.17457580566406 82.90274810791016 L 153.30320739746094 81.93112182617188 C 158.0946807861328 80.94853210449219 162.26817321777344 83.23411560058594 159.38455200195312 85.22579956054688 C 157.02317810058594 86.85399627685547 156.7334747314453 86.75578308105469 152.63587951660156 84.52973937988281" stroke-width="1.0" fill="rgb(203, 204, 204)" opacity="1.0"/>
    <path d="M 45.138397216796875 189.89736938476562 C 46.15330505371094 189.35113525390625 48.53864288330078 182.97369384765625 52.106903076171875 175.48825073242188 L 57.255455017089844 163.1439971923828 L 69.9547119140625 150.45770263671875 C 83.97869110107422 138.0028839111328 97.04582977294922 127.64436340332031 99.18905639648438 126.4357681274414 C 100.50019836425781 125.99949645996094 101.92607879638672 127.44827270507812 103.96638488769531 129.68470764160156 C 105.81937408447266 131.31411743164062 104.7181396484375 130.2279815673828 125.2245864868164 112.48033142089844 C 132.83123779296875 105.48139190673828 139.40541076660156 99.82156372070312 140.07725524902344 98.78114318847656 C 142.76271057128906 99.87859344482422 141.12982177734375 103.27116394042969 138.05039978027344 110.42123413085938 C 133.78970336914062 114.96788787841797 129.82151794433594 123.60000610351562 127.8036880493164 129.37486267089844 C 116.93903350830078 145.6901397705078 115.24842071533203 152.48841857910156 113.43318176269531 153.1075897216797 C 109.74632263183594 157.48829650878906 100.14012908935547 170.88153076171875 95.32958221435547 178.83700561523438 C 86.38493347167969 192.398193359375 91.88618469238281 190.3549041748047 68.5686264038086 189.8839111328125 C 56.07611083984375 190.08489990234375 46.93305969238281 189.5548095703125 45.138397216796875 189.89736938476562" stroke-width="0.0" fill="rgb(62, 49, 151)" opacity="0.99525213"/>
    <path d="M 158.65728759765625 103.19061279296875 C 157.618896484375 96.00022888183594 157.4276123046875 85.85013580322266 157.69580078125 84.05973815917969 C 158.82765197753906 84.20935821533203 164.10313415527344 79.85447692871094 169.65188598632812 74.67929077148438 C 175.10174560546875 69.291259765625 182.8768310546875 63.13873291015625 186.02200317382812 60.282386779785156 C 191.09039306640625 55.79119873046875 195.76632690429688 53.88898468017578 195.76817321777344 56.14960479736328 C 196.0 56.36421203613281 191.00039672851562 63.43349838256836 184.80364990234375 71.66442108154297 C 179.0817413330078 79.5927734375 170.95913696289062 90.72529602050781 166.99234008789062 96.14518737792969 L 159.46434020996094 106.92805480957031 L 158.65728759765625 103.19061279296875" stroke-width="1.0" fill="rgb(62, 49, 150)" opacity="0.9843261"/>
    <path d="M 117.23382568359375 141.17359924316406 C 117.4247055053711 140.10894775390625 120.62806701660156 134.77655029296875 124.509521484375 129.43431091308594 C 128.06910705566406 124.30438995361328 132.16827392578125 117.94306945800781 133.77099609375 115.99105834960938 C 134.6865997314453 113.72496795654297 135.7759552001953 112.87057495117188 134.55374145507812 113.59456634521484 C 135.0828094482422 114.78023529052734 134.36912536621094 118.37284088134766 133.59254455566406 121.96955108642578 C 132.39031982421875 129.531005859375 128.92835998535156 139.25257873535156 126.76341247558594 140.893798828125 C 126.14212036132812 141.51060485839844 123.57057189941406 142.22291564941406 121.11328887939453 141.9698486328125 C 117.67292022705078 141.85389709472656 116.96222686767578 141.77236938476562 117.23382568359375 141.17359924316406" stroke-width="1.0" fill="rgb(253, 253, 253)" opacity="0.9844647"/>
    <path d="M 113.70353698730469 190.17929077148438 C 113.5517807006836 188.83358764648438 113.43359375 176.47872924804688 113.35566711425781 161.03311157226562 L 113.54109191894531 141.93356323242188 L 119.25475311279297 141.10467529296875 C 129.35899353027344 141.71534729003906 126.6448745727539 143.61361694335938 130.58815002441406 133.27468872070312 C 134.2239990234375 130.80636596679688 133.16299438476562 130.56134033203125 150.13758850097656 128.81536865234375 L 167.98577880859375 127.38311004638672 L 172.122314453125 139.5125274658203 C 172.7432098388672 142.31297302246094 175.30783081054688 141.4605255126953 185.17782592773438 140.79690551757812 L 187.6171417236328 141.85130310058594 L 187.67303466796875 189.7876434326172 L 184.5289306640625 189.87652587890625 C 181.1393280029297 190.08407592773438 177.570068359375 190.17408752441406 174.40304565429688 189.8875274658203 C 173.7908935546875 188.90264892578125 174.06822204589844 183.53717041015625 173.98548889160156 169.35182189941406 C 174.42535400390625 161.03294372558594 174.01754760742188 152.2542724609375 174.25607299804688 153.792236328125 C 175.6091766357422 154.23593139648438 170.82887268066406 153.99159240722656 151.73275756835938 153.9449462890625 C 136.24481201171875 153.39813232421875 124.76663208007812 153.87615966796875 126.59015655517578 153.27565002441406 C 126.9363784790039 151.14442443847656 126.19206237792969 159.36097717285156 126.66860961914062 171.9823760986328 C 126.50491333007812 180.08303833007812 126.19835662841797 188.67422485351562 126.26593780517578 189.92178344726562 C 123.43877410888672 189.99713134765625 113.70242309570312 189.8975830078125 113.70353698730469 190.17929077148438" stroke-width="0.0" fill="rgb(35, 38, 35)" opacity="0.9966734"/>
    <path d="M 137.9552001953125 129.5755615234375 C 150.61480712890625 128.5592498779297 148.93922424316406 128.3102264404297 148.23580932617188 125.62165832519531 C 147.57376098632812 121.36965942382812 146.19082641601562 116.32029724121094 146.32876586914062 111.96609497070312 C 145.71316528320312 109.04246520996094 142.2657928466797 109.60029602050781 141.83436584472656 113.2033462524414 C 140.35662841796875 117.94589233398438 139.90432739257812 118.15147399902344 137.592529296875 114.40573120117188 C 137.01658630371094 110.1954345703125 136.2952423095703 109.25719451904297 138.2815704345703 106.47345733642578 C 139.2324981689453 103.52188110351562 141.74659729003906 99.47824096679688 138.64999389648438 94.80316925048828 C 138.32415771484375 87.94586181640625 139.32815551757812 87.49514770507812 140.61370849609375 85.12092590332031 C 145.5764923095703 80.7625732421875 151.0584716796875 80.98600769042969 156.59544372558594 85.61994171142578 C 159.06210327148438 87.16438293457031 158.5450897216797 89.38957977294922 158.50872802734375 94.67742156982422 C 158.05088806152344 96.20311737060547 158.61705017089844 101.04328918457031 160.33934020996094 102.55126953125 C 160.99546813964844 108.25838470458984 161.5989532470703 109.86319732666016 162.43438720703125 115.14295959472656 C 161.5269775390625 117.76014709472656 159.97592163085938 121.4585189819336 161.49530029296875 123.72103881835938 C 158.6624755859375 119.1131591796875 156.6119842529297 123.42207336425781 159.8780517578125 126.83491516113281 C 166.1006622314453 134.05406188964844 163.5860595703125 136.98106384277344 154.8588409423828 137.5035400390625 C 149.23289489746094 137.30389404296875 143.87637329101562 137.53187561035156 137.9552001953125 129.5755615234375" stroke-width="0.0" fill="rgb(116, 113, 107)" opacity="0.9300054"/>
    <path d="M 59.067047119140625 157.58656311035156 C 57.362998962402344 156.1995849609375 56.03132629394531 154.49868774414062 56.26642608642578 153.96438598632812 C 56.38056182861328 153.9720001220703 63.191741943359375 147.47979736328125 71.40444946289062 139.7967987060547 L 85.85226440429688 125.45513916015625 L 88.9349365234375 129.06475830078125 L 92.21761322021484 132.4452667236328 L 89.55978393554688 134.60235595703125 C 88.19172668457031 135.7347869873047 81.23377990722656 142.38543701171875 74.5767593383789 148.61822509765625 L 62.42578887939453 160.8800506591797 L 59.067047119140625 157.58656311035156" stroke-width="1.0" fill="rgb(83, 76, 81)" opacity="1.0"/>
    <path d="M 36.113922119140625 181.58889770507812 L 27.99999237060547 173.58023071289062 L 35.65061950683594 165.6534423828125 C 39.86719512939453 161.00247192382812 43.743690490722656 156.7570037841797 44.15807342529297 155.70022583007812 C 44.35882568359375 154.42535400390625 44.99037170410156 153.74221801757812 45.34033203125 153.32118225097656 C 45.70647430419922 153.84117126464844 50.454689025878906 157.43284606933594 55.143096923828125 162.64083862304688 L 64.2704086303711 171.66644287109375 L 55.106651306152344 180.78421020507812 C 50.1328125 185.8711395263672 45.801910400390625 189.79696655273438 45.17212677001953 189.970703125 C 44.6688232421875 189.83888244628906 40.72918701171875 185.97348022460938 36.113922119140625 181.58889770507812" stroke-width="1.0" fill="rgb(36, 39, 35)" opacity="1.0"/>
    <path d="M 136.333251953125 138.5895538330078 C 136.7643280029297 136.87051391601562 137.22286987304688 135.4291534423828 137.61900329589844 135.2354278564453 C 137.58358764648438 134.3502960205078 143.64500427246094 134.61184692382812 150.8926544189453 134.90501403808594 C 160.4287109375 134.946044921875 163.7444610595703 135.22056579589844 163.65487670898438 136.27841186523438 C 163.7196807861328 136.9716796875 163.84686279296875 138.39630126953125 164.26614379882812 139.53854370117188 L 164.68670654296875 141.270751953125 L 135.9189910888672 141.1475830078125 L 136.333251953125 138.5895538330078" stroke-width="1.0" fill="rgb(71, 54, 155)" opacity="0.9952482"/>
    <path d="M 155.4500732421875 126.93408203125 C 155.61033630371094 126.0686264038086 156.0745849609375 123.3780288696289 156.22705078125 121.68524169921875 C 156.10533142089844 116.81269836425781 157.69602966308594 117.70248413085938 160.20565795898438 123.55374908447266 L 161.7368927001953 129.13653564453125 L 158.32606506347656 129.06190490722656 C 155.43325805664062 129.1137237548828 154.81851196289062 128.53695678710938 155.4500732421875 126.93408203125" stroke-width="1.0" fill="rgb(246, 247, 246)" opacity="1.0"/>
    <path d="M 144.5076446533203 96.95256805419922 C 141.3086395263672 93.90804290771484 141.78274536132812 88.26284790039062 145.5332489013672 85.97145080566406 C 147.8221435546875 84.72035217285156 148.62806701660156 84.80091857910156 151.184814453125 86.04794311523438 C 155.08773803710938 88.23007202148438 156.27752685546875 92.62889099121094 153.9349822998047 95.95479583740234 C 150.99545288085938 99.17313385009766 147.16915893554688 99.72097778320312 144.5076446533203 96.95256805419922" stroke-width="1.0" fill="rgb(242, 244, 235)" opacity="0.95364344"/>
    <path d="M 130.9613037109375 131.33404541015625 C 131.5098114013672 129.66587829589844 132.69400024414062 124.09845733642578 134.4137420654297 118.80003356933594 C 136.0236053466797 113.47312927246094 137.49667358398438 108.89440155029297 137.9270782470703 108.43279266357422 C 138.84510803222656 107.86428833007812 145.34559631347656 108.5204086303711 145.18043518066406 109.00157165527344 C 145.21873474121094 110.06856536865234 143.23635864257812 114.8934326171875 141.3588409423828 121.45967102050781 C 137.39212036132812 134.00807189941406 137.0158233642578 133.34744262695312 134.26327514648438 133.69322204589844 C 130.4058837890625 133.62197875976562 130.307861328125 133.46775817871094 130.9613037109375 131.33404541015625" stroke-width="1.0" fill="rgb(54, 55, 49)" opacity="0.9673145"/>
    <path d="M 157.8052520751953 120.79788970947266 C 156.11544799804688 114.48719787597656 154.0380401611328 109.23766326904297 153.96514892578125 108.42577362060547 C 154.302490234375 108.075439453125 155.66603088378906 107.76461029052734 158.05569458007812 108.14412689208984 C 160.20616149902344 108.04145812988281 161.2198486328125 108.85183715820312 161.66412353515625 109.50122833251953 C 164.10916137695312 115.00959777832031 169.30630493164062 130.3060760498047 169.565673828125 131.5835418701172 C 169.65582275390625 131.82582092285156 168.33413696289062 132.4368438720703 165.61000061035156 132.23834228515625 C 162.8238525390625 131.78228759765625 162.35086059570312 132.5447235107422 157.8052520751953 120.79788970947266" stroke-width="1.0" fill="rgb(50, 51, 46)" opacity="0.97787714"/>
    <path d="M 147.34300231933594 104.8810043334961 C 147.791015625 103.65998840332031 148.02484130859375 102.8374252319336 147.99075317382812 102.6185531616211 C 148.00750732421875 101.27667236328125 152.47703552246094 102.33781433105469 153.04100036621094 103.88407897949219 C 154.0276641845703 106.57659912109375 153.93722534179688 106.58417510986328 150.04542541503906 106.69596862792969 C 147.39744567871094 106.64929962158203 146.78245544433594 106.3042221069336 147.34300231933594 104.8810043334961" stroke-width="1.0" fill="rgb(51, 45, 42)" opacity="0.9528407"/>
    <path d="M 87.95793914794922 129.8231658935547 L 83.56393432617188 126.01207733154297 L 85.71147155761719 123.34172058105469 L 87.62140655517578 121.21498107910156 L 85.84133911132812 119.914794921875 C 83.57941436767578 117.85688018798828 83.82862854003906 116.34931182861328 86.01321411132812 114.22959899902344 C 87.87715148925781 113.20596313476562 87.78483581542969 113.30846405029297 96.31385803222656 121.66210174560547 L 104.52853393554688 130.89190673828125 L 101.5608139038086 131.45948791503906 C 98.9865493774414 132.37661743164062 98.13713836669922 132.2341766357422 96.69435119628906 131.3551483154297 C 95.40687561035156 129.8398895263672 95.02346801757812 129.87725830078125 93.79582214355469 132.2299346923828 L 91.9124755859375 134.46640014648438 L 87.95793914794922 129.8231658935547" stroke-width="1.0" fill="rgb(43, 42, 44)" opacity="0.9825611"/>
    <path d="M 53.973785400390625 161.54757690429688 L 51.30492401123047 158.20077514648438 L 53.58607482910156 155.61810302734375 C 54.86272430419922 154.0132598876953 56.07862091064453 152.6627655029297 56.288612365722656 152.66477966308594 C 56.75788116455078 152.58837890625 58.509033203125 154.11676025390625 60.03143310546875 155.81427001953125 L 63.55961608886719 159.2235107421875 L 60.920372009277344 161.6555938720703 C 59.06171417236328 163.10638427734375 57.74931335449219 164.24002075195312 57.545509338378906 164.27658081054688 C 56.897132873535156 164.43856811523438 55.200096130371094 163.51956176757812 53.973785400390625 161.54757690429688" stroke-width="1.0" fill="rgb(104, 99, 97)" opacity="0.96060306"/>
  </g>
</svg>
