<?xml version="1.0" ?>
<svg xmlns="http://www.w3.org/2000/svg" version="1.1" width="224" height="224">
  <defs/>
  <g>
    <path d="M 90.57289123535156 41.31104278564453 C 91.29444885253906 37.36785888671875 91.51201629638672 33.133567810058594 91.47515869140625 31.85564422607422 C 91.69374084472656 30.769866943359375 91.90019989013672 29.479347229003906 91.98876953125 29.253013610839844 C 92.10292053222656 28.748977661132812 95.56692504882812 28.610023498535156 100.14856719970703 28.718948364257812 C 104.81790924072266 29.284759521484375 112.55476379394531 29.86823272705078 117.652099609375 29.761993408203125 C 136.4022979736328 28.024810791015625 135.76596069335938 28.0 136.6508331298828 30.998695373535156 C 136.90785217285156 32.27178192138672 137.3702392578125 36.64018249511719 137.77902221679688 40.88555145263672 L 138.50958251953125 48.552154541015625 L 90.21391296386719 49.07386016845703 L 90.57289123535156 41.31104278564453" stroke-width="1.0" fill="rgb(44, 34, 33)" opacity="0.99063027"/>
    <path d="M 78.25565338134766 187.9366455078125 C 74.78312683105469 182.72821044921875 70.23124694824219 170.9324188232422 69.51748657226562 160.4312744140625 C 69.15777587890625 158.1000213623047 69.37969970703125 156.0303192138672 69.0369873046875 152.529541015625 C 66.65206909179688 154.99789428710938 65.95684814453125 157.2069854736328 65.12346649169922 158.0308074951172 C 63.589412689208984 164.2835693359375 53.39008331298828 174.79855346679688 49.31548309326172 173.90713500976562 C 46.654293060302734 174.23495483398438 45.62162780761719 170.1298828125 45.16607666015625 163.44393920898438 C 45.37873840332031 161.13754272460938 46.06891632080078 158.33804321289062 46.237030029296875 158.48941040039062 C 46.318214416503906 157.718994140625 46.997379302978516 155.01516723632812 47.206058502197266 152.8192138671875 C 49.849853515625 138.11778259277344 57.668636322021484 120.46883392333984 71.92543029785156 106.15611267089844 C 77.61988830566406 101.64564514160156 76.95658874511719 101.6041259765625 77.77395629882812 92.6533432006836 C 79.04639434814453 82.30682373046875 80.90229797363281 77.35994720458984 84.85508728027344 72.32679748535156 L 87.89622497558594 69.08735656738281 L 113.46785736083984 68.60385131835938 L 140.10960388183594 68.43412780761719 L 142.66310119628906 71.71929931640625 C 146.2246856689453 74.65101623535156 149.36541748046875 87.22216796875 150.33380126953125 96.54881286621094 C 150.07760620117188 102.69670867919922 152.71974182128906 104.66271209716797 157.91368103027344 110.54837036132812 C 163.30389404296875 116.36978149414062 171.96705627441406 131.07620239257812 174.2958221435547 139.81088256835938 C 177.18109130859375 148.37164306640625 178.83392333984375 160.19198608398438 178.7902374267578 167.49908447265625 C 178.3215789794922 172.771728515625 178.00668334960938 173.51895141601562 175.92486572265625 174.05807495117188 C 173.11236572265625 173.55184936523438 171.64369201660156 173.07315063476562 167.1887969970703 169.24801635742188 C 164.4535675048828 166.37396240234375 161.68804931640625 161.6351318359375 160.11378479003906 159.1561279296875 C 158.8068389892578 157.00161743164062 158.14889526367188 154.5516357421875 156.16287231445312 152.8695831298828 C 156.0959930419922 154.3975830078125 155.9846954345703 157.54177856445312 155.51356506347656 162.06280517578125 C 155.28738403320312 169.4371795654297 150.35317993164062 182.30792236328125 148.44122314453125 186.14382934570312 L 147.19302368164062 189.54347229003906 L 112.86114501953125 188.66859436035156 C 83.181884765625 188.79580688476562 79.22068786621094 189.56497192382812 78.25565338134766 187.9366455078125" stroke-width="0.0" fill="rgb(16, 11, 12)" opacity="0.9914051"/>
    <path d="M 99.26288604736328 113.57691192626953 C 90.27498626708984 107.43891906738281 85.20918273925781 101.78863525390625 83.90487670898438 95.16792297363281 C 83.1798324584961 89.76659393310547 85.88949584960938 81.24943542480469 90.74896240234375 79.13908386230469 C 101.07853698730469 74.50653076171875 100.71484375 78.58451843261719 113.41600036621094 85.82514190673828 C 131.3010711669922 73.98486328125 132.873046875 76.04592895507812 141.86175537109375 83.72244262695312 C 144.89678955078125 89.89744567871094 144.6142120361328 96.67051696777344 140.1902618408203 102.09825897216797 C 136.14181518554688 108.5263671875 122.2401123046875 116.94074249267578 114.39240264892578 115.91141510009766 C 108.69883728027344 116.17300415039062 107.64891815185547 115.84071350097656 99.26288604736328 113.57691192626953" stroke-width="0.0" fill="rgb(253, 254, 254)" opacity="1.0"/>
    <path d="M 102.75639343261719 189.69046020507812 C 99.19227600097656 188.17959594726562 94.51946258544922 186.39523315429688 92.54692840576172 185.19798278808594 C 90.69841003417969 184.5895233154297 87.75672912597656 183.54666137695312 87.48101806640625 183.78030395507812 C 80.2138442993164 179.29483032226562 78.40673065185547 160.89859008789062 85.3846664428711 147.7310333251953 C 88.09723663330078 140.67831420898438 92.69491577148438 136.63282775878906 101.59413146972656 132.5868377685547 C 106.87881469726562 129.5850830078125 108.45623016357422 129.84881591796875 112.90001678466797 129.01023864746094 C 124.29075622558594 130.0753936767578 136.30174255371094 137.85679626464844 139.82061767578125 147.52378845214844 C 141.88601684570312 151.0975799560547 144.99462890625 162.5477752685547 144.59869384765625 166.34567260742188 C 145.0957794189453 171.92100524902344 141.53843688964844 180.7306671142578 139.1787109375 183.45938110351562 C 136.67257690429688 185.3239288330078 116.60826873779297 191.44183349609375 112.46627044677734 191.21499633789062 C 110.38321685791016 190.96563720703125 106.1985855102539 190.34249877929688 102.75639343261719 189.69046020507812" stroke-width="0.0" fill="rgb(254, 254, 254)" opacity="0.99806845"/>
    <path d="M 103.6371841430664 68.99658203125 C 103.04041290283203 69.14083862304688 96.55426025390625 69.1737289428711 89.0639877319336 69.02481079101562 C 73.43701171875 68.68661499023438 69.9662857055664 68.97837829589844 69.55461120605469 65.62165069580078 C 69.40801239013672 61.675254821777344 75.70329284667969 53.672874450683594 81.92607116699219 50.828285217285156 L 87.04788970947266 48.63706970214844 L 116.40160369873047 48.696685791015625 L 145.1036834716797 48.8583984375 L 149.16064453125 51.80989074707031 C 155.6570587158203 55.78840255737305 158.93682861328125 60.7027702331543 159.10964965820312 64.36610412597656 L 159.1691131591797 68.45439147949219 L 151.5538330078125 68.5362548828125 C 147.57260131835938 68.6539077758789 140.28111267089844 69.57560729980469 135.34603881835938 69.0093994140625 C 126.00359344482422 69.04618835449219 124.82801818847656 69.21237182617188 112.6873779296875 69.420166015625 C 107.94035339355469 69.98956298828125 103.60904693603516 69.79278564453125 103.6371841430664 68.99658203125" stroke-width="0.0" fill="rgb(121, 116, 116)" opacity="0.9600204"/>
    <path d="M 46.519737243652344 164.66314697265625 C 46.40766906738281 160.96351623535156 46.25151824951172 159.6382293701172 46.24864196777344 161.36541748046875 C 45.92595672607422 162.8520050048828 46.00077819824219 166.2174072265625 46.094871520996094 168.04010009765625 C 46.57020950317383 169.8013916015625 46.60185241699219 168.32522583007812 46.519737243652344 164.66314697265625" stroke-width="1.0" fill="rgb(70, 58, 61)" opacity="1.0"/>
    <path d="M 104.46361541748047 105.48637390136719 C 97.35643768310547 99.5593490600586 96.19978332519531 98.45443725585938 97.71090698242188 96.57999420166016 C 98.55488586425781 95.00068664550781 100.64878845214844 94.66033935546875 113.29615020751953 94.76463317871094 C 124.87590789794922 94.97681427001953 128.4097137451172 95.25994873046875 130.32359313964844 96.38388061523438 C 131.6932373046875 97.67436981201172 131.59690856933594 98.3265380859375 123.29025268554688 105.41153717041016 C 118.93248748779297 109.97042846679688 114.71768188476562 113.90108489990234 113.02144622802734 113.85079956054688 C 112.41754913330078 114.02684020996094 108.41789245605469 110.15289306640625 104.46361541748047 105.48637390136719" stroke-width="0.0" fill="rgb(249, 170, 0)" opacity="0.99411565"/>
    <path d="M 107.99031829833984 122.3120346069336 L 108.50566101074219 113.31446838378906 L 118.77313995361328 113.5779800415039 L 118.94721221923828 131.78199768066406 L 108.37523651123047 131.51812744140625 L 107.99031829833984 122.3120346069336" stroke-width="1.0" fill="rgb(250, 230, 180)" opacity="0.9308231"/>
    <path d="M 136.46255493164062 135.29598999023438 C 130.0261688232422 134.3793487548828 123.2877197265625 133.16476440429688 121.48149108886719 132.0763702392578 L 117.32929992675781 130.5633544921875 L 116.92536163330078 123.20011901855469 L 116.40408325195312 115.71269989013672 L 125.85738372802734 111.88549041748047 C 135.06431579589844 108.38484191894531 147.98301696777344 104.83653259277344 148.6086883544922 105.42025756835938 C 150.23114013671875 106.40884399414062 152.67587280273438 121.6307144165039 151.96707153320312 126.76968383789062 C 151.1783905029297 132.60659790039062 149.99122619628906 136.71119689941406 149.04202270507812 136.90000915527344 C 148.3889923095703 136.97726440429688 142.84518432617188 136.0623321533203 136.46255493164062 135.29598999023438" stroke-width="1.0" fill="rgb(230, 103, 93)" opacity="0.98649234"/>
    <path d="M 119.90834045410156 194.74114990234375 C 118.3423843383789 193.48289489746094 117.47103881835938 192.21133422851562 117.71373748779297 191.67095947265625 C 117.52304077148438 190.1163330078125 121.95320129394531 185.5569305419922 125.18297576904297 184.06430053710938 C 131.91107177734375 180.4201202392578 147.03627014160156 185.54727172851562 146.86842346191406 191.3006591796875 C 146.92466735839844 193.72378540039062 142.41590881347656 195.19229125976562 130.9686737060547 195.86767578125 C 123.54093170166016 196.0 121.52665710449219 195.95864868164062 119.90834045410156 194.74114990234375" stroke-width="1.0" fill="rgb(249, 172, 0)" opacity="0.99319744"/>
    <path d="M 75.24786376953125 134.03282165527344 C 72.15925598144531 126.80696105957031 75.20585632324219 104.89081573486328 78.50877380371094 104.79744720458984 C 81.19123840332031 104.84391784667969 94.1669692993164 109.1186294555664 102.26359558105469 112.85890197753906 L 108.25308227539062 115.47457122802734 L 108.0169677734375 130.6262969970703 L 104.27472686767578 132.5670166015625 C 101.06463623046875 133.4808349609375 89.51679992675781 135.50425720214844 79.71350860595703 136.51475524902344 C 76.18081665039062 136.86087036132812 75.56889343261719 136.6904754638672 75.24786376953125 134.03282165527344" stroke-width="1.0" fill="rgb(233, 104, 94)" opacity="0.97884387"/>
    <path d="M 89.37523651123047 195.54217529296875 C 88.69853210449219 195.3643798828125 86.67182159423828 194.94900512695312 84.71900177001953 194.85342407226562 C 76.72360229492188 193.5303955078125 76.69696044921875 188.9869384765625 83.90377807617188 184.9871826171875 C 92.17183685302734 180.98419189453125 102.41796875 182.9287872314453 106.9180908203125 189.4244384765625 L 108.63084411621094 191.76072692871094 L 106.84228515625 194.54246520996094 C 104.79887390136719 195.7866973876953 102.9264907836914 195.96664428710938 97.2938461303711 195.86221313476562 C 93.40157318115234 195.894775390625 89.80948638916016 195.76043701171875 89.37523651123047 195.54217529296875" stroke-width="1.0" fill="rgb(248, 173, 0)" opacity="0.9961411"/>
    <path d="M 108.47734832763672 72.05885314941406 L 105.39556884765625 69.07850646972656 L 113.99835968017578 68.99324035644531 L 122.65945434570312 68.74292755126953 L 118.92509460449219 72.09786987304688 C 114.15522003173828 76.29547119140625 112.54798889160156 76.0953369140625 108.47734832763672 72.05885314941406" stroke-width="1.0" fill="rgb(247, 250, 251)" opacity="0.9776036"/>
    <path d="M 90.14491271972656 51.25608825683594 C 90.11493682861328 48.44921875 90.26353454589844 46.78251647949219 90.61705017089844 47.393211364746094 C 90.911376953125 48.447547912597656 96.71774291992188 48.57269287109375 114.72844696044922 48.648948669433594 L 138.56808471679688 48.22430419921875 L 138.62936401367188 55.88331604003906 L 90.15005493164062 56.035072326660156 L 90.14491271972656 51.25608825683594" stroke-width="1.0" fill="rgb(83, 69, 67)" opacity="0.98993456"/>
    <path d="M 106.79672241210938 96.707763671875 L 106.29486083984375 93.80577087402344 L 106.95462036132812 86.03082275390625 C 104.12908935546875 78.87010192871094 113.83245849609375 79.46807861328125 121.96540832519531 81.01602935791016 C 121.15172576904297 83.63865661621094 121.21107482910156 86.65975189208984 120.03709411621094 89.79150390625 L 123.06813049316406 95.46528625488281 L 120.67632293701172 96.9897689819336 C 114.94182586669922 101.04934692382812 113.52823638916016 100.61601257324219 106.79672241210938 96.707763671875" stroke-width="1.0" fill="rgb(161, 66, 26)" opacity="0.9465916"/>
    <path d="M 102.46903991699219 60.794857025146484 C 92.15625762939453 58.84169387817383 89.43949127197266 58.007450103759766 89.58037567138672 56.63597869873047 C 89.58990478515625 55.510929107666016 138.3651580810547 55.46914291381836 138.7643585205078 56.494136810302734 C 139.58786010742188 57.751861572265625 133.9297332763672 59.344905853271484 123.28956604003906 61.32955551147461 C 112.4945297241211 63.095252990722656 114.52662658691406 62.88423156738281 102.46903991699219 60.794857025146484" stroke-width="1.0" fill="rgb(243, 31, 28)" opacity="0.9991257"/>
  </g>
</svg>
