<?xml version="1.0" encoding="UTF-8"?>
<svg xmlns="http://www.w3.org/2000/svg" version="1.1" viewBox="0 0 224 224">
  <defs>
    <style>
      .cls-1 {
        fill: #280d05;
        opacity: 1;
      }

      .cls-1, .cls-2, .cls-3, .cls-4, .cls-5, .cls-6, .cls-7, .cls-8, .cls-9, .cls-10, .cls-11, .cls-12, .cls-13, .cls-14, .cls-15, .cls-16, .cls-17, .cls-18 {
        isolation: isolate;
      }

      .cls-2 {
        fill: #544c46;
        opacity: 1;
      }

      .cls-3 {
        fill: #261e19;
        opacity: .9;
      }

      .cls-19 {
        fill: #dddede;
      }

      .cls-4 {
        fill: #0e0808;
        opacity: 1;
      }

      .cls-5 {
        fill: #5b2917;
        opacity: 1;
      }

      .cls-6 {
        fill: #281915;
        opacity: 1;
      }

      .cls-7 {
        fill: #2b0e04;
        opacity: 1;
      }

      .cls-8 {
        fill: #432f23;
        opacity: 1;
      }

      .cls-9 {
        fill: #a87245;
        opacity: 1;
      }

      .cls-10 {
        fill: #937b5a;
        opacity: 1;
      }

      .cls-11 {
        opacity: 1;
      }

      .cls-11, .cls-12 {
        fill: #f8b100;
      }

      .cls-12 {
        opacity: 1;
      }

      .cls-13 {
        fill: #443022;
        opacity: 1;
      }

      .cls-14 {
        fill: #ddcdab;
        opacity: 1;
      }

      .cls-15 {
        fill: #0e090a;
        opacity: 1;
      }

      .cls-16 {
        fill: #dedfd8;
        opacity: 1;
      }

      .cls-17 {
        fill: #542704;
        opacity: .9;
      }

      .cls-18 {
        fill: #291915;
        opacity: 1;
      }
    </style>
  </defs>
  <!-- Generator: Adobe Illustrator 28.6.0, SVG Export Plug-In . SVG Version: 1.2.0 Build 709)  -->
  <g>
    <g id="_图层_1" data-name="图层_1">
      <g>
        <path class="cls-4" d="M87.1,58.2c.5-.9,2.3-7.2,4-14.1,1.8-8,2.9-13.1,4.1-14.4,2.6-1.5,2.8-1.7,9.4,1l7.3,2.8,6.5-2.3c7.2-3.2,9.8-3.3,11.6-.7.5.9,2,7.1,3.7,14.1,1.7,6.9,3.4,12.9,3.7,14.4.8,1.7-1,1.1-24.9,1.5l-25.9-.3.4-2"/>
        <path class="cls-8" d="M68.6,116.1c-16.6-14.7-25-32.4-23.4-50,.8-12.1,4.8-18.5,10.9-21.9,10.4-3.3,15.2-.4,20.2,19l5.8,13-2.2,14.8c-2,19.5-2,19.5-2.2,24.1.2,2.1-.5,4.7-1.2,5.7-1.5,1.1-1.5,1.2-7.9-4.6"/>
        <path class="cls-13" d="M150.7,118.3c.7-3.4-.3-8.2-1.1-11.5-.9-4-1.6-8-2.5-12-1.5-15-1.7-16,.3-24,3-17.6,6.1-25.7,11.9-26.8,4.8-1.4,9.7-.2,13.6,3.5,3.8,4.9,5.4,9.6,6.6,19.4.9,16.7-4.2,29.4-18.9,45.2-6.6,6.7-8.5,8.9-9.9,6.3"/>
        <path class="cls-12" d="M73.3,194c0-2.3-.9-5.7-1.1-8.3-.3-2.6-2-13.2-4-23.4-1.9-10.9-3.2-20.7-3.4-22.3,1-2.3,2.2-3.1,7.3-6.7,4-2.1,7.8-4.2,8.4-4.4,1.4.2,6.5,1.2,14.2,5.1,13.8,6.6,16.3,9.3,16.3,15.6-.3,3.8-8.8,37.5-10.8,43.4l-1.3,1.9-11.8.2c-12,.2-13,1.1-13.8-.9"/>
        <path class="cls-11" d="M125.1,194.9c0-.9,0-2.2-.4-3.2.3-1.3,0-2.9-1.1-4.8-2.3-4.4-9.5-30.3-10.3-36-.5-8.5.7-10.6,11.5-15.5,5.3-2.6,11-4.9,14.4-7.5l3.8-.4,7.5,4.3c8.7,5.6,10.7,5.3,8.5,15-1.2,5.8-2.9,15.6-4.2,22.4-1.5,7.2-3.1,15.9-3.8,19.1l-.2,6.8-12.8.2c-6.3,0-11.5-.1-12.8-.3"/>
        <path class="cls-18" d="M150.8,172.6c0-22.7-.3-22.4,2.5-22.5,3.9-.7,5.7-3.8,5.8-6.1.1-2.2.5-3.9.7-3.8.9-1.4,1.8,0,4.2,5.3,5.2,10.7,8.2,23.8,8.9,37.4l.4,12.3-22.5.2v-22.8"/>
        <path class="cls-14" d="M72.4,114.4c-3.2-10.3-.5-23,9.1-29,2.1-1.3,4.3-2.2,6.4-3.5.9-.5,1.8-1.1,2.7-1.4,1.3-.5,2.7-.4,4.1-.4,9.6.1,19.3.2,28.9.4,4.2,0,8.5.1,12.6,1.3,6.4,1.9,11.8,6.6,14.8,12.5,2.8,5.5,3.9,13.3,1.7,19.2-2-.3-3.9-1.1-6-1.2-4.8-.2-9.6-.3-14.4-.3-10.2,0-20.3.2-30.5.5s-10.2.4-15.2.6-10.2-.6-14.1,1.2"/>
        <path class="cls-15" d="M113.1,78.5c-.2-.3-7.9-.5-17.1-1.2-13.5.4-17.6,0-18.8-1.7-2.4-1-5.7-2.3-8.2-2.8-5.7-2.7-8.1-6.2-8.9-11.7-.6-3.4.9-8.5,3.3-9.2.1-.6,4.2,1.5,7.7,5.4,7.5,5.9,10.2,5.9,14.6,7.6,1-1.8.8-2.7,1.3-3.3.2-2.1,1.4-.7,9.1-3.2,13,.7,38.8,2,40.5.8,1.1,1.8,2.1,2.6.7,4.2.6,3.2,14-2.6,19.7-9.1,3.2-5.4,7.1-2.3,7.6,4.5.2,7-4.4,12.8-12.1,14.8-2.9.2-5.9,2.2-6.1,4.3-.4,2.5-2,2.4-16.8.9-9,0-16.6-.2-16.6-.4"/>
        <path class="cls-5" d="M110,159.8c-.4-.4-.8-4,.6-7.9-.6-9.6-1.5-11.9-12.4-14.4-8.7-3.1-17.9-9.1-20.3-12.2-4.5-5.4-4.3-8.6,1.1-15.1,4.9-3.4,7.5-4.3,9.3-4.6,2.5-.2,12.4-.6,22.5-1.6,9.9-.3,20.1-1.1,22.7,0,8.6.4,19.8,11.1,17.2,17.4-2.9,4.5-12.8,12.5-24.6,16.2-9.4,2.3-10.5,4.9-11.7,14,1.7,8.6.4,8.9-1.4,9.1-1,.3-2.4,0-3-.9"/>
        <path class="cls-6" d="M51.5,183c.9-13.9,3.7-25,8.7-36.5l4.1-7.7,1,3.9c.7,4.2,4.3,8.3,7.4,7.6,1.4-.6,1.2,3.6,1.2,22.2v22.9c0,0-22.4-.1-22.4-.1v-12.1"/>
        <path class="cls-19" d="M100.8,113.1c-1.9-.9-3.2-1.6-3.8-2.7-.1,0-.8,0-3.4,2.7-.9-3.3-1.4-4.4,1.6-8,2.7-1.6,5.8-5,9-6.4,2.5-4.7,2.8-4.4,9.1-4.3l5.6.7,5,4.5c2.6,3.2,5.5,6.6,7.2,7.2,2.8,3.7,2.1,4-4.8,4.8-4.8,5.5-21,3.7-25.5,1.5"/>
        <path class="cls-17" d="M105.7,67.1c-2.9-.3-8.6-.6-12.3-.8-6.8-.7-6.7-.7-6.9-3.2l-.2-2.8,12.1-.4h12.2c0-.1.3,3.2.3,3.2-.5,2.9,0,3.6,1.7,3.7,1.5-.2,1.8-.6,1.6-3.3l.5-3.3h11.4s11.8.6,11.8.6l.3,2.3c.2,1.9-.7,2.5-5.1,3.1-6,.8-20.3,1.2-27.3.9"/>
        <path class="cls-10" d="M72.1,94.7c0-5,2.9-11.6,6.8-15.1,4.1-3.8,4.3-4,10.2-3.4,15.3,2.1,27,2.4,39,.9l12.9-1.4,4,3.4c4.2,3.6,6.7,8.3,7.5,14l.2,4.3-3.2-4.4c-3.8-5.7-10.2-9.8-17.2-11.2-4.1-1.1-6.1-1.4-10.6.2-8.9,3-10.2,3.1-16.7.6-7.6-2.4-11.8-2.1-18.8,1.1-5.4,2.4-7.4,4-10.9,9.2-2.1,3-3.2,3.5-3.1,1.9"/>
        <path class="cls-7" d="M74.3,121.7c-2.4-2.4-1.6-2.9-.4-9.1,1.8-7.7,4.7-11.4,9.2-12.3,1.9-.3,3-1.3,3.1-2.9,1.1-3.1,3.5-3.7,12.5-3.8,6.5.5,8,1.2,6.1,3.2-.4.5-1.4,2.3-2,3.4-.8,1.1-2.7,3.6-4.7,4.9-2.7.5-4.1,2.1-4.6,2.5-1.1.8-2.8,1.5-4.4,1.5-4.2.9-10.2,6.6-12.1,11l-1.1,3.9-1.6-2.2"/>
        <path class="cls-1" d="M146.8,118.3c-2.7-4.8-5.8-7.1-19.6-12.6-3.2-1.4-8.3-9.5-8.2-10.8-.2-.3,3.2-1.4,7.7-1.6,6,.5,7.9,1,10.2,1.8,1,1,1.7,2.4,1.9,3.5-.2.5,1.7,1.4,3.6,1.4,4.5,1.6,7.6,6.4,8.8,12.6.2,1.6,1,4,1.1,4.7.7,1.1.9,2.1-1.4,3.6-1.2,2-1.4,2.1-4-2.7"/>
        <path class="cls-16" d="M101.5,120c-4-2.2-6.2-4.4-4.9-5.3.1-1.1,2.6-.7,5,.5,5.9,2.5,13.3,2.5,20.9.2,2.9-.9,5.7-1.2,5.7-.6,1.2.6-1.9,3.8-5.3,5.5-4.8,2.5-17.4,2.4-21.4-.3"/>
        <path class="cls-2" d="M98.9,181.5c.4-14.9,1.9-19.4,7.2-23.4,2-2,3-2.6,3.6-.6,1,1.8,4,1.8,5.2,0,.5-2.3,1.3-2.1,4,.1,5.6,3.7,6.8,7.8,7,23.5l.2,14.2-26.7-.2-.4-13.6"/>
        <path class="cls-3" d="M108.2,114.1c3.9-3.1,3.6-3.7-3.3-8.6-2.1-4-.6-5.1,7.3-3.8,3.1-.9,6.6-.3,6.9.1,1,1.8-.3,3.9-2.6,5.3-3.2.9-3.7,4.6-.9,6.6,1.3.9,2,2.3,0,2.6s-4.1,0-6.1.1c-.5,0-1.1,0-1.6,0-2.1-.4-.7-1.4.2-2.3"/>
        <path class="cls-9" d="M110.2,62.7c.3-3.3.7-4.2,2.1-3.7,1.4.4,2,1.6,2.3,4.6-.3,3.6-.4,4-2.1,3.9-2.1,0-2.7-.8-2.3-4.7"/>
      </g>
    </g>
  </g>
</svg>