<?xml version="1.0" encoding="UTF-8"?>
<svg xmlns="http://www.w3.org/2000/svg" version="1.1" viewBox="0 0 224 224">
  <defs>
    <style>
      .cls-1 {
        fill: #c5a45c;
        opacity: 1;
      }

      .cls-1, .cls-2, .cls-3, .cls-4, .cls-5, .cls-6, .cls-7, .cls-8, .cls-9, .cls-10, .cls-11, .cls-12, .cls-13, .cls-14, .cls-15, .cls-16, .cls-17, .cls-18, .cls-19 {
        isolation: isolate;
      }

      .cls-20 {
        fill: #9c6039;
      }

      .cls-2 {
        fill: #fcfcfc;
        opacity: 1;
      }

      .cls-3 {
        fill: #b78e7b;
        opacity: 1;
      }

      .cls-4 {
        fill: #4e3733;
        opacity: 1;
      }

      .cls-5 {
        fill: #9c6745;
        opacity: 1;
      }

      .cls-6 {
        fill: #734428;
        opacity: 1;
      }

      .cls-7 {
        fill: #a87d4a;
        opacity: .9;
      }

      .cls-8 {
        fill: #030205;
        opacity: 1;
      }

      .cls-9 {
        fill: #aa824e;
        opacity: 1;
      }

      .cls-10 {
        fill: #c7a75f;
        opacity: 1;
      }

      .cls-11 {
        fill: #9e6039;
        opacity: 1;
      }

      .cls-12 {
        fill: #6e3f25;
        opacity: 1;
      }

      .cls-21 {
        fill: #cdad65;
      }

      .cls-13 {
        opacity: 1;
      }

      .cls-13, .cls-14 {
        fill: #fbfcfb;
      }

      .cls-14 {
        opacity: 1;
      }

      .cls-15 {
        fill: #986938;
        opacity: 1;
      }

      .cls-16 {
        fill: #d4a68d;
        opacity: 1;
      }

      .cls-17 {
        fill: #593b2f;
        opacity: 1;
      }

      .cls-18 {
        fill: #503934;
        opacity: 1;
      }

      .cls-19 {
        fill: #996845;
        opacity: 1;
      }
    </style>
  </defs>
  <!-- Generator: Adobe Illustrator 28.6.0, SVG Export Plug-In . SVG Version: 1.2.0 Build 709)  -->
  <g>
    <g id="_图层_1" data-name="图层_1">
      <g>
        <path class="cls-18" d="M86,65.4v-12.3s-3.7-.4-3.7-.4c-3.5-.2-5.7-3.7-5.8-8.2-.6-5.6,1-7.4,11.1-10.2,21-6.3,55.4-2.3,59.7,5.7,0,3.2.5,4.3-.5,7.7-1.2,3.9-1.8,4.6-4.7,5.5h-4.3c0,0,0,12.3,0,12.3l.2,14.4h-51.9c0,0-.1-14.6-.1-14.6"/>
        <path class="cls-21" d="M93.7,122.7c-4.1-3.3-6.8-5.6-7.9-14.2-3.6-13.2-4.7-27.3-.3-32.2,1.7-.7,50.3-.7,52.6-.1,2.3,3.7,2.8,16.8,1.2,26.5-3.9,17.7-5.5,20.3-19.2,21.5-17.2.4-23.4,1.4-26.4-1.4"/>
        <path class="cls-4" d="M74.4,195.7c-.6-1.8.6-10.1,2-20,.2-4.4,2.3-10.9,1.2-14.1.3-8.6-.3-12.7,8-26.3,2-4.5,3.6-9.4,6-13.6,4.5,2,11.7,1.9,16.2,0,6.7-.8,15.5-1,22.1,0s4.4,3.6,5.8,7.3c1.9,5.2,3.5,10.2,5.8,15.1,4.6,9.7,4.6,20,6,30.5s4,16.5,1.5,21.3c.4,0-2.8-.2-35.3-.1-22.3-.3-38.8-.3-39.4-.2"/>
        <path class="cls-16" d="M105.1,59.2c-3.1-3.7-3-8.6.2-12.1,3.7-3.5,8.7-3.8,11.7-.3,3,3.7,3.6,5.9,2.3,9.9-2.3,6-10.1,7.3-14.2,2.5"/>
        <path class="cls-20" d="M73.5,104.5c-1.5-1.1-3.4-3.7-4-5.8-1.3-4.3-.7-6.2,5.1-12,1.5-2.4,3.7-5.7,4.4-7.7,1.3-2,2.9-3.3,4.3-3.5,2.5,0,2.4.7,1.2,5-1,5.2-1,12.7.5,17.5,1.4,7.6-5.8,11.3-11.6,6.5"/>
        <path class="cls-5" d="M91.1,92.8c-4.4-4.7-.5-10.5,6.5-10.3,6.7.4,8.3,5.4,3.7,9.6-3.9,3.1-7.7,3.5-10.2.8"/>
        <path class="cls-11" d="M139.4,104.8c-1.1-2-1.3-3.3-.7-6.2,1.4-5.7,1.4-13,.1-18.1-1.1-4.2-1-4.5,1.7-4.6,1.6-.1,2.9,1,4.1,3.5.8,1.8,3.2,5.7,5.4,8.2,6.3,6.6,6.1,10.2.2,16.9-2.9,3.2-8.4,3.5-10.9.4"/>
        <path class="cls-19" d="M121.9,91.7c-2.6-2.7-3-5.8-1-7.7,2.4-2.5,9.3-1.9,11.7.5,2.7,2.6,2.8,4.2.2,7.5-2.1,3.3-7.9,3.2-10.9-.3"/>
        <path class="cls-3" d="M94.9,117.2c-3.5-4.5-3.6-8.1-.7-13.9,3.9-7.4,8.6-10.6,16.8-11.1,5.1-.7,6.6-.2,9.3,1.7,7.1,4.7,11.3,12.7,10.2,19-1.3,5.8-2.7,6.2-18.6,7.2l-14.9-.2-2.1-2.8"/>
        <path class="cls-6" d="M178.9,127.3c-1.1-1-2.5-1.8-3.7-2.5-3.1-1.6-6-3.4-8.6-5.5-2-1.7-5.6-.5-7.2,1.1s-1.7,3-2.7,4.5c-1.6,2.5-2.5,4.9-3.7,7.5-.9,2.1-1.5,3.9.4,5.7,2.1,2,4.6,3.6,6.9,5.3,1.8,1.3,3.7,2.4,5.9,2.7,3.7.4,6.2-2.5,8.8-4.6.8-.6,1.1-1.1,2-1.7s1.7-.9,2.5-1.7c1.8-2,2.5-5,1.6-7.6s-1.3-2.3-2.3-3.2Z"/>
        <path class="cls-7" d="M169,122.4c-3.2-2-4.7-2.2-7.8-1.6-2.4,1.3-2.9,1.1-2.4,0-.3-3.3,2.6-4.7,7.4-3.9,4.6.9,6.4,1.4,10.7,5.9,2.8,3.4,6.1,8,4.7,12.7,0,.3-.3.7-.7.6-.2,0-.3-.2-.4-.4-1.6-2.7-3-5.6-4.9-8.1s-3.7-4-6.6-5.2Z"/>
        <path class="cls-10" d="M66.5,156.4c-7-6.7-8.5-9-9.2-11,.1-3.8,9-21.5,10.5-21.5,1.2-.3,11.1,6.1,14.8,8.6,2.5,2.5,3.2,3.1,2.6,3.8-1.6,2.5-5.4,18.2-6.5,26.5-.2.5-.7,2-2.1,2-.9-.1-5.4-3.9-10.2-8.4"/>
        <path class="cls-1" d="M145.4,162.7c0-1.1-2-7.7-3.2-13.1-1.7-5.9-3-11.9-3.6-13.4-.1-1.5,1.2-2.8,8.1-7.5,4-2.7,8.2-5,9-4.9.5-.1.6,1.6.7,2.6,0,1.6.5,3.4,1.4,4.4.9.9.9,1.4-.4,2.8-2.4,3.3-1.1,6.5,4.2,8.9,5,2.5,5.1,3.1,4,4.9-1.3,2.9-14.8,15.7-17.9,17.1-1.5.8-1.9.5-2.4-1.9"/>
        <path class="cls-14" d="M94.5,170.4c-4-3.9.4-10.9,5.6-8.1,3.7,2.2,2.7,9-1.3,9.5-1.6.6-3.8-.2-4.4-1.3"/>
        <path class="cls-2" d="M123.8,146.4c-2.2-2.7-1.4-6.5,1.6-7.9,4.7-2.7,8.7,5.4,4.4,8.7-3.1,1.6-3.8,1.3-6-.8"/>
        <path class="cls-13" d="M94.9,144.6c-1-6.5,5.9-9.1,8.4-3.9,1.8,3.3-.5,6.5-3.7,7.2-3.1-1-4.1-1.3-4.8-3.3"/>
        <path class="cls-8" d="M107.9,103.9c-3.5-2.1-4-5.9-1-6.7,2.5-1.1,8.7-.9,10.3.2,2.5,1.6.9,5.3-2.5,7-3.7,1.6-3,1.7-6.8-.5"/>
        <path class="cls-15" d="M111.7,125.3c-3,0-6,0-9-.2s-5.1,0-3.5-2.7c2.4-4,8-5.3,12.3-5.3,2.7,0,5.5.6,7.9,1.8,1.3.6,5.5,3.5,5.1,5.3-.3,1.4-2.8.9-3.8.9-3,.1-6.1.2-9.1.2Z"/>
        <path class="cls-17" d="M107.3,113.7c0-1.9,1-4,2.2-5,2-2,2.3-2.1,4.5,0,1.4,1,2.2,3.2,1.9,5.5,0,3.4-.1,3.3-4.4,3.3-4.2,0-4.1,0-4.3-3.8"/>
        <path class="cls-12" d="M64.7,132.8c-.8-1.5-.6-2,1.1-2.3,2.4-2.7.8-8.6-2.8-11-2.8-2.7-2.7-2.9-8.4-.2-2.8,1.8-5.4,3.7-5.9,4.7-.9.6-2.7,2.4-4.5,2.9-2,1.1-2.1,1.9-2.3,6.2-.2,3.5.9,4.1,3,5.8,1.1.8,2.5,1.2,3.5,2s.9,1.3,1.6,1.8c1.3.9,2.9,2.6,4.6,2.5s4.7-1.7,6.3-2.6c6.3-3.3,7.5-7,3.6-9.8Z"/>
        <path class="cls-9" d="M41.7,130.8c-.3-2.7,7.5-11.8,11.5-13.3,2-.6,5-1.2,7.4-1,2.6.3,3.4,1.6,4.9,4.6,2.3,5.4,2.6,6.3-1.2,2.8-2.1-3.9-5.2-4.5-8.7-2.3-.5,1.1-2.4,1.9-4,2.1-1.1-.2-2.2.7-2,1.9-.3,1.5-1.6,2.4-3.1,2.9-1.5.5-3.1,1.6-3.8,2.6-.8,1.5-.6,1.4-1.1-.3"/>
        <path class="cls-2" d="M123.8,170.1c-2.2-2.7-1.4-6.5,1.6-7.9,4.7-2.7,8.7,5.4,4.4,8.7-3.1,1.6-3.8,1.3-6-.8"/>
      </g>
    </g>
  </g>
</svg>