<?xml version="1.0" ?>
<svg xmlns="http://www.w3.org/2000/svg" version="1.1" width="224" height="224">
  <defs/>
  <g>
    <path d="M 43.68829345703125 88.15900421142578 C 43.993873596191406 86.34741973876953 44.96501159667969 81.89202117919922 46.35063934326172 77.79400634765625 C 56.416290283203125 48.28813171386719 78.4925308227539 30.985694885253906 108.86397552490234 28.704452514648438 C 139.15203857421875 28.0 160.20654296875 39.48521423339844 174.9521026611328 67.75428009033203 C 177.7963104248047 73.87416076660156 181.3076171875 86.33248901367188 180.94903564453125 88.95143127441406 C 181.07818603515625 88.44036865234375 154.8545379638672 89.00437927246094 112.3104019165039 89.21265411376953 C 52.578102111816406 89.39755249023438 44.606719970703125 89.58073425292969 43.68829345703125 88.15900421142578" stroke-width="0.0" fill="rgb(231, 65, 56)" opacity="0.9937581"/>
    <path d="M 47.238609313964844 95.04606628417969 C 41.794532775878906 95.006103515625 41.483917236328125 93.046875 45.68598175048828 89.38565826416016 C 50.015830993652344 85.07598114013672 68.04332733154297 75.52592468261719 78.49911499023438 72.37510681152344 C 96.7122573852539 65.99942016601562 129.97987365722656 66.01472473144531 147.88299560546875 72.49148559570312 C 163.13829040527344 77.38236999511719 181.98402404785156 88.98200988769531 181.9160919189453 92.68460083007812 C 182.51608276367188 94.0667953491211 179.84906005859375 94.77592468261719 176.14747619628906 95.53960418701172 C 169.9251708984375 95.82064056396484 51.94917297363281 96.26705932617188 47.238609313964844 95.04606628417969" stroke-width="0.0" fill="rgb(252, 250, 191)" opacity="0.9972414"/>
    <path d="M 86.73126220703125 194.42832946777344 C 86.27528381347656 193.3738555908203 87.30366516113281 188.18115234375 89.736572265625 183.09823608398438 C 96.62123107910156 165.6485595703125 99.55577087402344 147.77227783203125 99.52433013916016 124.77360534667969 L 99.19270324707031 113.21664428710938 L 125.2955093383789 113.1305160522461 L 126.045166015625 131.66111755371094 C 127.15138244628906 152.4086151123047 129.00445556640625 162.92579650878906 134.2464599609375 177.6851043701172 C 136.2220001220703 183.52789306640625 138.2626953125 190.0709228515625 138.37506103515625 192.05056762695312 L 138.54452514648438 195.33316040039062 L 112.7579116821289 195.7247772216797 C 90.7110595703125 195.94931030273438 87.35478210449219 196.0 86.73126220703125 194.42832946777344" stroke-width="1.0" fill="rgb(233, 220, 182)" opacity="0.99182624"/>
    <path d="M 93.89205932617188 111.56600189208984 C 93.34658813476562 106.30891418457031 94.45257568359375 95.89968872070312 95.7872314453125 94.81298828125 C 96.2957534790039 94.41911315917969 97.44215393066406 91.64097595214844 98.80117797851562 88.55703735351562 C 101.17591857910156 81.7180404663086 107.75228881835938 75.46043395996094 112.18418884277344 75.66728973388672 C 116.83921813964844 75.50643920898438 121.86312866210938 78.58296203613281 124.78759002685547 83.2761001586914 C 127.66163635253906 88.19268798828125 130.5453338623047 98.64360809326172 130.76004028320312 105.7412109375 C 131.15223693847656 115.71597290039062 132.55274963378906 114.89753723144531 116.5168228149414 114.12820434570312 C 107.9272232055664 113.88622283935547 100.46867370605469 114.217041015625 98.50850677490234 114.770751953125 C 94.92418670654297 116.17819213867188 94.79845428466797 116.10470581054688 93.89205932617188 111.56600189208984" stroke-width="1.0" fill="rgb(166, 128, 84)" opacity="0.99594635"/>
    <path d="M 130.49822998046875 106.22998046875 C 130.4446563720703 103.09078216552734 130.07154846191406 99.59178161621094 130.0205078125 97.99134826660156 L 128.94589233398438 95.0219497680664 L 152.5875244140625 94.93767547607422 L 175.86944580078125 95.14895629882812 L 177.05197143554688 99.76903533935547 C 178.59954833984375 103.46981048583984 178.57546997070312 104.37625885009766 177.69358825683594 105.66324615478516 C 174.74342346191406 107.89823150634766 162.7897186279297 109.72657012939453 146.60226440429688 110.74213409423828 L 130.5845184326172 111.3084716796875 L 130.49822998046875 106.22998046875" stroke-width="1.0" fill="rgb(199, 55, 51)" opacity="1.0"/>
    <path d="M 64.82368469238281 109.72608947753906 C 47.16852569580078 106.96000671386719 45.839508056640625 106.4913558959961 47.950950622558594 100.24746704101562 L 49.52665328979492 94.89433288574219 L 96.03244018554688 94.96427917480469 L 94.75919342041016 100.98309326171875 C 94.82669830322266 104.31781768798828 94.37052917480469 107.59230041503906 94.67668914794922 108.6732177734375 C 94.41403198242188 110.88407897949219 93.31088256835938 111.12808990478516 81.05140686035156 110.53047180175781 C 73.6281509399414 110.56675720214844 66.33280944824219 110.14552307128906 64.82368469238281 109.72608947753906" stroke-width="1.0" fill="rgb(200, 56, 51)" opacity="0.9989245"/>
  </g>
</svg>
