<?xml version="1.0" ?>
<svg xmlns="http://www.w3.org/2000/svg" version="1.1" width="224" height="224">
  <defs/>
  <g>
    <path d="M 54.40548324584961 35.63494873046875 C 54.40548324584961 35.63494873046875 54.40548324584961 35.63494873046875 54.40548324584961 35.63494873046875 C 59.55763244628906 36.00395202636719 63.18876266479492 38.630348205566406 65.19660949707031 43.38404083251953 C 65.41751861572266 43.34722137451172 65.63924407958984 43.30958557128906 65.86097717285156 43.27276611328125 C 67.443359375 43.43231201171875 68.77700805664062 43.66632080078125 70.128662109375 44.57696533203125 C 74.05024719238281 47.22216796875 74.60334777832031 52.96260070800781 71.25858306884766 56.30736541748047 C 69.72856140136719 57.83738708496094 67.944091796875 58.3348388671875 65.86097717285156 58.54512023925781 C 63.33522033691406 58.54512023925781 60.80946350097656 58.54512023925781 58.28370666503906 58.54512023925781 C 52.58500671386719 58.753761291503906 46.8167610168457 61.0946044921875 44.49637222290039 66.70248413085938 C 43.57754135131836 68.92306518554688 43.408992767333984 71.12644958496094 43.27317428588867 73.49592590332031 C 43.27317428588867 81.3890151977539 43.27317428588867 89.28292846679688 43.27317428588867 97.17601776123047 C 43.35171890258789 100.64678192138672 43.56363296508789 104.01936340332031 44.708282470703125 107.32976531982422 C 47.65049743652344 115.83895874023438 55.556678771972656 119.47744750976562 64.02740478515625 119.63617706298828 C 72.32877349853516 119.63617706298828 80.6301498413086 119.63617706298828 88.93151092529297 119.63617706298828 C 102.40303039550781 119.84481811523438 115.28462982177734 124.68605041503906 125.19291687011719 133.9127960205078 C 128.5728759765625 137.0603790283203 131.27699279785156 140.71278381347656 134.25030517578125 144.22445678710938 C 137.09024047851562 147.57821655273438 140.11753845214844 150.77325439453125 143.3191375732422 153.78338623046875 C 153.69052124023438 163.5345916748047 165.944580078125 171.32049560546875 179.2908935546875 176.307373046875 C 184.62632751464844 178.30130004882812 190.30702209472656 180.0996856689453 196.0 180.72723388671875 C 196.0 183.2734375 196.0 185.8196563720703 196.0 188.36505126953125 C 183.72303771972656 188.27342224121094 171.59744262695312 186.66403198242188 159.75332641601562 183.41253662109375 C 148.60546875 180.35250854492188 137.97879028320312 175.88108825683594 127.2711181640625 171.58804321289062 C 127.2711181640625 177.1803741455078 127.2711181640625 182.772705078125 127.2711181640625 188.36505126953125 C 122.18034362792969 188.36505126953125 117.08955383300781 188.36505126953125 111.99877166748047 188.36505126953125 C 111.99877166748047 185.83029174804688 111.99877166748047 183.2947235107422 111.99877166748047 180.7591552734375 C 106.84662628173828 175.65773010253906 101.6952896118164 170.55630493164062 96.54314422607422 165.4540557861328 C 88.96833038330078 165.4540557861328 81.39351654052734 165.4540557861328 73.81788635253906 165.4540557861328 C 73.81788635253906 173.091064453125 73.81788635253906 180.72805786132812 73.81788635253906 188.36505126953125 C 68.72709655761719 188.36505126953125 63.636314392089844 188.36505126953125 58.545528411865234 188.36505126953125 C 58.545528411865234 180.53005981445312 58.545528411865234 172.69505310058594 58.545528411865234 164.86004638671875 C 40.05277633666992 160.69219970703125 32.14741134643555 140.76678466796875 29.435104370117188 123.9161376953125 C 29.002281188964844 121.22919464111328 28.679100036621094 118.52425384521484 28.449188232421875 115.81195831298828 C 28.13909149169922 112.15054321289062 28.028640747070312 108.48668670654297 28.0 104.81382751464844 C 28.0 94.37452697753906 28.0 83.93522644042969 28.0 73.49592590332031 C 28.079364776611328 70.35734558105469 28.353458404541016 67.28340148925781 29.197830200195312 64.24710083007812 C 31.279312133789062 56.76228332519531 36.2735481262207 51.016937255859375 42.949989318847656 47.22789764404297 C 42.949989318847656 47.22789764404297 42.949989318847656 47.22789764404297 42.949989318847656 47.22789764404297 C 43.3852653503418 40.629188537597656 47.77568054199219 36.08168029785156 54.40548324584961 35.63494873046875 C 54.40548324584961 35.63494873046875 54.40548324584961 35.63494873046875 54.40548324584961 35.63494873046875" stroke-width="0.0" fill="rgb(46, 125, 50)" opacity="1.0"/>
    <path d="M 73.81788635253906 150.1817169189453 C 73.81788635253906 155.27249145507812 73.81788635253906 160.36326599121094 73.81788635253906 165.4540557861328 C 81.39351654052734 165.4540557861328 88.96833038330078 165.4540557861328 96.54314422607422 165.4540557861328 C 91.46054077148438 160.36326599121094 86.37711334228516 155.27249145507812 81.29369354248047 150.1817169189453 C 78.8014907836914 150.1817169189453 76.31008911132812 150.1817169189453 73.81788635253906 150.1817169189453" stroke-width="0.0" fill="rgb(129, 176, 131)" opacity="1.0"/>
    <path d="M 127.2711181640625 157.81951904296875 C 127.2711181640625 162.40875244140625 127.2711181640625 166.99798583984375 127.2711181640625 171.58804321289062 C 137.97879028320312 175.88108825683594 148.60546875 180.35250854492188 159.75332641601562 183.41253662109375 C 171.59744262695312 186.66403198242188 183.72303771972656 188.27342224121094 196.0 188.36505126953125 C 196.0 188.36505126953125 196.0 188.36505126953125 196.0 188.36505126953125 C 188.3171844482422 187.4339599609375 180.67282104492188 185.41220092773438 173.31646728515625 183.072998046875 C 156.45355224609375 177.7105712890625 140.6280975341797 169.50001525878906 127.2711181640625 157.81951904296875 C 127.2711181640625 157.81951904296875 127.2711181640625 157.81951904296875 127.2711181640625 157.81951904296875" stroke-width="0.0" fill="rgb(130, 177, 132)" opacity="1.0"/>
    <path d="M 29.49483871459961 124.25569152832031 C 29.49483871459961 124.25569152832031 29.49483871459961 124.25569152832031 29.49483871459961 124.25569152832031 C 32.459144592285156 140.98605346679688 40.097774505615234 160.66354370117188 58.545528411865234 164.86004638671875 C 58.545528411865234 159.8036346435547 58.545528411865234 154.74803161621094 58.545528411865234 149.6924285888672 C 54.20993423461914 148.8194122314453 50.04288864135742 147.6035919189453 46.1392936706543 145.47874450683594 C 37.8632926940918 140.974609375 32.097503662109375 133.22633361816406 29.49483871459961 124.25569152832031 C 29.49483871459961 124.25569152832031 29.49483871459961 124.25569152832031 29.49483871459961 124.25569152832031" stroke-width="0.0" fill="rgb(130, 177, 132)" opacity="1.0"/>
  </g>
</svg>
