<?xml version="1.0" ?>
<svg xmlns="http://www.w3.org/2000/svg" version="1.1" width="224" height="224">
  <defs/>
  <g>
    <path d="M 39.82776641845703 36.04481506347656 C 39.82776641845703 36.04481506347656 39.82776641845703 36.04481506347656 39.82776641845703 36.04481506347656 C 45.14025115966797 36.406951904296875 49.266212463378906 40.12358093261719 53.54436111450195 42.965362548828125 C 61.54808044433594 48.280296325683594 69.5477294921875 53.600914001464844 77.54737854003906 58.92072677612305 C 105.65032958984375 77.61207580566406 133.74757385253906 96.3123779296875 161.84320068359375 115.01350402832031 C 161.84320068359375 115.01350402832031 161.84320068359375 115.01350402832031 161.84320068359375 115.01350402832031 C 165.38812255859375 117.25877380371094 168.7889862060547 119.69122314453125 171.68692016601562 122.74948120117188 C 181.0936279296875 132.67459106445312 180.9544677734375 146.23899841308594 180.65582275390625 159.06692504882812 C 180.65582275390625 159.06692504882812 180.65582275390625 159.06692504882812 180.65582275390625 159.06692504882812 C 187.75132751464844 162.00637817382812 193.24691772460938 167.716796875 194.97543334960938 175.34210205078125 C 196.0 179.8586883544922 195.84375 185.2802276611328 190.90072631835938 187.35867309570312 C 189.64585876464844 187.8868408203125 189.28697204589844 187.82009887695312 187.9417724609375 187.9552001953125 C 177.81484985351562 187.9552001953125 167.68710327148438 187.9552001953125 157.5601806640625 187.9552001953125 C 156.2149658203125 187.82009887695312 155.8560791015625 187.8868408203125 154.6011962890625 187.35948181152344 C 149.73712158203125 185.31439208984375 149.50599670410156 180.03121948242188 150.47604370117188 175.55857849121094 C 152.1719970703125 167.73959350585938 157.8433837890625 161.85906982421875 165.1537322998047 158.9684600830078 C 165.1537322998047 158.5037841796875 165.1537322998047 158.03826904296875 165.1537322998047 157.57359313964844 C 164.76473999023438 147.01861572265625 157.9076690673828 137.69898986816406 147.35513305664062 135.33570861816406 C 144.11376953125 134.60980224609375 140.7942657470703 134.78558349609375 137.49755859375 134.78558349609375 C 133.91928100585938 134.78558349609375 130.34100341796875 134.78558349609375 126.76191711425781 134.78558349609375 C 114.20336151123047 134.78558349609375 101.65619659423828 134.82382202148438 89.20018005371094 132.98382568359375 C 89.20018005371094 141.180419921875 89.20018005371094 149.3769989013672 89.20018005371094 157.57359313964844 C 73.70217895507812 156.91848754882812 67.28861999511719 139.62362670898438 66.54318237304688 126.48320007324219 C 66.54318237304688 126.48320007324219 66.54318237304688 126.48320007324219 66.54318237304688 126.48320007324219 C 61.51308822631836 124.11341094970703 56.77840042114258 121.22279357910156 52.55233383178711 117.59324645996094 C 37.277313232421875 104.4764175415039 31.15021514892578 84.364990234375 29.326492309570312 64.92494201660156 C 28.96923065185547 61.11880111694336 28.804847717285156 57.310211181640625 28.685218811035156 53.491058349609375 C 28.606277465820312 50.951995849609375 28.189613342285156 48.285179138183594 28.560707092285156 45.75507354736328 C 29.11083984375 42.0067138671875 31.594558715820312 38.69861602783203 35.02716064453125 37.10356903076172 C 36.59779357910156 36.37358856201172 38.12366485595703 36.16932678222656 39.82776641845703 36.04481506347656 C 39.82776641845703 36.04481506347656 39.82776641845703 36.04481506347656 39.82776641845703 36.04481506347656" stroke-width="0.0" fill="rgb(0, 151, 167)" opacity="1.0"/>
    <path d="M 28.685218811035156 53.491058349609375 C 65.78960418701172 80.58895874023438 102.89480590820312 107.68767547607422 139.9991912841797 134.78558349609375 C 123.09005737304688 134.78558349609375 105.97828674316406 135.4618377685547 89.20018005371094 132.98382568359375 C 89.20018005371094 132.98382568359375 89.20018005371094 132.98382568359375 89.20018005371094 132.98382568359375 C 81.13542938232422 131.50108337402344 72.82083129882812 129.5194854736328 65.40874481201172 125.95015716552734 C 60.83437728881836 123.74638366699219 56.506591796875 121.02422332763672 52.625579833984375 117.74298095703125 C 34.03595733642578 102.02606964111328 29.399734497070312 76.61029052734375 28.685218811035156 53.491058349609375 C 28.685218811035156 53.491058349609375 28.685218811035156 53.491058349609375 28.685218811035156 53.491058349609375" stroke-width="0.0" fill="rgb(102, 193, 202)" opacity="1.0"/>
    <path d="M 165.1537322998047 158.9684600830078 C 170.3238067626953 159.00100708007812 175.49305725097656 159.03436279296875 180.66232299804688 159.06692504882812 C 187.75540161132812 162.00799560546875 193.24691772460938 167.71923828125 194.97543334960938 175.34210205078125 C 195.99917602539062 179.8586883544922 195.84375 185.2802276611328 190.90072631835938 187.35867309570312 C 189.64585876464844 187.8868408203125 189.28697204589844 187.82009887695312 187.9417724609375 187.9552001953125 C 177.81484985351562 187.9552001953125 167.68710327148438 187.9552001953125 157.5601806640625 187.9552001953125 C 156.2149658203125 187.82009887695312 155.8560791015625 187.8868408203125 154.6011962890625 187.35948181152344 C 149.73712158203125 185.31439208984375 149.50599670410156 180.03121948242188 150.47604370117188 175.55857849121094 C 152.1719970703125 167.73959350585938 157.8433837890625 161.85906982421875 165.1537322998047 158.9684600830078 C 165.1537322998047 158.9684600830078 165.1537322998047 158.9684600830078 165.1537322998047 158.9684600830078" stroke-width="0.0" fill="rgb(0, 106, 117)" opacity="1.0"/>
    <path d="M 66.54318237304688 126.48320007324219 C 66.54318237304688 126.48320007324219 66.54318237304688 126.48320007324219 66.54318237304688 126.48320007324219 C 73.77053833007812 129.57073974609375 81.47803497314453 131.56700134277344 89.20018005371094 132.98382568359375 C 89.20018005371094 141.180419921875 89.20018005371094 149.3769989013672 89.20018005371094 157.57359313964844 C 73.70217895507812 156.91848754882812 67.28861999511719 139.62362670898438 66.54318237304688 126.48320007324219 C 66.54318237304688 126.48320007324219 66.54318237304688 126.48320007324219 66.54318237304688 126.48320007324219" stroke-width="0.0" fill="rgb(0, 106, 117)" opacity="1.0"/>
    <path d="M 30.79132843017578 40.571983337402344 C 30.79132843017578 40.571983337402344 30.79132843017578 40.571983337402344 30.79132843017578 40.571983337402344 C 28.0 44.73457336425781 28.611976623535156 48.75067138671875 28.685218811035156 53.491058349609375 C 39.926231384277344 61.653465270996094 51.1672477722168 69.81587219238281 62.40826416015625 77.97828674316406 C 64.66004943847656 74.9192123413086 66.91183471679688 71.8609619140625 69.16361999511719 68.80269622802734 C 56.37312698364258 59.391910552978516 43.58182144165039 49.98194885253906 30.79132843017578 40.571983337402344" stroke-width="0.0" fill="rgb(0, 106, 117)" opacity="1.0"/>
  </g>
</svg>
