<?xml version="1.0" ?>
<svg xmlns="http://www.w3.org/2000/svg" version="1.1" width="224" height="224">
  <defs/>
  <g>
    <path d="M 98.91767883300781 184.6890869140625 C 86.76942443847656 180.47723388671875 73.49337768554688 161.54100036621094 66.0972900390625 140.35958862304688 C 61.21149826049805 124.53470611572266 59.29458236694336 85.08621978759766 62.53675842285156 70.28217315673828 C 67.43385314941406 52.57106018066406 78.50433349609375 41.185359954833984 94.7974853515625 37.833984375 C 102.25906372070312 35.95680236816406 125.25963592529297 36.18611145019531 132.1749267578125 38.15081787109375 C 144.4369354248047 41.06488037109375 153.23193359375 48.658260345458984 158.739990234375 59.97735595703125 C 160.06570434570312 63.499210357666016 161.42701721191406 66.55789184570312 161.47027587890625 66.77294158935547 C 161.917236328125 66.89884948730469 163.74710083007812 66.56039428710938 165.59466552734375 65.16162872314453 C 176.74090576171875 61.06647491455078 189.236083984375 66.98777770996094 193.92709350585938 78.62451934814453 C 195.6456756591797 82.34170532226562 196.0 84.46483612060547 195.681640625 89.09166717529297 C 195.08892822265625 95.90521240234375 188.50570678710938 109.31586456298828 183.176513671875 114.92514038085938 C 177.6024627685547 120.83656311035156 169.87010192871094 121.65359497070312 165.78497314453125 117.22979736328125 C 164.85719299316406 116.19225311279297 163.830810546875 115.28111267089844 163.19705200195312 115.11463165283203 C 163.34030151367188 115.13174438476562 162.79238891601562 118.2026596069336 162.89016723632812 122.15997314453125 C 160.93362426757812 145.96859741210938 143.28390502929688 176.4405517578125 127.53404998779297 183.94772338867188 C 120.56968688964844 187.52947998046875 105.96011352539062 188.04319763183594 98.91767883300781 184.6890869140625" stroke-width="1.0" fill="rgb(73, 45, 39)" opacity="0.9909484"/>
    <path d="M 163.33531188964844 90.33110809326172 L 163.2835235595703 76.86648559570312 L 167.51193237304688 77.52228546142578 C 174.05673217773438 78.16548156738281 177.79595947265625 82.07361602783203 178.23046875 89.0998764038086 C 178.61309814453125 93.37374114990234 178.30934143066406 94.3516845703125 175.80361938476562 97.09002685546875 C 172.98907470703125 100.44342803955078 168.30889892578125 103.24800872802734 164.9258575439453 103.26116180419922 C 163.06289672851562 103.11602020263672 162.94354248046875 102.50859832763672 163.33531188964844 90.33110809326172" stroke-width="1.0" fill="rgb(48, 20, 11)" opacity="0.9849212"/>
    <path d="M 102.59039306640625 168.29248046875 C 95.34362030029297 165.4141845703125 89.28959655761719 158.92025756835938 83.54409790039062 147.5973663330078 C 75.94061279296875 132.33538818359375 74.95016479492188 136.28555297851562 93.59684753417969 103.52511596679688 C 109.95526885986328 74.84304809570312 114.39411926269531 68.72571563720703 120.46769714355469 65.41543579101562 C 128.37506103515625 61.34870147705078 139.44589233398438 66.44719696044922 144.9642333984375 76.99058532714844 C 147.58482360839844 83.15523529052734 148.01034545898438 84.09947204589844 148.52786254882812 91.99535369873047 C 148.2524871826172 99.08338928222656 147.7725830078125 100.8272933959961 146.04957580566406 104.20106506347656 L 143.4586639404297 108.08303833007812 L 145.61309814453125 113.07305908203125 C 149.7273406982422 121.33011627197266 148.09756469726562 134.2661590576172 141.4761505126953 147.11143493652344 C 138.1406707763672 154.67831420898438 134.64938354492188 159.81991577148438 131.35552978515625 163.17605590820312 C 124.55976104736328 169.69281005859375 111.8803482055664 171.88656616210938 102.59039306640625 168.29248046875" stroke-width="0.0" fill="rgb(172, 115, 83)" opacity="0.9925461"/>
    <path d="M 41.47948455810547 115.1920394897461 C 36.42321014404297 109.88983154296875 30.497718811035156 99.06768798828125 28.7626953125 91.38948822021484 C 28.0 86.97162628173828 28.05120849609375 85.21064758300781 29.212791442871094 80.668212890625 C 32.43254089355469 70.46699523925781 41.11304473876953 63.96190643310547 50.886207580566406 63.855926513671875 C 57.98963165283203 64.08145141601562 65.15773010253906 68.49485778808594 63.617427825927734 71.47482299804688 C 61.969852447509766 72.05215454101562 61.19385528564453 82.22587585449219 61.304561614990234 93.83341979980469 L 62.45724868774414 114.93894958496094 L 59.663856506347656 117.02926635742188 C 57.1201171875 119.144287109375 56.22093963623047 119.6494140625 51.72591018676758 119.50701141357422 C 46.877723693847656 119.53803253173828 45.681358337402344 119.24556732177734 41.47948455810547 115.1920394897461" stroke-width="0.0" fill="rgb(162, 103, 73)" opacity="0.9828799"/>
    <path d="M 132.42422485351562 95.83011627197266 C 128.1033172607422 92.79772186279297 126.94723510742188 92.52887725830078 121.66295623779297 92.66520690917969 C 114.8795394897461 92.8817367553711 114.32386779785156 92.17000579833984 116.8158950805664 86.04034423828125 C 118.65030670166016 81.37349700927734 122.0669174194336 78.97459411621094 127.01808166503906 78.96865844726562 C 133.22422790527344 78.91021728515625 140.22210693359375 90.09624481201172 138.14425659179688 96.611083984375 L 137.1944580078125 99.18063354492188 L 132.42422485351562 95.83011627197266" stroke-width="1.0" fill="rgb(64, 38, 32)" opacity="0.9899456"/>
    <path d="M 83.2480239868164 139.03448486328125 C 78.15126037597656 133.09503173828125 76.6121826171875 128.9315185546875 77.0770263671875 121.96430969238281 C 77.48841857910156 118.12110900878906 78.42547607421875 113.9258041381836 79.57850646972656 111.6573257446289 C 81.94449615478516 107.69924926757812 81.89189147949219 107.85755157470703 80.01171112060547 104.52732849121094 C 72.89155578613281 92.87977600097656 76.79640197753906 73.858154296875 87.63321685791016 67.12626647949219 C 95.79347229003906 61.93684768676758 103.38058471679688 62.694618225097656 108.95108795166016 69.455078125 C 111.31687927246094 72.44157409667969 111.29351043701172 72.48127746582031 111.35150909423828 88.06843566894531 C 111.31688690185547 102.55801391601562 111.39210510253906 103.74639892578125 109.58399200439453 104.12137603759766 C 108.33732604980469 104.53804779052734 107.64649963378906 105.5899658203125 107.28012084960938 106.97684478759766 C 107.45128631591797 108.49128723144531 108.17911529541016 110.12206268310547 109.44686126708984 110.80101776123047 C 111.0400161743164 111.81147003173828 111.38043212890625 112.9485092163086 111.481201171875 127.0210189819336 L 111.51304626464844 142.10137939453125 L 85.38756561279297 141.84063720703125 L 83.2480239868164 139.03448486328125" stroke-width="1.0" fill="rgb(225, 180, 147)" opacity="0.99326813"/>
    <path d="M 52.094913482666016 101.31981658935547 C 40.57872772216797 93.8414077758789 44.92100524902344 77.02848052978516 58.28705978393555 77.10784149169922 L 61.38473892211914 77.0507583618164 L 61.199092864990234 102.79408264160156 L 58.299320220947266 102.87675476074219 C 56.60111618041992 102.77839660644531 53.74088668823242 101.96210479736328 52.094913482666016 101.31981658935547" stroke-width="1.0" fill="rgb(52, 25, 14)" opacity="1.0"/>
    <path d="M 109.13378143310547 110.02332305908203 C 106.66729736328125 107.95414733886719 107.07604217529297 105.02715301513672 110.1930923461914 104.06155395507812 C 114.23207092285156 102.85026550292969 117.38343048095703 106.58078002929688 114.58943939208984 109.65151977539062 C 112.28927612304688 112.29597473144531 111.96080017089844 112.01660919189453 109.13378143310547 110.02332305908203" stroke-width="1.0" fill="rgb(60, 34, 25)" opacity="1.0"/>
    <path d="M 86.87934112548828 98.63912200927734 C 86.01683044433594 97.66240692138672 86.3073501586914 91.50941467285156 87.15811157226562 88.63250732421875 C 88.43890380859375 84.25745391845703 92.7196044921875 80.1407699584961 96.62885284423828 79.32537841796875 C 102.66278839111328 78.11044311523438 107.75086212158203 82.22007751464844 109.55143737792969 90.35755157470703 L 110.24285888671875 92.95623779296875 L 105.51017761230469 92.73603820800781 C 100.00872039794922 91.82567596435547 94.87956237792969 93.20394897460938 90.54996490478516 96.7191162109375 C 88.82839965820312 98.20381927490234 87.13874053955078 99.45451354980469 86.87934112548828 98.63912200927734" stroke-width="1.0" fill="rgb(76, 49, 44)" opacity="0.97574615"/>
    <path d="M 89.29341125488281 143.92514038085938 L 86.5113525390625 141.23690795898438 L 136.773193359375 140.91807556152344 L 132.31214904785156 146.2234649658203 L 91.47943878173828 146.25823974609375 L 89.29341125488281 143.92514038085938" stroke-width="1.0" fill="rgb(252, 253, 253)" opacity="0.9944841"/>
  </g>
</svg>
