<?xml version="1.0" ?>
<svg xmlns="http://www.w3.org/2000/svg" version="1.1" width="224" height="224">
  <defs/>
  <g>
    <path d="M 62.109642028808594 115.39764404296875 C 46.480262756347656 113.44269561767578 39.96294403076172 106.69290924072266 33.15161895751953 82.45223236083984 C 28.00000762939453 66.12393188476562 29.33739471435547 59.9943962097168 38.58812713623047 50.204673767089844 C 45.85576629638672 42.862518310546875 58.009464263916016 39.98936462402344 58.60981369018555 45.467002868652344 C 58.9868278503418 49.130435943603516 55.348236083984375 55.608551025390625 49.923095703125 61.58151626586914 L 44.73895263671875 67.13819885253906 L 47.86346435546875 78.14129638671875 C 52.94593048095703 96.89376068115234 55.4786491394043 99.19606018066406 66.45307159423828 99.87208557128906 C 73.40431213378906 101.17053985595703 73.66326904296875 101.96533966064453 71.3609619140625 109.69694519042969 C 71.34052276611328 117.00628662109375 71.28343963623047 116.54537963867188 62.109642028808594 115.39764404296875" stroke-width="1.0" fill="rgb(55, 48, 0)" opacity="0.9995595"/>
    <path d="M 153.86407470703125 111.82791900634766 C 152.75515747070312 109.77803802490234 152.2470703125 106.22306060791016 151.91615295410156 104.49234771728516 C 151.09616088867188 101.01300811767578 151.49314880371094 100.88731384277344 154.95751953125 100.28307342529297 C 157.32553100585938 100.32535552978516 161.1490020751953 99.94583129882812 163.72128295898438 99.33381652832031 C 169.545166015625 98.1644515991211 172.08798217773438 94.93115234375 175.67901611328125 81.96422576904297 C 180.97674560546875 65.25120544433594 180.98260498046875 67.94709777832031 174.73037719726562 61.707908630371094 C 169.6142120361328 55.993812561035156 165.8428955078125 49.05533981323242 165.94932556152344 45.049354553222656 C 165.99832153320312 42.450775146484375 170.142578125 41.70237731933594 176.41867065429688 43.569313049316406 C 182.2192840576172 45.857215881347656 189.66033935546875 53.21314239501953 192.87335205078125 59.887718200683594 C 196.0 66.25994873046875 195.4674072265625 70.56498718261719 190.05624389648438 87.6057357788086 C 183.06643676757812 109.80255889892578 177.51507568359375 113.95639038085938 159.54588317871094 115.6413345336914 L 153.8552703857422 116.42406463623047 L 153.86407470703125 111.82791900634766" stroke-width="1.0" fill="rgb(56, 49, 0)" opacity="0.99905294"/>
    <path d="M 101.26354217529297 165.2461395263672 C 89.67877197265625 158.89468383789062 76.7791519165039 143.29434204101562 71.89321899414062 130.29026794433594 C 68.36829376220703 120.24650573730469 70.38662719726562 103.15575408935547 76.42842102050781 91.37051391601562 C 80.63707733154297 82.89456176757812 84.81346130371094 78.77999877929688 92.34782409667969 74.85147094726562 C 98.16175079345703 72.01146697998047 100.16596984863281 71.76296997070312 109.34536743164062 71.51261138916016 C 117.80340576171875 71.10074615478516 121.04975891113281 71.29923248291016 126.97100067138672 73.15567016601562 C 144.28358459472656 78.30476379394531 154.77395629882812 97.10572052001953 154.5182342529297 120.21456909179688 C 153.37466430664062 128.51309204101562 153.26319885253906 129.9710693359375 149.06686401367188 137.47219848632812 C 146.44076538085938 143.4786376953125 143.63543701171875 147.23648071289062 137.24423217773438 154.33151245117188 C 122.71186828613281 168.8594970703125 113.34500885009766 171.63101196289062 101.26354217529297 165.2461395263672" stroke-width="1.0" fill="rgb(183, 91, 0)" opacity="0.9977527"/>
    <path d="M 71.00120544433594 181.9556884765625 C 66.86125183105469 180.85513305664062 63.867706298828125 177.3907470703125 62.93791961669922 173.75912475585938 C 62.08193588256836 168.40554809570312 64.02622985839844 154.16436767578125 67.01322937011719 145.40652465820312 C 69.03775787353516 140.92787170410156 70.21963500976562 137.00772094726562 70.21231079101562 137.7201385498047 C 68.54159545898438 136.68338012695312 61.43389129638672 139.05010986328125 57.547821044921875 142.076904296875 C 52.968318939208984 145.1773223876953 49.077720642089844 150.8040771484375 45.008697509765625 159.14157104492188 C 42.258811950683594 164.04310607910156 41.694122314453125 164.34255981445312 38.203163146972656 163.7711639404297 C 34.04901885986328 163.6723175048828 32.63695526123047 161.95211791992188 32.151100158691406 157.5474853515625 C 32.51874542236328 143.26724243164062 50.28527069091797 123.19755554199219 65.41106414794922 121.41742706298828 L 70.34733581542969 120.7082290649414 L 71.86328125 127.73096466064453 C 73.05636596679688 132.66778564453125 75.67442321777344 138.4094696044922 77.58040618896484 140.5627899169922 C 79.7417984008789 144.40365600585938 81.61946105957031 147.30743408203125 82.44013977050781 147.78160095214844 C 81.51107025146484 148.56419372558594 80.38423156738281 151.66993713378906 79.19223022460938 155.03172302246094 C 77.76211547851562 159.1406707763672 77.5860824584961 163.50477600097656 77.40286254882812 171.9817657470703 C 77.30300903320312 184.0058135986328 77.15267944335938 184.01065063476562 71.00120544433594 181.9556884765625" stroke-width="1.0" fill="rgb(56, 48, 0)" opacity="0.99996644"/>
    <path d="M 65.84146118164062 97.11306762695312 C 57.17984390258789 91.8180923461914 52.49348068237305 81.43375396728516 53.65265655517578 71.04711151123047 C 55.454734802246094 56.40555191040039 70.14506530761719 41.05359649658203 79.62284851074219 43.93035888671875 C 86.00413513183594 45.352928161621094 83.7841567993164 54.57931137084961 74.19898986816406 64.40447998046875 C 68.70732116699219 68.73777770996094 67.92498016357422 69.95187377929688 68.35821533203125 73.37361907958984 C 68.25205993652344 78.38329315185547 70.85362243652344 81.89482879638672 75.47284698486328 84.04638671875 C 77.59909057617188 85.26221466064453 79.0137939453125 86.78130340576172 79.09408569335938 86.73763275146484 C 78.78865051269531 89.53621673583984 73.38492584228516 99.78543853759766 72.3040771484375 99.55330657958984 C 71.53697967529297 99.56428527832031 68.51225280761719 98.30065155029297 65.84146118164062 97.11306762695312" stroke-width="1.0" fill="rgb(56, 49, 0)" opacity="0.9990306"/>
    <path d="M 146.95120239257812 171.73446655273438 C 147.2186279296875 162.77902221679688 146.91004943847656 158.45599365234375 145.35520935058594 153.70556640625 L 142.75820922851562 147.55162048339844 L 144.93836975097656 144.18348693847656 C 148.50564575195312 139.3892822265625 153.30824279785156 129.1714630126953 153.70249938964844 124.74346923828125 L 154.20252990722656 120.71205139160156 L 158.98165893554688 121.43670654296875 C 174.66671752929688 123.95865631103516 189.9893798828125 141.5163116455078 192.08428955078125 156.78529357910156 C 192.14169311523438 161.76673889160156 190.54132080078125 163.87301635742188 185.86306762695312 163.96258544921875 C 182.94114685058594 164.3736114501953 181.7167510986328 163.60540771484375 177.46157836914062 155.68959045410156 C 175.2460174560547 150.6985626220703 171.21588134765625 145.44900512695312 168.9329376220703 143.39279174804688 C 165.3771209716797 139.84793090820312 156.18148803710938 136.50506591796875 154.03076171875 137.4735870361328 C 154.06297302246094 136.82827758789062 155.03274536132812 139.45675659179688 156.28318786621094 142.2326202392578 C 160.83279418945312 152.5699462890625 163.19212341308594 171.59173583984375 160.71368408203125 176.2762451171875 C 158.81332397460938 179.49752807617188 154.9276580810547 182.2686767578125 151.0847930908203 182.6361846923828 L 147.3628387451172 183.03004455566406 L 146.95120239257812 171.73446655273438" stroke-width="1.0" fill="rgb(56, 48, 0)" opacity="0.9999084"/>
    <path d="M 148.4877166748047 93.33999633789062 C 146.84616088867188 89.98970031738281 145.6506805419922 87.13920593261719 145.48239135742188 87.52296447753906 C 144.9477081298828 86.76600646972656 146.0689239501953 86.29557037353516 146.9217987060547 85.0738525390625 C 151.29974365234375 84.29318237304688 155.59619140625 79.41590118408203 155.71437072753906 74.2841796875 C 156.1074981689453 69.87202453613281 156.17919921875 69.82546997070312 150.61676025390625 64.25425720214844 C 140.8258819580078 53.847625732421875 138.53372192382812 45.40876007080078 144.5548095703125 44.06770324707031 C 151.339111328125 41.97576904296875 161.86251831054688 49.37733459472656 167.21328735351562 60.2115592956543 C 170.11383056640625 65.94513702392578 170.56478881835938 68.19209289550781 170.97613525390625 74.67697143554688 C 170.6508026123047 81.12368774414062 170.05746459960938 83.68507385253906 167.8593292236328 87.9679946899414 C 165.1996612548828 93.47313690185547 159.0459747314453 97.94319915771484 153.8106231689453 98.95496368408203 C 150.6566162109375 99.84707641601562 150.92572021484375 99.52352905273438 148.4877166748047 93.33999633789062" stroke-width="1.0" fill="rgb(56, 49, 0)" opacity="0.9990837"/>
  </g>
</svg>
