<?xml version="1.0" ?>
<svg xmlns="http://www.w3.org/2000/svg" version="1.1" width="224" height="224">
  <defs/>
  <g>
    <path d="M 68.74850463867188 60.11088180541992 C 49.115386962890625 52.00780487060547 37.572265625 45.985565185546875 37.191680908203125 44.175445556640625 C 36.94038391113281 42.504188537597656 50.248573303222656 35.12535095214844 58.14507293701172 32.664161682128906 C 67.34642791748047 29.9923095703125 80.03358459472656 28.0 85.66883850097656 28.527183532714844 L 90.05929565429688 28.487335205078125 L 90.253662109375 48.41595458984375 C 90.06645202636719 59.36083984375 89.81610107421875 68.42221069335938 89.47369384765625 68.45306396484375 C 89.2079849243164 68.29983520507812 79.60954284667969 64.56041717529297 68.74850463867188 60.11088180541992" stroke-width="1.0" fill="rgb(91, 203, 15)" opacity="0.994865"/>
    <path d="M 75.42609405517578 193.76126098632812 C 77.72138977050781 191.55308532714844 77.75470733642578 185.52574157714844 88.35472869873047 183.318359375 C 89.47095489501953 180.1256866455078 88.77714538574219 176.7353515625 83.78658294677734 175.82516479492188 C 81.43229675292969 175.8082733154297 78.49919128417969 174.2753448486328 77.72193908691406 173.11572265625 C 76.1945571899414 173.09152221679688 75.86741638183594 137.76495361328125 76.52745056152344 138.91110229492188 C 78.49222564697266 137.69332885742188 87.9745864868164 135.2183380126953 95.10757446289062 136.78518676757812 C 107.27987670898438 138.20578002929688 117.23689270019531 142.0854034423828 128.0398712158203 152.04605102539062 C 138.07040405273438 159.01797485351562 143.29515075683594 162.79762268066406 146.70608520507812 161.83218383789062 C 149.738037109375 161.09364318847656 155.52993774414062 152.59129333496094 157.50820922851562 144.36444091796875 C 159.79733276367188 127.32268524169922 150.8129425048828 105.16153717041016 136.24758911132812 90.51197814941406 C 127.21234893798828 83.83564758300781 108.14588165283203 73.87039184570312 103.23564910888672 75.11141967773438 C 102.00569915771484 77.06263732910156 102.68877410888672 78.97918701171875 101.93152618408203 84.05052185058594 C 102.58203887939453 96.11332702636719 101.5174331665039 100.17842864990234 98.04890441894531 102.37297058105469 C 97.46282958984375 103.75225067138672 91.54895782470703 103.88404083251953 87.48765563964844 103.96363067626953 C 76.90457153320312 103.64175415039062 74.32150268554688 104.75279235839844 75.04299926757812 102.90526580810547 C 77.22535705566406 98.60066223144531 79.29307556152344 96.9985580444336 82.90301513671875 94.00423431396484 L 88.80105590820312 92.93544006347656 L 88.30891418457031 59.646759033203125 L 89.39825439453125 28.448341369628906 L 93.2474136352539 28.705902099609375 C 102.28678131103516 28.190635681152344 121.11250305175781 31.50555419921875 130.8162841796875 35.70562744140625 C 159.58938598632812 46.93553924560547 180.38299560546875 72.2748794555664 188.13284301757812 105.58863067626953 C 190.114013671875 115.46810150146484 191.36239624023438 128.62054443359375 189.00372314453125 141.162841796875 C 187.43756103515625 149.97132873535156 186.59799194335938 153.39524841308594 183.13807678222656 161.95079040527344 C 176.91476440429688 174.95494079589844 169.67567443847656 182.6566162109375 157.72853088378906 187.99169921875 C 150.56761169433594 190.19607543945312 150.5093994140625 191.93753051757812 138.086181640625 191.71762084960938 C 123.69049072265625 190.63031005859375 115.94719696044922 188.8118896484375 106.19339752197266 182.9141082763672 C 101.05155944824219 183.00906372070312 102.82637786865234 183.01185607910156 101.3412857055664 189.29054260253906 C 98.09214782714844 193.5968017578125 95.15982818603516 195.21371459960938 85.63864135742188 194.6414337158203 C 79.13726806640625 194.9535675048828 75.57039642333984 196.0 75.42609405517578 193.76126098632812" stroke-width="0.0" fill="rgb(0, 105, 10)" opacity="0.99755055"/>
    <path d="M 63.4842414855957 43.13148498535156 C 62.237247467041016 41.59436798095703 61.435726165771484 39.61485290527344 61.36907958984375 38.54413604736328 C 61.24510955810547 35.925010681152344 65.83157348632812 31.42340087890625 68.50862121582031 31.39897918701172 C 71.35871124267578 31.416534423828125 75.74851989746094 35.89440155029297 75.6543960571289 38.25291442871094 C 75.93350982666016 41.82916259765625 71.82676696777344 45.81422424316406 68.504638671875 45.807044982910156 C 66.46339416503906 45.807701110839844 64.93034362792969 44.88755798339844 63.4842414855957 43.13148498535156" stroke-width="1.0" fill="rgb(26, 23, 24)" opacity="0.99529195"/>
    <path d="M 150.0030975341797 156.11825561523438 C 157.56942749023438 142.48768615722656 154.01377868652344 122.4124526977539 140.8486328125 104.24739837646484 C 133.31475830078125 93.81156158447266 123.99283599853516 86.20375061035156 109.63420867919922 79.35702514648438 L 102.24386596679688 76.05484771728516 L 102.49247741699219 61.603580474853516 C 102.24530029296875 54.15013122558594 102.10523223876953 48.412986755371094 102.97972106933594 47.70105743408203 C 104.55913543701172 47.7073974609375 125.51806640625 62.99335861206055 132.9650115966797 69.71575927734375 C 157.58291625976562 92.71185302734375 170.11508178710938 123.9831771850586 163.55149841308594 146.14321899414062 C 160.88836669921875 154.94580078125 156.6573486328125 159.6605682373047 149.41334533691406 161.57200622558594 C 147.4202880859375 161.90283203125 147.30015563964844 162.36288452148438 150.0030975341797 156.11825561523438" stroke-width="1.0" fill="rgb(169, 177, 167)" opacity="0.9659295"/>
    <path d="M 119.03153991699219 189.36318969726562 C 108.2292709350586 186.47991943359375 102.5256118774414 184.28907775878906 102.19236755371094 182.62960815429688 C 102.02011108398438 181.80250549316406 101.87667083740234 175.0098876953125 101.99114227294922 167.85971069335938 L 102.5421371459961 153.37515258789062 L 105.83441162109375 158.84982299804688 C 112.0613784790039 170.79653930664062 123.74742126464844 178.6436309814453 138.11172485351562 181.13417053222656 C 141.85096740722656 181.8496856689453 145.0077667236328 182.98690795898438 144.82260131835938 183.49319458007812 C 144.86590576171875 184.13980102539062 144.31919860839844 186.31405639648438 143.6707763671875 188.26182556152344 L 142.87364196777344 191.98052978515625 L 135.01393127441406 192.10516357421875 C 130.71107482910156 191.87747192382812 124.02703857421875 190.78878784179688 119.03153991699219 189.36318969726562" stroke-width="1.0" fill="rgb(97, 207, 16)" opacity="0.9708845"/>
    <path d="M 64.35966491699219 169.9884033203125 C 52.90614318847656 166.2374267578125 40.917144775390625 161.92578125 37.97264099121094 160.27154541015625 L 32.63758850097656 157.60946655273438 L 37.95220184326172 152.76043701171875 C 48.505977630615234 142.91461181640625 62.455135345458984 137.50648498535156 79.39698028564453 136.529541015625 L 88.73843383789062 136.2445526123047 L 88.6282958984375 156.8162841796875 C 88.91393280029297 175.77169799804688 88.63712310791016 177.3347625732422 86.92294311523438 176.77938842773438 C 86.15237426757812 177.24072265625 75.82166290283203 173.96969604492188 64.35966491699219 169.9884033203125" stroke-width="1.0" fill="rgb(91, 203, 15)" opacity="0.99483466"/>
    <path d="M 63.40679168701172 154.51992797851562 C 60.413516998291016 150.91683959960938 60.61753463745117 147.27084350585938 63.73006820678711 144.0615692138672 C 66.85606384277344 140.91708374023438 69.57769012451172 140.81976318359375 73.30020904541016 143.69879150390625 C 75.29727172851562 145.30752563476562 76.02195739746094 146.970947265625 76.07209777832031 149.42611694335938 C 75.89888000488281 156.8048095703125 67.60433959960938 160.24609375 63.40679168701172 154.51992797851562" stroke-width="1.0" fill="rgb(26, 23, 24)" opacity="0.9921879"/>
  </g>
</svg>
