<?xml version="1.0" ?>
<svg xmlns="http://www.w3.org/2000/svg" version="1.1" width="224" height="224">
  <defs/>
  <g>
    <path d="M 122.35775756835938 28.831336975097656 C 122.66951751708984 28.831336975097656 122.98126983642578 28.831336975097656 123.29300689697266 28.831336975097656 C 133.3257598876953 29.15045166015625 142.39524841308594 32.970314025878906 149.634765625 39.92388153076172 C 160.25857543945312 50.49094772338867 170.88165283203125 61.058013916015625 181.50547790527344 71.62507629394531 C 192.6768798828125 83.14361572265625 196.0 100.38861083984375 188.96389770507812 115.00547790527344 C 187.0926513671875 118.89313507080078 184.5618133544922 122.31354522705078 181.5740203857422 125.40966796875 C 169.09591674804688 137.8885040283203 156.61708068847656 150.36734008789062 144.13824462890625 162.84617614746094 C 131.83038330078125 174.70223999023438 114.37165832519531 178.42926025390625 98.29553985595703 172.6320343017578 C 93.11150360107422 178.5972900390625 87.9281997680664 184.56253051757812 82.7448959350586 190.5270538330078 C 78.76364135742188 195.16867065429688 72.71363067626953 194.63507080078125 68.40145874023438 190.728271484375 C 56.415672302246094 178.74172973632812 44.42988586425781 166.75521850585938 32.44409942626953 154.76942443847656 C 28.53801727294922 150.45651245117188 28.00000762939453 144.403564453125 32.646034240722656 140.4245147705078 C 38.040855407714844 135.72174072265625 43.4364128112793 131.01968383789062 48.831233978271484 126.31690979003906 C 41.7435302734375 113.35533905029297 41.27848434448242 97.7007827758789 48.29690933227539 84.57633209228516 C 50.300071716308594 80.82943725585938 52.857452392578125 77.49378967285156 55.80027770996094 74.44188690185547 C 60.950416564941406 69.26963806152344 66.09981536865234 64.09664916992188 71.24995422363281 58.924407958984375 C 74.84649658203125 55.580650329589844 78.93315124511719 53.727840423583984 83.81796264648438 53.22888946533203 C 83.81796264648438 53.22888946533203 83.81796264648438 53.22888946533203 83.81796264648438 53.22888946533203 C 85.1430892944336 51.306068420410156 86.57433319091797 49.53211212158203 88.17436218261719 47.83112335205078 C 90.78848266601562 45.19562530517578 93.4026107788086 42.56011962890625 96.01600646972656 39.92388153076172 C 103.25553131103516 32.970314025878906 112.32501983642578 29.15045166015625 122.35775756835938 28.831336975097656 C 122.35775756835938 28.831336975097656 122.35775756835938 28.831336975097656 122.35775756835938 28.831336975097656" stroke-width="0.0" fill="rgb(39, 40, 77)" opacity="1.0"/>
    <path d="M 105.56675720214844 37.679725646972656 C 105.56675720214844 37.679725646972656 105.56675720214844 37.679725646972656 105.56675720214844 37.679725646972656 C 100.4409408569336 42.76426696777344 95.27090454101562 47.823753356933594 89.74342346191406 52.474945068359375 C 87.51326751708984 54.35133743286133 84.58665466308594 57.38703155517578 81.63719177246094 58.18962097167969 C 77.86155700683594 59.94293975830078 74.08665466308594 61.69625473022461 70.31175231933594 63.4503059387207 C 63.41935729980469 72.38639831542969 56.52695846557617 81.32322692871094 49.63456344604492 90.25931549072266 C 45.65330123901367 106.77174377441406 51.14392852783203 124.82228088378906 62.60350036621094 137.00926208496094 C 62.60350036621094 137.00926208496094 62.60350036621094 137.00926208496094 62.60350036621094 137.00926208496094 C 70.6515121459961 146.94989013671875 79.86766052246094 156.48147583007812 90.18856811523438 164.05780029296875 C 95.31512451171875 167.82015991210938 101.39019012451172 171.76235961914062 107.91114044189453 172.26426696777344 C 123.46472930908203 173.46041870117188 136.5191650390625 163.25814819335938 148.15855407714844 154.4009246826172 C 148.15855407714844 154.4009246826172 148.15855407714844 154.4009246826172 148.15855407714844 154.4009246826172 C 153.30722045898438 150.8625946044922 158.09475708007812 146.68972778320312 162.5926513671875 142.37017822265625 C 169.925048828125 135.32818603515625 176.650146484375 127.40029907226562 181.41998291015625 118.37797546386719 C 185.8810272216797 109.94083404541016 188.50621032714844 100.32891082763672 186.94671630859375 90.76637268066406 C 185.39019775390625 81.21857452392578 179.86270141601562 72.96273040771484 172.95704650878906 66.39093017578125 C 169.85281372070312 63.436302185058594 166.42062377929688 61.02927017211914 163.04074096679688 58.423248291015625 C 159.75668334960938 55.89092254638672 157.0489501953125 52.29143142700195 154.26385498046875 49.24394607543945 C 146.65066528320312 40.91292953491211 137.7698516845703 31.985679626464844 125.75237274169922 31.53022003173828 C 122.57591247558594 31.40935516357422 119.40092468261719 31.881027221679688 116.35565948486328 32.77500915527344 C 112.52548217773438 33.89966583251953 109.0070571899414 35.68614959716797 105.56675720214844 37.679725646972656 C 105.56675720214844 37.679725646972656 105.56675720214844 37.679725646972656 105.56675720214844 37.679725646972656" stroke-width="0.0" fill="rgb(39, 40, 77)" opacity="1.0"/>
    <path d="M 52.55233383178711 131.8790283203125 C 47.167091369628906 136.5596923828125 41.782588958740234 141.2403564453125 36.39808654785156 145.92103576660156 C 35.47315979003906 147.5637969970703 35.88145446777344 148.5639190673828 37.03411865234375 149.97821044921875 C 42.17320251464844 155.11654663085938 47.31228256225586 160.25416564941406 52.45136642456055 165.39251708984375 C 55.4111442565918 162.4098663330078 58.37092590332031 159.426513671875 61.331443786621094 156.44314575195312 C 62.26521682739258 155.72457885742188 62.4863166809082 155.3236541748047 63.74510955810547 155.27499389648438 C 65.67161560058594 155.2005615234375 67.29891204833984 156.82786560058594 67.22447204589844 158.75436401367188 C 67.17509460449219 160.01609802246094 66.7778549194336 160.2320556640625 66.05559539794922 161.16802978515625 C 63.072967529296875 164.15139770507812 60.09033966064453 167.134765625 57.10771179199219 170.11740112304688 C 62.379451751708984 175.38986206054688 67.65193176269531 180.662353515625 72.92440795898438 185.93408203125 C 74.18467712402344 186.9629364013672 75.84365844726562 187.81637573242188 77.18351745605469 186.50453186035156 C 82.1317138671875 180.78543090820312 87.07991790771484 175.0655975341797 92.02811431884766 169.34649658203125 C 88.76616668701172 167.44284057617188 85.8240737915039 165.23699951171875 83.0787582397461 162.6442413330078 C 74.01959228515625 153.58506774902344 64.96041870117188 144.52664184570312 55.901248931884766 135.46746826171875 C 54.73016357421875 134.31553649902344 53.6202392578125 133.12823486328125 52.54938888549805 131.88197326660156 C 52.54938888549805 131.88197326660156 52.54938888549805 131.88197326660156 52.54938888549805 131.88197326660156 C 52.54938888549805 131.88197326660156 52.55233383178711 131.8790283203125 52.55233383178711 131.8790283203125" stroke-width="0.0" fill="rgb(254, 254, 254)" opacity="1.0"/>
    <path d="M 85.02442932128906 59.93925094604492 C 85.02442932128906 59.93925094604492 85.02442932128906 59.93925094604492 85.02442932128906 59.93925094604492 C 81.39471435546875 60.144874572753906 78.54991149902344 61.3262825012207 75.84217834472656 63.751739501953125 C 70.7031021118164 68.89008331298828 65.56401824951172 74.02842712402344 60.4249382019043 79.1667709350586 C 57.43125534057617 82.29164123535156 54.92030334472656 85.75405883789062 53.108028411865234 89.69772338867188 C 46.71015548706055 103.6196060180664 49.94630813598633 119.79890441894531 60.4249382019043 130.74258422851562 C 69.48484802246094 139.80174255371094 78.54548645019531 148.86093139648438 87.60539245605469 157.9193572998047 C 90.73026275634766 160.9145050048828 94.19194030761719 163.4254608154297 98.1363525390625 165.2384796142578 C 112.0545425415039 171.63412475585938 128.240478515625 168.40167236328125 139.17825317382812 157.9193572998047 C 143.8810272216797 153.17161560058594 148.58306884765625 148.42388916015625 153.28585815429688 143.6761474609375 C 140.88661193847656 145.67709350585938 128.83596801757812 141.91766357421875 119.77532958984375 133.21961975097656 C 116.8597640991211 130.30479431152344 113.94346618652344 127.38997650146484 111.02790069580078 124.47515106201172 C 102.85313415527344 126.18940734863281 95.03579711914062 123.99241638183594 88.94599151611328 118.27700805664062 C 84.47758483886719 113.80859375 80.00843048095703 109.34017944335938 75.5400161743164 104.87103271484375 C 74.27384948730469 102.65560913085938 74.81111907958984 99.46367645263672 77.95588684082031 99.3413314819336 C 79.09159851074219 99.297119140625 79.32080841064453 99.60517883300781 80.26490020751953 100.14392852783203 C 84.73332214355469 104.61233520507812 89.20172882080078 109.08075714111328 93.67088317871094 113.5499038696289 C 100.62666320800781 119.91830444335938 110.40735626220703 119.91903686523438 117.3638687133789 113.5499038696289 C 117.85470581054688 113.0583267211914 118.34555053710938 112.56748962402344 118.83712768554688 112.07665252685547 C 125.20626068115234 105.1208724975586 125.20699310302734 95.33869934082031 118.83712768554688 88.38365936279297 C 110.6269760131836 80.17277526855469 102.41609191894531 71.9626235961914 94.20594024658203 63.751739501953125 C 91.49747467041016 61.327754974365234 88.65341186523438 60.144874572753906 85.02442932128906 59.93925094604492 C 85.02442932128906 59.93925094604492 85.02442932128906 59.93925094604492 85.02442932128906 59.93925094604492" stroke-width="0.0" fill="rgb(191, 210, 110)" opacity="1.0"/>
    <path d="M 122.89134979248047 35.667724609375 C 122.89134979248047 35.667724609375 122.89134979248047 35.667724609375 122.89134979248047 35.667724609375 C 114.47116088867188 35.86376190185547 106.9419937133789 38.975364685058594 100.84186553955078 44.78363800048828 C 98.17172241210938 47.45304489135742 95.50084686279297 50.1224479675293 92.83070373535156 52.79185485839844 C 92.33175659179688 53.332069396972656 91.84017944335938 53.879661560058594 91.35745239257812 54.435359954833984 C 91.35745239257812 54.435359954833984 91.35745239257812 54.435359954833984 91.35745239257812 54.435359954833984 C 94.29364776611328 55.51506042480469 96.7448959350586 57.02516555786133 99.03179931640625 59.15951156616211 C 107.241943359375 67.37039184570312 115.45210266113281 75.5805435180664 123.66224670410156 83.79069519042969 C 130.3070068359375 90.85260009765625 132.5143280029297 101.00989532470703 128.4689483642578 110.00347900390625 C 127.28753662109375 112.63013458251953 125.62708282470703 114.87944793701172 123.66224670410156 116.96736145019531 C 123.1714096069336 117.45893859863281 122.68057250976562 117.94977569580078 122.18899536132812 118.44062042236328 C 120.80564880371094 119.70604705810547 119.38323974609375 120.79164123535156 117.79796600341797 121.79322052001953 C 120.03179931640625 124.02706909179688 122.26637268066406 126.26089477539062 124.50021362304688 128.49473571777344 C 127.30743408203125 131.16708374023438 130.404296875 133.3935546875 133.9639892578125 134.96115112304688 C 145.81639099121094 140.18203735351562 159.33660888671875 137.31069946289062 168.59991455078125 128.4976806640625 C 171.28184509277344 125.8614501953125 173.96377563476562 123.22447204589844 176.64498901367188 120.58749389648438 C 185.45799255371094 111.32270050048828 188.329345703125 97.80248260498047 183.10919189453125 85.94862365722656 C 181.54159545898438 82.38892364501953 179.31585693359375 79.29206848144531 176.64498901367188 76.4848403930664 C 166.07717895507812 65.91777038574219 155.50936889648438 55.3507080078125 144.9415740966797 44.78363800048828 C 138.84144592285156 38.975364685058594 131.31153869628906 35.86376190185547 122.89134979248047 35.667724609375 C 122.89134979248047 35.667724609375 122.89134979248047 35.667724609375 122.89134979248047 35.667724609375" stroke-width="0.0" fill="rgb(191, 210, 110)" opacity="1.0"/>
  </g>
</svg>
