<?xml version="1.0" ?>
<svg xmlns="http://www.w3.org/2000/svg" version="1.1" width="224" height="224">
  <defs/>
  <g>
    <path d="M 176.78118896484375 28.71288299560547 C 176.78118896484375 28.71288299560547 176.78118896484375 28.71288299560547 176.78118896484375 28.71288299560547 C 180.48593139648438 28.89630126953125 183.4733428955078 30.134933471679688 186.22164916992188 32.626304626464844 C 187.7899932861328 34.19389343261719 189.35833740234375 35.76148986816406 190.9274139404297 37.32908630371094 C 196.0 42.924461364746094 195.99630737304688 50.61688995361328 190.9274139404297 56.212257385253906 C 173.3690185546875 73.75877380371094 155.8113555908203 91.3052978515625 138.25294494628906 108.85182189941406 C 134.31280517578125 112.68355560302734 129.98353576660156 115.85735321044922 125.14262390136719 118.46011352539062 C 123.1517562866211 119.49378967285156 121.160888671875 120.52821350097656 119.1700210571289 121.5618896484375 C 114.8645248413086 123.75696563720703 111.00753784179688 126.4503173828125 107.46318817138672 129.73477172851562 C 91.06098937988281 146.13623046875 74.6587905883789 162.5369415283203 58.256591796875 178.93838500976562 C 60.59276580810547 182.20724487304688 60.477664947509766 185.6075439453125 57.926143646240234 188.7115478515625 C 56.59172058105469 190.0467071533203 55.256553649902344 191.38113403320312 53.92212677001953 192.71629333496094 C 50.676292419433594 195.286376953125 47.16015625 195.28712463378906 43.91432189941406 192.71629333496094 C 39.46549987792969 188.26821899414062 35.01667785644531 183.82089233398438 30.56859588623047 179.37353515625 C 28.0 176.12696838378906 28.00074005126953 172.611572265625 30.56859588623047 169.364990234375 C 31.90302276611328 168.03057861328125 33.237449645996094 166.69540405273438 34.57261657714844 165.36099243164062 C 37.67438507080078 162.80946350097656 41.07765197753906 162.69363403320312 44.34576416015625 165.02755737304688 C 60.747962951660156 148.5926971435547 77.15016174316406 132.15782165527344 93.55235290527344 115.72220611572266 C 96.90438079833984 112.26696014404297 99.67347717285156 108.48572540283203 101.9576644897461 104.247802734375 C 103.00248718261719 102.29034423828125 104.04804229736328 100.33363342285156 105.09359741210938 98.37618255615234 C 107.69784545898438 93.5367660522461 110.87239074707031 89.20675659179688 114.70263671875 85.26586151123047 C 132.2484130859375 67.71934509277344 149.79493713378906 50.172828674316406 167.34144592285156 32.626304626464844 C 170.08901977539062 30.13567352294922 173.07717895507812 28.89630126953125 176.78118896484375 28.71288299560547 C 176.78118896484375 28.71288299560547 176.78118896484375 28.71288299560547 176.78118896484375 28.71288299560547" stroke-width="0.0" fill="rgb(37, 39, 75)" opacity="1.0"/>
    <path d="M 158.50099182128906 123.56240844726562 C 158.50099182128906 123.56240844726562 158.50099182128906 123.56240844726562 158.50099182128906 123.56240844726562 C 161.4609375 123.69310760498047 164.2389373779297 124.29682922363281 166.83056640625 125.79090118408203 C 168.52069091796875 126.76518249511719 170.0340576171875 128.03573608398438 171.2875518798828 129.5305633544922 C 172.5306396484375 131.0135040283203 173.51158142089844 132.7147674560547 174.17396545410156 134.53335571289062 C 178.0703125 145.2317657470703 169.8870391845703 156.9215087890625 158.50099182128906 156.9215087890625 C 147.11569213867188 156.9215087890625 138.9331512451172 145.2317657470703 142.82949829101562 134.53335571289062 C 143.49188232421875 132.7147674560547 144.47283935546875 131.0135040283203 145.71592712402344 129.5305633544922 C 146.9694061279297 128.03573608398438 148.4827880859375 126.76518249511719 150.17218017578125 125.79090118408203 C 152.7645263671875 124.29682922363281 155.5417938232422 123.6923599243164 158.50099182128906 123.56240844726562 C 158.50099182128906 123.56240844726562 158.50099182128906 123.56240844726562 158.50099182128906 123.56240844726562" stroke-width="0.0" fill="rgb(37, 39, 75)" opacity="1.0"/>
    <path d="M 170.17738342285156 34.59563446044922 C 170.17738342285156 34.59563446044922 170.17738342285156 34.59563446044922 170.17738342285156 34.59563446044922 C 174.54229736328125 30.83147430419922 179.95721435546875 30.83147430419922 184.32212829589844 34.59563446044922 C 185.8897247314453 36.163230895996094 187.45730590820312 37.73082733154297 189.02491760253906 39.29841613769531 C 192.78907775878906 43.663330078125 192.78907775878906 49.07825469970703 189.02491760253906 53.44316101074219 C 171.44497680664062 71.0015640258789 153.8650360107422 88.5592269897461 136.28436279296875 106.11762237548828 C 132.58480834960938 109.71024322509766 128.51914978027344 112.68504333496094 123.97454071044922 115.12294006347656 C 121.98367309570312 116.1566162109375 119.99280548095703 117.1910400390625 118.00193786621094 118.22545623779297 C 113.45880889892578 120.66559600830078 109.39315795898438 123.63890075683594 105.69435119628906 127.23300170898438 C 88.61491394042969 144.32432556152344 71.53547668457031 161.41488647460938 54.45604705810547 178.50621032714844 C 51.30897521972656 175.35987854003906 48.161903381347656 172.2135467529297 45.01557159423828 169.0672149658203 C 62.15144729614258 151.98704528808594 79.28657531738281 134.90760803222656 96.42244720458984 117.82743072509766 C 100.01432800292969 114.12565612792969 102.98763275146484 110.05851745605469 105.42776489257812 105.5146484375 C 106.4621810913086 103.5237808227539 107.49585723876953 101.53291320800781 108.52953338623047 99.54204559326172 C 110.96818542480469 94.9981689453125 113.94371795654297 90.93326568603516 117.53782653808594 87.23519897460938 C 135.0843505859375 69.68867492675781 152.630859375 52.14215850830078 170.17738342285156 34.59563446044922" stroke-width="0.0" fill="rgb(37, 39, 75)" opacity="1.0"/>
    <path d="M 39.74397277832031 170.03778076171875 C 39.74397277832031 170.03778076171875 39.74397277832031 170.03778076171875 39.74397277832031 170.03778076171875 C 39.62144470214844 170.09197998046875 39.49891662597656 170.1461944580078 39.37639617919922 170.20040893554688 C 38.041969299316406 171.53408813476562 36.70680236816406 172.86776733398438 35.37237548828125 174.20144653320312 C 35.27510070800781 174.42645263671875 35.27510070800781 174.71234130859375 35.37237548828125 174.93809509277344 C 39.821205139160156 179.38543701171875 44.26927947998047 183.832763671875 48.71735382080078 188.28009033203125 C 48.941619873046875 188.37811279296875 49.226768493652344 188.37664794921875 49.45176696777344 188.28009033203125 C 50.78620147705078 186.94493103027344 52.12062072753906 185.61050415039062 53.455047607421875 184.27609252929688 C 53.553062438964844 184.05181884765625 53.55232238769531 183.76666259765625 53.455047607421875 183.54241943359375 C 49.00696563720703 179.09507751464844 44.55888366699219 174.64773559570312 40.110069274902344 170.20040893554688 C 39.98828125 170.1461944580078 39.86650085449219 170.09197998046875 39.74397277832031 170.03778076171875 C 39.74397277832031 170.03778076171875 39.74397277832031 170.03778076171875 39.74397277832031 170.03778076171875" stroke-width="0.0" fill="rgb(254, 254, 254)" opacity="1.0"/>
    <path d="M 151.83035278320312 128.72039794921875 C 151.83035278320312 128.72039794921875 151.83035278320312 128.72039794921875 151.83035278320312 128.72039794921875 C 149.43478393554688 130.27833557128906 147.50035095214844 132.18751525878906 146.3188934326172 134.8348388671875 C 145.5562744140625 136.54278564453125 145.1589813232422 138.4059295654297 145.1589813232422 140.2764892578125 C 145.1589813232422 150.35781860351562 156.44105529785156 156.876953125 165.17311096191406 151.8333282470703 C 173.90367126464844 146.79043579101562 173.90589904785156 133.7610626220703 165.17311096191406 128.72039794921875 C 163.55352783203125 127.78548431396484 161.7416229248047 127.19735717773438 159.8822021484375 127.00428771972656 C 156.99874877929688 126.70429229736328 154.37742614746094 127.4245834350586 151.83035278320312 128.72039794921875 C 151.83035278320312 128.72039794921875 151.83035278320312 128.72039794921875 151.83035278320312 128.72039794921875" stroke-width="0.0" fill="rgb(37, 39, 75)" opacity="1.0"/>
    <path d="M 176.76707458496094 35.54020690917969 C 176.76707458496094 35.54020690917969 176.76707458496094 35.54020690917969 176.76707458496094 35.54020690917969 C 174.822998046875 35.7332763671875 173.55465698242188 36.25902557373047 172.04348754882812 37.497657775878906 C 154.4977264404297 55.04417419433594 136.95120239257812 72.5906982421875 119.40542602539062 90.13721466064453 C 116.05488586425781 93.59394836425781 113.28355407714844 97.37592315673828 110.99639892578125 101.61236572265625 C 109.96272277832031 103.60323333740234 108.92904663085938 105.59410095214844 107.89537048339844 107.58496856689453 C 105.31340789794922 112.37092590332031 102.17227172851562 116.65711975097656 98.3880615234375 120.56163024902344 C 95.68579864501953 123.2638931274414 92.98353576660156 125.96615600585938 90.2812728881836 128.6684112548828 C 91.84886932373047 130.23602294921875 93.41646575927734 131.80360412597656 94.98405456542969 133.37120056152344 C 97.68632507324219 130.6689453125 100.38858795166016 127.96668243408203 103.09085083007812 125.26441192626953 C 107.02580261230469 121.46015930175781 111.34616088867188 118.30937194824219 116.16924285888672 115.72220611572266 C 118.15936279296875 114.68852996826172 120.14875030517578 113.65485382080078 122.13887786865234 112.62117767333984 C 126.31814575195312 110.30208587646484 130.09417724609375 107.55526733398438 133.5471954345703 104.247802734375 C 151.09445190429688 86.71241760253906 168.6424560546875 69.17630004882812 186.18972778320312 51.64091491699219 C 188.68035888671875 48.60820007324219 188.67813110351562 45.233154296875 186.18972778320312 42.200439453125 C 184.62213134765625 40.632843017578125 183.05453491210938 39.06525421142578 181.4869384765625 37.497657775878906 C 179.97726440429688 36.25902557373047 178.71041870117188 35.7332763671875 176.76707458496094 35.54020690917969 C 176.76707458496094 35.54020690917969 176.76707458496094 35.54020690917969 176.76707458496094 35.54020690917969" stroke-width="0.0" fill="rgb(198, 218, 110)" opacity="1.0"/>
    <path d="M 85.44334411621094 133.43728637695312 C 73.43352508544922 145.4916534423828 61.42371368408203 157.5460205078125 49.413902282714844 169.5996551513672 C 50.98149871826172 171.16725158691406 52.549095153808594 172.73484802246094 54.11668395996094 174.3024444580078 C 66.12649536132812 162.24807739257812 78.13631439208984 150.19444274902344 90.1453857421875 138.14007568359375 C 88.57852935791016 136.57247924804688 87.01093292236328 135.0048828125 85.44334411621094 133.43728637695312" stroke-width="0.0" fill="rgb(198, 218, 110)" opacity="1.0"/>
    <path d="M 158.50099182128906 130.23377990722656 C 158.50099182128906 130.23377990722656 158.50099182128906 130.23377990722656 158.50099182128906 130.23377990722656 C 154.96629333496094 130.49815368652344 151.82144165039062 131.92762756347656 149.93157958984375 135.0724639892578 C 146.1072540283203 141.43492126464844 150.56500244140625 149.86029052734375 157.9915771484375 150.23751831054688 C 166.96273803710938 150.69346618652344 171.9031524658203 139.48861694335938 165.5792999267578 133.16476440429688 C 163.62631225585938 131.21176147460938 161.19508361816406 130.4112548828125 158.50099182128906 130.23377990722656 C 158.50099182128906 130.23377990722656 158.50099182128906 130.23377990722656 158.50099182128906 130.23377990722656" stroke-width="0.0" fill="rgb(198, 218, 110)" opacity="1.0"/>
  </g>
</svg>
