<?xml version="1.0" encoding="UTF-8"?>
<svg xmlns="http://www.w3.org/2000/svg" version="1.1" viewBox="0 0 224 224">
  <defs>
    <style>
      .cls-1 {
        fill: #000524;
        opacity: 1;
      }

      .cls-1, .cls-2, .cls-3, .cls-4, .cls-5, .cls-6, .cls-7, .cls-8, .cls-9, .cls-10, .cls-11 {
        isolation: isolate;
      }

      .cls-12 {
        fill: #bfd26e;
      }

      .cls-2 {
        opacity: 1;
      }

      .cls-2, .cls-3, .cls-4 {
        fill: #000625;
      }

      .cls-3 {
        opacity: 1;
      }

      .cls-4 {
        opacity: 1;
      }

      .cls-5 {
        fill: #fcfefc;
        opacity: 1;
      }

      .cls-13 {
        fill: #27284d;
      }

      .cls-6 {
        fill: #fefefe;
        opacity: 1;
      }

      .cls-7 {
        fill: #fefffe;
        opacity: 1;
      }

      .cls-8 {
        fill: #000624;
        opacity: 1;
      }

      .cls-9 {
        fill: #000523;
        opacity: 1;
      }

      .cls-10 {
        opacity: 1;
      }

      .cls-10, .cls-11 {
        fill: #000525;
      }

      .cls-11 {
        opacity: 1;
      }
    </style>
  </defs>
  <!-- Generator: Adobe Illustrator 28.6.0, SVG Export Plug-In . SVG Version: 1.2.0 Build 709)  -->
  <g>
    <g id="_图层_1" data-name="图层_1">
      <g>
        <path class="cls-13" d="M38,193.7c-5.4-3-4.2,2.3-4.4-82.7l.2-78,2.2-3.1,2.7-1.8h74.3c0,0,73.6,0,73.6,0l3,2.4c1.8,1.6,1.1,3.5,1.2,79.8-.4,58.5.5,78.6-.7,79.4-3.5,5.4.4,4.4-78.5,4.5-39.2,0-72.6.3-73.5-.5"/>
        <path class="cls-6" d="M40.1,181.2v-6.1s144.1,0,144.1,0l-.2,11.9H40.1s0-5.8,0-5.8"/>
        <path class="cls-7" d="M40.2,136.1v-10.3c0,0,144,0,144,0v20s-144,0-144,0v-9.8"/>
        <path class="cls-12" d="M40.1,104.9v-12c0,0,144.2,0,144.2,0v25.1c0,0-144.2,0-144.2,0v-13"/>
        <path class="cls-5" d="M40.3,74.7v-9.2s144-.2,144-.2l.2,19.1H40.1s.1-9.7.1-9.7"/>
        <path class="cls-12" d="M40.3,45.7v-10.6s144,0,144,0l.2,22.4H40c0,0,.3-11.7.3-11.7"/>
        <path class="cls-12" d="M40.3,160.8v-7.1s144,0,144,0l-.2,14.1H40.2s0-6.9,0-6.9"/>
        <path class="cls-2" d="M53.6,140.2c-3.9-4.1-1.1-10.8,4.2-10.8,3.7,0,6.7,3.8,5.8,7.3-.9,4.9-6.5,6.9-10.1,3.5"/>
        <path class="cls-9" d="M162,140.1c-3.8-3.7-1.1-10.5,4.3-10.8,3.3,0,6.4,3.7,5.6,7.1-1.1,4.9-6.7,6.9-9.9,3.6"/>
        <path class="cls-11" d="M53.3,108c-2-3.1-1.9-5.9.5-8.5,3.8-4.1,10.5-1.3,10.2,3.8.2,3.3-3.4,6.8-6.3,6.6-1.5,0-3.1-.8-4.4-2"/>
        <path class="cls-8" d="M162,108.3c-3.7-3.9-1.2-10.6,4-10.9,5.5,0,7.8,6.7,3.9,11-2.8,2.2-5.4,2.2-7.9,0"/>
        <path class="cls-1" d="M53.7,80.5c-3.7-4.1-1.1-10.8,3.9-10.9,3,.5,4.2,1.2,5.4,3.4,2.9,6.3-4.8,12.3-9.4,7.6"/>
        <path class="cls-10" d="M161.7,80.5c-2.2-2-2.3-5.8-.1-8.9,1.5-2.6,6.5-2.8,8.6-.2,3.7,4,.6,10.9-4.3,10.9-1.5,0-3.3-.8-4.2-1.8"/>
        <path class="cls-4" d="M53.5,49c-.9-1.4-1.8-3-1.1-3.9-.3-3.2,2.7-6.6,6-6.6,5.2.2,7.6,6.4,3.9,10.8-2.8,2.6-6.4,2.4-8.7-.3"/>
        <path class="cls-3" d="M161.8,49.3c-2.8-2.5-2.5-7.3.5-9.8,1.4-1.1,2.8-1.4,4.4-1.2,5.4,1.4,6.8,7.4,2.8,11.1-3.2,2.1-5.3,2-7.8-.1"/>
      </g>
    </g>
  </g>
</svg>