<?xml version="1.0" encoding="UTF-8"?>
<svg xmlns="http://www.w3.org/2000/svg" version="1.1" viewBox="0 0 224 224">
  <defs>
    <style>
      .cls-1 {
        fill: #bfd26e;
      }

      .cls-2 {
        fill: #cb93c2;
        opacity: 1;
      }

      .cls-2, .cls-3, .cls-4, .cls-5 {
        isolation: isolate;
      }

      .cls-3 {
        fill: #fcfdfe;
        opacity: 1;
      }

      .cls-6 {
        fill: #27284d;
      }

      .cls-4 {
        fill: #feffff;
        opacity: 1;
      }

      .cls-5 {
        fill: #cc93c2;
        opacity: 1;
      }
    </style>
  </defs>
  <!-- Generator: Adobe Illustrator 28.6.0, SVG Export Plug-In . SVG Version: 1.2.0 Build 709)  -->
  <g>
    <g id="_图层_1" data-name="图层_1">
      <g>
        <path class="cls-6" d="M66.3,186.4c-.9-2.1-.9-4,3.9-7.1,5.4-6.8,6.9-12.3,7.9-16.5-1.7-.2-3.8.2-4.5-.3-9-.1-23.9-5.4-29.9-10.7-12.8-10.2-15.7-27-8.6-45.7l3.5-7.8-2.7-7c-1.4-8.1-2.5-12.5-3.3-28,.7-20.1,2.7-24.3,6.5-27.5,5.7-2.2,9.9-.2,23.3,12.6,6.6,6.4,12.7,11.6,13.3,11.9,1.5-.7,5.5-2.2,8.9-3.8,18.5-7,40.3-6.8,58.9.6,3.9,1.7,6.3,2.9,8.7,3,.8-.3,2.9-2.8,4.1-4.1,7.6-8.3,20.3-19.8,24.8-20.6,8.2-2.6,11,2.2,12.3,19.5,1.1,11.8.4,24.3-2.9,37-2.6,7.6-2.9,6.3-.5,10.1,2.7,5.4,5.3,15.2,5.4,21.8.4,10.7-3.7,20-10.9,26.3-7.4,6.7-22.5,12.1-30.9,12.2-1.2.3-4.4.9-5.2.5,0,2.6,2.4,8.8,6.5,14,5.8,6.2,7.8,8,4.3,10.7-3.6,3.4-12-3.5-16.6-14.1-2.6-6.2-5.3-16.8-2.3-17.6.4-1.3,3.6-2.8,9.5-2.1,9.5-.9,16.6-3.4,21.7-6.4,5.3-3,11.4-9.6,13.3-15.5,2.1-4.4,1.5-13.7-.5-18.4-1.4,1.5-1.8,5-2.7,9.5-2.8,8.8-6.7,14-12.1,19-5.8,5.2-11,6.8-14.4,7.9-3.7-.3-6.9-3.1-5-7.5l3.4-3.2-9,.6c-3.9,0-10.6-1.8-13.9-5.9-6.3-1.4-9.1-2-11.6-1-.7,2.9,1.2,3.3-.5,6.3,2.3-1.8,2.2.9-.8.8,1,2.5-.6,5.8-1.6,6.4-2,4.4-4.4,3.7-6.7-2.8-5.3-2.9-5.1-6.3-3.2-5.2,2-2.7,1.2-5.2-2.8-6.3-.3.9-4.3,1.6-9.3,2-2.7,4.7-8.4,4.7-11.7,4.4-7.4.2-9.2,1.8-5.9,4.6.7,12-16.8,5.5-26.3-7.3-1.9-2.9-4.5-8.7-5.4-12.1-1.7-4.5-1.6-8.1-3-10.3-1.8,2.3-2.8,12-1.3,15.9,2.7,14,16.9,22.9,35.2,24.1,9.7-.9,12.4,1.8,10.7,9.5-1.2,6.7-5.8,17.7-11.7,22-4.4,4.3-6.6,4.4-8.9,1.4"/>
        <path class="cls-6" d="M103.5,174c-9.2-8.4-10.8-11.6-7-13.2,3-1.5,3.8-1.7,10.9,5l6.2,6.8,6.2-6.7c3.6-3.8,7.4-6.5,8.3-6,2.2,0,4.2,1.8,4.4,4.4-.2,1.6-16.9,18.7-18.9,18.3-1.4.5-5.6-3.3-10.1-8.5"/>
        <path class="cls-6" d="M111.2,149.7c-.9-.5-1.8-1.8-1.9-3.1,0-1.3-1.8-2.9-3.5-3.6-3.4-2.2-2.9-5.4,1.4-7.4,8.4-3.4,17.5-.1,15.9,4.9-.4,1.2-1.6,2.2-2.3,2.5-1.2.1-2.7,1.9-3.8,3.8-1.7,4.1-4,5-5.8,2.9"/>
        <path class="cls-5" d="M44.9,87.7c-2.2-7-3.2-16.7-3.3-27.9.1-16.6,2-17.4,16.2-3.2l10.5,10.6-7.3,7c-3.6,4.3-8.5,9.7-10.7,12.5l-3.9,4.6-1.5-3.6"/>
        <path class="cls-2" d="M177.1,87c-2-2.7-6.8-8.2-10.9-12.2l-7.7-7.2,10.3-10.6c9.7-10.5,12.4-12.3,15.4-8.8,3.4,2.7.6,39.5-3,42.9-.5.4-2.3-1.5-4.1-4"/>
        <path class="cls-1" d="M69.5,139.3c-1.5-.9-4.6-3.2-6.9-5.3-4.3-3.6-8-14-7.3-18.3.9,0,12.2-7.2,12.7-7.8,1.1.2,2.5-1.3,4.5-1.8,1.6-.4,3.8-.5,7.6-.7,4.5.1,5,1.2,2.9,5.8-2.8,4.6-3.1,10.6.4,13.5,5.2,2.7,9.2,4,12.1.8,2.9-4.2,3.3-5,6.4-.2,2.9,5.1,3.8,2.3,4.2-5.5.1-6.9-2.4-12.9-8.3-18-12.4-9.3-29.4-8.3-41.7,4.3-4.8,5.6-5.9,6-9.7,2-.3-.8,2.6-3.4,13.3-17.6,14.3-18.8,25.5-25.6,40.4-29,18-3.1,34.8-.5,48.4,9.1,5.7,3.7,15.2,14.1,22.3,24.4,2.3,2.6,5.6,6.8,7,8.8,2.6,3.1,3.9,3.9,2.5,5.3-3,3.4-3.4,3.1-8.9-3.3-10.6-9.9-23.2-12.1-34.4-8.2-8.1,3.1-13.4,8.2-15.7,16.1-1.4,6.8-.3,10.5,1.3,14.4,1.9-.5,1.7-1.6,2.9-2.9,2.2-3.7,3.2-3.9,4.7-.5,2.6,3.1,4.5,2.8,9.3,1.8,7.3-1.9,9.9-9.1,6-17.2-4.5-3.4-3.9-4,2.9-4.7,4.4.6,6,1.3,7.7,2.1,1.2.7,3.6,2.1,4.6,2.8,2.2,1.4,5.4,3.2,8.2,5.1,3.3,1.5,2.9,1.2,2.3,4.7-1.2,9.4-10,19.7-17.2,21.7-5.5.7-16.1-.7-24.4-3.6-4.8-3.9-7.7-2.9-17.5-2.6-7.3.6-9.2-1.5-16.3,3.1-11.2,3.5-21.6,4.6-26.1,1.6"/>
        <path class="cls-3" d="M138.1,130.3l-3.6-.8,4.1-2.4c7.9-3.4,10.1-11.8,4.1-17.4-3.3-2.4-3.1-2.6-1.2-3.9,3.2-1.3,8.6-1.3,11.8,0,1.7.4,3.2,2.1,4.1,4.7,3.9,11.5-7.5,23.3-19.3,19.8"/>
        <path class="cls-4" d="M76.8,129c-6.1-3.1-9.3-11.3-7.1-18.4,1.1-2.9,2.1-4.4,4.3-4.8,3.1-1.4,8.6-1.2,10.9.6,2.2.9,2.5,1.1-.4,3.9-2,.9-3,3.8-3.5,6.2,0,3.5-.1,4.7,2.4,7.6,1.8,1.9,4.5,3.8,5.9,3.9,1.8.8,2,1.3.7,1.9-2.2,1.5-10,.8-13.3-.8"/>
      </g>
    </g>
  </g>
</svg>