<?xml version="1.0" encoding="UTF-8"?>
<svg xmlns="http://www.w3.org/2000/svg" version="1.1" viewBox="0 0 224 224">
  <defs>
    <style>
      .cls-1 {
        fill: #bfd26e;
      }

      .cls-2 {
        fill: #27284d;
      }

      .cls-3 {
        fill: #fefffe;
        opacity: 1;
      }

      .cls-3, .cls-4, .cls-5, .cls-6, .cls-7 {
        isolation: isolate;
      }

      .cls-4 {
        fill: #fdfefe;
        opacity: 1;
      }

      .cls-5 {
        opacity: 1;
      }

      .cls-5, .cls-6 {
        fill: #fdfffe;
      }

      .cls-6 {
        opacity: 1;
      }

      .cls-7 {
        fill: #a73b33;
        opacity: 1;
      }
    </style>
  </defs>
  <!-- Generator: Adobe Illustrator 28.6.0, SVG Export Plug-In . SVG Version: 1.2.0 Build 709)  -->
  <g>
    <g id="_图层_1" data-name="图层_1">
      <g>
        <path class="cls-3" d="M28,172.1c.2-1,.2-31.3.2-67.2V37.4s2.5-5,2.5-5l5.6-2.8h75.3c75.4.2,76.7-1,78.2,1.9,6.3,3.9,4,.8,4.5,72.5v68.4c-.1,0-81.9-2-81.9-2-45.9.3-83.7,1.7-84.3,1.8"/>
        <path class="cls-2" d="M40.8,171.7c-.5-2-.7-2.8-.1-4.7-.2-1.7,9.4-7.3,22.5-16,11.7-7.6,22-14.1,22.4-14.7.8-.9,3.6-13.5,3.4-13.9,0,0-8,.2-17.6.2-20.2.3-21.2-.6-25.2-6.6-3.4-7.5-.8-15.8,6.5-20.3l3.5-1.6-.6-7.4c.5-5.1,1.1-6,3-9,3.1-4.7,7.7-7.3,13.8-7.4,4.1.6,5.7.6,7.2-1.4,3.1-2.5,7-3.7,10.7-3.4,2.4,0,2.7-.3,1.9-2.8.2-2.9,3.1-8,5.8-9.8,2-2,7.2-3.9,8.4-3.1.8,0,2.5-.7,3.9-1.6,10.1-4.3,21.9,2.4,23.5,13.4,0,2.2.4,3.5,1.2,3.6,4.2.5,7.9,2.6,9,4.3.9,1.4,2.2,1.7,5.8,1,11.1,0,18.6,9.5,16.6,19.9,0,1.8-.5,3-.6,3.1,0,.2,1.8,1.1,3.7,1.9,2,1.1,4.8,3.4,5.9,5.3,1.8,3.1,2.2,4.3,2.6,8.2-.5,5.7-1.6,8.6-6,12.1-2.5,1.8-3.5,2-19.7,1.8l-16.1-.2.6.6c0,1.5.5,5.1,1.3,7.7.2,2.6,1.4,5.6,2.1,6.7,1.2.8,10.5,6.6,20.5,13.3,10.3,6.7,19.5,12.8,20.8,13.7,2.1,2.2,2.1,6,.1,7.3-1.5,1.6-7.5,1.5-70.3,1.3l-69.3.3-1.2-1.5"/>
        <path class="cls-4" d="M56,112.1c-1.3-.8-2.2-1.8-2.2-3.6,0-3.7,2.4-5.8,6.1-6.2,2.5,1.3,3.3,1.1,5.2-1.9,1.5-2.2,2.7-3.2,3.9-3,4.1,1.7,4.9-4.2.5-5.2-5.6-2.4-6.7-6.6-3.4-10.1,1.6-1.6,2.4-2.4,6.2-2.2,5.1,1.4,5.7.7,8-2.5,1.7-1.6,4.5-2.7,6.4-3,2.8-.6,12.5,1.4,12.6,2.2-.1.3-1.8,8.2-3.9,17.8l-3.9,17.7-4.5.3c-5.2,1.6-5.8,1.2-9-.2-3.8-2.7-7-2.5-9.4.2-2.4,2.2-9.9,2.1-12.6-.3"/>
        <path class="cls-6" d="M134.5,113.6c-.1-.6-1.8-8.5-3.7-17.9-2-9.5-3.6-17.7-3.6-18.2-.2-1.2.4-1.7,3-2.3,4.7-1.6,7.7-.8,11.2,3.2,2.2,3.2,2.4,3.2,5.8,2,4.8-1.1,8.1,0,9.8,3.6,1,2.2.9,2.7.4,4.8-.5,1.2-2,2.8-3.8,3.6-2.3.2-2.9,1.2-3.3,3.3.5,1.9,1.3,2.1,3,2.2,1.1-.2,3.4,1.2,4.8,3.1,1.7,2.5,2.4,2.8,5,1.8,5,0,7.9,5.6,4.1,9.6-2.3,2-12.4,2.2-16.9.6-3.8-3-6.2-3.3-8.8-.5-2.5,1.6-6,1.9-6.9,1.3"/>
        <path class="cls-5" d="M101.7,67.8c-2-1.7-2.4-4.7-.3-7,1.5-1.7,2.3-2.1,5.1-2.2,3.9,1.1,4.6.9,6.7-1.4,3.6-2.4,6.8-2.3,10.1.5,2.8,2.6,3.8,6.4,2.4,9.2-2.2,4.2-6.5,4.7-10.5.9l-2.8-3.1-2.2,3.3c-3.2,2.6-6.1,2.5-8.4,0"/>
        <path class="cls-1" d="M99.5,160.5c-10.5,2.7-20.4,2-22,1.4-6.4-2.6-9.2-3.2-10.4-3.8,1.1-1.2,5.9-4.3,11.6-7.9,5.8-3.6,11.7-7.1,13-8.5,2.4-2.4,2.7-6.3,10.9-44.6,4.8-23.1,4.8-24,8.3-25.2,2.2-.5,3.3-.4,4.6.6,3,1.7,3.5,4.1,6.6,20.1,4.9,23.6,8.5,42.9,9.5,46.1,1.1,3.4,4,5.3,15.9,13.2,3.8,2.6,7.6,4.3,8.4,5.7-1.9.6-4.8,2.1-8.8,3.9-7.2,2.2-6.1,2-47.6-1"/>
        <path class="cls-1" d="M31.3,192.8l-2.8-2.8-.4-9.8v-10.2c-.1,0,5.7,0,5.7,0,5,.3,6.5.2,7.6,2.3,1.6,1.7,2.3,1.4,69.8,1.2,67.9.2,68.6.5,69.7-1.2,1.6-2.3,3-2,7.7-2.3h5.6c0-.1-.4,19.3-.4,19.3l-2.5,3-3,3.2H34.2s-2.9-2.7-2.9-2.7"/>
        <path class="cls-7" d="M54.1,166.3c.5-.3,2.6-2.2,5.6-4.1,4.9-3.5,5.7-3.9,10.6-4,5.3,0,11.2,1.9,12.4,4.2.2.7,1.7.1,3.9-1.9,4.8-4.5,9.3-6.5,15.1-6.3,3,.6,5.3,1.2,6.9,2.5,2.9,2.3,3.6,2.4,6.5-.2,3.5-2.6,11-3,15.7-.6,1.9,1.2,4.7,3.1,6.1,4.4l2.8,2.4,4.1-2.4c3.4-1.4,6-2.1,9.7-2.1,4.5.3,5.2.6,10.5,4.2l5.5,4.2-20,.2h-20.5c0,0-5.2-2.4-5.2-2.4-4.7-2.5-6-3-11.9-3-6.1,0-7.2.5-12,2.9l-5.2,2.5h-20.4c-10.8,0-19.9-.2-20.2-.5"/>
      </g>
    </g>
  </g>
</svg>