<?xml version="1.0" encoding="UTF-8"?>
<svg xmlns="http://www.w3.org/2000/svg" version="1.1" viewBox="0 0 224 224">
  <defs>
    <style>
      .cls-1 {
        fill: #bfd26e;
      }

      .cls-2 {
        fill: #27284d;
      }
    </style>
  </defs>
  <!-- Generator: Adobe Illustrator 28.6.0, SVG Export Plug-In . SVG Version: 1.2.0 Build 709)  -->
  <g>
    <g id="_图层_1" data-name="图层_1">
      <g>
        <path class="cls-2" d="M112,192.9c-6.2-2.9-7.4-2.8-12.8-.7-8.7,3.4-15.6,2.2-22.2-1.1-4.9-3.5-5.7-3.4-23.1-3.2-9.6,0-18.2.4-18.5-1-.4-1-.9-2-.8-3.6-.2-4.9-2-4.2,70.2-4.1,76.7.1,84.3-.6,85.3,1.5,1.4,2.6,1.4,3,.2,4.9-1.3,1.9-3.2,2.4-9.5,2.3-5.8-.7-9.2-1-14.3,2.4-7.4,2.6-8.4,2.6-16.3,1.6-7.7-2.1-10-1.9-14.9.3-8.1,3.9-15.7,3.8-23.2.8"/>
        <path class="cls-2" d="M106.4,154.4l1-21-4.6-4.9c-6.3-7.2-7.4-8-11.6-3.2-6.4,6.2-10.9,6.7-16.4,2.5-4-2.7-5.4-2.7-7.5,0-.4.5-2.1,2-3.7,2.7-7.8,3.1-16.4-1.7-19-11.2,0-2.5-1.4-4.6-3.4-5.9-4.1-2.8-7.1-8.9-7.2-15.5.5-7,2.8-11.9,7.8-16.5,4-3.2,4.3-3.4,3.3-8-.3-4,.5-5.8,1.8-9.5,2-4.8,8.5-10,11.9-10,1,.2,3.3-1.8,4.8-4.6,3.5-4.9,6.6-7.1,11.6-8.3,1.8,0,4.4-1.9,5.9-4,4.2-4.2,9-5.9,15.7-5,4.2,1.1,6,1,9-1.2,5.2-2.7,11.5-2.7,16.5,0,2,1.8,4.7,2.2,6.5,1.2,5.6-1,10.6.4,15,4.5,2.4,3.3,4.3,4.4,6.7,3.9,6.1,0,12.3,4.3,14.5,9.8.2,1.6,2,3.5,4.1,4.1,4.3,2.1,7.9,6.8,8.9,12,.4,2.3,1,4.3,1.4,4.3.1.1,1.8,1.2,3.6,2.6,5.6,4,8.3,12.9,5.4,21-1.1,2.8-.7,4.3.9,6.4,2.1,4,2,11.6,0,15.7-5.5,12.6-18.8,18-27.7,10-3.8-4.9-5.2-4.8-8.3-.9-2.3,2.6-7.6,4.5-11.1,3.8-2-.1-5.6-2.1-8.1-4.6l-5.4-4.7-5.5,5.5-5.2,5.7.6,18.9c.5,10.8,1,20.8,1,22l.4,4-14.5.3.8-21.9"/>
        <path class="cls-1" d="M55.4,121.6c-1.7-1.3-2.7-3.1-3-6-.5-3.1-1.8-5-5.6-8.1-4.4-4.2-4.6-4.9-4.4-9.1.1-5.4,1.9-9.1,6-11.9,4.2-2.7,5.7-6.4,4.9-11.8-.2-3.4,0-5.6.8-8.3,2.1-3.6,3.5-4.4,8.8-5.2,2.6-.6,3.9-1.5,5.2-3.8,3.2-5.8,5.8-8.1,9.9-8.8,3.3-.2,5.4-1.4,8-4.6,4.1-4.3,5.4-4.7,13.4-3,3.6.8,5,.4,7.2-1.4,4.6-3.4,7-3.5,13-.6,4.8,2.4,5.5,2.6,8.7,1.4,5-1.4,7.6-.5,11.7,4.3,2.9,3.1,4.1,3.5,7.9,3.5,5.4,0,8.4,1.7,10.1,6.3.5,2.2,2.6,4.4,4.1,5.1,5.8,3.1,7.6,5.1,8,8.6.9,5.2,2.3,7.5,6.2,9.9,2.2,1.3,4.1,3.8,4.6,5.9,1.5,3.3,1.2,4.1-.1,8.5-1.6,4.9-1.4,5.4.2,9.4,3.2,7.1,2.3,12.4-3.7,17.6-4,3.1-6.7,3-10.6-.4-3.8-4.8-7.8-6.3-11.8-4.8-1.7.7-4.1,2.5-5,4.1-3.6,3.6-6.6,3-12-2-6.1-5.9-10-6.1-16.2-.6l-4.3,4.2-1.3-4.1c-.7-3.2-1-3.5-3.9-3.7-3.4-.6-4.7.6-4.7,4.4-.1,2.7-.3,2.7-4.3-.2-6.1-4.8-9.2-4.4-16.6,2.2-2.1,2.3-4.2,3.8-4.7,3.9-.8-.2-2.7-1.6-5.1-3.1-5.2-3.9-8.2-3.7-13.3.5-2.1,1.8-4.4,3.4-4.8,3.3-.7,0-2-.9-3.2-2.1"/>
        <path class="cls-1" d="M113.5,184.5c-4.6-2.3-11.4-2.5-17-.3-6.4,2-10.9,1.6-17.9-1.8-5.1-2.6-7.6-3.2-15.7-3.7l-9.7-.6,3.4-1.5c2.6-1.3,6.2-2.1,11.3-2.3,4.9.2,9.5-.3,12.9-1.7,3.9-1.4,8-2,14.8-2.2,9.7,0,9.7,0,9.4,2.4.2,2.9.5,2.9,7.3,2.3,7.1.5,7.1.4,7.5-2.2l-.3-2.4h10.9c8.2-.2,12,.4,16,2.1,3.9,1.3,8.4,1.8,13.3,1.5,4.8.2,8.4.8,11.4,2.2l3.2,1.7-4,1.3c-2.4.6-6.2,2-8.4,3.1-4,1.4-4.6,1.6-10.2.6-7.3-2.3-13.7-1.9-19.2,1.2-5.2,2.7-13.6,2.7-19.2,0"/>
      </g>
    </g>
  </g>
</svg>