<?xml version="1.0" encoding="UTF-8"?>
<svg xmlns="http://www.w3.org/2000/svg" version="1.1" viewBox="0 0 224 224">
  <defs>
    <style>
      .cls-1 {
        fill: #bfd26e;
      }

      .cls-2 {
        fill: #27284d;
      }
    </style>
  </defs>
  <!-- Generator: Adobe Illustrator 28.6.0, SVG Export Plug-In . SVG Version: 1.2.0 Build 709)  -->
  <g>
    <g id="_图层_1" data-name="图层_1">
      <g>
        <path class="cls-2" d="M104.1,193c-31.2-12.9-53.5-40.9-63.5-79.9-3.8-15.1-5.1-25.1-6-49.3v-23.1s2.4-2.4,2.4-2.4c2.2-2.9,2.8-3.2,14.9-4.8,28.4-4.1,36.2-5,60.9-5.5,21,.5,25.8.9,40.6,2.9,23.1,3,29.5,4.2,32,5.9,3.7,2.5,3.9,6.1,3.6,27.9-.8,28.6-3.3,43-10.1,61.5-11.7,31.4-28.8,51.8-53.5,64-10.6,5.4-14.7,5.8-21.3,2.8"/>
        <path class="cls-1" d="M102.4,184.1c-32.9-16.5-53.1-48.9-58.6-95-.5-4.2-.9-16.5-1.1-27.4l-.2-19.2,9.1-1.5c29.8-4.9,58.3-6.7,79.3-4.9,13.1.9,31.7,3.2,43.6,5.3l6.2,1.1.2,15.3c.4,26.7-1.8,45-7.8,62.9-7.9,23.7-20.4,41.8-37.8,54.6-7.4,5.6-20.5,12.3-23.7,12.4-1.4,0-5.5-1.8-9.3-3.7"/>
        <path class="cls-2" d="M106.3,174.7c-12.9-5.1-29.9-20.3-37.6-33.6-10.6-17.7-16-38.5-17.9-69.7-.8-11.7-.6-12.3,10.4-14.3,34-6.9,58.4-7.6,90.5-2q21.1,3.5,20.7,12.6c0,30-7.4,58.1-20.6,77.6-7.1,10.8-20.3,22.3-31.9,28-6.7,3.7-8.2,4-13.7,1.3"/>
        <path class="cls-1" d="M102,163.9c-7.3-4-19.5-15.5-24.2-22.7-8.2-12.2-13.4-26.3-16.5-44.4-1.5-8.7-3.3-30.2-2.7-31.2.5-1,26.9-5.1,43.3-6.5l5.9-.4v33.3c-.1,0-6.7-.3-6.7-.3-6.9-.2-8.7.8-8.5,3.7,0,3,3,4.4,9.1,4.2h6c0,.1,0,33.9,0,33.9.2,18.5,0,33.6,0,33.6-.7,0-3.2-1.6-5.8-3.1"/>
        <path class="cls-1" d="M116,133.6v-33.8s5.6-.2,5.6-.2c5.8.4,8.8-1.1,8.8-4.2-.2-2.9-1.6-3.9-8-3.9l-6.2.2v-16.7c-.3-8.9-.3-16.4.3-16.1,5.9-.2,42.4,4.8,47.2,6.4,1.4.3,1.5,1.2,1,7.5-1.2,21.3-3.7,34.6-8.6,48.2-7.3,19.6-19.3,34.2-37,44.6l-3.1,2.2v-34.1"/>
      </g>
    </g>
  </g>
</svg>