<?xml version="1.0" ?>
<svg xmlns="http://www.w3.org/2000/svg" version="1.1" width="224" height="224">
  <defs/>
  <g>
    <path d="M 107.48302459716797 28.0 C 107.48302459716797 28.0 107.48302459716797 28.0 107.48302459716797 28.0 C 118.15263366699219 28.394142150878906 127.75057983398438 34.469696044921875 131.6366424560547 44.645477294921875 C 132.77755737304688 47.63156509399414 133.21231079101562 50.67119216918945 133.32952880859375 53.84650802612305 C 133.32952880859375 66.76930236816406 133.32952880859375 79.69209289550781 133.32952880859375 92.61396789550781 C 133.57138061523438 94.40746307373047 133.8898162841797 95.84558868408203 135.22457885742188 97.18032836914062 C 138.17189025878906 100.12764739990234 143.2662353515625 99.47412109375 145.36895751953125 95.87235260009766 C 147.180908203125 92.76719665527344 145.76495361328125 89.18480682373047 149.4534912109375 87.0350112915039 C 153.05064392089844 84.93875122070312 157.849609375 86.86516571044922 158.94158935546875 90.90077209472656 C 159.40773010253906 92.62226867675781 159.1529541015625 94.57914733886719 158.822509765625 96.29695892333984 C 156.29794311523438 109.42743682861328 140.8367462158203 116.1574478149414 129.50900268554688 109.04898834228516 C 123.70112609863281 105.4038314819336 120.72242736816406 99.32735443115234 120.40213012695312 92.6176528930664 C 120.40213012695312 79.69393920898438 120.40213012695312 66.77022552490234 120.40213012695312 53.84650802612305 C 120.16859436035156 50.664730072021484 119.37014770507812 47.832794189453125 117.22957611083984 45.371925354003906 C 111.67554473876953 38.98898696899414 101.25054931640625 39.721893310546875 96.63987731933594 46.81466293334961 C 95.21652221679688 49.0023078918457 94.74299621582031 51.289642333984375 94.55469512939453 53.84650802612305 C 94.55469512939453 56.00092315673828 94.55469512939453 58.15533447265625 94.55469512939453 60.3088264465332 C 96.7091064453125 60.3088264465332 98.86260223388672 60.3088264465332 101.01701354980469 60.3088264465332 C 104.89385223388672 60.830352783203125 106.95780181884766 62.89338684082031 107.47933197021484 66.77022552490234 C 107.47933197021484 77.03184509277344 107.47933197021484 87.29346466064453 107.47933197021484 97.55508422851562 C 111.55924224853516 105.71583557128906 115.64007568359375 113.87657165527344 119.72090911865234 122.03732299804688 C 120.05782318115234 122.96591186523438 120.28766632080078 123.94065856933594 120.40213012695312 124.92279052734375 C 120.40213012695312 133.53860473632812 120.40213012695312 142.1544189453125 120.40213012695312 150.77023315429688 C 120.16120910644531 152.56280517578125 119.84552764892578 154.00369262695312 118.50985717773438 155.33935546875 C 115.5653076171875 158.28390502929688 110.46080017089844 157.63223266601562 108.36177825927734 154.03138732910156 C 107.58547973632812 152.6994171142578 107.68055725097656 152.2711181640625 107.47933197021484 150.77023315429688 C 107.47933197021484 142.66302490234375 107.47933197021484 134.55490112304688 107.47933197021484 126.44768524169922 C 103.39757537841797 118.28785705566406 99.31674194335938 110.12712097167969 95.23590850830078 101.96636962890625 C 94.90084075927734 101.03685760498047 94.67192077636719 100.0621109008789 94.55838775634766 99.07997131347656 C 94.55838775634766 120.61766052246094 94.55838775634766 142.15626525878906 94.55838775634766 163.69393920898438 C 94.31746673583984 165.48651123046875 94.00178527832031 166.9274139404297 92.6661148071289 168.2630615234375 C 89.72157287597656 171.20761108398438 84.6170654296875 170.55593872070312 82.51803588867188 166.95510864257812 C 81.74174499511719 165.6231231689453 81.83682250976562 165.19483947753906 81.63558959960938 163.69393920898438 C 81.63558959960938 142.15626525878906 81.63558959960938 120.61766052246094 81.63558959960938 99.07997131347656 C 81.52021026611328 100.06303405761719 81.29036712646484 101.03962707519531 80.95437622070312 101.9700698852539 C 76.87355041503906 110.1298828125 72.79270935058594 118.28878021240234 68.71095275878906 126.44768524169922 C 68.71095275878906 143.16976928710938 68.71095275878906 159.89187622070312 68.71095275878906 176.61395263671875 C 69.23432922363281 180.48619079589844 71.3010482788086 182.55291748046875 75.17327117919922 183.07534790039062 C 83.7890853881836 183.07534790039062 92.40489196777344 183.07534790039062 101.02070617675781 183.07534790039062 C 103.3634262084961 182.75967407226562 105.33415222167969 182.037841796875 106.5987319946289 179.87142944335938 C 107.54763793945312 178.24501037597656 107.24395751953125 176.63058471679688 107.71379089355469 174.89614868164062 C 108.63591766357422 171.4882354736328 112.27461242675781 169.46673583984375 115.6622314453125 170.38333129882812 C 121.68148803710938 172.01254272460938 120.82395935058594 179.25946044921875 119.0479965209961 183.7408905029297 C 116.04806518554688 191.31362915039062 108.95160675048828 195.62155151367188 101.02070617675781 196.0 C 92.40489196777344 196.0 83.7890853881836 196.0 75.17327117919922 196.0 C 64.24520874023438 195.47848510742188 56.30876159667969 187.54202270507812 55.787235260009766 176.61395263671875 C 55.787235260009766 159.38327026367188 55.787235260009766 142.1534881591797 55.787235260009766 124.92279052734375 C 55.902618408203125 123.93973541259766 56.13246154785156 122.96406555175781 56.46937561035156 122.03363037109375 C 60.550209045410156 113.8738021850586 64.63104248046875 105.7139892578125 68.71095275878906 97.55508422851562 C 68.71095275878906 87.29346466064453 68.71095275878906 77.03184509277344 68.71095275878906 66.77022552490234 C 69.23248291015625 62.89338684082031 71.29643249511719 60.830352783203125 75.17327117919922 60.3088264465332 C 77.32768249511719 60.3088264465332 79.4811782836914 60.3088264465332 81.63558959960938 60.3088264465332 C 81.63558959960938 58.15533447265625 81.63558959960938 56.00092315673828 81.63558959960938 53.84650802612305 C 82.02881622314453 43.17689514160156 88.10437774658203 33.578948974609375 98.28106689453125 29.692886352539062 C 101.26715850830078 28.551986694335938 104.3067855834961 28.117225646972656 107.48302459716797 28.0 C 107.48302459716797 28.0 107.48302459716797 28.0 107.48302459716797 28.0" stroke-width="0.0" fill="rgb(76, 76, 76)" opacity="1.0" stroke="rgb(0, 0, 0)" stroke-opacity="1.0" stroke-linecap="round" stroke-linejoin="round"/>
    <path d="M 150.23532104492188 47.8798713684082 C 150.23532104492188 47.8798713684082 150.23532104492188 47.8798713684082 150.23532104492188 47.8798713684082 C 148.38551330566406 48.91923141479492 146.953857421875 50.153358459472656 146.4323272705078 52.31884765625 C 146.2578582763672 53.04437255859375 146.4997100830078 53.912967681884766 146.077880859375 54.52864456176758 C 145.25357055664062 55.72861862182617 143.98068237304688 56.68121337890625 143.06500244140625 57.81842041015625 C 140.98721313476562 60.39836502075195 139.8896942138672 63.35860824584961 139.7872314453125 66.67791748046875 C 139.5010986328125 75.93156433105469 149.44886779785156 82.15573120117188 157.78778076171875 78.69426727294922 C 158.81051635742188 78.26966857910156 159.77696228027344 77.70936584472656 160.65476989746094 77.03553771972656 C 168.2127685546875 71.22766876220703 165.8118896484375 61.062965393066406 161.23538208007812 54.1806526184082 C 158.55667114257812 50.151512145996094 155.529052734375 46.39374923706055 150.23532104492188 47.8798713684082 C 150.23532104492188 47.8798713684082 150.23532104492188 47.8798713684082 150.23532104492188 47.8798713684082" stroke-width="0.0" fill="rgb(76, 76, 76)" opacity="1.0" stroke="rgb(0, 0, 0)" stroke-opacity="1.0" stroke-linecap="round" stroke-linejoin="round"/>
  </g>
</svg>
