<?xml version="1.0" ?>
<svg xmlns="http://www.w3.org/2000/svg" version="1.1" width="224" height="224">
  <defs/>
  <g>
    <path d="M 57.218360900878906 194.58688354492188 C 54.95199966430664 194.22467041015625 52.91450500488281 192.54025268554688 52.33200454711914 190.4732666015625 C 48.950157165527344 187.71728515625 47.26374816894531 185.86216735839844 47.62553405761719 169.07443237304688 C 49.568267822265625 158.90631103515625 49.073326110839844 145.49684143066406 49.308258056640625 138.9184112548828 C 51.78142547607422 117.8487319946289 54.31192398071289 94.31399536132812 55.62406921386719 90.07600402832031 C 55.96919631958008 88.00692749023438 56.421939849853516 83.550537109375 56.41102600097656 79.97798156738281 C 57.131649017333984 75.4117202758789 57.774269104003906 70.06266784667969 57.65815353393555 66.23916625976562 C 60.99025344848633 58.151546478271484 70.77093505859375 48.878692626953125 80.70673370361328 45.77217102050781 C 86.3819351196289 42.81719970703125 88.24209594726562 41.587928771972656 112.0287094116211 43.05973815917969 C 127.71527862548828 43.07964324951172 139.76620483398438 42.67060089111328 141.34744262695312 44.43467712402344 C 149.28582763671875 45.95915985107422 158.5999298095703 53.11693572998047 162.0928192138672 61.60713577270508 C 165.5782012939453 68.07134246826172 166.35552978515625 67.97378540039062 168.23757934570312 85.59007263183594 C 166.65370178222656 96.15322875976562 167.65267944335938 106.53118896484375 168.70973205566406 109.03236389160156 C 170.72824096679688 113.2966079711914 171.5254669189453 122.05038452148438 173.00611877441406 136.8117218017578 C 173.261474609375 140.67074584960938 176.1588134765625 152.33575439453125 175.71217346191406 165.81329345703125 L 175.40945434570312 188.756591796875 L 172.3076171875 192.0315704345703 L 165.38363647460938 195.27459716796875 L 113.59236145019531 195.5912322998047 C 83.85457611083984 195.30270385742188 57.43965530395508 196.0 57.218360900878906 194.58688354492188" stroke-width="0.0" fill="rgb(55, 54, 54)" opacity="0.9944947"/>
    <path d="M 47.056175231933594 192.33139038085938 C 41.72728729248047 189.75436401367188 41.215538024902344 187.02581787109375 42.27979278564453 130.023681640625 C 42.759178161621094 72.86384582519531 42.95903778076172 69.45840454101562 48.54603576660156 57.37257385253906 C 54.558990478515625 45.22718048095703 68.76409912109375 34.3250732421875 83.31077575683594 29.870216369628906 C 92.47396850585938 28.00000762939453 131.88665771484375 28.004684448242188 140.96986389160156 30.392807006835938 C 158.53909301757812 35.30694580078125 172.47140502929688 47.38330078125 178.32826232910156 64.78572845458984 C 180.82614135742188 71.23234558105469 181.00205993652344 74.43771362304688 181.7737274169922 126.23104095458984 C 182.54592895507812 156.3351287841797 182.78445434570312 182.87225341796875 182.31292724609375 185.31103515625 C 180.82778930664062 190.0256805419922 176.57838439941406 193.98944091796875 172.2317352294922 193.70635986328125 L 169.28285217285156 193.5101776123047 L 172.47952270507812 190.52920532226562 C 173.4351806640625 188.38995361328125 175.24398803710938 185.81875610351562 175.5598602294922 183.6586456298828 C 175.62066650390625 179.5775604248047 175.1685333251953 150.7583770751953 174.87008666992188 146.7230224609375 C 173.67791748046875 144.9986114501953 173.24813842773438 142.78712463378906 172.8419189453125 141.7382354736328 C 172.4247589111328 140.21815490722656 172.32022094726562 139.41217041015625 173.0886688232422 138.51405334472656 C 172.91363525390625 138.53973388671875 172.32125854492188 138.3468017578125 171.79942321777344 137.43605041503906 C 171.74717712402344 137.52090454101562 171.51358032226562 136.61273193359375 171.6544952392578 136.19505310058594 C 171.21713256835938 135.98080444335938 171.026123046875 135.5674591064453 170.90953063964844 134.65330505371094 C 170.23756408691406 132.24920654296875 167.161376953125 126.96525573730469 166.698974609375 127.03423309326172 C 166.94219970703125 126.42813873291016 165.98570251464844 125.67914581298828 165.46319580078125 125.18574523925781 C 165.7942657470703 123.86681365966797 165.20623779296875 123.38121032714844 164.73243713378906 123.0108871459961 C 162.64385986328125 123.32492065429688 162.317626953125 120.14173126220703 165.56240844726562 115.99073791503906 C 168.03179931640625 112.21915435791016 167.94581604003906 109.87911987304688 167.24879455566406 92.7572021484375 C 167.8065948486328 68.73550415039062 166.249755859375 64.18649291992188 155.2518310546875 53.36351013183594 C 152.914306640625 50.621910095214844 148.66268920898438 47.53716278076172 145.21910095214844 46.415321350097656 C 140.8514404296875 43.912933349609375 139.48626708984375 43.04014587402344 112.65612030029297 42.934974670410156 C 85.74553680419922 43.24736785888672 83.50914001464844 43.683128356933594 79.73350524902344 45.6702880859375 C 69.12835693359375 49.37451171875 59.910133361816406 61.99634552001953 58.06488800048828 71.93161010742188 C 56.901123046875 73.11192321777344 56.118988037109375 83.13406372070312 56.64603805541992 93.76060485839844 C 56.47091293334961 112.77976989746094 56.40232849121094 113.30502319335938 58.81302261352539 116.4365005493164 L 61.92870330810547 119.75115203857422 L 58.89131546020508 124.61624908447266 C 51.39069366455078 137.2020721435547 48.33330535888672 147.13792419433594 48.94685363769531 167.011962890625 C 48.82830047607422 183.07679748535156 49.624671936035156 186.15432739257812 53.16569900512695 191.05569458007812 L 55.69794845581055 193.87518310546875 L 51.882476806640625 194.08157348632812 C 50.092613220214844 193.58016967773438 47.78700256347656 192.9833984375 47.056175231933594 192.33139038085938" stroke-width="1.0" fill="rgb(255, 255, 255)" opacity="0.97266257"/>
    <path d="M 77.23513793945312 177.5372314453125 C 95.41102600097656 176.30245971679688 97.40386199951172 174.14349365234375 97.39878845214844 155.7942352294922 C 96.7919692993164 136.11227416992188 101.75749969482422 127.24601745605469 111.79419708251953 127.39945983886719 C 122.0751953125 126.80867767333984 127.6140365600586 136.29934692382812 126.976318359375 155.77662658691406 C 126.67649841308594 167.63900756835938 127.47110748291016 170.31491088867188 131.92295837402344 174.22216796875 C 133.72909545898438 176.3687744140625 136.43084716796875 176.54931640625 146.430908203125 176.85452270507812 C 153.5631866455078 177.77694702148438 138.22764587402344 178.54310607910156 112.36747741699219 178.7318115234375 C 87.38557434082031 178.715576171875 70.9705581665039 177.9722900390625 77.23513793945312 177.5372314453125" stroke-width="1.0" fill="rgb(254, 254, 254)" opacity="0.9978033"/>
    <path d="M 66.22029113769531 156.35829162597656 C 66.75513458251953 142.83810424804688 73.19325256347656 129.74786376953125 82.92574310302734 123.66744995117188 C 88.53678894042969 119.5550537109375 90.27777099609375 119.64389038085938 88.1903076171875 123.86125183105469 C 83.62501525878906 130.0063018798828 80.43939971923828 140.73263549804688 80.36408233642578 151.36607360839844 L 80.51496887207031 161.15625 L 66.26103210449219 160.91282653808594 L 66.22029113769531 156.35829162597656" stroke-width="1.0" fill="rgb(253, 254, 254)" opacity="0.99670523"/>
    <path d="M 145.01260375976562 160.63681030273438 C 144.4903564453125 160.32176208496094 144.158447265625 156.17388916015625 143.89015197753906 151.49822998046875 C 144.20376586914062 142.31204223632812 141.85467529296875 132.9833221435547 137.611083984375 125.3115234375 C 134.06121826171875 120.1591567993164 135.14605712890625 119.65126037597656 140.6680908203125 123.30652618408203 C 150.5227508544922 128.95223999023438 157.62704467773438 142.36517333984375 158.3806915283203 155.78842163085938 L 158.29420471191406 160.73886108398438 L 152.67518615722656 160.85842895507812 C 148.68869018554688 161.29298400878906 145.7091064453125 161.23492431640625 145.01260375976562 160.63681030273438" stroke-width="1.0" fill="rgb(253, 253, 253)" opacity="0.9950165"/>
    <path d="M 73.39572143554688 92.67047119140625 C 73.22714233398438 75.15594482421875 73.71063232421875 73.93977355957031 75.90943145751953 69.17813110351562 C 81.78240203857422 60.82960891723633 84.85752868652344 58.625282287597656 111.9712142944336 59.219051361083984 C 137.25146484375 58.60185623168945 139.7080841064453 59.844844818115234 145.59091186523438 66.28523254394531 C 150.2534942626953 71.91276550292969 151.23794555664062 76.61473083496094 150.4401092529297 94.45059204101562 C 150.56723022460938 108.69337463378906 151.001708984375 110.05207061767578 148.53665161132812 108.90998077392578 C 145.1780548095703 108.25092315673828 144.30116271972656 106.24091339111328 144.60733032226562 98.1849594116211 C 144.4290771484375 87.59254455566406 142.5640106201172 83.24959564208984 138.16793823242188 78.97566223144531 C 134.42062377929688 74.64541625976562 131.09988403320312 73.78013610839844 112.0484390258789 74.24452209472656 C 92.45494842529297 73.61637878417969 89.74372863769531 74.58992767333984 84.75479125976562 79.92841339111328 C 82.62985229492188 82.94660949707031 80.08018493652344 87.7180404663086 80.21826171875 89.62203979492188 C 79.67452239990234 89.59992980957031 79.71578979492188 93.71966552734375 79.8310546875 99.14427185058594 C 79.92284393310547 106.00403594970703 79.45648193359375 107.96302032470703 77.62743377685547 108.02925872802734 C 76.279052734375 108.0721435546875 75.61846923828125 108.96221923828125 74.27552795410156 110.30580139160156 C 73.38525390625 109.0965347290039 73.79315185546875 102.10689544677734 73.39572143554688 92.67047119140625" stroke-width="1.0" fill="rgb(254, 255, 255)" opacity="1.0"/>
    <path d="M 96.4389419555664 98.52166748046875 C 95.64378356933594 96.72859191894531 96.68209075927734 93.31134796142578 98.43001556396484 91.02608489990234 C 99.49405670166016 89.86328125 104.00716400146484 89.61354064941406 112.61358642578125 89.84447479248047 C 124.95799255371094 89.69841766357422 125.15032958984375 89.87651824951172 126.92758178710938 92.83819580078125 C 130.16180419921875 98.30592346191406 128.87635803222656 99.78048706054688 121.8398208618164 98.27547454833984 C 115.17346954345703 97.04083251953125 100.7944564819336 97.83987426757812 98.39033508300781 99.25030517578125 C 97.09200286865234 99.4837875366211 96.43624877929688 99.39098358154297 96.4389419555664 98.52166748046875" stroke-width="1.0" fill="rgb(253, 253, 253)" opacity="0.9950569"/>
    <path d="M 65.22628021240234 179.4540557861328 C 65.33528137207031 176.57321166992188 66.57080841064453 176.24940490722656 76.20243835449219 176.6802520751953 L 87.42047119140625 176.44308471679688 L 76.19219970703125 178.203125 C 70.49058532714844 177.64102172851562 86.55412292480469 177.97564697265625 112.58314514160156 177.86358642578125 C 138.1718292236328 178.42214965820312 153.96896362304688 177.40701293945312 147.92880249023438 177.49989318847656 L 135.20452880859375 176.7487335205078 L 147.67054748535156 176.3662567138672 C 157.29934692382812 176.3670654296875 160.19606018066406 176.47840881347656 159.2721405029297 179.1160430908203 C 159.0653839111328 180.7099609375 148.62828063964844 180.41781616210938 112.36561584472656 180.16197204589844 C 70.88726806640625 180.29344177246094 65.41180419921875 180.8218536376953 65.22628021240234 179.4540557861328" stroke-width="1.0" fill="rgb(242, 244, 243)" opacity="1.0"/>
  </g>
</svg>
