<?xml version="1.0" ?>
<svg xmlns="http://www.w3.org/2000/svg" version="1.1" width="224" height="224">
  <defs/>
  <g>
    <path d="M 98.19758605957031 194.1142578125 C 90.74150085449219 193.88619995117188 88.72419738769531 193.5872039794922 79.19361877441406 182.46124267578125 C 73.88459014892578 175.9325408935547 68.11280059814453 169.74896240234375 65.31328582763672 168.51486206054688 C 60.563140869140625 162.9718475341797 51.107425689697266 151.43560791015625 50.72215270996094 147.73118591308594 C 44.328643798828125 135.86622619628906 43.983070373535156 131.8788299560547 42.726356506347656 117.29203796386719 C 41.97930908203125 102.67378234863281 43.67420959472656 93.5004653930664 46.46000671386719 87.74820709228516 C 46.45965576171875 85.23111724853516 48.487972259521484 81.3845443725586 48.48650360107422 79.69352722167969 C 50.19647216796875 73.26165771484375 58.94499206542969 61.91193771362305 65.3477783203125 56.73258590698242 C 71.44534301757812 51.767494201660156 82.43196868896484 46.50279998779297 92.83985900878906 43.47007751464844 C 103.31317901611328 39.969215393066406 119.69934844970703 39.78534698486328 127.73611450195312 41.932716369628906 C 138.0139923095703 43.39044952392578 150.80435180664062 51.41564178466797 158.44900512695312 57.66570281982422 C 164.5621337890625 63.28531265258789 175.612548828125 77.69757080078125 175.78697204589844 80.05679321289062 C 176.05078125 81.73098754882812 176.7579345703125 83.46151733398438 178.58621215820312 83.205322265625 C 181.73269653320312 88.65176391601562 182.55096435546875 96.48017883300781 182.83056640625 111.81970977783203 C 183.12896728515625 123.81658172607422 182.496826171875 128.1134033203125 180.67276000976562 134.29237365722656 C 176.55441284179688 147.7434844970703 173.17300415039062 153.60382080078125 156.41302490234375 171.97125244140625 C 149.844482421875 177.58331298828125 142.87637329101562 184.74392700195312 140.6187744140625 187.36013793945312 C 132.97116088867188 194.62646484375 130.88589477539062 194.78396606445312 114.80274200439453 195.27529907226562 C 106.79662322998047 196.0 99.24707794189453 195.75238037109375 98.19758605957031 194.1142578125" stroke-width="0.0" fill="rgb(251, 252, 252)" opacity="0.9966906"/>
    <path d="M 74.5256118774414 186.91336059570312 C 57.889991760253906 178.34425354003906 45.66321563720703 166.04620361328125 37.291290283203125 149.2689208984375 C 31.06609344482422 135.1776885986328 29.326858520507812 127.41426849365234 28.96471405029297 111.88312530517578 C 29.60845947265625 102.03575134277344 30.08477783203125 96.73646545410156 31.52252197265625 90.62464141845703 C 38.19348907470703 64.7523193359375 56.54202651977539 43.597869873046875 79.95488739013672 34.32390594482422 C 91.98136901855469 29.680648803710938 97.4466552734375 28.48932647705078 112.36112213134766 28.0 C 124.37725067138672 28.646499633789062 127.27207946777344 29.20989227294922 134.97186279296875 31.26354217529297 C 158.82144165039062 38.583335876464844 176.5908660888672 53.63473129272461 187.1502227783203 75.33401489257812 C 192.32070922851562 87.2418212890625 193.9084930419922 93.7575454711914 195.0352783203125 108.0345230102539 C 194.93936157226562 117.88088989257812 194.73818969726562 122.87867736816406 193.5712890625 129.087646484375 C 188.34280395507812 155.17283630371094 171.35159301757812 176.7183380126953 147.01287841796875 188.14462280273438 C 138.33157348632812 191.96609497070312 134.29217529296875 192.00738525390625 131.51193237304688 188.484375 C 130.56964111328125 185.79466247558594 131.0989990234375 181.919677734375 132.8834228515625 180.33242797851562 C 133.7470703125 179.9874267578125 138.42453002929688 178.00164794921875 143.2643280029297 175.8897247314453 C 168.22821044921875 163.6881561279297 183.87319946289062 136.81564331054688 182.17974853515625 109.01907348632812 C 179.77902221679688 70.50524139404297 152.42556762695312 42.942527770996094 115.24757385253906 40.42738342285156 C 102.14311218261719 39.65751647949219 92.60247802734375 41.61846923828125 81.0431137084961 47.61518859863281 C 62.12547302246094 57.30460739135742 50.25739669799805 71.8603515625 44.15669250488281 93.10041809082031 C 41.02239227294922 102.92237091064453 40.74950408935547 120.1708984375 43.50170135498047 129.95835876464844 C 48.79628372192383 151.17514038085938 64.04170227050781 168.93887329101562 85.73066711425781 177.96438598632812 C 92.30111694335938 180.71609497070312 93.14674377441406 181.79879760742188 93.04673767089844 186.28646850585938 C 92.31684112548828 188.69900512695312 88.61984252929688 191.531005859375 85.76734924316406 191.1322021484375 C 84.51002502441406 190.86805725097656 79.43009948730469 189.11465454101562 74.5256118774414 186.91336059570312" stroke-width="1.0" fill="rgb(42, 45, 51)" opacity="0.9924653"/>
    <path d="M 108.45679473876953 188.75515747070312 C 107.70303344726562 187.75843811035156 107.43199920654297 181.33328247070312 107.5035400390625 174.23548889160156 C 107.70565795898438 163.90245056152344 107.70604705810547 161.48095703125 106.8135757446289 160.67120361328125 C 105.40301513671875 160.8158721923828 101.30111694335938 161.41342163085938 97.41903686523438 162.46131896972656 C 88.53509521484375 164.852783203125 86.57119750976562 164.29684448242188 86.93301391601562 160.1265869140625 L 87.58283233642578 157.01101684570312 L 79.16419219970703 157.0856170654297 C 71.62689208984375 157.39315795898438 71.29242706298828 156.82516479492188 70.45481872558594 153.760986328125 C 70.66669464111328 152.24346923828125 71.46138763427734 150.3330078125 72.94773864746094 148.279296875 C 77.99960327148438 144.09925842285156 77.22813415527344 142.59698486328125 67.28445434570312 134.17835998535156 C 62.22758483886719 129.923583984375 56.766815185546875 125.0308609008789 54.4002571105957 123.5735855102539 C 48.429813385009766 118.62001037597656 49.62041091918945 113.60220336914062 57.63498306274414 112.83172607421875 C 64.98179626464844 112.39533996582031 65.20948028564453 111.06918334960938 59.542945861816406 98.2713623046875 C 54.3580436706543 86.14349365234375 54.23428726196289 84.32118225097656 56.5694694519043 82.56515502929688 C 57.877559661865234 80.24969482421875 61.28728485107422 80.50715637207031 67.07218933105469 82.72101593017578 L 72.28184509277344 85.00344848632812 L 74.40916442871094 83.04415130615234 C 75.56607055664062 81.89268493652344 77.08128356933594 80.83673095703125 77.48956298828125 80.98223876953125 C 78.74727630615234 80.78108215332031 82.16425323486328 84.31745910644531 85.71749877929688 88.85992431640625 C 95.63758850097656 102.35578918457031 98.50189971923828 99.34451293945312 91.96092224121094 81.46411895751953 C 89.90316772460938 76.02213287353516 88.44905090332031 70.54998779296875 89.23529052734375 69.86546325683594 C 90.29417419433594 67.77340698242188 93.36097717285156 67.01644134521484 95.9454116821289 68.20703125 C 99.5765380859375 70.08647155761719 101.09666442871094 69.51582336425781 101.8238525390625 64.83660888671875 C 103.36570739746094 58.92736053466797 108.34933471679688 49.49150085449219 110.3028335571289 48.95318603515625 C 111.24322509765625 48.61486053466797 112.77530670166016 48.49756622314453 113.3926010131836 49.00218963623047 C 115.36843872070312 49.4091796875 118.93113708496094 56.216026306152344 121.36178588867188 63.80479049682617 C 122.93720245361328 68.92182922363281 123.32269287109375 69.66941833496094 125.94367980957031 69.0565185546875 C 126.89958953857422 68.45135498046875 129.1315155029297 67.88957214355469 130.93392944335938 67.70850372314453 C 135.21807861328125 67.82470703125 135.33731079101562 70.99846649169922 131.0299530029297 83.18782043457031 C 125.47738647460938 99.15298461914062 127.81071472167969 101.5663070678711 136.92453002929688 89.2733154296875 C 143.7089080810547 80.43197631835938 145.65750122070312 79.71894073486328 149.12521362304688 82.99540710449219 L 151.32742309570312 85.04237365722656 L 156.44403076171875 82.85075378417969 C 162.38238525390625 80.52313232421875 166.0085906982422 80.25188446044922 167.19815063476562 82.54586029052734 C 169.4541778564453 84.44859313964844 169.00228881835938 87.5129165649414 164.56307983398438 97.4000015258789 C 158.44361877441406 111.4038314819336 158.64097595214844 112.01646423339844 168.1690673828125 112.99373626708984 C 171.94862365722656 113.43913269042969 173.8727569580078 116.4449462890625 172.79693603515625 119.33970642089844 C 172.81661987304688 120.40250396728516 169.88119506835938 123.34275817871094 166.21510314941406 125.84915161132812 C 157.33872985839844 133.38204956054688 147.3020477294922 142.52049255371094 147.53428649902344 143.55747985839844 C 147.8164520263672 144.31549072265625 148.94989013671875 146.31454467773438 150.90380859375 148.5081787109375 C 152.48756408691406 150.42333984375 153.8568115234375 153.25747680664062 153.8594970703125 154.52105712890625 C 153.29354858398438 156.68826293945312 152.30007934570312 157.15658569335938 145.3910675048828 157.0055389404297 L 137.36270141601562 156.75057983398438 L 137.96401977539062 159.87680053710938 C 137.6198272705078 164.514404296875 135.95863342285156 164.93115234375 127.39546203613281 162.6781463623047 C 115.62071228027344 159.80029296875 116.95722198486328 159.33084106445312 117.12437438964844 173.73268127441406 C 117.2045669555664 187.76956176757812 116.16960906982422 190.54698181152344 111.97940826416016 190.59124755859375 C 110.65088653564453 190.5771484375 109.22184753417969 189.9258575439453 108.45679473876953 188.75515747070312" stroke-width="1.0" fill="rgb(43, 46, 52)" opacity="0.993239"/>
  </g>
</svg>
