<?xml version="1.0" ?>
<svg xmlns="http://www.w3.org/2000/svg" version="1.1" width="224" height="224">
  <defs/>
  <g>
    <path d="M 111.58419799804688 28.412811279296875 C 111.58419799804688 28.412811279296875 111.58419799804688 28.412811279296875 111.58419799804688 28.412811279296875 C 103.80303192138672 33.72222137451172 96.96348571777344 42.098731994628906 94.58043670654297 51.284645080566406 C 93.43325805664062 55.70616912841797 93.20639038085938 60.4688606262207 94.92501831054688 64.77098083496094 C 95.73954772949219 66.80859375 96.93618774414062 68.52466583251953 98.32389068603516 70.20406341552734 C 96.77413940429688 70.20406341552734 95.2243881225586 70.20406341552734 93.67463684082031 70.20406341552734 C 93.67463684082031 88.11532592773438 93.67463684082031 106.02659606933594 93.67463684082031 123.93785858154297 C 91.68478393554688 123.93785858154297 89.6940689086914 123.93785858154297 87.70420837402344 123.93785858154297 C 87.70420837402344 133.8879852294922 87.70420837402344 143.83811950683594 87.70420837402344 153.7882537841797 C 67.80309295654297 153.7899627685547 47.90111541748047 153.7908172607422 27.99999237060547 153.79168701171875 C 27.99999237060547 157.77310180664062 27.99999237060547 161.7528076171875 27.99999237060547 165.73422241210938 C 31.980560302734375 169.71478271484375 35.96112823486328 173.6953582763672 39.941688537597656 177.67591857910156 C 39.941688537597656 183.64634704589844 39.941688537597656 189.61676025390625 39.941688537597656 195.58718872070312 C 87.70591735839844 195.58718872070312 135.46929931640625 195.58718872070312 183.2335205078125 195.58718872070312 C 183.2335205078125 189.61676025390625 183.2335205078125 183.64634704589844 183.2335205078125 177.67591857910156 C 187.21409606933594 173.6953582763672 191.19381713867188 169.71478271484375 195.1743621826172 165.73422241210938 C 195.1743621826172 161.7528076171875 195.1743621826172 157.77310180664062 195.1743621826172 153.79168701171875 C 192.427978515625 153.79168701171875 189.68243408203125 153.79168701171875 186.93603515625 153.79168701171875 C 190.66244506835938 150.30494689941406 193.4446563720703 146.1222381591797 194.58840942382812 141.09002685546875 C 195.36627197265625 137.6647186279297 195.3603057861328 134.0705108642578 194.59524536132812 130.64349365234375 C 193.97943115234375 127.88516235351562 192.8638153076172 125.2445297241211 191.3234405517578 122.8751220703125 C 182.05648803710938 108.62372589111328 160.5194854736328 108.62372589111328 151.25253295898438 122.8751220703125 C 149.39572143554688 125.7306900024414 148.16156005859375 128.9803009033203 147.664306640625 132.35018920898438 C 147.15170288085938 135.81729125976562 147.401611328125 139.38674926757812 148.42767333984375 142.73956298828125 C 149.76333618164062 147.10479736328125 152.34085083007812 150.70411682128906 155.6433563232422 153.79168701171875 C 148.9180908203125 153.79168701171875 142.19198608398438 153.79168701171875 135.46673583984375 153.79168701171875 C 135.46673583984375 143.841552734375 135.46673583984375 133.89141845703125 135.46673583984375 123.94126892089844 C 133.4768829345703 123.94126892089844 131.4861602783203 123.94126892089844 129.49545288085938 123.94126892089844 C 129.49545288085938 106.0291519165039 129.49545288085938 88.11703491210938 129.49545288085938 70.20406341552734 C 127.94485473632812 70.20406341552734 126.39425659179688 70.20406341552734 124.8436508178711 70.20406341552734 C 126.2313461303711 68.52466583251953 127.42884826660156 66.80859375 128.24252319335938 64.77098083496094 C 129.96200561523438 60.4688606262207 129.73428344726562 55.70531463623047 128.5871124267578 51.28379821777344 C 126.20405578613281 42.097869873046875 119.36536407470703 33.72136688232422 111.58419799804688 28.412811279296875 C 111.58419799804688 28.412811279296875 111.58419799804688 28.412811279296875 111.58419799804688 28.412811279296875" stroke-width="0.0" fill="rgb(35, 31, 32)" opacity="1.0"/>
    <path d="M 30.983497619628906 156.77603149414062 C 84.71730041503906 156.77603149414062 138.4510955810547 156.77603149414062 192.1848907470703 156.77603149414062 C 192.1848907470703 159.3492889404297 192.1848907470703 161.92169189453125 192.1848907470703 164.49493408203125 C 188.20516967773438 168.47549438476562 184.22547912597656 172.45606994628906 180.24661254882812 176.43663024902344 C 180.24661254882812 181.82366943359375 180.24661254882812 187.210693359375 180.24661254882812 192.59771728515625 C 134.4730987548828 192.59771728515625 88.69871520996094 192.59771728515625 42.925193786621094 192.59771728515625 C 42.925193786621094 187.210693359375 42.925193786621094 181.82366943359375 42.925193786621094 176.43663024902344 C 38.94463348388672 172.45606994628906 34.96406555175781 168.47549438476562 30.983497619628906 164.49493408203125 C 30.983497619628906 161.92169189453125 30.983497619628906 159.3492889404297 30.983497619628906 156.77603149414062" stroke-width="0.0" fill="rgb(35, 31, 32)" opacity="1.0"/>
    <path d="M 111.58419799804688 32.13921356201172 C 111.58419799804688 32.13921356201172 111.58419799804688 32.13921356201172 111.58419799804688 32.13921356201172 C 115.66114044189453 35.451942443847656 119.33892822265625 39.31053924560547 122.0929946899414 43.8045654296875 C 124.05982208251953 47.01493835449219 125.54986572265625 50.54943084716797 126.17249298095703 54.27668762207031 C 126.58104705810547 56.72028350830078 126.68338775634766 59.25601577758789 126.114501953125 61.68256759643555 C 123.65809631347656 72.17515563964844 110.6528091430664 76.6495590209961 102.2549819946289 69.90724182128906 C 97.46755981445312 66.06315612792969 96.01333618164062 60.151580810546875 96.99504089355469 54.27668762207031 C 97.61767578125 50.54943084716797 99.10772705078125 47.01493835449219 101.07455444335938 43.8045654296875 C 103.8294677734375 39.30968475341797 107.50725555419922 35.451087951660156 111.58419799804688 32.13921356201172 C 111.58419799804688 32.13921356201172 111.58419799804688 32.13921356201172 111.58419799804688 32.13921356201172" stroke-width="0.0" fill="rgb(35, 31, 32)" opacity="1.0"/>
    <path d="M 90.6877212524414 126.9247817993164 C 104.61842346191406 126.9247817993164 118.54911804199219 126.9247817993164 132.47982788085938 126.9247817993164 C 132.47982788085938 136.8749237060547 132.47982788085938 146.82589721679688 132.47982788085938 156.77603149414062 C 152.3809356689453 156.77603149414062 172.2829132080078 156.77603149414062 192.1848907470703 156.77603149414062 C 192.1848907470703 159.3492889404297 192.1848907470703 161.92169189453125 192.1848907470703 164.49493408203125 C 188.20433044433594 168.47549438476562 184.2237548828125 172.45606994628906 180.24319458007812 176.43663024902344 C 134.46966552734375 176.43663024902344 88.69530487060547 176.43663024902344 42.921783447265625 176.43663024902344 C 38.94122314453125 172.45606994628906 34.960655212402344 168.47549438476562 30.980087280273438 164.49493408203125 C 30.981796264648438 161.92169189453125 30.982650756835938 159.3492889404297 30.983497619628906 156.77603149414062 C 50.885475158691406 156.77603149414062 70.7865982055664 156.77603149414062 90.6877212524414 156.77603149414062 C 90.6877212524414 146.82589721679688 90.6877212524414 136.8749237060547 90.6877212524414 126.9247817993164" stroke-width="0.0" fill="rgb(35, 31, 32)" opacity="1.0"/>
    <path d="M 111.58760833740234 36.02851104736328 C 111.58760833740234 36.02851104736328 111.58760833740234 36.02851104736328 111.58760833740234 36.02851104736328 C 117.44459533691406 41.3558349609375 122.71562194824219 48.234619140625 123.44060516357422 56.38850402832031 C 124.0768814086914 63.54448318481445 119.1171646118164 70.20406341552734 111.58419799804688 70.20406341552734 C 104.05123138427734 70.20406341552734 99.09407806396484 63.54277801513672 99.7303466796875 56.38850402832031 C 100.45618438720703 48.23291015625 105.72977447509766 41.3558349609375 111.58760833740234 36.02851104736328 C 111.58760833740234 36.02851104736328 111.58760833740234 36.02851104736328 111.58760833740234 36.02851104736328" stroke-width="0.0" fill="rgb(223, 167, 55)" opacity="1.0"/>
    <path d="M 171.2884063720703 114.98393249511719 C 171.2884063720703 114.98393249511719 171.2884063720703 114.98393249511719 171.2884063720703 114.98393249511719 C 175.22378540039062 115.1434326171875 178.91775512695312 116.01766967773438 182.29617309570312 118.1141357421875 C 184.57174682617188 119.52657318115234 186.5701446533203 121.37825775146484 188.1531524658203 123.5386962890625 C 196.0 134.24623107910156 191.63987731933594 149.97146606445312 179.4226837158203 155.13417053222656 C 176.85455322265625 156.21908569335938 174.0766143798828 156.77603149414062 171.2884063720703 156.77603149414062 C 168.50022888183594 156.77603149414062 165.7222900390625 156.21908569335938 163.15414428710938 155.13417053222656 C 150.93695068359375 149.97146606445312 146.57684326171875 134.24623107910156 154.42367553710938 123.5386962890625 C 156.00669860839844 121.37825775146484 158.0050811767578 119.52657318115234 160.28067016601562 118.1141357421875 C 163.65907287597656 116.01766967773438 167.35305786132812 115.1434326171875 171.2884063720703 114.98393249511719 C 171.2884063720703 114.98393249511719 171.2884063720703 114.98393249511719 171.2884063720703 114.98393249511719" stroke-width="0.0" fill="rgb(35, 30, 31)" opacity="1.0"/>
    <path d="M 96.65899658203125 73.19183349609375 C 106.609130859375 73.19183349609375 116.55841064453125 73.19183349609375 126.50853729248047 73.19183349609375 C 126.50853729248047 91.10309600830078 126.50853729248047 109.01351165771484 126.50853729248047 126.9247817993164 C 116.55841064453125 126.9247817993164 106.609130859375 126.9247817993164 96.65899658203125 126.9247817993164 C 96.65899658203125 109.01351165771484 96.65899658203125 91.10309600830078 96.65899658203125 73.19183349609375" stroke-width="0.0" fill="rgb(35, 31, 32)" opacity="1.0"/>
    <path d="M 93.67463684082031 129.9082794189453 C 105.615478515625 129.9082794189453 117.55547332763672 129.9082794189453 129.49545288085938 129.9082794189453 C 129.49545288085938 137.86940002441406 129.49545288085938 145.83055114746094 129.49545288085938 153.79168701171875 C 117.55547332763672 153.79168701171875 105.615478515625 153.79168701171875 93.67463684082031 153.79168701171875 C 93.67463684082031 145.83055114746094 93.67463684082031 137.86940002441406 93.67463684082031 129.9082794189453" stroke-width="0.0" fill="rgb(163, 174, 181)" opacity="1.0"/>
    <path d="M 33.97041320800781 159.76295471191406 C 85.71435546875 159.76295471191406 137.4574432373047 159.76295471191406 189.20138549804688 159.76295471191406 C 189.20138549804688 160.9297332763672 189.20138549804688 162.09567260742188 189.20138549804688 163.26246643066406 C 185.219970703125 167.2430419921875 181.24026489257812 171.22360229492188 177.2588348388672 175.20416259765625 C 177.2588348388672 180.00694274902344 177.2588348388672 184.81057739257812 177.2588348388672 189.6142120361328 C 133.4760284423828 189.6142120361328 89.69236755371094 189.6142120361328 45.90869903564453 189.6142120361328 C 45.90869903564453 184.80972290039062 45.90869903564453 180.0052490234375 45.90869903564453 175.2007598876953 C 41.928138732910156 171.22018432617188 37.94757080078125 167.240478515625 33.967002868652344 163.25991821289062 C 33.968711853027344 162.09397888183594 33.969566345214844 160.92889404296875 33.97041320800781 159.76295471191406" stroke-width="0.0" fill="rgb(163, 173, 181)" opacity="1.0"/>
    <path d="M 171.29183959960938 117.96743774414062 C 171.29183959960938 117.96743774414062 171.29183959960938 117.96743774414062 171.29183959960938 117.96743774414062 C 174.69923400878906 118.1303482055664 177.86526489257812 118.86470794677734 180.787353515625 120.69847869873047 C 192.98834228515625 128.35426330566406 191.2799530029297 147.2259063720703 177.877197265625 152.5378875732422 C 175.78500366210938 153.36692810058594 173.54183959960938 153.79168701171875 171.29183959960938 153.79168701171875 C 169.04183959960938 153.79168701171875 166.7986602783203 153.36692810058594 164.70645141601562 152.5378875732422 C 151.3037109375 147.2259063720703 149.59361267089844 128.35597229003906 161.79458618164062 120.69933319091797 C 164.71669006347656 118.86470794677734 167.88357543945312 118.1303482055664 171.29183959960938 117.96743774414062 C 171.29183959960938 117.96743774414062 171.29183959960938 117.96743774414062 171.29183959960938 117.96743774414062" stroke-width="0.0" fill="rgb(162, 173, 180)" opacity="1.0"/>
    <path d="M 99.64591217041016 76.17533874511719 C 107.60704040527344 76.17533874511719 115.56732177734375 76.17533874511719 123.52845001220703 76.17533874511719 C 123.52845001220703 92.09589385986328 123.52845001220703 108.01730346679688 123.52845001220703 123.93785858154297 C 115.56732177734375 123.93785858154297 107.60704040527344 123.93785858154297 99.64591217041016 123.93785858154297 C 99.64591217041016 108.01730346679688 99.64591217041016 92.09589385986328 99.64591217041016 76.17533874511719" stroke-width="0.0" fill="rgb(255, 250, 238)" opacity="1.0"/>
    <path d="M 171.2884063720703 123.93785858154297 C 171.2884063720703 123.93785858154297 171.2884063720703 123.93785858154297 171.2884063720703 123.93785858154297 C 167.19952392578125 124.23893737792969 163.5780487060547 125.83475494384766 161.27259826660156 129.3811798095703 C 156.20457458496094 137.1768341064453 162.00270080566406 147.82125854492188 171.2884063720703 147.82125854492188 C 180.57412719726562 147.82125854492188 186.3722686767578 137.17599487304688 181.30422973632812 129.3811798095703 C 178.9979248046875 125.83475494384766 175.37730407714844 124.23893737792969 171.2884063720703 123.93785858154297 C 171.2884063720703 123.93785858154297 171.2884063720703 123.93785858154297 171.2884063720703 123.93785858154297" stroke-width="0.0" fill="rgb(35, 31, 32)" opacity="1.0"/>
    <path d="M 171.29183959960938 126.9247817993164 C 171.29183959960938 126.9247817993164 171.29183959960938 126.9247817993164 171.29183959960938 126.9247817993164 C 168.0720672607422 127.21391296386719 165.25830078125 128.4557647705078 163.5601348876953 131.36166381835938 C 160.13226318359375 137.2254638671875 164.50601196289062 144.83433532714844 171.29183959960938 144.83433532714844 C 178.0767822265625 144.83348083496094 182.45140075683594 137.2237548828125 179.02267456054688 131.3607940673828 C 177.32452392578125 128.4557647705078 174.5107421875 127.21391296386719 171.29183959960938 126.9247817993164 C 171.29183959960938 126.9247817993164 171.29183959960938 126.9247817993164 171.29183959960938 126.9247817993164" stroke-width="0.0" fill="rgb(35, 31, 32)" opacity="1.0"/>
    <path d="M 171.2884063720703 129.9082794189453 C 171.2884063720703 129.9082794189453 171.2884063720703 129.9082794189453 171.2884063720703 129.9082794189453 C 173.453125 130.19998168945312 175.2766571044922 130.86355590820312 176.44345092773438 132.86619567871094 C 178.72415161132812 136.77853393554688 175.81826782226562 141.850830078125 171.2884063720703 141.850830078125 C 166.75857543945312 141.850830078125 163.85183715820312 136.77853393554688 166.13339233398438 132.86619567871094 C 167.3018798828125 130.86439514160156 169.12457275390625 130.19998168945312 171.2884063720703 129.9082794189453 C 171.2884063720703 129.9082794189453 171.2884063720703 129.9082794189453 171.2884063720703 129.9082794189453" stroke-width="0.0" fill="rgb(253, 253, 253)" opacity="1.0"/>
  </g>
</svg>
