<?xml version="1.0" ?>
<svg xmlns="http://www.w3.org/2000/svg" version="1.1" width="224" height="224">
  <defs/>
  <g>
    <path d="M 112.0 28.0 C 112.0 28.0 112.0 28.0 112.0 28.0 C 104.14620971679688 28.104278564453125 96.43061828613281 29.413516998291016 89.0857925415039 32.244686126708984 C 68.70730590820312 40.10013961791992 53.39613723754883 58.43199920654297 49.369930267333984 79.90538024902344 C 47.74455261230469 88.57351684570312 48.02096939086914 97.46758270263672 49.79779815673828 106.09103393554688 C 53.09572982788086 122.09820556640625 60.9958610534668 136.91860961914062 70.22427368164062 150.2601318359375 C 81.87834167480469 167.10813903808594 96.13848114013672 182.9646759033203 112.0 196.0 C 112.0 196.0 112.0 196.0 112.0 196.0 C 127.86151123046875 182.9646759033203 142.12164306640625 167.10813903808594 153.77572631835938 150.2601318359375 C 163.00413513183594 136.91860961914062 170.90426635742188 122.09820556640625 174.20220947265625 106.09103393554688 C 175.97903442382812 97.46758270263672 176.2554473876953 88.57351684570312 174.63006591796875 79.90538024902344 C 170.60385131835938 58.43199920654297 155.29269409179688 40.10013961791992 134.91419982910156 32.244686126708984 C 127.56937408447266 29.413516998291016 119.85379028320312 28.104278564453125 112.0 28.0 C 112.0 28.0 112.0 28.0 112.0 28.0" stroke-width="0.0" fill="rgb(35, 31, 32)" opacity="1.0"/>
    <path d="M 112.00331115722656 30.899032592773438 C 112.00331115722656 30.899032592773438 112.00331115722656 30.899032592773438 112.00331115722656 30.899032592773438 C 104.68247985839844 31.00082778930664 97.4948959350586 32.187583923339844 90.62675476074219 34.77296447753906 C 71.14372253417969 42.106204986572266 56.37214279174805 59.45903396606445 52.329376220703125 79.8904800415039 C 50.58069610595703 88.72744750976562 50.929107666015625 97.80854797363281 52.873104095458984 106.5826187133789 C 55.96247863769531 120.52330780029297 62.63199996948242 133.50730895996094 70.46096801757812 145.34841918945312 C 81.95944213867188 162.7393035888672 96.301513671875 178.4940643310547 112.0 192.1939239501953 C 112.0 192.1939239501953 112.0 192.1939239501953 112.0 192.1939239501953 C 127.698486328125 178.4940643310547 142.0413818359375 162.7393035888672 153.54067993164062 145.34841918945312 C 161.3704833984375 133.50730895996094 168.0408172607422 120.52330780029297 171.1302032470703 106.5826187133789 C 173.07420349121094 97.80854797363281 173.42262268066406 88.72744750976562 171.67391967773438 79.8904800415039 C 167.63116455078125 59.459861755371094 152.85874938964844 42.10786056518555 133.3765411376953 34.7737922668457 C 126.51006317138672 32.18924331665039 119.32247924804688 31.00165557861328 112.00331115722656 30.899032592773438 C 112.00331115722656 30.899032592773438 112.00331115722656 30.899032592773438 112.00331115722656 30.899032592773438" stroke-width="0.0" fill="rgb(35, 31, 32)" opacity="1.0"/>
    <path d="M 112.0 33.79393005371094 C 112.0 33.79393005371094 112.0 33.79393005371094 112.0 33.79393005371094 C 119.34565734863281 33.902339935302734 126.545654296875 35.15779495239258 133.3881378173828 37.88468933105469 C 151.25076293945312 45.00606918334961 164.77516174316406 61.02565002441406 168.70950317382812 79.8590316772461 C 170.5169677734375 88.51144409179688 170.1999969482422 97.42454528808594 168.2940673828125 106.03144836425781 C 165.30978393554688 119.51200103759766 158.862060546875 132.0689697265625 151.307861328125 143.52938842773438 C 140.3663330078125 160.1257781982422 126.77490234375 175.07281494140625 112.0 188.3365478515625 C 112.0 188.3365478515625 112.0 188.3365478515625 112.0 188.3365478515625 C 97.22676086425781 175.0711669921875 83.63448333740234 160.1257781982422 72.69378662109375 143.52938842773438 C 65.13876342773438 132.0689697265625 58.691036224365234 119.51200103759766 55.705928802490234 106.03144836425781 C 53.80000305175781 97.42454528808594 53.483036041259766 88.51144409179688 55.29048156738281 79.8590316772461 C 59.224830627441406 61.02565002441406 72.74923706054688 45.00606918334961 90.61186218261719 37.88468933105469 C 97.454345703125 35.15779495239258 104.65434265136719 33.902339935302734 112.0 33.79393005371094 C 112.0 33.79393005371094 112.0 33.79393005371094 112.0 33.79393005371094" stroke-width="0.0" fill="rgb(203, 64, 32)" opacity="1.0"/>
    <path d="M 112.0 56.96468734741211 C 112.0 56.96468734741211 112.0 56.96468734741211 112.0 56.96468734741211 C 106.35089111328125 57.1028938293457 100.91199493408203 58.282203674316406 95.88027954101562 60.91972351074219 C 79.67117309570312 69.41654968261719 72.73931121826172 89.76110076904297 80.47227478027344 106.37572479248047 C 82.3004150390625 110.3026123046875 84.86924743652344 113.87530517578125 88.00082397460938 116.86537170410156 C 91.1382064819336 119.86123657226562 94.83421325683594 122.2645492553711 98.84965515136719 123.90647888183594 C 103.014892578125 125.60882568359375 107.5012435913086 126.47944641113281 112.0 126.47944641113281 C 116.4987564086914 126.47944641113281 120.98593139648438 125.60882568359375 125.15116882324219 123.90565490722656 C 129.16744995117188 122.26371765136719 132.86260986328125 119.86041259765625 136.0 116.86454772949219 C 139.131591796875 113.87364959716797 141.70040893554688 110.30096435546875 143.52688598632812 106.37489318847656 C 151.259033203125 89.75944519042969 144.32965087890625 69.41654968261719 128.11972045898438 60.91972351074219 C 123.08882904052734 58.282203674316406 117.64910125732422 57.1028938293457 112.0 56.96468734741211 C 112.0 56.96468734741211 112.0 56.96468734741211 112.0 56.96468734741211" stroke-width="0.0" fill="rgb(35, 31, 32)" opacity="1.0"/>
    <path d="M 143.862060546875 91.72496032714844 C 143.862060546875 91.72496032714844 143.862060546875 91.72496032714844 143.862060546875 91.72496032714844 C 143.7321319580078 96.69213104248047 142.75393676757812 101.47144317626953 140.5219268798828 105.94123840332031 C 132.77572631835938 121.45682525634766 113.3216552734375 128.0046844482422 97.78372192382812 120.24688720703125 C 94.4775161743164 118.59668731689453 91.46592712402344 116.36551666259766 88.91862487792969 113.68992614746094 C 86.36634826660156 111.0093765258789 84.28414154052734 107.88523864746094 82.79944610595703 104.49461364746094 C 81.04082489013672 100.4775161743164 80.13710021972656 96.10868072509766 80.13710021972656 91.72496032714844 C 80.13710021972656 87.34123992919922 81.04082489013672 82.97158813476562 82.79944610595703 78.95530700683594 C 84.28414154052734 75.56385803222656 86.36634826660156 72.4405517578125 88.91862487792969 69.75999450683594 C 91.46592712402344 67.08358764648438 94.4775161743164 64.85240936279297 97.78372192382812 63.202205657958984 C 113.3216552734375 55.44441223144531 132.77572631835938 61.99310302734375 140.5219268798828 77.50868225097656 C 142.75393676757812 81.97847747802734 143.7321319580078 86.7577896118164 143.862060546875 91.72496032714844 C 143.862060546875 91.72496032714844 143.862060546875 91.72496032714844 143.862060546875 91.72496032714844" stroke-width="0.0" fill="rgb(35, 31, 32)" opacity="1.0"/>
    <path d="M 112.0 62.76027297973633 C 112.0 62.76027297973633 112.0 62.76027297973633 112.0 62.76027297973633 C 116.44662475585938 62.889381408691406 120.71034240722656 63.73682403564453 124.72661590576172 65.7089614868164 C 138.8708953857422 72.65406799316406 144.9759979248047 90.27668762207031 138.01683044433594 104.45158386230469 C 136.61074829101562 107.31585693359375 134.72799682617188 109.94096374511719 132.47198486328125 112.19696044921875 C 129.8369598388672 114.83199310302734 126.69627380371094 116.95640563964844 123.2634506225586 118.40965270996094 C 119.70813751220703 119.91503143310547 115.86068725585938 120.68882751464844 112.0 120.68882751464844 C 108.13931274414062 120.68882751464844 104.29186248779297 119.91503143310547 100.7365493774414 118.40965270996094 C 97.30371856689453 116.95640563964844 94.16386413574219 114.83199310302734 91.52799987792969 112.19696044921875 C 89.2728271484375 109.94096374511719 87.39006805419922 107.31585693359375 85.98400115966797 104.45158386230469 C 79.02400207519531 90.2758560180664 85.12661743164062 72.65406799316406 99.27337646484375 65.7089614868164 C 103.28882598876953 63.73682403564453 107.55337524414062 62.889381408691406 112.0 62.76027297973633 C 112.0 62.76027297973633 112.0 62.76027297973633 112.0 62.76027297973633" stroke-width="0.0" fill="rgb(254, 249, 237)" opacity="1.0"/>
  </g>
</svg>
