<?xml version="1.0" ?>
<svg xmlns="http://www.w3.org/2000/svg" version="1.1" width="224" height="224">
  <defs/>
  <g>
    <path d="M 85.75048828125 43.75030517578125 C 103.25016021728516 43.75030517578125 120.74983215332031 43.75030517578125 138.25025939941406 43.75030517578125 C 138.25025939941406 50.750022888183594 138.25025939941406 57.748992919921875 138.25025939941406 64.74796295166016 C 153.9994354248047 64.74796295166016 169.74935913085938 64.74796295166016 185.49929809570312 64.74796295166016 C 191.53677368164062 65.19120788574219 195.5574951171875 69.21118927001953 196.0 75.24866485595703 C 196.0 110.24950408935547 196.0 145.24884033203125 196.0 180.24969482421875 C 140.0 180.24969482421875 84.0 180.24969482421875 28.0 180.24969482421875 C 28.0 145.24884033203125 28.0 110.24950408935547 28.0 75.24866485595703 C 28.44249725341797 69.21194458007812 32.463226318359375 65.19120788574219 38.500701904296875 64.74796295166016 C 54.250633239746094 64.74946594238281 70.00056457519531 64.75021362304688 85.75048828125 64.75096130371094 C 85.75048828125 57.75123977661133 85.75048828125 50.75077438354492 85.75048828125 43.75030517578125" stroke-width="0.0" fill="rgb(35, 31, 32)" opacity="1.0"/>
    <path d="M 38.497703552246094 67.37519836425781 C 87.49723815917969 67.37519836425781 136.4975128173828 67.37519836425781 185.49703979492188 67.37519836425781 C 190.07501220703125 67.78544616699219 192.95950317382812 70.67143249511719 193.37049865722656 75.24866485595703 C 193.37124633789062 109.37425994873047 193.37200927734375 143.49986267089844 193.37350463867188 177.62545776367188 C 139.1232452392578 177.62545776367188 84.87374877929688 177.62545776367188 30.623489379882812 177.62545776367188 C 30.623489379882812 143.49986267089844 30.623489379882812 109.37425994873047 30.623489379882812 75.24866485595703 C 31.03448486328125 70.67143249511719 33.91972351074219 67.78544616699219 38.497703552246094 67.37519836425781 C 38.497703552246094 67.37519836425781 38.497703552246094 67.37519836425781 38.497703552246094 67.37519836425781" stroke-width="0.0" fill="rgb(35, 31, 32)" opacity="1.0"/>
    <path d="M 101.50116729736328 59.49873352050781 C 101.50041961669922 61.248477935791016 101.49891662597656 62.99821853637695 101.4981689453125 64.74796295166016 C 108.49864196777344 64.74796295166016 115.49835968017578 64.74796295166016 122.49882507324219 64.74796295166016 C 122.49882507324219 62.99821853637695 122.49882507324219 61.248477935791016 122.49882507324219 59.49873352050781 C 115.4998550415039 59.49873352050781 108.50013732910156 59.49873352050781 101.50116729736328 59.49873352050781" stroke-width="0.0" fill="rgb(255, 255, 255)" opacity="1.0"/>
    <path d="M 88.37397766113281 46.374542236328125 C 88.37397766113281 53.374263763427734 88.37397766113281 60.37472915649414 88.37397766113281 67.37519836425781 C 91.87421417236328 67.37519836425781 95.37445068359375 67.37519836425781 98.87467956542969 67.37519836425781 C 98.87467956542969 63.87496566772461 98.87467956542969 60.37472915649414 98.87467956542969 56.875244140625 C 107.62489318847656 56.875244140625 116.3750991821289 56.875244140625 125.12532043457031 56.875244140625 C 125.12532043457031 60.37472915649414 125.12532043457031 63.87496566772461 125.12532043457031 67.37519836425781 C 128.6248016357422 67.37519836425781 132.124267578125 67.37519836425781 135.62301635742188 67.37519836425781 C 135.62301635742188 60.37472915649414 135.62301635742188 53.374263763427734 135.62301635742188 46.374542236328125 C 119.87308502197266 46.374542236328125 104.12390899658203 46.374542236328125 88.37397766113281 46.374542236328125" stroke-width="0.0" fill="rgb(35, 31, 32)" opacity="1.0"/>
    <path d="M 56.8756217956543 93.62358093261719 C 60.37510681152344 93.62358093261719 63.87533950805664 93.62358093261719 67.37557220458984 93.62358093261719 C 67.37557220458984 98.87430572509766 67.37557220458984 104.12428283691406 67.37557220458984 109.37500762939453 C 63.87533950805664 109.37500762939453 60.37510681152344 109.37500762939453 56.8756217956543 109.37500762939453 C 56.8756217956543 104.12428283691406 56.8756217956543 98.87430572509766 56.8756217956543 93.62358093261719" stroke-width="0.0" fill="rgb(35, 31, 32)" opacity="1.0"/>
    <path d="M 156.62442016601562 93.62358093261719 C 156.62442016601562 98.87430572509766 156.62442016601562 104.12428283691406 156.62442016601562 109.37500762939453 C 160.12466430664062 109.37500762939453 163.62489318847656 109.37500762939453 167.1251220703125 109.37500762939453 C 167.1251220703125 104.12428283691406 167.1251220703125 98.87430572509766 167.1251220703125 93.62358093261719 C 163.62489318847656 93.62358093261719 160.12466430664062 93.62358093261719 156.62442016601562 93.62358093261719" stroke-width="0.0" fill="rgb(35, 31, 32)" opacity="1.0"/>
    <path d="M 33.249977111816406 101.50079345703125 C 33.249977111816406 126.00018310546875 33.249977111816406 150.49957275390625 33.249977111816406 174.99896240234375 C 85.74974060058594 174.99896240234375 138.24951171875 174.99896240234375 190.749267578125 174.99896240234375 C 190.75076293945312 150.49957275390625 190.75152587890625 126.00018310546875 190.75302124023438 101.50079345703125 C 183.75254821777344 101.50079345703125 176.7520751953125 101.50079345703125 169.75234985351562 101.50079345703125 C 169.75234985351562 105.00102996826172 169.75234985351562 108.50125885009766 169.75234985351562 112.00149536132812 C 164.50164794921875 112.00149536132812 159.2516632080078 112.00149536132812 154.0009307861328 112.00149536132812 C 154.0009307861328 108.50125885009766 154.0009307861328 105.00102996826172 154.0009307861328 101.50079345703125 C 126.00131225585938 101.50079345703125 98.0016860961914 101.50079345703125 70.00205993652344 101.50079345703125 C 70.00205993652344 105.00102996826172 70.00205993652344 108.50125885009766 70.00205993652344 112.00149536132812 C 64.75209045410156 112.00149536132812 59.50210952758789 112.00149536132812 54.252132415771484 112.00149536132812 C 54.252132415771484 108.50125885009766 54.252132415771484 105.00102996826172 54.252132415771484 101.50079345703125 C 47.25091552734375 101.50079345703125 40.250450134277344 101.50079345703125 33.249977111816406 101.50079345703125" stroke-width="0.0" fill="rgb(255, 250, 238)" opacity="1.0"/>
    <path d="M 38.500701904296875 69.99868774414062 C 38.500701904296875 69.99868774414062 38.500701904296875 69.99868774414062 38.500701904296875 69.99868774414062 C 35.353721618652344 70.42318725585938 33.67523193359375 72.10243225097656 33.249977111816406 75.24866485595703 C 33.249977111816406 82.24913024902344 33.249977111816406 89.24960327148438 33.249977111816406 96.25006866455078 C 40.24969482421875 96.25006866455078 47.24941635131836 96.25006866455078 54.24838638305664 96.25006866455078 C 54.24838638305664 94.50032806396484 54.24838638305664 92.74983215332031 54.24838638305664 91.00009155273438 C 59.49911117553711 91.00009155273438 64.74908447265625 91.00009155273438 69.99906158447266 91.00009155273438 C 69.99906158447266 92.74983215332031 69.99906158447266 94.50032806396484 69.99906158447266 96.25006866455078 C 97.99868774414062 96.25006866455078 125.99830627441406 96.25006866455078 153.9979248046875 96.25006866455078 C 153.9979248046875 94.50032806396484 153.9979248046875 92.74983215332031 153.9979248046875 91.00009155273438 C 159.2486572265625 91.00009155273438 164.49862670898438 91.00009155273438 169.74859619140625 91.00009155273438 C 169.74859619140625 92.74983215332031 169.74859619140625 94.50032806396484 169.74859619140625 96.25006866455078 C 176.74908447265625 96.25006866455078 183.74954223632812 96.25006866455078 190.749267578125 96.25006866455078 C 190.749267578125 89.24960327148438 190.749267578125 82.24913024902344 190.749267578125 75.24866485595703 C 190.32476806640625 72.10243225097656 188.64627075195312 70.42318725585938 185.49929809570312 69.99868774414062 C 136.49977111816406 69.99868774414062 87.50022888183594 69.99868774414062 38.500701904296875 69.99868774414062" stroke-width="0.0" fill="rgb(254, 249, 237)" opacity="1.0"/>
    <path d="M 91.0004653930664 49.00102996826172 C 91.0004653930664 54.25025939941406 91.0004653930664 59.49948501586914 91.0004653930664 64.74796295166016 C 92.75021362304688 64.74796295166016 94.50070190429688 64.74796295166016 96.25044250488281 64.74796295166016 C 96.25044250488281 61.248477935791016 96.25044250488281 57.74824142456055 96.25044250488281 54.248008728027344 C 106.75039672851562 54.248008728027344 117.24959564208984 54.248008728027344 127.74879455566406 54.248008728027344 C 127.74879455566406 57.748992919921875 127.74879455566406 61.249977111816406 127.74879455566406 64.75096130371094 C 129.49928283691406 64.75096130371094 131.24978637695312 64.75096130371094 132.99952697753906 64.75096130371094 C 132.99952697753906 59.50098419189453 132.99952697753906 54.251007080078125 132.99952697753906 49.00102996826172 C 119.00009155273438 49.00102996826172 104.9999008178711 49.00102996826172 91.0004653930664 49.00102996826172" stroke-width="0.0" fill="rgb(113, 101, 88)" opacity="1.0"/>
    <path d="M 59.49911117553711 96.2470703125 C 59.49911117553711 99.74729919433594 59.49911117553711 103.24828338623047 59.49911117553711 106.74851989746094 C 61.24885177612305 106.74851989746094 62.99859619140625 106.74851989746094 64.74833679199219 106.74851989746094 C 64.74833679199219 103.24828338623047 64.74833679199219 99.74729919433594 64.74833679199219 96.2470703125 C 62.99859619140625 96.2470703125 61.24885177612305 96.2470703125 59.49911117553711 96.2470703125" stroke-width="0.0" fill="rgb(163, 174, 181)" opacity="1.0"/>
    <path d="M 159.2486572265625 96.2470703125 C 159.2486572265625 99.74729919433594 159.2486572265625 103.24828338623047 159.2486572265625 106.74851989746094 C 160.99839782714844 106.74851989746094 162.74813842773438 106.74851989746094 164.49862670898438 106.74851989746094 C 164.49862670898438 103.24828338623047 164.49862670898438 99.74729919433594 164.49862670898438 96.2470703125 C 162.74813842773438 96.2470703125 160.99839782714844 96.2470703125 159.2486572265625 96.2470703125" stroke-width="0.0" fill="rgb(163, 174, 181)" opacity="1.0"/>
    <path d="M 101.4981689453125 111.99849700927734 C 108.49864196777344 111.99849700927734 115.49835968017578 111.99849700927734 122.49882507324219 111.99849700927734 C 122.49882507324219 117.24847412109375 122.49882507324219 122.49845123291016 122.49882507324219 127.74842071533203 C 127.74879455566406 127.74842071533203 132.99952697753906 127.74842071533203 138.25025939941406 127.74842071533203 C 138.25025939941406 134.74888610839844 138.25025939941406 141.74935913085938 138.25025939941406 148.7498321533203 C 132.99952697753906 148.7498321533203 127.74879455566406 148.7498321533203 122.49882507324219 148.7498321533203 C 122.49882507324219 154.00054931640625 122.49882507324219 159.2505340576172 122.49882507324219 164.5012664794922 C 115.49835968017578 164.5012664794922 108.49864196777344 164.5012664794922 101.4981689453125 164.5012664794922 C 101.4981689453125 159.2505340576172 101.4981689453125 154.00054931640625 101.4981689453125 148.7498321533203 C 96.2481918334961 148.7498321533203 90.99746704101562 148.7498321533203 85.74748992919922 148.7498321533203 C 85.74748992919922 141.74935913085938 85.74748992919922 134.74888610839844 85.74748992919922 127.74842071533203 C 90.99746704101562 127.74842071533203 96.2481918334961 127.74842071533203 101.4981689453125 127.74842071533203 C 101.4981689453125 122.49845123291016 101.4981689453125 117.24847412109375 101.4981689453125 111.99849700927734" stroke-width="0.0" fill="rgb(34, 31, 32)" opacity="1.0"/>
    <path d="M 104.1246566772461 114.62498474121094 C 104.1246566772461 119.87420654296875 104.1246566772461 125.12342834472656 104.1246566772461 130.37266540527344 C 98.87467956542969 130.37266540527344 93.62395477294922 130.37266540527344 88.37397766113281 130.37266540527344 C 88.37397766113281 135.6226348876953 88.37397766113281 140.87335205078125 88.37397766113281 146.1233367919922 C 93.62395477294922 146.1233367919922 98.87467956542969 146.1233367919922 104.1246566772461 146.1233367919922 C 104.1246566772461 151.3740692138672 104.1246566772461 156.62403869628906 104.1246566772461 161.87477111816406 C 109.3746337890625 161.87477111816406 114.62535858154297 161.87477111816406 119.87533569335938 161.87477111816406 C 119.87533569335938 156.62403869628906 119.87533569335938 151.3740692138672 119.87533569335938 146.1233367919922 C 125.12456512451172 146.1233367919922 130.373779296875 146.1233367919922 135.62301635742188 146.1233367919922 C 135.62301635742188 140.87335205078125 135.62301635742188 135.6226348876953 135.62301635742188 130.37266540527344 C 130.373779296875 130.37266540527344 125.12456512451172 130.37266540527344 119.87533569335938 130.37266540527344 C 119.87533569335938 125.12342834472656 119.87533569335938 119.87420654296875 119.87533569335938 114.62498474121094 C 114.62535858154297 114.62498474121094 109.3746337890625 114.62498474121094 104.1246566772461 114.62498474121094" stroke-width="0.0" fill="rgb(35, 31, 32)" opacity="1.0"/>
    <path d="M 106.74889373779297 117.24847412109375 C 106.74889373779297 122.49919891357422 106.74889373779297 127.74917602539062 106.74889373779297 132.9991455078125 C 101.4981689453125 132.9991455078125 96.2481918334961 132.9991455078125 90.99746704101562 132.9991455078125 C 90.99746704101562 136.4993896484375 90.99746704101562 139.99961853027344 90.99746704101562 143.49986267089844 C 96.2481918334961 143.49986267089844 101.4981689453125 143.49986267089844 106.74889373779297 143.49986267089844 C 106.74889373779297 148.75057983398438 106.74889373779297 154.00054931640625 106.74889373779297 159.25128173828125 C 110.24913024902344 159.25128173828125 113.74861145019531 159.25128173828125 117.24884796142578 159.25128173828125 C 117.24884796142578 154.00054931640625 117.24884796142578 148.75057983398438 117.24884796142578 143.49986267089844 C 122.49957275390625 143.49986267089844 127.74954986572266 143.49986267089844 132.99952697753906 143.49986267089844 C 132.99952697753906 139.99961853027344 132.99952697753906 136.4993896484375 132.99952697753906 132.9991455078125 C 127.74954986572266 132.9991455078125 122.49957275390625 132.9991455078125 117.24884796142578 132.9991455078125 C 117.24884796142578 127.74917602539062 117.24884796142578 122.49919891357422 117.24884796142578 117.24847412109375 C 113.74861145019531 117.24847412109375 110.24913024902344 117.24847412109375 106.74889373779297 117.24847412109375" stroke-width="0.0" fill="rgb(204, 65, 33)" opacity="1.0"/>
  </g>
</svg>
