<?xml version="1.0" ?>
<svg xmlns="http://www.w3.org/2000/svg" version="1.1" width="224" height="224">
  <defs/>
  <g>
    <path d="M 27.99999237060547 115.50834655761719 L 28.063987731933594 47.56305694580078 L 48.256282806396484 47.67377471923828 L 48.23406219482422 41.05487060546875 L 61.80464172363281 41.12254333496094 L 61.67936706542969 43.914337158203125 L 61.611839294433594 47.756439208984375 L 109.78194427490234 47.86541748046875 L 158.53497314453125 47.71302032470703 L 158.751953125 41.069297790527344 L 178.37559509277344 41.07884979248047 L 178.2797088623047 44.09104919433594 L 178.45864868164062 47.738128662109375 L 186.97525024414062 47.91265106201172 L 195.9573211669922 47.767364501953125 L 196.0 182.94512939453125 L 28.048789978027344 182.94509887695312 L 27.99999237060547 115.50834655761719" stroke-width="1.0" fill="rgb(39, 32, 36)" opacity="0.9980249"/>
    <path d="M 102.7727279663086 165.14584350585938 C 85.49295806884766 160.08685302734375 71.97395324707031 142.45379638671875 72.12330627441406 124.63963317871094 C 71.7386245727539 105.26315307617188 86.04141998291016 86.89088439941406 103.45557403564453 83.2430419921875 C 126.55072021484375 77.92705535888672 147.10838317871094 90.18191528320312 154.4680633544922 113.126220703125 C 156.9666748046875 119.68804168701172 156.78880310058594 130.9130859375 154.08987426757812 137.8602752685547 C 148.00405883789062 151.22027587890625 137.28692626953125 161.76170349121094 124.4638671875 165.219482421875 C 119.25682067871094 166.59097290039062 107.66783142089844 166.5320587158203 102.7727279663086 165.14584350585938" stroke-width="1.0" fill="rgb(44, 38, 41)" opacity="0.9682496"/>
    <path d="M 33.96612548828125 126.60874938964844 L 33.98956298828125 76.324951171875 L 46.50074768066406 76.48089599609375 L 58.659141540527344 76.81940460205078 L 58.677608489990234 177.0537109375 L 34.00018310546875 177.03846740722656 L 33.96612548828125 126.60874938964844" stroke-width="1.0" fill="rgb(244, 248, 250)" opacity="0.993216"/>
    <path d="M 33.87872314453125 62.85377883911133 L 33.906532287597656 53.126434326171875 L 190.4647216796875 53.1648063659668 L 190.16946411132812 61.69881820678711 L 189.99282836914062 70.81742858886719 L 112.2061996459961 70.62014770507812 L 33.798439025878906 70.66967010498047 L 33.87872314453125 62.85377883911133" stroke-width="1.0" fill="rgb(161, 163, 166)" opacity="0.9883907"/>
    <path d="M 54.129241943359375 48.018531799316406 C 52.879276275634766 46.673500061035156 53.56795883178711 44.218414306640625 55.34623336791992 44.385414123535156 C 56.02549743652344 44.2318115234375 56.82813262939453 45.347808837890625 57.034690856933594 46.313873291015625 C 56.869041442871094 48.70061492919922 55.74815368652344 49.308433532714844 54.129241943359375 48.018531799316406" stroke-width="1.0" fill="rgb(158, 161, 164)" opacity="0.97482204"/>
    <path d="M 165.6202850341797 126.33668518066406 L 165.83555603027344 76.25945281982422 L 190.04522705078125 76.27935791015625 L 190.10862731933594 177.09661865234375 L 165.82638549804688 177.02847290039062 L 165.6202850341797 126.33668518066406" stroke-width="1.0" fill="rgb(244, 248, 251)" opacity="0.99613136"/>
    <path d="M 67.44261169433594 94.80907440185547 L 67.97220611572266 76.25471496582031 L 157.038330078125 76.26654052734375 L 154.83811950683594 112.906494140625 L 151.76467895507812 106.07401275634766 C 148.4920654296875 97.57838439941406 140.8766632080078 88.90352630615234 132.39048767089844 85.02050018310547 C 111.13578033447266 73.64334106445312 84.820556640625 82.35896301269531 74.3642807006836 104.5831527709961 L 70.31401824951172 115.1695327758789 L 67.44261169433594 94.80907440185547" stroke-width="1.0" fill="rgb(233, 240, 247)" opacity="0.99323636"/>
    <path d="M 55.275054931640625 126.5980453491211 L 55.31155014038086 76.18467712402344 L 70.07460021972656 76.38217163085938 L 70.13668823242188 94.90222930908203 C 69.65350341796875 105.74160766601562 70.64872741699219 117.83114624023438 69.81352233886719 123.40353393554688 C 70.45726013183594 129.29415893554688 72.49474334716797 142.92312622070312 73.56037902832031 155.2283477783203 L 73.0997314453125 177.17283630371094 L 55.385887145996094 177.24850463867188 L 55.275054931640625 126.5980453491211" stroke-width="1.0" fill="rgb(113, 116, 123)" opacity="0.9694583"/>
    <path d="M 152.24459838867188 155.34434509277344 C 155.68734741210938 128.65994262695312 155.71986389160156 114.90473937988281 154.3426513671875 113.13550567626953 C 154.17733764648438 112.65813446044922 154.3184051513672 104.05070495605469 154.468017578125 93.88536071777344 L 154.49258422851562 76.03121185302734 L 169.31031799316406 76.18057250976562 L 169.28875732421875 177.06146240234375 L 153.24534606933594 176.94442749023438 L 152.24459838867188 155.34434509277344" stroke-width="1.0" fill="rgb(112, 116, 122)" opacity="1.0"/>
    <path d="M 105.10380554199219 161.19683837890625 C 94.01969909667969 158.73342895507812 85.53666687011719 152.44500732421875 80.10585021972656 143.00242614746094 C 66.84669494628906 119.22140502929688 80.98442077636719 89.42896270751953 107.09992980957031 85.71414184570312 C 126.66060638427734 82.78707885742188 144.88284301757812 95.13639831542969 149.3113250732422 114.98944854736328 C 153.83969116210938 133.5082550048828 143.69192504882812 153.07192993164062 126.08599853515625 159.30938720703125 C 121.72819519042969 161.5305633544922 109.29124450683594 162.65689086914062 105.10380554199219 161.19683837890625" stroke-width="1.0" fill="rgb(174, 176, 179)" opacity="0.99890864"/>
    <path d="M 70.28862762451172 156.2144775390625 L 70.56832885742188 134.57244873046875 L 74.18544006347656 142.15127563476562 C 77.50218963623047 150.50680541992188 85.71357727050781 159.19073486328125 93.57026672363281 162.39303588867188 C 106.24961853027344 168.54132080078125 119.04037475585938 168.50840759277344 131.6728973388672 162.4779510498047 C 140.18630981445312 158.2908935546875 147.01724243164062 151.4276580810547 151.01531982421875 143.45761108398438 L 154.3894805908203 136.38087463378906 L 154.37893676757812 176.9371795654297 L 70.31204986572266 176.95681762695312 L 70.28862762451172 156.2144775390625" stroke-width="1.0" fill="rgb(214, 226, 239)" opacity="0.9864098"/>
    <path d="M 56.068817138671875 62.056785583496094 L 56.0764045715332 59.708229064941406 L 100.34121704101562 59.724365234375 L 100.06018829345703 61.81666946411133 L 99.787353515625 64.45082092285156 L 77.87831115722656 64.70629119873047 L 56.13493728637695 64.53728485107422 L 56.068817138671875 62.056785583496094" stroke-width="1.0" fill="rgb(85, 87, 93)" opacity="0.9946858"/>
    <path d="M 124.00469970703125 63.77505874633789 C 123.87547302246094 63.287723541259766 123.5134506225586 62.279781341552734 123.601318359375 61.0550422668457 C 123.50611877441406 59.67467498779297 124.70559692382812 59.67586135864258 145.74179077148438 59.65850067138672 L 168.24575805664062 59.74543762207031 L 168.0922088623047 61.720462799072266 L 167.91098022460938 64.48006439208984 L 146.3216552734375 64.760498046875 C 134.27374267578125 64.53055572509766 124.2419662475586 64.22274780273438 124.00469970703125 63.77505874633789" stroke-width="1.0" fill="rgb(84, 86, 93)" opacity="0.9963782"/>
    <path d="M 102.82142639160156 155.39642333984375 C 86.19023132324219 150.0114288330078 76.41801452636719 132.86541748046875 80.41737365722656 116.4485092163086 C 82.46833801269531 106.0330810546875 91.20425415039062 95.76456451416016 100.3690185546875 92.5394058227539 C 113.24401092529297 87.65171813964844 126.61370849609375 90.4280776977539 136.25845336914062 99.98002624511719 C 152.8768310546875 116.87008666992188 147.9344482421875 143.9183807373047 126.26973724365234 154.0118408203125 C 119.25531768798828 157.36370849609375 110.00749969482422 158.02359008789062 102.82142639160156 155.39642333984375" stroke-width="1.0" fill="rgb(42, 35, 38)" opacity="0.99334884"/>
    <path d="M 106.8311996459961 138.64002990722656 C 97.02713012695312 135.5807647705078 92.84393310546875 123.57334899902344 98.37503051757812 115.0523452758789 C 103.03189849853516 107.0682373046875 114.4794692993164 105.21346282958984 121.1185531616211 110.61238861083984 C 135.63510131835938 121.16206359863281 123.88880920410156 143.68475341796875 106.8311996459961 138.64002990722656" stroke-width="1.0" fill="rgb(41, 36, 39)" opacity="0.9876995"/>
    <path d="M 90.70584106445312 141.69775390625 C 83.7912368774414 133.6730194091797 82.29588317871094 120.3443374633789 87.49580383300781 110.06898498535156 C 89.04052734375 106.89653015136719 90.91970825195312 104.54804992675781 91.90132141113281 104.90617370605469 C 92.77926635742188 104.51004791259766 95.04994201660156 106.32046508789062 97.20561981201172 108.0572280883789 L 101.37678527832031 111.40251159667969 L 99.14179992675781 115.84529113769531 C 95.94551849365234 120.88468933105469 96.5324478149414 127.89822387695312 100.01952362060547 132.384765625 L 102.51020812988281 135.6684112548828 L 98.56513977050781 140.1537322998047 C 96.91098022460938 142.87667846679688 95.02876281738281 144.88424682617188 93.73316955566406 145.0604248046875 C 93.70191955566406 145.09156799316406 92.40435028076172 143.894287109375 90.70584106445312 141.69775390625" stroke-width="1.0" fill="rgb(254, 254, 255)" opacity="1.0"/>
    <path d="M 127.9638900756836 140.62088012695312 C 126.40642547607422 138.6144256591797 124.58942413330078 136.49542236328125 124.38179016113281 135.8130340576172 C 124.30684661865234 134.7276153564453 124.8489761352539 133.0611572265625 125.82383728027344 131.48190307617188 C 128.90811157226562 127.78694152832031 129.44569396972656 120.39392852783203 126.5537109375 115.90809631347656 L 124.44586944580078 111.79926300048828 L 128.87303161621094 108.16149139404297 C 130.99351501464844 106.50125122070312 133.28643798828125 104.2808609008789 134.20079040527344 104.36337280273438 C 134.74237060546875 104.27849578857422 136.38650512695312 106.98420715332031 137.99790954589844 110.36045837402344 C 140.35928344726562 115.59249877929688 140.74107360839844 116.82919311523438 141.14285278320312 123.71036529541016 C 140.69525146484375 130.19606018066406 140.11773681640625 131.50355529785156 138.00929260253906 136.3391876220703 C 136.47166442871094 139.56723022460938 134.2608184814453 142.7457733154297 133.35218811035156 143.5865478515625 C 132.05397033691406 145.51780700683594 131.9985809326172 145.454833984375 127.9638900756836 140.62088012695312" stroke-width="1.0" fill="rgb(254, 255, 255)" opacity="1.0"/>
    <path d="M 100.545166015625 104.70507049560547 C 98.46768188476562 102.44709014892578 96.85894012451172 99.83808898925781 96.97039031982422 99.72209930419922 C 97.0023422241211 99.22779846191406 98.74774169921875 98.09158325195312 100.64048767089844 97.52491760253906 C 107.01422119140625 94.08224487304688 118.58975982666016 94.08646392822266 125.1916275024414 97.59223175048828 C 126.76107788085938 98.41616821289062 128.4951934814453 99.5070571899414 128.613037109375 100.0277099609375 C 128.91612243652344 100.3180923461914 127.25672149658203 102.78081512451172 125.21591186523438 104.8484115600586 C 121.87059783935547 109.77568054199219 121.59381103515625 110.22396087646484 119.0053482055664 108.67173767089844 C 115.43104553222656 107.36143493652344 110.53831481933594 107.33509063720703 107.05531311035156 109.088623046875 C 104.48761749267578 110.34471130371094 103.69198608398438 109.79605865478516 100.545166015625 104.70507049560547" stroke-width="1.0" fill="rgb(236, 97, 64)" opacity="0.9921735"/>
    <path d="M 108.62608337402344 133.15084838867188 C 99.78820037841797 128.52618408203125 99.83060455322266 116.76071166992188 108.67831420898438 113.34902954101562 C 118.0843276977539 109.87987518310547 126.87847900390625 118.93720245361328 122.65172576904297 127.53278350830078 C 119.55382537841797 133.47384643554688 113.61209106445312 135.85882568359375 108.62608337402344 133.15084838867188" stroke-width="1.0" fill="rgb(135, 126, 101)" opacity="0.995089"/>
    <path d="M 100.99174499511719 149.6181182861328 L 96.87088012695312 148.00732421875 L 104.1772689819336 137.383056640625 L 113.30489349365234 139.008056640625 L 121.46260070800781 137.31817626953125 L 124.55000305175781 141.86427307128906 C 126.4861831665039 144.58413696289062 127.86631774902344 147.0048828125 128.0890655517578 147.23037719726562 C 127.97672271728516 148.97650146484375 121.0853500366211 151.8224334716797 113.93888092041016 152.50344848632812 C 107.61648559570312 152.22633361816406 105.4085693359375 151.69290161132812 100.99174499511719 149.6181182861328" stroke-width="1.0" fill="rgb(236, 96, 62)" opacity="0.9944646"/>
    <path d="M 99.04145812988281 112.07524871826172 C 98.29804229736328 111.0605239868164 96.74070739746094 109.07587432861328 94.66072845458984 107.2928237915039 L 91.23606872558594 104.68498992919922 L 94.04725646972656 102.09600067138672 L 97.26720428466797 99.23153686523438 L 100.76991271972656 104.48918151855469 L 104.73167419433594 109.80731201171875 L 102.02232360839844 111.61305236816406 C 100.33642578125 113.71174621582031 100.01409912109375 114.06529235839844 99.04145812988281 112.07524871826172" stroke-width="1.0" fill="rgb(218, 219, 220)" opacity="0.96934426"/>
    <path d="M 123.29741668701172 111.3489761352539 L 121.0793228149414 109.59963989257812 L 124.95508575439453 104.50497436523438 L 128.3914337158203 99.47917175292969 L 131.46507263183594 102.01455688476562 L 134.48330688476562 104.93360137939453 L 130.672119140625 108.69029998779297 C 128.3266143798828 110.54415893554688 126.0847396850586 112.3013916015625 125.71965789794922 112.93827056884766 C 125.3761978149414 113.36760711669922 124.17402648925781 112.49995422363281 123.29741668701172 111.3489761352539" stroke-width="1.0" fill="rgb(215, 219, 222)" opacity="0.97443503"/>
    <path d="M 93.02851867675781 144.59579467773438 C 91.72469329833984 143.0894317626953 91.02745819091797 142.04124450683594 92.04257202148438 142.7581787109375 C 92.25723266601562 143.48031616210938 93.48546600341797 143.56582641601562 93.91488647460938 143.5585479736328 C 93.98146057128906 143.84852600097656 95.82636260986328 142.09886169433594 97.91090393066406 139.6201171875 C 101.61986541748047 134.07623291015625 101.66989135742188 134.44847106933594 104.25958251953125 136.24313354492188 C 105.65929412841797 137.31414794921875 105.4436264038086 137.85885620117188 102.04423522949219 142.2681427001953 C 100.29928588867188 145.49508666992188 98.30551147460938 147.8812255859375 97.42821502685547 147.94407653808594 C 97.32312774658203 147.6393585205078 95.3154296875 146.24176025390625 93.02851867675781 144.59579467773438" stroke-width="1.0" fill="rgb(213, 217, 219)" opacity="0.9680811"/>
    <path d="M 123.96202850341797 142.15452575683594 L 120.57088470458984 136.99008178710938 L 123.01408386230469 135.2200927734375 C 124.10798645019531 133.76589965820312 124.7716293334961 133.19326782226562 125.23442077636719 133.93089294433594 C 125.57292938232422 134.6565399169922 126.96895599365234 137.3833465576172 129.00961303710938 139.6248779296875 C 132.0977325439453 144.3666229248047 132.26397705078125 144.72311401367188 130.58316040039062 146.09939575195312 C 129.47817993164062 147.0237579345703 128.42608642578125 147.92874145507812 127.89830017089844 147.80844116210938 C 127.24661254882812 147.4453125 125.55065155029297 145.07687377929688 123.96202850341797 142.15452575683594" stroke-width="1.0" fill="rgb(217, 218, 220)" opacity="0.9718413"/>
  </g>
</svg>
