<?xml version="1.0" ?>
<svg xmlns="http://www.w3.org/2000/svg" version="1.1" width="224" height="224">
  <defs/>
  <g>
    <path d="M 39.575279235839844 182.70323181152344 C 37.165184020996094 181.22354125976562 33.453887939453125 177.1116180419922 35.55226135253906 175.54214477539062 C 35.83732604980469 171.37869262695312 35.78333282470703 169.37509155273438 33.347801208496094 168.71719360351562 C 28.95507049560547 163.99749755859375 28.16490936279297 160.9562225341797 28.0 155.47702026367188 C 29.71722412109375 147.94993591308594 28.121917724609375 142.60446166992188 30.933395385742188 140.1066436767578 C 31.207015991210938 138.6595916748047 35.632110595703125 137.2104034423828 34.82868194580078 134.48248291015625 C 35.992698669433594 131.11207580566406 38.74315643310547 127.36914825439453 39.82318878173828 126.53998565673828 C 43.727821350097656 122.68262481689453 51.2318000793457 122.3193130493164 55.917301177978516 125.95840454101562 C 59.96173095703125 129.51992797851562 58.261749267578125 128.32476806640625 58.61786651611328 112.14222717285156 C 58.43742370605469 94.24358367919922 56.796348571777344 93.98634338378906 66.6519775390625 94.07888793945312 C 72.51821899414062 93.57979583740234 74.4942626953125 94.40873718261719 74.31585693359375 99.85565185546875 C 73.54776763916016 102.42945861816406 79.27853393554688 101.70055389404297 77.56320190429688 99.58802032470703 C 77.49821472167969 94.69432830810547 79.288330078125 93.6453628540039 84.01303100585938 94.09900665283203 L 86.70745849609375 94.1102523803711 L 86.7083740234375 77.46763610839844 C 86.78009033203125 65.92872619628906 85.97769927978516 63.23496627807617 88.18169403076172 62.12940216064453 C 87.68501281738281 60.04961395263672 100.0965805053711 60.00337219238281 102.2578353881836 61.22862243652344 C 104.8545913696289 62.3405876159668 104.34134674072266 70.69602966308594 104.1368408203125 75.13743591308594 C 104.62612915039062 75.21308898925781 103.39391326904297 76.11736297607422 101.91570281982422 78.53797912597656 C 104.27656555175781 79.78565979003906 107.02826690673828 80.14950561523438 110.7983627319336 81.03623962402344 L 118.9748306274414 80.96136474609375 L 117.33927154541016 73.36077880859375 C 118.00279235839844 65.06700134277344 116.71471405029297 63.9561653137207 117.78157806396484 62.58060073852539 C 119.4647216796875 60.71879577636719 120.85321807861328 60.838218688964844 125.69255065917969 60.65126037597656 C 131.2528839111328 60.00395202636719 133.47618103027344 60.64431381225586 133.9806671142578 62.178287506103516 C 135.29005432128906 62.058658599853516 134.89833068847656 66.56298828125 134.94354248046875 78.5494613647461 L 134.90151977539062 94.32374572753906 L 139.15768432617188 94.11087036132812 C 142.55380249023438 93.74986267089844 143.6095428466797 95.9322280883789 144.1153564453125 98.24143981933594 C 143.52749633789062 100.686767578125 143.9928436279297 101.1037368774414 143.68800354003906 101.24205017089844 C 147.033203125 102.08900451660156 148.03907775878906 101.66329193115234 147.40771484375 98.91914367675781 C 147.43228149414062 94.45970916748047 148.60986328125 93.67243957519531 154.4971923828125 94.12234497070312 C 163.3711395263672 93.37088012695312 162.94529724121094 93.9089584350586 162.7459259033203 111.85514068603516 L 162.85073852539062 125.9592056274414 L 168.89572143554688 123.46500396728516 C 173.38092041015625 123.26185607910156 175.3631591796875 124.44377899169922 177.3031005859375 126.21647644042969 C 178.2055206298828 128.24853515625 180.30557250976562 127.93354797363281 182.77105712890625 128.38841247558594 C 185.2605743408203 130.55136108398438 187.72976684570312 130.4940643310547 189.19210815429688 137.04995727539062 C 194.18370056152344 141.58970642089844 194.54986572265625 144.15335083007812 193.8177490234375 150.4098663330078 C 196.0 158.27183532714844 193.73533630371094 164.20184326171875 188.25546264648438 169.6407012939453 C 186.0186767578125 170.0670928955078 185.591796875 173.4022674560547 186.30194091796875 172.86256408691406 C 185.46771240234375 174.50906372070312 185.3773193359375 177.38809204101562 184.1539306640625 179.3927459716797 L 179.3262481689453 183.08169555664062 L 112.35462951660156 183.0416259765625 C 74.23365783691406 183.1334686279297 43.74445343017578 182.95770263671875 39.575279235839844 182.70323181152344" stroke-width="0.0" fill="rgb(50, 44, 45)" opacity="0.9987478"/>
    <path d="M 103.20136260986328 49.850555419921875 C 104.88345336914062 47.96015167236328 107.21246337890625 44.997947692871094 108.31449890136719 43.342132568359375 C 109.06204223632812 41.264495849609375 110.01847076416016 40.866539001464844 110.20934295654297 41.47502899169922 C 110.18464660644531 42.24510955810547 112.51516723632812 44.943687438964844 115.5299072265625 47.62847900390625 C 118.61201477050781 50.44500732421875 120.84547424316406 52.917694091796875 120.65595245361328 53.181785583496094 C 120.29995727539062 53.57855224609375 119.47254180908203 53.49364471435547 118.7735824584961 52.83738708496094 C 117.81446838378906 50.786415100097656 104.42669677734375 50.885658264160156 103.69596862792969 52.40990447998047 C 103.27459716796875 53.17328643798828 102.29380798339844 53.51002502441406 101.46874237060547 53.52232360839844 C 100.55809783935547 53.38304138183594 101.2778091430664 52.476356506347656 103.20136260986328 49.850555419921875" stroke-width="1.0" fill="rgb(59, 52, 48)" opacity="0.9645326"/>
    <path d="M 90.61848449707031 69.45771789550781 L 90.61869812011719 64.49178314208984 L 100.15708923339844 64.52587127685547 L 100.1708984375 74.06312561035156 L 90.53816223144531 74.19573974609375 L 90.61848449707031 69.45771789550781" stroke-width="1.0" fill="rgb(180, 129, 40)" opacity="1.0"/>
    <path d="M 121.55535125732422 69.23725128173828 L 121.44630432128906 64.466064453125 L 131.03439331054688 64.51690673828125 L 131.1474609375 74.09842681884766 L 121.46430969238281 74.16679382324219 L 121.55535125732422 69.23725128173828" stroke-width="1.0" fill="rgb(180, 128, 42)" opacity="0.99706984"/>
    <path d="M 62.54420852661133 103.4447250366211 L 62.57062530517578 98.19364166259766 L 69.80416107177734 98.17855072021484 L 69.73153686523438 105.52134704589844 L 81.70339965820312 105.32622528076172 L 81.66471862792969 98.04011535644531 L 85.72711181640625 98.3263931274414 L 89.66915893554688 98.37751770019531 L 89.52302551269531 103.55962371826172 L 89.87704467773438 109.28279876708984 L 62.58502197265625 109.19841003417969 L 62.54420852661133 103.4447250366211" stroke-width="1.0" fill="rgb(181, 131, 40)" opacity="1.0"/>
    <path d="M 132.16050720214844 103.58351135253906 L 131.98251342773438 98.35015869140625 L 139.7388458251953 98.2272720336914 L 139.9810333251953 101.81288146972656 L 140.2273712158203 105.10285186767578 L 145.8975830078125 105.1085433959961 L 151.55392456054688 105.37881469726562 L 151.48309326171875 98.04237365722656 L 158.9943084716797 98.26654052734375 L 159.03445434570312 109.40829467773438 L 132.0560302734375 109.23951721191406 L 132.16050720214844 103.58351135253906" stroke-width="1.0" fill="rgb(182, 132, 40)" opacity="0.9998139"/>
    <path d="M 62.56141662597656 144.8346405029297 L 62.642696380615234 112.97179412841797 L 89.20301055908203 112.94509887695312 L 89.50409698486328 118.10470581054688 C 87.68226623535156 119.97958374023438 87.73576354980469 134.19781494140625 87.87144470214844 148.90513610839844 L 87.76313018798828 176.17123413085938 L 62.62004470825195 176.32923889160156 L 62.56141662597656 144.8346405029297" stroke-width="1.0" fill="rgb(246, 231, 198)" opacity="0.9903826"/>
    <path d="M 91.79547882080078 148.29612731933594 C 90.66138458251953 133.47544860839844 93.07315063476562 116.08475494384766 93.50181579589844 109.80777740478516 C 93.0362548828125 98.6372299194336 93.74861907958984 96.56514739990234 92.0263442993164 95.53809356689453 C 90.04010772705078 94.29517364501953 90.7359619140625 91.37348175048828 90.6098861694336 85.17512512207031 L 90.74972534179688 77.51243591308594 L 131.0119171142578 77.62335968017578 L 131.3103790283203 85.30755615234375 C 131.10195922851562 92.16764831542969 131.1504364013672 93.29032135009766 130.50106811523438 94.53640747070312 C 127.34223937988281 96.83356475830078 128.09994506835938 92.5230484008789 130.06915283203125 147.0938262939453 L 129.84567260742188 176.34466552734375 L 122.26271057128906 176.4076690673828 L 122.2311019897461 166.33151245117188 C 122.43399047851562 155.01351928710938 120.97673034667969 152.41354370117188 116.38587951660156 149.01585388183594 C 111.5586166381836 145.86669921875 105.16816711425781 147.15377807617188 101.61851501464844 152.90219116210938 C 100.22689056396484 154.97793579101562 99.53157043457031 156.57521057128906 99.67228698730469 165.83087158203125 L 99.80941009521484 176.35166931152344 L 91.87554931640625 176.10826110839844 L 91.79547882080078 148.29612731933594" stroke-width="1.0" fill="rgb(246, 231, 198)" opacity="0.991182"/>
    <path d="M 134.02137756347656 175.83067321777344 C 133.91189575195312 174.92979431152344 133.84393310546875 162.22769165039062 133.8459014892578 146.92955017089844 C 134.33409118652344 131.94064331054688 133.73666381835938 118.23487854003906 131.9256134033203 116.61434936523438 L 132.0727996826172 113.0245361328125 L 158.9851531982422 113.02069091796875 L 159.12828063964844 176.27047729492188 L 146.96031188964844 176.16146850585938 C 138.13084411621094 176.32862854003906 134.9440460205078 176.2574920654297 134.02137756347656 175.83067321777344" stroke-width="1.0" fill="rgb(247, 230, 199)" opacity="0.9965486"/>
    <path d="M 103.44477844238281 167.7270050048828 C 103.1144790649414 157.884765625 104.09565734863281 154.34820556640625 107.40095520019531 152.10205078125 C 110.15444946289062 150.21156311035156 114.28087615966797 151.0232391357422 116.66967010498047 153.70266723632812 C 118.03363800048828 155.7906036376953 118.26094818115234 157.30096435546875 118.37557220458984 165.964111328125 L 118.65040588378906 176.07296752929688 L 103.72843933105469 176.42202758789062 L 103.44477844238281 167.7270050048828" stroke-width="1.0" fill="rgb(92, 67, 51)" opacity="0.9882156"/>
    <path d="M 43.64391326904297 175.86598205566406 C 41.57225036621094 175.10317993164062 39.64867401123047 173.09771728515625 39.554115295410156 171.41061401367188 C 39.741737365722656 170.56007385253906 38.375343322753906 168.44068908691406 36.609405517578125 167.1212615966797 C 32.649131774902344 164.0041961669922 31.267578125 160.2388153076172 31.84876251220703 154.89544677734375 C 32.123252868652344 152.87457275390625 32.62907409667969 149.43930053710938 32.66712951660156 147.1513671875 C 32.804649353027344 143.1080780029297 34.28192901611328 140.59922790527344 36.57926940917969 139.77545166015625 C 37.61871337890625 139.5244903564453 38.197715759277344 138.2698516845703 38.47966003417969 135.9866943359375 C 38.69456481933594 134.05177307128906 39.843170166015625 131.73056030273438 41.661712646484375 129.9176788330078 C 44.15570831298828 127.34098815917969 45.01347351074219 126.90056610107422 48.076690673828125 126.84881591796875 C 50.65842056274414 126.84532928466797 52.23526382446289 127.48603820800781 53.61310577392578 128.81732177734375 C 54.83958435058594 129.9207000732422 56.0873908996582 130.8120574951172 56.9171257019043 130.6753387451172 C 58.685020446777344 130.45980834960938 58.670631408691406 132.45700073242188 58.60469055175781 153.35015869140625 L 58.68510818481445 176.35787963867188 L 51.673770904541016 176.26290893554688 C 47.944969177246094 176.30908203125 44.44061279296875 176.15098571777344 43.64391326904297 175.86598205566406" stroke-width="1.0" fill="rgb(102, 158, 72)" opacity="0.9663255"/>
    <path d="M 162.67431640625 153.712646484375 L 162.75418090820312 130.559814453125 L 165.46791076660156 128.69921875 C 168.5941162109375 126.07523345947266 171.4075927734375 126.03242492675781 173.69712829589844 128.35049438476562 C 174.93081665039062 129.65017700195312 177.16236877441406 130.78224182128906 178.65037536621094 130.7872772216797 C 182.3302459716797 131.2470703125 185.44512939453125 134.45391845703125 185.49502563476562 137.455078125 C 185.41973876953125 138.47671508789062 185.69305419921875 139.69732666015625 186.49533081054688 139.93951416015625 C 188.92959594726562 140.85101318359375 189.86300659179688 143.61778259277344 190.06646728515625 152.05809020996094 C 190.74041748046875 161.58038330078125 189.40298461914062 165.13467407226562 184.885009765625 167.80227661132812 C 183.11215209960938 168.92799377441406 181.95849609375 169.502685546875 182.33375549316406 171.18408203125 C 182.3675994873047 172.3910675048828 181.47445678710938 173.957763671875 180.26571655273438 174.84591674804688 C 178.33154296875 176.13357543945312 176.86865234375 176.4234619140625 170.57119750976562 176.21632385253906 L 162.74400329589844 176.2303466796875 L 162.67431640625 153.712646484375" stroke-width="1.0" fill="rgb(103, 158, 72)" opacity="0.96737236"/>
    <path d="M 106.78289794921875 49.010597229003906 C 106.7761001586914 48.634056091308594 107.53958129882812 47.512062072753906 108.42500305175781 46.60700988769531 C 110.09991455078125 44.92436981201172 110.25587463378906 44.87525177001953 112.40668487548828 47.015357971191406 L 115.22958374023438 49.366851806640625 L 111.06781005859375 49.59325408935547 C 108.64786529541016 49.80339050292969 106.81159973144531 49.413658142089844 106.78289794921875 49.010597229003906" stroke-width="1.0" fill="rgb(173, 129, 25)" opacity="0.99408406"/>
    <path d="M 71.589599609375 150.0689697265625 C 71.54864501953125 146.11141967773438 72.04615020751953 144.16232299804688 73.28163146972656 143.386474609375 C 76.91399383544922 140.24298095703125 79.99166870117188 144.06881713867188 79.5726089477539 151.09982299804688 L 79.35569763183594 155.3866424560547 L 71.53048706054688 155.28341674804688 L 71.589599609375 150.0689697265625" stroke-width="1.0" fill="rgb(48, 44, 45)" opacity="0.9861926"/>
    <path d="M 104.78889465332031 123.85652160644531 C 104.69280242919922 120.44963073730469 108.0941162109375 116.87336730957031 110.7049560546875 116.90526580810547 C 113.89191436767578 116.80194854736328 117.1436996459961 120.44560241699219 117.30728912353516 123.82794189453125 C 117.376220703125 125.98773193359375 117.23323059082031 126.08425903320312 111.0788345336914 125.96338653564453 C 104.92736053466797 125.98794555664062 104.71583557128906 125.82080078125 104.78889465332031 123.85652160644531" stroke-width="1.0" fill="rgb(48, 41, 44)" opacity="0.9907683"/>
    <path d="M 104.98771667480469 97.74656677246094 C 105.08645629882812 89.5848159790039 105.16700744628906 89.26325225830078 107.24388885498047 87.49115753173828 C 108.58305358886719 86.65264892578125 110.19005584716797 85.97715759277344 110.92796325683594 86.31656646728516 C 111.89057159423828 86.29600524902344 113.34491729736328 86.95574188232422 114.81092071533203 87.73890686035156 C 116.94596862792969 89.36223602294922 117.26197814941406 89.63570404052734 117.19207763671875 97.83231353759766 L 116.97650146484375 105.95948028564453 L 105.08424377441406 105.82987213134766 L 104.98771667480469 97.74656677246094" stroke-width="1.0" fill="rgb(46, 40, 40)" opacity="0.9982823"/>
    <path d="M 142.20431518554688 150.76107788085938 C 142.0133056640625 143.74771118164062 145.269775390625 140.52191162109375 148.60964965820312 143.43075561523438 C 149.88723754882812 144.10643005371094 150.3223876953125 146.218994140625 150.32559204101562 149.9755859375 L 150.5404510498047 155.31761169433594 L 142.44625854492188 155.45408630371094 L 142.20431518554688 150.76107788085938" stroke-width="1.0" fill="rgb(47, 43, 43)" opacity="0.9921312"/>
  </g>
</svg>
