<?xml version="1.0" ?>
<svg xmlns="http://www.w3.org/2000/svg" version="1.1" width="224" height="224">
  <defs/>
  <g>
    <path d="M 93.31980895996094 191.929931640625 C 76.04179382324219 189.87860107421875 61.86569595336914 182.50692749023438 49.64162826538086 169.76705932617188 C 39.33238220214844 158.42990112304688 32.30298614501953 144.69442749023438 29.75322723388672 129.6372833251953 C 28.101593017578125 121.53299713134766 28.0 103.17933654785156 29.79986572265625 96.05506896972656 C 34.52601623535156 69.66629028320312 49.64564895629883 50.57421112060547 72.0422134399414 39.05571746826172 C 86.18717956542969 32.82257843017578 94.03473663330078 30.974212646484375 113.10967254638672 30.39342498779297 C 125.55438232421875 30.84363555908203 129.26373291015625 31.701248168945312 135.9001007080078 33.043243408203125 C 163.37835693359375 40.0911865234375 185.0465545654297 62.7120246887207 192.36904907226562 90.80815124511719 C 195.28717041015625 101.17811584472656 196.0 118.82750701904297 193.85296630859375 129.3313446044922 C 187.8416748046875 161.67465209960938 164.8731689453125 185.5867919921875 135.7726593017578 191.02923583984375 C 125.68145751953125 192.5908203125 101.31204223632812 193.6065673828125 93.31980895996094 191.929931640625" stroke-width="1.0" fill="rgb(27, 23, 23)" opacity="0.99639916"/>
    <path d="M 94.04609680175781 186.1348876953125 C 77.56631469726562 184.1085662841797 64.66046905517578 177.68270874023438 52.44070816040039 165.0062713623047 C 44.8970947265625 156.48422241210938 39.74299621582031 146.86033630371094 36.962745666503906 135.29190063476562 C 33.78441619873047 125.14400482177734 33.07096862792969 106.55768585205078 35.38584899902344 96.34029388427734 C 41.67680358886719 65.94933319091797 63.39705276489258 43.958709716796875 93.9771499633789 37.88709259033203 C 104.39567565917969 35.556854248046875 126.45280456542969 36.158653259277344 136.1514434814453 39.129852294921875 C 160.79525756835938 46.24675750732422 180.26077270507812 66.60713195800781 187.07382202148438 92.35065460205078 C 190.34710693359375 103.7489013671875 190.46603393554688 122.21727752685547 186.76882934570312 134.33029174804688 C 180.498779296875 159.7669677734375 162.4871063232422 177.90652465820312 139.35537719726562 184.3560791015625 C 133.609375 185.4927978515625 128.7787322998047 186.0851593017578 114.54010772705078 186.54840087890625 C 105.03457641601562 186.80062866210938 95.67620849609375 186.67593383789062 94.04609680175781 186.1348876953125" stroke-width="1.0" fill="rgb(251, 241, 217)" opacity="0.9987556"/>
    <path d="M 99.8413314819336 145.07086181640625 C 86.12429809570312 140.603515625 74.93692779541016 125.22676849365234 75.26713562011719 111.46296691894531 C 74.8507308959961 98.55462646484375 83.16688537597656 85.66099548339844 95.75740814208984 79.93203735351562 C 113.9429931640625 71.916015625 135.15017700195312 79.8944091796875 143.97842407226562 98.23542785644531 C 146.30442810058594 103.46827697753906 146.6428680419922 104.87040710449219 147.08493041992188 112.36247253417969 C 146.7371826171875 119.66571044921875 146.2184600830078 120.9822769165039 143.7926025390625 126.57817840576172 C 140.20172119140625 133.84732055664062 133.78057861328125 140.24620056152344 126.45970916748047 143.77447509765625 C 119.92830657958984 147.41290283203125 106.92667388916016 147.9882354736328 99.8413314819336 145.07086181640625" stroke-width="1.0" fill="rgb(27, 23, 23)" opacity="0.99614847"/>
    <path d="M 95.80850219726562 182.17727661132812 C 87.55989074707031 181.28811645507812 82.8016357421875 179.73341369628906 75.7786636352539 176.44100952148438 C 67.86436462402344 172.503662109375 63.155426025390625 168.70277404785156 63.86245346069336 166.45474243164062 C 64.84819030761719 164.03884887695312 67.2136459350586 164.0494842529297 70.61631774902344 166.6240997314453 C 75.26303100585938 169.98619079589844 81.74964904785156 173.26345825195312 88.25779724121094 174.68927001953125 C 97.0162353515625 177.71951293945312 125.5057601928711 177.32667541503906 135.02244567871094 174.42921447753906 C 159.78033447265625 168.1090545654297 175.44869995117188 147.636962890625 178.87281799316406 119.35841369628906 C 180.41128540039062 106.18082427978516 177.91510009765625 91.95064544677734 171.25868225097656 79.83389282226562 C 165.51443481445312 67.77979278564453 151.34844970703125 54.68414306640625 139.0750732421875 50.54564666748047 C 134.32305908203125 48.866424560546875 132.63787841796875 47.060821533203125 133.74400329589844 44.32958221435547 C 134.56597900390625 42.58599853515625 138.1431884765625 43.594207763671875 144.0963897705078 46.46245574951172 C 178.93115234375 63.260498046875 194.57492065429688 103.7005615234375 179.7257537841797 140.94137573242188 C 176.00973510742188 150.74746704101562 169.8101806640625 160.3339080810547 162.88333129882812 166.68719482421875 C 155.59718322753906 173.26593017578125 143.4644317626953 179.36390686035156 134.01498413085938 180.79100036621094 C 125.8264389038086 182.85780334472656 103.6751708984375 183.23233032226562 95.80850219726562 182.17727661132812" stroke-width="1.0" fill="rgb(28, 24, 25)" opacity="0.98842573"/>
    <path d="M 103.77057647705078 140.22088623046875 C 95.64010620117188 138.34375 87.98944854736328 132.16310119628906 83.93614196777344 124.20467376708984 C 82.30534362792969 119.86527252197266 81.6308364868164 118.08119201660156 81.18270111083984 111.87230682373047 C 81.56094360351562 105.64877319335938 82.34530639648438 103.3719482421875 83.91397094726562 99.29879760742188 C 86.7154541015625 93.63838195800781 92.8550796508789 87.7529296875 98.48747253417969 85.43827056884766 C 104.23478698730469 82.09264373779297 116.90821075439453 82.11395263671875 123.06828308105469 85.33633422851562 C 129.46377563476562 87.97344207763672 135.67649841308594 93.97097778320312 138.39968872070312 100.27442169189453 C 147.20191955566406 118.55591583251953 134.16744995117188 139.87364196777344 113.51637268066406 141.25462341308594 C 110.2473373413086 141.6700439453125 106.03473663330078 141.07763671875 103.77057647705078 140.22088623046875" stroke-width="1.0" fill="rgb(251, 240, 219)" opacity="1.0"/>
    <path d="M 102.6739501953125 135.728515625 C 96.64378356933594 134.0792694091797 89.79310607910156 127.71419525146484 87.36250305175781 121.72506713867188 C 84.5410385131836 115.91875457763672 84.7092514038086 106.73780822753906 87.76339721679688 101.26187133789062 C 95.15264129638672 85.5745849609375 116.61167907714844 81.91497039794922 129.31532287597656 94.15882873535156 C 134.33987426757812 99.44943237304688 136.7415008544922 104.39287567138672 137.19712829589844 110.66372680664062 C 137.7494354248047 120.04646301269531 132.0419921875 129.91891479492188 123.22785949707031 134.4093780517578 C 117.88900756835938 137.39324951171875 108.76318359375 137.9525604248047 102.6739501953125 135.728515625" stroke-width="1.0" fill="rgb(26, 23, 23)" opacity="0.9968229"/>
    <path d="M 101.95391845703125 129.07919311523438 C 91.61701965332031 123.93379974365234 88.05491638183594 111.77759552001953 94.1959228515625 101.98136901855469 C 100.0859375 93.2035140991211 111.25276184082031 90.37554931640625 120.80716705322266 95.25592041015625 C 127.40821838378906 99.11847686767578 131.05665588378906 104.91702270507812 131.36691284179688 112.6383285522461 C 130.9998016357422 123.16242218017578 122.7034912109375 130.86663818359375 111.52092742919922 131.17068481445312 C 107.86235046386719 131.0801544189453 104.95592498779297 130.27139282226562 101.95391845703125 129.07919311523438" stroke-width="1.0" fill="rgb(253, 254, 254)" opacity="0.9980476"/>
  </g>
</svg>
