<?xml version="1.0" ?>
<svg xmlns="http://www.w3.org/2000/svg" version="1.1" width="224" height="224">
  <defs/>
  <g>
    <path d="M 39.6796875 165.7421112060547 C 36.18395233154297 161.2760009765625 36.14764404296875 160.94949340820312 36.03339385986328 154.2923126220703 C 36.20068359375 147.7315673828125 36.02635955810547 147.17724609375 31.88982391357422 140.70620727539062 L 28.0 134.06146240234375 L 28.074249267578125 119.81161499023438 C 28.59375 103.6597900390625 29.041336059570312 102.03600311279297 36.26139831542969 98.44235229492188 C 39.87721252441406 96.35159301757812 40.723426818847656 96.2843246459961 59.31298828125 97.07921600341797 C 79.76476287841797 97.19395446777344 89.7086410522461 98.52306365966797 91.37762451171875 100.39387512207031 C 91.76376342773438 100.99169158935547 94.44796752929688 101.9359130859375 97.0726089477539 102.61827850341797 C 102.69346618652344 103.76849365234375 103.0683364868164 103.5235595703125 104.04519653320312 98.24556732177734 C 104.59371948242188 96.55638122558594 104.36483764648438 94.60681915283203 103.59463500976562 93.76367950439453 C 103.0286865234375 92.74569702148438 102.54718017578125 90.39928436279297 102.59839630126953 88.48872375488281 L 102.55126953125 84.7177963256836 L 108.90272521972656 84.36897277832031 L 114.8675308227539 84.10542297363281 L 115.12973022460938 79.46516418457031 L 115.54183197021484 74.59748840332031 L 129.79583740234375 74.57658386230469 L 129.7986602783203 55.20927810668945 L 132.55564880371094 54.584659576416016 C 135.6612091064453 53.675662994384766 152.63607788085938 53.70375442504883 154.96998596191406 54.524810791015625 C 156.33209228515625 55.09758758544922 156.37184143066406 56.86559295654297 156.31246948242188 69.287109375 L 156.18214416503906 82.79195404052734 L 158.65232849121094 82.81333923339844 C 159.8332977294922 82.7274169921875 162.29403686523438 83.41331481933594 164.184326171875 84.14743041992188 C 166.00247192382812 84.90437316894531 170.4829559326172 85.46849060058594 175.47393798828125 85.69629669189453 C 187.45220947265625 85.70310974121094 187.29876708984375 85.63971710205078 187.22311401367188 99.50617980957031 L 187.17225646972656 110.29479217529297 L 196.0 114.97029876708984 L 195.8530731201172 154.0968780517578 L 190.02420043945312 154.095947265625 L 189.89620971679688 170.22894287109375 L 43.80298614501953 170.3243408203125 L 39.6796875 165.7421112060547" stroke-width="1.0" fill="rgb(237, 240, 242)" opacity="0.95516354"/>
    <path d="M 41.63276672363281 164.04505920410156 C 38.42992401123047 161.19168090820312 38.77238464355469 160.06494140625 39.015533447265625 153.82562255859375 C 39.432830810546875 147.65463256835938 38.866310119628906 146.88783264160156 34.45508575439453 140.7218017578125 L 30.61541748046875 133.83033752441406 L 30.562049865722656 106.01972961425781 L 33.41255187988281 102.65828704833984 L 36.790489196777344 99.88127136230469 L 45.238792419433594 98.37434387207031 C 50.48499298095703 99.28202819824219 58.66651916503906 100.48518371582031 65.49847412109375 99.46350860595703 C 79.84078216552734 99.67506408691406 86.16146087646484 100.22809600830078 88.78323364257812 102.25939178466797 C 90.34051513671875 104.60392761230469 103.48536682128906 106.2119369506836 104.64561462402344 106.39920043945312 C 105.12532043457031 104.62733459472656 105.89229583740234 100.79071807861328 106.3864974975586 96.19271087646484 L 104.81678009033203 87.10015106201172 L 111.99067687988281 86.88646697998047 L 117.37979888916016 87.04685974121094 L 117.19447326660156 81.91880798339844 L 117.23255157470703 76.9494857788086 L 127.28448486328125 77.01515197753906 L 127.78961944580078 81.9666976928711 C 127.21112060546875 85.93962097167969 127.33512115478516 86.4000473022461 129.5458984375 86.40723419189453 L 131.99497985839844 86.5113296508789 L 132.00686645507812 57.90666198730469 L 135.81155395507812 56.88508987426758 C 140.6425018310547 55.8768424987793 146.99510192871094 55.851280212402344 150.7862548828125 57.05685043334961 L 154.27806091308594 58.01073455810547 L 154.27835083007812 71.29118347167969 L 153.9088897705078 85.25201416015625 L 158.940673828125 85.18757629394531 C 161.26190185546875 85.89800262451172 164.10777282714844 86.71002960205078 165.07542419433594 87.48561096191406 C 166.3131103515625 88.22708129882812 170.58563232421875 88.31268310546875 175.19671630859375 87.95777893066406 C 180.40386962890625 87.8651351928711 182.93942260742188 88.11088562011719 183.94168090820312 89.39827728271484 C 185.04940795898438 89.99127197265625 184.88290405273438 95.56050872802734 184.82562255859375 101.78453063964844 L 184.8023223876953 112.02767944335938 L 189.45883178710938 113.88264465332031 L 192.6693572998047 115.85111999511719 L 192.774169921875 133.42430114746094 L 192.72076416015625 151.8798370361328 L 190.2449951171875 152.0255126953125 L 187.06900024414062 152.50286865234375 L 187.2833251953125 168.22901916503906 L 44.888702392578125 168.2162628173828 L 41.63276672363281 164.04505920410156" stroke-width="1.0" fill="rgb(22, 19, 22)" opacity="0.993422"/>
    <path d="M 146.360107421875 111.09796905517578 C 134.2601318359375 110.78886413574219 109.8926010131836 108.78823852539062 106.43240356445312 107.41455078125 C 104.27701568603516 105.42752075195312 115.28166198730469 105.7148666381836 131.61196899414062 105.95474243164062 L 160.04217529296875 105.72650146484375 L 160.06478881835938 109.05223083496094 C 160.47918701171875 111.29327392578125 160.1580047607422 111.77228546142578 157.1551513671875 111.46984100341797 C 155.1939697265625 111.29658508300781 150.58447265625 111.02975463867188 146.360107421875 111.09796905517578" stroke-width="1.0" fill="rgb(249, 248, 244)" opacity="0.9820909"/>
    <path d="M 109.48768615722656 95.85746002197266 L 109.43896484375 93.54512786865234 L 158.19802856445312 93.49192810058594 L 158.38055419921875 99.08631896972656 L 109.3946304321289 98.94800567626953 L 109.48768615722656 95.85746002197266" stroke-width="1.0" fill="rgb(250, 247, 245)" opacity="0.98406374"/>
    <path d="M 161.85382080078125 95.7220458984375 L 161.96755981445312 93.37911987304688 L 181.77590942382812 93.52030944824219 L 181.84791564941406 99.09697723388672 L 162.0498046875 98.743896484375 L 161.85382080078125 95.7220458984375" stroke-width="1.0" fill="rgb(248, 246, 243)" opacity="0.97768"/>
    <path d="M 43.73664093017578 153.62808227539062 C 43.75287628173828 147.48959350585938 43.50408935546875 146.72463989257812 39.967262268066406 140.599365234375 L 36.019493103027344 134.20790100097656 L 35.62535095214844 120.98385620117188 C 35.649444580078125 110.7928466796875 35.83729553222656 107.10565185546875 36.56365203857422 105.90067291259766 C 38.24718475341797 103.7996826171875 44.18348693847656 102.39447784423828 48.812225341796875 103.20207977294922 C 56.282108306884766 104.27696228027344 55.8351936340332 102.02442169189453 55.576114654541016 133.05177307128906 L 55.60822677612305 160.51113891601562 L 43.69383239746094 160.43673706054688 L 43.73664093017578 153.62808227539062" stroke-width="1.0" fill="rgb(111, 110, 108)" opacity="0.9929366"/>
    <path d="M 60.456459045410156 132.52880859375 L 60.33767318725586 104.93681335449219 L 70.32293701171875 105.02141571044922 C 78.50241088867188 104.90531921386719 83.63905334472656 105.81752014160156 95.78265380859375 108.67010498046875 C 123.25041961669922 114.41085815429688 144.46250915527344 117.02560424804688 172.27395629882812 117.87416076660156 L 188.1721954345703 118.57766723632812 L 188.13995361328125 132.9061279296875 L 188.80484008789062 146.6964569091797 L 185.7025146484375 147.2190704345703 L 182.61822509765625 147.37899780273438 L 182.46041870117188 154.0205078125 L 182.05926513671875 160.34226989746094 L 60.387351989746094 160.27874755859375 L 60.456459045410156 132.52880859375" stroke-width="1.0" fill="rgb(110, 110, 108)" opacity="0.99005806"/>
    <path d="M 163.09628295898438 108.44303131103516 C 162.96864318847656 106.34656524658203 163.654052734375 106.05500030517578 172.49208068847656 105.80406188964844 C 181.14088439941406 106.1758041381836 181.7595977783203 106.22042846679688 181.82652282714844 108.10906982421875 C 181.85968017578125 110.71698760986328 181.1160430908203 110.8526611328125 172.41909790039062 111.04576873779297 C 163.66046142578125 110.80278015136719 163.0807647705078 110.80875396728516 163.09628295898438 108.44303131103516" stroke-width="1.0" fill="rgb(174, 179, 187)" opacity="0.98196167"/>
  </g>
</svg>
