<?xml version="1.0" ?>
<svg xmlns="http://www.w3.org/2000/svg" version="1.1" width="224" height="224">
  <defs/>
  <g>
    <path d="M 33.98915100097656 59.7375602722168 C 77.63929748535156 59.7375602722168 121.2886962890625 59.7375602722168 164.9388427734375 59.7375602722168 C 173.6052703857422 60.08397674560547 179.97442626953125 66.452392578125 180.3208465576172 75.11956024169922 C 180.3208465576172 106.6741943359375 180.3208465576172 138.2288360595703 180.3208465576172 169.78347778320312 C 179.97442626953125 178.45138549804688 173.6067657470703 184.81906127929688 164.9388427734375 185.1654815673828 C 121.2886962890625 185.1654815673828 77.63929748535156 185.1654815673828 33.98915100097656 185.1654815673828 C 31.52764129638672 184.94149780273438 29.452125549316406 184.254638671875 28.907852172851562 181.53631591796875 C 28.803329467773438 181.01219177246094 28.811546325683594 180.47166442871094 28.763015747070312 179.94009399414062 C 28.763015747070312 141.6146240234375 28.763015747070312 103.2891616821289 28.763015747070312 64.96294403076172 C 28.811546325683594 64.43136596679688 28.803329467773438 63.89084243774414 28.907852172851562 63.36673355102539 C 29.452125549316406 60.648399353027344 31.52764129638672 59.9615364074707 33.98915100097656 59.7375602722168 C 33.98915100097656 59.7375602722168 33.98915100097656 59.7375602722168 33.98915100097656 59.7375602722168" stroke-width="0.0" fill="rgb(51, 51, 51)" opacity="1.0"/>
    <path d="M 33.98915100097656 64.96294403076172 C 77.63929748535156 64.96294403076172 121.2886962890625 64.96294403076172 164.9388427734375 64.96294403076172 C 170.7406005859375 65.345947265625 174.7117156982422 69.31706237792969 175.0947265625 75.11956024169922 C 175.0947265625 106.6741943359375 175.0947265625 138.2288360595703 175.0947265625 169.78347778320312 C 174.7117156982422 175.5874786376953 170.74209594726562 179.55709838867188 164.9388427734375 179.94009399414062 C 121.2886962890625 179.94009399414062 77.63929748535156 179.94009399414062 33.98915100097656 179.94009399414062 C 33.98915100097656 141.6146240234375 33.98915100097656 103.2891616821289 33.98915100097656 64.96294403076172" stroke-width="0.0" fill="rgb(51, 51, 51)" opacity="1.0"/>
    <path d="M 39.21527862548828 70.1898193359375 C 39.21527862548828 105.03095245361328 39.21527862548828 139.8720703125 39.21527862548828 174.7132110595703 C 81.12289428710938 174.7132110595703 123.03124237060547 174.7132110595703 164.9388427734375 174.7132110595703 C 167.88638305664062 174.348876953125 169.50274658203125 172.73101806640625 169.86782836914062 169.78347778320312 C 169.86782836914062 138.2288360595703 169.86782836914062 106.6741943359375 169.86782836914062 75.11956024169922 C 169.50350952148438 72.17350769042969 167.88414001464844 70.55490112304688 164.9388427734375 70.1898193359375 C 123.03124237060547 70.1898193359375 81.12289428710938 70.1898193359375 39.21527862548828 70.1898193359375" stroke-width="0.0" fill="rgb(202, 254, 147)" opacity="1.0"/>
    <path d="M 154.19168090820312 96.32197570800781 C 166.3857421875 96.32197570800781 178.57980346679688 96.32197570800781 190.7731170654297 96.32197570800781 C 191.30618286132812 96.3705062866211 191.84596252441406 96.363037109375 192.37081909179688 96.46755981445312 C 195.0891571044922 97.0110855102539 195.77601623535156 99.08660125732422 196.0 101.54885864257812 C 196.0 115.48471069335938 196.0 129.42132568359375 196.0 143.357177734375 C 195.77601623535156 145.81942749023438 195.0891571044922 147.8949432373047 192.37081909179688 148.43846130371094 C 191.84596252441406 148.54298400878906 191.30618286132812 148.5355224609375 190.7731170654297 148.58331298828125 C 178.57980346679688 148.58331298828125 166.3857421875 148.58331298828125 154.19168090820312 148.58331298828125 C 149.75096130371094 148.47056579589844 145.4931640625 147.60899353027344 141.58401489257812 145.4199981689453 C 127.19124603271484 137.3590545654297 123.52100372314453 117.43256378173828 134.65789794921875 105.0839614868164 C 136.9730682373047 102.51643371582031 139.73695373535156 100.33340454101562 142.8539581298828 98.82081604003906 C 146.43385314941406 97.0842514038086 150.24371337890625 96.42276763916016 154.19168090820312 96.32197570800781 C 154.19168090820312 96.32197570800781 154.19168090820312 96.32197570800781 154.19168090820312 96.32197570800781" stroke-width="0.0" fill="rgb(51, 51, 51)" opacity="1.0"/>
    <path d="M 44.442161560058594 38.83452224731445 C 77.64079284667969 38.83452224731445 110.83867645263672 38.83452224731445 144.03656005859375 38.83452224731445 C 152.70074462890625 39.18019104003906 159.07139587402344 45.548606872558594 159.41781616210938 54.21353530883789 C 159.41781616210938 57.79642105102539 159.41781616210938 61.38005828857422 159.41781616210938 64.96294403076172 C 159.19383239746094 67.42520141601562 158.50697326660156 69.50071716308594 155.78863525390625 70.04498291015625 C 155.2645263671875 70.14950561523438 154.7239990234375 70.14129638671875 154.19168090820312 70.1898193359375 C 117.60875701904297 70.1898193359375 81.02583312988281 70.1898193359375 44.442161560058594 70.1898193359375 C 40.21570587158203 70.06887817382812 35.810081481933594 69.39694213867188 32.6826171875 66.27022552490234 C 30.426414489746094 64.01403045654297 29.345352172851562 60.91269302368164 28.956382751464844 57.8016471862793 C 28.0 50.14834976196289 31.44477081298828 42.486839294433594 39.04505920410156 39.74162673950195 C 40.80701446533203 39.10478591918945 42.58464050292969 38.9084358215332 44.442161560058594 38.83452224731445 C 44.442161560058594 38.83452224731445 44.442161560058594 38.83452224731445 44.442161560058594 38.83452224731445" stroke-width="0.0" fill="rgb(51, 51, 51)" opacity="1.0"/>
    <path d="M 154.19168090820312 101.54885864257812 C 166.3857421875 101.54885864257812 178.57980346679688 101.54885864257812 190.7731170654297 101.54885864257812 C 190.7731170654297 115.48471069335938 190.7731170654297 129.42132568359375 190.7731170654297 143.357177734375 C 178.57980346679688 143.357177734375 166.3857421875 143.357177734375 154.19168090820312 143.357177734375 C 148.6131591796875 143.1563262939453 143.4027099609375 141.22938537597656 139.40695190429688 137.23289489746094 C 129.69903564453125 127.52423095703125 132.12545776367188 110.67070007324219 144.181396484375 104.09846496582031 C 147.30812072753906 102.39399719238281 150.6610565185547 101.67577362060547 154.19168090820312 101.54885864257812 C 154.19168090820312 101.54885864257812 154.19168090820312 101.54885864257812 154.19168090820312 101.54885864257812" stroke-width="0.0" fill="rgb(51, 51, 51)" opacity="1.0"/>
    <path d="M 44.442161560058594 44.06065368652344 C 77.64079284667969 44.06065368652344 110.83867645263672 44.06065368652344 144.03656005859375 44.06065368652344 C 149.83682250976562 44.44365692138672 153.8079376220703 48.412532806396484 154.19168090820312 54.21353530883789 C 154.19168090820312 57.79642105102539 154.19168090820312 61.38005828857422 154.19168090820312 64.96294403076172 C 117.60875701904297 64.96294403076172 81.02583312988281 64.96294403076172 44.442161560058594 64.96294403076172 C 41.867919921875 64.7748031616211 39.57514190673828 64.13198852539062 37.583984375 62.399898529052734 C 32.423545837402344 57.91289138793945 33.015594482421875 49.468204498291016 38.750152587890625 45.74422073364258 C 40.52106475830078 44.59446334838867 42.37335205078125 44.21295928955078 44.442161560058594 44.06065368652344 C 44.442161560058594 44.06065368652344 44.442161560058594 44.06065368652344 44.442161560058594 44.06065368652344" stroke-width="0.0" fill="rgb(51, 51, 51)" opacity="1.0"/>
    <path d="M 154.19168090820312 106.77498626708984 C 154.19168090820312 106.77498626708984 154.19168090820312 106.77498626708984 154.19168090820312 106.77498626708984 C 151.4136199951172 106.88548278808594 148.80429077148438 107.39241790771484 146.37562561035156 108.8146743774414 C 136.51690673828125 114.58805847167969 135.97787475585938 128.756103515625 145.23782348632812 135.35223388671875 C 147.92779541015625 137.2687225341797 150.9380340576172 138.00112915039062 154.19168090820312 138.13104248046875 C 164.64395141601562 138.13104248046875 175.09547424316406 138.13104248046875 185.5477294921875 138.13104248046875 C 185.5477294921875 127.67877197265625 185.5477294921875 117.22724914550781 185.5477294921875 106.77498626708984 C 175.09547424316406 106.77498626708984 164.64395141601562 106.77498626708984 154.19168090820312 106.77498626708984" stroke-width="0.0" fill="rgb(202, 254, 147)" opacity="1.0"/>
    <path d="M 44.442161560058594 49.28678512573242 C 44.442161560058594 49.28678512573242 44.442161560058594 49.28678512573242 44.442161560058594 49.28678512573242 C 42.999000549316406 49.418190002441406 41.61631774902344 49.498817443847656 40.521812438964844 50.59257507324219 C 38.67400360107422 52.43963623046875 38.67475128173828 56.583961486816406 40.521812438964844 58.431026458740234 C 41.61631774902344 59.52552795410156 42.999000549316406 59.60615921020508 44.442161560058594 59.7375602722168 C 79.28328704833984 59.7375602722168 114.12442016601562 59.7375602722168 148.96481323242188 59.7375602722168 C 148.96481323242188 57.89646911621094 148.96481323242188 56.054630279541016 148.96481323242188 54.21353530883789 C 148.59971618652344 51.26972961425781 146.9796142578125 49.651123046875 144.03656005859375 49.28678512573242 C 110.83867645263672 49.28678512573242 77.64079284667969 49.28678512573242 44.442161560058594 49.28678512573242" stroke-width="0.0" fill="rgb(202, 254, 147)" opacity="1.0"/>
    <path d="M 154.19168090820312 114.61194610595703 C 154.19168090820312 114.61194610595703 154.19168090820312 114.61194610595703 154.19168090820312 114.61194610595703 C 156.53224182128906 114.75006103515625 158.91236877441406 115.07109832763672 160.48020935058594 117.03164672851562 C 164.57525634765625 122.15251159667969 160.6541748046875 130.30154418945312 154.19168090820312 130.2910919189453 C 152.70970153808594 130.28810119628906 151.1776885986328 130.09100341796875 149.83607482910156 129.41981506347656 C 145.8216552734375 127.4129867553711 145.33712768554688 121.22673797607422 147.82101440429688 117.86558532714844 C 149.41351318359375 115.70943450927734 151.5957794189453 114.80158233642578 154.19168090820312 114.61194610595703 C 154.19168090820312 114.61194610595703 154.19168090820312 114.61194610595703 154.19168090820312 114.61194610595703" stroke-width="0.0" fill="rgb(51, 51, 51)" opacity="1.0"/>
    <path d="M 159.4155731201172 122.45114135742188 C 159.4155731201172 122.45114135742188 159.4155731201172 122.45114135742188 159.4155731201172 122.45114135742188 C 159.16099548339844 124.34524536132812 158.5808868408203 125.94219970703125 156.82864379882812 126.96428680419922 C 153.40328979492188 128.96141052246094 148.96481323242188 126.41554260253906 148.96481323242188 122.45114135742188 C 148.96481323242188 118.48675537109375 153.40403747558594 115.94236755371094 156.82864379882812 117.93875122070312 C 158.5808868408203 118.96083068847656 159.16099548339844 120.55704498291016 159.4155731201172 122.45114135742188 C 159.4155731201172 122.45114135742188 159.4155731201172 122.45114135742188 159.4155731201172 122.45114135742188" stroke-width="0.0" fill="rgb(51, 51, 51)" opacity="1.0"/>
    <path d="M 154.19168090820312 119.83808135986328 C 154.19168090820312 119.83808135986328 154.19168090820312 119.83808135986328 154.19168090820312 119.83808135986328 C 153.11509704589844 120.04339599609375 152.234130859375 120.32634735107422 151.76974487304688 121.44847106933594 C 151.0209197998047 123.25820922851562 152.21173095703125 125.16201782226562 154.19168090820312 125.06495666503906 C 156.3299102783203 124.96043395996094 157.5155029296875 123.00959777832031 156.5120849609375 120.99977111816406 C 155.97006225585938 119.91497802734375 155.231689453125 120.04637908935547 154.19168090820312 119.83808135986328 C 154.19168090820312 119.83808135986328 154.19168090820312 119.83808135986328 154.19168090820312 119.83808135986328" stroke-width="0.0" fill="rgb(0, 0, 0)" opacity="1.0"/>
  </g>
</svg>
