<?xml version="1.0" ?>
<svg xmlns="http://www.w3.org/2000/svg" version="1.1" width="224" height="224">
  <defs/>
  <g>
    <path d="M 54.05338668823242 38.50070571899414 C 92.55445861816406 38.50070571899414 131.05404663085938 38.50070571899414 169.55511474609375 38.50070571899414 C 171.46084594726562 38.58320617675781 173.2743377685547 38.794700622558594 175.06158447265625 39.51169967651367 C 182.07705688476562 42.32719039916992 185.09429931640625 49.997406005859375 185.30503845214844 57.03912353515625 C 185.3035430908203 89.3594741821289 185.30279541015625 121.68057250976562 185.30128479003906 154.0009307861328 C 185.10104370117188 155.61866760253906 184.76654052734375 156.4271697998047 183.76455688476562 157.71340942382812 C 171.51486206054688 169.96310424804688 159.26515197753906 182.21279907226562 147.01547241210938 194.46249389648438 C 145.72921752929688 195.46524047851562 144.9207305908203 195.79974365234375 143.30223083496094 196.0 C 110.0526351928711 196.0 76.80303192138672 196.0 43.55268096923828 196.0 C 43.01868438720703 195.9512481689453 42.47569274902344 195.95948791503906 41.949188232421875 195.8544921875 C 39.21845245361328 195.30775451660156 38.52845764160156 193.22276306152344 38.30345916748047 190.749267578125 C 38.30345916748047 146.17921447753906 38.30345916748047 101.60916900634766 38.30345916748047 57.03912353515625 C 38.471458435058594 49.74840545654297 40.30220031738281 41.775943756103516 48.12016296386719 39.32270050048828 C 50.06190490722656 38.71295928955078 52.03364181518555 38.56520462036133 54.05338668823242 38.50070571899414 C 54.05338668823242 38.50070571899414 54.05338668823242 38.50070571899414 54.05338668823242 38.50070571899414" stroke-width="0.0" fill="rgb(51, 51, 51)" opacity="1.0"/>
    <path d="M 54.05488586425781 43.75068283081055 C 92.55445861816406 43.75068283081055 131.05477905273438 43.75068283081055 169.55511474609375 43.75068283081055 C 171.04385375976562 43.86542892456055 172.35784912109375 44.04018020629883 173.7115936279297 44.725677490234375 C 178.267822265625 47.03266525268555 179.84732055664062 52.30739212036133 180.0543212890625 57.03912353515625 C 180.0543212890625 89.3594741821289 180.05282592773438 121.68057250976562 180.05282592773438 154.0009307861328 C 167.8023681640625 166.25064086914062 155.55267333984375 178.5003204345703 143.302978515625 190.749267578125 C 110.05338287353516 190.749267578125 76.80378723144531 190.749267578125 43.553436279296875 190.749267578125 C 43.553436279296875 146.17921447753906 43.553436279296875 101.60916900634766 43.553436279296875 57.03912353515625 C 43.76118469238281 52.30739212036133 45.340675354003906 47.033416748046875 49.896156311035156 44.7264289855957 C 51.250648498535156 44.04018020629883 52.564640045166016 43.86542892456055 54.05488586425781 43.75068283081055 C 54.05488586425781 43.75068283081055 54.05488586425781 43.75068283081055 54.05488586425781 43.75068283081055" stroke-width="0.0" fill="rgb(51, 51, 51)" opacity="1.0"/>
    <path d="M 54.05338668823242 49.00065612792969 C 54.05338668823242 49.00065612792969 54.05338668823242 49.00065612792969 54.05338668823242 49.00065612792969 C 53.060386657714844 49.10190963745117 52.65239334106445 49.045658111572266 51.75689697265625 49.50315475463867 C 49.05390930175781 50.88240051269531 48.91741180419922 54.42463302612305 48.80340576171875 57.03912353515625 C 48.80340576171875 99.85942840576172 48.80340576171875 142.6797332763672 48.80340576171875 185.5000457763672 C 79.57801818847656 185.5000457763672 110.35263061523438 185.5000457763672 141.1272430419922 185.5000457763672 C 152.35244750976562 174.27560424804688 163.57688903808594 163.0511474609375 174.80209350585938 151.82594299316406 C 174.80284118652344 120.2308349609375 174.80435180664062 88.63497924804688 174.80508422851562 57.03912353515625 C 174.69110107421875 54.42463302612305 174.55459594726562 50.88240051269531 171.85159301757812 49.50315475463867 C 170.9561004638672 49.045658111572266 170.54811096191406 49.10190963745117 169.55511474609375 49.00065612792969 C 131.05404663085938 49.00065612792969 92.55445861816406 49.00065612792969 54.05338668823242 49.00065612792969" stroke-width="0.0" fill="rgb(231, 246, 248)" opacity="1.0"/>
    <path d="M 54.05338668823242 38.50070571899414 C 92.55445861816406 38.50070571899414 131.05404663085938 38.50070571899414 169.55511474609375 38.50070571899414 C 171.46084594726562 38.58320617675781 173.2743377685547 38.794700622558594 175.06158447265625 39.51169967651367 C 182.07705688476562 42.32719039916992 185.09429931640625 49.997406005859375 185.30503845214844 57.03912353515625 C 185.3035430908203 64.85933685302734 185.30279541015625 72.6802978515625 185.30128479003906 80.50051879882812 C 185.0762939453125 82.97325134277344 184.38705444335938 85.05824279785156 181.65631103515625 85.60424041748047 C 181.1298065185547 85.70924377441406 180.58680725097656 85.70173645019531 180.05282592773438 85.75048828125 C 134.55276489257812 85.75048828125 89.05272674560547 85.75048828125 43.55268096923828 85.75048828125 C 43.01868438720703 85.70173645019531 42.47569274902344 85.70924377441406 41.949188232421875 85.60424041748047 C 39.21845245361328 85.05824279785156 38.52845764160156 82.97250366210938 38.30345916748047 80.49976348876953 C 38.30345916748047 72.67955017089844 38.30345916748047 64.85933685302734 38.30345916748047 57.03912353515625 C 38.471458435058594 49.74840545654297 40.30220031738281 41.775943756103516 48.12016296386719 39.32270050048828 C 50.06190490722656 38.71295928955078 52.03364181518555 38.56520462036133 54.05338668823242 38.50070571899414 C 54.05338668823242 38.50070571899414 54.05338668823242 38.50070571899414 54.05338668823242 38.50070571899414" stroke-width="0.0" fill="rgb(51, 51, 51)" opacity="1.0"/>
    <path d="M 143.30223083496094 148.75021362304688 C 155.5519256591797 148.75021362304688 167.8023681640625 148.75021362304688 180.05282592773438 148.75021362304688 C 181.25131225585938 148.85971069335938 181.88880920410156 148.79444885253906 182.96881103515625 149.33370971679688 C 186.24029541015625 150.97019958496094 185.6147918701172 155.3381805419922 183.76455688476562 157.71340942382812 C 171.51486206054688 169.96310424804688 159.26515197753906 182.21279907226562 147.01547241210938 194.46249389648438 C 146.3397216796875 195.03924560546875 145.61447143554688 195.5657501220703 144.8397216796875 196.0 C 143.8152313232422 196.0 142.78997802734375 196.0 141.76548767089844 196.0 C 139.52073669433594 194.74224853515625 138.37100219726562 193.32174682617188 138.05300903320312 190.749267578125 C 138.05300903320312 178.5003204345703 138.05300903320312 166.25064086914062 138.05300903320312 154.0009307861328 C 138.27725219726562 151.5281982421875 138.96725463867188 149.44244384765625 141.69798278808594 148.89645385742188 C 142.2244873046875 148.7914581298828 142.76748657226562 148.7989501953125 143.30223083496094 148.75021362304688 C 143.30223083496094 148.75021362304688 143.30223083496094 148.75021362304688 143.30223083496094 148.75021362304688" stroke-width="0.0" fill="rgb(51, 51, 51)" opacity="1.0"/>
    <path d="M 90.80322265625 106.74889373779297 C 103.05291748046875 106.74889373779297 115.30260467529297 106.74889373779297 127.55154418945312 106.74889373779297 C 128.7508087158203 106.8576431274414 129.38905334472656 106.79239654541016 130.46829223632812 107.3316421508789 C 133.2987823486328 108.74688720703125 133.0955352783203 112.34761810302734 132.00428771972656 114.78060913085938 C 123.25407409667969 128.78079223632812 114.50460815429688 142.7802276611328 105.7551498413086 156.78041076660156 C 102.78741455078125 154.92567443847656 99.81893157958984 153.0701904296875 96.8511962890625 151.21543884277344 C 103.92740631103516 139.8927459716797 111.00437927246094 128.57080078125 118.08059692382812 117.24810028076172 C 108.98838806152344 117.24810028076172 99.89543151855469 117.24810028076172 90.80322265625 117.24810028076172 C 90.80322265625 113.74861145019531 90.80322265625 110.24838256835938 90.80322265625 106.74889373779297" stroke-width="0.0" fill="rgb(51, 51, 51)" opacity="1.0"/>
    <path d="M 54.05338668823242 43.75068283081055 C 92.55445861816406 43.75068283081055 131.05404663085938 43.75068283081055 169.55511474609375 43.75068283081055 C 171.04385375976562 43.86542892456055 172.35784912109375 44.04018020629883 173.71084594726562 44.725677490234375 C 178.26707458496094 47.03266525268555 179.84732055664062 52.306644439697266 180.0543212890625 57.03912353515625 C 180.0543212890625 64.85933685302734 180.05282592773438 72.67955017089844 180.05282592773438 80.49976348876953 C 134.55276489257812 80.49976348876953 89.05272674560547 80.49976348876953 43.55268096923828 80.49976348876953 C 43.55268096923828 72.67955017089844 43.55268096923828 64.85933685302734 43.55268096923828 57.03912353515625 C 43.76042938232422 52.30739212036133 45.340675354003906 47.033416748046875 49.896156311035156 44.7264289855957 C 51.24989700317383 44.04018020629883 52.56389236450195 43.86542892456055 54.05338668823242 43.75068283081055 C 54.05338668823242 43.75068283081055 54.05338668823242 43.75068283081055 54.05338668823242 43.75068283081055" stroke-width="0.0" fill="rgb(51, 51, 51)" opacity="1.0"/>
    <path d="M 143.302978515625 154.0009307861328 C 155.55267333984375 154.0009307861328 167.8023681640625 154.0009307861328 180.05282592773438 154.0009307861328 C 167.8023681640625 166.25064086914062 155.55267333984375 178.5003204345703 143.302978515625 190.749267578125 C 143.302978515625 178.5003204345703 143.302978515625 166.25064086914062 143.302978515625 154.0009307861328" stroke-width="0.0" fill="rgb(51, 51, 51)" opacity="1.0"/>
    <path d="M 54.05338668823242 49.00065612792969 C 54.05338668823242 49.00065612792969 54.05338668823242 49.00065612792969 54.05338668823242 49.00065612792969 C 53.060386657714844 49.10190963745117 52.65239334106445 49.045658111572266 51.75689697265625 49.50315475463867 C 49.05390930175781 50.88240051269531 48.91741180419922 54.42463302612305 48.80340576171875 57.03912353515625 C 48.80340576171875 63.109596252441406 48.80340576171875 69.18006896972656 48.80340576171875 75.24978637695312 C 90.80322265625 75.24978637695312 132.80303955078125 75.24978637695312 174.80284118652344 75.24978637695312 C 174.8035888671875 69.18006896972656 174.80435180664062 63.109596252441406 174.80508422851562 57.03912353515625 C 174.69110107421875 54.42463302612305 174.55459594726562 50.88240051269531 171.85159301757812 49.50315475463867 C 170.9561004638672 49.045658111572266 170.54811096191406 49.10190963745117 169.55511474609375 49.00065612792969 C 131.05404663085938 49.00065612792969 92.55445861816406 49.00065612792969 54.05338668823242 49.00065612792969" stroke-width="0.0" fill="rgb(254, 193, 193)" opacity="1.0"/>
    <path d="M 43.553436279296875 75.24978637695312 C 89.05347442626953 75.24978637695312 134.55276489257812 75.24978637695312 180.05282592773438 75.24978637695312 C 181.5025634765625 75.38179016113281 182.89080810546875 75.46353912353516 183.9895477294922 76.56228637695312 C 185.84579467773438 78.41852569580078 185.84503173828125 82.58175659179688 183.9895477294922 84.43724822998047 C 182.89080810546875 85.5367431640625 181.5025634765625 85.61849212646484 180.05282592773438 85.75048828125 C 134.55276489257812 85.75048828125 89.05347442626953 85.75048828125 43.553436279296875 85.75048828125 C 42.10369110107422 85.61849212646484 40.71544647216797 85.5367431640625 39.61595153808594 84.43724822998047 C 37.760459899902344 82.58175659179688 37.75971221923828 78.41852569580078 39.61595153808594 76.56228637695312 C 40.71544647216797 75.46353912353516 42.10369110107422 75.38179016113281 43.553436279296875 75.24978637695312 C 43.553436279296875 75.24978637695312 43.553436279296875 75.24978637695312 43.553436279296875 75.24978637695312" stroke-width="0.0" fill="rgb(51, 51, 51)" opacity="1.0"/>
    <path d="M 148.55221557617188 159.25091552734375 C 148.55221557617188 165.52537536621094 148.55221557617188 171.7998504638672 148.55221557617188 178.0750732421875 C 154.82742309570312 171.7998504638672 161.10189819335938 165.52537536621094 167.37637329101562 159.25091552734375 C 161.10189819335938 159.25091552734375 154.82742309570312 159.25091552734375 148.55221557617188 159.25091552734375" stroke-width="0.0" fill="rgb(232, 246, 249)" opacity="1.0"/>
    <path d="M 75.05253601074219 28.0 C 78.55277252197266 28.0 82.05300903320312 28.0 85.55323791503906 28.0 C 85.55323791503906 40.249698638916016 85.55323791503906 52.499393463134766 85.55323791503906 64.74833679199219 C 82.05300903320312 64.74833679199219 78.55277252197266 64.74833679199219 75.05253601074219 64.74833679199219 C 75.05253601074219 52.499393463134766 75.05253601074219 40.249698638916016 75.05253601074219 28.0" stroke-width="0.0" fill="rgb(51, 51, 51)" opacity="1.0"/>
    <path d="M 138.05300903320312 28.0 C 141.55323791503906 28.0 145.05348205566406 28.0 148.55296325683594 28.0 C 148.55296325683594 40.249698638916016 148.55296325683594 52.499393463134766 148.55296325683594 64.74833679199219 C 145.05348205566406 64.74833679199219 141.55323791503906 64.74833679199219 138.05300903320312 64.74833679199219 C 138.05300903320312 52.499393463134766 138.05300903320312 40.249698638916016 138.05300903320312 28.0" stroke-width="0.0" fill="rgb(51, 51, 51)" opacity="1.0"/>
  </g>
</svg>
