<?xml version="1.0" ?>
<svg xmlns="http://www.w3.org/2000/svg" version="1.1" width="224" height="224">
  <defs/>
  <g>
    <path d="M 67.19938659667969 133.71336364746094 C 69.818603515625 133.71336364746094 72.43704223632812 133.71336364746094 75.05548858642578 133.71336364746094 C 76.20742797851562 134.09681701660156 77.76272583007812 135.2916259765625 76.34136962890625 136.7129669189453 C 76.02220153808594 137.0329132080078 75.48411560058594 136.99923706054688 75.05548858642578 137.1416015625 C 72.72866821289062 137.1416015625 70.40106964111328 137.1416015625 68.0742416381836 137.1416015625 C 56.47225570678711 153.1461944580078 44.870262145996094 169.1500244140625 33.26750946044922 185.15460205078125 C 85.74205780029297 185.15460205078125 138.21585083007812 185.15460205078125 190.69039916992188 185.15460205078125 C 178.95523071289062 169.1500244140625 167.22006225585938 153.1461944580078 155.4856414794922 137.1416015625 C 152.86949157714844 137.1416015625 150.2533416748047 137.1416015625 147.63719177246094 137.1416015625 C 147.2085723876953 136.99923706054688 146.6704864501953 137.0329132080078 146.351318359375 136.7129669189453 C 144.92996215820312 135.2916259765625 146.4844970703125 134.09681701660156 147.63719177246094 133.71336364746094 C 150.54266357421875 133.71336364746094 153.44891357421875 133.71336364746094 156.35438537597656 133.71336364746094 C 156.85801696777344 133.8258819580078 157.34710693359375 134.0738525390625 157.7366943359375 134.41293334960938 C 170.30999755859375 151.56027221679688 182.88327026367188 168.70762634277344 195.455810546875 185.855712890625 C 196.0 187.51510620117188 195.716796875 188.0355987548828 194.073486328125 188.5836181640625 C 139.35169982910156 188.5836181640625 84.62992858886719 188.5836181640625 29.90814971923828 188.5836181640625 C 28.251052856445312 188.04554748535156 28.0 187.509765625 28.51970672607422 185.86337280273438 C 40.949867248535156 168.71527099609375 53.38078689575195 151.56793212890625 65.81094360351562 134.42059326171875 C 66.2012939453125 134.07769775390625 66.69268798828125 133.82740783691406 67.19938659667969 133.71336364746094 C 67.19938659667969 133.71336364746094 67.19938659667969 133.71336364746094 67.19938659667969 133.71336364746094" stroke-width="0.0" fill="rgb(244, 83, 137)" opacity="1.0"/>
    <path d="M 111.9892807006836 35.4163818359375 C 111.9892807006836 35.4163818359375 111.9892807006836 35.4163818359375 111.9892807006836 35.4163818359375 C 119.01798248291016 35.508995056152344 125.92498779296875 36.66474914550781 132.40567016601562 39.466896057128906 C 151.7971649169922 47.84960174560547 164.48680114746094 68.04400634765625 163.36241149902344 89.13088989257812 C 162.51205444335938 105.07730865478516 154.16302490234375 120.20933532714844 145.64561462402344 133.28932189941406 C 139.7780303955078 142.3011932373047 133.36700439453125 151.47149658203125 125.29582977294922 158.67393493652344 C 121.69306945800781 161.8886260986328 117.06620788574219 165.40260314941406 111.9892807006836 165.40260314941406 C 106.75545501708984 165.40260314941406 101.99693298339844 161.97589111328125 98.23957061767578 158.67164611816406 C 90.1270523071289 151.53579711914062 83.74665069580078 142.3417510986328 77.94718933105469 133.3076934814453 C 69.52009582519531 120.1817855834961 61.43589782714844 105.07041931152344 60.613853454589844 89.15614318847656 C 59.52467727661133 68.05014038085938 72.14543151855469 47.86567306518555 91.57366943359375 39.466896057128906 C 98.0543441772461 36.66474914550781 104.96057891845703 35.508995056152344 111.9892807006836 35.4163818359375 C 111.9892807006836 35.4163818359375 111.9892807006836 35.4163818359375 111.9892807006836 35.4163818359375" stroke-width="0.0" fill="rgb(0, 0, 0)" opacity="1.0"/>
    <path d="M 111.9892807006836 38.846160888671875 C 111.9892807006836 38.846160888671875 111.9892807006836 38.846160888671875 111.9892807006836 38.846160888671875 C 105.40834045410156 38.93952941894531 98.95063018798828 40.016456604003906 92.88480377197266 42.647911071777344 C 74.74932861328125 50.51396942138672 62.977420806884766 69.3903579711914 64.04515838623047 89.1048583984375 C 64.87103271484375 104.35094451904297 72.73554992675781 118.83926391601562 80.80367279052734 131.41026306152344 C 86.30386352539062 139.9812469482422 92.29774475097656 148.71910095214844 99.8561019897461 155.6314697265625 C 103.10600280761719 158.603515625 107.337158203125 161.97360229492188 111.9892807006836 161.97360229492188 C 116.4844970703125 161.97360229492188 120.59242248535156 158.50784301757812 123.68924713134766 155.62916564941406 C 131.20474243164062 148.6440887451172 137.23306274414062 139.92996215820312 142.80213928222656 131.37428283691406 C 150.9529266357422 118.85304260253906 159.07691955566406 104.3478775024414 159.931884765625 89.07730865478516 C 161.03482055664062 69.38270568847656 149.19174194335938 50.497135162353516 131.0945281982422 42.647911071777344 C 125.02870178222656 40.016456604003906 118.57022094726562 38.93952941894531 111.9892807006836 38.846160888671875 C 111.9892807006836 38.846160888671875 111.9892807006836 38.846160888671875 111.9892807006836 38.846160888671875" stroke-width="0.0" fill="rgb(254, 254, 254)" opacity="1.0"/>
    <path d="M 111.9892807006836 73.03062438964844 C 111.9892807006836 73.03062438964844 111.9892807006836 73.03062438964844 111.9892807006836 73.03062438964844 C 115.39532470703125 73.13241577148438 118.66130828857422 73.69805145263672 121.73822784423828 75.2288589477539 C 132.00918579101562 80.33716583251953 136.8365936279297 92.91427612304688 132.430908203125 103.5518569946289 C 131.12896728515625 106.69613647460938 129.0302276611328 109.46306610107422 126.49063110351562 111.7133560180664 C 124.70034790039062 113.29927062988281 122.66896057128906 114.60964965820312 120.45693969726562 115.52583312988281 C 117.77726745605469 116.63566589355469 114.88404083251953 117.14007568359375 111.9892807006836 117.14007568359375 C 109.09452819824219 117.14007568359375 106.20206451416016 116.63566589355469 103.52315521240234 115.52583312988281 C 101.3111343383789 114.60964965820312 99.27975463867188 113.29927062988281 97.49024200439453 111.7133560180664 C 94.95063018798828 109.46306610107422 92.8526611328125 106.69613647460938 91.55070495605469 103.5518569946289 C 87.14581298828125 92.9150390625 91.9716796875 80.33792877197266 102.24186706542969 75.2288589477539 C 105.31878662109375 73.69805145263672 108.5840072631836 73.13241577148438 111.9892807006836 73.03062438964844 C 111.9892807006836 73.03062438964844 111.9892807006836 73.03062438964844 111.9892807006836 73.03062438964844" stroke-width="0.0" fill="rgb(244, 83, 137)" opacity="1.0"/>
    <path d="M 111.9892807006836 76.45962524414062 C 111.9892807006836 76.45962524414062 111.9892807006836 76.45962524414062 111.9892807006836 76.45962524414062 C 109.02564239501953 76.5660171508789 106.20819091796875 77.05281829833984 103.54458618164062 78.42366027832031 C 91.79486846923828 84.47187805175781 90.01148223876953 100.71756744384766 99.93264770507812 109.2923812866211 C 101.39762878417969 110.55836486816406 103.04859924316406 111.606201171875 104.83888244628906 112.3478775024414 C 107.10218048095703 113.2854995727539 109.54458618164062 113.71183013916016 111.9892807006836 113.71183013916016 C 114.4339828491211 113.71183013916016 116.87715148925781 113.2854995727539 119.14044952392578 112.3478775024414 C 120.9314956665039 111.606201171875 122.58246612548828 110.55836486816406 124.04745483398438 109.2923812866211 C 133.9701385498047 100.71833801269531 132.1859893798828 84.47110748291016 120.43550872802734 78.42366027832031 C 117.7711410522461 77.05281829833984 114.95368957519531 76.5660171508789 111.9892807006836 76.45962524414062 C 111.9892807006836 76.45962524414062 111.9892807006836 76.45962524414062 111.9892807006836 76.45962524414062" stroke-width="0.0" fill="rgb(254, 254, 254)" opacity="1.0"/>
  </g>
</svg>
