<?xml version="1.0" ?>
<svg xmlns="http://www.w3.org/2000/svg" version="1.1" width="224" height="224">
  <defs/>
  <g>
    <path d="M 111.99886322021484 30.223655700683594 C 111.99886322021484 30.223655700683594 111.99886322021484 30.223655700683594 111.99886322021484 30.223655700683594 C 123.99405670166016 30.322601318359375 135.82838439941406 32.54625701904297 146.72080993652344 37.68468475341797 C 164.62033081054688 46.12989044189453 179.7523651123047 61.71284866333008 187.50643920898438 79.93563842773438 C 195.82400512695312 99.48099517822266 196.0 123.0227279663086 188.06387329101562 142.7183837890625 C 183.55992126464844 153.8948211669922 176.3519287109375 163.791748046875 167.57513427734375 172.0012969970703 C 160.67984008789062 178.45172119140625 152.7633514404297 183.8046417236328 144.0635986328125 187.50645446777344 C 133.94158935546875 191.81402587890625 122.97589111328125 193.77635192871094 111.99886322021484 193.77635192871094 C 101.02259063720703 193.77635192871094 90.056884765625 191.8132781982422 79.93563842773438 187.50645446777344 C 71.23588562011719 183.8046417236328 63.32015609741211 178.45172119140625 56.424110412597656 172.0012969970703 C 47.6480712890625 163.79098510742188 40.44007873535156 153.8948211669922 35.936119079589844 142.7183837890625 C 28.0 123.0227279663086 28.175987243652344 99.48099517822266 36.49353790283203 79.93563842773438 C 44.24763488769531 61.71359634399414 59.378910064697266 46.12989044189453 77.27842712402344 37.68468475341797 C 88.17010498046875 32.54625701904297 100.00442504882812 30.322601318359375 111.99886322021484 30.223655700683594 C 111.99886322021484 30.223655700683594 111.99886322021484 30.223655700683594 111.99886322021484 30.223655700683594" stroke-width="0.0" fill="rgb(1, 1, 1)" opacity="1.0"/>
    <path d="M 33.60822296142578 111.99887084960938 C 33.60822296142578 111.99887084960938 33.60822296142578 111.99887084960938 33.60822296142578 111.99887084960938 C 33.70793151855469 123.5567398071289 35.8568115234375 134.95297241210938 40.833595275878906 145.43829345703125 C 48.939666748046875 162.51678466796875 63.827728271484375 176.95315551757812 81.23100280761719 184.36886596679688 C 99.96363830566406 192.35105895996094 122.53176879882812 192.52780151367188 141.4162139892578 184.92855834960938 C 152.18780517578125 180.59378051757812 161.72067260742188 173.63882446289062 169.6175079345703 165.16944885253906 C 175.74917602539062 158.5928955078125 180.83926391601562 151.05105590820312 184.36886596679688 142.7682342529297 C 188.50650024414062 133.05711364746094 190.39251708984375 122.53327941894531 190.39251708984375 111.99887084960938 C 190.39251708984375 101.4652099609375 188.50650024414062 90.94137573242188 184.36886596679688 81.23100280761719 C 180.83926391601562 72.94819641113281 175.74917602539062 65.4071044921875 169.6175079345703 58.83055114746094 C 161.72067260742188 50.361175537109375 152.18704223632812 43.406219482421875 141.41546630859375 39.071441650390625 C 122.53176879882812 31.472198486328125 99.96363830566406 31.649696350097656 81.23100280761719 39.63188934326172 C 63.827728271484375 47.04684066772461 48.939666748046875 61.48247146606445 40.833595275878906 78.56095886230469 C 35.8568115234375 89.04627990722656 33.70793151855469 100.44099426269531 33.60822296142578 111.99887084960938 C 33.60822296142578 111.99887084960938 33.60822296142578 111.99887084960938 33.60822296142578 111.99887084960938" stroke-width="0.0" fill="rgb(254, 254, 254)" opacity="1.0"/>
    <path d="M 154.54212951660156 83.69334411621094 C 154.54212951660156 83.69334411621094 154.54212951660156 83.69334411621094 154.54212951660156 83.69334411621094 C 155.63356018066406 83.20011901855469 157.5618896484375 83.02413177490234 157.4840850830078 85.00608825683594 C 157.46670532226562 85.45172119140625 157.05430603027344 85.78783416748047 156.83905029296875 86.17833709716797 C 137.32391357421875 104.22136688232422 117.80801391601562 122.26438903808594 98.2928695678711 140.30667114257812 C 97.9250259399414 140.47962951660156 97.59571075439453 140.8149871826172 97.19010162353516 140.82479858398438 C 96.78374481201172 140.83538818359375 96.43781280517578 140.51815795898438 96.06166076660156 140.3640594482422 C 86.44873046875 132.35618591308594 76.83580780029297 124.34756469726562 67.2236328125 116.33892822265625 C 66.98873901367188 115.95974731445312 66.55970764160156 115.64554595947266 66.5189208984375 115.201416015625 C 66.33992004394531 113.22625732421875 68.27352905273438 113.30254364013672 69.38912963867188 113.73912048339844 C 78.62137603759766 121.4305191040039 87.85437774658203 129.12191772460938 97.08662414550781 136.81407165527344 C 116.23845672607422 119.10716247558594 135.39028930664062 101.40025329589844 154.54212951660156 83.69334411621094" stroke-width="0.0" fill="rgb(244, 83, 137)" opacity="1.0"/>
  </g>
</svg>
