<?xml version="1.0" ?>
<svg xmlns="http://www.w3.org/2000/svg" version="1.1" width="224" height="224">
  <defs/>
  <g>
    <path d="M 103.28208923339844 194.94161987304688 C 93.09321594238281 193.64886474609375 83.28154754638672 189.6271209716797 82.10325622558594 185.6215362548828 C 82.28506469726562 184.2997589111328 80.73738098144531 183.33432006835938 78.36981201171875 183.33358764648438 C 70.31475830078125 180.7347412109375 60.3764762878418 175.24627685546875 49.94304656982422 165.4417724609375 C 42.51982116699219 159.2748565673828 42.343109130859375 157.39744567871094 49.28175354003906 156.8594970703125 C 53.78962326049805 157.2696075439453 53.826942443847656 156.5572967529297 50.14332580566406 152.6339874267578 C 41.13512420654297 140.75772094726562 36.62144470214844 121.53595733642578 38.51954650878906 106.8150405883789 C 39.45976257324219 100.11333465576172 42.43891143798828 88.2392578125 44.85552215576172 82.84607696533203 C 46.550445556640625 80.37493133544922 45.93236541748047 79.78733825683594 42.903472900390625 73.87152099609375 C 38.4267578125 63.444618225097656 36.79322814941406 53.561683654785156 38.525604248046875 45.91712188720703 C 38.907081604003906 42.791908264160156 40.440521240234375 38.822174072265625 41.66368865966797 37.220054626464844 C 43.142616271972656 34.01836395263672 43.57861328125 33.47233581542969 47.237308502197266 32.934967041015625 C 52.54680252075195 32.790138244628906 60.03792953491211 35.54942321777344 66.81781768798828 40.67073059082031 L 72.24258422851562 44.926239013671875 L 78.1716079711914 40.840660095214844 C 99.40291595458984 27.99999237060547 128.6639862060547 28.694564819335938 149.66835021972656 43.3306884765625 L 151.5742645263672 44.770668029785156 L 155.97296142578125 41.671539306640625 C 162.91786193847656 35.91313934326172 168.9695281982422 33.425514221191406 176.02513122558594 32.835166931152344 L 180.51095581054688 33.785400390625 L 183.0836639404297 38.337646484375 C 187.37855529785156 48.97974395751953 185.99600219726562 62.719085693359375 179.7064208984375 75.74050903320312 L 177.50546264648438 79.53143310546875 L 179.82479858398438 86.0186538696289 C 183.818115234375 97.00286102294922 185.537353515625 105.70698547363281 185.5655975341797 114.63236999511719 C 184.968505859375 127.89617919921875 180.86056518554688 141.90016174316406 173.5201873779297 151.84967041015625 C 171.82977294921875 153.69912719726562 170.39260864257812 156.02835083007812 170.56546020507812 156.57208251953125 C 171.04757690429688 156.48770141601562 172.01437377929688 156.83358764648438 174.32373046875 156.7423553466797 C 180.36865234375 157.2073211669922 181.19635009765625 158.71014404296875 175.28335571289062 163.39688110351562 C 166.82012939453125 172.03683471679688 154.23471069335938 180.8157196044922 145.2790985107422 183.1849365234375 C 142.9162139892578 183.38084411621094 140.82537841796875 184.4002227783203 140.5725555419922 186.618408203125 C 138.2960205078125 189.9141845703125 133.47927856445312 191.95399475097656 126.57014465332031 193.59942626953125 C 120.12339782714844 195.41775512695312 109.57096862792969 196.0 103.28208923339844 194.94161987304688" stroke-width="1.0" fill="rgb(0, 0, 0)" opacity="0.9999683"/>
    <path d="M 101.06360626220703 190.38510131835938 C 91.10719299316406 188.3343505859375 85.9224624633789 185.49935913085938 85.81239318847656 181.82003784179688 C 85.90966033935547 177.18325805664062 84.2243423461914 175.47811889648438 80.95252990722656 178.61439514160156 C 78.98458862304688 179.49667358398438 66.90219116210938 174.01644897460938 59.109596252441406 167.4448699951172 C 52.572471618652344 162.111572265625 51.16767120361328 161.07925415039062 54.09378433227539 160.36932373046875 C 55.629478454589844 160.40357971191406 57.56620407104492 160.09744262695312 58.26401138305664 159.35528564453125 L 59.860782623291016 157.60379028320312 L 57.929962158203125 154.7943115234375 C 46.48925018310547 141.99700927734375 42.193260192871094 128.12513732910156 42.598960876464844 112.0692367553711 C 43.49925994873047 102.02529907226562 45.611244201660156 93.85203552246094 50.30356979370117 81.33349609375 C 54.26750564575195 70.31544494628906 59.08313751220703 63.136478424072266 66.32232666015625 55.85804748535156 C 75.57032012939453 47.27625274658203 84.00032043457031 41.663978576660156 95.11530303955078 38.240570068359375 C 103.08173370361328 35.18284606933594 119.84889221191406 35.16038513183594 127.8087158203125 38.06300354003906 C 140.2867889404297 40.76282501220703 153.14857482910156 50.639732360839844 161.7446746826172 60.56832504272461 C 171.90090942382812 73.32866668701172 180.91421508789062 98.3914794921875 181.08282470703125 113.80449676513672 C 181.10861206054688 127.6177978515625 176.47047424316406 142.07090759277344 167.77267456054688 152.05435180664062 C 165.7213134765625 154.98941040039062 163.60960388183594 157.5463104248047 164.03021240234375 157.1846923828125 C 163.92098999023438 158.67079162597656 167.57492065429688 160.68832397460938 169.17318725585938 160.1031036376953 C 170.49012756347656 160.34791564941406 171.10556030273438 160.83624267578125 170.6351318359375 161.89251708984375 C 169.6098175048828 163.8466796875 158.59786987304688 172.54641723632812 151.57005310058594 175.89645385742188 C 145.2813262939453 178.84556579589844 143.77435302734375 179.47576904296875 141.690673828125 178.4276123046875 C 138.801025390625 176.24322509765625 137.83770751953125 177.07296752929688 137.31292724609375 181.35528564453125 C 136.30079650878906 184.80213928222656 135.7435760498047 185.8046875 132.4009246826172 187.31597900390625 C 127.1883544921875 189.4833526611328 116.45831298828125 191.7559356689453 110.69982147216797 191.49981689453125 C 108.23060607910156 191.31747436523438 103.90594482421875 190.84420776367188 101.06360626220703 190.38510131835938" stroke-width="1.0" fill="rgb(251, 252, 252)" opacity="0.9943971"/>
    <path d="M 45.56568145751953 67.82592010498047 C 42.624794006347656 62.414817810058594 41.36949920654297 50.56269836425781 43.46312713623047 44.349090576171875 C 43.84046173095703 41.99943542480469 44.53260040283203 41.31982421875 45.733116149902344 41.450233459472656 C 50.94581985473633 41.08856201171875 62.255916595458984 52.5974235534668 60.66936111450195 55.68147277832031 C 60.03703689575195 56.229061126708984 56.88246536254883 60.007118225097656 53.47087097167969 64.49677276611328 C 50.93646240234375 69.041748046875 48.35646057128906 72.94508361816406 47.92852020263672 73.67709350585938 C 47.62907791137695 73.49354553222656 46.54241943359375 70.78201293945312 45.56568145751953 67.82592010498047" stroke-width="1.0" fill="rgb(253, 254, 254)" opacity="0.9975135"/>
    <path d="M 172.20504760742188 68.61981964111328 C 170.693603515625 66.04887390136719 167.9145050048828 61.86688232421875 165.99588012695312 59.19865798950195 C 161.5958251953125 54.702613830566406 162.0524444580078 53.532867431640625 167.83047485351562 47.185115814208984 C 173.75350952148438 41.290618896484375 179.18759155273438 39.624114990234375 180.23394775390625 43.507354736328125 C 181.44131469726562 46.60626983642578 181.25392150878906 58.249393463134766 179.98971557617188 62.24460220336914 C 178.38720703125 67.62482452392578 176.04815673828125 73.28451538085938 175.5950927734375 73.61239624023438 C 175.01657104492188 73.02212524414062 173.65692138671875 70.92960357666016 172.20504760742188 68.61981964111328" stroke-width="1.0" fill="rgb(253, 254, 254)" opacity="0.99643046"/>
    <path d="M 87.03001403808594 176.15396118164062 C 84.29570007324219 175.65814208984375 82.33746337890625 173.10861206054688 79.40251922607422 167.5405731201172 C 77.84031677246094 164.2032928466797 76.57823944091797 159.72564697265625 76.17510986328125 157.3704071044922 C 75.74332427978516 153.83425903320312 75.76789855957031 153.14529418945312 71.21601867675781 150.95077514648438 C 62.31558609008789 144.3041534423828 55.86146545410156 134.26773071289062 53.20976257324219 121.6950912475586 C 48.61543273925781 103.33769989013672 56.48103713989258 77.29719543457031 68.72470092773438 66.21604919433594 C 71.874267578125 64.76063537597656 75.06199645996094 60.45224380493164 76.72325134277344 57.26203536987305 C 79.01666259765625 54.4737548828125 82.43341064453125 50.74229049682617 84.5130615234375 49.17238998413086 C 90.91734313964844 43.47797393798828 102.63627624511719 38.58728790283203 102.5495834350586 42.1986083984375 C 103.8389892578125 44.89588165283203 100.62564849853516 45.446136474609375 96.16738891601562 47.17238998413086 C 89.28263854980469 50.30862045288086 83.64529418945312 55.8380012512207 78.9912109375 63.19334411621094 C 77.79989624023438 66.396240234375 75.61217498779297 68.42501831054688 74.45480346679688 68.65814971923828 C 68.18807983398438 70.59620666503906 59.710323333740234 86.36277770996094 57.478843688964844 100.97196197509766 C 54.45298767089844 118.89208984375 60.86941909790039 137.44996643066406 74.36544799804688 146.96104431152344 C 77.60709381103516 149.0015411376953 80.33089447021484 150.918701171875 79.81912231445312 152.69122314453125 C 82.91580963134766 166.41021728515625 87.0578842163086 173.15353393554688 92.21339416503906 172.4912109375 C 96.43820190429688 172.99282836914062 104.78060150146484 170.30026245117188 106.73767852783203 168.27015686035156 C 109.14999389648438 166.00230407714844 109.45875549316406 165.21041870117188 107.58052825927734 159.4097442626953 C 106.90428161621094 154.51419067382812 105.32105255126953 152.86190795898438 102.3177719116211 152.23204040527344 C 98.98664093017578 151.508544921875 95.36988830566406 148.73753356933594 94.84175109863281 145.86631774902344 C 95.19815063476562 142.60281372070312 98.40852355957031 142.62026977539062 105.53562927246094 142.67274475097656 C 112.5595932006836 143.50491333007812 111.11029815673828 143.58969116210938 117.90304565429688 142.6165008544922 C 125.01651000976562 142.46133422851562 128.11181640625 142.59530639648438 128.57461547851562 146.17933654785156 C 128.1415252685547 149.07432556152344 125.7077865600586 151.12265014648438 121.06476593017578 152.276123046875 C 116.82335662841797 153.3006591796875 116.61988067626953 154.29641723632812 114.94773864746094 161.46755981445312 C 113.40230560302734 164.5460662841797 113.41300964355469 165.47625732421875 115.29825592041016 166.70289611816406 C 118.11593627929688 171.06668090820312 131.29830932617188 174.55979919433594 134.83705139160156 171.8316650390625 C 137.35459899902344 170.0929718017578 140.90530395507812 163.20167541503906 142.70355224609375 156.28672790527344 C 143.48977661132812 151.05099487304688 143.9619140625 149.93685913085938 147.7913055419922 147.94102478027344 C 168.5218963623047 134.58135986328125 172.70851135253906 104.92557525634766 158.1033935546875 78.50047302246094 C 155.80145263671875 73.51129150390625 150.61830139160156 67.99948120117188 148.6998291015625 68.1668472290039 C 147.7137451171875 68.34477233886719 145.2642059326172 65.46487426757812 143.16473388671875 61.266021728515625 C 138.16128540039062 53.89616012573242 131.63653564453125 48.66716384887695 125.32592010498047 46.316795349121094 C 123.1546859741211 45.39549255371094 120.66110229492188 44.76654052734375 120.41377258300781 43.06562042236328 C 120.70399475097656 40.119728088378906 122.40106964111328 40.11692810058594 128.25375366210938 42.65568542480469 C 134.5983123779297 44.74193572998047 141.25796508789062 50.37409973144531 146.1260528564453 56.49879455566406 C 147.94940185546875 59.711708068847656 151.03919982910156 64.74853515625 155.0776824951172 66.02337646484375 C 167.45196533203125 78.69234466552734 175.5167694091797 105.30553436279297 169.89010620117188 123.30545043945312 C 167.1774139404297 135.93251037597656 160.0333709716797 145.39862060546875 151.87014770507812 151.0819854736328 C 148.000244140625 153.388916015625 147.60980224609375 153.61407470703125 147.033935546875 157.64328002929688 C 145.63156127929688 164.37930297851562 141.75827026367188 172.02554321289062 138.2933807373047 174.89218139648438 C 134.5171661376953 178.18402099609375 128.34202575683594 178.08602905273438 120.37816619873047 175.61083984375 C 113.92002868652344 172.9311065673828 109.82986450195312 172.9402313232422 102.64690399169922 175.5137939453125 C 96.34481811523438 177.58868408203125 91.02265930175781 177.80914306640625 87.03001403808594 176.15396118164062" stroke-width="1.0" fill="rgb(3, 3, 3)" opacity="0.9866688"/>
    <path d="M 82.38723754882812 109.46305084228516 C 80.28111267089844 108.67334747314453 77.06612396240234 106.94922637939453 75.33317565917969 105.55017852783203 C 71.74603271484375 103.01223754882812 67.28561401367188 94.51512908935547 68.69709014892578 92.80149841308594 C 68.98892211914062 92.60232543945312 71.91231536865234 91.84839630126953 74.78936767578125 90.88501739501953 C 81.96157836914062 89.14173889160156 86.32645416259766 89.80303192138672 90.32615661621094 92.82804107666016 C 94.00733947753906 95.91099548339844 97.86906433105469 107.52362060546875 95.67796325683594 109.01026153564453 C 94.16757202148438 110.09497833251953 86.40211486816406 110.29071807861328 82.38723754882812 109.46305084228516" stroke-width="1.0" fill="rgb(0, 0, 1)" opacity="0.9996296"/>
    <path d="M 130.8608856201172 109.77456665039062 C 126.37525939941406 109.55807495117188 125.9937744140625 107.99423217773438 128.13465881347656 101.91867065429688 C 131.74142456054688 91.0205307006836 138.46102905273438 87.91490936279297 150.65554809570312 91.38133239746094 C 154.2911834716797 92.35840606689453 155.70883178710938 93.15425872802734 155.23052978515625 94.21588897705078 C 155.5880126953125 96.4828109741211 151.16748046875 103.46067810058594 148.10382080078125 105.76539611816406 C 145.66761779785156 107.94612121582031 138.07688903808594 110.48457336425781 135.3448944091797 110.11869812011719 C 134.5390625 110.17598724365234 132.5819854736328 109.79485321044922 130.8608856201172 109.77456665039062" stroke-width="1.0" fill="rgb(1, 1, 1)" opacity="0.9973295"/>
    <path d="M 97.76615142822266 94.52607727050781 C 97.12934875488281 94.05982208251953 96.18390655517578 91.53280639648438 95.33493041992188 89.2045669555664 C 93.12254333496094 83.50670623779297 88.41018676757812 78.08834075927734 83.34053039550781 76.60438537597656 C 79.15113830566406 75.20369720458984 78.29466247558594 73.18143463134766 80.39950561523438 72.10972595214844 C 82.12608337402344 70.42861938476562 90.64752197265625 74.51754760742188 94.39969635009766 78.8143310546875 C 98.9616470336914 84.20391845703125 102.10003662109375 92.62553405761719 100.2091064453125 94.56768798828125 C 99.43922424316406 95.38907623291016 98.8050537109375 95.36390686035156 97.76615142822266 94.52607727050781" stroke-width="1.0" fill="rgb(3, 3, 4)" opacity="0.98662925"/>
    <path d="M 123.07384490966797 94.27386474609375 C 121.28319549560547 92.33580017089844 124.52168273925781 83.7262954711914 129.04359436035156 78.79704284667969 C 132.80751037597656 74.5162582397461 141.38475036621094 70.21240997314453 142.87767028808594 71.88661193847656 C 145.0373077392578 73.55116271972656 144.1490936279297 75.00479125976562 139.10987854003906 77.24488830566406 C 133.67185974121094 79.56065368652344 129.60894775390625 84.88870239257812 127.88987731933594 90.77452087402344 C 126.61261749267578 94.77202606201172 124.61964416503906 95.9783706665039 123.07384490966797 94.27386474609375" stroke-width="1.0" fill="rgb(3, 4, 3)" opacity="0.98566824"/>
    <path d="M 83.49927520751953 104.80084991455078 C 79.66680908203125 103.5252914428711 73.82616424560547 98.21785736083984 73.89268493652344 96.337890625 C 73.57195281982422 94.65534210205078 79.83940887451172 93.5569076538086 83.49205017089844 94.49809265136719 C 87.12770080566406 95.53878021240234 89.89512634277344 98.79278564453125 90.82327270507812 103.19525909423828 C 91.66539764404297 105.81291198730469 91.4195556640625 106.09976959228516 89.39082336425781 105.89722442626953 C 88.30108642578125 105.9384765625 85.8010482788086 105.4505844116211 83.49927520751953 104.80084991455078" stroke-width="1.0" fill="rgb(252, 63, 19)" opacity="0.9928009"/>
    <path d="M 132.016357421875 103.89651489257812 C 133.05209350585938 100.18388366699219 135.468994140625 96.40080261230469 137.70848083496094 95.24980163574219 C 140.01588439941406 94.09746551513672 148.99163818359375 94.1346435546875 150.16390991210938 95.29216003417969 C 150.50643920898438 95.93408203125 149.96458435058594 97.33020782470703 148.56582641601562 98.918701171875 C 146.46041870117188 102.32960510253906 138.70257568359375 106.27926635742188 134.46563720703125 106.01701354980469 C 131.52371215820312 106.03634643554688 131.2208251953125 105.8981704711914 132.016357421875 103.89651489257812" stroke-width="1.0" fill="rgb(252, 64, 18)" opacity="0.9941883"/>
  </g>
</svg>
