<?xml version="1.0" ?>
<svg xmlns="http://www.w3.org/2000/svg" version="1.1" width="224" height="224">
  <defs/>
  <g>
    <path d="M 110.11946105957031 44.799278259277344 C 110.11946105957031 44.799278259277344 110.11946105957031 44.799278259277344 110.11946105957031 44.799278259277344 C 85.41554260253906 45.18537139892578 62.98319625854492 60.53026580810547 54.667259216308594 84.02639770507812 C 52.43077087402344 90.34795379638672 51.423675537109375 96.91160583496094 51.31928253173828 103.60035705566406 C 51.31928253173828 106.3723373413086 51.31928253173828 109.14521789550781 51.31928253173828 111.91719818115234 C 51.34718322753906 112.25379180908203 51.37507629394531 112.58949279785156 51.402984619140625 112.9251937866211 C 53.64306640625 133.14083862304688 55.88404846191406 153.35560607910156 58.125030517578125 173.57125854492188 C 60.03481674194336 186.487060546875 70.10124206542969 195.5338134765625 83.15745544433594 196.0 C 101.13302612304688 196.0 119.10859680175781 196.0 137.0841827392578 196.0 C 150.1412811279297 195.5338134765625 160.2050018310547 186.48617553710938 162.11659240722656 173.57125854492188 C 164.35667419433594 153.35470581054688 166.5958709716797 133.13815307617188 168.83505249023438 112.92159271240234 C 168.8638458251953 112.58589172363281 168.89175415039062 112.25019836425781 168.9196319580078 111.9135971069336 C 168.9196319580078 109.14251708984375 168.9196319580078 106.3714370727539 168.9196319580078 103.60035705566406 C 168.75314331054688 92.4575424194336 165.79576110839844 81.6378173828125 159.79281616210938 72.1995849609375 C 157.74171447753906 68.97400665283203 155.23162841796875 64.94563293457031 152.0591583251953 62.711849212646484 C 147.95428466796875 59.820167541503906 143.1447296142578 62.96924591064453 139.01736450195312 60.12346649169922 C 135.3696746826172 57.60978698730469 136.02488708496094 53.09362030029297 133.04319763183594 50.212738037109375 C 131.39891052246094 48.623348236083984 129.13543701171875 47.96455383300781 127.01054382324219 47.298561096191406 C 121.51878356933594 45.57597351074219 115.85781860351562 44.87937927246094 110.11946105957031 44.799278259277344 C 110.11946105957031 44.799278259277344 110.11946105957031 44.799278259277344 110.11946105957031 44.799278259277344" stroke-width="0.0" fill="rgb(228, 85, 162)" opacity="1.0" stroke="rgb(0, 0, 0)" stroke-opacity="1.0" stroke-linecap="round" stroke-linejoin="round"/>
    <path d="M 51.321983337402344 103.60035705566406 C 90.52120208740234 103.60035705566406 129.72042846679688 103.60035705566406 168.9196319580078 103.60035705566406 C 168.9196319580078 106.3723373413086 168.9196319580078 109.14521789550781 168.9196319580078 111.91719818115234 C 168.89175415039062 112.25379180908203 168.8638458251953 112.58949279785156 168.83505249023438 112.9251937866211 C 166.5958709716797 133.14083862304688 164.35667419433594 153.35560607910156 162.11659240722656 173.57125854492188 C 160.2050018310547 186.48435974121094 150.140380859375 195.5338134765625 137.0841827392578 196.0 C 119.10859680175781 196.0 101.13302612304688 196.0 83.15745544433594 196.0 C 70.100341796875 195.5338134765625 60.03751754760742 186.48526000976562 58.125030517578125 173.57125854492188 C 55.88404846191406 153.35470581054688 53.64306640625 133.13815307617188 51.402984619140625 112.92159271240234 C 51.37598419189453 112.58589172363281 51.34898376464844 112.25019836425781 51.321983337402344 111.9135971069336 C 51.321983337402344 109.14251708984375 51.321983337402344 106.3714370727539 51.321983337402344 103.60035705566406" stroke-width="0.0" fill="rgb(255, 184, 64)" opacity="1.0" stroke="rgb(0, 0, 0)" stroke-opacity="1.0" stroke-linecap="round" stroke-linejoin="round"/>
    <path d="M 126.91873931884766 128.79478454589844 C 126.91873931884766 128.79478454589844 126.91873931884766 128.79478454589844 126.91873931884766 128.79478454589844 C 131.8444061279297 129.29067993164062 134.8242950439453 132.2696533203125 135.3201904296875 137.19532775878906 C 135.3201904296875 145.59585571289062 135.3201904296875 153.99639892578125 135.3201904296875 162.39694213867188 C 135.14468383789062 164.13754272460938 134.8890838623047 165.6072235107422 133.88648986816406 167.09490966796875 C 130.97952270507812 171.4094696044922 124.6552505493164 172.0169677734375 120.97698974609375 168.3386993408203 C 119.29399871826172 166.65481567382812 118.74859619140625 164.68922424316406 118.51730346679688 162.39694213867188 C 118.51730346679688 153.99639892578125 118.51730346679688 145.59585571289062 118.51730346679688 137.19532775878906 C 119.01319885253906 132.2696533203125 121.99308013916016 129.29067993164062 126.91873931884766 128.79478454589844 C 126.91873931884766 128.79478454589844 126.91873931884766 128.79478454589844 126.91873931884766 128.79478454589844" stroke-width="0.0" fill="rgb(213, 112, 76)" opacity="1.0" stroke="rgb(0, 0, 0)" stroke-opacity="1.0" stroke-linecap="round" stroke-linejoin="round"/>
    <path d="M 93.31928253173828 128.79478454589844 C 93.31928253173828 128.79478454589844 93.31928253173828 128.79478454589844 93.31928253173828 128.79478454589844 C 98.24494934082031 129.29067993164062 101.22482299804688 132.2696533203125 101.72161865234375 137.19532775878906 C 101.72161865234375 145.59585571289062 101.72161865234375 153.99639892578125 101.72161865234375 162.39694213867188 C 101.54612731933594 164.13754272460938 101.28962707519531 165.6072235107422 100.28793334960938 167.09490966796875 C 97.38005065917969 171.41036987304688 91.05670166015625 172.0169677734375 87.37842559814453 168.3386993408203 C 85.69453430175781 166.65481567382812 85.14913940429688 164.68922424316406 84.9178466796875 162.39694213867188 C 84.9178466796875 153.99639892578125 84.9178466796875 145.59585571289062 84.9178466796875 137.19532775878906 C 85.41373443603516 132.2696533203125 88.39451599121094 129.29067993164062 93.31928253173828 128.79478454589844 C 93.31928253173828 128.79478454589844 93.31928253173828 128.79478454589844 93.31928253173828 128.79478454589844" stroke-width="0.0" fill="rgb(213, 112, 76)" opacity="1.0" stroke="rgb(0, 0, 0)" stroke-opacity="1.0" stroke-linecap="round" stroke-linejoin="round"/>
    <path d="M 143.7216339111328 27.99999237060547 C 143.7216339111328 27.99999237060547 143.7216339111328 27.99999237060547 143.7216339111328 27.99999237060547 C 148.02989196777344 28.15929412841797 152.10325622558594 29.04669189453125 155.90122985839844 31.159873962402344 C 158.98641967773438 32.87525939941406 161.7025909423828 35.24224090576172 163.83016967773438 38.058326721191406 C 165.61846923828125 40.424407958984375 166.98916625976562 43.10368347167969 167.84866333007812 45.94227600097656 C 172.6807098388672 61.91535568237305 160.264404296875 78.26373291015625 143.718017578125 78.39874267578125 C 140.7804412841797 78.42213439941406 137.81765747070312 77.87223815917969 135.0627899169922 76.86064910888672 C 118.7593994140625 70.87029266357422 113.30634307861328 49.80414581298828 124.72185516357422 36.69123077392578 C 126.65324401855469 34.472747802734375 128.96983337402344 32.590858459472656 131.5402069091797 31.159873962402344 C 135.33908081054688 29.047592163085938 139.41244506835938 28.15929412841797 143.7216339111328 27.99999237060547 C 143.7216339111328 27.99999237060547 143.7216339111328 27.99999237060547 143.7216339111328 27.99999237060547" stroke-width="0.0" fill="rgb(160, 79, 157)" opacity="1.0" stroke="rgb(0, 0, 0)" stroke-opacity="1.0" stroke-linecap="round" stroke-linejoin="round"/>
  </g>
</svg>
