<?xml version="1.0" ?>
<svg xmlns="http://www.w3.org/2000/svg" version="1.1" width="224" height="224">
  <defs/>
  <g>
    <path d="M 69.94195556640625 27.99999237060547 C 69.94195556640625 27.99999237060547 69.94195556640625 27.99999237060547 69.94195556640625 27.99999237060547 C 65.02978515625 28.49858856201172 62.040008544921875 31.488365173339844 61.54051208496094 36.40143585205078 C 61.54051208496094 44.46537399291992 61.54051208496094 52.529319763183594 61.54051208496094 60.59416198730469 C 58.8243293762207 71.4579849243164 56.10814666748047 82.32090759277344 53.39286804199219 93.18473052978516 C 53.26866912841797 93.84982299804688 53.184967041015625 94.52301788330078 53.142669677734375 95.19801330566406 C 53.142669677734375 125.99849700927734 53.142669677734375 156.79806518554688 53.142669677734375 187.5985565185547 C 53.641265869140625 192.51071166992188 56.63194274902344 195.50140380859375 61.54410934448242 196.0 C 95.14356994628906 196.0 128.7430419921875 196.0 162.34249877929688 196.0 C 167.25466918945312 195.50140380859375 170.24534606933594 192.51071166992188 170.7439422607422 187.5985565185547 C 170.74302673339844 157.35787963867188 170.7421417236328 127.11808776855469 170.74032592773438 96.87740325927734 C 170.9410400390625 94.88031005859375 170.8456268310547 93.44032287597656 170.06983947753906 91.58544158935547 C 167.49404907226562 81.25350952148438 164.91827392578125 70.92158508300781 162.34249877929688 60.59056091308594 C 162.34249877929688 52.52751541137695 162.34249877929688 44.464473724365234 162.34249877929688 36.40143585205078 C 161.84300231933594 31.488365173339844 158.85321044921875 28.49858856201172 153.94105529785156 27.99999237060547 C 125.94135284423828 27.99999237060547 97.941650390625 27.99999237060547 69.94195556640625 27.99999237060547" stroke-width="0.0" fill="rgb(22, 135, 197)" opacity="1.0" stroke="rgb(0, 0, 0)" stroke-opacity="1.0" stroke-linecap="round" stroke-linejoin="round"/>
    <path d="M 61.71331024169922 59.581668853759766 C 95.14356994628906 59.581668853759766 128.57472229003906 59.581668853759766 162.00498962402344 59.581668853759766 C 164.66537475585938 70.25019073486328 167.32485961914062 80.91781616210938 169.98524475097656 91.58544158935547 C 170.5081329345703 92.83463287353516 170.73043823242188 93.84712219238281 170.82493591308594 95.19801330566406 C 131.56991577148438 95.19801330566406 92.31399536132812 95.19801330566406 53.05896759033203 95.19801330566406 C 53.10127258300781 94.52212524414062 53.18587112426758 93.84712219238281 53.31187057495117 93.1811294555664 C 56.11174392700195 81.98161315917969 58.91252899169922 70.78208923339844 61.71331024169922 59.581668853759766" stroke-width="0.0" fill="rgb(50, 101, 162)" opacity="1.0" stroke="rgb(0, 0, 0)" stroke-opacity="1.0" stroke-linecap="round" stroke-linejoin="round"/>
    <path d="M 170.65573120117188 95.19801330566406 C 170.71243286132812 95.19801330566406 170.76913452148438 95.19801330566406 170.82493591308594 95.19801330566406 C 170.76913452148438 95.7578125 170.71243286132812 96.3176040649414 170.65573120117188 96.87740325927734 C 170.65573120117188 96.3176040649414 170.65573120117188 95.7578125 170.65573120117188 95.19801330566406" stroke-width="0.0" fill="rgb(50, 101, 162)" opacity="1.0" stroke="rgb(0, 0, 0)" stroke-opacity="1.0" stroke-linecap="round" stroke-linejoin="round"/>
    <path d="M 95.13996887207031 120.39603424072266 C 106.33949279785156 120.39603424072266 117.53990936279297 120.39603424072266 128.7394256591797 120.39603424072266 C 133.64889526367188 120.89823150634766 136.64138793945312 123.88531494140625 137.140869140625 128.79747009277344 C 137.140869140625 139.9969940185547 137.140869140625 151.19741821289062 137.140869140625 162.39694213867188 C 136.64138793945312 167.30999755859375 133.65159606933594 170.29978942871094 128.7394256591797 170.79837036132812 C 117.53990936279297 170.79837036132812 106.33949279785156 170.79837036132812 95.13996887207031 170.79837036132812 C 90.2278060913086 170.29978942871094 87.23802947998047 167.30999755859375 86.73853302001953 162.39694213867188 C 86.73853302001953 151.19741821289062 86.73853302001953 139.9969940185547 86.73853302001953 128.79747009277344 C 87.23802947998047 123.88441467285156 90.2278060913086 120.89553833007812 95.13996887207031 120.39603424072266 C 95.13996887207031 120.39603424072266 95.13996887207031 120.39603424072266 95.13996887207031 120.39603424072266" stroke-width="0.0" fill="rgb(255, 255, 255)" opacity="1.0" stroke="rgb(0, 0, 0)" stroke-opacity="1.0" stroke-linecap="round" stroke-linejoin="round"/>
  </g>
</svg>
