<?xml version="1.0" ?>
<svg xmlns="http://www.w3.org/2000/svg" version="1.1" width="224" height="224">
  <defs/>
  <g>
    <path d="M 29.12781524658203 90.8829116821289 C 28.41736602783203 90.13943481445312 28.00000762939453 87.01371765136719 28.252197265625 84.19213104248047 C 28.30370330810547 77.2867660522461 30.80646514892578 72.65946960449219 36.55224609375 68.53406524658203 L 40.78080368041992 65.51014709472656 L 105.25997924804688 65.63298034667969 C 170.38079833984375 65.56320190429688 178.22555541992188 65.57917785644531 177.7075653076172 69.72468566894531 C 177.94285583496094 70.92491149902344 176.88778686523438 71.24934387207031 169.36331176757812 72.57624816894531 C 167.0821533203125 72.8331298828125 137.06207275390625 77.1473388671875 103.04495239257812 82.04769897460938 C 29.14928436279297 92.62608337402344 30.76129913330078 92.46664428710938 29.12781524658203 90.8829116821289" stroke-width="0.0" fill="rgb(249, 252, 254)" opacity="0.9917306"/>
    <path d="M 37.45152282714844 150.26905822753906 C 36.369911193847656 149.5840606689453 34.62339782714844 148.5849151611328 33.71697998046875 147.26223754882812 C 31.04161834716797 145.49786376953125 30.749359130859375 144.9317169189453 31.033447265625 119.39427185058594 C 31.285606384277344 95.82331848144531 30.53070068359375 93.46002960205078 32.174102783203125 90.96658325195312 C 35.022132873535156 90.30977630615234 36.25288391113281 87.63375091552734 35.76085662841797 85.2828598022461 C 34.961402893066406 80.27728271484375 37.18859100341797 74.98837280273438 40.48777389526367 72.99992370605469 C 41.83903884887695 71.0501708984375 57.57490921020508 71.40771484375 113.15406036376953 71.71500396728516 C 191.37655639648438 72.39797973632812 184.97784423828125 68.46514129638672 191.27664184570312 77.19625091552734 L 195.4715576171875 83.45755767822266 L 195.99998474121094 142.493408203125 L 191.84085083007812 147.10951232910156 L 187.921630859375 150.91525268554688 L 113.15667724609375 149.7227783203125 C 72.18794250488281 150.44015502929688 38.845672607421875 151.41822814941406 37.45152282714844 150.26905822753906" stroke-width="0.0" fill="rgb(251, 193, 20)" opacity="0.98855686"/>
    <path d="M 59.46352005004883 154.4118194580078 C 52.71372604370117 147.31460571289062 54.19040298461914 136.783935546875 63.55398941040039 131.9834442138672 C 69.89315795898438 128.8478240966797 75.16886901855469 129.92236328125 80.38140106201172 134.81871032714844 C 83.38970947265625 138.063232421875 83.85370635986328 139.3387451171875 83.63098907470703 143.15086364746094 C 83.46495819091797 152.10726928710938 78.14854431152344 157.17906188964844 68.733154296875 157.81747436523438 C 65.09478759765625 157.20196533203125 62.80229568481445 157.18467712402344 59.46352005004883 154.4118194580078" stroke-width="1.0" fill="rgb(0, 0, 0)" opacity="1.0"/>
    <path d="M 148.43370056152344 155.71629333496094 C 143.93505859375 152.89418029785156 141.62063598632812 148.60079956054688 141.382568359375 142.84124755859375 C 141.5950927734375 129.70494079589844 157.82777404785156 123.2657241821289 167.2899169921875 132.61782836914062 C 173.57508850097656 139.01966857910156 172.9466552734375 148.58343505859375 165.66575622558594 154.0743408203125 C 162.27182006835938 158.20494079589844 153.60162353515625 158.48985290527344 148.43370056152344 155.71629333496094" stroke-width="1.0" fill="rgb(0, 0, 1)" opacity="0.9980312"/>
    <path d="M 47.65761947631836 103.2914810180664 C 45.61880111694336 99.82271575927734 45.789825439453125 97.54459381103516 48.18571090698242 95.35447692871094 C 50.25495910644531 92.61418914794922 55.943809509277344 92.72699737548828 112.05010223388672 92.8236083984375 C 167.03604125976562 92.6843490600586 173.69424438476562 92.55552673339844 175.505615234375 95.23275756835938 C 177.86190795898438 97.49295043945312 178.027099609375 100.17449951171875 175.844970703125 103.11988830566406 C 174.89353942871094 106.06720733642578 172.9912109375 105.8470458984375 111.59504699707031 105.76573944091797 C 50.497257232666016 105.9334716796875 48.3280029296875 106.17689514160156 47.65761947631836 103.2914810180664" stroke-width="1.0" fill="rgb(23, 148, 213)" opacity="0.9914729"/>
    <path d="M 82.8375244140625 146.782470703125 C 83.7421646118164 139.02481079101562 79.56167602539062 133.55612182617188 72.17638397216797 132.0327606201172 C 67.266357421875 131.48196411132812 60.481842041015625 133.86386108398438 57.88936996459961 137.49752807617188 L 56.073089599609375 140.3031005859375 L 55.9874382019043 108.09837341308594 L 113.2911376953125 107.91209411621094 C 144.560791015625 107.51131439208984 171.58071899414062 107.0498275756836 172.57925415039062 107.31130981445312 C 174.2576904296875 106.48933410644531 175.42755126953125 107.33062744140625 177.77783203125 109.54710388183594 L 180.93943786621094 112.51424407958984 L 181.23867797851562 150.54664611816406 L 168.67288208007812 150.37493896484375 L 169.29232788085938 146.94601440429688 C 171.94879150390625 133.67018127441406 154.4091033935547 126.22850799560547 144.92662048339844 136.96975708007812 C 142.6261444091797 139.9503173828125 142.279052734375 141.434326171875 142.183349609375 145.95315551757812 L 141.802734375 151.07199096679688 L 82.91124725341797 150.91976928710938 L 82.8375244140625 146.782470703125" stroke-width="1.0" fill="rgb(241, 135, 25)" opacity="0.9468661"/>
  </g>
</svg>
