<?xml version="1.0" ?>
<svg xmlns="http://www.w3.org/2000/svg" version="1.1" width="224" height="224">
  <defs/>
  <g>
    <path d="M 39.76031494140625 163.63900756835938 C 39.94502258300781 162.4416961669922 40.64421844482422 157.15567016601562 43.230628967285156 129.49346923828125 C 43.71739196777344 119.58993530273438 46.00206756591797 109.72683715820312 45.96272277832031 107.84081268310547 C 46.7730712890625 104.56353759765625 52.08931350708008 99.03146362304688 71.57440948486328 76.24481964111328 C 77.14682006835938 69.08940124511719 86.85630798339844 57.94682312011719 92.53584289550781 51.01390838623047 C 110.52467346191406 29.582611083984375 111.26847076416016 28.2540283203125 113.81539154052734 28.653884887695312 C 116.3845443725586 31.32867431640625 135.53793334960938 53.95270538330078 166.27935791015625 90.35610961914062 L 178.61114501953125 105.79762268066406 L 180.0623321533203 120.89720916748047 C 183.02444458007812 145.77099609375 184.85549926757812 163.12747192382812 184.9459228515625 163.9438934326172 C 184.06314086914062 165.25930786132812 40.128517150878906 164.71949768066406 39.76031494140625 163.63900756835938" stroke-width="0.0" fill="rgb(254, 160, 0)" opacity="0.9980674"/>
    <path d="M 86.67393493652344 138.48126220703125 C 88.45138549804688 112.08232116699219 88.62400817871094 110.79065704345703 91.2523193359375 107.14134979248047 C 100.68896484375 95.25044250488281 114.36328887939453 93.0344467163086 125.7372055053711 101.43446350097656 C 129.43121337890625 104.10167694091797 131.9632110595703 107.08130645751953 133.706787109375 111.3620376586914 C 136.5081787109375 117.37765502929688 136.52157592773438 117.74179077148438 135.4538116455078 142.94332885742188 L 134.61740112304688 168.28857421875 L 84.9090576171875 166.0267791748047 L 86.67393493652344 138.48126220703125" stroke-width="1.0" fill="rgb(29, 119, 82)" opacity="0.991617"/>
    <path d="M 80.36105346679688 192.86233520507812 C 77.02046203613281 189.2019805908203 77.35140228271484 185.53421020507812 80.92277526855469 181.61151123046875 C 83.24972534179688 179.73129272460938 84.25801086425781 177.66256713867188 83.87995910644531 175.85548400878906 C 83.98968505859375 174.1959228515625 83.23482513427734 174.31893920898438 57.01985168457031 173.99176025390625 C 34.889312744140625 173.91802978515625 30.060569763183594 173.3263397216797 29.557708740234375 171.76113891601562 C 27.99999237060547 169.3177490234375 28.242637634277344 166.98997497558594 30.28874969482422 164.53501892089844 C 32.049598693847656 162.82809448242188 38.65937805175781 162.90045166015625 113.03515625 163.2711181640625 L 194.10916137695312 163.13101196289062 L 194.96795654296875 166.5934600830078 C 196.0 168.91647338867188 195.8074951171875 170.26571655273438 194.12692260742188 171.78260803222656 C 192.62490844726562 174.01809692382812 191.52740478515625 174.15460205078125 167.33956909179688 174.21311950683594 L 141.75523376464844 174.0655975341797 L 141.61102294921875 176.93138122558594 C 142.02105712890625 178.96153259277344 142.6217498779297 180.55352783203125 144.53302001953125 181.92466735839844 C 146.70541381835938 183.52450561523438 147.3817138671875 184.9663848876953 147.53018188476562 188.2281951904297 C 147.25360107421875 195.11964416503906 145.9086456298828 195.7459716796875 111.91942596435547 195.65081787109375 L 82.88833618164062 195.58364868164062 L 80.36105346679688 192.86233520507812" stroke-width="1.0" fill="rgb(21, 130, 161)" opacity="0.99447834"/>
    <path d="M 70.4739990234375 162.28805541992188 C 69.78152465820312 160.67010498046875 72.55242919921875 124.73139190673828 73.79957580566406 118.09398651123047 C 76.34514617919922 106.81217193603516 84.72773742675781 96.4767074584961 95.85943603515625 91.32002258300781 C 101.63367462158203 88.36210632324219 102.73576354980469 87.98725891113281 112.93222045898438 87.4555435180664 C 123.32955932617188 88.28926849365234 124.72722625732422 88.71287536621094 130.6334686279297 92.13703155517578 C 143.84764099121094 98.81136322021484 151.011962890625 108.73516082763672 152.39723205566406 124.08802795410156 C 153.7222137451172 138.72361755371094 155.13388061523438 161.91114807128906 154.9320831298828 162.42124938964844 C 153.9910888671875 163.93865966796875 138.1284637451172 163.4983367919922 136.77450561523438 162.03021240234375 C 136.2630157470703 161.3581085205078 135.7136993408203 152.15713500976562 136.52975463867188 138.7309112548828 C 134.33067321777344 118.08356475830078 134.26141357421875 116.35014343261719 132.4277801513672 112.67379760742188 C 123.9738540649414 100.61369323730469 108.68592071533203 98.09954833984375 99.03845977783203 106.67144775390625 C 92.15060424804688 113.13224029541016 90.94849395751953 115.54487609863281 90.07939147949219 139.41766357421875 C 90.33863067626953 151.48129272460938 89.84537506103516 161.5321502685547 89.87863159179688 162.17880249023438 C 88.86540985107422 163.6488800048828 70.95654296875 163.58041381835938 70.4739990234375 162.28805541992188" stroke-width="0.0" fill="rgb(106, 128, 37)" opacity="0.9680953"/>
    <path d="M 85.19066619873047 139.89772033691406 C 85.23299407958984 117.80237579345703 85.63903045654297 115.837158203125 87.90580749511719 111.97759246826172 C 94.86371612548828 98.51425170898438 110.59720611572266 92.94395446777344 123.92526245117188 99.22634887695312 C 129.8154296875 101.84919738769531 137.39047241210938 109.7109146118164 138.99539184570312 114.69119262695312 C 139.78956604003906 116.45691680908203 140.37576293945312 128.1475067138672 140.180908203125 140.50953674316406 L 140.73098754882812 163.18528747558594 L 138.6638946533203 163.1371612548828 C 136.31044006347656 163.18551635742188 136.59280395507812 163.02601623535156 135.298095703125 139.83863830566406 L 135.0531005859375 116.98828887939453 L 132.09841918945312 112.080810546875 C 124.35415649414062 98.87515258789062 106.69001007080078 96.94522094726562 96.2513656616211 107.89322662353516 C 90.63221740722656 113.35768127441406 90.00616455078125 116.49028015136719 90.75914001464844 141.13986206054688 L 90.61125183105469 163.26734924316406 L 85.06654357910156 163.36392211914062 L 85.19066619873047 139.89772033691406" stroke-width="1.0" fill="rgb(254, 158, 5)" opacity="0.9980121"/>
  </g>
</svg>
