<?xml version="1.0" ?>
<svg xmlns="http://www.w3.org/2000/svg" version="1.1" width="224" height="224">
  <defs/>
  <g>
    <path d="M 119.34991455078125 77.25829315185547 L 129.5955352783203 66.8213119506836 L 135.40538024902344 66.41850280761719 C 139.55397033691406 66.67758178710938 140.98532104492188 67.03922271728516 141.39230346679688 67.9716796875 C 141.78416442871094 68.63273620605469 140.0534210205078 73.29060363769531 137.8338623046875 78.31056213378906 L 133.83531188964844 87.52269744873047 L 121.40937042236328 87.74623107910156 L 109.10923767089844 88.08561706542969 L 119.34991455078125 77.25829315185547" stroke-width="1.0" fill="rgb(208, 59, 72)" opacity="0.99410367"/>
    <path d="M 28.166839599609375 128.3732452392578 C 28.407272338867188 123.7176284790039 32.16259002685547 106.30516815185547 33.445472717285156 104.66140747070312 C 34.616668701171875 103.44578552246094 36.38867950439453 101.90302276611328 37.75471496582031 101.045654296875 C 41.02323913574219 99.00899505615234 50.41564178466797 97.15934753417969 55.98181915283203 97.32381439208984 C 59.450218200683594 97.30110931396484 60.9012451171875 96.82888793945312 62.629940032958984 95.68975067138672 C 63.79881286621094 94.53866577148438 68.03014373779297 87.84954833984375 72.22563171386719 80.72886657714844 C 79.29847717285156 68.4123306274414 79.76252746582031 67.59443664550781 82.5596923828125 67.4503173828125 C 84.15228271484375 67.46394348144531 85.8487777709961 67.50360107421875 87.03971862792969 67.77323913574219 C 87.38076782226562 68.57832336425781 85.50527954101562 75.12571716308594 83.24666595458984 82.66561126708984 C 80.84658813476562 89.86720275878906 79.08511352539062 96.21172332763672 79.016357421875 96.68400573730469 C 79.91903686523438 96.8410873413086 83.14007568359375 97.14575958251953 86.47502136230469 96.96894836425781 L 92.67105102539062 96.67736053466797 L 96.67814636230469 92.07542419433594 L 100.39100646972656 87.26310729980469 L 120.45146179199219 87.27229309082031 C 143.3434600830078 86.9813461303711 146.26377868652344 87.12515258789062 147.6425323486328 92.2328872680664 C 149.58013916015625 97.17921447753906 151.07728576660156 97.26941680908203 163.71051025390625 97.00140380859375 L 174.719482421875 97.20685577392578 L 177.9224090576172 99.6055908203125 L 180.28543090820312 102.59840393066406 L 176.14547729492188 102.27755737304688 C 172.39117431640625 101.86434936523438 171.80914306640625 101.93651580810547 171.58554077148438 104.07765197753906 C 172.40362548828125 105.9415054321289 173.15383911132812 106.59196472167969 176.81497192382812 105.66377258300781 C 182.553466796875 105.65582275390625 184.03396606445312 108.06389617919922 178.33596801757812 108.3038330078125 C 175.0980987548828 108.11247253417969 173.72476196289062 108.32245635986328 173.69512939453125 109.31983947753906 C 173.88934326171875 111.27796936035156 176.32713317871094 112.65283966064453 180.12469482421875 111.815673828125 C 182.28855895996094 111.37452697753906 184.03396606445312 111.8857650756836 184.80157470703125 112.83064270019531 C 185.8197021484375 113.59489440917969 185.0752410888672 114.06782531738281 181.7843475341797 114.11100769042969 C 176.44976806640625 113.60542297363281 175.90924072265625 113.86793518066406 177.41357421875 116.73519134521484 C 178.54757690429688 118.18405151367188 179.36993408203125 118.24803161621094 182.76016235351562 117.4619140625 C 185.45152282714844 117.23722076416016 187.01223754882812 117.32870483398438 187.74232482910156 118.68026733398438 C 188.2261199951172 119.7115707397461 186.8750457763672 119.83531951904297 183.91192626953125 120.03683471679688 C 180.78538513183594 119.77852630615234 179.5968017578125 119.82196044921875 179.2367706298828 120.69020080566406 C 179.56002807617188 122.8003921508789 183.2892303466797 124.60145568847656 186.55361938476562 123.64846801757812 C 188.891845703125 123.6163101196289 188.87667846679688 123.38298034667969 188.3044891357422 125.86795043945312 L 188.5285186767578 128.0216522216797 L 108.52318572998047 129.7105712890625 C 37.82801818847656 128.4324951171875 28.0 128.6804656982422 28.166839599609375 128.3732452392578" stroke-width="1.0" fill="rgb(250, 253, 253)" opacity="0.9968128"/>
    <path d="M 51.54065704345703 150.80935668945312 L 46.85357666015625 146.62232971191406 L 108.40533447265625 145.56002807617188 C 166.55203247070312 147.54566955566406 169.343994140625 147.13589477539062 171.03831481933594 148.49298095703125 C 172.57736206054688 151.40960693359375 172.3599395751953 153.43234252929688 170.3125 155.62452697753906 C 169.49560546875 157.5814971923828 164.1126708984375 156.85186767578125 112.75160217285156 156.92425537109375 L 57.224945068359375 156.84521484375 L 51.54065704345703 150.80935668945312" stroke-width="1.0" fill="rgb(233, 149, 36)" opacity="0.99357843"/>
    <path d="M 168.52786254882812 105.61784362792969 C 168.026123046875 104.59215545654297 145.91024780273438 104.74324798583984 110.59630584716797 105.0172348022461 C 59.439720153808594 105.01622772216797 53.71002197265625 105.44461822509766 53.622833251953125 103.82754516601562 C 53.62763977050781 102.30386352539062 53.6951904296875 101.66323852539062 54.50801086425781 100.70071411132812 C 54.60822296142578 100.12026977539062 80.26580810546875 100.42472076416016 110.87749481201172 100.02822875976562 L 165.98782348632812 100.24160766601562 L 168.6954345703125 102.23001098632812 C 169.31442260742188 103.49555969238281 170.3662109375 104.83169555664062 170.33151245117188 105.68460083007812 C 170.32925415039062 106.91504669189453 169.84193420410156 106.79056549072266 168.52786254882812 105.61784362792969" stroke-width="1.0" fill="rgb(72, 60, 86)" opacity="0.98779804"/>
    <path d="M 61.0257568359375 123.07072448730469 C 59.490447998046875 119.6064453125 66.19175720214844 120.27349853515625 118.4356918334961 120.54016876220703 C 170.18850708007812 120.3324966430664 176.79757690429688 119.43276977539062 175.58433532714844 123.0338134765625 C 172.9801483154297 124.47589874267578 63.675350189208984 124.44319152832031 61.0257568359375 123.07072448730469" stroke-width="1.0" fill="rgb(90, 111, 158)" opacity="0.98165965"/>
    <path d="M 60.060264587402344 117.48038482666016 C 60.31455993652344 116.65919494628906 60.53105926513672 116.08991241455078 61.232818603515625 114.52041625976562 C 62.053375244140625 114.55382537841797 87.71452331542969 114.55550384521484 118.33423614501953 114.51995086669922 C 166.443603515625 114.34166717529297 173.82533264160156 114.0020751953125 174.10833740234375 115.61233520507812 C 175.71832275390625 117.92340850830078 169.2388458251953 117.80814361572266 118.01725769042969 117.55081176757812 C 84.51317596435547 117.62252807617188 59.79707336425781 117.75128173828125 60.060264587402344 117.48038482666016" stroke-width="1.0" fill="rgb(84, 109, 167)" opacity="0.9982016"/>
    <path d="M 61.493560791015625 110.10578155517578 C 62.38416290283203 108.2996597290039 70.18807983398438 108.26446533203125 114.3639144897461 108.48106384277344 C 164.18360900878906 108.33231353759766 171.32244873046875 108.07444763183594 170.7872314453125 111.36138153076172 C 171.11087036132812 111.8233642578125 146.8177490234375 111.73944854736328 115.08518981933594 111.49816131591797 C 65.98429870605469 111.90252685546875 59.5404052734375 111.9040756225586 61.493560791015625 110.10578155517578" stroke-width="1.0" fill="rgb(85, 110, 165)" opacity="0.99498403"/>
    <path d="M 171.60565185546875 148.5437469482422 L 169.84774780273438 147.13763427734375 L 47.29988098144531 147.0697784423828 L 37.813720703125 137.61666870117188 L 28.97551727294922 128.50428771972656 L 50.33080291748047 128.68692016601562 C 62.038719177246094 128.4559783935547 97.88438415527344 128.4593963623047 130.169921875 128.54071044921875 C 196.0 128.614501953125 189.7826690673828 127.94369506835938 186.06272888183594 135.91793823242188 C 183.40045166015625 141.79705810546875 180.43795776367188 145.51043701171875 176.71640014648438 148.13174438476562 L 173.45806884765625 150.3880615234375 L 171.60565185546875 148.5437469482422" stroke-width="1.0" fill="rgb(73, 59, 89)" opacity="0.98086095"/>
  </g>
</svg>
