<?xml version="1.0" ?>
<svg xmlns="http://www.w3.org/2000/svg" version="1.1" width="224" height="224">
  <defs/>
  <g>
    <path d="M 56.855831146240234 127.66355895996094 C 53.01250076293945 125.26248168945312 52.18550491333008 123.35983276367188 52.371971130371094 116.26106262207031 C 52.5305061340332 112.758544921875 52.0857048034668 109.71878051757812 51.42549133300781 109.01161193847656 C 50.594215393066406 108.40834045410156 47.302669525146484 108.06671142578125 42.161224365234375 108.23739624023438 C 34.28730773925781 108.15592956542969 33.86302185058594 107.88819122314453 31.234481811523438 105.4858169555664 C 28.013916015625 101.9587631225586 28.00000762939453 96.11395263671875 31.117286682128906 92.57240295410156 C 33.05438232421875 90.5019760131836 33.94623565673828 90.57644653320312 41.069725036621094 90.34842681884766 C 52.3295783996582 90.82070922851562 52.6335334777832 90.440673828125 52.338809967041016 81.9283447265625 C 52.58689498901367 71.22206115722656 54.551780700683594 68.74507141113281 62.696815490722656 68.86767578125 C 66.05641174316406 68.86253356933594 67.25241088867188 69.33628845214844 69.13499450683594 71.34317779541016 L 71.69099426269531 73.76253509521484 L 72.07928466796875 97.46853637695312 C 71.73638916015625 123.65604400634766 71.67041015625 125.09526062011719 66.57052612304688 127.59197998046875 C 63.113121032714844 129.29736328125 60.30380630493164 129.2725830078125 56.855831146240234 127.66355895996094" stroke-width="1.0" fill="rgb(159, 188, 6)" opacity="0.9938415"/>
    <path d="M 156.1568145751953 127.09573364257812 C 151.60751342773438 124.80934143066406 151.19970703125 121.88311004638672 151.41551208496094 96.02607727050781 L 152.01683044433594 73.18460845947266 L 154.39390563964844 70.98992156982422 C 156.4121551513672 69.37985229492188 158.01583862304688 68.87570190429688 161.43385314941406 69.03761291503906 C 169.31187438964844 68.80427551269531 171.65228271484375 71.87664794921875 171.61370849609375 82.12594604492188 C 171.55523681640625 90.41712951660156 171.86245727539062 90.56643676757812 182.77882385253906 90.31922149658203 C 191.50991821289062 90.4479751586914 193.39859008789062 91.41244506835938 195.2889404296875 96.04447174072266 C 196.0 98.68257141113281 195.87603759765625 99.9002685546875 195.15769958496094 102.06229400634766 C 192.96987915039062 107.03890228271484 191.412841796875 107.8917007446289 181.3545379638672 107.83304595947266 L 171.68907165527344 108.43933868408203 L 171.69442749023438 115.55347442626953 C 171.3503875732422 123.0668716430664 169.80514526367188 126.19502258300781 165.9432373046875 127.74772644042969 C 162.5548095703125 129.55482482910156 159.4091339111328 129.32672119140625 156.1568145751953 127.09573364257812" stroke-width="1.0" fill="rgb(159, 188, 7)" opacity="0.992768"/>
    <path d="M 105.2688980102539 82.37470245361328 C 100.75985717773438 79.4996566772461 100.51763916015625 79.11763763427734 100.33151245117188 74.8372802734375 L 99.59461975097656 69.31413269042969 L 91.62378692626953 69.14945983886719 C 84.70491027832031 69.43436431884766 83.71550750732422 68.48396301269531 81.30313110351562 66.87757873535156 C 79.73750305175781 65.4632568359375 78.95114135742188 63.74879455566406 78.54972839355469 60.88198471069336 C 78.55687713623047 56.866878509521484 78.87385559082031 55.93653869628906 80.73258209228516 53.6147346496582 C 83.60232543945312 51.14113235473633 83.74007415771484 51.2104606628418 92.08560943603516 51.32053756713867 C 103.34571838378906 51.50395584106445 104.06041717529297 50.825111389160156 103.23664093017578 42.273685455322266 C 103.30223083496094 36.85557174682617 103.67227935791016 34.96499252319336 105.24017333984375 32.86606979370117 C 107.3990478515625 30.69485855102539 107.98463439941406 30.006454467773438 113.09463500976562 29.57845687866211 C 120.93095397949219 30.089431762695312 122.87165069580078 31.839271545410156 123.39766693115234 41.641014099121094 C 123.29183197021484 45.327667236328125 123.74017333984375 49.390323638916016 123.92967224121094 50.48041915893555 C 124.89469909667969 51.24632263183594 129.18711853027344 51.46559524536133 134.0747833251953 51.25028991699219 C 141.3740997314453 51.26484298706055 142.7646026611328 51.4112434387207 144.88262939453125 53.5765266418457 C 148.17544555664062 56.94187927246094 148.20265197753906 63.01934051513672 145.0434112548828 66.50465393066406 C 142.45645141601562 68.88829040527344 141.5201873779297 69.2191390991211 133.80809020996094 69.04491424560547 C 123.5817642211914 68.96205139160156 122.7521743774414 70.1852035522461 123.7434310913086 75.41403198242188 C 123.336669921875 79.79369354248047 123.22762298583984 80.50932312011719 118.91887664794922 82.59173583984375 C 114.58390045166016 85.5291519165039 110.30818939208984 85.48931121826172 105.2688980102539 82.37470245361328" stroke-width="0.0" fill="rgb(158, 187, 7)" opacity="0.993913"/>
    <path d="M 87.11013793945312 193.3181610107422 C 94.48387145996094 176.97122192382812 95.73812866210938 168.5205078125 96.3235855102539 143.14305114746094 C 96.54680633544922 120.03106689453125 95.54878997802734 117.57496643066406 89.21009826660156 111.43158721923828 C 85.64012908935547 108.05030059814453 79.20681762695312 105.64408874511719 74.22950744628906 106.04998779296875 L 71.67764282226562 105.30872344970703 L 71.59127044677734 92.91181182861328 L 79.09700012207031 92.75894927978516 C 86.60596466064453 93.35467529296875 90.9832992553711 94.95169067382812 96.80982208251953 99.21113586425781 C 98.2911376953125 100.55513000488281 99.7536392211914 101.45262908935547 100.02308654785156 101.56361389160156 C 100.00725555419922 101.58563995361328 99.98062133789062 94.42695617675781 99.99047088623047 85.40422821044922 C 99.87632751464844 68.11638641357422 100.92465209960938 64.63720703125 103.21258544921875 73.58338928222656 C 103.09895324707031 76.52240753173828 104.05332946777344 79.33189392089844 104.6538314819336 80.45056915283203 C 109.59813690185547 86.21415710449219 119.52932739257812 84.86318969726562 122.43285369873047 77.93511199951172 C 123.63103485107422 74.97065734863281 123.78227233886719 76.20796203613281 123.88859558105469 88.01354217529297 C 123.77239990234375 94.93299865722656 123.8597183227539 100.87728881835938 124.09391784667969 100.65792846679688 C 124.75086975097656 100.54536437988281 127.79342651367188 98.53719329833984 131.37490844726562 96.43273162841797 C 137.1251220703125 94.0385513305664 139.4937744140625 93.36406707763672 144.86619567871094 92.6994857788086 L 151.53982543945312 92.50760650634766 L 151.5865478515625 105.53394317626953 L 146.42352294921875 106.13800048828125 C 136.96142578125 106.83995056152344 130.73187255859375 110.80661010742188 127.02767181396484 118.01089477539062 L 124.73330688476562 122.85747528076172 L 124.39154815673828 145.3914794921875 C 125.34717559814453 171.32627868652344 126.66667938232422 178.1256103515625 132.63775634765625 192.88418579101562 C 132.85223388671875 194.42153930664062 131.24661254882812 193.90805053710938 109.9878921508789 193.55731201171875 C 91.86421203613281 193.57943725585938 87.78742218017578 193.69949340820312 87.11013793945312 193.3181610107422" stroke-width="1.0" fill="rgb(1, 2, 1)" opacity="0.9951311"/>
  </g>
</svg>
