<?xml version="1.0" ?>
<svg xmlns="http://www.w3.org/2000/svg" version="1.1" width="224" height="224">
  <defs/>
  <g>
    <path d="M 55.78346633911133 142.31211853027344 C 53.54572296142578 141.07716369628906 50.61287307739258 137.5387725830078 50.270103454589844 135.02212524414062 C 50.243568420410156 133.49478149414062 48.13351821899414 132.43959045410156 45.179847717285156 132.35769653320312 C 39.818626403808594 129.54725646972656 38.279090881347656 126.8780517578125 37.19725036621094 120.81130981445312 C 36.8001708984375 117.08367156982422 37.38200378417969 114.69254302978516 38.735374450683594 112.52915954589844 C 40.353424072265625 109.26041412353516 41.271018981933594 107.88252258300781 50.675636291503906 105.67989349365234 C 53.52598190307617 104.59642791748047 54.06407165527344 101.80023193359375 52.244503021240234 99.89968872070312 C 44.705955505371094 95.53147888183594 44.29950714111328 94.18452453613281 43.83068084716797 89.72505187988281 C 43.33324432373047 88.2239990234375 43.44317626953125 83.66592407226562 43.314178466796875 80.5257797241211 C 44.057159423828125 76.67037963867188 44.95616149902344 75.34869384765625 47.406795501708984 73.1104736328125 C 49.891910552978516 71.25027465820312 52.41792297363281 69.90162658691406 54.985816955566406 69.81500244140625 C 61.30896759033203 69.36761474609375 62.86442565917969 67.66368103027344 62.48638916015625 59.000221252441406 C 62.9322624206543 53.0329704284668 63.61287307739258 52.342018127441406 66.38892364501953 49.226158142089844 C 70.85946655273438 45.90117645263672 74.13746643066406 45.216209411621094 79.8644790649414 46.51981735229492 C 84.39826202392578 48.16352462768555 85.05276489257812 48.13007736206055 86.62612915039062 46.33882141113281 C 87.0928726196289 45.42964553833008 87.36317443847656 43.232696533203125 86.85616302490234 41.257354736328125 C 86.804931640625 37.29457092285156 88.69024658203125 33.51433563232422 92.21170043945312 30.939743041992188 C 95.69698333740234 28.0 103.56975555419922 28.39862823486328 108.76406860351562 32.47296142578125 C 112.87138366699219 36.473594665527344 114.90616607666016 36.40861511230469 120.1397933959961 32.306556701660156 C 125.94561767578125 28.99773406982422 132.61785888671875 29.445083618164062 135.75350952148438 32.02387237548828 C 138.75100708007812 33.381683349609375 140.46884155273438 37.93878936767578 141.01138305664062 42.23548126220703 C 140.56214904785156 47.946712493896484 141.66790771484375 50.0154914855957 149.9169464111328 48.92715835571289 C 158.0872039794922 47.8828125 160.9601287841797 50.03517532348633 163.66868591308594 54.15959167480469 C 165.33047485351562 56.48597717285156 166.45809936523438 58.21285629272461 166.32583618164062 66.13691711425781 C 163.73001098632812 76.77694702148438 165.15403747558594 78.41014099121094 170.16331481933594 78.01897430419922 C 178.0162811279297 78.04082489013672 183.216552734375 84.01963806152344 183.4701690673828 92.57972717285156 C 183.13145446777344 96.27182006835938 182.70156860351562 97.63129425048828 180.61593627929688 100.69632720947266 C 178.85879516601562 101.93331146240234 176.46792602539062 103.55400085449219 174.74142456054688 103.81236267089844 C 171.9052276611328 104.66162109375 173.02439880371094 108.70018005371094 176.69619750976562 108.92485046386719 C 182.568359375 108.92214965820312 187.1998291015625 117.48348236083984 185.31137084960938 123.78907012939453 C 185.01800537109375 126.74076843261719 179.63687133789062 132.3493194580078 177.7242431640625 132.04840087890625 C 177.1209259033203 131.70127868652344 174.21485900878906 133.81546020507812 172.66677856445312 137.498291015625 C 168.39285278320312 142.54190063476562 168.11056518554688 142.77432250976562 162.64205932617188 143.61386108398438 C 156.96109008789062 143.68699645996094 156.72341918945312 143.57179260253906 152.4759063720703 140.59828186035156 C 150.0756072998047 137.18788146972656 149.6650848388672 135.53700256347656 149.1349334716797 132.5820770263672 C 150.10440063476562 120.10594177246094 144.14581298828125 115.630859375 135.2032470703125 120.40933227539062 C 130.33349609375 123.5121841430664 126.82208251953125 130.6415557861328 126.20590209960938 139.42538452148438 L 126.46285247802734 142.75637817382812 L 113.2761459350586 143.10789489746094 C 104.51895141601562 143.2850799560547 99.91560363769531 143.0275421142578 98.9333724975586 142.19004821777344 C 98.4939956665039 141.57208251953125 98.34915161132812 139.37228393554688 98.73250579833984 137.52284240722656 C 98.34603881835938 129.0570831298828 92.1336441040039 121.00863647460938 85.25987243652344 121.01774597167969 C 79.67976379394531 121.08050537109375 75.46240234375 125.64035034179688 75.77186584472656 132.06373596191406 C 74.687255859375 137.89991760253906 72.78448486328125 140.30783081054688 69.67938232421875 142.0590362548828 C 66.87665557861328 144.1774444580078 59.034507751464844 144.05874633789062 55.78346633911133 142.31211853027344" stroke-width="0.0" fill="rgb(52, 103, 57)" opacity="0.99353814"/>
    <path d="M 81.2751693725586 194.46861267089844 C 79.78870391845703 191.76754760742188 81.51554870605469 189.52365112304688 85.07627868652344 188.5192413330078 C 89.94236755371094 188.2008514404297 92.16129302978516 186.32891845703125 94.76132202148438 181.23841857910156 C 97.74282836914062 175.04405212402344 99.07467651367188 164.32833862304688 98.89293670654297 147.5914306640625 C 98.48306274414062 135.60690307617188 98.01707458496094 132.66757202148438 96.38683319091797 128.96873474121094 C 94.44482421875 124.63323974609375 90.83934020996094 121.5342788696289 86.85318756103516 120.489013671875 C 83.90543365478516 119.696533203125 79.27857971191406 115.16636657714844 78.55288696289062 112.15218353271484 C 77.58444213867188 108.0964584350586 78.95057678222656 105.44187927246094 83.07110595703125 103.78540802001953 C 89.42156982421875 101.02198028564453 90.54134368896484 99.23982238769531 90.39778137207031 91.11209869384766 C 90.4481430053711 83.19258880615234 90.86007690429688 81.70989990234375 93.9219741821289 81.864501953125 C 97.94239807128906 81.78856658935547 99.16181182861328 84.27070617675781 98.9735107421875 93.19795227050781 C 99.05244445800781 102.96007537841797 100.57149505615234 106.97396087646484 105.3849105834961 109.46907806396484 C 108.9948959350586 111.3204574584961 115.0794677734375 111.05241394042969 118.48974609375 108.86408996582031 C 122.11723327636719 106.3143081665039 124.26570129394531 100.45368957519531 124.29859924316406 92.98162841796875 C 124.27587127685547 85.36007690429688 126.31639862060547 81.90743255615234 130.79489135742188 82.01448822021484 C 134.41879272460938 81.74374389648438 135.2255401611328 84.04273223876953 134.59242248535156 90.24444580078125 C 133.84454345703125 97.33454132080078 136.08834838867188 100.95087432861328 142.74423217773438 103.254638671875 C 145.26251220703125 103.95486450195312 144.71400451660156 108.30551147460938 141.64808654785156 112.53409576416016 C 140.13916015625 114.31092834472656 138.8579864501953 116.43189239501953 138.85780334472656 116.88560485839844 C 138.84994506835938 117.43711853027344 137.31301879882812 118.62663269042969 135.75796508789062 119.73745727539062 C 128.365966796875 123.3501968383789 125.688720703125 133.8765106201172 126.68225860595703 154.90432739257812 C 127.16632080078125 169.5614013671875 128.8778076171875 178.90328979492188 131.83424377441406 183.20626831054688 C 134.15875244140625 186.85794067382812 136.42294311523438 188.15756225585938 141.0647735595703 188.7403106689453 C 144.22389221191406 189.66961669921875 145.5174102783203 191.7275390625 143.68630981445312 194.4874267578125 C 142.9668731689453 195.8929443359375 137.76535034179688 195.97940063476562 112.48654174804688 195.87283325195312 C 86.15052795410156 195.9906768798828 82.30406188964844 196.0 81.2751693725586 194.46861267089844" stroke-width="1.0" fill="rgb(72, 34, 50)" opacity="0.99722326"/>
  </g>
</svg>
