<?xml version="1.0" ?>
<svg xmlns="http://www.w3.org/2000/svg" version="1.1" width="224" height="224">
  <defs/>
  <g>
    <path d="M 176.12399291992188 116.79847717285156 C 153.8748779296875 99.25324249267578 107.61395263671875 60.43984603881836 106.54873657226562 56.97993850708008 C 105.41654205322266 55.26287841796875 103.78675079345703 53.94247817993164 102.36407470703125 53.838890075683594 C 100.14508056640625 53.74968719482422 93.22234344482422 46.13777160644531 92.85247802734375 43.50918960571289 C 93.1274642944336 40.45282745361328 101.51521301269531 34.071868896484375 108.04096984863281 31.555038452148438 C 111.30062866210938 29.800804138183594 119.0057373046875 28.373550415039062 127.70884704589844 28.0 C 142.16348266601562 29.100059509277344 142.35873413085938 29.274566650390625 153.1171112060547 34.400482177734375 C 177.68702697753906 46.42124938964844 191.5714111328125 69.02656555175781 191.75540161132812 96.66229248046875 C 191.08541870117188 109.21729278564453 189.24618530273438 116.58833312988281 184.95025634765625 118.9637222290039 C 182.8985595703125 120.8772201538086 181.40957641601562 120.75174713134766 176.12399291992188 116.79847717285156" stroke-width="0.0" fill="rgb(58, 186, 72)" opacity="0.9924271"/>
    <path d="M 102.15052795410156 154.86634826660156 C 102.25923919677734 132.0237579345703 102.02871704101562 100.93241882324219 102.35433959960938 85.27913665771484 L 102.27033996582031 57.36461639404297 L 106.31755065917969 56.356441497802734 C 119.17327117919922 53.743621826171875 148.10586547851562 69.27484130859375 154.25230407714844 82.20934295654297 C 155.80242919921875 85.74287414550781 158.68048095703125 90.17999267578125 160.28395080566406 92.12861633300781 C 161.95147705078125 94.100830078125 164.92849731445312 98.53568267822266 166.37037658691406 102.17031860351562 C 168.3466796875 105.73197937011719 171.12228393554688 110.57620239257812 172.51800537109375 112.56279754638672 C 175.17874145507812 116.3740463256836 175.6417999267578 118.91047668457031 175.40167236328125 133.12289428710938 C 175.3499298095703 142.3516082763672 174.37164306640625 151.16082763671875 173.5550994873047 153.1121826171875 C 172.3680877685547 154.6466064453125 170.50709533691406 159.90310668945312 168.5138397216797 164.195068359375 C 163.2516632080078 175.20858764648438 153.76992797851562 184.91213989257812 142.9420928955078 190.2050323486328 C 134.67404174804688 194.42355346679688 133.13998413085938 195.21441650390625 118.65609741210938 195.5670166015625 L 102.85066986083984 196.0 L 102.15052795410156 154.86634826660156" stroke-width="1.0" fill="rgb(255, 191, 160)" opacity="0.99592954"/>
    <path d="M 73.18707275390625 193.2295684814453 C 54.11933135986328 187.24964904785156 37.93351745605469 168.42333984375 34.12135314941406 148.19271850585938 C 32.24458312988281 137.57542419433594 32.524635314941406 122.20138549804688 34.912078857421875 111.95904541015625 C 40.97123718261719 86.056396484375 62.48301315307617 64.52490997314453 88.39704895019531 58.42473602294922 C 96.4404067993164 56.575687408447266 111.46412658691406 55.44668197631836 104.62396240234375 57.036624908447266 C 101.69415283203125 57.72775650024414 102.00684356689453 59.52992630004883 102.84546661376953 126.65180206298828 L 103.61604309082031 195.40902709960938 L 91.25839233398438 195.2161865234375 C 84.58638000488281 195.07870483398438 76.31393432617188 194.22195434570312 73.18707275390625 193.2295684814453" stroke-width="1.0" fill="rgb(254, 149, 128)" opacity="1.0"/>
  </g>
</svg>
