<?xml version="1.0" ?>
<svg xmlns="http://www.w3.org/2000/svg" version="1.1" width="224" height="224">
  <defs/>
  <g>
    <path d="M 69.23406982421875 39.384918212890625 C 69.23406982421875 39.384918212890625 69.23406982421875 39.384918212890625 69.23406982421875 39.384918212890625 C 59.24547576904297 45.2791748046875 50.549476623535156 53.0521125793457 43.83665084838867 62.5356330871582 C 37.80685043334961 71.05368041992188 33.46263885498047 80.74165344238281 31.117507934570312 90.91121673583984 C 28.84052276611328 100.78773498535156 28.455848693847656 111.08451843261719 29.9862060546875 121.10414123535156 C 31.41509246826172 130.46499633789062 34.51518249511719 139.5562744140625 39.09716796875 147.8426055908203 C 43.1854362487793 155.23770141601562 48.44438552856445 161.977783203125 54.625633239746094 167.73875427246094 C 80.17145538330078 191.54750061035156 119.34056854248047 196.0 149.5781707763672 178.54212951660156 C 179.81578063964844 161.08424377441406 195.54415893554688 124.93875122070312 187.69775390625 90.91121673583984 C 185.79864501953125 82.6763687133789 182.59100341796875 74.75198364257812 178.23089599609375 67.51213073730469 C 173.3460235595703 59.40070724487305 167.0224151611328 52.169944763183594 159.63037109375 46.2514533996582 C 151.71885681152344 39.91724395751953 142.608642578125 35.101280212402344 132.91690063476562 32.13521957397461 C 122.93739318847656 29.08056640625 112.3763427734375 28.0 101.98490905761719 28.96319580078125 C 90.41447448730469 30.035430908203125 79.33396911621094 33.68147659301758 69.23406982421875 39.384918212890625 C 69.23406982421875 39.384918212890625 69.23406982421875 39.384918212890625 69.23406982421875 39.384918212890625" stroke-width="0.0" fill="rgb(200, 198, 196)" opacity="1.0" stroke="rgb(0, 0, 0)" stroke-opacity="1.0" stroke-linecap="round" stroke-linejoin="round"/>
    <path d="M 76.28536987304688 74.79741668701172 C 76.28536987304688 74.79741668701172 76.28536987304688 74.79741668701172 76.28536987304688 74.79741668701172 C 85.96273803710938 65.5849838256836 100.2054214477539 62.76355743408203 112.43616485595703 68.58663940429688 C 115.7301025390625 70.15485382080078 118.58712005615234 72.291748046875 121.22000122070312 74.79741668701172 C 128.6703643798828 82.2477798461914 136.1207275390625 89.6981430053711 143.57107543945312 97.14849853515625 C 152.56846618652344 106.56765747070312 155.5261993408203 120.36962890625 150.1915283203125 132.4527130126953 C 148.58847045898438 136.0821075439453 146.30316162109375 139.22914123535156 143.5733642578125 142.0869140625 C 143.22579956054688 142.4344940185547 142.8782196044922 142.7820587158203 142.53065490722656 143.12962341308594 C 139.89776611328125 145.6352996826172 137.0399932861328 147.77218627929688 133.74681091308594 149.34039306640625 C 121.51531982421875 155.16424560546875 107.27262878417969 152.34205627441406 97.5945053100586 143.12962341308594 C 90.14338684082031 135.6785125732422 82.69226837158203 128.22738647460938 75.24114990234375 120.7762680053711 C 72.51210021972656 117.91925048828125 70.22602844238281 114.772216796875 68.62374114990234 111.14433288574219 C 63.28528594970703 99.06050109863281 66.2437744140625 85.26154327392578 75.24114990234375 75.84087371826172 C 75.5894775390625 75.4933090209961 75.93704223632812 75.14498901367188 76.28536987304688 74.79741668701172" stroke-width="0.0" fill="rgb(255, 255, 255)" opacity="1.0" stroke="rgb(0, 0, 0)" stroke-opacity="1.0" stroke-linecap="round" stroke-linejoin="round"/>
    <path d="M 92.80049896240234 85.26078796386719 C 94.61405944824219 86.91911315917969 96.42837524414062 88.57820129394531 98.24269104003906 90.23652648925781 C 99.98280334472656 92.66571807861328 99.38838195800781 96.44882202148438 95.77413177490234 96.69718933105469 C 94.46412658691406 96.78730773925781 94.22560119628906 96.42761993408203 93.15412139892578 95.79684448242188 C 91.34056091308594 94.13851928710938 89.5262451171875 92.48019409179688 87.71192932128906 90.82110595703125 C 85.97333526611328 88.39192199707031 86.56548309326172 84.60881042480469 90.18048858642578 84.36044311523438 C 91.49049377441406 84.27033233642578 91.72901916503906 84.63002014160156 92.80049896240234 85.26078796386719 C 92.80049896240234 85.26078796386719 92.80049896240234 85.26078796386719 92.80049896240234 85.26078796386719" stroke-width="0.0" fill="rgb(146, 139, 129)" opacity="1.0" stroke="rgb(0, 0, 0)" stroke-opacity="1.0" stroke-linecap="round" stroke-linejoin="round"/>
  </g>
</svg>
