<?xml version="1.0" ?>
<svg xmlns="http://www.w3.org/2000/svg" version="1.1" width="224" height="224">
  <defs/>
  <g>
    <path d="M 118.49758911132812 43.06196594238281 C 118.49758911132812 43.06196594238281 118.49758911132812 43.06196594238281 118.49758911132812 43.06196594238281 C 112.76142883300781 43.485435485839844 108.85152435302734 46.906089782714844 107.63045501708984 52.5222053527832 C 107.59427642822266 52.887290954589844 107.55809020996094 53.25238037109375 107.52108764648438 53.61664581298828 C 107.50546264648438 53.7745246887207 107.489013671875 53.93239974975586 107.47257995605469 54.08945083618164 C 107.47257995605469 57.13597106933594 107.47257995605469 60.18330764770508 107.47257995605469 63.229827880859375 C 84.65699768066406 63.22818374633789 61.840599060058594 63.227359771728516 39.024200439453125 63.22653579711914 C 33.28803253173828 63.65000534057617 29.378955841064453 67.0706558227539 28.157878875732422 72.6875991821289 C 28.120880126953125 73.05268859863281 28.084693908691406 73.41695404052734 28.04851531982422 73.78204345703125 C 28.032073974609375 73.93909454345703 28.015625 74.09696960449219 28.000003814697266 74.25402069091797 C 28.000003814697266 83.57365417480469 28.000003814697266 92.89328002929688 28.000003814697266 102.21290588378906 C 28.015625 102.37078857421875 28.032073974609375 102.52783966064453 28.04851531982422 102.68572235107422 C 28.04851531982422 119.69605255126953 28.04851531982422 136.70639038085938 28.04851531982422 153.71755981445312 C 28.368377685546875 153.71755981445312 28.688243865966797 153.71755981445312 29.008106231689453 153.71755981445312 C 29.02373504638672 153.89598083496094 29.040176391601562 154.0752410888672 29.055801391601562 154.25367736816406 C 29.055801391601562 154.6187744140625 29.055801391601562 154.98385620117188 29.055801391601562 155.34893798828125 C 30.378833770751953 160.94366455078125 34.27722930908203 164.38406372070312 40.032310485839844 164.80917358398438 C 82.29708099365234 164.80917358398438 124.56184387207031 164.80917358398438 166.82662963867188 164.80917358398438 C 172.56361389160156 164.38571166992188 176.47268676757812 160.96505737304688 177.694580078125 155.34893798828125 C 177.74639892578125 121.0733642578125 177.79901123046875 86.79778289794922 177.85165405273438 52.5222053527832 C 176.48419189453125 46.93733215332031 172.5907440185547 43.48789978027344 166.82662963867188 43.06196594238281 C 150.7166748046875 43.06196594238281 134.6075439453125 43.06196594238281 118.49758911132812 43.06196594238281" stroke-width="0.0" fill="rgb(146, 139, 129)" opacity="1.0" stroke="rgb(0, 0, 0)" stroke-opacity="1.0" stroke-linecap="round" stroke-linejoin="round"/>
    <path d="M 136.6467742919922 59.190826416015625 C 136.6467742919922 59.190826416015625 136.6467742919922 59.190826416015625 136.6467742919922 59.190826416015625 C 130.9097900390625 59.61429977416992 127.00070190429688 63.034950256347656 125.77880859375 68.65106201171875 C 125.74263000488281 69.01615142822266 125.70645141601562 69.38124084472656 125.66944885253906 69.74633026123047 C 125.65382385253906 69.90338134765625 125.63737487792969 70.06126403808594 125.62094116210938 70.21831512451172 C 125.62094116210938 73.26565551757812 125.62094116210938 76.31216430664062 125.62094116210938 79.35868835449219 C 102.80535888671875 79.35786437988281 79.98896026611328 79.3562240600586 57.17256164550781 79.35540008544922 C 51.436397552490234 79.77886962890625 47.527313232421875 83.19951629638672 46.30624008178711 88.81645965576172 C 46.26924133300781 89.18154907226562 46.233062744140625 89.546630859375 46.19688034057617 89.91090393066406 C 46.1804313659668 90.06877899169922 46.16398620605469 90.22583770751953 46.14836502075195 90.38288116455078 C 46.14836502075195 99.7025146484375 46.14836502075195 109.02214813232422 46.14836502075195 118.3417739868164 C 46.16398620605469 118.49964904785156 46.1804313659668 118.65670013427734 46.19688034057617 118.8145751953125 C 46.19688034057617 135.82492065429688 46.19688034057617 152.83609008789062 46.19688034057617 169.84642028808594 C 46.51674270629883 169.84642028808594 46.836605072021484 169.84642028808594 47.156471252441406 169.84642028808594 C 47.17209243774414 170.02484130859375 47.18853759765625 170.2041015625 47.20416259765625 170.38336181640625 C 47.20416259765625 170.74761962890625 47.20416259765625 171.11270141601562 47.20416259765625 171.47779846191406 C 48.527198791503906 177.07254028320312 52.42558670043945 180.51292419433594 58.18067169189453 180.93804931640625 C 100.44544219970703 180.93804931640625 142.71022033691406 180.93804931640625 184.9749755859375 180.93804931640625 C 190.71197509765625 180.5145721435547 194.62106323242188 177.0939178466797 195.8429412841797 171.47779846191406 C 195.89476013183594 137.2022247314453 195.9473876953125 102.92664337158203 196.0 68.65106201171875 C 194.632568359375 63.066192626953125 190.73910522460938 59.616764068603516 184.9749755859375 59.190826416015625 C 168.8658447265625 59.190826416015625 152.7559051513672 59.190826416015625 136.6467742919922 59.190826416015625" stroke-width="0.0" fill="rgb(220, 201, 165)" opacity="1.0" stroke="rgb(0, 0, 0)" stroke-opacity="1.0" stroke-linecap="round" stroke-linejoin="round"/>
    <path d="M 59.77916717529297 97.2077407836914 C 81.52496337890625 97.2077407836914 103.26994323730469 97.2077407836914 125.01492309570312 97.2077407836914 C 125.01492309570312 100.4277572631836 125.01492309570312 103.64777374267578 125.01492309570312 106.86779022216797 C 103.26994323730469 106.86861419677734 81.52496337890625 106.87025451660156 59.77916717529297 106.87107849121094 C 59.77916717529297 103.65023803710938 59.77916717529297 100.42858123779297 59.77916717529297 97.2077407836914" stroke-width="0.0" fill="rgb(146, 139, 129)" opacity="1.0" stroke="rgb(0, 0, 0)" stroke-opacity="1.0" stroke-linecap="round" stroke-linejoin="round"/>
    <path d="M 59.77916717529297 115.86097717285156 C 81.52496337890625 115.86097717285156 103.26994323730469 115.86097717285156 125.01492309570312 115.86097717285156 C 125.01492309570312 119.08099365234375 125.01492309570312 122.30101013183594 125.01492309570312 125.52102661132812 C 103.26994323730469 125.52102661132812 81.52496337890625 125.52102661132812 59.77916717529297 125.52102661132812 C 59.77916717529297 122.30101013183594 59.77916717529297 119.08099365234375 59.77916717529297 115.86097717285156" stroke-width="0.0" fill="rgb(146, 139, 129)" opacity="1.0" stroke="rgb(0, 0, 0)" stroke-opacity="1.0" stroke-linecap="round" stroke-linejoin="round"/>
  </g>
</svg>
