<?xml version="1.0" ?>
<svg xmlns="http://www.w3.org/2000/svg" version="1.1" width="224" height="224">
  <defs/>
  <g>
    <path d="M 38.11683654785156 191.87142944335938 C 34.170806884765625 190.08810424804688 32.477149963378906 187.97023010253906 29.751724243164062 183.85321044921875 C 28.056884765625 180.0518341064453 28.0 180.04095458984375 28.104095458984375 112.29549407958984 C 28.037353515625 44.90763854980469 28.112640380859375 44.792579650878906 29.923446655273438 41.13196563720703 C 32.508995056152344 36.8809814453125 36.43556213378906 33.01310729980469 39.72888946533203 31.548736572265625 C 41.62879180908203 30.434471130371094 65.42961120605469 30.29334259033203 111.92127990722656 30.27747344970703 L 181.81430053710938 30.30291748046875 L 185.96084594726562 32.71784210205078 C 188.7543487548828 34.01587677001953 191.11264038085938 36.22483825683594 192.92239379882812 39.56310272216797 L 195.96273803710938 43.968955993652344 L 195.81326293945312 109.79386138916016 C 196.0 152.96035766601562 195.93446350097656 177.347412109375 195.3011474609375 179.58067321777344 C 193.90737915039062 184.22689819335938 190.69851684570312 188.93508911132812 186.8937225341797 191.38961791992188 L 183.86077880859375 193.56985473632812 L 111.9996337890625 193.61325073242188 C 49.569026947021484 193.7225341796875 40.47435760498047 193.66571044921875 38.11683654785156 191.87142944335938" stroke-width="1.0" fill="rgb(85, 133, 219)" opacity="0.9877994"/>
    <path d="M 64.88809204101562 159.78326416015625 C 63.32126998901367 158.97203063964844 61.03118133544922 156.9935302734375 59.95843505859375 155.34255981445312 C 58.08818817138672 152.33807373046875 58.29539108276367 151.06494140625 58.273189544677734 106.15196990966797 L 58.58167266845703 60.03403091430664 L 61.94696044921875 56.897159576416016 L 65.49974060058594 53.688232421875 L 111.39171600341797 53.47875213623047 C 155.95916748046875 53.53205108642578 157.65574645996094 53.66412353515625 160.7529296875 55.34605026245117 C 166.35960388183594 58.942874908447266 166.53506469726562 59.14899444580078 166.29180908203125 107.57859802246094 L 166.2442169189453 151.46600341796875 L 164.29693603515625 154.61573791503906 C 160.110107421875 160.8943328857422 160.8343505859375 161.16281127929688 111.76728820800781 160.88832092285156 C 76.06063842773438 160.94052124023438 67.39474487304688 160.818115234375 64.88809204101562 159.78326416015625" stroke-width="1.0" fill="rgb(56, 75, 118)" opacity="0.991487"/>
    <path d="M 77.4913330078125 143.23789978027344 L 74.18252563476562 140.84288024902344 L 74.30931854248047 72.02892303466797 L 77.05062866210938 69.61012268066406 L 79.26116943359375 67.14952087402344 L 144.96224975585938 67.08328247070312 L 147.42648315429688 69.67193603515625 L 150.32518005371094 72.90646362304688 L 150.31138610839844 140.2989959716797 L 147.6025390625 143.12464904785156 L 144.6172637939453 145.75787353515625 L 80.56607818603516 145.888916015625 L 77.4913330078125 143.23789978027344" stroke-width="1.0" fill="rgb(253, 255, 253)" opacity="0.998097"/>
    <path d="M 101.79998016357422 129.0821533203125 C 101.31912231445312 128.56744384765625 102.8965072631836 124.54087829589844 105.3668441772461 119.71114349365234 C 119.18598937988281 94.54024505615234 119.6856689453125 93.2383804321289 112.754638671875 94.49327850341797 C 108.13301086425781 94.01542663574219 108.84333801269531 94.15071868896484 108.63858032226562 97.8199691772461 C 108.17052459716797 101.1955337524414 107.89254760742188 101.8130874633789 104.84243774414062 102.32664489746094 C 102.91165924072266 101.89459991455078 102.54120635986328 101.08574676513672 102.11688232421875 95.61860656738281 C 101.87677001953125 87.9191665649414 102.50950622558594 87.32212829589844 113.05091857910156 87.19125366210938 C 120.84581756591797 87.05962371826172 121.97288513183594 87.5455093383789 123.23575592041016 89.47633361816406 C 125.68311309814453 93.6481704711914 124.88417053222656 98.00122833251953 117.39926147460938 111.13703155517578 C 113.50584411621094 118.49547576904297 110.26522064208984 124.50117492675781 110.39448547363281 124.51592254638672 C 110.08023834228516 124.45238494873047 113.99701690673828 124.81824493408203 118.66634368896484 124.42465209960938 C 126.60136413574219 124.67913818359375 127.03909301757812 125.01566314697266 127.11260223388672 127.74951171875 L 126.81094360351562 130.6179962158203 L 114.84068298339844 130.78602600097656 C 104.05950927734375 130.96714782714844 102.48381042480469 130.77801513671875 101.79998016357422 129.0821533203125" stroke-width="1.0" fill="rgb(68, 66, 66)" opacity="0.99342453"/>
  </g>
</svg>
