<?xml version="1.0" ?>
<svg xmlns="http://www.w3.org/2000/svg" version="1.1" width="224" height="224">
  <defs/>
  <g>
    <path d="M 112.00038146972656 28.0 C 112.00038146972656 28.0 112.00038146972656 28.0 112.00038146972656 28.0 C 107.78736114501953 28.119842529296875 103.34815979003906 28.36101531982422 99.79425048828125 30.903045654296875 C 96.70245361328125 33.114044189453125 95.01575469970703 36.603538513183594 91.19969940185547 37.832611083984375 C 88.3610610961914 38.746368408203125 82.36023712158203 37.49407958984375 82.08161926269531 41.770751953125 C 81.87713623046875 44.90373611450195 83.86044311523438 48.212730407714844 85.37263488769531 50.79970932006836 C 88.97747802734375 56.969058990478516 93.53352355957031 62.67778778076172 98.27082061767578 68.0150146484375 C 107.42411041259766 68.0150146484375 116.57664489746094 68.0150146484375 125.72993469238281 68.0150146484375 C 130.4672393798828 62.67778778076172 135.0225372314453 56.969058990478516 138.62811279296875 50.79970932006836 C 140.13955688476562 48.212730407714844 142.1236114501953 44.90373611450195 141.9191436767578 41.770751953125 C 141.6397705078125 37.49407958984375 135.63894653320312 38.746368408203125 132.80105590820312 37.832611083984375 C 128.98500061035156 36.603538513183594 127.29829406738281 33.11329650878906 124.2072525024414 30.903045654296875 C 120.65335083007812 28.36101531982422 116.21339416503906 28.119842529296875 112.00038146972656 28.0 C 112.00038146972656 28.0 112.00038146972656 28.0 112.00038146972656 28.0" stroke-width="0.0" fill="rgb(255, 219, 170)" opacity="1.0" stroke="rgb(0, 0, 0)" stroke-opacity="1.0" stroke-linecap="round" stroke-linejoin="round"/>
    <path d="M 134.8038330078125 38.310462951660156 C 134.8038330078125 38.310462951660156 134.8038330078125 38.310462951660156 134.8038330078125 38.310462951660156 C 136.81259155273438 38.594322204589844 139.789794921875 38.11573028564453 141.23233032226562 39.84288024902344 C 143.29351806640625 42.310020446777344 140.78143310546875 46.82936477661133 139.5875701904297 49.083797454833984 C 135.94976806640625 55.95344161987305 130.87692260742188 62.21491622924805 125.72993469238281 68.01202392578125 C 123.31297302246094 68.01202392578125 120.89676666259766 68.01202392578125 118.48055267333984 68.01202392578125 C 123.77210235595703 62.05463409423828 128.934814453125 55.63887023925781 132.77484130859375 48.63740539550781 C 134.37991333007812 45.71113586425781 136.71148681640625 41.562538146972656 134.8038330078125 38.310462951660156 C 134.8038330078125 38.310462951660156 134.8038330078125 38.310462951660156 134.8038330078125 38.310462951660156" stroke-width="0.0" fill="rgb(255, 194, 109)" opacity="1.0" stroke="rgb(0, 0, 0)" stroke-opacity="1.0" stroke-linecap="round" stroke-linejoin="round"/>
    <path d="M 102.40818786621094 44.2558708190918 C 102.40818786621094 44.2558708190918 102.40818786621094 44.2558708190918 102.40818786621094 44.2558708190918 C 102.84634399414062 44.31129455566406 103.31295776367188 44.25736618041992 103.72264862060547 44.42214584350586 C 105.589111328125 45.173370361328125 105.44230651855469 47.694435119628906 105.73141479492188 49.31672668457031 C 106.70059204101562 54.764060974121094 108.05474853515625 60.14323806762695 109.50627136230469 65.47972106933594 C 111.17125701904297 65.47972106933594 112.83548736572266 65.47972106933594 114.50047302246094 65.47972106933594 C 115.26667785644531 62.65306854248047 115.99918365478516 59.81742858886719 116.66802215576172 56.966064453125 C 117.1458740234375 54.92884063720703 117.59600830078125 52.885623931884766 117.99296569824219 50.83116912841797 C 118.3045425415039 49.21710968017578 118.2161636352539 46.542503356933594 119.2594985961914 45.195838928222656 C 120.41966247558594 43.697879791259766 122.8838119506836 44.04091262817383 123.59009552001953 45.79876708984375 C 124.33982849121094 47.66447448730469 123.16317749023438 50.819183349609375 122.79093170166016 52.68414306640625 C 121.89215850830078 57.18476486206055 120.78666687011719 61.64569091796875 119.58979797363281 66.07591247558594 C 119.02281951904297 68.17455291748047 118.84980010986328 70.01179504394531 116.4216079711914 70.54507446289062 C 113.4751205444336 70.54507446289062 110.52787780761719 70.54507446289062 107.58139038085938 70.54507446289062 C 104.82889556884766 69.93989562988281 104.71055603027344 67.20013427734375 104.08365631103516 64.83560180664062 C 102.85308837890625 60.188926696777344 101.71537780761719 55.50779724121094 100.84881591796875 50.77873992919922 C 100.52973937988281 49.0366096496582 99.4324951171875 46.13656234741211 101.19034576416016 44.774166107177734 C 101.53936767578125 44.50453186035156 102.00224304199219 44.42888259887695 102.40818786621094 44.2558708190918 C 102.40818786621094 44.2558708190918 102.40818786621094 44.2558708190918 102.40818786621094 44.2558708190918" stroke-width="0.0" fill="rgb(255, 194, 109)" opacity="1.0" stroke="rgb(0, 0, 0)" stroke-opacity="1.0" stroke-linecap="round" stroke-linejoin="round"/>
    <path d="M 94.37612915039062 73.06539154052734 C 94.37612915039062 73.06539154052734 94.37612915039062 73.06539154052734 94.37612915039062 73.06539154052734 C 90.59452056884766 80.30503845214844 86.10588836669922 87.12150573730469 80.90046691894531 93.419677734375 C 76.58784484863281 98.63707733154297 71.65131378173828 103.19911193847656 68.29438781738281 109.15126037597656 C 64.33977508544922 116.16171264648438 62.45383834838867 123.94811248779297 62.3227653503418 131.9659423828125 C 62.3227653503418 144.0777130126953 62.3227653503418 156.19021606445312 62.3227653503418 168.30197143554688 C 62.408145904541016 170.31149291992188 62.64332962036133 172.22589111328125 63.313663482666016 174.13504028320312 C 65.83773803710938 181.32374572753906 72.48043823242188 185.5727081298828 79.90957641601562 185.88876342773438 C 101.30269622802734 185.88876342773438 122.695068359375 185.88876342773438 144.08819580078125 185.88876342773438 C 146.09695434570312 185.80264282226562 148.01133728027344 185.56820678710938 149.92124938964844 184.8978729248047 C 157.1092071533203 182.37380981445312 161.35818481445312 175.7318572998047 161.6742401123047 168.30197143554688 C 161.6750030517578 156.19021606445312 161.67649841308594 144.0777130126953 161.67724609375 131.9659423828125 C 161.54617309570312 123.94811248779297 159.66024780273438 116.16171264648438 155.70635986328125 109.15126037597656 C 152.3494415283203 103.19911193847656 147.41217041015625 98.63782501220703 143.0995330810547 93.42042541503906 C 137.8941192626953 87.12300109863281 133.40623474121094 80.30503845214844 129.6246337890625 73.06539154052734 C 117.87538146972656 73.06539154052734 106.12537384033203 73.06539154052734 94.37612915039062 73.06539154052734" stroke-width="0.0" fill="rgb(255, 219, 170)" opacity="1.0" stroke="rgb(0, 0, 0)" stroke-opacity="1.0" stroke-linecap="round" stroke-linejoin="round"/>
    <path d="M 121.28473663330078 73.06539154052734 C 124.06494903564453 73.06539154052734 126.84441375732422 73.06539154052734 129.6246337890625 73.06539154052734 C 133.40623474121094 80.30503845214844 137.8941192626953 87.12075805664062 143.0995330810547 93.41818237304688 C 147.41217041015625 98.63482666015625 152.3479461669922 103.19686889648438 155.70486450195312 109.14901733398438 C 159.6587371826172 116.15946960449219 161.54617309570312 123.94511413574219 161.67724609375 131.96295166015625 C 161.67724609375 144.07620239257812 161.67724609375 156.188720703125 161.67724609375 168.30197143554688 C 161.59185791015625 170.31149291992188 161.35667419433594 172.22662353515625 160.68634033203125 174.13653564453125 C 158.1622772216797 181.32525634765625 151.52032470703125 185.5727081298828 144.0911865234375 185.88876342773438 C 141.31097412109375 185.88876342773438 138.53076171875 185.88876342773438 135.7505340576172 185.88876342773438 C 137.7600555419922 185.80264282226562 139.67520141601562 185.56820678710938 141.5850830078125 184.8978729248047 C 148.7738037109375 182.37380981445312 153.02127075195312 175.73110961914062 153.3365936279297 168.30197143554688 C 153.3365936279297 156.188720703125 153.3365936279297 144.07620239257812 153.3365936279297 131.96295166015625 C 153.20626831054688 123.94586944580078 151.3210906982422 116.15946960449219 147.36721801757812 109.14901733398438 C 144.01104736328125 103.19612121582031 139.07302856445312 98.63557434082031 134.7603759765625 93.41818237304688 C 129.55422973632812 87.12075805664062 125.06633758544922 80.30503845214844 121.28473663330078 73.06539154052734 C 121.28473663330078 73.06539154052734 121.28473663330078 73.06539154052734 121.28473663330078 73.06539154052734" stroke-width="0.0" fill="rgb(255, 194, 109)" opacity="1.0" stroke="rgb(0, 0, 0)" stroke-opacity="1.0" stroke-linecap="round" stroke-linejoin="round"/>
    <path d="M 94.95733642578125 65.21682739257812 C 106.32011413574219 65.21682739257812 117.68289184570312 65.21682739257812 129.04566955566406 65.21682739257812 C 130.43951416015625 65.37786102294922 131.5869598388672 65.60105895996094 132.71792602539062 66.50732421875 C 135.60523986816406 68.8209228515625 135.60523986816406 73.35674285888672 132.71792602539062 75.67034912109375 C 131.5869598388672 76.57661437988281 130.43951416015625 76.7998046875 129.04566955566406 76.96009063720703 C 117.68289184570312 76.96009063720703 106.32011413574219 76.96009063720703 94.95733642578125 76.96009063720703 C 93.56348419189453 76.7998046875 92.4160385131836 76.57661437988281 91.28508758544922 75.67034912109375 C 88.39776611328125 73.35674285888672 88.39776611328125 68.8209228515625 91.28508758544922 66.50732421875 C 92.4160385131836 65.60105895996094 93.56348419189453 65.37786102294922 94.95733642578125 65.21682739257812 C 94.95733642578125 65.21682739257812 94.95733642578125 65.21682739257812 94.95733642578125 65.21682739257812" stroke-width="0.0" fill="rgb(237, 98, 100)" opacity="1.0" stroke="rgb(0, 0, 0)" stroke-opacity="1.0" stroke-linecap="round" stroke-linejoin="round"/>
    <path d="M 122.83737182617188 65.21682739257812 C 124.90531158447266 65.21682739257812 126.97399139404297 65.21682739257812 129.0426788330078 65.21682739257812 C 130.43728637695312 65.37786102294922 131.58621215820312 65.60031127929688 132.7171630859375 66.50732421875 C 135.41275024414062 68.66663360595703 135.63070678710938 72.8077392578125 133.1950225830078 75.24043273925781 C 132.01612854003906 76.4178237915039 130.64698791503906 76.80130767822266 129.0426788330078 76.96308898925781 C 126.97399139404297 76.96308898925781 124.90531158447266 76.96308898925781 122.83737182617188 76.96308898925781 C 124.44168853759766 76.80130767822266 125.81156921386719 76.4178237915039 126.98971557617188 75.24043273925781 C 129.4254150390625 72.8077392578125 129.20745849609375 68.66812896728516 126.51261901855469 66.50807189941406 C 125.38090515136719 65.60105895996094 124.23271942138672 65.37786102294922 122.83737182617188 65.21682739257812 C 122.83737182617188 65.21682739257812 122.83737182617188 65.21682739257812 122.83737182617188 65.21682739257812" stroke-width="0.0" fill="rgb(232, 69, 73)" opacity="1.0" stroke="rgb(0, 0, 0)" stroke-opacity="1.0" stroke-linecap="round" stroke-linejoin="round"/>
    <path d="M 101.85918426513672 137.6971435546875 C 108.61798095703125 137.6971435546875 115.37678527832031 137.6971435546875 122.13557434082031 137.6971435546875 C 124.29039764404297 138.13156127929688 125.12400817871094 138.96067810058594 125.5599136352539 141.11549377441406 C 125.5599136352539 158.19224548339844 125.5599136352539 175.26898193359375 125.5599136352539 192.34500122070312 C 125.44831085205078 192.841552734375 125.44007110595703 193.37258911132812 125.22586822509766 193.83395385742188 C 124.21998596191406 196.0 122.10112762451172 195.90338134765625 120.24590301513672 195.19635009765625 C 117.49788665771484 193.37408447265625 114.74913024902344 191.5510711669922 112.00038146972656 189.72805786132812 C 109.25162506103516 191.5510711669922 106.50286102294922 193.37408447265625 103.75410461425781 195.19635009765625 C 101.89888000488281 195.90338134765625 99.78076171875 195.99850463867188 98.77413177490234 193.83322143554688 C 98.55992889404297 193.37184143066406 98.55168914794922 192.8408203125 98.4400863647461 192.34500122070312 C 98.4400863647461 175.26898193359375 98.4400863647461 158.19224548339844 98.4400863647461 141.11549377441406 C 98.875244140625 138.96292114257812 99.70587158203125 138.13229370117188 101.85918426513672 137.6971435546875 C 101.85918426513672 137.6971435546875 101.85918426513672 137.6971435546875 101.85918426513672 137.6971435546875" stroke-width="0.0" fill="rgb(243, 125, 126)" opacity="1.0" stroke="rgb(0, 0, 0)" stroke-opacity="1.0" stroke-linecap="round" stroke-linejoin="round"/>
    <path d="M 101.85918426513672 137.6971435546875 C 108.61798095703125 137.6971435546875 115.37678527832031 137.6971435546875 122.13557434082031 137.6971435546875 C 124.29039764404297 138.13156127929688 125.12400817871094 138.96067810058594 125.5599136352539 141.11549377441406 C 125.5599136352539 144.7615203857422 125.5599136352539 148.4068145751953 125.5599136352539 152.05210876464844 C 117.1458740234375 157.71363830566406 106.85413360595703 157.71363830566406 98.4400863647461 152.05210876464844 C 98.4400863647461 148.4068145751953 98.4400863647461 144.7615203857422 98.4400863647461 141.11549377441406 C 98.875244140625 138.96292114257812 99.70587158203125 138.13229370117188 101.85918426513672 137.6971435546875 C 101.85918426513672 137.6971435546875 101.85918426513672 137.6971435546875 101.85918426513672 137.6971435546875" stroke-width="0.0" fill="rgb(237, 98, 100)" opacity="1.0" stroke="rgb(0, 0, 0)" stroke-opacity="1.0" stroke-linecap="round" stroke-linejoin="round"/>
    <path d="M 130.58407592773438 133.10888671875 C 130.58407592773438 133.10888671875 130.58407592773438 133.10888671875 130.58407592773438 133.10888671875 C 130.44252014160156 136.6073760986328 129.66432189941406 139.89166259765625 127.80010986328125 142.89581298828125 C 126.54408264160156 144.9195556640625 124.8970718383789 146.69688415527344 122.97593688964844 148.10421752929688 C 113.45339965820312 155.0824737548828 99.471435546875 151.20574951171875 94.87944030761719 140.34104919433594 C 93.91474914550781 138.05740356445312 93.41893005371094 135.58726501464844 93.41893005371094 133.10888671875 C 93.41893005371094 130.6297607421875 93.91400146484375 128.1588897705078 94.87944030761719 125.87523651123047 C 99.47068786621094 115.00978088378906 113.45339965820312 111.13231658935547 122.97593688964844 118.11055755615234 C 124.8970718383789 119.51864624023438 126.54408264160156 121.29597473144531 127.80010986328125 123.31971740722656 C 129.66432189941406 126.3238754272461 130.44252014160156 129.60964965820312 130.58407592773438 133.10888671875 C 130.58407592773438 133.10888671875 130.58407592773438 133.10888671875 130.58407592773438 133.10888671875" stroke-width="0.0" fill="rgb(255, 194, 109)" opacity="1.0" stroke="rgb(0, 0, 0)" stroke-opacity="1.0" stroke-linecap="round" stroke-linejoin="round"/>
    <path d="M 112.00337219238281 114.52819061279297 C 112.00337219238281 114.52819061279297 112.00337219238281 114.52819061279297 112.00337219238281 114.52819061279297 C 115.009033203125 114.64952850341797 117.84691619873047 115.2067642211914 120.54025268554688 116.60211181640625 C 122.6576156616211 117.69862365722656 124.55777740478516 119.2063217163086 126.10967254638672 121.01585388183594 C 127.67204284667969 122.83662414550781 128.87864685058594 124.95848083496094 129.6358642578125 127.23463439941406 C 132.6580047607422 136.3205108642578 128.05252075195312 146.50289916992188 119.23552703857422 150.22982788085938 C 115.80294799804688 151.68060302734375 112.1644058227539 151.94125366210938 108.5168685913086 151.36228942871094 C 108.5168685913086 151.36228942871094 108.5168685913086 151.36228942871094 108.5168685913086 151.36228942871094 C 112.74037170410156 150.38861083984375 116.477783203125 148.38658142089844 119.29020690917969 145.02590942382812 C 126.00855255126953 136.99684143066406 124.58848571777344 124.61470031738281 116.2523422241211 118.29556274414062 C 113.92900085449219 116.5339584350586 111.33677673339844 115.50560760498047 108.5168685913086 114.8554916381836 C 108.5168685913086 114.8554916381836 108.5168685913086 114.8554916381836 108.5168685913086 114.8554916381836 C 109.68902587890625 114.66974639892578 110.81773376464844 114.56489562988281 112.00337219238281 114.52819061279297 C 112.00337219238281 114.52819061279297 112.00337219238281 114.52819061279297 112.00337219238281 114.52819061279297" stroke-width="0.0" fill="rgb(255, 167, 47)" opacity="1.0" stroke="rgb(0, 0, 0)" stroke-opacity="1.0" stroke-linecap="round" stroke-linejoin="round"/>
    <path d="M 111.60491943359375 124.57650756835938 C 110.23652648925781 125.26032257080078 108.8681411743164 125.94489288330078 107.499755859375 126.62871551513672 C 107.17020416259766 126.92231750488281 106.7552719116211 127.14176940917969 106.51110076904297 127.50951385498047 C 105.46177673339844 129.089111328125 106.57476043701172 131.31358337402344 108.46743774414062 131.4214324951172 C 108.9085922241211 131.4468994140625 109.33325958251953 131.2461700439453 109.76541900634766 131.15853881835938 C 109.91297149658203 131.0843963623047 110.06051635742188 131.01025390625 110.20732116699219 130.93609619140625 C 110.20732116699219 132.94711303710938 110.20732116699219 134.95811462402344 110.20732116699219 136.9683837890625 C 109.87627410888672 136.9683837890625 109.54447174072266 136.9683837890625 109.21342468261719 136.9683837890625 C 108.7872543334961 137.083740234375 108.31838989257812 137.094970703125 107.93566131591797 137.31442260742188 C 106.29015350341797 138.25888061523438 106.29015350341797 140.74325561523438 107.93566131591797 141.68771362304688 C 108.31838989257812 141.90716552734375 108.7872543334961 141.91839599609375 109.21342468261719 142.0337371826172 C 111.56446838378906 142.0337371826172 113.91551971435547 142.0337371826172 116.26657104492188 142.0337371826172 C 116.69274139404297 141.91839599609375 117.1615982055664 141.90716552734375 117.54432678222656 141.68771362304688 C 119.19133758544922 140.74249267578125 119.18684387207031 138.25738525390625 117.54058837890625 137.31365966796875 C 117.15860748291016 137.09420776367188 116.68974304199219 137.083740234375 116.2635726928711 136.9683837890625 C 115.93252563476562 136.9683837890625 115.60072326660156 136.9683837890625 115.2696762084961 136.9683837890625 C 115.2696762084961 133.59197998046875 115.2696762084961 130.21559143066406 115.2696762084961 126.83917236328125 C 114.72816467285156 124.7555160522461 113.71029663085938 124.12861633300781 111.60491943359375 124.57650756835938 C 111.60491943359375 124.57650756835938 111.60491943359375 124.57650756835938 111.60491943359375 124.57650756835938" stroke-width="0.0" fill="rgb(255, 167, 47)" opacity="1.0" stroke="rgb(0, 0, 0)" stroke-opacity="1.0" stroke-linecap="round" stroke-linejoin="round"/>
    <path d="M 107.8742446899414 91.33377075195312 C 110.90087127685547 91.33377075195312 113.92750549316406 91.33377075195312 116.95413208007812 91.33377075195312 C 117.37955474853516 91.44911193847656 117.84916687011719 91.4595947265625 118.23189544677734 91.6790542602539 C 119.87665557861328 92.6235122680664 119.87590789794922 95.10862731933594 118.23114776611328 96.0523452758789 C 117.8484115600586 96.27179718017578 117.37955474853516 96.28302764892578 116.95413208007812 96.39762878417969 C 113.92750549316406 96.39762878417969 110.90087127685547 96.39762878417969 107.8742446899414 96.39762878417969 C 107.44807434082031 96.28227996826172 106.97920989990234 96.27179718017578 106.59648132324219 96.0523452758789 C 104.95097351074219 95.10862731933594 104.95097351074219 92.62276458740234 106.59648132324219 91.6790542602539 C 106.97920989990234 91.4595947265625 107.44807434082031 91.44911193847656 107.8742446899414 91.33377075195312 C 107.8742446899414 91.33377075195312 107.8742446899414 91.33377075195312 107.8742446899414 91.33377075195312" stroke-width="0.0" fill="rgb(255, 194, 109)" opacity="1.0" stroke="rgb(0, 0, 0)" stroke-opacity="1.0" stroke-linecap="round" stroke-linejoin="round"/>
    <path d="M 101.6921615600586 100.60614776611328 C 108.83892822265625 100.60614776611328 115.98570251464844 100.60614776611328 123.13321685791016 100.60614776611328 C 123.55863952636719 100.72148895263672 124.02825164794922 100.73197174072266 124.41098022460938 100.95142364501953 C 126.05574035644531 101.89588928222656 126.05574035644531 104.3810043334961 124.41098022460938 105.32472229003906 C 124.02825164794922 105.5441665649414 123.55863952636719 105.55540466308594 123.13321685791016 105.6707534790039 C 115.98570251464844 105.6707534790039 108.83892822265625 105.6707534790039 101.6921615600586 105.6707534790039 C 101.2659912109375 105.55540466308594 100.79713439941406 105.5441665649414 100.41439819335938 105.32472229003906 C 98.76889038085938 104.3810043334961 98.76889038085938 101.89588928222656 100.41439819335938 100.95142364501953 C 100.79713439941406 100.73197174072266 101.2659912109375 100.72148895263672 101.6921615600586 100.60614776611328 C 101.6921615600586 100.60614776611328 101.6921615600586 100.60614776611328 101.6921615600586 100.60614776611328" stroke-width="0.0" fill="rgb(255, 194, 109)" opacity="1.0" stroke="rgb(0, 0, 0)" stroke-opacity="1.0" stroke-linecap="round" stroke-linejoin="round"/>
  </g>
</svg>
