<?xml version="1.0" ?>
<svg xmlns="http://www.w3.org/2000/svg" version="1.1" width="224" height="224">
  <defs/>
  <g>
    <path d="M 91.31578063964844 108.26429748535156 C 89.09228515625 107.87408447265625 87.7043685913086 106.94071960449219 86.60131072998047 106.07000732421875 C 85.0020751953125 104.59160614013672 85.28734588623047 104.43415069580078 85.24727630615234 80.84029388427734 C 85.07927703857422 67.55940246582031 85.0644302368164 55.653751373291016 85.42516326904297 53.99906921386719 C 86.04032135009766 50.33904266357422 89.05631256103516 46.67905044555664 91.79501342773438 46.17506790161133 C 92.90711212158203 46.19545364379883 102.65425109863281 46.00646209716797 112.87841796875 45.96510314941406 C 134.80882263183594 46.075260162353516 136.08824157714844 45.7834587097168 138.34271240234375 50.31727981567383 C 139.48455810546875 52.92839813232422 139.81039428710938 54.0861930847168 139.53143310546875 78.90857696533203 L 138.9579620361328 105.24010467529297 L 137.57835388183594 106.94976043701172 C 135.68850708007812 108.12024688720703 133.1712188720703 108.12278747558594 115.38536834716797 108.21543884277344 C 103.82398986816406 108.2002944946289 93.20761108398438 108.93109893798828 91.31578063964844 108.26429748535156" stroke-width="0.0" fill="rgb(251, 231, 240)" opacity="0.9071824"/>
    <path d="M 83.3636474609375 131.54470825195312 C 78.9455795288086 130.2427978515625 75.46408081054688 127.54730987548828 71.60755157470703 123.04222869873047 C 70.60752868652344 122.15428161621094 70.09461212158203 120.14227294921875 70.45414733886719 120.6559829711914 C 70.76821899414062 118.67471313476562 68.87469482421875 115.03326416015625 65.17178344726562 113.24897766113281 L 60.72612762451172 105.43002319335938 L 60.92794418334961 70.21002197265625 C 61.02477264404297 38.64664077758789 61.71171951293945 36.322975158691406 63.173397064208984 33.400794982910156 L 64.16703796386719 30.178611755371094 L 110.98385620117188 29.471595764160156 C 156.92628479003906 29.53813934326172 157.82826232910156 29.533706665039062 158.35067749023438 30.91991424560547 C 158.37783813476562 31.878578186035156 158.268798828125 49.07563400268555 157.65826416015625 69.53128814697266 L 157.27235412597656 106.69790649414062 L 154.43743896484375 115.5272216796875 C 150.4471893310547 126.13996887207031 149.61770629882812 127.06866455078125 145.75137329101562 129.38949584960938 L 142.98529052734375 131.9253692626953 L 113.57009887695312 130.52407836914062 C 98.33026123046875 131.9449920654297 84.64514923095703 131.7608642578125 83.3636474609375 131.54470825195312" stroke-width="0.0" fill="rgb(137, 204, 87)" opacity="0.95355177"/>
    <path d="M 141.80825805664062 194.57615661621094 C 142.1759796142578 193.5719757080078 139.49237060546875 189.97830200195312 137.08233642578125 186.31301879882812 C 127.19976806640625 174.22747802734375 127.16690063476562 176.21685791015625 131.1415252685547 150.88848876953125 L 132.43109130859375 131.41290283203125 L 132.4252166748047 132.03704833984375 C 137.66624450683594 131.27035522460938 141.04849243164062 131.0396728515625 142.9221954345703 130.9756622314453 C 146.00286865234375 128.93084716796875 147.60357666015625 129.78958129882812 151.31944274902344 127.25235748291016 C 150.62095642089844 120.03337860107422 152.84869384765625 118.60052490234375 155.1502685546875 115.67826080322266 C 159.19940185546875 114.77279663085938 164.94459533691406 115.51937866210938 165.71690368652344 116.64946746826172 C 166.82701110839844 117.95944213867188 167.29083251953125 125.60346221923828 165.41705322265625 148.044189453125 L 164.79238891601562 177.42572021484375 L 161.91378784179688 184.99647521972656 C 159.57952880859375 189.4962158203125 158.32794189453125 194.46377563476562 159.192626953125 194.35482788085938 C 157.03573608398438 195.5960693359375 156.10008239746094 196.0 150.32620239257812 195.44195556640625 C 144.33151245117188 195.73179626464844 142.5960235595703 195.33456420898438 141.80825805664062 194.57615661621094" stroke-width="0.0" fill="rgb(252, 254, 252)" opacity="0.8616017"/>
    <path d="M 167.85177612304688 144.26190185546875 L 167.07066345214844 109.1409912109375 L 173.76727294921875 109.14515686035156 L 173.8315887451172 179.07781982421875 L 168.488525390625 179.06761169433594 L 167.85177612304688 144.26190185546875" stroke-width="1.0" fill="rgb(120, 99, 97)" opacity="0.99393994"/>
    <path d="M 42.152076721191406 194.21908569335938 C 41.894432067871094 192.91500854492188 41.263389587402344 189.06130981445312 41.12580871582031 185.29183959960938 C 41.01319885253906 175.15643310546875 41.15617370605469 174.70327758789062 50.999908447265625 174.9175567626953 C 57.961849212646484 174.31930541992188 58.479347229003906 173.99671936035156 59.45555877685547 176.38055419921875 C 59.75692367553711 177.31329345703125 60.31083297729492 182.04080200195312 60.671695709228516 186.5373077392578 L 60.967323303222656 193.95196533203125 L 51.80024719238281 194.45468139648438 C 44.57946014404297 195.32083129882812 42.51988220214844 195.20263671875 42.152076721191406 194.21908569335938" stroke-width="1.0" fill="rgb(120, 203, 68)" opacity="0.9932624"/>
    <path d="M 101.19953918457031 103.678955078125 C 98.00936126708984 102.53663635253906 93.74859619140625 98.84771728515625 91.37006378173828 95.85466003417969 C 85.64167022705078 89.94600677490234 82.5089111328125 84.5847396850586 83.05078125 74.58851623535156 C 86.13154602050781 61.5634765625 89.58643341064453 54.34638595581055 99.95975494384766 49.55622100830078 C 104.37140655517578 48.44584655761719 106.58198547363281 48.575340270996094 114.74574279785156 48.32299041748047 C 121.8857421875 47.90576171875 123.64683532714844 48.65566635131836 126.39347076416016 51.0079460144043 C 130.91024780273438 53.08481216430664 137.09292602539062 59.630428314208984 140.65087890625 64.0205307006836 C 144.65463256835938 70.97347259521484 144.97433471679688 82.36996459960938 141.54681396484375 89.40219116210938 C 138.77696228027344 94.86061096191406 133.04476928710938 100.93739318847656 127.14266967773438 103.750732421875 C 122.09828186035156 104.57192993164062 119.80538177490234 105.1453857421875 113.99493408203125 103.73045349121094 C 107.385498046875 105.41529846191406 105.55243682861328 105.02476501464844 101.19953918457031 103.678955078125" stroke-width="0.0" fill="rgb(253, 215, 117)" opacity="0.9947203"/>
    <path d="M 96.28789520263672 143.22357177734375 L 95.884033203125 108.69637298583984 L 129.69781494140625 108.5693359375 L 129.471923828125 143.25132751464844 L 129.3482666015625 177.81961059570312 L 112.80220794677734 177.98748779296875 L 96.15082550048828 178.07003784179688 L 96.28789520263672 143.22357177734375" stroke-width="1.0" fill="rgb(106, 90, 89)" opacity="0.9865947"/>
    <path d="M 64.7943115234375 191.08609008789062 C 66.17976379394531 192.71417236328125 64.45510864257812 188.1611785888672 62.68302536010742 183.30181884765625 L 60.031558990478516 175.41525268554688 L 60.283729553222656 148.07467651367188 C 59.568634033203125 119.83259582519531 59.652557373046875 119.61914825439453 60.559844970703125 117.46095275878906 C 63.279937744140625 118.02169799804688 64.18232727050781 117.994873046875 66.203857421875 115.68733215332031 C 69.48527526855469 115.89666748046875 69.84092712402344 117.24961853027344 71.35494232177734 121.81411743164062 C 72.9254150390625 126.2982177734375 76.07784271240234 131.40924072265625 80.16889190673828 132.23291015625 C 86.0036392211914 131.43310546875 86.09970092773438 131.06332397460938 87.81834411621094 129.86767578125 C 87.6469497680664 128.58863830566406 88.20033264160156 127.82463073730469 88.38818359375 127.9520034790039 C 88.86905670166016 128.02655029296875 95.24533081054688 130.9496612548828 96.77490234375 131.77841186523438 C 96.68004608154297 133.0033416748047 97.00286865234375 142.1250762939453 96.65901947021484 153.35198974609375 C 96.8824691772461 168.61669921875 96.53659057617188 173.33770751953125 97.3967056274414 175.84056091308594 C 94.95433044433594 175.06692504882812 91.33546447753906 180.07305908203125 87.28727722167969 184.21585083007812 C 83.60765075683594 188.18499755859375 79.44810485839844 191.61439514160156 81.88032531738281 193.888427734375 C 79.96530151367188 193.5694580078125 77.28773498535156 191.55662536621094 73.54208374023438 191.0870361328125 C 68.7870101928711 191.48739624023438 65.82079315185547 190.65927124023438 64.7943115234375 191.08609008789062" stroke-width="0.0" fill="rgb(252, 255, 252)" opacity="0.868751"/>
    <path d="M 144.45779418945312 125.12132263183594 C 145.5693359375 124.8568115234375 146.51853942871094 122.7975845336914 146.35064697265625 120.616943359375 C 145.79412841796875 119.71076202392578 146.72332763671875 116.59774780273438 147.66729736328125 115.3688735961914 C 147.7351531982422 113.50374603271484 148.34622192382812 110.77483367919922 148.07003784179688 108.47109985351562 C 148.844482421875 107.97492218017578 149.35275268554688 105.09442138671875 149.3643035888672 70.04022216796875 C 149.3405303955078 41.2573356628418 149.79507446289062 30.998924255371094 153.2683868408203 30.111526489257812 C 156.71649169921875 29.145423889160156 157.29916381835938 28.65300750732422 158.391357421875 28.00000762939453 C 160.0704803466797 28.188705444335938 162.0959930419922 28.29547882080078 163.11851501464844 29.044952392578125 C 163.83493041992188 29.706130981445312 165.58847045898438 52.809810638427734 167.07601928710938 81.97361755371094 L 165.96437072753906 112.8857421875 L 165.57594299316406 115.5934066772461 C 162.5120849609375 116.23906707763672 161.4991455078125 117.7054443359375 158.38644409179688 117.72737121582031 L 154.40155029296875 116.36965942382812 L 153.35635375976562 121.33599853515625 C 152.31393432617188 123.20886993408203 150.72483825683594 125.90438842773438 149.57647705078125 127.02203369140625 L 144.32693481445312 128.87445068359375 L 144.45779418945312 125.12132263183594" stroke-width="0.0" fill="rgb(114, 186, 65)" opacity="1.0"/>
    <path d="M 157.9602508544922 194.99610900878906 C 156.92626953125 194.16610717773438 156.67117309570312 177.38531494140625 157.80795288085938 176.23760986328125 C 158.3713836669922 175.43417358398438 161.63775634765625 174.75242614746094 166.2939910888672 175.2132568359375 C 176.20303344726562 174.40704345703125 176.380859375 175.11962890625 176.69577026367188 186.62477111816406 L 177.06468200683594 195.07977294921875 L 167.64027404785156 195.1463623046875 C 162.48883056640625 195.45816040039062 158.4919891357422 195.3538055419922 157.9602508544922 194.99610900878906" stroke-width="1.0" fill="rgb(121, 203, 69)" opacity="0.9894222"/>
    <path d="M 164.32098388671875 144.4759979248047 C 164.35646057128906 112.35517883300781 164.75282287597656 111.79685974121094 167.71788024902344 111.78124237060547 C 168.78524780273438 111.69094848632812 169.08998107910156 113.35057067871094 168.5252227783203 143.81155395507812 L 168.98263549804688 175.32192993164062 L 164.33334350585938 175.10031127929688 L 164.32098388671875 144.4759979248047" stroke-width="1.0" fill="rgb(149, 127, 129)" opacity="0.9652293"/>
    <path d="M 106.20318603515625 88.11296081542969 C 105.37037658691406 85.53397369384766 106.26726531982422 83.87964630126953 108.55171203613281 83.57182312011719 C 110.44184875488281 83.53196716308594 110.61845397949219 83.37799072265625 110.48698425292969 77.85492706298828 C 110.63607788085938 74.93915557861328 110.50301361083984 71.99337005615234 110.30754089355469 72.00667572021484 C 109.52069091796875 72.17131805419922 108.89745330810547 72.85016632080078 108.44981384277344 73.96713256835938 C 106.98355102539062 75.65583038330078 104.58299255371094 75.97307586669922 103.35804748535156 74.1632308959961 C 102.91764831542969 73.25835418701172 111.16935729980469 64.1051025390625 112.38600158691406 64.01820373535156 C 113.53181457519531 63.95677947998047 122.65546417236328 72.7003173828125 122.47184753417969 73.96656799316406 C 122.5914077758789 75.79486083984375 118.71640014648438 75.65169525146484 116.75227355957031 73.75 L 115.08975982666016 71.76628112792969 L 115.15055084228516 77.98043060302734 C 115.11620330810547 83.5689697265625 115.11056518554688 83.57038116455078 117.21129608154297 83.2965087890625 C 118.98576354980469 83.90260314941406 119.28755950927734 84.21888732910156 119.63249206542969 86.12124633789062 L 119.27960968017578 88.52632904052734 L 113.04942321777344 88.90926361083984 C 108.20683288574219 89.13446044921875 106.88335418701172 89.04782104492188 106.20318603515625 88.11296081542969" stroke-width="1.0" fill="rgb(241, 79, 87)" opacity="0.9969886"/>
    <path d="M 81.60238647460938 107.84718322753906 C 80.76289367675781 104.09336853027344 80.35504913330078 99.03512573242188 79.59635925292969 89.85034942626953 L 80.04999542236328 70.58642578125 L 90.14668273925781 82.81785583496094 C 95.36834716796875 104.47675323486328 126.70635986328125 105.48861694335938 133.88824462890625 84.65643310546875 L 142.70132446289062 70.55160522460938 L 144.64102172851562 90.62213897705078 C 144.59646606445312 98.60830688476562 144.2863006591797 103.2776107788086 143.0728302001953 107.44529724121094 C 139.88677978515625 107.77669525146484 83.9588623046875 107.98807525634766 81.60238647460938 107.84718322753906" stroke-width="1.0" fill="rgb(233, 224, 229)" opacity="0.91255146"/>
    <path d="M 79.13444519042969 61.93278884887695 C 79.46049499511719 48.54948425292969 80.27694702148438 45.81077194213867 82.35414123535156 42.15567398071289 C 83.91615295410156 40.286285400390625 87.54896545410156 40.100196838378906 112.18910217285156 40.021060943603516 C 141.07534790039062 40.1549072265625 141.3357696533203 40.246437072753906 142.78390502929688 42.66389846801758 C 144.33982849121094 47.45561599731445 144.7235870361328 51.21149826049805 144.2432861328125 61.74048614501953 L 141.8862762451172 82.9129638671875 L 134.08438110351562 68.96733093261719 C 131.5280303955078 58.42509841918945 123.99726104736328 53.89793395996094 113.85256958007812 52.7158088684082 C 101.69459533691406 52.91468811035156 91.44580078125 58.74264144897461 89.09954071044922 73.96319580078125 L 79.8041000366211 82.58426666259766 L 79.13444519042969 61.93278884887695" stroke-width="1.0" fill="rgb(236, 227, 231)" opacity="0.92029697"/>
    <path d="M 86.08360290527344 127.11833953857422 L 86.03961944580078 122.01828002929688 L 83.23698425292969 120.09522247314453 C 81.39037322998047 118.567626953125 79.40950012207031 116.24552917480469 78.7291030883789 113.92295837402344 L 74.76337432861328 110.42555236816406 L 73.98678588867188 79.96653747558594 C 75.12158203125 56.25641632080078 76.56643676757812 49.188175201416016 76.98088073730469 46.99527359008789 C 78.93231201171875 43.434112548828125 83.00122833251953 38.82998275756836 86.61681365966797 37.114688873291016 C 89.30354309082031 35.089752197265625 90.21006774902344 34.75597381591797 111.50374603271484 34.879234313964844 C 132.99603271484375 34.83014678955078 133.82894897460938 34.904144287109375 136.36849975585938 36.67822265625 C 138.10665893554688 37.22057342529297 140.3863067626953 39.034751892089844 142.01553344726562 40.28152847290039 C 146.38070678710938 45.34779357910156 146.7762451171875 45.56595993041992 147.24526977539062 77.8587875366211 C 147.55433654785156 95.92710876464844 146.53639221191406 109.0716781616211 146.15399169921875 110.65148162841797 C 144.30389404296875 116.71940612792969 140.43394470214844 120.25486755371094 133.58465576171875 121.94124603271484 L 130.71652221679688 122.26551055908203 L 131.08944702148438 127.88469696044922 C 130.17431640625 130.71478271484375 130.06822204589844 129.13494873046875 130.10215759277344 120.67654418945312 L 129.72157287597656 109.18809509277344 L 133.13595581054688 108.7878646850586 C 142.25730895996094 108.2403793334961 141.50381469726562 108.63138580322266 141.04859924316406 77.49188995361328 C 141.41751098632812 59.827598571777344 141.93275451660156 50.886077880859375 140.78807067871094 49.09648132324219 C 139.70632934570312 45.77523422241211 136.84051513671875 43.06288528442383 133.76060485839844 42.39425277709961 C 132.24398803710938 41.90452575683594 122.38790893554688 42.30601501464844 111.28853607177734 42.19502639770508 C 91.71652221679688 41.83721160888672 90.62104797363281 41.709964752197266 88.79374694824219 43.08708190917969 C 82.99899291992188 46.838008880615234 82.72039794921875 46.19998550415039 82.85700225830078 74.8584213256836 C 82.4263916015625 88.4637451171875 82.59298706054688 101.42375183105469 82.4297103881836 102.37324523925781 C 82.92575073242188 103.50858306884766 84.19160461425781 105.60415649414062 84.90097045898438 106.4583969116211 C 85.94781494140625 107.96428680419922 86.96411895751953 108.26184844970703 91.08384704589844 109.0035400390625 L 96.56187438964844 108.63933563232422 L 96.61595153808594 131.2499237060547 L 86.40176391601562 131.49765014648438 L 86.08360290527344 127.11833953857422" stroke-width="1.0" fill="rgb(104, 169, 56)" opacity="0.96650004"/>
    <path d="M 63.204952239990234 117.25790405273438 C 62.05024337768555 116.3942642211914 59.68306350708008 116.0731201171875 57.61404800415039 115.97416687011719 C 55.0665397644043 115.0675048828125 52.619293212890625 114.62808990478516 51.549896240234375 115.26628875732422 C 50.63116455078125 114.10433197021484 51.148529052734375 105.35904693603516 51.67048645019531 85.16702270507812 L 50.34900665283203 55.221221923828125 L 53.178741455078125 43.70563888549805 L 56.64976119995117 31.641380310058594 L 65.58226776123047 32.015342712402344 L 65.85514831542969 33.866233825683594 C 63.18854904174805 39.58375549316406 63.19623947143555 46.4478759765625 63.38932418823242 72.08789825439453 C 63.32115936279297 90.14161682128906 63.665164947509766 101.79496002197266 63.61845779418945 104.78799438476562 C 64.29460144042969 107.17958068847656 65.72635650634766 109.36408996582031 67.13627624511719 110.97941589355469 C 71.13449096679688 113.58580017089844 70.81525421142578 116.02166748046875 68.08363342285156 117.17074584960938 C 65.88534545898438 117.7528076171875 66.04446411132812 117.47161102294922 63.204952239990234 117.25790405273438" stroke-width="0.0" fill="rgb(104, 169, 59)" opacity="1.0"/>
    <path d="M 80.2173843383789 192.5770263671875 C 79.26913452148438 191.697021484375 78.70799255371094 188.27822875976562 79.24530029296875 183.9704132080078 C 79.72064208984375 172.671142578125 76.39086151123047 175.05592346191406 108.53120422363281 175.25970458984375 C 129.7105255126953 174.763916015625 137.79986572265625 175.13771057128906 138.07479858398438 175.9877166748047 C 138.98390197753906 177.03427124023438 139.34210205078125 179.4588623046875 138.63104248046875 185.7322998046875 L 138.8966522216797 194.12094116210938 L 109.41626739501953 195.15255737304688 C 82.86494445800781 194.75341796875 79.54811096191406 194.35064697265625 80.2173843383789 192.5770263671875" stroke-width="1.0" fill="rgb(120, 203, 67)" opacity="0.9810925"/>
    <path d="M 165.40594482421875 87.8504638671875 C 165.119384765625 81.1611099243164 165.41091918945312 81.14089965820312 168.8646240234375 81.29298400878906 C 172.0925750732422 81.63678741455078 172.49317932128906 82.1806640625 173.2127685546875 86.91667175292969 C 173.76455688476562 91.71929168701172 173.4158935546875 92.48845672607422 170.828369140625 93.48646545410156 C 165.89608764648438 94.86573028564453 165.85693359375 94.78157806396484 165.40594482421875 87.8504638671875" stroke-width="1.0" fill="rgb(146, 119, 131)" opacity="0.9907198"/>
    <path d="M 169.26962280273438 113.69173431396484 C 161.04339599609375 111.23220825195312 158.17201232910156 99.19489288330078 164.19668579101562 92.98118591308594 C 167.24697875976562 89.49982452392578 173.55709838867188 88.8289794921875 177.49508666992188 91.16189575195312 C 182.801025390625 94.51118469238281 184.67335510253906 101.06370544433594 181.99221801757812 107.5892333984375 C 180.10870361328125 113.17829895019531 174.96234130859375 115.5733871459961 169.26962280273438 113.69173431396484" stroke-width="1.0" fill="rgb(121, 203, 69)" opacity="1.0"/>
    <path d="M 167.43951416015625 83.57321166992188 C 164.55807495117188 81.71330261230469 161.7512969970703 76.31209564208984 161.7279052734375 72.66300964355469 C 161.28436279296875 68.0565185546875 163.52830505371094 63.6691780090332 167.67156982421875 61.674015045166016 C 178.17942810058594 56.1863899230957 187.8726043701172 66.02145385742188 182.91925048828125 77.93278503417969 C 181.74664306640625 79.7562484741211 180.336669921875 81.8521957397461 179.35787963867188 83.05097961425781 C 175.9914093017578 84.677734375 170.50318908691406 84.84674072265625 167.43951416015625 83.57321166992188" stroke-width="1.0" fill="rgb(121, 203, 69)" opacity="1.0"/>
    <path d="M 166.8449249267578 55.00505447387695 C 165.474365234375 54.386512756347656 163.8506317138672 52.6300163269043 162.89071655273438 51.00946807861328 C 161.22203063964844 48.53058624267578 160.9393768310547 47.137943267822266 160.82359313964844 42.906593322753906 C 161.05328369140625 38.43428421020508 161.4219207763672 37.20934295654297 163.25567626953125 33.89167785644531 L 166.02708435058594 30.266891479492188 L 172.51531982421875 30.3436279296875 C 178.36776733398438 30.93199920654297 179.29061889648438 31.417640686035156 180.08404541015625 33.987037658691406 C 183.31842041015625 36.413307189941406 183.88233947753906 38.21194839477539 184.1708984375 42.93436050415039 C 183.87646484375 47.468597412109375 182.31155395507812 52.04166793823242 179.4091033935547 54.33616256713867 C 175.47720336914062 56.0068473815918 169.12490844726562 56.307926177978516 166.8449249267578 55.00505447387695" stroke-width="1.0" fill="rgb(121, 204, 68)" opacity="1.0"/>
    <path d="M 173.69894409179688 187.12229919433594 C 173.3555450439453 181.0412139892578 172.9356231689453 178.1119842529297 172.05584716796875 176.94140625 C 171.3052978515625 176.12359619140625 171.00930786132812 174.99368286132812 170.86483764648438 175.21853637695312 C 170.94854736328125 174.396240234375 181.5437469482422 174.8311309814453 182.3477783203125 175.95277404785156 C 182.91012573242188 176.9912567138672 182.934814453125 179.99412536621094 183.02352905273438 185.85873413085938 L 182.58657836914062 195.58921813964844 L 172.80682373046875 195.18841552734375 L 173.69894409179688 187.12229919433594" stroke-width="1.0" fill="rgb(104, 171, 58)" opacity="1.0"/>
    <path d="M 51.467018127441406 60.99154281616211 C 50.08373260498047 60.59756851196289 49.75682830810547 59.86905288696289 50.16740417480469 57.709659576416016 C 49.67414093017578 55.58366394042969 49.835044860839844 55.66349411010742 52.714866638183594 55.41034698486328 C 55.61355972290039 55.307029724121094 55.70079040527344 55.5010871887207 55.789527893066406 58.33498001098633 C 55.879600524902344 61.46635055541992 55.20387649536133 61.586666107177734 51.467018127441406 60.99154281616211" stroke-width="1.0" fill="rgb(147, 125, 136)" opacity="0.962597"/>
    <path d="M 47.138206481933594 113.53699493408203 C 43.506446838378906 112.28191375732422 41.512290954589844 110.67523956298828 39.83824157714844 107.15508270263672 C 38.269622802734375 103.39666748046875 38.043701171875 100.87715148925781 39.635162353515625 96.83738708496094 C 41.230194091796875 93.1470718383789 44.306480407714844 90.68223571777344 48.49873352050781 89.98345947265625 C 57.770240783691406 88.36616516113281 63.042701721191406 102.95540618896484 56.56289291381836 110.30018615722656 C 55.289424896240234 111.66875457763672 50.951141357421875 114.69300842285156 50.22247314453125 114.62559509277344 C 49.92833709716797 114.30653381347656 48.579498291015625 113.88185119628906 47.138206481933594 113.53699493408203" stroke-width="1.0" fill="rgb(119, 202, 68)" opacity="0.9833288"/>
    <path d="M 46.04107666015625 83.44416809082031 C 38.501136779785156 80.17130279541016 36.12738800048828 71.26677703857422 40.997779846191406 64.91384887695312 C 46.1690673828125 58.65711975097656 54.102134704589844 58.85911178588867 57.41801071166992 65.04907989501953 C 59.42795944213867 68.94073486328125 59.27097702026367 75.5103530883789 57.056785583496094 78.47987365722656 C 55.77306365966797 81.19680786132812 51.74247741699219 84.16691589355469 50.37190246582031 84.38088989257812 C 49.72321319580078 84.31807708740234 47.99901580810547 83.86019134521484 46.04107666015625 83.44416809082031" stroke-width="1.0" fill="rgb(119, 202, 67)" opacity="0.9801738"/>
    <path d="M 45.22107696533203 54.37516784667969 C 38.0904541015625 50.62417221069336 36.28462219238281 41.021297454833984 41.75933837890625 35.354454040527344 C 43.92735290527344 32.463287353515625 43.68083953857422 32.01222229003906 49.91260528564453 30.577476501464844 L 56.40168762207031 30.770896911621094 L 57.88020324707031 34.52996826171875 C 60.4222412109375 39.08234786987305 60.11594772338867 48.40281295776367 57.40817642211914 50.953880310058594 C 54.080013275146484 55.38838195800781 50.48973846435547 56.95174026489258 45.22107696533203 54.37516784667969" stroke-width="1.0" fill="rgb(119, 201, 67)" opacity="0.97659254"/>
    <path d="M 134.62933349609375 186.15158081054688 C 134.37887573242188 180.22799682617188 134.0200958251953 176.41421508789062 133.41317749023438 175.63320922851562 C 132.28887939453125 175.3185272216797 133.19984436035156 175.05816650390625 137.43125915527344 174.8086700439453 C 144.44680786132812 174.541259765625 144.59498596191406 175.29734802246094 144.4187774658203 186.4522705078125 L 144.18765258789062 194.93838500976562 L 139.4241943359375 195.20654296875 L 134.76414489746094 195.63418579101562 L 134.62933349609375 186.15158081054688" stroke-width="1.0" fill="rgb(105, 172, 60)" opacity="1.0"/>
    <path d="M 168.16627502441406 113.92147827148438 C 167.89736938476562 113.49114990234375 169.15272521972656 113.26115417480469 170.411376953125 113.43527221679688 C 174.37823486328125 113.20160675048828 177.24130249023438 111.09398651123047 179.43161010742188 107.6666488647461 C 182.49154663085938 99.7156753540039 179.14776611328125 91.59803009033203 171.49221801757812 89.92138671875 L 168.95388793945312 89.46278381347656 L 171.24490356445312 89.70509338378906 C 180.65135192871094 89.23591613769531 187.08795166015625 96.19380950927734 184.99522399902344 104.98307037353516 C 184.09068298339844 108.72731018066406 181.88723754882812 111.27725219726562 178.70254516601562 112.93780517578125 C 176.5441436767578 114.27002716064453 168.77720642089844 114.91134643554688 168.16627502441406 113.92147827148438" stroke-width="1.0" fill="rgb(107, 174, 62)" opacity="0.9967389"/>
    <path d="M 172.68582153320312 83.9692153930664 C 172.49111938476562 83.9478759765625 173.35791015625 83.2259521484375 175.00021362304688 82.555419921875 C 177.66122436523438 80.77118682861328 180.8212890625 75.62195587158203 180.15768432617188 72.228759765625 C 180.83255004882812 66.27153015136719 177.8722381591797 62.491886138916016 172.100341796875 60.39565658569336 L 169.19337463378906 59.42338180541992 L 172.73489379882812 60.773216247558594 C 177.62396240234375 60.91160202026367 181.1009521484375 62.43109893798828 183.0794219970703 65.8617935180664 C 184.75399780273438 68.25274658203125 185.3040771484375 69.06810760498047 185.57772827148438 73.75627136230469 C 184.63165283203125 78.5085220336914 182.47561645507812 80.82820892333984 178.9971160888672 82.82219696044922 C 177.0913543701172 84.05372619628906 173.16934204101562 85.05443572998047 172.68582153320312 83.9692153930664" stroke-width="1.0" fill="rgb(106, 172, 61)" opacity="0.9742955"/>
    <path d="M 165.2252197265625 58.17856216430664 C 165.04483032226562 56.165775299072266 165.3038787841797 54.195396423339844 165.3121337890625 54.1016960144043 C 165.705078125 54.072452545166016 166.7823486328125 54.33644104003906 167.9026336669922 54.859962463378906 C 169.52969360351562 55.433326721191406 170.0067596435547 55.898597717285156 170.12391662597656 58.35344314575195 C 170.1961669921875 60.52818298339844 169.86373901367188 61.22119140625 168.54664611816406 61.50740051269531 C 165.68588256835938 62.482391357421875 165.5718231201172 62.40428161621094 165.2252197265625 58.17856216430664" stroke-width="1.0" fill="rgb(149, 130, 133)" opacity="1.0"/>
    <path d="M 171.20126342773438 55.14299392700195 C 177.1873779296875 53.66598892211914 179.90945434570312 49.95183181762695 180.52243041992188 42.60064697265625 C 180.19058227539062 38.763275146484375 179.45828247070312 36.766357421875 177.43150329589844 33.92017364501953 L 175.78915405273438 31.765541076660156 L 177.65460205078125 31.51703643798828 C 178.90008544921875 32.01115417480469 180.50555419921875 33.271217346191406 182.06378173828125 35.27678680419922 C 184.18731689453125 37.18974685668945 184.62277221679688 37.97832489013672 185.21664428710938 42.04457473754883 C 185.64083862304688 51.07748031616211 180.615966796875 55.22604751586914 171.54432678222656 55.4578857421875 L 167.03309631347656 55.701358795166016 L 171.20126342773438 55.14299392700195" stroke-width="1.0" fill="rgb(106, 167, 62)" opacity="0.95560044"/>
    <path d="M 55.2923698425293 58.04631805419922 C 55.52290344238281 56.0676383972168 56.220523834228516 55.00656509399414 57.23073196411133 54.873313903808594 C 58.21434020996094 54.500205993652344 58.369667053222656 55.267127990722656 58.35464859008789 58.00226974487305 C 58.36484146118164 61.00123596191406 58.084957122802734 61.18290328979492 56.468162536621094 61.26995086669922 C 55.160858154296875 61.255001068115234 54.94440460205078 60.67596435546875 55.2923698425293 58.04631805419922" stroke-width="1.0" fill="rgb(129, 109, 115)" opacity="0.9935074"/>
    <path d="M 50.158531188964844 144.29464721679688 L 50.49542999267578 113.87903594970703 L 55.72745132446289 113.83638763427734 L 55.337135314941406 175.0546417236328 L 50.52473449707031 175.1597900390625 L 50.158531188964844 144.29464721679688" stroke-width="1.0" fill="rgb(148, 127, 127)" opacity="0.980804"/>
    <path d="M 50.02888488769531 87.35415649414062 C 50.272216796875 84.09268188476562 50.05890655517578 83.86149597167969 52.917449951171875 83.99349975585938 C 55.60896682739258 83.95185089111328 55.660884857177734 84.08728790283203 55.66832733154297 87.22813415527344 C 55.660579681396484 90.33406829833984 55.58204650878906 90.4326400756836 52.862701416015625 90.34258270263672 C 50.19312286376953 90.44646453857422 49.945556640625 90.21627044677734 50.02888488769531 87.35415649414062" stroke-width="1.0" fill="rgb(148, 127, 133)" opacity="0.9767465"/>
    <path d="M 169.900634765625 87.4243392944336 C 169.39669799804688 84.41741943359375 169.6193084716797 83.82258605957031 171.4062042236328 83.6956558227539 C 173.55291748046875 83.27883911132812 174.02764892578125 83.60736846923828 174.003662109375 86.6452865600586 C 174.6393585205078 89.80242156982422 174.4287109375 90.07537841796875 172.41497802734375 90.47831726074219 C 170.65109252929688 90.69104766845703 170.36672973632812 90.40259552001953 169.900634765625 87.4243392944336" stroke-width="1.0" fill="rgb(126, 118, 99)" opacity="0.9388917"/>
    <path d="M 169.29037475585938 58.42371368408203 C 169.17112731933594 56.15153884887695 169.3970489501953 55.5892448425293 171.38450622558594 55.3488883972168 C 173.63198852539062 55.049137115478516 173.59622192382812 55.36564636230469 174.04669189453125 57.990928649902344 C 173.98020935058594 60.39513397216797 173.9440460205078 60.755619049072266 172.2118377685547 61.11245346069336 C 170.07028198242188 61.17238235473633 169.54318237304688 60.81136703491211 169.29037475585938 58.42371368408203" stroke-width="1.0" fill="rgb(123, 113, 103)" opacity="0.9775751"/>
    <path d="M 55.30792236328125 144.97061157226562 C 55.43061065673828 111.89974975585938 55.6307258605957 111.10501098632812 58.59034729003906 113.32017517089844 C 60.38066864013672 114.6650390625 60.2197265625 118.32963562011719 60.14206314086914 146.05767822265625 L 60.20802307128906 177.10943603515625 L 55.29803466796875 176.774658203125 L 55.30792236328125 144.97061157226562" stroke-width="1.0" fill="rgb(116, 98, 95)" opacity="0.9972793"/>
    <path d="M 55.005889892578125 87.0732192993164 C 55.09667205810547 84.10710906982422 55.76301956176758 83.23303985595703 56.826900482177734 83.10057830810547 C 58.03375244140625 82.76954650878906 58.27967834472656 83.43289947509766 58.3104362487793 86.85903930664062 C 58.21270751953125 90.15349578857422 58.093162536621094 90.54219055175781 56.53567123413086 90.46319580078125 C 54.92841720581055 90.54810333251953 54.766475677490234 90.06160736083984 55.005889892578125 87.0732192993164" stroke-width="1.0" fill="rgb(128, 107, 117)" opacity="0.9984149"/>
    <path d="M 57.063636779785156 186.76095581054688 C 57.2126579284668 181.30152893066406 56.85950469970703 178.35748291015625 55.8720703125 176.74407958984375 L 54.694332122802734 174.0543975830078 L 60.05043029785156 174.826171875 C 63.44174575805664 174.75601196289062 65.6234130859375 175.33595275878906 65.98957824707031 176.4444580078125 C 66.79996490478516 177.7774658203125 66.87129211425781 191.35940551757812 65.99223327636719 193.56674194335938 C 66.05349731445312 194.73281860351562 64.79235076904297 195.0780487060547 61.583736419677734 194.85675048828125 L 56.973140716552734 194.8475341796875 L 57.063636779785156 186.76095581054688" stroke-width="1.0" fill="rgb(106, 170, 61)" opacity="1.0"/>
  </g>
</svg>
