<?xml version="1.0" ?>
<svg xmlns="http://www.w3.org/2000/svg" version="1.1" width="224" height="224">
  <defs/>
  <g>
    <path d="M 67.81251525878906 113.78634643554688 L 59.644168853759766 103.6157455444336 L 60.33987045288086 98.09982299804688 C 61.195220947265625 92.49604797363281 64.16807556152344 89.43474578857422 67.27174377441406 89.60383605957031 C 68.91769409179688 89.55319213867188 80.6455078125 96.99427795410156 82.02024841308594 99.0310287475586 C 82.2913818359375 99.31219482421875 82.28945922851562 105.42948150634766 82.27643585205078 111.98380279541016 L 81.5503921508789 123.67935180664062 L 78.71128845214844 123.7087631225586 C 76.421630859375 124.21337127685547 74.87267303466797 122.76046752929688 67.81251525878906 113.78634643554688" stroke-width="0.0" fill="rgb(138, 108, 93)" opacity="0.99512374"/>
    <path d="M 86.05799865722656 124.95053100585938 C 85.46629333496094 123.9879150390625 85.25285339355469 98.04508209228516 85.94114685058594 96.26420593261719 C 87.60796356201172 93.90577697753906 102.55567169189453 84.95698547363281 104.86934661865234 84.90579986572266 C 108.64157104492188 84.81436920166016 110.38849639892578 87.644775390625 110.86394500732422 95.45123291015625 L 111.61112976074219 101.98896789550781 L 101.36810302734375 114.08131408691406 C 91.80613708496094 124.80473327636719 88.32122039794922 127.18072509765625 86.05799865722656 124.95053100585938" stroke-width="0.0" fill="rgb(133, 102, 90)" opacity="0.9897545"/>
    <path d="M 71.13986206054688 95.86905670166016 C 67.7789306640625 91.21733093261719 67.97027587890625 80.96471405029297 71.19337463378906 76.75408935546875 C 72.76116180419922 74.55780029296875 73.50282287597656 72.033203125 73.49732971191406 71.68350219726562 C 72.83409881591797 70.96356201171875 73.35630798339844 70.18495178222656 73.9275131225586 69.725830078125 C 74.99307250976562 69.05488586425781 75.04186248779297 69.38349914550781 74.8211441040039 70.02822875976562 C 74.0060806274414 71.53254699707031 74.11140441894531 71.55101013183594 74.87545776367188 70.99085235595703 C 75.92475128173828 70.50191497802734 77.68366241455078 67.65602111816406 79.04522705078125 64.66021728515625 C 80.81434631347656 61.8189697265625 82.75160217285156 59.373470306396484 83.12805938720703 59.379302978515625 C 83.7314453125 59.4310417175293 85.57756805419922 61.518829345703125 86.88603973388672 64.09942626953125 C 88.49530792236328 66.97355651855469 89.83621215820312 68.50274658203125 90.7192611694336 67.95149230957031 C 91.26815795898438 67.54914855957031 91.52696228027344 67.66415405273438 91.26106262207031 68.32933044433594 C 90.74061584472656 69.07294464111328 92.32953643798828 71.7604751586914 94.26846313476562 74.35205078125 C 98.8670425415039 80.08915710449219 100.0829849243164 87.1182632446289 98.30281066894531 92.81399536132812 C 96.77803039550781 97.95037841796875 95.95214080810547 98.1971664428711 83.12725067138672 98.544189453125 C 73.9434814453125 98.79171752929688 73.06170654296875 98.68589782714844 71.13986206054688 95.86905670166016" stroke-width="1.0" fill="rgb(135, 86, 60)" opacity="0.9933526"/>
    <path d="M 117.5784912109375 124.64921569824219 L 108.84536743164062 123.7074203491211 L 107.84391784667969 117.46501922607422 C 107.50445556640625 114.08296203613281 107.61600494384766 108.22991943359375 108.82723999023438 98.76931762695312 C 110.51094818115234 80.50604248046875 114.11782836914062 65.21455383300781 115.06974029541016 62.89991760253906 C 115.39439392089844 61.64436721801758 134.5066375732422 61.26825714111328 139.69802856445312 63.05827713012695 C 142.35675048828125 63.9560661315918 151.05880737304688 72.94554138183594 160.9419403076172 82.73954010009766 L 179.05198669433594 100.4369125366211 L 179.70852661132812 112.45466613769531 C 179.63034057617188 118.00306701660156 178.71624755859375 123.0538558959961 178.35159301757812 124.22447204589844 C 177.55148315429688 125.10353088378906 129.43788146972656 125.16869354248047 117.5784912109375 124.64921569824219" stroke-width="0.0" fill="rgb(251, 251, 249)" opacity="0.9968785"/>
    <path d="M 28.752967834472656 148.509033203125 C 28.0 147.47775268554688 28.58037567138672 142.90614318847656 28.657798767089844 137.0628662109375 C 28.09040069580078 128.28692626953125 28.254180908203125 126.7529296875 30.437782287597656 123.27810668945312 L 34.270233154296875 120.90726470947266 L 180.5978546142578 121.42379760742188 L 188.74017333984375 130.26979064941406 C 196.0 137.4365234375 194.82847595214844 137.6240692138672 194.3245849609375 141.8905487060547 L 194.0750732421875 149.71444702148438 L 111.79861450195312 150.12374877929688 C 37.577880859375 149.7960662841797 29.930381774902344 149.845703125 28.752967834472656 148.509033203125" stroke-width="0.0" fill="rgb(248, 172, 40)" opacity="0.988983"/>
    <path d="M 86.93671417236328 164.89163208007812 C 86.40421295166016 163.17047119140625 89.8248291015625 148.23171997070312 90.51622772216797 147.63150024414062 C 91.54653930664062 146.84332275390625 99.26812744140625 146.74559020996094 110.62867736816406 146.73849487304688 C 125.81257629394531 146.86129760742188 129.6208953857422 146.700439453125 130.49969482421875 147.5431671142578 C 131.47573852539062 149.15969848632812 133.96678161621094 164.65948486328125 133.8328094482422 165.83767700195312 C 132.59544372558594 166.1348114013672 124.6552505493164 165.9208984375 110.17559051513672 165.81715393066406 C 90.67736053466797 166.2257537841797 87.38557434082031 166.70382690429688 86.93671417236328 164.89163208007812" stroke-width="0.0" fill="rgb(253, 226, 207)" opacity="0.96432894"/>
    <path d="M 176.71279907226562 165.98104858398438 C 176.5086669921875 165.85781860351562 177.46243286132812 163.84286499023438 178.59286499023438 161.71942138671875 C 179.86190795898438 159.10862731933594 180.5167999267578 155.2197723388672 180.7830810546875 151.39193725585938 L 180.49081420898438 146.66317749023438 L 190.39395141601562 146.5020751953125 L 189.9513397216797 154.41261291503906 C 189.81088256835938 161.4746856689453 189.37652587890625 162.20289611816406 186.94369506835938 164.37069702148438 C 184.8421630859375 165.98243713378906 182.78094482421875 166.41395568847656 180.15199279785156 166.11663818359375 C 178.3309326171875 166.32247924804688 176.61753845214844 166.12356567382812 176.71279907226562 165.98104858398438" stroke-width="1.0" fill="rgb(253, 225, 205)" opacity="0.96165466"/>
    <path d="M 33.091575622558594 165.00767517089844 C 30.2574462890625 163.56884765625 28.25415802001953 158.4722900390625 28.421302795410156 151.90673828125 L 28.285079956054688 146.91363525390625 L 42.091163635253906 146.74530029296875 L 42.00900650024414 151.94873046875 C 42.22313690185547 155.03187561035156 43.03562927246094 159.0086669921875 44.19559860229492 161.325439453125 L 46.24128723144531 166.06854248046875 L 40.41218185424805 166.16783142089844 C 37.42723083496094 166.13487243652344 33.83973693847656 165.6385955810547 33.091575622558594 165.00767517089844" stroke-width="1.0" fill="rgb(254, 224, 207)" opacity="0.95768714"/>
    <path d="M 56.23360061645508 119.08511352539062 C 56.58890151977539 115.77066040039062 59.025428771972656 104.10346984863281 59.77875900268555 103.37724304199219 C 59.945892333984375 103.23815155029297 61.23537063598633 103.57546997070312 62.57585144042969 104.70613861083984 C 64.02400207519531 105.83402252197266 67.47401428222656 106.9012680053711 70.02906036376953 107.48021697998047 L 74.056396484375 108.51657104492188 L 74.49028015136719 115.02603149414062 L 74.76889038085938 121.06427001953125 L 56.53916931152344 121.73616027832031 L 56.23360061645508 119.08511352539062" stroke-width="1.0" fill="rgb(237, 154, 92)" opacity="0.92415404"/>
    <path d="M 78.66694641113281 109.80184936523438 L 78.7883071899414 98.35429382324219 L 87.72593688964844 98.31297302246094 L 87.86988830566406 121.26988983154297 L 78.81680297851562 121.07769012451172 L 78.66694641113281 109.80184936523438" stroke-width="1.0" fill="rgb(245, 137, 145)" opacity="0.94921774"/>
    <path d="M 78.15486145019531 85.36409759521484 C 74.61686706542969 80.81816101074219 76.67290496826172 78.10321044921875 83.81106567382812 78.12574005126953 C 88.65174102783203 78.14083862304688 90.3414306640625 79.20034790039062 90.32683563232422 82.25963592529297 C 90.29067993164062 87.69314575195312 81.64108276367188 89.92378997802734 78.15486145019531 85.36409759521484" stroke-width="1.0" fill="rgb(69, 47, 43)" opacity="0.9919985"/>
    <path d="M 69.57901000976562 94.34435272216797 C 67.17802429199219 90.60731506347656 66.99040222167969 90.49100494384766 64.08683013916016 92.04287719726562 C 62.41154861450195 93.36927795410156 61.44458770751953 93.75865173339844 60.989837646484375 93.310302734375 C 61.17390441894531 92.79811096191406 61.410057067871094 88.97633361816406 61.883670806884766 84.7780990600586 C 62.16542053222656 79.536376953125 63.06074142456055 75.89161682128906 64.7123031616211 74.4677505493164 C 65.57606506347656 73.29339599609375 66.6567611694336 71.40803527832031 66.43985748291016 70.76275634765625 C 66.63995361328125 68.83917236328125 67.92277526855469 68.93196868896484 69.81209564208984 70.98121643066406 C 70.24319458007812 71.98564910888672 72.0932388305664 72.41197204589844 74.03313446044922 72.32719421386719 C 77.13301849365234 71.91531372070312 77.03022766113281 71.7936782836914 76.486083984375 73.6716537475586 C 72.76750183105469 78.76151275634766 72.28123474121094 80.11564636230469 72.07225799560547 83.9036636352539 C 71.95970153808594 88.85740661621094 73.23423767089844 93.05775451660156 75.81782531738281 94.45389556884766 C 77.980224609375 95.2090072631836 77.66803741455078 95.28341674804688 75.67320251464844 95.46980285644531 C 73.79344940185547 95.49444580078125 73.52896118164062 95.61492919921875 74.38735961914062 96.43826293945312 C 75.81420135498047 97.2098159790039 75.83379364013672 97.39237213134766 74.45161437988281 97.48982238769531 C 73.56748962402344 97.5900650024414 71.22472381591797 96.0583724975586 69.57901000976562 94.34435272216797" stroke-width="1.0" fill="rgb(229, 150, 94)" opacity="0.9858273"/>
    <path d="M 91.76653289794922 96.89190673828125 C 91.63007354736328 96.78710174560547 92.60964965820312 95.02412414550781 93.0643081665039 93.57608795166016 C 93.81393432617188 91.81208038330078 94.33561706542969 87.81726837158203 94.80256652832031 85.13690185546875 C 94.26747131347656 79.78589630126953 93.82759857177734 78.41827392578125 91.2447738647461 75.74462890625 L 87.8620834350586 72.74153137207031 L 93.04219055175781 72.54934692382812 C 97.62757873535156 72.32418823242188 97.61524963378906 72.07188415527344 98.98384094238281 76.66119384765625 C 100.76895141601562 81.89547729492188 100.93397521972656 88.81090545654297 99.18819427490234 92.16143798828125 C 97.97797393798828 95.65821075439453 91.7972412109375 99.82463836669922 91.76653289794922 96.89190673828125" stroke-width="1.0" fill="rgb(225, 150, 89)" opacity="0.9990354"/>
    <path d="M 73.55873107910156 72.07717895507812 C 70.72035217285156 71.0877914428711 67.31800842285156 69.81248474121094 66.83531188964844 67.65205383300781 C 65.86714172363281 66.056884765625 65.76998901367188 65.38322448730469 67.94126892089844 58.705135345458984 C 69.08594512939453 55.27440643310547 70.78073120117188 51.71276092529297 72.29129028320312 51.577308654785156 C 72.85588073730469 50.52731704711914 78.34423828125 50.13473892211914 84.06283569335938 50.07402420043945 C 94.20616912841797 50.227638244628906 94.48857116699219 50.950706481933594 96.42724609375 53.119136810302734 C 99.13724517822266 55.797000885009766 101.41451263427734 63.13591384887695 100.73745727539062 66.24449157714844 C 99.69384002685547 67.94261169433594 98.19338989257812 69.22750854492188 94.23487854003906 71.06443786621094 L 89.27147674560547 74.2362060546875 L 87.11219024658203 70.44085693359375 L 83.20478820800781 64.23910522460938 L 79.28424072265625 69.79609680175781 L 77.43840789794922 73.50902557373047 L 73.55873107910156 72.07717895507812" stroke-width="0.0" fill="rgb(228, 151, 93)" opacity="0.98440236"/>
    <path d="M 107.83016204833984 104.81600952148438 C 107.67401123046875 103.06876373291016 106.84136962890625 97.5713119506836 106.2182388305664 92.70966339111328 C 104.60752868652344 80.96221160888672 104.13602447509766 79.96316528320312 107.0946273803711 79.35078430175781 C 108.2242431640625 79.24552917480469 109.78185272216797 77.96626281738281 110.69331359863281 76.71170043945312 C 111.92745971679688 74.40843200683594 112.16472625732422 74.37226867675781 123.62162780761719 74.29031372070312 L 134.8187713623047 74.42919921875 L 147.6923828125 86.64109802246094 C 154.9310760498047 93.58926391601562 161.1262664794922 99.16612243652344 160.6462860107422 99.457275390625 C 160.68435668945312 101.61994934082031 158.64027404785156 103.86787414550781 155.85879516601562 105.70280456542969 C 153.54296875 107.99256134033203 151.5698699951172 108.17376708984375 130.52232360839844 107.95230102539062 L 106.91598510742188 107.94981384277344 L 107.83016204833984 104.81600952148438" stroke-width="1.0" fill="rgb(61, 175, 254)" opacity="0.9864228"/>
    <path d="M 92.0538558959961 114.32563018798828 L 92.6788101196289 107.9394302368164 L 98.51019287109375 107.25218200683594 C 101.50365447998047 106.67828369140625 104.15192413330078 105.9316177368164 104.10646057128906 105.89639282226562 C 104.56884002685547 106.53800201416016 104.76521301269531 109.54808807373047 105.09408569335938 113.24017333984375 C 105.32378387451172 119.82002258300781 105.4078140258789 119.92959594726562 108.00439453125 119.91886901855469 C 109.43050384521484 119.98313903808594 110.70277404785156 120.6390380859375 110.69824981689453 120.53356170654297 C 110.53099060058594 120.87147521972656 106.37738800048828 121.13925170898438 101.10784149169922 121.20153045654297 L 91.76803588867188 120.93611145019531 L 92.0538558959961 114.32563018798828" stroke-width="1.0" fill="rgb(234, 157, 96)" opacity="0.9559062"/>
    <path d="M 147.4314727783203 171.4492950439453 C 133.55661010742188 165.0944061279297 129.975830078125 148.954833984375 139.20391845703125 137.3602752685547 C 145.9202117919922 130.12567138671875 156.8170623779297 127.32406616210938 165.74142456054688 131.42324829101562 C 169.53146362304688 133.56753540039062 175.09121704101562 139.6772003173828 176.21145629882812 143.8588409423828 C 177.5867919921875 148.0904541015625 177.0050506591797 156.31912231445312 175.15811157226562 160.18612670898438 C 173.122802734375 164.90904235839844 169.33245849609375 169.03573608398438 165.2767333984375 170.9288330078125 C 161.07891845703125 173.70362854003906 152.58145141601562 173.92596435546875 147.4314727783203 171.4492950439453" stroke-width="1.0" fill="rgb(114, 84, 75)" opacity="0.9974532"/>
    <path d="M 185.7592010498047 135.11962890625 C 181.65135192871094 133.6650390625 181.06057739257812 132.17002868652344 180.61773681640625 117.32430267333984 C 180.49929809570312 109.00591278076172 179.7894744873047 102.32614135742188 179.32077026367188 101.12301635742188 C 178.4725799560547 99.78736877441406 178.99362182617188 99.71747589111328 185.45932006835938 99.9124984741211 C 191.363525390625 99.48259735107422 192.12603759765625 99.79788208007812 193.60736083984375 101.60425567626953 C 194.68597412109375 102.6435546875 194.89627075195312 110.10850524902344 194.66189575195312 119.36819458007812 L 194.61663818359375 136.2113800048828 L 190.91677856445312 135.94912719726562 C 189.0032501220703 136.0450439453125 186.89437866210938 135.56781005859375 185.7592010498047 135.11962890625" stroke-width="1.0" fill="rgb(230, 83, 84)" opacity="0.97380984"/>
    <path d="M 59.97883224487305 171.77674865722656 C 50.85460662841797 168.73687744140625 45.61785888671875 160.99488830566406 45.807559967041016 151.6310577392578 C 45.5220832824707 148.7936248779297 46.28171157836914 145.03228759765625 46.9394416809082 143.14590454101562 C 52.88639450073242 128.44161987304688 73.8541259765625 124.74658203125 83.5449447631836 136.77142333984375 C 95.41213989257812 151.1921844482422 86.74737548828125 171.68414306640625 68.34729766845703 173.04173278808594 C 65.35298156738281 173.30271911621094 61.654232025146484 173.06201171875 59.97883224487305 171.77674865722656" stroke-width="1.0" fill="rgb(114, 84, 75)" opacity="0.9981354"/>
    <path d="M 131.95986938476562 161.5949249267578 C 130.6563262939453 158.4502410888672 129.82908630371094 155.10647583007812 129.87257385253906 151.37350463867188 C 129.9573211669922 146.81524658203125 130.21176147460938 146.16989135742188 132.08877563476562 146.47567749023438 C 134.11761474609375 146.2186279296875 134.41873168945312 146.78369140625 134.12843322753906 151.54904174804688 C 134.2547607421875 155.07366943359375 135.19558715820312 158.30047607421875 136.72552490234375 161.35446166992188 L 139.1809539794922 166.1058807373047 L 136.6020050048828 166.0543212890625 C 134.47991943359375 166.1868896484375 133.6418914794922 165.43966674804688 131.95986938476562 161.5949249267578" stroke-width="1.0" fill="rgb(223, 196, 181)" opacity="0.9387137"/>
    <path d="M 174.5372772216797 161.95309448242188 C 175.60543823242188 159.0591278076172 176.77133178710938 155.31517028808594 177.1734619140625 151.75460815429688 C 176.75083923339844 147.2906036376953 177.37193298339844 146.3058319091797 178.9206085205078 146.7319793701172 C 180.60350036621094 146.2352294921875 180.8862762451172 146.9434814453125 180.92239379882812 151.52952575683594 C 181.0848846435547 154.15545654296875 180.43597412109375 158.7894287109375 179.36480712890625 161.46990966796875 C 177.98709106445312 165.35171508789062 177.42001342773438 166.00833129882812 174.8594207763672 166.11996459960938 L 171.87179565429688 166.24595642089844 L 174.5372772216797 161.95309448242188" stroke-width="1.0" fill="rgb(223, 191, 173)" opacity="0.95873666"/>
    <path d="M 187.2965087890625 164.0877227783203 C 189.30856323242188 161.81785583496094 189.54620361328125 161.0704803466797 189.72784423828125 154.0105438232422 C 190.20289611816406 146.92030334472656 190.31936645507812 146.5085906982422 192.268310546875 146.63888549804688 C 194.2052001953125 146.66156005859375 194.38906860351562 146.8383026123047 194.51806640625 153.28477478027344 C 194.801025390625 162.0908966064453 192.53814697265625 165.9157257080078 187.22528076171875 166.0225830078125 L 184.53428649902344 166.15744018554688 L 187.2965087890625 164.0877227783203" stroke-width="1.0" fill="rgb(228, 204, 187)" opacity="0.98416543"/>
    <path d="M 43.700103759765625 161.88409423828125 C 42.44420623779297 159.5582275390625 41.48947525024414 155.55496215820312 41.1650276184082 152.4337158203125 C 40.6771125793457 147.02667236328125 40.87990951538086 146.73101806640625 43.33245086669922 146.43338012695312 C 45.29059982299805 146.24331665039062 45.8367919921875 146.12950134277344 45.804786682128906 151.45697021484375 C 45.62306213378906 154.48446655273438 46.204654693603516 157.6098175048828 47.879180908203125 160.99732971191406 C 49.38352966308594 163.68321228027344 50.51998519897461 165.99111938476562 50.22577667236328 166.18002319335938 C 50.39216232299805 166.03164672851562 49.363399505615234 166.18154907226562 47.602500915527344 166.07537841796875 C 45.890052795410156 166.50559997558594 45.1588134765625 165.32302856445312 43.700103759765625 161.88409423828125" stroke-width="1.0" fill="rgb(225, 197, 181)" opacity="0.9481406"/>
    <path d="M 47.340240478515625 119.18219757080078 C 46.79254150390625 117.506591796875 57.914710998535156 104.90433502197266 58.66096878051758 105.80221557617188 C 58.905426025390625 105.75117492675781 58.576171875 109.51309204101562 57.983646392822266 113.87654113769531 L 56.75043487548828 121.85958862304688 L 51.9859733581543 121.76499938964844 C 47.465232849121094 121.88053131103516 47.26817321777344 121.20085144042969 47.340240478515625 119.18219757080078" stroke-width="1.0" fill="rgb(233, 93, 90)" opacity="0.98027897"/>
    <path d="M 79.21260833740234 86.56684875488281 C 76.65389251708984 83.85297393798828 78.75434875488281 82.29368591308594 84.68655395507812 82.41105651855469 C 88.3705062866211 82.5318374633789 89.9142074584961 84.21785736083984 87.95569610595703 86.39717102050781 C 86.586181640625 88.10031127929688 80.80738067626953 88.35086059570312 79.21260833740234 86.56684875488281" stroke-width="1.0" fill="rgb(39, 29, 24)" opacity="0.99668103"/>
    <path d="M 75.45928955078125 97.78075408935547 C 76.00736236572266 97.29557037353516 75.13102722167969 97.26193237304688 74.20186614990234 97.41770935058594 C 73.32505798339844 97.74410247802734 73.00679016113281 97.58277130126953 73.26858520507812 97.10462951660156 C 73.63670349121094 96.52470397949219 73.35371398925781 95.894287109375 72.99907684326172 95.48592376708984 C 70.63784790039062 94.83201599121094 82.43814849853516 93.18106079101562 86.81346130371094 93.81329345703125 C 90.15780639648438 94.14441680908203 91.19361877441406 93.8343734741211 92.4275894165039 92.62381744384766 C 94.54286193847656 91.07865142822266 94.45147705078125 91.64130401611328 92.836669921875 94.29365539550781 C 91.5374755859375 96.2735595703125 92.57110595703125 97.19802856445312 94.8989486694336 95.82720184326172 C 96.25191497802734 95.01528930664062 96.81404113769531 95.04205322265625 96.4454116821289 95.68819427490234 C 96.04609680175781 96.2156753540039 94.25973510742188 97.05547332763672 92.74050903320312 97.87541961669922 C 88.05276489257812 99.11428833007812 76.06849670410156 99.0436019897461 75.45928955078125 97.78075408935547" stroke-width="1.0" fill="rgb(219, 135, 69)" opacity="0.9931352"/>
    <path d="M 57.50229263305664 77.89911651611328 C 55.22771072387695 75.45333862304688 53.078163146972656 68.63640594482422 52.497764587402344 63.79176330566406 L 52.211395263671875 59.958683013916016 L 58.98065948486328 56.98833084106445 C 62.58363342285156 55.48154067993164 65.8740463256836 53.41120529174805 66.36528778076172 52.36516189575195 C 68.49728393554688 50.871036529541016 71.62652587890625 51.34801483154297 71.28717803955078 53.16513442993164 C 70.79348754882812 53.97498321533203 69.80459594726562 58.42027282714844 69.06773376464844 63.10459518432617 C 66.65335845947266 73.02684783935547 66.4578628540039 73.99921417236328 63.92174530029297 77.39439392089844 C 61.54611587524414 80.10627746582031 59.716514587402344 80.08116149902344 57.50229263305664 77.89911651611328" stroke-width="1.0" fill="rgb(82, 57, 48)" opacity="0.9930769"/>
    <path d="M 103.42679595947266 77.62855529785156 C 101.96980285644531 77.14348602294922 100.72123718261719 75.14414978027344 100.34374237060547 72.87307739257812 C 99.51329040527344 70.88975524902344 95.14559173583984 52.92885971069336 95.2186508178711 51.884986877441406 C 95.38238525390625 51.162376403808594 99.5859375 51.13552474975586 101.1517105102539 52.85980987548828 C 101.9858627319336 54.34014129638672 105.17698669433594 55.87578582763672 108.22138977050781 56.93574142456055 C 114.97434997558594 58.96331787109375 115.75961303710938 59.74772644042969 115.01043701171875 62.7489128112793 C 113.59937286376953 72.21429443359375 111.89878845214844 75.33625793457031 110.03482818603516 77.80406951904297 C 107.04425048828125 80.6171875 106.28596496582031 80.80375671386719 103.42679595947266 77.62855529785156" stroke-width="1.0" fill="rgb(84, 56, 48)" opacity="0.9935628"/>
    <path d="M 68.56072235107422 72.69212341308594 C 65.44937133789062 68.64167785644531 71.6009521484375 62.20832061767578 75.75816345214844 65.25469970703125 C 78.09595489501953 66.39153289794922 78.45550537109375 71.33306121826172 76.42740631103516 73.28707122802734 C 74.76362609863281 75.08958435058594 69.64486694335938 74.84857177734375 68.56072235107422 72.69212341308594" stroke-width="1.0" fill="rgb(86, 70, 61)" opacity="0.9655028"/>
    <path d="M 104.4273910522461 91.7854232788086 C 103.34899139404297 91.4427490234375 102.25225067138672 91.1302719116211 101.431884765625 91.08335876464844 C 100.81275939941406 91.99798583984375 100.62788391113281 90.49798583984375 100.26417541503906 86.79216003417969 C 100.38077545166016 84.26278686523438 99.5848617553711 80.06195068359375 98.7086181640625 77.23380279541016 C 97.4997329711914 74.60832214355469 97.08014678955078 71.42308807373047 97.66082763671875 69.94064331054688 C 97.78216552734375 68.50245666503906 97.21124267578125 66.46739196777344 95.99056243896484 65.443359375 L 94.21543884277344 63.55744934082031 L 96.30445098876953 64.93617248535156 C 97.50043487548828 66.3848876953125 98.92726135253906 69.04021453857422 99.63980865478516 70.82196044921875 C 100.2294921875 73.13359832763672 101.79660034179688 75.53759765625 102.69145202636719 76.47415161132812 C 103.8711166381836 77.25685119628906 104.98809814453125 78.22010040283203 104.44730377197266 78.79032897949219 C 105.16354370117188 83.10905456542969 106.58592224121094 92.59844970703125 106.45890045166016 92.87274169921875 C 106.4255599975586 92.5027847290039 105.57427215576172 92.2920150756836 104.4273910522461 91.7854232788086" stroke-width="1.0" fill="rgb(197, 121, 68)" opacity="0.996588"/>
    <path d="M 105.43159484863281 120.76456451416016 C 105.03394317626953 120.42196655273438 104.79734802246094 117.7016372680664 104.77639770507812 115.11079406738281 C 104.84212493896484 112.46119689941406 104.50507354736328 109.20301055908203 104.054443359375 107.89934539794922 C 103.34508514404297 105.82328796386719 103.64362335205078 105.1059341430664 105.22068786621094 104.38695526123047 C 107.26466369628906 102.84818267822266 108.00225830078125 103.4815902709961 108.07714080810547 106.95942687988281 C 108.4269027709961 108.53997039794922 109.09367370605469 112.31232452392578 109.23030853271484 116.10879516601562 C 109.39884185791016 121.06973266601562 109.30386352539062 121.42560577392578 107.77033996582031 121.3344955444336 C 106.90383911132812 121.4242935180664 105.52874755859375 121.16217803955078 105.43159484863281 120.76456451416016" stroke-width="1.0" fill="rgb(196, 127, 70)" opacity="0.97339934"/>
    <path d="M 149.40589904785156 156.7494354248047 C 146.15199279785156 152.9313507080078 149.0812225341797 145.84524536132812 153.94993591308594 146.02696228027344 C 156.61190795898438 145.84408569335938 159.67352294921875 149.06216430664062 159.63270568847656 152.39541625976562 C 159.5373077392578 157.71873474121094 152.76687622070312 160.54718017578125 149.40589904785156 156.7494354248047" stroke-width="1.0" fill="rgb(239, 144, 147)" opacity="0.9938658"/>
    <path d="M 176.50511169433594 112.4729232788086 C 176.74581909179688 107.69817352294922 176.50845336914062 102.95548248291016 176.23257446289062 101.6601333618164 C 175.86544799804688 99.77902221679688 176.04531860351562 99.47610473632812 177.20169067382812 99.89362335205078 C 180.0091094970703 100.64404296875 181.65658569335938 105.5928955078125 181.24465942382812 113.76905059814453 C 181.364013671875 120.98382568359375 181.35948181152344 121.12266540527344 178.87319946289062 121.32957458496094 C 176.5323486328125 121.10775756835938 176.6458740234375 121.0748062133789 176.50511169433594 112.4729232788086" stroke-width="1.0" fill="rgb(241, 210, 196)" opacity="0.93786645"/>
    <path d="M 61.34757995605469 157.160400390625 C 58.46248245239258 154.5354461669922 58.37599563598633 150.60345458984375 61.159767150878906 147.84068298339844 C 64.30026245117188 145.21438598632812 67.05977630615234 145.29486083984375 69.40565490722656 148.2605438232422 C 71.52713775634766 151.4637451171875 71.63384246826172 153.26654052734375 69.4388198852539 156.12376403808594 C 67.12106323242188 158.93368530273438 64.17220306396484 159.2267303466797 61.34757995605469 157.160400390625" stroke-width="1.0" fill="rgb(238, 144, 147)" opacity="0.9995424"/>
    <path d="M 84.39151763916016 166.0133819580078 C 83.79314422607422 165.99464416503906 84.89900207519531 163.60586547851562 86.19281005859375 161.24266052246094 C 87.83375549316406 158.12734985351562 88.6296157836914 154.85816955566406 88.59648132324219 151.580810546875 C 88.13191223144531 146.84393310546875 88.56939697265625 146.5894012451172 91.03600311279297 146.67526245117188 C 93.32734680175781 146.4010772705078 93.2606201171875 146.54681396484375 93.07283020019531 151.96194458007812 C 92.64087677001953 160.0745849609375 89.36444854736328 166.27581787109375 86.44625091552734 166.1561737060547 C 85.23220825195312 166.1792755126953 84.25135040283203 166.1991729736328 84.39151763916016 166.0133819580078" stroke-width="1.0" fill="rgb(219, 191, 176)" opacity="0.9415327"/>
    <path d="M 89.2546615600586 72.75951385498047 C 87.6743392944336 70.22305297851562 87.86860656738281 68.22461700439453 89.77955627441406 66.06495666503906 C 94.40465545654297 62.466304779052734 100.56253814697266 67.93498992919922 97.5969467163086 72.23989868164062 C 95.6343994140625 75.09933471679688 90.69619750976562 75.51651000976562 89.2546615600586 72.75951385498047" stroke-width="1.0" fill="rgb(83, 69, 62)" opacity="0.9736852"/>
  </g>
</svg>
