<?xml version="1.0" ?>
<svg xmlns="http://www.w3.org/2000/svg" version="1.1" width="224" height="224">
  <defs/>
  <g>
    <path d="M 107.4561996459961 50.45179748535156 C 102.46347045898438 46.15273666381836 92.20349884033203 40.84233856201172 87.90209197998047 41.54478454589844 C 84.55803680419922 41.307899475097656 92.52066802978516 35.312721252441406 99.01361083984375 32.067138671875 C 104.19583129882812 29.3961181640625 119.86450958251953 28.0 123.56319427490234 30.432846069335938 C 125.1805191040039 30.46997833251953 125.98157501220703 30.487586975097656 125.20552062988281 30.68144989013672 C 124.68463897705078 30.88135528564453 125.64080810546875 32.10914611816406 127.88866424560547 33.586585998535156 C 132.16058349609375 36.5008544921875 132.14698791503906 37.94425964355469 125.46885681152344 41.999114990234375 C 122.8797607421875 43.53070068359375 119.4854507446289 46.64276885986328 117.5914535522461 48.942535400390625 C 115.87993621826172 51.83512496948242 114.02898406982422 53.986637115478516 112.96188354492188 54.010414123535156 C 112.61170196533203 54.02729415893555 110.08279418945312 52.042579650878906 107.4561996459961 50.45179748535156" stroke-width="1.0" fill="rgb(107, 102, 109)" opacity="0.99921584"/>
    <path d="M 69.68534851074219 103.74361419677734 C 66.3792724609375 101.6336898803711 61.51056671142578 98.18698120117188 59.12442398071289 95.98573303222656 C 55.63608932495117 91.64733123779297 56.36053466796875 89.43113708496094 53.63564682006836 82.46818542480469 C 49.96261215209961 70.55599975585938 54.65412902832031 60.91712951660156 61.75162887573242 51.61979675292969 C 65.2525634765625 47.61988067626953 75.3937759399414 43.86426544189453 82.4098892211914 42.013633728027344 C 90.56437683105469 41.05104064941406 91.34013366699219 40.50054168701172 94.92375946044922 41.21546173095703 C 104.3299789428711 45.82048034667969 107.60086059570312 46.903587341308594 109.01377868652344 50.71311569213867 C 109.53175354003906 53.57538604736328 110.97098541259766 54.72138214111328 111.39102935791016 54.49272155761719 C 114.31197357177734 54.8773307800293 114.7349624633789 54.22502136230469 112.15886688232422 52.78573226928711 C 112.29720306396484 52.46709442138672 111.96556854248047 50.85033416748047 113.98807525634766 51.8884162902832 C 114.18522644042969 51.18392562866211 115.88666534423828 48.77933120727539 117.11825561523438 47.30518341064453 C 122.68792724609375 44.3915901184082 123.50414276123047 40.30876159667969 141.09182739257812 40.24370574951172 C 151.4659881591797 41.983924865722656 165.6287841796875 49.95697021484375 168.64605712890625 61.67442321777344 C 172.32418823242188 67.28176879882812 171.292724609375 70.18453979492188 171.36509704589844 76.53001403808594 C 169.67245483398438 88.46842956542969 166.28907775878906 96.95226287841797 156.85940551757812 104.73001861572266 L 150.44778442382812 107.48920440673828 L 112.64642333984375 107.91834259033203 L 75.49346160888672 108.50674438476562 L 69.68534851074219 103.74361419677734" stroke-width="0.0" fill="rgb(158, 219, 255)" opacity="0.9878469"/>
    <path d="M 110.60128021240234 175.72476196289062 C 107.56695556640625 172.67678833007812 105.59950256347656 172.3111114501953 100.17591857910156 171.7162322998047 C 97.0479736328125 172.14794921875 94.21681213378906 173.05108642578125 92.9158935546875 174.3470458984375 C 89.63601684570312 177.93637084960938 86.76600646972656 176.115478515625 76.69648742675781 171.1713409423828 C 67.66546630859375 161.4574737548828 61.897422790527344 149.7855987548828 60.757469177246094 138.1945343017578 C 60.3134765625 132.16143798828125 60.88058090209961 130.80349731445312 66.25390625 117.22693634033203 L 71.22236633300781 104.07518768310547 L 80.91144561767578 105.26386260986328 C 90.33233642578125 105.66011810302734 93.27526092529297 104.43801879882812 99.04592895507812 103.40287017822266 C 99.9615249633789 100.52198791503906 105.07133483886719 97.64110565185547 109.90184020996094 96.62601470947266 L 116.9190902709961 94.04747772216797 L 123.08024597167969 99.25288391113281 C 127.7609634399414 103.26874542236328 133.08782958984375 104.364013671875 138.85186767578125 106.5746841430664 C 143.5146484375 106.98284912109375 148.2711944580078 105.84249877929688 151.2776641845703 104.66751861572266 C 155.33787536621094 107.83552551269531 157.24057006835938 114.94804382324219 158.15664672851562 126.37629699707031 C 157.86285400390625 143.07275390625 154.27130126953125 153.0664520263672 142.31869506835938 169.50521850585938 C 134.93214416503906 174.86175537109375 134.63836669921875 174.8936309814453 131.54835510253906 172.27294921875 C 125.13841247558594 170.34005737304688 118.6988525390625 172.70249938964844 115.6760482788086 176.71890258789062 C 114.33885192871094 182.32357788085938 112.68223571777344 181.69863891601562 110.60128021240234 175.72476196289062" stroke-width="0.0" fill="rgb(114, 107, 110)" opacity="0.99614763"/>
    <path d="M 100.75422668457031 191.25662231445312 C 97.62388610839844 189.55848693847656 98.6961669921875 175.24549865722656 102.07075500488281 175.22509765625 C 103.43917846679688 175.27232360839844 104.33685302734375 176.98873901367188 104.4391860961914 181.842529296875 C 105.12564086914062 188.998046875 103.38307189941406 193.07952880859375 100.75422668457031 191.25662231445312" stroke-width="1.0" fill="rgb(255, 178, 78)" opacity="0.9665509"/>
    <path d="M 124.8991928100586 189.88084411621094 C 123.33104705810547 186.0880126953125 124.23927307128906 174.2501220703125 126.15644836425781 174.09814453125 C 128.5026092529297 174.19973754882812 129.90521240234375 188.58953857421875 127.6318130493164 190.7559814453125 C 126.27113342285156 192.160400390625 125.61373138427734 191.57400512695312 124.8991928100586 189.88084411621094" stroke-width="1.0" fill="rgb(255, 175, 71)" opacity="0.9591849"/>
    <path d="M 138.13143920898438 194.92483520507812 C 138.07777404785156 194.44757080078125 138.93878173828125 193.3687744140625 139.69851684570312 192.30941772460938 C 140.4924774169922 191.10275268554688 141.2720947265625 188.37075805664062 141.21990966796875 186.59442138671875 L 141.45143127441406 183.20730590820312 L 158.44842529296875 183.14718627929688 C 175.87387084960938 182.6883087158203 178.7613525390625 183.26429748535156 180.55702209472656 186.95755004882812 C 181.7938995361328 189.25872802734375 180.54696655273438 193.11607360839844 178.20108032226562 194.52096557617188 C 176.55282592773438 195.71490478515625 138.20957946777344 196.0 138.13143920898438 194.92483520507812" stroke-width="1.0" fill="rgb(249, 217, 191)" opacity="0.99209934"/>
    <path d="M 47.14496612548828 193.45376586914062 C 44.22425079345703 190.65826416015625 44.367218017578125 188.55096435546875 47.79444885253906 185.26467895507812 C 50.27304458618164 182.7021484375 50.83765411376953 182.320556640625 67.32368469238281 182.72109985351562 C 82.73733520507812 182.5128936767578 83.93070983886719 182.80393981933594 83.52816772460938 184.63217163085938 C 82.55074310302734 185.39572143554688 82.39552307128906 188.41561889648438 82.26693725585938 191.21170043945312 L 82.31149291992188 195.5880889892578 L 65.84573364257812 195.62062072753906 C 50.78561782836914 195.54190063476562 49.07944107055664 195.3973388671875 47.14496612548828 193.45376586914062" stroke-width="1.0" fill="rgb(248, 216, 190)" opacity="0.9892832"/>
    <path d="M 107.70912170410156 50.378204345703125 C 105.68486785888672 48.3546028137207 101.41265869140625 45.1213264465332 98.05980682373047 43.66143798828125 C 94.57872009277344 42.15217590332031 92.53108215332031 40.58848571777344 93.49717712402344 40.0860595703125 C 96.4040298461914 39.93610382080078 105.65194702148438 46.00109100341797 108.71752166748047 49.08108901977539 C 109.56229400634766 51.26283264160156 110.93791198730469 52.706031799316406 112.36798858642578 52.304466247558594 C 111.82652282714844 52.4515380859375 113.79583740234375 50.76932907104492 116.02156066894531 48.73767852783203 C 118.33109283447266 46.49326705932617 122.13182067871094 44.01999282836914 123.75072479248047 42.87733840942383 C 130.48863220214844 38.819541931152344 130.8491973876953 37.80836486816406 127.04105377197266 34.544090270996094 C 125.62492370605469 33.46507263183594 124.4787368774414 32.1771240234375 124.99320983886719 31.505615234375 C 125.2532730102539 30.601974487304688 131.0234375 33.58788299560547 135.2559356689453 37.24994659423828 L 138.4669189453125 40.52069854736328 L 136.67276000976562 40.36824035644531 C 131.60169982910156 40.61302947998047 123.02801513671875 44.45969009399414 117.70574951171875 49.838035583496094 C 114.79564666748047 53.409339904785156 111.95758056640625 55.685394287109375 110.8830337524414 56.15595245361328 C 111.08329010009766 55.33546829223633 109.4435043334961 52.93069839477539 107.70912170410156 50.378204345703125" stroke-width="1.0" fill="rgb(53, 98, 116)" opacity="0.9163255"/>
    <path d="M 57.40092849731445 52.483802795410156 L 57.147525787353516 46.47066879272461 L 51.41352081298828 45.171348571777344 C 42.509376525878906 42.47724914550781 46.274139404296875 38.28953552246094 60.0407600402832 35.771270751953125 C 68.26834869384766 34.321754455566406 80.37474060058594 35.74859619140625 86.38065338134766 39.018524169921875 L 90.39306640625 41.02793884277344 L 83.09200286865234 42.556854248046875 C 75.16104888916016 43.93638610839844 65.62520599365234 49.294342041015625 61.224205017089844 54.79146957397461 L 57.51079177856445 58.14801025390625 L 57.40092849731445 52.483802795410156" stroke-width="1.0" fill="rgb(85, 79, 84)" opacity="0.9874779"/>
    <path d="M 162.632080078125 53.89408493041992 C 159.02523803710938 48.49061584472656 150.08961486816406 43.36654281616211 142.44808959960938 41.95414733886719 L 136.77883911132812 40.65235137939453 L 140.0413055419922 39.03484344482422 C 145.909423828125 35.81891632080078 158.09970092773438 34.318931579589844 166.66905212402344 35.75531768798828 C 174.8902587890625 37.35071563720703 180.50692749023438 39.938743591308594 179.51986694335938 41.98213195800781 C 179.3779296875 42.96356201171875 177.1622314453125 44.311737060546875 173.73428344726562 45.0062255859375 L 168.12741088867188 46.20796203613281 L 168.43008422851562 52.28048324584961 C 167.9088134765625 55.2823600769043 167.33477783203125 57.79811477661133 167.42333984375 57.70500946044922 C 166.4911346435547 58.06367111206055 164.63633728027344 56.235328674316406 162.632080078125 53.89408493041992" stroke-width="1.0" fill="rgb(86, 78, 82)" opacity="0.9873543"/>
    <path d="M 132.87313842773438 94.65813446044922 C 130.63291931152344 94.44744873046875 126.94586944580078 92.65776824951172 124.80532836914062 91.05409240722656 C 122.82464599609375 89.27179718017578 120.8871078491211 88.27091217041016 120.39594268798828 88.49494934082031 C 119.64984130859375 88.55770111083984 119.37582397460938 87.64148712158203 119.5613021850586 86.39701843261719 C 119.60894775390625 85.14512634277344 118.85164642333984 83.1215591430664 117.90522766113281 82.19511413574219 C 115.3398666381836 79.44908142089844 115.69390106201172 67.54446411132812 118.43704223632812 61.45670700073242 C 122.79536437988281 52.547420501708984 133.61953735351562 47.290199279785156 142.26217651367188 49.85591506958008 C 156.19805908203125 53.38572692871094 163.50100708007812 66.26734924316406 159.39602661132812 80.57007598876953 C 156.58229064941406 91.25143432617188 144.82684326171875 97.49639892578125 132.87313842773438 94.65813446044922" stroke-width="1.0" fill="rgb(252, 253, 252)" opacity="0.99692065"/>
    <path d="M 75.33746337890625 92.62113189697266 C 68.10786437988281 88.7781982421875 64.37020874023438 82.7927017211914 63.9548225402832 74.15586853027344 C 63.68745422363281 67.91665649414062 64.13458251953125 66.57789611816406 66.67064666748047 61.4167594909668 C 75.0398178100586 45.76726531982422 96.0449447631836 45.180320739746094 104.75426483154297 60.33073806762695 C 107.40543365478516 64.44586181640625 107.45751953125 66.11767578125 107.48041534423828 72.70079040527344 C 107.32211303710938 78.39292907714844 107.6216049194336 80.28079986572266 108.4005126953125 79.76285552978516 C 109.16425323486328 79.40524291992188 108.66776275634766 80.31473541259766 107.44081115722656 81.54689025878906 C 105.98375701904297 83.08389282226562 105.07714080810547 84.6576156616211 105.00346374511719 85.08234405517578 C 104.85452270507812 85.44373321533203 103.60782623291016 87.0518569946289 102.20358276367188 88.48728942871094 C 94.28433227539062 95.555908203125 83.49552917480469 97.13369750976562 75.33746337890625 92.62113189697266" stroke-width="1.0" fill="rgb(252, 253, 252)" opacity="0.9951001"/>
    <path d="M 47.496253967285156 144.70982360839844 C 41.63976287841797 140.3352813720703 40.812416076660156 116.75889587402344 46.54492950439453 103.41077423095703 C 50.41563415527344 93.53252410888672 53.55884552001953 88.19609832763672 55.49641036987305 87.52068328857422 C 55.65276336669922 88.81478881835938 59.29774475097656 92.06924438476562 62.4705924987793 97.60855865478516 C 69.43376922607422 103.14567565917969 69.5047607421875 104.0992660522461 68.86354064941406 108.0374755859375 C 67.14315795898438 117.64443969726562 55.44987106323242 141.85182189941406 52.1956672668457 144.44058227539062 C 49.356136322021484 145.69671630859375 49.21979904174805 145.1859588623047 47.496253967285156 144.70982360839844" stroke-width="0.0" fill="rgb(110, 102, 107)" opacity="0.9950439"/>
    <path d="M 136.0301513671875 177.74755859375 C 135.593505859375 176.463623046875 134.2300262451172 174.79043579101562 132.92373657226562 173.93405151367188 C 131.19223022460938 172.45889282226562 131.3135223388672 172.0667724609375 136.22796630859375 167.0508575439453 C 144.2694091796875 160.50074768066406 150.58392333984375 149.9222412109375 152.61886596679688 139.3534393310547 C 154.73025512695312 132.51437377929688 154.47378540039062 121.14672088623047 152.18453979492188 113.87142181396484 L 150.48851013183594 106.33037567138672 L 142.49285888671875 107.34541320800781 C 137.45230102539062 107.0364990234375 132.97933959960938 106.59800720214844 129.89854431152344 105.79790496826172 C 124.39034271240234 103.97122192382812 116.62194061279297 98.97521209716797 117.05192565917969 96.54908752441406 C 116.87895202636719 95.81640625 117.1795425415039 95.99906921386719 118.00906372070312 96.91485595703125 C 119.56725311279297 99.81482696533203 130.65223693847656 104.9949722290039 137.52049255371094 105.94351959228516 C 150.11346435546875 106.36446380615234 160.03927612304688 100.9458999633789 166.92489624023438 90.81182098388672 L 169.299072265625 85.59834289550781 L 172.4119415283203 90.50450897216797 C 177.1585235595703 97.36451721191406 181.93292236328125 111.44044494628906 182.53561401367188 120.5899887084961 C 183.18759155273438 130.15020751953125 181.45770263671875 139.9588623046875 178.68362426757812 143.68667602539062 L 176.86676025390625 145.84579467773438 L 171.8280792236328 142.7247314453125 C 170.4963836669922 140.40187072753906 168.3863525390625 138.68482971191406 167.7425537109375 138.73602294921875 C 167.391845703125 139.0442352294922 166.75926208496094 141.46493530273438 166.17564392089844 144.1321258544922 C 163.3039093017578 155.59259033203125 155.02731323242188 168.11285400390625 145.72000122070312 174.86700439453125 C 138.46624755859375 179.98394775390625 136.38055419921875 180.6026611328125 136.0301513671875 177.74755859375" stroke-width="1.0" fill="rgb(89, 80, 82)" opacity="1.0"/>
    <path d="M 77.69586181640625 108.27525329589844 C 73.11380004882812 107.4623031616211 73.70921325683594 107.0986557006836 82.57653045654297 106.34588623046875 C 90.87020874023438 105.5417251586914 100.13690948486328 101.7166748046875 104.19955444335938 97.42373657226562 C 105.55135345458984 95.89794921875 106.87715911865234 95.19987487792969 107.23985290527344 95.52164459228516 C 107.70333099365234 96.40540313720703 106.56990051269531 98.04996490478516 104.960693359375 99.69342041015625 C 96.83393859863281 105.93938446044922 84.93025207519531 109.77271270751953 77.69586181640625 108.27525329589844" stroke-width="1.0" fill="rgb(86, 87, 96)" opacity="0.94217074"/>
    <path d="M 90.23350524902344 158.90554809570312 C 86.77796173095703 154.3424835205078 86.1152572631836 151.392333984375 90.04154968261719 153.2885284423828 C 93.24188232421875 155.95211791992188 104.13661193847656 155.7664031982422 106.69087219238281 153.5188751220703 C 109.021728515625 152.85775756835938 109.39976501464844 153.30517578125 107.68907165527344 155.73678588867188 C 103.96895599365234 163.4141082763672 96.04777526855469 164.68035888671875 90.23350524902344 158.90554809570312" stroke-width="1.0" fill="rgb(251, 253, 253)" opacity="0.99287146"/>
    <path d="M 115.86292266845703 158.783935546875 C 112.67322540283203 154.8251953125 112.0779800415039 152.33973693847656 116.21923065185547 153.48870849609375 C 119.47643280029297 155.0537872314453 124.733642578125 154.86538696289062 128.98275756835938 153.32388305664062 C 133.3481903076172 152.0838165283203 132.80628967285156 153.7886505126953 129.56031799316406 158.1178436279297 C 127.84391784667969 160.3927001953125 125.1861801147461 161.53549194335938 122.74566650390625 161.70895385742188 C 120.61186218261719 161.5425567626953 118.00359344482422 160.57431030273438 115.86292266845703 158.783935546875" stroke-width="1.0" fill="rgb(249, 250, 250)" opacity="0.98325133"/>
    <path d="M 83.6534652709961 145.61256408691406 C 79.82953643798828 140.8429718017578 79.90461730957031 140.483154296875 85.18731689453125 141.57952880859375 C 87.64906311035156 142.5071563720703 91.79104614257812 142.56710815429688 93.82884216308594 141.51498413085938 C 99.01311492919922 140.01315307617188 98.9146728515625 140.21240234375 98.39189910888672 141.49029541015625 C 98.7144546508789 144.127197265625 93.04122924804688 148.6956787109375 89.60728454589844 148.6446533203125 C 87.86085510253906 148.53485107421875 85.1803970336914 147.28158569335938 83.6534652709961 145.61256408691406" stroke-width="1.0" fill="rgb(248, 250, 250)" opacity="0.9806949"/>
    <path d="M 105.3311538696289 145.96261596679688 C 101.28314971923828 142.17852783203125 101.86292266845703 139.81817626953125 106.07820129394531 141.6061248779297 C 108.70803833007812 142.2274169921875 112.07318115234375 141.90939331054688 114.4915542602539 141.48158264160156 C 117.11473846435547 140.79345703125 119.40991973876953 139.95648193359375 119.42932891845703 139.68785095214844 C 121.02696990966797 140.34640502929688 120.15117645263672 143.1275634765625 117.59581756591797 146.01321411132812 C 113.56712341308594 149.7584228515625 108.28646850585938 149.93344116210938 105.3311538696289 145.96261596679688" stroke-width="1.0" fill="rgb(250, 251, 252)" opacity="0.98775595"/>
    <path d="M 126.74658203125 145.8329315185547 C 123.56610870361328 142.1151580810547 123.0157241821289 139.82662963867188 126.33977508544922 140.38197326660156 C 127.32730102539062 141.28805541992188 129.56829833984375 141.9281768798828 130.86148071289062 141.84152221679688 C 132.41146850585938 142.2182159423828 135.2644500732422 142.02383422851562 137.70704650878906 141.3761749267578 C 140.02740478515625 140.11007690429688 142.42494201660156 139.74771118164062 142.82643127441406 140.65513610839844 C 143.02671813964844 140.58047485351562 141.6728973388672 142.6623077392578 140.13304138183594 145.07675170898438 C 135.36209106445312 149.72042846679688 130.80352783203125 150.19129943847656 126.74658203125 145.8329315185547" stroke-width="1.0" fill="rgb(250, 251, 252)" opacity="0.9874743"/>
    <path d="M 95.23979187011719 133.5621795654297 C 93.71250915527344 131.3099822998047 92.33453369140625 129.29554748535156 92.49368286132812 129.19189453125 C 92.65458679199219 128.80560302734375 95.09988403320312 129.0669403076172 97.7816162109375 130.06553649902344 C 101.32699584960938 130.839599609375 103.66121673583984 130.62442016601562 106.6625747680664 129.8525848388672 C 111.27308654785156 128.0634765625 111.2572250366211 130.4589385986328 108.0412826538086 134.6727752685547 C 104.00005340576172 138.43609619140625 100.05781555175781 137.82373046875 95.23979187011719 133.5621795654297" stroke-width="1.0" fill="rgb(249, 250, 250)" opacity="0.9816528"/>
    <path d="M 117.0096206665039 135.3015899658203 C 115.63233947753906 134.3102264404297 114.12775421142578 132.51197814941406 113.99800109863281 131.29788208007812 C 112.63507843017578 129.58599853515625 114.47405242919922 129.49417114257812 118.91914367675781 130.95030212402344 C 123.30316925048828 131.45631408691406 127.04618835449219 131.12644958496094 128.24021911621094 129.53646850585938 C 132.18577575683594 127.71865844726562 131.8507843017578 130.4842071533203 128.33702087402344 134.43711853027344 C 124.717041015625 137.74166870117188 122.24788665771484 137.88275146484375 117.0096206665039 135.3015899658203" stroke-width="1.0" fill="rgb(249, 250, 250)" opacity="0.98126364"/>
    <path d="M 128.55770874023438 84.38827514648438 C 116.78716278076172 78.08135986328125 122.3292465209961 60.01155090332031 135.82391357421875 61.032588958740234 L 140.61798095703125 61.854881286621094 L 136.5915985107422 61.69086837768555 C 133.83529663085938 62.568565368652344 132.8601837158203 62.96722412109375 133.46533203125 63.59493637084961 C 135.11570739746094 63.485572814941406 139.18026733398438 71.52238464355469 139.4170684814453 74.51309204101562 C 139.3180694580078 76.28096008300781 138.433349609375 79.27023315429688 137.435302734375 80.68769073486328 C 135.89329528808594 83.26797485351562 135.16259765625 85.50091552734375 135.97579956054688 85.90504455566406 C 136.55465698242188 86.29637145996094 132.0852508544922 85.84672546386719 128.55770874023438 84.38827514648438" stroke-width="1.0" fill="rgb(98, 87, 94)" opacity="0.9918339"/>
    <path d="M 84.87345123291016 85.3273696899414 C 77.64424133300781 83.29498291015625 74.29765319824219 72.08718872070312 79.2015151977539 66.16837310791016 C 82.14994049072266 62.803287506103516 87.3616943359375 60.537757873535156 90.62519073486328 60.85489273071289 C 92.6501693725586 61.03258514404297 92.19122314453125 60.88382339477539 89.24755859375 60.83254623413086 C 85.35533142089844 61.60409164428711 85.10800170898438 62.060638427734375 87.76969909667969 63.666961669921875 C 93.15708923339844 67.7005615234375 94.39924621582031 76.6005630493164 90.74922180175781 81.48385620117188 L 89.56134033203125 85.30328369140625 L 91.36367797851562 85.06172180175781 C 93.25415802001953 85.6331558227539 93.30654907226562 85.17899322509766 90.56988525390625 85.95269775390625 C 88.48365020751953 85.92417907714844 85.64161682128906 85.51612854003906 84.87345123291016 85.3273696899414" stroke-width="1.0" fill="rgb(97, 86, 93)" opacity="0.99596256"/>
    <path d="M 109.1136703491211 102.11779022216797 C 107.0073013305664 99.44544219970703 104.56593322753906 92.37124633789062 104.40143585205078 88.59721374511719 C 104.38133239746094 81.83555603027344 110.4157943725586 77.16866302490234 115.40284729003906 80.28157043457031 C 120.77783203125 84.12872314453125 120.97280883789062 89.61720275878906 116.06010437011719 98.24647521972656 C 112.59292602539062 104.28436279296875 111.44863891601562 104.85768127441406 109.1136703491211 102.11779022216797" stroke-width="1.0" fill="rgb(250, 177, 85)" opacity="0.98057264"/>
    <path d="M 83.70329284667969 177.49749755859375 C 72.6026611328125 170.80111694335938 64.5067367553711 159.9633026123047 60.315582275390625 147.74166870117188 C 57.5272216796875 138.22642517089844 57.565216064453125 138.211181640625 55.088558197021484 141.28414916992188 C 52.82292938232422 143.02389526367188 52.33839797973633 142.93115234375 52.866939544677734 142.2437744140625 C 53.262874603271484 141.42559814453125 53.78639221191406 140.26461791992188 53.88447952270508 139.5546417236328 C 54.01428985595703 138.99685668945312 56.43544387817383 134.80740356445312 58.97690200805664 130.3778076171875 C 61.7363395690918 125.79776000976562 65.01908874511719 118.28427124023438 66.32490539550781 113.49431610107422 L 68.4781494140625 104.86767578125 L 64.87508392333984 101.64686584472656 C 62.77794647216797 99.95259094238281 60.52984619140625 97.46214294433594 59.840030670166016 96.14852142333984 C 58.863887786865234 94.40972137451172 59.969852447509766 94.44939422607422 62.5904541015625 97.56005096435547 C 65.14399719238281 99.48979187011719 69.14818572998047 102.18451690673828 71.79766845703125 103.01290130615234 C 74.58892059326172 104.48792266845703 75.84457397460938 105.31887817382812 74.77456665039062 106.0590591430664 C 73.99800109863281 106.6707992553711 72.77081298828125 109.43563079833984 71.92314910888672 112.59859466552734 C 71.03128814697266 115.83201599121094 68.78166198730469 121.15515899658203 67.33187866210938 125.24540710449219 C 63.87390899658203 130.88922119140625 63.43301773071289 131.10121154785156 64.69786071777344 137.73609924316406 C 66.61062622070312 150.95947265625 74.35977935791016 163.84481811523438 84.98371887207031 171.46603393554688 C 90.5376968383789 175.6187744140625 91.23750305175781 176.5613250732422 90.3509750366211 178.41281127929688 C 88.87675476074219 181.6939697265625 88.44988250732422 181.3626251220703 83.70329284667969 177.49749755859375" stroke-width="1.0" fill="rgb(90, 80, 82)" opacity="0.9925457"/>
    <path d="M 169.11265563964844 138.26229858398438 C 164.50033569335938 130.8309326171875 160.9571075439453 122.63374328613281 158.3356475830078 114.31440734863281 C 155.51220703125 104.12238311767578 155.69808959960938 103.45207977294922 159.14462280273438 102.05036926269531 C 160.5880584716797 101.37701416015625 163.62245178222656 99.2740249633789 166.09774780273438 97.23845672607422 L 170.27197265625 93.74807739257812 L 172.19418334960938 100.0967025756836 C 175.24838256835938 108.31046295166016 176.8491973876953 118.32492065429688 176.76638793945312 126.97492980957031 C 176.51318359375 134.5549774169922 174.59857177734375 143.01031494140625 172.61764526367188 142.85836791992188 C 172.30992126464844 142.91217041015625 170.6888885498047 140.98313903808594 169.11265563964844 138.26229858398438" stroke-width="1.0" fill="rgb(112, 103, 108)" opacity="0.9745556"/>
    <path d="M 134.09701538085938 85.47945404052734 C 133.4435272216797 85.93762969970703 134.1857452392578 83.70599365234375 135.6480712890625 81.03123474121094 C 136.95144653320312 78.87226867675781 137.98095703125 75.85250854492188 138.17478942871094 74.62799072265625 C 138.27183532714844 72.17414855957031 134.6217041015625 63.844322204589844 132.22930908203125 62.68269348144531 C 130.83895874023438 61.03666687011719 131.11485290527344 60.59467315673828 136.0985107421875 61.705989837646484 C 138.65992736816406 61.215538024902344 141.70419311523438 62.6264762878418 143.10922241210938 64.20787811279297 C 148.5871124267578 68.23419189453125 148.17857360839844 77.74778747558594 143.31307983398438 82.26841735839844 C 140.22341918945312 85.08297729492188 134.7647247314453 86.64596557617188 134.09701538085938 85.47945404052734" stroke-width="1.0" fill="rgb(74, 59, 78)" opacity="0.99775416"/>
    <path d="M 89.88981628417969 82.05469512939453 C 94.31051635742188 77.2490463256836 93.28814697265625 67.6414566040039 87.28765869140625 63.86476516723633 C 84.82962036132812 61.11909866333008 84.90955352783203 61.73299026489258 89.53719329833984 61.2234001159668 C 96.60221099853516 61.27547073364258 101.64793395996094 66.62435913085938 101.60175323486328 74.87849426269531 C 101.98438262939453 79.24625396728516 95.45853424072266 86.04241943359375 90.7680435180664 85.51649475097656 L 87.25872802734375 85.65734100341797 L 89.88981628417969 82.05469512939453" stroke-width="1.0" fill="rgb(74, 59, 77)" opacity="0.9978238"/>
  </g>
</svg>
