<?xml version="1.0" ?>
<svg xmlns="http://www.w3.org/2000/svg" version="1.1" width="224" height="224">
  <defs/>
  <g>
    <path d="M 79.38035583496094 193.0419921875 C 77.96221923828125 192.23007202148438 77.78473663330078 188.67678833007812 77.72354125976562 182.7430419921875 C 78.55567169189453 171.89471435546875 77.18106842041016 165.6704864501953 71.39556884765625 157.1842498779297 C 64.56478881835938 144.08853149414062 59.97268295288086 135.172119140625 52.771690368652344 121.00794982910156 C 47.63630676269531 111.2523422241211 44.21870422363281 104.41476440429688 40.46028137207031 101.14716339111328 C 31.466529846191406 92.3554458618164 28.0 80.08515167236328 30.446449279785156 67.16089630126953 C 32.236572265625 58.00930404663086 35.602394104003906 51.837711334228516 42.78153991699219 43.74866485595703 C 54.162498474121094 33.16584777832031 63.5307502746582 29.730751037597656 85.32679748535156 31.093605041503906 C 94.61967468261719 30.866043090820312 97.4998779296875 31.35338592529297 97.99053955078125 33.21870422363281 C 99.57333374023438 34.40690612792969 99.16429901123047 38.615257263183594 99.41217041015625 109.50282287597656 C 99.74605560302734 151.37246704101562 99.09927368164062 187.41925048828125 98.63721466064453 188.85923767089844 L 98.556640625 193.84768676757812 L 89.419189453125 194.04400634765625 C 83.09809112548828 194.49264526367188 80.20153045654297 194.38211059570312 79.38035583496094 193.0419921875" stroke-width="0.0" fill="rgb(109, 74, 63)" opacity="0.9941012"/>
    <path d="M 125.28361511230469 193.37245178222656 C 125.73951721191406 191.364013671875 126.3167724609375 36.984825134277344 126.40799713134766 34.621826171875 C 128.3579559326172 30.79692840576172 131.76470947265625 30.45391845703125 142.53501892089844 30.960159301757812 C 164.96841430664062 29.507354736328125 176.6826171875 35.29020690917969 187.01956176757812 48.34115219116211 C 192.06655883789062 56.15106201171875 194.28562927246094 61.780517578125 195.5518035888672 71.97016906738281 C 196.0 83.74564361572266 193.3056640625 91.62541961669922 185.74588012695312 100.29873657226562 C 182.32025146484375 103.34190368652344 178.74322509765625 111.10519409179688 175.54403686523438 116.89789581298828 C 172.0570068359375 122.48824310302734 166.79144287109375 132.97454833984375 163.17718505859375 139.8243408203125 C 159.61557006835938 146.1302490234375 154.3705596923828 155.70156860351562 151.48562622070312 160.4158477783203 C 146.89276123046875 168.95770263671875 146.82696533203125 169.59970092773438 147.3131103515625 180.9051055908203 C 147.1585693359375 187.82623291015625 146.72145080566406 191.8363800048828 145.09678649902344 193.3751220703125 C 142.99441528320312 194.1566162109375 128.00941467285156 194.29714965820312 125.28361511230469 193.37245178222656" stroke-width="0.0" fill="rgb(106, 73, 60)" opacity="0.9879606"/>
    <path d="M 61.49507141113281 93.53450012207031 C 48.41099548339844 85.28372955322266 50.14991760253906 61.41300964355469 64.49859619140625 53.40972900390625 C 69.5285873413086 51.18840408325195 71.90971374511719 49.96009063720703 81.48599243164062 49.86014938354492 C 87.72637176513672 50.245140075683594 95.4117431640625 50.27721405029297 98.50404357910156 48.09019088745117 C 105.50881958007812 47.170692443847656 129.55999755859375 46.925376892089844 131.39654541015625 50.24363327026367 C 133.54000854492188 50.42426681518555 133.6129150390625 53.162437438964844 133.7900848388672 61.0891227722168 L 133.47666931152344 71.70738220214844 L 129.20481872558594 75.40082550048828 C 117.42803192138672 86.94264221191406 117.23828887939453 86.949951171875 93.50151062011719 91.0610580444336 C 70.97454833984375 95.90522766113281 66.39006042480469 96.43289947509766 61.49507141113281 93.53450012207031" stroke-width="0.0" fill="rgb(252, 254, 255)" opacity="0.9967711"/>
    <path d="M 97.36393737792969 150.98583984375 C 92.92816162109375 145.27598571777344 91.87374877929688 138.7645721435547 92.09895324707031 117.97306823730469 C 92.28973388671875 104.0798110961914 91.98267364501953 98.53617858886719 90.9917984008789 98.0795669555664 C 90.00862884521484 97.32965087890625 85.53140258789062 96.42601013183594 80.62094116210938 96.85712432861328 C 72.68609619140625 96.63240051269531 71.55374145507812 96.23016357421875 69.62480163574219 93.95375061035156 C 65.13074493408203 88.14363861083984 68.91676330566406 79.02949523925781 77.87830352783203 74.40411376953125 C 89.64442443847656 68.46346282958984 105.44102478027344 72.95228576660156 110.64372253417969 83.80298614501953 C 111.97332000732422 85.76155853271484 112.91272735595703 87.5418930053711 113.33345794677734 87.17121887207031 C 113.53408813476562 86.9903564453125 113.52310943603516 98.67326354980469 113.46273040771484 112.80231475830078 C 113.34698486328125 133.92185974121094 113.14056396484375 140.2807159423828 111.59153747558594 143.61370849609375 C 110.35382843017578 147.87060546875 103.36898803710938 155.09022521972656 101.03816223144531 155.10549926757812 C 100.22775268554688 154.96836853027344 98.62171936035156 153.33575439453125 97.36393737792969 150.98583984375" stroke-width="1.0" fill="rgb(242, 187, 113)" opacity="0.9899669"/>
    <path d="M 119.04492950439453 151.3000030517578 C 112.23432922363281 145.3848114013672 111.76744842529297 143.37344360351562 111.8194808959961 115.01010131835938 C 112.27326965332031 88.261962890625 112.63002014160156 84.56478881835938 117.63304138183594 79.1464614868164 C 125.11669921875 69.96326446533203 143.51060485839844 68.49835968017578 152.274169921875 76.67841339111328 C 157.86599731445312 82.29676818847656 158.8277587890625 89.63404083251953 154.58766174316406 94.30482482910156 C 152.3463134765625 96.58071899414062 151.5425262451172 96.80978393554688 144.01564025878906 96.5911865234375 C 138.37326049804688 96.52735137939453 135.1317901611328 97.0311279296875 133.9276123046875 97.97247314453125 C 133.1434783935547 98.57855987548828 132.9221649169922 107.6793212890625 132.9667510986328 120.46073913574219 L 132.56109619140625 142.46087646484375 L 129.2862091064453 148.32315063476562 C 127.5839614868164 151.18870544433594 125.59845733642578 154.3504638671875 124.74815368652344 154.7153778076172 C 123.82415008544922 154.89337158203125 121.46810150146484 153.51336669921875 119.04492950439453 151.3000030517578" stroke-width="1.0" fill="rgb(246, 165, 74)" opacity="0.99797696"/>
    <path d="M 155.3165740966797 93.87788391113281 C 157.20669555664062 90.90357208251953 157.2393035888672 85.62377166748047 155.45936584472656 82.17597198486328 C 151.99002075195312 75.69117736816406 145.09420776367188 71.9577407836914 136.0873260498047 71.87196350097656 L 130.863037109375 72.12336730957031 L 130.72093200683594 49.682525634765625 L 142.22787475585938 49.98284912109375 C 155.19122314453125 49.951324462890625 159.13414001464844 50.883140563964844 164.5984649658203 56.087581634521484 C 178.92967224121094 69.48092651367188 173.23629760742188 95.72557067871094 156.22137451171875 95.93805694580078 C 153.92588806152344 95.80867767333984 153.9273681640625 95.97599792480469 155.3165740966797 93.87788391113281" stroke-width="1.0" fill="rgb(227, 76, 70)" opacity="0.9689128"/>
    <path d="M 98.5506820678711 174.440673828125 C 98.67338562011719 155.1250762939453 98.8104476928711 154.41116333007812 100.84835815429688 153.8744659423828 C 103.94842529296875 152.83236694335938 109.11953735351562 147.77197265625 110.8703842163086 144.38583374023438 C 112.26300048828125 140.69241333007812 112.95318603515625 140.68618774414062 114.86963653564453 144.42860412597656 C 115.97318267822266 147.6879119873047 123.07063293457031 154.31056213378906 125.51101684570312 154.3649139404297 C 126.31475067138672 154.32669067382812 126.6668472290039 158.50527954101562 126.52265930175781 174.24783325195312 L 126.87142944335938 194.17236328125 L 98.61451721191406 194.1834716796875 L 98.5506820678711 174.440673828125" stroke-width="1.0" fill="rgb(224, 83, 75)" opacity="0.9960617"/>
  </g>
</svg>
