<?xml version="1.0" ?>
<svg xmlns="http://www.w3.org/2000/svg" version="1.1" width="224" height="224">
  <defs/>
  <g>
    <path d="M 100.58335876464844 76.63139343261719 C 91.0572280883789 70.70809936523438 90.95683288574219 71.07496643066406 91.82099914550781 69.1456527709961 C 91.91841888427734 65.4454574584961 90.54713439941406 63.86193084716797 86.53141784667969 63.11749267578125 C 85.28968048095703 62.62596130371094 83.96704864501953 60.99351501464844 84.41666412353516 57.95075607299805 C 83.31993103027344 56.94342041015625 82.75528717041016 57.60388946533203 71.97488403320312 55.89689254760742 C 64.96037292480469 55.11119079589844 60.21709060668945 54.042484283447266 58.61176681518555 53.41459274291992 C 57.890953063964844 51.4909782409668 68.96348571777344 42.39881896972656 79.73123168945312 37.51457214355469 C 90.69316101074219 32.63768768310547 97.57415008544922 30.72882080078125 110.46295928955078 30.25140380859375 C 122.332275390625 30.657798767089844 126.35604858398438 31.88001251220703 135.13336181640625 34.61773681640625 C 143.1013641357422 37.43266296386719 149.08404541015625 40.21856689453125 156.0379638671875 45.71623229980469 C 161.4822998046875 51.19875717163086 163.37646484375 52.795867919921875 163.59490966796875 53.838096618652344 C 161.6560516357422 53.788108825683594 157.67709350585938 54.768489837646484 152.1591796875 55.365638732910156 C 135.47906494140625 57.95086669921875 137.06109619140625 56.73619842529297 137.6968231201172 59.355838775634766 C 138.16729736328125 61.70049285888672 137.74090576171875 62.33229446411133 134.56784057617188 62.288856506347656 C 131.13113403320312 64.19634246826172 129.4131317138672 66.17487335205078 129.73480224609375 68.468017578125 C 129.89564514160156 71.3924560546875 128.46697998046875 72.58737182617188 121.01272583007812 77.50690460205078 C 110.43850708007812 81.5062026977539 109.61600494384766 81.53631591796875 100.58335876464844 76.63139343261719" stroke-width="0.0" fill="rgb(48, 166, 250)" opacity="0.9955667"/>
    <path d="M 68.81622314453125 81.72210693359375 C 68.7789535522461 79.47928619384766 73.77969360351562 74.07196044921875 76.21363830566406 74.08454132080078 C 77.83621215820312 74.13703918457031 76.36115264892578 78.53546905517578 74.31925964355469 80.55661010742188 C 69.69662475585938 84.41094970703125 69.01900482177734 84.60061645507812 68.81622314453125 81.72210693359375" stroke-width="1.0" fill="rgb(249, 219, 188)" opacity="0.9637825"/>
    <path d="M 147.4937744140625 80.4405746459961 C 143.88494873046875 76.78898620605469 143.59555053710938 72.6115951538086 147.1263427734375 74.5135498046875 C 151.54931640625 76.96372985839844 152.87974548339844 78.87100219726562 152.874267578125 81.5650634765625 C 152.8761749267578 85.47183990478516 151.59803771972656 85.19245910644531 147.4937744140625 80.4405746459961" stroke-width="1.0" fill="rgb(251, 221, 191)" opacity="0.96530575"/>
    <path d="M 35.938697814941406 145.19573974609375 C 32.916351318359375 140.26837158203125 28.226036071777344 122.20621490478516 28.4267578125 113.86817932128906 C 28.0 100.67250061035156 32.46826934814453 83.11412811279297 38.84375 72.74484252929688 C 40.453468322753906 68.8078384399414 43.02964782714844 66.60650634765625 44.29261016845703 67.01707458496094 C 44.829185485839844 67.53182983398438 47.975555419921875 68.29649353027344 51.28956604003906 69.00360107421875 C 54.958152770996094 69.64604187011719 58.038597106933594 70.42494201660156 58.82411575317383 70.52951049804688 C 58.81603240966797 71.56204223632812 59.30512237548828 73.1678695678711 59.0134391784668 74.90895080566406 C 59.03975296020508 78.82376098632812 60.89634323120117 80.49297332763672 65.49208068847656 80.58580780029297 C 69.12016296386719 80.66690063476562 69.46725463867188 80.90682220458984 69.43611145019531 83.01090240478516 C 69.93292236328125 87.67839813232422 71.89237976074219 88.94319915771484 77.47811889648438 88.0748062133789 C 82.2512435913086 87.18013000488281 81.64313507080078 87.05609893798828 82.05398559570312 91.98170471191406 C 83.1963882446289 93.49334716796875 84.19234466552734 94.16365814208984 86.76264953613281 94.69660949707031 C 91.13502502441406 95.91128540039062 91.15509796142578 95.7740249633789 90.1585693359375 98.22865295410156 C 88.7993392944336 101.37699127197266 65.32364654541016 140.41395568847656 62.84874725341797 143.96530151367188 L 60.87841033935547 146.6163787841797 L 48.84162139892578 146.5149383544922 C 37.02159118652344 147.13970947265625 36.52870178222656 147.1793212890625 35.938697814941406 145.19573974609375" stroke-width="0.0" fill="rgb(157, 215, 253)" opacity="0.9848053"/>
    <path d="M 96.97932434082031 191.94703674316406 C 74.62718200683594 188.00186157226562 54.228763580322266 174.15158081054688 41.44309997558594 154.7567901611328 C 35.859397888183594 146.51168823242188 35.64887237548828 145.82305908203125 42.94541931152344 145.9228973388672 C 45.788352966308594 145.720947265625 79.49610137939453 145.0491485595703 117.25574493408203 145.47048950195312 L 185.46978759765625 144.36541748046875 L 184.41319274902344 146.88795471191406 C 184.21136474609375 149.69525146484375 177.72232055664062 159.35888671875 170.85960388183594 166.61392211914062 C 158.15988159179688 180.19549560546875 139.9230194091797 190.05929565429688 122.03816223144531 192.33456420898438 C 113.86344909667969 193.74859619140625 104.4861831665039 193.346923828125 96.97932434082031 191.94703674316406" stroke-width="0.0" fill="rgb(48, 165, 250)" opacity="0.9919191"/>
    <path d="M 72.31370544433594 167.56060791015625 C 71.41165161132812 165.8231201171875 71.11593627929688 165.206298828125 72.13899230957031 163.3480224609375 C 73.68148040771484 161.505615234375 74.79417419433594 160.80043029785156 73.91403198242188 159.74908447265625 C 72.53955078125 158.8746795654297 72.48518371582031 153.29440307617188 74.18138122558594 138.01644897460938 C 76.18885040283203 118.9163818359375 76.33302307128906 116.98639678955078 78.82341003417969 112.22521209716797 C 80.25154113769531 109.8399429321289 83.4385757446289 105.52330017089844 85.9004898071289 102.85364532470703 C 88.97257232666016 99.61414337158203 90.28903198242188 97.79710388183594 89.23588562011719 95.4528579711914 C 89.3631591796875 94.31511688232422 90.61456298828125 92.45784759521484 92.07124328613281 91.80996704101562 C 93.90583038330078 88.61199188232422 94.11492919921875 88.29859161376953 91.46041107177734 85.31427001953125 C 88.76483154296875 82.14213562011719 88.85362243652344 79.60150146484375 90.63270568847656 72.90428161621094 C 92.65126037597656 66.99601745605469 91.85122680664062 64.68212127685547 87.96482849121094 63.5491943359375 C 84.45353698730469 62.79917907714844 82.2735595703125 60.81759262084961 83.24897003173828 59.178165435791016 C 84.0361099243164 57.262939453125 89.38462829589844 58.189239501953125 93.4673843383789 60.15268325805664 C 96.21831512451172 61.40719985961914 97.67877197265625 62.729373931884766 98.81592559814453 65.05555725097656 C 99.32304382324219 67.23995971679688 99.99543762207031 69.08543395996094 100.13792419433594 69.731689453125 C 100.10541534423828 70.73780059814453 100.46973419189453 72.54413604736328 101.36827087402344 74.44688415527344 C 103.98199462890625 79.21726989746094 108.44559478759766 81.40150451660156 113.34374237060547 79.8950424194336 C 117.49124145507812 79.12663269042969 120.41838073730469 75.70330810546875 121.14130401611328 68.34967803955078 C 121.88726806640625 63.40579605102539 126.27194213867188 59.59703826904297 130.87232971191406 58.91169738769531 C 138.71417236328125 56.42428970336914 142.0297393798828 60.65679931640625 135.31895446777344 63.29011535644531 C 129.72756958007812 64.37002563476562 128.9148712158203 66.12736511230469 131.19683837890625 72.99032592773438 C 133.0569610595703 79.54329681396484 133.1390838623047 80.52519226074219 130.6780548095703 84.70062255859375 C 127.9798812866211 88.19725036621094 127.90093994140625 89.53817749023438 129.4664764404297 91.18414306640625 C 132.5531768798828 93.07988739013672 130.803955078125 96.71196746826172 122.13150787353516 116.54356384277344 C 112.67036437988281 136.16305541992188 108.87794494628906 141.82327270507812 97.59258270263672 152.55062866210938 C 90.18830871582031 159.03878784179688 79.48826599121094 167.16586303710938 76.49923706054688 167.3673553466797 C 74.41348266601562 168.3227081298828 73.22801971435547 168.16847229003906 72.31370544433594 167.56060791015625" stroke-width="0.0" fill="rgb(254, 199, 124)" opacity="0.9943807"/>
    <path d="M 99.89091491699219 170.26866149902344 C 93.38810729980469 169.13400268554688 90.4146957397461 168.26931762695312 90.25466918945312 166.74049377441406 C 90.47187805175781 164.36573791503906 95.79679107666016 154.36062622070312 98.09716796875 151.76927185058594 C 99.50749206542969 150.42019653320312 100.47701263427734 148.71322631835938 100.4505844116211 148.3913116455078 C 100.51260375976562 147.45022583007812 102.99882507324219 143.97012329101562 107.03047943115234 142.24560546875 C 114.64691162109375 134.12957763671875 116.74150085449219 129.94183349609375 117.4729995727539 120.89290618896484 C 115.32345581054688 116.4168930053711 115.63325500488281 114.03214263916016 116.58454895019531 111.18114471435547 C 118.73545837402344 107.44876861572266 126.69308471679688 96.06510162353516 128.22998046875 94.40252685546875 C 130.8872528076172 94.96994018554688 133.25054931640625 96.13697052001953 144.0399627685547 100.7609634399414 C 151.59059143066406 105.38646697998047 159.67623901367188 108.58287048339844 161.4005126953125 108.94213104248047 C 161.64096069335938 114.27818298339844 163.02500915527344 118.82879638671875 167.33428955078125 126.86687469482422 C 165.6880645751953 137.93545532226562 162.70831298828125 144.23526000976562 155.51145935058594 153.09266662597656 C 149.4838409423828 159.60858154296875 141.27577209472656 165.05047607421875 128.73875427246094 168.8077850341797 C 122.52816009521484 171.14236450195312 105.85599517822266 171.984619140625 99.89091491699219 170.26866149902344" stroke-width="0.0" fill="rgb(60, 111, 207)" opacity="1.0"/>
    <path d="M 68.91561889648438 155.96559143066406 C 57.55710220336914 144.569091796875 53.86164093017578 126.01022338867188 60.52428436279297 114.09122467041016 C 64.51744079589844 106.21369171142578 73.04025268554688 108.1547622680664 74.85552978515625 117.29627227783203 L 75.49444580078125 119.86836242675781 L 78.30648040771484 113.43574523925781 C 80.99752044677734 107.36425018310547 89.99183654785156 96.26980590820312 92.15977478027344 96.29667663574219 C 92.87124633789062 96.02985382080078 93.19642639160156 96.89351654052734 93.43412780761719 97.48049926757812 C 93.52108764648438 98.64859771728516 94.76068878173828 100.97615814208984 95.8851089477539 104.39569854736328 C 101.07242584228516 114.6085205078125 98.42182159423828 123.48057556152344 86.10379791259766 136.58804321289062 C 77.29434967041016 144.57049560546875 75.21891021728516 147.94801330566406 75.74993896484375 151.58448791503906 C 75.8902587890625 153.45907592773438 76.32093811035156 153.88414001464844 79.03812408447266 153.54910278320312 L 82.01911926269531 153.51211547851562 L 78.62325286865234 157.17152404785156 C 76.79859161376953 159.05429077148438 74.95027923583984 160.55520629882812 74.68455505371094 160.537841796875 C 74.30691528320312 160.57118225097656 71.76144409179688 158.4581298828125 68.91561889648438 155.96559143066406" stroke-width="1.0" fill="rgb(61, 113, 208)" opacity="0.9951249"/>
    <path d="M 78.61145782470703 167.02284240722656 C 78.72714233398438 165.97564697265625 79.97118377685547 164.31568908691406 82.73079681396484 163.1502227783203 C 92.32330322265625 156.5772705078125 99.17118835449219 151.03904724121094 99.57815551757812 148.6157684326172 C 98.64033508300781 147.4395294189453 100.86715698242188 144.2183380126953 104.57161712646484 142.2989501953125 C 111.33023071289062 136.20147705078125 113.65545654296875 132.67393493652344 114.93146514892578 126.95162963867188 C 116.38496398925781 119.9874267578125 113.67800903320312 113.84527587890625 110.1801528930664 110.19741821289062 C 106.02767944335938 106.76351165771484 106.00730895996094 105.60795593261719 112.26441955566406 106.56987762451172 C 117.31684112548828 106.21448516845703 117.69937896728516 105.991943359375 120.88428497314453 102.76119995117188 C 123.2560043334961 99.7947769165039 123.52070617675781 98.83380889892578 124.63934326171875 93.65792083740234 C 124.9918441772461 90.29866790771484 126.49007415771484 88.91020965576172 127.9381103515625 89.97852325439453 C 128.85858154296875 90.59215545654297 129.1143798828125 91.99948120117188 127.98141479492188 95.40188598632812 C 127.9980239868164 98.7989501953125 127.20822143554688 101.11388397216797 124.22146606445312 104.39521026611328 C 121.08732604980469 106.11368560791016 118.75112915039062 107.77550506591797 118.34092712402344 108.01361846923828 C 118.95528411865234 109.25780487060547 120.17317199707031 110.10427856445312 121.2197265625 111.70084381103516 C 122.64909362792969 113.9815673828125 123.8393325805664 115.44847106933594 124.33602905273438 116.33773803710938 C 123.84306335449219 120.93982696533203 121.43278503417969 132.2428741455078 119.71138763427734 136.2033233642578 C 116.19434356689453 140.6295623779297 95.68795776367188 161.0323944091797 89.12859344482422 165.19949340820312 C 82.81998443603516 169.16587829589844 78.75473022460938 170.2497100830078 78.61145782470703 167.02284240722656" stroke-width="0.0" fill="rgb(252, 164, 77)" opacity="1.0"/>
    <path d="M 161.18133544921875 145.54727172851562 C 160.92361450195312 145.79592895507812 161.43612670898438 144.03126525878906 161.97360229492188 142.47328186035156 C 163.12039184570312 139.70729064941406 164.09896850585938 136.5876007080078 164.6171875 128.78054809570312 C 163.742919921875 119.389892578125 163.60919189453125 118.3917465209961 161.7694549560547 115.10027313232422 C 160.82736206054688 112.9446029663086 158.99014282226562 110.88896179199219 158.4271240234375 109.90763092041016 C 154.12216186523438 107.69257354736328 149.7972869873047 109.70557403564453 147.3928680419922 114.58219146728516 C 146.7830810546875 116.45052337646484 146.32427978515625 117.77913665771484 145.57415771484375 118.49498748779297 C 144.9517059326172 117.89405822753906 144.57345581054688 115.66554260253906 143.6453399658203 113.01093292236328 C 142.6486358642578 110.48625946044922 139.5863494873047 106.08809661865234 137.0362548828125 103.02313995361328 C 134.234375 99.87315368652344 131.70042419433594 97.7260971069336 130.81553649902344 97.06318664550781 C 131.48550415039062 95.90431213378906 133.50863647460938 94.96026611328125 135.64256286621094 95.37552642822266 C 139.050537109375 93.84326934814453 140.31182861328125 91.81076049804688 140.0185546875 88.4462661743164 C 139.93739318847656 86.89051818847656 140.52386474609375 86.28495788574219 144.96572875976562 88.41127014160156 C 150.27833557128906 88.89264678955078 152.5413360595703 87.4460678100586 152.8789825439453 82.8948974609375 C 152.84454345703125 79.61898803710938 153.1908416748047 79.49478912353516 156.53956604003906 81.04840087890625 C 161.37074279785156 80.67982482910156 163.8401336669922 78.02650451660156 163.45333862304688 73.72879028320312 L 163.3341064453125 70.22738647460938 L 170.04055786132812 69.15498352050781 C 178.03952026367188 66.66082000732422 180.15304565429688 66.39439392089844 180.9752655029297 68.3714599609375 C 181.11666870117188 68.83773803710938 182.61688232421875 77.13317108154297 184.36053466796875 86.62530517578125 C 187.7844696044922 105.98029327392578 188.78424072265625 114.62523651123047 187.08517456054688 126.30802917480469 C 184.24948120117188 135.44996643066406 181.36813354492188 142.9611053466797 179.89797973632812 145.22796630859375 C 178.79359436035156 145.9873809814453 161.88182067871094 146.43289184570312 161.18133544921875 145.54727172851562" stroke-width="0.0" fill="rgb(157, 214, 252)" opacity="1.0"/>
    <path d="M 89.16996002197266 97.47648620605469 C 89.1970443725586 96.205078125 90.28053283691406 95.04996490478516 91.57418060302734 94.38441467285156 C 92.68708801269531 93.90238952636719 93.66516876220703 94.3705062866211 93.63714599609375 95.57357788085938 C 93.63931274414062 96.7311782836914 92.78157043457031 98.07867431640625 91.43569946289062 98.70813751220703 C 90.1371078491211 99.12184143066406 89.16162872314453 98.64948272705078 89.16996002197266 97.47648620605469" stroke-width="1.0" fill="rgb(95, 142, 229)" opacity="0.95054793"/>
    <path d="M 106.50931549072266 148.87298583984375 C 106.66484832763672 148.2720947265625 108.91313934326172 145.8599395751953 111.82364654541016 143.82489013671875 C 122.96320343017578 133.73703002929688 124.29167938232422 120.1463394165039 115.5613784790039 110.56244659423828 C 112.40559387207031 106.86336517333984 112.41704559326172 106.74795532226562 114.54048919677734 107.06086730957031 C 115.611328125 106.71424865722656 116.58348846435547 107.15361785888672 116.58516693115234 107.6827621459961 C 116.58348846435547 108.1319580078125 117.07001495361328 108.45271301269531 117.64530181884766 108.37123107910156 C 119.2562255859375 108.37260437011719 122.52825164794922 112.15853118896484 124.22053527832031 115.90191650390625 C 126.10855865478516 119.10503387451172 127.08470153808594 129.52334594726562 125.6989517211914 129.39010620117188 C 125.27325439453125 129.4556427001953 125.14012145996094 130.0899658203125 125.40819549560547 130.6895294189453 C 125.7114486694336 132.12353515625 122.41378784179688 139.14346313476562 120.90585327148438 139.9390106201172 C 120.42022705078125 140.19775390625 120.15242004394531 140.4966278076172 120.19710540771484 140.72607421875 C 120.45153045654297 141.13613891601562 119.68561553955078 142.24058532714844 118.33349609375 143.03509521484375 C 117.49932098388672 144.24948120117188 116.60289764404297 144.63873291015625 116.63622283935547 144.42149353027344 C 116.91096496582031 144.20558166503906 116.22314453125 144.6468505859375 115.56834411621094 145.68006896972656 C 114.89739990234375 146.744140625 113.96548461914062 147.2873992919922 113.35447692871094 147.0381622314453 C 113.00801849365234 146.83143615722656 112.87470245361328 147.2421875 112.84857177734375 147.32579040527344 C 112.6429672241211 147.74935913085938 112.4496841430664 148.14881896972656 111.74446105957031 147.81790161132812 C 111.47605895996094 147.72146606445312 111.36591339111328 147.8400421142578 111.43645477294922 148.17152404785156 C 110.9161605834961 148.642578125 110.75933074951172 148.81690979003906 110.06316375732422 148.5107421875 C 109.92965698242188 148.7439727783203 109.71328735351562 148.8772430419922 109.7072525024414 149.09451293945312 C 109.37276458740234 149.3349609375 108.84164428710938 149.7458953857422 107.64409637451172 149.5399169921875 C 106.8145523071289 149.86033630371094 106.40718841552734 149.39605712890625 106.50931549072266 148.87298583984375" stroke-width="1.0" fill="rgb(252, 136, 39)" opacity="0.998509"/>
    <path d="M 184.76385498046875 146.63369750976562 C 184.96920776367188 145.65054321289062 181.7340087890625 145.56893920898438 173.6483154296875 145.98666381835938 C 163.1595916748047 146.02378845214844 162.92166137695312 145.95083618164062 170.93170166015625 145.74478149414062 L 179.59507751464844 145.04489135742188 L 182.08111572265625 137.8853302001953 C 190.3109130859375 114.37728881835938 188.1156005859375 90.99347686767578 174.95382690429688 71.72396087646484 C 172.85214233398438 68.55953979492188 173.2099151611328 68.11305236816406 177.7505340576172 67.5625 C 179.79473876953125 67.54350280761719 180.5159912109375 68.08944702148438 183.7971954345703 73.9412841796875 C 193.24276733398438 90.8578109741211 196.0 111.64862823486328 191.33999633789062 129.5174560546875 C 189.88906860351562 135.54225158691406 185.02256774902344 148.00889587402344 184.76385498046875 146.63369750976562" stroke-width="1.0" fill="rgb(105, 190, 248)" opacity="0.99510854"/>
  </g>
</svg>
