<?xml version="1.0" ?>
<svg xmlns="http://www.w3.org/2000/svg" version="1.1" width="224" height="224">
  <defs/>
  <g>
    <path d="M 31.89330291748047 135.74647521972656 C 28.152572631835938 129.99815368652344 28.0 104.88609313964844 30.723106384277344 96.17552185058594 C 35.606849670410156 78.68522644042969 42.068450927734375 67.87739562988281 53.574615478515625 56.12207794189453 C 66.59811401367188 44.36284637451172 76.1661376953125 38.239845275878906 93.91242218017578 34.21741485595703 C 109.52818298339844 30.17571258544922 109.55595397949219 29.810935974121094 109.07951354980469 68.58078002929688 C 109.47566223144531 84.7139663696289 108.84204864501953 99.57420349121094 107.95274353027344 100.58299255371094 C 106.05135345458984 104.532470703125 38.41380310058594 140.99957275390625 34.17650604248047 141.66311645507812 C 33.45619201660156 140.86776733398438 31.622772216796875 138.4976806640625 31.89330291748047 135.74647521972656" stroke-width="0.0" fill="rgb(255, 232, 96)" opacity="0.9933681"/>
    <path d="M 103.82875061035156 117.0195083618164 L 103.54669189453125 101.79121398925781 L 148.8630828857422 101.54432678222656 L 195.05020141601562 101.92868041992188 L 195.6509552001953 109.94122314453125 C 196.0 114.79769897460938 195.6226806640625 120.83069610595703 195.12916564941406 124.90228271484375 L 194.29893493652344 132.5166473388672 L 103.7696304321289 133.19586181640625 L 103.82875061035156 117.0195083618164" stroke-width="1.0" fill="rgb(49, 168, 255)" opacity="0.98659295"/>
    <path d="M 85.57342529296875 190.33865356445312 C 71.7843017578125 185.67718505859375 60.6265983581543 179.37469482421875 52.42991638183594 170.4891357421875 C 44.66631317138672 163.64431762695312 44.6141357421875 161.3895263671875 53.51021957397461 149.19174194335938 C 62.674678802490234 137.93612670898438 75.14433288574219 131.75027465820312 92.5301742553711 130.0299072265625 C 99.93524932861328 129.86691284179688 106.35322570800781 129.94610595703125 106.51689910888672 130.28392028808594 C 106.96632385253906 130.5606689453125 107.57191467285156 144.8393096923828 107.15021514892578 162.5578155517578 L 107.10738372802734 194.12847900390625 L 102.04045104980469 194.16998291015625 C 99.04535675048828 194.11874389648438 91.67058563232422 192.44329833984375 85.57342529296875 190.33865356445312" stroke-width="1.0" fill="rgb(250, 152, 193)" opacity="0.9906387"/>
    <path d="M 105.77837371826172 85.50591278076172 L 105.7497787475586 70.18901824951172 L 144.57395935058594 70.19961547851562 L 182.675537109375 70.63349914550781 L 185.63507080078125 76.5558090209961 C 188.93157958984375 82.49032592773438 194.37088012695312 98.5261459350586 194.4673309326172 100.5361328125 C 194.70130920410156 101.20555114746094 174.53475952148438 102.08047485351562 150.23458862304688 101.86485290527344 L 105.50965881347656 101.78496551513672 L 105.77837371826172 85.50591278076172" stroke-width="1.0" fill="rgb(97, 216, 116)" opacity="0.9875009"/>
    <path d="M 40.97112274169922 155.8904266357422 C 34.23102569580078 145.16380310058594 33.713897705078125 142.94564819335938 38.65101623535156 135.77310180664062 C 48.96104431152344 118.40473175048828 72.97393798828125 104.42984008789062 93.9432373046875 102.97876739501953 L 105.64905548095703 102.31835174560547 L 105.46954345703125 131.4577178955078 L 93.74754333496094 131.97010803222656 C 87.30694580078125 132.38681030273438 78.71829223632812 134.0268096923828 74.50398254394531 136.07460021972656 C 65.25325012207031 139.7484588623047 54.73942565917969 149.80978393554688 50.93067932128906 157.71365356445312 C 48.65041732788086 160.75442504882812 46.844810485839844 163.9229736328125 46.58897018432617 163.4149627685547 C 46.45925521850586 163.51417541503906 43.95063781738281 159.97906494140625 40.97112274169922 155.8904266357422" stroke-width="1.0" fill="rgb(251, 230, 203)" opacity="1.0"/>
    <path d="M 105.63938903808594 148.34474182128906 L 105.70220947265625 132.7820281982422 L 149.70706176757812 132.89370727539062 C 173.8389434814453 132.50103759765625 193.3919677734375 132.6982421875 193.70770263671875 132.74746704101562 C 193.73756408691406 135.6337890625 188.0161895751953 148.98345947265625 184.10772705078125 155.28224182128906 L 179.2235107421875 162.92880249023438 L 105.93180084228516 163.44847106933594 L 105.63938903808594 148.34474182128906" stroke-width="1.0" fill="rgb(185, 113, 213)" opacity="0.98797137"/>
    <path d="M 105.85967254638672 51.044189453125 L 105.97271728515625 31.903099060058594 L 117.45048522949219 32.551979064941406 C 131.6402130126953 33.722198486328125 145.55899047851562 38.49872589111328 157.35720825195312 46.21050262451172 C 165.8675994873047 52.1800537109375 181.25360107421875 67.23507690429688 181.002685546875 69.97113037109375 C 181.55026245117188 70.72639465332031 164.58238220214844 71.4617919921875 143.69931030273438 71.23735046386719 L 105.72293090820312 70.40011596679688 L 105.85967254638672 51.044189453125" stroke-width="1.0" fill="rgb(201, 212, 40)" opacity="0.99549466"/>
    <path d="M 105.69497680664062 178.9932861328125 L 105.65531921386719 163.61801147460938 L 179.1107177734375 163.21755981445312 L 172.19027709960938 170.36477661132812 C 158.25953674316406 184.92361450195312 135.91102600097656 194.18907165527344 115.49766540527344 194.130615234375 L 105.46839904785156 194.17333984375 L 105.69497680664062 178.9932861328125" stroke-width="1.0" fill="rgb(230, 100, 174)" opacity="0.99439305"/>
  </g>
</svg>
