<?xml version="1.0" ?>
<svg xmlns="http://www.w3.org/2000/svg" version="1.1" width="224" height="224">
  <defs/>
  <g>
    <path d="M 71.12134552001953 194.00115966796875 C 65.27701568603516 190.47129821777344 64.06652069091797 184.61224365234375 68.58531951904297 179.87124633789062 C 70.17037200927734 178.9029998779297 71.48615264892578 177.85055541992188 71.41035461425781 177.10818481445312 C 72.08595275878906 177.25045776367188 70.27609252929688 176.8743896484375 68.15678405761719 175.93319702148438 C 62.26741409301758 173.53811645507812 54.703487396240234 167.8846435546875 51.359615325927734 163.31167602539062 C 44.63810729980469 154.75686645507812 41.33917999267578 144.98951721191406 42.18809509277344 132.9642333984375 C 43.11260223388672 123.40817260742188 45.348487854003906 109.24675750732422 47.99881362915039 101.45431518554688 C 53.294403076171875 84.37718963623047 68.52935791015625 63.404388427734375 77.43667602539062 58.91294860839844 C 80.36165618896484 58.426666259765625 80.04483032226562 58.288394927978516 80.14022827148438 54.92113494873047 L 79.81893920898438 50.818939208984375 L 72.53483581542969 46.67816925048828 C 63.24383544921875 41.225074768066406 61.79248809814453 40.492286682128906 61.52824401855469 35.744834899902344 C 61.8431510925293 33.60382843017578 62.81748580932617 32.37610626220703 64.66444396972656 30.315994262695312 L 69.40815734863281 28.0 L 153.6502685546875 28.005889892578125 L 158.30087280273438 30.287582397460938 C 160.11578369140625 32.677955627441406 161.04571533203125 33.57684326171875 161.44126892089844 35.66075134277344 C 161.358154296875 37.85149383544922 160.8523406982422 39.58960723876953 160.17626953125 40.48170471191406 C 159.9384307861328 41.360252380371094 155.75698852539062 43.91590881347656 151.0524139404297 46.32765197753906 L 142.62481689453125 50.9234619140625 L 142.83843994140625 54.350425720214844 C 141.965087890625 58.576297760009766 141.92971801757812 58.09041976928711 145.54058837890625 59.10333251953125 C 149.32196044921875 60.92757034301758 157.4112548828125 69.45913696289062 162.24038696289062 77.013671875 C 167.58497619628906 84.32060241699219 173.51119995117188 96.87403106689453 175.78732299804688 104.57960510253906 C 180.08592224121094 119.68011474609375 182.66082763671875 138.78761291503906 179.63278198242188 146.8048095703125 C 176.07794189453125 159.72801208496094 167.65780639648438 169.6468505859375 156.3435821533203 175.57008361816406 C 151.52117919921875 177.7355499267578 150.52125549316406 178.21975708007812 153.02285766601562 179.26065063476562 C 154.2384490966797 179.8068084716797 157.69021606445312 183.8837890625 156.9518585205078 187.27685546875 C 156.38807678222656 187.9954833984375 156.16519165039062 189.95132446289062 155.13522338867188 191.17813110351562 C 150.87545776367188 196.0 152.1447296142578 195.22836303710938 111.79473114013672 195.21701049804688 C 75.18099975585938 195.19110107421875 73.42462158203125 195.64215087890625 71.12134552001953 194.00115966796875" stroke-width="1.0" fill="rgb(4, 4, 4)" opacity="0.9847421"/>
    <path d="M 73.29193878173828 189.74993896484375 C 69.81459045410156 186.8910369873047 70.33506774902344 183.36790466308594 73.1919174194336 182.60665893554688 C 73.85015869140625 182.38824462890625 76.120849609375 182.1263427734375 77.73509216308594 181.74624633789062 C 81.31866455078125 181.59564208984375 82.50407409667969 181.53634643554688 83.09088897705078 182.2047119140625 C 82.82135772705078 183.39315795898438 83.42594146728516 185.360107421875 83.87882232666016 186.00665283203125 L 86.35330963134766 187.99310302734375 L 136.3367919921875 188.0216827392578 L 138.6367950439453 186.44570922851562 C 139.3973846435547 185.8304901123047 139.81719970703125 183.96286010742188 139.29209899902344 183.08563232421875 C 139.87416076660156 181.97967529296875 141.02114868164062 181.75192260742188 144.28082275390625 181.5406951904297 C 150.4781951904297 181.580078125 153.99139404296875 184.89805603027344 149.77749633789062 189.76084899902344 C 149.15618896484375 189.8627471923828 73.39599609375 189.89886474609375 73.29193878173828 189.74993896484375" stroke-width="1.0" fill="rgb(239, 241, 241)" opacity="0.9719066"/>
    <path d="M 78.51870727539062 164.49505615234375 C 74.90410614013672 158.6844482421875 71.55897521972656 151.20428466796875 70.11862182617188 145.28627014160156 C 66.94148254394531 135.06881713867188 68.18499755859375 130.1028594970703 70.1102294921875 139.5255889892578 C 71.57794189453125 147.97731018066406 76.24005126953125 149.03805541992188 80.36701965332031 145.15895080566406 C 82.31901550292969 142.80572509765625 82.51758575439453 142.47581481933594 82.16697692871094 133.11537170410156 L 82.2551498413086 125.82858276367188 L 85.6473388671875 125.71831512451172 C 87.05546569824219 125.5927734375 86.41569519042969 125.32319641113281 86.88422393798828 130.10623168945312 C 87.00152587890625 141.22390747070312 90.14409637451172 155.96762084960938 94.9356460571289 163.2618408203125 C 96.23128509521484 165.641357421875 97.89359283447266 167.1848602294922 98.61134338378906 168.8388671875 C 97.92916870117188 168.88771057128906 94.03219604492188 168.39109802246094 89.66093444824219 168.4748077392578 L 81.40608978271484 168.49771118164062 L 78.51870727539062 164.49505615234375" stroke-width="1.0" fill="rgb(247, 248, 248)" opacity="1.0"/>
    <path d="M 101.50454711914062 164.29837036132812 C 95.32331085205078 154.38848876953125 92.60330200195312 145.47500610351562 91.9143295288086 123.9049301147461 C 92.24072265625 114.70306396484375 91.40826416015625 106.30015563964844 90.22184753417969 103.85592651367188 C 88.65386962890625 96.95472717285156 86.3746337890625 99.53461456298828 111.67030334472656 98.940185546875 C 136.43984985351562 99.63566589355469 133.1470947265625 96.3962173461914 131.27879333496094 105.6578598022461 C 130.11166381835938 109.96284484863281 130.0298309326172 116.50294494628906 130.1356201171875 122.85569763183594 C 129.96485900878906 141.63330078125 127.06366729736328 154.2735595703125 121.27816009521484 163.57957458496094 C 118.39981079101562 168.11647033691406 117.36830139160156 169.6978302001953 114.51509094238281 168.18385314941406 C 114.77066802978516 167.2246856689453 115.58821868896484 166.6382598876953 116.59736633300781 165.4979705810547 C 117.62843322753906 164.93141174316406 118.48426055908203 163.42723083496094 118.7903060913086 162.28842163085938 C 120.623046875 157.7215576171875 114.46149444580078 152.064697265625 110.03948974609375 153.23471069335938 C 103.88310241699219 154.67202758789062 101.0865249633789 161.9093017578125 105.46793365478516 165.41961669921875 C 108.07196807861328 167.57723999023438 109.08477783203125 168.78469848632812 106.67355346679688 168.83078002929688 C 104.93086242675781 169.5555419921875 103.55168151855469 166.79141235351562 101.50454711914062 164.29837036132812" stroke-width="1.0" fill="rgb(246, 247, 247)" opacity="0.9972111"/>
    <path d="M 124.04000854492188 168.86614990234375 C 124.17009735107422 169.07278442382812 126.36569213867188 165.48419189453125 128.38442993164062 162.09634399414062 C 132.28504943847656 155.04446411132812 134.65426635742188 144.05726623535156 135.41534423828125 133.12710571289062 C 136.4278106689453 125.56468200683594 133.93580627441406 125.22545623779297 139.8135223388672 126.22350311279297 C 139.70285034179688 124.05413055419922 139.3234100341797 128.25611877441406 139.48028564453125 134.51528930664062 C 138.2972412109375 143.8665313720703 141.17364501953125 147.00929260253906 147.03732299804688 147.16879272460938 C 150.0216064453125 147.0711669921875 151.69656372070312 141.9783477783203 152.74293518066406 133.96844482421875 C 152.06858825683594 127.65708923339844 156.34674072265625 127.76998901367188 153.5577850341797 137.4586944580078 C 154.42962646484375 142.76461791992188 145.89463806152344 163.54637145996094 141.5045623779297 166.87283325195312 C 141.8828582763672 169.49526977539062 140.18450927734375 168.49871826171875 134.81265258789062 168.77613830566406 C 128.95713806152344 168.62371826171875 124.5998764038086 168.5783233642578 124.04000854492188 168.86614990234375" stroke-width="0.0" fill="rgb(245, 247, 247)" opacity="0.99093395"/>
    <path d="M 149.39012145996094 165.49375915527344 C 149.61322021484375 164.51104736328125 151.22157287597656 161.9073486328125 152.66921997070312 159.00343322753906 C 156.81422424316406 150.50949096679688 159.5164031982422 141.34835815429688 160.26873779296875 129.20034790039062 L 160.11993408203125 117.80476379394531 L 172.59803771972656 117.91236114501953 L 172.4428253173828 123.70594787597656 C 171.97592163085938 138.2803955078125 167.4677734375 153.1112823486328 159.58187866210938 159.33993530273438 C 155.40708923339844 163.40789794921875 149.6531219482422 167.10427856445312 149.39012145996094 165.49375915527344" stroke-width="1.0" fill="rgb(247, 248, 248)" opacity="1.0"/>
    <path d="M 67.93363952636719 163.32803344726562 C 63.37568664550781 160.6085205078125 57.36965560913086 154.28427124023438 55.54158401489258 149.34527587890625 C 53.083656311035156 144.37222290039062 50.721065521240234 133.18211364746094 50.237117767333984 124.0225830078125 L 50.313499450683594 117.85256958007812 L 61.69682312011719 117.8132095336914 L 61.562164306640625 121.13109588623047 C 61.506099700927734 135.74681091308594 64.80699157714844 150.98309326171875 72.3209228515625 164.2685089111328 C 72.7596435546875 166.28375244140625 71.16206359863281 165.48611450195312 67.93363952636719 163.32803344726562" stroke-width="1.0" fill="rgb(248, 249, 249)" opacity="1.0"/>
    <path d="M 108.87423706054688 160.39146423339844 C 109.34664154052734 159.21707153320312 109.96585083007812 158.65484619140625 111.88170623779297 158.6612548828125 C 113.06212615966797 158.9676513671875 114.06256103515625 160.05506896972656 113.5043716430664 160.78753662109375 C 113.6675033569336 161.69482421875 112.64240264892578 162.671142578125 111.43115997314453 162.7518310546875 C 109.51847076416016 162.93499755859375 108.80157470703125 161.9917449951172 108.87423706054688 160.39146423339844" stroke-width="1.0" fill="rgb(242, 244, 244)" opacity="0.9843419"/>
    <path d="M 75.68437957763672 139.34634399414062 C 75.05677795410156 135.86424255371094 74.39639282226562 129.90943908691406 74.54136657714844 125.81131744384766 L 74.079345703125 117.57543182373047 L 80.41519165039062 117.80976104736328 C 88.2615966796875 117.1148452758789 89.32390594482422 120.47455596923828 81.84648132324219 120.48517608642578 L 76.63273620605469 120.54252624511719 L 76.63470458984375 133.15676879882812 C 76.99640655517578 142.46710205078125 76.5397720336914 143.0701446533203 75.68437957763672 139.34634399414062" stroke-width="1.0" fill="rgb(240, 241, 242)" opacity="0.9757897"/>
    <path d="M 144.9775390625 133.896728515625 C 145.22610473632812 119.5679702758789 146.19125366210938 120.1300277709961 139.6985321044922 120.67493438720703 C 136.14944458007812 120.55218505859375 134.2481689453125 119.9182357788086 135.45834350585938 118.7015380859375 C 134.20440673828125 117.96817779541016 137.1719970703125 118.25128173828125 141.12115478515625 117.7862777709961 L 147.36317443847656 117.54959869384766 L 147.14410400390625 123.4012222290039 C 147.5908966064453 126.6681900024414 146.91419982910156 132.19261169433594 147.08587646484375 136.30926513671875 L 145.1726837158203 142.75917053222656 L 144.9775390625 133.896728515625" stroke-width="1.0" fill="rgb(238, 239, 240)" opacity="0.9661966"/>
    <path d="M 53.464195251464844 103.07685852050781 C 53.41236877441406 101.79550170898438 54.41480255126953 101.25845336914062 58.195945739746094 101.21479797363281 C 60.67654037475586 101.08655548095703 63.9134521484375 101.61217498779297 64.34780883789062 102.41585540771484 C 65.3541030883789 102.99176025390625 67.08130645751953 103.8299331665039 68.60526275634766 103.8947982788086 C 70.39176940917969 104.95555877685547 68.49971008300781 105.37397003173828 62.122432708740234 105.18775939941406 C 53.61369705200195 105.39799499511719 52.67120361328125 105.40518188476562 53.464195251464844 103.07685852050781" stroke-width="1.0" fill="rgb(242, 244, 244)" opacity="0.98363763"/>
    <path d="M 70.82366943359375 103.21781158447266 C 72.90359497070312 102.74457550048828 75.19786071777344 101.3541259765625 75.80034637451172 99.95726776123047 C 75.88201141357422 98.86689758300781 77.6560287475586 98.8940658569336 80.65135955810547 99.32238006591797 C 83.7508316040039 98.86723327636719 84.22663879394531 99.00482177734375 84.21147155761719 101.15023803710938 C 85.53742980957031 105.99737548828125 85.43204498291016 105.099853515625 76.960205078125 105.15406036376953 L 66.8924560546875 105.27574157714844 L 70.82366943359375 103.21781158447266" stroke-width="1.0" fill="rgb(243, 244, 244)" opacity="0.985472"/>
    <path d="M 137.42796325683594 103.71147155761719 C 137.7270965576172 99.70802307128906 137.88169860839844 98.65367126464844 142.12217712402344 98.9740982055664 C 145.7279510498047 98.64494323730469 146.86456298828125 99.20793914794922 147.62966918945312 100.90541076660156 C 148.71917724609375 102.10224151611328 150.86790466308594 103.58114624023438 152.9414520263672 103.57757568359375 C 154.42103576660156 105.1812515258789 154.20046997070312 105.40526580810547 146.286376953125 105.14637756347656 C 137.81724548339844 105.20685577392578 136.5650177001953 105.52462768554688 137.42796325683594 103.71147155761719" stroke-width="1.0" fill="rgb(244, 245, 245)" opacity="0.9889822"/>
    <path d="M 156.09646606445312 103.50093078613281 C 161.90353393554688 100.39155578613281 169.31521606445312 100.71259307861328 169.60400390625 103.40760040283203 C 170.0182647705078 105.42288208007812 169.3482666015625 105.48719024658203 160.59088134765625 105.34101104736328 L 151.56214904785156 104.99447631835938 L 156.09646606445312 103.50093078613281" stroke-width="1.0" fill="rgb(242, 243, 243)" opacity="0.98186874"/>
    <path d="M 65.86467742919922 97.23208618164062 C 65.7122802734375 96.20889282226562 65.11660766601562 90.04584503173828 65.83226776123047 89.94784545898438 C 67.53022003173828 88.99739837646484 68.51139831542969 88.69976043701172 69.47311401367188 89.31886291503906 C 71.49612426757812 89.78746032714844 72.0156478881836 89.99089050292969 71.84931945800781 92.72904968261719 C 70.82437133789062 93.96147155761719 71.24612426757812 94.72383117675781 71.39617919921875 94.68846130371094 C 71.76580810546875 95.508056640625 72.40457916259766 96.40121459960938 71.48866271972656 96.94166564941406 C 71.03144836425781 98.47209167480469 66.68362426757812 98.84660339355469 65.86467742919922 97.23208618164062" stroke-width="1.0" fill="rgb(245, 246, 246)" opacity="0.99284124"/>
    <path d="M 151.5418243408203 97.0486068725586 C 150.7479705810547 97.11091613769531 150.68560791015625 95.67274475097656 151.1106719970703 94.68183898925781 C 152.19207763671875 94.3847427368164 152.18487548828125 92.87450408935547 151.03707885742188 92.86394500732422 C 150.5443115234375 91.77521514892578 151.08358764648438 90.49189758300781 151.6532745361328 89.87974548339844 C 154.63885498046875 87.35641479492188 158.34225463867188 89.22325134277344 156.8132781982422 93.68672180175781 C 158.31936645507812 96.77345275878906 157.02230834960938 97.28945922851562 154.73587036132812 98.58704376220703 C 152.79026794433594 98.88312530517578 151.97994995117188 98.37117004394531 151.5418243408203 97.0486068725586" stroke-width="1.0" fill="rgb(245, 246, 247)" opacity="0.9948651"/>
    <path d="M 77.47886657714844 92.52598571777344 C 77.63158416748047 92.23716735839844 77.73211669921875 90.55360412597656 76.96395874023438 89.18389129638672 C 76.37667846679688 85.76484680175781 78.36640930175781 85.98989868164062 80.11355590820312 89.7208023071289 C 82.29690551757812 93.74514770507812 82.1309814453125 94.14997863769531 79.87847137451172 93.83476257324219 C 78.50654602050781 94.01524353027344 77.53228759765625 93.61085510253906 77.47886657714844 92.52598571777344" stroke-width="1.0" fill="rgb(238, 239, 239)" opacity="0.9644627"/>
    <path d="M 86.21769714355469 90.02043151855469 C 82.73255920410156 83.01448822021484 77.46826171875 78.28548431396484 70.76231384277344 77.63581848144531 L 67.58595275878906 77.12991333007812 L 71.07164001464844 71.64617919921875 C 78.80279541015625 62.73527908325195 74.99282836914062 63.006996154785156 110.28706359863281 63.47373962402344 C 146.92501831054688 63.080570220947266 143.70582580566406 62.639373779296875 151.06015014648438 70.99002075195312 C 155.19998168945312 76.68588256835938 155.85015869140625 76.57876586914062 153.95118713378906 77.73776245117188 C 147.52606201171875 77.17729187011719 140.2457275390625 82.26934814453125 136.62904357910156 89.23204040527344 L 134.34535217285156 93.68486022949219 L 87.72274780273438 93.61820983886719 L 86.21769714355469 90.02043151855469" stroke-width="1.0" fill="rgb(246, 248, 248)" opacity="0.99798703"/>
    <path d="M 142.11276245117188 90.41072845458984 C 143.41244506835938 88.1582260131836 144.62179565429688 86.35379028320312 145.0653076171875 86.62101745605469 C 146.46560668945312 86.83859252929688 146.81201171875 87.17344665527344 145.16761779785156 90.94955444335938 C 145.0789031982422 93.3692398071289 143.9610137939453 94.14569091796875 142.81185913085938 93.77893829345703 C 139.94508361816406 93.89959716796875 140.0391082763672 93.53129577636719 142.11276245117188 90.41072845458984" stroke-width="1.0" fill="rgb(239, 240, 240)" opacity="0.96902144"/>
    <path d="M 85.5262680053711 57.911781311035156 C 85.39717864990234 56.27531051635742 85.4384994506836 51.4347038269043 85.44564819335938 51.13658905029297 C 86.16130065917969 51.2596321105957 87.02330780029297 50.707489013671875 87.81144714355469 49.76670837402344 C 89.00930786132812 47.020286560058594 86.4725341796875 44.44696807861328 83.18780517578125 45.622474670410156 C 81.94084167480469 45.96680450439453 80.5599365234375 44.80397033691406 78.95486450195312 44.20848083496094 L 75.07270812988281 41.514556884765625 L 93.72681427001953 41.589637756347656 C 103.54629516601562 41.721221923828125 119.88530731201172 41.71149444580078 129.77279663085938 41.43797302246094 L 148.47161865234375 41.310447692871094 L 143.65208435058594 44.00459289550781 C 141.63174438476562 44.91276550292969 139.92955017089844 46.087913513183594 139.78440856933594 45.45979309082031 C 137.5193328857422 44.32090759277344 134.31007385253906 46.54773712158203 134.0567169189453 48.32160186767578 C 134.05917358398438 49.35075378417969 134.86065673828125 50.505348205566406 136.86151123046875 50.992515563964844 C 137.71719360351562 51.8678092956543 137.17324829101562 52.95835494995117 137.0857696533203 54.47746276855469 L 137.25274658203125 57.982791900634766 L 111.36389923095703 57.90625 C 97.66686248779297 58.06763458251953 86.46395111083984 58.013458251953125 85.5262680053711 57.911781311035156" stroke-width="1.0" fill="rgb(248, 249, 249)" opacity="0.99941295"/>
    <path d="M 67.60148620605469 33.8126220703125 C 66.7486572265625 33.38299560546875 155.98094177246094 33.386314392089844 155.15599060058594 33.78227996826172 C 159.13449096679688 37.464820861816406 143.1301727294922 35.30126953125 111.10536193847656 36.04545593261719 C 79.42029571533203 35.38939666748047 63.39063262939453 37.61186981201172 67.60148620605469 33.8126220703125" stroke-width="1.0" fill="rgb(235, 237, 237)" opacity="0.9550846"/>
    <path d="M 80.92365264892578 175.09242248535156 C 81.25210571289062 173.6300048828125 91.47000122070312 173.96902465820312 111.7760009765625 173.9349365234375 C 131.52322387695312 174.0977325439453 141.72698974609375 173.57327270507812 141.54623413085938 174.8098907470703 C 142.1148681640625 175.9989776611328 131.06640625 175.48312377929688 111.42291259765625 175.5381317138672 C 91.57196044921875 175.38885498046875 80.93802642822266 175.850830078125 80.92365264892578 175.09242248535156" stroke-width="1.0" fill="rgb(211, 211, 211)" opacity="1.0"/>
    <path d="M 93.66020202636719 49.834747314453125 C 93.03201293945312 48.10551452636719 94.34839630126953 45.731285095214844 96.14472961425781 45.32080078125 C 96.35979461669922 44.93852996826172 97.88188934326172 45.45061492919922 99.00811767578125 45.90094757080078 C 100.26918029785156 47.14220428466797 100.37592315673828 47.939117431640625 99.75313568115234 49.77465057373047 C 98.77093505859375 51.97773361206055 94.78626251220703 52.0659294128418 93.66020202636719 49.834747314453125" stroke-width="1.0" fill="rgb(6, 6, 6)" opacity="0.9727764"/>
    <path d="M 123.97384643554688 50.532562255859375 C 122.48145294189453 48.85382843017578 122.7810287475586 46.88922119140625 124.76342010498047 45.793060302734375 C 126.92864227294922 44.70347595214844 129.63771057128906 46.110267639160156 129.4304962158203 48.66221618652344 C 128.7838897705078 50.85841369628906 125.5576171875 51.99781036376953 123.97384643554688 50.532562255859375" stroke-width="1.0" fill="rgb(4, 4, 4)" opacity="0.9832902"/>
  </g>
</svg>
