<?xml version="1.0" ?>
<svg xmlns="http://www.w3.org/2000/svg" version="1.1" width="224" height="224">
  <defs/>
  <g>
    <path d="M 150.37423706054688 120.48101043701172 C 149.25564575195312 104.69586944580078 149.67068481445312 104.03128814697266 154.2706756591797 108.44256591796875 C 156.97311401367188 110.60592651367188 157.1056671142578 111.57599639892578 156.8661346435547 115.56939697265625 C 157.08969116210938 117.72106170654297 155.85073852539062 122.72123718261719 154.770751953125 126.02066040039062 C 154.03977966308594 129.4100341796875 153.44874572753906 133.17945861816406 153.17745971679688 133.5901641845703 C 152.86312866210938 134.24192810058594 152.44866943359375 134.69845581054688 151.9571990966797 134.7182159423828 C 151.35406494140625 134.7393035888672 150.6946563720703 129.72613525390625 150.37423706054688 120.48101043701172" stroke-width="0.0" fill="rgb(250, 249, 250)" opacity="0.97626024"/>
    <path d="M 80.26252746582031 194.78890991210938 C 80.06416320800781 194.4337158203125 79.8733901977539 189.3529052734375 81.18936157226562 186.22023010253906 C 81.97605895996094 184.686279296875 83.85209655761719 182.20071411132812 86.38597869873047 181.31414794921875 L 89.51808166503906 180.97958374023438 L 89.2654800415039 165.0896453857422 C 88.95171356201172 145.43399047851562 91.37015533447266 147.44017028808594 86.31672668457031 147.2644500732422 C 83.05305480957031 147.18589782714844 80.67799377441406 145.62660217285156 77.70362854003906 143.8146514892578 L 73.8648681640625 138.8447265625 L 73.86186218261719 123.29732513427734 C 74.23880004882812 102.39795684814453 74.44373321533203 100.69071197509766 67.85823059082031 107.96166229248047 C 66.62141418457031 110.0588150024414 63.213783264160156 111.75313568115234 60.471031188964844 111.93486785888672 C 58.806880950927734 111.81759643554688 57.9201774597168 112.85639190673828 58.69683837890625 112.71117401123047 C 64.85476684570312 112.740966796875 67.95160675048828 112.97761535644531 64.45873260498047 113.21857452392578 C 68.31031799316406 114.48037719726562 70.59013366699219 116.60791778564453 69.94010925292969 124.20399475097656 C 70.1259994506836 131.98468017578125 69.34060668945312 137.865966796875 70.4233627319336 137.49131774902344 C 73.38579559326172 138.8011016845703 71.48873138427734 140.51548767089844 70.98082733154297 144.18861389160156 C 70.09190368652344 143.32208251953125 69.86627197265625 144.15579223632812 70.71560668945312 145.34512329101562 C 68.9967041015625 150.5389404296875 68.42835998535156 153.23184204101562 68.14248657226562 151.65606689453125 C 62.76856994628906 148.83885192871094 62.808414459228516 147.04434204101562 62.121788024902344 153.13201904296875 C 60.00398254394531 157.8834228515625 60.62696075439453 161.21939086914062 56.67964172363281 157.48587036132812 C 54.22663116455078 157.2565155029297 54.5760612487793 157.1589813232422 57.21087646484375 148.6915283203125 C 59.24959945678711 144.2844696044922 55.872005462646484 144.13461303710938 54.54672622680664 149.302001953125 C 53.08983612060547 153.27743530273438 51.7629508972168 154.1605987548828 53.70838165283203 154.54234313964844 C 49.29901123046875 152.0863037109375 47.03022766113281 153.2586669921875 49.090843200683594 148.29653930664062 C 52.20199966430664 140.08609008789062 50.00862121582031 139.12705993652344 47.24739074707031 146.49307250976562 C 47.403846740722656 150.01840209960938 43.17204284667969 146.9547119140625 42.21208190917969 144.9393310546875 C 43.59611511230469 140.38314819335938 47.28315734863281 132.46817016601562 50.66071319580078 131.91200256347656 C 51.26850128173828 130.8997802734375 54.80467224121094 130.31948852539062 59.1607551574707 130.2489013671875 L 63.69809341430664 132.1278533935547 L 63.82783889770508 125.71410369873047 C 63.24176788330078 117.83393096923828 64.48500061035156 118.98255920410156 59.39499282836914 119.13780975341797 C 54.30493927001953 118.27565002441406 50.93399429321289 114.8737564086914 50.96063995361328 111.41998291015625 C 50.878448486328125 109.28384399414062 51.334232330322266 107.05024719238281 49.82752990722656 106.2521743774414 C 47.04734802246094 101.6451187133789 46.51807403564453 99.17626190185547 49.00694274902344 94.52869415283203 C 51.39619064331055 90.40788269042969 54.94813919067383 88.21832275390625 60.043758392333984 87.95915222167969 C 65.88078308105469 88.58926391601562 69.46215057373047 90.67655944824219 70.15312194824219 95.31727600097656 C 69.77254486083984 99.2373046875 71.26264953613281 99.57243347167969 71.55007934570312 98.13982391357422 C 74.8981704711914 99.69654846191406 73.67779541015625 97.56346130371094 74.02969360351562 71.01399993896484 C 73.85315704345703 43.77392578125 74.11912536621094 45.21648406982422 82.72701263427734 39.26025390625 C 88.10638427734375 39.008216857910156 87.54920196533203 40.96745300292969 87.73219299316406 36.094093322753906 C 91.3729248046875 28.231964111328125 92.19282531738281 28.45305633544922 113.1934814453125 28.99181365966797 C 129.70272827148438 27.99999237060547 130.99514770507812 29.046615600585938 135.26010131835938 35.60816192626953 C 134.3854522705078 38.903648376464844 134.28439331054688 39.50495147705078 137.2146453857422 39.107810974121094 C 141.47482299804688 40.02154541015625 144.16433715820312 43.021644592285156 145.30043029785156 43.85395812988281 L 148.39547729492188 48.21295928955078 L 148.32545471191406 62.933135986328125 C 148.51614379882812 88.82681274414062 147.84237670898438 101.9303207397461 148.58218383789062 98.36945343017578 C 152.84988403320312 99.00454711914062 151.58090209960938 98.92900085449219 151.76675415039062 94.23724365234375 C 153.2213592529297 89.73323059082031 158.38958740234375 87.05046844482422 164.15927124023438 88.20154571533203 C 169.35479736328125 88.48771667480469 174.81631469726562 93.88288116455078 174.83206176757812 100.9677963256836 C 173.69540405273438 102.07503509521484 170.2448272705078 114.46390533447266 169.39093017578125 115.81775665283203 C 167.29376220703125 116.80618286132812 165.77017211914062 118.72144317626953 164.01449584960938 118.49907684326172 C 157.2120361328125 119.99826049804688 158.25119018554688 118.32936096191406 157.90939331054688 121.0636215209961 C 158.3848419189453 125.85762786865234 158.78228759765625 127.08985137939453 158.0740203857422 132.93922424316406 C 159.70904541015625 134.2746124267578 155.92872619628906 131.495361328125 165.006103515625 130.34165954589844 C 171.94381713867188 131.33578491210938 174.05502319335938 132.95753479003906 177.25936889648438 138.01815795898438 C 180.19149780273438 144.77554321289062 181.78790283203125 146.440673828125 177.91851806640625 147.15049743652344 C 175.11647033691406 150.0097198486328 175.67626953125 147.3367156982422 174.61880493164062 146.764892578125 C 173.518798828125 143.1832733154297 174.17959594726562 142.9553985595703 172.52859497070312 141.9395751953125 C 170.8324432373047 143.23927307128906 171.4845733642578 142.86151123046875 173.1902618408203 147.85003662109375 C 174.10076904296875 152.084228515625 174.25735473632812 151.45236206054688 169.78024291992188 153.67050170898438 C 169.2263946533203 154.6593017578125 168.49378967285156 153.0955810546875 168.8318634033203 152.09274291992188 C 166.84469604492188 147.66067504882812 166.03297424316406 144.15037536621094 165.98553466796875 145.581787109375 C 162.57444763183594 144.84605407714844 164.9656219482422 148.2864990234375 166.16722106933594 154.03619384765625 C 169.30934143066406 157.62416076660156 160.34617614746094 161.52877807617188 161.7372283935547 157.39926147460938 C 159.10926818847656 148.08058166503906 160.04034423828125 148.00860595703125 156.04898071289062 150.63583374023438 C 152.63449096679688 153.27642822265625 153.3189697265625 150.1664276123047 151.92825317382812 146.63607788085938 C 153.01107788085938 143.4593505859375 153.6929168701172 142.2578125 151.5325164794922 144.2732391357422 C 151.04541015625 139.50289916992188 148.36083984375 137.3710174560547 152.2542266845703 136.91665649414062 C 151.8397979736328 135.16160583496094 152.49334716796875 128.30615234375 152.20367431640625 124.2710952758789 C 151.81320190429688 116.84428405761719 153.45835876464844 114.73147583007812 158.24224853515625 112.75370788574219 C 165.14852905273438 113.15972900390625 166.22271728515625 112.91152954101562 158.9035186767578 112.00401306152344 C 158.8231201171875 111.85673522949219 156.13870239257812 110.23350524902344 153.63943481445312 108.17434692382812 C 151.27334594726562 103.42538452148438 150.29307556152344 104.45751190185547 147.83424377441406 105.4365234375 C 148.90048217773438 104.36743927001953 148.29443359375 113.24869537353516 148.2799835205078 126.65791320800781 L 148.68643188476562 137.9871063232422 L 145.11175537109375 143.81427001953125 C 143.132568359375 144.70852661132812 140.3167724609375 146.72323608398438 137.90145874023438 147.2880859375 C 134.49801635742188 146.9666748046875 131.60662841796875 147.62513732910156 132.3892822265625 146.46412658691406 C 132.46365356445312 145.77020263671875 132.6143798828125 150.5102996826172 132.73802185058594 164.42581176757812 L 132.4376678466797 180.3433074951172 L 133.92701721191406 181.13897705078125 C 139.8752899169922 183.04727172851562 141.65966796875 187.01644897460938 141.4569091796875 191.71568298339844 L 141.52743530273438 194.86460876464844 L 130.2771453857422 195.049560546875 C 113.47627258300781 194.9225311279297 111.30570220947266 196.0 111.21434020996094 194.79351806640625 C 111.70806884765625 186.24301147460938 110.28155517578125 187.03909301757812 109.93461608886719 193.26974487304688 C 109.13333129882812 195.32907104492188 110.98320007324219 195.01712036132812 96.89228820800781 195.221923828125 C 86.76739501953125 195.40859985351562 79.53652954101562 195.16818237304688 80.26252746582031 194.78890991210938" stroke-width="0.0" fill="rgb(1, 2, 2)" opacity="0.9925076"/>
    <path d="M 109.20325469970703 186.93161010742188 C 108.23326110839844 185.3916015625 106.18972778320312 183.18231201171875 104.51776885986328 182.0994873046875 L 100.97953796386719 180.71310424804688 L 100.74777221679688 163.83169555664062 L 100.66350555419922 146.95779418945312 L 110.86673736572266 147.485595703125 L 121.30901336669922 147.2672119140625 L 121.0739517211914 163.74838256835938 L 121.19146728515625 180.62796020507812 L 117.57090759277344 181.61019897460938 C 115.19001007080078 182.729736328125 113.59973907470703 184.35594177246094 112.51126098632812 186.66622924804688 C 111.6047134399414 188.5271759033203 110.84660339355469 190.1315155029297 110.43254852294922 190.53848266601562 C 110.37698364257812 190.04026794433594 109.7232894897461 188.95166015625 109.20325469970703 186.93161010742188" stroke-width="1.0" fill="rgb(253, 254, 254)" opacity="0.9980587"/>
    <path d="M 80.97262573242188 139.3644561767578 C 79.67560577392578 138.87567138671875 80.07696533203125 131.02406311035156 80.00474548339844 111.3078384399414 L 79.87043762207031 83.53578186035156 L 102.40623474121094 83.86676788330078 L 102.24815368652344 140.97756958007812 L 92.10274505615234 140.86595153808594 C 86.15959167480469 140.96327209472656 82.30035400390625 140.70721435546875 80.97262573242188 139.3644561767578" stroke-width="1.0" fill="rgb(248, 250, 251)" opacity="0.9893678"/>
    <path d="M 108.56719970703125 141.1279296875 C 108.01243591308594 140.2708740234375 108.14292907714844 134.7506103515625 108.15095520019531 127.79452514648438 C 108.09627532958984 115.74269104003906 108.11483001708984 116.57524871826172 111.44751739501953 117.19917297363281 C 113.99343872070312 116.3179702758789 113.92353820800781 116.80924224853516 113.7828369140625 128.54014587402344 C 113.70111083984375 140.4118194580078 113.98924255371094 141.3807830810547 111.90182495117188 140.89779663085938 C 109.671630859375 140.7774200439453 108.59852600097656 140.84335327148438 108.56719970703125 141.1279296875" stroke-width="1.0" fill="rgb(251, 251, 252)" opacity="0.98875403"/>
    <path d="M 119.5743408203125 112.30905151367188 L 119.4833984375 83.88876342773438 L 142.35595703125 83.76718139648438 L 142.20848083496094 110.73876953125 C 142.28494262695312 135.80223083496094 142.62283325195312 137.85208129882812 140.66188049316406 139.11227416992188 C 139.14144897460938 140.77183532714844 137.28749084472656 140.76223754882812 129.67837524414062 140.62747192382812 L 119.55902862548828 140.89117431640625 L 119.5743408203125 112.30905151367188" stroke-width="1.0" fill="rgb(247, 249, 249)" opacity="0.9849771"/>
    <path d="M 108.17346954345703 111.57357025146484 C 107.93588256835938 111.38928985595703 107.85025024414062 104.68379211425781 107.97966766357422 97.18756866455078 L 108.08312225341797 83.7956771850586 L 113.94799041748047 83.87686920166016 L 114.06634521484375 97.64659881591797 C 113.83106231689453 110.85243225097656 114.20606994628906 111.83448791503906 111.96774291992188 111.31531524658203 C 110.5903091430664 111.72313690185547 109.86783599853516 111.37715911865234 108.17346954345703 111.57357025146484" stroke-width="1.0" fill="rgb(250, 252, 252)" opacity="0.98886836"/>
    <path d="M 54.787925720214844 103.6298828125 C 50.6749382019043 99.14435577392578 53.568748474121094 93.79956817626953 60.148704528808594 93.57205200195312 L 64.395751953125 93.84366607666016 L 64.29928588867188 105.0771484375 L 60.35029983520508 105.73899841308594 C 57.822532653808594 105.60120391845703 55.68502426147461 104.8648681640625 54.787925720214844 103.6298828125" stroke-width="1.0" fill="rgb(241, 244, 244)" opacity="0.95680207"/>
    <path d="M 157.68057250976562 99.3968505859375 L 157.89874267578125 93.98117065429688 L 161.85498046875 93.74398040771484 C 166.7028045654297 94.0711669921875 169.3380126953125 96.07998657226562 169.12657165527344 99.35063934326172 C 169.30630493164062 103.18312072753906 166.1075439453125 105.33964538574219 161.71603393554688 105.67816925048828 L 157.93612670898438 105.42115783691406 L 157.68057250976562 99.3968505859375" stroke-width="1.0" fill="rgb(243, 245, 246)" opacity="0.9620981"/>
    <path d="M 79.85101318359375 62.136470794677734 C 79.69554138183594 50.027801513671875 79.84937286376953 47.346778869628906 81.97882080078125 46.75196838378906 C 84.04071044921875 45.30187225341797 84.38870239257812 46.131309509277344 84.01680755615234 53.11405563354492 C 84.05154418945312 60.73972702026367 83.71288299560547 61.670108795166016 85.86065673828125 63.545772552490234 C 87.86576843261719 65.49063873291016 88.60883331298828 66.11700439453125 95.06547546386719 66.13860321044922 C 106.07814025878906 66.19285583496094 107.89810943603516 64.78366088867188 107.62228393554688 53.83797073364258 C 107.21548461914062 45.65234375 107.31018829345703 45.29231262207031 110.30782318115234 45.7427978515625 C 114.21199035644531 45.06819152832031 113.97401428222656 45.189422607421875 113.8238525390625 53.532474517822266 C 113.71063232421875 61.81251907348633 114.1423568725586 62.320831298828125 116.51436614990234 64.06594848632812 C 118.19017028808594 65.5706787109375 119.86576080322266 66.4218521118164 125.8192138671875 66.27507781982422 C 129.25796508789062 66.13014221191406 132.90716552734375 66.0392074584961 133.622314453125 65.01647186279297 C 136.76377868652344 64.26909637451172 138.039794921875 60.179039001464844 137.37548828125 52.861602783203125 C 137.35690307617188 48.63970947265625 137.42266845703125 45.279014587402344 138.16969299316406 46.3289794921875 C 142.56060791015625 46.755836486816406 142.54055786132812 50.055023193359375 142.433837890625 62.22418212890625 L 142.21221923828125 77.27519226074219 L 79.8550796508789 77.29194641113281 L 79.85101318359375 62.136470794677734" stroke-width="1.0" fill="rgb(246, 248, 249)" opacity="0.9749655"/>
    <path d="M 89.60289001464844 49.22138977050781 C 88.22840881347656 45.69358825683594 90.67613220214844 44.88434600830078 96.540283203125 45.3140869140625 C 101.5508041381836 45.48869323730469 102.41520690917969 46.36371612548828 101.93755340576172 48.28309631347656 C 103.27297973632812 50.30906677246094 90.65083312988281 50.62879180908203 89.60289001464844 49.22138977050781" stroke-width="1.0" fill="rgb(246, 247, 248)" opacity="0.972537"/>
    <path d="M 118.91838836669922 47.969825744628906 C 118.94103240966797 45.264373779296875 119.22289276123047 45.109893798828125 125.36463928222656 45.376014709472656 C 130.98434448242188 45.151702880859375 132.61314392089844 45.68547058105469 132.37608337402344 47.62549591064453 C 132.90924072265625 49.79944610595703 132.53451538085938 49.98235321044922 125.68827819824219 49.949615478515625 C 119.31475830078125 50.061973571777344 118.8789291381836 49.723854064941406 118.91838836669922 47.969825744628906" stroke-width="1.0" fill="rgb(247, 249, 249)" opacity="0.97709715"/>
    <path d="M 94.02096557617188 36.97722625732422 C 93.22185516357422 35.011962890625 96.959716796875 35.19715881347656 111.5046615600586 35.020904541015625 C 125.11846160888672 34.780723571777344 128.87648010253906 35.071044921875 128.72593688964844 37.63605499267578 C 130.3606719970703 39.37371826171875 127.22850799560547 39.09893798828125 110.91566467285156 38.920379638671875 C 94.59170532226562 39.0352783203125 91.50223541259766 39.37383270263672 94.02096557617188 36.97722625732422" stroke-width="1.0" fill="rgb(241, 242, 243)" opacity="0.95351726"/>
    <path d="M 124.56312561035156 126.08267211914062 C 123.6275405883789 124.39839172363281 123.77779388427734 119.29946899414062 124.04127502441406 113.86793518066406 C 124.00311279296875 103.68295288085938 124.5829086303711 103.06848907470703 126.82211303710938 103.79195404052734 C 128.84742736816406 103.17265319824219 129.49481201171875 103.98106384277344 129.49798583984375 114.31404876708984 C 129.6205291748047 125.01483154296875 129.17193603515625 126.27519989013672 127.18331909179688 126.23794555664062 C 126.62649536132812 126.91289520263672 125.36453247070312 126.47822570800781 124.56312561035156 126.08267211914062" stroke-width="1.0" fill="rgb(4, 5, 5)" opacity="0.9806459"/>
  </g>
</svg>
