<?xml version="1.0" ?>
<svg xmlns="http://www.w3.org/2000/svg" version="1.1" width="224" height="224">
  <defs/>
  <g>
    <path d="M 80.59858703613281 180.9242706298828 C 76.51112365722656 184.95169067382812 72.42288208007812 188.97911071777344 68.33541870117188 193.00653076171875 C 76.0144271850586 194.00460815429688 83.69342803955078 195.00192260742188 91.37242889404297 196.0 C 92.56388854980469 192.63848876953125 93.75535583496094 189.2777557373047 94.94681549072266 185.91702270507812 C 90.163818359375 184.25302124023438 85.38081359863281 182.5890350341797 80.59858703613281 180.9242706298828" stroke-width="0.0" fill="rgb(228, 53, 53)" opacity="1.0" stroke="rgb(0, 0, 0)" stroke-opacity="1.0" stroke-linecap="round" stroke-linejoin="round"/>
    <path d="M 142.71913146972656 180.9242706298828 C 146.807373046875 184.95169067382812 150.89639282226562 188.97911071777344 154.98463439941406 193.00653076171875 C 147.30563354492188 194.00460815429688 139.6266326904297 195.00192260742188 131.94761657714844 196.0 C 130.75616455078125 192.63848876953125 129.564697265625 189.2777557373047 128.37322998046875 185.91702270507812 C 133.1554718017578 184.25302124023438 137.93690490722656 182.5890350341797 142.71913146972656 180.9242706298828" stroke-width="0.0" fill="rgb(228, 53, 53)" opacity="1.0" stroke="rgb(0, 0, 0)" stroke-opacity="1.0" stroke-linecap="round" stroke-linejoin="round"/>
    <path d="M 163.85353088378906 139.9864959716797 C 163.85353088378906 139.9864959716797 163.85353088378906 139.9864959716797 163.85353088378906 139.9864959716797 C 163.73345947265625 147.84014892578125 162.1177978515625 155.505126953125 158.67831420898438 162.59461975097656 C 148.83238220214844 182.88690185546875 126.34198760986328 194.65805053710938 104.05587768554688 191.23338317871094 C 98.97501373291016 190.45205688476562 94.01657104492188 188.90658569335938 89.39186096191406 186.66323852539062 C 83.96478271484375 184.030029296875 79.01023864746094 180.4423828125 74.807373046875 176.11630249023438 C 70.24504089355469 171.4214324951172 66.5802001953125 165.86647033691406 64.07408142089844 159.81793212890625 C 61.47593688964844 153.54483032226562 60.14646530151367 146.77500915527344 60.14646530151367 139.9864959716797 C 60.14646530151367 133.1971893310547 61.47593688964844 126.42658996582031 64.07408142089844 120.15348815917969 C 66.5802001953125 114.10494232177734 70.24504089355469 108.54998779296875 74.807373046875 103.85431671142578 C 79.01023864746094 99.52825164794922 83.96478271484375 95.93983459472656 89.39186096191406 93.30661010742188 C 94.01657104492188 91.06248474121094 98.97501373291016 89.51701354980469 104.05587768554688 88.73648071289062 C 126.34276580810547 85.31024169921875 148.83316040039062 97.08373260498047 158.67831420898438 117.37678527832031 C 162.1177978515625 124.46629333496094 163.73345947265625 132.1320343017578 163.85353088378906 139.9864959716797 C 163.85353088378906 139.9864959716797 163.85353088378906 139.9864959716797 163.85353088378906 139.9864959716797" stroke-width="0.0" fill="rgb(237, 145, 17)" opacity="1.0" stroke="rgb(0, 0, 0)" stroke-opacity="1.0" stroke-linecap="round" stroke-linejoin="round"/>
    <path d="M 163.85353088378906 82.67234802246094 C 163.85353088378906 82.67234802246094 163.85353088378906 82.67234802246094 163.85353088378906 82.67234802246094 C 163.73345947265625 90.52678680419922 162.1177978515625 98.19253540039062 158.67831420898438 105.28204345703125 C 148.83316040039062 125.57432556152344 126.34354400634766 137.34780883789062 104.05587768554688 133.92234802246094 C 98.97501373291016 133.14183044433594 94.01657104492188 131.59634399414062 89.39186096191406 129.35223388671875 C 83.96478271484375 126.718994140625 79.01023864746094 123.13057708740234 74.807373046875 118.80451202392578 C 70.24504089355469 114.10884094238281 66.5802001953125 108.55388641357422 64.07408142089844 102.50456237792969 C 61.47593688964844 96.23146057128906 60.14646530151367 89.46086883544922 60.14646530151367 82.67234802246094 C 60.14646530151367 75.88459777832031 61.47593688964844 69.11479187011719 64.07408142089844 62.841678619384766 C 66.5802001953125 56.79313659667969 70.24504089355469 51.23818588256836 74.807373046875 46.54329299926758 C 79.01023864746094 42.21722412109375 83.96478271484375 38.62958526611328 89.39186096191406 35.996360778808594 C 94.01657104492188 33.752235412597656 98.97501373291016 32.206764221191406 104.05587768554688 31.425453186035156 C 126.34276580810547 28.0 148.83316040039062 39.77348327636719 158.67831420898438 60.064979553222656 C 162.1177978515625 67.15449523925781 163.73345947265625 74.81867980957031 163.85353088378906 82.67234802246094 C 163.85353088378906 82.67234802246094 163.85353088378906 82.67234802246094 163.85353088378906 82.67234802246094" stroke-width="0.0" fill="rgb(255, 175, 63)" opacity="1.0" stroke="rgb(0, 0, 0)" stroke-opacity="1.0" stroke-linecap="round" stroke-linejoin="round"/>
    <path d="M 75.89200592041016 107.23532104492188 C 99.9637451171875 107.23532104492188 124.03547668457031 107.23532104492188 148.10800170898438 107.23532104492188 C 144.63966369628906 112.14308166503906 140.41729736328125 116.37168884277344 135.32318115234375 119.59595489501953 C 121.24396514892578 128.50930786132812 102.75759887695312 128.50852966308594 88.67838287353516 119.59595489501953 C 83.58425903320312 116.37168884277344 79.36112213134766 112.14308166503906 75.89200592041016 107.23532104492188 C 75.89200592041016 107.23532104492188 75.89200592041016 107.23532104492188 75.89200592041016 107.23532104492188" stroke-width="0.0" fill="rgb(228, 53, 53)" opacity="1.0" stroke="rgb(0, 0, 0)" stroke-opacity="1.0" stroke-linecap="round" stroke-linejoin="round"/>
    <path d="M 90.16693115234375 88.13139343261719 C 90.16693115234375 88.13139343261719 90.16693115234375 88.13139343261719 90.16693115234375 88.13139343261719 C 90.02969360351562 90.8862533569336 89.57198333740234 93.48750305175781 88.21131134033203 95.92891693115234 C 87.50173950195312 97.20303344726562 86.5902099609375 98.37422180175781 85.48841857910156 99.33409118652344 C 84.4544677734375 100.23471069335938 83.25130462646484 100.94895935058594 81.93976593017578 101.36222839355469 C 73.84983825683594 103.91436004638672 68.33541870117188 95.15228271484375 68.33541870117188 88.13139343261719 C 68.33541870117188 81.11050415039062 73.85139465332031 72.35232543945312 81.93976593017578 74.90289306640625 C 83.25130462646484 75.316162109375 84.4544677734375 76.03041076660156 85.48841857910156 76.9310302734375 C 86.5902099609375 77.89089965820312 87.50096130371094 79.06208801269531 88.21131134033203 80.3362045288086 C 89.57198333740234 82.7768325805664 90.02969360351562 85.37652587890625 90.16693115234375 88.13139343261719 C 90.16693115234375 88.13139343261719 90.16693115234375 88.13139343261719 90.16693115234375 88.13139343261719" stroke-width="0.0" fill="rgb(89, 89, 89)" opacity="1.0" stroke="rgb(0, 0, 0)" stroke-opacity="1.0" stroke-linecap="round" stroke-linejoin="round"/>
    <path d="M 81.98031616210938 82.67234802246094 C 81.98031616210938 82.67234802246094 81.98031616210938 82.67234802246094 81.98031616210938 82.67234802246094 C 81.64813232421875 83.91761016845703 81.80096435546875 84.4548568725586 80.5650634765625 85.09971618652344 C 78.72718811035156 86.05958557128906 76.52204895019531 84.75115966796875 76.52127075195312 82.67234802246094 C 76.52127075195312 80.59352111816406 78.72874450683594 79.28899383544922 80.5650634765625 80.247314453125 C 81.80096435546875 80.89138793945312 81.64813232421875 81.4278564453125 81.98031616210938 82.67234802246094 C 81.98031616210938 82.67234802246094 81.98031616210938 82.67234802246094 81.98031616210938 82.67234802246094" stroke-width="0.0" fill="rgb(255, 255, 255)" opacity="1.0" stroke="rgb(0, 0, 0)" stroke-opacity="1.0" stroke-linecap="round" stroke-linejoin="round"/>
    <path d="M 155.6669158935547 88.13139343261719 C 155.6669158935547 88.13139343261719 155.6669158935547 88.13139343261719 155.6669158935547 88.13139343261719 C 155.52969360351562 90.8862533569336 155.07196044921875 93.48750305175781 153.7113037109375 95.92891693115234 C 153.00094604492188 97.20303344726562 152.08941650390625 98.37422180175781 150.98760986328125 99.33409118652344 C 149.952880859375 100.23471069335938 148.74972534179688 100.94895935058594 147.43820190429688 101.36222839355469 C 139.3482666015625 103.91279602050781 133.83229064941406 95.15228271484375 133.83229064941406 88.13139343261719 C 133.83229064941406 81.11050415039062 139.34982299804688 72.35310363769531 147.43820190429688 74.90289306640625 C 148.74896240234375 75.316162109375 149.952880859375 76.03041076660156 150.98760986328125 76.9310302734375 C 152.08941650390625 77.89089965820312 153.00094604492188 79.06208801269531 153.7113037109375 80.3362045288086 C 155.07196044921875 82.7768325805664 155.52969360351562 85.37652587890625 155.6669158935547 88.13139343261719 C 155.6669158935547 88.13139343261719 155.6669158935547 88.13139343261719 155.6669158935547 88.13139343261719" stroke-width="0.0" fill="rgb(89, 89, 89)" opacity="1.0" stroke="rgb(0, 0, 0)" stroke-opacity="1.0" stroke-linecap="round" stroke-linejoin="round"/>
    <path d="M 147.4803009033203 82.67234802246094 C 147.4803009033203 82.67234802246094 147.4803009033203 82.67234802246094 147.4803009033203 82.67234802246094 C 147.1481170654297 83.91761016845703 147.3009490966797 84.4548568725586 146.06504821777344 85.09971618652344 C 144.2271728515625 86.05958557128906 142.02203369140625 84.75115966796875 142.02203369140625 82.67234802246094 C 142.02203369140625 80.59352111816406 144.22872924804688 79.28899383544922 146.06504821777344 80.247314453125 C 147.3009490966797 80.89138793945312 147.1481170654297 81.4278564453125 147.4803009033203 82.67234802246094 C 147.4803009033203 82.67234802246094 147.4803009033203 82.67234802246094 147.4803009033203 82.67234802246094" stroke-width="0.0" fill="rgb(255, 255, 255)" opacity="1.0" stroke="rgb(0, 0, 0)" stroke-opacity="1.0" stroke-linecap="round" stroke-linejoin="round"/>
  </g>
</svg>
