<?xml version="1.0" ?>
<svg xmlns="http://www.w3.org/2000/svg" version="1.1" width="224" height="224">
  <defs/>
  <g>
    <path d="M 86.14933776855469 36.71180725097656 C 104.20022583007812 36.71180725097656 122.25111389160156 36.71180725097656 140.30287170410156 36.71180725097656 C 143.76866149902344 36.812477111816406 147.1226043701172 37.280555725097656 150.3973846435547 38.46965789794922 C 162.39517211914062 42.82599639892578 169.37838745117188 54.32129669189453 169.2398681640625 66.82157897949219 C 168.03440856933594 96.94081115722656 166.82981872558594 127.06004333496094 165.62521362304688 157.1792755126953 C 164.74586486816406 169.93423461914062 156.74734497070312 181.220458984375 144.5370330810547 185.53292846679688 C 141.21749877929688 186.70481872558594 137.82742309570312 187.18666076660156 134.32290649414062 187.28817749023438 C 120.25836944580078 187.28817749023438 106.19384002685547 187.28817749023438 92.12930297851562 187.28817749023438 C 88.621337890625 187.18666076660156 85.22867584228516 186.70481872558594 81.90657043457031 185.53118896484375 C 69.69798278808594 181.21873474121094 61.70289611816406 169.93167114257812 60.82698059082031 157.1792755126953 C 59.621524810791016 127.06004333496094 58.41692352294922 96.94081115722656 57.21232986450195 66.82157897949219 C 57.072078704833984 54.319576263427734 64.0337905883789 42.820838928222656 76.04104614257812 38.46794128417969 C 79.32012939453125 37.278831481933594 82.67923736572266 36.812477111816406 86.14933776855469 36.71180725097656 C 86.14933776855469 36.71180725097656 86.14933776855469 36.71180725097656 86.14933776855469 36.71180725097656" stroke-width="0.0" fill="rgb(89, 89, 89)" opacity="1.0" stroke="rgb(0, 0, 0)" stroke-opacity="1.0" stroke-linecap="round" stroke-linejoin="round"/>
    <path d="M 146.3525390625 36.71180725097656 C 159.41293334960938 36.71180725097656 172.47250366210938 36.71180725097656 185.5329132080078 36.71180725097656 C 187.38369750976562 36.82710266113281 189.10971069335938 36.963050842285156 190.81851196289062 37.76152801513672 C 196.0 40.182777404785156 195.53536987304688 45.614646911621094 193.53488159179688 50.05530548095703 C 187.24343872070312 62.00835418701172 180.95286560058594 73.9622573852539 174.66229248046875 85.9161605834961 C 173.41380310058594 87.82373046875 171.38922119140625 90.4282455444336 168.91033935546875 88.4578628540039 C 168.5033416748047 88.13434600830078 168.1522979736328 87.735107421875 167.857177734375 87.30747985839844 C 167.49148559570312 86.77916717529297 167.24713134765625 86.17601013183594 166.94253540039062 85.6107177734375 C 160.0789031982422 69.31165313720703 153.2161407470703 53.0117301940918 146.3525390625 36.71180725097656" stroke-width="0.0" fill="rgb(151, 151, 151)" opacity="1.0" stroke="rgb(0, 0, 0)" stroke-opacity="1.0" stroke-linecap="round" stroke-linejoin="round"/>
    <path d="M 38.467071533203125 36.71180725097656 C 51.52663040161133 36.71180725097656 64.58704376220703 36.71180725097656 77.6474609375 36.71180725097656 C 70.78384399414062 53.0117301940918 63.921077728271484 69.31165313720703 57.05745315551758 85.6107177734375 C 56.75286102294922 86.17601013183594 56.50849914550781 86.77916717529297 56.142818450927734 87.30747985839844 C 55.84769058227539 87.735107421875 55.49577713012695 88.13434600830078 55.08879470825195 88.4578628540039 C 52.61076736450195 90.4282455444336 50.58618927001953 87.82373046875 49.337703704833984 85.9161605834961 C 43.04540252685547 73.9622573852539 36.75310516357422 62.00835418701172 30.460800170898438 50.05530548095703 C 28.4620361328125 45.61378479003906 27.99999237060547 40.182777404785156 33.18147277832031 37.76152801513672 C 34.890281677246094 36.963050842285156 36.616294860839844 36.82710266113281 38.467071533203125 36.71180725097656 C 38.467071533203125 36.71180725097656 38.467071533203125 36.71180725097656 38.467071533203125 36.71180725097656" stroke-width="0.0" fill="rgb(151, 151, 151)" opacity="1.0" stroke="rgb(0, 0, 0)" stroke-opacity="1.0" stroke-linecap="round" stroke-linejoin="round"/>
    <path d="M 107.98179626464844 142.11492919921875 C 111.51729583740234 142.11492919921875 115.05278778076172 142.11492919921875 118.58741760253906 142.11492919921875 C 119.17079162597656 142.2052764892578 119.77996826171875 142.1949462890625 120.33838653564453 142.38595581054688 C 122.84481048583984 143.24465942382812 122.4249267578125 145.4869384765625 121.73486328125 147.43667602539062 C 119.86859130859375 150.91709899902344 118.00147247314453 154.3966522216797 116.13520812988281 157.8770751953125 C 114.97879028320312 159.43704223632812 113.3818359375 161.08905029296875 111.48115539550781 159.28904724121094 C 111.05609893798828 158.8863525390625 110.78335571289062 158.34774780273438 110.43401336669922 157.8770751953125 C 108.56861114501953 154.3966522216797 106.70320892333984 150.91709899902344 104.83779907226562 147.43667602539062 C 104.14773559570312 145.48866271972656 103.72527313232422 143.2455291748047 106.2308349609375 142.38682556152344 C 106.78924560546875 142.1949462890625 107.39842987060547 142.2052764892578 107.98179626464844 142.11492919921875 C 107.98179626464844 142.11492919921875 107.98179626464844 142.11492919921875 107.98179626464844 142.11492919921875" stroke-width="0.0" fill="rgb(151, 151, 151)" opacity="1.0" stroke="rgb(0, 0, 0)" stroke-opacity="1.0" stroke-linecap="round" stroke-linejoin="round"/>
    <path d="M 83.10945129394531 154.1600341796875 C 83.10945129394531 154.1600341796875 83.10945129394531 154.1600341796875 83.10945129394531 154.1600341796875 C 83.66700744628906 154.2718963623047 84.27360534667969 154.2409210205078 84.78211975097656 154.49473571777344 C 86.48490142822266 155.34657287597656 86.0684585571289 157.593994140625 86.20440673828125 159.0963134765625 C 86.35411071777344 160.7371368408203 86.71894073486328 162.3831329345703 87.45976257324219 163.86566162109375 C 89.80012512207031 168.54637145996094 95.31890869140625 169.57113647460938 100.0934066772461 169.13662719726562 C 105.0778579711914 168.6831817626953 108.87406158447266 165.88336181640625 109.87989807128906 160.85330200195312 C 110.20771789550781 159.21246337890625 109.7912826538086 157.01492309570312 110.54931640625 155.49887084960938 C 111.29530334472656 154.00689697265625 113.56769561767578 153.8287811279297 114.89877319335938 154.49473571777344 C 116.93453979492188 155.51263427734375 116.2092056274414 159.03866577148438 116.57144165039062 160.85330200195312 C 117.57727813720703 165.88336181640625 121.37434387207031 168.6831817626953 126.35879516601562 169.13662719726562 C 131.78378295898438 169.63050842285156 137.6820068359375 168.1239013671875 139.57493591308594 162.443359375 C 140.29339599609375 160.28713989257812 139.67388916015625 157.4744110107422 140.66165161132812 155.49887084960938 C 141.58920288085938 153.6446533203125 145.08941650390625 153.6446533203125 146.01609802246094 155.49887084960938 C 146.70272827148438 156.87210083007812 146.3301544189453 158.95950317382812 146.0892333984375 160.390380859375 C 145.21246337890625 165.60888671875 141.83355712890625 170.22764587402344 137.2862091064453 172.8906707763672 C 128.92372131347656 177.78993225097656 118.73712921142578 174.73800659179688 113.2260971069336 167.21786499023438 C 113.2260971069336 167.21786499023438 113.2260971069336 167.21786499023438 113.2260971069336 167.21786499023438 C 111.26174926757812 169.89724731445312 108.8473892211914 172.18341064453125 105.80836486816406 173.6099853515625 C 97.86920928955078 177.33477783203125 88.32449340820312 174.54527282714844 83.29960632324219 167.48977661132812 C 81.47893524169922 164.93344116210938 80.41632080078125 161.93313598632812 80.16248321533203 158.8080596923828 C 80.04547119140625 157.36167907714844 79.83724975585938 155.29408264160156 81.43592071533203 154.49473571777344 C 81.94442749023438 154.2409210205078 82.55189514160156 154.2718963623047 83.10945129394531 154.1600341796875 C 83.10945129394531 154.1600341796875 83.10945129394531 154.1600341796875 83.10945129394531 154.1600341796875" stroke-width="0.0" fill="rgb(151, 151, 151)" opacity="1.0" stroke="rgb(0, 0, 0)" stroke-opacity="1.0" stroke-linecap="round" stroke-linejoin="round"/>
    <path d="M 98.16949462890625 96.94253540039062 C 98.16949462890625 96.94253540039062 98.16949462890625 96.94253540039062 98.16949462890625 96.94253540039062 C 97.86662292480469 101.06741333007812 96.26106262207031 104.7233657836914 92.68169403076172 107.04824829101562 C 84.81137084960938 112.16089630126953 74.0758285522461 106.31343841552734 74.0758285522461 96.94253540039062 C 74.0758285522461 87.57077026367188 84.81309509277344 81.72932434082031 92.68169403076172 86.83853912353516 C 96.26106262207031 89.16341400146484 97.86662292480469 92.8176498413086 98.16949462890625 96.94253540039062 C 98.16949462890625 96.94253540039062 98.16949462890625 96.94253540039062 98.16949462890625 96.94253540039062" stroke-width="0.0" fill="rgb(255, 255, 255)" opacity="1.0" stroke="rgb(0, 0, 0)" stroke-opacity="1.0" stroke-linecap="round" stroke-linejoin="round"/>
    <path d="M 89.13243103027344 99.95574188232422 C 89.13243103027344 99.95574188232422 89.13243103027344 99.95574188232422 89.13243103027344 99.95574188232422 C 88.83902740478516 102.13951110839844 88.16961669921875 103.97824096679688 86.14933776855469 105.15615844726562 C 82.20256042480469 107.45694732666016 77.08560180664062 104.52460479736328 77.08560180664062 99.95574188232422 C 77.08560180664062 95.38602447509766 82.20256042480469 92.45454406738281 86.14933776855469 94.75447082519531 C 88.16961669921875 95.93238830566406 88.83902740478516 97.77198028564453 89.13243103027344 99.95574188232422 C 89.13243103027344 99.95574188232422 89.13243103027344 99.95574188232422 89.13243103027344 99.95574188232422" stroke-width="0.0" fill="rgb(89, 89, 89)" opacity="1.0" stroke="rgb(0, 0, 0)" stroke-opacity="1.0" stroke-linecap="round" stroke-linejoin="round"/>
    <path d="M 149.36228942871094 96.94253540039062 C 149.36228942871094 96.94253540039062 149.36228942871094 96.94253540039062 149.36228942871094 96.94253540039062 C 149.06028747558594 101.06741333007812 147.45645141601562 104.7233657836914 143.876220703125 107.04824829101562 C 136.00588989257812 112.16089630126953 125.27207946777344 106.31343841552734 125.27207946777344 96.94253540039062 C 125.27207946777344 87.57162475585938 136.0076141357422 81.72846984863281 143.876220703125 86.83853912353516 C 147.45559692382812 89.16341400146484 149.06028747558594 92.8176498413086 149.36228942871094 96.94253540039062 C 149.36228942871094 96.94253540039062 149.36228942871094 96.94253540039062 149.36228942871094 96.94253540039062" stroke-width="0.0" fill="rgb(255, 255, 255)" opacity="1.0" stroke="rgb(0, 0, 0)" stroke-opacity="1.0" stroke-linecap="round" stroke-linejoin="round"/>
    <path d="M 140.3295440673828 99.95574188232422 C 140.3295440673828 99.95574188232422 140.3295440673828 99.95574188232422 140.3295440673828 99.95574188232422 C 140.0352783203125 102.1386489868164 139.36585998535156 103.97824096679688 137.3455810546875 105.15615844726562 C 133.3988037109375 107.45694732666016 128.28184509277344 104.52460479736328 128.28184509277344 99.95574188232422 C 128.28184509277344 95.38602447509766 133.3988037109375 92.45454406738281 137.3455810546875 94.75447082519531 C 139.36585998535156 95.93238830566406 140.0352783203125 97.77198028564453 140.3295440673828 99.95574188232422 C 140.3295440673828 99.95574188232422 140.3295440673828 99.95574188232422 140.3295440673828 99.95574188232422" stroke-width="0.0" fill="rgb(89, 89, 89)" opacity="1.0" stroke="rgb(0, 0, 0)" stroke-opacity="1.0" stroke-linecap="round" stroke-linejoin="round"/>
  </g>
</svg>
