<?xml version="1.0" ?>
<svg xmlns="http://www.w3.org/2000/svg" version="1.1" width="224" height="224">
  <defs/>
  <g>
    <path d="M 91.76130676269531 191.94500732421875 C 61.572715759277344 185.32852172851562 38.910911560058594 164.095947265625 30.792007446289062 135.12586975097656 C 29.36035919189453 128.4738311767578 28.561981201171875 125.50149536132812 28.0 112.56715393066406 C 28.775596618652344 95.27928924560547 30.06818389892578 90.28435516357422 36.184486389160156 75.65083312988281 C 46.48115921020508 54.783935546875 65.2060546875 39.62799835205078 87.99996185302734 33.89087677001953 C 98.61219787597656 30.700881958007812 116.286865234375 30.53167724609375 127.69622802734375 33.589500427246094 C 150.94276428222656 39.25459289550781 170.4527130126953 54.757747650146484 180.7960205078125 75.77175903320312 C 186.86831665039062 88.62014770507812 188.8171844482422 97.08113098144531 189.18695068359375 112.44548797607422 C 188.71115112304688 127.90579223632812 186.81007385253906 136.14122009277344 180.13613891601562 150.2168731689453 C 175.4584197998047 158.7550506591797 173.907958984375 161.03660583496094 165.78427124023438 169.7469482421875 C 154.63308715820312 180.1807098388672 146.84803771972656 184.9375457763672 133.103759765625 189.8111572265625 C 124.64309692382812 192.4976806640625 122.45022583007812 193.000732421875 110.68534088134766 193.46832275390625 C 101.27168273925781 193.31800842285156 95.26681518554688 192.534912109375 91.76130676269531 191.94500732421875" stroke-width="1.0" fill="rgb(226, 25, 30)" opacity="0.9925176"/>
    <path d="M 90.1435317993164 183.93411254882812 C 62.902320861816406 176.84791564941406 42.374916076660156 155.79202270507812 36.83076477050781 129.2233428955078 C 34.70384979248047 119.44485473632812 34.92857360839844 102.79656982421875 37.38373565673828 93.99285125732422 C 42.8538818359375 72.40852355957031 55.73628616333008 56.15098571777344 75.3348388671875 46.283851623535156 C 87.73587036132812 40.72051239013672 94.18550109863281 39.31262969970703 107.73527526855469 38.82227325439453 C 119.59382629394531 39.138328552246094 126.01286315917969 40.44145965576172 136.7876739501953 44.44468688964844 C 181.29371643066406 62.38779067993164 196.0 118.8438491821289 166.42507934570312 158.48046875 C 157.70904541015625 169.88796997070312 141.73526000976562 180.17831420898438 126.0141372680664 184.1803741455078 C 115.74778747558594 186.638671875 99.89998626708984 186.60691833496094 90.1435317993164 183.93411254882812" stroke-width="1.0" fill="rgb(232, 233, 234)" opacity="0.9952029"/>
    <path d="M 99.9431381225586 126.08174133300781 C 89.75951385498047 122.58267974853516 83.81466674804688 114.18266296386719 83.8886947631836 103.75969696044922 C 83.78176879882812 89.96553039550781 94.44735717773438 79.69918060302734 108.87734985351562 79.78338623046875 C 117.82923126220703 79.67683410644531 127.5843505859375 86.23018646240234 131.02340698242188 94.82627868652344 C 132.82371520996094 98.87408447265625 132.8074493408203 107.84729766845703 131.00413513183594 112.1316146850586 C 125.86396789550781 124.44454956054688 112.09601593017578 130.44683837890625 99.9431381225586 126.08174133300781" stroke-width="1.0" fill="rgb(227, 26, 30)" opacity="0.9931733"/>
    <path d="M 116.3801040649414 166.35377502441406 L 116.74662780761719 151.70037841796875 L 124.48487091064453 151.32064819335938 C 131.96560668945312 151.86192321777344 133.69732666015625 150.65911865234375 133.64747619628906 147.37948608398438 C 134.00091552734375 143.45936584472656 131.5699920654297 142.27496337890625 123.94023132324219 142.69491577148438 L 116.71603393554688 142.62762451171875 L 116.38795471191406 132.377685546875 L 120.64221954345703 130.77728271484375 C 131.87342834472656 127.34515380859375 139.31190490722656 115.84153747558594 139.19891357421875 103.72648620605469 C 139.23135375976562 91.91212463378906 131.6688690185547 80.28995513916016 120.85699462890625 76.26310729980469 C 117.15609741210938 75.10964965820312 116.06570434570312 74.34184265136719 116.1046142578125 72.08238220214844 C 116.62411499023438 69.3438720703125 116.94355010986328 69.06086730957031 121.12614440917969 69.32290649414062 C 125.6595230102539 69.46288299560547 126.08977508544922 69.79106903076172 133.01197814941406 76.8189697265625 L 139.86129760742188 84.19380187988281 L 143.21922302246094 80.5080795288086 L 146.45486450195312 77.48126983642578 L 143.85205078125 74.71231842041016 C 142.27413940429688 73.20869445800781 138.75436401367188 69.1839828491211 135.82211303710938 66.00424194335938 L 130.45303344726562 59.89826202392578 L 108.06126403808594 59.77469253540039 L 86.11454010009766 59.80250549316406 L 79.11512756347656 67.69950103759766 C 74.9741439819336 71.83566284179688 71.30506134033203 75.8848648071289 70.43403625488281 76.89286804199219 C 69.6972885131836 76.94667053222656 70.69102478027344 78.43818664550781 73.29722595214844 80.76821899414062 L 76.12670135498047 84.00527954101562 L 83.34149932861328 76.64134216308594 C 90.45647430419922 69.25467681884766 90.590576171875 69.15864562988281 95.46015930175781 69.391845703125 C 101.77656555175781 69.52828979492188 101.61576843261719 73.56309509277344 95.3987045288086 76.21470642089844 C 79.59858703613281 82.60807800292969 72.38334655761719 101.19102478027344 79.53147888183594 116.05868530273438 C 82.38377380371094 122.89505767822266 88.23394012451172 128.0414581298828 94.12984466552734 130.79745483398438 L 99.42920684814453 133.0751495361328 L 99.3294906616211 137.60389709472656 L 99.25092315673828 142.2361602783203 L 91.54779815673828 142.60206604003906 C 84.09982299804688 142.25497436523438 81.95773315429688 144.12493896484375 83.14421844482422 147.8700408935547 C 83.3802490234375 150.92977905273438 86.25912475585938 152.09410095214844 93.47918701171875 151.56076049804688 L 99.48108673095703 152.05105590820312 L 99.64521789550781 179.47491455078125 L 96.6251449584961 179.39869689941406 C 92.256591796875 179.16510009765625 79.57035064697266 174.87574768066406 73.36065673828125 170.9235382080078 C 65.23936462402344 166.5244598388672 53.87993240356445 155.08787536621094 49.49652099609375 146.95639038085938 C 47.44402313232422 143.67379760742188 44.76272964477539 137.65524291992188 43.42888641357422 133.53076171875 C 41.51197814941406 126.53224182128906 40.93107604980469 123.9942855834961 40.340240478515625 113.06475067138672 C 41.038917541503906 98.20699310302734 43.2450065612793 89.92352294921875 49.347320556640625 78.57144165039062 C 53.62238311767578 70.07632446289062 65.53754425048828 57.86644744873047 74.45623779296875 53.555477142333984 C 89.14506530761719 44.795654296875 107.84904479980469 42.02326965332031 123.46363830566406 46.04613494873047 C 136.78086853027344 49.5694694519043 146.035888671875 54.67784118652344 156.29742431640625 64.29157257080078 C 163.071533203125 71.30952453613281 165.29483032226562 74.39163208007812 168.6908721923828 80.94512176513672 C 174.10902404785156 92.72554016113281 175.711181640625 99.50363159179688 176.3917694091797 112.94438934326172 C 175.67991638183594 125.46416473388672 174.08798217773438 132.37059020996094 169.14456176757812 142.8681640625 C 160.8783416748047 159.86422729492188 144.16656494140625 173.5845184326172 125.51966094970703 178.1510467529297 C 121.1639175415039 179.19940185546875 117.53052520751953 180.09585571289062 117.0687026977539 180.16146850585938 C 116.6842041015625 180.28778076171875 116.35372161865234 174.09457397460938 116.3801040649414 166.35377502441406" stroke-width="1.0" fill="rgb(24, 199, 71)" opacity="0.9925336"/>
    <path d="M 104.64849090576172 107.50032806396484 C 97.46342468261719 100.56510162353516 91.5595703125 94.21675109863281 91.64720153808594 93.38751983642578 C 91.6604232788086 92.30593872070312 92.84819030761719 90.80120849609375 94.28877258300781 89.80570983886719 L 97.04704284667969 86.66622924804688 L 124.47162628173828 114.39554595947266 L 121.13189697265625 117.77011108398438 C 119.53092956542969 119.25575256347656 118.00493621826172 120.45783233642578 117.9662094116211 120.50338745117188 C 117.59756469726562 120.41485595703125 111.58233642578125 114.67975616455078 104.64849090576172 107.50032806396484" stroke-width="1.0" fill="rgb(252, 252, 253)" opacity="0.99352103"/>
  </g>
</svg>
