<?xml version="1.0" ?>
<svg xmlns="http://www.w3.org/2000/svg" version="1.1" width="224" height="224">
  <defs/>
  <g>
    <path d="M 86.97590637207031 170.91702270507812 C 86.91514587402344 168.26051330566406 88.06101989746094 167.05032348632812 92.09363555908203 166.07412719726562 L 95.220947265625 165.73789978027344 L 95.3616943359375 159.94456481933594 C 95.82767486572266 155.38827514648438 95.72672271728516 154.2261199951172 94.42796325683594 153.39077758789062 C 93.79916381835938 153.09571838378906 92.85713958740234 151.85565185546875 92.30144500732422 150.68141174316406 C 90.92108154296875 147.34500122070312 92.52581787109375 144.38092041015625 96.83098602294922 142.50717163085938 L 100.56034851074219 140.90609741210938 L 100.6572265625 135.8911895751953 C 100.8636474609375 130.72573852539062 100.65332794189453 129.50677490234375 98.4841537475586 128.1139678955078 C 94.59900665283203 124.2669448852539 96.57833099365234 118.91145324707031 102.43008422851562 116.98832702636719 C 103.86656951904297 116.47933959960938 104.04984283447266 115.76346588134766 104.05606842041016 110.61270904541016 C 104.25230407714844 105.67398071289062 104.00678253173828 104.35334777832031 101.77325439453125 103.0693588256836 C 98.49191284179688 99.79332733154297 99.48684692382812 95.17996978759766 104.1950454711914 93.12527465820312 C 106.66868591308594 91.91551208496094 106.92576599121094 91.85189819335938 107.1624755859375 85.97481536865234 C 107.06299591064453 80.6440658569336 106.33821868896484 80.13111877441406 104.385986328125 79.49797821044922 L 102.058837890625 78.12976837158203 L 105.0477066040039 75.43049621582031 C 107.43123626708984 72.89398193359375 107.64224243164062 72.34105682373047 107.21037292480469 66.30415344238281 C 107.60762023925781 60.907249450683594 107.25820922851562 59.69590377807617 105.32730102539062 58.795284271240234 C 104.47746276855469 57.793174743652344 103.85494995117188 56.4680290222168 104.02705383300781 55.61764144897461 C 103.91532135009766 54.8466682434082 106.06442260742188 52.31113815307617 109.18023681640625 49.99188995361328 C 111.59906768798828 47.55756378173828 113.55999755859375 44.9337043762207 113.2275390625 44.29488754272461 C 113.66577911376953 43.465606689453125 112.70523834228516 42.37370300292969 111.1112289428711 41.57135009765625 C 109.5066909790039 38.6786994934082 110.08515930175781 35.52698516845703 112.68049621582031 34.760955810546875 C 116.43448638916016 33.73059844970703 119.05604553222656 37.28785705566406 117.10198211669922 41.03414535522461 C 114.06058502197266 43.495853424072266 115.30341339111328 46.05375671386719 119.47917175292969 50.49732208251953 C 124.35540008544922 54.86454772949219 124.95994567871094 55.57376480102539 122.65631103515625 59.0241584777832 C 120.57659912109375 60.72822570800781 120.34075164794922 62.40910339355469 121.01530456542969 66.73650360107422 C 120.537353515625 71.30282592773438 120.5948715209961 72.36851501464844 122.85620880126953 74.92547607421875 L 125.89530181884766 77.62049865722656 L 123.46356201171875 79.47367858886719 C 121.35440826416016 80.09904479980469 121.1384506225586 80.4052963256836 121.27884674072266 85.87747192382812 C 121.15841674804688 92.07070922851562 121.21561431884766 92.17301940917969 123.80317687988281 92.97499084472656 C 128.3761749267578 95.25714111328125 129.4744873046875 99.9754409790039 126.1739273071289 103.19255065917969 C 123.63953399658203 104.33008575439453 123.3303451538086 105.11522674560547 123.68624877929688 110.16411590576172 L 123.89246368408203 115.83506774902344 L 127.41011810302734 117.34913635253906 C 130.3772430419922 118.59356689453125 132.25930786132812 121.5574951171875 132.09832763671875 124.1279296875 C 132.10240173339844 124.9630126953125 131.19259643554688 126.65667724609375 129.7183074951172 128.31185913085938 C 127.2744140625 130.1076202392578 127.11376190185547 130.65789794921875 127.64640808105469 133.54074096679688 C 127.72569274902344 134.98028564453125 127.8405990600586 137.5272979736328 127.84920501708984 139.09593200683594 C 128.0778350830078 141.60067749023438 128.43865966796875 141.92169189453125 130.18113708496094 141.93701171875 C 136.11480712890625 143.4498748779297 138.7707977294922 149.27728271484375 134.51466369628906 152.58615112304688 C 132.12344360351562 154.60243225097656 131.9421844482422 165.57948303222656 134.4512481689453 165.75909423828125 C 139.71060180664062 166.97866821289062 140.9600830078125 167.710693359375 140.7052001953125 170.3754119873047 C 140.26766967773438 172.24456787109375 138.94435119628906 171.74102783203125 113.89960479736328 171.67330932617188 C 91.07299041748047 171.6476287841797 87.53842163085938 172.16656494140625 86.97590637207031 170.91702270507812" stroke-width="1.0" fill="rgb(232, 56, 46)" opacity="0.992088"/>
    <path d="M 126.09334564208984 67.45564270019531 C 124.81342315673828 64.42245483398438 126.21581268310547 63.611331939697266 133.09750366210938 63.52486038208008 L 139.534912109375 63.53767395019531 L 140.71188354492188 60.646034240722656 C 142.6451416015625 56.24089050292969 147.28485107421875 51.39818572998047 152.09716796875 49.12617492675781 C 162.68028259277344 44.2153205871582 175.10836791992188 48.54029083251953 180.56021118164062 59.341609954833984 L 182.69032287597656 63.29148483276367 L 189.38719177246094 63.61428451538086 C 195.80654907226562 64.00279998779297 195.97891235351562 64.06224822998047 195.99551391601562 66.16854858398438 L 196.0 68.56362915039062 L 161.19415283203125 68.75576782226562 C 130.86703491210938 68.80924987792969 126.37361907958984 68.57807159423828 126.09334564208984 67.45564270019531" stroke-width="1.0" fill="rgb(254, 254, 254)" opacity="0.99875027"/>
    <path d="M 28.00714111328125 102.02017211914062 C 28.07549285888672 100.58631134033203 28.755935668945312 100.33070373535156 33.10236358642578 100.24365234375 C 37.94940948486328 99.87702941894531 38.06709289550781 99.73699951171875 39.243263244628906 97.45221710205078 C 42.85899353027344 89.52713775634766 51.91258239746094 85.44853973388672 59.39427185058594 88.19212341308594 C 62.74429702758789 89.48300170898438 66.51822662353516 93.11493682861328 68.53578186035156 97.21015167236328 C 69.97848510742188 100.24262237548828 70.31985473632812 100.35516357421875 74.38874816894531 100.50829315185547 C 78.50135803222656 100.38783264160156 78.91661071777344 100.66568756103516 78.89714050292969 102.11786651611328 C 78.82518005371094 103.89629364013672 78.20562744140625 104.07926177978516 53.34004592895508 103.9661636352539 C 28.82062530517578 103.940185546875 28.0 103.7020492553711 28.00714111328125 102.02017211914062" stroke-width="1.0" fill="rgb(253, 254, 254)" opacity="0.9968854"/>
    <path d="M 76.572021484375 180.79095458984375 L 76.51641082763672 171.56541442871094 L 113.99565124511719 171.58657836914062 L 150.54322814941406 171.8326416015625 L 150.66700744628906 180.9663543701172 L 151.10704040527344 190.16934204101562 L 76.63140869140625 190.2694091796875 L 76.572021484375 180.79095458984375" stroke-width="1.0" fill="rgb(254, 254, 254)" opacity="0.992929"/>
  </g>
</svg>
