<?xml version="1.0" ?>
<svg xmlns="http://www.w3.org/2000/svg" version="1.1" width="224" height="224">
  <defs/>
  <g>
    <path d="M 45.383384704589844 178.6080780029297 C 45.1400146484375 162.5545654296875 45.649497985839844 162.37594604492188 48.12693405151367 157.92626953125 C 50.61375427246094 151.7037353515625 54.16378402709961 148.50424194335938 62.25849151611328 145.3997039794922 C 65.67831420898438 144.33363342285156 69.41985321044922 142.82171630859375 70.77171325683594 142.67738342285156 C 71.4892578125 142.14707946777344 74.74032592773438 140.8403778076172 77.9505615234375 139.5751495361328 C 85.12246704101562 136.8585968017578 89.24553680419922 135.33920288085938 92.8127212524414 132.64268493652344 C 95.45024108886719 130.03607177734375 96.25126647949219 130.13168334960938 112.71337127685547 130.48721313476562 C 127.88664245605469 130.275634765625 129.9541778564453 130.04513549804688 131.1959228515625 132.35977172851562 C 133.3969268798828 134.33151245117188 143.51364135742188 138.6337127685547 148.34158325195312 140.349853515625 C 157.45230102539062 143.35133361816406 169.31314086914062 148.2653350830078 172.19654846191406 151.71682739257812 C 177.27749633789062 158.12205505371094 178.7249298095703 161.04931640625 178.6946258544922 178.96656799316406 L 178.8599853515625 196.0 L 45.41206359863281 195.983154296875 L 45.383384704589844 178.6080780029297" stroke-width="0.0" fill="rgb(253, 148, 58)" opacity="0.9969547"/>
    <path d="M 105.78912353515625 136.905517578125 C 102.11991882324219 136.13162231445312 97.39009094238281 132.9604034423828 95.77960968017578 130.59902954101562 C 95.22842407226562 129.39797973632812 95.80184936523438 127.82417297363281 96.35091400146484 125.93179321289062 C 97.77079772949219 120.603271484375 97.13641357421875 116.93251037597656 91.20991516113281 111.65664672851562 C 88.13484191894531 108.47955322265625 85.61548614501953 104.35442352294922 84.43801879882812 103.08679962158203 C 84.47459411621094 101.19134521484375 82.33473205566406 97.2694091796875 78.77470397949219 95.79493713378906 C 74.72782897949219 92.34224700927734 74.48023986816406 90.7242660522461 74.29251098632812 87.85995483398438 C 74.50045776367188 85.08894348144531 75.51393127441406 83.96251678466797 85.3851318359375 73.45266723632812 C 91.26609802246094 67.2569351196289 97.41726684570312 61.5723876953125 98.01396942138672 60.98440933227539 C 99.37446594238281 60.51426315307617 105.70962524414062 62.34370422363281 110.96186065673828 64.58605194091797 C 112.44657135009766 65.08439636230469 115.31253051757812 66.20044708251953 117.5141830444336 67.1436996459961 C 122.56951141357422 68.35769653320312 141.69688415527344 75.21034240722656 144.39382934570312 76.51227569580078 C 147.21107482910156 78.7525634765625 151.63804626464844 85.65301513671875 151.57730102539062 88.17453002929688 C 151.41285705566406 90.35699462890625 150.59381103515625 92.10423278808594 147.61178588867188 95.05467224121094 C 144.6793670654297 96.4623031616211 142.0740966796875 100.30361938476562 141.76333618164062 102.7735595703125 C 140.65234375 104.93682098388672 137.119873046875 109.46878051757812 133.81826782226562 113.14894104003906 C 126.18711853027344 118.47044372558594 126.32731628417969 119.53276824951172 128.00762939453125 126.47063446044922 C 129.10914611816406 130.510498046875 128.29591369628906 132.10650634765625 124.48303985595703 134.55694580078125 C 118.38360595703125 138.14588928222656 111.21728515625 138.81314086914062 105.78912353515625 136.905517578125" stroke-width="0.0" fill="rgb(238, 206, 184)" opacity="0.9885216"/>
    <path d="M 126.01095581054688 90.20955657958984 C 124.09590148925781 88.34257507324219 124.67467498779297 82.92829132080078 126.80494689941406 81.90444946289062 C 132.42564392089844 78.8333511352539 138.2334442138672 85.02644348144531 133.7328338623047 89.6729965209961 C 132.03933715820312 91.35818481445312 127.64541625976562 91.59059143066406 126.01095581054688 90.20955657958984" stroke-width="1.0" fill="rgb(134, 85, 136)" opacity="0.97638017"/>
    <path d="M 97.07638549804688 84.44197845458984 C 96.05999755859375 83.50843048095703 95.31721496582031 81.67913055419922 95.30355834960938 80.89354705810547 C 95.3525161743164 79.76023864746094 96.06895446777344 78.19205474853516 97.12191009521484 77.26234436035156 C 98.02408599853516 76.315673828125 99.60819244384766 75.54244995117188 100.7158203125 75.57444763183594 C 101.51997375488281 75.61903381347656 103.35292053222656 76.35274505615234 104.2920913696289 77.36388397216797 C 105.14398956298828 78.17204284667969 105.9338607788086 79.74832916259766 105.97423553466797 80.94251251220703 C 106.03824615478516 81.68598175048828 105.20741271972656 83.31208801269531 104.25645446777344 84.44573211669922 C 103.22664642333984 85.41139221191406 101.48574829101562 86.16520690917969 100.6877670288086 86.22789001464844 C 99.66462707519531 86.11426544189453 98.16827392578125 85.3560562133789 97.07638549804688 84.44197845458984" stroke-width="1.0" fill="rgb(135, 87, 136)" opacity="0.95989805"/>
    <path d="M 76.600341796875 76.12542724609375 C 76.19873046875 72.68431091308594 76.11349487304688 64.54309844970703 75.99922180175781 57.10749816894531 C 76.48758697509766 42.8763427734375 77.15467834472656 41.4470329284668 82.70834350585938 37.473968505859375 C 85.82075500488281 35.36385726928711 110.89081573486328 28.0 114.76078796386719 28.046615600585938 C 120.059326171875 28.490570068359375 124.46502685546875 31.099899291992188 129.9772186279297 38.49664306640625 C 132.75765991210938 42.19516372680664 136.694091796875 46.40546417236328 138.54080200195312 47.64385223388672 C 140.28965759277344 48.41433334350586 142.0196990966797 49.458030700683594 141.95352172851562 50.130699157714844 C 141.88458251953125 51.42307662963867 133.36404418945312 58.48598098754883 128.60887145996094 61.270591735839844 C 117.45254516601562 66.69695281982422 107.88280487060547 67.71258544921875 101.23119354248047 63.47414016723633 L 98.13935852050781 61.053009033203125 L 96.03955841064453 64.12149047851562 C 89.1621322631836 73.45738983154297 79.98462677001953 82.18467712402344 78.13005065917969 81.92365264892578 C 77.260009765625 82.16693115234375 77.02445220947266 79.55816650390625 76.600341796875 76.12542724609375" stroke-width="1.0" fill="rgb(239, 218, 7)" opacity="0.9904055"/>
    <path d="M 144.52931213378906 78.27545928955078 L 142.69654846191406 75.40912628173828 L 138.7860107421875 76.8297348022461 C 131.7680206298828 78.83091735839844 123.3886947631836 76.40478515625 116.71601867675781 70.3073959350586 C 114.98912811279297 68.6707763671875 113.526611328125 67.13752746582031 113.4726791381836 66.7208251953125 C 113.13807678222656 66.52143096923828 115.1480484008789 65.78363037109375 117.54561614990234 65.25808715820312 C 125.23171997070312 63.557655334472656 132.9486541748047 59.36514663696289 138.43685913085938 54.05255126953125 L 143.33445739746094 48.87882995605469 L 145.76333618164062 51.45834732055664 C 149.14999389648438 55.55292510986328 150.1058807373047 59.92408752441406 148.79647827148438 68.5473861694336 C 148.39306640625 72.63673400878906 147.97679138183594 77.06399536132812 147.8551788330078 78.55033111572266 C 147.90155029296875 82.02367401123047 146.6183319091797 81.7726058959961 144.52931213378906 78.27545928955078" stroke-width="1.0" fill="rgb(146, 91, 56)" opacity="0.96610165"/>
  </g>
</svg>
