<?xml version="1.0" ?>
<svg xmlns="http://www.w3.org/2000/svg" version="1.1" width="224" height="224">
  <defs/>
  <g>
    <path d="M 71.03694152832031 100.92630004882812 L 70.81242370605469 90.94933319091797 L 76.83859252929688 87.0041275024414 C 79.77592468261719 85.10990905761719 82.56028747558594 83.56112670898438 83.07884979248047 83.64811706542969 C 83.68745422363281 83.5074462890625 84.05596160888672 89.74432373046875 84.50650024414062 97.31135559082031 L 84.85417175292969 111.27141571044922 L 71.5808334350586 111.75614929199219 L 71.03694152832031 100.92630004882812" stroke-width="1.0" fill="rgb(205, 121, 108)" opacity="0.9914574"/>
    <path d="M 28.111953735351562 140.20065307617188 L 28.0 122.31378936767578 L 34.21159362792969 116.65969848632812 C 37.65961456298828 113.39862060546875 40.907127380371094 110.91085815429688 41.423858642578125 110.7380142211914 C 41.91797637939453 110.86798095703125 45.16144561767578 113.09222412109375 48.50023651123047 116.41981506347656 L 54.65326690673828 122.16702270507812 L 54.586612701416016 158.18939208984375 L 28.1038818359375 158.3333740234375 L 28.111953735351562 140.20065307617188" stroke-width="1.0" fill="rgb(250, 204, 94)" opacity="0.99416876"/>
    <path d="M 81.67050170898438 97.92864990234375 C 81.7977523803711 84.22361755371094 81.59880065917969 83.18047332763672 84.53473663330078 82.12122344970703 C 86.04457092285156 81.36729431152344 89.81346130371094 79.3177490234375 92.64498901367188 77.19993591308594 L 97.39515686035156 73.83740234375 L 98.26841735839844 111.70852661132812 L 81.63217163085938 112.03485107421875 L 81.67050170898438 97.92864990234375" stroke-width="1.0" fill="rgb(250, 210, 96)" opacity="0.99928844"/>
    <path d="M 104.49530029296875 90.18466186523438 L 104.80406188964844 69.6340560913086 L 108.49596405029297 67.328857421875 C 112.01361083984375 65.53495025634766 112.0927963256836 65.41484069824219 116.1041030883789 68.08807373046875 L 119.77156829833984 70.35447692871094 L 119.71904754638672 111.26216125488281 L 104.36418151855469 111.19841003417969 L 104.49530029296875 90.18466186523438" stroke-width="1.0" fill="rgb(251, 209, 94)" opacity="0.99638397"/>
    <path d="M 128.24679565429688 93.58848571777344 L 127.88220977783203 75.32630920410156 L 132.02674865722656 78.083251953125 C 133.91384887695312 79.28176879882812 137.78956604003906 81.33058166503906 140.15200805664062 82.80021667480469 L 144.18109130859375 85.49913024902344 L 143.6723175048828 98.06346130371094 L 144.11978149414062 111.02938079833984 L 128.6262664794922 111.62434387207031 L 128.24679565429688 93.58848571777344" stroke-width="1.0" fill="rgb(250, 205, 93)" opacity="0.98451376"/>
    <path d="M 169.5661163330078 114.34078979492188 L 169.45132446289062 108.60993957519531 L 196.0 108.6056900024414 L 195.93234252929688 118.70272064208984 L 169.61705017089844 118.64640045166016 L 169.5661163330078 114.34078979492188" stroke-width="1.0" fill="rgb(210, 116, 110)" opacity="0.99574023"/>
    <path d="M 63.59870147705078 158.19927978515625 C 63.8070068359375 156.01873779296875 63.42090606689453 144.27735900878906 63.56829071044922 130.22354125976562 L 63.52913284301758 106.42964935302734 L 160.9345245361328 105.83143615722656 L 160.7884063720703 158.00636291503906 L 118.73971557617188 157.97628784179688 L 116.93395233154297 147.6149139404297 C 116.91255950927734 142.22982788085938 116.71631622314453 133.61183166503906 118.14570617675781 128.45497131347656 C 116.6526870727539 120.99340057373047 117.3811264038086 118.88111877441406 114.53801727294922 118.8818588256836 C 113.69945526123047 119.35356140136719 115.48748016357422 120.65675354003906 117.08978271484375 128.2942657470703 C 115.99793243408203 133.10162353515625 114.18467712402344 138.19781494140625 113.97285461425781 138.92385864257812 C 113.20628356933594 142.75958251953125 113.19835662841797 144.22177124023438 111.84554290771484 146.108154296875 C 112.65237426757812 146.09642028808594 114.34343719482422 148.8157958984375 116.6715316772461 152.45115661621094 L 115.0471420288086 157.43572998046875 L 90.401123046875 158.30213928222656 C 70.91493225097656 158.18881225585938 66.16098022460938 158.49754333496094 63.59870147705078 158.19927978515625" stroke-width="0.0" fill="rgb(242, 243, 242)" opacity="0.9941672"/>
    <path d="M 89.59424591064453 138.40628051757812 L 89.48579406738281 118.50834655761719 L 100.35485076904297 118.73591613769531 L 111.08563995361328 118.71278381347656 L 111.30339050292969 128.84527587890625 L 111.61714172363281 138.5798797607422 L 108.70267486572266 138.02662658691406 C 105.1853256225586 137.1313018798828 103.3424072265625 139.1641387939453 103.68733215332031 142.34146118164062 C 103.86904907226562 144.33078002929688 104.78781127929688 144.9042205810547 107.90129089355469 144.941650390625 L 111.50711059570312 144.68507385253906 L 111.4396743774414 158.5851593017578 L 89.5494155883789 158.23086547851562 L 89.59424591064453 138.40628051757812" stroke-width="1.0" fill="rgb(79, 210, 215)" opacity="0.9868324"/>
    <path d="M 113.53512573242188 157.2735595703125 C 112.82247161865234 156.70037841796875 112.69569396972656 147.50672912597656 112.89521789550781 137.41983032226562 L 112.76213836669922 118.94947052001953 L 134.78973388671875 118.69547271728516 L 134.8153533935547 158.41944885253906 L 123.34754943847656 158.5755157470703 C 116.4559326171875 158.51832580566406 113.45586395263672 158.16546630859375 113.53512573242188 157.2735595703125" stroke-width="0.0" fill="rgb(81, 209, 214)" opacity="0.9836226"/>
    <path d="M 103.6258544921875 141.73251342773438 C 104.26072692871094 137.90899658203125 106.06668090820312 137.03759765625 109.66102600097656 138.7181396484375 C 113.8991470336914 140.56614685058594 111.59616088867188 145.34718322753906 107.1268310546875 144.84841918945312 C 103.87588500976562 145.18301391601562 103.31746673583984 144.58517456054688 103.6258544921875 141.73251342773438" stroke-width="1.0" fill="rgb(213, 164, 70)" opacity="0.9667993"/>
    <path d="M 112.19520568847656 141.55210876464844 C 112.33367919921875 137.86407470703125 117.37713623046875 136.4540252685547 119.84789276123047 139.4385528564453 C 122.26712036132812 142.62803649902344 119.99989318847656 145.53335571289062 115.55455780029297 144.85848999023438 C 112.3951644897461 144.99964904785156 111.48540496826172 144.1845245361328 112.19520568847656 141.55210876464844" stroke-width="1.0" fill="rgb(228, 170, 75)" opacity="0.9643986"/>
    <path d="M 169.99063110351562 138.1895751953125 L 170.2095184326172 117.55133819580078 L 195.5828094482422 117.66831970214844 L 195.4319305419922 158.1920166015625 L 170.08741760253906 158.3334197998047 L 169.99063110351562 138.1895751953125" stroke-width="1.0" fill="rgb(249, 205, 94)" opacity="0.998558"/>
    <path d="M 63.55623245239258 101.15474700927734 C 63.19676208496094 95.86199188232422 63.518680572509766 95.3872299194336 67.39130401611328 93.1324691772461 C 69.11833190917969 91.89743041992188 71.10948944091797 90.9299545288086 71.56919860839844 90.58848571777344 C 71.95814514160156 90.60604095458984 72.0926513671875 94.43441772460938 71.57044982910156 99.0062026977539 L 71.5424575805664 106.7936019897461 L 63.160797119140625 106.93495178222656 L 63.55623245239258 101.15474700927734" stroke-width="1.0" fill="rgb(249, 205, 96)" opacity="0.9889548"/>
    <path d="M 37.54662322998047 135.37571716308594 C 37.47679901123047 131.1016845703125 37.990325927734375 130.76661682128906 40.72327423095703 130.4735870361328 C 43.91394805908203 130.25253295898438 44.30785369873047 130.114990234375 44.37835693359375 135.0645751953125 C 44.323116302490234 140.32476806640625 44.071144104003906 140.4628448486328 40.79161834716797 140.1204071044922 C 37.35809326171875 140.63870239257812 37.283538818359375 140.44882202148438 37.54662322998047 135.37571716308594" stroke-width="1.0" fill="rgb(55, 81, 128)" opacity="0.9844382"/>
    <path d="M 95.12873077392578 91.34843444824219 L 95.16752624511719 75.4884033203125 L 100.13639831542969 72.52326965332031 L 104.81981658935547 70.1357192993164 L 104.94129943847656 105.85028076171875 L 95.99854278564453 106.05135345458984 L 95.12873077392578 91.34843444824219" stroke-width="1.0" fill="rgb(207, 115, 103)" opacity="0.9467867"/>
    <path d="M 118.85263061523438 87.98880004882812 L 118.19257354736328 69.58631896972656 L 128.30482482910156 75.62718200683594 L 128.4340362548828 105.24929809570312 L 118.60203552246094 105.45037841796875 L 118.85263061523438 87.98880004882812" stroke-width="1.0" fill="rgb(215, 114, 100)" opacity="0.89894176"/>
    <path d="M 142.5189208984375 95.71902465820312 L 143.0665283203125 85.424560546875 L 147.55845642089844 87.92970275878906 L 152.75888061523438 90.68214416503906 L 153.1160125732422 105.62674713134766 L 143.21104431152344 105.88933563232422 L 142.5189208984375 95.71902465820312" stroke-width="1.0" fill="rgb(210, 114, 101)" opacity="0.9279124"/>
    <path d="M 69.01033020019531 145.98776245117188 C 68.65172576904297 145.0018310546875 68.58964538574219 139.3422393798828 68.68659210205078 132.1341552734375 L 68.48440551757812 118.81024932861328 L 84.42274475097656 118.81497192382812 L 84.43952941894531 146.1220703125 L 77.7209701538086 146.16799926757812 C 73.35758972167969 146.5458984375 69.61864471435547 146.427001953125 69.01033020019531 145.98776245117188" stroke-width="1.0" fill="rgb(39, 84, 179)" opacity="1.0"/>
    <path d="M 140.1713409423828 132.493408203125 L 140.16470336914062 118.81150817871094 L 155.7722930908203 118.82684326171875 L 155.76390075683594 146.0050811767578 L 140.05992126464844 146.12222290039062 L 140.1713409423828 132.493408203125" stroke-width="1.0" fill="rgb(40, 86, 177)" opacity="0.9895782"/>
    <path d="M 178.05593872070312 147.20553588867188 L 178.2537078857422 142.30775451660156 L 187.061279296875 141.9827117919922 L 187.2608642578125 152.16812133789062 L 178.32797241210938 152.12432861328125 L 178.05593872070312 147.20553588867188" stroke-width="1.0" fill="rgb(248, 251, 251)" opacity="1.0"/>
    <path d="M 178.4239501953125 128.31173706054688 L 178.06976318359375 122.80915832519531 L 187.41143798828125 123.19593811035156 L 187.08297729492188 128.09378051757812 L 186.65243530273438 133.37342834472656 L 182.5968017578125 133.5863494873047 L 178.28794860839844 133.63031005859375 L 178.4239501953125 128.31173706054688" stroke-width="1.0" fill="rgb(248, 248, 252)" opacity="0.9997736"/>
    <path d="M 152.50723266601562 98.43370819091797 L 151.84228515625 90.09033966064453 L 156.32235717773438 92.82038879394531 C 160.77427673339844 94.6648178100586 160.5647430419922 94.90652465820312 160.5489044189453 100.66764068603516 L 161.06594848632812 105.74764251708984 L 152.48828125 106.08314514160156 L 152.50723266601562 98.43370819091797" stroke-width="1.0" fill="rgb(251, 207, 91)" opacity="0.98933715"/>
  </g>
</svg>
