<?xml version="1.0" ?>
<svg xmlns="http://www.w3.org/2000/svg" version="1.1" width="224" height="224">
  <defs/>
  <g>
    <path d="M 45.1014404296875 195.99046325683594 C 45.08855438232422 195.2944793701172 45.27190399169922 184.90289306640625 45.14167022705078 172.31396484375 C 44.768768310546875 152.67201232910156 45.92588806152344 149.4187469482422 47.538570404052734 145.89370727539062 C 48.18882751464844 141.136474609375 58.007720947265625 129.3193817138672 61.16140365600586 127.82121276855469 C 61.84440612792969 127.4884262084961 82.49999237060547 127.2295150756836 112.39230346679688 127.62693786621094 L 162.65716552734375 127.20550537109375 L 167.54112243652344 132.09136962890625 C 170.47897338867188 134.62127685546875 173.51170349121094 138.3658447265625 175.18661499023438 142.82363891601562 L 178.67486572265625 150.58749389648438 L 179.23123168945312 195.91641235351562 L 112.5567626953125 195.89564514160156 C 75.87094116210938 196.0 46.285667419433594 195.9844512939453 45.1014404296875 195.99046325683594" stroke-width="0.0" fill="rgb(123, 5, 78)" opacity="0.9946661"/>
    <path d="M 84.2572021484375 142.87619018554688 C 82.58946228027344 141.31634521484375 81.45217895507812 119.6397476196289 80.81282043457031 80.83653259277344 C 80.71703338623047 53.61278533935547 81.4568862915039 49.86809539794922 87.065185546875 44.420589447021484 C 92.06306457519531 40.557884216308594 107.96617126464844 34.96925354003906 111.09197998046875 35.70991134643555 C 117.7161865234375 37.50642776489258 124.89997863769531 40.6442756652832 129.28903198242188 43.31502151489258 C 139.72463989257812 51.338191986083984 138.94073486328125 50.213626861572266 140.3091278076172 61.810787200927734 C 140.8089141845703 67.6215591430664 141.47964477539062 87.09481811523438 141.71438598632812 106.03070068359375 C 141.90577697753906 134.5947723388672 141.78961181640625 139.76852416992188 140.24978637695312 141.43856811523438 C 138.54397583007812 144.1565399169922 138.71157836914062 144.08746337890625 112.19679260253906 144.11204528808594 C 90.49330139160156 144.1040496826172 85.60559844970703 143.9231719970703 84.2572021484375 142.87619018554688" stroke-width="0.0" fill="rgb(237, 148, 24)" opacity="0.98284096"/>
    <path d="M 115.7885513305664 63.46500015258789 C 117.71908569335938 61.09885025024414 125.9870834350586 60.920692443847656 127.06414031982422 63.189395904541016 C 127.73822784423828 63.57644271850586 126.52590942382812 64.14187622070312 124.65223693847656 64.07807922363281 C 123.16680908203125 64.0328369140625 120.14744567871094 64.28773498535156 117.93997192382812 64.6370849609375 C 114.65118408203125 65.079345703125 114.23886108398438 65.0982894897461 115.7885513305664 63.46500015258789" stroke-width="1.0" fill="rgb(197, 115, 20)" opacity="0.99957323"/>
    <path d="M 90.8447036743164 69.31744384765625 C 90.279541015625 65.970703125 94.02333068847656 64.88310241699219 99.1786880493164 66.43341064453125 C 102.78340148925781 67.86402893066406 102.7751235961914 67.99331665039062 100.1328125 70.12837982177734 C 96.52201843261719 73.37579345703125 91.37835693359375 72.93453216552734 90.8447036743164 69.31744384765625" stroke-width="1.0" fill="rgb(44, 109, 150)" opacity="0.91177416"/>
    <path d="M 118.39537048339844 69.13887023925781 C 118.2511215209961 66.912841796875 119.60211181640625 65.71127319335938 121.43746948242188 65.864501953125 C 123.21990966796875 65.85547637939453 124.53508758544922 66.93181610107422 124.33661651611328 69.01554107666016 C 124.55032348632812 71.35050964355469 123.425537109375 72.37895202636719 121.60813903808594 72.5809326171875 C 119.72423553466797 72.58500671386719 118.59664154052734 71.362060546875 118.39537048339844 69.13887023925781" stroke-width="1.0" fill="rgb(16, 91, 154)" opacity="0.9276851"/>
    <path d="M 69.25233459472656 158.80795288085938 C 65.21182250976562 155.07839965820312 63.93657302856445 150.65371704101562 63.385623931884766 138.792724609375 C 63.052555084228516 129.6140899658203 62.72926712036133 128.89842224121094 66.9916763305664 122.69316101074219 C 69.00960540771484 120.1269302368164 69.870849609375 117.84217834472656 69.46725463867188 111.63838195800781 C 68.67192840576172 105.65092468261719 69.46531677246094 102.63228607177734 70.92806243896484 99.99925994873047 C 73.02275085449219 96.6209716796875 72.79340362548828 94.91889190673828 70.14910125732422 84.95084381103516 C 69.09056854248047 77.89400482177734 69.7112808227539 73.41151428222656 73.96926879882812 67.0514907836914 C 76.67561340332031 63.84271240234375 77.44876098632812 60.875911712646484 77.30785369873047 56.3983154296875 C 78.74217224121094 44.833744049072266 87.26286315917969 33.81458282470703 98.52633666992188 30.32013702392578 C 101.57200622558594 29.288597106933594 105.34917449951172 28.185943603515625 107.23492431640625 28.044334411621094 C 110.08512878417969 28.15052032470703 110.18966674804688 28.628639221191406 109.69928741455078 33.41810989379883 C 110.53575897216797 40.42953109741211 108.56964111328125 42.08828353881836 100.3490982055664 44.466514587402344 C 92.63628387451172 45.64505386352539 89.42228698730469 47.96953201293945 86.85137176513672 53.648216247558594 C 81.87701416015625 61.31686019897461 83.00247955322266 83.0396957397461 87.31905364990234 93.37311553955078 C 88.49248504638672 94.90496063232422 91.1398696899414 98.63191986083984 93.30589294433594 100.97955322265625 C 95.89749145507812 105.34657287597656 96.2479476928711 106.85006713867188 96.66786193847656 111.4267807006836 C 96.13446044921875 116.48912048339844 96.01941680908203 117.20772552490234 91.5318374633789 122.14199829101562 C 83.69445037841797 129.04263305664062 82.87467193603516 134.886474609375 86.72612762451172 142.25018310546875 C 87.49417877197266 144.58294677734375 88.35657501220703 148.04464721679688 88.30699157714844 151.05848693847656 C 88.11859893798828 155.24017333984375 87.54798889160156 156.39273071289062 84.6080551147461 159.10736083984375 C 81.96937561035156 161.6669464111328 80.81610107421875 162.18783569335938 76.92208099365234 161.98326110839844 C 73.08445739746094 162.01101684570312 72.13450622558594 161.59304809570312 69.25233459472656 158.80795288085938" stroke-width="1.0" fill="rgb(58, 36, 23)" opacity="0.9967055"/>
    <path d="M 139.90257263183594 159.8875732421875 C 134.67552185058594 155.66839599609375 134.49368286132812 150.85842895507812 137.8608856201172 142.46014404296875 C 141.78985595703125 134.7827911376953 141.6519317626953 132.50698852539062 137.16928100585938 125.816650390625 C 130.80740356445312 116.83595275878906 128.28048706054688 102.33638000488281 131.45982360839844 93.35945892333984 C 132.2318115234375 90.73164367675781 134.3307342529297 87.07559967041016 136.8180389404297 85.5607681274414 C 141.09933471679688 81.95857238769531 141.58111572265625 79.72815704345703 139.21429443359375 76.33236694335938 C 137.5022430419922 74.66050720214844 137.1191864013672 72.12417602539062 138.01425170898438 64.86927795410156 L 138.65089416503906 55.57346725463867 L 133.92202758789062 53.68790054321289 C 131.91578674316406 53.08258819580078 128.1671142578125 50.151405334472656 126.17654418945312 47.78144073486328 C 123.23764038085938 44.74669647216797 121.1297836303711 43.68843460083008 117.99609375 43.41616439819336 C 110.97127532958984 41.86016082763672 110.4429702758789 41.056095123291016 110.42963409423828 33.72042465209961 L 110.7193832397461 28.0 L 115.64600372314453 28.12812042236328 C 121.8196029663086 28.664566040039062 129.19610595703125 31.466121673583984 134.12155151367188 35.0285530090332 C 138.92678833007812 38.31449508666992 141.8729705810547 43.246315002441406 143.66824340820312 51.602516174316406 C 143.82098388671875 55.3717155456543 145.89833068847656 60.08911895751953 148.05923461914062 62.325035095214844 C 149.5816650390625 65.39661407470703 150.7977294921875 68.72792053222656 151.00637817382812 69.64950561523438 C 150.87039184570312 70.63423156738281 151.78823852539062 74.30348205566406 153.22023010253906 77.15068054199219 C 155.39085388183594 83.66127014160156 155.2278289794922 87.46973419189453 152.54165649414062 93.33712005615234 C 151.0811309814453 96.36536407470703 151.02215576171875 96.35919189453125 153.7374725341797 101.14116668701172 C 156.35606384277344 105.81525421142578 156.4893798828125 106.71798706054688 155.23345947265625 111.24797821044922 C 153.91407775878906 116.5252456665039 154.53675842285156 118.38298034667969 158.19430541992188 123.83314514160156 L 161.0398712158203 127.23554992675781 L 160.3011016845703 138.8621063232422 C 159.30340576171875 156.37960815429688 155.6627655029297 162.2948760986328 146.3662567138672 162.056640625 C 143.5177764892578 162.29818725585938 141.59117126464844 161.68125915527344 139.90257263183594 159.8875732421875" stroke-width="1.0" fill="rgb(57, 35, 23)" opacity="0.9971299"/>
  </g>
</svg>
