<?xml version="1.0" ?>
<svg xmlns="http://www.w3.org/2000/svg" version="1.1" width="224" height="224">
  <defs/>
  <g>
    <path d="M 78.42933654785156 193.20425415039062 C 77.14875030517578 192.2598876953125 76.00563049316406 190.46600341796875 75.47775268554688 189.1788330078125 C 75.20968627929688 188.1537628173828 71.67339324951172 160.48904418945312 67.6905288696289 127.56361389160156 C 63.631221771240234 94.51870727539062 59.97635269165039 67.19775390625 59.70992660522461 67.03999328613281 C 59.143653869628906 66.25161743164062 76.97777557373047 66.05947875976562 112.13245391845703 65.71934509277344 L 165.60369873046875 66.3578109741211 L 164.42938232421875 69.9600830078125 C 164.13694763183594 71.9510269165039 161.06924438476562 95.79820251464844 157.32164001464844 122.93157958984375 C 153.73817443847656 150.08395385742188 150.2725067138672 176.9361572265625 149.56634521484375 181.4864044189453 C 147.50921630859375 196.0 150.024169921875 195.11276245117188 112.6194076538086 195.07046508789062 C 82.72398376464844 195.09912109375 81.28134155273438 194.97596740722656 78.42933654785156 193.20425415039062" stroke-width="1.0" fill="rgb(94, 94, 92)" opacity="0.9882285"/>
    <path d="M 51.8065185546875 58.996822357177734 C 51.9522819519043 51.515445709228516 52.283531188964844 50.48126220703125 54.57249450683594 48.80124282836914 C 56.645015716552734 46.889671325683594 58.675148010253906 46.406036376953125 65.32859802246094 46.69850158691406 L 73.55220031738281 46.84489822387695 L 76.984130859375 39.25157165527344 C 78.51810455322266 35.03044128417969 81.08662414550781 31.029296875 82.36466979980469 29.911270141601562 C 85.81315612792969 27.99999237060547 138.5783233642578 28.035072326660156 141.8400421142578 29.995201110839844 C 143.2843475341797 30.896743774414062 145.8887939453125 34.96063995361328 147.34271240234375 39.51197814941406 L 150.78201293945312 46.795074462890625 L 158.44134521484375 46.561466217041016 C 165.49505615234375 46.42676544189453 167.74671936035156 46.7760124206543 169.9605255126953 48.693973541259766 C 171.96250915527344 50.53771209716797 172.1934814453125 51.50188446044922 172.15475463867188 58.83994674682617 L 172.113037109375 67.33094787597656 L 52.15987777709961 67.30511474609375 L 51.8065185546875 58.996822357177734" stroke-width="1.0" fill="rgb(54, 54, 53)" opacity="0.9910143"/>
    <path d="M 103.33455657958984 147.8492431640625 C 97.93671417236328 146.0553741455078 90.708984375 138.37940979003906 88.6717529296875 131.95382690429688 C 82.91654968261719 114.86572265625 96.4477767944336 98.12273406982422 114.71465301513672 99.74813842773438 C 129.0570526123047 101.10355377197266 139.32887268066406 114.63448333740234 137.16514587402344 128.69088745117188 C 135.11558532714844 140.5910186767578 125.02909851074219 149.22164916992188 112.998046875 149.01658630371094 C 109.6099853515625 148.89849853515625 105.26272583007812 148.4262237548828 103.33455657958984 147.8492431640625" stroke-width="1.0" fill="rgb(61, 199, 33)" opacity="0.98441964"/>
    <path d="M 113.93519592285156 136.59552001953125 C 113.5653076171875 136.49295043945312 113.25530242919922 134.70016479492188 113.0893783569336 133.3024139404297 C 113.08041381835938 131.13156127929688 112.60948944091797 130.7432861328125 110.54776763916016 131.02212524414062 C 107.35331726074219 130.85906982421875 100.24352264404297 123.00030517578125 100.91755676269531 119.5494384765625 C 100.48450469970703 116.02391052246094 102.41622161865234 117.07456970214844 106.009765625 121.43206787109375 C 110.45550537109375 127.16656494140625 112.74378204345703 128.12741088867188 113.03712463378906 123.43939208984375 C 113.84593963623047 119.0088119506836 116.5322265625 118.60213470458984 117.23822021484375 122.93903350830078 C 117.67012786865234 124.88621520996094 118.71107482910156 127.00029754638672 120.18299102783203 127.0623779296875 C 123.193603515625 128.17196655273438 122.81905364990234 129.9599151611328 120.02891540527344 130.8622283935547 C 118.23836517333984 131.148681640625 117.78580474853516 132.2389678955078 117.69281768798828 134.3460235595703 C 117.54759979248047 137.3677215576172 115.74221801757812 138.3692169189453 113.93519592285156 136.59552001953125" stroke-width="1.0" fill="rgb(243, 246, 252)" opacity="0.98808867"/>
    <path d="M 117.29202270507812 122.02717590332031 C 115.22451782226562 116.68859100341797 116.00772094726562 116.4149398803711 120.41075897216797 120.66033935546875 C 123.55046844482422 123.30227661132812 123.908935546875 124.06241607666016 122.52816772460938 125.03691101074219 C 119.42436218261719 127.0624008178711 119.21350860595703 127.03338623046875 117.29202270507812 122.02717590332031" stroke-width="1.0" fill="rgb(235, 243, 239)" opacity="0.96329266"/>
  </g>
</svg>
