<?xml version="1.0" ?>
<svg xmlns="http://www.w3.org/2000/svg" version="1.1" width="224" height="224">
  <defs/>
  <g>
    <path d="M 162.0033721923828 84.22129821777344 C 162.0033721923828 84.22129821777344 162.0033721923828 84.22129821777344 162.0033721923828 84.22129821777344 C 165.14024353027344 82.03813171386719 169.26039123535156 81.83186340332031 171.93521118164062 84.97909545898438 C 172.77357482910156 85.96532440185547 172.810546875 86.31280517578125 173.31033325195312 87.50086212158203 C 180.37217712402344 110.66851043701172 187.43478393554688 133.83615112304688 194.4966278076172 157.00381469726562 C 195.07254028320312 159.76512145996094 194.5491180419922 161.8566131591797 192.7437286376953 164.0235137939453 C 185.27896118164062 171.48977661132812 177.8134307861328 178.95677185058594 170.34866333007812 186.42303466796875 C 167.58956909179688 188.6416778564453 163.98175048828125 189.33810424804688 161.00308227539062 186.9604949951172 C 159.937744140625 186.10955810546875 159.83941650390625 185.75247192382812 159.10232543945312 184.61541748046875 C 148.45335388183594 163.4912109375 137.8043975830078 142.3677520751953 127.1554183959961 121.2435531616211 C 125.89342498779297 117.99873352050781 126.43756103515625 115.26699829101562 128.843994140625 112.75113677978516 C 139.89663696289062 103.2406997680664 150.9499969482422 93.73100280761719 162.0033721923828 84.22129821777344" stroke-width="0.0" fill="rgb(167, 169, 172)" opacity="1.0" stroke="rgb(0, 0, 0)" stroke-opacity="1.0" stroke-linecap="round" stroke-linejoin="round"/>
    <path d="M 67.34109497070312 29.84900665283203 C 90.51021575927734 36.91234588623047 113.6793441772461 43.975677490234375 136.8477325439453 51.03826904296875 C 140.36978149414062 52.521324157714844 142.74591064453125 55.892555236816406 141.5201416015625 59.83527755737305 C 141.13571166992188 61.07139587402344 140.86216735839844 61.28801345825195 140.12655639648438 62.3452262878418 C 130.61537170410156 73.39859008789062 121.10493469238281 84.45196533203125 111.59375762939453 95.50459289550781 C 109.0786361694336 97.9103012084961 106.3469009399414 98.45442962646484 103.10208892822266 97.19316864013672 C 81.97862243652344 86.54493713378906 60.855899810791016 75.89671325683594 39.73242950439453 65.24848937988281 C 36.76042175292969 63.32258987426758 34.97425842285156 60.11325454711914 36.29761505126953 56.54018783569336 C 36.771507263183594 55.26266860961914 37.07758331298828 55.05862045288086 37.925567626953125 54.00288772583008 C 45.391822814941406 46.53663635253906 52.85807800292969 39.07038116455078 60.32433319091797 31.6041259765625 C 62.48976135253906 29.798736572265625 64.58126068115234 29.276046752929688 67.34109497070312 29.84900665283203 C 67.34109497070312 29.84900665283203 67.34109497070312 29.84900665283203 67.34109497070312 29.84900665283203" stroke-width="0.0" fill="rgb(188, 190, 192)" opacity="1.0" stroke="rgb(0, 0, 0)" stroke-opacity="1.0" stroke-linecap="round" stroke-linejoin="round"/>
    <path d="M 184.95144653320312 39.394195556640625 C 184.95144653320312 39.394195556640625 184.95144653320312 39.394195556640625 184.95144653320312 39.394195556640625 C 187.6809539794922 42.25975036621094 189.94619750976562 45.4210205078125 191.5076141357422 49.074668884277344 C 195.69207763671875 58.86900329589844 194.43008422851562 70.42658233642578 188.21548461914062 79.07720947265625 C 185.04534912109375 83.4908676147461 180.5496063232422 86.8029556274414 176.4678955078125 90.31614685058594 C 169.7342987060547 96.1123046875 162.9999542236328 101.90773010253906 156.26487731933594 107.70315551757812 C 151.88668823242188 111.47065734863281 147.50927734375 115.2374267578125 143.131103515625 119.00493621826172 C 136.6429443359375 124.58744049072266 130.154052734375 130.16993713378906 123.6658935546875 135.75244140625 C 121.7259521484375 137.4217987060547 119.78601837158203 139.09115600585938 117.84607696533203 140.759765625 C 116.10205078125 142.26055908203125 114.35802459716797 143.7613525390625 112.61326599121094 145.26214599609375 C 111.4643783569336 146.25132751464844 110.31475830078125 147.2397918701172 109.1651382446289 148.22897338867188 C 108.17520904541016 149.08065795898438 107.1860122680664 149.93234252929688 106.19608306884766 150.7832794189453 C 102.24227142333984 154.18556213378906 96.88156127929688 160.46893310546875 91.33602142333984 155.887451171875 C 90.32687377929688 155.0535125732422 90.23075866699219 154.71343994140625 89.52693939208984 153.61778259277344 C 87.42656707763672 149.4517822265625 85.32620239257812 145.28579711914062 83.22509765625 141.11981201171875 C 79.05909729003906 139.02017211914062 74.89311218261719 136.92054748535156 70.72711181640625 134.8216552734375 C 66.67793273925781 132.2215118408203 65.82107543945312 127.91134643554688 68.56538391113281 123.95902252197266 C 92.5307388305664 96.10565185546875 116.49610137939453 68.25228118896484 140.46145629882812 40.39891052246094 C 148.742431640625 31.22338104248047 162.2362518310547 28.00000762939453 173.806396484375 32.25249481201172 C 178.04409790039062 33.809471130371094 181.69775390625 36.29576110839844 184.95144653320312 39.394195556640625 C 184.95144653320312 39.394195556640625 184.95144653320312 39.394195556640625 184.95144653320312 39.394195556640625" stroke-width="0.0" fill="rgb(209, 211, 212)" opacity="1.0" stroke="rgb(0, 0, 0)" stroke-opacity="1.0" stroke-linecap="round" stroke-linejoin="round"/>
    <path d="M 184.948486328125 39.39715576171875 C 151.04019165039062 73.30470275878906 117.13190460205078 107.21224975585938 83.22286987304688 141.11981201171875 C 85.3232421875 145.28579711914062 87.42361450195312 149.4517822265625 89.52397918701172 153.61778259277344 C 90.22779846191406 154.71417236328125 90.32391357421875 155.0542449951172 91.33306884765625 155.88893127441406 C 96.87786865234375 160.4711456298828 102.23931884765625 154.1877899169922 106.19313049316406 150.78623962402344 C 107.18305969238281 149.935302734375 108.17224884033203 149.08360290527344 109.16217803955078 148.23193359375 C 110.31179809570312 147.24273681640625 111.46142578125 146.25428771972656 112.61030578613281 145.2650909423828 C 114.35507202148438 143.76431274414062 116.09909057617188 142.26351928710938 117.8431167602539 140.76272583007812 C 119.7830581665039 139.09410095214844 121.72299194335938 137.4247589111328 123.66293334960938 135.75538635253906 C 130.15109252929688 130.1728973388672 136.63998413085938 124.59039306640625 143.1281280517578 119.00788879394531 C 147.50631713867188 115.2403793334961 151.8837432861328 111.47361755371094 156.26190185546875 107.70610809326172 C 162.28135681152344 102.52578735351562 168.301513671875 97.34620666503906 174.32022094726562 92.16515350341797 C 178.29620361328125 88.74363708496094 182.74386596679688 85.50843048095703 186.23931884765625 81.5642318725586 C 192.06875610351562 74.98661804199219 194.83450317382812 66.03140258789062 193.73292541503906 57.311283111572266 C 193.36993408203125 54.43833923339844 192.5988311767578 51.618629455566406 191.449951171875 48.9608154296875 C 189.8914794921875 45.35596466064453 187.64990234375 42.22721862792969 184.948486328125 39.39715576171875 C 184.948486328125 39.39715576171875 184.948486328125 39.39715576171875 184.948486328125 39.39715576171875" stroke-width="0.0" fill="rgb(188, 190, 192)" opacity="1.0" stroke="rgb(0, 0, 0)" stroke-opacity="1.0" stroke-linecap="round" stroke-linejoin="round"/>
    <path d="M 56.903560638427734 112.1072006225586 C 68.47740173339844 117.94181060791016 80.05198669433594 123.77641296386719 91.6258316040039 129.61102294921875 C 93.01129150390625 130.456787109375 93.89180755615234 131.33804321289062 94.734619140625 132.72572326660156 C 100.5684814453125 144.299560546875 106.40308380126953 155.87339782714844 112.2376937866211 167.44725036621094 C 113.41171264648438 170.5471649169922 113.01766204833984 173.00091552734375 110.93355560302734 175.57814025878906 C 105.09895324707031 181.41275024414062 99.26434326171875 187.24734497070312 93.42974090576172 193.0812225341797 C 90.67064666748047 195.30062866210938 87.06356811523438 195.99777221679688 84.08416748046875 193.6194305419922 C 83.01882934570312 192.76849365234375 82.92049407958984 192.41213989257812 82.18341064453125 191.27508544921875 C 76.69554138183594 180.39175415039062 71.2076644897461 169.50917053222656 65.71905517578125 158.6265869140625 C 54.836463928222656 153.13870239257812 43.95313262939453 147.65158081054688 33.069801330566406 142.16444396972656 C 30.09705352783203 140.23855590820312 28.30792999267578 137.02847290039062 29.634246826171875 133.4546661376953 C 30.108139038085938 132.17715454101562 30.414955139160156 131.9730987548828 31.263671875 130.91810607910156 C 37.09828186035156 125.0842514038086 42.932891845703125 119.24964141845703 48.767494201660156 113.41503143310547 C 51.34693145751953 111.3316650390625 53.80143356323242 110.93688201904297 56.903560638427734 112.1072006225586 C 56.903560638427734 112.1072006225586 56.903560638427734 112.1072006225586 56.903560638427734 112.1072006225586" stroke-width="0.0" fill="rgb(188, 190, 192)" opacity="1.0" stroke="rgb(0, 0, 0)" stroke-opacity="1.0" stroke-linecap="round" stroke-linejoin="round"/>
    <path d="M 93.42974090576172 130.91810607910156 C 93.42974090576172 130.91810607910156 93.42974090576172 130.91810607910156 93.42974090576172 130.91810607910156 C 93.9117660522461 131.4844207763672 94.35091400146484 132.0906524658203 94.7375717163086 132.72572326660156 C 100.57144165039062 144.29881286621094 106.40604400634766 155.87118530273438 112.24065399169922 167.4442901611328 C 113.41097259521484 170.54568481445312 113.01840209960938 173.00018310546875 110.93355560302734 175.57814025878906 C 105.09895324707031 181.41348266601562 99.26434326171875 187.2488250732422 93.42974090576172 193.08416748046875 C 90.67064666748047 195.3043212890625 87.0643081665039 196.0 84.08564758300781 193.6223907470703 C 83.01956176757812 192.77145385742188 82.92123413085938 192.41510009765625 82.18341064453125 191.27804565429688 C 76.69627380371094 180.39398193359375 71.20913696289062 169.50991821289062 65.72201538085938 158.6265869140625 C 74.95816802978516 149.3904266357422 84.1935806274414 140.15426635742188 93.42974090576172 130.91810607910156" stroke-width="0.0" fill="rgb(167, 169, 172)" opacity="1.0" stroke="rgb(0, 0, 0)" stroke-opacity="1.0" stroke-linecap="round" stroke-linejoin="round"/>
  </g>
</svg>
