<?xml version="1.0" ?>
<svg xmlns="http://www.w3.org/2000/svg" version="1.1" width="224" height="224">
  <defs/>
  <g>
    <path d="M 54.672607421875 133.0885772705078 C 92.89136505126953 133.0885772705078 131.11012268066406 133.0885772705078 169.32887268066406 133.0885772705078 C 172.59425354003906 133.11978149414062 174.53668212890625 136.008544921875 176.5013885498047 138.29043579101562 C 180.5504150390625 142.99461364746094 184.45980834960938 147.82061767578125 188.436767578125 152.585693359375 C 190.25588989257812 154.76434326171875 192.82080078125 157.0009307861328 194.04345703125 159.59405517578125 C 196.0 163.74261474609375 192.6900634765625 167.32144165039062 188.73910522460938 167.83770751953125 C 137.5799560546875 167.83770751953125 86.42153930664062 167.83770751953125 35.26239776611328 167.83770751953125 C 31.312904357910156 167.32144165039062 28.0 163.74261474609375 29.95728302001953 159.5948028564453 C 31.18365478515625 156.9957275390625 33.75598907470703 154.751708984375 35.58031463623047 152.567138671875 C 39.56397247314453 147.79534912109375 43.48151397705078 142.96192932128906 47.54094696044922 138.2532958984375 C 49.496002197265625 135.9862518310547 51.426551818847656 133.11680603027344 54.672607421875 133.0885772705078 C 54.672607421875 133.0885772705078 54.672607421875 133.0885772705078 54.672607421875 133.0885772705078" stroke-width="0.0" fill="rgb(242, 197, 0)" opacity="1.0" stroke="rgb(0, 0, 0)" stroke-opacity="1.0" stroke-linecap="round" stroke-linejoin="round"/>
    <path d="M 111.99925994873047 133.0885772705078 C 111.99925994873047 144.67185974121094 111.99925994873047 156.25440979003906 111.99925994873047 167.83770751953125 C 137.57846069335938 167.83770751953125 163.15765380859375 167.83770751953125 188.73611450195312 167.83770751953125 C 192.68560791015625 167.32144165039062 195.99851989746094 163.74261474609375 194.04122924804688 159.5948028564453 C 192.8148651123047 156.9957275390625 190.24179077148438 154.751708984375 188.41819763183594 152.567138671875 C 184.43380737304688 147.79534912109375 180.51625061035156 142.96267700195312 176.4575653076172 138.2532958984375 C 174.50177001953125 135.98550415039062 172.57269287109375 133.11680603027344 169.32589721679688 133.0885772705078 C 150.21726989746094 133.0885772705078 131.10789489746094 133.0885772705078 111.99925994873047 133.0885772705078" stroke-width="0.0" fill="rgb(245, 157, 0)" opacity="1.0" stroke="rgb(0, 0, 0)" stroke-opacity="1.0" stroke-linecap="round" stroke-linejoin="round"/>
    <path d="M 99.86778259277344 57.70807647705078 C 99.86778259277344 57.70807647705078 99.86778259277344 57.70807647705078 99.86778259277344 57.70807647705078 C 107.43472290039062 56.33612060546875 115.11903381347656 56.16229248046875 122.71420288085938 57.45105743408203 C 140.23101806640625 60.423763275146484 155.92276000976562 71.00426483154297 165.397216796875 86.01113891601562 C 170.64512634277344 94.32237243652344 173.91494750976562 103.83546447753906 174.85830688476562 113.62042236328125 C 175.231201171875 117.48895263671875 176.157470703125 122.84085083007812 171.8870849609375 124.92442321777344 C 170.81671142578125 125.44660949707031 170.49656677246094 125.3812484741211 169.32589721679688 125.51569366455078 C 131.10789489746094 125.51569366455078 92.890625 125.51569366455078 54.672607421875 125.51569366455078 C 53.501197814941406 125.3812484741211 53.181800842285156 125.44660949707031 52.111419677734375 124.92442321777344 C 48.762855529785156 123.2909927368164 48.766571044921875 119.86517333984375 48.92182159423828 116.64067077636719 C 49.23230743408203 110.1923828125 50.54113006591797 103.79981231689453 52.79034423828125 97.74893188476562 C 60.44939422607422 77.14205932617188 78.4453125 62.14929962158203 99.86778259277344 57.70807647705078 C 99.86778259277344 57.70807647705078 99.86778259277344 57.70807647705078 99.86778259277344 57.70807647705078" stroke-width="0.0" fill="rgb(242, 197, 0)" opacity="1.0" stroke="rgb(0, 0, 0)" stroke-opacity="1.0" stroke-linecap="round" stroke-linejoin="round"/>
    <path d="M 111.99925994873047 56.548553466796875 C 111.99925994873047 79.53759765625 111.99925994873047 102.52664947509766 111.99925994873047 125.51569366455078 C 131.10789489746094 125.51569366455078 150.21726989746094 125.51569366455078 169.32589721679688 125.51569366455078 C 170.497314453125 125.3812484741211 170.8159637451172 125.44660949707031 171.8870849609375 124.92442321777344 C 175.73406982421875 123.04735565185547 175.24383544921875 118.70269012451172 174.98533630371094 115.12609100341797 C 174.3806915283203 106.7583999633789 172.0839385986328 98.53704833984375 168.2733612060547 91.06369018554688 C 157.49452209472656 69.92051696777344 135.61598205566406 56.783287048339844 111.99925994873047 56.548553466796875 C 111.99925994873047 56.548553466796875 111.99925994873047 56.548553466796875 111.99925994873047 56.548553466796875" stroke-width="0.0" fill="rgb(245, 157, 0)" opacity="1.0" stroke="rgb(0, 0, 0)" stroke-opacity="1.0" stroke-linecap="round" stroke-linejoin="round"/>
    <path d="M 54.672607421875 113.8692626953125 C 92.890625 113.8692626953125 131.10789489746094 113.8692626953125 169.32589721679688 113.8692626953125 C 172.7301788330078 114.20724487304688 174.812255859375 116.28932189941406 175.14950561523438 119.6928482055664 C 175.14950561523438 126.09953308105469 175.14950561523438 132.50547790527344 175.14950561523438 138.9114227294922 C 174.75283813476562 142.35951232910156 172.77325439453125 144.33612060546875 169.32589721679688 144.73500061035156 C 131.10789489746094 144.73500061035156 92.890625 144.73500061035156 54.672607421875 144.73500061035156 C 51.224510192871094 144.33834838867188 49.24568176269531 142.35951232910156 48.84828186035156 138.9114227294922 C 48.84828186035156 132.50547790527344 48.84828186035156 126.09953308105469 48.84828186035156 119.6928482055664 C 49.24568176269531 116.2447509765625 51.224510192871094 114.26666259765625 54.672607421875 113.8692626953125 C 54.672607421875 113.8692626953125 54.672607421875 113.8692626953125 54.672607421875 113.8692626953125" stroke-width="0.0" fill="rgb(255, 94, 91)" opacity="1.0" stroke="rgb(0, 0, 0)" stroke-opacity="1.0" stroke-linecap="round" stroke-linejoin="round"/>
    <path d="M 111.99925994873047 113.8692626953125 C 111.99925994873047 124.15784454345703 111.99925994873047 134.44642639160156 111.99925994873047 144.73500061035156 C 131.10789489746094 144.73500061035156 150.21726989746094 144.73500061035156 169.32589721679688 144.73500061035156 C 172.7740020751953 144.33834838867188 174.75283813476562 142.35951232910156 175.14950561523438 138.9114227294922 C 175.14950561523438 132.50547790527344 175.14950561523438 126.09953308105469 175.14950561523438 119.6928482055664 C 174.75283813476562 116.2447509765625 172.7740020751953 114.26666259765625 169.32589721679688 113.8692626953125 C 150.21726989746094 113.8692626953125 131.10789489746094 113.8692626953125 111.99925994873047 113.8692626953125" stroke-width="0.0" fill="rgb(255, 66, 61)" opacity="1.0" stroke="rgb(0, 0, 0)" stroke-opacity="1.0" stroke-linecap="round" stroke-linejoin="round"/>
  </g>
</svg>
