<?xml version="1.0" encoding="UTF-8"?>
<svg xmlns="http://www.w3.org/2000/svg" version="1.1" viewBox="0 0 224 224">
  <defs>
    <style>
      .cls-1 {
        fill: #3e4340;
        opacity: 1;
      }

      .cls-1, .cls-2, .cls-3, .cls-4, .cls-5, .cls-6, .cls-7, .cls-8, .cls-9, .cls-10, .cls-11, .cls-12, .cls-13, .cls-14 {
        isolation: isolate;
      }

      .cls-2 {
        fill: #d0d6d7;
        opacity: 1;
      }

      .cls-3 {
        fill: #fcfdfd;
        opacity: 1;
      }

      .cls-4 {
        fill: #e9be01;
        opacity: 1;
      }

      .cls-5 {
        fill: #3c2823;
        opacity: 1;
      }

      .cls-6 {
        fill: #fefefe;
        opacity: 1;
      }

      .cls-7 {
        fill: #41423f;
        opacity: 1;
      }

      .cls-8 {
        fill: #fbfcfc;
        opacity: 1;
      }

      .cls-9 {
        fill: #6e4037;
        opacity: 1;
      }

      .cls-10 {
        fill: #6c3f39;
        opacity: .9;
      }

      .cls-11 {
        fill: #6f4037;
        opacity: 1;
      }

      .cls-12 {
        fill: #714339;
        opacity: 1;
      }

      .cls-13 {
        fill: #e39300;
        opacity: 1;
      }

      .cls-14 {
        fill: #3f423f;
        opacity: 1;
      }
    </style>
  </defs>
  <!-- Generator: Adobe Illustrator 28.6.0, SVG Export Plug-In . SVG Version: 1.2.0 Build 709)  -->
  <g>
    <g id="_图层_1" data-name="图层_1">
      <g>
        <path class="cls-12" d="M87.3,135.7c-1.1-2.1,0-16.4,2.3-19.4,1.2-2.2,2-2.7,10.6-3.5,10.9-.8,13-.5,13.3,2.4-.2,1.6-5.8,15-8.1,19.1-1.8,2.4-16.8,3.9-18.1,1.5"/>
        <path class="cls-3" d="M73.5,193.1c6.3-8.6,14.9-18.1,19.9-21.8,2.6-2.6,5.9-4.7,6.2-4.5.2.3.6,6.3.5,13.7l.4,14-14.2-.2c-11.1,0-13.7-.2-12.8-1.2"/>
        <path class="cls-4" d="M99.5,179c-.2-17.7-.4-17.4,9.7-18.7l5.1-.9.3,34.9h-15c0,.1,0-15.2,0-15.2"/>
        <path class="cls-5" d="M153.4,192.8c-9.9-5.7-17.4-11.5-22.7-15.8-2.8-2.5-7.6-6.2-10.3-7.6-2.5-2-5.5-4.2-7.4-5l-1.9-4,.9-46.1c.3-24.8.3-54.9.7-65.6v-20.3c.1,0,6,.8,6,.8l5.6-1.2-.6,14.6c-.7,14.9,3.8,51.3,4,56.6,0,1.1.7,1.1,4.6,1.1,2.2,1.4,3.7,2.5,2.9,12-2.6,3.7,2.4,16.4,3.3,22.7-.5-.7.9.2,5.6-.3l6.8.3.9,10.1c-2.5,5.9.3,6.9,4.9,16.8,10.6,19.9,14.5,26.1,14.5,27.8.3,4.5-12.5,6.2-17.9,3.1"/>
        <path class="cls-6" d="M125.8,180.4c0-12.4.1-13.3,1.2-12.2,4.3,1.8,13.1,10,18.6,17.5,3.2,4.4,6.5,7.5,7.7,7.9,0,.6-5.5,1.1-13.4.7h-13.7c0,0-.4-13.8-.4-13.8"/>
        <path class="cls-2" d="M103.1,135.4c-.6-1.4,8-17.3,10.1-18.5,2.3.4,3.6.8,4.7,2,2,2.4,3.5,9.9,4.1,14.3-.2,2.7-.9,2-9.8,1.8-4.9,1.1-8.8,1.2-9,.5"/>
        <path class="cls-11" d="M56.2,192.5c-1.1-.8-2.1-2.7-2.1-3.2,0-1.2,18-34.5,20.2-38.5l2-2.8,18.3.6,18.3.5.2,7.3c.3,7.1.5,7.4-1.8,7.9-8.6-.5-21.7,7.9-31.2,20.3-3,4.9-6.7,8.6-8.9,8.4-.4,1.2-4,1.2-7.1,1.5-4.2,0-6.4-.5-7.7-2"/>
        <path class="cls-9" d="M96.7,99.8c.1-.7,1.1-13.4,2.4-28.5l2.3-26.4,5.7-.5,6-.6-.3,56.9h-8.2c-5.6,0-7.9-.3-7.9-.9"/>
        <path class="cls-10" d="M99.8,33.1l.3-5.1,12.5.3c7,.2,10,.4,6.8.7l-5.9.2-.2,8.7-13.5.4v-5.3"/>
        <path class="cls-13" d="M112.3,179.2v-15.2c.1,0,3.9,0,3.9,0,2,.9,5,1.7,6.7,1.9l3,1.2.2,27.3-13.6.2-.2-15.4"/>
        <path class="cls-8" d="M103.4,133.9c.2-2.9,3.1-13.3,4.2-14.7.6-.8,2-1.5,3.5-1.6,1.7,0,1.7.8,2,8.8l.2,8.6h-5.1c-3.4.3-4.9-.2-4.9-1"/>
        <path class="cls-14" d="M73.7,148.6c0-.2-.4-3.3,0-6.8v-6.8c0,0,8.6,0,8.6,0,4.9,0,15.9-.2,25.3.1,9.2.4,14.5.8,11.5,1.1h-5.3s-.3,13.2-.3,13.2h-19.7c-10.7-.2-19.7-.5-20-.8"/>
        <path class="cls-7" d="M89.9,113.5c-1.4-1.9-1.3-9,.1-11.2,2.3-1.8,10.5-2.8,17.9-2.2l5.1.2.2,7,.3,7.1-11.4-.2c-7.3.1-11.4,0-12.3-.7"/>
        <path class="cls-1" d="M99.8,43.1c-.8-4.9.4-5.5,7.1-5.3l5.9.3-.4,8-5.8-.3c-5.8-.2-6.1-.3-6.9-2.7"/>
      </g>
    </g>
  </g>
</svg>