<?xml version="1.0" ?>
<svg xmlns="http://www.w3.org/2000/svg" version="1.1" width="224" height="224">
  <defs/>
  <g>
    <path d="M 57.47069549560547 63.24927520751953 C 93.82183837890625 63.24927520751953 130.17401123046875 63.24927520751953 166.525146484375 63.24927520751953 C 166.525146484375 80.11068725585938 166.525146484375 96.97209167480469 166.525146484375 113.83351135253906 C 130.17401123046875 113.83351135253906 93.82183837890625 113.83351135253906 57.47069549560547 113.83351135253906 C 57.47069549560547 96.97209167480469 57.47069549560547 80.11068725585938 57.47069549560547 63.24927520751953" stroke-width="0.0" fill="rgb(121, 121, 122)" opacity="1.0"/>
    <path d="M 58.72064971923828 64.49404907226562 C 94.24124145507812 64.49404907226562 129.76287841796875 64.49404907226562 165.28347778320312 64.49404907226562 C 165.28347778320312 80.52595520019531 165.28347778320312 96.55682373046875 165.28347778320312 112.58872985839844 C 129.76287841796875 112.58872985839844 94.24124145507812 112.58872985839844 58.72064971923828 112.58872985839844 C 58.72064971923828 96.55682373046875 58.72064971923828 80.52595520019531 58.72064971923828 64.49404907226562" stroke-width="0.0" fill="rgb(51, 51, 54)" opacity="1.0"/>
    <path d="M 59.965415954589844 65.73882293701172 C 59.965415954589844 80.93915557861328 59.965415954589844 96.13948059082031 59.965415954589844 111.33877563476562 C 94.65341186523438 111.34085083007812 129.34242248535156 111.34188079833984 164.03042602539062 111.3429183959961 C 164.03146362304688 96.14154815673828 164.03353881835938 80.940185546875 164.03456115722656 65.73882293701172 C 129.34449768066406 65.73882293701172 94.65547943115234 65.73882293701172 59.965415954589844 65.73882293701172" stroke-width="0.0" fill="rgb(255, 214, 50)" opacity="1.0"/>
    <path d="M 77.18203735351562 38.443878173828125 C 100.40194702148438 38.443878173828125 123.62289428710938 38.443878173828125 146.84280395507812 38.443878173828125 C 146.84176635742188 59.79041290283203 146.84072875976562 81.13694763183594 146.83865356445312 102.48451232910156 C 123.61978912353516 102.48451232910156 100.40091705322266 102.48451232910156 77.18203735351562 102.48451232910156 C 77.18203735351562 81.13694763183594 77.18203735351562 59.79041290283203 77.18203735351562 38.443878173828125" stroke-width="0.0" fill="rgb(51, 51, 53)" opacity="1.0"/>
    <path d="M 78.42681884765625 39.68865203857422 C 100.81617736816406 39.68865203857422 123.20451354980469 39.68865203857422 145.59388732910156 39.68865203857422 C 145.59388732910156 60.1973991394043 145.59388732910156 80.70614624023438 145.59388732910156 101.21488952636719 C 123.20451354980469 101.21488952636719 100.81617736816406 101.21488952636719 78.42681884765625 101.21488952636719 C 78.42681884765625 80.70614624023438 78.42681884765625 60.1973991394043 78.42681884765625 39.68865203857422" stroke-width="0.0" fill="rgb(51, 51, 54)" opacity="1.0"/>
    <path d="M 79.67262268066406 40.93342590332031 C 79.67262268066406 60.61991882324219 79.67262268066406 80.30744934082031 79.67262268066406 99.99392700195312 C 101.2314453125 99.99392700195312 122.78924560546875 99.99392700195312 144.3480682373047 99.99392700195312 C 144.3480682373047 80.30744934082031 144.3480682373047 60.61991882324219 144.3480682373047 40.93342590332031 C 122.78924560546875 40.93342590332031 101.2314453125 40.93342590332031 79.67262268066406 40.93342590332031" stroke-width="0.0" fill="rgb(236, 238, 232)" opacity="1.0"/>
    <path d="M 37.08518981933594 91.33746337890625 C 87.02839660644531 91.33746337890625 136.97264099121094 91.33746337890625 186.91583251953125 91.33746337890625 C 192.2874298095703 91.95882415771484 195.378662109375 95.050048828125 196.0 100.42266845703125 C 196.0 122.04155731201172 196.0 143.6604461669922 196.0 165.27935791015625 C 195.378662109375 170.65093994140625 192.2874298095703 173.74423217773438 186.91583251953125 174.36558532714844 C 136.97264099121094 174.36558532714844 87.02839660644531 174.36558532714844 37.08518981933594 174.36558532714844 C 31.713600158691406 173.74423217773438 28.621337890625 170.65196228027344 27.99999237060547 165.27935791015625 C 27.99999237060547 143.6604461669922 27.99999237060547 122.04155731201172 27.99999237060547 100.42266845703125 C 28.621337890625 95.050048828125 31.713600158691406 91.95882415771484 37.08518981933594 91.33746337890625 C 37.08518981933594 91.33746337890625 37.08518981933594 91.33746337890625 37.08518981933594 91.33746337890625" stroke-width="0.0" fill="rgb(51, 51, 54)" opacity="1.0"/>
    <path d="M 37.08518981933594 92.58224487304688 C 87.02839660644531 92.58224487304688 136.97264099121094 92.58224487304688 186.91583251953125 92.58224487304688 C 191.61843872070312 93.2149887084961 194.12246704101562 95.71903228759766 194.75521850585938 100.42266845703125 C 194.75521850585938 122.04155731201172 194.75521850585938 143.6604461669922 194.75521850585938 165.27935791015625 C 194.12246704101562 169.98297119140625 191.61947631835938 172.48703002929688 186.91583251953125 173.1187286376953 C 136.97264099121094 173.1187286376953 87.02839660644531 173.1187286376953 37.08518981933594 173.1187286376953 C 32.38154602050781 172.48703002929688 29.87750244140625 169.98297119140625 29.244766235351562 165.27935791015625 C 29.244766235351562 143.6604461669922 29.244766235351562 122.04155731201172 29.244766235351562 100.42266845703125 C 29.87750244140625 95.71800231933594 32.38154602050781 93.2149887084961 37.08518981933594 92.58224487304688 C 37.08518981933594 92.58224487304688 37.08518981933594 92.58224487304688 37.08518981933594 92.58224487304688" stroke-width="0.0" fill="rgb(51, 51, 54)" opacity="1.0"/>
    <path d="M 37.08518981933594 93.83219909667969 C 37.08518981933594 93.83219909667969 37.08518981933594 93.83219909667969 37.08518981933594 93.83219909667969 C 33.065040588378906 94.48564910888672 31.148170471191406 96.4014892578125 30.493675231933594 100.42266845703125 C 30.493675231933594 122.04155731201172 30.493675231933594 143.6604461669922 30.493675231933594 165.27935791015625 C 31.148170471191406 169.300537109375 33.065040588378906 171.21636962890625 37.08518981933594 171.86981201171875 C 87.02839660644531 171.86981201171875 136.97264099121094 171.86981201171875 186.91583251953125 171.86981201171875 C 190.93597412109375 171.21636962890625 192.85182189941406 169.2994842529297 193.5063018798828 165.27935791015625 C 193.5063018798828 143.6604461669922 193.5063018798828 122.04155731201172 193.5063018798828 100.42266845703125 C 192.85182189941406 96.40252685546875 190.93597412109375 94.48564910888672 186.91583251953125 93.83219909667969 C 136.97264099121094 93.83219909667969 87.02839660644531 93.83219909667969 37.08518981933594 93.83219909667969" stroke-width="0.0" fill="rgb(103, 161, 63)" opacity="1.0"/>
    <path d="M 37.67132568359375 171.87396240234375 C 87.22929382324219 171.87396240234375 136.78726196289062 171.87396240234375 186.34523010253906 171.87396240234375 C 185.30343627929688 176.43467712402344 184.2616424560547 180.99539184570312 183.21981811523438 185.55612182617188 C 135.73822021484375 185.55612182617188 88.25762939453125 185.55612182617188 40.77600860595703 185.55612182617188 C 39.74146270751953 180.99539184570312 38.70587158203125 176.43467712402344 37.67132568359375 171.87396240234375" stroke-width="0.0" fill="rgb(51, 51, 54)" opacity="1.0"/>
    <path d="M 126.31541442871094 128.3772735595703 C 126.31541442871094 120.66008758544922 126.31541442871094 112.94290161132812 126.31541442871094 105.22571563720703 C 126.83631896972656 102.00193786621094 128.36795043945312 100.4713363647461 131.59173583984375 99.94940185546875 C 148.2035675048828 99.94940185546875 164.81643676757812 99.94940185546875 181.4282684326172 99.94940185546875 C 184.653076171875 100.47029876708984 186.18264770507812 102.00193786621094 186.70457458496094 105.22571563720703 C 186.70457458496094 112.93461608886719 186.70457458496094 120.64351654052734 186.70457458496094 128.3524169921875 C 166.57485961914062 128.36070251464844 146.44512939453125 128.36898803710938 126.31541442871094 128.3772735595703" stroke-width="0.0" fill="rgb(254, 213, 50)" opacity="1.0"/>
    <path d="M 39.21537780761719 173.11563110351562 C 87.73983764648438 173.11563110351562 136.26429748535156 173.11563110351562 184.7887420654297 173.11563110351562 C 183.93438720703125 176.8468475341797 183.0789794921875 180.57701110839844 182.22462463378906 184.3072052001953 C 135.40786743164062 184.3072052001953 88.59213256835938 184.3072052001953 41.775352478027344 184.3072052001953 C 40.922035217285156 180.57701110839844 40.06871032714844 176.8468475341797 39.21537780761719 173.11563110351562" stroke-width="0.0" fill="rgb(51, 51, 54)" opacity="1.0"/>
    <path d="M 131.57620239257812 98.69944763183594 C 148.1880340576172 98.69944763183594 164.7998504638672 98.69944763183594 181.41168212890625 98.69944763183594 C 185.40284729003906 99.34358215332031 187.29486083984375 101.23560333251953 187.93795776367188 105.22571563720703 C 187.93795776367188 112.94290161132812 187.93795776367188 120.66008758544922 187.93795776367188 128.3772735595703 C 187.10638427734375 128.3772735595703 186.27481079101562 128.3772735595703 185.44427490234375 128.3772735595703 C 185.44427490234375 120.66008758544922 185.44427490234375 112.94290161132812 185.44427490234375 105.22571563720703 C 184.92958068847656 102.68956756591797 183.94784545898438 101.70886993408203 181.41168212890625 101.19418334960938 C 164.7998504638672 101.19418334960938 148.1880340576172 101.19418334960938 131.57620239257812 101.19418334960938 C 129.0400390625 101.70886993408203 128.05831909179688 102.68956756591797 127.54362487792969 105.22571563720703 C 127.54362487792969 112.93461608886719 127.54362487792969 120.64351654052734 127.54362487792969 128.3524169921875 C 126.71411895751953 128.3524169921875 125.88357543945312 128.3524169921875 125.0540771484375 128.3524169921875 C 125.05199432373047 120.64351654052734 125.05096435546875 112.93461608886719 125.0499267578125 105.22571563720703 C 125.69406127929688 101.23560333251953 127.58504486083984 99.34358215332031 131.57620239257812 98.69944763183594 C 131.57620239257812 98.69944763183594 131.57620239257812 98.69944763183594 131.57620239257812 98.69944763183594" stroke-width="0.0" fill="rgb(51, 51, 54)" opacity="1.0"/>
    <path d="M 173.72970581054688 108.39563751220703 C 173.72970581054688 108.39563751220703 173.72970581054688 108.39563751220703 173.72970581054688 108.39563751220703 C 175.76153564453125 108.72392272949219 177.37396240234375 109.13195037841797 178.66636657714844 110.90072631835938 C 181.56289672851562 114.86804962158203 178.6446075439453 120.63108825683594 173.72970581054688 120.63108825683594 C 168.81483459472656 120.63108825683594 165.8975830078125 114.86804962158203 168.79412841796875 110.90072631835938 C 170.0854949951172 109.13195037841797 171.69790649414062 108.72392272949219 173.72970581054688 108.39563751220703 C 173.72970581054688 108.39563751220703 173.72970581054688 108.39563751220703 173.72970581054688 108.39563751220703" stroke-width="0.0" fill="rgb(62, 60, 54)" opacity="1.0"/>
    <path d="M 140.8146514892578 107.90270233154297 C 140.8146514892578 107.90270233154297 140.8146514892578 107.90270233154297 140.8146514892578 107.90270233154297 C 141.67523193359375 108.60379791259766 142.34939575195312 109.60624694824219 142.67042541503906 110.66874694824219 C 142.67042541503906 113.17487335205078 142.67042541503906 115.68202209472656 142.67042541503906 118.18814086914062 C 141.85231018066406 120.93347930908203 139.99343872070312 121.93489837646484 137.551513671875 120.28623962402344 C 136.29742431640625 119.03421783447266 135.04437255859375 117.7832260131836 133.790283203125 116.53120422363281 C 132.72052001953125 114.94779968261719 132.7101593017578 113.89874267578125 133.790283203125 112.3174057006836 C 135.04437255859375 111.06331634521484 136.29742431640625 109.81025695800781 137.551513671875 108.55719757080078 C 138.52601623535156 108.02593994140625 139.7117462158203 107.7846450805664 140.8146514892578 107.90270233154297 C 140.8146514892578 107.90270233154297 140.8146514892578 107.90270233154297 140.8146514892578 107.90270233154297" stroke-width="0.0" fill="rgb(129, 113, 52)" opacity="1.0"/>
    <path d="M 151.73077392578125 107.89442443847656 C 151.73077392578125 107.89442443847656 151.73077392578125 107.89442443847656 151.73077392578125 107.89442443847656 C 152.8336639404297 107.77843475341797 154.02044677734375 108.01661682128906 154.993896484375 108.54994201660156 C 156.24798583984375 109.8030014038086 157.5010528564453 111.05606079101562 158.7541046142578 112.30912780761719 C 159.7948760986328 114.11311340332031 159.79383850097656 114.74171447753906 158.7541046142578 116.54673767089844 C 157.5010528564453 117.79979705810547 156.24798583984375 119.05389404296875 154.993896484375 120.30695343017578 C 152.53231811523438 121.91107177734375 150.7024383544922 120.91484069824219 149.875 118.17986297607422 C 149.875 115.67373657226562 149.875 113.16658782958984 149.875 110.66046905517578 C 150.19189453125 109.59588623046875 150.86813354492188 108.59343719482422 151.73077392578125 107.89442443847656 C 151.73077392578125 107.89442443847656 151.73077392578125 107.89442443847656 151.73077392578125 107.89442443847656" stroke-width="0.0" fill="rgb(175, 150, 51)" opacity="1.0"/>
    <path d="M 40.77600860595703 174.36558532714844 C 41.44085693359375 177.26419067382812 42.10569763183594 180.16278076171875 42.76951599121094 183.06243896484375 C 88.93179321289062 183.06346130371094 135.09304809570312 183.0644989013672 181.25534057617188 183.0665740966797 C 181.91085815429688 180.16693115234375 182.56741333007812 177.2672882080078 183.22396850585938 174.36868286132812 C 135.74131774902344 174.36766052246094 88.2586669921875 174.36660766601562 40.77600860595703 174.36558532714844" stroke-width="0.0" fill="rgb(212, 216, 206)" opacity="1.0"/>
    <path d="M 28.885421752929688 127.13249969482422 C 84.05418395996094 127.13249969482422 139.22296142578125 127.13249969482422 194.39068603515625 127.13249969482422 C 194.39068603515625 127.96200561523438 194.39068603515625 128.79254150390625 194.39068603515625 129.62205505371094 C 139.22296142578125 129.62205505371094 84.05418395996094 129.62205505371094 28.885421752929688 129.62205505371094 C 28.885421752929688 128.79254150390625 28.885421752929688 127.96200561523438 28.885421752929688 127.13249969482422" stroke-width="0.0" fill="rgb(50, 51, 54)" opacity="1.0"/>
    <path d="M 173.72970581054688 109.30489349365234 C 173.72970581054688 109.30489349365234 173.72970581054688 109.30489349365234 173.72970581054688 109.30489349365234 C 171.59848022460938 109.7356948852539 169.8504180908203 110.26176452636719 168.92770385742188 112.4862060546875 C 167.5244903564453 115.87257385253906 170.04510498046875 119.7249526977539 173.72970581054688 119.7249526977539 C 177.41537475585938 119.7249526977539 179.9359893798828 115.87257385253906 178.53173828125 112.4862060546875 C 177.6100616455078 110.26073455810547 175.8609619140625 109.7356948852539 173.72970581054688 109.30489349365234 C 173.72970581054688 109.30489349365234 173.72970581054688 109.30489349365234 173.72970581054688 109.30489349365234" stroke-width="0.0" fill="rgb(51, 51, 54)" opacity="1.0"/>
    <path d="M 138.2101593017578 109.19200897216797 C 138.2101593017578 109.19200897216797 138.2101593017578 109.19200897216797 138.2101593017578 109.19200897216797 C 140.30825805664062 108.33557891845703 140.88922119140625 108.57583618164062 141.7684326171875 110.66461181640625 C 141.7684326171875 113.17073059082031 141.7684326171875 115.67788696289062 141.7684326171875 118.18400573730469 C 140.88922119140625 120.27278137207031 140.30825805664062 120.51200103759766 138.2101593017578 119.65557098388672 C 136.9571075439453 118.40251159667969 135.70404052734375 117.14945220947266 134.449951171875 115.89535522460938 C 134.2459259033203 115.40449523925781 133.83790588378906 114.95401000976562 133.83790588378906 114.4227523803711 C 133.83790588378906 113.8915023803711 134.2459259033203 113.44308471679688 134.449951171875 112.95325469970703 C 135.70404052734375 111.69915771484375 136.9571075439453 110.44610595703125 138.2101593017578 109.19200897216797" stroke-width="0.0" fill="rgb(51, 51, 54)" opacity="1.0"/>
    <path d="M 154.3632354736328 109.16715240478516 C 154.3632354736328 109.16715240478516 154.3632354736328 109.16715240478516 154.3632354736328 109.16715240478516 C 152.26513671875 108.311767578125 151.68417358398438 108.55097961425781 150.80496215820312 110.63975524902344 C 150.80496215820312 113.14588165283203 150.80496215820312 115.65303039550781 150.80496215820312 118.1601791381836 C 151.6634521484375 120.27796173095703 152.24752807617188 120.50889587402344 154.3632354736328 119.65557098388672 C 155.6162872314453 118.40251159667969 156.86935424804688 117.14945220947266 158.12344360351562 115.89535522460938 C 158.3274383544922 115.40449523925781 158.7354736328125 114.95401000976562 158.7354736328125 114.4227523803711 C 158.7354736328125 113.8915023803711 158.3274383544922 113.44308471679688 158.12344360351562 112.95325469970703 C 156.86935424804688 111.69087982177734 155.6162872314453 110.42953491210938 154.3632354736328 109.16715240478516" stroke-width="0.0" fill="rgb(51, 51, 54)" opacity="1.0"/>
    <path d="M 64.2434310913086 137.80213928222656 C 96.07837677001953 137.80213928222656 127.91436004638672 137.80213928222656 159.74929809570312 137.80213928222656 C 165.2109832763672 138.3551483154297 168.52694702148438 141.67213439941406 169.07994079589844 147.13380432128906 C 169.07994079589844 156.21072387695312 169.07994079589844 165.28866577148438 169.07994079589844 174.36558532714844 C 131.02423095703125 174.36558532714844 92.96748352050781 174.36558532714844 54.911766052246094 174.36558532714844 C 54.911766052246094 165.28866577148438 54.911766052246094 156.21072387695312 54.911766052246094 147.13380432128906 C 55.46476745605469 141.67213439941406 58.78174591064453 138.3551483154297 64.2434310913086 137.80213928222656 C 64.2434310913086 137.80213928222656 64.2434310913086 137.80213928222656 64.2434310913086 137.80213928222656" stroke-width="0.0" fill="rgb(51, 51, 54)" opacity="1.0"/>
    <path d="M 173.72970581054688 110.21102905273438 C 173.72970581054688 110.21102905273438 173.72970581054688 110.21102905273438 173.72970581054688 110.21102905273438 C 171.96922302246094 110.56623077392578 170.52459716796875 111.00118255615234 169.76239013671875 112.83934020996094 C 168.60357666015625 115.63853454589844 170.68304443359375 118.8219223022461 173.72970581054688 118.82295227050781 C 176.7764129638672 118.82295227050781 178.8558807373047 115.63956451416016 177.69808959960938 112.84141540527344 C 176.93692016601562 111.00118255615234 175.49229431152344 110.56623077392578 173.72970581054688 110.21102905273438 C 173.72970581054688 110.21102905273438 173.72970581054688 110.21102905273438 173.72970581054688 110.21102905273438" stroke-width="0.0" fill="rgb(234, 237, 230)" opacity="1.0"/>
    <path d="M 139.65789794921875 109.45919036865234 C 139.65789794921875 109.45919036865234 139.65789794921875 109.45919036865234 139.65789794921875 109.45919036865234 C 139.38555908203125 109.57310485839844 139.11318969726562 109.68598175048828 138.84083557128906 109.79885864257812 C 137.58880615234375 111.06124114990234 136.3367919921875 112.32466125488281 135.0847625732422 113.5870361328125 C 134.87454223632812 114.10379028320312 134.87454223632812 114.74378967285156 135.0847625732422 115.26054382324219 C 136.3378143310547 116.51464080810547 137.59190368652344 117.7677001953125 138.844970703125 119.02178955078125 C 139.2747344970703 119.1046371459961 139.7303924560547 119.4401626586914 140.13427734375 119.27136993408203 C 140.53712463378906 119.1046371459961 140.61788940429688 118.54645538330078 140.8591766357422 118.18400573730469 C 140.8591766357422 115.67788696289062 140.8591766357422 113.17073059082031 140.8591766357422 110.66461181640625 C 140.54541015625 110.1923828125 140.20884704589844 109.59381866455078 139.65789794921875 109.4623031616211 C 139.65789794921875 109.4623031616211 139.65789794921875 109.4623031616211 139.65789794921875 109.4623031616211 C 139.65789794921875 109.4623031616211 139.65789794921875 109.45919036865234 139.65789794921875 109.45919036865234" stroke-width="0.0" fill="rgb(235, 238, 231)" opacity="1.0"/>
    <path d="M 152.8833770751953 109.45504760742188 C 152.8854522705078 109.45711517333984 152.886474609375 109.4581527709961 152.88751220703125 109.45919036865234 C 152.3365936279297 109.56171417236328 151.99691772460938 110.16857147216797 151.6862335205078 110.63561248779297 C 151.6862335205078 113.14173126220703 151.6862335205078 115.64888763427734 151.6862335205078 118.15604400634766 C 151.92752075195312 118.51849365234375 152.00830078125 119.07667541503906 152.4101104736328 119.24444580078125 C 152.8150177001953 119.41220092773438 153.2706756591797 119.07667541503906 153.70045471191406 118.99279022216797 C 154.95350646972656 117.73973846435547 156.2075958251953 116.48564147949219 157.46066284179688 115.23258209228516 C 157.46066284179688 114.67337036132812 157.46066284179688 114.11415100097656 157.46066284179688 113.554931640625 C 156.2075958251953 112.30187225341797 154.95350646972656 111.04778289794922 153.70045471191406 109.79472351074219 C 153.4281005859375 109.68183898925781 153.15573120117188 109.56896209716797 152.8833770751953 109.45504760742188 C 152.8833770751953 109.45504760742188 152.8833770751953 109.45504760742188 152.8833770751953 109.45504760742188" stroke-width="0.0" fill="rgb(235, 238, 231)" opacity="1.0"/>
    <path d="M 64.2434310913086 139.04795837402344 C 96.07837677001953 139.04795837402344 127.91436004638672 139.04795837402344 159.74929809570312 139.04795837402344 C 164.5347442626953 139.59991455078125 167.283203125 142.34835815429688 167.83517456054688 147.13380432128906 C 167.83517456054688 155.79440307617188 167.83517456054688 164.45501708984375 167.83517456054688 173.11563110351562 C 130.6089630126953 173.11666870117188 93.38275146484375 173.11770629882812 56.15653991699219 173.1187286376953 C 56.15653991699219 164.45709228515625 56.15653991699219 155.7954559326172 56.15653991699219 147.13380432128906 C 56.70850372314453 142.34732055664062 59.456947326660156 139.59991455078125 64.2434310913086 139.04795837402344 C 64.2434310913086 139.04795837402344 64.2434310913086 139.04795837402344 64.2434310913086 139.04795837402344" stroke-width="0.0" fill="rgb(50, 51, 53)" opacity="1.0"/>
    <path d="M 64.24756622314453 140.292724609375 C 64.24756622314453 140.292724609375 64.24756622314453 140.292724609375 64.24756622314453 140.292724609375 C 60.14561462402344 140.84469604492188 57.959495544433594 143.0328826904297 57.40544891357422 147.13380432128906 C 57.40544891357422 155.379150390625 57.40544891357422 163.62448120117188 57.40544891357422 171.86981201171875 C 93.80009460449219 171.870849609375 130.1957550048828 171.8729248046875 166.59039306640625 171.87396240234375 C 166.5914306640625 163.62759399414062 166.5924530029297 155.38018798828125 166.5945281982422 147.13380432128906 C 166.04153442382812 143.0318603515625 163.8533477783203 140.84573364257812 159.75241088867188 140.292724609375 C 127.91747283935547 140.292724609375 96.08251953125 140.292724609375 64.24756622314453 140.292724609375" stroke-width="0.0" fill="rgb(212, 216, 206)" opacity="1.0"/>
    <path d="M 54.911766052246094 161.95199584960938 C 92.96954345703125 161.95199584960938 131.02630615234375 161.95199584960938 169.08407592773438 161.95199584960938 C 169.08407592773438 166.0902099609375 169.08407592773438 170.22738647460938 169.08407592773438 174.36558532714844 C 131.02630615234375 174.36558532714844 92.96954345703125 174.36558532714844 54.911766052246094 174.36558532714844 C 54.911766052246094 170.22738647460938 54.911766052246094 166.0902099609375 54.911766052246094 161.95199584960938" stroke-width="0.0" fill="rgb(51, 50, 54)" opacity="1.0"/>
    <path d="M 56.15653991699219 163.19781494140625 C 93.3837890625 163.19781494140625 130.61207580566406 163.19781494140625 167.8393096923828 163.19781494140625 C 167.8393096923828 166.50547790527344 167.8393096923828 169.81210327148438 167.8393096923828 173.1187286376953 C 130.61207580566406 173.1187286376953 93.3837890625 173.1187286376953 56.15653991699219 173.1187286376953 C 56.15653991699219 169.81210327148438 56.15653991699219 166.50547790527344 56.15653991699219 163.19781494140625" stroke-width="0.0" fill="rgb(50, 51, 54)" opacity="1.0"/>
    <path d="M 57.40544891357422 164.44363403320312 C 57.40544891357422 166.9197235107422 57.40544891357422 169.39683532714844 57.40544891357422 171.87396240234375 C 93.80009460449219 171.87396240234375 130.1957550048828 171.87396240234375 166.59039306640625 171.87396240234375 C 166.59039306640625 169.39683532714844 166.59039306640625 166.9197235107422 166.59039306640625 164.44363403320312 C 130.1957550048828 164.44363403320312 93.80009460449219 164.44363403320312 57.40544891357422 164.44363403320312" stroke-width="0.0" fill="rgb(104, 161, 63)" opacity="1.0"/>
  </g>
</svg>
