<?xml version="1.0" ?>
<svg xmlns="http://www.w3.org/2000/svg" version="1.1" width="224" height="224">
  <defs/>
  <g>
    <path d="M 71.55332946777344 63.70887756347656 C 85.60774993896484 63.70887756347656 99.66120910644531 63.70887756347656 113.71562957763672 63.70887756347656 C 117.8844223022461 64.2716293334961 120.1085433959961 66.49478912353516 120.67033386230469 70.66454315185547 C 120.67033386230469 77.54818725585938 120.67033386230469 84.43182373046875 120.67033386230469 91.31642150878906 C 101.98040008544922 91.31642150878906 83.28952026367188 91.31642150878906 64.5986328125 91.31642150878906 C 64.5986328125 84.43182373046875 64.5986328125 77.54818725585938 64.5986328125 70.66454315185547 C 65.16041564941406 66.49478912353516 67.38358306884766 64.27067565917969 71.55332946777344 63.70887756347656 C 71.55332946777344 63.70887756347656 71.55332946777344 63.70887756347656 71.55332946777344 63.70887756347656" stroke-width="0.0" fill="rgb(51, 51, 54)" opacity="1.0"/>
    <path d="M 159.3831329345703 149.52102661132812 C 165.1038055419922 149.52102661132812 170.82449340820312 149.52102661132812 176.54420471191406 149.52102661132812 C 178.29681396484375 149.9896697998047 178.683837890625 150.38052368164062 179.16879272460938 152.1273651123047 C 179.6239776611328 161.03440856933594 180.0791778564453 169.9424285888672 180.53341674804688 178.84947204589844 C 180.0935821533203 180.62513732910156 178.86917114257812 181.83995056152344 177.81761169433594 183.31884765625 C 175.73561096191406 186.24305725097656 173.81015014648438 189.27096557617188 171.82803344726562 192.26144409179688 C 170.90805053710938 193.65103149414062 169.8391876220703 196.0 167.84170532226562 195.97311401367188 C 165.8096466064453 195.94622802734375 165.03274536132812 193.62222290039062 164.17803955078125 192.18460083007812 C 162.4033660888672 189.19989013671875 160.58642578125 186.2104034423828 158.4852294921875 183.44081115722656 C 157.32611083984375 181.91197204589844 155.80877685546875 180.83255004882812 155.41217041015625 178.91285705566406 C 155.8606414794922 169.98468017578125 156.31007385253906 161.0555419921875 156.758544921875 152.1273651123047 C 157.25119018554688 150.3958740234375 157.64588928222656 149.9963836669922 159.3831329345703 149.52102661132812 C 159.3831329345703 149.52102661132812 159.3831329345703 149.52102661132812 159.3831329345703 149.52102661132812" stroke-width="0.0" fill="rgb(56, 56, 59)" opacity="1.0"/>
    <path d="M 71.55332946777344 64.87184143066406 C 85.60774993896484 64.87184143066406 99.66120910644531 64.87184143066406 113.71562957763672 64.87184143066406 C 117.25540161132812 65.44515228271484 118.93885803222656 67.12861633300781 119.51217651367188 70.66838073730469 C 119.51217651367188 77.16500854492188 119.51217651367188 83.66259765625 119.51217651367188 90.16018676757812 C 101.59339141845703 90.16018676757812 83.67556762695312 90.16018676757812 65.75677490234375 90.16018676757812 C 65.75677490234375 83.66259765625 65.75677490234375 77.16500854492188 65.75677490234375 70.66838073730469 C 66.33106231689453 67.12861633300781 68.01355743408203 65.44515228271484 71.55332946777344 64.87184143066406 C 71.55332946777344 64.87184143066406 71.55332946777344 64.87184143066406 71.55332946777344 64.87184143066406" stroke-width="0.0" fill="rgb(51, 51, 54)" opacity="1.0"/>
    <path d="M 159.4013671875 150.66574096679688 C 165.12205505371094 150.66574096679688 170.84274291992188 150.66574096679688 176.56246948242188 150.66574096679688 C 177.209716796875 150.9423065185547 177.7849578857422 151.5079345703125 178.05577087402344 152.15711975097656 C 178.51193237304688 161.04977416992188 178.96807861328125 169.94146728515625 179.4242401123047 178.8341064453125 C 178.64830017089844 180.44361877441406 177.51510620117188 181.75927734375 176.48947143554688 183.21994018554688 C 174.5159912109375 186.0317840576172 172.66639709472656 188.9252471923828 170.76974487304688 191.78799438476562 C 170.19642639160156 192.65228271484375 169.22747802734375 194.77845764160156 167.90988159179688 194.79959106445312 C 166.49627685546875 194.82167053222656 165.61183166503906 192.2950439453125 165.08074951171875 191.40289306640625 C 163.28878784179688 188.3913116455078 161.4478302001953 185.37684631347656 159.31686401367188 182.58900451660156 C 158.33348083496094 181.30215454101562 157.20701599121094 180.36199951171875 156.56744384765625 178.8754119873047 C 157.02264404296875 169.96163940429688 157.47686767578125 161.04881286621094 157.93206787109375 152.13504028320312 C 158.19520568847656 151.4945068359375 158.76083374023438 150.9279022216797 159.4013671875 150.66574096679688 C 159.4013671875 150.66574096679688 159.4013671875 150.66574096679688 159.4013671875 150.66574096679688" stroke-width="0.0" fill="rgb(51, 51, 54)" opacity="1.0"/>
    <path d="M 71.55332946777344 66.02230834960938 C 71.55332946777344 66.02230834960938 71.55332946777344 66.02230834960938 71.55332946777344 66.02230834960938 C 68.63008880615234 66.6129150390625 67.50169372558594 67.74034118652344 66.91110229492188 70.66454315185547 C 66.91110229492188 76.77703857421875 66.91110229492188 82.8895263671875 66.91110229492188 89.00202941894531 C 84.05874633789062 89.00299072265625 101.20637512207031 89.00491333007812 118.35401916503906 89.00587463378906 C 118.35401916503906 82.89337921142578 118.35401916503906 76.78087615966797 118.35401916503906 70.66838073730469 C 117.76342010498047 67.74418640136719 116.635986328125 66.61675262451172 113.71178436279297 66.02615356445312 C 99.65928649902344 66.02519226074219 85.6058349609375 66.02326965332031 71.55332946777344 66.02230834960938" stroke-width="0.0" fill="rgb(212, 216, 206)" opacity="1.0"/>
    <path d="M 159.44650268554688 151.8574981689453 C 159.44650268554688 151.8574981689453 159.44650268554688 151.8574981689453 159.44650268554688 151.8574981689453 C 159.34182739257812 151.963134765625 159.23716735839844 152.06781005859375 159.13153076171875 152.1724853515625 C 158.6696014404297 161.0939483642578 158.2076873779297 170.0144500732422 157.74481201171875 178.9359130859375 C 158.1193389892578 179.68496704101562 159.22755432128906 180.60784912109375 159.74996948242188 181.25894165039062 C 161.25482177734375 183.1383056640625 162.58486938476562 185.15980529785156 163.86883544921875 187.19378662109375 C 164.875244140625 188.78793334960938 165.84326171875 190.40704345703125 166.79397583007812 192.03480529785156 C 167.11953735351562 192.59371948242188 167.21844482421875 193.80564880371094 167.84938049316406 193.6625518798828 C 169.01907348632812 193.39749145507812 170.44131469726562 190.23419189453125 171.0213623046875 189.35546875 C 173.368408203125 185.79843139648438 175.83740234375 182.3489227294922 178.26800537109375 178.85333251953125 C 177.81951904296875 169.959716796875 177.37106323242188 161.06610107421875 176.92259216308594 152.1724853515625 C 176.81790161132812 152.06781005859375 176.71322631835938 151.963134765625 176.60760498046875 151.8574981689453 C 170.8878631591797 151.8574981689453 165.1671905517578 151.8574981689453 159.44650268554688 151.8574981689453" stroke-width="0.0" fill="rgb(212, 216, 206)" opacity="1.0"/>
    <path d="M 63.46543884277344 89.00971221923828 C 82.91114807128906 89.00971221923828 102.35685729980469 89.00971221923828 121.80256652832031 89.00971221923828 C 124.10830688476562 89.48027801513672 125.00621795654297 90.37722778320312 125.4767837524414 92.6839370727539 C 125.4767837524414 93.67115783691406 125.4767837524414 94.65837097167969 125.4767837524414 95.64654541015625 C 125.01101684570312 97.96478271484375 124.12079620361328 98.8550033569336 121.80256652832031 99.32077026367188 C 102.35685729980469 99.32077026367188 82.91114807128906 99.32077026367188 63.46543884277344 99.32077026367188 C 61.158729553222656 98.8492431640625 60.26177215576172 97.95326232910156 59.791221618652344 95.64654541015625 C 59.791221618652344 94.65837097167969 59.791221618652344 93.67115783691406 59.791221618652344 92.6839370727539 C 60.26274108886719 90.37722778320312 61.159690856933594 89.48027801513672 63.46543884277344 89.00971221923828 C 63.46543884277344 89.00971221923828 63.46543884277344 89.00971221923828 63.46543884277344 89.00971221923828" stroke-width="0.0" fill="rgb(53, 53, 55)" opacity="1.0"/>
    <path d="M 153.0209503173828 73.77600860595703 C 163.00643920898438 73.77600860595703 172.992919921875 73.77600860595703 182.97842407226562 73.77600860595703 C 182.97842407226562 99.51667785644531 182.97842407226562 125.25733947753906 182.97842407226562 150.99896240234375 C 182.45791625976562 156.79742431640625 178.80001831054688 160.45533752441406 173.0006103515625 160.975830078125 C 169.6663360595703 160.975830078125 166.3320770263672 160.975830078125 162.99684143066406 160.975830078125 C 157.1993408203125 160.45533752441406 153.54144287109375 156.79647827148438 153.0209503173828 150.99896240234375 C 153.0209503173828 125.25733947753906 153.0209503173828 99.51667785644531 153.0209503173828 73.77600860595703" stroke-width="0.0" fill="rgb(51, 51, 54)" opacity="1.0"/>
    <path d="M 167.995361328125 166.46218872070312 C 167.995361328125 166.46218872070312 167.995361328125 166.46218872070312 167.995361328125 166.46218872070312 C 169.69610595703125 166.80694580078125 171.0885772705078 167.23045349121094 171.82611083984375 169.00514221191406 C 172.94586181640625 171.70077514648438 170.9301300048828 174.7786407470703 167.995361328125 174.77767944335938 C 165.0605926513672 174.77767944335938 163.0438995361328 171.6998291015625 164.16555786132812 169.0032196044922 C 164.90213012695312 167.23045349121094 166.2955780029297 166.80694580078125 167.995361328125 166.46218872070312 C 167.995361328125 166.46218872070312 167.995361328125 166.46218872070312 167.995361328125 166.46218872070312" stroke-width="0.0" fill="rgb(54, 54, 57)" opacity="1.0"/>
    <path d="M 63.46543884277344 90.16403198242188 C 82.91114807128906 90.16403198242188 102.35685729980469 90.16403198242188 121.80256652832031 90.16403198242188 C 123.48506164550781 90.62210083007812 123.86438751220703 91.00143432617188 124.32246398925781 92.6839370727539 C 124.32246398925781 93.67115783691406 124.32246398925781 94.65837097167969 124.32246398925781 95.64654541015625 C 123.86438751220703 97.32904815673828 123.48506164550781 97.7083740234375 121.80256652832031 98.16549682617188 C 102.35685729980469 98.16549682617188 82.91114807128906 98.16549682617188 63.46543884277344 98.16549682617188 C 61.783905029296875 97.70741271972656 61.40361022949219 97.32808685302734 60.946495056152344 95.64654541015625 C 60.946495056152344 94.65837097167969 60.946495056152344 93.67115783691406 60.946495056152344 92.6839370727539 C 61.404571533203125 91.00239562988281 61.783905029296875 90.62210083007812 63.46543884277344 90.16403198242188 C 63.46543884277344 90.16403198242188 63.46543884277344 90.16403198242188 63.46543884277344 90.16403198242188" stroke-width="0.0" fill="rgb(51, 51, 54)" opacity="1.0"/>
    <path d="M 154.17526245117188 74.93032836914062 C 163.3905792236328 74.93032836914062 172.60494995117188 74.93032836914062 181.82025146484375 74.93032836914062 C 181.82025146484375 100.286865234375 181.82025146484375 125.6424331665039 181.82025146484375 150.99896240234375 C 181.29879760742188 156.1713104248047 178.16908264160156 159.300048828125 172.9967498779297 159.82150268554688 C 169.6634521484375 159.82150268554688 166.33013916015625 159.82150268554688 162.99684143066406 159.82150268554688 C 157.82546997070312 159.300048828125 154.69671630859375 156.1703338623047 154.17526245117188 150.99896240234375 C 154.17526245117188 125.6424331665039 154.17526245117188 100.286865234375 154.17526245117188 74.93032836914062" stroke-width="0.0" fill="rgb(51, 51, 54)" opacity="1.0"/>
    <path d="M 167.995361328125 167.61651611328125 C 167.995361328125 167.61651611328125 167.995361328125 167.61651611328125 167.995361328125 167.61651611328125 C 166.7430877685547 167.9545440673828 166.11888122558594 167.85369873046875 165.40248107910156 169.1031036376953 C 164.27024841308594 171.07562255859375 165.7011260986328 173.62338256835938 167.995361328125 173.62338256835938 C 170.28958129882812 173.62338256835938 171.72622680664062 171.0784912109375 170.5920867919922 169.1031036376953 C 169.87472534179688 167.85275268554688 169.2485809326172 167.9545440673828 167.995361328125 167.61651611328125 C 167.995361328125 167.61651611328125 167.995361328125 167.61651611328125 167.995361328125 167.61651611328125" stroke-width="0.0" fill="rgb(51, 51, 54)" opacity="1.0"/>
    <path d="M 166.840087890625 173.62338256835938 C 167.61026000976562 173.62338256835938 168.38046264648438 173.62338256835938 169.14967346191406 173.62338256835938 C 169.14967346191406 180.45034790039062 169.14967346191406 187.27828979492188 169.14967346191406 194.10525512695312 C 168.38046264648438 194.10525512695312 167.61026000976562 194.10525512695312 166.840087890625 194.10525512695312 C 166.840087890625 187.27828979492188 166.840087890625 180.45034790039062 166.840087890625 173.62338256835938" stroke-width="0.0" fill="rgb(51, 51, 54)" opacity="1.0"/>
    <path d="M 63.46543884277344 91.31642150878906 C 63.46543884277344 91.31642150878906 63.46543884277344 91.31642150878906 63.46543884277344 91.31642150878906 C 62.870994567871094 91.56130981445312 62.34569549560547 92.08564758300781 62.10081481933594 92.68008422851562 C 62.10081481933594 93.66730499267578 62.10081481933594 94.65452575683594 62.10081481933594 95.64270782470703 C 62.34569549560547 96.23715209960938 62.870994567871094 96.76148986816406 63.46543884277344 97.00733947753906 C 82.91114807128906 97.00733947753906 102.35685729980469 97.00733947753906 121.80256652832031 97.00733947753906 C 122.39700317382812 96.76148986816406 122.92230987548828 96.23715209960938 123.16719055175781 95.64270782470703 C 123.16719055175781 94.65452575683594 123.16719055175781 93.66730499267578 123.16719055175781 92.68008422851562 C 122.92230987548828 92.08564758300781 122.39700317382812 91.56130981445312 121.80256652832031 91.31642150878906 C 102.35685729980469 91.31642150878906 82.91114807128906 91.31642150878906 63.46543884277344 91.31642150878906" stroke-width="0.0" fill="rgb(212, 216, 206)" opacity="1.0"/>
    <path d="M 155.32958984375 76.08560180664062 C 155.32958984375 101.05607604980469 155.32958984375 126.02752685546875 155.32958984375 150.99896240234375 C 155.85488891601562 155.53076171875 158.46505737304688 158.14190673828125 162.99684143066406 158.66720581054688 C 166.33013916015625 158.66720581054688 169.6634521484375 158.66720581054688 172.9967498779297 158.66720581054688 C 177.52951049804688 158.14190673828125 180.14065551757812 155.53076171875 180.66497802734375 150.99896240234375 C 180.66497802734375 126.02752685546875 180.66497802734375 101.05607604980469 180.66497802734375 76.08560180664062 C 172.2198486328125 76.08560180664062 163.77471923828125 76.08560180664062 155.32958984375 76.08560180664062" stroke-width="0.0" fill="rgb(254, 213, 50)" opacity="1.0"/>
    <path d="M 167.995361328125 168.77081298828125 C 167.995361328125 168.77081298828125 167.995361328125 168.77081298828125 167.995361328125 168.77081298828125 C 167.55841064453125 168.9503936767578 167.01870727539062 168.97633361816406 166.68450927734375 169.31051635742188 C 165.53884887695312 170.4571533203125 166.37721252441406 172.4680938720703 167.995361328125 172.4680938720703 C 169.61448669433594 172.46713256835938 170.45379638671875 170.4571533203125 169.3052520751953 169.30859375 C 168.97103881835938 168.97537231445312 168.4313507080078 168.9503936767578 167.995361328125 168.77081298828125 C 167.995361328125 168.77081298828125 167.995361328125 168.77081298828125 167.995361328125 168.77081298828125" stroke-width="0.0" fill="rgb(239, 237, 228)" opacity="1.0"/>
    <path d="M 68.44570922851562 96.98908996582031 C 84.57154846191406 96.98908996582031 100.69740295410156 96.98908996582031 116.82324981689453 96.98908996582031 C 116.82324981689453 99.20072937011719 116.82324981689453 101.41332244873047 116.82324981689453 103.62496185302734 C 126.19414520263672 104.44700622558594 139.19700622558594 104.66020202636719 143.29087829589844 114.94148254394531 C 144.01113891601562 116.74978637695312 144.22145080566406 118.50814819335938 144.3443603515625 120.43072509765625 C 144.3443603515625 136.8225860595703 144.3443603515625 153.2154083251953 144.3443603515625 169.60726928710938 C 143.7816162109375 173.0865478515625 142.13465881347656 174.754638671875 138.65249633789062 175.32122802734375 C 107.97382354736328 175.3221893310547 77.29418182373047 175.32411193847656 46.615501403808594 175.3250732421875 C 43.13623046875 174.76327514648438 41.487342834472656 173.11151123046875 40.924591064453125 169.63319396972656 C 40.924591064453125 153.32296752929688 40.924591064453125 137.01368713378906 40.924591064453125 120.70346069335938 C 41.39611053466797 113.3732681274414 45.707984924316406 108.08089447021484 52.79521942138672 106.14486694335938 C 52.9210205078125 106.11701965332031 53.04682159423828 106.09013366699219 53.173583984375 106.06228637695312 C 58.238365173339844 105.02896118164062 63.29833984375 104.23573303222656 68.44570922851562 103.72964477539062 C 68.44570922851562 101.48246765136719 68.44570922851562 99.23625946044922 68.44570922851562 96.98908996582031" stroke-width="0.0" fill="rgb(77, 78, 78)" opacity="1.0"/>
    <path d="M 167.995361328125 27.99999237060547 C 167.995361328125 27.99999237060547 167.995361328125 27.99999237060547 167.995361328125 27.99999237060547 C 169.95155334472656 28.11139678955078 171.76657104492188 28.283287048339844 173.60848999023438 29.016021728515625 C 182.79019165039062 32.66911315917969 184.84530639648438 44.571441650390625 185.47335815429688 53.20575714111328 C 185.63661193847656 55.453887939453125 185.67982482910156 57.699134826660156 185.7047882080078 59.952064514160156 C 185.7047882080078 71.00161743164062 185.7047882080078 82.0511703491211 185.7047882080078 93.10071563720703 C 185.16796875 101.05223846435547 179.7488250732422 106.47041320800781 171.79730224609375 107.00724792480469 C 169.2639617919922 107.00724792480469 166.73060607910156 107.00724792480469 164.197265625 107.00724792480469 C 156.2457275390625 106.47041320800781 150.8275604248047 101.05128479003906 150.2907257080078 93.10071563720703 C 150.28977966308594 82.0511703491211 150.28785705566406 71.00161743164062 150.28689575195312 59.952064514160156 C 150.31185913085938 57.699134826660156 150.35507202148438 55.453887939453125 150.51832580566406 53.20575714111328 C 151.14639282226562 44.567588806152344 153.1986083984375 32.684478759765625 162.37648010253906 29.022743225097656 C 164.22125244140625 28.286163330078125 166.03628540039062 28.112350463867188 167.995361328125 27.99999237060547 C 167.995361328125 27.99999237060547 167.995361328125 27.99999237060547 167.995361328125 27.99999237060547" stroke-width="0.0" fill="rgb(53, 52, 55)" opacity="1.0"/>
    <path d="M 69.60002136230469 98.16549682617188 C 69.60002136230469 100.38577270507812 69.60002136230469 102.6051025390625 69.60002136230469 104.82537841796875 C 60.75347137451172 105.61860656738281 47.41545104980469 105.67718505859375 43.23609924316406 115.20077514648438 C 42.440948486328125 117.0129165649414 42.21527099609375 118.7751235961914 42.07891082763672 120.72554779052734 C 42.07891082763672 137.0271453857422 42.07891082763672 153.32777404785156 42.07891082763672 169.6293487548828 C 42.657020568847656 172.4844207763672 43.76043701171875 173.58782958984375 46.615501403808594 174.1669158935547 C 77.293212890625 174.1669158935547 107.97093963623047 174.1669158935547 138.64865112304688 174.1669158935547 C 141.50466918945312 173.5887908935547 142.60809326171875 172.48536682128906 143.18621826171875 169.6293487548828 C 143.18621826171875 153.23748779296875 143.18621826171875 136.8446807861328 143.18621826171875 120.45281982421875 C 143.04888916015625 118.49662017822266 142.8212890625 116.73153686523438 142.01942443847656 114.91458892822266 C 137.80068969726562 105.35260009765625 124.53565216064453 105.4486312866211 115.66893768310547 104.71974182128906 C 115.66893768310547 102.53498840332031 115.66893768310547 100.3502426147461 115.66893768310547 98.16549682617188 C 100.31230926513672 98.16549682617188 84.95664978027344 98.16549682617188 69.60002136230469 98.16549682617188" stroke-width="0.0" fill="rgb(51, 51, 54)" opacity="1.0"/>
    <path d="M 167.995361328125 29.154312133789062 C 167.995361328125 29.154312133789062 167.995361328125 29.154312133789062 167.995361328125 29.154312133789062 C 166.27349853515625 29.22345733642578 164.62460327148438 29.406875610351562 163.0006866455078 30.02820587158203 C 154.0100860595703 33.46714782714844 152.19122314453125 45.41844177246094 151.6390380859375 53.717613220214844 C 151.4613800048828 56.38252258300781 151.48345947265625 57.24297332763672 151.44119262695312 59.952064514160156 C 151.44119262695312 71.00161743164062 151.44119262695312 82.0511703491211 151.44119262695312 93.10071563720703 C 151.97994995117188 100.42802429199219 156.86610412597656 105.3141860961914 164.19342041015625 105.85196685791016 C 166.72772216796875 105.85196685791016 169.2629852294922 105.85196685791016 171.79730224609375 105.85196685791016 C 179.12461853027344 105.3141860961914 184.01077270507812 100.42802429199219 184.54855346679688 93.10071563720703 C 184.54855346679688 82.0511703491211 184.54855346679688 71.00161743164062 184.54855346679688 59.952064514160156 C 184.50726318359375 57.24297332763672 184.5293426513672 56.38252258300781 184.3516845703125 53.717613220214844 C 183.79949951171875 45.41844177246094 181.9806365966797 33.46714782714844 172.9900360107422 30.02820587158203 C 171.36611938476562 29.406875610351562 169.71722412109375 29.22345733642578 167.995361328125 29.154312133789062 C 167.995361328125 29.154312133789062 167.995361328125 29.154312133789062 167.995361328125 29.154312133789062" stroke-width="0.0" fill="rgb(51, 51, 54)" opacity="1.0"/>
    <path d="M 114.51078033447266 99.31692504882812 C 99.92529296875 99.31788635253906 85.3398208618164 99.31884765625 70.75433349609375 99.32077026367188 C 70.75433349609375 101.51224517822266 70.75433349609375 103.70467376708984 70.75433349609375 105.89710235595703 C 70.3970947265625 105.9249496459961 70.03985595703125 105.95184326171875 69.68260955810547 105.97969055175781 C 64.26827239990234 106.4665756225586 58.955726623535156 107.27037048339844 53.630699157714844 108.35363006591797 C 53.504905700683594 108.3805160522461 53.378135681152344 108.40837097167969 53.25233459472656 108.43525695800781 C 47.21282196044922 110.1782455444336 43.72106170654297 114.45939636230469 43.23033142089844 120.72554779052734 C 43.23033142089844 137.0271453857422 43.23033142089844 153.32777404785156 43.23033142089844 169.6293487548828 C 43.841102600097656 171.894775390625 44.34623718261719 172.40086364746094 46.611656188964844 173.01162719726562 C 77.28937530517578 173.01162719726562 107.96709442138672 173.01162719726562 138.6448211669922 173.01162719726562 C 140.9102325439453 172.40086364746094 141.41632080078125 171.894775390625 142.027099609375 169.6293487548828 C 142.02902221679688 153.23748779296875 142.0299835205078 136.8446807861328 142.0309295654297 120.45281982421875 C 141.8753662109375 118.46109008789062 141.62278747558594 116.69696807861328 140.72007751464844 114.8809814453125 C 136.48406982421875 106.35326385498047 123.74626922607422 106.54340362548828 115.58250427246094 105.87117004394531 C 115.22526550292969 105.84428405761719 114.86802673339844 105.81643676757812 114.51078033447266 105.78858184814453 C 114.51078033447266 103.6316909790039 114.51078033447266 101.47383117675781 114.51078033447266 99.31692504882812" stroke-width="0.0" fill="rgb(254, 213, 50)" opacity="1.0"/>
    <path d="M 167.99920654296875 30.309585571289062 C 167.99920654296875 30.309585571289062 167.99920654296875 30.309585571289062 167.99920654296875 30.309585571289062 C 166.11215209960938 30.434425354003906 164.39988708496094 30.619773864746094 162.6616973876953 31.437973022460938 C 154.36734008789062 35.34458923339844 153.1217803955078 47.26323699951172 152.7338104248047 55.22052764892578 C 152.63490295410156 57.25450897216797 152.64642333984375 57.89311981201172 152.6233673095703 59.94822311401367 C 152.6233673095703 70.99777221679688 152.6233673095703 82.04732513427734 152.6233673095703 93.09687805175781 C 153.16595458984375 99.78749084472656 157.52969360351562 104.1512222290039 164.22030639648438 104.69380950927734 C 166.75460815429688 104.69380950927734 169.28988647460938 104.69380950927734 171.82418823242188 104.69380950927734 C 178.51385498046875 104.1512222290039 182.8785400390625 99.78652954101562 183.421142578125 93.09687805175781 C 183.41921997070312 82.04827880859375 183.41824340820312 71.00065612792969 183.41729736328125 59.952064514160156 C 183.39328002929688 57.89695739746094 183.40576171875 57.26506805419922 183.30587768554688 55.230133056640625 C 182.91217041015625 47.25555419921875 181.6627655029297 35.3436279296875 173.34535217285156 31.441810607910156 C 171.6033172607422 30.62457275390625 169.88624572753906 30.438270568847656 167.995361328125 30.313430786132812 C 167.995361328125 30.313430786132812 167.995361328125 30.313430786132812 167.995361328125 30.313430786132812 C 167.995361328125 30.313430786132812 167.99920654296875 30.309585571289062 167.99920654296875 30.309585571289062" stroke-width="0.0" fill="rgb(103, 161, 63)" opacity="1.0"/>
    <path d="M 41.909881591796875 165.15614318847656 C 75.73268127441406 165.15614318847656 109.55451965332031 165.15614318847656 143.3773193359375 165.15614318847656 C 145.79638671875 165.8101348876953 146.33706665039062 166.35174560546875 146.99200439453125 168.77081298828125 C 146.99200439453125 171.3406524658203 146.99200439453125 173.91050720214844 146.99200439453125 176.47940063476562 C 146.3380126953125 178.8994140625 145.79638671875 179.44007873535156 143.3773193359375 180.09503173828125 C 109.55451965332031 180.09503173828125 75.73268127441406 180.09503173828125 41.909881591796875 180.09503173828125 C 39.490814208984375 179.44007873535156 38.95014953613281 178.89845275878906 38.29521179199219 176.47940063476562 C 38.29521179199219 173.91050720214844 38.29521179199219 171.3406524658203 38.29521179199219 168.77081298828125 C 38.95014953613281 166.35174560546875 39.490814208984375 165.8110809326172 41.909881591796875 165.15614318847656 C 41.909881591796875 165.15614318847656 41.909881591796875 165.15614318847656 41.909881591796875 165.15614318847656" stroke-width="0.0" fill="rgb(63, 63, 65)" opacity="1.0"/>
    <path d="M 40.924591064453125 126.8601303100586 C 75.39752197265625 126.8601303100586 109.87142944335938 126.8601303100586 144.3443603515625 126.8601303100586 C 144.3443603515625 135.39649963378906 144.3443603515625 143.93191528320312 144.3443603515625 152.46827697753906 C 109.87142944335938 152.46827697753906 75.39752197265625 152.46827697753906 40.924591064453125 152.46827697753906 C 40.924591064453125 143.93191528320312 40.924591064453125 135.39649963378906 40.924591064453125 126.8601303100586" stroke-width="0.0" fill="rgb(51, 51, 54)" opacity="1.0"/>
    <path d="M 167.995361328125 44.11432647705078 C 167.995361328125 44.11432647705078 167.995361328125 44.11432647705078 167.995361328125 44.11432647705078 C 168.543701171875 44.342872619628906 169.0277099609375 44.825927734375 169.25531005859375 45.37427520751953 C 169.25531005859375 60.8355712890625 169.25531005859375 76.296875 169.25531005859375 91.75817108154297 C 168.59556579589844 93.34559631347656 167.39515686035156 93.34559631347656 166.73541259765625 91.75817108154297 C 166.73541259765625 76.296875 166.73541259765625 60.8355712890625 166.73541259765625 45.37427520751953 C 166.96395874023438 44.825927734375 167.447021484375 44.342872619628906 167.995361328125 44.11432647705078 C 167.995361328125 44.11432647705078 167.995361328125 44.11432647705078 167.995361328125 44.11432647705078" stroke-width="0.0" fill="rgb(51, 51, 53)" opacity="1.0"/>
    <path d="M 41.909881591796875 166.3075714111328 C 75.73268127441406 166.3075714111328 109.55451965332031 166.3075714111328 143.3773193359375 166.3075714111328 C 145.0281219482422 166.75027465820312 145.39305114746094 167.11618041992188 145.8357696533203 168.76698303222656 C 145.8347930908203 171.33778381347656 145.83384704589844 173.90858459472656 145.83192443847656 176.47940063476562 C 145.38536071777344 178.12347412109375 145.01756286621094 178.4951171875 143.37347412109375 178.93975830078125 C 109.55259704589844 178.93878173828125 75.73171997070312 178.93685913085938 41.909881591796875 178.9359130859375 C 40.25811767578125 178.49319458007812 39.89319610595703 178.12730407714844 39.45048522949219 176.4755401611328 C 39.45048522949219 173.90667724609375 39.45048522949219 171.33682250976562 39.45048522949219 168.76698303222656 C 39.89319610595703 167.11521911621094 40.25907897949219 166.75027465820312 41.909881591796875 166.3075714111328 C 41.909881591796875 166.3075714111328 41.909881591796875 166.3075714111328 41.909881591796875 166.3075714111328" stroke-width="0.0" fill="rgb(51, 51, 54)" opacity="1.0"/>
    <path d="M 42.07891082763672 128.01541137695312 C 75.78166198730469 128.01541137695312 109.48345947265625 128.01541137695312 143.18621826171875 128.01541137695312 C 143.18621826171875 135.78158569335938 143.18621826171875 143.5477752685547 143.18621826171875 151.31396484375 C 109.48345947265625 151.31396484375 75.78166198730469 151.31396484375 42.07891082763672 151.31396484375 C 42.07891082763672 143.5477752685547 42.07891082763672 135.78158569335938 42.07891082763672 128.01541137695312" stroke-width="0.0" fill="rgb(51, 51, 54)" opacity="1.0"/>
    <path d="M 41.888755798339844 167.46957397460938 C 41.888755798339844 167.46957397460938 41.88971710205078 167.46957397460938 41.89067840576172 167.46957397460938 C 41.325050354003906 167.70677185058594 40.826637268066406 168.20518493652344 40.59039306640625 168.77081298828125 C 40.58943176269531 171.3406524658203 40.588478088378906 173.91050720214844 40.58655548095703 176.47940063476562 C 40.822792053222656 177.04598999023438 41.32215881347656 177.5443878173828 41.888755798339844 177.78158569335938 C 75.71060180664062 177.78158569335938 109.53244018554688 177.78158569335938 143.35427856445312 177.78158569335938 C 143.91989135742188 177.5443878173828 144.41928100585938 177.04598999023438 144.655517578125 176.47940063476562 C 144.655517578125 173.91050720214844 144.655517578125 171.3406524658203 144.655517578125 168.77081298828125 C 144.41928100585938 168.20518493652344 143.91989135742188 167.70582580566406 143.35427856445312 167.46957397460938 C 109.53244018554688 167.46957397460938 75.71060180664062 167.46957397460938 41.888755798339844 167.46957397460938" stroke-width="0.0" fill="rgb(215, 160, 40)" opacity="1.0"/>
    <path d="M 43.23418426513672 129.1697235107422 C 43.23418426513672 136.16476440429688 43.23418426513672 143.15980529785156 43.23418426513672 150.15484619140625 C 76.166748046875 150.15579223632812 109.09932708740234 150.15771484375 142.0309295654297 150.15867614746094 C 142.0309295654297 143.1636505126953 142.0309295654297 136.16859436035156 142.0309295654297 129.17355346679688 C 109.09932708740234 129.172607421875 76.166748046875 129.17068481445312 43.23418426513672 129.1697235107422" stroke-width="0.0" fill="rgb(104, 161, 64)" opacity="1.0"/>
  </g>
</svg>
