<?xml version="1.0" encoding="UTF-8"?>
<svg xmlns="http://www.w3.org/2000/svg" version="1.1" viewBox="0 0 224 224">
  <defs>
    <style>
      .cls-1 {
        fill: #d7a028;
      }

      .cls-2 {
        fill: #333336;
      }

      .cls-3 {
        fill: #d4d8ce;
      }

      .cls-4 {
        fill: #68a140;
      }

      .cls-5 {
        fill: #fed532;
      }

      .cls-6 {
        fill: #33363e;
        isolation: isolate;
        opacity: 1;
      }
    </style>
  </defs>
  <!-- Generator: Adobe Illustrator 28.6.0, SVG Export Plug-In . SVG Version: 1.2.0 Build 709)  -->
  <g>
    <g id="_图层_1" data-name="图层_1">
      <g>
        <path class="cls-2" d="M28.4,154.2c-.4-.4.7-.8,1.4-.9,2-.4,3-.7,3.8-2.9.3-2.5,1.5-4,3.1-5.4,2.4-.8,4.1-1.9,4.5-2.2-.2-.6,1.1-2.7,2.7-4.5l4.7-2.7-6.3-11.1c-3.6-5.9-6.3-11-6.9-11.7,0-.3,4.8-2.2,10.2-3.8,6.5-1.6,11-3,11.2-3,.3-.2-.8-2.6-2.2-5.8l-2.5-5.4,2.1-.7c.9-.6,8-1.1,15.2-1.2,7.2.3,12.9.4,13-.3-.2-.5-2-7.1-3.9-15-1.7-7.7-3.5-14.6-3.6-14.9.6-3.2,27.6,5,41.9,12.4,10.8,5.4,18.1,10.1,30.4,19.5,5.4,5,8.8,7,11.1,6.3,5.4,0,33.8,8.9,35.5,10.6,1.2,1.7-4,20.9-9.4,27.9-1.6,2.8-1.3,3.6,1.1,4,3.5,2.2,5.4,5.1,5,7.7.2,1.9.9,2.3,2.6,1.8,1.2.4,2.3,1,2,1.5-.6,1.5-28.5,1.9-83.2,3.3-55.1-1.4-83.1-1.9-83.4-3.4"/>
        <path class="cls-4" d="M30.3,163.7c-.3-.5-.7-2.3-.6-4.3v-3.9c-.1,0,165.1-.2,165.1-.2l-.2,9.2h-82c-44.6,0-81.9-.3-82.3-.7"/>
        <path class="cls-3" d="M149.7,144.3c-3.7-.5-7.6-.9-11.1-.4-2.6.6-5.1.7-5.4-.5.1-.4,5-8.5,9.9-18.4,4.9-9.9,9-18.9,9.1-19.6.2-1.9,5.1-2.1,12.3-.2,7.9,1.4,26.2,7.5,26.3,8-.2.8-3.4,3.6-7.4,6.9-4.2,2.9-12,10.2-17.7,16-5.7,5.9-10.2,10.7-10.6,10.5-.3-.3-2.8-1.1-5.5-2.3"/>
        <path class="cls-3" d="M93.1,137.7c-1.2-15.3-9.2-55.7-13.7-70-.2-1.6.1-2.2,1.3-1.8,4.1-.2,25.7,7.3,36.8,13,12,6.1,32.6,21.2,32.6,23.1.2,1.2-5.8,13.7-16.2,32.4-2,4.2-4,8.5-4,9.4-.7,1.1-2.4.7-6.3-1.8-9.2-5.3-21-5.1-26.7.1l-3.3,2.9-.6-7.2"/>
        <path class="cls-3" d="M172.3,133.7c5.8-6.3,12.5-12.1,14.3-13.4l3.2-2.3-1,3.5c-1.1,6.4-6.2,16-9.5,18.5-3.6,2.6-9.8,4.5-14.6,4.3-3.4.4-2.9,0,7.7-10.6"/>
        <path class="cls-3" d="M79.5,141.2c-1.8-.9-8.8-2.8-15.5-4.2l-12.2-2.4-12.1-20.9,7.3-2.5c5.2-1.4,9.4-2.4,10.1-3,1.7,0,4.3,3,7,7.9,5.9,8.6,9.2,13.1,15.9,20.4,2.8,2.9,4.5,5.2,3.9,5.7,0,0-2-.6-4.3-1.2"/>
        <path class="cls-3" d="M82,135.5c-3.9-4-9-10.8-11.8-15-5.3-7.3-14.1-22.5-14-24.4-.5,0,5.7-.2,13.2-.4l13.5.3,2.2,13.1c3.4,18.3,5.5,34.1,4.5,34-.7,0-3.9-3.6-7.7-7.6"/>
        <path class="cls-5" d="M100.7,143.7c-1.1-2.1,5.4-4.4,6.6-2.7.8.8.8,2.1.4,2.9-1.4,1.8-6,1.5-7-.2"/>
        <path class="cls-5" d="M110.5,143.8c-.5-.6-.3-1.8.3-2.2,1.7-1.9,9.7.4,9,2.3-1,1.7-8,1.7-9.3,0"/>
        <path class="cls-1" d="M35.7,151.8c.2-4.8,2.5-5.8,10.6-5.8,5.4.6,6.6,1,6.2-.3-.7-2.1-2.2-3.1-5.5-2.8-3.4-.3-3.6-1.8,0-3.9,2.4-1.8,3.2-1.7,16.4,1.2,7.5,1.8,16.1,4.1,19.3,5.2,4.2,2,8.7,2.2,27.5,1.7,12.6.6,25.6.6,28.3,0,4.8-.9,8-.7,12.6.8,4.1,1.5,6.1,1.7,6.7,1,.7-1.1,2.9-1.6,4.9-1.2,2.1.1,6.1-.7,9.2-1.6,10.1-3.4,10.2-3.4,13.4.5,6.9,7.1,10.7,6.5-73.3,6.4-73.5,0-75.6.2-76.3-1.1"/>
        <path class="cls-6" d="M64.7,133.4c-6.8-.1-7.2-1.3-3.2-4.6,2.6-2.3,2.4-2.1,6.7,2.4,2.7,1.8,3.9,3.7,3.1,3.4-.6-.3-3.7-.6-6.7-1.2"/>
      </g>
    </g>
  </g>
</svg>