<?xml version="1.0" ?>
<svg xmlns="http://www.w3.org/2000/svg" version="1.1" width="224" height="224">
  <defs/>
  <g>
    <path d="M 58.32736587524414 93.63787841796875 C 94.10911560058594 93.63787841796875 129.890869140625 93.63787841796875 165.67262268066406 93.63787841796875 C 165.67262268066406 117.17881774902344 165.67262268066406 140.71975708007812 165.67262268066406 164.259765625 C 129.890869140625 164.259765625 94.10911560058594 164.259765625 58.32736587524414 164.259765625 C 58.32736587524414 140.71975708007812 58.32736587524414 117.17881774902344 58.32736587524414 93.63787841796875" stroke-width="0.0" fill="rgb(178, 23, 25)" opacity="1.0"/>
    <path d="M 61.15217208862305 96.46358489990234 C 61.15217208862305 118.12041473388672 61.15217208862305 139.7781524658203 61.15217208862305 161.4349822998047 C 95.05072021484375 161.4349822998047 128.9492645263672 161.4349822998047 162.8478240966797 161.4349822998047 C 162.84872436523438 139.7781524658203 162.85055541992188 118.12041473388672 162.85145568847656 96.46358489990234 C 128.95199584960938 96.46358489990234 95.05162811279297 96.46358489990234 61.15217208862305 96.46358489990234" stroke-width="0.0" fill="rgb(250, 28, 61)" opacity="1.0"/>
    <path d="M 54.090614318847656 161.4385986328125 C 92.69807434082031 161.4385986328125 131.3055419921875 161.4385986328125 169.91302490234375 161.4385986328125 C 171.32676696777344 161.72372436523438 171.83706665039062 161.6074981689453 172.9085235595703 162.6798553466797 C 175.923095703125 165.69351196289062 173.22450256347656 169.242919921875 169.91302490234375 169.91119384765625 C 131.3055419921875 169.91119384765625 92.69807434082031 169.91119384765625 54.090614318847656 169.91119384765625 C 52.67685317993164 169.62608337402344 52.16746520996094 169.74322509765625 51.09511184692383 168.67086791992188 C 48.080528259277344 165.6562957763672 50.779117584228516 162.10690307617188 54.090614318847656 161.4385986328125 C 54.090614318847656 161.4385986328125 54.090614318847656 161.4385986328125 54.090614318847656 161.4385986328125" stroke-width="0.0" fill="rgb(178, 24, 26)" opacity="1.0"/>
    <path d="M 72.45410919189453 93.63787841796875 C 85.6374282836914 93.63787841796875 98.82075500488281 93.63787841796875 112.00408172607422 93.63787841796875 C 112.00408172607422 116.23721313476562 112.00408172607422 138.83563232421875 112.00408172607422 161.4349822998047 C 98.82075500488281 161.43588256835938 85.6374282836914 161.43771362304688 72.45410919189453 161.4385986328125 C 72.45410919189453 138.83836364746094 72.45410919189453 116.23812103271484 72.45410919189453 93.63787841796875" stroke-width="0.0" fill="rgb(253, 215, 33)" opacity="1.0"/>
    <path d="M 54.090614318847656 162.84963989257812 C 92.69807434082031 162.84963989257812 131.3055419921875 162.84963989257812 169.91302490234375 162.84963989257812 C 170.43601989746094 162.95497131347656 171.00534057617188 162.92501831054688 171.48204040527344 163.163818359375 C 173.22178649902344 164.0345916748047 173.22178649902344 167.31613159179688 171.48204040527344 168.1859893798828 C 171.00534057617188 168.4248046875 170.43601989746094 168.395751953125 169.91302490234375 168.5001678466797 C 131.3055419921875 168.5001678466797 92.69807434082031 168.5001678466797 54.090614318847656 168.5001678466797 C 53.567604064941406 168.395751953125 52.998287200927734 168.4248046875 52.521583557128906 168.1859893798828 C 50.7818489074707 167.31613159179688 50.7818489074707 164.0345916748047 52.521583557128906 163.163818359375 C 52.998287200927734 162.92501831054688 53.567604064941406 162.95497131347656 54.090614318847656 162.84963989257812 C 54.090614318847656 162.84963989257812 54.090614318847656 162.84963989257812 54.090614318847656 162.84963989257812" stroke-width="0.0" fill="rgb(178, 24, 26)" opacity="1.0"/>
    <path d="M 112.00045013427734 93.63787841796875 C 125.18377685546875 93.63787841796875 138.36618041992188 93.63787841796875 151.5495147705078 93.63787841796875 C 151.5495147705078 116.23721313476562 151.5495147705078 138.83563232421875 151.5495147705078 161.4349822998047 C 138.36618041992188 161.43588256835938 125.18377685546875 161.43771362304688 112.00045013427734 161.4385986328125 C 112.00045013427734 138.83836364746094 112.00045013427734 116.23812103271484 112.00045013427734 93.63787841796875" stroke-width="0.0" fill="rgb(253, 215, 33)" opacity="1.0"/>
    <path d="M 54.090614318847656 164.259765625 C 54.090614318847656 164.259765625 54.090614318847656 164.259765625 54.090614318847656 164.259765625 C 52.405357360839844 164.91354370117188 52.29548645019531 166.11846923828125 53.83546829223633 167.06460571289062 C 92.52828216552734 167.07186889648438 131.22018432617188 167.07913208007812 169.91302490234375 167.08639526367188 C 171.5982666015625 166.4344482421875 171.70904541015625 165.22772216796875 170.16543579101562 164.2852020263672 C 131.47352600097656 164.27793884277344 92.78252410888672 164.2706756591797 54.090614318847656 164.26341247558594 C 54.090614318847656 164.26341247558594 54.090614318847656 164.259765625 54.090614318847656 164.259765625" stroke-width="0.0" fill="rgb(252, 215, 32)" opacity="1.0"/>
    <path d="M 99.29110717773438 121.88954162597656 C 99.29110717773438 121.88954162597656 99.29110717773438 121.88954162597656 99.29110717773438 121.88954162597656 C 102.72335815429688 122.62684631347656 104.12714385986328 125.99462890625 103.31175231933594 129.32701110839844 C 102.85411834716797 131.19569396972656 101.416748046875 133.1914825439453 99.29110717773438 133.1914825439453 C 97.16546630859375 133.1914825439453 95.72809600830078 131.19569396972656 95.27045440673828 129.32701110839844 C 94.45507049560547 125.99462890625 95.85884857177734 122.62684631347656 99.29110717773438 121.88954162597656 C 99.29110717773438 121.88954162597656 99.29110717773438 121.88954162597656 99.29110717773438 121.88954162597656" stroke-width="0.0" fill="rgb(178, 25, 27)" opacity="1.0"/>
    <path d="M 124.7125244140625 121.88954162597656 C 124.7125244140625 121.88954162597656 124.7125244140625 121.88954162597656 124.7125244140625 121.88954162597656 C 128.14479064941406 122.62684631347656 129.54855346679688 125.99372863769531 128.73316955566406 129.32701110839844 C 128.27554321289062 131.19659423828125 126.8381576538086 133.1914825439453 124.7125244140625 133.1914825439453 C 122.58687591552734 133.1914825439453 121.1504135131836 131.19569396972656 120.69277954101562 129.32701110839844 C 119.87739562988281 125.99462890625 121.28026580810547 122.62684631347656 124.7125244140625 121.88954162597656 C 124.7125244140625 121.88954162597656 124.7125244140625 121.88954162597656 124.7125244140625 121.88954162597656" stroke-width="0.0" fill="rgb(178, 24, 26)" opacity="1.0"/>
    <path d="M 29.749725341796875 85.165283203125 C 84.58505249023438 85.165283203125 139.4194793701172 85.165283203125 194.25482177734375 85.165283203125 C 195.75393676757812 85.67375946044922 196.0 86.61536407470703 194.95578002929688 87.80303192138672 C 189.90457153320312 90.68958282470703 184.8524169921875 93.57613372802734 179.8011932373047 96.46358489990234 C 134.6016082763672 96.46358489990234 89.4029312133789 96.46358489990234 44.203346252441406 96.46358489990234 C 39.151206970214844 93.57613372802734 34.0999755859375 90.68958282470703 29.047836303710938 87.80303192138672 C 28.0 86.61627197265625 28.2506103515625 85.67375946044922 29.749725341796875 85.165283203125 C 29.749725341796875 85.165283203125 29.749725341796875 85.165283203125 29.749725341796875 85.165283203125" stroke-width="0.0" fill="rgb(178, 24, 26)" opacity="1.0"/>
    <path d="M 99.29110717773438 124.71434783935547 C 99.29110717773438 124.71434783935547 99.29110717773438 124.71434783935547 99.29110717773438 124.71434783935547 C 97.79562377929688 125.96830749511719 97.45330047607422 127.75526428222656 98.37129211425781 129.59396362304688 C 98.5501708984375 129.95172119140625 98.89067077636719 130.3657684326172 99.29110717773438 130.3657684326172 C 99.69153594970703 130.3657684326172 100.03294372558594 129.95172119140625 100.21182250976562 129.59396362304688 C 101.12799835205078 127.75707244873047 100.78295135498047 125.96830749511719 99.29110717773438 124.71434783935547 C 99.29110717773438 124.71434783935547 99.29110717773438 124.71434783935547 99.29110717773438 124.71434783935547" stroke-width="0.0" fill="rgb(255, 255, 255)" opacity="1.0"/>
    <path d="M 124.7125244140625 124.71434783935547 C 124.7125244140625 124.71434783935547 124.7125244140625 124.71434783935547 124.7125244140625 124.71434783935547 C 123.21794128417969 125.96830749511719 122.87653350830078 127.75616455078125 123.79361724853516 129.59396362304688 C 123.97249603271484 129.95172119140625 124.31208801269531 130.3657684326172 124.7125244140625 130.3657684326172 C 125.11295318603516 130.3657684326172 125.45436096191406 129.95172119140625 125.63323974609375 129.59396362304688 C 126.55123138427734 127.75616455078125 126.20527648925781 125.96830749511719 124.7125244140625 124.71434783935547 C 124.7125244140625 124.71434783935547 124.7125244140625 124.71434783935547 124.7125244140625 124.71434783935547" stroke-width="0.0" fill="rgb(255, 255, 255)" opacity="1.0"/>
    <path d="M 35.06700134277344 87.99008178710938 C 38.36487579345703 89.87419128417969 41.661842346191406 91.75830841064453 44.95880889892578 93.6415023803711 C 89.6535415649414 93.6415023803711 134.3473663330078 93.6415023803711 179.04208374023438 93.6415023803711 C 182.3390655517578 91.75830841064453 185.63601684570312 89.87419128417969 188.9329833984375 87.99008178710938 C 137.64431762695312 87.99008178710938 86.35566711425781 87.99008178710938 35.06700134277344 87.99008178710938" stroke-width="0.0" fill="rgb(252, 215, 33)" opacity="1.0"/>
    <path d="M 110.58940887451172 96.46358489990234 C 111.53101348876953 96.46358489990234 112.47261047363281 96.46358489990234 113.41421508789062 96.46358489990234 C 113.41421508789062 118.12041473388672 113.41421508789062 139.7781524658203 113.41421508789062 161.4349822998047 C 112.47261047363281 161.4349822998047 111.53101348876953 161.4349822998047 110.58940887451172 161.4349822998047 C 110.58940887451172 139.7781524658203 110.58940887451172 118.12041473388672 110.58940887451172 96.46358489990234" stroke-width="0.0" fill="rgb(211, 109, 29)" opacity="1.0"/>
    <path d="M 58.32736587524414 54.088809967041016 C 94.10911560058594 54.088809967041016 129.890869140625 54.088809967041016 165.67262268066406 54.088809967041016 C 169.43902587890625 65.38802337646484 173.20542907714844 76.68724060058594 176.97183227539062 87.9864501953125 C 133.65728759765625 87.98826599121094 90.3436279296875 87.98917388916016 47.02906036376953 87.99008178710938 C 50.794551849365234 76.68995666503906 54.56096267700195 65.38983917236328 58.32736587524414 54.088809967041016" stroke-width="0.0" fill="rgb(239, 173, 178)" opacity="1.0"/>
    <path d="M 165.67262268066406 54.088809967041016 C 169.43902587890625 65.38802337646484 173.20542907714844 76.68724060058594 176.97183227539062 87.9864501953125 C 133.65728759765625 87.98826599121094 90.3436279296875 87.98917388916016 47.02906036376953 87.99008178710938 C 50.794551849365234 76.69087219238281 54.56096267700195 65.39165496826172 58.32736587524414 54.09244155883789 C 94.10911560058594 54.09244155883789 129.890869140625 54.09244155883789 165.67262268066406 54.09244155883789 C 165.67262268066406 54.09244155883789 165.67262268066406 54.088809967041016 165.67262268066406 54.088809967041016" stroke-width="0.0" fill="rgb(179, 24, 27)" opacity="1.0"/>
    <path d="M 60.361297607421875 56.914520263671875 C 57.22323226928711 66.32962036132812 54.084259033203125 75.74563598632812 50.946197509765625 85.16165161132812 C 91.64842224121094 85.16165161132812 132.3515625 85.16165161132812 173.05380249023438 85.16165161132812 C 169.91574096679688 75.74563598632812 166.77676391601562 66.32962036132812 163.63870239257812 56.914520263671875 C 129.2126007080078 56.914520263671875 94.78739929199219 56.914520263671875 60.361297607421875 56.914520263671875" stroke-width="0.0" fill="rgb(249, 27, 60)" opacity="1.0"/>
    <path d="M 68.45525360107422 60.27141571044922 C 68.45525360107422 60.27141571044922 68.45525360107422 60.27141571044922 68.45525360107422 60.27141571044922 C 68.99732971191406 60.60283660888672 69.43589782714844 61.17760467529297 69.61114501953125 61.788692474365234 C 67.42375946044922 69.7073974609375 65.23637390136719 77.62611389160156 63.04899597167969 85.5448226928711 C 61.97119140625 86.99853515625 60.777164459228516 86.77608489990234 60.28321075439453 85.0372543334961 C 62.471500396728516 77.11944580078125 64.65888977050781 69.20255279541016 66.84626770019531 61.28474807739258 C 67.22309875488281 60.77535629272461 67.83236694335938 60.39126968383789 68.45525360107422 60.27141571044922 C 68.45525360107422 60.27141571044922 68.45525360107422 60.27141571044922 68.45525360107422 60.27141571044922" stroke-width="0.0" fill="rgb(178, 24, 26)" opacity="1.0"/>
    <path d="M 156.94851684570312 60.27141571044922 C 156.94851684570312 60.27141571044922 156.94851684570312 60.27141571044922 156.94851684570312 60.27141571044922 C 156.40643310546875 60.60283660888672 155.96878051757812 61.17760467529297 155.7935333251953 61.788692474365234 C 157.97909545898438 69.7073974609375 160.16558837890625 77.62611389160156 162.3511505126953 85.5448226928711 C 163.428955078125 86.99763488769531 164.62478637695312 86.77790069580078 165.11691284179688 85.0372543334961 C 162.93045043945312 77.11944580078125 160.7439727783203 69.20255279541016 158.5574951171875 61.28474807739258 C 158.18067932128906 60.77535629272461 157.5714111328125 60.39126968383789 156.94851684570312 60.27141571044922 C 156.94851684570312 60.27141571044922 156.94851684570312 60.27141571044922 156.94851684570312 60.27141571044922" stroke-width="0.0" fill="rgb(178, 24, 26)" opacity="1.0"/>
    <path d="M 79.48751831054688 58.804080963134766 C 79.57196044921875 58.819515228271484 79.6554946899414 58.834041595458984 79.73994445800781 58.84947967529297 C 80.23117065429688 59.19815444946289 80.6152572631836 59.75294494628906 80.7677993774414 60.335880279541016 C 78.44966888427734 68.73583984375 76.13062286376953 77.1366958618164 73.81248474121094 85.53756713867188 C 72.73741149902344 86.9921875 71.5442886352539 86.77699279785156 71.047607421875 85.0372543334961 C 73.36573791503906 76.63639068603516 75.68388366699219 68.23643493652344 78.0029296875 59.8355712890625 C 78.35069274902344 59.34343338012695 78.90457916259766 58.9575309753418 79.48751831054688 58.804080963134766 C 79.48751831054688 58.804080963134766 79.48751831054688 58.804080963134766 79.48751831054688 58.804080963134766" stroke-width="0.0" fill="rgb(178, 24, 26)" opacity="1.0"/>
    <path d="M 145.7746124267578 58.804080963134766 C 145.69198608398438 58.819515228271484 145.60934448242188 58.834041595458984 145.52671813964844 58.84947967529297 C 145.03367614746094 59.19724655151367 144.64776611328125 59.75294494628906 144.49432373046875 60.335880279541016 C 146.8124542236328 68.73583984375 149.13150024414062 77.1366958618164 151.44964599609375 85.53756713867188 C 152.52471923828125 86.9921875 153.71875 86.77699279785156 154.21542358398438 85.0372543334961 C 151.8963623046875 76.63639068603516 149.5782470703125 68.23643493652344 147.26010131835938 59.8355712890625 C 146.91233825683594 59.34343338012695 146.3575439453125 58.9575309753418 145.7746124267578 58.804080963134766 C 145.7746124267578 58.804080963134766 145.7746124267578 58.804080963134766 145.7746124267578 58.804080963134766" stroke-width="0.0" fill="rgb(178, 24, 26)" opacity="1.0"/>
    <path d="M 91.01010131835938 58.804080963134766 C 91.01010131835938 58.804080963134766 91.01010131835938 58.804080963134766 91.01010131835938 58.804080963134766 C 91.55308532714844 59.1418571472168 91.98892974853516 59.724796295166016 92.15782165527344 60.34223937988281 C 89.79609680175781 68.74401092529297 87.4334716796875 77.14578247070312 85.07174682617188 85.54845428466797 C 83.98849487304688 87.01579284667969 82.7835693359375 86.78788757324219 82.30233001708984 85.03089141845703 C 84.66495513916016 76.62911987304688 87.027587890625 68.22644805908203 89.38931274414062 59.824676513671875 C 89.76885986328125 59.31074523925781 90.3826675415039 58.9239387512207 91.01010131835938 58.804080963134766 C 91.01010131835938 58.804080963134766 91.01010131835938 58.804080963134766 91.01010131835938 58.804080963134766" stroke-width="0.0" fill="rgb(178, 24, 26)" opacity="1.0"/>
    <path d="M 134.3419189453125 58.82223892211914 C 134.3419189453125 58.82223892211914 134.3419189453125 58.82223892211914 134.3419189453125 58.82223892211914 C 133.8007354736328 59.15547561645508 133.36671447753906 59.73115539550781 133.1923828125 60.34223937988281 C 135.5550079345703 68.74401092529297 137.9176483154297 77.14578247070312 140.27935791015625 85.54845428466797 C 141.36260986328125 87.01579284667969 142.56752014160156 86.78788757324219 143.04876708984375 85.03089141845703 C 140.68524169921875 76.62911987304688 138.3217010498047 68.22644805908203 135.95816040039062 59.824676513671875 C 135.57681274414062 59.31800842285156 134.9647979736328 58.9384651184082 134.3419189453125 58.82223892211914 C 134.3419189453125 58.82223892211914 134.3419189453125 58.82223892211914 134.3419189453125 58.82223892211914" stroke-width="0.0" fill="rgb(178, 24, 26)" opacity="1.0"/>
    <path d="M 103.10199737548828 58.82768630981445 C 103.10199737548828 58.82768630981445 103.10199737548828 58.82768630981445 103.10199737548828 58.82768630981445 C 103.63227081298828 59.176361083984375 104.05087280273438 59.76293182373047 104.20795440673828 60.37765121459961 C 101.6056137084961 68.77851867675781 99.00326538085938 77.17937469482422 96.4018325805664 85.58023834228516 C 95.27590942382812 86.97584533691406 94.10911560058594 86.72977447509766 93.65058135986328 84.99457550048828 C 96.25291442871094 76.59371185302734 98.85526275634766 68.19375610351562 101.45760345458984 59.79289627075195 C 101.85167694091797 59.29439926147461 102.47457122802734 58.92938232421875 103.10199737548828 58.82768630981445 C 103.10199737548828 58.82768630981445 103.10199737548828 58.82768630981445 103.10199737548828 58.82768630981445" stroke-width="0.0" fill="rgb(178, 24, 26)" opacity="1.0"/>
    <path d="M 123.00819396972656 58.84221649169922 C 123.00819396972656 58.84221649169922 123.00819396972656 58.84221649169922 123.00819396972656 58.84221649169922 C 122.479736328125 59.187255859375 122.06024169921875 59.76747131347656 121.89861297607422 60.37765121459961 C 124.50004577636719 68.77851867675781 127.10238647460938 77.17937469482422 129.70382690429688 85.58023834228516 C 130.8242950439453 86.9967269897461 132.0110626220703 86.74702453613281 132.4559783935547 84.99457550048828 C 129.8536376953125 76.59371185302734 127.25129699707031 68.19375610351562 124.64896392822266 59.79289627075195 C 124.25215911865234 59.300758361816406 123.63199615478516 58.941184997558594 123.00819396972656 58.84221649169922 C 123.00819396972656 58.84221649169922 123.00819396972656 58.84221649169922 123.00819396972656 58.84221649169922" stroke-width="0.0" fill="rgb(178, 24, 26)" opacity="1.0"/>
    <path d="M 112.00045013427734 58.79681396484375 C 112.00045013427734 58.79681396484375 112.00045013427734 58.79681396484375 112.00045013427734 58.79681396484375 C 112.56795501708984 59.00111770629883 113.08733367919922 59.434234619140625 113.38969421386719 59.956336975097656 C 113.39787292480469 68.3590087890625 113.40603637695312 76.76260375976562 113.41421508789062 85.165283203125 C 112.76045227050781 86.85326385498047 111.55462646484375 86.95858764648438 110.61029815673828 85.41679382324219 C 110.60302734375 77.01321411132812 110.59577178955078 68.61053466796875 110.58940887451172 60.207855224609375 C 110.8436508178711 59.593135833740234 111.38572692871094 59.051055908203125 112.00045013427734 58.79681396484375 C 112.00045013427734 58.79681396484375 112.00045013427734 58.79681396484375 112.00045013427734 58.79681396484375" stroke-width="0.0" fill="rgb(178, 24, 26)" opacity="1.0"/>
  </g>
</svg>
