<?xml version="1.0" ?>
<svg xmlns="http://www.w3.org/2000/svg" version="1.1" width="224" height="224">
  <defs/>
  <g>
    <path d="M 162.78135681152344 96.66426086425781 C 172.24319458007812 102.12626647949219 181.70399475097656 107.58721160888672 191.164794921875 113.0492172241211 C 193.0293426513672 114.68833923339844 193.15786743164062 115.17607116699219 192.36463928222656 117.52837371826172 C 191.27223205566406 119.42031860351562 190.17982482910156 121.31226348876953 189.0874481201172 123.20421600341797 C 187.4483184814453 125.06877136230469 186.9605712890625 125.19729614257812 184.60829162597656 124.40512084960938 C 175.14749145507812 118.94312286376953 165.6866912841797 113.48111724853516 156.22589111328125 108.02017211914062 C 154.361328125 106.38104248046875 154.23175048828125 105.893310546875 155.02394104003906 103.541015625 C 156.1173858642578 101.6490707397461 157.2097930908203 99.75711059570312 158.30323791503906 97.8641128540039 C 159.94236755371094 95.99954986572266 160.42904663085938 95.87104034423828 162.78135681152344 96.66426086425781 C 162.78135681152344 96.66426086425781 162.78135681152344 96.66426086425781 162.78135681152344 96.66426086425781" stroke-width="0.0" fill="rgb(234, 183, 130)" opacity="1.0"/>
    <path d="M 162.78135681152344 122.88397979736328 C 172.24319458007812 128.3449249267578 181.70399475097656 133.8069305419922 191.164794921875 139.2689208984375 C 193.02828979492188 140.90805053710938 193.15786743164062 141.39578247070312 192.36463928222656 143.74807739257812 C 191.27223205566406 145.64004516601562 190.17982482910156 147.531982421875 189.0874481201172 149.42393493652344 C 187.4483184814453 151.2884979248047 186.9605712890625 151.41806030273438 184.60829162597656 150.6248321533203 C 175.14749145507812 145.16282653808594 165.6866912841797 139.70083618164062 156.22589111328125 134.23883056640625 C 154.361328125 132.59970092773438 154.23175048828125 132.11302185058594 155.02394104003906 129.75965881347656 C 156.1173858642578 127.86772918701172 157.2097930908203 125.97576904296875 158.30323791503906 124.08382415771484 C 159.94236755371094 122.22032165527344 160.4300994873047 122.09075164794922 162.78135681152344 122.88397979736328 C 162.78135681152344 122.88397979736328 162.78135681152344 122.88397979736328 162.78135681152344 122.88397979736328" stroke-width="0.0" fill="rgb(213, 118, 64)" opacity="1.0"/>
    <path d="M 144.75831604003906 71.32415771484375 C 135.29751586914062 76.78616333007812 125.83673095703125 82.2481689453125 116.3748779296875 87.71016693115234 C 114.51136779785156 89.34928894042969 114.38179779052734 89.83702087402344 115.17503356933594 92.18932342529297 C 116.26742553710938 94.08126831054688 117.35983276367188 95.97322082519531 118.45223236083984 97.8641128540039 C 120.09241485595703 99.72866821289062 120.57909393310547 99.85824584960938 122.93138885498047 99.06607055664062 C 132.39324951171875 93.60407257080078 141.85401916503906 88.1420669555664 151.3148193359375 82.68006896972656 C 153.17938232421875 81.04093933105469 153.3089599609375 80.55320739746094 152.51573181152344 78.20091247558594 C 151.42333984375 76.3089599609375 150.3298797607422 74.41700744628906 149.2374725341797 72.52507019042969 C 147.5983428955078 70.66156005859375 147.11061096191406 70.53199005126953 144.75831604003906 71.32415771484375 C 144.75831604003906 71.32415771484375 144.75831604003906 71.32415771484375 144.75831604003906 71.32415771484375" stroke-width="0.0" fill="rgb(215, 127, 74)" opacity="1.0"/>
    <path d="M 144.75831604003906 97.79879760742188 C 135.29751586914062 103.26080322265625 125.83673095703125 108.7228012084961 116.3748779296875 114.18479919433594 C 114.51136779785156 115.82392883300781 114.38179779052734 116.3116683959961 115.17503356933594 118.66395568847656 C 116.26742553710938 120.555908203125 117.35983276367188 122.44786071777344 118.45223236083984 124.33980560302734 C 120.09241485595703 126.20436096191406 120.57909393310547 126.3328857421875 122.93138885498047 125.5396499633789 C 132.39324951171875 120.07870483398438 141.85401916503906 114.61670684814453 151.3148193359375 109.15470886230469 C 153.17938232421875 107.51558685302734 153.3089599609375 107.02784729003906 152.51573181152344 104.67554473876953 C 151.42333984375 102.78359985351562 150.3298797607422 100.89165496826172 149.2374725341797 98.99970245361328 C 147.5983428955078 97.13514709472656 147.11061096191406 97.00556945800781 144.75831604003906 97.79879760742188 C 144.75831604003906 97.79879760742188 144.75831604003906 97.79879760742188 144.75831604003906 97.79879760742188" stroke-width="0.0" fill="rgb(238, 195, 144)" opacity="1.0"/>
    <path d="M 144.75831604003906 124.01850891113281 C 135.29751586914062 129.4805145263672 125.83673095703125 134.94252014160156 116.3748779296875 140.40345764160156 C 114.51136779785156 142.04364013671875 114.38179779052734 142.5303192138672 115.17503356933594 144.8826141357422 C 116.26742553710938 146.77456665039062 117.35983276367188 148.66651916503906 118.45223236083984 150.55845642089844 C 120.09241485595703 152.4230194091797 120.57909393310547 152.55259704589844 122.93138885498047 151.7604217529297 C 132.39324951171875 146.29843139648438 141.85401916503906 140.83641052246094 151.3148193359375 135.37442016601562 C 153.17938232421875 133.73529052734375 153.3089599609375 133.24755859375 152.51573181152344 130.895263671875 C 151.42333984375 129.00332641601562 150.3298797607422 127.11136627197266 149.2374725341797 125.21942138671875 C 147.5983428955078 123.35591125488281 147.11061096191406 123.22633361816406 144.75831604003906 124.01850891113281 C 144.75831604003906 124.01850891113281 144.75831604003906 124.01850891113281 144.75831604003906 124.01850891113281" stroke-width="0.0" fill="rgb(219, 136, 80)" opacity="1.0"/>
    <path d="M 176.66232299804688 155.65492248535156 C 176.66336059570312 155.65492248535156 176.66546630859375 155.65492248535156 176.66653442382812 155.65492248535156 C 173.16387939453125 156.0004425048828 171.81234741210938 156.6556854248047 170.36178588867188 159.89495849609375 C 170.15846252441406 160.58074951171875 169.95620727539062 161.2654571533203 169.75289916992188 161.95123291015625 C 169.64230346679688 162.2409210205078 169.5306396484375 162.53062438964844 169.41896057128906 162.8203125 C 169.35260009765625 162.95726013183594 169.28518676757812 163.09420776367188 169.2177734375 163.2301025390625 C 168.4866943359375 164.96824645996094 167.36268615722656 167.52490234375 169.6538848876953 168.75741577148438 C 170.1173858642578 169.0060272216797 170.6851806640625 168.96388244628906 171.20030212402344 169.06712341308594 C 174.26576232910156 169.0681610107422 177.33123779296875 169.06922912597656 180.39669799804688 169.0713348388672 C 184.13108825683594 168.01791381835938 188.69976806640625 161.5941162109375 185.15394592285156 158.07254028320312 C 182.9575653076172 155.89088439941406 179.52024841308594 155.8192596435547 176.66232299804688 155.65492248535156 C 176.66232299804688 155.65492248535156 176.66232299804688 155.65492248535156 176.66232299804688 155.65492248535156" stroke-width="0.0" fill="rgb(178, 25, 27)" opacity="1.0"/>
    <path d="M 146.5638885498047 44.10896301269531 C 146.5638885498047 44.10896301269531 146.5638885498047 44.10896301269531 146.5638885498047 44.10896301269531 C 147.1917266845703 44.01836395263672 147.81747436523438 43.7666015625 148.44740295410156 43.837181091308594 C 151.20315551757812 44.14900207519531 152.5504913330078 47.453582763671875 151.0335693359375 49.69316864013672 C 150.6711883544922 50.22724914550781 150.06863403320312 50.552757263183594 149.5872039794922 50.98255920410156 C 113.37472534179688 69.57020568847656 77.16223907470703 88.15681457519531 40.94976043701172 106.74447631835938 C 38.889251708984375 107.55034637451172 36.95623016357422 107.93168640136719 34.78827667236328 107.18901824951172 C 30.012062072753906 105.55199432373047 28.000015258789062 99.69601440429688 30.691513061523438 95.44439697265625 C 31.60694122314453 93.99700164794922 32.80363464355469 93.20903778076172 34.261566162109375 92.3989486694336 C 71.69602966308594 76.30264282226562 109.13047790527344 60.20527648925781 146.5638885498047 44.10896301269531" stroke-width="0.0" fill="rgb(248, 216, 216)" opacity="1.0"/>
    <path d="M 162.78135681152344 70.18540954589844 C 172.24319458007812 75.64740753173828 181.70399475097656 81.10942077636719 191.164794921875 86.5714111328125 C 192.7659912109375 88.18315124511719 192.9482421875 88.85313415527344 192.36463928222656 91.05056762695312 C 191.27223205566406 92.94145965576172 190.17982482910156 94.83341979980469 189.0874481201172 96.7253646850586 C 187.47674560546875 98.32762145996094 186.80467224121094 98.5088119506836 184.60829162597656 97.92626953125 C 175.14749145507812 92.46426391601562 165.6866912841797 87.00225830078125 156.22589111328125 81.5402603149414 C 154.6246795654297 79.92747497558594 154.4456024169922 79.25749206542969 155.0281524658203 77.06111145019531 C 156.12159729003906 75.17021179199219 157.21400451660156 73.27825927734375 158.3074493408203 71.38630676269531 C 159.91603088378906 69.78300476074219 160.5860137939453 69.60286712646484 162.78135681152344 70.18540954589844 C 162.78135681152344 70.18540954589844 162.78135681152344 70.18540954589844 162.78135681152344 70.18540954589844" stroke-width="0.0" fill="rgb(178, 25, 26)" opacity="1.0"/>
    <path d="M 162.78135681152344 96.66426086425781 C 172.24319458007812 102.12626647949219 181.70399475097656 107.58721160888672 191.164794921875 113.0492172241211 C 192.7670440673828 114.66094970703125 192.9482421875 115.33198547363281 192.36463928222656 117.52837371826172 C 191.27223205566406 119.42031860351562 190.17982482910156 121.31226348876953 189.0874481201172 123.20421600341797 C 187.4757080078125 124.80647277832031 186.80467224121094 124.9844970703125 184.60829162597656 124.40090942382812 C 175.14749145507812 118.93890380859375 165.6866912841797 113.4769058227539 156.22589111328125 108.01596069335938 C 154.62364196777344 106.4052734375 154.4456024169922 105.73529815673828 155.0281524658203 103.541015625 C 156.12159729003906 101.6490707397461 157.21400451660156 99.75711059570312 158.3074493408203 97.8641128540039 C 159.91603088378906 96.25975036621094 160.5849609375 96.0806655883789 162.78135681152344 96.66426086425781 C 162.78135681152344 96.66426086425781 162.78135681152344 96.66426086425781 162.78135681152344 96.66426086425781" stroke-width="0.0" fill="rgb(178, 25, 26)" opacity="1.0"/>
    <path d="M 162.78135681152344 122.88397979736328 C 172.24319458007812 128.3449249267578 181.70399475097656 133.8069305419922 191.164794921875 139.2689208984375 C 192.7670440673828 140.87855529785156 192.9482421875 141.5485382080078 192.36463928222656 143.74386596679688 C 191.27223205566406 145.63580322265625 190.17982482910156 147.52777099609375 189.0874481201172 149.4197235107422 C 187.47674560546875 151.02407836914062 186.80572509765625 151.2042236328125 184.60829162597656 150.62062072753906 C 175.14749145507812 145.1586151123047 165.6866912841797 139.69662475585938 156.22589111328125 134.23460388183594 C 154.62257385253906 132.62393188476562 154.4456024169922 131.95184326171875 155.0281524658203 129.7554473876953 C 156.12159729003906 127.86456298828125 157.21400451660156 125.97261047363281 158.3074493408203 124.0806655883789 C 159.91708374023438 122.47735595703125 160.5860137939453 122.29932403564453 162.78135681152344 122.88397979736328 C 162.78135681152344 122.88397979736328 162.78135681152344 122.88397979736328 162.78135681152344 122.88397979736328" stroke-width="0.0" fill="rgb(178, 26, 26)" opacity="1.0"/>
    <path d="M 144.75831604003906 71.32415771484375 C 135.29751586914062 76.78616333007812 125.83673095703125 82.2481689453125 116.3748779296875 87.71016693115234 C 114.7757797241211 89.32084655761719 114.59669494628906 89.99082946777344 115.17924499511719 92.18511199951172 C 116.27163696289062 94.07705688476562 117.36404418945312 95.96900177001953 118.4564437866211 97.85990142822266 C 120.06607818603516 99.46531677246094 120.73500061035156 99.64545440673828 122.93138885498047 99.06185913085938 C 132.39324951171875 93.599853515625 141.85401916503906 88.13785552978516 151.3148193359375 82.67585754394531 C 152.91709899902344 81.06622314453125 153.0972137451172 80.396240234375 152.51573181152344 78.20091247558594 C 151.42333984375 76.3089599609375 150.3298797607422 74.41700744628906 149.2374725341797 72.52507019042969 C 147.62680053710938 70.91964721679688 146.95681762695312 70.74162292480469 144.75831604003906 71.32415771484375 C 144.75831604003906 71.32415771484375 144.75831604003906 71.32415771484375 144.75831604003906 71.32415771484375" stroke-width="0.0" fill="rgb(178, 25, 26)" opacity="1.0"/>
    <path d="M 144.75831604003906 97.79879760742188 C 135.29751586914062 103.26080322265625 125.83673095703125 108.7228012084961 116.3748779296875 114.18479919433594 C 114.7768325805664 115.79759979248047 114.59669494628906 116.46862030029297 115.17924499511719 118.66395568847656 C 116.27163696289062 120.555908203125 117.36404418945312 122.44786071777344 118.4564437866211 124.33980560302734 C 120.06607818603516 125.94206237792969 120.73605346679688 126.12220001220703 122.93138885498047 125.5396499633789 C 132.39324951171875 120.07870483398438 141.85401916503906 114.61670684814453 151.3148193359375 109.15470886230469 C 152.91709899902344 107.54402160644531 153.09828186035156 106.87194061279297 152.51573181152344 104.67554473876953 C 151.42333984375 102.78359985351562 150.3298797607422 100.89165496826172 149.2374725341797 98.99970245361328 C 147.62680053710938 97.39533996582031 146.9557647705078 97.21731567382812 144.75831604003906 97.79879760742188 C 144.75831604003906 97.79879760742188 144.75831604003906 97.79879760742188 144.75831604003906 97.79879760742188" stroke-width="0.0" fill="rgb(178, 25, 26)" opacity="1.0"/>
    <path d="M 144.75831604003906 124.01850891113281 C 135.29751586914062 129.4805145263672 125.83673095703125 134.94252014160156 116.3748779296875 140.40345764160156 C 114.7757797241211 142.01625061035156 114.59669494628906 142.68833923339844 115.17924499511719 144.8826141357422 C 116.27163696289062 146.77456665039062 117.36404418945312 148.66651916503906 118.4564437866211 150.55845642089844 C 120.06607818603516 152.16177368164062 120.73605346679688 152.3419189453125 122.93138885498047 151.7604217529297 C 132.39324951171875 146.29843139648438 141.85401916503906 140.83641052246094 151.3148193359375 135.37442016601562 C 152.91603088378906 133.76162719726562 153.09828186035156 133.09165954589844 152.51573181152344 130.895263671875 C 151.42333984375 129.00332641601562 150.3298797607422 127.11136627197266 149.2374725341797 125.21942138671875 C 147.62680053710938 123.61505126953125 146.9557647705078 123.43702697753906 144.75831604003906 124.01850891113281 C 144.75831604003906 124.01850891113281 144.75831604003906 124.01850891113281 144.75831604003906 124.01850891113281" stroke-width="0.0" fill="rgb(179, 26, 26)" opacity="1.0"/>
    <path d="M 176.66653442382812 157.2919464111328 C 176.66653442382812 157.2919464111328 176.66653442382812 157.2919464111328 176.66653442382812 157.2919464111328 C 178.95877075195312 157.4415283203125 181.46485900878906 157.42257690429688 183.45057678222656 158.80044555664062 C 186.84364318847656 161.15274047851562 182.83114624023438 166.17440795898438 180.39669799804688 167.42588806152344 C 177.42076110839844 167.42588806152344 174.44485473632812 167.42588806152344 171.46788024902344 167.42588806152344 C 169.2135467529297 167.16253662109375 170.010986328125 165.87840270996094 170.67465209960938 163.97486877441406 C 171.34988403320312 162.03656005859375 171.86607360839844 158.4296417236328 174.1477813720703 157.65011596679688 C 174.94943237304688 157.37518310546875 175.82693481445312 157.41098022460938 176.66653442382812 157.2919464111328 C 176.66653442382812 157.2919464111328 176.66653442382812 157.2919464111328 176.66653442382812 157.2919464111328" stroke-width="0.0" fill="rgb(178, 24, 26)" opacity="1.0"/>
    <path d="M 146.58074951171875 44.158477783203125 C 146.58074951171875 44.158477783203125 146.58074951171875 44.158477783203125 146.58074951171875 44.158477783203125 C 147.210693359375 44.06682586669922 147.83642578125 43.814002990722656 148.46847534179688 43.885643005371094 C 151.22633361816406 44.195343017578125 152.57472229003906 47.502044677734375 151.05567932128906 49.74267578125 C 150.6933135986328 50.276763916015625 150.0907440185547 50.602264404296875 149.60829162597656 51.032066345214844 C 113.39369201660156 69.62077331542969 77.1801528930664 88.20948791503906 40.96556091308594 106.7981948852539 C 36.68970489501953 108.34040832519531 33.43463134765625 107.4144515991211 30.609344482421875 103.8538818359375 C 30.499794006347656 103.65161895751953 30.390243530273438 103.44937133789062 30.280677795410156 103.24816131591797 C 28.85223388671875 98.8280029296875 29.825599670410156 95.53394317626953 33.59580993652344 92.78134155273438 C 71.25885772705078 76.57337188720703 108.92190551757812 60.366451263427734 146.5849609375 44.158477783203125 C 146.5849609375 44.158477783203125 146.58074951171875 44.158477783203125 146.58074951171875 44.158477783203125" stroke-width="0.0" fill="rgb(179, 24, 26)" opacity="1.0"/>
    <path d="M 161.1443328857422 73.02227783203125 C 160.0519256591797 74.91423034667969 158.9595184326172 76.80618286132812 157.86712646484375 78.69918060302734 C 167.3279266357422 84.16117858886719 176.78872680664062 89.62318420410156 186.24951171875 95.0851821899414 C 187.3419189453125 93.1932373046875 188.43536376953125 91.30128479003906 189.52777099609375 89.40827941894531 C 180.0669708251953 83.9462890625 170.60513305664062 78.48428344726562 161.1443328857422 73.02227783203125" stroke-width="0.0" fill="rgb(252, 214, 32)" opacity="1.0"/>
    <path d="M 161.1443328857422 99.50218963623047 C 160.0519256591797 101.39308166503906 158.9595184326172 103.28502655029297 157.86712646484375 105.17698669433594 C 167.3279266357422 110.63897705078125 176.78872680664062 116.10098266601562 186.24951171875 121.56298828125 C 187.3419189453125 119.67102813720703 188.43536376953125 117.77908325195312 189.52777099609375 115.88713836669922 C 180.0669708251953 110.42513275146484 170.60513305664062 104.963134765625 161.1443328857422 99.50218963623047" stroke-width="0.0" fill="rgb(252, 215, 32)" opacity="1.0"/>
    <path d="M 161.1443328857422 125.71663665771484 C 160.0519256591797 127.60858154296875 158.9595184326172 129.5005340576172 157.86712646484375 131.39353942871094 C 167.3279266357422 136.85447692871094 176.78872680664062 142.3164825439453 186.24951171875 147.7784881591797 C 187.3419189453125 145.88653564453125 188.43536376953125 143.9945831298828 189.52777099609375 142.10263061523438 C 180.0669708251953 136.64064025878906 170.60513305664062 131.17861938476562 161.1443328857422 125.71663665771484" stroke-width="0.0" fill="rgb(252, 215, 32)" opacity="1.0"/>
    <path d="M 146.39955139160156 74.15892791748047 C 147.49195861816406 76.04981994628906 148.58541870117188 77.94176483154297 149.6778106689453 79.83370971679688 C 140.21595764160156 85.29571533203125 130.75515747070312 90.75772094726562 121.29437255859375 96.21971130371094 C 120.20196533203125 94.32777404785156 119.10956573486328 92.43582153320312 118.01716613769531 90.54387664794922 C 127.47796630859375 85.08187103271484 136.9387664794922 79.619873046875 146.39955139160156 74.15892791748047" stroke-width="0.0" fill="rgb(252, 215, 32)" opacity="1.0"/>
    <path d="M 146.39955139160156 100.63671875 C 147.49195861816406 102.52867126464844 148.58541870117188 104.42062377929688 149.6778106689453 106.31256866455078 C 140.21595764160156 111.77457427978516 130.75515747070312 117.236572265625 121.29437255859375 122.69857025146484 C 120.20196533203125 120.80662536621094 119.10956573486328 118.91362762451172 118.01716613769531 117.02167510986328 C 127.47796630859375 111.56072998046875 136.9387664794922 106.09872436523438 146.39955139160156 100.63671875" stroke-width="0.0" fill="rgb(252, 215, 32)" opacity="1.0"/>
    <path d="M 146.39955139160156 126.85643005371094 C 147.49195861816406 128.74838256835938 148.58541870117188 130.6403350830078 149.6778106689453 132.5322723388672 C 140.21595764160156 137.99427795410156 130.75515747070312 143.45523071289062 121.29437255859375 148.917236328125 C 120.20196533203125 147.0252685546875 119.10956573486328 145.13438415527344 118.01716613769531 143.24244689941406 C 127.47796630859375 137.7804412841797 136.9387664794922 132.3184356689453 146.39955139160156 126.85643005371094" stroke-width="0.0" fill="rgb(252, 215, 32)" opacity="1.0"/>
    <path d="M 176.66653442382812 158.9237060546875 C 176.66653442382812 158.92684936523438 176.66653442382812 158.93002319335938 176.66653442382812 158.93212890625 C 178.7480926513672 159.06907653808594 181.88201904296875 158.84364318847656 183.10293579101562 160.93258666992188 C 183.09451293945312 161.02633666992188 183.08609008789062 161.12115478515625 183.07870483398438 161.2148895263672 C 182.4171600341797 163.0099334716797 181.78195190429688 164.44259643554688 180.39669799804688 165.7888641357422 C 177.47975158691406 165.78781127929688 174.56283569335938 165.78675842285156 171.6448516845703 165.78465270996094 C 171.89662170410156 165.24635314941406 172.14942932128906 164.70700073242188 172.4011993408203 164.168701171875 C 172.58029174804688 163.69044494628906 172.7604217529297 163.21218872070312 172.94056701660156 162.7339324951172 C 173.07855224609375 162.25778198242188 173.21762084960938 161.78164672851562 173.35560607910156 161.30548095703125 C 174.166748046875 159.19549560546875 174.4037628173828 159.12384033203125 176.66653442382812 158.9237060546875 C 176.66653442382812 158.9237060546875 176.66653442382812 158.9237060546875 176.66653442382812 158.9237060546875" stroke-width="0.0" fill="rgb(253, 216, 33)" opacity="1.0"/>
    <path d="M 147.9997100830078 47.140716552734375 C 110.48202514648438 63.267578125 72.96434783935547 79.39443969726562 35.44667053222656 95.52130126953125 C 33.176544189453125 97.1520004272461 32.58978271484375 98.54884338378906 33.01641845703125 101.31197357177734 C 33.08489990234375 101.47630310058594 33.15337371826172 101.64064025878906 33.221839904785156 101.80496978759766 C 34.927330017089844 104.01505279541016 36.31575012207031 104.59548950195312 39.06623077392578 104.06245422363281 C 75.41461181640625 85.41370391845703 111.76298522949219 66.76493835449219 148.11032104492188 48.115135192871094 C 148.21987915039062 47.806488037109375 148.2820281982422 47.30610656738281 147.9997100830078 47.140716552734375 C 147.9997100830078 47.140716552734375 147.9997100830078 47.140716552734375 147.9997100830078 47.140716552734375" stroke-width="0.0" fill="rgb(250, 53, 52)" opacity="1.0"/>
    <path d="M 191.16900634765625 86.57562255859375 C 192.11497497558594 87.12130737304688 193.06094360351562 87.66592407226562 194.00692749023438 88.21159362792969 C 195.87149047851562 89.85072326660156 196.0 90.33845520019531 195.20677185058594 92.69075012207031 C 194.11436462402344 94.58270263671875 193.02197265625 96.47464752197266 191.92958068847656 98.36659240722656 C 190.28939819335938 100.23115539550781 189.80271911621094 100.35967254638672 187.45042419433594 99.56749725341797 C 186.5044403076172 99.0218276977539 185.5584716796875 98.47615814208984 184.6125030517578 97.93048095703125 C 182.74794006347656 96.29135131835938 182.6183624267578 95.80467224121094 183.41159057617188 93.45237731933594 C 184.50399780273438 91.55937194824219 185.59744262695312 89.66742706298828 186.68984985351562 87.77547454833984 C 188.3289794921875 85.91091918945312 188.81671142578125 85.78134155273438 191.16900634765625 86.57562255859375 C 191.16900634765625 86.57562255859375 191.16900634765625 86.57562255859375 191.16900634765625 86.57562255859375" stroke-width="0.0" fill="rgb(243, 193, 193)" opacity="1.0"/>
    <path d="M 191.16900634765625 113.05342864990234 C 192.11497497558594 113.5990982055664 193.06094360351562 114.144775390625 194.00692749023438 114.69044494628906 C 195.87149047851562 116.33062744140625 196.0 116.81730651855469 195.20677185058594 119.16960144042969 C 194.11436462402344 121.06155395507812 193.02197265625 122.95350646972656 191.92958068847656 124.84545135498047 C 190.2904510498047 126.71001434326172 189.80271911621094 126.83958435058594 187.45042419433594 126.04635620117188 C 186.5044403076172 125.50067901611328 185.5584716796875 124.95500183105469 184.6125030517578 124.40933227539062 C 182.74794006347656 122.77020263671875 182.6183624267578 122.282470703125 183.41159057617188 119.93017578125 C 184.50399780273438 118.0382308959961 185.59744262695312 116.14627838134766 186.68984985351562 114.25538635253906 C 188.3289794921875 112.39082336425781 188.81671142578125 112.2612533569336 191.16900634765625 113.05342864990234 C 191.16900634765625 113.05342864990234 191.16900634765625 113.05342864990234 191.16900634765625 113.05342864990234" stroke-width="0.0" fill="rgb(234, 139, 140)" opacity="1.0"/>
    <path d="M 191.16900634765625 139.2689208984375 C 192.11497497558594 139.81460571289062 193.06094360351562 140.3602752685547 194.00692749023438 140.90594482421875 C 195.87149047851562 142.54507446289062 196.0 143.03280639648438 195.20677185058594 145.38510131835938 C 194.11436462402344 147.2770538330078 193.02197265625 149.1689910888672 191.92958068847656 151.06094360351562 C 190.28939819335938 152.92445373535156 189.80271911621094 153.0540313720703 187.45042419433594 152.26185607910156 C 186.5044403076172 151.71617126464844 185.5584716796875 151.17050170898438 184.6125030517578 150.6248321533203 C 182.74899291992188 148.98570251464844 182.6183624267578 148.4990234375 183.41159057617188 146.146728515625 C 184.50399780273438 144.25372314453125 185.59744262695312 142.36178588867188 186.68984985351562 140.46983337402344 C 188.3289794921875 138.6052703857422 188.81671142578125 138.47569274902344 191.16900634765625 139.2689208984375 C 191.16900634765625 139.2689208984375 191.16900634765625 139.2689208984375 191.16900634765625 139.2689208984375" stroke-width="0.0" fill="rgb(196, 31, 32)" opacity="1.0"/>
    <path d="M 116.3748779296875 87.71016693115234 C 115.42996215820312 88.2558364868164 114.48397827148438 88.80150604248047 113.53800964355469 89.34613037109375 C 111.67344665527344 90.98631286621094 111.54387664794922 91.47299194335938 112.33604431152344 93.82528686523438 C 113.42950439453125 95.71723937988281 114.52191162109375 97.61023712158203 115.61536407470703 99.50218963623047 C 117.25448608398438 101.36674499511719 117.74221801757812 101.4952621459961 120.09452056884766 100.70204162597656 C 121.04048919677734 100.15636444091797 121.98541259765625 99.61174011230469 122.93138885498047 99.06607055664062 C 124.79594421386719 97.42694091796875 124.92552185058594 96.939208984375 124.13334655761719 94.5869140625 C 123.03988647460938 92.6949691772461 121.9474868774414 90.80301666259766 120.85403442382812 88.91107177734375 C 119.21491241455078 87.0465087890625 118.72822570800781 86.91693878173828 116.3748779296875 87.71016693115234 C 116.3748779296875 87.71016693115234 116.3748779296875 87.71016693115234 116.3748779296875 87.71016693115234" stroke-width="0.0" fill="rgb(215, 93, 63)" opacity="1.0"/>
    <path d="M 116.3748779296875 114.18479919433594 C 115.42996215820312 114.73048400878906 114.48397827148438 115.27615356445312 113.53800964355469 115.82182312011719 C 111.67344665527344 117.46095275878906 111.54387664794922 117.94869232177734 112.33604431152344 120.30097961425781 C 113.42950439453125 122.19293212890625 114.52191162109375 124.08382415771484 115.61536407470703 125.97576904296875 C 117.25448608398438 127.84033203125 117.74116516113281 127.96990966796875 120.09452056884766 127.177734375 C 121.04048919677734 126.63101196289062 121.98541259765625 126.08533477783203 122.93138885498047 125.5396499633789 C 124.79594421386719 123.90052795410156 124.92552185058594 123.41384887695312 124.13334655761719 121.06050109863281 C 123.03988647460938 119.16960144042969 121.9474868774414 117.27765655517578 120.85403442382812 115.38570404052734 C 119.21491241455078 113.52114868164062 118.72822570800781 113.3915786743164 116.3748779296875 114.18479919433594 C 116.3748779296875 114.18479919433594 116.3748779296875 114.18479919433594 116.3748779296875 114.18479919433594" stroke-width="0.0" fill="rgb(253, 233, 233)" opacity="1.0"/>
    <path d="M 116.3748779296875 140.40345764160156 C 115.42996215820312 140.9491424560547 114.48397827148438 141.4947967529297 113.53800964355469 142.0404815673828 C 111.67344665527344 143.6806640625 111.54387664794922 144.16734313964844 112.33604431152344 146.51963806152344 C 113.42950439453125 148.41159057617188 114.52191162109375 150.30459594726562 115.61536407470703 152.19654846191406 C 117.25448608398438 154.06109619140625 117.74221801757812 154.1896209716797 120.09452056884766 153.39639282226562 C 121.04048919677734 152.85072326660156 121.98541259765625 152.30609130859375 122.93138885498047 151.7604217529297 C 124.79594421386719 150.1212921142578 124.92552185058594 149.63356018066406 124.13334655761719 147.28126525878906 C 123.03988647460938 145.38931274414062 121.9474868774414 143.4973602294922 120.85403442382812 141.6054229736328 C 119.21491241455078 139.74085998535156 118.72822570800781 139.6112823486328 116.3748779296875 140.40345764160156 C 116.3748779296875 140.40345764160156 116.3748779296875 140.40345764160156 116.3748779296875 140.40345764160156" stroke-width="0.0" fill="rgb(241, 165, 165)" opacity="1.0"/>
    <path d="M 153.51121520996094 57.33680725097656 C 153.51121520996094 57.33680725097656 153.51121520996094 57.33680725097656 153.51121520996094 57.33680725097656 C 156.94223022460938 57.82664489746094 157.93666076660156 58.821075439453125 158.42649841308594 62.25102615356445 C 158.42649841308594 89.56208038330078 158.42649841308594 116.87313842773438 158.42649841308594 144.18313598632812 C 158.20947265625 145.70428466796875 158.3474884033203 146.72085571289062 157.1971435546875 147.8701171875 C 155.4611053466797 149.60617065429688 151.56027221679688 149.60617065429688 149.82423400878906 147.8701171875 C 148.6739044189453 146.72085571289062 148.8129425048828 145.70428466796875 148.595947265625 144.18313598632812 C 148.595947265625 116.87313842773438 148.595947265625 89.56208038330078 148.595947265625 62.25102615356445 C 149.08578491210938 58.821075439453125 150.08021545410156 57.82664489746094 153.51121520996094 57.33680725097656 C 153.51121520996094 57.33680725097656 153.51121520996094 57.33680725097656 153.51121520996094 57.33680725097656" stroke-width="0.0" fill="rgb(250, 54, 53)" opacity="1.0"/>
    <path d="M 191.164794921875 86.5714111328125 C 192.1107635498047 87.11708068847656 193.05673217773438 87.66171264648438 194.00271606445312 88.20738220214844 C 195.6028594970703 89.82017517089844 195.78616333007812 90.49015045166016 195.20361328125 92.68653869628906 C 194.11122131347656 94.57848358154297 193.01776123046875 96.4704360961914 191.9253692626953 98.36238098144531 C 190.31362915039062 99.96780395507812 189.64364624023438 100.14688110351562 187.4462127685547 99.56328582763672 C 186.50022888183594 99.01761627197266 185.55426025390625 98.47193908691406 184.60829162597656 97.92626953125 C 183.007080078125 96.31452941894531 182.8280029296875 95.64349365234375 183.41159057617188 93.44816589355469 C 184.50399780273438 91.55516052246094 185.59744262695312 89.6632080078125 186.68984985351562 87.7712631225586 C 188.2984161376953 86.16690063476562 188.96945190429688 85.9888687133789 191.164794921875 86.5714111328125 C 191.164794921875 86.5714111328125 191.164794921875 86.5714111328125 191.164794921875 86.5714111328125" stroke-width="0.0" fill="rgb(179, 24, 26)" opacity="1.0"/>
    <path d="M 191.164794921875 113.0492172241211 C 192.1107635498047 113.59488677978516 193.05673217773438 114.14055633544922 194.00271606445312 114.68623352050781 C 195.60391235351562 116.29902648925781 195.7851104736328 116.96900939941406 195.20361328125 119.16539001464844 C 194.11122131347656 121.05734252929688 193.01776123046875 122.94928741455078 191.9253692626953 124.84123992919922 C 190.31466674804688 126.44454956054688 189.64259338378906 126.6236343383789 187.4462127685547 126.04214477539062 C 186.50022888183594 125.4964599609375 185.55426025390625 124.95079040527344 184.60829162597656 124.40512084960938 C 183.00811767578125 122.79232788085938 182.8280029296875 122.12235260009766 183.41159057617188 119.92596435546875 C 184.50399780273438 118.03401184082031 185.59744262695312 116.1420669555664 186.68984985351562 114.25117492675781 C 188.2984161376953 112.645751953125 188.96945190429688 112.46772766113281 191.164794921875 113.0492172241211 C 191.164794921875 113.0492172241211 191.164794921875 113.0492172241211 191.164794921875 113.0492172241211" stroke-width="0.0" fill="rgb(181, 26, 27)" opacity="1.0"/>
    <path d="M 191.164794921875 139.2689208984375 C 192.1107635498047 139.81460571289062 193.05673217773438 140.3602752685547 194.00271606445312 140.90594482421875 C 195.60496520996094 142.51663208007812 195.7851104736328 143.18870544433594 195.20361328125 145.38510131835938 C 194.11122131347656 147.2770538330078 193.01776123046875 149.1689910888672 191.9253692626953 151.06094360351562 C 190.31362915039062 152.6642608642578 189.64259338378906 152.84439086914062 187.4462127685547 152.26185607910156 C 186.50022888183594 151.71617126464844 185.55426025390625 151.17050170898438 184.60829162597656 150.6248321533203 C 183.00811767578125 149.0120391845703 182.8280029296875 148.34205627441406 183.41159057617188 146.146728515625 C 184.50399780273438 144.25372314453125 185.59744262695312 142.36178588867188 186.68984985351562 140.46983337402344 C 188.2984161376953 138.86337280273438 188.96839904785156 138.68637084960938 191.164794921875 139.2689208984375 C 191.164794921875 139.2689208984375 191.164794921875 139.2689208984375 191.164794921875 139.2689208984375" stroke-width="0.0" fill="rgb(179, 24, 26)" opacity="1.0"/>
    <path d="M 116.37908935546875 87.71016693115234 C 115.43417358398438 88.2558364868164 114.48820495605469 88.80150604248047 113.54222106933594 89.34613037109375 C 111.9399642944336 90.95787048339844 111.75877380371094 91.62890625 112.34027099609375 93.82528686523438 C 113.43372344970703 95.71723937988281 114.526123046875 97.61023712158203 115.61957550048828 99.50218963623047 C 117.22920227050781 101.10444641113281 117.89813232421875 101.28458404541016 120.09452056884766 100.70204162597656 C 121.04048919677734 100.15636444091797 121.98541259765625 99.61174011230469 122.93138885498047 99.06607055664062 C 124.53575134277344 97.45433044433594 124.7169418334961 96.78435516357422 124.13334655761719 94.5869140625 C 123.03988647460938 92.6949691772461 121.9474868774414 90.80301666259766 120.85403442382812 88.91107177734375 C 119.2444076538086 87.30775451660156 118.57548522949219 87.12762451171875 116.37908935546875 87.71016693115234 C 116.37908935546875 87.71016693115234 116.37908935546875 87.71016693115234 116.37908935546875 87.71016693115234" stroke-width="0.0" fill="rgb(178, 24, 26)" opacity="1.0"/>
    <path d="M 116.37908935546875 114.18901824951172 C 115.43417358398438 114.73469543457031 114.48820495605469 115.28036499023438 113.54222106933594 115.82604217529297 C 111.93785858154297 117.43672943115234 111.75982666015625 118.10774993896484 112.34027099609375 120.3051986694336 C 113.43372344970703 122.1971435546875 114.526123046875 124.0880355834961 115.61957550048828 125.97998809814453 C 117.22920227050781 127.5822525024414 117.89918518066406 127.76026916503906 120.09452056884766 127.177734375 C 121.04048919677734 126.63101196289062 121.98541259765625 126.08533477783203 122.93138885498047 125.5396499633789 C 124.53785705566406 123.92897033691406 124.71588897705078 123.25899505615234 124.13334655761719 121.06050109863281 C 123.03988647460938 119.16960144042969 121.9474868774414 117.27765655517578 120.85403442382812 115.38570404052734 C 119.2444076538086 113.783447265625 118.57443237304688 113.60542297363281 116.37908935546875 114.18901824951172 C 116.37908935546875 114.18901824951172 116.37908935546875 114.18901824951172 116.37908935546875 114.18901824951172" stroke-width="0.0" fill="rgb(181, 26, 27)" opacity="1.0"/>
    <path d="M 116.37908935546875 140.40345764160156 C 115.43417358398438 140.9491424560547 114.48820495605469 141.4947967529297 113.54222106933594 142.0404815673828 C 111.9410171508789 143.6532745361328 111.75877380371094 144.32325744628906 112.34027099609375 146.51963806152344 C 113.43372344970703 148.41159057617188 114.526123046875 150.30459594726562 115.61957550048828 152.19654846191406 C 117.22920227050781 153.8009033203125 117.89813232421875 153.98104858398438 120.09452056884766 153.39639282226562 C 121.04048919677734 152.85072326660156 121.98541259765625 152.30609130859375 122.93138885498047 151.7604217529297 C 124.53575134277344 150.1497344970703 124.71588897705078 149.4787139892578 124.13334655761719 147.28126525878906 C 123.03988647460938 145.38931274414062 121.9474868774414 143.4973602294922 120.85403442382812 141.6054229736328 C 119.2454605102539 140.00210571289062 118.57548522949219 139.82196044921875 116.37908935546875 140.40345764160156 C 116.37908935546875 140.40345764160156 116.37908935546875 140.40345764160156 116.37908935546875 140.40345764160156" stroke-width="0.0" fill="rgb(180, 25, 27)" opacity="1.0"/>
    <path d="M 162.6865234375 141.9267120361328 C 159.20286560058594 143.56057739257812 155.7191925048828 145.19442749023438 152.2355194091797 146.8282928466797 C 148.34523010253906 146.5038299560547 144.45387268066406 146.1783447265625 140.5635986328125 145.85386657714844 C 142.64305114746094 149.22166442871094 144.72357177734375 152.59051513671875 146.8030242919922 155.95936584472656 C 146.8030242919922 160.08563232421875 146.8030242919922 164.21295166015625 146.8030242919922 168.33920288085938 C 149.80633544921875 165.9394989013672 152.81068420410156 163.54086303710938 155.8140106201172 161.1411590576172 C 159.85809326171875 161.585693359375 163.9032440185547 162.02920532226562 167.94732666015625 162.47373962402344 C 165.87945556640625 159.30715942382812 163.81263732910156 156.13949584960938 161.74476623535156 152.97291564941406 C 162.05870056152344 149.29119873046875 162.37261962890625 145.60842895507812 162.6865234375 141.9267120361328" stroke-width="0.0" fill="rgb(181, 26, 28)" opacity="1.0"/>
    <path d="M 189.5235595703125 89.40827941894531 C 188.43115234375 91.30128479003906 187.3376922607422 93.1932373046875 186.24530029296875 95.0851821899414 C 187.1912841796875 95.63085174560547 188.13723754882812 96.17547607421875 189.08323669433594 96.72115325927734 C 190.1756134033203 94.82919311523438 191.2680206298828 92.93724822998047 192.3604278564453 91.04635620117188 C 191.41549682617188 90.50068664550781 190.4695281982422 89.95500946044922 189.5235595703125 89.40827941894531" stroke-width="0.0" fill="rgb(249, 53, 52)" opacity="1.0"/>
    <path d="M 189.5235595703125 115.88713836669922 C 188.43115234375 117.77908325195312 187.3376922607422 119.67102813720703 186.24530029296875 121.56298828125 C 187.1912841796875 122.10865783691406 188.13723754882812 122.65432739257812 189.08323669433594 123.20000457763672 C 190.1756134033203 121.30805206298828 191.2680206298828 119.41610717773438 192.3604278564453 117.52416229248047 C 191.41549682617188 116.97848510742188 190.4695281982422 116.43280792236328 189.5235595703125 115.88713836669922" stroke-width="0.0" fill="rgb(250, 53, 52)" opacity="1.0"/>
    <path d="M 189.5235595703125 142.10684204101562 C 188.43115234375 143.99880981445312 187.3376922607422 145.8907470703125 186.24530029296875 147.78269958496094 C 187.1912841796875 148.328369140625 188.13723754882812 148.87403869628906 189.08323669433594 149.4197235107422 C 190.1756134033203 147.52777099609375 191.2680206298828 145.63580322265625 192.3604278564453 143.74386596679688 C 191.41549682617188 143.1981964111328 190.4695281982422 142.65252685546875 189.5235595703125 142.10684204101562" stroke-width="0.0" fill="rgb(249, 53, 52)" opacity="1.0"/>
    <path d="M 118.01716613769531 90.54808807373047 C 119.10956573486328 92.44003295898438 120.20196533203125 94.33198547363281 121.29437255859375 96.22393798828125 C 120.348388671875 96.76960754394531 119.40241241455078 97.31527709960938 118.4564437866211 97.85990142822266 C 117.36404418945312 95.96900177001953 116.27163696289062 94.07705688476562 115.17924499511719 92.18511199951172 C 116.12521362304688 91.63943481445312 117.0711898803711 91.09375762939453 118.01716613769531 90.54808807373047" stroke-width="0.0" fill="rgb(250, 53, 52)" opacity="1.0"/>
    <path d="M 118.01716613769531 117.02167510986328 C 119.10956573486328 118.91362762451172 120.20196533203125 120.80662536621094 121.29437255859375 122.69857025146484 C 120.348388671875 123.24424743652344 119.40241241455078 123.78992462158203 118.4564437866211 124.3355941772461 C 117.36404418945312 122.44364929199219 116.27163696289062 120.55169677734375 115.17924499511719 118.65974426269531 C 116.12521362304688 118.11407470703125 117.0711898803711 117.56735229492188 118.01716613769531 117.02167510986328" stroke-width="0.0" fill="rgb(250, 53, 52)" opacity="1.0"/>
    <path d="M 140.40345764160156 163.847412109375 C 140.40345764160156 163.847412109375 140.40345764160156 163.847412109375 140.40345764160156 163.847412109375 C 139.03506469726562 164.2182159423828 138.35560607910156 164.1075897216797 137.5729217529297 165.47177124023438 C 136.33619689941406 167.62498474121094 137.90054321289062 170.40391540527344 140.40345764160156 170.40391540527344 C 142.90640258789062 170.40391540527344 144.46231079101562 167.6228790283203 143.2298126220703 165.47177124023438 C 142.44921875 164.10655212402344 141.77081298828125 164.2182159423828 140.40345764160156 163.847412109375 C 140.40345764160156 163.847412109375 140.40345764160156 163.847412109375 140.40345764160156 163.847412109375" stroke-width="0.0" fill="rgb(178, 24, 26)" opacity="1.0"/>
    <path d="M 163.3449249267578 173.6811065673828 C 163.3449249267578 173.6811065673828 163.3449249267578 173.6811065673828 163.3449249267578 173.6811065673828 C 161.97653198242188 174.05087280273438 161.2960205078125 173.94024658203125 160.51333618164062 175.3054962158203 C 159.27659606933594 177.46185302734375 160.8419952392578 180.2333984375 163.3449249267578 180.2333984375 C 165.84786987304688 180.2333984375 167.40481567382812 177.4576416015625 166.1723175048828 175.3054962158203 C 165.3906707763672 173.94024658203125 164.71226501464844 174.05191040039062 163.3449249267578 173.6811065673828 C 163.3449249267578 173.6811065673828 163.3449249267578 173.6811065673828 163.3449249267578 173.6811065673828" stroke-width="0.0" fill="rgb(178, 24, 26)" opacity="1.0"/>
    <path d="M 118.01716613769531 143.24244689941406 C 119.10956573486328 145.13438415527344 120.20196533203125 147.0252685546875 121.29437255859375 148.917236328125 C 120.348388671875 149.46290588378906 119.40241241455078 150.00857543945312 118.4564437866211 150.5542449951172 C 117.36404418945312 148.66229248046875 116.27163696289062 146.77035522460938 115.17924499511719 144.87840270996094 C 116.12521362304688 144.33273315429688 117.0711898803711 143.78810119628906 118.01716613769531 143.24244689941406" stroke-width="0.0" fill="rgb(250, 53, 52)" opacity="1.0"/>
    <path d="M 160.81460571289062 144.6192626953125 C 160.5638885498047 147.5477752685547 160.31422424316406 150.47628784179688 160.0635223388672 153.40481567382812 C 161.60360717773438 155.76133728027344 163.144775390625 158.11888122558594 164.68594360351562 160.4753875732422 C 161.56675720214844 160.1340789794922 158.44757080078125 159.79171752929688 155.328369140625 159.45042419433594 C 153.0350799560547 161.28126525878906 150.7417755126953 163.11105346679688 148.44740295410156 164.94190979003906 C 148.44740295410156 161.7953338623047 148.44740295410156 158.6487579345703 148.44740295410156 155.50218200683594 C 146.85464477539062 152.92129516601562 145.26185607910156 150.33935546875 143.66908264160156 147.7584686279297 C 146.6239471435547 148.00601196289062 149.57984924316406 148.25462341308594 152.53575134277344 148.50218200683594 C 155.29571533203125 147.20858764648438 158.05567932128906 145.91392517089844 160.81460571289062 144.6192626953125" stroke-width="0.0" fill="rgb(178, 24, 26)" opacity="1.0"/>
    <path d="M 169.15560913085938 148.42422485351562 C 169.15560913085938 148.42422485351562 169.15560913085938 148.42422485351562 169.15560913085938 148.42422485351562 C 171.2413787841797 148.23040771484375 171.9840545654297 149.4197235107422 170.8758544921875 151.20001220703125 C 168.4540252685547 152.42091369628906 166.03326416015625 153.6407928466797 163.6125030517578 154.8606414794922 C 161.52145385742188 155.060791015625 160.78089904785156 153.86831665039062 161.893310546875 152.08486938476562 C 164.31512451171875 150.86500549316406 166.73800659179688 149.64515686035156 169.15982055664062 148.42422485351562 C 169.15982055664062 148.42422485351562 169.15560913085938 148.42422485351562 169.15560913085938 148.42422485351562" stroke-width="0.0" fill="rgb(178, 25, 27)" opacity="1.0"/>
    <path d="M 155.308349609375 160.45431518554688 C 155.308349609375 160.45431518554688 155.308349609375 160.45431518554688 155.308349609375 160.45431518554688 C 156.00045776367188 160.34266662597656 156.7715606689453 160.49014282226562 157.37307739257812 160.84934997558594 C 158.9110565185547 163.61143493652344 160.45013427734375 166.37457275390625 161.9881134033203 169.1376953125 C 162.2841339111328 171.222412109375 161.11376953125 172.01776123046875 159.2850341796875 170.97171020507812 C 157.74703979492188 168.2085723876953 156.20904541015625 165.44650268554688 154.66998291015625 162.68441772460938 C 154.58255004882812 161.91543579101562 154.82589721679688 161.05795288085938 155.308349609375 160.45431518554688 C 155.308349609375 160.45431518554688 155.308349609375 160.45431518554688 155.308349609375 160.45431518554688" stroke-width="0.0" fill="rgb(178, 26, 28)" opacity="1.0"/>
    <path d="M 158.935302734375 147.3054962158203 C 158.75094604492188 149.47764587402344 158.5655517578125 151.6487579345703 158.38119506835938 153.8209228515625 C 159.3914337158203 155.36734008789062 160.4016571044922 156.9137725830078 161.41189575195312 158.460205078125 C 159.2154998779297 158.2200164794922 157.0191192626953 157.97982788085938 154.82272338867188 157.73965454101562 C 153.2425994873047 159.00271606445312 151.66140747070312 160.26470947265625 150.08021545410156 161.52777099609375 C 150.08021545410156 159.3619384765625 150.08021545410156 157.1960906982422 150.08021545410156 155.02919006347656 C 148.97412109375 153.23731994628906 147.8680419921875 151.44650268554688 146.76193237304688 149.6546173095703 C 148.78662109375 149.82423400878906 150.81129455566406 149.99383544921875 152.83596801757812 150.16448974609375 C 154.86907958984375 149.2111358642578 156.90219116210938 148.2588348388672 158.935302734375 147.3054962158203" stroke-width="0.0" fill="rgb(252, 214, 32)" opacity="1.0"/>
    <path d="M 137.00196838378906 154.9881134033203 C 140.32025146484375 154.9881134033203 143.63958740234375 154.9881134033203 146.95892333984375 154.9881134033203 C 148.89300537109375 155.75816345214844 149.01837158203125 157.13604736328125 147.25177001953125 158.23793029785156 C 143.8334197998047 158.2452850341797 140.41505432128906 158.25372314453125 136.9977569580078 158.26214599609375 C 135.0594482421875 157.4984130859375 134.94041442871094 156.1152801513672 136.70594787597656 155.0165557861328 C 136.80392456054688 155.007080078125 136.90293884277344 154.99758911132812 137.00196838378906 154.9881134033203" stroke-width="0.0" fill="rgb(178, 24, 26)" opacity="1.0"/>
  </g>
</svg>
