<?xml version="1.0" ?>
<svg xmlns="http://www.w3.org/2000/svg" version="1.1" width="224" height="224">
  <defs/>
  <g>
    <path d="M 100.6447982788086 43.21094512939453 C 100.6447982788086 43.21094512939453 100.6447982788086 43.21094512939453 100.6447982788086 43.21094512939453 C 93.02581787109375 47.79105758666992 86.45132446289062 53.7045783996582 81.46900177001953 61.10322952270508 C 77.3388900756836 67.23707580566406 74.39356231689453 74.15349578857422 72.83984375 81.38378143310547 C 71.25701141357422 88.75332641601562 71.1229476928711 96.42115783691406 72.44802856445312 103.84163665771484 C 73.6307373046875 110.47017669677734 75.97431945800781 116.88150787353516 79.34054565429688 122.71188354492188 C 95.19271850585938 150.16868591308594 131.389892578125 159.8641357421875 158.8435821533203 144.01612854003906 C 186.29620361328125 128.16812133789062 196.0 91.96783447265625 180.1467742919922 64.51206970214844 C 176.78054809570312 58.6827392578125 172.39996337890625 53.447872161865234 167.25137329101562 49.10990905761719 C 161.48648071289062 44.25334167480469 154.77789306640625 40.53375244140625 147.60476684570312 38.219268798828125 C 140.56674194335938 35.94844055175781 133.10365295410156 35.0390625 125.72683715820312 35.549354553222656 C 116.82849884033203 36.16460418701172 108.41967010498047 38.90311813354492 100.6447982788086 43.21094512939453 C 100.6447982788086 43.21094512939453 100.6447982788086 43.21094512939453 100.6447982788086 43.21094512939453" stroke-width="0.0" fill="rgb(227, 164, 120)" opacity="1.0"/>
    <path d="M 129.7415771484375 35.41217041015625 C 129.7415771484375 35.41217041015625 129.7415771484375 35.41217041015625 129.7415771484375 35.41217041015625 C 138.251220703125 35.56806182861328 146.5322265625 37.21636199951172 154.2759246826172 40.82163619995117 C 182.99441528320312 54.18992233276367 195.91893005371094 89.3883285522461 182.5319366455078 118.14527893066406 C 179.6624755859375 124.310302734375 175.70176696777344 129.95567321777344 170.89404296875 134.76339721679688 C 165.59994506835938 140.0574951171875 159.29046630859375 144.32064819335938 152.39483642578125 147.2368621826172 C 145.24351501464844 150.2611846923828 137.5039825439453 151.8107452392578 129.7415771484375 151.8107452392578 C 121.97918701171875 151.8107452392578 114.23965454101562 150.2611846923828 107.08834838867188 147.2368621826172 C 100.19271087646484 144.32064819335938 93.88323211669922 140.0574951171875 88.58912658691406 134.76339721679688 C 83.78140258789062 129.95567321777344 79.82173919677734 124.310302734375 76.95228576660156 118.14527893066406 C 63.56528091430664 89.3883285522461 76.48876190185547 54.18992233276367 105.20724487304688 40.82163619995117 C 112.95094299316406 37.21636199951172 121.23090362548828 35.56806182861328 129.7415771484375 35.41217041015625 C 129.7415771484375 35.41217041015625 129.7415771484375 35.41217041015625 129.7415771484375 35.41217041015625" stroke-width="0.0" fill="rgb(178, 25, 26)" opacity="1.0"/>
    <path d="M 129.7415771484375 38.6453742980957 C 129.7415771484375 38.6453742980957 129.7415771484375 38.6453742980957 129.7415771484375 38.6453742980957 C 121.32547760009766 38.8075065612793 113.15567779541016 40.51192855834961 105.56787872314453 44.2325553894043 C 78.70762634277344 57.4044189453125 67.17159271240234 90.88490295410156 80.36320495605469 117.78465270996094 C 83.32308197021484 123.81976318359375 87.39913940429688 129.2957305908203 92.32222747802734 133.87274169921875 C 97.25777435302734 138.46221923828125 103.03411102294922 142.13711547851562 109.29058837890625 144.64593505859375 C 115.77986907958984 147.24725341796875 122.75137329101562 148.57545471191406 129.7415771484375 148.57545471191406 C 136.7318115234375 148.57545471191406 143.704345703125 147.24725341796875 150.19361877441406 144.6448974609375 C 156.45010375976562 142.1360626220703 162.22642517089844 138.46116638183594 167.16302490234375 133.8717041015625 C 172.08506774902344 129.29470825195312 176.1611328125 123.8187255859375 179.12100219726562 117.7825698852539 C 192.3115692138672 90.88282775878906 180.77450561523438 57.40338134765625 153.91322326660156 44.23151779174805 C 146.32644653320312 40.51192855834961 138.15664672851562 38.8075065612793 129.7415771484375 38.6453742980957 C 129.7415771484375 38.6453742980957 129.7415771484375 38.6453742980957 129.7415771484375 38.6453742980957" stroke-width="0.0" fill="rgb(252, 215, 32)" opacity="1.0"/>
    <path d="M 129.7415771484375 57.030277252197266 C 129.7415771484375 57.030277252197266 129.7415771484375 57.030277252197266 129.7415771484375 57.030277252197266 C 132.91036987304688 65.238525390625 136.45846557617188 74.24807739257812 142.80328369140625 80.59392547607422 C 149.13563537597656 86.92627716064453 158.12750244140625 90.46087646484375 166.32119750976562 93.61509704589844 C 166.32119750976562 93.61509704589844 166.32119750976562 93.61509704589844 166.32119750976562 93.61509704589844 C 157.92379760742188 95.99089813232422 147.81573486328125 98.6192398071289 141.42416381835938 105.00459289550781 C 134.95567321777344 111.46788787841797 132.2327423095703 121.713134765625 129.73846435546875 130.19056701660156 C 129.73846435546875 130.19056701660156 129.73846435546875 130.19056701660156 129.73846435546875 130.19056701660156 C 126.30780029296875 120.63331604003906 122.50194549560547 108.41239166259766 114.01412200927734 101.98859405517578 C 107.99459838867188 97.43134307861328 100.3797836303711 95.34757995605469 93.15780639648438 93.61509704589844 C 93.15780639648438 93.61509704589844 93.15780639648438 93.61509704589844 93.15780639648438 93.61509704589844 C 101.3296890258789 90.40267944335938 110.76325225830078 86.96160888671875 117.1018295288086 80.59392547607422 C 123.3479232788086 74.31874084472656 126.66635131835938 65.12213134765625 129.7415771484375 57.030277252197266 C 129.7415771484375 57.030277252197266 129.7415771484375 57.030277252197266 129.7415771484375 57.030277252197266" stroke-width="0.0" fill="rgb(240, 156, 35)" opacity="1.0"/>
    <path d="M 129.74575805664062 57.026123046875 C 129.74575805664062 57.026123046875 129.74575805664062 57.026123046875 129.74575805664062 57.026123046875 C 132.91452026367188 65.234375 136.46263122558594 74.24391174316406 142.80743408203125 80.58976745605469 C 149.13980102539062 86.922119140625 158.13165283203125 90.457763671875 166.3253631591797 93.6109390258789 C 166.3253631591797 93.6109390258789 166.3253631591797 93.6109390258789 166.3253631591797 93.6109390258789 C 157.92794799804688 95.98674011230469 147.81886291503906 98.6150894165039 141.42727661132812 105.00043487548828 C 134.9587860107422 111.46372985839844 132.23587036132812 121.708984375 129.7415771484375 130.1864013671875 C 129.7415771484375 130.1864013671875 129.7415771484375 130.1864013671875 129.7415771484375 130.1864013671875 C 126.31195068359375 120.62916564941406 122.506103515625 108.40824127197266 114.0182876586914 101.98443603515625 C 107.99771881103516 97.42718505859375 100.38394165039062 95.34342193603516 93.16197204589844 93.6109390258789 C 93.16197204589844 93.6109390258789 93.16197204589844 93.6109390258789 93.16197204589844 93.6109390258789 C 101.33384704589844 90.39851379394531 110.76740264892578 86.95849609375 117.10599517822266 80.58976745605469 C 123.3520736694336 74.31458282470703 126.67050170898438 65.11797332763672 129.74575805664062 57.026123046875 C 129.74575805664062 57.026123046875 129.74575805664062 57.026123046875 129.74575805664062 57.026123046875" stroke-width="0.0" fill="rgb(178, 24, 26)" opacity="1.0"/>
    <path d="M 129.7831573486328 65.65736389160156 C 129.71456909179688 65.8153305053711 129.6470184326172 65.9743423461914 129.5794677734375 66.13230895996094 C 126.93344116210938 72.03128051757812 124.03904724121094 78.2482681274414 119.3955307006836 82.87826538085938 C 114.99624633789062 87.26300048828125 109.2251205444336 90.09400939941406 103.67950439453125 92.71819305419922 C 103.46956634521484 92.81173706054688 103.25962829589844 92.90422821044922 103.05073547363281 92.99775695800781 C 108.4747543334961 94.9297866821289 113.5578842163086 97.25050354003906 117.93741607666016 101.04804229736328 C 118.14631652832031 101.24862670898438 118.35417175292969 101.44816589355469 118.56306457519531 101.64875030517578 C 123.08810424804688 106.47206115722656 125.98873901367188 112.3928451538086 128.64617919921875 118.3874282836914 C 128.92471313476562 119.04841613769531 129.2032470703125 119.71043395996094 129.48175048828125 120.37142181396484 C 129.5264434814453 120.2425537109375 129.57115173339844 120.11471557617188 129.6158447265625 119.98584747314453 C 131.8585968017578 113.9964599609375 134.39028930664062 108.1224365234375 138.62744140625 103.25547790527344 C 138.7999725341797 103.07568359375 138.97146606445312 102.89588928222656 139.14292907714844 102.71609497070312 C 144.02029418945312 98.18585968017578 150.09593200683594 95.6053237915039 156.27447509765625 93.3386459350586 C 156.43658447265625 93.28148651123047 156.59872436523438 93.2253646850586 156.7618865966797 93.16820526123047 C 156.3544921875 92.98009490966797 155.9470977783203 92.79198455810547 155.53970336914062 92.60387420654297 C 150.3806915283203 90.10751342773438 145.47007751464844 87.33782958984375 141.17578125 83.50807189941406 C 140.95855712890625 83.29814147949219 140.7403106689453 83.08820343017578 140.5220489501953 82.87826538085938 C 136.02613830566406 78.1256332397461 132.94984436035156 72.4615478515625 130.18743896484375 66.5750503540039 C 130.05335998535156 66.26950073242188 129.91827392578125 65.9629135131836 129.7831573486328 65.65736389160156" stroke-width="0.0" fill="rgb(249, 28, 60)" opacity="1.0"/>
    <path d="M 65.07847595214844 72.30773162841797 C 65.07847595214844 72.30773162841797 65.07847595214844 72.30773162841797 65.07847595214844 72.30773162841797 C 57.460540771484375 76.88784790039062 50.88603973388672 82.80136108398438 45.903717041015625 90.20105743408203 C 41.77361297607422 96.33489990234375 38.82829284667969 103.25236511230469 37.275596618652344 110.48265075683594 C 35.69172668457031 117.85323333740234 35.55766296386719 125.52210235595703 36.88275146484375 132.943603515625 C 38.06544494628906 139.57008361816406 40.409034729003906 145.98141479492188 43.7752685546875 151.8107452392578 C 59.627445220947266 179.26651000976562 95.82564544677734 188.9609375 123.27828979492188 173.1129150390625 C 150.73092651367188 157.26283264160156 160.428466796875 121.06565856933594 144.578369140625 93.60990142822266 C 141.2131805419922 87.78056335449219 136.83261108398438 82.54466247558594 131.68504333496094 78.20669555664062 C 125.9201431274414 73.34909057617188 119.21366119384766 69.63157653808594 112.03844451904297 67.31813049316406 C 105.00043487548828 65.04833984375 97.53734588623047 64.14000701904297 90.15948486328125 64.65029907226562 C 81.26113891601562 65.26554870605469 72.85334777832031 68.00094604492188 65.07847595214844 72.30773162841797 C 65.07847595214844 72.30773162841797 65.07847595214844 72.30773162841797 65.07847595214844 72.30773162841797" stroke-width="0.0" fill="rgb(243, 47, 54)" opacity="1.0"/>
    <path d="M 94.17630767822266 64.51310729980469 C 94.17630767822266 64.51310729980469 94.17630767822266 64.51310729980469 94.17630767822266 64.51310729980469 C 102.68595123291016 64.66900634765625 110.96694946289062 66.31730651855469 118.71064758300781 69.92257690429688 C 147.42913818359375 83.29086303710938 160.3536376953125 118.4892807006836 146.96664428710938 147.24725341796875 C 144.09719848632812 153.41123962402344 140.13648986816406 159.05767822265625 135.32876586914062 163.86434936523438 C 130.03570556640625 169.158447265625 123.72518157958984 173.42160034179688 116.82953643798828 176.33782958984375 C 109.67823791503906 179.36212158203125 101.93870544433594 180.91171264648438 94.17630767822266 180.91171264648438 C 86.41390228271484 180.91171264648438 78.67436981201172 179.36212158203125 71.5230712890625 176.33782958984375 C 64.62742614746094 173.42160034179688 58.31795120239258 169.158447265625 53.023841857910156 163.86434936523438 C 48.21612548828125 159.05767822265625 44.25645446777344 153.41123962402344 41.387001037597656 147.24725341796875 C 28.0 118.49032592773438 40.924522399902344 83.29086303710938 69.6419677734375 69.92257690429688 C 77.38566589355469 66.31730651855469 85.66561889648438 64.66900634765625 94.17630767822266 64.51310729980469 C 94.17630767822266 64.51310729980469 94.17630767822266 64.51310729980469 94.17630767822266 64.51310729980469" stroke-width="0.0" fill="rgb(178, 26, 26)" opacity="1.0"/>
    <path d="M 94.17630767822266 67.74736022949219 C 94.17630767822266 67.74736022949219 94.17630767822266 67.74736022949219 94.17630767822266 67.74736022949219 C 85.76020050048828 67.90948486328125 77.59040069580078 69.61390686035156 70.00259399414062 73.33454132080078 C 43.14234924316406 86.50640869140625 31.606307983398438 119.98688507080078 44.79792022705078 146.88558959960938 C 47.75779724121094 152.92173767089844 51.834903717041016 158.39772033691406 56.75694274902344 162.9747314453125 C 61.693538665771484 167.56419372558594 67.46882629394531 171.2390899658203 73.72531127929688 173.7479248046875 C 80.21458435058594 176.3492431640625 87.18609619140625 177.67742919921875 94.17630767822266 177.67742919921875 C 101.16651916503906 177.67742919921875 108.1390609741211 176.3492431640625 114.62834167480469 173.74688720703125 C 120.88481903076172 171.238037109375 126.66114807128906 167.56314086914062 131.59669494628906 162.9736785888672 C 136.519775390625 158.39564514160156 140.59584045410156 152.91966247558594 143.5546875 146.88455200195312 C 156.74525451660156 119.98480224609375 145.209228515625 86.50433349609375 118.34793853759766 73.33349609375 C 110.76116943359375 69.61390686035156 102.59137725830078 67.90948486328125 94.17630767822266 67.74736022949219 C 94.17630767822266 67.74736022949219 94.17630767822266 67.74736022949219 94.17630767822266 67.74736022949219" stroke-width="0.0" fill="rgb(252, 215, 32)" opacity="1.0"/>
    <path d="M 94.18045806884766 86.12811279296875 C 94.18045806884766 86.12811279296875 94.18045806884766 86.12811279296875 94.18045806884766 86.12811279296875 C 97.34923553466797 94.33531951904297 100.89734649658203 103.34693145751953 107.24111938476562 109.69175720214844 C 113.57347106933594 116.02410125732422 122.5663833618164 119.55870056152344 130.7600860595703 122.71292114257812 C 130.7600860595703 122.71292114257812 130.7600860595703 122.71292114257812 130.7600860595703 122.71292114257812 C 122.36268615722656 125.08768463134766 112.25357818603516 127.71601867675781 105.86199951171875 134.1024169921875 C 99.39453887939453 140.56570434570312 96.67058563232422 150.8109588623047 94.17630767822266 159.28839111328125 C 94.17630767822266 159.28839111328125 94.17630767822266 159.28839111328125 94.17630767822266 159.28839111328125 C 90.74667358398438 149.7301025390625 86.93978881835938 137.50918579101562 78.45196533203125 131.08538818359375 C 72.43140411376953 126.52915954589844 64.81761932373047 124.44540405273438 57.595645904541016 122.71292114257812 C 57.595645904541016 122.71292114257812 57.595645904541016 122.71292114257812 57.595645904541016 122.71292114257812 C 65.76752471923828 119.50050354003906 75.2021255493164 116.05943298339844 81.54071044921875 109.69175720214844 C 87.78679656982422 103.4176025390625 91.105224609375 94.21891784667969 94.18045806884766 86.12811279296875 C 94.18045806884766 86.12811279296875 94.18045806884766 86.12811279296875 94.18045806884766 86.12811279296875" stroke-width="0.0" fill="rgb(179, 24, 26)" opacity="1.0"/>
    <path d="M 94.21684265136719 94.75935363769531 C 94.14928436279297 94.91731262207031 94.08172607421875 95.07632446289062 94.01417541503906 95.23429870605469 C 91.3681640625 101.13326263427734 88.47376251220703 107.35025024414062 83.82920837402344 111.98025512695312 C 79.42992401123047 116.36498260498047 73.65879821777344 119.1949462890625 68.1131820678711 121.81913757324219 C 67.90428924560547 121.91267395019531 67.69435119628906 122.00621032714844 67.48545837402344 122.09974670410156 C 72.90946960449219 124.03176879882812 77.99156188964844 126.35248565673828 82.37213134765625 130.1500244140625 C 82.58103942871094 130.35060119628906 82.78888702392578 130.55015563964844 82.99674224853516 130.750732421875 C 87.52281951904297 135.57301330566406 90.42345428466797 141.49378967285156 93.08090209960938 147.48837280273438 C 93.35942840576172 148.150390625 93.6379623413086 148.81137084960938 93.91648864746094 149.47341918945312 C 93.96117401123047 149.3445281982422 94.005859375 149.21566772460938 94.05055236816406 149.0867919921875 C 96.29332733154297 143.097412109375 98.82501220703125 137.22442626953125 103.06217193603516 132.35745239257812 C 103.23469543457031 132.1776580810547 103.40616607666016 131.9978790283203 103.57765197753906 131.81703186035156 C 108.45603942871094 127.28784942626953 114.53064727783203 124.70730590820312 120.70918273925781 122.44062805175781 C 120.87130737304688 122.38346862792969 121.03448486328125 122.32734680175781 121.19660949707031 122.27018737792969 C 120.7892074584961 122.08207702636719 120.38180541992188 121.89396667480469 119.97441101074219 121.70585632324219 C 114.81541442871094 119.20950317382812 109.90377044677734 116.43877410888672 105.61048889160156 112.60901641845703 C 105.39328002929688 112.39908599853516 105.17503356933594 112.190185546875 104.95782470703125 111.98025512695312 C 100.46084594726562 107.22761535644531 97.38456726074219 101.56352996826172 94.62319946289062 95.67599487304688 C 94.48704528808594 95.37044525146484 94.35194396972656 95.06489562988281 94.21684265136719 94.75935363769531" stroke-width="0.0" fill="rgb(249, 27, 60)" opacity="1.0"/>
  </g>
</svg>
