<?xml version="1.0" ?>
<svg xmlns="http://www.w3.org/2000/svg" version="1.1" width="224" height="224">
  <defs/>
  <g>
    <path d="M 47.06703186035156 47.43597412109375 C 46.65081787109375 42.15156555175781 49.06816101074219 38.20115661621094 52.481502532958984 39.435707092285156 C 53.91649627685547 40.05108642578125 54.935707092285156 42.113853454589844 54.86152648925781 46.311790466308594 C 55.42485046386719 51.867950439453125 55.090641021728516 52.27861785888672 51.520530700683594 52.4482421875 C 47.64556884765625 52.703697204589844 47.47003936767578 52.51979064941406 47.06703186035156 47.43597412109375" stroke-width="1.0" fill="rgb(245, 210, 18)" opacity="0.9764321"/>
    <path d="M 148.1122589111328 70.35546875 C 148.44044494628906 70.03360748291016 152.82208251953125 66.76579284667969 158.37673950195312 63.1315803527832 C 163.50485229492188 59.562889099121094 167.9517364501953 56.0946044921875 168.02651977539062 55.618377685546875 C 168.5 53.888336181640625 174.8203125 53.95995330810547 174.832763671875 55.622894287109375 C 174.88351440429688 56.17304229736328 179.5333251953125 59.73036575317383 185.2028045654297 63.49763870239258 C 191.1214599609375 67.28699493408203 195.83827209472656 70.58416748046875 195.98231506347656 70.6869888305664 C 196.0 70.71443176269531 184.85052490234375 70.8580551147461 171.57398986816406 70.77197265625 C 158.1377716064453 71.06355285644531 147.7118682861328 70.79024505615234 148.1122589111328 70.35546875" stroke-width="1.0" fill="rgb(226, 0, 18)" opacity="0.9976239"/>
    <path d="M 28.66484832763672 70.2882308959961 C 28.784324645996094 69.8680419921875 33.305694580078125 66.76031494140625 38.77880859375 63.147377014160156 C 43.933021545410156 59.51939010620117 48.39045333862305 56.099037170410156 48.58000183105469 55.67523193359375 C 49.19516372680664 53.71025085449219 54.4277458190918 54.00342559814453 55.79160690307617 55.93669891357422 C 56.469627380371094 56.93971252441406 61.15156555175781 60.51628112792969 66.49545288085938 63.920074462890625 C 71.49406433105469 67.42622375488281 75.96199035644531 70.38192749023438 76.15267944335938 70.7603530883789 C 76.04922485351562 70.80874633789062 65.21778869628906 70.91963195800781 52.048858642578125 70.75282287597656 C 37.46177673339844 71.00192260742188 28.0 70.8026123046875 28.66484832763672 70.2882308959961" stroke-width="1.0" fill="rgb(226, 0, 17)" opacity="0.9967808"/>
    <path d="M 85.81233978271484 97.18560028076172 C 86.63202667236328 96.37296295166016 89.7059326171875 93.86678314208984 92.53752899169922 91.80189514160156 C 95.295166015625 89.53828430175781 97.62158203125 87.43235778808594 97.61798858642578 86.37606811523438 C 97.72357177734375 85.13166046142578 125.22406768798828 85.20142364501953 125.76028442382812 86.40007019042969 C 125.94605255126953 87.38946533203125 129.36453247070312 90.4567642211914 133.4630126953125 93.50576782226562 L 140.703857421875 99.06941223144531 L 84.14411926269531 98.94007110595703 L 85.81233978271484 97.18560028076172" stroke-width="1.0" fill="rgb(225, 0, 17)" opacity="0.99979407"/>
    <path d="M 38.16419982910156 106.28910827636719 C 38.020599365234375 90.19764709472656 37.690589904785156 90.91191101074219 52.392906188964844 90.58677673339844 C 66.57083892822266 90.95404815673828 65.93231964111328 90.10426330566406 65.77509307861328 106.16252899169922 L 65.82032775878906 118.52943420410156 L 38.273597717285156 118.50177001953125 L 38.16419982910156 106.28910827636719" stroke-width="1.0" fill="rgb(224, 0, 16)" opacity="0.9942745"/>
    <path d="M 28.39289093017578 143.77650451660156 L 28.44409942626953 131.9676971435547 L 63.626434326171875 131.47494506835938 L 98.63368225097656 131.7672882080078 L 98.70231628417969 134.5586395263672 C 98.77915954589844 140.7590789794922 102.82383728027344 146.2618408203125 108.68880462646484 147.39202880859375 C 110.7388687133789 147.93544006347656 110.79034423828125 148.22044372558594 111.02247619628906 151.88198852539062 L 110.85075378417969 155.7354736328125 L 28.011253356933594 155.74588012695312 L 28.39289093017578 143.77650451660156" stroke-width="1.0" fill="rgb(224, 0, 17)" opacity="0.99991727"/>
    <path d="M 113.5263442993164 155.2811279296875 C 113.45201873779297 155.0690460205078 113.25505828857422 153.36810302734375 113.31108093261719 151.63754272460938 C 113.20149230957031 148.52772521972656 113.2935791015625 148.37571716308594 117.0606460571289 146.4838409423828 C 121.47813415527344 144.64645385742188 123.69157409667969 141.11932373046875 124.51062774658203 135.71034240722656 L 124.85487365722656 131.63624572753906 L 195.4076690673828 131.58468627929688 L 195.55606079101562 155.7767333984375 L 155.01889038085938 155.75485229492188 C 132.48233032226562 155.83016967773438 113.85900115966797 155.7738037109375 113.5263442993164 155.2811279296875" stroke-width="1.0" fill="rgb(224, 0, 17)" opacity="0.99450415"/>
    <path d="M 157.4089813232422 106.3992919921875 C 157.47940063476562 94.52720642089844 157.58566284179688 94.24882507324219 159.3188934326172 92.3616943359375 C 161.20326232910156 90.51631927490234 161.65386962890625 90.44574737548828 171.82176208496094 90.68403625488281 C 182.08499145507812 90.58538818359375 182.21835327148438 90.53985595703125 183.82858276367188 92.54590606689453 C 185.267333984375 94.34095764160156 185.37876892089844 95.6534423828125 185.43211364746094 106.39295959472656 L 185.34866333007812 118.59192657470703 L 157.5281219482422 118.53286743164062 L 157.4089813232422 106.3992919921875" stroke-width="1.0" fill="rgb(224, 0, 16)" opacity="0.99804646"/>
    <path d="M 148.220458984375 88.76988220214844 L 148.19361877441406 73.30226135253906 L 195.237060546875 73.24037170410156 L 195.25469970703125 104.79994201660156 L 187.68919372558594 104.6323013305664 L 187.86041259765625 99.83428192138672 C 188.13124084472656 93.64775085449219 186.4859619140625 90.84661102294922 183.450927734375 88.849609375 C 182.99530029296875 87.93862915039062 177.91189575195312 87.72711181640625 171.16746520996094 87.85707092285156 C 159.10411071777344 87.78291320800781 157.9421844482422 88.58406066894531 156.04798889160156 93.44113159179688 C 155.2873077392578 94.90592956542969 154.78744506835938 97.75363159179688 155.0244140625 100.22654724121094 L 154.80628967285156 104.48004150390625 L 148.24722290039062 104.26131439208984 L 148.220458984375 88.76988220214844" stroke-width="1.0" fill="rgb(244, 213, 17)" opacity="0.9981607"/>
    <path d="M 106.99376678466797 144.2093048095703 C 105.75680541992188 144.01893615722656 104.10746002197266 142.48745727539062 103.16156768798828 141.14663696289062 C 101.45452880859375 139.18603515625 101.40733337402344 137.69985961914062 101.52816009521484 127.74263000488281 C 101.15115356445312 113.70858764648438 101.5225830078125 113.64784240722656 111.77317810058594 113.61695098876953 C 121.51305389404297 113.46595764160156 121.67422485351562 113.5566635131836 121.53449249267578 127.96160125732422 C 121.7366943359375 137.33006286621094 121.11223602294922 140.0972900390625 119.90497589111328 141.37875366210938 C 117.34010314941406 144.96746826171875 110.9913330078125 146.3105010986328 106.99376678466797 144.2093048095703" stroke-width="1.0" fill="rgb(243, 212, 33)" opacity="0.99646676"/>
    <path d="M 28.400367736816406 125.40232849121094 L 28.19122314453125 121.13560485839844 L 63.41755676269531 120.99517822265625 L 98.51856994628906 120.62865447998047 L 98.8327865600586 124.65889739990234 L 99.04561614990234 129.0841827392578 L 28.2689208984375 129.2553253173828 L 28.400367736816406 125.40232849121094" stroke-width="1.0" fill="rgb(243, 209, 22)" opacity="0.99416465"/>
    <path d="M 124.57426452636719 124.73246765136719 L 124.72166442871094 120.58619689941406 L 160.61233520507812 120.95291900634766 L 195.26275634765625 121.0871353149414 L 195.09783935546875 129.11154174804688 L 124.20504760742188 129.14208984375 L 124.57426452636719 124.73246765136719" stroke-width="1.0" fill="rgb(243, 209, 22)" opacity="0.9940483"/>
    <path d="M 84.24066162109375 118.09673309326172 C 84.60421752929688 116.08537292480469 84.45934295654297 113.68243408203125 84.69144439697266 107.39110565185547 L 84.7585220336914 101.3368148803711 L 138.57424926757812 101.27442169189453 L 138.7707061767578 117.98843383789062 L 134.24160766601562 118.42060852050781 C 130.40829467773438 118.62110137939453 128.64161682128906 117.3543701171875 129.56712341308594 113.37132263183594 C 127.68768310546875 109.01551055908203 125.61004638671875 107.49990844726562 122.16287994384766 108.79210662841797 C 122.05619812011719 112.0338134765625 120.92176055908203 112.04844665527344 120.50617218017578 112.68720245361328 C 119.52547454833984 110.4667739868164 111.61699676513672 110.34650421142578 105.77896118164062 111.0570297241211 C 102.00631713867188 113.0418701171875 100.44537353515625 111.70442962646484 99.0665512084961 109.03166198730469 C 97.61872100830078 108.59220886230469 95.54885864257812 110.16702270507812 93.22235870361328 112.66217041015625 C 95.47235870361328 117.20507049560547 95.68147277832031 118.20260620117188 91.04792785644531 118.16092681884766 C 87.02964782714844 118.51789855957031 85.05255126953125 118.08013916015625 84.24066162109375 118.09673309326172" stroke-width="0.0" fill="rgb(245, 212, 21)" opacity="0.9993856"/>
    <path d="M 28.686790466308594 89.0224380493164 L 28.668540954589844 73.18727111816406 L 52.42677688598633 73.29098510742188 L 75.8104248046875 73.33262634277344 L 75.71790313720703 104.55071258544922 L 68.37045288085938 104.68717193603516 L 68.37918090820312 98.6905746459961 C 68.2085189819336 93.92084503173828 68.22235107421875 93.3321304321289 65.97401428222656 90.78119659423828 L 62.791282653808594 88.32177734375 L 41.48750305175781 88.17359924316406 L 38.70466613769531 90.36649322509766 C 36.125526428222656 92.46497344970703 35.72581481933594 92.7257080078125 35.809410095214844 98.41630554199219 L 35.721099853515625 104.15274810791016 L 28.740875244140625 104.57830810546875 L 28.686790466308594 89.0224380493164" stroke-width="1.0" fill="rgb(243, 212, 17)" opacity="0.9998993"/>
    <path d="M 28.290115356445312 171.98037719726562 L 28.251487731933594 158.19378662109375 L 67.86227416992188 158.20079040527344 L 67.67192840576172 171.89395141601562 L 67.46920776367188 185.6078338623047 L 47.784156799316406 185.66015625 L 28.082077026367188 185.6726837158203 L 28.290115356445312 171.98037719726562" stroke-width="1.0" fill="rgb(202, 110, 51)" opacity="0.9890246"/>
    <path d="M 70.53105163574219 172.0050811767578 L 70.53781127929688 158.2282257080078 L 110.755615234375 158.2865447998047 L 110.73219299316406 185.71780395507812 L 70.47901153564453 185.61553955078125 L 70.53105163574219 172.0050811767578" stroke-width="1.0" fill="rgb(203, 110, 51)" opacity="0.9922632"/>
    <path d="M 113.53929138183594 171.7578125 L 113.60122680664062 158.13458251953125 L 153.43316650390625 158.0403594970703 L 153.4357452392578 185.73480224609375 L 113.55608367919922 185.7819061279297 L 113.53929138183594 171.7578125" stroke-width="1.0" fill="rgb(203, 111, 51)" opacity="0.9962394"/>
    <path d="M 156.51654052734375 172.00271606445312 L 156.49365234375 158.18392944335938 L 195.37109375 158.25509643554688 L 195.29696655273438 185.79884338378906 L 156.76568603515625 185.77491760253906 L 156.51654052734375 172.00271606445312" stroke-width="1.0" fill="rgb(203, 110, 51)" opacity="0.9923061"/>
    <path d="M 168.45916748046875 44.36323547363281 C 169.03720092773438 40.03535461425781 169.38597106933594 39.7542724609375 171.3378448486328 39.917945861816406 C 173.2274627685547 39.35955047607422 174.1079559326172 41.01496887207031 174.26907348632812 44.935951232910156 C 174.41397094726562 47.58159637451172 174.61517333984375 48.19420623779297 171.91622924804688 48.26618957519531 L 167.97117614746094 48.870826721191406 L 168.45916748046875 44.36323547363281" stroke-width="1.0" fill="rgb(235, 194, 17)" opacity="0.93501586"/>
    <path d="M 187.91629028320312 111.20549774169922 L 187.9159393310547 104.26788330078125 L 195.15792846679688 104.05886840820312 L 195.1905517578125 118.2176742553711 L 187.97494506835938 118.53331756591797 L 187.91629028320312 111.20549774169922" stroke-width="1.0" fill="rgb(229, 135, 19)" opacity="0.9855486"/>
    <path d="M 148.44024658203125 111.12762451171875 L 148.70855712890625 104.40415954589844 L 155.19078063964844 104.26821899414062 L 154.947998046875 118.33250427246094 L 148.74024963378906 118.35875701904297 L 148.44024658203125 111.12762451171875" stroke-width="1.0" fill="rgb(233, 139, 19)" opacity="0.9846098"/>
    <path d="M 106.6821060180664 133.36595153808594 C 105.67584991455078 132.2654571533203 105.0796127319336 130.4162139892578 104.98910522460938 129.60977172851562 C 104.7671127319336 127.4485092163086 105.11338806152344 126.98078155517578 107.72624969482422 127.18534851074219 C 109.43299102783203 127.24803161621094 111.12261199951172 127.74043273925781 111.71383666992188 128.25653076171875 C 112.02398681640625 129.3373565673828 112.27942657470703 129.28460693359375 112.78057861328125 128.09371948242188 C 112.94558715820312 127.41252136230469 114.55337524414062 127.22198486328125 116.42749786376953 127.28675842285156 C 119.2085189819336 127.49165344238281 119.47315216064453 127.52941131591797 118.96940612792969 129.44998168945312 C 119.22684478759766 131.43319702148438 115.3203125 136.063720703125 113.67697143554688 136.0341339111328 C 113.25657653808594 136.0450897216797 112.95355224609375 135.57760620117188 112.64823913574219 134.40725708007812 C 113.18085479736328 133.20799255371094 113.54832458496094 132.47193908691406 114.03065490722656 132.42730712890625 C 114.44612884521484 132.6524658203125 114.71957397460938 132.21958923339844 114.67220306396484 131.57826232910156 C 114.89820861816406 130.56149291992188 113.97735595703125 130.45184326171875 112.03195190429688 130.81805419921875 C 110.25191497802734 130.298828125 109.15180206298828 130.52261352539062 109.35942840576172 131.5370635986328 C 109.11727905273438 132.03834533691406 109.57079315185547 132.41395568847656 110.0400390625 132.42803955078125 C 110.60836791992188 132.25131225585938 110.80912780761719 132.96417236328125 110.98062133789062 134.27328491210938 C 110.3047103881836 136.7219696044922 108.7475814819336 136.2058868408203 106.6821060180664 133.36595153808594" stroke-width="1.0" fill="rgb(90, 158, 57)" opacity="0.9931984"/>
    <path d="M 110.92837524414062 135.961181640625 C 111.30342102050781 134.32151794433594 110.74968719482422 132.7952117919922 109.7736587524414 132.1983184814453 C 109.18878936767578 131.1708984375 109.38141632080078 130.71214294433594 111.65624237060547 130.66357421875 C 112.9580078125 130.52601623535156 114.30193328857422 130.96929931640625 114.33148956298828 131.2960205078125 C 114.25385284423828 132.27395629882812 113.90459442138672 132.88729858398438 113.40408325195312 132.5409698486328 C 113.0467529296875 132.61953735351562 112.56940460205078 133.8399658203125 112.57012176513672 135.94839477539062 C 111.69178009033203 138.40049743652344 111.99663543701172 138.39950561523438 110.92837524414062 135.961181640625" stroke-width="1.0" fill="rgb(228, 234, 244)" opacity="0.96142584"/>
    <path d="M 92.5877456665039 115.02288818359375 C 92.36958312988281 110.0050048828125 93.71112823486328 107.90341186523438 97.70732879638672 107.3220443725586 C 100.80363464355469 107.56907653808594 102.48116302490234 108.75618743896484 102.99150848388672 110.99717712402344 C 102.76593017578125 113.19596862792969 101.14122772216797 113.28950500488281 100.16602325439453 111.18506622314453 C 99.93631744384766 109.67888641357422 99.04171752929688 109.29039764404297 97.96858978271484 109.86482238769531 C 95.57431030273438 110.01356506347656 95.40663146972656 110.4874038696289 95.47604370117188 114.60038757324219 C 95.36690521240234 117.96421813964844 95.37432861328125 119.1568603515625 94.17057800292969 119.06809997558594 C 93.33506774902344 119.22929382324219 92.70378875732422 118.15176391601562 92.5877456665039 115.02288818359375" stroke-width="1.0" fill="rgb(130, 118, 126)" opacity="0.9770697"/>
    <path d="M 128.53549194335938 115.48371887207031 C 128.7730255126953 111.1910171508789 127.19949340820312 108.73407745361328 124.82119750976562 110.16835021972656 C 124.27307891845703 110.38955688476562 123.3588638305664 111.83978271484375 123.14995574951172 112.9848403930664 C 122.59127807617188 114.58499908447266 122.09767150878906 114.55559539794922 121.13465118408203 113.2217788696289 C 120.14857482910156 111.79771423339844 120.2100601196289 111.16738891601562 121.379638671875 109.28630065917969 C 123.2500228881836 106.99361419677734 127.35327911376953 106.77334594726562 129.5882110595703 109.10099029541016 C 131.1441192626953 110.71001434326172 131.27903747558594 119.43611145019531 129.6760711669922 118.99363708496094 C 129.01512145996094 119.12245178222656 128.32749938964844 117.39735412597656 128.53549194335938 115.48371887207031" stroke-width="1.0" fill="rgb(133, 116, 128)" opacity="0.9700654"/>
    <path d="M 28.431884765625 111.22406768798828 L 28.475738525390625 104.06326293945312 L 35.76385498046875 103.9371566772461 L 35.74684143066406 118.30718994140625 L 28.527267456054688 118.2637939453125 L 28.431884765625 111.22406768798828" stroke-width="1.0" fill="rgb(228, 138, 20)" opacity="0.9978918"/>
    <path d="M 68.3427963256836 111.43412017822266 L 68.42739868164062 104.25363159179688 L 75.89649963378906 104.22509765625 L 75.85698699951172 118.23792266845703 L 68.37574768066406 118.63117218017578 L 68.3427963256836 111.43412017822266" stroke-width="1.0" fill="rgb(227, 128, 21)" opacity="0.99034053"/>
    <path d="M 29.872398376464844 175.95321655273438 C 29.518089294433594 175.4283447265625 35.74180603027344 175.15809631347656 48.05799865722656 175.3194580078125 C 60.033504486083984 175.1762237548828 66.34028625488281 175.54759216308594 65.99334716796875 176.05601501464844 C 65.63047790527344 176.62429809570312 58.75093078613281 177.09396362304688 48.050209045410156 176.83505249023438 C 37.109954833984375 177.06674194335938 30.217666625976562 176.52972412109375 29.872398376464844 175.95321655273438" stroke-width="1.0" fill="rgb(142, 54, 28)" opacity="0.9821789"/>
    <path d="M 29.901199340820312 168.7176971435547 C 29.870460510253906 168.2340545654297 36.28016662597656 167.79757690429688 47.98593521118164 168.003173828125 C 59.685054779052734 167.87380981445312 66.25099182128906 168.16351318359375 66.2419204711914 168.77914428710938 C 66.18226623535156 169.3563690185547 59.55763244628906 169.68795776367188 48.06095504760742 169.593505859375 C 36.554779052734375 169.7087860107422 29.826438903808594 169.48097229003906 29.901199340820312 168.7176971435547" stroke-width="1.0" fill="rgb(134, 44, 28)" opacity="1.0"/>
    <path d="M 72.83647918701172 176.05703735351562 C 72.66380310058594 175.5709228515625 78.56657409667969 175.3011932373047 90.8211898803711 175.32281494140625 C 103.00614166259766 175.2908935546875 109.09261322021484 175.43670654296875 108.76799011230469 176.0797882080078 C 108.0372085571289 177.27883911132812 73.52586364746094 177.29342651367188 72.83647918701172 176.05703735351562" stroke-width="1.0" fill="rgb(140, 53, 30)" opacity="1.0"/>
    <path d="M 72.35159301757812 168.66693115234375 C 72.33251190185547 168.20960998535156 78.96469116210938 167.87948608398438 90.81510162353516 167.8748321533203 C 102.49402618408203 167.80191040039062 109.1579360961914 168.11041259765625 109.08865356445312 168.82969665527344 C 109.05288696289062 169.27618408203125 102.46056365966797 169.54714965820312 90.68635559082031 169.65016174316406 C 78.95545959472656 169.6222686767578 72.36984252929688 169.27914428710938 72.35159301757812 168.66693115234375" stroke-width="1.0" fill="rgb(132, 44, 26)" opacity="1.0"/>
    <path d="M 115.79524993896484 176.0470428466797 C 115.45777893066406 175.56048583984375 121.59166717529297 175.31961059570312 133.655517578125 175.3363800048828 C 145.6934051513672 175.27359008789062 151.8102569580078 175.63621520996094 151.63710021972656 176.12277221679688 C 151.41360473632812 176.57017517089844 144.47622680664062 177.07887268066406 133.65159606933594 176.9566192626953 C 123.08262634277344 176.98004150390625 116.11640167236328 176.59996032714844 115.79524993896484 176.0470428466797" stroke-width="1.0" fill="rgb(139, 54, 30)" opacity="1.0"/>
    <path d="M 115.49456024169922 168.82452392578125 C 115.43218994140625 168.2608184814453 122.00886535644531 167.89141845703125 133.72097778320312 167.7401123046875 C 145.5130615234375 167.7804412841797 152.09243774414062 168.12779235839844 152.11184692382812 168.71347045898438 C 152.09063720703125 169.1490478515625 145.3176727294922 169.6179962158203 133.68896484375 169.67086791992188 C 122.1459732055664 169.58920288085938 115.4344711303711 169.14520263671875 115.49456024169922 168.82452392578125" stroke-width="1.0" fill="rgb(131, 44, 25)" opacity="1.0"/>
    <path d="M 158.36404418945312 176.03073120117188 C 158.34786987304688 175.54818725585938 164.835693359375 175.27957153320312 176.41021728515625 175.38626098632812 C 187.86209106445312 175.3699493408203 194.00357055664062 175.52581787109375 193.63156127929688 176.23898315429688 C 193.32638549804688 176.77703857421875 186.43576049804688 176.949462890625 175.80892944335938 177.01187133789062 C 164.68325805664062 176.91163635253906 158.3807830810547 176.64837646484375 158.36404418945312 176.03073120117188" stroke-width="1.0" fill="rgb(140, 52, 29)" opacity="1.0"/>
    <path d="M 158.07220458984375 168.82835388183594 C 158.0826873779297 168.24105834960938 164.58294677734375 167.87649536132812 176.08908081054688 167.76585388183594 C 187.40023803710938 167.8145751953125 194.1187744140625 168.088623046875 194.00982666015625 168.73312377929688 C 194.0626220703125 169.25257873535156 187.48565673828125 169.5467987060547 176.11007690429688 169.6866455078125 C 164.65719604492188 169.5626220703125 158.0565185546875 169.16403198242188 158.07220458984375 168.82835388183594" stroke-width="1.0" fill="rgb(132, 43, 26)" opacity="1.0"/>
  </g>
</svg>
