<?xml version="1.0" encoding="utf-8"?>
<!-- Generator: Adobe Illustrator 27.0.0, SVG Export Plug-In . SVG Version: 6.00 Build 0)  -->
<svg version="1.1" id="图层_1" xmlns="http://www.w3.org/2000/svg" xmlns:xlink="http://www.w3.org/1999/xlink" x="0px" y="0px"
	 viewBox="0 0 224 224" style="enable-background:new 0 0 224 224;" xml:space="preserve">
<style type="text/css">
	.st0{opacity:0.982;fill:#9A1F21;enable-background:new    ;}
	.st1{fill:#FCD720;}
	.st2{opacity:0.983;fill:#E3E1E6;enable-background:new    ;}
	.st3{opacity:0.9984;fill:#FEFEFD;enable-background:new    ;}
	.st4{opacity:0.9944;fill:#E72930;enable-background:new    ;}
</style>
<g>
	<path class="st0" d="M43.8,171.2c-4.1-4.1-5.9-4.1-6.3-5.9c0.7-1.9,2.4-2.2,6-2c2.8-0.2,15.3-0.4,27.6-0.5l21.5-0.2l0.2-9.4
		c0.3-7,0.4-9.8,0-10.1c-1.4-0.4-12.6-0.3-25.9-0.5c-17.3,0.1-23.9,0.6-25.3,0.1c-1.2-3.4,3.3-24.3,8.5-37.5
		c3.4-9.7,11.1-24.6,14.4-29.4c0.7-1.4,3.9-6.1,6.9-10.7c8.9-13.9,28.2-35.3,31.6-36.6c3.2,0.4,3,1.3,3.4,17.6
		c0.4,7.4,0,13.7,0.1,16.4c1.5-1.9,2.2-9.4,3.3-16.8c0.8-8.2,0.7-15,1.3-17.6c3-0.1,14.6,18.9,22.7,38.4c3.5,7.2,6.9,15.3,8,17.5
		c0.9,2.5,3.9,9.5,6.6,15.5c2.7,6,6,13,6.9,15.6c1,2.8,2.1,4.8,2,4.7c0.2,0.5,3.9,9.2,8.3,19.1c2.4,5.4,7.7,18.2,8.8,20
		c1,2.5,1.1,3.6-1.7,2.7c-4.6,0.9-1.8,2.2,6.2,1.2c7.5,0,5.5,7-3.8,5.1C169.2,168,54.4,170.9,43.8,171.2"/>
	<path class="st1" d="M60,190c-8.1-2.7-15.4-9.4-18.2-16.7c-1.3-2.5-2.1-4.8-2-5.3c0.6-0.5,27.3-0.6,59.3-0.6l58.8,0.1l-2,7.8
		c-1.8,5.5-2.6,7.6-6.2,11.2l-4.3,3.9l-41.6,0C81.2,190.7,61.4,190.5,60,190"/>
	<path class="st2" d="M56.2,194.2c0.2-0.5,0.8-1.6,1.6-2.2c0.5-1,20.8-1.1,44.8-1c42.2,0.3,43.1,0.5,43.1,2.6
		c0.2,2.2-1.1,2.2-44.6,2.3C63.7,195.8,56.6,195.5,56.2,194.2"/>
	<path class="st3" d="M106.9,123.4c-0.1-31.5,0-36.1,2.2-46.2c1.4-6.3,3.3-17.7,4.1-25.7l1.2-13l5.1,7.5c4.5,7.8,16.2,33.8,37.9,84
		c6,13.7,11,25.9,11.4,26.9c1.1,1-6,0.9-30.7,0.7l-31.3,0.2L106.9,123.4"/>
	<path class="st1" d="M97.5,152.6c0-9.8,0.6-10.6,2.6-10.3c1.9-0.4,2.5,0.4,2.4,10.4c0.1,9.9-0.3,10.6-2.4,10.6
		C97.7,163.5,97.5,162.7,97.5,152.6"/>
	<path class="st4" d="M46.1,136.7c0-3.6,4.5-19.3,7.7-28.6c5.4-14.4,10.3-23.9,20.1-38.5c9.9-14.6,25-32.9,27.4-33
		c0.4-0.3,0.9,23,0.9,50.5l-0.1,50.5l-27.9,0.1C52.5,138,45.7,137.7,46.1,136.7"/>
</g>
</svg>
