<?xml version="1.0" ?>
<svg xmlns="http://www.w3.org/2000/svg" version="1.1" width="224" height="224">
  <defs/>
  <g>
    <path d="M 112.14986419677734 31.35991668701172 C 112.14986419677734 31.35991668701172 112.14986419677734 31.35991668701172 112.14986419677734 31.35991668701172 C 108.99656677246094 31.542861938476562 106.1258544921875 32.35139465332031 103.62184143066406 34.36048889160156 C 95.45398712158203 40.91453552246094 97.68604278564453 54.31419372558594 107.55345153808594 57.84888458251953 C 109.02597045898438 58.37647247314453 110.5850601196289 58.64598846435547 112.14986419677734 58.64598846435547 C 113.71466827392578 58.64598846435547 115.27293395996094 58.37647247314453 116.74626922607422 57.84888458251953 C 126.61367797851562 54.31663513183594 128.84573364257812 40.91535186767578 120.67951202392578 34.361305236816406 C 118.1746826171875 32.35057830810547 115.30397033691406 31.542861938476562 112.14986419677734 31.35991668701172 C 112.14986419677734 31.35991668701172 112.14986419677734 31.35991668701172 112.14986419677734 31.35991668701172" stroke-width="0.0" fill="rgb(24, 101, 152)" opacity="1.0"/>
    <path d="M 93.68991088867188 63.85002136230469 C 93.68991088867188 63.85002136230469 93.68991088867188 63.85002136230469 93.68991088867188 63.85002136230469 C 87.92807006835938 64.31553649902344 84.17613220214844 68.06747436523438 83.70979309082031 73.8293228149414 C 83.70979309082031 82.75262451171875 83.70979309082031 91.67510986328125 83.70979309082031 100.5984115600586 C 83.87639617919922 102.23263549804688 84.1173324584961 103.61613464355469 85.07205200195312 105.00534057617188 C 87.85619354248047 109.0570068359375 93.2513427734375 108.99085998535156 96.55082702636719 105.70362854003906 C 96.55082702636719 117.54174041748047 96.55082702636719 129.3806915283203 96.55082702636719 141.2187957763672 C 86.19583892822266 141.96690368652344 75.40882110595703 143.0016632080078 65.56590270996094 146.5093994140625 C 62.068782806396484 147.7548828125 57.019920349121094 149.68475341796875 56.56501770019531 153.94467163085938 C 56.56501770019531 159.9074249267578 56.56501770019531 165.87017822265625 56.56501770019531 171.8329315185547 C 47.96104431152344 171.8329315185547 39.35707092285156 171.8329315185547 30.753101348876953 171.8329315185547 C 30.44438934326172 172.14163208007812 29.827774047851562 172.3221435546875 29.827774047851562 172.7582550048828 C 29.827774047851562 173.19436645507812 30.44438934326172 173.37649536132812 30.753101348876953 173.68521118164062 C 39.356258392333984 173.68521118164062 47.958595275878906 173.68521118164062 56.56175231933594 173.68521118164062 C 56.56175231933594 174.1907501220703 56.56175231933594 174.6954803466797 56.56175231933594 175.2001953125 C 56.80513000488281 177.89532470703125 58.976741790771484 179.54342651367188 61.20879364013672 180.76358032226562 C 65.98487854003906 183.37539672851562 71.57439422607422 184.58004760742188 76.87561798095703 185.56906127929688 C 98.59095001220703 189.6207275390625 121.93887329101562 189.610107421875 143.7383270263672 186.19793701171875 C 149.91505432128906 185.2317657470703 156.38824462890625 184.03529357910156 162.0626983642578 181.2919921875 C 164.62796020507812 180.05223083496094 167.4611053466797 178.2906036376953 167.74041748046875 175.2001953125 C 167.74041748046875 174.6954803466797 167.74041748046875 174.1907501220703 167.74041748046875 173.68521118164062 C 176.3435821533203 173.68521118164062 184.9459228515625 173.68521118164062 193.549072265625 173.68521118164062 C 193.8577880859375 173.3773193359375 194.47439575195312 173.1968231201172 194.47439575195312 172.7615203857422 C 194.47439575195312 172.32540893554688 193.8577880859375 172.14491271972656 193.549072265625 171.83619689941406 C 184.9459228515625 171.8353729248047 176.3435821533203 171.83456420898438 167.74041748046875 171.8329315185547 C 167.74041748046875 165.87017822265625 167.74041748046875 159.9074249267578 167.74041748046875 153.94467163085938 C 167.2863311767578 149.68392944335938 162.23828125 147.75323486328125 158.7403564453125 146.5069580078125 C 148.89662170410156 142.99839782714844 138.10960388183594 141.96527099609375 127.75462341308594 141.2187957763672 C 127.75462341308594 129.37905883789062 127.75462341308594 117.54010772705078 127.75462341308594 105.70036315917969 C 131.05245971679688 108.98513793945312 136.45086669921875 109.05455780029297 139.23338317871094 105.00452423095703 C 140.1881103515625 103.614501953125 140.42904663085938 102.23018646240234 140.59564208984375 100.59513854980469 C 140.59564208984375 91.67347717285156 140.59564208984375 82.75180053710938 140.59564208984375 73.8293228149414 C 140.12930297851562 68.06747436523438 136.37738037109375 64.31553649902344 130.6155242919922 63.85002136230469 C 118.30699157714844 63.85002136230469 105.99845123291016 63.85002136230469 93.68991088867188 63.85002136230469" stroke-width="0.0" fill="rgb(20, 99, 150)" opacity="1.0"/>
    <path d="M 35.60921859741211 54.599220275878906 C 35.60921859741211 54.599220275878906 35.60921859741211 54.599220275878906 35.60921859741211 54.599220275878906 C 35.76847457885742 57.91992950439453 36.48472595214844 61.00543975830078 38.272491455078125 63.85328674316406 C 45.73552703857422 75.74122619628906 64.12442016601562 74.0767822265625 69.30232238769531 61.01605987548828 C 70.11004638671875 58.977561950683594 70.52410888671875 56.79206848144531 70.52410888671875 54.599220275878906 C 70.52493286132812 52.40636444091797 70.11004638671875 50.22168731689453 69.30232238769531 48.18238067626953 C 64.12687683105469 35.12083435058594 45.732261657714844 33.45557403564453 38.270042419433594 45.34515380859375 C 36.48309326171875 48.1929931640625 35.76765823364258 51.27850341796875 35.60921859741211 54.599220275878906 C 35.60921859741211 54.599220275878906 35.60921859741211 54.599220275878906 35.60921859741211 54.599220275878906" stroke-width="0.0" fill="rgb(24, 101, 152)" opacity="1.0"/>
    <path d="M 124.86920166015625 45.00458526611328 C 124.86920166015625 45.00458526611328 124.86920166015625 45.00458526611328 124.86920166015625 45.00458526611328 C 124.67237854003906 48.17176055908203 123.80748748779297 51.0318603515625 121.65873718261719 53.44929504394531 C 114.05522918701172 62.00263214111328 99.43378448486328 56.44905090332031 99.43378448486328 45.00458526611328 C 99.43378448486328 33.559303283691406 114.05359649658203 28.0 121.65873718261719 36.556602478027344 C 123.80830383300781 38.97486114501953 124.67237854003906 41.83659362792969 124.86920166015625 45.00458526611328 C 124.86920166015625 45.00458526611328 124.86920166015625 45.00458526611328 124.86920166015625 45.00458526611328" stroke-width="0.0" fill="rgb(19, 98, 149)" opacity="1.0"/>
    <path d="M 93.68991088867188 64.77452850341797 C 93.68991088867188 64.77452850341797 93.68991088867188 64.77452850341797 93.68991088867188 64.77452850341797 C 88.4238052368164 65.24658203125 85.10391235351562 68.5624008178711 84.63185119628906 73.8293228149414 C 84.63185119628906 82.75262451171875 84.63185119628906 91.67510986328125 84.63185119628906 100.5984115600586 C 84.82622528076172 102.25468444824219 85.09574127197266 103.63328552246094 86.19747161865234 104.9620590209961 C 88.658203125 107.93159484863281 93.27257537841797 107.97732543945312 95.83457946777344 105.10824584960938 C 96.98204040527344 103.82357788085938 97.26216888427734 102.48826599121094 97.46880340576172 100.84097290039062 C 97.46880340576172 116.91941833496094 97.46880340576172 132.99786376953125 97.46880340576172 149.0754852294922 C 97.53086853027344 151.12948608398438 97.95065307617188 153.06997680664062 99.44031524658203 154.58905029296875 C 102.35758972167969 157.56430053710938 107.80500030517578 157.2523193359375 110.47807312011719 154.1088409423828 C 111.71701049804688 152.65182495117188 111.94813537597656 151.13438415527344 112.14986419677734 149.3017120361328 C 112.14986419677734 149.3017120361328 112.14986419677734 149.3017120361328 112.14986419677734 149.3017120361328 C 112.35076904296875 151.13357543945312 112.58271789550781 152.65182495117188 113.82083129882812 154.1088409423828 C 116.49391174316406 157.2523193359375 121.94050598144531 157.56349182128906 124.8577651977539 154.58905029296875 C 126.34742736816406 153.07080078125 126.76966857910156 151.12948608398438 126.83010864257812 149.0754852294922 C 126.83010864257812 132.99786376953125 126.83010864257812 116.91941833496094 126.83010864257812 100.84097290039062 C 127.0367431640625 102.48907470703125 127.31686401367188 103.82438659667969 128.46434020996094 105.10906219482422 C 131.02633666992188 107.97895812988281 135.6415252685547 107.93077850341797 138.10142517089844 104.9620590209961 C 139.20315551757812 103.63328552246094 139.47349548339844 102.25468444824219 139.66786193847656 100.5984115600586 C 139.66786193847656 91.67510986328125 139.66786193847656 82.75262451171875 139.66786193847656 73.8293228149414 C 139.19581604003906 68.56158447265625 135.87591552734375 65.24658203125 130.60899353027344 64.77452850341797 C 118.30290222167969 64.77452850341797 105.9959945678711 64.77452850341797 93.68991088867188 64.77452850341797" stroke-width="0.0" fill="rgb(19, 98, 149)" opacity="1.0"/>
    <path d="M 57.48299026489258 153.94793701171875 C 57.48299026489258 161.0320281982422 57.48299026489258 168.11611938476562 57.48299026489258 175.2001953125 C 57.718204498291016 177.55557250976562 59.84653091430664 178.96438598632812 61.77885437011719 179.99424743652344 C 66.42181396484375 182.46722412109375 71.80307006835938 183.64573669433594 76.92788696289062 184.61923217773438 C 87.68632507324219 186.6626434326172 98.71100616455078 187.39195251464844 109.64747619628906 187.50221252441406 C 121.00782775878906 187.6173553466797 132.44577026367188 187.05056762695312 143.67544555664062 185.26197814941406 C 149.70188903808594 184.3023681640625 155.99703979492188 183.1132354736328 161.55226135253906 180.4793701171875 C 163.77041625976562 179.42745971679688 166.54559326171875 177.90838623046875 166.81591796875 175.2001953125 C 166.81591796875 168.11611938476562 166.81591796875 161.0320281982422 166.81591796875 153.94793701171875 C 166.5806884765625 156.30331420898438 164.45236206054688 157.71212768554688 162.52005004882812 158.7419891357422 C 157.87709045410156 161.2149658203125 152.49581909179688 162.3934783935547 147.3710174560547 163.3669891357422 C 136.61257934570312 165.41036987304688 125.58871459960938 166.13967895507812 114.6522445678711 166.24993896484375 C 103.2918930053711 166.36509704589844 91.85396575927734 165.79830932617188 80.62347412109375 164.00973510742188 C 74.59701538085938 163.05010986328125 68.30186462402344 161.86097717285156 62.74664306640625 159.22711181640625 C 60.528480529785156 158.17518615722656 57.75332260131836 156.6561279296875 57.48299026489258 153.94793701171875 C 57.48299026489258 153.94793701171875 57.48299026489258 153.94793701171875 57.48299026489258 153.94793701171875" stroke-width="0.0" fill="rgb(19, 98, 150)" opacity="1.0"/>
    <path d="M 166.81591796875 178.5797119140625 C 166.81591796875 178.5797119140625 166.81591796875 178.5797119140625 166.81591796875 178.5797119140625 C 166.5072021484375 178.888427734375 165.8914031982422 179.0689239501953 165.8914031982422 179.50503540039062 C 165.8914031982422 179.9403533935547 166.5072021484375 180.1216583251953 166.81591796875 180.42955017089844 C 167.894775390625 180.42955017089844 168.97364807128906 180.42955017089844 170.05252075195312 180.42955017089844 C 170.36041259765625 180.1216583251953 170.97702026367188 179.941162109375 170.97702026367188 179.50503540039062 C 170.97702026367188 179.0689239501953 170.36041259765625 178.888427734375 170.05252075195312 178.5797119140625 C 168.97364807128906 178.5797119140625 167.894775390625 178.5797119140625 166.81591796875 178.5797119140625" stroke-width="0.0" fill="rgb(20, 99, 150)" opacity="1.0"/>
    <path d="M 69.59715270996094 54.599220275878906 C 69.59715270996094 54.599220275878906 69.59715270996094 54.599220275878906 69.59715270996094 54.599220275878906 C 69.4281005859375 57.94280242919922 68.67101287841797 61.03157043457031 66.77381134033203 63.841033935546875 C 59.56966781616211 74.51045227050781 42.85011291503906 72.90154266357422 37.836368560791016 61.033203125 C 36.9780158996582 59.001251220703125 36.53699493408203 56.805137634277344 36.53699493408203 54.599220275878906 C 36.53699493408203 52.39411926269531 36.9780158996582 50.19718933105469 37.836368560791016 48.16522216796875 C 42.84929656982422 36.29689025878906 59.56966781616211 34.68798065185547 66.77381134033203 45.357398986816406 C 68.67101287841797 48.16685485839844 69.4281005859375 51.25645446777344 69.59715270996094 54.599220275878906 C 69.59715270996094 54.599220275878906 69.59715270996094 54.599220275878906 69.59715270996094 54.599220275878906" stroke-width="0.0" fill="rgb(19, 98, 149)" opacity="1.0"/>
    <path d="M 112.14986419677734 33.209754943847656 C 112.14986419677734 33.209754943847656 112.14986419677734 33.209754943847656 112.14986419677734 33.209754943847656 C 116.3722152709961 33.494781494140625 120.1274185180664 35.291526794433594 122.33171081542969 39.054901123046875 C 126.85297393798828 46.771934509277344 121.0788803100586 56.79615020751953 112.14986419677734 56.79615020751953 C 103.21920776367188 56.79615020751953 97.44756317138672 46.77519989013672 101.96883392333984 39.057350158691406 C 104.17393493652344 35.293983459472656 107.92750549316406 33.494781494140625 112.14986419677734 33.209754943847656 C 112.14986419677734 33.209754943847656 112.14986419677734 33.209754943847656 112.14986419677734 33.209754943847656" stroke-width="0.0" fill="rgb(243, 165, 113)" opacity="1.0"/>
    <path d="M 93.68991088867188 65.6982192993164 C 105.99845123291016 65.6982192993164 118.30699157714844 65.6982192993164 130.6155242919922 65.6982192993164 C 135.3769073486328 66.18006896972656 138.2647705078125 69.06875610351562 138.7466278076172 73.8293228149414 C 138.7466278076172 82.75262451171875 138.7466278076172 91.67510986328125 138.7466278076172 100.5984115600586 C 138.5040740966797 102.3216552734375 138.19943237304688 103.73373413085938 136.83636474609375 104.95879364013672 C 134.35357666015625 107.189208984375 130.40155029296875 106.56361389160156 128.62033081054688 103.78028869628906 C 127.86650085449219 102.60260009765625 127.95226287841797 102.18199920654297 127.75788879394531 100.83770751953125 C 127.75706481933594 93.97576904296875 127.75625610351562 87.11381530761719 127.75462341308594 80.25106048583984 C 127.44671630859375 79.94316101074219 127.26622009277344 79.3273696899414 126.83010864257812 79.3273696899414 C 126.39398956298828 79.3273696899414 126.21349334716797 79.94316101074219 125.90559387207031 80.25106048583984 C 125.90559387207031 103.19308471679688 125.90559387207031 126.13428497314453 125.90559387207031 149.0754852294922 C 125.8647689819336 150.5733184814453 125.65731811523438 151.99928283691406 124.7761001586914 153.2643585205078 C 122.50892639160156 156.51974487304688 117.1595230102539 156.46664428710938 114.61548614501953 153.600830078125 C 113.46965026855469 152.31126403808594 113.26547241210938 150.9539031982422 113.08008575439453 149.3049774169922 C 113.07926940917969 135.7762908935547 113.07845306396484 122.24840545654297 113.07682037353516 108.71971130371094 C 112.7689208984375 108.41181945800781 112.58843231201172 107.7960205078125 112.15312194824219 107.7960205078125 C 111.71701049804688 107.7960205078125 111.53651428222656 108.41181945800781 111.22862243652344 108.71971130371094 C 111.22862243652344 122.24677276611328 111.22862243652344 135.774658203125 111.22862243652344 149.3017120361328 C 111.04241180419922 150.95144653320312 110.83905029296875 152.30963134765625 109.69239807128906 153.6000213623047 C 107.14755249023438 156.46664428710938 101.79895782470703 156.51075744628906 99.53097534179688 153.25865173339844 C 98.64974975585938 151.99356079101562 98.4439468383789 150.57005310058594 98.40310668945312 149.0722198486328 C 98.40147399902344 126.1318359375 98.3990249633789 103.19144439697266 98.39656829833984 80.25106048583984 C 98.08867645263672 79.94316101074219 97.9081802368164 79.3273696899414 97.47206115722656 79.3273696899414 C 97.03594207763672 79.3273696899414 96.85545349121094 79.94316101074219 96.54755401611328 80.25106048583984 C 96.54755401611328 87.11463928222656 96.54755401611328 93.97740173339844 96.54755401611328 100.84097290039062 C 96.35317993164062 102.18445587158203 96.43893432617188 102.606689453125 95.68592834472656 103.78356170654297 C 93.90552520751953 106.56443786621094 89.94940948486328 107.19002532958984 87.46907806396484 104.96124267578125 C 86.10600280761719 103.73699951171875 85.8013687133789 102.32492065429688 85.5588150024414 100.60167694091797 C 85.5588150024414 91.67755889892578 85.5588150024414 82.7534408569336 85.5588150024414 73.8293228149414 C 86.04066467285156 69.06875610351562 88.92852783203125 66.18006896972656 93.68991088867188 65.6982192993164 C 93.68991088867188 65.6982192993164 93.68991088867188 65.6982192993164 93.68991088867188 65.6982192993164" stroke-width="0.0" fill="rgb(243, 165, 113)" opacity="1.0"/>
    <path d="M 126.83010864257812 142.0836944580078 C 126.83010864257812 144.4129180908203 126.83010864257812 146.74298095703125 126.83010864257812 149.0722198486328 C 126.76966857910156 151.12704467773438 126.34825134277344 153.068359375 124.8593978881836 154.58741760253906 C 121.942138671875 157.56349182128906 116.49472045898438 157.2523193359375 113.8216552734375 154.1088409423828 C 112.58271789550781 152.65182495117188 112.35159301757812 151.13438415527344 112.14986419677734 149.3017120361328 C 112.14986419677734 149.3017120361328 112.14986419677734 149.3017120361328 112.14986419677734 149.3017120361328 C 111.9489517211914 151.13357543945312 111.71701049804688 152.65182495117188 110.47888946533203 154.1088409423828 C 107.80581665039062 157.2523193359375 102.35922241210938 157.56349182128906 99.44195556640625 154.58905029296875 C 97.95228576660156 153.07080078125 97.53086853027344 151.12948608398438 97.46880340576172 149.0754852294922 C 97.46880340576172 146.74542236328125 97.46880340576172 144.4161834716797 97.46880340576172 142.0861358642578 C 91.94298553466797 142.465087890625 86.43186950683594 142.97879028320312 80.95832061767578 143.83633422851562 C 78.93698120117188 144.15321350097656 76.92216491699219 144.5142059326172 74.9188003540039 144.93397521972656 C 73.7125244140625 145.18634033203125 72.49971771240234 145.46401977539062 71.30488586425781 145.76620483398438 C 70.21703338623047 146.0414276123047 69.12265014648438 146.34280395507812 68.0503158569336 146.67193603515625 C 67.08987426757812 146.9667510986328 66.12126159667969 147.29180908203125 65.18123626708984 147.64625549316406 C 61.870323181152344 148.89498901367188 54.50202178955078 152.39947509765625 58.84933853149414 156.6994171142578 C 59.46023178100586 157.30377197265625 60.16994857788086 157.80523681640625 60.90334701538086 158.2487030029297 C 62.180667877197266 159.02130126953125 63.55518341064453 159.6322021484375 64.94602966308594 160.16714477539062 C 67.20258331298828 161.03529357910156 69.53427124023438 161.70498657226562 71.88066101074219 162.27993774414062 C 88.08568572998047 166.2540283203125 105.38101959228516 166.7456817626953 121.97561645507812 166.06781005859375 C 133.9917755126953 165.5769805908203 146.683349609375 164.61328125 158.1237335205078 160.6171417236328 C 159.62646484375 160.0919952392578 161.11288452148438 159.49417114257812 162.5192413330078 158.74525451660156 C 163.34085083007812 158.3074951171875 164.14202880859375 157.81585693359375 164.86236572265625 157.22537231445312 C 165.2486572265625 156.90931701660156 165.62106323242188 156.5548553466797 165.9346923828125 156.165283203125 C 168.992431640625 152.36761474609375 163.24774169921875 149.35643005371094 160.39743041992188 148.1542510986328 C 159.52764892578125 147.78753662109375 158.62600708007812 147.45188903808594 157.73171997070312 147.14805603027344 C 156.7247314453125 146.8066864013672 155.69158935546875 146.49305725097656 154.6666259765625 146.2072296142578 C 150.94898986816406 145.17245483398438 147.1505126953125 144.43089294433594 143.3397674560547 143.83387756347656 C 137.8654022216797 142.97552490234375 132.3551025390625 142.46263122558594 126.83010864257812 142.0836944580078 C 126.83010864257812 142.0836944580078 126.83010864257812 142.0836944580078 126.83010864257812 142.0836944580078" stroke-width="0.0" fill="rgb(19, 98, 150)" opacity="1.0"/>
    <path d="M 58.411582946777344 157.56349182128906 C 58.411582946777344 157.56349182128906 58.411582946777344 157.56349182128906 58.411582946777344 157.56349182128906 C 64.6242446899414 162.81570434570312 74.34546661376953 164.02932739257812 82.09598541259766 165.17515563964844 C 101.23380279541016 168.00668334960938 121.25529479980469 167.9927978515625 140.42086791992188 165.4291534423828 C 145.9858856201172 164.68515014648438 151.5509033203125 163.6912078857422 156.9182891845703 162.01779174804688 C 160.078125 161.03366088867188 163.27877807617188 159.7979736328125 165.82688903808594 157.63046264648438 C 165.8538360595703 163.48703002929688 165.87997436523438 169.34361267089844 165.90692138671875 175.2001953125 C 165.65701293945312 177.30075073242188 163.44210815429688 178.5102996826172 161.73193359375 179.36538696289062 C 157.04568481445312 181.70770263671875 151.71261596679688 182.85353088378906 146.59922790527344 183.8033447265625 C 125.43354797363281 187.73414611816406 102.72102355957031 187.74557495117188 81.47283935546875 184.44528198242188 C 75.4251480102539 183.50607299804688 69.14551544189453 182.3349151611328 63.52496337890625 179.8145751953125 C 61.570594787597656 178.93824768066406 58.692527770996094 177.6192626953125 58.411582946777344 175.2001953125 C 58.411582946777344 169.32156372070312 58.411582946777344 163.44293212890625 58.411582946777344 157.56349182128906" stroke-width="0.0" fill="rgb(54, 145, 206)" opacity="1.0"/>
    <path d="M 176.8058319091797 178.5797119140625 C 176.8058319091797 178.5797119140625 176.8058319091797 178.5797119140625 176.8058319091797 178.5797119140625 C 176.4979248046875 178.888427734375 175.88131713867188 179.0689239501953 175.88131713867188 179.50503540039062 C 175.88131713867188 179.941162109375 176.4979248046875 180.1216583251953 176.8058319091797 180.42955017089844 C 179.0574951171875 180.42955017089844 181.30831909179688 180.42955017089844 183.55914306640625 180.42955017089844 C 183.86785888671875 180.1216583251953 184.48446655273438 179.941162109375 184.48446655273438 179.50503540039062 C 184.48446655273438 179.0689239501953 183.86785888671875 178.888427734375 183.55914306640625 178.5797119140625 C 181.30831909179688 178.5797119140625 179.0574951171875 178.5797119140625 176.8058319091797 178.5797119140625" stroke-width="0.0" fill="rgb(20, 99, 150)" opacity="1.0"/>
    <path d="M 190.31329345703125 178.5772705078125 C 190.31329345703125 178.5772705078125 190.31329345703125 178.5772705078125 190.31329345703125 178.5772705078125 C 190.00540161132812 178.88516235351562 189.38877868652344 179.06565856933594 189.38877868652344 179.50177001953125 C 189.38877868652344 179.93789672851562 190.00540161132812 180.11839294433594 190.31329345703125 180.42628479003906 C 191.39215087890625 180.42628479003906 192.47019958496094 180.42628479003906 193.549072265625 180.42628479003906 C 193.8577880859375 180.11839294433594 194.47439575195312 179.93789672851562 194.47439575195312 179.50177001953125 C 194.47439575195312 179.06565856933594 193.8577880859375 178.88516235351562 193.549072265625 178.5772705078125 C 192.47019958496094 178.5772705078125 191.39215087890625 178.5772705078125 190.31329345703125 178.5772705078125" stroke-width="0.0" fill="rgb(84, 141, 179)" opacity="1.0"/>
    <path d="M 30.753101348876953 178.5797119140625 C 30.753101348876953 178.5797119140625 30.753101348876953 178.5797119140625 30.753101348876953 178.5797119140625 C 30.44438934326172 178.888427734375 29.827774047851562 179.0689239501953 29.827774047851562 179.50503540039062 C 29.827774047851562 179.941162109375 30.44438934326172 180.1216583251953 30.753101348876953 180.42955017089844 C 31.831966400146484 180.42955017089844 32.910831451416016 180.42955017089844 33.98970031738281 180.42955017089844 C 34.2975959777832 180.1216583251953 34.914207458496094 179.941162109375 34.914207458496094 179.50503540039062 C 34.914207458496094 179.0689239501953 34.2975959777832 178.888427734375 33.98970031738281 178.5797119140625 C 32.910831451416016 178.5797119140625 31.831966400146484 178.5797119140625 30.753101348876953 178.5797119140625" stroke-width="0.0" fill="rgb(19, 98, 150)" opacity="1.0"/>
    <path d="M 40.743019104003906 178.5772705078125 C 40.743019104003906 178.5772705078125 40.743019104003906 178.5772705078125 40.743019104003906 178.5772705078125 C 40.434303283691406 178.88516235351562 39.817691802978516 179.06565856933594 39.817691802978516 179.50177001953125 C 39.817691802978516 179.93789672851562 40.434303283691406 180.11839294433594 40.743019104003906 180.42628479003906 C 42.99385452270508 180.42628479003906 45.245506286621094 180.42628479003906 47.497154235839844 180.42628479003906 C 47.8050537109375 180.11839294433594 48.42084884643555 179.9370880126953 48.42084884643555 179.50177001953125 C 48.42084884643555 179.06565856933594 47.8050537109375 178.88516235351562 47.497154235839844 178.5772705078125 C 45.245506286621094 178.5772705078125 42.99385452270508 178.5772705078125 40.743019104003906 178.5772705078125" stroke-width="0.0" fill="rgb(21, 99, 151)" opacity="1.0"/>
    <path d="M 54.24966049194336 178.5797119140625 C 54.24966049194336 178.5797119140625 54.24966049194336 178.5797119140625 54.24966049194336 178.5797119140625 C 53.94176483154297 178.888427734375 53.32515335083008 179.0689239501953 53.32515335083008 179.50503540039062 C 53.32515335083008 179.941162109375 53.94176483154297 180.1216583251953 54.24966049194336 180.42955017089844 C 55.32852554321289 180.42955017089844 56.40739059448242 180.42955017089844 57.48625946044922 180.42955017089844 C 57.79497146606445 180.1216583251953 58.411582946777344 179.941162109375 58.411582946777344 179.50503540039062 C 58.411582946777344 179.0689239501953 57.79497146606445 178.888427734375 57.48625946044922 178.5797119140625 C 56.40739059448242 178.5797119140625 55.32852554321289 178.5797119140625 54.24966049194336 178.5797119140625" stroke-width="0.0" fill="rgb(20, 98, 150)" opacity="1.0"/>
    <path d="M 155.77980041503906 186.58995056152344 C 155.77980041503906 186.58995056152344 155.77980041503906 186.58995056152344 155.77980041503906 186.58995056152344 C 155.47190856933594 186.89865112304688 154.85528564453125 187.07916259765625 154.85528564453125 187.51527404785156 C 154.85528564453125 187.95138549804688 155.47190856933594 188.1318817138672 155.77980041503906 188.43978881835938 C 157.3209228515625 188.43978881835938 158.86204528808594 188.43978881835938 160.40316772460938 188.43978881835938 C 160.71188354492188 188.1318817138672 161.32847595214844 187.95138549804688 161.32847595214844 187.51527404785156 C 161.32847595214844 187.07916259765625 160.71188354492188 186.89865112304688 160.40316772460938 186.58995056152344 C 158.86204528808594 186.58995056152344 157.3209228515625 186.58995056152344 155.77980041503906 186.58995056152344" stroke-width="0.0" fill="rgb(19, 98, 150)" opacity="1.0"/>
    <path d="M 169.91204833984375 186.58995056152344 C 169.91204833984375 186.58995056152344 169.91204833984375 186.58995056152344 169.91204833984375 186.58995056152344 C 169.60333251953125 186.89865112304688 168.98753356933594 187.07916259765625 168.98753356933594 187.51527404785156 C 168.98753356933594 187.95057678222656 169.60333251953125 188.1318817138672 169.91204833984375 188.43978881835938 C 173.0816650390625 188.43978881835938 176.25128173828125 188.43978881835938 179.42091369628906 188.43978881835938 C 179.72882080078125 188.1318817138672 180.34542846679688 187.95138549804688 180.34542846679688 187.51527404785156 C 180.34542846679688 187.07916259765625 179.72882080078125 186.89865112304688 179.42091369628906 186.58995056152344 C 176.25128173828125 186.58995056152344 173.0816650390625 186.58995056152344 169.91204833984375 186.58995056152344" stroke-width="0.0" fill="rgb(19, 97, 150)" opacity="1.0"/>
    <path d="M 188.92572021484375 186.58995056152344 C 188.92572021484375 186.58995056152344 188.92572021484375 186.58995056152344 188.92572021484375 186.58995056152344 C 188.61781311035156 186.89865112304688 188.00201416015625 187.07916259765625 188.00201416015625 187.51527404785156 C 188.00201416015625 187.95057678222656 188.61781311035156 188.1318817138672 188.92572021484375 188.43978881835938 C 190.46682739257812 188.43978881835938 192.00794982910156 188.43978881835938 193.549072265625 188.43978881835938 C 193.8577880859375 188.1318817138672 194.47439575195312 187.95138549804688 194.47439575195312 187.51527404785156 C 194.47439575195312 187.07916259765625 193.8577880859375 186.89865112304688 193.549072265625 186.58995056152344 C 192.00794982910156 186.58995056152344 190.46682739257812 186.58995056152344 188.92572021484375 186.58995056152344" stroke-width="0.0" fill="rgb(82, 140, 178)" opacity="1.0"/>
    <path d="M 30.753101348876953 186.58995056152344 C 30.753101348876953 186.58995056152344 30.753101348876953 186.58995056152344 30.753101348876953 186.58995056152344 C 30.44438934326172 186.89865112304688 29.827774047851562 187.07916259765625 29.827774047851562 187.51527404785156 C 29.827774047851562 187.95138549804688 30.44438934326172 188.1318817138672 30.753101348876953 188.43978881835938 C 32.294219970703125 188.43978881835938 33.83534240722656 188.43978881835938 35.376461029052734 188.43978881835938 C 35.684356689453125 188.1318817138672 36.300968170166016 187.95138549804688 36.300968170166016 187.51527404785156 C 36.300968170166016 187.07916259765625 35.684356689453125 186.89865112304688 35.376461029052734 186.58995056152344 C 33.83534240722656 186.58995056152344 32.294219970703125 186.58995056152344 30.753101348876953 186.58995056152344" stroke-width="0.0" fill="rgb(19, 98, 150)" opacity="1.0"/>
    <path d="M 44.884521484375 186.58995056152344 C 44.884521484375 186.58995056152344 44.884521484375 186.58995056152344 44.884521484375 186.58995056152344 C 44.57662582397461 186.89865112304688 43.96083068847656 187.07916259765625 43.96083068847656 187.51527404785156 C 43.96083068847656 187.95057678222656 44.57662582397461 188.1318817138672 44.884521484375 188.43978881835938 C 48.05414962768555 188.43978881835938 51.22377395629883 188.43978881835938 54.393402099609375 188.43978881835938 C 54.702117919921875 188.1318817138672 55.3187255859375 187.95138549804688 55.3187255859375 187.51527404785156 C 55.3187255859375 187.07916259765625 54.702117919921875 186.89865112304688 54.393402099609375 186.58995056152344 C 51.22377395629883 186.58995056152344 48.05414962768555 186.58995056152344 44.884521484375 186.58995056152344" stroke-width="0.0" fill="rgb(19, 98, 150)" opacity="1.0"/>
    <path d="M 63.89901351928711 186.58995056152344 C 63.89901351928711 186.58995056152344 63.89901351928711 186.58995056152344 63.89901351928711 186.58995056152344 C 63.590301513671875 186.89865112304688 62.97368621826172 187.07916259765625 62.97368621826172 187.51527404785156 C 62.97368621826172 187.95138549804688 63.590301513671875 188.1318817138672 63.89901351928711 188.43978881835938 C 65.44013214111328 188.43978881835938 66.98125457763672 188.43978881835938 68.52237701416016 188.43978881835938 C 68.83026885986328 188.1318817138672 69.44688415527344 187.95138549804688 69.44688415527344 187.51527404785156 C 69.44688415527344 187.07916259765625 68.83026885986328 186.89865112304688 68.52237701416016 186.58995056152344 C 66.98125457763672 186.58995056152344 65.44013214111328 186.58995056152344 63.89901351928711 186.58995056152344" stroke-width="0.0" fill="rgb(18, 98, 150)" opacity="1.0"/>
    <path d="M 30.753101348876953 194.14772033691406 C 30.753101348876953 194.14772033691406 30.753101348876953 194.14772033691406 30.753101348876953 194.14772033691406 C 30.44438934326172 194.45724487304688 29.827774047851562 194.6385498046875 29.827774047851562 195.07550048828125 C 29.827774047851562 195.51161193847656 30.44438934326172 195.6912841796875 30.753101348876953 196.0 C 31.831966400146484 196.0 32.910831451416016 196.0 33.98970031738281 196.0 C 34.2975959777832 195.6912841796875 34.914207458496094 195.51161193847656 34.914207458496094 195.07550048828125 C 34.914207458496094 194.6385498046875 34.2975959777832 194.45724487304688 33.98970031738281 194.14772033691406 C 32.910831451416016 194.14772033691406 31.831966400146484 194.14772033691406 30.753101348876953 194.14772033691406" stroke-width="0.0" fill="rgb(19, 98, 150)" opacity="1.0"/>
    <path d="M 40.242374420166016 194.14772033691406 C 40.242374420166016 194.14772033691406 40.242374420166016 194.14772033691406 40.242374420166016 194.14772033691406 C 39.934478759765625 194.45562744140625 39.31787109375 194.6361083984375 39.31787109375 195.07223510742188 C 39.31787109375 195.5083465576172 39.934478759765625 195.68801879882812 40.242374420166016 195.99673461914062 C 42.326602935791016 195.99673461914062 44.41083526611328 195.99673461914062 46.49506378173828 195.99673461914062 C 46.803775787353516 195.68801879882812 47.420387268066406 195.5083465576172 47.420387268066406 195.07223510742188 C 47.420387268066406 194.6361083984375 46.803775787353516 194.45562744140625 46.49506378173828 194.14772033691406 C 44.41083526611328 194.14772033691406 42.326602935791016 194.14772033691406 40.242374420166016 194.14772033691406" stroke-width="0.0" fill="rgb(19, 98, 150)" opacity="1.0"/>
    <path d="M 140.2893829345703 194.14772033691406 C 140.2893829345703 194.14772033691406 140.2893829345703 194.14772033691406 140.2893829345703 194.14772033691406 C 139.98147583007812 194.45562744140625 139.36488342285156 194.63693237304688 139.36488342285156 195.07223510742188 C 139.36488342285156 195.5083465576172 139.98147583007812 195.68801879882812 140.2893829345703 195.99673461914062 C 142.3736114501953 195.99673461914062 144.4586639404297 195.99673461914062 146.54287719726562 195.99673461914062 C 146.8507843017578 195.68801879882812 147.46658325195312 195.5083465576172 147.46658325195312 195.07223510742188 C 147.46658325195312 194.63693237304688 146.8507843017578 194.45562744140625 146.54287719726562 194.14772033691406 C 144.4586639404297 194.14772033691406 142.3736114501953 194.14772033691406 140.2893829345703 194.14772033691406" stroke-width="0.0" fill="rgb(19, 98, 150)" opacity="1.0"/>
    <path d="M 65.25392150878906 194.14772033691406 C 65.25392150878906 194.14772033691406 65.25392150878906 194.14772033691406 65.25392150878906 194.14772033691406 C 64.94602966308594 194.45562744140625 64.32941436767578 194.63693237304688 64.32941436767578 195.07223510742188 C 64.32941436767578 195.5083465576172 64.94602966308594 195.68801879882812 65.25392150878906 195.99673461914062 C 67.33815002441406 195.99673461914062 69.42237854003906 195.99673461914062 71.5074234008789 195.99673461914062 C 71.81532287597656 195.68801879882812 72.43112182617188 195.5083465576172 72.43112182617188 195.07223510742188 C 72.43112182617188 194.63693237304688 71.81532287597656 194.45562744140625 71.5074234008789 194.14772033691406 C 69.42237854003906 194.14772033691406 67.33815002441406 194.14772033691406 65.25392150878906 194.14772033691406" stroke-width="0.0" fill="rgb(19, 98, 150)" opacity="1.0"/>
    <path d="M 152.79556274414062 194.14772033691406 C 152.79556274414062 194.14772033691406 152.79556274414062 194.14772033691406 152.79556274414062 194.14772033691406 C 152.4876708984375 194.45562744140625 151.8710479736328 194.6361083984375 151.8710479736328 195.07223510742188 C 151.8710479736328 195.5083465576172 152.4876708984375 195.68801879882812 152.79556274414062 195.99673461914062 C 154.87979125976562 195.99673461914062 156.96401977539062 195.99673461914062 159.04824829101562 195.99673461914062 C 159.35696411132812 195.68801879882812 159.97357177734375 195.5083465576172 159.97357177734375 195.07223510742188 C 159.97357177734375 194.6361083984375 159.35696411132812 194.45562744140625 159.04824829101562 194.14772033691406 C 156.96401977539062 194.14772033691406 154.87979125976562 194.14772033691406 152.79556274414062 194.14772033691406" stroke-width="0.0" fill="rgb(146, 183, 206)" opacity="1.0"/>
    <path d="M 165.30093383789062 194.14772033691406 C 165.30093383789062 194.14772033691406 165.30093383789062 194.14772033691406 165.30093383789062 194.14772033691406 C 164.99302673339844 194.45562744140625 164.37643432617188 194.6361083984375 164.37643432617188 195.07223510742188 C 164.37643432617188 195.5083465576172 164.99302673339844 195.68801879882812 165.30093383789062 195.99673461914062 C 167.385986328125 195.99673461914062 169.47021484375 195.99673461914062 171.55441284179688 195.99673461914062 C 171.86233520507812 195.68801879882812 172.47894287109375 195.5083465576172 172.47894287109375 195.07223510742188 C 172.47894287109375 194.6361083984375 171.86233520507812 194.45562744140625 171.55441284179688 194.14772033691406 C 169.47021484375 194.14772033691406 167.385986328125 194.14772033691406 165.30093383789062 194.14772033691406" stroke-width="0.0" fill="rgb(66, 129, 171)" opacity="1.0"/>
    <path d="M 177.80709838867188 194.14772033691406 C 177.80709838867188 194.14772033691406 177.80709838867188 194.14772033691406 177.80709838867188 194.14772033691406 C 177.4984130859375 194.45562744140625 176.8817901611328 194.6361083984375 176.8817901611328 195.07223510742188 C 176.8817901611328 195.5083465576172 177.4984130859375 195.68801879882812 177.80709838867188 195.99673461914062 C 179.89132690429688 195.99673461914062 181.97555541992188 195.99673461914062 184.05979919433594 195.99673461914062 C 184.36769104003906 195.68801879882812 184.9842987060547 195.5083465576172 184.9842987060547 195.07223510742188 C 184.9842987060547 194.6361083984375 184.36769104003906 194.45562744140625 184.05979919433594 194.14772033691406 C 181.97555541992188 194.14772033691406 179.89132690429688 194.14772033691406 177.80709838867188 194.14772033691406" stroke-width="0.0" fill="rgb(19, 98, 150)" opacity="1.0"/>
    <path d="M 127.783203125 194.14772033691406 C 127.783203125 194.14772033691406 127.783203125 194.14772033691406 127.783203125 194.14772033691406 C 127.47531127929688 194.45562744140625 126.85869598388672 194.6361083984375 126.85869598388672 195.07223510742188 C 126.85869598388672 195.5083465576172 127.47531127929688 195.68801879882812 127.783203125 195.99673461914062 C 129.867431640625 195.99673461914062 131.9524688720703 195.99673461914062 134.0366973876953 195.99673461914062 C 134.3446044921875 195.68801879882812 134.96119689941406 195.5083465576172 134.96119689941406 195.07223510742188 C 134.96119689941406 194.6361083984375 134.3446044921875 194.45562744140625 134.0366973876953 194.14772033691406 C 131.9524688720703 194.14772033691406 129.867431640625 194.14772033691406 127.783203125 194.14772033691406" stroke-width="0.0" fill="rgb(144, 181, 205)" opacity="1.0"/>
    <path d="M 115.27783966064453 194.14772033691406 C 115.27783966064453 194.14772033691406 115.27783966064453 194.14772033691406 115.27783966064453 194.14772033691406 C 114.96994018554688 194.45562744140625 114.35332489013672 194.6361083984375 114.35332489013672 195.07223510742188 C 114.35332489013672 195.5083465576172 114.96994018554688 195.68801879882812 115.27783966064453 195.99673461914062 C 117.362060546875 195.99673461914062 119.4462890625 195.99673461914062 121.530517578125 195.99673461914062 C 121.8392333984375 195.68801879882812 122.45584106445312 195.5083465576172 122.45584106445312 195.07223510742188 C 122.45584106445312 194.6361083984375 121.8392333984375 194.45562744140625 121.530517578125 194.14772033691406 C 119.4462890625 194.14772033691406 117.362060546875 194.14772033691406 115.27783966064453 194.14772033691406" stroke-width="0.0" fill="rgb(145, 182, 206)" opacity="1.0"/>
    <path d="M 77.7601089477539 194.14772033691406 C 77.7601089477539 194.14772033691406 77.7601089477539 194.14772033691406 77.7601089477539 194.14772033691406 C 77.45220947265625 194.45562744140625 76.83560180664062 194.6361083984375 76.83560180664062 195.07223510742188 C 76.83560180664062 195.5083465576172 77.45220947265625 195.68801879882812 77.7601089477539 195.99673461914062 C 79.8443374633789 195.99673461914062 81.9285659790039 195.99673461914062 84.01278686523438 195.99673461914062 C 84.32150268554688 195.68801879882812 84.93811798095703 195.5083465576172 84.93811798095703 195.07223510742188 C 84.93811798095703 194.6361083984375 84.32150268554688 194.45562744140625 84.01278686523438 194.14772033691406 C 81.9285659790039 194.14772033691406 79.8443374633789 194.14772033691406 77.7601089477539 194.14772033691406" stroke-width="0.0" fill="rgb(18, 98, 150)" opacity="1.0"/>
    <path d="M 52.747745513916016 194.14772033691406 C 52.747745513916016 194.14772033691406 52.747745513916016 194.14772033691406 52.747745513916016 194.14772033691406 C 52.43984603881836 194.45562744140625 51.82323455810547 194.6361083984375 51.82323455810547 195.07223510742188 C 51.82323455810547 195.5083465576172 52.43984603881836 195.68801879882812 52.747745513916016 195.99673461914062 C 54.831974029541016 195.99673461914062 56.91619873046875 195.99673461914062 59.001243591308594 195.99673461914062 C 59.309139251708984 195.68801879882812 59.925750732421875 195.5083465576172 59.925750732421875 195.07223510742188 C 59.925750732421875 194.6361083984375 59.309139251708984 194.45562744140625 59.001243591308594 194.14772033691406 C 56.91619873046875 194.14772033691406 54.831974029541016 194.14772033691406 52.747745513916016 194.14772033691406" stroke-width="0.0" fill="rgb(19, 98, 150)" opacity="1.0"/>
    <path d="M 90.26547241210938 194.14772033691406 C 90.26547241210938 194.14772033691406 90.26547241210938 194.14772033691406 90.26547241210938 194.14772033691406 C 89.95757293701172 194.45562744140625 89.3409652709961 194.6361083984375 89.3409652709961 195.07223510742188 C 89.3409652709961 195.5083465576172 89.95757293701172 195.68801879882812 90.26547241210938 195.99673461914062 C 92.34970092773438 195.99673461914062 94.43474578857422 195.99673461914062 96.51897430419922 195.99673461914062 C 96.82686614990234 195.68801879882812 97.44347381591797 195.5083465576172 97.44347381591797 195.07223510742188 C 97.44347381591797 194.6361083984375 96.82686614990234 194.45562744140625 96.51897430419922 194.14772033691406 C 94.43474578857422 194.14772033691406 92.34970092773438 194.14772033691406 90.26547241210938 194.14772033691406" stroke-width="0.0" fill="rgb(144, 181, 205)" opacity="1.0"/>
    <path d="M 102.77165222167969 194.14772033691406 C 102.77165222167969 194.14772033691406 102.77165222167969 194.14772033691406 102.77165222167969 194.14772033691406 C 102.46376037597656 194.45562744140625 101.8471450805664 194.63693237304688 101.8471450805664 195.07223510742188 C 101.8471450805664 195.5083465576172 102.46376037597656 195.68801879882812 102.77165222167969 195.99673461914062 C 104.85588073730469 195.99673461914062 106.94092559814453 195.99673461914062 109.025146484375 195.99673461914062 C 109.33305358886719 195.68801879882812 109.94884490966797 195.5083465576172 109.94884490966797 195.07223510742188 C 109.94884490966797 194.63693237304688 109.33305358886719 194.45562744140625 109.025146484375 194.14772033691406 C 106.94092559814453 194.14772033691406 104.85588073730469 194.14772033691406 102.77165222167969 194.14772033691406" stroke-width="0.0" fill="rgb(143, 180, 205)" opacity="1.0"/>
    <path d="M 190.31329345703125 194.14772033691406 C 190.31329345703125 194.14772033691406 190.31329345703125 194.14772033691406 190.31329345703125 194.14772033691406 C 190.00540161132812 194.45562744140625 189.38877868652344 194.6361083984375 189.38877868652344 195.07223510742188 C 189.38877868652344 195.5083465576172 190.00540161132812 195.68801879882812 190.31329345703125 195.99673461914062 C 191.39215087890625 195.99673461914062 192.47019958496094 195.99673461914062 193.549072265625 195.99673461914062 C 193.8577880859375 195.68801879882812 194.47439575195312 195.5083465576172 194.47439575195312 195.07223510742188 C 194.47439575195312 194.6361083984375 193.8577880859375 194.45562744140625 193.549072265625 194.14772033691406 C 192.47019958496094 194.14772033691406 191.39215087890625 194.14772033691406 190.31329345703125 194.14772033691406" stroke-width="0.0" fill="rgb(18, 98, 150)" opacity="1.0"/>
    <path d="M 60.1781120300293 32.463287353515625 C 60.1781120300293 32.463287353515625 60.1781120300293 32.463287353515625 60.1781120300293 32.463287353515625 C 59.79018020629883 32.66337585449219 59.14661407470703 32.64704132080078 59.01430892944336 33.062744140625 C 58.582275390625 34.412757873535156 61.714332580566406 35.015480041503906 62.3815803527832 35.33808135986328 C 62.968788146972656 35.622291564941406 63.530677795410156 36.32792663574219 64.16035461425781 36.155601501464844 C 66.3540267944336 35.557777404785156 63.91616439819336 34.02155303955078 63.18848419189453 33.668739318847656 C 61.889923095703125 33.0390625 61.53220748901367 32.95085906982422 60.1781120300293 32.463287353515625 C 60.1781120300293 32.463287353515625 60.1781120300293 32.463287353515625 60.1781120300293 32.463287353515625" stroke-width="0.0" fill="rgb(21, 100, 151)" opacity="1.0"/>
    <path d="M 45.819644927978516 32.51146697998047 C 45.819644927978516 32.51146697998047 45.819644927978516 32.51146697998047 45.819644927978516 32.51146697998047 C 44.465553283691406 33.008026123046875 44.11518859863281 33.0970458984375 42.81826400756836 33.734893798828125 C 42.1036491394043 34.08607482910156 39.654354095458984 35.64434814453125 41.855369567871094 36.22583770751953 C 42.48994827270508 36.394081115722656 43.04938888549805 35.681915283203125 43.63823318481445 35.392799377441406 C 44.29813003540039 35.06775665283203 47.42692184448242 34.44133758544922 46.986717224121094 33.10112762451172 C 46.85032653808594 32.68706512451172 46.208396911621094 32.70829772949219 45.819644927978516 32.51146697998047 C 45.819644927978516 32.51146697998047 45.819644927978516 32.51146697998047 45.819644927978516 32.51146697998047" stroke-width="0.0" fill="rgb(26, 103, 153)" opacity="1.0"/>
    <path d="M 53.070343017578125 31.356651306152344 C 53.070343017578125 31.356651306152344 53.070343017578125 31.356651306152344 53.070343017578125 31.356651306152344 C 52.65382385253906 31.372169494628906 52.2373046875 31.380332946777344 51.82160186767578 31.402389526367188 C 50.95018005371094 31.448944091796875 48.2428092956543 32.504119873046875 50.66923522949219 33.337158203125 C 51.057167053222656 33.47028350830078 51.48675537109375 33.267738342285156 51.89592361450195 33.245689392089844 C 52.723243713378906 33.20158386230469 54.495487213134766 33.582984924316406 55.23868942260742 33.31755828857422 C 56.45802688598633 32.88225555419922 56.6613883972168 32.157020568847656 55.42326736450195 31.475074768066406 C 55.27054214477539 31.391769409179688 53.22633361816406 31.360733032226562 53.070343017578125 31.356651306152344 C 53.070343017578125 31.356651306152344 53.070343017578125 31.356651306152344 53.070343017578125 31.356651306152344" stroke-width="0.0" fill="rgb(19, 98, 150)" opacity="1.0"/>
    <path d="M 75.38186645507812 53.62652587890625 C 75.38186645507812 53.62652587890625 75.38186645507812 53.62652587890625 75.38186645507812 53.62652587890625 C 74.11760711669922 54.95611572265625 74.49492645263672 55.82182312011719 74.24991607666016 57.58018493652344 C 74.18212890625 58.071022033691406 73.90608215332031 58.55615234375 73.99346923828125 59.043724060058594 C 74.20907592773438 60.24427032470703 75.18421936035156 60.643646240234375 75.80165100097656 59.42675018310547 C 76.04584503173828 58.946533203125 76.00582885742188 58.368309020996094 76.08014678955078 57.83418273925781 C 76.28105926513672 56.39514923095703 76.25574493408203 56.03498077392578 76.3063735961914 54.5828857421875 C 75.99766540527344 54.55674743652344 75.68976593017578 54.52979278564453 75.38186645507812 54.502845764160156 C 75.68976593017578 54.502845764160156 75.99766540527344 54.502845764160156 76.3063735961914 54.502845764160156 C 75.99766540527344 54.21046447753906 75.68976593017578 53.91889953613281 75.38186645507812 53.62652587890625 C 75.38186645507812 53.62652587890625 75.38186645507812 53.62652587890625 75.38186645507812 53.62652587890625" stroke-width="0.0" fill="rgb(21, 99, 150)" opacity="1.0"/>
    <path d="M 73.83747863769531 62.82587432861328 C 73.83747863769531 62.82587432861328 73.83747863769531 62.82587432861328 73.83747863769531 62.82587432861328 C 73.43075561523438 62.98185729980469 72.93012237548828 62.991668701171875 72.61650848388672 63.29466247558594 C 72.2587890625 63.639312744140625 72.19672393798828 64.19629669189453 71.96232604980469 64.63487243652344 C 71.72875213623047 65.07344055175781 71.47966003417969 65.5046615600586 71.21504211425781 65.92689514160156 C 71.09172058105469 66.12290954589844 69.27129364013672 68.92012023925781 71.1243896484375 68.63263702392578 C 72.34454345703125 68.44234466552734 73.10489654541016 66.42263793945312 73.5932846069336 65.50384521484375 C 73.84727478027344 65.02689361572266 74.25399780273438 64.58505249023438 74.3030014038086 64.04684448242188 C 74.343017578125 63.61317443847656 73.9926528930664 63.23340606689453 73.83747863769531 62.82587432861328 C 73.83747863769531 62.82587432861328 73.83747863769531 62.82587432861328 73.83747863769531 62.82587432861328" stroke-width="0.0" fill="rgb(24, 101, 152)" opacity="1.0"/>
    <path d="M 73.04119110107422 44.60276794433594 C 73.04119110107422 44.60276794433594 73.04119110107422 44.60276794433594 73.04119110107422 44.60276794433594 C 72.8868408203125 45.01111602783203 72.56097412109375 45.391700744628906 72.578125 45.82781982421875 C 72.59772491455078 46.324378967285156 72.97259521484375 46.74089813232422 73.14409637451172 47.2064208984375 C 73.31642150878906 47.672752380371094 73.472412109375 48.14562225341797 73.61043548583984 48.62257385253906 C 73.74928283691406 49.10035705566406 73.72477722167969 49.63855743408203 73.97468566894531 50.068145751953125 C 74.56352996826172 51.0792236328125 75.61544799804688 51.10699462890625 75.78286743164062 49.67857360839844 C 75.88495635986328 48.81205749511719 74.86163330078125 45.70123291015625 74.26543426513672 45.06501770019531 C 73.96733856201172 44.74650573730469 73.44954681396484 44.75712585449219 73.04119110107422 44.60276794433594 C 73.04119110107422 44.60276794433594 73.04119110107422 44.60276794433594 73.04119110107422 44.60276794433594" stroke-width="0.0" fill="rgb(20, 99, 150)" opacity="1.0"/>
    <path d="M 68.5574951171875 37.275299072265625 C 68.5574951171875 37.275299072265625 68.5574951171875 37.275299072265625 68.5574951171875 37.275299072265625 C 68.12136840820312 37.29979705810547 67.54069519042969 37.02294158935547 67.24994659423828 37.34880828857422 C 66.30828857421875 38.403175354003906 68.92827606201172 40.22850036621094 69.40441131591797 40.79120635986328 C 69.86421966552734 41.33513641357422 70.24071502685547 42.21227264404297 71.07293701171875 42.342132568359375 C 73.06977844238281 42.65247344970703 70.9185791015625 39.71479034423828 70.81730651855469 39.595558166503906 C 69.88545227050781 38.49382781982422 69.59796905517578 38.27086639404297 68.5574951171875 37.275299072265625 C 68.5574951171875 37.275299072265625 68.5574951171875 37.275299072265625 68.5574951171875 37.275299072265625" stroke-width="0.0" fill="rgb(19, 98, 150)" opacity="1.0"/>
    <path d="M 38.77885055541992 70.51350402832031 C 38.77885055541992 70.51350402832031 38.77885055541992 70.51350402832031 38.77885055541992 70.51350402832031 C 38.34272766113281 70.53718566894531 37.76286697387695 70.25950622558594 37.4713020324707 70.583740234375 C 37.17973709106445 70.9087905883789 37.32838439941406 71.50988006591797 37.541542053222656 71.89128112792969 C 38.135284423828125 72.95299530029297 40.431854248046875 74.18458557128906 41.47315216064453 74.7415771484375 C 42.54548645019531 75.3140869140625 43.13432693481445 74.08413696289062 42.39766311645508 73.14165496826172 C 42.091400146484375 72.74964141845703 41.54420852661133 72.62794494628906 41.131771087646484 72.35027313232422 C 40.027587890625 71.60543823242188 39.79727554321289 71.36695861816406 38.77885055541992 70.51350402832031 C 38.77885055541992 70.51350402832031 38.77885055541992 70.51350402832031 38.77885055541992 70.51350402832031" stroke-width="0.0" fill="rgb(22, 100, 151)" opacity="1.0"/>
    <path d="M 32.31545639038086 62.867523193359375 C 32.31545639038086 62.867523193359375 32.31545639038086 62.867523193359375 32.31545639038086 62.867523193359375 C 32.160282135009766 63.275062561035156 31.809913635253906 63.65483093261719 31.849933624267578 64.08849334716797 C 31.89975357055664 64.62507629394531 32.30891799926758 65.06527709960938 32.56291961669922 65.53977966308594 C 33.05457305908203 66.45774841308594 33.81900405883789 68.47827911376953 35.03834533691406 68.66775512695312 C 36.89470672607422 68.95523071289062 35.07264709472656 66.1588363647461 34.946876525878906 65.95874786376953 C 34.68225860595703 65.5373306274414 34.4315299987793 65.10610961914062 34.1971435546875 64.66754150390625 C 33.962745666503906 64.22978210449219 33.89904022216797 63.67279815673828 33.539695739746094 63.32978057861328 C 33.22444534301758 63.028419494628906 32.72380828857422 63.021881103515625 32.31545639038086 62.867523193359375 C 32.31545639038086 62.867523193359375 32.31545639038086 62.867523193359375 32.31545639038086 62.867523193359375" stroke-width="0.0" fill="rgb(19, 98, 150)" opacity="1.0"/>
    <path d="M 37.4713020324707 37.367591857910156 C 37.4713020324707 37.367591857910156 37.4713020324707 37.367591857910156 37.4713020324707 37.367591857910156 C 36.43981170654297 38.370506286621094 36.15069580078125 38.599998474121094 35.22536849975586 39.70500183105469 C 35.12655258178711 39.82341766357422 32.98596954345703 42.77008819580078 34.981178283691406 42.45075225830078 C 35.82238006591797 42.316001892089844 36.180091857910156 41.447837829589844 36.64643096923828 40.89002990722656 C 37.120121002197266 40.324058532714844 39.73030471801758 38.479942321777344 38.77885055541992 37.43128967285156 C 38.485652923583984 37.107872009277344 37.90660858154297 37.388824462890625 37.4713020324707 37.367591857910156 C 37.4713020324707 37.367591857910156 37.4713020324707 37.367591857910156 37.4713020324707 37.367591857910156" stroke-width="0.0" fill="rgb(23, 101, 152)" opacity="1.0"/>
    <path d="M 33.03578567504883 44.72364044189453 C 33.03578567504883 44.72364044189453 33.03578567504883 44.72364044189453 33.03578567504883 44.72364044189453 C 32.629066467285156 44.87963104248047 32.11127853393555 44.872276306152344 31.8148193359375 45.19242858886719 C 31.221885681152344 45.83435821533203 30.21979522705078 48.94844055175781 30.325149536132812 49.81578826904297 C 30.498291015625 51.245018005371094 31.546119689941406 51.210716247558594 32.133331298828125 50.195556640625 C 32.38161087036133 49.76514434814453 32.35465621948242 49.22612762451172 32.49022674560547 48.74835205078125 C 32.626617431640625 48.26976776123047 32.778526306152344 47.79608154296875 32.94758605957031 47.32810974121094 C 33.117454528808594 46.86094665527344 33.48823928833008 46.441978454589844 33.50457763671875 45.944610595703125 C 33.5192756652832 45.509307861328125 33.19259262084961 45.13117218017578 33.03578567504883 44.72364044189453 C 33.03578567504883 44.72364044189453 33.03578567504883 44.72364044189453 33.03578567504883 44.72364044189453" stroke-width="0.0" fill="rgb(20, 98, 150)" opacity="1.0"/>
    <path d="M 30.749835968017578 53.722076416015625 C 30.749835968017578 53.722076416015625 30.749835968017578 53.722076416015625 30.749835968017578 53.722076416015625 C 30.44275665283203 54.02997589111328 29.967430114746094 54.23414611816406 29.827774047851562 54.64659118652344 C 29.525596618652344 55.54005432128906 29.9151611328125 58.638633728027344 30.34148406982422 59.47412109375 C 30.95972442626953 60.68611145019531 31.93732452392578 60.290008544921875 32.149662017822266 59.08863830566406 C 32.23542022705078 58.60106658935547 31.960193634033203 58.11512756347656 31.890766143798828 57.624290466308594 C 31.82052993774414 57.13182067871094 31.768264770507812 56.636077880859375 31.73314666748047 56.1395263671875 C 31.697208404541016 55.64214324951172 31.86545181274414 55.10557556152344 31.67760467529297 54.64332580566406 C 31.514266967773438 54.2398681640625 31.060997009277344 54.02916717529297 30.753101348876953 53.722076416015625 C 30.753101348876953 53.722076416015625 30.753101348876953 53.722076416015625 30.753101348876953 53.722076416015625 C 30.753101348876953 53.722076416015625 30.749835968017578 53.722076416015625 30.749835968017578 53.722076416015625" stroke-width="0.0" fill="rgb(21, 99, 151)" opacity="1.0"/>
    <path d="M 67.38715362548828 70.48818969726562 C 67.38715362548828 70.48818969726562 67.38715362548828 70.48818969726562 67.38715362548828 70.48818969726562 C 66.37362670898438 71.33918762207031 66.13433074951172 71.58419799804688 65.03668212890625 72.32821655273438 C 64.6258773803711 72.60671997070312 64.07950592041016 72.72921752929688 63.774871826171875 73.12205505371094 C 63.04310607910156 74.06207275390625 63.62623596191406 75.29856872558594 64.69938659667969 74.72279357910156 C 65.73741149902344 74.16499328613281 68.03398132324219 72.92277526855469 68.62446594238281 71.86270141601562 C 68.83599090576172 71.48129272460938 68.98299407958984 70.87938690185547 68.6914291381836 70.5551528930664 C 68.39987182617188 70.23173522949219 67.82164001464844 70.51106262207031 67.38715362548828 70.48818969726562 C 67.38715362548828 70.48818969726562 67.38715362548828 70.48818969726562 67.38715362548828 70.48818969726562" stroke-width="0.0" fill="rgb(21, 99, 150)" opacity="1.0"/>
    <path d="M 59.696258544921875 74.94329833984375 C 59.696258544921875 74.94329833984375 59.696258544921875 74.94329833984375 59.696258544921875 74.94329833984375 C 58.414031982421875 75.3116455078125 58.12165451049805 75.43251037597656 56.8043098449707 75.66363525390625 C 56.313472747802734 75.7493896484375 55.763832092285156 75.63668823242188 55.32444381713867 75.8702621459961 C 54.26762771606445 76.4321517944336 54.15492248535156 77.3297119140625 55.420814514160156 77.71682739257812 C 55.826717376708984 77.8409652709961 56.26365280151367 77.61964416503906 56.68343734741211 77.55430603027344 C 57.529541015625 77.42362976074219 59.59580612182617 77.27581024169922 60.26713562011719 76.70003509521484 C 60.59708023071289 76.41581726074219 60.994815826416016 75.95030212402344 60.86006164550781 75.53541564941406 C 60.72611999511719 75.12134552001953 60.08419418334961 75.14094543457031 59.696258544921875 74.94329833984375 C 59.696258544921875 74.94329833984375 59.696258544921875 74.94329833984375 59.696258544921875 74.94329833984375" stroke-width="0.0" fill="rgb(21, 99, 151)" opacity="1.0"/>
    <path d="M 46.478729248046875 74.95555114746094 C 46.478729248046875 74.95555114746094 46.478729248046875 74.95555114746094 46.478729248046875 74.95555114746094 C 46.09079360961914 75.1531982421875 45.45050048828125 75.13441467285156 45.31574249267578 75.54847717285156 C 45.18098449707031 75.96255493164062 45.5599365234375 76.45175170898438 45.908668518066406 76.71310424804688 C 46.608585357666016 77.23660278320312 49.81087875366211 77.90875244140625 50.66270065307617 77.71356201171875 C 52.0421142578125 77.3983154296875 51.92613983154297 76.446044921875 50.85136032104492 75.87679290771484 C 50.411155700683594 75.64403533935547 49.8631477355957 75.75755310058594 49.37312316894531 75.67179870605469 C 48.07048034667969 75.44393920898438 47.74870300292969 75.31653594970703 46.478729248046875 74.95555114746094 C 46.478729248046875 74.95555114746094 46.478729248046875 74.95555114746094 46.478729248046875 74.95555114746094" stroke-width="0.0" fill="rgb(19, 98, 150)" opacity="1.0"/>
    <path d="M 53.067073822021484 38.99364471435547 C 53.067073822021484 38.99364471435547 53.067073822021484 38.99364471435547 53.067073822021484 38.99364471435547 C 56.22200393676758 39.15290832519531 59.13600158691406 39.87078857421875 61.787017822265625 41.66181945800781 C 71.86268615722656 48.47148895263672 70.34198760986328 64.23468780517578 59.13518142700195 68.97647094726562 C 57.21919631958008 69.78663635253906 55.147216796875 70.20479583740234 53.067073822021484 70.20479583740234 C 50.98693084716797 70.20479583740234 48.915771484375 69.78663635253906 46.999786376953125 68.97647094726562 C 35.791343688964844 64.23468780517578 34.272274017333984 48.473121643066406 44.34794616699219 41.662635803222656 C 46.99814987182617 39.87078857421875 49.912147521972656 39.15290832519531 53.067073822021484 38.99364471435547 C 53.067073822021484 38.99364471435547 53.067073822021484 38.99364471435547 53.067073822021484 38.99364471435547" stroke-width="0.0" fill="rgb(253, 226, 111)" opacity="1.0"/>
    <path d="M 127.74809265136719 143.06863403320312 C 127.74809265136719 143.06863403320312 127.74809265136719 143.06863403320312 127.74809265136719 143.06863403320312 C 132.8704376220703 143.44676208496094 137.9781036376953 143.929443359375 143.0547332763672 144.72164916992188 C 146.36892700195312 145.23861694335938 149.66921997070312 145.87156677246094 152.91888427734375 146.7062225341797 C 154.92715454101562 147.22238159179688 156.919921875 147.8144989013672 158.8587646484375 148.55116271972656 C 160.79763793945312 149.287841796875 162.8206024169922 150.15516662597656 164.41644287109375 151.51333618164062 C 165.0428466796875 152.04583740234375 166.00820922851562 153.01036071777344 165.8848876953125 153.94467163085938 C 165.45773315429688 157.1837158203125 160.608154296875 158.73709106445312 158.0330810546875 159.6444549560547 C 147.89453125 163.2158966064453 136.74652099609375 164.29638671875 126.08853149414062 164.93260192871094 C 108.85364532470703 165.96165466308594 90.95476531982422 165.5639190673828 74.03675842285156 161.8070831298828 C 71.79817199707031 161.30970764160156 69.57347106933594 160.73719787597656 67.39205932617188 160.02830505371094 C 66.00529479980469 159.5782928466797 64.63241577148438 159.07357788085938 63.30609130859375 158.4651336669922 C 62.5187873840332 158.10333251953125 61.74454879760742 157.70477294921875 61.01278305053711 157.2384490966797 C 60.471309661865234 156.89297485351562 59.837547302246094 156.484619140625 59.4185791015625 155.98561096191406 C 55.88960266113281 151.77713012695312 63.90718078613281 149.05587768554688 66.75666046142578 148.0782928466797 C 67.73343658447266 147.74261474609375 68.73308563232422 147.43472290039062 69.72701263427734 147.15377807617188 C 70.85243225097656 146.83609008789062 71.99662780761719 146.54452514648438 73.13511657714844 146.2782745361328 C 74.40672302246094 145.9818115234375 75.69303131103516 145.71066284179688 76.97525787353516 145.46484375 C 78.3906021118164 145.19287109375 79.81656646728516 144.94705200195312 81.24089813232422 144.72409057617188 C 86.3175277709961 143.93270874023438 91.4251937866211 143.44921875 96.54755401611328 143.0710906982422 C 96.54755401611328 145.07281494140625 96.54755401611328 147.07455444335938 96.54755401611328 149.0754852294922 C 96.59737396240234 150.8264923095703 96.84402465820312 152.50482177734375 97.79302978515625 154.0189971923828 C 101.24932098388672 159.53500366210938 108.98432159423828 158.0665740966797 112.14986419677734 153.26272583007812 C 112.14986419677734 153.26272583007812 112.14986419677734 153.26272583007812 112.14986419677734 153.26272583007812 C 113.01148223876953 154.57272338867188 113.82818603515625 155.61727905273438 115.21739959716797 156.41519165039062 C 118.92850494384766 158.54598999023438 123.99942016601562 157.6851806640625 126.4503402709961 154.08840942382812 C 127.45977783203125 152.60772705078125 127.69989776611328 150.81832885742188 127.74809265136719 149.0722198486328 C 127.74809265136719 147.0712890625 127.74809265136719 145.06954956054688 127.74809265136719 143.06863403320312" stroke-width="0.0" fill="rgb(105, 200, 203)" opacity="1.0"/>
  </g>
</svg>
