<?xml version="1.0" ?>
<svg xmlns="http://www.w3.org/2000/svg" version="1.1" width="224" height="224">
  <defs/>
  <g>
    <path d="M 64.44149780273438 58.67743682861328 C 100.3521499633789 58.67743682861328 136.26364135742188 58.67743682861328 172.17428588867188 58.67743682861328 C 181.17538452148438 59.04166793823242 189.21609497070312 64.30584716796875 192.1265869140625 73.05660247802734 C 192.85171508789062 75.23612213134766 193.10708618164062 77.41899871826172 193.19918823242188 79.70066833496094 C 193.19918823242188 108.92621612548828 193.19918823242188 138.15093994140625 193.19918823242188 167.37564086914062 C 193.10708618164062 169.65731811523438 192.85171508789062 171.84019470214844 192.1265869140625 174.0188751220703 C 189.21609497070312 182.76962280273438 181.1737060546875 188.02879333496094 172.17428588867188 188.3930206298828 C 136.2644805908203 188.3930206298828 100.35466003417969 188.3930206298828 64.4448471069336 188.3930206298828 C 55.444580078125 188.02879333496094 47.40386962890625 182.76376342773438 44.49337387084961 174.01303100585938 C 43.76825714111328 171.83433532714844 43.512882232666016 169.65061950683594 43.4207763671875 167.3689422607422 C 43.4199333190918 138.14674377441406 43.419097900390625 108.9237060546875 43.417423248291016 79.70066833496094 C 43.78165817260742 70.70040893554688 49.04667282104492 62.65969467163086 57.79742431640625 59.74919509887695 C 59.976112365722656 59.02492141723633 62.15982437133789 58.7695426940918 64.44149780273438 58.67743682861328 C 64.44149780273438 58.67743682861328 64.44149780273438 58.67743682861328 64.44149780273438 58.67743682861328" stroke-width="0.0" fill="rgb(254, 125, 123)" opacity="1.0"/>
    <path d="M 172.73695373535156 58.70423126220703 C 172.73695373535156 58.70423126220703 172.73695373535156 58.70423126220703 172.73695373535156 58.70423126220703 C 177.35391235351562 64.66924285888672 178.16693115234375 72.38423919677734 178.29837036132812 79.69145965576172 C 178.29837036132812 109.19416046142578 178.29837036132812 138.6968536376953 178.29837036132812 168.19955444335938 C 178.1953887939453 175.74876403808594 175.80067443847656 182.54104614257812 170.8245391845703 188.2690887451172 C 170.8245391845703 188.2690887451172 170.8245391845703 188.2690887451172 170.8245391845703 188.2690887451172 C 172.96136474609375 188.1409912109375 175.0111083984375 187.86636352539062 177.0516357421875 187.18394470214844 C 187.36480712890625 183.73170471191406 192.91952514648438 173.51565551757812 193.2477569580078 163.11624145507812 C 193.2477569580078 135.19522094726562 193.2477569580078 107.27503967285156 193.2477569580078 79.35486602783203 C 193.12384033203125 76.29029846191406 192.69345092773438 73.37310791015625 191.45423889160156 70.54048156738281 C 188.17950439453125 63.052391052246094 180.8287353515625 58.51332473754883 172.73695373535156 58.70423126220703 C 172.73695373535156 58.70423126220703 172.73695373535156 58.70423126220703 172.73695373535156 58.70423126220703" stroke-width="0.0" fill="rgb(246, 82, 82)" opacity="1.0"/>
    <path d="M 30.815032958984375 97.01126861572266 C 30.815032958984375 97.01126861572266 30.815032958984375 97.01126861572266 30.815032958984375 97.01126861572266 C 32.70066833496094 97.51951599121094 33.120994567871094 97.93984985351562 33.63008117675781 99.82547760009766 C 33.63008117675781 100.88467407226562 33.63008117675781 101.94470977783203 33.63008117675781 103.00391387939453 C 33.50281524658203 103.47615814208984 33.49024963378906 103.99612426757812 33.24659729003906 104.42064666748047 C 32.199951171875 106.2476577758789 29.4334716796875 106.25770568847656 28.384315490722656 104.42649841308594 C 28.13983154296875 104.00031280517578 28.128097534179688 103.47782897949219 27.99999237060547 103.00391387939453 C 27.99999237060547 101.94470977783203 27.99999237060547 100.88467407226562 27.99999237060547 99.82547760009766 C 28.509078979492188 97.93984985351562 28.929405212402344 97.52035522460938 30.815032958984375 97.01126861572266 C 30.815032958984375 97.01126861572266 30.815032958984375 97.01126861572266 30.815032958984375 97.01126861572266" stroke-width="0.0" fill="rgb(52, 52, 52)" opacity="1.0"/>
    <path d="M 70.79335021972656 112.41194915771484 C 74.75132751464844 112.41194915771484 78.70846557617188 112.41194915771484 82.66643524169922 112.41194915771484 C 85.32239532470703 112.65058898925781 87.63420867919922 113.44602966308594 89.40931701660156 115.5527114868164 C 92.88165283203125 119.67396545410156 91.76885986328125 126.12628936767578 87.11759185791016 128.84588623046875 C 85.685791015625 129.6840362548828 84.28663635253906 129.90675354003906 82.66643524169922 130.05160522460938 C 78.70846557617188 130.05160522460938 74.75132751464844 130.05160522460938 70.79335021972656 130.05160522460938 C 69.17314910888672 129.90591430664062 67.77568054199219 129.6840362548828 66.3438720703125 128.84588623046875 C 61.694278717041016 126.12294006347656 60.57814025878906 119.66893768310547 64.05381774902344 115.54852294921875 C 65.82892608642578 113.44519805908203 68.13990783691406 112.65058898925781 70.79335021972656 112.41194915771484 C 70.79335021972656 112.41194915771484 70.79335021972656 112.41194915771484 70.79335021972656 112.41194915771484" stroke-width="0.0" fill="rgb(51, 51, 51)" opacity="1.0"/>
    <path d="M 70.79335021972656 138.6332244873047 C 74.75132751464844 138.6332244873047 78.70846557617188 138.6332244873047 82.66643524169922 138.6332244873047 C 85.32239532470703 138.87185668945312 87.63420867919922 139.66729736328125 89.40931701660156 141.77481079101562 C 92.88165283203125 145.8960723876953 91.76885986328125 152.34756469726562 87.11759185791016 155.0679931640625 C 85.685791015625 155.90530395507812 84.28663635253906 156.12803649902344 82.66643524169922 156.27371215820312 C 78.70846557617188 156.27371215820312 74.75132751464844 156.27371215820312 70.79335021972656 156.27371215820312 C 69.17314910888672 156.12803649902344 67.77568054199219 155.90530395507812 66.3438720703125 155.067138671875 C 61.694278717041016 152.34420776367188 60.57814025878906 145.8910369873047 64.05381774902344 141.7706298828125 C 65.82892608642578 139.66647338867188 68.13990783691406 138.87185668945312 70.79335021972656 138.6332244873047 C 70.79335021972656 138.6332244873047 70.79335021972656 138.6332244873047 70.79335021972656 138.6332244873047" stroke-width="0.0" fill="rgb(51, 51, 51)" opacity="1.0"/>
    <path d="M 106.00484466552734 112.41194915771484 C 109.96281433105469 112.41194915771484 113.92079162597656 112.41194915771484 117.87876892089844 112.41194915771484 C 119.49896240234375 112.55764770507812 120.8956069946289 112.7803726196289 122.32740783691406 113.61852264404297 C 126.97867584228516 116.34062194824219 128.09230041503906 122.78959655761719 124.61746215820312 126.91168975830078 C 122.84319305419922 129.01669311523438 120.53304290771484 129.81297302246094 117.87876892089844 130.05160522460938 C 113.92079162597656 130.05160522460938 109.96281433105469 130.05160522460938 106.00484466552734 130.05160522460938 C 104.3846435546875 129.90591430664062 102.98717498779297 129.6840362548828 101.55535888671875 128.84588623046875 C 96.90660858154297 126.12294006347656 95.78963470458984 119.6697769165039 99.26531982421875 115.54852294921875 C 101.04042053222656 113.44519805908203 103.35140228271484 112.65058898925781 106.00484466552734 112.41194915771484 C 106.00484466552734 112.41194915771484 106.00484466552734 112.41194915771484 106.00484466552734 112.41194915771484" stroke-width="0.0" fill="rgb(51, 51, 51)" opacity="1.0"/>
    <path d="M 106.00484466552734 138.6332244873047 C 109.96281433105469 138.6332244873047 113.92079162597656 138.6332244873047 117.87876892089844 138.6332244873047 C 119.49896240234375 138.77891540527344 120.8956069946289 139.0016326904297 122.32740783691406 139.8397979736328 C 126.97867584228516 142.56272888183594 128.09230041503906 149.01087951660156 124.61746215820312 153.13296508789062 C 122.84319305419922 155.2379608154297 120.53304290771484 156.0350799560547 117.87876892089844 156.27371215820312 C 113.92079162597656 156.27371215820312 109.96281433105469 156.27371215820312 106.00484466552734 156.27371215820312 C 104.3846435546875 156.12803649902344 102.98717498779297 155.90530395507812 101.55535888671875 155.067138671875 C 96.90660858154297 152.34420776367188 95.78963470458984 145.8910369873047 99.26531982421875 141.7706298828125 C 101.04042053222656 139.66647338867188 103.35140228271484 138.87185668945312 106.00484466552734 138.6332244873047 C 106.00484466552734 138.6332244873047 106.00484466552734 138.6332244873047 106.00484466552734 138.6332244873047" stroke-width="0.0" fill="rgb(51, 51, 51)" opacity="1.0"/>
    <path d="M 140.873046875 112.41194915771484 C 144.8310089111328 112.41194915771484 148.7889862060547 112.41194915771484 152.74696350097656 112.41194915771484 C 154.36715698242188 112.55764770507812 155.76547241210938 112.7803726196289 157.1981201171875 113.61852264404297 C 161.85523986816406 116.34313201904297 162.96469116210938 122.78624725341797 159.48565673828125 126.91168975830078 C 157.71139526367188 129.01585388183594 155.4012451171875 129.81297302246094 152.74696350097656 130.05160522460938 C 148.7889862060547 130.05160522460938 144.8310089111328 130.05160522460938 140.873046875 130.05160522460938 C 139.25283813476562 129.90591430664062 137.85536193847656 129.6840362548828 136.4243927001953 128.84588623046875 C 131.77481079101562 126.12294006347656 130.65782165527344 119.6697769165039 134.13351440429688 115.54852294921875 C 135.9086151123047 113.44519805908203 138.21958923339844 112.65058898925781 140.873046875 112.41194915771484 C 140.873046875 112.41194915771484 140.873046875 112.41194915771484 140.873046875 112.41194915771484" stroke-width="0.0" fill="rgb(51, 51, 51)" opacity="1.0"/>
    <path d="M 140.873046875 138.6332244873047 C 144.8310089111328 138.6332244873047 148.7889862060547 138.6332244873047 152.74696350097656 138.6332244873047 C 154.36715698242188 138.77891540527344 155.76547241210938 139.0016326904297 157.1981201171875 139.8397979736328 C 161.85523986816406 142.5644073486328 162.96469116210938 149.0075225830078 159.48565673828125 153.13296508789062 C 157.71139526367188 155.2379608154297 155.4012451171875 156.0342559814453 152.74696350097656 156.27371215820312 C 148.7889862060547 156.27371215820312 144.8310089111328 156.27371215820312 140.873046875 156.27371215820312 C 139.25283813476562 156.12803649902344 137.85536193847656 155.90530395507812 136.4243927001953 155.067138671875 C 131.77481079101562 152.34420776367188 130.65782165527344 145.8910369873047 134.13351440429688 141.7706298828125 C 135.9086151123047 139.66647338867188 138.21958923339844 138.87185668945312 140.873046875 138.6332244873047 C 140.873046875 138.6332244873047 140.873046875 138.6332244873047 140.873046875 138.6332244873047" stroke-width="0.0" fill="rgb(51, 51, 51)" opacity="1.0"/>
    <path d="M 58.26213455200195 96.8345947265625 C 60.81342315673828 96.8345947265625 63.364715576171875 96.8345947265625 65.91600799560547 96.8345947265625 C 66.31037902832031 96.9417724609375 66.74494934082031 96.95182037353516 67.09912872314453 97.15528106689453 C 69.53402709960938 98.5527572631836 67.83261108398438 101.00775909423828 65.91600799560547 101.52605438232422 C 63.364715576171875 101.52605438232422 60.81342315673828 101.52605438232422 58.26213455200195 101.52605438232422 C 57.76811981201172 101.731201171875 57.15687942504883 101.76217651367188 56.77841567993164 102.14064025878906 C 56.399112701416016 102.52078247070312 56.366458892822266 103.13201904296875 56.16048049926758 103.6277084350586 C 56.16048049926758 108.2513427734375 56.16048049926758 112.87498474121094 56.16048049926758 117.49861907958984 C 56.053306579589844 117.89551544189453 56.04409408569336 118.33174896240234 55.84062576293945 118.68844604492188 C 54.44733810424805 121.13088989257812 51.99066925048828 119.41941833496094 51.47237014770508 117.50532531738281 C 51.47237014770508 112.87833404541016 51.47237014770508 108.2513427734375 51.47237014770508 103.62435913085938 C 51.937076568603516 99.60861206054688 54.247222900390625 97.29930877685547 58.26213455200195 96.8345947265625 C 58.26213455200195 96.8345947265625 58.26213455200195 96.8345947265625 58.26213455200195 96.8345947265625" stroke-width="0.0" fill="rgb(255, 254, 254)" opacity="1.0"/>
    <path d="M 53.81684494018555 123.05670166015625 C 53.81684494018555 123.05670166015625 53.81684494018555 123.05670166015625 53.81684494018555 123.05670166015625 C 55.386802673339844 123.48038482666016 55.73847198486328 123.83038330078125 56.1638298034668 125.40034484863281 C 56.1638298034668 126.37246704101562 56.1638298034668 127.3445816040039 56.1638298034668 128.31585693359375 C 55.7652702331543 130.3203887939453 53.162899017333984 131.89202880859375 51.79305648803711 129.5006561279297 C 51.58959197998047 129.1456298828125 51.57954406738281 128.71107482910156 51.47237014770508 128.31585693359375 C 51.47237014770508 127.3445816040039 51.47237014770508 126.37246704101562 51.47237014770508 125.40034484863281 C 51.896888732910156 123.8320541381836 52.247718811035156 123.48038482666016 53.81684494018555 123.05670166015625 C 53.81684494018555 123.05670166015625 53.81684494018555 123.05670166015625 53.81684494018555 123.05670166015625" stroke-width="0.0" fill="rgb(255, 254, 254)" opacity="1.0"/>
    <path d="M 55.98129653930664 44.94718933105469 C 93.32960510253906 44.94718933105469 130.67791748046875 44.94718933105469 168.0262451171875 44.94718933105469 C 179.64059448242188 45.296348571777344 190.12039184570312 52.09951400756836 194.2475128173828 63.16961669921875 C 195.42559814453125 66.32879638671875 195.8995361328125 69.56668090820312 196.0 72.92179870605469 C 196.0 103.02149963378906 196.0 133.12120056152344 196.0 163.2209014892578 C 195.90121459960938 166.57684326171875 195.428955078125 169.81640625 194.251708984375 172.97808837890625 C 190.12709045410156 184.0515594482422 179.64227294921875 190.85556030273438 168.0262451171875 191.2047119140625 C 130.6787567138672 191.2047119140625 93.33128356933594 191.2047119140625 55.98464584350586 191.2047119140625 C 52.62953567504883 191.1033935546875 49.39164733886719 190.6294708251953 46.23247146606445 189.45220947265625 C 35.16236114501953 185.32510375976562 28.35919952392578 174.84530639648438 28.010040283203125 163.23094177246094 C 28.010040283203125 147.34127807617188 28.010040283203125 131.4524383544922 28.010040283203125 115.5635986328125 C 28.138145446777344 115.08967590332031 28.149871826171875 114.56803131103516 28.393531799316406 114.1426773071289 C 29.440170288085938 112.31566619873047 32.20832061767578 112.3139877319336 33.25580596923828 114.14100646972656 C 33.49945831298828 114.56719207763672 33.51117706298828 115.08967590332031 33.63928985595703 115.5635986328125 C 33.63928985595703 131.4490966796875 33.63928985595703 147.33457946777344 33.63928985595703 163.2209014892578 C 33.75065612792969 166.0962371826172 34.16093444824219 168.83926391601562 35.240234375 171.52703857421875 C 38.70252227783203 180.1505126953125 46.89059829711914 185.21624755859375 55.98715591430664 185.56793212890625 C 93.3354721069336 185.56793212890625 130.68377685546875 185.56793212890625 168.03292846679688 185.56793212890625 C 177.12948608398438 185.21624755859375 185.31674194335938 180.1505126953125 188.7798614501953 171.52703857421875 C 189.85916137695312 168.83926391601562 190.26943969726562 166.0962371826172 190.38079833984375 163.2209014892578 C 190.37911987304688 133.12120056152344 190.3782958984375 103.02149963378906 190.37745666503906 72.92179870605469 C 190.26608276367188 70.04562377929688 189.85580444335938 67.3025894165039 188.77651977539062 64.61482238769531 C 185.31338500976562 55.991336822509766 177.12615966796875 50.92559814453125 168.0295867919922 50.57392501831055 C 130.6812744140625 50.57392501831055 93.33295440673828 50.57392501831055 55.98464584350586 50.57392501831055 C 46.88724899291992 50.92559814453125 38.70001220703125 55.991336822509766 35.23688507080078 64.61482238769531 C 34.15758514404297 67.3025894165039 33.74730682373047 70.04562377929688 33.63594055175781 72.92179870605469 C 33.63594055175781 76.04412841796875 33.63594055175781 79.16729736328125 33.63594055175781 82.29048156738281 C 33.5086669921875 82.764404296875 33.4969482421875 83.28604888916016 33.25244903564453 83.71139526367188 C 32.20664978027344 85.53841400146484 29.438491821289062 85.54008483886719 28.391014099121094 83.71307373046875 C 28.146522521972656 83.28688049316406 28.134803771972656 82.764404296875 28.006690979003906 82.29048156738281 C 28.006690979003906 79.16729736328125 28.006690979003906 76.04412841796875 28.006690979003906 72.92179870605469 C 28.355850219726562 61.30659484863281 35.15901184082031 50.8267936706543 46.22911834716797 46.699684143066406 C 49.388301849365234 45.522422790527344 52.62618637084961 45.048500061035156 55.98129653930664 44.94718933105469 C 55.98129653930664 44.94718933105469 55.98129653930664 44.94718933105469 55.98129653930664 44.94718933105469" stroke-width="0.0" fill="rgb(51, 51, 51)" opacity="1.0"/>
    <path d="M 48.43544006347656 82.86990356445312 C 91.10152435302734 82.86990356445312 133.76844787597656 82.86990356445312 176.4345245361328 82.86990356445312 C 176.908447265625 82.99717712402344 177.43008422851562 83.00889587402344 177.8562774658203 83.25255584716797 C 179.6833038330078 84.29835510253906 179.68496704101562 87.06735229492188 177.8579559326172 88.11482238769531 C 177.43093872070312 88.35848236083984 176.908447265625 88.37020874023438 176.4345245361328 88.4983139038086 C 133.76844787597656 88.4983139038086 91.10152435302734 88.4983139038086 48.43544006347656 88.4983139038086 C 47.96235656738281 88.37104034423828 47.43987274169922 88.35932159423828 47.0145149230957 88.11566162109375 C 45.18750762939453 87.06902313232422 45.18582534790039 84.30003356933594 47.012840270996094 83.25338745117188 C 47.43903350830078 83.00889587402344 47.961517333984375 82.99717712402344 48.43544006347656 82.86990356445312 C 48.43544006347656 82.86990356445312 48.43544006347656 82.86990356445312 48.43544006347656 82.86990356445312" stroke-width="0.0" fill="rgb(51, 51, 51)" opacity="1.0"/>
    <path d="M 70.79335021972656 115.2362060546875 C 74.75132751464844 115.2362060546875 78.70846557617188 115.2362060546875 82.66643524169922 115.2362060546875 C 84.33100891113281 115.46060180664062 85.66819763183594 115.75450897216797 86.90742492675781 116.99456024169922 C 89.64125061035156 119.7292251586914 89.03754425048828 124.46925354003906 85.6924819946289 126.41851043701172 C 84.45577239990234 127.13859558105469 84.05721282958984 127.04985046386719 82.6630859375 127.2374038696289 C 78.706787109375 127.2374038696289 74.74964904785156 127.2374038696289 70.79335021972656 127.2374038696289 C 69.39923095703125 127.0506820678711 68.99899291992188 127.13943481445312 67.76228332519531 126.41934967041016 C 64.4163818359375 124.47259521484375 63.8160285949707 119.72671508789062 66.54901123046875 116.99372100830078 C 67.78990936279297 115.753662109375 69.1279296875 115.45977020263672 70.79335021972656 115.2362060546875 C 70.79335021972656 115.2362060546875 70.79335021972656 115.2362060546875 70.79335021972656 115.2362060546875" stroke-width="0.0" fill="rgb(51, 51, 50)" opacity="1.0"/>
    <path d="M 70.79335021972656 141.1937255859375 C 74.75132751464844 141.1937255859375 78.70846557617188 141.1937255859375 82.66643524169922 141.1937255859375 C 84.33100891113281 141.41729736328125 85.66819763183594 141.711181640625 86.90742492675781 142.9512481689453 C 89.64125061035156 145.68673706054688 89.03754425048828 150.42929077148438 85.6924819946289 152.3785400390625 C 84.45577239990234 153.09947204589844 84.05721282958984 153.01071166992188 82.6630859375 153.19827270507812 C 78.706787109375 153.19827270507812 74.74964904785156 153.19827270507812 70.79335021972656 153.19827270507812 C 69.39923095703125 153.0115509033203 68.99899291992188 153.09947204589844 67.76228332519531 152.38021850585938 C 64.41554260253906 150.43263244628906 63.8160285949707 145.68507385253906 66.54901123046875 142.9512481689453 C 67.78990936279297 141.711181640625 69.1279296875 141.41729736328125 70.79335021972656 141.1937255859375 C 70.79335021972656 141.1937255859375 70.79335021972656 141.1937255859375 70.79335021972656 141.1937255859375" stroke-width="0.0" fill="rgb(51, 51, 51)" opacity="1.0"/>
    <path d="M 105.63224029541016 115.2362060546875 C 109.5902099609375 115.2362060546875 113.54735565185547 115.2362060546875 117.50532531738281 115.2362060546875 C 119.16990661621094 115.46060180664062 120.50708770751953 115.75450897216797 121.7463150024414 116.99456024169922 C 124.48014068603516 119.7292251586914 123.87643432617188 124.46925354003906 120.5313720703125 126.41851043701172 C 119.29466247558594 127.13859558105469 118.89694213867188 127.04985046386719 117.50198364257812 127.2374038696289 C 113.54735565185547 127.2374038696289 109.59356689453125 127.2374038696289 105.6389389038086 127.2374038696289 C 104.24398040771484 127.0506820678711 103.84373474121094 127.13943481445312 102.60535430908203 126.41934967041016 C 99.25443267822266 124.47259521484375 98.64989471435547 119.73005676269531 101.38790130615234 116.99372100830078 C 102.62879943847656 115.753662109375 103.96682739257812 115.46060180664062 105.63224029541016 115.2362060546875 C 105.63224029541016 115.2362060546875 105.63224029541016 115.2362060546875 105.63224029541016 115.2362060546875" stroke-width="0.0" fill="rgb(51, 51, 51)" opacity="1.0"/>
    <path d="M 105.63224029541016 141.1937255859375 C 109.5902099609375 141.1937255859375 113.54735565185547 141.1937255859375 117.50532531738281 141.1937255859375 C 119.16990661621094 141.41729736328125 120.50708770751953 141.711181640625 121.7463150024414 142.9512481689453 C 124.48014068603516 145.68673706054688 123.87643432617188 150.42929077148438 120.5313720703125 152.3785400390625 C 119.29466247558594 153.09947204589844 118.89610290527344 153.01071166992188 117.50198364257812 153.19827270507812 C 113.54735565185547 153.19827270507812 109.59356689453125 153.19827270507812 105.6389389038086 153.19827270507812 C 104.24398040771484 153.01071166992188 103.84373474121094 153.09947204589844 102.60535430908203 152.38021850585938 C 99.25359344482422 150.43263244628906 98.64989471435547 145.68841552734375 101.38790130615234 142.9512481689453 C 102.62879943847656 141.711181640625 103.96682739257812 141.41729736328125 105.63224029541016 141.1937255859375 C 105.63224029541016 141.1937255859375 105.63224029541016 141.1937255859375 105.63224029541016 141.1937255859375" stroke-width="0.0" fill="rgb(51, 51, 51)" opacity="1.0"/>
    <path d="M 140.63775634765625 115.2362060546875 C 144.59573364257812 115.2362060546875 148.55287170410156 115.2362060546875 152.51084899902344 115.2362060546875 C 154.17626953125 115.46060180664062 155.5142822265625 115.753662109375 156.75518798828125 116.99456024169922 C 159.48983764648438 119.7292251586914 158.8852996826172 124.46925354003906 155.5402374267578 126.41851043701172 C 154.30352783203125 127.13859558105469 153.9058074951172 127.04985046386719 152.51084899902344 127.2374038696289 C 148.55287170410156 127.2374038696289 144.59573364257812 127.2374038696289 140.63775634765625 127.2374038696289 C 139.24363708496094 127.04985046386719 138.84506225585938 127.13859558105469 137.60836791992188 126.41851043701172 C 134.26329040527344 124.46925354003906 133.6595916748047 119.7292251586914 136.39341735839844 116.99456024169922 C 137.63430786132812 115.753662109375 138.9723358154297 115.46060180664062 140.63775634765625 115.2362060546875 C 140.63775634765625 115.2362060546875 140.63775634765625 115.2362060546875 140.63775634765625 115.2362060546875" stroke-width="0.0" fill="rgb(51, 51, 51)" opacity="1.0"/>
    <path d="M 140.63775634765625 141.1937255859375 C 144.59573364257812 141.1937255859375 148.55287170410156 141.1937255859375 152.51084899902344 141.1937255859375 C 154.17626953125 141.41729736328125 155.5142822265625 141.711181640625 156.75518798828125 142.9512481689453 C 159.48983764648438 145.68589782714844 158.8852996826172 150.42929077148438 155.5402374267578 152.3785400390625 C 154.30352783203125 153.09947204589844 153.9058074951172 153.01071166992188 152.51084899902344 153.19827270507812 C 148.55287170410156 153.19827270507812 144.59573364257812 153.19827270507812 140.63775634765625 153.19827270507812 C 138.9723358154297 152.97386169433594 137.63430786132812 152.68081665039062 136.39341735839844 151.43992614746094 C 133.6587677001953 148.70526123046875 134.26329040527344 143.96270751953125 137.60836791992188 142.0126190185547 C 138.84506225585938 141.2925262451172 139.24363708496094 141.38128662109375 140.63775634765625 141.1937255859375 C 140.63775634765625 141.1937255859375 140.63775634765625 141.1937255859375 140.63775634765625 141.1937255859375" stroke-width="0.0" fill="rgb(51, 51, 51)" opacity="1.0"/>
    <path d="M 82.8071060180664 32.79528045654297 C 82.8071060180664 32.79528045654297 82.8071060180664 32.79528045654297 82.8071060180664 32.79528045654297 C 87.93396759033203 33.25663757324219 91.16934204101562 36.49201202392578 91.62986755371094 41.618873596191406 C 91.62986755371094 50.08745193481445 91.62986755371094 58.5551872253418 91.62986755371094 67.02376556396484 C 91.38704681396484 69.67720794677734 90.58992767333984 71.98902893066406 88.48492431640625 73.76329040527344 C 84.36116027832031 77.24064636230469 77.9104995727539 76.11781311035156 75.19091033935547 71.46319580078125 C 74.35443115234375 70.03138732910156 74.13255310058594 68.6339111328125 73.98686218261719 67.01371765136719 C 73.9876937866211 58.548492431640625 73.98937225341797 50.084102630615234 73.99020385742188 41.618873596191406 C 74.45072937011719 36.496192932128906 77.68275451660156 33.25663757324219 82.8071060180664 32.79528045654297 C 82.8071060180664 32.79528045654297 82.8071060180664 32.79528045654297 82.8071060180664 32.79528045654297" stroke-width="0.0" fill="rgb(51, 51, 51)" opacity="1.0"/>
    <path d="M 140.65701293945312 32.79528045654297 C 140.65701293945312 32.79528045654297 140.65701293945312 32.79528045654297 140.65701293945312 32.79528045654297 C 145.78387451171875 33.25663757324219 149.02008056640625 36.49201202392578 149.48060607910156 41.618873596191406 C 149.48060607910156 50.08745193481445 149.48060607910156 58.5551872253418 149.48060607910156 67.02376556396484 C 149.2411346435547 69.67804718017578 148.4440155029297 71.98902893066406 146.33901977539062 73.76329040527344 C 142.2135772705078 77.23981475830078 135.7646026611328 76.11949157714844 133.04501342773438 71.46319580078125 C 132.20770263671875 70.03138732910156 131.98580932617188 68.6339111328125 131.84010314941406 67.01371765136719 C 131.84010314941406 58.548492431640625 131.84010314941406 50.084102630615234 131.84010314941406 41.618873596191406 C 132.30062866210938 36.496192932128906 135.53265380859375 33.25663757324219 140.65701293945312 32.79528045654297 C 140.65701293945312 32.79528045654297 140.65701293945312 32.79528045654297 140.65701293945312 32.79528045654297" stroke-width="0.0" fill="rgb(53, 52, 52)" opacity="1.0"/>
    <path d="M 70.79000091552734 118.03868865966797 C 70.79000091552734 118.03868865966797 70.79000091552734 118.03868865966797 70.79000091552734 118.03868865966797 C 70.25328063964844 118.18437957763672 69.66213989257812 118.19861602783203 69.17984771728516 118.47576904296875 C 67.10581970214844 119.66726684570312 67.11671447753906 122.79378509521484 69.18487548828125 123.98528289794922 C 69.66549682617188 124.26243591308594 70.25495910644531 124.27750396728516 70.79000091552734 124.4231948852539 C 74.74797058105469 124.4231948852539 78.70511627197266 124.4231948852539 82.6630859375 124.4231948852539 C 83.18975830078125 124.26997375488281 83.77169036865234 124.2440185546875 84.24309539794922 123.96350860595703 C 86.2626953125 122.76364135742188 86.26017761230469 119.70075988769531 84.24309539794922 118.50005340576172 C 83.77169036865234 118.21954345703125 83.18975830078125 118.1919174194336 82.6630859375 118.03868865966797 C 78.70511627197266 118.03868865966797 74.74797058105469 118.03868865966797 70.79000091552734 118.03868865966797" stroke-width="0.0" fill="rgb(235, 210, 0)" opacity="1.0"/>
    <path d="M 70.79335021972656 144.25994873046875 C 70.79335021972656 144.25994873046875 70.79335021972656 144.25994873046875 70.79335021972656 144.25994873046875 C 70.25662994384766 144.40565490722656 69.66549682617188 144.41989135742188 69.18319702148438 144.69703674316406 C 67.10917663574219 145.88937377929688 67.12005615234375 149.0150604248047 69.18821716308594 150.2073974609375 C 69.66883850097656 150.48370361328125 70.25830078125 150.498779296875 70.79335021972656 150.64447021484375 C 74.75132751464844 150.64447021484375 78.70846557617188 150.64447021484375 82.66643524169922 150.64447021484375 C 83.19226837158203 150.49124145507812 83.77336120605469 150.4652862548828 84.2447738647461 150.18478393554688 C 86.2626953125 148.98406982421875 86.26101684570312 145.9211883544922 84.24309539794922 144.72132873535156 C 83.77169036865234 144.44082641601562 83.18975830078125 144.41403198242188 82.6630859375 144.25994873046875 C 78.706787109375 144.25994873046875 74.74964904785156 144.25994873046875 70.79335021972656 144.25994873046875" stroke-width="0.0" fill="rgb(235, 210, 0)" opacity="1.0"/>
    <path d="M 106.00484466552734 118.03868865966797 C 106.00484466552734 118.03868865966797 106.00484466552734 118.03868865966797 106.00484466552734 118.03868865966797 C 105.46812438964844 118.18437957763672 104.87698364257812 118.19861602783203 104.3955307006836 118.47576904296875 C 102.32150268554688 119.66726684570312 102.33071899414062 122.79378509521484 104.39971160888672 123.98528289794922 C 104.88033294677734 124.26243591308594 105.46980285644531 124.27750396728516 106.00484466552734 124.4231948852539 C 109.96281433105469 124.4231948852539 113.92079162597656 124.4231948852539 117.87876892089844 124.4231948852539 C 118.40460205078125 124.26997375488281 118.9856948852539 124.24317169189453 119.45626831054688 123.96350860595703 C 121.47418212890625 122.76280212402344 121.47167205810547 119.70159149169922 119.45626831054688 118.50005340576172 C 118.9856948852539 118.21954345703125 118.40460205078125 118.1919174194336 117.87876892089844 118.03868865966797 C 113.92079162597656 118.03868865966797 109.96281433105469 118.03868865966797 106.00484466552734 118.03868865966797" stroke-width="0.0" fill="rgb(235, 210, 0)" opacity="1.0"/>
    <path d="M 106.00484466552734 144.25994873046875 C 106.00484466552734 144.25994873046875 106.00484466552734 144.25994873046875 106.00484466552734 144.25994873046875 C 105.46812438964844 144.40565490722656 104.87698364257812 144.41989135742188 104.3955307006836 144.69703674316406 C 102.32150268554688 145.88937377929688 102.33071899414062 149.0150604248047 104.39971160888672 150.2073974609375 C 104.88033294677734 150.48370361328125 105.46980285644531 150.498779296875 106.00484466552734 150.64447021484375 C 109.96281433105469 150.64447021484375 113.92079162597656 150.64447021484375 117.87876892089844 150.64447021484375 C 118.40460205078125 150.49124145507812 118.9856948852539 150.4652862548828 119.45626831054688 150.18478393554688 C 121.47335052490234 148.98406982421875 121.4725112915039 145.92202758789062 119.45626831054688 144.72132873535156 C 118.9856948852539 144.44082641601562 118.40460205078125 144.41403198242188 117.87876892089844 144.25994873046875 C 113.92079162597656 144.25994873046875 109.96281433105469 144.25994873046875 106.00484466552734 144.25994873046875" stroke-width="0.0" fill="rgb(235, 210, 0)" opacity="1.0"/>
    <path d="M 140.8629913330078 118.03868865966797 C 140.8629913330078 118.03868865966797 140.8629913330078 118.03868865966797 140.8629913330078 118.03868865966797 C 140.32627868652344 118.18437957763672 139.7359619140625 118.19861602783203 139.25367736816406 118.47576904296875 C 137.1804962158203 119.66809844970703 137.19053649902344 122.79378509521484 139.25869750976562 123.98528289794922 C 139.7384796142578 124.26243591308594 140.32794189453125 124.27750396728516 140.8629913330078 124.4231948852539 C 144.8209686279297 124.4231948852539 148.77894592285156 124.4231948852539 152.73690795898438 124.4231948852539 C 153.27447509765625 124.27750396728516 153.86561584472656 124.26326751708984 154.34873962402344 123.98528289794922 C 156.42359924316406 122.79378509521484 156.42861938476562 119.66223907470703 154.34873962402344 118.47325134277344 C 153.86561584472656 118.19694519042969 153.27447509765625 118.18354034423828 152.73690795898438 118.03868865966797 C 148.77894592285156 118.03868865966797 144.8209686279297 118.03868865966797 140.8629913330078 118.03868865966797" stroke-width="0.0" fill="rgb(235, 210, 0)" opacity="1.0"/>
    <path d="M 140.8629913330078 144.25994873046875 C 140.8629913330078 144.25994873046875 140.8629913330078 144.25994873046875 140.8629913330078 144.25994873046875 C 140.32627868652344 144.40565490722656 139.7359619140625 144.41989135742188 139.25367736816406 144.69703674316406 C 137.1804962158203 145.88937377929688 137.19053649902344 149.0150604248047 139.25869750976562 150.2073974609375 C 139.7384796142578 150.48370361328125 140.32794189453125 150.498779296875 140.8629913330078 150.64447021484375 C 144.8209686279297 150.64447021484375 148.77894592285156 150.64447021484375 152.73690795898438 150.64447021484375 C 153.27447509765625 150.498779296875 153.86561584472656 150.4845428466797 154.34873962402344 150.2073974609375 C 156.42359924316406 149.0150604248047 156.42861938476562 145.88433837890625 154.34873962402344 144.6945343017578 C 153.86561584472656 144.418212890625 153.27447509765625 144.40481567382812 152.73690795898438 144.25994873046875 C 148.77894592285156 144.25994873046875 144.8209686279297 144.25994873046875 140.8629913330078 144.25994873046875" stroke-width="0.0" fill="rgb(236, 210, 0)" opacity="1.0"/>
    <path d="M 82.80375671386719 35.61785125732422 C 82.80375671386719 35.61785125732422 82.80375671386719 35.61785125732422 82.80375671386719 35.61785125732422 C 86.40503692626953 36.10182189941406 88.32164001464844 38.01759338378906 88.80561065673828 41.618873596191406 C 88.80561065673828 50.08745193481445 88.80561065673828 58.5551872253418 88.80561065673828 67.02376556396484 C 88.61888885498047 68.41789245605469 88.70764923095703 68.81813049316406 87.98755645751953 70.05484008789062 C 86.03996276855469 73.4007339477539 81.29240417480469 74.00108337402344 78.55941772460938 71.26809692382812 C 77.3193588256836 70.02720642089844 77.02546691894531 68.68917846679688 76.8019027709961 67.02376556396484 C 76.8019027709961 58.5551872253418 76.8019027709961 50.08745193481445 76.8019027709961 41.618873596191406 C 77.28587341308594 38.01759338378906 79.20247650146484 36.10182189941406 82.80375671386719 35.61785125732422 C 82.80375671386719 35.61785125732422 82.80375671386719 35.61785125732422 82.80375671386719 35.61785125732422" stroke-width="0.0" fill="rgb(51, 51, 51)" opacity="1.0"/>
    <path d="M 141.2096405029297 35.61785125732422 C 141.2096405029297 35.61785125732422 141.2096405029297 35.61785125732422 141.2096405029297 35.61785125732422 C 144.8109130859375 36.10182189941406 146.72752380371094 38.01759338378906 147.21148681640625 41.618873596191406 C 147.21148681640625 50.08745193481445 147.21148681640625 58.5551872253418 147.21148681640625 67.02376556396484 C 147.0281219482422 68.41873168945312 147.11856079101562 68.81729125976562 146.39846801757812 70.05484008789062 C 144.45086669921875 73.40157318115234 139.6982879638672 74.00108337402344 136.9661407470703 71.26809692382812 C 135.72523498535156 70.02720642089844 135.43218994140625 68.68917846679688 135.20777893066406 67.02376556396484 C 135.20777893066406 58.5551872253418 135.20777893066406 50.08745193481445 135.20777893066406 41.618873596191406 C 135.69175720214844 38.01759338378906 137.60836791992188 36.10182189941406 141.2096405029297 35.61785125732422 C 141.2096405029297 35.61785125732422 141.2096405029297 35.61785125732422 141.2096405029297 35.61785125732422" stroke-width="0.0" fill="rgb(51, 51, 51)" opacity="1.0"/>
    <path d="M 82.80375671386719 38.418663024902344 C 82.80375671386719 38.418663024902344 82.80375671386719 38.418663024902344 82.80375671386719 38.418663024902344 C 80.66777038574219 38.998924255371094 80.19302368164062 39.480377197265625 79.616943359375 41.616355895996094 C 79.616943359375 50.084102630615234 79.616943359375 58.552677154541016 79.616943359375 67.02041625976562 C 79.76264190673828 67.55796813964844 79.77687072753906 68.14910888671875 80.05402374267578 68.63224792480469 C 81.24468231201172 70.70960998535156 84.37120819091797 70.70793914794922 85.56353759765625 68.63224792480469 C 85.84152221679688 68.14994812011719 85.85575866699219 67.55796813964844 86.00144958496094 67.02041625976562 C 86.00228881835938 58.55351638793945 86.00312805175781 50.085777282714844 86.00479888916016 41.618873596191406 C 85.41952514648438 39.48539733886719 84.9430923461914 39.00227355957031 82.8071060180664 38.422019958496094 C 82.8071060180664 38.422019958496094 82.8071060180664 38.422019958496094 82.8071060180664 38.422019958496094 C 82.8071060180664 38.422019958496094 82.80375671386719 38.418663024902344 82.80375671386719 38.418663024902344" stroke-width="0.0" fill="rgb(117, 190, 254)" opacity="1.0"/>
    <path d="M 140.65701293945312 38.418663024902344 C 140.65701293945312 38.418663024902344 140.65701293945312 38.418663024902344 140.65701293945312 38.418663024902344 C 138.52186584472656 38.998924255371094 138.0462646484375 39.480377197265625 137.47019958496094 41.616355895996094 C 137.47019958496094 50.084102630615234 137.47019958496094 58.552677154541016 137.47019958496094 67.02041625976562 C 137.61590576171875 67.55796813964844 137.630126953125 68.14910888671875 137.9072723388672 68.63224792480469 C 139.09877014160156 70.70960998535156 142.2252960205078 70.70793914794922 143.41763305664062 68.63224792480469 C 143.6947784423828 68.14994812011719 143.70901489257812 67.55796813964844 143.85470581054688 67.02041625976562 C 143.85470581054688 58.55351638793945 143.85470581054688 50.085777282714844 143.85470581054688 41.618873596191406 C 143.27528381347656 39.4820556640625 142.794677734375 39.00227355957031 140.65701293945312 38.422019958496094 C 140.65701293945312 38.422019958496094 140.65701293945312 38.422019958496094 140.65701293945312 38.422019958496094 C 140.65701293945312 38.422019958496094 140.65701293945312 38.418663024902344 140.65701293945312 38.418663024902344" stroke-width="0.0" fill="rgb(117, 190, 254)" opacity="1.0"/>
  </g>
</svg>
