<?xml version="1.0" ?>
<svg xmlns="http://www.w3.org/2000/svg" version="1.1" width="224" height="224">
  <defs/>
  <g>
    <path d="M 120.389892578125 42.995750427246094 C 137.22804260253906 59.91117477416992 154.06619262695312 76.82577514648438 170.90350341796875 93.74038696289062 C 151.47235107421875 112.08961486816406 132.04037475585938 130.43801879882812 112.60920715332031 148.78643798828125 C 93.89905548095703 130.07957458496094 75.18890380859375 111.37189483642578 56.478763580322266 92.66503143310547 C 72.45037841796875 76.1483383178711 88.42281341552734 59.631649017333984 104.39525604248047 43.1141357421875 C 109.28038024902344 38.76093292236328 115.44146728515625 38.71241760253906 120.389892578125 42.995750427246094 C 120.389892578125 42.995750427246094 120.389892578125 42.995750427246094 120.389892578125 42.995750427246094" stroke-width="0.0" fill="rgb(254, 171, 72)" opacity="1.0"/>
    <path d="M 157.533935546875 80.21461486816406 C 140.09234619140625 97.2525405883789 122.64994049072266 114.29047393798828 105.20751953125 131.32839965820312 C 107.87206268310547 134.03814697265625 110.53578186035156 136.74790954589844 113.19949340820312 139.45848083496094 C 130.7356414794922 122.33177185058594 148.2709503173828 105.2050552368164 165.8062744140625 88.07833862304688 C 163.048828125 85.45655059814453 160.2913818359375 82.83558654785156 157.533935546875 80.21461486816406" stroke-width="0.0" fill="rgb(252, 153, 45)" opacity="1.0"/>
    <path d="M 83.0723648071289 65.1761245727539 C 83.0723648071289 65.1761245727539 83.0723648071289 65.1761245727539 83.0723648071289 65.1761245727539 C 84.05070495605469 66.82122039794922 84.06056213378906 67.40576171875 83.13648986816406 69.08209228515625 C 82.68513488769531 69.54905700683594 82.23377990722656 70.01521301269531 81.7816162109375 70.48218536376953 C 79.80355834960938 71.82061767578125 76.31523132324219 71.0716552734375 77.11763763427734 67.90479278564453 C 77.2352066040039 67.43864440917969 77.58214569091797 67.06375122070312 77.81480407714844 66.64281463623047 C 78.26615905761719 66.17666625976562 78.71751403808594 65.7096939086914 79.16886901855469 65.24354553222656 C 80.81149291992188 64.26109313964844 81.39602661132812 64.25204467773438 83.0723648071289 65.1761245727539 C 83.0723648071289 65.1761245727539 83.0723648071289 65.1761245727539 83.0723648071289 65.1761245727539" stroke-width="0.0" fill="rgb(53, 53, 52)" opacity="1.0"/>
    <path d="M 109.92904663085938 67.07361602783203 C 109.92904663085938 67.07361602783203 109.92904663085938 67.07361602783203 109.92904663085938 67.07361602783203 C 111.57413482666016 66.15693664550781 112.18909454345703 66.15364074707031 113.8325424194336 67.07361602783203 C 121.07637023925781 74.31661987304688 128.3193817138672 81.56045532226562 135.56320190429688 88.80345916748047 C 136.54237365722656 90.2734375 136.54319763183594 91.23698425292969 135.56320190429688 92.70695495605469 C 128.3193817138672 99.95079040527344 121.07637023925781 107.19380187988281 113.8325424194336 114.43762969970703 C 112.36585235595703 115.41596984863281 111.39984893798828 115.4217300415039 109.93233489990234 114.44092559814453 C 102.69178771972656 107.19709014892578 95.45124816894531 99.9540786743164 88.21153259277344 92.71025085449219 C 87.25867462158203 91.05035400390625 87.25785064697266 90.46499633789062 88.20824432373047 88.80345916748047 C 95.44795989990234 81.56045532226562 102.68850708007812 74.31661987304688 109.92904663085938 67.07361602783203" stroke-width="0.0" fill="rgb(51, 51, 51)" opacity="1.0"/>
    <path d="M 87.04902648925781 76.4007339477539 C 87.04902648925781 76.4007339477539 87.04902648925781 76.4007339477539 87.04902648925781 76.4007339477539 C 87.90486907958984 77.74656677246094 87.92788696289062 78.23410034179688 87.19701385498047 79.65228271484375 C 86.49079895019531 80.42591094970703 85.78458404541016 81.19953918457031 85.07837677001953 81.97315979003906 C 82.64320373535156 83.697998046875 80.10445404052734 81.4675521850586 81.68295288085938 78.86878204345703 C 82.38835144042969 78.09597778320312 83.09455871582031 77.32234954833984 83.80078125 76.54872131347656 C 85.14578247070312 75.69205474853516 85.63249206542969 75.6706771850586 87.04902648925781 76.4007339477539 C 87.04902648925781 76.4007339477539 87.04902648925781 76.4007339477539 87.04902648925781 76.4007339477539" stroke-width="0.0" fill="rgb(255, 254, 254)" opacity="1.0"/>
    <path d="M 102.3826675415039 57.1644172668457 C 102.3826675415039 57.1644172668457 102.3826675415039 57.1644172668457 102.3826675415039 57.1644172668457 C 104.54241943359375 57.48258972167969 105.32673645019531 59.149879455566406 104.1930160522461 61.01530456542969 C 100.47695922851562 65.10707092285156 96.76091003417969 69.19883728027344 93.0456771850586 73.29060363769531 C 91.43265533447266 74.44487762451172 88.5000991821289 73.94419860839844 89.0887451171875 71.2665023803711 C 89.17424774169922 70.87516784667969 89.45377349853516 70.55288696289062 89.63629150390625 70.19608306884766 C 93.35315704345703 66.10431671142578 97.07003784179688 62.013370513916016 100.78772735595703 57.921607971191406 C 101.2588119506836 57.569732666015625 101.81128692626953 57.307472229003906 102.3826675415039 57.1644172668457 C 102.3826675415039 57.1644172668457 102.3826675415039 57.1644172668457 102.3826675415039 57.1644172668457" stroke-width="0.0" fill="rgb(255, 254, 254)" opacity="1.0"/>
    <path d="M 112.34941101074219 36.935791015625 C 112.34941101074219 36.935791015625 112.34941101074219 36.935791015625 112.34941101074219 36.935791015625 C 116.32279205322266 37.11583709716797 119.39099884033203 38.394256591796875 122.34822082519531 41.05058288574219 C 139.18637084960938 57.96600341796875 156.023681640625 74.88060760498047 172.86184692382812 91.79521179199219 C 173.85333251953125 93.29149627685547 173.83935546875 94.28298950195312 172.79769897460938 95.74639129638672 C 153.36654663085938 114.09480285644531 133.9345703125 132.44403076171875 114.50341033935547 150.79244995117188 C 113.03753662109375 151.7239227294922 112.10194396972656 151.70254516601562 110.65746307373047 150.73817443847656 C 91.94731140136719 132.02967834472656 73.23716735839844 113.3219985961914 54.527015686035156 94.61348724365234 C 53.57909393310547 92.97579956054688 53.57497787475586 92.39373016357422 54.49166488647461 90.73876953125 C 60.353485107421875 84.67716979980469 66.21612548828125 78.61474609375 72.07795715332031 72.55232238769531 C 72.49148559570312 72.30650329589844 72.85487365722656 71.94722747802734 73.31690979003906 71.81321716308594 C 75.30401611328125 71.23937225341797 77.25082397460938 73.12452697753906 76.74275207519531 75.12889099121094 C 76.62518310546875 75.59422302246094 76.27824401855469 75.96994018554688 76.04557037353516 76.390869140625 C 70.81597900390625 81.802978515625 65.58637237548828 87.21427917480469 60.355953216552734 92.62638854980469 C 77.7934341430664 110.06387329101562 95.23009490966797 127.50053405761719 112.6675796508789 144.93719482421875 C 130.76112365722656 127.85322570800781 148.85467529296875 110.7692642211914 166.94903564453125 93.685302734375 C 150.779296875 77.43991088867188 134.6103515625 61.193702697753906 118.4414291381836 44.94749450683594 C 114.67769622802734 41.732948303222656 110.10415649414062 41.7650146484375 106.38482666015625 45.03053283691406 C 101.0664291381836 50.52979278564453 95.74803924560547 56.02987289428711 90.42882537841797 61.529136657714844 C 90.01528930664062 61.775779724121094 89.65108489990234 62.13587188720703 89.18821716308594 62.26988220214844 C 87.20195007324219 62.845375061035156 85.255126953125 60.9577522277832 85.76156616210938 58.95585250854492 C 85.87913513183594 58.48888397216797 86.22607421875 58.11233901977539 86.45873260498047 57.690582275390625 C 91.77713012695312 52.19050598144531 97.09552001953125 46.689598083496094 102.41473388671875 41.188697814941406 C 105.32756042480469 38.49784851074219 108.39083099365234 37.18572235107422 112.34941101074219 36.935791015625 C 112.34941101074219 36.935791015625 112.34941101074219 36.935791015625 112.34941101074219 36.935791015625" stroke-width="0.0" fill="rgb(51, 51, 51)" opacity="1.0"/>
    <path d="M 111.88079833984375 69.03687286376953 C 119.12297821044922 76.2798843383789 126.3659896850586 83.52288818359375 133.60818481445312 90.76507568359375 C 126.3659896850586 98.00808715820312 119.12297821044922 105.25027465820312 111.88079833984375 112.49246215820312 C 104.63861083984375 105.25027465820312 97.39559936523438 98.00808715820312 90.152587890625 90.76507568359375 C 97.39559936523438 83.52288818359375 104.63861083984375 76.2798843383789 111.88079833984375 69.03687286376953" stroke-width="0.0" fill="rgb(51, 51, 51)" opacity="1.0"/>
    <path d="M 181.37420654296875 71.81404113769531 C 160.3070068359375 93.09418487548828 139.2397918701172 114.37515258789062 118.1717758178711 135.65528869628906 C 114.98270416259766 138.21788024902344 111.686767578125 138.2507781982422 108.44920349121094 135.74818420410156 C 87.534912109375 115.43488311767578 66.62062072753906 95.12239074707031 45.705509185791016 74.80908203125 C 43.82281494140625 75.04750061035156 41.7806396484375 75.39608764648438 40.829429626464844 77.29768371582031 C 39.893836975097656 79.16722106933594 40.43479919433594 81.3993148803711 40.651023864746094 83.37654876708984 C 41.08839416503906 87.38446044921875 41.50274658203125 91.39482879638672 41.9171142578125 95.40438842773438 C 43.563846588134766 111.34393310546875 45.16700744628906 127.28760528564453 46.738929748535156 143.23373413085938 C 47.05462646484375 146.43264770507812 47.372798919677734 149.631591796875 47.670413970947266 152.8321533203125 C 47.86772155761719 154.9516143798828 47.958152770996094 157.08917236328125 48.91265869140625 159.04586791992188 C 49.76110076904297 160.78549194335938 50.96963882446289 161.8797607421875 52.43714904785156 163.0924072265625 C 94.51072692871094 163.0924072265625 136.5843048095703 163.0924072265625 178.65870666503906 163.0924072265625 C 182.48162841796875 162.68051147460938 184.76141357421875 160.60626220703125 185.53668212890625 156.84005737304688 C 188.07791137695312 130.33607482910156 190.6199493408203 103.83209228515625 193.16116333007812 77.3281021118164 C 193.13485717773438 75.8753890991211 193.25982666015625 75.47254943847656 192.73284912109375 74.11273193359375 C 190.8016357421875 69.1240234375 185.05575561523438 68.85600280761719 181.37420654296875 71.81404113769531 C 181.37420654296875 71.81404113769531 181.37420654296875 71.81404113769531 181.37420654296875 71.81404113769531" stroke-width="0.0" fill="rgb(241, 194, 54)" opacity="1.0"/>
    <path d="M 111.44094848632812 72.00971221923828 C 114.49189758300781 78.40592193603516 117.5420150756836 84.80213165283203 120.5921401977539 91.1983413696289 C 117.24604797363281 97.68334197998047 113.9007797241211 104.16834259033203 110.55469512939453 110.6533432006836 C 118.28276062011719 103.78440856933594 126.01165008544922 96.91546630859375 133.73973083496094 90.0465316772461 C 126.30680084228516 84.03425598144531 118.87387084960938 78.02198791503906 111.44094848632812 72.00971221923828" stroke-width="0.0" fill="rgb(51, 51, 51)" opacity="1.0"/>
    <path d="M 184.02230834960938 69.50302124023438 C 183.61453247070312 69.86558532714844 183.20675659179688 70.2281494140625 182.79898071289062 70.5915298461914 C 180.0859375 97.59455108642578 177.3720703125 124.59839630126953 174.65902709960938 151.60142517089844 C 174.3063201904297 153.4339599609375 173.70123291015625 154.65728759765625 172.45980834960938 156.05081176757812 C 170.43983459472656 157.93104553222656 168.4198455810547 159.8120880126953 166.3998565673828 161.693115234375 C 172.0043487548828 161.693115234375 177.60885620117188 161.693115234375 183.2133331298828 161.693115234375 C 186.01516723632812 131.7304229736328 188.8178253173828 101.76689147949219 191.6204833984375 71.8041763305664 C 189.08749389648438 71.03712463378906 186.55531311035156 70.27008056640625 184.02230834960938 69.50302124023438" stroke-width="0.0" fill="rgb(231, 161, 0)" opacity="1.0"/>
    <path d="M 33.515708923339844 68.0067367553711 C 33.515708923339844 68.0067367553711 33.515708923339844 68.0067367553711 33.515708923339844 68.0067367553711 C 37.57130432128906 66.40193176269531 41.13361358642578 66.9708480834961 44.48299026489258 69.76610565185547 C 66.44386291503906 91.10133361816406 88.40473175048828 112.43572998046875 110.3656005859375 133.7709503173828 C 112.5870132446289 135.20065307617188 114.01012420654297 135.1875 116.20439910888672 133.7158660888672 C 120.94318389892578 128.93104553222656 125.68196868896484 124.14622497558594 130.42076110839844 119.36140441894531 C 133.40345764160156 117.32332611083984 136.33273315429688 120.24026489257812 134.33987426757812 123.24187469482422 C 129.60108947753906 128.02752685546875 124.8623046875 132.81234741210938 120.12351989746094 137.59718322753906 C 115.91912078857422 141.21456909179688 110.79228973388672 141.27047729492188 106.52294158935547 137.72872924804688 C 84.55960083007812 116.39678192138672 62.5954475402832 95.0648422241211 40.63128662109375 73.73373413085938 C 39.59703826904297 73.01765441894531 39.43590545654297 72.70523834228516 38.178855895996094 72.56547546386719 C 35.274261474609375 72.24237823486328 33.77056884765625 74.61752319335938 33.61518859863281 77.14230346679688 C 34.486656188964844 85.37104797363281 35.35893249511719 93.59979248046875 36.23040008544922 101.8293685913086 C 36.01171875 104.2250747680664 33.15479278564453 106.37906646728516 31.257308959960938 103.75316619873047 C 30.9744873046875 103.36182403564453 30.907073974609375 102.85375213623047 30.73278045654297 102.40404510498047 C 29.864608764648438 94.17611694335938 28.99725341796875 85.94818878173828 28.12908172607422 77.72026062011719 C 28.00000762939453 73.36212158203125 29.75279998779297 70.20759582519531 33.515708923339844 68.0067367553711 C 33.515708923339844 68.0067367553711 33.515708923339844 68.0067367553711 33.515708923339844 68.0067367553711" stroke-width="0.0" fill="rgb(52, 51, 51)" opacity="1.0"/>
    <path d="M 143.98599243164062 106.80410766601562 C 143.98599243164062 106.80410766601562 143.98599243164062 106.80410766601562 143.98599243164062 106.80410766601562 C 146.54693603515625 107.30314636230469 147.41017150878906 109.33299255371094 145.96240234375 111.51083374023438 C 145.27838134765625 112.20059967041016 144.5935516357422 112.89037322998047 143.90870666503906 113.58014678955078 C 140.92108154296875 115.58287048339844 137.98275756835938 112.7127914428711 139.98629760742188 109.69719696044922 C 140.671142578125 109.00660705566406 141.35597229003906 108.31683349609375 142.0408172607422 107.6262435913086 C 142.62289428710938 107.22997283935547 143.2962188720703 106.94551086425781 143.98599243164062 106.80410766601562 C 143.98599243164062 106.80410766601562 143.98599243164062 106.80410766601562 143.98599243164062 106.80410766601562" stroke-width="0.0" fill="rgb(51, 51, 51)" opacity="1.0"/>
    <path d="M 42.16950225830078 98.46601867675781 C 43.154422760009766 108.37356567382812 44.139339447021484 118.28111267089844 45.12507629394531 128.18865966796875 C 47.792083740234375 125.72718811035156 50.45991516113281 123.264892578125 53.127742767333984 120.80260467529297 C 56.53055953979492 117.00269317626953 56.52891540527344 112.43820190429688 53.136783599853516 108.63088989257812 C 49.480751037597656 105.24287414550781 45.8247184753418 101.85403442382812 42.16950225830078 98.46601867675781" stroke-width="0.0" fill="rgb(244, 130, 0)" opacity="1.0"/>
    <path d="M 64.45182800292969 162.7651824951172 C 99.87104797363281 162.7651824951172 135.2910919189453 162.7651824951172 170.71029663085938 162.7651824951172 C 172.84292602539062 162.92222595214844 174.7510986328125 163.31602478027344 176.57623291015625 164.5015411376953 C 182.486572265625 168.34173583984375 183.097412109375 177.04074096679688 177.7781982421875 181.66690063476562 C 175.7261505126953 183.450927734375 173.36334228515625 184.1143798828125 170.71029663085938 184.30923461914062 C 135.2910919189453 184.30923461914062 99.87104797363281 184.30923461914062 64.45182800292969 184.30923461914062 C 61.79880142211914 184.1143798828125 59.436805725097656 183.450927734375 57.38557815551758 181.66690063476562 C 52.066368103027344 177.04074096679688 52.676387786865234 168.34173583984375 58.58671569824219 164.5015411376953 C 60.41185760498047 163.31602478027344 62.32003402709961 162.92222595214844 64.45182800292969 162.7651824951172 C 64.45182800292969 162.7651824951172 64.45182800292969 162.7651824951172 64.45182800292969 162.7651824951172" stroke-width="0.0" fill="rgb(244, 129, 0)" opacity="1.0"/>
    <path d="M 54.131568908691406 129.58876037597656 C 54.131568908691406 129.58876037597656 54.131568908691406 129.58876037597656 54.131568908691406 129.58876037597656 C 55.71088790893555 129.84197998046875 56.086605072021484 130.15274047851562 56.66456604003906 131.6424560546875 C 57.1488037109375 136.31710815429688 57.63386154174805 140.9917755126953 58.11892318725586 145.6664276123047 C 58.05397415161133 146.06187438964844 58.086856842041016 146.48692321777344 57.924076080322266 146.85276794433594 C 56.80104064941406 149.37918090820312 54.198158264160156 147.96839904785156 53.532230377197266 146.14161682128906 C 53.04716873168945 141.4669647216797 52.562110900878906 136.79229736328125 52.07787322998047 132.11764526367188 C 52.335201263427734 130.5432586669922 52.64350509643555 130.1642608642578 54.131568908691406 129.58876037597656 C 54.131568908691406 129.58876037597656 54.131568908691406 129.58876037597656 54.131568908691406 129.58876037597656" stroke-width="0.0" fill="rgb(254, 254, 254)" opacity="1.0"/>
    <path d="M 111.88407897949219 72.93708038330078 C 105.94497680664062 78.87618255615234 100.00505828857422 84.81610870361328 94.06595611572266 90.75521087646484 C 100.00505828857422 96.6943130493164 105.94497680664062 102.6334228515625 111.88407897949219 108.57252502441406 C 117.82318115234375 102.6334228515625 123.76228332519531 96.6943130493164 129.70140075683594 90.75521087646484 C 123.76228332519531 84.81610870361328 117.82318115234375 78.87618255615234 111.88407897949219 72.93708038330078" stroke-width="0.0" fill="rgb(143, 147, 250)" opacity="1.0"/>
    <path d="M 166.21075439453125 163.99838256835938 C 166.21075439453125 163.99838256835938 166.21075439453125 163.99838256835938 166.21075439453125 163.99838256835938 C 170.77688598632812 167.2236328125 174.908935546875 175.14736938476562 169.66043090820312 179.7537841796875 C 166.662109375 182.38626098632812 162.07705688476562 182.374755859375 158.3470458984375 182.50546264648438 C 164.24339294433594 182.50546264648438 170.13973999023438 182.50546264648438 176.03610229492188 182.50546264648438 C 177.76422119140625 181.91928100585938 178.88067626953125 180.3958740234375 179.732421875 178.82888793945312 C 181.55838012695312 175.46963500976562 182.41668701171875 169.97943115234375 179.23583984375 167.06085205078125 C 175.90618896484375 164.00497436523438 170.3954315185547 164.12171936035156 166.21405029296875 163.99838256835938 C 166.21405029296875 163.99838256835938 166.21405029296875 163.99838256835938 166.21405029296875 163.99838256835938 C 166.21405029296875 163.99838256835938 166.21075439453125 163.99838256835938 166.21075439453125 163.99838256835938" stroke-width="0.0" fill="rgb(243, 104, 0)" opacity="1.0"/>
    <path d="M 90.99116516113281 171.15261840820312 C 92.6518783569336 171.15261840820312 94.311767578125 171.15261840820312 95.97248840332031 171.15261840820312 C 96.35971069335938 171.25784301757812 96.7863998413086 171.26771545410156 97.1341552734375 171.46749877929688 C 99.52493286132812 172.83880615234375 97.85270690917969 175.24684143066406 95.97248840332031 175.75575256347656 C 94.311767578125 175.75575256347656 92.6518783569336 175.75575256347656 90.99116516113281 175.75575256347656 C 89.11094665527344 175.24684143066406 87.438720703125 172.83880615234375 89.8294906616211 171.46749877929688 C 90.17725372314453 171.26771545410156 90.60394287109375 171.25784301757812 90.99116516113281 171.15261840820312 C 90.99116516113281 171.15261840820312 90.99116516113281 171.15261840820312 90.99116516113281 171.15261840820312" stroke-width="0.0" fill="rgb(255, 254, 254)" opacity="1.0"/>
    <path d="M 34.28522491455078 109.70624542236328 C 34.28687286376953 109.70624542236328 34.287696838378906 109.70624542236328 34.28851318359375 109.70624542236328 C 32.600677490234375 110.23076629638672 31.990646362304688 110.98548889160156 31.83032989501953 112.74649810791016 C 31.93474578857422 113.72895050048828 32.03997802734375 114.71057891845703 32.14521026611328 115.69303131103516 C 32.298126220703125 116.11396789550781 32.355674743652344 116.58422088623047 32.60560607910156 116.95665740966797 C 34.427459716796875 119.67381286621094 37.41755676269531 117.55105590820312 37.63954162597656 115.11177825927734 C 37.535133361816406 114.1301498413086 37.429901123046875 113.14769744873047 37.324668884277344 112.16524505615234 C 36.63324737548828 110.37957763671875 36.175315856933594 110.01126098632812 34.28522491455078 109.70624542236328 C 34.28522491455078 109.70624542236328 34.28522491455078 109.70624542236328 34.28522491455078 109.70624542236328" stroke-width="0.0" fill="rgb(51, 51, 51)" opacity="1.0"/>
    <path d="M 65.6875 171.15261840820312 C 71.0774154663086 171.15261840820312 76.46650695800781 171.15261840820312 81.85559844970703 171.15261840820312 C 83.73582458496094 171.66151428222656 85.40887451171875 174.0736541748047 83.01481628417969 175.44085693359375 C 82.66458129882812 175.64146423339844 82.23542785644531 175.6505126953125 81.84573364257812 175.75575256347656 C 76.45993041992188 175.75575256347656 71.07412719726562 175.75575256347656 65.6875 175.75575256347656 C 63.807273864746094 175.24684143066406 62.13505172729492 172.83880615234375 64.52581787109375 171.46749877929688 C 64.87358093261719 171.26771545410156 65.3002700805664 171.25784301757812 65.6875 171.15261840820312 C 65.6875 171.15261840820312 65.6875 171.15261840820312 65.6875 171.15261840820312" stroke-width="0.0" fill="rgb(254, 254, 254)" opacity="1.0"/>
    <path d="M 106.1003646850586 82.81092834472656 C 106.1003646850586 82.81092834472656 106.1003646850586 82.81092834472656 106.1003646850586 82.81092834472656 C 106.44812774658203 82.61032104492188 106.75724792480469 82.31517028808594 107.14529418945312 82.20912170410156 C 109.80736541748047 81.48564147949219 110.32942962646484 84.38037872314453 109.357666015625 86.06904602050781 C 107.81697845458984 87.60972595214844 106.27629852294922 89.15040588378906 104.73479461669922 90.69108581542969 C 103.09628295898438 91.75985717773438 100.33309173583984 91.17532348632812 100.84445190429688 88.61273193359375 C 100.93160247802734 88.17535400390625 101.26702880859375 87.82676696777344 101.47750091552734 87.4329605102539 C 103.01900482177734 85.89228057861328 104.55968475341797 84.35160827636719 106.1003646850586 82.81092834472656" stroke-width="0.0" fill="rgb(254, 254, 255)" opacity="1.0"/>
    <path d="M 190.3905792236328 67.9105453491211 C 190.3905792236328 67.9105453491211 190.3905792236328 67.9105453491211 190.3905792236328 67.9105453491211 C 186.292236328125 66.35835266113281 182.72991943359375 66.996337890625 179.4158935546875 69.86229705810547 C 168.74293518066406 80.64541625976562 158.06997680664062 91.42854309082031 147.39784240722656 102.21084594726562 C 145.40252685546875 105.21739196777344 148.33261108398438 108.11788177490234 151.32025146484375 106.09871673583984 C 161.9923858642578 95.31888580322266 172.6636962890625 84.53904724121094 183.33583068847656 73.75921630859375 C 185.39280700683594 72.27197265625 188.2061767578125 71.93736267089844 189.78384399414062 74.41692352294922 C 190.46621704101562 75.48898315429688 190.3206787109375 75.81373596191406 190.40618896484375 77.07489013671875 C 190.00418090820312 81.25462341308594 189.60214233398438 85.43517303466797 189.19931030273438 89.61573791503906 C 183.1253662109375 95.24818420410156 177.05142211914062 100.88062286376953 170.97750854492188 106.51306915283203 C 166.42123413085938 111.38011169433594 166.41383361816406 117.87168884277344 170.9931182861328 122.72557067871094 C 175.59707641601562 126.97354125976562 180.20184326171875 131.220703125 184.80581665039062 135.46865844726562 C 184.13084411621094 142.50367736816406 183.45504760742188 149.53868103027344 182.78005981445312 156.57369995117188 C 182.0968780517578 158.96444702148438 181.10292053222656 159.86880493164062 178.65870666503906 160.3226318359375 C 176.97662353515625 160.3226318359375 175.29452514648438 160.3226318359375 173.61328125 160.3226318359375 C 172.65301513671875 160.16395568847656 171.68206787109375 160.0570831298828 170.71029663085938 160.0011749267578 C 132.15792846679688 160.0011749267578 93.60555267333984 160.0011749267578 55.05318069458008 160.0011749267578 C 54.081417083740234 160.0570831298828 53.111297607421875 160.1631317138672 52.15104675292969 160.3226318359375 C 50.155723571777344 160.3226318359375 48.160400390625 160.3226318359375 46.16508102416992 160.3226318359375 C 43.7373161315918 159.86962890625 42.744998931884766 158.97926330566406 42.04125213623047 156.61151123046875 C 41.27337646484375 149.35287475585938 40.506324768066406 142.09425354003906 39.73927307128906 134.8356170654297 C 44.11631774902344 130.79730224609375 48.49336242675781 126.75814819335938 52.87041473388672 122.71900177001953 C 57.445594787597656 117.87004852294922 57.449703216552734 111.36695861816406 52.88685989379883 106.50650024414062 C 46.66576385498047 100.735107421875 40.44548797607422 94.9637222290039 34.224388122558594 89.19232940673828 C 33.79853057861328 88.96871185302734 33.414588928222656 88.62916564941406 32.945152282714844 88.5206527709961 C 30.929275512695312 88.0553207397461 29.08440399169922 90.04241943359375 29.701004028320312 92.01801300048828 C 29.84405517578125 92.47758483886719 30.210723876953125 92.83438873291016 30.466415405273438 93.24298858642578 C 36.68750762939453 99.01356506347656 42.909427642822266 104.7833023071289 49.130523681640625 110.55386352539062 C 51.363441467285156 113.2685546875 51.35933303833008 115.95611572265625 49.12147903442383 118.66505432128906 C 45.74907684326172 121.77436828613281 42.376686096191406 124.88367462158203 39.003456115722656 127.99298858642578 C 38.856292724609375 126.6109848022461 38.70832061767578 125.22979736328125 38.5611572265625 123.84861755371094 C 37.496490478515625 120.39318084716797 33.389923095703125 120.83631134033203 33.062713623046875 124.42985534667969 C 34.219451904296875 135.35028076171875 35.37538146972656 146.27151489257812 36.532127380371094 157.1927490234375 C 37.355079650878906 161.55747985839844 39.83299255371094 164.33958435058594 44.09165573120117 165.6188201904297 C 44.09165573120117 165.6188201904297 44.09165573120117 165.6188201904297 44.09165573120117 165.6188201904297 C 39.706390380859375 172.36361694335938 41.27666473388672 181.51727294921875 48.689857482910156 185.4750213623047 C 50.7164192199707 186.55612182617188 52.78738021850586 186.9228057861328 55.050716400146484 187.064208984375 C 63.03693389892578 187.064208984375 71.02233123779297 187.064208984375 79.00855255126953 187.064208984375 C 79.473876953125 186.93841552734375 79.98606872558594 186.92691040039062 80.4037094116211 186.68768310546875 C 82.1976089477539 185.66082763671875 82.19924926757812 182.94119262695312 80.40535736083984 181.91354370117188 C 79.98689270019531 181.67347717285156 79.473876953125 181.66195678710938 79.00855255126953 181.53616333007812 C 71.02314758300781 181.53616333007812 63.038578033447266 181.53616333007812 55.05318069458008 181.53616333007812 C 53.39411544799805 181.36846923828125 51.99647903442383 181.121826171875 50.57994842529297 180.16650390625 C 47.045589447021484 177.7831268310547 45.996543884277344 172.8873291015625 48.26810073852539 169.27650451660156 C 49.37798309326172 167.51138305664062 50.940860748291016 166.57907104492188 52.82601547241211 165.83750915527344 C 92.86480712890625 165.83750915527344 132.9027862548828 165.83750915527344 172.94158935546875 165.83750915527344 C 174.82591247558594 166.5782470703125 176.3887939453125 167.50973510742188 177.49868774414062 169.27239990234375 C 179.77023315429688 172.88156127929688 178.72283935546875 177.77902221679688 175.19094848632812 180.16403198242188 C 173.77359008789062 181.121826171875 172.3743133544922 181.36846923828125 170.71359252929688 181.53616333007812 C 144.55079650878906 181.53616333007812 118.38717651367188 181.53616333007812 92.22354125976562 181.53616333007812 C 91.75822448730469 181.66195678710938 91.24603271484375 181.67263793945312 90.82756042480469 181.9127197265625 C 89.03448486328125 182.93955993652344 89.03284454345703 185.6591796875 90.82673645019531 186.68685913085938 C 91.24520874023438 186.92691040039062 91.75822448730469 186.93841552734375 92.22354125976562 187.064208984375 C 118.3863525390625 187.064208984375 144.54832458496094 187.064208984375 170.71029663085938 187.064208984375 C 172.97201538085938 186.9228057861328 175.04214477539062 186.5569610595703 177.06704711914062 185.47666931152344 C 184.57643127441406 181.4720458984375 186.0792999267578 172.1630096435547 181.52220153808594 165.4165802001953 C 181.52220153808594 165.4165802001953 181.52220153808594 165.4165802001953 181.52220153808594 165.4165802001953 C 185.43310546875 163.85452270507812 187.54022216796875 161.2294464111328 188.29824829101562 157.09329223632812 C 190.83700561523438 130.59506225585938 193.37574768066406 104.09600067138672 195.91448974609375 77.59776306152344 C 196.0 73.2174301147461 194.20364379882812 70.06864929199219 190.3905792236328 67.9105453491211 C 190.3905792236328 67.9105453491211 190.3905792236328 67.9105453491211 190.3905792236328 67.9105453491211" stroke-width="0.0" fill="rgb(51, 51, 51)" opacity="1.0"/>
    <path d="M 193.27955627441406 94.81902313232422 C 188.22671508789062 99.50355529785156 183.1746826171875 104.187255859375 178.1226806640625 108.87178039550781 C 175.42361450195312 111.9498519897461 175.4334716796875 115.50312042236328 178.13583374023438 118.57461547851562 C 182.07632446289062 122.21173858642578 186.01681518554688 125.84886932373047 189.95730590820312 129.48599243164062 C 191.0655517578125 117.93006134033203 192.1737823486328 106.37413024902344 193.2828369140625 94.81902313232422 C 193.2828369140625 94.81902313232422 193.27955627441406 94.81902313232422 193.27955627441406 94.81902313232422" stroke-width="0.0" fill="rgb(51, 51, 51)" opacity="1.0"/>
    <path d="M 192.18447875976562 95.83929443359375 C 187.7745361328125 99.92777252197266 183.36460876464844 104.01625061035156 178.953857421875 108.10472869873047 C 178.65707397460938 111.57002258300781 178.3594512939453 115.03532409667969 178.06182861328125 118.50062561035156 C 181.42601013183594 121.60664367675781 184.78936767578125 124.71349334716797 188.15353393554688 127.81951904296875 C 189.49691772460938 117.15972137451172 190.84109497070312 106.49909973144531 192.18447875976562 95.83929443359375" stroke-width="0.0" fill="rgb(51, 51, 50)" opacity="1.0"/>
    <path d="M 188.419921875 97.8749008178711 C 187.43746948242188 108.10143280029297 186.45501708984375 118.32797241210938 185.47256469726562 128.55450439453125 C 181.900390625 125.25528717041016 178.327392578125 121.95523834228516 174.75521850585938 118.65518951416016 C 172.50994873046875 115.95365142822266 172.52064514160156 113.26526641845703 174.74615478515625 110.55386352539062 C 179.3040771484375 106.3272705078125 183.86199951171875 102.10149383544922 188.419921875 97.8749008178711" stroke-width="0.0" fill="rgb(243, 104, 0)" opacity="1.0"/>
  </g>
</svg>
