<?xml version="1.0" ?>
<svg xmlns="http://www.w3.org/2000/svg" version="1.1" width="224" height="224">
  <defs/>
  <g>
    <path d="M 49.292789459228516 99.6683120727539 C 48.19498825073242 98.7201156616211 48.10776901245117 91.31572723388672 49.06456756591797 90.8205795288086 C 51.15870666503906 89.2869873046875 53.418819427490234 91.2242431640625 53.81108856201172 94.28160095214844 C 53.665870666503906 98.63526916503906 51.05406188964844 101.5975341796875 49.292789459228516 99.6683120727539" stroke-width="1.0" fill="rgb(37, 37, 39)" opacity="0.98338616"/>
    <path d="M 66.04595947265625 195.01199340820312 C 60.7742919921875 194.22073364257812 54.34172439575195 189.4501953125 51.655372619628906 183.5719451904297 L 48.79165267944336 178.45892333984375 L 48.3084602355957 144.33657836914062 C 48.116947174072266 104.84000396728516 49.191688537597656 102.66768646240234 51.91177749633789 99.70227813720703 C 53.518917083740234 97.41413879394531 53.955787658691406 96.46068572998047 53.95701217651367 89.58403778076172 C 54.42762756347656 83.2476577758789 53.9280891418457 82.37345886230469 51.28712844848633 82.64141845703125 C 48.28048324584961 82.922607421875 47.994903564453125 79.35633087158203 48.123313903808594 68.92208862304688 C 48.382511138916016 60.569515228271484 49.25388717651367 58.05979537963867 51.16307830810547 55.699249267578125 C 55.21824264526367 48.01763916015625 63.059654235839844 43.11369323730469 75.20564270019531 43.32252502441406 C 82.52677154541016 43.45223617553711 82.26045989990234 43.20942306518555 84.11744689941406 38.506591796875 C 89.02281188964844 31.948890686035156 99.1745834350586 28.16040802001953 113.21275329589844 27.99999237060547 C 126.32524108886719 28.695701599121094 136.2238006591797 32.345794677734375 140.84658813476562 38.99888610839844 C 142.74119567871094 43.249576568603516 143.1602020263672 43.39174270629883 149.9488983154297 43.156951904296875 C 153.54302978515625 43.022613525390625 158.27328491210938 43.911354064941406 161.41824340820312 44.6607551574707 C 166.64840698242188 46.53514862060547 173.55352783203125 54.35017013549805 174.75491333007812 59.36574935913086 C 176.50396728515625 61.457862854003906 175.74610900878906 89.14637756347656 175.80079650878906 122.0191421508789 C 176.0675048828125 175.99205017089844 176.0177459716797 180.63218688964844 173.44528198242188 182.98568725585938 C 171.25579833984375 187.26609802246094 168.35386657714844 190.68377685546875 163.8496856689453 193.4351043701172 L 158.768798828125 195.54376220703125 L 114.23038482666016 195.71466064453125 C 89.1190185546875 195.47994995117188 67.17668151855469 196.0 66.04595947265625 195.01199340820312" stroke-width="0.0" fill="rgb(39, 35, 37)" opacity="0.9978239"/>
    <path d="M 62.96609115600586 187.43260192871094 C 58.49899673461914 184.00576782226562 58.149478912353516 183.5712432861328 57.5070915222168 121.86575317382812 C 58.23918533325195 78.77342224121094 58.7339973449707 63.54971694946289 59.961509704589844 61.322696685791016 C 62.24143600463867 56.1817741394043 64.93597412109375 53.512569427490234 69.677490234375 51.151771545410156 L 75.21369934082031 50.0357780456543 L 114.10680389404297 50.71614456176758 C 155.3155059814453 50.250221252441406 157.86349487304688 48.90706253051758 162.62261962890625 53.18273162841797 C 169.2254638671875 57.389713287353516 170.4011993408203 56.06938171386719 169.534423828125 119.49794006347656 C 169.64535522460938 174.73399353027344 170.2154541015625 177.17471313476562 167.54783630371094 180.8388671875 C 164.86248779296875 185.16226196289062 162.68365478515625 186.971435546875 158.18130493164062 188.72409057617188 C 155.28196716308594 189.76243591308594 148.3169403076172 189.31582641601562 109.82654571533203 189.19256591796875 C 67.65023803710938 189.40988159179688 64.76409149169922 189.57522583007812 62.96609115600586 187.43260192871094" stroke-width="1.0" fill="rgb(243, 76, 61)" opacity="0.99342895"/>
    <path d="M 89.5230941772461 40.733943939208984 C 90.00312042236328 39.31269836425781 92.63546752929688 37.50230026245117 95.66609191894531 36.61322784423828 C 100.41690826416016 34.72001647949219 102.30302429199219 33.99589538574219 112.16400909423828 33.12323760986328 C 121.83819580078125 34.0921630859375 123.85691833496094 34.89491271972656 128.28366088867188 36.70560073852539 C 131.30738830566406 37.8082389831543 134.271484375 39.39125442504883 135.04588317871094 40.42842102050781 C 135.90855407714844 42.25181579589844 136.15390014648438 42.32473373413086 134.15797424316406 43.184635162353516 C 132.8807373046875 43.32193374633789 130.36761474609375 42.417415618896484 128.4150390625 41.04288101196289 C 124.30754089355469 38.134246826171875 119.93132019042969 36.93816375732422 113.37699127197266 36.833595275878906 C 106.35841369628906 36.564788818359375 99.59138488769531 37.720516204833984 96.1068115234375 40.54816436767578 C 94.45646667480469 42.217559814453125 91.93408966064453 43.33031463623047 90.42344665527344 43.20415496826172 C 87.94058990478516 42.20745849609375 88.26618957519531 42.19769287109375 89.5230941772461 40.733943939208984" stroke-width="1.0" fill="rgb(216, 180, 0)" opacity="0.97869325"/>
    <path d="M 101.82782745361328 42.41376876831055 C 102.79334259033203 40.45326232910156 119.2623291015625 40.26248550415039 121.91868591308594 42.039329528808594 C 123.24916076660156 42.763118743896484 120.36233520507812 43.20231246948242 112.3555679321289 43.30757522583008 C 105.21289825439453 43.471923828125 101.26478576660156 42.97690963745117 101.82782745361328 42.41376876831055" stroke-width="1.0" fill="rgb(70, 129, 194)" opacity="0.9360576"/>
    <path d="M 59.869686126708984 184.72802734375 C 58.25012969970703 183.08316040039062 56.365089416503906 180.42916870117188 55.3724479675293 178.72079467773438 C 53.90400314331055 177.26885986328125 54.39198303222656 161.02761840820312 54.229095458984375 141.5669708251953 L 54.12026596069336 107.13702392578125 L 51.580509185791016 105.66812896728516 C 47.49604034423828 103.82454681396484 47.741329193115234 101.24381256103516 50.94941329956055 99.18555450439453 L 53.55252456665039 98.34041595458984 L 53.80377960205078 79.83943176269531 C 54.02731704711914 64.58624267578125 53.961021423339844 60.92119216918945 55.76472473144531 59.01287841796875 C 57.18877410888672 55.15580368041992 61.682796478271484 52.2084846496582 66.36639404296875 49.982635498046875 C 68.66932678222656 49.48110580444336 156.34136962890625 49.50470733642578 159.4273223876953 49.992393493652344 C 162.01348876953125 53.066524505615234 154.15374755859375 52.17962646484375 122.20244598388672 51.8894157409668 C 95.36275482177734 51.8007698059082 79.91928100585938 51.73497009277344 77.65702819824219 52.929412841796875 C 71.77500915527344 54.19629669189453 67.233154296875 57.36437225341797 64.74019622802734 61.58444595336914 L 62.37017059326172 65.5233154296875 L 62.516029357910156 123.8408432006836 C 62.61176681518555 178.02603149414062 61.88877868652344 182.0837860107422 65.09204864501953 185.1688995361328 C 66.43507385253906 189.16860961914062 64.46961975097656 188.92201232910156 59.869686126708984 184.72802734375" stroke-width="1.0" fill="rgb(249, 253, 253)" opacity="0.9916549"/>
    <path d="M 68.68112182617188 82.17086791992188 C 68.8697280883789 80.60865783691406 70.02415466308594 79.59953308105469 70.78155517578125 79.36085510253906 C 71.75505065917969 79.55268096923828 72.80059814453125 80.65807342529297 73.13520812988281 82.3994369506836 C 73.433837890625 84.2939224243164 72.8739013671875 84.93539428710938 70.77993774414062 85.06437683105469 C 68.86813354492188 84.96725463867188 68.19197082519531 84.38085174560547 68.68112182617188 82.17086791992188" stroke-width="1.0" fill="rgb(251, 249, 246)" opacity="0.9750032"/>
    <path d="M 69.54478454589844 76.01809692382812 C 68.904052734375 75.38877868652344 68.49737548828125 72.99657440185547 68.60285949707031 70.49775695800781 C 68.42453002929688 64.85844421386719 71.8852767944336 61.407806396484375 78.48960876464844 60.71419906616211 C 84.11498260498047 60.16002655029297 87.21365356445312 60.65221405029297 87.2393798828125 62.71215057373047 C 87.09503173828125 64.45220947265625 85.23919677734375 65.12449645996094 79.71151733398438 65.13572692871094 C 74.4748306274414 64.7999267578125 72.50712585449219 67.0406265258789 73.01615905761719 72.49897766113281 C 72.69326782226562 76.16480255126953 71.59642028808594 77.5662612915039 69.54478454589844 76.01809692382812" stroke-width="1.0" fill="rgb(251, 251, 250)" opacity="0.9881891"/>
    <path d="M 77.5476303100586 152.31271362304688 C 73.94879150390625 150.35035705566406 72.97914123535156 146.96652221679688 73.19115447998047 134.25942993164062 C 73.01280212402344 124.33649444580078 73.28338623046875 121.39038848876953 74.73583221435547 119.754150390625 C 76.35041809082031 117.7773666381836 76.3005142211914 117.37551879882812 74.50701141357422 114.81653594970703 C 72.42206573486328 110.87548065185547 72.80809020996094 98.89519500732422 75.26952362060547 96.45417022705078 C 79.58322143554688 92.02696990966797 87.41032409667969 93.66569519042969 89.63819122314453 99.35413360595703 C 90.86181640625 104.00220489501953 90.45773315429688 113.96701049804688 88.71383666992188 115.84933471679688 C 87.0002670288086 116.80130004882812 87.08263397216797 117.41578674316406 88.79094696044922 120.2100601196289 C 90.06995391845703 122.9906005859375 89.99447631835938 125.65927124023438 89.88365173339844 135.04666137695312 C 90.24042510986328 147.1571502685547 89.4398193359375 150.55967712402344 85.99381256103516 152.3507080078125 C 83.32301330566406 153.82955932617188 79.3956069946289 153.88418579101562 77.5476303100586 152.31271362304688" stroke-width="1.0" fill="rgb(40, 38, 42)" opacity="0.99788076"/>
    <path d="M 137.08444213867188 151.53744506835938 L 134.55999755859375 148.13880920410156 L 134.14698791503906 135.37875366210938 C 134.0415496826172 124.27600860595703 134.2771759033203 121.29422760009766 135.64007568359375 119.39186096191406 C 137.50086975097656 117.84019470214844 137.3543243408203 117.71057891845703 135.693603515625 116.06343078613281 C 134.57371520996094 114.34864044189453 134.20474243164062 111.45317840576172 134.1419677734375 105.75215911865234 C 134.4448699951172 98.68292236328125 134.84454345703125 97.64274597167969 136.7926025390625 96.20459747314453 C 139.99526977539062 93.20690155029297 145.54299926757812 93.25865173339844 148.13031005859375 96.06392669677734 C 150.2591552734375 97.71752166748047 150.6705322265625 98.89673614501953 150.44105529785156 105.94076538085938 C 150.59695434570312 111.24797821044922 150.3092041015625 114.24505615234375 149.3170166015625 115.74125671386719 C 148.04861450195312 117.31221771240234 148.1207733154297 117.3515625 149.13931274414062 118.73248291015625 C 150.529052734375 120.32039642333984 150.75726318359375 124.05101013183594 150.63064575195312 135.35888671875 L 150.2688751220703 148.93551635742188 L 147.52310180664062 151.32630920410156 C 143.91732788085938 154.29872131347656 140.81117248535156 154.42251586914062 137.08444213867188 151.53744506835938" stroke-width="1.0" fill="rgb(38, 37, 42)" opacity="0.99592733"/>
    <path d="M 79.65623474121094 147.13482666015625 C 78.44517517089844 146.3264617919922 78.2156753540039 122.38838958740234 79.77276611328125 121.77931213378906 C 80.67063903808594 121.07868957519531 81.65716552734375 121.3028793334961 83.37327575683594 121.75706481933594 C 85.0909652709961 123.68021392822266 85.20775604248047 146.87547302246094 83.04994201660156 148.03561401367188 C 81.26046752929688 147.40272521972656 80.47179412841797 147.69845581054688 79.65623474121094 147.13482666015625" stroke-width="1.0" fill="rgb(223, 181, 0)" opacity="0.9847793"/>
    <path d="M 79.89080047607422 113.2655029296875 C 78.2984390258789 112.23503112792969 78.30533599853516 100.3414306640625 79.75018310546875 99.552978515625 C 80.39794158935547 99.23746490478516 81.67413330078125 99.46031188964844 82.96199798583984 100.03997039794922 C 85.28336334228516 102.34110260009766 85.17464447021484 113.18071746826172 82.871826171875 113.83307647705078 C 81.41471862792969 113.6827621459961 80.2733154296875 113.2720947265625 79.89080047607422 113.2655029296875" stroke-width="1.0" fill="rgb(221, 180, 0)" opacity="0.97985446"/>
    <path d="M 140.46340942382812 146.23692321777344 C 140.08218383789062 145.67962646484375 139.9168701171875 139.7123260498047 139.68238830566406 133.53086853027344 C 139.91497802734375 122.24501037597656 140.58338928222656 121.36911010742188 142.12786865234375 121.6082992553711 C 144.28567504882812 121.38742065429688 144.60360717773438 122.20465087890625 145.051025390625 134.71347045898438 C 145.15675354003906 147.15284729003906 145.05474853515625 147.280029296875 142.89553833007812 147.4459991455078 C 141.80471801757812 147.59579467773438 140.82843017578125 146.8974609375 140.46340942382812 146.23692321777344" stroke-width="1.0" fill="rgb(225, 183, 0)" opacity="0.9962017"/>
    <path d="M 141.377685546875 113.5833969116211 C 140.31175231933594 112.93032836914062 140.02365112304688 110.76848602294922 139.60418701171875 106.12249755859375 C 140.25164794921875 100.39254760742188 140.70538330078125 99.55127716064453 142.0264892578125 99.69524383544922 C 144.16241455078125 99.3951416015625 144.49395751953125 100.09849548339844 145.00637817382812 106.67033386230469 C 145.0581512451172 113.23326873779297 144.4612579345703 114.63339233398438 141.377685546875 113.5833969116211" stroke-width="1.0" fill="rgb(222, 183, 0)" opacity="0.99145436"/>
  </g>
</svg>
