<?xml version="1.0" ?>
<svg xmlns="http://www.w3.org/2000/svg" version="1.1" width="224" height="224">
  <defs/>
  <g>
    <path d="M 61.157108306884766 177.65505981445312 C 43.517982482910156 170.2398681640625 38.87164306640625 151.80519104003906 50.52976608276367 132.71572875976562 C 53.098602294921875 127.92559051513672 62.249549865722656 118.44013977050781 63.779823303222656 118.63998413085938 C 63.18133544921875 118.06172180175781 64.31674194335938 118.37602996826172 64.9888916015625 117.84496307373047 C 64.95836639404297 116.97530364990234 62.49330139160156 116.13211059570312 59.7104606628418 114.79499816894531 C 44.33921813964844 106.50428009033203 31.89720916748047 90.45664978027344 29.657737731933594 73.67022705078125 C 28.0 63.91935729980469 33.27014923095703 55.86445999145508 40.68888854980469 54.31398010253906 C 43.24456787109375 53.47931671142578 45.298004150390625 54.5102424621582 44.52666473388672 52.77199935913086 C 45.038414001464844 50.48833465576172 46.46221160888672 50.00621032714844 48.41290283203125 50.15745544433594 C 50.33195114135742 50.29316711425781 51.326820373535156 51.148197174072266 50.791778564453125 55.227447509765625 C 51.54441452026367 60.281044006347656 52.592262268066406 62.68063735961914 55.304954528808594 66.150146484375 C 59.03752517700195 70.12742614746094 63.00496292114258 73.15933990478516 70.91913604736328 73.83880615234375 C 78.72771453857422 74.4878921508789 82.66822814941406 76.6312484741211 86.94798278808594 79.35792541503906 C 87.65597534179688 80.19984436035156 88.8075180053711 80.95234680175781 89.53187561035156 81.00300598144531 C 89.65923309326172 81.0066146850586 88.82327270507812 78.78086853027344 89.22895050048828 76.13301849365234 C 90.02123260498047 68.20448303222656 94.49583435058594 61.21711349487305 100.71674346923828 57.998252868652344 C 102.8371810913086 57.15348815917969 104.2426528930664 56.529266357421875 104.12244415283203 57.06199645996094 C 103.83074951171875 53.553619384765625 96.14264678955078 49.81721496582031 92.89225006103516 51.892765045166016 C 93.26126098632812 51.692665100097656 92.98929595947266 53.180118560791016 93.15650177001953 53.9505500793457 C 91.01921081542969 57.5045166015625 88.29081726074219 57.65213394165039 86.74208068847656 54.279747009277344 C 85.61797332763672 48.7224235534668 91.0893325805664 44.676055908203125 97.43035888671875 45.735260009765625 C 102.35028076171875 46.23827362060547 106.84172821044922 49.28884506225586 108.99539947509766 52.52050018310547 C 109.80693817138672 54.785770416259766 110.7269515991211 55.085960388183594 111.30287170410156 54.96660232543945 C 114.75059509277344 55.15912628173828 115.45267486572266 54.64259338378906 115.25240325927734 53.472869873046875 C 116.1010971069336 50.79267501831055 120.78144073486328 46.65363693237305 125.1749267578125 46.19969940185547 C 131.5530548095703 44.266414642333984 137.36868286132812 47.62216567993164 137.60581970214844 52.90657424926758 C 137.54556274414062 55.29812240600586 135.22320556640625 57.32572555541992 132.96630859375 56.13780975341797 C 131.49905395507812 55.72214126586914 130.8255615234375 54.372493743896484 131.39231872558594 51.88081741333008 C 131.6497802734375 51.679996490478516 128.488525390625 50.835060119628906 124.19452667236328 52.278568267822266 C 122.0446548461914 53.51404571533203 119.58999633789062 56.40348434448242 121.53925323486328 56.6578254699707 C 123.27515411376953 57.06514358520508 128.9126739501953 61.336639404296875 130.67495727539062 64.12046813964844 C 133.49244689941406 67.89598083496094 135.36141967773438 73.124267578125 135.24038696289062 78.94561767578125 L 134.6775665283203 81.95126342773438 L 136.43959045410156 80.02635955810547 C 141.07855224609375 76.52485656738281 145.559326171875 74.63192749023438 152.93084716796875 73.8128890991211 C 157.26174926757812 73.7780990600586 161.69662475585938 72.35511779785156 162.8659210205078 71.37958526611328 C 168.85226440429688 67.98961639404297 173.06349182128906 62.373165130615234 173.64398193359375 55.397396087646484 C 173.1690673828125 51.26406478881836 174.02549743652344 50.48052978515625 176.3498992919922 49.912174224853516 C 178.23092651367188 50.17528533935547 179.14990234375 50.720333099365234 179.48507690429688 52.31087875366211 C 179.72267150878906 53.88564682006836 181.0035400390625 53.7688102722168 183.26568603515625 54.04411315917969 C 189.62869262695312 55.344451904296875 194.59536743164062 60.93562698364258 195.16143798828125 68.60475158691406 C 196.0 73.99140167236328 194.23431396484375 81.08811950683594 189.9008331298828 89.14031219482422 C 186.62318420410156 95.00550079345703 185.07763671875 97.7603530883789 178.68353271484375 104.31549835205078 C 173.4514923095703 109.47181701660156 169.0465087890625 112.50666809082031 165.5189666748047 114.4022445678711 C 162.7527313232422 116.05094146728516 159.97573852539062 116.80296325683594 159.71873474121094 117.20840454101562 C 159.30868530273438 117.3773193359375 162.5067138671875 119.25048065185547 165.74118041992188 122.54214477539062 C 185.95236206054688 143.03089904785156 185.65850830078125 166.35975646972656 164.99075317382812 176.981201171875 C 160.2454833984375 178.79364013671875 159.1470184326172 179.27716064453125 150.9486846923828 179.619384765625 C 143.58541870117188 179.1920166015625 141.9256591796875 178.5543212890625 136.8125762939453 176.98867797851562 C 128.87550354003906 174.0236358642578 123.33375549316406 169.98214721679688 117.25177764892578 164.00302124023438 L 112.26220703125 158.55221557617188 L 107.42585754394531 163.5955352783203 C 96.72660827636719 174.3178253173828 85.4013442993164 179.45947265625 72.45529174804688 179.73358154296875 C 67.49502563476562 179.65560913085938 64.69148254394531 179.01043701171875 61.157108306884766 177.65505981445312" stroke-width="1.0" fill="rgb(5, 6, 8)" opacity="0.98851556"/>
    <path d="M 111.61808776855469 66.61300659179688 L 111.94737243652344 60.510868072509766 L 114.61222076416016 61.184669494628906 C 119.25119018554688 62.1376838684082 122.98186492919922 64.11197662353516 125.61209106445312 67.53059387207031 C 129.8644256591797 72.3887939453125 129.14947509765625 72.84037780761719 119.97731018066406 72.57595825195312 L 111.89341735839844 72.59349060058594 L 111.61808776855469 66.61300659179688" stroke-width="1.0" fill="rgb(229, 179, 0)" opacity="0.99273825"/>
    <path d="M 63.05474853515625 170.5326385498047 C 59.34564971923828 169.5984649658203 57.68325424194336 162.90155029296875 58.499671936035156 157.5356903076172 C 57.95631790161133 156.18148803710938 56.85896301269531 150.58816528320312 56.70168685913086 146.4322509765625 L 54.37466049194336 138.79026794433594 L 57.2221565246582 135.1280975341797 C 59.5978889465332 131.72750854492188 66.85772705078125 123.34552764892578 71.6675033569336 119.23607635498047 C 74.28236389160156 117.68297576904297 74.60285186767578 116.96858978271484 73.27870178222656 114.5413589477539 C 73.19125366210938 114.79444885253906 71.39844512939453 113.04739379882812 69.22724914550781 111.77570343017578 C 67.81118774414062 111.44570922851562 65.12419128417969 110.92967987060547 63.29764938354492 109.9581069946289 C 63.87895965576172 108.23289489746094 61.61709213256836 107.88378143310547 61.21469497680664 107.10507202148438 C 60.150272369384766 105.96243286132812 56.13314437866211 102.37445831298828 50.985050201416016 97.56920623779297 C 46.653114318847656 95.302490234375 45.45701599121094 94.19982147216797 44.034027099609375 88.8250503540039 C 43.497352600097656 85.21870422363281 42.63081359863281 80.83506774902344 41.489646911621094 79.00720977783203 C 38.89745330810547 71.39702606201172 39.70988464355469 60.380863189697266 44.15546417236328 60.12919235229492 C 45.15862274169922 58.997474670410156 45.12290954589844 61.453514099121094 46.64164733886719 64.30398559570312 C 51.782623291015625 73.07052612304688 57.701290130615234 77.71639251708984 68.01294708251953 79.6218032836914 C 72.82190704345703 79.69923400878906 78.20124816894531 80.84400939941406 80.51799774169922 82.14068603515625 C 85.19338989257812 84.12059020996094 92.58598327636719 92.24190521240234 92.54934692382812 93.89198303222656 C 88.31431579589844 101.56822204589844 88.68049621582031 116.5148696899414 90.64715576171875 122.99317932128906 C 92.76309967041016 131.48992919921875 98.2541275024414 141.5347442626953 103.7922134399414 150.01580810546875 C 109.02005767822266 155.4027557373047 107.67682647705078 155.22149658203125 102.51000213623047 160.7572021484375 C 93.21043395996094 170.03306579589844 82.9985580444336 174.07943725585938 72.03872680664062 173.77371215820312 C 66.91841125488281 173.66152954101562 66.45970153808594 173.83155822753906 63.05474853515625 170.5326385498047" stroke-width="0.0" fill="rgb(232, 196, 0)" opacity="0.99519575"/>
    <path d="M 142.0733642578125 172.66290283203125 C 140.150634765625 172.01104736328125 135.59181213378906 170.75491333007812 133.21981811523438 169.10699462890625 C 126.9213638305664 165.4505615234375 117.58755493164062 156.743408203125 116.93138122558594 154.19082641601562 C 116.88536834716797 154.17733764648438 119.38896942138672 151.1417999267578 122.18941497802734 147.126708984375 C 133.8525848388672 129.77903747558594 138.33981323242188 115.8932876586914 134.45367431640625 99.4833755493164 C 132.69725036621094 93.25361633300781 131.85130310058594 93.61296844482422 133.67849731445312 91.49202728271484 C 136.1453399658203 87.83921813964844 138.85586547851562 85.0446548461914 141.70925903320312 83.55686950683594 C 144.17604064941406 81.06483459472656 152.62109375 79.39073181152344 156.02886962890625 79.98399353027344 C 157.45895385742188 79.5771255493164 160.44976806640625 79.11119079589844 162.9560546875 77.99346923828125 C 168.51702880859375 76.3839111328125 176.02825927734375 68.95101928710938 177.82614135742188 63.16753387451172 C 178.28915405273438 63.21149826049805 178.9375 62.10702896118164 179.34091186523438 60.21797561645508 C 181.10000610351562 61.84392547607422 181.06556701660156 63.11996078491211 182.77944946289062 67.16580963134766 C 182.6454620361328 73.86267852783203 177.47003173828125 95.54069519042969 174.95623779296875 97.88972473144531 C 173.57147216796875 101.5934829711914 163.01026916503906 107.86046600341797 160.16360473632812 110.26592254638672 C 155.05795288085938 112.2598876953125 149.8917694091797 113.64608001708984 150.9789276123047 116.49468994140625 C 150.08529663085938 117.94322204589844 152.24586486816406 120.02392578125 156.45645141601562 122.45516204833984 C 161.7387237548828 127.94392395019531 166.89990234375 135.20217895507812 167.8983154296875 138.11489868164062 C 169.94235229492188 140.74295043945312 165.02374267578125 166.63546752929688 162.19378662109375 171.17303466796875 C 159.64141845703125 174.05438232421875 150.90211486816406 174.7158203125 142.0733642578125 172.66290283203125" stroke-width="0.0" fill="rgb(231, 195, 0)" opacity="0.9962008"/>
    <path d="M 110.49311828613281 148.72247314453125 C 107.82810974121094 145.31100463867188 107.76737213134766 145.1315460205078 111.76492309570312 145.7231903076172 C 115.79473876953125 145.67831420898438 116.23344421386719 146.60531616210938 114.05937194824219 148.7227325439453 C 112.4589614868164 150.3946533203125 111.68875885009766 150.594970703125 110.49311828613281 148.72247314453125" stroke-width="1.0" fill="rgb(216, 186, 0)" opacity="0.94805336"/>
    <path d="M 111.68934631347656 134.22344970703125 L 111.50221252441406 129.69802856445312 L 120.1083755493164 123.67216491699219 C 124.68802642822266 120.02398681640625 128.69886779785156 117.82479858398438 128.85708618164062 118.80682373046875 C 129.22352600097656 118.97735595703125 128.7298583984375 121.15589904785156 127.97663879394531 123.6383056640625 C 126.89553833007812 127.4748306274414 122.30963897705078 131.60987854003906 113.90837097167969 136.89761352539062 L 111.97358703613281 138.5602569580078 L 111.68934631347656 134.22344970703125" stroke-width="1.0" fill="rgb(232, 181, 0)" opacity="0.9719223"/>
    <path d="M 111.35834503173828 112.51065063476562 C 111.71544647216797 108.209716796875 111.8173599243164 108.05780792236328 116.23143005371094 105.00778198242188 C 118.94869232177734 103.45999908447266 122.46115112304688 100.82745361328125 124.20777130126953 99.27692413330078 L 126.94403076171875 96.3184585571289 L 127.78173828125 98.13615417480469 C 128.4251708984375 99.55284118652344 129.12730407714844 101.83236694335938 129.24691772460938 103.37398529052734 C 129.72348022460938 106.56146240234375 129.6263427734375 106.97774505615234 127.129638671875 107.78040313720703 C 125.63162231445312 108.3969955444336 121.69694519042969 110.811767578125 118.25566101074219 113.20600891113281 C 115.01227569580078 115.44799041748047 111.9913330078125 117.24853515625 111.40666198730469 117.1318359375 C 111.34873962402344 117.48353576660156 110.85395812988281 115.30645751953125 111.35834503173828 112.51065063476562" stroke-width="1.0" fill="rgb(231, 184, 0)" opacity="0.97776526"/>
    <path d="M 96.78350830078125 71.72967529296875 C 98.23765563964844 66.44622802734375 103.08782958984375 62.15129852294922 109.46717834472656 61.08119201660156 L 112.33749389648438 60.7402229309082 L 112.1806640625 72.6044921875 L 104.22998809814453 72.62076568603516 C 96.82730865478516 73.11038208007812 96.22797393798828 72.51922607421875 96.78350830078125 71.72967529296875" stroke-width="1.0" fill="rgb(229, 231, 0)" opacity="0.99793255"/>
    <path d="M 60.953922271728516 171.21441650390625 C 49.777435302734375 165.3259735107422 46.97474670410156 153.23399353027344 54.057769775390625 138.66012573242188 C 56.957767486572266 132.8401641845703 64.13236999511719 124.72667694091797 69.9389419555664 120.90591430664062 L 73.13922882080078 118.12171936035156 L 75.405517578125 120.0496826171875 L 78.09439086914062 122.69265747070312 L 73.33075714111328 127.9848403930664 C 66.2153091430664 134.9691162109375 61.81617736816406 142.10226440429688 60.66438293457031 148.03762817382812 C 58.10374450683594 155.51397705078125 59.41477584838867 164.10244750976562 64.26947021484375 169.759521484375 C 65.99736785888672 172.99786376953125 65.44297790527344 173.40414428710938 60.953922271728516 171.21441650390625" stroke-width="1.0" fill="rgb(253, 254, 254)" opacity="0.9981127"/>
    <path d="M 57.584781646728516 106.30474853515625 C 52.571842193603516 103.52374267578125 45.793487548828125 96.63935852050781 42.598182678222656 91.27651977539062 C 38.861907958984375 86.03648376464844 35.056968688964844 75.32586669921875 35.282562255859375 69.89784240722656 C 35.549034118652344 65.69090270996094 35.78290557861328 64.92288208007812 38.20314025878906 62.53530502319336 C 39.95978546142578 61.03078079223633 41.8638916015625 59.816436767578125 43.3453369140625 59.9221076965332 C 44.38416290283203 59.73912048339844 44.18925476074219 59.580753326416016 43.02222442626953 62.76011657714844 C 41.556007385253906 65.33842468261719 41.88771057128906 67.9374771118164 41.57489776611328 72.44913482666016 C 42.388877868652344 82.91786193847656 47.498802185058594 92.15729522705078 58.1961555480957 103.25917053222656 C 61.83735656738281 106.52934265136719 64.25006866455078 108.78369140625 64.4420166015625 110.24237823486328 C 62.988372802734375 110.0158920288086 60.89508819580078 107.97394561767578 57.584781646728516 106.30474853515625" stroke-width="1.0" fill="rgb(253, 253, 251)" opacity="0.9912819"/>
    <path d="M 161.83518981933594 170.78590393066406 C 161.8878173828125 170.00003051757812 162.9221954345703 167.3128204345703 163.63560485839844 164.837158203125 C 164.8517303466797 162.29354858398438 165.28878784179688 158.86508178710938 165.31149291992188 157.25050354003906 C 165.654541015625 149.25601196289062 161.76243591308594 139.47238159179688 154.41348266601562 129.18350219726562 C 150.61260986328125 123.13919067382812 150.10499572753906 121.99657440185547 150.780029296875 120.20394897460938 L 151.27871704101562 118.50192260742188 L 156.89857482910156 122.86587524414062 C 164.7301788330078 129.1072998046875 169.7339630126953 136.15481567382812 172.78033447265625 144.58633422851562 C 176.7020721435547 155.5132598876953 173.51649475097656 165.54966735839844 164.61376953125 170.41812133789062 C 161.24343872070312 172.2626953125 161.17955017089844 172.33111572265625 161.83518981933594 170.78590393066406" stroke-width="1.0" fill="rgb(230, 157, 0)" opacity="1.0"/>
    <path d="M 162.17880249023438 106.26018524169922 C 175.85777282714844 91.614013671875 182.53396606445312 78.12882995605469 181.58937072753906 66.68415832519531 C 181.27047729492188 64.20947265625 180.740966796875 61.970516204833984 180.00497436523438 61.46576690673828 C 178.2508544921875 60.4428596496582 180.32998657226562 59.70903778076172 182.91671752929688 60.34929656982422 C 186.635986328125 61.26118087768555 189.1866455078125 65.17640686035156 188.85311889648438 69.83548736572266 C 189.09201049804688 84.24391174316406 174.95059204101562 104.16590881347656 160.37667846679688 110.26048278808594 L 157.19505310058594 111.67259216308594 L 162.17880249023438 106.26018524169922" stroke-width="1.0" fill="rgb(230, 156, 0)" opacity="0.9985538"/>
    <path d="M 106.14700317382812 133.9359588623047 C 102.82164764404297 131.67813110351562 99.81510162353516 128.90928649902344 99.25621795654297 127.71728515625 C 97.55870819091797 125.56228637695312 95.60061645507812 119.25287628173828 96.18081665039062 118.92642211914062 C 96.53047943115234 118.30990600585938 100.37749481201172 120.7062759399414 104.91183471679688 124.12606048583984 L 113.01907348632812 129.84393310546875 L 112.89541625976562 134.39227294921875 C 112.89169311523438 136.73239135742188 112.51036834716797 138.21517944335938 112.040771484375 138.20437622070312 C 112.1143569946289 138.16358947753906 109.3233642578125 136.18365478515625 106.14700317382812 133.9359588623047" stroke-width="1.0" fill="rgb(224, 232, 0)" opacity="0.99089086"/>
    <path d="M 107.35722351074219 113.81478881835938 C 104.4449691772461 111.77989959716797 100.59898376464844 109.3353271484375 98.49610137939453 108.4104232788086 C 95.38453674316406 106.71033477783203 95.48973083496094 106.51154327392578 96.09609985351562 102.39965057373047 C 96.528564453125 99.95535278320312 97.02438354492188 97.99488067626953 96.93632507324219 97.64939880371094 C 97.40930938720703 97.26581573486328 99.5317153930664 98.77413177490234 102.01005554199219 100.86927795410156 C 104.53848266601562 102.96917724609375 108.07809448242188 105.63311767578125 109.97335815429688 106.73957824707031 C 112.86178588867188 108.60568237304688 113.02068328857422 109.33859252929688 112.94072723388672 113.19022369384766 C 112.82562255859375 115.6056137084961 112.5750503540039 117.56380462646484 112.90775299072266 117.56502532958984 C 112.66551971435547 117.52268981933594 110.22034454345703 115.78699493408203 107.35722351074219 113.81478881835938" stroke-width="1.0" fill="rgb(226, 231, 0)" opacity="0.99018353"/>
  </g>
</svg>
