<?xml version="1.0" ?>
<svg xmlns="http://www.w3.org/2000/svg" version="1.1" width="224" height="224">
  <defs/>
  <g>
    <path d="M 58.24290084838867 195.6822509765625 C 53.878971099853516 194.05943298339844 52.31584167480469 194.3188934326172 48.914615631103516 191.132080078125 C 42.46917724609375 185.174072265625 40.46623611450195 179.81924438476562 41.307373046875 172.74679565429688 C 41.289024353027344 170.124267578125 46.69540786743164 165.864990234375 42.77714538574219 160.3606719970703 C 40.23880386352539 150.92428588867188 43.08415222167969 148.22471618652344 45.99317169189453 143.09512329101562 C 48.19443893432617 136.11849975585938 50.117488861083984 131.4376220703125 54.138431549072266 133.8804931640625 C 56.29435729980469 135.5969696044922 58.85954666137695 132.49302673339844 59.88653564453125 130.4179229736328 C 59.528053283691406 128.8728790283203 59.07111740112305 128.16891479492188 56.8270263671875 129.22610473632812 C 55.13694763183594 128.57350158691406 54.3032341003418 128.11141967773438 54.030574798583984 125.8265380859375 C 53.93305206298828 123.37088012695312 55.772220611572266 121.8998031616211 59.69321060180664 125.39581298828125 C 61.40108108520508 125.8748550415039 61.059356689453125 125.0699462890625 64.73478698730469 122.74505615234375 C 64.8567886352539 119.83601379394531 65.19888305664062 117.55807495117188 62.397216796875 116.9040298461914 C 60.650367736816406 113.62704467773438 61.92583084106445 112.7434310913086 68.42222595214844 99.38139343261719 C 75.28050994873047 86.53814697265625 74.6314468383789 87.68490600585938 72.6456527709961 78.25355529785156 C 68.22502899169922 67.5327377319336 69.58763122558594 60.24102783203125 73.3563461303711 51.023712158203125 C 77.69013977050781 42.40521240234375 84.26087188720703 35.777320861816406 92.8664321899414 31.944061279296875 C 99.22362518310547 30.19921112060547 100.86651611328125 28.765838623046875 112.00960540771484 27.99999237060547 C 124.05758666992188 29.202293395996094 125.56102752685547 29.52557373046875 130.43722534179688 31.81328582763672 C 137.91873168945312 35.432037353515625 146.27401733398438 44.194976806640625 149.6561737060547 51.15147018432617 C 150.7957000732422 55.12482833862305 152.3545379638672 57.4845085144043 153.3474578857422 65.20262908935547 C 153.3001708984375 71.27214050292969 151.6865234375 77.57656860351562 150.2577667236328 78.88021850585938 L 149.47250366210938 87.55542755126953 L 165.57174682617188 118.82756805419922 L 181.99392700195312 152.41555786132812 L 181.25827026367188 159.97747802734375 C 178.01589965820312 165.05477905273438 180.11805725097656 168.43348693847656 182.0663604736328 171.33485412597656 C 183.76119995117188 178.75135803222656 182.28515625 184.20327758789062 177.13018798828125 189.80355834960938 C 173.231201171875 193.63192749023438 171.64776611328125 193.76681518554688 165.50950622558594 195.764892578125 C 159.53378295898438 196.0 69.59878540039062 195.93313598632812 58.24290084838867 195.6822509765625" stroke-width="0.0" fill="rgb(32, 32, 35)" opacity="0.99780375"/>
    <path d="M 53.191314697265625 128.11834716796875 C 51.749446868896484 126.15605163574219 52.061927795410156 125.8403549194336 53.213741302490234 124.31828308105469 C 56.86394500732422 119.26380157470703 62.50436019897461 122.748291015625 59.706546783447266 127.77943420410156 C 58.44231033325195 130.80487060546875 55.39982986450195 130.94883728027344 53.191314697265625 128.11834716796875" stroke-width="1.0" fill="rgb(40, 43, 38)" opacity="0.9558303"/>
    <path d="M 53.81561279296875 186.3903350830078 C 49.470848083496094 183.6117401123047 47.9021110534668 180.97515869140625 47.61597442626953 175.95164489746094 C 48.20331954956055 171.2236328125 48.67359161376953 170.36380004882812 53.14992904663086 172.73776245117188 C 56.06378936767578 175.4840850830078 60.53850555419922 175.33470153808594 110.98648834228516 175.29141235351562 C 162.00653076171875 175.28211975097656 165.18125915527344 175.5712890625 169.2183837890625 172.82635498046875 C 171.83438110351562 171.72006225585938 174.41094970703125 171.19662475585938 174.8175811767578 171.95526123046875 C 175.29312133789062 172.66790771484375 175.41392517089844 174.620849609375 175.86593627929688 176.9942626953125 C 175.85009765625 179.69065856933594 174.94781494140625 181.3514404296875 172.1820068359375 184.53594970703125 L 167.46554565429688 188.562255859375 L 112.61582946777344 188.6870880126953 C 59.584869384765625 188.63897705078125 57.29367446899414 189.349365234375 53.81561279296875 186.3903350830078" stroke-width="1.0" fill="rgb(218, 222, 228)" opacity="0.9994966"/>
    <path d="M 80.43473815917969 84.5440902709961 C 80.92437744140625 83.76331329345703 80.3362808227539 80.11712646484375 78.8064956665039 77.04780578613281 C 74.25865936279297 64.05148315429688 77.64292907714844 53.857967376708984 86.08463287353516 44.68524169921875 C 93.18616485595703 38.02819061279297 101.26885223388672 34.83904266357422 111.49210357666016 34.546913146972656 C 130.25062561035156 34.56365203857422 145.47528076171875 48.593292236328125 146.34442138671875 65.69982147216797 C 146.2056884765625 71.35768127441406 142.43560791015625 85.41567993164062 141.0687713623047 86.23938751220703 C 138.08627319335938 85.23676300048828 138.68453979492188 80.70291900634766 140.14718627929688 74.62887573242188 C 145.40524291992188 62.75693130493164 139.1248779296875 48.65980529785156 126.01080322265625 41.68498229980469 C 118.91373443603516 36.980796813964844 105.95081329345703 36.67631530761719 97.9161605834961 40.541656494140625 C 92.0317153930664 43.33879852294922 85.80907440185547 49.711978912353516 83.28170776367188 55.572750091552734 C 80.41424560546875 60.66915512084961 79.8734359741211 70.9842529296875 82.6895523071289 76.22662353515625 C 84.25637817382812 81.20916748046875 84.75656127929688 86.07943725585938 83.0929183959961 85.90800476074219 C 81.83985900878906 85.79561614990234 81.48905944824219 85.34707641601562 80.43473815917969 84.5440902709961" stroke-width="1.0" fill="rgb(213, 216, 223)" opacity="0.97914046"/>
    <path d="M 87.72964477539062 66.63331604003906 C 87.82307434082031 61.023109436035156 90.85526275634766 54.63075256347656 95.7833023071289 50.061485290527344 C 103.27985382080078 43.82188415527344 113.68118286132812 42.712257385253906 123.3128662109375 47.46269989013672 C 130.16748046875 51.5020751953125 134.08450317382812 57.31925582885742 134.81668090820312 64.89955139160156 C 135.6708526611328 71.32325744628906 134.93788146972656 71.72904968261719 128.8229522705078 68.562255859375 C 123.05680847167969 65.65126037597656 97.8379898071289 65.92024230957031 92.88351440429688 69.15635681152344 C 90.39864349365234 70.84051513671875 88.24845123291016 71.42507934570312 88.25028228759766 71.08641815185547 C 88.27688598632812 70.70573425292969 88.07281494140625 68.59949493408203 87.72964477539062 66.63331604003906" stroke-width="1.0" fill="rgb(217, 222, 226)" opacity="0.9955113"/>
    <path d="M 91.29695129394531 81.88552856445312 C 91.64990997314453 80.03848266601562 92.85970306396484 77.76248168945312 93.95545196533203 75.93380737304688 C 96.09675598144531 74.38661193847656 97.54212188720703 74.18733215332031 111.5289306640625 73.952880859375 C 125.81376647949219 74.17514038085938 126.49068450927734 74.25640869140625 129.3779296875 76.62348937988281 C 130.53790283203125 78.15138244628906 131.8278350830078 80.8643798828125 132.1201629638672 82.49602508544922 L 132.7374267578125 85.47846984863281 L 90.85395050048828 85.33187103271484 L 91.29695129394531 81.88552856445312" stroke-width="1.0" fill="rgb(220, 227, 0)" opacity="0.9993161"/>
    <path d="M 53.82354736328125 165.33932495117188 C 52.36180877685547 164.34042358398438 50.10798645019531 161.88043212890625 49.725860595703125 159.9268341064453 C 48.022159576416016 154.91600036621094 47.558074951171875 153.9478759765625 52.844337463378906 144.22422790527344 C 55.92448043823242 139.27017211914062 57.2276725769043 133.8260040283203 56.695491790771484 133.2405242919922 C 58.64920425415039 131.96865844726562 59.272281646728516 128.80718994140625 60.414886474609375 126.80206298828125 C 60.50978088378906 125.45421600341797 63.06825637817383 121.99361419677734 64.19563293457031 119.41886138916016 C 68.37773132324219 116.86618041992188 71.3935317993164 109.8480453491211 73.99164581298828 103.48738861083984 C 77.03973388671875 98.35250854492188 79.28986358642578 92.86465454101562 79.40997314453125 92.84224700927734 C 81.31477355957031 92.6100845336914 86.94009399414062 92.50387573242188 88.49465942382812 92.81289672851562 C 88.54833221435547 94.49766540527344 87.6332778930664 99.00873565673828 85.11478424072266 104.19426727294922 C 83.5432357788086 108.98855590820312 80.5232162475586 115.66189575195312 79.87985229492188 118.0848159790039 C 77.68022918701172 124.78170776367188 63.648948669433594 160.97366333007812 64.04226684570312 167.08184814453125 C 61.163734436035156 169.59823608398438 58.79368591308594 168.3979034423828 53.82354736328125 165.33932495117188" stroke-width="0.0" fill="rgb(249, 252, 252)" opacity="0.9952985"/>
    <path d="M 61.883094787597656 164.69522094726562 C 58.51927185058594 157.33827209472656 59.518795013427734 152.34339904785156 66.46920013427734 137.84799194335938 C 69.97341918945312 130.35386657714844 73.73583984375 122.84721374511719 75.35491943359375 121.26168060302734 C 79.58146667480469 115.81275939941406 85.40888214111328 104.3174057006836 87.23483276367188 98.22382354736328 L 88.84076690673828 92.78446960449219 L 144.40623474121094 92.68859100341797 L 159.3860626220703 122.75286865234375 C 174.89820861816406 153.93455505371094 176.35678100585938 157.62588500976562 172.42596435546875 162.3485107421875 C 168.6522216796875 168.5328369140625 169.03689575195312 168.37026977539062 114.29911804199219 168.08663940429688 L 63.39211654663086 168.23348999023438 L 61.883094787597656 164.69522094726562" stroke-width="1.0" fill="rgb(64, 32, 255)" opacity="0.98335195"/>
    <path d="M 78.0179443359375 127.09071350097656 C 76.7525634765625 125.08882904052734 76.79367065429688 124.65541076660156 78.40740966796875 122.78916931152344 C 81.2916488647461 120.30366516113281 85.35551452636719 122.30754089355469 84.69376373291016 125.6484375 C 83.99256134033203 129.4882049560547 80.5163345336914 129.91586303710938 78.0179443359375 127.09071350097656" stroke-width="1.0" fill="rgb(243, 253, 249)" opacity="0.977479"/>
  </g>
</svg>
