<?xml version="1.0" encoding="UTF-8"?>
<svg xmlns="http://www.w3.org/2000/svg" version="1.1" viewBox="0 0 224 224">
  <defs>
    <style>
      .cls-1 {
        fill: #fffefb;
        opacity: 1;
      }

      .cls-1, .cls-2, .cls-3, .cls-4, .cls-5, .cls-6, .cls-7, .cls-8, .cls-9 {
        isolation: isolate;
      }

      .cls-2 {
        fill: #8eb000;
        opacity: 1;
      }

      .cls-3 {
        fill: #0a0b0b;
        opacity: 1;
      }

      .cls-4 {
        fill: #8ba900;
        opacity: 1;
      }

      .cls-5 {
        fill: #fffefc;
        opacity: 1;
      }

      .cls-6 {
        fill: #fbfcfb;
        opacity: 1;
      }

      .cls-7 {
        fill: #d97a06;
        opacity: 1;
      }

      .cls-8 {
        fill: #8ba800;
        opacity: 1;
      }

      .cls-9 {
        fill: #fcfcfb;
        opacity: 1;
      }
    </style>
  </defs>
  <!-- Generator: Adobe Illustrator 28.6.0, SVG Export Plug-In . SVG Version: 1.2.0 Build 709)  -->
  <g>
    <g id="_图层_1" data-name="图层_1">
      <g>
        <path class="cls-3" d="M72.2,195.2c-12.4-4.6-17.2-17.8-10.6-28.8,3.3-4.5,8-7.3,16.2-7.9,3.7.3,6.3.3,7.2,0-.6-.4-2.6-1.9-4.4-4.3-4.6-5.5-4.3-7.8-4.3-22.9,0-11.8,2.3-12.4-.1-11.9-5.2,0-14.9-5.4-18.2-9.8-7-9.6-9.4-11.7-8.8-33.4,0-18.7.4-18.7,2.6-22.3,3.4-5.8,6.3-7.2,13.3-7.9,5.9.4,7,1.1,10.3,3.1,5.3,4.6,7.4,7.2,6.9,22.3-.3,12.5-.7,14,1.2,16.2,1.4,1.8,3.3,3.7,3.9,4.1.9,0,.5-1.3.7-20.9-.7-22.6.9-23.1,6.3-30.4,12.2-12.6,34.6-10,42,6.1,1.7,3.7,2.8,5.4,2.6,24.3,0,11.7,0,21.1,0,20.6,1-.4,4.4-3.7,5.3-5.5.8-.6,1.2-5.9.6-12.4l1.1-9.2,3.4-4.3c6.6-5.5,16.2-4.9,22.1,1.2,3.6,4.3,3.8,6.8,3.4,21.9,0,10.7-.5,12.6-2.6,17.3-4.3,9.4-11.7,15.7-21.2,18.1l-4.4,1.1.5,11.8c.1,15.2.2,18.4-4.4,23.5-1.7,1.7-3.5,3.2-2.9,4.4.4-1.1,1.8-1,5.7-1,18.1,0,26,20.6,12.6,32.6-1.9,1.7-5.3,2.8-7.8,4.3-4.4.3-75.3.5-78.3-.3"/>
        <path class="cls-6" d="M86.1,149c-1.9,0-2.1-6.7-1.6-14-.3-9.9.2-12.9,2.1-11.7,1.3-.6,2,4.3,1.8,13.6.1,13-.3,17.2-2.3,12.1"/>
        <path class="cls-2" d="M101.8,155.7c-1.7-1.3-3.2-3.8-4-4.9-1-2.4-1.2-96.6.1-100.3,2.7-6,8.6-9.7,16.1-9.8,8.1-.2,14.5,4.5,17.2,12.2.3,2.4.2,19.5,0,50.7v46.7s-3,4.1-3,4.1l-3,4.1-10.6.5h-10.6c0,.1-2.2-3.2-2.2-3.2"/>
        <path class="cls-4" d="M73.7,111c-6.1-2.1-11-6.6-14.2-12.6-2.1-4.4-2.4-5.6-2.4-22.7,0-16.9.1-17.4,2.6-19.9,3.2-2.6,8.5-2.6,11.5.2,2.1,2.3,2.4,3,2.8,13.5-.5,15.3.6,20,5.3,25,1.8,2.4,4.6,4.6,6.3,5.2,2.6,1.1,2.8,1.5,2.8,6.5.1,4.9-.2,5.6-2.2,5.8-3.6,1.2-7.4,1-12.5-.9"/>
        <path class="cls-8" d="M140.1,111.7c-1.3-.7-1.9-2.1-1.7-6.1.1-4.9,0-5.1,3-6.5,4.2-1.6,9.6-8.1,11.1-12.2.2-2.4.6-7.3.5-11.4.2-6.7.6-8.3,2.3-9.8,2.3-2.4,5.3-2.3,8.8.1,2.4,1.8,2.4,1.9,2.4,15.1-.1,12.5-.2,13.9-2.3,18.4-3.1,5.9-7.9,10.1-14,11.8-5.6,1.6-8,1.7-10.3.4"/>
        <path class="cls-7" d="M73,185.7c-1.1-1.6-2.1-5.1-2.1-7.8-.5-3.9-.1-5.5,2-7.6l2.2-4h36.2c26.1-.1,37.7,0,39.7.8,5.9,3.1,7.1,12.7,2.5,17.9l-3.2,3.2-37.9.4h-37.6s-1.9-2.7-1.9-2.7"/>
        <path class="cls-9" d="M74.7,187.9c-3.3-.3-7.5-4.9-8.1-8.9-1.5-6.4,4.2-13.4,10.4-12.8,1.4-.6,1.8,0-.3,3.6-2.6,4.8-2.7,10.2,0,15,.9,2.1,1.4,3.8.6,3.8-.1,0-1.4-.3-2.6-.6"/>
        <path class="cls-5" d="M79.1,176.7c-1.3-2.7,1.1-4,8.1-4.1,6.4,0,9.4,1.5,6.9,4.2-1.3,2.4-14.5,2.1-15.1,0"/>
        <path class="cls-1" d="M127.9,175.4c.2-1.8,1.1-2.2,4.7-2.7,3.1,0,5.1.5,5.9,1.4,1.9,2.9.2,4.1-5.5,4.1-5.3-.2-5.7-.6-5.1-2.8"/>
      </g>
    </g>
  </g>
</svg>