<?xml version="1.0" ?>
<svg xmlns="http://www.w3.org/2000/svg" version="1.1" width="224" height="224">
  <defs/>
  <g>
    <path d="M 53.40700912475586 193.274658203125 C 47.01034927368164 190.7116241455078 41.088348388671875 185.24658203125 39.15097427368164 179.39382934570312 C 36.621742248535156 175.06944274902344 35.312103271484375 173.59927368164062 36.15324401855469 144.62503051757812 L 36.22499084472656 115.17967987060547 L 38.15413284301758 112.23639678955078 C 41.09506607055664 112.92778015136719 42.15826416015625 110.54912567138672 41.75719451904297 108.01976776123047 C 41.45478439331055 105.18277740478516 41.10306167602539 103.90607452392578 38.55488586425781 103.63386535644531 C 35.54318618774414 101.99020385742188 35.99595642089844 100.81671905517578 36.00393295288086 93.2488784790039 C 35.86603546142578 85.66194152832031 35.51058578491211 81.38141632080078 39.33457946777344 80.93769836425781 C 40.14760971069336 79.13101196289062 39.85609436035156 79.34681701660156 38.03035354614258 78.54100036621094 C 35.589595794677734 76.64810943603516 35.09318923950195 70.06292724609375 37.63664245605469 67.53257751464844 C 39.50691223144531 67.26886749267578 40.97150421142578 65.84823608398438 40.927303314208984 65.06989288330078 C 39.817283630371094 65.07792663574219 39.774261474609375 64.61111450195312 36.87777328491211 63.86880874633789 C 35.336021423339844 61.73439407348633 35.384246826171875 53.14835739135742 37.29485321044922 46.10986328125 C 39.40346908569336 40.115203857421875 45.64885711669922 33.296302795410156 52.408348083496094 31.13060760498047 C 56.702510833740234 28.0 58.23883819580078 28.73345947265625 111.58477783203125 28.56726837158203 L 165.8297119140625 28.8212890625 L 171.55764770507812 31.58202362060547 C 174.42098999023438 32.098655700683594 178.89019775390625 34.88762664794922 180.60272216796875 37.46508026123047 C 188.9068145751953 46.21913528442383 188.09458923339844 42.96879577636719 187.9578399658203 113.11355590820312 L 187.71554565429688 171.94073486328125 L 183.780029296875 181.5111083984375 C 181.14498901367188 185.65927124023438 178.0076141357422 188.9641571044922 174.2037353515625 191.55636596679688 L 164.29354858398438 195.66387939453125 L 113.5191650390625 196.0 L 59.736427307128906 195.42709350585938 L 53.40700912475586 193.274658203125" stroke-width="0.0" fill="rgb(21, 21, 26)" opacity="0.9955196"/>
    <path d="M 61.95154571533203 189.27481079101562 C 54.2940559387207 187.9829559326172 49.57944107055664 182.79608154296875 47.81476593017578 175.4908447265625 C 47.4393310546875 172.33831787109375 47.168357849121094 142.6650390625 47.190887451171875 109.23426055908203 C 47.68498229980469 37.823692321777344 47.00634765625 43.496192932128906 59.06329345703125 38.525901794433594 L 65.61551666259766 35.23724365234375 L 115.85696411132812 35.28880310058594 L 165.41815185546875 35.30091094970703 L 169.48675537109375 37.4200439453125 C 172.23812866210938 38.19544982910156 175.6055145263672 41.332733154296875 176.85964965820312 43.91954803466797 L 181.36920166015625 48.98981857299805 L 181.721435546875 109.7851333618164 C 181.28451538085938 143.55734252929688 181.77847290039062 173.17559814453125 180.25799560546875 173.3402099609375 C 179.495849609375 176.91860961914062 172.9048614501953 185.31033325195312 168.15533447265625 187.18389892578125 L 163.056884765625 189.755126953125 L 114.61244201660156 190.02325439453125 C 86.79450988769531 189.91412353515625 63.11021423339844 190.11251831054688 61.95154571533203 189.27481079101562" stroke-width="0.0" fill="rgb(132, 138, 247)" opacity="0.9970218"/>
    <path d="M 103.2898941040039 179.1837921142578 C 84.75419616699219 169.31832885742188 69.88134765625 148.79566955566406 63.379791259765625 123.845947265625 C 60.872352600097656 116.14430236816406 62.3917350769043 85.09371185302734 62.87639236450195 82.6775894165039 C 66.1982192993164 80.16033172607422 68.3342056274414 82.25322723388672 68.82549285888672 86.84243774414062 C 68.00442504882812 90.54618072509766 68.74211883544922 90.51549530029297 74.71395874023438 91.83340454101562 C 79.85255432128906 92.6304702758789 80.84331512451172 92.76675415039062 84.36349487304688 91.7927474975586 L 88.71036529541016 90.38084411621094 L 88.5994873046875 73.85778045654297 C 88.42701721191406 57.63926315307617 89.56277465820312 56.858726501464844 91.93223571777344 53.188297271728516 C 97.68669891357422 44.488861083984375 112.83202362060547 41.363853454589844 123.59860229492188 46.341732025146484 C 126.28466796875 47.503211975097656 129.8349609375 50.00590515136719 130.9986114501953 52.032291412353516 L 134.466064453125 56.84025192260742 L 135.20883178710938 73.16996002197266 L 134.919677734375 90.50415802001953 L 139.0139617919922 91.71644592285156 C 143.13673400878906 93.13229370117188 149.38406372070312 92.46383666992188 153.83111572265625 90.63797760009766 C 155.8097686767578 90.39231872558594 156.17965698242188 89.343505859375 155.56956481933594 86.94165802001953 C 155.6685791015625 84.7355728149414 156.42005920410156 82.74739074707031 157.48306274414062 82.0557861328125 C 159.11663818359375 81.53518676757812 159.31610107421875 81.74671173095703 161.22006225585938 82.51940155029297 C 162.31045532226562 84.0582275390625 161.7567901611328 88.50163269042969 161.879638671875 101.42939758300781 C 162.86557006835938 115.71085357666016 162.094970703125 119.6018295288086 160.12777709960938 125.92343139648438 C 155.671875 143.02560424804688 143.99740600585938 161.78225708007812 131.9260711669922 171.32122802734375 C 125.60337829589844 176.5439453125 113.66463470458984 183.18777465820312 111.56671142578125 182.7686004638672 C 110.57282257080078 183.04652404785156 107.19915008544922 181.32797241210938 103.2898941040039 179.1837921142578" stroke-width="1.0" fill="rgb(23, 25, 24)" opacity="0.9867108"/>
    <path d="M 58.28830337524414 187.73948669433594 C 53.45942306518555 186.86221313476562 48.082115173339844 183.12217712402344 45.445552825927734 178.16848754882812 L 42.388214111328125 173.53717041015625 L 42.21511459350586 143.8953094482422 C 42.83562088012695 126.2778091430664 42.060096740722656 109.52360534667969 41.09646987915039 106.96156311035156 C 39.34727478027344 83.10160064697266 38.790863037109375 68.07928466796875 41.158626556396484 63.15882873535156 C 42.440834045410156 59.80592727661133 42.83124923706055 55.789222717285156 42.146183013916016 53.83523178100586 C 42.56145095825195 43.13501739501953 52.05963134765625 34.581024169921875 65.5276870727539 35.28776550292969 C 69.68096923828125 35.18675994873047 68.56085968017578 36.449134826660156 62.199066162109375 38.89720916748047 C 57.97526550292969 40.68284606933594 55.671016693115234 42.36114501953125 53.80528259277344 44.80720901489258 L 53.58481216430664 48.44607925415039 L 52.58614730834961 111.60494995117188 L 51.929176330566406 175.45567321777344 L 53.09089279174805 180.05429077148438 C 55.21574401855469 182.03488159179688 57.2252197265625 184.90597534179688 59.09102249145508 185.58486938476562 C 64.05207824707031 188.8409881591797 63.37776184082031 190.72198486328125 58.28830337524414 187.73948669433594" stroke-width="0.0" fill="rgb(166, 180, 248)" opacity="1.0"/>
    <path d="M 107.39253234863281 174.67503356933594 C 100.37922668457031 171.04830932617188 95.8591537475586 167.58749389648438 89.47679901123047 161.15933227539062 C 75.34818267822266 145.6675567626953 66.35746765136719 122.470947265625 68.259033203125 105.03375244140625 L 68.88134765625 98.3967056274414 L 112.56779479980469 97.2736587524414 L 154.9676055908203 98.37660217285156 L 155.80142211914062 108.45738220214844 C 155.92848205566406 120.53014373779297 154.38690185546875 126.87416076660156 148.4866943359375 139.60018920898438 C 143.7036590576172 149.88485717773438 135.7303466796875 160.54202270507812 129.2303009033203 165.6469268798828 C 125.04464721679688 169.33758544921875 113.29620361328125 176.61337280273438 111.90065002441406 176.49581909179688 C 111.63615417480469 176.63323974609375 109.62646484375 175.5568084716797 107.39253234863281 174.67503356933594" stroke-width="1.0" fill="rgb(223, 215, 0)" opacity="0.9957137"/>
    <path d="M 95.18590545654297 86.00471496582031 L 95.03882598876953 80.10061645507812 L 128.78660583496094 80.46394348144531 L 128.40455627441406 91.03497314453125 L 95.04793548583984 91.16510009765625 L 95.18590545654297 86.00471496582031" stroke-width="1.0" fill="rgb(224, 213, 0)" opacity="0.9966451"/>
    <path d="M 94.99507904052734 67.1368408203125 C 94.99234008789062 55.62581253051758 99.84765625 50.92631530761719 111.49880981445312 50.56191635131836 C 124.01617431640625 50.876312255859375 129.29147338867188 55.782554626464844 129.27191162109375 67.57772827148438 L 129.1217498779297 73.98280334472656 L 95.3788833618164 74.10545349121094 L 94.99507904052734 67.1368408203125" stroke-width="1.0" fill="rgb(225, 211, 0)" opacity="0.9941246"/>
    <path d="M 38.349266052246094 102.3453598022461 C 36.1890754699707 100.76152801513672 36.52752685546875 83.42546081542969 38.6611442565918 81.66883850097656 C 39.74519729614258 80.7413558959961 40.416011810302734 80.51939392089844 41.36872482299805 81.70941925048828 C 42.36538314819336 82.66873931884766 42.90591812133789 85.09068298339844 42.55786895751953 92.15345764160156 C 42.83806610107422 100.32756805419922 42.14638137817383 103.6622543334961 39.989906311035156 103.80204772949219 C 39.393367767333984 103.42330932617188 38.64555358886719 102.88363647460938 38.349266052246094 102.3453598022461" stroke-width="1.0" fill="rgb(25, 28, 33)" opacity="0.9676661"/>
    <path d="M 36.72584915161133 77.97128295898438 C 35.46704864501953 76.65399169921875 36.095237731933594 68.34391784667969 37.666282653808594 67.15895080566406 C 41.16610336303711 64.13787841796875 43.9598388671875 71.46106719970703 41.93596267700195 77.27725219726562 C 41.2222785949707 78.92420196533203 38.27741622924805 79.38827514648438 36.72584915161133 77.97128295898438" stroke-width="1.0" fill="rgb(26, 29, 32)" opacity="0.9560386"/>
    <path d="M 107.74307250976562 151.93887329101562 C 106.0819091796875 150.877197265625 103.4651870727539 147.95120239257812 101.90116119384766 144.935546875 C 99.38912200927734 139.43252563476562 99.00262451171875 139.08090209960938 92.66670989990234 138.34230041503906 C 90.48283386230469 137.9032745361328 87.85460662841797 136.8997039794922 86.24942779541016 135.20584106445312 C 84.3176498413086 132.3501434326172 84.00318145751953 131.34129333496094 84.83731079101562 121.2872314453125 C 83.99998474121094 114.12380981445312 84.43453979492188 110.43402862548828 86.01679229736328 109.51828002929688 C 89.95681762695312 104.67880249023438 100.74330139160156 103.13304901123047 106.74797821044922 106.87617492675781 C 108.96714782714844 108.41592407226562 111.16055297851562 108.91156768798828 112.4863510131836 109.09600830078125 C 112.92926025390625 109.10309600830078 115.40968322753906 108.14181518554688 117.41017150878906 106.56237030029297 C 123.99208068847656 103.3279800415039 135.20297241210938 104.92449951171875 137.94049072265625 109.44580078125 C 139.12881469726562 110.19495391845703 139.63546752929688 115.58081817626953 138.96018981933594 121.33536529541016 C 140.30816650390625 135.39328002929688 138.93255615234375 136.92002868652344 127.31306457519531 139.17779541015625 C 125.19096374511719 139.16583251953125 123.6593017578125 140.65786743164062 122.98780822753906 142.7249755859375 C 120.81092071533203 147.16558837890625 113.86109161376953 154.07623291015625 111.911865234375 154.07376098632812 C 111.08985900878906 154.2091827392578 109.03178405761719 153.2843017578125 107.74307250976562 151.93887329101562" stroke-width="1.0" fill="rgb(23, 24, 30)" opacity="0.9949646"/>
    <path d="M 102.7411117553711 62.520721435546875 C 103.00032806396484 60.9390869140625 104.55172729492188 60.246036529541016 106.33976745605469 60.003257751464844 C 111.09984588623047 60.478607177734375 110.54936218261719 64.42626953125 105.56727600097656 64.70393371582031 C 102.81259155273438 64.69194030761719 102.26341247558594 64.38125610351562 102.7411117553711 62.520721435546875" stroke-width="1.0" fill="rgb(255, 255, 249)" opacity="0.9872551"/>
    <path d="M 107.10718536376953 141.2025604248047 C 103.23455047607422 134.3234100341797 102.48070526123047 133.72640991210938 96.11012268066406 132.40673828125 L 90.75968933105469 131.33074951171875 L 91.44173431396484 121.73409271240234 L 90.97651672363281 112.14935302734375 L 95.3442153930664 111.18792724609375 C 99.28459167480469 110.59390258789062 100.65747833251953 110.82500457763672 104.8995361328125 112.85407257080078 C 110.83638763427734 116.1543960571289 114.01917266845703 116.2139892578125 118.390380859375 113.25674438476562 C 120.7251968383789 111.57089233398438 122.861328125 111.07738494873047 127.22831726074219 111.34776306152344 L 132.47802734375 112.05661010742188 L 132.39834594726562 121.77349853515625 C 133.2196044921875 130.7366485595703 133.44720458984375 131.03048706054688 130.45907592773438 131.90603637695312 C 121.71627807617188 133.56988525390625 120.75732421875 134.2670135498047 116.47078704833984 142.05723571777344 C 115.0033187866211 144.4565887451172 113.01042175292969 146.22889709472656 111.79130554199219 146.65338134765625 C 110.8619384765625 146.46055603027344 108.77980041503906 144.04762268066406 107.10718536376953 141.2025604248047" stroke-width="1.0" fill="rgb(32, 148, 254)" opacity="0.9992583"/>
    <path d="M 97.54312896728516 122.29437255859375 C 95.1739501953125 120.24223327636719 96.55046844482422 118.4472885131836 99.89369201660156 118.13499450683594 C 103.08483123779297 117.56173706054688 105.3790283203125 120.49617767333984 102.9426498413086 122.5992431640625 C 101.08601379394531 124.12039947509766 99.33576965332031 124.08080291748047 97.54312896728516 122.29437255859375" stroke-width="1.0" fill="rgb(245, 255, 253)" opacity="0.9838662"/>
  </g>
</svg>
