<?xml version="1.0" ?>
<svg xmlns="http://www.w3.org/2000/svg" version="1.1" width="224" height="224">
  <defs/>
  <g>
    <path d="M 31.92302703857422 112.0 C 31.92302703857422 112.0 31.92302703857422 112.0 31.92302703857422 112.0 C 32.03325653076172 123.57357025146484 34.39936065673828 134.95872497558594 39.264129638671875 145.48516845703125 C 53.864410400390625 177.07415771484375 88.22315979003906 196.0 122.72566223144531 191.36163330078125 C 131.07293701171875 190.23928833007812 139.2295379638672 187.78155517578125 146.8082275390625 184.107666015625 C 155.5226593017578 179.88412475585938 163.4491424560547 174.06829833984375 170.1102752685547 167.0392608642578 C 176.7833251953125 159.99681091308594 182.1724090576172 151.75155639648438 185.91632080078125 142.799560546875 C 189.9871826171875 133.0670166015625 192.07696533203125 122.54878234863281 192.07696533203125 112.0 C 192.07696533203125 101.45121765136719 189.9879150390625 90.9322280883789 185.91632080078125 81.19821166992188 C 182.1724090576172 72.2469482421875 176.7833251953125 64.00096130371094 170.1102752685547 56.95925521850586 C 163.4491424560547 49.930206298828125 155.5226593017578 44.1143798828125 146.8082275390625 39.890846252441406 C 139.2295379638672 36.217689514160156 131.07293701171875 33.759979248046875 122.72566223144531 32.63762664794922 C 88.22390747070312 28.0 53.86514663696289 46.923614501953125 39.26487731933594 78.51185607910156 C 34.39936065673828 89.03904724121094 32.03325653076172 100.4256820678711 31.92302703857422 112.0 C 31.92302703857422 112.0 31.92302703857422 112.0 31.92302703857422 112.0" stroke-width="0.0" fill="rgb(0, 0, 0)" opacity="1.0"/>
    <path d="M 101.98856353759766 46.10065460205078 C 101.98856353759766 55.83243179321289 101.98856353759766 65.56346130371094 101.98856353759766 75.29524230957031 C 108.66161346435547 75.29524230957031 115.33541107177734 75.29524230957031 122.00845336914062 75.29524230957031 C 122.00845336914062 65.56346130371094 122.00845336914062 55.83243179321289 122.00845336914062 46.10065460205078 C 143.71896362304688 49.64720153808594 162.67758178710938 63.440155029296875 172.18890380859375 83.38557434082031 C 175.00558471679688 89.29226684570312 176.8421630859375 95.53931427001953 177.89599609375 101.98818969726562 C 168.16421508789062 101.98818969726562 158.4331817626953 101.98818969726562 148.70140075683594 101.98818969726562 C 148.70140075683594 108.66123962402344 148.70140075683594 115.33502960205078 148.70140075683594 122.0080795288086 C 158.4331817626953 122.0080795288086 168.16421508789062 122.0080795288086 177.89599609375 122.0080795288086 C 174.35018920898438 143.7185821533203 160.5572509765625 162.67794799804688 140.61106872558594 172.18853759765625 C 134.70437622070312 175.00521850585938 128.4580841064453 176.841796875 122.00845336914062 177.8956298828125 C 122.00845336914062 168.16384887695312 122.00845336914062 158.43280029296875 122.00845336914062 148.70103454589844 C 115.33541107177734 148.70103454589844 108.66161346435547 148.70103454589844 101.98856353759766 148.70103454589844 C 101.98856353759766 158.43280029296875 101.98856353759766 168.16384887695312 101.98856353759766 177.8956298828125 C 95.53968811035156 176.842529296875 89.29264068603516 175.00521850585938 83.38595581054688 172.18853759765625 C 63.44053268432617 162.6772003173828 49.64757537841797 143.7185821533203 46.10102844238281 122.0080795288086 C 55.83280944824219 122.0080795288086 65.5638427734375 122.0080795288086 75.29562377929688 122.0080795288086 C 75.29562377929688 115.33502960205078 75.29562377929688 108.66123962402344 75.29562377929688 101.98818969726562 C 65.5638427734375 101.98818969726562 55.83280944824219 101.98818969726562 46.10102844238281 101.98818969726562 C 47.15486145019531 95.53931427001953 48.9914436340332 89.29226684570312 51.80812454223633 83.38557434082031 C 61.319454193115234 63.440155029296875 80.27806091308594 49.64720153808594 101.98856353759766 46.10065460205078 C 101.98856353759766 46.10065460205078 101.98856353759766 46.10065460205078 101.98856353759766 46.10065460205078" stroke-width="0.0" fill="rgb(254, 254, 254)" opacity="1.0"/>
  </g>
</svg>
