<?xml version="1.0" ?>
<svg xmlns="http://www.w3.org/2000/svg" version="1.1" width="224" height="224">
  <defs/>
  <g>
    <path d="M 189.66580200195312 108.29194641113281 C 189.66580200195312 108.29194641113281 189.66580200195312 108.29194641113281 189.66580200195312 108.29194641113281 C 191.26193237304688 109.01063537597656 191.73513793945312 109.56513977050781 191.26272583007812 111.31616973876953 C 186.45803833007812 117.66663360595703 181.65415954589844 124.01710510253906 176.8494873046875 130.36756896972656 C 181.65415954589844 136.72035217285156 186.45803833007812 143.07313537597656 191.26272583007812 149.42593383789062 C 191.75836181640625 151.26292419433594 190.90725708007812 152.79864501953125 188.84722900390625 152.28054809570312 C 180.70468139648438 148.0419921875 172.56137084960938 143.80421447753906 164.41883850097656 139.565673828125 C 155.67068481445312 143.2806854248047 146.39126586914062 145.99667358398438 137.19546508789062 148.32156372070312 C 102.99666595458984 156.97059631347656 61.813899993896484 159.72607421875 32.95258331298828 135.79876708984375 C 32.89991760253906 135.65936279296875 32.847259521484375 135.52072143554688 32.795372009277344 135.38133239746094 C 32.99053192138672 135.174560546875 33.18646240234375 134.9677734375 33.381622314453125 134.76100158691406 C 39.004886627197266 134.7764892578125 44.62814712524414 134.79197692871094 50.250633239746094 134.8066864013672 C 51.93040084838867 134.09109497070312 52.196041107177734 132.97047424316406 50.834564208984375 131.74066162109375 C 45.729408264160156 129.159423828125 40.625030517578125 126.57818603515625 35.519874572753906 123.99696350097656 C 35.26507568359375 123.50053405761719 35.1334228515625 122.85774230957031 35.326263427734375 122.33344268798828 C 35.326263427734375 122.33344268798828 35.326263427734375 122.33344268798828 35.326263427734375 122.33344268798828 C 37.99810791015625 119.85289764404297 41.28485870361328 117.90980529785156 44.46706008911133 116.18124389648438 C 51.81733703613281 112.18819427490234 59.8289909362793 109.45362091064453 67.99398803710938 107.70182037353516 C 100.47894287109375 100.73412322998047 134.25643920898438 108.9680404663086 164.41883850097656 121.18183898925781 C 172.56137084960938 116.9556884765625 180.70468139648438 112.72953033447266 188.84722900390625 108.50337219238281 C 189.1198272705078 108.43289947509766 189.39320373535156 108.3624267578125 189.66580200195312 108.29194641113281 C 189.66580200195312 108.29194641113281 189.66580200195312 108.29194641113281 189.66580200195312 108.29194641113281" stroke-width="0.0" fill="rgb(0, 0, 0)" opacity="1.0"/>
    <path d="M 60.06829833984375 115.67320251464844 C 60.06829833984375 115.67320251464844 60.06829833984375 115.67320251464844 60.06829833984375 115.67320251464844 C 57.77206039428711 115.9527816772461 55.900997161865234 116.90380096435547 54.903507232666016 119.12258911132812 C 53.190433502197266 122.93209838867188 55.59276580810547 128.01246643066406 60.06829833984375 128.01246643066406 C 64.55389404296875 128.01246643066406 67.00733947753906 122.96385192871094 65.27412414550781 119.12258911132812 C 64.26734924316406 116.89141082763672 62.37614822387695 115.95122528076172 60.06829833984375 115.67320251464844 C 60.06829833984375 115.67320251464844 60.06829833984375 115.67320251464844 60.06829833984375 115.67320251464844" stroke-width="0.0" fill="rgb(254, 254, 254)" opacity="1.0"/>
    <path d="M 135.5606231689453 64.27392578125 C 135.5606231689453 71.21297454833984 135.5606231689453 78.15202331542969 135.5606231689453 85.091064453125 C 151.9479217529297 85.091064453125 168.335205078125 85.091064453125 184.72250366210938 85.091064453125 C 187.1705322265625 84.90055084228516 189.31344604492188 84.24149322509766 191.1597137451172 82.54080963134766 C 196.0 78.08309936523438 195.53765869140625 69.68576049804688 190.06387329101562 65.93976593017578 C 188.4135284423828 64.80984497070312 186.67953491210938 64.42804718017578 184.72250366210938 64.27702331542969 C 168.335205078125 64.27702331542969 151.9479217529297 64.27702331542969 135.5606231689453 64.27702331542969 C 135.5606231689453 64.27702331542969 135.5606231689453 64.27392578125 135.5606231689453 64.27392578125" stroke-width="0.0" fill="rgb(0, 0, 0)" opacity="1.0"/>
    <path d="M 27.99999237060547 64.27702331542969 C 27.99999237060547 64.31806945800781 27.99999237060547 64.35911560058594 27.99999237060547 64.40093994140625 C 32.07048797607422 70.94036865234375 38.45502853393555 75.41435241699219 44.98671340942383 79.26490020751953 C 46.48294448852539 78.60197448730469 47.979949951171875 77.93827056884766 49.47695541381836 77.27457427978516 C 50.410945892333984 78.9744873046875 51.345703125 80.67362213134766 52.27968215942383 82.37275695800781 C 53.78675842285156 81.21263885498047 55.29305648803711 80.0525131225586 56.80012893676758 78.89239501953125 C 57.877384185791016 80.49394989013672 58.95464324951172 82.09550476074219 60.031898498535156 83.69705963134766 C 61.47391891479492 82.45330047607422 62.916709899902344 81.21031188964844 64.35873413085938 79.966552734375 C 65.52815246582031 81.48601531982422 66.69756317138672 83.00625610351562 67.86697387695312 84.52649688720703 C 69.23077392578125 83.20063781738281 70.5945816040039 81.87555694580078 71.95760345458984 80.5497055053711 C 73.19749450683594 81.9979248046875 74.43661499023438 83.44613647460938 75.67649841308594 84.89512634277344 C 76.98841094970703 83.50112915039062 78.30110168457031 82.10711669921875 79.6130142211914 80.7131118774414 C 80.9249267578125 82.10711669921875 82.23606872558594 83.50112915039062 83.54720306396484 84.89512634277344 C 84.85834503173828 83.50112915039062 86.16948699951172 82.10711669921875 87.48062133789062 80.7131118774414 C 88.78014373779297 82.10711669921875 90.07966613769531 83.50112915039062 91.37918853759766 84.89512634277344 C 92.69110107421875 83.50112915039062 94.0037841796875 82.10711669921875 95.31570434570312 80.7131118774414 C 96.62297058105469 82.10711669921875 97.93023681640625 83.50112915039062 99.23750305175781 84.89512634277344 C 100.5494155883789 83.50112915039062 101.86210632324219 82.10711669921875 103.17401885986328 80.7131118774414 C 104.48516082763672 82.10711669921875 105.79707336425781 83.50112915039062 107.10820770263672 84.89512634277344 C 108.40695190429688 83.50112915039062 109.70647430419922 82.10711669921875 111.0052261352539 80.7131118774414 C 112.31791687011719 82.10711669921875 113.62982940673828 83.50112915039062 114.94251251220703 84.89512634277344 C 116.25442504882812 83.50112915039062 117.5671157836914 82.10711669921875 118.8790283203125 80.7131118774414 C 120.19017028808594 82.10711669921875 121.50131225585938 83.50112915039062 122.81321716308594 84.89512634277344 C 124.34817504882812 83.50112915039062 125.88312530517578 82.10711669921875 127.41807556152344 80.7131118774414 C 128.97393798828125 82.10789489746094 130.52981567382812 83.50267791748047 132.08644104003906 84.89822387695312 C 132.08644104003906 78.02423095703125 132.08644104003906 71.1502456665039 132.08644104003906 64.27702331542969 C 97.39044189453125 64.27702331542969 62.695220947265625 64.27702331542969 27.99999237060547 64.27702331542969" stroke-width="0.0" fill="rgb(0, 0, 0)" opacity="1.0"/>
  </g>
</svg>
