<?xml version="1.0" ?>
<svg xmlns="http://www.w3.org/2000/svg" version="1.1" width="224" height="224">
  <defs/>
  <g>
    <path d="M 37.08501434326172 167.32962036132812 C 36.88261413574219 167.81204223632812 36.79271697998047 148.05474853515625 36.801414489746094 124.74168395996094 L 36.76206970214844 83.4310302734375 L 33.07933044433594 83.36852264404297 C 29.844215393066406 83.31185913085938 29.26708984375 83.13175964355469 28.702125549316406 81.5826644897461 C 28.267288208007812 80.14340209960938 28.0 79.21163940429688 28.167091369628906 78.90571594238281 C 28.61060333251953 78.85594940185547 37.56305694580078 74.2352523803711 48.075660705566406 68.68022155761719 C 58.591064453125 63.175193786621094 68.14822387695312 58.14632797241211 69.17088317871094 57.682621002197266 C 69.90001678466797 56.77737808227539 70.88858795166016 56.42207717895508 71.94392395019531 56.187965393066406 C 73.295166015625 56.818275451660156 116.21397399902344 79.63224792480469 116.53168487548828 79.89979553222656 C 116.47681427001953 82.38890838623047 114.73876953125 83.72406005859375 111.70169830322266 83.13194274902344 L 107.97480773925781 82.8222885131836 L 108.1848373413086 167.60435485839844 L 72.98667907714844 167.71188354492188 C 53.61365509033203 167.52633666992188 37.993896484375 167.368896484375 37.08501434326172 167.32962036132812" stroke-width="1.0" fill="rgb(1, 1, 0)" opacity="0.9959667"/>
    <path d="M 113.44932556152344 143.21585083007812 L 113.62692260742188 119.27218627929688 L 174.5174560546875 119.2662582397461 L 174.64950561523438 143.26962280273438 L 174.5468292236328 167.67457580566406 L 113.35940551757812 167.7034912109375 L 113.44932556152344 143.21585083007812" stroke-width="1.0" fill="rgb(0, 0, 0)" opacity="0.99988335"/>
    <path d="M 179.07554626464844 130.8811798095703 L 179.1321563720703 94.98970794677734 L 159.33053588867188 94.92534637451172 L 159.2182159423828 84.8009033203125 L 179.0202178955078 84.88726806640625 L 178.97378540039062 82.6445541381836 C 178.85208129882812 79.58865356445312 180.37734985351562 78.20747375488281 182.89920043945312 77.82703399658203 C 185.23655700683594 78.18729400634766 185.67933654785156 78.7783432006836 185.44927978515625 80.3083724975586 C 183.67337036132812 81.90987396240234 183.7819061279297 85.76184844970703 185.6796112060547 86.33202362060547 C 185.99021911621094 86.59313201904297 185.65357971191406 101.52867889404297 185.9636688232422 127.37969970703125 L 185.93560791015625 167.64700317382812 L 179.04779052734375 167.6585235595703 L 179.07554626464844 130.8811798095703" stroke-width="1.0" fill="rgb(0, 0, 0)" opacity="0.9994517"/>
    <path d="M 190.24563598632812 125.87825775146484 C 190.3162841796875 103.16509246826172 189.43234252929688 83.94824981689453 191.57513427734375 83.61109161376953 C 191.24700927734375 82.36878204345703 190.969482421875 81.13265228271484 189.78738403320312 80.57942962646484 C 189.55795288085938 78.720947265625 189.9525146484375 77.99313354492188 191.64889526367188 78.04800415039062 L 196.0 79.46823120117188 L 195.9999237060547 122.71310424804688 L 195.67373657226562 167.7681884765625 L 190.2296142578125 167.62852478027344 L 190.24563598632812 125.87825775146484" stroke-width="1.0" fill="rgb(1, 1, 1)" opacity="0.995048"/>
    <path d="M 62.862483978271484 128.31715393066406 L 62.88298416137695 100.34596252441406 L 81.80889892578125 100.31869506835938 L 82.15815734863281 156.07958984375 L 62.8731689453125 156.1530303955078 L 62.862483978271484 128.31715393066406" stroke-width="1.0" fill="rgb(252, 254, 254)" opacity="0.9971087"/>
    <path d="M 43.142578125 122.34912872314453 L 43.17383575439453 89.45242309570312 L 48.18061065673828 89.19422912597656 L 48.1845703125 156.00094604492188 L 43.07855987548828 155.98922729492188 L 43.142578125 122.34912872314453" stroke-width="1.0" fill="rgb(248, 250, 249)" opacity="0.9797963"/>
    <path d="M 96.97997283935547 155.85205078125 C 96.91140747070312 156.04965209960938 96.95477294921875 140.62937927246094 96.99478149414062 122.26847076416016 L 96.98654174804688 89.38459777832031 L 102.2418441772461 89.69004821777344 L 102.23894500732422 122.50638580322266 C 102.08422088623047 155.85140991210938 102.70538330078125 156.86729431152344 101.13185119628906 156.0291290283203 C 99.33802795410156 156.28648376464844 98.50650024414062 156.1323699951172 96.97997283935547 155.85205078125" stroke-width="1.0" fill="rgb(251, 253, 253)" opacity="0.9934815"/>
    <path d="M 119.13790893554688 130.91070556640625 C 119.01513671875 125.84516906738281 119.37405395507812 126.37360382080078 122.49977111816406 126.39249420166016 C 125.4283218383789 126.00668334960938 125.57665252685547 125.80284118652344 125.39041137695312 131.01840209960938 C 125.35688018798828 135.93374633789062 124.99604034423828 135.62420654296875 121.97473907470703 134.9268798828125 C 119.01518249511719 135.11158752441406 118.83809661865234 135.70941162109375 119.13790893554688 130.91070556640625" stroke-width="1.0" fill="rgb(250, 252, 252)" opacity="0.9892685"/>
    <path d="M 129.12367248535156 130.62869262695312 C 128.7799835205078 125.85674285888672 129.6026611328125 126.29876708984375 133.03314208984375 126.67182159423828 C 136.63975524902344 126.34733581542969 136.72108459472656 125.99696350097656 136.66688537597656 130.7677001953125 L 136.90257263183594 135.4180450439453 L 128.7675323486328 135.19480895996094 L 129.12367248535156 130.62869262695312" stroke-width="1.0" fill="rgb(249, 251, 251)" opacity="0.9833873"/>
    <path d="M 140.44338989257812 130.7394256591797 L 140.5150909423828 126.64042663574219 L 147.85150146484375 126.73002624511719 L 147.87881469726562 135.30221557617188 L 140.37026977539062 135.15267944335938 L 140.44338989257812 130.7394256591797" stroke-width="1.0" fill="rgb(250, 251, 252)" opacity="0.98677355"/>
    <path d="M 151.75660705566406 130.949462890625 L 151.72215270996094 126.4072494506836 L 159.26068115234375 126.58086395263672 L 159.25430297851562 135.20291137695312 L 151.8488311767578 135.17657470703125 L 151.75660705566406 130.949462890625" stroke-width="1.0" fill="rgb(250, 252, 252)" opacity="0.9891863"/>
    <path d="M 162.64706420898438 133.79185485839844 C 162.364501953125 133.23089599609375 162.45343017578125 130.9981231689453 162.68190002441406 129.28817749023438 C 162.48504638671875 126.47972106933594 163.00860595703125 126.26715087890625 166.46826171875 126.4698715209961 L 169.91259765625 126.33182525634766 L 170.03665161132812 135.35023498535156 L 166.46994018554688 135.158447265625 C 164.41307067871094 135.46987915039062 163.07656860351562 134.94924926757812 162.64706420898438 133.79185485839844" stroke-width="1.0" fill="rgb(250, 252, 253)" opacity="0.9893859"/>
  </g>
</svg>
