<?xml version="1.0" ?>
<svg xmlns="http://www.w3.org/2000/svg" version="1.1" width="224" height="224">
  <defs/>
  <g>
    <path d="M 52.12691879272461 181.35008239746094 C 48.57820129394531 178.44261169433594 49.431331634521484 169.20248413085938 53.58004379272461 160.8812255859375 C 61.8344841003418 143.91880798339844 78.31736755371094 130.33139038085938 96.18855285644531 125.88549041748047 C 102.04235076904297 124.64057159423828 102.61753845214844 124.77115631103516 103.68864440917969 126.46871948242188 C 104.54715728759766 127.4899673461914 106.39116668701172 129.17898559570312 108.22230529785156 129.9430389404297 C 111.36775207519531 131.98838806152344 111.53711700439453 135.02792358398438 109.48933410644531 142.6307373046875 C 104.3488540649414 160.7411651611328 89.36372375488281 175.0404052734375 69.37313842773438 181.2481689453125 C 59.89505386352539 184.26296997070312 54.40895080566406 184.45458984375 52.12691879272461 181.35008239746094" stroke-width="1.0" fill="rgb(0, 0, 0)" opacity="0.9990905"/>
    <path d="M 154.84449768066406 181.27716064453125 C 136.29989624023438 175.08477783203125 122.35301208496094 162.5348358154297 116.4593276977539 146.15577697753906 C 114.1902847290039 140.31439208984375 113.27487182617188 130.8076934814453 115.1891098022461 130.85372924804688 C 115.73519897460938 130.87228393554688 117.7384033203125 129.6736297607422 119.6568603515625 127.85335540771484 L 122.79217529296875 124.96671295166016 L 128.09523010253906 125.98173522949219 C 146.34271240234375 130.52723693847656 161.50979614257812 142.8651123046875 170.0387725830078 159.7519073486328 C 174.7465057373047 169.7646026611328 175.84097290039062 178.11239624023438 172.5081329345703 181.33953857421875 C 170.2781219482422 184.37255859375 164.34642028808594 184.1256561279297 154.84449768066406 181.27716064453125" stroke-width="1.0" fill="rgb(0, 0, 0)" opacity="0.99852383"/>
    <path d="M 68.89563751220703 125.63861846923828 C 56.824668884277344 123.74748992919922 46.61354064941406 118.18399810791016 37.9110107421875 108.88536071777344 C 30.175262451171875 100.53556060791016 28.0 94.46927642822266 31.706802368164062 91.05192565917969 C 37.298622131347656 85.45533752441406 55.409828186035156 84.17451477050781 68.06936645507812 87.970458984375 C 81.55073547363281 91.92941284179688 94.20182800292969 100.82888793945312 100.787109375 110.662353515625 C 103.43818664550781 113.72384643554688 103.52781677246094 114.78390502929688 102.09125518798828 117.40306091308594 C 100.19676208496094 124.00884246826172 83.49940490722656 128.06597900390625 68.89563751220703 125.63861846923828" stroke-width="1.0" fill="rgb(0, 0, 0)" opacity="0.9986022"/>
    <path d="M 136.52468872070312 125.26488494873047 C 129.2494354248047 123.59976959228516 123.70459747314453 120.74523162841797 122.48377227783203 117.38463592529297 C 121.19281005859375 115.21863555908203 121.19967651367188 114.42135620117188 123.02973175048828 111.4122085571289 C 126.32553100585938 105.20597076416016 137.26492309570312 95.8611831665039 145.80062866210938 91.72573852539062 C 160.75234985351562 84.49262237548828 180.05538940429688 83.70049285888672 190.37242126464844 89.63252258300781 C 195.72622680664062 92.5405044555664 196.0 96.41334533691406 191.61744689941406 103.14877319335938 C 185.10140991210938 113.68135833740234 171.47589111328125 122.78388977050781 157.8925018310547 125.41615295410156 C 149.54415893554688 126.80370330810547 143.99765014648438 126.91432189941406 136.52468872070312 125.26488494873047" stroke-width="1.0" fill="rgb(0, 0, 0)" opacity="0.9994193"/>
    <path d="M 102.80345916748047 107.60617065429688 C 91.77481079101562 95.88339233398438 89.75055694580078 80.64198303222656 95.77403259277344 61.632205963134766 C 99.67513275146484 49.394920349121094 107.00281524658203 39.54541778564453 112.09135437011719 39.90678405761719 C 119.92217254638672 39.834312438964844 130.47720336914062 60.18403625488281 131.8933563232422 78.24720764160156 C 132.41358947753906 88.85337829589844 129.7217254638672 97.45836639404297 123.25729370117188 105.29655456542969 L 118.46935272216797 110.7440414428711 L 112.09198760986328 110.49362182617188 C 106.22128295898438 111.58277130126953 105.74272155761719 111.18168640136719 102.80345916748047 107.60617065429688" stroke-width="1.0" fill="rgb(0, 0, 0)" opacity="0.9991473"/>
  </g>
</svg>
