<?xml version="1.0" ?>
<svg xmlns="http://www.w3.org/2000/svg" version="1.1" width="224" height="224">
  <defs/>
  <g>
    <path d="M 80.84861755371094 181.6903839111328 C 53.86091613769531 172.32574462890625 33.98017120361328 146.91860961914062 30.596107482910156 117.38180541992188 C 28.0 92.11293029785156 35.91581726074219 68.91351318359375 53.5917854309082 50.92720031738281 C 57.95302200317383 46.89948272705078 62.574954986572266 42.798458099365234 64.16612243652344 42.01054382324219 L 67.15986633300781 40.05419158935547 L 70.20805358886719 45.032936096191406 L 73.92234802246094 50.93419647216797 L 68.45831298828125 55.84293746948242 C 59.75298309326172 63.56996154785156 53.27473831176758 73.6201400756836 49.67665481567383 85.05953216552734 L 47.760196685791016 90.68557739257812 L 52.25886917114258 91.1065902709961 L 57.676090240478516 90.65097045898438 L 58.0585823059082 94.01880645751953 L 58.04013442993164 97.94972229003906 L 46.717262268066406 97.97340393066406 L 46.474708557128906 102.87539672851562 C 46.212242126464844 105.68665313720703 45.926109313964844 109.7620620727539 46.16655731201172 111.8198471069336 L 46.13713073730469 117.12261962890625 L 72.09239196777344 116.7085952758789 L 98.05160522460938 116.68911743164062 L 97.82699584960938 136.12051391601562 C 97.92710876464844 146.4709014892578 97.19244384765625 157.90956115722656 96.06144714355469 162.64825439453125 C 94.36329650878906 172.2725830078125 90.61630249023438 183.61764526367188 89.35661315917969 183.91567993164062 C 88.46076965332031 183.8985595703125 84.68257904052734 182.90135192871094 80.84861755371094 181.6903839111328" stroke-width="1.0" fill="rgb(0, 0, 0)" opacity="0.9994816"/>
    <path d="M 125.83555603027344 178.89378356933594 C 121.1614761352539 167.33921813964844 119.84151458740234 152.40213012695312 120.21243286132812 128.1397247314453 L 120.27117156982422 116.79092407226562 L 171.40679931640625 116.81513977050781 L 171.83053588867188 108.70654296875 C 171.74276733398438 104.13945007324219 171.3912811279297 99.69430541992188 171.16688537597656 99.12327575683594 C 171.15780639648438 97.82676696777344 169.8905029296875 97.57091522216797 165.93789672851562 98.01570129394531 L 160.3187255859375 97.78150939941406 L 160.1678009033203 91.04400634765625 L 164.99029541015625 90.83432006835938 C 169.90924072265625 91.86325073242188 170.63067626953125 91.06502532958984 168.17291259765625 84.60723114013672 C 164.99012756347656 73.62216186523438 158.09820556640625 63.13492202758789 149.64602661132812 55.478885650634766 L 144.35687255859375 50.5728759765625 L 147.39834594726562 45.3041877746582 C 148.97097778320312 42.90301513671875 150.3488311767578 40.53471755981445 150.36062622070312 40.401546478271484 C 150.93392944335938 39.74464416503906 160.74871826171875 47.34717559814453 166.06251525878906 52.872520446777344 C 174.77386474609375 62.4576416015625 180.30398559570312 71.41776275634766 184.3170623779297 83.82582092285156 C 196.0 121.26011657714844 179.04229736328125 161.24327087402344 145.08251953125 178.26504516601562 C 140.44097900390625 180.4183807373047 130.44052124023438 183.9227294921875 128.27731323242188 184.25535583496094 C 127.91458892822266 183.75363159179688 126.89925384521484 181.2315673828125 125.83555603027344 178.89378356933594" stroke-width="1.0" fill="rgb(0, 0, 0)" opacity="0.99957365"/>
    <path d="M 85.89381408691406 82.89678955078125 L 73.12422180175781 69.79270935058594 L 81.1398696899414 69.54229736328125 L 88.85560607910156 69.43218231201172 L 98.89891052246094 79.77207946777344 L 109.14208221435547 90.3930892944336 L 119.13504791259766 79.75904083251953 L 129.1215057373047 69.43702697753906 L 137.2295379638672 69.67509460449219 L 144.72593688964844 69.69146728515625 L 132.0038299560547 82.94300842285156 L 119.19340515136719 96.34487915039062 L 98.80607604980469 96.41256713867188 L 85.89381408691406 82.89678955078125" stroke-width="1.0" fill="rgb(0, 0, 0)" opacity="1.0"/>
    <path d="M 94.26203918457031 67.87464141845703 C 94.1029281616211 66.7096176147461 107.87970733642578 40.52786636352539 108.84830474853516 40.08669662475586 C 109.42572784423828 40.0625114440918 124.48702239990234 67.1028060913086 124.30919647216797 68.25285339355469 C 124.77400970458984 67.9821548461914 117.75786590576172 68.06812286376953 109.5142822265625 67.95704650878906 C 100.74769592285156 68.3201675415039 94.02110290527344 68.05503845214844 94.26203918457031 67.87464141845703" stroke-width="1.0" fill="rgb(1, 1, 0)" opacity="0.99658936"/>
  </g>
</svg>
