<?xml version="1.0" ?>
<svg xmlns="http://www.w3.org/2000/svg" version="1.1" width="224" height="224">
  <defs/>
  <g>
    <path d="M 94.51426696777344 128.49644470214844 C 106.09461975097656 128.49644470214844 117.67496490478516 128.49644470214844 129.25531005859375 128.49644470214844 C 129.25531005859375 134.89190673828125 129.25531005859375 141.287353515625 129.25531005859375 147.68280029296875 C 137.9134521484375 152.74578857421875 146.57159423828125 157.80780029296875 155.22877502441406 162.87078857421875 C 162.4670867919922 167.22625732421875 169.17645263671875 172.921875 172.41641235351562 180.9464111328125 C 173.79592895507812 184.36300659179688 175.41734313964844 189.20616149902344 171.63211059570312 191.7318878173828 C 170.44461059570312 192.52386474609375 170.0010986328125 192.43460083007812 168.63214111328125 192.63812255859375 C 130.79898071289062 192.63812255859375 92.96676635742188 192.63812255859375 55.133602142333984 192.63812255859375 C 53.76561737060547 192.43460083007812 53.32402420043945 192.52386474609375 52.13843536376953 191.7318878173828 C 48.32823944091797 189.18887329101562 50.00149917602539 184.3658905029297 51.40212631225586 180.9464111328125 C 54.6766471862793 172.94683837890625 61.29961013793945 167.23104858398438 68.54080963134766 162.87078857421875 C 77.19798278808594 157.80780029296875 85.85613250732422 152.74578857421875 94.51426696777344 147.68280029296875 C 94.51426696777344 141.287353515625 94.51426696777344 134.89190673828125 94.51426696777344 128.49644470214844" stroke-width="0.0" fill="rgb(224, 233, 237)" opacity="1.0"/>
    <path d="M 94.51426696777344 135.68580627441406 C 94.51426696777344 135.68580627441406 94.51426696777344 135.68580627441406 94.51426696777344 135.68580627441406 C 92.26502227783203 136.29443359375 91.76102447509766 136.79843139648438 91.15238952636719 139.0476837158203 C 91.15238952636719 141.287353515625 91.15238952636719 143.5279541015625 91.15238952636719 145.76760864257812 C 83.04432678222656 150.50515747070312 74.9362564086914 155.24270629882812 66.82723236083984 159.98025512695312 C 58.35052490234375 165.10179138183594 50.7042121887207 172.07611083984375 47.608245849609375 181.77200317382812 C 46.01850891113281 186.75242614746094 46.06938934326172 192.4442138671875 51.44148254394531 195.09185791015625 C 52.97938537597656 195.84927368164062 53.459381103515625 195.77536010742188 55.133602142333984 196.0 C 92.96676635742188 196.0 130.79898071289062 196.0 168.63214111328125 196.0 C 169.99917602539062 195.8656005859375 170.36683654785156 195.92031860351562 171.662841796875 195.43264770507812 C 177.67332458496094 193.171875 177.98147583007812 187.02890014648438 176.25253295898438 181.77200317382812 C 173.0826416015625 172.1337127685547 165.50738525390625 165.1459503173828 157.0729217529297 159.98025512695312 C 148.96485900878906 155.24270629882812 140.85678100585938 150.50515747070312 132.7487030029297 145.76760864257812 C 132.7487030029297 143.5279541015625 132.7487030029297 141.287353515625 132.7487030029297 139.0476837158203 C 132.5960693359375 138.48226928710938 132.58168029785156 137.85922241210938 132.29080200195312 137.35137939453125 C 131.03897094726562 135.16644287109375 127.74044799804688 135.16836547851562 126.48766326904297 137.35137939453125 C 126.19583129882812 137.85922241210938 126.18142700195312 138.48226928710938 126.02879333496094 139.0476837158203 C 126.02879333496094 141.9257354736328 126.02879333496094 144.80474853515625 126.02879333496094 147.68280029296875 C 126.30815124511719 148.76661682128906 126.89566040039062 149.80628967285156 127.67804718017578 150.60691833496094 C 131.11578369140625 152.61233520507812 134.55445861816406 154.61679077148438 137.99217224121094 156.62220764160156 C 127.9804458618164 160.15017700195312 117.96775817871094 163.67909240722656 107.955078125 167.20704650878906 C 105.71542358398438 166.401611328125 103.47480773925781 165.59523010253906 101.23515319824219 164.789794921875 C 107.1928482055664 158.6410675048828 113.15149688720703 152.49330139160156 119.10919189453125 146.34552001953125 C 117.49640655517578 144.78843688964844 115.88362884521484 143.2313232421875 114.27084350585938 141.6751708984375 C 110.49617004394531 145.57273864746094 106.72149658203125 149.47125244140625 102.9477767944336 153.36880493164062 C 101.0325927734375 152.1707305908203 99.11741638183594 150.97268676757812 97.20223999023438 149.7746124267578 C 97.59391784667969 149.13429260253906 97.88191223144531 148.4171905517578 98.04127502441406 147.68280029296875 C 98.04127502441406 144.80474853515625 98.04127502441406 141.9257354736328 98.04127502441406 139.0476837158203 C 97.59583282470703 136.86370849609375 96.71744537353516 136.02565002441406 94.51426696777344 135.68580627441406 C 94.51426696777344 135.68580627441406 94.51426696777344 135.68580627441406 94.51426696777344 135.68580627441406" stroke-width="0.0" fill="rgb(208, 225, 232)" opacity="1.0"/>
    <path d="M 90.75111389160156 153.79600524902344 C 93.1702880859375 155.29647827148438 95.5885009765625 156.79788208007812 98.0076675415039 158.29835510253906 C 96.70880889892578 159.66537475585938 95.40898132324219 161.0314483642578 94.10916137695312 162.39846801757812 C 90.4141616821289 161.06503295898438 86.71820068359375 159.7316131591797 83.02320098876953 158.39913940429688 C 85.59886169433594 156.86508178710938 88.17546844482422 155.33006286621094 90.75111389160156 153.79600524902344" stroke-width="0.0" fill="rgb(223, 232, 238)" opacity="1.0"/>
    <path d="M 145.48489379882812 161.0525665283203 C 149.0224609375 163.15972900390625 152.5609588623047 165.2659454345703 156.0994873046875 167.37216186523438 C 146.2989501953125 169.61277770996094 136.4993896484375 171.85244750976562 126.69886016845703 174.09304809570312 C 123.74209594726562 172.9737091064453 120.78437805175781 171.8543701171875 117.82760620117188 170.73403930664062 C 127.04637908935547 167.50753784179688 136.26515197753906 164.28004455566406 145.48489379882812 161.0525665283203" stroke-width="0.0" fill="rgb(223, 232, 237)" opacity="1.0"/>
    <path d="M 75.4287338256836 162.7325439453125 C 100.06877136230469 171.5797882080078 124.70880889892578 180.4280242919922 149.34884643554688 189.2762451171875 C 142.7527618408203 189.27719116210938 136.1557159423828 189.2781524658203 129.55963134765625 189.2800750732422 C 109.39986419677734 181.69711303710938 89.2391357421875 174.11512756347656 69.07936096191406 166.53314208984375 C 71.19613647460938 165.2659454345703 73.31195068359375 163.998779296875 75.4287338256836 162.7325439453125" stroke-width="0.0" fill="rgb(223, 232, 237)" opacity="1.0"/>
    <path d="M 62.5620002746582 171.26588439941406 C 64.52229309082031 172.0060272216797 66.48258972167969 172.74522399902344 68.44288635253906 173.48538208007812 C 63.60358810424805 178.62612915039062 58.76523971557617 183.767822265625 53.92593765258789 188.9085693359375 C 52.501312255859375 187.10952758789062 53.42386245727539 185.26443481445312 54.15537643432617 183.25326538085938 C 55.88047409057617 178.5118865966797 58.825721740722656 174.60952758789062 62.55815887451172 171.26971435546875 C 62.55815887451172 171.26971435546875 62.55815887451172 171.26971435546875 62.55815887451172 171.26971435546875 C 62.55815887451172 171.26971435546875 62.5620002746582 171.26588439941406 62.5620002746582 171.26588439941406" stroke-width="0.0" fill="rgb(223, 232, 238)" opacity="1.0"/>
    <path d="M 162.7886962890625 172.77593994140625 C 162.7886962890625 172.77786254882812 162.7886962890625 172.77882385253906 162.7886962890625 172.77978515625 C 165.79345703125 175.84310913085938 168.19247436523438 179.25970458984375 169.65069580078125 183.32525634765625 C 170.1162872314453 184.6231689453125 171.2778778076172 187.04043579101562 170.361083984375 188.40936279296875 C 170.0615692138672 188.8557586669922 169.455810546875 188.9901580810547 169.003662109375 189.2800750732422 C 158.80088806152344 185.606201171875 148.59716796875 181.9332733154297 138.39344787597656 178.2593994140625 C 146.52552795410156 176.43157958984375 154.6575927734375 174.603759765625 162.7886962890625 172.77593994140625" stroke-width="0.0" fill="rgb(223, 232, 237)" opacity="1.0"/>
    <path d="M 75.23001098632812 176.13494873046875 C 78.68021392822266 177.43380737304688 82.12945556640625 178.733642578125 85.57965087890625 180.033447265625 C 81.33362579345703 183.11502075195312 77.08854675292969 186.19754028320312 72.84252166748047 189.2800750732422 C 69.4835205078125 189.2800750732422 66.1235580444336 189.2800750732422 62.764556884765625 189.2800750732422 C 66.91938781738281 184.89772033691406 71.07518005371094 180.51634216308594 75.23001098632812 176.13494873046875" stroke-width="0.0" fill="rgb(223, 232, 237)" opacity="1.0"/>
    <path d="M 93.10501098632812 182.85487365722656 C 98.8831787109375 184.99659729003906 104.6613540649414 187.13833618164062 110.44049072265625 189.2800750732422 C 101.69306945800781 189.2800750732422 92.94660949707031 189.2800750732422 84.1991958618164 189.2800750732422 C 87.1684341430664 187.13833618164062 90.13671875 184.99659729003906 93.10501098632812 182.85487365722656" stroke-width="0.0" fill="rgb(223, 232, 237)" opacity="1.0"/>
    <path d="M 111.88335418701172 28.0 C 111.88335418701172 28.0 111.88335418701172 28.0 111.88335418701172 28.0 C 106.3922119140625 28.14208221435547 101.02587890625 28.992630004882812 95.84385681152344 30.862693786621094 C 80.81139373779297 36.28662872314453 69.14944458007812 49.161041259765625 65.47748565673828 64.7406997680664 C 63.66502380371094 72.43212890625 64.07781982421875 80.52676391601562 64.56166076660156 88.35546875 C 65.16932678222656 98.19439697265625 66.6889877319336 107.71076965332031 71.06077575683594 116.62714385986328 C 78.73973083496094 132.28744506835938 93.19429016113281 147.7163848876953 111.88335418701172 147.7163848876953 C 129.887939453125 147.7163848876953 144.01226806640625 133.32232666015625 151.83233642578125 118.35992431640625 C 156.76956176757812 108.91268157958984 158.54554748535156 98.91631317138672 159.1848907470703 88.35355377197266 C 159.6255340576172 81.06915283203125 160.0421600341797 73.50540161132812 158.60025024414062 66.30836486816406 C 155.3785400390625 50.22758483886719 143.76266479492188 36.64470672607422 128.3817138671875 30.95868682861328 C 123.0595474243164 28.991676330566406 117.53865051269531 28.116165161132812 111.88335418701172 28.0 C 111.88335418701172 28.0 111.88335418701172 28.0 111.88335418701172 28.0" stroke-width="0.0" fill="rgb(224, 233, 238)" opacity="1.0"/>
    <path d="M 92.23526000976562 35.825836181640625 C 92.23526000976562 35.825836181640625 92.23526000976562 35.825836181640625 92.23526000976562 35.825836181640625 C 78.45173645019531 43.005584716796875 69.5823974609375 55.873287200927734 67.76802062988281 71.3079833984375 C 71.27389526367188 78.70086669921875 74.77977752685547 86.09373474121094 78.28565979003906 93.48661804199219 C 76.98583984375 100.88813018798828 75.68696594238281 108.29060363769531 74.38810729980469 115.69307708740234 C 77.48118591308594 121.64981079101562 81.1867446899414 127.23503112792969 85.90797424316406 132.03689575195312 C 89.43496704101562 135.62245178222656 93.4755630493164 138.75584411621094 97.99999237060547 140.9820556640625 C 100.69468688964844 142.3078155517578 103.55640411376953 143.30523681640625 106.5112533569336 143.85435485839844 C 124.35169219970703 147.17401123046875 139.46095275878906 133.32423400878906 147.66981506347656 118.93303680419922 C 149.27685546875 116.115478515625 150.8358612060547 113.14142608642578 151.93505859375 110.08290100097656 C 154.87454223632812 101.90379333496094 155.85467529296875 92.81269836425781 156.00155639648438 84.17855834960938 C 153.87423706054688 83.46240997314453 151.7469024658203 82.74530029296875 149.6186065673828 82.02818298339844 C 151.79202270507812 81.32162475585938 153.9644775390625 80.61604309082031 156.13693237304688 79.91044616699219 C 156.13693237304688 70.77519226074219 155.1068572998047 62.243770599365234 150.61026000976562 54.10786437988281 C 142.31021118164062 39.091712951660156 125.57567596435547 30.063018798828125 108.46867370605469 31.37244415283203 C 102.77306365966797 31.808273315429688 97.391357421875 33.414337158203125 92.23526000976562 35.825836181640625 C 92.23526000976562 35.825836181640625 92.23526000976562 35.825836181640625 92.23526000976562 35.825836181640625" stroke-width="0.0" fill="rgb(224, 233, 238)" opacity="1.0"/>
    <path d="M 67.80162048339844 71.3079833984375 C 67.80162048339844 71.3079833984375 67.80162048339844 71.3079833984375 67.80162048339844 71.3079833984375 C 67.1641845703125 86.21853637695312 67.6451416015625 102.09770965576172 74.38426208496094 115.69307708740234 C 101.58843231201172 105.18791961669922 128.79356384277344 94.68179321289062 155.9977264404297 84.17567443847656 C 155.9977264404297 82.75393676757812 155.9977264404297 81.33219146728516 155.9977264404297 79.91044616699219 C 126.59902954101562 77.04295349121094 97.20032501220703 74.17547607421875 67.80162048339844 71.3079833984375" stroke-width="0.0" fill="rgb(224, 232, 237)" opacity="1.0"/>
    <path d="M 111.88335418701172 34.71992492675781 C 111.88335418701172 34.71992492675781 111.88335418701172 34.71992492675781 111.88335418701172 34.71992492675781 C 121.092529296875 34.92247772216797 129.4175567626953 37.74388885498047 136.8488311767578 43.18702697753906 C 127.40733337402344 43.08527374267578 117.96680450439453 42.984474182128906 108.52531433105469 42.882713317871094 C 107.15828704833984 40.396331787109375 105.791259765625 37.91093444824219 104.42423248291016 35.424560546875 C 106.91732788085938 35.0069580078125 109.35665893554688 34.77656555175781 111.88335418701172 34.71992492675781 C 111.88335418701172 34.71992492675781 111.88335418701172 34.71992492675781 111.88335418701172 34.71992492675781" stroke-width="0.0" fill="rgb(239, 243, 246)" opacity="1.0"/>
    <path d="M 97.73695373535156 37.204376220703125 C 101.00859832763672 43.09678649902344 104.27928161621094 48.988243103027344 107.54996490478516 54.880653381347656 C 97.96926879882812 53.732505798339844 88.39242553710938 52.483558654785156 78.78677368164062 51.55525207519531 C 78.78677368164062 51.55525207519531 78.78677368164062 51.55525207519531 78.78677368164062 51.55525207519531 C 83.79119873046875 44.99180603027344 90.06279754638672 40.241783142089844 97.73695373535156 37.204376220703125 C 97.73695373535156 37.204376220703125 97.73695373535156 37.204376220703125 97.73695373535156 37.204376220703125" stroke-width="0.0" fill="rgb(239, 243, 246)" opacity="1.0"/>
    <path d="M 112.32206726074219 49.63623046875 C 122.81666564941406 49.74951171875 133.311279296875 49.86182403564453 143.80491638183594 49.974151611328125 C 146.23751831054688 53.117156982421875 148.19110107421875 56.41279602050781 149.78372192382812 60.05307388305664 C 138.44912719726562 58.653411865234375 127.11549377441406 57.25470733642578 115.7809066772461 55.85504150390625 C 114.62796020507812 53.78242492675781 113.47501373291016 51.709808349609375 112.32206726074219 49.63623046875" stroke-width="0.0" fill="rgb(239, 243, 246)" opacity="1.0"/>
    <path d="M 74.95641326904297 57.86813735961914 C 78.48533630371094 58.1926155090332 82.01329803466797 58.5180549621582 85.5422134399414 58.842525482177734 C 107.69396209716797 61.38265609741211 129.81787109375 64.18391418457031 151.93121337890625 67.03890991210938 C 151.93121337890625 67.03890991210938 151.93121337890625 67.03890991210938 151.93121337890625 67.03890991210938 C 152.4620819091797 69.86224365234375 152.74911499023438 72.63853454589844 152.80865478515625 75.50985717773438 C 152.80865478515625 75.69993591308594 152.80865478515625 75.8900146484375 152.80865478515625 76.08009338378906 C 125.72735595703125 73.49388122558594 98.64606475830078 70.90766906738281 71.56477355957031 68.32145690917969 C 72.30876922607422 64.67829895019531 73.40603637695312 61.266502380371094 74.92282104492188 57.871978759765625 C 74.92282104492188 57.871978759765625 74.92282104492188 57.871978759765625 74.92282104492188 57.871978759765625 C 74.92282104492188 57.871978759765625 74.95641326904297 57.86813735961914 74.95641326904297 57.86813735961914" stroke-width="0.0" fill="rgb(239, 243, 246)" opacity="1.0"/>
    <path d="M 152.20481872558594 89.21658325195312 C 152.20481872558594 89.21658325195312 152.20481872558594 89.21658325195312 152.20481872558594 89.21658325195312 C 151.8169708251953 94.6414794921875 151.03555297851562 99.96942138671875 149.85092163085938 105.27816009521484 C 144.25131225585938 102.37610626220703 138.6516876220703 99.47502136230469 133.0520782470703 96.57393646240234 C 139.4359893798828 94.12116241455078 145.82089233398438 91.66934967041016 152.20481872558594 89.21658325195312" stroke-width="0.0" fill="rgb(239, 243, 246)" opacity="1.0"/>
    <path d="M 124.78752899169922 99.80142211914062 C 132.3589630126953 103.74313354492188 139.93038940429688 107.68484497070312 147.5008544921875 111.6265640258789 C 146.26919555664062 114.27709197998047 144.91177368164062 116.82298278808594 143.4007568359375 119.32471466064453 C 134.1829376220703 113.98237609863281 124.96512603759766 108.6400375366211 115.747314453125 103.29866027832031 C 118.7607192993164 102.13227081298828 121.77412414550781 100.96685028076172 124.78752899169922 99.80142211914062" stroke-width="0.0" fill="rgb(239, 243, 246)" opacity="1.0"/>
    <path d="M 107.68531799316406 106.52230072021484 C 111.3476791381836 108.64964294433594 115.00907135009766 110.77696990966797 118.67047882080078 112.9052734375 C 107.5720443725586 117.49593353271484 96.47264862060547 122.08757019042969 85.37326049804688 126.67823028564453 C 83.04240417480469 123.780029296875 80.95634460449219 120.77237701416016 79.05748748779297 117.57465362548828 C 88.59978485107422 113.89022064208984 98.14302825927734 110.20674133300781 107.68531799316406 106.52230072021484" stroke-width="0.0" fill="rgb(239, 243, 246)" opacity="1.0"/>
    <path d="M 125.99903869628906 117.13978576660156 C 130.4783477783203 119.76151275634766 134.95860290527344 122.38228607177734 139.43887329101562 125.0030517578125 C 136.38226318359375 128.8209228515625 132.98391723632812 132.12904357910156 129.08636474609375 135.08197021484375 C 123.43106079101562 131.01641845703125 117.77481079101562 126.95086669921875 112.11951446533203 122.88531494140625 C 116.74569702148438 120.97013854980469 121.37188720703125 119.0549545288086 125.99903869628906 117.13978576660156" stroke-width="0.0" fill="rgb(239, 243, 246)" opacity="1.0"/>
    <path d="M 105.1634292602539 125.74224853515625 C 111.10960388183594 130.01995849609375 117.05673217773438 134.29766845703125 123.00386810302734 138.57537841796875 C 111.51759338378906 143.29563903808594 99.62236785888672 139.98463439941406 90.68391418457031 131.7200927734375 C 95.5107421875 129.72715759277344 100.33660888671875 127.73422241210938 105.1634292602539 125.74224853515625" stroke-width="0.0" fill="rgb(239, 243, 246)" opacity="1.0"/>
    <path d="M 70.96094512939453 75.03754425048828 C 97.43840026855469 77.62567138671875 123.9148941040039 80.21284484863281 150.39138793945312 82.80001831054688 C 125.61695861816406 92.34326934814453 100.84156036376953 101.88555145263672 76.06712341308594 111.42784881591797 C 72.90684509277344 104.29993438720703 71.98332214355469 96.5662612915039 71.41213989257812 88.84698486328125 C 71.07614135742188 84.30239868164062 70.68062591552734 79.59365844726562 70.96094512939453 75.03754425048828 C 70.96094512939453 75.03754425048828 70.96094512939453 75.03754425048828 70.96094512939453 75.03754425048828" stroke-width="0.0" fill="rgb(238, 200, 157)" opacity="1.0"/>
    <path d="M 83.19120025634766 85.12030792236328 C 83.19120025634766 85.12030792236328 83.19120025634766 85.12030792236328 83.19120025634766 85.12030792236328 C 83.58863830566406 88.12411499023438 84.52654266357422 90.75064086914062 86.78155517578125 92.8866195678711 C 91.6573486328125 97.50608825683594 99.69821166992188 96.90705108642578 103.83672332763672 91.61846923828125 C 105.366943359375 89.66201782226562 105.9525375366211 87.53468322753906 106.272216796875 85.12030792236328 C 98.57886505126953 85.12030792236328 90.88455200195312 85.12030792236328 83.19120025634766 85.12030792236328" stroke-width="0.0" fill="rgb(116, 138, 149)" opacity="1.0"/>
    <path d="M 83.19120025634766 81.7584228515625 C 83.19120025634766 81.7584228515625 83.19120025634766 81.7584228515625 83.19120025634766 81.7584228515625 C 82.62577056884766 81.91105651855469 82.00273895263672 81.92642974853516 81.49490356445312 82.21730041503906 C 78.07157897949219 84.18240356445312 80.31794738769531 87.90907287597656 83.19120025634766 88.47834777832031 C 90.886474609375 88.47834777832031 98.58078002929688 88.47834777832031 106.27605438232422 88.47834777832031 C 108.90930938720703 87.95611572265625 111.0308837890625 85.12510681152344 108.6491470336914 82.74337768554688 C 107.79667663574219 81.89186096191406 107.38484954833984 81.98018646240234 106.272216796875 81.7584228515625 C 98.57886505126953 81.7584228515625 90.88455200195312 81.7584228515625 83.19120025634766 81.7584228515625" stroke-width="0.0" fill="rgb(235, 184, 127)" opacity="1.0"/>
  </g>
</svg>
