<?xml version="1.0" ?>
<svg xmlns="http://www.w3.org/2000/svg" version="1.1" width="224" height="224">
  <defs/>
  <g>
    <path d="M 94.88429260253906 133.4912567138672 C 94.88429260253906 139.5353240966797 94.88429260253906 145.57940673828125 94.88429260253906 151.62246704101562 C 92.43326568603516 153.06849670410156 89.98323059082031 154.51451110839844 87.5322036743164 155.9605255126953 C 95.69930267333984 166.35464477539062 103.86540222167969 176.74977111816406 112.03250122070312 187.14389038085938 C 120.19859313964844 176.74977111816406 128.36468505859375 166.35464477539062 136.5317840576172 155.9605255126953 C 134.082763671875 154.51351928710938 131.6337432861328 153.06549072265625 129.18370056152344 151.61846923828125 C 129.18370056152344 145.57640075683594 129.18370056152344 139.53433227539062 129.18370056152344 133.4912567138672 C 117.75056457519531 133.4912567138672 106.31742858886719 133.4912567138672 94.88429260253906 133.4912567138672" stroke-width="0.0" fill="rgb(235, 184, 127)" opacity="1.0" stroke="rgb(0, 0, 0)" stroke-opacity="1.0" stroke-linecap="round" stroke-linejoin="round"/>
    <path d="M 72.23902893066406 58.762367248535156 C 72.23902893066406 58.762367248535156 72.23902893066406 58.762367248535156 72.23902893066406 58.762367248535156 C 68.58697509765625 61.821407318115234 64.92593383789062 65.47845458984375 62.75191116333008 69.7874984741211 C 59.62687301635742 75.98157501220703 58.6928596496582 83.45965576171875 58.69186019897461 90.29774475097656 C 58.69186019897461 102.19788360595703 58.69186019897461 114.0980224609375 58.69186019897461 125.9981689453125 C 59.20086669921875 131.3892364501953 61.8058967590332 136.3553009033203 66.98796081542969 138.63331604003906 C 69.25798034667969 139.6303253173828 71.88301849365234 140.19134521484375 74.28404235839844 140.7843475341797 C 81.0791244506836 142.45936584472656 88.00021362304688 143.2063751220703 94.99029541015625 143.25537109375 C 106.50443267822266 143.25537109375 118.01956939697266 143.25537109375 129.5347137451172 143.25537109375 C 136.52378845214844 143.2063751220703 143.44387817382812 142.45936584472656 150.23695373535156 140.7843475341797 C 152.63198852539062 140.19334411621094 155.27401733398438 139.6403350830078 157.5330352783203 138.63331604003906 C 162.662109375 136.34629821777344 165.213134765625 131.33624267578125 165.6891326904297 125.9981689453125 C 165.6891326904297 114.0980224609375 165.6891326904297 102.19788360595703 165.6891326904297 90.29774475097656 C 165.68814086914062 83.45866394042969 164.75613403320312 75.98157501220703 161.62908935546875 69.7874984741211 C 159.45506286621094 65.47944641113281 155.7960205078125 61.82340621948242 152.14596557617188 58.762367248535156 C 125.51065826416016 58.762367248535156 98.87434387207031 58.762367248535156 72.23902893066406 58.762367248535156" stroke-width="0.0" fill="rgb(116, 138, 149)" opacity="1.0" stroke="rgb(0, 0, 0)" stroke-opacity="1.0" stroke-linecap="round" stroke-linejoin="round"/>
    <path d="M 112.03250122070312 28.0 C 112.03250122070312 28.0 112.03250122070312 28.0 112.03250122070312 28.0 C 101.58937072753906 28.160003662109375 91.02925109863281 29.001014709472656 81.1561279296875 32.66505432128906 C 77.09008026123047 34.174072265625 72.35601806640625 36.23810577392578 69.40399169921875 39.58313751220703 C 69.40399169921875 39.58313751220703 69.40399169921875 39.58313751220703 69.40399169921875 39.58313751220703 C 69.80999755859375 47.89923858642578 71.17100524902344 56.08933639526367 73.72903442382812 64.02342987060547 C 75.0850601196289 68.22647857666016 76.39607238769531 72.58453369140625 80.81212615966797 74.47955322265625 C 82.34014129638672 75.13456726074219 82.78215026855469 75.0755615234375 84.41717529296875 75.2845687866211 C 102.82738494873047 75.2845687866211 121.23760986328125 75.2845687866211 139.6478271484375 75.2845687866211 C 141.28384399414062 75.0755615234375 141.724853515625 75.13456726074219 143.25387573242188 74.47955322265625 C 147.669921875 72.58552551269531 148.98094177246094 68.22547912597656 150.33694458007812 64.02342987060547 C 152.89598083496094 56.08933639526367 154.25498962402344 47.89923858642578 154.66400146484375 39.58313751220703 C 154.66400146484375 39.58313751220703 154.66400146484375 39.58313751220703 154.66400146484375 39.58313751220703 C 151.7119598388672 36.23810577392578 146.97689819335938 34.174072265625 142.911865234375 32.66505432128906 C 133.03775024414062 29.001014709472656 122.47662353515625 28.160003662109375 112.03250122070312 28.0 C 112.03250122070312 28.0 112.03250122070312 28.0 112.03250122070312 28.0" stroke-width="0.0" fill="rgb(240, 244, 247)" opacity="1.0" stroke="rgb(0, 0, 0)" stroke-opacity="1.0" stroke-linecap="round" stroke-linejoin="round"/>
    <path d="M 123.69063568115234 79.099609375 C 123.69063568115234 79.099609375 123.69063568115234 79.099609375 123.69063568115234 79.099609375 C 107.45844268798828 90.30274200439453 89.05422973632812 97.92583465576172 69.12298583984375 98.21183776855469 C 69.12298583984375 98.21183776855469 69.12298583984375 98.21183776855469 69.12298583984375 98.21183776855469 C 69.91999816894531 106.62194061279297 72.08302307128906 114.59003448486328 76.10406494140625 122.04812622070312 C 79.01810455322266 127.45318603515625 82.66515350341797 132.50225830078125 87.05119323730469 136.810302734375 C 90.27023315429688 139.97235107421875 93.90727996826172 142.74636840820312 97.93733215332031 144.79739379882812 C 101.2293701171875 146.47341918945312 104.78340911865234 147.6544189453125 108.45345306396484 148.12843322753906 C 125.97166442871094 150.387451171875 140.40182495117188 136.27130126953125 148.12692260742188 122.04812622070312 C 150.04495239257812 118.51607513427734 151.64796447753906 114.88204193115234 152.7349853515625 111.00999450683594 C 154.22900390625 105.68792724609375 155.0340118408203 100.25586700439453 155.3620147705078 94.74479675292969 C 155.3620147705078 94.74479675292969 155.3620147705078 94.74479675292969 155.3620147705078 94.74479675292969 C 144.02487182617188 91.10975646972656 133.46875 85.89369201660156 123.69063568115234 79.099609375 C 123.69063568115234 79.099609375 123.69063568115234 79.099609375 123.69063568115234 79.099609375" stroke-width="0.0" fill="rgb(239, 200, 157)" opacity="1.0" stroke="rgb(0, 0, 0)" stroke-opacity="1.0" stroke-linecap="round" stroke-linejoin="round"/>
    <path d="M 87.5322036743164 155.9605255126953 C 81.45513153076172 159.4605712890625 75.37705993652344 162.95962524414062 69.29898834228516 166.45965576171875 C 61.722896575927734 171.06570434570312 54.810813903808594 177.17678833007812 51.82577896118164 185.78387451171875 C 50.73176956176758 188.93792724609375 49.71775436401367 192.84596252441406 53.02479553222656 195.08700561523438 C 54.20980453491211 195.89100646972656 54.659812927246094 195.79800415039062 56.031829833984375 196.0 C 73.53303527832031 196.0 91.03324890136719 196.0 108.53445434570312 196.0 C 109.70046997070312 194.92599487304688 110.86648559570312 193.85198974609375 112.03250122070312 192.77896118164062 C 113.19950866699219 193.85198974609375 114.36752319335938 194.92599487304688 115.53453826904297 196.0 C 133.03475952148438 196.0 150.53594970703125 196.0 168.03616333007812 196.0 C 169.38418579101562 195.7989959716797 169.82119750976562 195.88699340820312 170.98919677734375 195.10498046875 C 174.28224182128906 192.8989715576172 173.33023071289062 189.06192016601562 172.24220275878906 185.92489624023438 C 169.2581787109375 177.31777954101562 162.3450927734375 171.2067108154297 154.76901245117188 166.60064697265625 C 148.68994140625 163.05361938476562 142.61085510253906 159.507568359375 136.5317840576172 155.9605255126953 C 134.05874633789062 159.62457275390625 131.58673095703125 163.28761291503906 129.11370849609375 166.95166015625 C 123.4206314086914 167.81365966796875 117.7265625 168.6766815185547 112.03250122070312 169.5396728515625 C 106.33843231201172 168.6766815185547 100.64436340332031 167.81365966796875 94.9512939453125 166.95166015625 C 92.47826385498047 163.28761291503906 90.00523376464844 159.62457275390625 87.5322036743164 155.9605255126953" stroke-width="0.0" fill="rgb(240, 244, 247)" opacity="1.0" stroke="rgb(0, 0, 0)" stroke-opacity="1.0" stroke-linecap="round" stroke-linejoin="round"/>
    <path d="M 108.53445434570312 169.01368713378906 C 108.53445434570312 169.01368713378906 108.53445434570312 169.01368713378906 108.53445434570312 169.01368713378906 C 108.53445434570312 169.1886749267578 108.53445434570312 169.36468505859375 108.53445434570312 169.5396728515625 C 108.53445434570312 178.35980224609375 108.53445434570312 187.17990112304688 108.53445434570312 196.0 C 110.86748504638672 196.0 113.20150756835938 196.0 115.53453826904297 196.0 C 115.53453826904297 187.17990112304688 115.53453826904297 178.35980224609375 115.53453826904297 169.5396728515625 C 115.53453826904297 169.36468505859375 115.53453826904297 169.1886749267578 115.53453826904297 169.01368713378906 C 114.36852264404297 169.18768310546875 113.20250701904297 169.3616943359375 112.0364990234375 169.53567504882812 C 110.8704833984375 169.3616943359375 109.7044677734375 169.18768310546875 108.5384521484375 169.01368713378906 C 108.5384521484375 169.01368713378906 108.53445434570312 169.01368713378906 108.53445434570312 169.01368713378906" stroke-width="0.0" fill="rgb(224, 233, 238)" opacity="1.0" stroke="rgb(0, 0, 0)" stroke-opacity="1.0" stroke-linecap="round" stroke-linejoin="round"/>
    <path d="M 87.5322036743164 155.9605255126953 C 87.5322036743164 160.25457763671875 87.5322036743164 164.54763793945312 87.5322036743164 168.8416748046875 C 88.1642074584961 172.7597198486328 90.57823944091797 174.64276123046875 94.53328704833984 174.29974365234375 C 100.3663558959961 172.7127227783203 106.19942474365234 171.126708984375 112.03250122070312 169.5396728515625 C 103.86540222167969 165.01364135742188 95.69930267333984 160.486572265625 87.5322036743164 155.9605255126953" stroke-width="0.0" fill="rgb(214, 224, 233)" opacity="1.0" stroke="rgb(0, 0, 0)" stroke-opacity="1.0" stroke-linecap="round" stroke-linejoin="round"/>
    <path d="M 136.5317840576172 155.9605255126953 C 128.36468505859375 160.486572265625 120.19859313964844 165.01364135742188 112.03250122070312 169.5396728515625 C 117.86557006835938 171.126708984375 123.69863891601562 172.7127227783203 129.53070068359375 174.29974365234375 C 133.48574829101562 174.64276123046875 135.9027862548828 172.76171875 136.5317840576172 168.8416748046875 C 136.5317840576172 164.54763793945312 136.5317840576172 160.25457763671875 136.5317840576172 155.9605255126953" stroke-width="0.0" fill="rgb(214, 224, 233)" opacity="1.0" stroke="rgb(0, 0, 0)" stroke-opacity="1.0" stroke-linecap="round" stroke-linejoin="round"/>
    <path d="M 84.66316986083984 111.05199432373047 C 84.66316986083984 111.05199432373047 84.66316986083984 111.05199432373047 84.66316986083984 111.05199432373047 C 81.86013793945312 110.8599853515625 78.93810272216797 113.15701293945312 80.70411682128906 116.21105194091797 C 81.3331298828125 117.30006408691406 81.78013610839844 117.32306671142578 82.84414672851562 117.84207153320312 C 85.42218017578125 118.53107452392578 88.00021362304688 119.21908569335938 90.57823944091797 119.90809631347656 C 93.12427520751953 120.98210906982422 94.07827758789062 122.18712615966797 94.53328704833984 124.91415405273438 C 94.53328704833984 126.25517272949219 94.53328704833984 127.5971908569336 94.53328704833984 128.939208984375 C 94.69229125976562 129.52821350097656 94.70729064941406 130.1762237548828 95.01029205322266 130.7062225341797 C 96.3143081665039 132.9812469482422 99.75234985351562 132.9812469482422 101.05636596679688 130.7062225341797 C 101.35936737060547 130.1762237548828 101.37437438964844 129.52821350097656 101.53337097167969 128.939208984375 C 101.53337097167969 127.5971908569336 101.53337097167969 126.25517272949219 101.53337097167969 124.91415405273438 C 101.0463638305664 119.06908416748047 98.05133056640625 115.15403747558594 92.53826141357422 113.15301513671875 C 89.9132308959961 112.45301055908203 87.28820037841797 111.75299835205078 84.66316986083984 111.05199432373047" stroke-width="0.0" fill="rgb(235, 184, 127)" opacity="1.0" stroke="rgb(0, 0, 0)" stroke-opacity="1.0" stroke-linecap="round" stroke-linejoin="round"/>
    <path d="M 139.71783447265625 111.05199432373047 C 137.13980102539062 111.75299835205078 134.561767578125 112.45301055908203 131.98373413085938 113.15301513671875 C 126.45366668701172 115.1400375366211 123.44563293457031 119.0580825805664 122.95262908935547 124.91415405273438 C 122.95262908935547 126.25517272949219 122.95262908935547 127.5971908569336 122.95262908935547 128.939208984375 C 123.11163330078125 129.52821350097656 123.12663269042969 130.1762237548828 123.43063354492188 130.7062225341797 C 124.73564910888672 132.979248046875 128.17169189453125 132.9822540283203 129.4757080078125 130.7062225341797 C 129.77870178222656 130.1762237548828 129.793701171875 129.52821350097656 129.9527130126953 128.939208984375 C 129.9527130126953 127.5971908569336 129.9527130126953 126.25517272949219 129.9527130126953 124.91415405273438 C 130.39271545410156 122.2291259765625 131.3207244873047 121.02210998535156 133.80274963378906 119.90809631347656 C 136.3807830810547 119.21908569335938 138.9588165283203 118.53107452392578 141.53684997558594 117.84207153320312 C 142.06785583496094 117.53507232666016 142.69386291503906 117.35306549072266 143.12887573242188 116.92105865478516 C 144.99789428710938 115.0650405883789 144.0958709716797 111.73400115966797 141.55584716796875 111.05899047851562 C 140.96383666992188 110.90199279785156 140.33082580566406 111.05499267578125 139.71783447265625 111.05199432373047 C 139.71783447265625 111.05199432373047 139.71783447265625 111.05199432373047 139.71783447265625 111.05199432373047" stroke-width="0.0" fill="rgb(235, 184, 127)" opacity="1.0" stroke="rgb(0, 0, 0)" stroke-opacity="1.0" stroke-linecap="round" stroke-linejoin="round"/>
    <path d="M 112.03250122070312 105.20792388916016 C 112.03250122070312 105.20792388916016 112.03250122070312 105.20792388916016 112.03250122070312 105.20792388916016 C 109.69046783447266 105.84293365478516 109.16746520996094 106.36793518066406 108.53445434570312 108.7109603881836 C 108.53445434570312 110.4369888305664 108.53445434570312 112.16400146484375 108.53445434570312 113.89102172851562 C 108.6934585571289 114.48003387451172 108.70845794677734 115.12803649902344 109.01145935058594 115.65704345703125 C 110.31547546386719 117.93006896972656 113.75251770019531 117.92807006835938 115.05653381347656 115.65604400634766 C 115.36054229736328 115.12603759765625 115.37554168701172 114.4770278930664 115.53453826904297 113.88702392578125 C 115.53453826904297 112.16200256347656 115.53453826904297 110.43598175048828 115.53453826904297 108.7109603881836 C 115.0965347290039 106.51493835449219 114.22752380371094 105.64692687988281 112.03250122070312 105.20792388916016 C 112.03250122070312 105.20792388916016 112.03250122070312 105.20792388916016 112.03250122070312 105.20792388916016" stroke-width="0.0" fill="rgb(235, 184, 127)" opacity="1.0" stroke="rgb(0, 0, 0)" stroke-opacity="1.0" stroke-linecap="round" stroke-linejoin="round"/>
    <path d="M 112.489501953125 40.248146057128906 C 112.489501953125 40.248146057128906 112.489501953125 40.248146057128906 112.489501953125 40.248146057128906 C 110.14647674560547 40.88215637207031 109.62146759033203 41.40715789794922 108.98746490478516 43.74919128417969 C 108.98746490478516 45.70921325683594 108.98746490478516 47.66924285888672 108.98746490478516 49.62925720214844 C 107.03843688964844 49.62925720214844 105.09041595458984 49.62925720214844 103.14139556884766 49.62925720214844 C 102.55338287353516 49.78826141357422 101.90538024902344 49.803260803222656 101.37637329101562 50.10726547241211 C 99.10334014892578 51.411277770996094 99.10533905029297 54.847320556640625 101.37637329101562 56.151336669921875 C 101.90538024902344 56.45534133911133 102.55338287353516 56.470340728759766 103.14139556884766 56.630340576171875 C 105.09041595458984 56.630340576171875 107.03843688964844 56.630340576171875 108.98746490478516 56.630340576171875 C 108.98746490478516 58.578365325927734 108.98746490478516 60.526390075683594 108.98746490478516 62.47541427612305 C 109.1464614868164 63.06341552734375 109.16146087646484 63.71242904663086 109.46546936035156 64.24043273925781 C 110.7704849243164 66.51145935058594 114.2065200805664 66.51345825195312 115.50953674316406 64.24043273925781 C 115.81353759765625 63.71242904663086 115.82853698730469 63.06341552734375 115.987548828125 62.47541427612305 C 115.987548828125 60.526390075683594 115.987548828125 58.578365325927734 115.987548828125 56.630340576171875 C 117.94757080078125 56.630340576171875 119.9075927734375 56.630340576171875 121.86761474609375 56.630340576171875 C 122.45661926269531 56.470340728759766 123.10462951660156 56.45534133911133 123.63363647460938 56.151336669921875 C 125.90766143798828 54.84632110595703 125.90966033935547 51.411277770996094 123.63363647460938 50.10726547241211 C 123.10462951660156 49.803260803222656 122.45661926269531 49.78826141357422 121.86761474609375 49.62925720214844 C 119.9075927734375 49.62925720214844 117.94757080078125 49.62925720214844 115.987548828125 49.62925720214844 C 115.987548828125 47.66924285888672 115.987548828125 45.70921325683594 115.987548828125 43.74919128417969 C 115.55253601074219 41.55316162109375 114.68453216552734 40.6861572265625 112.489501953125 40.248146057128906 C 112.489501953125 40.248146057128906 112.489501953125 40.248146057128906 112.489501953125 40.248146057128906" stroke-width="0.0" fill="rgb(221, 88, 145)" opacity="1.0" stroke="rgb(0, 0, 0)" stroke-opacity="1.0" stroke-linecap="round" stroke-linejoin="round"/>
  </g>
</svg>
