<?xml version="1.0" ?>
<svg xmlns="http://www.w3.org/2000/svg" version="1.1" width="224" height="224">
  <defs/>
  <g>
    <path d="M 67.65813446044922 131.85751342773438 C 67.24313354492188 131.2542724609375 63.97071075439453 131.05947875976562 60.45983123779297 132.35488891601562 C 53.46786117553711 132.72308349609375 50.389404296875 131.30825805664062 45.147762298583984 125.42466735839844 C 42.10769271850586 120.86233520507812 42.45526885986328 120.78915405273438 41.067012786865234 112.60706329345703 C 42.045494079589844 102.83241271972656 44.562232971191406 96.64553833007812 53.42761993408203 88.22207641601562 L 60.612876892089844 83.22758483886719 L 58.784645080566406 78.78217315673828 C 57.80080032348633 77.16351318359375 55.779762268066406 71.40817260742188 53.96723175048828 66.58433532714844 C 48.22121047973633 48.61351776123047 47.56951141357422 41.67999267578125 52.2801399230957 39.64292907714844 C 56.10476303100586 38.775848388671875 59.31198501586914 39.82234191894531 63.31334686279297 43.21080017089844 C 68.55955505371094 48.15071105957031 73.36312103271484 58.23582458496094 75.6331787109375 71.18142700195312 C 76.84420776367188 80.3008041381836 83.56573486328125 79.7943115234375 84.74906158447266 70.21493530273438 C 85.56897735595703 61.96251678466797 89.15392303466797 53.31830596923828 92.7655258178711 47.26084899902344 C 97.28177642822266 40.39198303222656 105.29645538330078 37.24261474609375 109.40219116210938 41.011817932128906 C 112.00520324707031 43.60389709472656 110.7574691772461 54.53600311279297 105.95868682861328 68.03119659423828 C 103.49798583984375 74.35706329345703 101.6096420288086 79.79090881347656 100.99592590332031 81.16944885253906 C 99.9090576171875 82.80093383789062 102.4383316040039 84.80229949951172 107.72122955322266 88.55046844482422 C 115.66070556640625 96.81805419921875 118.05461883544922 102.09725952148438 119.4085693359375 111.45136260986328 C 119.48725128173828 119.73722839355469 117.98096466064453 123.03720092773438 113.9261474609375 127.53880310058594 C 110.23743438720703 131.77980041503906 106.56632232666016 133.23208618164062 99.39915466308594 131.69769287109375 C 96.10114288330078 130.41796875 87.99234008789062 131.8512420654297 81.33685302734375 132.57763671875 C 73.4581298828125 132.97267150878906 68.96869659423828 133.1472930908203 67.65813446044922 131.85751342773438" stroke-width="0.0" fill="rgb(246, 250, 249)" opacity="0.9907086"/>
    <path d="M 40.81526565551758 186.22938537597656 C 34.44792175292969 185.69847106933594 32.61930847167969 183.92721557617188 30.22260284423828 178.97604370117188 C 28.0 174.90228271484375 28.712078094482422 169.50680541992188 31.393146514892578 164.9065704345703 C 32.91172409057617 161.55894470214844 37.88241195678711 158.06985473632812 40.528831481933594 157.68470764160156 C 41.31454086303711 157.68441772460938 42.779537200927734 157.28298950195312 44.23534393310547 156.65829467773438 C 47.83662414550781 153.6185760498047 90.35601806640625 132.93698120117188 92.25153350830078 132.8125 C 93.78964233398438 132.88255310058594 95.9128189086914 134.27969360351562 96.48844909667969 135.6370391845703 C 98.33438873291016 136.5647430419922 101.14704895019531 138.1022186279297 102.80247497558594 139.1085662841797 C 107.23424530029297 140.35354614257812 114.60986328125 147.55538940429688 115.38975524902344 150.59194946289062 C 115.84681701660156 151.9956512451172 116.61660766601562 154.30418395996094 117.64971160888672 155.72601318359375 C 119.63404083251953 158.00071716308594 119.8625259399414 157.75091552734375 126.5461196899414 157.3095703125 C 130.08447265625 157.5654296875 133.66818237304688 157.29335021972656 135.39471435546875 157.25225830078125 C 135.76210021972656 155.42503356933594 134.66883850097656 148.20120239257812 130.60906982421875 125.9211654663086 C 128.4293212890625 116.94951629638672 128.0889434814453 113.7425765991211 132.0764923095703 113.29425811767578 C 134.5446319580078 113.46913146972656 135.47506713867188 119.0020523071289 138.86912536621094 137.0906524658203 C 140.5933074951172 146.48793029785156 142.50296020507812 155.3876953125 142.6580047607422 156.791259765625 C 144.69171142578125 157.73699951171875 149.38865661621094 157.483154296875 150.97119140625 156.38204956054688 C 150.6975860595703 155.298828125 151.20681762695312 152.2576904296875 151.25970458984375 149.18975830078125 L 151.11151123046875 143.02488708496094 L 156.93246459960938 142.51904296875 L 162.647705078125 142.42559814453125 L 163.15394592285156 129.77487182617188 L 163.1700897216797 118.86783599853516 L 171.00057983398438 118.3740234375 C 176.34536743164062 117.83654022216797 178.87789916992188 117.9686050415039 179.52017211914062 118.75619506835938 C 179.76849365234375 119.36407470703125 179.7005615234375 128.35394287109375 179.81112670898438 138.15928649902344 L 179.6390380859375 156.41220092773438 L 185.46182250976562 158.6253662109375 C 194.99545288085938 164.68142700195312 196.0 178.71563720703125 187.29031372070312 184.52188110351562 C 184.96746826171875 186.75738525390625 181.36563110351562 186.3495330810547 116.05915832519531 186.27488708496094 C 77.52388763427734 186.37277221679688 43.93709945678711 186.48085021972656 40.81526565551758 186.22938537597656" stroke-width="0.0" fill="rgb(179, 240, 109)" opacity="0.9890788"/>
    <path d="M 59.718406677246094 70.48532104492188 C 54.570892333984375 59.3046760559082 51.93571472167969 45.863182067871094 54.577762603759766 46.07786560058594 C 60.219825744628906 45.87800598144531 69.54611206054688 67.74908447265625 66.88458251953125 73.5992202758789 C 65.17591857910156 77.74480438232422 62.397029876708984 76.46455383300781 59.718406677246094 70.48532104492188" stroke-width="1.0" fill="rgb(240, 222, 200)" opacity="0.9922712"/>
    <path d="M 92.84526824951172 73.12933349609375 C 90.19812774658203 66.89226531982422 100.421875 44.839019775390625 105.08790588378906 46.13409423828125 C 106.13394927978516 46.964576721191406 106.70403289794922 48.273277282714844 106.6898193359375 49.615684509277344 C 106.70106506347656 53.280677795410156 103.52159118652344 64.17160034179688 100.85022735595703 70.49633026123047 C 98.87763214111328 74.76038360595703 98.19377136230469 75.5723648071289 96.36366271972656 75.37785339355469 C 94.62102508544922 75.43699645996094 93.62905883789062 74.70585632324219 92.84526824951172 73.12933349609375" stroke-width="1.0" fill="rgb(239, 223, 201)" opacity="0.98477024"/>
    <path d="M 63.39459228515625 98.43936157226562 C 59.27669143676758 95.31730651855469 61.59580993652344 89.33267211914062 66.80934143066406 89.56582641601562 C 70.18785858154297 89.59080505371094 72.07331848144531 91.31682586669922 71.91049194335938 94.44746398925781 C 72.10057830810547 96.56796264648438 68.40585327148438 100.1060791015625 66.734619140625 100.0241470336914 C 66.27598571777344 100.04461669921875 65.02146911621094 99.26429748535156 63.39459228515625 98.43936157226562" stroke-width="1.0" fill="rgb(87, 150, 143)" opacity="0.97205144"/>
    <path d="M 90.22294616699219 97.4755859375 C 87.56414031982422 94.55230712890625 89.40079498291016 90.01828002929688 93.37385559082031 89.65505981445312 C 99.12187194824219 88.91765594482422 102.07195281982422 94.84798431396484 97.66810607910156 97.9890365600586 C 94.80805969238281 100.05461120605469 92.55024719238281 100.00523376464844 90.22294616699219 97.4755859375" stroke-width="1.0" fill="rgb(89, 151, 145)" opacity="0.9819201"/>
    <path d="M 79.26048278808594 117.22013092041016 C 78.36302185058594 115.65525817871094 76.78652954101562 113.14669036865234 74.84271240234375 112.292724609375 L 72.27133178710938 109.51842498779297 L 75.26753234863281 110.14763641357422 C 79.41313934326172 111.42920684814453 81.17022705078125 111.435302734375 84.69364929199219 110.48738861083984 C 86.55367279052734 109.8765640258789 87.50392150878906 110.2914810180664 87.47196960449219 110.88921356201172 C 87.47342681884766 111.43639373779297 86.5599136352539 112.17073059082031 85.41349792480469 112.69354248046875 C 84.13833618164062 112.91339111328125 82.61953735351562 114.66514587402344 81.6156997680664 116.41352844238281 L 80.3812026977539 119.38432312011719 L 79.26048278808594 117.22013092041016" stroke-width="1.0" fill="rgb(100, 135, 133)" opacity="0.97376144"/>
    <path d="M 43.49623489379883 172.04638671875 C 40.13521194458008 168.6233367919922 40.788761138916016 161.40611267089844 45.37932205200195 154.0552520751953 C 47.455162048339844 150.78994750976562 61.407745361328125 138.0365447998047 65.34651184082031 135.42735290527344 C 66.8591537475586 133.99847412109375 72.41050720214844 133.73631286621094 81.02706146240234 133.34475708007812 L 94.32139587402344 132.7227783203125 L 105.88197326660156 142.83474731445312 C 113.4468002319336 149.5199432373047 118.1522216796875 154.43112182617188 118.86688995361328 157.0722198486328 C 121.5391616821289 162.39627075195312 121.63795471191406 167.78079223632812 118.97625732421875 170.64317321777344 L 116.77522277832031 173.44482421875 L 81.86761474609375 173.58712768554688 C 46.705169677734375 173.6154022216797 45.8638801574707 173.7765655517578 43.49623489379883 172.04638671875" stroke-width="0.0" fill="rgb(96, 109, 107)" opacity="0.98914725"/>
    <path d="M 76.39994812011719 136.4061737060547 C 71.8367919921875 134.92047119140625 68.04373931884766 132.96766662597656 67.06468200683594 131.38157653808594 C 66.8997802734375 130.48464965820312 66.80944061279297 130.0655975341797 66.91535949707031 129.93838500976562 C 67.11421203613281 129.83555603027344 69.95060729980469 128.22486877441406 73.63690185546875 126.26403045654297 L 80.41738891601562 122.79883575439453 L 87.9593276977539 126.58912658691406 L 96.09913635253906 130.58335876464844 L 93.29933166503906 132.86212158203125 C 89.15264129638672 136.30447387695312 81.13839721679688 138.019287109375 76.39994812011719 136.4061737060547" stroke-width="1.0" fill="rgb(208, 235, 231)" opacity="1.0"/>
    <path d="M 66.68208312988281 161.00076293945312 C 66.71055603027344 159.9447021484375 65.80490112304688 158.32247924804688 64.79730987548828 156.76467895507812 C 63.09990692138672 154.81056213378906 62.015296936035156 154.7290802001953 54.8380126953125 155.0056610107422 C 46.85873794555664 155.3905792236328 46.850013732910156 155.4689483642578 46.625492095947266 152.5946807861328 C 46.23171615600586 150.4605712890625 47.16297912597656 148.82374572753906 50.92510986328125 144.5476531982422 C 56.307193756103516 139.01341247558594 59.070884704589844 137.66404724121094 64.20628356933594 138.255615234375 C 71.61711120605469 139.36959838867188 80.11425018310547 150.4107208251953 79.60749053955078 158.29371643066406 L 79.67880249023438 161.78570556640625 L 73.30289459228516 162.40609741210938 C 67.43592834472656 162.8792724609375 66.84664154052734 162.68521118164062 66.68208312988281 161.00076293945312" stroke-width="1.0" fill="rgb(244, 139, 93)" opacity="0.9891862"/>
    <path d="M 82.97695922851562 160.42633056640625 C 81.0265884399414 154.60617065429688 87.71868896484375 143.07666015625 95.17401885986328 139.31321716308594 C 100.1670150756836 136.77285766601562 104.22195434570312 137.616455078125 109.28246307373047 142.689453125 C 118.78245544433594 151.82041931152344 118.73089599609375 156.21383666992188 108.0904769897461 154.87484741210938 C 99.98777770996094 153.82952880859375 96.88362884521484 154.95993041992188 95.9017105102539 159.0734405517578 C 95.0123291015625 162.150146484375 94.89496612548828 162.51217651367188 89.09390258789062 162.59390258789062 C 83.98548889160156 162.61260986328125 83.29487609863281 162.41357421875 82.97695922851562 160.42633056640625" stroke-width="1.0" fill="rgb(244, 139, 92)" opacity="0.9904453"/>
  </g>
</svg>
