<?xml version="1.0" ?>
<svg xmlns="http://www.w3.org/2000/svg" version="1.1" width="224" height="224">
  <defs/>
  <g>
    <path d="M 67.59944152832031 41.11823272705078 C 66.66258239746094 40.266822814941406 66.082275390625 37.48859405517578 66.29393005371094 34.58905792236328 C 66.1515121459961 31.000267028808594 66.64976501464844 29.38019561767578 68.70309448242188 29.34832000732422 C 69.99967956542969 28.95311737060547 71.44525146484375 29.649375915527344 72.27734375 30.427978515625 C 72.9261245727539 31.508644104003906 74.89059448242188 32.79558563232422 76.4775161743164 33.173057556152344 C 79.96920776367188 34.54789733886719 81.00428771972656 37.70304870605469 77.92733764648438 40.048606872558594 C 75.71270751953125 42.219482421875 69.22686004638672 43.197975158691406 67.59944152832031 41.11823272705078" stroke-width="1.0" fill="rgb(212, 107, 84)" opacity="0.9897594"/>
    <path d="M 149.44454956054688 41.24054718017578 C 147.26800537109375 39.03471374511719 147.29452514648438 31.39075469970703 149.43626403808594 29.66271209716797 C 151.33888244628906 28.00000762939453 152.0413055419922 28.08678436279297 153.70602416992188 30.37610626220703 C 154.5513153076172 31.450599670410156 156.73248291015625 32.845916748046875 158.07412719726562 33.10643005371094 C 159.48226928710938 33.23622131347656 160.4907684326172 34.74638366699219 160.72776794433594 36.61395263671875 C 161.26229858398438 39.24021911621094 160.57339477539062 40.290061950683594 157.77920532226562 41.12745666503906 C 153.9095458984375 42.78730773925781 151.28375244140625 42.812591552734375 149.44454956054688 41.24054718017578" stroke-width="1.0" fill="rgb(213, 105, 83)" opacity="0.9871739"/>
    <path d="M 167.2587432861328 122.416015625 C 167.14227294921875 122.09607696533203 166.8256072998047 117.33213806152344 166.9153289794922 111.70438385009766 C 166.92214965820312 103.0191421508789 167.03700256347656 102.06201171875 169.4915771484375 100.50033569335938 C 172.47535705566406 98.7575454711914 174.42916870117188 98.9229965209961 176.7974853515625 101.1513442993164 C 179.08078002929688 103.11039733886719 179.5667724609375 104.79837036132812 179.30490112304688 113.20911407470703 L 179.07086181640625 123.17459869384766 L 173.68214416503906 123.04925537109375 C 170.22061157226562 122.89236450195312 167.85716247558594 122.85989379882812 167.2587432861328 122.416015625" stroke-width="1.0" fill="rgb(95, 120, 132)" opacity="0.99219424"/>
    <path d="M 50.06537628173828 74.53350830078125 C 49.679222106933594 72.01248168945312 68.43772888183594 42.90641784667969 70.33757781982422 41.93914794921875 C 71.69979858398438 41.74962615966797 82.8760986328125 58.07674026489258 89.77259826660156 69.87281799316406 C 92.61553192138672 73.42896270751953 92.60315704345703 74.76022338867188 91.66014862060547 76.05532836914062 C 91.0997314453125 76.86128234863281 84.23119354248047 77.04856872558594 69.92680358886719 77.37440490722656 L 49.93376922607422 76.59944152832031 L 50.06537628173828 74.53350830078125" stroke-width="1.0" fill="rgb(95, 119, 130)" opacity="0.99487495"/>
    <path d="M 130.94317626953125 75.58977508544922 C 130.11019897460938 73.94161987304688 129.38795471191406 75.00868225097656 141.35110473632812 56.669273376464844 C 146.509033203125 48.620513916015625 151.11090087890625 42.167335510253906 151.97036743164062 41.97627258300781 C 153.41384887695312 42.219078063964844 173.04859924316406 72.11119079589844 172.9484100341797 74.52815246582031 C 173.0454864501953 76.49146270751953 172.40911865234375 76.57691192626953 151.93624877929688 77.0623550415039 C 134.72438049316406 77.09271240234375 131.39944458007812 76.99473571777344 130.94317626953125 75.58977508544922" stroke-width="1.0" fill="rgb(95, 119, 130)" opacity="0.99482113"/>
    <path d="M 86.62359619140625 173.75448608398438 C 73.26858520507812 171.9091796875 55.716217041015625 168.5954132080078 54.281864166259766 167.1676483154297 C 53.031982421875 165.92535400390625 51.14227294921875 151.52859497070312 49.536407470703125 134.1619415283203 C 48.081268310546875 125.17723083496094 48.16105651855469 121.96205139160156 49.816062927246094 112.08940124511719 C 51.50349044799805 102.96990203857422 52.27212142944336 100.79693603515625 53.51726531982422 100.32063293457031 C 55.39456558227539 99.80213928222656 55.98849105834961 98.34798431396484 56.34019470214844 88.35831451416016 L 56.554134368896484 76.73078918457031 L 86.46372985839844 77.12939453125 L 86.97488403320312 87.18252563476562 L 91.52349853515625 86.8248062133789 C 102.6032485961914 87.2485580444336 103.3781967163086 87.88773345947266 103.9944839477539 92.63555908203125 L 103.73088073730469 97.38314056396484 L 111.37010955810547 97.71916198730469 L 118.88668060302734 97.7639389038086 L 119.00685119628906 93.81167602539062 C 119.00254821777344 91.47117614746094 119.69148254394531 89.17011260986328 120.39387512207031 88.84861755371094 C 121.01766967773438 88.1111068725586 124.73786926269531 87.16675567626953 128.33163452148438 86.77688598632812 L 135.45458984375 86.52406311035156 L 136.06307983398438 81.85153198242188 L 136.36767578125 76.61799621582031 L 166.93801879882812 76.89580535888672 L 166.48287963867188 99.69491577148438 L 167.06732177734375 122.38391876220703 L 171.16860961914062 123.08128356933594 C 172.85751342773438 122.92720031738281 175.38711547851562 123.24452209472656 174.7734832763672 124.58128356933594 C 174.83218383789062 126.64149475097656 169.36436462402344 162.86669921875 168.91664123535156 165.1254425048828 C 168.0472412109375 167.87908935546875 164.10629272460938 169.1676788330078 149.9529571533203 171.7872314453125 C 140.3570098876953 173.54051208496094 133.45172119140625 174.03970336914062 114.3631362915039 174.0936279296875 C 101.22107696533203 174.07589721679688 88.62677764892578 174.0435333251953 86.62359619140625 173.75448608398438" stroke-width="0.0" fill="rgb(203, 218, 232)" opacity="0.9635819"/>
    <path d="M 41.095611572265625 192.55072021484375 C 37.316246032714844 188.61749267578125 37.21319580078125 182.68264770507812 40.393959045410156 178.6935272216797 L 43.697898864746094 174.60504150390625 L 106.658447265625 175.02468872070312 C 140.88917541503906 175.2454833984375 171.85809326171875 174.79241943359375 175.3831787109375 174.4212646484375 C 179.4785919189453 175.8469696044922 181.0450439453125 176.41912841796875 183.4799346923828 178.7811737060547 C 186.6602020263672 183.0552215576172 186.78680419921875 189.60475158691406 183.20709228515625 193.15713500976562 L 180.67828369140625 196.0 L 44.029441833496094 195.91842651367188 L 41.095611572265625 192.55072021484375" stroke-width="1.0" fill="rgb(149, 219, 133)" opacity="0.9872556"/>
    <path d="M 67.32296752929688 127.35050964355469 C 65.71881103515625 124.01748657226562 65.882080078125 110.9649658203125 67.89728546142578 109.42904663085938 C 72.40243530273438 104.57240295410156 76.39469909667969 108.58142852783203 75.87467193603516 118.4776382446289 C 75.92597961425781 124.02633666992188 75.50251770019531 126.4326400756836 74.60964965820312 127.67412567138672 C 72.1168212890625 130.215087890625 68.8775863647461 130.05177307128906 67.32296752929688 127.35050964355469" stroke-width="1.0" fill="rgb(96, 122, 131)" opacity="0.9904087"/>
    <path d="M 148.11865234375 127.45360565185547 C 147.62060546875 126.47808074951172 147.23095703125 122.21781921386719 147.00665283203125 118.2470703125 C 147.13766479492188 110.89647674560547 148.8144073486328 107.10369873046875 152.03286743164062 107.56161499023438 C 155.6288604736328 107.18856811523438 156.50924682617188 110.4111328125 156.4414520263672 119.75089263916016 L 156.07171630859375 128.64498901367188 L 152.750244140625 128.91397094726562 C 149.95303344726562 129.2757568359375 148.65980529785156 128.6771240234375 148.11865234375 127.45360565185547" stroke-width="1.0" fill="rgb(96, 121, 131)" opacity="0.98901916"/>
    <path d="M 107.40032958984375 125.52397155761719 C 105.89305877685547 122.19869995117188 105.99252319335938 115.81841278076172 107.53810119628906 113.11573028564453 C 109.08131408691406 111.7943344116211 110.5537109375 111.23092651367188 112.93695068359375 111.79097747802734 C 116.1421127319336 112.0039291381836 116.31672668457031 112.06885528564453 116.50765228271484 119.61966705322266 L 116.09041595458984 126.94941711425781 L 111.99605560302734 127.340087890625 C 109.6520004272461 127.64698791503906 108.41993713378906 127.14450073242188 107.40032958984375 125.52397155761719" stroke-width="1.0" fill="rgb(96, 121, 131)" opacity="0.99045867"/>
    <path d="M 43.93211364746094 112.82557678222656 C 43.98448181152344 103.22443389892578 44.20044708251953 102.02626037597656 46.50067138671875 100.5198974609375 C 49.837791442871094 98.74365997314453 51.36969757080078 98.96275329589844 53.87576675415039 101.15763854980469 C 55.88550567626953 103.1392822265625 56.18566131591797 104.87456512451172 56.02410888671875 112.805908203125 L 55.75931930541992 123.1447525024414 L 43.9580078125 122.91350555419922 L 43.93211364746094 112.82557678222656" stroke-width="1.0" fill="rgb(96, 119, 131)" opacity="0.9944128"/>
    <path d="M 90.225830078125 103.43057250976562 C 89.90766143798828 98.40509033203125 89.78952026367188 97.75645446777344 87.0565185546875 98.04024505615234 C 84.64794158935547 96.7850570678711 83.98326110839844 95.98873138427734 84.30284881591797 92.12692260742188 L 84.4960708618164 87.24383544921875 L 103.74474334716797 87.19416809082031 L 104.17062377929688 92.9649887084961 C 104.21752166748047 97.23318481445312 104.16972351074219 97.63629913330078 101.42159271240234 97.98564147949219 C 98.86943817138672 97.64260864257812 98.72164916992188 97.87024688720703 97.94530487060547 102.715087890625 C 97.92717742919922 108.21080780029297 97.676025390625 108.38642120361328 94.00534057617188 108.36991882324219 C 90.68238067626953 108.7554931640625 90.57588958740234 108.88597869873047 90.225830078125 103.43057250976562" stroke-width="1.0" fill="rgb(95, 119, 130)" opacity="0.9938193"/>
    <path d="M 124.67228698730469 104.8947982788086 C 124.99906158447266 99.26708221435547 123.99225616455078 97.665283203125 121.09911346435547 98.0689926147461 C 118.2767105102539 98.01731872558594 118.69491577148438 97.26741790771484 118.476318359375 93.00836181640625 L 118.99640655517578 87.4720687866211 L 137.777099609375 87.30732727050781 L 138.30343627929688 92.4654769897461 C 138.27023315429688 97.04656982421875 138.60980224609375 97.59539031982422 135.29824829101562 97.95974731445312 C 132.50875854492188 98.21292877197266 132.22442626953125 98.2552261352539 132.4163818359375 103.41094970703125 C 131.96923828125 108.24641418457031 131.8667449951172 108.73700714111328 128.2557830810547 108.41261291503906 C 125.14550018310547 108.67982482910156 124.86257934570312 108.35145568847656 124.67228698730469 104.8947982788086" stroke-width="1.0" fill="rgb(96, 119, 129)" opacity="0.9934402"/>
    <path d="M 94.32167053222656 160.74913024902344 C 94.35980224609375 148.2764892578125 94.45960998535156 146.3021697998047 96.72904968261719 143.21343994140625 C 102.95091247558594 133.75527954101562 118.61339569091797 133.13929748535156 126.05587768554688 142.1434326171875 C 128.79714965820312 145.5739288330078 129.15240478515625 145.84776306152344 129.3151092529297 160.54904174804688 L 129.37905883789062 174.76220703125 L 94.30602264404297 174.89312744140625 L 94.32167053222656 160.74913024902344" stroke-width="1.0" fill="rgb(213, 105, 79)" opacity="0.9931219"/>
    <path d="M 54.192909240722656 173.10488891601562 C 54.1635627746582 166.9735107421875 61.38566970825195 162.38731384277344 72.23259735107422 162.6151580810547 C 83.96907043457031 162.00729370117188 89.96265411376953 165.47482299804688 90.02951049804688 172.11849975585938 L 89.91668701171875 174.8494873046875 L 72.061279296875 174.8373260498047 C 55.22482681274414 174.73834228515625 54.372310638427734 174.86297607421875 54.192909240722656 173.10488891601562" stroke-width="1.0" fill="rgb(96, 118, 131)" opacity="1.0"/>
    <path d="M 133.3771209716797 172.21031188964844 C 133.23471069335938 165.6165008544922 139.27767944335938 162.18695068359375 150.89205932617188 162.55316162109375 C 161.82525634765625 162.37875366210938 169.2964324951172 166.77420043945312 169.04507446289062 173.0115203857422 C 169.58041381835938 174.79977416992188 167.83265686035156 174.78857421875 151.5150146484375 174.73300170898438 L 133.6523895263672 175.12765502929688 L 133.3771209716797 172.21031188964844" stroke-width="1.0" fill="rgb(96, 118, 131)" opacity="0.9996506"/>
  </g>
</svg>
