<?xml version="1.0" encoding="UTF-8"?>
<svg xmlns="http://www.w3.org/2000/svg" version="1.1" viewBox="0 0 224 224">
  <defs>
    <style>
      .cls-1 {
        opacity: 1;
      }

      .cls-1, .cls-2 {
        fill: #f44747;
      }

      .cls-1, .cls-2, .cls-3, .cls-4, .cls-5, .cls-6, .cls-7, .cls-8, .cls-9, .cls-10 {
        isolation: isolate;
      }

      .cls-2 {
        opacity: 1;
      }

      .cls-3 {
        fill: #5c6e7e;
        opacity: 1;
      }

      .cls-4 {
        fill: #607383;
        opacity: 1;
      }

      .cls-5 {
        fill: #b7cad9;
        opacity: 1;
      }

      .cls-6 {
        fill: #b9cbdb;
        opacity: 1;
      }

      .cls-7 {
        fill: #35424f;
        opacity: 1;
      }

      .cls-8 {
        fill: #5e7082;
        opacity: 1;
      }

      .cls-9 {
        fill: #647a8c;
        opacity: 1;
      }

      .cls-11 {
        fill: #b7c7d4;
      }

      .cls-12 {
        fill: #283440;
      }

      .cls-10 {
        fill: #657a8e;
        opacity: 1;
      }
    </style>
  </defs>
  <!-- Generator: Adobe Illustrator 28.6.0, SVG Export Plug-In . SVG Version: 1.2.0 Build 709)  -->
  <g>
    <g id="_图层_1" data-name="图层_1">
      <g>
        <path class="cls-4" d="M88.6,134.7c4.3-5.1,15.3-17.6,16.3-18.7,1.4.1,1.8-2.2,1.4-4.9.2-5.7,2.9-7.5,6.6-5,1.8.9,2.4,2.4,2.1,5.7,0,4,0,4-4.3,4.3h-3.5c0,0-.2,20.8-.2,20.8l-9.4-1c-9.5.9-9.9.7-9.1-1.1"/>
        <path class="cls-10" d="M114.5,125.9c0-8.2,0-10.7,1.3-10.6,1.5,0,17.5,18.1,18,19.8-.4.6-3.9,1.2-9.6,1.3l-9.6-.2-.2-10.3"/>
        <path class="cls-3" d="M65.7,81.4c-.7,0-1-6.1-1.1-12.7.8-10.3,1.4-12.2,3.9-17.2,3.5-7.8,12.6-15.8,19.9-18,3.5-1.2,10.1-3,14.8-3.4,24-2.1,42.2,4.8,50.1,21.4,2.7,6,4,7.5,4.3,17.9-.5,6.6-.9,11.9-1.5,12.7-.5.8-20.8,1.4-45.8,1.5-41.1,0-44.7.6-44.6-2.1"/>
        <path class="cls-7" d="M32.2,194.5c-1.3-.5-2.5-4.1-1.3-7.3.5-4.8,8.8-15.3,14-19.2,7.8-5.9,15.4-9.4,29.2-14.3l12.6-3.7,49.6.2,9.6,2.6c18.4,6.4,27.1,10.9,36.1,19.2,5.1,6,9.8,14,10,19-.8,4.7,2.2,5-80.3,3-42.8,1.7-77.4,1.2-79.6.5"/>
        <path class="cls-12" d="M50.3,125.6c-1.5-7.1,2.8-23.4,9.1-34.4,5.2-8.9,9.1-12.1,15.2-15,7.1-3,12.4-3.8,21.5-.7,4.7,1.7,9.2,2.9,10.7,3.2.2-2.7.3-13.2.2-25.5l.5-23.1,3,.4c2-.5,4-.4,3.6.5,0,.8.8,11.3,1.1,22.7-.1,12.8,0,21.6.6,24.6,1.7.2,5-1,10.9-3.2,12.2-3,20.8-.5,28.9,6.6,7.8,7.3,16.8,29.2,15.9,40l-.8,3.4-10.5.2c-9-.1-14.1,0-16.6-.6.4-2.4,2.6-5,4.3-8,7.2-7.5,3.2-9.9-16.4-12.9-9.5,5.2-12.6,4.9-14.9.6-3.3-2-8.9-1.6-11,.9-1.8,1.5-3.7,2.4-8.2,1.2-12,0-22.9.8-26,2.7-1.7,2.2-.4,2.4,2.9,8.6,5.3,9.8,6.4,7.4-10.8,7.6-10,0-12.7.2-13.2.2"/>
        <path class="cls-11" d="M98.6,155c-11.7-3.8-13.8-5-13.2-7,0-.8.7-2.3,1.7-3.2.3-1,.8-2.4.7-3.5-.1-1.4,2.7-1.7,22.7-2.2,20.9.2,22.8.3,23.3,1.9.1,1.3.6,3.1,1.4,4.2.6.9,1.1,2.5.7,3,0,.9.9,1.6,1.7,1.6.2,0-2.8,1.3-7.6,3.3-11.4,4.3-22.1,4.8-31.4,1.9"/>
        <path class="cls-5" d="M75.1,190.2c5.4-8.2,16.6-14.2,27.2-14.9l4.2-.2.2,10.1.2,10h-35.2s3.3-5,3.3-5"/>
        <path class="cls-6" d="M114.8,185.2l.2-10.3,5.2.4c11.2.7,23.2,7.9,28.3,16.5l2.1,3.5h-36.1s.3-10.1.3-10.1"/>
        <path class="cls-8" d="M68,111.6c-1.8-.4-1.5-4.4.8-10.7,2.4-7.7,6.9-15.5,8.1-12.5-.4,8.8,5.2,13.2,16.4,12.9,4.6.5,6.8,0,10.1-2.1,4.5-2.6,4.5-2.4,4.3.8.1,1.8.5,2,3.6,2.8,3.2-.8,3.5-.6,3.1-3.1.3-2.8.5-2.7,3.1-1.4,4.5,3,11,4.4,17,2.5,6.9-.8,10-3.9,10.9-9.7l.9-4.3,2.5,3.4c1,2.4,3.2,7.1,4.6,11.6,2.5,7.8,2.5,7.9,1.1,9.3-1.5.7-2.3.8-3,.8-1.6-2.6-10.4-4.8-22.3-4.5-11.1.4-12.1.8-13.3-1.5-1.8-3.1-7.6-3.6-10.2-.1-1.6,2.2-3,2.1-12.3,1.9-11.3-.3-20.3,1.5-22.3,3.3-.6.8-2,1.1-2.9.7"/>
        <path class="cls-9" d="M106.9,194.7c-.4-.4-.7-5-1-10.1v-9.3c0,0,10.2-.4,10.2-.4v9.9c0,0-.2,9.8-.2,9.8l-3.9.6c-2.4,0-4.5-.1-5.1-.5"/>
        <path class="cls-2" d="M87.8,100.9c-5.3-1-8.2-2.6-9.8-5.2-1.8-3.8-2.1-7.9-.5-10.8,2.9-5.2,14.8-6.7,24.7-3.1l5.3,2.1v6.6c-.1,0-.2,6.5-.2,6.5l-4.4,2.7c-4.5,1.9-9.9,2.6-15,1.2"/>
        <path class="cls-1" d="M119.7,99.4l-4.6-2.1-.3-14.4,6.7-1.7c8.5-2.2,16.8-1.8,20.5,1.1,3.5,2.2,4.7,8.9,2.3,12.9-2.8,6-16.8,8.2-24.6,4.2"/>
      </g>
    </g>
  </g>
</svg>