<?xml version="1.0" ?>
<svg xmlns="http://www.w3.org/2000/svg" version="1.1" width="224" height="224">
  <defs/>
  <g>
    <path d="M 78.07707214355469 172.71304321289062 C 74.82160949707031 169.43885803222656 72.45684814453125 162.75025939941406 72.75719451904297 157.86825561523438 C 72.54370880126953 153.5042266845703 76.98281860351562 144.39190673828125 81.36216735839844 139.89566040039062 C 89.93223571777344 130.81600952148438 92.18939208984375 129.89752197265625 110.58324432373047 129.09254455566406 C 128.85516357421875 127.93513488769531 130.368896484375 128.1575469970703 140.9449005126953 138.23233032226562 C 148.59503173828125 144.98995971679688 151.09933471679688 150.19320678710938 150.32855224609375 159.92764282226562 C 149.8164520263672 167.77243041992188 149.48226928710938 168.38491821289062 145.6984100341797 172.09385681152344 L 141.72634887695312 175.80484008789062 L 81.5584716796875 175.77459716796875 L 78.07707214355469 172.71304321289062" stroke-width="0.0" fill="rgb(238, 247, 248)" opacity="0.99441725"/>
    <path d="M 68.11318969726562 130.55392456054688 C 66.39274597167969 129.26231384277344 63.23866653442383 126.6959228515625 61.55531692504883 124.48893737792969 C 58.831329345703125 121.49751281738281 57.95405578613281 119.5751724243164 58.815250396728516 115.02726745605469 C 58.04745101928711 110.5134506225586 58.577796936035156 108.63787078857422 67.87533569335938 95.5026626586914 C 72.69869995117188 87.40817260742188 78.39434814453125 80.06169891357422 79.72430419921875 78.91014099121094 C 81.11752319335938 77.79924011230469 82.19117736816406 75.98898315429688 82.10359191894531 75.54303741455078 C 81.7872543334961 74.34029388427734 83.13227844238281 72.31147766113281 84.63723754882812 70.43222045898438 C 88.2509765625 67.13955688476562 88.29470825195312 66.9261703491211 110.9764633178711 66.8436279296875 C 133.20635986328125 65.84576416015625 133.46044921875 66.23768615722656 137.15707397460938 68.97578430175781 C 138.91722106933594 70.0976791381836 140.7224578857422 71.72989654541016 140.69017028808594 72.72368621826172 C 140.46144104003906 73.697509765625 141.55642700195312 75.33503723144531 142.57077026367188 77.05221557617188 C 144.74053955078125 78.45655059814453 150.32894897460938 86.21635437011719 155.59210205078125 94.26136779785156 C 164.2727508544922 108.33821105957031 164.80191040039062 109.71280670166016 164.9851837158203 115.3588638305664 C 165.416259765625 120.75516510009766 164.81166076660156 121.88778686523438 160.86495971679688 126.43660736083984 L 155.92691040039062 130.8275146484375 L 144.99087524414062 131.3509521484375 C 136.15771484375 132.39979553222656 133.55149841308594 131.87538146972656 131.6722412109375 129.4916229248047 C 128.65890502929688 128.22422790527344 128.19998168945312 128.18316650390625 125.78126525878906 130.45547485351562 C 123.33104705810547 133.07334899902344 101.46416473388672 132.7139892578125 98.4631576538086 129.9322967529297 C 96.0240707397461 128.22259521484375 96.00419616699219 128.1695098876953 93.47447204589844 129.56788635253906 C 91.23783874511719 132.8723602294922 74.24141693115234 132.70535278320312 68.11318969726562 130.55392456054688" stroke-width="0.0" fill="rgb(239, 247, 248)" opacity="0.996428"/>
    <path d="M 106.1828842163086 137.24014282226562 C 94.98957824707031 133.00196838378906 89.25222778320312 118.12191009521484 95.31803894042969 108.56761169433594 C 104.3695297241211 93.61715698242188 128.28628540039062 98.76873779296875 130.9332275390625 116.10143280029297 C 132.4537353515625 125.73381042480469 123.09784698486328 136.93080139160156 112.88764953613281 137.71322631835938 C 110.33245849609375 137.99176025390625 107.14144134521484 137.85845947265625 106.1828842163086 137.24014282226562" stroke-width="1.0" fill="rgb(254, 227, 47)" opacity="0.9967346"/>
    <path d="M 103.23934173583984 194.17709350585938 C 98.83120727539062 192.34002685546875 94.33336639404297 188.21630859375 92.60037231445312 183.79417419433594 C 89.801025390625 178.15554809570312 90.23187255859375 175.43902587890625 93.41089630126953 174.51101684570312 C 98.73533630371094 173.40420532226562 106.33566284179688 166.93881225585938 108.78208923339844 161.61241149902344 C 111.9194107055664 155.12693786621094 112.3958511352539 154.3091583251953 114.01675415039062 158.7944793701172 C 115.10811614990234 163.48072814941406 122.09751892089844 171.30523681640625 127.98604583740234 173.75328063964844 C 133.56597900390625 176.18560791015625 133.75765991210938 176.7105712890625 133.09812927246094 180.0079345703125 C 132.32229614257812 184.35455322265625 129.10382080078125 188.58023071289062 124.94633483886719 192.01956176757812 C 121.3724136352539 194.72833251953125 108.84324645996094 196.0 103.23934173583984 194.17709350585938" stroke-width="1.0" fill="rgb(254, 227, 46)" opacity="1.0"/>
    <path d="M 48.947792053222656 160.38909912109375 C 42.544715881347656 158.16107177734375 38.734153747558594 155.20584106445312 35.38750457763672 150.22622680664062 C 32.71372985839844 146.97430419921875 32.36583709716797 145.2451171875 33.24095916748047 140.989990234375 C 34.521766662597656 130.65916442871094 40.612571716308594 122.36890411376953 50.90113067626953 117.67681884765625 C 57.20660400390625 114.66472625732422 58.1722412109375 114.71149444580078 58.64323806762695 118.44951629638672 C 59.4944953918457 123.4173812866211 65.25376892089844 128.8550262451172 69.56829833984375 130.4896697998047 C 73.56637573242188 132.2875213623047 87.32102966308594 131.74490356445312 93.62400817871094 129.66261291503906 C 95.32786560058594 129.02601623535156 95.33696746826172 130.1913604736328 91.35675048828125 132.80319213867188 C 88.0921630859375 134.77322387695312 84.24430084228516 137.8345489501953 82.41500854492188 139.42481994628906 C 78.66122436523438 142.81668090820312 73.5535888671875 152.8821258544922 73.46635437011719 156.71646118164062 C 73.6216049194336 160.099609375 71.51582336425781 160.82192993164062 61.6503791809082 161.498046875 C 56.070308685302734 161.89976501464844 51.86801528930664 161.6370086669922 48.947792053222656 160.38909912109375" stroke-width="1.0" fill="rgb(99, 137, 150)" opacity="0.98598826"/>
    <path d="M 155.53659057617188 160.75244140625 C 151.17373657226562 159.73056030273438 150.59547424316406 159.18771362304688 149.41627502441406 154.419921875 C 147.61489868164062 146.68910217285156 141.53482055664062 138.1194305419922 133.82159423828125 133.12994384765625 C 129.50247192382812 130.20159912109375 128.4258575439453 128.89166259765625 129.9641876220703 129.41090393066406 C 131.75367736816406 130.12094116210938 137.070556640625 130.9185791015625 142.0543975830078 131.2642364501953 C 149.49937438964844 131.84326171875 151.92300415039062 131.51446533203125 155.80581665039062 129.5282440185547 C 160.69003295898438 126.79508972167969 164.41372680664062 122.13876342773438 164.42311096191406 119.08946228027344 C 164.388427734375 113.95291900634766 174.06201171875 116.86255645751953 181.88104248046875 123.5320816040039 C 186.66481018066406 127.623779296875 191.6341552734375 137.2461395263672 191.52838134765625 142.2061004638672 C 191.62107849121094 155.54412841796875 173.64324951171875 164.74920654296875 155.53659057617188 160.75244140625" stroke-width="1.0" fill="rgb(99, 137, 150)" opacity="0.9846744"/>
    <path d="M 53.7135009765625 109.60587310791016 C 48.34080123901367 106.05513000488281 43.050010681152344 100.38359832763672 40.68251037597656 95.9949951171875 C 35.18043518066406 85.169189453125 35.46930694580078 69.42341613769531 41.272117614746094 63.41529083251953 C 43.95683288574219 60.90060043334961 45.25664520263672 60.56105041503906 51.67674255371094 60.12938690185547 C 60.625335693359375 60.41511535644531 68.51222229003906 64.00286865234375 76.11793518066406 71.0194320678711 C 80.68341064453125 75.52490234375 81.90579223632812 76.45488739013672 81.78733825683594 82.39215850830078 C 82.07085418701172 86.32823944091797 83.54446411132812 91.5103530883789 85.0472183227539 93.93688201904297 L 87.38426208496094 98.34527587890625 L 80.72521209716797 98.21272277832031 C 76.75192260742188 97.89244079589844 72.0083999633789 98.13494873046875 69.62483215332031 98.63395690917969 C 65.02279663085938 99.89599609375 58.43864822387695 106.94508361816406 58.58369445800781 109.9474868774414 C 58.328956604003906 112.22588348388672 57.17311477661133 112.02635955810547 53.7135009765625 109.60587310791016" stroke-width="1.0" fill="rgb(100, 137, 150)" opacity="0.9842344"/>
    <path d="M 164.38088989257812 110.08837890625 C 164.3624725341797 107.38542175292969 157.76170349121094 100.23400115966797 153.5687713623047 98.67938995361328 C 151.19712829589844 97.96958923339844 146.71031188964844 97.87992095947266 142.79971313476562 98.04468536376953 C 139.5883331298828 98.79562377929688 136.2653350830078 98.47349548339844 136.41458129882812 98.18905639648438 C 136.49114990234375 98.06314086914062 137.88125610351562 95.794189453125 139.19869995117188 93.19134521484375 C 140.41419982910156 90.53437042236328 141.85287475585938 85.5380859375 142.08470153808594 81.82765197753906 C 142.07249450683594 76.0001449584961 143.09524536132812 75.03718566894531 147.61419677734375 70.67828369140625 C 155.2218017578125 63.599159240722656 163.4971466064453 60.19123077392578 172.22158813476562 60.370731353759766 C 178.36483764648438 59.93330383300781 180.18759155273438 60.578529357910156 183.01739501953125 62.8670539855957 C 186.09608459472656 65.75727081298828 186.05020141601562 66.10220336914062 186.9197235107422 77.96918487548828 C 186.25491333007812 88.20609283447266 186.18145751953125 90.88046264648438 183.76943969726562 94.61003112792969 C 181.06204223632812 99.179443359375 174.8008270263672 106.15348815917969 169.43006896972656 109.85661315917969 C 165.996826171875 112.30034637451172 164.47396850585938 112.33016204833984 164.38088989257812 110.08837890625" stroke-width="1.0" fill="rgb(98, 136, 150)" opacity="0.98474497"/>
    <path d="M 108.99652099609375 75.79987335205078 C 105.79417419433594 70.82565307617188 98.4495620727539 66.86865997314453 92.30680847167969 66.93452453613281 L 87.59616088867188 66.67716979980469 L 87.90999603271484 61.97612380981445 C 87.60890197753906 48.408203125 96.46324157714844 34.489768981933594 106.83497619628906 31.94947052001953 C 121.12007141113281 28.00000762939453 135.3006134033203 41.51036834716797 135.6190185546875 59.35818099975586 L 135.9114227294922 66.76425170898438 L 131.44161987304688 66.9808120727539 C 125.37775421142578 66.68984985351562 120.25521850585938 69.23088073730469 115.42928314208984 74.68911743164062 L 111.37663269042969 79.80928039550781 L 108.99652099609375 75.79987335205078" stroke-width="1.0" fill="rgb(98, 136, 150)" opacity="0.9729561"/>
  </g>
</svg>
