<?xml version="1.0" ?>
<svg xmlns="http://www.w3.org/2000/svg" version="1.1" width="224" height="224">
  <defs/>
  <g>
    <path d="M 42.230987548828125 35.405487060546875 C 88.74365997314453 35.405487060546875 135.25633239746094 35.405487060546875 181.76901245117188 35.405487060546875 C 189.87716674804688 35.910423278808594 195.49417114257812 41.52831268310547 196.0 49.63646697998047 C 196.0 79.70330810546875 196.0 109.76925659179688 196.0 139.8361053466797 C 195.5277099609375 141.51333618164062 195.15164184570312 141.8920440673828 193.4691162109375 142.34490966796875 C 139.1501922607422 142.34490966796875 84.83126831054688 142.34490966796875 30.512344360351562 142.34490966796875 C 28.831558227539062 141.8920440673828 28.456390380859375 141.51776123046875 28.00353240966797 139.8361053466797 C 28.002655029296875 109.76925659179688 28.000885009765625 79.70330810546875 28.00000762939453 49.63646697998047 C 28.50494384765625 41.527435302734375 34.1219482421875 35.910423278808594 42.230987548828125 35.405487060546875 C 42.230987548828125 35.405487060546875 42.230987548828125 35.405487060546875 42.230987548828125 35.405487060546875" stroke-width="0.0" fill="rgb(15, 15, 15)" opacity="1.0"/>
    <path d="M 42.234519958496094 37.91517639160156 C 88.74630737304688 37.91517639160156 135.25897216796875 37.91517639160156 181.77163696289062 37.91517639160156 C 188.50711059570312 38.409515380859375 192.99859619140625 42.900123596191406 193.49383544921875 49.63646697998047 C 193.49383544921875 79.70330810546875 193.49383544921875 109.76925659179688 193.49383544921875 139.8361053466797 C 139.16696166992188 139.8361053466797 84.84009552001953 139.8361053466797 30.512344360351562 139.8361053466797 C 30.512344360351562 109.76925659179688 30.512344360351562 79.70330810546875 30.512344360351562 49.63646697998047 C 31.007568359375 42.90100860595703 35.499053955078125 38.409515380859375 42.234519958496094 37.91517639160156 C 42.234519958496094 37.91517639160156 42.234519958496094 37.91517639160156 42.234519958496094 37.91517639160156" stroke-width="0.0" fill="rgb(15, 15, 15)" opacity="1.0"/>
    <path d="M 181.7513427734375 40.423980712890625 C 135.2457275390625 40.42485809326172 88.7401351928711 40.425750732421875 42.234519958496094 40.42662048339844 C 36.88146209716797 40.90773010253906 33.503135681152344 44.28694152832031 33.02202606201172 49.6400032043457 C 33.02202606201172 78.86909484863281 33.02202606201172 108.09819030761719 33.02202606201172 137.32728576660156 C 85.66812133789062 137.326416015625 138.31422424316406 137.3255157470703 190.961181640625 137.32376098632812 C 190.9620819091797 108.09466552734375 190.96295166015625 78.86557006835938 190.96383666992188 49.63646697998047 C 190.4827423095703 44.283409118652344 187.10353088378906 40.90509033203125 181.7513427734375 40.423980712890625 C 181.7513427734375 40.423980712890625 181.7513427734375 40.423980712890625 181.7513427734375 40.423980712890625" stroke-width="0.0" fill="rgb(249, 251, 250)" opacity="1.0"/>
    <path d="M 28.00353240966797 135.80010986328125 C 83.99705505371094 135.80010986328125 139.991455078125 135.80010986328125 195.98587036132812 135.80010986328125 C 195.98587036132812 139.85552978515625 195.98587036132812 143.91091918945312 195.98587036132812 147.96632385253906 C 195.4818115234375 156.08154296875 189.8692169189453 161.69325256347656 181.7548828125 162.1973114013672 C 135.2475128173828 162.1973114013672 88.74101257324219 162.1973114013672 42.234519958496094 162.1973114013672 C 34.12548065185547 161.6923828125 28.508468627929688 156.0753631591797 28.00353240966797 147.96632385253906 C 28.00353240966797 143.91091918945312 28.00353240966797 139.85552978515625 28.00353240966797 135.80010986328125" stroke-width="0.0" fill="rgb(25, 25, 25)" opacity="1.0"/>
    <path d="M 80.35301971435547 58.44554138183594 C 80.35301971435547 58.44554138183594 80.35301971435547 58.44554138183594 80.35301971435547 58.44554138183594 C 84.55142974853516 58.61415100097656 88.49031066894531 59.55076217651367 92.09461975097656 61.78855895996094 C 104.11870574951172 69.25582885742188 106.13935089111328 86.48908996582031 96.12442779541016 96.50930786132812 C 94.09584045410156 98.53877258300781 91.6779556274414 100.1745376586914 89.03497314453125 101.2929916381836 C 86.29399871826172 102.4520492553711 83.32880401611328 103.04703521728516 80.35301971435547 103.04792022705078 C 77.3798828125 103.04792022705078 74.41822052001953 102.45294189453125 71.67900848388672 101.29475402832031 C 69.03602600097656 100.17630004882812 66.61814880371094 98.54054260253906 64.58955383300781 96.51195526123047 C 54.56845474243164 86.49262237548828 56.586448669433594 69.26200866699219 68.6123046875 61.79120635986328 C 72.21572875976562 59.55252456665039 76.15548706054688 58.61591339111328 80.35301971435547 58.44554138183594 C 80.35301971435547 58.44554138183594 80.35301971435547 58.44554138183594 80.35301971435547 58.44554138183594" stroke-width="0.0" fill="rgb(201, 211, 205)" opacity="1.0"/>
    <path d="M 143.6319580078125 58.44554138183594 C 143.6319580078125 58.44554138183594 143.6319580078125 58.44554138183594 143.6319580078125 58.44554138183594 C 147.83038330078125 58.61591339111328 151.76925659179688 59.55252456665039 155.3726806640625 61.79120635986328 C 157.80203247070312 63.299842834472656 159.93568420410156 65.27810668945312 161.62704467773438 67.58387756347656 C 170.0088653564453 79.01564025878906 165.34259033203125 95.77838134765625 152.30596923828125 101.29652404785156 C 149.56764221191406 102.45470428466797 146.6051025390625 103.05144500732422 143.6319580078125 103.05144500732422 C 140.65882873535156 103.05144500732422 137.69627380371094 102.45470428466797 134.9579620361328 101.29652404785156 C 121.92222595214844 95.77838134765625 117.2559585571289 79.01564025878906 125.63777160644531 67.58387756347656 C 127.32914733886719 65.27810668945312 129.4627685546875 63.299842834472656 131.8921356201172 61.79120635986328 C 135.4955596923828 59.55252456665039 139.4344482421875 58.61591339111328 143.6319580078125 58.44554138183594 C 143.6319580078125 58.44554138183594 143.6319580078125 58.44554138183594 143.6319580078125 58.44554138183594" stroke-width="0.0" fill="rgb(201, 211, 205)" opacity="1.0"/>
    <path d="M 121.94694519042969 102.4132080078125 C 121.94694519042969 102.4132080078125 121.94694519042969 102.4132080078125 121.94694519042969 102.4132080078125 C 121.78187561035156 104.23787689208984 121.52851867675781 105.80919647216797 120.58308410644531 107.4211196899414 C 117.50666046142578 112.66471099853516 110.26095581054688 113.9358901977539 105.60704040527344 110.00936889648438 C 103.23594665527344 108.00727081298828 102.33111572265625 105.40576934814453 102.06011199951172 102.4132080078125 C 108.68876647949219 102.4132080078125 115.31741333007812 102.4132080078125 121.94694519042969 102.4132080078125" stroke-width="0.0" fill="rgb(249, 251, 250)" opacity="1.0"/>
    <path d="M 30.512344360351562 138.31332397460938 C 84.8330307006836 138.31332397460938 139.15284729003906 138.31332397460938 193.47265625 138.31332397460938 C 193.47265625 141.531005859375 193.47265625 144.7486572265625 193.47265625 147.96632385253906 C 192.97918701171875 154.70884704589844 188.49386596679688 159.19503784179688 181.7513427734375 159.68850708007812 C 135.2457275390625 159.68850708007812 88.7401351928711 159.68850708007812 42.234519958496094 159.68850708007812 C 35.499053955078125 159.19326782226562 31.007568359375 154.7017822265625 30.512344360351562 147.96632385253906 C 30.512344360351562 144.7486572265625 30.512344360351562 141.531005859375 30.512344360351562 138.31332397460938" stroke-width="0.0" fill="rgb(24, 24, 24)" opacity="1.0"/>
    <path d="M 70.45462036132812 63.605281829833984 C 70.45462036132812 63.605281829833984 70.45462036132812 63.605281829833984 70.45462036132812 63.605281829833984 C 67.48590087890625 65.49967956542969 64.98857116699219 67.7701416015625 63.21068572998047 70.85009765625 C 62.066627502441406 72.83277893066406 61.269493103027344 75.01319885253906 60.86783981323242 77.26688385009766 C 58.49850845336914 90.56832885742188 70.43873596191406 102.57122802734375 83.75605773925781 100.24514770507812 C 86.03711700439453 99.84703063964844 88.24313354492188 99.04548645019531 90.24877166748047 97.88818359375 C 92.25440216064453 96.7300033569336 94.05081939697266 95.2204818725586 95.53650665283203 93.4434814453125 C 104.21051788330078 83.07368469238281 99.78700256347656 66.73201751708984 87.0814208984375 62.131954193115234 C 84.9283676147461 61.352474212646484 82.6411361694336 60.95346450805664 80.35214233398438 60.95346450805664 C 76.79460906982422 60.95346450805664 73.57958984375 61.98099899291992 70.45462036132812 63.605281829833984 C 70.45462036132812 63.605281829833984 70.45462036132812 63.605281829833984 70.45462036132812 63.605281829833984" stroke-width="0.0" fill="rgb(201, 211, 205)" opacity="1.0"/>
    <path d="M 133.73709106445312 63.605281829833984 C 133.73709106445312 63.605281829833984 133.73709106445312 63.605281829833984 133.73709106445312 63.605281829833984 C 130.76837158203125 65.49967956542969 128.27017211914062 67.77102661132812 126.49140167236328 70.85009765625 C 125.3464584350586 72.83277893066406 124.5484390258789 75.01319885253906 124.14590454101562 77.26688385009766 C 121.77481079101562 90.56744384765625 133.7229766845703 102.57122802734375 147.035888671875 100.24514770507812 C 149.3169403076172 99.84703063964844 151.52207946777344 99.04548645019531 153.5277099609375 97.88818359375 C 155.53335571289062 96.7300033569336 157.32977294921875 95.2204818725586 158.81546020507812 93.4434814453125 C 167.4894561767578 83.07368469238281 163.06594848632812 66.73201751708984 150.3612518310547 62.131954193115234 C 148.20909118652344 61.352474212646484 145.92095947265625 60.95346450805664 143.6319580078125 60.95346450805664 C 140.07620239257812 60.95346450805664 136.86119079589844 61.98099899291992 133.73709106445312 63.605281829833984 C 133.73709106445312 63.605281829833984 133.73709106445312 63.605281829833984 133.73709106445312 63.605281829833984" stroke-width="0.0" fill="rgb(201, 211, 205)" opacity="1.0"/>
    <path d="M 102.05657958984375 99.92118072509766 C 102.05657958984375 99.92118072509766 102.05657958984375 99.92118072509766 102.05657958984375 99.92118072509766 C 105.24687957763672 100.78186798095703 104.10811614990234 103.21564483642578 105.32367706298828 105.70326232910156 C 106.55601501464844 108.22442626953125 109.1937026977539 109.86636352539062 111.99911499023438 109.865478515625 C 115.39950561523438 109.8646011352539 118.46975708007812 107.45289611816406 119.23775482177734 104.13194274902344 C 119.41253662109375 103.37542724609375 119.34015655517578 101.92416381835938 119.77535247802734 101.16322326660156 C 120.46038055419922 99.96796417236328 122.0299301147461 99.58749389648438 123.2110595703125 100.2636947631836 C 125.50182342529297 101.57635498046875 124.24742126464844 105.43490600585938 123.47058868408203 107.26927947998047 C 121.29988098144531 112.392822265625 115.82147216796875 115.51691436767578 110.30774688720703 114.77274322509766 C 105.9998779296875 114.19100952148438 102.21636199951172 111.26907348632812 100.5267562866211 107.26927947998047 C 99.37474822998047 104.54331970214844 98.547607421875 100.86750030517578 102.05657958984375 99.92118072509766 C 102.05657958984375 99.92118072509766 102.05657958984375 99.92118072509766 102.05657958984375 99.92118072509766" stroke-width="0.0" fill="rgb(21, 21, 21)" opacity="1.0"/>
    <path d="M 33.02202606201172 140.8389129638672 C 33.02202606201172 143.22061157226562 33.02202606201172 145.602294921875 33.02202606201172 147.98397827148438 C 33.503135681152344 153.3370361328125 36.88146209716797 156.71536254882812 42.234519958496094 157.19647216796875 C 88.74630737304688 157.19647216796875 135.25897216796875 157.19647216796875 181.77163696289062 157.19647216796875 C 187.12384033203125 156.71536254882812 190.5030517578125 153.3370361328125 190.9850311279297 147.98397827148438 C 190.9850311279297 145.602294921875 190.9850311279297 143.22061157226562 190.9850311279297 140.8389129638672 C 138.33010864257812 140.8389129638672 85.67607116699219 140.8389129638672 33.02202606201172 140.8389129638672" stroke-width="0.0" fill="rgb(157, 198, 175)" opacity="1.0"/>
    <path d="M 80.35301971435547 63.44638442993164 C 80.35301971435547 63.44638442993164 80.35301971435547 63.44638442993164 80.35301971435547 63.44638442993164 C 76.85728454589844 63.623817443847656 73.6290283203125 64.41830444335938 70.69208526611328 66.40451049804688 C 59.53133773803711 73.95211791992188 61.22711944580078 91.3972396850586 73.63520812988281 96.65408325195312 C 75.75559997558594 97.552734375 78.04989624023438 98.01618194580078 80.35301971435547 98.01618194580078 C 82.65614318847656 98.01618194580078 84.94955444335938 97.552734375 87.0699462890625 96.65408325195312 C 99.47891998291016 91.39812469482422 101.17469787597656 73.95388793945312 90.01483917236328 66.4053955078125 C 87.07788848876953 64.419189453125 83.84963989257812 63.623817443847656 80.35301971435547 63.44638442993164 C 80.35301971435547 63.44638442993164 80.35301971435547 63.44638442993164 80.35301971435547 63.44638442993164" stroke-width="0.0" fill="rgb(249, 251, 250)" opacity="1.0"/>
    <path d="M 143.6319580078125 63.44638442993164 C 143.6319580078125 63.44638442993164 143.6319580078125 63.44638442993164 143.6319580078125 63.44638442993164 C 140.13623046875 63.623817443847656 136.90798950195312 64.41830444335938 133.9710235595703 66.40451049804688 C 122.81028747558594 73.95123291015625 124.50607299804688 91.3972396850586 136.91415405273438 96.65408325195312 C 139.03543090820312 97.55184936523438 141.32884216308594 98.01618194580078 143.6319580078125 98.01618194580078 C 145.93508911132812 98.01618194580078 148.22850036621094 97.552734375 150.34889221191406 96.65408325195312 C 162.76492309570312 91.39547729492188 164.44834899902344 73.95388793945312 153.2858428955078 66.4053955078125 C 150.35153198242188 64.42095184326172 147.12594604492188 63.623817443847656 143.6319580078125 63.44638442993164 C 143.6319580078125 63.44638442993164 143.6319580078125 63.44638442993164 143.6319580078125 63.44638442993164" stroke-width="0.0" fill="rgb(249, 251, 250)" opacity="1.0"/>
    <path d="M 112.00264739990234 142.61767578125 C 112.00264739990234 142.61767578125 112.00264739990234 142.61767578125 112.00264739990234 142.61767578125 C 110.30421447753906 142.89132690429688 108.9535903930664 143.23118591308594 107.87308502197266 144.71070861816406 C 105.44815063476562 148.02987670898438 107.89163208007812 152.85064697265625 112.00264739990234 152.85064697265625 C 116.11366271972656 152.85064697265625 118.5536117553711 148.02899169921875 116.13131713867188 144.71070861816406 C 115.05081939697266 143.23118591308594 113.70196533203125 142.89132690429688 112.00264739990234 142.61767578125 C 112.00264739990234 142.61767578125 112.00264739990234 142.61767578125 112.00264739990234 142.61767578125" stroke-width="0.0" fill="rgb(249, 251, 250)" opacity="1.0"/>
    <path d="M 95.43234252929688 157.17970275878906 C 106.47126770019531 157.17970275878906 117.51019287109375 157.17970275878906 128.5500030517578 157.17970275878906 C 130.23077392578125 157.632568359375 130.60594177246094 158.00685119628906 131.05880737304688 159.68850708007812 C 131.05880737304688 165.45559692382812 131.05880737304688 171.22265625 131.05880737304688 176.99061584472656 C 130.60594177246094 178.67138671875 130.23077392578125 179.04656982421875 128.5500030517578 179.49942016601562 C 117.51019287109375 179.49942016601562 106.47126770019531 179.49942016601562 95.43234252929688 179.49942016601562 C 93.75067901611328 179.04656982421875 93.37638854980469 178.67138671875 92.92265319824219 176.99061584472656 C 92.92265319824219 171.22265625 92.92265319824219 165.45559692382812 92.92265319824219 159.68850708007812 C 93.37638854980469 158.00685119628906 93.75067901611328 157.632568359375 95.43234252929688 157.17970275878906 C 95.43234252929688 157.17970275878906 95.43234252929688 157.17970275878906 95.43234252929688 157.17970275878906" stroke-width="0.0" fill="rgb(20, 20, 20)" opacity="1.0"/>
    <path d="M 80.35301971435547 75.28155517578125 C 80.35301971435547 75.28155517578125 80.35301971435547 75.28155517578125 80.35301971435547 75.28155517578125 C 78.53807067871094 75.57463073730469 77.09651184082031 75.9383316040039 75.94186401367188 77.51936340332031 C 73.35272979736328 81.06452178955078 75.96217346191406 86.21102142333984 80.35301971435547 86.21102142333984 C 84.7438735961914 86.21102142333984 87.3488998413086 81.06275939941406 84.76240539550781 77.51936340332031 C 83.60775756835938 75.93921661376953 82.16797637939453 75.57463073730469 80.35301971435547 75.28155517578125 C 80.35301971435547 75.28155517578125 80.35301971435547 75.28155517578125 80.35301971435547 75.28155517578125" stroke-width="0.0" fill="rgb(15, 15, 15)" opacity="1.0"/>
    <path d="M 143.6319580078125 75.28155517578125 C 143.6319580078125 75.28155517578125 143.6319580078125 75.28155517578125 143.6319580078125 75.28155517578125 C 141.81700134277344 75.57463073730469 140.37545776367188 75.9383316040039 139.22080993652344 77.51936340332031 C 136.63168334960938 81.06452178955078 139.24110412597656 86.21102142333984 143.6319580078125 86.21102142333984 C 148.02281188964844 86.21102142333984 150.63314819335938 81.06452178955078 148.04400634765625 77.51936340332031 C 146.88934326171875 75.9383316040039 145.44781494140625 75.57463073730469 143.6319580078125 75.28155517578125 C 143.6319580078125 75.28155517578125 143.6319580078125 75.28155517578125 143.6319580078125 75.28155517578125" stroke-width="0.0" fill="rgb(15, 15, 15)" opacity="1.0"/>
    <path d="M 95.43234252929688 159.68850708007812 C 106.47126770019531 159.68850708007812 117.51019287109375 159.68850708007812 128.5500030517578 159.68850708007812 C 128.5500030517578 165.45559692382812 128.5500030517578 171.22265625 128.5500030517578 176.99061584472656 C 117.51019287109375 176.99061584472656 106.47126770019531 176.99061584472656 95.43234252929688 176.99061584472656 C 95.43234252929688 171.22265625 95.43234252929688 165.45559692382812 95.43234252929688 159.68850708007812" stroke-width="0.0" fill="rgb(20, 20, 20)" opacity="1.0"/>
    <path d="M 97.9446792602539 162.1973114013672 C 97.9446792602539 166.29067993164062 97.9446792602539 170.384033203125 97.9446792602539 174.47738647460938 C 107.30988311767578 174.47738647460938 116.67509460449219 174.47738647460938 126.0403060913086 174.47738647460938 C 126.0403060913086 170.384033203125 126.0403060913086 166.29067993164062 126.0403060913086 162.1973114013672 C 116.67509460449219 162.1973114013672 107.30988311767578 162.1973114013672 97.9446792602539 162.1973114013672" stroke-width="0.0" fill="rgb(249, 251, 250)" opacity="1.0"/>
    <path d="M 81.49089813232422 170.36285400390625 C 101.81822967529297 170.36285400390625 122.14644622802734 170.36285400390625 142.47378540039062 170.36285400390625 C 144.14749145507812 170.51290893554688 145.58993530273438 170.74420166015625 147.06944274902344 171.61019897460938 C 151.87429809570312 174.42355346679688 153.0360107421875 181.0804443359375 149.4502410888672 185.34683227539062 C 147.6211700439453 187.52371215820312 145.23593139648438 188.3473358154297 142.49496459960938 188.59451293945312 C 122.16057586669922 188.59451293945312 101.8252944946289 188.59451293945312 81.49089813232422 188.59451293945312 C 79.81718444824219 188.44444274902344 78.37387084960938 188.21316528320312 76.89524841308594 187.34716796875 C 72.08773803710938 184.53204345703125 70.92778015136719 177.874267578125 74.52238464355469 173.61053466796875 C 76.35765075683594 171.4345245361328 78.74639892578125 170.61001586914062 81.49089813232422 170.36285400390625 C 81.49089813232422 170.36285400390625 81.49089813232422 170.36285400390625 81.49089813232422 170.36285400390625" stroke-width="0.0" fill="rgb(20, 20, 20)" opacity="1.0"/>
    <path d="M 81.49089813232422 172.87872314453125 C 101.81822967529297 172.87872314453125 122.14644622802734 172.87872314453125 142.47378540039062 172.87872314453125 C 144.30551147460938 173.12677001953125 145.7726593017578 173.45516967773438 147.13742065429688 174.8199005126953 C 150.14410400390625 177.82659912109375 149.494384765625 183.03488159179688 145.81326293945312 185.18441772460938 C 144.4573516845703 185.9771270751953 144.02127075195312 185.87913513183594 142.49143981933594 186.08570861816406 C 122.15792846679688 186.08570861816406 101.82441711425781 186.08570861816406 81.49089813232422 186.08570861816406 C 79.95665740966797 185.8773651123047 79.52587127685547 185.97535705566406 78.16553497314453 185.17999267578125 C 74.4835433959961 183.02694702148438 73.81263732910156 177.83541870117188 76.82815551757812 174.8199005126953 C 78.1920166015625 173.45516967773438 79.65916442871094 173.12677001953125 81.49089813232422 172.87872314453125 C 81.49089813232422 172.87872314453125 81.49089813232422 172.87872314453125 81.49089813232422 172.87872314453125" stroke-width="0.0" fill="rgb(20, 20, 20)" opacity="1.0"/>
    <path d="M 81.49089813232422 175.40518188476562 C 81.49089813232422 175.40518188476562 81.49089813232422 175.40518188476562 81.49089813232422 175.40518188476562 C 78.29000854492188 176.05136108398438 75.68321228027344 179.4817657470703 78.59544372558594 182.39488220214844 C 79.63180541992188 183.43035888671875 80.12438201904297 183.31825256347656 81.49089813232422 183.5936737060547 C 101.81822967529297 183.5936737060547 122.14644622802734 183.5936737060547 142.47378540039062 183.5936737060547 C 143.84030151367188 183.31825256347656 144.3328857421875 183.43035888671875 145.36923217773438 182.39488220214844 C 148.28323364257812 179.48089599609375 145.67379760742188 176.05136108398438 142.47378540039062 175.40518188476562 C 122.14644622802734 175.40518188476562 101.81822967529297 175.40518188476562 81.49089813232422 175.40518188476562" stroke-width="0.0" fill="rgb(249, 251, 250)" opacity="1.0"/>
  </g>
</svg>
