<?xml version="1.0" ?>
<svg xmlns="http://www.w3.org/2000/svg" version="1.1" width="224" height="224">
  <defs/>
  <g>
    <path d="M 107.63221740722656 193.7979736328125 C 106.07598114013672 194.25831604003906 103.88008117675781 191.33985900878906 102.54690551757812 190.73643493652344 L 100.47977447509766 186.80868530273438 L 77.56521606445312 186.75726318359375 C 54.8419075012207 187.17926025390625 48.30921173095703 185.59390258789062 48.5491943359375 188.0479278564453 C 44.146793365478516 190.65594482421875 40.61541748046875 189.66506958007812 39.4114990234375 188.9305877685547 C 35.39311981201172 187.27345275878906 32.45502471923828 184.58074951171875 31.968521118164062 180.0586395263672 C 30.947769165039062 174.37030029296875 33.59522247314453 170.1560516357422 38.09294891357422 168.0099639892578 C 41.179588317871094 167.26760864257812 44.41111755371094 162.9645538330078 40.72740936279297 168.48648071289062 C 43.85871505737305 169.61058044433594 39.960784912109375 124.6897964477539 43.81412124633789 81.9642333984375 L 43.6064453125 66.40513610839844 L 41.183990478515625 66.41048431396484 C 33.43315887451172 66.90941619873047 31.861106872558594 65.833984375 31.453033447265625 62.39847946166992 C 31.051963806152344 58.63351058959961 33.81804656982422 57.17833709716797 37.143699645996094 57.65625 L 43.88331985473633 57.8013916015625 L 43.65412139892578 43.996124267578125 C 43.1033935546875 34.28290557861328 44.98305130004883 32.200218200683594 51.606727600097656 28.96411895751953 C 50.825439453125 28.0 91.98412322998047 29.001449584960938 102.89727783203125 28.265419006347656 C 111.74966430664062 29.925498962402344 115.49385070800781 32.32306671142578 115.41212463378906 44.044525146484375 C 114.38948059082031 51.620628356933594 115.37188720703125 57.628658294677734 114.7088394165039 58.08829116821289 C 116.1790771484375 57.210723876953125 121.27333068847656 58.36088943481445 127.83150482177734 57.532989501953125 C 130.40802001953125 54.30755615234375 133.8756866455078 55.99267578125 134.176513671875 57.207733154296875 C 135.94024658203125 57.70165252685547 137.1313934326172 64.1049575805664 133.6730194091797 66.43119812011719 C 131.4447021484375 65.53030395507812 132.9969482421875 71.43278503417969 132.62918090820312 77.56863403320312 C 132.69268798828125 96.9781723022461 133.20352172851562 97.38369750976562 128.24148559570312 102.18736267089844 C 122.9925537109375 106.21661376953125 122.63826751708984 110.60396575927734 127.63980102539062 115.82254028320312 C 128.84495544433594 118.28545379638672 130.8527374267578 120.06324768066406 131.27369689941406 122.44253540039062 C 132.3280487060547 122.09060668945312 132.27001953125 118.71815490722656 134.14903259277344 117.10435485839844 C 136.617431640625 115.29540252685547 138.42538452148438 114.26887512207031 143.50338745117188 114.0543212890625 L 145.2535858154297 114.01717376708984 L 144.6349334716797 92.7252197265625 C 144.12843322753906 81.08009338378906 144.57676696777344 71.18262481689453 144.9523162841797 70.91998291015625 C 144.82171630859375 69.88316345214844 145.84066772460938 71.13835144042969 168.35751342773438 94.9632568359375 C 181.6640625 108.00666809082031 188.649658203125 116.88350677490234 188.85633850097656 118.77542114257812 C 191.50949096679688 144.39593505859375 193.05223083496094 154.9134979248047 192.6025390625 161.1874542236328 C 192.74676513671875 172.18685913085938 192.94371032714844 174.87109375 191.763916015625 178.1190185546875 C 189.95114135742188 182.6756591796875 186.38186645507812 184.65805053710938 180.5756072998047 184.792236328125 C 175.64329528808594 185.43429565429688 175.49819946289062 183.7897186279297 176.20391845703125 188.24267578125 C 176.07980346679688 190.9385986328125 175.41871643066406 193.48391723632812 175.00375366210938 192.72418212890625 C 173.7952423095703 195.1334991455078 174.1237030029297 194.91412353515625 152.41152954101562 194.65255737304688 C 131.80946350097656 194.6278076171875 131.13441467285156 195.27349853515625 129.931396484375 191.40869140625 C 129.28439331054688 188.0594482421875 129.5540771484375 185.62252807617188 126.66876983642578 187.45413208007812 C 124.26886749267578 186.89759826660156 124.25919342041016 185.84036254882812 120.27554321289062 191.5206298828125 C 116.05464172363281 194.82730102539062 111.65198516845703 196.0 107.63221740722656 193.7979736328125" stroke-width="0.0" fill="rgb(2, 2, 3)" opacity="0.9990064"/>
    <path d="M 127.62474822998047 155.94053649902344 C 127.41316986083984 150.79217529296875 129.55433654785156 151.76150512695312 158.80667114257812 152.07315063476562 C 183.432373046875 151.95176696777344 188.80023193359375 152.29806518554688 189.21884155273438 153.80494689941406 C 189.5236053466797 154.32278442382812 189.518798828125 155.26821899414062 189.19970703125 156.06248474121094 C 188.23141479492188 156.4066162109375 127.49665832519531 156.51393127441406 127.62474822998047 155.94053649902344" stroke-width="1.0" fill="rgb(209, 169, 53)" opacity="1.0"/>
    <path d="M 137.73202514648438 146.36138916015625 C 136.594970703125 145.15423583984375 136.1918182373047 142.8781280517578 136.3696746826172 133.0591583251953 C 136.15609741210938 125.44347381591797 136.47238159179688 121.03944396972656 137.30819702148438 120.46440124511719 C 138.1941375732422 119.15469360351562 143.59381103515625 119.00316619873047 158.7203369140625 119.20506286621094 C 177.1144561767578 119.23299407958984 178.29983520507812 119.26813507080078 179.39028930664062 121.10470581054688 C 180.25045776367188 123.26519012451172 180.38645935058594 143.20980834960938 179.38807678222656 144.53330993652344 C 177.7076416015625 147.4237060546875 174.3290557861328 147.8543701171875 157.2513885498047 147.59625244140625 C 141.60284423828125 147.81398010253906 139.18551635742188 147.74124145507812 137.73202514648438 146.36138916015625" stroke-width="1.0" fill="rgb(204, 165, 37)" opacity="0.98936766"/>
    <path d="M 189.4068145751953 156.99481201171875 C 187.87982177734375 156.80426025390625 186.14918518066406 155.2551727294922 185.39443969726562 154.16229248046875 C 185.31834411621094 152.42303466796875 184.23077392578125 152.03997802734375 181.62118530273438 152.3153076171875 L 178.03158569335938 151.81613159179688 L 181.49502563476562 148.90428161621094 L 184.6156463623047 145.52340698242188 L 184.71290588378906 120.21355438232422 L 181.87847900390625 116.92404174804688 L 179.07713317871094 114.22400665283203 L 143.3552703857422 114.32535552978516 L 143.24928283691406 80.01348876953125 C 143.41143798828125 55.96675109863281 143.37994384765625 46.018150329589844 144.13577270507812 44.304603576660156 C 146.2926788330078 39.983154296875 148.6142578125 39.75627899169922 169.33187866210938 39.84520721435547 L 187.73167419433594 39.897735595703125 L 192.67007446289062 44.687164306640625 L 192.78201293945312 101.83385467529297 C 192.78932189941406 133.71356201171875 192.91134643554688 159.03184509277344 192.59140014648438 159.65541076660156 C 192.13229370117188 159.3258819580078 191.0158233642578 158.1751708984375 189.4068145751953 156.99481201171875" stroke-width="1.0" fill="rgb(105, 153, 112)" opacity="1.0"/>
    <path d="M 143.82240295410156 176.1817626953125 C 143.82952880859375 173.06027221679688 160.54541015625 172.77186584472656 161.3350067138672 175.3094024658203 C 163.33302307128906 178.09674072265625 162.60125732421875 177.88021850585938 152.83401489257812 177.6959686279297 C 144.65756225585938 177.71673583984375 142.2630157470703 178.07943725585938 143.82240295410156 176.1817626953125" stroke-width="1.0" fill="rgb(242, 245, 245)" opacity="0.9624976"/>
    <path d="M 48.67264938354492 165.40426635742188 L 48.80579376220703 157.08697509765625 L 108.93351745605469 157.05657958984375 L 109.0459213256836 162.00123596191406 C 109.25161743164062 167.61737060546875 109.47190856933594 167.8284912109375 106.61580657958984 168.98019409179688 C 104.81533813476562 169.60006713867188 102.66200256347656 171.25828552246094 101.64808654785156 172.4427490234375 L 100.03726196289062 175.0791015625 L 48.665802001953125 175.10379028320312 L 48.67264938354492 165.40426635742188" stroke-width="1.0" fill="rgb(247, 254, 251)" opacity="0.98669976"/>
    <path d="M 115.4854965209961 128.91778564453125 C 116.04874420166016 108.46290588378906 115.39409637451172 86.29072570800781 115.14262390136719 80.02418518066406 L 115.01176452636719 66.4385986328125 L 121.91560363769531 66.36158752441406 L 128.25204467773438 66.54222106933594 L 128.09201049804688 95.74166107177734 L 124.30653381347656 99.42779541015625 C 120.59374237060547 102.4966049194336 119.38610076904297 108.2487564086914 119.99774169921875 112.46063995361328 C 119.48079681396484 113.8778305053711 122.86750793457031 118.6291275024414 126.08580780029297 123.33810424804688 L 132.161376953125 132.2021942138672 L 131.8972625732422 140.7611846923828 C 132.56362915039062 148.66244506835938 134.3328857421875 148.72772216796875 131.05380249023438 148.76255798339844 C 127.23442840576172 149.76950073242188 124.20918273925781 153.28280639648438 124.51829528808594 156.91427612304688 C 124.93087768554688 158.65721130371094 123.43209838867188 159.63082885742188 120.88909912109375 161.85226440429688 C 118.90505981445312 163.63719177246094 117.30021667480469 165.3650665283203 115.82381439208984 166.17605590820312 C 115.46781158447266 164.81700134277344 115.62010955810547 148.40113830566406 115.4854965209961 128.91778564453125" stroke-width="1.0" fill="rgb(254, 255, 254)" opacity="1.0"/>
    <path d="M 48.66800308227539 132.0846710205078 L 48.72230911254883 114.28721618652344 L 109.13798522949219 114.33164978027344 L 109.17901611328125 150.9495849609375 L 48.71359634399414 150.9886016845703 L 48.66800308227539 132.0846710205078" stroke-width="1.0" fill="rgb(246, 251, 249)" opacity="0.98379225"/>
    <path d="M 48.89522933959961 105.78350067138672 C 48.574981689453125 103.665771484375 49.38984298706055 103.45063781738281 54.027034759521484 103.65129852294922 C 57.07094192504883 103.51770782470703 58.65251159667969 104.39637756347656 58.09396743774414 105.39260864257812 C 58.61307907104492 107.58228302001953 57.5717658996582 107.93680572509766 53.75575256347656 107.5188217163086 C 49.32854461669922 107.87874603271484 48.67801284790039 107.6075668334961 48.89522933959961 105.78350067138672" stroke-width="1.0" fill="rgb(242, 245, 245)" opacity="0.9626311"/>
    <path d="M 63.45420837402344 106.10204315185547 C 62.644710540771484 104.1265640258789 63.85978317260742 103.50312805175781 66.68016052246094 103.72271728515625 C 70.51947784423828 103.54338836669922 71.29386138916016 104.64590454101562 70.41819763183594 105.78073120117188 C 71.11276245117188 107.2620849609375 70.39529418945312 108.03791809082031 67.1026840209961 107.54159545898438 C 64.34378051757812 107.84785461425781 62.66704177856445 107.2625961303711 63.45420837402344 106.10204315185547" stroke-width="1.0" fill="rgb(240, 243, 243)" opacity="0.95341045"/>
    <path d="M 75.85514831542969 106.92974853515625 C 74.55052185058594 104.49143981933594 75.1826171875 103.55858612060547 79.47942352294922 103.68019104003906 C 82.54857635498047 103.58935546875 84.03858947753906 104.43452453613281 83.23013305664062 105.15052795410156 C 83.50786590576172 107.27896118164062 82.2635498046875 107.97178649902344 79.82962036132812 107.76039123535156 C 77.77840423583984 107.97915649414062 75.68243408203125 107.70941162109375 75.85514831542969 106.92974853515625" stroke-width="1.0" fill="rgb(242, 245, 245)" opacity="0.96170753"/>
    <path d="M 88.63176727294922 105.6959457397461 C 87.97103118896484 104.1067123413086 88.94202423095703 103.34054565429688 92.08430480957031 103.43390655517578 C 95.22142791748047 103.62040710449219 96.2147216796875 104.30277252197266 95.76531219482422 105.31529998779297 C 96.18500518798828 107.34473419189453 94.71240234375 108.10342407226562 92.37310028076172 107.45687866210938 C 88.73892974853516 107.67082214355469 87.94976806640625 107.34007263183594 88.63176727294922 105.6959457397461" stroke-width="1.0" fill="rgb(242, 245, 245)" opacity="0.9620941"/>
    <path d="M 100.79305267333984 105.17800903320312 C 100.06556701660156 103.96192932128906 100.98761749267578 103.57492065429688 104.81626892089844 103.70122528076172 C 108.80220031738281 103.50215911865234 109.50965118408203 104.05572509765625 108.79698181152344 105.02137756347656 C 109.56390380859375 107.31137084960938 108.01348876953125 107.73080444335938 105.2508544921875 107.66079711914062 C 101.8398208618164 107.64912414550781 100.14762115478516 107.10267639160156 100.79305267333984 105.17800903320312" stroke-width="1.0" fill="rgb(241, 244, 244)" opacity="0.95647633"/>
    <path d="M 50.072967529296875 92.14595794677734 C 50.12575149536133 91.08751678466797 49.96880340576172 81.3455810546875 50.01280212402344 69.90747833251953 L 50.19118881225586 48.4454345703125 L 54.42068862915039 48.902191162109375 L 57.786991119384766 48.87994384765625 L 57.805686950683594 92.77647399902344 L 53.65666961669922 92.82527160644531 C 52.008277893066406 93.07891845703125 50.30575942993164 92.8674087524414 50.072967529296875 92.14595794677734" stroke-width="1.0" fill="rgb(247, 251, 249)" opacity="0.9814266"/>
    <path d="M 63.759281158447266 92.61448669433594 C 63.29309844970703 92.58486938476562 63.38846206665039 81.84231567382812 63.3891716003418 70.61076354980469 L 63.15629577636719 48.552490234375 L 67.32662200927734 48.52642822265625 L 70.6605224609375 48.43580627441406 L 70.74539947509766 92.9334716796875 L 67.83796691894531 92.8982162475586 C 66.48703002929688 92.48811340332031 64.99449920654297 92.6920166015625 63.759281158447266 92.61448669433594" stroke-width="1.0" fill="rgb(247, 251, 248)" opacity="0.9785335"/>
    <path d="M 75.74081420898438 92.2788314819336 C 75.87841796875 90.78280639648438 75.77816772460938 81.00738525390625 75.74710083007812 69.27023315429688 L 75.66407775878906 48.74968719482422 L 83.23741912841797 49.053077697753906 L 83.28290557861328 92.37065124511719 L 79.0672607421875 92.44254302978516 C 77.86599731445312 92.88392639160156 76.21075439453125 92.79225158691406 75.74081420898438 92.2788314819336" stroke-width="1.0" fill="rgb(246, 253, 248)" opacity="0.98126704"/>
    <path d="M 88.42550659179688 92.50028228759766 C 88.59999084472656 90.37293243408203 88.62374114990234 81.08450317382812 88.76172637939453 69.79118347167969 L 88.80422973632812 48.36524200439453 L 92.36677551269531 49.084877014160156 L 95.46868133544922 48.88758087158203 L 95.46542358398438 92.48857116699219 L 92.27837371826172 92.84398651123047 C 91.37615966796875 93.10307312011719 89.59225463867188 92.843017578125 88.42550659179688 92.50028228759766" stroke-width="1.0" fill="rgb(247, 251, 247)" opacity="0.97889525"/>
    <path d="M 100.97249603271484 92.98302459716797 C 100.8984603881836 91.767578125 101.04638671875 81.51490783691406 101.13243865966797 69.28179168701172 L 100.97627258300781 48.72985076904297 L 109.02149963378906 49.20160675048828 L 109.06481170654297 92.52608489990234 L 105.70378112792969 92.85050964355469 C 103.18917083740234 92.75828552246094 101.84121704101562 92.61858367919922 100.97249603271484 92.98302459716797" stroke-width="1.0" fill="rgb(248, 252, 250)" opacity="0.9839521"/>
    <path d="M 49.59132385253906 41.643341064453125 C 49.65188217163086 39.41200256347656 49.990665435791016 38.17224884033203 51.292118072509766 36.49583435058594 C 52.763832092285156 34.29331970214844 53.98189163208008 34.94642639160156 79.45919799804688 34.86674499511719 C 104.99476623535156 34.873451232910156 106.02692413330078 34.139183044433594 107.80274963378906 36.360877990722656 C 108.61632537841797 38.2169189453125 108.90602111816406 39.579681396484375 109.40398406982422 41.26393127441406 C 109.89549255371094 42.046653747558594 105.81048583984375 41.67948913574219 79.024658203125 41.82624816894531 C 52.86153793334961 41.67071533203125 48.64095687866211 42.295166015625 49.59132385253906 41.643341064453125" stroke-width="1.0" fill="rgb(249, 252, 251)" opacity="0.98847485"/>
    <path d="M 108.4104232788086 187.7245635986328 C 101.7383804321289 185.08285522460938 104.38111877441406 173.8435516357422 112.11747741699219 174.12860107421875 C 115.49700927734375 173.8291473388672 119.4021987915039 177.49111938476562 119.13705444335938 180.3734893798828 C 119.39814758300781 183.59317016601562 117.43528747558594 186.78524780273438 115.12369537353516 187.9327392578125 C 112.28655242919922 189.0678253173828 111.33168029785156 188.95599365234375 108.4104232788086 187.7245635986328" stroke-width="1.0" fill="rgb(207, 167, 40)" opacity="0.9851084"/>
    <path d="M 39.56903839111328 182.57659912109375 C 37.274497985839844 181.3300323486328 36.840370178222656 177.09786987304688 38.71161651611328 175.22793579101562 C 41.268218994140625 173.47898864746094 42.51165771484375 173.7751922607422 42.1461181640625 176.37680053710938 L 42.10338592529297 179.65185546875 L 70.25245666503906 179.71807861328125 C 94.81219482421875 179.56532287597656 99.05931854248047 179.1829833984375 98.44506072998047 181.36448669433594 C 98.53663635253906 182.8817901611328 94.74201965332031 182.788330078125 72.47584533691406 182.7999725341797 C 58.110923767089844 182.8023681640625 45.3297119140625 182.4757537841797 44.288883209228516 183.46400451660156 C 42.349151611328125 183.73867797851562 40.20658874511719 183.2745361328125 39.56903839111328 182.57659912109375" stroke-width="1.0" fill="rgb(210, 169, 48)" opacity="0.99627286"/>
  </g>
</svg>
