<?xml version="1.0" ?>
<svg xmlns="http://www.w3.org/2000/svg" version="1.1" width="224" height="224">
  <defs/>
  <g>
    <path d="M 74.48199462890625 192.6346435546875 C 58.414974212646484 184.03822326660156 47.3997802734375 171.58047485351562 38.97747802734375 155.31822204589844 C 32.85540771484375 141.30172729492188 31.637542724609375 135.9744415283203 30.640968322753906 120.58361053466797 C 31.30750274658203 108.39581298828125 31.812705993652344 105.9281997680664 33.34123229980469 100.62335968017578 C 35.069801330566406 92.60418701171875 41.1473388671875 79.16009521484375 45.67579650878906 73.02653503417969 C 47.42405319213867 70.67140197753906 49.021202087402344 68.46379089355469 49.1482048034668 68.33941650390625 C 49.02212142944336 68.68577575683594 47.84002685546875 68.31422424316406 46.85514450073242 68.00334167480469 C 38.64595031738281 64.20279693603516 34.872894287109375 52.57769012451172 39.849815368652344 43.20262908935547 C 42.2115478515625 38.168174743652344 47.778724670410156 33.047210693359375 52.459407806396484 31.890708923339844 C 56.89574432373047 30.07714080810547 63.4650764465332 30.521804809570312 67.961669921875 32.858314514160156 C 71.5031967163086 34.34099578857422 75.66790771484375 39.335899353027344 76.48798370361328 42.834808349609375 C 76.68754577636719 43.83511734008789 77.07820129394531 45.42281723022461 77.60965728759766 45.65201950073242 C 77.05733489990234 45.908729553222656 79.74724578857422 44.97487258911133 82.40997314453125 43.918731689453125 C 92.39718627929688 40.4872932434082 100.38243103027344 38.89315414428711 112.3890151977539 38.655887603759766 C 124.31494140625 38.997093200683594 130.3386688232422 40.314735412597656 141.43202209472656 43.739112854003906 C 147.2112579345703 46.1318473815918 147.7283172607422 46.3105583190918 147.17922973632812 43.66090393066406 C 147.91220092773438 42.738285064697266 148.6376953125 40.308250427246094 149.72998046875 38.48163604736328 C 156.91114807128906 27.99999237060547 174.27484130859375 28.003021240234375 181.87774658203125 38.663841247558594 C 187.2032470703125 45.80022048950195 188.11871337890625 55.717071533203125 183.73043823242188 62.24367141723633 C 181.9392547607422 64.98745727539062 178.37786865234375 68.00462341308594 175.7125244140625 68.86971282958984 C 175.08102416992188 68.3437271118164 177.19955444335938 71.18523406982422 179.40672302246094 74.96185302734375 C 187.97592163085938 88.99640655517578 192.59658813476562 102.3236083984375 193.35903930664062 117.10400390625 C 193.31362915039062 128.6793975830078 192.58529663085938 135.3995819091797 189.03111267089844 145.31866455078125 C 182.88021850585938 163.2437744140625 170.0714111328125 179.65377807617188 154.5362548828125 189.70758056640625 C 145.29043579101562 195.14736938476562 144.23297119140625 196.0 142.3576202392578 192.57513427734375 L 140.2211456298828 189.45953369140625 L 132.99354553222656 191.50274658203125 C 126.737060546875 193.1629180908203 124.41404724121094 194.1304473876953 112.01931762695312 194.18588256835938 C 99.72714233398438 194.00282287597656 97.43377685546875 193.00442504882812 91.18819427490234 191.45016479492188 L 83.51870727539062 189.4884033203125 L 82.05081176757812 192.38729858398438 C 79.6727294921875 195.8518829345703 79.64256286621094 195.05389404296875 74.48199462890625 192.6346435546875" stroke-width="1.0" fill="rgb(1, 0, 1)" opacity="0.9963396"/>
    <path d="M 50.052337646484375 60.20028305053711 C 42.1123046875 53.266510009765625 49.94059753417969 39.899208068847656 60.480384826660156 42.328556060791016 C 63.625205993652344 43.049747467041016 67.95915985107422 47.15632629394531 68.05183410644531 49.220699310302734 C 68.16490173339844 50.16349792480469 66.76533508300781 51.231544494628906 65.54051208496094 51.929969787597656 C 64.20057678222656 52.662715911865234 61.0134162902832 55.34530258178711 58.44522476196289 57.719913482666016 C 55.90947723388672 60.3228759765625 53.579715728759766 62.2620964050293 53.384124755859375 62.184871673583984 C 52.837615966796875 62.268985748291016 51.484161376953125 61.35524368286133 50.052337646484375 60.20028305053711" stroke-width="1.0" fill="rgb(208, 131, 20)" opacity="0.9984392"/>
    <path d="M 166.9119110107422 59.343994140625 C 165.842041015625 57.327178955078125 162.74404907226562 54.79319381713867 160.32958984375 53.49695587158203 C 157.79833984375 51.81065368652344 156.25311279296875 50.07988739013672 155.87416076660156 49.011314392089844 C 155.9654998779297 46.87408447265625 160.1919708251953 43.02450180053711 163.34532165527344 42.4383544921875 C 171.63748168945312 40.52198028564453 178.62548828125 48.1341438293457 176.60372924804688 56.54541015625 C 176.2026824951172 58.762149810791016 171.94073486328125 62.29369354248047 170.17376708984375 62.09689712524414 C 169.77032470703125 62.303768157958984 168.3985137939453 60.980281829833984 166.9119110107422 59.343994140625" stroke-width="1.0" fill="rgb(208, 133, 21)" opacity="0.9980714"/>
    <path d="M 101.80402374267578 155.99444580078125 C 89.01193237304688 153.48812866210938 75.97915649414062 145.2196044921875 63.201881408691406 133.53836059570312 C 55.34660720825195 125.2073745727539 51.78837966918945 119.7177505493164 48.525856018066406 111.54058074951172 C 40.72308349609375 92.38581848144531 46.19175338745117 74.75321197509766 63.515018463134766 60.83449172973633 C 77.91171264648438 49.17359924316406 97.08529663085938 43.285865783691406 116.13579559326172 44.144222259521484 C 147.99819946289062 46.04206466674805 175.17344665527344 65.87623596191406 178.65036010742188 89.40510559082031 C 181.14434814453125 105.92867279052734 171.39186096191406 125.71903228759766 153.6236572265625 139.47401428222656 C 135.8155059814453 154.38104248046875 118.44718933105469 159.68971252441406 101.80402374267578 155.99444580078125" stroke-width="1.0" fill="rgb(247, 252, 251)" opacity="0.9996806"/>
    <path d="M 69.846923828125 150.64956665039062 C 65.23768615722656 148.0010986328125 52.03082275390625 143.15225219726562 46.712364196777344 142.0296173095703 C 43.81830596923828 141.55406188964844 40.85169219970703 140.73300170898438 40.044822692871094 140.9599609375 C 39.94590759277344 140.00912475585938 38.95745086669922 136.21400451660156 38.52075958251953 132.3065643310547 C 36.272987365722656 124.88135528564453 37.19883728027344 105.58309936523438 39.3302001953125 102.97088623046875 C 40.048919677734375 101.10470581054688 40.34698486328125 101.27197265625 39.78667449951172 104.67558288574219 C 39.715431213378906 110.45574951171875 43.272911071777344 121.39155578613281 48.7437744140625 128.1180419921875 C 52.52345275878906 134.2667236328125 59.836875915527344 141.11862182617188 67.67594909667969 146.74266052246094 C 76.06094360351562 152.3536834716797 75.89352416992188 153.7851104736328 69.846923828125 150.64956665039062" stroke-width="1.0" fill="rgb(248, 251, 251)" opacity="0.9897291"/>
    <path d="M 150.99563598632812 150.45608520507812 C 152.1141357421875 149.84683227539062 155.1011962890625 147.55587768554688 158.61349487304688 144.98208618164062 C 172.55833435058594 134.6133575439453 180.91207885742188 122.25967407226562 183.33197021484375 108.40078735351562 C 183.91995239257812 98.8655776977539 185.63449096679688 101.69641876220703 186.9812469482422 114.58164978027344 C 187.8997344970703 124.8072509765625 185.3721923828125 137.65203857421875 183.62249755859375 140.4517364501953 C 183.7045135498047 140.96902465820312 180.16696166992188 141.6605224609375 175.79196166992188 142.5240020751953 C 171.73928833007812 143.4320526123047 165.23001098632812 145.6605682373047 161.60076904296875 147.37472534179688 C 156.8585205078125 148.99832153320312 152.64776611328125 150.79281616210938 151.83482360839844 151.43359375 C 150.83267211914062 152.33798217773438 150.73287963867188 151.55093383789062 150.99563598632812 150.45608520507812" stroke-width="1.0" fill="rgb(247, 251, 250)" opacity="0.9865357"/>
    <path d="M 106.83096313476562 141.468505859375 C 100.68339538574219 140.31211853027344 95.44153594970703 135.75201416015625 92.72900390625 129.14019775390625 C 91.55018615722656 125.93397521972656 90.77613067626953 123.09831237792969 90.42584228515625 116.7157211303711 L 90.54379272460938 108.71289825439453 L 93.05717468261719 107.8243408203125 C 105.4686508178711 104.63944244384766 117.5296401977539 104.35149383544922 130.18264770507812 107.73296356201172 C 132.9416046142578 108.07628631591797 133.2164306640625 108.40643310546875 133.1654510498047 111.94845581054688 C 133.90003967285156 116.7186279296875 132.7462615966797 125.55259704589844 130.41554260253906 129.8759307861328 C 126.31907653808594 139.3787841796875 116.64768981933594 143.78976440429688 106.83096313476562 141.468505859375" stroke-width="1.0" fill="rgb(1, 0, 1)" opacity="0.99781454"/>
    <path d="M 73.50569915771484 98.3989028930664 C 64.6385498046875 94.14381408691406 63.217681884765625 81.49996185302734 70.64085388183594 75.26070404052734 C 78.45892333984375 69.40123748779297 88.70756530761719 70.86483001708984 92.95767211914062 78.63400268554688 C 95.34365844726562 82.40971374511719 95.4857406616211 88.42019653320312 93.23777770996094 92.40884399414062 C 90.14213562011719 99.10517120361328 80.66645812988281 102.03593444824219 73.50569915771484 98.3989028930664" stroke-width="1.0" fill="rgb(0, 0, 0)" opacity="0.99888074"/>
    <path d="M 137.36573791503906 98.78841400146484 C 132.1859893798828 96.72425079345703 128.68702697753906 91.37728881835938 129.01402282714844 85.85784912109375 C 128.8541259765625 81.963623046875 131.84228515625 76.47753143310547 135.2603759765625 74.15850830078125 C 138.5660858154297 71.77880096435547 144.47579956054688 70.9389877319336 148.605224609375 72.44273376464844 C 152.53445434570312 73.32066345214844 157.2263641357422 78.53141021728516 157.6056671142578 82.41415405273438 C 160.12295532226562 94.12113952636719 148.11865234375 103.60676574707031 137.36573791503906 98.78841400146484" stroke-width="1.0" fill="rgb(2, 0, 2)" opacity="0.9927763"/>
    <path d="M 101.48075866699219 128.43991088867188 C 99.2580337524414 127.59172058105469 96.08818817138672 124.04174041748047 96.09281158447266 122.09590911865234 C 96.07402801513672 118.71293640136719 103.11933898925781 120.85297393798828 105.75916290283203 124.84085845947266 C 106.70472717285156 126.53472900390625 106.76807403564453 127.21012115478516 106.0306167602539 128.2433319091797 C 104.88652038574219 129.58287048339844 103.99242401123047 129.6700439453125 101.48075866699219 128.43991088867188" stroke-width="1.0" fill="rgb(74, 17, 6)" opacity="0.9929346"/>
    <path d="M 117.4091567993164 128.10610961914062 C 116.11856842041016 126.72074890136719 117.56232452392578 123.99735260009766 120.76986694335938 122.02854919433594 C 124.8544921875 119.88269805908203 127.29430389404297 120.24212646484375 127.1681900024414 122.68347930908203 C 127.01700592041016 127.34880828857422 119.82454681396484 131.2564697265625 117.4091567993164 128.10610961914062" stroke-width="1.0" fill="rgb(76, 18, 8)" opacity="0.9984449"/>
    <path d="M 77.6744384765625 88.97278594970703 C 75.61203002929688 86.64266967773438 75.98692321777344 83.54483032226562 78.60882568359375 82.04170989990234 C 81.74452209472656 80.32762908935547 85.2633285522461 81.65516662597656 85.846923828125 84.73870849609375 C 86.69844055175781 89.65214538574219 80.65381622314453 92.36832427978516 77.6744384765625 88.97278594970703" stroke-width="1.0" fill="rgb(247, 251, 251)" opacity="0.9863984"/>
    <path d="M 139.1638641357422 89.46499633789062 C 137.16824340820312 86.57270050048828 137.42823791503906 83.4432144165039 140.1954803466797 81.80265808105469 C 142.67807006835938 80.88380432128906 142.88645935058594 80.78035736083984 145.167724609375 81.81279754638672 C 147.357666015625 83.10223388671875 147.70828247070312 84.13932037353516 147.2088623046875 87.38521575927734 C 147.23080444335938 89.14874267578125 144.74440002441406 90.67430877685547 142.63571166992188 90.45828247070312 C 141.42042541503906 90.46533966064453 139.9571533203125 90.0345458984375 139.1638641357422 89.46499633789062" stroke-width="1.0" fill="rgb(246, 250, 249)" opacity="0.9828719"/>
  </g>
</svg>
