<?xml version="1.0" ?>
<svg xmlns="http://www.w3.org/2000/svg" version="1.1" width="224" height="224">
  <defs/>
  <g>
    <path d="M 99.54236602783203 27.99999237060547 C 107.76419067382812 27.99999237060547 115.98602294921875 27.99999237060547 124.20784759521484 27.99999237060547 C 128.92459106445312 28.422561645507812 131.90203857421875 31.391448974609375 132.326171875 36.10974884033203 C 132.326171875 42.491111755371094 132.326171875 48.87323760986328 132.326171875 55.25459289550781 C 132.20321655273438 55.709068298339844 132.19232177734375 56.20945739746094 131.95884704589844 56.618797302246094 C 130.9549560546875 58.376007080078125 128.30125427246094 58.376007080078125 127.29735565185547 56.618797302246094 C 127.06389617919922 56.20945739746094 127.0522232055664 55.709068298339844 126.93003845214844 55.25459289550781 C 126.93003845214844 48.87323760986328 126.93003845214844 42.491111755371094 126.93003845214844 36.10974884033203 C 126.43354034423828 34.298072814941406 126.02108764648438 33.89418029785156 124.20784759521484 33.40546417236328 C 115.98602294921875 33.40546417236328 107.76419067382812 33.40546417236328 99.54236602783203 33.40546417236328 C 97.73379516601562 33.89573669433594 97.33068084716797 34.30040740966797 96.84352111816406 36.10974884033203 C 96.84352111816406 42.491111755371094 96.84352111816406 48.87323760986328 96.84352111816406 55.25459289550781 C 96.72134399414062 55.709068298339844 96.70966339111328 56.20945739746094 96.47542572021484 56.618797302246094 C 95.46685791015625 58.38145446777344 92.8108139038086 58.369781494140625 91.79679870605469 56.618797302246094 C 91.56022644042969 56.21101379394531 91.54777526855469 55.709068298339844 91.42325592041016 55.25459289550781 C 91.42325592041016 48.87323760986328 91.42325592041016 42.491111755371094 91.42325592041016 36.10974884033203 C 91.84661102294922 31.390670776367188 94.8248291015625 28.422561645507812 99.54236602783203 27.99999237060547 C 99.54236602783203 27.99999237060547 99.54236602783203 27.99999237060547 99.54236602783203 27.99999237060547" stroke-width="0.0" fill="rgb(51, 51, 51)" opacity="1.0"/>
    <path d="M 49.9732666015625 121.97785949707031 C 91.2520523071289 121.97785949707031 132.53005981445312 121.97785949707031 173.80885314941406 121.97785949707031 C 177.70693969726562 128.46661376953125 181.60577392578125 134.95535278320312 185.50384521484375 141.444091796875 C 185.50384521484375 152.8636016845703 185.50384521484375 164.28233337402344 185.50384521484375 175.70106506347656 C 185.50384521484375 178.20692443847656 185.50384521484375 180.71197509765625 185.50384521484375 183.21783447265625 C 185.50384521484375 186.05520629882812 185.72097778320312 188.83575439453125 183.9668731689453 191.2591094970703 C 181.60812377929688 194.5167236328125 178.1139373779297 194.6093292236328 174.47189331054688 194.6093292236328 C 170.84307861328125 194.6093292236328 167.2135009765625 194.6093292236328 163.58389282226562 194.6093292236328 C 144.8056182861328 194.6093292236328 126.02731323242188 194.6093292236328 107.24901580810547 194.6093292236328 C 89.8310317993164 194.6093292236328 72.41227722167969 194.6093292236328 54.99351501464844 194.6093292236328 C 49.58648681640625 194.6093292236328 42.14209747314453 196.0 39.16698455810547 190.17662048339844 C 38.55608367919922 188.9812774658203 38.38410186767578 187.81707763671875 38.27903747558594 186.50033569335938 C 38.27903747558594 171.48158264160156 38.27903747558594 156.4628448486328 38.27903747558594 141.444091796875 C 42.17711639404297 134.95535278320312 46.07518768310547 128.46661376953125 49.9732666015625 121.97785949707031" stroke-width="0.0" fill="rgb(50, 50, 50)" opacity="1.0"/>
    <path d="M 46.39192199707031 49.348724365234375 C 46.39192199707031 49.348724365234375 46.39192199707031 49.348724365234375 46.39192199707031 49.348724365234375 C 82.02009582519531 49.348724365234375 117.64906311035156 49.348724365234375 153.27801513671875 49.348724365234375 C 159.24459838867188 49.348724365234375 165.21192932128906 49.348724365234375 171.1792755126953 49.348724365234375 C 173.94659423828125 49.348724365234375 177.24700927734375 48.881797790527344 179.91082763671875 49.747169494628906 C 183.4127960205078 50.88414001464844 185.22836303710938 53.94874572753906 185.50384521484375 57.456939697265625 C 185.50384521484375 72.47490692138672 185.50384521484375 87.49287414550781 185.50384521484375 102.51006317138672 C 181.60577392578125 109.0003662109375 177.70693969726562 115.49066925048828 173.80885314941406 121.98097229003906 C 132.53005981445312 121.98097229003906 91.2520523071289 121.98097229003906 49.9732666015625 121.98097229003906 C 46.07518768310547 115.49066925048828 42.17711639404297 109.0003662109375 38.27903747558594 102.51006317138672 C 38.27903747558594 87.49287414550781 38.27903747558594 72.47490692138672 38.27903747558594 57.456939697265625 C 38.652587890625 52.78453826904297 41.71952819824219 49.719154357910156 46.39192199707031 49.348724365234375 C 46.39192199707031 49.348724365234375 46.39192199707031 49.348724365234375 46.39192199707031 49.348724365234375" stroke-width="0.0" fill="rgb(51, 51, 51)" opacity="1.0"/>
    <path d="M 126.04910278320312 128.49462890625 C 126.04910278320312 128.49462890625 126.04910278320312 128.49462890625 126.04910278320312 128.49462890625 C 131.00088500976562 128.90707397460938 134.43902587890625 131.5631103515625 136.03591918945312 136.27597045898438 C 141.65695190429688 136.27597045898438 147.2779998779297 136.27597045898438 152.89903259277344 136.27597045898438 C 154.54962158203125 131.69619750976562 158.66558837890625 128.55142211914062 163.71153259277344 129.32342529296875 C 165.95123291015625 129.66583251953125 170.47265625 131.4689483642578 169.7154541015625 134.48919677734375 C 169.36058044433594 135.90476989746094 167.88821411132812 136.84095764160156 166.456298828125 136.489990234375 C 165.253173828125 136.19505310058594 164.5465545654297 135.07130432128906 163.32943725585938 134.75613403320312 C 160.64381408691406 134.05963134765625 157.93563842773438 136.1366729736328 157.95196533203125 138.92579650878906 C 157.96908569335938 141.70791625976562 160.71307373046875 143.74449157714844 163.3769073486328 143.00909423828125 C 164.58702087402344 142.67601013183594 165.26873779296875 141.5468292236328 166.46173095703125 141.22775268554688 C 169.23995971679688 140.48533630371094 170.69522094726562 143.80519104003906 169.04774475097656 145.76551818847656 C 166.0173797607422 149.37098693847656 159.9652099609375 149.29237365722656 156.43133544921875 146.6441192626953 C 154.69125366210938 145.33982849121094 153.7324981689453 143.66278076171875 152.95350646972656 141.6814422607422 C 147.30056762695312 141.6814422607422 141.64683532714844 141.6814422607422 135.9931182861328 141.6814422607422 C 134.07403564453125 147.0106658935547 128.93861389160156 150.4931640625 123.18449401855469 148.90171813964844 C 121.36347198486328 148.39822387695312 118.50743103027344 147.0729217529297 117.95023345947266 145.04722595214844 C 117.41170501708984 143.08689880371094 119.28175354003906 141.2145233154297 121.24129486083984 141.73358154296875 C 122.55258178710938 142.08145141601562 123.2957763671875 143.3297119140625 124.63819885253906 143.6954803466797 C 127.24210357666016 144.4044189453125 130.0545654296875 142.86355590820312 130.7814178466797 140.24642944335938 C 131.8000946044922 136.5833740234375 128.36817932128906 133.1078643798828 124.69500732421875 134.0720672607422 C 122.98060607910156 134.52267456054688 121.8335189819336 136.52578735351562 119.87864685058594 135.95068359375 C 117.74400329589844 135.3226776123047 117.48096466064453 132.921875 118.76580047607422 131.39968872070312 C 120.51133728027344 129.33274841308594 123.50589752197266 128.64871215820312 126.04910278320312 128.49462890625 C 126.04910278320312 128.49462890625 126.04910278320312 128.49462890625 126.04910278320312 128.49462890625" stroke-width="0.0" fill="rgb(181, 181, 181)" opacity="1.0"/>
    <path d="M 135.2919464111328 152.2760467529297 C 135.2919464111328 152.2760467529297 135.2919464111328 152.2760467529297 135.2919464111328 152.2760467529297 C 139.2102508544922 152.65504455566406 141.76278686523438 154.5102996826172 143.3192138671875 158.1282196044922 C 147.22430419921875 158.1282196044922 151.13015747070312 158.1282196044922 155.03521728515625 158.1282196044922 C 156.65936279296875 154.5445556640625 159.98233032226562 152.16632080078125 164.07183837890625 152.9507598876953 C 166.1099853515625 153.3414306640625 169.46798706054688 154.98423767089844 168.82672119140625 157.60447692871094 C 168.7154541015625 158.06129455566406 168.4788818359375 158.50408935546875 168.15513610839844 158.84495544433594 C 165.979248046875 161.1305694580078 164.626708984375 158.05740356445312 162.5216522216797 158.21070861816406 C 161.13253784179688 158.3118896484375 159.98155212402344 159.31187438964844 159.99400329589844 160.7772674560547 C 159.9971160888672 161.2239532470703 160.12786865234375 161.68310546875 160.35198974609375 162.0698699951172 C 162.2235870361328 165.29246520996094 164.69674682617188 161.26675415039062 166.94345092773438 161.8885498046875 C 169.03062438964844 162.4659881591797 169.4664306640625 164.88699340820312 168.15513610839844 166.41075134277344 C 164.1255340576172 171.09170532226562 157.30917358398438 168.2504425048828 155.08970642089844 163.5329132080078 C 151.14805603027344 163.5329132080078 147.20639038085938 163.5329132080078 143.26473999023438 163.5329132080078 C 141.38925170898438 167.73681640625 137.18844604492188 170.38430786132812 132.53707885742188 168.8224334716797 C 131.05458068847656 168.32437133789062 129.00942993164062 167.2200927734375 128.5518341064453 165.5741729736328 C 128.00865173339844 163.620849609375 129.88258361816406 161.74302673339844 131.83511352539062 162.25897216796875 C 133.02578735351562 162.57337951660156 132.98532104492188 163.16793823242188 134.03590393066406 163.6076202392578 C 135.5798797607422 164.2535400390625 137.4219207763672 163.5469207763672 138.08029174804688 161.98971557617188 C 138.9293212890625 159.98348999023438 137.4483642578125 157.70098876953125 135.26470947265625 157.68153381347656 C 133.7541961669922 157.6682891845703 133.189208984375 158.88853454589844 131.83279418945312 159.2200469970703 C 130.90126037597656 159.44729614257812 129.911376953125 159.14456176757812 129.25144958496094 158.45350646972656 C 128.1471710205078 157.29708862304688 128.38841247558594 155.76556396484375 129.34483337402344 154.64337158203125 C 130.79620361328125 152.94143676757812 133.1954345703125 152.42002868652344 135.2919464111328 152.2760467529297 C 135.2919464111328 152.2760467529297 135.2919464111328 152.2760467529297 135.2919464111328 152.2760467529297" stroke-width="0.0" fill="rgb(181, 181, 181)" opacity="1.0"/>
    <path d="M 72.98348999023438 135.70477294921875 C 72.98348999023438 135.70477294921875 72.98348999023438 135.70477294921875 72.98348999023438 135.70477294921875 C 75.49244689941406 135.74212646484375 78.0558853149414 135.77169799804688 80.26289367675781 137.13201904296875 C 82.16718292236328 138.30555725097656 83.54773712158203 140.1826171875 85.18042755126953 141.67523193359375 C 89.59835052490234 145.71182250976562 94.5680160522461 148.27525329589844 100.58594512939453 146.36007690429688 C 102.01007843017578 145.9071502685547 103.39918518066406 145.24566650390625 104.63421630859375 144.40130615234375 C 104.63421630859375 144.40130615234375 104.63421630859375 144.40130615234375 104.63421630859375 144.40130615234375 C 105.07624053955078 144.236328125 105.49102783203125 143.95382690429688 105.95951080322266 143.9063720703125 C 107.97742462158203 143.70091247558594 109.52528381347656 145.8511199951172 108.68247985839844 147.69781494140625 C 108.48637390136719 148.12661743164062 108.08637237548828 148.42855834960938 107.78831481933594 148.79432678222656 C 107.78831481933594 148.79432678222656 107.78831481933594 148.79432678222656 107.78831481933594 148.79432678222656 C 101.36493682861328 153.16944885253906 93.01704406738281 153.66671752929688 86.40377807617188 149.47760009765625 C 84.3127212524414 148.153076171875 82.379638671875 146.51260375976562 80.61698913574219 144.78030395507812 C 79.50413513183594 143.68768310546875 78.50180053710938 142.28302001953125 77.07611083984375 141.5810546875 C 75.38739013671875 140.74993896484375 73.33523559570312 141.66278076171875 71.70799255371094 140.7655029296875 C 69.93444061279297 139.7864990234375 69.88540649414062 137.13824462890625 71.62628173828125 136.09854125976562 C 72.03016662597656 135.8565216064453 72.53056335449219 135.83628845214844 72.98348999023438 135.70477294921875 C 72.98348999023438 135.70477294921875 72.98348999023438 135.70477294921875 72.98348999023438 135.70477294921875" stroke-width="0.0" fill="rgb(181, 181, 181)" opacity="1.0"/>
    <path d="M 65.12664031982422 164.68467712402344 C 80.92826843261719 164.68467712402344 96.72911834716797 164.68467712402344 112.53074645996094 164.68467712402344 C 112.53074645996094 168.3166046142578 112.53074645996094 171.94931030273438 112.53074645996094 175.5812225341797 C 96.72911834716797 175.5812225341797 80.92826843261719 175.5812225341797 65.12664031982422 175.5812225341797 C 65.12664031982422 171.94931030273438 65.12664031982422 168.3166046142578 65.12664031982422 164.68467712402344" stroke-width="0.0" fill="rgb(247, 208, 112)" opacity="1.0"/>
    <path d="M 46.40126037597656 49.348724365234375 C 90.07150268554688 49.348724365234375 133.7417449951172 49.348724365234375 177.4127655029297 49.348724365234375 C 182.0913848876953 49.71759796142578 185.1450958251953 52.77598571777344 185.51864624023438 57.453819274902344 C 185.51864624023438 60.76511764526367 185.51864624023438 64.07563781738281 185.51864624023438 67.38694763183594 C 185.1458740234375 62.716102600097656 182.08438110351562 59.649940490722656 177.4127655029297 59.28028869628906 C 133.7417449951172 59.28028869628906 90.07150268554688 59.28028869628906 46.40126037597656 59.28028869628906 C 41.71952819824219 59.649940490722656 38.663482666015625 62.70598602294922 38.29460906982422 67.38694763183594 C 38.29460906982422 64.07563781738281 38.29460906982422 60.76511764526367 38.29460906982422 57.453819274902344 C 38.66426086425781 52.765869140625 41.713294982910156 49.71759796142578 46.40126037597656 49.348724365234375 C 46.40126037597656 49.348724365234375 46.40126037597656 49.348724365234375 46.40126037597656 49.348724365234375" stroke-width="0.0" fill="rgb(25, 25, 25)" opacity="1.0"/>
    <path d="M 52.20128631591797 60.762786865234375 C 55.153045654296875 60.762786865234375 58.105594635009766 60.762786865234375 61.05735778808594 60.762786865234375 C 61.51261520385742 60.88652420043945 62.01378631591797 60.898197174072266 62.42234420776367 61.1324348449707 C 64.18110656738281 62.14100646972656 64.18266296386719 64.79237365722656 62.42234420776367 65.80016326904297 C 62.01378631591797 66.03440856933594 61.51261520385742 66.04608154296875 61.05735778808594 66.16903686523438 C 58.105594635009766 66.16903686523438 55.153045654296875 66.16903686523438 52.20128631591797 66.16903686523438 C 52.20128631591797 77.22824096679688 52.20128631591797 88.2882080078125 52.20128631591797 99.34740447998047 C 52.077552795410156 99.8018798828125 52.065879821777344 100.3014907836914 51.83085632324219 100.70927429199219 C 50.821510314941406 102.46337127685547 48.17169952392578 102.46492004394531 47.162353515625 100.70927429199219 C 46.92810821533203 100.3014907836914 46.91643524169922 99.8018798828125 46.793479919433594 99.34740447998047 C 46.793479919433594 88.2882080078125 46.793479919433594 77.22824096679688 46.793479919433594 66.16903686523438 C 47.23005676269531 62.92544174194336 48.958473205566406 61.19935989379883 52.20128631591797 60.762786865234375 C 52.20128631591797 60.762786865234375 52.20128631591797 60.762786865234375 52.20128631591797 60.762786865234375" stroke-width="0.0" fill="rgb(158, 158, 158)" opacity="1.0"/>
    <path d="M 63.47060012817383 72.06011962890625 C 66.42391967773438 72.06011962890625 69.37724304199219 72.06011962890625 72.33056640625 72.06011962890625 C 72.7850341796875 72.18307495117188 73.28543090820312 72.19474792480469 73.6932144165039 72.42899322509766 C 75.45120239257812 73.43598937988281 75.45042419433594 76.0858154296875 73.6932144165039 77.09359741210938 C 73.28543090820312 77.32707214355469 72.7850341796875 77.33952331542969 72.33056640625 77.46247863769531 C 69.37724304199219 77.46247863769531 66.42391967773438 77.46247863769531 63.47060012817383 77.46247863769531 C 63.47060012817383 84.7574462890625 63.47060012817383 92.05242919921875 63.47060012817383 99.34740447998047 C 63.346866607666016 99.8018798828125 63.3351936340332 100.3014907836914 63.100948333740234 100.70927429199219 C 62.09160232543945 102.46414184570312 59.44022750854492 102.46492004394531 58.43166732788086 100.70927429199219 C 58.19742202758789 100.3014907836914 58.18574905395508 99.8018798828125 58.062015533447266 99.34740447998047 C 58.062015533447266 92.05242919921875 58.062015533447266 84.7574462890625 58.062015533447266 77.46247863769531 C 58.48925018310547 74.2328872680664 60.24257278442383 72.48501586914062 63.47060012817383 72.06011962890625 C 63.47060012817383 72.06011962890625 63.47060012817383 72.06011962890625 63.47060012817383 72.06011962890625" stroke-width="0.0" fill="rgb(158, 158, 158)" opacity="1.0"/>
    <path d="M 74.73991394042969 84.96134185791016 C 76.47921752929688 84.96134185791016 78.21930694580078 84.96134185791016 79.95939636230469 84.96134185791016 C 80.41464233398438 85.08429718017578 80.9150390625 85.0959701538086 81.32360076904297 85.33021545410156 C 83.08158874511719 86.33721923828125 83.08002471923828 88.9893798828125 81.32360076904297 89.99638366699219 C 80.9150390625 90.23140716552734 80.41464233398438 90.24308013916016 79.95939636230469 90.36603546142578 C 78.21930694580078 90.36603546142578 76.47921752929688 90.36603546142578 74.73991394042969 90.36603546142578 C 74.73991394042969 93.35904693603516 74.73991394042969 96.35205841064453 74.73991394042969 99.34429168701172 C 74.61617279052734 99.79954528808594 74.60449981689453 100.29993438720703 74.3702621459961 100.70849609375 C 73.3616943359375 102.46492004394531 70.70954895019531 102.46492004394531 69.70097351074219 100.70849609375 C 69.46673583984375 100.29993438720703 69.45428466796875 99.79954528808594 69.33132934570312 99.34429168701172 C 69.33132934570312 96.35205841064453 69.33132934570312 93.35904693603516 69.33132934570312 90.36603546142578 C 69.75934600830078 87.13644409179688 71.51033020019531 85.38702392578125 74.73991394042969 84.96134185791016 C 74.73991394042969 84.96134185791016 74.73991394042969 84.96134185791016 74.73991394042969 84.96134185791016" stroke-width="0.0" fill="rgb(157, 157, 157)" opacity="1.0"/>
    <path d="M 134.4802703857422 98.66101837158203 C 144.1519012451172 98.66101837158203 153.82276916503906 98.66101837158203 163.49441528320312 98.66101837158203 C 164.76602172851562 98.82522583007812 165.79714965820312 99.04078674316406 166.76290893554688 99.96452331542969 C 168.858642578125 101.96998596191406 168.65396118164062 105.48595428466797 166.29054260253906 107.20502471923828 C 165.19558715820312 108.00114440917969 164.79403686523438 107.90697479248047 163.49441528320312 108.1163101196289 C 153.82276916503906 108.1163101196289 144.1519012451172 108.1163101196289 134.4802703857422 108.1163101196289 C 134.4802703857422 104.96455383300781 134.4802703857422 101.81278228759766 134.4802703857422 98.66101837158203" stroke-width="0.0" fill="rgb(182, 182, 182)" opacity="1.0"/>
    <path d="M 148.4266357421875 63.50443649291992 C 148.4266357421875 63.50443649291992 148.4266357421875 63.50443649291992 148.4266357421875 63.50443649291992 C 151.47023010253906 63.777587890625 154.1317138671875 64.95269012451172 155.74107360839844 67.69667053222656 C 158.9908905029297 73.23988342285156 154.8367919921875 80.42825317382812 148.4266357421875 80.42825317382812 C 142.01727294921875 80.42825317382812 137.86082458496094 73.2391128540039 141.11297607421875 67.69667053222656 C 142.7223358154297 64.9534683227539 145.38381958007812 63.777587890625 148.4266357421875 63.50443649291992 C 148.4266357421875 63.50443649291992 148.4266357421875 63.50443649291992 148.4266357421875 63.50443649291992" stroke-width="0.0" fill="rgb(181, 181, 181)" opacity="1.0"/>
    <path d="M 166.7994842529297 65.63673400878906 C 166.7994842529297 65.63673400878906 166.7994842529297 65.63673400878906 166.7994842529297 65.63673400878906 C 169.30299377441406 65.88966369628906 171.4656524658203 66.7254638671875 172.93414306640625 68.89901733398438 C 176.19174194335938 73.72004699707031 172.60885620117188 80.42825317382812 166.7994842529297 80.42825317382812 C 160.9885711669922 80.42825317382812 157.41111755371094 73.72471618652344 160.66326904296875 68.89901733398438 C 162.1302032470703 66.72157287597656 164.29519653320312 65.88887786865234 166.7994842529297 65.63673400878906 C 166.7994842529297 65.63673400878906 166.7994842529297 65.63673400878906 166.7994842529297 65.63673400878906" stroke-width="0.0" fill="rgb(181, 181, 181)" opacity="1.0"/>
    <path d="M 164.70919799804688 121.98097229003906 C 167.74578857421875 121.98097229003906 170.7816162109375 121.98097229003906 173.8181915283203 121.98097229003906 C 177.71859741210938 128.46661376953125 181.61900329589844 134.95223999023438 185.51864624023438 141.43788146972656 C 185.51864624023438 156.45584106445312 185.51864624023438 171.47381591796875 185.51864624023438 186.49099731445312 C 185.1458740234375 191.17117309570312 182.09371948242188 194.23110961914062 177.4127655029297 194.60076904296875 C 174.37228393554688 194.60076904296875 171.33180236816406 194.60076904296875 168.29132080078125 194.60076904296875 C 172.9816131591797 194.23110961914062 176.0290985107422 191.18130493164062 176.39797973632812 186.49099731445312 C 176.39797973632812 171.47381591796875 176.39797973632812 156.45584106445312 176.39797973632812 141.43788146972656 C 172.50144958496094 134.95223999023438 168.605712890625 128.46661376953125 164.70919799804688 121.98097229003906" stroke-width="0.0" fill="rgb(25, 25, 25)" opacity="1.0"/>
    <path d="M 129.16973876953125 133.9001007080078 C 129.16973876953125 133.9001007080078 129.16973876953125 133.9001007080078 129.16973876953125 133.9001007080078 C 130.55184936523438 134.09854125976562 131.66468811035156 134.35223388671875 132.68881225585938 135.3896026611328 C 136.4787139892578 139.23007202148438 132.32383728027344 144.82154846191406 127.56195068359375 143.61375427246094 C 127.56195068359375 143.61375427246094 127.56195068359375 143.61375427246094 127.56195068359375 143.61375427246094 C 128.74093627929688 143.00674438476562 129.17596435546875 142.95616149902344 129.98764038085938 141.84877014160156 C 132.1580810546875 138.8861083984375 130.47634887695312 135.5732421875 127.56195068359375 134.1553497314453 C 127.56195068359375 134.1553497314453 127.56195068359375 134.1553497314453 127.56195068359375 134.1553497314453 C 128.08880615234375 134.0284881591797 128.62887573242188 133.94444274902344 129.16973876953125 133.9001007080078 C 129.16973876953125 133.9001007080078 129.16973876953125 133.9001007080078 129.16973876953125 133.9001007080078" stroke-width="0.0" fill="rgb(218, 218, 218)" opacity="1.0"/>
    <path d="M 121.80394744873047 142.4409942626953 C 121.80394744873047 142.4409942626953 121.80394744873047 142.4409942626953 121.80394744873047 142.4409942626953 C 121.57359313964844 142.85189819335938 121.23273468017578 143.2184295654297 121.11211395263672 143.67445373535156 C 120.24285125732422 146.9678497314453 125.25531768798828 148.6542510986328 127.56195068359375 149.16787719726562 C 127.56195068359375 149.16787719726562 127.56195068359375 149.16787719726562 127.56195068359375 149.16787719726562 C 124.72224426269531 149.47915649414062 121.94324493408203 148.8978271484375 119.64440155029297 147.128173828125 C 118.93000030517578 146.57797241210938 118.20548248291016 145.9740753173828 117.95023345947266 145.04722595214844 C 117.16268157958984 142.1818389892578 120.12922668457031 141.32424926757812 122.14480590820312 142.15538024902344 C 122.14480590820312 142.15538024902344 122.14480590820312 142.15538024902344 122.14480590820312 142.15538024902344 C 122.03118133544922 142.2503204345703 121.91756439208984 142.34603881835938 121.80394744873047 142.4409942626953 C 121.80394744873047 142.4409942626953 121.80394744873047 142.4409942626953 121.80394744873047 142.4409942626953" stroke-width="0.0" fill="rgb(218, 218, 218)" opacity="1.0"/>
    <path d="M 126.03431701660156 128.49462890625 C 126.03431701660156 128.49462890625 126.03431701660156 128.49462890625 126.03431701660156 128.49462890625 C 126.54325866699219 128.53509521484375 127.0522232055664 128.5755615234375 127.56195068359375 128.61680603027344 C 127.56195068359375 128.61680603027344 127.56195068359375 128.61680603027344 127.56195068359375 128.61680603027344 C 125.59228515625 129.0487060546875 123.28255462646484 129.77789306640625 121.92534637451172 131.39968872070312 C 120.79148864746094 132.75534057617188 120.84207153320312 134.3872528076172 122.21173095703125 135.5467987060547 C 122.21173095703125 135.5467987060547 122.21173095703125 135.5467987060547 122.21173095703125 135.5467987060547 C 121.21561431884766 135.95223999023438 120.87865447998047 136.30010986328125 119.76891326904297 135.9203338623047 C 117.73155212402344 135.22149658203125 117.48719787597656 132.89697265625 118.75023651123047 131.39968872070312 C 120.49032592773438 129.33741760253906 123.49889373779297 128.64871215820312 126.03431701660156 128.49462890625 C 126.03431701660156 128.49462890625 126.03431701660156 128.49462890625 126.03431701660156 128.49462890625" stroke-width="0.0" fill="rgb(218, 218, 218)" opacity="1.0"/>
    <path d="M 162.1566619873047 129.20823669433594 C 162.1566619873047 129.20823669433594 162.1566619873047 129.20823669433594 162.1566619873047 129.20823669433594 C 162.7076416015625 129.2300262451172 163.25704956054688 129.27516174316406 163.80335998535156 129.34521484375 C 163.80335998535156 129.34521484375 163.80335998535156 129.34521484375 163.80335998535156 129.34521484375 C 159.92318725585938 130.27362060546875 157.41812133789062 132.5257568359375 156.0616912841797 136.27597045898438 C 155.00799560546875 136.27597045898438 153.95350646972656 136.27597045898438 152.89903259277344 136.27597045898438 C 154.44534301757812 131.98179626464844 157.61033630371094 129.5747833251953 162.1566619873047 129.20823669433594 C 162.1566619873047 129.20823669433594 162.1566619873047 129.20823669433594 162.1566619873047 129.20823669433594" stroke-width="0.0" fill="rgb(217, 217, 217)" opacity="1.0"/>
    <path d="M 152.95350646972656 141.6814422607422 C 154.00799560546875 141.6814422607422 155.06246948242188 141.6814422607422 156.1161651611328 141.6814422607422 C 157.556640625 145.3670654296875 159.96131896972656 147.48692321777344 163.80335998535156 148.4386749267578 C 163.80335998535156 148.4386749267578 163.80335998535156 148.4386749267578 163.80335998535156 148.4386749267578 C 158.68116760253906 148.90249633789062 154.81655883789062 146.4526824951172 152.95350646972656 141.6814422607422 C 152.95350646972656 141.6814422607422 152.95350646972656 141.6814422607422 152.95350646972656 141.6814422607422" stroke-width="0.0" fill="rgb(218, 218, 218)" opacity="1.0"/>
    <path d="M 168.7224578857422 141.6565399169922 C 168.7224578857422 141.6565399169922 168.7224578857422 141.6565399169922 168.7224578857422 141.6565399169922 C 167.1714630126953 142.94760131835938 165.7730255126953 143.44410705566406 163.80335998535156 142.85733032226562 C 163.80335998535156 142.85733032226562 163.80335998535156 142.85733032226562 163.80335998535156 142.85733032226562 C 165.7177734375 141.88922119140625 166.44540405273438 140.70945739746094 168.7224578857422 141.6565399169922 C 168.7224578857422 141.6565399169922 168.7224578857422 141.6565399169922 168.7224578857422 141.6565399169922" stroke-width="0.0" fill="rgb(218, 218, 218)" opacity="1.0"/>
    <path d="M 165.3590087890625 134.61448669433594 C 165.3590087890625 134.61448669433594 165.3590087890625 134.61448669433594 165.3590087890625 134.61448669433594 C 166.7481231689453 134.78802490234375 167.60182189941406 135.1436767578125 168.66796875 136.06040954589844 C 168.66796875 136.06040954589844 168.66796875 136.06040954589844 168.66796875 136.06040954589844 C 166.4516143798828 136.97402954101562 165.67108154296875 135.89076232910156 163.80335998535156 134.91177368164062 C 163.80335998535156 134.91177368164062 163.80335998535156 134.91177368164062 163.80335998535156 134.91177368164062 C 164.31076049804688 134.76467895507812 164.83370971679688 134.6658477783203 165.3590087890625 134.61448669433594 C 165.3590087890625 134.61448669433594 165.3590087890625 134.61448669433594 165.3590087890625 134.61448669433594" stroke-width="0.0" fill="rgb(205, 205, 205)" opacity="1.0"/>
    <path d="M 132.3323974609375 162.45196533203125 C 132.3323974609375 162.45196533203125 132.3323974609375 162.45196533203125 132.3323974609375 162.45196533203125 C 132.0888214111328 162.6278533935547 131.7930908203125 162.74769592285156 131.60321044921875 162.98037719726562 C 128.87013244628906 166.33370971679688 133.81878662109375 168.60064697265625 136.41256713867188 169.18197631835938 C 136.41256713867188 169.18197631835938 136.41256713867188 169.18197631835938 136.41256713867188 169.18197631835938 C 133.92930603027344 169.3477325439453 130.95028686523438 168.8597869873047 129.25144958496094 166.79051208496094 C 127.1580581665039 164.24264526367188 129.6140899658203 161.75079345703125 132.3323974609375 162.45196533203125 C 132.3323974609375 162.45196533203125 132.3323974609375 162.45196533203125 132.3323974609375 162.45196533203125" stroke-width="0.0" fill="rgb(217, 217, 217)" opacity="1.0"/>
    <path d="M 135.2919464111328 152.2760467529297 C 135.2919464111328 152.2760467529297 135.2919464111328 152.2760467529297 135.2919464111328 152.2760467529297 C 135.6654815673828 152.30328369140625 136.03903198242188 152.33053588867188 136.41256713867188 152.35777282714844 C 136.41256713867188 152.35777282714844 136.41256713867188 152.35777282714844 136.41256713867188 152.35777282714844 C 133.86392211914062 152.9141845703125 128.936279296875 155.12120056152344 131.61488342285156 158.45350646972656 C 131.81488037109375 158.70254516601562 132.13006591796875 158.83250427246094 132.3876495361328 159.0216064453125 C 132.3876495361328 159.0216064453125 132.3876495361328 159.0216064453125 132.3876495361328 159.0216064453125 C 129.6382293701172 159.70176696777344 127.1829605102539 157.189697265625 129.34483337402344 154.64337158203125 C 130.79620361328125 152.93441772460938 133.19154357910156 152.42002868652344 135.2919464111328 152.2760467529297 C 135.2919464111328 152.2760467529297 135.2919464111328 152.2760467529297 135.2919464111328 152.2760467529297" stroke-width="0.0" fill="rgb(216, 216, 216)" opacity="1.0"/>
    <path d="M 137.61569213867188 157.68153381347656 C 137.61569213867188 157.68153381347656 137.61569213867188 157.68153381347656 137.61569213867188 157.68153381347656 C 138.64837646484375 157.89398193359375 139.01414489746094 157.80758666992188 139.7923583984375 158.59747314453125 C 141.29664611816406 160.1243438720703 140.77679443359375 162.80917358398438 138.77757263183594 163.62396240234375 C 137.73477172851562 164.048095703125 137.44371032714844 163.83096313476562 136.41256713867188 163.61541748046875 C 136.41256713867188 163.61541748046875 136.41256713867188 163.61541748046875 136.41256713867188 163.61541748046875 C 138.84449768066406 162.0122833251953 138.8452606201172 159.51809692382812 136.41256713867188 157.91265869140625 C 136.41256713867188 157.91265869140625 136.41256713867188 157.91265869140625 136.41256713867188 157.91265869140625 C 136.8133544921875 157.8356170654297 137.21490478515625 157.75857543945312 137.61569213867188 157.68153381347656 C 137.61569213867188 157.68153381347656 137.61569213867188 157.68153381347656 137.61569213867188 157.68153381347656" stroke-width="0.0" fill="rgb(217, 217, 217)" opacity="1.0"/>
    <path d="M 162.4788360595703 152.80445861816406 C 162.4788360595703 152.80445861816406 162.4788360595703 152.80445861816406 162.4788360595703 152.80445861816406 C 162.8936309814453 152.83636474609375 163.30764770507812 152.86749267578125 163.72164916992188 152.89939880371094 C 163.72164916992188 152.89939880371094 163.72164916992188 152.89939880371094 163.72164916992188 152.89939880371094 C 160.6111297607422 153.65504455566406 158.71694946289062 155.2161407470703 157.38621520996094 158.1282196044922 C 156.59788513183594 158.1282196044922 155.80877685546875 158.1282196044922 155.01966857910156 158.1282196044922 C 156.52239990234375 154.84104919433594 158.88272094726562 153.15933227539062 162.4788360595703 152.80445861816406 C 162.4788360595703 152.80445861816406 162.4788360595703 152.80445861816406 162.4788360595703 152.80445861816406" stroke-width="0.0" fill="rgb(217, 217, 217)" opacity="1.0"/>
    <path d="M 155.07492065429688 163.5329132080078 C 155.8624725341797 163.5329132080078 156.6508026123047 163.5329132080078 157.4383544921875 163.5329132080078 C 158.79478454589844 166.37106323242188 160.6656036376953 167.8963623046875 163.72164916992188 168.64111328125 C 163.72164916992188 168.64111328125 163.72164916992188 168.64111328125 163.72164916992188 168.64111328125 C 159.7169647216797 168.92982482910156 156.78387451171875 167.1321563720703 155.07492065429688 163.5329132080078 C 155.07492065429688 163.5329132080078 155.07492065429688 163.5329132080078 155.07492065429688 163.5329132080078" stroke-width="0.0" fill="rgb(215, 215, 215)" opacity="1.0"/>
    <path d="M 167.4251708984375 162.05975341796875 C 167.4251708984375 162.05975341796875 167.4251708984375 162.05975341796875 167.4251708984375 162.05975341796875 C 166.03916931152344 163.0364227294922 165.44927978515625 163.44497680664062 163.72164916992188 163.03562927246094 C 163.72164916992188 163.03562927246094 163.72164916992188 163.03562927246094 163.72164916992188 163.03562927246094 C 165.0352783203125 162.04107666015625 165.77847290039062 161.64886474609375 167.4251708984375 162.05975341796875 C 167.4251708984375 162.05975341796875 167.4251708984375 162.05975341796875 167.4251708984375 162.05975341796875" stroke-width="0.0" fill="rgb(148, 148, 148)" opacity="1.0"/>
    <path d="M 164.8858642578125 158.21070861816406 C 164.8858642578125 158.21070861816406 164.8858642578125 158.21070861816406 164.8858642578125 158.21070861816406 C 165.94967651367188 158.41693115234375 166.49676513671875 158.79904174804688 167.37069702148438 159.41305541992188 C 167.37069702148438 159.41305541992188 167.37069702148438 159.41305541992188 167.37069702148438 159.41305541992188 C 165.7605743408203 159.82162475585938 165.0352783203125 159.4364013671875 163.72164916992188 158.5072021484375 C 163.72164916992188 158.5072021484375 163.72164916992188 158.5072021484375 163.72164916992188 158.5072021484375 C 164.1099853515625 158.4083709716797 164.49752807617188 158.30953979492188 164.8858642578125 158.21070861816406 C 164.8858642578125 158.21070861816406 164.8858642578125 158.21070861816406 164.8858642578125 158.21070861816406" stroke-width="0.0" fill="rgb(214, 214, 214)" opacity="1.0"/>
    <path d="M 70.69865417480469 137.0596466064453 C 70.69865417480469 137.0596466064453 70.69865417480469 137.0596466064453 70.69865417480469 137.0596466064453 C 71.02783203125 137.390380859375 71.28075408935547 137.82228088378906 71.68698120117188 138.05184936523438 C 73.76870727539062 139.228515625 76.14381408691406 137.93357849121094 78.18584442138672 139.61373901367188 C 81.68624877929688 142.4946746826172 84.3189468383789 145.90481567382812 88.51274108886719 148.00132751464844 C 94.61627197265625 151.05270385742188 102.26222229003906 149.86514282226562 107.7906494140625 146.08692932128906 C 107.7906494140625 146.08692932128906 107.7906494140625 146.08692932128906 107.7906494140625 146.08692932128906 C 108.0482406616211 145.80831909179688 108.30582427978516 145.52972412109375 108.56341552734375 145.25111389160156 C 108.56341552734375 145.25111389160156 108.56341552734375 145.25111389160156 108.56341552734375 145.25111389160156 C 109.03734588623047 146.9219512939453 108.90894317626953 147.4635772705078 107.7906494140625 148.7912139892578 C 107.7906494140625 148.7912139892578 107.7906494140625 148.7912139892578 107.7906494140625 148.7912139892578 C 102.26066589355469 152.56243896484375 94.61627197265625 153.74765014648438 88.51274108886719 150.70327758789062 C 84.32205200195312 148.61300659179688 81.68157958984375 145.19430541992188 78.18584442138672 142.3125762939453 C 76.02474975585938 140.53125 70.37335205078125 142.2915802001953 70.33366394042969 138.45420837402344 C 70.32899475097656 137.9740447998047 70.5772476196289 137.5250244140625 70.69865417480469 137.0596466064453 C 70.69865417480469 137.0596466064453 70.69865417480469 137.0596466064453 70.69865417480469 137.0596466064453" stroke-width="0.0" fill="rgb(119, 119, 119)" opacity="1.0"/>
    <path d="M 65.12664031982422 170.22711181640625 C 80.92826843261719 170.22711181640625 96.72911834716797 170.22711181640625 112.53074645996094 170.22711181640625 C 112.53074645996094 172.0123291015625 112.53074645996094 173.79833984375 112.53074645996094 175.58355712890625 C 96.72911834716797 175.58355712890625 80.92826843261719 175.58355712890625 65.12664031982422 175.58355712890625 C 65.12664031982422 173.79833984375 65.12664031982422 172.0123291015625 65.12664031982422 170.22711181640625" stroke-width="0.0" fill="rgb(185, 156, 84)" opacity="1.0"/>
    <path d="M 101.57427978515625 57.93164825439453 C 101.75015258789062 57.93164825439453 101.92525482177734 57.93164825439453 102.10034942626953 57.93164825439453 C 105.34005737304688 58.35810089111328 107.08247375488281 60.097412109375 107.50894165039062 63.337120056152344 C 107.50894165039062 70.4990234375 107.50894165039062 77.66169738769531 107.50894165039062 84.82437133789062 C 103.72760009765625 84.82437133789062 99.94703674316406 84.82437133789062 96.16647338867188 84.82437133789062 C 96.16647338867188 77.66169738769531 96.16647338867188 70.4990234375 96.16647338867188 63.337120056152344 C 96.59293365478516 60.106754302978516 98.34469604492188 58.357330322265625 101.57427978515625 57.93164825439453 C 101.57427978515625 57.93164825439453 101.57427978515625 57.93164825439453 101.57427978515625 57.93164825439453" stroke-width="0.0" fill="rgb(243, 49, 49)" opacity="1.0"/>
    <path d="M 126.93003845214844 59.38068389892578 C 126.93003845214844 59.38068389892578 126.93003845214844 59.38068389892578 126.93003845214844 59.38068389892578 C 130.53550720214844 59.64527130126953 133.73085021972656 61.04838943481445 135.76431274414062 64.17603302001953 C 140.234375 71.05389404296875 135.11607360839844 80.42825317382812 126.93003845214844 80.42825317382812 C 118.74401092529297 80.42825317382812 113.63036346435547 71.05233001708984 118.09809112548828 64.17603302001953 C 120.13078308105469 61.04838943481445 123.32457733154297 59.64527130126953 126.93003845214844 59.38068389892578 C 126.93003845214844 59.38068389892578 126.93003845214844 59.38068389892578 126.93003845214844 59.38068389892578" stroke-width="0.0" fill="rgb(181, 181, 181)" opacity="1.0"/>
    <path d="M 52.22541046142578 60.76590347290039 C 55.18029022216797 60.76590347290039 58.135948181152344 60.76590347290039 61.0908203125 60.76590347290039 C 62.6526985168457 61.187686920166016 63.87760543823242 61.807151794433594 63.780330657958984 63.70988464355469 C 60.91105270385742 63.70988464355469 58.04178237915039 63.70988464355469 55.172508239746094 63.70988464355469 C 51.928916931152344 64.14645385742188 50.20360565185547 65.87254333496094 49.76780700683594 69.11613464355469 C 49.76780700683594 80.0897216796875 49.76780700683594 91.06332397460938 49.76780700683594 102.03691101074219 C 47.86119079589844 102.12796020507812 47.2432861328125 100.91316986083984 46.820716857910156 99.34429168701172 C 46.820716857910156 88.28742980957031 46.820716857910156 77.22978973388672 46.820716857910156 66.17214965820312 C 47.2557373046875 62.92778015136719 48.981040954589844 61.20170211791992 52.22541046142578 60.76590347290039 C 52.22541046142578 60.76590347290039 52.22541046142578 60.76590347290039 52.22541046142578 60.76590347290039" stroke-width="0.0" fill="rgb(180, 180, 180)" opacity="1.0"/>
    <path d="M 63.483055114746094 72.05077362060547 C 66.43792724609375 72.05077362060547 69.39358520507812 72.05077362060547 72.34846496582031 72.05077362060547 C 73.92512512207031 72.47801208496094 75.12979888916016 73.1005859375 75.03718566894531 75.01033020019531 C 72.17259216308594 75.01033020019531 69.30720520019531 75.01033020019531 66.44181823730469 75.01033020019531 C 63.20211410522461 75.43367004394531 61.462806701660156 77.17687225341797 61.036346435546875 80.4157943725586 C 61.036346435546875 87.62283325195312 61.036346435546875 94.82987213134766 61.036346435546875 102.03691101074219 C 59.12894821166992 102.12251281738281 58.50559616088867 100.9217300415039 58.07679748535156 99.34429168701172 C 58.07679748535156 92.04853820800781 58.07679748535156 84.75200653076172 58.07679748535156 77.45625305175781 C 58.50326156616211 74.22510528564453 60.2550163269043 72.48345947265625 63.483055114746094 72.05077362060547 C 63.483055114746094 72.05077362060547 63.483055114746094 72.05077362060547 63.483055114746094 72.05077362060547" stroke-width="0.0" fill="rgb(181, 181, 181)" opacity="1.0"/>
    <path d="M 74.75236511230469 84.95511627197266 C 76.49089050292969 84.95511627197266 78.2302017211914 84.95511627197266 79.96873474121094 84.95511627197266 C 81.54695129394531 85.38157653808594 82.75006866455078 86.004150390625 82.65745544433594 87.91465759277344 C 81.00531005859375 87.91465759277344 79.35238647460938 87.91465759277344 77.699462890625 87.91465759277344 C 74.46053314208984 88.34034729003906 72.72044372558594 90.08121490478516 72.29399108886719 93.3193588256836 C 72.29399108886719 96.22520446777344 72.29399108886719 99.13105773925781 72.29399108886719 102.03691101074219 C 70.38813781738281 102.12796020507812 69.7702407836914 100.91316986083984 69.34689331054688 99.34429168701172 C 69.34689331054688 96.34972381591797 69.34689331054688 93.35516357421875 69.34689331054688 90.35980987548828 C 69.77334594726562 87.12322235107422 71.51577758789062 85.38157653808594 74.75236511230469 84.95511627197266 C 74.75236511230469 84.95511627197266 74.75236511230469 84.95511627197266 74.75236511230469 84.95511627197266" stroke-width="0.0" fill="rgb(181, 181, 181)" opacity="1.0"/>
    <path d="M 134.51995849609375 103.40111541748047 C 145.7682647705078 103.40111541748047 157.0165557861328 103.40111541748047 168.2640838623047 103.40111541748047 C 167.79638671875 106.28984069824219 166.42127990722656 107.65171813964844 163.5341033935547 108.1163101196289 C 153.86245727539062 108.1163101196289 144.1916046142578 108.1163101196289 134.51995849609375 108.1163101196289 C 134.51995849609375 106.54432678222656 134.51995849609375 104.97311401367188 134.51995849609375 103.40111541748047" stroke-width="0.0" fill="rgb(136, 136, 136)" opacity="1.0"/>
    <path d="M 148.4266357421875 68.90913391113281 C 148.4266357421875 68.90913391113281 148.4266357421875 68.90913391113281 148.4266357421875 68.90913391113281 C 147.17604064941406 69.16127014160156 146.14724731445312 69.46943664550781 145.60482788085938 70.77528381347656 C 144.7783660888672 72.76517486572266 146.2647705078125 75.02200317382812 148.4266357421875 75.02200317382812 C 150.58929443359375 75.02200317382812 152.07879638671875 72.76673889160156 151.25155639648438 70.77528381347656 C 150.70835876464844 69.46866607666016 149.6787872314453 69.16127014160156 148.4266357421875 68.90913391113281 C 148.4266357421875 68.90913391113281 148.4266357421875 68.90913391113281 148.4266357421875 68.90913391113281" stroke-width="0.0" fill="rgb(52, 52, 52)" opacity="1.0"/>
    <path d="M 140.022705078125 70.98151397705078 C 140.022705078125 70.98151397705078 140.022705078125 70.98151397705078 140.022705078125 70.98151397705078 C 140.3581085205078 72.55738830566406 140.74488830566406 73.9013671875 141.75733947753906 75.19943237304688 C 144.727783203125 79.00801086425781 150.4873504638672 79.52008056640625 154.08657836914062 76.2998275756836 C 155.72006225585938 74.839111328125 156.4064483642578 73.06556701660156 156.84613037109375 70.98151397705078 C 156.84613037109375 70.98151397705078 156.84613037109375 70.98151397705078 156.84613037109375 70.98151397705078 C 156.9169464111328 72.34416198730469 156.8492431640625 73.62432861328125 156.36831665039062 74.92394256591797 C 154.36985778808594 80.32940673828125 147.38461303710938 82.1558837890625 142.9830322265625 78.44691467285156 C 140.72698974609375 76.54573822021484 139.86395263671875 73.8515625 140.022705078125 70.98151397705078 C 140.022705078125 70.98151397705078 140.022705078125 70.98151397705078 140.022705078125 70.98151397705078" stroke-width="0.0" fill="rgb(136, 136, 136)" opacity="1.0"/>
    <path d="M 166.7994842529297 71.04220581054688 C 166.7994842529297 71.04220581054688 166.7994842529297 71.04220581054688 166.7994842529297 71.04220581054688 C 165.96835327148438 71.26634216308594 165.552001953125 71.2001953125 165.07418823242188 72.02742767333984 C 164.3162078857422 73.34027862548828 165.28041076660156 75.02200317382812 166.7994842529297 75.02200317382812 C 168.3201141357422 75.02200317382812 169.28744506835938 73.34183502197266 168.5279083251953 72.02742767333984 C 168.04930114746094 71.19941711425781 167.63217163085938 71.26634216308594 166.7994842529297 71.04220581054688 C 166.7994842529297 71.04220581054688 166.7994842529297 71.04220581054688 166.7994842529297 71.04220581054688" stroke-width="0.0" fill="rgb(51, 51, 51)" opacity="1.0"/>
    <path d="M 159.46792602539062 72.13015747070312 C 159.46792602539062 72.13015747070312 159.46792602539062 72.13015747070312 159.46792602539062 72.13015747070312 C 159.8352508544922 73.69670104980469 160.24847412109375 74.99787139892578 161.36599731445312 76.21499633789062 C 164.2601776123047 79.36832427978516 169.37460327148438 79.37220764160156 172.2672119140625 76.21499633789062 C 173.38394165039062 74.9970932006836 173.7932891845703 73.69747924804688 174.15594482421875 72.13015747070312 C 174.15594482421875 72.13015747070312 174.15594482421875 72.13015747070312 174.15594482421875 72.13015747070312 C 174.32559204101562 74.43055725097656 173.71780395507812 76.60021209716797 172.05007934570312 78.26792907714844 C 168.39871215820312 81.91853332519531 162.00491333007812 80.67649841308594 159.996337890625 75.91383361816406 C 159.4749298095703 74.67646789550781 159.3885498046875 73.44767761230469 159.46792602539062 72.13015747070312 C 159.46792602539062 72.13015747070312 159.46792602539062 72.13015747070312 159.46792602539062 72.13015747070312" stroke-width="0.0" fill="rgb(136, 136, 136)" opacity="1.0"/>
    <path d="M 167.99404907226562 49.348724365234375 C 171.13336181640625 49.348724365234375 174.27267456054688 49.348724365234375 177.4127655029297 49.348724365234375 C 182.0913848876953 49.71759796142578 185.1450958251953 52.77598571777344 185.51864624023438 57.453819274902344 C 185.51864624023438 72.47178649902344 185.51864624023438 87.48976135253906 185.51864624023438 102.50695037841797 C 181.61900329589844 108.99880981445312 177.71859741210938 115.4898910522461 173.8181915283203 121.98097229003906 C 170.68276977539062 121.98097229003906 167.54656982421875 121.98097229003906 164.41114807128906 121.98097229003906 C 168.3076629638672 115.4898910522461 172.20419311523438 108.99880981445312 176.09991455078125 102.50695037841797 C 176.09991455078125 87.48976135253906 176.09991455078125 72.47178649902344 176.09991455078125 57.453819274902344 C 175.73025512695312 52.772865295410156 172.67422485351562 49.71759796142578 167.99404907226562 49.348724365234375 C 167.99404907226562 49.348724365234375 167.99404907226562 49.348724365234375 167.99404907226562 49.348724365234375" stroke-width="0.0" fill="rgb(25, 25, 25)" opacity="1.0"/>
    <path d="M 38.29460906982422 185.61317443847656 C 87.36953735351562 185.61317443847656 136.44448852539062 185.61317443847656 185.51864624023438 185.61317443847656 C 185.51864624023438 185.90577697753906 185.51864624023438 186.19839477539062 185.51864624023438 186.49099731445312 C 185.2392578125 190.00152587890625 183.4205780029297 193.06846618652344 179.91783142089844 194.20465087890625 C 177.57151794433594 194.9657440185547 174.77072143554688 194.60076904296875 172.33493041992188 194.60076904296875 C 167.51622009277344 194.60076904296875 162.69752502441406 194.60076904296875 157.87881469726562 194.60076904296875 C 128.23899841308594 194.60076904296875 98.59994506835938 194.60076904296875 68.96011352539062 194.60076904296875 C 63.511844635009766 194.60076904296875 58.06279373168945 194.60076904296875 52.613739013671875 194.60076904296875 C 49.84796905517578 194.60076904296875 46.5545654296875 195.06613159179688 43.891517639160156 194.20465087890625 C 40.380218505859375 193.06846618652344 38.5716552734375 190.00851440429688 38.29460906982422 186.49099731445312 C 38.29460906982422 186.19839477539062 38.29460906982422 185.90577697753906 38.29460906982422 185.61317443847656" stroke-width="0.0" fill="rgb(25, 25, 25)" opacity="1.0"/>
    <path d="M 86.41311645507812 134.20982360839844 C 86.41311645507812 134.20982360839844 86.41311645507812 134.20982360839844 86.41311645507812 134.20982360839844 C 93.22171020507812 130.24560546875 101.2139663696289 130.4144744873047 107.7906494140625 134.9001007080078 C 107.7906494140625 134.9001007080078 107.7906494140625 134.9001007080078 107.7906494140625 134.9001007080078 C 108.09026336669922 135.26663208007812 108.49259948730469 135.56936645507812 108.68949127197266 136.00050354003906 C 109.52918243408203 137.83551025390625 107.97664642333984 139.99661254882812 105.9688491821289 139.78961181640625 C 105.49958801269531 139.74136352539062 105.08557891845703 139.45654296875 104.6435546875 139.2899932861328 C 104.6435546875 139.2899932861328 104.6435546875 139.2899932861328 104.6435546875 139.2899932861328 C 100.88088989257812 136.72189331054688 95.73377990722656 135.6962127685547 91.46295166015625 137.5779266357422 C 89.586669921875 138.40518188476562 87.91195678710938 139.70401000976562 86.34541320800781 141.00518798828125 C 83.68626403808594 143.21376037597656 81.59675598144531 146.54061889648438 78.1041259765625 147.50250244140625 C 76.33525085449219 147.9904327392578 73.30410766601562 148.59588623046875 71.63250732421875 147.6005401611328 C 70.35779571533203 146.841796875 69.97335815429688 145.14138793945312 70.72666931152344 143.8837890625 C 71.85585021972656 141.99896240234375 74.30021667480469 142.76239013671875 76.07066345214844 142.41842651367188 C 77.74382019042969 142.09234619140625 78.75160217285156 140.81918334960938 79.88235473632812 139.66354370117188 C 81.88858032226562 137.61373901367188 84.068359375 135.85963439941406 86.41311645507812 134.20982360839844 C 86.41311645507812 134.20982360839844 86.41311645507812 134.20982360839844 86.41311645507812 134.20982360839844" stroke-width="0.0" fill="rgb(181, 181, 181)" opacity="1.0"/>
    <path d="M 58.551509857177734 155.83404541015625 C 60.742183685302734 155.83404541015625 62.932857513427734 155.83404541015625 65.12351989746094 155.83404541015625 C 65.12351989746094 165.37026977539062 65.12351989746094 174.90728759765625 65.12351989746094 184.44351196289062 C 59.91727828979492 184.44351196289062 54.71180725097656 184.44351196289062 49.50633239746094 184.44351196289062 C 49.50633239746094 179.9493408203125 49.50633239746094 175.45513916015625 49.50633239746094 170.96096801757812 C 49.50633239746094 166.1204833984375 48.79193115234375 160.81851196289062 53.21063232421875 157.58035278320312 C 53.9647216796875 157.02783203125 54.80596160888672 156.58969116210938 55.69390869140625 156.2955322265625 C 56.92737579345703 155.8861846923828 57.259674072265625 155.93832397460938 58.551509857177734 155.83404541015625 C 58.551509857177734 155.83404541015625 58.551509857177734 155.83404541015625 58.551509857177734 155.83404541015625" stroke-width="0.0" fill="rgb(158, 158, 158)" opacity="1.0"/>
    <path d="M 101.58984375 57.940208435058594 C 101.6707763671875 57.940208435058594 101.751708984375 57.940208435058594 101.8326416015625 57.940208435058594 C 101.8326416015625 66.90444946289062 101.8326416015625 75.86947631835938 101.8326416015625 84.83370971679688 C 99.95014953613281 84.83370971679688 98.0676498413086 84.83370971679688 96.18515014648438 84.83370971679688 C 96.18515014648438 78.89205932617188 96.18515014648438 72.95039367675781 96.18515014648438 67.00794982910156 C 96.18515014648438 63.91999816894531 95.76724243164062 60.465511322021484 98.88866424560547 58.662391662597656 C 99.98594665527344 58.02892303466797 100.3641586303711 58.102073669433594 101.58984375 57.940208435058594 C 101.58984375 57.940208435058594 101.58984375 57.940208435058594 101.58984375 57.940208435058594" stroke-width="0.0" fill="rgb(246, 100, 100)" opacity="1.0"/>
    <path d="M 126.93003845214844 64.78303527832031 C 126.93003845214844 64.78303527832031 126.93003845214844 64.78303527832031 126.93003845214844 64.78303527832031 C 125.0677719116211 65.03206634521484 123.49578094482422 65.59860229492188 122.48955535888672 67.32157135009766 C 120.52301025390625 70.69046020507812 123.04286193847656 75.02510833740234 126.93003845214844 75.02510833740234 C 130.8125457763672 75.02510833740234 133.29505920410156 70.67022705078125 131.3440704345703 67.32157135009766 C 130.34405517578125 65.60639190673828 128.78451538085938 65.03362274169922 126.93003845214844 64.78303527832031 C 126.93003845214844 64.78303527832031 126.93003845214844 64.78303527832031 126.93003845214844 64.78303527832031" stroke-width="0.0" fill="rgb(51, 51, 51)" opacity="1.0"/>
    <path d="M 116.5634536743164 67.95503234863281 C 116.5634536743164 67.95503234863281 116.5634536743164 67.95503234863281 116.5634536743164 67.95503234863281 C 117.06929016113281 69.88423156738281 117.75801086425781 71.57917785644531 119.12300109863281 73.07801818847656 C 122.87788391113281 77.2002182006836 129.40164184570312 77.64457702636719 133.68182373046875 74.06790161132812 C 135.63125610351562 72.43832397460938 136.645263671875 70.36283874511719 137.27871704101562 67.95503234863281 C 137.27871704101562 67.95503234863281 137.27871704101562 67.95503234863281 137.27871704101562 67.95503234863281 C 137.50363159179688 69.65388488769531 137.5090789794922 71.28813171386719 137.00868225097656 72.95350646972656 C 134.84913635253906 80.14419555664062 125.66544342041016 82.77767944335938 120.00782775878906 77.8570327758789 C 117.10275268554688 75.33016967773438 116.06306457519531 71.6795654296875 116.5634536743164 67.95503234863281 C 116.5634536743164 67.95503234863281 116.5634536743164 67.95503234863281 116.5634536743164 67.95503234863281" stroke-width="0.0" fill="rgb(136, 136, 136)" opacity="1.0"/>
    <path d="M 120.03895568847656 93.73570251464844 C 123.25453186035156 93.73570251464844 126.4701156616211 93.73570251464844 129.68569946289062 93.73570251464844 C 132.6343536376953 94.21197509765625 134.0343475341797 95.61197662353516 134.5106201171875 98.56062316894531 C 134.5106201171875 101.7785415649414 134.5106201171875 104.99568176269531 134.5106201171875 108.21359252929688 C 134.0343475341797 111.16224670410156 132.63511657714844 112.56147766113281 129.68569946289062 113.03852081298828 C 126.4701156616211 113.03852081298828 123.25453186035156 113.03852081298828 120.03895568847656 113.03852081298828 C 117.09030151367188 112.56147766113281 115.69029998779297 111.16224670410156 115.21402740478516 108.21359252929688 C 115.21402740478516 104.99568176269531 115.21402740478516 101.7785415649414 115.21402740478516 98.56062316894531 C 115.69029998779297 95.61197662353516 117.09030151367188 94.21197509765625 120.03895568847656 93.73570251464844 C 120.03895568847656 93.73570251464844 120.03895568847656 93.73570251464844 120.03895568847656 93.73570251464844" stroke-width="0.0" fill="rgb(181, 181, 181)" opacity="1.0"/>
    <path d="M 53.05809783935547 119.27356719970703 C 91.63726806640625 119.27356719970703 130.2164306640625 119.27356719970703 168.7956085205078 119.27356719970703 C 169.2508544921875 119.39652252197266 169.75125122070312 119.40819549560547 170.15982055664062 119.64321899414062 C 171.91622924804688 120.6510009765625 171.91778564453125 123.30315399169922 170.15982055664062 124.31016540527344 C 169.75125122070312 124.54362487792969 169.2508544921875 124.5552978515625 168.7956085205078 124.67826080322266 C 130.2164306640625 124.67826080322266 91.63726806640625 124.67826080322266 53.05809783935547 124.67826080322266 C 52.60284423828125 124.5552978515625 52.102447509765625 124.54362487792969 51.69389343261719 124.31016540527344 C 49.936683654785156 123.30315399169922 49.93824005126953 120.6510009765625 51.69389343261719 119.64321899414062 C 52.102447509765625 119.40819549560547 52.60284423828125 119.39652252197266 53.05809783935547 119.27356719970703 C 53.05809783935547 119.27356719970703 53.05809783935547 119.27356719970703 53.05809783935547 119.27356719970703" stroke-width="0.0" fill="rgb(25, 25, 25)" opacity="1.0"/>
    <path d="M 139.5876922607422 172.25045776367188 C 139.5876922607422 172.25045776367188 139.5876922607422 172.25045776367188 139.5876922607422 172.25045776367188 C 142.97836303710938 172.63023376464844 145.08966064453125 174.0917205810547 146.6001739501953 177.15399169921875 C 149.65933227539062 177.15399169921875 152.71771240234375 177.15399169921875 155.77685546875 177.15399169921875 C 157.85702514648438 173.18899536132812 163.74732971191406 170.60064697265625 167.29208374023438 174.66915893554688 C 168.9714813232422 176.5968017578125 167.60337829589844 179.94078063964844 164.80491638183594 179.2598419189453 C 164.20648193359375 179.11431884765625 163.05393981933594 178.0940704345703 162.35745239257812 178.09951782226562 C 161.423583984375 178.1065216064453 160.67572021484375 178.87228393554688 160.68272399902344 179.80380249023438 C 160.6905059814453 180.74154663085938 161.4422607421875 181.49720764160156 162.38467407226562 181.49331665039062 C 163.04693603515625 181.49020385742188 164.2360382080078 180.4466094970703 164.79248046875 180.30030822753906 C 166.22360229492188 179.92364501953125 167.70687866210938 180.8271484375 168.08509826660156 182.24427795410156 C 168.74111938476562 184.7050018310547 165.78079223632812 186.3423614501953 163.82359313964844 186.74703979492188 C 160.295166015625 187.47622680664062 157.44924926757812 185.54080200195312 155.83056640625 182.55946350097656 C 152.74105834960938 182.55946350097656 149.65077209472656 182.55946350097656 146.5604705810547 182.55946350097656 C 144.6460723876953 186.27621459960938 140.7371063232422 188.50344848632812 136.5892333984375 186.7454833984375 C 135.37832641601562 186.2318572998047 133.8896026611328 185.29721069335938 133.5113983154297 183.9283447265625 C 132.97442626953125 181.98202514648438 134.84524536132812 180.09719848632812 136.7954559326172 180.61782836914062 C 138.3145294189453 181.0240478515625 139.99468994140625 183.24038696289062 141.37835693359375 180.89175415039062 C 141.5674591064453 180.57113647460938 141.68185424804688 180.18902587890625 141.68496704101562 179.81625366210938 C 141.6873016357422 179.441162109375 141.57757568359375 179.05593872070312 141.39236450195312 178.73065185546875 C 140.0406036376953 176.36099243164062 138.3223114013672 178.56178283691406 136.79078674316406 178.93609619140625 C 136.34642028808594 179.0442657470703 135.85693359375 179.0325927734375 135.4180145263672 178.90264892578125 C 134.01177978515625 178.4847412109375 133.14952087402344 176.97967529296875 133.57052612304688 175.55865478515625 C 133.97520446777344 174.1959991455078 135.46548461914062 173.29872131347656 136.68728637695312 172.80532836914062 C 137.9254150390625 172.30494689941406 138.2655029296875 172.3718719482422 139.5876922607422 172.25045776367188 C 139.5876922607422 172.25045776367188 139.5876922607422 172.25045776367188 139.5876922607422 172.25045776367188" stroke-width="0.0" fill="rgb(181, 181, 181)" opacity="1.0"/>
    <path d="M 86.41311645507812 134.20982360839844 C 86.41311645507812 134.20982360839844 86.41311645507812 134.20982360839844 86.41311645507812 134.20982360839844 C 93.22171020507812 130.24560546875 101.2139663696289 130.4144744873047 107.7906494140625 134.9001007080078 C 107.7906494140625 134.9001007080078 107.7906494140625 134.9001007080078 107.7906494140625 134.9001007080078 C 108.8863754272461 136.17713928222656 109.02334594726562 136.71177673339844 108.61788940429688 138.3452606201172 C 108.61788940429688 138.3452606201172 108.61788940429688 138.3452606201172 108.61788940429688 138.3452606201172 C 108.3424072265625 138.03085327148438 108.0669174194336 137.71566772460938 107.7906494140625 137.40049743652344 C 107.7906494140625 137.40049743652344 107.7906494140625 137.40049743652344 107.7906494140625 137.40049743652344 C 102.26066589355469 133.6284942626953 94.61627197265625 132.44406127929688 88.51274108886719 135.48843383789062 C 84.32205200195312 137.5779266357422 81.68157958984375 140.9950714111328 78.18584442138672 143.8767852783203 C 76.13758850097656 145.5647430419922 73.71267700195312 144.24488830566406 71.63951110839844 145.4705810546875 C 71.22161102294922 145.71804809570312 70.97569274902344 146.1795196533203 70.64417266845703 146.5336151123047 C 70.64417266845703 146.5336151123047 70.64417266845703 146.5336151123047 70.64417266845703 146.5336151123047 C 70.3079833984375 145.12893676757812 70.19903564453125 143.76394653320312 71.71421813964844 142.9328155517578 C 73.34223937988281 142.0394287109375 75.3905029296875 142.9452667236328 77.07611083984375 142.11569213867188 C 78.50569152832031 141.4121856689453 79.5064697265625 140.0137481689453 80.62010192871094 138.9180145263672 C 82.40921020507812 137.15769958496094 84.3633041381836 135.65184020996094 86.41311645507812 134.20982360839844 C 86.41311645507812 134.20982360839844 86.41311645507812 134.20982360839844 86.41311645507812 134.20982360839844" stroke-width="0.0" fill="rgb(217, 217, 217)" opacity="1.0"/>
    <path d="M 58.56318283081055 155.8309326171875 C 60.75307846069336 155.8309326171875 62.94297409057617 155.8309326171875 65.13286590576172 155.8309326171875 C 65.13286590576172 157.89865112304688 65.13286590576172 159.96559143066406 65.13286590576172 162.0325164794922 C 65.00990295410156 162.0325164794922 64.88772583007812 162.0325164794922 64.7647705078125 162.0325164794922 C 59.534393310546875 162.455078125 56.135162353515625 165.85665893554688 55.71336364746094 171.0862579345703 C 55.71336364746094 175.536865234375 55.71336364746094 179.98667907714844 55.71336364746094 184.43728637695312 C 53.644874572753906 184.43728637695312 51.57716369628906 184.43728637695312 49.50944519042969 184.43728637695312 C 49.50944519042969 177.9150848388672 49.50944519042969 171.3928680419922 49.50944519042969 164.86988830566406 C 49.931236267089844 159.63873291015625 53.33514404296875 156.251953125 58.56318283081055 155.8309326171875 C 58.56318283081055 155.8309326171875 58.56318283081055 155.8309326171875 58.56318283081055 155.8309326171875" stroke-width="0.0" fill="rgb(181, 181, 181)" opacity="1.0"/>
    <path d="M 101.82408905029297 82.12319946289062 C 101.82408905029297 82.12319946289062 101.82408905029297 82.12319946289062 101.82408905029297 82.12319946289062 C 103.63187408447266 82.61192321777344 104.03732299804688 83.01736450195312 104.52760314941406 84.82437133789062 C 104.52760314941406 94.2500991821289 104.52760314941406 103.67582702636719 104.52760314941406 113.10233306884766 C 104.4046401977539 113.55680847167969 104.3921890258789 114.05797576904297 104.15795135498047 114.46653747558594 C 103.14860534667969 116.22296142578125 100.49800872802734 116.22296142578125 99.48944854736328 114.46653747558594 C 99.25520324707031 114.05797576904297 99.24275207519531 113.55680847167969 99.11978912353516 113.10233306884766 C 99.11978912353516 103.67582702636719 99.11978912353516 94.2500991821289 99.11978912353516 84.82437133789062 C 99.61006927490234 83.01580810546875 100.01551818847656 82.61192321777344 101.82408905029297 82.12319946289062 C 101.82408905029297 82.12319946289062 101.82408905029297 82.12319946289062 101.82408905029297 82.12319946289062" stroke-width="0.0" fill="rgb(181, 181, 181)" opacity="1.0"/>
    <path d="M 115.2233657836914 101.88748931884766 C 115.2233657836914 101.88748931884766 115.2233657836914 101.88748931884766 115.2233657836914 101.88748931884766 C 115.69963073730469 104.83614349365234 117.09963989257812 106.23381042480469 120.04751586914062 106.7100830078125 C 123.2646484375 106.7100830078125 126.4817886352539 106.7100830078125 129.69813537597656 106.7100830078125 C 132.64602661132812 106.23381042480469 134.04446411132812 104.83536529541016 134.51995849609375 101.88748931884766 C 134.51995849609375 103.998779296875 134.51995849609375 106.11085510253906 134.51995849609375 108.22293090820312 C 134.04446411132812 111.17158508300781 132.6475830078125 112.57159423828125 129.69813537597656 113.04785919189453 C 126.4817886352539 113.04785919189453 123.2646484375 113.04785919189453 120.04751586914062 113.04785919189453 C 117.09809112548828 112.57159423828125 115.69963073730469 111.17236328125 115.2233657836914 108.22293090820312 C 115.2233657836914 106.11085510253906 115.2233657836914 103.998779296875 115.2233657836914 101.88748931884766" stroke-width="0.0" fill="rgb(136, 136, 136)" opacity="1.0"/>
    <path d="M 137.2234649658203 180.76412963867188 C 137.2234649658203 180.76412963867188 137.2234649658203 180.76412963867188 137.2234649658203 180.76412963867188 C 136.9495391845703 180.95245361328125 136.616455078125 181.07540893554688 136.40090942382812 181.3291015625 C 133.75341796875 184.4427490234375 138.14332580566406 186.68710327148438 140.62969970703125 187.2629852294922 C 140.62969970703125 187.2629852294922 140.62969970703125 187.2629852294922 140.62969970703125 187.2629852294922 C 138.3783416748047 187.4248504638672 135.7752227783203 186.9952850341797 134.20944213867188 185.15402221679688 C 132.07870483398438 182.64817810058594 134.5534210205078 180.16567993164062 137.2234649658203 180.76412963867188 C 137.2234649658203 180.76412963867188 137.2234649658203 180.76412963867188 137.2234649658203 180.76412963867188" stroke-width="0.0" fill="rgb(217, 217, 217)" opacity="1.0"/>
    <path d="M 139.57601928710938 172.25045776367188 C 139.57601928710938 172.25045776367188 139.57601928710938 172.25045776367188 139.57601928710938 172.25045776367188 C 139.92698669433594 172.27691650390625 140.27874755859375 172.30337524414062 140.62969970703125 172.32984924316406 C 140.62969970703125 172.32984924316406 140.62969970703125 172.32984924316406 140.62969970703125 172.32984924316406 C 138.17990112304688 172.88548278808594 133.82656860351562 175.06993103027344 136.40090942382812 178.1695556640625 C 136.6258087158203 178.43960571289062 136.9759979248047 178.57423400878906 137.26316833496094 178.7765655517578 C 137.26316833496094 178.7765655517578 137.26316833496094 178.7765655517578 137.26316833496094 178.7765655517578 C 134.56976318359375 179.35556030273438 132.0833740234375 176.83724975585938 134.29193115234375 174.3438720703125 C 135.62969970703125 172.83412170410156 137.69039916992188 172.42478942871094 139.57601928710938 172.25045776367188 C 139.57601928710938 172.25045776367188 139.57601928710938 172.25045776367188 139.57601928710938 172.25045776367188" stroke-width="0.0" fill="rgb(217, 217, 217)" opacity="1.0"/>
    <path d="M 162.3177490234375 172.69406127929688 C 162.3177490234375 172.69406127929688 162.3177490234375 172.69406127929688 162.3177490234375 172.69406127929688 C 162.7006378173828 172.72128295898438 163.08352661132812 172.74851989746094 163.46717834472656 172.7757568359375 C 163.46717834472656 172.7757568359375 163.46717834472656 172.7757568359375 163.46717834472656 172.7757568359375 C 160.8033447265625 173.4901580810547 159.2679443359375 174.7174072265625 157.97921752929688 177.15399169921875 C 157.245361328125 177.15399169921875 156.51072692871094 177.15399169921875 155.77685546875 177.15399169921875 C 157.22900390625 174.36410522460938 159.1947784423828 173.03956604003906 162.3177490234375 172.69406127929688 C 162.3177490234375 172.69406127929688 162.3177490234375 172.69406127929688 162.3177490234375 172.69406127929688" stroke-width="0.0" fill="rgb(218, 218, 218)" opacity="1.0"/>
    <path d="M 155.81967163085938 182.55946350097656 C 156.55352783203125 182.55946350097656 157.28814697265625 182.55946350097656 158.0220184326172 182.55946350097656 C 159.3270721435547 184.92678833007812 160.85626220703125 186.11746215820312 163.46717834472656 186.8162841796875 C 163.46717834472656 186.8162841796875 163.46717834472656 186.8162841796875 163.46717834472656 186.8162841796875 C 159.97067260742188 187.0871124267578 157.47726440429688 185.59683227539062 155.81967163085938 182.55946350097656 C 155.81967163085938 182.55946350097656 155.81967163085938 182.55946350097656 155.81967163085938 182.55946350097656" stroke-width="0.0" fill="rgb(217, 217, 217)" opacity="1.0"/>
    <path d="M 141.73634338378906 177.65594482421875 C 141.73634338378906 177.65594482421875 141.73634338378906 177.65594482421875 141.73634338378906 177.65594482421875 C 142.63050842285156 177.90496826171875 143.0756378173828 177.83493041992188 143.58303833007812 178.73065185546875 C 144.38148498535156 180.1415557861328 143.35113525390625 181.9617919921875 141.70909118652344 181.93922424316406 C 141.33399963378906 181.93455505371094 140.98924255371094 181.7314453125 140.62969970703125 181.62716674804688 C 140.62969970703125 181.62716674804688 140.62969970703125 181.62716674804688 140.62969970703125 181.62716674804688 C 141.93167114257812 180.32443237304688 141.9075469970703 179.2691650390625 140.62969970703125 177.95321655273438 C 140.62969970703125 177.95321655273438 140.62969970703125 177.95321655273438 140.62969970703125 177.95321655273438 C 140.99859619140625 177.85438537597656 141.36746215820312 177.7547607421875 141.73634338378906 177.65594482421875 C 141.73634338378906 177.65594482421875 141.73634338378906 177.65594482421875 141.73634338378906 177.65594482421875" stroke-width="0.0" fill="rgb(218, 218, 218)" opacity="1.0"/>
    <path d="M 166.55979919433594 180.45050048828125 C 166.55979919433594 180.45050048828125 166.55979919433594 180.45050048828125 166.55979919433594 180.45050048828125 C 165.34811401367188 181.27540588378906 164.8866424560547 181.6077117919922 163.46717834472656 181.0863037109375 C 163.46717834472656 181.0863037109375 163.46717834472656 181.0863037109375 163.46717834472656 181.0863037109375 C 164.6523895263672 180.29330444335938 165.16757202148438 180.142333984375 166.55979919433594 180.45050048828125 C 166.55979919433594 180.45050048828125 166.55979919433594 180.45050048828125 166.55979919433594 180.45050048828125" stroke-width="0.0" fill="rgb(199, 199, 199)" opacity="1.0"/>
    <path d="M 164.56056213378906 178.09951782226562 C 164.56056213378906 178.09951782226562 164.56056213378906 178.09951782226562 164.56056213378906 178.09951782226562 C 165.2399444580078 178.37579345703125 165.91310119628906 178.690185546875 166.52011108398438 179.10186767578125 C 166.52011108398438 179.10186767578125 166.52011108398438 179.10186767578125 166.52011108398438 179.10186767578125 C 165.2103729248047 179.40145874023438 164.69674682617188 179.30809020996094 163.56134033203125 178.58901977539062 C 163.56134033203125 178.58901977539062 163.56134033203125 178.58901977539062 163.56134033203125 178.58901977539062 C 163.8944091796875 178.42559814453125 164.2274932861328 178.26217651367188 164.56056213378906 178.09951782226562 C 164.56056213378906 178.09951782226562 164.56056213378906 178.09951782226562 164.56056213378906 178.09951782226562" stroke-width="0.0" fill="rgb(193, 193, 193)" opacity="1.0"/>
    <path d="M 101.8326416015625 82.12942504882812 C 101.8326416015625 82.12942504882812 101.8326416015625 82.12942504882812 101.8326416015625 82.12942504882812 C 101.8326416015625 93.35516357421875 101.8326416015625 104.58088684082031 101.8326416015625 115.80662536621094 C 101.8326416015625 115.80662536621094 101.8326416015625 115.80662536621094 101.8326416015625 115.80662536621094 C 100.02252197265625 115.31790924072266 99.6194076538086 114.91167449951172 99.1291275024414 113.10233306884766 C 99.1291275024414 103.67893981933594 99.1291275024414 94.25633239746094 99.1291275024414 84.83370971679688 C 99.6194076538086 83.02436828613281 100.02252197265625 82.6181411743164 101.8326416015625 82.12942504882812 C 101.8326416015625 82.12942504882812 101.8326416015625 82.12942504882812 101.8326416015625 82.12942504882812" stroke-width="0.0" fill="rgb(200, 200, 200)" opacity="1.0"/>
    <path d="M 124.87244415283203 98.92872619628906 C 124.87244415283203 98.92872619628906 124.87244415283203 98.92872619628906 124.87244415283203 98.92872619628906 C 126.29969024658203 99.23922729492188 126.73704528808594 99.5450668334961 127.4530029296875 100.81822204589844 C 127.4530029296875 100.81822204589844 127.4530029296875 100.81822204589844 127.4530029296875 100.81822204589844 C 129.86624145507812 102.17231750488281 129.86624145507812 104.61590576171875 127.4530029296875 105.96844482421875 C 127.4530029296875 105.96844482421875 127.4530029296875 105.96844482421875 127.4530029296875 105.96844482421875 C 126.09423828125 108.40814208984375 123.65998840332031 108.38246154785156 122.29032897949219 105.96844482421875 C 122.29032897949219 105.96844482421875 122.29032897949219 105.96844482421875 122.29032897949219 105.96844482421875 C 119.88020324707031 104.61512756347656 119.87942504882812 102.173095703125 122.29032897949219 100.81822204589844 C 122.29032897949219 100.81822204589844 122.29032897949219 100.81822204589844 122.29032897949219 100.81822204589844 C 123.01329040527344 99.55518341064453 123.45064544677734 99.24000549316406 124.87244415283203 98.92872619628906 C 124.87244415283203 98.92872619628906 124.87244415283203 98.92872619628906 124.87244415283203 98.92872619628906" stroke-width="0.0" fill="rgb(118, 118, 118)" opacity="1.0"/>
    <path d="M 92.96723175048828 82.12942504882812 C 98.88165283203125 82.12942504882812 104.79608154296875 82.12942504882812 110.71051025390625 82.12942504882812 C 111.16654205322266 82.25160217285156 111.66848754882812 82.26249694824219 112.07860565185547 82.49674224853516 C 113.83114624023438 83.49986267089844 113.82725524902344 86.16056823730469 112.07860565185547 87.16446685791016 C 111.66927337646484 87.39949035644531 111.16654205322266 87.41116333007812 110.71051025390625 87.53411865234375 C 104.79608154296875 87.53411865234375 98.88165283203125 87.53411865234375 92.96723175048828 87.53411865234375 C 92.51197814941406 87.41116333007812 92.0100326538086 87.39871215820312 91.60069274902344 87.16446685791016 C 89.85049438476562 86.15901184082031 89.84738159179688 83.50064086914062 91.60069274902344 82.49674224853516 C 92.0100326538086 82.26249694824219 92.51197814941406 82.25160217285156 92.96723175048828 82.12942504882812 C 92.96723175048828 82.12942504882812 92.96723175048828 82.12942504882812 92.96723175048828 82.12942504882812" stroke-width="0.0" fill="rgb(243, 49, 49)" opacity="1.0"/>
    <path d="M 92.95478057861328 82.12942504882812 C 98.87310028076172 82.12942504882812 104.79219055175781 82.12942504882812 110.71051025390625 82.12942504882812 C 112.5206298828125 82.6181411743164 112.9229736328125 83.02436828613281 113.41246795654297 84.83370971679688 C 105.69180297851562 84.83370971679688 97.97114562988281 84.83370971679688 90.25126647949219 84.83370971679688 C 90.74153900146484 83.02436828613281 91.14466094970703 82.6181411743164 92.95478057861328 82.12942504882812 C 92.95478057861328 82.12942504882812 92.95478057861328 82.12942504882812 92.95478057861328 82.12942504882812" stroke-width="0.0" fill="rgb(246, 100, 100)" opacity="1.0"/>
  </g>
</svg>
