<?xml version="1.0" ?>
<svg xmlns="http://www.w3.org/2000/svg" version="1.1" width="224" height="224">
  <defs/>
  <g>
    <path d="M 103.76872253417969 174.89633178710938 C 98.64556884765625 173.12220764160156 98.97950744628906 172.76727294921875 98.04505920410156 157.98748779296875 C 97.45118713378906 147.5087890625 98.5504150390625 143.72726440429688 100.61079406738281 138.0810546875 C 103.12859344482422 136.2438201904297 124.75830078125 102.7872085571289 137.1917724609375 81.29049682617188 C 145.00567626953125 74.6570053100586 153.74220275878906 68.12683868408203 155.7767333984375 70.76526641845703 C 160.02780151367188 71.21920776367188 174.48020935058594 82.0201416015625 175.48281860351562 85.50921630859375 C 175.72242736816406 87.7822494506836 178.44590759277344 94.95249938964844 178.21319580078125 103.86275482177734 C 178.69390869140625 115.72418212890625 177.99343872070312 119.44344329833984 176.11651611328125 126.18746185302734 C 174.46485900878906 140.13882446289062 167.6044158935547 151.14010620117188 158.95787048339844 160.98541259765625 C 144.10379028320312 170.05422973632812 134.55914306640625 174.59103393554688 116.402587890625 175.37396240234375 C 110.57032012939453 175.3393096923828 104.77983093261719 175.00848388671875 103.76872253417969 174.89633178710938" stroke-width="0.0" fill="rgb(254, 254, 252)" opacity="0.9994186"/>
    <path d="M 128.76319885253906 65.72941589355469 C 126.23145294189453 61.960044860839844 125.3414306640625 58.7262077331543 126.70079040527344 54.21695327758789 C 125.946533203125 48.773231506347656 126.05638122558594 47.658111572265625 127.66626739501953 43.84075927734375 C 129.75616455078125 43.13780212402344 133.0926055908203 40.905967712402344 135.3292999267578 39.070098876953125 C 139.63121032714844 38.22962188720703 141.1432342529297 38.710906982421875 151.61361694335938 42.47798156738281 C 157.65139770507812 44.70012664794922 164.10748291015625 47.205955505371094 167.8976287841797 48.05250549316406 C 169.2609100341797 50.158294677734375 169.71115112304688 51.64300537109375 168.88426208496094 55.134151458740234 C 168.33583068847656 57.12547302246094 166.68716430664062 59.972110748291016 164.6736297607422 62.221710205078125 C 160.76004028320312 66.1743392944336 159.69308471679688 66.62545776367188 141.5304412841797 67.89187622070312 L 132.88821411132812 68.356201171875 L 128.76319885253906 65.72941589355469" stroke-width="0.0" fill="rgb(250, 251, 251)" opacity="0.9922837"/>
    <path d="M 86.7409439086914 181.3345184326172 C 83.1089859008789 177.00230407714844 78.07040405273438 167.0939483642578 76.04632568359375 156.99789428710938 C 73.7982406616211 150.1858673095703 73.1961441040039 130.05479431152344 75.86517333984375 120.35420227050781 C 77.39922332763672 112.14720916748047 78.93822479248047 112.03292083740234 76.5287094116211 109.87027740478516 C 74.0855712890625 108.50172424316406 69.80238342285156 106.4289779663086 65.36909484863281 107.04953002929688 C 51.04871368408203 104.31168365478516 41.120849609375 99.55450439453125 40.30650329589844 95.07677459716797 C 41.43146514892578 91.22599792480469 51.91559600830078 86.47520446777344 71.41470336914062 84.9708251953125 C 85.6377182006836 84.47944641113281 87.96917724609375 84.30442810058594 94.8683853149414 78.70344543457031 C 108.11186218261719 71.43888854980469 110.52133178710938 69.20143127441406 112.34710693359375 54.84588623046875 C 112.68093872070312 43.655616760253906 115.41230773925781 40.530426025390625 120.410888671875 35.622581481933594 C 128.21572875976562 29.587257385253906 133.15042114257812 28.31633758544922 142.032470703125 27.99999237060547 C 147.4638214111328 28.41242218017578 150.33184814453125 29.11711883544922 154.855224609375 30.879356384277344 C 162.01150512695312 35.27668762207031 166.33477783203125 41.502967834472656 167.19451904296875 45.53392791748047 C 166.69126892089844 48.17207336425781 166.10940551757812 49.588829040527344 163.5227813720703 50.74305725097656 C 159.56011962890625 50.13697052001953 157.9556121826172 51.3583984375 159.43722534179688 52.227928161621094 C 159.5464630126953 53.079524993896484 154.8787078857422 52.31182098388672 153.09019470214844 50.19194793701172 C 149.8643035888672 51.76385498046875 148.7603302001953 48.00945281982422 152.5562744140625 48.90937805175781 C 156.48597717285156 48.390380859375 153.14523315429688 47.096961975097656 148.6453094482422 43.61553192138672 C 144.72491455078125 38.86042022705078 140.0045623779297 38.966064453125 134.964599609375 40.10069274902344 C 126.8007583618164 43.43402862548828 123.33763122558594 52.98681640625 128.7086944580078 60.98771286010742 C 131.97911071777344 66.28256225585938 134.50338745117188 67.97652435302734 135.81655883789062 63.45515441894531 C 135.040283203125 57.80323028564453 136.80055236816406 60.14080810546875 139.40310668945312 66.62579345703125 C 146.46334838867188 68.06260681152344 149.0729522705078 68.87706756591797 151.05026245117188 68.20484924316406 C 153.23312377929688 65.14082336425781 155.0157928466797 65.62149047851562 155.73141479492188 65.71205139160156 C 156.57955932617188 68.23329162597656 153.58433532714844 71.09457397460938 149.27078247070312 74.60089874267578 C 143.88487243652344 78.28030395507812 134.0347442626953 89.51194763183594 136.58151245117188 89.28225708007812 C 138.08389282226562 93.5436019897461 133.09812927246094 105.3822021484375 128.4263153076172 110.86952209472656 C 126.45985412597656 114.13215637207031 119.55192565917969 121.11615753173828 113.66609954833984 127.01045227050781 C 106.96461486816406 131.9460906982422 102.21098327636719 138.3019256591797 102.44413757324219 140.87379455566406 C 101.1961669921875 141.95741271972656 100.11669921875 149.3133544921875 99.69046020507812 156.50755310058594 C 99.28762817382812 164.96080017089844 99.01695251464844 167.7081756591797 100.08712005615234 170.35769653320312 C 103.76250457763672 170.93328857421875 103.2677001953125 174.17611694335938 101.73176574707031 175.83009338378906 C 99.96202087402344 177.12693786621094 98.00959777832031 178.6667938232422 99.7296371459961 179.87115478515625 C 98.9930648803711 183.42945861816406 95.91256713867188 186.04885864257812 92.93083190917969 185.45968627929688 C 91.618408203125 185.3336181640625 88.56419372558594 183.85386657714844 86.7409439086914 181.3345184326172" stroke-width="0.0" fill="rgb(51, 47, 45)" opacity="0.97507787"/>
    <path d="M 125.48115539550781 182.38670349121094 C 123.26624298095703 180.2635498046875 124.50761413574219 179.75689697265625 134.4707489013672 177.93931579589844 C 140.81430053710938 176.84007263183594 141.81101989746094 178.13427734375 137.9591827392578 181.75790405273438 C 134.89315795898438 184.7991943359375 127.64872741699219 184.89767456054688 125.48115539550781 182.38670349121094" stroke-width="1.0" fill="rgb(42, 40, 37)" opacity="0.9780846"/>
    <path d="M 94.11167907714844 192.2316131591797 C 90.822998046875 189.11097717285156 88.5833740234375 185.44757080078125 88.84230041503906 183.83180236816406 C 89.3556137084961 183.94363403320312 93.63742065429688 184.76295471191406 97.79130554199219 185.86228942871094 C 102.4097671508789 186.49972534179688 106.22689819335938 186.92379760742188 106.41194152832031 186.57363891601562 C 106.76109313964844 186.85047912597656 106.288330078125 185.4658203125 104.66622924804688 184.3477325439453 C 103.0281982421875 180.9063720703125 102.7679443359375 181.568359375 107.83274841308594 182.31182861328125 C 116.09844207763672 181.6472625732422 127.48619079589844 190.11709594726562 123.51136016845703 192.794189453125 C 123.91279602050781 194.12832641601562 119.38509368896484 194.5504150390625 114.5291748046875 193.03207397460938 C 109.79251098632812 192.6630859375 104.59832763671875 194.49588012695312 102.38624572753906 195.2318115234375 C 99.366943359375 194.67910766601562 97.19792938232422 194.02703857421875 94.11167907714844 192.2316131591797" stroke-width="1.0" fill="rgb(244, 226, 55)" opacity="0.99452597"/>
    <path d="M 131.43202209472656 192.15953063964844 C 126.57044982910156 187.9663543701172 125.83526611328125 184.87191772460938 129.3804473876953 184.09707641601562 C 130.8690643310547 183.96888732910156 138.428955078125 183.94281005859375 145.23936462402344 182.5836181640625 C 158.29293823242188 182.77574157714844 158.98568725585938 183.71783447265625 162.49639892578125 185.97048950195312 C 166.95053100585938 189.4923095703125 165.87228393554688 193.5515594482422 160.2900390625 194.22146606445312 C 158.30612182617188 194.26235961914062 154.98358154296875 193.64865112304688 153.40234375 192.90548706054688 C 150.82252502441406 191.9854278564453 149.0501251220703 191.64573669433594 145.78150939941406 193.71685791015625 C 140.0144500732422 196.0 135.77430725097656 195.27786254882812 131.43202209472656 192.15953063964844" stroke-width="0.0" fill="rgb(242, 230, 55)" opacity="0.99372977"/>
    <path d="M 173.69943237304688 85.57567596435547 C 170.77603149414062 83.38302612304688 165.88864135742188 79.3163833618164 163.0009765625 76.28292846679688 C 159.0825958251953 71.68263244628906 158.3270263671875 70.98082733154297 160.12677001953125 70.96532440185547 C 162.07164001464844 70.97071838378906 166.83078002929688 72.66929626464844 170.9652099609375 74.69209289550781 C 177.28262329101562 77.71064758300781 179.1501922607422 79.38587951660156 180.25399780273438 82.68780517578125 C 182.93496704101562 90.81486511230469 182.31787109375 90.91188049316406 173.69943237304688 85.57567596435547" stroke-width="1.0" fill="rgb(233, 197, 53)" opacity="0.970161"/>
    <path d="M 105.01591491699219 178.3731689453125 C 99.46316528320312 177.22312927246094 99.1922607421875 177.2548370361328 99.31427764892578 173.2914581298828 L 99.9178466796875 168.50181579589844 L 104.05805969238281 170.0355224609375 C 109.402587890625 172.63217163085938 123.63725280761719 172.175048828125 131.71697998046875 170.87667846679688 C 150.2510223388672 165.2980194091797 165.28750610351562 150.68353271484375 173.52743530273438 128.4458465576172 C 175.58045959472656 123.21023559570312 177.59561157226562 119.7727279663086 177.36436462402344 120.43138122558594 C 178.4832305908203 122.69120025634766 172.26626586914062 142.42494201660156 168.40399169921875 149.91757202148438 C 163.5828094482422 159.03538513183594 153.8326416015625 170.04220581054688 147.00994873046875 173.65533447265625 C 138.08663940429688 178.91650390625 117.9903564453125 181.2366943359375 105.01591491699219 178.3731689453125" stroke-width="1.0" fill="rgb(215, 215, 210)" opacity="0.97770256"/>
    <path d="M 151.0550079345703 52.95642852783203 C 147.1984405517578 52.29924392700195 144.06370544433594 51.113746643066406 144.3372802734375 50.4761962890625 C 143.41851806640625 47.575714111328125 149.85398864746094 47.20555877685547 156.3289794921875 49.28137969970703 C 164.9293212890625 53.59366989135742 163.62127685546875 54.5722770690918 151.0550079345703 52.95642852783203" stroke-width="1.0" fill="rgb(201, 141, 56)" opacity="0.9772034"/>
    <path d="M 132.04359436035156 86.25447082519531 C 131.55616760253906 80.77647399902344 132.4305877685547 79.46345520019531 141.82371520996094 74.98374938964844 C 145.89419555664062 73.64706420898438 149.06602478027344 71.76294708251953 149.3047637939453 71.02456665039062 C 150.08123779296875 70.5253677368164 147.48597717285156 70.18856811523438 143.53245544433594 70.49165344238281 C 134.42332458496094 70.72091674804688 133.8616180419922 70.50064086914062 134.2109832763672 63.5938835144043 C 134.2574462890625 60.49386978149414 133.94969177246094 57.8795280456543 134.9524383544922 57.640201568603516 C 135.27914428710938 57.50730895996094 138.57980346679688 59.622676849365234 142.223876953125 62.09328842163086 C 147.57730102539062 65.82307434082031 149.69827270507812 66.71702575683594 150.3440399169922 65.43528747558594 C 151.08331298828125 64.55076599121094 153.37625122070312 64.63833618164062 155.8204345703125 65.06156921386719 C 158.73147583007812 65.48538208007812 159.17901611328125 64.77816009521484 164.67225646972656 59.6933479309082 C 170.93341064453125 53.092193603515625 171.4982452392578 54.67426300048828 170.728759765625 63.875694274902344 L 170.1455535888672 70.16480255126953 L 164.48892211914062 70.57061767578125 C 161.55374145507812 69.50631713867188 158.26559448242188 70.73004150390625 158.14515686035156 71.45793151855469 C 157.8397216796875 72.24913787841797 156.16993713378906 73.07369995117188 154.31150817871094 73.30342864990234 C 151.56346130371094 72.91676330566406 149.3734130859375 74.30325317382812 142.96893310546875 82.27857208251953 C 138.13143920898438 87.20471954345703 133.9225616455078 91.16979217529297 132.82662963867188 91.0741958618164 C 131.91810607910156 90.79080963134766 131.86669921875 88.8071517944336 132.04359436035156 86.25447082519531" stroke-width="1.0" fill="rgb(232, 194, 42)" opacity="0.9874651"/>
    <path d="M 97.1002197265625 186.74392700195312 C 92.53627014160156 186.1186065673828 90.34242248535156 185.9143829345703 92.49874877929688 185.44985961914062 C 95.07957458496094 185.382568359375 97.04371643066406 184.54296875 97.7989501953125 183.45480346679688 C 99.10089111328125 181.2797088623047 103.56245422363281 181.56976318359375 106.91751098632812 184.5813751220703 C 108.75370025634766 186.2515869140625 109.00343322753906 187.56167602539062 107.37434387207031 187.30758666992188 C 106.22149658203125 187.28903198242188 101.68331146240234 187.10272216796875 97.1002197265625 186.74392700195312" stroke-width="1.0" fill="rgb(206, 175, 77)" opacity="0.95850074"/>
    <path d="M 137.67529296875 186.82205200195312 C 133.78009033203125 186.54722595214844 129.48150634765625 186.04373168945312 128.4203338623047 185.41226196289062 C 124.30343627929688 184.777587890625 124.99424743652344 182.71774291992188 129.2938690185547 183.23501586914062 C 131.42921447753906 184.24014282226562 133.86932373046875 184.00839233398438 135.759521484375 182.82095336914062 C 138.17410278320312 181.2266845703125 139.01776123046875 180.72006225585938 140.38296508789062 181.68453979492188 C 141.03453063964844 182.4156951904297 143.46885681152344 182.85008239746094 145.2379150390625 183.056396484375 C 148.853515625 182.32626342773438 155.12034606933594 185.408203125 155.05087280273438 187.49627685546875 C 154.7549591064453 188.08853149414062 152.9103240966797 188.00173950195312 137.67529296875 186.82205200195312" stroke-width="1.0" fill="rgb(200, 159, 71)" opacity="0.92724794"/>
    <path d="M 168.48660278320312 59.99913024902344 C 168.06455993652344 53.86174011230469 168.0535430908203 54.00834274291992 172.72854614257812 54.4100456237793 C 178.912841796875 53.984867095947266 183.4546356201172 56.33952331542969 183.69349670410156 59.177303314208984 C 183.5414581298828 63.08242416381836 180.83590698242188 64.93084716796875 174.63436889648438 65.39144897460938 L 168.7086181640625 66.14204406738281 L 168.48660278320312 59.99913024902344" stroke-width="1.0" fill="rgb(240, 224, 55)" opacity="0.98947114"/>
  </g>
</svg>
