<?xml version="1.0" ?>
<svg xmlns="http://www.w3.org/2000/svg" version="1.1" width="224" height="224">
  <defs/>
  <g>
    <path d="M 37.41212463378906 145.3597412109375 C 36.581932067871094 143.65292358398438 37.80359649658203 129.35365295410156 39.942474365234375 120.77191162109375 C 42.23332977294922 110.72534942626953 48.05841064453125 99.32438659667969 55.153133392333984 91.8061752319336 C 60.09043502807617 85.9931411743164 61.959999084472656 84.58421325683594 72.57899475097656 81.44638061523438 C 80.83519744873047 78.82548522949219 82.41311645507812 78.84259033203125 82.95574951171875 82.91902923583984 C 82.60420989990234 85.4339599609375 82.80763244628906 85.41844940185547 86.56025695800781 85.90167999267578 C 88.55973052978516 86.98127746582031 89.52101135253906 86.60586547851562 90.64249420166016 82.9611587524414 C 96.56031799316406 73.33561706542969 104.79598999023438 68.54273986816406 114.16707611083984 69.8038330078125 C 120.5084457397461 70.889892578125 126.35810852050781 74.67269134521484 130.66665649414062 81.88945007324219 C 132.89825439453125 85.20842742919922 137.54360961914062 90.47238159179688 141.00411987304688 94.33883666992188 C 144.2095489501953 98.25834655761719 147.9909210205078 103.91554260253906 149.5459747314453 106.9598617553711 C 152.5716094970703 113.55158996582031 154.8485107421875 125.53180694580078 155.40257263183594 136.78977966308594 L 155.09420776367188 145.80421447753906 L 95.95758819580078 146.05453491210938 C 54.79008865356445 146.05775451660156 37.622154235839844 146.0360107421875 37.41212463378906 145.3597412109375" stroke-width="0.0" fill="rgb(245, 211, 141)" opacity="0.9892785"/>
    <path d="M 29.509376525878906 153.53662109375 C 28.393592834472656 152.41734313964844 28.173736572265625 150.11752319335938 28.147048950195312 146.3926544189453 C 27.99999237060547 139.89010620117188 29.587364196777344 137.05625915527344 33.68540954589844 136.8739471435547 C 36.127296447753906 136.2469482421875 37.908241271972656 138.32530212402344 37.61210632324219 141.45526123046875 C 37.703330993652344 144.57005310058594 39.824867248535156 144.6589813232422 51.34755325317383 144.19427490234375 C 61.33845520019531 144.46408081054688 61.57361602783203 144.7883758544922 61.798213958740234 141.78207397460938 C 62.70163345336914 138.98289489746094 67.43315124511719 139.20166015625 69.55946350097656 143.910400390625 C 72.20597076416016 145.01400756835938 73.18656158447266 144.67994689941406 79.89935302734375 144.4652099609375 C 83.44648742675781 144.51100158691406 89.44026947021484 144.48829650878906 92.9658432006836 144.4743194580078 L 98.84426879882812 144.64508056640625 L 98.6051254272461 149.07241821289062 L 98.20471954345703 154.86781311035156 L 64.83273315429688 155.00099182128906 C 32.66377258300781 154.90562438964844 30.77178192138672 155.15936279296875 29.509376525878906 153.53662109375" stroke-width="0.0" fill="rgb(127, 215, 108)" opacity="0.9963833"/>
    <path d="M 153.39952087402344 144.04025268554688 C 152.93487548828125 142.8072052001953 152.22616577148438 138.57089233398438 152.21246337890625 134.3535919189453 C 151.98202514648438 123.4771728515625 149.74258422851562 111.39202117919922 146.76075744628906 105.2115249633789 C 145.05201721191406 102.57793426513672 141.45909118652344 97.33026123046875 138.22055053710938 93.66145324707031 C 129.83200073242188 85.60075378417969 130.24172973632812 84.94202423095703 147.745849609375 84.97111511230469 L 160.08169555664062 85.9629898071289 L 164.22296142578125 89.44100952148438 C 177.1439208984375 102.49694061279297 183.5557861328125 121.0873794555664 184.26307678222656 139.01583862304688 L 184.5298614501953 145.14895629882812 L 169.7581024169922 146.1770477294922 C 155.56973266601562 145.28091430664062 154.0614013671875 145.02493286132812 153.39952087402344 144.04025268554688" stroke-width="0.0" fill="rgb(189, 161, 102)" opacity="0.99882"/>
    <path d="M 64.44709777832031 88.61600494384766 C 63.64037322998047 87.49335479736328 63.264404296875 85.88133239746094 63.2894401550293 83.01803588867188 L 63.61193084716797 78.40153503417969 L 69.88874816894531 78.48970031738281 C 74.99545288085938 78.03730773925781 75.61917114257812 78.2723388671875 74.60256958007812 79.42372131347656 C 73.80461120605469 80.27215576171875 73.58425903320312 82.50364685058594 73.62078857421875 84.07157135009766 C 73.84866333007812 86.7959213256836 73.67947387695312 87.55470275878906 71.50344848632812 88.86986541748047 C 68.51522827148438 90.60560607910156 66.583740234375 90.61770629882812 64.44709777832031 88.61600494384766" stroke-width="1.0" fill="rgb(123, 126, 129)" opacity="0.9790276"/>
    <path d="M 61.48747253417969 140.88021850585938 C 61.65264892578125 138.5216827392578 62.13257598876953 134.5872344970703 62.2465934753418 131.80813598632812 C 63.14726638793945 123.83908081054688 65.5205307006836 110.6299057006836 66.33267211914062 109.29930877685547 C 66.7647476196289 109.39095306396484 67.83544921875 110.69550323486328 68.81834411621094 112.59269714355469 C 70.48129272460938 115.69290161132812 70.49652099609375 116.63606262207031 69.5370101928711 130.2469024658203 L 68.7037353515625 144.5106201171875 L 61.00595474243164 144.35794067382812 L 61.48747253417969 140.88021850585938" stroke-width="1.0" fill="rgb(184, 157, 102)" opacity="1.0"/>
    <path d="M 96.83666229248047 139.0712432861328 C 96.7761459350586 120.84745025634766 97.70443725585938 118.8223648071289 103.96155548095703 115.43043518066406 C 108.45825958251953 112.99320983886719 112.82406616210938 113.06974792480469 117.95938110351562 115.26905822753906 C 124.69087982177734 118.15715026855469 125.41619110107422 120.25370788574219 125.56118774414062 138.5582275390625 L 125.2082290649414 154.904052734375 L 97.06776428222656 154.84783935546875 L 96.83666229248047 139.0712432861328" stroke-width="1.0" fill="rgb(83, 83, 88)" opacity="0.99600565"/>
    <path d="M 139.6140594482422 88.35933685302734 C 138.10696411132812 86.19495391845703 137.7052764892578 82.1787109375 138.8465118408203 79.59234619140625 C 139.376220703125 78.43689727783203 140.99818420410156 78.05619049072266 145.59251403808594 78.11107635498047 C 150.94004821777344 78.36103820800781 151.53602600097656 78.56544494628906 150.63442993164062 79.64898681640625 C 150.05935668945312 80.3395004272461 149.67694091796875 82.52537536621094 149.69610595703125 84.1833267211914 C 150.32752990722656 89.90301513671875 142.4678192138672 92.9022216796875 139.6140594482422 88.35933685302734" stroke-width="1.0" fill="rgb(124, 125, 131)" opacity="0.96669793"/>
    <path d="M 125.32532501220703 149.81948852539062 L 125.02361297607422 144.30580139160156 L 184.40243530273438 144.3931427001953 L 184.22454833984375 140.9882354736328 C 184.361083984375 137.55838012695312 184.43759155273438 137.53826904296875 187.435302734375 137.3905792236328 C 192.32107543945312 137.61976623535156 194.0238037109375 139.97476196289062 193.86618041992188 146.81729125976562 C 193.71282958984375 155.45726013183594 196.0 154.95504760742188 157.6090087890625 154.7376708984375 L 125.20964813232422 154.8129425048828 L 125.32532501220703 149.81948852539062" stroke-width="1.0" fill="rgb(127, 213, 108)" opacity="0.99082834"/>
    <path d="M 74.961181640625 88.39712524414062 C 72.67318725585938 86.31654357910156 72.32527160644531 80.98770141601562 74.26504516601562 79.2628173828125 C 74.9303207397461 78.6690444946289 77.2808837890625 78.26262664794922 79.15383911132812 78.36858367919922 C 82.7777099609375 78.48680114746094 82.95918273925781 78.4474105834961 83.09925079345703 82.99349975585938 C 83.61416625976562 86.6373291015625 83.1024398803711 87.6833267211914 81.31970977783203 88.73552703857422 C 78.66593170166016 90.890380859375 77.24049377441406 90.90396881103516 74.961181640625 88.39712524414062" stroke-width="1.0" fill="rgb(87, 86, 89)" opacity="0.99608046"/>
    <path d="M 149.66317749023438 88.01984405517578 C 148.0867156982422 86.43072509765625 147.98516845703125 81.0694351196289 149.39291381835938 79.72364807128906 C 150.15367126464844 78.8594970703125 152.3778076171875 78.47235107421875 154.5934600830078 78.3836669921875 C 157.99099731445312 78.5898208618164 158.1941680908203 78.93315887451172 158.60888671875 81.595703125 C 159.46548461914062 86.42158508300781 157.7325439453125 88.86506652832031 154.09030151367188 89.42542266845703 C 152.3876190185547 89.2674331665039 150.40762329101562 88.7772216796875 149.66317749023438 88.01984405517578" stroke-width="1.0" fill="rgb(86, 88, 93)" opacity="1.0"/>
    <path d="M 81.27635192871094 90.45771026611328 C 79.98946380615234 89.8420181274414 80.081787109375 89.36329650878906 82.01575469970703 87.4580307006836 C 83.96536254882812 85.35962677001953 84.73362731933594 85.0936279296875 87.15599060058594 85.8934555053711 L 89.95172119140625 87.01731872558594 L 86.60388946533203 89.52734375 C 83.68202209472656 92.31686401367188 83.64492797851562 92.3271713256836 81.27635192871094 90.45771026611328" stroke-width="1.0" fill="rgb(168, 146, 101)" opacity="0.9612521"/>
  </g>
</svg>
