<?xml version="1.0" ?>
<svg xmlns="http://www.w3.org/2000/svg" version="1.1" width="224" height="224">
  <defs/>
  <g>
    <path d="M 137.75428771972656 104.58133697509766 C 106.16101837158203 97.340087890625 95.81385803222656 94.737060546875 87.16050720214844 92.92359924316406 C 73.58101654052734 89.50009155273438 44.1171875 83.06512451171875 38.96702575683594 83.24305725097656 C 34.633575439453125 79.15452575683594 34.174110412597656 78.26424407958984 38.08671569824219 74.0560531616211 C 42.96611404418945 66.8538818359375 39.661251068115234 66.91903686523438 112.39852905273438 66.39018249511719 L 177.7692108154297 67.84382629394531 L 180.4785919189453 71.68498229980469 C 184.8756866455078 75.34820556640625 188.6842803955078 80.56254577636719 186.16336059570312 82.76051330566406 C 186.7222137451172 83.72077178955078 183.54742431640625 89.07788848876953 180.4696044921875 95.41920471191406 C 173.0806884765625 108.940673828125 171.64419555664062 111.1307373046875 166.46142578125 111.71715545654297 C 164.9390869140625 110.66862487792969 152.15493774414062 107.74137878417969 137.75428771972656 104.58133697509766" stroke-width="0.0" fill="rgb(240, 76, 73)" opacity="0.9950351"/>
    <path d="M 49.239540100097656 111.60637664794922 C 47.9266471862793 111.11638641357422 45.59325408935547 108.00788879394531 42.557559967041016 102.8626480102539 C 39.66728210449219 98.27911376953125 36.674766540527344 93.40361022949219 36.895965576171875 91.79740142822266 C 33.529396057128906 87.88194274902344 33.342559814453125 85.92079162597656 36.13837432861328 84.05615234375 C 37.40196228027344 83.49700927734375 49.83420181274414 83.38783264160156 65.22552490234375 83.41756439208984 C 86.34725952148438 83.52799987792969 92.05653381347656 83.18540954589844 92.78812408447266 83.75837707519531 C 92.92981719970703 85.30674743652344 93.46511840820312 90.02081298828125 93.60325622558594 98.55247497558594 C 93.34800720214844 111.06895446777344 93.24544525146484 111.20975494384766 90.75778198242188 111.95742797851562 C 87.52971649169922 112.99795532226562 52.28567123413086 113.06999969482422 49.239540100097656 111.60637664794922" stroke-width="0.0" fill="rgb(42, 51, 60)" opacity="0.99070823"/>
    <path d="M 95.57893371582031 98.3925552368164 L 95.68616485595703 83.5321044921875 L 111.98396301269531 83.42265319824219 L 112.48345947265625 113.24651336669922 L 95.7890625 113.28192138671875 L 95.57893371582031 98.3925552368164" stroke-width="1.0" fill="rgb(84, 111, 153)" opacity="0.99974304"/>
    <path d="M 115.82759857177734 111.66539764404297 C 115.21866607666016 110.84967041015625 114.90660095214844 106.18785095214844 114.78520202636719 97.14361572265625 L 115.07975769042969 83.452880859375 L 167.94232177734375 83.45640563964844 L 167.9429931640625 112.84268951416016 L 142.5376739501953 112.93065643310547 C 121.36671447753906 112.95207977294922 116.90005493164062 112.73571014404297 115.82759857177734 111.66539764404297" stroke-width="0.0" fill="rgb(40, 51, 61)" opacity="0.99935895"/>
    <path d="M 170.90008544921875 86.96218872070312 C 169.76771545410156 83.98870849609375 169.70220947265625 84.45045471191406 174.7735595703125 83.82827758789062 C 183.73841857910156 83.05145263671875 191.0186309814453 84.18025970458984 191.1343536376953 86.18619537353516 C 191.25119018554688 88.77801513671875 172.10617065429688 89.32847595214844 170.90008544921875 86.96218872070312" stroke-width="1.0" fill="rgb(46, 53, 61)" opacity="0.97693235"/>
    <path d="M 78.5743179321289 152.59268188476562 C 77.23457336425781 151.6033172607422 78.13018798828125 121.33589172363281 79.1321029663086 120.04176330566406 C 79.48308563232422 119.87968444824219 89.0743408203125 118.53524780273438 100.29148864746094 117.90575408935547 C 125.56653594970703 116.02548217773438 133.5888671875 115.51240539550781 148.80897521972656 113.53463745117188 C 155.91189575195312 112.1529541015625 167.63232421875 112.2496337890625 176.27565002441406 111.13919830322266 L 191.6523895263672 110.92733001708984 L 191.42123413085938 131.08372497558594 L 185.7540283203125 131.8717803955078 C 183.56069946289062 132.9270782470703 167.69403076171875 137.89524841308594 151.22866821289062 143.36045837402344 L 121.61334991455078 152.42230224609375 L 100.1951904296875 152.6068572998047 C 88.70115661621094 152.71266174316406 79.50164794921875 152.82901000976562 78.5743179321289 152.59268188476562" stroke-width="0.0" fill="rgb(243, 246, 247)" opacity="0.9814492"/>
    <path d="M 176.2283935546875 149.12066650390625 C 176.34698486328125 144.9242706298828 176.36688232421875 144.931396484375 182.419677734375 144.44845581054688 C 185.57794189453125 143.782470703125 190.42474365234375 143.847900390625 191.90521240234375 144.77418518066406 C 195.17501831054688 144.6673583984375 196.0 145.53256225585938 195.64364624023438 148.59475708007812 L 195.50613403320312 152.65032958984375 L 176.21438598632812 152.6934051513672 L 176.2283935546875 149.12066650390625" stroke-width="1.0" fill="rgb(250, 251, 252)" opacity="0.9958235"/>
    <path d="M 187.33383178710938 138.13209533691406 C 188.00399780273438 129.98243713378906 188.1768798828125 128.1333770751953 189.627685546875 128.1253662109375 C 191.12088012695312 128.04574584960938 191.34320068359375 130.08824157714844 191.32748413085938 137.87318420410156 C 191.28524780273438 145.8013153076172 190.9345703125 147.7111053466797 189.76519775390625 147.7509765625 C 188.04159545898438 147.74871826171875 187.8802490234375 145.79049682617188 187.33383178710938 138.13209533691406" stroke-width="1.0" fill="rgb(237, 222, 223)" opacity="0.9096456"/>
    <path d="M 32.16429138183594 137.13514709472656 C 32.598289489746094 128.17007446289062 32.806251525878906 127.3651351928711 34.997215270996094 127.49818420410156 C 37.024986267089844 127.43604278564453 37.423583984375 128.36045837402344 36.49348449707031 137.36717224121094 C 36.29096984863281 146.53326416015625 36.305885314941406 147.32583618164062 34.11753845214844 147.23895263671875 C 32.328277587890625 147.12889099121094 31.895896911621094 146.39048767089844 32.16429138183594 137.13514709472656" stroke-width="1.0" fill="rgb(220, 197, 199)" opacity="0.9820053"/>
    <path d="M 57.482608795166016 158.8534393310547 C 52.257652282714844 156.28416442871094 49.72215270996094 152.42628479003906 49.33634567260742 146.63218688964844 C 48.62848663330078 138.16322326660156 53.97687530517578 131.76039123535156 61.87088394165039 131.61981201171875 C 69.71398162841797 131.6621856689453 75.89932250976562 138.9066619873047 74.75010681152344 146.96246337890625 C 73.84492492675781 156.0532684326172 65.18000793457031 162.08148193359375 57.482608795166016 158.8534393310547" stroke-width="1.0" fill="rgb(42, 48, 57)" opacity="0.9941846"/>
    <path d="M 36.11901092529297 138.57589721679688 C 35.919189453125 136.8094940185547 37.012451171875 135.71112060546875 39.06973648071289 136.13084411621094 C 43.84529495239258 136.72357177734375 44.7292366027832 141.12034606933594 39.924766540527344 141.0906219482422 C 37.87110900878906 141.30946350097656 36.089935302734375 140.2814483642578 36.11901092529297 138.57589721679688" stroke-width="1.0" fill="rgb(222, 184, 0)" opacity="0.97439456"/>
    <path d="M 28.27782440185547 148.97726440429688 L 28.319190979003906 145.17657470703125 L 46.24018859863281 144.81605529785156 L 46.024967193603516 152.6329345703125 L 28.00000762939453 152.59765625 L 28.27782440185547 148.97726440429688" stroke-width="1.0" fill="rgb(253, 254, 253)" opacity="0.9995425"/>
    <path d="M 136.2186737060547 152.57704162597656 L 120.20933532714844 152.41111755371094 L 119.9765625 131.0302734375 L 187.3309326171875 130.94503784179688 L 187.71302795410156 144.89410400390625 L 183.8016815185547 145.1671905517578 C 180.36204528808594 144.90103149414062 179.7162628173828 144.6444854736328 180.39598083496094 147.83790588378906 C 180.40789794921875 149.12460327148438 180.14996337890625 151.26121520996094 180.17791748046875 153.03460693359375 C 177.9150390625 152.88978576660156 164.6579132080078 152.59156799316406 136.2186737060547 152.57704162597656" stroke-width="0.0" fill="rgb(215, 47, 42)" opacity="0.97867185"/>
    <path d="M 34.70360565185547 83.29231262207031 C 34.99504852294922 82.33525848388672 35.10723876953125 79.755615234375 36.05548858642578 76.57183837890625 C 37.66798400878906 69.99359893798828 42.184288024902344 64.52534484863281 47.859439849853516 63.42621612548828 C 49.818729400634766 61.918514251708984 73.08723449707031 62.754093170166016 113.5926513671875 62.65659713745117 L 175.2136688232422 62.73212814331055 L 180.94583129882812 65.80225372314453 C 185.509765625 68.00830841064453 188.43896484375 74.71408081054688 189.69342041015625 81.11320495605469 C 188.27757263183594 85.18379211425781 184.76547241210938 85.13040924072266 183.3671875 79.27574157714844 C 181.21035766601562 75.02244567871094 179.14422607421875 73.14146423339844 177.14524841308594 72.06886291503906 C 173.7307586669922 69.72904968261719 172.2184295654297 70.11772155761719 115.43771362304688 70.22988891601562 C 74.54476928710938 70.32609558105469 55.508358001708984 70.1650390625 52.4991455078125 70.62223052978516 C 46.970401763916016 71.90929412841797 42.41661834716797 75.67461395263672 41.301124572753906 80.77018737792969 C 40.665916442871094 84.17225646972656 37.36021423339844 85.02660369873047 34.70360565185547 83.29231262207031" stroke-width="1.0" fill="rgb(252, 254, 255)" opacity="0.99573445"/>
    <path d="M 38.37664031982422 105.45936584472656 C 38.5622673034668 100.95880126953125 39.15085983276367 95.26651000976562 39.373775482177734 92.49223327636719 C 40.33438491821289 87.89546966552734 40.4586296081543 87.73927307128906 44.199974060058594 88.086181640625 L 48.17960739135742 88.08154296875 L 47.624691009521484 113.72550964355469 L 38.143714904785156 113.38111877441406 L 38.37664031982422 105.45936584472656" stroke-width="1.0" fill="rgb(88, 113, 151)" opacity="0.9876315"/>
    <path d="M 32.49505615234375 129.5157012939453 C 33.25581359863281 129.99334716796875 32.42206573486328 124.33732604980469 32.518096923828125 119.73282623291016 C 32.603607177734375 113.60791778564453 32.010009765625 111.79618072509766 32.5194091796875 110.34342193603516 C 33.87458038330078 111.27674865722656 47.5361213684082 111.42756652832031 62.1721305847168 111.42955017089844 L 92.41104125976562 112.06240844726562 L 92.6915283203125 96.69058227539062 C 92.65843200683594 85.31645202636719 92.73400115966797 83.61034393310547 94.30675506591797 83.52152252197266 C 95.47205352783203 83.47772216796875 95.9698486328125 84.80615234375 95.32705688476562 90.01918029785156 C 96.376953125 106.3974609375 95.262451171875 110.09555053710938 94.65652465820312 111.32096862792969 C 96.70372772216797 111.5988540649414 100.176513671875 111.48792266845703 105.34890747070312 111.33729553222656 L 112.06820678710938 111.52385711669922 L 112.35875701904297 97.27227020263672 C 113.5845947265625 88.29619598388672 113.30148315429688 84.4314193725586 114.21944427490234 83.99046325683594 C 115.02235412597656 83.29879760742188 115.37870025634766 86.80879211425781 115.48056030273438 97.05740356445312 L 115.00450897216797 111.48829650878906 L 142.08766174316406 111.67768859863281 C 168.58132934570312 112.61356353759766 169.75531005859375 110.66445922851562 168.36607360839844 110.98299407958984 C 168.31268310546875 117.67338562011719 168.13699340820312 118.90069580078125 161.32073974609375 118.80030059814453 C 142.14974975585938 120.71257019042969 135.11351013183594 120.50081634521484 108.83746337890625 118.3465805053711 L 80.39439392089844 120.11426544189453 L 78.63877868652344 122.74028015136719 C 80.39395141601562 124.7987060546875 79.42184448242188 126.78005981445312 78.28499603271484 128.299560546875 C 69.61833953857422 129.76109313964844 32.20916748046875 129.84490966796875 32.49505615234375 129.5157012939453" stroke-width="0.0" fill="rgb(213, 46, 44)" opacity="0.9784504"/>
    <path d="M 170.68365478515625 97.91268920898438 C 170.72381591796875 83.96150970458984 170.9793701171875 83.03923034667969 172.72555541992188 83.19941711425781 C 175.3780517578125 83.26780700683594 176.16360473632812 87.61567687988281 176.332763671875 101.38752746582031 C 175.8322296142578 111.2473373413086 175.89364624023438 111.34138488769531 174.20108032226562 111.61772155761719 L 170.61587524414062 112.02801513671875 L 170.68365478515625 97.91268920898438" stroke-width="1.0" fill="rgb(85, 114, 152)" opacity="0.99320877"/>
    <path d="M 176.45147705078125 100.12430572509766 L 175.91104125976562 88.24540710449219 L 182.66162109375 88.49417877197266 C 186.27691650390625 88.50115966796875 189.59767150878906 88.74922180175781 189.84921264648438 89.08661651611328 C 190.3095703125 89.52064514160156 191.00942993164062 94.58832550048828 191.1802978515625 100.70008087158203 L 191.14466857910156 111.4360580444336 L 175.62176513671875 111.69988250732422 L 176.45147705078125 100.12430572509766" stroke-width="1.0" fill="rgb(162, 195, 219)" opacity="0.98037386"/>
    <path d="M 59.27628707885742 124.38970947265625 L 58.926963806152344 116.36448669433594 L 70.48188018798828 116.45990753173828 C 80.3253173828125 116.04112243652344 82.42558288574219 115.98666381835938 82.39883422851562 117.03717803955078 C 81.89107513427734 118.600830078125 88.43605041503906 118.60771942138672 130.08248901367188 117.74945068359375 L 177.68637084960938 116.51593017578125 L 129.93167114257812 118.3165512084961 L 81.14866638183594 119.93241119384766 L 82.27363586425781 131.66754150390625 L 58.98289489746094 131.23980712890625 L 59.27628707885742 124.38970947265625" stroke-width="1.0" fill="rgb(220, 225, 227)" opacity="0.9695837"/>
    <path d="M 57.0641975402832 152.56671142578125 C 53.050052642822266 148.26869201660156 55.621726989746094 140.5225067138672 61.589561462402344 140.46066284179688 C 64.73384094238281 140.4707489013672 67.92359924316406 144.19903564453125 68.00374603271484 147.42742919921875 C 68.01332092285156 150.84584045410156 64.17692565917969 154.8379364013672 61.33637237548828 154.57345581054688 C 60.737083435058594 154.94842529296875 58.82999801635742 153.8857421875 57.0641975402832 152.56671142578125" stroke-width="1.0" fill="rgb(186, 196, 200)" opacity="0.9714304"/>
    <path d="M 45.85094451904297 148.57472229003906 L 46.000511169433594 144.38516235351562 L 41.18242645263672 144.9730682373047 C 36.1173095703125 144.66319274902344 34.291038513183594 142.43190002441406 38.00028991699219 140.7800750732422 C 39.2376594543457 141.24708557128906 39.793663024902344 140.42791748046875 40.601356506347656 138.80422973632812 C 39.865047454833984 137.28639221191406 38.99525451660156 136.95510864257812 37.85200500488281 136.84658813476562 C 36.57908630371094 137.1157989501953 36.17450714111328 136.5520782470703 36.416603088378906 134.364501953125 L 36.10376739501953 131.04644775390625 L 80.70658874511719 130.89195251464844 L 81.24894714355469 152.51126098632812 L 77.00142669677734 152.6156463623047 C 74.04116821289062 153.03038024902344 73.8248062133789 153.0373077392578 73.98696899414062 149.82945251464844 C 75.33697509765625 144.646240234375 72.30487823486328 138.3125457763672 67.8509292602539 136.21051025390625 C 59.30943298339844 131.44699096679688 48.58723831176758 138.87564086914062 50.194419860839844 149.28712463378906 C 50.280723571777344 152.2039031982422 49.92364501953125 153.05026245117188 48.241172790527344 152.960693359375 C 46.889896392822266 152.73280334472656 46.54207992553711 151.68856811523438 45.85094451904297 148.57472229003906" stroke-width="1.0" fill="rgb(224, 55, 48)" opacity="0.9851364"/>
    <path d="M 138.46543884277344 138.49411010742188 C 138.5822296142578 136.9068603515625 139.0885772705078 136.33819580078125 140.40103149414062 136.56307983398438 C 141.42959594726562 136.95982360839844 142.28866577148438 137.80291748046875 142.26173400878906 138.8933868408203 C 142.10316467285156 139.6455841064453 141.21580505371094 140.52322387695312 140.34097290039062 140.57362365722656 C 138.851806640625 140.59669494628906 138.25674438476562 140.02554321289062 138.46543884277344 138.49411010742188" stroke-width="1.0" fill="rgb(225, 178, 0)" opacity="0.9937317"/>
    <path d="M 182.98435974121094 139.53555297851562 C 182.67807006835938 138.9896240234375 182.6435546875 137.8916015625 183.1189422607422 137.2958984375 C 184.306640625 135.9749298095703 186.41033935546875 136.8844757080078 186.531005859375 138.8544921875 C 186.81161499023438 140.5008087158203 184.0111846923828 141.04710388183594 182.98435974121094 139.53555297851562" stroke-width="1.0" fill="rgb(229, 181, 0)" opacity="0.9834629"/>
    <path d="M 158.1776580810547 158.42739868164062 C 147.55038452148438 152.48081970214844 151.92520141601562 134.36962890625 164.10723876953125 134.5779266357422 C 173.32948303222656 134.48165893554688 179.07423400878906 145.69944763183594 174.07962036132812 153.66693115234375 C 171.12586975097656 159.3704376220703 163.43338012695312 161.47332763671875 158.1776580810547 158.42739868164062" stroke-width="1.0" fill="rgb(37, 48, 56)" opacity="0.9940821"/>
    <path d="M 33.085731506347656 102.7939682006836 C 33.058502197265625 98.02198028564453 33.344886779785156 92.4075698852539 33.73163604736328 90.8272476196289 C 34.20930480957031 88.23371124267578 34.704193115234375 87.69027709960938 37.207252502441406 88.292236328125 L 40.26487731933594 88.06938171386719 L 39.68108367919922 91.74483489990234 C 39.05651092529297 93.9765853881836 38.81547927856445 99.44072723388672 38.916873931884766 103.77672576904297 L 38.9007453918457 111.8329849243164 L 32.914390563964844 111.57499694824219 L 33.085731506347656 102.7939682006836" stroke-width="1.0" fill="rgb(164, 191, 215)" opacity="0.99804884"/>
    <path d="M 39.877464294433594 125.50823974609375 C 38.72352600097656 124.76224517822266 37.794158935546875 123.61724090576172 37.859535217285156 123.15975189208984 C 37.505859375 121.34132385253906 40.344078063964844 118.79911804199219 42.20297622680664 118.82635498046875 C 44.179141998291016 118.70852661132812 46.903873443603516 120.95101165771484 46.7707633972168 122.40853118896484 C 46.89234924316406 123.3934555053711 43.501197814941406 126.9822998046875 42.59907150268555 126.97555541992188 C 42.166412353515625 127.06283569335938 40.91914749145508 126.45691680908203 39.877464294433594 125.50823974609375" stroke-width="1.0" fill="rgb(202, 142, 46)" opacity="0.99771935"/>
    <path d="M 80.90066528320312 118.03305053710938 C 81.00262451171875 116.94044494628906 78.52916717529297 116.97852325439453 70.41676330566406 116.00714874267578 C 64.27302551269531 116.39384460449219 67.01806640625 117.00169372558594 76.21360778808594 116.61148834228516 C 85.68533325195312 116.22735595703125 110.38887023925781 116.64863586425781 131.13951110839844 116.4375 C 164.47433471679688 116.7009506225586 169.07666015625 116.55939483642578 169.24179077148438 118.52001190185547 C 169.14181518554688 120.09632873535156 163.65830993652344 120.58221435546875 124.83943176269531 119.99016571044922 C 86.54983520507812 119.91362762451172 80.53980255126953 119.42754364013672 80.90066528320312 118.03305053710938" stroke-width="1.0" fill="rgb(228, 176, 180)" opacity="0.93971306"/>
    <path d="M 58.50049591064453 153.6994171142578 C 57.796871185302734 153.38739013671875 56.7257194519043 152.1339874267578 56.02171325683594 150.09255981445312 C 54.8062858581543 147.9862060546875 54.68131637573242 146.63377380371094 55.47151565551758 144.96932983398438 C 56.99983215332031 142.33058166503906 60.27580261230469 140.03546142578125 63.010196685791016 140.05496215820312 C 65.46388244628906 139.63816833496094 69.38148498535156 144.2545623779297 68.78776550292969 146.8480682373047 C 68.9289779663086 148.92279052734375 68.27178192138672 148.8751983642578 67.29736328125 146.13970947265625 C 65.7138671875 141.8144989013672 62.175758361816406 140.48550415039062 59.12647247314453 142.6989288330078 C 57.08964538574219 143.20941162109375 56.37773513793945 144.73141479492188 56.84857177734375 147.31790161132812 C 56.74886703491211 151.23797607421875 57.546775817871094 152.30885314941406 61.4346809387207 153.03765869140625 C 63.86867904663086 154.10313415527344 64.20370483398438 154.21731567382812 61.95335006713867 154.39439392089844 C 60.71363067626953 153.98944091796875 59.082820892333984 153.8485107421875 58.50049591064453 153.6994171142578" stroke-width="1.0" fill="rgb(133, 145, 152)" opacity="0.9411212"/>
    <path d="M 158.63327026367188 152.62030029296875 C 155.94325256347656 149.14059448242188 156.21893310546875 144.5458984375 159.4599609375 141.72998046875 C 162.89151000976562 139.24160766601562 165.489501953125 139.2523956298828 168.34869384765625 142.41696166992188 C 171.32846069335938 145.19752502441406 171.5484619140625 148.48062133789062 168.8179168701172 151.96380615234375 C 166.24179077148438 155.43630981445312 161.8497314453125 155.48277282714844 158.63327026367188 152.62030029296875" stroke-width="1.0" fill="rgb(130, 144, 150)" opacity="0.9697966"/>
    <path d="M 39.817867279052734 122.8462142944336 C 40.09375 121.50308990478516 41.0114860534668 120.26117706298828 41.98724365234375 120.11359405517578 C 43.227989196777344 120.0135269165039 44.42108154296875 120.8627700805664 44.79441452026367 122.41938781738281 C 45.22776412963867 123.97560119628906 44.58029556274414 124.68602752685547 42.56932067871094 124.94630432128906 C 40.58710479736328 125.24180603027344 39.8455810546875 124.4181900024414 39.817867279052734 122.8462142944336" stroke-width="1.0" fill="rgb(33, 45, 28)" opacity="0.97502"/>
    <path d="M 160.25099182128906 151.19818115234375 C 157.87930297851562 149.2080535888672 157.78305053710938 146.87449645996094 159.87710571289062 143.96524047851562 C 161.20042419433594 141.8503875732422 165.16275024414062 141.2510223388672 167.23715209960938 143.0125732421875 C 168.9986114501953 144.98941040039062 168.84060668945312 149.95143127441406 167.2743682861328 151.6576385498047 C 165.03082275390625 153.75010681152344 162.290771484375 153.6478729248047 160.25099182128906 151.19818115234375" stroke-width="1.0" fill="rgb(190, 199, 204)" opacity="0.9977983"/>
  </g>
</svg>
