<?xml version="1.0" ?>
<svg xmlns="http://www.w3.org/2000/svg" version="1.1" width="224" height="224">
  <defs/>
  <g>
    <path d="M 109.4066162109375 75.19196319580078 C 108.68978881835938 74.6439437866211 108.82818603515625 68.95796966552734 109.3348159790039 61.5893669128418 L 109.29651641845703 48.65291213989258 L 112.33145141601562 50.439231872558594 C 116.71778869628906 52.01042175292969 123.03359985351562 58.67325973510742 125.16758728027344 63.3076057434082 C 125.9972915649414 65.52930450439453 127.31378936767578 69.23402404785156 127.44123840332031 71.71517944335938 L 127.34468841552734 76.24497985839844 L 118.55988311767578 75.85289001464844 C 113.91744232177734 76.07142639160156 109.17488861083984 75.62738037109375 109.4066162109375 75.19196319580078" stroke-width="1.0" fill="rgb(224, 184, 7)" opacity="0.993028"/>
    <path d="M 54.996131896972656 83.72978973388672 C 55.3927116394043 79.78999328613281 55.92070388793945 73.35079956054688 56.080745697021484 67.71966552734375 L 56.34371566772461 59.254150390625 L 59.90911865234375 61.482521057128906 C 68.39730834960938 66.07278442382812 73.84152221679688 75.13302612304688 73.7906265258789 84.84722137451172 L 73.95115661621094 91.13831329345703 L 54.297264099121094 90.56436157226562 L 54.996131896972656 83.72978973388672" stroke-width="1.0" fill="rgb(224, 186, 8)" opacity="0.9971916"/>
    <path d="M 55.38728332519531 52.14734649658203 C 55.150970458984375 49.50711441040039 55.62018585205078 49.09196472167969 59.86821746826172 49.05320358276367 C 65.65037536621094 48.57621383666992 66.2320556640625 50.48472213745117 60.77080535888672 53.109832763671875 C 55.59248352050781 55.47780990600586 55.6153450012207 55.55982208251953 55.38728332519531 52.14734649658203" stroke-width="1.0" fill="rgb(230, 184, 15)" opacity="0.98951095"/>
    <path d="M 160.57015991210938 84.05461883544922 C 161.37686157226562 80.2542724609375 162.10540771484375 73.39362335205078 161.9439239501953 68.43802642822266 L 162.24761962890625 59.050655364990234 L 165.7044219970703 61.53355026245117 C 174.22042846679688 65.77745819091797 179.45013427734375 74.83980560302734 179.58607482910156 84.91984558105469 L 180.3057861328125 91.44638061523438 L 160.35464477539062 90.47608947753906 L 160.57015991210938 84.05461883544922" stroke-width="1.0" fill="rgb(224, 184, 7)" opacity="0.9938069"/>
    <path d="M 161.2623291015625 52.602508544921875 C 161.07693481445312 49.811309814453125 161.57257080078125 49.58916091918945 166.05018615722656 49.15016174316406 C 171.60186767578125 48.81685256958008 171.7646484375 50.38006591796875 166.96250915527344 53.19510269165039 C 161.75399780273438 56.07718276977539 161.83990478515625 55.70104217529297 161.2623291015625 52.602508544921875" stroke-width="1.0" fill="rgb(229, 178, 12)" opacity="0.97153753"/>
    <path d="M 147.44320678710938 89.52958679199219 C 145.8265380859375 88.7662124633789 146.5791473388672 80.56649780273438 148.19728088378906 75.10848999023438 C 149.87628173828125 70.00643920898438 154.25405883789062 64.99961853027344 158.7506103515625 62.42165756225586 C 162.68667602539062 59.564781188964844 163.6152801513672 60.98297119140625 162.50448608398438 72.10958862304688 L 162.65658569335938 81.56472778320312 L 159.28585815429688 85.21015930175781 C 155.32846069335938 89.03821563720703 150.74392700195312 90.88622283935547 147.44320678710938 89.52958679199219" stroke-width="0.0" fill="rgb(247, 230, 82)" opacity="0.9930531"/>
    <path d="M 156.93368530273438 52.209747314453125 C 155.00672912597656 50.01070785522461 155.33692932128906 48.87948989868164 159.39723205566406 49.14036178588867 C 162.55099487304688 49.067726135253906 163.2662811279297 49.44205856323242 163.43460083007812 51.082069396972656 C 163.3920440673828 53.63303756713867 159.25852966308594 54.48598861694336 156.93368530273438 52.209747314453125" stroke-width="1.0" fill="rgb(245, 225, 71)" opacity="0.97389054"/>
    <path d="M 90.53409576416016 107.7496337890625 C 90.70166015625 101.74989318847656 91.5318374633789 99.49254608154297 93.18885803222656 99.31214904785156 C 94.19556427001953 98.39582824707031 94.78585815429688 99.8359146118164 94.5234603881836 106.97808837890625 C 94.63944244384766 113.76861572265625 94.07010650634766 115.45059204101562 92.70366668701172 115.55504608154297 C 91.02870178222656 115.48845672607422 90.46211242675781 113.81070709228516 90.53409576416016 107.7496337890625" stroke-width="1.0" fill="rgb(166, 160, 158)" opacity="0.93500906"/>
    <path d="M 145.3411865234375 92.33001708984375 C 144.28762817382812 90.47972869873047 144.35879516601562 90.63619995117188 145.38766479492188 89.33647155761719 C 145.575927734375 87.80540466308594 150.1651611328125 88.20906829833984 163.58175659179688 88.41047668457031 C 178.3004150390625 88.25216674804688 180.83567810058594 87.86994171142578 180.7379913330078 89.53849029541016 C 181.20614624023438 90.47765350341797 180.85560607910156 91.06464385986328 180.51846313476562 92.64466094970703 C 180.13070678710938 92.83655548095703 172.306396484375 93.1892318725586 163.15760803222656 94.75330352783203 C 149.53701782226562 93.50049591064453 145.56427001953125 93.5736083984375 145.3411865234375 92.33001708984375" stroke-width="1.0" fill="rgb(30, 27, 31)" opacity="0.9960232"/>
    <path d="M 39.139732360839844 91.87837982177734 C 39.42987060546875 91.14212036132812 39.70716094970703 90.6216812133789 39.35377502441406 88.9148178100586 C 40.260215759277344 87.953125 49.319854736328125 88.04881286621094 58.266700744628906 88.41085052490234 C 76.16571044921875 87.91215515136719 76.53746795654297 88.0745849609375 75.22537994384766 90.46585083007812 C 75.75067138671875 92.72384643554688 75.72322845458984 93.06597137451172 57.860191345214844 94.46928405761719 C 41.36824035644531 93.3879623413086 39.53539276123047 93.25916290283203 39.139732360839844 91.87837982177734" stroke-width="1.0" fill="rgb(29, 29, 31)" opacity="0.9877949"/>
    <path d="M 65.61316680908203 166.4877166748047 C 60.89602279663086 163.8209228515625 56.16425704956055 162.219970703125 56.500030517578125 161.39190673828125 C 54.80530548095703 159.5140380859375 50.497772216796875 123.0259017944336 50.10948181152344 105.49205780029297 L 51.342613220214844 93.29057312011719 L 59.030338287353516 93.28748321533203 C 68.95962524414062 93.52583312988281 72.40293884277344 93.00135803222656 71.55296325683594 95.52740478515625 C 71.37321472167969 98.2529296875 71.3560791015625 98.97814178466797 73.18559265136719 99.99580383300781 C 76.7396240234375 97.17800903320312 78.28684997558594 99.21898651123047 78.50206756591797 106.25132751464844 C 78.4776840209961 112.5578842163086 79.15126037597656 112.17401885986328 81.76268005371094 113.10026550292969 C 83.93342590332031 111.62498474121094 84.39358520507812 111.44281005859375 84.62604522705078 108.29573822021484 C 84.97700500488281 106.06806945800781 85.07122039794922 103.75872802734375 85.51664733886719 103.17890167236328 C 86.91842651367188 101.77044677734375 92.23876953125 106.07410430908203 91.28611755371094 108.464599609375 C 92.36138916015625 110.86347198486328 93.27640533447266 111.39727020263672 95.74015045166016 109.8609848022461 C 97.39229583740234 108.4714584350586 97.77314758300781 109.1795654296875 109.39205169677734 115.01024627685547 C 112.30317687988281 116.60971069335938 113.41705322265625 118.9655990600586 113.87811279296875 120.05780029296875 C 115.89696502685547 121.0048599243164 115.31584167480469 127.72079467773438 111.31243896484375 136.86216735839844 C 106.13446044921875 149.6235809326172 101.11023712158203 161.49520874023438 97.9499740600586 166.3147735595703 L 96.46089935302734 169.53143310546875 L 73.64418029785156 169.58883666992188 L 65.61316680908203 166.4877166748047" stroke-width="0.0" fill="rgb(173, 174, 176)" opacity="0.9956246"/>
    <path d="M 142.93478393554688 160.00311279296875 L 142.7849884033203 154.29296875 L 175.88458251953125 154.2760009765625 L 176.6824493408203 160.3935089111328 L 176.59225463867188 166.59237670898438 L 142.7371826171875 165.99905395507812 L 142.93478393554688 160.00311279296875" stroke-width="1.0" fill="rgb(80, 146, 33)" opacity="0.99445534"/>
    <path d="M 30.59577178955078 179.5457763671875 C 28.00000762939453 175.12057495117188 28.065696716308594 170.99697875976562 30.63103485107422 167.95932006835938 C 33.15642547607422 166.52951049804688 34.27159881591797 165.18124389648438 39.135894775390625 165.4813995361328 C 98.76122283935547 165.81787109375 186.74505615234375 165.03353881835938 187.35671997070312 165.8517608642578 C 190.01617431640625 168.709716796875 191.7613525390625 173.52505493164062 191.07379150390625 176.30322265625 C 190.12399291992188 182.52471923828125 196.0 182.78990173339844 109.64043426513672 182.86439514160156 C 31.79267120361328 182.54795837402344 30.845993041992188 182.2499542236328 30.59577178955078 179.5457763671875" stroke-width="1.0" fill="rgb(67, 193, 19)" opacity="0.992609"/>
    <path d="M 92.95122528076172 75.293701171875 C 91.24833679199219 73.09689331054688 94.21125793457031 63.105201721191406 98.38998413085938 58.48725891113281 C 100.49288177490234 54.20709991455078 110.82947540283203 49.95086669921875 109.48236083984375 44.78451919555664 C 112.18547058105469 45.69554138183594 109.94303131103516 52.365867614746094 110.03327941894531 60.960723876953125 C 109.45494079589844 70.36083984375 109.99864196777344 73.9859390258789 110.06127166748047 75.66551208496094 C 107.79077911376953 75.09268188476562 93.68872833251953 74.98419189453125 92.95122528076172 75.293701171875" stroke-width="0.0" fill="rgb(246, 220, 63)" opacity="0.9919488"/>
    <path d="M 41.77819061279297 88.38333892822266 C 38.68366241455078 84.38568115234375 45.042850494384766 65.13656616210938 53.19894027709961 64.1783447265625 C 58.587303161621094 60.146278381347656 54.101741790771484 53.90950012207031 57.33753967285156 53.755584716796875 C 58.19618225097656 61.71778106689453 56.65037155151367 85.6771469116211 55.536155700683594 87.89710235595703 C 55.670230865478516 88.02487182617188 42.290740966796875 88.74982452392578 41.77819061279297 88.38333892822266" stroke-width="0.0" fill="rgb(245, 222, 64)" opacity="0.99477005"/>
    <path d="M 152.7298126220703 83.19085693359375 L 152.48489379882812 78.41251373291016 L 162.87753295898438 78.22891998291016 L 162.46981811523438 64.98506164550781 C 161.94223022460938 57.81218338012695 162.04766845703125 51.84708786010742 162.68885803222656 51.65546417236328 C 164.1298065185547 51.84294509887695 164.22259521484375 70.06571197509766 163.17855834960938 80.97865295410156 L 162.53369140625 88.08648681640625 L 152.65292358398438 88.65733337402344 L 152.7298126220703 83.19085693359375" stroke-width="1.0" fill="rgb(242, 211, 47)" opacity="0.9832804"/>
    <path d="M 94.89412689208984 154.1876220703125 C 94.60740661621094 140.99197387695312 95.31163024902344 137.11810302734375 98.84867858886719 133.4993438720703 C 102.19647216796875 129.83229064941406 105.33879852294922 128.26255798339844 110.80656433105469 128.501708984375 C 115.72320556640625 128.3416290283203 118.94418334960938 129.69161987304688 122.36094665527344 133.34896850585938 C 125.4700927734375 137.1971435546875 126.31399536132812 140.97767639160156 126.16839599609375 153.8944854736328 L 126.15264892578125 165.3553009033203 L 95.04312133789062 165.5441131591797 L 94.89412689208984 154.1876220703125" stroke-width="1.0" fill="rgb(31, 27, 29)" opacity="1.0"/>
    <path d="M 72.25973510742188 117.34941864013672 L 71.55250549316406 117.19840240478516 L 71.25662994384766 111.47968292236328 C 70.86158752441406 100.73902893066406 70.40579986572266 99.12098693847656 73.86498260498047 97.72653198242188 C 77.26229858398438 96.30674743652344 78.8192138671875 98.76822662353516 78.84095764160156 104.91067504882812 C 78.39013671875 112.42964172363281 77.97534942626953 111.8232650756836 80.73797607421875 111.5014419555664 C 84.23585510253906 112.20598602294922 83.75721740722656 111.53716278076172 83.79319763183594 106.58956146240234 C 83.48126983642578 101.12703704833984 83.93426513671875 98.7774429321289 85.52570343017578 97.82050323486328 C 88.60761260986328 95.79314422607422 91.50718688964844 98.64289855957031 90.6538314819336 104.68563079833984 C 91.02422332763672 109.75253295898438 90.39346313476562 112.02466583251953 92.21399688720703 111.55154418945312 C 94.98868560791016 112.41604614257812 93.65296936035156 110.13863372802734 93.98825073242188 101.67121887207031 L 94.9305191040039 95.7989730834961 L 109.95467376708984 97.18354034423828 C 119.14599609375 97.46971130371094 124.8695068359375 96.275634765625 125.20074462890625 96.66585540771484 C 126.20035552978516 98.60238647460938 127.225830078125 101.51553344726562 126.90031433105469 106.343994140625 C 125.9481201171875 114.2489242553711 131.6282958984375 113.98004913330078 130.27200317382812 105.35480499267578 C 130.23776245117188 100.2217788696289 131.22003173828125 97.60999298095703 133.64373779296875 97.21637725830078 C 137.01095581054688 98.1203384399414 137.92034912109375 100.12930297851562 137.136474609375 106.2299575805664 C 137.62059020996094 111.8291015625 137.24484252929688 112.11788940429688 140.0293731689453 111.47762298583984 C 143.88421630859375 112.7567367553711 141.15817260742188 110.92146301269531 142.19024658203125 99.21710968017578 C 144.51617431640625 96.83365631103516 146.37283325195312 97.38786315917969 150.37677001953125 98.63385009765625 C 152.6199188232422 100.88822174072266 152.61497497558594 115.65413665771484 151.2457733154297 119.12628173828125 C 146.83592224121094 116.60994720458984 81.20211791992188 115.89045715332031 72.25973510742188 117.34941864013672" stroke-width="0.0" fill="rgb(32, 26, 28)" opacity="1.0"/>
    <path d="M 54.076541900634766 111.612060546875 C 53.61867904663086 110.27323913574219 53.83571243286133 107.69570922851562 54.12998962402344 106.19190216064453 C 55.77277374267578 104.39691162109375 56.317256927490234 104.08193969726562 58.15059280395508 104.77400970458984 C 59.75853729248047 105.46675109863281 60.176841735839844 106.81639099121094 60.06293869018555 109.71321868896484 C 60.06524658203125 113.40690612792969 59.7370719909668 113.9712142944336 57.120765686035156 113.98956298828125 C 54.90707778930664 114.08705139160156 54.01976013183594 113.70536804199219 54.076541900634766 111.612060546875" stroke-width="1.0" fill="rgb(39, 34, 33)" opacity="0.95872384"/>
    <path d="M 54.70611572265625 117.05071258544922 C 52.85903549194336 113.98206329345703 55.16781234741211 111.30528259277344 58.6827392578125 113.2223892211914 C 60.069210052490234 113.69356536865234 60.199562072753906 114.32781982421875 59.687232971191406 115.98515319824219 C 58.62980270385742 118.66324615478516 55.53782653808594 119.20153045654297 54.70611572265625 117.05071258544922" stroke-width="1.0" fill="rgb(71, 142, 25)" opacity="0.9563327"/>
    <path d="M 46.968650817871094 158.82591247558594 C 46.00956726074219 157.73655700683594 42.952056884765625 95.15562438964844 44.470314025878906 94.30428314208984 C 43.6016960144043 92.98103332519531 53.865989685058594 93.48233032226562 56.10899353027344 94.60691833496094 C 57.018131256103516 96.43399047851562 56.99833297729492 99.98051452636719 55.595191955566406 104.7896728515625 C 52.915489196777344 107.6383056640625 53.142459869384766 109.62681579589844 53.50068664550781 111.46336364746094 C 56.43643569946289 125.47467041015625 55.50878143310547 134.9898223876953 55.53989791870117 146.5825653076172 L 55.47296905517578 159.57101440429688 L 51.40357971191406 159.78982543945312 C 49.57795715332031 159.91043090820312 47.5639533996582 159.67462158203125 46.968650817871094 158.82591247558594" stroke-width="0.0" fill="rgb(208, 209, 209)" opacity="1.0"/>
    <path d="M 125.62095642089844 165.14169311523438 C 125.11277770996094 164.19873046875 125.62132263183594 158.32093811035156 125.3404312133789 151.26173400878906 C 125.97955322265625 138.7697296142578 124.58786010742188 135.85775756835938 120.46105194091797 131.69927978515625 C 119.07766723632812 130.55003356933594 116.25038146972656 128.82923889160156 112.43293762207031 128.56822204589844 L 110.51982116699219 126.53536987304688 L 110.0406723022461 116.6513900756836 L 129.10935974121094 116.78057098388672 L 149.48785400390625 116.86096954345703 L 148.98260498046875 106.5534439086914 C 149.0504913330078 99.72296905517578 148.92332458496094 94.1409683227539 149.7796630859375 93.53732299804688 C 150.876953125 93.28852844238281 152.31314086914062 93.3163070678711 156.6220703125 93.39854431152344 C 161.93557739257812 93.11361694335938 163.61529541015625 93.164794921875 163.92376708984375 94.3486557006836 C 165.39291381835938 96.01296997070312 165.27908325195312 96.7349624633789 164.76553344726562 117.29756927490234 C 163.81459045410156 128.4444122314453 162.8956298828125 142.62277221679688 164.310791015625 147.18350219726562 L 163.6914520263672 156.366943359375 L 155.490234375 156.26498413085938 L 148.446044921875 156.36965942382812 L 148.80030822753906 160.83709716796875 L 148.78268432617188 165.63815307617188 L 138.12472534179688 165.77978515625 C 128.12196350097656 165.67288208007812 125.95809936523438 165.4672088623047 125.62095642089844 165.14169311523438" stroke-width="0.0" fill="rgb(209, 211, 213)" opacity="0.9849012"/>
    <path d="M 43.172279357910156 161.7530517578125 L 42.86248779296875 156.16055297851562 L 72.01414489746094 156.18875122070312 L 71.95111083984375 165.6370391845703 L 57.50498962402344 167.09716796875 L 43.42770004272461 165.44305419921875 L 43.172279357910156 161.7530517578125" stroke-width="1.0" fill="rgb(76, 150, 31)" opacity="1.0"/>
    <path d="M 35.31428527832031 184.39569091796875 C 34.43701171875 183.94210815429688 32.682884216308594 182.85360717773438 32.353981018066406 181.92547607421875 C 31.32440185546875 180.757568359375 36.30199432373047 180.73678588867188 109.77356719970703 180.05880737304688 C 163.03614807128906 180.48928833007812 188.57879638671875 180.93154907226562 188.77813720703125 181.57040405273438 C 188.5826873779297 182.17306518554688 186.79344177246094 182.87664794921875 185.6195068359375 183.57745361328125 C 183.15011596679688 186.00128173828125 177.34152221679688 185.65406799316406 110.5170669555664 185.61163330078125 C 52.19334030151367 185.57888793945312 37.86680603027344 186.08688354492188 35.31428527832031 184.39569091796875" stroke-width="1.0" fill="rgb(83, 128, 29)" opacity="0.95465785"/>
    <path d="M 94.13536071777344 66.65341186523438 C 94.00022888183594 63.69876480102539 103.7258529663086 51.35856628417969 105.49584197998047 52.51274871826172 C 105.8874740600586 52.626441955566406 106.25218963623047 52.393348693847656 106.45528411865234 51.77751922607422 C 106.23662567138672 51.18421936035156 106.4400405883789 50.83832550048828 106.83123779296875 51.09262466430664 C 107.02692413330078 51.468589782714844 106.56141662597656 53.49917221069336 105.60459899902344 55.6529655456543 C 104.7458724975586 57.665164947509766 103.57237243652344 61.09676742553711 102.94706726074219 63.1035041809082 C 101.9899673461914 66.55168151855469 101.7387924194336 66.8054428100586 98.08433532714844 67.15122985839844 C 96.11426544189453 67.38885498046875 94.22367858886719 67.36175537109375 94.13536071777344 66.65341186523438" stroke-width="1.0" fill="rgb(250, 239, 104)" opacity="0.9946647"/>
    <path d="M 102.85809326171875 40.31930923461914 C 101.96683502197266 39.323204040527344 104.14446258544922 38.27384948730469 106.61234283447266 38.583343505859375 C 117.75837707519531 37.913116455078125 120.38432312011719 40.320499420166016 110.86038970947266 43.87322235107422 C 108.58319854736328 46.05779266357422 107.27552795410156 43.86982727050781 102.85809326171875 40.31930923461914" stroke-width="1.0" fill="rgb(230, 199, 45)" opacity="0.9815848"/>
    <path d="M 41.59620666503906 79.34999084472656 C 41.608551025390625 79.30353546142578 42.16583251953125 77.40924835205078 42.644874572753906 75.24171447753906 C 44.31378936767578 70.39768981933594 48.94839859008789 64.16348266601562 53.19237518310547 62.07373809814453 L 56.04978561401367 60.436283111572266 L 53.96624755859375 65.24336242675781 C 52.364341735839844 68.15380859375 50.99113082885742 72.30874633789062 50.38967514038086 75.17640686035156 L 49.475791931152344 79.83697509765625 L 45.64146423339844 79.7899398803711 C 43.067588806152344 79.72462463378906 41.36656951904297 79.58489990234375 41.59620666503906 79.34999084472656" stroke-width="1.0" fill="rgb(250, 238, 100)" opacity="0.9628033"/>
    <path d="M 51.607791900634766 52.48870086669922 C 48.51167297363281 50.190067291259766 49.377845764160156 49.061737060546875 53.37362289428711 49.26010513305664 C 56.933921813964844 49.11297607421875 57.57830810546875 49.29916000366211 56.84041213989258 51.06449508666992 C 56.480224609375 53.6580924987793 54.9731559753418 54.580039978027344 51.607791900634766 52.48870086669922" stroke-width="1.0" fill="rgb(244, 228, 75)" opacity="0.9494335"/>
    <path d="M 116.2181396484375 150.17137145996094 C 114.85102081298828 148.9815673828125 115.72152709960938 146.21116638183594 117.76044464111328 146.099609375 C 119.89397430419922 145.9106903076172 121.22840881347656 149.36402893066406 119.08428192138672 150.26060485839844 C 118.4381103515625 150.69020080566406 117.15242004394531 150.43411254882812 116.2181396484375 150.17137145996094" stroke-width="1.0" fill="rgb(225, 236, 249)" opacity="0.97071123"/>
    <path d="M 113.8909912109375 111.47174835205078 C 113.82312774658203 110.63719940185547 114.13987731933594 108.98653411865234 113.89004516601562 105.61751556396484 C 115.20968627929688 95.69569396972656 108.24559020996094 93.78211975097656 104.87034606933594 102.91560363769531 C 105.09766387939453 110.10637664794922 104.43155670166016 108.59014129638672 101.11685180664062 93.16494750976562 C 99.92301177978516 86.0228500366211 98.99385070800781 79.89712524414062 99.50850677490234 80.50115203857422 C 100.20114135742188 79.8399658203125 106.10635375976562 79.23198699951172 113.36474609375 78.92505645751953 L 126.48396301269531 79.93206787109375 L 126.81684875488281 98.87442016601562 L 121.93160247802734 96.69368743896484 C 120.42341613769531 98.11265563964844 120.01417541503906 98.49992370605469 120.19703674316406 103.33714294433594 C 119.7365493774414 107.2292251586914 119.88645935058594 110.1901626586914 120.24858856201172 111.36861419677734 C 118.37158966064453 111.39484405517578 115.12031555175781 111.37788391113281 113.8909912109375 111.47174835205078" stroke-width="0.0" fill="rgb(175, 177, 179)" opacity="1.0"/>
    <path d="M 43.19535446166992 156.4011688232422 C 43.09101867675781 156.03280639648438 43.30043411254883 141.70428466796875 43.34528732299805 124.22127532958984 L 43.02519226074219 93.63017272949219 L 49.38595962524414 93.53028869628906 L 48.31983184814453 156.55352783203125 L 45.9638557434082 156.36376953125 C 45.169315338134766 156.4733428955078 43.88319778442383 156.20602416992188 43.19535446166992 156.4011688232422" stroke-width="1.0" fill="rgb(234, 235, 236)" opacity="0.9668543"/>
    <path d="M 148.72622680664062 142.7319793701172 C 148.9188995361328 135.40354919433594 149.11129760742188 121.57843017578125 149.23294067382812 112.32706451416016 L 150.13076782226562 95.09915161132812 L 155.29824829101562 95.12682342529297 L 155.3415985107422 155.86956787109375 L 148.6537628173828 155.479736328125 L 148.72622680664062 142.7319793701172" stroke-width="1.0" fill="rgb(239, 238, 240)" opacity="0.9677993"/>
    <path d="M 160.99163818359375 154.97625732421875 C 161.30563354492188 154.48086547851562 161.4755096435547 144.8404541015625 161.34115600585938 133.37815856933594 C 161.303955078125 118.0626220703125 161.57568359375 112.41450500488281 160.85775756835938 112.18192291259766 C 159.32762145996094 110.1276626586914 159.63134765625 106.25376892089844 160.80372619628906 103.92552947998047 C 161.90284729003906 103.22930145263672 162.15872192382812 100.43746185302734 162.25628662109375 97.70069885253906 L 161.787841796875 93.29773712158203 L 176.69003295898438 93.39366912841797 L 176.735107421875 156.369384765625 L 169.18161010742188 156.23294067382812 C 162.70155334472656 156.39405822753906 161.7386932373047 156.60401916503906 160.99163818359375 154.97625732421875" stroke-width="0.0" fill="rgb(172, 175, 177)" opacity="0.97585"/>
    <path d="M 90.64639282226562 79.42119598388672 C 88.44363403320312 75.54325103759766 90.57677459716797 74.89361572265625 110.10919189453125 75.22889709472656 C 130.72377014160156 74.68209075927734 132.2616729736328 75.08381652832031 128.24691772460938 79.9742660522461 C 126.80191040039062 80.11933898925781 92.3697280883789 80.2465591430664 90.64639282226562 79.42119598388672" stroke-width="1.0" fill="rgb(35, 31, 29)" opacity="0.97202045"/>
    <path d="M 100.60640716552734 105.57615661621094 C 100.86209106445312 102.81798553466797 100.81458282470703 98.94246673583984 100.18103790283203 98.68843078613281 C 99.82276153564453 96.5955581665039 96.9394760131836 96.87162780761719 94.63296508789062 99.1142807006836 C 92.76412200927734 100.24043273925781 92.90776062011719 99.58834075927734 93.14144897460938 90.4326400756836 L 93.06851196289062 80.02839660644531 L 109.25115966796875 80.30661010742188 L 109.42134857177734 88.33161926269531 C 109.83145904541016 95.58304595947266 109.29884338378906 96.53509521484375 108.13470458984375 98.21424865722656 C 107.1399917602539 99.5200424194336 106.65538787841797 101.41604614257812 106.72518920898438 106.37033081054688 C 106.75767517089844 111.85636138916016 106.55360412597656 111.7496337890625 104.08381652832031 111.6059341430664 L 100.36251068115234 111.33778381347656 L 100.60640716552734 105.57615661621094" stroke-width="1.0" fill="rgb(213, 213, 214)" opacity="1.0"/>
    <path d="M 160.09841918945312 111.51703643798828 C 158.8885955810547 106.06005859375 162.31539916992188 102.39241790771484 165.07437133789062 105.4201889038086 C 167.547119140625 108.4677963256836 166.3112335205078 113.7762222290039 162.69520568847656 113.94196319580078 C 160.8442840576172 113.71883392333984 159.70220947265625 112.62173461914062 160.09841918945312 111.51703643798828" stroke-width="1.0" fill="rgb(41, 32, 34)" opacity="0.95709795"/>
    <path d="M 160.61920166015625 116.89543151855469 C 158.5579071044922 113.70074462890625 161.23483276367188 110.96613311767578 164.8134002685547 112.77406311035156 C 165.9823760986328 113.1220474243164 166.18893432617188 113.91700744628906 165.7247314453125 115.78034973144531 C 164.29666137695312 118.4508056640625 161.8204345703125 119.30943298339844 160.61920166015625 116.89543151855469" stroke-width="1.0" fill="rgb(71, 140, 24)" opacity="0.9495812"/>
  </g>
</svg>
