<?xml version="1.0" ?>
<svg xmlns="http://www.w3.org/2000/svg" version="1.1" width="224" height="224">
  <defs/>
  <g>
    <path d="M 50.37051010131836 122.58168029785156 L 44.63319396972656 118.76107025146484 L 44.607032775878906 105.1758804321289 C 44.55396270751953 95.68814086914062 44.6177978515625 92.02799224853516 44.68658447265625 90.62705993652344 C 46.713714599609375 90.02362060546875 57.39193344116211 86.1618881225586 57.618465423583984 86.26372528076172 C 58.194175720214844 85.56616973876953 61.10395050048828 85.5019760131836 62.87858200073242 85.54863739013672 C 66.59843444824219 86.24490356445312 67.45098876953125 86.68669128417969 67.26046752929688 84.267822265625 C 67.39216613769531 82.90996551513672 68.56942749023438 81.5385971069336 70.7935791015625 80.58790588378906 C 72.38475036621094 79.6975326538086 74.23146057128906 78.95372772216797 74.59513854980469 78.94834899902344 C 75.69273376464844 78.82870483398438 77.36964416503906 81.03076934814453 77.67594909667969 83.37598419189453 C 78.1875228881836 85.74882507324219 78.61847686767578 86.4974136352539 79.7104721069336 86.33316802978516 C 81.56753540039062 86.57637023925781 81.96465301513672 86.34806060791016 81.64297485351562 81.98504638671875 L 81.89430236816406 75.56765747070312 L 141.59498596191406 76.13055419921875 L 141.7526092529297 81.38848114013672 C 141.4061737060547 86.00328063964844 141.97802734375 86.21537780761719 143.27122497558594 86.4031753540039 C 145.13690185546875 86.49151611328125 145.61903381347656 86.99262237548828 145.0131072998047 84.58331298828125 C 144.89376831054688 82.74442291259766 145.223876953125 81.43073272705078 146.29249572753906 80.37376403808594 C 148.1812744140625 78.79032897949219 147.99253845214844 78.34662628173828 152.44134521484375 80.28347778320312 C 154.59934997558594 81.63359069824219 155.76840209960938 82.73210144042969 155.805419921875 84.19361877441406 C 155.7524871826172 86.04511260986328 156.31292724609375 86.42322540283203 159.69268798828125 85.90534973144531 C 162.0604248046875 85.5679702758789 164.7991485595703 85.43981170654297 165.63426208496094 86.27713012695312 C 166.29833984375 86.20165252685547 176.71368408203125 89.73002624511719 178.68704223632812 90.59832000732422 C 178.78150939941406 91.6290054321289 178.7337646484375 95.31787872314453 178.5883331298828 105.16665649414062 L 178.57443237304688 119.31729888916016 L 171.6419677734375 121.2430648803711 C 163.51004028320312 117.6890869140625 58.470855712890625 118.37255859375 50.37051010131836 122.58168029785156" stroke-width="0.0" fill="rgb(250, 208, 91)" opacity="0.994032"/>
    <path d="M 86.32769775390625 86.64024353027344 C 86.96980285644531 79.05807495117188 91.76956939697266 79.56109619140625 91.89649963378906 87.30976104736328 L 91.93821716308594 91.40702056884766 L 86.61276245117188 91.15199279785156 L 86.32769775390625 86.64024353027344" stroke-width="1.0" fill="rgb(38, 35, 36)" opacity="0.99600476"/>
    <path d="M 131.01979064941406 86.79715728759766 C 131.63648986816406 79.03068542480469 136.65399169921875 79.47428131103516 136.57969665527344 87.12818145751953 L 136.44139099121094 91.21898651123047 L 131.22535705566406 91.24794006347656 L 131.01979064941406 86.79715728759766" stroke-width="1.0" fill="rgb(40, 37, 35)" opacity="0.99089426"/>
    <path d="M 81.49714660644531 107.97330474853516 L 81.51339721679688 95.48762512207031 L 90.62101745605469 95.35371398925781 C 100.47674560546875 95.16680145263672 101.52780151367188 94.9329833984375 101.31522369384766 92.0742416381836 C 101.4240951538086 89.07476806640625 103.58969116210938 85.84310150146484 106.62913513183594 83.42183685302734 C 108.80817413330078 82.71961975097656 110.74315643310547 81.75536346435547 111.44141387939453 81.3726577758789 C 115.51701354980469 81.71107482910156 121.81061553955078 87.88975524902344 121.63976287841797 91.72782135009766 C 121.35508728027344 95.21075439453125 122.48058319091797 95.63714599609375 131.60423278808594 95.4234848022461 C 137.28671264648438 95.44036865234375 140.33187866210938 95.6444320678711 141.30665588378906 96.02876281738281 C 141.3948974609375 96.83247375488281 141.31040954589844 100.61544799804688 141.23422241210938 108.63633728027344 L 141.54632568359375 120.74613952636719 L 81.51360321044922 120.86299133300781 L 81.49714660644531 107.97330474853516" stroke-width="0.0" fill="rgb(223, 168, 52)" opacity="0.98116165"/>
    <path d="M 44.486183166503906 89.2227554321289 L 44.42301940917969 87.03352355957031 L 52.60648727416992 86.31381225585938 C 57.121307373046875 86.10877990722656 65.63105010986328 85.8614273071289 71.44873046875 86.21365356445312 L 82.01191711425781 86.35355377197266 L 82.12007141113281 90.69840240478516 L 44.613990783691406 91.36528015136719 L 44.486183166503906 89.2227554321289" stroke-width="1.0" fill="rgb(206, 152, 49)" opacity="0.99594665"/>
    <path d="M 141.25965881347656 88.3850326538086 L 141.29295349121094 86.4514389038086 L 151.849609375 86.1075210571289 C 157.8512420654297 86.010498046875 165.97520446777344 86.26628875732422 170.53866577148438 86.41810607910156 L 178.61532592773438 86.8517837524414 L 178.4879150390625 91.26002502441406 L 141.25033569335938 90.5938720703125 L 141.25965881347656 88.3850326538086" stroke-width="1.0" fill="rgb(206, 153, 50)" opacity="0.9988177"/>
    <path d="M 81.53577423095703 73.80406951904297 L 81.61913299560547 71.60289001464844 L 87.88592529296875 71.02261352539062 C 96.89642333984375 70.81334686279297 127.61253356933594 70.89466094970703 135.2187957763672 71.1558837890625 L 141.74807739257812 71.36410522460938 L 141.93016052246094 76.03711700439453 L 81.79359436035156 76.41324615478516 L 81.53577423095703 73.80406951904297" stroke-width="1.0" fill="rgb(209, 155, 51)" opacity="0.9958133"/>
    <path d="M 104.79185485839844 106.58448791503906 C 104.57209777832031 92.83049011230469 104.70542907714844 90.97648620605469 105.94624328613281 88.97135925292969 C 109.10551452636719 85.23953247070312 113.5313720703125 85.02478790283203 116.62174224853516 88.67231750488281 C 117.89494323730469 90.46821594238281 118.03180694580078 91.88896942138672 117.84053039550781 106.2792739868164 L 117.93404388427734 122.29998779296875 L 104.82386779785156 122.20750427246094 L 104.79185485839844 106.58448791503906" stroke-width="1.0" fill="rgb(32, 31, 33)" opacity="0.992958"/>
    <path d="M 67.44699096679688 83.96349334716797 C 67.22117614746094 82.5384750366211 67.91606140136719 80.99320983886719 69.15479278564453 79.39567565917969 C 72.30899047851562 76.6350326538086 76.7414321899414 77.83084869384766 78.12442016601562 81.8013916015625 C 79.42063903808594 86.49730682373047 79.18223571777344 86.54998016357422 73.00294494628906 86.43185424804688 L 67.0344009399414 86.19971466064453 L 67.44699096679688 83.96349334716797" stroke-width="1.0" fill="rgb(70, 70, 69)" opacity="0.9966391"/>
    <path d="M 44.51261901855469 83.96138000488281 C 44.608367919921875 80.73843383789062 47.575477600097656 77.64863586425781 50.666664123535156 77.78863525390625 C 53.6961784362793 77.62871551513672 56.199745178222656 80.52616119384766 56.367698669433594 83.87931823730469 L 56.005760192871094 86.69786834716797 L 44.39020538330078 86.74517059326172 L 44.51261901855469 83.96138000488281" stroke-width="1.0" fill="rgb(72, 71, 67)" opacity="0.9915235"/>
    <path d="M 144.80953979492188 85.53862762451172 C 144.46060180664062 83.423583984375 146.02975463867188 79.48098754882812 147.46005249023438 78.6590347290039 C 151.04620361328125 76.38868713378906 156.0890655517578 79.30093383789062 156.12942504882812 83.94880676269531 L 156.1256103515625 86.08086395263672 L 150.5741424560547 86.33678436279297 C 146.1000213623047 86.59752655029297 144.44129943847656 86.6310043334961 144.80953979492188 85.53862762451172" stroke-width="1.0" fill="rgb(72, 71, 69)" opacity="0.9918636"/>
    <path d="M 167.0175018310547 83.65642547607422 C 167.27911376953125 79.26360321044922 171.2374725341797 76.61743927001953 175.28341674804688 78.42513275146484 C 176.86865234375 78.98554229736328 178.8729248046875 82.72394561767578 178.69781494140625 85.2193832397461 C 178.73756408691406 86.59635162353516 178.0148162841797 86.75511932373047 172.62904357910156 86.74100494384766 L 166.96783447265625 86.58344268798828 L 167.0175018310547 83.65642547607422" stroke-width="1.0" fill="rgb(73, 71, 67)" opacity="0.9940103"/>
    <path d="M 81.56863403320312 71.51997375488281 C 81.65021514892578 71.13993072509766 82.042724609375 69.7940444946289 82.52544403076172 68.27071380615234 C 85.19467163085938 62.542816162109375 92.85718536376953 64.00413513183594 92.75038146972656 70.35985565185547 C 92.87877655029297 71.90416717529297 92.18988037109375 72.06615447998047 87.18223571777344 71.89686584472656 C 83.97560119628906 71.90692138671875 81.35636901855469 71.78813934326172 81.56863403320312 71.51997375488281" stroke-width="1.0" fill="rgb(72, 71, 69)" opacity="0.9942355"/>
    <path d="M 102.85453033447266 69.98451232910156 C 102.85657501220703 65.37511444091797 106.92161560058594 61.45536804199219 111.77699279785156 61.44771194458008 C 116.38566589355469 61.383155822753906 120.50590515136719 65.33963012695312 120.53055572509766 69.90079498291016 C 120.6766586303711 71.56267547607422 120.23177337646484 71.68407440185547 111.66574096679688 71.65081787109375 C 103.2152328491211 71.7734603881836 102.64208221435547 71.64219665527344 102.85453033447266 69.98451232910156" stroke-width="1.0" fill="rgb(69, 69, 67)" opacity="0.9993411"/>
    <path d="M 130.96640014648438 71.62165832519531 C 130.09161376953125 70.72178649902344 131.37322998046875 66.17752838134766 132.69613647460938 65.60186767578125 C 134.3614501953125 64.23576354980469 138.46534729003906 64.43576049804688 139.65966796875 66.06407165527344 C 140.36158752441406 66.79449462890625 141.2795867919922 68.43281555175781 141.44711303710938 69.64045715332031 L 142.0575714111328 71.61251831054688 L 136.6010284423828 71.78514862060547 C 133.4873504638672 71.96743774414062 130.94894409179688 71.85173034667969 130.96640014648438 71.62165832519531" stroke-width="1.0" fill="rgb(72, 71, 69)" opacity="0.9926943"/>
    <path d="M 28.593704223632812 134.4112548828125 L 28.518898010253906 118.9957504272461 L 195.2014617919922 119.01873779296875 L 195.20037841796875 149.88453674316406 L 28.530990600585938 149.8444061279297 L 28.593704223632812 134.4112548828125" stroke-width="1.0" fill="rgb(136, 90, 54)" opacity="0.99684775"/>
    <path d="M 28.051834106445312 154.2689208984375 L 28.00000762939453 146.07080078125 L 195.98123168945312 146.05331420898438 L 196.0 162.41766357421875 L 28.007614135742188 162.61683654785156 L 28.051834106445312 154.2689208984375" stroke-width="1.0" fill="rgb(187, 128, 60)" opacity="0.87453145"/>
  </g>
</svg>
