<?xml version="1.0" ?>
<svg xmlns="http://www.w3.org/2000/svg" version="1.1" width="224" height="224">
  <defs/>
  <g>
    <path d="M 66.32652282714844 193.32852172851562 C 63.88534164428711 192.68687438964844 61.98252487182617 185.4422607421875 55.19485092163086 164.667724609375 C 50.27751922607422 149.4835205078125 45.30449676513672 135.77682495117188 45.64757537841797 133.8519287109375 C 45.989288330078125 127.77507781982422 47.19873046875 125.56715393066406 52.39252853393555 122.86914825439453 C 57.69178771972656 121.40082550048828 58.00047302246094 120.29471588134766 53.31782150268555 120.30279541015625 C 48.679039001464844 120.09237670898438 40.280418395996094 114.55500793457031 37.11608123779297 109.83495330810547 C 29.378250122070312 98.17919921875 30.686134338378906 87.02642822265625 39.94700622558594 80.51580810546875 C 45.02143096923828 77.04008483886719 54.34183120727539 76.91180419921875 58.891361236572266 80.38578033447266 C 60.6514778137207 82.07095336914062 62.617279052734375 83.97785949707031 63.608524322509766 84.56209564208984 C 65.37486267089844 88.387451171875 65.47184753417969 85.38996124267578 65.02272033691406 74.11876678466797 C 64.92393493652344 60.2305908203125 66.89529418945312 56.53678512573242 72.12922668457031 52.328548431396484 C 77.49842834472656 48.83611297607422 84.22161865234375 48.96784210205078 90.70164489746094 55.1175537109375 L 93.4413070678711 58.91964340209961 L 93.68763732910156 52.40336227416992 C 93.10248565673828 42.03053665161133 95.82498168945312 36.43196105957031 102.34571075439453 32.37017822265625 C 109.97525024414062 27.99999237060547 119.17770385742188 28.442230224609375 125.8671875 34.24249267578125 C 130.5565185546875 38.362037658691406 132.7227783203125 42.1843376159668 132.54420471191406 50.65560531616211 L 132.40211486816406 58.424556732177734 L 134.99842834472656 54.77032470703125 C 139.230224609375 50.86793899536133 141.861083984375 49.9135856628418 146.10269165039062 50.19046401977539 C 151.18081665039062 50.31127166748047 156.550048828125 53.66414260864258 159.13624572753906 59.08454513549805 C 161.01669311523438 63.075504302978516 161.10061645507812 65.66992950439453 160.92645263671875 74.05723571777344 L 160.66497802734375 85.03685760498047 L 165.2840576171875 80.93153381347656 C 169.5401611328125 78.2279052734375 170.71778869628906 77.74730682373047 175.98179626464844 77.4003677368164 C 182.74746704101562 77.85274505615234 186.4232177734375 79.78529357910156 189.85757446289062 84.24140167236328 C 193.47158813476562 88.6106185913086 194.62176513671875 93.71759796142578 193.190673828125 99.89057922363281 C 191.80465698242188 108.91358184814453 182.55966186523438 118.27840423583984 174.6107635498047 120.14049530029297 C 168.40383911132812 120.7235107421875 167.5972900390625 120.68524932861328 169.8652801513672 122.29916381835938 C 175.4222412109375 124.88377380371094 177.55799865722656 128.60238647460938 177.9607696533203 133.58889770507812 C 177.77508544921875 137.14747619628906 168.72178649902344 161.00582885742188 159.65399169921875 188.1688690185547 C 156.2918243408203 196.0 158.16400146484375 195.61221313476562 110.51599884033203 195.14590454101562 C 71.95584106445312 195.42041015625 68.25462341308594 195.39334106445312 66.32652282714844 193.32852172851562" stroke-width="1.0" fill="rgb(1, 1, 2)" opacity="0.9915993"/>
    <path d="M 75.47892761230469 182.59210205078125 C 74.66117095947266 180.49630737304688 64.22381591796875 148.3123016357422 63.75926208496094 146.5348358154297 C 64.27435302734375 146.2510528564453 85.66532897949219 146.22171020507812 111.87036895751953 146.39105224609375 C 138.43896484375 146.2104949951172 158.92384338378906 146.18174743652344 159.1840362548828 146.76547241210938 C 159.06732177734375 147.41226196289062 156.36492919921875 155.89854431152344 152.95486450195312 165.58226013183594 L 146.826416015625 184.06732177734375 L 111.9039306640625 183.97003173828125 C 78.92584228515625 184.22567749023438 76.37791442871094 184.49546813964844 75.47892761230469 182.59210205078125" stroke-width="1.0" fill="rgb(252, 254, 254)" opacity="0.9991966"/>
    <path d="M 59.21245574951172 136.5098876953125 C 58.102256774902344 134.79586791992188 58.23540496826172 135.095458984375 58.74554443359375 132.49050903320312 C 60.05082702636719 130.99618530273438 65.49891662597656 131.30795288085938 112.9783706665039 131.2837677001953 C 165.14898681640625 131.19261169433594 165.81610107421875 130.73263549804688 164.74253845214844 134.43380737304688 C 165.78750610351562 137.5792236328125 164.94387817382812 136.96511840820312 113.11750030517578 137.0178985595703 C 82.40186309814453 136.98202514648438 59.61660385131836 137.268310546875 59.21245574951172 136.5098876953125" stroke-width="1.0" fill="rgb(253, 254, 254)" opacity="0.997588"/>
    <path d="M 70.24333190917969 120.62260437011719 C 70.23216247558594 119.57363891601562 70.15263366699219 118.09342956542969 68.68997192382812 117.89854431152344 C 69.31819152832031 113.88035583496094 64.09796905517578 108.46125030517578 57.38890075683594 108.02222442626953 C 50.56303405761719 106.2566909790039 46.58935546875 101.85235595703125 45.53901672363281 96.8854751586914 C 44.670616149902344 90.28778839111328 49.47025680541992 88.62586975097656 55.69569396972656 94.6583023071289 C 61.836612701416016 101.03734588623047 64.8436279296875 102.27896118164062 71.81047058105469 102.65826416015625 L 77.66456604003906 102.46212768554688 L 77.57444763183594 83.84405517578125 C 77.08041381835938 73.28169250488281 77.46235656738281 64.39883422851562 78.95667266845703 64.11297607421875 C 80.81941223144531 62.35508728027344 83.2401351928711 63.95864486694336 87.3306655883789 70.53699493408203 L 93.55520629882812 77.4362564086914 L 93.51931762695312 120.97830200195312 L 82.41956329345703 120.77735900878906 C 76.10848999023438 121.30784606933594 70.93186950683594 121.04439544677734 70.24333190917969 120.62260437011719" stroke-width="1.0" fill="rgb(253, 254, 254)" opacity="0.99986327"/>
    <path d="M 105.4183120727539 119.86192321777344 C 105.40754699707031 119.18012237548828 105.47219848632812 102.13693237304688 105.29898834228516 82.3122787475586 L 105.63574981689453 46.24893569946289 L 108.3716049194336 43.96678924560547 C 111.51284790039062 41.56005096435547 113.98859405517578 41.65618133544922 117.83294677734375 44.42058181762695 L 120.97530364990234 47.39096450805664 L 120.99954223632812 83.779296875 L 120.87388610839844 121.2929916381836 L 113.61438751220703 121.03326416015625 C 108.4766616821289 121.13517761230469 106.16116333007812 121.01984405517578 105.4183120727539 119.86192321777344" stroke-width="1.0" fill="rgb(253, 254, 254)" opacity="0.99986005"/>
    <path d="M 132.7080535888672 98.12781524658203 L 132.59707641601562 77.06824493408203 L 138.652099609375 69.91051483154297 C 147.1579132080078 59.84675216674805 148.75738525390625 60.208858489990234 148.51051330566406 83.1371841430664 C 148.41786193847656 93.97478485107422 148.49209594726562 102.79730987548828 148.48887634277344 102.80288696289062 C 149.22232055664062 103.16685485839844 155.00570678710938 102.9424819946289 158.55401611328125 101.90065002441406 C 161.5498046875 101.26750946044922 165.1012420654297 98.92291259765625 168.32838439941406 95.5064926147461 C 172.96640014648438 91.36640930175781 175.14193725585938 90.56513214111328 177.49374389648438 90.87043762207031 C 179.3441162109375 91.49996948242188 180.09255981445312 92.29071044921875 180.64996337890625 95.1339111328125 C 180.59823608398438 97.5323257446289 179.784912109375 98.96532440185547 176.36251831054688 103.32056427001953 C 173.65621948242188 105.82146453857422 170.6170654296875 107.48368072509766 169.6363983154297 108.13751220703125 C 164.6824951171875 107.96945190429688 159.89337158203125 110.86888885498047 157.64273071289062 116.00174713134766 L 156.1493682861328 120.66091918945312 L 132.7459259033203 120.94969177246094 L 132.7080535888672 98.12781524658203" stroke-width="1.0" fill="rgb(253, 254, 254)" opacity="0.9995049"/>
  </g>
</svg>
