<?xml version="1.0" ?>
<svg xmlns="http://www.w3.org/2000/svg" version="1.1" width="224" height="224">
  <defs/>
  <g>
    <path d="M 44.801597595214844 27.99999237060547 C 89.60079956054688 27.99999237060547 134.4008026123047 27.99999237060547 179.20001220703125 27.99999237060547 C 188.64959716796875 28.415992736816406 195.58480834960938 35.35279846191406 196.0 44.80159378051758 C 196.0 89.60079956054688 196.0 134.4008026123047 196.0 179.1999969482422 C 195.58480834960938 188.6479949951172 188.64801025390625 195.58480834960938 179.20001220703125 196.0 C 134.4008026123047 196.0 89.60079956054688 196.0 44.801597595214844 196.0 C 35.35279846191406 195.58480834960938 28.416000366210938 188.64959716796875 28.0 179.1999969482422 C 28.0 134.4008026123047 28.0 89.60079956054688 28.0 44.80159378051758 C 28.415199279785156 35.35118865966797 35.35120391845703 28.415191650390625 44.801597595214844 27.99999237060547 C 44.801597595214844 27.99999237060547 44.801597595214844 27.99999237060547 44.801597595214844 27.99999237060547" stroke-width="0.0" fill="rgb(25, 144, 167)" opacity="1.0"/>
    <path d="M 44.795196533203125 33.60399627685547 C 89.59600067138672 33.60399627685547 134.39599609375 33.60399627685547 179.19680786132812 33.60399627685547 C 185.59600830078125 34.026390075683594 189.9720001220703 38.40959930419922 190.3944091796875 44.80719757080078 C 190.3944091796875 89.60559844970703 190.3944091796875 134.40480041503906 190.3944091796875 179.20318603515625 C 189.9720001220703 185.60079956054688 185.59600830078125 189.98399353027344 179.19680786132812 190.40640258789062 C 134.39599609375 190.40640258789062 89.59600067138672 190.40640258789062 44.795196533203125 190.40640258789062 C 38.39680480957031 189.98399353027344 34.017601013183594 185.60159301757812 33.59440612792969 179.20318603515625 C 33.59440612792969 134.40480041503906 33.59440612792969 89.60559844970703 33.59440612792969 44.80719757080078 C 34.017601013183594 38.40879821777344 38.39680480957031 34.026390075683594 44.795196533203125 33.60399627685547 C 44.795196533203125 33.60399627685547 44.795196533203125 33.60399627685547 44.795196533203125 33.60399627685547" stroke-width="0.0" fill="rgb(25, 144, 167)" opacity="1.0"/>
    <path d="M 117.59920501708984 117.59919738769531 C 117.59920501708984 140.0 117.59920501708984 162.39999389648438 117.59920501708984 184.80081176757812 C 138.13279724121094 184.80081176757812 158.66639709472656 184.80081176757812 179.20001220703125 184.80081176757812 C 182.55120849609375 184.35919189453125 184.3592071533203 182.5511932373047 184.80081176757812 179.1999969482422 C 184.80081176757812 158.66639709472656 184.80081176757812 138.13279724121094 184.80081176757812 117.59919738769531 C 162.39999389648438 117.59919738769531 140.0 117.59919738769531 117.59920501708984 117.59919738769531" stroke-width="0.0" fill="rgb(143, 223, 238)" opacity="1.0"/>
    <path d="M 39.20079803466797 117.59919738769531 C 39.20079803466797 138.13279724121094 39.20079803466797 158.66639709472656 39.20079803466797 179.1999969482422 C 39.64240264892578 182.55279541015625 41.44960021972656 184.3599853515625 44.801597595214844 184.80081176757812 C 65.33439636230469 184.80081176757812 85.86640167236328 184.80081176757812 106.39920043945312 184.80081176757812 C 106.39920043945312 162.39999389648438 106.39920043945312 140.0 106.39920043945312 117.59919738769531 C 83.99919891357422 117.59919738769531 61.60000228881836 117.59919738769531 39.20079803466797 117.59919738769531" stroke-width="0.0" fill="rgb(143, 223, 238)" opacity="1.0"/>
    <path d="M 117.59920501708984 39.20079803466797 C 117.59920501708984 61.59999465942383 117.59920501708984 83.99919891357422 117.59920501708984 106.39920043945312 C 140.0 106.39920043945312 162.39999389648438 106.39920043945312 184.80081176757812 106.39920043945312 C 184.80081176757812 85.86639404296875 184.80081176757812 65.33439636230469 184.80081176757812 44.80159378051758 C 184.36000061035156 41.44959259033203 182.55279541015625 39.64239501953125 179.20001220703125 39.20079803466797 C 158.66639709472656 39.20079803466797 138.13279724121094 39.20079803466797 117.59920501708984 39.20079803466797" stroke-width="0.0" fill="rgb(143, 224, 239)" opacity="1.0"/>
    <path d="M 39.20079803466797 44.80159378051758 C 39.20079803466797 65.33439636230469 39.20079803466797 85.86639404296875 39.20079803466797 106.39920043945312 C 61.60000228881836 106.39920043945312 83.99919891357422 106.39920043945312 106.39920043945312 106.39920043945312 C 106.39920043945312 83.99919891357422 106.39920043945312 61.59999465942383 106.39920043945312 39.20079803466797 C 85.86640167236328 39.20079803466797 65.33439636230469 39.20079803466797 44.801597595214844 39.20079803466797 C 41.447998046875 39.64159393310547 39.6416015625 41.44799041748047 39.20079803466797 44.80159378051758 C 39.20079803466797 44.80159378051758 39.20079803466797 44.80159378051758 39.20079803466797 44.80159378051758" stroke-width="0.0" fill="rgb(143, 224, 239)" opacity="1.0"/>
    <path d="M 130.43919372558594 130.43919372558594 C 130.43919372558594 130.43919372558594 130.43919372558594 130.43919372558594 130.43919372558594 130.43919372558594 C 133.1343994140625 128.38719177246094 135.66400146484375 128.38558959960938 138.3583984375 130.43919372558594 C 142.8647918701172 134.9456024169922 147.3719940185547 139.45199584960938 151.8791961669922 143.95761108398438 C 156.3863983154297 139.45199584960938 160.8936004638672 134.9456024169922 165.4008026123047 130.43919372558594 C 166.64720153808594 129.48959350585938 167.7239990234375 128.80239868164062 169.36000061035156 128.80239868164062 C 172.97039794921875 128.80239868164062 175.69760131835938 132.32479858398438 174.77679443359375 135.82080078125 C 174.43759155273438 137.11199951171875 174.11679077148438 137.31520080566406 173.32159423828125 138.3583984375 C 168.8144073486328 142.8647918701172 164.3072052001953 147.3719940185547 159.8000030517578 151.8791961669922 C 164.3072052001953 156.3863983154297 168.8144073486328 160.8936004638672 173.32159423828125 165.4008026123047 C 174.27120971679688 166.64720153808594 174.95919799804688 167.72320556640625 174.95919799804688 169.36000061035156 C 174.95919799804688 172.97039794921875 171.4344024658203 175.69760131835938 167.93919372558594 174.77679443359375 C 166.6479949951172 174.43759155273438 166.44400024414062 174.11679077148438 165.4008026123047 173.32159423828125 C 160.8936004638672 168.8144073486328 156.3863983154297 164.3072052001953 151.8791961669922 159.8000030517578 C 147.3719940185547 164.3072052001953 142.8647918701172 168.8144073486328 138.3583984375 173.32159423828125 C 137.31520080566406 174.11679077148438 137.11199951171875 174.43759155273438 135.82080078125 174.77679443359375 C 132.32479858398438 175.69760131835938 128.80239868164062 172.97039794921875 128.80239868164062 169.36000061035156 C 128.80239868164062 167.7239990234375 129.48959350585938 166.64720153808594 130.43919372558594 165.4008026123047 C 134.9456024169922 160.8936004638672 139.45199584960938 156.3863983154297 143.95761108398438 151.8791961669922 C 139.45199584960938 147.3719940185547 134.9456024169922 142.8647918701172 130.43919372558594 138.3583984375 C 128.38558959960938 135.66400146484375 128.38719177246094 133.1343994140625 130.43919372558594 130.43919372558594 C 130.43919372558594 130.43919372558594 130.43919372558594 130.43919372558594 130.43919372558594 130.43919372558594" stroke-width="0.0" fill="rgb(25, 144, 167)" opacity="1.0"/>
    <path d="M 55.999202728271484 134.39999389648438 C 67.19999694824219 134.39999389648438 78.4000015258789 134.39999389648438 89.60079956054688 134.39999389648438 C 90.90159606933594 134.5751953125 91.2719955444336 134.49200439453125 92.42559814453125 135.164794921875 C 95.5479965209961 136.98480224609375 96.11280059814453 141.40640258789062 93.55919647216797 143.95919799804688 C 92.40159606933594 145.11679077148438 91.15440368652344 145.39120483398438 89.60079956054688 145.60079956054688 C 78.4000015258789 145.60079956054688 67.19999694824219 145.60079956054688 55.999202728271484 145.60079956054688 C 54.44559860229492 145.39199829101562 53.197601318359375 145.11679077148438 52.03999710083008 143.95919799804688 C 49.48800277709961 141.40640258789062 50.051998138427734 136.98480224609375 53.17439651489258 135.164794921875 C 54.327999114990234 134.49200439453125 54.698402404785156 134.5751953125 55.999202728271484 134.39999389648438 C 55.999202728271484 134.39999389648438 55.999202728271484 134.39999389648438 55.999202728271484 134.39999389648438" stroke-width="0.0" fill="rgb(25, 144, 167)" opacity="1.0"/>
    <path d="M 55.999202728271484 156.80160522460938 C 67.19999694824219 156.80160522460938 78.4000015258789 156.80160522460938 89.60079956054688 156.80160522460938 C 90.90159606933594 156.97679138183594 91.2719955444336 156.8936004638672 92.42559814453125 157.56639099121094 C 95.5479965209961 159.38558959960938 96.11280059814453 163.806396484375 93.55919647216797 166.3583984375 C 92.40159606933594 167.51519775390625 91.15440368652344 167.7904052734375 89.60079956054688 167.9991912841797 C 78.4000015258789 167.9991912841797 67.19999694824219 167.9991912841797 55.999202728271484 167.9991912841797 C 54.44559860229492 167.7904052734375 53.197601318359375 167.51600646972656 52.03999710083008 166.3583984375 C 49.48720169067383 163.806396484375 50.051998138427734 159.38558959960938 53.17439651489258 157.56639099121094 C 54.327999114990234 156.8936004638672 54.698402404785156 156.97679138183594 55.999202728271484 156.80160522460938 C 55.999202728271484 156.80160522460938 55.999202728271484 156.80160522460938 55.999202728271484 156.80160522460938" stroke-width="0.0" fill="rgb(25, 144, 167)" opacity="1.0"/>
    <path d="M 164.04159545898438 52.04079055786133 C 164.04159545898438 52.04079055786133 164.04159545898438 52.04079055786133 164.04159545898438 52.04079055786133 C 165.28799438476562 51.09119415283203 166.36399841308594 50.40399932861328 168.0008087158203 50.40399932861328 C 171.6112060546875 50.40399932861328 174.3343963623047 53.92719268798828 173.41519165039062 57.42159652709961 C 173.0751953125 58.71279525756836 172.7552032470703 58.91599655151367 171.95999145507812 59.95999526977539 C 160.7592010498047 71.15919494628906 149.5583953857422 82.3583984375 138.3583984375 93.55839538574219 C 137.31520080566406 94.35440063476562 137.11199951171875 94.67520141601562 135.82080078125 95.0159912109375 C 132.32640075683594 95.93679809570312 128.80239868164062 93.20719909667969 128.80239868164062 89.59919738769531 C 128.80239868164062 87.96319580078125 129.48959350585938 86.88639831542969 130.43919372558594 85.63999938964844 C 141.63999938964844 74.4407958984375 152.84078979492188 63.24079513549805 164.04159545898438 52.04079055786133" stroke-width="0.0" fill="rgb(25, 144, 167)" opacity="1.0"/>
    <path d="M 134.39999389648438 50.39839553833008 C 134.39999389648438 50.39839553833008 134.39999389648438 50.39839553833008 134.39999389648438 50.39839553833008 C 136.43038940429688 50.671993255615234 138.1407928466797 51.29520034790039 139.23599243164062 53.17439651489258 C 141.37440490722656 56.843997955322266 138.6479949951172 61.59839630126953 134.39999389648438 61.59839630126953 C 130.15200805664062 61.59839630126953 127.42559814453125 56.843196868896484 129.56478881835938 53.17439651489258 C 130.65921020507812 51.29520034790039 132.36959838867188 50.671993255615234 134.39999389648438 50.39839553833008 C 134.39999389648438 50.39839553833008 134.39999389648438 50.39839553833008 134.39999389648438 50.39839553833008" stroke-width="0.0" fill="rgb(25, 144, 167)" opacity="1.0"/>
    <path d="M 167.9991912841797 84.00079345703125 C 167.9991912841797 84.00079345703125 167.9991912841797 84.00079345703125 167.9991912841797 84.00079345703125 C 170.02960205078125 84.27359771728516 171.74000549316406 84.89599609375 172.8343963623047 86.77439880371094 C 174.97360229492188 90.44319915771484 172.24720764160156 95.20079803466797 167.9991912841797 95.20079803466797 C 163.7519989013672 95.20079803466797 161.02481079101562 90.44159698486328 163.16400146484375 86.77439880371094 C 164.25999450683594 84.89679718017578 165.9696044921875 84.27359771728516 167.9991912841797 84.00079345703125 C 167.9991912841797 84.00079345703125 167.9991912841797 84.00079345703125 167.9991912841797 84.00079345703125" stroke-width="0.0" fill="rgb(25, 144, 167)" opacity="1.0"/>
    <path d="M 55.999202728271484 67.1991958618164 C 59.7327995300293 67.1991958618164 63.46560287475586 67.1991958618164 67.19920349121094 67.1991958618164 C 67.19920349121094 63.46559524536133 67.19920349121094 59.73279571533203 67.19920349121094 55.99919509887695 C 67.37440490722656 54.69839859008789 67.29119873046875 54.327999114990234 67.96400451660156 53.17439651489258 C 69.78399658203125 50.051998138427734 74.20719909667969 49.48719787597656 76.75920104980469 52.03999710083008 C 77.91680908203125 53.19759750366211 78.19120025634766 54.445594787597656 78.4000015258789 55.99919509887695 C 78.4000015258789 59.73279571533203 78.4000015258789 63.46559524536133 78.4000015258789 67.1991958618164 C 82.13359832763672 67.1991958618164 85.86720275878906 67.1991958618164 89.60079956054688 67.1991958618164 C 91.15440368652344 67.40798950195312 92.40159606933594 67.68319702148438 93.55919647216797 68.83999633789062 C 96.11280059814453 71.39279174804688 95.5479965209961 75.81519317626953 92.42559814453125 77.63519287109375 C 91.2719955444336 78.30799865722656 90.90159606933594 78.22479248046875 89.60079956054688 78.39999389648438 C 85.86720275878906 78.39999389648438 82.13359832763672 78.39999389648438 78.4000015258789 78.39999389648438 C 78.4000015258789 82.13359832763672 78.4000015258789 85.86719512939453 78.4000015258789 89.60079956054688 C 78.19120025634766 91.1543960571289 77.91600036621094 92.40159606933594 76.75920104980469 93.55919647216797 C 74.20640563964844 96.11279296875 69.78399658203125 95.5479965209961 67.96400451660156 92.42559814453125 C 67.29119873046875 91.2719955444336 67.37440490722656 90.90159606933594 67.19920349121094 89.60079956054688 C 67.19920349121094 85.86719512939453 67.19920349121094 82.13359832763672 67.19920349121094 78.39999389648438 C 63.46560287475586 78.39999389648438 59.7327995300293 78.39999389648438 55.999202728271484 78.39999389648438 C 54.44559860229492 78.19119262695312 53.197601318359375 77.91680145263672 52.03999710083008 76.75919342041016 C 49.48720169067383 74.20719909667969 50.051998138427734 69.78399658203125 53.17439651489258 67.96399688720703 C 54.327999114990234 67.29119873046875 54.698402404785156 67.3743896484375 55.999202728271484 67.1991958618164 C 55.999202728271484 67.1991958618164 55.999202728271484 67.1991958618164 55.999202728271484 67.1991958618164" stroke-width="0.0" fill="rgb(25, 144, 167)" opacity="1.0"/>
  </g>
</svg>
