<?xml version="1.0" ?>
<svg xmlns="http://www.w3.org/2000/svg" version="1.1" width="224" height="224">
  <defs/>
  <g>
    <path d="M 183.12705993652344 42.43620300292969 C 183.12705993652344 42.43620300292969 183.12705993652344 42.43620300292969 183.12705993652344 42.43620300292969 C 187.20681762695312 43.62396240234375 189.90185546875 45.850013732910156 191.8424072265625 49.62812042236328 C 191.94264221191406 49.92259979248047 192.0428924560547 50.217979431152344 192.1431427001953 50.512451171875 C 195.40567016601562 63.553688049316406 196.0 77.47119140625 194.92503356933594 90.83642578125 C 194.27252197265625 98.95475006103516 192.94601440429688 107.25387573242188 189.13121032714844 114.5379867553711 C 189.13121032714844 132.7393035888672 189.13121032714844 150.94064331054688 189.13121032714844 169.1419677734375 C 188.60311889648438 176.34730529785156 183.80552673339844 181.1448974609375 176.59927368164062 181.67300415039062 C 176.2215576171875 181.67300415039062 175.84384155273438 181.67300415039062 175.46701049804688 181.67300415039062 C 169.58547973632812 181.2845458984375 165.37416076660156 178.09359741210938 163.4031982421875 172.53878784179688 C 160.1898956298828 161.13552856445312 156.97567749023438 149.73228454589844 153.761474609375 138.32994079589844 C 132.16781616210938 151.82586669921875 110.57505798339844 165.32179260253906 88.98139953613281 178.81771850585938 C 82.9924545288086 182.186767578125 76.75736999511719 181.67388916015625 70.1221923828125 181.67300415039062 C 60.582496643066406 181.67210388183594 50.973876953125 182.00686645507812 41.44044494628906 181.65599060058594 C 36.70191192626953 181.48146057128906 32.40467071533203 179.04507446289062 30.244857788085938 174.72723388671875 C 28.00000762939453 170.23843383789062 29.192245483398438 166.01995849609375 30.929588317871094 161.63766479492188 C 33.952247619628906 154.01611328125 37.49585723876953 146.53060913085938 42.71681213378906 140.14515686035156 C 50.39207458496094 130.75941467285156 61.031822204589844 124.429443359375 71.83804321289062 119.26397705078125 C 81.53706359863281 114.62749481201172 91.66123962402344 110.62741088867188 101.76573181152344 106.95223236083984 C 104.76512908935547 105.86114501953125 107.92205810546875 105.18267822265625 110.94113159179688 104.11663818359375 C 115.90252685546875 102.36318969726562 120.72608184814453 100.20964050292969 125.30976104736328 97.62109375 C 136.5178680419922 91.29202270507812 145.79978942871094 82.34754943847656 153.3980712890625 72.02198028564453 C 159.68507385253906 63.47850036621094 164.85324096679688 54.103492736816406 171.62625122070312 45.92340850830078 C 171.819580078125 45.725608825683594 172.01292419433594 45.52778625488281 172.20626831054688 45.329978942871094 C 175.5493621826172 42.71099090576172 178.92648315429688 41.813232421875 183.12705993652344 42.43620300292969 C 183.12705993652344 42.43620300292969 183.12705993652344 42.43620300292969 183.12705993652344 42.43620300292969" stroke-width="0.0" fill="rgb(25, 144, 167)" opacity="1.0"/>
    <path d="M 181.82025146484375 48.443939208984375 C 181.82025146484375 48.443939208984375 181.82025146484375 48.443939208984375 181.82025146484375 48.443939208984375 C 187.74295043945312 50.57421112060547 187.60243225097656 58.667476654052734 188.22360229492188 64.03165435791016 C 189.43106079101562 74.46731567382812 189.51608276367188 85.19209289550781 188.12425231933594 95.61343383789062 C 187.33749389648438 101.50392150878906 186.15330505371094 107.69693756103516 182.8647918701172 112.75231170654297 C 182.8647918701172 112.75231170654297 182.8647918701172 112.75231170654297 182.8647918701172 112.75231170654297 C 164.28575134277344 124.36321258544922 145.7075958251953 135.9759063720703 127.12854766845703 147.5876922607422 C 116.72241973876953 154.09130859375 106.31718444824219 160.59490966796875 95.91105651855469 167.09762573242188 C 93.40037536621094 168.66668701171875 90.8887939453125 170.2366485595703 88.37811279296875 171.8057098388672 C 85.96768188476562 173.31211853027344 83.66375732421875 174.87939453125 80.77178192138672 175.28485107421875 C 77.31858825683594 175.76910400390625 73.6013412475586 175.407470703125 70.12397766113281 175.407470703125 C 62.92042541503906 175.40658569335938 55.71686553955078 175.40480041503906 48.51421356201172 175.39764404296875 C 45.035057067871094 175.39495849609375 40.141685485839844 176.34194946289062 37.302513122558594 173.8187255859375 C 34.06861114501953 170.94464111328125 35.430015563964844 167.28289794921875 36.784263610839844 163.88787841796875 C 39.813194274902344 156.29586791992188 43.45703887939453 148.90345764160156 48.91968536376953 142.74534606933594 C 60.14838409423828 130.0872039794922 77.27471923828125 122.89887237548828 92.7944107055664 117.17666625976562 C 98.9337158203125 114.9121322631836 105.33798217773438 113.5838394165039 111.423583984375 111.10806274414062 C 120.43429565429688 107.44184112548828 128.8793182373047 102.47775268554688 136.47042846679688 96.39483642578125 C 149.26998901367188 86.13818359375 158.7864227294922 73.01640319824219 168.41741943359375 59.91251754760742 C 170.00885009765625 57.747344970703125 171.61819458007812 55.592002868652344 173.30361938476562 53.497528076171875 C 175.72389221191406 50.48828887939453 177.60086059570312 47.98655700683594 181.82025146484375 48.443939208984375 C 181.82025146484375 48.443939208984375 181.82025146484375 48.443939208984375 181.82025146484375 48.443939208984375" stroke-width="0.0" fill="rgb(25, 144, 167)" opacity="1.0"/>
    <path d="M 164.4593963623047 124.66484832763672 C 164.4593963623047 124.66484832763672 164.4593963623047 124.66484832763672 164.4593963623047 124.66484832763672 C 166.1815185546875 138.63247680664062 167.9036407470703 152.60011291503906 169.62664794921875 166.56773376464844 C 169.82089233398438 168.1394805908203 169.840576171875 169.91351318359375 170.41522216796875 171.41009521484375 C 171.81690979003906 175.06199645996094 176.43638610839844 176.4896240234375 179.76158142089844 174.55178833007812 C 183.0411376953125 172.63992309570312 182.8647918701172 169.1983642578125 182.8647918701172 165.89285278320312 C 182.8647918701172 163.27745056152344 182.8647918701172 160.66114807128906 182.8647918701172 158.0448455810547 C 182.8647918701172 142.9476318359375 182.8647918701172 127.84952545166016 182.8647918701172 112.75231170654297 C 176.72996520996094 116.72286224365234 170.59422302246094 120.69430541992188 164.4593963623047 124.66484832763672" stroke-width="0.0" fill="rgb(25, 144, 167)" opacity="1.0"/>
    <path d="M 180.35948181152344 55.02721405029297 C 180.35948181152344 55.02721405029297 180.35948181152344 55.02721405029297 180.35948181152344 55.02721405029297 C 174.20675659179688 62.79465866088867 169.34381103515625 71.48941040039062 163.4730224609375 79.46630859375 C 155.0978240966797 90.84627532958984 144.9208221435547 100.7663803100586 132.6574249267578 107.89743041992188 C 124.14706420898438 112.8462905883789 115.09159851074219 116.0506591796875 105.6861572265625 118.81195831298828 C 100.3443603515625 120.38013458251953 95.06073760986328 122.96868896484375 89.895263671875 125.05331420898438 C 77.184326171875 130.18118286132812 63.679443359375 136.12628173828125 54.23283386230469 146.41783142089844 C 48.25105285644531 152.9348602294922 44.61705780029297 160.95651245117188 41.471763610839844 169.1240692138672 C 41.471763610839844 169.1240692138672 41.471763610839844 169.1240692138672 41.471763610839844 169.1240692138672 C 50.419822692871094 169.1365966796875 59.366981506347656 169.1392822265625 68.31414031982422 169.14108276367188 C 72.74833679199219 169.1419677734375 78.2235107421875 170.02182006835938 82.34173583984375 168.1905059814453 C 82.34173583984375 168.1905059814453 82.34173583984375 168.1905059814453 82.34173583984375 168.1905059814453 C 105.60112762451172 153.65541076660156 128.859619140625 139.11761474609375 152.1181182861328 124.5807113647461 C 158.35231018066406 120.68356323242188 164.58560180664062 116.78730773925781 170.81979370117188 112.89105224609375 C 172.54013061523438 111.81607055664062 174.2604522705078 110.74018859863281 175.97988891601562 109.66520690917969 C 176.48471069335938 109.35013580322266 178.04930114746094 108.73074340820312 178.35362243652344 108.18116760253906 C 181.13551330566406 103.1481704711914 181.76654052734375 96.96678924560547 182.30984497070312 91.34393310546875 C 183.47166442871094 79.31951904296875 183.0115966796875 66.8314437866211 180.35948181152344 55.02721405029297 C 180.35948181152344 55.02721405029297 180.35948181152344 55.02721405029297 180.35948181152344 55.02721405029297" stroke-width="0.0" fill="rgb(143, 223, 238)" opacity="1.0"/>
    <path d="M 176.59927368164062 124.05709838867188 C 172.6770782470703 126.50869750976562 168.75485229492188 128.96121215820312 164.8335418701172 131.41371154785156 C 168.37802124023438 143.98948669433594 171.92251586914062 156.56527709960938 175.46701049804688 169.1419677734375 C 175.84384155273438 169.1419677734375 176.2215576171875 169.1419677734375 176.59927368164062 169.1419677734375 C 176.59927368164062 154.11367797851562 176.59927368164062 139.08538818359375 176.59927368164062 124.05709838867188" stroke-width="0.0" fill="rgb(143, 223, 238)" opacity="1.0"/>
  </g>
</svg>
