<?xml version="1.0" ?>
<svg xmlns="http://www.w3.org/2000/svg" version="1.1" width="224" height="224">
  <defs/>
  <g>
    <path d="M 79.31095123291016 32.86243438720703 C 79.31095123291016 32.86243438720703 79.31095123291016 32.86243438720703 79.31095123291016 32.86243438720703 C 88.74421691894531 28.0 99.23477172851562 30.811378479003906 104.97201538085938 39.7392578125 C 109.14659118652344 46.96940612792969 113.32115936279297 54.199546813964844 117.49573516845703 61.429691314697266 C 121.93060302734375 69.96310424804688 120.13984680175781 80.50642395019531 112.01342010498047 86.19984436035156 C 109.34069061279297 88.07200622558594 106.34862518310547 89.53091430664062 103.57124328613281 91.24565124511719 C 101.22857666015625 92.6911392211914 99.05139923095703 94.26991271972656 98.97090148925781 97.32905578613281 C 98.88591766357422 100.55010986328125 100.62659454345703 104.32574462890625 101.74022674560547 107.29544067382812 C 104.77254486083984 115.38518524169922 109.22530364990234 122.89351654052734 114.82032012939453 129.47335815429688 C 117.14778137207031 132.21051025390625 119.94752502441406 136.3662872314453 123.96109008789062 136.30636596679688 C 125.39764404296875 136.28579711914062 125.70355224609375 136.01028442382812 127.00503540039062 135.4673309326172 C 129.89244079589844 133.80178833007812 132.77984619140625 132.1353759765625 135.66636657714844 130.46983337402344 C 145.04684448242188 125.58502960205078 155.6384735107422 128.43218994140625 161.32473754882812 137.3430633544922 C 165.49929809570312 144.57321166992188 169.67388916015625 151.80335998535156 173.84844970703125 159.03350830078125 C 177.65182495117188 166.41213989257812 177.0721893310547 175.23715209960938 171.1641082763672 181.40821838378906 C 169.18728637695312 183.47360229492188 166.75784301757812 184.84483337402344 164.2890625 186.22772216796875 C 160.3076934814453 188.45767211914062 156.24761962890625 190.67242431640625 151.93798828125 192.20556640625 C 142.1379852294922 195.69049072265625 131.3245086669922 196.0 121.33576965332031 193.1063232421875 C 106.69568634033203 188.86557006835938 96.29906463623047 177.654052734375 86.7718734741211 166.33877563476562 C 82.20640563964844 160.91639709472656 77.950439453125 155.2337188720703 74.04420471191406 149.31846618652344 C 65.263916015625 136.02371215820312 58.30122375488281 121.57235717773438 53.242897033691406 106.4680404663086 C 50.97000503540039 99.68156433105469 48.6380729675293 92.62495422363281 47.862548828125 85.48246765136719 C 46.34818649291992 71.53114318847656 50.91632843017578 57.285526275634766 60.24225997924805 46.80303192138672 C 63.824684143066406 42.776939392089844 68.01268005371094 39.496849060058594 72.61839294433594 36.724830627441406 C 74.8492431640625 35.43766784667969 77.0801010131836 34.14960479736328 79.31095123291016 32.86243438720703" stroke-width="0.0" fill="rgb(25, 144, 167)" opacity="1.0"/>
    <path d="M 82.44344329833984 38.28661346435547 C 82.44344329833984 38.28661346435547 82.44344329833984 38.28661346435547 82.44344329833984 38.28661346435547 C 88.94279479980469 35.142486572265625 95.49223327636719 36.896575927734375 99.54873657226562 42.86817932128906 C 103.72330474853516 50.09831619262695 107.89788055419922 57.32846450805664 112.07156372070312 64.55860900878906 C 112.81666564941406 66.0711898803711 113.4195556640625 67.49520874023438 113.64138793945312 69.185791015625 C 113.78361511230469 70.26454162597656 113.785400390625 71.3647689819336 113.64318084716797 72.44351196289062 C 111.99910736083984 84.98155212402344 93.42060089111328 83.74179077148438 92.7255859375 96.83708953857422 C 92.51358795166016 100.830078125 94.27841186523438 105.11647033691406 95.62371826171875 108.81070709228516 C 99.18109893798828 118.58208465576172 104.6419448852539 127.57526397705078 111.59480285644531 135.30274963378906 C 115.66740417480469 139.82974243164062 120.23822784423828 143.80126953125 126.79303741455078 142.2242889404297 C 128.36465454101562 141.84591674804688 128.69114685058594 141.59010314941406 130.14111328125 140.8870391845703 C 133.02581787109375 139.22149658203125 135.91055297851562 137.55596923828125 138.7952880859375 135.8904266357422 C 145.2257537841797 132.72483825683594 151.91561889648438 134.5191650390625 155.90145874023438 140.47467041015625 C 160.07603454589844 147.70571899414062 164.2506103515625 154.93585205078125 168.42518615722656 162.16600036621094 C 170.82867431640625 167.13308715820312 170.66140747070312 172.81130981445312 166.71044921875 177.00375366210938 C 164.84185791015625 178.98594665527344 162.2594757080078 180.2221221923828 159.8944549560547 181.50482177734375 C 156.31114196777344 183.44854736328125 152.7117156982422 185.37974548339844 148.82516479492188 186.65438842773438 C 139.91964721679688 189.57577514648438 130.149169921875 189.52301025390625 121.26957702636719 186.52647399902344 C 109.13227081298828 182.42971801757812 100.39402770996094 172.66461181640625 92.30427551269531 163.17408752441406 C 87.69766235351562 157.77049255371094 83.40949249267578 152.09585571289062 79.48448181152344 146.1788330078125 C 70.6612548828125 132.87957763671875 63.72539520263672 118.37814331054688 58.764564514160156 103.2138900756836 C 56.71440124511719 96.94890594482422 54.56315994262695 90.4415054321289 53.994266510009766 83.84376525878906 C 52.926246643066406 71.4685287475586 57.31549835205078 58.95285415649414 65.8623275756836 49.94268035888672 C 68.78640747070312 46.85938262939453 72.12553405761719 44.344078063964844 75.75178527832031 42.14811706542969 C 77.98174285888672 40.86094665527344 80.21259307861328 39.57378387451172 82.44344329833984 38.28661346435547" stroke-width="0.0" fill="rgb(25, 144, 167)" opacity="1.0"/>
    <path d="M 85.5723648071289 43.70988464355469 C 83.34151458740234 44.99705505371094 81.11155700683594 46.28422546386719 78.88069915771484 47.571388244628906 C 75.33763122558594 49.730682373046875 72.12284851074219 52.24061965942383 69.38302612304688 55.374900817871094 C 62.52052307128906 63.22582244873047 59.181400299072266 73.8219223022461 60.32008361816406 84.18814086914062 C 60.90776062011719 89.54522705078125 62.6564826965332 94.83433532714844 64.28802490234375 99.94901275634766 C 67.53323364257812 110.12828826904297 71.68544006347656 120.01863861083984 76.7464599609375 129.43043518066406 C 79.25370025634766 134.09161376953125 81.98099517822266 138.63381958007812 84.91670227050781 143.03826904296875 C 88.53043365478516 148.45977783203125 92.4608154296875 153.670166015625 96.66937255859375 158.64439392089844 C 103.4281234741211 166.6312713623047 110.81391143798828 175.42498779296875 120.65774536132812 179.5924072265625 C 128.58111572265625 182.94674682617188 137.58413696289062 183.4664306640625 145.83668518066406 181.025390625 C 148.8448486328125 180.13534545898438 151.5283203125 178.7650146484375 154.30926513671875 177.35171508789062 C 158.01870727539062 175.46612548828125 163.8203582763672 173.43386840820312 163.8409423828125 168.45870971679688 C 163.84718322753906 166.9658203125 163.55917358398438 166.65274047851562 163.00100708007812 165.29580688476562 C 158.82733154296875 158.0647735595703 154.654541015625 150.83462524414062 150.48086547851562 143.60447692871094 C 148.17666625976562 140.6079559326172 145.41806030273438 139.8699951171875 141.92507934570312 141.31369018554688 C 139.0403594970703 142.97923278808594 136.1556396484375 144.64566040039062 133.2709197998047 146.3112030029297 C 131.6957244873047 147.12518310546875 130.16436767578125 147.8345184326172 128.43531799316406 148.26744079589844 C 123.4503402709961 149.5152587890625 118.04673767089844 148.62881469726562 113.72457122802734 145.8496551513672 C 111.2387924194336 144.25120544433594 109.23246002197266 142.00424194335938 107.26011657714844 139.83242797851562 C 101.81805419921875 133.8429412841797 97.17208099365234 127.1396484375 93.56819152832031 119.8907241821289 C 92.28549194335938 117.31101989746094 91.13429260253906 114.66691589355469 90.11547088623047 111.97271728515625 C 88.5098648071289 107.72479248046875 86.70925903320312 103.03141784667969 86.47758483886719 98.45611572265625 C 86.118896484375 91.38607788085938 89.790771484375 85.17565155029297 95.64787292480469 81.4295425415039 C 97.52898406982422 80.22645568847656 99.45391845703125 79.09224700927734 101.38333129882812 77.96697998046875 C 104.30204010009766 76.26387023925781 107.48552703857422 74.71730041503906 107.48909759521484 70.81643676757812 C 107.489990234375 69.35037994384766 107.19660186767578 69.01315307617188 106.64828491210938 67.69110107421875 C 102.47370910644531 60.460960388183594 98.29913330078125 53.23081588745117 94.12455749511719 46.00067138671875 C 91.81051635742188 42.999671936035156 89.07696533203125 42.26887512207031 85.5723648071289 43.70988464355469 C 85.5723648071289 43.70988464355469 85.5723648071289 43.70988464355469 85.5723648071289 43.70988464355469" stroke-width="0.0" fill="rgb(143, 223, 238)" opacity="1.0"/>
  </g>
</svg>
