<?xml version="1.0" encoding="UTF-8"?>
<svg xmlns="http://www.w3.org/2000/svg" version="1.1" viewBox="0 0 224 224">
  <defs>
    <style>
      .cls-1 {
        fill: #8fdfee;
      }

      .cls-2 {
        fill: #1990a7;
      }
    </style>
  </defs>
  <!-- Generator: Adobe Illustrator 28.6.0, SVG Export Plug-In . SVG Version: 1.2.0 Build 709)  -->
  <g>
    <g id="_图层_1" data-name="图层_1">
      <g>
        <path class="cls-2" d="M37.7,194.2c-5.9-4.3-6.9-11-3.1-20.9,2-5.1,4.5-7.4,10.5-9.4,5.5-.7,5.6-.7,9.2-10.3,3.2-6.6,4.6-8.2,10-11l4.7-1.9,5.2-15.6c6.8-21.5,6.2-21,9.8-24.2,2.3-1.3,4.3-3.9,4.1-6.1.4-1.9,1.8-4.1,3.1-4.9,3.7-2.1,7.6-1.3,10.1,2.4.6,1.9,1.6,3.3,1.7,3.1.1-.1,5.5-5.7,11.6-12.5,6.6-7.2,12.1-12.5,13.7-12.8,2.7-.7,2.9-1.1,2.8-6,.2-3.7,0-6-3-8.4-2-3.1-2.6-5.4-2.8-8.6.4-8.2,5.5-12.8,14.7-12.4,3.7.2,5.2-.4,7.9-3.4l4-2.4,13.6-.3c15.5-.5,18.6.4,21.7,5.3,1.7,2.2,2.1,4.2,1.8,12,.2,6.7-.1,10-1.1,12.3-1.6,2.1-1.8,2.1-.5,3.2,4.5,2.4,5.8,12.3,2.5,17.5-3.8,5.7-6.4,6.8-21.7,6.8-14,.1-17.7-.5-21-4.2-.8-2.3-2.1-2.5-7.6-2.3-5.7,0-6.1-.5-8.2,2-4.7,4.6-22,23.5-22.2,24.3-.1.4,2,1,4.4,1.5,7.5,1.7,9.7,3.5,17.3,16.2,8.9,14.6,8.9,14.8,13.1,15.3,8.2,1.6,12.3,5.5,16.4,16.8,2.5,6.7,3.7,7.9,9.3,8.8,4.7,1.5,8.6,6.1,10.2,12.4,2.5,8.9,1.2,14.1-4.1,17.5-2.1,2.2-5.2,1.8-68.3,1.8l-66.7-.3-3-1.2"/>
        <path class="cls-1" d="M153.1,72.3c-2.6-2.6-3.4-2.9-7.4-3h-4.5c0,0,0-6.7,0-6.7,0-7-.4-7.9-4.5-13.6-.5-.7-.6-2-.3-3,.5-1.1,1.3-1.3,7.2-1.4,6.2,0,6.6,0,9.6-3.2l3.2-3.1h10.2c6.9,0,10.6.3,11.4,1,.6.6,1.1,3.7.9,7.5.2,6.3.2,6.5-2.9,9.4-4.8,4.5-3.6,9.8,2.5,12,2.6.6,3.3,1.4,3.4,2.9.3,3.4-2.8,4.1-14.8,4h-11.2c0,0-2.7-3-2.7-3"/>
        <path class="cls-1" d="M43.5,185.2c-.6-1-.3-4.2.7-7.4.6-2.3,1.5-2.9,5.6-4.2,6.7-1.9,10.4-5.5,13.2-13.3,2.1-6.1,2.5-6.6,6.8-8.7,7.5-3.9,8.2-4.9,13.3-20.6,2.5-8,4.9-16,5.3-17.5.4-2,1.5-3.4,3.7-4.7,1.6-1,3.1-2.4,3.4-3.2.9-2.2,1.9-1.5,3.6,2.5,1.8,5.2,3.6,6.7,10.3,8.2,6.4,1.4,6,.8,15.9,16.5,7.4,11.8,9.9,14.3,15.7,15.2,5.2.9,6.5,2.6,9.9,10.8,4.3,10.3,5.4,11.6,12.1,13.7,5.6,1.8,5.8,2,6.9,6.3.6,2.3.9,4.7.5,5.4-.2,1-9.7,1.2-63.2.9-34.7.5-63.3,0-63.7-.1"/>
        <path class="cls-2" d="M102,152.5c-3.7-3.3-8.1-12.4-8.1-17.1,0-4.4,2-7.7,4.7-7.7,4.9,0,13.3,13.2,13.3,21.1-.2,6.1-4.9,8-9.9,3.6"/>
      </g>
    </g>
  </g>
</svg>