<?xml version="1.0" encoding="UTF-8"?>
<svg xmlns="http://www.w3.org/2000/svg" version="1.1" viewBox="0 0 224 224">
  <defs>
    <style>
      .cls-1 {
        fill: #8fdfee;
      }

      .cls-2 {
        fill: #1990a7;
      }
    </style>
  </defs>
  <!-- Generator: Adobe Illustrator 28.6.0, SVG Export Plug-In . SVG Version: 1.2.0 Build 709)  -->
  <g>
    <g id="_图层_1" data-name="图层_1">
      <g>
        <path class="cls-2" d="M70.4,194.8c-3.5-.8-5.2-2.5-6.6-6.3-1.2-2.5-1-5.5.8-23.8.8-11.1,1.9-22.1,2.7-24,.7-2.4,2.5-5.2,5.1-7.8l4.5-3.4-4.1-1.6c-4.5-2.4-7.1-5.7-8.3-10.6-1.8-7.8,1.1-12.8,7.9-12.7,2.6,0,3.4-.3,2.9-1.3-.1-1.7-2.4-25.2-4.7-44.7-1.5-13.4.2-18.7,6.3-24.7,5.6-5.4,7.8-5.9,35.8-5.7,20.5-.2,25.3.2,28.5,1.3,6.3,2.5,11.2,8.7,12.8,16.1.9,2.9-.3,12.3-3.9,45.3-.7,6.6-1.2,12.4-1.6,12.9.4.8,1.9,1.2,3.7,1,4.1-.2,6.1,1,7.6,4.6.5,2.6.5,4.4,0,7.4-1.5,5.7-3.8,8.5-8.6,11l-4.6,1.7,4.6,3.3c5.2,4.5,5.4,6,7.3,28.4,2.7,22.6,2.9,26.3.3,29.8-2.7,4.1-6.5,5-21.3,4.6-11.2,0-13-.2-15.3-2-5-3.3-5.3-4.5-5.3-31v-24.9s-10.6-.1-10.6-.1v24.8c.1,24.5,0,25.2-2.2,28.3-1.5,1.8-3.9,3.6-5.7,4.3-3.3,1.1-23.8,1.2-27.9,0"/>
        <path class="cls-1" d="M74.1,181c.1-2,.9-11,1.7-19.8,2-21.5,2.7-23,12.8-23.9l6.4-.4.3,47.3h-21.9c0,0,.6-3.2.6-3.2"/>
        <path class="cls-1" d="M127.6,161.1v-23.4c0,0,6.7,0,6.7,0,6-.3,6.8,0,8.7,2.1,1.5,1.6,2.5,3.1,2.7,3.7,0,.6.9,9.2,2.1,19.3.9,9.9,1.8,19.1,2.1,20-.6,1.7-1.4,1.7-11,1.4l-11.4.3.2-23.3"/>
        <path class="cls-1" d="M81.5,124.1c-2.6-1.6-6.5-6.2-6.4-8.5,0-.2,16.7-.4,37.3-.2,20.1-.1,36.9.1,36.8.2,0,.8-.9,2.5-2,4.2-3.2,5.5-5.2,6.1-35.4,6-23.4-.3-27.5-.5-30.3-1.7"/>
        <path class="cls-1" d="M89.5,103.3c-.9-.3-2.3-1.8-3.1-3-1.3-3.2-6.2-50.4-5.5-53.8.6-1.5,2-3.7,3.2-4.9l2.3-2.3,25.2-.3c24.2.2,25.8.2,27.8,1.8,3.1,2.7,4.8,7.7,4,12.2-.4,1.9-1.5,13.1-2.5,25-1.8,19.6-2.3,22.1-4.1,23.9-1.9,2-2.9,1.9-23.7,2.1-13.8.1-22.4-.1-23.6-.7"/>
      </g>
    </g>
  </g>
</svg>