<?xml version="1.0" ?>
<svg xmlns="http://www.w3.org/2000/svg" version="1.1" width="224" height="224">
  <defs/>
  <g>
    <path d="M 33.53589630126953 191.30596923828125 C 27.99999237060547 187.07608032226562 28.161582946777344 187.72412109375 28.204673767089844 141.73329162597656 L 28.181785583496094 99.45652770996094 L 38.03126525878906 69.46157836914062 L 38.008323669433594 57.123680114746094 C 37.78136444091797 43.36051940917969 38.97132110595703 40.14760971069336 43.97306823730469 37.363285064697266 C 46.356300354003906 35.38385009765625 48.55708694458008 35.302215576171875 74.83871459960938 35.254859924316406 L 102.41758728027344 35.35441970825195 L 105.47650146484375 33.25274658203125 C 110.21012878417969 30.085227966308594 114.29971313476562 30.105003356933594 118.78559112548828 33.267250061035156 L 121.84230041503906 35.28601837158203 L 149.9103240966797 35.296783447265625 C 179.4957275390625 35.21381378173828 180.20968627929688 35.35483169555664 183.6967315673828 40.313865661621094 C 185.84634399414062 42.58204650878906 186.36563110351562 44.5379753112793 186.30850219726562 56.990135192871094 C 186.1690673828125 71.47422790527344 186.56019592285156 71.58705139160156 191.26602172851562 85.60360717773438 L 195.67213439941406 99.61388397216797 L 195.69290161132812 141.21575927734375 C 196.0 187.55316162109375 195.99903869628906 187.6524658203125 190.04217529296875 191.39471435546875 C 187.55348205566406 193.8660888671875 186.1475067138672 193.32620239257812 111.40827941894531 193.35882568359375 C 36.02418518066406 193.48660278320312 35.382423400878906 193.91476440429688 33.53589630126953 191.30596923828125" stroke-width="1.0" fill="rgb(18, 129, 156)" opacity="0.9933379"/>
    <path d="M 39.138511657714844 142.38082885742188 L 39.147979736328125 102.44145202636719 L 43.98197937011719 87.94020080566406 L 48.828800201416016 73.45709228515625 L 49.039180755615234 46.429443359375 L 70.39308166503906 46.4215202331543 L 91.13871765136719 46.480220794677734 L 86.03995513916016 51.38230895996094 C 83.27165222167969 54.32709503173828 77.95817565917969 58.98749542236328 74.14445495605469 61.737205505371094 C 67.26882934570312 66.55816650390625 67.22193908691406 67.47917175292969 59.945945739746094 83.0542221069336 L 52.36275863647461 99.23682403564453 L 52.369384765625 182.27493286132812 L 39.129669189453125 182.2090301513672 L 39.138511657714844 142.38082885742188" stroke-width="1.0" fill="rgb(147, 231, 246)" opacity="0.9925577"/>
    <path d="M 63.10302734375 142.16375732421875 L 63.08872985839844 102.17829895019531 L 69.85752868652344 88.26370239257812 C 75.23896026611328 76.19482421875 76.65287780761719 73.4466552734375 80.05196380615234 71.38568115234375 C 82.21923828125 69.98005676269531 90.01053619384766 62.89533233642578 97.54757690429688 55.662227630615234 C 104.9389419555664 48.75243377685547 111.5189437866211 43.107872009277344 112.17094421386719 42.840415954589844 C 112.69871520996094 43.023109436035156 119.28707885742188 48.83503341674805 126.86722564697266 55.862361907958984 C 134.5018768310547 63.12730407714844 142.40277099609375 70.1888427734375 144.47854614257812 71.63136291503906 C 147.8444366455078 73.81353759765625 149.19317626953125 76.30669403076172 154.54714965820312 88.41290283203125 L 160.9777374267578 102.7066650390625 L 160.92092895507812 182.38214111328125 L 134.97537231445312 182.27011108398438 L 134.6645965576172 157.5664825439453 C 134.819091796875 135.3811798095703 134.97158813476562 132.47650146484375 133.20584106445312 130.01910400390625 C 130.72283935546875 124.50140380859375 127.92277526855469 123.26040649414062 112.28407287597656 123.60159301757812 C 98.87152862548828 123.61287689208984 98.13175201416016 123.8161849975586 95.05926513671875 125.57771301269531 C 89.0208740234375 129.212646484375 88.91534423828125 130.94833374023438 89.35375213623047 157.89781188964844 L 89.25801086425781 182.30618286132812 L 63.018489837646484 182.32611083984375 L 63.10302734375 142.16375732421875" stroke-width="1.0" fill="rgb(197, 245, 253)" opacity="0.9940693"/>
    <path d="M 171.76806640625 140.785400390625 L 171.71827697753906 99.4692611694336 L 164.6070098876953 83.77627563476562 L 157.138427734375 68.01805114746094 L 145.78329467773438 58.26072311401367 C 139.6382293701172 52.537498474121094 134.39877319335938 47.818092346191406 134.10128784179688 47.311458587646484 C 134.3992919921875 46.5965461730957 141.6855926513672 46.300018310546875 154.22122192382812 46.408546447753906 L 175.206787109375 46.419559478759766 L 175.35458374023438 72.34893798828125 L 179.9381561279297 87.23798370361328 L 184.98782348632812 102.04087829589844 L 184.90383911132812 182.4304962158203 L 171.86367797851562 182.3118896484375 L 171.76806640625 140.785400390625" stroke-width="1.0" fill="rgb(148, 232, 247)" opacity="0.9933333"/>
    <path d="M 100.128662109375 158.72958374023438 L 100.04237365722656 134.72573852539062 L 123.9760513305664 134.6966552734375 L 124.01177215576172 182.4355926513672 L 100.13153839111328 182.42462158203125 L 100.128662109375 158.72958374023438" stroke-width="1.0" fill="rgb(147, 231, 246)" opacity="0.993204"/>
    <path d="M 101.19246673583984 102.72062683105469 C 99.87496948242188 102.35797119140625 97.94969940185547 100.42794036865234 96.89350128173828 99.0703125 C 95.06246185302734 96.82530212402344 94.89256286621094 95.10627746582031 94.90015411376953 83.7072982788086 C 94.68567657470703 69.19937133789062 95.67037963867188 66.24523162841797 100.64836120605469 62.513980865478516 C 103.97013854980469 60.096431732177734 117.54756927490234 59.56509017944336 122.60138702392578 61.5344352722168 C 128.60125732421875 64.23509216308594 129.60928344726562 67.09260559082031 129.39720153808594 82.73275756835938 C 129.46974182128906 97.99964904785156 128.59840393066406 100.3106460571289 123.40908813476562 102.72042846679688 C 119.66516876220703 104.45182037353516 104.40750122070312 104.4195785522461 101.19246673583984 102.72062683105469" stroke-width="1.0" fill="rgb(17, 129, 154)" opacity="0.9909515"/>
    <path d="M 109.73418426513672 165.55587768554688 C 107.29708862304688 164.44285583496094 107.30441284179688 159.5573272705078 109.7009506225586 158.06065368652344 C 114.0821304321289 155.772705078125 123.24392700195312 157.884033203125 123.19178771972656 161.14337158203125 C 123.27906799316406 162.11886596679688 122.41553497314453 163.45606994628906 121.42452239990234 164.5413818359375 C 119.3069076538086 166.72222900390625 112.65193176269531 167.30438232421875 109.73418426513672 165.55587768554688" stroke-width="1.0" fill="rgb(23, 128, 153)" opacity="0.9778817"/>
    <path d="M 106.34178161621094 91.91744995117188 C 106.05779266357422 91.320556640625 106.05401611328125 86.41938018798828 105.77660369873047 81.23820495605469 L 106.08892822265625 71.73464965820312 L 112.59538269042969 71.70370483398438 L 118.89466857910156 71.29708862304688 L 118.82567596435547 92.93635559082031 L 112.88160705566406 92.82662963867188 C 108.7411880493164 93.08873748779297 106.76670837402344 92.71391296386719 106.34178161621094 91.91744995117188" stroke-width="1.0" fill="rgb(146, 231, 247)" opacity="0.99807316"/>
  </g>
</svg>
