<?xml version="1.0" encoding="UTF-8"?>
<svg xmlns="http://www.w3.org/2000/svg" version="1.1" viewBox="0 0 224 224">
  <defs>
    <style>
      .cls-1 {
        fill: #8fdfee;
      }

      .cls-2 {
        fill: #1990a7;
      }
    </style>
  </defs>
  <!-- Generator: Adobe Illustrator 28.6.0, SVG Export Plug-In . SVG Version: 1.2.0 Build 709)  -->
  <g>
    <g id="_图层_1" data-name="图层_1">
      <g>
        <path class="cls-1" d="M45.4,182.3c-3.3-.6-5.5-2-7.5-4-1.4-2-2.1-3.5-1.6-58.6-.1-31.1,0-57.4.3-58.4.3-1.8,4.5-6.9,12.3-16.1,1.8-2.3,2.2-2.6,10.4-3,4.5,0,32.5-.1,62.1-.2,50.6-.1,53.8,0,54.9,1.4.8.5,3.5,4.8,6.2,9.1,4,7,4.7,8.8,5.4,14,.4,3.7.5,29.8.8,58.1l-.7,51.2-2.3,2.7c-1,1.9-2.7,3.7-3.7,4.2-1.4.6-17,.5-68.1.9-36.1,0-67.2-.6-68.6-1"/>
        <path class="cls-2" d="M47.6,189.5c-7.5-1-15.4-7.7-17.2-14.6-2.4-1.5-1.3-17.8-1.7-57.4v-55.9c.1,0,2.7-5,2.7-5,3.4-7.1,10.8-11.7,18.8-12.5,3.2-.4,2.7-.5,1.6,3.5,0,3.3,0,5.7-1.3,6.8-2.3.1-3.7.8-4.2,1.3-.1-.4-2.1.9-4.3,2.4l-2.8,4.4v54.6c0,0,0,54.1,0,54.1l2.9,4.4c2.3,2.6,3.9,3.3,7.4,4.1,5.5-.1,124.7,0,126.8-.2,1.7-.8,4.2-1.9,6.2-3.3l2.8-4,.5-27.5c-.5-55.1.2-80.1-.4-82.6-1.8-3.4-4-5.5-8.6-7.3-3.1-.3-2.9-2.2-3.2-7.8l-1.5-3.3,4.1.9c6.1.5,13.3,5.2,16.6,10.9l2.7,5.7v55.5c0,51.1.6,56.7-1.4,59.1-2.2,5.4-6.6,9.4-11.5,12.1l-5.2,1.9h-62.6c-34.6-.1-65.2.5-67.2-.2"/>
        <path class="cls-2" d="M90.9,161.8c-3.1-1.5-32.3-30.2-34.5-33.7-.8-1.7-.8-7.9-.6-35.3,0-31.6,0-33.4,1.6-34.6,2.3-1.9,4.5-2.2,6.8-.3.9,1.3,1.6,4,1.8,14.5-.2,13.1-.3,12.9,2.1,15.1l1.8,2.6,40.4.2c21.7,0,41.2.2,42.8-.3,1.3,0,3-1,4.5-2,2-2.2,1.9-2.2,1.6-14.2,0-11.5.3-14.8,2.7-16.3,2.1-1.2,5.1-.7,6.3,1,1.5,1,1.5,4.9,1.3,34.8.1,26.9,0,33.4-1.2,34.9-2.3,3.5-31.5,32-34.6,33.6-4.4,1.5-38.3,1.4-42.7,0"/>
        <path class="cls-2" d="M54.3,43.7c0-2.9,3.3-7.2,5.7-9.1,4.3-.9,100.6-.9,105,0,2.3,1.8,5.5,6.2,5.7,8.8.2.9-12.4,1-58.3.8-45.7,0-58.4,0-58.1-.7"/>
        <path class="cls-1" d="M81.1,112.6c-3.3-1.9-4.3-3.6-4.9-8.2l-.7-3.5h21.1s-.5,3.3-.5,3.3c-1.4,8.4-8.6,12.4-15,8.4"/>
        <path class="cls-1" d="M133.8,112.4c-3.3-1.9-5.3-5.5-5.3-9.2v-2.5s20.1.2,20.1.2v2.7c0,8.3-8,13.1-14.7,8.7"/>
        <path class="cls-1" d="M95.4,151.8c-1.8-.7-24.9-23-28.7-27.1-1.2-1.4-1.3-3.1-1.4-9l.2-7.7,2.1,2.9c2.4,5.5,5.1,8.5,9.4,10.9,12.4,6.6,27.3-2.4,29.2-17.3l.5-3.6h11c0,0,.5,3.1.5,3.1,1.2,7.7,6.7,15.8,12.9,18.5,4,1.9,11.5,2,15,0,3.7-1.3,9.1-6.3,10.5-10.3l2.3-3.6.4,8-.4,7.3-13.8,13.2c-7.5,7.4-14.3,13.9-15.3,14.4-1.9,1.1-31.6,1.1-34.5.2"/>
        <path class="cls-2" d="M97,138.9c-2.4-1.5-3.1-2.3-3-5.2,0-4.7,1.9-4.9,18.5-4.6,14-.1,15.3-.2,16.6,1.3,2.5,2.5,2.3,4.6.1,7-1.5,2.2-1.9,2.3-16.3,2.3-10.1,0-15.1,0-16-.7"/>
      </g>
    </g>
  </g>
</svg>