<?xml version="1.0" ?>
<svg xmlns="http://www.w3.org/2000/svg" version="1.1" width="224" height="224">
  <defs/>
  <g>
    <path d="M 142.3916473388672 52.67564392089844 C 142.3916473388672 52.67564392089844 142.3916473388672 52.67564392089844 142.3916473388672 52.67564392089844 C 156.1261749267578 54.94728469848633 167.82164001464844 64.2835693359375 175.40806579589844 75.65978240966797 C 187.39102172851562 93.62950134277344 191.12074279785156 117.77049255371094 185.6720733642578 138.61346435546875 C 180.62159729003906 157.93310546875 166.17047119140625 175.81356811523438 148.62728881835938 185.25198364257812 C 138.47055053710938 190.7169647216797 127.01109313964844 193.63052368164062 115.53018188476562 194.34970092773438 C 89.20166015625 196.0 59.61886215209961 186.0123291015625 44.21171188354492 163.55856323242188 C 35.92070388793945 151.47433471679688 32.8792610168457 136.43963623046875 34.81019973754883 121.99710083007812 C 36.044281005859375 112.76637268066406 39.2779541015625 104.23849487304688 45.822540283203125 97.43644714355469 C 52.68208312988281 90.30743408203125 61.772926330566406 86.36146545410156 71.28429412841797 84.22198486328125 C 71.28429412841797 84.22198486328125 71.28429412841797 84.22198486328125 71.28429412841797 84.22198486328125 C 70.86892700195312 84.91626739501953 69.61939239501953 86.45500183105469 69.59193420410156 87.27801513671875 C 69.59107208251953 87.31233978271484 69.74897766113281 88.9051513671875 70.45698547363281 88.66142272949219 C 71.51514434814453 88.29754638671875 71.42589569091797 87.8641586303711 71.94853210449219 86.90641784667969 C 72.88310241699219 85.1926040649414 73.98245239257812 83.56975555419922 75.18478393554688 82.0335922241211 C 78.94795989990234 77.22770690917969 83.71951293945312 73.18733215332031 88.9416275024414 70.04805755615234 C 93.46945190429688 67.32586669921875 98.42723846435547 65.25161743164062 103.61158752441406 64.18917083740234 C 105.33055114746094 63.837310791015625 107.07182312011719 63.59701919555664 108.82339477539062 63.48716735839844 C 109.40611267089844 63.45112228393555 110.02915954589844 63.63134765625 110.57325744628906 63.421085357666016 C 111.00064086914062 63.256317138671875 111.53529357910156 62.89759063720703 111.53529357910156 62.4401741027832 C 111.53529357910156 60.76498031616211 107.97807312011719 61.63433074951172 107.24946594238281 61.69182586669922 C 107.24946594238281 61.69182586669922 107.24946594238281 61.69182586669922 107.24946594238281 61.69182586669922 C 116.56687927246094 52.453372955322266 129.90921020507812 50.96784210205078 142.3916473388672 52.67564392089844 C 142.3916473388672 52.67564392089844 142.3916473388672 52.67564392089844 142.3916473388672 52.67564392089844" stroke-width="0.0" fill="rgb(0, 0, 0)" opacity="1.0"/>
    <path d="M 103.40046691894531 29.298450469970703 C 103.40046691894531 29.298450469970703 103.40046691894531 29.298450469970703 103.40046691894531 29.298450469970703 C 114.97064208984375 28.0 121.59590148925781 41.634124755859375 116.11032104492188 50.97126770019531 C 113.27313232421875 55.800331115722656 107.38334655761719 57.305599212646484 104.46205139160156 62.06085205078125 C 104.46205139160156 62.06085205078125 104.46205139160156 62.06085205078125 104.46205139160156 62.06085205078125 C 91.79940795898438 64.47065734863281 80.49442291259766 71.69063568115234 72.7818374633789 81.99668884277344 C 72.7818374633789 81.99668884277344 72.7818374633789 81.99668884277344 72.7818374633789 81.99668884277344 C 64.30459594726562 83.55001831054688 55.259239196777344 87.7955093383789 46.71677780151367 83.88214111328125 C 38.393157958984375 80.06918334960938 36.74113464355469 66.91307830810547 44.103580474853516 61.333961486816406 C 44.103580474853516 61.333961486816406 44.103580474853516 61.333961486816406 44.103580474853516 61.333961486816406 C 45.17546081542969 64.5032730102539 45.602840423583984 67.80903625488281 47.2334098815918 70.78954315185547 C 48.363651275634766 72.85520935058594 49.98649597167969 74.54585266113281 51.61534881591797 76.2210464477539 C 52.776485443115234 77.414794921875 54.14616394042969 78.4274673461914 55.62311553955078 79.19640350341797 C 55.99986267089844 79.39207458496094 56.781673431396484 79.38949584960938 56.93014144897461 78.81021881103516 C 57.31203842163086 77.31867980957031 54.98976516723633 76.58749389648438 54.3890266418457 76.12921905517578 C 52.69495391845703 74.8342056274414 51.369049072265625 73.13412475585938 50.512569427490234 71.18516540527344 C 47.041175842285156 63.28463363647461 51.64881896972656 50.81250762939453 60.086578369140625 48.18901062011719 C 60.086578369140625 48.18901062011719 60.086578369140625 48.18901062011719 60.086578369140625 48.18901062011719 C 58.467166900634766 55.25279998779297 58.32127380371094 64.55046844482422 65.43569946289062 68.72901916503906 C 66.71097564697266 69.47821807861328 68.11412048339844 69.99141693115234 69.55331420898438 70.32096099853516 C 72.54154205322266 71.00408935546875 75.5563735961914 70.86505889892578 78.58151245117188 70.58528900146484 C 78.6398696899414 70.56640625 78.69822692871094 70.54666900634766 78.75658416748047 70.52779388427734 C 80.484130859375 68.83628845214844 79.49634552001953 66.09264373779297 78.91792297363281 63.893096923828125 C 78.03913116455078 60.55901336669922 76.67803192138672 57.53645324707031 74.34117126464844 54.97645950317383 C 72.99810028076172 53.50551986694336 71.44562530517578 52.25169372558594 69.87342071533203 51.037353515625 C 69.3902587890625 50.664894104003906 68.67195129394531 50.45378112792969 68.44967651367188 49.884796142578125 C 67.98281860351562 48.6893310546875 69.18515014648438 46.815040588378906 69.77558135986328 45.94654846191406 C 70.17550659179688 45.357826232910156 70.62433624267578 44.80000305175781 71.10321044921875 44.27220916748047 C 71.76058959960938 43.54961395263672 72.8153076171875 42.67682647705078 73.6889419555664 42.226280212402344 C 78.0176773071289 39.991539001464844 80.54076385498047 46.728363037109375 81.71563720703125 49.73719024658203 C 82.16360473632812 50.88459396362305 82.55924224853516 52.065467834472656 82.89049530029297 53.252349853515625 C 83.24665069580078 54.531917572021484 83.5418701171875 55.83723068237305 83.75984954833984 57.1476936340332 C 83.98812866210938 58.52080154418945 84.1426010131836 59.91365051269531 84.20353698730469 61.30563735961914 C 84.26618957519531 62.73882293701172 84.080810546875 64.1745834350586 84.10055541992188 65.60948181152344 C 84.10999298095703 66.29003143310547 84.00786590576172 67.1087417602539 84.92784881591797 67.07012939453125 C 85.71739196777344 67.03751373291016 86.47860717773438 65.82402801513672 86.78326416015625 65.45929718017578 C 87.8431396484375 64.18659973144531 88.8060302734375 62.82979202270508 89.63504028320312 61.395751953125 C 93.93974304199219 53.95092010498047 93.53982543945312 45.6890869140625 90.79188537597656 37.7919921875 C 90.79188537597656 37.7919921875 90.79188537597656 37.7919921875 90.79188537597656 37.7919921875 C 95.07255554199219 38.14556884765625 99.35494995117188 40.531349182128906 101.78105926513672 44.12803649902344 C 102.45474243164062 45.12611389160156 102.99197387695312 46.19628143310547 103.31808471679688 47.35999298095703 C 103.49744415283203 47.99677276611328 103.5506591796875 48.66187286376953 103.6879653930664 49.30809020996094 C 103.77550506591797 49.72174072265625 103.6424789428711 50.3018798828125 103.99263000488281 50.53874206542969 C 104.36593627929688 50.79104995727539 104.90316772460938 50.533592224121094 105.3399887084961 50.42460632324219 C 105.71673583984375 50.3302001953125 105.77680969238281 49.77752685546875 105.93472290039062 49.423091888427734 C 106.68649291992188 47.73244857788086 107.0040283203125 45.877037048339844 107.04950714111328 44.03449249267578 C 107.12159729003906 41.09260559082031 106.71309661865234 38.25455856323242 105.58285522460938 35.534942626953125 C 104.72981262207031 33.48214340209961 103.02887725830078 31.602699279785156 103.40046691894531 29.298450469970703 C 103.40046691894531 29.298450469970703 103.40046691894531 29.298450469970703 103.40046691894531 29.298450469970703" stroke-width="0.0" fill="rgb(0, 0, 0)" opacity="1.0"/>
  </g>
</svg>
