<?xml version="1.0" ?>
<svg xmlns="http://www.w3.org/2000/svg" version="1.1" width="224" height="224">
  <defs/>
  <g>
    <path d="M 106.62928009033203 98.47149658203125 C 107.9795150756836 73.84583282470703 108.46019744873047 51.889854431152344 109.53931427001953 48.473236083984375 C 113.56871032714844 44.946044921875 113.83929443359375 58.63661575317383 114.5126953125 82.4912109375 C 114.49364471435547 104.91466522216797 114.60957336425781 123.16557312011719 114.58893585205078 123.64653778076172 C 114.15422058105469 123.8493881225586 114.82688903808594 128.0087127685547 115.62417602539062 132.572509765625 C 115.10768127441406 141.32618713378906 114.66598510742188 141.59353637695312 112.94918823242188 141.04986572265625 L 106.72418975830078 141.15391540527344 L 106.62928009033203 98.47149658203125" stroke-width="1.0" fill="rgb(19, 19, 20)" opacity="0.9333097"/>
    <path d="M 110.17584991455078 169.61842346191406 C 109.00038146972656 168.84280395507812 107.50718688964844 164.9565887451172 108.08678436279297 164.24964904785156 C 108.35165405273438 163.94679260253906 107.97190856933594 163.48483276367188 107.36131286621094 163.1797637939453 C 105.94794464111328 162.5706024169922 106.0870590209961 161.48748779296875 107.7490463256836 161.01678466796875 C 108.5285873413086 160.80755615234375 109.21044921875 160.89027404785156 109.151611328125 161.1967010498047 C 109.15045928955078 161.42572021484375 109.4997787475586 162.73602294921875 110.0356674194336 164.11123657226562 C 110.9224624633789 166.50885009765625 112.22435760498047 167.2567138671875 112.1738052368164 165.31643676757812 C 112.00872802734375 164.5530548095703 112.66712951660156 164.27264404296875 113.77657318115234 164.26242065429688 C 115.50702667236328 164.2402801513672 116.7784194946289 162.6206512451172 115.46056365966797 162.1459503173828 C 113.955322265625 161.74183654785156 114.50548553466797 160.7582244873047 116.04874420166016 161.07107543945312 C 117.49462127685547 161.44009399414062 117.49588012695312 161.50074768066406 116.13677978515625 164.82957458496094 C 114.45771789550781 167.96214294433594 112.7002182006836 170.31910705566406 111.6336441040039 170.3564910888672 C 111.35784912109375 170.1632843017578 110.75724029541016 169.86224365234375 110.17584991455078 169.61842346191406" stroke-width="1.0" fill="rgb(251, 254, 255)" opacity="0.91217315"/>
    <path d="M 97.67188262939453 44.081260681152344 C 95.71592712402344 40.933631896972656 100.67964935302734 40.070770263671875 106.40867614746094 42.22053527832031 L 109.6103744506836 43.234596252441406 L 105.88471221923828 44.22785949707031 C 100.38043212890625 45.23943328857422 98.52113342285156 45.196014404296875 97.67188262939453 44.081260681152344" stroke-width="1.0" fill="rgb(9, 10, 12)" opacity="0.95905286"/>
    <path d="M 108.34973907470703 194.76344299316406 C 105.40474700927734 194.9342041015625 102.5601806640625 194.17617797851562 99.20988464355469 194.082275390625 C 91.37806701660156 193.04806518554688 84.78315734863281 189.23788452148438 81.50367736816406 184.40757751464844 C 80.11680603027344 182.66732788085938 78.64046478271484 179.66700744628906 78.38265228271484 177.99343872070312 C 76.46446228027344 172.40321350097656 77.77723693847656 164.5139923095703 80.10987854003906 159.60255432128906 C 81.32836151123047 156.1959228515625 83.19120025634766 153.04917907714844 83.04248046875 150.19935607910156 C 82.0292739868164 146.46173095703125 82.19300842285156 147.00418090820312 85.11154174804688 148.1042022705078 C 88.2372817993164 147.10595703125 89.69181823730469 145.03355407714844 91.02547454833984 141.78240966796875 C 94.64680480957031 132.7649688720703 94.21551513671875 122.14944458007812 89.63847351074219 121.32672119140625 C 84.52861022949219 122.01902770996094 87.006591796875 121.0134048461914 87.35730743408203 118.25579071044922 C 87.46576690673828 115.73576354980469 85.19798278808594 112.44380950927734 84.54627990722656 109.68855285644531 C 81.28166198730469 100.66104125976562 83.7804946899414 92.56040954589844 90.11460876464844 87.63237762451172 C 93.53124237060547 84.60761260986328 102.37460327148438 82.35379028320312 106.9009017944336 82.43436431884766 L 109.19071960449219 82.603759765625 L 110.33148956298828 87.2403564453125 C 111.7376708984375 89.29374694824219 112.14048767089844 92.30731964111328 112.43608093261719 95.2645034790039 C 112.1490707397461 96.4198226928711 111.81663513183594 107.66410827636719 111.64775085449219 120.54554748535156 C 111.32722473144531 131.164306640625 111.40575408935547 141.03636169433594 111.45484161376953 140.47634887695312 C 107.1023178100586 138.3577423095703 105.84619903564453 139.7459259033203 106.97769165039062 140.71307373046875 C 103.3501205444336 141.1444549560547 102.01411437988281 140.70132446289062 102.63142395019531 142.25450134277344 C 101.53164672851562 143.7338104248047 101.87195587158203 143.25234985351562 105.63449096679688 142.96737670898438 C 107.47166442871094 143.2662353515625 109.3988265991211 142.8940887451172 111.8084716796875 143.8922576904297 C 109.07612609863281 146.67584228515625 108.34028625488281 145.9464569091797 106.0184555053711 143.1088409423828 C 108.21348571777344 142.72885131835938 110.39389038085938 143.9490509033203 111.54924011230469 143.1983642578125 C 117.82978057861328 143.02951049804688 121.32971954345703 143.6941680908203 119.60557556152344 141.82284545898438 C 120.13196563720703 140.32754516601562 117.15685272216797 141.5674591064453 112.05319213867188 140.9791717529297 L 109.79630279541016 140.6167449951172 L 109.64573669433594 132.85243225097656 C 109.90916442871094 123.08822631835938 110.00440979003906 121.82588195800781 112.22040557861328 121.17150115966797 C 116.91403198242188 123.63993072509766 117.99447631835938 123.78877258300781 117.16848754882812 124.62252807617188 C 116.59982299804688 120.4659423828125 117.86409759521484 118.06232452392578 116.34837341308594 109.70039367675781 C 114.88427734375 115.38725280761719 116.85387420654297 118.7394027709961 115.64540100097656 122.92460632324219 C 116.11766052246094 123.0505142211914 115.00751495361328 123.79839324951172 114.73284912109375 123.5462417602539 C 112.74004364013672 121.68299865722656 111.70429992675781 119.88045501708984 109.32505798339844 108.69446563720703 C 108.76518249511719 88.97692108154297 109.29503631591797 83.194091796875 112.3667984008789 87.27652740478516 C 116.30230712890625 88.64093780517578 117.62041473388672 86.53854370117188 114.33155059814453 82.92865753173828 C 118.09872436523438 82.03926086425781 127.26162719726562 83.41712951660156 131.41549682617188 86.0896987915039 C 136.2151641845703 89.14561462402344 137.92994689941406 92.48106384277344 139.30506896972656 96.75371551513672 C 140.02223205566406 100.2857666015625 140.31149291992188 106.01041412353516 136.32618713378906 114.7447738647461 C 134.16891479492188 118.4233627319336 139.97958374023438 122.39949035644531 134.2146453857422 120.3921127319336 C 128.3302459716797 121.54434967041016 128.26531982421875 134.60137939453125 133.39207458496094 143.67910766601562 C 134.51136779785156 144.73934936523438 134.2706756591797 147.1027069091797 139.35479736328125 147.6962432861328 C 141.80824279785156 145.02818298339844 137.31430053710938 149.59799194335938 142.20046997070312 156.9977264404297 C 147.53553771972656 170.539306640625 146.09304809570312 179.74868774414062 139.2399444580078 186.82122802734375 C 135.09014892578125 191.0728759765625 129.2127685546875 193.61817932128906 121.61226654052734 194.41490173339844 C 118.65469360351562 194.7535400390625 116.29907989501953 195.00079345703125 113.22496795654297 194.86465454101562 C 113.00865173339844 196.0 109.04366302490234 195.1003875732422 108.34973907470703 194.76344299316406" stroke-width="0.0" fill="rgb(6, 5, 6)" opacity="0.99233776"/>
    <path d="M 110.22244262695312 169.64205932617188 C 108.66429901123047 171.01043701171875 107.5993881225586 166.447509765625 106.4959945678711 163.96051025390625 C 105.41375732421875 160.4345703125 105.04552459716797 158.47769165039062 105.46907806396484 160.98013305664062 C 107.55269622802734 160.7391357421875 109.81006622314453 159.8588409423828 112.95879364013672 159.73922729492188 C 118.7016372680664 160.59481811523438 118.71647644042969 160.939453125 115.37186431884766 166.14724731445312 C 112.2339096069336 171.78834533691406 109.26602935791016 172.71575927734375 110.22244262695312 169.64205932617188" stroke-width="1.0" fill="rgb(184, 189, 192)" opacity="0.9607273"/>
    <path d="M 109.48931884765625 87.14013671875 C 108.76021575927734 65.56979370117188 107.85502624511719 47.216835021972656 108.51914978027344 47.37834930419922 C 114.4571533203125 46.06358337402344 114.04084777832031 48.27032470703125 114.43688201904297 66.67439270019531 C 115.20758056640625 78.58523559570312 115.476318359375 94.67790985107422 114.45875549316406 103.31759643554688 C 114.68209838867188 126.04499053955078 114.32859802246094 126.51488494873047 112.6961669921875 127.02452087402344 C 111.19932556152344 127.27383422851562 111.41616821289062 123.75396728515625 109.48931884765625 87.14013671875" stroke-width="1.0" fill="rgb(34, 35, 36)" opacity="0.9502266"/>
    <path d="M 108.99536895751953 49.766563415527344 C 108.4021987915039 49.35631561279297 107.9941177368164 45.363746643066406 108.34000396728516 40.89744567871094 C 108.70745086669922 37.0693359375 112.07984161376953 36.025611877441406 114.38490295410156 37.77806854248047 C 114.98721313476562 40.30464172363281 113.76036071777344 50.930389404296875 112.9039535522461 51.000335693359375 C 113.43602752685547 50.785072326660156 112.6792221069336 48.16224670410156 111.94511413574219 45.383575439453125 C 112.35466766357422 42.54798126220703 111.67887115478516 40.02275848388672 111.33442687988281 39.898468017578125 C 111.23062896728516 40.2099609375 110.9575424194336 42.873252868652344 111.08415222167969 46.110504150390625 C 110.38148498535156 50.734214782714844 110.38107299804688 51.69935607910156 108.99536895751953 49.766563415527344" stroke-width="1.0" fill="rgb(23, 24, 26)" opacity="0.92599815"/>
    <path d="M 108.39582061767578 92.43401336669922 C 108.40827941894531 84.36701965332031 108.5528564453125 81.80047607421875 107.00531005859375 81.64012145996094 C 106.3165054321289 82.12615966796875 105.94595336914062 82.16415405273438 107.03321838378906 82.00904846191406 C 107.33399963378906 81.76254272460938 107.45135498046875 79.14106750488281 107.57432556152344 76.06692504882812 C 107.36849975585938 73.0140151977539 107.57268524169922 69.1185302734375 108.46087646484375 68.05313110351562 C 110.08504486083984 65.19256591796875 110.09036254882812 66.58036804199219 109.9044418334961 79.50709533691406 C 109.9056167602539 87.23322296142578 109.57179260253906 95.6985092163086 109.47241973876953 98.32649230957031 C 108.55318450927734 102.40874481201172 108.33745574951172 101.20884704589844 108.39582061767578 92.43401336669922" stroke-width="1.0" fill="rgb(91, 92, 96)" opacity="0.9887231"/>
    <path d="M 116.36083221435547 40.87779998779297 C 112.10417938232422 40.743873596191406 112.43018341064453 39.41444396972656 117.0357894897461 38.722503662109375 C 122.98544311523438 37.18595886230469 125.9825439453125 37.73467254638672 125.15979766845703 40.38347625732422 C 125.14196014404297 42.304649353027344 122.26066589355469 42.36439514160156 116.36083221435547 40.87779998779297" stroke-width="1.0" fill="rgb(6, 6, 8)" opacity="0.97331345"/>
    <path d="M 107.9678726196289 35.24785614013672 C 107.70066833496094 30.32239532470703 112.46382141113281 28.0 114.42395782470703 31.97956085205078 C 115.6722640991211 32.967506408691406 116.07305145263672 34.560691833496094 115.19068908691406 35.436981201171875 C 114.75313568115234 37.14690399169922 108.01683807373047 37.176002502441406 107.9678726196289 35.24785614013672" stroke-width="1.0" fill="rgb(12, 12, 14)" opacity="0.9591199"/>
  </g>
</svg>
