<?xml version="1.0" ?>
<svg xmlns="http://www.w3.org/2000/svg" version="1.1" width="224" height="224">
  <defs/>
  <g>
    <path d="M 101.85688018798828 192.5545654296875 C 88.87370300292969 191.46951293945312 75.40126037597656 186.74545288085938 64.41482543945312 178.8758544921875 C 50.44441604614258 169.49566650390625 37.885475158691406 151.11929321289062 33.417564392089844 133.0761260986328 C 28.00000762939453 112.32923889160156 30.05571746826172 94.37958526611328 39.30851745605469 74.97502136230469 C 53.99234390258789 45.80200958251953 82.55966186523438 29.23736572265625 117.03892517089844 30.53636932373047 C 130.26187133789062 31.140419006347656 138.9400634765625 33.597869873046875 149.56822204589844 38.50263977050781 C 159.61593627929688 43.57067108154297 167.32440185546875 49.27883529663086 174.42173767089844 57.76591110229492 C 184.55267333984375 69.666748046875 190.91539001464844 83.30426025390625 193.59217834472656 99.5738525390625 C 196.0 114.25769805908203 193.96163940429688 130.25991821289062 187.4764862060547 145.53846740722656 C 180.11781311035156 163.45974731445312 163.90074157714844 179.81759643554688 145.86216735839844 187.15750122070312 C 134.2496795654297 192.37075805664062 116.379638671875 194.32827758789062 101.85688018798828 192.5545654296875" stroke-width="1.0" fill="rgb(2, 2, 2)" opacity="0.9891816"/>
    <path d="M 108.73591613769531 56.37689208984375 C 108.2608413696289 51.42805099487305 107.8838119506836 51.37479782104492 111.465576171875 49.807804107666016 C 114.82319641113281 50.788734436035156 115.14579772949219 52.24952697753906 112.42220306396484 56.840484619140625 C 110.35787200927734 63.04084014892578 108.98238372802734 62.90911865234375 108.73591613769531 56.37689208984375" stroke-width="1.0" fill="rgb(202, 206, 205)" opacity="0.9632403"/>
    <path d="M 114.34606170654297 170.86175537109375 C 114.0236587524414 169.79269409179688 113.92591094970703 166.27703857421875 114.9258804321289 162.50234985351562 C 115.14691925048828 156.56005859375 116.06669616699219 155.88253784179688 118.46791076660156 154.8165283203125 C 119.96578979492188 153.92019653320312 120.82276916503906 153.0065460205078 120.84713745117188 151.92030334472656 C 120.86170959472656 151.0432891845703 126.16972351074219 145.32359313964844 137.34153747558594 134.65541076660156 C 146.0674591064453 125.72235107421875 153.8567352294922 118.11957550048828 154.554931640625 117.37195587158203 C 155.26507568359375 116.61625671386719 156.83099365234375 115.23453521728516 158.14675903320312 115.41004943847656 C 162.1351318359375 113.93362426757812 172.67416381835938 113.09566497802734 172.95103454589844 114.2193374633789 C 173.66015625 114.9045639038086 171.62733459472656 125.90056610107422 170.36715698242188 129.55931091308594 C 169.8108367919922 131.10501098632812 169.21742248535156 132.96337890625 169.31207275390625 133.66444396972656 C 169.25387573242188 134.2386474609375 167.56231689453125 137.761474609375 165.43820190429688 141.05015563964844 C 161.50924682617188 148.34518432617188 151.4893035888672 158.67666625976562 146.7097625732422 161.92489624023438 C 145.3701171875 162.55154418945312 142.51324462890625 164.1754608154297 140.40896606445312 165.85882568359375 C 132.77157592773438 169.9142608642578 115.31080627441406 173.59713745117188 114.34606170654297 170.86175537109375" stroke-width="0.0" fill="rgb(21, 21, 21)" opacity="0.8619491"/>
    <path d="M 97.17942810058594 101.11280059814453 C 95.175537109375 99.67471313476562 89.68873596191406 90.85932922363281 87.92841339111328 88.16316223144531 C 87.59900665283203 87.26227569580078 100.08487701416016 95.73231506347656 102.71023559570312 96.92909240722656 C 103.67533111572266 98.31166076660156 103.32371520996094 99.57252502441406 103.39900207519531 100.9641342163086 C 102.78933715820312 102.50691223144531 102.16368865966797 102.888671875 100.3242416381836 103.18334197998047 C 98.84166717529297 102.68648529052734 97.25223541259766 101.94432067871094 97.17942810058594 101.11280059814453" stroke-width="1.0" fill="rgb(2, 1, 2)" opacity="0.9958705"/>
    <path d="M 50.645809173583984 105.9087142944336 C 50.11487579345703 104.33855438232422 50.905548095703125 101.2046127319336 53.699440002441406 90.59856414794922 C 55.12752914428711 85.50106811523438 57.32014846801758 79.87966918945312 57.69774627685547 76.81612396240234 C 64.6565170288086 67.77424621582031 76.76410675048828 57.97492980957031 86.33085632324219 54.716121673583984 C 90.77011108398438 54.12210464477539 93.8736572265625 53.154762268066406 93.52725982666016 51.52853775024414 C 96.96919250488281 51.19874954223633 108.90835571289062 50.4781494140625 110.2589340209961 51.44654846191406 C 110.33820343017578 51.826358795166016 110.04148864746094 54.116981506347656 109.39794921875 59.22651672363281 L 108.369140625 66.17964935302734 L 98.87454223632812 75.48452758789062 C 93.25980377197266 80.70525360107422 88.26669311523438 84.95689392089844 87.75932312011719 84.844970703125 C 86.963134765625 84.80416870117188 85.8570556640625 85.89718627929688 85.64387512207031 87.34326934814453 C 84.3704833984375 88.33401489257812 79.65513610839844 93.09455871582031 74.74800109863281 98.0104751586914 C 66.16339111328125 106.3061294555664 65.91866302490234 106.51969146728516 61.203712463378906 106.48951721191406 C 53.93260192871094 107.44371032714844 51.14167785644531 107.07865905761719 50.645809173583984 105.9087142944336" stroke-width="0.0" fill="rgb(24, 24, 24)" opacity="0.88324666"/>
    <path d="M 117.15531921386719 151.33792114257812 C 117.40077209472656 150.20860290527344 117.82254791259766 148.4372100830078 117.92150115966797 147.34471130371094 C 117.73204803466797 146.103271484375 118.54121398925781 145.14678955078125 119.25137329101562 145.07618713378906 C 121.50827026367188 145.00308227539062 128.3821258544922 142.03526306152344 131.57745361328125 139.51214599609375 L 135.79429626464844 137.465576171875 L 138.73780822753906 139.22076416015625 C 140.77525329589844 140.96392822265625 142.12445068359375 142.3118438720703 141.95916748046875 142.7338104248047 C 141.69500732421875 143.17709350585938 139.4213409423828 145.0318603515625 136.86199951171875 146.63027954101562 C 132.08946228027344 150.029541015625 123.56889343261719 153.1007537841797 119.12445068359375 153.36785888671875 C 116.51707458496094 153.4037322998047 116.28609466552734 153.20005798339844 117.15531921386719 151.33792114257812" stroke-width="1.0" fill="rgb(5, 5, 5)" opacity="1.0"/>
    <path d="M 141.4115447998047 140.0963134765625 C 137.18507385253906 134.20054626464844 137.15789794921875 134.98001098632812 140.07162475585938 130.52670288085938 C 141.53587341308594 128.4814453125 143.3888397216797 124.16202545166016 144.64341735839844 121.70600128173828 L 145.79408264160156 117.09083557128906 L 150.50949096679688 117.0025863647461 L 154.51361083984375 117.1807861328125 L 154.362060546875 119.78353881835938 C 152.934326171875 125.1522216796875 150.11949157714844 131.20108032226562 146.66554260253906 136.5052947998047 C 142.7966766357422 141.70407104492188 142.36526489257812 142.01168823242188 141.4115447998047 140.0963134765625" stroke-width="1.0" fill="rgb(1, 1, 1)" opacity="0.9972199"/>
    <path d="M 70.53021240234375 105.39835357666016 C 70.74755859375 100.55269622802734 79.42120361328125 85.1211166381836 81.95299530029297 85.11920166015625 C 82.64862060546875 85.20639038085938 85.96002197265625 90.23712921142578 85.77136993408203 90.63080596923828 C 85.53392028808594 91.0391845703125 84.34906005859375 93.22530364990234 83.16401672363281 95.03658294677734 C 81.39990234375 97.37782287597656 79.76361846923828 100.62339782714844 79.71826171875 102.84072875976562 C 78.19928741455078 105.72132873535156 77.53536987304688 106.36753845214844 75.35348510742188 106.24555206298828 C 71.77200317382812 106.9725112915039 70.58683776855469 106.8642349243164 70.53021240234375 105.39835357666016" stroke-width="1.0" fill="rgb(1, 1, 2)" opacity="1.0"/>
    <path d="M 87.00482177734375 84.59648895263672 C 85.61903381347656 83.75745391845703 84.35829162597656 82.89468383789062 84.1519775390625 82.4100112915039 C 82.86767578125 80.28837585449219 99.7599105834961 70.98405456542969 105.62706756591797 70.76602935791016 C 107.72140502929688 70.47117614746094 107.8942642211914 70.716796875 107.44068145751953 72.31809997558594 C 107.40271759033203 73.30657196044922 107.08868408203125 74.90567016601562 106.7734603881836 75.94351196289062 C 107.10308837890625 76.87614440917969 106.51945495605469 77.89335632324219 106.45152282714844 77.78204345703125 C 99.60302734375 80.71830749511719 95.85470581054688 82.59229278564453 93.39018249511719 83.93302917480469 C 90.31661987304688 86.28668212890625 90.37223052978516 86.27671813964844 87.00482177734375 84.59648895263672" stroke-width="1.0" fill="rgb(0, 0, 0)" opacity="1.0"/>
    <path d="M 110.91154479980469 184.19259643554688 C 111.30403900146484 173.61965942382812 110.7564926147461 176.79806518554688 101.05176544189453 175.28395080566406 C 86.88197326660156 172.9190673828125 73.63387298583984 166.49339294433594 64.44474792480469 155.6641845703125 C 57.02903366088867 148.46527099609375 48.602325439453125 131.46092224121094 47.73326110839844 118.025146484375 C 47.036293029785156 113.46900177001953 48.690914154052734 114.70390319824219 37.77136993408203 113.81841278076172 C 31.976417541503906 113.38605499267578 29.768478393554688 111.90345764160156 36.144256591796875 110.6900863647461 C 42.82579040527344 110.47531127929688 45.214988708496094 109.68346405029297 47.621055603027344 110.37547302246094 C 39.79179382324219 114.1399917602539 51.47480773925781 113.10538482666016 55.176963806152344 111.0925521850586 C 52.15289306640625 110.92814636230469 48.23357009887695 111.9222183227539 43.817604064941406 111.41287231445312 C 43.08637237548828 111.93379211425781 47.53919219970703 113.77920532226562 47.95281982421875 104.53477478027344 C 49.30595779418945 92.19583129882812 53.13127899169922 91.91635131835938 49.894290924072266 103.01924896240234 C 48.1341552734375 112.18618774414062 49.59794998168945 109.23819732666016 54.550750732421875 108.72996520996094 C 55.03157424926758 109.1255874633789 57.841590881347656 108.68412017822266 59.45685958862305 108.39944458007812 C 66.2838134765625 107.41829681396484 67.09327697753906 108.29903411865234 67.9804458618164 103.73995971679688 C 69.33444213867188 92.87944030761719 75.04507446289062 90.18434143066406 70.95303344726562 98.90987396240234 C 68.35181427001953 108.77875518798828 68.11287689208984 107.82527923583984 73.06205749511719 106.72431945800781 C 77.40139770507812 106.54141235351562 79.45550537109375 106.37129974365234 78.71558380126953 103.76577758789062 C 78.91851043701172 98.12275695800781 86.93141174316406 91.65650939941406 85.37716674804688 86.55411529541016 C 86.88957214355469 88.49754333496094 89.55342864990234 91.37467193603516 90.79767608642578 93.45420837402344 C 96.89366912841797 103.4119873046875 97.5308837890625 103.81574249267578 102.38795471191406 102.22112274169922 C 103.89729309082031 96.24205780029297 103.56778717041016 96.95970153808594 93.97845458984375 88.36251068115234 C 90.35774230957031 87.45561218261719 82.36918640136719 90.53477478027344 79.16012573242188 79.27236938476562 C 92.06212615966797 90.35360717773438 93.50806427001953 81.83086395263672 101.4114990234375 79.83888244628906 C 105.80609130859375 78.91191101074219 105.91236877441406 77.9930419921875 106.6273422241211 78.01194763183594 C 108.23482513427734 67.88973999023438 110.14090728759766 69.33676147460938 100.29325866699219 70.85228729248047 C 90.17536926269531 75.21630096435547 90.35736083984375 72.15768432617188 98.68363189697266 69.47406005859375 C 110.61186981201172 67.04637908935547 108.47240447998047 68.03948211669922 109.11478424072266 60.63197326660156 C 110.11985778808594 59.548213958740234 110.22421264648438 56.811073303222656 111.29301452636719 55.19849395751953 C 112.8857650756836 59.798072814941406 112.18173217773438 59.613380432128906 109.80378723144531 56.10318374633789 C 110.48697662353516 56.69575881958008 111.4013900756836 57.12220764160156 112.54291534423828 49.91230392456055 C 101.30195617675781 50.67923355102539 96.0295181274414 50.311790466308594 106.20201873779297 47.701637268066406 C 111.656005859375 49.69146728515625 110.5125961303711 46.111900329589844 110.98686981201172 39.0465087890625 L 112.89484405517578 33.31505584716797 L 112.65142822265625 38.68519592285156 C 112.75595092773438 44.707611083984375 114.36627960205078 48.99974822998047 113.23340606689453 48.01497268676758 C 113.69354248046875 47.22125244140625 116.41170501708984 47.56451416015625 122.02623748779297 48.335723876953125 C 135.1511993408203 50.497955322265625 145.28143310546875 54.98383331298828 154.8458709716797 63.01970672607422 C 159.78683471679688 67.24718475341797 166.740234375 76.5846939086914 166.9794464111328 78.13117980957031 C 168.43870544433594 79.55358123779297 169.4728240966797 80.81304931640625 168.44598388671875 80.5435791015625 C 170.7762908935547 82.1114501953125 175.56121826171875 97.18276977539062 176.3376922607422 104.64501190185547 C 177.11688232421875 111.89754486083984 175.19467163085938 109.44103240966797 182.72784423828125 110.53289794921875 C 193.55783081054688 111.68029022216797 195.3211669921875 112.22432708740234 186.23583984375 114.151123046875 C 176.469970703125 115.10558319091797 177.0099639892578 113.48296356201172 176.8673095703125 118.63713073730469 C 175.17446899414062 131.86915588378906 171.1480712890625 131.89195251464844 175.35134887695312 115.94244384765625 C 178.02284240722656 114.64115142822266 160.58120727539062 115.7574462890625 156.8129119873047 116.71125793457031 C 156.21670532226562 131.12110900878906 150.07998657226562 131.80906677246094 155.9900665283203 117.00225067138672 C 151.364013671875 116.81621551513672 149.43441772460938 117.00410461425781 147.9417266845703 117.86557006835938 C 145.4814910888672 117.78437042236328 145.72491455078125 117.3685302734375 144.90042114257812 122.15628051757812 C 143.72056579589844 126.62699890136719 141.33062744140625 130.38613891601562 138.06884765625 134.68382263183594 C 138.6433868408203 134.74044799804688 141.0777587890625 138.54656982421875 144.44662475585938 141.60850524902344 C 147.68446350097656 133.21929931640625 145.07806396484375 155.54241943359375 150.15023803710938 147.72520446777344 C 140.6427459716797 140.39501953125 134.80348205566406 156.76107788085938 135.25851440429688 148.53271484375 C 144.1566162109375 143.24810791015625 142.10597229003906 141.7462158203125 139.2177734375 140.54229736328125 C 134.37071228027344 137.7440185546875 135.18186950683594 137.036865234375 131.82666015625 140.7862091064453 C 129.00039672851562 141.73585510253906 125.06925201416016 143.83547973632812 122.05974578857422 145.37811279296875 C 117.14319610595703 145.53355407714844 117.43314361572266 144.96499633789062 116.69019317626953 154.0733642578125 C 121.03410339355469 154.9856719970703 116.5018539428711 156.29751586914062 115.49140167236328 157.96844482421875 C 115.97699737548828 162.1112823486328 114.48226928710938 164.26068115234375 113.37017059326172 169.6501922607422 C 110.86123657226562 171.9401397705078 106.66679382324219 167.42404174804688 105.53794860839844 164.38824462890625 C 107.30570983886719 160.44497680664062 107.80224609375 161.429931640625 113.60038757324219 163.544677734375 C 113.33070373535156 158.353515625 114.43279266357422 167.38278198242188 114.6319351196289 168.41542053222656 C 109.71186828613281 171.80557250976562 111.16988372802734 170.73809814453125 111.95738983154297 165.50155639648438 C 114.9908218383789 163.40118408203125 114.41996002197266 165.89447021484375 113.95182800292969 175.47769165039062 C 112.2453842163086 190.91769409179688 112.08735656738281 194.76263427734375 110.91154479980469 184.19259643554688" stroke-width="0.0" fill="rgb(222, 226, 227)" opacity="0.9490797"/>
    <path d="M 78.17960357666016 138.85194396972656 C 74.86837768554688 134.9927978515625 70.41232299804688 125.25175476074219 69.75090026855469 120.52982330322266 L 69.25895690917969 116.53064727783203 L 73.34822845458984 117.01143646240234 C 77.9826431274414 117.12051391601562 78.32197570800781 116.66173553466797 79.62681579589844 122.23754119873047 C 80.17659759521484 125.09245300292969 81.94792938232422 128.67752075195312 83.2578125 130.35101318359375 C 84.96351623535156 132.3564453125 86.44924926757812 134.18743896484375 86.04536437988281 135.0508270263672 C 85.65015411376953 135.6205596923828 84.71582794189453 137.30865478515625 83.19010925292969 138.76315307617188 L 80.49408721923828 141.8769073486328 L 78.17960357666016 138.85194396972656" stroke-width="1.0" fill="rgb(1, 1, 1)" opacity="0.99495906"/>
    <path d="M 92.47880554199219 128.5374298095703 C 96.89259338378906 121.2194595336914 97.22666931152344 119.10855865478516 99.61746215820312 120.69303894042969 C 102.6535873413086 120.79344177246094 102.33377838134766 121.33235931396484 102.45946502685547 124.04879760742188 L 103.51151275634766 129.6707763671875 L 97.59638214111328 134.6244659423828 C 91.46945190429688 135.320556640625 87.75662994384766 136.97543334960938 85.04629516601562 138.74061584472656 C 86.64460754394531 137.01132202148438 89.55623626708984 133.45986938476562 92.47880554199219 128.5374298095703" stroke-width="1.0" fill="rgb(2, 3, 3)" opacity="0.9867765"/>
    <path d="M 128.62754821777344 132.18325805664062 C 121.101806640625 127.60142517089844 120.1128921508789 127.85005187988281 121.5299301147461 125.1858139038086 C 121.57647705078125 121.1832504272461 122.224609375 120.16703033447266 125.37383270263672 120.80307006835938 C 126.1855239868164 119.26415252685547 127.91570281982422 122.73668670654297 130.54702758789062 125.87273406982422 C 135.55316162109375 133.88674926757812 137.80545043945312 136.2947540283203 138.22064208984375 137.99378967285156 C 136.36338806152344 137.22727966308594 132.9787139892578 134.5184783935547 128.62754821777344 132.18325805664062" stroke-width="1.0" fill="rgb(3, 3, 4)" opacity="0.98453057"/>
    <path d="M 108.40235900878906 157.70660400390625 C 108.4244384765625 157.11431884765625 106.83441162109375 156.39822387695312 104.39093780517578 155.74876403808594 C 100.58943939208984 154.55337524414062 100.71033477783203 154.3382110595703 104.41348266601562 154.35089111328125 C 107.02249145507812 155.111572265625 107.8659439086914 154.92955017089844 108.4203109741211 153.8812255859375 C 109.3805923461914 152.8616943359375 109.71675872802734 153.2384033203125 109.2832260131836 155.90286254882812 C 109.26441955566406 157.42323303222656 109.4840087890625 158.89120483398438 108.82197570800781 158.95388793945312 C 108.60559844970703 158.91851806640625 108.3385009765625 158.41488647460938 108.40235900878906 157.70660400390625" stroke-width="1.0" fill="rgb(238, 241, 242)" opacity="0.9949813"/>
    <path d="M 106.717529296875 147.2274169921875 C 106.55830383300781 146.42178344726562 104.47027587890625 145.1387176513672 101.73158264160156 144.12054443359375 C 98.89265441894531 143.2435302734375 94.54411315917969 141.0253143310547 92.666015625 139.1730194091797 L 87.56356048583984 136.928955078125 L 95.72975158691406 131.86732482910156 C 100.5032958984375 129.28709411621094 104.32380676269531 126.74221801757812 104.17399597167969 126.19672393798828 C 104.77723693847656 125.337158203125 105.89533233642578 129.5542449951172 107.01935577392578 134.9029083251953 C 108.41857147216797 145.49111938476562 108.66785430908203 150.8668975830078 106.717529296875 147.2274169921875" stroke-width="1.0" fill="rgb(230, 233, 233)" opacity="1.0"/>
    <path d="M 101.64178466796875 96.15394592285156 C 99.80465698242188 94.9735107421875 96.11946868896484 92.81369018554688 93.62056732177734 91.4509048461914 C 91.54011535644531 89.93296813964844 89.25297546386719 88.9676742553711 88.99800872802734 88.40467071533203 C 89.81053161621094 87.37891387939453 96.07398223876953 84.53337860107422 102.14897155761719 81.66895294189453 C 104.40819549560547 80.45065307617188 107.1038818359375 79.03024291992188 107.22505187988281 77.53749084472656 C 108.72999572753906 76.70500946044922 108.75753784179688 77.26123809814453 108.72428894042969 81.85303497314453 C 107.31484985351562 87.68610382080078 104.99861145019531 98.87825775146484 104.8269271850586 98.55938720703125 C 105.27831268310547 98.38202667236328 103.59709930419922 97.23418426513672 101.64178466796875 96.15394592285156" stroke-width="0.0" fill="rgb(230, 232, 233)" opacity="1.0"/>
    <path d="M 118.19597625732422 141.99497985839844 C 118.376953125 140.68505859375 118.85015106201172 137.55328369140625 119.31059265136719 134.66360473632812 L 120.53430938720703 129.8225555419922 L 126.4293212890625 133.21401977539062 C 130.0269317626953 134.93646240234375 132.6529998779297 136.6575469970703 132.34335327148438 137.5037078857422 C 132.03933715820312 138.53407287597656 123.44647216796875 143.07876586914062 120.46668243408203 143.343017578125 C 118.55925750732422 143.6104736328125 118.31399536132812 143.4167938232422 118.19597625732422 141.99497985839844" stroke-width="1.0" fill="rgb(109, 111, 111)" opacity="0.98616904"/>
    <path d="M 83.9404525756836 128.3640594482422 C 81.55368041992188 124.29534912109375 80.05023193359375 118.87828063964844 80.96034240722656 117.95752716064453 C 81.11669921875 117.52439880371094 94.5591812133789 119.70065307617188 95.17523193359375 120.1993637084961 C 95.41580963134766 120.76935577392578 87.41259002685547 132.3890380859375 87.14878845214844 132.34620666503906 C 86.82308959960938 132.3756866455078 85.32481384277344 130.36843872070312 83.9404525756836 128.3640594482422" stroke-width="1.0" fill="rgb(111, 111, 111)" opacity="0.9837937"/>
    <path d="M 133.1717071533203 126.63858795166016 C 131.23403930664062 123.41529846191406 129.5716094970703 120.72978973388672 129.66256713867188 120.69670104980469 C 129.68896484375 120.23738098144531 132.8002471923828 119.71096801757812 136.64793395996094 119.11477661132812 C 144.8056640625 117.67411804199219 144.82168579101562 118.20840454101562 141.54852294921875 125.61402130126953 C 138.06871032714844 133.20639038085938 137.13369750976562 133.27548217773438 133.1717071533203 126.63858795166016" stroke-width="1.0" fill="rgb(110, 111, 111)" opacity="0.98427445"/>
    <path d="M 136.29254150390625 104.9417953491211 C 133.10264587402344 104.67626953125 130.135498046875 104.08950805664062 129.39376831054688 103.79132080078125 C 129.2499542236328 102.79544067382812 134.12799072265625 95.15365600585938 136.66754150390625 92.47908782958984 C 136.4971923828125 92.03263854980469 137.92523193359375 93.13212585449219 138.9138641357422 94.85803985595703 C 141.6370849609375 98.59739685058594 143.79151916503906 104.92491912841797 143.00779724121094 105.881591796875 C 142.53858947753906 105.96640014648438 139.5423583984375 105.4913101196289 136.29254150390625 104.9417953491211" stroke-width="1.0" fill="rgb(107, 109, 110)" opacity="0.9924067"/>
    <path d="M 119.09428405761719 89.25619506835938 C 118.7609634399414 86.46620178222656 118.09026336669922 83.35086822509766 117.84403991699219 82.58012390136719 C 117.36703491210938 80.14906311035156 120.23371887207031 80.4747543334961 126.21354675292969 83.13642120361328 C 133.307861328125 86.61569213867188 133.47793579101562 87.826171875 126.57539367675781 91.03462219238281 L 119.9990234375 94.58944702148438 L 119.09428405761719 89.25619506835938" stroke-width="1.0" fill="rgb(110, 110, 110)" opacity="0.98768955"/>
    <path d="M 96.50788116455078 172.39358520507812 C 71.24238586425781 166.38739013671875 53.65084457397461 146.2896728515625 49.9343147277832 119.39823913574219 L 49.49385452270508 114.73432159423828 L 56.1027717590332 115.1772689819336 C 68.22972106933594 116.23548126220703 67.29605102539062 114.85359191894531 67.88818359375 120.85169219970703 C 69.07847595214844 126.60493469238281 72.10598754882812 133.99693298339844 76.07588195800781 138.92123413085938 L 79.65182495117188 143.08541870117188 L 76.80351257324219 145.65438842773438 C 74.52366638183594 147.728271484375 73.84194946289062 149.6457977294922 74.78793334960938 149.6456298828125 C 75.36434173583984 149.8870086669922 76.07986450195312 148.11224365234375 77.97627258300781 147.21337890625 C 81.23506927490234 143.96588134765625 80.65193176269531 144.45797729492188 84.16862487792969 147.5060577392578 C 88.35108947753906 150.529296875 95.55159759521484 154.34999084472656 101.62156677246094 155.71922302246094 C 104.64054870605469 156.42263793945312 107.5076675415039 156.69837951660156 107.76091766357422 155.97804260253906 C 108.24592590332031 157.25021362304688 110.14453887939453 172.10372924804688 110.17100524902344 174.07113647460938 C 110.15414428710938 174.3414764404297 103.74125671386719 174.0886688232422 96.50788116455078 172.39358520507812" stroke-width="1.0" fill="rgb(0, 0, 0)" opacity="0.9996469"/>
    <path d="M 105.01734924316406 154.11849975585938 C 97.54624938964844 154.13296508789062 82.43305206298828 146.00067138671875 81.99576568603516 142.53211975097656 C 82.28855895996094 142.7058868408203 83.42937469482422 141.29234313964844 85.477783203125 140.36497497558594 L 89.63993835449219 137.91030883789062 L 93.98140716552734 141.11404418945312 C 96.02058410644531 142.7228546142578 100.18045806884766 144.23170471191406 102.59671020507812 144.81216430664062 C 106.81172180175781 145.54934692382812 106.47888946533203 145.96121215820312 106.91888427734375 150.0120391845703 C 108.23509216308594 154.70571899414062 107.94485473632812 155.0572509765625 105.01734924316406 154.11849975585938" stroke-width="1.0" fill="rgb(1, 1, 1)" opacity="0.9930945"/>
    <path d="M 165.81280517578125 108.91720581054688 C 161.42498779296875 108.41608428955078 157.82412719726562 107.92276763916016 157.1231689453125 107.81655883789062 C 156.4168701171875 107.95382690429688 156.23910522460938 105.34386444091797 155.86859130859375 102.02661895751953 C 154.3436737060547 96.0632553100586 151.40573120117188 89.83805847167969 147.82534790039062 85.25785827636719 L 144.845458984375 81.48530578613281 L 147.5377197265625 77.92228698730469 C 150.52088928222656 76.30870056152344 151.07513427734375 74.37681579589844 149.12368774414062 74.2679443359375 C 148.98190307617188 74.49462890625 147.59963989257812 75.52040100097656 146.5380401611328 76.99949645996094 L 143.26487731933594 80.31194305419922 L 139.50262451171875 76.51795959472656 C 133.58721923828125 71.9371337890625 127.42356872558594 69.26072692871094 118.60040283203125 67.99657440185547 L 115.78370666503906 67.64856719970703 L 114.95286560058594 60.640846252441406 C 114.83731079101562 59.16535949707031 114.330810546875 54.23768615722656 114.02484893798828 52.48492431640625 C 113.3181381225586 50.19094467163086 113.2189712524414 49.700626373291016 116.37911224365234 50.08399963378906 C 121.08068084716797 49.800926208496094 131.63002014160156 51.98517990112305 137.18356323242188 54.59710693359375 C 150.41212463378906 59.862098693847656 161.6992950439453 70.61244201660156 167.88229370117188 83.07898712158203 C 170.12828063964844 87.37812042236328 172.21530151367188 93.81722259521484 172.95162963867188 97.07286834716797 C 174.7528076171875 103.90605926513672 175.7147216796875 110.22904968261719 174.7743682861328 109.84795379638672 C 173.49710083007812 109.86015319824219 169.87826538085938 109.26089477539062 165.81280517578125 108.91720581054688" stroke-width="1.0" fill="rgb(0, 0, 0)" opacity="0.9997153"/>
    <path d="M 149.54898071289062 106.7989501953125 C 145.53648376464844 106.86386108398438 145.43565368652344 107.16727447509766 144.24012756347656 101.99066162109375 C 143.45962524414062 99.37530517578125 141.89613342285156 95.43566131591797 140.56805419921875 93.84732055664062 L 137.46502685546875 90.07925415039062 L 139.8256072998047 86.87224578857422 C 140.7947235107422 84.89817810058594 142.42965698242188 83.85011291503906 143.44927978515625 83.09158325195312 C 145.2145538330078 83.63015747070312 149.8243865966797 90.57479858398438 152.01754760742188 96.67080688476562 C 154.59942626953125 102.03025817871094 155.688720703125 107.719970703125 154.48492431640625 107.35562133789062 C 153.60586547851562 107.1856918334961 151.64736938476562 107.09878540039062 149.54898071289062 106.7989501953125" stroke-width="1.0" fill="rgb(1, 1, 1)" opacity="0.9942007"/>
    <path d="M 121.58216094970703 102.16704559326172 C 119.58301544189453 97.00473022460938 120.52088165283203 96.36705780029297 132.77252197265625 89.53951263427734 L 138.04803466796875 86.08055877685547 L 131.87661743164062 95.36224365234375 C 126.99331665039062 104.04935455322266 124.18106079101562 105.31827545166016 121.58216094970703 102.16704559326172" stroke-width="1.0" fill="rgb(3, 4, 3)" opacity="0.98495597"/>
    <path d="M 129.96261596679688 82.88134002685547 C 127.61607360839844 81.48284912109375 123.4758529663086 79.94393920898438 121.0700912475586 79.44535827636719 L 117.15938568115234 78.56350708007812 L 116.6871337890625 74.20344543457031 C 115.89801788330078 71.85920715332031 115.95394134521484 70.34819030761719 116.37347412109375 70.17391204833984 C 117.166259765625 69.14312744140625 127.0877685546875 71.27853393554688 131.58351135253906 73.66964721679688 C 136.0830535888672 75.72138977050781 141.86122131347656 80.26702880859375 142.1346435546875 81.80441284179688 C 141.78033447265625 82.51234436035156 135.6088409423828 86.26408386230469 134.43028259277344 86.48367309570312 C 134.2823028564453 86.15525817871094 132.36428833007812 84.52507019042969 129.96261596679688 82.88134002685547" stroke-width="1.0" fill="rgb(1, 1, 1)" opacity="0.9939167"/>
    <path d="M 80.68372344970703 104.3311767578125 C 80.50028228759766 102.39558410644531 84.57453155517578 94.29273986816406 86.13008880615234 93.09312438964844 C 87.21519470214844 92.05789184570312 88.10314178466797 92.77599334716797 90.66881561279297 97.52471923828125 C 92.67767333984375 100.31494903564453 94.15753173828125 103.10962677001953 94.17048645019531 103.43971252441406 C 93.6240234375 103.69792175292969 84.60713958740234 105.36580657958984 82.52873229980469 105.36822509765625 C 81.26775360107422 105.49456787109375 80.60826873779297 105.08241271972656 80.68372344970703 104.3311767578125" stroke-width="1.0" fill="rgb(109, 110, 110)" opacity="0.9895968"/>
    <path d="M 97.36507415771484 140.83609008789062 C 94.8729476928711 139.17442321777344 92.36412811279297 137.80642700195312 91.78654479980469 136.8272247314453 C 91.91729736328125 135.91244506835938 103.03497314453125 129.3555145263672 103.50992584228516 130.39169311523438 C 103.83943176269531 131.01190185546875 105.9570083618164 141.4198455810547 105.99742889404297 142.7194366455078 C 106.18473815917969 144.1241455078125 102.44583129882812 143.38584899902344 97.36507415771484 140.83609008789062" stroke-width="1.0" fill="rgb(109, 110, 112)" opacity="0.9866287"/>
    <path d="M 111.5125503540039 170.1326141357422 C 110.58332061767578 156.96820068359375 104.23464965820312 120.63407897949219 103.07074737548828 119.21558380126953 C 101.94103240966797 119.03131103515625 81.20275115966797 115.72370147705078 64.666259765625 114.33143615722656 C 56.294986724853516 113.12645721435547 50.06544494628906 113.14494323730469 49.632652282714844 112.2992172241211 C 51.06796646118164 111.10623931884766 57.2559928894043 110.91896057128906 63.83918762207031 109.71427917480469 C 78.95768737792969 107.97753143310547 102.88719940185547 104.169921875 103.83938598632812 104.2012939453125 C 104.26657104492188 103.03608703613281 108.10091400146484 84.46633911132812 109.85602569580078 70.8565673828125 C 111.12348175048828 63.03569793701172 111.33150482177734 56.752384185791016 111.98303985595703 52.381927490234375 C 112.80003356933594 56.70695877075195 112.84907531738281 61.767208099365234 114.088134765625 68.45332336425781 C 115.49561309814453 81.55184936523438 119.62757873535156 103.3152084350586 120.69281005859375 104.38013458251953 C 121.65457916259766 104.66353607177734 129.44619750976562 106.03773498535156 155.32225036621094 109.4205322265625 C 166.94024658203125 110.70520782470703 176.52146911621094 112.02169036865234 182.5904083251953 112.31533813476562 C 177.81378173828125 112.78034973144531 175.6833038330078 112.78485870361328 169.57518005371094 113.66085052490234 C 149.47796630859375 115.08151245117188 121.64509582519531 119.45425415039062 120.58891296386719 119.62133026123047 C 119.86124420166016 121.79298400878906 116.41802978515625 138.14878845214844 114.47828674316406 155.0731201171875 C 113.03662109375 163.50794982910156 112.51607513427734 170.37307739257812 111.5125503540039 170.1326141357422" stroke-width="1.0" fill="rgb(0, 0, 0)" opacity="0.99687326"/>
    <path d="M 97.11952209472656 90.91217803955078 C 90.16728210449219 87.50456237792969 90.36270141601562 86.91539001464844 98.09366607666016 83.39533996582031 C 103.80158996582031 80.67765808105469 106.64476013183594 80.23296356201172 106.46920013427734 82.60507202148438 C 106.2617416381836 83.6119384765625 105.81690216064453 86.06568145751953 105.42003631591797 87.79006958007812 C 104.71412658691406 92.35316467285156 104.29341888427734 94.31795501708984 103.44152069091797 94.75788879394531 C 102.90372467041016 94.3604736328125 100.18647766113281 92.93798828125 97.11952209472656 90.91217803955078" stroke-width="1.0" fill="rgb(110, 110, 111)" opacity="0.9857339"/>
    <path d="M 104.5962142944336 119.68072509765625 C 102.5654067993164 116.93373107910156 102.2796630859375 115.77706146240234 101.94373321533203 112.586181640625 C 102.0347900390625 101.86024475097656 116.73218536376953 98.62287902832031 121.48302459716797 108.06487274169922 C 123.01119232177734 111.37273406982422 122.8761978149414 113.46397399902344 121.62902069091797 116.7249526977539 C 119.53155517578125 120.65571594238281 116.00393676757812 122.62458801269531 111.78909301757812 122.46170043945312 C 108.23785400390625 122.35770416259766 107.16378021240234 121.93416595458984 104.5962142944336 119.68072509765625" stroke-width="1.0" fill="rgb(236, 241, 243)" opacity="0.9955101"/>
  </g>
</svg>
