<?xml version="1.0" ?>
<svg xmlns="http://www.w3.org/2000/svg" version="1.1" width="224" height="224">
  <defs/>
  <g>
    <path d="M 42.15345001220703 97.71954345703125 C 36.597816467285156 92.10399627685547 30.663360595703125 80.3773422241211 31.530479431152344 74.75004577636719 C 30.3323974609375 74.67049407958984 30.924484252929688 72.71038818359375 30.055221557617188 69.80545043945312 C 28.250381469726562 71.634033203125 28.0 62.76987838745117 30.31475830078125 62.46215057373047 C 30.86998748779297 62.69916534423828 29.834556579589844 60.56301498413086 31.12474822998047 58.36979675292969 C 33.05677032470703 43.43189239501953 59.23706817626953 36.758304595947266 72.25769805908203 47.51920700073242 C 75.2642593383789 49.56895065307617 75.736328125 50.322486877441406 75.59996032714844 53.94340133666992 C 72.68165588378906 60.03660583496094 73.59550476074219 63.38382339477539 66.74152374267578 71.170654296875 C 64.54243469238281 73.62127685546875 63.25141143798828 78.56552124023438 62.97446060180664 81.42337799072266 C 62.56538391113281 83.20109558105469 59.17390060424805 87.55097198486328 55.953182220458984 91.42552185058594 C 52.73241424560547 94.26972198486328 50.8154411315918 98.5430679321289 51.51059341430664 98.35995483398438 C 49.511138916015625 100.81207275390625 47.51066589355469 100.13639831542969 42.15345001220703 97.71954345703125" stroke-width="0.0" fill="rgb(0, 0, 0)" opacity="1.0"/>
    <path d="M 29.603477478027344 66.87788391113281 C 29.665206909179688 63.260799407958984 29.981529235839844 62.04343032836914 30.14281463623047 63.792659759521484 C 30.23863983154297 65.49469757080078 30.62010955810547 68.33279418945312 30.589340209960938 70.08951568603516 C 30.18407440185547 71.73020935058594 29.904502868652344 70.21723175048828 29.603477478027344 66.87788391113281" stroke-width="1.0" fill="rgb(53, 49, 55)" opacity="1.0"/>
    <path d="M 175.55677795410156 96.40739440917969 C 175.24468994140625 92.20423889160156 172.32859802246094 88.54178619384766 168.631591796875 86.45902252197266 C 166.58770751953125 85.8365478515625 165.03305053710938 85.03402709960938 165.32403564453125 84.35271453857422 C 165.80560302734375 82.17491149902344 161.58522033691406 74.96292114257812 157.87432861328125 70.92922973632812 C 150.9202880859375 62.46295928955078 150.07199096679688 56.91809844970703 152.27825927734375 50.77436065673828 C 155.37152099609375 44.670066833496094 161.86328125 41.87181854248047 172.84432983398438 42.317989349365234 C 177.51895141601562 42.80389404296875 180.24185180664062 43.46125411987305 183.35211181640625 45.031856536865234 C 192.38328552246094 48.816593170166016 195.32106018066406 53.375389099121094 196.0 63.642086029052734 C 195.89053344726562 72.22261047363281 194.7769012451172 78.1930160522461 191.12738037109375 85.35181427001953 C 188.81002807617188 90.58540344238281 182.39877319335938 97.0088882446289 178.46556091308594 98.03939819335938 C 175.81707763671875 98.72811889648438 175.81472778320312 99.27806091308594 175.55677795410156 96.40739440917969" stroke-width="1.0" fill="rgb(0, 0, 0)" opacity="0.99937475"/>
    <path d="M 79.87574005126953 134.51292419433594 C 77.16414642333984 134.0025634765625 74.281982421875 132.74307250976562 72.9440689086914 132.09475708007812 C 70.01686096191406 130.6255340576172 63.59248733520508 123.54811096191406 61.043609619140625 119.07398986816406 C 58.558109283447266 115.32792663574219 57.78091049194336 108.64949035644531 58.91226577758789 104.2535629272461 C 60.089149475097656 102.0628662109375 59.985435485839844 101.01202392578125 58.35930252075195 100.22236633300781 C 57.01872634887695 99.90538024902344 55.48828125 99.40634155273438 54.364933013916016 99.36792755126953 C 53.12105941772461 99.39698028564453 51.88724899291992 99.01335144042969 51.7103385925293 98.7536392211914 C 49.77676773071289 95.87910461425781 53.33235549926758 89.43115997314453 58.18401336669922 87.46786499023438 C 60.596351623535156 86.7428970336914 61.313865661621094 85.77385711669922 61.83184051513672 84.2142333984375 C 62.50984573364258 80.82992553710938 64.67240905761719 76.40625762939453 68.99162292480469 70.8318862915039 C 71.152099609375 68.16863250732422 73.23766326904297 64.6485366821289 73.76889038085938 63.182247161865234 C 75.42839050292969 60.00702667236328 75.55490112304688 53.10629653930664 73.97477722167969 50.13226318359375 C 73.19206237792969 49.24211120605469 72.97900390625 47.94348907470703 73.2510757446289 47.14870071411133 C 73.86691284179688 47.35040283203125 75.3619613647461 48.18019104003906 76.78694152832031 48.887962341308594 L 80.25345611572266 50.922027587890625 L 85.88691711425781 48.909461975097656 C 101.88554382324219 43.41852951049805 120.9781494140625 43.116294860839844 136.80479431152344 47.93821334838867 C 144.61395263671875 51.145538330078125 146.56802368164062 51.42021179199219 148.77896118164062 49.306175231933594 C 149.48751831054688 49.26498031616211 150.41851806640625 48.5516471862793 151.98196411132812 48.027225494384766 C 151.78504943847656 49.2890510559082 151.25999450683594 51.239505767822266 150.0250244140625 53.22092819213867 C 149.1085205078125 57.727561950683594 150.37306213378906 63.46553039550781 156.78797912597656 71.30058288574219 C 162.02987670898438 78.46393585205078 161.11788940429688 79.4794692993164 163.71627807617188 81.86544799804688 C 163.62266540527344 86.29056549072266 164.4017791748047 87.06996154785156 168.16783142089844 87.63218688964844 C 172.06666564941406 89.84430694580078 174.5470733642578 93.637939453125 174.05328369140625 96.6713638305664 C 174.1908416748047 98.34888458251953 173.62808227539062 99.07931518554688 169.90875244140625 99.29476928710938 L 164.8353271484375 100.54360961914062 L 164.8809814453125 107.03048706054688 C 164.22210693359375 112.5053939819336 163.7783660888672 114.35216522216797 161.71067810058594 119.08189392089844 C 156.17164611816406 129.32325744628906 151.72308349609375 133.6640625 141.7760009765625 135.18321228027344 C 136.56643676757812 136.33389282226562 133.74839782714844 135.805908203125 131.9326171875 133.7237548828125 C 130.81460571289062 132.34664916992188 127.8401107788086 121.76651000976562 126.83746337890625 116.10552215576172 C 125.22689056396484 106.53804016113281 119.56192779541016 100.90619659423828 112.0672836303711 101.1504135131836 C 109.45698547363281 100.886474609375 104.4402847290039 103.23155975341797 102.75104522705078 105.38152313232422 C 100.77871704101562 107.28472137451172 98.61360168457031 113.04292297363281 98.11688995361328 116.73384094238281 C 97.88385009765625 118.66383361816406 97.11248016357422 122.98700714111328 95.57806396484375 126.68192291259766 C 93.36819458007812 136.64700317382812 90.1845703125 137.24078369140625 79.87574005126953 134.51292419433594" stroke-width="1.0" fill="rgb(84, 88, 84)" opacity="0.9951999"/>
    <path d="M 95.51699829101562 185.73101806640625 C 82.50916290283203 184.30685424804688 75.24563598632812 181.62925720214844 69.26776123046875 174.94906616210938 C 59.3545036315918 163.78016662597656 55.341739654541016 147.58724975585938 57.911766052246094 130.0462188720703 C 58.51230239868164 125.36567687988281 59.20148468017578 121.6722412109375 59.577396392822266 121.00330352783203 C 60.451541900634766 120.86075592041016 62.73860168457031 123.76228332519531 65.56175231933594 127.58584594726562 C 76.4854507446289 138.46180725097656 84.89606475830078 143.4294891357422 104.75296020507812 148.17254638671875 L 111.79638671875 150.3032684326172 L 121.50827026367188 148.00454711914062 C 137.13670349121094 144.2355499267578 146.9147491455078 138.39476013183594 155.2125701904297 130.64962768554688 L 159.15985107421875 126.79460144042969 L 159.83212280273438 131.13954162597656 C 160.08078002929688 136.87823486328125 159.53884887695312 146.44888305664062 157.2724151611328 154.33251953125 C 153.9376678466797 166.3634796142578 146.17971801757812 177.03369140625 137.64373779296875 180.78396606445312 C 127.54074096679688 185.7572021484375 111.71019744873047 187.24169921875 95.51699829101562 185.73101806640625" stroke-width="1.0" fill="rgb(0, 0, 0)" opacity="0.9996979"/>
    <path d="M 107.32795715332031 144.41375732421875 C 102.93086242675781 143.0954132080078 100.64585876464844 141.15292358398438 98.699951171875 137.5426025390625 C 98.11507415771484 135.24069213867188 96.89781188964844 134.0968017578125 95.6771240234375 135.1044921875 C 93.81478881835938 135.26222229003906 94.00531768798828 134.7592315673828 95.28280639648438 132.59181213378906 C 95.98418426513672 131.6945037841797 96.52099609375 130.41824340820312 96.50862884521484 128.7665557861328 C 97.15564727783203 126.91494750976562 98.05584716796875 127.56523132324219 100.7175064086914 131.08267211914062 C 103.84131622314453 134.19857788085938 106.26985931396484 135.30703735351562 106.90380859375 133.6911163330078 C 107.36943817138672 133.77793884277344 106.73355102539062 132.88699340820312 105.36752319335938 132.4398193359375 C 102.86592864990234 131.4474639892578 102.00257110595703 130.90316772460938 102.88793182373047 128.9086151123047 C 103.11508178710938 127.4239501953125 102.06436157226562 125.23530578613281 101.05101013183594 123.77709197998047 C 97.1134262084961 117.3277587890625 101.68304443359375 104.95759582519531 108.74333190917969 103.16896057128906 C 114.30572509765625 101.47655487060547 120.6827621459961 103.91171264648438 122.894287109375 109.06818389892578 C 125.43058013916016 114.01252746582031 126.42919158935547 118.33345794677734 125.29087829589844 121.99173736572266 C 124.09810638427734 123.29805755615234 122.96324920654297 125.67940521240234 122.93226623535156 127.43118286132812 C 123.51655578613281 129.6251678466797 122.55221557617188 130.84986877441406 120.58590698242188 132.20237731933594 C 117.35049438476562 133.01966857910156 116.88111114501953 134.12171936035156 118.75772094726562 134.338134765625 C 120.26722717285156 134.3729248046875 124.00089263916016 132.12420654296875 125.317138671875 129.45712280273438 L 127.71514129638672 127.1298828125 L 129.1009521484375 131.92745971679688 C 130.98538208007812 135.15072631835938 131.28128051757812 135.4630584716797 129.09689331054688 135.57569885253906 C 127.42939758300781 134.4931640625 127.20779418945312 134.93698120117188 126.7075424194336 136.49502563476562 C 125.91499328613281 139.1654815673828 122.67039489746094 142.59996032714844 119.88263702392578 143.78338623046875 C 116.40534210205078 145.53842163085938 110.63821411132812 145.80943298339844 107.32795715332031 144.41375732421875" stroke-width="1.0" fill="rgb(0, 0, 0)" opacity="0.9991276"/>
    <path d="M 75.16813659667969 56.54493713378906 C 74.93794250488281 54.833831787109375 74.4980239868164 53.904869079589844 74.01934051513672 54.3754768371582 C 74.01811981201172 54.711021423339844 73.65545654296875 55.983768463134766 73.65008544921875 57.46101760864258 C 74.04045867919922 58.74271011352539 74.36262512207031 59.61470031738281 74.72958374023438 59.476280212402344 C 75.03458404541016 59.42738723754883 75.3545150756836 58.32899475097656 75.16813659667969 56.54493713378906" stroke-width="1.0" fill="rgb(212, 214, 214)" opacity="0.92628926"/>
    <path d="M 133.26760864257812 111.05816650390625 C 128.93153381347656 109.71289825439453 128.3747100830078 108.55625915527344 129.64871215820312 103.35758972167969 C 131.31341552734375 95.63337707519531 137.32510375976562 91.41001892089844 143.1346435546875 93.90164947509766 C 146.6201171875 95.40274047851562 148.3920440673828 98.00297546386719 148.3374481201172 102.03143310546875 C 148.41680908203125 110.43923950195312 142.34683227539062 113.99471282958984 133.26760864257812 111.05816650390625" stroke-width="1.0" fill="rgb(233, 234, 234)" opacity="0.93413776"/>
    <path d="M 79.74922180175781 108.09545135498047 C 76.48945617675781 104.57915496826172 76.4078598022461 100.8353271484375 79.41309356689453 97.45960998535156 C 84.50698852539062 92.65644073486328 92.41486358642578 96.90461730957031 93.39935302734375 104.88365936279297 C 93.39531707763672 107.67646789550781 93.39088439941406 107.91101837158203 89.67985534667969 108.97595977783203 C 84.1063461303711 110.80355072021484 82.77445983886719 110.73970031738281 79.74922180175781 108.09545135498047" stroke-width="1.0" fill="rgb(5, 5, 5)" opacity="0.9773869"/>
    <path d="M 134.26202392578125 109.38195037841797 L 130.83688354492188 108.14669799804688 L 130.783203125 104.26648712158203 C 131.65138244628906 100.56098937988281 131.94284057617188 99.91984558105469 134.0964813232422 97.33917999267578 C 139.98597717285156 92.48894500732422 147.14215087890625 95.22596740722656 147.01588439941406 102.19987487792969 C 146.9324951171875 105.06299591064453 146.31028747558594 106.30299377441406 144.21424865722656 108.6865234375 C 141.14385986328125 111.26644897460938 139.272216796875 111.46785736083984 134.26202392578125 109.38195037841797" stroke-width="1.0" fill="rgb(0, 0, 0)" opacity="1.0"/>
  </g>
</svg>
