<?xml version="1.0" ?>
<svg xmlns="http://www.w3.org/2000/svg" version="1.1" width="224" height="224">
  <defs/>
  <g>
    <path d="M 195.9984130859375 108.95693969726562 C 195.9984130859375 110.99069213867188 195.9984130859375 113.02445220947266 195.9984130859375 115.0582046508789 C 195.58480834960938 119.6190185546875 192.4783935546875 121.84403228759766 189.23251342773438 124.65638732910156 C 185.62799072265625 127.77873992919922 182.02272033691406 130.90188598632812 178.418212890625 134.02426147460938 C 163.19692993164062 147.20858764648438 147.9740447998047 160.3905487060547 132.75274658203125 173.5749053955078 C 129.54830932617188 176.35060119628906 126.3438720703125 179.12628173828125 123.14022827148438 181.9019775390625 C 119.64889526367188 184.9263153076172 116.93695068359375 187.4669189453125 112.1330795288086 187.72592163085938 C 112.1330795288086 185.69216918945312 112.1330795288086 183.65760803222656 112.1330795288086 181.6238555908203 C 116.93536376953125 181.36485290527344 119.64968872070312 178.82345581054688 123.1394271850586 175.7999267578125 C 126.3438720703125 173.02423095703125 129.54830932617188 170.24853515625 132.75274658203125 167.47283935546875 C 147.97323608398438 154.28848266601562 163.1961212158203 141.10572814941406 178.418212890625 127.92139434814453 C 182.02272033691406 124.79903411865234 185.62799072265625 121.67667388916016 189.23251342773438 118.5543212890625 C 192.4783935546875 115.74275970458984 195.58480834960938 113.5169448852539 195.9984130859375 108.95693969726562 C 195.9984130859375 108.95693969726562 195.9984130859375 108.95693969726562 195.9984130859375 108.95693969726562" stroke-width="0.0" fill="rgb(161, 159, 160)" opacity="1.0" stroke="rgb(0, 0, 0)" stroke-opacity="1.0" stroke-linecap="round" stroke-linejoin="round"/>
    <path d="M 28.027877807617188 108.92825317382812 C 28.027877807617188 108.92825317382812 28.027877807617188 108.92825317382812 28.027877807617188 108.92825317382812 C 28.460609436035156 113.71379089355469 31.49371337890625 116.03125 34.908546447753906 118.99263000488281 C 38.470008850097656 122.07992553710938 42.032264709472656 125.16720581054688 45.594520568847656 128.25450134277344 C 60.63570785522461 141.28903198242188 75.68406677246094 154.31558227539062 90.72764587402344 167.346923828125 C 93.49855041503906 169.74725341796875 96.270263671875 172.14840698242188 99.04117584228516 174.5487518310547 C 101.29568481445312 176.5028076171875 103.52308654785156 178.94778442382812 106.21989440917969 180.2858123779297 C 108.09983825683594 181.2182159423828 110.06824493408203 181.481201171875 112.1330795288086 181.62704467773438 C 112.1330795288086 183.66079711914062 112.1330795288086 185.6953582763672 112.1330795288086 187.72911071777344 C 110.06903839111328 187.5816650390625 108.09983825683594 187.31869506835938 106.21989440917969 186.38629150390625 C 103.52308654785156 185.0498504638672 101.29489135742188 182.6040802001953 99.0403823852539 180.65081787109375 C 96.26947021484375 178.24966430664062 93.49775695800781 175.84854125976562 90.72684478759766 173.44818115234375 C 75.68247985839844 160.41685485839844 60.63570785522461 147.38870239257812 45.593727111816406 134.35498046875 C 42.032264709472656 131.26766967773438 38.470008850097656 128.1811981201172 34.908546447753906 125.09310913085938 C 31.4945068359375 122.13331604003906 28.461402893066406 119.81505584716797 28.027877807617188 115.03031158447266 C 28.027877807617188 112.99655151367188 28.027877807617188 110.96199798583984 28.027877807617188 108.92825317382812" stroke-width="0.0" fill="rgb(161, 159, 160)" opacity="1.0" stroke="rgb(0, 0, 0)" stroke-opacity="1.0" stroke-linecap="round" stroke-linejoin="round"/>
    <path d="M 111.79996490478516 36.27088928222656 C 111.79996490478516 36.271690368652344 111.79996490478516 36.272483825683594 111.79996490478516 36.274078369140625 C 116.76322174072266 36.546630859375 119.62419128417969 39.07049560546875 123.23426818847656 42.19683837890625 C 126.43391418457031 44.96774673461914 129.63357543945312 47.7386589050293 132.833251953125 50.50877380371094 C 148.03062438964844 63.67000961303711 163.2288055419922 76.83125305175781 178.42538452148438 89.9932861328125 C 182.42437744140625 93.45672607421875 186.42413330078125 96.92095947265625 190.42312622070312 100.38440704345703 C 193.128662109375 102.72816467285156 195.99124145507812 105.03048706054688 195.9960174560547 108.948974609375 C 196.0 112.86904907226562 193.13665771484375 115.1697769165039 190.43109130859375 117.51353454589844 C 186.42572021484375 120.98414611816406 182.42037963867188 124.45316314697266 178.41502380371094 127.92298889160156 C 162.79367065429688 141.45399475097656 147.16993713378906 154.9826202392578 131.54779052734375 168.5136260986328 C 128.34335327148438 171.289306640625 125.13890838623047 174.06500244140625 121.93527221679688 176.8415069580078 C 118.97867584228516 179.40281677246094 116.26832580566406 181.68124389648438 112.12989807128906 181.62704467773438 C 107.01681518554688 181.56089782714844 103.8785171508789 178.7437744140625 100.22541046142578 175.578369140625 C 97.45449829101562 173.17723083496094 94.68357849121094 170.77609252929688 91.91188049316406 168.37576293945312 C 76.47222900390625 155.00094604492188 61.028594970703125 141.6317138671875 45.591339111328125 128.25450134277344 C 41.63300323486328 124.82453918457031 37.67546844482422 121.39376831054688 33.718727111816406 117.96299743652344 C 30.87848663330078 115.50049591064453 28.052581787109375 113.07943725585938 28.027084350585938 108.98960876464844 C 27.99999237060547 104.659912109375 31.22673797607422 102.08264923095703 34.20087432861328 99.5077896118164 C 37.812538146972656 96.38143920898438 41.42420959472656 93.2551040649414 45.03508758544922 90.12796020507812 C 60.282676696777344 76.9268798828125 75.52867126464844 63.72420120239258 90.77386474609375 50.52072525024414 C 93.98308563232422 47.74105453491211 97.19230651855469 44.96217346191406 100.40153503417969 42.18248748779297 C 104.00204467773438 39.064117431640625 106.85025787353516 36.54264831542969 111.79996490478516 36.27088928222656 C 111.79996490478516 36.27088928222656 111.79996490478516 36.27088928222656 111.79996490478516 36.27088928222656" stroke-width="0.0" fill="rgb(222, 221, 217)" opacity="1.0" stroke="rgb(0, 0, 0)" stroke-opacity="1.0" stroke-linecap="round" stroke-linejoin="round"/>
    <path d="M 114.3485336303711 87.61843872070312 C 114.3485336303711 88.59468078613281 114.3485336303711 89.57011413574219 114.3485336303711 90.54634857177734 C 114.34774017333984 94.51424407958984 114.34535217285156 98.48294067382812 114.34215545654297 102.4508285522461 C 114.34215545654297 101.47459411621094 114.34215545654297 100.49916076660156 114.34215545654297 99.5229263305664 C 114.34535217285156 95.55502319335938 114.34774017333984 91.5871353149414 114.3485336303711 87.61843872070312 C 114.3485336303711 87.61843872070312 114.3485336303711 87.61843872070312 114.3485336303711 87.61843872070312" stroke-width="0.0" fill="rgb(78, 76, 74)" opacity="1.0" stroke="rgb(0, 0, 0)" stroke-opacity="1.0" stroke-linecap="round" stroke-linejoin="round"/>
    <path d="M 114.3485336303711 87.61843872070312 C 114.3485336303711 88.59468078613281 114.3485336303711 89.57011413574219 114.3485336303711 90.54634857177734 C 114.34774017333984 94.51424407958984 114.34535217285156 98.48294067382812 114.34215545654297 102.4508285522461 C 114.34215545654297 101.47459411621094 114.34215545654297 100.49916076660156 114.34215545654297 99.5229263305664 C 114.34535217285156 95.55502319335938 114.34774017333984 91.5871353149414 114.3485336303711 87.61843872070312 C 114.3485336303711 87.61843872070312 114.3485336303711 87.61843872070312 114.3485336303711 87.61843872070312" stroke-width="0.0" fill="rgb(78, 76, 74)" opacity="1.0" stroke="rgb(0, 0, 0)" stroke-opacity="1.0" stroke-linecap="round" stroke-linejoin="round"/>
    <path d="M 109.69368743896484 92.58090209960938 C 109.69368743896484 92.58090209960938 109.69368743896484 92.58090209960938 109.69368743896484 92.58090209960938 C 109.69448852539062 94.4289779663086 109.69368743896484 96.27625274658203 109.6968765258789 98.12351989746094 C 109.69767761230469 98.77700805664062 109.5661849975586 99.84727478027344 109.99493408203125 100.4760513305664 C 111.2644271850586 102.33846282958984 113.81619262695312 101.23711395263672 114.34535217285156 99.5229263305664 C 114.34535217285156 100.49916076660156 114.34535217285156 101.47459411621094 114.34535217285156 102.4508285522461 C 113.81619262695312 104.1650161743164 111.26522827148438 105.26477813720703 109.9957275390625 103.40396118164062 C 109.5661849975586 102.77518463134766 109.69767761230469 101.70650482177734 109.6968765258789 101.05142974853516 C 109.69368743896484 99.20415496826172 109.69448852539062 97.35688018798828 109.69368743896484 95.50880432128906 C 109.69368743896484 94.53337097167969 109.69368743896484 93.55713653564453 109.69368743896484 92.58090209960938" stroke-width="0.0" fill="rgb(78, 76, 74)" opacity="1.0" stroke="rgb(0, 0, 0)" stroke-opacity="1.0" stroke-linecap="round" stroke-linejoin="round"/>
    <path d="M 114.34215545654297 99.51973724365234 C 114.34136199951172 99.55799102783203 114.34056854248047 99.59624481201172 114.33976745605469 99.63449096679688 C 114.33976745605469 99.63449096679688 114.34215545654297 99.51973724365234 114.34215545654297 99.51973724365234" stroke-width="0.0" fill="rgb(78, 76, 74)" opacity="1.0" stroke="rgb(0, 0, 0)" stroke-opacity="1.0" stroke-linecap="round" stroke-linejoin="round"/>
    <path d="M 114.33976745605469 99.63768005371094 C 114.33976745605469 100.6139144897461 114.33976745605469 101.58935546875 114.33976745605469 102.56558990478516 C 114.21305847167969 102.88595581054688 114.08634185791016 103.2063217163086 113.95964050292969 103.52668762207031 C 113.95964050292969 102.5512466430664 113.95964050292969 101.57500457763672 113.95964050292969 100.5987777709961 C 114.08634185791016 100.27841186523438 114.21305847167969 99.95804595947266 114.33976745605469 99.63768005371094 C 114.33976745605469 99.63768005371094 114.33976745605469 99.63768005371094 114.33976745605469 99.63768005371094" stroke-width="0.0" fill="rgb(78, 76, 74)" opacity="1.0" stroke="rgb(0, 0, 0)" stroke-opacity="1.0" stroke-linecap="round" stroke-linejoin="round"/>
    <path d="M 113.95964050292969 100.5987777709961 C 113.95964050292969 101.57500457763672 113.95964050292969 102.5512466430664 113.95964050292969 103.52668762207031 C 113.82176208496094 103.6462173461914 113.68310546875 103.76576232910156 113.54523468017578 103.8844985961914 C 113.54523468017578 102.90906524658203 113.54523468017578 101.93283081054688 113.54523468017578 100.9573974609375 C 113.68310546875 100.83785247802734 113.82176208496094 100.71831512451172 113.95964050292969 100.5987777709961 C 113.95964050292969 100.5987777709961 113.95964050292969 100.5987777709961 113.95964050292969 100.5987777709961" stroke-width="0.0" fill="rgb(78, 76, 74)" opacity="1.0" stroke="rgb(0, 0, 0)" stroke-opacity="1.0" stroke-linecap="round" stroke-linejoin="round"/>
    <path d="M 113.54523468017578 100.9573974609375 C 113.54523468017578 101.93283081054688 113.54523468017578 102.90906524658203 113.54523468017578 103.8844985961914 C 113.3978042602539 103.95622253417969 113.25116729736328 104.02794647216797 113.1037368774414 104.09967041015625 C 113.1037368774414 103.1234359741211 113.1037368774414 102.14800262451172 113.1037368774414 101.17176818847656 C 113.25116729736328 101.10003662109375 113.3978042602539 101.02911376953125 113.54523468017578 100.9573974609375 C 113.54523468017578 100.9573974609375 113.54523468017578 100.9573974609375 113.54523468017578 100.9573974609375" stroke-width="0.0" fill="rgb(78, 76, 74)" opacity="1.0" stroke="rgb(0, 0, 0)" stroke-opacity="1.0" stroke-linecap="round" stroke-linejoin="round"/>
    <path d="M 113.1037368774414 101.1749496459961 C 113.1037368774414 102.15118408203125 113.1037368774414 103.12662506103516 113.1037368774414 104.10285949707031 C 112.89813232421875 104.15226745605469 112.69332122802734 104.20247650146484 112.48771667480469 104.25188446044922 C 112.48771667480469 103.27644348144531 112.48771667480469 102.30021667480469 112.48771667480469 101.32477569580078 C 112.69332122802734 101.27456665039062 112.89813232421875 101.22515869140625 113.1037368774414 101.1749496459961 C 113.1037368774414 101.1749496459961 113.1037368774414 101.1749496459961 113.1037368774414 101.1749496459961" stroke-width="0.0" fill="rgb(78, 76, 74)" opacity="1.0" stroke="rgb(0, 0, 0)" stroke-opacity="1.0" stroke-linecap="round" stroke-linejoin="round"/>
    <path d="M 112.48771667480469 101.32477569580078 C 112.48771667480469 102.30021667480469 112.48771667480469 103.27644348144531 112.48771667480469 104.25188446044922 C 108.24647521972656 104.51646423339844 109.69368743896484 98.2518310546875 109.69368743896484 95.50880432128906 C 109.69368743896484 94.53337097167969 109.69368743896484 93.55713653564453 109.69368743896484 92.58090209960938 C 109.69448852539062 95.30240631103516 108.25125122070312 101.6180419921875 112.48771667480469 101.32477569580078 C 112.48771667480469 101.32477569580078 112.48771667480469 101.32477569580078 112.48771667480469 101.32477569580078" stroke-width="0.0" fill="rgb(78, 76, 74)" opacity="1.0" stroke="rgb(0, 0, 0)" stroke-opacity="1.0" stroke-linecap="round" stroke-linejoin="round"/>
    <path d="M 112.00238800048828 67.27291870117188 C 112.00238800048828 67.27291870117188 112.00238800048828 67.27291870117188 112.00238800048828 67.27291870117188 C 115.21638488769531 67.91364288330078 114.33419036865234 71.11569213867188 114.33817291259766 73.7208480834961 C 114.34774017333984 80.29788208007812 114.34933471679688 86.87490844726562 114.34614562988281 93.45193481445312 C 114.34535217285156 95.77099609375 115.61485290527344 101.3733901977539 111.98963165283203 101.35904693603516 C 108.43215942382812 101.3447036743164 109.69209289550781 95.6952896118164 109.69209289550781 93.42564392089844 C 109.69129943847656 86.91236877441406 109.69209289550781 80.39988708496094 109.6928939819336 73.88740539550781 C 109.6928939819336 71.44721984863281 108.7859878540039 67.7486801147461 112.00238800048828 67.27291870117188 C 112.00238800048828 67.27291870117188 112.00238800048828 67.27291870117188 112.00238800048828 67.27291870117188" stroke-width="0.0" fill="rgb(123, 122, 122)" opacity="1.0" stroke="rgb(0, 0, 0)" stroke-opacity="1.0" stroke-linecap="round" stroke-linejoin="round"/>
    <path d="M 119.45125579833984 75.32505798339844 C 119.45125579833984 75.32505798339844 119.45125579833984 75.32505798339844 119.45125579833984 75.32505798339844 C 119.8441390991211 77.33331298828125 121.36387634277344 77.38591003417969 123.13703918457031 77.96607208251953 C 126.15499877929688 78.95426177978516 129.06695556640625 80.29150390625 131.71435546875 82.05191040039062 C 139.15444946289062 86.99842834472656 144.01490783691406 95.1478042602539 144.32411193847656 104.10285949707031 C 144.32411193847656 105.07909393310547 144.32411193847656 106.05532836914062 144.32411193847656 107.03076171875 C 144.01490783691406 98.0757064819336 139.15444946289062 89.92713928222656 131.71435546875 84.97982025146484 C 129.06695556640625 83.21940612792969 126.15499877929688 81.88216400146484 123.13703918457031 80.894775390625 C 121.36387634277344 80.31381225585938 119.8441390991211 80.26122283935547 119.45125579833984 78.25296020507812 C 119.45125579833984 77.27752685546875 119.45125579833984 76.3012924194336 119.45125579833984 75.32505798339844" stroke-width="0.0" fill="rgb(78, 76, 74)" opacity="1.0" stroke="rgb(0, 0, 0)" stroke-opacity="1.0" stroke-linecap="round" stroke-linejoin="round"/>
    <path d="M 144.32411193847656 104.10285949707031 C 144.32411193847656 105.07909393310547 144.32411193847656 106.05532836914062 144.32411193847656 107.03076171875 C 144.01490783691406 98.0757064819336 139.15444946289062 89.92713928222656 131.71435546875 84.97982025146484 C 129.06695556640625 83.21940612792969 126.15499877929688 81.88216400146484 123.13703918457031 80.894775390625 C 121.36387634277344 80.31381225585938 119.8441390991211 80.26122283935547 119.45125579833984 78.25296020507812 C 119.45125579833984 77.27752685546875 119.45125579833984 76.3012924194336 119.45125579833984 75.32505798339844 C 119.8441390991211 77.33331298828125 121.36387634277344 77.38591003417969 123.13703918457031 77.96607208251953 C 126.15499877929688 78.95426177978516 129.06695556640625 80.29150390625 131.71435546875 82.05191040039062 C 139.15444946289062 86.99842834472656 144.01490783691406 95.1478042602539 144.32411193847656 104.10285949707031 C 144.32411193847656 104.10285949707031 144.32411193847656 104.10285949707031 144.32411193847656 104.10285949707031" stroke-width="0.0" fill="rgb(78, 76, 74)" opacity="1.0" stroke="rgb(0, 0, 0)" stroke-opacity="1.0" stroke-linecap="round" stroke-linejoin="round"/>
    <path d="M 104.68182373046875 75.30912017822266 C 104.68182373046875 76.28535461425781 104.68182373046875 77.26158905029297 104.68182373046875 78.23703002929688 C 103.8633804321289 80.55607604980469 101.70211029052734 80.57281494140625 99.61894989013672 81.34264373779297 C 97.25286865234375 82.21766662597656 94.96011352539062 83.29193115234375 92.82514953613281 84.63873291015625 C 85.14517974853516 89.48643493652344 79.8982162475586 98.09722137451172 79.58740997314453 107.20449829101562 C 79.58740997314453 106.22905731201172 79.58740997314453 105.2528305053711 79.58740997314453 104.27738189697266 C 79.8982162475586 95.16931915283203 85.14437866210938 86.559326171875 92.82514953613281 81.71083068847656 C 94.96011352539062 80.36322784423828 97.25286865234375 79.28897094726562 99.61894989013672 78.41474151611328 C 101.70211029052734 77.64491271972656 103.8633804321289 77.628173828125 104.68182373046875 75.30912017822266 C 104.68182373046875 75.30912017822266 104.68182373046875 75.30912017822266 104.68182373046875 75.30912017822266" stroke-width="0.0" fill="rgb(78, 76, 74)" opacity="1.0" stroke="rgb(0, 0, 0)" stroke-opacity="1.0" stroke-linecap="round" stroke-linejoin="round"/>
    <path d="M 104.68182373046875 75.30912017822266 C 104.68022918701172 75.34657287597656 104.67942810058594 75.384033203125 104.67863464355469 75.4214859008789 C 104.67863464355469 75.4214859008789 104.68182373046875 75.30912017822266 104.68182373046875 75.30912017822266" stroke-width="0.0" fill="rgb(78, 76, 74)" opacity="1.0" stroke="rgb(0, 0, 0)" stroke-opacity="1.0" stroke-linecap="round" stroke-linejoin="round"/>
    <path d="M 104.67544555664062 75.42467498779297 C 104.67544555664062 76.40090942382812 104.67544555664062 77.3763427734375 104.67544555664062 78.35257720947266 C 104.51924896240234 78.73670196533203 104.36384582519531 79.12002563476562 104.20845031738281 79.50334167480469 C 104.20845031738281 78.52790832519531 104.20845031738281 77.55166625976562 104.20845031738281 76.575439453125 C 104.36384582519531 76.1921157836914 104.51924896240234 75.80799102783203 104.67544555664062 75.42467498779297 C 104.67544555664062 75.42467498779297 104.67544555664062 75.42467498779297 104.67544555664062 75.42467498779297" stroke-width="0.0" fill="rgb(78, 76, 74)" opacity="1.0" stroke="rgb(0, 0, 0)" stroke-opacity="1.0" stroke-linecap="round" stroke-linejoin="round"/>
    <path d="M 104.20845031738281 76.575439453125 C 104.20845031738281 77.55166625976562 104.20845031738281 78.52790832519531 104.20845031738281 79.50334167480469 C 104.03630828857422 79.65396118164062 103.8633804321289 79.80458068847656 103.69123840332031 79.95440673828125 C 103.69123840332031 78.97896575927734 103.69123840332031 78.00273132324219 103.69123840332031 77.02729797363281 C 103.8633804321289 76.87667846679688 104.03630828857422 76.7260513305664 104.20845031738281 76.575439453125 C 104.20845031738281 76.575439453125 104.20845031738281 76.575439453125 104.20845031738281 76.575439453125" stroke-width="0.0" fill="rgb(78, 76, 74)" opacity="1.0" stroke="rgb(0, 0, 0)" stroke-opacity="1.0" stroke-linecap="round" stroke-linejoin="round"/>
    <path d="M 103.69123840332031 77.02729797363281 C 103.69123840332031 78.00273132324219 103.69123840332031 78.97896575927734 103.69123840332031 79.95440673828125 C 103.518310546875 80.0396728515625 103.34537506103516 80.12493896484375 103.17243957519531 80.21021270751953 C 103.17243957519531 79.23397827148438 103.17243957519531 78.258544921875 103.17243957519531 77.28231048583984 C 103.34537506103516 77.19703674316406 103.518310546875 77.11256408691406 103.69123840332031 77.02729797363281 C 103.69123840332031 77.02729797363281 103.69123840332031 77.02729797363281 103.69123840332031 77.02729797363281" stroke-width="0.0" fill="rgb(78, 76, 74)" opacity="1.0" stroke="rgb(0, 0, 0)" stroke-opacity="1.0" stroke-linecap="round" stroke-linejoin="round"/>
    <path d="M 103.17243957519531 77.28231048583984 C 103.17243957519531 78.258544921875 103.17243957519531 79.23397827148438 103.17243957519531 80.21021270751953 C 101.99219512939453 80.60389709472656 100.79601287841797 80.93701171875 99.61894989013672 81.34264373779297 C 99.60858917236328 80.37120056152344 99.59822845458984 79.39974212646484 99.5878677368164 78.427490234375 C 100.77449035644531 78.01628112792969 101.98104095458984 77.6791763305664 103.17243957519531 77.28231048583984 C 103.17243957519531 77.28231048583984 103.17243957519531 77.28231048583984 103.17243957519531 77.28231048583984" stroke-width="0.0" fill="rgb(78, 76, 74)" opacity="1.0" stroke="rgb(0, 0, 0)" stroke-opacity="1.0" stroke-linecap="round" stroke-linejoin="round"/>
    <path d="M 99.5878677368164 78.42430114746094 C 99.5878677368164 79.40054321289062 99.5878677368164 80.3759765625 99.5878677368164 81.35140991210938 C 97.16840362548828 82.29496765136719 94.89875793457031 83.38597106933594 92.67692565917969 84.7311782836914 C 92.67692565917969 83.75494384765625 92.67692565917969 82.77950286865234 92.67692565917969 81.80326843261719 C 94.89875793457031 80.45805358886719 97.16840362548828 79.3670654296875 99.5878677368164 78.42430114746094 C 99.5878677368164 78.42430114746094 99.5878677368164 78.42430114746094 99.5878677368164 78.42430114746094" stroke-width="0.0" fill="rgb(78, 76, 74)" opacity="1.0" stroke="rgb(0, 0, 0)" stroke-opacity="1.0" stroke-linecap="round" stroke-linejoin="round"/>
    <path d="M 92.67692565917969 81.80326843261719 C 92.67692565917969 82.77950286865234 92.67692565917969 83.75494384765625 92.67692565917969 84.7311782836914 C 90.36344909667969 86.28438568115234 88.34483337402344 88.01212310791016 86.48561096191406 90.08891296386719 C 86.48561096191406 89.11267852783203 86.48561096191406 88.13644409179688 86.48561096191406 87.16100311279297 C 88.34483337402344 85.08501434326172 90.36504364013672 83.35807037353516 92.67692565917969 81.80326843261719 C 92.67692565917969 81.80326843261719 92.67692565917969 81.80326843261719 92.67692565917969 81.80326843261719" stroke-width="0.0" fill="rgb(78, 76, 74)" opacity="1.0" stroke="rgb(0, 0, 0)" stroke-opacity="1.0" stroke-linecap="round" stroke-linejoin="round"/>
    <path d="M 86.4887924194336 87.16100311279297 C 86.4887924194336 88.13644409179688 86.4887924194336 89.11267852783203 86.4887924194336 90.08891296386719 C 82.71614074707031 94.67920684814453 80.19625854492188 99.96123504638672 79.62725830078125 105.90151977539062 C 79.62725830078125 104.92528533935547 79.62725830078125 103.94905090332031 79.62725830078125 102.97361755371094 C 80.19706726074219 97.03253173828125 82.7169418334961 91.7520980834961 86.4887924194336 87.16100311279297 C 86.4887924194336 87.16100311279297 86.4887924194336 87.16100311279297 86.4887924194336 87.16100311279297" stroke-width="0.0" fill="rgb(78, 76, 74)" opacity="1.0" stroke="rgb(0, 0, 0)" stroke-opacity="1.0" stroke-linecap="round" stroke-linejoin="round"/>
    <path d="M 79.62725830078125 102.97042846679688 C 79.62725830078125 103.94586944580078 79.62725830078125 104.92210388183594 79.62725830078125 105.8983383178711 C 79.61450958251953 106.33345794677734 79.60096740722656 106.76937866210938 79.58740997314453 107.20449829101562 C 79.58740997314453 106.22905731201172 79.58740997314453 105.2528305053711 79.58740997314453 104.27738189697266 C 79.60096740722656 103.84306335449219 79.61450958251953 103.40794372558594 79.62725830078125 102.97361755371094 C 79.62725830078125 102.97361755371094 79.62725830078125 102.97361755371094 79.62725830078125 102.97361755371094 C 79.62725830078125 102.97361755371094 79.62725830078125 102.97042846679688 79.62725830078125 102.97042846679688" stroke-width="0.0" fill="rgb(78, 76, 74)" opacity="1.0" stroke="rgb(0, 0, 0)" stroke-opacity="1.0" stroke-linecap="round" stroke-linejoin="round"/>
    <path d="M 149.01641845703125 102.01172637939453 C 149.01641845703125 102.98796081542969 149.01641845703125 103.96419525146484 149.01641845703125 104.9404296875 C 148.7040252685547 117.71276092529297 142.2266082763672 129.02593994140625 130.6632080078125 134.84747314453125 C 111.888427734375 144.29901123046875 84.28608703613281 137.84231567382812 76.67464447021484 116.72935485839844 C 75.57011413574219 113.66517639160156 75.0903549194336 110.51493072509766 75.01066589355469 107.26984405517578 C 75.01066589355469 106.2944107055664 75.01066589355469 105.31817626953125 75.01066589355469 104.34273529052734 C 75.0903549194336 107.58702087402344 75.57011413574219 110.73726654052734 76.67464447021484 113.80145263671875 C 84.10040283203125 134.3988037109375 110.55995178222656 141.0188751220703 129.24388122558594 132.59695434570312 C 141.53805541992188 127.05433654785156 148.68807983398438 115.43993377685547 149.01641845703125 102.108154296875 C 149.01641845703125 102.108154296875 149.01641845703125 102.108154296875 149.01641845703125 102.108154296875 C 149.01641845703125 102.108154296875 149.01641845703125 102.01172637939453 149.01641845703125 102.01172637939453" stroke-width="0.0" fill="rgb(78, 76, 74)" opacity="1.0" stroke="rgb(0, 0, 0)" stroke-opacity="1.0" stroke-linecap="round" stroke-linejoin="round"/>
    <path d="M 149.01641845703125 102.01172637939453 C 149.01641845703125 102.98796081542969 149.01641845703125 103.96419525146484 149.01641845703125 104.9404296875 C 149.00526428222656 105.6887435913086 148.98374938964844 106.43785858154297 148.95106506347656 107.18616485595703 C 148.95106506347656 106.20913696289062 148.95106506347656 105.23210906982422 148.95106506347656 104.25507354736328 C 148.98374938964844 103.50755310058594 149.00526428222656 102.76004028320312 149.01641845703125 102.01172637939453 C 149.01641845703125 102.01172637939453 149.01641845703125 102.01172637939453 149.01641845703125 102.01172637939453" stroke-width="0.0" fill="rgb(78, 76, 74)" opacity="1.0" stroke="rgb(0, 0, 0)" stroke-opacity="1.0" stroke-linecap="round" stroke-linejoin="round"/>
    <path d="M 148.95106506347656 104.25507354736328 C 148.95106506347656 105.23130798339844 148.95106506347656 106.20674896240234 148.95106506347656 107.1829833984375 C 148.35098266601562 114.4238510131836 145.91000366210938 120.87098693847656 141.3276824951172 126.52995300292969 C 141.3276824951172 125.55371856689453 141.3276824951172 124.57828521728516 141.3276824951172 123.60205078125 C 145.91000366210938 117.94307708740234 148.35098266601562 111.4959487915039 148.95106506347656 104.25507354736328 C 148.95106506347656 104.25507354736328 148.95106506347656 104.25507354736328 148.95106506347656 104.25507354736328" stroke-width="0.0" fill="rgb(78, 76, 74)" opacity="1.0" stroke="rgb(0, 0, 0)" stroke-opacity="1.0" stroke-linecap="round" stroke-linejoin="round"/>
    <path d="M 141.3276824951172 123.60205078125 C 141.3276824951172 124.57828521728516 141.3276824951172 125.55371856689453 141.3276824951172 126.52995300292969 C 139.09547424316406 129.0474395751953 136.64971923828125 131.16249084472656 133.85409545898438 133.0328826904297 C 133.85409545898438 132.056640625 133.85409545898438 131.08041381835938 133.85409545898438 130.10496520996094 C 136.64971923828125 128.23377990722656 139.09547424316406 126.11953735351562 141.3276824951172 123.60205078125 C 141.3276824951172 123.60205078125 141.3276824951172 123.60205078125 141.3276824951172 123.60205078125" stroke-width="0.0" fill="rgb(78, 76, 74)" opacity="1.0" stroke="rgb(0, 0, 0)" stroke-opacity="1.0" stroke-linecap="round" stroke-linejoin="round"/>
    <path d="M 133.85409545898438 130.108154296875 C 133.85409545898438 131.08360290527344 133.85409545898438 132.05982971191406 133.85409545898438 133.03607177734375 C 131.5645294189453 134.42750549316406 129.23272705078125 135.57186889648438 126.73834228515625 136.54891967773438 C 126.73834228515625 135.5726776123047 126.73834228515625 134.596435546875 126.73834228515625 133.62100219726562 C 129.23272705078125 132.6439666748047 131.5645294189453 131.4995880126953 133.85409545898438 130.108154296875 C 133.85409545898438 130.108154296875 133.85409545898438 130.108154296875 133.85409545898438 130.108154296875" stroke-width="0.0" fill="rgb(78, 76, 74)" opacity="1.0" stroke="rgb(0, 0, 0)" stroke-opacity="1.0" stroke-linecap="round" stroke-linejoin="round"/>
    <path d="M 126.73834228515625 133.62100219726562 C 126.73834228515625 134.596435546875 126.73834228515625 135.5726776123047 126.73834228515625 136.54891967773438 C 123.80247497558594 137.5713653564453 120.84030151367188 138.2766571044922 117.76734924316406 138.73886108398438 C 117.76734924316406 137.763427734375 117.76734924316406 136.78720092773438 117.76734924316406 135.8109588623047 C 120.8418960571289 135.34873962402344 123.80406188964844 134.6426544189453 126.74153137207031 133.62100219726562 C 126.74153137207031 133.62100219726562 126.74153137207031 133.62100219726562 126.74153137207031 133.62100219726562 C 126.74153137207031 133.62100219726562 126.73834228515625 133.62100219726562 126.73834228515625 133.62100219726562" stroke-width="0.0" fill="rgb(78, 76, 74)" opacity="1.0" stroke="rgb(0, 0, 0)" stroke-opacity="1.0" stroke-linecap="round" stroke-linejoin="round"/>
    <path d="M 117.76416778564453 135.8109588623047 C 117.76416778564453 136.78720092773438 117.76416778564453 137.763427734375 117.76416778564453 138.73886108398438 C 100.80557250976562 140.791748046875 81.55661010742188 132.8543701171875 76.22677612304688 115.38494110107422 C 75.41789245605469 112.73197174072266 75.0792007446289 110.03756713867188 75.01066589355469 107.27303314208984 C 75.01066589355469 106.29759216308594 75.01066589355469 105.32135772705078 75.01066589355469 104.3459243774414 C 75.0792007446289 107.11045837402344 75.41789245605469 109.80406951904297 76.22677612304688 112.45703125 C 81.55900573730469 129.93521118164062 100.80477142333984 137.85348510742188 117.76734924316406 135.8109588623047 C 117.76734924316406 135.8109588623047 117.76734924316406 135.8109588623047 117.76734924316406 135.8109588623047 C 117.76734924316406 135.8109588623047 117.76416778564453 135.8109588623047 117.76416778564453 135.8109588623047" stroke-width="0.0" fill="rgb(78, 76, 74)" opacity="1.0" stroke="rgb(0, 0, 0)" stroke-opacity="1.0" stroke-linecap="round" stroke-linejoin="round"/>
    <path d="M 102.38189697265625 73.2865219116211 C 102.38189697265625 73.2865219116211 102.38189697265625 73.2865219116211 102.38189697265625 73.2865219116211 C 103.8075942993164 73.68577575683594 105.7712173461914 74.98875427246094 104.12796020507812 76.66310119628906 C 103.29357147216797 77.51261901855469 101.80013275146484 77.67837524414062 100.72667694091797 78.03141784667969 C 98.89932250976562 78.63230895996094 97.11500549316406 79.37025451660156 95.40241241455078 80.24527740478516 C 90.39532470703125 82.8026123046875 86.3947525024414 86.56968688964844 83.48916625976562 91.3775405883789 C 81.61957550048828 94.4712142944336 80.2400894165039 97.89161682128906 79.76751708984375 101.49053955078125 C 78.53865814208984 110.84645080566406 83.97449493408203 120.00552368164062 91.20579528808594 125.57762145996094 C 108.07273864746094 138.57229614257812 138.56472778320312 131.62789916992188 143.68817138671875 109.51319885253906 C 146.03591918945312 99.3786849975586 141.14199829101562 88.98676300048828 132.95755004882812 82.92932891845703 C 130.4360809326172 81.06292724609375 127.62692260742188 79.60933685302734 124.6910400390625 78.51435852050781 C 123.30519104003906 77.99714660644531 121.480224609375 77.7684326171875 120.23384094238281 76.94600677490234 C 118.48617553710938 75.79205322265625 119.79154205322266 73.16777801513672 121.7471923828125 73.33673095703125 C 125.59715270996094 73.66984558105469 129.56185913085938 75.68606567382812 132.85235595703125 77.61622619628906 C 140.92283630371094 82.35075378417969 147.4703826904297 90.60213470458984 148.85543823242188 100.02259826660156 C 150.8684844970703 113.70741271972656 141.2886199951172 127.16828918457031 129.2470703125 132.59695434570312 C 111.73700714111328 140.48971557617188 87.93362426757812 135.36468505859375 78.43186950683594 117.71994018554688 C 73.28292846679688 108.15762329101562 74.13404846191406 96.25154113769531 80.40187072753906 87.40327453613281 C 83.37759399414062 83.20347595214844 87.41242980957031 79.86992645263672 91.82819366455078 77.27433776855469 C 95.06451416015625 75.37287139892578 98.653076171875 73.81886291503906 102.38826751708984 73.2865219116211 C 102.38826751708984 73.2865219116211 102.38826751708984 73.2865219116211 102.38826751708984 73.2865219116211 C 102.38826751708984 73.2865219116211 102.38189697265625 73.2865219116211 102.38189697265625 73.2865219116211" stroke-width="0.0" fill="rgb(123, 122, 122)" opacity="1.0" stroke="rgb(0, 0, 0)" stroke-opacity="1.0" stroke-linecap="round" stroke-linejoin="round"/>
  </g>
</svg>
