<?xml version="1.0" ?>
<svg xmlns="http://www.w3.org/2000/svg" version="1.1" width="224" height="224">
  <defs/>
  <g>
    <path d="M 195.99839782714844 108.95527648925781 C 195.99839782714844 110.98907470703125 195.99839782714844 113.02286529541016 195.99839782714844 115.05665588378906 C 195.5847930908203 119.6175537109375 192.4783172607422 121.84262084960938 189.2323760986328 124.65502166748047 C 185.6278076171875 127.77743530273438 182.0224609375 130.90065002441406 178.41787719726562 134.0230712890625 C 163.19630432128906 147.20765686035156 147.97312927246094 160.38986206054688 132.7515411376953 173.574462890625 C 129.5470428466797 176.3502197265625 126.3425521850586 179.12594604492188 123.13884735107422 181.90170288085938 C 119.64744567871094 184.92608642578125 116.93545532226562 187.46673583984375 112.1314926147461 187.72573852539062 C 112.1314926147461 185.69195556640625 112.1314926147461 183.65736389160156 112.1314926147461 181.62356567382812 C 116.9338607788086 181.36456298828125 119.64824676513672 178.8231201171875 123.13804626464844 175.79953002929688 C 126.3425521850586 173.02377319335938 129.5470428466797 170.24803161621094 132.7515411376953 167.4722900390625 C 147.97232055664062 154.28768920898438 163.19549560546875 141.10467529296875 178.41787719726562 127.92008972167969 C 182.0224609375 124.79767608642578 185.6278076171875 121.67525482177734 189.2323760986328 118.55284118652344 C 192.4783172607422 115.7412338256836 195.5847930908203 113.51537322998047 195.99839782714844 108.95527648925781 C 195.99839782714844 108.95527648925781 195.99839782714844 108.95527648925781 195.99839782714844 108.95527648925781" stroke-width="0.0" fill="rgb(228, 93, 79)" opacity="1.0"/>
    <path d="M 28.024703979492188 108.92658996582031 C 28.024703979492188 108.92658996582031 28.024703979492188 108.92658996582031 28.024703979492188 108.92658996582031 C 28.457435607910156 113.7130126953125 31.4906005859375 116.02972412109375 34.905494689941406 118.99036407470703 C 38.467018127441406 122.07771301269531 42.02935028076172 125.1650619506836 45.59088134765625 128.25161743164062 C 60.633148193359375 141.28639221191406 75.6801986694336 154.31478881835938 90.724853515625 167.34637451171875 C 93.49581909179688 169.7467498779297 96.26758575439453 172.14793395996094 99.03854370117188 174.54833984375 C 101.29389190673828 176.50242614746094 103.5213394165039 178.9474334716797 106.21819305419922 180.28550720214844 C 108.0981674194336 181.21792602539062 110.06661987304688 181.4809112548828 112.1314926147461 181.6267547607422 C 112.1314926147461 183.66055297851562 112.1314926147461 185.6951446533203 112.1314926147461 187.72894287109375 C 110.06741333007812 187.5814971923828 108.0981674194336 187.31851196289062 106.21819305419922 186.38607788085938 C 103.5213394165039 185.04962158203125 101.2930908203125 182.60382080078125 99.03854370117188 180.6505126953125 C 96.26758575439453 178.24932861328125 93.49581909179688 175.84814453125 90.724853515625 173.44775390625 C 75.6801986694336 160.41616821289062 60.633148193359375 147.3877716064453 45.59088134765625 134.35379028320312 C 42.02935028076172 131.2664337158203 38.467018127441406 128.17990112304688 34.905494689941406 125.09175109863281 C 31.49139404296875 122.13190460205078 28.458236694335938 119.8135986328125 28.024703979492188 115.02877044677734 C 28.024703979492188 112.9949722290039 28.024703979492188 110.96038055419922 28.024703979492188 108.92658996582031" stroke-width="0.0" fill="rgb(228, 93, 79)" opacity="1.0"/>
    <path d="M 111.79837036132812 36.27104949951172 C 111.79837036132812 36.27104949951172 111.79837036132812 36.27104949951172 111.79837036132812 36.27104949951172 C 116.76171875 36.54359436035156 119.62274169921875 39.06751251220703 123.2328872680664 42.19391632080078 C 126.43260192871094 44.964874267578125 129.63232421875 47.73583984375 132.83204650878906 50.506011962890625 C 148.0297088623047 63.66749572753906 163.22817993164062 76.8289794921875 178.425048828125 89.99126434326172 C 182.42410278320312 93.45477294921875 186.4239501953125 96.91907501220703 190.42300415039062 100.38258361816406 C 193.1286163330078 102.72638702392578 195.99124145507812 105.02874755859375 195.9960174560547 108.94731140136719 C 196.0 112.86746215820312 193.1365966796875 115.1682357788086 190.43096923828125 117.51203155517578 C 186.425537109375 120.98271179199219 182.4201202392578 124.45179748535156 178.41470336914062 127.92168426513672 C 162.7930450439453 141.4529571533203 147.16900634765625 154.98182678222656 131.54656982421875 168.51309204101562 C 128.34207153320312 171.28883361816406 125.1375732421875 174.0645751953125 121.93386840820312 176.84112548828125 C 118.97881317138672 179.40089416503906 116.26762390136719 181.6809539794922 112.1314926147461 181.6267547607422 C 107.01831817626953 181.56060791015625 103.87995910644531 178.74342346191406 100.22598266601562 175.57797241210938 C 97.45502471923828 173.17678833007812 94.6840591430664 170.77560424804688 91.91229248046875 168.37521362304688 C 76.47235107421875 155.00015258789062 61.02922821044922 141.6290740966797 45.59088134765625 128.25161743164062 C 41.633270263671875 124.82238006591797 37.6756591796875 121.39234161376953 33.718849182128906 117.96150970458984 C 30.87854766845703 115.49896240234375 28.052597045898438 113.0778579711914 28.02709197998047 108.98795318603516 C 28.0 104.65817260742188 31.22601318359375 102.08085632324219 34.2001953125 99.50595092773438 C 37.81194305419922 96.38034057617188 41.422882080078125 93.25394439697266 45.03461456298828 90.1275405883789 C 60.28169631958008 76.92620849609375 75.52638244628906 63.72407913208008 90.7718734741211 50.521148681640625 C 93.98115539550781 47.741424560546875 97.19043731689453 44.962486267089844 100.39971923828125 42.18275451660156 C 104.00029754638672 39.06432342529297 106.84857177734375 36.54280090332031 111.79837036132812 36.27104949951172 C 111.79837036132812 36.27104949951172 111.79837036132812 36.27104949951172 111.79837036132812 36.27104949951172" stroke-width="0.0" fill="rgb(241, 159, 156)" opacity="1.0"/>
    <path d="M 155.3998260498047 91.49349975585938 C 155.3998260498047 92.3717269897461 155.3998260498047 93.24995422363281 155.3998260498047 94.12818908691406 C 155.3695526123047 96.47676849365234 155.20457458496094 98.72653198242188 154.48654174804688 100.98028564453125 C 151.85902404785156 109.22464752197266 143.60031127929688 115.6989974975586 135.40536499023438 117.83001708984375 C 132.43516540527344 118.60224914550781 129.45938110351562 118.72418212890625 126.41028594970703 118.75924682617188 C 123.43769836425781 118.79351806640625 120.55436706542969 118.70027923583984 117.65668487548828 117.96389770507812 C 115.99427032470703 117.54072570800781 113.89990997314453 116.20425415039062 112.39608001708984 117.22513580322266 C 112.39608001708984 116.34690856933594 112.39608001708984 115.46868133544922 112.39608001708984 114.58965301513672 C 113.90070343017578 113.56877136230469 115.99346923828125 114.90603637695312 117.65668487548828 115.32841491699219 C 120.55596160888672 116.0647964477539 123.43610382080078 116.15325164794922 126.41028594970703 116.12455749511719 C 129.45938110351562 116.09427642822266 132.4359588623047 115.96995544433594 135.40536499023438 115.19771575927734 C 143.6011199951172 113.06590270996094 151.85902404785156 106.59234619140625 154.48654174804688 98.3471908569336 C 155.20457458496094 96.09423828125 155.3695526123047 93.84447479248047 155.3998260498047 91.49668884277344 C 155.3998260498047 91.49668884277344 155.3998260498047 91.49668884277344 155.3998260498047 91.49668884277344 C 155.3998260498047 91.49668884277344 155.3998260498047 91.49349975585938 155.3998260498047 91.49349975585938" stroke-width="0.0" fill="rgb(239, 147, 144)" opacity="1.0"/>
    <path d="M 99.05687713623047 101.82026672363281 C 99.05687713623047 102.69928741455078 99.05687713623047 103.5775146484375 99.05687713623047 104.45574951171875 C 98.0766372680664 101.23928833007812 96.86688232421875 98.70661163330078 96.72980499267578 95.24629211425781 C 96.72980499267578 94.36726379394531 96.72980499267578 93.4890365600586 96.72980499267578 92.61001586914062 C 96.86688232421875 96.0719223022461 98.07743072509766 98.60380554199219 99.05687713623047 101.82026672363281 C 99.05687713623047 101.82026672363281 99.05687713623047 101.82026672363281 99.05687713623047 101.82026672363281" stroke-width="0.0" fill="rgb(221, 73, 70)" opacity="1.0"/>
    <path d="M 155.3440399169922 93.71855926513672 C 155.3440399169922 94.59678649902344 155.3440399169922 95.47501373291016 155.3440399169922 96.3532485961914 C 154.91847229003906 100.81292724609375 153.3214111328125 104.568115234375 150.54327392578125 108.06828308105469 C 150.54327392578125 107.18925476074219 150.54327392578125 106.31101989746094 150.54327392578125 105.43280029296875 C 153.322998046875 101.93342590332031 154.9176788330078 98.17823791503906 155.3440399169922 93.71855926513672 C 155.3440399169922 93.71855926513672 155.3440399169922 93.71855926513672 155.3440399169922 93.71855926513672" stroke-width="0.0" fill="rgb(220, 70, 68)" opacity="1.0"/>
    <path d="M 143.01934814453125 111.93902587890625 C 143.01934814453125 112.81725311279297 143.01934814453125 113.69548797607422 143.01934814453125 114.57371520996094 C 141.4127197265625 115.54119873046875 139.7813720703125 116.31343841552734 138.0376739501953 117.00437927246094 C 138.0376739501953 116.12615203857422 138.0376739501953 115.24713134765625 138.0376739501953 114.368896484375 C 139.7813720703125 113.67794799804688 141.4119110107422 112.90571594238281 143.01934814453125 111.93902587890625 C 143.01934814453125 111.93902587890625 143.01934814453125 111.93902587890625 143.01934814453125 111.93902587890625" stroke-width="0.0" fill="rgb(220, 70, 68)" opacity="1.0"/>
    <path d="M 103.00253295898438 122.66426086425781 C 103.00253295898438 123.54328918457031 103.00253295898438 124.42151641845703 103.00253295898438 125.29974365234375 C 102.37055969238281 125.8384780883789 101.73858642578125 126.37801361083984 101.10740661621094 126.91754150390625 C 101.10740661621094 126.039306640625 101.10740661621094 125.16107177734375 101.10740661621094 124.28205108642578 C 101.73858642578125 123.74252319335938 102.37055969238281 123.20379638671875 103.00253295898438 122.66426086425781 C 103.00253295898438 122.66426086425781 103.00253295898438 122.66426086425781 103.00253295898438 122.66426086425781" stroke-width="0.0" fill="rgb(220, 74, 72)" opacity="1.0"/>
    <path d="M 104.74224853515625 131.1245880126953 C 104.74224853515625 132.00282287597656 104.74224853515625 132.88104248046875 104.74224853515625 133.75927734375 C 104.6657485961914 134.58489990234375 104.46650695800781 135.12364196777344 104.04174041748047 135.8385009765625 C 104.04174041748047 134.96026611328125 104.04174041748047 134.08123779296875 104.04174041748047 133.20301818847656 C 104.46492004394531 132.48895263671875 104.6657485961914 131.94862365722656 104.74224853515625 131.1245880126953 C 104.74224853515625 131.1245880126953 104.74224853515625 131.1245880126953 104.74224853515625 131.1245880126953" stroke-width="0.0" fill="rgb(221, 73, 70)" opacity="1.0"/>
    <path d="M 104.04174041748047 133.1998291015625 C 104.04174041748047 134.0780487060547 104.04174041748047 134.95709228515625 104.04174041748047 135.83529663085938 C 103.34043884277344 136.5477752685547 102.5777587890625 137.178955078125 101.80074310302734 137.80455017089844 C 101.80074310302734 136.9263153076172 101.80074310302734 136.04808044433594 101.80074310302734 135.16986083984375 C 102.57696533203125 134.54347229003906 103.34043884277344 133.91229248046875 104.04174041748047 133.1998291015625 C 104.04174041748047 133.1998291015625 104.04174041748047 133.1998291015625 104.04174041748047 133.1998291015625" stroke-width="0.0" fill="rgb(220, 70, 68)" opacity="1.0"/>
    <path d="M 150.54327392578125 105.43280029296875 C 150.54327392578125 106.31101989746094 150.54327392578125 107.18925476074219 150.54327392578125 108.06828308105469 C 148.30226135253906 110.54119110107422 145.77914428710938 112.70010375976562 143.01934814453125 114.57371520996094 C 143.01934814453125 113.69548797607422 143.01934814453125 112.81725311279297 143.01934814453125 111.93902587890625 C 145.77914428710938 110.06542205810547 148.30226135253906 107.90570068359375 150.54327392578125 105.43280029296875 C 150.54327392578125 105.43280029296875 150.54327392578125 105.43280029296875 150.54327392578125 105.43280029296875" stroke-width="0.0" fill="rgb(220, 70, 68)" opacity="1.0"/>
    <path d="M 138.0376739501953 114.37208557128906 C 138.0376739501953 115.25031280517578 138.0376739501953 116.12934112548828 138.0376739501953 117.00757598876953 C 136.08514404296875 117.66664123535156 134.1653289794922 118.14400482177734 132.13153076171875 118.47633361816406 C 132.13153076171875 117.59810638427734 132.13153076171875 116.71907806396484 132.13153076171875 115.84085083007812 C 134.16453552246094 115.50772857666016 136.08514404296875 115.02877044677734 138.0376739501953 114.37208557128906 C 138.0376739501953 114.37208557128906 138.0376739501953 114.37208557128906 138.0376739501953 114.37208557128906" stroke-width="0.0" fill="rgb(220, 70, 68)" opacity="1.0"/>
    <path d="M 101.8039321899414 135.16986083984375 C 101.8039321899414 136.04808044433594 101.8039321899414 136.9263153076172 101.8039321899414 137.80455017089844 C 101.6612777709961 137.8770751953125 101.51782989501953 137.9495849609375 101.37517547607422 138.02291870117188 C 101.37517547607422 137.1438751220703 101.37517547607422 136.26565551757812 101.37517547607422 135.3866424560547 C 101.51782989501953 135.31411743164062 101.6612777709961 135.2423858642578 101.8039321899414 135.16986083984375 C 101.8039321899414 135.16986083984375 101.8039321899414 135.16986083984375 101.8039321899414 135.16986083984375" stroke-width="0.0" fill="rgb(220, 70, 68)" opacity="1.0"/>
    <path d="M 132.13153076171875 115.84085083007812 C 132.13153076171875 116.71907806396484 132.13153076171875 117.59810638427734 132.13153076171875 118.47633361816406 C 128.35482788085938 118.9058837890625 124.16769409179688 119.06448364257812 120.39497375488281 118.53131866455078 C 117.90613555908203 118.18067169189453 115.59977722167969 117.1932601928711 113.1547622680664 116.70552825927734 C 113.11810302734375 115.83049011230469 113.08065032958984 114.95465087890625 113.0431900024414 114.07960510253906 C 115.53363037109375 114.47090911865234 117.87823486328125 115.54358673095703 120.39657592773438 115.89903259277344 C 124.1692886352539 116.43218231201172 128.35800170898438 116.27598571777344 132.1347198486328 115.84722900390625 C 132.1347198486328 115.84722900390625 132.1347198486328 115.84722900390625 132.1347198486328 115.84722900390625 C 132.1347198486328 115.84722900390625 132.13153076171875 115.84085083007812 132.13153076171875 115.84085083007812" stroke-width="0.0" fill="rgb(220, 70, 68)" opacity="1.0"/>
    <path d="M 115.44198608398438 123.3671646118164 C 115.44198608398438 124.24539184570312 115.44198608398438 125.12442779541016 115.44198608398438 126.00264739990234 C 114.71039581298828 126.72946166992188 113.911865234375 127.36940002441406 113.0989761352539 128.00057983398438 C 113.0989761352539 127.12234497070312 113.0989761352539 126.24332427978516 113.0989761352539 125.3650894165039 C 113.91106414794922 124.73312377929688 114.71118927001953 124.09317779541016 115.44198608398438 123.3671646118164 C 115.44198608398438 123.3671646118164 115.44198608398438 123.3671646118164 115.44198608398438 123.3671646118164" stroke-width="0.0" fill="rgb(220, 70, 68)" opacity="1.0"/>
    <path d="M 112.0223159790039 125.74763488769531 C 112.0223159790039 126.62665557861328 112.0223159790039 127.50489044189453 112.0223159790039 128.3831024169922 C 109.90164947509766 128.5257568359375 107.31558227539062 128.86207580566406 105.45153045654297 127.5758056640625 C 104.56373596191406 126.96376037597656 103.79867553710938 126.02735900878906 103.00253295898438 125.29974365234375 C 103.00253295898438 124.42151641845703 103.00253295898438 123.54328918457031 103.00253295898438 122.66426086425781 C 103.79867553710938 123.3918685913086 104.56373596191406 124.32907104492188 105.45153045654297 124.94192504882812 C 107.31318664550781 126.22737884521484 109.90325164794922 125.88948059082031 112.0223159790039 125.74763488769531 C 112.0223159790039 125.74763488769531 112.0223159790039 125.74763488769531 112.0223159790039 125.74763488769531" stroke-width="0.0" fill="rgb(220, 70, 68)" opacity="1.0"/>
    <path d="M 101.37199401855469 135.3866424560547 C 101.37199401855469 136.26565551757812 101.37199401855469 137.1438751220703 101.37199401855469 138.02291870117188 C 101.19347381591797 138.06515502929688 101.01496124267578 138.10739135742188 100.83644104003906 138.15042114257812 C 100.83723449707031 137.27139282226562 100.83883666992188 136.39317321777344 100.83963012695312 135.51412963867188 C 101.01815032958984 135.47190856933594 101.19666290283203 135.42967224121094 101.37517547607422 135.3866424560547 C 101.37517547607422 135.3866424560547 101.37517547607422 135.3866424560547 101.37517547607422 135.3866424560547 C 101.37517547607422 135.3866424560547 101.37199401855469 135.3866424560547 101.37199401855469 135.3866424560547" stroke-width="0.0" fill="rgb(220, 70, 68)" opacity="1.0"/>
    <path d="M 113.0989761352539 125.3682861328125 C 113.0989761352539 126.24650573730469 113.0989761352539 127.12553405761719 113.0989761352539 128.00376892089844 C 112.93959045410156 128.08346557617188 112.77940368652344 128.16314697265625 112.6200180053711 128.24285888671875 C 112.6200180053711 127.36461639404297 112.6200180053711 126.48639678955078 112.6200180053711 125.60816192626953 C 112.77940368652344 125.52767181396484 112.93959045410156 125.4479751586914 113.0989761352539 125.3682861328125 C 113.0989761352539 125.3682861328125 113.0989761352539 125.3682861328125 113.0989761352539 125.3682861328125" stroke-width="0.0" fill="rgb(220, 70, 68)" opacity="1.0"/>
    <path d="M 100.83963012695312 135.51412963867188 C 100.83963012695312 136.39317321777344 100.83963012695312 137.27139282226562 100.83963012695312 138.15042114257812 C 99.48641967773438 138.20701599121094 98.13880157470703 138.18788146972656 96.78559112548828 138.20301818847656 C 96.78559112548828 137.32479858398438 96.78559112548828 136.44577026367188 96.78559112548828 135.56753540039062 C 98.13880157470703 135.55079650878906 99.48641967773438 135.5723114013672 100.83963012695312 135.51412963867188 C 100.83963012695312 135.51412963867188 100.83963012695312 135.51412963867188 100.83963012695312 135.51412963867188" stroke-width="0.0" fill="rgb(220, 70, 68)" opacity="1.0"/>
    <path d="M 112.6200180053711 125.60816192626953 C 112.6200180053711 126.48639678955078 112.6200180053711 127.36461639404297 112.6200180053711 128.24285888671875 C 112.42078399658203 128.2898712158203 112.22154998779297 128.33609008789062 112.0223159790039 128.3831024169922 C 112.0223159790039 127.50489044189453 112.0223159790039 126.62665557861328 112.0223159790039 125.74763488769531 C 112.22154998779297 125.70140838623047 112.42078399658203 125.65438842773438 112.6200180053711 125.60816192626953 C 112.6200180053711 125.60816192626953 112.6200180053711 125.60816192626953 112.6200180053711 125.60816192626953" stroke-width="0.0" fill="rgb(220, 70, 68)" opacity="1.0"/>
    <path d="M 96.78559112548828 135.56753540039062 C 96.78559112548828 136.44577026367188 96.78559112548828 137.32479858398438 96.78559112548828 138.20301818847656 C 94.5501708984375 137.8675079345703 93.38026428222656 136.47764587402344 91.73616790771484 135.03598022460938 C 91.73616790771484 134.15695190429688 91.73616790771484 133.27871704101562 91.73616790771484 132.3997039794922 C 93.38026428222656 133.84295654296875 94.5501708984375 135.23043823242188 96.78559112548828 135.56753540039062 C 96.78559112548828 135.56753540039062 96.78559112548828 135.56753540039062 96.78559112548828 135.56753540039062" stroke-width="0.0" fill="rgb(220, 70, 68)" opacity="1.0"/>
    <path d="M 126.71870422363281 65.2821044921875 C 126.71870422363281 65.2821044921875 126.71870422363281 65.2821044921875 126.71870422363281 65.2821044921875 C 137.8583526611328 65.3665771484375 149.9886016845703 70.98660278320312 154.1446533203125 82.08241271972656 C 155.43807983398438 85.53396606445312 155.49703979492188 89.15447235107422 155.38229370117188 92.79570007324219 C 155.25558471679688 96.78439331054688 154.04421997070312 100.59536743164062 151.74505615234375 103.87397766113281 C 149.56382751464844 106.98603057861328 146.4246826171875 109.71715545654297 143.24887084960938 111.78919982910156 C 136.94107055664062 115.90460205078125 129.16690063476562 116.61228942871094 121.81910705566406 116.04248046875 C 119.94630432128906 115.89743041992188 118.14202880859375 115.47904205322266 116.33854675292969 114.97058868408203 C 114.87377166748047 114.55776977539062 113.70306396484375 113.69548797607422 112.38970184326172 114.58646392822266 C 112.38970184326172 114.58646392822266 112.38970184326172 114.58646392822266 112.38970184326172 114.58646392822266 C 113.41217803955078 115.44955444335938 115.13277435302734 116.42102813720703 115.74801635742188 117.64432525634766 C 116.05882263183594 118.2635498046875 115.97116088867188 119.07882690429688 115.96956634521484 119.7291259765625 C 115.96796417236328 120.692626953125 116.19828033447266 121.9996109008789 115.74880981445312 122.90254211425781 C 115.0243911743164 124.35617065429688 113.09260559082031 125.66156005859375 111.49154663085938 125.78986358642578 C 109.55577850341797 125.94527435302734 107.1370620727539 126.09748840332031 105.45153045654297 124.93474578857422 C 104.56373596191406 124.3218994140625 103.79867553710938 123.38549041748047 103.00253295898438 122.65788269042969 C 103.00253295898438 122.65788269042969 103.00253295898438 122.65788269042969 103.00253295898438 122.65788269042969 C 102.37055969238281 123.19741821289062 101.73858642578125 123.73615264892578 101.10740661621094 124.27567291259766 C 101.10740661621094 124.27567291259766 101.10740661621094 124.27567291259766 101.10740661621094 124.27567291259766 C 102.1386489868164 125.15071105957031 103.89988708496094 126.15247344970703 104.51353454589844 127.39410400390625 C 104.79883575439453 127.97189331054688 104.73986053466797 128.88119506835938 104.74703979492188 129.48448181152344 C 104.77891540527344 131.9900665283203 103.83055114746094 135.05908203125 100.83963012695312 135.5093536376953 C 99.4019546508789 135.72613525390625 96.81109619140625 135.8632049560547 95.37261962890625 135.3491668701172 C 94.02578735351562 134.86782836914062 92.79052734375 133.31857299804688 91.73616790771484 132.393310546875 C 91.73616790771484 132.393310546875 91.73616790771484 132.393310546875 91.73616790771484 132.393310546875 C 90.0267333984375 133.80868530273438 88.35236358642578 135.2710723876953 86.67798614501953 136.72708129882812 C 85.34629821777344 137.88504028320312 84.06880187988281 139.30758666992188 82.3960189819336 139.97621154785156 C 81.06194305419922 140.50857543945312 79.72308349609375 140.4352569580078 78.32843017578125 140.43048095703125 C 76.554443359375 140.42489624023438 74.79240417480469 140.59304809570312 73.14512634277344 139.75466918945312 C 69.38197326660156 137.8404083251953 67.64862060546875 133.3632049560547 68.77788543701172 129.3314666748047 C 69.2313461303711 127.71208953857422 70.71604919433594 126.6864242553711 71.91783905029297 125.64561462402344 C 73.46310424804688 124.30675506591797 75.00917053222656 122.9678955078125 76.55523681640625 121.62903594970703 C 81.57916259765625 117.2777328491211 86.60307312011719 112.92723083496094 91.63018035888672 108.57911682128906 C 93.17704010009766 107.24105834960938 94.72390747070312 105.90379333496094 96.27156829833984 104.56652069091797 C 97.04539489746094 103.89788818359375 98.04396057128906 103.42290496826172 98.59305572509766 102.56062316894531 C 99.52547454833984 101.09822845458984 97.61360931396484 98.47630310058594 97.24383544921875 96.96290588378906 C 96.4620361328125 93.75920104980469 96.5226058959961 90.08928680419922 96.83818817138672 86.81784057617188 C 97.73713684082031 77.4864501953125 106.29309844970703 69.55370330810547 114.86659240722656 66.74368286132812 C 118.75726318359375 65.4693832397461 122.66386413574219 65.29564666748047 126.71870422363281 65.2821044921875 C 126.71870422363281 65.2821044921875 126.71870422363281 65.2821044921875 126.71870422363281 65.2821044921875" stroke-width="0.0" fill="rgb(229, 110, 79)" opacity="1.0"/>
    <path d="M 112.43672180175781 108.4850845336914 C 112.43672180175781 109.36331176757812 112.43672180175781 110.24234008789062 112.43672180175781 111.12056732177734 C 111.20783233642578 111.75174713134766 110.27302551269531 112.71684265136719 109.22903442382812 113.62057495117188 C 107.953125 114.7259292602539 106.46922302246094 115.7428207397461 105.51050567626953 117.13827514648438 C 105.51130676269531 116.25924682617188 105.51210021972656 115.38101959228516 105.51289367675781 114.5027847290039 C 106.47321319580078 113.10733795166016 107.9563217163086 112.08885192871094 109.23222351074219 110.98429107666016 C 110.2754135131836 110.08055877685547 111.21182250976562 109.11625671386719 112.43991088867188 108.4850845336914 C 112.43991088867188 108.4850845336914 112.43991088867188 108.4850845336914 112.43991088867188 108.4850845336914 C 112.43991088867188 108.4850845336914 112.43672180175781 108.4850845336914 112.43672180175781 108.4850845336914" stroke-width="0.0" fill="rgb(229, 110, 79)" opacity="1.0"/>
    <path d="M 113.0431900024414 114.07960510253906 C 113.0431900024414 114.95783996582031 113.0431900024414 115.83686828613281 113.0431900024414 116.71509552001953 C 112.99378204345703 115.84881591796875 112.94357299804688 114.98334503173828 112.89337158203125 114.1170654296875 C 112.89337158203125 114.1170654296875 113.0431900024414 114.07960510253906 113.0431900024414 114.07960510253906" stroke-width="0.0" fill="rgb(226, 98, 84)" opacity="1.0"/>
    <path d="M 112.76028442382812 114.18241882324219 C 112.76028442382812 115.0606460571289 112.76028442382812 115.93966674804688 112.76028442382812 116.81790161132812 C 112.68855285644531 116.8824462890625 112.61682891845703 116.94620513916016 112.5458984375 117.01075744628906 C 112.5458984375 116.13253021240234 112.5458984375 115.25350189208984 112.5458984375 114.37527465820312 C 112.61682891845703 114.31072235107422 112.68855285644531 114.24617004394531 112.76028442382812 114.18241882324219 C 112.76028442382812 114.18241882324219 112.76028442382812 114.18241882324219 112.76028442382812 114.18241882324219" stroke-width="0.0" fill="rgb(229, 110, 79)" opacity="1.0"/>
    <path d="M 115.97116088867188 122.07930755615234 C 115.97116088867188 122.95753479003906 115.97116088867188 123.83656311035156 115.97116088867188 124.71479034423828 C 115.79423522949219 125.14353942871094 115.61811065673828 125.57150268554688 115.44198608398438 125.99945831298828 C 115.44198608398438 125.12122344970703 115.44198608398438 124.24220275878906 115.44198608398438 123.36397552490234 C 115.61811065673828 122.93601989746094 115.79423522949219 122.50726318359375 115.97116088867188 122.07930755615234 C 115.97116088867188 122.07930755615234 115.97116088867188 122.07930755615234 115.97116088867188 122.07930755615234" stroke-width="0.0" fill="rgb(220, 74, 70)" opacity="1.0"/>
    <path d="M 112.3681869506836 108.491455078125 C 112.3681869506836 109.36968994140625 112.3681869506836 110.24871063232422 112.3681869506836 111.12693786621094 C 112.31000518798828 111.14128875732422 112.2518310546875 111.15563201904297 112.19364929199219 111.17076873779297 C 112.19364929199219 110.291748046875 112.19364929199219 109.41352081298828 112.19364929199219 108.53449249267578 C 112.2518310546875 108.52014923095703 112.31000518798828 108.50580596923828 112.3681869506836 108.491455078125 C 112.3681869506836 108.491455078125 112.3681869506836 108.491455078125 112.3681869506836 108.491455078125" stroke-width="0.0" fill="rgb(229, 110, 79)" opacity="1.0"/>
    <path d="M 112.19046783447266 108.53449249267578 C 112.19046783447266 109.41352081298828 112.19046783447266 110.291748046875 112.19046783447266 111.17076873779297 C 112.11714935302734 111.2082290649414 112.04303741455078 111.24568176269531 111.96971130371094 111.28314208984375 C 111.96971130371094 110.40411376953125 111.96971130371094 109.52588653564453 111.96971130371094 108.64685821533203 C 112.04303741455078 108.60940551757812 112.11714935302734 108.57195281982422 112.19046783447266 108.53449249267578 C 112.19046783447266 108.53449249267578 112.19046783447266 108.53449249267578 112.19046783447266 108.53449249267578" stroke-width="0.0" fill="rgb(229, 110, 79)" opacity="1.0"/>
    <path d="M 111.96971130371094 108.64685821533203 C 111.96971130371094 109.52588653564453 111.96971130371094 110.40411376953125 111.96971130371094 111.28314208984375 C 109.79964447021484 112.8929672241211 107.63754272460938 114.8104019165039 105.7097396850586 116.70233917236328 C 105.7097396850586 115.82411193847656 105.7097396850586 114.94588470458984 105.7097396850586 114.06765747070312 C 107.63674926757812 112.1717300415039 109.80362701416016 110.26145935058594 111.97290802001953 108.64685821533203 C 111.97290802001953 108.64685821533203 111.97290802001953 108.64685821533203 111.97290802001953 108.64685821533203 C 111.97290802001953 108.64685821533203 111.96971130371094 108.64685821533203 111.96971130371094 108.64685821533203" stroke-width="0.0" fill="rgb(229, 110, 79)" opacity="1.0"/>
    <path d="M 128.28628540039062 111.8736801147461 C 128.28628540039062 111.8736801147461 128.28628540039062 111.8736801147461 128.28628540039062 111.8736801147461 C 132.9292755126953 111.31024169921875 137.34671020507812 110.05904388427734 141.24534606933594 107.38848876953125 C 143.32296752929688 105.96595001220703 145.171875 104.20869445800781 146.67013549804688 102.18366241455078 C 148.06956481933594 100.29173278808594 149.15737915039062 98.16548919677734 149.83477783203125 95.91014862060547 C 150.35440063476562 94.18077850341797 150.63809204101562 92.36774444580078 150.626953125 90.56027221679688 C 150.54246520996094 77.1485595703125 136.23419189453125 68.49217224121094 123.9310073852539 69.48277282714844 C 112.89177703857422 70.37136840820312 101.51464080810547 78.56232452392578 101.49073791503906 90.51644897460938 C 101.48435974121094 93.4085464477539 102.22869873046875 96.275146484375 103.4974365234375 98.86441040039062 C 104.26090240478516 100.421630859375 106.21978759765625 101.94060516357422 104.75420379638672 103.44761657714844 C 102.26376342773438 106.00898742675781 99.24813842773438 108.21571350097656 96.5465087890625 110.55553436279297 C 90.68341064453125 115.63285064697266 84.82111358642578 120.71015930175781 78.95960998535156 125.78986358642578 C 76.7839584350586 127.67622375488281 71.64527893066406 130.73489379882812 74.0376968383789 134.2653350830078 C 74.46327209472656 134.89332580566406 75.05619049072266 135.393798828125 75.72960662841797 135.73727416992188 C 79.54217529296875 137.68820190429688 82.6924819946289 133.95932006835938 85.27377319335938 131.72628784179688 C 86.3687744140625 130.77871704101562 87.46297454833984 129.8303680419922 88.55717468261719 128.8820037841797 C 89.21305847167969 128.31378173828125 90.68181610107422 126.49595642089844 91.65170288085938 126.48799133300781 C 92.20955657958984 126.48320007324219 93.46234130859375 127.72164916992188 93.7030258178711 127.92964935302734 C 95.0386962890625 129.08682250976562 97.81443786621094 132.739990234375 99.67449951171875 130.70220947265625 C 100.23714447021484 130.086181640625 99.68327331542969 129.41116333007812 99.26248168945312 128.8875732421875 C 98.39461517333984 127.80693054199219 96.96649932861328 126.87928771972656 95.91692352294922 125.97396087646484 C 95.87309265136719 125.93569946289062 94.25689697265625 124.69327545166016 94.25291442871094 124.24778747558594 C 94.24972534179688 123.79910278320312 95.93446350097656 122.4977035522461 95.94322204589844 122.49052429199219 C 97.8534927368164 120.83368682861328 99.70638275146484 118.97282409667969 101.73858642578125 117.47139739990234 C 102.09322357177734 117.20919799804688 102.42793273925781 116.78203582763672 102.86864471435547 116.78363800048828 C 103.33246612548828 116.78522491455078 103.69507598876953 117.21158599853516 104.07282257080078 117.48095703125 C 105.58382415771484 118.55682373046875 106.8134994506836 120.02558898925781 108.31971740722656 121.11421203613281 C 109.111083984375 121.68640899658203 111.1209716796875 121.98925018310547 111.15444946289062 120.36508178710938 C 111.16400146484375 119.89010620117188 110.76792907714844 119.48446655273438 110.4698715209961 119.11468505859375 C 109.599609375 118.03562927246094 108.17149353027344 117.1103744506836 107.12271881103516 116.2026596069336 C 106.27716064453125 115.47027587890625 104.96379852294922 114.87495422363281 106.0022201538086 113.77757263183594 C 107.27254486083984 112.43392944335938 108.87360382080078 111.28633117675781 110.27302551269531 110.07577514648438 C 110.81893157958984 109.6023941040039 111.62464141845703 108.74249267578125 112.38333129882812 108.48826599121094 C 112.68537139892578 108.38705444335938 113.39862823486328 108.83733367919922 113.5875015258789 108.92658996582031 C 114.8905029296875 109.5442123413086 116.19669342041016 110.12359619140625 117.5650405883789 110.58422088623047 C 121.05325317382812 111.75811767578125 124.62354278564453 112.12152099609375 128.28309631347656 111.87049102783203 C 128.28309631347656 111.87049102783203 128.28309631347656 111.87049102783203 128.28309631347656 111.87049102783203 C 128.28309631347656 111.87049102783203 128.28628540039062 111.8736801147461 128.28628540039062 111.8736801147461" stroke-width="0.0" fill="rgb(233, 128, 101)" opacity="1.0"/>
    <path d="M 125.4364242553711 69.39591217041016 C 125.4364242553711 69.39591217041016 125.4364242553711 69.39591217041016 125.4364242553711 69.39591217041016 C 136.82870483398438 69.73062133789062 149.50086975097656 76.54685974121094 150.5623779296875 89.10426330566406 C 150.7169952392578 90.93882751464844 150.58309936523438 92.78852844238281 150.1822509765625 94.58403778076172 C 149.67300415039062 96.85770416259766 148.74456787109375 99.03096771240234 147.49017333984375 100.99224090576172 C 146.15371704101562 103.08102416992188 144.45223999023438 104.929931640625 142.5045166015625 106.46324157714844 C 137.029541015625 110.77230072021484 129.60841369628906 112.64431762695312 122.72125244140625 111.7772445678711 C 120.1104736328125 111.44810485839844 117.56583404541016 110.7109375 115.1558837890625 109.66216278076172 C 113.84651184082031 109.09314727783203 112.9547348022461 108.11290740966797 111.65174102783203 108.88355255126953 C 110.01641082763672 109.85183715820312 108.5157699584961 111.59554290771484 107.07649230957031 112.84514617919922 C 107.01114654541016 112.9017333984375 105.51210021972656 114.04693603515625 105.51289367675781 114.50039672851562 C 105.5136947631836 114.9586410522461 107.09642028808594 116.16520690917969 107.13227844238281 116.19628143310547 C 108.2217025756836 117.13906860351562 112.4972915649414 119.69246673583984 110.53840637207031 121.34771728515625 C 109.80681610107422 121.96614074707031 109.00907897949219 121.52224731445312 108.32609558105469 121.11102294921875 C 106.75373077392578 120.16425323486328 105.564697265625 118.55204010009766 104.07919311523438 117.47776794433594 C 103.71021270751953 117.2107925415039 103.36116027832031 116.77964782714844 102.90609741210938 116.77725982666016 C 102.40801239013672 116.77486419677734 100.83644104003906 118.2547836303711 100.58939361572266 118.46836853027344 C 98.68470001220703 120.11724090576172 96.53933715820312 121.67445373535156 94.79403686523438 123.48908996582031 C 93.70940399169922 124.61676788330078 95.04267883300781 125.2072982788086 95.92489624023438 125.96917724609375 C 96.97447204589844 126.87529754638672 98.40098571777344 127.79975128173828 99.26885986328125 128.88119506835938 C 99.5557632446289 129.23822021484375 99.93749237060547 129.63351440429688 99.9191665649414 130.0917510986328 C 99.84823608398438 131.79641723632812 97.9005126953125 131.35650634765625 97.11791229248047 130.8687744140625 C 95.91533660888672 130.11964416503906 94.80120849609375 128.8740234375 93.72772979736328 127.94478607177734 C 93.48306274414062 127.7328109741211 92.259765625 126.55253601074219 91.73855590820312 126.48799133300781 C 90.78861236572266 126.37003326416016 89.27680969238281 128.26914978027344 88.66077423095703 128.801513671875 C 86.80390930175781 130.4073486328125 84.94783020019531 132.0147705078125 83.0877685546875 133.617431640625 C 81.59270477294922 134.90606689453125 80.16618347167969 136.25689697265625 78.04791259765625 136.27362060546875 C 75.45067596435547 136.29354858398438 72.6374740600586 133.98081970214844 73.62089538574219 131.18116760253906 C 74.27439880371094 129.32110595703125 76.38468933105469 128.02130126953125 77.79049682617188 126.80277252197266 C 83.65119934082031 121.72307586669922 89.51350402832031 116.64496612548828 95.37580108642578 111.5676498413086 C 98.46395111083984 108.89311981201172 101.90991973876953 106.37079620361328 104.75740051269531 103.44442749023438 C 106.22377014160156 101.93740844726562 104.26249694824219 100.41844177246094 103.49982452392578 98.86201477050781 C 102.2294921875 96.27275085449219 101.48674774169922 93.40535736083984 101.4939193725586 90.51325988769531 C 101.5250015258789 77.7127914428711 113.90707397460938 70.04222869873047 125.4364242553711 69.39591217041016 C 125.4364242553711 69.39591217041016 125.4364242553711 69.39591217041016 125.4364242553711 69.39591217041016" stroke-width="0.0" fill="rgb(245, 181, 156)" opacity="1.0"/>
    <path d="M 126.08673095703125 82.76539611816406 C 126.08673095703125 82.76539611816406 126.08673095703125 82.76539611816406 126.08673095703125 82.76539611816406 C 132.15623474121094 82.76539611816406 137.88624572753906 89.07159423828125 133.8999481201172 94.79681396484375 C 132.05662536621094 97.44505310058594 129.12149047851562 98.35675811767578 126.06442260742188 98.63648223876953 C 126.00144958496094 98.63807678222656 125.9384994506836 98.63887023925781 125.87474060058594 98.63966369628906 C 123.2799072265625 98.41732025146484 120.92573547363281 97.72000122070312 119.0369873046875 95.81610107421875 C 115.81893920898438 92.57415008544922 116.45250701904297 87.28086853027344 120.11445617675781 84.62545776367188 C 121.91793060302734 83.31847381591797 123.92303466796875 82.95426940917969 126.08673095703125 82.76539611816406 C 126.08673095703125 82.76539611816406 126.08673095703125 82.76539611816406 126.08673095703125 82.76539611816406" stroke-width="0.0" fill="rgb(245, 177, 154)" opacity="1.0"/>
    <path d="M 105.7097396850586 114.07083892822266 C 105.7097396850586 114.9490737915039 105.7097396850586 115.82730102539062 105.7097396850586 116.70552825927734 C 105.64439392089844 116.84021759033203 105.5782470703125 116.97569274902344 105.51289367675781 117.1103744506836 C 105.51289367675781 116.23135375976562 105.51289367675781 115.35311889648438 105.51289367675781 114.47489166259766 C 105.5782470703125 114.3402099609375 105.64439392089844 114.20552825927734 105.7097396850586 114.07083892822266 C 105.7097396850586 114.07083892822266 105.7097396850586 114.07083892822266 105.7097396850586 114.07083892822266" stroke-width="0.0" fill="rgb(246, 182, 157)" opacity="1.0"/>
    <path d="M 91.73616790771484 132.3997039794922 C 91.73616790771484 133.27871704101562 91.73616790771484 134.15695190429688 91.73616790771484 135.03598022460938 C 90.02593994140625 136.4497528076172 88.35236358642578 137.91293334960938 86.67798614501953 139.3689422607422 C 85.34709167480469 140.5269012451172 84.06959533691406 141.94944763183594 82.3960189819336 142.61569213867188 C 81.06114196777344 143.14804077148438 79.723876953125 143.0723419189453 78.32843017578125 143.06675720214844 C 77.100341796875 143.06117248535156 75.7734375 143.20144653320312 74.56607055664062 142.91693115234375 C 71.45880126953125 142.18374633789062 69.18193817138672 139.34344482421875 68.62327575683594 136.3302001953125 C 68.62327575683594 135.45037841796875 68.62327575683594 134.57057189941406 68.62327575683594 133.69154357910156 C 69.18193817138672 136.7039794921875 71.45880126953125 139.5466766357422 74.56607055664062 140.27825927734375 C 75.77662658691406 140.5635528564453 77.09796142578125 140.417724609375 78.32843017578125 140.4272918701172 C 79.72626495361328 140.43844604492188 81.05715942382812 140.5157470703125 82.3960189819336 139.9825897216797 C 84.07039642333984 139.31475830078125 85.34550476074219 137.89381408691406 86.67718505859375 136.7350616455078 C 88.3515625 135.27825927734375 90.0267333984375 133.81825256347656 91.73616790771484 132.40289306640625 C 91.73616790771484 132.40289306640625 91.73616790771484 132.40289306640625 91.73616790771484 132.40289306640625 C 91.73616790771484 132.40289306640625 91.73616790771484 132.3997039794922 91.73616790771484 132.3997039794922" stroke-width="0.0" fill="rgb(238, 147, 125)" opacity="1.0"/>
    <path d="M 135.2212677001953 90.90216064453125 C 135.2212677001953 90.90216064453125 135.2212677001953 90.90216064453125 135.2212677001953 90.90216064453125 C 135.33523559570312 86.29026794433594 130.57989501953125 82.42988586425781 126.08911895751953 82.76539611816406 C 121.2341537475586 83.12879943847656 117.38732147216797 85.56744384765625 116.94182586669922 90.69017791748047 C 116.58718872070312 94.76653289794922 120.62848663330078 97.89453125 124.27607727050781 98.50418853759766 C 129.54147338867188 99.38560485839844 134.4880828857422 96.22891998291016 135.22447204589844 90.90455627441406 C 135.22447204589844 90.90455627441406 135.22447204589844 90.90455627441406 135.22447204589844 90.90455627441406 C 135.22447204589844 90.90455627441406 135.2212677001953 90.90216064453125 135.2212677001953 90.90216064453125" stroke-width="0.0" fill="rgb(234, 129, 78)" opacity="1.0"/>
    <path d="M 91.73616790771484 132.3997039794922 C 91.73616790771484 133.27871704101562 91.73616790771484 134.15695190429688 91.73616790771484 135.03598022460938 C 88.96440887451172 137.32717895507812 86.36717987060547 139.85586547851562 83.51173400878906 142.03948974609375 C 83.51173400878906 141.1612548828125 83.51173400878906 140.28224182128906 83.51173400878906 139.40402221679688 C 86.36637878417969 137.22039794921875 88.96600341796875 134.6932830810547 91.73616790771484 132.3997039794922 C 91.73616790771484 132.3997039794922 91.73616790771484 132.3997039794922 91.73616790771484 132.3997039794922" stroke-width="0.0" fill="rgb(220, 70, 68)" opacity="1.0"/>
    <path d="M 130.13519287109375 90.71807861328125 C 130.13519287109375 90.71807861328125 130.13519287109375 90.71807861328125 130.13519287109375 90.71807861328125 C 130.13519287109375 89.812744140625 129.37649536132812 88.91380310058594 128.75808715820312 88.3790512084961 C 126.94902801513672 86.81624603271484 124.96543884277344 86.87921142578125 123.22491455078125 88.49061584472656 C 122.69654083251953 88.97994995117188 121.96973419189453 89.87490844726562 121.98248291015625 90.68699645996094 C 122.00639343261719 92.29601287841797 124.56059265136719 94.65815734863281 126.22300720214844 94.22222137451172 C 128.2456512451172 93.69225311279297 129.47213745117188 92.70883178710938 130.13201904296875 90.71807861328125 C 130.13201904296875 90.71807861328125 130.13201904296875 90.71807861328125 130.13201904296875 90.71807861328125 C 130.13201904296875 90.71807861328125 130.13519287109375 90.71807861328125 130.13519287109375 90.71807861328125" stroke-width="0.0" fill="rgb(241, 159, 156)" opacity="1.0"/>
    <path d="M 83.51173400878906 139.40719604492188 C 83.51173400878906 140.28543090820312 83.51173400878906 141.16445922851562 83.51173400878906 142.0426788330078 C 83.07979583740234 142.25704956054688 82.64865112304688 142.47222900390625 82.2175064086914 142.68661499023438 C 82.2175064086914 141.80838012695312 82.2175064086914 140.93016052246094 82.2175064086914 140.0519256591797 C 82.64865112304688 139.83676147460938 83.07979583740234 139.62158203125 83.51173400878906 139.40719604492188 C 83.51173400878906 139.40719604492188 83.51173400878906 139.40719604492188 83.51173400878906 139.40719604492188" stroke-width="0.0" fill="rgb(220, 70, 68)" opacity="1.0"/>
    <path d="M 82.2175064086914 140.0519256591797 C 82.2175064086914 140.93016052246094 82.2175064086914 141.80838012695312 82.2175064086914 142.68661499023438 C 81.75687408447266 142.8005828857422 81.2962417602539 142.91455078125 80.83641052246094 143.029296875 C 80.83641052246094 142.1502685546875 80.83641052246094 141.2720489501953 80.83641052246094 140.3930206298828 C 81.2962417602539 140.279052734375 81.75687408447266 140.1650848388672 82.2175064086914 140.0519256591797 C 82.2175064086914 140.0519256591797 82.2175064086914 140.0519256591797 82.2175064086914 140.0519256591797" stroke-width="0.0" fill="rgb(220, 70, 68)" opacity="1.0"/>
    <path d="M 80.839599609375 140.3930206298828 C 80.839599609375 141.2720489501953 80.839599609375 142.1502685546875 80.839599609375 143.029296875 C 78.88230895996094 143.156005859375 76.48750305175781 143.36959838867188 74.56607055664062 142.91693115234375 C 71.45880126953125 142.18374633789062 69.18193817138672 139.34344482421875 68.62327575683594 136.3302001953125 C 68.62327575683594 135.45118713378906 68.62327575683594 134.5729522705078 68.62327575683594 133.69473266601562 C 69.18193817138672 136.70716857910156 71.45880126953125 139.5498504638672 74.56607055664062 140.2814483642578 C 76.48590087890625 140.73410034179688 78.88310241699219 140.52371215820312 80.839599609375 140.39620971679688 C 80.839599609375 140.39620971679688 80.839599609375 140.39620971679688 80.839599609375 140.39620971679688 C 80.839599609375 140.39620971679688 80.839599609375 140.3930206298828 80.839599609375 140.3930206298828" stroke-width="0.0" fill="rgb(220, 71, 69)" opacity="1.0"/>
    <path d="M 124.97898864746094 87.38925170898438 C 124.97898864746094 88.2674789428711 124.97898864746094 89.14570617675781 124.97898864746094 90.02473449707031 C 124.66259765625 90.18412017822266 124.34620666503906 90.34430694580078 124.02983093261719 90.50448608398438 C 124.02983093261719 89.6254653930664 124.02983093261719 88.74723815917969 124.02983093261719 87.86820983886719 C 124.34620666503906 87.70882415771484 124.66259765625 87.54863739013672 124.97898864746094 87.38925170898438 C 124.97898864746094 87.38925170898438 124.97898864746094 87.38925170898438 124.97898864746094 87.38925170898438" stroke-width="0.0" fill="rgb(220, 70, 68)" opacity="1.0"/>
    <path d="M 130.13519287109375 90.69336700439453 C 130.13519287109375 91.5692138671875 130.13519287109375 92.44425201416016 130.13519287109375 93.32008361816406 C 129.49684143066406 91.4122085571289 127.92607116699219 89.70117950439453 125.71295928955078 89.83824920654297 C 125.70818328857422 88.9608154296875 125.70259857177734 88.08338928222656 125.69702911376953 87.20594787597656 C 127.91490936279297 87.06011199951172 129.4944610595703 88.77035522460938 130.13519287109375 90.68380737304688 C 130.13519287109375 90.68380737304688 130.13519287109375 90.68380737304688 130.13519287109375 90.68380737304688 C 130.13519287109375 90.68380737304688 130.13519287109375 90.69336700439453 130.13519287109375 90.69336700439453" stroke-width="0.0" fill="rgb(233, 127, 88)" opacity="1.0"/>
    <path d="M 124.02983093261719 87.86502075195312 C 124.02983093261719 88.74404907226562 124.02983093261719 89.62228393554688 124.02983093261719 90.50130462646484 C 123.58433532714844 90.83442687988281 123.1611557006836 91.20101928710938 122.7690658569336 91.59629821777344 C 122.7690658569336 90.71727752685547 122.7690658569336 89.83904266357422 122.7690658569336 88.9608154296875 C 123.16195678710938 88.56553649902344 123.58513641357422 88.19894409179688 124.02983093261719 87.86502075195312 C 124.02983093261719 87.86502075195312 124.02983093261719 87.86502075195312 124.02983093261719 87.86502075195312" stroke-width="0.0" fill="rgb(220, 70, 68)" opacity="1.0"/>
    <path d="M 126.073974609375 87.17806243896484 C 126.073974609375 87.17806243896484 126.073974609375 87.17806243896484 126.073974609375 87.17806243896484 C 128.17312622070312 87.70722961425781 129.43548583984375 88.59103393554688 130.13519287109375 90.68061828613281 C 130.13360595703125 91.56044006347656 130.13279724121094 92.44026184082031 130.13201904296875 93.32008361816406 C 129.46896362304688 91.33969116210938 127.83840942382812 89.66133117675781 125.56951904296875 89.8597640991211 C 125.56951904296875 88.98153686523438 125.56951904296875 88.10250854492188 125.56951904296875 87.22428131103516 C 125.7376708984375 87.20834350585938 125.90582275390625 87.19319915771484 126.073974609375 87.17806243896484 C 126.073974609375 87.17806243896484 126.073974609375 87.17806243896484 126.073974609375 87.17806243896484" stroke-width="0.0" fill="rgb(220, 71, 68)" opacity="1.0"/>
    <path d="M 122.7690658569336 88.9608154296875 C 122.7690658569336 89.83904266357422 122.7690658569336 90.71727752685547 122.7690658569336 91.59629821777344 C 122.43195343017578 92.1015625 122.15222930908203 92.65623474121094 121.98248291015625 93.23880004882812 C 121.98248291015625 92.36056518554688 121.98248291015625 91.48234558105469 121.98248291015625 90.60411071777344 C 122.15143585205078 90.020751953125 122.43195343017578 89.46527862548828 122.7690658569336 88.9608154296875 C 122.7690658569336 88.9608154296875 122.7690658569336 88.9608154296875 122.7690658569336 88.9608154296875" stroke-width="0.0" fill="rgb(220, 70, 68)" opacity="1.0"/>
    <path d="M 125.69702911376953 87.20276641845703 C 125.69702911376953 88.08099365234375 125.69702911376953 88.96002197265625 125.69702911376953 89.83824920654297 C 125.45794677734375 89.89961242675781 125.21807098388672 89.9601821899414 124.97898864746094 90.02154541015625 C 124.97898864746094 89.143310546875 124.97898864746094 88.26509094238281 124.97898864746094 87.38685607910156 C 125.21807098388672 87.32549285888672 125.45794677734375 87.26412963867188 125.69702911376953 87.20276641845703 C 125.69702911376953 87.20276641845703 125.69702911376953 87.20276641845703 125.69702911376953 87.20276641845703" stroke-width="0.0" fill="rgb(220, 70, 68)" opacity="1.0"/>
  </g>
</svg>
