<?xml version="1.0" ?>
<svg xmlns="http://www.w3.org/2000/svg" version="1.1" width="224" height="224">
  <defs/>
  <g>
    <path d="M 99.8780288696289 187.958984375 C 92.20591735839844 185.44497680664062 49.99870300292969 151.5218505859375 37.671600341796875 139.37574768066406 L 30.96483612060547 133.35577392578125 L 30.325607299804688 113.01976013183594 C 30.531822204589844 102.20101165771484 30.8226318359375 90.66650390625 30.740753173828125 87.48509216308594 C 31.311256408691406 81.6072769165039 31.53308868408203 80.84229278564453 35.97924041748047 75.67591094970703 C 38.794029235839844 73.4909896850586 45.059059143066406 68.23089599609375 50.445552825927734 64.46537780761719 C 55.488990783691406 60.97409439086914 62.35115051269531 55.03532409667969 66.489013671875 51.31182861328125 C 80.32601928710938 37.53295135498047 91.67401123046875 33.563262939453125 106.31840515136719 29.325294494628906 C 113.96044921875 28.04302215576172 117.09129333496094 28.0 131.3365478515625 34.795143127441406 C 142.27816772460938 37.71385192871094 144.56468200683594 40.322349548339844 165.37808227539062 58.07502365112305 C 186.7598114013672 74.77814483642578 192.01785278320312 79.30606842041016 192.84559631347656 84.9287109375 C 193.67440795898438 87.02330017089844 193.30902099609375 95.691650390625 193.24197387695312 110.59007263183594 L 193.19207763671875 132.26527404785156 L 190.44448852539062 136.37864685058594 C 185.263427734375 143.16412353515625 128.76947021484375 187.93585205078125 122.0358657836914 191.01385498046875 C 114.54474639892578 192.98077392578125 106.85011291503906 192.3990936279297 99.8780288696289 187.958984375" stroke-width="0.0" fill="rgb(245, 220, 47)" opacity="0.9963884"/>
    <path d="M 105.05091094970703 162.26531982421875 C 102.82356262207031 161.49514770507812 100.79186248779297 159.69277954101562 99.8406753540039 158.1155548095703 C 99.00723266601562 156.32192993164062 98.54048919677734 148.22055053710938 98.97071838378906 129.67340087890625 C 98.85624694824219 101.59769439697266 98.83256530761719 101.79046630859375 93.91900634765625 105.98550415039062 C 89.97277069091797 108.9017562866211 88.67098999023438 112.36590576171875 88.38063049316406 120.20321655273438 C 88.67343139648438 126.72013854980469 88.50730895996094 127.43933868408203 86.21043395996094 129.21136474609375 C 82.56147003173828 132.04248046875 76.91263580322266 131.81317138671875 73.72557067871094 128.6581268310547 C 71.40867614746094 126.3902587890625 71.55699157714844 126.11776733398438 71.9178466796875 116.70359802246094 C 72.33817291259766 109.2525405883789 72.89360046386719 106.24515533447266 74.37359619140625 102.95185089111328 L 76.35908508300781 98.8934555053711 L 74.30461883544922 96.58625793457031 C 72.42610168457031 94.5018539428711 72.25337219238281 93.3766860961914 72.15078735351562 86.60562133789062 C 72.3846435546875 75.33279418945312 76.51400756835938 68.47322082519531 85.95057678222656 63.060035705566406 C 90.41145324707031 60.49578857421875 91.90110778808594 60.16204833984375 98.40570831298828 59.97514343261719 C 103.45147705078125 60.304931640625 106.96160125732422 60.696556091308594 108.72476196289062 61.796897888183594 C 111.28951263427734 63.091800689697266 111.81440734863281 63.085567474365234 114.6886978149414 61.80421447753906 C 116.8144302368164 60.977806091308594 120.75227355957031 60.447078704833984 124.57722473144531 60.48316955566406 C 135.17941284179688 60.65043640136719 143.9969482421875 65.88578796386719 148.90725708007812 75.61592102050781 C 151.4168701171875 81.00415802001953 151.306396484375 92.26446533203125 148.44969177246094 95.77639770507812 L 146.6348876953125 98.27299499511719 L 149.0731658935547 103.89861297607422 C 151.13644409179688 108.49395751953125 151.51231384277344 110.75041961669922 151.43955993652344 118.0083236694336 C 151.40725708007812 126.00373840332031 151.21871948242188 126.86320495605469 149.3865509033203 128.82762145996094 C 147.8826446533203 130.6510467529297 146.0494384765625 131.2572021484375 142.86387634277344 131.36050415039062 C 140.14215087890625 131.34384155273438 138.51168823242188 130.76071166992188 136.7587127685547 128.9503936767578 C 134.6317596435547 126.92947387695312 134.5243377685547 125.76626586914062 134.5496826171875 118.8263168334961 C 134.5017547607422 111.30682373046875 134.56216430664062 111.19921112060547 130.8488006591797 107.65157318115234 C 128.9539337158203 105.456298828125 126.84609985351562 103.88395690917969 126.3083267211914 103.95182800292969 C 125.57843780517578 103.9219970703125 125.17371368408203 111.38429260253906 124.97583770751953 129.746337890625 C 125.26004791259766 159.28598022460938 125.04369354248047 160.03701782226562 118.58636474609375 162.47140502929688 C 113.80061340332031 164.53384399414062 109.70489501953125 164.45286560058594 105.05091094970703 162.26531982421875" stroke-width="1.0" fill="rgb(222, 159, 42)" opacity="0.9954523"/>
    <path d="M 103.35053253173828 194.23390197753906 C 96.89547729492188 191.36868286132812 94.38257598876953 189.60311889648438 76.09152221679688 174.72329711914062 C 65.96475219726562 166.59739685058594 52.51570510864258 155.91134643554688 46.33470916748047 150.95924377441406 C 34.180625915527344 141.5891571044922 30.99298095703125 137.7010955810547 30.868850708007812 133.96774291992188 L 31.145790100097656 131.45567321777344 L 32.93438720703125 134.30918884277344 C 34.18115234375 135.53067016601562 44.525146484375 144.3925018310547 56.37589645385742 153.78298950195312 C 68.10830688476562 163.1443634033203 81.98634338378906 174.3646240234375 86.9614028930664 178.25567626953125 C 98.72589111328125 188.30291748046875 101.99881744384766 190.03573608398438 111.95509338378906 189.82879638671875 C 121.84249877929688 190.36749267578125 125.19743347167969 188.251953125 138.7208709716797 176.7772674560547 C 143.92884826660156 172.5925750732422 157.47149658203125 161.67263793945312 168.86044311523438 152.5682373046875 C 180.21603393554688 143.64813232421875 190.69129943847656 134.89256286621094 191.49432373046875 133.3240966796875 L 193.2748260498047 130.51608276367188 L 192.99270629882812 133.75051879882812 C 192.36151123046875 138.5055389404297 190.11642456054688 141.0926971435547 180.74200439453125 148.5406036376953 C 175.8109588623047 152.15087890625 162.4786376953125 162.9405517578125 150.91586303710938 172.447021484375 C 139.2052764892578 181.934326171875 127.52305603027344 190.92257690429688 124.89563751220703 192.4451904296875 C 118.97480773925781 195.2549285888672 108.84908294677734 196.0 103.35053253173828 194.23390197753906" stroke-width="1.0" fill="rgb(197, 115, 42)" opacity="0.9831638"/>
    <path d="M 106.31002044677734 157.33090209960938 C 103.94062042236328 155.65394592285156 103.8179702758789 154.7308349609375 103.785888671875 128.692138671875 L 103.90104675292969 102.21854400634766 L 101.47837829589844 100.27713012695312 C 98.9162368774414 97.90656280517578 97.45469665527344 97.95291900634766 92.60213470458984 100.19893646240234 C 86.58602905273438 103.18563842773438 84.06832885742188 107.39093017578125 83.93917846679688 117.2189712524414 L 83.45287322998047 125.50960540771484 L 77.12615966796875 125.39628601074219 L 76.73464965820312 117.34644317626953 C 76.72120666503906 110.9862289428711 76.97399139404297 108.36471557617188 78.79818725585938 104.62767028808594 C 81.19450378417969 99.454345703125 86.76455688476562 93.87937927246094 92.01275634765625 91.39885711669922 C 96.37188720703125 89.58732604980469 118.32743835449219 88.91706848144531 125.84906768798828 90.3714370727539 C 139.78402709960938 93.371826171875 148.32325744628906 105.70606231689453 146.52769470214844 120.1513671875 C 145.9559326171875 124.88288879394531 145.52552795410156 125.54180145263672 143.15423583984375 126.00846099853516 C 140.71083068847656 125.45710754394531 140.57388305664062 125.20549011230469 139.580078125 117.71634674072266 C 139.7459716796875 111.80022430419922 139.13526916503906 109.3623046875 137.73680114746094 107.06464385986328 C 134.6449432373047 102.89118957519531 130.5118408203125 99.29360961914062 127.03466796875 98.72879791259766 C 124.50975036621094 98.1402816772461 123.7017822265625 98.40702819824219 121.67061614990234 100.04861450195312 C 119.45207214355469 102.99820709228516 119.93181610107422 103.13961029052734 120.29859924316406 129.5456085205078 C 120.15372467041016 156.06655883789062 119.96299743652344 156.02316284179688 117.63497161865234 157.43106079101562 C 114.78221893310547 159.1811981201172 108.77690124511719 159.1028289794922 106.31002044677734 157.33090209960938" stroke-width="1.0" fill="rgb(250, 253, 177)" opacity="0.99737304"/>
    <path d="M 77.5989761352539 91.08394622802734 C 76.6948471069336 88.7557144165039 76.89915466308594 83.17008972167969 77.98909759521484 78.67997741699219 C 79.1644515991211 73.61846923828125 86.45207977294922 66.67291259765625 91.93834686279297 65.17049407958984 C 97.78865814208984 63.517791748046875 101.75605010986328 63.760189056396484 107.21846771240234 66.67091369628906 C 111.21202850341797 69.06993103027344 112.6559829711914 69.25346374511719 113.69351959228516 67.90029907226562 C 120.68528747558594 62.96403121948242 129.1445770263672 63.261138916015625 136.55245971679688 68.2619400024414 C 144.29571533203125 73.53172302246094 148.71304321289062 86.10130310058594 144.869140625 91.5148696899414 C 142.1201934814453 94.78355407714844 139.62686157226562 92.37232971191406 138.76771545410156 86.27275085449219 C 138.920166015625 82.96475982666016 137.88916015625 79.6988525390625 136.92791748046875 78.40995788574219 C 135.499267578125 75.82627868652344 128.8520965576172 71.75094604492188 125.93580627441406 72.32647705078125 C 122.77506256103516 71.97624969482422 120.02433776855469 75.18037414550781 119.50045013427734 79.89167022705078 L 119.12162017822266 84.93698120117188 L 104.02989196777344 85.04264831542969 L 103.7883071899414 80.32078552246094 C 103.5667724609375 74.33024597167969 100.36467742919922 71.53874206542969 95.83940887451172 72.14569854736328 C 88.68008422851562 73.0325927734375 83.50836944580078 79.02244567871094 84.15409851074219 86.48416137695312 C 83.91670989990234 88.58586883544922 83.37416076660156 90.8218994140625 82.7886962890625 91.74188995361328 C 80.8836669921875 93.4459228515625 78.17762756347656 93.15032196044922 77.5989761352539 91.08394622802734" stroke-width="1.0" fill="rgb(250, 253, 180)" opacity="0.99910665"/>
    <path d="M 128.6034393310547 86.77011108398438 C 125.00342559814453 85.92384338378906 124.7867660522461 85.75813293457031 124.45167541503906 81.24479675292969 C 124.596923828125 76.50072479248047 126.15254211425781 76.19035339355469 130.4399871826172 79.6448974609375 C 132.80921936035156 81.10678100585938 133.60494995117188 83.26207733154297 133.63511657714844 85.0180435180664 C 133.72999572753906 86.68667602539062 133.47462463378906 87.84678649902344 132.97491455078125 87.87185668945312 C 132.7025909423828 87.83277893066406 130.54916381835938 87.3116226196289 128.6034393310547 86.77011108398438" stroke-width="1.0" fill="rgb(245, 222, 52)" opacity="0.99978375"/>
    <path d="M 89.3848876953125 84.71402740478516 C 89.20801544189453 81.50834655761719 93.22265625 77.60160827636719 96.38253784179688 77.54534912109375 C 98.66923522949219 77.50035095214844 98.84693908691406 77.87376403808594 99.16832733154297 81.6427001953125 C 98.91576385498047 85.51554870605469 98.7016372680664 85.91709899902344 93.39715576171875 86.87199401855469 C 89.57684326171875 87.32034301757812 89.37841796875 87.29682922363281 89.3848876953125 84.71402740478516" stroke-width="1.0" fill="rgb(241, 226, 49)" opacity="1.0"/>
  </g>
</svg>
