<?xml version="1.0" ?>
<svg xmlns="http://www.w3.org/2000/svg" version="1.1" width="224" height="224">
  <defs/>
  <g>
    <path d="M 94.31107330322266 41.84013366699219 C 94.31107330322266 41.84013366699219 94.31107330322266 41.84013366699219 94.31107330322266 41.84013366699219 C 96.30693054199219 40.00028991699219 98.35713195800781 38.379852294921875 100.79885864257812 37.15898895263672 C 110.6070327758789 32.253395080566406 121.81118774414062 34.577362060546875 129.68893432617188 41.84013366699219 C 148.59669494628906 60.74791717529297 167.5044708251953 79.65569305419922 186.41226196289062 98.56346893310547 C 193.676025390625 106.44120025634766 196.0 117.64636993408203 191.0944061279297 127.45352935791016 C 189.87254333496094 129.89625549316406 188.25311279296875 131.94647216796875 186.41226196289062 133.94232177734375 C 185.98550415039062 134.3690643310547 185.55874633789062 134.7968292236328 185.1320037841797 135.2235870361328 C 180.38241577148438 139.62290954589844 175.00177001953125 141.99819946289062 168.54818725585938 142.51251220703125 C 168.54818725585938 150.58551025390625 168.54818725585938 158.65850830078125 168.54818725585938 166.73048400878906 C 168.43849182128906 169.4439697265625 168.13351440429688 172.03868103027344 167.27096557617188 174.62936401367188 C 163.80364990234375 185.03236389160156 154.23904418945312 191.3128204345703 143.53208923339844 191.74661254882812 C 122.5116958618164 191.74661254882812 101.49132537841797 191.74661254882812 80.47093963623047 191.74661254882812 C 77.75746154785156 191.63690185546875 75.16275024414062 191.33193969726562 72.57206726074219 190.46939086914062 C 62.169063568115234 187.00204467773438 55.88962173461914 177.43743896484375 55.4548225402832 166.73048400878906 C 55.4548225402832 158.65850830078125 55.4548225402832 150.58551025390625 55.4548225402832 142.51251220703125 C 49.00025177001953 141.99819946289062 43.61859130859375 139.6208953857422 38.866981506347656 135.2235870361328 C 38.44023895263672 134.7968292236328 38.01349639892578 134.3690643310547 37.58673858642578 133.94232177734375 C 35.745880126953125 131.94647216796875 34.12645721435547 129.89625549316406 32.90559387207031 127.45352935791016 C 28.0 117.64636993408203 30.32396697998047 106.44120025634766 37.58673858642578 98.56346893310547 C 56.4945182800293 79.65569305419922 75.4032974243164 60.74791717529297 94.31107330322266 41.84013366699219" stroke-width="0.0" fill="rgb(3, 169, 244)" opacity="1.0" stroke="rgb(0, 0, 0)" stroke-opacity="1.0" stroke-linecap="round" stroke-linejoin="round"/>
    <path d="M 103.83944702148438 50.42241668701172 C 103.83944702148438 50.42241668701172 103.83944702148438 50.42241668701172 103.83944702148438 50.42241668701172 C 109.00068664550781 46.11467742919922 114.98623657226562 46.11467742919922 120.14747619628906 50.42241668701172 C 139.3924102783203 69.6673583984375 158.63636779785156 88.91130065917969 177.88131713867188 108.15524291992188 C 182.18905639648438 113.31648254394531 182.1900634765625 119.30303955078125 177.88131713867188 124.46327209472656 C 177.44650268554688 124.8980712890625 177.01171875 125.3338851928711 176.576904296875 125.76868438720703 C 171.41566467285156 130.076416015625 165.43011474609375 130.076416015625 160.2688751220703 125.76868438720703 C 144.17724609375 109.67704772949219 128.08560180664062 93.58540344238281 111.99396514892578 77.49375915527344 C 95.90232849121094 93.58540344238281 79.80968475341797 109.67704772949219 63.71803665161133 125.76868438720703 C 58.55780792236328 130.076416015625 52.571250915527344 130.076416015625 47.410011291503906 125.76868438720703 C 46.97520446777344 125.3338851928711 46.541412353515625 124.8980712890625 46.10662078857422 124.46327209472656 C 41.79785919189453 119.30303955078125 41.79887390136719 113.31648254394531 46.10662078857422 108.15524291992188 C 65.35055541992188 88.91130065917969 84.59550476074219 69.6673583984375 103.83944702148438 50.42241668701172" stroke-width="0.0" fill="rgb(255, 255, 102)" opacity="1.0" stroke="rgb(0, 0, 0)" stroke-opacity="1.0" stroke-linecap="round" stroke-linejoin="round"/>
    <path d="M 111.98993682861328 93.80582427978516 C 126.53058624267578 108.34647369384766 141.0712432861328 122.88712310791016 155.61187744140625 137.42776489257812 C 155.61489868164062 147.51473999023438 155.617919921875 157.6027069091797 155.61993408203125 167.68966674804688 C 155.0170440673828 174.38580322265625 150.78277587890625 178.6200714111328 144.08665466308594 179.2229461669922 C 138.29736328125 179.2229461669922 132.507080078125 179.2229461669922 126.71778869628906 179.2229461669922 C 126.71778869628906 168.20700073242188 126.71778869628906 157.19105529785156 126.71778869628906 146.17510986328125 C 126.53662109375 143.50894165039062 126.0726318359375 141.097412109375 124.69979858398438 138.7583465576172 C 119.88880920410156 130.55953979492188 108.32432556152344 129.0467987060547 101.59498596191406 135.77613830566406 C 98.71745300292969 138.6526641845703 97.53886413574219 142.2025146484375 97.26912689208984 146.17510986328125 C 97.26912689208984 157.19105529785156 97.26912689208984 168.20700073242188 97.26912689208984 179.2229461669922 C 91.4798355102539 179.2229461669922 85.68954467773438 179.2229461669922 79.90026092529297 179.2229461669922 C 73.20413208007812 178.6200714111328 68.97087097167969 174.38580322265625 68.36798858642578 167.68966674804688 C 68.36798858642578 157.6027069091797 68.36798858642578 147.51473999023438 68.36798858642578 137.42776489257812 C 82.90863800048828 122.88712310791016 97.44927978515625 108.34647369384766 111.98993682861328 93.80582427978516" stroke-width="0.0" fill="rgb(255, 255, 102)" opacity="1.0" stroke="rgb(0, 0, 0)" stroke-opacity="1.0" stroke-linecap="round" stroke-linejoin="round"/>
    <path d="M 68.37100219726562 137.42776489257812 C 68.37100219726562 137.42776489257812 68.37100219726562 137.42776489257812 68.37100219726562 137.42776489257812 C 77.54106140136719 141.91366577148438 87.43277740478516 143.24020385742188 97.55597686767578 143.2864990234375 C 97.55597686767578 143.2864990234375 97.55597686767578 143.2864990234375 97.55597686767578 143.2864990234375 C 97.41506958007812 144.24366760253906 97.32146453857422 145.20887756347656 97.27315521240234 146.17510986328125 C 97.27315521240234 157.19105529785156 97.27315521240234 168.20700073242188 97.27315521240234 179.2229461669922 C 91.48387145996094 179.2229461669922 85.69357299804688 179.2229461669922 79.90428161621094 179.2229461669922 C 73.20816040039062 178.6200714111328 68.97389221191406 174.38580322265625 68.37100219726562 167.68966674804688 C 68.37100219726562 157.6027069091797 68.37100219726562 147.51473999023438 68.37100219726562 137.42776489257812" stroke-width="0.0" fill="rgb(79, 195, 247)" opacity="1.0" stroke="rgb(0, 0, 0)" stroke-opacity="1.0" stroke-linecap="round" stroke-linejoin="round"/>
    <path d="M 155.61590576171875 137.42776489257812 C 155.61590576171875 147.51473999023438 155.61590576171875 157.6027069091797 155.61590576171875 167.68966674804688 C 155.01303100585938 174.38580322265625 150.77874755859375 178.6200714111328 144.08262634277344 179.2229461669922 C 138.2933349609375 179.2229461669922 132.50405883789062 179.2229461669922 126.71476745605469 179.2229461669922 C 126.71476745605469 168.20700073242188 126.71476745605469 157.19105529785156 126.71476745605469 146.17510986328125 C 126.66646575927734 145.20989990234375 126.57084655761719 144.2456817626953 126.42691040039062 143.29054260253906 C 126.42691040039062 143.29054260253906 126.42691040039062 143.29054260253906 126.42691040039062 143.29054260253906 C 136.55111694335938 143.2412109375 146.44483947753906 141.9146728515625 155.61590576171875 137.42776489257812 C 155.61590576171875 137.42776489257812 155.61590576171875 137.42776489257812 155.61590576171875 137.42776489257812" stroke-width="0.0" fill="rgb(79, 195, 247)" opacity="1.0" stroke="rgb(0, 0, 0)" stroke-opacity="1.0" stroke-linecap="round" stroke-linejoin="round"/>
  </g>
</svg>
