<?xml version="1.0" ?>
<svg xmlns="http://www.w3.org/2000/svg" version="1.1" width="224" height="224">
  <defs/>
  <g>
    <path d="M 112.04207611083984 69.05657958984375 C 112.04207611083984 69.05657958984375 112.04207611083984 69.05657958984375 112.04207611083984 69.05657958984375 C 135.9803466796875 69.21694946289062 161.64247131347656 74.41650390625 177.70297241210938 93.70209503173828 C 181.0358428955078 97.7036361694336 183.82449340820312 102.14073944091797 186.07852172851562 106.83199310302734 C 191.55853271484375 118.2380599975586 193.89144897460938 130.9359130859375 194.5793914794922 143.4952850341797 C 194.69332885742188 145.57493591308594 194.76168823242188 147.65634155273438 194.78884887695312 149.73861694335938 C 194.80111694335938 150.69297790527344 194.94659423828125 152.61050415039062 194.46194458007812 153.57977294921875 C 193.82571411132812 154.85227966308594 192.9563446044922 154.69891357421875 191.73641967773438 154.94342041015625 C 138.5691680908203 154.94342041015625 85.40279388427734 154.94342041015625 32.23554229736328 154.94342041015625 C 31.015625 154.69891357421875 30.14537811279297 154.85227966308594 29.509124755859375 153.57977294921875 C 29.024490356445312 152.61050415039062 29.169967651367188 150.69386291503906 29.182235717773438 149.73948669433594 C 29.20941162109375 147.6580810546875 29.27776336669922 145.57757568359375 29.391693115234375 143.49879455566406 C 30.07965087890625 130.9438018798828 32.41168975830078 118.25032806396484 37.88905334472656 106.84864807128906 C 40.14222717285156 102.15826416015625 42.92998504638672 97.7220458984375 46.2611083984375 93.72137451171875 C 62.313724517822266 74.43841552734375 87.96269226074219 69.2292251586914 111.89484405517578 69.0592041015625 C 111.89484405517578 69.0592041015625 111.89484405517578 69.0592041015625 111.89484405517578 69.0592041015625 C 111.89484405517578 69.0592041015625 112.04207611083984 69.05657958984375 112.04207611083984 69.05657958984375" stroke-width="0.0" fill="rgb(34, 32, 77)" opacity="1.0"/>
    <path d="M 112.04207611083984 72.1239013671875 C 112.04207611083984 72.1239013671875 112.04207611083984 72.1239013671875 112.04207611083984 72.1239013671875 C 133.91384887695312 72.18087005615234 157.0248260498047 76.59430694580078 172.67782592773438 93.15260314941406 C 175.59616088867188 96.24008178710938 178.1665802001953 99.65094757080078 180.36102294921875 103.28791809082031 C 183.5957489013672 108.64960479736328 186.01104736328125 114.47664642333984 187.74716186523438 120.48596954345703 C 190.69705200195312 130.70103454589844 191.63038635253906 141.28244018554688 191.73641967773438 151.87521362304688 C 138.5691680908203 151.87521362304688 85.40279388427734 151.87521362304688 32.23554229736328 151.87521362304688 C 32.33807373046875 141.27191162109375 33.240753173828125 130.67562866210938 36.12403869628906 120.4325180053711 C 37.813690185546875 114.43283081054688 40.1658935546875 108.60315704345703 43.33662414550781 103.22832489013672 C 45.76683044433594 99.10847473144531 48.67728042602539 95.2734375 52.03468704223633 91.86433410644531 C 67.77444458007812 75.88619995117188 90.49542236328125 72.16596984863281 111.9842300415039 72.12741088867188 C 111.9842300415039 72.12741088867188 111.9842300415039 72.12741088867188 111.9842300415039 72.12741088867188 C 111.9842300415039 72.12741088867188 112.04207611083984 72.1239013671875 112.04207611083984 72.1239013671875" stroke-width="0.0" fill="rgb(34, 32, 77)" opacity="1.0"/>
    <path d="M 112.13146209716797 75.19122314453125 C 112.13146209716797 75.19122314453125 112.13146209716797 75.19122314453125 112.13146209716797 75.19122314453125 C 91.10977172851562 75.69163513183594 68.94528198242188 78.62137603759766 53.653358459472656 94.59162139892578 C 50.77007293701172 97.60372924804688 48.24785614013672 100.9532470703125 46.11036682128906 104.53150177001953 C 42.944007873535156 109.83096313476562 40.626869201660156 115.60542297363281 38.98014831542969 121.54638671875 C 36.51665496826172 130.432861328125 35.58418273925781 139.61468505859375 35.333534240722656 148.80789184570312 C 86.43429565429688 148.80789184570312 137.53591918945312 148.80789184570312 188.63668823242188 148.80789184570312 C 188.37112426757812 139.2991943359375 187.3431396484375 129.79925537109375 184.61322021484375 120.65599060058594 C 182.90341186523438 114.92886352539062 180.5371856689453 109.38138580322266 177.37432861328125 104.30188751220703 C 175.21669006347656 100.8366928100586 172.6918487548828 97.60022735595703 169.83047485351562 94.68801879882812 C 154.7970733642578 79.38995361328125 132.75877380371094 75.35072326660156 112.13146209716797 75.19122314453125 C 112.13146209716797 75.19122314453125 112.13146209716797 75.19122314453125 112.13146209716797 75.19122314453125" stroke-width="0.0" fill="rgb(233, 221, 201)" opacity="1.0"/>
    <path d="M 111.9842300415039 112.00175476074219 C 112.0035171508789 112.00175476074219 112.02278900146484 112.00175476074219 112.04207611083984 112.00175476074219 C 127.23672485351562 112.06484985351562 142.49447631835938 113.41622924804688 157.1922149658203 117.4361801147461 C 165.2277374267578 119.6341323852539 173.2588653564453 122.52793884277344 180.240966796875 127.15170288085938 C 186.9031982421875 131.56427001953125 192.4051055908203 137.80233764648438 194.156982421875 145.76687622070312 C 194.6258544921875 147.8955841064453 196.0 153.3212432861328 193.4401092529297 154.60250854492188 C 192.92129516601562 154.86105346679688 192.3043212890625 154.82948303222656 191.73641967773438 154.94342041015625 C 138.5691680908203 154.94342041015625 85.40279388427734 154.94342041015625 32.23554229736328 154.94342041015625 C 31.667648315429688 154.82948303222656 31.0498046875 154.86105346679688 30.5318603515625 154.60250854492188 C 28.00000762939453 153.33615112304688 29.33209991455078 148.0375518798828 29.793075561523438 145.92636108398438 C 31.625579833984375 137.5280303955078 37.66295623779297 131.12432861328125 44.773887634277344 126.678466796875 C 51.480812072753906 122.48499298095703 59.03256607055664 119.77348327636719 66.62112426757812 117.66578674316406 C 81.3863525390625 113.56258392333984 96.69756317138672 112.068359375 111.9842300415039 112.00175476074219 C 111.9842300415039 112.00175476074219 111.9842300415039 112.00175476074219 111.9842300415039 112.00175476074219" stroke-width="0.0" fill="rgb(34, 32, 77)" opacity="1.0"/>
    <path d="M 111.9842300415039 115.06907653808594 C 111.9842300415039 115.06907653808594 111.9842300415039 115.06907653808594 111.9842300415039 115.06907653808594 C 131.84910583496094 115.06907653808594 153.4868927001953 117.22321319580078 171.61740112304688 125.87657928466797 C 179.61962890625 129.69583129882812 187.53945922851562 135.4851837158203 190.500732421875 144.21304321289062 C 191.34906005859375 146.71334838867188 191.65316772460938 149.24960327148438 191.73641967773438 151.87521362304688 C 138.5691680908203 151.87521362304688 85.40279388427734 151.87521362304688 32.23554229736328 151.87521362304688 C 32.636924743652344 139.68479919433594 41.206153869628906 131.5782928466797 51.60262680053711 126.4497299194336 C 69.86811065673828 117.43792724609375 91.8555679321289 115.16022491455078 111.9842300415039 115.06907653808594 C 111.9842300415039 115.06907653808594 111.9842300415039 115.06907653808594 111.9842300415039 115.06907653808594" stroke-width="0.0" fill="rgb(34, 32, 77)" opacity="1.0"/>
    <path d="M 111.9842300415039 118.13552856445312 C 111.9842300415039 118.13552856445312 111.9842300415039 118.13552856445312 111.9842300415039 118.13552856445312 C 92.99574279785156 118.2214126586914 73.07477569580078 120.32559204101562 55.50076675415039 127.99653625488281 C 46.260223388671875 132.03050231933594 37.41844177246094 138.3123779296875 35.52195739746094 148.80789184570312 C 86.50001525878906 148.80789184570312 137.47720336914062 148.80789184570312 188.45526123046875 148.80789184570312 C 186.65780639648438 138.66995239257812 178.51361083984375 132.38543701171875 169.59471130371094 128.29800415039062 C 151.8270263671875 120.15557861328125 131.35044860839844 118.21790313720703 112.04207611083984 118.13552856445312 C 112.04207611083984 118.13552856445312 112.04207611083984 118.13552856445312 112.04207611083984 118.13552856445312 C 112.04207611083984 118.13552856445312 111.9842300415039 118.13552856445312 111.9842300415039 118.13552856445312" stroke-width="0.0" fill="rgb(247, 190, 79)" opacity="1.0"/>
    <path d="M 109.6916275024414 128.23577880859375 C 109.6916275024414 128.23577880859375 109.6916275024414 128.23577880859375 109.6916275024414 128.23577880859375 C 110.17362976074219 127.9141616821289 110.5881576538086 127.45494079589844 111.13764953613281 127.27177429199219 C 112.91319274902344 126.67933654785156 115.11377716064453 128.63278198242188 115.11377716064453 130.40394592285156 C 115.11377716064453 131.419677734375 114.60459899902344 131.80703735351562 114.02970123291016 132.57386779785156 C 113.00784301757812 133.59571838378906 111.9859848022461 134.61758422851562 110.96412658691406 135.6403045654297 C 110.48212432861328 135.9610595703125 110.06758880615234 136.4202880859375 109.51809692382812 136.60345458984375 C 107.7416763305664 137.1958770751953 105.54197692871094 135.24154663085938 105.54197692871094 133.47039794921875 C 105.54197692871094 132.45468139648438 106.0511474609375 132.0681915283203 106.62605285644531 131.30136108398438 C 107.64791107177734 130.2794952392578 108.66976928710938 129.2576446533203 109.6916275024414 128.23577880859375" stroke-width="0.0" fill="rgb(35, 32, 77)" opacity="1.0"/>
    <path d="M 137.30104064941406 131.30136108398438 C 137.30104064941406 131.30136108398438 137.30104064941406 131.30136108398438 137.30104064941406 131.30136108398438 C 137.78305053710938 130.979736328125 138.1975860595703 130.5205078125 138.7470703125 130.33734130859375 C 140.75047302246094 129.66954040527344 143.2709503173828 132.19000244140625 142.60313415527344 134.1934051513672 C 142.41998291015625 134.74288940429688 141.96075439453125 135.1574249267578 141.63912963867188 135.6403045654297 C 140.61639404296875 136.66305541992188 139.5927734375 137.68577575683594 138.57005310058594 138.70851135253906 C 138.08804321289062 139.03013610839844 137.6735076904297 139.48936462402344 137.1240234375 139.67251586914062 C 135.12149047851562 140.34033203125 132.60015869140625 137.81900024414062 133.26795959472656 135.81646728515625 C 133.4511260986328 135.2669677734375 133.91122436523438 134.85244750976562 134.23196411132812 134.3704376220703 C 135.2547149658203 133.3477020263672 136.27743530273438 132.3240966796875 137.30104064941406 131.30136108398438" stroke-width="0.0" fill="rgb(34, 32, 77)" opacity="1.0"/>
    <path d="M 86.42289733886719 131.3004913330078 C 86.42289733886719 131.3004913330078 86.42289733886719 131.3004913330078 86.42289733886719 131.3004913330078 C 87.72169494628906 133.02957153320312 87.72169494628906 133.90682983398438 86.42552947998047 135.6385498046875 C 85.40279388427734 136.6613006591797 84.38093566894531 137.68402099609375 83.35907745361328 138.7076416015625 C 82.8779525756836 139.02926635742188 82.46342468261719 139.48849487304688 81.91392517089844 139.67251586914062 C 80.13839721679688 140.26583862304688 77.93605041503906 138.3123779296875 77.9351806640625 136.54122924804688 C 77.9351806640625 135.5263671875 78.44435119628906 135.13900756835938 79.01925659179688 134.37217712402344 C 80.0411148071289 133.34945678710938 81.06297302246094 132.3258514404297 82.08483123779297 131.3031005859375 C 84.01724243164062 130.01307678222656 84.48873138427734 130.01307678222656 86.42289733886719 131.3004913330078 C 86.42289733886719 131.3004913330078 86.42289733886719 131.3004913330078 86.42289733886719 131.3004913330078" stroke-width="0.0" fill="rgb(34, 32, 77)" opacity="1.0"/>
    <path d="M 85.79103088378906 72.61642456054688 C 85.79103088378906 72.61642456054688 85.79103088378906 72.61642456054688 85.79103088378906 72.61642456054688 C 86.9627456665039 72.17034912109375 87.61827850341797 71.57791900634766 88.84608459472656 72.30793762207031 C 89.71107482910156 72.82150268554688 90.38325500488281 74.05193328857422 90.86438751220703 74.88362121582031 C 92.54791259765625 77.79582214355469 93.79499816894531 80.94552612304688 94.72920989990234 84.17147827148438 C 97.44072723388672 93.53558349609375 97.5178451538086 103.50701904296875 93.36469268798828 112.46710968017578 C 92.38227844238281 114.58618927001953 90.90294647216797 118.34760284423828 88.74617767333984 119.532470703125 C 86.91016387939453 120.54118347167969 83.91908264160156 118.57984924316406 84.21092224121094 116.47040557861328 C 84.48960876464844 114.46437072753906 86.57977294921875 112.31987762451172 87.46141052246094 110.50577545166016 C 89.38681030273438 106.5410385131836 90.41217803955078 102.19507598876953 90.50419616699219 97.79127502441406 C 90.62425994873047 92.04222869873047 89.31231689453125 86.10125732421875 86.98728942871094 80.85087585449219 C 86.19503784179688 79.06044006347656 83.3064956665039 75.8143310546875 84.52554321289062 73.81181335449219 C 84.82789611816406 73.31578063964844 85.36949157714844 73.01518249511719 85.79103088378906 72.61642456054688 C 85.79103088378906 72.61642456054688 85.79103088378906 72.61642456054688 85.79103088378906 72.61642456054688" stroke-width="0.0" fill="rgb(34, 32, 77)" opacity="1.0"/>
    <path d="M 138.19056701660156 72.62255859375 C 138.19056701660156 72.62255859375 138.19056701660156 72.62255859375 138.19056701660156 72.62255859375 C 137.02061462402344 72.17210388183594 136.36859130859375 71.57704162597656 135.13726806640625 72.30180358886719 C 134.2696533203125 72.81272888183594 133.59046936035156 74.04317474365234 133.1058349609375 74.87310791015625 C 131.40740966796875 77.78268432617188 130.14453125 80.93238830566406 129.19630432128906 84.16008758544922 C 126.44710540771484 93.51805877685547 126.33405303955078 103.49562072753906 130.48370361328125 112.4653549194336 C 131.46437072753906 114.58531188964844 132.94369506835938 118.34760284423828 135.1022186279297 119.532470703125 C 136.93910217285156 120.54118347167969 139.92930603027344 118.57984924316406 139.63746643066406 116.47040557861328 C 139.3596649169922 114.46437072753906 137.26950073242188 112.32162475585938 136.38961791992188 110.50752258300781 C 134.46859741210938 106.54454803466797 133.45199584960938 102.199462890625 133.37225341796875 97.79828643798828 C 133.26882934570312 92.04574584960938 134.60707092285156 86.10565185546875 136.9548797607422 80.86227416992188 C 137.75588989257812 79.0735855102539 140.66371154785156 75.8336181640625 139.4508056640625 73.82319641113281 C 139.15109252929688 73.3262939453125 138.61123657226562 73.0230712890625 138.19056701660156 72.62255859375 C 138.19056701660156 72.62255859375 138.19056701660156 72.62255859375 138.19056701660156 72.62255859375" stroke-width="0.0" fill="rgb(34, 32, 77)" opacity="1.0"/>
    <path d="M 54.91621398925781 86.52806091308594 C 54.91621398925781 86.52806091308594 54.91621398925781 86.52806091308594 54.91621398925781 86.52806091308594 C 55.72336196899414 85.87165069580078 56.25970458984375 84.9742431640625 57.46034240722656 85.52021789550781 C 58.29202651977539 85.89794158935547 59.08427429199219 87.11961364746094 59.56978988647461 87.83824157714844 C 61.06488800048828 90.0528564453125 62.26377487182617 92.45851135253906 63.238304138183594 94.94392395019531 C 66.19170379638672 102.47026062011719 67.23196411132812 110.75992584228516 64.73954772949219 118.5684585571289 C 64.04106903076172 120.75589752197266 62.92631530761719 124.71713256835938 60.89311981201172 126.0615005493164 C 59.187686920166016 127.18938446044922 57.219337463378906 124.81089782714844 57.03267288208008 123.30265808105469 C 56.789039611816406 121.34043884277344 58.462921142578125 119.39137268066406 59.150001525878906 117.66578674316406 C 60.39007568359375 114.55464172363281 60.91415023803711 111.2024917602539 60.736244201660156 107.8608627319336 C 60.49699401855469 103.38958740234375 59.10530471801758 98.89463806152344 57.05545425415039 94.9263916015625 C 55.50251770019531 91.92041015625 52.833946228027344 89.91964721679688 54.91621398925781 86.52806091308594 C 54.91621398925781 86.52806091308594 54.91621398925781 86.52806091308594 54.91621398925781 86.52806091308594" stroke-width="0.0" fill="rgb(34, 32, 77)" opacity="1.0"/>
    <path d="M 169.05136108398438 86.52806091308594 C 169.05136108398438 86.52806091308594 169.05136108398438 86.52806091308594 169.05136108398438 86.52806091308594 C 168.24423217773438 85.87165069580078 167.70787048339844 84.9742431640625 166.50723266601562 85.52021789550781 C 165.67556762695312 85.89794158935547 164.88418579101562 87.11961364746094 164.398681640625 87.83824157714844 C 162.9027099609375 90.0528564453125 161.70468139648438 92.45851135253906 160.73016357421875 94.94392395019531 C 157.77676391601562 102.47113800048828 156.7373809814453 110.75992584228516 159.23068237304688 118.5684585571289 C 159.92913818359375 120.75677490234375 161.04476928710938 124.71713256835938 163.07884216308594 126.0615005493164 C 164.78427124023438 127.18938446044922 166.75262451171875 124.81089782714844 166.9392852783203 123.30265808105469 C 167.18116760253906 121.33956146240234 165.50816345214844 119.39137268066406 164.82020568847656 117.66578674316406 C 163.58013916015625 114.55464172363281 163.05519104003906 111.2024917602539 163.23309326171875 107.8599853515625 C 163.47146606445312 103.38870239257812 164.8631591796875 98.89376068115234 166.91299438476562 94.9263916015625 C 168.46682739257812 91.92041015625 171.13365173339844 89.91964721679688 169.05136108398438 86.52806091308594 C 169.05136108398438 86.52806091308594 169.05136108398438 86.52806091308594 169.05136108398438 86.52806091308594" stroke-width="0.0" fill="rgb(34, 32, 77)" opacity="1.0"/>
  </g>
</svg>
