<?xml version="1.0" ?>
<svg xmlns="http://www.w3.org/2000/svg" version="1.1" width="224" height="224">
  <defs/>
  <g>
    <path d="M 67.7830810546875 27.99999237060547 C 67.7830810546875 27.99999237060547 67.7830810546875 27.99999237060547 67.7830810546875 27.99999237060547 C 69.93399047851562 28.430335998535156 70.24930572509766 28.745651245117188 70.67965698242188 30.896560668945312 C 70.67965698242188 72.91580200195312 70.67965698242188 114.93504333496094 70.67965698242188 156.9542999267578 C 75.14450073242188 160.5253448486328 79.6093521118164 164.09640502929688 84.07420349121094 167.66744995117188 C 84.60302734375 168.3162841796875 84.98538208007812 169.1124267578125 85.16165161132812 169.93008422851562 C 85.16165161132812 177.65481567382812 85.16165161132812 185.37872314453125 85.16165161132812 193.1034393310547 C 84.73130798339844 195.2543487548828 84.41600036621094 195.5696563720703 82.26509094238281 196.0 C 77.43775939941406 196.0 72.61042022705078 196.0 67.7830810546875 196.0 C 65.63134765625 195.5696563720703 65.3160400390625 195.2543487548828 64.88569641113281 193.1034393310547 C 64.88569641113281 181.8291778564453 64.88569641113281 170.55490112304688 64.88569641113281 159.2798309326172 C 64.77313995361328 158.7311248779297 64.77810668945312 158.14849853515625 64.88569641113281 157.59815979003906 C 64.88569641113281 115.36457061767578 64.88569641113281 73.1301498413086 64.88569641113281 30.896560668945312 C 65.3160400390625 28.745651245117188 65.63134765625 28.430335998535156 67.7830810546875 27.99999237060547 C 67.7830810546875 27.99999237060547 67.7830810546875 27.99999237060547 67.7830810546875 27.99999237060547" stroke-width="0.0" fill="rgb(34, 32, 77)" opacity="1.0"/>
    <path d="M 109.7816390991211 27.99999237060547 C 109.7816390991211 27.99999237060547 109.7816390991211 27.99999237060547 109.7816390991211 27.99999237060547 C 111.93254852294922 28.430335998535156 112.24786376953125 28.745651245117188 112.67820739746094 30.896560668945312 C 112.67820739746094 72.91580200195312 112.67820739746094 114.93504333496094 112.67820739746094 156.9542999267578 C 117.14305114746094 160.5253448486328 121.60791015625 164.09640502929688 126.07275390625 167.66744995117188 C 126.60159301757812 168.3162841796875 126.98393249511719 169.1124267578125 127.16020202636719 169.93008422851562 C 127.16020202636719 177.65481567382812 127.16020202636719 185.37872314453125 127.16020202636719 193.1034393310547 C 126.72986602783203 195.2543487548828 126.41537475585938 195.5696563720703 124.26447296142578 196.0 C 119.43630981445312 196.0 114.60897827148438 196.0 109.7816390991211 196.0 C 107.6307373046875 195.5696563720703 107.31542205810547 195.2543487548828 106.88507843017578 193.1034393310547 C 106.88507843017578 181.8291778564453 106.88507843017578 170.55490112304688 106.88507843017578 159.2798309326172 C 106.77169799804688 158.7311248779297 106.77666473388672 158.14849853515625 106.88507843017578 157.59815979003906 C 106.88507843017578 115.36457061767578 106.88507843017578 73.1301498413086 106.88507843017578 30.896560668945312 C 107.31542205810547 28.745651245117188 107.6307373046875 28.430335998535156 109.7816390991211 27.99999237060547 C 109.7816390991211 27.99999237060547 109.7816390991211 27.99999237060547 109.7816390991211 27.99999237060547" stroke-width="0.0" fill="rgb(34, 32, 77)" opacity="1.0"/>
    <path d="M 151.7801971435547 27.99999237060547 C 151.7801971435547 27.99999237060547 151.7801971435547 27.99999237060547 151.7801971435547 27.99999237060547 C 153.9311065673828 28.430335998535156 154.2464141845703 28.745651245117188 154.6767578125 30.896560668945312 C 154.6767578125 72.91580200195312 154.6767578125 114.93421936035156 154.6767578125 156.95346069335938 C 159.14328002929688 160.52452087402344 163.60894775390625 164.09640502929688 168.07461547851562 167.66744995117188 C 168.60345458984375 168.3162841796875 168.9857940673828 169.1124267578125 169.16207885742188 169.93008422851562 C 169.16207885742188 177.65481567382812 169.16207885742188 185.37872314453125 169.16207885742188 193.1034393310547 C 168.7325439453125 195.2543487548828 168.417236328125 195.5696563720703 166.26551818847656 196.0 C 161.43734741210938 196.0 156.60836791992188 196.0 151.7801971435547 196.0 C 149.62928771972656 195.5696563720703 149.31398010253906 195.2543487548828 148.88363647460938 193.1034393310547 C 148.88363647460938 181.8291778564453 148.88363647460938 170.55490112304688 148.88363647460938 159.2798309326172 C 148.77024841308594 158.7311248779297 148.7752227783203 158.14849853515625 148.88363647460938 157.59815979003906 C 148.88363647460938 115.36457061767578 148.88363647460938 73.1301498413086 148.88363647460938 30.896560668945312 C 149.31398010253906 28.745651245117188 149.62928771972656 28.430335998535156 151.7801971435547 27.99999237060547 C 151.7801971435547 27.99999237060547 151.7801971435547 27.99999237060547 151.7801971435547 27.99999237060547" stroke-width="0.0" fill="rgb(34, 32, 77)" opacity="1.0"/>
    <path d="M 63.436580657958984 111.32096099853516 C 66.81562805175781 111.32096099853516 70.19468688964844 111.32096099853516 73.57290649414062 111.32096099853516 C 78.7635498046875 111.81668853759766 81.06922149658203 115.81808471679688 81.37625885009766 120.68762969970703 C 81.37625885009766 126.48075866699219 81.37625885009766 132.27389526367188 81.37625885009766 138.06703186035156 C 81.06922149658203 142.9365692138672 78.7635498046875 146.9396209716797 73.57290649414062 147.43368530273438 C 70.19468688964844 147.43368530273438 66.81562805175781 147.43368530273438 63.436580657958984 147.43368530273438 C 58.24593734741211 146.9387969970703 55.941097259521484 142.9365692138672 55.63405990600586 138.06703186035156 C 55.63405990600586 132.27389526367188 55.63405990600586 126.48075866699219 55.63405990600586 120.68762969970703 C 55.941925048828125 115.81891632080078 58.246761322021484 111.81585693359375 63.436580657958984 111.32096099853516 C 63.436580657958984 111.32096099853516 63.436580657958984 111.32096099853516 63.436580657958984 111.32096099853516" stroke-width="0.0" fill="rgb(34, 32, 77)" opacity="1.0"/>
    <path d="M 67.7830810546875 64.92790222167969 C 67.7830810546875 64.92790222167969 67.7830810546875 64.92790222167969 67.7830810546875 64.92790222167969 C 69.30833435058594 65.02224731445312 70.70365142822266 65.17452239990234 72.13041687011719 65.77452850341797 C 77.41789245605469 67.9974365234375 79.57459259033203 73.32380676269531 79.8195571899414 78.68824768066406 C 79.8195571899414 81.5848159790039 79.8195571899414 84.48055267333984 79.8195571899414 87.37712097167969 C 79.6912841796875 90.18182373046875 79.27417755126953 92.83590698242188 77.78616333007812 95.27812194824219 C 73.88739013671875 101.67870330810547 65.14555358886719 103.17085266113281 59.72980499267578 97.75262451171875 C 56.8737907409668 94.8957748413086 55.922061920166016 91.299072265625 55.742469787597656 87.37712097167969 C 55.742469787597656 84.48055267333984 55.742469787597656 81.5848159790039 55.742469787597656 78.68824768066406 C 55.9882698059082 73.3229751586914 58.14662551879883 67.9974365234375 63.43492889404297 65.77452850341797 C 64.8616943359375 65.17452239990234 66.25701141357422 65.02224731445312 67.7830810546875 64.92790222167969 C 67.7830810546875 64.92790222167969 67.7830810546875 64.92790222167969 67.7830810546875 64.92790222167969" stroke-width="0.0" fill="rgb(34, 32, 77)" opacity="1.0"/>
    <path d="M 69.59302520751953 156.08367919921875 C 74.41954040527344 159.94520568847656 79.24686431884766 163.80674743652344 84.07420349121094 167.66744995117188 C 84.60302734375 168.3162841796875 84.98538208007812 169.1124267578125 85.16165161132812 169.93008422851562 C 85.16165161132812 177.65481567382812 85.16165161132812 185.37872314453125 85.16165161132812 193.1034393310547 C 84.73130798339844 195.2543487548828 84.41600036621094 195.5696563720703 82.26509094238281 196.0 C 77.43775939941406 196.0 72.61042022705078 196.0 67.7830810546875 196.0 C 65.63134765625 195.5696563720703 65.3160400390625 195.2543487548828 64.88569641113281 193.1034393310547 C 64.88569641113281 181.51800537109375 64.88569641113281 169.93173217773438 64.88569641113281 158.34629821777344 C 65.13976287841797 156.81195068359375 66.20570373535156 154.91758728027344 68.13481140136719 155.33056640625 C 68.66943359375 155.44476318359375 69.10639953613281 155.83290100097656 69.59302520751953 156.08367919921875 C 69.59302520751953 156.08367919921875 69.59302520751953 156.08367919921875 69.59302520751953 156.08367919921875" stroke-width="0.0" fill="rgb(34, 32, 77)" opacity="1.0"/>
    <path d="M 105.43596649169922 111.32096099853516 C 108.81584167480469 111.32096099853516 112.19572448730469 111.32096099853516 115.57559967041016 111.32096099853516 C 120.76625061035156 111.81668853759766 123.07108306884766 115.81808471679688 123.37812805175781 120.68762969970703 C 123.37812805175781 126.48075866699219 123.37812805175781 132.27389526367188 123.37812805175781 138.06703186035156 C 123.07025909423828 142.9365692138672 120.76625061035156 146.9387969970703 115.57559967041016 147.43368530273438 C 112.19572448730469 147.43368530273438 108.81584167480469 147.43368530273438 105.43596649169922 147.43368530273438 C 100.24531555175781 146.93795776367188 97.94048309326172 142.9365692138672 97.63343811035156 138.06703186035156 C 97.63261413574219 132.27389526367188 97.63261413574219 126.47992706298828 97.63261413574219 120.68680572509766 C 97.9413070678711 115.81891632080078 100.24613952636719 111.81585693359375 105.43596649169922 111.32096099853516 C 105.43596649169922 111.32096099853516 105.43596649169922 111.32096099853516 105.43596649169922 111.32096099853516" stroke-width="0.0" fill="rgb(34, 32, 77)" opacity="1.0"/>
    <path d="M 109.7816390991211 64.92790222167969 C 109.7816390991211 64.92790222167969 109.7816390991211 64.92790222167969 109.7816390991211 64.92790222167969 C 111.30689239501953 65.02224731445312 112.70220947265625 65.17452239990234 114.12897491455078 65.77452850341797 C 119.41727447509766 67.9974365234375 121.57563018798828 73.3229751586914 121.82142639160156 78.68824768066406 C 121.82142639160156 81.5848159790039 121.82142639160156 84.48055267333984 121.82142639160156 87.37712097167969 C 121.64183807373047 91.299072265625 120.69010925292969 94.8957748413086 117.83409881591797 97.75262451171875 C 112.41834259033203 103.17002868652344 103.67650604248047 101.67953491210938 99.7777328491211 95.27812194824219 C 98.2905502319336 92.83590698242188 97.87344360351562 90.18182373046875 97.74517059326172 87.37712097167969 C 97.74517059326172 84.48055267333984 97.74517059326172 81.5848159790039 97.74517059326172 78.68824768066406 C 97.9901351928711 73.32380676269531 100.14601135253906 67.9974365234375 105.43431091308594 65.77452850341797 C 106.86107635498047 65.17452239990234 108.25639343261719 65.02224731445312 109.7816390991211 64.92790222167969 C 109.7816390991211 64.92790222167969 109.7816390991211 64.92790222167969 109.7816390991211 64.92790222167969" stroke-width="0.0" fill="rgb(34, 32, 77)" opacity="1.0"/>
    <path d="M 111.59075164794922 156.08367919921875 C 116.41808319091797 159.94520568847656 121.24542236328125 163.80674743652344 126.07275390625 167.66744995117188 C 126.60159301757812 168.3162841796875 126.98393249511719 169.1124267578125 127.16020202636719 169.93008422851562 C 127.16020202636719 177.65481567382812 127.16020202636719 185.37872314453125 127.16020202636719 193.1034393310547 C 126.72986602783203 195.2543487548828 126.41537475585938 195.5696563720703 124.26447296142578 196.0 C 119.43630981445312 196.0 114.60897827148438 196.0 109.7816390991211 196.0 C 107.6307373046875 195.5696563720703 107.31542205810547 195.2543487548828 106.88507843017578 193.1034393310547 C 106.88507843017578 181.51800537109375 106.88507843017578 169.93173217773438 106.88507843017578 158.34629821777344 C 107.13832092285156 156.81195068359375 108.20343017578125 154.91758728027344 110.13336944580078 155.33056640625 C 110.6679916381836 155.44476318359375 111.1049575805664 155.83290100097656 111.59075164794922 156.08367919921875 C 111.59075164794922 156.08367919921875 111.59075164794922 156.08367919921875 111.59075164794922 156.08367919921875" stroke-width="0.0" fill="rgb(34, 32, 77)" opacity="1.0"/>
    <path d="M 147.43783569335938 111.32096099853516 C 150.8160400390625 111.32096099853516 154.19509887695312 111.32096099853516 157.57333374023438 111.32096099853516 C 162.76480102539062 111.81668853759766 165.06881713867188 115.81808471679688 165.37667846679688 120.68762969970703 C 165.37667846679688 126.48075866699219 165.37667846679688 132.27389526367188 165.37667846679688 138.06703186035156 C 165.06881713867188 142.9365692138672 162.76397705078125 146.9396209716797 157.57333374023438 147.43368530273438 C 154.19509887695312 147.43368530273438 150.8160400390625 147.43368530273438 147.43783569335938 147.43368530273438 C 142.24635314941406 146.9387969970703 139.94235229492188 142.93739318847656 139.63449096679688 138.06703186035156 C 139.63449096679688 132.27389526367188 139.63449096679688 126.48075866699219 139.63449096679688 120.68762969970703 C 139.94235229492188 115.81891632080078 142.2471923828125 111.81585693359375 147.43783569335938 111.32096099853516 C 147.43783569335938 111.32096099853516 147.43783569335938 111.32096099853516 147.43783569335938 111.32096099853516" stroke-width="0.0" fill="rgb(34, 32, 77)" opacity="1.0"/>
    <path d="M 151.78350830078125 64.92790222167969 C 151.78350830078125 64.92790222167969 151.78350830078125 64.92790222167969 151.78350830078125 64.92790222167969 C 153.3087615966797 65.02224731445312 154.70407104492188 65.17452239990234 156.13084411621094 65.77452850341797 C 161.41830444335938 67.9974365234375 163.57501220703125 73.32380676269531 163.82080078125 78.68824768066406 C 163.82080078125 81.5848159790039 163.82080078125 84.48055267333984 163.82080078125 87.37712097167969 C 163.69171142578125 90.18182373046875 163.27459716796875 92.83590698242188 161.78741455078125 95.27812194824219 C 157.8878173828125 101.67870330810547 149.14678955078125 103.17085266113281 143.730224609375 97.75262451171875 C 140.87503051757812 94.8957748413086 139.9224853515625 91.299072265625 139.74288940429688 87.37712097167969 C 139.74288940429688 84.48055267333984 139.74288940429688 81.5848159790039 139.74288940429688 78.68824768066406 C 139.9886932373047 73.3229751586914 142.1470489501953 67.9974365234375 147.43617248535156 65.77452850341797 C 148.86212158203125 65.17452239990234 150.2582550048828 65.02224731445312 151.78350830078125 64.92790222167969 C 151.78350830078125 64.92790222167969 151.78350830078125 64.92790222167969 151.78350830078125 64.92790222167969" stroke-width="0.0" fill="rgb(35, 33, 77)" opacity="1.0"/>
    <path d="M 151.4400634765625 155.29331970214844 C 151.4400634765625 155.29331970214844 151.4400634765625 155.29331970214844 151.4400634765625 155.29331970214844 C 152.19647216796875 155.39511108398438 152.93138122558594 155.69635009765625 153.5893096923828 156.08367919921875 C 158.41748046875 159.94520568847656 163.2464599609375 163.80674743652344 168.07461547851562 167.66744995117188 C 168.60345458984375 168.3162841796875 168.9857940673828 169.1124267578125 169.16207885742188 169.93008422851562 C 169.16207885742188 177.65481567382812 169.16207885742188 185.37872314453125 169.16207885742188 193.1034393310547 C 168.7325439453125 195.2543487548828 168.417236328125 195.5696563720703 166.26551818847656 196.0 C 161.43734741210938 196.0 156.60836791992188 196.0 151.7801971435547 196.0 C 149.62928771972656 195.5696563720703 149.31398010253906 195.2543487548828 148.88363647460938 193.1034393310547 C 148.88363647460938 181.51800537109375 148.88363647460938 169.93173217773438 148.88363647460938 158.34629821777344 C 149.1542510986328 156.70767211914062 149.8701171875 155.87594604492188 151.4400634765625 155.29331970214844 C 151.4400634765625 155.29331970214844 151.4400634765625 155.29331970214844 151.4400634765625 155.29331970214844" stroke-width="0.0" fill="rgb(34, 32, 77)" opacity="1.0"/>
    <path d="M 63.436580657958984 114.89366912841797 C 63.436580657958984 114.89366912841797 63.436580657958984 114.89366912841797 63.436580657958984 114.89366912841797 C 65.87135314941406 114.89366912841797 68.30612182617188 114.89366912841797 70.74006652832031 114.89366912841797 C 73.76657104492188 114.89366912841797 76.85926818847656 114.79187774658203 78.59224700927734 117.79519653320312 C 79.83528900146484 119.94692993164062 79.36686706542969 122.8509521484375 79.36686706542969 125.22613525390625 C 79.36686706542969 126.89041137695312 79.36686706542969 128.5538787841797 79.36686706542969 130.2173309326172 C 79.36686706542969 135.3070068359375 80.76301574707031 143.36691284179688 73.57290649414062 143.86097717285156 C 71.65538024902344 143.99258422851562 69.67826843261719 143.86097717285156 67.75578308105469 143.86097717285156 C 64.36431121826172 143.86097717285156 60.412567138671875 144.413818359375 58.4172477722168 140.95944213867188 C 57.17503356933594 138.806884765625 57.64344787597656 135.90371704101562 57.64344787597656 133.52853393554688 C 57.64344787597656 130.7610626220703 57.64344787597656 127.99359893798828 57.64344787597656 125.22613525390625 C 57.64344787597656 121.788330078125 57.031036376953125 117.69589233398438 60.54332733154297 115.66912078857422 C 61.720985412597656 114.98966979980469 62.12071228027344 115.06829071044922 63.436580657958984 114.89366912841797 C 63.436580657958984 114.89366912841797 63.436580657958984 114.89366912841797 63.436580657958984 114.89366912841797" stroke-width="0.0" fill="rgb(33, 32, 77)" opacity="1.0"/>
    <path d="M 67.7830810546875 68.54861450195312 C 67.7830810546875 68.54861450195312 67.7830810546875 68.54861450195312 67.7830810546875 68.54861450195312 C 69.23136901855469 68.66529846191406 69.6046142578125 68.60736846923828 70.98751831054688 69.06585693359375 C 74.51553344726562 70.23523712158203 77.19444274902344 73.37263488769531 77.78616333007812 77.0438232421875 C 78.17514038085938 79.45542907714844 77.91941833496094 82.06316375732422 77.91941833496094 84.4987564086914 C 77.91941833496094 86.54290771484375 78.05596923828125 88.60857391357422 77.40216827392578 90.58155059814453 C 76.04574584960938 94.67977142333984 72.09400177001953 97.51675415039062 67.7830810546875 97.51675415039062 C 63.47134017944336 97.51675415039062 59.517940521240234 94.67894744873047 58.16069412231445 90.58155059814453 C 57.50606918334961 88.60857391357422 57.64344787597656 86.54290771484375 57.64344787597656 84.4987564086914 C 57.64344787597656 82.06316375732422 57.38689041137695 79.45542907714844 57.77585983276367 77.0438232421875 C 58.3684196472168 73.37263488769531 61.04981231689453 70.23523712158203 64.57783508300781 69.06585693359375 C 65.96156311035156 68.60736846923828 66.33480072021484 68.66612243652344 67.7830810546875 68.54861450195312 C 67.7830810546875 68.54861450195312 67.7830810546875 68.54861450195312 67.7830810546875 68.54861450195312" stroke-width="0.0" fill="rgb(34, 32, 77)" opacity="1.0"/>
    <path d="M 67.7830810546875 158.34629821777344 C 72.61042022705078 162.2078399658203 77.43775939941406 166.06854248046875 82.26509094238281 169.93008422851562 C 82.26509094238281 177.65481567382812 82.26509094238281 185.37872314453125 82.26509094238281 193.1034393310547 C 77.43775939941406 193.1034393310547 72.61042022705078 193.1034393310547 67.7830810546875 193.1034393310547 C 67.7830810546875 181.51800537109375 67.7830810546875 169.93173217773438 67.7830810546875 158.34629821777344" stroke-width="0.0" fill="rgb(34, 32, 77)" opacity="1.0"/>
    <path d="M 105.43596649169922 114.89366912841797 C 105.43596649169922 114.89366912841797 105.43596649169922 114.89366912841797 105.43596649169922 114.89366912841797 C 107.87156677246094 114.89366912841797 110.30633544921875 114.89366912841797 112.74193572998047 114.89366912841797 C 115.7684326171875 114.89366912841797 118.86113739013672 114.79187774658203 120.59494018554688 117.79519653320312 C 121.83715057373047 119.94776153564453 121.36873626708984 122.8501205444336 121.36873626708984 125.22613525390625 C 121.36873626708984 126.89041137695312 121.36873626708984 128.5538787841797 121.36873626708984 130.2173309326172 C 121.36873626708984 135.3070068359375 122.76488494873047 143.36691284179688 115.57559967041016 143.86097717285156 C 113.6572494506836 143.99258422851562 111.67930603027344 143.86097717285156 109.75598907470703 143.86097717285156 C 106.3645248413086 143.86097717285156 102.41112518310547 144.413818359375 100.4166259765625 140.95944213867188 C 99.173583984375 138.80772399902344 99.64200592041016 135.90371704101562 99.64200592041016 133.52853393554688 C 99.64200592041016 130.7610626220703 99.64200592041016 127.99359893798828 99.64200592041016 125.22613525390625 C 99.64200592041016 121.78666687011719 99.02958679199219 117.69589233398438 102.54353332519531 115.66912078857422 C 103.7220230102539 114.98966979980469 104.1192626953125 115.06829071044922 105.43596649169922 114.89366912841797 C 105.43596649169922 114.89366912841797 105.43596649169922 114.89366912841797 105.43596649169922 114.89366912841797" stroke-width="0.0" fill="rgb(34, 32, 76)" opacity="1.0"/>
    <path d="M 109.7816390991211 68.54861450195312 C 109.7816390991211 68.54861450195312 109.7816390991211 68.54861450195312 109.7816390991211 68.54861450195312 C 111.22992706298828 68.66612243652344 111.60316467285156 68.60736846923828 112.98606872558594 69.06585693359375 C 116.5149154663086 70.23523712158203 119.19548034667969 73.37263488769531 119.78804016113281 77.0438232421875 C 120.177001953125 79.45542907714844 119.92044830322266 82.06316375732422 119.92044830322266 84.4987564086914 C 119.92044830322266 86.54290771484375 120.05783081054688 88.60857391357422 119.40403747558594 90.58155059814453 C 118.04595947265625 94.67894744873047 114.0933837890625 97.51675415039062 109.7816390991211 97.51675415039062 C 105.4707260131836 97.51675415039062 101.51898193359375 94.67977142333984 100.16255950927734 90.58155059814453 C 99.50875854492188 88.60857391357422 99.64531707763672 86.54290771484375 99.64531707763672 84.4987564086914 C 99.64531707763672 82.06316375732422 99.38958740234375 79.45542907714844 99.77855682373047 77.0438232421875 C 100.37028503417969 73.37263488769531 103.0491943359375 70.23523712158203 106.57720947265625 69.06585693359375 C 107.96012115478516 68.60736846923828 108.33335876464844 68.66529846191406 109.7816390991211 68.54861450195312 C 109.7816390991211 68.54861450195312 109.7816390991211 68.54861450195312 109.7816390991211 68.54861450195312" stroke-width="0.0" fill="rgb(34, 31, 77)" opacity="1.0"/>
    <path d="M 109.7816390991211 158.34629821777344 C 114.60897827148438 162.2078399658203 119.43630981445312 166.06854248046875 124.26447296142578 169.93008422851562 C 124.26447296142578 177.65481567382812 124.26447296142578 185.37872314453125 124.26447296142578 193.1034393310547 C 119.43630981445312 193.1034393310547 114.60897827148438 193.1034393310547 109.7816390991211 193.1034393310547 C 109.7816390991211 181.51800537109375 109.7816390991211 169.93173217773438 109.7816390991211 158.34629821777344" stroke-width="0.0" fill="rgb(33, 31, 77)" opacity="1.0"/>
    <path d="M 147.43783569335938 114.89366912841797 C 147.43783569335938 114.89366912841797 147.43783569335938 114.89366912841797 147.43783569335938 114.89366912841797 C 149.87176513671875 114.89366912841797 152.30654907226562 114.89366912841797 154.74131774902344 114.89366912841797 C 157.76698303222656 114.89366912841797 160.85968017578125 114.79187774658203 162.59349060058594 117.79519653320312 C 163.83570861816406 119.94692993164062 163.36727905273438 122.8509521484375 163.36727905273438 125.22613525390625 C 163.36727905273438 126.89041137695312 163.36727905273438 128.5538787841797 163.36727905273438 130.2173309326172 C 163.36727905273438 135.3070068359375 164.76344299316406 143.36691284179688 157.57333374023438 143.86097717285156 C 155.65663146972656 143.99258422851562 153.67869567871094 143.86097717285156 151.75619506835938 143.86097717285156 C 148.36473083496094 143.86097717285156 144.41297912597656 144.413818359375 142.4185028076172 140.95944213867188 C 141.1754608154297 138.806884765625 141.6438751220703 135.90371704101562 141.6438751220703 133.52853393554688 C 141.6438751220703 130.7610626220703 141.6438751220703 127.99359893798828 141.6438751220703 125.22613525390625 C 141.6438751220703 121.788330078125 141.0314483642578 117.69589233398438 144.5437469482422 115.66912078857422 C 145.72140502929688 114.98966979980469 146.1211395263672 115.06829071044922 147.43783569335938 114.89366912841797 C 147.43783569335938 114.89366912841797 147.43783569335938 114.89366912841797 147.43783569335938 114.89366912841797" stroke-width="0.0" fill="rgb(33, 32, 77)" opacity="1.0"/>
    <path d="M 151.78350830078125 68.54861450195312 C 151.78350830078125 68.54861450195312 151.78350830078125 68.54861450195312 151.78350830078125 68.54861450195312 C 153.23178100585938 68.66529846191406 153.60504150390625 68.60736846923828 154.98793029785156 69.06585693359375 C 158.5159454345703 70.23523712158203 161.19485473632812 73.37263488769531 161.78741455078125 77.0438232421875 C 162.17556762695312 79.45542907714844 161.91983032226562 82.06316375732422 161.91983032226562 84.4987564086914 C 161.91983032226562 86.54290771484375 162.05638122558594 88.60857391357422 161.40342712402344 90.58155059814453 C 160.04615783691406 94.67894744873047 156.09442138671875 97.51675415039062 151.78350830078125 97.51675415039062 C 147.47177124023438 97.51675415039062 143.5183563232422 94.67977142333984 142.16111755371094 90.58155059814453 C 141.50732421875 88.60857391357422 141.6438751220703 86.54290771484375 141.6438751220703 84.4987564086914 C 141.6438751220703 82.06316375732422 141.38731384277344 79.45542907714844 141.7762908935547 77.0438232421875 C 142.3688507080078 73.37263488769531 145.05023193359375 70.23523712158203 148.5782470703125 69.06585693359375 C 149.96197509765625 68.60736846923828 150.33522033691406 68.66529846191406 151.78350830078125 68.54861450195312 C 151.78350830078125 68.54861450195312 151.78350830078125 68.54861450195312 151.78350830078125 68.54861450195312" stroke-width="0.0" fill="rgb(34, 32, 77)" opacity="1.0"/>
    <path d="M 151.7801971435547 158.34629821777344 C 156.60836791992188 162.2078399658203 161.43734741210938 166.06854248046875 166.26551818847656 169.93008422851562 C 166.26551818847656 177.65481567382812 166.26551818847656 185.37872314453125 166.26551818847656 193.1034393310547 C 161.43734741210938 193.1034393310547 156.60836791992188 193.1034393310547 151.7801971435547 193.1034393310547 C 151.7801971435547 181.51800537109375 151.7801971435547 169.93173217773438 151.7801971435547 158.34629821777344" stroke-width="0.0" fill="rgb(34, 32, 77)" opacity="1.0"/>
    <path d="M 63.436580657958984 118.4655532836914 C 63.436580657958984 118.4655532836914 63.436580657958984 118.4655532836914 63.436580657958984 118.4655532836914 C 61.62664031982422 118.67741394042969 60.68649673461914 119.17314147949219 59.65366744995117 120.68762969970703 C 59.65366744995117 126.48075866699219 59.65366744995117 132.27389526367188 59.65366744995117 138.06703186035156 C 60.6898078918457 139.5831756591797 61.623329162597656 140.07723999023438 63.436580657958984 140.2882843017578 C 66.81562805175781 140.2882843017578 70.19468688964844 140.2882843017578 73.57290649414062 140.2882843017578 C 75.38533020019531 140.076416015625 76.32133483886719 139.58233642578125 77.35748291015625 138.06703186035156 C 77.35748291015625 132.27389526367188 77.35748291015625 126.48075866699219 77.35748291015625 120.68762969970703 C 76.32133483886719 119.17230987548828 75.38616180419922 118.67741394042969 73.57290649414062 118.4655532836914 C 70.19468688964844 118.4655532836914 66.81562805175781 118.4655532836914 63.436580657958984 118.4655532836914" stroke-width="0.0" fill="rgb(215, 97, 8)" opacity="1.0"/>
    <path d="M 59.54442596435547 78.68824768066406 C 59.54442596435547 81.5848159790039 59.54442596435547 84.48055267333984 59.54442596435547 87.37712097167969 C 60.93974304199219 95.95591735839844 74.62394714355469 95.95757293701172 76.01844024658203 87.37712097167969 C 76.01844024658203 84.48055267333984 76.01844024658203 81.5848159790039 76.01844024658203 78.68824768066406 C 74.62394714355469 70.1077880859375 60.93974304199219 70.10944366455078 59.54442596435547 78.68824768066406 C 59.54442596435547 78.68824768066406 59.54442596435547 78.68824768066406 59.54442596435547 78.68824768066406" stroke-width="0.0" fill="rgb(215, 97, 9)" opacity="1.0"/>
    <path d="M 63.436580657958984 41.95399475097656 C 66.33314514160156 41.95399475097656 69.2288818359375 41.95399475097656 72.12545776367188 41.95399475097656 C 73.4686279296875 42.04502868652344 74.03387451171875 41.99372100830078 75.30256652832031 42.40917205810547 C 79.21459197998047 43.691104888916016 79.98011016845703 47.54353713989258 80.16632080078125 51.172523498535156 C 80.16632080078125 55.0340576171875 80.16632080078125 58.89642333984375 80.16632080078125 62.7587890625 C 79.84107971191406 67.6788101196289 77.28217315673828 71.48655700683594 72.12545776367188 71.97648620605469 C 69.2288818359375 71.97648620605469 66.33314514160156 71.97648620605469 63.436580657958984 71.97648620605469 C 62.09423065185547 71.88627624511719 61.528987884521484 71.936767578125 60.26028823852539 71.52131652832031 C 56.34827423095703 70.24020385742188 55.5827522277832 66.38694763183594 55.39653778076172 62.7587890625 C 55.39653778076172 58.89642333984375 55.39653778076172 55.0340576171875 55.39653778076172 51.172523498535156 C 55.72261428833008 46.253326416015625 58.28152084350586 42.44475555419922 63.436580657958984 41.95399475097656 C 63.436580657958984 41.95399475097656 63.436580657958984 41.95399475097656 63.436580657958984 41.95399475097656" stroke-width="0.0" fill="rgb(34, 32, 77)" opacity="1.0"/>
    <path d="M 105.43596649169922 118.4655532836914 C 105.43596649169922 118.4655532836914 105.43596649169922 118.4655532836914 105.43596649169922 118.4655532836914 C 103.627685546875 118.67823791503906 102.68339538574219 119.17396545410156 101.65139770507812 120.68762969970703 C 101.65139770507812 126.48075866699219 101.65139770507812 132.27389526367188 101.65139770507812 138.06703186035156 C 102.68753814697266 139.58233642578125 103.62354278564453 140.07723999023438 105.43596649169922 140.2882843017578 C 108.81584167480469 140.2882843017578 112.19572448730469 140.2882843017578 115.57559967041016 140.2882843017578 C 117.38802337646484 140.076416015625 118.32402801513672 139.58233642578125 119.35934448242188 138.06703186035156 C 119.35934448242188 132.27389526367188 119.35934448242188 126.48075866699219 119.35934448242188 120.68762969970703 C 118.32320404052734 119.17230987548828 117.38802337646484 118.67741394042969 115.57559967041016 118.4655532836914 C 112.19572448730469 118.4655532836914 108.81584167480469 118.4655532836914 105.43596649169922 118.4655532836914" stroke-width="0.0" fill="rgb(215, 97, 9)" opacity="1.0"/>
    <path d="M 109.7816390991211 72.16931915283203 C 109.7816390991211 72.16931915283203 109.7816390991211 72.16931915283203 109.7816390991211 72.16931915283203 C 105.8092041015625 72.45069885253906 102.2298812866211 74.48408508300781 101.54629516601562 78.68824768066406 C 101.54629516601562 81.5848159790039 101.54629516601562 84.48055267333984 101.54629516601562 87.37712097167969 C 102.94078063964844 95.95674133300781 116.62498474121094 95.95591735839844 118.01947784423828 87.37712097167969 C 118.01947784423828 84.48055267333984 118.01947784423828 81.5848159790039 118.01947784423828 78.68824768066406 C 117.33588409423828 74.48326110839844 113.7549057006836 72.45069885253906 109.7816390991211 72.16931915283203 C 109.7816390991211 72.16931915283203 109.7816390991211 72.16931915283203 109.7816390991211 72.16931915283203" stroke-width="0.0" fill="rgb(215, 97, 9)" opacity="1.0"/>
    <path d="M 147.43783569335938 118.4655532836914 C 147.43783569335938 118.4655532836914 147.43783569335938 118.4655532836914 147.43783569335938 118.4655532836914 C 145.62705993652344 118.67741394042969 144.68692016601562 119.17230987548828 143.65408325195312 120.68762969970703 C 143.65408325195312 126.48075866699219 143.65408325195312 132.27389526367188 143.65408325195312 138.06703186035156 C 144.6902313232422 139.5831756591797 145.62374877929688 140.07723999023438 147.43783569335938 140.2882843017578 C 150.8160400390625 140.2882843017578 154.19509887695312 140.2882843017578 157.57333374023438 140.2882843017578 C 159.38656616210938 140.076416015625 160.3225860595703 139.58233642578125 161.35789489746094 138.06703186035156 C 161.35789489746094 132.27389526367188 161.35789489746094 126.48075866699219 161.35789489746094 120.68762969970703 C 160.32176208496094 119.17230987548828 159.38656616210938 118.67741394042969 157.57333374023438 118.4655532836914 C 154.19509887695312 118.4655532836914 150.8160400390625 118.4655532836914 147.43783569335938 118.4655532836914" stroke-width="0.0" fill="rgb(215, 97, 9)" opacity="1.0"/>
    <path d="M 151.78350830078125 72.16931915283203 C 151.78350830078125 72.16931915283203 151.78350830078125 72.16931915283203 151.78350830078125 72.16931915283203 C 147.81024169921875 72.45069885253906 144.2284393310547 74.48326110839844 143.5448455810547 78.68824768066406 C 143.5448455810547 81.5848159790039 143.5448455810547 84.48055267333984 143.5448455810547 87.37712097167969 C 144.94015502929688 95.95591735839844 158.6251983642578 95.95757293701172 160.01885986328125 87.37712097167969 C 160.01885986328125 84.48055267333984 160.01885986328125 81.5848159790039 160.01885986328125 78.68824768066406 C 159.3361053466797 74.48408508300781 155.7567596435547 72.45069885253906 151.78350830078125 72.16931915283203 C 151.78350830078125 72.16931915283203 151.78350830078125 72.16931915283203 151.78350830078125 72.16931915283203" stroke-width="0.0" fill="rgb(215, 97, 9)" opacity="1.0"/>
    <path d="M 147.43783569335938 41.95399475097656 C 150.3335723876953 41.95399475097656 153.23013305664062 41.95399475097656 156.12586975097656 41.95399475097656 C 157.46905517578125 42.04502868652344 158.03428649902344 41.99372100830078 159.3021697998047 42.40917205810547 C 163.2150115966797 43.691104888916016 163.98052978515625 47.54353713989258 164.16673278808594 51.172523498535156 C 164.16673278808594 55.0340576171875 164.16673278808594 58.89642333984375 164.16673278808594 62.7587890625 C 163.8415069580078 67.6788101196289 161.2825927734375 71.48655700683594 156.12586975097656 71.97648620605469 C 153.23013305664062 71.97648620605469 150.3335723876953 71.97648620605469 147.43783569335938 71.97648620605469 C 146.0946502685547 71.88627624511719 145.5294189453125 71.936767578125 144.26071166992188 71.52131652832031 C 140.34786987304688 70.24020385742188 139.58233642578125 66.38777160644531 139.39613342285156 62.7587890625 C 139.39613342285156 58.89642333984375 139.39613342285156 55.0340576171875 139.39613342285156 51.171695709228516 C 139.58233642578125 47.54271697998047 140.34786987304688 43.691104888916016 144.26071166992188 42.40917205810547 C 145.5294189453125 41.99372100830078 146.0946502685547 42.04502868652344 147.43783569335938 41.95399475097656 C 147.43783569335938 41.95399475097656 147.43783569335938 41.95399475097656 147.43783569335938 41.95399475097656" stroke-width="0.0" fill="rgb(34, 32, 77)" opacity="1.0"/>
    <path d="M 63.436580657958984 94.52336120605469 C 66.81562805175781 94.52336120605469 70.19468688964844 94.52336120605469 73.57290649414062 94.52336120605469 C 78.60797119140625 94.89329528808594 81.81322479248047 98.3170394897461 82.17322540283203 103.30989074707031 C 82.17322540283203 105.24148559570312 82.17322540283203 107.17224884033203 82.17322540283203 109.10384368896484 C 81.8124008178711 114.0975341796875 78.60879516601562 117.51961517333984 73.57290649414062 117.88954162597656 C 70.19468688964844 117.88954162597656 66.81562805175781 117.88954162597656 63.436580657958984 117.88954162597656 C 58.40152359008789 117.51961517333984 55.19709014892578 114.09669494628906 54.83791732788086 109.10384368896484 C 54.83791732788086 107.17224884033203 54.83791732788086 105.24148559570312 54.83791732788086 103.30989074707031 C 55.19709014892578 98.31786346435547 58.40235137939453 94.89329528808594 63.436580657958984 94.52336120605469 C 63.436580657958984 94.52336120605469 63.436580657958984 94.52336120605469 63.436580657958984 94.52336120605469" stroke-width="0.0" fill="rgb(34, 32, 77)" opacity="1.0"/>
    <path d="M 67.7830810546875 123.58750915527344 C 67.7830810546875 123.58750915527344 67.7830810546875 123.58750915527344 67.7830810546875 123.58750915527344 C 69.93399047851562 124.01785278320312 70.24930572509766 124.33233642578125 70.67965698242188 126.48324584960938 C 70.67965698242188 127.4482192993164 70.67965698242188 128.41317749023438 70.67965698242188 129.37814331054688 C 70.57206726074219 129.91525268554688 70.60269165039062 130.49871826171875 70.35771942138672 130.98782348632812 C 69.46640014648438 132.77127075195312 66.09976196289062 132.77127075195312 65.20762634277344 130.98782348632812 C 64.96348571777344 130.49871826171875 64.99327850341797 129.91525268554688 64.88569641113281 129.37814331054688 C 64.88569641113281 128.41317749023438 64.88569641113281 127.4482192993164 64.88569641113281 126.48324584960938 C 65.3160400390625 124.33233642578125 65.6321792602539 124.01785278320312 67.7830810546875 123.58750915527344 C 67.7830810546875 123.58750915527344 67.7830810546875 123.58750915527344 67.7830810546875 123.58750915527344" stroke-width="0.0" fill="rgb(174, 75, 0)" opacity="1.0"/>
    <path d="M 67.7830810546875 80.13735961914062 C 67.7830810546875 80.13735961914062 67.7830810546875 80.13735961914062 67.7830810546875 80.13735961914062 C 69.93399047851562 80.56770324707031 70.24930572509766 80.88301849365234 70.67965698242188 83.03475189208984 C 70.67965698242188 83.99972534179688 70.67965698242188 84.96469116210938 70.67965698242188 85.9296646118164 C 70.57206726074219 86.4659423828125 70.60269165039062 87.04939270019531 70.35771942138672 87.53849792480469 C 69.46640014648438 89.32195281982422 66.09976196289062 89.32195281982422 65.20762634277344 87.53849792480469 C 64.96348571777344 87.04939270019531 64.99327850341797 86.4659423828125 64.88569641113281 85.9296646118164 C 64.88569641113281 84.96469116210938 64.88569641113281 83.99972534179688 64.88569641113281 83.03475189208984 C 65.3160400390625 80.88301849365234 65.63134765625 80.56770324707031 67.7830810546875 80.13735961914062 C 67.7830810546875 80.13735961914062 67.7830810546875 80.13735961914062 67.7830810546875 80.13735961914062" stroke-width="0.0" fill="rgb(174, 75, 0)" opacity="1.0"/>
    <path d="M 63.436580657958984 45.378562927246094 C 63.436580657958984 45.378562927246094 63.436580657958984 45.378562927246094 63.436580657958984 45.378562927246094 C 67.62335968017578 45.378562927246094 74.6065673828125 43.91869354248047 77.12823486328125 48.24864959716797 C 78.44161987304688 50.50217819213867 77.91941833496094 53.61308670043945 77.91941833496094 56.10413360595703 C 77.91941833496094 60.34222412109375 79.08548736572266 66.88018798828125 73.66642761230469 68.34501647949219 C 73.16656494140625 68.48074340820312 72.6427001953125 68.5155029296875 72.12545776367188 68.55191802978516 C 70.69703674316406 68.65288543701172 69.21316528320312 68.55191802978516 67.78143310546875 68.55191802978516 C 64.40237426757812 68.55191802978516 60.434085845947266 69.11302185058594 58.434627532958984 65.68266296386719 C 57.12123489379883 63.42913818359375 57.64344787597656 60.31822204589844 57.64344787597656 57.82717514038086 C 57.64344787597656 53.98798370361328 56.5402717590332 48.48533630371094 60.51353073120117 46.16973876953125 C 61.70691680908203 45.47373580932617 62.090919494628906 45.55980682373047 63.436580657958984 45.378562927246094 C 63.436580657958984 45.378562927246094 63.436580657958984 45.378562927246094 63.436580657958984 45.378562927246094" stroke-width="0.0" fill="rgb(34, 32, 76)" opacity="1.0"/>
    <path d="M 70.67965698242188 164.3719940185547 C 70.67965698242188 172.98388671875 70.67965698242188 181.59579467773438 70.67965698242188 190.20770263671875 C 73.57621765136719 190.20770263671875 76.47195434570312 190.20770263671875 79.36852264404297 190.20770263671875 C 79.36852264404297 183.91221618652344 79.36852264404297 177.6175537109375 79.36852264404297 171.32208251953125 C 76.47195434570312 169.00567626953125 73.57621765136719 166.68923950195312 70.67965698242188 164.3719940185547" stroke-width="0.0" fill="rgb(215, 97, 9)" opacity="1.0"/>
    <path d="M 105.43596649169922 94.52336120605469 C 108.81584167480469 94.52336120605469 112.19572448730469 94.52336120605469 115.57559967041016 94.52336120605469 C 120.60983276367188 94.89329528808594 123.81509399414062 98.31786346435547 124.17509460449219 103.30989074707031 C 124.17509460449219 105.24148559570312 124.17509460449219 107.17224884033203 124.17509460449219 109.10384368896484 C 123.81509399414062 114.0975341796875 120.61148834228516 117.51961517333984 115.57559967041016 117.88954162597656 C 112.19572448730469 117.88954162597656 108.81584167480469 117.88954162597656 105.43596649169922 117.88954162597656 C 100.40007781982422 117.51961517333984 97.19647216796875 114.0975341796875 96.83647155761719 109.10384368896484 C 96.83647155761719 107.17224884033203 96.83647155761719 105.24148559570312 96.83647155761719 103.30989074707031 C 97.19647216796875 98.31786346435547 100.4017333984375 94.89329528808594 105.43596649169922 94.52336120605469 C 105.43596649169922 94.52336120605469 105.43596649169922 94.52336120605469 105.43596649169922 94.52336120605469" stroke-width="0.0" fill="rgb(34, 32, 77)" opacity="1.0"/>
    <path d="M 109.7816390991211 123.58750915527344 C 109.7816390991211 123.58750915527344 109.7816390991211 123.58750915527344 109.7816390991211 123.58750915527344 C 111.93254852294922 124.01785278320312 112.24786376953125 124.33316040039062 112.67820739746094 126.48324584960938 C 112.67820739746094 127.4482192993164 112.67820739746094 128.41317749023438 112.67820739746094 129.37814331054688 C 112.57062530517578 129.91525268554688 112.60041046142578 130.49871826171875 112.35627746582031 130.98782348632812 C 111.46495819091797 132.77127075195312 108.09832763671875 132.77127075195312 107.2070083618164 130.98782348632812 C 106.96204376220703 130.49871826171875 106.99266052246094 129.91525268554688 106.88507843017578 129.37814331054688 C 106.88507843017578 128.41317749023438 106.88507843017578 127.4482192993164 106.88507843017578 126.48324584960938 C 107.31542205810547 124.33233642578125 107.6307373046875 124.01785278320312 109.7816390991211 123.58750915527344 C 109.7816390991211 123.58750915527344 109.7816390991211 123.58750915527344 109.7816390991211 123.58750915527344" stroke-width="0.0" fill="rgb(174, 75, 0)" opacity="1.0"/>
    <path d="M 105.43927001953125 41.95399475097656 C 108.3358383178711 41.95399475097656 111.23157501220703 41.95399475097656 114.12814331054688 41.95399475097656 C 119.28321075439453 42.44475555419922 121.84211730957031 46.253326416015625 122.1681900024414 51.172523498535156 C 122.1681900024414 55.0340576171875 122.1681900024414 58.89642333984375 122.1681900024414 62.7587890625 C 121.84211730957031 67.67715454101562 119.28321075439453 71.48655700683594 114.12814331054688 71.97648620605469 C 111.23157501220703 71.97648620605469 108.3358383178711 71.97648620605469 105.43927001953125 71.97648620605469 C 104.0960922241211 71.88627624511719 103.53085327148438 71.936767578125 102.26215362548828 71.52131652832031 C 98.35013580322266 70.24020385742188 97.5846176147461 66.38777160644531 97.39840698242188 62.7587890625 C 97.39840698242188 58.89642333984375 97.39840698242188 55.0340576171875 97.39840698242188 51.172523498535156 C 97.72364807128906 46.252498626708984 100.28256225585938 42.44392776489258 105.43927001953125 41.95399475097656 C 105.43927001953125 41.95399475097656 105.43927001953125 41.95399475097656 105.43927001953125 41.95399475097656" stroke-width="0.0" fill="rgb(34, 32, 77)" opacity="1.0"/>
    <path d="M 109.7816390991211 80.13735961914062 C 109.7816390991211 80.13735961914062 109.7816390991211 80.13735961914062 109.7816390991211 80.13735961914062 C 111.93254852294922 80.56770324707031 112.24786376953125 80.88384246826172 112.67820739746094 83.03475189208984 C 112.67820739746094 83.99972534179688 112.67820739746094 84.96469116210938 112.67820739746094 85.9296646118164 C 112.57062530517578 86.4659423828125 112.60041046142578 87.04939270019531 112.35627746582031 87.53849792480469 C 111.46495819091797 89.32195281982422 108.09832763671875 89.32195281982422 107.2070083618164 87.53849792480469 C 106.96204376220703 87.04939270019531 106.99266052246094 86.4659423828125 106.88507843017578 85.9296646118164 C 106.88507843017578 84.96469116210938 106.88507843017578 83.99972534179688 106.88507843017578 83.03475189208984 C 107.31542205810547 80.88301849365234 107.6307373046875 80.56770324707031 109.7816390991211 80.13735961914062 C 109.7816390991211 80.13735961914062 109.7816390991211 80.13735961914062 109.7816390991211 80.13735961914062" stroke-width="0.0" fill="rgb(174, 75, 0)" opacity="1.0"/>
    <path d="M 112.67820739746094 164.3719940185547 C 112.67820739746094 172.98388671875 112.67820739746094 181.59579467773438 112.67820739746094 190.20770263671875 C 115.57394409179688 190.20770263671875 118.47051239013672 190.20770263671875 121.36708068847656 190.20770263671875 C 121.36708068847656 183.91221618652344 121.36708068847656 177.6175537109375 121.36708068847656 171.32208251953125 C 118.47051239013672 169.00567626953125 115.57394409179688 166.68923950195312 112.67820739746094 164.3719940185547" stroke-width="0.0" fill="rgb(215, 97, 9)" opacity="1.0"/>
    <path d="M 147.43783569335938 94.52336120605469 C 150.8160400390625 94.52336120605469 154.19509887695312 94.52336120605469 157.57333374023438 94.52336120605469 C 162.6083984375 94.89329528808594 165.81280517578125 98.31786346435547 166.17282104492188 103.30989074707031 C 166.17282104492188 105.24148559570312 166.17282104492188 107.17224884033203 166.17282104492188 109.10384368896484 C 165.81280517578125 114.0975341796875 162.6092071533203 117.51961517333984 157.57333374023438 117.88954162597656 C 154.19509887695312 117.88954162597656 150.8160400390625 117.88954162597656 147.43783569335938 117.88954162597656 C 142.40194702148438 117.51961517333984 139.19833374023438 114.0975341796875 138.8383331298828 109.10384368896484 C 138.8383331298828 107.17224884033203 138.8383331298828 105.24148559570312 138.8383331298828 103.30989074707031 C 139.19833374023438 98.31786346435547 142.40277099609375 94.89329528808594 147.43783569335938 94.52336120605469 C 147.43783569335938 94.52336120605469 147.43783569335938 94.52336120605469 147.43783569335938 94.52336120605469" stroke-width="0.0" fill="rgb(34, 32, 77)" opacity="1.0"/>
    <path d="M 151.7801971435547 123.58750915527344 C 151.7801971435547 123.58750915527344 151.7801971435547 123.58750915527344 151.7801971435547 123.58750915527344 C 153.9311065673828 124.01785278320312 154.2464141845703 124.33233642578125 154.6767578125 126.48324584960938 C 154.6767578125 127.4482192993164 154.6767578125 128.41317749023438 154.6767578125 129.37814331054688 C 154.57000732421875 129.91525268554688 154.59979248046875 130.49871826171875 154.35482788085938 130.98782348632812 C 153.46351623535156 132.77127075195312 150.0968780517578 132.77127075195312 149.20556640625 130.98782348632812 C 148.96060180664062 130.49871826171875 148.99038696289062 129.91525268554688 148.88363647460938 129.37814331054688 C 148.88363647460938 128.41317749023438 148.88363647460938 127.4482192993164 148.88363647460938 126.48324584960938 C 149.31398010253906 124.33233642578125 149.62928771972656 124.01785278320312 151.7801971435547 123.58750915527344 C 151.7801971435547 123.58750915527344 151.7801971435547 123.58750915527344 151.7801971435547 123.58750915527344" stroke-width="0.0" fill="rgb(174, 75, 0)" opacity="1.0"/>
    <path d="M 151.7801971435547 80.13735961914062 C 151.7801971435547 80.13735961914062 151.7801971435547 80.13735961914062 151.7801971435547 80.13735961914062 C 153.9311065673828 80.56770324707031 154.2464141845703 80.88301849365234 154.6767578125 83.03475189208984 C 154.6767578125 83.99972534179688 154.6767578125 84.96469116210938 154.6767578125 85.9296646118164 C 154.57000732421875 86.4659423828125 154.59979248046875 87.04939270019531 154.35482788085938 87.53849792480469 C 153.46351623535156 89.32195281982422 150.0968780517578 89.32195281982422 149.20556640625 87.53849792480469 C 148.96060180664062 87.04939270019531 148.99038696289062 86.4659423828125 148.88363647460938 85.9296646118164 C 148.88363647460938 84.96469116210938 148.88363647460938 83.99972534179688 148.88363647460938 83.03475189208984 C 149.31398010253906 80.88301849365234 149.62928771972656 80.56770324707031 151.7801971435547 80.13735961914062 C 151.7801971435547 80.13735961914062 151.7801971435547 80.13735961914062 151.7801971435547 80.13735961914062" stroke-width="0.0" fill="rgb(174, 75, 0)" opacity="1.0"/>
    <path d="M 147.43783569335938 45.378562927246094 C 147.43783569335938 45.378562927246094 147.43783569335938 45.378562927246094 147.43783569335938 45.378562927246094 C 151.623779296875 45.378562927246094 158.6069793701172 43.91869354248047 161.12948608398438 48.24864959716797 C 162.44204711914062 50.50217819213867 161.91983032226562 53.61308670043945 161.91983032226562 56.10413360595703 C 161.91983032226562 60.34139633178711 163.08590698242188 66.88018798828125 157.66683959960938 68.34501647949219 C 157.1669921875 68.48074340820312 156.6431121826172 68.5155029296875 156.12586975097656 68.55191802978516 C 154.69744873046875 68.65288543701172 153.21441650390625 68.55191802978516 151.7818603515625 68.55191802978516 C 148.40362548828125 68.55191802978516 144.43533325195312 69.11302185058594 142.43504333496094 65.68266296386719 C 141.1216583251953 63.42913818359375 141.6438751220703 60.31822204589844 141.6438751220703 57.82717514038086 C 141.6438751220703 53.98798370361328 140.5406951904297 48.48533630371094 144.51394653320312 46.16973876953125 C 145.70733642578125 45.47373580932617 146.09133911132812 45.55980682373047 147.43783569335938 45.378562927246094 C 147.43783569335938 45.378562927246094 147.43783569335938 45.378562927246094 147.43783569335938 45.378562927246094" stroke-width="0.0" fill="rgb(34, 32, 76)" opacity="1.0"/>
    <path d="M 154.6767578125 164.37115478515625 C 154.6767578125 172.98306274414062 154.6767578125 181.59579467773438 154.6767578125 190.20770263671875 C 157.57415771484375 190.20770263671875 160.4715576171875 190.20770263671875 163.36895751953125 190.20770263671875 C 163.36895751953125 183.91221618652344 163.36895751953125 177.6175537109375 163.36895751953125 171.32208251953125 C 160.4715576171875 169.00567626953125 157.57415771484375 166.68841552734375 154.6767578125 164.37115478515625" stroke-width="0.0" fill="rgb(215, 97, 9)" opacity="1.0"/>
    <path d="M 63.436580657958984 97.51675415039062 C 63.436580657958984 97.51675415039062 63.436580657958984 97.51675415039062 63.436580657958984 97.51675415039062 C 65.87135314941406 97.51675415039062 68.30612182617188 97.51675415039062 70.74006652832031 97.51675415039062 C 73.23110961914062 97.51675415039062 75.74699401855469 97.2916488647461 77.66947937011719 99.21414184570312 C 79.60687255859375 101.15152740478516 79.36686706542969 103.69802856445312 79.36686706542969 106.2081069946289 C 79.36686706542969 107.6464614868164 79.54066467285156 109.23709106445312 79.15997314453125 110.64482116699219 C 78.45072937011719 113.26414489746094 76.16078186035156 114.71408081054688 73.57290649414062 114.89698028564453 C 71.16627502441406 115.06746673583984 68.68267822265625 114.89698028564453 66.26942443847656 114.89698028564453 C 63.779205322265625 114.89698028564453 61.26250457763672 115.12290954589844 59.34083557128906 113.20124816894531 C 57.403446197509766 111.26468658447266 57.64344787597656 108.71736145019531 57.64344787597656 106.2081069946289 C 57.64344787597656 103.1807861328125 57.515174865722656 100.05497741699219 60.51353073120117 98.30792999267578 C 61.70691680908203 97.61192321777344 62.090919494628906 97.69717407226562 63.436580657958984 97.51675415039062 C 63.436580657958984 97.51675415039062 63.436580657958984 97.51675415039062 63.436580657958984 97.51675415039062" stroke-width="0.0" fill="rgb(34, 31, 77)" opacity="1.0"/>
    <path d="M 63.436580657958984 48.802303314208984 C 63.436580657958984 48.802303314208984 63.436580657958984 48.802303314208984 63.436580657958984 48.802303314208984 C 61.52567672729492 49.146583557128906 60.837120056152344 49.464378356933594 59.890357971191406 51.172523498535156 C 59.890357971191406 55.0340576171875 59.890357971191406 58.89642333984375 59.890357971191406 62.7587890625 C 60.519325256347656 64.85921478271484 61.30388259887695 64.84266662597656 63.436580657958984 65.12734985351562 C 66.33314514160156 65.12734985351562 69.2288818359375 65.12734985351562 72.12545776367188 65.12734985351562 C 74.25814819335938 64.84266662597656 75.04270935058594 64.85921478271484 75.67167663574219 62.7587890625 C 75.67167663574219 58.89642333984375 75.67167663574219 55.0340576171875 75.67167663574219 51.172523498535156 C 75.04270935058594 49.07127380371094 74.25814819335938 49.08781814575195 72.12545776367188 48.802303314208984 C 69.2288818359375 48.802303314208984 66.33314514160156 48.802303314208984 63.436580657958984 48.802303314208984" stroke-width="0.0" fill="rgb(215, 97, 9)" opacity="1.0"/>
    <path d="M 105.43596649169922 97.51675415039062 C 105.43596649169922 97.51675415039062 105.43596649169922 97.51675415039062 105.43596649169922 97.51675415039062 C 107.87156677246094 97.51675415039062 110.30633544921875 97.51675415039062 112.74193572998047 97.51675415039062 C 115.23297882080078 97.51675415039062 117.74967956542969 97.2916488647461 119.67134094238281 99.21414184570312 C 121.60956573486328 101.15152740478516 121.36873626708984 103.69802856445312 121.36873626708984 106.2081069946289 C 121.36873626708984 107.6464614868164 121.54252624511719 109.23709106445312 121.16183471679688 110.64482116699219 C 120.45341491699219 113.26414489746094 118.1634750366211 114.71408081054688 115.57559967041016 114.89698028564453 C 113.16814422607422 115.06746673583984 110.68370819091797 114.89698028564453 108.2696304321289 114.89698028564453 C 105.7785873413086 114.89698028564453 103.26188659667969 115.12290954589844 101.33939361572266 113.20124816894531 C 99.4020004272461 111.26468658447266 99.64200592041016 108.71736145019531 99.64200592041016 106.2081069946289 C 99.64200592041016 103.1807861328125 99.51455688476562 100.05497741699219 102.51209259033203 98.30792999267578 C 103.706298828125 97.61192321777344 104.09030151367188 97.69717407226562 105.43596649169922 97.51675415039062 C 105.43596649169922 97.51675415039062 105.43596649169922 97.51675415039062 105.43596649169922 97.51675415039062" stroke-width="0.0" fill="rgb(34, 32, 77)" opacity="1.0"/>
    <path d="M 105.43927001953125 45.378562927246094 C 105.43927001953125 45.378562927246094 105.43927001953125 45.378562927246094 105.43927001953125 45.378562927246094 C 109.62605285644531 45.378562927246094 116.60678100585938 43.91869354248047 119.1292724609375 48.24864959716797 C 120.44266510009766 50.50217819213867 119.92044830322266 53.61308670043945 119.92044830322266 56.10413360595703 C 119.92044830322266 60.34222412109375 121.08653259277344 66.87936401367188 115.66746520996094 68.34501647949219 C 115.1676025390625 68.48074340820312 114.64456176757812 68.5155029296875 114.12814331054688 68.55191802978516 C 112.69889831542969 68.65288543701172 111.21585845947266 68.55191802978516 109.78329467773438 68.55191802978516 C 106.40589904785156 68.55191802978516 102.43511962890625 69.11385345458984 100.43649291992188 65.68266296386719 C 99.12310791015625 63.42913818359375 99.64531707763672 60.31822204589844 99.64531707763672 57.82717514038086 C 99.64531707763672 53.98881149291992 98.5421371459961 48.4845085144043 102.51374816894531 46.16973876953125 C 103.70796203613281 45.47373580932617 104.09278869628906 45.55980682373047 105.43927001953125 45.378562927246094 C 105.43927001953125 45.378562927246094 105.43927001953125 45.378562927246094 105.43927001953125 45.378562927246094" stroke-width="0.0" fill="rgb(34, 32, 77)" opacity="1.0"/>
    <path d="M 147.43783569335938 97.51675415039062 C 147.43783569335938 97.51675415039062 147.43783569335938 97.51675415039062 147.43783569335938 97.51675415039062 C 149.87176513671875 97.51675415039062 152.30654907226562 97.51675415039062 154.74131774902344 97.51675415039062 C 157.23236083984375 97.51675415039062 159.74740600585938 97.2916488647461 161.66989135742188 99.21414184570312 C 163.6072998046875 101.15152740478516 163.36727905273438 103.69802856445312 163.36727905273438 106.2081069946289 C 163.36727905273438 107.6464614868164 163.54107666015625 109.23709106445312 163.16038513183594 110.64482116699219 C 162.4519805908203 113.26414489746094 160.1620330810547 114.71408081054688 157.57333374023438 114.89698028564453 C 155.16668701171875 115.06746673583984 152.68310546875 114.89698028564453 150.2698516845703 114.89698028564453 C 147.77963256835938 114.89698028564453 145.26292419433594 115.12290954589844 143.34124755859375 113.20124816894531 C 141.40386962890625 111.26468658447266 141.6438751220703 108.71736145019531 141.6438751220703 106.2081069946289 C 141.6438751220703 103.1807861328125 141.51641845703125 100.05497741699219 144.51394653320312 98.30792999267578 C 145.70733642578125 97.61192321777344 146.09133911132812 97.69717407226562 147.43783569335938 97.51675415039062 C 147.43783569335938 97.51675415039062 147.43783569335938 97.51675415039062 147.43783569335938 97.51675415039062" stroke-width="0.0" fill="rgb(34, 32, 77)" opacity="1.0"/>
    <path d="M 147.43783569335938 48.802303314208984 C 147.43783569335938 48.802303314208984 147.43783569335938 48.802303314208984 147.43783569335938 48.802303314208984 C 145.52609252929688 49.146583557128906 144.8367156982422 49.46355056762695 143.8916015625 51.172523498535156 C 143.8916015625 55.0340576171875 143.8916015625 58.89642333984375 143.8916015625 62.7587890625 C 144.51974487304688 64.85921478271484 145.3051300048828 64.84266662597656 147.43783569335938 65.12734985351562 C 150.3335723876953 65.12734985351562 153.23013305664062 65.12734985351562 156.12586975097656 65.12734985351562 C 158.25857543945312 64.84266662597656 159.0431365966797 64.85921478271484 159.67208862304688 62.7587890625 C 159.67208862304688 58.89642333984375 159.67208862304688 55.0340576171875 159.67208862304688 51.172523498535156 C 159.0439453125 49.07127380371094 158.2593994140625 49.08781814575195 156.12586975097656 48.802303314208984 C 153.23013305664062 48.802303314208984 150.3335723876953 48.802303314208984 147.43783569335938 48.802303314208984" stroke-width="0.0" fill="rgb(215, 97, 9)" opacity="1.0"/>
    <path d="M 63.436580657958984 100.50931549072266 C 63.436580657958984 100.50931549072266 63.436580657958984 100.50931549072266 63.436580657958984 100.50931549072266 C 61.287330627441406 100.912353515625 60.907466888427734 101.16559600830078 60.449806213378906 103.30989074707031 C 60.449806213378906 105.24148559570312 60.449806213378906 107.17224884033203 60.449806213378906 109.10384368896484 C 60.907466888427734 111.24813842773438 61.287330627441406 111.50054931640625 63.436580657958984 111.9035873413086 C 66.81562805175781 111.9035873413086 70.19468688964844 111.9035873413086 73.57290649414062 111.9035873413086 C 75.72216033935547 111.50054931640625 76.10285186767578 111.24813842773438 76.56051635742188 109.10384368896484 C 76.56051635742188 107.17224884033203 76.56051635742188 105.24148559570312 76.56051635742188 103.30989074707031 C 76.10285186767578 101.16559600830078 75.72299194335938 100.912353515625 73.57290649414062 100.50931549072266 C 70.19468688964844 100.50931549072266 66.81562805175781 100.50931549072266 63.436580657958984 100.50931549072266" stroke-width="0.0" fill="rgb(212, 180, 5)" opacity="1.0"/>
    <path d="M 67.7830810546875 51.170867919921875 C 67.7830810546875 51.170867919921875 67.7830810546875 51.170867919921875 67.7830810546875 51.170867919921875 C 69.93399047851562 51.60121536254883 70.24930572509766 51.916526794433594 70.67965698242188 54.06743621826172 C 70.67965698242188 55.033233642578125 70.67965698242188 55.99903106689453 70.67965698242188 56.96482849121094 C 70.57206726074219 57.50110626220703 70.60269165039062 58.085384368896484 70.35771942138672 58.57448959350586 C 69.46640014648438 60.357948303222656 66.09976196289062 60.357948303222656 65.20762634277344 58.57448959350586 C 64.96348571777344 58.085384368896484 64.99327850341797 57.50110626220703 64.88569641113281 56.96482849121094 C 64.88569641113281 55.99903106689453 64.88569641113281 55.033233642578125 64.88569641113281 54.06743621826172 C 65.3160400390625 51.916526794433594 65.63134765625 51.60121536254883 67.7830810546875 51.170867919921875 C 67.7830810546875 51.170867919921875 67.7830810546875 51.170867919921875 67.7830810546875 51.170867919921875" stroke-width="0.0" fill="rgb(174, 75, 0)" opacity="1.0"/>
    <path d="M 105.43596649169922 100.50931549072266 C 105.43596649169922 100.50931549072266 105.43596649169922 100.50931549072266 105.43596649169922 100.50931549072266 C 103.285888671875 100.912353515625 102.90602111816406 101.16559600830078 102.4483642578125 103.30989074707031 C 102.4483642578125 105.24148559570312 102.4483642578125 107.17224884033203 102.4483642578125 109.10384368896484 C 102.90602111816406 111.24813842773438 103.28671264648438 111.50054931640625 105.43596649169922 111.9035873413086 C 108.81584167480469 111.9035873413086 112.19572448730469 111.9035873413086 115.57559967041016 111.9035873413086 C 117.724853515625 111.50054931640625 118.1047134399414 111.24813842773438 118.5623779296875 109.10384368896484 C 118.5623779296875 107.17224884033203 118.5623779296875 105.24148559570312 118.5623779296875 103.30989074707031 C 118.1047134399414 101.16559600830078 117.724853515625 100.912353515625 115.57559967041016 100.50931549072266 C 112.19572448730469 100.50931549072266 108.81584167480469 100.50931549072266 105.43596649169922 100.50931549072266" stroke-width="0.0" fill="rgb(212, 180, 5)" opacity="1.0"/>
    <path d="M 105.43927001953125 48.802303314208984 C 105.43927001953125 48.802303314208984 105.43927001953125 48.802303314208984 105.43927001953125 48.802303314208984 C 103.30574798583984 49.08781814575195 102.52118682861328 49.07127380371094 101.89222717285156 51.172523498535156 C 101.89222717285156 55.0340576171875 101.89222717285156 58.89642333984375 101.89222717285156 62.7587890625 C 102.52118682861328 64.85921478271484 103.30657958984375 64.84266662597656 105.43927001953125 65.12734985351562 C 108.3358383178711 65.12734985351562 111.23157501220703 65.12734985351562 114.12814331054688 65.12734985351562 C 116.26084899902344 64.84266662597656 117.04540252685547 64.85921478271484 117.67436981201172 62.7587890625 C 117.67436981201172 58.89642333984375 117.67436981201172 55.0340576171875 117.67436981201172 51.172523498535156 C 117.04540252685547 49.07127380371094 116.26084899902344 49.08781814575195 114.12814331054688 48.802303314208984 C 111.23157501220703 48.802303314208984 108.3358383178711 48.802303314208984 105.43927001953125 48.802303314208984" stroke-width="0.0" fill="rgb(215, 97, 8)" opacity="1.0"/>
    <path d="M 147.43783569335938 100.50931549072266 C 147.43783569335938 100.50931549072266 147.43783569335938 100.50931549072266 147.43783569335938 100.50931549072266 C 145.28775024414062 100.912353515625 144.9078826904297 101.16559600830078 144.45022583007812 103.30989074707031 C 144.45022583007812 105.24148559570312 144.45022583007812 107.17224884033203 144.45022583007812 109.10384368896484 C 144.9078826904297 111.24813842773438 145.28857421875 111.50054931640625 147.43783569335938 111.9035873413086 C 150.8160400390625 111.9035873413086 154.19509887695312 111.9035873413086 157.57333374023438 111.9035873413086 C 159.72340393066406 111.50054931640625 160.10409545898438 111.24813842773438 160.56175231933594 109.10384368896484 C 160.56175231933594 107.17224884033203 160.56175231933594 105.24148559570312 160.56175231933594 103.30989074707031 C 160.10409545898438 101.16559600830078 159.72340393066406 100.912353515625 157.57333374023438 100.50931549072266 C 154.19509887695312 100.50931549072266 150.8160400390625 100.50931549072266 147.43783569335938 100.50931549072266" stroke-width="0.0" fill="rgb(212, 180, 5)" opacity="1.0"/>
    <path d="M 151.7801971435547 51.170867919921875 C 151.7801971435547 51.170867919921875 151.7801971435547 51.170867919921875 151.7801971435547 51.170867919921875 C 153.9311065673828 51.60121536254883 154.2464141845703 51.916526794433594 154.6767578125 54.06743621826172 C 154.6767578125 55.033233642578125 154.6767578125 55.99903106689453 154.6767578125 56.96482849121094 C 154.57000732421875 57.50110626220703 154.59979248046875 58.085384368896484 154.35482788085938 58.57448959350586 C 153.46351623535156 60.357948303222656 150.0968780517578 60.357948303222656 149.20556640625 58.57448959350586 C 148.96060180664062 58.085384368896484 148.99038696289062 57.50110626220703 148.88363647460938 56.96482849121094 C 148.88363647460938 55.99903106689453 148.88363647460938 55.033233642578125 148.88363647460938 54.06743621826172 C 149.31398010253906 51.916526794433594 149.62928771972656 51.60121536254883 151.7801971435547 51.170867919921875 C 151.7801971435547 51.170867919921875 151.7801971435547 51.170867919921875 151.7801971435547 51.170867919921875" stroke-width="0.0" fill="rgb(174, 75, 0)" opacity="1.0"/>
    <path d="M 109.7816390991211 51.170867919921875 C 109.7816390991211 51.170867919921875 109.7816390991211 51.170867919921875 109.7816390991211 51.170867919921875 C 111.93254852294922 51.60121536254883 112.24786376953125 51.916526794433594 112.67820739746094 54.06743621826172 C 112.67820739746094 55.033233642578125 112.67820739746094 55.99903106689453 112.67820739746094 56.96482849121094 C 112.57062530517578 57.50110626220703 112.60041046142578 58.085384368896484 112.35627746582031 58.57448959350586 C 111.46495819091797 60.357948303222656 108.09832763671875 60.357948303222656 107.2070083618164 58.57448959350586 C 106.96204376220703 58.085384368896484 106.99266052246094 57.50110626220703 106.88507843017578 56.96482849121094 C 106.88507843017578 55.99903106689453 106.88507843017578 55.033233642578125 106.88507843017578 54.06743621826172 C 107.31542205810547 51.916526794433594 107.6307373046875 51.60121536254883 109.7816390991211 51.170867919921875 C 109.7816390991211 51.170867919921875 109.7816390991211 51.170867919921875 109.7816390991211 51.170867919921875" stroke-width="0.0" fill="rgb(174, 75, 0)" opacity="1.0"/>
  </g>
</svg>
