<?xml version="1.0" ?>
<svg xmlns="http://www.w3.org/2000/svg" version="1.1" width="224" height="224">
  <defs/>
  <g>
    <path d="M 68.55770874023438 28.0 C 72.41925048828125 28.0 76.2807846069336 28.0 80.14149475097656 28.0 C 81.583984375 28.08441162109375 82.20219421386719 28.036407470703125 83.57516479492188 28.428688049316406 C 87.53766632080078 29.561660766601562 88.61270904541016 32.96388244628906 88.83202362060547 36.689697265625 C 88.83202362060547 43.44862365722656 88.83202362060547 50.20672607421875 88.83202362060547 56.96482849121094 C 88.40167236328125 59.11656188964844 88.08635711669922 59.431884765625 85.93545532226562 59.86139678955078 C 78.21155548095703 59.86139678955078 70.48765563964844 59.86139678955078 62.76457977294922 59.86139678955078 C 60.613670349121094 59.431884765625 60.29835891723633 59.11573791503906 59.868011474609375 56.96482849121094 C 59.868011474609375 50.20672607421875 59.868011474609375 43.44862365722656 59.868011474609375 36.689697265625 C 60.08732604980469 32.96471405029297 61.16236114501953 29.561660766601562 65.12486267089844 28.428688049316406 C 66.49784088134766 28.036407470703125 67.11605072021484 28.08441162109375 68.55770874023438 28.0 C 68.55770874023438 28.0 68.55770874023438 28.0 68.55770874023438 28.0" stroke-width="0.0" fill="rgb(34, 32, 77)" opacity="1.0"/>
    <path d="M 123.5908203125 149.65579223632812 C 142.90179443359375 149.65579223632812 162.21197509765625 149.65579223632812 181.52296447753906 149.65579223632812 C 183.66146850585938 149.75674438476562 184.3078155517578 150.8632354736328 184.40711975097656 152.81468200683594 C 183.4462890625 163.3946075439453 182.484619140625 173.97451782226562 181.5238037109375 184.554443359375 C 181.06283569335938 191.118896484375 176.50527954101562 195.6035919189453 169.9425048828125 196.0 C 158.35208129882812 196.0 146.76168823242188 196.0 135.17129516601562 196.0 C 130.47140502929688 195.79725646972656 126.00405883789062 194.43502807617188 124.34143829345703 189.55970764160156 C 123.78199005126953 187.91693115234375 123.67854309082031 186.26754760742188 123.59329223632812 184.55029296875 C 122.63080596923828 173.97203063964844 121.66831970214844 163.39376831054688 120.7066650390625 152.81468200683594 C 120.60652160644531 150.55950927734375 121.66004943847656 150.04226684570312 123.5908203125 149.65579223632812 C 123.5908203125 149.65579223632812 123.5908203125 149.65579223632812 123.5908203125 149.65579223632812" stroke-width="0.0" fill="rgb(34, 32, 77)" opacity="1.0"/>
    <path d="M 68.55770874023438 30.896560668945312 C 68.55770874023438 30.896560668945312 68.55770874023438 30.896560668945312 68.55770874023438 30.896560668945312 C 71.34420776367188 30.896560668945312 74.13070678710938 30.896560668945312 76.91719818115234 30.896560668945312 C 80.0322494506836 30.896560668945312 83.33599090576172 30.659866333007812 85.14510345458984 33.764984130859375 C 85.84028625488281 34.959205627441406 85.75421142578125 35.344032287597656 85.93545532226562 36.689697265625 C 85.93545532226562 43.44862365722656 85.93545532226562 50.20672607421875 85.93545532226562 56.96482849121094 C 78.21155548095703 56.96482849121094 70.48765563964844 56.96482849121094 62.76457977294922 56.96482849121094 C 62.76457977294922 51.48370361328125 62.76457977294922 46.001739501953125 62.76457977294922 40.51978302001953 C 62.76457977294922 37.25163269042969 62.342506408691406 33.603614807128906 65.63301086425781 31.686912536621094 C 66.8263931274414 30.991737365722656 67.21205139160156 31.076980590820312 68.55770874023438 30.896560668945312 C 68.55770874023438 30.896560668945312 68.55770874023438 30.896560668945312 68.55770874023438 30.896560668945312" stroke-width="0.0" fill="rgb(34, 32, 77)" opacity="1.0"/>
    <path d="M 123.5908203125 152.55235290527344 C 142.90179443359375 152.55235290527344 162.21197509765625 152.55235290527344 181.52296447753906 152.55235290527344 C 180.55799865722656 163.17364501953125 179.593017578125 173.79493713378906 178.6280517578125 184.4154052734375 C 178.17535400390625 189.46783447265625 174.99575805664062 192.6507568359375 169.9425048828125 193.10345458984375 C 158.35208129882812 193.10345458984375 146.76168823242188 193.10345458984375 135.17129516601562 193.10345458984375 C 130.12051391601562 192.6507568359375 126.94172668457031 189.46783447265625 126.48904418945312 184.4178924560547 C 125.52323913574219 173.79660034179688 124.55661010742188 163.17446899414062 123.5908203125 152.55235290527344" stroke-width="0.0" fill="rgb(34, 32, 77)" opacity="1.0"/>
    <path d="M 68.55770874023438 33.793128967285156 C 68.55770874023438 33.793128967285156 68.55770874023438 33.793128967285156 68.55770874023438 33.793128967285156 C 66.40680694580078 34.223472595214844 66.09149169921875 34.538787841796875 65.66114807128906 36.689697265625 C 65.66114807128906 42.482826232910156 65.66114807128906 48.275962829589844 65.66114807128906 54.069091796875 C 71.45344543457031 54.069091796875 77.24575805664062 54.069091796875 83.03888702392578 54.069091796875 C 83.03888702392578 48.275962829589844 83.03888702392578 42.482826232910156 83.03888702392578 36.689697265625 C 82.60853576660156 34.538787841796875 82.29322814941406 34.223472595214844 80.14149475097656 33.793128967285156 C 76.2807846069336 33.793128967285156 72.41925048828125 33.793128967285156 68.55770874023438 33.793128967285156" stroke-width="0.0" fill="rgb(233, 221, 201)" opacity="1.0"/>
    <path d="M 126.76296997070312 155.44973754882812 C 127.63359069824219 165.01751708984375 128.5042266845703 174.5852813720703 129.37484741210938 184.15223693847656 C 129.55029296875 188.14535522460938 131.24436950683594 189.85018920898438 135.17129516601562 190.20770263671875 C 146.76168823242188 190.20770263671875 158.35208129882812 190.20770263671875 169.9425048828125 190.20770263671875 C 173.86941528320312 189.85018920898438 175.567626953125 188.14700317382812 175.74307250976562 184.15304565429688 C 176.61203002929688 174.5852813720703 177.48101806640625 165.01751708984375 178.35081481933594 155.44973754882812 C 161.1551513671875 155.44973754882812 143.95864868164062 155.44973754882812 126.76296997070312 155.44973754882812" stroke-width="0.0" fill="rgb(228, 193, 166)" opacity="1.0"/>
    <path d="M 62.76457977294922 54.069091796875 C 70.48765563964844 54.069091796875 78.21155548095703 54.069091796875 85.93545532226562 54.069091796875 C 88.08635711669922 54.49943542480469 88.40167236328125 54.813926696777344 88.83202362060547 56.96482849121094 C 88.83202362060547 64.38583374023438 88.83202362060547 71.80766296386719 88.83202362060547 79.22866821289062 C 88.96939849853516 86.26980590820312 90.59893035888672 93.0113525390625 94.34211730957031 99.03538513183594 C 97.20309448242188 103.64010620117188 101.1482162475586 107.38080596923828 103.80064392089844 112.14690399169922 C 107.41722106933594 118.64596557617188 108.98467254638672 125.79304504394531 109.1071548461914 133.18507385253906 C 109.1071548461914 151.2273712158203 109.1071548461914 169.2688446044922 109.1071548461914 187.31114196777344 C 108.7421875 192.32302856445312 105.43347930908203 195.63504028320312 100.42076873779297 196.0 C 83.04054260253906 196.0 65.66031646728516 196.0 48.279266357421875 196.0 C 43.26903533935547 195.63504028320312 39.95784378051758 192.3213653564453 39.59287643432617 187.31114196777344 C 39.59287643432617 169.2688446044922 39.59287643432617 151.2273712158203 39.59287643432617 133.18507385253906 C 39.71784210205078 125.97510528564453 41.18929672241211 118.9935531616211 44.63621139526367 112.6103515625 C 47.309329986572266 107.65887451171875 51.37031555175781 103.81803131103516 54.322330474853516 99.07842254638672 C 58.0837287902832 93.04032897949219 59.73063278198242 86.29132080078125 59.868011474609375 79.22866821289062 C 59.868011474609375 71.80766296386719 59.868011474609375 64.38583374023438 59.868011474609375 56.96482849121094 C 60.29835891723633 54.81475067138672 60.613670349121094 54.49943542480469 62.76457977294922 54.069091796875 C 62.76457977294922 54.069091796875 62.76457977294922 54.069091796875 62.76457977294922 54.069091796875" stroke-width="0.0" fill="rgb(34, 32, 77)" opacity="1.0"/>
    <path d="M 168.57696533203125 171.11520385742188 C 168.57696533203125 171.11520385742188 168.57696533203125 171.11520385742188 168.57696533203125 171.11520385742188 C 169.04620361328125 171.072998046875 169.5229034423828 170.89505004882812 169.98471069335938 170.98773193359375 C 174.06057739257812 171.80291748046875 170.28097534179688 176.43991088867188 169.08924865722656 177.77149963378906 C 167.15765380859375 179.70309448242188 165.22689819335938 181.63388061523438 163.2952880859375 183.5654754638672 C 162.2847900390625 184.48822021484375 161.10797119140625 185.76602172851562 159.71099853515625 186.1251983642578 C 157.211669921875 186.76824951171875 155.83290100097656 184.56353759765625 156.90545654296875 182.41842651367188 C 157.52532958984375 181.1778564453125 158.26766967773438 180.510009765625 159.19871520996094 179.46888732910156 C 161.13031005859375 177.53811645507812 163.0610809326172 175.60653686523438 164.99267578125 173.67575073242188 C 166.15957641601562 172.60983276367188 167.15185546875 171.79049682617188 168.57696533203125 171.11520385742188 C 168.57696533203125 171.11520385742188 168.57696533203125 171.11520385742188 168.57696533203125 171.11520385742188" stroke-width="0.0" fill="rgb(238, 215, 197)" opacity="1.0"/>
    <path d="M 62.76457977294922 56.96482849121094 C 70.48765563964844 56.96482849121094 78.21155548095703 56.96482849121094 85.93545532226562 56.96482849121094 C 85.93545532226562 64.38583374023438 85.93545532226562 71.80766296386719 85.93545532226562 79.22866821289062 C 86.0902099609375 86.93022155761719 88.05656433105469 94.3677749633789 92.15892791748047 100.93222045898438 C 95.07618713378906 105.60066223144531 99.04862213134766 109.38523864746094 101.60587310791016 114.315185546875 C 104.6572036743164 120.19522094726562 106.07817077636719 126.59001159667969 106.21141815185547 133.18507385253906 C 106.21141815185547 151.2273712158203 106.21141815185547 169.2688446044922 106.21141815185547 187.31114196777344 C 105.7446517944336 190.78701782226562 103.89747619628906 192.63668823242188 100.42076873779297 193.10345458984375 C 83.04054260253906 193.10345458984375 65.66031646728516 193.10345458984375 48.279266357421875 193.10345458984375 C 44.814144134521484 192.64578247070312 42.94710159301758 190.77626037597656 42.48944091796875 187.31114196777344 C 42.48944091796875 169.2688446044922 42.48944091796875 151.2273712158203 42.48944091796875 133.18507385253906 C 42.62268829345703 126.59001159667969 44.04282760620117 120.19522094726562 47.093326568603516 114.3160171508789 C 49.65140914916992 109.38688659667969 53.623844146728516 105.60231018066406 56.541099548339844 100.93387603759766 C 60.64263916015625 94.36860656738281 62.60899353027344 86.93104553222656 62.76457977294922 79.22866821289062 C 62.76457977294922 71.80766296386719 62.76457977294922 64.38583374023438 62.76457977294922 56.96482849121094" stroke-width="0.0" fill="rgb(34, 32, 77)" opacity="1.0"/>
    <path d="M 65.66114807128906 59.86139678955078 C 65.66114807128906 66.31742858886719 65.66114807128906 72.77262878417969 65.66114807128906 79.22866821289062 C 65.53948974609375 86.60580444335938 63.982791900634766 93.74626159667969 60.37946319580078 100.23539733886719 C 57.73365783691406 105.00065612792969 53.79184341430664 108.73805236816406 50.928382873535156 113.33697509765625 C 47.16946792602539 119.37425231933594 45.52338790893555 126.12324523925781 45.38518142700195 133.18507385253906 C 45.38518142700195 151.2273712158203 45.38518142700195 169.2688446044922 45.38518142700195 187.31114196777344 C 45.73194122314453 189.1243896484375 46.46601486206055 189.86094665527344 48.279266357421875 190.20770263671875 C 65.66031646728516 190.20770263671875 83.04054260253906 190.20770263671875 100.42076873779297 190.20770263671875 C 102.57084655761719 189.77735900878906 102.8844985961914 189.46038818359375 103.31402587890625 187.31114196777344 C 103.31402587890625 169.2688446044922 103.31402587890625 151.2273712158203 103.31402587890625 133.18507385253906 C 103.17664337158203 126.14393615722656 101.54794311523438 119.40321350097656 97.80558776855469 113.37835693359375 C 94.94625854492188 108.77364349365234 90.99947357177734 105.0329360961914 88.34622955322266 100.26766967773438 C 84.72882843017578 93.7694320678711 83.1605453491211 86.62153625488281 83.03888702392578 79.22866821289062 C 83.03888702392578 72.77262878417969 83.03888702392578 66.31742858886719 83.03888702392578 59.86139678955078 C 77.24575805664062 59.86139678955078 71.45344543457031 59.86139678955078 65.66114807128906 59.86139678955078" stroke-width="0.0" fill="rgb(233, 221, 201)" opacity="1.0"/>
    <path d="M 62.76457977294922 161.23956298828125 C 70.48765563964844 161.23956298828125 78.21155548095703 161.23956298828125 85.93545532226562 161.23956298828125 C 86.47173309326172 161.34715270996094 87.05518341064453 161.31735229492188 87.5442886352539 161.56149291992188 C 89.32774353027344 162.45362854003906 89.32774353027344 165.81944274902344 87.5442886352539 166.7115936279297 C 87.05518341064453 166.95571899414062 86.47173309326172 166.92593383789062 85.93545532226562 167.03350830078125 C 78.21155548095703 167.03350830078125 70.48765563964844 167.03350830078125 62.76457977294922 167.03350830078125 C 62.228302001953125 166.92593383789062 61.64484786987305 166.95571899414062 61.15574264526367 166.7115936279297 C 59.372283935546875 165.81944274902344 59.372283935546875 162.45362854003906 61.15574264526367 161.56149291992188 C 61.64484786987305 161.31735229492188 62.228302001953125 161.34715270996094 62.76457977294922 161.23956298828125 C 62.76457977294922 161.23956298828125 62.76457977294922 161.23956298828125 62.76457977294922 161.23956298828125" stroke-width="0.0" fill="rgb(197, 175, 153)" opacity="1.0"/>
    <path d="M 62.76457977294922 172.5220947265625 C 70.48765563964844 172.5220947265625 78.21155548095703 172.5220947265625 85.93545532226562 172.5220947265625 C 86.40966033935547 172.64126586914062 86.9434585571289 172.61892700195312 87.35808563232422 172.87796020507812 C 88.98512268066406 173.8950653076172 88.98512268066406 177.55136108398438 87.35808563232422 178.56846618652344 C 86.9434585571289 178.8275146484375 86.40966033935547 178.80517578125 85.93545532226562 178.92434692382812 C 78.21155548095703 178.92434692382812 70.48765563964844 178.92434692382812 62.76457977294922 178.92434692382812 C 62.29037094116211 178.80517578125 61.75657653808594 178.8275146484375 61.34195327758789 178.56846618652344 C 59.71491241455078 177.55136108398438 59.71491241455078 173.8950653076172 61.34195327758789 172.87796020507812 C 61.75657653808594 172.61892700195312 62.29037094116211 172.64126586914062 62.76457977294922 172.5220947265625 C 62.76457977294922 172.5220947265625 62.76457977294922 172.5220947265625 62.76457977294922 172.5220947265625" stroke-width="0.0" fill="rgb(197, 175, 153)" opacity="1.0"/>
    <path d="M 74.16463470458984 114.62470245361328 C 74.28960418701172 114.62470245361328 74.41456604003906 114.62470245361328 74.53953552246094 114.62470245361328 C 82.56219482421875 114.91602325439453 89.71919250488281 119.43797302246094 92.82679748535156 127.02118682861328 C 93.8794937133789 129.59002685546875 94.22624969482422 132.23251342773438 94.32308197021484 134.98509216308594 C 94.32308197021484 135.04714965820312 94.32308197021484 135.11004638671875 94.32308197021484 135.172119140625 C 94.16666412353516 139.61627197265625 93.12886810302734 143.75506591796875 90.45740509033203 147.38818359375 C 88.57050323486328 149.9545440673828 86.10179901123047 152.16006469726562 83.2664794921875 153.62655639648438 C 73.53318786621094 158.66162109375 61.45615768432617 154.2588348388672 56.55516815185547 144.65298461914062 C 55.028263092041016 141.6612548828125 54.496952056884766 138.49488830566406 54.3802604675293 135.172119140625 C 54.3802604675293 135.11004638671875 54.3802604675293 135.04714965820312 54.3802604675293 134.98509216308594 C 54.477088928222656 132.23251342773438 54.823848724365234 129.59002685546875 55.87737274169922 127.02118682861328 C 58.98497009277344 119.43797302246094 66.14115142822266 114.91602325439453 74.16463470458984 114.62470245361328 C 74.16463470458984 114.62470245361328 74.16463470458984 114.62470245361328 74.16463470458984 114.62470245361328" stroke-width="0.0" fill="rgb(34, 32, 77)" opacity="1.0"/>
    <path d="M 74.16463470458984 117.7918930053711 C 74.28960418701172 117.7918930053711 74.41456604003906 117.7918930053711 74.53953552246094 117.7918930053711 C 84.20909881591797 118.21727752685547 91.30651092529297 125.31551361083984 91.73189544677734 134.98509216308594 C 91.73189544677734 135.04714965820312 91.73189544677734 135.11004638671875 91.73189544677734 135.172119140625 C 91.60031127929688 137.93626403808594 91.1269302368164 140.52413940429688 89.86485290527344 143.016845703125 C 84.75282287597656 153.11013793945312 70.98503112792969 155.638427734375 62.62885284423828 148.00225830078125 C 58.922080993652344 144.61492919921875 57.20565414428711 140.10289001464844 56.970619201660156 135.172119140625 C 56.970619201660156 135.11004638671875 56.970619201660156 135.04714965820312 56.970619201660156 134.98509216308594 C 57.396827697753906 125.314697265625 64.4942398071289 118.21727752685547 74.16463470458984 117.7918930053711 C 74.16463470458984 117.7918930053711 74.16463470458984 117.7918930053711 74.16463470458984 117.7918930053711" stroke-width="0.0" fill="rgb(34, 32, 77)" opacity="1.0"/>
    <path d="M 74.16463470458984 120.9590835571289 C 74.16463470458984 120.9590835571289 74.16463470458984 120.9590835571289 74.16463470458984 120.9590835571289 C 66.14363098144531 121.31494140625 59.994632720947266 126.82669830322266 59.56262969970703 134.98509216308594 C 59.56262969970703 135.04714965820312 59.56262969970703 135.11004638671875 59.56262969970703 135.172119140625 C 59.702491760253906 137.8253631591797 60.21228790283203 140.24856567382812 61.67464065551758 142.5153350830078 C 67.80625915527344 152.02102661132812 82.72688293457031 151.46157836914062 87.78925323486328 141.17379760742188 C 88.73602294921875 139.25047302246094 89.02898406982422 137.28660583496094 89.14070892333984 135.172119140625 C 89.14070892333984 135.11004638671875 89.14070892333984 135.04714965820312 89.14070892333984 134.98509216308594 C 88.70870971679688 126.82669830322266 82.55970764160156 121.31494140625 74.53953552246094 120.9590835571289 C 74.41456604003906 120.9590835571289 74.28960418701172 120.9590835571289 74.16463470458984 120.9590835571289" stroke-width="0.0" fill="rgb(247, 190, 79)" opacity="1.0"/>
  </g>
</svg>
