<?xml version="1.0" ?>
<svg xmlns="http://www.w3.org/2000/svg" version="1.1" width="224" height="224">
  <defs/>
  <g>
    <path d="M 41.515052795410156 145.94085693359375 C 30.747238159179688 142.19020080566406 27.99999237060547 130.39071655273438 34.30603790283203 115.99092102050781 C 40.14330291748047 103.41607666015625 54.83879852294922 93.31912231445312 74.22518920898438 88.15438079833984 C 123.45803833007812 76.21990966796875 176.72694396972656 88.01658630371094 189.07449340820312 114.91407775878906 C 196.0 128.74026489257812 194.00924682617188 139.88986206054688 184.49252319335938 144.95191955566406 C 180.71495056152344 147.50360107421875 179.58023071289062 147.74351501464844 112.97186279296875 147.56777954101562 C 56.832618713378906 147.53709411621094 44.2938346862793 147.78009033203125 41.515052795410156 145.94085693359375" stroke-width="1.0" fill="rgb(33, 26, 69)" opacity="0.9962041"/>
    <path d="M 181.8780517578125 134.28599548339844 C 179.68959045410156 127.63580322265625 172.65887451171875 120.29070281982422 164.89198303222656 116.76396179199219 C 154.43630981445312 111.67344665527344 144.24063110351562 109.83290100097656 120.15238952636719 108.7145767211914 C 89.31492614746094 108.21290588378906 72.50076293945312 110.78280639648438 58.00254440307617 118.03978729248047 C 50.24951171875 121.47173309326172 46.644046783447266 124.939453125 43.67734909057617 131.68075561523438 C 41.77101135253906 135.15940856933594 40.16319274902344 137.3140411376953 39.500335693359375 136.9990997314453 C 37.718223571777344 137.11117553710938 36.23262023925781 131.6277618408203 36.89158630371094 127.2435302734375 C 38.66394805908203 112.40850067138672 53.419498443603516 99.54653930664062 75.07077026367188 93.95537567138672 C 88.11878967285156 90.70610809326172 101.07465362548828 89.32601928710938 117.57748413085938 89.67770385742188 C 146.06292724609375 90.8974609375 165.39892578125 97.06230926513672 177.72918701171875 109.234619140625 C 185.7578125 117.57930755615234 190.1185760498047 131.02392578125 186.07672119140625 135.72674560546875 L 184.314453125 138.40289306640625 L 181.8780517578125 134.28599548339844" stroke-width="1.0" fill="rgb(239, 97, 30)" opacity="0.9956982"/>
    <path d="M 47.27882766723633 141.52548217773438 C 45.240169525146484 138.9325714111328 50.28125762939453 129.4585723876953 57.204833984375 124.82857513427734 C 64.70051574707031 119.06713104248047 87.34786987304688 114.55508422851562 98.72745513916016 115.2803726196289 L 103.77323913574219 114.76030731201172 L 104.63638305664062 126.0817642211914 C 105.2702407836914 133.59165954589844 105.21694946289062 137.70140075683594 104.78287506103516 139.86172485351562 L 103.9110107421875 141.69192504882812 L 75.78900146484375 141.58665466308594 C 60.436119079589844 141.6427001953125 47.823951721191406 141.603759765625 47.27882766723633 141.52548217773438" stroke-width="0.0" fill="rgb(234, 226, 208)" opacity="0.99073726"/>
    <path d="M 118.21603393554688 140.8262481689453 C 117.19044494628906 138.89739990234375 120.0736312866211 117.59200286865234 121.54833221435547 115.35926055908203 C 122.40922546386719 114.43032836914062 139.97669982910156 115.63531494140625 149.5831756591797 117.79346466064453 C 162.93130493164062 120.40104675292969 173.10076904296875 127.24278259277344 176.38992309570312 136.16656494140625 C 179.99459838867188 142.9134521484375 180.54412841796875 141.68528747558594 147.89691162109375 141.59152221679688 C 125.86965942382812 141.73167419433594 118.67253112792969 141.75453186035156 118.21603393554688 140.8262481689453" stroke-width="0.0" fill="rgb(234, 225, 209)" opacity="0.99509543"/>
    <path d="M 71.55867004394531 134.31288146972656 C 68.46099853515625 131.65943908691406 70.52114868164062 126.62042999267578 74.7387924194336 126.73002624511719 C 77.82334899902344 126.75532531738281 79.60677337646484 129.88394165039062 78.10237121582031 132.96812438964844 C 76.8109359741211 136.0491180419922 73.64569091796875 136.63392639160156 71.55867004394531 134.31288146972656" stroke-width="1.0" fill="rgb(40, 31, 70)" opacity="0.975966"/>
    <path d="M 102.85165405273438 140.28009033203125 C 98.78140258789062 137.76185607910156 95.96512603759766 133.11595153808594 95.91285705566406 128.14886474609375 C 95.79524993896484 123.65140533447266 96.76124572753906 121.07341003417969 100.33578491210938 117.38787841796875 C 102.4872055053711 114.70259857177734 103.02041625976562 114.58354949951172 111.56852722167969 114.46148681640625 C 122.40170288085938 114.24944305419922 125.13616180419922 115.64816284179688 127.47694396972656 122.0663070678711 C 130.3726348876953 128.17425537109375 129.35374450683594 132.57411193847656 124.02528381347656 137.62875366210938 C 119.9847412109375 141.72581481933594 119.92144012451172 141.9291229248047 113.04139709472656 141.86293029785156 C 107.84960174560547 142.10379028320312 105.44256591796875 141.59866333007812 102.85165405273438 140.28009033203125" stroke-width="1.0" fill="rgb(238, 153, 17)" opacity="0.99154115"/>
  </g>
</svg>
