<?xml version="1.0" ?>
<svg xmlns="http://www.w3.org/2000/svg" version="1.1" width="224" height="224">
  <defs/>
  <g>
    <path d="M 52.28073501586914 188.62844848632812 C 50.47585678100586 188.15042114257812 47.864036560058594 186.9684295654297 46.50078582763672 186.05868530273438 C 45.620506286621094 184.7244415283203 43.07982635498047 185.33180236816406 37.17185974121094 185.38943481445312 C 30.053802490234375 185.426513671875 28.663719177246094 185.134033203125 28.281333923339844 183.10357666015625 C 28.423553466796875 180.93881225585938 27.99999237060547 66.0748291015625 28.221351623535156 61.4637565612793 C 30.531959533691406 47.85112762451172 36.83696746826172 39.454345703125 47.11854553222656 35.862098693847656 L 53.7704963684082 33.2764892578125 L 171.33145141601562 33.26800537109375 L 177.66128540039062 35.92048645019531 C 186.50328063964844 40.16032409667969 193.0946044921875 48.65740966796875 194.98416137695312 59.36659240722656 C 196.0 61.772579193115234 195.16526794433594 86.23654174804688 195.55679321289062 123.48831939697266 L 195.3968963623047 184.73358154296875 L 187.45355224609375 185.08053588867188 C 180.4630889892578 184.5970001220703 178.30596923828125 184.52719116210938 175.77880859375 187.22300720214844 C 169.7188262939453 190.36312866210938 161.35348510742188 190.73199462890625 155.08987426757812 187.44284057617188 L 151.2555389404297 185.14041137695312 L 73.08369445800781 185.15072631835938 L 69.736572265625 187.18716430664062 C 64.39808654785156 189.68057250976562 57.84074020385742 190.33419799804688 52.28073501586914 188.62844848632812" stroke-width="1.0" fill="rgb(4, 4, 51)" opacity="0.9978856"/>
    <path d="M 34.432533264160156 118.5687026977539 L 34.571685791015625 60.175498962402344 L 36.790306091308594 54.309165954589844 C 37.64965057373047 51.35752868652344 39.50684356689453 48.32227325439453 42.46101379394531 45.91796875 C 50.399803161621094 38.71228790283203 45.77820587158203 39.48802185058594 112.97303009033203 39.68550109863281 L 170.9661102294922 39.740264892578125 L 176.3106231689453 41.969764709472656 C 181.49740600585938 44.24463653564453 186.0316162109375 49.598175048828125 187.79074096679688 56.05638122558594 C 190.03501892089844 60.46714782714844 189.72332763671875 64.22470092773438 189.68801879882812 119.66865539550781 L 189.470703125 179.64990234375 L 183.7442626953125 179.19113159179688 L 185.51217651367188 175.8799591064453 C 189.20907592773438 169.2007293701172 187.8040771484375 159.0633087158203 182.28033447265625 152.6251678466797 C 176.00091552734375 145.900390625 166.5577392578125 143.58349609375 157.43162536621094 146.88710021972656 C 152.1142578125 148.42652893066406 146.45367431640625 154.04612731933594 144.80853271484375 159.44424438476562 C 142.57188415527344 163.98431396484375 142.79954528808594 171.5859832763672 144.77499389648438 175.3172607421875 C 145.23963928222656 176.83395385742188 146.06097412109375 178.2957763671875 146.2586212158203 179.13624572753906 C 145.8164520263672 179.2191162109375 130.87774658203125 179.14654541015625 112.6016845703125 179.11700439453125 L 77.94017028808594 179.16566467285156 L 80.27104187011719 174.49761962890625 C 83.92404174804688 163.36622619628906 78.0641098022461 150.75341796875 66.95541381835938 146.71949768066406 C 61.87629699707031 144.44068908691406 53.34513854980469 145.14720153808594 48.65068817138672 147.70870971679688 C 43.22461700439453 149.88641357421875 38.94042205810547 155.6700439453125 37.83928680419922 161.4737548828125 C 36.60639953613281 167.5610809326172 36.777099609375 169.3291015625 38.35218811035156 174.27854919433594 L 40.63616943359375 179.65000915527344 L 34.46092987060547 179.37112426757812 L 34.432533264160156 118.5687026977539" stroke-width="1.0" fill="rgb(246, 199, 48)" opacity="0.99004596"/>
    <path d="M 55.477237701416016 183.333251953125 C 47.25361633300781 181.51934814453125 41.08686828613281 172.57997131347656 42.815757751464844 164.87451171875 C 45.62538146972656 150.94012451171875 62.049076080322266 146.32199096679688 71.71922302246094 156.596923828125 C 74.85301208496094 160.3513946533203 75.99359130859375 163.94381713867188 75.47941589355469 170.1844482421875 C 74.54082489013672 178.88555908203125 64.82012176513672 185.41354370117188 55.477237701416016 183.333251953125" stroke-width="1.0" fill="rgb(225, 227, 226)" opacity="0.99557185"/>
    <path d="M 161.33627319335938 183.32730102539062 C 155.377197265625 182.05477905273438 149.89730834960938 176.1038818359375 149.09414672851562 169.5238037109375 C 147.05154418945312 156.86154174804688 160.314208984375 147.22283935546875 172.3903350830078 152.62344360351562 C 180.43023681640625 156.14224243164062 184.00445556640625 165.8042449951172 180.54562377929688 173.98800659179688 C 177.20367431640625 181.04901123046875 168.95022583007812 185.16949462890625 161.33627319335938 183.32730102539062" stroke-width="1.0" fill="rgb(225, 227, 226)" opacity="0.9947606"/>
    <path d="M 46.455101013183594 133.80262756347656 C 41.06243896484375 130.62452697753906 39.6510009765625 127.82096862792969 40.02073669433594 111.64534759521484 C 39.84629821777344 95.93403625488281 40.81871795654297 93.91000366210938 46.25353240966797 90.37474060058594 L 49.68405532836914 89.03414154052734 L 112.98980712890625 88.91455841064453 C 174.99148559570312 88.89875793457031 175.9907684326172 88.3637924194336 178.3017120361328 90.98194885253906 C 179.95254516601562 91.65615844726562 181.90615844726562 93.93102264404297 183.0325469970703 95.87613677978516 C 184.33599853515625 99.40823364257812 184.21484375 100.7846908569336 184.1668701171875 112.04468536376953 C 184.25469970703125 122.97892761230469 184.22421264648438 124.39828491210938 182.95077514648438 127.85655212402344 C 181.93060302734375 129.75303649902344 179.8780517578125 131.9139862060547 178.41983032226562 132.8055877685547 C 175.94322204589844 135.35873413085938 175.0823516845703 134.84742736816406 113.21631622314453 134.8941650390625 C 51.755367279052734 134.79379272460938 50.1525993347168 135.37469482421875 46.455101013183594 133.80262756347656" stroke-width="1.0" fill="rgb(7, 7, 55)" opacity="0.9971971"/>
    <path d="M 49.7252311706543 71.99632263183594 C 41.430641174316406 68.29695892333984 41.54033660888672 54.27094650268555 50.079471588134766 50.50265121459961 C 52.28831100463867 49.02894592285156 62.121463775634766 49.69257736206055 111.8980484008789 49.596492767333984 C 166.6663818359375 49.63559341430664 171.08071899414062 48.98679733276367 174.013427734375 50.346275329589844 C 178.1460418701172 53.33317184448242 179.79502868652344 56.458736419677734 180.14892578125 61.48178482055664 C 180.2703857421875 66.51676940917969 178.5167694091797 69.45621490478516 173.94033813476562 71.79595184326172 C 171.80189514160156 73.30027770996094 166.76589965820312 73.08197021484375 112.1129150390625 72.85650634765625 C 62.87744140625 72.82550048828125 51.60404968261719 73.14375305175781 49.7252311706543 71.99632263183594" stroke-width="1.0" fill="rgb(7, 8, 57)" opacity="0.9957425"/>
    <path d="M 47.734169006347656 127.91946411132812 C 46.41331481933594 126.4244155883789 45.98832702636719 123.92776489257812 46.12098693847656 111.86898040771484 C 45.907691955566406 93.74880981445312 45.597503662109375 94.5977783203125 58.38545608520508 94.65876770019531 C 65.66470336914062 94.55200958251953 68.10249328613281 94.95145416259766 68.93226623535156 96.2423324584961 C 70.05452728271484 96.29174041748047 69.78280639648438 101.86170959472656 70.00314331054688 113.12443542480469 L 69.83306121826172 128.86016845703125 L 59.06815719604492 129.17405700683594 C 50.70121383666992 128.9906005859375 48.50885772705078 129.16424560546875 47.734169006347656 127.91946411132812" stroke-width="1.0" fill="rgb(236, 237, 237)" opacity="0.99771243"/>
    <path d="M 76.68973541259766 128.4292755126953 C 76.77830505371094 127.39337921142578 76.95475769042969 119.57978820800781 76.87169647216797 110.79962921142578 L 77.0985107421875 94.74995422363281 L 107.39080810546875 95.2279281616211 L 107.43128204345703 129.07525634765625 L 92.44429016113281 128.97537231445312 C 80.75328063964844 129.01602172851562 77.41442108154297 129.09703063964844 76.68973541259766 128.4292755126953" stroke-width="1.0" fill="rgb(236, 237, 237)" opacity="0.99472237"/>
    <path d="M 115.79408264160156 112.15193939208984 L 116.08560180664062 94.87120819091797 L 130.97715759277344 94.89521026611328 C 144.1738739013672 94.66778564453125 146.37631225585938 94.78254699707031 146.90916442871094 96.02912139892578 C 147.28506469726562 98.10384368896484 147.3588104248047 126.19230651855469 147.06170654296875 127.84677124023438 C 146.34185791015625 129.03773498535156 144.01638793945312 129.21664428710938 130.9967041015625 128.90829467773438 L 116.11336517333984 129.05303955078125 L 115.79408264160156 112.15193939208984" stroke-width="1.0" fill="rgb(235, 236, 235)" opacity="0.99521285"/>
    <path d="M 154.3004150390625 127.82090759277344 C 153.80299377441406 125.31288146972656 153.76095581054688 96.82316589355469 154.32037353515625 95.76958465576172 C 155.73165893554688 94.95982360839844 158.84817504882812 94.81864929199219 165.25241088867188 94.93946075439453 C 174.32203674316406 94.61143493652344 174.2363739013672 94.79856872558594 176.26271057128906 96.95616149902344 C 178.0010986328125 98.72823333740234 178.0234375 100.1401596069336 177.82861328125 112.03977966308594 C 178.1689453125 129.8315887451172 178.80203247070312 129.0486297607422 165.27145385742188 129.05795288085938 C 156.88343811035156 129.23782348632812 155.22793579101562 129.163818359375 154.3004150390625 127.82090759277344" stroke-width="1.0" fill="rgb(235, 237, 236)" opacity="0.99649864"/>
    <path d="M 50.342811584472656 65.2870101928711 C 48.707275390625 62.95374298095703 49.03108215332031 58.46501159667969 51.016090393066406 56.904048919677734 C 52.10091018676758 55.62892532348633 53.43605041503906 55.625038146972656 61.0418701171875 55.766361236572266 L 70.68618774414062 55.91749954223633 L 70.39715576171875 66.85353088378906 L 61.05127716064453 67.08707427978516 C 52.1839714050293 67.24908447265625 51.12400436401367 67.0489501953125 50.342811584472656 65.2870101928711" stroke-width="1.0" fill="rgb(236, 237, 238)" opacity="0.99572116"/>
    <path d="M 78.97570037841797 65.7677001953125 C 78.34333801269531 65.12602233886719 78.26936340332031 62.9029426574707 78.51428985595703 60.78943634033203 L 78.72975158691406 55.956214904785156 L 92.06877136230469 55.90270233154297 C 99.91876983642578 55.902198791503906 104.76502990722656 55.6650390625 105.81023406982422 56.42629623413086 C 106.95276641845703 57.5308952331543 106.76934814453125 62.515480041503906 106.10508728027344 65.27040100097656 C 105.4509048461914 67.07020568847656 104.2049560546875 67.18653869628906 92.21159362792969 66.94642639160156 C 81.69879913330078 67.16938018798828 78.98138427734375 66.91390991210938 78.97570037841797 65.7677001953125" stroke-width="1.0" fill="rgb(237, 237, 239)" opacity="0.9976542"/>
    <path d="M 118.3857421875 65.73919677734375 C 117.49871063232422 65.26690673828125 117.45069885253906 63.17403030395508 117.94881439208984 61.014774322509766 L 118.41835021972656 55.62765884399414 L 144.93988037109375 55.61543655395508 L 144.3136749267578 66.94644165039062 L 132.3894500732422 67.13780212402344 C 121.90939331054688 67.13493347167969 119.3857192993164 67.13361358642578 118.3857421875 65.73919677734375" stroke-width="1.0" fill="rgb(236, 238, 239)" opacity="0.9982535"/>
    <path d="M 153.44662475585938 65.4796142578125 C 153.037353515625 65.17236328125 152.89295959472656 62.67600631713867 152.7723846435547 60.37670135498047 L 153.47592163085938 56.01933670043945 L 162.96343994140625 55.66960525512695 C 173.44204711914062 55.41935348510742 174.54013061523438 56.10258102416992 174.49264526367188 61.37660598754883 C 174.19395446777344 66.49078369140625 173.18898010253906 67.25397491455078 162.6692352294922 67.04705810546875 C 155.4712371826172 67.14025115966797 153.43301391601562 66.66459655761719 153.44662475585938 65.4796142578125" stroke-width="1.0" fill="rgb(236, 238, 238)" opacity="0.9975032"/>
  </g>
</svg>
