<?xml version="1.0" ?>
<svg xmlns="http://www.w3.org/2000/svg" version="1.1" width="224" height="224">
  <defs/>
  <g>
    <path d="M 59.364139556884766 192.71209716796875 C 57.09181213378906 190.47698974609375 56.05741882324219 188.38986206054688 55.657649993896484 185.55709838867188 C 55.28694152832031 183.3599395751953 53.33152389526367 155.36337280273438 51.0035400390625 123.4104995727539 C 46.15324401855469 59.53237533569336 45.597511291503906 62.36894989013672 52.15403366088867 57.9284553527832 C 54.59174728393555 56.499656677246094 56.92646026611328 55.637115478515625 59.3935546875 55.717620849609375 C 63.36027526855469 55.835201263427734 63.72122573852539 55.923118591308594 64.04733276367188 52.197837829589844 C 68.92817687988281 33.770751953125 92.33819580078125 28.0 105.31534576416016 42.13219451904297 C 107.07627868652344 44.13859558105469 109.2411117553711 47.748619079589844 110.14404296875 50.03288269042969 C 110.78621673583984 52.71432876586914 111.31250762939453 55.15594482421875 111.66255950927734 55.90800857543945 C 112.28199768066406 55.360008239746094 113.30422973632812 53.20375442504883 113.9863510131836 50.49753952026367 C 117.91875457763672 40.54743957519531 126.79988861083984 34.38268280029297 137.15310668945312 34.36407470703125 C 147.87289428710938 34.18865203857422 156.6805419921875 40.64708709716797 159.9369354248047 51.00569534301758 C 161.12179565429688 56.03994369506836 161.199462890625 56.13996124267578 165.2609405517578 55.80360412597656 C 170.4538116455078 55.33230972290039 175.06298828125 57.98332595825195 176.98521423339844 62.05644226074219 C 178.40249633789062 65.59599304199219 178.26129150390625 66.55164337158203 176.63461303710938 87.8828125 C 175.50253295898438 100.45980072021484 174.2423095703125 122.07183074951172 173.0120849609375 136.30197143554688 C 169.31459045410156 184.43991088867188 169.65077209472656 187.47955322265625 167.32154846191406 189.89039611816406 C 164.5393829345703 196.0 165.48980712890625 195.42369079589844 111.6927719116211 195.4842529296875 L 62.61898422241211 195.34634399414062 L 59.364139556884766 192.71209716796875" stroke-width="1.0" fill="rgb(22, 23, 74)" opacity="0.999296"/>
    <path d="M 69.59235382080078 55.79779052734375 C 69.17109680175781 53.67764663696289 73.15243530273438 46.834774017333984 76.05643463134766 44.65461730957031 C 80.60572814941406 40.81232452392578 90.73377990722656 39.99913787841797 95.75558471679688 42.97637939453125 C 99.51351928710938 45.0118522644043 103.89053344726562 50.29079818725586 104.83260345458984 53.730674743652344 L 105.5587387084961 55.902313232421875 L 87.69091796875 55.793155670166016 C 77.65353393554688 55.982582092285156 69.42138671875 55.843482971191406 69.59235382080078 55.79779052734375" stroke-width="1.0" fill="rgb(247, 194, 32)" opacity="0.9965428"/>
    <path d="M 119.6070785522461 53.55683135986328 C 120.0523910522461 52.342857360839844 121.30986022949219 49.99446487426758 122.4539794921875 48.136756896972656 C 128.24363708496094 39.815834045410156 142.49818420410156 38.45189666748047 149.38601684570312 45.528072357177734 C 151.260498046875 47.62607955932617 154.8617401123047 54.156368255615234 154.79861450195312 55.66665267944336 C 155.18524169921875 55.846763610839844 146.84619140625 55.972984313964844 136.7582550048828 55.93586730957031 L 118.7890396118164 55.96656799316406 L 119.6070785522461 53.55683135986328" stroke-width="1.0" fill="rgb(248, 193, 31)" opacity="0.99597657"/>
    <path d="M 73.90901947021484 113.46835327148438 L 56.89839553833008 112.61560821533203 L 56.11128234863281 107.07379150390625 C 55.536563873291016 103.34556579589844 55.112220764160156 92.42963409423828 54.40314483642578 82.65129852294922 C 52.74931716918945 66.37539672851562 52.620506286621094 64.99901580810547 54.44470977783203 63.789249420166016 C 56.46703338623047 62.35013961791992 60.22177505493164 62.55899429321289 112.77375793457031 62.40769958496094 C 164.48330688476562 62.06343460083008 169.58560180664062 61.825599670410156 170.71153259277344 63.79060363769531 C 172.7217254638672 64.95497131347656 172.31573486328125 66.9931411743164 170.08279418945312 88.26292419433594 C 169.47457885742188 101.1537857055664 168.46316528320312 111.8318862915039 168.15200805664062 112.82965850830078 C 167.7562255859375 113.57649993896484 96.31224060058594 114.17659759521484 73.90901947021484 113.46835327148438" stroke-width="0.0" fill="rgb(216, 16, 25)" opacity="0.9945251"/>
    <path d="M 60.26978302001953 164.9693603515625 C 60.103004455566406 163.35452270507812 58.615238189697266 138.33241271972656 57.502723693847656 125.44276428222656 L 56.264522552490234 112.81642150878906 L 111.04608154296875 112.64253997802734 C 159.22122192382812 112.80730438232422 166.62930297851562 112.53986358642578 168.26641845703125 112.68697357177734 C 168.40164184570312 115.99473571777344 167.61285400390625 120.22962188720703 166.26583862304688 137.2230987548828 C 165.68153381347656 149.9432830810547 164.69517517089844 160.8533935546875 164.46707153320312 161.38002014160156 L 163.82379150390625 165.84619140625 L 112.51970672607422 166.97955322265625 C 78.88536071777344 166.239990234375 60.34901428222656 165.6553955078125 60.26978302001953 164.9693603515625" stroke-width="0.0" fill="rgb(242, 226, 207)" opacity="0.99616104"/>
    <path d="M 62.97159194946289 187.93955993652344 C 61.88901138305664 186.03103637695312 60.5914421081543 175.08255004882812 60.49821472167969 167.43759155273438 L 60.320106506347656 163.03887939453125 L 164.729248046875 163.02633666992188 L 163.85923767089844 171.97378540039062 C 163.60177612304688 182.32861328125 163.27789306640625 186.00596618652344 161.9004364013672 188.1584930419922 C 160.7887725830078 189.125732421875 151.16531372070312 189.04727172851562 112.6688461303711 188.90040588378906 C 69.80450439453125 189.03076171875 63.84502029418945 189.1002197265625 62.97159194946289 187.93955993652344" stroke-width="1.0" fill="rgb(216, 17, 24)" opacity="0.99037635"/>
    <path d="M 85.15138244628906 157.56948852539062 C 83.65274810791016 156.2781219482422 86.21658325195312 133.2204132080078 88.97871398925781 119.1067123413086 C 92.01191711425781 104.17079162597656 99.72943115234375 97.26786041259766 112.28365325927734 97.24508666992188 C 122.4296875 97.45838928222656 129.2887725830078 102.09931182861328 133.44390869140625 111.44915771484375 C 136.67575073242188 119.34522247314453 141.18426513671875 154.74037170410156 139.1776123046875 156.9381866455078 C 137.9544677734375 158.033203125 133.76608276367188 158.359375 112.02415466308594 158.18002319335938 C 97.38689422607422 158.4625244140625 85.4315185546875 158.04623413085938 85.15138244628906 157.56948852539062" stroke-width="1.0" fill="rgb(22, 24, 76)" opacity="0.9950572"/>
    <path d="M 91.22189331054688 146.2643280029297 C 91.52629852294922 143.55258178710938 92.0242691040039 140.46298217773438 92.05497741699219 139.57711791992188 C 92.06568145751953 134.74237060546875 93.88084411621094 134.25283813476562 112.3817138671875 134.37510681152344 C 131.85768127441406 134.16514587402344 131.95223999023438 134.14146423339844 132.67030334472656 141.73924255371094 C 133.09225463867188 144.1179656982422 133.42991638183594 147.162841796875 133.77572631835938 148.63160705566406 L 134.1799774169922 152.18988037109375 L 90.54653930664062 151.97097778320312 L 91.22189331054688 146.2643280029297" stroke-width="1.0" fill="rgb(250, 193, 33)" opacity="0.99697304"/>
    <path d="M 94.2237548828125 124.30278015136719 C 96.38858032226562 109.42273712158203 102.46710205078125 103.20935821533203 113.63450622558594 103.70791625976562 C 117.48135375976562 104.00828552246094 120.30489349365234 104.83496856689453 122.10494232177734 106.48169708251953 C 125.69011688232422 109.12529754638672 129.47738647460938 116.62529754638672 130.3839111328125 123.46308898925781 L 131.52499389648438 128.4521026611328 L 93.50716400146484 128.29322814941406 L 94.2237548828125 124.30278015136719" stroke-width="1.0" fill="rgb(249, 193, 32)" opacity="0.993782"/>
  </g>
</svg>
