<?xml version="1.0" encoding="UTF-8"?>
<svg xmlns="http://www.w3.org/2000/svg" version="1.1" viewBox="0 0 224 224">
  <defs>
    <style>
      .cls-1 {
        fill: #f52e13;
        opacity: 1;
      }

      .cls-1, .cls-2, .cls-3, .cls-4, .cls-5, .cls-6, .cls-7, .cls-8, .cls-9, .cls-10, .cls-11, .cls-12, .cls-13, .cls-14, .cls-15, .cls-16, .cls-17, .cls-18 {
        isolation: isolate;
      }

      .cls-19 {
        fill: #22204c;
      }

      .cls-20 {
        fill: #f8e7d3;
      }

      .cls-2 {
        fill: #f42d14;
        opacity: 1;
      }

      .cls-3 {
        fill: #f52e16;
        opacity: 1;
      }

      .cls-4 {
        opacity: 1;
      }

      .cls-4, .cls-5, .cls-6, .cls-7, .cls-8 {
        fill: #f52e15;
      }

      .cls-5 {
        opacity: 1;
      }

      .cls-6 {
        opacity: 1;
      }

      .cls-7 {
        opacity: 1;
      }

      .cls-8 {
        opacity: 1;
      }

      .cls-9 {
        opacity: 1;
      }

      .cls-9, .cls-10 {
        fill: #f42e16;
      }

      .cls-10 {
        opacity: 1;
      }

      .cls-21 {
        fill: #ebb921;
      }

      .cls-11 {
        opacity: 1;
      }

      .cls-11, .cls-12 {
        fill: #f52e14;
      }

      .cls-12 {
        opacity: 1;
      }

      .cls-13 {
        opacity: 1;
      }

      .cls-13, .cls-14, .cls-15, .cls-16, .cls-17 {
        fill: #f42e15;
      }

      .cls-14 {
        opacity: 1;
      }

      .cls-15 {
        opacity: 1;
      }

      .cls-16 {
        opacity: 1;
      }

      .cls-17 {
        opacity: 1;
      }

      .cls-18 {
        fill: #f42e14;
        opacity: 1;
      }
    </style>
  </defs>
  <!-- Generator: Adobe Illustrator 28.6.0, SVG Export Plug-In . SVG Version: 1.2.0 Build 709)  -->
  <g>
    <g id="_图层_1" data-name="图层_1">
      <g>
        <path class="cls-19" d="M94.6,193.9c-31.5-6.9-55.4-31.1-62.2-63.4-2-7.7-1.8-23.1.2-31.9,3.9-19.3,14.7-36.5,28.2-47.7,23.4-18.4,56.2-23,84.3-10.6,22.8,9.5,40.4,31.7,45.8,58,2.6,11.1,2,25.5-1.1,37-7.8,29.6-31.6,52.5-61.1,58.6-9.3,2.1-25.1,2.1-34.1,0"/>
        <path class="cls-11" d="M100.8,190.1c0-.9.6-3.8,1.9-9l2-9.2,13.9.2,1.9,8.9c1.2,5.8,1.8,8.3,1.9,8.9-1.9,1-19.6,1-21.6.1"/>
        <path class="cls-17" d="M92.4,188.4c-7.5-2-14.6-5-14.3-5.5.6-1.5,7.9-15.9,8.4-15.8-.3.3,2.9,1.2,6.2,1.6,7.9,3.8,7.3,2.9,4.6,13.9-1,6.7-.6,7.1-4.9,5.8"/>
        <path class="cls-7" d="M127.2,188.1c-.4-1.1-3.3-13.2-3.3-15,0-1,1.6-1.5,6.6-3.3,2.8-.5,6-1.4,6.5-2.5.2,0,7.8,14.6,8,16.2.8.2-12.2,5-15.6,5.7-1.5.3-3,0-2.1-1"/>
        <path class="cls-15" d="M68.7,177.5c-4.8-3.1-13.3-11.2-13.1-11.9.5-.9,12.4-9.9,13.3-10.5-.2.3,1.1,1.2,1.6,2.1.8,1.1,3.7,3.4,6.6,4.8,2.4,2.2,4.6,3.7,4.1,3.4-.2,1.3-6.8,14.1-7.5,14.8-.4,0-2.5-1-5.1-2.6"/>
        <path class="cls-1" d="M145.1,172.5l-3.8-7.4,2.5-.6c1.2-.6,4.3-2.8,6.6-5.4,2.5-1.4,4.5-3,4.3-3.6.8.3,12.7,9.5,13.1,10.2.6,1.9-15.5,14.8-18.2,15-.5-1.2-2.7-4-4.5-8.1"/>
        <path class="cls-6" d="M48.4,156.9c-4-5.9-7.1-12.4-6.7-13.7,1-.6,13.4-5.2,15.4-5.5.1-.1,1.5,2.2,3.2,5.3,1,2.6,2.8,5.7,3.9,7.2l1.9,1.4-4.5,3.2c-2.1,1.6-5.2,3.9-6.7,4.7l-3.1,2.3-3.3-4.8"/>
        <path class="cls-12" d="M165.5,157.2c-8.3-6.7-8.1-4.9-5.7-10.1,2.5-2.5,4.3-6,4.7-7.2.3-1.9,1.1-2.9,1.6-2.7.4,0,3.8,1.3,7.6,2.9,3.7,1.1,7.1,2.5,8,3.1.6,1.4-5.6,13.3-8.6,16.5l-1.8,1.9-5.8-4.3"/>
        <path class="cls-2" d="M38,132.7c-1-3.1-1.5-8.1-1.7-11.3l-.2-4.7h17.9s.5,2.1.5,2.1c0,1.9.5,5.4,1.2,7.5,0,3,.2,5.6.6,5.9.1.5-14.7,5.4-16.9,5.8,0,.3-.6-2.4-1.5-5.3"/>
        <path class="cls-13" d="M174.2,135.3c-4-1.4-7.1-2.5-7.4-2.3.4.2.8-2.7.9-5.7.9-2.7,1.3-6.5.8-8.2l.3-2.4h18.4c0,0,.2,4,.2,4-.9,8.7-2.8,16.9-4.1,17.5-1.3-.4-5.1-1.4-9.1-3"/>
        <path class="cls-16" d="M36.3,107.8c.3-4.9,3.1-17.7,4.1-17.9.3,0,15.6,5.1,16.3,5.9.2,0-.2,2.4-.4,5.2-1,2.9-1.5,6.3-1.2,8.1v2.5c-.1,0-19.3,0-19.3,0l.4-3.7"/>
        <path class="cls-18" d="M168.2,109.6c.3-1.4-.1-4.9-1.1-7.9,0-3.3-.3-5.9,0-6.3.4,0,4-1.3,8.2-2.8,5.2-2,7.6-2.6,8.2-2.6.8,1.6,3.4,12.7,3.7,18.7v2.7s-18.9.1-18.9.1l-.2-2"/>
        <path class="cls-10" d="M50.4,88.1c-6.4-1.8-7.7-2.1-8.2-2.9.8-2.9,4.9-11.2,7.8-15.1l2.3-3.3,5.3,4.1c8.5,6.4,8.8,4.8,5.3,12.6-3.1,3.8-4.9,7.1-5.1,7.4,0,.6-3.2-.8-7.4-2.7"/>
        <path class="cls-9" d="M164.5,88.2c-.5-1.3-2.2-4.7-4.6-7.1-.7-2.5-1.9-4.6-2-4,0-.6,12.2-9.8,13.4-10.2.5-.6,6.1,8.6,8.4,13.8,2.3,5.5,2.5,4.5-6.3,7.6-3.4,1.1-6.4,2.4-7,2.5-.7.7-1.7,0-1.9-2.5"/>
        <path class="cls-14" d="M62.5,68.4c-2.9-2.4-5.8-4.7-6.6-4.7-1.6-1.5,14.8-15.4,18-15.3.7,1,7.4,13.5,7.5,15.3.2-.6-.7.5-2.2.9-1.3.6-4.4,2.9-6.3,5.7l-3.7,2.9-6.7-4.8"/>
        <path class="cls-3" d="M152.7,71.2c-1.1-1.3-3.8-3.5-6.6-4.7-2-2-3.7-3.5-4.2-3.1.3-1.8,7-14.4,7.8-15,3,0,17.9,12.2,17.8,14.6-.6.7-9,7.2-12.7,9.5-.2.4-1.1-.2-2.1-1.2"/>
        <path class="cls-5" d="M85.2,59.3c-1.6-2.3-6.4-12.2-6.9-13-.3-1,12.3-5.5,15.8-6.1l2.5.3,1.2,8c1,3.8,1.7,7.1,1.4,7.2.1.3-3,1.7-7,4.1l-6,1.4-1-1.9"/>
        <path class="cls-4" d="M131,59.1l-7.5-2.9,1.6-7c1.1-4.4,1.8-8.1,1.8-8.8,1-1.3,18,4.3,18,5.6-.9,1.8-7.6,15.5-8,14.9.9-.1-2.7-1.1-5.9-1.8"/>
        <path class="cls-8" d="M104.5,54.9c-1-3.7-3.3-14.6-3.2-15.6.5-1,19.9-1,20.9,0,0,.6-.1,2.1-.9,4.1-.2,1.8-.9,5.2-1.7,7.8l-1,4.9-7,1.1c-5.1-1.4-7.1-1.8-7.1-2.3"/>
        <path class="cls-20" d="M104.7,173c0-1.7,1.1-7.3,2.1-13l2.1-10.2,3.5.5c1.2-.5,2.5-.8,1.8-.8.2.6,1.2,5.4,2.3,11.2,1.2,5.9,2.1,11.4,2.1,12.6,0,.9-1.3.8-7.7.7-6.6,0-6.6.3-6.3-.9"/>
        <path class="cls-20" d="M93,171c-3-1-5.7-2.5-7.1-3.1,0-.6,9.6-18.3,11.5-20.8,1.2-.3,7.3,2.1,6.6,2.7-.3,1.1-1.2,6.2-2.4,12.1-1,5.7-1.9,10.7-1.9,11.1-.7-.3-3.5-1.1-6.7-2.1"/>
        <path class="cls-20" d="M123.6,173s-.9-4.9-1.8-10.8c-1.1-6.1-2.2-11.4-2.3-12.3.5-.7,1.7-1.5,3.4-1.6,1.6-.6,3.1-1.3,3.2-1.1.2.3,9.5,17.2,10.5,19.3,1.3,1.8.5,2.1-1.8,3-2.7,1.2-11.2,3.7-11.2,3.6"/>
        <path class="cls-20" d="M74.6,161.4c-2.9-2.3-5.6-4.5-6.4-5.2-.1-.8,4.2-4.4,9.4-8.2,10.1-7.9,8.7-8.2,13.4-3.6,2.8.2,1.2,1.5-3.9,11.1-3,5.4-5.6,10.1-6,10.3-.6-.3-3.6-2.1-6.5-4.4"/>
        <path class="cls-20" d="M136.4,156c-3.2-5.2-5.8-10.1-5.9-10.9.8-.9,5.5-4.4,6.2-4.1,1,1.1,5.5,4.1,10.1,7.8l8.4,6.8-2.9,3.1c-1.9,2.4-9.2,7.2-10.3,7.2-.2,0-2.8-4.5-5.6-9.9"/>
        <path class="cls-20" d="M62.5,148.5c-3.4-5.8-5.4-10.6-5.2-11.5,1.1-.3,20.4-6.5,22-6.9.2.2,1,2,2.2,3.8l2.3,3.3-2,1.5c-.6,1.1-2.2,2.2-3.1,2.7-3.2,2.7-13.1,10.6-13.6,10.4-.2,0-1.3-1.6-2.5-3.4"/>
        <path class="cls-20" d="M149,145c-4.7-4-9-7.3-9.1-7.8.2-.7,1.1-2,2.4-3.4.7-1.9,1.5-3.1,1.6-3.7.2,0,21.8,7,22.1,6.9-.3,2.4-4.6,10.7-6.4,12.7l-1.5,2.4-9.2-7.1"/>
        <path class="cls-21" d="M102.7,144c-13.3-4.1-20.8-13.9-21.8-27-.5-10,3-18.8,9.9-25.3,4.9-3.9,9.2-6.2,16.2-7.3,13.6-2.4,28.1,4.9,33.4,17.4,1.7,4.4,2.3,5.7,2.8,13.2-.5,7.3-1.2,8.5-2.7,12.4-3.3,6.8-7.4,11.2-14.1,14.4-5.5,2.4-6.7,2.6-13.1,3.3-4.5.2-8.6-.3-10.5-1.1"/>
        <path class="cls-20" d="M54.4,127.5c-.5-2.7-1-6.3-1.1-8l-.3-2.8h10.8c6.6,0,12.3,0,12.4,0,.1.7.3,2.5.5,4.5l1.1,4.4-10.3,3.4c-5.8,1.8-11,3.6-11.2,3.8-.6,0-1.4-2-1.8-5.2"/>
        <path class="cls-20" d="M156.5,129.2l-10.5-3.6,1-4.6c.5-1.4.6-3.3.8-4.3-.1-.3,5.5,0,11.3,0h11.6c0,0-.4,3-.4,3,0,3.3-1.6,12-2.5,12.8-.4.4-5.4-1.5-11.3-3.4"/>
        <path class="cls-20" d="M53.8,106.4c.2-3,1-6.4,1.3-7.7l.6-3.5,8.1,2.9c13.7,4.9,14.5,5,13.9,6.1-.2,1.3-.8,3.2-.8,4.2l-.6,3h-23.3s.7-5,.7-5"/>
        <path class="cls-20" d="M147.1,107.8c-.8-2.5-1.4-4.6-1.4-4.7,1.1-.4,6-2.2,11.6-4.1l10.2-3.7.8,2.9c.2,1.7,1,4.9,1.6,7.6l.5,5.7h-22.9c0,0-.5-3.6-.5-3.6"/>
        <path class="cls-20" d="M68.6,94.7c-6.9-2.5-11.2-3.7-10.9-4.2.3-.9,1.7-4.5,3.5-8,3.1-5.4,3.6-6.8,5-5.3,9.2,7.2,17.1,13.9,17.9,14.7-.7,1.1-4.1,6.6-4.5,7-.4-.4-5.6-1.9-11.1-4.3"/>
        <path class="cls-20" d="M77.4,80.5l-9.3-7.8,2.4-2c.9-1.1,3.7-3.4,6.1-4.7l4.7-3.5,5.7,10.4c3,5.8,5.7,10.9,5.9,11.2-.4.8-4.7,3.5-6,3.9-.5,0-4.8-3.6-9.6-7.6"/>
        <path class="cls-20" d="M96.1,79.3c-3.2-5.2-9.9-17.6-10.2-18.8.1-.5,13.1-4.9,13.6-4.5.4.9,4.5,23.9,4.7,24.6-1.2,0-2.8.5-4,.9-2.3,1.1-3.1.8-4.1-2.3"/>
        <path class="cls-20" d="M122.6,80.6c-2.5.4-2.9-.2-3.3-1.4.6-2.5,4-22.8,4.6-23.5.3,0,13.4,4,13.8,4.7-.4.1-2.8,5.3-6.1,11.1-6,11-5.5,11.9-9.1,9.1"/>
        <path class="cls-20" d="M108.7,78.7c.1-.2-4-22.5-4.1-23.6.1-.2,3.4-.2,7.1-.1l7.3.3-1.8,8.9c-.9,5.1-1.8,10.7-2.1,12.4,0,2.3-.2,2.6-3.4,2.4-1.1.3-2.6,0-3-.4"/>
        <path class="cls-20" d="M142.2,95.4c-1.3-1.4-2.2-2.8-2.4-3.1.5-1,16.8-14.8,18.3-15.6,1,.4,7.6,12.1,7.6,14.1.2.2-4.7,1.8-10.1,3.9-5.6,2-10.6,3.7-11,4.3-.7-.4-1.6-1.8-2.4-3.5"/>
        <path class="cls-20" d="M133.2,86.2l-3-2.3,4.6-7.9c6.5-12.1,7-13,7.7-13.2,1.5.5,10.2,6.7,12.1,9,1.2.9-.9,1.9-8.6,8.5-4.9,4.2-9,7.9-9.5,8-.5-.2-1.8-1.2-3.3-2.1"/>
      </g>
    </g>
  </g>
</svg>