<?xml version="1.0" encoding="UTF-8"?>
<svg xmlns="http://www.w3.org/2000/svg" version="1.1" viewBox="0 0 224 224">
  <defs>
    <style>
      .cls-1 {
        opacity: 1;
      }

      .cls-1, .cls-2, .cls-3 {
        fill: #f4b821;
      }

      .cls-1, .cls-2, .cls-3, .cls-4, .cls-5, .cls-6, .cls-7, .cls-8, .cls-9, .cls-10, .cls-11, .cls-12, .cls-13 {
        isolation: isolate;
      }

      .cls-2 {
        opacity: 1;
      }

      .cls-3 {
        opacity: 1;
      }

      .cls-4 {
        fill: #010b39;
        opacity: 1;
      }

      .cls-14 {
        fill: #f8e7d3;
      }

      .cls-5 {
        opacity: 1;
      }

      .cls-5, .cls-6 {
        fill: #f4b820;
      }

      .cls-6 {
        opacity: 1;
      }

      .cls-7 {
        opacity: 1;
      }

      .cls-7, .cls-8, .cls-9 {
        fill: #f3b921;
      }

      .cls-8 {
        opacity: 1;
      }

      .cls-9 {
        opacity: 1;
      }

      .cls-10 {
        fill: #f4b721;
        opacity: 1;
      }

      .cls-15 {
        fill: #ee2829;
      }

      .cls-16 {
        fill: #22204d;
      }

      .cls-11 {
        opacity: 1;
      }

      .cls-11, .cls-12 {
        fill: #f3b820;
      }

      .cls-12 {
        opacity: 1;
      }

      .cls-13 {
        fill: #f4b921;
        opacity: 1;
      }
    </style>
  </defs>
  <!-- Generator: Adobe Illustrator 28.6.0, SVG Export Plug-In . SVG Version: 1.2.0 Build 709)  -->
  <g>
    <g id="_图层_1" data-name="图层_1">
      <g>
        <path class="cls-16" d="M97.5,192.1c-33.5-6-58-28.5-66.4-61-2.6-9-3.1-24.8-.9-34.4,1.7-10.9,7.5-24.5,13.3-33.2,3.1-5.2,11.8-14.3,17.6-17.8,14-10.9,34.6-17.1,53.9-16.3,20.5,1.3,38,8.6,52.2,21.7,14.5,13.3,23.4,32.3,25.7,53.3,3,32.5-15.2,65.8-45.1,80.1-15.3,7.4-34.8,11.1-50.4,7.7"/>
        <path class="cls-14" d="M102.9,141.1c-18.1-4.3-27.9-23-21.2-41.1,3.3-9.1,9.6-15,18.6-18.4,23.5-7.7,45.6,11,41.2,35-1.7,10.2-7.9,18.2-17.1,22.6-4.2,1.9-6.3,2.1-11.9,2.6-3.5.3-7.8-.3-9.6-.8"/>
        <path class="cls-15" d="M77.9,180.6c-2-1.9-1.8-3.1,2.6-11.2,2.3-5.1,4.1-5.9,7.3-3.5,1.9,1.4,1.6,3.3-1.6,10.1-2.8,7.1-4.3,7.5-8.3,4.6"/>
        <path class="cls-15" d="M137.9,181.2c-.4-.6-1.7-3.9-3.2-7.2-2.3-4.8-2.5-6.5-1.2-7.5.7-1.3,1.4-1.8,3.1-1.6,2.1,0,2.9,1.2,5.9,7l3,6.5-1.6,2.1c-2.3,1.5-4.6,1.8-5.9.6"/>
        <path class="cls-1" d="M101.2,164.5c-3-.6-3.3-1.7-1-7.6,2.6-7.8,5.1-10.8,8.7-11.2,4.9-.9,8.2,1,10.5,6.1,2.9,7.1,4.3,11,2.8,12.1-.7,1.6-17.4,2-21,.5"/>
        <path class="cls-8" d="M85.3,159.6c-6.7-3.5-10.9-6.9-10.9-8.5-.1-1.5,6.1-7.3,10-9.1,4.2-2,8.6-1.9,10.9.5,1.6,2,1.9,2.8,2.1,6-.4,2.4-1.8,6-2.9,8.7-1.7,5.9-3,5.9-9.3,2.4"/>
        <path class="cls-6" d="M127.6,159.2c-2.5-5.9-4.2-11.3-3.3-13.4,3-7.3,12.3-6.8,19.9,1.2,2.1,1.9,3.2,3.4,2.6,4.3-.8,2.9-13.2,10.5-16.7,10.5-1.3.1-1.9-.8-2.5-2.7"/>
        <path class="cls-9" d="M65.5,142.7c-1.8-2.2-3.6-5.8-4.7-8.2l-1.4-4.2,1.3-1.4c3-1.7,13.6-4.5,16.6-3.4,3.1,1,5.2,5.2,4.3,8.6-.2,3-10.2,12.7-12.3,12.7-.7-.1-2.3-1.9-3.8-4.2"/>
        <path class="cls-3" d="M146.7,142.5c-5.8-5.2-7.5-8.3-6.2-12.3,1.4-4.4,4.6-5.8,10.8-4.4,7.1,1.5,11.1,3.2,10.8,4.7,0,2.1-5.2,12.1-7.4,14.5-.9,1.1-2.2,2-2.8,2.1-.7-.2-3-2-5.3-4.5"/>
        <path class="cls-2" d="M57.6,122.5c-1.7-1.4-2.1-16.1-.7-20.2.7-3.4,2.8-3.8,9.1-1.7,8.1,2,11.8,7.5,10,13.3-1.2,3.5-3.6,5.7-9,7.5-6.7,2.2-8.3,2.4-9.3,1.1"/>
        <path class="cls-11" d="M156.7,122c-7.9-2.2-11.1-5.4-11.1-10.5.2-4.9,2.7-8.1,8.1-9.9,2.6-.9,6-1.8,7.6-2.1,2.7-.3,3.1,0,3.8,1.6,1.1,2.4,1.2,16.2-.3,20-.5,2.7-3.3,3.1-8.1.9"/>
        <path class="cls-10" d="M69.4,96.4c-6.4-1.4-9.8-2.9-9.5-4.4-.2-3.2,7.3-17,9-16.8,1.7-.1,10.7,8.5,11.9,11.4,3.3,7.5-2.2,12.6-11.5,9.8"/>
        <path class="cls-12" d="M143.3,96.4c-1.1-.7-2.5-2.4-2.9-3.6-.6-2.5-.5-3.5.7-6.3,1.8-3.3,10-11.5,11.7-11.2,1.8-.4,9.5,13.4,9.4,16.4-.3,1.7-1.2,2.3-5.4,3.5-7.5,2.3-10.7,2.6-13.4,1.2"/>
        <path class="cls-7" d="M83.5,80.1c-4-2.5-9.1-7.1-9.2-8.9,0-1.7,4.8-5.5,11.1-8.7,5.2-2.6,7.2-3,8.1-1.1,2.7,6.6,4.7,12.7,3.9,14.7-1,5.4-8.4,7.5-13.8,4"/>
        <path class="cls-5" d="M126.1,79.6c-1.1-1.1-1.9-3.2-1.8-4.5-.1-3.5,4.1-14.7,5.3-14.9,3.5-.7,17.8,8.2,17.7,10.9.2,1.8-3.5,5.5-8.3,8.6-4.2,3-9.5,3-12.8,0"/>
        <path class="cls-13" d="M104.9,74.4c-2.6-2.5-7.3-15-6-15.7,1-1.7,17.3-2.2,21.5-.8,3.5,0,3.6,1.3.6,8.6-2.3,7.2-5.3,10-10.4,10.2-2.8-.2-4.2-.8-5.6-2.3"/>
        <path class="cls-15" d="M79.9,50.9c-4.3-7.3-3.4-9.4.9-10.2,2.5-.8,3.2-.4,6.3,7.4,2.6,5.8,2.7,6.4,1.3,7.8-3.4,2.9-4.9,2.2-8.5-5"/>
        <path class="cls-15" d="M133.6,55.9c-1.6-1.4-1.6-1.9,1.4-8.5,2.9-6.4,3.3-7.2,5.4-6.9,5.1.4,5.9,3.4,1.2,11-2.7,6.5-4.5,7.1-8,4.4"/>
        <path class="cls-14" d="M96.3,186.8c-2.9-.3-5.7-1.2-6.2-1.8-1.9-1.2-.7-3.5,2.1-9.9l2.9-6.1,4.4.2c8.3,1.4,8,.6,8,10.5l-.2,7.3-2.4,1.3c-1.9-.4-5.6-.9-8.6-1.4"/>
        <path class="cls-14" d="M114.9,187.5c-.9.2-1.1-3.6-.9-8.8-.3-8.4-.2-8.2,7.1-9.1,2.6-1.1,5-.8,5.6,0,1,1.3,6,13.6,5.8,15-.9,1.8-16.8,4.5-17.7,2.9"/>
        <path class="cls-14" d="M62.8,171.7c-8.2-6.5-8.4-6.4-1.8-11.7,3-2.3,6-4.9,6.7-5.5,1.2-.2,2.9.8,5.9,3.6,2.7,1.6,4.9,3.4,4.4,4.2.5.2-1.1,3.5-3.1,6.9-2.3,5.2-3.7,7-5.3,7-.8,0-3.8-2.2-6.8-4.5"/>
        <path class="cls-14" d="M146.7,169.6c-2-3.5-3.6-6.7-3-7.5-.1-1.2,8-7.4,9.4-7.7,1,0,11.5,8.4,12.4,10.1,1.2,1.6-11.2,11.3-14.1,11.9-1.4-.2-2.7-2.1-4.7-6.8"/>
        <path class="cls-14" d="M48.6,156.7c-3.5-4.5-8-12.9-7.9-14.9.2-1.9,1.6-2.4,5.4-3.5,2.2-1.1,5.3-2.4,6.7-2.7,2.9-.3,3.4-.3,7,7,2.3,3.8,4.2,7.1,3.7,7.6.5,1-10.2,9.1-11.4,9.5-1.3,0-2.8-1.1-3.5-2.9"/>
        <path class="cls-14" d="M163.3,155c-3.2-2-5.7-4.1-5.4-4.8-.4-.5,2-3.9,4.3-7.7,4.1-8.5,3.2-8.1,12.8-4.6,8.2,2.8,7.7,3.3,0,16.1-2.3,3.2-4,5.4-5.2,5.2-.7.5-3.6-1.6-6.4-4.2"/>
        <path class="cls-14" d="M36.7,132c-1.3-3.7-2.6-11.8-2.8-15.4l.9-2.4,7.4.3c4.8-.1,8.2,0,8.4,1,.4.7,2.3,10.8,3,12.6-.4,1.9-1.4,2.7-6.5,4.2-8.4,3.2-9.5,3.3-10.6-.3"/>
        <path class="cls-14" d="M175,132.3c-7.5-2.2-7.5-1.9-5.2-10.4.7-3.6,1.1-6.8,1.6-6.8,0-.7,4.1-.7,8.4-.9l8.3.3-.3,5.1c-.7,3.9-1.3,8.6-2.1,10.9-.7,3.8-1.3,4.2-3.6,4.2-1.2-.2-4.3-1.3-7.1-2.4"/>
        <path class="cls-14" d="M34.1,102.8c.5-3.5,1.4-7.9,2-10.3.8-3.9,1.3-4.4,3.4-4.7,2.2.4,12.6,3.8,13.6,4.9.8,1.4.9,3.2-.7,7.4-1.5,9.1-.5,8.4-10.1,8.1l-7.7-.2-.4-5.2"/>
        <path class="cls-14" d="M171.2,107.7c-.3-1.1-2.9-13.2-2.9-14.2.5-1.4,11.8-5.4,14.5-5.5,2.4-.3,3.7,5.6,4.9,14.6l-.4,5.1-7.6.6c-4.3,0-8.2-.1-8.6-.7"/>
        <path class="cls-14" d="M47.2,85c-2.7-.7-5.1-2.1-5.9-2.6-.9-1.7-1.1-1.9.1-4.8,1.9-4.6,7.6-14.4,9.2-14.7,1.6-.5,3.2.5,8.4,4.9,4.8,4,5.1,4.4,3,8-1.5,1.5-3.4,4.2-4.4,7.7-2,4.4-2.8,4.4-10.5,1.6"/>
        <path class="cls-14" d="M163.9,82.7c-1.2-2.2-2.9-5.4-4.2-6.6-1.4-2.4-1.6-3.7-1.1-5.1.6-1.1,7.4-6.4,10.2-7.9,1.9-1.1,4.1.9,7.5,7.1,4.5,7.9,5.6,10.1,4.8,12.3-.8.8-11,4.2-13.8,4.5-.9-.1-2.3-1.9-3.3-4.4"/>
        <path class="cls-14" d="M62.4,63.5c-7-5.6-7.1-6.1-4.7-9.1,3-3,10.9-8.8,12.7-8.9,1.3,0,2.6,1.9,4.7,6.7,1.9,3.3,3.4,6.6,3.2,7.7-.1.8-8.9,7.8-9.9,8-.8.5-3.3-1.9-5.9-4.4"/>
        <path class="cls-14" d="M148,64.4c-2.8-1.6-4.8-3.8-4.4-4.5-.4-1.1,1.2-4.3,3.1-7.7,2.3-4.7,3.4-6.6,4.8-6.6,1.7,0,9.3,5.9,12.6,9.1,1.4,1.3,1.7,2.4,1.2,3.8-1.1,1-11,9.9-11.8,9.5-1.1.2-3.3-1.4-5.5-3.5"/>
        <path class="cls-14" d="M95.1,52.7c-1.4-1.4-5.9-12.3-6.1-13.7.5-1.9,1.3-2.5,9.3-3.8,9.8-1.4,9.3-1.7,9,8,.3,9.4.8,8.6-7.4,9.7-2.2.7-3.9.4-4.9-.2"/>
        <path class="cls-14" d="M118.3,52.4l-4.1-1.5.2-16.3h5.6c7.7,1.1,12.7,1.9,12.7,4-.1,1.6-4.9,12.6-5.9,14.4-2.4,1.2-2.7.5-8.5-.6"/>
        <path class="cls-4" d="M104.9,121.2c-8-4.3-7.8-16.4.4-20.4,5.9-2.6,11.5-1.4,15.4,3.3,1.5,2.3,2.2,3.4,2.3,6.8-.2,4.6-2.3,8.1-6.6,10.4-2.9,1.6-8.5,1.6-11.5,0"/>
      </g>
    </g>
  </g>
</svg>