<?xml version="1.0" ?>
<svg xmlns="http://www.w3.org/2000/svg" version="1.1" width="224" height="224">
  <defs/>
  <g>
    <path d="M 64.62675476074219 114.41339111328125 C 96.20867156982422 114.41339111328125 127.79058074951172 114.41339111328125 159.37249755859375 114.41339111328125 C 161.3268280029297 114.80439758300781 161.61331176757812 115.09089660644531 162.0043182373047 117.04521179199219 C 162.0043182373047 142.4866943359375 162.0043182373047 167.92742919921875 162.0043182373047 193.3681640625 C 161.61331176757812 195.322509765625 161.3268280029297 195.60899353027344 159.37249755859375 196.0 C 127.79058074951172 196.0 96.20867156982422 196.0 64.62675476074219 196.0 C 62.67243576049805 195.60899353027344 62.38594436645508 195.322509765625 61.99567794799805 193.3681640625 C 61.99567794799805 167.92742919921875 61.99567794799805 142.4866943359375 61.99567794799805 117.04521179199219 C 62.38594436645508 115.09164428710938 62.67243576049805 114.80439758300781 64.62675476074219 114.41339111328125 C 64.62675476074219 114.41339111328125 64.62675476074219 114.41339111328125 64.62675476074219 114.41339111328125" stroke-width="0.0" fill="rgb(84, 89, 110)" opacity="1.0"/>
    <path d="M 64.62675476074219 117.04521179199219 C 96.20867156982422 117.04521179199219 127.79058074951172 117.04521179199219 159.37249755859375 117.04521179199219 C 159.37249755859375 142.4866943359375 159.37249755859375 167.92742919921875 159.37249755859375 193.3681640625 C 127.79058074951172 193.3681640625 96.20867156982422 193.3681640625 64.62675476074219 193.3681640625 C 64.62675476074219 167.92742919921875 64.62675476074219 142.4866943359375 64.62675476074219 117.04521179199219" stroke-width="0.0" fill="rgb(84, 89, 110)" opacity="1.0"/>
    <path d="M 67.25857543945312 119.67704010009766 C 67.25857543945312 143.36346435546875 67.25857543945312 167.04991149902344 67.25857543945312 190.7371063232422 C 97.08619689941406 190.7371063232422 126.9130630493164 190.7371063232422 156.74066162109375 190.7371063232422 C 156.74066162109375 167.04991149902344 156.74066162109375 143.36346435546875 156.74066162109375 119.67704010009766 C 126.9130630493164 119.67704010009766 97.08619689941406 119.67704010009766 67.25857543945312 119.67704010009766" stroke-width="0.0" fill="rgb(254, 212, 120)" opacity="1.0"/>
    <path d="M 64.62675476074219 134.15208435058594 C 64.62675476074219 153.89077758789062 64.62675476074219 173.6294708251953 64.62675476074219 193.3681640625 C 96.20867156982422 193.3681640625 127.79058074951172 193.3681640625 159.37249755859375 193.3681640625 C 159.37249755859375 173.6294708251953 159.37249755859375 153.89077758789062 159.37249755859375 134.15208435058594 C 159.16647338867188 141.04220581054688 157.68362426757812 147.7533721923828 154.65402221679688 153.96823120117188 C 152.07632446289062 159.25820922851562 148.49403381347656 164.04437255859375 144.1470184326172 168.01089477539062 C 126.36865234375 184.23574829101562 97.63361358642578 184.23724365234375 79.85600280761719 168.01089477539062 C 75.868408203125 164.37222290039062 72.521484375 160.04550170898438 70.00545501708984 155.2698516845703 C 66.55174255371094 148.71360778808594 64.84707641601562 141.53472900390625 64.62675476074219 134.15208435058594 C 64.62675476074219 134.15208435058594 64.62675476074219 134.15208435058594 64.62675476074219 134.15208435058594" stroke-width="0.0" fill="rgb(229, 194, 118)" opacity="1.0"/>
    <path d="M 102.79048919677734 132.8384246826172 C 108.93091583251953 132.8384246826172 115.07134246826172 132.8384246826172 121.2117691040039 132.8384246826172 C 122.24494934082031 132.95347595214844 122.85704040527344 132.8820343017578 123.73907470703125 133.47006225585938 C 125.72271728515625 134.79273986816406 125.72271728515625 138.7795867919922 123.73907470703125 140.10226440429688 C 122.85704040527344 140.69029235839844 122.24494934082031 140.61886596679688 121.2117691040039 140.73390197753906 C 115.07134246826172 140.73390197753906 108.93091583251953 140.73390197753906 102.79048919677734 140.73390197753906 C 101.75730895996094 140.61886596679688 101.14522552490234 140.69029235839844 100.26318359375 140.10226440429688 C 98.279541015625 138.7795867919922 98.279541015625 134.79273986816406 100.26318359375 133.47006225585938 C 101.14522552490234 132.8820343017578 101.75730895996094 132.95347595214844 102.79048919677734 132.8384246826172 C 102.79048919677734 132.8384246826172 102.79048919677734 132.8384246826172 102.79048919677734 132.8384246826172" stroke-width="0.0" fill="rgb(84, 89, 110)" opacity="1.0"/>
    <path d="M 73.83964538574219 30.195697784423828 C 73.83964538574219 30.195697784423828 73.83964538574219 30.195697784423828 73.83964538574219 30.195697784423828 C 80.56735229492188 30.543094635009766 85.33396911621094 35.30971145629883 85.68136596679688 42.037410736083984 C 85.68136596679688 42.341949462890625 85.68136596679688 42.64573669433594 85.68136596679688 42.95027542114258 C 101.8573226928711 33.06664276123047 122.14193725585938 33.06589126586914 138.31788635253906 42.95027542114258 C 138.31788635253906 42.64573669433594 138.31788635253906 42.341949462890625 138.31788635253906 42.037410736083984 C 138.45925903320312 39.305572509765625 139.1142120361328 36.85045623779297 140.86700439453125 34.68484115600586 C 146.27879333496094 28.000003814697266 157.0760498046875 29.078296661376953 160.87188720703125 36.901588439941406 C 161.6712188720703 38.548362731933594 161.9110870361328 40.232730865478516 162.0043182373047 42.037410736083984 C 162.0043182373047 67.04051208496094 162.0043182373047 92.04286193847656 162.0043182373047 117.04521179199219 C 161.61331176757812 118.9995346069336 161.3268280029297 119.28602600097656 159.37249755859375 119.67704010009766 C 127.79058074951172 119.67704010009766 96.20867156982422 119.67704010009766 64.62675476074219 119.67704010009766 C 62.67243576049805 119.28602600097656 62.38594436645508 118.9995346069336 61.99567794799805 117.04521179199219 C 61.99567794799805 92.04286193847656 61.99567794799805 67.04051208496094 61.99567794799805 42.037410736083984 C 62.343082427978516 35.3089599609375 67.11195373535156 30.543094635009766 73.83964538574219 30.195697784423828 C 73.83964538574219 30.195697784423828 73.83964538574219 30.195697784423828 73.83964538574219 30.195697784423828" stroke-width="0.0" fill="rgb(84, 89, 110)" opacity="1.0"/>
    <path d="M 73.83964538574219 32.82752227783203 C 73.83964538574219 32.82752227783203 73.83964538574219 32.82752227783203 73.83964538574219 32.82752227783203 C 68.51734924316406 33.25763702392578 65.05686950683594 36.71510314941406 64.62675476074219 42.037410736083984 C 64.62675476074219 67.04051208496094 64.62675476074219 92.04286193847656 64.62675476074219 117.04521179199219 C 96.20867156982422 117.04521179199219 127.79058074951172 117.04521179199219 159.37249755859375 117.04521179199219 C 159.37249755859375 92.04286193847656 159.37249755859375 67.04051208496094 159.37249755859375 42.037410736083984 C 159.24993896484375 40.518470764160156 159.05593872070312 39.18149948120117 158.34458923339844 37.80618667602539 C 155.5277862548828 32.358306884765625 147.98422241210938 31.19127655029297 143.64846801757812 35.52552032470703 C 141.82949829101562 37.34373474121094 141.1512451171875 39.54168701171875 140.94970703125 42.037410736083984 C 140.94970703125 44.029327392578125 140.94970703125 46.02049255371094 140.94970703125 48.01165771484375 C 136.9741668701172 45.02265548706055 132.6887969970703 42.57279968261719 127.9988784790039 40.88316345214844 C 112.7433090209961 35.386409759521484 95.91766357421875 38.337059020996094 83.0495376586914 48.01165771484375 C 83.0495376586914 46.02049255371094 83.0495376586914 44.029327392578125 83.0495376586914 42.037410736083984 C 82.62017822265625 36.71510314941406 79.16195678710938 33.25763702392578 73.83964538574219 32.82752227783203 C 73.83964538574219 32.82752227783203 73.83964538574219 32.82752227783203 73.83964538574219 32.82752227783203" stroke-width="0.0" fill="rgb(84, 89, 110)" opacity="1.0"/>
    <path d="M 73.83964538574219 35.46010208129883 C 73.83964538574219 35.46010208129883 73.83964538574219 35.46010208129883 73.83964538574219 35.46010208129883 C 71.14466094970703 35.63981628417969 68.61810302734375 36.31807327270508 67.6698989868164 39.15969467163086 C 67.29316711425781 40.29063034057617 67.33903503417969 40.8365478515625 67.25857543945312 42.037410736083984 C 67.25857543945312 66.1629867553711 67.25857543945312 90.28856658935547 67.25857543945312 114.41339111328125 C 97.08619689941406 114.41339111328125 126.9130630493164 114.41339111328125 156.74066162109375 114.41339111328125 C 156.74066162109375 90.28856658935547 156.74066162109375 66.1629867553711 156.74066162109375 42.037410736083984 C 156.62110900878906 40.24250411987305 156.44366455078125 38.45210647583008 155.09616088867188 37.104618072509766 C 152.60569763183594 34.61415481567383 147.89398193359375 35.00216293334961 145.5087890625 37.386600494384766 C 144.17408752441406 38.721309661865234 143.74923706054688 40.21693801879883 143.58229064941406 42.037410736083984 C 143.58229064941406 44.029327392578125 143.58229064941406 46.02049255371094 143.58229064941406 48.01165771484375 C 143.2213592529297 49.81483459472656 142.2355499267578 51.23978042602539 140.0955047607422 50.505126953125 C 138.93072509765625 50.105838775634766 137.89378356933594 48.99295425415039 136.89144897460938 48.3101806640625 C 135.2649688720703 47.201805114746094 133.5678253173828 46.197200775146484 131.81051635742188 45.312156677246094 C 125.67008972167969 42.22013473510742 118.86343383789062 40.72074890136719 111.99962615966797 40.72074890136719 C 105.13658142089844 40.72074890136719 98.32992553710938 42.22013473510742 92.18949890136719 45.312156677246094 C 90.43143463134766 46.197200775146484 88.73503112792969 47.201805114746094 87.10856628417969 48.3101806640625 C 86.00545501708984 49.061378479003906 84.6850357055664 50.486328125 83.33001708984375 50.75627899169922 C 81.59225463867188 51.10292434692383 80.64179229736328 49.397499084472656 80.41770935058594 48.01165771484375 C 80.41770935058594 46.02049255371094 80.41770935058594 44.029327392578125 80.41770935058594 42.037410736083984 C 80.23799896240234 39.34317398071289 79.55899047851562 36.81812286376953 76.71736145019531 35.870662689208984 C 75.58642578125 35.49393844604492 75.04051208496094 35.53981018066406 73.83964538574219 35.46010208129883 C 73.83964538574219 35.46010208129883 73.83964538574219 35.46010208129883 73.83964538574219 35.46010208129883" stroke-width="0.0" fill="rgb(152, 152, 152)" opacity="1.0"/>
    <path d="M 90.94651794433594 69.67384338378906 C 104.9831771850586 69.67384338378906 119.01908874511719 69.67384338378906 133.05575561523438 69.67384338378906 C 134.1024627685547 69.88363647460938 134.84915161132812 69.75129699707031 135.3950653076172 70.84387969970703 C 135.80035400390625 71.65447998046875 135.69058227539062 73.05310821533203 135.64620971679688 73.89078521728516 C 135.49281311035156 76.81736755371094 134.8829803466797 79.72742462158203 133.67910766601562 82.4073715209961 C 130.14419555664062 90.27803802490234 121.27417755126953 95.93270111083984 112.69668579101562 96.22370910644531 C 104.11618041992188 96.51470947265625 94.97472381591797 91.2375259399414 90.9367446899414 83.66087341308594 C 89.33283996582031 80.65081787109375 88.53426361083984 77.28358459472656 88.35604858398438 73.89078521728516 C 88.28837585449219 72.60043334960938 88.04098510742188 70.68822479248047 89.48472595214844 69.96635437011719 C 89.92913818359375 69.7437744140625 90.45925903320312 69.77159881591797 90.94651794433594 69.67384338378906 C 90.94651794433594 69.67384338378906 90.94651794433594 69.67384338378906 90.94651794433594 69.67384338378906" stroke-width="0.0" fill="rgb(84, 89, 110)" opacity="1.0"/>
    <path d="M 90.94651794433594 72.30567169189453 C 90.94651794433594 72.30567169189453 90.94651794433594 72.30567169189453 90.94651794433594 72.30567169189453 C 91.07059478759766 75.78795623779297 91.76539611816406 79.09728240966797 93.41516876220703 82.19607543945312 C 94.78898620605469 84.77751922607422 96.70269775390625 87.06494903564453 99.00442504882812 88.86962890625 C 108.26920318603516 96.13422393798828 122.13516235351562 94.19644927978516 129.0478515625 84.6617202758789 C 131.70147705078125 81.00047302246094 132.89633178710938 76.78202819824219 133.05575561523438 72.30567169189453 C 119.01908874511719 72.30567169189453 104.9831771850586 72.30567169189453 90.94651794433594 72.30567169189453" stroke-width="0.0" fill="rgb(84, 89, 110)" opacity="1.0"/>
    <path d="M 93.7294921875 74.93749237060547 C 93.7294921875 74.93749237060547 93.7294921875 74.93749237060547 93.7294921875 74.93749237060547 C 94.1565933227539 77.69640350341797 94.92133331298828 80.2763442993164 96.50719451904297 82.60889434814453 C 103.8296890258789 93.37682342529297 120.17107391357422 93.37532043457031 127.49431610107422 82.60889434814453 C 129.0809326171875 80.27709197998047 129.8456573486328 77.69640350341797 130.2727813720703 74.93749237060547 C 118.09192657470703 74.93749237060547 105.91033172607422 74.93749237060547 93.7294921875 74.93749237060547" stroke-width="0.0" fill="rgb(254, 254, 254)" opacity="1.0"/>
    <path d="M 83.0495376586914 69.67384338378906 C 102.34984588623047 69.67384338378906 121.64940643310547 69.67384338378906 140.94970703125 69.67384338378906 C 141.43698120117188 69.77159881591797 141.96786499023438 69.7437744140625 142.41226196289062 69.96635437011719 C 144.03271484375 70.77619934082031 144.03271484375 73.83513641357422 142.41226196289062 74.64573669433594 C 141.96786499023438 74.86756896972656 141.43698120117188 74.84049987792969 140.94970703125 74.93749237060547 C 121.64940643310547 74.93749237060547 102.34984588623047 74.93749237060547 83.0495376586914 74.93749237060547 C 82.56227111816406 74.84049987792969 82.0313949584961 74.86756896972656 81.58699798583984 74.64573669433594 C 79.96654510498047 73.83513641357422 79.96654510498047 70.77619934082031 81.58699798583984 69.96635437011719 C 82.0313949584961 69.7437744140625 82.56227111816406 69.77159881591797 83.0495376586914 69.67384338378906 C 83.0495376586914 69.67384338378906 83.0495376586914 69.67384338378906 83.0495376586914 69.67384338378906" stroke-width="0.0" fill="rgb(84, 89, 110)" opacity="1.0"/>
    <path d="M 104.10565185546875 74.93598937988281 C 104.10565185546875 74.93598937988281 104.10565185546875 74.93598937988281 104.10565185546875 74.93598937988281 C 104.2357406616211 76.38650512695312 104.43425750732422 77.63850402832031 105.18319702148438 78.92057800292969 C 107.61725616455078 83.08487701416016 113.39900970458984 84.08197021484375 117.08807373046875 80.97415161132812 C 118.97396850585938 79.38528442382812 119.68380737304688 77.31365966796875 119.89661407470703 74.93598937988281 C 114.6329574584961 74.93598937988281 109.36930847167969 74.93598937988281 104.10565185546875 74.93598937988281" stroke-width="0.0" fill="rgb(84, 89, 110)" opacity="1.0"/>
  </g>
</svg>
