<?xml version="1.0" ?>
<svg xmlns="http://www.w3.org/2000/svg" version="1.1" width="224" height="224">
  <defs/>
  <g>
    <path d="M 62.3084602355957 28.0 C 95.43587493896484 28.0 128.5641326904297 28.0 161.6923828125 28.0 C 168.66583251953125 28.421890258789062 173.473388671875 33.22944641113281 173.89443969726562 40.202880859375 C 173.89443969726562 83.29319763183594 173.89443969726562 126.38265991210938 173.89443969726562 169.47296142578125 C 173.45736694335938 171.66159057617188 173.13653564453125 171.98243713378906 170.94708251953125 172.42031860351562 C 131.64874267578125 172.42031860351562 92.35041046142578 172.42031860351562 53.052085876464844 172.42031860351562 C 50.86346435546875 171.98243713378906 50.543460845947266 171.66159057617188 50.10557174682617 169.47296142578125 C 50.10557174682617 126.38265991210938 50.10557174682617 83.29319763183594 50.10557174682617 40.202880859375 C 50.5266227722168 33.22523498535156 55.330810546875 28.421051025390625 62.3084602355957 28.0 C 62.3084602355957 28.0 62.3084602355957 28.0 62.3084602355957 28.0" stroke-width="0.0" fill="rgb(84, 89, 110)" opacity="1.0"/>
    <path d="M 62.3084602355957 30.947349548339844 C 95.43587493896484 30.947349548339844 128.5641326904297 30.947349548339844 161.6923828125 30.947349548339844 C 167.02708435058594 31.370925903320312 170.52432250976562 34.867332458496094 170.94708251953125 40.202880859375 C 170.94708251953125 83.29319763183594 170.94708251953125 126.38265991210938 170.94708251953125 169.47296142578125 C 131.64874267578125 169.47296142578125 92.35041046142578 169.47296142578125 53.052085876464844 169.47296142578125 C 53.052085876464844 126.38265991210938 53.052085876464844 83.29319763183594 53.052085876464844 40.202880859375 C 53.53460693359375 34.8193359375 56.92490768432617 31.42987060546875 62.3084602355957 30.947349548339844 C 62.3084602355957 30.947349548339844 62.3084602355957 30.947349548339844 62.3084602355957 30.947349548339844" stroke-width="0.0" fill="rgb(84, 89, 110)" opacity="1.0"/>
    <path d="M 62.3084602355957 33.895545959472656 C 62.3084602355957 33.895545959472656 62.3084602355957 33.895545959472656 62.3084602355957 33.895545959472656 C 58.53837203979492 34.36206817626953 56.46680450439453 36.43280029296875 55.99943923950195 40.202880859375 C 55.99943923950195 82.31045532226562 55.99943923950195 124.41804504394531 55.99943923950195 166.52560424804688 C 93.33314514160156 166.52560424804688 130.66685485839844 166.52560424804688 167.99972534179688 166.52560424804688 C 167.99972534179688 124.41804504394531 167.99972534179688 82.31045532226562 167.99972534179688 40.202880859375 C 167.5323486328125 36.43616485595703 165.458251953125 34.3629150390625 161.6923828125 33.895545959472656 C 128.5641326904297 33.895545959472656 95.43587493896484 33.895545959472656 62.3084602355957 33.895545959472656" stroke-width="0.0" fill="rgb(127, 100, 195)" opacity="1.0"/>
    <path d="M 67.78800964355469 98.7373275756836 C 67.78800964355469 98.7373275756836 67.78800964355469 98.7373275756836 67.78800964355469 98.7373275756836 C 70.43641662597656 98.89732360839844 72.79766845703125 99.47079467773438 74.93324279785156 101.1347885131836 C 83.62035369873047 107.90528106689453 78.92648315429688 122.31700134277344 67.78800964355469 122.31700134277344 C 60.31015396118164 122.31700134277344 55.436073303222656 115.753662109375 56.08280563354492 108.64295959472656 C 56.313541412353516 106.10487365722656 57.10427474975586 103.5271987915039 58.9476318359375 101.68467712402344 C 61.322357177734375 99.30911254882812 64.5956039428711 98.87627410888672 67.78800964355469 98.7373275756836 C 67.78800964355469 98.7373275756836 67.78800964355469 98.7373275756836 67.78800964355469 98.7373275756836" stroke-width="0.0" fill="rgb(84, 89, 110)" opacity="1.0"/>
    <path d="M 156.21115112304688 98.7373275756836 C 156.21115112304688 98.7373275756836 156.21115112304688 98.7373275756836 156.21115112304688 98.7373275756836 C 159.40438842773438 98.87627410888672 162.67764282226562 99.30911254882812 165.0523681640625 101.68467712402344 C 166.89572143554688 103.5271987915039 167.6873016357422 106.10487365722656 167.9180450439453 108.64295959472656 C 168.56475830078125 115.75450134277344 163.68984985351562 122.31700134277344 156.21115112304688 122.31700134277344 C 148.73159790039062 122.31700134277344 143.85415649414062 115.75618743896484 144.50088500976562 108.64295959472656 C 144.73162841796875 106.10487365722656 145.5240478515625 103.5271987915039 147.36740112304688 101.68467712402344 C 149.7429656982422 99.30911254882812 153.01705932617188 98.87627410888672 156.21115112304688 98.7373275756836 C 156.21115112304688 98.7373275756836 156.21115112304688 98.7373275756836 156.21115112304688 98.7373275756836" stroke-width="0.0" fill="rgb(84, 89, 110)" opacity="1.0"/>
    <path d="M 100.2097396850586 145.89413452148438 C 108.06991577148438 145.89413452148438 115.93008422851562 145.89413452148438 123.78942108154297 145.89413452148438 C 125.97887420654297 146.33203125 126.29971313476562 146.65286254882812 126.73677062988281 148.84149169921875 C 126.73677062988281 155.71893310546875 126.73677062988281 162.5955352783203 126.73677062988281 169.47296142578125 C 126.29971313476562 171.66159057617188 125.97887420654297 171.98243713378906 123.78942108154297 172.42031860351562 C 115.93008422851562 172.42031860351562 108.06991577148438 172.42031860351562 100.2097396850586 172.42031860351562 C 98.0211181640625 171.98243713378906 97.70027923583984 171.66159057617188 97.26239013671875 169.47296142578125 C 97.26239013671875 162.5955352783203 97.26239013671875 155.71893310546875 97.26239013671875 148.84149169921875 C 97.70027923583984 146.65286254882812 98.0211181640625 146.33203125 100.2097396850586 145.89413452148438 C 100.2097396850586 145.89413452148438 100.2097396850586 145.89413452148438 100.2097396850586 145.89413452148438" stroke-width="0.0" fill="rgb(84, 89, 110)" opacity="1.0"/>
    <path d="M 76.62922668457031 110.5259017944336 C 76.62922668457031 110.5259017944336 76.62922668457031 110.5259017944336 76.62922668457031 110.5259017944336 C 76.3446044921875 113.70567321777344 75.12018585205078 116.48544311523438 72.25030517578125 118.16291809082031 C 66.45748901367188 121.54984283447266 58.9476318359375 117.22734069824219 58.9476318359375 110.5259017944336 C 58.9476318359375 103.82530212402344 66.45917510986328 99.50701141357422 72.25030517578125 102.89225006103516 C 75.11933898925781 104.56887817382812 76.3446044921875 107.34696960449219 76.62922668457031 110.5259017944336 C 76.62922668457031 110.5259017944336 76.62922668457031 110.5259017944336 76.62922668457031 110.5259017944336" stroke-width="0.0" fill="rgb(84, 89, 110)" opacity="1.0"/>
    <path d="M 165.0523681640625 110.5259017944336 C 165.0523681640625 110.5259017944336 165.0523681640625 110.5259017944336 165.0523681640625 110.5259017944336 C 164.7668914794922 113.70567321777344 163.54246520996094 116.48544311523438 160.67343139648438 118.16291809082031 C 154.87979125976562 121.54984283447266 147.36654663085938 117.22817993164062 147.36654663085938 110.5259017944336 C 147.36654663085938 103.82361602783203 154.88230895996094 99.50701141357422 160.67343139648438 102.89225006103516 C 163.54246520996094 104.56887817382812 164.7668914794922 107.34696960449219 165.0523681640625 110.5259017944336 C 165.0523681640625 110.5259017944336 165.0523681640625 110.5259017944336 165.0523681640625 110.5259017944336" stroke-width="0.0" fill="rgb(84, 89, 110)" opacity="1.0"/>
    <path d="M 100.2097396850586 148.84149169921875 C 108.06991577148438 148.84149169921875 115.93008422851562 148.84149169921875 123.78942108154297 148.84149169921875 C 123.78942108154297 155.71893310546875 123.78942108154297 162.5955352783203 123.78942108154297 169.47296142578125 C 115.93008422851562 169.47296142578125 108.06991577148438 169.47296142578125 100.2097396850586 169.47296142578125 C 100.2097396850586 162.5955352783203 100.2097396850586 155.71893310546875 100.2097396850586 148.84149169921875" stroke-width="0.0" fill="rgb(84, 89, 110)" opacity="1.0"/>
    <path d="M 67.78800964355469 104.63287353515625 C 67.78800964355469 104.63287353515625 67.78800964355469 104.63287353515625 67.78800964355469 104.63287353515625 C 66.16107177734375 104.78024291992188 64.60234069824219 104.87203979492188 63.3686637878418 106.105712890625 C 59.70804977416992 109.76632690429688 62.83140182495117 116.42228698730469 67.78800964355469 116.42228698730469 C 72.74461364746094 116.42228698730469 75.86881256103516 109.76632690429688 72.20819854736328 106.105712890625 C 70.97451782226562 104.87203979492188 69.41578674316406 104.78024291992188 67.78800964355469 104.63287353515625 C 67.78800964355469 104.63287353515625 67.78800964355469 104.63287353515625 67.78800964355469 104.63287353515625" stroke-width="0.0" fill="rgb(254, 212, 119)" opacity="1.0"/>
    <path d="M 156.21115112304688 104.63287353515625 C 156.21115112304688 104.63287353515625 156.21115112304688 104.63287353515625 156.21115112304688 104.63287353515625 C 154.58251953125 104.78024291992188 153.02294921875 104.87203979492188 151.78842163085938 106.105712890625 C 149.70339965820312 108.18991088867188 149.7042236328125 112.86441802978516 151.78842163085938 114.94861602783203 C 152.93789672851562 116.09723663330078 154.64988708496094 116.43576049804688 156.21115112304688 116.42228698730469 C 161.1483917236328 116.38102722167969 164.31468200683594 109.7890625 160.63134765625 106.105712890625 C 159.39764404296875 104.87203979492188 157.83892822265625 104.78024291992188 156.21115112304688 104.63287353515625 C 156.21115112304688 104.63287353515625 156.21115112304688 104.63287353515625 156.21115112304688 104.63287353515625" stroke-width="0.0" fill="rgb(253, 212, 119)" opacity="1.0"/>
    <path d="M 103.1579360961914 151.78968811035156 C 103.1579360961914 156.70166015625 103.1579360961914 161.6136474609375 103.1579360961914 166.52560424804688 C 109.05264282226562 166.52560424804688 114.94819641113281 166.52560424804688 120.84290313720703 166.52560424804688 C 120.84290313720703 161.6136474609375 120.84290313720703 156.70166015625 120.84290313720703 151.78968811035156 C 114.94819641113281 151.78968811035156 109.05264282226562 151.78968811035156 103.1579360961914 151.78968811035156" stroke-width="0.0" fill="rgb(255, 213, 120)" opacity="1.0"/>
    <path d="M 70.73788452148438 60.421730041503906 C 70.73788452148438 60.421730041503906 70.73788452148438 60.421730041503906 70.73788452148438 60.421730041503906 C 70.9105224609375 60.436885833740234 71.0831527709961 60.452049255371094 71.25578308105469 60.46720504760742 C 98.76469421386719 65.37918090820312 126.27361297607422 70.29115295410156 153.78253173828125 75.203125 C 155.55514526367188 75.87933349609375 155.85830688476562 76.2406005859375 156.21282958984375 78.10417175292969 C 156.2119903564453 90.87631225585938 156.21031188964844 103.6484603881836 156.20945739746094 116.42060852050781 C 156.09661865234375 123.07994079589844 154.9058837890625 129.57337951660156 151.9812774658203 135.59945678710938 C 141.997314453125 156.17282104492188 117.11913299560547 166.04815673828125 95.77692413330078 157.697021484375 C 90.65274047851562 155.69198608398438 85.99844360351562 152.6376953125 81.98246765136719 148.88864135742188 C 77.91343688964844 145.08909606933594 74.45240020751953 140.61669921875 72.01788330078125 135.59861755371094 C 69.0941162109375 129.5717010498047 67.90338134765625 123.0791015625 67.78968811035156 116.42060852050781 C 67.78968811035156 98.73648071289062 67.78968811035156 81.0523681640625 67.78968811035156 63.36824035644531 C 68.22758483886719 61.179622650146484 68.54927062988281 60.85878372192383 70.73788452148438 60.421730041503906 C 70.73788452148438 60.421730041503906 70.73788452148438 60.421730041503906 70.73788452148438 60.421730041503906" stroke-width="0.0" fill="rgb(84, 89, 110)" opacity="1.0"/>
    <path d="M 53.052085876464844 166.52560424804688 C 92.35041046142578 166.52560424804688 131.64874267578125 166.52560424804688 170.94708251953125 166.52560424804688 C 173.13653564453125 166.9635009765625 173.45736694335938 167.2843475341797 173.89443969726562 169.47296142578125 C 173.89443969726562 174.24769592285156 173.89443969726562 179.02239990234375 173.89443969726562 183.797119140625 C 173.473388671875 190.77139282226562 168.66665649414062 195.57894897460938 161.6923828125 196.0 C 128.5641326904297 196.0 95.43587493896484 196.0 62.3084602355957 196.0 C 55.330810546875 195.57894897460938 50.5266227722168 190.77474975585938 50.10557174682617 183.797119140625 C 50.10557174682617 179.02239990234375 50.10557174682617 174.24769592285156 50.10557174682617 169.47296142578125 C 50.543460845947266 167.2843475341797 50.86346435546875 166.9635009765625 53.052085876464844 166.52560424804688 C 53.052085876464844 166.52560424804688 53.052085876464844 166.52560424804688 53.052085876464844 166.52560424804688" stroke-width="0.0" fill="rgb(84, 89, 110)" opacity="1.0"/>
    <path d="M 70.73788452148438 63.36824035644531 C 98.2468032836914 68.28021240234375 125.75572204589844 73.19219207763672 153.26547241210938 78.10417175292969 C 153.2637939453125 90.87631225585938 153.26295471191406 103.6484603881836 153.26211547851562 116.42060852050781 C 153.12147521972656 123.49930572509766 151.48443603515625 130.35317993164062 148.0149688720703 136.5594482421875 C 137.93418884277344 154.5896759033203 115.29177856445312 162.44984436035156 96.20807647705078 154.54420471191406 C 91.72135925292969 152.68568420410156 87.57064819335938 150.03054809570312 84.00182342529297 146.7353973388672 C 80.02458190917969 143.06216430664062 76.78753662109375 138.60491943359375 74.52313232421875 133.68788146972656 C 72.00862121582031 128.22854614257812 70.85662841796875 122.40794372558594 70.73788452148438 116.42060852050781 C 70.73788452148438 98.73648071289062 70.73788452148438 81.0523681640625 70.73788452148438 63.36824035644531" stroke-width="0.0" fill="rgb(84, 89, 110)" opacity="1.0"/>
    <path d="M 53.052085876464844 169.47296142578125 C 92.35041046142578 169.47296142578125 131.64874267578125 169.47296142578125 170.94708251953125 169.47296142578125 C 170.94708251953125 174.24769592285156 170.94708251953125 179.02239990234375 170.94708251953125 183.797119140625 C 170.52432250976562 189.13265991210938 167.02793884277344 192.62991333007812 161.6923828125 193.05264282226562 C 128.5641326904297 193.05264282226562 95.43587493896484 193.05264282226562 62.3084602355957 193.05264282226562 C 56.92490768432617 192.57012939453125 53.53460693359375 189.1806640625 53.052085876464844 183.797119140625 C 53.052085876464844 179.02239990234375 53.052085876464844 174.24769592285156 53.052085876464844 169.47296142578125" stroke-width="0.0" fill="rgb(84, 89, 110)" opacity="1.0"/>
    <path d="M 73.68524169921875 66.88906860351562 C 73.68524169921875 83.39929962158203 73.68524169921875 99.91036987304688 73.68524169921875 116.42060852050781 C 73.79640197753906 122.03826141357422 74.74713134765625 127.50265502929688 77.14796447753906 132.62094116210938 C 79.30205535888672 137.21376037597656 82.44561767578125 141.29458618164062 86.16602325439453 144.7278289794922 C 89.43253326416016 147.7425537109375 93.18072509765625 150.23011779785156 97.29186248779297 151.93284606933594 C 114.99282836914062 159.26419067382812 135.71188354492188 151.93284606933594 145.3269805908203 135.5169219970703 C 148.76023864746094 129.65591430664062 150.1808624267578 123.15994262695312 150.31475830078125 116.41976928710938 C 150.3155975341797 104.47119140625 150.31643676757812 92.52178192138672 150.31729125976562 80.5723648071289 C 124.7738265991211 76.01070404052734 99.22953796386719 71.44989013671875 73.68524169921875 66.88906860351562" stroke-width="0.0" fill="rgb(254, 212, 119)" opacity="1.0"/>
    <path d="M 55.99943923950195 172.42031860351562 C 55.99943923950195 176.21315002441406 55.99943923950195 180.005126953125 55.99943923950195 183.797119140625 C 56.32112121582031 187.97645568847656 58.129112243652344 189.78445434570312 62.3084602355957 190.10614013671875 C 95.43587493896484 190.10614013671875 128.5641326904297 190.10614013671875 161.6923828125 190.10614013671875 C 165.45909118652344 189.637939453125 167.533203125 187.56382751464844 167.99972534179688 183.797119140625 C 167.99972534179688 180.005126953125 167.99972534179688 176.21315002441406 167.99972534179688 172.42031860351562 C 130.66685485839844 172.42031860351562 93.33314514160156 172.42031860351562 55.99943923950195 172.42031860351562" stroke-width="0.0" fill="rgb(254, 254, 254)" opacity="1.0"/>
    <path d="M 97.26406860351562 116.42228698730469 C 107.08802032470703 116.42228698730469 116.91197204589844 116.42228698730469 126.73507690429688 116.42228698730469 C 127.28160095214844 116.5317611694336 127.87528228759766 116.50144958496094 128.3729705810547 116.74987030029297 C 129.4744415283203 117.30144500732422 129.59486389160156 118.27069854736328 129.6832733154297 119.3704833984375 C 129.88453674316406 121.87489318847656 129.1796875 124.7287826538086 128.14813232421875 126.9931869506836 C 125.42140197753906 132.97462463378906 118.54817962646484 137.23651123046875 111.99915313720703 137.23651123046875 C 105.45013427734375 137.23651123046875 98.57774353027344 132.97378540039062 95.85186767578125 126.9931869506836 C 94.81945037841797 124.7287826538086 94.11461639404297 121.87489318847656 94.31671905517578 119.3704833984375 C 94.40514373779297 118.27069854736328 94.52471923828125 117.30144500732422 95.62618255615234 116.74987030029297 C 96.12471008300781 116.50144958496094 96.7183837890625 116.5317611694336 97.26406860351562 116.42228698730469 C 97.26406860351562 116.42228698730469 97.26406860351562 116.42228698730469 97.26406860351562 116.42228698730469" stroke-width="0.0" fill="rgb(85, 89, 110)" opacity="1.0"/>
    <path d="M 97.26406860351562 97.26280975341797 C 97.26406860351562 97.26280975341797 97.26406860351562 97.26280975341797 97.26406860351562 97.26280975341797 C 96.96428680419922 98.99079895019531 96.67628479003906 100.32469177246094 94.97103118896484 101.1928939819336 C 91.9815673828125 102.71540832519531 88.41948699951172 100.6387939453125 88.41948699951172 97.26280975341797 C 88.41948699951172 93.88682556152344 91.9815673828125 91.8102035522461 94.97103118896484 93.33272552490234 C 96.67628479003906 94.200927734375 96.96428680419922 95.5348129272461 97.26406860351562 97.26280975341797 C 97.26406860351562 97.26280975341797 97.26406860351562 97.26280975341797 97.26406860351562 97.26280975341797" stroke-width="0.0" fill="rgb(84, 89, 110)" opacity="1.0"/>
    <path d="M 135.5762939453125 97.26280975341797 C 135.5762939453125 97.26280975341797 135.5762939453125 97.26280975341797 135.5762939453125 97.26280975341797 C 135.27651977539062 98.99079895019531 134.988525390625 100.32469177246094 133.2841033935547 101.1928939819336 C 130.29464721679688 102.71625518798828 126.73507690429688 100.63710021972656 126.73507690429688 97.26280975341797 C 126.73592376708984 93.88766479492188 130.29464721679688 91.80936431884766 133.2841033935547 93.33272552490234 C 134.98934936523438 94.200927734375 135.27651977539062 95.5348129272461 135.5762939453125 97.26280975341797 C 135.5762939453125 97.26280975341797 135.5762939453125 97.26280975341797 135.5762939453125 97.26280975341797" stroke-width="0.0" fill="rgb(84, 89, 110)" opacity="1.0"/>
    <path d="M 61.89330291748047 42.735923767089844 C 92.34957122802734 42.735923767089844 122.80583190917969 42.735923767089844 153.26211547851562 42.735923767089844 C 155.4507293701172 43.17381286621094 155.7715606689453 43.494651794433594 156.20945739746094 45.68328094482422 C 156.20945739746094 56.49080276489258 156.20945739746094 67.2974853515625 156.20945739746094 78.10417175292969 C 155.7715606689453 80.29362487792969 155.4507293701172 80.61447143554688 153.26211547851562 81.0523681640625 C 133.61251831054688 81.0523681640625 113.96377563476562 81.0523681640625 94.31503295898438 81.0523681640625 C 80.88773345947266 80.770263671875 68.64611053466797 73.60650634765625 62.5307731628418 61.43562316894531 C 60.59394073486328 57.58047866821289 59.459632873535156 53.365760803222656 59.08994674682617 49.07189178466797 C 58.94173812866211 47.34979248046875 58.268898010253906 44.058021545410156 60.25625991821289 43.063499450683594 C 60.75394058227539 42.815086364746094 61.34762191772461 42.84539794921875 61.89330291748047 42.735923767089844 C 61.89330291748047 42.735923767089844 61.89330291748047 42.735923767089844 61.89330291748047 42.735923767089844" stroke-width="0.0" fill="rgb(84, 89, 110)" opacity="1.0"/>
    <path d="M 117.89470672607422 181.2632293701172 C 117.89470672607422 181.2632293701172 117.89470672607422 181.2632293701172 117.89470672607422 181.2632293701172 C 117.60755157470703 183.40048217773438 116.95240020751953 185.20089721679688 114.97513580322266 186.35289001464844 C 111.1124267578125 188.60549926757812 106.10529327392578 185.7347869873047 106.10529327392578 181.2632293701172 C 106.10529327392578 176.79083251953125 111.1124267578125 173.92095947265625 114.97513580322266 176.1727294921875 C 116.95240020751953 177.3255615234375 117.60755157470703 179.1259765625 117.89470672607422 181.2632293701172 C 117.89470672607422 181.2632293701172 117.89470672607422 181.2632293701172 117.89470672607422 181.2632293701172" stroke-width="0.0" fill="rgb(153, 153, 153)" opacity="1.0"/>
    <path d="M 97.26406860351562 119.3704833984375 C 97.26406860351562 119.3704833984375 97.26406860351562 119.3704833984375 97.26406860351562 119.3704833984375 C 97.40386199951172 121.99700164794922 97.90744018554688 124.43235778808594 99.23796081542969 126.7371826171875 C 103.8602523803711 134.74388122558594 115.02903747558594 136.49208068847656 121.88458251953125 130.29843139648438 C 125.07109069824219 127.42013549804688 126.51191711425781 123.57594299316406 126.73507690429688 119.3704833984375 C 116.91197204589844 119.3704833984375 107.08802032470703 119.3704833984375 97.26406860351562 119.3704833984375" stroke-width="0.0" fill="rgb(84, 89, 110)" opacity="1.0"/>
    <path d="M 61.89330291748047 45.68328094482422 C 92.34957122802734 45.68328094482422 122.80583190917969 45.68328094482422 153.26211547851562 45.68328094482422 C 153.26211547851562 56.49080276489258 153.26211547851562 67.2974853515625 153.26211547851562 78.10417175292969 C 133.61251831054688 78.10417175292969 113.96377563476562 78.10417175292969 94.31503295898438 78.10417175292969 C 80.71846771240234 77.76732635498047 68.44316101074219 69.60147094726562 63.792240142822266 56.61627197265625 C 62.523197174072266 53.074398040771484 61.98593521118164 49.43146514892578 61.89330291748047 45.68328094482422 C 61.89330291748047 45.68328094482422 61.89330291748047 45.68328094482422 61.89330291748047 45.68328094482422" stroke-width="0.0" fill="rgb(84, 89, 110)" opacity="1.0"/>
    <path d="M 100.52216339111328 122.31700134277344 C 100.52216339111328 122.31700134277344 100.52216339111328 122.31700134277344 100.52216339111328 122.31700134277344 C 100.97521209716797 123.83446502685547 101.46026611328125 125.17845916748047 102.43878936767578 126.45256042480469 C 107.24718475341797 132.70516967773438 116.75112915039062 132.70599365234375 121.56037139892578 126.4533920288086 C 122.53973388671875 125.17929077148438 123.02478790283203 123.8353042602539 123.47699737548828 122.31700134277344 C 115.8256607055664 122.31700134277344 108.17433166503906 122.31700134277344 100.52216339111328 122.31700134277344" stroke-width="0.0" fill="rgb(84, 89, 110)" opacity="1.0"/>
    <path d="M 64.97117614746094 48.63063049316406 C 64.97117614746094 48.63063049316406 64.97117614746094 48.63063049316406 64.97117614746094 48.63063049316406 C 66.21243286132812 59.32194519042969 72.9197769165039 68.82337188720703 83.00141143798828 72.99850463867188 C 86.63002014160156 74.50166320800781 90.41357421875 75.05744171142578 94.31503295898438 75.15681457519531 C 112.98104858398438 75.15681457519531 131.64788818359375 75.15681457519531 150.31475830078125 75.15681457519531 C 150.31475830078125 66.31475830078125 150.31475830078125 57.472694396972656 150.31475830078125 48.63063049316406 C 121.86689758300781 48.63063049316406 93.41903686523438 48.63063049316406 64.97117614746094 48.63063049316406" stroke-width="0.0" fill="rgb(254, 242, 95)" opacity="1.0"/>
    <path d="M 117.89470672607422 128.21002197265625 C 117.89470672607422 128.21002197265625 117.89470672607422 128.21002197265625 117.89470672607422 128.21002197265625 C 116.77471160888672 131.68031311035156 111.35578918457031 131.62306213378906 108.51875305175781 130.58811950683594 C 107.53770446777344 130.230224609375 106.10529327392578 129.46896362304688 106.10529327392578 128.21002197265625 C 106.10529327392578 126.9519271850586 107.53770446777344 126.19065856933594 108.51875305175781 125.832763671875 C 111.35578918457031 124.79783630371094 116.77471160888672 124.74056243896484 117.89470672607422 128.21002197265625 C 117.89470672607422 128.21002197265625 117.89470672607422 128.21002197265625 117.89470672607422 128.21002197265625" stroke-width="0.0" fill="rgb(255, 146, 125)" opacity="1.0"/>
  </g>
</svg>
