<?xml version="1.0" ?>
<svg xmlns="http://www.w3.org/2000/svg" version="1.1" width="224" height="224">
  <defs/>
  <g>
    <path d="M 34.01978302001953 170.7864227294922 C 30.643814086914062 169.32676696777344 28.0 165.4873504638672 28.78980255126953 163.4349365234375 C 29.107711791992188 162.4974822998047 31.49121856689453 158.4225311279297 34.159934997558594 154.41334533691406 L 39.03643035888672 146.4675750732422 L 38.946502685546875 103.05032348632812 C 38.99510192871094 55.19102478027344 39.08351135253906 55.735595703125 44.964149475097656 53.25740051269531 C 49.46187973022461 51.824180603027344 174.65682983398438 51.861732482910156 179.40676879882812 53.18861389160156 C 185.232666015625 55.83967590332031 185.3667755126953 55.328094482421875 184.96829223632812 102.87655639648438 L 184.8253173828125 146.0555877685547 L 189.90855407714844 154.08566284179688 C 195.94943237304688 163.79107666015625 196.0 163.6165771484375 194.6639404296875 166.75169372558594 C 192.24020385742188 172.1758270263672 195.74842834472656 172.05804443359375 112.82022094726562 171.9597930908203 C 50.16719436645508 172.0410919189453 36.30535888671875 171.90464782714844 34.01978302001953 170.7864227294922" stroke-width="1.0" fill="rgb(112, 113, 128)" opacity="0.9812961"/>
    <path d="M 44.43363952636719 99.28590393066406 C 44.25812530517578 69.90958404541016 44.48760986328125 59.518775939941406 45.25114440917969 58.64493179321289 C 46.79067611694336 57.54358673095703 177.66261291503906 57.555763244628906 179.12973022460938 58.66972351074219 C 180.02296447753906 59.48813247680664 180.24099731445312 69.91598510742188 180.01651000976562 99.23272705078125 L 180.4468536376953 139.44839477539062 L 44.168678283691406 139.4385223388672 L 44.43363952636719 99.28590393066406" stroke-width="1.0" fill="rgb(215, 229, 252)" opacity="0.9933854"/>
    <path d="M 42.611915588378906 161.87611389160156 C 41.88367462158203 160.1236572265625 46.024574279785156 152.99838256835938 49.1889533996582 150.73727416992188 C 51.45474624633789 148.75772094726562 52.171669006347656 148.70591735839844 112.48335266113281 148.70123291015625 C 159.97735595703125 148.5755157470703 173.83236694335938 148.7429962158203 174.86029052734375 149.75601196289062 C 175.55093383789062 150.34925842285156 177.16873168945312 153.25015258789062 179.02243041992188 155.7078399658203 C 184.4595489501953 163.11180114746094 189.75961303710938 162.22996520996094 111.51754760742188 162.3076629638672 C 51.57627487182617 163.35720825195312 43.074195861816406 162.8124542236328 42.611915588378906 161.87611389160156" stroke-width="0.0" fill="rgb(65, 68, 83)" opacity="1.0"/>
    <path d="M 86.89166259765625 88.50794219970703 C 86.84745788574219 87.21237182617188 90.12271118164062 86.91348266601562 112.2655029296875 87.16482543945312 C 131.54391479492188 87.08221435546875 137.6248779296875 87.41578674316406 137.99298095703125 88.38349914550781 C 138.16763305664062 89.05486297607422 132.69842529296875 89.57129669189453 112.6346435546875 89.698974609375 C 90.2229232788086 89.71821594238281 86.880126953125 89.53192138671875 86.89166259765625 88.50794219970703" stroke-width="1.0" fill="rgb(255, 255, 253)" opacity="1.0"/>
    <path d="M 100.07854461669922 114.35196685791016 C 100.2692642211914 110.68029022216797 100.12174224853516 110.01608276367188 98.031005859375 109.49053955078125 C 96.25636291503906 108.81389617919922 95.04945373535156 106.80021667480469 93.2100601196289 100.56489562988281 C 91.51968383789062 96.07679748535156 89.83872985839844 92.78812408447266 88.75182342529297 92.9312744140625 C 88.32962799072266 92.74263000488281 87.79444885253906 92.12943267822266 87.62572479248047 91.24174499511719 C 87.76167297363281 90.19598388671875 90.97076416015625 89.92684936523438 112.1907958984375 90.0010986328125 C 136.98899841308594 89.99046325683594 139.43907165527344 90.30218505859375 135.55426025390625 93.37203216552734 C 134.50271606445312 93.79765319824219 132.78445434570312 97.48979187011719 131.4608917236328 101.47230529785156 C 129.41323852539062 107.60780334472656 128.47215270996094 109.09017181396484 127.00061798095703 109.33145141601562 C 124.99313354492188 109.57138061523438 124.78710174560547 109.98123931884766 124.81539916992188 114.01861572265625 C 124.74202728271484 118.1761474609375 124.77827453613281 118.4457778930664 122.77149200439453 118.63745880126953 C 121.05470275878906 118.69361114501953 120.16118621826172 117.94435119628906 119.9227294921875 116.61732482910156 C 119.38562774658203 114.70613861083984 118.60987854003906 114.94969940185547 112.07422637939453 115.01295471191406 C 105.68359375 114.96577453613281 105.02747344970703 114.68905639648438 104.97258758544922 116.68461608886719 C 104.98545837402344 117.97901153564453 104.44316864013672 118.53008270263672 102.57693481445312 118.59811401367188 C 100.37646484375 118.62162780761719 99.9637451171875 118.27197265625 100.07854461669922 114.35196685791016" stroke-width="1.0" fill="rgb(112, 116, 133)" opacity="0.9894479"/>
    <path d="M 34.008880615234375 166.99798583984375 C 33.221221923828125 164.283935546875 33.68560028076172 163.5334930419922 39.529701232910156 153.34613037109375 L 44.64820861816406 144.86961364746094 L 53.04838180541992 145.0329132080078 C 81.41209411621094 144.80210876464844 178.41232299804688 144.8802032470703 179.09976196289062 144.94113159179688 C 180.88226318359375 146.40438842773438 190.94705200195312 162.94113159179688 190.7877960205078 165.10154724121094 C 190.62753295898438 167.65390014648438 190.14816284179688 166.8525390625 112.85979461669922 166.42617797851562 C 44.15873718261719 166.8350372314453 34.542030334472656 167.28482055664062 34.008880615234375 166.99798583984375" stroke-width="0.0" fill="rgb(165, 165, 173)" opacity="0.839786"/>
    <path d="M 96.6212387084961 99.38125610351562 C 95.72171783447266 96.76081085205078 94.38081359863281 94.37323760986328 94.54068756103516 93.9658203125 C 94.51453399658203 93.60835266113281 102.49374389648438 93.60191345214844 112.14461517333984 93.61994934082031 C 122.00357818603516 93.46646118164062 129.8392791748047 93.79719543457031 130.14190673828125 94.2938461303711 C 129.8531951904297 95.10118865966797 128.6583251953125 97.3031234741211 127.91522979736328 99.50689697265625 L 126.01333618164062 104.90848541259766 L 112.32972717285156 105.2325439453125 L 98.82211303710938 105.10797882080078 L 96.6212387084961 99.38125610351562" stroke-width="1.0" fill="rgb(253, 254, 254)" opacity="0.9993393"/>
    <path d="M 100.25859832763672 165.37249755859375 C 99.91738891601562 164.44635009765625 99.88346099853516 162.44586181640625 100.15446472167969 160.68655395507812 L 100.23503875732422 158.0061798095703 L 116.26332092285156 157.61917114257812 L 131.9427032470703 157.54673767089844 L 132.8181915283203 161.32276916503906 C 133.161865234375 164.1802978515625 132.9921112060547 165.55661010742188 132.09530639648438 166.21279907226562 C 131.30519104003906 166.43478393554688 123.94090270996094 166.6824188232422 115.44660949707031 166.30734252929688 C 103.47722625732422 166.69064331054688 100.38872528076172 166.39234924316406 100.25859832763672 165.37249755859375" stroke-width="1.0" fill="rgb(250, 252, 253)" opacity="0.98174834"/>
  </g>
</svg>
