<?xml version="1.0" encoding="utf-8"?>
<!-- Generator: Adobe Illustrator 27.0.0, SVG Export Plug-In . SVG Version: 6.00 Build 0)  -->
<svg version="1.1" id="图层_1" xmlns="http://www.w3.org/2000/svg" xmlns:xlink="http://www.w3.org/1999/xlink" x="0px" y="0px"
	 viewBox="0 0 224 224" style="enable-background:new 0 0 224 224;" xml:space="preserve">
<style type="text/css">
	.st0{opacity:0.9905;fill:#3D4166;enable-background:new    ;}
	.st1{opacity:0.9896;fill:#82A3AE;enable-background:new    ;}
	.st2{opacity:0.9994;fill:#DC78FF;enable-background:new    ;}
	.st3{opacity:0.9995;fill:#DB77FF;enable-background:new    ;}
	.st4{opacity:0.9957;fill:#FAFBFA;enable-background:new    ;}
	.st5{opacity:0.9963;fill:#F9F9F9;enable-background:new    ;}
	.st6{opacity:0.9928;fill:#82A3AE;enable-background:new    ;}
	.st7{opacity:0.9777;fill:#FA3E33;enable-background:new    ;}
	.st8{opacity:0.9956;fill:#FACD59;enable-background:new    ;}
	.st9{opacity:0.9788;fill:#3E4467;enable-background:new    ;}
	.st10{opacity:0.9802;fill:#3E4466;enable-background:new    ;}
	.st11{opacity:0.9824;fill:#3D4267;enable-background:new    ;}
	.st12{opacity:0.9826;fill:#3E4266;enable-background:new    ;}
</style>
<g>
	<path class="st0" d="M99.3,186.7c-24-3.2-43.8-19.7-54.4-44.3c-4-10.6-5.2-17.5-5.1-35.4c0.3-13.2,1.1-16.8,2.6-22
		C45.8,73,51.9,62.5,61.7,52c3.3-3.8,5.6-5.6,11.6-8.3C84.9,38.3,94,36,109,35.3c18.2-0.1,29.4,2.4,44.3,9.4
		c10.9,5.2,24.5,24.6,28.7,41.7c2.5,6.6,3,31.7,1.4,40.2c-4.6,28.4-26.7,53.3-52.9,59.2C123.3,187.5,106.2,188,99.3,186.7"/>
	<path class="st1" d="M92.1,52.7c-0.2-1.2-2.4-3.6-4.5-5.1l-3.2-2.8l3-1.1c14.5-3.9,34.6-3.9,48.9,0l3.2,1l-3.8,3.7
		c-2.3,2.2-4.3,4.5-4.5,5.4c-1,1.4-1.4,1.5-6.1,0.6c-4.8-1.2-23.1-0.9-28.9,0.6C93.8,54.9,93.3,54.8,92.1,52.7"/>
	<path class="st2" d="M71.8,72.8c-9.3-3.4-11.5-14.1-4.5-20.5c3.4-3.1,5.9-3.8,11.4-3.3c6.6,0.7,10.6,5.6,10.7,12.6
		C89.5,69.6,79.9,75.7,71.8,72.8"/>
	<path class="st3" d="M143.5,72.9c-1.7-0.5-4.2-2.1-6-4.1c-2.4-2.7-2.7-3.6-3.2-7.8c0.2-7.5,5-12.1,12.5-12.3
		c8.1,0.2,13.4,5.3,13.5,12.5C160.2,69.9,152.3,75.3,143.5,72.9"/>
	<path class="st4" d="M97,154.6c-13.2-13.8-23.2-25.8-22.9-28.7c0.6-3.9,5.2-3.7,6.4-0.3c-0.1,1.3,4.8,7.1,11.1,13.3
		c13.6,15,18.3,16.5,26.4,12.6c3.4-1.3,21.6-20.3,24.5-25c1.5-3.4,4.4-4,6.1-2.1c1.4,1.1,1.5,1.5,0.1,4.3
		c-3.6,7.1-33.8,39.2-37.4,39.1C111.2,167.8,104.4,162,97,154.6"/>
	<path class="st5" d="M89.9,129.7c-0.9-2.4-3-3.3-3.6-5.2c0.5,0.3-0.9-1.8-2-3.9c-3.6-2.2-3.9-2.6-9.3-2.2c-4.2,2-4,1.3-7.1-2
		c-4.1-3.9-7.6-10.5-8.2-15.7c-0.7-6.1,0.3-8.1,2.8-8.9c4.5-1.4,10.1-5.2,11.2-10.6c0-3.7,0.7-3.2,4.6-3.2c1.8-0.4,5.1-1.2,6.4-1.8
		c3.4-1.2,8.3-6.9,8.9-12.6c-0.3-4.1,1.7-4,17.3-5.2c10.1,0.4,15.3,1.1,17,1.9c1.9-0.5,1.7,1.5,1.9,5.8c3,7.3,9.5,12.2,17.8,12
		c2.4-0.5,2.3,2,3.2,4.8c-0.3,2.2,5.6,8.7,10.2,8.9c3,0.7,3.6,3,2.8,9.5c-0.9,5.1-4,11-8,15.1c-3.7,3.5-3.1,4.2-7.3,1.8
		c-6.6,0.5-8.3,0.1-12.3,7.6l-2.3,3.3l-21-0.5C99.9,128.8,90.6,129.8,89.9,129.7"/>
	<path class="st6" d="M95.7,180.7c-11.7-2.6-20.1-7.1-29.2-15.7c-9.3-8.8-16.3-20.9-19.4-32.5c-3.3-12.2-2.9-35.4,0.7-48.3
		c1.8-5.1,6-14.2,8.2-17.2c2-1.3,1.8-1.3,2.1,1.1c0,3.4,2.7,9.2,5.8,12.4c3.2,3.5,2.6,5.2-3.4,7.3c-4.2,0.8-4.7,1.6-5.6,4.8
		c-2.4,7.8,1.4,18.9,9.7,27.3c3.4,3.2,4.9,5.4,4.8,6.9c-0.1,4,12.9,19.9,29,36.2c5.7,5.4,11.3,10,12.4,10.3c0.7,0.3,2.4,0.3,3.6-0.9
		c4-1.6,21.5-19,29.3-28.9c8.6-10.5,11.3-14.1,11.2-16.7c0-1.1,1.6-3.8,4.7-6.8c7.2-8,11-17.7,9.8-25.1c-0.4-5-1.1-6.1-5.4-7.3
		c-2.6-0.8-4.8-1.8-5.5-2.4c-0.9-1.8-0.9-1.8,3.1-6.5c1.4-1.8,3.1-5.3,3.7-8l1.3-5.2l2.5,3.9c6.7,11.3,9.5,21.2,9.9,36.7
		c0.6,17.8-1.6,29.4-8.1,41.6c-10.1,17.9-25.5,29.9-43.5,33.4C119.8,182.5,102.7,182.4,95.7,180.7"/>
	<path class="st7" d="M109.8,147.6c-0.9-1.2,0.5-2.5,2.5-2.3c1.5,0,2.3,1,2.2,1.9C114.4,148.7,110.9,149.2,109.8,147.6"/>
	<path class="st8" d="M106.3,138.3c-5.2-0.8-10.4-3.2-13.6-6.1c-2.5-2.2-3-3.3-2.5-7.1c-0.4-3.3,0.3-5,1.6-6.7
		c5.2-6.7,21.8-9.1,33.4-4.9c6.6,2.8,8.5,4.9,8.7,11.1l0.4,5.1l-3.8,3.3C124.4,137.7,114.7,139.9,106.3,138.3"/>
	<path class="st9" d="M90.3,109c-1.2-0.9-1.9-2.7-1.8-3.9c-0.3-2.7,2.4-5.8,5.2-5.7c2.4-0.7,6.3,2.8,5.9,5c0.3,1.1-0.5,2.5-1.4,3.9
		C95.8,110.9,92.7,111.2,90.3,109"/>
	<path class="st10" d="M126.5,109.5c-2.1-1.8-2.5-5.3-0.7-7.8c2.2-2.6,6.9-2.9,8.7-0.5C138.3,106.3,131.9,113.2,126.5,109.5"/>
	<path class="st11" d="M86,91.6c-3-1.2-3.5-5.5-0.8-6.6c3.2-1.1,11.4-1.6,14.2-1c2.4,1.2,2.7,4.2,0.8,6.5
		C98.7,91.8,89.3,92.3,86,91.6"/>
	<path class="st12" d="M125,91.3c-1.9-0.9-2.2-1.6-2.3-4.2l0.2-2.9l5.3-0.6c3.5,0,7.2,0.4,8.9,0.8c2.6,0.7,2.9,1.2,2.8,3.5
		c-0.1,3.3-1.7,3.8-8.4,3.7C129,91.9,126.5,91.7,125,91.3"/>
</g>
</svg>
