<?xml version="1.0" ?>
<svg xmlns="http://www.w3.org/2000/svg" version="1.1" width="224" height="224">
  <defs/>
  <g>
    <path d="M 49.62969970703125 186.97409057617188 C 48.64335632324219 173.7259063720703 45.879730224609375 150.46719360351562 47.08289337158203 148.3148956298828 C 47.64213562011719 148.31346130371094 31.1517333984375 107.11297607421875 31.35063934326172 106.12093353271484 C 28.240615844726562 106.73680114746094 28.00000762939453 105.44334411621094 28.430953979492188 103.94859313964844 L 28.31468963623047 100.13265228271484 L 56.943153381347656 100.20791625976562 L 57.023468017578125 76.1214599609375 L 75.0968017578125 76.10147857666016 L 74.97442626953125 67.81031799316406 C 75.11343383789062 57.75517654418945 75.51429748535156 57.99246597290039 71.65579223632812 58.764766693115234 C 69.44066619873047 58.79396438598633 70.54720306396484 57.03256607055664 70.11283874511719 55.69160461425781 L 70.07624053955078 51.87842559814453 L 83.38018798828125 52.1192626953125 L 96.01049041748047 52.27719497680664 L 96.07200622558594 44.695655822753906 C 95.98675537109375 38.040313720703125 95.73248291015625 38.20130920410156 92.94075012207031 38.84527587890625 C 91.80976104736328 38.70228576660156 91.93441009521484 37.58991241455078 92.05797576904297 35.837249755859375 L 92.12601470947266 32.47771453857422 L 132.12783813476562 32.608306884765625 L 132.29537963867188 35.91796875 C 132.13540649414062 37.632049560546875 132.96969604492188 38.304420471191406 130.88967895507812 38.860374450683594 C 128.3938751220703 38.32085418701172 128.1723175048828 38.44237518310547 127.90933227539062 44.18098449707031 L 128.51461791992188 52.319969177246094 L 140.6158905029297 52.059635162353516 L 154.2513885498047 51.84127426147461 L 153.81332397460938 55.720054626464844 C 153.57339477539062 56.606773376464844 154.94407653808594 58.40530014038086 152.69235229492188 58.769439697265625 C 148.66567993164062 58.263710021972656 149.24661254882812 57.897090911865234 149.1224365234375 68.16165161132812 L 149.3325958251953 75.99711608886719 L 167.15316772460938 76.16452026367188 L 167.27987670898438 99.85977172851562 L 195.76400756835938 100.02937316894531 L 196.0 104.43689727783203 C 195.80874633789062 105.82295227050781 195.8662109375 106.85920715332031 194.4046630859375 106.50199127197266 C 193.24893188476562 105.37749481201172 192.43539428710938 108.24948120117188 190.9268341064453 112.31797790527344 C 189.78680419921875 115.87886047363281 185.98867797851562 125.3660659790039 182.78823852539062 133.66519165039062 C 179.9528350830078 142.09983825683594 176.16175842285156 148.88861083984375 177.84945678710938 149.54269409179688 C 178.15774536132812 151.28294372558594 175.68675231933594 177.0877685546875 174.69229125976562 187.74191284179688 L 173.927490234375 191.52227783203125 L 50.426692962646484 191.40037536621094 L 49.62969970703125 186.97409057617188" stroke-width="1.0" fill="rgb(58, 78, 110)" opacity="0.9938383"/>
    <path d="M 102.43157958984375 45.94034957885742 L 102.26744079589844 38.908714294433594 L 121.66625213623047 38.941619873046875 L 121.72486114501953 52.15911102294922 L 102.36767578125 52.19639587402344 L 102.43157958984375 45.94034957885742" stroke-width="1.0" fill="rgb(235, 193, 113)" opacity="1.0"/>
    <path d="M 46.9422607421875 111.48403930664062 L 47.259986877441406 106.19135284423828 L 51.24817657470703 106.37415313720703 L 55.351470947265625 106.66951751708984 L 55.73012924194336 112.12503814697266 L 55.47877883911133 117.13848876953125 L 46.87519073486328 117.04877471923828 L 46.9422607421875 111.48403930664062" stroke-width="1.0" fill="rgb(254, 145, 183)" opacity="0.9997317"/>
    <path d="M 62.831565856933594 111.97319030761719 L 62.535579681396484 106.33929443359375 L 69.28652954101562 106.49185180664062 L 76.16104125976562 106.48665618896484 L 76.5697021484375 112.12328338623047 L 76.49498748779297 117.2725830078125 L 62.371883392333984 117.21121978759766 L 62.831565856933594 111.97319030761719" stroke-width="1.0" fill="rgb(254, 143, 188)" opacity="1.0"/>
    <path d="M 83.24099731445312 111.92339324951172 L 83.06733703613281 106.48550415039062 L 97.22505187988281 106.60255432128906 L 97.21981048583984 117.18679809570312 L 83.3444595336914 117.25814819335938 L 83.24099731445312 111.92339324951172" stroke-width="1.0" fill="rgb(253, 144, 188)" opacity="1.0"/>
    <path d="M 104.44568634033203 111.6961441040039 L 104.32284545898438 106.52426147460938 L 112.22705078125 106.54557037353516 L 119.67681884765625 106.53084564208984 L 119.89258575439453 117.02032470703125 L 111.6588134765625 117.06832122802734 L 104.8352279663086 117.46206665039062 L 104.44568634033203 111.6961441040039" stroke-width="1.0" fill="rgb(254, 142, 187)" opacity="0.9993259"/>
    <path d="M 126.52289581298828 112.04644012451172 L 126.80397033691406 106.67997741699219 L 134.36605834960938 106.44564056396484 L 141.682861328125 106.32259368896484 L 141.69900512695312 117.05841064453125 L 126.43016052246094 117.23844146728516 L 126.52289581298828 112.04644012451172" stroke-width="1.0" fill="rgb(254, 143, 188)" opacity="1.0"/>
    <path d="M 147.90304565429688 111.83432006835938 L 148.12973022460938 106.6443862915039 L 161.75962829589844 106.69893646240234 L 161.59210205078125 117.14983367919922 L 148.06512451171875 117.19693756103516 L 147.90304565429688 111.83432006835938" stroke-width="1.0" fill="rgb(254, 143, 187)" opacity="1.0"/>
    <path d="M 168.54803466796875 112.14543914794922 L 168.34852600097656 106.7301025390625 L 176.80921936035156 106.34882354736328 L 176.7965545654297 117.06472778320312 L 168.87081909179688 117.2800521850586 L 168.54803466796875 112.14543914794922" stroke-width="1.0" fill="rgb(255, 142, 185)" opacity="1.0"/>
    <path d="M 63.99888229370117 91.67140197753906 L 63.826351165771484 82.5285873413086 L 69.43687438964844 82.7003402709961 L 75.23567962646484 82.83744812011719 L 75.25743865966797 100.07650756835938 L 69.58099365234375 100.08721923828125 L 63.94195556640625 100.47724914550781 L 63.99888229370117 91.67140197753906" stroke-width="1.0" fill="rgb(253, 142, 187)" opacity="0.99952847"/>
    <path d="M 149.42681884765625 99.94343566894531 C 149.3113555908203 98.7701187133789 149.0488739013672 95.4143295288086 148.81431579589844 91.09097290039062 L 148.77468872070312 82.65200805664062 L 160.46713256835938 82.62454986572266 L 160.4077606201172 100.17137908935547 L 155.41726684570312 100.08692932128906 C 152.61529541015625 99.97776794433594 149.90396118164062 99.90619659423828 149.42681884765625 99.94343566894531" stroke-width="1.0" fill="rgb(254, 143, 186)" opacity="1.0"/>
    <path d="M 81.88626098632812 91.38616943359375 L 81.750244140625 82.82867431640625 L 97.23603820800781 82.7503433227539 L 97.2059326171875 100.08979034423828 L 81.69050598144531 99.9740982055664 L 81.88626098632812 91.38616943359375" stroke-width="1.0" fill="rgb(227, 187, 114)" opacity="0.993973"/>
    <path d="M 104.88372802734375 99.59382629394531 C 104.28666687011719 99.12548828125 104.00870513916016 95.34349060058594 104.15087890625 90.95866394042969 L 104.07840728759766 82.99972534179688 L 112.28741455078125 82.75231170654297 L 120.01554107666016 83.0410385131836 L 119.92131805419922 99.96612548828125 L 113.00093078613281 100.04515075683594 C 108.54515075683594 100.1898422241211 105.0304183959961 100.15235900878906 104.88372802734375 99.59382629394531" stroke-width="1.0" fill="rgb(226, 186, 114)" opacity="0.9911855"/>
    <path d="M 126.89306640625 99.7586898803711 C 126.34992218017578 99.29048919677734 126.3578109741211 95.36848449707031 126.576416015625 90.62088775634766 L 126.57301330566406 82.58750915527344 L 142.55203247070312 82.90497589111328 L 142.38804626464844 91.30142211914062 L 142.1892547607422 99.87287902832031 L 135.34725952148438 100.14368438720703 C 130.8802032470703 100.17574310302734 127.25936889648438 100.11868286132812 126.89306640625 99.7586898803711" stroke-width="1.0" fill="rgb(226, 184, 113)" opacity="0.9948841"/>
    <path d="M 84.03712463378906 171.04168701171875 C 83.57666015625 167.02371215820312 83.72640991210938 163.34033203125 83.02438354492188 163.75936889648438 C 81.6585922241211 163.94175720214844 81.83173370361328 160.94888305664062 81.98892974853516 157.12271118164062 C 82.338623046875 148.47947692871094 80.70292663574219 146.49807739257812 75.1934814453125 146.06344604492188 C 69.47847747802734 146.10406494140625 67.67137145996094 148.24053955078125 68.57954406738281 156.58302307128906 L 68.56645202636719 163.9881591796875 L 60.36326599121094 164.02142333984375 L 60.34375 156.94168090820312 C 60.764617919921875 148.82205200195312 59.93125915527344 146.83352661132812 54.974090576171875 145.759033203125 C 52.03982162475586 145.488525390625 52.0492057800293 144.06533813476562 48.75733184814453 135.26222229003906 C 46.79364776611328 129.6800537109375 44.66791534423828 125.09748840332031 44.330970764160156 123.85301971435547 C 44.8470458984375 123.23409271240234 59.376712799072266 123.56582641601562 112.76964569091797 123.42683410644531 L 180.2958984375 123.39822387695312 L 177.9800567626953 129.4590606689453 C 172.33746337890625 144.3983154296875 172.79946899414062 145.58932495117188 169.41488647460938 145.78488159179688 C 164.1785888671875 147.00537109375 163.4496307373047 148.87069702148438 163.92791748046875 156.68995666503906 L 163.61178588867188 163.82286071777344 L 155.6374053955078 163.65969848632812 L 155.7898712158203 156.9324951171875 C 156.03372192382812 147.6243896484375 155.09506225585938 146.16310119628906 149.19638061523438 145.9143829345703 C 143.645751953125 146.32508850097656 141.87164306640625 148.03323364257812 141.9866485595703 156.21392822265625 C 142.0930938720703 161.84332275390625 142.2906494140625 164.22091674804688 141.22036743164062 164.44271850585938 C 139.85134887695312 164.70108032226562 139.93484497070312 167.1348876953125 140.0446014404297 171.85919189453125 L 139.94908142089844 178.1392364501953 L 133.20802307128906 178.17886352539062 L 132.9290771484375 164.3084716796875 C 132.9016876220703 152.27169799804688 133.07882690429688 150.6104736328125 131.7566680908203 148.7587890625 C 129.42620849609375 146.08892822265625 126.31098175048828 145.2655029296875 123.01036834716797 146.734375 C 119.49929809570312 148.197509765625 118.70702362060547 149.01234436035156 119.32477569580078 157.886474609375 L 119.36388397216797 164.22230529785156 L 111.71263122558594 163.94381713867188 L 104.88772583007812 164.07925415039062 L 104.67105102539062 156.950927734375 C 105.50201416015625 148.76531982421875 103.7440414428711 146.04661560058594 97.77410125732422 145.76791381835938 C 95.08351135253906 146.64720153808594 93.5333251953125 146.2562255859375 92.34150695800781 148.1005096435547 C 90.67530059814453 150.54344177246094 90.80731201171875 152.00640869140625 91.02267456054688 164.54795837402344 L 91.1619873046875 178.09759521484375 L 83.99442291259766 178.03384399414062 L 84.03712463378906 171.04168701171875" stroke-width="1.0" fill="rgb(246, 201, 109)" opacity="0.9959334"/>
    <path d="M 40.412574768066406 113.06580352783203 C 37.76940155029297 106.5413818359375 38.13179016113281 106.0534439086914 42.75531768798828 106.44574737548828 L 47.30390167236328 106.27864837646484 L 47.39802551269531 111.93763732910156 C 47.19239044189453 117.1590576171875 47.33937072753906 117.55049896240234 44.70838928222656 116.96743774414062 C 42.597015380859375 117.47980499267578 41.689720153808594 117.09004974365234 40.412574768066406 113.06580352783203" stroke-width="1.0" fill="rgb(235, 183, 124)" opacity="0.94302976"/>
    <path d="M 176.9173583984375 113.56144714355469 C 177.28269958496094 111.36837768554688 176.64007568359375 108.66765594482422 176.3619842529297 108.02477264404297 C 176.0027313232422 106.7775650024414 176.66709899902344 106.42538452148438 180.77667236328125 106.49256896972656 C 183.90255737304688 106.32510375976562 186.4309844970703 106.2059555053711 186.26123046875 107.0195541381836 C 186.17938232421875 107.04624938964844 185.4219207763672 109.50141143798828 184.33554077148438 112.36294555664062 C 182.71115112304688 116.97015380859375 182.12124633789062 117.44680786132812 179.87234497070312 117.40534973144531 C 177.07386779785156 117.56553649902344 177.33485412597656 117.5389404296875 176.9173583984375 113.56144714355469" stroke-width="1.0" fill="rgb(233, 186, 119)" opacity="0.94425225"/>
    <path d="M 81.92289733886719 67.44319152832031 L 81.69642639160156 58.56388854980469 L 97.34790802001953 58.63072967529297 L 97.20310974121094 76.22172546386719 L 81.68838500976562 76.35969543457031 L 81.92289733886719 67.44319152832031" stroke-width="1.0" fill="rgb(254, 255, 254)" opacity="1.0"/>
    <path d="M 104.48472595214844 67.79418182373047 L 104.07758331298828 58.48768615722656 L 112.54850006103516 58.69353103637695 L 119.49961853027344 58.61801528930664 L 119.4356918334961 76.3289794921875 L 104.23710632324219 76.22294616699219 L 104.48472595214844 67.79418182373047" stroke-width="1.0" fill="rgb(254, 254, 253)" opacity="0.9970069"/>
    <path d="M 126.85086059570312 67.82913208007812 L 126.44642639160156 58.4869384765625 L 142.4447021484375 58.51029586791992 L 142.1405792236328 67.4471664428711 L 142.07200622558594 76.15242004394531 L 134.03761291503906 76.04806518554688 L 126.47533416748047 76.43475341796875 L 126.85086059570312 67.82913208007812" stroke-width="1.0" fill="rgb(254, 254, 253)" opacity="0.99854106"/>
    <path d="M 87.12271118164062 94.90147399902344 C 85.39242553710938 93.61239624023438 85.4762954711914 89.98983764648438 86.94855499267578 88.81868743896484 C 90.4029312133789 84.83606719970703 96.20657348632812 89.52352905273438 93.69511413574219 93.91621398925781 C 92.6790771484375 96.16673278808594 89.00975036621094 96.74755859375 87.12271118164062 94.90147399902344" stroke-width="1.0" fill="rgb(62, 78, 113)" opacity="0.97375584"/>
    <path d="M 108.00284576416016 93.97056579589844 C 105.94637298583984 89.9731216430664 111.11843872070312 85.70020294189453 114.54131317138672 88.15386962890625 C 116.27996063232422 89.14944458007812 117.04796600341797 92.1275634765625 115.68743896484375 94.20645904541016 C 114.416015625 96.72157287597656 109.37313842773438 96.63819885253906 108.00284576416016 93.97056579589844" stroke-width="1.0" fill="rgb(62, 77, 113)" opacity="0.97388864"/>
    <path d="M 130.60000610351562 94.93159484863281 C 127.93260955810547 92.3037109375 130.4344482421875 87.15270233154297 134.5338134765625 87.18151092529297 C 135.83949279785156 87.27865600585938 138.47605895996094 90.10637664794922 138.4119873046875 91.71302032470703 C 138.63824462890625 95.28616333007812 133.09921264648438 97.56161499023438 130.60000610351562 94.93159484863281" stroke-width="1.0" fill="rgb(62, 77, 111)" opacity="0.9762417"/>
    <path d="M 106.9262924194336 139.11068725585938 C 100.47456359863281 132.39735412597656 108.19490814208984 121.91055297851562 116.38433837890625 126.7051010131836 C 123.10034942626953 131.36602783203125 119.61872100830078 141.41015625 111.41583251953125 141.1611785888672 C 110.35515594482422 141.582275390625 108.52920532226562 140.55567932128906 106.9262924194336 139.11068725585938" stroke-width="1.0" fill="rgb(58, 77, 111)" opacity="0.9957942"/>
    <path d="M 110.3516616821289 134.26235961914062 C 109.78443145751953 133.67991638183594 109.79685974121094 132.6298828125 110.47883605957031 131.71401977539062 C 111.75691986083984 130.10118103027344 114.22871398925781 131.0417022705078 114.4777603149414 133.57562255859375 C 114.7203369140625 135.25900268554688 111.6448745727539 136.30584716796875 110.3516616821289 134.26235961914062" stroke-width="1.0" fill="rgb(235, 196, 131)" opacity="0.9609331"/>
  </g>
</svg>
