<?xml version="1.0" ?>
<svg xmlns="http://www.w3.org/2000/svg" version="1.1" width="224" height="224">
  <defs/>
  <g>
    <path d="M 103.47576904296875 31.77265167236328 C 103.47576904296875 31.77265167236328 103.47576904296875 31.77265167236328 103.47576904296875 31.77265167236328 C 106.97879791259766 35.23789978027344 106.52545166015625 41.63875198364258 107.44695281982422 46.15068435668945 C 108.77586364746094 52.66339111328125 111.91740417480469 57.78940963745117 117.48268127441406 61.55762481689453 C 122.40573120117188 64.89175415039062 127.27396392822266 64.37693786621094 132.86813354492188 63.86581039428711 C 136.68968200683594 63.51691818237305 140.574951171875 63.331729888916016 144.3913116455078 63.84580993652344 C 148.1898956298828 64.35767364501953 153.18553161621094 65.73918151855469 155.15817260742188 69.39776611328125 C 156.2618865966797 71.4459457397461 156.59967041015625 73.90080261230469 156.85153198242188 76.17936706542969 C 157.29153442382812 80.17053985595703 157.310791015625 84.2069091796875 157.33746337890625 88.21735382080078 C 157.41375732421875 99.63162994384766 157.26190185546875 111.08293914794922 158.88192749023438 122.41351318359375 C 159.78416442871094 128.72918701171875 161.2056884765625 135.04409790039062 163.648681640625 140.955322265625 C 166.46873474121094 147.77914428710938 170.5977020263672 154.04592895507812 174.90072631835938 160.0126953125 C 180.2030487060547 167.36614990234375 185.98019409179688 174.45147705078125 192.15658569335938 181.0923309326172 C 188.63284301757812 184.62646484375 185.10980224609375 188.16134643554688 181.58604431152344 191.69546508789062 C 163.79461669921875 181.26565551757812 146.003173828125 170.83511352539062 128.21176147460938 160.40530395507812 C 115.48190307617188 138.1663818359375 102.75131225585938 115.92821502685547 90.02145385742188 93.68930053710938 C 77.98420715332031 81.5283432006836 65.94769287109375 69.36665344238281 53.91044616699219 57.20569610595703 C 64.33656311035156 48.86035919189453 74.99526977539062 40.2416877746582 86.78955078125 33.90083694458008 C 91.91630554199219 31.145233154296875 98.10604095458984 27.99999237060547 103.47576904296875 31.77265167236328 C 103.47576904296875 31.77265167236328 103.47576904296875 31.77265167236328 103.47576904296875 31.77265167236328" stroke-width="0.0" fill="rgb(164, 193, 233)" opacity="1.0" stroke="rgb(0, 0, 0)" stroke-opacity="1.0" stroke-linecap="round" stroke-linejoin="round"/>
    <path d="M 78.2708740234375 36.11642837524414 C 78.2708740234375 36.11642837524414 78.2708740234375 36.11642837524414 78.2708740234375 36.11642837524414 C 83.23319244384766 37.786094665527344 85.42803955078125 43.66323471069336 87.11473846435547 48.15960693359375 C 90.74295043945312 57.83533477783203 93.5600357055664 68.11255645751953 94.4104232788086 78.43569946289062 C 94.84598541259766 83.72171783447266 94.8096923828125 89.44329833984375 90.48442840576172 93.22929382324219 C 77.4153060913086 80.15795135498047 64.34693145751953 67.08734893798828 51.2785530090332 54.01601028442383 C 56.57049560546875 49.18407440185547 62.129852294921875 44.518802642822266 68.07292175292969 40.50836181640625 C 70.95668029785156 38.562400817871094 74.60636901855469 35.852725982666016 78.2708740234375 36.11642837524414 C 78.2708740234375 36.11642837524414 78.2708740234375 36.11642837524414 78.2708740234375 36.11642837524414" stroke-width="0.0" fill="rgb(28, 140, 234)" opacity="1.0" stroke="rgb(0, 0, 0)" stroke-opacity="1.0" stroke-linecap="round" stroke-linejoin="round"/>
    <path d="M 54.13341522216797 53.19969940185547 C 54.13341522216797 53.19969940185547 54.13341522216797 53.19969940185547 54.13341522216797 53.19969940185547 C 62.72690200805664 61.79392623901367 71.32112884521484 70.38740539550781 79.91461181640625 78.98015594482422 C 87.20881652832031 86.27362060546875 94.55709075927734 93.14188385009766 100.0838623046875 101.92130279541016 C 106.80323791503906 112.5955581665039 111.9662857055664 124.15946960449219 117.80712890625 135.31521606445312 C 122.48054504394531 144.2398223876953 127.4658203125 153.0133056640625 135.11337280273438 159.73268127441406 C 143.6905517578125 167.26986694335938 153.59738159179688 173.40032958984375 163.6168212890625 178.8167266845703 C 166.7635498046875 180.5175018310547 169.9539794921875 182.1449432373047 173.21255493164062 183.62051391601562 C 174.85629272460938 184.36422729492188 176.605224609375 185.27389526367188 178.364501953125 185.711669921875 C 179.54896545410156 186.0057373046875 180.09564208984375 186.13760375976562 181.3023223876953 185.94500732421875 C 185.11721801757812 185.33685302734375 186.73797607421875 181.8812255859375 189.7706298828125 180.08489990234375 C 191.3876953125 179.12783813476562 193.28179931640625 179.62193298339844 194.014404296875 181.47010803222656 C 195.00405883789062 183.9679412841797 191.24176025390625 186.63909912109375 189.80767822265625 188.07394409179688 C 188.29579162597656 189.5865478515625 186.78317260742188 191.09918212890625 185.26980590820312 192.61105346679688 C 184.53646850585938 193.34439086914062 183.83645629882812 194.20294189453125 182.90975952148438 194.70440673828125 C 180.51416015625 196.0 177.37188720703125 195.90887451171875 174.74221801757812 195.7607421875 C 167.7006072998047 195.36444091796875 160.6997528076172 193.48440551757812 154.04925537109375 191.22805786132812 C 142.01199340820312 187.144287109375 130.06735229492188 181.27084350585938 120.85163116455078 172.36996459960938 C 92.17037963867188 143.68870544433594 63.4891357421875 115.00746154785156 34.807891845703125 86.32621002197266 C 29.869285583496094 80.79573822021484 28.995933532714844 72.757080078125 30.544105529785156 65.70510864257812 C 31.150047302246094 62.944313049316406 32.17228698730469 60.15463638305664 33.929351806640625 57.907928466796875 C 35.77235412597656 55.55158996582031 38.30647277832031 54.754539489746094 40.982810974121094 53.6878547668457 C 43.91249465942383 52.52042770385742 47.8614501953125 50.31001663208008 51.142250061035156 51.2589225769043 C 52.35560607910156 51.61003875732422 53.213401794433594 52.38190460205078 54.13341522216797 53.19969940185547 C 54.13341522216797 53.19969940185547 54.13341522216797 53.19969940185547 54.13341522216797 53.19969940185547" stroke-width="0.0" fill="rgb(70, 98, 225)" opacity="1.0" stroke="rgb(0, 0, 0)" stroke-opacity="1.0" stroke-linecap="round" stroke-linejoin="round"/>
    <path d="M 43.21470642089844 52.44264602661133 C 43.21470642089844 52.44264602661133 43.21470642089844 52.44264602661133 43.21470642089844 52.44264602661133 C 45.88141632080078 51.28114700317383 49.05036163330078 49.54111099243164 51.87411880493164 51.24781036376953 C 52.88079833984375 51.8559684753418 53.28081130981445 52.35968017578125 54.13341522216797 53.19969940185547 C 54.13341522216797 53.19969940185547 54.13341522216797 53.19969940185547 54.13341522216797 53.19969940185547 C 62.72690200805664 61.79392623901367 71.32112884521484 70.38740539550781 79.91461181640625 78.98015594482422 C 84.49839782714844 83.56319427490234 89.33255767822266 87.99364471435547 93.57929992675781 92.89447021484375 C 92.39334869384766 94.07967376708984 91.20740509033203 95.265625 90.02145385742188 96.45157623291016 C 87.51622772216797 98.36345672607422 85.16655731201172 98.36345672607422 82.66133117675781 96.45157623291016 C 68.29292297363281 82.30020904541016 53.925262451171875 68.14958953857422 39.556861877441406 53.99822998046875 C 40.78355407714844 53.4945182800293 42.0006103515625 52.975250244140625 43.21470642089844 52.44264602661133 C 43.21470642089844 52.44264602661133 43.21470642089844 52.44264602661133 43.21470642089844 52.44264602661133" stroke-width="0.0" fill="rgb(255, 67, 111)" opacity="1.0" stroke="rgb(0, 0, 0)" stroke-opacity="1.0" stroke-linecap="round" stroke-linejoin="round"/>
  </g>
</svg>
