<?xml version="1.0" ?>
<svg xmlns="http://www.w3.org/2000/svg" version="1.1" width="224" height="224">
  <defs/>
  <g>
    <path d="M 54.58989715576172 33.380760192871094 C 54.58989715576172 33.380760192871094 54.58989715576172 33.380760192871094 54.58989715576172 33.380760192871094 C 59.619720458984375 29.706039428710938 65.57215881347656 30.224586486816406 69.88664245605469 34.71940231323242 C 71.19535064697266 36.27803039550781 72.50405883789062 37.8374137878418 73.81277465820312 39.39604568481445 C 62.72351837158203 48.70219039916992 51.633514404296875 58.007591247558594 40.54425048828125 67.31373596191406 C 39.23479461669922 65.75360870361328 37.92607879638672 64.1934814453125 36.61737060546875 62.634098052978516 C 32.943397521972656 57.60427474975586 33.46569061279297 51.652591705322266 37.95526885986328 47.336612701416016 C 43.500640869140625 42.684661865234375 49.04527282714844 38.03270721435547 54.58989715576172 33.380760192871094" stroke-width="0.0" fill="rgb(254, 27, 63)" opacity="1.0"/>
    <path d="M 168.24581909179688 33.380760192871094 C 173.7911834716797 38.03270721435547 179.3358154296875 42.684661865234375 184.8804473876953 47.336612701416016 C 189.3707733154297 51.652591705322266 189.89529418945312 57.60427474975586 186.2183380126953 62.634098052978516 C 184.9096221923828 64.1934814453125 183.60092163085938 65.75360870361328 182.29220581054688 67.31373596191406 C 171.20370483398438 58.007591247558594 160.11444091796875 48.70219039916992 149.0259246826172 39.39604568481445 C 150.33389282226562 37.8374137878418 151.641845703125 36.27803039550781 152.94906616210938 34.71940231323242 C 157.26504516601562 30.226829528808594 163.21673583984375 29.704544067382812 168.24581909179688 33.380760192871094 C 168.24581909179688 33.380760192871094 168.24581909179688 33.380760192871094 168.24581909179688 33.380760192871094" stroke-width="0.0" fill="rgb(254, 27, 63)" opacity="1.0"/>
    <path d="M 103.27638244628906 28.0 C 108.47830200195312 28.0 113.68022918701172 28.0 118.88215637207031 28.0 C 125.09648132324219 28.41827392578125 129.32342529296875 32.6414794921875 129.74168395996094 38.85654830932617 C 129.74168395996094 41.11854553222656 129.74168395996094 43.38054656982422 129.74168395996094 45.642539978027344 C 117.30032348632812 45.642539978027344 104.85820770263672 45.642539978027344 92.41683959960938 45.642539978027344 C 92.41683959960938 43.38054656982422 92.41683959960938 41.11854553222656 92.41683959960938 38.85654830932617 C 92.83511352539062 32.6414794921875 97.06205749511719 28.41827392578125 103.27638244628906 28.0 C 103.27638244628906 28.0 103.27638244628906 28.0 103.27638244628906 28.0" stroke-width="0.0" fill="rgb(254, 27, 63)" opacity="1.0"/>
    <path d="M 42.39844512939453 75.4997329711914 C 88.63735961914062 75.4997329711914 134.8762664794922 75.4997329711914 181.11517333984375 75.4997329711914 C 187.29957580566406 86.41015625 191.012451171875 98.49759674072266 191.70684814453125 111.04147338867188 C 192.31817626953125 122.10005950927734 190.6510467529297 133.25741577148438 186.76382446289062 143.63133239746094 C 183.1856231689453 153.18215942382812 177.75772094726562 162.01690673828125 170.87745666503906 169.54443359375 C 164.35110473632812 176.68508911132812 156.53623962402344 182.63304138183594 147.90652465820312 187.0066375732422 C 140.4066925048828 190.80780029296875 132.3097381591797 193.40728759765625 123.99877166748047 194.68157958984375 C 115.40422821044922 196.0 106.59193420410156 195.919189453125 98.02432250976562 194.43838500976562 C 71.3307876586914 189.82534790039062 48.26857376098633 171.35446166992188 37.83628845214844 146.36697387695312 C 33.767234802246094 136.62159729003906 31.689308166503906 126.09652709960938 31.686317443847656 115.53853607177734 C 31.68182373046875 101.45174407958984 35.46728515625 87.73233795166016 42.39844512939453 75.4997329711914 C 42.39844512939453 75.4997329711914 42.39844512939453 75.4997329711914 42.39844512939453 75.4997329711914" stroke-width="0.0" fill="rgb(1, 190, 241)" opacity="1.0"/>
    <path d="M 74.37097930908203 37.883056640625 C 74.37097930908203 37.883056640625 74.37097930908203 37.883056640625 74.37097930908203 37.883056640625 C 75.94308471679688 37.29267501831055 76.37183380126953 36.99786376953125 77.99630737304688 36.854942321777344 C 81.58049011230469 36.540672302246094 85.52982330322266 39.12442398071289 88.78926086425781 40.32987976074219 C 95.10833740234375 42.66595458984375 101.68182373046875 44.41389465332031 108.42816925048828 44.84639358520508 C 116.38519287109375 45.355960845947266 124.36766815185547 43.75243377685547 131.9004364013672 41.28091812133789 C 134.6375732421875 40.38300704956055 137.341796875 39.36835861206055 139.99514770507812 38.245216369628906 C 141.80145263671875 37.481239318847656 143.48504638671875 36.67760467529297 145.51731872558594 36.855690002441406 C 149.48611450195312 37.20288848876953 153.59706115722656 40.05227279663086 156.91412353515625 42.10475540161133 C 165.24603271484375 47.25954055786133 172.58648681640625 53.932552337646484 178.78659057617188 61.501976013183594 C 180.9273681640625 64.11566162109375 183.75205993652344 67.03688049316406 184.26239013671875 70.50508117675781 C 184.68215942382812 73.36194610595703 183.3008575439453 75.86264038085938 182.52117919921875 78.50999450683594 C 181.52374267578125 81.89738464355469 181.43618774414062 85.45687103271484 181.9741973876953 88.93030548095703 C 182.55484008789062 92.68583679199219 183.9698028564453 96.25655364990234 184.76296997070312 99.97392272949219 C 186.0709228515625 106.10294342041016 186.595458984375 112.39208984375 186.33880615234375 118.65355682373047 C 185.17227172851562 147.0770721435547 167.29177856445312 172.96249389648438 141.1504669189453 184.17147827148438 C 133.79354858398438 187.3253936767578 125.93303680419922 189.27236938476562 117.95580291748047 189.9278564453125 C 109.30363464355469 190.63870239257812 100.53324890136719 189.8552703857422 92.1541976928711 187.58056640625 C 67.89251708984375 180.99508666992188 48.10844802856445 161.97573852539062 40.55323791503906 138.00064086914062 C 37.117958068847656 127.0999526977539 36.24324035644531 115.41807556152344 37.98968505859375 104.12378692626953 C 38.78807830810547 98.95777893066406 40.74104309082031 94.07760620117188 41.53944396972656 88.94377136230469 C 42.08043670654297 85.46734619140625 41.994384765625 81.90412139892578 40.99620056152344 78.51223754882812 C 40.216514587402344 75.86338806152344 38.83372497558594 73.36344146728516 39.254241943359375 70.50508117675781 C 39.87755584716797 66.2691650390625 43.918914794921875 62.36547088623047 46.626136779785156 59.25569152832031 C 54.384124755859375 50.34014129638672 63.72244644165039 43.02661895751953 74.37097930908203 37.883056640625 C 74.37097930908203 37.883056640625 74.37097930908203 37.883056640625 74.37097930908203 37.883056640625" stroke-width="0.0" fill="rgb(76, 234, 192)" opacity="1.0"/>
    <path d="M 73.75740051269531 90.43132019042969 C 73.75740051269531 90.43132019042969 73.75740051269531 90.43132019042969 73.75740051269531 90.43132019042969 C 99.09133911132812 90.43132019042969 124.42528533935547 90.43132019042969 149.75921630859375 90.43132019042969 C 149.75921630859375 90.43132019042969 149.75921630859375 90.43132019042969 149.75921630859375 90.43132019042969 C 155.9735565185547 90.84960174560547 160.19747924804688 95.07205200195312 160.61502075195312 101.28712463378906 C 160.61502075195312 101.28712463378906 160.61502075195312 101.28712463378906 160.61502075195312 101.28712463378906 C 160.61502075195312 110.7878189086914 160.61502075195312 120.28851318359375 160.61502075195312 129.78921508789062 C 160.61502075195312 129.78921508789062 160.61502075195312 129.78921508789062 160.61502075195312 129.78921508789062 C 160.19747924804688 136.0035400390625 155.97279357910156 140.2267303466797 149.75921630859375 140.64501953125 C 149.75921630859375 140.64501953125 149.75921630859375 140.64501953125 149.75921630859375 140.64501953125 C 124.42528533935547 140.64501953125 99.09133911132812 140.64501953125 73.75740051269531 140.64501953125 C 73.75740051269531 140.64501953125 73.75740051269531 140.64501953125 73.75740051269531 140.64501953125 C 67.5438232421875 140.2267303466797 63.3176383972168 136.0035400390625 62.89936065673828 129.78921508789062 C 62.89936065673828 129.78921508789062 62.89936065673828 129.78921508789062 62.89936065673828 129.78921508789062 C 62.89936065673828 120.28851318359375 62.89936065673828 110.7878189086914 62.89936065673828 101.28712463378906 C 62.89936065673828 101.28712463378906 62.89936065673828 101.28712463378906 62.89936065673828 101.28712463378906 C 63.316890716552734 95.07205200195312 67.54307556152344 90.84960174560547 73.75740051269531 90.43132019042969 C 73.75740051269531 90.43132019042969 73.75740051269531 90.43132019042969 73.75740051269531 90.43132019042969" stroke-width="0.0" fill="rgb(71, 98, 225)" opacity="1.0"/>
    <path d="M 112.09615325927734 99.92902374267578 C 112.09615325927734 99.92902374267578 112.09615325927734 99.92902374267578 112.09615325927734 99.92902374267578 C 117.7545166015625 100.34430694580078 121.52352142333984 104.11256408691406 121.93805694580078 109.77092742919922 C 121.93805694580078 113.6155014038086 121.93805694580078 117.46083068847656 121.93805694580078 121.30540466308594 C 121.7607192993164 123.72827911376953 121.15462493896484 125.88626098632812 119.52416229248047 127.75992584228516 C 115.29872131347656 132.61764526367188 107.34917449951172 132.06167602539062 103.8420639038086 126.66221618652344 C 102.75933074951172 124.99584197998047 102.3994140625 123.25238037109375 102.25650024414062 121.30540466308594 C 102.25650024414062 117.46083068847656 102.25650024414062 113.6155014038086 102.25650024414062 109.77092742919922 C 102.67178344726562 104.11405944824219 106.43778991699219 100.34430694580078 112.09615325927734 99.92902374267578 C 112.09615325927734 99.92902374267578 112.09615325927734 99.92902374267578 112.09615325927734 99.92902374267578" stroke-width="0.0" fill="rgb(254, 254, 254)" opacity="1.0"/>
    <path d="M 86.98968505859375 99.92902374267578 C 86.98968505859375 99.92902374267578 86.98968505859375 99.92902374267578 86.98968505859375 99.92902374267578 C 92.64730072021484 100.34430694580078 96.4133071899414 104.11405944824219 96.8285903930664 109.77092742919922 C 96.8285903930664 113.6155014038086 96.8285903930664 117.46083068847656 96.8285903930664 121.30540466308594 C 96.68567657470703 123.25238037109375 96.32575988769531 124.99584197998047 95.24302673339844 126.66221618652344 C 91.73591613769531 132.06094360351562 83.78861999511719 132.61839294433594 79.56317138671875 127.75992584228516 C 77.93270874023438 125.88626098632812 77.32736206054688 123.72827911376953 77.14927673339844 121.30540466308594 C 77.14927673339844 117.46083068847656 77.14927673339844 113.6155014038086 77.14927673339844 109.77092742919922 C 77.56456756591797 104.11405944824219 81.3313217163086 100.34430694580078 86.98968505859375 99.92902374267578 C 86.98968505859375 99.92902374267578 86.98968505859375 99.92902374267578 86.98968505859375 99.92902374267578" stroke-width="0.0" fill="rgb(254, 254, 254)" opacity="1.0"/>
    <path d="M 137.2056121826172 99.92902374267578 C 137.2056121826172 99.92902374267578 137.2056121826172 99.92902374267578 137.2056121826172 99.92902374267578 C 142.8632354736328 100.34430694580078 146.62998962402344 104.11405944824219 147.04452514648438 109.77092742919922 C 147.04452514648438 113.6155014038086 147.04452514648438 117.46083068847656 147.04452514648438 121.30540466308594 C 146.8671875 123.72827911376953 146.26109313964844 125.88626098632812 144.63137817382812 127.75992584228516 C 140.4066925048828 132.61839294433594 132.45863342285156 132.06094360351562 128.95152282714844 126.66221618652344 C 127.86878967285156 124.99584197998047 127.5096206665039 123.25238037109375 127.36670684814453 121.30540466308594 C 127.36670684814453 117.46083068847656 127.36670684814453 113.6155014038086 127.36670684814453 109.77092742919922 C 127.78124237060547 104.11405944824219 131.54800415039062 100.34430694580078 137.2056121826172 99.92902374267578 C 137.2056121826172 99.92902374267578 137.2056121826172 99.92902374267578 137.2056121826172 99.92902374267578" stroke-width="0.0" fill="rgb(254, 254, 254)" opacity="1.0"/>
    <path d="M 112.09615325927734 105.35991668701172 C 112.09615325927734 105.35991668701172 112.09615325927734 105.35991668701172 112.09615325927734 105.35991668701172 C 109.3994140625 105.79541015625 108.12213134765625 107.07493591308594 107.68738555908203 109.77092742919922 C 107.68738555908203 113.6155014038086 107.68738555908203 117.46083068847656 107.68738555908203 121.30540466308594 C 107.88268280029297 122.51609802246094 107.79439544677734 122.89097595214844 108.53816223144531 123.91011047363281 C 110.26740264892578 126.27984619140625 113.92640686035156 126.27984619140625 115.65638732910156 123.91011047363281 C 116.40016174316406 122.89097595214844 116.3118667602539 122.51609802246094 116.50716400146484 121.30540466308594 C 116.50716400146484 117.46083068847656 116.50716400146484 113.6155014038086 116.50716400146484 109.77092742919922 C 116.0716781616211 107.07344055175781 114.79364013671875 105.79541015625 112.09615325927734 105.35991668701172 C 112.09615325927734 105.35991668701172 112.09615325927734 105.35991668701172 112.09615325927734 105.35991668701172" stroke-width="0.0" fill="rgb(71, 98, 225)" opacity="1.0"/>
    <path d="M 86.98968505859375 105.35991668701172 C 86.98968505859375 105.35991668701172 86.98968505859375 105.35991668701172 86.98968505859375 105.35991668701172 C 84.29145050048828 105.79541015625 83.01266479492188 107.07344055175781 82.57792663574219 109.77092742919922 C 82.57792663574219 113.6155014038086 82.57792663574219 117.46083068847656 82.57792663574219 121.30540466308594 C 82.77322387695312 122.51609802246094 82.68417358398438 122.89097595214844 83.42870330810547 123.91011047363281 C 85.15869140625 126.27984619140625 88.8191909790039 126.27984619140625 90.5491714477539 123.91011047363281 C 91.29369354248047 122.89097595214844 91.20539855957031 122.51609802246094 91.40069580078125 121.30540466308594 C 91.40069580078125 117.46083068847656 91.40069580078125 113.6155014038086 91.40069580078125 109.77092742919922 C 90.9652099609375 107.07344055175781 89.68717193603516 105.79541015625 86.98968505859375 105.35991668701172 C 86.98968505859375 105.35991668701172 86.98968505859375 105.35991668701172 86.98968505859375 105.35991668701172" stroke-width="0.0" fill="rgb(71, 98, 225)" opacity="1.0"/>
    <path d="M 137.2056121826172 105.35991668701172 C 137.2056121826172 105.35991668701172 137.2056121826172 105.35991668701172 137.2056121826172 105.35991668701172 C 134.5081329345703 105.79541015625 133.22935485839844 107.07344055175781 132.7946014404297 109.77092742919922 C 132.7946014404297 113.6155014038086 132.7946014404297 117.46083068847656 132.7946014404297 121.30540466308594 C 132.98989868164062 122.51609802246094 132.901611328125 122.89097595214844 133.6453857421875 123.91011047363281 C 135.3753662109375 126.27984619140625 139.03587341308594 126.27984619140625 140.76585388183594 123.91011047363281 C 141.50962829589844 122.89097595214844 141.42132568359375 122.51609802246094 141.61663818359375 121.30540466308594 C 141.61663818359375 117.46083068847656 141.61663818359375 113.6155014038086 141.61663818359375 109.77092742919922 C 141.181884765625 107.07344055175781 139.90310668945312 105.79541015625 137.2056121826172 105.35991668701172 C 137.2056121826172 105.35991668701172 137.2056121826172 105.35991668701172 137.2056121826172 105.35991668701172" stroke-width="0.0" fill="rgb(71, 98, 225)" opacity="1.0"/>
  </g>
</svg>
