<?xml version="1.0" ?>
<svg xmlns="http://www.w3.org/2000/svg" version="1.1" width="224" height="224">
  <defs/>
  <g>
    <path d="M 151.98587036132812 29.061805725097656 C 151.98587036132812 29.061805725097656 151.98587036132812 29.061805725097656 151.98587036132812 29.061805725097656 C 157.33822631835938 30.926513671875 159.9976043701172 35.53789520263672 158.93728637695312 41.105140686035156 C 156.22193908691406 51.23974609375 153.506591796875 61.37360382080078 150.79124450683594 71.50820922851562 C 160.92510986328125 68.7921142578125 171.05821228027344 66.07601928710938 181.1913299560547 63.35993194580078 C 183.10826110839844 62.99430465698242 184.88491821289062 62.890586853027344 186.77423095703125 63.50469207763672 C 192.8921661376953 65.49400329589844 195.48587036132812 73.0214614868164 191.88931274414062 78.35589599609375 C 190.50140380859375 80.41460418701172 188.57476806640625 81.5570068359375 186.28176879882812 82.35466766357422 C 168.7017822265625 87.06529998779297 151.12179565429688 91.77592468261719 133.5418243408203 96.4873046875 C 130.9645233154297 93.90999603271484 128.38722229003906 91.33270263671875 125.80990600585938 88.7553939819336 C 130.52053833007812 71.1754150390625 135.23191833496094 53.59543228149414 139.9425506591797 36.01544952392578 C 141.8072509765625 30.66236114501953 146.41714477539062 28.0 151.98587036132812 29.061805725097656 C 151.98587036132812 29.061805725097656 151.98587036132812 29.061805725097656 151.98587036132812 29.061805725097656" stroke-width="0.0" fill="rgb(76, 235, 192)" opacity="1.0" stroke="rgb(0, 0, 0)" stroke-opacity="1.0" stroke-linecap="round" stroke-linejoin="round"/>
    <path d="M 170.46499633789062 37.929405212402344 C 170.46499633789062 37.929405212402344 170.46499633789062 37.929405212402344 170.46499633789062 37.929405212402344 C 172.30209350585938 36.34227752685547 174.2541046142578 35.24613952636719 176.72918701171875 35.07377624511719 C 183.14706420898438 34.626068115234375 188.36956787109375 40.63654327392578 187.03317260742188 46.92906951904297 C 186.6205291748047 48.87211990356445 185.6422882080078 50.35776138305664 184.3670654296875 51.8351936340332 C 169.6904754638672 66.51179504394531 155.01461791992188 81.18914031982422 140.3380126953125 95.86648559570312 C 135.70350646972656 91.23121643066406 131.0682373046875 86.59595489501953 126.4337158203125 81.96068572998047 C 141.11105346679688 67.28408813476562 155.78765869140625 52.606746673583984 170.46499633789062 37.929405212402344" stroke-width="0.0" fill="rgb(0, 226, 165)" opacity="1.0" stroke="rgb(0, 0, 0)" stroke-opacity="1.0" stroke-linecap="round" stroke-linejoin="round"/>
    <path d="M 111.13854217529297 62.95774459838867 C 127.82310485839844 79.64305877685547 144.50765991210938 96.328369140625 161.19223022460938 113.0144271850586 C 162.53237915039062 114.55528259277344 163.16140747070312 115.06343078613281 164.05308532714844 116.84904479980469 C 164.59332275390625 117.93248748779297 164.9104461669922 119.07115936279297 164.96044921875 120.28071594238281 C 165.22085571289062 126.64712524414062 158.31869506835938 129.44378662109375 153.7162628173828 132.03005981445312 C 152.7275848388672 132.58596801757812 151.7388916015625 133.14260864257812 150.7501983642578 133.69924926757812 C 149.16159057617188 134.59317016601562 147.57296752929688 135.48785400390625 145.98435974121094 136.3832550048828 C 144.1271209716797 137.43014526367188 142.26913452148438 138.477783203125 140.41189575195312 139.52542114257812 C 109.01117706298828 157.2367401123047 77.630615234375 174.98609924316406 46.25079345703125 192.7339630126953 C 46.25079345703125 192.7339630126953 46.25079345703125 192.7339630126953 46.25079345703125 192.7339630126953 C 43.9092903137207 193.97860717773438 41.4931640625 195.20306396484375 38.81288146972656 195.47915649414062 C 33.755279541015625 196.0 28.79766845703125 191.81393432617188 28.622314453125 186.67648315429688 C 28.514122009277344 183.51791381835938 29.97663116455078 180.61004638671875 31.418243408203125 177.90216064453125 C 31.418243408203125 177.90216064453125 31.418243408203125 177.90216064453125 31.418243408203125 177.90216064453125 C 49.165374755859375 146.52084350585938 66.91399383544922 115.14028930664062 84.62454986572266 83.73808288574219 C 85.67218780517578 81.88084411621094 86.7198257446289 80.02285766601562 87.76671600341797 78.16561889648438 C 88.66138458251953 76.57701110839844 89.55679321289062 74.98838806152344 90.45072174072266 73.39977264404297 C 91.00736999511719 72.41108703613281 91.56327819824219 71.42239379882812 92.11917877197266 70.43296813964844 C 94.7061767578125 65.83053588867188 97.50286102294922 58.932106018066406 103.87000274658203 59.1910285949707 C 105.07955932617188 59.24027633666992 106.21897888183594 59.55739974975586 107.30243682861328 60.097633361816406 C 109.08878326416016 60.98857116699219 109.59693145751953 61.61760330200195 111.13854217529297 62.95774459838867 C 111.13854217529297 62.95774459838867 111.13854217529297 62.95774459838867 111.13854217529297 62.95774459838867" stroke-width="0.0" fill="rgb(252, 149, 2)" opacity="1.0" stroke="rgb(0, 0, 0)" stroke-opacity="1.0" stroke-linecap="round" stroke-linejoin="round"/>
    <path d="M 102.33138275146484 80.10568237304688 C 102.33138275146484 80.10568237304688 102.33138275146484 80.10568237304688 102.33138275146484 80.10568237304688 C 103.90731811523438 79.2013168334961 104.46321868896484 79.20206451416016 106.0398941040039 80.10568237304688 C 111.29299926757812 85.3587875366211 116.54534912109375 90.61263275146484 121.79845428466797 95.86648559570312 C 122.0252914428711 96.26270294189453 122.36107635498047 96.61415100097656 122.4797134399414 97.05439758300781 C 122.99308776855469 98.94894409179688 121.17240905761719 100.77037048339844 119.27786254882812 100.25625610351562 C 118.83686828613281 100.13611602783203 118.48542022705078 99.80033874511719 118.08919525146484 99.57275390625 C 112.83684539794922 94.31965637207031 107.583740234375 89.06729888916016 102.33138275146484 83.81419372558594 C 101.42402648925781 82.23751831054688 101.42552947998047 81.68235778808594 102.33138275146484 80.10568237304688 C 102.33138275146484 80.10568237304688 102.33138275146484 80.10568237304688 102.33138275146484 80.10568237304688" stroke-width="0.0" fill="rgb(255, 81, 52)" opacity="1.0" stroke="rgb(0, 0, 0)" stroke-opacity="1.0" stroke-linecap="round" stroke-linejoin="round"/>
    <path d="M 61.082603454589844 144.53004455566406 C 61.082603454589844 144.53004455566406 61.082603454589844 144.53004455566406 61.082603454589844 144.53004455566406 C 62.657039642333984 143.6264190673828 63.212196350097656 143.6264190673828 64.78738403320312 144.53004455566406 C 70.04122924804688 149.7838897705078 75.29507446289062 155.03773498535156 80.54891967773438 160.29159545898438 C 80.77576446533203 160.6870574951172 81.11079406738281 161.03851318359375 81.23018646240234 161.47950744628906 C 81.74281311035156 163.37330627441406 79.92288208007812 165.19473266601562 78.02833557128906 164.6806182861328 C 77.58734130859375 164.56048583984375 77.23588562011719 164.22470092773438 76.83966827392578 163.99636840820312 C 71.58731079101562 158.7440185546875 66.3349609375 153.49166870117188 61.082603454589844 148.2393035888672 C 60.17524719238281 146.66262817382812 60.175994873046875 146.1074676513672 61.082603454589844 144.53004455566406 C 61.082603454589844 144.53004455566406 61.082603454589844 144.53004455566406 61.082603454589844 144.53004455566406" stroke-width="0.0" fill="rgb(255, 81, 52)" opacity="1.0" stroke="rgb(0, 0, 0)" stroke-opacity="1.0" stroke-linecap="round" stroke-linejoin="round"/>
    <path d="M 115.7738037109375 128.77223205566406 C 115.7738037109375 128.77223205566406 115.7738037109375 128.77223205566406 115.7738037109375 128.77223205566406 C 117.34898376464844 127.86861419677734 117.90414428710938 127.86861419677734 119.47857666015625 128.77223205566406 C 124.28771209716797 133.58135986328125 129.09683227539062 138.39048767089844 133.9059600830078 143.19886779785156 C 132.3255615234375 144.09054565429688 130.7458953857422 144.9814910888672 129.16622924804688 145.87391662597656 C 124.70183563232422 141.40953063964844 120.23819732666016 136.9451446533203 115.7738037109375 132.48074340820312 C 114.86719512939453 130.90406799316406 114.86719512939453 130.3496551513672 115.7738037109375 128.77223205566406 C 115.7738037109375 128.77223205566406 115.7738037109375 128.77223205566406 115.7738037109375 128.77223205566406" stroke-width="0.0" fill="rgb(255, 81, 52)" opacity="1.0" stroke="rgb(0, 0, 0)" stroke-opacity="1.0" stroke-linecap="round" stroke-linejoin="round"/>
    <path d="M 68.24293518066406 112.75774383544922 C 72.9625244140625 117.47806549072266 77.68209838867188 122.19914245605469 82.40168762207031 126.91947174072266 C 82.6292724609375 127.3156967163086 82.96430206298828 127.66714477539062 83.08369445800781 128.10739135742188 C 83.59706115722656 130.00343322753906 81.77862548828125 131.82261657714844 79.88258361816406 131.30923461914062 C 79.44158935546875 131.1898651123047 79.08939361572266 130.85482788085938 78.69317626953125 130.62799072265625 C 74.31608581542969 126.25090026855469 69.93900299072266 121.87455749511719 65.56266021728516 117.49821472167969 C 66.45658874511719 115.91780853271484 67.34976196289062 114.33814239501953 68.24293518066406 112.75774383544922 C 68.24293518066406 112.75774383544922 68.24293518066406 112.75774383544922 68.24293518066406 112.75774383544922" stroke-width="0.0" fill="rgb(255, 81, 52)" opacity="1.0" stroke="rgb(0, 0, 0)" stroke-opacity="1.0" stroke-linecap="round" stroke-linejoin="round"/>
    <path d="M 42.80121612548828 157.7687530517578 C 44.87708282470703 159.84463500976562 46.95294952392578 161.92050170898438 49.029571533203125 163.99636840820312 C 49.25715637207031 164.39334106445312 49.592933654785156 164.74478149414062 49.713069915771484 165.18577575683594 C 50.2271842956543 167.080322265625 48.40576171875 168.90025329589844 46.511962890625 168.3868865966797 C 46.07096862792969 168.26824951171875 45.72026062011719 167.93246459960938 45.32404327392578 167.70562744140625 C 43.59067153930664 165.97225952148438 41.8572998046875 164.2388916015625 40.12391662597656 162.5047607421875 C 41.01709747314453 160.9265899658203 41.90953063964844 159.34767150878906 42.80121612548828 157.7687530517578 C 42.80121612548828 157.7687530517578 42.80121612548828 157.7687530517578 42.80121612548828 157.7687530517578" stroke-width="0.0" fill="rgb(255, 81, 52)" opacity="1.0" stroke="rgb(0, 0, 0)" stroke-opacity="1.0" stroke-linecap="round" stroke-linejoin="round"/>
  </g>
</svg>
