<?xml version="1.0" ?>
<svg xmlns="http://www.w3.org/2000/svg" version="1.1" width="224" height="224">
  <defs/>
  <g>
    <path d="M 34.52747344970703 152.70877075195312 C 33.86132049560547 151.67144775390625 33.946617126464844 133.49783325195312 34.04645538330078 112.25012969970703 L 34.1429443359375 69.69538879394531 L 190.3891143798828 69.50894165039062 L 190.357421875 154.28265380859375 L 113.08321380615234 154.14364624023438 C 50.61548614501953 153.7842254638672 33.416595458984375 153.8785400390625 34.52747344970703 152.70877075195312" stroke-width="0.0" fill="rgb(251, 187, 7)" opacity="0.99506295"/>
    <path d="M 89.90411376953125 150.06578063964844 L 89.43605041503906 110.74343872070312 L 135.91769409179688 110.79376983642578 L 136.09295654296875 189.41134643554688 L 89.58840942382812 189.3361053466797 L 89.90411376953125 150.06578063964844" stroke-width="1.0" fill="rgb(253, 253, 252)" opacity="1.0"/>
    <path d="M 30.087562561035156 71.30245971679688 C 28.0 68.40130615234375 28.4820556640625 65.20145416259766 30.717559814453125 62.69452667236328 C 32.690223693847656 60.75956726074219 54.639923095703125 41.93476104736328 60.77922058105469 36.751747131347656 L 63.69913101196289 34.23186492919922 L 160.5518035888672 34.262840270996094 L 163.67933654785156 36.840782165527344 C 169.90704345703125 41.52870178222656 193.93038940429688 62.55534362792969 194.81781005859375 64.51564025878906 C 195.91529846191406 67.09176635742188 196.0 68.09523010253906 194.33706665039062 70.98226928710938 C 192.469970703125 72.8038330078125 190.5207061767578 72.27485656738281 111.81324768066406 72.09315490722656 C 35.30939483642578 72.37034606933594 31.5382080078125 72.74079895019531 30.087562561035156 71.30245971679688" stroke-width="1.0" fill="rgb(212, 70, 24)" opacity="0.9904532"/>
    <path d="M 108.76454162597656 98.93965148925781 C 106.14779663085938 97.81524658203125 104.17952728271484 93.88641357421875 104.30237579345703 90.95723724365234 C 104.17749786376953 87.56944274902344 108.65083312988281 83.63632202148438 112.29974365234375 83.94654846191406 C 115.91448974609375 83.76908111572266 120.49776458740234 87.75625610351562 120.34720611572266 90.95016479492188 C 120.43531799316406 94.06607818603516 118.43689727783203 97.86613464355469 115.7078857421875 98.86753845214844 C 112.6546859741211 100.29347229003906 111.61311340332031 100.26754760742188 108.76454162597656 98.93965148925781" stroke-width="1.0" fill="rgb(169, 182, 198)" opacity="0.9964167"/>
    <path d="M 54.658714294433594 129.65499877929688 C 54.77170944213867 119.81780242919922 55.44956970214844 118.94963073730469 59.98064041137695 118.20962524414062 C 62.10532760620117 117.39444732666016 63.516963958740234 117.53877258300781 65.59081268310547 119.70223236083984 C 67.723876953125 121.8548355102539 67.79122924804688 122.87705993652344 67.93635559082031 130.65989685058594 L 67.39134216308594 138.87623596191406 L 54.725364685058594 138.970458984375 L 54.658714294433594 129.65499877929688" stroke-width="1.0" fill="rgb(161, 171, 184)" opacity="0.9919141"/>
    <path d="M 54.51094055175781 97.40232849121094 C 54.519508361816406 91.12039947509766 54.76418685913086 89.0071029663086 55.81205749511719 87.4414291381836 C 58.32266616821289 84.15414428710938 62.082149505615234 83.64756774902344 65.39617919921875 86.09961700439453 C 67.64176940917969 87.85882568359375 67.63716125488281 88.33097839355469 67.74943542480469 96.73261260986328 L 68.03460693359375 105.46318054199219 L 54.636634826660156 105.80172729492188 L 54.51094055175781 97.40232849121094" stroke-width="1.0" fill="rgb(162, 171, 182)" opacity="0.9897495"/>
    <path d="M 135.77037048339844 170.6375274658203 L 136.22181701660156 150.72235107421875 L 193.86634826660156 150.8331756591797 L 193.835205078125 165.8821563720703 C 193.89602661132812 178.89842224121094 193.72715759277344 181.07351684570312 191.94305419921875 183.77215576171875 C 188.73573303222656 189.42459106445312 186.87142944335938 189.7681427001953 160.36663818359375 189.6900177001953 L 135.9210205078125 189.67616271972656 L 135.77037048339844 170.6375274658203" stroke-width="1.0" fill="rgb(159, 169, 180)" opacity="0.96098226"/>
    <path d="M 156.79534912109375 130.4291229248047 C 156.7067108154297 120.86072540283203 157.4446563720703 119.24195098876953 162.489990234375 117.80095672607422 C 164.80880737304688 117.42928314208984 166.07260131835938 117.76132202148438 168.16244506835938 119.57347106933594 C 170.4164581298828 122.00777435302734 170.68402099609375 122.75961303710938 170.3017578125 130.18267822265625 L 170.00184631347656 138.57574462890625 L 163.35865783691406 138.8432159423828 L 156.86376953125 138.93247985839844 L 156.79534912109375 130.4291229248047" stroke-width="1.0" fill="rgb(162, 171, 182)" opacity="0.99314004"/>
    <path d="M 156.7373046875 97.14491271972656 C 156.70956420898438 87.6217041015625 158.16481018066406 84.72721862792969 163.393798828125 84.47523498535156 C 168.62826538085938 84.70710754394531 169.81619262695312 86.48271942138672 169.96075439453125 96.86653137207031 L 170.0154266357422 105.57069396972656 L 157.12811279296875 105.97883605957031 L 156.7373046875 97.14491271972656" stroke-width="1.0" fill="rgb(161, 170, 182)" opacity="0.9930961"/>
    <path d="M 36.55375671386719 187.294677734375 C 31.350379943847656 183.91920471191406 30.650054931640625 181.41000366210938 30.78850555419922 165.28221130371094 C 30.669166564941406 156.38328552246094 31.038330078125 150.8114776611328 32.163330078125 150.74301147460938 C 32.389686584472656 150.80862426757812 33.23394775390625 136.49429321289062 33.50701904296875 111.50518798828125 L 33.366615295410156 72.32601928710938 L 34.23735046386719 111.47221374511719 L 33.21074676513672 150.51483154296875 L 89.70418548583984 150.6900177001953 L 89.39936065673828 189.4033966064453 L 64.75167846679688 189.44931030273438 C 41.534725189208984 189.15890502929688 39.36699676513672 188.91326904296875 36.55375671386719 187.294677734375" stroke-width="1.0" fill="rgb(159, 169, 182)" opacity="0.95562625"/>
    <path d="M 103.39216613769531 150.3795623779297 C 103.35075378417969 139.3440399169922 103.57356262207031 138.68324279785156 105.89356231689453 136.57296752929688 C 108.91048431396484 133.3451690673828 112.44877624511719 132.65733337402344 116.48355865478516 134.3840789794922 C 121.5620346069336 136.37925720214844 122.39722442626953 138.16831970214844 122.4915542602539 150.66876220703125 L 122.17656707763672 162.14236450195312 L 103.48976135253906 162.1483154296875 L 103.39216613769531 150.3795623779297" stroke-width="1.0" fill="rgb(81, 100, 127)" opacity="0.9960224"/>
  </g>
</svg>
