<?xml version="1.0" ?>
<svg xmlns="http://www.w3.org/2000/svg" version="1.1" width="224" height="224">
  <defs/>
  <g>
    <path d="M 56.657405853271484 28.783424377441406 C 93.64281463623047 28.783424377441406 130.6282196044922 28.783424377441406 167.61363220214844 28.783424377441406 C 169.8533477783203 29.07904052734375 171.05880737304688 29.76934814453125 172.440185546875 31.5565185546875 C 179.6705322265625 44.22366714477539 186.90084838867188 56.89081573486328 194.13119506835938 69.55796813964844 C 196.0 72.35404205322266 195.92153930664062 76.07659149169922 192.71176147460938 77.95332336425781 C 191.568115234375 78.6214370727539 191.2059326171875 78.53900909423828 189.91726684570312 78.71337127685547 C 138.10107421875 78.71337127685547 86.28488159179688 78.71337127685547 34.46869659423828 78.71337127685547 C 29.987686157226562 78.12371826171875 27.99999237060547 74.56759643554688 29.641342163085938 70.39250183105469 C 37.03889465332031 57.447967529296875 44.4356689453125 44.50422286987305 51.83322525024414 31.55968475341797 C 53.21303176879883 29.76934814453125 54.41689682006836 29.07904052734375 56.657405853271484 28.783424377441406 C 56.657405853271484 28.783424377441406 56.657405853271484 28.783424377441406 56.657405853271484 28.783424377441406" stroke-width="0.0" fill="rgb(67, 145, 178)" opacity="1.0" stroke="rgb(0, 0, 0)" stroke-opacity="1.0" stroke-linecap="round" stroke-linejoin="round"/>
    <path d="M 28.920921325683594 73.16481018066406 C 84.39864349365234 73.16481018066406 139.87635803222656 73.16481018066406 195.3540802001953 73.16481018066406 C 195.3540802001953 112.0 195.3540802001953 150.83441162109375 195.3540802001953 189.66880798339844 C 194.9039306640625 192.99032592773438 193.12704467773438 194.7672119140625 189.80551147460938 195.21658325195312 C 138.02658081054688 195.21658325195312 86.24763488769531 195.21658325195312 34.46869659423828 195.21658325195312 C 31.14716339111328 194.7672119140625 29.37029266357422 192.99032592773438 28.920921325683594 189.66880798339844 C 28.920921325683594 150.83441162109375 28.920921325683594 112.0 28.920921325683594 73.16481018066406" stroke-width="0.0" fill="rgb(72, 177, 221)" opacity="1.0" stroke="rgb(0, 0, 0)" stroke-opacity="1.0" stroke-linecap="round" stroke-linejoin="round"/>
    <path d="M 78.90555572509766 106.4514389038086 C 101.09664154052734 106.4514389038086 123.28852081298828 106.4514389038086 145.4796142578125 106.4514389038086 C 147.01951599121094 106.65829467773438 148.2566680908203 106.92933654785156 149.40347290039062 108.07614135742188 C 151.93008422851562 110.60354614257812 151.37213134765625 114.98786926269531 148.28123474121094 116.78931427001953 C 147.13760375976562 117.45584106445312 146.76907348632812 117.37420654296875 145.4796142578125 117.54698181152344 C 123.28852081298828 117.54698181152344 101.09664154052734 117.54698181152344 78.90555572509766 117.54698181152344 C 77.61688232421875 117.37420654296875 77.24915313720703 117.45584106445312 76.10551452636719 116.78931427001953 C 73.01382446289062 114.98707580566406 72.45428466796875 110.60433959960938 74.98249053955078 108.07614135742188 C 76.1292953491211 106.92933654785156 77.36643981933594 106.65829467773438 78.90555572509766 106.4514389038086 C 78.90555572509766 106.4514389038086 78.90555572509766 106.4514389038086 78.90555572509766 106.4514389038086" stroke-width="0.0" fill="rgb(150, 206, 229)" opacity="1.0" stroke="rgb(0, 0, 0)" stroke-opacity="1.0" stroke-linecap="round" stroke-linejoin="round"/>
  </g>
</svg>
