<?xml version="1.0" ?>
<svg xmlns="http://www.w3.org/2000/svg" version="1.1" width="224" height="224">
  <defs/>
  <g>
    <path d="M 56.657413482666016 28.783424377441406 C 93.642822265625 28.783424377441406 130.62823486328125 28.783424377441406 167.6136474609375 28.783424377441406 C 169.85336303710938 29.07904052734375 171.05880737304688 29.76934814453125 172.44020080566406 31.5565185546875 C 179.6705322265625 44.223670959472656 186.90086364746094 56.890811920166016 194.13119506835938 69.55796813964844 C 196.0 72.35404205322266 195.92153930664062 76.07659149169922 192.71176147460938 77.95332336425781 C 191.56813049316406 78.6214370727539 191.2059326171875 78.53901672363281 189.91726684570312 78.71337127685547 C 138.10107421875 78.71337127685547 86.2848892211914 78.71337127685547 34.46870422363281 78.71337127685547 C 29.987693786621094 78.12371826171875 28.0 74.56759643554688 29.64134979248047 70.39250183105469 C 37.038902282714844 57.447967529296875 44.43567657470703 44.50422668457031 51.83323287963867 31.55968475341797 C 53.21303939819336 29.76934814453125 54.41690444946289 29.07904052734375 56.657413482666016 28.783424377441406 C 56.657413482666016 28.783424377441406 56.657413482666016 28.783424377441406 56.657413482666016 28.783424377441406" stroke-width="0.0" fill="rgb(67, 145, 178)" opacity="1.0"/>
    <path d="M 28.920936584472656 73.16481018066406 C 84.39865112304688 73.16481018066406 139.87637329101562 73.16481018066406 195.35409545898438 73.16481018066406 C 195.35409545898438 112.0 195.35409545898438 150.83441162109375 195.35409545898438 189.66880798339844 C 194.9039306640625 192.99032592773438 193.12704467773438 194.7672119140625 189.80551147460938 195.21658325195312 C 138.02658081054688 195.21658325195312 86.24764251708984 195.21658325195312 34.46870422363281 195.21658325195312 C 31.147171020507812 194.7672119140625 29.37030029296875 192.99032592773438 28.920936584472656 189.66880798339844 C 28.920936584472656 150.83441162109375 28.920936584472656 112.0 28.920936584472656 73.16481018066406" stroke-width="0.0" fill="rgb(72, 177, 221)" opacity="1.0"/>
    <path d="M 90.00189971923828 95.35430908203125 C 90.00189971923828 95.35430908203125 90.00189971923828 95.35430908203125 90.00189971923828 95.35430908203125 C 86.68036651611328 95.80447387695312 84.90349578857422 97.58134460449219 84.45413208007812 100.90287780761719 C 84.45413208007812 108.30043029785156 84.45413208007812 115.69719696044922 84.45413208007812 123.0947494506836 C 84.8480224609375 136.43238830566406 93.64520263671875 147.2331085205078 106.64679718017578 150.27566528320312 C 106.64521789550781 154.15989685058594 106.64442443847656 158.04412841796875 106.64363098144531 161.9291534423828 C 102.94485473632812 161.9291534423828 99.24528503417969 161.9291534423828 95.54650115966797 161.9291534423828 C 94.00739288330078 162.13522338867188 92.76943969726562 162.40626525878906 91.62264251708984 163.55307006835938 C 89.09603118896484 166.07968139648438 89.65397644042969 170.46717834472656 92.74566650390625 172.267822265625 C 93.88929748535156 172.93434143066406 94.2578353881836 172.8519287109375 95.54650115966797 173.02468872070312 C 106.64204406738281 173.02468872070312 117.73680114746094 173.02468872070312 128.83154296875 173.02468872070312 C 130.3714599609375 172.81863403320312 131.60939025878906 172.54759216308594 132.75621032714844 171.40078735351562 C 135.28280639648438 168.87417602539062 134.72486877441406 164.48667907714844 131.6331787109375 162.68601989746094 C 130.49032592773438 162.01950073242188 130.12100219726562 162.1019287109375 128.83154296875 161.9291534423828 C 125.13356018066406 161.9291534423828 121.43478393554688 161.9291534423828 117.73680114746094 161.9291534423828 C 117.73680114746094 158.0433349609375 117.73680114746094 154.1575164794922 117.73680114746094 150.27249145507812 C 130.7391815185547 147.23390197753906 139.53717041015625 136.4331817626953 139.93185424804688 123.0947494506836 C 139.93185424804688 115.69719696044922 139.93185424804688 108.30043029785156 139.93185424804688 100.90287780761719 C 139.481689453125 97.58134460449219 137.70480346679688 95.80447387695312 134.38328552246094 95.35430908203125 C 119.58975219726562 95.35430908203125 104.7954330444336 95.35430908203125 90.00189971923828 95.35430908203125" stroke-width="0.0" fill="rgb(149, 205, 228)" opacity="1.0"/>
    <path d="M 95.54966735839844 106.4514389038086 C 98.53279113769531 106.4514389038086 101.51589965820312 106.4514389038086 104.4990234375 106.4514389038086 C 103.46158599853516 109.56532287597656 102.4233627319336 112.67920684814453 101.38592529296875 115.79309844970703 C 100.9508285522461 118.15168762207031 101.28131103515625 119.55448150634766 102.72294616699219 121.47084045410156 C 106.42172241210938 125.16962432861328 110.11970520019531 128.86839294433594 113.81848907470703 132.5671844482422 C 115.05326080322266 133.5087127685547 116.1184310913086 134.1910858154297 117.73917388916016 134.1910858154297 C 121.31431579589844 134.1910858154297 124.01924896240234 130.6983642578125 123.10704040527344 127.23815155029297 C 122.76941680908203 125.95899200439453 122.45160675048828 125.75609588623047 121.66303253173828 124.72262573242188 C 118.77423095703125 121.8314437866211 115.88462829589844 118.94026947021484 112.99503326416016 116.04907989501953 C 114.06021118164062 112.84960174560547 115.12458801269531 109.65013122558594 116.18896484375 106.4514389038086 C 120.40447998046875 106.4514389038086 124.6199951171875 106.4514389038086 128.834716796875 106.4514389038086 C 128.834716796875 111.99920654296875 128.834716796875 117.54698181152344 128.834716796875 123.0947494506836 C 128.6088409423828 127.81590270996094 126.94767761230469 132.12811279296875 123.40265655517578 135.36959838867188 C 115.38691711425781 142.70057678222656 102.25692749023438 140.25877380371094 97.34556579589844 130.59136962890625 C 96.13536071777344 128.20980834960938 95.67648315429688 125.73786926269531 95.54966735839844 123.0947494506836 C 95.54966735839844 117.54698181152344 95.54966735839844 111.99920654296875 95.54966735839844 106.4514389038086" stroke-width="0.0" fill="rgb(72, 177, 221)" opacity="1.0"/>
  </g>
</svg>
