<?xml version="1.0" ?>
<svg xmlns="http://www.w3.org/2000/svg" version="1.1" width="224" height="224">
  <defs/>
  <g>
    <path d="M 81.86164855957031 67.44789123535156 C 80.54737854003906 64.91279602050781 80.86690521240234 52.84234619140625 82.77164459228516 47.46974563598633 C 84.87474822998047 41.10478210449219 89.815185546875 34.905052185058594 96.29388427734375 31.407676696777344 C 101.01704406738281 29.234397888183594 103.18840789794922 28.699111938476562 111.26654052734375 28.00000762939453 C 118.41323852539062 28.183441162109375 121.17668914794922 28.633636474609375 126.2539291381836 30.247360229492188 C 134.02333068847656 33.79181671142578 139.5554656982422 40.18888854980469 141.93492126464844 48.7724494934082 C 143.1494598388672 54.74684524536133 143.61502075195312 66.37458801269531 142.7885284423828 68.32070922851562 C 142.02024841308594 70.19556427001953 83.41220092773438 69.32136535644531 81.86164855957031 67.44789123535156" stroke-width="0.0" fill="rgb(53, 108, 151)" opacity="0.999623"/>
    <path d="M 105.2282485961914 168.34906005859375 C 100.71170043945312 165.95339965820312 97.14524841308594 161.82489013671875 93.78414916992188 155.6916961669922 C 89.82306671142578 147.4486541748047 88.27665710449219 139.75411987304688 89.05257415771484 129.45468139648438 C 89.80177307128906 118.58595275878906 92.6247787475586 109.05249786376953 98.0023193359375 101.22088623046875 C 102.22279357910156 94.90512084960938 109.59365844726562 88.12640380859375 112.53213500976562 87.90495300292969 C 113.64138793945312 88.02587890625 116.95774841308594 90.37351989746094 120.0014877319336 93.75638580322266 C 140.40170288085938 112.48683166503906 141.51611328125 150.7365264892578 122.0305404663086 165.95423889160156 C 117.10137939453125 170.04046630859375 110.10041809082031 170.9031219482422 105.2282485961914 168.34906005859375" stroke-width="1.0" fill="rgb(253, 254, 254)" opacity="0.9957694"/>
    <path d="M 96.25816345214844 182.9663848876953 C 79.54667663574219 178.700927734375 70.07931518554688 165.03250122070312 68.041259765625 142.27987670898438 C 67.5236587524414 135.22398376464844 68.42691040039062 122.96578216552734 70.25438690185547 116.12090301513672 C 70.8222427368164 114.4285659790039 70.58769226074219 113.5538558959961 69.64747619628906 114.1536636352539 C 67.63688659667969 114.04838562011719 58.5677604675293 122.43452453613281 55.78082275390625 126.84091186523438 C 53.670562744140625 129.72850036621094 52.65232467651367 130.12344360351562 51.694129943847656 128.48854064941406 C 49.75835418701172 125.92588806152344 50.46409225463867 119.03875732421875 53.356597900390625 113.34708404541016 C 56.56723403930664 106.96598052978516 65.01881408691406 98.6828842163086 71.28076171875 95.63922119140625 C 75.34263610839844 93.70988464355469 77.1134262084961 92.21896362304688 77.5040512084961 90.30426788330078 C 78.16316223144531 86.06383514404297 78.61618041992188 85.90396118164062 81.42759704589844 87.23338317871094 C 83.72380065917969 88.31141662597656 95.57902526855469 86.82087707519531 100.65576934814453 85.18999481201172 C 102.23757934570312 85.09146118164062 101.05883026123047 87.29840850830078 97.48278045654297 90.53009796142578 C 88.49769592285156 100.024169921875 83.56869506835938 113.03408813476562 82.49763488769531 129.57652282714844 C 81.41464233398438 146.29762268066406 86.80998992919922 161.113037109375 98.7412338256836 173.02186584472656 C 105.95849609375 179.23916625976562 105.89768981933594 180.17843627929688 104.11302185058594 182.25225830078125 C 103.20389556884766 185.37588500976562 102.82821655273438 185.0213623046875 96.25816345214844 182.9663848876953" stroke-width="1.0" fill="rgb(52, 108, 152)" opacity="0.9914499"/>
    <path d="M 119.6820068359375 182.06846618652344 C 118.13402557373047 179.52020263671875 118.1412353515625 179.27325439453125 119.46977996826172 177.726318359375 C 123.88099670410156 175.80319213867188 133.19186401367188 165.2857208251953 136.10549926757812 159.0594482421875 C 140.5146484375 149.93533325195312 142.18817138671875 142.94110107421875 142.09996032714844 132.75660705566406 C 141.6473846435547 116.20768737792969 136.48863220214844 101.67008209228516 126.546142578125 90.52748107910156 C 123.69506072998047 87.25511932373047 122.67524719238281 85.1449966430664 123.57268524169922 85.2552490234375 C 125.30284118652344 85.62400817871094 129.220458984375 86.41593933105469 133.30682373046875 87.16857147216797 C 138.36175537109375 88.31283569335938 140.76708984375 88.41062927246094 142.2788543701172 87.16796875 C 145.8853759765625 85.458251953125 145.82469177246094 85.65946197509766 146.6361083984375 90.03413391113281 C 147.4054412841797 91.76783752441406 148.68275451660156 93.9168930053711 152.60794067382812 95.67009735107422 C 159.058837890625 98.54423522949219 167.53732299804688 106.76720428466797 170.32608032226562 112.65975952148438 C 173.04013061523438 117.58125305175781 174.24163818359375 125.87422180175781 172.59243774414062 128.3154296875 C 171.29454040527344 129.7096710205078 170.22850036621094 128.84149169921875 165.4381866455078 123.29170227050781 C 160.19480895996094 117.18085479736328 154.80499267578125 112.89959716796875 153.59791564941406 114.12069702148438 C 153.37095642089844 114.07056427001953 153.84625244140625 117.24828338623047 154.882080078125 120.95426177978516 C 157.86155700683594 134.77589416503906 156.0741424560547 153.802001953125 150.7322998046875 164.34393310546875 C 145.34022521972656 174.17213439941406 139.56849670410156 178.9444580078125 128.81158447265625 182.62640380859375 C 121.64806365966797 184.95970153808594 121.35450744628906 185.12245178222656 119.6820068359375 182.06846618652344" stroke-width="1.0" fill="rgb(52, 107, 151)" opacity="0.9943334"/>
    <path d="M 81.71330261230469 192.19631958007812 L 78.40657806396484 189.42198181152344 L 81.62872314453125 186.64306640625 C 88.00453186035156 180.91116333007812 100.31388854980469 181.684326171875 105.9877700805664 187.66644287109375 C 107.92565155029297 190.18739318847656 107.9376449584961 190.06842041015625 105.41546630859375 191.957763671875 C 100.97696685791016 195.54798889160156 98.11847686767578 195.85018920898438 95.09344482421875 193.20095825195312 L 92.47759246826172 190.85595703125 L 89.75064086914062 193.1817626953125 C 86.3494644165039 195.9696044921875 85.86943817138672 196.0 81.71330261230469 192.19631958007812" stroke-width="1.0" fill="rgb(244, 214, 148)" opacity="0.9861346"/>
    <path d="M 119.55618286132812 192.74136352539062 C 116.10401916503906 189.91696166992188 116.603759765625 187.83914184570312 121.2924575805664 184.9288787841797 C 128.08213806152344 181.42491149902344 142.3587188720703 183.5673828125 144.22760009765625 188.43283081054688 C 145.4079132080078 190.42013549804688 140.29185485839844 195.0596923828125 137.57814025878906 195.044189453125 C 136.54136657714844 195.15689086914062 134.79617309570312 194.22299194335938 133.44882202148438 192.84072875976562 L 130.76846313476562 190.56443786621094 L 128.72842407226562 192.85316467285156 C 126.04216003417969 195.95822143554688 123.21288299560547 195.9644775390625 119.55618286132812 192.74136352539062" stroke-width="1.0" fill="rgb(244, 214, 148)" opacity="0.9879125"/>
    <path d="M 79.3626708984375 86.54489135742188 C 78.50711059570312 85.18624877929688 77.87008666992188 81.53909301757812 77.45863342285156 78.30775451660156 C 77.10884857177734 69.51129913330078 78.86227416992188 67.6777572631836 86.94226837158203 67.58665466308594 C 90.76252746582031 68.51872253417969 94.35421752929688 68.50956726074219 95.00849914550781 69.04603576660156 C 106.95604705810547 67.64581298828125 124.37184143066406 67.63046264648438 125.71771240234375 69.5975112915039 C 126.75909423828125 69.69757080078125 129.9564208984375 69.0615234375 134.564453125 68.12486267089844 C 140.58590698242188 66.91229248046875 141.0835418701172 67.06938934326172 143.5354766845703 69.56700134277344 C 145.8351593017578 72.24278259277344 146.04461669921875 72.84188079833984 146.17526245117188 78.47346496582031 C 145.940185546875 81.86720275878906 145.1143035888672 85.94408416748047 144.14674377441406 86.56898498535156 C 142.41127014160156 89.01448059082031 134.54751586914062 88.42308807373047 125.40480041503906 85.70454406738281 C 116.49174499511719 84.00959777832031 105.82344055175781 83.82150268554688 97.59184265136719 86.10079956054688 C 88.33930969238281 88.54708862304688 80.44261932373047 88.70626831054688 79.3626708984375 86.54489135742188" stroke-width="0.0" fill="rgb(241, 211, 142)" opacity="0.980727"/>
    <path d="M 97.53163146972656 68.40158081054688 C 94.43004608154297 66.74853515625 91.09297180175781 63.590736389160156 90.03545379638672 61.779048919677734 C 88.04109954833984 58.46782302856445 87.99946594238281 58.34121322631836 90.08692932128906 55.54099655151367 C 93.76128387451172 50.325714111328125 100.77546691894531 51.100975036621094 107.68314361572266 57.60047149658203 L 112.2828369140625 62.64082717895508 L 116.31043243408203 58.301971435546875 C 123.82638549804688 51.1656608581543 130.01234436035156 50.096614837646484 133.61700439453125 54.950862884521484 C 137.07928466796875 59.2509765625 134.70904541015625 63.752986907958984 126.10919189453125 68.78028106689453 C 121.37334442138672 71.25918579101562 120.73385620117188 71.49403381347656 117.37086486816406 70.16328430175781 C 113.15211486816406 68.29385375976562 110.05858612060547 68.26828002929688 106.395263671875 70.2665023803711 C 104.74996948242188 70.96388244628906 103.3680648803711 71.67079162597656 103.43284606933594 71.64683532714844 C 103.26179504394531 71.90361022949219 100.56983184814453 70.10702514648438 97.53163146972656 68.40158081054688" stroke-width="1.0" fill="rgb(252, 254, 254)" opacity="0.99916553"/>
    <path d="M 94.70654296875 58.97032165527344 C 94.51097106933594 57.68921661376953 94.72929382324219 56.31632614135742 95.3507080078125 55.45909118652344 C 97.48069763183594 53.99842071533203 100.85301208496094 56.23155212402344 99.9674072265625 58.443668365478516 C 99.35359954833984 61.196083068847656 95.45133209228516 61.55351257324219 94.70654296875 58.97032165527344" stroke-width="1.0" fill="rgb(61, 115, 140)" opacity="0.9696337"/>
    <path d="M 125.38005065917969 59.11164855957031 C 124.58104705810547 56.35493850708008 127.1640396118164 53.824031829833984 128.98033142089844 54.989891052246094 C 131.1150665283203 56.31996154785156 130.67677307128906 59.56686019897461 128.209228515625 60.514488220214844 C 127.11276245117188 60.89828872680664 125.8320083618164 60.26081848144531 125.38005065917969 59.11164855957031" stroke-width="1.0" fill="rgb(56, 114, 140)" opacity="0.98208326"/>
  </g>
</svg>
