<?xml version="1.0" ?>
<svg xmlns="http://www.w3.org/2000/svg" version="1.1" width="224" height="224">
  <defs/>
  <g>
    <path d="M 110.14814758300781 109.52115631103516 C 109.91827392578125 70.89907836914062 110.00642395019531 69.9373779296875 114.20942687988281 69.78443145751953 C 115.80154418945312 70.16935729980469 116.36475372314453 69.38697814941406 116.12415313720703 65.97172546386719 C 116.04997253417969 60.87786102294922 117.7020263671875 58.103763580322266 120.45197296142578 58.294273376464844 C 123.8370132446289 58.15544128417969 125.23250579833984 60.08147430419922 125.08984375 65.35731506347656 C 124.93058776855469 69.87397003173828 125.09918975830078 70.34888458251953 127.8702392578125 70.04653930664062 C 132.83502197265625 69.98522186279297 132.98199462890625 70.21302795410156 132.70404052734375 110.0731201171875 L 132.58998107910156 147.05972290039062 L 109.98590850830078 147.25408935546875 L 110.14814758300781 109.52115631103516" stroke-width="1.0" fill="rgb(54, 121, 169)" opacity="0.9958687"/>
    <path d="M 59.356056213378906 118.71104431152344 L 59.27089309692383 91.66908264160156 L 63.705318450927734 85.46931457519531 C 66.33124542236328 81.81129455566406 68.53114318847656 78.91746520996094 68.74748229980469 78.82898712158203 C 68.77647399902344 78.85546112060547 70.958984375 81.47425079345703 73.61007690429688 84.87242126464844 L 78.28407287597656 90.68016052246094 L 78.20115661621094 145.81610107421875 L 59.363067626953125 145.8505859375 L 59.356056213378906 118.71104431152344" stroke-width="1.0" fill="rgb(177, 221, 241)" opacity="0.9949985"/>
    <path d="M 142.3506622314453 120.04650115966797 C 142.08038330078125 102.40165710449219 142.1359100341797 92.5985107421875 140.95640563964844 92.21286010742188 C 140.47482299804688 91.64337158203125 141.2221221923828 90.11404418945312 142.57029724121094 88.26707458496094 C 144.08425903320312 86.70928955078125 146.35879516601562 82.98445892333984 147.37478637695312 80.41658020019531 L 149.69772338867188 74.68907165527344 L 151.88174438476562 79.41978454589844 C 152.64669799804688 81.79005432128906 155.03253173828125 85.94537353515625 157.58607482910156 88.60503387451172 L 160.3014373779297 93.23020935058594 L 159.97125244140625 120.36205291748047 L 159.2186279296875 147.54058837890625 L 141.92425537109375 147.4694366455078 L 142.3506622314453 120.04650115966797" stroke-width="1.0" fill="rgb(178, 220, 240)" opacity="0.99219674"/>
    <path d="M 38.76573944091797 129.43296813964844 C 38.679176330566406 111.46995544433594 38.510772705078125 111.65987396240234 50.45909881591797 112.36082458496094 L 59.15388870239258 112.56974792480469 L 59.46291732788086 128.29345703125 L 59.39405822753906 143.7879638671875 L 38.682342529296875 143.64634704589844 L 38.76573944091797 129.43296813964844" stroke-width="1.0" fill="rgb(53, 120, 169)" opacity="0.988161"/>
    <path d="M 159.5823974609375 131.07391357421875 L 159.62310791015625 114.57791137695312 L 166.08920288085938 114.0840835571289 L 172.60787963867188 113.73951721191406 L 173.03616333007812 147.40769958496094 L 159.29733276367188 147.44931030273438 L 159.5823974609375 131.07391357421875" stroke-width="1.0" fill="rgb(54, 124, 170)" opacity="0.98527414"/>
    <path d="M 171.5578155517578 129.6344757080078 L 171.43495178222656 113.00470733642578 L 176.42958068847656 113.26451110839844 C 183.87753295898438 113.20703887939453 184.13363647460938 114.30708312988281 184.167236328125 131.4342041015625 L 184.1521453857422 146.1449432373047 L 171.3866729736328 146.0711669921875 L 171.5578155517578 129.6344757080078" stroke-width="1.0" fill="rgb(176, 222, 242)" opacity="0.9883738"/>
    <path d="M 31.96361541748047 166.74154663085938 C 29.013084411621094 165.59796142578125 28.864639282226562 163.44921875 28.773269653320312 153.95645141601562 C 28.0 149.55099487304688 28.520668029785156 147.63754272460938 30.282623291015625 145.62074279785156 C 32.076820373535156 142.76695251464844 32.18616485595703 142.92518615722656 56.09488296508789 142.7875213623047 C 69.06669616699219 142.34619140625 79.97567749023438 142.3184051513672 81.42376708984375 143.5247344970703 C 82.14535522460938 141.5369415283203 81.70742797851562 124.57571411132812 81.83856201171875 104.04876708984375 C 81.516357421875 60.311378479003906 79.45870971679688 64.14735412597656 94.15718078613281 65.4447021484375 C 102.06257629394531 65.1639404296875 103.23396301269531 65.38787078857422 105.06108856201172 67.33341979980469 C 106.10698699951172 68.2579574584961 105.61659240722656 81.94855499267578 105.72747802734375 105.56292724609375 C 105.35435485839844 125.03480529785156 106.09101867675781 141.6256103515625 105.7601089477539 142.90069580078125 C 107.09568786621094 142.63540649414062 114.66368865966797 142.557861328125 122.6130142211914 142.93142700195312 L 139.49774169921875 143.01611328125 L 138.97161865234375 120.23979187011719 C 137.9679718017578 102.13600158691406 138.43077087402344 97.9978256225586 139.34088134765625 97.86469268798828 C 142.69708251953125 97.38556671142578 142.58419799804688 100.1822509765625 142.1614532470703 121.49566650390625 L 142.33084106445312 142.9422149658203 L 166.6099395751953 143.02394104003906 C 196.0 142.1845703125 194.36941528320312 141.88043212890625 194.57101440429688 155.26220703125 C 194.88357543945312 161.76467895507812 194.53225708007812 164.20159912109375 192.95579528808594 166.17184448242188 C 192.6750946044922 167.1932830810547 178.41615295410156 166.48297119140625 113.2016372680664 166.73043823242188 C 63.59114074707031 166.650634765625 33.88013458251953 166.71661376953125 31.96361541748047 166.74154663085938" stroke-width="0.0" fill="rgb(63, 156, 209)" opacity="0.9991703"/>
    <path d="M 137.0146942138672 118.93400573730469 C 136.81069946289062 97.69263458251953 137.13255310058594 93.40357971191406 138.8126220703125 91.51943969726562 C 139.71731567382812 90.30022430419922 140.8177947998047 89.6042251586914 141.24192810058594 89.97218322753906 C 141.8332061767578 90.31184387207031 142.06198120117188 101.81016540527344 141.9884490966797 117.26860046386719 L 141.6008758544922 144.04385375976562 L 136.70053100585938 143.9700469970703 L 137.0146942138672 118.93400573730469" stroke-width="1.0" fill="rgb(69, 119, 156)" opacity="0.9868524"/>
    <path d="M 85.57733154296875 63.40420150756836 C 86.31930541992188 56.88467788696289 93.58425903320312 56.80671691894531 94.32145690917969 63.627235412597656 C 94.51531982421875 66.19456481933594 94.32671356201172 66.52493286132812 89.58714294433594 66.43798065185547 C 85.30873107910156 66.38481903076172 85.07084655761719 66.18614196777344 85.57733154296875 63.40420150756836" stroke-width="1.0" fill="rgb(60, 124, 170)" opacity="0.9756819"/>
  </g>
</svg>
