<?xml version="1.0" ?>
<svg xmlns="http://www.w3.org/2000/svg" version="1.1" width="224" height="224">
  <defs/>
  <g>
    <path d="M 94.1390380859375 35.07611846923828 C 100.39203643798828 29.330665588378906 111.79337310791016 29.098602294921875 117.04313659667969 34.53479766845703 C 119.5085678100586 37.77949142456055 120.5694580078125 37.7210807800293 121.33654022216797 35.22663116455078 C 121.75558471679688 33.514076232910156 121.82317352294922 33.512901306152344 121.41303253173828 35.464256286621094 C 121.50899505615234 37.584617614746094 120.50724792480469 37.545745849609375 105.6463623046875 38.230411529541016 L 90.14016723632812 38.39912033081055 L 94.1390380859375 35.07611846923828" stroke-width="1.0" fill="rgb(147, 199, 217)" opacity="0.9956032"/>
    <path d="M 94.83706665039062 194.73805236816406 C 74.54362487792969 191.19630432128906 64.83233642578125 185.6744384765625 51.78876876831055 173.26141357421875 C 38.188419342041016 158.4333038330078 31.575271606445312 142.6228485107422 31.182159423828125 121.15826416015625 C 32.00005340576172 110.66879272460938 32.35243225097656 107.55044555664062 34.34479522705078 98.18064880371094 C 41.376285552978516 75.78721618652344 54.45248031616211 60.0482292175293 73.74291229248047 50.848506927490234 C 83.91974639892578 46.24603271484375 91.54019927978516 44.287940979003906 107.3880615234375 44.13072967529297 C 122.53853607177734 44.59331130981445 127.4364242553711 46.022621154785156 140.14727783203125 51.69670867919922 C 150.0981903076172 56.03619384765625 161.67694091796875 66.42669677734375 168.1918182373047 77.02740478515625 C 192.81784057617188 115.3991470336914 181.9237823486328 164.59225463867188 143.3988037109375 186.4394073486328 C 131.3803253173828 192.4993438720703 120.74121856689453 195.58709716796875 107.05145263671875 195.52989196777344 C 101.67276763916016 195.587646484375 95.83377838134766 195.32598876953125 94.83706665039062 194.73805236816406" stroke-width="0.0" fill="rgb(51, 149, 198)" opacity="0.99758375"/>
    <path d="M 92.43482971191406 36.52231979370117 C 91.39775085449219 34.92711639404297 93.82393646240234 31.768455505371094 97.1589584350586 30.269615173339844 C 100.90122985839844 28.00000762939453 111.92613220214844 28.048171997070312 115.56639862060547 30.399620056152344 C 118.87406921386719 32.13880920410156 121.28009033203125 35.54622268676758 119.9957504272461 36.711944580078125 C 119.52204895019531 37.144508361816406 118.83760070800781 36.512794494628906 118.26082611083984 35.98676300048828 C 116.33842468261719 30.60363006591797 101.18833923339844 28.999778747558594 96.12615203857422 34.48377990722656 C 94.4837417602539 35.78357696533203 92.89850616455078 36.689151763916016 92.43482971191406 36.52231979370117" stroke-width="1.0" fill="rgb(50, 129, 161)" opacity="0.99697757"/>
    <path d="M 102.71885681152344 192.79852294921875 C 102.00369262695312 191.25411987304688 102.07157135009766 189.02293395996094 103.38233947753906 185.01963806152344 C 105.0492935180664 180.2181396484375 105.2967300415039 178.44338989257812 102.50331115722656 175.6259765625 C 100.67786407470703 174.92800903320312 98.92636108398438 173.72048950195312 98.14826202392578 173.20379638671875 C 95.81707763671875 173.72296142578125 86.06739807128906 166.294677734375 83.74810028076172 161.24658203125 C 79.5991439819336 155.67498779296875 79.09197998046875 150.893798828125 82.30734252929688 146.035400390625 C 85.62152099609375 143.6978302001953 85.68964385986328 142.62454223632812 83.0689697265625 141.6030731201172 C 80.8504638671875 141.81381225585938 77.04146575927734 139.49346923828125 74.23717498779297 135.96888732910156 C 72.00779724121094 131.85101318359375 68.59187316894531 129.8723602294922 66.9375228881836 130.8631134033203 C 63.653202056884766 130.68605041503906 58.11309051513672 127.33602905273438 57.52875518798828 124.04373168945312 C 57.65619659423828 121.53197479248047 55.774269104003906 119.71573638916016 53.301631927490234 119.13925170898438 C 52.30998229980469 117.1790542602539 50.51753234863281 114.59257507324219 50.008209228515625 113.96150970458984 C 50.24930191040039 111.68122863769531 50.272064208984375 106.98600769042969 49.13103103637695 105.06947326660156 C 45.657466888427734 99.93190002441406 46.58785629272461 96.68045043945312 50.260555267333984 88.49173736572266 C 55.329673767089844 76.1956558227539 72.81244659423828 59.668888092041016 80.01325225830078 59.19926834106445 C 81.26985931396484 59.83739471435547 83.19834899902344 59.307857513427734 83.96500396728516 57.52757263183594 C 88.19992065429688 54.653961181640625 91.53411865234375 54.20637512207031 92.1705551147461 57.17271041870117 C 92.4911117553711 59.420352935791016 93.61018371582031 60.90463638305664 94.45581817626953 62.14277648925781 C 96.07349395751953 61.414894104003906 96.51756286621094 62.85051345825195 97.08776092529297 63.66285705566406 C 97.23001098632812 64.31898498535156 98.376953125 65.74581909179688 100.08122253417969 66.44322967529297 C 100.96810150146484 65.01681518554688 101.14421081542969 65.82950592041016 100.8105697631836 68.1304702758789 C 103.24308776855469 69.07085418701172 104.87042236328125 71.05159759521484 106.39590454101562 73.02084350585938 C 108.89933013916016 70.85992431640625 110.99816131591797 74.3753433227539 111.88481140136719 77.73258972167969 C 116.12567138671875 81.35736846923828 116.57012176513672 82.80182647705078 114.63284301757812 84.58639526367188 C 112.0814208984375 83.99702453613281 111.42516326904297 86.58071899414062 114.54100036621094 88.0798568725586 C 114.82901000976562 90.04756164550781 113.73843383789062 90.16780090332031 109.5925521850586 90.69020080566406 C 107.60808563232422 89.75182342529297 105.29432678222656 90.57157897949219 105.1875228881836 91.8554916381836 C 105.12205505371094 93.0049057006836 102.56804656982422 94.64828491210938 100.04164123535156 95.0980453491211 C 93.62545013427734 97.17980194091797 92.39157104492188 98.62893676757812 90.44023132324219 105.00492095947266 C 85.94562530517578 108.75517272949219 86.73062896728516 109.92977905273438 88.66864776611328 113.10935974121094 C 90.37904357910156 116.7245864868164 90.46360778808594 117.19017028808594 89.06412506103516 118.49742126464844 C 87.27111053466797 118.2975845336914 84.77971649169922 117.41117858886719 83.55708312988281 113.52523040771484 C 79.19632720947266 111.28164672851562 72.46831512451172 111.19440460205078 69.30664825439453 114.28608703613281 C 65.16361999511719 119.22344970703125 67.64617919921875 125.33980560302734 73.7936019897461 124.8684310913086 C 77.65995788574219 123.85392761230469 80.74030303955078 126.96778869628906 80.26614379882812 131.24908447265625 C 79.44583892822266 136.87782287597656 84.61849975585938 138.2960968017578 89.77471160888672 133.83798217773438 C 91.88325500488281 131.2225799560547 93.72540283203125 130.41273498535156 99.13806915283203 130.7897186279297 C 103.29585266113281 131.72091674804688 110.25199127197266 131.18203735351562 114.64837646484375 133.66845703125 C 122.7011947631836 135.10150146484375 124.26194763183594 135.9881591796875 127.66021728515625 140.36680603027344 C 130.51300048828125 145.98141479492188 131.1661376953125 146.75857543945312 140.3658447265625 147.1456298828125 C 152.00466918945312 147.04078674316406 154.84283447265625 151.2852783203125 150.7606201171875 158.6158447265625 C 149.014404296875 159.72630310058594 146.727294921875 162.35755920410156 146.61434936523438 165.67994689941406 C 146.36810302734375 168.2509765625 144.20755004882812 170.52500915527344 141.9230499267578 171.41351318359375 C 138.2886505126953 172.62353515625 133.6795196533203 177.5908966064453 133.98521423339844 179.59234619140625 C 133.82229614257812 182.21112060546875 130.12550354003906 186.1466064453125 122.40103149414062 188.7322998046875 C 118.3543701171875 190.03887939453125 114.3844985961914 192.2885284423828 114.85003662109375 193.47900390625 C 112.80159759521484 195.3614501953125 110.80901336669922 196.0 108.60267639160156 195.20767211914062 C 105.25992584228516 195.34866333007812 104.30790710449219 194.67501831054688 102.71885681152344 192.79852294921875" stroke-width="0.0" fill="rgb(168, 209, 224)" opacity="0.99291116"/>
    <path d="M 96.64012908935547 124.75225830078125 C 97.15107727050781 122.87934112548828 98.33907318115234 122.51439666748047 102.39962005615234 123.04666137695312 C 110.29629516601562 123.73758697509766 112.00617218017578 125.2440185546875 106.336669921875 125.90550231933594 C 98.3951187133789 126.9625473022461 95.97718811035156 126.83783721923828 96.64012908935547 124.75225830078125" stroke-width="1.0" fill="rgb(169, 209, 227)" opacity="1.0"/>
    <path d="M 88.05046081542969 124.41389465332031 C 86.25814819335938 123.75196075439453 83.66853332519531 122.80855560302734 82.79173278808594 122.35000610351562 C 80.23038482666016 121.66405487060547 81.26045227050781 119.65642547607422 84.16081237792969 119.56173706054688 C 87.74089050292969 119.36093139648438 94.78751373291016 121.77786254882812 94.9641342163086 123.00379180908203 C 94.96699523925781 124.16204833984375 92.26886749267578 126.08794403076172 91.5030746459961 125.69656372070312 C 91.66937255859375 125.66413879394531 89.58887481689453 125.22209930419922 88.05046081542969 124.41389465332031" stroke-width="1.0" fill="rgb(164, 204, 219)" opacity="0.98292595"/>
    <path d="M 118.32237243652344 72.53695678710938 C 117.14623260498047 70.894775390625 115.4771957397461 68.03125 114.83850860595703 65.76428985595703 C 113.61326599121094 60.22438049316406 108.76099395751953 56.620460510253906 103.54841613769531 57.141258239746094 C 98.15067291259766 57.31341552734375 98.39055633544922 59.65045166015625 103.41675567626953 61.21809768676758 C 105.57470703125 62.01072692871094 108.18362426757812 63.44449234008789 109.36819458007812 64.389404296875 C 110.96261596679688 66.10396575927734 111.04713439941406 66.44955444335938 109.69523620605469 68.21714782714844 C 108.28282928466797 70.17717742919922 108.36656188964844 70.0418701171875 104.18546295166016 68.1262435913086 C 101.94788360595703 67.20304107666016 99.69010162353516 65.3280029296875 99.55769348144531 64.54731750488281 C 99.19554138183594 63.528724670410156 97.9328842163086 62.55073547363281 97.077392578125 62.46162414550781 C 95.40621185302734 61.93891525268555 95.42874145507812 61.25830078125 95.50642395019531 60.2247428894043 C 96.0882797241211 59.16393280029297 95.44366455078125 58.001853942871094 94.54783630371094 57.474918365478516 C 92.8771743774414 55.90382385253906 93.12090301513672 55.883155822753906 96.1417465209961 53.903404235839844 C 98.7639389038086 52.287567138671875 101.69967651367188 52.06013107299805 109.12815856933594 52.1248893737793 C 119.54554748535156 52.26038360595703 124.20100402832031 53.53546905517578 129.27345275878906 57.3592414855957 C 133.308349609375 60.421871185302734 133.38912963867188 63.014469146728516 129.4579315185547 65.06751251220703 C 128.03004455566406 66.07428741455078 126.8631591796875 67.93414306640625 126.99063873291016 68.75498962402344 C 126.90634155273438 74.5945053100586 122.63773345947266 76.51251220703125 118.32237243652344 72.53695678710938" stroke-width="1.0" fill="rgb(169, 209, 223)" opacity="0.99898976"/>
    <path d="M 133.1741180419922 72.52659606933594 C 131.6458282470703 70.61349487304688 131.63641357421875 70.31465911865234 133.04025268554688 69.39894104003906 C 134.96522521972656 68.00584411621094 139.8016357421875 69.9566879272461 138.99070739746094 72.04536437988281 C 138.19879150390625 74.58677673339844 135.00599670410156 74.71208190917969 133.1741180419922 72.52659606933594" stroke-width="1.0" fill="rgb(168, 207, 222)" opacity="0.9941311"/>
    <path d="M 52.94352340698242 119.66360473632812 C 52.526241302490234 119.15867614746094 53.06787872314453 118.9433364868164 53.970314025878906 119.1363525390625 C 55.531822204589844 119.70713806152344 55.50066375732422 119.50215148925781 53.859580993652344 115.45118713378906 C 52.60674285888672 112.92089080810547 51.85905456542969 110.09766387939453 52.08152389526367 109.69308471679688 C 52.0428581237793 108.9523696899414 53.66680145263672 111.16899108886719 55.01506805419922 114.34215545654297 C 57.64436721801758 120.14511108398438 57.749568939208984 120.4022216796875 55.670387268066406 120.54946899414062 C 54.77182388305664 120.8771743774414 53.203182220458984 120.58045959472656 52.94352340698242 119.66360473632812" stroke-width="1.0" fill="rgb(82, 162, 203)" opacity="0.96903056"/>
    <path d="M 84.1865463256836 59.51005554199219 C 84.27863311767578 58.56047058105469 85.06400299072266 57.424530029296875 85.66122436523438 56.76335144042969 C 87.16226959228516 56.000244140625 87.7232666015625 55.96538543701172 87.26285552978516 56.59870529174805 C 86.79861450195312 57.22195816040039 86.9488525390625 57.96189880371094 87.97697448730469 58.27824783325195 C 89.2318115234375 58.74967956542969 87.56655883789062 61.2581672668457 85.66741943359375 61.05154037475586 C 84.72679138183594 61.05149841308594 84.1727523803711 60.335323333740234 84.1865463256836 59.51005554199219" stroke-width="1.0" fill="rgb(91, 174, 205)" opacity="1.0"/>
    <path d="M 90.14768981933594 77.6175308227539 C 86.27476501464844 74.24996948242188 87.02842712402344 72.197021484375 92.65306854248047 70.09419250488281 C 96.20426177978516 68.9188003540039 96.76805877685547 69.90681457519531 94.31061553955078 76.63479614257812 L 93.33927917480469 80.54508209228516 L 90.14768981933594 77.6175308227539" stroke-width="1.0" fill="rgb(64, 154, 202)" opacity="0.95409745"/>
  </g>
</svg>
