<?xml version="1.0" ?>
<svg xmlns="http://www.w3.org/2000/svg" version="1.1" width="224" height="224">
  <defs/>
  <g>
    <path d="M 46.788978576660156 186.3790283203125 C 41.942039489746094 182.70167541503906 37.32202911376953 177.09750366210938 36.11308288574219 174.0342559814453 C 31.94025421142578 168.1639862060547 28.44603729248047 154.74896240234375 29.177146911621094 147.16400146484375 C 29.05365753173828 139.90037536621094 32.70867156982422 128.1910400390625 36.31109619140625 123.91283416748047 C 40.219810485839844 122.32047271728516 40.74554443359375 118.26062774658203 40.216217041015625 103.45048522949219 C 40.95075225830078 78.48530578613281 44.165916442871094 72.78364562988281 53.985958099365234 58.95188903808594 C 63.45252227783203 46.015045166015625 81.53173828125 35.07749938964844 97.17066955566406 32.36604309082031 C 122.82000732421875 28.0 144.04051208496094 34.26068878173828 162.27212524414062 49.48755645751953 C 177.27041625976562 63.71807861328125 184.78079223632812 78.54878234863281 184.76654052734375 103.75316619873047 C 184.17379760742188 118.81732940673828 184.50552368164062 121.41255187988281 189.07107543945312 125.02786254882812 C 193.8743896484375 132.6367950439453 195.45266723632812 138.1787109375 195.553955078125 149.2943878173828 C 194.58905029296875 165.522705078125 190.45225524902344 175.6057891845703 177.64126586914062 185.7875518798828 C 168.51608276367188 194.26495361328125 164.58670043945312 196.0 162.6853790283203 191.00686645507812 C 162.5409698486328 189.95455932617188 160.4481658935547 187.63372802734375 158.0769500732422 186.55035400390625 C 150.10284423828125 184.15945434570312 150.1572723388672 181.10479736328125 150.27532958984375 151.65017700195312 L 150.80154418945312 125.03575134277344 L 154.8397979736328 121.10572814941406 C 156.62509155273438 119.46533966064453 159.45562744140625 117.45925903320312 160.67835998535156 116.9520263671875 C 161.84381103515625 117.04397583007812 162.56846618652344 116.08750915527344 161.5188751220703 114.37651824951172 C 161.7830810546875 110.33474731445312 165.67898559570312 108.15567016601562 170.56289672851562 109.255615234375 C 171.84642028808594 110.74343872070312 173.35577392578125 112.9100341796875 173.3581085205078 113.5348892211914 C 172.8586883544922 114.31982421875 172.98245239257812 115.40924072265625 175.40499877929688 116.74491119384766 C 176.72825622558594 115.21418762207031 176.55006408691406 110.11677551269531 176.7554931640625 98.23393249511719 C 175.98019409179688 83.20608520507812 174.82009887695312 80.96540832519531 171.62680053710938 73.5289077758789 C 167.6035919189453 63.691673278808594 153.84954833984375 50.18644714355469 144.6630096435547 45.984092712402344 C 116.391357421875 32.1456298828125 85.97879791259766 36.67687225341797 64.38575744628906 58.09892272949219 C 53.72042465209961 69.7597885131836 47.1741943359375 84.7266845703125 48.26782989501953 103.44712829589844 C 47.75127410888672 115.82833099365234 49.244754791259766 119.59156799316406 52.139488220214844 112.82687377929688 C 54.14655303955078 107.62167358398438 61.004310607910156 108.4170150756836 63.077598571777344 113.29623413085938 C 62.7133903503418 116.70127868652344 65.68533325195312 119.28155517578125 68.23165130615234 120.05056762695312 C 70.74874114990234 120.83766174316406 73.00479888916016 123.41015625 73.18757629394531 125.49117279052734 C 74.10986328125 126.97396087646484 74.49555969238281 140.25857543945312 74.01455688476562 154.6730499267578 L 74.0943603515625 179.74261474609375 L 69.879150390625 183.11050415039062 C 68.03665161132812 185.28530883789062 63.757415771484375 187.4789581298828 62.878719329833984 189.82460021972656 C 61.8281135559082 192.77658081054688 58.7103157043457 194.09390258789062 56.74348068237305 194.0401611328125 C 55.62973403930664 193.8271942138672 51.73041534423828 189.67919921875 46.788978576660156 186.3790283203125" stroke-width="0.0" fill="rgb(25, 112, 163)" opacity="0.9905318"/>
    <path d="M 158.20098876953125 186.91549682617188 C 150.99234008789062 183.8192596435547 150.4014129638672 181.3451385498047 150.5584259033203 151.41592407226562 L 150.23812866210938 123.85832214355469 L 154.34898376464844 119.92124938964844 C 156.6256103515625 117.64775085449219 159.4258270263672 115.66724395751953 159.96243286132812 115.7077865600586 C 161.2725830078125 115.66459655761719 161.6973114013672 126.75054931640625 161.52587890625 151.97813415527344 C 161.53123474121094 171.81460571289062 161.383056640625 188.06056213378906 161.21658325195312 187.83840942382812 C 161.12611389160156 187.82553100585938 159.39010620117188 187.5082244873047 158.20098876953125 186.91549682617188" stroke-width="1.0" fill="rgb(60, 189, 249)" opacity="0.9462672"/>
    <path d="M 63.58023452758789 151.929931640625 C 63.90062713623047 118.31172180175781 64.02589416503906 116.79730224609375 66.62398529052734 116.72297668457031 C 67.71157836914062 116.81775665283203 70.5270004272461 118.50043487548828 71.77871704101562 120.5516128540039 C 74.83840942382812 123.86518096923828 75.0919418334961 126.36897277832031 75.00030517578125 152.6341094970703 C 74.94975280761719 180.41542053222656 74.91160583496094 180.53369140625 71.4200668334961 183.90992736816406 C 69.40242004394531 185.8202362060547 66.63117980957031 187.52777099609375 65.73005676269531 187.44378662109375 C 63.87923812866211 187.8298797607422 63.65799331665039 183.03404235839844 63.58023452758789 151.929931640625" stroke-width="1.0" fill="rgb(66, 186, 246)" opacity="0.96051526"/>
  </g>
</svg>
