<?xml version="1.0" ?>
<svg xmlns="http://www.w3.org/2000/svg" version="1.1" width="224" height="224">
  <defs/>
  <g>
    <path d="M 85.63042449951172 182.58633422851562 C 77.94912719726562 178.849609375 71.77755737304688 172.45458984375 68.14324951171875 164.4204864501953 L 65.28433227539062 158.37400817871094 L 65.47517395019531 50.57804870605469 L 68.37374114990234 45.53333282470703 C 71.63172149658203 39.405540466308594 77.850341796875 33.52429962158203 84.3415298461914 30.191322326660156 C 88.99360656738281 28.017440795898438 90.75971221923828 28.124099731445312 112.21637725830078 28.07386016845703 C 134.0426483154297 28.292465209960938 135.15830993652344 27.99999237060547 140.25167846679688 30.954627990722656 C 146.38194274902344 33.45338439941406 152.9014129638672 40.25410461425781 156.33709716796875 47.03424072265625 C 158.71566772460938 51.460174560546875 158.40554809570312 52.19981384277344 158.29364013671875 105.93470001220703 L 158.3303985595703 159.5482635498047 L 155.18728637695312 165.2598419189453 C 151.8731231689453 172.60073852539062 145.2188720703125 179.12808227539062 138.50823974609375 182.44139099121094 C 133.78582763671875 184.83860778808594 132.43287658691406 185.10317993164062 112.58296203613281 185.82901000976562 L 91.6006851196289 185.46826171875 L 85.63042449951172 182.58633422851562" stroke-width="1.0" fill="rgb(228, 242, 249)" opacity="0.9936056"/>
    <path d="M 90.38166809082031 152.9519805908203 C 88.47098541259766 151.22235107421875 88.55813598632812 145.92617797851562 90.25575256347656 144.18084716796875 C 92.45988464355469 142.04969787597656 97.11914825439453 142.38662719726562 99.00597381591797 145.0524444580078 C 101.1354751586914 147.65415954589844 100.90507507324219 149.47323608398438 98.3157958984375 152.17027282714844 C 95.55876922607422 154.81875610351562 92.26040649414062 155.11468505859375 90.38166809082031 152.9519805908203" stroke-width="1.0" fill="rgb(59, 133, 165)" opacity="0.97753465"/>
    <path d="M 108.02307891845703 152.4212646484375 C 105.53507995605469 150.02476501464844 105.60425567626953 146.86245727539062 108.1048812866211 144.51194763183594 C 112.34990692138672 140.78707885742188 117.70330810546875 142.6437225341797 117.65805053710938 147.85694885253906 C 118.04376220703125 150.9491424560547 114.85516357421875 154.23214721679688 111.91710662841797 154.3107147216797 C 110.86668395996094 154.56024169921875 108.95528411865234 153.46978759765625 108.02307891845703 152.4212646484375" stroke-width="1.0" fill="rgb(58, 130, 161)" opacity="0.98711306"/>
    <path d="M 124.65450286865234 151.4866180419922 C 123.09130859375 148.61865234375 123.04258728027344 148.3734588623047 124.75225067138672 145.68505859375 C 127.26933288574219 141.77577209472656 131.92364501953125 141.69078063964844 134.08982849121094 145.18048095703125 C 136.70211791992188 148.71400451660156 136.62200927734375 149.2876739501953 133.76123046875 152.19589233398438 C 130.61526489257812 155.23684692382812 126.98860168457031 155.03216552734375 124.65450286865234 151.4866180419922" stroke-width="1.0" fill="rgb(58, 131, 163)" opacity="0.9838611"/>
    <path d="M 90.23257446289062 127.71739196777344 C 87.12824249267578 124.9026870727539 90.02600860595703 117.50801086425781 94.50599670410156 117.5440902709961 C 96.30450439453125 117.54876708984375 100.48446655273438 121.85459899902344 100.54661560058594 123.68359375 C 100.48213958740234 128.30897521972656 93.23941802978516 131.01393127441406 90.23257446289062 127.71739196777344" stroke-width="1.0" fill="rgb(59, 131, 162)" opacity="0.98309994"/>
    <path d="M 107.36555480957031 126.78292846679688 C 105.40787506103516 123.5710220336914 106.67233276367188 119.7349624633789 110.30427551269531 118.39851379394531 C 112.6676025390625 117.02674102783203 113.49134826660156 117.30911254882812 115.64960479736328 119.29067993164062 C 118.0333480834961 121.50373077392578 118.49874877929688 125.92948150634766 116.0655517578125 127.72732543945312 C 113.967041015625 130.2191925048828 108.50999450683594 129.56704711914062 107.36555480957031 126.78292846679688" stroke-width="1.0" fill="rgb(58, 130, 162)" opacity="0.98477733"/>
    <path d="M 125.58457946777344 127.99227905273438 C 123.10589599609375 125.61383056640625 123.84949493408203 119.97296905517578 126.77335357666016 118.54487609863281 C 130.6490020751953 116.22181701660156 135.08233642578125 118.9092788696289 135.08799743652344 123.30838775634766 C 135.01165771484375 127.13636016845703 133.0144500732422 129.45770263671875 129.41534423828125 129.3744354248047 C 128.1859130859375 129.38941955566406 126.35760498046875 128.83111572265625 125.58457946777344 127.99227905273438" stroke-width="1.0" fill="rgb(56, 130, 162)" opacity="0.98847574"/>
    <path d="M 100.34989929199219 102.67230224609375 C 86.36737060546875 96.14407348632812 80.16726684570312 80.2386474609375 86.40695190429688 66.88431549072266 C 93.35337829589844 51.78684997558594 110.90642547607422 45.765342712402344 125.58219909667969 53.52421569824219 C 145.7158203125 64.42069244384766 145.422119140625 91.17658233642578 125.20362854003906 101.56373596191406 C 117.04252624511719 105.90476989746094 107.85348510742188 106.23609924316406 100.34989929199219 102.67230224609375" stroke-width="1.0" fill="rgb(58, 126, 160)" opacity="0.9922283"/>
    <path d="M 89.11248016357422 194.97605895996094 C 84.6263198852539 193.05758666992188 80.197509765625 190.39434814453125 76.68533325195312 186.96054077148438 C 72.97357177734375 183.31414794921875 68.5762939453125 174.4710235595703 68.68959045410156 170.88783264160156 C 68.19319915771484 169.47454833984375 69.80796813964844 169.75985717773438 75.185302734375 174.94296264648438 C 85.2572021484375 185.1831512451172 88.95372009277344 186.2080841064453 113.73735046386719 185.9058380126953 C 133.17843627929688 185.75550842285156 133.885498046875 185.5027618408203 138.90589904785156 182.88958740234375 C 144.2572784423828 179.9853515625 150.892822265625 174.56503295898438 153.87857055664062 169.59671020507812 L 155.8334197998047 167.1669464111328 L 155.37286376953125 171.35804748535156 C 154.62486267089844 177.35494995117188 149.78070068359375 185.4008026123047 144.59173583984375 189.1195068359375 C 137.41778564453125 194.7801971435547 132.35610961914062 195.8994903564453 110.97126770019531 196.0 C 100.05399322509766 195.34710693359375 90.54727172851562 194.88079833984375 89.11248016357422 194.97605895996094" stroke-width="1.0" fill="rgb(58, 124, 155)" opacity="0.9787909"/>
  </g>
</svg>
