<?xml version="1.0" ?>
<svg xmlns="http://www.w3.org/2000/svg" version="1.1" width="224" height="224">
  <defs/>
  <g>
    <path d="M 79.6024398803711 32.45233154296875 C 76.53357696533203 29.010299682617188 77.79220581054688 28.0 84.81661224365234 28.195289611816406 C 90.896484375 28.583824157714844 92.03046417236328 29.092445373535156 91.41008758544922 31.14012908935547 C 90.55885314941406 34.50749206542969 82.20040893554688 35.67913818359375 79.6024398803711 32.45233154296875" stroke-width="1.0" fill="rgb(255, 198, 64)" opacity="0.9834841"/>
    <path d="M 99.47229766845703 47.92399597167969 C 96.87673950195312 46.0895881652832 97.12806701660156 45.70573425292969 101.8378677368164 46.7641716003418 C 105.72362518310547 47.441287994384766 106.76809692382812 47.18863296508789 108.31641387939453 44.055686950683594 L 109.90338897705078 40.1024169921875 L 111.26499938964844 43.910186767578125 C 112.478271484375 47.36259841918945 113.26195526123047 47.71706771850586 117.90070343017578 47.00102615356445 C 123.56047058105469 45.904354095458984 123.88796997070312 46.08445358276367 121.05953979492188 47.94196701049805 C 116.43963623046875 50.82872772216797 102.91992950439453 50.94589614868164 99.47229766845703 47.92399597167969" stroke-width="1.0" fill="rgb(240, 207, 125)" opacity="0.99927646"/>
    <path d="M 93.43879699707031 133.19244384765625 C 93.48197937011719 131.7418670654297 94.63174438476562 121.54176330566406 95.86019897460938 110.18379974365234 C 99.02085876464844 84.54486083984375 98.677734375 77.25028228759766 94.50430297851562 71.50566101074219 C 92.61697387695312 69.222900390625 89.07176971435547 62.808021545410156 86.47203826904297 57.245635986328125 C 82.78699493408203 49.44382095336914 81.6871109008789 45.81998825073242 81.46684265136719 40.922096252441406 C 81.66716766357422 34.938209533691406 81.3431167602539 34.65685272216797 84.7509536743164 35.04876708984375 C 87.0281982421875 34.79289245605469 87.49182891845703 35.36017608642578 87.55120086669922 38.03759002685547 C 87.46312713623047 42.82928466796875 100.25051879882812 63.65345764160156 103.1809310913086 63.67762756347656 C 103.77473449707031 63.60565948486328 104.17153930664062 60.6506462097168 104.17098999023438 57.03358840942383 L 104.21585845947266 50.74033737182617 L 108.96607208251953 50.251747131347656 C 114.66300201416016 50.40336227416992 116.68313598632812 53.33734130859375 115.64643096923828 60.06876754760742 C 114.88954162597656 64.32920837402344 115.14083862304688 64.614501953125 119.15484619140625 67.26777648925781 C 122.26287078857422 68.85125732421875 123.9294662475586 69.45759582519531 125.025634765625 68.51083374023438 C 125.97296142578125 67.52250671386719 128.3670654296875 67.84336853027344 132.71746826171875 69.31559753417969 C 139.92604064941406 71.15151977539062 139.92205810546875 71.25051879882812 133.5437469482422 82.73910522460938 C 130.3298797607422 89.46463775634766 129.26226806640625 90.35646057128906 126.85771179199219 90.23243713378906 L 123.98788452148438 89.65573120117188 L 124.74372863769531 112.49468231201172 L 125.75672912597656 135.48789978027344 L 109.41346740722656 135.70379638671875 C 94.39180755615234 135.4776611328125 93.33068084716797 135.39141845703125 93.43879699707031 133.19244384765625" stroke-width="1.0" fill="rgb(189, 246, 246)" opacity="0.9976488"/>
    <path d="M 82.80818939208984 166.6549835205078 C 82.76177978515625 150.20761108398438 82.396484375 146.42633056640625 80.69992065429688 143.41143798828125 C 79.12834167480469 140.4676971435547 78.99998474121094 139.67115783691406 80.59300994873047 138.10336303710938 C 81.75129699707031 136.3740997314453 85.71536254882812 136.13377380371094 109.66043090820312 135.75054931640625 C 133.90667724609375 136.14157104492188 137.8650665283203 136.51168823242188 139.27249145507812 137.49209594726562 C 140.57208251953125 139.65481567382812 140.4176483154297 140.47653198242188 138.7323760986328 143.39053344726562 C 137.1160125732422 146.47470092773438 136.80050659179688 150.3048858642578 136.8319091796875 166.78289794921875 L 136.61329650878906 186.55184936523438 L 82.79293823242188 186.50906372070312 L 82.80818939208984 166.6549835205078" stroke-width="1.0" fill="rgb(78, 143, 177)" opacity="0.99120533"/>
    <path d="M 43.462852478027344 194.52822875976562 C 39.927024841308594 192.81680297851562 38.496124267578125 191.13916015625 38.857818603515625 186.68643188476562 C 38.71247863769531 179.64906311035156 41.45911407470703 178.48593139648438 63.435054779052734 178.47976684570312 L 82.2981948852539 178.52093505859375 L 82.25460815429688 185.72613525390625 L 69.29835510253906 185.42906188964844 C 61.621307373046875 185.42916870117188 55.9408073425293 185.6119842529297 55.23347091674805 186.33279418945312 C 54.288883209228516 187.1050262451172 70.21305847167969 186.95919799804688 108.37617492675781 187.0941162109375 C 144.1996612548828 186.80615234375 162.9388427734375 186.87594604492188 162.977783203125 186.37347412109375 C 162.9403533935547 185.21908569335938 157.96507263183594 184.88937377929688 150.41390991210938 185.34201049804688 L 137.4254608154297 185.15017700195312 L 137.41012573242188 178.49392700195312 L 158.2869873046875 178.53273010253906 L 178.8883819580078 178.68760681152344 L 181.90101623535156 182.38528442382812 C 185.50387573242188 186.76754760742188 185.3994140625 188.6058807373047 181.74966430664062 192.60235595703125 L 178.57565307617188 195.8973388671875 L 112.41647338867188 195.85537719726562 C 72.18846893310547 196.0 45.41217041015625 195.3538818359375 43.462852478027344 194.52822875976562" stroke-width="1.0" fill="rgb(242, 253, 251)" opacity="0.9996888"/>
  </g>
</svg>
