<?xml version="1.0" ?>
<svg xmlns="http://www.w3.org/2000/svg" version="1.1" width="224" height="224">
  <defs/>
  <g>
    <path d="M 63.943115234375 28.0 C 95.98078918457031 28.0 128.0192108154297 28.0 160.056884765625 28.0 C 160.056884765625 64.04190063476562 160.056884765625 100.08380889892578 160.056884765625 136.12646484375 C 128.0192108154297 136.12646484375 95.98078918457031 136.12646484375 63.943115234375 136.12646484375 C 63.943115234375 100.08380889892578 63.943115234375 64.04190063476562 63.943115234375 28.0" stroke-width="0.0" fill="rgb(112, 79, 83)" opacity="1.0"/>
    <path d="M 102.47731018066406 36.936012268066406 C 108.83959197998047 36.936012268066406 115.2018814086914 36.936012268066406 121.56417083740234 36.936012268066406 C 121.56417083740234 44.86228942871094 121.56417083740234 52.78780746459961 121.56417083740234 60.714088439941406 C 115.2018814086914 60.714088439941406 108.83959197998047 60.714088439941406 102.47731018066406 60.714088439941406 C 102.47731018066406 52.78780746459961 102.47731018066406 44.86228942871094 102.47731018066406 36.936012268066406" stroke-width="0.0" fill="rgb(158, 97, 97)" opacity="1.0"/>
    <path d="M 131.1539764404297 36.936012268066406 C 137.51626586914062 36.936012268066406 143.87855529785156 36.936012268066406 150.2408447265625 36.936012268066406 C 150.2408447265625 44.86228942871094 150.2408447265625 52.78780746459961 150.2408447265625 60.714088439941406 C 143.87855529785156 60.714088439941406 137.51626586914062 60.714088439941406 131.1539764404297 60.714088439941406 C 131.1539764404297 52.78780746459961 131.1539764404297 44.86228942871094 131.1539764404297 36.936012268066406" stroke-width="0.0" fill="rgb(158, 97, 97)" opacity="1.0"/>
    <path d="M 102.47731018066406 69.3281021118164 C 108.83959197998047 69.3281021118164 115.2018814086914 69.3281021118164 121.56417083740234 69.3281021118164 C 121.56417083740234 77.25513458251953 121.56417083740234 85.18141174316406 121.56417083740234 93.10844421386719 C 115.2018814086914 93.10844421386719 108.83959197998047 93.10844421386719 102.47731018066406 93.10844421386719 C 102.47731018066406 85.18141174316406 102.47731018066406 77.25513458251953 102.47731018066406 69.3281021118164" stroke-width="0.0" fill="rgb(158, 97, 97)" opacity="1.0"/>
    <path d="M 131.1539764404297 69.3281021118164 C 137.51626586914062 69.3281021118164 143.87855529785156 69.3281021118164 150.2408447265625 69.3281021118164 C 150.2408447265625 77.25513458251953 150.2408447265625 85.18141174316406 150.2408447265625 93.10844421386719 C 143.87855529785156 93.10844421386719 137.51626586914062 93.10844421386719 131.1539764404297 93.10844421386719 C 131.1539764404297 85.18141174316406 131.1539764404297 77.25513458251953 131.1539764404297 69.3281021118164" stroke-width="0.0" fill="rgb(158, 97, 97)" opacity="1.0"/>
    <path d="M 102.47731018066406 101.72321319580078 C 108.83959197998047 101.72321319580078 115.2018814086914 101.72321319580078 121.56417083740234 101.72321319580078 C 121.56417083740234 109.6502456665039 121.56417083740234 117.57727813720703 121.56417083740234 125.50430297851562 C 115.2018814086914 125.50430297851562 108.83959197998047 125.50430297851562 102.47731018066406 125.50430297851562 C 102.47731018066406 117.57727813720703 102.47731018066406 109.6502456665039 102.47731018066406 101.72321319580078" stroke-width="0.0" fill="rgb(158, 97, 97)" opacity="1.0"/>
    <path d="M 131.1539764404297 101.72321319580078 C 137.51626586914062 101.72321319580078 143.87855529785156 101.72321319580078 150.2408447265625 101.72321319580078 C 150.2408447265625 109.6502456665039 150.2408447265625 117.57727813720703 150.2408447265625 125.50430297851562 C 143.87855529785156 125.50430297851562 137.51626586914062 125.50430297851562 131.1539764404297 125.50430297851562 C 131.1539764404297 117.57727813720703 131.1539764404297 109.6502456665039 131.1539764404297 101.72321319580078" stroke-width="0.0" fill="rgb(158, 97, 97)" opacity="1.0"/>
    <path d="M 73.79761505126953 36.936012268066406 C 80.15990447998047 36.936012268066406 86.52218627929688 36.936012268066406 92.88447570800781 36.936012268066406 C 92.88447570800781 44.86228942871094 92.88447570800781 52.78780746459961 92.88447570800781 60.714088439941406 C 86.52218627929688 60.714088439941406 80.15990447998047 60.714088439941406 73.79761505126953 60.714088439941406 C 73.79761505126953 52.78780746459961 73.79761505126953 44.86228942871094 73.79761505126953 36.936012268066406" stroke-width="0.0" fill="rgb(158, 97, 97)" opacity="1.0"/>
    <path d="M 73.79761505126953 69.3281021118164 C 80.15990447998047 69.3281021118164 86.52218627929688 69.3281021118164 92.88447570800781 69.3281021118164 C 92.88447570800781 77.25513458251953 92.88447570800781 85.18141174316406 92.88447570800781 93.10844421386719 C 86.52218627929688 93.10844421386719 80.15990447998047 93.10844421386719 73.79761505126953 93.10844421386719 C 73.79761505126953 85.18141174316406 73.79761505126953 77.25513458251953 73.79761505126953 69.3281021118164" stroke-width="0.0" fill="rgb(158, 97, 97)" opacity="1.0"/>
    <path d="M 73.79761505126953 101.72321319580078 C 80.15990447998047 101.72321319580078 86.52218627929688 101.72321319580078 92.88447570800781 101.72321319580078 C 92.88447570800781 109.6502456665039 92.88447570800781 117.57727813720703 92.88447570800781 125.50430297851562 C 86.52218627929688 125.50430297851562 80.15990447998047 125.50430297851562 73.79761505126953 125.50430297851562 C 73.79761505126953 117.57727813720703 73.79761505126953 109.6502456665039 73.79761505126953 101.72321319580078" stroke-width="0.0" fill="rgb(158, 97, 97)" opacity="1.0"/>
    <path d="M 102.40038299560547 36.936012268066406 C 108.7626724243164 36.936012268066406 115.12571716308594 36.936012268066406 121.48800659179688 36.936012268066406 C 121.48800659179688 37.58076477050781 121.48800659179688 38.22550964355469 121.48800659179688 38.870262145996094 C 115.12571716308594 38.8695068359375 108.7626724243164 38.86799621582031 102.40038299560547 38.86724853515625 C 102.40038299560547 38.2239990234375 102.40038299560547 37.58000946044922 102.40038299560547 36.936012268066406" stroke-width="0.0" fill="rgb(141, 88, 88)" opacity="1.0"/>
    <path d="M 131.1539764404297 36.936012268066406 C 137.51626586914062 36.936012268066406 143.87855529785156 36.936012268066406 150.2408447265625 36.936012268066406 C 150.2408447265625 37.58076477050781 150.2408447265625 38.22550964355469 150.2408447265625 38.870262145996094 C 143.87855529785156 38.8695068359375 137.51626586914062 38.86799621582031 131.1539764404297 38.86724853515625 C 131.1539764404297 38.2239990234375 131.1539764404297 37.58000946044922 131.1539764404297 36.936012268066406" stroke-width="0.0" fill="rgb(141, 88, 88)" opacity="1.0"/>
    <path d="M 102.40038299560547 69.3281021118164 C 108.7626724243164 69.3281021118164 115.12571716308594 69.3281021118164 121.48800659179688 69.3281021118164 C 121.48800659179688 69.97285461425781 121.48800659179688 70.61759948730469 121.48800659179688 71.26310729980469 C 115.12571716308594 71.26310729980469 108.7626724243164 71.26310729980469 102.40038299560547 71.26310729980469 C 102.40038299560547 70.61759948730469 102.40038299560547 69.97285461425781 102.40038299560547 69.3281021118164" stroke-width="0.0" fill="rgb(140, 87, 87)" opacity="1.0"/>
    <path d="M 131.1539764404297 69.3281021118164 C 137.51626586914062 69.3281021118164 143.87855529785156 69.3281021118164 150.2408447265625 69.3281021118164 C 150.2408447265625 69.97285461425781 150.2408447265625 70.61759948730469 150.2408447265625 71.26310729980469 C 143.87855529785156 71.26310729980469 137.51626586914062 71.26310729980469 131.1539764404297 71.26310729980469 C 131.1539764404297 70.61759948730469 131.1539764404297 69.97285461425781 131.1539764404297 69.3281021118164" stroke-width="0.0" fill="rgb(141, 88, 88)" opacity="1.0"/>
    <path d="M 102.40038299560547 101.72321319580078 C 108.7626724243164 101.72321319580078 115.12571716308594 101.72321319580078 121.48800659179688 101.72321319580078 C 121.48800659179688 102.36796569824219 121.48800659179688 103.01271057128906 121.48800659179688 103.65746307373047 C 115.12571716308594 103.65746307373047 108.7626724243164 103.65746307373047 102.40038299560547 103.65746307373047 C 102.40038299560547 103.01271057128906 102.40038299560547 102.36796569824219 102.40038299560547 101.72321319580078" stroke-width="0.0" fill="rgb(140, 87, 88)" opacity="1.0"/>
    <path d="M 131.1539764404297 101.72321319580078 C 137.51626586914062 101.72321319580078 143.87855529785156 101.72321319580078 150.2408447265625 101.72321319580078 C 150.2408447265625 102.36796569824219 150.2408447265625 103.01271057128906 150.2408447265625 103.65746307373047 C 143.87855529785156 103.65746307373047 137.51626586914062 103.65746307373047 131.1539764404297 103.65746307373047 C 131.1539764404297 103.01271057128906 131.1539764404297 102.36796569824219 131.1539764404297 101.72321319580078" stroke-width="0.0" fill="rgb(139, 87, 88)" opacity="1.0"/>
    <path d="M 102.40038299560547 36.936012268066406 C 102.9569091796875 36.936012268066406 103.513427734375 36.936012268066406 104.06995391845703 36.936012268066406 C 104.06995391845703 44.86228942871094 104.06995391845703 52.78780746459961 104.06995391845703 60.714088439941406 C 103.513427734375 60.714088439941406 102.9569091796875 60.714088439941406 102.40038299560547 60.714088439941406 C 102.40038299560547 52.78780746459961 102.40038299560547 44.86228942871094 102.40038299560547 36.936012268066406" stroke-width="0.0" fill="rgb(140, 87, 87)" opacity="1.0"/>
    <path d="M 131.1539764404297 36.936012268066406 C 131.7104949951172 36.936012268066406 132.2670135498047 36.936012268066406 132.82354736328125 36.936012268066406 C 132.82354736328125 44.86228942871094 132.82354736328125 52.78780746459961 132.82354736328125 60.714088439941406 C 132.2670135498047 60.714088439941406 131.7104949951172 60.714088439941406 131.1539764404297 60.714088439941406 C 131.1539764404297 52.78780746459961 131.1539764404297 44.86228942871094 131.1539764404297 36.936012268066406" stroke-width="0.0" fill="rgb(140, 87, 87)" opacity="1.0"/>
    <path d="M 73.79761505126953 36.936012268066406 C 80.15990447998047 36.936012268066406 86.52218627929688 36.936012268066406 92.88447570800781 36.936012268066406 C 92.88447570800781 37.58076477050781 92.88447570800781 38.22550964355469 92.88447570800781 38.870262145996094 C 86.52218627929688 38.8695068359375 80.15990447998047 38.86799621582031 73.79761505126953 38.86724853515625 C 73.79761505126953 38.2239990234375 73.79761505126953 37.58000946044922 73.79761505126953 36.936012268066406" stroke-width="0.0" fill="rgb(144, 89, 89)" opacity="1.0"/>
    <path d="M 102.40038299560547 69.3281021118164 C 102.9569091796875 69.3281021118164 103.513427734375 69.3281021118164 104.06995391845703 69.3281021118164 C 104.06995391845703 77.25513458251953 104.06995391845703 85.18141174316406 104.06995391845703 93.10844421386719 C 103.513427734375 93.10844421386719 102.9569091796875 93.10844421386719 102.40038299560547 93.10844421386719 C 102.40038299560547 85.18141174316406 102.40038299560547 77.25513458251953 102.40038299560547 69.3281021118164" stroke-width="0.0" fill="rgb(140, 87, 87)" opacity="1.0"/>
    <path d="M 131.1539764404297 69.3281021118164 C 131.7104949951172 69.3281021118164 132.2670135498047 69.3281021118164 132.82354736328125 69.3281021118164 C 132.82354736328125 77.25513458251953 132.82354736328125 85.18141174316406 132.82354736328125 93.10844421386719 C 132.2670135498047 93.10844421386719 131.7104949951172 93.10844421386719 131.1539764404297 93.10844421386719 C 131.1539764404297 85.18141174316406 131.1539764404297 77.25513458251953 131.1539764404297 69.3281021118164" stroke-width="0.0" fill="rgb(140, 87, 87)" opacity="1.0"/>
    <path d="M 73.79761505126953 69.3281021118164 C 80.15990447998047 69.3281021118164 86.52218627929688 69.3281021118164 92.88447570800781 69.3281021118164 C 92.88447570800781 69.97285461425781 92.88447570800781 70.61759948730469 92.88447570800781 71.26310729980469 C 86.52218627929688 71.26310729980469 80.15990447998047 71.26310729980469 73.79761505126953 71.26310729980469 C 73.79761505126953 70.61759948730469 73.79761505126953 69.97285461425781 73.79761505126953 69.3281021118164" stroke-width="0.0" fill="rgb(144, 89, 90)" opacity="1.0"/>
    <path d="M 102.40038299560547 101.72321319580078 C 102.9569091796875 101.72321319580078 103.513427734375 101.72321319580078 104.06995391845703 101.72321319580078 C 104.06995391845703 109.6502456665039 104.06995391845703 117.57727813720703 104.06995391845703 125.50430297851562 C 103.513427734375 125.50430297851562 102.9569091796875 125.50430297851562 102.40038299560547 125.50430297851562 C 102.40038299560547 117.57727813720703 102.40038299560547 109.6502456665039 102.40038299560547 101.72321319580078" stroke-width="0.0" fill="rgb(140, 87, 87)" opacity="1.0"/>
    <path d="M 131.1539764404297 101.72321319580078 C 131.7104949951172 101.72321319580078 132.2670135498047 101.72321319580078 132.82354736328125 101.72321319580078 C 132.82354736328125 109.6502456665039 132.82354736328125 117.57727813720703 132.82354736328125 125.50430297851562 C 132.2670135498047 125.50430297851562 131.7104949951172 125.50430297851562 131.1539764404297 125.50430297851562 C 131.1539764404297 117.57727813720703 131.1539764404297 109.6502456665039 131.1539764404297 101.72321319580078" stroke-width="0.0" fill="rgb(140, 87, 87)" opacity="1.0"/>
    <path d="M 73.79761505126953 101.72321319580078 C 80.15990447998047 101.72321319580078 86.52218627929688 101.72321319580078 92.88447570800781 101.72321319580078 C 92.88447570800781 102.36796569824219 92.88447570800781 103.01271057128906 92.88447570800781 103.65746307373047 C 86.52218627929688 103.65746307373047 80.15990447998047 103.65746307373047 73.79761505126953 103.65746307373047 C 73.79761505126953 103.01271057128906 73.79761505126953 102.36796569824219 73.79761505126953 101.72321319580078" stroke-width="0.0" fill="rgb(143, 89, 89)" opacity="1.0"/>
    <path d="M 73.79761505126953 36.936012268066406 C 74.35414123535156 36.936012268066406 74.91065979003906 36.936012268066406 75.46717834472656 36.936012268066406 C 75.46717834472656 44.86228942871094 75.46717834472656 52.78780746459961 75.46717834472656 60.714088439941406 C 74.91065979003906 60.714088439941406 74.35414123535156 60.714088439941406 73.79761505126953 60.714088439941406 C 73.79761505126953 52.78780746459961 73.79761505126953 44.86228942871094 73.79761505126953 36.936012268066406" stroke-width="0.0" fill="rgb(140, 87, 87)" opacity="1.0"/>
    <path d="M 73.79761505126953 69.3281021118164 C 74.35414123535156 69.3281021118164 74.91065979003906 69.3281021118164 75.46717834472656 69.3281021118164 C 75.46717834472656 77.25513458251953 75.46717834472656 85.18141174316406 75.46717834472656 93.10844421386719 C 74.91065979003906 93.10844421386719 74.35414123535156 93.10844421386719 73.79761505126953 93.10844421386719 C 73.79761505126953 85.18141174316406 73.79761505126953 77.25513458251953 73.79761505126953 69.3281021118164" stroke-width="0.0" fill="rgb(140, 87, 87)" opacity="1.0"/>
    <path d="M 160.056884765625 115.25768280029297 C 160.056884765625 142.17202758789062 160.056884765625 169.08563232421875 160.056884765625 196.0 C 128.0192108154297 196.0 95.98078918457031 196.0 63.943115234375 196.0 C 63.943115234375 176.04290771484375 63.943115234375 156.0858154296875 63.943115234375 136.12948608398438 C 95.98078918457031 129.17221069335938 128.0192108154297 122.21495056152344 160.056884765625 115.25768280029297" stroke-width="0.0" fill="rgb(246, 192, 148)" opacity="1.0"/>
    <path d="M 73.79761505126953 101.72321319580078 C 74.35414123535156 101.72321319580078 74.91065979003906 101.72321319580078 75.46717834472656 101.72321319580078 C 75.46717834472656 109.6502456665039 75.46717834472656 117.57727813720703 75.46717834472656 125.50430297851562 C 74.91065979003906 125.50430297851562 74.35414123535156 125.50430297851562 73.79761505126953 125.50430297851562 C 73.79761505126953 117.57727813720703 73.79761505126953 109.6502456665039 73.79761505126953 101.72321319580078" stroke-width="0.0" fill="rgb(140, 87, 87)" opacity="1.0"/>
    <path d="M 151.21890258789062 137.46046447753906 C 151.21890258789062 137.46046447753906 151.21890258789062 137.46046447753906 151.21890258789062 137.46046447753906 C 150.72874450683594 137.7786865234375 150.29287719726562 138.20701599121094 149.97840881347656 138.69943237304688 C 149.97840881347656 138.69943237304688 149.97840881347656 138.69943237304688 149.97840881347656 138.69943237304688 C 147.22447204589844 137.8450469970703 145.78038024902344 140.81240844726562 148.12184143066406 142.47067260742188 C 149.40379333496094 143.03472900390625 150.68650817871094 143.5980224609375 151.96923828125 144.1613311767578 C 152.5702362060547 142.9155731201172 153.1704864501953 141.67056274414062 153.77151489257812 140.4248046875 C 154.3740234375 138.40081787109375 153.2579803466797 137.2900390625 151.21890258789062 137.46046447753906 C 151.21890258789062 137.46046447753906 151.21890258789062 137.46046447753906 151.21890258789062 137.46046447753906" stroke-width="0.0" fill="rgb(209, 82, 92)" opacity="1.0"/>
    <path d="M 83.58650207519531 156.19366455078125 C 83.58650207519531 156.19366455078125 83.58650207519531 156.19366455078125 83.58650207519531 156.19366455078125 C 85.60370635986328 156.5382843017578 86.49127197265625 157.797607421875 85.93098449707031 159.759765625 C 85.6685562133789 160.67825317382812 85.41819763183594 161.79205322265625 84.39413452148438 162.19699096679688 C 83.53070068359375 162.5393524169922 82.904052734375 161.55224609375 83.1370620727539 160.8456573486328 C 83.42060089111328 159.98448181152344 83.9567642211914 159.2333984375 84.246337890625 158.36997985839844 C 84.246337890625 158.36997985839844 84.246337890625 158.36997985839844 84.246337890625 158.36997985839844 C 82.53755950927734 158.0336456298828 81.2442855834961 159.05996704101562 80.0113525390625 160.17376708984375 C 77.07716369628906 162.82440185546875 75.36311340332031 166.7072296142578 75.2635726928711 170.64134216308594 C 75.17383575439453 174.17124938964844 76.82453918457031 177.2584991455078 80.65609741210938 175.72317504882812 C 81.7012710571289 175.30389404296875 82.65293884277344 174.69081115722656 83.53673553466797 174.00006103515625 C 84.79984283447266 173.01446533203125 85.93173217773438 171.8780517578125 86.990478515625 170.67979431152344 C 88.67964935302734 168.76817321777344 90.19990539550781 166.69215393066406 91.51278686523438 164.5060272216797 C 91.51278686523438 164.5060272216797 91.51278686523438 164.5060272216797 91.51278686523438 164.5060272216797 C 93.33392333984375 166.1016845703125 91.02789306640625 168.44842529296875 89.8990249633789 169.94606018066406 C 87.16090393066406 173.58079528808594 82.63107299804688 178.69052124023438 77.56883239746094 178.0729217529297 C 73.86473083496094 177.6212158203125 72.88365173339844 173.3221435546875 73.02617645263672 170.20999145507812 C 73.28633880615234 164.52035522460938 77.53189086914062 157.11441040039062 83.58650207519531 156.19366455078125 C 83.58650207519531 156.19366455078125 83.58650207519531 156.19366455078125 83.58650207519531 156.19366455078125" stroke-width="0.0" fill="rgb(255, 254, 254)" opacity="1.0"/>
    <path d="M 92.17864990234375 153.54754638671875 C 92.17864990234375 153.54754638671875 92.17864990234375 153.54754638671875 92.17864990234375 153.54754638671875 C 93.35578918457031 153.7594451904297 93.44175720214844 154.40267944335938 93.47418212890625 155.46444702148438 C 93.47418212890625 155.80908203125 93.47418212890625 156.15293884277344 93.47418212890625 156.49755859375 C 93.73434448242188 159.34576416015625 94.26446533203125 162.17059326171875 94.69279479980469 164.9969482421875 C 94.83607482910156 165.9425811767578 94.95974731445312 166.8829345703125 95.08718872070312 167.830078125 C 95.1422348022461 168.24407958984375 95.18144989013672 168.66183471679688 95.27571105957031 169.06906127929688 C 95.2772216796875 169.07583618164062 95.49440002441406 169.36465454101562 95.57583618164062 169.27566528320312 C 96.1489486694336 168.6497802734375 96.34803009033203 167.28939819335938 96.68284606933594 166.51644897460938 C 97.7204818725586 164.11843872070312 99.05899810791016 160.86602783203125 101.65534210205078 159.8389434814453 C 102.58514404296875 159.470947265625 103.30982208251953 161.1940460205078 103.49307250976562 161.58241271972656 C 104.07673645019531 162.81837463378906 104.37761688232422 164.19232177734375 105.0502700805664 165.38906860351562 C 105.31043243408203 165.85208129882812 105.62338256835938 166.44857788085938 106.27190399169922 166.40182495117188 C 109.97450256347656 166.13336181640625 111.51285552978516 161.52584838867188 113.68238067626953 159.27035522460938 C 113.68238067626953 159.27035522460938 113.68238067626953 159.27035522460938 113.68238067626953 159.27035522460938 C 114.18762969970703 160.23635864257812 113.34454345703125 161.5801544189453 112.87625122070312 162.45941162109375 C 111.62596893310547 164.80917358398438 108.54473876953125 169.33148193359375 105.27725219726562 168.53892517089844 C 103.445556640625 168.09475708007812 102.8965835571289 165.5941925048828 102.35061645507812 164.0905303955078 C 102.30009460449219 163.95252990722656 101.6877670288086 162.08236694335938 101.3589859008789 162.26788330078125 C 100.38996887207031 162.81460571289062 99.82063293457031 163.85525512695312 99.29427337646484 164.78277587890625 C 98.04549407958984 166.98095703125 97.09307861328125 169.36541748046875 96.4241943359375 171.80113220214844 C 96.17383575439453 172.7120819091797 95.96720886230469 175.13876342773438 94.43036651611328 174.294921875 C 93.22457122802734 173.63357543945312 93.5654296875 170.60061645507812 93.41159057617188 169.42800903320312 C 92.90483856201172 165.57232666015625 92.24501037597656 161.76791381835938 91.50373840332031 157.95144653320312 C 91.23904418945312 156.5865478515625 90.63501739501953 154.3596954345703 92.17864990234375 153.54754638671875 C 92.17864990234375 153.54754638671875 92.17864990234375 153.54754638671875 92.17864990234375 153.54754638671875" stroke-width="0.0" fill="rgb(254, 254, 254)" opacity="1.0"/>
    <path d="M 128.74766540527344 153.29115295410156 C 128.74766540527344 153.29115295410156 128.74766540527344 153.29115295410156 128.74766540527344 153.29115295410156 C 129.33509826660156 154.5421905517578 128.08103942871094 155.57907104492188 127.13768005371094 156.14991760253906 C 125.35348510742188 157.23129272460938 123.13268280029297 157.22752380371094 121.18711853027344 156.7479248046875 C 121.18711853027344 156.7479248046875 121.18711853027344 156.7479248046875 121.18711853027344 156.7479248046875 C 123.6341552734375 159.89627075195312 121.2632827758789 164.88458251953125 118.10740661621094 166.64012145996094 C 115.98990631103516 167.81951904296875 113.13114166259766 168.2222137451172 112.1606216430664 165.35061645507812 C 111.22101593017578 162.56875610351562 112.83628845214844 158.6271209716797 114.37765502929688 156.344482421875 C 115.04502868652344 155.35585021972656 115.89715576171875 154.38534545898438 117.07731628417969 154.01885986328125 C 118.4444808959961 153.59353637695312 119.30943298339844 155.07081604003906 120.54840087890625 155.25782775878906 C 123.58740234375 155.71556091308594 126.26142120361328 155.07533264160156 128.74766540527344 153.29115295410156 C 128.74766540527344 153.29115295410156 128.74766540527344 153.29115295410156 128.74766540527344 153.29115295410156" stroke-width="0.0" fill="rgb(254, 254, 254)" opacity="1.0"/>
    <path d="M 116.70327758789062 156.35879516601562 C 116.70327758789062 156.35879516601562 116.70327758789062 156.35879516601562 116.70327758789062 156.35879516601562 C 115.04804229736328 157.28407287597656 114.21627807617188 160.79513549804688 114.0006103515625 162.4978790283203 C 114.0006103515625 162.7226104736328 114.0006103515625 162.9473114013672 114.0006103515625 163.1720428466797 C 114.23815155029297 165.33929443359375 115.64679718017578 166.11978149414062 117.63684844970703 164.74734497070312 C 119.29208374023438 163.6056365966797 120.90056610107422 160.9293670654297 120.31916046142578 158.85635375976562 C 120.12384796142578 158.15957641601562 119.8199462890625 157.10006713867188 119.08546447753906 156.7539520263672 C 118.4852066040039 156.47116088867188 117.39402770996094 156.480224609375 116.70327758789062 156.35879516601562 C 116.70327758789062 156.35879516601562 116.70327758789062 156.35879516601562 116.70327758789062 156.35879516601562" stroke-width="0.0" fill="rgb(247, 193, 148)" opacity="1.0"/>
    <path d="M 130.48208618164062 150.44671630859375 C 130.48208618164062 150.44671630859375 130.48208618164062 150.44671630859375 130.48208618164062 150.44671630859375 C 131.69163513183594 150.94515991210938 132.99923706054688 151.8553466796875 133.4290771484375 153.2059326171875 C 133.48487854003906 153.3816375732422 133.54444885253906 154.8031005859375 133.0354461669922 154.9132080078125 C 132.20669555664062 155.09193420410156 131.105712890625 153.05662536621094 130.76486206054688 152.62301635742188 C 130.76486206054688 152.62301635742188 130.76486206054688 152.62301635742188 130.76486206054688 152.62301635742188 C 128.73031616210938 154.00527954101562 128.4482879638672 157.2003631591797 128.6828155517578 159.47396850585938 C 128.81100463867188 160.7129364013672 129.24838256835938 161.90591430664062 130.6298828125 162.19171142578125 C 131.52272033691406 162.37571716308594 132.62823486328125 161.8199462890625 133.3808135986328 161.4180145263672 C 135.96282958984375 160.03802490234375 137.69046020507812 157.50503540039062 139.29290771484375 155.1492462158203 C 139.8388671875 154.34613037109375 140.9029083251953 152.04840087890625 141.9918212890625 151.94886779785156 C 142.89747619628906 151.86666870117188 141.66453552246094 153.81600952148438 141.5348358154297 154.01583862304688 C 141.24752807617188 154.4901580810547 140.960205078125 154.96524047851562 140.6728973388672 155.4403076171875 C 138.96112060546875 158.1218719482422 136.96275329589844 161.26947021484375 134.18014526367188 162.93072509765625 C 133.10556030273438 163.57171630859375 131.3364715576172 164.4803924560547 130.01454162597656 164.07318115234375 C 125.5540771484375 162.7007293701172 126.5555191040039 156.89344787597656 127.9505844116211 153.600341796875 C 128.50408935546875 152.2942352294922 129.21897888183594 151.1246337890625 130.48208618164062 150.44671630859375 C 130.48208618164062 150.44671630859375 130.48208618164062 150.44671630859375 130.48208618164062 150.44671630859375" stroke-width="0.0" fill="rgb(254, 254, 253)" opacity="1.0"/>
    <path d="M 145.9568328857422 147.27574157714844 C 145.9568328857422 147.27574157714844 145.9568328857422 147.27574157714844 145.9568328857422 147.27574157714844 C 149.2612762451172 147.27574157714844 151.61856079101562 150.10435485839844 150.63296508789062 153.43215942382812 C 149.81326293945312 156.19969177246094 147.08270263671875 159.51846313476562 144.32875061035156 160.48971557617188 C 141.41116333007812 161.5198211669922 139.957275390625 158.3428192138672 140.06887817382812 156.0021209716797 C 140.2589111328125 152.00466918945312 141.9918212890625 148.5675048828125 145.9568328857422 147.27574157714844 C 145.9568328857422 147.27574157714844 145.9568328857422 147.27574157714844 145.9568328857422 147.27574157714844" stroke-width="0.0" fill="rgb(254, 254, 254)" opacity="1.0"/>
    <path d="M 145.37693786621094 149.32235717773438 C 145.37693786621094 149.32235717773438 145.37693786621094 149.32235717773438 145.37693786621094 149.32235717773438 C 143.00982666015625 150.63372802734375 142.1298065185547 153.4804229736328 142.1298065185547 156.07601928710938 C 142.1298065185547 157.15814208984375 142.7082061767578 158.9257354736328 144.2111053466797 158.47930908203125 C 146.3074951171875 157.8564453125 148.4340362548828 154.89962768554688 148.78921508789062 152.79420471191406 C 149.19717407226562 150.37657165527344 147.63619995117188 149.09234619140625 145.37693786621094 149.32235717773438 C 145.37693786621094 149.32235717773438 145.37693786621094 149.32235717773438 145.37693786621094 149.32235717773438" stroke-width="0.0" fill="rgb(247, 193, 148)" opacity="1.0"/>
  </g>
</svg>
