<?xml version="1.0" ?>
<svg xmlns="http://www.w3.org/2000/svg" version="1.1" width="224" height="224">
  <defs/>
  <g>
    <path d="M 87.69300079345703 87.88009643554688 C 103.89766693115234 87.88009643554688 120.10234069824219 87.88009643554688 136.3070068359375 87.88009643554688 C 143.0260772705078 88.30107116699219 147.6975860595703 92.97257995605469 148.11856079101562 99.69164276123047 C 148.11856079101562 127.85121154785156 148.11856079101562 156.01077270507812 148.11856079101562 184.1703338623047 C 147.69833374023438 190.889404296875 143.02984619140625 195.57826232910156 136.3070068359375 196.0 C 120.10234069824219 196.0 103.89766693115234 196.0 87.69300079345703 196.0 C 80.97393035888672 195.57977294921875 76.30242919921875 190.9075164794922 75.88143920898438 184.18844604492188 C 75.88143920898438 156.02284240722656 75.88143920898438 127.85724639892578 75.88143920898438 99.69164276123047 C 76.30242919921875 92.97257995605469 80.97393035888672 88.30107116699219 87.69300079345703 87.88009643554688 C 87.69300079345703 87.88009643554688 87.69300079345703 87.88009643554688 87.69300079345703 87.88009643554688" stroke-width="0.0" fill="rgb(247, 193, 148)" opacity="1.0" stroke="rgb(0, 0, 0)" stroke-opacity="1.0" stroke-linecap="round" stroke-linejoin="round"/>
    <path d="M 112.21463775634766 27.99999237060547 C 112.21463775634766 27.99999237060547 112.21463775634766 27.99999237060547 112.21463775634766 27.99999237060547 C 111.19538879394531 32.9189567565918 109.68952178955078 38.01898956298828 106.7637939453125 42.1691780090332 C 104.02214813232422 46.056819915771484 100.17223358154297 48.97425079345703 97.26913452148438 52.72760009765625 C 93.39356231689453 57.73785400390625 92.01594543457031 64.40863037109375 93.20721435546875 70.59581756591797 C 94.02578735351562 74.8418197631836 96.09522247314453 78.889404296875 99.35441589355469 81.77664947509766 C 107.52200317382812 89.01100158691406 120.6161117553711 87.7691879272461 127.43627166748047 79.2952880859375 C 134.1462860107422 70.95794677734375 131.2522430419922 59.79823303222656 130.43064880371094 50.099876403808594 C 130.43064880371094 50.099876403808594 130.43064880371094 50.099876403808594 130.43064880371094 50.099876403808594 C 129.61434936523438 51.61328887939453 129.22052001953125 52.46807098388672 128.25332641601562 53.83436965942383 C 127.95306396484375 54.25761032104492 127.63167572021484 54.667274475097656 127.28010559082031 55.04826736450195 C 127.00473022460938 55.34702682495117 126.70521545410156 55.626922607421875 126.37628173828125 55.86532974243164 C 123.49053955078125 57.9573974609375 121.7696533203125 53.396034240722656 121.04991149902344 51.386959075927734 C 120.8696060180664 50.884498596191406 120.70362854003906 50.37600326538086 120.54368591308594 49.866756439208984 C 118.90201568603516 44.64601516723633 117.99215698242188 39.21176528930664 116.17848205566406 34.0430793762207 C 115.36972045898438 31.737503051757812 114.44477081298828 29.24029541015625 112.21463775634766 27.99999237060547 C 112.21463775634766 27.99999237060547 112.21463775634766 27.99999237060547 112.21463775634766 27.99999237060547" stroke-width="0.0" fill="rgb(249, 173, 90)" opacity="1.0" stroke="rgb(0, 0, 0)" stroke-opacity="1.0" stroke-linecap="round" stroke-linejoin="round"/>
    <path d="M 101.60491180419922 125.470947265625 C 101.60491180419922 125.470947265625 101.60491180419922 125.470947265625 101.60491180419922 125.470947265625 C 93.22230529785156 125.9220962524414 86.31764221191406 133.25149536132812 88.31390380859375 141.9253387451172 C 88.95140838623047 144.6941375732422 90.51385498046875 146.96426391601562 92.34715270996094 149.07366943359375 C 98.913818359375 155.36497497558594 105.48048400878906 161.655517578125 112.04714965820312 167.946044921875 C 118.48783111572266 161.7181396484375 124.92926025390625 155.49020385742188 131.36993408203125 149.2622833251953 C 133.9342803955078 146.39389038085938 135.92752075195312 143.05096435546875 135.95016479492188 139.08560180664062 C 135.9961700439453 131.058349609375 128.7316436767578 124.67349243164062 120.80094909667969 125.55619049072266 C 117.25657653808594 125.95152282714844 114.37837982177734 127.71917724609375 111.97019958496094 130.26089477539062 C 111.97019958496094 130.26089477539062 111.97019958496094 130.26089477539062 111.97019958496094 130.26089477539062 C 109.0799331665039 127.21220397949219 105.79886627197266 125.70556640625 101.60491180419922 125.470947265625 C 101.60491180419922 125.470947265625 101.60491180419922 125.470947265625 101.60491180419922 125.470947265625" stroke-width="0.0" fill="rgb(209, 82, 92)" opacity="1.0" stroke="rgb(0, 0, 0)" stroke-opacity="1.0" stroke-linecap="round" stroke-linejoin="round"/>
    <path d="M 101.79654693603516 130.29937744140625 C 101.79654693603516 130.29937744140625 101.79654693603516 130.29937744140625 101.79654693603516 130.29937744140625 C 103.23375701904297 130.41404724121094 104.5004653930664 130.59512329101562 105.7935791015625 131.28919982910156 C 106.23040008544922 131.52383422851562 107.93091583251953 132.29940795898438 107.12743377685547 133.342041015625 C 106.38128662109375 134.3099822998047 104.00706481933594 132.46463012695312 103.23375701904297 132.2948760986328 C 101.27522277832031 131.8656005859375 99.18919372558594 132.35145568847656 97.62523651123047 133.6053466796875 C 96.05448150634766 134.864501953125 95.13255310058594 136.79437255859375 95.12727355957031 138.8057098388672 C 95.12576293945312 139.29684448242188 95.39434814453125 139.78875732421875 95.2955093383789 140.2693328857422 C 95.19668579101562 140.75367736816406 94.79984283447266 141.6884307861328 94.37660217285156 141.43267822265625 C 92.9491958618164 140.57186889648438 93.14459991455078 138.7664794921875 93.40940856933594 137.29457092285156 C 94.17742919921875 133.0297088623047 97.72481536865234 130.66603088378906 101.79654693603516 130.29937744140625 C 101.79654693603516 130.29937744140625 101.79654693603516 130.29937744140625 101.79654693603516 130.29937744140625" stroke-width="0.0" fill="rgb(255, 255, 255)" opacity="1.0" stroke="rgb(0, 0, 0)" stroke-opacity="1.0" stroke-linecap="round" stroke-linejoin="round"/>
    <path d="M 109.72045135498047 52.14743423461914 C 109.72045135498047 52.14743423461914 109.72045135498047 52.14743423461914 109.72045135498047 52.14743423461914 C 107.67138671875 56.62052536010742 105.3552474975586 61.07475280761719 104.29073333740234 65.91450500488281 C 103.69849395751953 68.60861206054688 103.44274139404297 71.64750671386719 104.70642852783203 74.2012939453125 C 107.51295471191406 79.87319946289062 118.42369842529297 81.27570343017578 119.8465805053711 73.7863540649414 C 120.29622650146484 71.41815948486328 119.27471160888672 69.05223083496094 118.20188903808594 67.00466918945312 C 116.38745880126953 63.539520263671875 113.83970642089844 60.436492919921875 113.36365509033203 56.447757720947266 C 113.36365509033203 56.447757720947266 113.36365509033203 56.447757720947266 113.36365509033203 56.447757720947266 C 113.08526611328125 56.865718841552734 112.83479309082031 57.304046630859375 112.5277328491211 57.70164108276367 C 112.29536437988281 58.00191116333008 112.09317016601562 58.694488525390625 111.7491455078125 58.53303527832031 C 111.35079956054688 58.34593200683594 111.6186294555664 57.66165542602539 111.52583312988281 57.231624603271484 C 111.14408874511719 55.4609489440918 110.45075225830078 53.79966354370117 109.72347259521484 52.150455474853516 C 109.72347259521484 52.150455474853516 109.72347259521484 52.150455474853516 109.72347259521484 52.150455474853516 C 109.72347259521484 52.150455474853516 109.72045135498047 52.14743423461914 109.72045135498047 52.14743423461914" stroke-width="0.0" fill="rgb(234, 133, 0)" opacity="1.0" stroke="rgb(0, 0, 0)" stroke-opacity="1.0" stroke-linecap="round" stroke-linejoin="round"/>
    <path d="M 111.01658630371094 62.21245193481445 C 111.01658630371094 62.21245193481445 111.01658630371094 62.21245193481445 111.01658630371094 62.21245193481445 C 108.9961929321289 65.96278381347656 105.73548889160156 72.05868530273438 108.00711059570312 76.33032989501953 C 109.81702423095703 79.73286437988281 116.62284851074219 80.30699920654297 117.1607666015625 75.65359497070312 C 117.49573516845703 72.75276947021484 114.86575317382812 70.4622802734375 113.26180267333984 68.3928451538086 C 111.7566909790039 66.45091247558594 111.11541748046875 64.66212463378906 111.01658630371094 62.21245193481445 C 111.01658630371094 62.21245193481445 111.01658630371094 62.21245193481445 111.01658630371094 62.21245193481445" stroke-width="0.0" fill="rgb(229, 101, 62)" opacity="1.0" stroke="rgb(0, 0, 0)" stroke-opacity="1.0" stroke-linecap="round" stroke-linejoin="round"/>
  </g>
</svg>
