<?xml version="1.0" ?>
<svg xmlns="http://www.w3.org/2000/svg" version="1.1" width="224" height="224">
  <defs/>
  <g>
    <path d="M 50.3018913269043 134.3890380859375 C 50.45956802368164 119.10428619384766 50.383514404296875 118.9040298461914 52.46559524536133 116.2046127319336 L 54.486366271972656 114.45256805419922 L 106.49446868896484 113.675537109375 C 134.93829345703125 113.79791259765625 158.79269409179688 114.14066314697266 159.95846557617188 114.21394348144531 C 161.05799865722656 114.64550018310547 162.62026977539062 115.60551452636719 163.4929962158203 116.26374816894531 C 165.1429443359375 118.14231872558594 165.33514404296875 119.35462188720703 165.13905334472656 134.3905029296875 L 165.2672119140625 150.84130859375 L 50.34358596801758 150.29290771484375 L 50.3018913269043 134.3890380859375" stroke-width="1.0" fill="rgb(254, 255, 253)" opacity="0.9979212"/>
    <path d="M 29.5426025390625 187.49122619628906 C 28.457290649414062 185.13418579101562 28.0 176.47625732421875 29.096397399902344 172.6219940185547 C 29.28618621826172 168.4312744140625 30.202529907226562 168.14683532714844 108.4570083618164 167.44154357910156 C 172.10374450683594 169.04237365722656 181.95205688476562 168.8232421875 184.17294311523438 169.83700561523438 C 186.45785522460938 171.9285430908203 186.72702026367188 172.06536865234375 187.13589477539062 179.504638671875 C 186.85418701171875 192.79122924804688 196.0 190.36593627929688 106.55638122558594 190.58364868164062 L 31.92217254638672 190.43832397460938 L 29.5426025390625 187.49122619628906" stroke-width="0.0" fill="rgb(123, 186, 252)" opacity="0.9886737"/>
    <path d="M 63.82487106323242 113.1954116821289 C 63.75175094604492 112.23811340332031 63.65409469604492 104.09119415283203 63.60836410522461 94.54800415039062 L 63.74811935424805 76.89727783203125 L 66.07257080078125 74.9062271118164 L 68.49958801269531 72.63639831542969 L 108.49229431152344 72.7473373413086 C 147.98377990722656 72.62873840332031 148.81576538085938 72.60388946533203 150.72100830078125 74.21499633789062 L 153.1422119140625 76.05702209472656 L 153.1969451904297 114.36045837402344 L 108.833251953125 114.3040542602539 C 71.91944885253906 114.38378143310547 64.24320220947266 114.327392578125 63.82487106323242 113.1954116821289" stroke-width="1.0" fill="rgb(122, 186, 253)" opacity="0.99179554"/>
    <path d="M 55.32951354980469 133.40438842773438 C 53.267738342285156 132.31802368164062 53.56809997558594 130.60353088378906 55.73114776611328 129.04757690429688 C 57.40364074707031 127.63200378417969 63.89116287231445 127.58350372314453 108.4422607421875 127.69998931884766 C 156.52178955078125 127.62445068359375 159.33126831054688 127.604736328125 160.62217712402344 129.24708557128906 C 162.20175170898438 131.12838745117188 162.3865966796875 131.46633911132812 160.67636108398438 133.06903076171875 C 159.49465942382812 134.22296142578125 153.59043884277344 134.44223022460938 108.43080139160156 134.2727813720703 C 74.78498840332031 134.37081909179688 56.37444305419922 134.07574462890625 55.32951354980469 133.40438842773438" stroke-width="1.0" fill="rgb(254, 210, 224)" opacity="0.98715925"/>
    <path d="M 37.987754821777344 161.6451416015625 C 38.070762634277344 155.08616638183594 38.231353759765625 154.24020385742188 40.08295440673828 152.35015869140625 L 42.07152557373047 150.3498992919922 L 173.987548828125 150.28128051757812 L 175.57452392578125 152.0625 C 177.11627197265625 154.0581817626953 177.4103546142578 155.65750122070312 177.43899536132812 161.42282104492188 L 177.43502807617188 169.0153045654297 L 38.16687774658203 168.9018096923828 L 37.987754821777344 161.6451416015625" stroke-width="1.0" fill="rgb(255, 219, 101)" opacity="0.97218984"/>
    <path d="M 95.17068481445312 72.38577270507812 C 94.59925842285156 72.59010314941406 94.45497131347656 67.386962890625 94.41576385498047 61.07278823852539 C 94.42436218261719 51.301570892333984 94.37869262695312 49.76288986206055 96.03135681152344 49.55031967163086 C 97.03832244873047 48.882728576660156 102.39832305908203 48.71831130981445 108.280517578125 48.71966552734375 C 117.03961181640625 48.89746856689453 119.52311706542969 49.056705474853516 120.03175354003906 49.79585647583008 C 120.70226287841797 52.15996170043945 120.84222412109375 71.79048156738281 120.06502532958984 72.4368896484375 C 117.99822998046875 72.92989349365234 95.57437896728516 73.20108795166016 95.17068481445312 72.38577270507812" stroke-width="0.0" fill="rgb(253, 255, 253)" opacity="0.9925402"/>
    <path d="M 186.13107299804688 178.13345336914062 C 185.92251586914062 166.7793426513672 194.69314575195312 167.83065795898438 107.31851959228516 169.5349578857422 C 33.18054962158203 170.84014892578125 32.101654052734375 170.95272827148438 30.171791076660156 173.0832061767578 C 29.541656494140625 173.9844970703125 28.748123168945312 174.3857879638672 28.8173828125 173.95956420898438 C 28.737281799316406 173.47402954101562 29.38159942626953 172.63580322265625 30.53215789794922 171.90463256835938 C 32.24360656738281 170.65914916992188 40.87462615966797 170.74044799804688 107.7247085571289 169.2499542236328 L 182.57427978515625 168.16409301757812 L 184.53408813476562 169.5739288330078 C 186.47247314453125 171.2678985595703 186.99981689453125 172.2560272216797 186.77606201171875 177.85475158691406 C 187.101806640625 181.13241577148438 186.92803955078125 183.98245239257812 186.718994140625 183.98260498046875 C 186.47061157226562 184.03439331054688 186.39474487304688 181.2537841796875 186.13107299804688 178.13345336914062" stroke-width="1.0" fill="rgb(175, 192, 220)" opacity="0.85907173"/>
    <path d="M 103.38521575927734 59.670082092285156 C 99.14469909667969 57.31651306152344 97.08439636230469 51.64735412597656 99.40936279296875 47.49335479736328 C 100.99162292480469 45.04018020629883 105.38740539550781 40.6054573059082 106.64730834960938 40.72667694091797 C 108.49452209472656 40.637184143066406 109.909423828125 38.64917755126953 109.9067153930664 36.44630432128906 L 109.77210998535156 34.054588317871094 L 110.9968490600586 36.048927307128906 C 112.09143829345703 37.349708557128906 112.24288177490234 38.291656494140625 111.50119018554688 39.814796447753906 C 110.8198013305664 41.380096435546875 110.97966766357422 42.13023376464844 113.69778442382812 44.50349426269531 C 116.17192840576172 46.883724212646484 116.82588958740234 48.07284927368164 116.78766632080078 50.56868362426758 C 116.86351013183594 54.74348831176758 115.1138916015625 57.59395980834961 111.61567687988281 59.31012725830078 C 108.6279525756836 60.86775207519531 105.98856353759766 61.00253677368164 103.38521575927734 59.670082092285156" stroke-width="1.0" fill="rgb(254, 219, 109)" opacity="0.99352044"/>
    <path d="M 104.87467956542969 40.571292877197266 C 103.1520767211914 40.083953857421875 103.36735534667969 38.300323486328125 105.55982208251953 36.16905212402344 C 106.50868225097656 35.283203125 107.1756362915039 33.65050506591797 107.253173828125 32.90135192871094 C 107.15008544921875 32.03309631347656 107.90267944335938 31.263427734375 108.38502502441406 31.22071075439453 C 110.31048583984375 31.208770751953125 110.5254135131836 35.476661682128906 109.14881896972656 38.63105773925781 C 108.34199523925781 41.168025970458984 107.21955108642578 41.52731704711914 104.87467956542969 40.571292877197266" stroke-width="1.0" fill="rgb(254, 162, 58)" opacity="1.0"/>
    <path d="M 104.60330963134766 54.9976692199707 C 102.02029418945312 52.3812141418457 104.79839324951172 45.38867950439453 108.3131103515625 45.51134490966797 C 109.51773834228516 45.24711227416992 109.49827575683594 46.964988708496094 108.28952026367188 47.62743377685547 C 107.74667358398438 47.828670501708984 107.29330444335938 48.92082595825195 107.2818832397461 50.075504302978516 C 107.2795639038086 51.6002197265625 107.77477264404297 51.91596603393555 109.46747589111328 51.62514114379883 C 112.4815902709961 51.09553146362305 113.2640609741211 52.397804260253906 111.09405517578125 54.604915618896484 C 109.33577728271484 56.50469207763672 106.25167083740234 56.72391128540039 104.60330963134766 54.9976692199707" stroke-width="1.0" fill="rgb(251, 90, 26)" opacity="0.991981"/>
  </g>
</svg>
