<?xml version="1.0" ?>
<svg xmlns="http://www.w3.org/2000/svg" version="1.1" width="224" height="224">
  <defs/>
  <g>
    <path d="M 50.21516036987305 141.4108428955078 C 48.584930419921875 139.4367218017578 49.34032440185547 139.69081115722656 49.3840217590332 123.12297058105469 L 49.388980865478516 105.55791473388672 L 50.071197509765625 103.38953399658203 C 52.25603103637695 103.43380737304688 57.688720703125 103.29772186279297 110.7791519165039 103.8210220336914 C 156.2547149658203 103.63628387451172 169.2530059814453 103.6431884765625 171.44754028320312 104.19573974609375 L 172.42160034179688 104.34211730957031 L 172.42735290527344 122.06359100341797 C 172.15737915039062 138.4487762451172 172.882568359375 139.67689514160156 172.07180786132812 141.04656982421875 L 170.1093292236328 142.68270874023438 L 111.38276672363281 143.11605834960938 C 54.499568939208984 143.5709228515625 52.845890045166016 143.6693115234375 50.21516036987305 141.4108428955078" stroke-width="0.0" fill="rgb(84, 34, 25)" opacity="0.99602497"/>
    <path d="M 38.536537170410156 191.91098022460938 L 36.531219482421875 189.34225463867188 L 36.581451416015625 173.16842651367188 C 36.71330261230469 160.802001953125 36.613609313964844 154.97195434570312 36.988197326660156 154.35000610351562 C 37.720542907714844 154.12548828125 39.38245391845703 153.25164794921875 40.66077423095703 153.00247192382812 C 41.74378204345703 152.7719268798828 71.04308319091797 152.11666870117188 105.6204833984375 151.5135955810547 C 168.42652893066406 150.8080596923828 174.30364990234375 150.94808959960938 180.83148193359375 152.75149536132812 C 185.94969177246094 154.4746856689453 184.45823669433594 154.28512573242188 184.79794311523438 172.42239379882812 C 184.71969604492188 187.59271240234375 185.07395935058594 188.45858764648438 183.7061309814453 190.21218872070312 L 178.83734130859375 195.97325134277344 L 42.59833526611328 196.0 L 38.536537170410156 191.91098022460938" stroke-width="0.0" fill="rgb(82, 35, 26)" opacity="0.9960723"/>
    <path d="M 105.98749542236328 47.824466705322266 C 102.37097930908203 43.45268249511719 102.52415466308594 39.729331970214844 107.0855712890625 34.36048126220703 C 108.80793762207031 32.01789093017578 110.15721893310547 29.49755859375 110.16256713867188 29.089096069335938 C 109.8623046875 28.168914794921875 110.42120361328125 28.102012634277344 111.2385482788086 27.99999237060547 C 112.01459503173828 28.09954071044922 112.57231140136719 28.06395721435547 112.218994140625 28.72673797607422 C 112.19047546386719 29.234100341796875 113.68901062011719 32.346771240234375 115.4979019165039 34.98802185058594 C 118.2441635131836 39.705162048339844 118.43708801269531 40.766395568847656 118.28148651123047 43.2286376953125 C 117.6192626953125 46.91470718383789 114.21534729003906 50.4638557434082 111.09954071044922 50.39098358154297 C 109.16122436523438 50.44364929199219 107.87651824951172 49.65324401855469 105.98749542236328 47.824466705322266" stroke-width="1.0" fill="rgb(110, 54, 26)" opacity="0.9800287"/>
    <path d="M 83.66101837158203 110.29764556884766 C 78.55458068847656 107.5135498046875 75.9352798461914 106.83099365234375 67.4146728515625 109.5015640258789 C 65.05198669433594 109.93061828613281 63.983646392822266 109.25186920166016 60.597984313964844 106.7319107055664 C 57.19287109375 102.9620132446289 56.530921936035156 103.0121841430664 53.21471405029297 103.6488265991211 C 50.86616516113281 104.6304702758789 49.360347747802734 104.39820861816406 48.0184211730957 103.32988739013672 C 46.6180534362793 101.15687561035156 46.141685485839844 96.40397644042969 47.222782135009766 93.16256713867188 C 48.890689849853516 89.56697082519531 51.397212982177734 87.793212890625 58.40138626098633 87.17332458496094 C 77.68453216552734 84.73802947998047 124.29678344726562 84.14849853515625 146.6898956298828 85.78023529052734 C 169.83677673339844 87.42324829101562 170.00506591796875 87.46417236328125 173.1062774658203 90.4101791381836 C 175.71925354003906 93.68525695800781 176.43101501464844 99.09394836425781 174.53761291503906 102.03096771240234 C 172.93991088867188 104.5519790649414 172.7306671142578 105.39923095703125 167.67575073242188 103.91859436035156 C 163.0546112060547 103.33199310302734 162.47250366210938 104.2157211303711 159.23910522460938 106.66181182861328 C 154.024658203125 111.00799560546875 151.83877563476562 111.31439208984375 146.10435485839844 108.02124786376953 C 139.39266967773438 104.34891510009766 135.70938110351562 104.18079376220703 129.10235595703125 108.31362915039062 L 123.89566802978516 111.54122161865234 L 118.03995513916016 107.83454895019531 C 109.73796844482422 102.82910919189453 105.65009307861328 103.47398376464844 96.77935791015625 110.06861114501953 C 94.27249145507812 112.30148315429688 91.36363220214844 113.67314910888672 90.35700225830078 113.7345199584961 C 89.16184997558594 113.42517852783203 86.21814727783203 112.04800415039062 83.66101837158203 110.29764556884766" stroke-width="0.0" fill="rgb(223, 133, 23)" opacity="1.0"/>
    <path d="M 85.32757568359375 166.350830078125 C 76.97128295898438 160.49136352539062 72.3792953491211 159.6244659423828 65.77375793457031 163.01611328125 C 59.62325668334961 165.8075714111328 58.98137283325195 165.589111328125 52.248939514160156 158.8282012939453 C 45.84736633300781 152.83795166015625 46.41539764404297 153.01580810546875 38.68499755859375 155.2429656982422 C 35.120338439941406 155.55789184570312 31.973777770996094 152.0161590576172 31.487960815429688 147.47103881835938 C 31.233078002929688 140.62582397460938 33.921058654785156 138.1811981201172 43.23841094970703 137.10064697265625 C 48.690452575683594 136.53713989257812 49.352455139160156 136.8509521484375 49.615169525146484 138.43826293945312 C 49.39339828491211 138.95773315429688 50.21893310546875 139.90196228027344 51.44984436035156 140.42767333984375 C 52.526939392089844 142.06671142578125 59.49366760253906 141.784423828125 110.86650848388672 141.6531219482422 L 169.30239868164062 141.88858032226562 L 171.1779327392578 139.1317901611328 C 173.5806427001953 136.680908203125 176.58975219726562 136.56019592285156 183.52734375 137.92481994628906 C 190.19403076171875 139.3345184326172 192.76690673828125 146.0216827392578 189.0869140625 151.7229461669922 C 186.40171813964844 155.7449188232422 184.29852294921875 156.25341796875 178.88134765625 153.90257263183594 C 171.4814453125 150.2440185546875 169.04241943359375 150.86097717285156 161.28854370117188 159.16036987304688 C 155.17491149902344 166.2978515625 153.19088745117188 167.07571411132812 148.5489501953125 165.02369689941406 C 143.77169799804688 162.5198516845703 140.0677490234375 162.81790161132812 135.72789001464844 165.6605682373047 C 133.74972534179688 167.0279541015625 131.31394958496094 168.10498046875 130.17333984375 168.19921875 C 129.06063842773438 168.0420684814453 126.44637298583984 166.49496459960938 124.19606018066406 164.4824676513672 C 118.14210510253906 159.75216674804688 114.46375274658203 158.05899047851562 110.03447723388672 158.0244903564453 C 105.82653045654297 158.12109375 102.97559356689453 159.38829040527344 95.69135284423828 164.85269165039062 C 92.99446868896484 166.8806915283203 90.10528564453125 168.662109375 89.48080444335938 168.3846893310547 C 88.82701873779297 168.43824768066406 87.14028930664062 167.42022705078125 85.32757568359375 166.350830078125" stroke-width="1.0" fill="rgb(223, 133, 23)" opacity="0.9996597"/>
    <path d="M 107.46510314941406 46.31778335571289 C 105.25814056396484 43.68916702270508 105.41314697265625 40.18101501464844 108.10587310791016 36.70203399658203 C 109.25333404541016 35.12825012207031 110.40408325195312 33.748085021972656 110.58820343017578 33.741615295410156 C 111.17465209960938 33.71983337402344 114.14848327636719 37.59124755859375 115.4795150756836 39.89452362060547 C 116.99812316894531 42.61102294921875 116.50138092041016 44.20618438720703 114.21833801269531 46.331912994384766 C 111.7213134765625 48.82830810546875 109.686279296875 48.83605194091797 107.46510314941406 46.31778335571289" stroke-width="1.0" fill="rgb(191, 111, 10)" opacity="1.0"/>
    <path d="M 94.2506332397461 72.33872985839844 L 94.21961212158203 54.77325439453125 L 95.96302032470703 53.27093505859375 C 98.22132873535156 51.94466018676758 99.22521209716797 51.810272216796875 111.20848846435547 51.808189392089844 C 124.02921295166016 51.82592010498047 124.27279663085938 51.611881256103516 126.08221435546875 53.664649963378906 L 128.07620239257812 55.496864318847656 L 128.0082244873047 89.76753234863281 L 94.11758422851562 89.66756439208984 L 94.2506332397461 72.33872985839844" stroke-width="1.0" fill="rgb(203, 135, 145)" opacity="0.9892777"/>
    <path d="M 108.78370666503906 43.9793586730957 C 108.112548828125 41.152618408203125 108.87080383300781 38.39947509765625 110.60121154785156 38.40837097167969 C 112.71434020996094 38.32527160644531 114.16960906982422 41.974456787109375 112.92606353759766 44.132930755615234 C 111.54911041259766 46.34126663208008 109.3725814819336 46.35759735107422 108.78370666503906 43.9793586730957" stroke-width="1.0" fill="rgb(32, 16, 21)" opacity="0.98265815"/>
    <path d="M 103.43893432617188 75.43717956542969 C 102.5764389038086 74.46327209472656 101.58528137207031 72.70082092285156 101.3771743774414 71.65614318847656 C 100.50628662109375 69.014892578125 102.68318176269531 65.96022033691406 104.89312744140625 65.931884765625 C 105.80384826660156 65.8505859375 107.48714447021484 65.0460205078125 108.80867767333984 63.85579299926758 C 110.07403564453125 62.87089157104492 111.63957214355469 61.90167999267578 112.3653564453125 61.97882080078125 C 114.61190032958984 62.012481689453125 117.6666030883789 65.07745361328125 117.74185943603516 67.2420425415039 C 117.7612533569336 71.90487670898438 111.6363296508789 77.33137512207031 107.20771026611328 77.16128540039062 C 106.11925506591797 77.31855773925781 104.5888442993164 76.4774398803711 103.43893432617188 75.43717956542969" stroke-width="1.0" fill="rgb(175, 35, 41)" opacity="0.98728853"/>
  </g>
</svg>
