<?xml version="1.0" ?>
<svg xmlns="http://www.w3.org/2000/svg" version="1.1" width="224" height="224">
  <defs/>
  <g>
    <path d="M 36.72541809082031 103.0860595703125 L 33.52992248535156 103.71050262451172 L 33.51708221435547 90.85897827148438 C 33.323577880859375 82.93637084960938 33.42889404296875 76.36824035644531 34.684349060058594 73.3873062133789 C 36.25822448730469 67.92826080322266 41.05907440185547 61.71604537963867 46.379722595214844 59.30784606933594 L 51.183349609375 57.19657897949219 L 172.69009399414062 57.227256774902344 L 176.9034423828125 59.394657135009766 C 181.1764373779297 61.05943298339844 185.413330078125 65.50820922851562 187.6982421875 70.74554443359375 C 190.67642211914062 74.88017272949219 189.97109985351562 101.20066833496094 189.46969604492188 103.40605163574219 C 187.4912109375 103.75390625 174.28231811523438 104.51939392089844 112.86308288574219 103.55076599121094 C 72.1805419921875 105.11537170410156 38.759544372558594 104.88233947753906 36.72541809082031 103.0860595703125" stroke-width="0.0" fill="rgb(254, 254, 254)" opacity="0.9991163"/>
    <path d="M 106.7328109741211 49.77067565917969 L 106.5766830444336 41.56989288330078 L 98.95347595214844 41.44573211669922 C 92.77429962158203 40.79589080810547 91.2994155883789 40.20149230957031 90.17295837402344 38.60584259033203 C 88.69500732421875 36.167274475097656 88.65327453613281 32.36298370361328 90.72763061523438 29.879669189453125 C 92.54853820800781 28.15473175048828 93.81648254394531 28.181480407714844 111.11875915527344 28.0 C 129.72705078125 28.185073852539062 129.82310485839844 28.063507080078125 131.9639892578125 30.44610595703125 C 134.6599884033203 33.505615234375 134.47190856933594 36.90031433105469 132.06976318359375 39.23540496826172 C 130.6817626953125 41.095542907714844 129.34487915039062 41.355224609375 123.23645782470703 41.45603942871094 L 116.00703430175781 41.33460235595703 L 116.22959899902344 57.608924865722656 L 107.09992218017578 57.567596435546875 L 106.7328109741211 49.77067565917969" stroke-width="1.0" fill="rgb(254, 214, 62)" opacity="0.99934536"/>
    <path d="M 104.0135498046875 90.13578796386719 C 99.0240707397461 86.44967651367188 96.65702056884766 82.24876403808594 97.33062744140625 77.1324234008789 C 98.07085418701172 69.20512390136719 103.26165008544922 64.26835632324219 111.39892578125 63.97433853149414 C 118.16625213623047 64.09963989257812 122.46682739257812 66.97508239746094 124.83514404296875 73.33786010742188 C 129.64854431152344 85.50373840332031 115.12541198730469 97.324951171875 104.0135498046875 90.13578796386719" stroke-width="1.0" fill="rgb(156, 77, 39)" opacity="0.9957811"/>
    <path d="M 63.99987030029297 162.80929565429688 C 53.35542297363281 157.30960083007812 43.057167053222656 152.14060974121094 41.530517578125 151.3775177001953 L 38.57960510253906 149.8520965576172 L 38.88641357421875 126.7640609741211 L 38.882408142089844 103.19140625 L 184.31991577148438 103.24176025390625 L 184.3437042236328 150.46107482910156 L 163.72698974609375 160.5529327392578 C 149.30245971679688 167.70724487304688 141.943359375 171.18191528320312 140.0904083251953 171.82489013671875 C 138.65240478515625 171.29461669921875 125.14093017578125 171.57347106933594 110.57990264892578 171.92855834960938 L 83.64060974121094 172.7166748046875 L 63.99987030029297 162.80929565429688" stroke-width="0.0" fill="rgb(194, 142, 72)" opacity="0.95826864"/>
    <path d="M 54.08482360839844 195.84133911132812 L 47.625064849853516 194.46324157714844 L 42.65711975097656 191.21182250976562 C 40.483856201171875 188.95062255859375 37.66876983642578 184.70932006835938 36.52947998046875 181.6507110595703 C 34.70604705810547 176.9340057373047 34.276641845703125 175.48513793945312 33.84929656982422 164.51393127441406 L 33.833717346191406 152.07589721679688 L 35.49737548828125 150.6787872314453 C 36.88041687011719 150.5274658203125 43.321144104003906 150.73104858398438 50.70267868041992 150.57167053222656 C 62.69524002075195 150.6585693359375 63.31324768066406 151.38075256347656 66.25326538085938 153.84837341308594 C 68.3589096069336 154.88397216796875 72.50755310058594 159.4889678955078 75.36773681640625 164.04359436035156 C 78.47280883789062 168.60646057128906 81.73776245117188 172.0382537841797 84.26658630371094 172.48414611816406 C 84.86862182617188 171.64393615722656 84.47821044921875 169.51406860351562 84.61509704589844 161.27784729003906 L 85.4522705078125 151.07652282714844 L 138.41436767578125 150.92515563964844 L 138.90187072753906 162.0585479736328 C 138.88616943359375 174.90554809570312 138.98915100097656 175.3824920654297 147.741455078125 164.84136962890625 C 150.43551635742188 159.632080078125 154.93661499023438 154.8485870361328 157.53857421875 153.5972137451172 L 162.8110809326172 151.04257202148438 L 175.44573974609375 150.7916259765625 C 182.1742706298828 150.84617614746094 188.1917724609375 150.73928833007812 188.62319946289062 150.53314208984375 C 189.63232421875 151.10906982421875 189.51412963867188 153.3109893798828 189.40402221679688 163.5079803466797 C 189.39089965820312 170.33096313476562 188.19956970214844 177.34896850585938 187.465576171875 179.2750244140625 C 185.97613525390625 185.54647827148438 181.13577270507812 191.58270263671875 176.85952758789062 193.67001342773438 L 173.48300170898438 195.99880981445312 L 118.43302154541016 196.0 C 87.98463439941406 195.81849670410156 59.42927551269531 195.67938232421875 54.08482360839844 195.84133911132812" stroke-width="0.0" fill="rgb(253, 254, 253)" opacity="0.99781954"/>
    <path d="M 85.5846176147461 174.04579162597656 C 84.30332946777344 172.74057006835938 84.4312744140625 168.9169158935547 84.72740173339844 148.15782165527344 C 84.27076721191406 113.60523223876953 82.94305419921875 115.1795425415039 111.53973388671875 115.45001983642578 C 131.1607666015625 115.04969024658203 133.5821075439453 115.91520690917969 137.514892578125 120.35751342773438 C 138.96070861816406 122.572021484375 139.1613006591797 123.05354309082031 139.02334594726562 148.426513671875 C 139.23556518554688 172.6471405029297 139.36788940429688 173.85052490234375 137.380615234375 174.43446350097656 C 136.38961791992188 175.41265869140625 126.36369323730469 175.63485717773438 111.77506256103516 175.48744201660156 C 89.14253997802734 175.71315002441406 86.97481536865234 175.66397094726562 85.5846176147461 174.04579162597656" stroke-width="1.0" fill="rgb(43, 29, 29)" opacity="0.9945465"/>
  </g>
</svg>
