<?xml version="1.0" ?>
<svg xmlns="http://www.w3.org/2000/svg" version="1.1" width="224" height="224">
  <defs/>
  <g>
    <path d="M 105.22647094726562 179.7865447998047 C 92.76287078857422 178.25962829589844 76.54206848144531 168.7057342529297 66.92814636230469 157.567138671875 C 52.27543640136719 141.02960205078125 49.65447998046875 121.69145965576172 56.96111297607422 94.80994415283203 C 63.60144805908203 73.08109283447266 74.17386627197266 57.88536834716797 96.000732421875 40.35730743408203 C 107.19513702392578 31.289207458496094 111.81133270263672 27.99999237060547 113.70016479492188 28.102439880371094 C 115.86871337890625 28.060134887695312 131.30654907226562 39.920631408691406 141.04702758789062 49.05744934082031 C 160.76426696777344 67.22944641113281 171.92086791992188 90.8021011352539 173.69520568847656 116.4310302734375 C 174.34552001953125 132.0186767578125 169.72079467773438 146.0996551513672 160.2442169189453 156.73890686035156 C 155.29269409179688 163.10769653320312 143.15151977539062 172.45352172851562 136.84213256835938 175.13771057128906 C 127.01470184326172 180.1003875732422 115.79894256591797 181.88763427734375 105.22647094726562 179.7865447998047" stroke-width="0.0" fill="rgb(44, 133, 10)" opacity="0.991694"/>
    <path d="M 109.98329162597656 194.58956909179688 C 109.62908935546875 193.82534790039062 109.19405364990234 169.65345764160156 109.17642211914062 140.47872924804688 C 109.12866973876953 88.73919677734375 109.02919006347656 88.45426940917969 111.21794128417969 87.85623168945312 C 112.51126098632812 87.39459228515625 114.0015640258789 87.81326293945312 115.30509185791016 88.86183166503906 C 117.25251007080078 90.56160736083984 117.37059783935547 92.67464447021484 117.57171630859375 135.48291015625 C 117.4525146484375 160.15057373046875 117.4217529296875 183.8699951171875 117.29496765136719 187.9465789794922 C 116.79070281982422 195.21920776367188 116.5960693359375 195.55747985839844 113.64996337890625 195.83200073242188 C 112.1873550415039 196.0 110.83269500732422 195.6736297607422 109.98329162597656 194.58956909179688" stroke-width="1.0" fill="rgb(23, 73, 84)" opacity="1.0"/>
  </g>
</svg>
