<?xml version="1.0" ?>
<svg xmlns="http://www.w3.org/2000/svg" version="1.1" width="224" height="224">
  <defs/>
  <g>
    <path d="M 72.31788635253906 147.43995666503906 C 57.56224060058594 132.65740966796875 45.16363525390625 118.34070587158203 43.12042236328125 116.45086669921875 C 38.65782928466797 108.60334014892578 35.73975372314453 98.89199829101562 36.23474884033203 91.85939025878906 L 37.056724548339844 84.44705963134766 L 128.34075927734375 85.79281616210938 L 155.82730102539062 91.88986206054688 C 171.03314208984375 95.30635833740234 184.13417053222656 98.62541198730469 184.84332275390625 99.33141326904297 C 186.06085205078125 100.64265441894531 184.813720703125 101.56480407714844 181.82118225097656 111.37748718261719 C 176.5004425048828 118.8931884765625 172.75128173828125 124.04466247558594 151.03451538085938 147.72451782226562 L 127.60247802734375 176.65023803710938 L 95.17137145996094 175.58563232421875 L 72.31788635253906 147.43995666503906" stroke-width="0.0" fill="rgb(254, 158, 49)" opacity="0.9960248"/>
    <path d="M 71.56790924072266 189.816162109375 C 69.00555419921875 184.91079711914062 70.07479858398438 181.0258026123047 75.8455810546875 179.19090270996094 C 84.37043762207031 177.93954467773438 85.50701141357422 175.75831604003906 85.49443817138672 168.5823516845703 C 84.47605895996094 162.60028076171875 84.43853759765625 162.3001708984375 78.72763061523438 156.06155395507812 C 75.10018920898438 153.1370391845703 69.82538604736328 148.3064422607422 65.72346496582031 146.5724334716797 C 44.58454132080078 130.76077270507812 34.23082733154297 117.06640625 30.19951629638672 100.22551727294922 C 28.00000762939453 89.47427368164062 28.685302734375 86.04083251953125 34.49021911621094 86.13874816894531 C 38.93391418457031 85.79795837402344 39.391197204589844 87.54657745361328 39.796791076660156 97.23139953613281 C 40.45246887207031 111.49915313720703 51.028961181640625 125.7287826538086 79.05168151855469 145.17816162109375 C 90.09919738769531 153.78074645996094 93.1636734008789 158.9043731689453 94.46094512939453 166.99412536621094 C 94.79986572265625 170.10043334960938 95.59440612792969 172.4974365234375 95.8138427734375 172.9762725830078 C 97.95580291748047 174.06423950195312 125.88626861572266 173.45407104492188 127.3553237915039 172.44122314453125 C 127.72299194335938 171.701904296875 128.47085571289062 168.6837158203125 129.0484161376953 165.4756622314453 C 130.3179931640625 157.15057373046875 132.37405395507812 154.27943420410156 143.4552764892578 146.02825927734375 C 168.70071411132812 125.17379760742188 175.12429809570312 119.83690643310547 179.9764862060547 108.91368103027344 C 184.37713623046875 99.00836944580078 182.82870483398438 98.846435546875 173.53668212890625 98.42314147949219 C 165.47393798828125 98.76194763183594 153.1383514404297 101.82759094238281 150.82899475097656 104.13320922851562 C 150.12890625 104.56141662597656 147.95111083984375 104.89046478271484 145.78956604003906 104.69943237304688 C 142.8610382080078 105.02960968017578 140.82406616210938 104.11114501953125 137.06982421875 100.63782501220703 C 131.4868621826172 96.50994110107422 126.63949584960938 90.42046356201172 126.64360809326172 87.62915802001953 C 126.63147735595703 86.02001953125 129.3281707763672 85.92097473144531 159.33779907226562 86.56171417236328 C 183.76443481445312 85.57523345947266 192.82830810546875 86.2506332397461 194.47935485839844 86.50498962402344 C 196.0 89.83345794677734 193.9044952392578 101.61382293701172 188.5556640625 112.31134796142578 C 182.11087036132812 124.53044128417969 173.69549560546875 134.5018768310547 150.83676147460938 150.68368530273438 C 141.2624053955078 158.12115478515625 138.62628173828125 161.73287963867188 137.5984344482422 167.64739990234375 C 136.8950958251953 175.0871124267578 138.184326171875 177.97463989257812 144.8594970703125 178.47886657714844 C 152.50485229492188 180.2296142578125 154.61753845214844 186.01051330566406 150.29689025878906 190.68971252441406 C 148.30044555664062 193.3076171875 145.60833740234375 192.80154418945312 110.93738555908203 192.64837646484375 L 74.46817779541016 192.458984375 L 71.56790924072266 189.816162109375" stroke-width="0.0" fill="rgb(255, 216, 70)" opacity="0.97883093"/>
    <path d="M 29.52672576904297 82.59700012207031 C 31.116241455078125 71.23573303222656 41.976341247558594 57.56201934814453 53.499725341796875 52.150474548339844 C 58.43830871582031 49.9442024230957 60.514007568359375 49.28832244873047 68.67707824707031 49.23056411743164 C 77.31591796875 49.084739685058594 78.65049743652344 49.82975769042969 84.94427490234375 52.836883544921875 C 92.85441589355469 56.745323181152344 100.57701110839844 64.14918518066406 105.90728759765625 72.83110809326172 C 108.46210479736328 77.45076751708984 109.96990966796875 78.88955688476562 111.71928405761719 78.77039337158203 C 113.93096160888672 78.84947967529297 118.90132141113281 74.46238708496094 118.9222640991211 72.55704498291016 C 119.00592803955078 70.45857238769531 120.14479064941406 72.75239562988281 121.67847442626953 77.71675872802734 C 122.22915649414062 81.01817321777344 123.25084686279297 84.07463836669922 123.90174102783203 85.57610321044922 C 124.33324432373047 86.7838363647461 121.61331939697266 86.3991928100586 76.50144958496094 86.55998229980469 L 28.733352661132812 86.61720275878906 L 29.52672576904297 82.59700012207031" stroke-width="1.0" fill="rgb(253, 254, 252)" opacity="0.9894287"/>
    <path d="M 136.63917541503906 101.1644058227539 C 133.3182373046875 98.7352523803711 130.18365478515625 95.75919342041016 129.48956298828125 94.18158721923828 C 125.81517791748047 89.99173736572266 121.28730773925781 80.21736907958984 120.28837585449219 74.75634002685547 C 120.24507904052734 72.10984802246094 118.66336059570312 68.03610229492188 117.36863708496094 66.72879028320312 C 115.76277923583984 65.94140625 114.99850463867188 63.66886901855469 114.92280578613281 62.035640716552734 C 115.3381118774414 54.46550750732422 124.70307159423828 42.797515869140625 134.7135772705078 38.12632751464844 C 149.5233917236328 30.69239044189453 169.00636291503906 34.65009307861328 180.20101928710938 46.568878173828125 C 184.61370849609375 51.419166564941406 185.47738647460938 54.29541778564453 183.60736083984375 56.74440002441406 C 182.2786865234375 57.401248931884766 181.6905975341797 57.98838424682617 182.76739501953125 59.67427062988281 C 183.9627685546875 60.84132385253906 184.43515014648438 66.71864318847656 184.11135864257812 79.22344970703125 L 184.1322479248047 97.357666015625 L 181.64328002929688 98.51780700683594 C 180.5108642578125 98.70697021484375 176.13340759277344 99.07808685302734 172.0162353515625 99.0816650390625 C 165.06130981445312 99.13929748535156 152.49256896972656 101.95297241210938 150.240966796875 104.12020874023438 C 149.6422119140625 105.06332397460938 147.65548706054688 105.53230285644531 145.22731018066406 105.56692504882812 C 142.19464111328125 105.54035949707031 140.47927856445312 104.75398254394531 136.63917541503906 101.1644058227539" stroke-width="0.0" fill="rgb(210, 228, 89)" opacity="0.99025756"/>
    <path d="M 176.16558837890625 81.33866119384766 C 173.71353149414062 78.32135009765625 169.80453491210938 74.37105560302734 166.77188110351562 72.16466522216797 C 160.46829223632812 67.14616394042969 160.06201171875 64.66661834716797 166.7009735107422 60.63340759277344 C 170.9731903076172 58.16520309448242 172.68283081054688 57.522918701171875 176.531005859375 57.62173080444336 C 181.3165740966797 58.012107849121094 181.72157287597656 58.193267822265625 185.64822387695312 62.98414611816406 C 189.6031036376953 68.47811889648438 193.0770263671875 76.01143646240234 194.06478881835938 82.70510864257812 L 194.72787475585938 87.10073852539062 L 180.633056640625 86.84379577636719 L 176.16558837890625 81.33866119384766" stroke-width="1.0" fill="rgb(252, 252, 251)" opacity="0.99629"/>
    <path d="M 182.30874633789062 91.51724243164062 C 179.72189331054688 86.57105255126953 179.716796875 86.430908203125 182.4582977294922 86.0670166015625 C 183.90122985839844 86.15809631347656 184.7177734375 87.49899291992188 184.86085510253906 90.6480941772461 C 184.94850158691406 96.22459411621094 184.64540100097656 96.29446411132812 182.30874633789062 91.51724243164062" stroke-width="1.0" fill="rgb(246, 161, 63)" opacity="0.9667487"/>
  </g>
</svg>
