<?xml version="1.0" ?>
<svg xmlns="http://www.w3.org/2000/svg" version="1.1" width="224" height="224">
  <defs/>
  <g>
    <path d="M 97.85758209228516 173.58248901367188 C 94.92219543457031 173.231201171875 90.36141967773438 171.31781005859375 85.87781524658203 169.69924926757812 C 78.08238983154297 167.21810913085938 78.22621154785156 168.14715576171875 67.82173156738281 138.86013793945312 C 57.350860595703125 110.74905395507812 54.277889251708984 101.29468536376953 54.458106994628906 93.60366821289062 C 54.32084655761719 78.72819519042969 60.754886627197266 64.14511108398438 71.03862762451172 53.70804977416992 C 80.18603515625 45.12145233154297 86.8115005493164 42.204742431640625 97.37518310546875 41.499488830566406 C 103.23230743408203 41.999977111816406 106.47586822509766 43.05529022216797 109.39122009277344 44.05071258544922 C 112.99076080322266 47.216590881347656 115.71482849121094 47.38592529296875 119.4000015258789 44.159629821777344 C 124.35812377929688 41.41169738769531 134.9656982421875 40.525230407714844 141.12753295898438 43.171234130859375 C 150.15573120117188 45.735076904296875 162.5986328125 55.754005432128906 168.7767791748047 66.529541015625 C 170.2362060546875 68.88548278808594 172.22567749023438 74.27053833007812 173.51773071289062 78.81593322753906 C 175.4239501953125 84.7703857421875 176.34190368652344 87.10926055908203 175.78651428222656 94.44635009765625 C 175.27560424804688 103.0184555053711 175.09100341796875 103.66928100585938 158.42324829101562 140.58970642089844 C 151.00244140625 159.29656982421875 147.48939514160156 166.93896484375 146.75799560546875 168.67990112304688 C 144.0300750732422 168.1059112548828 138.66787719726562 170.16465759277344 134.7151336669922 171.83523559570312 C 127.82318878173828 174.37103271484375 125.04505920410156 175.22972106933594 114.1142578125 176.14028930664062 C 105.95569610595703 175.85220336914062 101.03762817382812 174.8037872314453 97.85758209228516 173.58248901367188" stroke-width="0.0" fill="rgb(254, 196, 118)" opacity="0.9960774"/>
    <path d="M 82.38787078857422 91.08744812011719 C 77.94209289550781 89.17436218261719 75.00753784179688 84.99749755859375 76.22468566894531 81.85939025878906 C 77.95818328857422 75.83077239990234 86.01158142089844 70.73163604736328 91.672119140625 72.0537109375 C 95.50542449951172 72.76764678955078 100.27749633789062 78.01744079589844 100.00391387939453 82.06385803222656 C 100.277099609375 85.58869934082031 97.65991973876953 89.04644775390625 93.77421569824219 91.18101501464844 C 90.01110076904297 93.14453125 86.86771392822266 93.06392669677734 82.38787078857422 91.08744812011719" stroke-width="1.0" fill="rgb(41, 15, 12)" opacity="0.9953367"/>
    <path d="M 136.3441619873047 91.58592224121094 C 135.11898803710938 91.08853149414062 133.11724853515625 89.19471740722656 131.77694702148438 87.58456420898438 C 125.77238464355469 79.68675994873047 135.30003356933594 69.32400512695312 145.2193145751953 72.74522399902344 C 149.65554809570312 74.22419738769531 154.21533203125 79.39523315429688 153.8668212890625 83.1578140258789 C 154.24526977539062 89.46897888183594 143.5753173828125 94.55950164794922 136.3441619873047 91.58592224121094" stroke-width="1.0" fill="rgb(42, 16, 12)" opacity="0.9967222"/>
    <path d="M 102.1584701538086 122.50177001953125 C 90.65665435791016 118.46500396728516 75.39263916015625 106.21658325195312 73.70851135253906 99.626708984375 C 73.0854263305664 97.59700012207031 73.65776062011719 96.47329711914062 75.6479721069336 94.91422271728516 C 80.17512512207031 91.43096923828125 92.49240112304688 95.31301879882812 96.83100891113281 101.96256256103516 C 98.38937377929688 104.40019226074219 101.53831481933594 105.16039276123047 104.39491271972656 103.57018280029297 C 105.47425079345703 102.78662109375 105.11964416503906 101.78541564941406 104.02980041503906 98.98516082763672 C 103.82357025146484 97.04650115966797 103.34282684326172 94.7918472290039 103.77186584472656 94.38020324707031 C 104.1877670288086 93.80117797851562 108.80118560791016 93.37611389160156 114.68450164794922 93.41102600097656 C 122.85901641845703 93.32880401611328 125.08277130126953 93.64028930664062 126.18429565429688 94.94556427001953 C 127.19149017333984 96.23428344726562 127.20574188232422 96.70408630371094 126.52880859375 97.9832763671875 C 124.24771881103516 101.31327056884766 123.90198516845703 102.63436126708984 125.42850494384766 103.47803497314453 C 128.20077514648438 104.93394470214844 130.46173095703125 104.57942199707031 135.42584228515625 99.90531921386719 C 141.45375061035156 94.85523223876953 145.7082977294922 92.61018371582031 150.9695587158203 93.73190307617188 C 155.01885986328125 94.2288589477539 157.81137084960938 97.97506713867188 156.2970428466797 101.07540893554688 C 153.01318359375 107.11504364013672 136.91265869140625 119.20050048828125 127.8961410522461 122.26631164550781 C 121.312255859375 124.47301483154297 107.7939682006836 125.01744079589844 102.1584701538086 122.50177001953125" stroke-width="0.0" fill="rgb(247, 124, 77)" opacity="0.97906023"/>
    <path d="M 53.52021408081055 181.72628784179688 C 39.96015930175781 178.91867065429688 33.83360290527344 172.44805908203125 30.995025634765625 158.09080505371094 C 28.0 144.04541015625 43.08715057373047 117.6357192993164 55.92721176147461 114.52616882324219 C 69.24348449707031 110.58136749267578 80.53408813476562 125.2909164428711 81.01402282714844 146.6395263671875 C 80.96898651123047 151.6459503173828 80.42424011230469 156.90182495117188 79.10723876953125 159.74703979492188 C 78.0343017578125 164.1256103515625 77.86114501953125 164.41177368164062 79.61104583740234 166.64718627929688 C 80.56607055664062 167.61181640625 82.41571044921875 169.91189575195312 83.01966094970703 171.76153564453125 C 84.81529998779297 176.6839599609375 83.18939208984375 180.29885864257812 78.49188995361328 181.95523071289062 C 73.16366577148438 183.33615112304688 61.539093017578125 183.18881225585938 53.52021408081055 181.72628784179688" stroke-width="1.0" fill="rgb(254, 133, 0)" opacity="0.9994904"/>
    <path d="M 148.79531860351562 182.23251342773438 C 144.83447265625 181.60177612304688 142.28562927246094 179.285400390625 142.42738342285156 175.95359802246094 C 142.36160278320312 172.5435791015625 144.20053100585938 168.08505249023438 146.7947998046875 165.72450256347656 C 148.65614318847656 164.133544921875 149.029541015625 163.3665771484375 148.29476928710938 160.9462890625 C 146.53375244140625 156.11178588867188 146.0968017578125 147.18809509277344 147.00015258789062 140.21243286132812 C 149.4136962890625 126.1206283569336 155.8212432861328 117.02972412109375 164.8486785888672 114.44901275634766 C 168.72564697265625 113.10674285888672 169.38519287109375 113.50870513916016 173.48870849609375 115.67290496826172 C 179.92959594726562 118.96702575683594 186.58148193359375 126.64092254638672 191.6636505126953 136.91806030273438 C 195.02200317382812 145.0388641357422 195.74085998535156 146.54385375976562 196.0 153.67344665527344 C 195.49948120117188 167.044189453125 189.53355407714844 176.41554260253906 178.77423095703125 180.40151977539062 C 172.92044067382812 182.52664184570312 154.88522338867188 183.47476196289062 148.79531860351562 182.23251342773438" stroke-width="1.0" fill="rgb(255, 132, 0)" opacity="0.99978244"/>
    <path d="M 104.65416717529297 99.82321166992188 C 101.83381652832031 95.49874877929688 101.81495666503906 93.53279113769531 105.07008361816406 90.79544830322266 C 106.73057556152344 89.2042236328125 108.68433380126953 88.72456359863281 115.57379913330078 88.43223571777344 C 123.42200469970703 89.12604522705078 124.52375793457031 89.4952392578125 125.9087142944336 91.78115844726562 C 128.83273315429688 95.4263687133789 128.54263305664062 97.11260223388672 124.802490234375 100.7003173828125 C 121.21126556396484 104.1718978881836 118.78752136230469 104.42354583740234 116.46240234375 101.37530517578125 C 114.60939025878906 99.35691833496094 115.0574722290039 99.33071899414062 113.6378173828125 101.1351318359375 C 110.9318618774414 104.49492645263672 106.85694885253906 103.85895538330078 104.65416717529297 99.82321166992188" stroke-width="1.0" fill="rgb(98, 70, 62)" opacity="1.0"/>
  </g>
</svg>
