<?xml version="1.0" encoding="UTF-8"?>
<svg xmlns="http://www.w3.org/2000/svg" version="1.1" viewBox="0 0 224 224">
  <defs>
    <style>
      .cls-1 {
        fill: #9b4c58;
        opacity: 1;
      }

      .cls-1, .cls-2, .cls-3, .cls-4, .cls-5, .cls-6, .cls-7, .cls-8, .cls-9, .cls-10, .cls-11, .cls-12, .cls-13 {
        isolation: isolate;
      }

      .cls-2 {
        fill: #c03b3f;
        opacity: 1;
      }

      .cls-3 {
        fill: #0a7839;
        opacity: 1;
      }

      .cls-4 {
        fill: #f6fbf9;
        opacity: 1;
      }

      .cls-14 {
        fill: #902f34;
      }

      .cls-5 {
        fill: #f7faf8;
        opacity: 1;
      }

      .cls-6 {
        fill: #f5fbf9;
        opacity: 1;
      }

      .cls-7 {
        fill: #fafefd;
        opacity: 1;
      }

      .cls-8 {
        fill: #f5fdf8;
        opacity: 1;
      }

      .cls-9 {
        fill: #f5fcf9;
        opacity: 1;
      }

      .cls-10 {
        fill: #f9fefe;
        opacity: 1;
      }

      .cls-11 {
        fill: #fdfefe;
        opacity: 1;
      }

      .cls-12 {
        fill: #f6fdfa;
        opacity: 1;
      }

      .cls-13 {
        fill: #03804a;
        opacity: 1;
      }
    </style>
  </defs>
  <!-- Generator: Adobe Illustrator 28.6.0, SVG Export Plug-In . SVG Version: 1.2.0 Build 709)  -->
  <g>
    <g id="_图层_1" data-name="图层_1">
      <g>
        <path class="cls-2" d="M49.3,166.5c-1.4-14-2.3-28.1-3.5-42.1-1.5-17.8-3.9-35.1-4-53l3.7-.3c6.2-.9,95.2-2,117.6-1.4,7,.1,14.1.1,21.1.4-1.5,8.5-1.6,16.8-2.1,25.3-1,14.4-1.7,28.8-2.8,43.2-.5,7.3-1.2,14.7-2,22-.4,3.5-.8,7-1.2,10.6s-.1,9.1-1.8,10.4-7.8.1-9.7.1c-5.6,0-11.2,0-16.9,0-28.4,0-56.8,0-85.1,0h-12.1s-1.2-15.4-1.2-15.4"/>
        <path class="cls-1" d="M34.3,65.6c-2.4-.5-4.7-1.6-5.2-1.8-.4-.7-1.1-4.9-.6-11.5l1.4-9.7,166-.4v10.9c-.1,6.9-.4,10.4,0,11.6-1.6-.3-3.1.3-6.9,0-2.6.1-35.3,1-72.4,1.6-80.5.9-77,1-82.4-.6"/>
        <path class="cls-13" d="M93.1,153.7c-12.1-6.5-22-21.9-21.3-35.8-.4-6.9,3.4-17.2,8.5-24.4,5.9-7.6,14.9-13.6,23.7-15.5,6.6-1.7,18.8-.8,23.3,1.7,11.3,5.3,17.9,12.1,23,23.3,5.6,11.6,4.5,25.9-2.6,36.8-3.3,5.5-10.8,12.3-12.8,12.6-1.1.3-2.2.8-2.9,1.8-2.3,1.7-2.9,1.9-18.3,1.6l-16.2.4-4.3-2.6"/>
        <path class="cls-14" d="M42.2,69.1l-.2-4.5,141.9.3-.3,3.3c-.4.9-.1,2.1-.6,3.9l-.3,1-32.8-1.3c-18.2.9-31.3.8-29.3.8,2.3.2,4.2.1,4.3-1.2.9-.2-19.7.2-62.6,1.4h-19.8c0,0-.4-3.6-.4-3.6"/>
        <path class="cls-11" d="M104.1,158c-5.3-1-5.8-1.6-3.9-5.7,3.3-5.6,3.5-6.8.8-11.7-2.4-5-2-6,2.2-10.6,1.1-1.2,2.1-2.8,2-3.5.7-.6,1.6-.6,4,.5,2.5,1,3.8.7,6.2,0l3.7-1.3,2.5,3.6c4.8,5,5.4,6.5,3.3,10.8-2.3,4.1-2.1,5.8.5,10.9,1.1,2.1,1.9,4.4,1.7,5.1-1.3,2.2-15.5,3.8-22.9,1.9"/>
        <path class="cls-12" d="M93.8,154c-1.1-.7-.6-2.7,1.1-4.7l2.2-3.4-1.4-4.6c-2.7-5.1-2.2-7.4,1.8-11.6,3.8-4.3,4-6.4,1.4-10.1-2.1-4.5-1.5-10.1.5-12.4,1.5-1.5,2.1-1.4,1.1,2.4-.9,2.7-.5,4.5,1,8.3,1.4,2.7,2.4,5.5,2.3,6.2.2,1.2-.9,3.8-2.9,5.9-4.5,4.5-4.8,6.4-2.5,10.2,2.5,4.2,2.6,6.8-.3,11.5-2.1,3.8-3.5,4.4-4.3,2.4"/>
        <path class="cls-4" d="M128.4,152.2c-3-5.3-3.6-6.6-1.6-11,3.1-4.1,2.7-6-2-10.9-2.2-2.2-3.5-4.8-3.3-6.5,0-.7,1.1-3.4,2.3-5.7,1.8-4.7,2.3-7.1.5-10.6-1.4-3.1.2-3.1,1.8-.4,2,3.1,2.3,8.3.5,12.4-2.8,4.6-2.8,5.9.9,10,4.4,4.6,4.9,6.5,2.9,11-2.3,3.9-1.9,6.1.9,9.5,1.9,2.9,1.7,3.8.2,4.3-.7,1.1-1.4.7-3.1-2"/>
        <path class="cls-8" d="M86.1,139.8c-2-3-2.4-3.4,0-4.2,2.4,0,9.3-8.2,10-10,.4-.9,0-3.1-1-4.5-1.8-3.7-1.5-9.6.7-12,1.5-2.3,1.8-1.6,1,1.2-1.4,1.8-1.3,4.2.2,8.6,1.7,3.6,2,5.9,1.5,6.9-.5.9-2.1,2.8-3.7,4.7-2.1,2.4-2.4,4-2.5,6.5.8,1.9-.2,3.3-1.3,4-1.9,1.8-4.1,1.3-4.8-1.1"/>
        <path class="cls-6" d="M134,140.9c-1-.9-1.4-1.8-1-3.2.9-2.3.6-3.7-1.9-6.4-4.9-6.2-4.6-6.9-2.4-12.6,1-2.9,1.4-5.6.3-7.9-.9-4.3.4-3.5,1.8.4,1.2,3.2,1.3,4.5.2,8.6-1.7,3.9-2,4.9-1.4,6.3,1.5,2.2,7.7,9.5,9.8,9.9,2.2.7,1.7.9.2,3.6-.7,2.9-4,3.3-5.8,1.4"/>
        <path class="cls-5" d="M106.4,121.8c-2.8-2.5-4.4-7.4-3.1-9,.4-1,2.4-1.3,4-.5,3.4.1,3.8,0,3.3-1.4.8-2.2-1.3-4.4-4-3.7-2.7-.1-2.7-.3-2.2-1.4.9-2.2,4.4-4,7.9-3.8,3.5,0,5.7.7,8.5,2.9,1.4,1.2,1.3,1.9-2.1,2.3-2.6-.4-3.6.3-4.2,2-1.1,2.4-.5,4.9.2,3.2,1.8-.3,7.7-.3,7.5.1.9,2-.8,7.4-3.2,9.2-1.9,1.5-3.6,2.3-6,2.9-3.1,0-3.6-.3-6.3-2.8"/>
        <path class="cls-7" d="M74.8,116.9c4.2-5.2,6.2-9.2,6.5-13.2l-.4-4.2,3,2.9,1.8,3.6,4.8-1.1c2.7.2,4.5.4,4.6.6-.2,1.1-7,8.6-8,8.9-1.5-.6-4,.7-6.3,2.2-5.3,2.9-7.4,3.4-6,.4"/>
        <path class="cls-10" d="M143.9,116.1c-2.5-1.2-4.8-2.2-5.4-2.1-.9-.5-7.4-7.2-8.2-8.3-.3-.9,5.1-1.1,7.6.1,1.1.8,1.7,0,2.7-2.2,2.9-3.5,4.7-3.4,3.9.5,0,3.7,1.5,7,5.2,11.4,2.2,3.2,2.1,3.1.2,2.9-1.2.5-3.9-.6-6.1-2.3"/>
        <path class="cls-9" d="M121.6,101.8c-4.1-2.3-13.4-2.3-17.4-.2-2.3.6-4,1.3-4.7,1.3-.2-.4-4.2-7.5-4.5-8.6.7-.5,3,.4,5.1.7,5.7,2.9,5.8,3.6,6.3.8,1.2-2.3,1-2.6-1.8-5.1l-1.6-1.9,3.8-.2c3.2.9,3,.6,4-2.8l1.9-3.3,1.8,3.5c.9,3.5.9,3.5,3.4,2.6,4.5-.6,4.9.2,1.9,3q-2.4,2.1-1.2,4.9l.6,1.9,2.9-1.7c3.1-1.4,8.2-3,8.3-2.4-.5.9-4.3,8.2-4.4,8.4.5,0-1.4-.4-4.4-.9"/>
        <path class="cls-3" d="M109.9,120c-1.7-1.5-.6-2.3,2.8-2.1,2.8,0,3.6.5,2.8,1.6-.4,1.5-4.2,2.1-5.5.6"/>
      </g>
    </g>
  </g>
</svg>