<?xml version="1.0" ?>
<svg xmlns="http://www.w3.org/2000/svg" version="1.1" width="224" height="224">
  <defs/>
  <g>
    <path d="M 66.78929901123047 193.4818878173828 C 61.630367279052734 191.0774688720703 56.35747146606445 185.5633544921875 53.78322982788086 180.31802368164062 C 52.113670349121094 174.96322631835938 51.60641860961914 82.46428680419922 54.27528762817383 74.33213806152344 C 56.282894134521484 67.9130859375 61.5941162109375 61.39441680908203 67.89616394042969 59.81244659423828 C 70.51824951171875 58.942909240722656 85.20506286621094 58.67061996459961 114.96341705322266 57.6477165222168 L 157.7198486328125 58.42046356201172 L 162.82115173339844 61.95840835571289 C 165.6594696044922 64.67544555664062 167.49798583984375 66.96728515625 168.64703369140625 71.55747985839844 C 171.57736206054688 77.16552734375 171.9983367919922 78.14181518554688 171.67022705078125 125.96910858154297 C 172.0624237060547 178.917724609375 172.39358520507812 178.08897399902344 166.3170166015625 185.7051544189453 C 164.98147583007812 188.62710571289062 161.17930603027344 191.45632934570312 158.17385864257812 192.68313598632812 L 152.13720703125 195.81640625 L 112.05050659179688 195.9166717529297 C 74.771728515625 196.0 71.27487182617188 195.77532958984375 66.78929901123047 193.4818878173828" stroke-width="1.0" fill="rgb(81, 75, 80)" opacity="0.99404806"/>
    <path d="M 59.91131591796875 60.6787223815918 C 64.69660949707031 51.17542266845703 77.4617919921875 38.500946044921875 86.34552001953125 34.157012939453125 C 95.6334457397461 30.01800537109375 101.04206848144531 28.58135986328125 112.36264038085938 27.99999237060547 C 128.0433349609375 28.673683166503906 141.26412963867188 34.30199432373047 152.60250854492188 45.37005615234375 C 158.54779052734375 51.181236267089844 166.5340576171875 63.420799255371094 165.64463806152344 64.75420379638672 C 165.34320068359375 65.03396606445312 163.0818328857422 64.41447448730469 160.30535888671875 63.160457611083984 C 156.47918701171875 60.269779205322266 156.53646850585938 60.20035171508789 112.99906921386719 60.08148956298828 C 69.46415710449219 60.30881118774414 69.24311828613281 60.39821243286133 65.09439086914062 63.05125045776367 C 62.13231658935547 64.227294921875 59.86323547363281 65.60502624511719 59.451358795166016 66.27867126464844 C 58.90503692626953 66.67543029785156 58.035892486572266 67.2882080078125 57.52289581298828 67.17782592773438 C 57.36608123779297 66.96887969970703 58.32793426513672 64.04727172851562 59.91131591796875 60.6787223815918" stroke-width="1.0" fill="rgb(255, 175, 72)" opacity="0.9921758"/>
    <path d="M 79.94337463378906 101.2918472290039 C 77.6885986328125 98.958984375 76.87286376953125 96.7642822265625 76.73562622070312 94.0955810546875 C 76.50624084472656 87.96578216552734 81.70074462890625 82.99017333984375 87.5260238647461 83.25613403320312 C 97.00288391113281 82.98054504394531 102.34073638916016 95.46016693115234 94.72480773925781 101.47810363769531 C 90.06812286376953 105.64618682861328 84.48129272460938 105.56949615478516 79.94337463378906 101.2918472290039" stroke-width="1.0" fill="rgb(254, 169, 92)" opacity="0.9990418"/>
    <path d="M 127.64230346679688 101.32076263427734 C 120.93060302734375 94.928466796875 124.4618148803711 84.68241119384766 133.81686401367188 83.65455627441406 C 138.18031311035156 82.7867431640625 139.09429931640625 83.40327453613281 142.37515258789062 86.48008728027344 C 147.29437255859375 91.23249053955078 147.08575439453125 97.72061920166016 141.96897888183594 101.67749786376953 C 137.15597534179688 105.81909942626953 131.81907653808594 105.62298583984375 127.64230346679688 101.32076263427734" stroke-width="1.0" fill="rgb(253, 167, 91)" opacity="0.99656194"/>
    <path d="M 82.34805297851562 148.6376953125 C 79.18790435791016 146.7305145263672 76.45841979980469 141.02828979492188 77.61888122558594 137.24557495117188 C 79.22862243652344 129.87803649902344 89.87533569335938 126.64826202392578 95.337646484375 132.54443359375 C 102.06806182861328 139.04627990722656 97.53227996826172 149.75634765625 88.751953125 149.9111328125 C 86.00251007080078 149.85708618164062 83.32008361816406 149.21121215820312 82.34805297851562 148.6376953125" stroke-width="1.0" fill="rgb(254, 169, 93)" opacity="0.99873596"/>
    <path d="M 131.55416870117188 149.7685546875 C 127.92264556884766 148.25979614257812 124.16983032226562 142.85464477539062 124.23561096191406 139.36387634277344 C 124.15569305419922 134.4987335205078 129.6360626220703 129.4035186767578 134.77268981933594 129.4496307373047 C 146.31446838378906 129.16297912597656 150.17047119140625 144.7803497314453 139.4695281982422 149.05133056640625 C 135.07423400878906 151.0032501220703 134.95504760742188 151.0004425048828 131.55416870117188 149.7685546875" stroke-width="1.0" fill="rgb(253, 168, 91)" opacity="0.9976728"/>
    <path d="M 78.38422393798828 186.2716522216797 C 75.08686828613281 182.79995727539062 75.49320983886719 178.02285766601562 79.59983825683594 175.696533203125 C 81.21526336669922 174.37864685058594 83.48403930664062 171.68214416503906 84.42860412597656 169.8394317626953 C 86.566162109375 165.8524169921875 89.51134490966797 165.54568481445312 93.14441680908203 169.21046447753906 C 96.22272491455078 172.27630615234375 96.78028106689453 177.5040740966797 94.31492614746094 182.36158752441406 C 91.92059326171875 188.0941162109375 82.67849731445312 190.56982421875 78.38422393798828 186.2716522216797" stroke-width="1.0" fill="rgb(153, 172, 70)" opacity="0.9964246"/>
    <path d="M 132.28424072265625 186.70037841796875 C 126.01081085205078 182.86500549316406 124.93083953857422 172.72540283203125 130.13084411621094 168.60536193847656 C 133.71791076660156 165.84619140625 135.56195068359375 165.76162719726562 137.88851928710938 168.16592407226562 C 138.6698760986328 169.00184631347656 141.41127014160156 172.25672912597656 143.37583923339844 174.36642456054688 C 148.37429809570312 179.44949340820312 149.01882934570312 183.96224975585938 145.29261779785156 186.58590698242188 C 142.0574493408203 189.0743408203125 135.42823791503906 189.08544921875 132.28424072265625 186.70037841796875" stroke-width="1.0" fill="rgb(251, 179, 77)" opacity="0.9967927"/>
  </g>
</svg>
