<?xml version="1.0" ?>
<svg xmlns="http://www.w3.org/2000/svg" version="1.1" width="224" height="224">
  <defs/>
  <g>
    <path d="M 100.26351928710938 190.49542236328125 C 97.41170501708984 188.79998779296875 92.98970031738281 186.15438842773438 91.40031433105469 185.11566162109375 C 89.92291259765625 184.4722137451172 83.47876739501953 180.69985961914062 77.04301452636719 176.9151611328125 C 68.28434753417969 172.35133361816406 64.58920288085938 168.7643585205078 62.62847137451172 171.30770874023438 C 70.59158325195312 187.24618530273438 62.6628303527832 184.85888671875 60.12736511230469 169.56951904296875 C 59.47705841064453 172.20472717285156 58.03729248046875 174.53341674804688 55.021541595458984 175.66261291503906 C 47.871334075927734 180.42037963867188 42.796607971191406 181.89744567871094 40.20520782470703 178.93563842773438 C 40.56963348388672 182.06541442871094 40.09308624267578 178.43179321289062 39.682342529296875 176.95654296875 C 41.14678192138672 173.32835388183594 47.02259063720703 168.5922088623047 50.324153900146484 168.54054260253906 C 49.73244094848633 168.7007293701172 53.22599411010742 168.06671142578125 62.32533645629883 167.4500274658203 C 62.174713134765625 169.80181884765625 59.05783462524414 166.05209350585938 53.622188568115234 164.03231811523438 C 51.74192428588867 162.68382263183594 49.253292083740234 161.36923217773438 49.000732421875 161.41287231445312 C 48.20670700073242 160.04513549804688 35.065528869628906 154.4230499267578 36.96703338623047 152.6884765625 C 39.603294372558594 150.5062255859375 43.937950134277344 156.02658081054688 53.78166198730469 160.56768798828125 C 61.66603088378906 164.744140625 62.498634338378906 167.23223876953125 65.58203125 162.21234130859375 C 69.36311340332031 160.0299072265625 65.33309936523438 160.1175079345703 49.09053039550781 150.88656616210938 L 41.993797302246094 147.00192260742188 L 42.01402282714844 112.3229751586914 C 42.314109802246094 74.61566925048828 39.848365783691406 79.97639465332031 48.96152114868164 74.31453704833984 C 59.82319259643555 67.96945190429688 65.505859375 66.53353881835938 66.27033996582031 64.83802795410156 C 64.66239929199219 61.81651306152344 63.91653060913086 61.79962158203125 63.52643966674805 59.72550964355469 C 61.00979232788086 60.00587463378906 48.72166061401367 67.49327087402344 44.30747985839844 69.4081802368164 C 41.99678039550781 70.35648345947266 37.775245666503906 74.06783294677734 36.36005401611328 71.78010559082031 C 38.82195281982422 68.70464324951172 42.34082794189453 68.58506774902344 43.28630065917969 66.70965576171875 C 48.33292007446289 64.04190063476562 56.12717819213867 59.919246673583984 61.368595123291016 56.68152618408203 C 59.804813385009766 58.19140625 52.83916473388672 56.833457946777344 50.78603744506836 56.69930648803711 C 46.37956237792969 56.2619743347168 41.852752685546875 52.34017562866211 40.75928497314453 48.13111114501953 C 39.38450622558594 44.481773376464844 42.98399353027344 42.810264587402344 50.333831787109375 45.93993377685547 C 52.5467643737793 47.561851501464844 55.63446807861328 49.23492431640625 56.703941345214844 50.42446517944336 C 60.48505401611328 54.146827697753906 62.39632797241211 57.73573684692383 60.78516387939453 49.26927185058594 C 61.32198715209961 42.90116882324219 70.83668518066406 42.34922790527344 63.8109016418457 47.864013671875 C 63.52606201171875 58.802635192871094 61.95174026489258 56.26599884033203 93.68551635742188 38.65473175048828 C 99.43698120117188 34.78800964355469 105.78221893310547 31.532333374023438 108.3386459350586 29.915008544921875 C 110.2578125 28.0 114.86453247070312 32.687705993652344 119.8913345336914 34.837928771972656 C 127.2782211303711 39.87324523925781 151.70175170898438 53.50743103027344 153.8451385498047 54.941139221191406 C 153.94992065429688 57.2538948059082 157.74908447265625 49.8947868347168 153.0665740966797 46.46648406982422 L 152.5885772705078 44.388145446777344 L 157.0907745361328 45.36327362060547 C 158.90673828125 53.32426834106445 156.20614624023438 58.38029479980469 157.319091796875 55.778297424316406 C 158.60537719726562 53.21818923950195 163.3277587890625 50.182334899902344 166.17271423339844 47.171714782714844 C 172.26321411132812 43.61167907714844 177.37686157226562 43.520118713378906 178.47927856445312 45.65885925292969 C 178.57855224609375 46.529747009277344 178.07225036621094 48.490867614746094 177.32608032226562 51.2459602355957 C 174.74200439453125 54.26318359375 172.89566040039062 55.203731536865234 170.07066345214844 56.568843841552734 C 167.02345275878906 57.513736724853516 160.44456481933594 56.311710357666016 159.09364318847656 57.00240707397461 C 161.19625854492188 58.15505599975586 165.1016387939453 61.14542007446289 168.5903778076172 63.35130310058594 C 188.93447875976562 72.56735229492188 187.8457794189453 78.7486343383789 168.94647216796875 66.23454284667969 C 153.9346923828125 59.324832916259766 156.9286651611328 57.30796813964844 152.52627563476562 65.322509765625 C 153.82681274414062 65.40348815917969 162.2513427734375 70.57467651367188 168.19888305664062 73.60299682617188 C 169.34681701660156 73.82691192626953 171.8052978515625 75.58258056640625 173.77236938476562 76.8305435180664 L 177.0357666015625 79.44961547851562 L 177.25816345214844 110.99357604980469 C 177.05694580078125 141.07174682617188 177.1673583984375 146.68931579589844 175.957275390625 147.1714324951172 C 174.41241455078125 148.58563232421875 172.31597900390625 149.68032836914062 172.74168395996094 149.06692504882812 C 171.65716552734375 149.5124969482422 153.94805908203125 159.617919921875 152.02171325683594 160.44805908203125 C 153.71896362304688 162.6639862060547 155.72381591796875 164.18051147460938 155.52078247070312 164.16549682617188 C 155.9852752685547 166.45159912109375 158.39306640625 164.68325805664062 166.9749298095703 159.6156005859375 C 172.80963134765625 156.71182250976562 177.02261352539062 153.5210418701172 182.7235565185547 151.8558807373047 C 181.48451232910156 156.6591796875 175.39515686035156 158.08140563964844 170.15570068359375 161.17483520507812 C 165.19546508789062 163.65452575683594 161.30844116210938 166.52259826660156 158.7422637939453 168.64437866210938 C 160.79916381835938 167.76278686523438 164.2078857421875 168.4850311279297 168.8770294189453 168.218505859375 C 174.13616943359375 168.6557159423828 178.07562255859375 173.27687072753906 178.63153076171875 177.922119140625 C 178.37828063964844 181.32545471191406 174.2702178955078 181.35125732421875 168.52764892578125 179.04873657226562 C 166.78985595703125 177.89639282226562 164.34719848632812 175.88095092773438 162.70803833007812 174.5128173828125 C 159.62738037109375 172.00489807128906 159.8328094482422 167.35830688476562 156.7521514892578 175.7409210205078 C 152.4071044921875 168.0281982421875 153.69644165039062 170.4728240966797 124.083740234375 187.07318115234375 C 109.73355865478516 195.73028564453125 109.9618148803711 195.85350036621094 112.3250732421875 195.8599090576172 C 109.04193878173828 196.0 104.51959991455078 194.4410400390625 100.26351928710938 190.49542236328125" stroke-width="0.0" fill="rgb(17, 18, 18)" opacity="0.9416983"/>
    <path d="M 87.01046752929688 179.48309326171875 C 75.57301330566406 172.92401123046875 65.8271484375 167.56106567382812 65.39301300048828 167.02630615234375 C 66.65596008300781 164.8398895263672 67.39193725585938 164.31570434570312 69.19171905517578 162.80975341796875 C 70.59791564941406 162.08522033691406 73.1821060180664 164.1326904296875 95.38848114013672 176.7520751953125 C 102.58804321289062 181.06396484375 108.91616821289062 184.7589569091797 108.98479461669922 184.69088745117188 C 109.59625244140625 184.96920776367188 118.22833251953125 179.813232421875 128.5701446533203 173.98622131347656 C 141.8844757080078 166.3271484375 147.93899536132812 162.64051818847656 149.44509887695312 162.64833068847656 C 151.2859344482422 164.29669189453125 152.22047424316406 165.12986755371094 153.35592651367188 167.22740173339844 C 151.45721435546875 168.0587158203125 111.20899200439453 191.6221923828125 109.12309265136719 192.7731475830078 C 107.99076843261719 191.96395874023438 98.09379577636719 186.20982360839844 87.01046752929688 179.48309326171875" stroke-width="1.0" fill="rgb(249, 250, 250)" opacity="0.9810403"/>
    <path d="M 90.60716247558594 170.89382934570312 C 80.5268325805664 165.5611114501953 72.11625671386719 160.81451416015625 71.35047912597656 160.3491668701172 C 71.43284606933594 159.05996704101562 73.04828643798828 157.50885009765625 74.22470092773438 155.61892700195312 C 75.1515121459961 153.37692260742188 75.93399047851562 150.6033935546875 75.46061706542969 149.49356079101562 C 75.50279998779297 148.58226013183594 77.43775939941406 146.52842712402344 79.26737976074219 144.64903259277344 C 81.92205810546875 142.20156860351562 82.82664489746094 140.77981567382812 82.49970245361328 137.46047973632812 C 82.76619720458984 133.9468994140625 81.91862487792969 130.47662353515625 83.92640686035156 130.73947143554688 C 88.50682067871094 127.33372497558594 94.14899444580078 124.12887573242188 88.18441009521484 130.04684448242188 C 85.63951110839844 131.54812622070312 86.39203643798828 133.0211639404297 86.75630187988281 135.41600036621094 C 88.24049377441406 138.43948364257812 87.14128875732422 140.0115203857422 83.94302368164062 144.28271484375 C 81.8089828491211 146.9820556640625 79.66041564941406 147.50392150878906 80.44998168945312 150.54087829589844 C 81.72029113769531 151.53408813476562 90.7011947631836 139.2731170654297 89.6295166015625 136.61790466308594 C 87.89723205566406 133.42056274414062 89.76312255859375 131.8798370361328 91.25543212890625 130.61424255371094 L 95.72042083740234 124.46666717529297 L 93.90472412109375 136.6427459716797 C 94.34449768066406 148.3033447265625 94.51689147949219 149.39129638671875 97.52960968017578 156.43919372558594 C 101.18832397460938 164.61395263671875 106.34053039550781 169.69512939453125 109.17498779296875 170.7949676513672 C 111.4773941040039 170.24871826171875 118.20645904541016 163.145751953125 121.21791076660156 155.99566650390625 C 123.81758117675781 151.36155700683594 124.40524291992188 148.47354125976562 124.99564361572266 136.97625732421875 L 123.4063720703125 125.62364196777344 L 128.31500244140625 131.32118225097656 C 129.54444885253906 131.51449584960938 130.19607543945312 134.710205078125 129.24256896972656 136.1483917236328 C 128.38389587402344 138.17718505859375 128.9105224609375 139.73463439941406 131.089599609375 142.72906494140625 C 135.6849365234375 148.2777862548828 137.37356567382812 151.66700744628906 138.30824279785156 148.914794921875 C 138.5407257080078 148.0237274169922 138.31600952148438 147.083251953125 135.37501525878906 144.98318481445312 C 132.5027618408203 140.21878051757812 129.42999267578125 138.7592010498047 133.13575744628906 132.37953186035156 C 129.4354248046875 129.7774200439453 126.05533599853516 124.67212677001953 133.86395263671875 130.15499877929688 C 136.62774658203125 130.91275024414062 136.47760009765625 132.08148193359375 136.3123016357422 137.24267578125 C 135.8856201171875 140.5851593017578 136.96310424804688 141.4117889404297 139.6150360107422 144.5989227294922 C 141.99205017089844 146.5113983154297 144.17970275878906 149.2401123046875 143.55044555664062 152.50350952148438 C 144.72488403320312 154.30686950683594 145.26681518554688 157.26905822753906 147.40989685058594 160.32827758789062 C 147.62686157226562 160.46791076660156 142.58230590820312 163.014892578125 128.91046142578125 170.83245849609375 C 119.09016418457031 176.51071166992188 110.78855895996094 181.43209838867188 109.00183868408203 182.36952209472656 C 108.4884262084961 181.506103515625 100.15142059326172 176.75489807128906 90.60716247558594 170.89382934570312" stroke-width="1.0" fill="rgb(251, 253, 253)" opacity="0.9904525"/>
    <path d="M 45.040916442871094 174.09591674804688 C 47.182281494140625 172.52915954589844 50.50545120239258 171.19430541992188 52.7849006652832 171.19891357421875 C 57.271690368652344 170.3309783935547 56.903404235839844 171.08135986328125 54.502159118652344 172.8174285888672 C 52.0344123840332 173.943603515625 48.74045181274414 175.94207763671875 46.995704650878906 176.893798828125 L 43.256446838378906 177.0213165283203 L 45.040916442871094 174.09591674804688" stroke-width="1.0" fill="rgb(241, 243, 243)" opacity="0.9542827"/>
    <path d="M 168.051025390625 174.72401428222656 C 165.3773651123047 173.0821533203125 163.3863983154297 171.8565673828125 162.81491088867188 171.2566375732422 C 163.58627319335938 169.58053588867188 169.62799072265625 171.0142059326172 173.58558654785156 173.69906616210938 C 178.18063354492188 178.33908081054688 174.39987182617188 178.46751403808594 168.051025390625 174.72401428222656" stroke-width="1.0" fill="rgb(240, 244, 246)" opacity="0.9561073"/>
    <path d="M 102.77855682373047 160.65357971191406 C 100.49641418457031 157.6917724609375 101.1539306640625 157.7080535888672 109.30850982666016 158.7686767578125 C 113.82283020019531 158.578857421875 117.3126220703125 158.59912109375 116.73728942871094 158.9613494873047 C 116.74736785888672 161.064697265625 113.2530746459961 163.41964721679688 108.80207061767578 163.1228485107422 C 106.33550262451172 163.14686584472656 103.60194396972656 161.98721313476562 102.77855682373047 160.65357971191406" stroke-width="1.0" fill="rgb(246, 249, 249)" opacity="0.9762087"/>
    <path d="M 56.25942611694336 151.6456298828125 L 45.12578582763672 144.72830200195312 L 45.03648376464844 114.35914611816406 L 45.044517517089844 80.11077880859375 L 56.163795471191406 73.39922332763672 L 67.11737060546875 67.1069107055664 L 70.37355041503906 72.27813720703125 C 71.05697631835938 73.9322509765625 72.20526885986328 76.67488098144531 72.257080078125 77.4068832397461 C 71.1112060546875 78.41836547851562 76.30439758300781 80.70619201660156 81.62779235839844 83.81243896484375 C 86.8963623046875 86.70848846435547 92.83876037597656 90.29609680175781 94.71253967285156 91.55323791503906 C 96.67628479003906 93.00482177734375 99.06049346923828 94.2899398803711 98.90489959716797 94.23045349121094 C 96.85144805908203 98.33627319335938 98.61192321777344 97.43782043457031 84.92948913574219 92.9515380859375 C 65.9573974609375 86.15415954589844 57.03392791748047 86.12551879882812 51.8515510559082 91.79234313964844 C 46.66998291015625 96.70042419433594 49.27676773071289 104.368408203125 57.43362045288086 108.2388916015625 L 63.28407287597656 110.35578918457031 L 57.55238723754883 115.04317474365234 C 53.40471649169922 119.30630493164062 53.3262825012207 123.87712097167969 57.33112716674805 126.97835540771484 C 60.686859130859375 128.4697265625 61.87533950805664 129.43798828125 66.12934112548828 129.1594696044922 C 71.41720581054688 128.52403259277344 74.138671875 127.38877868652344 84.43638610839844 120.66825103759766 C 91.52218627929688 116.4828872680664 97.8075942993164 113.28727722167969 98.65860748291016 112.71759033203125 C 99.75835418701172 112.55311584472656 101.24686431884766 114.26738739013672 102.71867370605469 116.50137329101562 C 110.19497680664062 118.24954986572266 112.90167236328125 121.08494567871094 103.97856903076172 119.09351348876953 C 100.49275207519531 116.68388366699219 97.5655746459961 119.21710205078125 87.17951965332031 125.6892318725586 L 79.6584701538086 130.37799072265625 L 79.84263610839844 134.86219787597656 C 80.14545440673828 139.92379760742188 80.1195297241211 141.57131958007812 75.96893310546875 145.50198364257812 C 73.26849365234375 147.806396484375 71.05810546875 151.48851013183594 71.04997253417969 153.00453186035156 C 69.91783142089844 155.71327209472656 69.49667358398438 157.84222412109375 69.17936706542969 159.0482635498047 C 67.56562042236328 158.46714782714844 62.18589401245117 155.39239501953125 56.25942611694336 151.6456298828125" stroke-width="1.0" fill="rgb(251, 253, 253)" opacity="0.9908217"/>
    <path d="M 149.1617431640625 155.64190673828125 C 149.07763671875 152.1888427734375 145.85183715820312 148.29690551757812 143.31114196777344 144.5150146484375 C 140.74017333984375 142.2606201171875 137.8062286376953 139.5580596923828 139.33822631835938 137.33670043945312 C 139.36651611328125 135.74008178710938 139.5542755126953 131.36273193359375 138.84271240234375 130.40618896484375 C 136.85675048828125 129.25877380371094 126.28509521484375 121.02458953857422 117.89242553710938 117.87353515625 C 104.14405059814453 122.3839340209961 107.76142883300781 120.02155303955078 117.69672393798828 115.78239440917969 C 118.70307159423828 110.39180755615234 119.4761962890625 112.74789428710938 128.2252197265625 117.18168640136719 C 142.25439453125 125.11737060546875 147.10507202148438 129.43405151367188 153.42919921875 129.66409301757812 C 163.58685302734375 129.7768096923828 168.15020751953125 122.54113006591797 162.03411865234375 114.73112487792969 C 156.51344299316406 109.92021942138672 154.6424560546875 111.19248962402344 157.7103271484375 109.60809326171875 C 162.61376953125 108.07583618164062 165.6339874267578 106.8966064453125 166.63299560546875 105.07841491699219 C 169.82122802734375 101.45700073242188 171.060302734375 100.56513977050781 170.0447998046875 96.15154266357422 C 169.0123291015625 91.25162506103516 164.45574951171875 88.10140228271484 158.54901123046875 87.46133422851562 C 153.27781677246094 85.81184387207031 152.8091278076172 91.10066223144531 157.51504516601562 90.76073455810547 C 161.40728759765625 90.42121887207031 164.0731201171875 92.40553283691406 165.8217010498047 93.83186340332031 C 168.74656677246094 97.75447082519531 167.74822998046875 101.42684173583984 161.91041564941406 104.87660217285156 C 158.44187927246094 107.34757995605469 157.67413330078125 107.5326156616211 144.9241943359375 105.02915954589844 C 138.45465087890625 106.86959838867188 132.10145568847656 106.9636001586914 131.4209442138672 105.70419311523438 C 130.36570739746094 104.63963317871094 131.29737854003906 103.0163345336914 139.26937866210938 103.86819458007812 C 148.7372589111328 102.70844268798828 151.74794006347656 100.54217529296875 150.58010864257812 94.74543762207031 C 148.98057556152344 91.07398986816406 147.53489685058594 90.44036865234375 151.53411865234375 91.37287902832031 C 155.20973205566406 93.27297973632812 154.2364501953125 88.64231872558594 154.71873474121094 87.47743225097656 C 149.26681518554688 88.36577606201172 143.9653778076172 89.21772766113281 128.45538330078125 94.37508392333984 C 123.8801040649414 95.86131286621094 120.64768981933594 98.341064453125 120.0882568359375 95.18656921386719 C 118.1929702758789 93.65669250488281 124.07038879394531 91.54732513427734 125.91162109375 91.07894134521484 C 126.01889038085938 90.37750244140625 130.19264221191406 88.21649932861328 133.63848876953125 86.09611511230469 C 146.43551635742188 79.56875610351562 147.776123046875 80.34561157226562 147.130615234375 75.95562744140625 C 149.16690063476562 71.81195068359375 149.95278930664062 69.3050765991211 151.79296875 67.28142547607422 C 153.06488037109375 68.01240539550781 163.7436981201172 74.1058349609375 170.57960510253906 78.01233673095703 L 174.165771484375 80.52772521972656 L 173.8363037109375 113.91384887695312 L 173.96295166015625 145.09912109375 L 163.2064208984375 151.19265747070312 C 158.25146484375 154.4897918701172 153.1064453125 157.40322875976562 151.11761474609375 158.9635772705078 C 149.870849609375 159.0874786376953 149.86927795410156 156.4529571533203 149.1617431640625 155.64190673828125" stroke-width="0.0" fill="rgb(253, 253, 254)" opacity="0.99719095"/>
    <path d="M 99.75807189941406 154.25564575195312 C 98.42008209228516 152.59140014648438 98.06500244140625 151.52525329589844 98.0149154663086 150.0428009033203 C 98.42240905761719 148.78079223632812 101.38941955566406 149.967529296875 109.61813354492188 150.87969970703125 C 116.40283966064453 150.58363342285156 121.58126831054688 148.79385375976562 120.9428482055664 149.59375 C 120.7724609375 150.6665802001953 120.0711669921875 151.94345092773438 119.2232666015625 153.55825805664062 C 118.80680847167969 155.71536254882812 117.25555419921875 155.98565673828125 110.73574829101562 156.33819580078125 C 105.30709838867188 156.32180786132812 100.50502014160156 155.33509826660156 99.75807189941406 154.25564575195312" stroke-width="1.0" fill="rgb(247, 249, 248)" opacity="0.97611964"/>
    <path d="M 98.62274932861328 146.7245330810547 C 97.64994812011719 146.1828155517578 96.67913818359375 145.11866760253906 97.97647857666016 145.82518005371094 C 96.6897964477539 145.46839904785156 96.19671630859375 144.24545288085938 97.33356475830078 141.634765625 C 95.95840454101562 139.53741455078125 97.8589859008789 140.25106811523438 109.54080200195312 141.76449584960938 C 122.9686050415039 140.43032836914062 123.05323028564453 139.02630615234375 121.65587615966797 143.20046997070312 C 122.09530639648438 144.479736328125 121.94621276855469 146.256591796875 120.86468505859375 146.42086791992188 C 117.24209594726562 148.42498779296875 103.37886810302734 148.53334045410156 98.62274932861328 146.7245330810547" stroke-width="1.0" fill="rgb(248, 250, 250)" opacity="0.9795071"/>
    <path d="M 102.2653579711914 138.65771484375 C 96.78954315185547 136.77256774902344 96.03789520263672 136.13748168945312 97.31204223632812 132.68893432617188 C 95.77767181396484 130.13856506347656 98.89601135253906 131.48974609375 109.23652648925781 132.5560760498047 C 120.92042541503906 131.51119995117188 122.94308471679688 129.8829345703125 121.8780288696289 134.95223999023438 C 124.5490951538086 138.1569061279297 110.60247039794922 140.29879760742188 102.2653579711914 138.65771484375" stroke-width="1.0" fill="rgb(249, 251, 250)" opacity="0.9817795"/>
    <path d="M 97.7276840209961 128.18934631347656 C 98.16584014892578 125.88433837890625 98.3380355834961 125.85283660888672 99.52147674560547 124.28276062011719 C 100.25059509277344 121.06156921386719 100.0649185180664 120.61782836914062 104.6076889038086 121.91876220703125 C 108.03999328613281 122.74917602539062 111.44320678710938 122.8674545288086 114.3258056640625 122.14917755126953 C 118.46202850341797 121.08062744140625 119.3612060546875 121.41346740722656 119.44200897216797 124.05206298828125 C 122.0047378540039 128.93429565429688 120.2967758178711 129.09481811523438 111.49317932128906 129.7012939453125 C 105.35466003417969 129.6383819580078 99.55760192871094 128.76318359375 97.7276840209961 128.18934631347656" stroke-width="1.0" fill="rgb(249, 251, 251)" opacity="0.9847116"/>
    <path d="M 58.383880615234375 124.92823791503906 C 53.363075256347656 120.17886352539062 62.002662658691406 111.7280502319336 71.87454223632812 110.3971176147461 C 79.20165252685547 109.79316711425781 81.22187805175781 110.18851470947266 74.28034210205078 112.6678466796875 C 69.41385650634766 113.75585174560547 69.14537048339844 118.7514877319336 73.66004943847656 120.59764862060547 C 78.39942932128906 121.73583221435547 77.19804382324219 122.48217010498047 71.95108032226562 124.90576934814453 C 66.82691192626953 126.5909194946289 60.463802337646484 126.79293823242188 58.383880615234375 124.92823791503906" stroke-width="1.0" fill="rgb(248, 250, 250)" opacity="0.9803019"/>
    <path d="M 146.302978515625 124.59564971923828 C 141.13536071777344 122.137939453125 140.04319763183594 122.42574310302734 145.0845184326172 121.14614868164062 C 149.36788940429688 118.99482727050781 149.0371551513672 114.50004577636719 145.02589416503906 113.08637237548828 L 137.15658569335938 109.51183319091797 L 144.07351684570312 110.23401641845703 C 148.5391845703125 110.25971984863281 155.88003540039062 113.01954650878906 159.02488708496094 116.05256652832031 C 162.20913696289062 118.47508239746094 162.8914337158203 121.95740509033203 160.24090576171875 124.71375274658203 C 158.5629119873047 126.81607055664062 150.47837829589844 126.88796997070312 146.302978515625 124.59564971923828" stroke-width="1.0" fill="rgb(249, 251, 251)" opacity="0.98295426"/>
    <path d="M 73.83010864257812 118.50294494628906 C 72.29084014892578 116.3211669921875 72.03956604003906 115.87437438964844 76.82870483398438 113.80631256103516 C 86.06422424316406 110.46267700195312 94.43294525146484 107.60676574707031 96.81531524658203 108.24402618408203 C 99.27450561523438 109.36539459228516 97.91910552978516 110.75251770019531 89.68478393554688 115.08554077148438 C 79.3709716796875 121.00717163085938 77.745849609375 120.38606262207031 73.83010864257812 118.50294494628906" stroke-width="1.0" fill="rgb(249, 251, 251)" opacity="0.98348385"/>
    <path d="M 130.86090087890625 115.72742462158203 C 119.48908996582031 109.98401641845703 119.00785064697266 109.3084487915039 122.85763549804688 108.10669708251953 C 127.26434326171875 108.15718078613281 145.88507080078125 114.7320327758789 145.85203552246094 116.80946350097656 C 146.17181396484375 118.27629852294922 143.71054077148438 119.90338134765625 140.73861694335938 119.62657928466797 C 140.41639709472656 120.28034973144531 135.88232421875 118.33655548095703 130.86090087890625 115.72742462158203" stroke-width="1.0" fill="rgb(248, 250, 250)" opacity="0.98049486"/>
    <path d="M 102.76737213134766 112.89044189453125 C 100.08735656738281 109.09432983398438 99.52703857421875 107.7191390991211 98.93373107910156 103.33094024658203 C 99.37355041503906 96.97161865234375 100.79308319091797 94.40621948242188 105.25267028808594 93.17372131347656 C 114.97962951660156 89.51791381835938 122.43296813964844 99.27287292480469 118.16344451904297 109.28848266601562 C 114.25910186767578 117.01178741455078 108.77365112304688 118.3128433227539 102.76737213134766 112.89044189453125" stroke-width="1.0" fill="rgb(251, 253, 253)" opacity="0.99190605"/>
    <path d="M 60.54356002807617 106.7768325805664 C 52.39763259887695 104.35010528564453 49.074710845947266 97.37014770507812 53.57669448852539 93.09201049804688 C 55.645912170410156 90.82071685791016 62.337486267089844 89.90574645996094 67.02718353271484 90.67486572265625 C 71.41139221191406 91.26119995117188 72.21141052246094 90.97899627685547 69.6459732055664 93.74696350097656 C 66.98906707763672 99.52345275878906 72.42876434326172 101.86402893066406 87.92281341552734 102.98057556152344 C 96.98432922363281 104.26286315917969 98.06439208984375 105.16761779785156 92.80022430419922 105.90641784667969 C 85.81547546386719 105.77740478515625 63.799476623535156 109.67423248291016 60.54356002807617 106.7768325805664" stroke-width="1.0" fill="rgb(250, 252, 252)" opacity="0.9868374"/>
    <path d="M 83.34434509277344 99.98426818847656 C 77.6904296875 99.59153747558594 72.70625305175781 98.28311157226562 72.1583480834961 97.31424713134766 C 70.5708999633789 95.90101623535156 72.14175415039062 93.88814544677734 74.80722045898438 92.90646362304688 C 77.23944091796875 92.62085723876953 92.61933135986328 97.78752899169922 95.59061431884766 99.65205383300781 C 97.74517822265625 101.46991729736328 98.12309265136719 101.2584457397461 95.75105285644531 102.00759887695312 C 93.67189025878906 101.48863220214844 88.37823486328125 100.7659912109375 83.34434509277344 99.98426818847656" stroke-width="1.0" fill="rgb(247, 249, 249)" opacity="0.9763149"/>
    <path d="M 124.60160827636719 98.57666015625 C 127.3575210571289 97.53204345703125 133.37930297851562 95.55928039550781 137.49765014648438 94.23617553710938 C 143.20245361328125 92.50656127929688 145.4921112060547 92.79865264892578 146.70021057128906 94.23036193847656 C 149.38394165039062 96.92256927490234 145.28257751464844 99.21266174316406 133.59034729003906 100.48381042480469 C 119.51695251464844 102.54619598388672 119.05052947998047 101.77808380126953 124.60160827636719 98.57666015625" stroke-width="1.0" fill="rgb(247, 249, 249)" opacity="0.97486436"/>
    <path d="M 92.14961242675781 86.97463989257812 C 88.751953125 84.7863998413086 83.65408325195312 81.75740051269531 80.7629623413086 80.29000091552734 C 77.42622375488281 78.83451080322266 74.05564880371094 77.61396789550781 74.46371459960938 76.74205017089844 C 75.53472900390625 74.62789154052734 74.28323364257812 71.99137878417969 73.66049194335938 70.91050720214844 L 69.77445983886719 65.82209777832031 L 73.04859924316406 63.98676300048828 C 74.36714172363281 63.34447479248047 81.90149688720703 58.9616584777832 89.94023132324219 54.56047439575195 C 97.78300476074219 49.89008712768555 105.3813247680664 45.703399658203125 107.73554229736328 44.376808166503906 C 109.15845489501953 41.904502868652344 110.86405181884766 44.41033935546875 128.29896545410156 54.2689208984375 C 138.45156860351562 60.20745849609375 147.63743591308594 64.94760131835938 149.03175354003906 65.658935546875 C 148.3052520751953 67.0213623046875 146.49539184570312 68.57976531982422 145.61483764648438 70.96865844726562 C 144.7596893310547 72.62132263183594 142.967041015625 74.72969818115234 143.95932006835938 77.01719665527344 C 144.45626831054688 77.74990844726562 141.17291259765625 78.90525817871094 137.4149627685547 80.9195556640625 C 134.1836395263672 82.52165222167969 128.9681396484375 85.64730834960938 125.90144348144531 87.30314636230469 C 122.76309204101562 89.42411804199219 120.07247161865234 91.53398895263672 116.90743255615234 92.37323760986328 C 118.52015686035156 91.0732650756836 119.7808837890625 89.22676086425781 119.30277252197266 86.65829467773438 C 119.29225158691406 84.64652252197266 118.76531219482422 83.86988067626953 117.05023193359375 82.64468383789062 C 115.89095306396484 82.20538330078125 114.82319641113281 80.76094818115234 115.16520690917969 79.2903060913086 C 114.16806030273438 77.94220733642578 114.83216857910156 76.94406127929688 116.73423767089844 77.57853698730469 C 117.63314056396484 79.56266784667969 120.84745025634766 75.93180847167969 123.541015625 70.8338851928711 C 124.59070587158203 67.3770523071289 125.39388275146484 65.05720520019531 124.72533416748047 65.07687377929688 C 124.34695434570312 63.96455383300781 118.1575927734375 66.42208862304688 113.61840057373047 70.46785736083984 L 109.58150482177734 74.70040130615234 L 105.84652709960938 70.42254638671875 C 101.83064270019531 66.77992248535156 93.98939514160156 63.87028121948242 93.92569732666016 65.20372772216797 C 92.4965591430664 66.15924072265625 97.36161804199219 76.32504272460938 100.68907165527344 78.67681884765625 L 104.2497329711914 78.28822326660156 L 101.92601013183594 82.8759765625 C 99.17546844482422 83.84203338623047 99.40520477294922 87.03843688964844 99.3587875366211 87.55755615234375 C 99.43862915039062 88.89344024658203 100.74526977539062 89.82568359375 100.8726577758789 91.77252197265625 C 98.69972229003906 91.22166442871094 95.66609191894531 89.12207794189453 92.14961242675781 86.97463989257812" stroke-width="1.0" fill="rgb(252, 254, 254)" opacity="0.9956409"/>
    <path d="M 101.8913803100586 88.070068359375 C 99.81356048583984 84.9087142944336 102.48197937011719 83.81926727294922 110.66039276123047 83.35289001464844 C 116.43363189697266 84.25485229492188 117.48051452636719 85.14081573486328 116.84355926513672 86.17616271972656 C 117.52205657958984 89.9761962890625 117.15055847167969 90.64331817626953 109.20317840576172 89.44695281982422 C 102.77186584472656 90.73900604248047 101.47559356689453 90.34528350830078 101.8913803100586 88.070068359375" stroke-width="1.0" fill="rgb(249, 251, 251)" opacity="0.9825719"/>
    <path d="M 99.69876861572266 74.19034576416016 C 97.6877212524414 71.10003662109375 96.49687194824219 68.62100219726562 96.82457733154297 68.3187484741211 C 98.54280090332031 67.35655212402344 106.40730285644531 73.96404266357422 106.6788558959961 75.78396606445312 C 105.27083587646484 78.85554504394531 102.9282455444336 78.86376953125 99.69876861572266 74.19034576416016" stroke-width="1.0" fill="rgb(246, 248, 249)" opacity="0.973487"/>
    <path d="M 111.76106262207031 75.79297637939453 C 110.77694702148438 74.61137390136719 119.95890808105469 67.33251190185547 122.32010650634766 68.17654418945312 C 122.62696838378906 69.59211730957031 115.96719360351562 78.33464813232422 114.93253326416016 77.99049377441406 C 114.0695571899414 77.33480834960938 113.24988555908203 77.19233703613281 111.76106262207031 75.79297637939453" stroke-width="1.0" fill="rgb(246, 248, 247)" opacity="0.97123337"/>
    <path d="M 129.65968322753906 51.966854095458984 C 119.17323303222656 45.89978790283203 110.36322784423828 40.42041015625 109.71446228027344 40.17900085449219 C 108.76878356933594 40.34379577636719 99.92900848388672 45.53334045410156 89.760986328125 51.721588134765625 C 70.60167694091797 62.193023681640625 67.81678009033203 66.67916870117188 65.79597473144531 57.63383483886719 C 66.46764373779297 57.33251953125 106.94772338867188 34.005889892578125 109.65319061279297 32.54790496826172 C 111.23162078857422 33.597679138183594 151.60812377929688 56.926513671875 153.19061279296875 57.898502349853516 C 153.07464599609375 58.810447692871094 152.35214233398438 60.037559509277344 150.90997314453125 62.595550537109375 C 149.12998962402344 64.23998260498047 148.89852905273438 62.548095703125 129.65968322753906 51.966854095458984" stroke-width="1.0" fill="rgb(248, 250, 249)" opacity="0.9787596"/>
    <path d="M 49.505428314208984 53.421592712402344 C 45.1435546875 51.84000778198242 41.69844055175781 47.61009216308594 44.40910339355469 47.752593994140625 C 46.458641052246094 47.414268493652344 56.164127349853516 52.60945510864258 56.012325286865234 53.95162582397461 C 56.232826232910156 54.770965576171875 53.2591438293457 54.67438507080078 49.505428314208984 53.421592712402344" stroke-width="1.0" fill="rgb(243, 245, 246)" opacity="0.9623008"/>
    <path d="M 166.42562866210938 51.27182388305664 C 172.70187377929688 47.374847412109375 175.86305236816406 46.64696502685547 175.72801208496094 48.80335235595703 C 175.7488250732422 50.6084098815918 167.49896240234375 54.57358932495117 163.72695922851562 54.38176345825195 C 160.4154815673828 54.650413513183594 161.14151000976562 54.009193420410156 166.42562866210938 51.27182388305664" stroke-width="1.0" fill="rgb(243, 245, 245)" opacity="0.9598304"/>
    <path d="M 137.7589874267578 106.89114379882812 C 138.15609741210938 107.02182006835938 133.8428192138672 104.90165710449219 130.40476989746094 106.14926147460938 L 120.1917724609375 104.64048767089844 L 131.4630126953125 102.95702362060547 C 148.02835083007812 102.32487487792969 152.4921417236328 99.35740661621094 148.5394744873047 91.65525817871094 C 146.17771911621094 90.98670196533203 146.1120147705078 92.63075256347656 149.46649169921875 91.21781921386719 C 156.51214599609375 88.9698715209961 161.3679656982422 91.11434936523438 164.58712768554688 94.33702087402344 C 167.57077026367188 97.32622528076172 165.98175048828125 100.97773742675781 160.11428833007812 104.15873718261719 C 156.88763427734375 107.9880142211914 153.97335815429688 107.91227722167969 148.43826293945312 107.76556396484375 C 144.0252685546875 107.19602966308594 138.7723388671875 106.50015258789062 137.7589874267578 106.89114379882812" stroke-width="1.0" fill="rgb(250, 252, 252)" opacity="0.9591852"/>
  </g>
</svg>
