<?xml version="1.0" ?>
<svg xmlns="http://www.w3.org/2000/svg" version="1.1" width="224" height="224">
  <defs/>
  <g>
    <path d="M 111.9989013671875 27.99999237060547 C 111.9989013671875 27.99999237060547 111.9989013671875 27.99999237060547 111.9989013671875 27.99999237060547 C 122.9775390625 28.10107421875 133.80088806152344 30.161582946777344 143.93130493164062 34.444488525390625 C 170.97503662109375 45.87873840332031 190.3011932373047 71.69480895996094 193.53662109375 100.88987731933594 C 194.48593139648438 109.45860290527344 194.09552001953125 118.17823028564453 192.3616943359375 126.6239013671875 C 190.3986053466797 136.18223571777344 186.70388793945312 145.3647918701172 181.511962890625 153.62586975097656 C 175.61245727539062 163.01206970214844 167.85533142089844 170.99627685546875 158.82659912109375 177.39974975585938 C 158.82659912109375 177.39974975585938 158.82659912109375 177.39974975585938 158.82659912109375 177.39974975585938 C 154.552490234375 163.37173461914062 144.61032104492188 152.82965087890625 130.97930908203125 147.49122619628906 C 130.97930908203125 147.49122619628906 130.97930908203125 147.49122619628906 130.97930908203125 147.49122619628906 C 132.08831787109375 149.2829132080078 132.07073974609375 151.55584716796875 132.05828857421875 153.60464477539062 C 132.03485107421875 157.39382934570312 131.5718994140625 161.25115966796875 130.63870239257812 164.9253387451172 C 130.17430114746094 166.755126953125 129.1656494140625 171.58299255371094 126.42100524902344 170.51356506347656 C 121.60777282714844 167.12503051757812 116.79454040527344 163.73724365234375 111.98131561279297 160.34945678710938 C 114.39122772216797 158.65811157226562 116.80113983154297 156.96751403808594 119.21104431152344 155.27618408203125 C 122.67428588867188 152.6831512451172 126.13825988769531 150.09011840820312 129.60150146484375 147.49708557128906 C 129.8710479736328 147.365966796875 130.18894958496094 147.22019958496094 130.47901916503906 147.297119140625 C 130.47901916503906 147.297119140625 130.47901916503906 147.297119140625 130.47901916503906 147.297119140625 C 125.84159851074219 145.6490020751953 121.06352996826172 144.70115661621094 116.16532897949219 144.27410888671875 C 113.39576721191406 144.27410888671875 110.6269302368164 144.27410888671875 107.85736846923828 144.27410888671875 C 103.03022003173828 144.69456481933594 98.33786010742188 145.6365509033203 93.7509765625 147.21800231933594 C 93.7509765625 147.21800231933594 93.7509765625 147.21800231933594 93.7509765625 147.21800231933594 C 93.93556213378906 147.308837890625 94.12015533447266 147.40040588378906 94.30474090576172 147.49122619628906 C 100.19692993164062 151.7741241455078 106.08912658691406 156.05630493164062 111.98131561279297 160.33847045898438 C 107.1680908203125 163.72625732421875 102.35559844970703 167.11404418945312 97.54237365722656 170.50257873535156 C 94.81895446777344 171.56982421875 93.80078125 166.81884765625 93.32905578613281 164.99566650390625 C 92.38487243652344 161.34710693359375 91.91314697265625 157.5154266357422 91.86772918701172 153.74819946289062 C 91.84209442138672 151.66351318359375 91.82963562011719 149.40158081054688 92.87783813476562 147.54251098632812 C 92.87783813476562 147.54251098632812 92.87783813476562 147.54251098632812 92.87783813476562 147.54251098632812 C 79.32154846191406 152.90728759765625 69.44384765625 163.42886352539062 65.19097900390625 177.39974975585938 C 65.19097900390625 177.39974975585938 65.19097900390625 177.39974975585938 65.19097900390625 177.39974975585938 C 56.15857696533203 170.9969940185547 48.397789001464844 163.0135498046875 42.495338439941406 153.62661743164062 C 37.30048370361328 145.3647918701172 33.60358428955078 136.18002319335938 31.63976287841797 126.61949920654297 C 29.90447998046875 118.173095703125 29.514060974121094 109.45201110839844 30.46337127685547 100.8825454711914 C 33.69880676269531 71.68968200683594 53.02569580078125 45.87800598144531 80.06649780273438 34.444488525390625 C 90.19690704345703 30.161582946777344 101.02025604248047 28.10107421875 111.9989013671875 27.99999237060547 C 111.9989013671875 27.99999237060547 111.9989013671875 27.99999237060547 111.9989013671875 27.99999237060547" stroke-width="0.0" fill="rgb(247, 185, 112)" opacity="1.0" stroke="rgb(0, 0, 0)" stroke-opacity="1.0" stroke-linecap="round" stroke-linejoin="round"/>
    <path d="M 111.9989013671875 67.00537109375 C 111.9989013671875 67.00537109375 111.9989013671875 67.00537109375 111.9989013671875 67.00537109375 C 105.9580078125 67.10498809814453 100.34196472167969 68.2410888671875 94.90685272216797 70.97622680664062 C 86.2487564086914 75.3323745727539 79.06298065185547 82.77452850341797 75.60779571533203 91.88823699951172 C 68.2755126953125 111.23123931884766 78.53924560546875 133.80528259277344 97.57972717285156 141.47450256347656 C 102.15269470214844 143.3167266845703 107.06919860839844 144.25653076171875 111.9989013671875 144.25726318359375 C 116.92932891845703 144.25726318359375 121.84656524658203 143.31747436523438 126.42100524902344 141.47450256347656 C 130.8306121826172 139.69821166992188 134.89889526367188 137.0963897705078 138.37020874023438 133.84849548339844 C 149.7919921875 123.16139221191406 153.95257568359375 105.54048156738281 147.97540283203125 90.97335052490234 C 144.31439208984375 82.05009460449219 136.96527099609375 74.63357543945312 128.24636840820312 70.57920837402344 C 123.02588653564453 68.15172576904297 117.72408294677734 67.10060119628906 111.9989013671875 67.00537109375 C 111.9989013671875 67.00537109375 111.9989013671875 67.00537109375 111.9989013671875 67.00537109375" stroke-width="0.0" fill="rgb(247, 185, 112)" opacity="1.0" stroke="rgb(0, 0, 0)" stroke-opacity="1.0" stroke-linecap="round" stroke-linejoin="round"/>
    <path d="M 93.62132263183594 71.6501235961914 C 93.62132263183594 71.6501235961914 93.62132263183594 71.6501235961914 93.62132263183594 71.6501235961914 C 93.46676635742188 71.73802185058594 93.31221008300781 71.82518768310547 93.15765380859375 71.9130859375 C 93.15765380859375 71.9130859375 93.15765380859375 71.9130859375 93.15765380859375 71.9130859375 C 93.31221008300781 71.82518768310547 93.46676635742188 71.73802185058594 93.62132263183594 71.6501235961914 C 93.62132263183594 71.6501235961914 93.62132263183594 71.6501235961914 93.62132263183594 71.6501235961914" stroke-width="0.0" fill="rgb(252, 233, 234)" opacity="1.0" stroke="rgb(0, 0, 0)" stroke-opacity="1.0" stroke-linecap="round" stroke-linejoin="round"/>
    <path d="M 111.9989013671875 67.00244140625 C 111.9989013671875 67.00244140625 111.9989013671875 67.00244140625 111.9989013671875 67.00244140625 C 111.48322296142578 67.01123046875 110.96681213378906 67.0244140625 110.45113372802734 67.042724609375 C 110.45113372802734 67.042724609375 110.45113372802734 67.042724609375 110.45113372802734 67.042724609375 C 111.46784210205078 67.0654296875 112.46623229980469 67.0625 113.4829330444336 67.039794921875 C 113.4829330444336 67.039794921875 113.4829330444336 67.039794921875 113.4829330444336 67.039794921875 C 112.98849487304688 67.023681640625 112.49333190917969 67.01123046875 111.9989013671875 67.00244140625 C 111.9989013671875 67.00244140625 111.9989013671875 67.00244140625 111.9989013671875 67.00244140625" stroke-width="0.0" fill="rgb(252, 233, 234)" opacity="1.0" stroke="rgb(0, 0, 0)" stroke-opacity="1.0" stroke-linecap="round" stroke-linejoin="round"/>
    <path d="M 92.10871887207031 72.51739501953125 C 92.10871887207031 72.51739501953125 92.10871887207031 72.51739501953125 92.10871887207031 72.51739501953125 C 91.75931549072266 72.73714447021484 91.41065216064453 72.95762634277344 91.06124877929688 73.1773681640625 C 91.06124877929688 73.1773681640625 91.06124877929688 73.1773681640625 91.06124877929688 73.1773681640625 C 91.41065216064453 72.95762634277344 91.75931549072266 72.73714447021484 92.10871887207031 72.51739501953125 C 92.10871887207031 72.51739501953125 92.10871887207031 72.51739501953125 92.10871887207031 72.51739501953125" stroke-width="0.0" fill="rgb(252, 233, 234)" opacity="1.0" stroke="rgb(0, 0, 0)" stroke-opacity="1.0" stroke-linecap="round" stroke-linejoin="round"/>
    <path d="M 90.50382232666016 73.53483581542969 C 90.50382232666016 73.53483581542969 90.50382232666016 73.53483581542969 90.50382232666016 73.53483581542969 C 90.32215881347656 73.66156005859375 90.1412353515625 73.78826904296875 89.96031188964844 73.91572570800781 C 89.96031188964844 73.91572570800781 89.96031188964844 73.91572570800781 89.96031188964844 73.91572570800781 C 90.1412353515625 73.78826904296875 90.32215881347656 73.66156005859375 90.50382232666016 73.53483581542969 C 90.50382232666016 73.53483581542969 90.50382232666016 73.53483581542969 90.50382232666016 73.53483581542969" stroke-width="0.0" fill="rgb(252, 233, 234)" opacity="1.0" stroke="rgb(0, 0, 0)" stroke-opacity="1.0" stroke-linecap="round" stroke-linejoin="round"/>
    <path d="M 126.92422485351562 69.99394989013672 C 126.92422485351562 69.99394989013672 126.92422485351562 69.99394989013672 126.92422485351562 69.99394989013672 C 130.91412353515625 71.81273651123047 134.50115966796875 74.09080505371094 137.84280395507812 76.92994689941406 C 137.84280395507812 76.92994689941406 137.84280395507812 76.92994689941406 137.84280395507812 76.92994689941406 C 134.52386474609375 74.04684448242188 130.94488525390625 71.77244567871094 126.92422485351562 69.99394989013672 C 126.92422485351562 69.99394989013672 126.92422485351562 69.99394989013672 126.92422485351562 69.99394989013672" stroke-width="0.0" fill="rgb(252, 233, 234)" opacity="1.0" stroke="rgb(0, 0, 0)" stroke-opacity="1.0" stroke-linecap="round" stroke-linejoin="round"/>
    <path d="M 105.62911987304688 89.98228454589844 C 105.62911987304688 89.98228454589844 105.62911987304688 89.98228454589844 105.62911987304688 89.98228454589844 C 104.81165313720703 91.376953125 103.98027038574219 92.75697326660156 103.07344055175781 94.09671020507812 C 97.86246490478516 101.79450988769531 89.00513458251953 111.20633697509766 78.65058135986328 109.06891632080078 C 76.748291015625 108.67630004882812 75.08039855957031 107.87348175048828 73.40444946289062 106.92123413085938 C 73.40444946289062 106.92123413085938 73.40444946289062 106.92123413085938 73.40444946289062 106.92123413085938 C 73.71282958984375 112.82221984863281 75.10163879394531 118.51517486572266 77.88805389404297 123.75251007080078 C 86.79006958007812 140.4885711669922 107.21424102783203 148.41197204589844 125.07173919677734 141.9872589111328 C 129.5538787841797 140.37503051757812 133.72323608398438 137.92117309570312 137.31759643554688 134.79635620117188 C 140.89291381835938 131.68763732910156 143.89100646972656 127.92333984375 146.1148681640625 123.73933410644531 C 148.8998260498047 118.49832153320312 150.2878875732422 112.80244445800781 150.59335327148438 106.89852905273438 C 150.59335327148438 106.89852905273438 150.59335327148438 106.89852905273438 150.59335327148438 106.89852905273438 C 145.77938842773438 109.5809326171875 139.95237731933594 109.24764251708984 134.7084503173828 108.20603942871094 C 123.57232666015625 105.9931640625 111.67659759521484 99.92224884033203 105.62911987304688 89.98228454589844 C 105.62911987304688 89.98228454589844 105.62911987304688 89.98228454589844 105.62911987304688 89.98228454589844" stroke-width="0.0" fill="rgb(252, 233, 234)" opacity="1.0" stroke="rgb(0, 0, 0)" stroke-opacity="1.0" stroke-linecap="round" stroke-linejoin="round"/>
    <path d="M 130.9829864501953 147.48902893066406 C 130.9829864501953 147.48902893066406 130.9829864501953 147.48902893066406 130.9829864501953 147.48902893066406 C 144.60958862304688 152.82525634765625 154.548095703125 163.36878967285156 158.82073974609375 177.39169311523438 C 158.82073974609375 177.39169311523438 158.82073974609375 177.39169311523438 158.82073974609375 177.39169311523438 C 152.26197814941406 181.87677001953125 145.18679809570312 185.4923553466797 137.63037109375 187.97625732421875 C 113.225830078125 196.0 86.31761169433594 191.8474884033203 65.18804931640625 177.40267944335938 C 65.18804931640625 177.40267944335938 65.18804931640625 177.40267944335938 65.18804931640625 177.40267944335938 C 69.44091796875 163.43179321289062 79.31715393066406 152.9080352783203 92.87490844726562 147.54544067382812 C 92.87490844726562 147.54544067382812 92.87490844726562 147.54544067382812 92.87490844726562 147.54544067382812 C 91.82597351074219 149.40377807617188 91.83769226074219 151.6657257080078 91.86333465576172 153.75112915039062 C 91.90874481201172 157.5176239013672 92.38047790527344 161.34857177734375 93.32539367675781 164.99713134765625 C 93.797119140625 166.821044921875 94.81602478027344 171.5712890625 97.53944396972656 170.5054931640625 C 102.35266876220703 167.11697387695312 107.1651611328125 163.72918701171875 111.97838592529297 160.34140014648438 C 116.79161834716797 163.72918701171875 121.60484313964844 167.11697387695312 126.41807556152344 170.5054931640625 C 129.1605224609375 171.57421875 130.16917419433594 166.753662109375 130.63430786132812 164.92388916015625 C 131.5682373046875 161.25262451171875 132.03192138671875 157.39822387695312 132.05682373046875 153.61122131347656 C 132.07000732421875 151.55877685546875 132.08612060546875 149.2865753173828 130.9829864501953 147.48902893066406 C 130.9829864501953 147.48902893066406 130.9829864501953 147.48902893066406 130.9829864501953 147.48902893066406" stroke-width="0.0" fill="rgb(213, 226, 112)" opacity="1.0" stroke="rgb(0, 0, 0)" stroke-opacity="1.0" stroke-linecap="round" stroke-linejoin="round"/>
    <path d="M 94.22709655761719 147.05099487304688 C 94.22782897949219 147.05172729492188 94.22929382324219 147.05245971679688 94.23002624511719 147.05392456054688 C 94.09378051757812 147.10153198242188 93.95753479003906 147.14915466308594 93.8212890625 147.19749450683594 C 93.72972869873047 147.22898864746094 93.63890075683594 147.26048278808594 93.5473403930664 147.2919921875 C 93.773681640625 147.21141052246094 94.0007553100586 147.13082885742188 94.22709655761719 147.05099487304688 C 94.22709655761719 147.05099487304688 94.22709655761719 147.05099487304688 94.22709655761719 147.05099487304688" stroke-width="0.0" fill="rgb(213, 226, 112)" opacity="1.0" stroke="rgb(0, 0, 0)" stroke-opacity="1.0" stroke-linecap="round" stroke-linejoin="round"/>
    <path d="M 129.79193115234375 147.05026245117188 C 129.79193115234375 147.05026245117188 129.79193115234375 147.05026245117188 129.79193115234375 147.05026245117188 C 129.9340362548828 147.10006713867188 130.07614135742188 147.14987182617188 130.218994140625 147.19969177246094 C 130.218994140625 147.19969177246094 130.218994140625 147.19969177246094 130.218994140625 147.19969177246094 C 130.07614135742188 147.14987182617188 129.9340362548828 147.10006713867188 129.79193115234375 147.05026245117188 C 129.79193115234375 147.05026245117188 129.79193115234375 147.05026245117188 129.79193115234375 147.05026245117188" stroke-width="0.0" fill="rgb(213, 226, 112)" opacity="1.0" stroke="rgb(0, 0, 0)" stroke-opacity="1.0" stroke-linecap="round" stroke-linejoin="round"/>
    <path d="M 122.90648651123047 145.19485473632812 C 122.90648651123047 145.19485473632812 122.90648651123047 145.19485473632812 122.90648651123047 145.19485473632812 C 123.13209533691406 145.23953247070312 123.35843658447266 145.2849578857422 123.58404541015625 145.32962036132812 C 123.58404541015625 145.32962036132812 123.58404541015625 145.32962036132812 123.58404541015625 145.32962036132812 C 123.35843658447266 145.2849578857422 123.13209533691406 145.23953247070312 122.90648651123047 145.19485473632812 C 122.90648651123047 145.19485473632812 122.90648651123047 145.19485473632812 122.90648651123047 145.19485473632812" stroke-width="0.0" fill="rgb(213, 226, 112)" opacity="1.0" stroke="rgb(0, 0, 0)" stroke-opacity="1.0" stroke-linecap="round" stroke-linejoin="round"/>
    <path d="M 130.26220703125 147.2158203125 C 130.26220703125 147.2158203125 130.26220703125 147.2158203125 130.26220703125 147.2158203125 C 130.333984375 147.24072265625 130.40650939941406 147.266357421875 130.47901916503906 147.2919921875 C 130.47901916503906 147.2919921875 130.47901916503906 147.2919921875 130.47901916503906 147.2919921875 C 130.40650939941406 147.266357421875 130.333984375 147.24072265625 130.26220703125 147.2158203125 C 130.26220703125 147.2158203125 130.26220703125 147.2158203125 130.26220703125 147.2158203125" stroke-width="0.0" fill="rgb(213, 226, 112)" opacity="1.0" stroke="rgb(0, 0, 0)" stroke-opacity="1.0" stroke-linecap="round" stroke-linejoin="round"/>
    <path d="M 111.50373077392578 160.0095672607422 C 111.66194915771484 160.12091064453125 111.8201675415039 160.23223876953125 111.97838592529297 160.3443145751953 C 112.13660430908203 160.23223876953125 112.2948226928711 160.12091064453125 112.45378112792969 160.0095672607422 C 112.13734436035156 160.01690673828125 111.8201675415039 160.0161590576172 111.50373077392578 160.0095672607422 C 111.50373077392578 160.0095672607422 111.50373077392578 160.0095672607422 111.50373077392578 160.0095672607422" stroke-width="0.0" fill="rgb(213, 226, 112)" opacity="1.0" stroke="rgb(0, 0, 0)" stroke-opacity="1.0" stroke-linecap="round" stroke-linejoin="round"/>
    <path d="M 127.74242401123047 146.38735961914062 C 127.74242401123047 146.38735961914062 127.74242401123047 146.38735961914062 127.74242401123047 146.38735961914062 C 127.95704650878906 146.45401000976562 128.17166137695312 146.52139282226562 128.38629150390625 146.5880584716797 C 128.38629150390625 146.5880584716797 128.38629150390625 146.5880584716797 128.38629150390625 146.5880584716797 C 128.17166137695312 146.52139282226562 127.95704650878906 146.45401000976562 127.74242401123047 146.38735961914062 C 127.74242401123047 146.38735961914062 127.74242401123047 146.38735961914062 127.74242401123047 146.38735961914062" stroke-width="0.0" fill="rgb(213, 226, 112)" opacity="1.0" stroke="rgb(0, 0, 0)" stroke-opacity="1.0" stroke-linecap="round" stroke-linejoin="round"/>
    <path d="M 101.084716796875 145.20071411132812 C 101.084716796875 145.20071411132812 101.084716796875 145.20071411132812 101.084716796875 145.20071411132812 C 100.8715591430664 145.24246215820312 100.65766906738281 145.2849578857422 100.44451904296875 145.3267059326172 C 100.44451904296875 145.3267059326172 100.44451904296875 145.3267059326172 100.44451904296875 145.3267059326172 C 100.65766906738281 145.2849578857422 100.8715591430664 145.24246215820312 101.084716796875 145.20071411132812 C 101.084716796875 145.20071411132812 101.084716796875 145.20071411132812 101.084716796875 145.20071411132812" stroke-width="0.0" fill="rgb(213, 226, 112)" opacity="1.0" stroke="rgb(0, 0, 0)" stroke-opacity="1.0" stroke-linecap="round" stroke-linejoin="round"/>
    <path d="M 118.40823364257812 144.49093627929688 C 118.40823364257812 144.49093627929688 118.40823364257812 144.49093627929688 118.40823364257812 144.49093627929688 C 118.63970184326172 144.52096557617188 118.87117004394531 144.55026245117188 119.1026382446289 144.57955932617188 C 119.1026382446289 144.57955932617188 119.1026382446289 144.57955932617188 119.1026382446289 144.57955932617188 C 118.87117004394531 144.55026245117188 118.63970184326172 144.52096557617188 118.40823364257812 144.49093627929688 C 118.40823364257812 144.49093627929688 118.40823364257812 144.49093627929688 118.40823364257812 144.49093627929688" stroke-width="0.0" fill="rgb(213, 226, 112)" opacity="1.0" stroke="rgb(0, 0, 0)" stroke-opacity="1.0" stroke-linecap="round" stroke-linejoin="round"/>
    <path d="M 96.26123809814453 146.39028930664062 C 96.26123809814453 146.39028930664062 96.26123809814453 146.39028930664062 96.26123809814453 146.39028930664062 C 96.06053161621094 146.45327758789062 95.86056518554688 146.5162811279297 95.65985870361328 146.5792694091797 C 95.65985870361328 146.5792694091797 95.65985870361328 146.5792694091797 95.65985870361328 146.5792694091797 C 95.86056518554688 146.5162811279297 96.06053161621094 146.45327758789062 96.26123809814453 146.39028930664062 C 96.26123809814453 146.39028930664062 96.26123809814453 146.39028930664062 96.26123809814453 146.39028930664062" stroke-width="0.0" fill="rgb(213, 226, 112)" opacity="1.0" stroke="rgb(0, 0, 0)" stroke-opacity="1.0" stroke-linecap="round" stroke-linejoin="round"/>
    <path d="M 107.85736846923828 144.27410888671875 C 107.85736846923828 144.27410888671875 107.85736846923828 144.27410888671875 107.85736846923828 144.27410888671875 C 103.06611633300781 144.68650817871094 98.36349487304688 145.59478759765625 93.818359375 147.19163513183594 C 93.818359375 147.19163513183594 93.818359375 147.19163513183594 93.818359375 147.19163513183594 C 93.9809799194336 147.29052734375 94.14286041259766 147.38941955566406 94.30474090576172 147.48829650878906 C 100.03797912597656 151.6613311767578 105.77122497558594 155.8336181640625 111.50373077392578 160.0066375732422 C 111.8201675415039 160.0132293701172 112.13734436035156 160.01397705078125 112.45378112792969 160.0066375732422 C 114.7061996459961 158.42811584472656 116.9586181640625 156.84886169433594 119.21104431152344 155.27032470703125 C 122.67428588867188 152.6772918701172 126.13825988769531 150.08425903320312 129.60150146484375 147.49122619628906 C 129.7934112548828 147.398193359375 129.98458862304688 147.304443359375 130.17649841308594 147.21141052246094 C 130.17649841308594 147.21141052246094 130.17649841308594 147.21141052246094 130.17649841308594 147.21141052246094 C 125.81082916259766 145.3809051513672 120.84963989257812 144.67770385742188 116.16532897949219 144.27410888671875 C 113.39576721191406 144.27410888671875 110.6269302368164 144.27410888671875 107.85736846923828 144.27410888671875" stroke-width="0.0" fill="rgb(254, 254, 254)" opacity="1.0" stroke="rgb(0, 0, 0)" stroke-opacity="1.0" stroke-linecap="round" stroke-linejoin="round"/>
    <path d="M 113.4800033569336 67.039794921875 C 113.4800033569336 67.039794921875 113.4800033569336 67.039794921875 113.4800033569336 67.039794921875 C 112.96725463867188 67.051513671875 112.45451354980469 67.06982421875 111.94176483154297 67.09693145751953 C 111.94176483154297 67.09693145751953 111.94176483154297 67.09693145751953 111.94176483154297 67.09693145751953 C 113.61917877197266 74.76249694824219 109.20809173583984 83.49237823486328 105.62911987304688 89.97935485839844 C 105.62911987304688 89.97935485839844 105.62911987304688 89.97935485839844 105.62911987304688 89.97935485839844 C 111.67586517333984 99.9200439453125 123.57158660888672 105.992431640625 134.7084503173828 108.20603942871094 C 139.95237731933594 109.24764251708984 145.77938842773438 109.5809326171875 150.59335327148438 106.89852905273438 C 150.59335327148438 106.89852905273438 150.59335327148438 106.89852905273438 150.59335327148438 106.89852905273438 C 150.78817749023438 101.42385864257812 150.06814575195312 96.06346130371094 147.97833251953125 90.97042083740234 C 142.398193359375 77.37237548828125 128.2397918701172 67.29324340820312 113.4800033569336 67.039794921875 C 113.4800033569336 67.039794921875 113.4800033569336 67.039794921875 113.4800033569336 67.039794921875" stroke-width="0.0" fill="rgb(237, 118, 103)" opacity="1.0" stroke="rgb(0, 0, 0)" stroke-opacity="1.0" stroke-linecap="round" stroke-linejoin="round"/>
    <path d="M 110.45113372802734 67.042724609375 C 110.45113372802734 67.042724609375 110.45113372802734 67.042724609375 110.45113372802734 67.042724609375 C 95.84664154052734 67.2639389038086 81.82814025878906 77.19731140136719 76.14031982421875 90.55509948730469 C 73.92525482177734 95.75727844238281 73.1451416015625 101.25465393066406 73.3297348022461 106.87802124023438 C 73.3297348022461 106.87802124023438 73.3297348022461 106.87802124023438 73.3297348022461 106.87802124023438 C 75.01447296142578 107.83538818359375 76.691162109375 108.6433334350586 78.60296630859375 109.04108428955078 C 89.52447509765625 111.31181335449219 98.73194122314453 100.92063903808594 103.95976257324219 92.74159240722656 C 105.17131042480469 90.84662628173828 106.28103637695312 88.886474609375 107.28675842285156 86.87577056884766 C 108.29026794433594 84.87165832519531 109.19051361083984 82.8148193359375 109.96256256103516 80.71035766601562 C 111.51984405517578 76.46774291992188 112.93502807617188 71.6281509399414 111.94176483154297 67.099853515625 C 111.94176483154297 67.099853515625 111.94176483154297 67.099853515625 111.94176483154297 67.099853515625 C 111.44512939453125 67.07349395751953 110.94850158691406 67.054443359375 110.45113372802734 67.042724609375 C 110.45113372802734 67.042724609375 110.45113372802734 67.042724609375 110.45113372802734 67.042724609375" stroke-width="0.0" fill="rgb(240, 142, 131)" opacity="1.0" stroke="rgb(0, 0, 0)" stroke-opacity="1.0" stroke-linecap="round" stroke-linejoin="round"/>
  </g>
</svg>
