<?xml version="1.0" ?>
<svg xmlns="http://www.w3.org/2000/svg" version="1.1" width="224" height="224">
  <defs/>
  <g>
    <path d="M 112.00146484375 27.99999237060547 C 112.00146484375 27.99999237060547 112.00146484375 27.99999237060547 112.00146484375 27.99999237060547 C 122.95091247558594 28.100814819335938 133.74403381347656 30.156715393066406 143.84671020507812 34.42997741699219 C 170.8144989013672 45.83605194091797 190.08984375 71.58374786376953 193.31689453125 100.69876098632812 C 194.26373291015625 109.24016571044922 193.87432861328125 117.93280792236328 192.145751953125 126.35147094726562 C 190.18919372558594 135.88064575195312 186.50552368164062 145.03575134277344 181.32998657226562 153.27249145507812 C 175.4494171142578 162.63290405273438 167.71678161621094 170.59567260742188 158.716552734375 176.98475646972656 C 158.716552734375 176.98475646972656 158.716552734375 176.98475646972656 158.716552734375 176.98475646972656 C 157.45188903808594 172.83203125 155.77005004882812 168.86854553222656 153.4423828125 165.1929168701172 C 145.26919555664062 152.2913055419922 131.1065673828125 145.2556610107422 116.16001892089844 143.95884704589844 C 114.77554321289062 143.95884704589844 113.39178466796875 143.95884704589844 112.00730895996094 143.95884704589844 C 127.60263061523438 143.65345764160156 141.123779296875 134.70950317382812 147.48655700683594 120.46286010742188 C 147.48655700683594 120.46286010742188 147.48655700683594 120.46286010742188 147.48655700683594 120.46286010742188 C 148.9777069091797 126.5509262084961 152.9689483642578 131.71331787109375 158.36221313476562 134.9140625 C 161.81866455078125 136.96559143066406 165.7003173828125 138.04541015625 169.61048889160156 136.7880401611328 C 169.61048889160156 136.7880401611328 169.61048889160156 136.7880401611328 169.61048889160156 136.7880401611328 C 167.7416229248047 134.48446655273438 167.30545043945312 131.4152374267578 166.7845458984375 128.57394409179688 C 165.45338439941406 121.31181335449219 164.45611572265625 111.24419403076172 156.80384826660156 107.71540832519531 C 154.807861328125 106.79558563232422 152.75341796875 106.58810424804688 150.58718872070312 106.50553894042969 C 150.58718872070312 106.50553894042969 150.58718872070312 106.50553894042969 150.58718872070312 106.50553894042969 C 150.7508544921875 101.00048828125 150.01004028320312 95.6298828125 147.87303161621094 90.52227783203125 C 146.13861083984375 86.37541198730469 143.61219787597656 82.5806884765625 140.52981567382812 79.3149185180664 C 128.85487365722656 66.94664764404297 110.2012710571289 63.090553283691406 94.90623474121094 70.84146118164062 C 90.67388916015625 72.98575592041016 86.80171966552734 75.85993194580078 83.54618072509766 79.31419372558594 C 80.46744537353516 82.5806884765625 77.94615173339844 86.37541198730469 76.21391296386719 90.52081298828125 C 74.07910919189453 95.629150390625 73.33828735351562 101.00048828125 73.49828338623047 106.50553894042969 C 73.49828338623047 106.50553894042969 73.49828338623047 106.50553894042969 73.49828338623047 106.50553894042969 C 71.32548522949219 106.58737182617188 69.26374816894531 106.79339599609375 67.25971984863281 107.71248626708984 C 59.592105865478516 111.22957611083984 58.57730484008789 121.27674865722656 57.23592758178711 128.5454559326172 C 56.71135711669922 131.38528442382812 56.27008056640625 134.45086669921875 54.39828872680664 136.7507781982422 C 54.39828872680664 136.7507781982422 54.39828872680664 136.7507781982422 54.39828872680664 136.7507781982422 C 58.30332946777344 137.9964599609375 62.181339263916016 136.92759704589844 65.63998413085938 134.89215087890625 C 71.02593994140625 131.72280883789062 75.03399658203125 126.60353088378906 76.55656433105469 120.54322814941406 C 76.55656433105469 120.54322814941406 76.55656433105469 120.54322814941406 76.55656433105469 120.54322814941406 C 82.93905639648438 134.74676513671875 96.43682861328125 143.65419006347656 112.00146484375 143.95884704589844 C 110.62940216064453 143.95884704589844 109.2573471069336 143.95884704589844 107.88528442382812 143.95884704589844 C 97.28067016601562 144.87063598632812 87.36209106445312 148.50462341308594 79.11876678466797 155.34886169433594 C 79.06324005126953 155.3941650390625 79.0077133178711 155.439453125 78.95291900634766 155.48548889160156 C 72.3717041015625 161.32293701171875 67.89168548583984 168.59823608398438 65.30390930175781 176.9906005859375 C 65.30390930175781 176.9906005859375 65.30390930175781 176.9906005859375 65.30390930175781 176.9906005859375 C 56.29857635498047 170.61029052734375 48.563011169433594 162.6519012451172 42.67951965332031 153.29515075683594 C 37.50032043457031 145.0576629638672 33.81446075439453 135.90037536621094 31.855728149414062 126.36827087402344 C 30.12567901611328 117.94595336914062 29.73626708984375 109.25039672851562 30.683120727539062 100.70606231689453 C 33.91016387939453 71.588134765625 53.18550109863281 45.83751678466797 80.15547943115234 34.42997741699219 C 90.2581787109375 30.156715393066406 101.05200958251953 28.100814819335938 112.00146484375 27.99999237060547 C 112.00146484375 27.99999237060547 112.00146484375 27.99999237060547 112.00146484375 27.99999237060547" stroke-width="0.0" fill="rgb(252, 208, 119)" opacity="1.0" stroke="rgb(0, 0, 0)" stroke-opacity="1.0" stroke-linecap="round" stroke-linejoin="round"/>
    <path d="M 111.99854278564453 85.14946746826172 C 111.99854278564453 85.14946746826172 111.99854278564453 85.14946746826172 111.99854278564453 85.14946746826172 C 109.14410400390625 95.66056823730469 100.09857940673828 103.72050476074219 89.94840240478516 107.15650939941406 C 84.5492935180664 108.98445129394531 78.61318969726562 109.4659194946289 73.50704956054688 106.59686279296875 C 73.50704956054688 106.59686279296875 73.50704956054688 106.59686279296875 73.50704956054688 106.59686279296875 C 73.786865234375 112.39196014404297 75.1070556640625 117.98759460449219 77.78981018066406 123.15730285644531 C 79.98744201660156 127.391845703125 82.97705078125 131.20774841308594 86.55697631835938 134.3610076904297 C 90.15515899658203 137.52886962890625 94.34075164794922 140.01947021484375 98.8470687866211 141.65673828125 C 116.34851837158203 148.014404296875 136.42312622070312 140.54843139648438 145.56874084472656 124.35401916503906 C 148.6533203125 118.89134216308594 150.1846466064453 112.8792724609375 150.4900360107422 106.63996887207031 C 150.4900360107422 106.63996887207031 150.4900360107422 106.63996887207031 150.4900360107422 106.63996887207031 C 145.36196899414062 109.4673843383789 139.42733764648438 108.9676513671875 134.03042602539062 107.13166046142578 C 123.89777374267578 103.68544006347656 114.86029052734375 95.64741516113281 111.99854278564453 85.14946746826172 C 111.99854278564453 85.14946746826172 111.99854278564453 85.14946746826172 111.99854278564453 85.14946746826172" stroke-width="0.0" fill="rgb(252, 233, 234)" opacity="1.0" stroke="rgb(0, 0, 0)" stroke-opacity="1.0" stroke-linecap="round" stroke-linejoin="round"/>
    <path d="M 112.00146484375 66.91596221923828 C 112.00146484375 66.91596221923828 112.00146484375 66.91596221923828 112.00146484375 66.91596221923828 C 97.37857055664062 66.2671890258789 82.95951080322266 76.06230163574219 76.83345794677734 89.12098693847656 C 74.25736999511719 94.6121597290039 73.32075500488281 100.47738647460938 73.495361328125 106.50553894042969 C 73.495361328125 106.50553894042969 73.495361328125 106.50553894042969 73.495361328125 106.50553894042969 C 71.66302490234375 106.58297729492188 69.94538879394531 106.69988250732422 68.20146179199219 107.32599639892578 C 59.920143127441406 110.29879760742188 58.67008972167969 120.64186096191406 57.31775665283203 128.08737182617188 C 56.7800407409668 131.04409790039062 56.37382888793945 134.36538696289062 54.39536666870117 136.7507781982422 C 54.39536666870117 136.7507781982422 54.39536666870117 136.7507781982422 54.39536666870117 136.7507781982422 C 58.30040740966797 137.9971923828125 62.17914962768555 136.92904663085938 65.63778686523438 134.89361572265625 C 71.02448272705078 131.7235565185547 75.03180694580078 126.60279846191406 76.55364227294922 120.54322814941406 C 76.55364227294922 120.54322814941406 76.55364227294922 120.54322814941406 76.55364227294922 120.54322814941406 C 74.72569274902344 116.03325653076172 73.7386474609375 111.45387268066406 73.5041275024414 106.59394073486328 C 73.5041275024414 106.59394073486328 73.5041275024414 106.59394073486328 73.5041275024414 106.59394073486328 C 78.61173248291016 109.46299743652344 84.5478286743164 108.98153686523438 89.94766998291016 107.15357971191406 C 100.09857940673828 103.71758270263672 109.14410400390625 95.65763854980469 111.99854278564453 85.14654541015625 C 111.99927520751953 79.06944274902344 112.000732421875 72.9930648803711 112.00146484375 66.91596221923828" stroke-width="0.0" fill="rgb(173, 190, 32)" opacity="1.0" stroke="rgb(0, 0, 0)" stroke-opacity="1.0" stroke-linecap="round" stroke-linejoin="round"/>
    <path d="M 111.99854278564453 66.91888427734375 C 111.99927520751953 72.9959945678711 112.000732421875 79.07235717773438 112.00146484375 85.14946746826172 C 114.86321258544922 95.64668273925781 123.89995574951172 103.68470764160156 134.03260803222656 107.13166046142578 C 139.42880249023438 108.9676513671875 145.36343383789062 109.4673843383789 150.4900360107422 106.63996887207031 C 150.4900360107422 106.63996887207031 150.4900360107422 106.63996887207031 150.4900360107422 106.63996887207031 C 150.25186157226562 111.45314025878906 149.27796936035156 115.99307250976562 147.48069763183594 120.46578216552734 C 147.48069763183594 120.46578216552734 147.48069763183594 120.46578216552734 147.48069763183594 120.46578216552734 C 148.97039794921875 126.55458068847656 152.96163940429688 131.71624755859375 158.3549041748047 134.9169921875 C 161.81210327148438 136.968505859375 165.69375610351562 138.04832458496094 169.60464477539062 136.7909698486328 C 169.60464477539062 136.7909698486328 169.60464477539062 136.7909698486328 169.60464477539062 136.7909698486328 C 167.63055419921875 134.40264892578125 167.23019409179688 131.07843017578125 166.6968536376953 128.1217041015625 C 165.35548400878906 120.68496704101562 164.12588500976562 110.31632995605469 155.85845947265625 107.33184814453125 C 154.12037658691406 106.70426177978516 152.40785217285156 106.58663940429688 150.58135986328125 106.50846862792969 C 150.58135986328125 106.50846862792969 150.58135986328125 106.50846862792969 150.58135986328125 106.50846862792969 C 150.76036071777344 100.47958374023438 149.824462890625 94.61361694335938 147.24545288085938 89.12245178222656 C 141.1055145263672 76.05207824707031 126.6513900756836 66.27011108398438 112.01826477050781 66.91888427734375 C 112.01826477050781 66.91888427734375 112.01826477050781 66.91888427734375 112.01826477050781 66.91888427734375 C 112.01826477050781 66.91888427734375 111.99854278564453 66.91888427734375 111.99854278564453 66.91888427734375" stroke-width="0.0" fill="rgb(190, 207, 61)" opacity="1.0" stroke="rgb(0, 0, 0)" stroke-opacity="1.0" stroke-linecap="round" stroke-linejoin="round"/>
    <path d="M 131.70346069335938 147.4525604248047 C 131.70346069335938 147.4525604248047 131.70346069335938 147.4525604248047 131.70346069335938 147.4525604248047 C 136.4494171142578 149.3331298828125 140.7657928466797 151.9376983642578 144.7080841064453 155.17205810546875 C 144.70883178710938 165.05484008789062 144.7095489501953 174.9376220703125 144.7110137939453 184.82040405273438 C 144.9667205810547 184.7108154296875 145.22244262695312 184.60195922851562 145.47813415527344 184.4930877685547 C 145.47813415527344 184.4930877685547 145.47813415527344 184.4930877685547 145.47813415527344 184.4930877685547 C 119.232177734375 196.0 88.97013854980469 193.17916870117188 65.31779479980469 177.01031494140625 C 65.31779479980469 177.01031494140625 65.31779479980469 177.01031494140625 65.31779479980469 177.01031494140625 C 69.70356750488281 179.99407958984375 74.2858657836914 182.5599365234375 79.12168884277344 184.7407684326172 C 79.12242126464844 174.94200134277344 79.1231460571289 165.1439666748047 79.1238784790039 155.34593200683594 C 83.10051727294922 152.04290771484375 87.45999145507812 149.4069061279297 92.26293182373047 147.48106384277344 C 92.26293182373047 147.48106384277344 92.26293182373047 147.48106384277344 92.26293182373047 147.48106384277344 C 92.09781646728516 147.54754638671875 91.93343353271484 147.61329650878906 91.76904296875 147.67906188964844 C 91.76904296875 154.76950073242188 91.76904296875 161.8592071533203 91.76904296875 168.94964599609375 C 105.15650177001953 168.94964599609375 118.54396057128906 168.94964599609375 131.93141174316406 168.94964599609375 C 131.93141174316406 161.8139190673828 131.93141174316406 154.67889404296875 131.93141174316406 147.54388427734375 C 131.85543823242188 147.51393127441406 131.77944946289062 147.48324584960938 131.70346069335938 147.4525604248047 C 131.70346069335938 147.4525604248047 131.70346069335938 147.4525604248047 131.70346069335938 147.4525604248047" stroke-width="0.0" fill="rgb(255, 159, 49)" opacity="1.0" stroke="rgb(0, 0, 0)" stroke-opacity="1.0" stroke-linecap="round" stroke-linejoin="round"/>
    <path d="M 151.8591766357422 162.8681640625 C 151.8591766357422 162.8681640625 151.8591766357422 162.8681640625 151.8591766357422 162.8681640625 C 154.9262237548828 167.22909545898438 157.16476440429688 171.89175415039062 158.716552734375 176.9906005859375 C 158.716552734375 176.9906005859375 158.716552734375 176.9906005859375 158.716552734375 176.9906005859375 C 157.16256713867188 171.89321899414062 154.9247589111328 167.22982788085938 151.8591766357422 162.8681640625 C 151.8591766357422 162.8681640625 151.8591766357422 162.8681640625 151.8591766357422 162.8681640625" stroke-width="0.0" fill="rgb(255, 159, 49)" opacity="1.0" stroke="rgb(0, 0, 0)" stroke-opacity="1.0" stroke-linecap="round" stroke-linejoin="round"/>
    <path d="M 127.6954116821289 146.06663513183594 C 127.6954116821289 146.06663513183594 127.6954116821289 146.06663513183594 127.6954116821289 146.06663513183594 C 127.927734375 146.1389617919922 128.15933227539062 146.21128845214844 128.3916778564453 146.2836151123047 C 128.3916778564453 146.2836151123047 128.3916778564453 146.2836151123047 128.3916778564453 146.2836151123047 C 128.15933227539062 146.21128845214844 127.927734375 146.1389617919922 127.6954116821289 146.06663513183594 C 127.6954116821289 146.06663513183594 127.6954116821289 146.06663513183594 127.6954116821289 146.06663513183594" stroke-width="0.0" fill="rgb(255, 159, 49)" opacity="1.0" stroke="rgb(0, 0, 0)" stroke-opacity="1.0" stroke-linecap="round" stroke-linejoin="round"/>
    <path d="M 96.33016204833984 146.0724639892578 C 96.33016204833984 146.0724639892578 96.33016204833984 146.0724639892578 96.33016204833984 146.0724639892578 C 96.11609649658203 146.1389617919922 95.90203857421875 146.2054443359375 95.68797302246094 146.2719268798828 C 95.68797302246094 146.2719268798828 95.68797302246094 146.2719268798828 95.68797302246094 146.2719268798828 C 95.90203857421875 146.2054443359375 96.11609649658203 146.1389617919922 96.33016204833984 146.0724639892578 C 96.33016204833984 146.0724639892578 96.33016204833984 146.0724639892578 96.33016204833984 146.0724639892578" stroke-width="0.0" fill="rgb(255, 159, 49)" opacity="1.0" stroke="rgb(0, 0, 0)" stroke-opacity="1.0" stroke-linecap="round" stroke-linejoin="round"/>
    <path d="M 74.25225830078125 160.22048950195312 C 74.25225830078125 160.22048950195312 74.25225830078125 160.22048950195312 74.25225830078125 160.22048950195312 C 74.14851379394531 160.34539794921875 74.04476928710938 160.4696044921875 73.94102478027344 160.59381103515625 C 73.94102478027344 160.59381103515625 73.94102478027344 160.59381103515625 73.94102478027344 160.59381103515625 C 74.04476928710938 160.4696044921875 74.14851379394531 160.34539794921875 74.25225830078125 160.22048950195312 C 74.25225830078125 160.22048950195312 74.25225830078125 160.22048950195312 74.25225830078125 160.22048950195312" stroke-width="0.0" fill="rgb(255, 159, 49)" opacity="1.0" stroke="rgb(0, 0, 0)" stroke-opacity="1.0" stroke-linecap="round" stroke-linejoin="round"/>
    <path d="M 122.88370513916016 144.880126953125 C 122.88370513916016 144.880126953125 122.88370513916016 144.880126953125 122.88370513916016 144.880126953125 C 123.10872650146484 144.92469787597656 123.33448028564453 144.97000122070312 123.55950164794922 145.0145721435547 C 123.55950164794922 145.0145721435547 123.55950164794922 145.0145721435547 123.55950164794922 145.0145721435547 C 123.33448028564453 144.97000122070312 123.10872650146484 144.92469787597656 122.88370513916016 144.880126953125 C 122.88370513916016 144.880126953125 122.88370513916016 144.880126953125 122.88370513916016 144.880126953125" stroke-width="0.0" fill="rgb(255, 159, 49)" opacity="1.0" stroke="rgb(0, 0, 0)" stroke-opacity="1.0" stroke-linecap="round" stroke-linejoin="round"/>
    <path d="M 77.404052734375 156.89480590820312 C 77.404052734375 156.89480590820312 77.404052734375 156.89480590820312 77.404052734375 156.89480590820312 C 77.26377868652344 157.02777099609375 77.12423706054688 157.16073608398438 76.98468780517578 157.293701171875 C 76.98468780517578 157.293701171875 76.98468780517578 157.293701171875 76.98468780517578 157.293701171875 C 77.12423706054688 157.16073608398438 77.26377868652344 157.02777099609375 77.404052734375 156.89480590820312 C 77.404052734375 156.89480590820312 77.404052734375 156.89480590820312 77.404052734375 156.89480590820312" stroke-width="0.0" fill="rgb(255, 159, 49)" opacity="1.0" stroke="rgb(0, 0, 0)" stroke-opacity="1.0" stroke-linecap="round" stroke-linejoin="round"/>
    <path d="M 71.71635437011719 163.5008544921875 C 71.71635437011719 163.5008544921875 71.71635437011719 163.5008544921875 71.71635437011719 163.5008544921875 C 71.62503051757812 163.6309051513672 71.53370666503906 163.76168823242188 71.4423828125 163.8917236328125 C 71.4423828125 163.8917236328125 71.4423828125 163.8917236328125 71.4423828125 163.8917236328125 C 71.53370666503906 163.76168823242188 71.62503051757812 163.6309051513672 71.71635437011719 163.5008544921875 C 71.71635437011719 163.5008544921875 71.71635437011719 163.5008544921875 71.71635437011719 163.5008544921875" stroke-width="0.0" fill="rgb(255, 159, 49)" opacity="1.0" stroke="rgb(0, 0, 0)" stroke-opacity="1.0" stroke-linecap="round" stroke-linejoin="round"/>
    <path d="M 69.28565979003906 167.3803253173828 C 69.28565979003906 167.3803253173828 69.28565979003906 167.3803253173828 69.28565979003906 167.3803253173828 C 69.22502136230469 167.49356079101562 69.16438293457031 167.6060791015625 69.10301208496094 167.71932983398438 C 69.10301208496094 167.71932983398438 69.10301208496094 167.71932983398438 69.10301208496094 167.71932983398438 C 69.16438293457031 167.6060791015625 69.22502136230469 167.49356079101562 69.28565979003906 167.3803253173828 C 69.28565979003906 167.3803253173828 69.28565979003906 167.3803253173828 69.28565979003906 167.3803253173828" stroke-width="0.0" fill="rgb(255, 159, 49)" opacity="1.0" stroke="rgb(0, 0, 0)" stroke-opacity="1.0" stroke-linecap="round" stroke-linejoin="round"/>
    <path d="M 125.59860229492188 145.48580932617188 C 125.59860229492188 145.48580932617188 125.59860229492188 145.48580932617188 125.59860229492188 145.48580932617188 C 125.6336669921875 145.49383544921875 125.66873931884766 145.5018768310547 125.70452880859375 145.51065063476562 C 125.70452880859375 145.51065063476562 125.70452880859375 145.51065063476562 125.70452880859375 145.51065063476562 C 125.70452880859375 145.51065063476562 125.59860229492188 145.48580932617188 125.59860229492188 145.48580932617188" stroke-width="0.0" fill="rgb(255, 159, 49)" opacity="1.0" stroke="rgb(0, 0, 0)" stroke-opacity="1.0" stroke-linecap="round" stroke-linejoin="round"/>
    <path d="M 67.41168212890625 171.17723083496094 C 67.41168212890625 171.17723083496094 67.41168212890625 171.17723083496094 67.41168212890625 171.17723083496094 C 67.35469055175781 171.30654907226562 67.29771423339844 171.4358673095703 67.24072265625 171.565185546875 C 67.24072265625 171.565185546875 67.24072265625 171.565185546875 67.24072265625 171.565185546875 C 67.29771423339844 171.4358673095703 67.35469055175781 171.30654907226562 67.41168212890625 171.17723083496094 C 67.41168212890625 171.17723083496094 67.41168212890625 171.17723083496094 67.41168212890625 171.17723083496094" stroke-width="0.0" fill="rgb(255, 159, 49)" opacity="1.0" stroke="rgb(0, 0, 0)" stroke-opacity="1.0" stroke-linecap="round" stroke-linejoin="round"/>
    <path d="M 65.75468444824219 175.53524780273438 C 65.75468444824219 175.53524780273438 65.75468444824219 175.53524780273438 65.75468444824219 175.53524780273438 C 65.71524047851562 175.66310119628906 65.676513671875 175.79022216796875 65.63778686523438 175.91807556152344 C 65.63778686523438 175.91807556152344 65.63778686523438 175.91807556152344 65.63778686523438 175.91807556152344 C 65.676513671875 175.79022216796875 65.71524047851562 175.66310119628906 65.75468444824219 175.53524780273438 C 65.75468444824219 175.53524780273438 65.75468444824219 175.53524780273438 65.75468444824219 175.53524780273438" stroke-width="0.0" fill="rgb(255, 159, 49)" opacity="1.0" stroke="rgb(0, 0, 0)" stroke-opacity="1.0" stroke-linecap="round" stroke-linejoin="round"/>
    <path d="M 107.88528442382812 143.96177673339844 C 107.88528442382812 143.96177673339844 107.88528442382812 143.96177673339844 107.88528442382812 143.96177673339844 C 102.32105255126953 144.4461669921875 96.96578216552734 145.63119506835938 91.7632064819336 147.67831420898438 C 91.7632064819336 154.76876831054688 91.7632064819336 161.8592071533203 91.7632064819336 168.94964599609375 C 105.15284729003906 168.94964599609375 118.54249572753906 168.94964599609375 131.93141174316406 168.94964599609375 C 131.93141174316406 161.8139190673828 131.93141174316406 154.67889404296875 131.93141174316406 147.54388427734375 C 126.83477783203125 145.57713317871094 121.5883560180664 144.43446350097656 116.15125274658203 143.96177673339844 C 113.39617156982422 143.96177673339844 110.6403579711914 143.96177673339844 107.88528442382812 143.96177673339844" stroke-width="0.0" fill="rgb(254, 254, 254)" opacity="1.0" stroke="rgb(0, 0, 0)" stroke-opacity="1.0" stroke-linecap="round" stroke-linejoin="round"/>
    <path d="M 112.00146484375 150.0001678466797 C 112.00146484375 150.0001678466797 112.00146484375 150.0001678466797 112.00146484375 150.0001678466797 C 113.0169906616211 150.27560424804688 113.52183532714844 150.1930389404297 114.1026611328125 151.2063751220703 C 115.01517486572266 152.7998046875 113.86375427246094 154.87908935546875 112.00146484375 154.8695831298828 C 110.15889739990234 154.86082458496094 109.04035949707031 152.79104614257812 109.93167877197266 151.2187957763672 C 110.50081634521484 150.2135009765625 110.99835205078125 150.2872772216797 112.00146484375 150.0001678466797 C 112.00146484375 150.0001678466797 112.00146484375 150.0001678466797 112.00146484375 150.0001678466797" stroke-width="0.0" fill="rgb(254, 254, 254)" opacity="1.0" stroke="rgb(0, 0, 0)" stroke-opacity="1.0" stroke-linecap="round" stroke-linejoin="round"/>
    <path d="M 112.00146484375 158.8140869140625 C 112.00146484375 158.8140869140625 112.00146484375 158.8140869140625 112.00146484375 158.8140869140625 C 113.0169906616211 159.08950805664062 113.52183532714844 159.0069580078125 114.1026611328125 160.02029418945312 C 115.01298522949219 161.61007690429688 113.8659439086914 163.6981201171875 112.00146484375 163.68350219726562 C 110.16693878173828 163.6688995361328 109.06665802001953 161.59765625 109.94483947753906 160.03782653808594 C 110.50958251953125 159.0354461669922 111.00347137451172 159.1055908203125 112.00146484375 158.8140869140625 C 112.00146484375 158.8140869140625 112.00146484375 158.8140869140625 112.00146484375 158.8140869140625" stroke-width="0.0" fill="rgb(254, 254, 254)" opacity="1.0" stroke="rgb(0, 0, 0)" stroke-opacity="1.0" stroke-linecap="round" stroke-linejoin="round"/>
    <path d="M 79.12168884277344 155.33717346191406 C 79.12168884277344 155.33717346191406 79.12168884277344 155.33717346191406 79.12168884277344 155.33717346191406 C 72.44622802734375 161.1885223388672 67.92163848876953 168.536865234375 65.30902099609375 176.9906005859375 C 65.30902099609375 176.9906005859375 65.30902099609375 176.9906005859375 65.30902099609375 176.9906005859375 C 69.69479370117188 179.9875030517578 74.28002166748047 182.5599365234375 79.1238784790039 184.7407684326172 C 79.1238784790039 174.94346618652344 79.1238784790039 165.14614868164062 79.1238784790039 155.34886169433594 C 79.1238784790039 155.34886169433594 79.12168884277344 155.33717346191406 79.12168884277344 155.33717346191406" stroke-width="0.0" fill="rgb(254, 254, 254)" opacity="1.0" stroke="rgb(0, 0, 0)" stroke-opacity="1.0" stroke-linecap="round" stroke-linejoin="round"/>
    <path d="M 144.7080841064453 155.1662139892578 C 144.7080841064453 165.0511932373047 144.7080841064453 174.9354248046875 144.7080841064453 184.82040405273438 C 145.85513305664062 184.33016967773438 146.97879028320312 183.79757690429688 148.10171508789062 183.25473022460938 C 148.22299194335938 183.19482421875 148.34353637695312 183.13491821289062 148.46408081054688 183.07501220703125 C 150.1678466796875 182.20632934570312 151.84091186523438 181.29672241210938 153.49644470214844 180.33966064453125 C 153.57388305664062 180.2936248779297 153.6520538330078 180.24758911132812 153.72950744628906 180.20230102539062 C 155.4244842529297 179.17872619628906 157.08148193359375 178.110595703125 158.713623046875 176.9906005859375 C 158.713623046875 176.9906005859375 158.713623046875 176.9906005859375 158.713623046875 176.9906005859375 C 156.99453735351562 171.3408966064453 154.42501831054688 166.1105499267578 150.7830047607422 161.44715881347656 C 150.71286010742188 161.35946655273438 150.64273071289062 161.2718048095703 150.57260131835938 161.1848602294922 C 148.77532958984375 159.0054931640625 146.8399658203125 157.01608276367188 144.7080841064453 155.1662139892578 C 144.7080841064453 155.1662139892578 144.7080841064453 155.1662139892578 144.7080841064453 155.1662139892578" stroke-width="0.0" fill="rgb(254, 254, 254)" opacity="1.0" stroke="rgb(0, 0, 0)" stroke-opacity="1.0" stroke-linecap="round" stroke-linejoin="round"/>
    <path d="M 112.00146484375 150.0001678466797 C 112.00146484375 150.0001678466797 112.00146484375 150.0001678466797 112.00146484375 150.0001678466797 C 110.9852066040039 150.2748565673828 110.47889709472656 150.1930389404297 109.89807891845703 151.2063751220703 C 108.97972106933594 152.80783081054688 110.14136505126953 154.8695831298828 112.00146484375 154.8695831298828 C 113.86083221435547 154.8695831298828 115.01882934570312 152.80564880371094 114.1026611328125 151.2063751220703 C 113.52183532714844 150.1930389404297 113.0169906616211 150.27560424804688 112.00146484375 150.0001678466797 C 112.00146484375 150.0001678466797 112.00146484375 150.0001678466797 112.00146484375 150.0001678466797" stroke-width="0.0" fill="rgb(255, 159, 49)" opacity="1.0" stroke="rgb(0, 0, 0)" stroke-opacity="1.0" stroke-linecap="round" stroke-linejoin="round"/>
    <path d="M 112.00146484375 158.8140869140625 C 112.00146484375 158.8140869140625 112.00146484375 158.8140869140625 112.00146484375 158.8140869140625 C 110.9852066040039 159.08877563476562 110.47889709472656 159.0069580078125 109.89807891845703 160.02029418945312 C 108.97972106933594 161.62176513671875 110.14136505126953 163.68350219726562 112.00146484375 163.68350219726562 C 113.86156463623047 163.68350219726562 115.01882934570312 161.62030029296875 114.1026611328125 160.02029418945312 C 113.52183532714844 159.0069580078125 113.0169906616211 159.08950805664062 112.00146484375 158.8140869140625 C 112.00146484375 158.8140869140625 112.00146484375 158.8140869140625 112.00146484375 158.8140869140625" stroke-width="0.0" fill="rgb(255, 159, 49)" opacity="1.0" stroke="rgb(0, 0, 0)" stroke-opacity="1.0" stroke-linecap="round" stroke-linejoin="round"/>
  </g>
</svg>
