<?xml version="1.0" ?>
<svg xmlns="http://www.w3.org/2000/svg" version="1.1" width="224" height="224">
  <defs/>
  <g>
    <path d="M 112.2404556274414 27.99999237060547 C 112.2404556274414 27.99999237060547 112.2404556274414 27.99999237060547 112.2404556274414 27.99999237060547 C 121.76229095458984 28.0870361328125 131.1705322265625 29.61168670654297 140.1465301513672 32.83357238769531 C 162.92916870117188 41.01073455810547 181.37905883789062 59.30425262451172 189.75758361816406 82.01237487792969 C 192.87472534179688 90.46025085449219 194.47976684570312 99.30938720703125 194.8087615966797 108.29571533203125 C 194.8087615966797 109.83363342285156 194.8087615966797 111.37081909179688 194.8087615966797 112.90873718261719 C 193.84690856933594 139.1773223876953 180.8317413330078 163.2050323486328 159.40115356445312 178.41384887695312 C 159.40115356445312 178.41384887695312 159.40115356445312 178.41384887695312 159.40115356445312 178.41384887695312 C 157.94805908203125 173.76025390625 156.03173828125 169.317626953125 153.2701416015625 165.2769775390625 C 144.8650360107422 152.97950744628906 131.03407287597656 146.34542846679688 116.43083190917969 145.08631896972656 C 113.6485595703125 145.08631896972656 110.86701965332031 145.08631896972656 108.08475494384766 145.08631896972656 C 92.87445068359375 146.4007568359375 78.29924011230469 153.6300811767578 70.1596908569336 166.9358673095703 C 67.95201873779297 170.5442657470703 66.34181213378906 174.38870239257812 65.10041046142578 178.42344665527344 C 65.10041046142578 178.42344665527344 65.10041046142578 178.42344665527344 65.10041046142578 178.42344665527344 C 56.009342193603516 171.97523498535156 48.19876480102539 163.93600463867188 42.257301330566406 154.4857177734375 C 37.02910614013672 146.16912841796875 33.30785369873047 136.9239044189453 31.3310546875 127.30101776123047 C 29.584388732910156 118.79930114746094 29.191238403320312 110.02172088623047 30.147186279296875 101.39608764648438 C 33.40522003173828 72.00224304199219 52.863426208496094 46.00732421875 80.08942413330078 34.49098205566406 C 90.28912353515625 30.17742919921875 101.18586730957031 28.101783752441406 112.2404556274414 27.99999237060547 C 112.2404556274414 27.99999237060547 112.2404556274414 27.99999237060547 112.2404556274414 27.99999237060547" stroke-width="0.0" fill="rgb(160, 217, 246)" opacity="1.0" stroke="rgb(0, 0, 0)" stroke-opacity="1.0" stroke-linecap="round" stroke-linejoin="round"/>
    <path d="M 112.2404556274414 67.28964233398438 C 112.2404556274414 67.28964233398438 112.2404556274414 67.28964233398438 112.2404556274414 67.28964233398438 C 97.4793701171875 66.63390350341797 82.92774963378906 76.53044128417969 76.74287414550781 89.71009826660156 C 74.14205932617188 95.25177001953125 73.19422912597656 101.1718521118164 73.36830139160156 107.25640869140625 C 73.36830139160156 107.25640869140625 73.36830139160156 107.25640869140625 73.36830139160156 107.25640869140625 C 71.17317199707031 107.3368148803711 69.08941650390625 107.5426025390625 67.06466674804688 108.46905517578125 C 59.31826400756836 112.0140151977539 58.299625396728516 122.16281127929688 56.94979476928711 129.50057983398438 C 56.42166519165039 132.36915588378906 55.97835922241211 135.4663848876953 54.08712387084961 137.78912353515625 C 54.08712387084961 137.78912353515625 54.08712387084961 137.78912353515625 54.08712387084961 137.78912353515625 C 58.029659271240234 139.0474853515625 61.94490432739258 137.97279357910156 65.438232421875 135.91928100585938 C 70.87960052490234 132.7202606201172 74.92318725585938 127.54812622070312 76.45816040039062 121.42816162109375 C 76.45816040039062 121.42816162109375 76.45816040039062 121.42816162109375 76.45816040039062 121.42816162109375 C 79.04939270019531 127.19332885742188 82.74040222167969 132.2909698486328 87.65363311767578 136.3065185546875 C 102.20967102050781 148.20126342773438 123.87554931640625 147.7786102294922 137.96615600585938 135.34100341796875 C 142.36380004882812 131.4596710205078 145.6734619140625 126.6902847290039 148.05743408203125 121.35365295410156 C 148.05743408203125 121.35365295410156 148.05743408203125 121.35365295410156 148.05743408203125 121.35365295410156 C 149.55477905273438 127.50682067871094 153.58509826660156 132.7217254638672 159.0330810546875 135.95469665527344 C 162.52420043945312 138.02590942382812 166.4453582763672 139.11683654785156 170.393798828125 137.84666442871094 C 170.393798828125 137.84666442871094 170.393798828125 137.84666442871094 170.393798828125 137.84666442871094 C 168.50772094726562 135.51950073242188 168.06883239746094 132.4200439453125 167.54367065429688 129.5507354736328 C 166.20120239257812 122.21666717529297 165.19509887695312 112.04499816894531 157.46788024902344 108.47937774658203 C 155.45272827148438 107.54924774169922 153.37782287597656 107.33976745605469 151.1907958984375 107.25640869140625 C 151.1907958984375 107.25640869140625 151.1907958984375 107.25640869140625 151.1907958984375 107.25640869140625 C 151.36856079101562 101.17111206054688 150.4207305908203 95.25103759765625 147.81622314453125 89.71009826660156 C 141.61216735839844 76.51200866699219 127.01850891113281 66.6346435546875 112.2404556274414 67.28964233398438 C 112.2404556274414 67.28964233398438 112.2404556274414 67.28964233398438 112.2404556274414 67.28964233398438" stroke-width="0.0" fill="rgb(160, 217, 246)" opacity="1.0" stroke="rgb(0, 0, 0)" stroke-opacity="1.0" stroke-linecap="round" stroke-linejoin="round"/>
    <path d="M 112.23751068115234 67.28964233398438 C 112.23751068115234 73.43173217773438 112.23751068115234 79.5730972290039 112.23751068115234 85.71519470214844 C 115.1267318725586 96.31172180175781 124.25099182128906 104.4202880859375 134.47872924804688 107.89813995361328 C 139.92672729492188 109.75028228759766 145.9168701171875 110.25701904296875 151.0956573486328 107.40910339355469 C 151.0956573486328 107.40910339355469 151.0956573486328 107.40910339355469 151.0956573486328 107.40910339355469 C 150.85519409179688 112.26553344726562 149.86973571777344 116.84463500976562 148.05447387695312 121.35661315917969 C 148.05447387695312 121.35661315917969 148.05447387695312 121.35661315917969 148.05447387695312 121.35661315917969 C 149.5518341064453 127.509033203125 153.58213806152344 132.7246856689453 159.03013610839844 135.95689392089844 C 162.52200317382812 138.02810668945312 166.44241333007812 139.11756896972656 170.39083862304688 137.84666442871094 C 170.39083862304688 137.84666442871094 170.39083862304688 137.84666442871094 170.39083862304688 137.84666442871094 C 168.3978271484375 135.43392944335938 167.9936065673828 132.07632446289062 167.4558868408203 129.09046936035156 C 166.10162353515625 121.5801010131836 164.86170959472656 111.10453796386719 156.51266479492188 108.08843994140625 C 154.75790405273438 107.454833984375 153.0296630859375 107.33534240722656 151.1848907470703 107.25640869140625 C 151.1848907470703 107.25640869140625 151.1848907470703 107.25640869140625 151.1848907470703 107.25640869140625 C 151.3641357421875 101.1718521118164 150.4170379638672 95.25103759765625 147.81326293945312 89.71009826660156 C 141.61068725585938 76.51126861572266 127.01556396484375 66.6346435546875 112.23751068115234 67.28964233398438 C 112.23751068115234 67.28964233398438 112.23751068115234 67.28964233398438 112.23751068115234 67.28964233398438" stroke-width="0.0" fill="rgb(252, 186, 111)" opacity="1.0" stroke="rgb(0, 0, 0)" stroke-opacity="1.0" stroke-linecap="round" stroke-linejoin="round"/>
    <path d="M 112.2404556274414 85.71223449707031 C 112.2404556274414 85.71298217773438 112.2404556274414 85.71446228027344 112.2404556274414 85.71519470214844 C 109.3600845336914 96.32647705078125 100.22623443603516 104.45643615722656 89.98006439208984 107.9232177734375 C 84.52984619140625 109.76724243164062 78.53749084472656 110.25554656982422 73.37936401367188 107.36558532714844 C 73.37936401367188 107.36558532714844 73.37936401367188 107.36558532714844 73.37936401367188 107.36558532714844 C 73.66482543945312 113.20893859863281 74.99842834472656 118.85167694091797 77.7025146484375 124.06437683105469 C 79.92051696777344 128.34031677246094 82.9388198852539 132.192138671875 86.55311584472656 135.3749237060547 C 90.18585968017578 138.57321166992188 94.41163635253906 141.08773803710938 98.96122741699219 142.73997497558594 C 116.62703704833984 149.15646362304688 136.8885040283203 141.62176513671875 146.12339782714844 125.27701568603516 C 149.23760986328125 119.76557922363281 150.78659057617188 113.7031478881836 151.09860229492188 107.4061508178711 C 151.09860229492188 107.4061508178711 151.09860229492188 107.4061508178711 151.09860229492188 107.4061508178711 C 145.91981506347656 110.25407409667969 139.9296875 109.74732971191406 134.48167419433594 107.89518737792969 C 124.25395202636719 104.41734313964844 115.12968444824219 96.30877685546875 112.2404556274414 85.71223449707031 C 112.2404556274414 85.71223449707031 112.2404556274414 85.71223449707031 112.2404556274414 85.71223449707031" stroke-width="0.0" fill="rgb(252, 233, 234)" opacity="1.0" stroke="rgb(0, 0, 0)" stroke-opacity="1.0" stroke-linecap="round" stroke-linejoin="round"/>
    <path d="M 112.2404556274414 67.28668975830078 C 112.2404556274414 67.28668975830078 112.2404556274414 67.28668975830078 112.2404556274414 67.28668975830078 C 97.47862243652344 66.63095092773438 82.92774963378906 76.52822875976562 76.74287414550781 89.70714569091797 C 74.14205932617188 95.24882507324219 73.19422912597656 101.16889953613281 73.36830139160156 107.25346374511719 C 73.36830139160156 107.25346374511719 73.36830139160156 107.25346374511719 73.36830139160156 107.25346374511719 C 71.51689910888672 107.33016967773438 69.78056335449219 107.44598388671875 68.01840209960938 108.07737731933594 C 59.65093231201172 111.07135009765625 58.39404296875 121.51962280273438 57.03314971923828 129.03662109375 C 56.49247741699219 132.02247619628906 56.08457565307617 135.37713623046875 54.08712387084961 137.7861785888672 C 54.08712387084961 137.7861785888672 54.08712387084961 137.7861785888672 54.08712387084961 137.7861785888672 C 58.029659271240234 139.04454040527344 61.945640563964844 137.9698486328125 65.43897247314453 135.9163360595703 C 70.88034057617188 132.71730041503906 74.9239273071289 127.54590606689453 76.45816040039062 121.42520141601562 C 76.45816040039062 121.42520141601562 76.45816040039062 121.42520141601562 76.45816040039062 121.42520141601562 C 74.6156005859375 116.87857055664062 73.61909484863281 112.26184844970703 73.37936401367188 107.36263275146484 C 73.37936401367188 107.36263275146484 73.37936401367188 107.36263275146484 73.37936401367188 107.36263275146484 C 78.5360107421875 110.25333404541016 84.52910614013672 109.76429748535156 89.97858428955078 107.9202651977539 C 100.22476196289062 104.4534912109375 109.35787200927734 96.32279205322266 112.2404556274414 85.71223449707031 C 112.2404556274414 79.57014465332031 112.2404556274414 73.42878723144531 112.2404556274414 67.28668975830078" stroke-width="0.0" fill="rgb(254, 207, 119)" opacity="1.0" stroke="rgb(0, 0, 0)" stroke-opacity="1.0" stroke-linecap="round" stroke-linejoin="round"/>
    <path d="M 92.71217346191406 148.47860717773438 C 92.71217346191406 148.47860717773438 92.71217346191406 148.47860717773438 92.71217346191406 148.47860717773438 C 92.41270446777344 148.5973663330078 92.11323547363281 148.7161102294922 91.81376647949219 148.83413696289062 C 91.81376647949219 155.994140625 91.81376647949219 163.1541290283203 91.81376647949219 170.3141326904297 C 105.32903289794922 170.3141326904297 118.84355926513672 170.3141326904297 132.35882568359375 170.3141326904297 C 132.35882568359375 163.10618591308594 132.35882568359375 155.89898681640625 132.35882568359375 148.6917724609375 C 137.05226135253906 150.63833618164062 141.3119659423828 153.1572723388672 145.2412109375 156.38064575195312 C 145.2412109375 166.36126708984375 145.2412109375 176.34190368652344 145.2412109375 186.32327270507812 C 146.44943237304688 185.78701782226562 147.6517333984375 185.24266052246094 148.83782958984375 184.65847778320312 C 148.83782958984375 184.65847778320312 148.83782958984375 184.65847778320312 148.83782958984375 184.65847778320312 C 125.81473541259766 196.0 98.68241119384766 195.8192901611328 75.64604949951172 184.6614227294922 C 75.64604949951172 184.6614227294922 75.64604949951172 184.6614227294922 75.64604949951172 184.6614227294922 C 76.7657470703125 185.20135498046875 77.89134216308594 185.7228546142578 79.02651977539062 186.22958374023438 C 79.02651977539062 176.34706115722656 79.02651977539062 166.46453857421875 79.02651977539062 156.58274841308594 C 83.16600036621094 153.14178466796875 87.70600891113281 150.45835876464844 92.71217346191406 148.47860717773438 C 92.71217346191406 148.47860717773438 92.71217346191406 148.47860717773438 92.71217346191406 148.47860717773438" stroke-width="0.0" fill="rgb(244, 179, 179)" opacity="1.0" stroke="rgb(0, 0, 0)" stroke-opacity="1.0" stroke-linecap="round" stroke-linejoin="round"/>
    <path d="M 65.56953430175781 176.8995361328125 C 65.56953430175781 176.8995361328125 65.56953430175781 176.8995361328125 65.56953430175781 176.8995361328125 C 65.50978088378906 177.09352111816406 65.45003509521484 177.2875213623047 65.39102935791016 177.4822540283203 C 65.39102935791016 177.4822540283203 65.39102935791016 177.4822540283203 65.39102935791016 177.4822540283203 C 65.45003509521484 177.2875213623047 65.50978088378906 177.09352111816406 65.56953430175781 176.8995361328125 C 65.56953430175781 176.8995361328125 65.56953430175781 176.8995361328125 65.56953430175781 176.8995361328125" stroke-width="0.0" fill="rgb(244, 179, 179)" opacity="1.0" stroke="rgb(0, 0, 0)" stroke-opacity="1.0" stroke-linecap="round" stroke-linejoin="round"/>
    <path d="M 101.56204986572266 145.9618682861328 C 101.56204986572266 145.9618682861328 101.56204986572266 145.9618682861328 101.56204986572266 145.9618682861328 C 101.20135498046875 146.03268432617188 100.83992767333984 146.10423278808594 100.47923278808594 146.175048828125 C 100.47923278808594 146.175048828125 100.47923278808594 146.175048828125 100.47923278808594 146.175048828125 C 100.83992767333984 146.10423278808594 101.20135498046875 146.03268432617188 101.56204986572266 145.9618682861328 C 101.56204986572266 145.9618682861328 101.56204986572266 145.9618682861328 101.56204986572266 145.9618682861328" stroke-width="0.0" fill="rgb(244, 179, 179)" opacity="1.0" stroke="rgb(0, 0, 0)" stroke-opacity="1.0" stroke-linecap="round" stroke-linejoin="round"/>
    <path d="M 69.14916229248047 168.65818786621094 C 69.14916229248047 168.65818786621094 69.14916229248047 168.65818786621094 69.14916229248047 168.65818786621094 C 69.05032348632812 168.84259033203125 68.95147705078125 169.02626037597656 68.85264587402344 169.21066284179688 C 68.85264587402344 169.21066284179688 68.85264587402344 169.21066284179688 68.85264587402344 169.21066284179688 C 68.95147705078125 169.02626037597656 69.05032348632812 168.84259033203125 69.14916229248047 168.65818786621094 C 69.14916229248047 168.65818786621094 69.14916229248047 168.65818786621094 69.14916229248047 168.65818786621094" stroke-width="0.0" fill="rgb(244, 179, 179)" opacity="1.0" stroke="rgb(0, 0, 0)" stroke-opacity="1.0" stroke-linecap="round" stroke-linejoin="round"/>
    <path d="M 130.1998291015625 147.88555908203125 C 130.1998291015625 147.88555908203125 130.1998291015625 147.88555908203125 130.1998291015625 147.88555908203125 C 130.4004669189453 147.9563751220703 130.60110473632812 148.0271759033203 130.80099487304688 148.09872436523438 C 130.60110473632812 148.0271759033203 130.4004669189453 147.9563751220703 130.1998291015625 147.88555908203125" stroke-width="0.0" fill="rgb(244, 179, 179)" opacity="1.0" stroke="rgb(0, 0, 0)" stroke-opacity="1.0" stroke-linecap="round" stroke-linejoin="round"/>
    <path d="M 96.58611297607422 147.16270446777344 C 96.58611297607422 147.16270446777344 96.58611297607422 147.16270446777344 96.58611297607422 147.16270446777344 C 96.17969512939453 147.28956604003906 95.77326965332031 147.4156951904297 95.3668441772461 147.54257202148438 C 95.3668441772461 147.54257202148438 95.3668441772461 147.54257202148438 95.3668441772461 147.54257202148438 C 95.77326965332031 147.4156951904297 96.17969512939453 147.28956604003906 96.58611297607422 147.16270446777344 C 96.58611297607422 147.16270446777344 96.58611297607422 147.16270446777344 96.58611297607422 147.16270446777344" stroke-width="0.0" fill="rgb(244, 179, 179)" opacity="1.0" stroke="rgb(0, 0, 0)" stroke-opacity="1.0" stroke-linecap="round" stroke-linejoin="round"/>
    <path d="M 150.33517456054688 161.4355010986328 C 150.33517456054688 161.4355010986328 150.33517456054688 161.4355010986328 150.33517456054688 161.4355010986328 C 150.49008178710938 161.62136840820312 150.6442413330078 161.80799865722656 150.79913330078125 161.99386596679688 C 150.79913330078125 161.99386596679688 150.79913330078125 161.99386596679688 150.79913330078125 161.99386596679688 C 150.6442413330078 161.80799865722656 150.49008178710938 161.62136840820312 150.33517456054688 161.4355010986328 C 150.33517456054688 161.4355010986328 150.33517456054688 161.4355010986328 150.33517456054688 161.4355010986328" stroke-width="0.0" fill="rgb(244, 179, 179)" opacity="1.0" stroke="rgb(0, 0, 0)" stroke-opacity="1.0" stroke-linecap="round" stroke-linejoin="round"/>
    <path d="M 118.70932006835938 145.30465698242188 C 118.70932006835938 145.30465698242188 118.70932006835938 145.30465698242188 118.70932006835938 145.30465698242188 C 118.9217529296875 145.3319549560547 119.13491821289062 145.35850524902344 119.34808349609375 145.3850555419922 C 119.34808349609375 145.3850555419922 119.34808349609375 145.3850555419922 119.34808349609375 145.3850555419922 C 119.13491821289062 145.35850524902344 118.9217529296875 145.3319549560547 118.70932006835938 145.30465698242188 C 118.70932006835938 145.30465698242188 118.70932006835938 145.30465698242188 118.70932006835938 145.30465698242188" stroke-width="0.0" fill="rgb(244, 179, 179)" opacity="1.0" stroke="rgb(0, 0, 0)" stroke-opacity="1.0" stroke-linecap="round" stroke-linejoin="round"/>
    <path d="M 74.19515991210938 161.4155731201172 C 74.19515991210938 161.4155731201172 74.19515991210938 161.4155731201172 74.19515991210938 161.4155731201172 C 74.01961517333984 161.6265411376953 73.84332275390625 161.83749389648438 73.66777038574219 162.04844665527344 C 73.66777038574219 162.04844665527344 73.66777038574219 162.04844665527344 73.66777038574219 162.04844665527344 C 73.84332275390625 161.83749389648438 74.01961517333984 161.6265411376953 74.19515991210938 161.4155731201172 C 74.19515991210938 161.4155731201172 74.19515991210938 161.4155731201172 74.19515991210938 161.4155731201172" stroke-width="0.0" fill="rgb(244, 179, 179)" opacity="1.0" stroke="rgb(0, 0, 0)" stroke-opacity="1.0" stroke-linecap="round" stroke-linejoin="round"/>
    <path d="M 157.12046813964844 172.1913604736328 C 157.12046813964844 172.1913604736328 157.12046813964844 172.1913604736328 157.12046813964844 172.1913604736328 C 157.2554473876953 172.49893188476562 157.39117431640625 172.8057861328125 157.52615356445312 173.11337280273438 C 157.52615356445312 173.11337280273438 157.52615356445312 173.11337280273438 157.52615356445312 173.11337280273438 C 157.39117431640625 172.8057861328125 157.2554473876953 172.49893188476562 157.12046813964844 172.1913604736328 C 157.12046813964844 172.1913604736328 157.12046813964844 172.1913604736328 157.12046813964844 172.1913604736328" stroke-width="0.0" fill="rgb(244, 179, 179)" opacity="1.0" stroke="rgb(0, 0, 0)" stroke-opacity="1.0" stroke-linecap="round" stroke-linejoin="round"/>
    <path d="M 147.14425659179688 158.08010864257812 C 147.14425659179688 158.08010864257812 147.14425659179688 158.08010864257812 147.14425659179688 158.08010864257812 C 147.3109588623047 158.2386932373047 147.4769287109375 158.39727783203125 147.64288330078125 158.55584716796875 C 147.64288330078125 158.55584716796875 147.64288330078125 158.55584716796875 147.64288330078125 158.55584716796875 C 147.4769287109375 158.39727783203125 147.3109588623047 158.2386932373047 147.14425659179688 158.08010864257812 C 147.14425659179688 158.08010864257812 147.14425659179688 158.08010864257812 147.14425659179688 158.08010864257812" stroke-width="0.0" fill="rgb(244, 179, 179)" opacity="1.0" stroke="rgb(0, 0, 0)" stroke-opacity="1.0" stroke-linecap="round" stroke-linejoin="round"/>
    <path d="M 67.28300476074219 172.42149353027344 C 67.28300476074219 172.42149353027344 67.28300476074219 172.42149353027344 67.28300476074219 172.42149353027344 C 67.19818115234375 172.615478515625 67.11260986328125 172.80947875976562 67.02705383300781 173.0034637451172 C 67.02705383300781 173.0034637451172 67.02705383300781 173.0034637451172 67.02705383300781 173.0034637451172 C 67.11260986328125 172.80947875976562 67.19818115234375 172.615478515625 67.28300476074219 172.42149353027344 C 67.28300476074219 172.42149353027344 67.28300476074219 172.42149353027344 67.28300476074219 172.42149353027344" stroke-width="0.0" fill="rgb(244, 179, 179)" opacity="1.0" stroke="rgb(0, 0, 0)" stroke-opacity="1.0" stroke-linecap="round" stroke-linejoin="round"/>
    <path d="M 148.8636474609375 159.79946899414062 C 148.8636474609375 159.79946899414062 148.8636474609375 159.79946899414062 148.8636474609375 159.79946899414062 C 148.9337158203125 159.87249755859375 149.0037841796875 159.94552612304688 149.0738525390625 160.01853942871094 C 149.0738525390625 160.01853942871094 149.0738525390625 160.01853942871094 149.0738525390625 160.01853942871094 C 149.0037841796875 159.94552612304688 148.9337158203125 159.87249755859375 148.8636474609375 159.79946899414062 C 148.8636474609375 159.79946899414062 148.8636474609375 159.79946899414062 148.8636474609375 159.79946899414062" stroke-width="0.0" fill="rgb(244, 179, 179)" opacity="1.0" stroke="rgb(0, 0, 0)" stroke-opacity="1.0" stroke-linecap="round" stroke-linejoin="round"/>
    <path d="M 128.134521484375 147.21728515625 C 128.134521484375 147.21728515625 128.134521484375 147.21728515625 128.134521484375 147.21728515625 C 128.30638122558594 147.27113342285156 128.47824096679688 147.32498168945312 128.65011596679688 147.37881469726562 C 128.65011596679688 147.37881469726562 128.65011596679688 147.37881469726562 128.65011596679688 147.37881469726562 C 128.47824096679688 147.32498168945312 128.30638122558594 147.27113342285156 128.134521484375 147.21728515625 C 128.134521484375 147.21728515625 128.134521484375 147.21728515625 128.134521484375 147.21728515625" stroke-width="0.0" fill="rgb(244, 179, 179)" opacity="1.0" stroke="rgb(0, 0, 0)" stroke-opacity="1.0" stroke-linecap="round" stroke-linejoin="round"/>
    <path d="M 108.08475494384766 145.08631896972656 C 108.08475494384766 145.08631896972656 108.08475494384766 145.08631896972656 108.08475494384766 145.08631896972656 C 102.47078704833984 145.5694580078125 97.05597686767578 146.77029418945312 91.8108139038086 148.83560180664062 C 91.8108139038086 155.994873046875 91.8108139038086 163.1541290283203 91.8108139038086 170.3141326904297 C 105.32682037353516 170.3141326904297 118.84282684326172 170.3141326904297 132.35882568359375 170.3141326904297 C 132.35882568359375 163.10618591308594 132.35882568359375 155.89898681640625 132.35882568359375 148.6917724609375 C 127.22283935546875 146.70907592773438 121.91128540039062 145.55543518066406 116.43083190917969 145.08631896972656 C 113.6485595703125 145.08631896972656 110.86701965332031 145.08631896972656 108.08475494384766 145.08631896972656" stroke-width="0.0" fill="rgb(254, 254, 254)" opacity="1.0" stroke="rgb(0, 0, 0)" stroke-opacity="1.0" stroke-linecap="round" stroke-linejoin="round"/>
    <path d="M 112.2404556274414 151.1627655029297 C 112.2404556274414 151.1627655029297 112.2404556274414 151.1627655029297 112.2404556274414 151.1627655029297 C 113.26573944091797 151.44012451171875 113.77542877197266 151.3567657470703 114.36183166503906 152.37982177734375 C 115.28679656982422 153.9951934814453 114.11842346191406 156.07821655273438 112.2404556274414 156.07821655273438 C 110.36323547363281 156.07821655273438 109.189697265625 153.99815368652344 110.11687469482422 152.38131713867188 C 110.70401000976562 151.3567657470703 111.21369934082031 151.44012451171875 112.2404556274414 151.1627655029297 C 112.2404556274414 151.1627655029297 112.2404556274414 151.1627655029297 112.2404556274414 151.1627655029297" stroke-width="0.0" fill="rgb(254, 254, 254)" opacity="1.0" stroke="rgb(0, 0, 0)" stroke-opacity="1.0" stroke-linecap="round" stroke-linejoin="round"/>
    <path d="M 112.2404556274414 160.08123779296875 C 112.2404556274414 160.08123779296875 112.2404556274414 160.08123779296875 112.2404556274414 160.08123779296875 C 113.26573944091797 160.35858154296875 113.77542877197266 160.27597045898438 114.36183166503906 161.2982940673828 C 115.28753662109375 162.91293334960938 114.11768341064453 164.99742126464844 112.2404556274414 164.99742126464844 C 110.36323547363281 164.99742126464844 109.18895721435547 162.91514587402344 110.11687469482422 161.2982940673828 C 110.70401000976562 160.27523803710938 111.21443939208984 160.35858154296875 112.2404556274414 160.08123779296875 C 112.2404556274414 160.08123779296875 112.2404556274414 160.08123779296875 112.2404556274414 160.08123779296875" stroke-width="0.0" fill="rgb(254, 254, 254)" opacity="1.0" stroke="rgb(0, 0, 0)" stroke-opacity="1.0" stroke-linecap="round" stroke-linejoin="round"/>
    <path d="M 79.02651977539062 156.58274841308594 C 79.02430725097656 156.584228515625 79.0213623046875 156.58642578125 79.01841735839844 156.58865356445312 C 72.27885437011719 162.5072479248047 67.727783203125 169.88409423828125 65.10041046142578 178.4263916015625 C 65.16532135009766 178.47137451171875 65.23096466064453 178.51637268066406 65.2958755493164 178.56137084960938 C 69.65885162353516 181.52362060546875 74.21212768554688 184.07945251464844 79.02651977539062 186.23106384277344 C 79.02651977539062 176.34779357910156 79.02651977539062 166.46527099609375 79.02651977539062 156.58274841308594" stroke-width="0.0" fill="rgb(254, 254, 254)" opacity="1.0" stroke="rgb(0, 0, 0)" stroke-opacity="1.0" stroke-linecap="round" stroke-linejoin="round"/>
    <path d="M 145.2412109375 156.36367797851562 C 145.2412109375 166.34947204589844 145.2412109375 176.33453369140625 145.2412109375 186.3203125 C 150.21051025390625 184.1163330078125 154.9076385498047 181.48452758789062 159.39230346679688 178.41163635253906 C 159.39230346679688 178.41163635253906 159.39230346679688 178.41163635253906 159.39230346679688 178.41163635253906 C 157.3306884765625 171.5319366455078 153.913330078125 165.33303833007812 149.0738525390625 160.01853942871094 C 149.0037841796875 159.94552612304688 148.9337158203125 159.87249755859375 148.8636474609375 159.79946899414062 C 147.70706176757812 158.59495544433594 146.49737548828125 157.4634552001953 145.2412109375 156.36367797851562 C 145.2412109375 156.36367797851562 145.2412109375 156.36367797851562 145.2412109375 156.36367797851562" stroke-width="0.0" fill="rgb(254, 254, 254)" opacity="1.0" stroke="rgb(0, 0, 0)" stroke-opacity="1.0" stroke-linecap="round" stroke-linejoin="round"/>
    <path d="M 112.2404556274414 151.1627655029297 C 112.2404556274414 151.1627655029297 112.2404556274414 151.1627655029297 112.2404556274414 151.1627655029297 C 111.21369934082031 151.44012451171875 110.70401000976562 151.3567657470703 110.11687469482422 152.38131713867188 C 109.189697265625 153.99742126464844 110.36249542236328 156.0811767578125 112.2404556274414 156.0811767578125 C 114.11768341064453 156.0811767578125 115.28606414794922 153.9951934814453 114.36183166503906 152.38131713867188 C 113.77468872070312 151.35751342773438 113.2664794921875 151.44085693359375 112.2404556274414 151.1627655029297 C 112.2404556274414 151.1627655029297 112.2404556274414 151.1627655029297 112.2404556274414 151.1627655029297" stroke-width="0.0" fill="rgb(244, 179, 179)" opacity="1.0" stroke="rgb(0, 0, 0)" stroke-opacity="1.0" stroke-linecap="round" stroke-linejoin="round"/>
    <path d="M 112.2404556274414 160.08123779296875 C 112.2404556274414 160.08123779296875 112.2404556274414 160.08123779296875 112.2404556274414 160.08123779296875 C 111.21443939208984 160.35858154296875 110.70401000976562 160.27523803710938 110.11687469482422 161.2982940673828 C 109.18821716308594 162.91514587402344 110.36323547363281 164.99742126464844 112.2404556274414 164.99742126464844 C 114.116943359375 164.99742126464844 115.28753662109375 162.91293334960938 114.36183166503906 161.2982940673828 C 113.77468872070312 160.27597045898438 113.26573944091797 160.35858154296875 112.2404556274414 160.08123779296875 C 112.2404556274414 160.08123779296875 112.2404556274414 160.08123779296875 112.2404556274414 160.08123779296875" stroke-width="0.0" fill="rgb(244, 179, 179)" opacity="1.0" stroke="rgb(0, 0, 0)" stroke-opacity="1.0" stroke-linecap="round" stroke-linejoin="round"/>
  </g>
</svg>
