<?xml version="1.0" ?>
<svg xmlns="http://www.w3.org/2000/svg" version="1.1" width="224" height="224">
  <defs/>
  <g>
    <path d="M 103.09687805175781 28.0 C 103.09687805175781 28.0 103.09687805175781 28.0 103.09687805175781 28.0 C 113.41007232666016 28.10749053955078 123.5530776977539 30.230438232421875 132.929443359375 34.574134826660156 C 141.3824462890625 38.48936080932617 149.03598022460938 44.0766716003418 155.34214782714844 50.932228088378906 C 161.2952117919922 57.40410614013672 166.02334594726562 64.98223876953125 169.22122192382812 73.17398071289062 C 172.24440002441406 80.9185791015625 173.89186096191406 89.18720245361328 174.06504821777344 97.49986267089844 C 174.71298217773438 128.52976989746094 154.33815002441406 157.09112548828125 124.78474426269531 166.5757293701172 C 117.787353515625 168.8218536376953 110.44509887695312 169.97067260742188 103.09687805175781 169.97067260742188 C 72.06845092773438 169.97067260742188 43.945289611816406 149.0135955810547 35.072784423828125 119.2802963256836 C 32.96849060058594 112.22916412353516 31.97119903564453 104.8563003540039 32.124977111816406 97.49986267089844 C 32.29815673828125 89.18720245361328 33.94561004638672 80.9185791015625 36.96880340576172 73.17398071289062 C 40.16667175292969 64.98223876953125 44.894798278808594 57.40410614013672 50.847877502441406 50.932228088378906 C 57.15403747558594 44.0766716003418 64.80831146240234 38.48936080932617 73.26055908203125 34.574134826660156 C 82.63844299316406 30.230438232421875 92.78218841552734 28.10749053955078 103.09687805175781 28.0 C 103.09687805175781 28.0 103.09687805175781 28.0 103.09687805175781 28.0" stroke-width="0.0" fill="rgb(248, 207, 21)" opacity="1.0"/>
    <path d="M 136.20420837402344 74.50865936279297 C 136.20420837402344 74.50865936279297 136.20420837402344 74.50865936279297 136.20420837402344 74.50865936279297 C 145.25213623046875 74.91622924804688 152.51824951171875 82.58917236328125 151.01934814453125 91.88343811035156 C 150.64761352539062 94.1907730102539 149.7115478515625 96.19429016113281 148.4626922607422 98.14481353759766 C 157.2023468017578 128.48423767089844 165.9412384033203 158.8229217529297 174.68087768554688 189.162353515625 C 175.227294921875 192.04373168945312 174.19717407226562 194.01812744140625 171.5143585205078 195.20651245117188 C 170.63128662109375 195.20651245117188 169.7482147216797 195.20651245117188 168.86439514160156 195.20651245117188 C 167.10797119140625 194.4540557861328 166.28834533691406 193.55531311035156 165.5941162109375 191.78170776367188 C 163.8003692626953 185.5614013671875 162.00735473632812 179.34182739257812 160.21359252929688 173.1215057373047 C 144.63929748535156 173.1215057373047 129.06423950195312 173.1215057373047 113.48994445800781 173.1215057373047 C 111.8118896484375 179.32017517089844 110.13382720947266 185.51959228515625 108.45651245117188 191.71826171875 C 107.94294738769531 192.92828369140625 107.4398193359375 193.88375854492188 106.25070190429688 194.56826782226562 C 103.76795196533203 196.0 100.4976806640625 194.86236572265625 99.46605682373047 192.16688537597656 C 98.98234558105469 190.90237426757812 99.17642211914062 190.53884887695312 99.310791015625 189.2295379638672 C 107.54507446289062 158.87965393066406 115.77936553955078 128.52902221679688 124.01364135742188 98.17914581298828 C 122.75808715820312 96.23162078857422 121.81678771972656 94.23033142089844 121.4383316040039 91.92375183105469 C 119.91329956054688 82.63619995117188 127.15851593017578 74.93788146972656 136.20420837402344 74.50865936279297 C 136.20420837402344 74.50865936279297 136.20420837402344 74.50865936279297 136.20420837402344 74.50865936279297" stroke-width="0.0" fill="rgb(41, 58, 86)" opacity="1.0"/>
    <path d="M 178.2534637451172 68.70861053466797 C 178.2534637451172 68.70861053466797 178.2534637451172 68.70861053466797 178.2534637451172 68.70861053466797 C 181.88279724121094 69.26846313476562 184.193115234375 72.80746459960938 186.01524353027344 75.75526428222656 C 191.50924682617188 84.64270782470703 192.02879333496094 96.0099105834961 187.36709594726562 105.36166381835938 C 186.11077880859375 107.88322448730469 184.50364685058594 110.2278823852539 182.6038818359375 112.30903625488281 C 181.40953063964844 113.61759185791016 180.15921020507812 114.72460174560547 178.27735900878906 114.72460174560547 C 175.4288330078125 114.72460174560547 173.1618194580078 112.10076904296875 173.6029815673828 109.26941680908203 C 173.96800231933594 106.92998504638672 176.30369567871094 105.32955932617188 177.56076049804688 103.4484634399414 C 179.8568878173828 100.01172637939453 181.09901428222656 95.91436767578125 181.1012420654297 91.78192138671875 C 181.10348510742188 87.65097045898438 179.8658447265625 83.5536117553711 177.57418823242188 80.1153793334961 C 176.3977508544922 78.3507308959961 174.23748779296875 76.85182189941406 173.62612915039062 74.78485870361328 C 172.64376831054688 71.4600830078125 175.1974334716797 69.06094360351562 178.2534637451172 68.70861053466797 C 178.2534637451172 68.70861053466797 178.2534637451172 68.70861053466797 178.2534637451172 68.70861053466797" stroke-width="0.0" fill="rgb(41, 58, 86)" opacity="1.0"/>
    <path d="M 166.47943115234375 76.88093566894531 C 166.47943115234375 76.88093566894531 166.47943115234375 76.88093566894531 166.47943115234375 76.88093566894531 C 172.25262451171875 83.04376983642578 174.30914306640625 91.78192138671875 171.0045166015625 99.71762084960938 C 169.42724609375 103.50743103027344 164.4930877685547 111.23635864257812 159.75599670410156 106.50599670410156 C 158.25709533691406 105.01007080078125 157.95030212402344 102.6139144897461 159.0155029296875 100.78507232666016 C 159.65672302246094 99.68328094482422 160.70252990722656 98.8748550415039 161.38629150390625 97.79023742675781 C 162.29847717285156 96.34283447265625 162.8792266845703 94.691650390625 163.07330322265625 92.991943359375 C 163.36666870117188 90.42484283447266 162.77174377441406 87.79130554199219 161.39674377441406 85.60191345214844 C 160.4031982421875 84.02090454101562 158.76170349121094 82.9243392944336 158.45416259765625 80.964111328125 C 157.96597290039062 77.85283660888672 160.74134826660156 75.0722427368164 163.85336303710938 75.55371856689453 C 165.1917724609375 75.76123046875 165.41049194335938 76.11207580566406 166.47943115234375 76.88093566894531 C 166.47943115234375 76.88093566894531 166.47943115234375 76.88093566894531 166.47943115234375 76.88093566894531" stroke-width="0.0" fill="rgb(41, 58, 85)" opacity="1.0"/>
    <path d="M 105.74609375 76.93020629882812 C 105.74609375 76.93020629882812 105.74609375 76.93020629882812 105.74609375 76.93020629882812 C 106.81578063964844 76.15985107421875 107.03374481201172 75.80826568603516 108.37290954589844 75.5999984741211 C 111.4931411743164 75.11404418945312 114.26178741455078 77.89089965820312 113.76837921142578 81.00890350341797 C 113.45784759521484 82.97136688232422 111.818603515625 84.06494140625 110.82057189941406 85.64595794677734 C 109.44110107421875 87.83161163330078 108.83869934082031 90.46514892578125 109.12982177734375 93.03300476074219 C 109.32167053222656 94.73271179199219 109.90093231201172 96.38389587402344 110.81086730957031 97.83204650878906 C 111.53494262695312 98.98458862304688 112.6889877319336 99.85869598388672 113.3055648803711 101.07469940185547 C 114.21476745605469 102.86920928955078 113.83853912353516 105.11980438232422 112.41950988769531 106.53809356689453 C 107.68242645263672 111.27592468261719 102.75798034667969 103.54177856445312 101.18517303466797 99.7452392578125 C 97.8977279663086 91.80730438232422 99.9669418334961 83.08109283447266 105.74609375 76.93020629882812 C 105.74609375 76.93020629882812 105.74609375 76.93020629882812 105.74609375 76.93020629882812" stroke-width="0.0" fill="rgb(41, 58, 85)" opacity="1.0"/>
    <path d="M 90.82420349121094 70.25678253173828 C 90.82420349121094 70.25678253173828 90.82420349121094 70.25678253173828 90.82420349121094 70.25678253173828 C 91.89015197753906 69.48717498779297 92.10737609863281 69.13633728027344 93.44430541992188 68.92807006835938 C 96.5533447265625 68.44361114501953 99.32498168945312 71.21598815917969 98.84051513671875 74.32428741455078 C 98.428466796875 76.97126007080078 95.47469329833984 79.03225708007812 94.15867614746094 81.31047058105469 C 91.6229248046875 85.70120239257812 90.75701904296875 90.95707702636719 91.74832916259766 95.92929077148438 C 92.28428649902344 98.61732482910156 93.35173797607422 101.19487762451172 94.87229919433594 103.47533416748047 C 96.64291381835938 106.13126373291016 100.22595977783203 108.50578308105469 98.38368225097656 112.14108276367188 C 98.15525817871094 112.59194946289062 97.84398651123047 113.00250244140625 97.49761962890625 113.36976623535156 C 95.66504669189453 115.31356811523438 92.67095947265625 115.06201171875 90.80628967285156 113.36976623535156 C 87.40314483642578 110.28163146972656 84.908447265625 105.8252182006836 83.4617919921875 101.51063537597656 C 79.75408935546875 90.45694732666016 82.86013793945312 78.58362579345703 90.82420349121094 70.25678253173828 C 90.82420349121094 70.25678253173828 90.82420349121094 70.25678253173828 90.82420349121094 70.25678253173828" stroke-width="0.0" fill="rgb(41, 58, 85)" opacity="1.0"/>
    <path d="M 149.99220275878906 137.64414978027344 C 141.32199096679688 146.3151092529297 132.65176391601562 154.98683166503906 123.9815444946289 163.6577911376953 C 135.1494598388672 163.6577911376953 146.31735229492188 163.6577911376953 157.48526000976562 163.6577911376953 C 154.98756408691406 154.98683166503906 152.48989868164062 146.3151092529297 149.99220275878906 137.64414978027344" stroke-width="0.0" fill="rgb(248, 208, 22)" opacity="1.0"/>
    <path d="M 140.27618408203125 103.93217468261719 C 140.27618408203125 103.93217468261719 140.27618408203125 103.93217468261719 140.27618408203125 103.93217468261719 C 137.50978088378906 104.59130859375 135.01583862304688 104.59652709960938 132.24642944335938 103.95008850097656 C 130.5586700439453 110.18085479736328 128.8716583251953 116.41162109375 127.18389129638672 122.64312744140625 C 133.34747314453125 122.64312744140625 139.51031494140625 122.64312744140625 145.6731414794922 122.64312744140625 C 143.87416076660156 116.40564727783203 142.07518005371094 110.16891479492188 140.27618408203125 103.93217468261719" stroke-width="0.0" fill="rgb(248, 207, 21)" opacity="1.0"/>
    <path d="M 124.6108169555664 132.10910034179688 C 122.43934631347656 140.1276397705078 120.26786804199219 148.1461944580078 118.09639739990234 156.16476440429688 C 126.1156997680664 148.1461944580078 134.13426208496094 140.1276397705078 142.15280151367188 132.10910034179688 C 136.30572509765625 132.10910034179688 130.45864868164062 132.10910034179688 124.6108169555664 132.10910034179688" stroke-width="0.0" fill="rgb(248, 207, 21)" opacity="1.0"/>
    <path d="M 138.33462524414062 84.41727447509766 C 138.33462524414062 84.41727447509766 138.33462524414062 84.41727447509766 138.33462524414062 84.41727447509766 C 136.587890625 83.92610168457031 134.9762725830078 83.80516815185547 133.35121154785156 84.79946899414062 C 129.7397918701172 87.0090103149414 129.9249267578125 92.50226593017578 133.7080078125 94.43263244628906 C 137.353759765625 96.2928237915039 141.6825408935547 93.55851745605469 141.74224853515625 89.51788330078125 C 141.77734375 87.11575317382812 140.2881317138672 85.51457977294922 138.33462524414062 84.41727447509766 C 138.33462524414062 84.41727447509766 138.33462524414062 84.41727447509766 138.33462524414062 84.41727447509766" stroke-width="0.0" fill="rgb(101, 121, 80)" opacity="1.0"/>
    <path d="M 141.74224853515625 89.51788330078125 C 141.74224853515625 89.51788330078125 141.74224853515625 89.51788330078125 141.74224853515625 89.51788330078125 C 141.4727783203125 91.5191650390625 140.85992431640625 93.2046890258789 139.0079345703125 94.2840805053711 C 135.39129638671875 96.391357421875 130.69900512695312 93.70631408691406 130.69900512695312 89.51788330078125 C 130.69900512695312 85.32945251464844 135.3898162841797 82.6391830444336 139.0079345703125 84.74945068359375 C 140.8591766357422 85.82958984375 141.4727783203125 87.51586151123047 141.74224853515625 89.51788330078125 C 141.74224853515625 89.51788330078125 141.74224853515625 89.51788330078125 141.74224853515625 89.51788330078125" stroke-width="0.0" fill="rgb(89, 216, 152)" opacity="1.0"/>
  </g>
</svg>
