<?xml version="1.0" ?>
<svg xmlns="http://www.w3.org/2000/svg" version="1.1" width="224" height="224">
  <defs/>
  <g>
    <path d="M 95.85086822509766 190.716552734375 C 76.39205169677734 186.50653076171875 61.89555740356445 178.37103271484375 49.086063385009766 164.3393096923828 C 34.67169952392578 148.98410034179688 28.123550415039062 132.42852783203125 28.0 111.64881134033203 C 28.024375915527344 79.0533447265625 45.96565246582031 50.630393981933594 75.17509460449219 36.76922607421875 C 87.62801361083984 30.86254119873047 96.15367126464844 29.167755126953125 111.91088104248047 28.99993133544922 C 123.90071105957031 29.14557647705078 126.54753875732422 29.358055114746094 134.24026489257812 31.61895751953125 C 170.30230712890625 42.5057373046875 192.03439331054688 69.93728637695312 194.42703247070312 106.822265625 C 196.0 134.0605926513672 181.4097900390625 163.07557678222656 157.80963134765625 178.5867919921875 C 140.16555786132812 190.04193115234375 115.5096206665039 195.00006103515625 95.85086822509766 190.716552734375" stroke-width="1.0" fill="rgb(144, 213, 160)" opacity="0.9836237"/>
    <path d="M 94.83423614501953 173.57762145996094 C 84.7796630859375 170.91395568847656 73.32777404785156 164.73904418945312 65.06414031982422 156.94241333007812 C 53.20524978637695 145.77645874023438 46.457664489746094 133.82386779785156 41.57135772705078 115.89677429199219 C 39.21342468261719 107.98635864257812 38.12132263183594 82.72391510009766 39.91962432861328 80.02587890625 C 41.147315979003906 78.85629272460938 50.10702896118164 78.75604248046875 111.30298614501953 78.79964447021484 C 192.08731079101562 78.80809020996094 183.47061157226562 77.31971740722656 183.4247589111328 90.59762573242188 C 183.41004943847656 99.93885803222656 181.2919921875 113.69514465332031 178.46450805664062 122.8641586303711 C 171.29248046875 146.15464782714844 154.63998413085938 164.02645874023438 132.61065673828125 171.7266387939453 C 122.53242492675781 175.11898803710938 104.73030090332031 176.0181884765625 94.83423614501953 173.57762145996094" stroke-width="1.0" fill="rgb(41, 65, 111)" opacity="0.9780928"/>
    <path d="M 98.4100570678711 163.62615966796875 C 70.2508544921875 156.7777557373047 52.0633430480957 132.29815673828125 49.566368103027344 97.61032104492188 L 48.61418914794922 88.71775817871094 L 173.22894287109375 88.72264099121094 L 172.79022216796875 96.06297302246094 C 172.97506713867188 108.85138702392578 168.34368896484375 125.19121551513672 161.84832763671875 136.10165405273438 C 157.33633422851562 143.9933624267578 146.79702758789062 154.18580627441406 139.47010803222656 157.9224090576172 C 127.26656341552734 164.53489685058594 111.12548065185547 166.95936584472656 98.4100570678711 163.62615966796875" stroke-width="1.0" fill="rgb(233, 110, 127)" opacity="0.9958821"/>
  </g>
</svg>
