<?xml version="1.0" ?>
<svg xmlns="http://www.w3.org/2000/svg" version="1.1" width="224" height="224">
  <defs/>
  <g>
    <path d="M 56.13533020019531 118.40122985839844 C 56.13533020019531 118.40122985839844 56.13533020019531 118.40122985839844 56.13533020019531 118.40122985839844 C 51.279693603515625 121.32972717285156 47.080589294433594 125.07817840576172 43.87925720214844 129.78407287597656 C 41.0040283203125 134.00909423828125 39.00634002685547 138.81793212890625 38.04529571533203 143.8384246826172 C 37.15550994873047 148.48818969726562 37.15550994873047 153.3013458251953 38.04529571533203 157.95181274414062 C 38.83140563964844 162.06021118164062 40.311492919921875 166.03109741210938 42.40276336669922 169.654296875 C 52.622276306152344 187.35415649414062 75.95741271972656 193.60350036621094 93.65438842773438 183.38613891601562 C 97.3207778930664 181.26895141601562 100.6214599609375 178.53121948242188 103.3779067993164 175.31692504882812 C 116.6418228149414 159.84727478027344 114.85002136230469 135.83473205566406 99.43148803710938 122.50890350341797 C 95.84932708740234 119.41339111328125 91.68118286132812 117.00680541992188 87.20924377441406 115.45257568359375 C 82.38168334960938 113.7745132446289 77.21794128417969 113.10070037841797 72.12185668945312 113.47792053222656 C 66.44554901123047 113.89833068847656 61.099666595458984 115.6606216430664 56.13533020019531 118.40122985839844 C 56.13533020019531 118.40122985839844 56.13533020019531 118.40122985839844 56.13533020019531 118.40122985839844" stroke-width="0.0" fill="rgb(255, 255, 255)" opacity="1.0" stroke="rgb(0, 0, 0)" stroke-opacity="1.0" stroke-linecap="round" stroke-linejoin="round"/>
    <path d="M 134.53028869628906 109.1031723022461 C 134.53028869628906 109.1031723022461 134.53028869628906 109.1031723022461 134.53028869628906 109.1031723022461 C 129.67393493652344 112.03095245361328 125.47483825683594 115.7786865234375 122.27278137207031 120.4838638305664 C 119.3968276977539 124.70887756347656 117.39913940429688 129.51773071289062 116.43809509277344 134.53749084472656 C 115.54759216308594 139.18795776367188 115.54759216308594 144.00112915039062 116.43809509277344 148.65087890625 C 120.26933288574219 168.66661071777344 140.17059326171875 182.22280883789062 160.1992950439453 178.47291564941406 C 164.3609619140625 177.69400024414062 168.38296508789062 176.2052764892578 172.0493621826172 174.08807373046875 C 189.746337890625 163.8707275390625 196.0 140.53414916992188 185.78192138671875 122.83500671386719 C 183.68992614746094 119.21253967285156 180.99107360839844 115.94569396972656 177.8257293701172 113.21012878417969 C 174.2435760498047 110.11460876464844 170.07542419433594 107.70802307128906 165.60348510742188 106.153076171875 C 160.7759246826172 104.47501373291016 155.6121826171875 103.80048370361328 150.515380859375 104.17842102050781 C 144.8397979736328 104.59883117675781 139.49391174316406 106.36112213134766 134.53028869628906 109.1031723022461 C 134.53028869628906 109.1031723022461 134.53028869628906 109.1031723022461 134.53028869628906 109.1031723022461" stroke-width="0.0" fill="rgb(255, 255, 255)" opacity="1.0" stroke="rgb(0, 0, 0)" stroke-opacity="1.0" stroke-linecap="round" stroke-linejoin="round"/>
    <path d="M 73.10882568359375 114.99687957763672 C 73.10882568359375 114.99687957763672 73.10882568359375 114.99687957763672 73.10882568359375 114.99687957763672 C 68.07609558105469 117.57623291015625 63.59983825683594 120.97482299804688 59.979522705078125 125.34381866455078 C 48.696739196777344 138.96119689941406 47.96965026855469 159.05755615234375 58.2712287902832 173.440185546875 C 62.12910842895508 178.8263702392578 67.23526000976562 182.99237060546875 73.10882568359375 186.0029296875 C 73.10882568359375 186.0029296875 73.10882568359375 186.0029296875 73.10882568359375 186.0029296875 C 78.98454284667969 182.98948669433594 84.09213256835938 178.82061767578125 87.95072937011719 173.43153381347656 C 98.24943542480469 159.0474853515625 97.52090454101562 138.96551513671875 86.24099731445312 125.34741973876953 C 82.62068939208984 120.97698211669922 78.14370727539062 117.57623291015625 73.10882568359375 114.99687957763672 C 73.10882568359375 114.99687957763672 73.10882568359375 114.99687957763672 73.10882568359375 114.99687957763672" stroke-width="0.0" fill="rgb(254, 205, 87)" opacity="1.0" stroke="rgb(0, 0, 0)" stroke-opacity="1.0" stroke-linecap="round" stroke-linejoin="round"/>
    <path d="M 74.55579376220703 113.01863861083984 C 74.55579376220703 113.01863861083984 74.55579376220703 113.01863861083984 74.55579376220703 113.01863861083984 C 71.3314208984375 113.09134674072266 68.22726440429688 113.50096130371094 65.09576416015625 114.27195739746094 C 65.09576416015625 114.27195739746094 65.09576416015625 114.27195739746094 65.09576416015625 114.27195739746094 C 70.98300170898438 115.925537109375 76.38214874267578 118.73021697998047 80.91743469238281 122.86669158935547 C 93.47370147705078 134.32008361816406 96.73551177978516 153.42083740234375 88.58782958984375 168.3642578125 C 86.37561798095703 172.42153930664062 83.40536499023438 176.0576934814453 79.8786392211914 179.0437774658203 C 75.55427551269531 182.70440673828125 70.53378295898438 185.19448852539062 65.09864807128906 186.7220916748047 C 65.09864807128906 186.7220916748047 65.09864807128906 186.7220916748047 65.09864807128906 186.7220916748047 C 70.97219848632812 188.14242553710938 76.98109436035156 188.3540802001953 82.89568328857422 187.00645446777344 C 99.52938842773438 183.21768188476562 111.76315307617188 168.12741088867188 112.03238677978516 151.07113647460938 C 112.10509490966797 146.47608947753906 111.32330322265625 141.87457275390625 109.73810577392578 137.56101989746094 C 108.1449966430664 133.2251434326172 105.74561309814453 129.19522094726562 102.69401550292969 125.72823333740234 C 99.33790588378906 121.91571807861328 95.20719146728516 118.80220794677734 90.61719512939453 116.62742614746094 C 85.55926513671875 114.23020935058594 80.13275909423828 113.11942291259766 74.55579376220703 113.01863861083984 C 74.55579376220703 113.01863861083984 74.55579376220703 113.01863861083984 74.55579376220703 113.01863861083984" stroke-width="0.0" fill="rgb(255, 172, 31)" opacity="1.0" stroke="rgb(0, 0, 0)" stroke-opacity="1.0" stroke-linecap="round" stroke-linejoin="round"/>
    <path d="M 152.1811981201172 105.61819458007812 C 152.1811981201172 105.61819458007812 152.1811981201172 105.61819458007812 152.1811981201172 105.61819458007812 C 146.30621337890625 108.62804412841797 141.20147705078125 112.79547119140625 137.34432983398438 118.18310546875 C 127.04994201660156 132.56500244140625 127.7734375 152.6563262939453 139.05477905273438 166.2708282470703 C 142.67294311523438 170.63694763183594 147.1477508544922 174.03335571289062 152.1811981201172 176.6062469482422 C 152.1811981201172 176.6062469482422 152.1811981201172 176.6062469482422 152.1811981201172 176.6062469482422 C 157.21609497070312 174.03482055664062 161.69305419921875 170.63983154296875 165.31338500976562 166.27297973632812 C 176.59832763671875 152.66064453125 177.3210906982422 132.5642852783203 167.02455139160156 118.18310546875 C 163.16595458984375 112.79474639892578 158.05763244628906 108.62804412841797 152.1811981201172 105.61819458007812 C 152.1811981201172 105.61819458007812 152.1811981201172 105.61819458007812 152.1811981201172 105.61819458007812" stroke-width="0.0" fill="rgb(155, 211, 122)" opacity="1.0" stroke="rgb(0, 0, 0)" stroke-opacity="1.0" stroke-linecap="round" stroke-linejoin="round"/>
    <path d="M 153.628173828125 103.63922882080078 C 153.628173828125 103.63922882080078 153.628173828125 103.63922882080078 153.628173828125 103.63922882080078 C 150.40524291992188 103.70977783203125 147.3018035888672 104.12083435058594 144.1702880859375 104.8896713256836 C 144.1702880859375 104.8896713256836 144.1702880859375 104.8896713256836 144.1702880859375 104.8896713256836 C 150.0568084716797 106.54541015625 155.45452880859375 109.35009002685547 159.98837280273438 113.4872817993164 C 172.54248046875 124.94068145751953 175.7978057861328 144.03424072265625 167.65733337402344 158.9776611328125 C 165.44583129882812 163.036376953125 162.4777374267578 166.67396545410156 158.95101928710938 169.6614990234375 C 154.62881469726562 173.32427978515625 149.6083221435547 175.8143768310547 144.17318725585938 177.3405303955078 C 144.17318725585938 177.3405303955078 144.17318725585938 177.3405303955078 144.17318725585938 177.3405303955078 C 150.04673767089844 178.7608642578125 156.0563507080078 178.97178649902344 161.970947265625 177.6256103515625 C 178.60679626464844 173.83755493164062 190.83697509765625 158.74658203125 191.10836791992188 141.6895751953125 C 191.1810760498047 137.0945281982422 190.39927673339844 132.49301147460938 188.8140869140625 128.18017578125 C 187.22097778320312 123.84429931640625 184.82086181640625 119.81364440917969 181.7685546875 116.345947265625 C 178.41244506835938 112.53486633300781 174.28244018554688 109.42208099365234 169.69317626953125 107.24801635742188 C 164.634521484375 104.85079956054688 159.2080078125 103.74073791503906 153.6310577392578 103.63922882080078 C 153.6310577392578 103.63922882080078 153.6310577392578 103.63922882080078 153.6310577392578 103.63922882080078 C 153.6310577392578 103.63922882080078 153.628173828125 103.63922882080078 153.628173828125 103.63922882080078" stroke-width="0.0" fill="rgb(101, 163, 70)" opacity="1.0" stroke="rgb(0, 0, 0)" stroke-opacity="1.0" stroke-linecap="round" stroke-linejoin="round"/>
    <path d="M 84.1885986328125 30.39649200439453 C 101.8776626586914 30.39649200439453 119.56671905517578 30.39649200439453 137.25650024414062 30.39649200439453 C 138.26507568359375 30.559188842773438 138.5767822265625 30.485763549804688 139.42623901367188 31.106300354003906 C 141.39874267578125 32.54823303222656 141.39874267578125 35.59839630126953 139.42552185058594 37.03961181640625 C 138.5760498046875 37.66014862060547 138.26290893554688 37.58672332763672 137.25363159179688 37.749420166015625 C 119.5652847290039 37.749420166015625 101.87694549560547 37.749420166015625 84.1885986328125 37.749420166015625 C 83.1793212890625 37.58672332763672 82.86761474609375 37.66014862060547 82.01814270019531 37.03961181640625 C 80.04277038574219 35.597679138183594 80.04277038574219 32.54823303222656 82.01814270019531 31.106300354003906 C 82.86761474609375 30.485763549804688 83.1793212890625 30.559188842773438 84.1885986328125 30.39649200439453 C 84.1885986328125 30.39649200439453 84.1885986328125 30.39649200439453 84.1885986328125 30.39649200439453" stroke-width="0.0" fill="rgb(34, 24, 21)" opacity="1.0" stroke="rgb(0, 0, 0)" stroke-opacity="1.0" stroke-linecap="round" stroke-linejoin="round"/>
    <path d="M 108.68058776855469 32.077430725097656 C 108.68058776855469 32.077430725097656 108.68058776855469 32.077430725097656 108.68058776855469 32.077430725097656 C 109.7647476196289 31.48064422607422 110.67971801757812 31.076065063476562 111.94744110107422 31.436729431152344 C 114.29427337646484 32.10478973388672 115.3798599243164 34.97209930419922 114.00919342041016 37.009376525878906 C 113.11509704589844 38.3397216796875 111.40896606445312 39.385719299316406 110.25354766845703 40.45403289794922 C 107.80088806152344 42.7216796875 105.47061920166016 45.12250518798828 103.25263977050781 47.619789123535156 C 96.65776062011719 55.04326248168945 90.99801635742188 63.355079650878906 86.7823486328125 72.35653686523438 C 82.62213134765625 81.23922729492188 79.91390991210938 90.81011962890625 79.17387390136719 100.60562133789062 C 78.89887237548828 104.24609375 79.06876373291016 107.8203353881836 79.14291381835938 111.45863342285156 C 79.19690704345703 114.09774017333984 76.67802429199219 116.14006805419922 74.11521911621094 115.13006591796875 C 71.7943115234375 114.21436309814453 71.78639221191406 111.84521484375 71.69424438476562 109.74171447753906 C 71.41636657714844 103.40814208984375 71.86270141601562 97.04937744140625 73.0152359008789 90.81588745117188 C 76.05459594726562 74.380859375 83.96903991699219 59.15093994140625 94.54777526855469 46.31463623046875 C 98.7763900756836 41.18328094482422 103.43909454345703 36.20094299316406 108.68058776855469 32.077430725097656 C 108.68058776855469 32.077430725097656 108.68058776855469 32.077430725097656 108.68058776855469 32.077430725097656" stroke-width="0.0" fill="rgb(34, 24, 21)" opacity="1.0" stroke="rgb(0, 0, 0)" stroke-opacity="1.0" stroke-linecap="round" stroke-linejoin="round"/>
    <path d="M 74.55579376220703 109.34217071533203 C 74.55579376220703 109.34217071533203 74.55579376220703 109.34217071533203 74.55579376220703 109.34217071533203 C 78.91398620605469 109.41056060791016 83.7120361328125 109.83026123046875 87.78587341308594 111.51766967773438 C 90.04704284667969 112.45423889160156 91.08871459960938 115.1458969116211 89.53447723388672 117.22061920166016 C 87.73692321777344 119.61927795410156 85.07046508789062 118.27452850341797 82.76826477050781 117.70005798339844 C 77.69233703613281 116.43305969238281 72.32630920410156 116.36251068115234 67.21870422363281 117.49633026123047 C 49.78520965576172 121.36572265625 38.16191101074219 138.84385681152344 41.26966094970703 156.4141387939453 C 41.93556213378906 160.17913818359375 43.25151062011719 163.82249450683594 45.13977813720703 167.1469268798828 C 54.221866607666016 183.1399383544922 75.16554260253906 189.02142333984375 91.19525909423828 179.91700744628906 C 94.86451721191406 177.8329315185547 98.13497161865234 175.0592041015625 100.7956771850586 171.78443908691406 C 108.00605773925781 162.91111755371094 110.25642395019531 150.66368103027344 106.63970947265625 139.81138610839844 C 105.7808837890625 137.23562622070312 104.60819244384766 134.7657012939453 103.15473937988281 132.4735870361328 C 102.28584289550781 131.1029052734375 100.88421630859375 129.7948760986328 100.8597412109375 128.06283569335938 C 100.8179931640625 125.14369201660156 104.22233581542969 123.30582427978516 106.6281967163086 124.98603820800781 C 108.33792877197266 126.17960357666016 109.54302215576172 128.71360778808594 110.5343017578125 130.48956298828125 C 113.24899291992188 135.3516845703125 114.95152282714844 140.7645263671875 115.50656127929688 146.30548095703125 C 117.45889282226562 165.77267456054688 104.96237182617188 184.4393310546875 86.17765045166016 189.97525024414062 C 81.92671203613281 191.22857666015625 77.47781372070312 191.77857971191406 73.04978942871094 191.6187744140625 C 67.71470642089844 191.4265594482422 62.432899475097656 190.18692016601562 57.57293701171875 187.97756958007812 C 52.86344528198242 185.83663940429688 48.57075500488281 182.7987060546875 44.97492218017578 179.0804901123047 C 41.7052001953125 175.69918823242188 39.01641845703125 171.76141357421875 37.06840515136719 167.47952270507812 C 27.99999237060547 147.5451202392578 36.73005676269531 123.35620880126953 56.290828704833984 113.62406158447266 C 62.00960922241211 110.77906799316406 68.19271850585938 109.45735168457031 74.55579376220703 109.34217071533203 C 74.55579376220703 109.34217071533203 74.55579376220703 109.34217071533203 74.55579376220703 109.34217071533203" stroke-width="0.0" fill="rgb(34, 24, 21)" opacity="1.0" stroke="rgb(0, 0, 0)" stroke-opacity="1.0" stroke-linecap="round" stroke-linejoin="round"/>
    <path d="M 120.11167907714844 32.926177978515625 C 120.11167907714844 32.926177978515625 120.11167907714844 32.926177978515625 120.11167907714844 32.926177978515625 C 121.06696319580078 33.711578369140625 121.78109741210938 34.41130828857422 121.91643524169922 35.72150421142578 C 122.05537414550781 37.072731018066406 121.21238708496094 38.18855285644531 120.94530487060547 39.468505859375 C 120.42842864990234 41.95500183105469 120.3909912109375 44.56602478027344 120.4248275756836 47.094993591308594 C 120.56880187988281 57.827781677246094 122.90267944335938 68.76790618896484 127.34797668457031 78.5526123046875 C 130.36070251464844 85.18492889404297 134.5274200439453 91.41770935058594 140.18067932128906 96.08545684814453 C 141.77378845214844 97.40141296386719 143.47560119628906 98.58634185791016 145.27101135253906 99.61074829101562 C 146.00672912597656 100.03043365478516 147.0419158935547 100.46452331542969 147.65814208984375 101.10882568359375 C 150.49737548828125 104.07835388183594 146.8741912841797 108.60860443115234 143.31939697265625 106.91111755371094 C 124.8442153930664 98.08818054199219 116.20124816894531 75.70545959472656 113.74067687988281 56.67020797729492 C 113.52687072753906 55.016624450683594 113.35841369628906 53.35729217529297 113.2403564453125 51.69435119628906 C 113.13093566894531 50.157386779785156 113.06542205810547 48.6175537109375 113.05174255371094 47.076995849609375 C 113.04383087158203 46.136817932128906 113.05534362792969 45.18873596191406 113.09133911132812 44.24927520751953 C 113.12373352050781 43.38685607910156 113.17772674560547 42.51579284667969 113.25691223144531 41.65624237060547 C 113.52831268310547 38.70830535888672 113.9638442993164 32.85131072998047 117.87715148925781 32.44744873046875 C 118.92314910888672 32.33946990966797 119.1571044921875 32.55975341796875 120.11167907714844 32.926177978515625 C 120.11167907714844 32.926177978515625 120.11167907714844 32.926177978515625 120.11167907714844 32.926177978515625" stroke-width="0.0" fill="rgb(34, 24, 21)" opacity="1.0" stroke="rgb(0, 0, 0)" stroke-opacity="1.0" stroke-linecap="round" stroke-linejoin="round"/>
    <path d="M 153.6310577392578 99.96348571777344 C 153.6310577392578 99.96348571777344 153.6310577392578 99.96348571777344 153.6310577392578 99.96348571777344 C 164.43798828125 100.14057922363281 174.7813262939453 104.16402435302734 182.52297973632812 111.7977066040039 C 184.19168090820312 113.4426498413086 185.71856689453125 115.23085021972656 187.08274841308594 117.13566589355469 C 187.56149291992188 117.804443359375 188.1503448486328 118.55672454833984 188.3792724609375 119.3759536743164 C 188.92062377929688 121.31317138671875 187.72418212890625 123.3554916381836 185.80136108398438 123.89324188232422 C 182.230712890625 124.89100646972656 180.26254272460938 120.09800720214844 178.29725646972656 117.9995346069336 C 173.5776824951172 112.96104431152344 167.326171875 109.44727325439453 160.56932067871094 108.03269958496094 C 141.62765502929688 104.06611633300781 122.65647888183594 117.4552993774414 120.117431640625 136.6582794189453 C 119.59839630126953 140.57949829101562 119.76901245117188 144.5914306640625 120.62639617919922 148.45291137695312 C 121.55432891845703 152.6296844482422 123.29069519042969 156.61570739746094 125.7052001953125 160.14675903320312 C 136.39695739746094 175.7841339111328 158.59323120117188 179.57073974609375 173.8037109375 168.21957397460938 C 179.86300659179688 163.6979522705078 184.32485961914062 157.16641235351562 186.282958984375 149.8595733642578 C 186.91574096679688 147.49618530273438 187.2886505126953 145.06439208984375 187.39590454101562 142.61965942382812 C 187.4534912109375 141.3130645751953 187.3203125 140.0669403076172 188.13882446289062 138.94607543945312 C 190.13723754882812 136.20907592773438 193.47967529296875 137.57325744628906 194.65524291992188 140.15692138671875 C 194.65524291992188 141.55783081054688 194.65524291992188 142.95872497558594 194.65524291992188 144.35963439941406 C 193.9619903564453 151.55633544921875 191.6734619140625 158.39886474609375 187.56076049804688 164.38040161132812 C 175.2039031982422 182.35165405273438 150.13743591308594 187.60252380371094 131.6730499267578 175.907958984375 C 127.7100830078125 173.3984375 124.18192291259766 170.21148681640625 121.2800521850586 166.52638244628906 C 118.0578384399414 162.43453979492188 115.61885833740234 157.73512268066406 114.1459732055664 152.73838806152344 C 112.61117553710938 147.53433227539062 112.13028717041016 142.03224182128906 112.71699523925781 136.6388397216797 C 113.34041595458984 130.90927124023438 115.1890869140625 125.333740234375 118.1046371459961 120.36292266845703 C 121.19294738769531 115.098388671875 125.4539566040039 110.54006958007812 130.49533081054688 107.10044860839844 C 137.36952209472656 102.41038513183594 145.34947204589844 100.11250305175781 153.6310577392578 99.96348571777344 C 153.6310577392578 99.96348571777344 153.6310577392578 99.96348571777344 153.6310577392578 99.96348571777344" stroke-width="0.0" fill="rgb(34, 24, 21)" opacity="1.0" stroke="rgb(0, 0, 0)" stroke-opacity="1.0" stroke-linecap="round" stroke-linejoin="round"/>
  </g>
</svg>
