<?xml version="1.0" ?>
<svg xmlns="http://www.w3.org/2000/svg" version="1.1" width="224" height="224">
  <defs/>
  <g>
    <path d="M 58.102622985839844 96.94194030761719 C 94.03346252441406 96.94194030761719 129.96505737304688 96.94194030761719 165.8958740234375 96.94194030761719 C 167.80987548828125 97.04093933105469 169.60235595703125 97.3086929321289 171.3776092529297 98.07518005371094 C 176.80833435058594 100.41967010498047 179.33282470703125 105.55039978027344 179.643310546875 111.22562408447266 C 180.0858154296875 119.32483673095703 176.2638397216797 126.78805541992188 170.7401123046875 132.49327087402344 C 165.40988159179688 137.9982452392578 158.680908203125 142.04673767089844 151.678955078125 145.0549774169922 C 139.22825622558594 150.40394592285156 125.50257110595703 152.66893005371094 111.99962615966797 152.66893005371094 C 98.49668884277344 152.66893005371094 84.77024841308594 150.4062042236328 72.31880950927734 145.05796813964844 C 65.31684875488281 142.05047607421875 58.58787536621094 138.0027618408203 53.25839614868164 132.49853515625 C 47.73316955566406 126.79105377197266 43.91419219970703 119.32708740234375 44.355934143066406 111.22562408447266 C 44.665687561035156 105.55339813232422 47.20066833496094 100.42042541503906 52.625396728515625 98.07593536376953 C 54.399139404296875 97.3086929321289 56.19013214111328 97.04093933105469 58.102622985839844 96.94194030761719 C 58.102622985839844 96.94194030761719 58.102622985839844 96.94194030761719 58.102622985839844 96.94194030761719" stroke-width="0.0" fill="rgb(255, 255, 254)" opacity="1.0"/>
    <path d="M 178.8790740966797 118.10384368896484 C 176.20533752441406 140.25424194335938 173.53085327148438 162.4038848876953 170.8563690185547 184.55429077148438 C 169.9046173095703 189.12551879882812 166.80712890625 192.12850952148438 162.1099090576172 192.5567626953125 C 128.67430114746094 192.55599975585938 95.23945617675781 192.55526733398438 61.803855895996094 192.55377197265625 C 57.10512924194336 192.12625122070312 54.006893157958984 189.12551879882812 53.05739212036133 184.55128479003906 C 50.38215637207031 162.40164184570312 47.70692443847656 140.25274658203125 45.03168487548828 118.10384368896484 C 89.64747619628906 118.10384368896484 134.26327514648438 118.10384368896484 178.8790740966797 118.10384368896484" stroke-width="0.0" fill="rgb(254, 254, 254)" opacity="1.0"/>
    <path d="M 177.2808380126953 126.61630249023438 C 165.6993865966797 132.21502685546875 154.1171875 137.8137664794922 142.5349884033203 143.4124755859375 C 126.5608139038086 150.93568420410156 108.8368911743164 152.6876983642578 91.69872283935547 148.44046020507812 C 83.00325775146484 146.18746948242188 74.30854797363281 143.93447875976562 65.61383819580078 141.68148803710938 C 67.01183319091797 155.94342041015625 68.40907287597656 170.20460510253906 69.80706787109375 184.466552734375 C 70.59231567382812 188.65977478027344 72.89555358886719 191.93801879882812 77.34078979492188 192.4652557373047 C 106.13690185546875 192.4652557373047 134.93301391601562 192.4652557373047 163.72914123535156 192.4652557373047 C 168.17361450195312 191.937255859375 170.47161865234375 188.65602111816406 171.26361083984375 184.466552734375 C 173.26910400390625 165.18338012695312 175.2753448486328 145.8994598388672 177.2808380126953 126.61630249023438" stroke-width="0.0" fill="rgb(101, 163, 71)" opacity="1.0"/>
    <path d="M 65.61083984375 141.68148803710938 C 74.95429992675781 144.261474609375 84.29850769042969 146.84146118164062 93.6419677734375 149.42144775390625 C 105.00741577148438 152.44093322753906 116.65035247802734 152.82418823242188 128.18905639648438 150.55694580078125 C 137.44175720214844 148.64520263671875 146.6937255859375 146.73345947265625 155.94642639160156 144.8209686279297 C 154.81768798828125 158.03591918945312 153.689697265625 171.25161743164062 152.56094360351562 184.466552734375 C 151.99169921875 188.13253784179688 150.43846130371094 191.87802124023438 146.37347412109375 192.4652557373047 C 122.73358154296875 192.4652557373047 99.09294128417969 192.4652557373047 75.45230102539062 192.4652557373047 C 71.38956451416016 191.87725830078125 69.83406829833984 188.13027954101562 69.26482391357422 184.466552734375 C 68.04682922363281 170.20460510253906 66.82882690429688 155.94342041015625 65.61083984375 141.68148803710938" stroke-width="0.0" fill="rgb(154, 210, 122)" opacity="1.0"/>
    <path d="M 167.84962463378906 96.86244201660156 C 167.84962463378906 96.86244201660156 167.84962463378906 96.86244201660156 167.84962463378906 96.86244201660156 C 174.36334228515625 97.28843688964844 178.5018310546875 102.2481689453125 179.3898162841797 108.50688934326172 C 180.48782348632812 116.2498550415039 178.18157958984375 123.96507263183594 173.66134643554688 130.26504516601562 C 162.18714904785156 146.26022338867188 140.46200561523438 152.5804443359375 121.63333892822266 152.5804443359375 C 102.805419921875 152.5804443359375 81.0772705078125 146.26470947265625 69.60382080078125 130.26878356933594 C 65.08659362792969 123.97181701660156 62.77360153198242 116.24909973144531 63.87384796142578 108.50839233398438 C 64.76258850097656 102.25041198730469 68.90032958984375 97.29144287109375 75.41404724121094 96.86544036865234 C 106.22615814208984 96.86469268798828 137.03750610351562 96.86318969726562 167.84962463378906 96.86244201660156" stroke-width="0.0" fill="rgb(254, 171, 31)" opacity="1.0"/>
    <path d="M 152.84820556640625 96.86244201660156 C 152.84820556640625 96.86244201660156 152.84820556640625 96.86244201660156 152.84820556640625 96.86244201660156 C 157.72691345214844 97.26893615722656 160.97140502929688 100.98966979980469 162.1968994140625 105.58039855957031 C 164.17388916015625 112.98812103271484 162.56964111328125 121.39857482910156 159.06642150878906 128.08554077148438 C 150.4654541015625 144.50222778320312 131.10655212402344 152.5804443359375 113.28511810302734 152.5804443359375 C 95.4644546508789 152.5804443359375 76.10404205322266 144.50672912597656 67.50382995605469 128.08929443359375 C 64.0013427734375 121.40457916259766 62.393348693847656 112.98961639404297 64.36959838867188 105.58340454101562 C 65.5950927734375 100.9919204711914 68.83882141113281 97.27194213867188 73.71905517578125 96.86544036865234 C 100.09493255615234 96.86469268798828 126.47156524658203 96.86318969726562 152.84820556640625 96.86244201660156" stroke-width="0.0" fill="rgb(253, 204, 86)" opacity="1.0"/>
    <path d="M 111.36363220214844 28.0 C 111.36363220214844 28.0 111.36363220214844 28.0 111.36363220214844 28.0 C 129.6800537109375 28.477752685546875 141.89599609375 46.452171325683594 148.14271545410156 61.75960159301758 C 149.38546752929688 64.80532836914062 150.460205078125 67.92082214355469 151.36318969726562 71.08430480957031 C 153.14593505859375 77.32727813720703 154.2806854248047 83.77725219726562 154.56944274902344 90.2677230834961 C 154.68719482421875 92.9129638671875 154.89718627929688 96.94344329833984 151.10595703125 96.94194030761719 C 149.03372192382812 96.94119262695312 147.7647247314453 95.32269287109375 147.57421875 93.4072036743164 C 147.3679656982422 91.32971954345703 147.4617156982422 89.21096801757812 147.2547149658203 87.12298583984375 C 146.87896728515625 83.32350158691406 146.1934814453125 79.55476379394531 145.25897216796875 75.852783203125 C 142.2312469482422 63.85734558105469 136.64300537109375 51.52064514160156 127.63855743408203 42.80944061279297 C 122.9870834350586 38.30945587158203 116.9068603515625 34.65772247314453 110.213134765625 35.10771942138672 C 103.89891052246094 35.53296661376953 98.37669372558594 39.37519836425781 94.10171508789062 43.79492950439453 C 86.07599639892578 52.09063720703125 80.9107666015625 63.2145881652832 77.894287109375 74.24404907226562 C 76.74078369140625 78.46052551269531 75.90604400634766 82.770751953125 75.47554016113281 87.12298583984375 C 75.32029724121094 88.69647979736328 75.21754455566406 90.27522277832031 75.17704772949219 91.85621643066406 C 75.15229797363281 92.80420684814453 75.25729370117188 93.86845397949219 74.87854766845703 94.78195190429688 C 74.1375503540039 96.56919860839844 72.01655578613281 97.3941879272461 70.24581909179688 96.66144561767578 C 67.61858367919922 95.57319641113281 68.05732727050781 92.5484619140625 68.15857696533203 90.2677230834961 C 68.42332458496094 84.32550048828125 69.39907836914062 78.41851806640625 70.92681884765625 72.67354583740234 C 71.77281188964844 69.49056243896484 72.79280090332031 66.35333251953125 73.98080444335938 63.2820930480957 C 74.95880126953125 60.75310134887695 76.05154418945312 58.267616271972656 77.26203918457031 55.84062194824219 C 83.88225555419922 42.576934814453125 95.29570007324219 28.41925048828125 111.36363220214844 28.0 C 111.36363220214844 28.0 111.36363220214844 28.0 111.36363220214844 28.0" stroke-width="0.0" fill="rgb(35, 24, 21)" opacity="1.0"/>
    <path d="M 111.36363220214844 126.6133041381836 C 111.36363220214844 126.6133041381836 111.36363220214844 126.6133041381836 111.36363220214844 126.6133041381836 C 108.81289672851562 126.87055969238281 106.60865020751953 127.71880340576172 105.1131591796875 129.93504333496094 C 101.79817962646484 134.85125732421875 105.4424057006836 141.6844940185547 111.36363220214844 141.6844940185547 C 117.28560638427734 141.6844940185547 120.92459106445312 134.84901428222656 117.61185455322266 129.93504333496094 C 116.11711120605469 127.71955871582031 113.91437530517578 126.87055969238281 111.36363220214844 126.6133041381836 C 111.36363220214844 126.6133041381836 111.36363220214844 126.6133041381836 111.36363220214844 126.6133041381836" stroke-width="0.0" fill="rgb(35, 24, 21)" opacity="1.0"/>
    <path d="M 58.11161804199219 93.33070373535156 C 76.49778747558594 93.33070373535156 94.88395690917969 93.33070373535156 113.27012634277344 93.33070373535156 C 114.4491195678711 93.56920623779297 114.8743667602539 93.4717025756836 115.76911163330078 94.3656997680664 C 118.28385162353516 96.88044738769531 116.03236389160156 99.8414306640625 113.27012634277344 100.4001693725586 C 94.88395690917969 100.4001693725586 76.49778747558594 100.4001693725586 58.11161804199219 100.4001693725586 C 56.549381256103516 100.51717376708984 55.154388427734375 100.70767211914062 53.718143463134766 101.38716888427734 C 49.716163635253906 103.28016662597656 48.121673583984375 107.14639282226562 47.89067077636719 111.34187316894531 C 47.47441864013672 118.90933990478516 51.33990478515625 125.78156280517578 56.628883361816406 130.92503356933594 C 61.83985900878906 135.99276733398438 68.33183288574219 139.65049743652344 75.0345458984375 142.35574340820312 C 86.70899200439453 147.06796264648438 99.44918823242188 149.05770874023438 111.99962615966797 149.05770874023438 C 124.54931640625 149.05770874023438 137.2887725830078 147.06871032714844 148.9632110595703 142.35723876953125 C 155.66592407226562 139.65274047851562 162.15789794921875 135.99501037597656 167.36888122558594 130.9272918701172 C 172.65859985351562 125.78306579589844 176.52334594726562 118.91008758544922 176.10784912109375 111.3426284790039 C 175.87684631347656 107.1493911743164 174.27859497070312 103.28540802001953 170.28036499023438 101.39317321777344 C 168.84487915039062 100.71442413330078 167.44912719726562 100.5231704711914 165.8868865966797 100.40617370605469 C 157.4351806640625 100.40467834472656 148.98345947265625 100.40392303466797 140.53175354003906 100.4031753540039 C 137.770263671875 99.84517669677734 135.51727294921875 96.88494110107422 138.03350830078125 94.3717041015625 C 138.9282684326172 93.47770690917969 139.35275268554688 93.57520294189453 140.53175354003906 93.33670043945312 C 148.9842071533203 93.33670043945312 157.43740844726562 93.33670043945312 165.88987731933594 93.33670043945312 C 168.35061645507812 93.44320678710938 170.6778564453125 93.83245849609375 172.94285583496094 94.84719848632812 C 174.6648406982422 95.61819458007812 176.2600860595703 96.67344665527344 177.64308166503906 97.95818328857422 C 187.93228149414062 107.52064514160156 182.66506958007812 124.13981628417969 174.652099609375 133.2020263671875 C 169.25137329101562 139.3107452392578 162.24490356445312 143.88047790527344 154.8904266357422 147.29222106933594 C 141.55325317382812 153.4789276123047 126.64181518554688 156.1181640625 111.99962615966797 156.1181640625 C 97.3574447631836 156.1181640625 82.44526672363281 153.4789276123047 69.10807800292969 147.2914581298828 C 61.753604888916016 143.87973022460938 54.74713897705078 139.3092498779297 49.346412658691406 133.19976806640625 C 41.33270263671875 124.13531494140625 36.067718505859375 107.51539611816406 46.35993194580078 97.95217895507812 C 47.74217224121094 96.66744232177734 49.338157653808594 95.61219787597656 51.060157775878906 94.84120178222656 C 53.32439422607422 93.82645416259766 55.65163040161133 93.43721008300781 58.11161804199219 93.33070373535156 C 58.11161804199219 93.33070373535156 58.11161804199219 93.33070373535156 58.11161804199219 93.33070373535156" stroke-width="0.0" fill="rgb(35, 24, 21)" opacity="1.0"/>
    <path d="M 44.621429443359375 114.51661682128906 C 44.621429443359375 114.51661682128906 44.621429443359375 114.51661682128906 44.621429443359375 114.51661682128906 C 46.88642120361328 114.69660949707031 47.840423583984375 115.44585418701172 48.55366516113281 117.60284423828125 C 51.22740936279297 139.750244140625 53.900394439697266 161.8968963623047 56.57413101196289 184.04429626464844 C 57.28512954711914 186.85528564453125 58.908119201660156 188.5165252685547 61.81210708618164 188.93502807617188 C 95.2424545288086 188.93502807617188 128.67205810546875 188.93502807617188 162.10165405273438 188.93502807617188 C 165.0078887939453 188.51727294921875 166.62713623046875 186.8560333251953 167.33963012695312 184.04429626464844 C 167.68536376953125 181.18756103515625 168.0311279296875 178.33006286621094 168.37612915039062 175.4733428955078 C 168.75262451171875 174.32809448242188 168.70611572265625 173.89308166503906 169.70211791992188 173.11009216308594 C 172.5010986328125 170.91110229492188 175.17333984375 173.506103515625 175.3953399658203 176.3163299560547 C 175.04959106445312 179.174560546875 174.70384216308594 182.03280639648438 174.35809326171875 184.89028930664062 C 173.21359252929688 191.2232666015625 168.57562255859375 195.60623168945312 162.09866333007812 196.0 C 128.66905212402344 196.0 95.23945617675781 196.0 61.809852600097656 196.0 C 55.33213806152344 195.60623168945312 50.69115447998047 191.2232666015625 49.54066467285156 184.89028930664062 C 46.87067413330078 162.74363708496094 44.20143127441406 140.5962371826172 41.532196044921875 118.44959259033203 C 41.71369171142578 116.18385314941406 42.46369171142578 115.2298583984375 44.621429443359375 114.51661682128906 C 44.621429443359375 114.51661682128906 44.621429443359375 114.51661682128906 44.621429443359375 114.51661682128906" stroke-width="0.0" fill="rgb(35, 24, 21)" opacity="1.0"/>
    <path d="M 179.29232788085938 114.51661682128906 C 179.29232788085938 114.51661682128906 179.29232788085938 114.51661682128906 179.29232788085938 114.51661682128906 C 181.44931030273438 115.2298583984375 182.19931030273438 116.18460083007812 182.37855529785156 118.44959259033203 C 180.98806762695312 129.96803283691406 179.59681701660156 141.48648071289062 178.20632934570312 153.0056915283203 C 177.35508728027344 155.7094268798828 174.0843505859375 157.52517700195312 171.9168701171875 154.763671875 C 171.1361083984375 153.76918029785156 171.28311157226562 153.35818481445312 171.1878662109375 152.158935546875 C 172.57835388183594 140.63973999023438 173.96884155273438 129.1197967529297 175.36009216308594 117.59984588623047 C 176.07183837890625 115.44361114501953 177.02883911132812 114.69586181640625 179.29232788085938 114.51661682128906 C 179.29232788085938 114.51661682128906 179.29232788085938 114.51661682128906 179.29232788085938 114.51661682128906" stroke-width="0.0" fill="rgb(35, 24, 21)" opacity="1.0"/>
  </g>
</svg>
