<?xml version="1.0" ?>
<svg xmlns="http://www.w3.org/2000/svg" version="1.1" width="224" height="224">
  <defs/>
  <g>
    <path d="M 82.21932220458984 192.64419555664062 C 65.88524627685547 186.47023010253906 47.262149810791016 164.60511779785156 41.368995666503906 142.65187072753906 C 38.15606689453125 133.25869750976562 37.52595520019531 114.43777465820312 40.26045227050781 104.97370910644531 C 45.503135681152344 82.83848571777344 60.64541244506836 66.44049072265625 77.8755111694336 63.18758773803711 C 82.54938507080078 62.769283294677734 84.39103698730469 62.797447204589844 89.3241195678711 63.7565803527832 C 95.89510345458984 65.18624114990234 102.1197738647461 69.75271606445312 105.6187744140625 74.3521499633789 C 107.37704467773438 77.69841003417969 107.56721496582031 77.70744323730469 107.11249542236328 76.52118682861328 C 108.1501693725586 70.52693176269531 101.69168090820312 61.833194732666016 93.03486633300781 57.426734924316406 C 81.97723388671875 51.34941482543945 67.33277893066406 50.157684326171875 57.94999694824219 54.82900619506836 C 54.90533447265625 56.1845588684082 51.417579650878906 58.948509216308594 49.65388870239258 60.43946838378906 C 48.01326370239258 61.933345794677734 46.342926025390625 63.33657455444336 45.263885498046875 63.038726806640625 C 42.496421813964844 62.44222640991211 41.86824035644531 59.45209503173828 42.703819274902344 53.93429946899414 C 44.68189239501953 42.912776947021484 52.4271354675293 34.15019989013672 62.19208908081055 30.876495361328125 C 68.70850372314453 29.163223266601562 71.27997589111328 29.29474639892578 78.31632995605469 30.590560913085938 C 88.11046600341797 33.27631378173828 96.79150390625 39.90346908569336 103.18087005615234 50.04081344604492 L 105.94950866699219 55.77717971801758 L 105.40316772460938 51.60292434692383 C 104.77229309082031 47.469078063964844 102.48905181884766 41.749752044677734 99.4939956665039 37.33845138549805 C 97.25210571289062 34.38328170776367 97.13941192626953 33.380584716796875 98.55223083496094 31.948081970214844 C 99.20467376708984 31.4227294921875 100.4908676147461 30.920089721679688 101.76715087890625 30.87950897216797 C 104.36076354980469 31.183570861816406 108.3046875 37.47386169433594 109.9503173828125 42.23014831542969 C 110.77950286865234 45.36872100830078 112.24942779541016 47.35009765625 111.29027557373047 44.54094696044922 C 111.3304672241211 42.95856475830078 116.33521270751953 33.53089141845703 118.4885025024414 31.73058319091797 C 121.00748443603516 29.324607849121094 123.79222869873047 29.52423095703125 124.73189544677734 32.17900848388672 C 125.20368957519531 33.93025207519531 124.11620330810547 36.18619918823242 122.10765075683594 38.167396545410156 C 120.67030334472656 39.784603118896484 118.78897094726562 43.12592697143555 117.9388427734375 45.25492858886719 C 116.14794158935547 50.21207046508789 115.07149505615234 56.117923736572266 115.36194610595703 55.4555778503418 C 115.20096588134766 55.58573532104492 116.62853240966797 53.80093002319336 117.67864227294922 50.72780227661133 C 123.19439697265625 41.060367584228516 130.61654663085938 34.085662841796875 140.79490661621094 30.804786682128906 C 148.93348693847656 28.0 158.0699462890625 28.547035217285156 164.55630493164062 32.103912353515625 C 174.12338256835938 36.37087631225586 180.76449584960938 45.618553161621094 181.9869842529297 55.98662567138672 C 182.27862548828125 63.086517333984375 180.09640502929688 64.66252899169922 174.87680053710938 60.356475830078125 C 172.86602783203125 57.966033935546875 168.91043090820312 55.6552848815918 165.6449432373047 55.0699462890625 C 161.19589233398438 53.31344223022461 159.88719177246094 52.149356842041016 152.27938842773438 51.72254180908203 C 142.52340698242188 51.793556213378906 141.38235473632812 52.29143524169922 135.14846801757812 54.23662185668945 C 128.3175048828125 56.61020278930664 121.84833526611328 60.58955764770508 118.57279205322266 64.5047607421875 C 116.03771209716797 67.3583984375 115.24208068847656 69.37153625488281 114.2507553100586 73.30741119384766 L 113.34635925292969 76.4539566040039 L 117.2135009765625 71.55792999267578 C 123.53372955322266 65.12464141845703 128.2152557373047 63.27849578857422 137.45989990234375 62.55361557006836 C 143.16482543945312 62.6289176940918 145.81619262695312 62.88539123535156 150.53164672851562 64.0853271484375 C 165.81484985351562 68.72296142578125 179.05133056640625 83.56609344482422 184.12667846679688 102.40994262695312 C 185.26153564453125 108.63665771484375 186.33761596679688 111.26703643798828 186.47402954101562 122.41315460205078 C 186.06808471679688 133.890625 185.27320861816406 136.4696807861328 183.95578002929688 142.15057373046875 C 179.02444458007812 160.29495239257812 166.23837280273438 178.1680908203125 152.48980712890625 187.58221435546875 C 141.409423828125 194.46826171875 134.62255859375 196.0 122.04545593261719 191.8219757080078 C 118.08162689208984 189.96421813964844 113.62479400634766 188.97987365722656 112.41728210449219 189.12860107421875 C 111.23487091064453 189.02310180664062 106.5633316040039 189.94674682617188 102.52867889404297 191.76025390625 C 93.712646484375 194.8607635498047 88.7127685546875 194.54693603515625 82.21932220458984 192.64419555664062" stroke-width="1.0" fill="rgb(25, 8, 8)" opacity="0.9997844"/>
    <path d="M 51.24813461303711 47.84225082397461 C 59.62495422363281 32.82073211669922 78.1697998046875 31.77379608154297 91.81118774414062 45.48747253417969 C 94.22398376464844 48.07257080078125 95.94730377197266 50.175777435302734 95.447265625 50.84747314453125 C 95.40177917480469 50.63853454589844 92.89579772949219 50.399166107177734 90.06739044189453 49.31333541870117 C 81.25257873535156 46.138057708740234 73.1954345703125 45.27932357788086 65.06775665283203 46.619964599609375 C 59.647640228271484 47.758697509765625 56.84776306152344 48.92671203613281 49.58478546142578 52.701900482177734 C 48.933475494384766 52.360084533691406 49.84552001953125 50.82124710083008 51.24813461303711 47.84225082397461" stroke-width="1.0" fill="rgb(113, 203, 80)" opacity="0.99842143"/>
    <path d="M 124.72229766845703 50.70171356201172 C 124.68819427490234 48.6160774230957 133.70005798339844 40.838294982910156 138.80323791503906 38.17953109741211 C 143.41943359375 36.07927703857422 145.29196166992188 35.79108810424805 151.5257110595703 35.40864944458008 C 159.31060791015625 35.67465591430664 164.15611267089844 37.531646728515625 169.02865600585938 42.43973159790039 C 171.69093322753906 45.843753814697266 174.78175354003906 50.65626525878906 174.57864379882812 51.27702331542969 C 174.062255859375 51.8828239440918 171.8107147216797 50.7744255065918 168.95193481445312 49.4921989440918 C 155.66197204589844 43.987266540527344 140.674560546875 44.556488037109375 126.19828796386719 51.052146911621094 C 125.38339233398438 51.30986404418945 124.80184173583984 51.2220458984375 124.72229766845703 50.70171356201172" stroke-width="1.0" fill="rgb(107, 201, 74)" opacity="0.99838823"/>
    <path d="M 87.71583557128906 187.2762908935547 C 82.44345092773438 182.59194946289062 79.02802276611328 176.01055908203125 78.96062469482422 169.42483520507812 C 78.86868286132812 167.82742309570312 78.49703216552734 164.52801513671875 77.3206787109375 162.68533325195312 C 73.97987365722656 155.05909729003906 72.55341339111328 144.89739990234375 70.76506042480469 129.3165740966797 C 73.7649917602539 108.78564453125 74.18582153320312 104.05925750732422 79.42423248291016 86.82003021240234 C 83.25401306152344 79.76436614990234 89.27359008789062 71.18429565429688 91.35345458984375 70.66120147705078 C 93.51423645019531 71.1866226196289 98.75688171386719 75.48956298828125 101.2846908569336 80.17658233642578 C 104.23468780517578 84.8685073852539 106.45661926269531 92.95823669433594 106.76342010498047 96.80165100097656 C 106.86432647705078 98.83224487304688 107.14844512939453 101.03484344482422 107.38789367675781 103.04285430908203 C 109.31095123291016 108.123779296875 113.79547882080078 106.19913482666016 113.632080078125 100.04422760009766 C 113.25920104980469 98.12274169921875 113.72779846191406 94.2709732055664 114.32853698730469 91.36040496826172 C 116.93830108642578 77.88424682617188 128.0247802734375 67.40077209472656 133.19210815429688 71.5816879272461 C 135.49977111816406 73.64217376708984 141.25607299804688 84.03827667236328 144.18466186523438 91.79525756835938 C 148.95797729492188 105.14786529541016 151.22235107421875 112.69639587402344 152.0441436767578 130.52735900878906 C 149.9440460205078 156.83990478515625 144.95828247070312 174.87796020507812 134.66494750976562 184.79208374023438 L 131.13511657714844 187.75045776367188 L 127.36590576171875 187.02023315429688 C 124.76785278320312 186.3661651611328 121.2918930053711 185.11582946777344 118.36148834228516 183.62013244628906 C 112.64485931396484 182.1612548828125 106.4674301147461 183.24020385742188 99.2217025756836 186.31655883789062 C 92.52653503417969 188.27249145507812 91.29164123535156 189.07742309570312 87.71583557128906 187.2762908935547" stroke-width="0.0" fill="rgb(114, 202, 78)" opacity="0.9939789"/>
    <path d="M 80.88412475585938 185.23529052734375 C 66.13491821289062 177.53424072265625 50.27792739868164 157.33106994628906 46.46479415893555 137.60467529296875 C 45.529083251953125 132.76846313476562 44.77368927001953 128.58135986328125 44.66741180419922 118.10128784179688 C 45.660484313964844 106.67988586425781 46.34007263183594 105.18915557861328 48.42366027832031 99.32037353515625 C 52.94281005859375 85.86174774169922 64.19608306884766 74.23345947265625 73.58050537109375 71.2278060913086 C 79.10304260253906 68.74639892578125 86.10346221923828 69.11145782470703 88.54432678222656 69.83487701416016 C 91.0348129272461 70.57365417480469 91.09915161132812 71.79469299316406 88.44642639160156 74.37194061279297 C 85.70524597167969 77.9021987915039 81.56568908691406 86.05924224853516 80.0237808227539 89.49559783935547 C 73.80342102050781 106.00608825683594 72.22596740722656 126.13829040527344 75.287841796875 145.14602661132812 C 76.08914184570312 149.7834930419922 77.43498229980469 156.3385467529297 78.1054458618164 159.8622283935547 C 78.92449951171875 163.5107421875 80.02242279052734 166.9601593017578 80.10090637207031 169.417236328125 C 82.44508361816406 171.50738525390625 82.576171875 173.85507202148438 81.4490966796875 175.84820556640625 C 80.77851867675781 176.97145080566406 80.36355590820312 177.37515258789062 84.14840698242188 181.23880004882812 C 86.61871337890625 183.62376403808594 88.82151794433594 185.7999267578125 90.0887451171875 186.72091674804688 C 88.14141845703125 187.89688110351562 85.01597595214844 187.04693603515625 80.88412475585938 185.23529052734375" stroke-width="0.0" fill="rgb(251, 252, 251)" opacity="0.9949448"/>
    <path d="M 135.9883575439453 183.01620483398438 C 141.42539978027344 177.1783447265625 144.64932250976562 170.05960083007812 147.6020965576172 157.07762145996094 C 150.7498779296875 145.25570678710938 151.24093627929688 124.0013427734375 149.32388305664062 111.8682861328125 C 146.75511169433594 96.99910736083984 140.3624267578125 81.23749542236328 133.97418212890625 74.09255981445312 C 132.17123413085938 71.84573364257812 130.8433837890625 70.3141098022461 131.07044982910156 69.91777038574219 C 132.3922576904297 68.38125610351562 142.49391174316406 68.46858215332031 147.57754516601562 69.71817016601562 C 165.63336181640625 74.88945007324219 179.09857177734375 94.39580535888672 180.60223388671875 118.29484558105469 C 181.47088623046875 136.48062133789062 176.55105590820312 151.31982421875 164.23104858398438 167.87564086914062 C 155.57339477539062 179.21075439453125 144.96090698242188 186.78302001953125 135.82388305664062 187.8321533203125 L 130.98129272460938 188.17916870117188 L 135.9883575439453 183.01620483398438" stroke-width="1.0" fill="rgb(65, 180, 37)" opacity="0.9959724"/>
    <path d="M 75.75860595703125 173.07330322265625 C 71.9803466796875 168.13580322265625 65.73367309570312 156.13111877441406 64.07737731933594 147.76983642578125 C 60.73300552368164 138.72857666015625 60.467193603515625 114.5460205078125 63.6976203918457 106.11062622070312 C 65.74427795410156 97.33309936523438 71.07025909423828 86.96092224121094 73.4364013671875 85.93264770507812 C 78.72948455810547 85.87252807617188 79.93387603759766 88.88768768310547 75.39126586914062 94.6744155883789 C 63.19144821166992 114.27806091308594 65.77685546875 149.49659729003906 80.7666015625 168.23684692382812 C 82.72930908203125 172.0410614013672 82.86821746826172 173.59832763671875 81.58972930908203 175.09555053710938 C 79.92509460449219 176.83404541015625 79.14561462402344 176.71044921875 75.75860595703125 173.07330322265625" stroke-width="1.0" fill="rgb(25, 11, 10)" opacity="0.9890484"/>
    <path d="M 146.01010131835938 174.63751220703125 C 144.2819366455078 173.15841674804688 144.71121215820312 171.44313049316406 147.41796875 166.24951171875 C 161.07601928710938 145.59945678710938 161.6187744140625 111.54828643798828 148.59014892578125 93.24091339111328 C 145.81736755371094 88.6679458618164 146.06008911132812 86.22320556640625 149.1714324951172 86.13286590576172 C 152.31724548339844 85.87676239013672 155.62974548339844 90.27648162841797 159.06231689453125 99.28640747070312 C 167.40399169921875 120.3565902709961 165.49774169921875 146.85964965820312 154.09896850585938 167.4688720703125 C 151.47320556640625 171.9365234375 148.49241638183594 175.4989013671875 147.54904174804688 175.50416564941406 C 147.19639587402344 175.66616821289062 146.5557098388672 175.23941040039062 146.01010131835938 174.63751220703125" stroke-width="1.0" fill="rgb(28, 10, 11)" opacity="0.98800796"/>
  </g>
</svg>
