<?xml version="1.0" ?>
<svg xmlns="http://www.w3.org/2000/svg" version="1.1" width="224" height="224">
  <defs/>
  <g>
    <path d="M 98.35305786132812 158.50128173828125 C 77.24884033203125 154.29481506347656 59.74022674560547 140.71044921875 52.89737319946289 122.48895263671875 C 48.89496994018555 113.053466796875 47.49456024169922 106.2195816040039 47.67982482910156 95.65693664550781 C 48.10432815551758 75.34281921386719 54.73798370361328 59.62734603881836 68.951416015625 45.313819885253906 C 76.06172943115234 38.55695343017578 86.84033966064453 32.701988220214844 96.76785278320312 30.296310424804688 C 104.13707733154297 28.03546142578125 120.82994079589844 28.0 128.3665313720703 30.349571228027344 C 151.15701293945312 36.41291809082031 168.69418334960938 54.4677734375 174.90188598632812 77.99832916259766 C 177.56640625 87.06209564208984 177.674072265625 104.68181610107422 174.63449096679688 114.01727294921875 C 169.37440490722656 134.44119262695312 154.52064514160156 149.64944458007812 133.52447509765625 156.46926879882812 C 126.32826232910156 159.14981079101562 123.90906524658203 159.64996337890625 114.82005310058594 159.63987731933594 C 107.57250213623047 160.1278076171875 101.97284698486328 159.631591796875 98.35305786132812 158.50128173828125" stroke-width="1.0" fill="rgb(28, 36, 49)" opacity="0.9931812"/>
    <path d="M 71.83961486816406 74.92387390136719 C 74.00746154785156 65.2725830078125 82.63874816894531 53.94777297973633 91.49229431152344 49.295494079589844 C 108.84076690673828 40.08953094482422 130.69244384765625 43.473289489746094 143.28811645507812 57.27507400512695 C 146.7381591796875 60.979705810546875 151.71405029296875 70.02265167236328 153.11302185058594 75.22323608398438 L 154.03228759765625 77.48979187011719 L 71.00541687011719 77.54203033447266 L 71.83961486816406 74.92387390136719" stroke-width="1.0" fill="rgb(208, 211, 213)" opacity="0.9956015"/>
    <path d="M 100.45419311523438 137.73162841796875 C 81.35602569580078 130.9217987060547 69.14752960205078 110.75 71.59919738769531 90.55885314941406 L 72.22669219970703 85.32698822021484 L 151.8338623046875 85.22419738769531 L 152.34799194335938 87.49853515625 C 153.43153381347656 91.05335998535156 152.9468231201172 101.64103698730469 151.68048095703125 106.99858856201172 C 148.42669677734375 119.69669342041016 139.62100219726562 130.3773651123047 128.1691131591797 135.8105926513672 C 122.93864440917969 138.3218994140625 120.70960998535156 138.91165161132812 113.4852066040039 139.0563507080078 C 107.33787536621094 139.35018920898438 104.12468719482422 139.0005645751953 100.45419311523438 137.73162841796875" stroke-width="1.0" fill="rgb(198, 172, 152)" opacity="0.99184406"/>
    <path d="M 34.639923095703125 188.77642822265625 C 35.69233703613281 171.92095947265625 45.84776306152344 154.49398803710938 59.533164978027344 145.16415405273438 L 65.20684814453125 141.36293029785156 L 70.78857421875 145.6055450439453 C 77.6304702758789 151.12545776367188 85.84091186523438 155.50970458984375 94.14402770996094 157.62452697753906 C 103.43834686279297 160.81796264648438 121.19827270507812 160.7027130126953 129.9466094970703 157.6832733154297 C 138.47779846191406 155.34010314941406 146.8814697265625 151.19247436523438 153.63453674316406 145.66842651367188 L 158.90821838378906 141.58837890625 L 164.29421997070312 144.9793243408203 C 179.09701538085938 154.70899963378906 189.8748779296875 174.61593627929688 189.76226806640625 190.77687072753906 L 189.9774169921875 196.0 L 34.02257537841797 195.8605194091797 L 34.639923095703125 188.77642822265625" stroke-width="1.0" fill="rgb(209, 212, 213)" opacity="0.9930239"/>
    <path d="M 100.85443878173828 113.75723266601562 L 100.89128112792969 111.50395202636719 L 123.46623992919922 111.4764404296875 L 123.5156021118164 116.23910522460938 L 100.46475982666016 116.23882293701172 L 100.85443878173828 113.75723266601562" stroke-width="1.0" fill="rgb(38, 41, 52)" opacity="0.9888418"/>
    <path d="M 98.89889526367188 143.2015380859375 C 90.61023712158203 140.7299041748047 84.78679656982422 137.2677001953125 78.37106323242188 130.9044189453125 C 68.96607971191406 121.05753326416016 63.8357048034668 108.46610260009766 64.0177230834961 94.71007537841797 C 63.92547607421875 85.41316986083984 64.1663818359375 85.13255310058594 69.84765625 85.29129791259766 L 75.64520263671875 85.34624481201172 L 75.15028381347656 94.16352844238281 C 75.19401550292969 100.93624877929688 75.7896728515625 104.38986206054688 77.08363342285156 108.04557037353516 C 81.10604095458984 120.57028198242188 90.15383911132812 129.65170288085938 102.1919174194336 133.28160095214844 C 115.2719955444336 137.43955993652344 129.55027770996094 133.0191192626953 139.429443359375 122.03447723388672 C 146.81161499023438 113.92607116699219 150.28152465820312 103.40635681152344 149.25982666015625 91.74665832519531 L 149.05360412597656 85.30026245117188 L 160.34837341308594 85.46605682373047 L 160.30899047851562 96.25347137451172 C 159.656005859375 109.18495178222656 157.8497772216797 114.71666717529297 151.72384643554688 123.93181610107422 C 145.34555053710938 133.47190856933594 135.46392822265625 140.400634765625 124.21942138671875 143.4696502685547 C 117.46646118164062 145.2514190673828 105.3996353149414 145.08267211914062 98.89889526367188 143.2015380859375" stroke-width="1.0" fill="rgb(0, 117, 170)" opacity="0.9917253"/>
  </g>
</svg>
