<?xml version="1.0" ?>
<svg xmlns="http://www.w3.org/2000/svg" version="1.1" width="224" height="224">
  <defs/>
  <g>
    <path d="M 147.7672576904297 191.91275024414062 C 145.29823303222656 191.93313598632812 142.6466522216797 190.189453125 140.4591064453125 188.79693603515625 C 134.30882263183594 182.83961486816406 136.64498901367188 181.87252807617188 126.59862518310547 183.30628967285156 C 115.64202880859375 188.07090759277344 106.37454986572266 188.2279052734375 97.76827239990234 183.85125732421875 C 88.81394958496094 182.0583038330078 89.3099365234375 183.1324005126953 84.2100601196289 187.99508666992188 C 76.89695739746094 193.7235107421875 68.34859466552734 194.19384765625 58.74995803833008 189.41290283203125 C 50.16972732543945 184.77691650390625 43.22174835205078 177.52352905273438 43.18495178222656 170.85140991210938 C 43.625343322753906 165.98922729492188 45.40879821777344 163.92588806152344 49.698760986328125 161.45501708984375 C 51.264739990234375 160.95663452148438 52.958396911621094 160.21875 55.24376678466797 160.56593322753906 C 54.077117919921875 158.06117248535156 51.89967346191406 154.46664428710938 50.57170104980469 150.24252319335938 C 45.983497619628906 134.46636962890625 44.37005615234375 128.2602996826172 44.14470672607422 108.04325103759766 C 44.801177978515625 97.22480773925781 46.21924591064453 88.06539916992188 46.51561737060547 87.23445129394531 L 48.07035446166992 81.82222747802734 L 111.59600067138672 81.20549011230469 C 164.3748016357422 81.8838119506836 175.99388122558594 81.97474670410156 176.48385620117188 83.0331802368164 C 179.6197509765625 88.96578979492188 181.3186798095703 118.27266693115234 178.22439575195312 131.63265991210938 C 177.69235229492188 135.68089294433594 175.69039916992188 143.44906616210938 174.1819305419922 148.29132080078125 C 172.1080780029297 153.57318115234375 169.8326873779297 158.3551025390625 169.12252807617188 161.13507080078125 C 170.78057861328125 160.73121643066406 173.0565185546875 160.72145080566406 175.737060546875 161.79879760742188 C 179.95584106445312 164.25067138671875 181.92108154296875 167.91946411132812 180.12754821777344 174.51626586914062 C 176.69442749023438 184.96414184570312 157.58355712890625 196.0 147.7672576904297 191.91275024414062" stroke-width="0.0" fill="rgb(75, 80, 92)" opacity="0.9933471"/>
    <path d="M 46.31624984741211 85.00587463378906 C 48.02354431152344 78.55706787109375 47.697731018066406 77.51953125 44.584197998046875 74.53282165527344 C 40.215545654296875 70.13689422607422 37.26622009277344 63.38951110839844 37.42146301269531 57.339744567871094 C 37.345603942871094 50.648773193359375 38.881004333496094 48.88976287841797 46.44126892089844 45.2626953125 C 49.910606384277344 43.528724670410156 56.5377082824707 39.44483184814453 60.802608489990234 36.05115509033203 C 69.9345703125 29.368804931640625 74.52037048339844 28.0 79.3726577758789 29.88665008544922 C 83.09140014648438 31.83550262451172 85.13533020019531 35.480712890625 88.67145538330078 47.01017761230469 C 90.1618423461914 52.55158996582031 91.8336181640625 57.36140441894531 91.98324584960938 57.710723876953125 C 92.26094818115234 58.18086624145508 94.269287109375 57.666534423828125 96.31578063964844 56.635948181152344 C 98.35791778564453 55.55870056152344 100.62889099121094 54.70457458496094 101.65968322753906 54.63549041748047 C 103.6344985961914 54.771095275878906 104.48275756835938 51.99987030029297 105.09162902832031 43.8377685546875 C 105.79530334472656 36.64476013183594 108.15306091308594 32.87757110595703 111.98657989501953 33.00762176513672 C 116.04908752441406 32.82648468017578 118.30239868164062 36.51947784423828 119.11187744140625 44.29772186279297 C 119.6274642944336 52.36395263671875 120.4601058959961 54.763343811035156 122.52890014648438 54.76051330566406 C 123.42810821533203 54.754493713378906 125.9272232055664 55.72650146484375 128.1790008544922 56.942138671875 C 131.06082153320312 58.821998596191406 132.1844024658203 59.19062042236328 132.5245361328125 58.263179779052734 C 132.66371154785156 57.636817932128906 134.1645965576172 52.64680480957031 135.5963592529297 46.961997985839844 C 137.28672790527344 41.51384735107422 139.1852569580078 35.9190673828125 139.83567810058594 34.63700866699219 C 141.5456085205078 31.495849609375 145.50967407226562 29.35747528076172 149.88278198242188 29.206680297851562 C 153.72378540039062 29.199325561523438 155.0142059326172 29.997535705566406 164.219970703125 36.98866271972656 C 168.27157592773438 39.68341064453125 174.16461181640625 43.294593811035156 177.092041015625 44.94728088378906 C 184.5487518310547 48.32170104980469 186.72613525390625 51.15636444091797 186.7337646484375 56.72418212890625 C 186.70074462890625 62.7828483581543 184.3082733154297 68.79011535644531 179.90975952148438 73.71711730957031 C 176.55596923828125 77.67879486083984 175.89944458007812 78.28773498535156 176.4188690185547 81.2974853515625 L 177.3864288330078 84.82037353515625 L 111.7437973022461 85.04141235351562 C 60.32529830932617 85.00347900390625 46.59602355957031 84.8479232788086 46.32603073120117 85.87663269042969 C 46.11030578613281 86.55064392089844 46.04071044921875 86.26631927490234 46.31624984741211 85.00587463378906" stroke-width="1.0" fill="rgb(190, 191, 192)" opacity="0.9891932"/>
    <path d="M 79.259521484375 126.0111083984375 C 72.94818115234375 123.29578399658203 70.3369140625 117.3223648071289 73.09972381591797 111.7170181274414 C 76.97616577148438 103.20142364501953 89.05953216552734 103.07485961914062 92.89424133300781 111.52450561523438 C 93.94048309326172 113.10343933105469 94.47760772705078 115.37150573730469 94.50965118408203 116.18283081054688 C 94.62281036376953 119.25211334228516 90.87629699707031 124.33678436279297 87.35891723632812 125.81385803222656 C 83.5748519897461 127.24519348144531 82.78244018554688 127.35631561279297 79.259521484375 126.0111083984375" stroke-width="1.0" fill="rgb(253, 253, 253)" opacity="0.99669"/>
    <path d="M 136.96536254882812 125.95026397705078 C 133.58935546875 124.76866912841797 130.61676025390625 120.96731567382812 130.04083251953125 117.43986511230469 C 128.51136779785156 107.67487335205078 140.3698272705078 101.46076965332031 148.23719787597656 107.82484436035156 C 155.59779357910156 114.51795196533203 152.06640625 125.04454803466797 142.07870483398438 126.49044036865234 C 140.04612731933594 126.78949737548828 137.8719940185547 126.6294937133789 136.96536254882812 125.95026397705078" stroke-width="1.0" fill="rgb(253, 254, 254)" opacity="0.99985546"/>
    <path d="M 94.40545654296875 161.09103393554688 C 89.19446563720703 158.3439178466797 87.26849365234375 150.36654663085938 90.64724731445312 146.9708251953125 C 91.82709503173828 145.39280700683594 94.34397888183594 145.27313232421875 111.73509979248047 145.2351837158203 C 130.59698486328125 145.1537322998047 132.0769500732422 145.2569122314453 133.46731567382812 147.08262634277344 C 136.8014373779297 150.91888427734375 134.92288208007812 158.2770538330078 129.64718627929688 161.10008239746094 C 126.09811401367188 163.21456909179688 97.85309600830078 163.2855987548828 94.40545654296875 161.09103393554688" stroke-width="1.0" fill="rgb(243, 217, 114)" opacity="0.9977457"/>
    <path d="M 103.21886444091797 182.07244873046875 C 98.1331787109375 179.64968872070312 94.12104034423828 174.01431274414062 94.08621978759766 169.90786743164062 C 94.12762451171875 164.71868896484375 97.47396850585938 163.1292266845703 110.76618957519531 162.67501831054688 C 120.60711669921875 162.3728485107422 122.31391143798828 162.645751953125 125.24017333984375 164.49745178222656 C 127.15845489501953 165.47567749023438 128.82823181152344 167.138427734375 129.02207946777344 167.83070373535156 C 130.6561279296875 171.93031311035156 125.73863983154297 179.37982177734375 119.24503326416016 182.28662109375 C 114.01129913330078 184.66619873046875 108.22085571289062 184.64369201660156 103.21886444091797 182.07244873046875" stroke-width="1.0" fill="rgb(200, 113, 119)" opacity="0.9811693"/>
    <path d="M 80.196533203125 119.55803680419922 C 78.24990844726562 116.34382629394531 78.97978210449219 112.94397735595703 82.27201843261719 110.76178741455078 C 84.90105438232422 109.22483825683594 85.23786163330078 109.16392517089844 87.62921142578125 110.73075866699219 C 90.86474609375 113.00184631347656 91.77597045898438 116.2097396850586 89.91571044921875 119.46157836914062 C 88.88652038574219 121.0493392944336 87.23983001708984 121.85675811767578 85.19866943359375 121.77693939208984 C 82.9981460571289 122.060546875 81.46488952636719 121.0809097290039 80.196533203125 119.55803680419922" stroke-width="1.0" fill="rgb(77, 83, 94)" opacity="0.9784773"/>
    <path d="M 135.10971069335938 119.9365463256836 C 132.1301727294922 116.53056335449219 132.89358520507812 112.94964599609375 137.1625213623047 110.65811157226562 C 142.14283752441406 108.14230346679688 146.96258544921875 114.77642822265625 143.938720703125 119.27174377441406 C 142.11534118652344 122.27207946777344 137.37770080566406 122.61599731445312 135.10971069335938 119.9365463256836" stroke-width="1.0" fill="rgb(77, 83, 94)" opacity="0.97651225"/>
    <path d="M 102.46617889404297 188.4821319580078 C 101.28729248046875 188.27734375 97.763916015625 187.1293487548828 95.13316345214844 185.6378173828125 C 89.69355010986328 183.6315155029297 88.87560272216797 183.51568603515625 87.45425415039062 184.6102294921875 C 86.66413879394531 185.11526489257812 87.20181274414062 184.21142578125 88.53057098388672 182.21881103515625 C 89.52889251708984 180.74542236328125 91.27985382080078 177.2270965576172 92.2895278930664 174.40386962890625 C 94.101806640625 169.16815185546875 94.81040954589844 168.33837890625 96.11131286621094 171.47320556640625 C 97.90784454345703 179.647705078125 109.2596206665039 184.81629943847656 118.04812622070312 181.3674774169922 C 121.77769470214844 179.94175720214844 125.89594268798828 176.23770141601562 127.71974182128906 172.21780395507812 L 129.0621795654297 168.94419860839844 L 130.4499053955078 172.36221313476562 C 131.4747772216797 174.21298217773438 132.8453369140625 177.59002685546875 133.54727172851562 179.56784057617188 L 135.62286376953125 183.26788330078125 L 133.60951232910156 183.80723571777344 C 132.93597412109375 184.26748657226562 129.30865478515625 185.47763061523438 125.43212127685547 186.76361083984375 C 120.4031753540039 188.60397338867188 117.17826843261719 189.08389282226562 111.65261840820312 189.11697387695312 C 107.47379302978516 189.00057983398438 103.31607818603516 188.80905151367188 102.46617889404297 188.4821319580078" stroke-width="1.0" fill="rgb(193, 196, 194)" opacity="0.9628014"/>
  </g>
</svg>
