<?xml version="1.0" ?>
<svg xmlns="http://www.w3.org/2000/svg" version="1.1" width="224" height="224">
  <defs/>
  <g>
    <path d="M 33.68324279785156 87.815673828125 L 27.99999237060547 87.29158020019531 L 28.587356567382812 78.95158386230469 C 29.518959045410156 62.44549560546875 34.21314239501953 55.481712341308594 49.86568832397461 47.48030090332031 C 77.31048583984375 33.27986145019531 108.98503875732422 28.852821350097656 138.17405700683594 34.75859832763672 C 154.57769775390625 37.82526397705078 173.72323608398438 45.821258544921875 184.53857421875 53.931678771972656 C 191.41302490234375 59.1568603515625 196.0 70.33069610595703 195.632568359375 81.95364379882812 L 195.84939575195312 87.56939697265625 L 188.1685333251953 88.19066619873047 C 181.20095825195312 88.44480895996094 42.41157531738281 88.00157928466797 33.68324279785156 87.815673828125" stroke-width="1.0" fill="rgb(185, 135, 106)" opacity="0.9892133"/>
    <path d="M 62.09748458862305 189.31851196289062 C 54.20263671875 186.14109802246094 46.733062744140625 183.03872680664062 45.63325500488281 182.18661499023438 C 44.46550750732422 181.46401977539062 42.55188751220703 180.66259765625 41.619651794433594 180.6969451904297 C 40.559104919433594 180.81338500976562 38.382530212402344 180.1187286376953 37.15446472167969 178.5047607421875 L 35.27861785888672 175.8859100341797 L 35.336151123046875 150.231689453125 C 35.102935791015625 130.10122680664062 35.409339904785156 124.36378479003906 36.73927307128906 122.81473541259766 C 37.27699279785156 121.3118896484375 43.87737274169922 121.13272094726562 111.266845703125 121.03218841552734 C 182.51504516601562 120.86994171142578 185.01934814453125 120.9043197631836 186.92698669433594 122.66569519042969 L 188.80453491210938 124.82684326171875 L 188.8567352294922 149.20571899414062 C 188.8920135498047 162.79478454589844 188.98019409179688 174.70838928222656 188.18685913085938 175.81112670898438 C 188.07315063476562 177.91648864746094 187.47715759277344 179.0559844970703 184.61981201171875 180.21942138671875 C 182.4686279296875 180.41796875 179.79185485839844 181.6623077392578 178.3614959716797 182.43441772460938 C 176.04473876953125 183.6041259765625 156.7415771484375 191.1381072998047 148.55740356445312 194.443359375 C 146.42666625976562 195.14718627929688 134.17718505859375 195.1066131591797 111.06462097167969 195.03651428222656 L 76.36122131347656 194.89341735839844 L 62.09748458862305 189.31851196289062" stroke-width="0.0" fill="rgb(185, 133, 104)" opacity="0.98883116"/>
    <path d="M 37.32221221923828 119.21038055419922 C 35.18573760986328 116.77101135253906 34.66709899902344 115.6226806640625 34.75946807861328 112.26599884033203 C 34.626922607421875 109.23295593261719 35.245094299316406 106.83983612060547 36.296417236328125 105.43293762207031 L 37.762939453125 103.03022766113281 L 111.62091064453125 102.72362518310547 C 181.25009155273438 103.13895416259766 186.03665161132812 103.04381561279297 187.34616088867188 104.7470932006836 C 190.70053100585938 108.42631530761719 189.58084106445312 116.72679138183594 185.47935485839844 120.23667907714844 C 183.3085479736328 122.06932067871094 182.4463348388672 121.69903564453125 111.31234741210938 121.7786865234375 L 39.96345520019531 121.78089141845703 L 37.32221221923828 119.21038055419922" stroke-width="1.0" fill="rgb(70, 72, 88)" opacity="0.9976814"/>
    <path d="M 147.6522979736328 189.26239013671875 C 147.50909423828125 181.013916015625 148.0724639892578 180.868896484375 165.19195556640625 180.87046813964844 C 182.1353759765625 180.89935302734375 182.67379760742188 181.14151000976562 182.5911102294922 189.5040283203125 L 182.6674041748047 194.994384765625 L 147.627197265625 194.873779296875 L 147.6522979736328 189.26239013671875" stroke-width="1.0" fill="rgb(70, 74, 88)" opacity="1.0"/>
    <path d="M 41.266258239746094 189.9506378173828 C 41.35932922363281 187.15036010742188 41.748680114746094 184.42689514160156 43.02214050292969 183.13442993164062 C 44.18195343017578 181.1587677001953 44.59751892089844 181.13035583496094 58.85763168334961 180.93711853027344 C 76.63558959960938 180.78416442871094 76.87641143798828 181.11122131347656 77.10737609863281 189.31948852539062 L 77.02458190917969 194.81512451171875 L 41.488380432128906 194.96824645996094 L 41.266258239746094 189.9506378173828" stroke-width="1.0" fill="rgb(69, 74, 88)" opacity="0.99781317"/>
    <path d="M 37.188865661621094 101.32170104980469 C 34.72608947753906 98.40928649902344 34.33721160888672 92.79447937011719 36.189361572265625 90.36378479003906 L 37.641929626464844 88.15986633300781 L 111.9566879272461 87.91468811035156 C 194.65402221679688 87.4310531616211 188.64955139160156 86.9537124633789 189.10540771484375 94.3392333984375 C 188.65951538085938 97.12078094482422 188.25125122070312 98.82438659667969 187.16517639160156 100.45930480957031 L 184.56536865234375 103.46885681152344 L 39.05084228515625 102.98880004882812 L 37.188865661621094 101.32170104980469" stroke-width="1.0" fill="rgb(86, 152, 83)" opacity="0.9859568"/>
  </g>
</svg>
