<?xml version="1.0" ?>
<svg xmlns="http://www.w3.org/2000/svg" version="1.1" width="224" height="224">
  <defs/>
  <g>
    <path d="M 38.6923828125 103.97822570800781 C 65.83540344238281 103.97822570800781 92.97842407226562 103.97822570800781 120.12145233154297 103.97822570800781 C 120.12145233154297 105.76092529296875 120.12145233154297 107.54286193847656 120.12145233154297 109.3255615234375 C 93.8697738647461 109.3255615234375 67.61810302734375 109.3255615234375 41.366432189941406 109.3255615234375 C 41.366432189941406 136.05918884277344 41.366432189941406 162.79205322265625 41.366432189941406 189.52569580078125 C 82.3570785522461 189.52569580078125 123.34772491455078 189.52569580078125 164.33837890625 189.52569580078125 C 164.33837890625 166.09011840820312 164.33837890625 142.65457153320312 164.33837890625 119.21824645996094 C 166.12107849121094 119.21824645996094 167.9029998779297 119.21824645996094 169.68495178222656 119.21824645996094 C 169.68495178222656 143.54515075683594 169.68495178222656 167.8720703125 169.68495178222656 192.19821166992188 C 169.2885284423828 194.18408203125 168.99752807617188 194.47508239746094 167.01165771484375 194.87225341796875 C 124.23908233642578 194.87225341796875 81.46572875976562 194.87225341796875 38.6923828125 194.87225341796875 C 36.70728302001953 194.47508239746094 36.41626739501953 194.18408203125 36.01909637451172 192.19821166992188 C 36.01909637451172 163.68264770507812 36.01909637451172 135.16783142089844 36.01909637451172 106.65227508544922 C 36.41626739501953 104.6664047241211 36.70728302001953 104.37539672851562 38.6923828125 103.97822570800781 C 38.6923828125 103.97822570800781 38.6923828125 103.97822570800781 38.6923828125 103.97822570800781" stroke-width="0.0" fill="rgb(0, 0, 0)" opacity="1.0"/>
    <path d="M 30.67328643798828 66.55374145507812 C 55.62421417236328 66.55374145507812 80.57437896728516 66.55374145507812 105.52454376220703 66.55374145507812 C 105.52454376220703 68.33567810058594 105.52454376220703 70.11761474609375 105.52454376220703 71.89955139160156 C 81.4649658203125 71.89955139160156 57.406150817871094 71.89955139160156 33.34733581542969 71.89955139160156 C 33.34733581542969 82.59269714355469 33.34733581542969 93.28584289550781 33.34733581542969 103.97822570800781 C 62.27153015136719 103.97822570800781 91.19648742675781 103.97822570800781 120.12145233154297 103.97822570800781 C 120.12145233154297 105.76092529296875 120.12145233154297 107.54286193847656 120.12145233154297 109.3255615234375 C 90.30514526367188 109.3255615234375 60.48959732055664 109.3255615234375 30.67328643798828 109.3255615234375 C 28.688186645507812 108.92838287353516 28.397171020507812 108.63738250732422 28.0 106.65227508544922 C 28.0 94.17642974853516 28.0 81.70134735107422 28.0 69.22627258300781 C 28.397171020507812 67.24116516113281 28.688949584960938 66.95015716552734 30.67328643798828 66.55374145507812 C 30.67328643798828 66.55374145507812 30.67328643798828 66.55374145507812 30.67328643798828 66.55374145507812" stroke-width="0.0" fill="rgb(0, 0, 0)" opacity="1.0"/>
    <path d="M 70.77334594726562 141.40652465820312 C 92.160400390625 141.40652465820312 113.54669189453125 141.40652465820312 134.9329833984375 141.40652465820312 C 136.91885375976562 141.80369567871094 137.20985412597656 142.09469604492188 137.60704040527344 144.07981872558594 C 137.60704040527344 160.11953735351562 137.60704040527344 176.1592559814453 137.60704040527344 192.19821166992188 C 137.20985412597656 194.18408203125 136.91885375976562 194.47508239746094 134.9329833984375 194.87225341796875 C 113.54669189453125 194.87225341796875 92.160400390625 194.87225341796875 70.77334594726562 194.87225341796875 C 68.78823852539062 194.47508239746094 68.49723052978516 194.18408203125 68.10005950927734 192.19821166992188 C 68.10005950927734 176.1592559814453 68.10005950927734 160.11953735351562 68.10005950927734 144.07981872558594 C 68.49723052978516 142.09469604492188 68.78823852539062 141.80369567871094 70.77334594726562 141.40652465820312 C 70.77334594726562 141.40652465820312 70.77334594726562 141.40652465820312 70.77334594726562 141.40652465820312" stroke-width="0.0" fill="rgb(0, 0, 0)" opacity="1.0"/>
    <path d="M 148.2986602783203 29.12773895263672 C 148.2986602783203 29.12773895263672 148.2986602783203 29.12773895263672 148.2986602783203 29.12773895263672 C 156.3872528076172 29.235427856445312 164.38877868652344 30.701919555664062 171.4859619140625 34.746986389160156 C 186.12413024902344 43.08916473388672 196.0 61.79911422729492 193.943115234375 78.61637878417969 C 193.02273559570312 86.13900756835938 189.7681884765625 92.94290161132812 185.4947509765625 99.11666870117188 C 173.80792236328125 114.64082336425781 162.121826171875 130.16421508789062 150.43499755859375 145.68760681152344 C 148.9608612060547 147.15638732910156 147.6837921142578 147.20909118652344 146.16383361816406 145.68760681152344 C 134.48997497558594 130.1825408935547 122.81612396240234 114.6782455444336 111.14225769042969 99.17318725585938 C 106.85736846923828 92.98490905761719 103.5867919921875 86.16650390625 102.6595458984375 78.62554168701172 C 100.59042358398438 61.80522537231445 110.4693603515625 43.09069061279297 125.11056518554688 34.746986389160156 C 132.20852661132812 30.701156616210938 140.2108154296875 29.235427856445312 148.2986602783203 29.12773895263672 C 148.2986602783203 29.12773895263672 148.2986602783203 29.12773895263672 148.2986602783203 29.12773895263672" stroke-width="0.0" fill="rgb(0, 0, 0)" opacity="1.0"/>
    <path d="M 73.4466323852539 146.75311279296875 C 73.4466323852539 161.01087951660156 73.4466323852539 175.2686767578125 73.4466323852539 189.52569580078125 C 93.05098724365234 189.52569580078125 112.65534210205078 189.52569580078125 132.2596893310547 189.52569580078125 C 132.2596893310547 175.2686767578125 132.2596893310547 161.01087951660156 132.2596893310547 146.75311279296875 C 112.65534210205078 146.75311279296875 93.05098724365234 146.75311279296875 73.4466323852539 146.75311279296875" stroke-width="0.0" fill="rgb(255, 255, 255)" opacity="1.0"/>
    <path d="M 38.6923828125 162.79129028320312 C 49.38629150390625 162.79129028320312 60.0802001953125 162.79129028320312 70.77334594726562 162.79129028320312 C 70.77334594726562 164.57322692871094 70.77334594726562 166.35592651367188 70.77334594726562 168.13784790039062 C 60.0802001953125 168.13784790039062 49.38629150390625 168.13784790039062 38.6923828125 168.13784790039062 C 38.6923828125 166.35592651367188 38.6923828125 164.57322692871094 38.6923828125 162.79129028320312" stroke-width="0.0" fill="rgb(0, 0, 0)" opacity="1.0"/>
    <path d="M 134.929931640625 162.79129028320312 C 145.6238250732422 162.79129028320312 156.3177490234375 162.79129028320312 167.01165771484375 162.79129028320312 C 167.01165771484375 164.57322692871094 167.01165771484375 166.35592651367188 167.01165771484375 168.13784790039062 C 156.3177490234375 168.13784790039062 145.6238250732422 168.13784790039062 134.929931640625 168.13784790039062 C 134.929931640625 166.35592651367188 134.929931640625 164.57322692871094 134.929931640625 162.79129028320312" stroke-width="0.0" fill="rgb(0, 0, 0)" opacity="1.0"/>
    <path d="M 148.2986602783203 34.475074768066406 C 148.2986602783203 34.475074768066406 148.2986602783203 34.475074768066406 148.2986602783203 34.475074768066406 C 141.182373046875 34.582000732421875 134.15696716308594 35.84379577636719 127.89842987060547 39.38475799560547 C 115.30036926269531 46.51326370239258 106.65878295898438 62.37577819824219 107.9136962890625 76.85582733154297 C 108.52320861816406 83.88733673095703 111.47528076171875 90.23524475097656 115.43403625488281 95.98509979248047 C 126.38915252685547 110.53541564941406 137.3442840576172 125.08496856689453 148.2986602783203 139.63528442382812 C 159.25302124023438 125.08496856689453 170.2066192626953 110.53541564941406 181.16098022460938 95.98509979248047 C 185.11973571777344 90.23524475097656 188.07180786132812 83.88733673095703 188.68130493164062 76.85582733154297 C 189.93699645996094 62.37654495239258 181.29541015625 46.51326370239258 168.6981201171875 39.38475799560547 C 162.44033813476562 35.84455871582031 155.41493225097656 34.582000732421875 148.2986602783203 34.475074768066406 C 148.2986602783203 34.475074768066406 148.2986602783203 34.475074768066406 148.2986602783203 34.475074768066406" stroke-width="0.0" fill="rgb(254, 254, 254)" opacity="1.0"/>
    <path d="M 100.1787338256836 144.07981872558594 C 101.96143341064453 144.07981872558594 103.74337005615234 144.07981872558594 105.52606964111328 144.07981872558594 C 105.52606964111328 160.11953735351562 105.52606964111328 176.1592559814453 105.52606964111328 192.19821166992188 C 103.74337005615234 192.19821166992188 101.96143341064453 192.19821166992188 100.1787338256836 192.19821166992188 C 100.1787338256836 176.1592559814453 100.1787338256836 160.11953735351562 100.1787338256836 144.07981872558594" stroke-width="0.0" fill="rgb(0, 0, 0)" opacity="1.0"/>
    <path d="M 89.48482513427734 157.4454803466797 C 91.26676177978516 157.4454803466797 93.0494613647461 157.4454803466797 94.8313980102539 157.4454803466797 C 94.8313980102539 161.01011657714844 94.8313980102539 164.5747528076172 94.8313980102539 168.13938903808594 C 93.0494613647461 168.13938903808594 91.26676177978516 168.13938903808594 89.48482513427734 168.13938903808594 C 89.48482513427734 164.5747528076172 89.48482513427734 161.01011657714844 89.48482513427734 157.4454803466797" stroke-width="0.0" fill="rgb(0, 0, 0)" opacity="1.0"/>
    <path d="M 110.87264251708984 157.4454803466797 C 112.65457916259766 157.4454803466797 114.43651580810547 157.4454803466797 116.21845245361328 157.4454803466797 C 116.21845245361328 161.01011657714844 116.21845245361328 164.5747528076172 116.21845245361328 168.13938903808594 C 114.43651580810547 168.13938903808594 112.65457916259766 168.13938903808594 110.87264251708984 168.13938903808594 C 110.87264251708984 164.5747528076172 110.87264251708984 161.01011657714844 110.87264251708984 157.4454803466797" stroke-width="0.0" fill="rgb(0, 0, 0)" opacity="1.0"/>
    <path d="M 52.060340881347656 165.46456909179688 C 53.84227752685547 165.46456909179688 55.62421417236328 165.46456909179688 57.406150817871094 165.46456909179688 C 57.406150817871094 174.37579345703125 57.406150817871094 183.2869873046875 57.406150817871094 192.19821166992188 C 55.62421417236328 192.19821166992188 53.84227752685547 192.19821166992188 52.060340881347656 192.19821166992188 C 52.060340881347656 183.2869873046875 52.060340881347656 174.37579345703125 52.060340881347656 165.46456909179688" stroke-width="0.0" fill="rgb(0, 0, 0)" opacity="1.0"/>
    <path d="M 148.29788208007812 165.46456909179688 C 150.07981872558594 165.46456909179688 151.86253356933594 165.46456909179688 153.6444549560547 165.46456909179688 C 153.6444549560547 174.37579345703125 153.6444549560547 183.2869873046875 153.6444549560547 192.19821166992188 C 151.86253356933594 192.19821166992188 150.07981872558594 192.19821166992188 148.29788208007812 192.19821166992188 C 148.29788208007812 183.2869873046875 148.29788208007812 174.37579345703125 148.29788208007812 165.46456909179688" stroke-width="0.0" fill="rgb(0, 0, 0)" opacity="1.0"/>
    <path d="M 148.2986602783203 39.82164764404297 C 148.2986602783203 39.82164764404297 148.2986602783203 39.82164764404297 148.2986602783203 39.82164764404297 C 153.90032958984375 39.932395935058594 159.3263397216797 40.99560546875 164.31851196289062 43.6230583190918 C 180.07028198242188 51.914066314697266 187.3507843017578 71.38780975341797 180.50564575195312 87.91407012939453 C 178.55413818359375 92.62669372558594 175.4668731689453 96.79548645019531 171.72886657714844 100.2463150024414 C 168.76686096191406 102.97994995117188 165.36874389648438 105.23619842529297 161.63987731933594 106.78059387207031 C 157.41761779785156 108.5296859741211 152.86004638671875 109.3255615234375 148.2986602783203 109.3255615234375 C 143.73802185058594 109.3255615234375 139.1796875 108.5296859741211 134.9566650390625 106.78059387207031 C 131.22781372070312 105.23619842529297 127.82891845703125 102.980712890625 124.86691284179688 100.2463150024414 C 121.12889862060547 96.79548645019531 118.04163360595703 92.62669372558594 116.08937072753906 87.91407012939453 C 109.24346160888672 71.38704681396484 116.52549743652344 51.91330337524414 132.2780303955078 43.6230583190918 C 137.27096557617188 40.99560546875 142.69773864746094 39.932395935058594 148.2986602783203 39.82164764404297 C 148.2986602783203 39.82164764404297 148.2986602783203 39.82164764404297 148.2986602783203 39.82164764404297" stroke-width="0.0" fill="rgb(0, 0, 0)" opacity="1.0"/>
    <path d="M 148.2986602783203 45.168216705322266 C 148.2986602783203 45.168216705322266 148.2986602783203 45.168216705322266 148.2986602783203 45.168216705322266 C 143.447021484375 45.27591323852539 138.76724243164062 46.2054557800293 134.46554565429688 48.532737731933594 C 121.31908416748047 55.64368438720703 115.29273223876953 71.97669982910156 121.04411315917969 85.86174774169922 C 122.71682739257812 89.90070343017578 125.37560272216797 93.4676284790039 128.59423828125 96.40824127197266 C 131.07122802734375 98.67213439941406 133.90567016601562 100.53961944580078 137.0089874267578 101.82508850097656 C 140.58201599121094 103.3053207397461 144.43919372558594 103.97822570800781 148.2986602783203 103.97822570800781 C 152.15811157226562 103.97822570800781 156.01451110839844 103.3053207397461 159.58755493164062 101.82508850097656 C 162.69009399414062 100.5403823852539 165.5245361328125 98.67213439941406 168.0007781982422 96.40900421142578 C 171.2194061279297 93.4676284790039 173.878173828125 89.90070343017578 175.5509033203125 85.86174774169922 C 181.30227661132812 71.97669982910156 175.2759246826172 55.64444351196289 162.13023376464844 48.532737731933594 C 157.8292999267578 46.2054557800293 153.15028381347656 45.27591323852539 148.2986602783203 45.168216705322266 C 148.2986602783203 45.168216705322266 148.2986602783203 45.168216705322266 148.2986602783203 45.168216705322266" stroke-width="0.0" fill="rgb(254, 254, 254)" opacity="1.0"/>
    <path d="M 142.95208740234375 53.18807601928711 C 146.51670837402344 53.18807601928711 150.08135986328125 53.18807601928711 153.64598083496094 53.18807601928711 C 155.63108825683594 53.58449172973633 155.92208862304688 53.87549591064453 156.31927490234375 55.86136245727539 C 156.31927490234375 58.53464889526367 156.31927490234375 61.20793533325195 156.31927490234375 63.881221771240234 C 158.99180603027344 63.881221771240234 161.66432189941406 63.881221771240234 164.3368377685547 63.881221771240234 C 166.32196044921875 64.27839660644531 166.6129608154297 64.56940460205078 167.01011657714844 66.55450439453125 C 167.01011657714844 70.119140625 167.01011657714844 73.68377685546875 167.01011657714844 77.2484130859375 C 166.6129608154297 79.2335205078125 166.32196044921875 79.5245361328125 164.3368377685547 79.92170715332031 C 161.66432189941406 79.92170715332031 158.99180603027344 79.92170715332031 156.31927490234375 79.92170715332031 C 156.31927490234375 84.37615966796875 156.31927490234375 88.83139038085938 156.31927490234375 93.28584289550781 C 155.92208862304688 95.27171325683594 155.63108825683594 95.5627212524414 153.64598083496094 95.9591293334961 C 150.08135986328125 95.9591293334961 146.51670837402344 95.9591293334961 142.95208740234375 95.9591293334961 C 140.9669647216797 95.5627212524414 140.67596435546875 95.27171325683594 140.27879333496094 93.28584289550781 C 140.27879333496094 88.83139038085938 140.27879333496094 84.37615966796875 140.27879333496094 79.92170715332031 C 137.6055145263672 79.92170715332031 134.93145751953125 79.92170715332031 132.25816345214844 79.92170715332031 C 130.2730712890625 79.5245361328125 129.9820556640625 79.2335205078125 129.5856475830078 77.2484130859375 C 129.5856475830078 73.68377685546875 129.5856475830078 70.119140625 129.5856475830078 66.55450439453125 C 129.9820556640625 64.56940460205078 130.2730712890625 64.27839660644531 132.25816345214844 63.881221771240234 C 134.93145751953125 63.881221771240234 137.6055145263672 63.881221771240234 140.27879333496094 63.881221771240234 C 140.27879333496094 61.20793533325195 140.27879333496094 58.53464889526367 140.27879333496094 55.86136245727539 C 140.67596435546875 53.87549591064453 140.9669647216797 53.58449172973633 142.95208740234375 53.18807601928711 C 142.95208740234375 53.18807601928711 142.95208740234375 53.18807601928711 142.95208740234375 53.18807601928711" stroke-width="0.0" fill="rgb(0, 0, 0)" opacity="1.0"/>
    <path d="M 145.6253662109375 58.53388595581055 C 145.6253662109375 61.20717239379883 145.6253662109375 63.88045883178711 145.6253662109375 66.55450439453125 C 145.2281951904297 68.53961181640625 144.93719482421875 68.83061981201172 142.95208740234375 69.22779846191406 C 140.27879333496094 69.22779846191406 137.6055145263672 69.22779846191406 134.93145751953125 69.22779846191406 C 134.93145751953125 71.00973510742188 134.93145751953125 72.79243469238281 134.93145751953125 74.57437133789062 C 137.6055145263672 74.57437133789062 140.27879333496094 74.57437133789062 142.95208740234375 74.57437133789062 C 144.93719482421875 74.97154235839844 145.2281951904297 75.2625503540039 145.6253662109375 77.2484130859375 C 145.6253662109375 81.702880859375 145.6253662109375 86.15809631347656 145.6253662109375 90.61255645751953 C 147.40806579589844 90.61255645751953 149.19000244140625 90.61255645751953 150.9727020263672 90.61255645751953 C 150.9727020263672 86.15809631347656 150.9727020263672 81.702880859375 150.9727020263672 77.2484130859375 C 151.369873046875 75.2625503540039 151.660888671875 74.97154235839844 153.64598083496094 74.57437133789062 C 156.31851196289062 74.57437133789062 158.99102783203125 74.57437133789062 161.66354370117188 74.57437133789062 C 161.66354370117188 72.79243469238281 161.66354370117188 71.00973510742188 161.66354370117188 69.22779846191406 C 158.99102783203125 69.22779846191406 156.31851196289062 69.22779846191406 153.64598083496094 69.22779846191406 C 151.660888671875 68.83061981201172 151.369873046875 68.53961181640625 150.9727020263672 66.55450439453125 C 150.9727020263672 63.88045883178711 150.9727020263672 61.20717239379883 150.9727020263672 58.53388595581055 C 149.19000244140625 58.53388595581055 147.40806579589844 58.53388595581055 145.6253662109375 58.53388595581055" stroke-width="0.0" fill="rgb(254, 254, 254)" opacity="1.0"/>
  </g>
</svg>
