<?xml version="1.0" ?>
<svg xmlns="http://www.w3.org/2000/svg" version="1.1" width="224" height="224">
  <defs/>
  <g>
    <path d="M 98.10926818847656 190.12115478515625 C 70.4989013671875 187.0804443359375 46.471946716308594 167.64505004882812 35.542694091796875 141.59902954101562 C 29.377639770507812 126.8800048828125 28.0 105.7226333618164 32.79925537109375 90.42028045654297 C 36.12340545654297 75.34825897216797 47.30200958251953 58.30080795288086 59.22348403930664 48.90073013305664 C 62.745079040527344 46.993064880371094 66.19924926757812 43.77931213378906 66.21554565429688 40.81134796142578 C 67.46751403808594 38.41161346435547 70.14625549316406 35.996826171875 72.42839813232422 35.641578674316406 C 75.12960815429688 33.132080078125 76.44831085205078 32.68431854248047 107.6057357788086 32.856117248535156 C 125.19212341308594 32.67138671875 141.3642578125 32.997169494628906 144.19956970214844 33.4393310546875 C 147.7967529296875 33.97834777832031 150.12442016601562 34.71917724609375 153.64866638183594 37.12999725341797 C 155.6828155517578 39.95550537109375 157.08596801757812 42.882225036621094 156.9018096923828 44.13099670410156 C 157.03811645507812 44.66809844970703 158.6226348876953 45.975135803222656 160.39755249023438 47.171329498291016 C 165.00660705566406 50.2000617980957 173.9293975830078 58.92754364013672 178.662841796875 66.25228881835938 C 190.9826202392578 83.97569274902344 196.0 109.21697235107422 190.3670196533203 130.694091796875 C 184.33135986328125 157.82257080078125 161.15206909179688 181.12718200683594 135.09237670898438 188.1024169921875 C 125.79127502441406 190.61143493652344 108.07330322265625 191.32861328125 98.10926818847656 190.12115478515625" stroke-width="1.0" fill="rgb(1, 2, 2)" opacity="0.99016"/>
    <path d="M 93.94121551513672 182.5443115234375 C 74.78926086425781 179.2151336669922 68.86073303222656 174.08956909179688 73.99288177490234 166.04763793945312 L 76.4046630859375 163.5045166015625 L 111.25489044189453 162.99114990234375 C 144.17788696289062 162.96359252929688 146.2570343017578 162.85357666015625 148.24072265625 165.38671875 C 151.470947265625 168.90061950683594 151.35433959960938 174.00796508789062 147.47622680664062 176.4063720703125 C 141.6142120361328 180.0270233154297 131.3075714111328 183.00210571289062 114.66326904296875 184.12478637695312 C 105.87918853759766 184.03709411621094 96.57872772216797 183.04971313476562 93.94121551513672 182.5443115234375" stroke-width="1.0" fill="rgb(253, 255, 255)" opacity="0.9983834"/>
    <path d="M 56.03821563720703 161.86605834960938 C 29.629310607910156 133.81849670410156 29.84362030029297 89.24876403808594 56.40380096435547 60.630348205566406 C 60.19363021850586 56.74469757080078 63.38093948364258 53.86965560913086 64.45523834228516 53.20832061767578 C 65.15264892578125 54.17677688598633 65.28990936279297 55.689517974853516 65.64909362792969 57.68608474731445 C 66.82077026367188 59.872493743896484 63.917118072509766 62.18816375732422 59.93509292602539 66.19061279296875 C 52.95104217529297 72.86153411865234 45.935218811035156 85.61215209960938 43.82056427001953 95.40985107421875 C 38.575538635253906 116.4590835571289 45.15071105957031 141.6971435546875 60.69042205810547 157.9305419921875 C 66.56175231933594 163.4482421875 68.44586944580078 164.84368896484375 66.75762939453125 166.9988250732422 C 66.84957885742188 168.0518798828125 66.53485107421875 169.50347900390625 65.47020721435547 169.78709411621094 C 64.7266845703125 169.5562286376953 60.72642517089844 166.318603515625 56.03821563720703 161.86605834960938" stroke-width="1.0" fill="rgb(251, 252, 252)" opacity="0.988876"/>
    <path d="M 155.7158966064453 167.24923706054688 C 154.58969116210938 164.5790252685547 155.23858642578125 163.18055725097656 159.34268188476562 159.70846557617188 C 169.42776489257812 150.8531494140625 177.8278350830078 135.76089477539062 179.81515502929688 120.53105163574219 C 182.80604553222656 102.48291015625 175.730712890625 81.01715087890625 162.7126007080078 66.69839477539062 C 157.88633728027344 61.58701705932617 155.47537231445312 60.23366928100586 156.9528045654297 57.489280700683594 L 157.8523712158203 52.76719665527344 L 166.12753295898438 60.278873443603516 C 173.98052978515625 69.64167022705078 179.53411865234375 78.80338287353516 183.01153564453125 90.96437072753906 C 186.90914916992188 100.9151840209961 187.11077880859375 120.01205444335938 183.63259887695312 130.9890594482422 C 181.20697021484375 141.69302368164062 175.0389404296875 152.15716552734375 167.7826385498047 160.3660125732422 C 158.74032592773438 169.23361206054688 156.16302490234375 171.0958251953125 155.7158966064453 167.24923706054688" stroke-width="1.0" fill="rgb(249, 250, 250)" opacity="0.9807675"/>
    <path d="M 64.88218688964844 153.28480529785156 C 43.87030029296875 131.6602020263672 42.88336944580078 94.44854736328125 63.01923751831055 71.84275817871094 L 68.54134368896484 65.91983032226562 L 72.50660705566406 68.26605224609375 C 74.31260681152344 69.21295166015625 77.35122680664062 70.51670837402344 79.53601837158203 70.60089111328125 C 83.23272705078125 71.1065673828125 83.22233581542969 71.61952209472656 76.5041732788086 76.70074462890625 C 68.67727661132812 82.6536636352539 63.24275207519531 94.30256652832031 62.004150390625 104.35071563720703 C 59.64380645751953 116.04795837402344 64.20193481445312 131.41030883789062 73.05055236816406 141.50474548339844 C 78.17047119140625 147.3810577392578 87.80297088623047 153.95245361328125 94.6375961303711 154.44468688964844 C 99.35731506347656 156.55657958984375 97.78390502929688 156.96682739257812 87.29547119140625 156.46823120117188 C 80.44087219238281 156.41127014160156 74.8138427734375 157.55673217773438 73.96315002441406 158.70330810546875 C 71.78701782226562 159.09164428710938 70.05500793457031 158.21194458007812 64.88218688964844 153.28480529785156" stroke-width="1.0" fill="rgb(252, 254, 255)" opacity="0.9972697"/>
    <path d="M 147.39491271972656 157.69387817382812 C 145.78817749023438 157.10609436035156 140.77574157714844 156.60092163085938 135.72398376464844 156.6090087890625 C 127.90316772460938 156.84393310546875 125.26795196533203 156.73275756835938 127.39561462402344 154.6940155029297 C 139.01255798339844 151.38720703125 141.4800262451172 148.81773376464844 147.40846252441406 143.2221221923828 C 165.81991577148438 124.65457153320312 165.5704345703125 97.22811889648438 146.84152221679688 77.81806182861328 C 140.17919921875 72.34115600585938 139.8927764892578 71.11428833007812 142.62298583984375 70.00816345214844 C 144.91845703125 70.50657653808594 147.64715576171875 69.39900207519531 149.2110137939453 68.34266662597656 L 153.69102478027344 66.07539367675781 L 159.31129455566406 71.7208251953125 C 164.74990844726562 78.27874755859375 169.81704711914062 87.40001678466797 172.03466796875 96.65519714355469 C 174.75808715820312 104.03385162353516 174.87283325195312 119.1886215209961 172.17930603027344 127.29606628417969 C 170.11167907714844 136.63998413085938 163.63534545898438 147.5205841064453 157.32562255859375 153.70309448242188 C 150.73077392578125 159.5340576171875 150.85801696777344 159.55938720703125 147.39491271972656 157.69387817382812" stroke-width="1.0" fill="rgb(252, 254, 254)" opacity="0.9962181"/>
    <path d="M 90.56999969482422 147.03036499023438 C 84.33889770507812 144.85781860351562 76.5556869506836 137.3695068359375 72.50962829589844 130.21095275878906 C 62.78479766845703 111.27661895751953 67.78153228759766 90.66844177246094 86.32843017578125 76.39554595947266 L 93.455078125 71.199951171875 L 128.7956085205078 71.26348876953125 L 136.42706298828125 76.66323852539062 C 148.68289184570312 86.47339630126953 154.23129272460938 97.21031188964844 154.8365478515625 110.79228210449219 C 154.7749481201172 120.22339630126953 152.43728637695312 127.29045104980469 146.85580444335938 134.59800720214844 C 142.86509704589844 140.51385498046875 135.0820770263672 146.03530883789062 129.17721557617188 147.28469848632812 C 123.15933990478516 148.68832397460938 96.07584381103516 148.78431701660156 90.56999969482422 147.03036499023438" stroke-width="1.0" fill="rgb(252, 253, 253)" opacity="0.99696565"/>
    <path d="M 78.53721618652344 64.24439239501953 C 72.51434326171875 63.45050048828125 68.61837768554688 55.240074157714844 73.35088348388672 51.80483627319336 C 76.13449096679688 51.56306838989258 145.7584991455078 51.674007415771484 148.66238403320312 51.88432693481445 C 152.09381103515625 54.42754364013672 151.63577270507812 57.2863655090332 148.68356323242188 60.962100982666016 L 145.71180725097656 64.14476776123047 L 114.28361511230469 64.19619750976562 C 96.75006103515625 64.21271514892578 80.1439208984375 64.51178741455078 78.53721618652344 64.24439239501953" stroke-width="1.0" fill="rgb(253, 255, 254)" opacity="0.9981056"/>
    <path d="M 73.9953384399414 41.89247131347656 C 76.42152404785156 39.47224426269531 76.79032897949219 39.40552520751953 111.48341369628906 39.47461700439453 C 145.58248901367188 39.45838165283203 145.76004028320312 39.517433166503906 148.22994995117188 41.958641052246094 L 150.42401123046875 44.87920379638672 L 71.92216491699219 44.86874008178711 L 73.9953384399414 41.89247131347656" stroke-width="1.0" fill="rgb(248, 249, 249)" opacity="0.97835183"/>
    <path d="M 89.87052917480469 139.9085693359375 C 84.34048461914062 137.38925170898438 79.15164947509766 132.2338104248047 76.60700988769531 126.0525131225586 C 74.57867431640625 121.35467529296875 73.77800750732422 119.43040466308594 72.92167663574219 110.7534408569336 C 73.8427734375 103.00089263916016 74.71142578125 101.20569610595703 76.76797485351562 96.74958038330078 C 79.63892364501953 89.8721923828125 84.77571105957031 84.83564758300781 90.50048828125 82.14912414550781 C 94.94689178466797 80.96086120605469 124.33600616455078 81.07354736328125 130.72412109375 81.86870574951172 C 137.14442443847656 83.6119384765625 145.35784912109375 92.34188842773438 147.41563415527344 100.03589630126953 C 150.54696655273438 107.21375274658203 149.79779052734375 119.98942565917969 146.1636199951172 126.104736328125 C 143.79360961914062 131.78680419921875 137.36221313476562 137.92120361328125 132.1199188232422 140.22506713867188 C 126.39904022216797 141.91192626953125 94.19659423828125 141.86080932617188 89.87052917480469 139.9085693359375" stroke-width="1.0" fill="rgb(0, 0, 0)" opacity="1.0"/>
    <path d="M 88.78048706054688 132.09080505371094 C 83.42619323730469 126.85907745361328 80.40372467041016 121.19586944580078 79.71231079101562 111.65129089355469 C 80.17184448242188 102.66143035888672 82.10910034179688 97.56564331054688 87.20484161376953 92.0606689453125 C 92.36457824707031 87.18416595458984 96.30107116699219 88.67445373535156 90.6041259765625 93.48848724365234 C 81.22428131103516 104.19035339355469 80.93220520019531 118.20143127441406 91.002197265625 129.7265167236328 C 95.85103607177734 134.33152770996094 93.6653060913086 136.34165954589844 88.78048706054688 132.09080505371094" stroke-width="1.0" fill="rgb(244, 244, 245)" opacity="0.9604851"/>
    <path d="M 102.05852508544922 131.3097381591797 C 87.6866226196289 123.83808898925781 85.48751831054688 105.42615509033203 97.18616485595703 94.91749572753906 C 115.57684326171875 79.46841430664062 140.8109588623047 100.82955932617188 129.73654174804688 122.3498306274414 C 126.20042419433594 128.53558349609375 119.9765625 132.5856170654297 111.95531463623047 133.17401123046875 C 107.4428939819336 133.16763305664062 104.33712768554688 132.38900756835938 102.05852508544922 131.3097381591797" stroke-width="1.0" fill="rgb(252, 254, 254)" opacity="0.9957184"/>
    <path d="M 128.5546417236328 132.6154327392578 C 130.13754272460938 131.05885314941406 131.7131805419922 129.19374084472656 133.64163208007812 127.3552017211914 C 136.76870727539062 123.2587890625 138.30735778808594 117.88265991210938 138.5869598388672 111.7549057006836 C 138.06451416015625 104.87834930419922 136.59292602539062 100.20927429199219 132.10983276367188 94.44585418701172 C 125.79337310791016 88.77105712890625 128.1757049560547 87.3466796875 135.23666381835938 92.59849548339844 C 143.98257446289062 101.71104431152344 145.39129638671875 117.18595123291016 137.25186157226562 127.83274841308594 C 133.9586944580078 131.75665283203125 128.3056640625 135.78585815429688 128.5546417236328 132.6154327392578" stroke-width="1.0" fill="rgb(245, 246, 246)" opacity="0.96715486"/>
  </g>
</svg>
