<?xml version="1.0" ?>
<svg xmlns="http://www.w3.org/2000/svg" version="1.1" width="224" height="224">
  <defs/>
  <g>
    <path d="M 29.380477905273438 155.7758331298828 C 28.251747131347656 155.30853271484375 28.00000762939453 153.81861877441406 28.65711212158203 151.23379516601562 C 28.786155700683594 150.3858642578125 28.718719482421875 149.39077758789062 31.414932250976562 149.61676025390625 C 34.325172424316406 150.14715576171875 34.18731689453125 150.0359649658203 34.70610809326172 146.778076171875 C 34.798309326171875 143.25782775878906 33.97063446044922 144.13722229003906 29.826011657714844 144.4342803955078 C 28.366409301757812 143.79718017578125 28.306175231933594 142.98651123046875 28.632400512695312 139.6567840576172 C 28.113433837890625 138.18295288085938 28.080184936523438 138.30081176757812 34.67913055419922 138.14755249023438 L 43.31041717529297 138.1781768798828 L 42.75627899169922 129.7284698486328 C 43.29420471191406 124.08277893066406 43.10011291503906 120.44719696044922 42.226356506347656 121.29624938964844 C 41.226409912109375 121.15230560302734 41.10785675048828 119.60804748535156 41.259742736816406 117.47529602050781 C 40.77239990234375 114.71622467041016 41.157997131347656 114.52472686767578 47.679832458496094 114.60372924804688 L 53.78165817260742 114.7039566040039 L 53.507625579833984 104.74403381347656 L 52.30311584472656 94.90814971923828 L 59.7697639465332 94.83935546875 C 64.22650146484375 94.42082977294922 64.92132568359375 93.88818359375 69.54215240478516 98.75630187988281 C 72.09375762939453 100.54904174804688 74.20747375488281 102.46649169921875 74.8358154296875 102.70222473144531 C 75.13414001464844 101.69883728027344 75.13461303710938 98.26425170898438 74.91182708740234 95.02188110351562 L 73.87298583984375 86.57057189941406 L 92.41217041015625 86.59547424316406 L 101.50617980957031 77.86398315429688 C 106.8697509765625 73.199951171875 110.72706604003906 68.11898803710938 111.87163543701172 68.1939468383789 C 113.271484375 68.25495910644531 117.18836975097656 73.24610900878906 122.54752349853516 77.97323608398438 L 131.1759796142578 86.17684173583984 L 150.1082763671875 86.26510620117188 L 149.09939575195312 95.00007629394531 C 148.7245635986328 99.17705535888672 148.5587158203125 102.63600158691406 148.97068786621094 102.93461608886719 C 149.6279754638672 102.49574279785156 151.95407104492188 100.5738525390625 154.15835571289062 98.5440902709961 C 158.74642944335938 94.04278564453125 158.90966796875 94.67412567138672 165.32034301757812 94.85760498046875 L 171.2732391357422 95.0359878540039 L 170.05337524414062 105.17147827148438 L 169.90625 114.83989715576172 L 182.34518432617188 115.08879089355469 L 182.6510467529297 118.02808380126953 C 183.285888671875 119.12381744384766 183.36065673828125 121.18621826171875 181.4156494140625 121.56552124023438 C 181.13885498046875 122.23167419433594 181.0101776123047 125.61377716064453 181.23678588867188 129.92172241210938 L 181.11361694335938 138.24551391601562 L 189.008544921875 138.43177795410156 C 195.79391479492188 138.05551147460938 196.0 137.6029052734375 195.63134765625 139.5104522705078 C 195.9149169921875 143.562255859375 195.8033447265625 144.19927978515625 193.15182495117188 144.38197326660156 C 189.09686279296875 144.24252319335938 188.57302856445312 143.985595703125 188.90982055664062 146.63323974609375 C 188.62139892578125 150.328857421875 188.19297790527344 150.42996215820312 192.24105834960938 149.6317596435547 C 195.41256713867188 149.26864624023438 195.58688354492188 150.1852264404297 195.04931640625 152.5564422607422 C 195.7860107421875 152.80535888671875 195.6432647705078 154.62451171875 194.5853729248047 155.88101196289062 C 193.63375854492188 155.77947998046875 29.21202850341797 155.7880096435547 29.380477905273438 155.7758331298828" stroke-width="1.0" fill="rgb(0, 1, 1)" opacity="1.0"/>
    <path d="M 39.55016326904297 146.47927856445312 L 39.6409912109375 144.34454345703125 L 88.69747924804688 144.203857421875 L 99.81134033203125 133.6134033203125 L 112.09172821044922 122.62308502197266 L 123.87986755371094 133.66842651367188 L 134.66827392578125 144.21385192871094 L 160.22299194335938 144.13912963867188 C 184.20004272460938 144.3804168701172 185.09710693359375 142.74830627441406 183.59097290039062 147.74293518066406 C 185.12416076660156 150.59390258789062 184.18833923339844 149.48928833007812 112.57660675048828 149.8499755859375 L 38.963966369628906 149.93687438964844 L 39.55016326904297 146.47927856445312" stroke-width="1.0" fill="rgb(250, 253, 253)" opacity="0.991378"/>
    <path d="M 47.930397033691406 129.61534118652344 L 48.091712951660156 121.43892669677734 L 51.82876968383789 121.33021545410156 C 54.931243896484375 121.05888366699219 55.75229263305664 121.97096252441406 63.23141098022461 129.9307098388672 L 71.77676391601562 138.2590789794922 L 47.746490478515625 138.3655242919922 L 47.930397033691406 129.61534118652344" stroke-width="1.0" fill="rgb(252, 254, 254)" opacity="0.9959971"/>
    <path d="M 84.24166870117188 134.97482299804688 C 84.24046325683594 129.61407470703125 90.07682037353516 120.51018524169922 99.86197662353516 110.3100814819336 L 109.37963104248047 101.41605377197266 L 109.38571166992188 109.43121337890625 L 109.5517349243164 118.04231262207031 L 98.22379302978516 128.27589416503906 C 91.95695495605469 133.97732543945312 86.34062957763672 139.02670288085938 85.7249755859375 138.97789001464844 C 85.04713439941406 138.85089111328125 84.49488830566406 136.94407653808594 84.24166870117188 134.97482299804688" stroke-width="1.0" fill="rgb(253, 254, 254)" opacity="0.9970233"/>
    <path d="M 125.47608184814453 128.0329132080078 L 114.04098510742188 117.84239196777344 L 114.30110931396484 100.96783447265625 L 118.54347229003906 104.75802612304688 C 123.03157043457031 108.76200866699219 129.9244842529297 116.46646118164062 135.2073211669922 124.39678955078125 C 138.40643310546875 129.68096923828125 139.27474975585938 132.19900512695312 139.07577514648438 135.03416442871094 C 139.20840454101562 137.60525512695312 138.80743408203125 138.45005798339844 137.61781311035156 138.5903778076172 C 137.10997009277344 138.83270263671875 131.7412109375 133.73976135253906 125.47608184814453 128.0329132080078" stroke-width="1.0" fill="rgb(252, 253, 254)" opacity="0.9948358"/>
    <path d="M 160.8445281982422 129.89401245117188 C 168.5218505859375 122.01700592041016 169.24952697753906 120.92135620117188 172.14337158203125 120.83539581298828 L 176.02035522460938 121.30968475341797 L 176.0070037841797 138.37094116210938 L 152.48568725585938 138.31736755371094 L 160.8445281982422 129.89401245117188" stroke-width="1.0" fill="rgb(252, 254, 254)" opacity="0.9956572"/>
    <path d="M 68.07473754882812 127.36735534667969 L 58.23534393310547 117.15380096435547 L 58.64665222167969 109.05293273925781 C 58.43218994140625 100.73563385009766 58.198036193847656 100.6919174194336 60.74076843261719 100.95022583007812 C 62.34687423706055 100.09071350097656 66.14798736572266 102.6261215209961 71.58326721191406 107.19573211669922 L 79.22373962402344 113.61800384521484 L 78.97830200195312 125.92334747314453 C 79.68443298339844 132.75018310546875 79.51736450195312 138.12216186523438 79.06979370117188 138.14349365234375 C 78.14057922363281 137.7862091064453 73.44367980957031 132.97544860839844 68.07473754882812 127.36735534667969" stroke-width="1.0" fill="rgb(253, 254, 254)" opacity="0.9996884"/>
    <path d="M 144.63461303710938 125.83920288085938 L 144.70785522460938 113.291748046875 L 152.50381469726562 107.15251922607422 C 157.28652954101562 103.15364074707031 161.7001953125 99.96266174316406 162.56771850585938 101.10851287841797 C 164.88951110839844 100.44588470458984 165.0938262939453 100.5445556640625 165.0497589111328 109.70033264160156 L 165.28607177734375 118.16849517822266 L 155.4105987548828 128.0358123779297 C 150.1796112060547 133.2285614013672 145.63099670410156 137.67120361328125 145.12750244140625 138.0059051513672 C 144.36660766601562 138.0106964111328 144.20404052734375 132.39028930664062 144.63461303710938 125.83920288085938" stroke-width="1.0" fill="rgb(253, 255, 255)" opacity="1.0"/>
    <path d="M 83.9491195678711 114.15034484863281 L 83.75271606445312 105.72090148925781 L 88.22944641113281 101.03841400146484 L 92.86315155029297 96.5342788696289 L 92.950927734375 103.31636047363281 C 93.2525405883789 110.037841796875 93.41212463378906 110.64665985107422 88.59864044189453 116.00346374511719 L 84.18698120117188 122.35956573486328 L 83.9491195678711 114.15034484863281" stroke-width="1.0" fill="rgb(249, 251, 250)" opacity="0.9836219"/>
    <path d="M 135.40234375 115.94456481933594 C 130.75038146972656 110.66656494140625 130.52957153320312 110.22445678710938 130.86940002441406 103.11346435546875 L 130.94224548339844 96.5608901977539 L 135.1112060546875 101.04287719726562 L 140.0973358154297 105.70951843261719 L 139.91334533691406 114.27568054199219 L 139.88241577148438 122.37946319580078 L 135.40234375 115.94456481933594" stroke-width="1.0" fill="rgb(251, 252, 253)" opacity="0.99109745"/>
    <path d="M 97.46652221679688 97.333740234375 L 97.81925964355469 88.86357116699219 L 103.70989990234375 83.17700958251953 L 109.17105865478516 77.41285705566406 L 109.31560516357422 93.91682434082031 L 103.64815521240234 99.39447021484375 L 98.07097625732422 105.16593933105469 L 97.46652221679688 97.333740234375" stroke-width="1.0" fill="rgb(251, 252, 252)" opacity="0.98999923"/>
    <path d="M 120.2474136352539 99.28265380859375 L 114.41266632080078 93.86397552490234 L 114.34907531738281 77.04371643066406 L 120.24972534179688 83.07869720458984 L 125.99280548095703 89.0677261352539 L 125.84957885742188 97.20913696289062 L 126.05693817138672 105.1561050415039 L 120.2474136352539 99.28265380859375" stroke-width="1.0" fill="rgb(252, 253, 253)" opacity="0.99406123"/>
    <path d="M 139.47384643554688 97.69584655761719 C 137.10311889648438 95.38824462890625 135.02833557128906 93.35958099365234 135.06761169433594 92.91149139404297 C 135.0847625732422 92.30362701416016 136.70489501953125 92.30302429199219 139.0727996826172 92.28135681152344 L 143.84982299804688 92.20915985107422 L 143.7188262939453 96.87101745605469 C 143.8375701904297 99.56765747070312 143.94940185546875 101.499267578125 143.51376342773438 101.90338897705078 C 143.58279418945312 101.9028549194336 141.7361602783203 100.03945922851562 139.47384643554688 97.69584655761719" stroke-width="1.0" fill="rgb(245, 247, 247)" opacity="0.969338"/>
    <path d="M 80.06086730957031 96.85626983642578 C 79.62576293945312 92.23697662353516 79.97879791259766 92.1582260131836 85.0318832397461 92.43597412109375 L 89.49698638916016 92.79832458496094 L 85.19304656982422 96.8017807006836 C 82.3598861694336 99.4987564086914 80.2811279296875 101.29335021972656 80.29505157470703 101.61756134033203 C 79.89871978759766 101.369873046875 79.94990539550781 99.31358337402344 80.06086730957031 96.85626983642578" stroke-width="1.0" fill="rgb(245, 247, 247)" opacity="0.9682638"/>
    <path d="M 99.30828857421875 143.63751220703125 C 96.9731216430664 142.00328063964844 97.40559387207031 141.59466552734375 104.50556945800781 135.08023071289062 L 111.9095687866211 128.11268615722656 L 118.90086364746094 134.8842315673828 C 125.49144744873047 141.2978973388672 126.20931243896484 142.2396240234375 123.91133117675781 143.2238006591797 C 122.14942932128906 146.03762817382812 120.575927734375 144.88955688476562 115.7067642211914 139.85340881347656 C 114.15076446533203 138.0447235107422 112.22621154785156 136.20240783691406 112.01114654541016 136.17977905273438 C 111.60444641113281 136.19920349121094 109.08842468261719 138.6487274169922 106.6306381225586 141.2354736328125 C 101.3194351196289 146.16897583007812 101.13044738769531 145.87506103515625 99.30828857421875 143.63751220703125" stroke-width="1.0" fill="rgb(3, 4, 4)" opacity="0.98235136"/>
  </g>
</svg>
