<?xml version="1.0" ?>
<svg xmlns="http://www.w3.org/2000/svg" version="1.1" width="224" height="224">
  <defs/>
  <g>
    <path d="M 92.83389282226562 28.0 C 105.6121597290039 28.0 118.39128875732422 28.0 131.17041015625 28.0 C 137.28970336914062 28.094688415527344 143.2962188720703 29.021743774414062 149.07032775878906 31.097946166992188 C 170.01307678222656 38.63148498535156 183.58584594726562 58.731536865234375 183.93016052246094 80.7597427368164 C 183.93016052246094 84.0048828125 183.93016052246094 87.2508773803711 183.93016052246094 90.49601745605469 C 183.5531463623047 101.6233139038086 176.96905517578125 111.6143798828125 166.25405883789062 115.34585571289062 C 163.4410400390625 116.32542419433594 160.58840942382812 116.69985961914062 157.6256103515625 116.80057525634766 C 127.20996856689453 116.80057525634766 96.7943344116211 116.80057525634766 66.37783813476562 116.80057525634766 C 55.251407623291016 116.42355346679688 45.259483337402344 109.83944702148438 41.52886962890625 99.12446594238281 C 40.54930114746094 96.31144714355469 40.17399597167969 93.45881652832031 40.07328796386719 90.49601745605469 C 40.07328796386719 87.2508773803711 40.07328796386719 84.0048828125 40.07328796386719 80.7597427368164 C 40.41674041748047 58.72809600830078 53.980037689208984 38.63751220703125 74.92709350585938 31.09966278076172 C 80.70292663574219 29.02088165283203 86.71202850341797 28.094688415527344 92.83389282226562 28.0 C 92.83389282226562 28.0 92.83389282226562 28.0 92.83389282226562 28.0" stroke-width="0.0" fill="rgb(104, 9, 70)" opacity="1.0"/>
    <path d="M 49.05293655395508 147.35650634765625 C 91.01850891113281 147.3582305908203 132.9840850830078 147.35910034179688 174.94964599609375 147.35995483398438 C 180.16943359375 147.82908630371094 183.4644775390625 151.123291015625 183.93360900878906 156.34304809570312 C 183.93360900878906 157.6239013671875 183.93360900878906 158.90386962890625 183.93360900878906 160.18470764160156 C 183.83290100097656 164.28115844726562 183.25790405273438 168.26226806640625 181.8815155029297 172.13748168945312 C 176.77279663085938 186.523681640625 163.17160034179688 195.62901306152344 148.11830139160156 196.0 C 124.04058074951172 195.99916076660156 99.96286010742188 195.9974365234375 75.88601684570312 195.99656677246094 C 60.82839584350586 195.62643432617188 47.22722244262695 186.5279998779297 42.120216369628906 172.13577270507812 C 40.74555206298828 168.25967407226562 40.171417236328125 164.2777099609375 40.069847106933594 160.18125915527344 C 40.069847106933594 158.9004364013672 40.069847106933594 157.62045288085938 40.069847106933594 156.339599609375 C 40.539833068847656 151.12069702148438 43.83403015136719 147.8256378173828 49.05293655395508 147.35650634765625 C 49.05293655395508 147.35650634765625 49.05293655395508 147.35650634765625 49.05293655395508 147.35650634765625" stroke-width="0.0" fill="rgb(104, 9, 70)" opacity="1.0"/>
    <path d="M 94.60537719726562 29.975486755371094 C 106.20438385009766 29.975486755371094 117.80338287353516 29.975486755371094 129.40237426757812 29.975486755371094 C 135.2969970703125 30.075332641601562 141.07540893554688 30.935256958007812 146.65841674804688 32.875457763671875 C 167.82240295410156 40.229087829589844 181.56387329101562 60.33345413208008 181.93746948242188 82.51142883300781 C 181.93746948242188 84.88373565673828 181.93746948242188 87.25604248046875 181.93746948242188 89.62921142578125 C 181.5526885986328 100.14707946777344 175.4652557373047 109.6061782836914 165.37176513671875 113.27654266357422 C 162.57766723632812 114.2922592163086 159.7379608154297 114.67961120605469 156.78204345703125 114.78376770019531 C 126.92936706542969 114.78376770019531 97.07752990722656 114.78376770019531 67.2257080078125 114.78376770019531 C 56.70268249511719 114.41448974609375 47.24530029296875 108.32620239257812 43.57752227783203 98.22925567626953 C 42.560935974121094 95.43086242675781 42.17359161376953 92.58856964111328 42.069435119628906 89.62921142578125 C 42.069435119628906 87.25604248046875 42.069435119628906 84.88373565673828 42.069435119628906 82.51142883300781 C 42.443870544433594 60.33345413208008 56.18535232543945 40.229087829589844 77.34847259521484 32.875457763671875 C 82.93148803710938 30.935256958007812 88.71075439453125 30.075332641601562 94.60537719726562 29.975486755371094 C 94.60537719726562 29.975486755371094 94.60537719726562 29.975486755371094 94.60537719726562 29.975486755371094" stroke-width="0.0" fill="rgb(104, 9, 70)" opacity="1.0"/>
    <path d="M 49.28190994262695 149.37591552734375 C 91.08995056152344 149.37591552734375 132.89715576171875 149.37591552734375 174.704345703125 149.37591552734375 C 178.97378540039062 149.86825561523438 181.42529296875 152.31805419921875 181.91680908203125 156.58837890625 C 181.91680908203125 157.3914794921875 181.91680908203125 158.194580078125 181.91680908203125 158.99769592285156 C 181.81265258789062 163.12857055664062 181.21957397460938 167.13809204101562 179.79324340820312 171.03311157226562 C 174.7060546875 184.9346923828125 161.51634216308594 193.6147918701172 146.93128967285156 193.9832000732422 C 123.63946533203125 193.9832000732422 100.3467788696289 193.9832000732422 77.05494689941406 193.9832000732422 C 72.92665100097656 193.87904357910156 68.92058563232422 193.28512573242188 65.02728271484375 191.8596649169922 C 51.12826919555664 186.77073669433594 42.43871307373047 173.58360290527344 42.069435119628906 158.99769592285156 C 42.069435119628906 158.194580078125 42.069435119628906 157.3914794921875 42.069435119628906 156.58837890625 C 42.561798095703125 152.31890869140625 45.01157760620117 149.86741638183594 49.28190994262695 149.37591552734375 C 49.28190994262695 149.37591552734375 49.28190994262695 149.37591552734375 49.28190994262695 149.37591552734375" stroke-width="0.0" fill="rgb(104, 9, 70)" opacity="1.0"/>
    <path d="M 131.17041015625 31.988853454589844 C 118.39128875732422 31.990570068359375 105.6121597290039 31.991432189941406 92.83389282226562 31.992294311523438 C 72.39469146728516 32.33832550048828 53.794105529785156 44.89537048339844 46.87947463989258 64.37739562988281 C 45.002967834472656 69.66343688964844 44.17748260498047 75.1466064453125 44.082794189453125 80.73994445800781 C 44.082794189453125 83.9850845336914 44.082794189453125 87.23021697998047 44.082794189453125 90.47535705566406 C 44.433128356933594 99.5514144897461 49.48418426513672 107.72020721435547 58.08939743041992 111.17451477050781 C 60.77158737182617 112.25049591064453 63.50886535644531 112.66022491455078 66.37783813476562 112.7704086303711 C 96.7943344116211 112.7704086303711 127.20996856689453 112.7704086303711 157.6256103515625 112.7704086303711 C 160.49545288085938 112.66022491455078 163.23272705078125 112.25049591064453 165.9140625 111.17451477050781 C 174.51925659179688 107.72020721435547 179.5703125 99.5514144897461 179.920654296875 90.47535705566406 C 179.920654296875 87.23021697998047 179.920654296875 83.9850845336914 179.920654296875 80.73994445800781 C 179.8259735107422 75.1466064453125 179.00048828125 69.66343688964844 177.1239776611328 64.37652587890625 C 170.2093505859375 44.892791748046875 151.61134338378906 32.334877014160156 131.17041015625 31.988853454589844 C 131.17041015625 31.988853454589844 131.17041015625 31.988853454589844 131.17041015625 31.988853454589844" stroke-width="0.0" fill="rgb(225, 184, 126)" opacity="1.0"/>
    <path d="M 49.05293655395508 151.36947631835938 C 49.054656982421875 151.36947631835938 49.05552291870117 151.36947631835938 49.05637741088867 151.36947631835938 C 46.02126693725586 151.86184692382812 44.57688903808594 153.3036346435547 44.08623504638672 156.339599609375 C 44.08623504638672 157.62045288085938 44.08623504638672 158.9004364013672 44.08623504638672 160.18125915527344 C 44.1947021484375 164.18045043945312 44.80757141113281 168.0479278564453 46.27778625488281 171.78802490234375 C 51.10589599609375 184.07220458984375 62.88652038574219 191.63241577148438 75.88945007324219 191.98361206054688 C 99.9654541015625 191.98361206054688 124.04145050048828 191.98361206054688 148.11830139160156 191.98361206054688 C 152.11749267578125 191.87600708007812 155.98495483398438 191.2622833251953 159.7250518798828 189.79208374023438 C 172.0092315673828 184.96482849121094 179.5694580078125 173.18333435058594 179.920654296875 160.18125915527344 C 179.920654296875 158.9004364013672 179.920654296875 157.62045288085938 179.920654296875 156.339599609375 C 179.42828369140625 153.3036346435547 177.98648071289062 151.86012268066406 174.94964599609375 151.36947631835938 C 132.9840850830078 151.36947631835938 91.01850891113281 151.36947631835938 49.05293655395508 151.36947631835938" stroke-width="0.0" fill="rgb(225, 184, 126)" opacity="1.0"/>
    <path d="M 87.97479248046875 78.93144226074219 C 87.97479248046875 78.93144226074219 87.97479248046875 78.93144226074219 87.97479248046875 78.93144226074219 C 86.20503234863281 79.21722412109375 84.80023956298828 79.57186889648438 83.67520141601562 81.113525390625 C 81.15311431884766 84.5695571899414 83.6915512084961 89.59220123291016 87.97479248046875 89.59220123291016 C 92.2580337524414 89.59220123291016 94.79991149902344 84.57213592529297 92.27610778808594 81.113525390625 C 91.15020751953125 79.57186889648438 89.74456024169922 79.21722412109375 87.97479248046875 78.93144226074219 C 87.97479248046875 78.93144226074219 87.97479248046875 78.93144226074219 87.97479248046875 78.93144226074219" stroke-width="0.0" fill="rgb(193, 49, 5)" opacity="1.0"/>
    <path d="M 112.00344848632812 78.93144226074219 C 112.00344848632812 78.93144226074219 112.00344848632812 78.93144226074219 112.00344848632812 78.93144226074219 C 110.23282623291016 79.21722412109375 108.8271713256836 79.57186889648438 107.70213317871094 81.113525390625 C 105.1774673461914 84.57127380371094 107.72020721435547 89.59220123291016 112.00344848632812 89.59220123291016 C 116.28582763671875 89.59220123291016 118.82426452636719 84.5695571899414 116.30217742919922 81.113525390625 C 115.17713928222656 79.57186889648438 113.77320861816406 79.21722412109375 112.00344848632812 78.93144226074219 C 112.00344848632812 78.93144226074219 112.00344848632812 78.93144226074219 112.00344848632812 78.93144226074219" stroke-width="0.0" fill="rgb(193, 49, 5)" opacity="1.0"/>
    <path d="M 136.0097198486328 78.93144226074219 C 136.0097198486328 78.93144226074219 136.0097198486328 78.93144226074219 136.0097198486328 78.93144226074219 C 134.2390899658203 79.21722412109375 132.83432006835938 79.57186889648438 131.7092742919922 81.113525390625 C 129.18804931640625 84.57127380371094 131.7264862060547 89.59220123291016 136.0097198486328 89.59220123291016 C 140.29295349121094 89.59220123291016 142.8348388671875 84.57213592529297 140.31103515625 81.113525390625 C 139.18600463867188 79.57186889648438 137.78033447265625 79.21722412109375 136.0097198486328 78.93144226074219 C 136.0097198486328 78.93144226074219 136.0097198486328 78.93144226074219 136.0097198486328 78.93144226074219" stroke-width="0.0" fill="rgb(193, 49, 5)" opacity="1.0"/>
    <path d="M 77.71430969238281 58.108333587646484 C 77.71430969238281 58.108333587646484 77.71430969238281 58.108333587646484 77.71430969238281 58.108333587646484 C 75.94367980957031 58.39411544799805 74.53802490234375 58.748756408691406 73.4121322631836 60.29041290283203 C 70.88746643066406 63.7473030090332 73.43278503417969 68.7656478881836 77.71430969238281 68.7656478881836 C 81.99496459960938 68.7656478881836 84.540283203125 63.7473030090332 82.01561737060547 60.29041290283203 C 80.88971710205078 58.748756408691406 79.48406982421875 58.39411544799805 77.71430969238281 58.108333587646484 C 77.71430969238281 58.108333587646484 77.71430969238281 58.108333587646484 77.71430969238281 58.108333587646484" stroke-width="0.0" fill="rgb(193, 49, 5)" opacity="1.0"/>
    <path d="M 100.57316589355469 58.108333587646484 C 100.57316589355469 58.108333587646484 100.57316589355469 58.108333587646484 100.57316589355469 58.108333587646484 C 98.80339813232422 58.39411544799805 97.39774322509766 58.748756408691406 96.2718505859375 60.29041290283203 C 93.74718475341797 63.7473030090332 96.29164123535156 68.7656478881836 100.57316589355469 68.7656478881836 C 104.85467529296875 68.7656478881836 107.39569091796875 63.745582580566406 104.87274932861328 60.29041290283203 C 103.74685668945312 58.748756408691406 102.34292602539062 58.39411544799805 100.57316589355469 58.108333587646484 C 100.57316589355469 58.108333587646484 100.57316589355469 58.108333587646484 100.57316589355469 58.108333587646484" stroke-width="0.0" fill="rgb(193, 49, 5)" opacity="1.0"/>
    <path d="M 123.4337387084961 58.108333587646484 C 123.4337387084961 58.108333587646484 123.4337387084961 58.108333587646484 123.4337387084961 58.108333587646484 C 121.66311645507812 58.39411544799805 120.25746154785156 58.748756408691406 119.13156127929688 60.29041290283203 C 116.60603332519531 63.7473030090332 119.1522216796875 68.7656478881836 123.4337387084961 68.7656478881836 C 127.71525573730469 68.7656478881836 130.25454711914062 63.744720458984375 127.73246765136719 60.29041290283203 C 126.60742950439453 58.748756408691406 125.20349884033203 58.39411544799805 123.4337387084961 58.108333587646484 C 123.4337387084961 58.108333587646484 123.4337387084961 58.108333587646484 123.4337387084961 58.108333587646484" stroke-width="0.0" fill="rgb(193, 49, 5)" opacity="1.0"/>
    <path d="M 146.29000854492188 58.108333587646484 C 146.29000854492188 58.108333587646484 146.29000854492188 58.108333587646484 146.29000854492188 58.108333587646484 C 144.52023315429688 58.39411544799805 143.11631774902344 58.748756408691406 141.99127197265625 60.29041290283203 C 139.4691925048828 63.744720458984375 142.00848388671875 68.7656478881836 146.29000854492188 68.7656478881836 C 150.57151794433594 68.7656478881836 153.11599731445312 63.7473030090332 150.59132385253906 60.29041290283203 C 149.46542358398438 58.748756408691406 148.0597686767578 58.39411544799805 146.29000854492188 58.108333587646484 C 146.29000854492188 58.108333587646484 146.29000854492188 58.108333587646484 146.29000854492188 58.108333587646484" stroke-width="0.0" fill="rgb(193, 49, 5)" opacity="1.0"/>
    <path d="M 48.58381271362305 112.44503021240234 C 90.8609848022461 112.44503021240234 133.13902282714844 112.44503021240234 175.41705322265625 112.44503021240234 C 177.03359985351562 112.59049987792969 178.42807006835938 112.81258392333984 179.85696411132812 113.65011596679688 C 184.49398803710938 116.36673736572266 185.603515625 122.78987884521484 182.13803100585938 126.89923858642578 C 180.36740112304688 128.997802734375 178.0648193359375 129.79661560058594 175.41705322265625 130.03504943847656 C 133.13902282714844 130.03504943847656 90.8609848022461 130.03504943847656 48.58381271362305 130.03504943847656 C 46.96641159057617 129.88958740234375 45.57194519042969 129.66749572753906 44.14305877685547 128.830810546875 C 39.50689697265625 126.11334228515625 38.39649200439453 119.6902084350586 41.86284637451172 115.58084869384766 C 43.63261413574219 113.48226928710938 45.93605422973633 112.684326171875 48.58381271362305 112.44503021240234 C 48.58381271362305 112.44503021240234 48.58381271362305 112.44503021240234 48.58381271362305 112.44503021240234" stroke-width="0.0" fill="rgb(105, 10, 70)" opacity="1.0"/>
    <path d="M 59.091346740722656 147.362548828125 C 72.50486755371094 147.362548828125 85.91753387451172 147.362548828125 99.3302001953125 147.362548828125 C 101.09564971923828 147.8531951904297 101.57682800292969 148.77508544921875 100.96997833251953 150.5052490234375 C 94.26107025146484 160.1081085205078 87.5521469116211 169.71095275878906 80.84323120117188 179.31381225585938 C 79.64933776855469 180.36569213867188 78.76273345947266 180.356201171875 77.56625366210938 179.31381225585938 C 70.86163330078125 169.71095275878906 64.15617370605469 160.1081085205078 57.451560974121094 150.5052490234375 C 56.84557342529297 148.77593994140625 57.328468322753906 147.8557586669922 59.091346740722656 147.362548828125 C 59.091346740722656 147.362548828125 59.091346740722656 147.362548828125 59.091346740722656 147.362548828125" stroke-width="0.0" fill="rgb(104, 9, 70)" opacity="1.0"/>
    <path d="M 124.65948486328125 147.362548828125 C 138.07301330566406 147.362548828125 151.4856719970703 147.362548828125 164.89834594726562 147.362548828125 C 166.66378784179688 147.8531951904297 167.14495849609375 148.77508544921875 166.53811645507812 150.5052490234375 C 159.83436584472656 160.1081085205078 153.130615234375 169.71095275878906 146.427734375 179.31381225585938 C 145.22866821289062 180.35964965820312 144.34808349609375 180.35964965820312 143.14816284179688 179.31381225585938 C 136.43838500976562 169.71095275878906 129.72947692871094 160.1081085205078 123.01969909667969 150.5052490234375 C 122.41371154785156 148.77593994140625 122.895751953125 147.8557586669922 124.65948486328125 147.362548828125 C 124.65948486328125 147.362548828125 124.65948486328125 147.362548828125 124.65948486328125 147.362548828125" stroke-width="0.0" fill="rgb(104, 9, 70)" opacity="1.0"/>
    <path d="M 42.059967041015625 131.88314819335938 C 42.059967041015625 131.88314819335938 42.059967041015625 131.88314819335938 42.059967041015625 131.88314819335938 C 45.0477294921875 132.05960083007812 47.666221618652344 132.60964965820312 50.18658447265625 134.30279541015625 C 53.51435470581055 136.5399627685547 55.8789176940918 140.1664276123047 60.09931564331055 140.830078125 C 66.48114013671875 141.83290100097656 69.23304748535156 137.4420623779297 73.90105438232422 134.30279541015625 C 76.32931518554688 132.66903686523438 79.09327697753906 131.88314819335938 82.0190658569336 131.88314819335938 C 85.48714447021484 131.88314819335938 88.59111022949219 133.01937866210938 91.29740142822266 135.15582275390625 C 94.0863265991211 137.35598754882812 96.33296203613281 140.2447509765625 100.05841064453125 140.830078125 C 108.59734344482422 142.17117309570312 112.0155029296875 132.94964599609375 119.94327545166016 132.00364685058594 C 123.53014373779297 131.5758514404297 127.09548950195312 132.28082275390625 130.1047821044922 134.30279541015625 C 133.4325408935547 136.5399627685547 135.79710388183594 140.1664276123047 140.0175018310547 140.830078125 C 142.38121032714844 141.20108032226562 144.85336303710938 140.92132568359375 146.97174072265625 139.77476501464844 C 150.47854614257812 137.87762451171875 152.70022583007812 134.35787963867188 156.50831604003906 132.86012268066406 C 160.91549682617188 131.12652587890625 166.1395721435547 131.66537475585938 170.06387329101562 134.30279541015625 C 172.48867797851562 135.93310546875 174.31869506835938 138.37600708007812 176.90362548828125 139.77476501464844 C 177.8883514404297 140.30758666992188 178.86534118652344 140.65533447265625 179.9766082763672 140.830078125 C 181.39776611328125 141.0530242919922 183.91294860839844 140.70785522460938 183.91294860839844 142.97427368164062 C 183.91294860839844 146.42257690429688 178.16380310058594 144.65281677246094 176.4835662841797 143.9934539794922 C 171.03656005859375 141.8544158935547 168.3319854736328 135.87631225585938 161.9381103515625 135.87631225585938 C 160.68223571777344 135.87631225585938 159.53482055664062 136.032958984375 158.3495330810547 136.44012451171875 C 155.02691650390625 137.57977294921875 152.91111755371094 140.6441650390625 150.07656860351562 142.55078125 C 147.0698699951172 144.57275390625 143.5096893310547 145.27774047851562 139.92454528808594 144.84991455078125 C 131.99676513671875 143.903076171875 128.57603454589844 134.68325805664062 120.0379638671875 136.02435302734375 C 115.82100677490234 136.68716430664062 113.44352722167969 140.31275939941406 110.11662292480469 142.55078125 C 107.11077880859375 144.57275390625 103.55059814453125 145.27774047851562 99.9654541015625 144.84991455078125 C 97.25485229492188 144.52627563476562 94.85327911376953 143.37196350097656 92.72887420654297 141.69775390625 C 89.93909454345703 139.49932861328125 87.6829833984375 136.60968017578125 83.95925903320312 136.02435302734375 C 77.57830047607422 135.02154541015625 74.82553100585938 139.41152954101562 70.15752410888672 142.55078125 C 67.15081787109375 144.57275390625 63.59063720703125 145.27774047851562 60.00463104248047 144.84991455078125 C 54.223636627197266 144.1595916748047 51.77644348144531 139.62327575683594 47.07400894165039 137.0796661376953 C 46.089271545410156 136.54684448242188 45.11143112182617 136.1990966796875 44.00016784667969 136.02435302734375 C 43.087738037109375 135.88059997558594 41.44795227050781 136.09063720703125 40.64484405517578 135.28753662109375 C 39.02313232421875 133.66668701171875 40.740394592285156 132.43490600585938 42.059967041015625 131.88314819335938 C 42.059967041015625 131.88314819335938 42.059967041015625 131.88314819335938 42.059967041015625 131.88314819335938" stroke-width="0.0" fill="rgb(128, 211, 49)" opacity="1.0"/>
    <path d="M 48.58381271362305 114.44461822509766 C 90.8609848022461 114.44461822509766 133.13902282714844 114.44461822509766 175.41705322265625 114.44461822509766 C 177.0284423828125 114.63227081298828 178.35145568847656 114.8939437866211 179.65811157226562 115.94065856933594 C 183.01344299316406 118.62800598144531 183.00827026367188 123.85034942626953 179.6589813232422 126.53943634033203 C 178.35231018066406 127.58958435058594 177.0301513671875 127.85383605957031 175.41705322265625 128.04148864746094 C 133.13902282714844 128.04148864746094 90.8609848022461 128.04148864746094 48.58381271362305 128.04148864746094 C 46.97243118286133 127.85470581054688 45.649417877197266 127.5921630859375 44.342750549316406 126.54631805419922 C 40.991737365722656 123.8624038696289 40.98828887939453 118.63661193847656 44.33415222167969 115.94754028320312 C 45.64252853393555 114.89480590820312 46.96813201904297 114.63312530517578 48.58381271362305 114.44461822509766 C 48.58381271362305 114.44461822509766 48.58381271362305 114.44461822509766 48.58381271362305 114.44461822509766" stroke-width="0.0" fill="rgb(104, 9, 70)" opacity="1.0"/>
    <path d="M 99.3302001953125 149.37246704101562 C 85.91753387451172 149.37332153320312 72.50486755371094 149.3750457763672 59.091346740722656 149.37591552734375 C 65.79508972167969 158.97186279296875 72.49884033203125 168.56784057617188 79.20259094238281 178.163818359375 C 85.91150665283203 168.56698608398438 92.62127685546875 158.9692840576172 99.3302001953125 149.37246704101562" stroke-width="0.0" fill="rgb(104, 9, 69)" opacity="1.0"/>
    <path d="M 164.912109375 149.37246704101562 C 151.49945068359375 149.37332153320312 138.08677673339844 149.3750457763672 124.67325592041016 149.37591552734375 C 131.37701416015625 158.97186279296875 138.08074951171875 168.56784057617188 144.78451538085938 178.163818359375 C 151.493408203125 168.56698608398438 158.2032012939453 158.9692840576172 164.912109375 149.37246704101562" stroke-width="0.0" fill="rgb(104, 9, 69)" opacity="1.0"/>
    <path d="M 48.58381271362305 116.44076538085938 C 48.58467483520508 116.44076538085938 48.585533142089844 116.44076538085938 48.58725357055664 116.44076538085938 C 47.270263671875 116.65423583984375 46.866554260253906 116.55783081054688 45.757869720458984 117.3669662475586 C 43.17552947998047 119.2494888305664 43.163490295410156 123.23403930664062 45.749267578125 125.12001037597656 C 46.85881423950195 125.92999267578125 47.2685432434082 125.83358764648438 48.58725357055664 126.04621124267578 C 90.86442565917969 126.04621124267578 133.1424560546875 126.04621124267578 175.42050170898438 126.04621124267578 C 176.73663330078125 125.83273315429688 177.14035034179688 125.92827606201172 178.2490234375 125.12001037597656 C 180.83050537109375 123.23748016357422 180.84255981445312 119.25293731689453 178.25762939453125 117.3669662475586 C 177.1480712890625 116.55696868896484 176.73922729492188 116.65337371826172 175.42050170898438 116.44076538085938 C 133.1416015625 116.44076538085938 90.86270904541016 116.44076538085938 48.58381271362305 116.44076538085938" stroke-width="0.0" fill="rgb(246, 86, 8)" opacity="1.0"/>
    <path d="M 62.93300247192383 151.36947631835938 C 68.3619384765625 159.13369750976562 73.7908706665039 166.89793395996094 79.21980285644531 174.6621551513672 C 84.64271545410156 166.89793395996094 90.06562805175781 159.13369750976562 95.48853302001953 151.36947631835938 C 84.6366958618164 151.36947631835938 73.78485107421875 151.36947631835938 62.93300247192383 151.36947631835938" stroke-width="0.0" fill="rgb(254, 211, 0)" opacity="1.0"/>
    <path d="M 128.4942626953125 151.36947631835938 C 133.92405700683594 159.13369750976562 139.35385131835938 166.89793395996094 144.78451538085938 174.6621551513672 C 150.21343994140625 166.89793395996094 155.64151000976562 159.13369750976562 161.07044982910156 151.36947631835938 C 150.2117156982422 151.36947631835938 139.35299682617188 151.36947631835938 128.4942626953125 151.36947631835938" stroke-width="0.0" fill="rgb(254, 211, 0)" opacity="1.0"/>
  </g>
</svg>
