<?xml version="1.0" ?>
<svg xmlns="http://www.w3.org/2000/svg" version="1.1" width="224" height="224">
  <defs/>
  <g>
    <path d="M 108.65392303466797 190.34580993652344 C 94.59095764160156 181.36154174804688 77.66575622558594 157.6650848388672 72.65229797363281 136.85458374023438 C 71.77981567382812 131.065673828125 70.97624206542969 127.08932495117188 70.66802978515625 126.76509094238281 C 70.62606811523438 126.96572875976562 67.68694305419922 130.23806762695312 64.87886047363281 133.9327392578125 C 56.045692443847656 141.89239501953125 49.04478454589844 143.53469848632812 40.46336364746094 140.42007446289062 C 30.37360382080078 135.3890380859375 27.99999237060547 125.4634780883789 35.07502746582031 117.6441650390625 L 40.610023498535156 112.59481811523438 L 35.08442687988281 108.3978500366211 C 31.719642639160156 104.04853820800781 30.808120727539062 102.04370880126953 30.503761291503906 98.2542953491211 C 30.616676330566406 92.38593292236328 33.87016296386719 87.30391693115234 39.50269317626953 84.20140838623047 C 44.43427276611328 81.36663818359375 60.49560546875 79.32394409179688 74.19966888427734 78.96623229980469 C 83.89059448242188 78.98210906982422 86.897216796875 79.39032745361328 89.715576171875 76.72191619873047 C 94.42293548583984 73.9611587524414 94.70376586914062 73.6830825805664 91.8180923461914 71.7779541015625 C 86.5059585571289 66.99234008789062 88.45112609863281 53.851661682128906 95.68978881835938 48.043724060058594 C 98.37628173828125 46.51753616333008 100.06684875488281 45.14800262451172 99.93417358398438 45.521400451660156 C 99.72801208496094 43.22230911254883 91.5924301147461 38.577598571777344 88.2298355102539 39.156070709228516 C 82.71444702148438 39.33722686767578 76.77171325683594 42.17845153808594 75.56651306152344 48.93029022216797 C 74.29328918457031 54.47060775756836 68.9536361694336 54.8829345703125 68.34166717529297 49.483436584472656 C 68.7676773071289 40.72098159790039 78.33126831054688 31.94713592529297 88.07008361816406 32.49366760253906 C 94.41389465332031 32.51824188232422 97.59394073486328 33.92460250854492 103.00070190429688 38.08921813964844 C 105.18997955322266 41.819122314453125 106.73116302490234 42.560630798339844 112.78166961669922 42.124542236328125 C 119.76195526123047 43.09404754638672 120.88601684570312 42.3765983581543 124.43236541748047 37.74191665649414 C 132.0082244873047 31.224952697753906 143.5710906982422 30.845291137695312 150.7593536376953 36.63365173339844 C 154.47055053710938 39.34474563598633 159.00143432617188 48.59698486328125 157.73602294921875 51.95512390136719 C 154.8018341064453 54.96116256713867 151.55397033691406 53.43107604980469 150.3581085205078 48.78873062133789 C 148.54983520507812 41.92924118041992 143.57034301757812 38.726016998291016 137.40060424804688 39.38296127319336 C 135.2294158935547 39.45396041870117 131.63946533203125 41.00394058227539 129.87091064453125 41.81113052368164 L 125.97158813476562 44.279090881347656 L 131.65216064453125 48.86349868774414 C 138.1278839111328 56.069950103759766 139.1851806640625 63.4915657043457 136.06649780273438 70.00900268554688 C 134.150146484375 72.19940185546875 132.69647216796875 74.439208984375 132.95547485351562 74.61544799804688 C 132.91452026367188 73.73112487792969 134.8966827392578 75.12947845458984 137.19610595703125 76.89752960205078 C 140.07513427734375 79.32485961914062 143.94155883789062 78.794189453125 159.7470703125 78.98880767822266 C 180.97439575195312 80.826904296875 186.4755859375 81.77102661132812 192.19277954101562 87.77073669433594 C 195.39984130859375 91.51144409179688 195.64129638671875 93.50120544433594 196.0 98.4954605102539 C 195.9356231689453 102.41537475585938 194.99972534179688 103.75621032714844 191.47418212890625 108.37168884277344 L 185.83602905273438 112.60012817382812 L 191.17852783203125 116.99108123779297 C 194.25991821289062 120.88044738769531 195.12733459472656 122.3284912109375 195.531005859375 127.30862426757812 C 194.88978576660156 131.5532684326172 194.13967895507812 133.55467224121094 190.84231567382812 136.98696899414062 C 186.76556396484375 140.536376953125 184.6156768798828 140.70176696777344 179.36849975585938 141.85447692871094 C 171.75564575195312 141.49020385742188 167.83203125 139.4354248046875 160.78924560546875 132.87344360351562 L 156.1190185546875 127.13097381591797 L 153.5986785888672 137.61825561523438 C 149.70375061035156 150.3092041015625 143.5687255859375 161.76226806640625 134.86207580566406 173.44931030273438 C 128.8797607421875 181.88766479492188 115.95526885986328 193.15469360351562 113.23938751220703 192.54476928710938 C 112.9118881225586 192.87881469726562 110.00288391113281 192.03094482421875 108.65392303466797 190.34580993652344" stroke-width="1.0" fill="rgb(7, 10, 12)" opacity="0.9960381"/>
    <path d="M 107.47692108154297 182.33743286132812 C 94.45263671875 171.74827575683594 81.21202087402344 149.51644897460938 77.85681915283203 131.50918579101562 C 76.17164611816406 123.10064697265625 75.97822570800781 119.79632568359375 76.93867492675781 111.97760772705078 C 79.28003692626953 98.03907775878906 85.90673065185547 86.00460815429688 93.41963195800781 80.90412902832031 C 98.2405014038086 78.26251220703125 128.2613525390625 78.4151611328125 133.09158325195312 80.91767883300781 C 137.56124877929688 83.99092864990234 143.55471801757812 92.99427032470703 147.00259399414062 102.5240249633789 C 155.57931518554688 124.15591430664062 145.88592529296875 154.03042602539062 123.118408203125 177.99859619140625 C 113.80315399169922 187.90956115722656 113.4889907836914 187.85775756835938 107.47692108154297 182.33743286132812" stroke-width="1.0" fill="rgb(254, 246, 1)" opacity="0.99624014"/>
    <path d="M 105.08995056152344 73.18977355957031 C 99.56344604492188 71.80654907226562 94.5522232055664 66.09739685058594 94.82625579833984 61.37701416015625 C 94.4512939453125 56.57291030883789 101.99479675292969 49.04734420776367 108.23098754882812 48.10765075683594 C 119.13604736328125 46.10072326660156 130.1560516357422 51.48432159423828 131.60227966308594 59.764286041259766 C 132.4567413330078 64.69680786132812 129.91493225097656 69.7115707397461 125.4433822631836 71.64531707763672 C 122.02486419677734 73.89081573486328 110.62120056152344 74.62015533447266 105.08995056152344 73.18977355957031" stroke-width="1.0" fill="rgb(255, 247, 4)" opacity="0.9990596"/>
    <path d="M 42.43500518798828 134.83314514160156 C 40.923309326171875 134.12339782714844 38.84587097167969 132.18601989746094 38.188018798828125 130.4932861328125 C 36.47003173828125 126.48988342285156 38.540428161621094 122.05828857421875 44.49278259277344 117.29092407226562 C 49.89783477783203 114.40750122070312 50.444671630859375 109.95247650146484 45.72373962402344 107.93016815185547 C 31.840896606445312 100.46762084960938 34.859161376953125 89.45880126953125 51.52124786376953 86.90241241455078 C 56.295692443847656 86.27015686035156 64.7445068359375 85.19223022460938 70.50675964355469 84.95895385742188 L 82.10833740234375 84.3678970336914 L 78.62242126464844 90.39921569824219 C 76.56158447265625 94.13479614257812 73.71526336669922 102.17256927490234 71.99884033203125 108.64767456054688 C 70.1666259765625 114.93677520751953 66.95021057128906 121.6816635131836 64.26802062988281 125.30829620361328 C 57.74515914916992 133.7061767578125 48.778289794921875 137.5767059326172 42.43500518798828 134.83314514160156" stroke-width="1.0" fill="rgb(212, 241, 254)" opacity="0.9997203"/>
    <path d="M 173.16934204101562 134.5586700439453 C 168.65599060058594 132.53414916992188 161.7266845703125 125.79315185546875 159.21099853515625 120.82218933105469 C 157.90953063964844 119.05521392822266 156.02627563476562 112.85415649414062 154.53732299804688 107.44515991210938 C 153.06314086914062 101.724365234375 150.35232543945312 94.4253921508789 148.26779174804688 91.24089813232422 C 146.3922882080078 88.30143737792969 144.91940307617188 85.57019805908203 145.15475463867188 84.92472839355469 C 145.5615692138672 84.11211395263672 163.07269287109375 85.39048767089844 174.57931518554688 86.71272277832031 C 188.64248657226562 89.07052612304688 193.56356811523438 97.19078063964844 185.87722778320312 104.8279800415039 C 183.36566162109375 106.30201721191406 180.73013305664062 107.6288070678711 180.13934326171875 107.78770446777344 C 179.5375518798828 107.85272216796875 178.76853942871094 109.03892517089844 178.07789611816406 110.36589050292969 C 176.75723266601562 112.45677185058594 177.1792449951172 113.96930694580078 183.41976928710938 118.95938873291016 C 186.65997314453125 122.34701538085938 189.6715850830078 125.59150695800781 189.4754638671875 125.81721496582031 C 189.78231811523438 129.314697265625 186.55905151367188 133.9365692138672 183.80569458007812 134.66207885742188 C 180.02584838867188 136.24752807617188 178.01023864746094 136.05503845214844 173.16934204101562 134.5586700439453" stroke-width="1.0" fill="rgb(213, 241, 254)" opacity="0.99903834"/>
  </g>
</svg>
