<?xml version="1.0" ?>
<svg xmlns="http://www.w3.org/2000/svg" version="1.1" width="224" height="224">
  <defs/>
  <g>
    <path d="M 31.84307098388672 186.96438598632812 C 30.40599822998047 186.69371032714844 28.106719970703125 186.68157958984375 28.88214874267578 183.41058349609375 C 30.431915283203125 182.45523071289062 31.11890411376953 182.053466796875 32.62074279785156 180.9701690673828 C 29.4541015625 181.57162475585938 29.45343017578125 175.94049072265625 29.933731079101562 174.5589599609375 C 30.355697631835938 174.02719116210938 32.070159912109375 172.2689971923828 32.98224639892578 173.083984375 C 37.08020782470703 171.08287048339844 37.54217529296875 170.18699645996094 36.23204040527344 166.25119018554688 C 35.820823669433594 160.86251831054688 36.83544158935547 159.00372314453125 42.465232849121094 158.17759704589844 C 43.951904296875 159.01669311523438 43.10658264160156 157.8173370361328 43.336692810058594 114.78013610839844 L 43.37538146972656 75.9854736328125 L 62.525657653808594 64.72019958496094 C 72.74870300292969 59.14345169067383 84.82335662841797 52.475196838378906 89.52289581298828 50.22547149658203 C 108.2831039428711 39.916282653808594 112.46502685546875 37.035614013671875 112.86972045898438 37.76874542236328 C 114.36968994140625 39.0067138671875 117.12905883789062 40.591651916503906 119.8362808227539 41.843040466308594 C 122.82457733154297 43.346107482910156 125.50312042236328 44.94879150390625 125.70702362060547 45.455284118652344 C 126.21199035644531 45.545188903808594 132.34791564941406 48.578773498535156 138.68807983398438 52.65106201171875 C 161.66390991210938 63.263771057128906 177.48684692382812 74.39837646484375 181.033203125 75.82101440429688 C 180.46478271484375 76.5238037109375 180.45314025878906 95.3754653930664 180.5458221435547 117.7779541015625 L 180.43435668945312 158.97177124023438 L 182.42498779296875 160.40460205078125 C 186.9351806640625 162.3938751220703 189.8134765625 163.05032348632812 187.33847045898438 166.1600341796875 C 186.0245361328125 169.55178833007812 186.43887329101562 171.75384521484375 189.92453002929688 173.0518035888672 C 192.53070068359375 173.1898651123047 193.9871368408203 175.25479125976562 191.61180114746094 176.89064025878906 C 193.2509765625 179.278564453125 195.15673828125 185.70980834960938 194.36077880859375 186.91989135742188 C 190.30157470703125 186.81692504882812 34.775169372558594 186.78125 31.84307098388672 186.96438598632812" stroke-width="0.0" fill="rgb(9, 12, 15)" opacity="0.9834957"/>
    <path d="M 164.69192504882812 66.61158752441406 C 160.86924743652344 64.68182373046875 157.69644165039062 63.055747985839844 157.37721252441406 63.1907844543457 C 157.37437438964844 63.18556213378906 154.3692626953125 60.82910919189453 150.4089813232422 58.857913970947266 C 143.2418975830078 54.73444747924805 143.602783203125 54.281211853027344 145.0173797607422 50.542396545410156 L 144.6517791748047 47.01045227050781 L 150.01893615722656 46.791168212890625 C 156.28021240234375 46.6160888671875 160.46815490722656 48.08574676513672 162.51828002929688 53.26081085205078 C 164.10394287109375 54.01107406616211 166.85592651367188 54.27323532104492 167.4961395263672 53.61316680908203 C 171.7415771484375 54.324851989746094 174.47125244140625 61.547698974609375 172.63497924804688 67.42449951171875 C 171.8328857421875 70.91661834716797 170.70413208007812 70.84226989746094 164.69192504882812 66.61158752441406" stroke-width="0.0" fill="rgb(135, 139, 141)" opacity="0.94621223"/>
    <path d="M 47.188453674316406 141.24742126464844 L 47.145347595214844 99.42984008789062 L 176.8021697998047 99.42213439941406 L 176.7513885498047 182.59649658203125 L 127.62109375 182.48971557617188 L 127.68978118896484 167.12109375 C 127.69600677490234 153.18194580078125 127.31024932861328 151.33160400390625 125.53822326660156 148.661865234375 C 123.28372192382812 145.01451110839844 116.22319030761719 141.59335327148438 111.91337585449219 142.1494903564453 C 107.83670806884766 141.630859375 100.869140625 145.04428100585938 98.6497802734375 148.75970458984375 C 96.89940643310547 151.4935302734375 96.732177734375 153.3892822265625 96.66983032226562 166.60299682617188 L 96.76871490478516 182.48825073242188 L 47.13938903808594 182.5838623046875 L 47.188453674316406 141.24742126464844" stroke-width="1.0" fill="rgb(188, 215, 228)" opacity="0.9954571"/>
    <path d="M 47.032325744628906 86.4354248046875 L 47.197593688964844 78.13310241699219 L 79.4551773071289 60.0483283996582 L 111.7120361328125 41.90876770019531 L 120.06578063964844 46.2940673828125 C 124.38633728027344 48.85639953613281 138.86660766601562 57.149330139160156 152.3151397705078 64.6646728515625 L 176.8941650390625 78.2476806640625 L 176.98837280273438 86.70500946044922 L 176.6842041015625 95.64762878417969 L 47.118743896484375 95.64689636230469 L 47.032325744628906 86.4354248046875" stroke-width="1.0" fill="rgb(187, 215, 228)" opacity="0.99267095"/>
    <path d="M 100.11344146728516 167.30982971191406 C 99.99388122558594 154.0816192626953 100.31304931640625 152.27293395996094 102.52708435058594 150.1068572998047 C 106.61267852783203 144.80279541015625 116.77045440673828 144.6376495361328 121.32894134521484 149.83001708984375 C 124.21560668945312 152.5347900390625 124.187744140625 152.90716552734375 123.98772430419922 167.6002655029297 L 123.94583892822266 182.56280517578125 L 100.31188201904297 182.6973876953125 L 100.11344146728516 167.30982971191406" stroke-width="1.0" fill="rgb(239, 117, 2)" opacity="0.997202"/>
    <path d="M 29.682106018066406 180.42947387695312 C 28.0 176.87506103515625 29.559104919433594 172.76254272460938 33.65009307861328 171.5623016357422 C 37.04771423339844 170.71533203125 37.30662536621094 171.14959716796875 35.763816833496094 164.24795532226562 C 35.19267272949219 160.5022735595703 37.18799591064453 157.69349670410156 40.962921142578125 157.62062072753906 L 43.578826904296875 158.12973022460938 L 43.616554260253906 182.66038513183594 L 37.22752380371094 182.9084930419922 C 31.30010223388672 182.75509643554688 30.58356475830078 182.45419311523438 29.682106018066406 180.42947387695312" stroke-width="1.0" fill="rgb(43, 163, 17)" opacity="0.9447561"/>
    <path d="M 180.61843872070312 170.0425262451172 L 180.32113647460938 157.7746124267578 L 183.61769104003906 157.90316772460938 C 187.65713500976562 157.62127685546875 190.21383666992188 162.03970336914062 188.48936462402344 165.23480224609375 C 186.84783935546875 169.40280151367188 187.0794677734375 170.9437255859375 191.446044921875 172.0316162109375 C 195.50625610351562 174.17063903808594 196.0 176.4673614501953 194.6768341064453 180.0538330078125 C 193.70880126953125 182.508544921875 193.84112548828125 182.5243682861328 187.35214233398438 182.86727905273438 L 180.50042724609375 182.52613830566406 L 180.61843872070312 170.0425262451172" stroke-width="1.0" fill="rgb(41, 159, 14)" opacity="0.99374217"/>
    <path d="M 160.05430603027344 57.534366607666016 C 159.2276611328125 57.547176361083984 158.85540771484375 55.17953109741211 159.02354431152344 51.662017822265625 L 158.99159240722656 47.86878204345703 L 150.08047485351562 48.079811096191406 C 142.83798217773438 48.08226776123047 140.92359924316406 47.54900360107422 141.25621032714844 45.82598876953125 C 140.85572814941406 44.514808654785156 142.1923370361328 44.13677978515625 151.6664581298828 43.91533660888672 L 163.76499938964844 44.05865478515625 L 162.39068603515625 49.50623321533203 L 162.26248168945312 54.23382568359375 L 169.1456298828125 54.09341812133789 C 175.4623260498047 54.204627990722656 177.40283203125 55.577186584472656 174.35804748535156 58.0523681640625 C 171.61776733398438 57.97639083862305 161.23635864257812 58.11674118041992 160.05430603027344 57.534366607666016" stroke-width="1.0" fill="rgb(12, 15, 18)" opacity="0.9671768"/>
    <path d="M 82.18679809570312 131.8989715576172 C 80.53854370117188 129.91091918945312 80.3883056640625 128.29055786132812 80.29473876953125 120.50634002685547 C 79.84463500976562 110.81461334228516 81.22785949707031 107.12318420410156 85.86742401123047 107.37145233154297 C 89.90377807617188 107.66865539550781 90.72400665283203 109.3355941772461 90.8357925415039 120.03197479248047 C 91.01837158203125 128.69239807128906 90.57257843017578 130.37843322753906 88.80928039550781 131.99285888671875 C 86.67953491210938 134.05844116210938 85.14602661132812 133.9118194580078 82.18679809570312 131.8989715576172" stroke-width="1.0" fill="rgb(47, 30, 0)" opacity="0.8907531"/>
    <path d="M 135.48184204101562 132.6096954345703 C 133.2974853515625 131.5276641845703 132.8894805908203 130.42251586914062 132.63494873046875 120.33381652832031 C 132.3292694091797 109.10826110839844 133.3857421875 107.2801513671875 137.3194580078125 107.63391876220703 C 142.42874145507812 107.04280090332031 143.33950805664062 109.10736083984375 143.2285919189453 121.01848602294922 C 143.05931091308594 130.48226928710938 142.77171325683594 131.63514709472656 140.40374755859375 132.62533569335938 C 138.30886840820312 134.08135986328125 137.79782104492188 133.91897583007812 135.48184204101562 132.6096954345703" stroke-width="1.0" fill="rgb(47, 30, 0)" opacity="0.88458246"/>
    <path d="M 108.57878875732422 81.77938842773438 C 106.85597229003906 81.08966064453125 106.8110580444336 78.04817199707031 106.62896728515625 69.11470031738281 C 106.49992370605469 57.68993377685547 107.47950744628906 55.21147155761719 111.86270141601562 55.516963958740234 C 116.08995819091797 55.056495666503906 117.37096405029297 59.194549560546875 117.09465026855469 69.32244873046875 C 117.34317016601562 76.586669921875 116.99574279785156 79.8248291015625 115.71400451660156 81.47395324707031 C 113.45370483398438 83.89959716796875 110.42942810058594 84.10783386230469 108.57878875732422 81.77938842773438" stroke-width="1.0" fill="rgb(47, 29, 0)" opacity="0.89221233"/>
    <path d="M 118.89299011230469 163.0084228515625 C 117.60277557373047 161.21437072753906 119.08485412597656 160.45692443847656 121.35835266113281 161.19932556152344 C 122.41106414794922 161.7472686767578 122.87284088134766 162.55636596679688 122.39026641845703 163.09552001953125 C 121.51911163330078 164.68765258789062 119.75609588623047 164.76895141601562 118.89299011230469 163.0084228515625" stroke-width="1.0" fill="rgb(13, 10, 16)" opacity="0.9689975"/>
  </g>
</svg>
