<?xml version="1.0" ?>
<svg xmlns="http://www.w3.org/2000/svg" version="1.1" width="224" height="224">
  <defs/>
  <g>
    <path d="M 103.92958068847656 195.62490844726562 C 85.81688690185547 193.6365966796875 73.23355865478516 188.0303955078125 60.61821746826172 178.20639038085938 C 46.698097229003906 166.9185028076172 37.008338928222656 152.787353515625 31.7025146484375 134.68397521972656 C 30.04761505126953 127.74809265136719 29.418312072753906 126.0137939453125 28.55548095703125 113.12403106689453 C 29.254417419433594 97.33415985107422 30.581558227539062 92.38178253173828 34.91449737548828 80.59481048583984 C 39.09215545654297 69.67962646484375 43.918357849121094 62.179603576660156 52.862510681152344 52.77485656738281 C 65.37265014648438 40.90796661376953 78.50973510742188 33.81744384765625 95.4162368774414 30.120643615722656 C 103.58454895019531 27.99999237060547 121.09170532226562 28.02142333984375 129.21218872070312 30.10039520263672 C 161.03439331054688 37.114662170410156 184.69358825683594 59.5466194152832 192.9159698486328 90.72996520996094 C 194.39230346679688 98.024658203125 195.0225830078125 100.56446838378906 195.44451904296875 111.02519989013672 C 194.95928955078125 121.7485580444336 194.4369354248047 124.86051940917969 193.30856323242188 130.94927978515625 C 189.59237670898438 147.80215454101562 182.2362823486328 160.55462646484375 171.046630859375 171.64219665527344 C 155.58053588867188 186.73318481445312 136.95022583007812 195.29348754882812 115.60299682617188 196.0 C 110.4375991821289 195.90444946289062 105.32000732421875 195.83653259277344 103.92958068847656 195.62490844726562" stroke-width="1.0" fill="rgb(3, 2, 2)" opacity="0.99520123"/>
    <path d="M 60.69352340698242 172.83358764648438 C 43.311988830566406 158.3035125732422 32.92845153808594 136.10618591308594 32.87443542480469 111.72433471679688 C 33.10059356689453 84.59999084472656 46.01318359375 60.4523811340332 67.41500091552734 46.28068542480469 C 81.22501373291016 36.82697296142578 94.3874282836914 32.72953796386719 110.91497039794922 32.36967468261719 C 117.07896423339844 32.40253448486328 124.2391586303711 33.21168518066406 127.17632293701172 33.69331359863281 C 164.22201538085938 41.42572784423828 189.0147247314453 70.3009033203125 191.357177734375 107.84208679199219 C 192.44456481933594 127.52792358398438 185.94894409179688 147.4184112548828 173.7630615234375 162.31005859375 C 169.6871795654297 167.83932495117188 159.73057556152344 176.73577880859375 157.5189208984375 177.32740783691406 C 156.89938354492188 176.68707275390625 155.55813598632812 171.89637756347656 153.96847534179688 165.8960723876953 C 152.40362548828125 160.16610717773438 150.86424255371094 154.76571655273438 150.39889526367188 153.20175170898438 C 149.8986053466797 152.2702178955078 150.91238403320312 151.83660888671875 153.77354431152344 151.42315673828125 C 158.96035766601562 149.9525909423828 163.34051513671875 145.2928924560547 164.47152709960938 140.41616821289062 C 164.82510375976562 136.3577117919922 165.41622924804688 135.380615234375 161.72958374023438 126.42391204833984 C 159.48875427246094 121.09049987792969 158.48953247070312 115.98968505859375 158.369384765625 114.12523651123047 C 157.96224975585938 113.45222473144531 160.02740478515625 112.7275619506836 162.6742401123047 111.77778625488281 C 164.84182739257812 110.75164794921875 167.83489990234375 108.72390747070312 169.26708984375 106.68414306640625 C 172.81138610839844 103.19210815429688 176.80685424804688 94.82198333740234 177.1015625 91.93671417236328 C 177.428955078125 91.59305572509766 175.12049865722656 88.1624755859375 172.4822998046875 85.0637435913086 C 165.5790557861328 75.8628921508789 160.89236450195312 66.67791748046875 158.7254638671875 54.37115478515625 C 158.7108154296875 52.01039123535156 158.84185791015625 52.05708312988281 155.21405029296875 52.73338317871094 C 150.12313842773438 53.3048095703125 141.1912841796875 57.850467681884766 136.0815887451172 62.63664245605469 L 131.69273376464844 66.83891296386719 L 117.03538513183594 66.13311767578125 C 108.68118286132812 66.18478393554688 99.99250793457031 66.06233215332031 98.0801010131836 66.43690490722656 L 92.67851257324219 67.55535888671875 L 88.55899047851562 63.31549835205078 C 83.01132202148438 57.10060119628906 73.77009582519531 52.62841796875 69.00437927246094 52.41807556152344 L 65.4059066772461 51.886009216308594 L 64.85809326171875 58.6167106628418 C 63.53903579711914 65.66010284423828 58.202457427978516 76.77175903320312 52.06346893310547 84.31266784667969 C 49.13690185546875 88.05596923828125 46.90470886230469 91.15238952636719 47.3432502746582 91.61365509033203 C 47.57335662841797 95.16334533691406 52.804325103759766 105.39236450195312 56.21066665649414 108.55020141601562 C 57.87070846557617 109.83809661865234 60.920433044433594 111.46736145019531 62.761688232421875 112.2694091796875 C 66.68111419677734 113.26722717285156 66.42837524414062 113.09957122802734 62.649959564208984 126.20045471191406 C 60.566612243652344 130.0934295654297 59.65767288208008 134.99435424804688 59.52745056152344 136.5662841796875 C 59.51282501220703 142.90823364257812 63.8548698425293 149.1809539794922 70.63416290283203 151.20521545410156 C 72.08451080322266 151.57241821289062 73.13613891601562 152.4564971923828 73.80836486816406 152.56463623046875 C 73.33393859863281 155.32528686523438 67.45441436767578 176.65122985839844 67.05818176269531 177.568603515625 C 65.35652160644531 176.9412384033203 63.02956771850586 175.0482940673828 60.69352340698242 172.83358764648438" stroke-width="1.0" fill="rgb(253, 254, 254)" opacity="0.99717736"/>
    <path d="M 156.77821350097656 108.66922760009766 C 156.5399169921875 108.17195129394531 155.83261108398438 105.24427795410156 154.98223876953125 102.14519500732422 C 152.0399627685547 90.17740631103516 146.27920532226562 79.04414367675781 139.60552978515625 72.78057098388672 C 134.8538360595703 68.12492370605469 134.97833251953125 67.74819946289062 142.69229125976562 62.3538703918457 C 147.38836669921875 59.51490020751953 153.9624481201172 56.165679931640625 154.40936279296875 56.502777099609375 C 154.88670349121094 56.33518981933594 155.6569366455078 59.35459518432617 156.45108032226562 62.640655517578125 C 158.7193603515625 70.55508422851562 162.75286865234375 78.48674011230469 168.2650146484375 86.03244018554688 L 172.75424194335938 92.52668762207031 L 170.84405517578125 96.9722671508789 C 166.930908203125 105.26827239990234 158.2061309814453 112.34676361083984 156.77821350097656 108.66922760009766" stroke-width="1.0" fill="rgb(157, 78, 14)" opacity="0.9963332"/>
    <path d="M 62.53498077392578 107.79997253417969 C 58.994407653808594 105.98363494873047 54.971527099609375 100.86019134521484 53.097164154052734 95.84091186523438 L 51.6521110534668 92.22486877441406 L 55.69952392578125 86.80738067626953 C 57.96335983276367 83.89692687988281 60.740047454833984 79.68355560302734 61.93836212158203 77.427490234375 C 64.43826293945312 72.95357513427734 68.88557434082031 61.166099548339844 68.78836059570312 58.75102233886719 C 68.97122955322266 57.907020568847656 69.06689453125 57.13093185424805 69.65152740478516 56.8394889831543 C 70.71006774902344 55.99662780761719 81.26433563232422 61.463375091552734 85.06932067871094 65.24073028564453 L 88.71903228759766 68.5890121459961 L 83.80284881591797 73.33392333984375 C 77.59408569335938 79.32991027832031 71.46063232421875 91.31359100341797 68.8569564819336 102.30172729492188 C 68.08358001708984 106.18153381347656 66.75354766845703 109.39152526855469 66.18834686279297 109.33526611328125 C 65.74190521240234 109.33995819091797 64.05001831054688 108.65325927734375 62.53498077392578 107.79997253417969" stroke-width="1.0" fill="rgb(155, 77, 15)" opacity="0.99283046"/>
    <path d="M 97.75150299072266 190.77810668945312 C 94.79638671875 190.18856811523438 90.40406799316406 189.06060791015625 87.79461669921875 188.2904052734375 C 82.44166564941406 186.7064208984375 70.8216781616211 180.93365478515625 70.88565063476562 180.13446044921875 C 71.00685119628906 178.5645751953125 80.40335083007812 143.826904296875 81.44192504882812 142.1361541748047 C 82.37899780273438 140.12197875976562 82.88050842285156 140.04042053222656 84.40809631347656 143.15716552734375 C 86.06541442871094 147.016357421875 88.5386734008789 149.63525390625 92.45513916015625 151.79141235351562 C 96.47449493408203 153.83189392089844 127.79674530029297 153.77142333984375 131.674560546875 151.90887451171875 C 135.13360595703125 149.7886199951172 137.82733154296875 147.25648498535156 139.62811279296875 143.02960205078125 L 141.09414672851562 139.6358184814453 L 142.84471130371094 143.2953643798828 C 143.7627716064453 144.6151885986328 146.4866943359375 153.4793701171875 149.02566528320312 162.9373779296875 C 153.0643310546875 176.00880432128906 153.86434936523438 179.9196319580078 153.15341186523438 180.6129150390625 C 146.8922119140625 185.04954528808594 133.02410888671875 190.30581665039062 123.70256805419922 191.24119567871094 C 115.35530090332031 192.29757690429688 105.12947845458984 192.16217041015625 97.75150299072266 190.77810668945312" stroke-width="1.0" fill="rgb(214, 189, 149)" opacity="0.99207884"/>
    <path d="M 93.9786376953125 148.06594848632812 C 92.95713806152344 147.78895568847656 91.40603637695312 146.6167755126953 90.47179412841797 145.644287109375 C 86.23599243164062 140.7946319580078 85.54920959472656 134.01747131347656 89.2396240234375 126.75547790527344 C 93.85041046142578 117.66217803955078 97.40583038330078 115.40370178222656 111.9056396484375 115.88905334472656 C 126.39868927001953 115.54218292236328 129.97511291503906 117.37909698486328 134.56304931640625 125.72730255126953 C 140.50213623046875 137.4376983642578 135.90621948242188 148.58384704589844 125.36244201660156 148.88999938964844 L 121.2136001586914 148.87855529785156 L 119.82659149169922 144.34947204589844 C 119.05911254882812 141.20623779296875 117.71916198730469 139.24139404296875 116.10614776611328 137.9811553955078 C 113.84014129638672 137.0013427734375 113.5872573852539 136.06492614746094 113.60584259033203 133.1171875 C 113.41999816894531 130.05599975585938 113.66392517089844 129.78277587890625 116.44276428222656 128.8804931640625 C 119.92017364501953 127.4164810180664 122.11918640136719 123.58128356933594 120.93611907958984 121.82772064208984 C 118.3006591796875 116.27559661865234 101.84891510009766 117.3400650024414 102.72647094726562 122.91883087158203 C 102.67161560058594 125.36756896972656 106.65147399902344 129.66354370117188 109.02294158935547 129.3489532470703 C 109.94142150878906 129.49794006347656 110.2518081665039 130.3795623779297 110.41966247558594 133.12770080566406 C 110.3668212890625 135.9397735595703 110.01062774658203 136.9842071533203 108.29298400878906 137.7915496826172 C 106.86961364746094 138.37039184570312 105.16653442382812 140.7818603515625 104.29710388183594 143.99169921875 L 102.90625 149.11997985839844 L 98.69935607910156 148.60931396484375 C 96.9919662475586 148.7559356689453 94.72134399414062 148.57052612304688 93.9786376953125 148.06594848632812" stroke-width="1.0" fill="rgb(216, 191, 151)" opacity="0.99920255"/>
    <path d="M 107.92584991455078 145.91514587402344 C 109.71790313720703 138.16659545898438 114.44865417480469 138.53488159179688 116.35031127929688 146.4947052001953 C 116.77529907226562 148.93264770507812 116.75189208984375 148.96511840820312 112.11083984375 148.91064453125 L 107.36115264892578 148.90721130371094 L 107.92584991455078 145.91514587402344" stroke-width="1.0" fill="rgb(213, 184, 144)" opacity="0.9798359"/>
    <path d="M 147.23898315429688 143.9524383544922 C 144.18109130859375 135.8415985107422 137.14332580566406 121.5761947631836 134.11807250976562 118.27793884277344 C 129.4772491455078 113.36833190917969 125.74073028564453 111.96863555908203 112.16651153564453 112.12187194824219 C 98.65406036376953 111.82707977294922 95.08043670654297 113.24346160888672 89.98434448242188 118.44148254394531 C 86.87271118164062 121.92720031738281 78.24240112304688 139.043212890625 76.45600128173828 145.08584594726562 C 75.41267395019531 147.45065307617188 74.96006774902344 148.58924865722656 73.37955474853516 147.99269104003906 C 68.69036102294922 147.7238311767578 63.6881217956543 142.10446166992188 63.885284423828125 136.975830078125 C 63.66709518432617 135.75433349609375 64.57196044921875 131.8128204345703 65.91862487792969 128.41319274902344 C 67.43084716796875 124.98057556152344 69.29133605957031 118.66146850585938 70.09132385253906 114.4563217163086 C 75.10432434082031 90.86907958984375 81.877197265625 78.4683837890625 90.67570495605469 72.96389770507812 L 94.84010314941406 70.71109008789062 L 111.67748260498047 70.27391052246094 C 131.44293212890625 70.40848541259766 132.99627685546875 71.35525512695312 138.93980407714844 77.51705932617188 C 145.18167114257812 84.48360443115234 149.38726806640625 94.37965393066406 153.23617553710938 111.26103210449219 C 154.0464324951172 116.04585266113281 156.147705078125 123.60874938964844 158.11569213867188 128.20362854003906 C 161.2224578857422 136.32652282714844 161.07704162597656 137.47581481933594 159.0499267578125 142.058349609375 C 158.20718383789062 144.74139404296875 155.5587158203125 146.88644409179688 151.96240234375 147.8910369873047 C 149.56646728515625 148.73187255859375 149.11878967285156 148.51165771484375 147.23898315429688 143.9524383544922" stroke-width="1.0" fill="rgb(215, 189, 150)" opacity="0.9940104"/>
    <path d="M 84.90896606445312 109.8062515258789 C 82.51470947265625 106.89869689941406 82.27316284179688 105.00910949707031 84.19098663330078 101.7562484741211 C 88.36695861816406 93.6084976196289 100.80632019042969 93.44361114501953 101.02336120605469 101.74406433105469 C 100.79124450683594 107.60570526123047 96.38555908203125 111.69795989990234 89.92700958251953 112.07373809814453 C 87.35064697265625 111.9385757446289 86.28071594238281 111.4720458984375 84.90896606445312 109.8062515258789" stroke-width="1.0" fill="rgb(0, 0, 1)" opacity="0.9962175"/>
    <path d="M 126.5673828125 109.43353271484375 C 120.4879150390625 103.28208923339844 123.0525131225586 95.41677856445312 130.9475860595703 95.52571105957031 C 134.60374450683594 95.60110473632812 139.88705444335938 99.49729919433594 141.12973022460938 103.17957305908203 C 141.8768768310547 105.64547729492188 140.2859344482422 110.09210205078125 138.20742797851562 111.11187744140625 C 134.882080078125 112.98499298095703 129.76742553710938 112.21121215820312 126.5673828125 109.43353271484375" stroke-width="1.0" fill="rgb(0, 0, 1)" opacity="0.9969918"/>
  </g>
</svg>
