<?xml version="1.0" ?>
<svg xmlns="http://www.w3.org/2000/svg" version="1.1" width="224" height="224">
  <defs/>
  <g>
    <path d="M 67.34494018554688 194.37942504882812 C 65.42903137207031 192.86599731445312 58.261741638183594 180.58416748046875 58.50210952758789 177.84567260742188 C 58.416404724121094 176.37063598632812 59.00347900390625 170.6317138671875 58.56117248535156 166.2873077392578 C 59.33049774169922 160.76170349121094 60.19235610961914 151.20632934570312 59.954437255859375 143.66033935546875 C 62.40162658691406 122.01421356201172 67.16374206542969 100.8691635131836 72.32280731201172 92.12347412109375 C 73.67262268066406 87.38301849365234 75.73715209960938 81.7249755859375 77.6755599975586 79.72999572753906 C 81.349853515625 69.72663879394531 80.83206176757812 67.31056213378906 84.91949462890625 69.97550201416016 C 87.94532012939453 72.56410217285156 89.09110260009766 74.84505462646484 91.40019226074219 84.35633087158203 C 92.69865417480469 87.48271942138672 93.93916320800781 91.63761138916016 94.56182098388672 92.9765853881836 C 105.51305389404297 129.51084899902344 107.4888916015625 135.03187561035156 107.68384552001953 151.1953887939453 C 107.11004638671875 166.6341552734375 107.23872375488281 192.17477416992188 107.87670135498047 194.3126220703125 C 105.7266845703125 194.4468536376953 69.6348876953125 194.3048095703125 67.34494018554688 194.37942504882812" stroke-width="0.0" fill="rgb(224, 149, 10)" opacity="0.9955147"/>
    <path d="M 100.96930694580078 143.76947021484375 C 94.39311981201172 138.3727264404297 92.31568145751953 132.55038452148438 93.01460266113281 120.39679718017578 C 93.35086059570312 112.2774887084961 93.00330352783203 109.7357406616211 91.51693725585938 107.81452941894531 C 88.82333374023438 104.2354507446289 89.00270080566406 103.00299835205078 92.11154174804688 101.0044174194336 C 94.3017807006836 99.8567123413086 95.06326293945312 100.14788055419922 100.07328033447266 104.37065887451172 C 103.17131042480469 107.01741027832031 106.71186828613281 110.07777404785156 108.203857421875 110.78711700439453 L 110.98857879638672 112.58268737792969 L 109.92393493652344 129.51864624023438 C 108.93358612060547 148.5091094970703 108.25892639160156 149.5614471435547 100.96930694580078 143.76947021484375" stroke-width="1.0" fill="rgb(252, 225, 4)" opacity="0.9971536"/>
    <path d="M 134.86126708984375 118.01934051513672 C 127.66358947753906 117.72566223144531 120.71484375 115.1047134399414 117.45637512207031 113.7367172241211 C 109.30500030517578 110.73296356201172 102.84427642822266 106.72105407714844 99.98880004882812 101.85411834716797 C 97.73374938964844 99.93192291259766 94.9356689453125 95.87914276123047 93.79248046875 92.69957733154297 C 91.68490600585938 90.45449829101562 89.97557830810547 88.04324340820312 90.71627807617188 85.31827545166016 C 90.26248931884766 82.50414276123047 89.56866455078125 81.39959716796875 87.56873321533203 81.3250961303711 C 85.89019012451172 80.66654205322266 84.11778259277344 79.03807067871094 82.7063980102539 77.50045013427734 C 80.49343872070312 75.924560546875 80.92913818359375 75.72442626953125 81.412841796875 74.667724609375 C 82.29710388183594 72.8462142944336 83.81938171386719 68.99433135986328 84.43374633789062 65.46186828613281 C 89.49803924560547 53.83169174194336 97.5523681640625 32.48013687133789 98.33625793457031 31.985546112060547 C 102.82179260253906 31.858776092529297 105.28751373291016 32.7818489074707 105.73451232910156 33.24710464477539 C 106.13481140136719 33.747276306152344 106.37564086914062 37.482643127441406 105.15699768066406 42.0292854309082 C 106.54151153564453 45.920021057128906 106.62178039550781 49.314571380615234 106.0784912109375 49.781856536865234 C 106.42503356933594 51.316383361816406 113.77654266357422 51.536468505859375 116.23219299316406 50.850460052490234 C 117.10552978515625 48.73040771484375 116.91815185546875 45.401451110839844 117.37554931640625 43.03711700439453 C 117.17119598388672 35.91554260253906 117.2698745727539 33.51836013793945 121.5277099609375 32.63138198852539 C 127.3035659790039 31.642459869384766 129.97479248046875 34.75070571899414 130.5373992919922 43.50775146484375 C 130.463134765625 50.6429328918457 131.58380126953125 52.1059684753418 138.36062622070312 51.783843994140625 C 141.6148681640625 51.23333740234375 143.96263122558594 52.20558166503906 145.49899291992188 53.42070388793945 C 147.86541748046875 55.403900146484375 148.18099975585938 56.34758758544922 147.9038543701172 60.19239807128906 C 147.77685546875 63.14250183105469 147.78225708007812 65.82426452636719 145.6991424560547 67.2491226196289 C 146.72402954101562 71.29722595214844 147.62701416015625 73.49385070800781 149.9837646484375 78.51371002197266 C 152.0106964111328 83.53443908691406 153.38632202148438 89.72440338134766 156.13519287109375 95.98035430908203 L 158.7769775390625 105.26277923583984 L 153.36102294921875 111.31983947753906 C 151.0936279296875 115.20742797851562 148.19378662109375 119.59363555908203 147.57601928710938 122.11398315429688 L 143.58432006835938 123.80392456054688 L 134.86126708984375 118.01934051513672" stroke-width="0.0" fill="rgb(251, 228, 1)" opacity="0.9979737"/>
    <path d="M 104.3582763671875 193.50332641601562 C 104.14733123779297 191.0783233642578 105.42032623291016 159.82057189941406 106.09422302246094 145.85574340820312 C 106.3143539428711 138.33364868164062 107.40475463867188 127.78330993652344 107.974609375 122.33509826660156 L 109.21337127685547 113.08860778808594 L 105.88382720947266 111.65365600585938 C 100.9307861328125 109.13645935058594 95.12561798095703 102.78860473632812 93.0628662109375 96.0407943725586 C 90.66581726074219 89.3708724975586 89.80258178710938 80.88896179199219 92.60836791992188 77.38368225097656 C 96.62258911132812 76.88333129882812 94.91168212890625 81.43940734863281 95.77540588378906 89.3597412109375 C 98.70480346679688 101.57222747802734 104.63927459716797 108.34642791748047 118.638671875 111.80592346191406 C 136.02618408203125 114.46002960205078 137.8941192626953 116.60037231445312 142.2718505859375 118.98423767089844 C 144.23471069335938 121.08756256103516 146.28834533691406 122.68022155761719 148.4154052734375 121.9079818725586 C 149.0187225341797 121.36925506591797 147.75192260742188 120.95455169677734 146.40814208984375 118.34039306640625 C 143.11134338378906 110.90589904785156 143.59571838378906 108.06671905517578 151.06936645507812 105.31857299804688 C 153.63201904296875 104.46614074707031 156.25439453125 105.07543182373047 157.80194091796875 104.22647094726562 C 157.23806762695312 102.32740020751953 155.13287353515625 98.3097152709961 152.65847778320312 93.49089050292969 C 140.47055053710938 69.97207641601562 138.92185974121094 67.96212768554688 145.03717041015625 61.47258377075195 C 147.39076232910156 58.20623779296875 148.11793518066406 56.693626403808594 148.1724090576172 55.80084228515625 C 146.10250854492188 55.59367370605469 141.47808837890625 55.66307830810547 137.44766235351562 55.22641372680664 L 126.94327545166016 54.832496643066406 L 126.87062072753906 43.14989471435547 C 126.67162322998047 33.774417877197266 127.4302978515625 32.86856460571289 123.96353912353516 32.72004699707031 C 120.39448547363281 32.86265182495117 120.79713439941406 33.88930130004883 121.04890441894531 44.73668670654297 C 121.2490463256836 49.6055908203125 121.3670654296875 54.18833541870117 119.83991241455078 55.37030792236328 C 119.238525390625 55.945892333984375 115.12410736083984 54.85309982299805 111.03185272216797 55.16215133666992 L 102.95886993408203 54.95716094970703 L 103.05706787109375 42.08256912231445 C 103.63306427001953 32.951839447021484 103.56825256347656 31.926124572753906 100.3879623413086 33.34181594848633 C 98.3661117553711 32.381080627441406 98.44384765625 33.3584098815918 98.10626220703125 42.12494659423828 C 97.97721862792969 52.29469680786133 99.61626434326172 54.68876647949219 93.77698516845703 55.21431350708008 C 91.9502182006836 55.7488899230957 90.43439483642578 61.41511535644531 88.78824615478516 64.60623931884766 C 87.8620834350586 67.64659118652344 85.84564208984375 72.474365234375 84.81080627441406 75.49697875976562 C 70.6134033203125 104.38237762451172 66.05952453613281 121.5393295288086 63.173274993896484 156.2601318359375 C 62.04174041748047 165.23776245117188 60.93717956542969 175.888427734375 60.78195571899414 177.42010498046875 C 60.41566848754883 180.3681640625 56.82004165649414 181.83657836914062 56.75291061401367 178.67495727539062 C 57.48025131225586 174.0744171142578 61.559364318847656 130.83853149414062 63.03910827636719 123.11262512207031 C 65.07720947265625 110.63542175292969 71.98316192626953 91.68660736083984 80.63285064697266 72.86836242675781 C 84.61405944824219 63.244659423828125 85.53076934814453 64.17872619628906 80.87511444091797 59.302978515625 C 77.26211547851562 53.44639205932617 74.45684051513672 45.22592544555664 74.92485809326172 36.40825271606445 C 74.179443359375 30.680789947509766 75.02201843261719 30.180816650390625 77.22427368164062 29.22635269165039 C 80.369384765625 28.00000762939453 84.65762329101562 28.515361785888672 89.02356719970703 32.57624053955078 C 92.80743408203125 36.83689498901367 94.40918731689453 38.60555648803711 93.96270751953125 33.99102020263672 C 93.72130584716797 28.187305450439453 95.92793273925781 28.937171936035156 104.40269470214844 29.020793914794922 L 106.92764282226562 29.39059829711914 L 107.50820922851562 36.921573638916016 C 106.80953979492188 43.834197998046875 107.72279357910156 49.6915168762207 107.60344696044922 51.26203918457031 C 108.45963287353516 50.5380744934082 114.42242431640625 51.36156463623047 116.74042510986328 51.02214431762695 C 117.12057495117188 49.778656005859375 116.59955596923828 45.13102340698242 116.79508209228516 40.3829460144043 C 117.14915466308594 33.83583068847656 115.9932861328125 29.46088409423828 116.90956115722656 29.77044677734375 C 118.96005249023438 28.82520294189453 127.73560333251953 28.619361877441406 129.63621520996094 29.369598388671875 C 131.49472045898438 30.697154998779297 131.12896728515625 34.13232421875 130.94833374023438 40.153167724609375 C 131.25489807128906 45.42735290527344 131.01197814941406 49.65222930908203 131.43362426757812 51.159156799316406 C 133.25352478027344 50.96946334838867 137.8429718017578 51.026920318603516 142.7748260498047 51.31012725830078 C 154.26144409179688 50.392852783203125 155.18255615234375 53.32120132446289 149.37875366210938 61.86473846435547 C 145.05706787109375 67.87689971923828 145.2698974609375 68.6665267944336 148.37942504882812 75.22492980957031 C 149.05291748046875 77.48308563232422 152.57138061523438 83.63851928710938 155.366943359375 89.8524398803711 C 158.8688201904297 95.69547271728516 161.70166015625 104.50273132324219 164.01004028320312 105.23927307128906 C 169.72190856933594 108.38816833496094 169.25271606445312 110.377685546875 168.14500427246094 115.3607177734375 C 166.84371948242188 120.61605834960938 165.04393005371094 126.9183578491211 162.30848693847656 128.48007202148438 C 161.81768798828125 129.98388671875 159.91290283203125 131.6321258544922 156.54049682617188 131.30328369140625 C 152.62213134765625 131.40682983398438 149.53289794921875 131.58071899414062 142.9505615234375 125.33125305175781 C 140.120849609375 121.19097900390625 133.77687072753906 119.4332275390625 131.35606384277344 118.52579498291016 C 125.8563461303711 116.85462188720703 114.9227523803711 115.58802032470703 113.43173217773438 114.40193176269531 C 112.93045043945312 118.48267364501953 110.203857421875 138.0330810546875 109.41106414794922 166.39804077148438 C 107.91275024414062 191.68423461914062 110.21697235107422 196.0 104.3582763671875 193.50332641601562" stroke-width="0.0" fill="rgb(72, 21, 9)" opacity="0.99905384"/>
    <path d="M 105.18959045410156 80.41690826416016 C 102.64627075195312 79.36305236816406 98.9151840209961 75.37399291992188 98.890869140625 73.92044067382812 C 98.67236328125 72.9078598022461 97.93293762207031 72.21546936035156 97.02447509765625 71.55463409423828 C 94.47198486328125 70.81778717041016 95.19925689697266 69.21699523925781 99.07528686523438 68.37759399414062 C 105.01127624511719 66.26061248779297 110.2975845336914 66.75511932373047 114.62738800048828 70.50948333740234 C 118.92548370361328 73.71310424804688 120.9018783569336 76.97229766845703 118.0182876586914 76.87800598144531 C 117.33033752441406 76.86444854736328 116.00651550292969 77.5832748413086 114.9514389038086 78.47224426269531 C 113.12995147705078 80.31791687011719 107.583984375 81.40802001953125 105.18959045410156 80.41690826416016" stroke-width="1.0" fill="rgb(83, 30, 16)" opacity="0.96592075"/>
    <path d="M 82.67402648925781 52.95729064941406 C 79.7415771484375 46.428714752197266 77.92916107177734 32.43136978149414 79.78005981445312 32.410423278808594 C 81.5868911743164 32.154869079589844 89.21040344238281 37.877750396728516 91.68099975585938 41.03593063354492 C 94.91119384765625 44.91896438598633 94.99659729003906 50.49131774902344 92.00773620605469 51.50054168701172 C 91.06175231933594 51.90690231323242 90.13092041015625 52.61000061035156 89.9304428100586 52.976959228515625 C 90.02572631835938 53.42596435546875 89.02496337890625 54.80796432495117 87.81310272216797 56.25029373168945 L 85.89785766601562 59.27008819580078 L 82.67402648925781 52.95729064941406" stroke-width="1.0" fill="rgb(253, 229, 4)" opacity="0.9928309"/>
    <path d="M 149.47860717773438 124.81169128417969 L 146.0985107421875 123.35946655273438 L 148.68609619140625 121.22000122070312 C 151.087890625 119.72303771972656 151.197021484375 119.24412536621094 150.17974853515625 115.26616668701172 C 149.00540161132812 112.00263977050781 148.88192749023438 111.10043334960938 150.5756378173828 110.12924194335938 C 153.3162841796875 107.96073913574219 163.39378356933594 108.33256530761719 164.34632873535156 110.5358657836914 C 164.96929931640625 112.3758316040039 162.05825805664062 123.018310546875 160.15423583984375 125.3089599609375 C 158.61627197265625 127.27448272705078 153.30470275878906 127.13655090332031 149.47860717773438 124.81169128417969" stroke-width="1.0" fill="rgb(228, 154, 17)" opacity="0.99544656"/>
    <path d="M 55.438350677490234 187.3744354248047 C 56.14949417114258 182.9713897705078 56.85710525512695 179.61907958984375 56.7905387878418 179.626708984375 C 58.06613540649414 178.63449096679688 64.61125946044922 183.39947509765625 66.47599792480469 186.99407958984375 C 70.81483459472656 193.4018096923828 69.9607162475586 194.68850708007812 61.82990264892578 194.37442016601562 L 54.2780876159668 194.52188110351562 L 55.438350677490234 187.3744354248047" stroke-width="1.0" fill="rgb(254, 225, 0)" opacity="0.98642206"/>
  </g>
</svg>
