<?xml version="1.0" ?>
<svg xmlns="http://www.w3.org/2000/svg" version="1.1" width="224" height="224">
  <defs/>
  <g>
    <path d="M 110.95442199707031 192.62918090820312 C 110.1895751953125 192.8338165283203 109.77831268310547 184.81100463867188 110.1100082397461 175.31826782226562 C 109.8360366821289 163.56590270996094 110.249755859375 158.80560302734375 108.40422821044922 158.47787475585938 C 107.49170684814453 158.59979248046875 101.99173736572266 160.2760772705078 96.18019104003906 162.57846069335938 C 90.72160339355469 164.47869873046875 81.76736450195312 166.381591796875 76.73006439208984 166.67776489257812 C 64.98777770996094 167.22303771972656 63.946502685546875 166.0667724609375 68.74018859863281 156.1669158935547 C 71.3260498046875 152.19927978515625 72.56729125976562 149.5098114013672 72.379638671875 149.16786193847656 C 71.86593627929688 148.80557250976562 67.97978973388672 147.29058837890625 62.95891189575195 145.7242889404297 C 53.381290435791016 142.64122009277344 47.01122283935547 138.4617919921875 47.03059387207031 135.4835205078125 C 46.84040832519531 134.3956756591797 47.957733154296875 132.52734375 49.89842987060547 131.39064025878906 L 53.24125671386719 129.2108917236328 L 45.32191467285156 121.169921875 C 37.07746887207031 113.21672821044922 35.74504089355469 111.15935516357422 40.32538604736328 110.0257797241211 C 43.99046325683594 109.09284210205078 44.01561737060547 108.8857421875 40.60272216796875 94.06581115722656 C 38.33164978027344 87.56300354003906 37.52510070800781 81.69326782226562 38.177490234375 80.88557434082031 C 39.918731689453125 79.3514404296875 57.74006652832031 82.80333709716797 65.51922607421875 86.19198608398438 C 68.82843017578125 87.78910827636719 74.5338134765625 91.21171569824219 78.28059387207031 93.88460540771484 C 81.6439437866211 96.72673797607422 84.95707702636719 98.42790222167969 86.10142517089844 98.35298919677734 C 86.08082580566406 97.3668212890625 84.52498626708984 89.52385711669922 81.96757507324219 80.2363052368164 C 79.62539672851562 70.03163146972656 78.52818298339844 62.56114196777344 78.86133575439453 61.70375061035156 C 79.93362426757812 60.8522834777832 82.60881805419922 60.96186828613281 85.67796325683594 62.22992706298828 C 88.53655242919922 63.28093719482422 91.68425750732422 64.2301025390625 94.0902099609375 64.26155090332031 C 95.47441101074219 63.684814453125 108.74243927001953 39.418296813964844 110.4203872680664 32.991432189941406 C 110.84266662597656 28.0 114.47161865234375 28.421310424804688 115.13165283203125 33.62633514404297 C 115.86370086669922 36.95538330078125 129.51976013183594 65.0 130.39590454101562 65.23188781738281 C 130.7058563232422 65.14372253417969 133.61354064941406 63.99654006958008 137.2943878173828 62.867652893066406 C 140.89793395996094 61.761688232421875 144.3491668701172 60.8890266418457 145.25534057617188 60.997840881347656 C 146.94090270996094 60.92082977294922 145.19406127929688 73.12850952148438 142.36593627929688 82.80961608886719 C 140.95994567871094 87.08485412597656 139.3721466064453 92.69206237792969 138.8231201171875 95.64142608642578 L 137.8311004638672 100.51407623291016 L 144.25245666503906 95.21702575683594 C 148.11187744140625 92.55196380615234 154.408203125 88.76605224609375 158.08203125 86.75370025634766 C 166.92138671875 83.05207824707031 184.64926147460938 79.61430358886719 186.57376098632812 81.41273498535156 C 186.86773681640625 82.80315399169922 186.35733032226562 87.69834899902344 184.37484741210938 95.322265625 L 181.79742431640625 107.56292724609375 L 185.48814392089844 110.51322174072266 L 188.25497436523438 112.95552062988281 L 180.59786987304688 120.64755249023438 C 176.65428161621094 124.56771850585938 172.73057556152344 128.64990234375 172.34182739257812 128.937255859375 C 172.8065643310547 129.92755126953125 174.2603759765625 131.091552734375 176.0633544921875 131.7317657470703 C 178.00909423828125 132.6891632080078 179.40614318847656 134.17205810546875 179.35157775878906 134.31471252441406 C 179.662841796875 138.43052673339844 168.27938842773438 144.69732666015625 156.0526885986328 147.63465881347656 C 151.76695251464844 148.5274658203125 151.95098876953125 149.74366760253906 156.32748413085938 157.3925018310547 C 158.2571258544922 160.014404296875 160.01657104492188 164.44964599609375 158.95396423339844 165.09475708007812 C 157.8031463623047 168.01663208007812 148.19259643554688 167.49588012695312 134.01731872558594 163.94207763671875 C 127.0611343383789 161.84893798828125 120.0427474975586 159.75262451171875 118.60411071777344 159.0781707763672 C 115.07222747802734 158.35079956054688 114.92481994628906 159.05776977539062 115.05188751220703 174.53170776367188 C 115.53429412841797 192.302490234375 114.64785766601562 196.0 110.95442199707031 192.62918090820312" stroke-width="1.0" fill="rgb(107, 39, 5)" opacity="0.98948133"/>
    <path d="M 75.25344848632812 155.9032440185547 C 79.46989440917969 147.32806396484375 78.69586181640625 145.05877685546875 68.46240234375 141.9834747314453 C 63.63006591796875 140.480712890625 58.3984375 138.5380401611328 56.44599533081055 137.7485809326172 L 53.399803161621094 135.6770782470703 L 56.21241760253906 134.0602569580078 C 60.488861083984375 130.89512634277344 59.81281280517578 128.0677947998047 51.81173324584961 120.34712982177734 C 47.106712341308594 115.96642303466797 45.703330993652344 112.78717041015625 46.697601318359375 112.63288879394531 C 49.21417236328125 111.8009033203125 49.25206756591797 105.00601196289062 46.355926513671875 95.95935821533203 C 43.264076232910156 86.26376342773438 43.22154235839844 86.45308685302734 49.40690612792969 86.98237609863281 C 58.944580078125 88.8470230102539 68.34249877929688 93.0437240600586 76.96022033691406 99.66545104980469 C 86.27337646484375 107.41252899169922 89.1123275756836 108.39151763916016 91.72351837158203 103.5419921875 C 92.85582733154297 100.0878677368164 91.05821228027344 91.76392364501953 84.68030548095703 70.35295104980469 C 84.48304748535156 68.38375091552734 85.4217758178711 68.40392303466797 91.2153091430664 68.86845397949219 L 98.61121368408203 68.73764038085938 L 105.37120056152344 55.94087600708008 C 109.03518676757812 48.646453857421875 112.18427276611328 42.183494567871094 112.44925689697266 42.2393798828125 C 113.06785583496094 42.62348175048828 116.18904876708984 49.01295852661133 119.8134994506836 56.07014846801758 L 126.3042984008789 69.66267395019531 L 133.69400024414062 69.1173324584961 C 137.4079132080078 68.361083984375 140.63014221191406 68.0389633178711 140.37974548339844 68.30047607421875 C 140.43548583984375 68.64736938476562 138.8916015625 74.77326965332031 136.77951049804688 83.12416076660156 C 132.044677734375 98.95173645019531 131.69549560546875 102.87984466552734 134.33229064941406 105.5622329711914 C 137.36758422851562 107.66594696044922 139.83819580078125 106.30142211914062 149.0750274658203 98.44313049316406 C 156.3890380859375 93.00366973876953 166.40667724609375 88.67976379394531 175.53530883789062 87.27137756347656 C 180.71334838867188 86.07920837402344 180.98028564453125 86.3741455078125 180.5769500732422 89.29540252685547 C 180.1148223876953 91.06686401367188 178.75531005859375 96.27275848388672 177.6885528564453 100.87860107421875 C 176.2344970703125 108.36647033691406 176.35260009765625 109.61164093017578 178.35476684570312 111.91041564941406 C 180.548095703125 113.85694885253906 180.06689453125 114.52845764160156 173.3707733154297 120.64228057861328 C 165.18695068359375 127.47093200683594 164.28271484375 130.53521728515625 169.05685424804688 133.7511444091797 C 170.76620483398438 135.01336669921875 171.68695068359375 136.3865966796875 171.1470947265625 136.68603515625 C 170.87046813964844 137.3561248779297 165.38995361328125 139.44244384765625 158.96151733398438 141.547119140625 C 146.019287109375 145.4493408203125 145.43499755859375 147.0146026611328 150.02935791015625 156.073974609375 L 152.9777069091797 162.26121520996094 L 145.7488250732422 161.43780517578125 C 141.89414978027344 160.5015106201172 133.83372497558594 158.8500213623047 127.7497787475586 156.53627014160156 C 114.06993865966797 152.43026733398438 110.64735412597656 152.13433837890625 93.93413543701172 157.64886474609375 C 86.36239624023438 159.72219848632812 78.3936767578125 161.44541931152344 76.41140747070312 161.6773681640625 L 72.5130615234375 161.2861785888672 L 75.25344848632812 155.9032440185547" stroke-width="1.0" fill="rgb(238, 146, 0)" opacity="0.9917839"/>
  </g>
</svg>
