<?xml version="1.0" ?>
<svg xmlns="http://www.w3.org/2000/svg" version="1.1" width="224" height="224">
  <defs/>
  <g>
    <path d="M 79.08074951171875 193.93215942382812 C 77.41116333007812 193.36907958984375 79.49958801269531 188.74380493164062 81.89940643310547 185.06224060058594 C 88.49385070800781 174.35902404785156 91.32136535644531 164.46795654296875 90.9530029296875 151.45680236816406 L 91.19709777832031 139.77627563476562 L 86.08746337890625 139.78981018066406 C 81.4847640991211 140.85354614257812 80.07015991210938 140.6026153564453 80.63031005859375 137.86312866210938 C 80.10475158691406 135.27020263671875 78.55863952636719 135.52703857421875 65.72618865966797 135.52674865722656 C 58.31713104248047 135.57252502441406 49.73725509643555 134.9769287109375 46.77486801147461 134.50938415527344 C 39.89539337158203 132.75375366210938 34.28910827636719 126.36380004882812 33.259437561035156 119.1696548461914 C 32.26526641845703 110.33378601074219 34.45819854736328 93.20812225341797 38.67681884765625 81.52503967285156 C 42.12909698486328 71.30928039550781 55.114227294921875 49.27662658691406 61.70222854614258 41.81468963623047 C 69.65441131591797 32.051849365234375 84.49549102783203 28.635108947753906 115.22966766357422 28.0 C 132.57672119140625 28.483779907226562 133.52749633789062 29.210281372070312 141.1048126220703 31.707122802734375 C 152.9638671875 37.63519287109375 174.45703125 62.868797302246094 181.43792724609375 80.4375 C 189.065673828125 97.15435028076172 191.7347412109375 119.90635681152344 187.02024841308594 127.87596893310547 C 182.56951904296875 134.96734619140625 177.9974365234375 137.2071075439453 161.6154327392578 137.2151336669922 C 152.78298950195312 136.5542449951172 146.83941650390625 136.82496643066406 147.0897216796875 137.95115661621094 C 146.65142822265625 139.4668731689453 144.01284790039062 139.99598693847656 140.9061279296875 140.1212158203125 L 134.94520568847656 139.67213439941406 L 135.3807830810547 149.20706176757812 C 135.85948181152344 162.94200134277344 137.7405548095703 171.5936279296875 144.3792724609375 183.42254638671875 C 149.0713348388672 190.20416259765625 149.6325225830078 193.42269897460938 147.2816925048828 194.75619506835938 C 146.47927856445312 195.9607696533203 136.03656005859375 196.0 112.94808959960938 195.69485473632812 C 85.33346557617188 195.708984375 79.21611785888672 195.69601440429688 79.08074951171875 193.93215942382812" stroke-width="1.0" fill="rgb(53, 33, 18)" opacity="1.0"/>
    <path d="M 84.78252410888672 133.34164428710938 C 84.33218383789062 130.5772247314453 82.4333267211914 130.5264129638672 64.5041275024414 130.9419708251953 C 45.321327209472656 130.58631896972656 45.30149841308594 130.29440307617188 41.676063537597656 126.91387176513672 C 38.637176513671875 123.65595245361328 38.51509094238281 121.88591003417969 37.94740295410156 114.70101928710938 C 37.28935241699219 98.31361389160156 42.123870849609375 81.77603149414062 54.53727722167969 61.228660583496094 C 67.68280792236328 38.976051330566406 72.00845336914062 36.094635009765625 94.12027740478516 33.864036560058594 C 110.42948150634766 31.89397430419922 127.19392395019531 32.029090881347656 134.89633178710938 34.218536376953125 C 140.05093383789062 35.72649383544922 143.65884399414062 37.94500732421875 149.9496612548828 44.5032958984375 C 172.1954803466797 66.17999267578125 183.98089599609375 90.90486145019531 184.4732666015625 115.30250549316406 C 183.97349548339844 123.89738464355469 183.7081298828125 125.05804443359375 180.92428588867188 128.7263641357422 L 176.53622436523438 132.05712890625 L 161.16213989257812 132.2562255859375 C 149.23385620117188 131.7163848876953 144.45968627929688 131.863037109375 142.61630249023438 134.25157165527344 C 140.8964080810547 135.7685089111328 135.0147247314453 135.7160186767578 112.66184997558594 135.2208251953125 C 86.35575866699219 135.7887420654297 84.82904052734375 136.03317260742188 84.78252410888672 133.34164428710938" stroke-width="1.0" fill="rgb(252, 227, 166)" opacity="0.9946572"/>
    <path d="M 88.8868408203125 181.90782165527344 C 93.86367797851562 171.84368896484375 95.87749481201172 161.5185546875 95.901123046875 149.23574829101562 L 96.1644058227539 139.73178100585938 L 129.61569213867188 139.4427032470703 L 130.43429565429688 151.43826293945312 C 131.5819854736328 165.69058227539062 133.89111328125 174.52407836914062 138.20660400390625 182.7845916748047 C 139.83306884765625 186.2505340576172 142.0567169189453 189.60214233398438 142.03057861328125 190.6195068359375 C 142.33670043945312 190.90606689453125 129.51998901367188 191.18328857421875 113.59788513183594 191.19741821289062 L 84.39570617675781 191.07247924804688 L 88.8868408203125 181.90782165527344" stroke-width="1.0" fill="rgb(226, 175, 108)" opacity="0.9928612"/>
    <path d="M 70.4417724609375 107.70465850830078 C 69.79396057128906 107.27771759033203 70.18854522705078 103.20164489746094 70.95028686523438 98.88613891601562 C 73.0880126953125 89.53439331054688 79.98600769042969 82.06727600097656 86.00247955322266 82.29849243164062 C 90.72589111328125 82.31378173828125 90.74736785888672 84.007568359375 84.80650329589844 87.20072937011719 C 79.21025848388672 89.08186340332031 76.39175415039062 93.72685241699219 75.17816162109375 102.51742553710938 C 73.57380676269531 108.17932891845703 71.94235229492188 110.29486083984375 70.4417724609375 107.70465850830078" stroke-width="1.0" fill="rgb(57, 41, 25)" opacity="0.98159915"/>
    <path d="M 147.4249267578125 108.06294250488281 C 146.99667358398438 108.2948226928711 146.52743530273438 106.12939453125 145.9236602783203 103.72109985351562 C 146.4550323486328 97.49736022949219 142.35934448242188 89.26990509033203 137.71493530273438 87.66151428222656 C 133.31336975097656 85.3463134765625 132.71832275390625 82.907470703125 136.60086059570312 83.01237487792969 C 139.89346313476562 82.6565933227539 144.7346954345703 86.17457580566406 147.20596313476562 90.42416381835938 C 151.27542114257812 97.5541763305664 151.67880249023438 112.2939682006836 147.4249267578125 108.06294250488281" stroke-width="1.0" fill="rgb(56, 38, 23)" opacity="0.98107374"/>
  </g>
</svg>
