<?xml version="1.0" ?>
<svg xmlns="http://www.w3.org/2000/svg" version="1.1" width="224" height="224">
  <defs/>
  <g>
    <path d="M 153.97105407714844 159.88719177246094 C 148.5018310546875 158.29502868652344 144.7811737060547 153.38345336914062 144.69178771972656 147.5974578857422 C 145.36160278320312 145.86898803710938 144.6053009033203 145.8249969482422 144.17982482910156 148.08621215820312 C 143.77783203125 149.701904296875 143.1153106689453 150.92877197265625 142.25035095214844 151.47572326660156 C 141.5497283935547 152.09271240234375 126.75628662109375 151.89366149902344 109.51749420166016 151.8096466064453 C 85.39199829101562 151.89073181152344 77.1510009765625 151.9894561767578 76.38619995117188 151.61883544921875 C 75.98875427246094 150.60252380371094 76.318115234375 148.61656188964844 75.60369873046875 146.3876495361328 C 75.36544799804688 145.59237670898438 74.55322265625 143.5865478515625 73.91988372802734 142.24876403808594 C 72.31474304199219 140.89865112304688 72.16681671142578 140.8808135986328 74.247314453125 143.7016143798828 C 76.9622802734375 152.1637420654297 72.15498352050781 159.9309539794922 62.91331100463867 159.86131286621094 C 60.55891036987305 159.70655822753906 57.8178825378418 159.30828857421875 56.496334075927734 158.21771240234375 C 53.69310760498047 156.88050842285156 50.43474578857422 151.82025146484375 50.82881164550781 148.6073455810547 C 50.5150146484375 146.4553680419922 50.386009216308594 146.23109436035156 50.06526184082031 150.0274658203125 C 48.86052703857422 152.82742309570312 47.38457489013672 151.6355438232422 37.1673583984375 151.77859497070312 L 28.39484405517578 151.5965576171875 L 28.0 131.90672302246094 C 28.040771484375 117.87075805664062 28.34581756591797 109.8376235961914 29.83702850341797 103.08494567871094 C 30.326744079589844 97.55586242675781 31.19141387939453 89.62255859375 31.23345184326172 85.13047790527344 L 31.554656982421875 77.07890319824219 L 37.79497528076172 72.4986343383789 C 40.85797882080078 70.11143493652344 45.557769775390625 66.84808349609375 48.55519104003906 65.90225219726562 L 54.482566833496094 63.98789596557617 L 99.86610412597656 63.70087432861328 L 143.51710510253906 63.763450622558594 L 148.73728942871094 66.62652587890625 C 150.7216033935547 67.87835693359375 152.82528686523438 72.59228515625 154.39382934570312 76.70025634765625 L 157.83718872070312 85.23503112792969 L 171.80564880371094 85.08880615234375 L 184.73687744140625 85.3851318359375 L 188.07797241210938 87.69271087646484 C 190.2666015625 89.80696105957031 190.552001953125 92.8120346069336 192.67384338378906 103.07840728759766 C 196.0 115.37763214111328 194.96932983398438 115.72100830078125 195.18563842773438 132.9155731201172 L 195.1312255859375 151.74951171875 L 183.74209594726562 151.9760284423828 C 171.6382293701172 151.5819549560547 169.662841796875 152.4464874267578 169.6056365966797 148.41636657714844 C 170.21131896972656 146.5190887451172 167.86375427246094 141.13294982910156 166.7511444091797 141.2305908203125 C 167.29888916015625 141.70669555664062 167.40960693359375 142.8055419921875 168.49191284179688 143.92367553710938 C 170.7160186767578 150.55288696289062 167.05987548828125 157.85781860351562 160.47381591796875 159.51705932617188 C 157.62197875976562 160.2991180419922 157.26193237304688 160.1887969970703 153.97105407714844 159.88719177246094" stroke-width="1.0" fill="rgb(38, 35, 28)" opacity="0.99577814"/>
    <path d="M 179.44100952148438 131.52330017089844 C 176.75173950195312 129.1586456298828 176.61993408203125 126.6077880859375 178.916259765625 124.19971466064453 C 184.17617797851562 119.09654998779297 192.44644165039062 125.53980255126953 187.913818359375 131.3393096923828 C 185.19320678710938 134.33767700195312 181.85372924804688 134.64102172851562 179.44100952148438 131.52330017089844" stroke-width="1.0" fill="rgb(29, 38, 25)" opacity="1.0"/>
    <path d="M 31.86351776123047 135.16873168945312 L 31.893470764160156 121.16639709472656 L 105.79191589355469 121.24014282226562 C 146.1955108642578 121.3270263671875 179.2413787841797 120.91934967041016 180.3944091796875 121.42536163330078 C 179.80023193359375 122.65950012207031 178.6151885986328 123.84197998046875 177.87893676757812 125.2863540649414 C 176.6829833984375 127.81586456298828 177.50515747070312 130.76287841796875 180.39434814453125 132.57667541503906 C 185.4986572265625 135.88858032226562 191.862548828125 128.8272705078125 187.97076416015625 124.11309051513672 L 185.17788696289062 121.48736572265625 L 191.865234375 121.12915802001953 L 191.408203125 134.45230102539062 L 191.57476806640625 147.9445343017578 L 173.55621337890625 147.99000549316406 L 173.08836364746094 145.61471557617188 C 171.39549255371094 137.2958221435547 165.12301635742188 132.20980834960938 157.07839965820312 131.8424072265625 C 155.00039672851562 131.98504638671875 151.56277465820312 132.59793090820312 150.32025146484375 133.3026885986328 C 146.11395263671875 134.65777587890625 141.32562255859375 140.40768432617188 140.86419677734375 144.39952087402344 L 140.11813354492188 147.97877502441406 L 79.29954528808594 148.00164794921875 L 79.2917251586914 145.7091827392578 C 79.34030151367188 144.5302734375 78.37425231933594 142.29840087890625 77.41569519042969 140.47760009765625 C 70.88227844238281 127.24098205566406 50.360809326171875 129.7852020263672 47.06776428222656 144.263671875 L 45.475059509277344 148.0648193359375 L 32.172096252441406 148.0659637451172 L 31.86351776123047 135.16873168945312" stroke-width="1.0" fill="rgb(253, 250, 0)" opacity="0.99613243"/>
    <path d="M 31.115745544433594 116.73087310791016 C 31.469764709472656 115.69023895263672 32.2725830078125 109.5162124633789 33.25592041015625 102.74624633789062 C 34.073638916015625 95.60791015625 34.636817932128906 89.88756561279297 34.234458923339844 88.86454772949219 C 34.31321716308594 88.58619689941406 68.04179382324219 88.72663116455078 109.36522674560547 88.86351013183594 C 167.67510986328125 88.91127014160156 184.76788330078125 88.34245300292969 185.27037048339844 89.75476837158203 C 186.45220947265625 91.7069091796875 191.0889892578125 111.63726806640625 191.49606323242188 115.95442199707031 C 192.51121520996094 117.84125518798828 191.13833618164062 117.22109985351562 111.62522888183594 117.38545989990234 C 47.80908203125 117.39701843261719 30.324417114257812 117.48158264160156 31.115745544433594 116.73087310791016" stroke-width="1.0" fill="rgb(252, 247, 0)" opacity="0.9882363"/>
    <path d="M 34.96723937988281 82.0320053100586 C 34.50010681152344 79.60728454589844 35.408668518066406 78.56857299804688 39.910247802734375 75.59330749511719 C 42.60487365722656 73.38623046875 46.53600311279297 70.64103698730469 49.05369567871094 69.92427825927734 L 53.680152893066406 67.78972625732422 L 98.36602020263672 67.61732482910156 C 136.55447387695312 67.628662109375 143.8193359375 67.16595458984375 145.66017150878906 69.21258544921875 C 147.76849365234375 70.76158142089844 150.89016723632812 77.53250885009766 153.26715087890625 83.27224731445312 C 154.56019592285156 85.43246459960938 153.69813537597656 84.87060546875 94.45574188232422 84.92239379882812 L 34.90065002441406 84.97221374511719 L 34.96723937988281 82.0320053100586" stroke-width="1.0" fill="rgb(253, 251, 0)" opacity="0.99579364"/>
    <path d="M 60.2435302734375 154.64187622070312 C 57.72364044189453 153.74642944335938 55.500545501708984 150.46673583984375 55.63676452636719 147.57647705078125 C 55.52472686767578 144.76092529296875 58.450164794921875 141.22711181640625 61.67467498779297 140.57823181152344 C 64.32913208007812 139.77720642089844 68.73995208740234 141.8084716796875 69.62318420410156 144.2281494140625 C 71.17352294921875 148.0745849609375 68.74952697753906 154.40989685058594 65.57957458496094 154.41461181640625 C 65.32221984863281 154.65682983398438 64.42188262939453 154.8130340576172 63.7631721496582 154.93084716796875 C 63.050655364990234 155.13653564453125 61.67723846435547 155.0382080078125 60.2435302734375 154.64187622070312" stroke-width="1.0" fill="rgb(252, 254, 255)" opacity="0.9972647"/>
    <path d="M 151.7951202392578 153.28448486328125 C 148.10020446777344 148.9045867919922 148.90475463867188 143.82679748535156 153.69723510742188 141.31478881835938 C 157.03610229492188 139.684326171875 161.5802001953125 140.8872833251953 163.1924285888672 143.82638549804688 C 165.07778930664062 146.72792053222656 164.36537170410156 150.89259338378906 162.25872802734375 153.13189697265625 C 160.17672729492188 155.59201049804688 154.0749053955078 155.58059692382812 151.7951202392578 153.28448486328125" stroke-width="1.0" fill="rgb(251, 253, 255)" opacity="0.9956492"/>
    <path d="M 180.49159240722656 129.38809204101562 C 179.26101684570312 126.46306610107422 180.83419799804688 123.9024658203125 183.7054443359375 124.31974029541016 C 185.58660888671875 124.55412292480469 186.24810791015625 125.49365234375 186.28741455078125 127.50739288330078 C 186.2172088623047 129.47496032714844 185.57821655273438 130.46780395507812 183.55264282226562 130.67034912109375 C 182.17837524414062 130.93576049804688 180.85336303710938 130.25619506835938 180.49159240722656 129.38809204101562" stroke-width="1.0" fill="rgb(249, 88, 2)" opacity="0.98189723"/>
    <path d="M 46.09558868408203 104.13188171386719 C 45.41526794433594 103.35939025878906 45.38365936279297 102.55247497558594 45.83082580566406 101.05744171142578 C 46.15934753417969 100.59913635253906 66.62726593017578 100.6513671875 96.66130828857422 100.78109741210938 C 140.25001525878906 100.84772491455078 146.3545684814453 100.25051879882812 146.07786560058594 102.20259094238281 C 146.45220947265625 104.92459106445312 140.51405334472656 104.50962829589844 96.46672821044922 104.48384094238281 C 60.41537094116211 104.64488983154297 45.85712432861328 104.91033935546875 46.09558868408203 104.13188171386719" stroke-width="1.0" fill="rgb(39, 33, 30)" opacity="0.98952574"/>
    <path d="M 152.5703582763672 103.07820129394531 C 151.3939971923828 100.83116912841797 154.04112243652344 100.56493377685547 166.99130249023438 100.72814178466797 C 178.52780151367188 100.94512176513672 180.7373046875 101.146484375 180.4319305419922 102.53821563720703 C 180.7382354736328 104.14115905761719 178.43646240234375 104.62559509277344 166.69046020507812 104.66407012939453 C 157.54177856445312 104.72947692871094 152.80343627929688 104.52403259277344 152.5703582763672 103.07820129394531" stroke-width="1.0" fill="rgb(35, 33, 32)" opacity="0.9959973"/>
  </g>
</svg>
