<?xml version="1.0" ?>
<svg xmlns="http://www.w3.org/2000/svg" version="1.1" width="224" height="224">
  <defs/>
  <g>
    <path d="M 77.04096221923828 167.2300262451172 C 77.04096221923828 167.2300262451172 77.04096221923828 167.2300262451172 77.04096221923828 167.2300262451172 C 67.41587829589844 168.47793579101562 57.21183776855469 169.84893798828125 48.294761657714844 173.92462158203125 C 47.139381408691406 174.45265197753906 46.00606918334961 175.04434204101562 44.950862884521484 175.75405883789062 C 44.14183807373047 176.299072265625 43.362525939941406 176.92047119140625 42.73432159423828 177.6734619140625 C 39.27326965332031 181.81959533691406 45.02726364135742 185.24925231933594 48.294761657714844 186.74249267578125 C 49.214996337890625 187.1627197265625 50.171730041503906 187.54981994628906 51.11997985839844 187.9004364013672 C 54.05979537963867 188.98873901367188 57.09214401245117 189.82154846191406 60.1414680480957 190.5354766845703 C 64.82752227783203 191.6331329345703 69.57978820800781 192.44046020507812 74.34563446044922 193.0898895263672 C 92.65943908691406 195.58741760253906 111.33572387695312 196.0 129.77769470214844 195.00674438476562 C 142.8061065673828 194.3046875 156.09005737304688 193.04913330078125 168.68804931640625 189.53036499023438 C 170.90968322753906 188.9097900390625 173.11264038085938 188.2034912109375 175.24851989746094 187.3282470703125 C 176.5176544189453 186.807861328125 177.76812744140625 186.22634887695312 178.95407104492188 185.53448486328125 C 181.79031372070312 183.87908935546875 184.85406494140625 180.89512634277344 182.16468811035156 177.6734619140625 C 181.53648376464844 176.92047119140625 180.75633239746094 176.299072265625 179.94644165039062 175.75405883789062 C 175.49725341796875 172.75906372070312 169.90625 171.33795166015625 164.7550048828125 170.13165283203125 C 162.5452423095703 169.61465454101562 160.3202362060547 169.1647186279297 158.08755493164062 168.7623291015625 C 131.62411499023438 164.000732421875 103.68438720703125 164.03553771972656 77.04096221923828 167.2300262451172 C 77.04096221923828 167.2300262451172 77.04096221923828 167.2300262451172 77.04096221923828 167.2300262451172" stroke-width="0.0" fill="rgb(184, 203, 205)" opacity="1.0"/>
    <path d="M 153.8633270263672 28.0 C 153.8633270263672 28.0 153.8633270263672 28.0 153.8633270263672 28.0 C 160.68017578125 28.07640838623047 167.4588165283203 28.602737426757812 174.15679931640625 29.910072326660156 C 176.61782836914062 30.38971710205078 180.510986328125 30.736923217773438 182.54330444335938 32.348182678222656 C 184.04335021972656 33.538368225097656 184.234375 35.29393768310547 184.65713500976562 37.02320098876953 C 185.74119567871094 41.4494743347168 186.44241333007812 45.97338104248047 186.87704467773438 50.507476806640625 C 188.74554443359375 70.01400756835938 185.43983459472656 89.92802429199219 177.3241424560547 107.76811981201172 C 158.1181182861328 149.9833221435547 114.484375 180.10562133789062 67.70791625976562 179.07418823242188 C 61.275630950927734 178.93240356445312 54.837406158447266 178.24649047851562 48.540103912353516 176.91368103027344 C 46.4271354675293 176.46629333496094 43.26404571533203 176.13267517089844 41.52715301513672 174.7599639892578 C 40.01776885986328 173.56723022460938 39.830162048339844 171.8014678955078 39.40485382080078 170.06626892089844 C 38.415008544921875 166.02540588378906 37.74690246582031 161.9038848876953 37.30461883544922 157.76962280273438 C 35.25447082519531 138.6171112060547 38.218055725097656 118.99256896972656 45.85920333862305 101.31037139892578 C 58.63208770751953 71.75259399414062 84.24322509765625 46.7560920715332 114.39608001708984 35.250640869140625 C 127.00596618652344 30.43895721435547 140.381591796875 28.072166442871094 153.8633270263672 28.0 C 153.8633270263672 28.0 153.8633270263672 28.0 153.8633270263672 28.0" stroke-width="0.0" fill="rgb(120, 55, 65)" opacity="1.0"/>
    <path d="M 179.692626953125 35.725196838378906 C 179.66375732421875 35.754058837890625 179.63490295410156 35.78291320800781 179.6060333251953 35.81178283691406 C 170.73904418945312 33.113059997558594 161.13604736328125 32.30912780761719 151.916748046875 32.47721862792969 C 93.41751861572266 33.54685974121094 42.84638214111328 84.92532348632812 41.25379943847656 143.13931274414062 C 40.999122619628906 152.44435119628906 41.70033264160156 162.13650512695312 44.293792724609375 171.1240234375 C 44.31925964355469 171.20892333984375 44.3447265625 171.29380798339844 44.37019348144531 171.3787078857422 C 52.35685729980469 173.63429260253906 60.74505615234375 174.57998657226562 69.02629089355469 174.66064453125 C 82.67865753173828 174.79307556152344 96.33102416992188 172.3167724609375 109.04193115234375 167.32086181640625 C 150.30804443359375 151.0996551513672 180.88621520996094 110.04238891601562 182.75299072265625 65.5809326171875 C 183.16896057128906 55.683353424072266 182.5186767578125 45.28235626220703 179.692626953125 35.725196838378906 C 179.692626953125 35.725196838378906 179.692626953125 35.725196838378906 179.692626953125 35.725196838378906" stroke-width="0.0" fill="rgb(120, 55, 65)" opacity="1.0"/>
    <path d="M 153.85992431640625 36.912841796875 C 153.85992431640625 36.912841796875 153.85992431640625 36.912841796875 153.85992431640625 36.912841796875 C 139.0717010498047 36.99858093261719 124.45750427246094 40.1285514831543 111.0233154296875 46.35624313354492 C 66.23248291015625 67.11918640136719 36.880157470703125 118.5706558227539 48.00273132324219 167.64089965820312 C 48.00273132324219 167.64089965820312 48.00273132324219 167.64089965820312 48.00273132324219 167.64089965820312 C 56.03268814086914 169.5806884765625 64.34024047851562 170.35235595703125 72.59346008300781 170.157958984375 C 113.81202697753906 169.18765258789062 151.6858367919922 141.90838623046875 168.73219299316406 104.762939453125 C 174.9310302734375 91.2548828125 178.1688232421875 76.46751403808594 178.2969970703125 61.61222839355469 C 178.3615264892578 54.185855865478516 177.69766235351562 46.70854568481445 176.05584716796875 39.45790100097656 C 176.05584716796875 39.45790100097656 176.05584716796875 39.45790100097656 176.05584716796875 39.45790100097656 C 168.77294921875 37.70402526855469 161.3414764404297 36.99348449707031 153.85992431640625 36.912841796875 C 153.85992431640625 36.912841796875 153.85992431640625 36.912841796875 153.85992431640625 36.912841796875" stroke-width="0.0" fill="rgb(254, 185, 175)" opacity="1.0"/>
    <path d="M 176.9022216796875 33.77946472167969 C 176.9022216796875 33.77946472167969 176.9022216796875 33.77946472167969 176.9022216796875 33.77946472167969 C 178.58648681640625 33.80577850341797 180.86753845214844 33.512054443359375 182.08999633789062 34.957763671875 C 183.3837432861328 36.486671447753906 182.781005859375 40.47575759887695 182.67828369140625 42.380741119384766 C 182.28184509277344 49.683170318603516 180.81744384765625 56.927024841308594 178.7324981689453 63.925537109375 C 177.95571899414062 66.53427124023438 177.08644104003906 69.1158447265625 176.1322479248047 71.66600799560547 C 175.06344604492188 74.52178192138672 173.89108276367188 77.33850860595703 172.6236572265625 80.1119384765625 C 164.05462646484375 98.86717224121094 151.35220336914062 115.52132415771484 136.8271484375 130.0548858642578 C 121.22736358642578 145.66314697265625 103.0578842163086 159.16867065429688 82.51566314697266 167.51016235351562 C 72.73013305664062 171.48312377929688 62.33423614501953 174.35333251953125 51.772796630859375 175.14453125 C 49.46797561645508 175.3168487548828 46.90932083129883 175.5706787109375 44.61553192138672 175.2540283203125 C 43.46778869628906 175.09613037109375 42.814971923828125 175.09359741210938 42.0382080078125 174.2259979248047 C 41.186737060546875 173.27435302734375 41.32850646972656 172.0994415283203 41.30388641357422 170.9270782470703 C 41.238525390625 167.76483154296875 41.47197723388672 164.594970703125 41.86077880859375 161.45819091796875 C 43.5823974609375 147.57322692871094 48.47388458251953 134.13734436035156 54.980873107910156 121.81014251708984 C 60.19834899902344 111.92699432373047 66.54149627685547 102.65760803222656 73.629150390625 94.02577209472656 C 91.42594909667969 72.3536376953125 113.92323303222656 53.24440002441406 139.93760681152344 42.265289306640625 C 151.54916381835938 37.364463806152344 164.21678161621094 33.846527099609375 176.9022216796875 33.77946472167969 C 176.9022216796875 33.77946472167969 176.9022216796875 33.77946472167969 176.9022216796875 33.77946472167969" stroke-width="0.0" fill="rgb(120, 55, 65)" opacity="1.0"/>
    <path d="M 176.8020477294922 39.72277069091797 C 176.8029022216797 39.72277069091797 176.80459594726562 39.72277069091797 176.80545043945312 39.72277069091797 C 158.5290069580078 39.861995697021484 140.4265899658203 47.22893524169922 125.01524353027344 56.54076385498047 C 116.75948333740234 61.52988052368164 108.99778747558594 67.31698608398438 101.7242202758789 73.64569854736328 C 82.25504302978516 90.58763885498047 65.22736358642578 111.41254425048828 55.25847244262695 135.39373779296875 C 50.80247497558594 146.11138916015625 47.554500579833984 157.7119140625 47.257381439208984 169.38034057617188 C 47.257381439208984 169.38034057617188 47.257381439208984 169.38034057617188 47.257381439208984 169.38034057617188 C 65.53466796875 169.23687744140625 83.63453674316406 161.87586975097656 99.04756927490234 152.56234741210938 C 107.302490234375 147.57408142089844 115.06333923339844 141.78697204589844 122.33690643310547 135.45742797851562 C 141.80609130859375 118.51377868652344 158.83970642089844 97.68632507324219 168.80859375 73.70257568359375 C 173.26287841796875 62.98748016357422 176.51002502441406 51.38865661621094 176.8020477294922 39.72277069091797 C 176.8020477294922 39.72277069091797 176.8020477294922 39.72277069091797 176.8020477294922 39.72277069091797" stroke-width="0.0" fill="rgb(254, 185, 175)" opacity="1.0"/>
    <path d="M 70.71055603027344 87.03999328613281 C 70.71055603027344 87.03999328613281 70.71055603027344 87.03999328613281 70.71055603027344 87.03999328613281 C 75.95858764648438 82.95243072509766 82.72874450683594 88.14698791503906 85.47161102294922 92.92556762695312 C 86.59642791748047 94.88488006591797 87.35791015625 97.2992172241211 86.69744873046875 99.54801177978516 C 86.3570327758789 100.70933532714844 85.59215545654297 101.90885925292969 84.42828369140625 102.39105224609375 C 82.39341735839844 103.23402404785156 80.10218048095703 101.48779296875 80.36109924316406 99.28484344482422 C 80.42561340332031 98.7381362915039 80.7881088256836 98.26953125 81.00119018554688 97.76272583007812 C 81.00119018554688 97.76272583007812 81.00119018554688 97.76272583007812 81.00119018554688 97.76272583007812 C 80.28130340576172 94.75584411621094 77.69293212890625 92.17002868652344 74.687744140625 91.44759368896484 C 74.687744140625 91.44759368896484 74.687744140625 91.44759368896484 74.687744140625 91.44759368896484 C 74.23103332519531 91.65557861328125 73.81166076660156 91.9815673828125 73.31843566894531 92.07070922851562 C 69.97793579101562 92.6734390258789 69.47196960449219 89.15210723876953 70.71055603027344 87.03999328613281 C 70.71055603027344 87.03999328613281 70.71055603027344 87.03999328613281 70.71055603027344 87.03999328613281" stroke-width="0.0" fill="rgb(120, 55, 65)" opacity="1.0"/>
    <path d="M 87.6007080078125 75.67207336425781 C 87.6007080078125 75.67207336425781 87.6007080078125 75.67207336425781 87.6007080078125 75.67207336425781 C 91.71968078613281 77.25192260742188 95.66207122802734 80.65524291992188 96.95413208007812 85.02125549316406 C 97.59336853027344 87.180908203125 97.60270690917969 89.8083267211914 95.84033966064453 91.48070526123047 C 94.40226745605469 92.84576416015625 91.95652770996094 92.54609680175781 91.05836486816406 90.65979766845703 C 90.38092041015625 89.23869323730469 90.89198303222656 88.78707122802734 91.431884765625 87.51113891601562 C 91.431884765625 87.51113891601562 91.431884765625 87.51113891601562 91.431884765625 87.51113891601562 C 90.71200561523438 84.50341033935547 88.12533569335938 81.9158935546875 85.11845397949219 81.19261169433594 C 85.11845397949219 81.19261169433594 85.11845397949219 81.19261169433594 85.11845397949219 81.19261169433594 C 83.98090362548828 81.70365905761719 83.59379577636719 82.14085388183594 82.29749298095703 81.69007873535156 C 80.13868713378906 80.93878173828125 79.76345825195312 78.40645599365234 81.14041137695312 76.7850112915039 C 82.75590515136719 74.88427734375 85.479248046875 75.18733978271484 87.6007080078125 75.67207336425781 C 87.6007080078125 75.67207336425781 87.6007080078125 75.67207336425781 87.6007080078125 75.67207336425781" stroke-width="0.0" fill="rgb(120, 55, 65)" opacity="1.0"/>
    <path d="M 91.51168823242188 66.23460388183594 C 91.51168823242188 66.23460388183594 91.51168823242188 66.23460388183594 91.51168823242188 66.23460388183594 C 96.63663482666016 62.25655746459961 103.17078399658203 67.13700866699219 106.0342025756836 71.70336151123047 C 107.31267547607422 73.74162292480469 108.2363052368164 76.36479187011719 107.5045394897461 78.7680892944336 C 107.1539306640625 79.91838073730469 106.38140869140625 81.11366271972656 105.22602844238281 81.59245300292969 C 103.18946838378906 82.4371337890625 100.89312744140625 80.69429779052734 101.15629577636719 78.48709869384766 C 101.22166442871094 77.93954467773438 101.58500671386719 77.47178649902344 101.7997817993164 76.96412658691406 C 101.7997817993164 76.96412658691406 101.7997817993164 76.96412658691406 101.7997817993164 76.96412658691406 C 101.07819366455078 73.9563980102539 98.49067687988281 71.3714370727539 95.48294830322266 70.65069580078125 C 95.48294830322266 70.65069580078125 95.48294830322266 70.65069580078125 95.48294830322266 70.65069580078125 C 93.25198364257812 71.67195129394531 89.77903747558594 70.80435180664062 90.74171447753906 67.53346252441406 C 90.88433837890625 67.0504150390625 91.25531768798828 66.66755676269531 91.51168823242188 66.23460388183594 C 91.51168823242188 66.23460388183594 91.51168823242188 66.23460388183594 91.51168823242188 66.23460388183594" stroke-width="0.0" fill="rgb(120, 55, 65)" opacity="1.0"/>
    <path d="M 129.34983825683594 34.89409637451172 C 129.34983825683594 34.89409637451172 129.34983825683594 34.89409637451172 129.34983825683594 34.89409637451172 C 133.646240234375 34.35248565673828 133.92892456054688 39.53430938720703 135.23202514648438 42.58958053588867 C 139.00718688964844 51.43704605102539 144.83502197265625 59.38889694213867 151.61622619628906 66.16838836669922 C 158.0994415283203 72.64990997314453 165.6455078125 78.24006652832031 174.0167236328125 82.03388977050781 C 177.03634643554688 83.40235900878906 182.2589111328125 83.80644989013672 181.720703125 88.06039428710938 C 179.36070251464844 95.08607482910156 177.0006866455078 102.11175537109375 174.64068603515625 109.13743591308594 C 173.06085205078125 111.82936096191406 171.0175018310547 111.18334197998047 168.529296875 110.12303161621094 C 163.57330322265625 108.01176452636719 158.99758911132812 104.97940826416016 154.62820434570312 101.8604736328125 C 138.77713012695312 90.5451889038086 125.54158782958984 76.9709243774414 115.66352844238281 60.12491226196289 C 113.26361846923828 56.031410217285156 111.00464630126953 51.79444122314453 109.33820343017578 47.34269332885742 C 108.72782897949219 45.711910247802734 107.76600646972656 43.683841705322266 109.16417694091797 42.13880157470703 C 109.50374603271484 41.76357650756836 110.00885772705078 41.58020782470703 110.43077087402344 41.30091094970703 C 116.73826599121094 39.16503143310547 123.0448989868164 37.029136657714844 129.35240173339844 34.89409637451172 C 129.35240173339844 34.89409637451172 129.34983825683594 34.89409637451172 129.34983825683594 34.89409637451172" stroke-width="0.0" fill="rgb(120, 55, 65)" opacity="1.0"/>
    <path d="M 51.76854705810547 101.73567962646484 C 51.76854705810547 101.73567962646484 51.76854705810547 101.73567962646484 51.76854705810547 101.73567962646484 C 58.81375503540039 103.98532104492188 65.35979461669922 107.7401123046875 71.56201934814453 111.71136474609375 C 85.907958984375 120.89415740966797 97.55091857910156 132.64918518066406 107.5962142944336 146.35418701171875 C 110.86116790771484 150.8084716796875 114.01322174072266 155.45462036132812 116.36134338378906 160.46920776367188 C 117.21875 162.3003387451172 118.89622497558594 165.1230010986328 117.22893524169922 166.9872283935547 C 116.88597106933594 167.37094116210938 116.37152862548828 167.55770874023438 115.94281768798828 167.84210205078125 C 108.9171371459961 170.2021026611328 101.89146423339844 172.56210327148438 94.86578369140625 174.92210388183594 C 90.66107177734375 175.6020965576172 90.15171813964844 170.12399291992188 88.83248901367188 167.21389770507812 C 85.03781127929688 158.84352111816406 79.44935607910156 151.29998779296875 72.96697998046875 144.817626953125 C 66.18495178222656 138.03558349609375 58.23564147949219 132.20603942871094 49.386474609375 128.4283447265625 C 46.33375549316406 127.1243896484375 41.15362548828125 126.84085083007812 41.69609069824219 122.5478515625 C 43.83113098144531 116.24121856689453 45.96701431274414 109.9354248046875 48.102909088134766 103.62877655029297 C 49.20820617675781 101.95215606689453 49.76084899902344 101.66777038574219 51.76854705810547 101.73567962646484 C 51.76854705810547 101.73567962646484 51.76854705810547 101.73567962646484 51.76854705810547 101.73567962646484" stroke-width="0.0" fill="rgb(120, 55, 65)" opacity="1.0"/>
    <path d="M 130.30404663085938 37.707427978515625 C 123.99654388427734 39.84331512451172 117.68990325927734 41.97920227050781 111.38241577148438 44.11424255371094 C 113.47330474853516 50.632266998291016 116.9250259399414 56.69102478027344 120.568603515625 62.45350646972656 C 128.511962890625 75.01585388183594 138.3034210205078 85.37610626220703 149.92855834960938 94.5826644897461 C 156.57308959960938 99.84343719482422 163.7549591064453 105.33850860595703 171.823974609375 108.19682312011719 C 174.18312072753906 101.171142578125 176.54141235351562 94.14546966552734 178.90057373046875 87.11978912353516 C 156.77003479003906 79.60768127441406 137.31358337402344 60.05445098876953 130.30404663085938 37.707427978515625 C 130.30404663085938 37.707427978515625 130.30404663085938 37.707427978515625 130.30404663085938 37.707427978515625" stroke-width="0.0" fill="rgb(120, 55, 65)" opacity="1.0"/>
    <path d="M 128.4185791015625 41.48343276977539 C 124.00332641601562 42.976680755615234 119.58894348144531 44.470794677734375 115.17369842529297 45.96404266357422 C 122.52876281738281 63.93233108520508 135.45359802246094 79.06607055664062 150.4167022705078 91.14877319335938 C 156.51705932617188 96.07506561279297 162.92047119140625 100.86044311523438 170.00811767578125 104.27820587158203 C 171.72463989257812 99.1659927368164 173.4420166015625 94.05463409423828 175.15853881835938 88.94242095947266 C 154.21478271484375 80.63826751708984 136.30252075195312 62.623291015625 128.4185791015625 41.48343276977539 C 128.4185791015625 41.48343276977539 128.4185791015625 41.48343276977539 128.4185791015625 41.48343276977539" stroke-width="0.0" fill="rgb(254, 254, 254)" opacity="1.0"/>
    <path d="M 50.91623306274414 104.5804214477539 C 50.91623306274414 104.5804214477539 50.91623306274414 104.5804214477539 50.91623306274414 104.5804214477539 C 57.43425750732422 106.67046356201172 63.49216842651367 110.12218475341797 69.25379943847656 113.76576232910156 C 81.81700134277344 121.70912170410156 92.17809295654297 131.50143432617188 101.38465881347656 143.12742614746094 C 106.64627838134766 149.77108764648438 112.14134979248047 156.95297241210938 114.99797058105469 165.02197265625 C 107.97313690185547 167.38197326660156 100.94746398925781 169.7419891357422 93.92178344726562 172.10198974609375 C 86.40966796875 149.971435546875 66.85813903808594 130.50904846191406 44.509422302246094 123.49949645996094 C 46.64530563354492 117.19285583496094 48.78034591674805 110.8862075805664 50.91623306274414 104.5804214477539" stroke-width="0.0" fill="rgb(120, 55, 65)" opacity="1.0"/>
    <path d="M 52.76942825317383 108.3750991821289 C 51.27447509765625 112.78865051269531 49.7795295715332 117.20304107666016 48.284576416015625 121.61658477783203 C 69.42527770996094 129.50392150878906 87.43601989746094 147.41534423828125 95.74781799316406 168.35653686523438 C 100.85916900634766 166.6400146484375 105.97138214111328 164.9226531982422 111.08358764648438 163.2061309814453 C 107.66497802734375 156.11932373046875 102.88045501708984 149.71591186523438 97.95331573486328 143.6164093017578 C 85.87145233154297 128.65670776367188 70.73262023925781 115.73270416259766 52.76942825317383 108.3750991821289 C 52.76942825317383 108.3750991821289 52.76942825317383 108.3750991821289 52.76942825317383 108.3750991821289" stroke-width="0.0" fill="rgb(254, 254, 254)" opacity="1.0"/>
  </g>
</svg>
