<?xml version="1.0" ?>
<svg xmlns="http://www.w3.org/2000/svg" version="1.1" width="224" height="224">
  <defs/>
  <g>
    <path d="M 82.91273498535156 187.97610473632812 L 53.90333938598633 188.46163940429688 L 51.775211334228516 183.6125030517578 C 52.39442443847656 180.51629638671875 52.29376983642578 69.98452758789062 52.1468620300293 61.12303924560547 C 55.05887222290039 52.52040100097656 73.10661315917969 35.80299377441406 93.1326904296875 31.97063446044922 C 102.00559997558594 29.10870361328125 114.25379943847656 28.00000762939453 124.61090087890625 30.030128479003906 C 141.0509796142578 33.44481658935547 152.5154571533203 38.54609680175781 165.74462890625 52.24531555175781 L 171.96304321289062 59.053977966308594 L 171.73968505859375 121.32139587402344 C 171.49490356445312 174.55361938476562 171.95242309570312 182.43243408203125 173.51345825195312 184.68441772460938 L 168.5202178955078 186.82748413085938 L 140.9392547607422 185.5595245361328 C 124.76487731933594 185.11756896972656 99.04409790039062 186.4857177734375 82.91273498535156 187.97610473632812" stroke-width="0.0" fill="rgb(85, 60, 31)" opacity="0.99628437"/>
    <path d="M 73.29167175292969 179.63565063476562 C 71.27667236328125 177.34486389160156 69.5506591796875 137.45945739746094 71.88731384277344 97.30303192138672 L 71.46879577636719 71.38174438476562 L 76.81378173828125 65.53932189941406 C 78.62432861328125 61.82112121582031 84.03755950927734 59.10784912109375 86.63813781738281 57.10173034667969 C 92.43379211425781 54.15789794921875 94.46905517578125 54.08629608154297 110.66401672363281 55.842002868652344 C 128.49642944335938 54.03437042236328 128.8618621826172 53.9156494140625 134.99270629882812 56.859962463378906 C 141.08116149902344 59.91124725341797 145.24073791503906 64.03407287597656 149.56402587890625 71.09971618652344 C 152.0810546875 74.97807312011719 152.81539916992188 79.22021484375 153.15231323242188 125.96671295166016 C 150.63438415527344 169.64813232421875 150.62994384765625 176.53375244140625 149.08956909179688 179.0962371826172 C 147.67001342773438 180.98153686523438 147.53758239746094 180.48968505859375 111.57820892333984 181.1334228515625 C 80.07074737548828 180.6376190185547 75.64642333984375 181.0427703857422 73.29167175292969 179.63565063476562" stroke-width="0.0" fill="rgb(87, 63, 35)" opacity="0.93172765"/>
    <path d="M 81.26472473144531 167.60133361816406 L 81.33412170410156 160.76522827148438 L 95.6386489868164 161.12384033203125 L 95.53034973144531 174.25906372070312 L 81.37982177734375 174.23028564453125 L 81.26472473144531 167.60133361816406" stroke-width="1.0" fill="rgb(253, 253, 253)" opacity="0.993277"/>
    <path d="M 103.63009643554688 167.92279052734375 L 103.69519805908203 160.91012573242188 L 119.412841796875 161.104248046875 L 119.4512710571289 174.26498413085938 L 103.68010711669922 174.54275512695312 L 103.63009643554688 167.92279052734375" stroke-width="1.0" fill="rgb(252, 253, 252)" opacity="0.9916233"/>
    <path d="M 127.049560546875 167.75033569335938 L 127.30061340332031 161.02378845214844 L 142.15414428710938 160.92686462402344 L 142.3884735107422 174.4000701904297 L 127.38195037841797 174.63653564453125 L 127.049560546875 167.75033569335938" stroke-width="1.0" fill="rgb(253, 253, 253)" opacity="0.9940296"/>
    <path d="M 62.18827819824219 116.7704849243164 L 62.034915924072266 63.040096282958984 L 68.71141052246094 56.601646423339844 C 81.28976440429688 44.98809051513672 94.80970001220703 39.42894744873047 112.18907165527344 39.224647521972656 C 129.76815795898438 39.83631896972656 142.8101348876953 44.728607177734375 155.4259490966797 56.42631530761719 L 162.46102905273438 63.20480728149414 L 162.22511291503906 170.9489288330078 L 158.91232299804688 170.29795837402344 C 158.5126953125 169.83848571777344 155.95654296875 169.56576538085938 154.88917541503906 169.57772827148438 C 151.99435424804688 169.8325958251953 152.30947875976562 166.8779296875 152.15286254882812 123.34239959716797 C 152.1734161376953 92.57624816894531 152.59896850585938 77.0905532836914 150.76702880859375 73.93431854248047 C 149.7230224609375 68.03570556640625 142.87002563476562 59.422943115234375 136.80836486816406 56.77873229980469 C 131.89544677734375 54.581390380859375 129.86972045898438 52.887062072753906 114.5633544921875 53.21314239501953 C 94.5254898071289 52.94029235839844 89.61344909667969 54.67816925048828 81.75386810302734 61.01453399658203 C 71.28300476074219 70.89899444580078 71.08949279785156 69.17021179199219 71.63777160644531 121.9668960571289 L 71.42549133300781 169.13999938964844 L 68.31593322753906 169.8461151123047 C 60.63168716430664 171.78292846679688 62.652034759521484 175.8656005859375 62.18827819824219 116.7704849243164" stroke-width="1.0" fill="rgb(254, 254, 254)" opacity="0.99797803"/>
    <path d="M 81.3284683227539 147.24554443359375 L 81.44877624511719 139.96343994140625 L 95.966064453125 140.15628051757812 L 95.76292419433594 153.58265686035156 L 81.10880279541016 153.36508178710938 L 81.3284683227539 147.24554443359375" stroke-width="1.0" fill="rgb(253, 253, 252)" opacity="0.9912723"/>
    <path d="M 103.73619842529297 146.6575927734375 L 104.14915466308594 139.8173828125 L 119.3272933959961 140.4611053466797 L 119.0737533569336 153.6735382080078 L 103.54408264160156 153.29530334472656 L 103.73619842529297 146.6575927734375" stroke-width="1.0" fill="rgb(253, 253, 252)" opacity="0.9915357"/>
    <path d="M 127.17292022705078 147.08352661132812 L 127.10450744628906 139.70823669433594 L 142.42596435546875 139.8864288330078 L 142.16329956054688 153.677001953125 L 127.59210968017578 153.6589813232422 L 127.17292022705078 147.08352661132812" stroke-width="1.0" fill="rgb(253, 254, 253)" opacity="0.99509025"/>
    <path d="M 81.20771026611328 125.78583526611328 L 81.37442779541016 118.33375549316406 L 96.02613830566406 118.57240295410156 L 95.6701889038086 132.35653686523438 L 81.18717193603516 132.3606414794922 L 81.20771026611328 125.78583526611328" stroke-width="1.0" fill="rgb(252, 253, 252)" opacity="0.99154526"/>
    <path d="M 103.49295806884766 125.90010833740234 L 103.59115600585938 118.25096130371094 L 119.42269134521484 118.5815200805664 L 119.4112548828125 132.45201110839844 L 103.521240234375 132.31094360351562 L 103.49295806884766 125.90010833740234" stroke-width="1.0" fill="rgb(253, 253, 253)" opacity="0.9931432"/>
    <path d="M 127.0687255859375 125.90834045410156 L 127.28483581542969 118.44285583496094 L 142.06849670410156 118.53314971923828 L 142.669677734375 132.3719024658203 L 127.03082275390625 132.10191345214844 L 127.0687255859375 125.90834045410156" stroke-width="1.0" fill="rgb(252, 252, 252)" opacity="0.98864526"/>
    <path d="M 81.20181274414062 104.85383605957031 L 81.23054504394531 97.0067138671875 L 95.98934173583984 96.97276306152344 L 95.90608978271484 110.95211029052734 L 81.29991149902344 111.06239318847656 L 81.20181274414062 104.85383605957031" stroke-width="1.0" fill="rgb(253, 253, 252)" opacity="0.9918693"/>
    <path d="M 103.72403717041016 105.05183410644531 L 103.51944732666016 96.87755584716797 L 119.29961395263672 97.02153015136719 L 119.27172088623047 110.98878479003906 L 103.90709686279297 111.14506530761719 L 103.72403717041016 105.05183410644531" stroke-width="1.0" fill="rgb(253, 254, 252)" opacity="0.9930475"/>
    <path d="M 127.15972137451172 103.83796691894531 L 127.26707458496094 97.2389144897461 L 142.23379516601562 97.24091339111328 L 142.51266479492188 110.9571533203125 L 127.25000762939453 111.07292938232422 L 127.15972137451172 103.83796691894531" stroke-width="1.0" fill="rgb(252, 253, 252)" opacity="0.991687"/>
    <path d="M 81.6043701171875 84.2113037109375 C 80.88727569580078 78.45246887207031 82.23628997802734 74.40583038330078 86.38999938964844 70.13002014160156 C 91.78827667236328 64.42080688476562 95.34657287597656 63.32920455932617 112.64314270019531 63.644439697265625 C 125.35194396972656 63.44306564331055 128.30409240722656 63.38971710205078 132.12838745117188 65.49120330810547 C 138.89649963378906 69.99519348144531 142.28660583496094 75.48240661621094 142.53582763671875 83.37217712402344 L 142.56561279296875 89.3909912109375 L 127.18344116210938 89.51919555664062 L 127.56547546386719 81.33841705322266 C 128.88865661621094 74.50299072265625 127.8136978149414 72.60931396484375 123.53738403320312 72.08120727539062 C 120.11175537109375 72.43528747558594 118.67035675048828 74.45834350585938 119.40701293945312 81.72331237792969 L 119.30022430419922 89.19024658203125 L 103.87853240966797 89.473876953125 L 103.9281997680664 81.35517120361328 C 104.21627807617188 73.86921691894531 103.79310607910156 73.54559326171875 101.14616394042969 72.09260559082031 C 96.20729064941406 71.84330749511719 94.47892761230469 73.63972473144531 95.7195053100586 81.74856567382812 L 95.65868377685547 89.544677734375 L 81.41747283935547 89.63623046875 L 81.6043701171875 84.2113037109375" stroke-width="1.0" fill="rgb(254, 255, 254)" opacity="0.9984276"/>
    <path d="M 75.47303771972656 194.17242431640625 C 56.02753829956055 191.76219177246094 39.61504364013672 186.06732177734375 39.69708251953125 181.76919555664062 C 39.73918914794922 179.52749633789062 42.652565002441406 176.87217712402344 47.80702590942383 174.35769653320312 L 52.05125045776367 172.58607482910156 L 51.50733947753906 176.42056274414062 C 51.97866439819336 181.6659698486328 53.519718170166016 184.14242553710938 56.27041244506836 183.939208984375 C 60.99687957763672 184.03573608398438 62.797218322753906 182.61465454101562 62.14330291748047 175.83224487304688 C 61.73797607421875 169.24588012695312 62.27620315551758 168.888671875 65.34193420410156 168.47232055664062 C 66.99665832519531 168.8085479736328 69.37944793701172 168.11386108398438 70.275634765625 167.39830017089844 C 71.52064514160156 167.55111694335938 71.67466735839844 169.16876220703125 71.67658233642578 174.48468017578125 C 71.733642578125 180.28326416015625 72.2247314453125 181.13941955566406 74.04246520996094 182.9274139404297 C 75.03451538085938 183.69863891601562 88.85842895507812 183.8256072998047 112.10560607910156 183.3717041015625 C 154.14662170410156 183.55946350097656 152.35000610351562 184.74192810058594 151.94029235839844 174.41152954101562 L 151.6366729736328 168.01597595214844 L 157.21604919433594 168.94273376464844 L 162.3291473388672 168.2277374267578 L 162.4441680908203 175.8272705078125 C 161.69468688964844 182.1986083984375 163.1898956298828 183.99417114257812 167.4453125 184.16961669921875 C 170.64431762695312 184.5039825439453 171.2706756591797 183.22080993652344 172.15267944335938 177.4591827392578 L 173.30581665039062 172.607421875 L 179.0837860107422 175.49884033203125 C 183.02224731445312 177.71282958984375 183.95022583007812 178.7742462158203 184.38494873046875 181.3689727783203 C 184.3392791748047 186.40017700195312 173.36813354492188 190.68356323242188 150.11927795410156 194.34640502929688 C 141.44493103027344 195.97366333007812 86.080078125 196.0 75.47303771972656 194.17242431640625" stroke-width="1.0" fill="rgb(185, 213, 214)" opacity="1.0"/>
  </g>
</svg>
