<?xml version="1.0" ?>
<svg xmlns="http://www.w3.org/2000/svg" version="1.1" width="224" height="224">
  <defs/>
  <g>
    <path d="M 90.87205505371094 189.47219848632812 C 64.74503326416016 182.90472412109375 43.2586669921875 161.60903930664062 35.64051055908203 134.0653076171875 C 32.12067413330078 124.86355590820312 32.032386779785156 104.79238891601562 35.099884033203125 94.714111328125 C 39.22918701171875 77.70039367675781 49.863399505615234 60.530799865722656 62.33015060424805 50.805572509765625 C 86.47925567626953 31.249191284179688 120.0872802734375 28.00000762939453 147.89500427246094 42.51825714111328 C 160.08853149414062 49.05150604248047 174.81695556640625 64.01197814941406 180.4566650390625 76.30130004882812 C 189.10443115234375 93.67774200439453 191.96762084960938 113.98603057861328 187.22476196289062 131.33641052246094 C 182.30499267578125 153.1258087158203 165.5148468017578 174.65664672851562 145.91232299804688 183.8823699951172 C 130.74851989746094 192.00282287597656 108.69271087646484 193.94667053222656 90.87205505371094 189.47219848632812" stroke-width="1.0" fill="rgb(44, 34, 30)" opacity="0.99938285"/>
    <path d="M 96.86167907714844 179.37583923339844 C 74.87918090820312 174.71630859375 55.61662673950195 156.57009887695312 49.50738525390625 134.38134765625 C 46.590110778808594 126.41415405273438 46.51578140258789 110.83413696289062 49.28193283081055 102.33106994628906 C 55.528778076171875 79.74335479736328 75.30436706542969 60.293548583984375 96.38919067382812 55.84424591064453 C 104.64295959472656 54.10193634033203 118.77006530761719 54.18114471435547 126.64643096923828 56.39788818359375 C 150.20960998535156 62.349639892578125 170.10137939453125 84.09201049804688 174.12069702148438 108.83601379394531 C 179.74130249023438 140.6460418701172 157.2157745361328 172.73777770996094 124.39812469482422 179.63790893554688 C 114.11425018310547 181.57400512695312 106.79192352294922 181.47381591796875 96.86167907714844 179.37583923339844" stroke-width="1.0" fill="rgb(252, 224, 205)" opacity="0.99524397"/>
    <path d="M 82.96940612792969 195.09814453125 C 82.05419158935547 194.8883056640625 77.34104919433594 194.06796264648438 72.4915771484375 193.28005981445312 C 56.4657096862793 190.68649291992188 39.45648956298828 184.10162353515625 39.80903625488281 180.36976623535156 C 39.912269592285156 178.5481719970703 43.500816345214844 175.74111938476562 49.6884765625 173.1822509765625 L 56.579681396484375 170.07553100585938 L 62.90727615356445 175.03526306152344 C 80.59774780273438 189.36508178710938 104.99634552001953 194.9320831298828 127.81736755371094 190.17413330078125 C 138.0196075439453 188.10630798339844 153.10379028320312 180.75863647460938 160.2725372314453 174.52279663085938 L 166.07254028320312 170.23910522460938 L 173.40789794921875 173.75347900390625 C 179.88864135742188 176.45993041992188 181.08712768554688 177.48526000976562 181.3869171142578 179.82742309570312 C 180.97439575195312 184.92538452148438 170.2573699951172 189.36097717285156 146.6145782470703 193.56890869140625 C 136.4989776611328 195.30322265625 129.32241821289062 195.900634765625 109.27039337158203 196.0 C 95.96402740478516 195.60491943359375 83.89254760742188 195.1400146484375 82.96940612792969 195.09814453125" stroke-width="1.0" fill="rgb(100, 137, 147)" opacity="0.95292443"/>
    <path d="M 95.59013366699219 172.49478149414062 C 74.76793670654297 167.06460571289062 57.762447357177734 148.3517608642578 54.0809326171875 126.67578887939453 C 50.4238166809082 106.76073455810547 61.54127502441406 82.70970916748047 79.06372833251953 70.81806945800781 C 111.2524185180664 49.25855255126953 154.86683654785156 65.18193817138672 166.2245635986328 102.33108520507812 C 175.5634765625 132.49732971191406 156.81448364257812 164.2843475341797 125.43402099609375 172.5412139892578 C 116.84415435791016 175.1123809814453 104.20558166503906 175.01898193359375 95.59013366699219 172.49478149414062" stroke-width="1.0" fill="rgb(44, 35, 32)" opacity="0.99339646"/>
    <path d="M 99.73442077636719 163.8336944580078 C 91.25650787353516 162.10305786132812 81.0133285522461 156.00750732421875 74.68696594238281 148.79653930664062 C 61.09074401855469 133.90052795410156 58.75172424316406 113.49007415771484 69.04623413085938 95.14875793457031 C 87.90044403076172 60.149749755859375 137.18661499023438 62.06974792480469 154.69151306152344 98.52034759521484 C 158.33665466308594 106.12748718261719 158.77162170410156 107.2396240234375 159.34707641601562 118.79461669921875 C 158.80587768554688 129.17263793945312 158.1436767578125 131.06301879882812 155.1526336669922 137.2347412109375 C 150.20352172851562 147.48220825195312 142.7328338623047 155.12701416015625 132.81582641601562 160.18423461914062 C 125.14398956298828 163.5565185546875 122.72944641113281 164.44058227539062 114.32793426513672 165.14312744140625 C 108.58452606201172 165.08795166015625 102.24175262451172 164.66818237304688 99.73442077636719 163.8336944580078" stroke-width="1.0" fill="rgb(250, 247, 241)" opacity="0.9916829"/>
  </g>
</svg>
