<?xml version="1.0" ?>
<svg xmlns="http://www.w3.org/2000/svg" version="1.1" width="224" height="224">
  <defs/>
  <g>
    <path d="M 113.65884399414062 32.74617004394531 C 113.65884399414062 32.74617004394531 113.65884399414062 32.74617004394531 113.65884399414062 32.74617004394531 C 124.85517120361328 32.84635925292969 135.88992309570312 35.11201477050781 146.1153564453125 39.718116760253906 C 154.96771240234375 43.705421447753906 163.06509399414062 49.33110046386719 169.88815307617188 56.23884582519531 C 176.4663848876953 62.89963150024414 181.84298706054688 70.72958374023438 185.69342041015625 79.2623062133789 C 189.10777282714844 86.8276596069336 191.31838989257812 94.92855834960938 192.22154235839844 103.17903900146484 C 196.0 137.697998046875 175.98094177246094 171.49867248535156 143.90403747558594 184.78567504882812 C 134.44911193847656 188.70240783691406 124.2476577758789 190.75567626953125 114.01446533203125 190.80154418945312 C 104.31610870361328 190.84457397460938 94.6255111694336 189.087646484375 85.56147766113281 185.63873291015625 C 76.80790710449219 182.30831909179688 68.66255950927734 177.41294860839844 61.61439895629883 171.245361328125 C 55.3642692565918 165.77490234375 49.988365173339844 159.31661987304688 45.74211883544922 152.17816162109375 C 28.00000762939453 122.3556137084961 32.174285888671875 83.32510375976562 55.81513977050781 57.92802810668945 C 62.87670135498047 50.34150695800781 71.40801239013672 44.16687774658203 80.83753967285156 39.861358642578125 C 91.16175842285156 35.14800262451172 102.32916259765625 32.83366394042969 113.65884399414062 32.74617004394531 C 113.65884399414062 32.74617004394531 113.65884399414062 32.74617004394531 113.65884399414062 32.74617004394531" stroke-width="0.0" fill="rgb(35, 31, 32)" opacity="1.0"/>
    <path d="M 190.90985107421875 111.77173614501953 C 190.90985107421875 111.77173614501953 190.90985107421875 111.77173614501953 190.90985107421875 111.77173614501953 C 190.80825805664062 122.69288635253906 188.63644409179688 133.44680786132812 184.14816284179688 143.42669677734375 C 170.0779571533203 174.71334838867188 136.0289306640625 193.2464141845703 102.11466217041016 188.16615295410156 C 94.27201080322266 186.99134826660156 86.62057495117188 184.59445190429688 79.50961303710938 181.0848388671875 C 71.32969665527344 177.04673767089844 63.88499450683594 171.54946899414062 57.60734558105469 164.93243408203125 C 50.99877166748047 157.967529296875 45.700477600097656 149.77630615234375 42.08009338378906 140.88304138183594 C 38.32563781738281 131.66024780273438 36.40642547607422 121.7276382446289 36.4078369140625 111.77173614501953 C 36.408546447753906 101.70223999023438 38.370086669921875 91.66026306152344 42.20851135253906 82.34856414794922 C 45.91004180908203 73.36990356445312 51.32404708862305 65.11801147460938 58.067386627197266 58.131248474121094 C 64.47769165039062 51.48880386352539 72.0733871459961 46.004241943359375 80.40359497070312 42.02540588378906 C 87.65637969970703 38.560951232910156 95.44752502441406 36.249427795410156 103.415771484375 35.193870544433594 C 136.9391326904297 30.753578186035156 170.272705078125 49.264076232910156 184.14816284179688 80.1181869506836 C 188.63644409179688 90.09736633300781 190.80825805664062 100.8512954711914 190.90985107421875 111.77173614501953 C 190.90985107421875 111.77173614501953 190.90985107421875 111.77173614501953 190.90985107421875 111.77173614501953" stroke-width="0.0" fill="rgb(35, 31, 32)" opacity="1.0"/>
    <path d="M 103.807373046875 36.941619873046875 C 103.807373046875 36.941619873046875 103.807373046875 36.941619873046875 103.807373046875 36.941619873046875 C 93.25313568115234 38.431121826171875 83.12224578857422 41.928741455078125 74.03492736816406 47.533958435058594 C 65.82395935058594 52.59870147705078 58.60857391357422 59.2425537109375 52.88764190673828 67.01041412353516 C 47.65003204345703 74.1220703125 43.676849365234375 82.1502914428711 41.203041076660156 90.62939453125 C 38.89434814453125 98.5426025390625 37.89452362060547 106.82907104492188 38.253662109375 115.06473541259766 C 39.67261505126953 147.6038055419922 62.666439056396484 176.2501220703125 94.12383270263672 184.6784210205078 C 103.49620819091797 187.18960571289062 113.33779907226562 187.87051391601562 122.96630859375 186.673828125 C 132.98924255371094 185.42776489257812 142.73768615722656 182.15310668945312 151.4785614013672 177.09188842773438 C 159.12506103515625 172.664306640625 165.97706604003906 166.8890380859375 171.63449096679688 160.10194396972656 C 192.38453674316406 135.20726013183594 194.78988647460938 98.69994354248047 177.40623474121094 71.33216094970703 C 172.93560791015625 64.29458618164062 167.287353515625 58.01199722290039 160.7747344970703 52.806846618652344 C 153.59674072265625 47.06968688964844 145.37167358398438 42.666786193847656 136.6180877685547 39.87194061279297 C 126.00599670410156 36.48297882080078 114.84564971923828 35.59252166748047 103.807373046875 36.941619873046875 C 103.807373046875 36.941619873046875 103.807373046875 36.941619873046875 103.807373046875 36.941619873046875" stroke-width="0.0" fill="rgb(198, 143, 145)" opacity="1.0"/>
    <path d="M 113.65884399414062 74.68583679199219 C 113.65884399414062 74.68583679199219 113.65884399414062 74.68583679199219 113.65884399414062 74.68583679199219 C 120.49532318115234 74.67666625976562 127.21114349365234 75.89875030517578 133.51278686523438 78.59481811523438 C 138.14358520507812 80.57611846923828 142.5725860595703 83.239013671875 146.21343994140625 86.74227905273438 C 148.82200622558594 89.25277709960938 151.05238342285156 92.1739273071289 152.65408325195312 95.42741394042969 C 154.01162719726562 98.186279296875 154.90350341796875 101.171630859375 155.22665405273438 104.2317886352539 C 155.45950317382812 106.44381713867188 155.40164184570312 108.68477630615234 155.05308532714844 110.88198852539062 C 152.16580200195312 129.08131408691406 131.81089782714844 138.9031524658203 115.02910614013672 139.1204833984375 C 107.71282196044922 139.21502685546875 100.5644760131836 138.09878540039062 93.80772399902344 135.20726013183594 C 89.17622375488281 133.2252655029297 84.74793243408203 130.56304931640625 81.10707092285156 127.05979919433594 C 78.497802734375 124.54930114746094 76.26742553710938 121.6281509399414 74.66572570800781 118.37396240234375 C 73.30816650390625 115.61509704589844 72.41630554199219 112.6297378540039 72.0931396484375 109.56958770751953 C 71.86029052734375 107.35826110839844 71.91815185546875 105.1166000366211 72.26671600341797 102.92008972167969 C 75.26124572753906 84.04833221435547 96.46992492675781 74.66184997558594 113.65884399414062 74.68583679199219 C 113.65884399414062 74.68583679199219 113.65884399414062 74.68583679199219 113.65884399414062 74.68583679199219" stroke-width="0.0" fill="rgb(35, 31, 32)" opacity="1.0"/>
    <path d="M 95.36355590820312 145.94566345214844 C 95.36355590820312 145.94566345214844 95.36355590820312 145.94566345214844 95.36355590820312 145.94566345214844 C 99.40306854248047 143.71881103515625 103.68389892578125 142.13192749023438 108.26036071777344 141.45034790039062 C 121.06403350830078 139.5438232421875 134.2395477294922 144.72569274902344 142.3079833984375 154.85093688964844 C 146.84494018554688 160.5443572998047 149.61508178710938 167.56500244140625 150.18310546875 174.8234100341797 C 150.32351684570312 176.61631774902344 151.03334045410156 181.14764404296875 149.17410278320312 182.31185913085938 C 145.3385009765625 184.7122802734375 140.46286010742188 186.20108032226562 136.15452575683594 187.48243713378906 C 122.44204711914062 191.56146240234375 107.68883514404297 191.8211212158203 93.84089660644531 188.22964477539062 C 90.2381362915039 187.29473876953125 86.70100402832031 186.1044158935547 83.26618957519531 184.670654296875 C 81.58546447753906 183.96929931640625 79.68037414550781 183.29898071289062 78.14288330078125 182.31468200683594 C 77.03863525390625 181.60768127441406 77.12189483642578 180.41664123535156 77.0689697265625 179.25665283203125 C 76.95960998535156 176.85763549804688 77.08802795410156 174.4543914794922 77.4549331665039 172.080078125 C 79.16246795654297 161.03897094726562 85.86418151855469 151.6637725830078 95.36355590820312 145.94566345214844 C 95.36355590820312 145.94566345214844 95.36355590820312 145.94566345214844 95.36355590820312 145.94566345214844" stroke-width="0.0" fill="rgb(36, 32, 33)" opacity="1.0"/>
    <path d="M 153.59039306640625 106.90033721923828 C 153.59039306640625 106.90033721923828 153.59039306640625 106.90033721923828 153.59039306640625 106.90033721923828 C 153.29052734375 118.198974609375 145.73292541503906 127.12471008300781 135.9851837158203 132.14498901367188 C 122.79273223876953 138.93984985351562 106.02223205566406 139.1247100830078 92.62586212158203 132.7828369140625 C 82.5175552368164 127.99822998046875 73.73011779785156 118.65760803222656 73.73011779785156 106.90033721923828 C 73.73011779785156 95.14447021484375 82.51825714111328 85.80455017089844 92.62586212158203 81.02063751220703 C 106.02223205566406 74.67948913574219 122.79273223876953 74.86434936523438 135.9851837158203 81.65849304199219 C 145.73292541503906 86.67807006835938 153.29052734375 95.60310363769531 153.59039306640625 106.90033721923828 C 153.59039306640625 106.90033721923828 153.59039306640625 106.90033721923828 153.59039306640625 106.90033721923828" stroke-width="0.0" fill="rgb(35, 31, 32)" opacity="1.0"/>
    <path d="M 96.22860717773438 147.4168243408203 C 96.22860717773438 147.4168243408203 96.22860717773438 147.4168243408203 96.22860717773438 147.4168243408203 C 100.78814697265625 144.90704345703125 105.6750717163086 143.27146911621094 110.88304901123047 142.85586547851562 C 126.64808654785156 141.59710693359375 141.66659545898438 151.51419067382812 146.70382690429688 166.5052032470703 C 148.24835205078125 171.1021270751953 148.74510192871094 175.91073608398438 148.3774871826172 180.73345947265625 C 148.3774871826172 180.73345947265625 148.3774871826172 180.73345947265625 148.3774871826172 180.73345947265625 C 126.40324401855469 191.52548217773438 100.91374206542969 191.5247802734375 78.93949890136719 180.73345947265625 C 78.93949890136719 180.73345947265625 78.93949890136719 180.73345947265625 78.93949890136719 180.73345947265625 C 77.91497802734375 167.07461547851562 84.54048919677734 154.48684692382812 96.22860717773438 147.4168243408203 C 96.22860717773438 147.4168243408203 96.22860717773438 147.4168243408203 96.22860717773438 147.4168243408203" stroke-width="0.0" fill="rgb(35, 31, 32)" opacity="1.0"/>
    <path d="M 113.65884399414062 78.23426055908203 C 113.65884399414062 78.23426055908203 113.65884399414062 78.23426055908203 113.65884399414062 78.23426055908203 C 98.40113067626953 78.21096801757812 79.06297302246094 86.1150131225586 75.8878173828125 102.834716796875 C 75.46234130859375 105.0721435546875 75.39037322998047 107.37378692626953 75.67613220214844 109.63379669189453 C 76.0162353515625 112.32915496826172 76.8707046508789 114.94478607177734 78.12736511230469 117.3508529663086 C 79.6592025756836 120.28328704833984 81.77104187011719 122.89115905761719 84.21097564697266 125.11589050292969 C 87.65355682373047 128.25506591796875 91.84124755859375 130.6180877685547 96.15099334716797 132.3453826904297 C 102.20779418945312 134.77333068847656 108.55318450927734 135.66307067871094 115.04886627197266 135.57275390625 C 130.2614288330078 135.361083984375 149.51773071289062 126.47061920166016 151.64366149902344 109.63097381591797 C 151.87228393554688 107.81971740722656 151.87228393554688 105.98165130615234 151.64366149902344 104.17110443115234 C 151.30357360839844 101.47503662109375 150.4484100341797 98.86011505126953 149.19174194335938 96.45475769042969 C 147.65919494628906 93.5223159790039 145.54806518554688 90.91515350341797 143.10812377929688 88.69042205810547 C 139.9985809326172 85.8560562133789 136.2822265625 83.67083740234375 132.43746948242188 81.99082946777344 C 126.48579406738281 79.3907241821289 120.134765625 78.22438049316406 113.65884399414062 78.23426055908203 C 113.65884399414062 78.23426055908203 113.65884399414062 78.23426055908203 113.65884399414062 78.23426055908203" stroke-width="0.0" fill="rgb(35, 31, 32)" opacity="1.0"/>
    <path d="M 113.65884399414062 144.4441680908203 C 113.65884399414062 144.4441680908203 113.65884399414062 144.4441680908203 113.65884399414062 144.4441680908203 C 109.51702117919922 144.53094482421875 105.48245239257812 145.20196533203125 101.611572265625 146.7154541015625 C 88.39584350585938 151.88180541992188 80.14112854003906 165.0354461669922 80.60328674316406 179.1021270751953 C 80.61175537109375 179.2658233642578 80.62022399902344 179.42950439453125 80.62797546386719 179.5932159423828 C 101.60310363769531 189.52513122558594 125.72305297851562 189.58087158203125 146.68971252441406 179.5932159423828 C 146.69747924804688 179.42881774902344 146.70594787597656 179.264404296875 146.71441650390625 179.09930419921875 C 147.15045166015625 165.02627563476562 138.9416046142578 151.88885498046875 125.70682525634766 146.7154541015625 C 121.83524322509766 145.20196533203125 117.80067443847656 144.53094482421875 113.65884399414062 144.4441680908203 C 113.65884399414062 144.4441680908203 113.65884399414062 144.4441680908203 113.65884399414062 144.4441680908203" stroke-width="0.0" fill="rgb(78, 162, 145)" opacity="1.0"/>
    <path d="M 147.4080047607422 115.02522277832031 C 147.4080047607422 115.02522277832031 147.4080047607422 115.02522277832031 147.4080047607422 115.02522277832031 C 150.71792602539062 115.24395751953125 153.68777465820312 116.44134521484375 155.76080322265625 119.14376068115234 C 160.97158813476562 125.93578338623047 155.96682739257812 136.0843048095703 147.40377807617188 136.08078002929688 C 138.85693359375 136.07655334472656 133.84934997558594 125.94355010986328 139.04745483398438 119.1550521850586 C 141.12258911132812 116.44486999511719 144.089599609375 115.24113464355469 147.4080047607422 115.02522277832031 C 147.4080047607422 115.02522277832031 147.4080047607422 115.02522277832031 147.4080047607422 115.02522277832031" stroke-width="0.0" fill="rgb(35, 31, 32)" opacity="1.0"/>
    <path d="M 79.91180419921875 115.02522277832031 C 79.91180419921875 115.02522277832031 79.91180419921875 115.02522277832031 79.91180419921875 115.02522277832031 C 83.22173309326172 115.24395751953125 86.19157409667969 116.44134521484375 88.26460266113281 119.14376068115234 C 93.47538757324219 125.93649291992188 88.46851348876953 136.08502197265625 79.9068603515625 136.0821990966797 C 71.35720825195312 136.07937622070312 66.35244750976562 125.94425964355469 71.5512466430664 119.1550521850586 C 73.62638854980469 116.44486999511719 76.59269714355469 115.24113464355469 79.91180419921875 115.02522277832031 C 79.91180419921875 115.02522277832031 79.91180419921875 115.02522277832031 79.91180419921875 115.02522277832031" stroke-width="0.0" fill="rgb(35, 31, 32)" opacity="1.0"/>
    <path d="M 113.65884399414062 134.9017333984375 C 113.65884399414062 134.9017333984375 113.65884399414062 134.9017333984375 113.65884399414062 134.9017333984375 C 116.32950592041016 135.01251220703125 118.8449478149414 135.53395080566406 121.2129135131836 136.82589721679688 C 122.74757385253906 137.6627197265625 124.14112091064453 138.7556915283203 125.31803894042969 140.0490264892578 C 132.55035400390625 147.99610900878906 129.62779235839844 161.12435913085938 119.69729614257812 165.2400665283203 C 117.67083740234375 166.0797119140625 115.47433471679688 166.49037170410156 113.2813491821289 166.4374542236328 C 111.09896087646484 166.38453674316406 108.93138122558594 165.8743896484375 106.95572662353516 164.94442749023438 C 95.64791107177734 159.62356567382812 94.94725799560547 143.25453186035156 105.78373718261719 137.00369262695312 C 108.2342529296875 135.59039306640625 110.86046600341797 135.02099609375 113.65884399414062 134.9017333984375 C 113.65884399414062 134.9017333984375 113.65884399414062 134.9017333984375 113.65884399414062 134.9017333984375" stroke-width="0.0" fill="rgb(35, 31, 32)" opacity="1.0"/>
    <path d="M 147.4080047607422 116.79907989501953 C 147.4080047607422 116.79907989501953 147.4080047607422 116.79907989501953 147.4080047607422 116.79907989501953 C 150.49990844726562 117.03121948242188 153.25100708007812 118.28082275390625 154.90280151367188 121.03263092041016 C 158.2437744140625 126.596923828125 154.35174560546875 133.96470642089844 147.85464477539062 134.29493713378906 C 140.66183471679688 134.65972900390625 136.08042907714844 126.25682830810547 140.3238525390625 120.41523742675781 C 142.05609130859375 118.03034210205078 144.5630645751953 117.02487182617188 147.4080047607422 116.79907989501953 C 147.4080047607422 116.79907989501953 147.4080047607422 116.79907989501953 147.4080047607422 116.79907989501953" stroke-width="0.0" fill="rgb(35, 31, 32)" opacity="1.0"/>
    <path d="M 79.91180419921875 116.79907989501953 C 79.91180419921875 116.79907989501953 79.91180419921875 116.79907989501953 79.91180419921875 116.79907989501953 C 83.00440979003906 117.03121948242188 85.75269317626953 118.28152465820312 87.40589141845703 121.03263092041016 C 90.74898529052734 126.59551239013672 86.85271453857422 133.96470642089844 80.3570327758789 134.29493713378906 C 73.16635131835938 134.65972900390625 68.584228515625 126.25611877441406 72.82484436035156 120.41523742675781 C 74.55636596679688 118.02963256835938 77.06685638427734 117.02487182617188 79.91180419921875 116.79907989501953 C 79.91180419921875 116.79907989501953 79.91180419921875 116.79907989501953 79.91180419921875 116.79907989501953" stroke-width="0.0" fill="rgb(35, 31, 32)" opacity="1.0"/>
    <path d="M 115.9005126953125 136.85128784179688 C 115.9005126953125 136.85128784179688 115.9005126953125 136.85128784179688 115.9005126953125 136.85128784179688 C 118.67278289794922 137.4447021484375 121.15222930908203 138.49461364746094 123.24430847167969 140.46109008789062 C 131.1878662109375 147.92556762695312 127.58087158203125 161.68106079101562 116.98359680175781 164.26705932617188 C 115.16951751708984 164.70945739746094 113.27359771728516 164.78143310546875 111.43058776855469 164.48297119140625 C 109.58687591552734 164.18450927734375 107.81019592285156 163.51771545410156 106.22755432128906 162.52565002441406 C 96.98783111572266 156.73062133789062 97.90438842773438 142.53836059570312 107.79608917236328 137.96047973632812 C 110.40042114257812 136.7553253173828 113.0844955444336 136.54083251953125 115.9005126953125 136.85128784179688 C 115.9005126953125 136.85128784179688 115.9005126953125 136.85128784179688 115.9005126953125 136.85128784179688" stroke-width="0.0" fill="rgb(35, 31, 32)" opacity="1.0"/>
    <path d="M 143.52935791015625 119.74916076660156 C 143.52935791015625 119.74916076660156 143.52935791015625 119.74916076660156 143.52935791015625 119.74916076660156 C 141.69906616210938 121.25559997558594 140.4346466064453 123.04850769042969 140.4268798828125 125.52159881591797 C 140.40853881835938 131.02452087402344 146.74404907226562 134.41346740722656 151.3106231689453 131.33920288085938 C 155.85464477539062 128.2804718017578 155.10882568359375 121.16880798339844 150.05044555664062 119.09295654296875 C 147.76220703125 118.15381622314453 145.6221466064453 118.63502502441406 143.52935791015625 119.74916076660156 C 143.52935791015625 119.74916076660156 143.52935791015625 119.74916076660156 143.52935791015625 119.74916076660156" stroke-width="0.0" fill="rgb(248, 220, 208)" opacity="1.0"/>
    <path d="M 76.03316497802734 119.74916076660156 C 76.03316497802734 119.74916076660156 76.03316497802734 119.74916076660156 76.03316497802734 119.74916076660156 C 74.20286560058594 121.25559997558594 72.93843841552734 123.04850769042969 72.92926788330078 125.52159881591797 C 72.90880584716797 131.0259246826172 79.24713134765625 134.41136169433594 83.81301879882812 131.33920288085938 C 88.35914611816406 128.2811737060547 87.61051940917969 121.16739654541016 82.5528335571289 119.09154510498047 C 80.26460266113281 118.15240478515625 78.125244140625 118.63502502441406 76.03316497802734 119.74916076660156 C 76.03316497802734 119.74916076660156 76.03316497802734 119.74916076660156 76.03316497802734 119.74916076660156" stroke-width="0.0" fill="rgb(248, 220, 208)" opacity="1.0"/>
    <path d="M 112.0634994506836 138.5538787841797 C 112.0634994506836 138.5538787841797 112.0634994506836 138.5538787841797 112.0634994506836 138.5538787841797 C 108.77262115478516 139.1825714111328 105.89098358154297 140.63185119628906 103.85182189941406 143.37660217285156 C 97.70964813232422 151.64683532714844 104.39371490478516 163.70046997070312 114.66783905029297 162.84881591796875 C 116.05291748046875 162.73451232910156 117.41824340820312 162.38101196289062 118.68477630615234 161.80807495117188 C 127.99646759033203 157.5999298095703 128.11712646484375 143.97918701171875 118.87528228759766 139.61720275878906 C 116.6837158203125 138.58352661132812 114.44628143310547 138.37960815429688 112.0634994506836 138.5538787841797 C 112.0634994506836 138.5538787841797 112.0634994506836 138.5538787841797 112.0634994506836 138.5538787841797" stroke-width="0.0" fill="rgb(248, 220, 208)" opacity="1.0"/>
    <path d="M 113.65884399414062 80.003173828125 C 113.65884399414062 80.00387573242188 113.65884399414062 80.00458526611328 113.65884399414062 80.00599670410156 C 119.26335906982422 80.11395263671875 124.70770263671875 81.26900482177734 129.75408935546875 83.75692749023438 C 133.89874267578125 85.80032348632812 137.643310546875 88.63609313964844 140.73028564453125 92.07373046875 C 143.53570556640625 95.1973876953125 145.79290771484375 98.80508422851562 147.3727264404297 102.69500732421875 C 154.79696655273438 120.96983337402344 145.80772399902344 142.46356201171875 127.58440399169922 150.01129150390625 C 123.29652404785156 151.78726196289062 118.6741943359375 152.73133850097656 114.03280639648438 152.7786102294922 C 109.4260025024414 152.8258819580078 104.81707763671875 151.98976135253906 100.5207290649414 150.3252716064453 C 96.16722869873047 148.63890075683594 92.14888000488281 146.1100616455078 88.74652099609375 142.91372680664062 C 85.72869873046875 140.07937622070312 83.20268249511719 136.728515625 81.30746459960938 133.0474395751953 C 72.06562805175781 115.09648895263672 79.68601989746094 92.35173797607422 97.87899780273438 83.59323120117188 C 102.84001159667969 81.20550537109375 108.17427825927734 80.10054779052734 113.65884399414062 80.003173828125 C 113.65884399414062 80.003173828125 113.65884399414062 80.003173828125 113.65884399414062 80.003173828125" stroke-width="0.0" fill="rgb(35, 31, 32)" opacity="1.0"/>
    <path d="M 148.27023315429688 116.39124298095703 C 148.27023315429688 116.39124298095703 148.27023315429688 116.39124298095703 148.27023315429688 116.39124298095703 C 148.1615753173828 121.62602996826172 147.12718200683594 126.699951171875 144.8389434814453 131.43446350097656 C 136.64137268066406 148.39405822753906 115.60063171386719 155.77809143066406 98.61563110351562 147.56922912597656 C 94.92115020751953 145.7833709716797 91.55335998535156 143.3342742919922 88.70912170410156 140.37713623046875 C 85.8613510131836 137.41505432128906 83.544189453125 133.948486328125 81.90510559082031 130.17991638183594 C 80.01834869384766 125.8398208618164 79.04957580566406 121.1229476928711 79.04957580566406 116.39124298095703 C 79.04957580566406 111.65884399414062 80.01834869384766 106.94196319580078 81.90510559082031 102.60116577148438 C 83.544189453125 98.83189392089844 85.8613510131836 95.36531829833984 88.70912170410156 92.40324401855469 C 91.55335998535156 89.44540405273438 94.92115020751953 86.99700164794922 98.61563110351562 85.21115112304688 C 115.60063171386719 77.0015869140625 136.64137268066406 84.38560485839844 144.8389434814453 101.34661865234375 C 147.12718200683594 106.08113861083984 148.1615753173828 111.15575408935547 148.27023315429688 116.39124298095703 C 148.27023315429688 116.39124298095703 148.27023315429688 116.39124298095703 148.27023315429688 116.39124298095703" stroke-width="0.0" fill="rgb(35, 31, 32)" opacity="1.0"/>
    <path d="M 109.37237548828125 83.83453369140625 C 109.37237548828125 83.83453369140625 109.37237548828125 83.83453369140625 109.37237548828125 83.83453369140625 C 104.36902618408203 84.60151672363281 99.64085388183594 86.2638931274414 95.4150619506836 89.0876693725586 C 92.01199340820312 91.361083984375 89.04286193847656 94.27306365966797 86.70524597167969 97.63308715820312 C 76.40571594238281 112.43852233886719 80.29776000976562 133.44117736816406 95.22666931152344 143.56640625 C 98.25507354736328 145.62037658691406 101.62568664550781 147.16070556640625 105.15999603271484 148.10760498046875 C 109.13247680664062 149.17233276367188 113.29828643798828 149.48138427734375 117.38436889648438 149.0142822265625 C 121.4386978149414 148.55142211914062 125.39989471435547 147.32650756835938 129.00758361816406 145.4185791015625 C 132.66537475585938 143.48385620117188 135.94778442382812 140.8548126220703 138.63397216796875 137.7078857421875 C 140.98782348632812 134.95114135742188 142.87811279296875 131.80490112304688 144.2074432373047 128.43287658691406 C 150.9952392578125 111.22067260742188 141.73292541503906 91.24325561523438 124.21308898925781 85.29582214355469 C 119.40095520019531 83.6623764038086 114.40324401855469 83.27994537353516 109.37237548828125 83.83453369140625 C 109.37237548828125 83.83453369140625 109.37237548828125 83.83453369140625 109.37237548828125 83.83453369140625" stroke-width="0.0" fill="rgb(248, 220, 208)" opacity="1.0"/>
    <path d="M 113.43517303466797 124.4519271850586 C 113.43517303466797 124.4519271850586 113.43517303466797 124.4519271850586 113.43517303466797 124.4519271850586 C 116.3760757446289 124.71299743652344 119.0947265625 125.56040954589844 121.46480560302734 127.37731170654297 C 122.4434585571289 128.12734985351562 123.76997375488281 129.33038330078125 122.6586685180664 130.6752471923828 C 121.90579986572266 131.58474731445312 121.04639434814453 131.38294982910156 120.16228485107422 130.91162109375 C 119.42635345458984 130.51931762695312 118.87458038330078 129.83770751953125 118.15205383300781 129.4207000732422 C 116.76062774658203 128.6184539794922 115.03192901611328 128.0010528564453 113.40765380859375 127.9869384765625 C 111.7918472290039 127.97212219238281 110.0673828125 128.5690460205078 108.68865966796875 129.37625122070312 C 107.72764587402344 129.93861389160156 106.67207336425781 131.39706420898438 105.42882537841797 131.3018035888672 C 102.64949798583984 131.0901336669922 104.18839263916016 128.29811096191406 105.3476791381836 127.380126953125 C 107.71493530273438 125.50537109375 110.46251678466797 124.66571807861328 113.43517303466797 124.4519271850586 C 113.43517303466797 124.4519271850586 113.43517303466797 124.4519271850586 113.43517303466797 124.4519271850586" stroke-width="0.0" fill="rgb(34, 30, 31)" opacity="1.0"/>
    <path d="M 78.638916015625 114.64490509033203 C 83.46446228027344 117.58651733398438 88.29000091552734 120.52742767333984 93.11624908447266 123.46903228759766 C 93.38225555419922 123.83382415771484 93.80843353271484 124.12383270263672 93.91426849365234 124.56270599365234 C 94.39407348632812 126.54259490966797 92.53201293945312 126.68724060058594 91.27253723144531 126.4910888671875 C 86.44699096679688 123.54946899414062 81.62145233154297 120.60786437988281 76.79591369628906 117.66695404052734 C 76.5299072265625 117.30216217041016 76.10301971435547 117.01216888427734 75.99717712402344 116.57328796386719 C 75.51737976074219 114.59339904785156 77.37944030761719 114.44734191894531 78.638916015625 114.64490509033203 C 78.638916015625 114.64490509033203 78.638916015625 114.64490509033203 78.638916015625 114.64490509033203" stroke-width="0.0" fill="rgb(35, 31, 32)" opacity="1.0"/>
    <path d="M 148.67807006835938 114.64490509033203 C 148.67947387695312 114.64490509033203 148.68017578125 114.64490509033203 148.68089294433594 114.64490509033203 C 149.94036865234375 114.44734191894531 151.80242919921875 114.59339904785156 151.3226318359375 116.57258605957031 C 151.21678161621094 117.01146697998047 150.78990173339844 117.30216217041016 150.52389526367188 117.66695404052734 C 145.69834899902344 120.60786437988281 140.872802734375 123.54946899414062 136.04727172851562 126.4910888671875 C 135.6006317138672 126.56022644042969 135.14694213867188 126.80648803710938 134.7080535888672 126.699951171875 C 132.73028564453125 126.22013854980469 133.45068359375 124.49848937988281 134.20144653320312 123.46903228759766 C 139.0269775390625 120.52742767333984 143.85252380371094 117.58651733398438 148.67807006835938 114.64490509033203" stroke-width="0.0" fill="rgb(35, 31, 32)" opacity="1.0"/>
    <path d="M 137.7604522705078 58.231441497802734 C 137.7611541748047 58.231441497802734 137.7625732421875 58.231441497802734 137.76327514648438 58.231441497802734 C 140.3478546142578 59.35826873779297 142.65866088867188 60.801910400390625 144.58987426757812 62.88410949707031 C 152.93490600585938 71.8846435546875 149.30392456054688 86.28788757324219 140.2659912109375 93.30569458007812 C 136.17921447753906 96.47874450683594 131.25347900390625 98.44734191894531 126.2501220703125 99.63273620605469 C 117.22914123535156 101.76997375488281 107.3289794921875 101.68953704833984 98.33057403564453 99.46621704101562 C 92.21943664550781 97.9555435180664 85.21502685546875 95.43164825439453 81.34486389160156 90.16299438476562 C 80.62162780761719 89.17798614501953 80.03175354003906 88.09066772460938 79.65496826171875 86.92503356933594 C 77.04569244384766 78.85447692871094 84.26742553710938 71.61298370361328 91.35508728027344 69.34380340576172 C 98.04974365234375 67.20021057128906 105.30675506591797 67.88252258300781 112.07691192626953 69.281005859375 C 117.50643920898438 70.40219116210938 123.6697769165039 72.26424407958984 129.2411346435547 71.14164733886719 C 132.94479370117188 70.39584350585938 134.98394775390625 67.62638854980469 135.35296630859375 63.945316314697266 C 135.5709991455078 61.772804260253906 134.29598999023438 57.76151657104492 137.7604522705078 58.23426055908203 C 137.7604522705078 58.23426055908203 137.7604522705078 58.23426055908203 137.7604522705078 58.23426055908203 C 137.7604522705078 58.23426055908203 137.7604522705078 58.231441497802734 137.7604522705078 58.231441497802734" stroke-width="0.0" fill="rgb(35, 31, 32)" opacity="1.0"/>
    <path d="M 96.82907104492188 117.07707977294922 C 96.82907104492188 117.07707977294922 96.82907104492188 117.07707977294922 96.82907104492188 117.07707977294922 C 101.03722381591797 116.77085876464844 107.030517578125 116.80331420898438 110.2310791015625 120.06103515625 C 112.11924743652344 121.98236083984375 112.30693054199219 124.9924087524414 111.7586898803711 127.48667907714844 C 110.49144744873047 133.25135803222656 104.21026611328125 137.58299255371094 98.52108001708984 138.03526306152344 C 90.93596649169922 138.63925170898438 83.28453063964844 129.87228393554688 86.87528991699219 122.47203826904297 C 88.63997650146484 118.83541870117188 93.10919189453125 117.43270111083984 96.82907104492188 117.07707977294922 C 96.82907104492188 117.07707977294922 96.82907104492188 117.07707977294922 96.82907104492188 117.07707977294922" stroke-width="0.0" fill="rgb(36, 31, 32)" opacity="1.0"/>
    <path d="M 130.49073791503906 117.07991027832031 C 130.49073791503906 117.07991027832031 130.49073791503906 117.07991027832031 130.49073791503906 117.07991027832031 C 134.2099151611328 117.43482208251953 138.68124389648438 118.834716796875 140.4459228515625 122.47203826904297 C 144.03668212890625 129.87298583984375 136.38241577148438 138.6385498046875 128.79872131347656 138.03526306152344 C 123.0940170288086 137.58157348632812 116.81001281738281 133.23654174804688 115.55406188964844 127.45774841308594 C 115.01287841796875 124.96913146972656 115.20620727539062 121.97811889648438 117.08872985839844 120.06103515625 C 120.2857666015625 116.80472564697266 126.28611755371094 116.77085876464844 130.49073791503906 117.07991027832031 C 130.49073791503906 117.07991027832031 130.49073791503906 117.07991027832031 130.49073791503906 117.07991027832031" stroke-width="0.0" fill="rgb(36, 32, 33)" opacity="1.0"/>
    <path d="M 137.0830841064453 59.867706298828125 C 137.0830841064453 59.867706298828125 137.0830841064453 59.867706298828125 137.0830841064453 59.867706298828125 C 139.98941040039062 61.176578521728516 142.61351013183594 62.939849853515625 144.52777099609375 65.53572082519531 C 150.13511657714844 73.14270782470703 147.3437957763672 84.42652893066406 140.7994384765625 90.52001953125 C 136.7458038330078 94.29422760009766 131.46304321289062 96.53730773925781 126.1386489868164 97.8355941772461 C 116.8128433227539 100.10901641845703 106.6233901977539 99.86417388916016 97.36390686035156 97.37907409667969 C 91.81725311279297 95.89027404785156 84.95466613769531 93.29299926757812 82.02153015136719 87.93755340576172 C 79.38401794433594 83.12188720703125 82.01094055175781 77.30287170410156 85.98130798339844 74.1220703125 C 88.90879821777344 71.77668762207031 92.58281707763672 70.55671691894531 96.26248168945312 70.05574035644531 C 99.48986053466797 69.61544799804688 102.77579498291016 69.69236755371094 106.00599670410156 70.06562042236328 C 108.01481628417969 70.29846954345703 109.99822998046875 70.6639633178711 111.9774169921875 71.0696792602539 C 113.38436889648438 71.35826110839844 114.78778839111328 71.65955352783203 116.19615173339844 71.93756103515625 C 117.17057800292969 72.13018798828125 118.15487670898438 72.31787109375 119.13423919677734 72.48297882080078 C 124.80155181884766 73.4383544921875 133.39990234375 74.4847412109375 136.22085571289062 67.96578216552734 C 136.59339904785156 67.1049575805664 136.83824157714844 66.19544982910156 136.9899444580078 65.27112579345703 C 137.2869873046875 63.460575103759766 137.19314575195312 61.68742370605469 137.0830841064453 59.867706298828125 C 137.0830841064453 59.867706298828125 137.0830841064453 59.867706298828125 137.0830841064453 59.867706298828125" stroke-width="0.0" fill="rgb(35, 31, 32)" opacity="1.0"/>
    <path d="M 108.93350219726562 121.26759338378906 C 108.93350219726562 121.26759338378906 108.93350219726562 121.26759338378906 108.93350219726562 121.26759338378906 C 111.3797836303711 125.02909851074219 110.00669860839844 129.40870666503906 106.87811279296875 132.382080078125 C 102.61563110351562 136.43357849121094 95.65779113769531 138.0077667236328 91.19915771484375 133.53147888183594 C 90.2762451171875 132.60504150390625 89.33287048339844 131.54241943359375 88.73169708251953 130.37184143066406 C 86.53730773925781 126.09736633300781 88.28223419189453 121.45809936523438 92.74510955810547 119.77738189697266 C 97.38507843017578 118.02963256835938 104.92926025390625 117.93084716796875 108.93350219726562 121.26759338378906 C 108.93350219726562 121.26759338378906 108.93350219726562 121.26759338378906 108.93350219726562 121.26759338378906" stroke-width="0.0" fill="rgb(35, 31, 32)" opacity="1.0"/>
    <path d="M 118.38348388671875 121.26759338378906 C 118.38348388671875 121.26759338378906 118.38348388671875 121.26759338378906 118.38348388671875 121.26759338378906 C 122.388427734375 117.93084716796875 129.93190002441406 118.02963256835938 134.57188415527344 119.77738189697266 C 139.0347442626953 121.45809936523438 140.78109741210938 126.09736633300781 138.58670043945312 130.37184143066406 C 137.98553466796875 131.54241943359375 137.0435791015625 132.60504150390625 136.1206512451172 133.53147888183594 C 131.66201782226562 138.00917053222656 124.70417785644531 136.43287658691406 120.44099426269531 132.382080078125 C 117.31028747558594 129.4080047607422 115.94143676757812 125.03192901611328 118.38348388671875 121.26759338378906 C 118.38348388671875 121.26759338378906 118.38348388671875 121.26759338378906 118.38348388671875 121.26759338378906" stroke-width="0.0" fill="rgb(35, 31, 32)" opacity="1.0"/>
    <path d="M 138.98110961914062 62.83189392089844 C 138.98110961914062 62.83189392089844 138.98110961914062 62.83189392089844 138.98110961914062 62.83189392089844 C 138.88658142089844 64.54507446289062 138.77296447753906 66.19122314453125 138.2395477294922 67.83665466308594 C 136.44522094726562 73.36849975585938 130.96913146972656 75.0202865600586 125.66307067871094 74.94197082519531 C 115.72199249267578 74.79591369628906 106.35667419433594 70.3923110961914 96.30410766601562 71.83736419677734 C 90.84777069091797 72.62127685546875 85.17904663085938 75.30181884765625 83.26124572753906 80.85200500488281 C 82.57965087890625 82.82483673095703 82.48721313476562 84.88446044921875 83.42141723632812 86.78955841064453 C 85.868408203125 91.78021240234375 92.34645080566406 94.08467102050781 97.31663513183594 95.52760314941406 C 106.35032653808594 98.15170288085938 116.5560073852539 98.33938598632812 125.69412231445312 96.11677551269531 C 130.26776123046875 95.00405883789062 134.79342651367188 93.17798614501953 138.47239685058594 90.18486022949219 C 144.74862670898438 85.07778930664062 148.2646026611328 75.11695098876953 143.8363037109375 67.70753479003906 C 142.61138916015625 65.65708923339844 140.94337463378906 64.15064239501953 138.98110961914062 62.83189392089844 C 138.98110961914062 62.83189392089844 138.98110961914062 62.83189392089844 138.98110961914062 62.83189392089844" stroke-width="0.0" fill="rgb(35, 31, 32)" opacity="1.0"/>
    <path d="M 97.17410278320312 120.6008071899414 C 97.17410278320312 120.6008071899414 97.17410278320312 120.6008071899414 97.17410278320312 120.6008071899414 C 94.82518768310547 120.83576965332031 91.60628509521484 121.48279571533203 90.247314453125 123.6828384399414 C 87.3508529663086 128.37149047851562 93.0562744140625 134.73098754882812 97.82960510253906 134.5305938720703 C 101.69200897216797 134.3690185546875 106.43852233886719 131.64120483398438 107.93437957763672 127.93896484375 C 108.5560073852539 126.40007019042969 109.00405883789062 123.7907943725586 107.63944244384766 122.47344970703125 C 106.88798522949219 121.74810028076172 105.76468658447266 121.40306854248047 104.78250122070312 121.16246032714844 C 102.26142120361328 120.5450668334961 99.75445556640625 120.42159271240234 97.17410278320312 120.6008071899414 C 97.17410278320312 120.6008071899414 97.17410278320312 120.6008071899414 97.17410278320312 120.6008071899414" stroke-width="0.0" fill="rgb(164, 194, 209)" opacity="1.0"/>
    <path d="M 130.14358520507812 120.6008071899414 C 130.14358520507812 120.6008071899414 130.14358520507812 120.6008071899414 130.14358520507812 120.6008071899414 C 127.56393432617188 120.42159271240234 125.05838775634766 120.54576873779297 122.53800964355469 121.16246032714844 C 121.55583190917969 121.40306854248047 120.43252563476562 121.74810028076172 119.68106842041016 122.47344970703125 C 118.3460922241211 123.76255798339844 118.75604248046875 126.31539154052734 119.34803009033203 127.83311462402344 C 120.81425476074219 131.59463500976562 125.58193969726562 134.3675994873047 129.489501953125 134.5305938720703 C 134.260009765625 134.73028564453125 139.97459411621094 128.37078857421875 137.072509765625 123.6828384399414 C 135.71070861816406 121.48279571533203 132.49391174316406 120.83576965332031 130.14358520507812 120.6008071899414 C 130.14358520507812 120.6008071899414 130.14358520507812 120.6008071899414 130.14358520507812 120.6008071899414" stroke-width="0.0" fill="rgb(164, 194, 209)" opacity="1.0"/>
    <path d="M 138.1358184814453 79.41329956054688 C 138.1358184814453 79.41329956054688 138.1358184814453 79.41329956054688 138.1358184814453 79.41329956054688 C 138.58740234375 79.44435119628906 139.0862579345703 79.30464172363281 139.49127197265625 79.50714874267578 C 141.1748046875 80.34891510009766 140.21026611328125 82.09666442871094 139.57029724121094 83.18115997314453 C 137.92767333984375 85.9647216796875 135.6352081298828 88.30799102783203 132.92855834960938 90.06703186035156 C 123.91744232177734 95.92132568359375 111.82572174072266 95.55723571777344 101.6468505859375 93.83489227294922 C 99.34098052978516 93.4447021484375 97.0492172241211 92.95501708984375 94.79344177246094 92.33692169189453 C 93.88887023925781 92.0892562866211 92.58352661132812 91.92908477783203 92.09737396240234 90.96031188964844 C 91.28524017333984 89.34168243408203 92.81072998046875 88.39336395263672 94.17110443115234 88.45758056640625 C 95.68672180175781 88.52813720703125 97.4902114868164 89.38966369628906 98.98959350585938 89.71705627441406 C 102.56271362304688 90.49603271484375 106.19933319091797 91.01746368408203 109.85076904296875 91.2333755493164 C 117.67578125 91.6955337524414 126.75321960449219 90.96171569824219 132.96453857421875 85.62251281738281 C 135.0799102783203 83.80419921875 136.11077880859375 81.19068908691406 138.1358184814453 79.41329956054688 C 138.1358184814453 79.41329956054688 138.1358184814453 79.41329956054688 138.1358184814453 79.41329956054688" stroke-width="0.0" fill="rgb(87, 88, 90)" opacity="1.0"/>
    <path d="M 125.15998840332031 79.59534454345703 C 125.15998840332031 79.59534454345703 125.15998840332031 79.59534454345703 125.15998840332031 79.59534454345703 C 125.55300903320312 79.82254028320312 126.06385803222656 79.9170913696289 126.33903503417969 80.27764892578125 C 127.02063751220703 81.171630859375 126.69677734375 82.06844329833984 125.99470520019531 82.77191925048828 C 124.82130432128906 83.94673156738281 122.46392059326172 84.68266296386719 120.9207992553711 85.17727661132812 C 115.34098052978516 86.96736907958984 108.7571029663086 86.42476654052734 103.0876693725586 85.30429077148438 C 101.74281311035156 85.03898620605469 100.40853881835938 84.71511840820312 99.09119415283203 84.33551025390625 C 98.24519348144531 84.09207916259766 97.20726776123047 83.96366119384766 96.77967834472656 82.99700164794922 C 96.01129150390625 81.26124572753906 97.71881866455078 80.45333862304688 99.07991027832031 80.65020751953125 C 101.75691986083984 81.0375747680664 104.33798217773438 82.04444885253906 107.06368255615234 82.37113952636719 C 110.94091033935547 82.83612823486328 115.25065612792969 83.06756591796875 119.05379486083984 82.03810119628906 C 121.21432495117188 81.45317077636719 123.030517578125 80.17816162109375 125.15998840332031 79.59534454345703 C 125.15998840332031 79.59534454345703 125.15998840332031 79.59534454345703 125.15998840332031 79.59534454345703" stroke-width="0.0" fill="rgb(87, 88, 90)" opacity="1.0"/>
    <path d="M 100.80155181884766 116.9529037475586 C 109.52196502685547 116.9529037475586 118.24166870117188 116.9529037475586 126.96206665039062 116.9529037475586 C 128.1432342529297 117.44187927246094 129.66094970703125 118.53836059570312 128.21661376953125 119.98271179199219 C 127.89698028564453 120.30304718017578 127.37979125976562 120.32844543457031 126.96206665039062 120.50202941894531 C 118.24166870117188 120.50202941894531 109.52196502685547 120.50202941894531 100.80155181884766 120.50202941894531 C 100.38313293457031 120.32844543457031 99.86735534667969 120.30233764648438 99.54701232910156 119.98271179199219 C 98.10408020019531 118.5390625 99.62039184570312 117.44187927246094 100.80155181884766 116.9529037475586 C 100.80155181884766 116.9529037475586 100.80155181884766 116.9529037475586 100.80155181884766 116.9529037475586" stroke-width="0.0" fill="rgb(35, 31, 32)" opacity="1.0"/>
  </g>
</svg>
