<?xml version="1.0" ?>
<svg xmlns="http://www.w3.org/2000/svg" version="1.1" width="224" height="224">
  <defs/>
  <g>
    <path d="M 91.69735717773438 192.576904296875 C 82.06552124023438 190.50955200195312 69.15877532958984 183.9642791748047 61.50221633911133 177.87777709960938 C 48.926734924316406 168.08975219726562 38.44605255126953 152.24612426757812 34.390846252441406 135.4188690185547 C 32.48187255859375 128.72071838378906 31.93358612060547 126.07567596435547 31.334388732910156 111.97100067138672 C 31.880722045898438 99.4017105102539 32.75141906738281 96.07112121582031 34.07087707519531 89.10602569580078 C 41.65520477294922 60.860870361328125 62.038604736328125 39.626869201660156 89.10115051269531 32.30188751220703 C 99.514404296875 28.758705139160156 117.77201080322266 28.0 128.34365844726562 30.576339721679688 C 158.45919799804688 36.85054016113281 181.78465270996094 59.93353271484375 189.4346923828125 91.11497497558594 C 192.40634155273438 101.6424331665039 192.6656036376953 119.8431167602539 189.95877075195312 130.29440307617188 C 183.1397247314453 160.10552978515625 162.90306091308594 182.86666870117188 135.0821533203125 191.70616149902344 C 125.11884307861328 195.40460205078125 102.30420684814453 196.0 91.69735717773438 192.576904296875" stroke-width="1.0" fill="rgb(28, 26, 23)" opacity="0.99318457"/>
    <path d="M 145.2943572998047 93.21666717529297 C 145.44381713867188 91.87985229492188 156.6965789794922 74.15271759033203 157.51617431640625 74.03685760498047 C 159.8931884765625 74.1865463256836 159.2994384765625 75.83078002929688 156.78489685058594 79.9569320678711 C 155.21519470214844 81.89982604980469 153.82875061035156 84.53241729736328 153.325927734375 85.2184066772461 C 153.85433959960938 87.10682678222656 154.35362243652344 87.36014556884766 156.97476196289062 86.24098205566406 C 159.9852752685547 85.84849548339844 160.10263061523438 86.8086929321289 153.7875213623047 90.84915161132812 C 148.41639709472656 94.75098419189453 145.95181274414062 95.83938598632812 145.2943572998047 93.21666717529297" stroke-width="1.0" fill="rgb(133, 181, 32)" opacity="0.99660844"/>
    <path d="M 140.72471618652344 82.80839538574219 C 138.278564453125 79.08502960205078 138.27207946777344 77.78459167480469 140.34194946289062 76.34123992919922 C 143.37802124023438 74.53873443603516 145.14450073242188 77.97428894042969 144.1157989501953 84.382080078125 C 143.46864318847656 87.02342987060547 142.81187438964844 87.00267791748047 140.72471618652344 82.80839538574219" stroke-width="1.0" fill="rgb(145, 159, 31)" opacity="0.9509354"/>
    <path d="M 147.5679931640625 72.60530090332031 C 147.82327270507812 65.54766845703125 148.30426025390625 61.8504524230957 149.77603149414062 62.73146438598633 C 150.20835876464844 63.07065200805664 150.71653747558594 64.59806823730469 150.72767639160156 66.02049255371094 C 150.69862365722656 67.48037719726562 151.31137084960938 69.84410858154297 152.02862548828125 71.1382827758789 C 153.10186767578125 73.08199310302734 153.12322998046875 74.51202392578125 150.66529846191406 77.95301818847656 L 147.6697998046875 83.05667114257812 L 147.5679931640625 72.60530090332031" stroke-width="1.0" fill="rgb(141, 170, 38)" opacity="0.98025775"/>
    <path d="M 136.40892028808594 77.09521484375 C 132.71047973632812 72.06282043457031 132.51329040527344 70.95629119873047 134.93106079101562 68.57260131835938 C 138.2770538330078 65.53447723388672 139.25088500976562 66.79024505615234 141.10719299316406 76.82293701171875 C 142.35305786132812 83.87067413330078 142.09996032714844 84.00514221191406 136.40892028808594 77.09521484375" stroke-width="1.0" fill="rgb(121, 169, 27)" opacity="0.95214856"/>
    <path d="M 46.57487487792969 154.95883178710938 C 44.756980895996094 151.8430633544922 38.47996520996094 138.083984375 37.47095489501953 132.3855743408203 C 33.89232635498047 119.73875427246094 34.61524200439453 95.74569702148438 38.96990966796875 85.79627990722656 C 42.886924743652344 73.01461791992188 50.83097839355469 60.52411651611328 61.335060119628906 51.30463409423828 C 66.57284545898438 46.58804702758789 78.27226257324219 39.754085540771484 80.77374267578125 39.09055709838867 C 81.33360290527344 38.080421447753906 82.86273193359375 39.26292419433594 81.79986572265625 38.98420715332031 C 83.07246398925781 38.707237243652344 87.26756286621094 37.266014099121094 91.79698944091797 35.94886779785156 C 102.33549499511719 32.4219970703125 119.7221450805664 32.65135955810547 130.63967895507812 35.334983825683594 C 155.412841796875 42.556915283203125 174.23028564453125 57.701576232910156 183.9923553466797 85.09800720214844 C 188.63458251953125 97.0382308959961 189.27865600585938 121.68647766113281 184.34048461914062 136.51724243164062 C 180.6146697998047 148.74696350097656 174.9693603515625 160.3546905517578 171.72708129882812 155.36724853515625 C 171.83151245117188 154.17449951171875 171.90040588378906 143.03094482421875 171.84893798828125 128.68820190429688 C 171.3513946533203 107.90773010253906 172.3606719970703 106.01641845703125 171.69447326660156 106.8012466430664 C 168.08871459960938 105.84306335449219 166.1184539794922 104.99125671386719 166.6817169189453 102.6020736694336 C 165.40231323242188 103.45040130615234 152.22625732421875 98.60121154785156 151.9414520263672 96.82525634765625 C 153.04852294921875 96.14730834960938 154.3916473388672 94.2800064086914 157.2379913330078 93.73397064208984 C 159.84384155273438 89.57637023925781 164.08424377441406 87.23927307128906 164.54757690429688 84.67957305908203 C 164.01422119140625 83.96118927001953 163.61492919921875 82.72703552246094 159.09365844726562 86.14149475097656 C 153.52999877929688 84.54898834228516 154.48077392578125 84.30078125 160.09799194335938 81.36875915527344 C 161.48052978515625 77.13256072998047 159.5550079345703 76.74498748779297 156.66867065429688 75.29723358154297 C 160.99639892578125 66.8890380859375 156.18014526367188 67.49295806884766 153.85751342773438 72.89639282226562 C 151.3694305419922 70.63085174560547 150.84567260742188 71.703125 151.6540069580078 67.26976013183594 C 147.9751434326172 66.93750762939453 147.3478546142578 59.03590774536133 148.06419372558594 58.66567611694336 C 144.43267822265625 57.383209228515625 144.72398376464844 61.16411209106445 144.1296844482422 68.21358489990234 C 144.60159301757812 72.962646484375 141.8286590576172 79.54413604736328 141.73260498046875 78.44931030273438 C 141.12904357910156 78.06106567382812 139.91458129882812 75.88314819335938 141.0757598876953 71.9962158203125 C 139.42218017578125 67.10556030273438 137.6976776123047 67.68336486816406 136.70355224609375 70.65726470947266 C 135.69776916503906 70.07604217529297 135.34194946289062 69.7836685180664 134.0754852294922 74.01644134521484 C 131.49179077148438 71.90911865234375 129.35633850097656 69.89048767089844 128.29183959960938 71.21489715576172 C 128.4108123779297 72.83955383300781 132.3213653564453 77.32919311523438 135.26492309570312 81.2922592163086 C 137.3983612060547 82.35734558105469 137.8034210205078 84.83769226074219 136.68202209472656 86.00975799560547 C 135.71119689941406 87.95217895507812 117.22061920166016 69.39469909667969 113.22484588623047 63.97673034667969 C 115.26099395751953 58.373992919921875 108.27487182617188 58.59176254272461 109.86516571044922 64.24931335449219 C 108.55720520019531 65.84092712402344 96.81359100341797 78.60660552978516 87.11325073242188 86.45246887207031 C 77.78709411621094 95.52476501464844 58.30503845214844 105.8824462890625 53.22492218017578 106.55452728271484 C 49.31883239746094 107.18858337402344 51.73548126220703 106.12364196777344 51.00708770751953 129.48048400878906 C 50.74718475341797 156.27740478515625 52.09574890136719 158.51577758789062 46.57487487792969 154.95883178710938" stroke-width="0.0" fill="rgb(74, 205, 252)" opacity="0.9982139"/>
    <path d="M 159.71531677246094 99.40143585205078 C 157.3914337158203 98.99394226074219 155.36183166503906 98.10906982421875 155.33895874023438 97.66006469726562 C 155.3780975341797 96.30570220947266 157.24066162109375 95.43342590332031 159.4110870361328 95.29837799072266 C 161.51675415039062 94.09052276611328 163.76596069335938 92.4048080444336 165.04388427734375 91.42548370361328 C 166.4378204345703 89.66446685791016 169.61666870117188 89.87628936767578 168.84207153320312 91.41871643066406 C 169.7973175048828 92.13784790039062 168.67137145996094 93.48639678955078 167.01905822753906 94.61376190185547 C 163.4503936767578 96.8323745727539 162.7075653076172 97.34980010986328 165.559814453125 96.96707916259766 C 167.98562622070312 98.03438568115234 167.0045166015625 100.3524398803711 164.88491821289062 101.06715393066406 C 164.3236083984375 101.17991638183594 161.9567108154297 100.51985168457031 159.71531677246094 99.40143585205078" stroke-width="1.0" fill="rgb(37, 34, 26)" opacity="0.9683304"/>
    <path d="M 153.92149353027344 86.39330291748047 C 152.75750732421875 86.13297271728516 159.68313598632812 75.00414276123047 161.1689453125 74.35726928710938 C 163.0683135986328 74.37639617919922 162.58941650390625 76.2442398071289 161.07272338867188 80.33599853515625 C 158.119140625 85.77725982666016 155.28524780273438 87.85679626464844 153.92149353027344 86.39330291748047" stroke-width="1.0" fill="rgb(32, 36, 30)" opacity="0.9550517"/>
    <path d="M 139.79566955566406 78.9701156616211 C 139.30484008789062 76.32170867919922 137.1904754638672 61.362876892089844 137.52255249023438 59.34199142456055 C 137.25108337402344 59.1910285949707 137.84791564941406 58.635276794433594 138.8214569091797 58.9975471496582 C 140.9560546875 58.57122039794922 141.38511657714844 61.009517669677734 142.57272338867188 73.06198120117188 C 142.5491943359375 78.53882598876953 142.7369384765625 80.83704376220703 142.08738708496094 80.44810485839844 C 141.08221435546875 80.6188735961914 140.56101989746094 79.82585906982422 139.79566955566406 78.9701156616211" stroke-width="1.0" fill="rgb(33, 32, 25)" opacity="0.9826836"/>
    <path d="M 150.11656188964844 67.80868530273438 C 150.32492065429688 63.51802062988281 151.10525512695312 62.388423919677734 152.26748657226562 62.16328430175781 C 154.05247497558594 62.447471618652344 154.46221923828125 64.46046447753906 153.2710723876953 69.94732666015625 C 152.09371948242188 75.22465515136719 150.39329528808594 73.98870849609375 150.11656188964844 67.80868530273438" stroke-width="1.0" fill="rgb(26, 33, 30)" opacity="0.9745398"/>
    <path d="M 133.1268310546875 69.25333404541016 C 132.66331481933594 67.57582092285156 132.927001953125 65.75733947753906 133.35626220703125 65.06086730957031 C 134.41722106933594 64.18571472167969 137.58245849609375 69.44053649902344 136.94180297851562 70.79833221435547 C 135.89378356933594 73.737060546875 133.9842987060547 72.70210266113281 133.1268310546875 69.25333404541016" stroke-width="1.0" fill="rgb(34, 35, 33)" opacity="0.959105"/>
    <path d="M 51.63887023925781 163.6678466796875 C 51.272239685058594 161.84463500976562 50.342979431152344 160.97030639648438 49.814109802246094 160.0850372314453 C 50.36927795410156 160.0250701904297 78.43363189697266 159.69325256347656 112.80472564697266 159.6048126220703 C 168.10113525390625 160.20130920410156 174.33425903320312 159.00172424316406 171.80169677734375 161.67620849609375 C 173.22433471679688 165.11102294921875 164.98341369628906 163.2160186767578 111.87916564941406 163.7178192138672 C 78.98478698730469 163.73292541503906 51.28331756591797 163.73748779296875 51.63887023925781 163.6678466796875" stroke-width="1.0" fill="rgb(248, 219, 140)" opacity="0.9876881"/>
    <path d="M 54.24457550048828 154.2962646484375 C 54.00701141357422 150.7943572998047 54.38573455810547 151.80245971679688 111.27166748046875 151.5268096923828 C 168.42237854003906 151.8373565673828 168.84548950195312 150.67889404296875 168.0946502685547 154.0789337158203 C 169.90225219726562 157.37826538085938 168.9253387451172 155.92796325683594 111.28445434570312 156.1441650390625 C 53.60028839111328 155.9698028564453 52.939613342285156 157.36964416503906 54.24457550048828 154.2962646484375" stroke-width="1.0" fill="rgb(246, 218, 131)" opacity="0.97852176"/>
    <path d="M 54.685997009277344 132.52890014648438 L 54.493080139160156 116.49595642089844 L 70.89152526855469 116.55976867675781 L 89.29830932617188 116.2511978149414 L 89.12779235839844 132.6591796875 L 89.10547637939453 148.43310546875 L 54.765869140625 148.39199829101562 L 54.685997009277344 132.52890014648438" stroke-width="1.0" fill="rgb(224, 197, 116)" opacity="0.9064015"/>
    <path d="M 92.74200439453125 132.77047729492188 L 92.61389923095703 116.625732421875 L 129.92678833007812 116.6280746459961 L 130.19464111328125 133.75518798828125 C 130.07461547851562 148.16250610351562 130.51585388183594 149.43206787109375 127.42013549804688 148.2295684814453 C 124.56478881835938 148.7560577392578 125.3259506225586 147.76931762695312 125.6939697265625 135.5470428466797 L 125.56158447265625 120.67861938476562 L 112.58201599121094 120.74725341796875 C 103.09503936767578 120.50535583496094 98.68486785888672 120.556884765625 97.07935333251953 121.15434265136719 C 96.31592559814453 121.97863006591797 96.51641082763672 125.4957504272461 96.81855773925781 135.9153594970703 C 96.93434143066406 147.08299255371094 97.37832641601562 148.96038818359375 94.62458038330078 148.5059051513672 C 92.40230560302734 148.85751342773438 93.1177978515625 146.3056182861328 92.74200439453125 132.77047729492188" stroke-width="1.0" fill="rgb(248, 218, 133)" opacity="0.9831364"/>
    <path d="M 100.52861022949219 136.54776000976562 L 100.4190444946289 124.13179016113281 L 105.11681365966797 123.9749984741211 L 109.6103744506836 123.66175079345703 L 109.45757293701172 148.3815155029297 L 100.60919952392578 148.328857421875 L 100.52861022949219 136.54776000976562" stroke-width="1.0" fill="rgb(251, 221, 126)" opacity="0.99080664"/>
    <path d="M 113.10295104980469 136.15684509277344 L 113.16529846191406 123.7056884765625 L 121.68035888671875 124.044677734375 L 121.86611938476562 148.38943481445312 L 113.08747100830078 148.42898559570312 L 113.10295104980469 136.15684509277344" stroke-width="1.0" fill="rgb(250, 221, 123)" opacity="0.98845565"/>
    <path d="M 133.5851287841797 132.3599853515625 L 133.80897521972656 116.66039276123047 L 168.4396514892578 116.60599517822266 L 168.06231689453125 148.44720458984375 L 133.3731689453125 148.61322021484375 L 133.5851287841797 132.3599853515625" stroke-width="1.0" fill="rgb(224, 197, 116)" opacity="0.90540016"/>
    <path d="M 54.671661376953125 112.74087524414062 C 55.006683349609375 108.99247741699219 60.84528350830078 110.17996215820312 63.54619598388672 109.85367584228516 C 65.49319458007812 109.99286651611328 71.00572967529297 109.9936294555664 74.29904174804688 109.91352081298828 C 73.79072570800781 109.43310546875 78.95217895507812 110.1058349609375 78.60186767578125 109.69847869873047 C 82.79157257080078 109.67269134521484 87.20745086669922 111.31928253173828 88.36141204833984 109.1632308959961 C 87.77247619628906 105.79568481445312 86.30282592773438 106.22450256347656 77.50409698486328 106.49945068359375 C 69.75474548339844 106.74766540527344 65.79238891601562 106.44698333740234 63.79829406738281 106.64567565917969 C 65.81209564208984 104.64460754394531 68.8055191040039 103.31881713867188 71.22578430175781 102.62781524658203 C 75.56137084960938 100.72129821777344 92.23344421386719 88.30482482910156 101.60042572021484 78.40541076660156 C 107.00149536132812 73.18366241455078 110.53047943115234 68.02468872070312 111.84600830078125 67.85578155517578 C 112.10050964355469 67.82568359375 117.0472183227539 73.8150634765625 124.09327697753906 80.81620025634766 C 134.20339965820312 91.0262680053711 151.8863983154297 103.14433288574219 154.40492248535156 103.56619262695312 C 153.96182250976562 103.38417053222656 154.70655822753906 103.47732543945312 158.58554077148438 105.52674102783203 C 158.68890380859375 106.30547332763672 154.07630920410156 106.31646728515625 143.01795959472656 106.6610336303711 C 135.42974853515625 106.0401382446289 132.55569458007812 106.08307647705078 135.4394073486328 109.45886993408203 C 135.71340942382812 109.80989074707031 145.81393432617188 110.38655090332031 156.7021026611328 110.05632019042969 C 161.59786987304688 110.59342956542969 170.4836883544922 108.38101959228516 168.60264587402344 112.94044494628906 C 167.7138214111328 113.63175201416016 142.33424377441406 112.94184875488281 112.73638916015625 113.14332580566406 C 76.08264923095703 113.03825378417969 55.378578186035156 113.73685455322266 54.671661376953125 112.74087524414062" stroke-width="0.0" fill="rgb(249, 219, 124)" opacity="0.99161696"/>
    <path d="M 92.44926452636719 188.84100341796875 C 80.114501953125 185.95864868164062 66.12431335449219 177.82321166992188 59.0404052734375 170.59829711914062 L 55.89796447753906 167.07757568359375 L 111.2012939453125 167.19747924804688 C 141.90359497070312 167.14187622070312 166.39700317382812 166.989013671875 166.7064971923828 167.0635986328125 C 166.6817626953125 168.53237915039062 156.90367126464844 176.68174743652344 150.7062225341797 180.50155639648438 C 138.76158142089844 187.64767456054688 127.28585052490234 190.88609313964844 110.89302825927734 191.1336669921875 C 103.70262908935547 190.81666564941406 97.59251403808594 190.0394287109375 92.44926452636719 188.84100341796875" stroke-width="1.0" fill="rgb(137, 185, 39)" opacity="0.99362177"/>
    <path d="M 158.99838256835938 101.98280334472656 C 154.2071990966797 99.64546203613281 150.52183532714844 97.89315032958984 150.61270141601562 97.1843032836914 C 151.11561584472656 96.21653747558594 153.52711486816406 94.66230010986328 156.6894073486328 92.38288116455078 C 160.53353881835938 89.73605346679688 162.96734619140625 89.37667846679688 164.87692260742188 90.33341979980469 C 166.2862548828125 91.10493469238281 165.30288696289062 91.80595397949219 161.50863647460938 93.79688262939453 C 156.46315002441406 95.69451141357422 154.7232208251953 97.92098236083984 157.5094757080078 98.52227783203125 C 164.2159423828125 100.20010375976562 169.1939239501953 102.4278564453125 168.26953125 104.11691284179688 C 168.13973999023438 107.25015258789062 168.01463317871094 106.87550354003906 158.99838256835938 101.98280334472656" stroke-width="1.0" fill="rgb(120, 167, 24)" opacity="0.97039855"/>
    <path d="M 135.97677612304688 87.03158569335938 C 133.5438995361328 85.33895874023438 132.69595336914062 79.23761749267578 135.34535217285156 80.61717987060547 C 136.25038146972656 81.47615051269531 140.05130004882812 88.58030700683594 139.1505584716797 88.73538208007812 C 139.07037353515625 88.57125091552734 137.48802185058594 87.85958862304688 135.97677612304688 87.03158569335938" stroke-width="1.0" fill="rgb(123, 169, 5)" opacity="0.94482166"/>
    <path d="M 142.583984375 76.29141998291016 C 141.28770446777344 69.02555084228516 141.07325744628906 63.671836853027344 142.60879516601562 62.77424240112305 C 144.34613037109375 62.460044860839844 144.76251220703125 64.42289733886719 144.596923828125 70.65179443359375 C 144.6139678955078 79.09379577636719 143.82131958007812 81.18928527832031 142.583984375 76.29141998291016" stroke-width="1.0" fill="rgb(141, 171, 28)" opacity="0.9695324"/>
    <path d="M 61.05133819580078 132.1287841796875 C 60.96942901611328 130.3721923828125 62.719024658203125 130.42489624023438 72.01722717285156 130.59686279296875 C 80.71434783935547 130.79129028320312 82.95674896240234 131.09356689453125 82.23828887939453 132.44659423828125 C 82.5594711303711 133.58668518066406 78.818603515625 133.97122192382812 71.658935546875 133.65521240234375 C 62.323036193847656 133.6837615966797 60.71220397949219 133.58859252929688 61.05133819580078 132.1287841796875" stroke-width="1.0" fill="rgb(22, 25, 31)" opacity="0.9890294"/>
    <path d="M 140.9537811279297 132.9600830078125 C 139.1854248046875 131.04736328125 141.26820373535156 130.3376007080078 151.0819091796875 130.545166015625 C 160.2293701171875 130.41397094726562 162.28729248046875 130.5703582763672 161.92315673828125 132.05487060546875 C 162.03404235839844 133.8621826171875 160.13912963867188 133.8197021484375 151.76498413085938 133.55020141601562 C 146.37310791015625 133.6248321533203 141.27175903320312 133.3186492919922 140.9537811279297 132.9600830078125" stroke-width="1.0" fill="rgb(25, 26, 33)" opacity="0.9813201"/>
    <path d="M 96.79084014892578 107.87059783935547 C 96.2626953125 106.63490295410156 96.39369201660156 96.29318237304688 96.9980697631836 94.28551483154297 C 98.28755187988281 93.31731414794922 121.64337158203125 93.34197998046875 124.62254333496094 93.95281219482422 C 126.07534790039062 94.0759048461914 126.36499786376953 95.97698974609375 126.3192138671875 101.26866912841797 L 126.30683898925781 107.9665756225586 L 111.74662017822266 108.49445343017578 C 103.97721099853516 108.40779113769531 97.2685775756836 108.39244079589844 96.79084014892578 107.87059783935547" stroke-width="1.0" fill="rgb(26, 18, 29)" opacity="0.9877304"/>
    <path d="M 100.02696228027344 100.7907943725586 C 99.72044372558594 97.07647705078125 99.85547637939453 96.8916015625 104.69491577148438 97.26769256591797 C 109.4898681640625 97.2526626586914 109.98016357421875 97.40226745605469 109.61405181884766 100.94491577148438 C 109.75069427490234 105.15322875976562 109.64160919189453 104.94610595703125 104.55986785888672 104.74024200439453 C 99.9312973022461 104.74153900146484 99.40748596191406 105.04460906982422 100.02696228027344 100.7907943725586" stroke-width="1.0" fill="rgb(74, 208, 248)" opacity="0.97848725"/>
    <path d="M 113.04640197753906 101.05654907226562 C 113.00930786132812 96.98764038085938 112.83546447753906 97.02249145507812 117.84129333496094 97.3171157836914 C 122.64205932617188 97.14686584472656 122.50743865966797 97.1684799194336 122.33621978759766 101.22245788574219 C 122.60773468017578 105.46061706542969 122.40510559082031 104.89042663574219 117.6760482788086 104.72377014160156 C 112.90957641601562 104.74423217773438 112.84605407714844 105.0411605834961 113.04640197753906 101.05654907226562" stroke-width="1.0" fill="rgb(73, 209, 249)" opacity="0.98122746"/>
  </g>
</svg>
