<?xml version="1.0" ?>
<svg xmlns="http://www.w3.org/2000/svg" version="1.1" width="224" height="224">
  <defs/>
  <g>
    <path d="M 101.41024780273438 194.57290649414062 C 88.01044464111328 193.04959106445312 73.33564758300781 186.85809326171875 63.56934356689453 179.28482055664062 C 45.98390197753906 165.74560546875 34.831031799316406 145.9631805419922 32.384864807128906 122.6121826171875 C 29.668624877929688 97.50045776367188 40.89888000488281 68.6082763671875 60.3475341796875 52.794273376464844 C 84.17375183105469 32.331748962402344 119.2632064819336 27.99999237060547 147.9058380126953 41.58698272705078 C 170.68045043945312 53.05558776855469 186.38983154296875 72.55914306640625 191.7183837890625 98.35104370117188 C 194.33139038085938 108.15974426269531 193.8627471923828 123.3715591430664 191.27879333496094 132.73744201660156 C 183.5328369140625 163.75401306152344 161.35235595703125 186.1755828857422 131.6537322998047 193.31741333007812 C 124.36947631835938 195.09521484375 108.30951690673828 196.0 101.41024780273438 194.57290649414062" stroke-width="1.0" fill="rgb(27, 24, 24)" opacity="1.0"/>
    <path d="M 97.24771118164062 190.48301696777344 C 61.02506637573242 183.61351013183594 35.3905029296875 152.18133544921875 35.41326904296875 114.22242736816406 C 35.533172607421875 76.2735366821289 61.76374435424805 44.91419982910156 98.76001739501953 38.247283935546875 C 129.28802490234375 32.962974548339844 159.65463256835938 45.634742736816406 176.5070343017578 70.51441955566406 C 192.121826171875 92.89141845703125 194.27874755859375 125.17231750488281 181.95614624023438 149.57940673828125 C 177.8062286376953 157.6305389404297 173.7355194091797 163.17568969726562 167.3019256591797 169.72276306152344 C 157.46682739257812 179.72296142578125 146.5022430419922 185.94686889648438 132.66000366210938 189.55657958984375 C 125.21565246582031 191.7809600830078 105.90879821777344 192.33245849609375 97.24771118164062 190.48301696777344" stroke-width="1.0" fill="rgb(141, 94, 129)" opacity="0.99401253"/>
    <path d="M 111.2076187133789 82.31964111328125 C 110.86410522460938 81.93476867675781 110.5811996459961 77.83244323730469 110.32159423828125 72.86149597167969 C 110.54313659667969 64.41002655029297 110.50763702392578 64.26058197021484 112.43146514892578 64.49065399169922 C 114.64119720458984 64.75126647949219 114.64586639404297 65.10050964355469 114.70824432373047 73.60554504394531 C 114.6334228515625 80.82638549804688 114.25367736816406 82.37159729003906 113.21334838867188 82.70730590820312 C 112.53260803222656 82.6480941772461 111.58472442626953 82.633056640625 111.2076187133789 82.31964111328125" stroke-width="1.0" fill="rgb(28, 23, 22)" opacity="0.9977935"/>
    <path d="M 77.71412658691406 134.205810546875 C 73.33013153076172 129.73912048339844 71.63365173339844 126.54357147216797 71.66604614257812 122.24139404296875 C 71.72602844238281 119.82625579833984 72.57833862304688 117.56050872802734 73.28329467773438 116.96871948242188 C 74.46520233154297 115.28044128417969 74.51649475097656 114.65637969970703 73.62252044677734 113.36778259277344 C 72.85536193847656 112.84376525878906 72.49053192138672 110.80872344970703 72.33392333984375 107.44337463378906 L 71.66476440429688 102.55207061767578 L 79.89091491699219 95.26493835449219 C 84.32209777832031 90.63865661621094 90.06027221679688 85.80551147460938 93.42756652832031 83.87551879882812 C 96.93004608154297 81.66943359375 100.76364135742188 79.7834701538086 101.0780258178711 78.97940826416016 C 103.77791595458984 76.55196380615234 107.92189025878906 73.68173217773438 109.13605499267578 73.03770446777344 C 109.71028900146484 73.4866943359375 110.07302856445312 75.1529541015625 109.99163818359375 77.07435607910156 C 110.46514129638672 79.89571380615234 111.00362396240234 80.87765502929688 112.60525512695312 81.26982116699219 C 113.73577880859375 80.80547332763672 114.3967056274414 79.83341979980469 115.19893646240234 77.29061889648438 C 115.55178833007812 75.92398834228516 115.5462646484375 74.25096893310547 115.65171813964844 73.06072998046875 C 116.93733978271484 74.59899139404297 121.56787109375 77.60923767089844 135.62306213378906 86.8922119140625 C 137.74119567871094 88.79898071289062 143.05604553222656 93.07839965820312 146.38929748535156 97.00433349609375 C 153.4056396484375 104.23085021972656 153.85552978515625 104.55374145507812 153.74290466308594 107.55528259277344 C 153.40350341796875 109.92073059082031 152.75685119628906 112.04706573486328 151.3426513671875 113.22567749023438 C 150.7313232421875 115.06744384765625 150.64495849609375 116.01924133300781 151.4794921875 116.93968200683594 C 152.5127410888672 117.97808837890625 152.81631469726562 120.7702407836914 152.90252685546875 123.0875244140625 C 152.6502227783203 128.1305694580078 152.32545471191406 128.3013916015625 149.396240234375 132.1190185546875 L 146.08609008789062 136.49655151367188 L 79.00439453125 136.2987518310547 L 77.71412658691406 134.205810546875" stroke-width="0.0" fill="rgb(231, 157, 57)" opacity="0.9939551"/>
    <path d="M 79.7637939453125 94.74598693847656 C 78.28379821777344 90.681396484375 77.994384765625 84.23631286621094 79.2657470703125 82.32244873046875 C 80.98412322998047 78.98497009277344 86.95484161376953 80.35820770263672 92.70108795166016 84.95492553710938 L 95.76557159423828 87.09367370605469 L 91.87007904052734 87.48603820800781 C 87.31620788574219 88.17285919189453 83.842529296875 90.78987121582031 81.96768188476562 94.78523254394531 L 80.45039367675781 97.55650329589844 L 79.7637939453125 94.74598693847656" stroke-width="1.0" fill="rgb(252, 254, 253)" opacity="0.9981336"/>
    <path d="M 143.52059936523438 95.01754760742188 C 141.98672485351562 91.13390350341797 137.57545471191406 88.05133056640625 132.81442260742188 87.582275390625 C 129.7667999267578 87.51075744628906 129.1522979736328 87.18226623535156 129.77464294433594 85.90559387207031 C 130.48556518554688 85.28907775878906 132.68064880371094 83.81859588623047 135.2678985595703 82.6878890991211 C 140.0651397705078 79.59931182861328 145.09132385253906 79.18775939941406 145.98443603515625 82.41151428222656 C 147.08340454101562 84.24944305419922 146.4493865966797 94.04501342773438 145.0763702392578 96.08486938476562 C 144.40948486328125 97.48848724365234 144.29942321777344 97.02119445800781 143.52059936523438 95.01754760742188" stroke-width="1.0" fill="rgb(252, 254, 253)" opacity="0.9975705"/>
    <path d="M 102.43295288085938 156.434814453125 C 93.9402847290039 154.5401611328125 85.92697143554688 149.9368438720703 79.71279907226562 142.20802307128906 C 77.19697570800781 140.01602172851562 75.81741333007812 136.8529510498047 74.56051635742188 134.58673095703125 C 75.83250427246094 133.60804748535156 75.14480590820312 131.4658203125 71.732421875 130.79571533203125 C 67.67748260498047 126.89842224121094 67.71682739257812 124.14007568359375 71.7815933227539 118.93672180175781 L 75.16839599609375 115.14466857910156 L 72.20770263671875 111.83207702636719 C 69.15933227539062 108.73503112792969 67.7717514038086 104.84141540527344 69.1883773803711 102.28314208984375 C 69.45230102539062 101.74370574951172 70.85043334960938 99.96430206298828 73.00304412841797 98.93406677246094 C 77.48623657226562 97.21153259277344 76.58194732666016 97.70512390136719 75.17424011230469 91.78707885742188 C 73.08746337890625 77.99368286132812 79.03076171875 73.28025817871094 90.04473876953125 79.08518981933594 C 94.49110412597656 82.39070129394531 94.2852783203125 83.03334045410156 97.61900329589844 79.94414520263672 C 100.95631408691406 81.24964904785156 100.93549346923828 79.66036987304688 102.74819946289062 75.7935791015625 C 104.72171020507812 72.66249084472656 106.21304321289062 70.97113037109375 107.97382354736328 70.07882690429688 C 110.31885528564453 71.30661010742188 110.81090545654297 71.88003540039062 107.22990417480469 75.27294921875 C 105.75502014160156 77.30552673339844 104.56149291992188 80.17070007324219 104.29407501220703 81.18311309814453 C 103.75704956054688 83.97280883789062 103.65668487548828 85.6220932006836 100.85920715332031 85.05882263183594 C 99.28199005126953 82.55038452148438 98.26642608642578 84.02456665039062 99.7493667602539 86.52871704101562 C 98.9156265258789 89.73403930664062 96.6491470336914 89.76026916503906 95.248779296875 87.05682373046875 C 91.47293090820312 83.64691162109375 87.01164245605469 80.34410858154297 83.534423828125 80.02288818359375 C 79.01976013183594 79.86293029785156 78.15142059326172 81.51445007324219 78.05290222167969 88.7844467163086 C 78.54208374023438 92.1763916015625 79.58372497558594 96.35533905029297 81.37164306640625 98.05681610107422 C 81.19686889648438 99.7403793334961 80.62176513671875 100.01712799072266 78.61732482910156 100.56011962890625 C 74.75981903076172 100.75150299072266 71.81375122070312 103.17286682128906 72.30126953125 105.63143157958984 C 73.02690124511719 107.41483306884766 74.1584701538086 109.0171127319336 76.68841552734375 111.52688598632812 C 78.93745422363281 113.12602233886719 81.3017349243164 114.4281997680664 81.31465911865234 115.5294189453125 C 81.3941650390625 117.06120300292969 78.21035766601562 116.79557800292969 75.97036743164062 119.1253890991211 C 73.27389526367188 121.64436340332031 72.56712341308594 123.22727966308594 72.05229949951172 125.17364501953125 C 71.9698486328125 127.39493560791016 74.77517700195312 129.13934326171875 76.79319763183594 129.16143798828125 C 77.93920135498047 129.6905517578125 78.65118408203125 130.13243103027344 80.41018676757812 130.35330200195312 C 81.35580444335938 131.44410705566406 81.46270751953125 132.85716247558594 78.38079833984375 133.7913055419922 C 78.67227172851562 136.84280395507812 79.22212982177734 137.33169555664062 84.50434875488281 135.03811645507812 C 86.85343170166016 134.38421630859375 91.18880462646484 134.01133728027344 95.62120056152344 133.4186248779297 C 101.25550842285156 134.17495727539062 101.95845794677734 134.68516540527344 103.59468078613281 132.4310760498047 C 104.45650482177734 128.537109375 107.66458129882812 126.57060241699219 114.38827514648438 128.6254119873047 C 118.40678405761719 129.6623077392578 121.27944946289062 131.7306671142578 120.89263916015625 133.890869140625 C 122.4040298461914 133.52316284179688 124.23136901855469 133.84690856933594 129.39601135253906 133.96881103515625 C 133.2470245361328 133.3374481201172 137.8153533935547 134.33511352539062 139.23480224609375 134.90557861328125 C 144.57508850097656 136.27786254882812 146.60166931152344 137.53536987304688 147.07589721679688 134.05943298339844 C 143.16500854492188 131.8802490234375 143.1110382080078 129.93533325195312 146.3605499267578 130.064208984375 C 154.28048706054688 127.94024658203125 154.41754150390625 124.37220001220703 149.24427795410156 118.95050811767578 C 146.1499786376953 117.21110534667969 143.78594970703125 116.64665985107422 143.49855041503906 115.60826873779297 C 144.09805297851562 114.75084686279297 146.30807495117188 113.68087005615234 146.73159790039062 113.00584411621094 C 149.7659149169922 111.18053436279297 152.91896057128906 107.73823547363281 153.15216064453125 104.35965728759766 C 152.63270568847656 102.73400115966797 150.0225372314453 100.52237701416016 148.66256713867188 100.71612548828125 C 146.39627075195312 100.69571685791016 145.93533325195312 100.15879821777344 144.988037109375 99.82832336425781 C 143.73471069335938 99.0216064453125 143.09527587890625 98.62037658691406 145.212890625 96.26683044433594 C 147.20919799804688 91.94669342041016 147.62503051757812 83.20384979248047 145.71002197265625 81.2327880859375 C 145.5662078857422 80.34585571289062 143.57203674316406 80.05718231201172 141.98410034179688 79.89634704589844 C 138.61184692382812 80.32825469970703 133.3049774169922 83.45114135742188 130.03872680664062 86.64375305175781 C 128.79335021972656 89.94609832763672 126.9007568359375 89.86398315429688 125.34456634521484 86.699462890625 C 127.20236206054688 83.92627716064453 126.45306396484375 82.56856536865234 124.34091186523438 85.1939926147461 C 122.10411834716797 85.7173843383789 121.07540893554688 83.44288635253906 120.91935729980469 81.47588348388672 C 120.70625305175781 81.0744400024414 119.91593933105469 78.72342681884766 118.54969024658203 76.30845642089844 C 115.11797332763672 71.38954162597656 114.98988342285156 70.6349105834961 116.05146026611328 70.2926025390625 C 118.8211669921875 70.76296997070312 120.44513702392578 72.08267974853516 122.2988510131836 75.353759765625 C 124.24091339111328 79.67745971679688 123.89361572265625 81.53775787353516 127.21148681640625 79.87226867675781 C 130.8291473388672 82.5370864868164 130.63299560546875 81.92375183105469 134.4436798095703 79.3297119140625 C 145.53448486328125 73.3891372680664 151.5550537109375 77.67201232910156 150.03851318359375 90.24573516845703 L 148.40634155273438 96.94976806640625 L 153.03302001953125 99.2724380493164 C 156.2930908203125 103.06798553466797 156.61090087890625 103.9727554321289 156.2115478515625 106.68247985839844 C 155.9627685546875 108.34439086914062 154.24041748046875 110.35747528076172 152.9248046875 111.92747497558594 C 149.5848388671875 114.81122589111328 149.48501586914062 115.21419525146484 152.23513793945312 117.7957534790039 C 156.8623809814453 122.35955810546875 158.22103881835938 127.57179260253906 152.59963989257812 131.35166931152344 C 149.9253692626953 132.069580078125 150.60818481445312 134.8771514892578 149.972412109375 135.79788208007812 C 148.94412231445312 140.5907440185547 138.76641845703125 150.49832153320312 130.7352752685547 153.44515991210938 C 123.22187805175781 157.62088012695312 110.69488525390625 159.01161193847656 102.43295288085938 156.434814453125" stroke-width="0.0" fill="rgb(29, 22, 25)" opacity="1.0"/>
    <path d="M 95.96192932128906 124.65016174316406 C 91.9154052734375 120.27942657470703 97.00955963134766 113.42259216308594 101.89698028564453 116.13638305664062 C 105.4841079711914 117.78924560546875 105.72638702392578 123.2345199584961 102.42840576171875 125.26737976074219 C 100.88752746582031 126.66790771484375 97.23416137695312 126.13516235351562 95.96192932128906 124.65016174316406" stroke-width="1.0" fill="rgb(41, 38, 42)" opacity="0.9549274"/>
    <path d="M 121.43104553222656 123.78675079345703 C 119.40696716308594 121.37843322753906 119.80484008789062 118.95162963867188 122.3421401977539 116.75250244140625 C 124.64868927001953 114.78817749023438 125.8140869140625 114.77081298828125 128.62071228027344 117.05581665039062 C 132.72723388671875 120.21023559570312 130.42518615722656 126.21495819091797 125.26042175292969 126.1367416381836 C 124.00871276855469 126.2064437866211 122.53489685058594 125.32144165039062 121.43104553222656 123.78675079345703" stroke-width="1.0" fill="rgb(40, 36, 43)" opacity="0.9465067"/>
    <path d="M 107.07411193847656 153.9314422607422 C 103.525390625 153.71484375 97.499267578125 152.0110321044922 92.9919662475586 149.0274658203125 C 88.11676025390625 146.72830200195312 79.43441009521484 138.439453125 79.58721160888672 136.66470336914062 C 80.70964050292969 135.1996612548828 84.94274139404297 133.46768188476562 94.01060485839844 132.75070190429688 C 98.81610870361328 133.1140899658203 105.58338165283203 133.647216796875 109.38529968261719 133.8582305908203 C 119.1769790649414 132.80844116210938 140.39678955078125 132.08114624023438 142.49267578125 135.06558227539062 C 144.03048706054688 135.8986358642578 145.28634643554688 136.84695434570312 145.77627563476562 136.77745056152344 C 145.25015258789062 139.11614990234375 136.83197021484375 146.97360229492188 131.05035400390625 149.72340393066406 C 123.53256225585938 153.58555603027344 115.28564453125 154.94915771484375 107.07411193847656 153.9314422607422" stroke-width="0.0" fill="rgb(251, 252, 252)" opacity="0.9922345"/>
    <path d="M 109.59964752197266 148.99166870117188 C 106.54840850830078 147.7973175048828 104.60110473632812 145.62277221679688 104.60375213623047 142.66363525390625 C 105.89885711669922 140.78579711914062 105.61101531982422 139.5082244873047 103.71439361572266 138.13429260253906 C 99.36886596679688 132.6864776611328 103.71490478515625 127.31462860107422 112.4897689819336 127.20394134521484 C 121.05367279052734 127.14530944824219 125.5316390991211 132.280029296875 121.49748992919922 137.77867126464844 C 119.59044647216797 138.56329345703125 119.29241180419922 140.67306518554688 120.29725646972656 143.02157592773438 C 119.91706085205078 145.46514892578125 119.43345642089844 146.31759643554688 117.15095520019531 147.94503784179688 C 114.30689239501953 149.72769165039062 112.18603515625 150.18263244628906 109.59964752197266 148.99166870117188" stroke-width="1.0" fill="rgb(39, 37, 36)" opacity="0.952978"/>
  </g>
</svg>
