<?xml version="1.0" ?>
<svg xmlns="http://www.w3.org/2000/svg" version="1.1" width="224" height="224">
  <defs/>
  <g>
    <path d="M 96.34061431884766 192.8126220703125 C 64.38700866699219 187.03250122070312 38.50358581542969 162.3988037109375 30.94617462158203 131.31983947753906 C 28.00000762939453 120.1698989868164 28.25848388671875 102.82817840576172 31.427139282226562 91.52521514892578 C 35.24249267578125 76.03417205810547 42.47197723388672 63.28236770629883 53.543033599853516 52.2282600402832 C 69.21437072753906 37.040184020996094 88.1985855102539 29.409400939941406 111.65686798095703 29.215431213378906 C 129.63656616210938 29.43738555908203 144.08416748046875 33.79529571533203 157.9828338623047 42.765838623046875 C 179.73654174804688 57.02162170410156 193.17019653320312 81.14588165283203 194.67282104492188 107.42879486083984 C 196.0 135.24290466308594 183.2569580078125 161.48291015625 160.71087646484375 178.17755126953125 C 153.83425903320312 183.8907470703125 141.52932739257812 189.77615356445312 132.7834014892578 191.45620727539062 C 123.88250732421875 194.20689392089844 105.625244140625 194.78456115722656 96.34061431884766 192.8126220703125" stroke-width="1.0" fill="rgb(23, 19, 27)" opacity="0.9958611"/>
    <path d="M 99.5696792602539 189.75794982910156 C 72.61622619628906 186.42779541015625 47.48659896850586 166.65798950195312 37.59528350830078 140.07643127441406 C 33.891944885253906 130.03207397460938 32.468414306640625 121.87293243408203 32.532875061035156 108.0051498413086 C 33.31254577636719 97.7767105102539 33.880470275878906 94.63456726074219 35.62914276123047 88.44903564453125 C 39.81458282470703 74.34798431396484 46.615142822265625 63.6322135925293 56.345584869384766 54.22209548950195 C 66.01148223876953 45.052974700927734 75.49238586425781 39.43122100830078 88.81578826904297 35.64044952392578 C 96.21656799316406 33.84180450439453 97.83612060546875 33.193206787109375 111.05754852294922 32.70489501953125 C 123.8609619140625 33.399253845214844 126.40339660644531 33.77751159667969 132.87322998046875 35.24048614501953 C 161.76333618164062 43.238441467285156 182.21380615234375 64.50152587890625 189.02615356445312 93.16138458251953 C 191.6604766845703 103.59525299072266 191.62916564941406 120.01039123535156 188.99420166015625 130.54168701171875 C 183.85775756835938 152.5654296875 167.83253479003906 172.20437622070312 147.85096740722656 182.124267578125 C 132.0482177734375 189.84506225585938 117.5484390258789 191.89581298828125 99.5696792602539 189.75794982910156" stroke-width="1.0" fill="rgb(73, 219, 245)" opacity="0.9967846"/>
    <path d="M 100.50128936767578 150.81219482421875 C 88.42089080810547 148.2798614501953 74.44438171386719 138.57418823242188 66.44544982910156 127.78866577148438 C 59.88432312011719 118.82537078857422 60.159263610839844 116.91850280761719 68.26472473144531 108.01925659179688 C 75.24090576171875 100.13726043701172 85.41104125976562 93.54047393798828 96.03406524658203 90.39317321777344 C 97.52521514892578 90.00164794921875 97.74858093261719 89.15975952148438 96.71282958984375 88.32054138183594 C 95.07725524902344 82.66756439208984 95.3951187133789 81.51690673828125 98.25801086425781 78.47265625 L 101.48084259033203 76.0764389038086 L 110.99039459228516 75.82528686523438 C 119.17311096191406 75.93374633789062 121.28943634033203 76.02910614013672 123.35902404785156 77.37913513183594 C 126.31523132324219 79.49030303955078 127.56005859375 82.46699523925781 126.51386260986328 86.83209228515625 L 125.2493896484375 89.96686553955078 L 129.66827392578125 91.301025390625 C 139.10787963867188 94.30746459960938 150.81796264648438 102.5765380859375 157.50027465820312 110.85226440429688 C 162.44113159179688 116.86096954345703 162.37155151367188 119.89933776855469 157.38314819335938 126.43036651611328 C 149.79586791992188 137.01937866210938 137.560302734375 146.4309844970703 126.79512786865234 149.56863403320312 C 119.52726745605469 151.910400390625 107.7361831665039 152.52749633789062 100.50128936767578 150.81219482421875" stroke-width="1.0" fill="rgb(27, 24, 30)" opacity="0.9915801"/>
    <path d="M 74.49465942382812 106.20323181152344 C 80.86003875732422 100.05075073242188 90.47206115722656 94.83186340332031 99.60737609863281 92.69649505615234 C 108.00054931640625 90.57058715820312 121.22925567626953 91.31665802001953 128.7478485107422 94.34418487548828 C 136.851806640625 97.20592498779297 143.5338134765625 101.2369384765625 149.32879638671875 106.980224609375 L 154.1987762451172 112.09297180175781 L 69.06321716308594 112.11090087890625 L 74.49465942382812 106.20323181152344" stroke-width="1.0" fill="rgb(248, 181, 80)" opacity="0.9923898"/>
    <path d="M 99.7658462524414 86.74578857421875 C 97.58319854736328 82.50491333007812 101.19741821289062 78.74418640136719 107.30522155761719 79.08296203613281 C 110.15158081054688 79.08073425292969 110.02339935302734 79.06394958496094 109.8145751953125 83.84105682373047 C 109.79375457763672 88.23704528808594 109.52689361572266 88.49608612060547 106.97554016113281 88.43084716796875 C 105.41249084472656 88.14586639404297 103.43657684326172 88.46460723876953 102.84459686279297 88.72384643554688 C 101.85079956054688 89.01924896240234 100.69942474365234 88.35017395019531 99.7658462524414 86.74578857421875" stroke-width="1.0" fill="rgb(245, 182, 86)" opacity="0.9870476"/>
    <path d="M 117.15239715576172 88.4202880859375 C 113.81932067871094 88.17269897460938 113.84548950195312 88.14468383789062 113.23638916015625 83.68245697021484 C 113.28472900390625 79.14593505859375 113.32522583007812 79.22908020019531 116.45101165771484 79.18942260742188 C 120.29776000976562 78.9755630493164 123.14114379882812 81.00696563720703 123.57237243652344 83.88227844238281 C 123.71308135986328 86.40673828125 122.29521942138672 88.806640625 120.66632080078125 88.57701110839844 C 120.04071044921875 88.72410583496094 118.59638214111328 88.41488647460938 117.15239715576172 88.4202880859375" stroke-width="1.0" fill="rgb(247, 182, 84)" opacity="0.9923323"/>
    <path d="M 107.24187469482422 124.43680572509766 C 103.46188354492188 120.4151611328125 105.87022399902344 114.60635375976562 111.29534912109375 114.32118225097656 C 114.89588928222656 114.42268371582031 117.26025390625 116.78540802001953 117.40192413330078 120.29740142822266 C 117.04623413085938 126.10041809082031 110.99349212646484 128.45420837402344 107.24187469482422 124.43680572509766" stroke-width="1.0" fill="rgb(249, 253, 255)" opacity="0.9934135"/>
    <path d="M 126.20223999023438 120.65509796142578 C 125.91053771972656 113.42340850830078 126.56495666503906 112.28011322021484 129.263916015625 116.60984802246094 C 130.55252075195312 119.965576171875 129.6969451904297 124.0760269165039 127.62579345703125 126.19022369384766 C 126.51553344726562 127.35011291503906 126.29750061035156 126.38836669921875 126.20223999023438 120.65509796142578" stroke-width="1.0" fill="rgb(244, 249, 250)" opacity="0.9736785"/>
    <path d="M 103.83207702636719 147.6940155029297 C 97.30216217041016 146.55804443359375 91.66873168945312 144.36663818359375 86.35139465332031 141.11520385742188 C 80.90032196044922 137.6988525390625 73.25084686279297 131.30047607421875 73.42301940917969 129.88327026367188 C 73.44978332519531 129.80850219726562 89.0702133178711 129.45437622070312 111.20201873779297 129.6751708984375 C 138.018798828125 129.5484619140625 149.08843994140625 129.65829467773438 149.28855895996094 130.149169921875 C 149.3154296875 131.7051239013672 143.01158142089844 137.2277374267578 137.30178833007812 140.94778442382812 C 128.0850372314453 146.97174072265625 114.24626922607422 149.66036987304688 103.83207702636719 147.6940155029297" stroke-width="1.0" fill="rgb(248, 181, 81)" opacity="0.9939367"/>
  </g>
</svg>
