<?xml version="1.0" ?>
<svg xmlns="http://www.w3.org/2000/svg" version="1.1" width="224" height="224">
  <defs/>
  <g>
    <path d="M 91.63945007324219 193.16879272460938 C 63.34754180908203 185.45724487304688 41.897483825683594 164.87208557128906 33.914337158203125 136.4464569091797 C 30.281639099121094 124.19566345214844 30.33904266357422 105.81381225585938 34.22831726074219 93.33304595947266 C 37.90022277832031 78.7332534790039 44.42949676513672 67.36309814453125 55.31575012207031 56.33552169799805 C 63.304100036621094 49.01613998413086 67.01500701904297 46.13095474243164 74.41112518310547 41.992733001708984 C 88.81050109863281 35.45574188232422 96.19644165039062 33.75660705566406 112.91596221923828 33.04169464111328 C 125.5194091796875 33.78124237060547 128.80734252929688 34.72831726074219 136.67279052734375 36.858642578125 C 163.12100219726562 45.35508728027344 182.96066284179688 66.71665954589844 190.22882080078125 94.82545471191406 C 193.70225524902344 105.55858612060547 193.71835327148438 124.09506225585938 189.98825073242188 135.4324951171875 C 181.95120239257812 163.9010772705078 159.58404541015625 186.12783813476562 131.9705810546875 193.0799560546875 C 120.54092407226562 195.92227172851562 102.77827453613281 196.0 91.63945007324219 193.16879272460938" stroke-width="1.0" fill="rgb(40, 39, 47)" opacity="0.98546547"/>
    <path d="M 91.54010009765625 188.59120178222656 C 78.29579162597656 184.8504638671875 68.30999755859375 179.21334838867188 57.68330764770508 169.2545928955078 C 50.36792755126953 161.64349365234375 47.892127990722656 158.183837890625 43.682167053222656 149.3225860595703 C 37.54558563232422 135.69754028320312 36.06556701660156 128.91473388671875 35.93565368652344 113.85833740234375 C 36.11567687988281 94.77770233154297 41.481719970703125 79.61726379394531 52.75727462768555 65.14372253417969 C 81.48637390136719 28.469764709472656 140.6728057861328 28.00000762939453 170.63096618652344 64.53386688232422 C 177.28756713867188 72.5473403930664 183.8236083984375 85.93321228027344 186.20846557617188 95.92251586914062 C 189.3895263671875 109.35096740722656 188.3926544189453 129.37538146972656 184.13153076171875 140.25245666503906 C 179.82504272460938 151.97935485839844 174.90060424804688 160.02093505859375 166.18165588378906 169.2581787109375 C 157.2076416015625 177.81356811523438 147.00697326660156 184.04226684570312 136.15130615234375 187.44522094726562 C 125.21415710449219 191.7584228515625 102.546142578125 192.33663940429688 91.54010009765625 188.59120178222656" stroke-width="1.0" fill="rgb(115, 220, 248)" opacity="1.0"/>
    <path d="M 97.87413024902344 158.9062042236328 C 91.2211685180664 156.36903381347656 80.87234497070312 150.8748321533203 74.91950988769531 145.35787963867188 C 64.71393585205078 135.6336212158203 59.887210845947266 122.74251556396484 61.96611404418945 109.71075439453125 C 64.07001495361328 93.70748901367188 74.95368957519531 82.56288146972656 92.56787872314453 76.61251831054688 C 94.84908294677734 76.17471313476562 97.3207778930664 75.0053939819336 97.56385803222656 74.17176818847656 C 97.79461669921875 72.75924682617188 98.9373779296875 71.6054458618164 99.8978500366211 71.5620346069336 C 101.629150390625 71.9043197631836 102.19388580322266 70.13140869140625 101.8729476928711 66.60476684570312 C 101.5941390991211 62.983055114746094 102.38086700439453 62.03599166870117 104.67389678955078 62.38227844238281 C 106.68513488769531 62.367671966552734 106.76195526123047 61.73299789428711 106.53265380859375 57.049346923828125 C 106.22608184814453 54.10569381713867 106.90176391601562 51.29304504394531 107.47771453857422 51.19281768798828 C 109.54491424560547 51.008575439453125 109.888671875 53.207637786865234 109.33468627929688 56.687591552734375 L 109.85952758789062 62.41160202026367 L 114.36271667480469 61.623050689697266 C 119.36599731445312 61.994964599609375 119.84011840820312 63.00308609008789 119.61012268066406 67.78656768798828 C 119.49571228027344 70.36815643310547 120.17142486572266 71.72269439697266 123.17889404296875 71.85383605957031 C 124.37444305419922 71.89735412597656 125.21672821044922 73.46692657470703 124.90343475341797 75.0364761352539 C 124.87520599365234 75.42218017578125 127.19287109375 76.14093017578125 130.10818481445312 76.5139389038086 C 143.45413208007812 80.49220275878906 155.30099487304688 89.53046417236328 159.13446044921875 99.84835052490234 C 160.95028686523438 104.79544830322266 161.72430419921875 107.67850494384766 162.57984924316406 116.5763931274414 C 161.33370971679688 124.62633514404297 160.2328643798828 126.3958740234375 158.12779235839844 131.56617736816406 C 151.88803100585938 144.34645080566406 140.65550231933594 153.5548858642578 125.5822525024414 159.00408935546875 C 119.11878204345703 159.53131103515625 104.33428955078125 159.7441864013672 97.87413024902344 158.9062042236328" stroke-width="1.0" fill="rgb(44, 37, 41)" opacity="0.9969157"/>
    <path d="M 125.16412353515625 60.074771881103516 C 124.03372192382812 59.07541275024414 121.07115936279297 58.73268508911133 118.3178939819336 58.941734313964844 C 114.97250366210938 59.13828659057617 113.42729187011719 58.34879684448242 113.56600189208984 55.49824142456055 C 113.44808959960938 51.900028228759766 114.59101104736328 51.25384521484375 119.41514587402344 54.32792663574219 C 120.72880554199219 55.553916931152344 123.58384704589844 56.35462951660156 126.09099578857422 55.441341400146484 C 129.1641082763672 54.91320037841797 130.3709716796875 55.47575378417969 130.5877685546875 57.36473083496094 C 130.81019592285156 60.854976654052734 128.56317138671875 62.338951110839844 125.16412353515625 60.074771881103516" stroke-width="1.0" fill="rgb(68, 38, 41)" opacity="0.97751856"/>
    <path d="M 109.27862548828125 55.125885009765625 C 109.31563568115234 51.38955307006836 109.7309799194336 50.70615768432617 112.9860610961914 50.79848098754883 C 117.02078247070312 50.550174713134766 118.16244506835938 51.77233123779297 117.13311004638672 55.990657806396484 C 116.77864837646484 58.19993209838867 115.20526123046875 59.16476821899414 112.82136535644531 58.911827087402344 C 110.0001220703125 59.38884353637695 109.6443862915039 58.622413635253906 109.27862548828125 55.125885009765625" stroke-width="1.0" fill="rgb(176, 15, 21)" opacity="0.9696255"/>
    <path d="M 122.495361328125 62.859737396240234 C 119.8395004272461 60.427825927734375 120.2091064453125 59.050960540771484 123.16777038574219 60.21009063720703 C 126.47224426269531 62.019962310791016 129.2263946533203 60.422855377197266 128.7989501953125 57.451881408691406 C 128.84349060058594 54.965065002441406 127.57833862304688 54.4439811706543 124.8846435546875 54.9005012512207 C 123.01808166503906 55.368446350097656 121.37483215332031 54.231666564941406 121.76500701904297 54.031455993652344 C 122.66632843017578 51.326515197753906 127.97508239746094 52.017452239990234 130.51846313476562 54.8880500793457 C 132.12889099121094 58.21511459350586 131.722412109375 58.742774963378906 130.18609619140625 61.40906524658203 C 127.65779113769531 64.39906311035156 124.43101501464844 64.87144470214844 122.495361328125 62.859737396240234" stroke-width="1.0" fill="rgb(247, 253, 253)" opacity="0.9855893"/>
    <path d="M 94.83777618408203 138.65234375 C 84.33909606933594 136.92518615722656 69.77810668945312 133.1299285888672 69.23931884765625 131.1878662109375 C 67.84563446044922 127.70915985107422 68.28602600097656 127.7646713256836 70.53695678710938 127.45489501953125 C 71.71353149414062 128.0963592529297 76.5008773803711 129.38705444335938 81.27503967285156 130.35031127929688 C 88.24536895751953 132.89215087890625 91.97523498535156 134.0819549560547 110.70186614990234 134.6710662841797 C 131.89451599121094 133.84661865234375 134.85079956054688 133.07626342773438 153.85252380371094 127.13861083984375 C 155.4765167236328 127.1796646118164 155.647705078125 127.78241729736328 155.24789428710938 129.77093505859375 C 154.98788452148438 132.50289916992188 142.9225311279297 135.66128540039062 128.15769958496094 138.0685272216797 C 115.88392639160156 139.94859313964844 105.47091674804688 140.06138610839844 94.83777618408203 138.65234375" stroke-width="1.0" fill="rgb(249, 251, 252)" opacity="0.98586476"/>
    <path d="M 106.64396667480469 119.98224639892578 C 100.80036926269531 116.0948486328125 104.37702178955078 106.18177032470703 111.87335968017578 106.6039810180664 C 114.67283630371094 105.86893463134766 118.80908966064453 110.31687927246094 118.79759216308594 113.89059448242188 C 119.07059478759766 117.69697570800781 115.15721130371094 122.05441284179688 111.60708618164062 121.72775268554688 C 110.63761901855469 122.19728088378906 108.342041015625 121.14553833007812 106.64396667480469 119.98224639892578" stroke-width="1.0" fill="rgb(251, 254, 254)" opacity="0.9947013"/>
    <path d="M 67.28693389892578 105.01847839355469 C 67.50486755371094 97.79239654541016 75.73664855957031 87.85635375976562 87.00028991699219 82.860595703125 C 105.42900085449219 73.97543334960938 129.30258178710938 76.57307434082031 145.2601318359375 88.7215576171875 C 151.14463806152344 92.52425384521484 158.23190307617188 104.21331024169922 156.3383331298828 106.58602905273438 C 156.70208740234375 106.89720916748047 151.9605255126953 105.66700744628906 146.23361206054688 104.513916015625 C 120.79078674316406 98.00594329833984 95.59416961669922 98.47354125976562 70.11698913574219 106.39505767822266 C 68.03866577148438 107.12981414794922 67.29695129394531 106.08773803710938 67.28693389892578 105.01847839355469" stroke-width="1.0" fill="rgb(253, 255, 255)" opacity="0.99991333"/>
    <path d="M 105.56089782714844 70.08436584472656 C 105.50455474853516 65.664794921875 105.39723205566406 65.47916412353516 110.68632507324219 65.62026977539062 C 115.75021362304688 65.17634582519531 115.70716094970703 65.26117706298828 115.61949157714844 69.76542663574219 C 116.0785140991211 73.73260498046875 115.89201354980469 73.89852905273438 110.7167739868164 73.95274353027344 C 105.94927215576172 74.22294616699219 105.8635482788086 74.23059844970703 105.56089782714844 70.08436584472656" stroke-width="1.0" fill="rgb(250, 251, 252)" opacity="0.9857898"/>
    <path d="M 101.03816223144531 153.76727294921875 C 93.93547058105469 152.26145935058594 82.40530395507812 146.4444122314453 77.65178680419922 141.68075561523438 C 73.82064819335938 138.561279296875 72.99240112304688 137.867431640625 76.14344787597656 138.3693389892578 C 77.84291076660156 138.99777221679688 83.95752716064453 140.17469787597656 89.90444946289062 141.28762817382812 C 102.98711395263672 143.83633422851562 126.3058090209961 143.2316436767578 140.36019897460938 139.5129852294922 L 150.5078887939453 137.62753295898438 L 146.948974609375 140.86068725585938 C 140.53799438476562 148.42381286621094 122.44517517089844 155.2458953857422 110.7391357421875 154.9627685546875 C 108.27249908447266 154.86911010742188 103.89031219482422 154.45286560058594 101.03816223144531 153.76727294921875" stroke-width="1.0" fill="rgb(236, 146, 37)" opacity="0.99442333"/>
    <path d="M 103.34772491455078 170.19529724121094 C 93.27426147460938 166.7140350341797 86.22575378417969 161.59381103515625 80.62390899658203 153.63351440429688 C 75.92424011230469 147.30027770996094 76.19566345214844 146.85325622558594 82.79939270019531 150.39935302734375 C 91.98667907714844 156.28077697753906 98.61954498291016 158.3007354736328 111.75358581542969 158.52447509765625 C 124.8119888305664 158.05270385742188 130.93836975097656 156.242919921875 141.3475799560547 149.58511352539062 L 148.5159912109375 146.12351989746094 L 145.9079132080078 150.88180541992188 C 137.9737091064453 165.6502227783203 117.14559173583984 174.92971801757812 103.34772491455078 170.19529724121094" stroke-width="1.0" fill="rgb(11, 147, 227)" opacity="0.9664269"/>
  </g>
</svg>
