<?xml version="1.0" ?>
<svg xmlns="http://www.w3.org/2000/svg" version="1.1" width="224" height="224">
  <defs/>
  <g>
    <path d="M 99.6163558959961 28.96398162841797 C 99.6163558959961 28.96398162841797 99.6163558959961 28.96398162841797 99.6163558959961 28.96398162841797 C 109.73597717285156 29.088302612304688 119.67398071289062 30.88709259033203 128.89324951171875 35.17716979980469 C 144.19847106933594 42.29849624633789 157.1580810546875 55.54366683959961 163.8433074951172 71.0528564453125 C 171.01028442382812 87.67705535888672 171.23367309570312 107.73662567138672 164.5474853515625 124.55119323730469 C 160.80032348632812 133.97442626953125 154.80081176757812 142.33799743652344 147.47454833984375 149.31170654296875 C 141.552734375 154.9489288330078 134.7324981689453 159.63821411132812 127.21392822265625 162.8793182373047 C 118.51332092285156 166.63034057617188 109.07066345214844 168.34075927734375 99.6163558959961 168.34075927734375 C 90.16204071044922 168.34075927734375 80.71744537353516 166.63034057617188 72.01683807373047 162.8793182373047 C 64.49826049804688 159.63821411132812 57.67803192138672 154.9489288330078 51.75621795654297 149.31170654296875 C 44.4309196472168 142.33799743652344 38.43141174316406 133.97442626953125 34.68426513671875 124.55119323730469 C 28.0 107.73662567138672 28.222427368164062 87.67705535888672 35.388427734375 71.0528564453125 C 42.07366180419922 55.54366683959961 55.03229904174805 42.29849624633789 70.3375244140625 35.17716979980469 C 79.55677795410156 30.88709259033203 89.49575805664062 29.088302612304688 99.6163558959961 28.96398162841797 C 99.6163558959961 28.96398162841797 99.6163558959961 28.96398162841797 99.6163558959961 28.96398162841797" stroke-width="0.0" fill="rgb(1, 1, 1)" opacity="1.0"/>
    <path d="M 33.32740020751953 98.6523666381836 C 33.32740020751953 98.6523666381836 33.32740020751953 98.6523666381836 33.32740020751953 98.6523666381836 C 33.45561218261719 108.34754943847656 35.180580139160156 117.85625457763672 39.32011413574219 126.67729949951172 C 46.10344314575195 141.13751220703125 58.63569641113281 153.37936401367188 73.30377197265625 159.72076416015625 C 89.11016082763672 166.55458068847656 108.18972778320312 166.7828369140625 124.19134521484375 160.4394989013672 C 133.22218322753906 156.86038208007812 141.2332000732422 151.10562133789062 147.89996337890625 144.07559204101562 C 153.20501708984375 138.48207092285156 157.6213836669922 132.04840087890625 160.68475341796875 124.9630126953125 C 164.26968383789062 116.67033386230469 165.90530395507812 107.66668701171875 165.90530395507812 98.6523666381836 C 165.90530395507812 89.63706970214844 164.26968383789062 80.63245391845703 160.68475341796875 72.33978271484375 C 157.6213836669922 65.25341796875 153.20501708984375 58.82072067260742 147.89996337890625 53.227195739746094 C 141.2332000732422 46.197166442871094 133.22218322753906 40.443382263183594 124.19134521484375 36.86426544189453 C 108.1906967163086 30.521896362304688 89.10919189453125 30.750137329101562 73.30279541015625 37.58300018310547 C 58.63569641113281 43.923431396484375 46.10344314575195 56.16527557373047 39.32011413574219 70.62550354003906 C 35.180580139160156 79.447509765625 33.45561218261719 88.95620727539062 33.32740020751953 98.6523666381836 C 33.32740020751953 98.6523666381836 33.32740020751953 98.6523666381836 33.32740020751953 98.6523666381836" stroke-width="0.0" fill="rgb(254, 254, 254)" opacity="1.0"/>
    <path d="M 148.8838653564453 145.5150146484375 C 164.5892333984375 161.22039794921875 180.29461669921875 176.92674255371094 196.0 192.6331024169922 C 195.19869995117188 193.43438720703125 194.39837646484375 194.23472595214844 193.5970916748047 195.0360107421875 C 177.89073181152344 179.33062744140625 162.18438720703125 163.62525939941406 146.47900390625 147.9198760986328 C 147.28030395507812 147.1175994873047 148.0815887451172 146.31631469726562 148.8838653564453 145.5150146484375" stroke-width="0.0" fill="rgb(0, 0, 0)" opacity="1.0"/>
    <path d="M 58.82024002075195 96.95265197753906 C 86.01570892333984 96.95265197753906 113.21214294433594 96.95265197753906 140.40760803222656 96.95265197753906 C 140.40760803222656 98.08612060546875 140.40760803222656 99.21861267089844 140.40760803222656 100.35208129882812 C 113.21214294433594 100.35208129882812 86.01570892333984 100.35208129882812 58.82024002075195 100.35208129882812 C 58.82024002075195 99.21861267089844 58.82024002075195 98.08612060546875 58.82024002075195 96.95265197753906" stroke-width="0.0" fill="rgb(0, 0, 0)" opacity="1.0"/>
  </g>
</svg>
