<?xml version="1.0" ?>
<svg xmlns="http://www.w3.org/2000/svg" version="1.1" width="224" height="224">
  <defs/>
  <g>
    <path d="M 28.0 41.711509704589844 C 55.9990234375 41.711509704589844 83.9990234375 41.711509704589844 111.998046875 41.711509704589844 C 111.998046875 42.853729248046875 111.998046875 43.996925354003906 111.998046875 45.13914108276367 C 85.1412353515625 45.13914108276367 58.28541564941406 45.13914108276367 31.428611755371094 45.13914108276367 C 31.428611755371094 94.28289794921875 31.428611755371094 143.42762756347656 31.428611755371094 192.57138061523438 C 80.57139587402344 192.57138061523438 129.7131805419922 192.57138061523438 178.85595703125 192.57138061523438 C 178.85595703125 165.71359252929688 178.85595703125 138.85581970214844 178.85595703125 111.99803924560547 C 179.99916076660156 111.99803924560547 181.14137268066406 111.99803924560547 182.28457641601562 111.99803924560547 C 182.28457641601562 139.99900817871094 182.28457641601562 167.9990234375 182.28457641601562 196.0 C 130.85638427734375 196.0 79.42819213867188 196.0 28.0 196.0 C 28.0 144.57083129882812 28.0 93.14067840576172 28.0 41.711509704589844" stroke-width="0.0" fill="rgb(0, 0, 0)" opacity="1.0" stroke="rgb(0, 0, 0)" stroke-opacity="1.0" stroke-linecap="round" stroke-linejoin="round"/>
    <path d="M 139.42791748046875 28.000003814697266 C 158.2852783203125 28.000003814697266 177.14263916015625 28.000003814697266 196.0 28.000003814697266 C 196.0 46.857364654541016 196.0 65.7137451171875 196.0 84.57110595703125 C 194.85679626464844 84.57110595703125 193.714599609375 84.57110595703125 192.57138061523438 84.57110595703125 C 192.57138061523438 66.85694885253906 192.57138061523438 49.14278030395508 192.57138061523438 31.428611755371094 C 174.85723876953125 31.428611755371094 157.14207458496094 31.428611755371094 139.42791748046875 31.428611755371094 C 139.42791748046875 30.285415649414062 139.42791748046875 29.143199920654297 139.42791748046875 28.000003814697266" stroke-width="0.0" fill="rgb(0, 0, 0)" opacity="1.0" stroke="rgb(0, 0, 0)" stroke-opacity="1.0" stroke-linecap="round" stroke-linejoin="round"/>
    <path d="M 193.0739288330078 28.502540588378906 C 193.88209533691406 29.310710906982422 194.68930053710938 30.117908477783203 195.49746704101562 30.926074981689453 C 172.640380859375 53.784141540527344 149.78329467773438 76.64122009277344 126.92523193359375 99.49830627441406 C 126.1170654296875 98.69013214111328 125.30889129638672 97.8829345703125 124.50071716308594 97.07476806640625 C 147.35780334472656 74.21670532226562 170.2158660888672 51.359622955322266 193.0739288330078 28.502540588378906" stroke-width="0.0" fill="rgb(0, 0, 0)" opacity="1.0" stroke="rgb(0, 0, 0)" stroke-opacity="1.0" stroke-linecap="round" stroke-linejoin="round"/>
  </g>
</svg>
