<?xml version="1.0" ?>
<svg xmlns="http://www.w3.org/2000/svg" version="1.1" width="224" height="224">
  <defs/>
  <g>
    <path d="M 76.76921081542969 177.0498046875 C 71.97457122802734 171.02685546875 69.77368927001953 165.58827209472656 69.28982543945312 157.13531494140625 C 69.00057220458984 150.30078125 70.06365966796875 143.08050537109375 72.55513000488281 137.59439086914062 C 72.81396484375 136.99061584472656 74.16096496582031 136.8492431640625 72.19320678710938 136.95936584472656 C 64.88247680664062 139.3129425048828 51.55910110473633 148.97068786621094 45.340110778808594 158.0633087158203 C 42.22569274902344 163.0712127685547 41.995262145996094 164.86203002929688 38.962318420410156 162.00933837890625 C 39.58666229248047 159.7207794189453 45.41436767578125 152.0248565673828 52.288875579833984 145.44317626953125 C 57.312469482421875 140.31167602539062 66.65852355957031 134.75184631347656 72.33682250976562 132.79364013671875 C 74.98431396484375 132.4556884765625 75.74127197265625 131.49346923828125 77.31999969482422 127.87617492675781 C 79.2032470703125 125.49121856689453 82.40461730957031 120.5697250366211 85.87771606445312 117.4305419921875 C 88.5584945678711 114.21843719482422 91.46617126464844 112.00090026855469 91.61962127685547 111.77523040771484 C 90.8245849609375 111.30113983154297 85.51707458496094 111.51024627685547 79.22952270507812 111.62368774414062 C 69.05657958984375 111.35124206542969 65.40323638916016 112.65393829345703 65.9898681640625 109.84361267089844 C 64.50576782226562 107.22431182861328 47.38044357299805 114.4255142211914 41.70600891113281 121.4791259765625 C 39.94316101074219 122.7156753540039 36.96501159667969 126.58992767333984 34.6724853515625 129.83267211914062 C 31.27021026611328 135.31826782226562 30.580368041992188 138.36477661132812 28.0 135.5034942626953 C 28.191085815429688 132.88510131835938 34.658470153808594 123.37321472167969 40.497093200683594 117.52059173583984 C 42.83845520019531 115.11079406738281 47.40339279174805 111.93424987792969 50.510189056396484 110.29376983642578 C 59.769222259521484 105.70254516601562 81.9256591796875 100.4655532836914 92.92920684814453 100.67338562011719 L 97.22969818115234 101.10140228271484 L 97.32133483886719 94.70425415039062 C 97.25353240966797 90.38536834716797 98.31298065185547 87.55057525634766 96.7962417602539 86.51122283935547 C 94.50798034667969 82.77533721923828 79.908935546875 67.55052185058594 72.59127807617188 62.20381546020508 C 68.79057312011719 58.892269134521484 62.88789749145508 55.00895309448242 59.34077072143555 53.535850524902344 C 53.665836334228516 50.893157958984375 52.130714416503906 50.36211395263672 46.65538024902344 50.16306686401367 C 41.21595764160156 50.383033752441406 39.268287658691406 51.25911331176758 39.68824005126953 48.22145080566406 C 40.15998077392578 46.046226501464844 52.107872009277344 46.03433609008789 58.06917953491211 48.71616744995117 C 65.40924072265625 51.75821304321289 75.68125915527344 59.29677200317383 87.91492462158203 71.14512634277344 C 94.15364837646484 77.71818542480469 98.757568359375 83.85813903808594 98.533935546875 83.35657501220703 C 98.68946838378906 82.33747100830078 99.33514404296875 79.84610748291016 100.15022277832031 76.19769287109375 C 101.04776000976562 72.52059936523438 103.06019592285156 69.12519836425781 104.17931365966797 67.90020751953125 C 104.89540100097656 66.4668197631836 106.05562591552734 65.29312133789062 106.16675567626953 65.02027893066406 C 106.40885925292969 65.29716491699219 104.08546447753906 64.23722839355469 101.0646743774414 63.038116455078125 C 93.8393783569336 59.254947662353516 87.99075317382812 53.94285202026367 84.87425231933594 48.76138687133789 C 83.05017852783203 46.177886962890625 82.5240249633789 43.20520782470703 82.2323226928711 42.46563720703125 C 82.98435974121094 41.520782470703125 88.26397705078125 40.633262634277344 92.65129089355469 41.73467254638672 C 96.58216094970703 42.99047088623047 98.82972717285156 43.62384033203125 103.33574676513672 48.07618713378906 C 106.884033203125 51.63934326171875 108.61632537841797 55.09440994262695 109.7127685546875 57.49140548706055 C 110.80879211425781 62.81978225708008 112.23194885253906 63.026580810546875 113.87419128417969 57.93596649169922 C 115.64872741699219 52.802276611328125 121.75740814208984 45.364742279052734 126.85701751708984 43.318572998046875 C 130.8875274658203 40.963783264160156 139.3310089111328 40.67481231689453 141.61703491210938 42.39402770996094 C 141.8030242919922 43.678504943847656 137.93917846679688 51.45458984375 133.02774047851562 55.52381896972656 C 130.35043334960938 57.88190460205078 126.15376281738281 61.45340347290039 123.1316909790039 62.96733474731445 L 117.85784149169922 65.125732421875 L 120.51897430419922 68.41280364990234 C 121.4260482788086 70.28767395019531 122.99983215332031 74.43289184570312 123.83153533935547 77.27960968017578 C 124.35978698730469 80.19003295898438 125.23143005371094 82.71568298339844 125.51545715332031 82.93626403808594 C 124.69804382324219 83.9831314086914 129.34616088867188 78.58919525146484 134.85330200195312 72.44256591796875 C 145.63494873046875 61.54920959472656 155.09475708007812 54.21717834472656 162.8284912109375 49.87800216674805 C 167.3250274658203 48.051578521728516 169.92230224609375 47.07415771484375 176.92276000976562 46.82292938232422 C 182.13137817382812 47.08556365966797 183.99737548828125 47.005306243896484 183.74790954589844 49.0352783203125 C 183.90740966796875 50.177940368652344 181.49624633789062 50.371463775634766 178.11370849609375 49.71802520751953 C 172.52635192871094 50.31398391723633 170.29049682617188 50.99773406982422 165.21975708007812 52.75143051147461 C 157.2742919921875 56.95598220825195 147.00155639648438 64.75100708007812 135.63156127929688 76.57386779785156 C 127.8425064086914 85.26594543457031 125.42649841308594 87.39929962158203 126.12551879882812 87.94947052001953 C 126.44612121582031 88.81173706054688 126.51129913330078 92.69938659667969 126.5984115600586 95.60555267333984 L 126.35076904296875 101.2041244506836 L 131.36660766601562 100.92097473144531 C 137.4942626953125 100.66056823730469 146.24777221679688 102.21406555175781 158.10238647460938 105.36613464355469 C 170.8897247314453 108.3078842163086 176.3804473876953 110.93053436279297 182.16448974609375 116.18999481201172 C 187.00794982910156 120.28887939453125 194.8009796142578 131.91786193847656 196.0 134.81356811523438 C 192.93521118164062 138.3192596435547 193.07061767578125 135.90283203125 189.28457641601562 129.80108642578125 C 182.36680603027344 119.59650421142578 174.4149169921875 113.09915924072266 163.39700317382812 110.36859893798828 C 157.73789978027344 108.81414794921875 158.999755859375 108.40478515625 158.79037475585938 110.68985748291016 C 158.33563232421875 112.03357696533203 156.5482177734375 111.6123275756836 144.93374633789062 111.62635040283203 C 137.56002807617188 111.5889892578125 130.8041229248047 111.38195037841797 131.31600952148438 111.62699127197266 C 131.316650390625 111.7809829711914 133.73077392578125 113.43049621582031 136.10960388183594 115.69454956054688 C 138.65406799316406 117.85116577148438 142.35916137695312 122.25602722167969 144.9722137451172 125.52067565917969 C 148.37722778320312 131.44468688964844 148.201416015625 131.51705932617188 156.03125 134.6680450439453 C 161.96304321289062 137.83126831054688 166.54042053222656 140.7197265625 170.89320373535156 144.75167846679688 C 178.63983154296875 152.12124633789062 185.357666015625 161.0519561767578 184.51669311523438 161.99053955078125 C 181.842041015625 164.58824157714844 181.67953491210938 163.14453125 179.5819549560547 159.86471557617188 C 178.40090942382812 158.38687133789062 175.3509521484375 154.16220092773438 172.3701171875 151.0457763671875 C 165.8518829345703 144.03286743164062 151.85227966308594 135.4458465576172 150.33958435058594 136.59231567382812 C 151.25970458984375 136.76300048828125 151.77740478515625 139.160400390625 152.84619140625 141.78866577148438 C 156.491455078125 153.12889099121094 154.6932830810547 166.45550537109375 148.06431579589844 175.3460693359375 C 141.421875 183.36672973632812 143.85877990722656 182.78741455078125 133.00013732910156 174.02061462402344 C 128.4492950439453 169.88265991210938 124.02661895751953 166.20870971679688 122.99024963378906 165.98873901367188 C 121.93753051757812 164.78079223632812 121.52433776855469 166.41268920898438 117.78634643554688 172.3371124267578 C 114.91215515136719 176.51895141601562 112.36006164550781 179.91282653808594 111.93301391601562 180.15866088867188 C 110.58560943603516 179.32064819335938 108.30668640136719 175.81448364257812 105.77962493896484 171.91311645507812 C 103.18035125732422 168.33348083496094 101.1618881225586 165.1269989013672 101.10079193115234 165.1765899658203 C 100.94271850585938 165.05117797851562 96.7039794921875 168.77346801757812 91.44990539550781 172.71221923828125 C 86.23127746582031 177.2123565673828 81.77500915527344 180.88534545898438 81.32342529296875 181.3080596923828 C 79.99622344970703 180.6753387451172 78.303466796875 179.01507568359375 76.76921081542969 177.0498046875" stroke-width="1.0" fill="rgb(4, 6, 6)" opacity="0.9822227"/>
    <path d="M 132.1485137939453 168.82806396484375 C 126.64234924316406 164.53546142578125 121.94273376464844 160.5631866455078 121.74036407470703 160.33128356933594 C 121.52357482910156 160.43092346191406 119.19791412353516 163.76669311523438 116.79285430908203 167.52342224121094 C 114.23099517822266 171.43165588378906 112.07488250732422 174.71722412109375 112.10738372802734 174.98019409179688 C 111.5596694946289 174.58779907226562 109.31814575195312 171.49014282226562 106.73246002197266 167.5455322265625 C 104.3221206665039 163.73960876464844 102.10697937011719 160.53211975097656 102.06806945800781 160.53964233398438 C 101.41039276123047 160.7434844970703 97.10416412353516 163.96661376953125 92.35810852050781 167.80030822753906 C 87.35755920410156 171.84185791015625 82.8273696899414 175.66864013671875 81.67681884765625 176.53143310546875 C 80.1502685546875 177.25241088867188 76.88668823242188 172.98910522460938 74.42963409423828 166.64208984375 C 73.14912414550781 162.44171142578125 72.60502624511719 160.35516357421875 72.27664184570312 152.6574249267578 C 73.10917663574219 143.17205810546875 74.86628723144531 138.53916931152344 79.52796173095703 130.0679473876953 C 82.13233947753906 124.62944793701172 93.7651138305664 113.0202865600586 96.39237976074219 112.45736694335938 C 96.78744506835938 113.00399780273438 97.33035278320312 115.63011932373047 97.2906494140625 117.49654388427734 C 97.14544677734375 124.28765869140625 99.1261978149414 133.55638122558594 102.33345794677734 140.5056610107422 C 105.8031005859375 147.37640380859375 110.6527328491211 153.62884521484375 111.60594177246094 154.31301879882812 C 112.57698059082031 153.75938415527344 117.20174407958984 147.49514770507812 120.70358276367188 141.07162475585938 C 123.81426239013672 134.6791534423828 126.13497924804688 127.03250122070312 126.33235931396484 118.76313781738281 L 126.79426574707031 112.11814880371094 L 135.79103088378906 119.39875793457031 C 141.75668334960938 125.73417663574219 143.88381958007812 128.65040588378906 146.83555603027344 135.0791778564453 C 150.07432556152344 142.76202392578125 150.41249084472656 143.26463317871094 151.5094451904297 151.9636993408203 C 151.56561279296875 162.8209686279297 149.1610870361328 168.90147399902344 145.15272521972656 174.25433349609375 L 142.3336639404297 177.35263061523438 L 132.1485137939453 168.82806396484375" stroke-width="1.0" fill="rgb(253, 254, 254)" opacity="0.9996497"/>
    <path d="M 109.96971130371094 147.38658142089844 C 104.52425384521484 140.37432861328125 100.42868041992188 127.15445709228516 100.34744262695312 118.78453063964844 L 100.28865814208984 113.52653503417969 L 104.01819610595703 116.85755920410156 C 107.24628448486328 118.96400451660156 108.7999038696289 119.25752258300781 112.52951049804688 119.23302459716797 C 115.7533950805664 118.72415161132812 118.5901870727539 117.73178100585938 120.54878234863281 116.18647766113281 L 123.38814544677734 113.88565063476562 L 123.40327453613281 117.75843811035156 C 123.67521667480469 126.37089538574219 118.56524658203125 142.30477905273438 112.90716552734375 148.28030395507812 C 112.16143798828125 150.33773803710938 111.63481903076172 150.17678833007812 109.96971130371094 147.38658142089844" stroke-width="1.0" fill="rgb(253, 255, 255)" opacity="0.9978807"/>
    <path d="M 107.90653991699219 115.62846374511719 C 105.26284790039062 114.48957824707031 101.12930297851562 109.01483154296875 101.21843719482422 106.82295227050781 C 100.80908966064453 104.94685363769531 101.50379180908203 105.1871566772461 106.19383239746094 106.20418548583984 C 109.93289947509766 106.65137481689453 114.1976547241211 106.68180084228516 117.81367492675781 106.18538665771484 C 123.48395538330078 105.08766174316406 124.00335693359375 105.89371490478516 121.16866302490234 110.47158813476562 C 118.22252655029297 115.73030090332031 113.00466918945312 117.7466049194336 107.90653991699219 115.62846374511719" stroke-width="1.0" fill="rgb(251, 253, 253)" opacity="0.9903095"/>
    <path d="M 67.99205017089844 108.12147521972656 C 69.35562133789062 107.02776336669922 84.48877716064453 104.37995910644531 91.25140380859375 104.0748062133789 C 97.5103530883789 103.74982452392578 98.24543762207031 103.98030090332031 97.82020568847656 107.093017578125 C 98.27251434326172 108.79881286621094 96.1773910522461 108.66011810302734 82.35012817382812 108.44744873046875 C 74.06119537353516 108.80142211914062 67.9709243774414 108.87895965576172 67.99205017089844 108.12147521972656" stroke-width="1.0" fill="rgb(249, 251, 251)" opacity="0.98345417"/>
    <path d="M 126.35328674316406 106.1537094116211 C 126.33639526367188 104.21109008789062 127.0551528930664 103.9827880859375 133.42266845703125 104.20346069335938 C 140.5418701171875 104.58434295654297 154.07278442382812 107.01437377929688 155.625244140625 107.98768615722656 C 155.75831604003906 108.65218353271484 149.45346069335938 108.87467193603516 141.03237915039062 108.36438751220703 C 126.55319213867188 108.5398178100586 125.8045425415039 108.70596313476562 126.35328674316406 106.1537094116211" stroke-width="1.0" fill="rgb(247, 250, 249)" opacity="0.9767608"/>
    <path d="M 103.42146301269531 102.580078125 L 100.53355407714844 101.49787139892578 L 100.53290557861328 93.34271240234375 C 101.24515533447266 88.77247619628906 101.84597778320312 83.76789855957031 102.18821716308594 81.87483978271484 L 102.68399047851562 80.0635986328125 L 121.27716064453125 80.23384094238281 L 122.30975341796875 84.6264877319336 C 122.72632598876953 87.03577423095703 123.1613540649414 91.96002197265625 123.40357971191406 95.6514892578125 L 123.1155776977539 101.6194839477539 L 119.45034790039062 102.86553192138672 C 115.78885650634766 104.0650405883789 107.43355560302734 104.02091979980469 103.42146301269531 102.580078125" stroke-width="1.0" fill="rgb(253, 255, 255)" opacity="0.9993368"/>
    <path d="M 103.796630859375 76.17426300048828 C 103.99050903320312 74.07940673828125 105.9429702758789 69.79073333740234 107.98397827148438 67.28251647949219 C 111.69548797607422 63.26106643676758 115.9925537109375 65.28104400634766 118.61396789550781 72.14646911621094 C 120.85763549804688 77.0841064453125 120.37848663330078 77.38829040527344 111.5450210571289 76.80514526367188 C 105.37442779541016 77.30179595947266 103.54661560058594 77.00358581542969 103.796630859375 76.17426300048828" stroke-width="1.0" fill="rgb(252, 253, 253)" opacity="0.9919762"/>
    <path d="M 102.10726928710938 59.51579284667969 C 95.1917953491211 55.89113235473633 84.50715637207031 44.68360900878906 87.14278411865234 44.44542694091797 C 90.0311050415039 43.84519958496094 95.90511322021484 46.083866119384766 99.88690185546875 49.47859191894531 C 103.43325805664062 52.754302978515625 108.74665832519531 61.12660217285156 107.72101593017578 62.225929260253906 C 107.93494415283203 62.221988677978516 105.03471374511719 61.09066390991211 102.10726928710938 59.51579284667969" stroke-width="1.0" fill="rgb(251, 252, 253)" opacity="0.9891933"/>
    <path d="M 115.75010681152344 61.41904830932617 C 115.70222473144531 59.84404754638672 121.14799499511719 51.77614212036133 124.31759643554688 48.795406341552734 C 128.37374877929688 45.90019989013672 134.01730346679688 43.877586364746094 136.49765014648438 44.37140655517578 C 139.15716552734375 44.68083953857422 129.71226501464844 54.98048782348633 122.55667877197266 59.14740753173828 C 116.6534423828125 62.476707458496094 115.72704315185547 62.72957229614258 115.75010681152344 61.41904830932617" stroke-width="1.0" fill="rgb(251, 253, 252)" opacity="0.9883783"/>
  </g>
</svg>
