<?xml version="1.0" ?>
<svg xmlns="http://www.w3.org/2000/svg" version="1.1" width="224" height="224">
  <defs/>
  <g>
    <path d="M 130.4821319580078 28.920684814453125 C 130.4821319580078 28.920684814453125 130.4821319580078 28.920684814453125 130.4821319580078 28.920684814453125 C 127.458251953125 28.0 125.19161987304688 28.21990203857422 122.39791107177734 29.698471069335938 C 117.76539611816406 32.77283477783203 113.13288879394531 35.848060607910156 108.50037384033203 38.92242431640625 C 105.58174133300781 41.4825439453125 106.02325439453125 45.00270080566406 109.30896759033203 46.98012161254883 C 114.82879638671875 49.26642990112305 120.34947204589844 51.552738189697266 125.86930084228516 53.839046478271484 C 117.75341796875 69.1715087890625 109.63754272460938 84.50483703613281 101.52165985107422 99.83729553222656 C 91.78944396972656 96.942626953125 82.05638122558594 94.04708862304688 72.32331848144531 91.15155792236328 C 69.0521469116211 90.52778625488281 66.68370056152344 91.28504180908203 64.38626098632812 93.69712829589844 C 57.53761291503906 102.45218658447266 50.68980407714844 111.20723724365234 43.841148376464844 119.96143341064453 C 42.0673828125 123.43710327148438 43.87366485595703 126.72795104980469 47.85331726074219 126.58076477050781 C 56.13005828857422 125.14328002929688 64.40765380859375 123.70663452148438 72.68440246582031 122.26998901367188 C 74.57026672363281 129.79290771484375 76.18488311767578 137.42446899414062 78.45921325683594 144.84385681152344 C 81.85273742675781 155.91603088378906 86.17721557617188 166.73492431640625 90.1397476196289 177.6094207763672 C 91.33937072753906 180.9019775390625 92.53814697265625 184.1953887939453 93.7343521118164 187.4905242919922 C 94.88691711425781 190.66586303710938 95.67070007324219 193.9404296875 99.0394058227539 195.39761352539062 C 100.26897430419922 195.92898559570312 100.62407684326172 195.86309814453125 101.94264221191406 196.0 C 114.0518569946289 196.0 126.16107177734375 196.0 138.27029418945312 196.0 C 141.06143188476562 195.43612670898438 141.98638916015625 193.20370483398438 140.3683624267578 190.8489532470703 C 133.1808624267578 183.94125366210938 125.99422454833984 177.0335693359375 118.80672454833984 170.12586975097656 C 121.13324737548828 162.54905700683594 123.45977783203125 154.97222900390625 125.78544616699219 147.39541625976562 C 128.95050048828125 147.39541625976562 132.11471557617188 147.39541625976562 135.27978515625 147.39541625976562 C 138.44227600097656 147.08311462402344 140.4419403076172 146.00755310058594 142.4390411376953 143.5347137451172 C 143.187744140625 142.3966827392578 143.93643188476562 141.2586669921875 144.68426513671875 140.12063598632812 C 150.58401489257812 140.28921508789062 156.48374938964844 140.45863342285156 162.38348388671875 140.627197265625 C 166.30494689941406 140.23788452148438 167.87078857421875 136.9718475341797 166.12527465820312 133.529541015625 C 162.91998291015625 129.16741943359375 159.71554565429688 124.80529022216797 156.51026916503906 120.44316101074219 C 156.93896484375 105.93897247314453 157.36764526367188 91.43477630615234 157.79632568359375 76.93058776855469 C 163.84579467773438 76.91004943847656 169.89442443847656 76.89037322998047 175.9430389404297 76.87068939208984 C 179.54449462890625 76.38211059570312 181.4500274658203 74.44662475585938 181.9326171875 70.84945678710938 C 181.9326171875 65.68814086914062 181.9326171875 60.52683639526367 181.9326171875 55.36553192138672 C 181.60659790039062 52.07896423339844 180.2255859375 50.0151252746582 177.3197784423828 48.446712493896484 C 161.70751953125 41.937747955322266 146.09524536132812 35.429649353027344 130.4821319580078 28.920684814453125" stroke-width="0.0" fill="rgb(0, 0, 0)" opacity="1.0"/>
    <path d="M 71.39492797851562 94.12153625488281 C 71.39492797851562 94.12153625488281 71.39492797851562 94.12153625488281 71.39492797851562 94.12153625488281 C 70.51446533203125 94.00173950195312 69.60319519042969 94.01885223388672 68.72956848144531 94.18228912353516 C 67.74128723144531 99.3530044555664 66.75386047363281 104.52457427978516 65.76557922363281 109.69529724121094 C 68.80999755859375 112.7499771118164 71.85527038574219 115.8046646118164 74.89968872070312 118.8593521118164 C 77.035400390625 127.38508605957031 79.17111206054688 135.90997314453125 81.30682373046875 144.43569946289062 C 88.53539276123047 137.95584106445312 95.76396179199219 131.47596740722656 102.9916763305664 124.99696350097656 C 102.9916763305664 117.82913970947266 102.9916763305664 110.66217803955078 102.9916763305664 103.49522399902344 C 92.45942687988281 100.37037658691406 81.92717742919922 97.24552154541016 71.39492797851562 94.12153625488281" stroke-width="0.0" fill="rgb(0, 0, 0)" opacity="1.0"/>
    <path d="M 155.10015869140625 42.49050521850586 C 149.28085327148438 42.93886947631836 143.4615478515625 43.38808822631836 137.64138793945312 43.837303161621094 C 135.08555603027344 46.692623138427734 132.5305633544922 49.54708480834961 129.9747314453125 52.402400970458984 C 126.17219543457031 59.579627990722656 122.36967468261719 66.7568588256836 118.56629180908203 73.9332275390625 C 126.1131591796875 75.51019287109375 133.6600341796875 77.08716583251953 141.2060546875 78.66413879394531 C 145.7487030029297 77.08716583251953 150.2913818359375 75.51019287109375 154.83319091796875 73.9332275390625 C 161.85125732421875 73.91354370117188 168.8684844970703 73.89386749267578 175.88656616210938 73.87333679199219 C 177.93756103515625 73.38646697998047 178.3705291748047 72.95008087158203 178.9095916748047 70.91361999511719 C 178.9095916748047 65.7523193359375 178.9095916748047 60.59015655517578 178.9095916748047 55.42884826660156 C 178.59812927246094 53.35987854003906 177.91873168945312 52.340797424316406 176.1235809326172 51.26694869995117 C 169.1157684326172 48.34147262573242 162.10797119140625 45.415985107421875 155.10015869140625 42.49050521850586" stroke-width="0.0" fill="rgb(0, 0, 0)" opacity="1.0"/>
    <path d="M 115.39266967773438 171.02857971191406 C 111.81945037841797 172.83572387695312 108.24539184570312 174.64288330078125 104.67218017578125 176.45001220703125 C 102.95487976074219 181.7208251953125 101.23757934570312 186.99166870117188 99.5211410522461 192.2616424560547 C 100.28096008300781 192.6389923095703 101.1083755493164 192.90252685546875 101.9460678100586 193.040283203125 C 114.05528259277344 193.040283203125 126.16364288330078 193.040283203125 138.27285766601562 193.040283203125 C 130.64642333984375 185.70306396484375 123.01911163330078 178.36581420898438 115.39266967773438 171.02857971191406" stroke-width="0.0" fill="rgb(0, 0, 0)" opacity="1.0"/>
    <path d="M 153.45643615722656 121.40235900878906 C 150.36154174804688 123.15901184082031 147.2675018310547 124.9165267944336 144.17259216308594 126.67404174804688 C 143.813232421875 130.1479949951172 143.453857421875 133.6219482421875 143.09361267089844 137.0959014892578 C 149.55209350585938 137.28585815429688 156.0114288330078 137.47496032714844 162.46990966796875 137.6640625 C 162.91827392578125 137.4022216796875 163.57284545898438 137.33892822265625 163.8149871826172 136.87942504882812 C 164.0562744140625 136.42079162597656 163.73797607421875 135.84579467773438 163.69947814941406 135.3289794921875 C 160.28541564941406 130.6879119873047 156.87049865722656 126.04684448242188 153.45643615722656 121.40577697753906 C 153.45643615722656 121.40577697753906 153.45643615722656 121.40235900878906 153.45643615722656 121.40235900878906" stroke-width="0.0" fill="rgb(0, 0, 0)" opacity="1.0"/>
    <path d="M 126.62141418457031 31.31908416748047 C 126.63082885742188 31.32935333251953 126.64109802246094 31.339622497558594 126.65135955810547 31.349029541015625 C 125.74351501464844 31.54412078857422 124.8536376953125 31.848731994628906 124.01509857177734 32.248321533203125 C 119.38258361816406 35.32269287109375 114.75006866455078 38.39704895019531 110.11756134033203 41.47141647338867 C 109.1994400024414 42.765167236328125 109.23452758789062 43.197269439697266 110.38794708251953 44.288230895996094 C 116.91658782958984 46.992958068847656 123.44608306884766 49.69767761230469 129.9747314453125 52.402400970458984 C 130.6036376953125 48.74876022338867 131.2325439453125 45.095115661621094 131.86228942871094 41.44147491455078 C 130.11505126953125 38.067626953125 128.3677978515625 34.69378662109375 126.62141418457031 31.31908416748047" stroke-width="0.0" fill="rgb(0, 0, 0)" opacity="1.0"/>
    <path d="M 68.7620849609375 94.17886352539062 C 68.7620849609375 94.17886352539062 68.7620849609375 94.17886352539062 68.7620849609375 94.17886352539062 C 68.00910949707031 94.56134033203125 67.30661010742188 95.06189727783203 66.69482421875 95.64545440673828 C 59.84616470336914 104.40991973876953 52.99751281738281 113.17523956298828 46.14970397949219 121.93970489501953 C 46.12061309814453 122.37523651123047 45.83740234375 122.87408447265625 46.06328582763672 123.24714660644531 C 46.2891845703125 123.61849975585938 46.86076354980469 123.59368133544922 47.258636474609375 123.76652526855469 C 56.48258972167969 122.1296615600586 65.7056884765625 120.4927978515625 74.92963409423828 118.85592651367188 C 72.87349700927734 110.63052368164062 70.81822204589844 102.40425872802734 68.7620849609375 94.17886352539062" stroke-width="0.0" fill="rgb(0, 0, 0)" opacity="1.0"/>
    <path d="M 118.59623718261719 73.96659851074219 C 120.5428466796875 81.8428955078125 122.48946380615234 89.71919250488281 124.43607330322266 97.59634399414062 C 134.1092529296875 105.53253936767578 143.7832794189453 113.46873474121094 153.45643615722656 121.40577697753906 C 153.91506958007812 105.59243774414062 154.37457275390625 89.77994537353516 154.83319091796875 73.96659851074219 C 142.75477600097656 73.96659851074219 130.67550659179688 73.96659851074219 118.59623718261719 73.96659851074219" stroke-width="0.0" fill="rgb(0, 0, 0)" opacity="1.0"/>
    <path d="M 155.10015869140625 45.66069793701172 C 161.73831176757812 48.42618179321289 168.37649536132812 51.1907958984375 175.0137939453125 53.95627212524414 C 175.44760131835938 54.313079833984375 175.7838897705078 54.82390594482422 175.9430389404297 55.36211013793945 C 175.9430389404297 60.52427291870117 175.9430389404297 65.68557739257812 175.9430389404297 70.84687805175781 C 158.49282836914062 70.86656188964844 141.04347229003906 70.88710021972656 123.59325408935547 70.90678405761719 C 126.44857025146484 65.51615905761719 129.30389404296875 60.12553787231445 132.15921020507812 54.73491668701172 C 139.8061981201172 51.71017837524414 147.4531707763672 48.68544006347656 155.10015869140625 45.66069793701172" stroke-width="0.0" fill="rgb(153, 245, 210)" opacity="1.0"/>
    <path d="M 109.36972045898438 137.66748046875 C 100.01570129394531 139.92384338378906 90.66084289550781 142.17935180664062 81.30682373046875 144.43569946289062 C 86.83777618408203 159.6885986328125 92.36872863769531 174.94149780273438 97.89967346191406 190.1935272216797 C 98.31637573242188 190.95677185058594 98.8563003540039 191.66439819335938 99.4877700805664 192.2616424560547 C 104.77827453613281 185.18368530273438 110.06878662109375 178.105712890625 115.35929870605469 171.02857971191406 C 118.08455657958984 162.1640167236328 120.8089599609375 153.30029296875 123.53336334228516 144.43569946289062 C 118.8127212524414 142.17935180664062 114.09121704101562 139.92384338378906 109.36972045898438 137.66748046875" stroke-width="0.0" fill="rgb(0, 0, 0)" opacity="1.0"/>
    <path d="M 126.68131256103516 31.31908416748047 C 126.67105102539062 31.32935333251953 126.66077423095703 31.339622497558594 126.65135955810547 31.349029541015625 C 125.74351501464844 31.54412078857422 124.8536376953125 31.848731994628906 124.01509857177734 32.248321533203125 C 122.39791107177734 33.325592041015625 120.78157806396484 34.403717041015625 119.16439056396484 35.481842041015625 C 122.77782440185547 41.122314453125 126.39124298095703 46.76192855834961 130.00552368164062 52.402400970458984 C 130.44363403320312 48.379112243652344 130.88258361816406 44.355831146240234 131.321533203125 40.332550048828125 C 129.77450561523438 37.328346252441406 128.2274932861328 34.32328796386719 126.68131256103516 31.31908416748047" stroke-width="0.0" fill="rgb(0, 0, 0)" opacity="1.0"/>
    <path d="M 68.7620849609375 94.27127075195312 C 68.2435531616211 102.92620849609375 67.72502899169922 111.58116149902344 67.20564270019531 120.23609924316406 C 69.7717514038086 119.7774658203125 72.33700561523438 119.31798553466797 74.90310668945312 118.8593521118164 C 72.85638427734375 110.66389465332031 70.80966186523438 102.46758270263672 68.7620849609375 94.27127075195312" stroke-width="0.0" fill="rgb(0, 0, 0)" opacity="1.0"/>
    <path d="M 118.59623718261719 73.96317291259766 C 106.16871643066406 97.45259857177734 93.74119567871094 120.94115447998047 81.31367492675781 144.42971801757812 C 99.29267883300781 144.42971801757812 117.27082824707031 144.42971801757812 135.2498321533203 144.42971801757812 C 137.35560607910156 144.1636199951172 138.53468322753906 143.52017211914062 139.9199981689453 141.9141082763672 C 144.43185424804688 135.0868377685547 148.944580078125 128.2595672607422 153.45643615722656 121.43230438232422 C 141.836669921875 105.60954284667969 130.2168731689453 89.78593444824219 118.59623718261719 73.96317291259766" stroke-width="0.0" fill="rgb(0, 0, 0)" opacity="1.0"/>
    <path d="M 115.42261505126953 171.02857971191406 C 110.1321029663086 178.105712890625 104.84159851074219 185.18368530273438 99.55108642578125 192.2616424560547 C 106.7882080078125 187.06011962890625 114.02532958984375 181.85861206054688 121.26245880126953 176.65707397460938 C 119.31584167480469 174.7806396484375 117.36922454833984 172.905029296875 115.42261505126953 171.02857971191406" stroke-width="0.0" fill="rgb(0, 0, 0)" opacity="1.0"/>
    <path d="M 126.65135955810547 31.349029541015625 C 127.76884460449219 38.37651824951172 128.88719177246094 45.40486145019531 130.00552368164062 52.432350158691406 C 138.37982177734375 49.1286735534668 146.75497436523438 45.824134826660156 155.13009643554688 42.52044677734375 C 146.52565002441406 38.936973571777344 137.9211883544922 35.353492736816406 129.3167266845703 31.77001190185547 C 128.46022033691406 31.529579162597656 127.57034301757812 31.384971618652344 126.68131256103516 31.349029541015625 C 126.68131256103516 31.349029541015625 126.68131256103516 31.349029541015625 126.68131256103516 31.349029541015625 C 126.68131256103516 31.349029541015625 126.65135955810547 31.349029541015625 126.65135955810547 31.349029541015625" stroke-width="0.0" fill="rgb(0, 0, 0)" opacity="1.0"/>
    <path d="M 124.3154296875 35.629005432128906 C 124.9443359375 39.612083435058594 125.5740966796875 43.59515380859375 126.20299530029297 47.579078674316406 C 122.12067413330078 45.891727447509766 118.0383529663086 44.204376220703125 113.95602416992188 42.51788330078125 C 117.4094467163086 40.22130584716797 120.86200714111328 37.92473602294922 124.3154296875 35.629005432128906" stroke-width="0.0" fill="rgb(57, 235, 186)" opacity="1.0"/>
    <path d="M 67.11152648925781 99.86724853515625 C 68.4908447265625 105.3776626586914 69.86929321289062 110.88722229003906 71.24775695800781 116.39763641357422 C 64.64895629882812 117.56559753417969 58.050148010253906 118.73357391357422 51.45133972167969 119.90153503417969 C 56.671688079833984 113.22401428222656 61.892032623291016 106.5456314086914 67.11152648925781 99.86724853515625" stroke-width="0.0" fill="rgb(107, 242, 191)" opacity="1.0"/>
    <path d="M 118.59281158447266 73.96659851074219 C 130.333251953125 85.85676574707031 142.07366943359375 97.74608612060547 153.81411743164062 109.6353988647461 C 153.69346618652344 113.5594253540039 153.57366943359375 117.48260498046875 153.45301818847656 121.40577697753906 C 141.83323669433594 105.59243774414062 130.2134552001953 89.77994537353516 118.59281158447266 73.96659851074219" stroke-width="0.0" fill="rgb(0, 0, 0)" opacity="1.0"/>
    <path d="M 153.42308044433594 121.40235900878906 C 149.97991943359375 126.63296508789062 146.53677368164062 131.86358642578125 143.09361267089844 137.09335327148438 C 145.20965576171875 137.15322875976562 147.32568359375 137.213134765625 149.44085693359375 137.2730255126953 C 150.76882934570312 131.98251342773438 152.095947265625 126.69287109375 153.42308044433594 121.40235900878906" stroke-width="0.0" fill="rgb(0, 0, 0)" opacity="1.0"/>
    <path d="M 94.21949768066406 100.92056274414062 C 97.12445068359375 101.78905487060547 100.0293960571289 102.65753936767578 102.93519592285156 103.52603149414062 C 95.71775817871094 117.1719970703125 88.50116729736328 130.81710815429688 81.28372192382812 144.4630889892578 C 85.59536743164062 129.94862365722656 89.90701293945312 115.43416595458984 94.21949768066406 100.92056274414062" stroke-width="0.0" fill="rgb(0, 0, 0)" opacity="1.0"/>
    <path d="M 81.31024932861328 144.4331512451172 C 95.3857650756836 144.4331512451172 109.46127319335938 144.4331512451172 123.53678131103516 144.4331512451172 C 110.48890686035156 147.2781982421875 97.44104766845703 150.1232452392578 84.39317321777344 152.96829223632812 C 83.36553192138672 150.1232452392578 82.337890625 147.2781982421875 81.31024932861328 144.4331512451172" stroke-width="0.0" fill="rgb(0, 0, 0)" opacity="1.0"/>
    <path d="M 118.59623718261719 73.96659851074219 C 130.6053466796875 76.64137268066406 142.6144561767578 79.31700134277344 154.62269592285156 81.99177551269531 C 154.62269592285156 79.3255615234375 154.62269592285156 76.65933990478516 154.62269592285156 73.99312591552734 C 142.6144561767578 73.99312591552734 130.6053466796875 73.99312591552734 118.59623718261719 73.99312591552734 C 118.59623718261719 73.99312591552734 118.59623718261719 73.96659851074219 118.59623718261719 73.96659851074219" stroke-width="0.0" fill="rgb(0, 0, 0)" opacity="1.0"/>
    <path d="M 119.0137939453125 79.53263092041016 C 129.28506469726562 93.50802612304688 139.5572052001953 107.48342895507812 149.82847595214844 121.45883178710938 C 145.70591735839844 127.71794128417969 141.58338928222656 133.97705078125 137.46084594726562 140.2370147705078 C 136.8593292236328 140.78890991210938 136.09779357910156 141.2021942138672 135.30715942382812 141.4058380126953 C 118.96502685546875 141.4066925048828 102.62374114990234 141.40841674804688 86.28160095214844 141.4092559814453 C 97.18263244628906 120.79483795166016 108.08367156982422 100.180419921875 118.98384857177734 79.56600189208984 C 118.98384857177734 79.56600189208984 119.0137939453125 79.53263092041016 119.0137939453125 79.53263092041016" stroke-width="0.0" fill="rgb(153, 245, 210)" opacity="1.0"/>
    <path d="M 115.78028106689453 175.51478576660156 C 120.8115234375 180.34666442871094 125.84191131591797 185.17852783203125 130.8731689453125 190.01040649414062 C 122.22848510742188 190.01040649414062 113.58381652832031 190.01040649414062 104.93914031982422 190.01040649414062 C 108.55342864990234 185.17852783203125 112.16685485839844 180.34666442871094 115.78028106689453 175.51478576660156" stroke-width="0.0" fill="rgb(57, 236, 187)" opacity="1.0"/>
    <path d="M 130.3358154296875 35.35777282714844 C 135.9454803466797 37.694557189941406 141.55599975585938 40.030494689941406 147.16651916503906 42.367286682128906 C 142.23538208007812 44.313907623291016 137.30426025390625 46.26051330566406 132.3731231689453 48.206275939941406 C 131.69374084472656 43.92372131347656 131.01434326171875 39.64031982421875 130.3358154296875 35.35777282714844" stroke-width="0.0" fill="rgb(108, 243, 191)" opacity="1.0"/>
    <path d="M 153.60704040527344 126.6107177734375 C 155.55364990234375 129.2563934326172 157.50027465820312 131.90208435058594 159.44686889648438 134.54776000976562 C 155.82318115234375 134.44764709472656 152.19949340820312 134.34669494628906 148.57579040527344 134.24658203125 C 150.2528839111328 131.7010040283203 151.92994689941406 129.15542602539062 153.60704040527344 126.6107177734375" stroke-width="0.0" fill="rgb(106, 242, 190)" opacity="1.0"/>
    <path d="M 72.68097686767578 97.62287139892578 C 81.32650756835938 100.18811798095703 89.97289276123047 102.75422668457031 98.61842346191406 105.3194808959961 C 93.18759155273438 115.58133697509766 87.75675201416016 125.84234619140625 82.32676696777344 136.1042022705078 C 79.11122131347656 123.27709197998047 75.89653015136719 110.44998168945312 72.68097686767578 97.62287139892578" stroke-width="0.0" fill="rgb(108, 243, 191)" opacity="1.0"/>
    <path d="M 85.59365844726562 147.36546325683594 C 96.89341735839844 147.36546325683594 108.19404602050781 147.36546325683594 119.49467468261719 147.36546325683594 C 117.21863555908203 154.7737274169922 114.94258880615234 162.18112182617188 112.66655731201172 169.58851623535156 C 108.4036865234375 175.30770874023438 104.14081573486328 181.02691650390625 99.87794494628906 186.74609375 C 95.1162338256836 173.6195068359375 90.3553695678711 160.492919921875 85.59365844726562 147.36546325683594" stroke-width="0.0" fill="rgb(108, 243, 191)" opacity="1.0"/>
    <path d="M 124.52592468261719 76.897216796875 C 133.61041259765625 76.897216796875 142.69488525390625 76.897216796875 151.77935791015625 76.897216796875 C 151.4302520751953 88.78652954101562 151.08029174804688 100.67584228515625 150.73118591308594 112.5660171508789 C 141.9958038330078 100.67584228515625 133.26043701171875 88.78652954101562 124.52592468261719 76.897216796875" stroke-width="0.0" fill="rgb(108, 243, 191)" opacity="1.0"/>
  </g>
</svg>
