<?xml version="1.0" ?>
<svg xmlns="http://www.w3.org/2000/svg" version="1.1" width="224" height="224">
  <defs/>
  <g>
    <path d="M 62.137596130371094 56.39471435546875 C 62.137596130371094 56.39471435546875 62.137596130371094 56.39471435546875 62.137596130371094 56.39471435546875 C 59.03215408325195 56.6938591003418 57.01443099975586 57.732723236083984 54.965843200683594 60.08644485473633 C 46.74666213989258 71.61679077148438 38.52833557128906 83.14627838134766 30.30915069580078 94.67662048339844 C 28.857994079589844 96.9977798461914 28.169708251953125 99.14321899414062 27.99999237060547 101.87494659423828 C 27.99999237060547 121.78475952148438 27.99999237060547 141.694580078125 27.99999237060547 161.60440063476562 C 28.485992431640625 165.1967010498047 30.40857696533203 167.11842346191406 34.000022888183594 167.60528564453125 C 86.00057983398438 167.60528564453125 138.00027465820312 167.60528564453125 190.00082397460938 167.60528564453125 C 193.59226989746094 167.11842346191406 195.51400756835938 165.1958465576172 196.0 161.60440063476562 C 196.0 141.68429565429688 196.0 121.76504516601562 196.0 101.8449478149414 C 195.82858276367188 99.11579132080078 195.12913513183594 96.97035217285156 193.69085693359375 94.64576721191406 C 185.47080993652344 83.11627960205078 177.25076293945312 71.58592987060547 169.0307159423828 60.05559158325195 C 166.96926879882812 57.72157669067383 164.9309844970703 56.69300079345703 161.8323974609375 56.39471435546875 C 128.60079956054688 56.39471435546875 95.36919403076172 56.39471435546875 62.137596130371094 56.39471435546875" stroke-width="0.0" fill="rgb(0, 0, 0)" opacity="1.0"/>
    <path d="M 59.558441162109375 59.99559020996094 C 59.558441162109375 59.99559020996094 59.558441162109375 59.99559020996094 59.558441162109375 59.99559020996094 C 58.77072525024414 60.51587677001953 58.04214859008789 61.136451721191406 57.399288177490234 61.826454162597656 C 49.17924499511719 73.35679626464844 40.958343505859375 84.88629150390625 32.738304138183594 96.41663360595703 C 32.27287292480469 97.19664001464844 31.859725952148438 98.01007080078125 31.50743865966797 98.84664154052734 C 59.73758316040039 115.29701232910156 87.96772766113281 131.74737548828125 116.19873809814453 148.19775390625 C 141.62857055664062 131.74737548828125 167.05926513671875 115.29701232910156 192.489990234375 98.84664154052734 C 192.1402587890625 98.00835418701172 191.72711181640625 97.19406127929688 191.25827026367188 96.41663360595703 C 183.03822326660156 84.88629150390625 174.81732177734375 73.35679626464844 166.5972900390625 61.826454162597656 C 165.9544219970703 61.136451721191406 165.22584533691406 60.5167350769043 164.43898010253906 59.99559020996094 C 129.478515625 59.99559020996094 94.51890563964844 59.99559020996094 59.558441162109375 59.99559020996094" stroke-width="0.0" fill="rgb(0, 0, 0)" opacity="1.0"/>
    <path d="M 59.13929748535156 98.816650390625 C 55.71928024291992 109.33641052246094 52.299259185791016 119.85704040527344 48.879241943359375 130.37680053710938 C 52.299259185791016 141.77772521972656 55.71928024291992 153.1786346435547 59.13929748535156 164.57870483398438 C 70.92935180664062 158.76809692382812 82.71941375732422 152.95750427246094 94.50947570800781 147.1468963623047 C 100.32951354980469 131.03680419921875 106.148681640625 114.92672729492188 111.96871185302734 98.816650390625 C 94.3586196899414 98.816650390625 76.7493896484375 98.816650390625 59.13929748535156 98.816650390625" stroke-width="0.0" fill="rgb(0, 0, 0)" opacity="1.0"/>
    <path d="M 111.96871185302734 64.79560852050781 C 118.89788818359375 75.15509033203125 125.82792663574219 85.51457214355469 132.75709533691406 95.87406158447266 C 118.89788818359375 95.87406158447266 105.0386734008789 95.87406158447266 91.17945861816406 95.87406158447266 C 98.1094970703125 85.51457214355469 105.0386734008789 75.15509033203125 111.96871185302734 64.79560852050781" stroke-width="0.0" fill="rgb(239, 243, 246)" opacity="1.0"/>
    <path d="M 164.9207000732422 64.67132568359375 C 172.3410186767578 75.07109069824219 179.76133728027344 85.47086334228516 187.18167114257812 95.8706283569336 C 172.8021697998047 95.8706283569336 158.42181396484375 95.8706283569336 144.04144287109375 95.8706283569336 C 151.00148010253906 85.47086334228516 157.96151733398438 75.07109069824219 164.9207000732422 64.67132568359375" stroke-width="0.0" fill="rgb(239, 243, 245)" opacity="1.0"/>
    <path d="M 59.07929611206055 64.64476013183594 C 66.0384750366211 75.04452514648438 72.9985122680664 85.44429016113281 79.95854949951172 95.84405517578125 C 65.57818603515625 95.84405517578125 51.19782257080078 95.84405517578125 36.818328857421875 95.84405517578125 C 44.2386474609375 85.44429016113281 51.65897750854492 75.04452514648438 59.07929611206055 64.64476013183594" stroke-width="0.0" fill="rgb(239, 243, 245)" opacity="1.0"/>
    <path d="M 31.510009765625 98.84664154052734 C 31.510009765625 98.84664154052734 31.510009765625 98.84664154052734 31.510009765625 98.84664154052734 C 31.258865356445312 99.82807922363281 31.088287353515625 100.8352279663086 31.001724243164062 101.8449478149414 C 31.001724243164062 121.75476837158203 31.001724243164062 141.66458129882812 31.001724243164062 161.57440185546875 C 31.54686737060547 163.57669067382812 31.997726440429688 164.02841186523438 34.000022888183594 164.57269287109375 C 42.38035583496094 164.5735626220703 50.75982666015625 164.57440185546875 59.13929748535156 164.5752716064453 C 59.13929748535156 142.6657257080078 59.13929748535156 120.75618743896484 59.13929748535156 98.84664154052734 C 49.92924880981445 98.84664154052734 40.720054626464844 98.84664154052734 31.510009765625 98.84664154052734" stroke-width="0.0" fill="rgb(0, 0, 0)" opacity="1.0"/>
    <path d="M 111.99871063232422 98.84321594238281 C 109.6578369140625 114.00272369384766 107.31783294677734 129.1630859375 104.97695922851562 144.32260131835938 C 107.31783294677734 151.0726318359375 109.6578369140625 157.82266235351562 111.99871063232422 164.57269287109375 C 129.61822509765625 164.57269287109375 147.2377471923828 164.57269287109375 164.85726928710938 164.57269287109375 C 158.60781860351562 152.92320251464844 152.3592071533203 141.2745819091797 146.1097412109375 129.62509155273438 C 134.73968505859375 119.36418151855469 123.3687744140625 109.103271484375 111.99871063232422 98.84321594238281" stroke-width="0.0" fill="rgb(0, 0, 0)" opacity="1.0"/>
    <path d="M 62.137596130371094 59.3672981262207 C 62.137596130371094 59.3672981262207 62.137596130371094 59.3672981262207 62.137596130371094 59.3672981262207 C 61.2590217590332 59.47101593017578 60.385589599609375 59.6827278137207 59.558441162109375 59.99559020996094 C 68.22763061523438 72.94622802734375 76.89767456054688 85.89600372314453 85.56686401367188 98.84664154052734 C 94.37747955322266 85.6868667602539 103.18809509277344 72.52708435058594 111.99871063232422 59.3672981262207 C 95.37862396240234 59.3672981262207 78.75768280029297 59.3672981262207 62.137596130371094 59.3672981262207" stroke-width="0.0" fill="rgb(0, 0, 0)" opacity="1.0"/>
    <path d="M 111.99871063232422 98.84664154052734 C 94.37919616699219 120.75618743896484 76.75881958007812 142.6657257080078 59.13929748535156 164.5752716064453 C 76.75881958007812 164.5752716064453 94.37919616699219 164.5752716064453 111.99871063232422 164.5752716064453 C 111.99871063232422 142.6657257080078 111.99871063232422 120.75618743896484 111.99871063232422 98.84664154052734" stroke-width="0.0" fill="rgb(0, 0, 0)" opacity="1.0"/>
    <path d="M 164.83070373535156 98.84664154052734 C 161.33010864257812 109.6467056274414 157.82952880859375 120.44676208496094 154.3289337158203 131.24766540527344 C 157.8397979736328 142.35801696777344 161.35067749023438 153.46835327148438 164.86070251464844 164.57870483398438 C 173.24102783203125 164.57870483398438 181.62049865722656 164.57870483398438 190.00082397460938 164.57870483398438 C 192.0031280517578 164.034423828125 192.4539794921875 163.58270263671875 192.99911499023438 161.5803985595703 C 192.99911499023438 141.6688690185547 192.99911499023438 121.75647735595703 192.99911499023438 101.8449478149414 C 192.91171264648438 100.8352279663086 192.74111938476562 99.82807922363281 192.489990234375 98.84664154052734 C 183.2705078125 98.84664154052734 174.0501708984375 98.84664154052734 164.83070373535156 98.84664154052734" stroke-width="0.0" fill="rgb(0, 0, 0)" opacity="1.0"/>
    <path d="M 115.00044250488281 107.36669158935547 C 129.52993774414062 125.44564056396484 144.060302734375 143.52545166015625 158.58981323242188 161.60440063476562 C 144.060302734375 161.60440063476562 129.52993774414062 161.60440063476562 115.00044250488281 161.60440063476562 C 115.00044250488281 143.52545166015625 115.00044250488281 125.44564056396484 115.00044250488281 107.36669158935547" stroke-width="0.0" fill="rgb(9, 206, 250)" opacity="1.0"/>
    <path d="M 64.75189208984375 62.39560317993164 C 78.62225341796875 62.39560317993164 92.49260711669922 62.39560317993164 106.36296844482422 62.39560317993164 C 99.42350769042969 72.75508117675781 92.48403930664062 83.11542510986328 85.54371643066406 93.47489929199219 C 78.61282348632812 83.11542510986328 71.68278503417969 72.75508117675781 64.75189208984375 62.39560317993164" stroke-width="0.0" fill="rgb(225, 237, 241)" opacity="1.0"/>
    <path d="M 111.99871063232422 98.84664154052734 C 94.37919616699219 113.79615020751953 76.75881958007812 128.74652099609375 59.13929748535156 143.69688415527344 C 59.13929748535156 150.6663360595703 59.13929748535156 157.63665771484375 59.13929748535156 164.6061248779297 C 76.75881958007812 142.6965789794922 94.37919616699219 120.78618621826172 111.99871063232422 98.87664794921875 C 111.99871063232422 98.87664794921875 111.99871063232422 98.84664154052734 111.99871063232422 98.84664154052734" stroke-width="0.0" fill="rgb(0, 0, 0)" opacity="1.0"/>
    <path d="M 109.00041198730469 107.39325714111328 C 109.00041198730469 125.46363830566406 109.00041198730469 143.53402709960938 109.00041198730469 161.60440063476562 C 94.47090911865234 161.60440063476562 79.94054412841797 161.60440063476562 65.41104125976562 161.60440063476562 C 79.94054412841797 143.53402709960938 94.47090911865234 125.46363830566406 109.00041198730469 107.39325714111328" stroke-width="0.0" fill="rgb(97, 216, 249)" opacity="1.0"/>
    <path d="M 111.99871063232422 98.84664154052734 C 129.61822509765625 120.75618743896484 147.2377471923828 142.6657257080078 164.85726928710938 164.5752716064453 C 164.85899353027344 142.6657257080078 164.85983276367188 120.75618743896484 164.86070251464844 98.84664154052734 C 147.24032592773438 98.84664154052734 129.61907958984375 98.84664154052734 111.99871063232422 98.84664154052734" stroke-width="0.0" fill="rgb(0, 0, 0)" opacity="1.0"/>
    <path d="M 167.8590087890625 101.8449478149414 C 175.23989868164062 101.8449478149414 182.61993408203125 101.8449478149414 190.00082397460938 101.8449478149414 C 190.00082397460938 121.75476837158203 190.00082397460938 141.66458129882812 190.00082397460938 161.57440185546875 C 182.61993408203125 161.57440185546875 175.23989868164062 161.57440185546875 167.8590087890625 161.57440185546875 C 167.8590087890625 141.66458129882812 167.8590087890625 121.75476837158203 167.8590087890625 101.8449478149414" stroke-width="0.0" fill="rgb(10, 207, 251)" opacity="1.0"/>
    <path d="M 59.13929748535156 143.69688415527344 C 50.928680419921875 150.65606689453125 42.71892547607422 157.6160888671875 34.50831604003906 164.5752716064453 C 42.71892547607422 164.5752716064453 50.928680419921875 164.5752716064453 59.13929748535156 164.5752716064453 C 59.13929748535156 157.6160888671875 59.13929748535156 150.65606689453125 59.13929748535156 143.69688415527344" stroke-width="0.0" fill="rgb(0, 0, 0)" opacity="1.0"/>
    <path d="M 62.137596130371094 101.8449478149414 C 76.66709899902344 101.8449478149414 91.19660949707031 101.8449478149414 105.72696685791016 101.8449478149414 C 91.19831848144531 119.92475891113281 76.66967010498047 138.0054168701172 62.14102554321289 156.08523559570312 C 62.14017105102539 138.0054168701172 62.13845443725586 119.92475891113281 62.137596130371094 101.8449478149414" stroke-width="0.0" fill="rgb(9, 206, 250)" opacity="1.0"/>
    <path d="M 111.99871063232422 59.3672981262207 C 120.809326171875 72.52708435058594 129.61907958984375 85.6868667602539 138.42971801757812 98.84664154052734 C 147.09974670410156 85.89600372314453 155.76893615722656 72.94622802734375 164.43898010253906 59.99559020996094 C 163.60841369628906 59.6904411315918 162.737548828125 59.47787094116211 161.85897827148438 59.3672981262207 C 145.2388916015625 59.3672981262207 128.61880493164062 59.3672981262207 111.99871063232422 59.3672981262207" stroke-width="0.0" fill="rgb(0, 0, 0)" opacity="1.0"/>
    <path d="M 118.27302551269531 101.87151336669922 C 132.8033905029297 101.87151336669922 147.3328857421875 101.87151336669922 161.86239624023438 101.87151336669922 C 161.86239624023438 119.94189453125 161.86239624023438 138.0114288330078 161.86239624023438 156.08180236816406 C 147.3328857421875 138.0114288330078 132.8033905029297 119.94189453125 118.27302551269531 101.87151336669922" stroke-width="0.0" fill="rgb(97, 216, 249)" opacity="1.0"/>
    <path d="M 34.000022888183594 101.8449478149414 C 41.38092041015625 101.8449478149414 48.760955810546875 101.8449478149414 56.140995025634766 101.8449478149414 C 56.140995025634766 121.75476837158203 56.140995025634766 141.66458129882812 56.140995025634766 161.57440185546875 C 48.760955810546875 161.57525634765625 41.38092041015625 161.57611083984375 34.000022888183594 161.57696533203125 C 34.000022888183594 141.66629028320312 34.000022888183594 121.75562286376953 34.000022888183594 101.8449478149414" stroke-width="0.0" fill="rgb(97, 216, 250)" opacity="1.0"/>
    <path d="M 117.5838851928711 62.39560317993164 C 131.4628143310547 62.39560317993164 145.34259033203125 62.39560317993164 159.22152709960938 62.39560317993164 C 152.2820587158203 72.75508117675781 145.34259033203125 83.11542510986328 138.40313720703125 93.47489929199219 C 131.4628143310547 83.11542510986328 124.52334594726562 72.75508117675781 117.5838851928711 62.39560317993164" stroke-width="0.0" fill="rgb(225, 237, 241)" opacity="1.0"/>
  </g>
</svg>
