<?xml version="1.0" ?>
<svg xmlns="http://www.w3.org/2000/svg" version="1.1" width="224" height="224">
  <defs/>
  <g>
    <path d="M 147.18161010742188 37.440582275390625 C 147.18161010742188 37.440582275390625 147.18161010742188 37.440582275390625 147.18161010742188 37.440582275390625 C 146.7221221923828 37.55096435546875 146.2634735107422 37.660484313964844 145.80484008789062 37.7708740234375 C 140.0941162109375 40.69639587402344 134.38339233398438 43.621925354003906 128.67266845703125 46.547447204589844 C 127.99584197998047 47.11561584472656 127.44050598144531 47.86175537109375 127.08625793457031 48.67207336425781 C 125.3492660522461 57.9457893371582 123.61225128173828 67.22036743164062 121.87439727783203 76.49409484863281 C 121.84530639648438 77.05540466308594 121.90691375732422 77.62870788574219 122.05493927001953 78.17120361328125 C 125.36894226074219 86.28720092773438 128.68295288085938 94.40320587158203 131.9969482421875 102.51921081542969 C 101.49069213867188 107.07135772705078 70.98358917236328 111.6235122680664 40.47648620605469 116.176513671875 C 37.32078552246094 116.94148254394531 35.42548370361328 118.54842376708984 34.156524658203125 121.53726959228516 C 32.28004455566406 127.36692810058594 30.40357208251953 133.19659423828125 28.52709197998047 139.02626037597656 C 28.0 142.8990020751953 30.09296417236328 145.24951171875 34.00935363769531 145.10748291015625 C 38.9302978515625 144.07896423339844 43.851234436035156 143.0513153076172 48.772178649902344 142.02279663085938 C 52.644927978515625 144.81826782226562 56.517677307128906 147.6137237548828 60.39043045043945 150.40919494628906 C 59.242977142333984 160.34178161621094 58.09467315673828 170.2752227783203 56.94636535644531 180.2086639404297 C 57.000274658203125 183.93081665039062 58.86563491821289 186.02975463867188 62.54585266113281 186.55941772460938 C 72.22944641113281 186.55941772460938 81.91387939453125 186.55941772460938 91.59747314453125 186.55941772460938 C 92.14424133300781 186.44903564453125 92.72438049316406 186.44476318359375 93.23778533935547 186.2265625 C 96.356689453125 184.90284729003906 96.04094696044922 181.58799743652344 94.35015106201172 179.3701171875 C 90.42691040039062 175.8165283203125 86.50367736816406 172.262939453125 82.5804443359375 168.7093505859375 C 87.59209442138672 164.68600463867188 92.60287475585938 160.66265869140625 97.61451721191406 156.63931274414062 C 106.87797546386719 157.72772216796875 116.14228057861328 158.81527709960938 125.40573120117188 159.9036865234375 C 129.43934631347656 167.3804931640625 133.47296142578125 174.85646057128906 137.50572204589844 182.33328247070312 C 139.27780151367188 185.00979614257812 141.37762451171875 186.26678466796875 144.57525634765625 186.55599975585938 C 154.70806884765625 186.55599975585938 164.8408660888672 186.55599975585938 174.9728240966797 186.55599975585938 C 177.65020751953125 185.94676208496094 180.09999084472656 183.39944458007812 177.97193908691406 180.5902862548828 C 177.6382293701172 180.15048217773438 177.13082885742188 179.8749542236328 176.7098388671875 179.5172882080078 C 168.974609375 175.44345092773438 161.238525390625 171.36961364746094 153.50242614746094 167.29664611816406 C 159.01206970214844 156.804443359375 164.52256774902344 146.3114013671875 170.03219604492188 135.8192138671875 C 171.1197509765625 133.45758056640625 171.63658142089844 131.25936889648438 171.70932006835938 128.6598358154297 C 171.2600860595703 112.6177978515625 170.8117218017578 96.57574462890625 170.36248779296875 80.5328369140625 C 176.9014892578125 80.5328369140625 183.4405059814453 80.5328369140625 189.98037719726562 80.5328369140625 C 193.57675170898438 80.05024719238281 195.51226806640625 78.14466857910156 196.0 74.54316711425781 C 196.0 71.34811401367188 196.0 68.15304565429688 196.0 64.95884704589844 C 195.7047882080078 61.73468780517578 194.42898559570312 59.641727447509766 191.6874237060547 57.91926574707031 C 184.7471160888672 54.366539001464844 177.80679321289062 50.813804626464844 170.86734008789062 47.261932373046875 C 170.17510986328125 46.96159362792969 169.46490478515625 46.69976043701172 168.74270629882812 46.48326873779297 C 167.36509704589844 43.98814392089844 165.9874725341797 41.49217224121094 164.60984802246094 38.997039794921875 C 163.89964294433594 38.26458740234375 162.95840454101562 37.709259033203125 161.97439575195312 37.440582275390625 C 157.04318237304688 37.440582275390625 152.11196899414062 37.440582275390625 147.18161010742188 37.440582275390625" stroke-width="0.0" fill="rgb(0, 0, 0)" opacity="1.0"/>
    <path d="M 136.18971252441406 104.91764831542969 C 113.45805358886719 108.36084747314453 90.72639465332031 111.8040542602539 67.99474334716797 115.24726104736328 C 72.16697692871094 124.55093383789062 76.34007263183594 133.85545349121094 80.51315307617188 143.1591339111328 C 85.92353820800781 146.6331329345703 91.33477783203125 150.10800170898438 96.74516296386719 153.58285522460938 C 106.9378662109375 154.78079223632812 117.13057708740234 155.97872924804688 127.32328796386719 157.17752075195312 C 131.84548950195312 148.99134826660156 136.36769104003906 140.80517578125 140.889892578125 132.6190185546875 C 139.3231658935547 123.38551330566406 137.75643920898438 114.15115356445312 136.18971252441406 104.91764831542969" stroke-width="0.0" fill="rgb(0, 0, 0)" opacity="1.0"/>
    <path d="M 147.2081298828125 40.463653564453125 C 141.49742126464844 43.389183044433594 135.78668212890625 46.31471252441406 130.0768280029297 49.24022674560547 C 128.33895874023438 58.513954162597656 126.60195922851562 67.78767395019531 124.86495208740234 77.0614013671875 C 128.65899658203125 86.35565948486328 132.4530029296875 95.64991760253906 136.24703979492188 104.94416809082031 C 141.50767517089844 91.04814147949219 146.768310546875 77.1512451171875 152.02896118164062 63.25520706176758 C 150.42202758789062 55.65773010253906 148.81509399414062 48.060264587402344 147.2081298828125 40.463653564453125" stroke-width="0.0" fill="rgb(0, 0, 0)" opacity="1.0"/>
    <path d="M 38.40491485595703 120.3384780883789 C 38.40491485595703 120.3384780883789 38.40491485595703 120.3384780883789 38.40491485595703 120.3384780883789 C 37.85643005371094 120.96996307373047 37.390953063964844 121.68273162841797 37.02899932861328 122.43657684326172 C 35.16278839111328 128.2662353515625 33.29573059082031 134.09588623046875 31.429519653320312 139.92555236816406 C 31.496253967285156 141.601806640625 31.810287475585938 141.9295196533203 33.46771240234375 142.1699676513672 C 38.819053649902344 141.05247497558594 44.16954803466797 139.9341278076172 49.52088928222656 138.81576538085938 C 49.129844665527344 135.17233276367188 48.737953186035156 131.5288848876953 48.34691619873047 127.88545989990234 C 45.03291320800781 125.36980438232422 41.71891784667969 122.85414123535156 38.40491485595703 120.3384780883789" stroke-width="0.0" fill="rgb(0, 0, 0)" opacity="1.0"/>
    <path d="M 68.47306823730469 168.25157165527344 C 65.88638305664062 173.11346435546875 63.30055618286133 177.97537231445312 60.714725494384766 182.83811950683594 C 61.27775955200195 183.22744750976562 61.93319320678711 183.5021209716797 62.60232925415039 183.6458740234375 C 72.28591918945312 183.6458740234375 81.9703598022461 183.6458740234375 91.65393829345703 183.6458740234375 C 92.00562286376953 183.40286254882812 92.56351470947266 183.3181610107422 92.7098388671875 182.91683959960938 C 92.85700988769531 182.51126098632812 92.48479461669922 182.08428955078125 92.3727035522461 181.66842651367188 C 87.58010864257812 177.32591247558594 82.78837585449219 172.9825439453125 77.99663543701172 168.63919067382812 C 74.82211303710938 168.50997924804688 71.6475830078125 168.38076782226562 68.47306823730469 168.25157165527344" stroke-width="0.0" fill="rgb(0, 0, 0)" opacity="1.0"/>
    <path d="M 149.5133056640625 168.64260864257812 C 146.6382598876953 168.87193298339844 143.76321411132812 169.1012420654297 140.8873291015625 169.3314208984375 C 141.26724243164062 173.85362243652344 141.64715576171875 178.37582397460938 142.02706909179688 182.8980255126953 C 142.86221313476562 183.26766967773438 143.75808715820312 183.5192413330078 144.6625213623047 183.6458740234375 C 154.79534912109375 183.6458740234375 164.9281463623047 183.6458740234375 175.0601043701172 183.6458740234375 C 175.29969787597656 183.456787109375 175.7035675048828 183.3729248046875 175.77886962890625 183.0768585205078 C 175.85415649414062 182.7833709716797 175.54013061523438 182.51895141601562 175.4203338623047 182.24000549316406 C 166.7960662841797 177.70755004882812 158.1709442138672 173.17507934570312 149.5466766357422 168.64260864257812 C 149.5466766357422 168.64260864257812 149.5133056640625 168.64260864257812 149.5133056640625 168.64260864257812" stroke-width="0.0" fill="rgb(0, 0, 0)" opacity="1.0"/>
    <path d="M 166.82516479492188 49.24022674560547 C 164.89906311035156 55.24017333984375 162.97210693359375 61.240108489990234 161.04513549804688 67.24005126953125 C 163.14236450195312 70.70465087890625 165.23876953125 74.16838073730469 167.33599853515625 77.63298034667969 C 174.9026641845703 77.63298034667969 182.46932983398438 77.63298034667969 190.03683471679688 77.63298034667969 C 192.06478881835938 77.08792114257812 192.51486206054688 76.63784790039062 193.05992126464844 74.60990905761719 C 193.05992126464844 71.41485595703125 193.05992126464844 68.21978759765625 193.05992126464844 65.02472686767578 C 192.77328491210938 62.93775177001953 192.1221160888672 61.858760833740234 190.39366149902344 60.65226745605469 C 183.4362335205078 57.07899856567383 176.47879028320312 53.50572967529297 169.5213623046875 49.931617736816406 C 168.6622772216797 49.60731506347656 167.76382446289062 49.37457275390625 166.8551025390625 49.24365997314453 C 166.8551025390625 49.24365997314453 166.8551025390625 49.24365997314453 166.8551025390625 49.24365997314453 C 166.8551025390625 49.24365997314453 166.82516479492188 49.24022674560547 166.82516479492188 49.24022674560547" stroke-width="0.0" fill="rgb(0, 0, 0)" opacity="1.0"/>
    <path d="M 132.56167602539062 108.50545501708984 C 129.9861297607422 123.61911010742188 127.41056823730469 138.73275756835938 124.83500671386719 153.84725952148438 C 116.00965881347656 152.81875610351562 107.1843032836914 151.7910919189453 98.35895538330078 150.76258850097656 C 90.00335693359375 139.63291931152344 81.64862060546875 128.50241088867188 73.29302978515625 117.37188720703125 C 93.0495376586914 114.42667388916016 112.80517578125 111.4806137084961 132.56167602539062 108.53540802001953 C 132.56167602539062 108.53540802001953 132.56167602539062 108.50545501708984 132.56167602539062 108.50545501708984" stroke-width="0.0" fill="rgb(225, 237, 241)" opacity="1.0"/>
    <path d="M 147.18161010742188 40.463653564453125 C 146.1736297607422 46.36347961425781 145.16566467285156 52.2633056640625 144.15768432617188 58.16313552856445 C 151.70468139648438 55.1990966796875 159.25079345703125 52.234214782714844 166.7977752685547 49.270179748535156 C 165.1899871826172 46.334388732910156 163.58218383789062 43.398590087890625 161.97439575195312 40.463653564453125 C 157.04318237304688 40.463653564453125 152.11196899414062 40.463653564453125 147.18161010742188 40.463653564453125" stroke-width="0.0" fill="rgb(0, 0, 0)" opacity="1.0"/>
    <path d="M 143.22586059570312 45.82270050048828 C 140.48944091796875 61.91522979736328 137.7530059814453 78.00776672363281 135.0174560546875 94.09944152832031 C 132.65066528320312 88.31085205078125 130.2847442626953 82.52140808105469 127.91883087158203 76.73196411132812 C 129.51637268066406 68.22577667236328 131.11474609375 59.72044372558594 132.7122802734375 51.215118408203125 C 136.2170867919922 49.41735076904297 139.72105407714844 47.619598388671875 143.22586059570312 45.82270050048828" stroke-width="0.0" fill="rgb(156, 171, 184)" opacity="1.0"/>
    <path d="M 38.43571472167969 120.39495086669922 C 39.68413543701172 127.06317138671875 40.93255615234375 133.73138427734375 42.18096923828125 140.39959716796875 C 44.62647247314453 139.89132690429688 47.07196807861328 139.38221740722656 49.51746368408203 138.8730926513672 C 49.2470703125 136.36769104003906 48.97754669189453 133.8623046875 48.7080078125 131.35691833496094 C 45.28363037109375 127.7126235961914 41.86009979248047 124.0691909790039 38.43571472167969 120.42489624023438 C 38.43571472167969 120.42489624023438 38.43571472167969 120.39495086669922 38.43571472167969 120.39495086669922" stroke-width="0.0" fill="rgb(0, 0, 0)" opacity="1.0"/>
    <path d="M 77.87342834472656 172.5649871826172 C 80.82803344726562 175.24920654296875 83.78179931640625 177.93429565429688 86.7364273071289 180.619384765625 C 80.50801849365234 180.619384765625 74.27961730957031 180.619384765625 68.05207824707031 180.619384765625 C 71.32585144042969 177.93429565429688 74.59963989257812 175.24920654296875 77.87342834472656 172.5649871826172" stroke-width="0.0" fill="rgb(225, 237, 241)" opacity="1.0"/>
    <path d="M 149.48251342773438 168.64260864257812 C 147.17648315429688 168.82144165039062 144.87045288085938 169.00112915039062 142.56358337402344 169.18081665039062 C 142.06643676757812 170.835693359375 141.6368865966797 172.49139404296875 141.27835083007812 174.18218994140625 C 141.51795959472656 177.08718872070312 141.75668334960938 179.99217224121094 141.9962615966797 182.8980255126953 C 147.51617431640625 179.73291015625 153.0360870361328 176.5686492919922 158.55685424804688 173.40353393554688 C 155.53207397460938 171.8162841796875 152.5072784423828 170.2298583984375 149.48251342773438 168.64260864257812" stroke-width="0.0" fill="rgb(0, 0, 0)" opacity="1.0"/>
    <path d="M 149.6929931640625 43.43025207519531 C 153.1875457763672 43.43025207519531 156.68209838867188 43.43025207519531 160.1766357421875 43.43025207519531 C 160.87571716308594 44.688934326171875 161.5747833251953 45.94676971435547 162.27471923828125 47.20545959472656 C 157.52235412597656 49.220550537109375 152.7691192626953 51.23651123046875 148.01673889160156 53.25160217285156 C 148.57550048828125 49.977813720703125 149.13424682617188 46.70403289794922 149.6929931640625 43.43025207519531" stroke-width="0.0" fill="rgb(132, 151, 170)" opacity="1.0"/>
    <path d="M 67.99131774902344 115.2173080444336 C 58.12889862060547 116.93463897705078 48.26734161376953 118.6511001586914 38.40491485595703 120.3684310913086 C 42.109092712402344 126.52751159667969 45.81327819824219 132.68661499023438 49.51746368408203 138.845703125 C 54.218505859375 142.24014282226562 58.92039108276367 145.6345672607422 63.621429443359375 149.0290069580078 C 66.32618713378906 144.88671875 69.03181457519531 140.7435760498047 71.736572265625 136.60128784179688 C 70.4881591796875 129.47271728515625 69.23973846435547 122.34501647949219 67.99131774902344 115.2173080444336" stroke-width="0.0" fill="rgb(0, 0, 0)" opacity="1.0"/>
    <path d="M 38.76258850097656 126.77224731445312 C 40.75885772705078 130.10678100585938 42.7559814453125 133.44131469726562 44.75225830078125 136.77584838867188 C 41.46905517578125 137.4543914794922 38.18500518798828 138.1337890625 34.90095520019531 138.8123321533203 C 36.18788146972656 134.79925537109375 37.47566223144531 130.7861785888672 38.76258850097656 126.77224731445312" stroke-width="0.0" fill="rgb(214, 228, 234)" opacity="1.0"/>
    <path d="M 168.3516845703125 132.13812255859375 C 159.3876953125 133.93588256835938 150.42288208007812 135.7327880859375 141.4589080810547 137.52969360351562 C 136.7467498779297 144.07896423339844 132.0354461669922 150.62823486328125 127.32328796386719 157.17752075195312 C 131.60675048828125 165.11383056640625 135.88937377929688 173.05015563964844 140.17283630371094 180.98731994628906 C 140.68966674804688 181.70266723632812 141.3083038330078 182.35467529296875 141.99969482421875 182.90487670898438 C 150.47506713867188 166.77212524414062 158.95046997070312 150.6393585205078 167.42669677734375 134.50662231445312 C 167.7698211669922 133.73651123046875 168.07101440429688 132.9458770751953 168.3251495361328 132.1415557861328 C 168.3251495361328 132.1415557861328 168.3251495361328 132.1415557861328 168.3251495361328 132.1415557861328 C 168.3251495361328 132.1415557861328 168.3516845703125 132.13812255859375 168.3516845703125 132.13812255859375" stroke-width="0.0" fill="rgb(0, 0, 0)" opacity="1.0"/>
    <path d="M 150.73863220214844 172.6522674560547 C 155.78021240234375 175.30740356445312 160.82180786132812 177.96339416503906 165.8634033203125 180.619384765625 C 159.42449951171875 180.619384765625 152.985595703125 180.619384765625 146.5467071533203 180.619384765625 C 147.9440155029297 177.96339416503906 149.34130859375 175.30740356445312 150.73863220214844 172.6522674560547" stroke-width="0.0" fill="rgb(214, 228, 234)" opacity="1.0"/>
    <path d="M 68.02468872070312 115.24383544921875 C 66.56663513183594 126.51467895507812 65.10943603515625 137.78553771972656 63.65137481689453 149.05552673339844 C 62.43376541137695 159.5879364013672 61.21529006958008 170.12034606933594 59.9976806640625 180.65274047851562 C 60.068695068359375 181.41600036621094 60.31513595581055 182.18353271484375 60.714725494384766 182.83811950683594 C 72.73428344726562 173.0946502685547 84.75299072265625 163.35202026367188 96.77254486083984 153.60939025878906 C 87.18992614746094 140.82058715820312 77.60730743408203 128.0326385498047 68.02468872070312 115.24383544921875" stroke-width="0.0" fill="rgb(0, 0, 0)" opacity="1.0"/>
    <path d="M 64.52073669433594 118.65795135498047 C 63.442596435546875 126.99300384521484 62.36445236206055 135.3280487060547 61.286312103271484 143.66397094726562 C 58.10151672363281 141.3673553466797 54.915870666503906 139.07159423828125 51.7310791015625 136.77584838867188 C 48.75677490234375 131.81382751464844 45.782470703125 126.85267639160156 42.80902862548828 121.89151763916016 C 50.0462646484375 120.8142318725586 57.28350830078125 119.736083984375 64.52073669433594 118.65795135498047" stroke-width="0.0" fill="rgb(225, 237, 241)" opacity="1.0"/>
    <path d="M 166.82174682617188 49.24365997314453 C 166.82174682617188 49.24365997314453 166.82174682617188 49.24365997314453 166.82174682617188 49.24365997314453 C 165.88223266601562 49.303550720214844 164.94439697265625 49.46697998046875 164.0391082763672 49.72368621826172 C 157.4205322265625 52.5294189453125 150.80279541015625 55.33429718017578 144.1842041015625 58.13917541503906 C 138.56333923339844 91.15081787109375 132.94158935546875 124.16246032714844 127.31986999511719 157.17410278320312 C 140.98658752441406 148.82876586914062 154.65243530273438 140.48345947265625 168.3183135986328 132.13812255859375 C 168.54164123535156 131.0531463623047 168.69137573242188 129.9493408203125 168.7658233642578 128.84381103515625 C 168.28749084472656 111.77324676513672 167.80831909179688 94.70354461669922 167.33001708984375 77.63298034667969 C 167.16058349609375 68.17015838623047 166.9911651611328 58.706478118896484 166.82174682617188 49.24365997314453" stroke-width="0.0" fill="rgb(0, 0, 0)" opacity="1.0"/>
    <path d="M 161.13156127929688 140.04278564453125 C 154.60281372070312 152.44996643066406 148.07406616210938 164.85714721679688 141.5453338623047 177.26516723632812 C 138.1312255859375 170.92637634277344 134.71710205078125 164.5884552001953 131.30299377441406 158.2496795654297 C 141.245849609375 152.180419921875 151.18869018554688 146.11117553710938 161.13156127929688 140.04278564453125" stroke-width="0.0" fill="rgb(225, 237, 241)" opacity="1.0"/>
    <path d="M 69.99957275390625 122.94142150878906 C 77.53628540039062 132.98353576660156 85.07301330566406 143.025634765625 92.60887145996094 153.0677490234375 C 82.88677978515625 160.94415283203125 73.16383361816406 168.82058715820312 63.440887451171875 176.69699096679688 C 65.62710571289062 158.77847290039062 67.81333923339844 140.8599395751953 69.99957275390625 122.94142150878906" stroke-width="0.0" fill="rgb(239, 243, 245)" opacity="1.0"/>
    <path d="M 166.82516479492188 49.24022674560547 C 166.9945831298828 58.703060150146484 167.16314697265625 68.16673278808594 167.33258056640625 77.62956237792969 C 171.1163330078125 77.62956237792969 174.9009552001953 77.62956237792969 178.68470764160156 77.62956237792969 C 174.73153686523438 68.16673278808594 170.77835083007812 58.703060150146484 166.82516479492188 49.24022674560547" stroke-width="0.0" fill="rgb(0, 0, 0)" opacity="1.0"/>
    <path d="M 163.88851928710938 53.041107177734375 C 164.51657104492188 78.30810546875 165.14463806152344 103.57424926757812 165.77268981933594 128.84039306640625 C 165.65289306640625 129.3597869873047 165.53395080566406 129.87916564941406 165.41502380371094 130.397705078125 C 154.07400512695312 137.32518005371094 142.73300170898438 144.25267028808594 131.39283752441406 151.18014526367188 C 136.54396057128906 120.8732681274414 141.69508361816406 90.56553649902344 146.8470458984375 60.257808685302734 C 152.52696228027344 57.85252380371094 158.20773315429688 55.447242736816406 163.88851928710938 53.041107177734375" stroke-width="0.0" fill="rgb(239, 243, 245)" opacity="1.0"/>
    <path d="M 169.84481811523438 53.51942443847656 C 176.2135467529297 56.7838020324707 182.582275390625 60.04730987548828 188.9510040283203 63.310821533203125 C 189.44300842285156 63.76261520385742 189.82122802734375 64.37527465820312 190.00006103515625 65.01788330078125 C 190.00006103515625 68.21294403076172 190.00006103515625 71.40800476074219 190.00006103515625 74.60307312011719 C 183.41140747070312 74.61333465576172 176.82363891601562 74.62274169921875 170.23585510253906 74.63301086425781 C 170.1057891845703 67.59515380859375 169.97573852539062 60.557289123535156 169.84481811523438 53.51942443847656" stroke-width="0.0" fill="rgb(225, 237, 241)" opacity="1.0"/>
  </g>
</svg>
