<?xml version="1.0" encoding="utf-8"?>
<!-- Generator: Adobe Illustrator 27.0.0, SVG Export Plug-In . SVG Version: 6.00 Build 0)  -->
<svg version="1.1" id="图层_1" xmlns="http://www.w3.org/2000/svg" xmlns:xlink="http://www.w3.org/1999/xlink" x="0px" y="0px"
	 viewBox="0 0 224 224" style="enable-background:new 0 0 224 224;" xml:space="preserve">
<style type="text/css">
	.st0{opacity:0.9981;fill:#020001;enable-background:new    ;}
	.st1{opacity:0.99;fill:#EC44B7;enable-background:new    ;}
	.st2{opacity:0.9977;fill:#FDDDEB;enable-background:new    ;}
	.st3{opacity:0.9863;fill:#E7BA82;enable-background:new    ;}
	.st4{opacity:0.972;fill:#9EB7BF;enable-background:new    ;}
	.st5{opacity:0.9926;fill:#C88A58;enable-background:new    ;}
	.st6{opacity:0.9954;fill:#FDEFB5;enable-background:new    ;}
	.st7{opacity:0.9962;fill:#F385CB;enable-background:new    ;}
	.st8{opacity:0.9952;fill:#FDBDD6;enable-background:new    ;}
	.st9{opacity:0.9956;fill:#FCE282;enable-background:new    ;}
</style>
<g>
	<path class="st0" d="M100,168c-1.6-0.6-3.5-1.6-3.9-2.7c-1.3-0.4-7.2-12.8-14.4-26.6c-11-20.4-13-26.1-15.3-26
		c-6.9-2.7-8.3-7.4-5.6-12.9c2.4-1.7,2.4-3.1,1.1-4.4c-2.1-3.3-1.5-10.5,0.9-14.2c3.3-8.4,12.2-14.9,21.3-16.6
		c2.7,0.2,3.9-0.6,5.1-3c3.1-5.4,17.1-9.7,25.9-7.7c7.7,1.5,14.7,4.1,16.5,7.7c0.7,2,1.9,3.6,2.9,3.4c3.2-0.3,10.6,2.1,14.4,5.1
		c7.6,5.2,12.7,16.7,10.3,23.9c-1.6,2.5-2,3.7,1.1,6c2.9,5.3,1.1,10.3-5.3,12.8c-2.6-0.2-4.9,6.5-21.1,36.5
		c-6.7,13.3-8.3,16.7-11.2,17.8C119.9,168.9,104.5,168.5,100,168"/>
	<path class="st1" d="M109.7,65.2l0.6-6.8l3,0.3c9.5,1.8,14.3,4.1,13.2,6.5c-0.2,0.9-1.4,1.3-2.6,0.9c-1.1,0-4.3,1.4-7.5,3
		c-3.1,1.7-6.2,3-6.3,2.8C109.9,72.2,109.6,68.9,109.7,65.2"/>
	<path class="st2" d="M66.9,93.6c-2.1-5.2,1.1-13.5,6.5-18.1c9.3-7.6,21.7-7.7,33,0.7l4.8,3.3l-0.3,15.5l-21.8-0.1
		C69.8,95.1,67.4,95,66.9,93.6"/>
	<path class="st3" d="M65.4,105.7c-0.6-1.4-0.5-2.8,0.4-3.3c0.8-1.8,3.3-2.4,17-2.4c17.6-0.4,18.4-0.1,18.5,4.1l0.3,3.2l-18-0.1
		C67.9,107.4,65.7,107.2,65.4,105.7"/>
	<path class="st4" d="M107.9,109.2l-2.4-9.2l4.8,0c2.5,0.3,5,0.3,4.6,0.6c-0.2,1.7-3.8,15.6-4.3,16.4
		C110.2,117.4,108.9,113.7,107.9,109.2"/>
	<path class="st5" d="M119.6,104.3c0.2-1.2,1-2.7,1.4-3.4c0.7-0.9,7.1-0.9,17-1c14,0,16.6,0.5,17.5,2.4c0.3,0.3,0.4,1.9,0.3,3.3
		c-0.7,1.6-2.8,1.8-18.5,1.8l-18.3-0.1L119.6,104.3"/>
	<path class="st6" d="M99.5,161.6c-0.8-0.8-6.5-12.4-13.1-25.4l-12-23.2l14.5-0.5l14.2,0.2l2.5,9.9c1.1,4.7,2.8,10.4,3.8,11.1
		c1.6,1.6,1.6,4,1.5,15.3l0.5,13.7L106,163C102.6,163.2,100.8,162.5,99.5,161.6"/>
	<path class="st7" d="M105.5,69.3c-1.9-1.4-5.5-2.7-8-3.2L93,64.9l2.4-2.1c2-1.7,5.3-2.8,12.3-4.1l3-0.3l0.1,6.5
		c0.1,3.1-0.4,6.2-0.4,6.5C109.6,71.5,107.6,70.7,105.5,69.3"/>
	<path class="st8" d="M109.9,87.3l-0.2-8l5.4-3.4c6.8-4.6,14-6.6,19.9-6c11.3,1.4,20,11.2,19.1,21l-0.8,3.5l-21.4,0.3l-21.7,0
		L109.9,87.3"/>
	<path class="st9" d="M110.3,149c-0.6-11.8-0.4-14.2,1-15.6c1.3-0.9,3-6,4-11.1l2.5-9.4l14.2-0.2l14.5,0l-5.2,10.4
		c-3,5.6-8.6,16.8-12.8,24.5c-4,7.8-7.7,14.5-8.5,14.6c-1.1,0.3-3.7,0.6-5.7,0.9l-4.2-0.2L110.3,149"/>
</g>
</svg>
