<?xml version="1.0" ?>
<svg xmlns="http://www.w3.org/2000/svg" version="1.1" width="224" height="224">
  <defs/>
  <g>
    <path d="M 28.00000762939453 81.8563232421875 C 84.00037384033203 81.8563232421875 139.99961853027344 81.8563232421875 196.0 81.8563232421875 C 196.0 119.77003479003906 196.0 157.6826171875 196.0 195.59634399414062 C 139.99961853027344 195.59408569335938 84.00037384033203 195.59295654296875 28.00000762939453 195.5918426513672 C 28.00000762939453 157.6803741455078 28.00000762939453 119.76891326904297 28.00000762939453 81.8563232421875" stroke-width="0.0" fill="rgb(172, 155, 155)" opacity="1.0"/>
    <path d="M 28.858978271484375 82.71529388427734 C 84.28669738769531 82.71529388427734 139.71328735351562 82.71529388427734 195.139892578125 82.71529388427734 C 195.139892578125 120.05635070800781 195.139892578125 157.39630126953125 195.139892578125 194.73736572265625 C 139.71328735351562 194.73623657226562 84.28669738769531 194.735107421875 28.858978271484375 194.73287963867188 C 28.858978271484375 157.39405822753906 28.858978271484375 120.05410766601562 28.858978271484375 82.71529388427734" stroke-width="0.0" fill="rgb(48, 5, 3)" opacity="1.0"/>
    <path d="M 29.71906280517578 83.57538604736328 C 29.71906280517578 120.341552734375 29.71906280517578 157.10772705078125 29.71906280517578 193.8739013671875 C 84.5718994140625 193.8739013671875 139.42474365234375 193.8739013671875 194.27755737304688 193.8739013671875 C 194.2786865234375 157.10772705078125 194.27980041503906 120.341552734375 194.2809295654297 83.57538604736328 C 139.42698669433594 83.57538604736328 84.5730209350586 83.57538604736328 29.71906280517578 83.57538604736328" stroke-width="0.0" fill="rgb(48, 6, 4)" opacity="1.0"/>
    <path d="M 32.76982116699219 86.62613677978516 C 85.58918762207031 86.62613677978516 138.40968322753906 86.62613677978516 191.23019409179688 86.62613677978516 C 191.23019409179688 121.35884857177734 191.23019409179688 156.09042358398438 191.23019409179688 190.822021484375 C 138.40968322753906 190.822021484375 85.58918762207031 190.822021484375 32.76982116699219 190.822021484375 C 32.76982116699219 156.09042358398438 32.76982116699219 121.35884857177734 32.76982116699219 86.62613677978516" stroke-width="0.0" fill="rgb(48, 6, 4)" opacity="1.0"/>
    <path d="M 33.62879180908203 87.485107421875 C 33.62879180908203 121.64404296875 33.62879180908203 155.8041229248047 33.62879180908203 189.9630584716797 C 85.87439727783203 189.9630584716797 138.1199951171875 189.9630584716797 190.3656005859375 189.9630584716797 C 190.3678436279297 155.8041229248047 190.3689727783203 121.64404296875 190.37008666992188 87.485107421875 C 138.12335205078125 87.485107421875 85.87664031982422 87.485107421875 33.62879180908203 87.485107421875" stroke-width="0.0" fill="rgb(48, 5, 3)" opacity="1.0"/>
    <path d="M 34.48887634277344 88.34519958496094 C 34.48887634277344 121.93148803710938 34.48887634277344 155.51779174804688 34.48887634277344 189.10409545898438 C 86.16183471679688 189.10409545898438 137.8347930908203 189.10409545898438 189.50775146484375 189.10409545898438 C 189.50888061523438 155.51779174804688 189.510009765625 121.93148803710938 189.5111083984375 88.34519958496094 C 137.8370361328125 88.34519958496094 86.1629638671875 88.34519958496094 34.48887634277344 88.34519958496094" stroke-width="0.0" fill="rgb(251, 226, 194)" opacity="1.0"/>
    <path d="M 28.00000762939453 47.94776916503906 C 84.00037384033203 47.94776916503906 139.99961853027344 47.94776916503906 196.0 47.94776916503906 C 196.0 61.4128303527832 196.0 74.8790054321289 196.0 88.34519958496094 C 139.99961853027344 88.34519958496094 84.00037384033203 88.34519958496094 28.00000762939453 88.34519958496094 C 28.00000762939453 74.8790054321289 28.00000762939453 61.4128303527832 28.00000762939453 47.94776916503906" stroke-width="0.0" fill="rgb(50, 8, 5)" opacity="1.0"/>
    <path d="M 156.10671997070312 99.12106323242188 C 161.55809020996094 99.12106323242188 167.01058959960938 99.12106323242188 172.4619598388672 99.12106323242188 C 172.4619598388672 104.57243347167969 172.4619598388672 110.02493286132812 172.4619598388672 115.47630310058594 C 167.01058959960938 115.47630310058594 161.55809020996094 115.47630310058594 156.10671997070312 115.47630310058594 C 156.10671997070312 110.02493286132812 156.10671997070312 104.57243347167969 156.10671997070312 99.12106323242188" stroke-width="0.0" fill="rgb(177, 40, 0)" opacity="1.0"/>
    <path d="M 156.10671997070312 130.54476928710938 C 161.55809020996094 130.54476928710938 167.01058959960938 130.54476928710938 172.4619598388672 130.54476928710938 C 172.4619598388672 135.99615478515625 172.4619598388672 141.44863891601562 172.4619598388672 146.90000915527344 C 167.01058959960938 146.90000915527344 161.55809020996094 146.90000915527344 156.10671997070312 146.90000915527344 C 156.10671997070312 141.44863891601562 156.10671997070312 135.99615478515625 156.10671997070312 130.54476928710938" stroke-width="0.0" fill="rgb(34, 142, 157)" opacity="1.0"/>
    <path d="M 156.10671997070312 161.97186279296875 C 161.55809020996094 161.97186279296875 167.01058959960938 161.97186279296875 172.4619598388672 161.97186279296875 C 172.4619598388672 167.42434692382812 172.4619598388672 172.87686157226562 172.4619598388672 178.329345703125 C 167.01058959960938 178.329345703125 161.55809020996094 178.329345703125 156.10671997070312 178.329345703125 C 156.10671997070312 172.87686157226562 156.10671997070312 167.42434692382812 156.10671997070312 161.97186279296875" stroke-width="0.0" fill="rgb(34, 141, 157)" opacity="1.0"/>
    <path d="M 121.2493667602539 99.12106323242188 C 126.70186614990234 99.12106323242188 132.1532440185547 99.12106323242188 137.60572814941406 99.12106323242188 C 137.60572814941406 104.57243347167969 137.60572814941406 110.02493286132812 137.60572814941406 115.47630310058594 C 132.1532440185547 115.47630310058594 126.70186614990234 115.47630310058594 121.2493667602539 115.47630310058594 C 121.2493667602539 110.02493286132812 121.2493667602539 104.57243347167969 121.2493667602539 99.12106323242188" stroke-width="0.0" fill="rgb(33, 142, 156)" opacity="1.0"/>
    <path d="M 121.2493667602539 130.54476928710938 C 126.70186614990234 130.54476928710938 132.1532440185547 130.54476928710938 137.60572814941406 130.54476928710938 C 137.60572814941406 135.99615478515625 137.60572814941406 141.44863891601562 137.60572814941406 146.90000915527344 C 132.1532440185547 146.90000915527344 126.70186614990234 146.90000915527344 121.2493667602539 146.90000915527344 C 121.2493667602539 141.44863891601562 121.2493667602539 135.99615478515625 121.2493667602539 130.54476928710938" stroke-width="0.0" fill="rgb(177, 40, 0)" opacity="1.0"/>
    <path d="M 121.2493667602539 161.97186279296875 C 126.70186614990234 161.97186279296875 132.1532440185547 161.97186279296875 137.60572814941406 161.97186279296875 C 137.60572814941406 167.42434692382812 137.60572814941406 172.87686157226562 137.60572814941406 178.329345703125 C 132.1532440185547 178.329345703125 126.70186614990234 178.329345703125 121.2493667602539 178.329345703125 C 121.2493667602539 172.87686157226562 121.2493667602539 167.42434692382812 121.2493667602539 161.97186279296875" stroke-width="0.0" fill="rgb(34, 141, 157)" opacity="1.0"/>
    <path d="M 86.3942642211914 99.12106323242188 C 91.84563446044922 99.12106323242188 97.29813385009766 99.12106323242188 102.74951171875 99.12106323242188 C 102.74951171875 104.57243347167969 102.74951171875 110.02493286132812 102.74951171875 115.47630310058594 C 97.29813385009766 115.47630310058594 91.84563446044922 115.47630310058594 86.3942642211914 115.47630310058594 C 86.3942642211914 110.02493286132812 86.3942642211914 104.57243347167969 86.3942642211914 99.12106323242188" stroke-width="0.0" fill="rgb(34, 142, 157)" opacity="1.0"/>
    <path d="M 86.3942642211914 130.54476928710938 C 91.84563446044922 130.54476928710938 97.29813385009766 130.54476928710938 102.74951171875 130.54476928710938 C 102.74951171875 135.99615478515625 102.74951171875 141.44863891601562 102.74951171875 146.90000915527344 C 97.29813385009766 146.90000915527344 91.84563446044922 146.90000915527344 86.3942642211914 146.90000915527344 C 86.3942642211914 141.44863891601562 86.3942642211914 135.99615478515625 86.3942642211914 130.54476928710938" stroke-width="0.0" fill="rgb(176, 40, 0)" opacity="1.0"/>
    <path d="M 86.3942642211914 161.97186279296875 C 91.84563446044922 161.97186279296875 97.29813385009766 161.97186279296875 102.74951171875 161.97186279296875 C 102.74951171875 167.42434692382812 102.74951171875 172.87686157226562 102.74951171875 178.329345703125 C 97.29813385009766 178.329345703125 91.84563446044922 178.329345703125 86.3942642211914 178.329345703125 C 86.3942642211914 172.87686157226562 86.3942642211914 167.42434692382812 86.3942642211914 161.97186279296875" stroke-width="0.0" fill="rgb(34, 141, 157)" opacity="1.0"/>
    <path d="M 51.53242492675781 130.54476928710938 C 56.98491668701172 130.54476928710938 62.43629455566406 130.54476928710938 67.88878631591797 130.54476928710938 C 67.88878631591797 135.99615478515625 67.88878631591797 141.44863891601562 67.88878631591797 146.90000915527344 C 62.43629455566406 146.90000915527344 56.98491668701172 146.90000915527344 51.53242492675781 146.90000915527344 C 51.53242492675781 141.44863891601562 51.53242492675781 135.99615478515625 51.53242492675781 130.54476928710938" stroke-width="0.0" fill="rgb(34, 142, 157)" opacity="1.0"/>
    <path d="M 51.53242492675781 161.97186279296875 C 56.98491668701172 161.97186279296875 62.43629455566406 161.97186279296875 67.88878631591797 161.97186279296875 C 67.88878631591797 167.42434692382812 67.88878631591797 172.87686157226562 67.88878631591797 178.329345703125 C 62.43629455566406 178.329345703125 56.98491668701172 178.329345703125 51.53242492675781 178.329345703125 C 51.53242492675781 172.87686157226562 51.53242492675781 167.42434692382812 51.53242492675781 161.97186279296875" stroke-width="0.0" fill="rgb(177, 40, 0)" opacity="1.0"/>
    <path d="M 28.858978271484375 48.802242279052734 C 84.28669738769531 48.802242279052734 139.71328735351562 48.802242279052734 195.139892578125 48.802242279052734 C 195.139892578125 61.696903228759766 195.139892578125 74.59043884277344 195.139892578125 87.485107421875 C 139.71328735351562 87.485107421875 84.28669738769531 87.485107421875 28.858978271484375 87.485107421875 C 28.858978271484375 74.59043884277344 28.858978271484375 61.696903228759766 28.858978271484375 48.802242279052734" stroke-width="0.0" fill="rgb(48, 6, 4)" opacity="1.0"/>
    <path d="M 29.71906280517578 49.665706634521484 C 29.71906280517578 61.985477447509766 29.71906280517578 74.30636596679688 29.71906280517578 86.62613677978516 C 84.5718994140625 86.62613677978516 139.42474365234375 86.62613677978516 194.27755737304688 86.62613677978516 C 194.27755737304688 74.30636596679688 194.27755737304688 61.985477447509766 194.27755737304688 49.665706634521484 C 139.42474365234375 49.665706634521484 84.5718994140625 49.665706634521484 29.71906280517578 49.665706634521484" stroke-width="0.0" fill="rgb(48, 6, 4)" opacity="1.0"/>
    <path d="M 30.384910583496094 50.327056884765625 C 84.79534149169922 50.327056884765625 139.2046661376953 50.327056884765625 193.61508178710938 50.327056884765625 C 193.61508178710938 62.2055549621582 193.61508178710938 74.08291625976562 193.61508178710938 85.96028900146484 C 139.2046661376953 85.96028900146484 84.79534149169922 85.96028900146484 30.384910583496094 85.96028900146484 C 30.384910583496094 74.08291625976562 30.384910583496094 62.2055549621582 30.384910583496094 50.327056884765625" stroke-width="0.0" fill="rgb(48, 6, 4)" opacity="1.0"/>
    <path d="M 31.243881225585938 51.18714904785156 C 85.08167266845703 51.18714904785156 138.9183349609375 51.18714904785156 192.7550048828125 51.18714904785156 C 192.7550048828125 62.489627838134766 192.7550048828125 73.79322814941406 192.7550048828125 85.095703125 C 138.9183349609375 85.0968246459961 85.08167266845703 85.09907531738281 31.243881225585938 85.1001968383789 C 31.243881225585938 73.79547119140625 31.243881225585938 62.49187469482422 31.243881225585938 51.18714904785156" stroke-width="0.0" fill="rgb(48, 6, 4)" opacity="1.0"/>
    <path d="M 32.103981018066406 52.05061340332031 C 32.103981018066406 62.78043746948242 32.103981018066406 73.51139831542969 32.103981018066406 84.24122619628906 C 85.36798858642578 84.24122619628906 138.6320037841797 84.24122619628906 191.89602661132812 84.24122619628906 C 191.89602661132812 73.51139831542969 191.89602661132812 62.78043746948242 191.89602661132812 52.05061340332031 C 138.6320037841797 52.05061340332031 85.36798858642578 52.05061340332031 32.103981018066406 52.05061340332031" stroke-width="0.0" fill="rgb(48, 6, 4)" opacity="1.0"/>
    <path d="M 32.76982116699219 52.71196365356445 C 85.58918762207031 52.71196365356445 138.40968322753906 52.71196365356445 191.23019409179688 52.71196365356445 C 191.23019409179688 62.998268127441406 191.23019409179688 73.28458404541016 191.23019409179688 83.57089233398438 C 138.40968322753906 83.57201385498047 85.58918762207031 83.57313537597656 32.76982116699219 83.57538604736328 C 32.76982116699219 73.28794860839844 32.76982116699219 63.00052261352539 32.76982116699219 52.71196365356445" stroke-width="0.0" fill="rgb(48, 6, 4)" opacity="1.0"/>
    <path d="M 33.62879180908203 53.5765495300293 C 33.62879180908203 63.289085388183594 33.62879180908203 73.00274658203125 33.62879180908203 82.71529388427734 C 85.87664031982422 82.71529388427734 138.12335205078125 82.71529388427734 190.37008666992188 82.71529388427734 C 190.37008666992188 73.00274658203125 190.37008666992188 63.289085388183594 190.37008666992188 53.5765495300293 C 138.12335205078125 53.5765495300293 85.87664031982422 53.5765495300293 33.62879180908203 53.5765495300293" stroke-width="0.0" fill="rgb(48, 6, 4)" opacity="1.0"/>
    <path d="M 34.48887634277344 54.43552017211914 C 34.48887634277344 63.57540512084961 34.48887634277344 72.7164306640625 34.48887634277344 81.8563232421875 C 86.16183471679688 81.8563232421875 137.8347930908203 81.8563232421875 189.50775146484375 81.8563232421875 C 189.50888061523438 72.7164306640625 189.510009765625 63.57540512084961 189.5111083984375 54.43552017211914 C 137.8370361328125 54.43552017211914 86.1629638671875 54.43552017211914 34.48887634277344 54.43552017211914" stroke-width="0.0" fill="rgb(48, 6, 4)" opacity="1.0"/>
    <path d="M 149.8289337158203 28.403663635253906 C 156.61199951171875 28.403663635253906 163.39505004882812 28.403663635253906 170.1781005859375 28.403663635253906 C 170.1781005859375 43.32841491699219 170.1781005859375 58.25204086303711 170.1781005859375 73.17566680908203 C 163.39505004882812 73.17566680908203 156.61199951171875 73.17566680908203 149.8289337158203 73.17566680908203 C 149.8289337158203 58.25204086303711 149.8289337158203 43.32841491699219 149.8289337158203 28.403663635253906" stroke-width="0.0" fill="rgb(47, 5, 3)" opacity="1.0"/>
    <path d="M 53.820762634277344 28.403663635253906 C 60.604942321777344 28.403663635253906 67.38800048828125 28.403663635253906 74.17105865478516 28.403663635253906 C 74.17105865478516 43.32841491699219 74.17105865478516 58.25204086303711 74.17105865478516 73.17566680908203 C 67.38800048828125 73.17566680908203 60.604942321777344 73.17566680908203 53.820762634277344 73.17566680908203 C 53.820762634277344 58.25204086303711 53.820762634277344 43.32841491699219 53.820762634277344 28.403663635253906" stroke-width="0.0" fill="rgb(47, 5, 3)" opacity="1.0"/>
    <path d="M 152.21270751953125 30.78857421875 C 157.40696716308594 30.78857421875 162.60009765625 30.78857421875 167.79432678222656 30.78857421875 C 167.79432678222656 44.123382568359375 167.79432678222656 57.457069396972656 167.79432678222656 70.79075622558594 C 162.60009765625 70.79075622558594 157.40696716308594 70.79075622558594 152.21270751953125 70.79075622558594 C 152.21270751953125 57.457069396972656 152.21270751953125 44.123382568359375 152.21270751953125 30.78857421875" stroke-width="0.0" fill="rgb(48, 5, 3)" opacity="1.0"/>
    <path d="M 56.21016311645508 30.78857421875 C 61.40439987182617 30.78857421875 66.59751892089844 30.78857421875 71.79064178466797 30.78857421875 C 71.79064178466797 44.123382568359375 71.79064178466797 57.457069396972656 71.79064178466797 70.79075622558594 C 66.59751892089844 70.79075622558594 61.40439987182617 70.79075622558594 56.21016311645508 70.79075622558594 C 56.21016311645508 57.457069396972656 56.21016311645508 44.123382568359375 56.21016311645508 30.78857421875" stroke-width="0.0" fill="rgb(48, 5, 4)" opacity="1.0"/>
    <path d="M 154.59762573242188 33.17347717285156 C 154.59762573242188 44.91835021972656 154.59762573242188 56.66210174560547 154.59762573242188 68.40585327148438 C 158.20193481445312 68.40585327148438 161.80511474609375 68.40585327148438 165.409423828125 68.40585327148438 C 165.409423828125 56.66210174560547 165.409423828125 44.91835021972656 165.409423828125 33.17347717285156 C 161.80511474609375 33.17347717285156 158.20193481445312 33.17347717285156 154.59762573242188 33.17347717285156" stroke-width="0.0" fill="rgb(237, 142, 38)" opacity="1.0"/>
    <path d="M 58.590576171875 33.17347717285156 C 58.590576171875 44.91835021972656 58.590576171875 56.66210174560547 58.590576171875 68.40585327148438 C 62.194881439208984 68.40585327148438 65.79806518554688 68.40585327148438 69.4012451171875 68.40585327148438 C 69.4012451171875 56.66210174560547 69.4012451171875 44.91835021972656 69.4012451171875 33.17347717285156 C 65.79806518554688 33.17347717285156 62.194881439208984 33.17347717285156 58.590576171875 33.17347717285156" stroke-width="0.0" fill="rgb(237, 143, 39)" opacity="1.0"/>
  </g>
</svg>
