<?xml version="1.0" encoding="UTF-8"?>
<svg xmlns="http://www.w3.org/2000/svg" version="1.1" viewBox="0 0 224 224">
  <defs>
    <style>
      .cls-1 {
        fill: #ed8f27;
      }

      .cls-2 {
        fill: #faeed3;
        isolation: isolate;
        opacity: 1;
      }

      .cls-3 {
        fill: #fbe2c2;
      }

      .cls-4 {
        fill: #300603;
      }
    </style>
  </defs>
  <!-- Generator: Adobe Illustrator 28.6.0, SVG Export Plug-In . SVG Version: 1.2.0 Build 709)  -->
  <g>
    <g id="_图层_1" data-name="图层_1">
      <g>
        <path class="cls-4" d="M71.8,195.4c-3-.7-7.3-5.2-8.2-8.1-.6-1.6,0-7.8,1.1-13.9l1.8-11.7-5.5-32.4c-6.8-38.8-5.9-36.7-8.5-38.9-3.4-3.6-3.8-5.7-3.5-23.1-.2-15.4.4-16.6,1.9-19.7,4-7.6,11.2-10.6,23.3-7.7,7.1,1.9,9.7,1.2,17.3-4.5,8.6-6.1,12-7,20.5-7.4,5.8.3,7.7.7,11.8,2.3,6.5,2.4,10.7,6.7,14.5,12l2.9,4.5h5.1c0,0,6,.4,6,.4l.4,5.4c-.1,3.5.4,7.1,1.4,7.9,1.2,2.3,1.1,22.8-.2,26.3l-1.4,2.7,6.4,9.2c13.1,19.8,16.5,35.1,10.4,48-4.3,8.7-12.3,13.5-23.8,14.8-3.4.3-6.3.4-6.8.3-.4.3.4,3.9,1.7,11.3,1.1,5.7,1.8,11.9,1,13.3-.7,3.1-4.8,7.8-8,8.9-2.1.8-8.8.6-30.8.7-15.5-.1-29.3,0-30.8-.5"/>
        <path class="cls-3" d="M140.9,147.4c1.8-11.2,7.6-43.6,7.8-44.1,1.3-1.4,10.1,15.6,12.1,23.5,3.3,12.7-2.9,21.7-16.4,23.5l-4.1.8.6-3.7"/>
        <path class="cls-3" d="M144,59.9c-.2-2.2-.5-4.7-.9-6-.5-1.8-.1-2.1,1.8-2.2,2.6-.1,2.7,0,2.3,5.8.2,4.6-.2,6.3-1.4,6.2-1.7.5-2.2-.4-1.9-3.8"/>
        <path class="cls-2" d="M58.3,88.9c-3.9-2.4-4.3-5.4-4-22.1-.3-12.4,0-15,1.4-17,3.2-5.5,8.1-6.8,19-4.4,7.8,1.4,10.9.6,19.4-5.2,7.7-5.6,11.2-6.8,18.2-7.1,12.5.1,23.3,9.4,25.9,23.2.5,5.7,1.8,6.5,6.3,5.2,1.5-.3,3.4-.8,3.8-.4.9,0,1.2,3.5,1.1,12l-.3,12.4-4.5,4.8h-42.1c-40.3,0-41.5.4-44.4-1.4"/>
        <path class="cls-1" d="M80.9,182.3c-4.4-2.6-5.1-4.9-3.9-14,.7-7.5.7-8.9-3.1-34.8-2.2-14.8-4.2-28.8-4.5-31.3l-.4-4.8h33.5c28.6,0,33.2,0,33.8.9.1,1-.4,5.9-1.2,11.2-.9,5.4-3.1,18.7-4.8,29.6-3.1,19.2-3.1,20.5-2.3,28.2,1.3,10.2.8,12.2-4.5,14.8-3,1.4-4.7,1.7-21.4,1.3-16.3.4-18.5,0-21.2-1.3"/>
      </g>
    </g>
  </g>
</svg>